<?xml version="1.0" encoding="utf-8" ?>
<svg baseProfile="full" height="590px" version="1.1" width="871px" xmlns="http://www.w3.org/2000/svg" xmlns:ev="http://www.w3.org/2001/xml-events" xmlns:xlink="http://www.w3.org/1999/xlink"><defs /><path d="M471.89999999999964,0 h7 v7 h-7 Z M479.1599999999996,0 h7 v7 h-7 Z M399.2999999999997,7.26 h7 v7 h-7 Z M406.5599999999997,7.26 h7 v7 h-7 Z M413.8199999999997,7.26 h7 v7 h-7 Z M421.0799999999997,7.26 h7 v7 h-7 Z M428.3399999999997,7.26 h7 v7 h-7 Z M435.5999999999997,7.26 h7 v7 h-7 Z M464.63999999999965,7.26 h7 v7 h-7 Z M471.89999999999964,7.26 h7 v7 h-7 Z M479.1599999999996,7.26 h7 v7 h-7 Z M486.4199999999996,7.26 h7 v7 h-7 Z M493.6799999999996,7.26 h7 v7 h-7 Z M500.9399999999996,7.26 h7 v7 h-7 Z M384.77999999999975,14.52 h7 v7 h-7 Z M392.03999999999974,14.52 h7 v7 h-7 Z M399.2999999999997,14.52 h7 v7 h-7 Z M406.5599999999997,14.52 h7 v7 h-7 Z M413.8199999999997,14.52 h7 v7 h-7 Z M421.0799999999997,14.52 h7 v7 h-7 Z M428.3399999999997,14.52 h7 v7 h-7 Z M435.5999999999997,14.52 h7 v7 h-7 Z M442.8599999999997,14.52 h7 v7 h-7 Z M457.37999999999965,14.52 h7 v7 h-7 Z M464.63999999999965,14.52 h7 v7 h-7 Z M471.89999999999964,14.52 h7 v7 h-7 Z M493.6799999999996,14.52 h7 v7 h-7 Z M500.9399999999996,14.52 h7 v7 h-7 Z M508.1999999999996,14.52 h7 v7 h-7 Z M515.4599999999996,14.52 h7 v7 h-7 Z M370.25999999999976,21.78 h7 v7 h-7 Z M377.51999999999975,21.78 h7 v7 h-7 Z M384.77999999999975,21.78 h7 v7 h-7 Z M392.03999999999974,21.78 h7 v7 h-7 Z M399.2999999999997,21.78 h7 v7 h-7 Z M406.5599999999997,21.78 h7 v7 h-7 Z M413.8199999999997,21.78 h7 v7 h-7 Z M421.0799999999997,21.78 h7 v7 h-7 Z M435.5999999999997,21.78 h7 v7 h-7 Z M442.8599999999997,21.78 h7 v7 h-7 Z M450.11999999999966,21.78 h7 v7 h-7 Z M457.37999999999965,21.78 h7 v7 h-7 Z M464.63999999999965,21.78 h7 v7 h-7 Z M479.1599999999996,21.78 h7 v7 h-7 Z M486.4199999999996,21.78 h7 v7 h-7 Z M493.6799999999996,21.78 h7 v7 h-7 Z M500.9399999999996,21.78 h7 v7 h-7 Z M508.1999999999996,21.78 h7 v7 h-7 Z M515.4599999999996,21.78 h7 v7 h-7 Z M522.7199999999996,21.78 h7 v7 h-7 Z M362.9999999999998,29.04 h7 v7 h-7 Z M370.25999999999976,29.04 h7 v7 h-7 Z M377.51999999999975,29.04 h7 v7 h-7 Z M384.77999999999975,29.04 h7 v7 h-7 Z M392.03999999999974,29.04 h7 v7 h-7 Z M399.2999999999997,29.04 h7 v7 h-7 Z M406.5599999999997,29.04 h7 v7 h-7 Z M413.8199999999997,29.04 h7 v7 h-7 Z M421.0799999999997,29.04 h7 v7 h-7 Z M428.3399999999997,29.04 h7 v7 h-7 Z M435.5999999999997,29.04 h7 v7 h-7 Z M471.89999999999964,29.04 h7 v7 h-7 Z M479.1599999999996,29.04 h7 v7 h-7 Z M486.4199999999996,29.04 h7 v7 h-7 Z M493.6799999999996,29.04 h7 v7 h-7 Z M500.9399999999996,29.04 h7 v7 h-7 Z M508.1999999999996,29.04 h7 v7 h-7 Z M515.4599999999996,29.04 h7 v7 h-7 Z M522.7199999999996,29.04 h7 v7 h-7 Z M529.9799999999996,29.04 h7 v7 h-7 Z M355.7399999999998,36.3 h7 v7 h-7 Z M362.9999999999998,36.3 h7 v7 h-7 Z M370.25999999999976,36.3 h7 v7 h-7 Z M377.51999999999975,36.3 h7 v7 h-7 Z M384.77999999999975,36.3 h7 v7 h-7 Z M392.03999999999974,36.3 h7 v7 h-7 Z M399.2999999999997,36.3 h7 v7 h-7 Z M406.5599999999997,36.3 h7 v7 h-7 Z M413.8199999999997,36.3 h7 v7 h-7 Z M421.0799999999997,36.3 h7 v7 h-7 Z M428.3399999999997,36.3 h7 v7 h-7 Z M435.5999999999997,36.3 h7 v7 h-7 Z M442.8599999999997,36.3 h7 v7 h-7 Z M450.11999999999966,36.3 h7 v7 h-7 Z M457.37999999999965,36.3 h7 v7 h-7 Z M464.63999999999965,36.3 h7 v7 h-7 Z M471.89999999999964,36.3 h7 v7 h-7 Z M479.1599999999996,36.3 h7 v7 h-7 Z M486.4199999999996,36.3 h7 v7 h-7 Z M493.6799999999996,36.3 h7 v7 h-7 Z M515.4599999999996,36.3 h7 v7 h-7 Z M522.7199999999996,36.3 h7 v7 h-7 Z M529.9799999999996,36.3 h7 v7 h-7 Z M537.2399999999996,36.3 h7 v7 h-7 Z M624.3599999999994,36.3 h7 v7 h-7 Z M631.6199999999994,36.3 h7 v7 h-7 Z M348.4799999999998,43.559999999999995 h7 v7 h-7 Z M355.7399999999998,43.559999999999995 h7 v7 h-7 Z M362.9999999999998,43.559999999999995 h7 v7 h-7 Z M370.25999999999976,43.559999999999995 h7 v7 h-7 Z M377.51999999999975,43.559999999999995 h7 v7 h-7 Z M384.77999999999975,43.559999999999995 h7 v7 h-7 Z M392.03999999999974,43.559999999999995 h7 v7 h-7 Z M413.8199999999997,43.559999999999995 h7 v7 h-7 Z M421.0799999999997,43.559999999999995 h7 v7 h-7 Z M428.3399999999997,43.559999999999995 h7 v7 h-7 Z M493.6799999999996,43.559999999999995 h7 v7 h-7 Z M515.4599999999996,43.559999999999995 h7 v7 h-7 Z M522.7199999999996,43.559999999999995 h7 v7 h-7 Z M529.9799999999996,43.559999999999995 h7 v7 h-7 Z M537.2399999999996,43.559999999999995 h7 v7 h-7 Z M544.4999999999995,43.559999999999995 h7 v7 h-7 Z M631.6199999999994,43.559999999999995 h7 v7 h-7 Z M638.8799999999994,43.559999999999995 h7 v7 h-7 Z M341.2199999999998,50.81999999999999 h7 v7 h-7 Z M348.4799999999998,50.81999999999999 h7 v7 h-7 Z M362.9999999999998,50.81999999999999 h7 v7 h-7 Z M370.25999999999976,50.81999999999999 h7 v7 h-7 Z M377.51999999999975,50.81999999999999 h7 v7 h-7 Z M413.8199999999997,50.81999999999999 h7 v7 h-7 Z M500.9399999999996,50.81999999999999 h7 v7 h-7 Z M522.7199999999996,50.81999999999999 h7 v7 h-7 Z M537.2399999999996,50.81999999999999 h7 v7 h-7 Z M544.4999999999995,50.81999999999999 h7 v7 h-7 Z M631.6199999999994,50.81999999999999 h7 v7 h-7 Z M638.8799999999994,50.81999999999999 h7 v7 h-7 Z M646.1399999999994,50.81999999999999 h7 v7 h-7 Z M333.9599999999998,58.07999999999999 h7 v7 h-7 Z M341.2199999999998,58.07999999999999 h7 v7 h-7 Z M355.7399999999998,58.07999999999999 h7 v7 h-7 Z M362.9999999999998,58.07999999999999 h7 v7 h-7 Z M370.25999999999976,58.07999999999999 h7 v7 h-7 Z M377.51999999999975,58.07999999999999 h7 v7 h-7 Z M406.5599999999997,58.07999999999999 h7 v7 h-7 Z M500.9399999999996,58.07999999999999 h7 v7 h-7 Z M508.1999999999996,58.07999999999999 h7 v7 h-7 Z M515.4599999999996,58.07999999999999 h7 v7 h-7 Z M522.7199999999996,58.07999999999999 h7 v7 h-7 Z M529.9799999999996,58.07999999999999 h7 v7 h-7 Z M537.2399999999996,58.07999999999999 h7 v7 h-7 Z M544.4999999999995,58.07999999999999 h7 v7 h-7 Z M551.7599999999995,58.07999999999999 h7 v7 h-7 Z M631.6199999999994,58.07999999999999 h7 v7 h-7 Z M646.1399999999994,58.07999999999999 h7 v7 h-7 Z M653.3999999999994,58.07999999999999 h7 v7 h-7 Z M326.6999999999998,65.33999999999999 h7 v7 h-7 Z M333.9599999999998,65.33999999999999 h7 v7 h-7 Z M348.4799999999998,65.33999999999999 h7 v7 h-7 Z M355.7399999999998,65.33999999999999 h7 v7 h-7 Z M362.9999999999998,65.33999999999999 h7 v7 h-7 Z M370.25999999999976,65.33999999999999 h7 v7 h-7 Z M377.51999999999975,65.33999999999999 h7 v7 h-7 Z M384.77999999999975,65.33999999999999 h7 v7 h-7 Z M392.03999999999974,65.33999999999999 h7 v7 h-7 Z M399.2999999999997,65.33999999999999 h7 v7 h-7 Z M406.5599999999997,65.33999999999999 h7 v7 h-7 Z M421.0799999999997,65.33999999999999 h7 v7 h-7 Z M428.3399999999997,65.33999999999999 h7 v7 h-7 Z M435.5999999999997,65.33999999999999 h7 v7 h-7 Z M471.89999999999964,65.33999999999999 h7 v7 h-7 Z M479.1599999999996,65.33999999999999 h7 v7 h-7 Z M486.4199999999996,65.33999999999999 h7 v7 h-7 Z M493.6799999999996,65.33999999999999 h7 v7 h-7 Z M500.9399999999996,65.33999999999999 h7 v7 h-7 Z M508.1999999999996,65.33999999999999 h7 v7 h-7 Z M515.4599999999996,65.33999999999999 h7 v7 h-7 Z M522.7199999999996,65.33999999999999 h7 v7 h-7 Z M529.9799999999996,65.33999999999999 h7 v7 h-7 Z M544.4999999999995,65.33999999999999 h7 v7 h-7 Z M551.7599999999995,65.33999999999999 h7 v7 h-7 Z M631.6199999999994,65.33999999999999 h7 v7 h-7 Z M646.1399999999994,65.33999999999999 h7 v7 h-7 Z M653.3999999999994,65.33999999999999 h7 v7 h-7 Z M319.4399999999998,72.6 h7 v7 h-7 Z M326.6999999999998,72.6 h7 v7 h-7 Z M341.2199999999998,72.6 h7 v7 h-7 Z M348.4799999999998,72.6 h7 v7 h-7 Z M355.7399999999998,72.6 h7 v7 h-7 Z M362.9999999999998,72.6 h7 v7 h-7 Z M370.25999999999976,72.6 h7 v7 h-7 Z M377.51999999999975,72.6 h7 v7 h-7 Z M384.77999999999975,72.6 h7 v7 h-7 Z M392.03999999999974,72.6 h7 v7 h-7 Z M399.2999999999997,72.6 h7 v7 h-7 Z M413.8199999999997,72.6 h7 v7 h-7 Z M421.0799999999997,72.6 h7 v7 h-7 Z M428.3399999999997,72.6 h7 v7 h-7 Z M435.5999999999997,72.6 h7 v7 h-7 Z M464.63999999999965,72.6 h7 v7 h-7 Z M471.89999999999964,72.6 h7 v7 h-7 Z M479.1599999999996,72.6 h7 v7 h-7 Z M486.4199999999996,72.6 h7 v7 h-7 Z M493.6799999999996,72.6 h7 v7 h-7 Z M500.9399999999996,72.6 h7 v7 h-7 Z M508.1999999999996,72.6 h7 v7 h-7 Z M515.4599999999996,72.6 h7 v7 h-7 Z M522.7199999999996,72.6 h7 v7 h-7 Z M529.9799999999996,72.6 h7 v7 h-7 Z M544.4999999999995,72.6 h7 v7 h-7 Z M551.7599999999995,72.6 h7 v7 h-7 Z M631.6199999999994,72.6 h7 v7 h-7 Z M638.8799999999994,72.6 h7 v7 h-7 Z M646.1399999999994,72.6 h7 v7 h-7 Z M653.3999999999994,72.6 h7 v7 h-7 Z M660.6599999999994,72.6 h7 v7 h-7 Z M312.17999999999984,79.86 h7 v7 h-7 Z M319.4399999999998,79.86 h7 v7 h-7 Z M333.9599999999998,79.86 h7 v7 h-7 Z M341.2199999999998,79.86 h7 v7 h-7 Z M348.4799999999998,79.86 h7 v7 h-7 Z M355.7399999999998,79.86 h7 v7 h-7 Z M362.9999999999998,79.86 h7 v7 h-7 Z M370.25999999999976,79.86 h7 v7 h-7 Z M377.51999999999975,79.86 h7 v7 h-7 Z M384.77999999999975,79.86 h7 v7 h-7 Z M392.03999999999974,79.86 h7 v7 h-7 Z M399.2999999999997,79.86 h7 v7 h-7 Z M413.8199999999997,79.86 h7 v7 h-7 Z M421.0799999999997,79.86 h7 v7 h-7 Z M428.3399999999997,79.86 h7 v7 h-7 Z M435.5999999999997,79.86 h7 v7 h-7 Z M464.63999999999965,79.86 h7 v7 h-7 Z M471.89999999999964,79.86 h7 v7 h-7 Z M479.1599999999996,79.86 h7 v7 h-7 Z M486.4199999999996,79.86 h7 v7 h-7 Z M493.6799999999996,79.86 h7 v7 h-7 Z M500.9399999999996,79.86 h7 v7 h-7 Z M508.1999999999996,79.86 h7 v7 h-7 Z M515.4599999999996,79.86 h7 v7 h-7 Z M522.7199999999996,79.86 h7 v7 h-7 Z M529.9799999999996,79.86 h7 v7 h-7 Z M537.2399999999996,79.86 h7 v7 h-7 Z M551.7599999999995,79.86 h7 v7 h-7 Z M559.0199999999995,79.86 h7 v7 h-7 Z M631.6199999999994,79.86 h7 v7 h-7 Z M638.8799999999994,79.86 h7 v7 h-7 Z M660.6599999999994,79.86 h7 v7 h-7 Z M304.91999999999985,87.12 h7 v7 h-7 Z M312.17999999999984,87.12 h7 v7 h-7 Z M326.6999999999998,87.12 h7 v7 h-7 Z M333.9599999999998,87.12 h7 v7 h-7 Z M341.2199999999998,87.12 h7 v7 h-7 Z M348.4799999999998,87.12 h7 v7 h-7 Z M355.7399999999998,87.12 h7 v7 h-7 Z M362.9999999999998,87.12 h7 v7 h-7 Z M370.25999999999976,87.12 h7 v7 h-7 Z M377.51999999999975,87.12 h7 v7 h-7 Z M384.77999999999975,87.12 h7 v7 h-7 Z M392.03999999999974,87.12 h7 v7 h-7 Z M399.2999999999997,87.12 h7 v7 h-7 Z M421.0799999999997,87.12 h7 v7 h-7 Z M428.3399999999997,87.12 h7 v7 h-7 Z M471.89999999999964,87.12 h7 v7 h-7 Z M479.1599999999996,87.12 h7 v7 h-7 Z M486.4199999999996,87.12 h7 v7 h-7 Z M493.6799999999996,87.12 h7 v7 h-7 Z M500.9399999999996,87.12 h7 v7 h-7 Z M508.1999999999996,87.12 h7 v7 h-7 Z M515.4599999999996,87.12 h7 v7 h-7 Z M522.7199999999996,87.12 h7 v7 h-7 Z M529.9799999999996,87.12 h7 v7 h-7 Z M537.2399999999996,87.12 h7 v7 h-7 Z M551.7599999999995,87.12 h7 v7 h-7 Z M559.0199999999995,87.12 h7 v7 h-7 Z M566.2799999999995,87.12 h7 v7 h-7 Z M631.6199999999994,87.12 h7 v7 h-7 Z M638.8799999999994,87.12 h7 v7 h-7 Z M660.6599999999994,87.12 h7 v7 h-7 Z M667.9199999999994,87.12 h7 v7 h-7 Z M297.65999999999985,94.38000000000001 h7 v7 h-7 Z M304.91999999999985,94.38000000000001 h7 v7 h-7 Z M319.4399999999998,94.38000000000001 h7 v7 h-7 Z M326.6999999999998,94.38000000000001 h7 v7 h-7 Z M333.9599999999998,94.38000000000001 h7 v7 h-7 Z M341.2199999999998,94.38000000000001 h7 v7 h-7 Z M348.4799999999998,94.38000000000001 h7 v7 h-7 Z M355.7399999999998,94.38000000000001 h7 v7 h-7 Z M362.9999999999998,94.38000000000001 h7 v7 h-7 Z M370.25999999999976,94.38000000000001 h7 v7 h-7 Z M377.51999999999975,94.38000000000001 h7 v7 h-7 Z M406.5599999999997,94.38000000000001 h7 v7 h-7 Z M486.4199999999996,94.38000000000001 h7 v7 h-7 Z M500.9399999999996,94.38000000000001 h7 v7 h-7 Z M508.1999999999996,94.38000000000001 h7 v7 h-7 Z M515.4599999999996,94.38000000000001 h7 v7 h-7 Z M522.7199999999996,94.38000000000001 h7 v7 h-7 Z M529.9799999999996,94.38000000000001 h7 v7 h-7 Z M537.2399999999996,94.38000000000001 h7 v7 h-7 Z M544.4999999999995,94.38000000000001 h7 v7 h-7 Z M559.0199999999995,94.38000000000001 h7 v7 h-7 Z M566.2799999999995,94.38000000000001 h7 v7 h-7 Z M573.5399999999995,94.38000000000001 h7 v7 h-7 Z M631.6199999999994,94.38000000000001 h7 v7 h-7 Z M638.8799999999994,94.38000000000001 h7 v7 h-7 Z M653.3999999999994,94.38000000000001 h7 v7 h-7 Z M667.9199999999994,94.38000000000001 h7 v7 h-7 Z M283.1399999999999,101.64000000000001 h7 v7 h-7 Z M290.39999999999986,101.64000000000001 h7 v7 h-7 Z M297.65999999999985,101.64000000000001 h7 v7 h-7 Z M312.17999999999984,101.64000000000001 h7 v7 h-7 Z M319.4399999999998,101.64000000000001 h7 v7 h-7 Z M326.6999999999998,101.64000000000001 h7 v7 h-7 Z M333.9599999999998,101.64000000000001 h7 v7 h-7 Z M341.2199999999998,101.64000000000001 h7 v7 h-7 Z M348.4799999999998,101.64000000000001 h7 v7 h-7 Z M355.7399999999998,101.64000000000001 h7 v7 h-7 Z M362.9999999999998,101.64000000000001 h7 v7 h-7 Z M370.25999999999976,101.64000000000001 h7 v7 h-7 Z M413.8199999999997,101.64000000000001 h7 v7 h-7 Z M421.0799999999997,101.64000000000001 h7 v7 h-7 Z M479.1599999999996,101.64000000000001 h7 v7 h-7 Z M486.4199999999996,101.64000000000001 h7 v7 h-7 Z M522.7199999999996,101.64000000000001 h7 v7 h-7 Z M529.9799999999996,101.64000000000001 h7 v7 h-7 Z M537.2399999999996,101.64000000000001 h7 v7 h-7 Z M544.4999999999995,101.64000000000001 h7 v7 h-7 Z M551.7599999999995,101.64000000000001 h7 v7 h-7 Z M566.2799999999995,101.64000000000001 h7 v7 h-7 Z M573.5399999999995,101.64000000000001 h7 v7 h-7 Z M580.7999999999995,101.64000000000001 h7 v7 h-7 Z M588.0599999999995,101.64000000000001 h7 v7 h-7 Z M631.6199999999994,101.64000000000001 h7 v7 h-7 Z M638.8799999999994,101.64000000000001 h7 v7 h-7 Z M653.3999999999994,101.64000000000001 h7 v7 h-7 Z M667.9199999999994,101.64000000000001 h7 v7 h-7 Z M675.1799999999994,101.64000000000001 h7 v7 h-7 Z M275.8799999999999,108.90000000000002 h7 v7 h-7 Z M283.1399999999999,108.90000000000002 h7 v7 h-7 Z M290.39999999999986,108.90000000000002 h7 v7 h-7 Z M304.91999999999985,108.90000000000002 h7 v7 h-7 Z M312.17999999999984,108.90000000000002 h7 v7 h-7 Z M319.4399999999998,108.90000000000002 h7 v7 h-7 Z M326.6999999999998,108.90000000000002 h7 v7 h-7 Z M333.9599999999998,108.90000000000002 h7 v7 h-7 Z M341.2199999999998,108.90000000000002 h7 v7 h-7 Z M348.4799999999998,108.90000000000002 h7 v7 h-7 Z M355.7399999999998,108.90000000000002 h7 v7 h-7 Z M362.9999999999998,108.90000000000002 h7 v7 h-7 Z M370.25999999999976,108.90000000000002 h7 v7 h-7 Z M377.51999999999975,108.90000000000002 h7 v7 h-7 Z M384.77999999999975,108.90000000000002 h7 v7 h-7 Z M406.5599999999997,108.90000000000002 h7 v7 h-7 Z M413.8199999999997,108.90000000000002 h7 v7 h-7 Z M421.0799999999997,108.90000000000002 h7 v7 h-7 Z M479.1599999999996,108.90000000000002 h7 v7 h-7 Z M486.4199999999996,108.90000000000002 h7 v7 h-7 Z M493.6799999999996,108.90000000000002 h7 v7 h-7 Z M522.7199999999996,108.90000000000002 h7 v7 h-7 Z M529.9799999999996,108.90000000000002 h7 v7 h-7 Z M537.2399999999996,108.90000000000002 h7 v7 h-7 Z M544.4999999999995,108.90000000000002 h7 v7 h-7 Z M551.7599999999995,108.90000000000002 h7 v7 h-7 Z M559.0199999999995,108.90000000000002 h7 v7 h-7 Z M573.5399999999995,108.90000000000002 h7 v7 h-7 Z M580.7999999999995,108.90000000000002 h7 v7 h-7 Z M588.0599999999995,108.90000000000002 h7 v7 h-7 Z M595.3199999999995,108.90000000000002 h7 v7 h-7 Z M631.6199999999994,108.90000000000002 h7 v7 h-7 Z M638.8799999999994,108.90000000000002 h7 v7 h-7 Z M653.3999999999994,108.90000000000002 h7 v7 h-7 Z M675.1799999999994,108.90000000000002 h7 v7 h-7 Z M261.3599999999999,116.16000000000003 h7 v7 h-7 Z M268.6199999999999,116.16000000000003 h7 v7 h-7 Z M275.8799999999999,116.16000000000003 h7 v7 h-7 Z M290.39999999999986,116.16000000000003 h7 v7 h-7 Z M297.65999999999985,116.16000000000003 h7 v7 h-7 Z M304.91999999999985,116.16000000000003 h7 v7 h-7 Z M312.17999999999984,116.16000000000003 h7 v7 h-7 Z M319.4399999999998,116.16000000000003 h7 v7 h-7 Z M326.6999999999998,116.16000000000003 h7 v7 h-7 Z M333.9599999999998,116.16000000000003 h7 v7 h-7 Z M341.2199999999998,116.16000000000003 h7 v7 h-7 Z M348.4799999999998,116.16000000000003 h7 v7 h-7 Z M355.7399999999998,116.16000000000003 h7 v7 h-7 Z M362.9999999999998,116.16000000000003 h7 v7 h-7 Z M370.25999999999976,116.16000000000003 h7 v7 h-7 Z M377.51999999999975,116.16000000000003 h7 v7 h-7 Z M384.77999999999975,116.16000000000003 h7 v7 h-7 Z M399.2999999999997,116.16000000000003 h7 v7 h-7 Z M406.5599999999997,116.16000000000003 h7 v7 h-7 Z M413.8199999999997,116.16000000000003 h7 v7 h-7 Z M421.0799999999997,116.16000000000003 h7 v7 h-7 Z M428.3399999999997,116.16000000000003 h7 v7 h-7 Z M442.8599999999997,116.16000000000003 h7 v7 h-7 Z M464.63999999999965,116.16000000000003 h7 v7 h-7 Z M479.1599999999996,116.16000000000003 h7 v7 h-7 Z M486.4199999999996,116.16000000000003 h7 v7 h-7 Z M493.6799999999996,116.16000000000003 h7 v7 h-7 Z M508.1999999999996,116.16000000000003 h7 v7 h-7 Z M515.4599999999996,116.16000000000003 h7 v7 h-7 Z M522.7199999999996,116.16000000000003 h7 v7 h-7 Z M529.9799999999996,116.16000000000003 h7 v7 h-7 Z M537.2399999999996,116.16000000000003 h7 v7 h-7 Z M544.4999999999995,116.16000000000003 h7 v7 h-7 Z M551.7599999999995,116.16000000000003 h7 v7 h-7 Z M559.0199999999995,116.16000000000003 h7 v7 h-7 Z M566.2799999999995,116.16000000000003 h7 v7 h-7 Z M573.5399999999995,116.16000000000003 h7 v7 h-7 Z M588.0599999999995,116.16000000000003 h7 v7 h-7 Z M595.3199999999995,116.16000000000003 h7 v7 h-7 Z M638.8799999999994,116.16000000000003 h7 v7 h-7 Z M653.3999999999994,116.16000000000003 h7 v7 h-7 Z M675.1799999999994,116.16000000000003 h7 v7 h-7 Z M682.4399999999994,116.16000000000003 h7 v7 h-7 Z M246.8399999999999,123.42000000000003 h7 v7 h-7 Z M254.09999999999988,123.42000000000003 h7 v7 h-7 Z M261.3599999999999,123.42000000000003 h7 v7 h-7 Z M283.1399999999999,123.42000000000003 h7 v7 h-7 Z M290.39999999999986,123.42000000000003 h7 v7 h-7 Z M297.65999999999985,123.42000000000003 h7 v7 h-7 Z M304.91999999999985,123.42000000000003 h7 v7 h-7 Z M312.17999999999984,123.42000000000003 h7 v7 h-7 Z M319.4399999999998,123.42000000000003 h7 v7 h-7 Z M326.6999999999998,123.42000000000003 h7 v7 h-7 Z M333.9599999999998,123.42000000000003 h7 v7 h-7 Z M341.2199999999998,123.42000000000003 h7 v7 h-7 Z M348.4799999999998,123.42000000000003 h7 v7 h-7 Z M355.7399999999998,123.42000000000003 h7 v7 h-7 Z M362.9999999999998,123.42000000000003 h7 v7 h-7 Z M370.25999999999976,123.42000000000003 h7 v7 h-7 Z M377.51999999999975,123.42000000000003 h7 v7 h-7 Z M384.77999999999975,123.42000000000003 h7 v7 h-7 Z M392.03999999999974,123.42000000000003 h7 v7 h-7 Z M399.2999999999997,123.42000000000003 h7 v7 h-7 Z M406.5599999999997,123.42000000000003 h7 v7 h-7 Z M413.8199999999997,123.42000000000003 h7 v7 h-7 Z M421.0799999999997,123.42000000000003 h7 v7 h-7 Z M428.3399999999997,123.42000000000003 h7 v7 h-7 Z M435.5999999999997,123.42000000000003 h7 v7 h-7 Z M442.8599999999997,123.42000000000003 h7 v7 h-7 Z M450.11999999999966,123.42000000000003 h7 v7 h-7 Z M457.37999999999965,123.42000000000003 h7 v7 h-7 Z M464.63999999999965,123.42000000000003 h7 v7 h-7 Z M471.89999999999964,123.42000000000003 h7 v7 h-7 Z M479.1599999999996,123.42000000000003 h7 v7 h-7 Z M486.4199999999996,123.42000000000003 h7 v7 h-7 Z M493.6799999999996,123.42000000000003 h7 v7 h-7 Z M500.9399999999996,123.42000000000003 h7 v7 h-7 Z M508.1999999999996,123.42000000000003 h7 v7 h-7 Z M515.4599999999996,123.42000000000003 h7 v7 h-7 Z M522.7199999999996,123.42000000000003 h7 v7 h-7 Z M529.9799999999996,123.42000000000003 h7 v7 h-7 Z M537.2399999999996,123.42000000000003 h7 v7 h-7 Z M544.4999999999995,123.42000000000003 h7 v7 h-7 Z M551.7599999999995,123.42000000000003 h7 v7 h-7 Z M559.0199999999995,123.42000000000003 h7 v7 h-7 Z M566.2799999999995,123.42000000000003 h7 v7 h-7 Z M573.5399999999995,123.42000000000003 h7 v7 h-7 Z M580.7999999999995,123.42000000000003 h7 v7 h-7 Z M588.0599999999995,123.42000000000003 h7 v7 h-7 Z M595.3199999999995,123.42000000000003 h7 v7 h-7 Z M638.8799999999994,123.42000000000003 h7 v7 h-7 Z M653.3999999999994,123.42000000000003 h7 v7 h-7 Z M682.4399999999994,123.42000000000003 h7 v7 h-7 Z M232.3199999999999,130.68000000000004 h7 v7 h-7 Z M239.5799999999999,130.68000000000004 h7 v7 h-7 Z M261.3599999999999,130.68000000000004 h7 v7 h-7 Z M268.6199999999999,130.68000000000004 h7 v7 h-7 Z M275.8799999999999,130.68000000000004 h7 v7 h-7 Z M283.1399999999999,130.68000000000004 h7 v7 h-7 Z M290.39999999999986,130.68000000000004 h7 v7 h-7 Z M297.65999999999985,130.68000000000004 h7 v7 h-7 Z M304.91999999999985,130.68000000000004 h7 v7 h-7 Z M312.17999999999984,130.68000000000004 h7 v7 h-7 Z M319.4399999999998,130.68000000000004 h7 v7 h-7 Z M326.6999999999998,130.68000000000004 h7 v7 h-7 Z M333.9599999999998,130.68000000000004 h7 v7 h-7 Z M341.2199999999998,130.68000000000004 h7 v7 h-7 Z M348.4799999999998,130.68000000000004 h7 v7 h-7 Z M355.7399999999998,130.68000000000004 h7 v7 h-7 Z M362.9999999999998,130.68000000000004 h7 v7 h-7 Z M370.25999999999976,130.68000000000004 h7 v7 h-7 Z M377.51999999999975,130.68000000000004 h7 v7 h-7 Z M384.77999999999975,130.68000000000004 h7 v7 h-7 Z M392.03999999999974,130.68000000000004 h7 v7 h-7 Z M399.2999999999997,130.68000000000004 h7 v7 h-7 Z M406.5599999999997,130.68000000000004 h7 v7 h-7 Z M413.8199999999997,130.68000000000004 h7 v7 h-7 Z M421.0799999999997,130.68000000000004 h7 v7 h-7 Z M428.3399999999997,130.68000000000004 h7 v7 h-7 Z M435.5999999999997,130.68000000000004 h7 v7 h-7 Z M442.8599999999997,130.68000000000004 h7 v7 h-7 Z M450.11999999999966,130.68000000000004 h7 v7 h-7 Z M457.37999999999965,130.68000000000004 h7 v7 h-7 Z M464.63999999999965,130.68000000000004 h7 v7 h-7 Z M471.89999999999964,130.68000000000004 h7 v7 h-7 Z M479.1599999999996,130.68000000000004 h7 v7 h-7 Z M486.4199999999996,130.68000000000004 h7 v7 h-7 Z M493.6799999999996,130.68000000000004 h7 v7 h-7 Z M500.9399999999996,130.68000000000004 h7 v7 h-7 Z M508.1999999999996,130.68000000000004 h7 v7 h-7 Z M515.4599999999996,130.68000000000004 h7 v7 h-7 Z M522.7199999999996,130.68000000000004 h7 v7 h-7 Z M529.9799999999996,130.68000000000004 h7 v7 h-7 Z M537.2399999999996,130.68000000000004 h7 v7 h-7 Z M544.4999999999995,130.68000000000004 h7 v7 h-7 Z M551.7599999999995,130.68000000000004 h7 v7 h-7 Z M559.0199999999995,130.68000000000004 h7 v7 h-7 Z M566.2799999999995,130.68000000000004 h7 v7 h-7 Z M573.5399999999995,130.68000000000004 h7 v7 h-7 Z M580.7999999999995,130.68000000000004 h7 v7 h-7 Z M588.0599999999995,130.68000000000004 h7 v7 h-7 Z M595.3199999999995,130.68000000000004 h7 v7 h-7 Z M638.8799999999994,130.68000000000004 h7 v7 h-7 Z M653.3999999999994,130.68000000000004 h7 v7 h-7 Z M682.4399999999994,130.68000000000004 h7 v7 h-7 Z M232.3199999999999,137.94000000000003 h7 v7 h-7 Z M246.8399999999999,137.94000000000003 h7 v7 h-7 Z M254.09999999999988,137.94000000000003 h7 v7 h-7 Z M261.3599999999999,137.94000000000003 h7 v7 h-7 Z M268.6199999999999,137.94000000000003 h7 v7 h-7 Z M275.8799999999999,137.94000000000003 h7 v7 h-7 Z M283.1399999999999,137.94000000000003 h7 v7 h-7 Z M290.39999999999986,137.94000000000003 h7 v7 h-7 Z M297.65999999999985,137.94000000000003 h7 v7 h-7 Z M304.91999999999985,137.94000000000003 h7 v7 h-7 Z M312.17999999999984,137.94000000000003 h7 v7 h-7 Z M319.4399999999998,137.94000000000003 h7 v7 h-7 Z M326.6999999999998,137.94000000000003 h7 v7 h-7 Z M333.9599999999998,137.94000000000003 h7 v7 h-7 Z M341.2199999999998,137.94000000000003 h7 v7 h-7 Z M348.4799999999998,137.94000000000003 h7 v7 h-7 Z M355.7399999999998,137.94000000000003 h7 v7 h-7 Z M362.9999999999998,137.94000000000003 h7 v7 h-7 Z M370.25999999999976,137.94000000000003 h7 v7 h-7 Z M377.51999999999975,137.94000000000003 h7 v7 h-7 Z M384.77999999999975,137.94000000000003 h7 v7 h-7 Z M392.03999999999974,137.94000000000003 h7 v7 h-7 Z M399.2999999999997,137.94000000000003 h7 v7 h-7 Z M406.5599999999997,137.94000000000003 h7 v7 h-7 Z M493.6799999999996,137.94000000000003 h7 v7 h-7 Z M500.9399999999996,137.94000000000003 h7 v7 h-7 Z M508.1999999999996,137.94000000000003 h7 v7 h-7 Z M515.4599999999996,137.94000000000003 h7 v7 h-7 Z M522.7199999999996,137.94000000000003 h7 v7 h-7 Z M529.9799999999996,137.94000000000003 h7 v7 h-7 Z M537.2399999999996,137.94000000000003 h7 v7 h-7 Z M544.4999999999995,137.94000000000003 h7 v7 h-7 Z M551.7599999999995,137.94000000000003 h7 v7 h-7 Z M559.0199999999995,137.94000000000003 h7 v7 h-7 Z M566.2799999999995,137.94000000000003 h7 v7 h-7 Z M573.5399999999995,137.94000000000003 h7 v7 h-7 Z M580.7999999999995,137.94000000000003 h7 v7 h-7 Z M588.0599999999995,137.94000000000003 h7 v7 h-7 Z M595.3199999999995,137.94000000000003 h7 v7 h-7 Z M638.8799999999994,137.94000000000003 h7 v7 h-7 Z M653.3999999999994,137.94000000000003 h7 v7 h-7 Z M682.4399999999994,137.94000000000003 h7 v7 h-7 Z M689.6999999999994,137.94000000000003 h7 v7 h-7 Z M232.3199999999999,145.20000000000002 h7 v7 h-7 Z M239.5799999999999,145.20000000000002 h7 v7 h-7 Z M246.8399999999999,145.20000000000002 h7 v7 h-7 Z M254.09999999999988,145.20000000000002 h7 v7 h-7 Z M261.3599999999999,145.20000000000002 h7 v7 h-7 Z M268.6199999999999,145.20000000000002 h7 v7 h-7 Z M275.8799999999999,145.20000000000002 h7 v7 h-7 Z M283.1399999999999,145.20000000000002 h7 v7 h-7 Z M290.39999999999986,145.20000000000002 h7 v7 h-7 Z M297.65999999999985,145.20000000000002 h7 v7 h-7 Z M304.91999999999985,145.20000000000002 h7 v7 h-7 Z M312.17999999999984,145.20000000000002 h7 v7 h-7 Z M319.4399999999998,145.20000000000002 h7 v7 h-7 Z M326.6999999999998,145.20000000000002 h7 v7 h-7 Z M333.9599999999998,145.20000000000002 h7 v7 h-7 Z M341.2199999999998,145.20000000000002 h7 v7 h-7 Z M348.4799999999998,145.20000000000002 h7 v7 h-7 Z M355.7399999999998,145.20000000000002 h7 v7 h-7 Z M362.9999999999998,145.20000000000002 h7 v7 h-7 Z M370.25999999999976,145.20000000000002 h7 v7 h-7 Z M377.51999999999975,145.20000000000002 h7 v7 h-7 Z M384.77999999999975,145.20000000000002 h7 v7 h-7 Z M392.03999999999974,145.20000000000002 h7 v7 h-7 Z M508.1999999999996,145.20000000000002 h7 v7 h-7 Z M515.4599999999996,145.20000000000002 h7 v7 h-7 Z M522.7199999999996,145.20000000000002 h7 v7 h-7 Z M529.9799999999996,145.20000000000002 h7 v7 h-7 Z M537.2399999999996,145.20000000000002 h7 v7 h-7 Z M544.4999999999995,145.20000000000002 h7 v7 h-7 Z M551.7599999999995,145.20000000000002 h7 v7 h-7 Z M559.0199999999995,145.20000000000002 h7 v7 h-7 Z M566.2799999999995,145.20000000000002 h7 v7 h-7 Z M573.5399999999995,145.20000000000002 h7 v7 h-7 Z M580.7999999999995,145.20000000000002 h7 v7 h-7 Z M588.0599999999995,145.20000000000002 h7 v7 h-7 Z M638.8799999999994,145.20000000000002 h7 v7 h-7 Z M653.3999999999994,145.20000000000002 h7 v7 h-7 Z M682.4399999999994,145.20000000000002 h7 v7 h-7 Z M689.6999999999994,145.20000000000002 h7 v7 h-7 Z M239.5799999999999,152.46 h7 v7 h-7 Z M246.8399999999999,152.46 h7 v7 h-7 Z M254.09999999999988,152.46 h7 v7 h-7 Z M261.3599999999999,152.46 h7 v7 h-7 Z M268.6199999999999,152.46 h7 v7 h-7 Z M275.8799999999999,152.46 h7 v7 h-7 Z M283.1399999999999,152.46 h7 v7 h-7 Z M290.39999999999986,152.46 h7 v7 h-7 Z M297.65999999999985,152.46 h7 v7 h-7 Z M304.91999999999985,152.46 h7 v7 h-7 Z M312.17999999999984,152.46 h7 v7 h-7 Z M319.4399999999998,152.46 h7 v7 h-7 Z M326.6999999999998,152.46 h7 v7 h-7 Z M333.9599999999998,152.46 h7 v7 h-7 Z M341.2199999999998,152.46 h7 v7 h-7 Z M348.4799999999998,152.46 h7 v7 h-7 Z M355.7399999999998,152.46 h7 v7 h-7 Z M362.9999999999998,152.46 h7 v7 h-7 Z M370.25999999999976,152.46 h7 v7 h-7 Z M377.51999999999975,152.46 h7 v7 h-7 Z M515.4599999999996,152.46 h7 v7 h-7 Z M522.7199999999996,152.46 h7 v7 h-7 Z M529.9799999999996,152.46 h7 v7 h-7 Z M537.2399999999996,152.46 h7 v7 h-7 Z M544.4999999999995,152.46 h7 v7 h-7 Z M551.7599999999995,152.46 h7 v7 h-7 Z M559.0199999999995,152.46 h7 v7 h-7 Z M566.2799999999995,152.46 h7 v7 h-7 Z M573.5399999999995,152.46 h7 v7 h-7 Z M580.7999999999995,152.46 h7 v7 h-7 Z M588.0599999999995,152.46 h7 v7 h-7 Z M638.8799999999994,152.46 h7 v7 h-7 Z M653.3999999999994,152.46 h7 v7 h-7 Z M689.6999999999994,152.46 h7 v7 h-7 Z M246.8399999999999,159.72 h7 v7 h-7 Z M254.09999999999988,159.72 h7 v7 h-7 Z M268.6199999999999,159.72 h7 v7 h-7 Z M275.8799999999999,159.72 h7 v7 h-7 Z M283.1399999999999,159.72 h7 v7 h-7 Z M290.39999999999986,159.72 h7 v7 h-7 Z M297.65999999999985,159.72 h7 v7 h-7 Z M304.91999999999985,159.72 h7 v7 h-7 Z M312.17999999999984,159.72 h7 v7 h-7 Z M319.4399999999998,159.72 h7 v7 h-7 Z M326.6999999999998,159.72 h7 v7 h-7 Z M333.9599999999998,159.72 h7 v7 h-7 Z M341.2199999999998,159.72 h7 v7 h-7 Z M348.4799999999998,159.72 h7 v7 h-7 Z M355.7399999999998,159.72 h7 v7 h-7 Z M362.9999999999998,159.72 h7 v7 h-7 Z M406.5599999999997,159.72 h7 v7 h-7 Z M413.8199999999997,159.72 h7 v7 h-7 Z M421.0799999999997,159.72 h7 v7 h-7 Z M428.3399999999997,159.72 h7 v7 h-7 Z M435.5999999999997,159.72 h7 v7 h-7 Z M442.8599999999997,159.72 h7 v7 h-7 Z M450.11999999999966,159.72 h7 v7 h-7 Z M457.37999999999965,159.72 h7 v7 h-7 Z M464.63999999999965,159.72 h7 v7 h-7 Z M471.89999999999964,159.72 h7 v7 h-7 Z M479.1599999999996,159.72 h7 v7 h-7 Z M522.7199999999996,159.72 h7 v7 h-7 Z M529.9799999999996,159.72 h7 v7 h-7 Z M537.2399999999996,159.72 h7 v7 h-7 Z M544.4999999999995,159.72 h7 v7 h-7 Z M551.7599999999995,159.72 h7 v7 h-7 Z M559.0199999999995,159.72 h7 v7 h-7 Z M566.2799999999995,159.72 h7 v7 h-7 Z M573.5399999999995,159.72 h7 v7 h-7 Z M580.7999999999995,159.72 h7 v7 h-7 Z M638.8799999999994,159.72 h7 v7 h-7 Z M653.3999999999994,159.72 h7 v7 h-7 Z M689.6999999999994,159.72 h7 v7 h-7 Z M7.26,166.98 h7 v7 h-7 Z M14.52,166.98 h7 v7 h-7 Z M246.8399999999999,166.98 h7 v7 h-7 Z M254.09999999999988,166.98 h7 v7 h-7 Z M268.6199999999999,166.98 h7 v7 h-7 Z M275.8799999999999,166.98 h7 v7 h-7 Z M283.1399999999999,166.98 h7 v7 h-7 Z M290.39999999999986,166.98 h7 v7 h-7 Z M297.65999999999985,166.98 h7 v7 h-7 Z M304.91999999999985,166.98 h7 v7 h-7 Z M312.17999999999984,166.98 h7 v7 h-7 Z M319.4399999999998,166.98 h7 v7 h-7 Z M326.6999999999998,166.98 h7 v7 h-7 Z M333.9599999999998,166.98 h7 v7 h-7 Z M341.2199999999998,166.98 h7 v7 h-7 Z M348.4799999999998,166.98 h7 v7 h-7 Z M355.7399999999998,166.98 h7 v7 h-7 Z M377.51999999999975,166.98 h7 v7 h-7 Z M384.77999999999975,166.98 h7 v7 h-7 Z M392.03999999999974,166.98 h7 v7 h-7 Z M399.2999999999997,166.98 h7 v7 h-7 Z M406.5599999999997,166.98 h7 v7 h-7 Z M413.8199999999997,166.98 h7 v7 h-7 Z M421.0799999999997,166.98 h7 v7 h-7 Z M428.3399999999997,166.98 h7 v7 h-7 Z M450.11999999999966,166.98 h7 v7 h-7 Z M457.37999999999965,166.98 h7 v7 h-7 Z M464.63999999999965,166.98 h7 v7 h-7 Z M471.89999999999964,166.98 h7 v7 h-7 Z M479.1599999999996,166.98 h7 v7 h-7 Z M486.4199999999996,166.98 h7 v7 h-7 Z M493.6799999999996,166.98 h7 v7 h-7 Z M500.9399999999996,166.98 h7 v7 h-7 Z M508.1999999999996,166.98 h7 v7 h-7 Z M529.9799999999996,166.98 h7 v7 h-7 Z M537.2399999999996,166.98 h7 v7 h-7 Z M544.4999999999995,166.98 h7 v7 h-7 Z M551.7599999999995,166.98 h7 v7 h-7 Z M559.0199999999995,166.98 h7 v7 h-7 Z M566.2799999999995,166.98 h7 v7 h-7 Z M573.5399999999995,166.98 h7 v7 h-7 Z M631.6199999999994,166.98 h7 v7 h-7 Z M638.8799999999994,166.98 h7 v7 h-7 Z M653.3999999999994,166.98 h7 v7 h-7 Z M689.6999999999994,166.98 h7 v7 h-7 Z M7.26,174.23999999999998 h7 v7 h-7 Z M14.52,174.23999999999998 h7 v7 h-7 Z M246.8399999999999,174.23999999999998 h7 v7 h-7 Z M254.09999999999988,174.23999999999998 h7 v7 h-7 Z M275.8799999999999,174.23999999999998 h7 v7 h-7 Z M283.1399999999999,174.23999999999998 h7 v7 h-7 Z M290.39999999999986,174.23999999999998 h7 v7 h-7 Z M297.65999999999985,174.23999999999998 h7 v7 h-7 Z M304.91999999999985,174.23999999999998 h7 v7 h-7 Z M312.17999999999984,174.23999999999998 h7 v7 h-7 Z M319.4399999999998,174.23999999999998 h7 v7 h-7 Z M326.6999999999998,174.23999999999998 h7 v7 h-7 Z M333.9599999999998,174.23999999999998 h7 v7 h-7 Z M341.2199999999998,174.23999999999998 h7 v7 h-7 Z M348.4799999999998,174.23999999999998 h7 v7 h-7 Z M355.7399999999998,174.23999999999998 h7 v7 h-7 Z M362.9999999999998,174.23999999999998 h7 v7 h-7 Z M370.25999999999976,174.23999999999998 h7 v7 h-7 Z M377.51999999999975,174.23999999999998 h7 v7 h-7 Z M384.77999999999975,174.23999999999998 h7 v7 h-7 Z M464.63999999999965,174.23999999999998 h7 v7 h-7 Z M508.1999999999996,174.23999999999998 h7 v7 h-7 Z M515.4599999999996,174.23999999999998 h7 v7 h-7 Z M522.7199999999996,174.23999999999998 h7 v7 h-7 Z M529.9799999999996,174.23999999999998 h7 v7 h-7 Z M537.2399999999996,174.23999999999998 h7 v7 h-7 Z M544.4999999999995,174.23999999999998 h7 v7 h-7 Z M551.7599999999995,174.23999999999998 h7 v7 h-7 Z M559.0199999999995,174.23999999999998 h7 v7 h-7 Z M566.2799999999995,174.23999999999998 h7 v7 h-7 Z M631.6199999999994,174.23999999999998 h7 v7 h-7 Z M638.8799999999994,174.23999999999998 h7 v7 h-7 Z M653.3999999999994,174.23999999999998 h7 v7 h-7 Z M689.6999999999994,174.23999999999998 h7 v7 h-7 Z M14.52,181.49999999999997 h7 v7 h-7 Z M239.5799999999999,181.49999999999997 h7 v7 h-7 Z M246.8399999999999,181.49999999999997 h7 v7 h-7 Z M254.09999999999988,181.49999999999997 h7 v7 h-7 Z M261.3599999999999,181.49999999999997 h7 v7 h-7 Z M290.39999999999986,181.49999999999997 h7 v7 h-7 Z M297.65999999999985,181.49999999999997 h7 v7 h-7 Z M304.91999999999985,181.49999999999997 h7 v7 h-7 Z M312.17999999999984,181.49999999999997 h7 v7 h-7 Z M319.4399999999998,181.49999999999997 h7 v7 h-7 Z M326.6999999999998,181.49999999999997 h7 v7 h-7 Z M333.9599999999998,181.49999999999997 h7 v7 h-7 Z M341.2199999999998,181.49999999999997 h7 v7 h-7 Z M348.4799999999998,181.49999999999997 h7 v7 h-7 Z M355.7399999999998,181.49999999999997 h7 v7 h-7 Z M362.9999999999998,181.49999999999997 h7 v7 h-7 Z M471.89999999999964,181.49999999999997 h7 v7 h-7 Z M479.1599999999996,181.49999999999997 h7 v7 h-7 Z M522.7199999999996,181.49999999999997 h7 v7 h-7 Z M529.9799999999996,181.49999999999997 h7 v7 h-7 Z M537.2399999999996,181.49999999999997 h7 v7 h-7 Z M544.4999999999995,181.49999999999997 h7 v7 h-7 Z M551.7599999999995,181.49999999999997 h7 v7 h-7 Z M559.0199999999995,181.49999999999997 h7 v7 h-7 Z M631.6199999999994,181.49999999999997 h7 v7 h-7 Z M638.8799999999994,181.49999999999997 h7 v7 h-7 Z M653.3999999999994,181.49999999999997 h7 v7 h-7 Z M689.6999999999994,181.49999999999997 h7 v7 h-7 Z M14.52,188.75999999999996 h7 v7 h-7 Z M232.3199999999999,188.75999999999996 h7 v7 h-7 Z M239.5799999999999,188.75999999999996 h7 v7 h-7 Z M246.8399999999999,188.75999999999996 h7 v7 h-7 Z M254.09999999999988,188.75999999999996 h7 v7 h-7 Z M261.3599999999999,188.75999999999996 h7 v7 h-7 Z M312.17999999999984,188.75999999999996 h7 v7 h-7 Z M319.4399999999998,188.75999999999996 h7 v7 h-7 Z M326.6999999999998,188.75999999999996 h7 v7 h-7 Z M333.9599999999998,188.75999999999996 h7 v7 h-7 Z M341.2199999999998,188.75999999999996 h7 v7 h-7 Z M348.4799999999998,188.75999999999996 h7 v7 h-7 Z M479.1599999999996,188.75999999999996 h7 v7 h-7 Z M486.4199999999996,188.75999999999996 h7 v7 h-7 Z M537.2399999999996,188.75999999999996 h7 v7 h-7 Z M544.4999999999995,188.75999999999996 h7 v7 h-7 Z M631.6199999999994,188.75999999999996 h7 v7 h-7 Z M638.8799999999994,188.75999999999996 h7 v7 h-7 Z M653.3999999999994,188.75999999999996 h7 v7 h-7 Z M689.6999999999994,188.75999999999996 h7 v7 h-7 Z M14.52,196.01999999999995 h7 v7 h-7 Z M232.3199999999999,196.01999999999995 h7 v7 h-7 Z M239.5799999999999,196.01999999999995 h7 v7 h-7 Z M246.8399999999999,196.01999999999995 h7 v7 h-7 Z M319.4399999999998,196.01999999999995 h7 v7 h-7 Z M326.6999999999998,196.01999999999995 h7 v7 h-7 Z M333.9599999999998,196.01999999999995 h7 v7 h-7 Z M486.4199999999996,196.01999999999995 h7 v7 h-7 Z M493.6799999999996,196.01999999999995 h7 v7 h-7 Z M537.2399999999996,196.01999999999995 h7 v7 h-7 Z M544.4999999999995,196.01999999999995 h7 v7 h-7 Z M631.6199999999994,196.01999999999995 h7 v7 h-7 Z M638.8799999999994,196.01999999999995 h7 v7 h-7 Z M653.3999999999994,196.01999999999995 h7 v7 h-7 Z M682.4399999999994,196.01999999999995 h7 v7 h-7 Z M689.6999999999994,196.01999999999995 h7 v7 h-7 Z M232.3199999999999,203.27999999999994 h7 v7 h-7 Z M239.5799999999999,203.27999999999994 h7 v7 h-7 Z M246.8399999999999,203.27999999999994 h7 v7 h-7 Z M333.9599999999998,203.27999999999994 h7 v7 h-7 Z M341.2199999999998,203.27999999999994 h7 v7 h-7 Z M406.5599999999997,203.27999999999994 h7 v7 h-7 Z M413.8199999999997,203.27999999999994 h7 v7 h-7 Z M421.0799999999997,203.27999999999994 h7 v7 h-7 Z M428.3399999999997,203.27999999999994 h7 v7 h-7 Z M435.5999999999997,203.27999999999994 h7 v7 h-7 Z M493.6799999999996,203.27999999999994 h7 v7 h-7 Z M500.9399999999996,203.27999999999994 h7 v7 h-7 Z M508.1999999999996,203.27999999999994 h7 v7 h-7 Z M515.4599999999996,203.27999999999994 h7 v7 h-7 Z M522.7199999999996,203.27999999999994 h7 v7 h-7 Z M529.9799999999996,203.27999999999994 h7 v7 h-7 Z M537.2399999999996,203.27999999999994 h7 v7 h-7 Z M544.4999999999995,203.27999999999994 h7 v7 h-7 Z M631.6199999999994,203.27999999999994 h7 v7 h-7 Z M638.8799999999994,203.27999999999994 h7 v7 h-7 Z M682.4399999999994,203.27999999999994 h7 v7 h-7 Z M689.6999999999994,203.27999999999994 h7 v7 h-7 Z M232.3199999999999,210.53999999999994 h7 v7 h-7 Z M239.5799999999999,210.53999999999994 h7 v7 h-7 Z M246.8399999999999,210.53999999999994 h7 v7 h-7 Z M254.09999999999988,210.53999999999994 h7 v7 h-7 Z M333.9599999999998,210.53999999999994 h7 v7 h-7 Z M341.2199999999998,210.53999999999994 h7 v7 h-7 Z M348.4799999999998,210.53999999999994 h7 v7 h-7 Z M392.03999999999974,210.53999999999994 h7 v7 h-7 Z M399.2999999999997,210.53999999999994 h7 v7 h-7 Z M406.5599999999997,210.53999999999994 h7 v7 h-7 Z M413.8199999999997,210.53999999999994 h7 v7 h-7 Z M421.0799999999997,210.53999999999994 h7 v7 h-7 Z M428.3399999999997,210.53999999999994 h7 v7 h-7 Z M435.5999999999997,210.53999999999994 h7 v7 h-7 Z M442.8599999999997,210.53999999999994 h7 v7 h-7 Z M493.6799999999996,210.53999999999994 h7 v7 h-7 Z M500.9399999999996,210.53999999999994 h7 v7 h-7 Z M508.1999999999996,210.53999999999994 h7 v7 h-7 Z M515.4599999999996,210.53999999999994 h7 v7 h-7 Z M522.7199999999996,210.53999999999994 h7 v7 h-7 Z M529.9799999999996,210.53999999999994 h7 v7 h-7 Z M537.2399999999996,210.53999999999994 h7 v7 h-7 Z M544.4999999999995,210.53999999999994 h7 v7 h-7 Z M631.6199999999994,210.53999999999994 h7 v7 h-7 Z M638.8799999999994,210.53999999999994 h7 v7 h-7 Z M682.4399999999994,210.53999999999994 h7 v7 h-7 Z M0,217.79999999999993 h7 v7 h-7 Z M7.26,217.79999999999993 h7 v7 h-7 Z M232.3199999999999,217.79999999999993 h7 v7 h-7 Z M239.5799999999999,217.79999999999993 h7 v7 h-7 Z M333.9599999999998,217.79999999999993 h7 v7 h-7 Z M348.4799999999998,217.79999999999993 h7 v7 h-7 Z M355.7399999999998,217.79999999999993 h7 v7 h-7 Z M392.03999999999974,217.79999999999993 h7 v7 h-7 Z M399.2999999999997,217.79999999999993 h7 v7 h-7 Z M406.5599999999997,217.79999999999993 h7 v7 h-7 Z M413.8199999999997,217.79999999999993 h7 v7 h-7 Z M421.0799999999997,217.79999999999993 h7 v7 h-7 Z M428.3399999999997,217.79999999999993 h7 v7 h-7 Z M435.5999999999997,217.79999999999993 h7 v7 h-7 Z M442.8599999999997,217.79999999999993 h7 v7 h-7 Z M493.6799999999996,217.79999999999993 h7 v7 h-7 Z M500.9399999999996,217.79999999999993 h7 v7 h-7 Z M508.1999999999996,217.79999999999993 h7 v7 h-7 Z M515.4599999999996,217.79999999999993 h7 v7 h-7 Z M522.7199999999996,217.79999999999993 h7 v7 h-7 Z M529.9799999999996,217.79999999999993 h7 v7 h-7 Z M537.2399999999996,217.79999999999993 h7 v7 h-7 Z M544.4999999999995,217.79999999999993 h7 v7 h-7 Z M631.6199999999994,217.79999999999993 h7 v7 h-7 Z M638.8799999999994,217.79999999999993 h7 v7 h-7 Z M682.4399999999994,217.79999999999993 h7 v7 h-7 Z M21.78,225.05999999999992 h7 v7 h-7 Z M232.3199999999999,225.05999999999992 h7 v7 h-7 Z M239.5799999999999,225.05999999999992 h7 v7 h-7 Z M326.6999999999998,225.05999999999992 h7 v7 h-7 Z M348.4799999999998,225.05999999999992 h7 v7 h-7 Z M355.7399999999998,225.05999999999992 h7 v7 h-7 Z M384.77999999999975,225.05999999999992 h7 v7 h-7 Z M392.03999999999974,225.05999999999992 h7 v7 h-7 Z M399.2999999999997,225.05999999999992 h7 v7 h-7 Z M406.5599999999997,225.05999999999992 h7 v7 h-7 Z M413.8199999999997,225.05999999999992 h7 v7 h-7 Z M421.0799999999997,225.05999999999992 h7 v7 h-7 Z M428.3399999999997,225.05999999999992 h7 v7 h-7 Z M435.5999999999997,225.05999999999992 h7 v7 h-7 Z M442.8599999999997,225.05999999999992 h7 v7 h-7 Z M450.11999999999966,225.05999999999992 h7 v7 h-7 Z M493.6799999999996,225.05999999999992 h7 v7 h-7 Z M500.9399999999996,225.05999999999992 h7 v7 h-7 Z M508.1999999999996,225.05999999999992 h7 v7 h-7 Z M515.4599999999996,225.05999999999992 h7 v7 h-7 Z M522.7199999999996,225.05999999999992 h7 v7 h-7 Z M529.9799999999996,225.05999999999992 h7 v7 h-7 Z M537.2399999999996,225.05999999999992 h7 v7 h-7 Z M544.4999999999995,225.05999999999992 h7 v7 h-7 Z M551.7599999999995,225.05999999999992 h7 v7 h-7 Z M631.6199999999994,225.05999999999992 h7 v7 h-7 Z M646.1399999999994,225.05999999999992 h7 v7 h-7 Z M675.1799999999994,225.05999999999992 h7 v7 h-7 Z M682.4399999999994,225.05999999999992 h7 v7 h-7 Z M239.5799999999999,232.3199999999999 h7 v7 h-7 Z M246.8399999999999,232.3199999999999 h7 v7 h-7 Z M326.6999999999998,232.3199999999999 h7 v7 h-7 Z M341.2199999999998,232.3199999999999 h7 v7 h-7 Z M355.7399999999998,232.3199999999999 h7 v7 h-7 Z M384.77999999999975,232.3199999999999 h7 v7 h-7 Z M392.03999999999974,232.3199999999999 h7 v7 h-7 Z M399.2999999999997,232.3199999999999 h7 v7 h-7 Z M406.5599999999997,232.3199999999999 h7 v7 h-7 Z M413.8199999999997,232.3199999999999 h7 v7 h-7 Z M421.0799999999997,232.3199999999999 h7 v7 h-7 Z M428.3399999999997,232.3199999999999 h7 v7 h-7 Z M435.5999999999997,232.3199999999999 h7 v7 h-7 Z M442.8599999999997,232.3199999999999 h7 v7 h-7 Z M450.11999999999966,232.3199999999999 h7 v7 h-7 Z M500.9399999999996,232.3199999999999 h7 v7 h-7 Z M508.1999999999996,232.3199999999999 h7 v7 h-7 Z M515.4599999999996,232.3199999999999 h7 v7 h-7 Z M522.7199999999996,232.3199999999999 h7 v7 h-7 Z M529.9799999999996,232.3199999999999 h7 v7 h-7 Z M537.2399999999996,232.3199999999999 h7 v7 h-7 Z M544.4999999999995,232.3199999999999 h7 v7 h-7 Z M551.7599999999995,232.3199999999999 h7 v7 h-7 Z M631.6199999999994,232.3199999999999 h7 v7 h-7 Z M646.1399999999994,232.3199999999999 h7 v7 h-7 Z M675.1799999999994,232.3199999999999 h7 v7 h-7 Z M246.8399999999999,239.5799999999999 h7 v7 h-7 Z M254.09999999999988,239.5799999999999 h7 v7 h-7 Z M355.7399999999998,239.5799999999999 h7 v7 h-7 Z M377.51999999999975,239.5799999999999 h7 v7 h-7 Z M384.77999999999975,239.5799999999999 h7 v7 h-7 Z M392.03999999999974,239.5799999999999 h7 v7 h-7 Z M399.2999999999997,239.5799999999999 h7 v7 h-7 Z M406.5599999999997,239.5799999999999 h7 v7 h-7 Z M413.8199999999997,239.5799999999999 h7 v7 h-7 Z M421.0799999999997,239.5799999999999 h7 v7 h-7 Z M428.3399999999997,239.5799999999999 h7 v7 h-7 Z M435.5999999999997,239.5799999999999 h7 v7 h-7 Z M442.8599999999997,239.5799999999999 h7 v7 h-7 Z M450.11999999999966,239.5799999999999 h7 v7 h-7 Z M500.9399999999996,239.5799999999999 h7 v7 h-7 Z M508.1999999999996,239.5799999999999 h7 v7 h-7 Z M515.4599999999996,239.5799999999999 h7 v7 h-7 Z M522.7199999999996,239.5799999999999 h7 v7 h-7 Z M529.9799999999996,239.5799999999999 h7 v7 h-7 Z M537.2399999999996,239.5799999999999 h7 v7 h-7 Z M544.4999999999995,239.5799999999999 h7 v7 h-7 Z M551.7599999999995,239.5799999999999 h7 v7 h-7 Z M624.3599999999994,239.5799999999999 h7 v7 h-7 Z M631.6199999999994,239.5799999999999 h7 v7 h-7 Z M646.1399999999994,239.5799999999999 h7 v7 h-7 Z M667.9199999999994,239.5799999999999 h7 v7 h-7 Z M675.1799999999994,239.5799999999999 h7 v7 h-7 Z M246.8399999999999,246.8399999999999 h7 v7 h-7 Z M254.09999999999988,246.8399999999999 h7 v7 h-7 Z M304.91999999999985,246.8399999999999 h7 v7 h-7 Z M312.17999999999984,246.8399999999999 h7 v7 h-7 Z M333.9599999999998,246.8399999999999 h7 v7 h-7 Z M355.7399999999998,246.8399999999999 h7 v7 h-7 Z M377.51999999999975,246.8399999999999 h7 v7 h-7 Z M384.77999999999975,246.8399999999999 h7 v7 h-7 Z M392.03999999999974,246.8399999999999 h7 v7 h-7 Z M399.2999999999997,246.8399999999999 h7 v7 h-7 Z M406.5599999999997,246.8399999999999 h7 v7 h-7 Z M413.8199999999997,246.8399999999999 h7 v7 h-7 Z M421.0799999999997,246.8399999999999 h7 v7 h-7 Z M428.3399999999997,246.8399999999999 h7 v7 h-7 Z M435.5999999999997,246.8399999999999 h7 v7 h-7 Z M442.8599999999997,246.8399999999999 h7 v7 h-7 Z M450.11999999999966,246.8399999999999 h7 v7 h-7 Z M500.9399999999996,246.8399999999999 h7 v7 h-7 Z M508.1999999999996,246.8399999999999 h7 v7 h-7 Z M515.4599999999996,246.8399999999999 h7 v7 h-7 Z M522.7199999999996,246.8399999999999 h7 v7 h-7 Z M529.9799999999996,246.8399999999999 h7 v7 h-7 Z M537.2399999999996,246.8399999999999 h7 v7 h-7 Z M544.4999999999995,246.8399999999999 h7 v7 h-7 Z M551.7599999999995,246.8399999999999 h7 v7 h-7 Z M624.3599999999994,246.8399999999999 h7 v7 h-7 Z M631.6199999999994,246.8399999999999 h7 v7 h-7 Z M667.9199999999994,246.8399999999999 h7 v7 h-7 Z M246.8399999999999,254.09999999999988 h7 v7 h-7 Z M254.09999999999988,254.09999999999988 h7 v7 h-7 Z M319.4399999999998,254.09999999999988 h7 v7 h-7 Z M333.9599999999998,254.09999999999988 h7 v7 h-7 Z M355.7399999999998,254.09999999999988 h7 v7 h-7 Z M384.77999999999975,254.09999999999988 h7 v7 h-7 Z M392.03999999999974,254.09999999999988 h7 v7 h-7 Z M399.2999999999997,254.09999999999988 h7 v7 h-7 Z M406.5599999999997,254.09999999999988 h7 v7 h-7 Z M413.8199999999997,254.09999999999988 h7 v7 h-7 Z M421.0799999999997,254.09999999999988 h7 v7 h-7 Z M428.3399999999997,254.09999999999988 h7 v7 h-7 Z M435.5999999999997,254.09999999999988 h7 v7 h-7 Z M442.8599999999997,254.09999999999988 h7 v7 h-7 Z M500.9399999999996,254.09999999999988 h7 v7 h-7 Z M508.1999999999996,254.09999999999988 h7 v7 h-7 Z M515.4599999999996,254.09999999999988 h7 v7 h-7 Z M522.7199999999996,254.09999999999988 h7 v7 h-7 Z M529.9799999999996,254.09999999999988 h7 v7 h-7 Z M537.2399999999996,254.09999999999988 h7 v7 h-7 Z M544.4999999999995,254.09999999999988 h7 v7 h-7 Z M551.7599999999995,254.09999999999988 h7 v7 h-7 Z M624.3599999999994,254.09999999999988 h7 v7 h-7 Z M631.6199999999994,254.09999999999988 h7 v7 h-7 Z M660.6599999999994,254.09999999999988 h7 v7 h-7 Z M667.9199999999994,254.09999999999988 h7 v7 h-7 Z M232.3199999999999,261.3599999999999 h7 v7 h-7 Z M239.5799999999999,261.3599999999999 h7 v7 h-7 Z M246.8399999999999,261.3599999999999 h7 v7 h-7 Z M254.09999999999988,261.3599999999999 h7 v7 h-7 Z M261.3599999999999,261.3599999999999 h7 v7 h-7 Z M333.9599999999998,261.3599999999999 h7 v7 h-7 Z M341.2199999999998,261.3599999999999 h7 v7 h-7 Z M355.7399999999998,261.3599999999999 h7 v7 h-7 Z M384.77999999999975,261.3599999999999 h7 v7 h-7 Z M392.03999999999974,261.3599999999999 h7 v7 h-7 Z M399.2999999999997,261.3599999999999 h7 v7 h-7 Z M406.5599999999997,261.3599999999999 h7 v7 h-7 Z M413.8199999999997,261.3599999999999 h7 v7 h-7 Z M421.0799999999997,261.3599999999999 h7 v7 h-7 Z M428.3399999999997,261.3599999999999 h7 v7 h-7 Z M435.5999999999997,261.3599999999999 h7 v7 h-7 Z M442.8599999999997,261.3599999999999 h7 v7 h-7 Z M508.1999999999996,261.3599999999999 h7 v7 h-7 Z M515.4599999999996,261.3599999999999 h7 v7 h-7 Z M522.7199999999996,261.3599999999999 h7 v7 h-7 Z M529.9799999999996,261.3599999999999 h7 v7 h-7 Z M537.2399999999996,261.3599999999999 h7 v7 h-7 Z M544.4999999999995,261.3599999999999 h7 v7 h-7 Z M551.7599999999995,261.3599999999999 h7 v7 h-7 Z M624.3599999999994,261.3599999999999 h7 v7 h-7 Z M660.6599999999994,261.3599999999999 h7 v7 h-7 Z M225.05999999999992,268.6199999999999 h7 v7 h-7 Z M232.3199999999999,268.6199999999999 h7 v7 h-7 Z M239.5799999999999,268.6199999999999 h7 v7 h-7 Z M268.6199999999999,268.6199999999999 h7 v7 h-7 Z M275.8799999999999,268.6199999999999 h7 v7 h-7 Z M319.4399999999998,268.6199999999999 h7 v7 h-7 Z M326.6999999999998,268.6199999999999 h7 v7 h-7 Z M333.9599999999998,268.6199999999999 h7 v7 h-7 Z M341.2199999999998,268.6199999999999 h7 v7 h-7 Z M348.4799999999998,268.6199999999999 h7 v7 h-7 Z M355.7399999999998,268.6199999999999 h7 v7 h-7 Z M392.03999999999974,268.6199999999999 h7 v7 h-7 Z M399.2999999999997,268.6199999999999 h7 v7 h-7 Z M406.5599999999997,268.6199999999999 h7 v7 h-7 Z M413.8199999999997,268.6199999999999 h7 v7 h-7 Z M421.0799999999997,268.6199999999999 h7 v7 h-7 Z M428.3399999999997,268.6199999999999 h7 v7 h-7 Z M435.5999999999997,268.6199999999999 h7 v7 h-7 Z M442.8599999999997,268.6199999999999 h7 v7 h-7 Z M508.1999999999996,268.6199999999999 h7 v7 h-7 Z M515.4599999999996,268.6199999999999 h7 v7 h-7 Z M522.7199999999996,268.6199999999999 h7 v7 h-7 Z M529.9799999999996,268.6199999999999 h7 v7 h-7 Z M537.2399999999996,268.6199999999999 h7 v7 h-7 Z M544.4999999999995,268.6199999999999 h7 v7 h-7 Z M551.7599999999995,268.6199999999999 h7 v7 h-7 Z M580.7999999999995,268.6199999999999 h7 v7 h-7 Z M617.0999999999995,268.6199999999999 h7 v7 h-7 Z M624.3599999999994,268.6199999999999 h7 v7 h-7 Z M653.3999999999994,268.6199999999999 h7 v7 h-7 Z M0,275.8799999999999 h7 v7 h-7 Z M14.52,275.8799999999999 h7 v7 h-7 Z M217.79999999999993,275.8799999999999 h7 v7 h-7 Z M225.05999999999992,275.8799999999999 h7 v7 h-7 Z M304.91999999999985,275.8799999999999 h7 v7 h-7 Z M312.17999999999984,275.8799999999999 h7 v7 h-7 Z M319.4399999999998,275.8799999999999 h7 v7 h-7 Z M326.6999999999998,275.8799999999999 h7 v7 h-7 Z M392.03999999999974,275.8799999999999 h7 v7 h-7 Z M399.2999999999997,275.8799999999999 h7 v7 h-7 Z M406.5599999999997,275.8799999999999 h7 v7 h-7 Z M413.8199999999997,275.8799999999999 h7 v7 h-7 Z M421.0799999999997,275.8799999999999 h7 v7 h-7 Z M428.3399999999997,275.8799999999999 h7 v7 h-7 Z M435.5999999999997,275.8799999999999 h7 v7 h-7 Z M515.4599999999996,275.8799999999999 h7 v7 h-7 Z M522.7199999999996,275.8799999999999 h7 v7 h-7 Z M529.9799999999996,275.8799999999999 h7 v7 h-7 Z M537.2399999999996,275.8799999999999 h7 v7 h-7 Z M544.4999999999995,275.8799999999999 h7 v7 h-7 Z M551.7599999999995,275.8799999999999 h7 v7 h-7 Z M573.5399999999995,275.8799999999999 h7 v7 h-7 Z M580.7999999999995,275.8799999999999 h7 v7 h-7 Z M588.0599999999995,275.8799999999999 h7 v7 h-7 Z M595.3199999999995,275.8799999999999 h7 v7 h-7 Z M602.5799999999995,275.8799999999999 h7 v7 h-7 Z M609.8399999999995,275.8799999999999 h7 v7 h-7 Z M617.0999999999995,275.8799999999999 h7 v7 h-7 Z M624.3599999999994,275.8799999999999 h7 v7 h-7 Z M631.6199999999994,275.8799999999999 h7 v7 h-7 Z M638.8799999999994,275.8799999999999 h7 v7 h-7 Z M646.1399999999994,275.8799999999999 h7 v7 h-7 Z M653.3999999999994,275.8799999999999 h7 v7 h-7 Z M0,283.1399999999999 h7 v7 h-7 Z M217.79999999999993,283.1399999999999 h7 v7 h-7 Z M225.05999999999992,283.1399999999999 h7 v7 h-7 Z M326.6999999999998,283.1399999999999 h7 v7 h-7 Z M333.9599999999998,283.1399999999999 h7 v7 h-7 Z M413.8199999999997,283.1399999999999 h7 v7 h-7 Z M544.4999999999995,283.1399999999999 h7 v7 h-7 Z M551.7599999999995,283.1399999999999 h7 v7 h-7 Z M573.5399999999995,283.1399999999999 h7 v7 h-7 Z M580.7999999999995,283.1399999999999 h7 v7 h-7 Z M617.0999999999995,283.1399999999999 h7 v7 h-7 Z M624.3599999999994,283.1399999999999 h7 v7 h-7 Z M631.6199999999994,283.1399999999999 h7 v7 h-7 Z M638.8799999999994,283.1399999999999 h7 v7 h-7 Z M646.1399999999994,283.1399999999999 h7 v7 h-7 Z M653.3999999999994,283.1399999999999 h7 v7 h-7 Z M660.6599999999994,283.1399999999999 h7 v7 h-7 Z M667.9199999999994,283.1399999999999 h7 v7 h-7 Z M675.1799999999994,283.1399999999999 h7 v7 h-7 Z M682.4399999999994,283.1399999999999 h7 v7 h-7 Z M210.53999999999994,290.39999999999986 h7 v7 h-7 Z M217.79999999999993,290.39999999999986 h7 v7 h-7 Z M304.91999999999985,290.39999999999986 h7 v7 h-7 Z M326.6999999999998,290.39999999999986 h7 v7 h-7 Z M333.9599999999998,290.39999999999986 h7 v7 h-7 Z M544.4999999999995,290.39999999999986 h7 v7 h-7 Z M551.7599999999995,290.39999999999986 h7 v7 h-7 Z M580.7999999999995,290.39999999999986 h7 v7 h-7 Z M588.0599999999995,290.39999999999986 h7 v7 h-7 Z M675.1799999999994,290.39999999999986 h7 v7 h-7 Z M682.4399999999994,290.39999999999986 h7 v7 h-7 Z M210.53999999999994,297.65999999999985 h7 v7 h-7 Z M217.79999999999993,297.65999999999985 h7 v7 h-7 Z M225.05999999999992,297.65999999999985 h7 v7 h-7 Z M297.65999999999985,297.65999999999985 h7 v7 h-7 Z M326.6999999999998,297.65999999999985 h7 v7 h-7 Z M333.9599999999998,297.65999999999985 h7 v7 h-7 Z M544.4999999999995,297.65999999999985 h7 v7 h-7 Z M551.7599999999995,297.65999999999985 h7 v7 h-7 Z M580.7999999999995,297.65999999999985 h7 v7 h-7 Z M588.0599999999995,297.65999999999985 h7 v7 h-7 Z M595.3199999999995,297.65999999999985 h7 v7 h-7 Z M675.1799999999994,297.65999999999985 h7 v7 h-7 Z M682.4399999999994,297.65999999999985 h7 v7 h-7 Z M14.52,304.91999999999985 h7 v7 h-7 Z M210.53999999999994,304.91999999999985 h7 v7 h-7 Z M217.79999999999993,304.91999999999985 h7 v7 h-7 Z M225.05999999999992,304.91999999999985 h7 v7 h-7 Z M297.65999999999985,304.91999999999985 h7 v7 h-7 Z M326.6999999999998,304.91999999999985 h7 v7 h-7 Z M333.9599999999998,304.91999999999985 h7 v7 h-7 Z M544.4999999999995,304.91999999999985 h7 v7 h-7 Z M551.7599999999995,304.91999999999985 h7 v7 h-7 Z M588.0599999999995,304.91999999999985 h7 v7 h-7 Z M595.3199999999995,304.91999999999985 h7 v7 h-7 Z M602.5799999999995,304.91999999999985 h7 v7 h-7 Z M660.6599999999994,304.91999999999985 h7 v7 h-7 Z M667.9199999999994,304.91999999999985 h7 v7 h-7 Z M675.1799999999994,304.91999999999985 h7 v7 h-7 Z M14.52,312.17999999999984 h7 v7 h-7 Z M210.53999999999994,312.17999999999984 h7 v7 h-7 Z M217.79999999999993,312.17999999999984 h7 v7 h-7 Z M225.05999999999992,312.17999999999984 h7 v7 h-7 Z M232.3199999999999,312.17999999999984 h7 v7 h-7 Z M290.39999999999986,312.17999999999984 h7 v7 h-7 Z M326.6999999999998,312.17999999999984 h7 v7 h-7 Z M333.9599999999998,312.17999999999984 h7 v7 h-7 Z M544.4999999999995,312.17999999999984 h7 v7 h-7 Z M551.7599999999995,312.17999999999984 h7 v7 h-7 Z M595.3199999999995,312.17999999999984 h7 v7 h-7 Z M602.5799999999995,312.17999999999984 h7 v7 h-7 Z M609.8399999999995,312.17999999999984 h7 v7 h-7 Z M617.0999999999995,312.17999999999984 h7 v7 h-7 Z M624.3599999999994,312.17999999999984 h7 v7 h-7 Z M631.6199999999994,312.17999999999984 h7 v7 h-7 Z M638.8799999999994,312.17999999999984 h7 v7 h-7 Z M646.1399999999994,312.17999999999984 h7 v7 h-7 Z M653.3999999999994,312.17999999999984 h7 v7 h-7 Z M660.6599999999994,312.17999999999984 h7 v7 h-7 Z M667.9199999999994,312.17999999999984 h7 v7 h-7 Z M675.1799999999994,312.17999999999984 h7 v7 h-7 Z M0,319.4399999999998 h7 v7 h-7 Z M188.75999999999996,319.4399999999998 h7 v7 h-7 Z M196.01999999999995,319.4399999999998 h7 v7 h-7 Z M203.27999999999994,319.4399999999998 h7 v7 h-7 Z M210.53999999999994,319.4399999999998 h7 v7 h-7 Z M232.3199999999999,319.4399999999998 h7 v7 h-7 Z M239.5799999999999,319.4399999999998 h7 v7 h-7 Z M246.8399999999999,319.4399999999998 h7 v7 h-7 Z M254.09999999999988,319.4399999999998 h7 v7 h-7 Z M275.8799999999999,319.4399999999998 h7 v7 h-7 Z M283.1399999999999,319.4399999999998 h7 v7 h-7 Z M319.4399999999998,319.4399999999998 h7 v7 h-7 Z M326.6999999999998,319.4399999999998 h7 v7 h-7 Z M333.9599999999998,319.4399999999998 h7 v7 h-7 Z M544.4999999999995,319.4399999999998 h7 v7 h-7 Z M551.7599999999995,319.4399999999998 h7 v7 h-7 Z M588.0599999999995,319.4399999999998 h7 v7 h-7 Z M595.3199999999995,319.4399999999998 h7 v7 h-7 Z M631.6199999999994,319.4399999999998 h7 v7 h-7 Z M646.1399999999994,319.4399999999998 h7 v7 h-7 Z M653.3999999999994,319.4399999999998 h7 v7 h-7 Z M660.6599999999994,319.4399999999998 h7 v7 h-7 Z M675.1799999999994,319.4399999999998 h7 v7 h-7 Z M174.23999999999998,326.6999999999998 h7 v7 h-7 Z M181.49999999999997,326.6999999999998 h7 v7 h-7 Z M188.75999999999996,326.6999999999998 h7 v7 h-7 Z M196.01999999999995,326.6999999999998 h7 v7 h-7 Z M246.8399999999999,326.6999999999998 h7 v7 h-7 Z M254.09999999999988,326.6999999999998 h7 v7 h-7 Z M261.3599999999999,326.6999999999998 h7 v7 h-7 Z M268.6199999999999,326.6999999999998 h7 v7 h-7 Z M312.17999999999984,326.6999999999998 h7 v7 h-7 Z M319.4399999999998,326.6999999999998 h7 v7 h-7 Z M326.6999999999998,326.6999999999998 h7 v7 h-7 Z M544.4999999999995,326.6999999999998 h7 v7 h-7 Z M551.7599999999995,326.6999999999998 h7 v7 h-7 Z M588.0599999999995,326.6999999999998 h7 v7 h-7 Z M646.1399999999994,326.6999999999998 h7 v7 h-7 Z M653.3999999999994,326.6999999999998 h7 v7 h-7 Z M660.6599999999994,326.6999999999998 h7 v7 h-7 Z M667.9199999999994,326.6999999999998 h7 v7 h-7 Z M675.1799999999994,326.6999999999998 h7 v7 h-7 Z M0,333.9599999999998 h7 v7 h-7 Z M166.98,333.9599999999998 h7 v7 h-7 Z M174.23999999999998,333.9599999999998 h7 v7 h-7 Z M181.49999999999997,333.9599999999998 h7 v7 h-7 Z M203.27999999999994,333.9599999999998 h7 v7 h-7 Z M239.5799999999999,333.9599999999998 h7 v7 h-7 Z M246.8399999999999,333.9599999999998 h7 v7 h-7 Z M254.09999999999988,333.9599999999998 h7 v7 h-7 Z M297.65999999999985,333.9599999999998 h7 v7 h-7 Z M304.91999999999985,333.9599999999998 h7 v7 h-7 Z M312.17999999999984,333.9599999999998 h7 v7 h-7 Z M319.4399999999998,333.9599999999998 h7 v7 h-7 Z M544.4999999999995,333.9599999999998 h7 v7 h-7 Z M551.7599999999995,333.9599999999998 h7 v7 h-7 Z M580.7999999999995,333.9599999999998 h7 v7 h-7 Z M588.0599999999995,333.9599999999998 h7 v7 h-7 Z M646.1399999999994,333.9599999999998 h7 v7 h-7 Z M653.3999999999994,333.9599999999998 h7 v7 h-7 Z M667.9199999999994,333.9599999999998 h7 v7 h-7 Z M29.04,341.2199999999998 h7 v7 h-7 Z M166.98,341.2199999999998 h7 v7 h-7 Z M174.23999999999998,341.2199999999998 h7 v7 h-7 Z M181.49999999999997,341.2199999999998 h7 v7 h-7 Z M188.75999999999996,341.2199999999998 h7 v7 h-7 Z M196.01999999999995,341.2199999999998 h7 v7 h-7 Z M225.05999999999992,341.2199999999998 h7 v7 h-7 Z M232.3199999999999,341.2199999999998 h7 v7 h-7 Z M239.5799999999999,341.2199999999998 h7 v7 h-7 Z M246.8399999999999,341.2199999999998 h7 v7 h-7 Z M254.09999999999988,341.2199999999998 h7 v7 h-7 Z M261.3599999999999,341.2199999999998 h7 v7 h-7 Z M268.6199999999999,341.2199999999998 h7 v7 h-7 Z M275.8799999999999,341.2199999999998 h7 v7 h-7 Z M283.1399999999999,341.2199999999998 h7 v7 h-7 Z M290.39999999999986,341.2199999999998 h7 v7 h-7 Z M297.65999999999985,341.2199999999998 h7 v7 h-7 Z M304.91999999999985,341.2199999999998 h7 v7 h-7 Z M544.4999999999995,341.2199999999998 h7 v7 h-7 Z M551.7599999999995,341.2199999999998 h7 v7 h-7 Z M580.7999999999995,341.2199999999998 h7 v7 h-7 Z M588.0599999999995,341.2199999999998 h7 v7 h-7 Z M631.6199999999994,341.2199999999998 h7 v7 h-7 Z M638.8799999999994,341.2199999999998 h7 v7 h-7 Z M646.1399999999994,341.2199999999998 h7 v7 h-7 Z M653.3999999999994,341.2199999999998 h7 v7 h-7 Z M660.6599999999994,341.2199999999998 h7 v7 h-7 Z M667.9199999999994,341.2199999999998 h7 v7 h-7 Z M166.98,348.4799999999998 h7 v7 h-7 Z M174.23999999999998,348.4799999999998 h7 v7 h-7 Z M181.49999999999997,348.4799999999998 h7 v7 h-7 Z M188.75999999999996,348.4799999999998 h7 v7 h-7 Z M196.01999999999995,348.4799999999998 h7 v7 h-7 Z M203.27999999999994,348.4799999999998 h7 v7 h-7 Z M210.53999999999994,348.4799999999998 h7 v7 h-7 Z M217.79999999999993,348.4799999999998 h7 v7 h-7 Z M225.05999999999992,348.4799999999998 h7 v7 h-7 Z M254.09999999999988,348.4799999999998 h7 v7 h-7 Z M261.3599999999999,348.4799999999998 h7 v7 h-7 Z M268.6199999999999,348.4799999999998 h7 v7 h-7 Z M275.8799999999999,348.4799999999998 h7 v7 h-7 Z M283.1399999999999,348.4799999999998 h7 v7 h-7 Z M290.39999999999986,348.4799999999998 h7 v7 h-7 Z M551.7599999999995,348.4799999999998 h7 v7 h-7 Z M559.0199999999995,348.4799999999998 h7 v7 h-7 Z M580.7999999999995,348.4799999999998 h7 v7 h-7 Z M588.0599999999995,348.4799999999998 h7 v7 h-7 Z M595.3199999999995,348.4799999999998 h7 v7 h-7 Z M624.3599999999994,348.4799999999998 h7 v7 h-7 Z M631.6199999999994,348.4799999999998 h7 v7 h-7 Z M638.8799999999994,348.4799999999998 h7 v7 h-7 Z M646.1399999999994,348.4799999999998 h7 v7 h-7 Z M653.3999999999994,348.4799999999998 h7 v7 h-7 Z M660.6599999999994,348.4799999999998 h7 v7 h-7 Z M21.78,355.7399999999998 h7 v7 h-7 Z M188.75999999999996,355.7399999999998 h7 v7 h-7 Z M196.01999999999995,355.7399999999998 h7 v7 h-7 Z M203.27999999999994,355.7399999999998 h7 v7 h-7 Z M254.09999999999988,355.7399999999998 h7 v7 h-7 Z M261.3599999999999,355.7399999999998 h7 v7 h-7 Z M559.0199999999995,355.7399999999998 h7 v7 h-7 Z M566.2799999999995,355.7399999999998 h7 v7 h-7 Z M573.5399999999995,355.7399999999998 h7 v7 h-7 Z M580.7999999999995,355.7399999999998 h7 v7 h-7 Z M588.0599999999995,355.7399999999998 h7 v7 h-7 Z M595.3199999999995,355.7399999999998 h7 v7 h-7 Z M602.5799999999995,355.7399999999998 h7 v7 h-7 Z M609.8399999999995,355.7399999999998 h7 v7 h-7 Z M617.0999999999995,355.7399999999998 h7 v7 h-7 Z M624.3599999999994,355.7399999999998 h7 v7 h-7 Z M631.6199999999994,355.7399999999998 h7 v7 h-7 Z M638.8799999999994,355.7399999999998 h7 v7 h-7 Z M646.1399999999994,355.7399999999998 h7 v7 h-7 Z M653.3999999999994,355.7399999999998 h7 v7 h-7 Z M246.8399999999999,362.9999999999998 h7 v7 h-7 Z M254.09999999999988,362.9999999999998 h7 v7 h-7 Z M566.2799999999995,362.9999999999998 h7 v7 h-7 Z M573.5399999999995,362.9999999999998 h7 v7 h-7 Z M580.7999999999995,362.9999999999998 h7 v7 h-7 Z M588.0599999999995,362.9999999999998 h7 v7 h-7 Z M653.3999999999994,362.9999999999998 h7 v7 h-7 Z M660.6599999999994,362.9999999999998 h7 v7 h-7 Z M246.8399999999999,370.25999999999976 h7 v7 h-7 Z M254.09999999999988,370.25999999999976 h7 v7 h-7 Z M573.5399999999995,370.25999999999976 h7 v7 h-7 Z M580.7999999999995,370.25999999999976 h7 v7 h-7 Z M653.3999999999994,370.25999999999976 h7 v7 h-7 Z M660.6599999999994,370.25999999999976 h7 v7 h-7 Z M21.78,377.51999999999975 h7 v7 h-7 Z M239.5799999999999,377.51999999999975 h7 v7 h-7 Z M246.8399999999999,377.51999999999975 h7 v7 h-7 Z M660.6599999999994,377.51999999999975 h7 v7 h-7 Z M239.5799999999999,384.77999999999975 h7 v7 h-7 Z M246.8399999999999,384.77999999999975 h7 v7 h-7 Z M355.7399999999998,384.77999999999975 h7 v7 h-7 Z M660.6599999999994,384.77999999999975 h7 v7 h-7 Z M232.3199999999999,392.03999999999974 h7 v7 h-7 Z M239.5799999999999,392.03999999999974 h7 v7 h-7 Z M246.8399999999999,392.03999999999974 h7 v7 h-7 Z M355.7399999999998,392.03999999999974 h7 v7 h-7 Z M522.7199999999996,392.03999999999974 h7 v7 h-7 Z M660.6599999999994,392.03999999999974 h7 v7 h-7 Z M232.3199999999999,399.2999999999997 h7 v7 h-7 Z M239.5799999999999,399.2999999999997 h7 v7 h-7 Z M355.7399999999998,399.2999999999997 h7 v7 h-7 Z M450.11999999999966,399.2999999999997 h7 v7 h-7 Z M522.7199999999996,399.2999999999997 h7 v7 h-7 Z M595.3199999999995,399.2999999999997 h7 v7 h-7 Z M667.9199999999994,399.2999999999997 h7 v7 h-7 Z M225.05999999999992,406.5599999999997 h7 v7 h-7 Z M232.3199999999999,406.5599999999997 h7 v7 h-7 Z M239.5799999999999,406.5599999999997 h7 v7 h-7 Z M348.4799999999998,406.5599999999997 h7 v7 h-7 Z M450.11999999999966,406.5599999999997 h7 v7 h-7 Z M522.7199999999996,406.5599999999997 h7 v7 h-7 Z M595.3199999999995,406.5599999999997 h7 v7 h-7 Z M667.9199999999994,406.5599999999997 h7 v7 h-7 Z M225.05999999999992,413.8199999999997 h7 v7 h-7 Z M232.3199999999999,413.8199999999997 h7 v7 h-7 Z M275.8799999999999,413.8199999999997 h7 v7 h-7 Z M348.4799999999998,413.8199999999997 h7 v7 h-7 Z M450.11999999999966,413.8199999999997 h7 v7 h-7 Z M522.7199999999996,413.8199999999997 h7 v7 h-7 Z M595.3199999999995,413.8199999999997 h7 v7 h-7 Z M667.9199999999994,413.8199999999997 h7 v7 h-7 Z M217.79999999999993,421.0799999999997 h7 v7 h-7 Z M225.05999999999992,421.0799999999997 h7 v7 h-7 Z M232.3199999999999,421.0799999999997 h7 v7 h-7 Z M275.8799999999999,421.0799999999997 h7 v7 h-7 Z M348.4799999999998,421.0799999999997 h7 v7 h-7 Z M450.11999999999966,421.0799999999997 h7 v7 h-7 Z M522.7199999999996,421.0799999999997 h7 v7 h-7 Z M588.0599999999995,421.0799999999997 h7 v7 h-7 Z M595.3199999999995,421.0799999999997 h7 v7 h-7 Z M624.3599999999994,421.0799999999997 h7 v7 h-7 Z M631.6199999999994,421.0799999999997 h7 v7 h-7 Z M638.8799999999994,421.0799999999997 h7 v7 h-7 Z M646.1399999999994,421.0799999999997 h7 v7 h-7 Z M653.3999999999994,421.0799999999997 h7 v7 h-7 Z M667.9199999999994,421.0799999999997 h7 v7 h-7 Z M217.79999999999993,428.3399999999997 h7 v7 h-7 Z M225.05999999999992,428.3399999999997 h7 v7 h-7 Z M268.6199999999999,428.3399999999997 h7 v7 h-7 Z M348.4799999999998,428.3399999999997 h7 v7 h-7 Z M450.11999999999966,428.3399999999997 h7 v7 h-7 Z M522.7199999999996,428.3399999999997 h7 v7 h-7 Z M588.0599999999995,428.3399999999997 h7 v7 h-7 Z M595.3199999999995,428.3399999999997 h7 v7 h-7 Z M602.5799999999995,428.3399999999997 h7 v7 h-7 Z M609.8399999999995,428.3399999999997 h7 v7 h-7 Z M617.0999999999995,428.3399999999997 h7 v7 h-7 Z M624.3599999999994,428.3399999999997 h7 v7 h-7 Z M631.6199999999994,428.3399999999997 h7 v7 h-7 Z M638.8799999999994,428.3399999999997 h7 v7 h-7 Z M646.1399999999994,428.3399999999997 h7 v7 h-7 Z M653.3999999999994,428.3399999999997 h7 v7 h-7 Z M660.6599999999994,428.3399999999997 h7 v7 h-7 Z M667.9199999999994,428.3399999999997 h7 v7 h-7 Z M210.53999999999994,435.5999999999997 h7 v7 h-7 Z M217.79999999999993,435.5999999999997 h7 v7 h-7 Z M268.6199999999999,435.5999999999997 h7 v7 h-7 Z M341.2199999999998,435.5999999999997 h7 v7 h-7 Z M450.11999999999966,435.5999999999997 h7 v7 h-7 Z M522.7199999999996,435.5999999999997 h7 v7 h-7 Z M588.0599999999995,435.5999999999997 h7 v7 h-7 Z M595.3199999999995,435.5999999999997 h7 v7 h-7 Z M602.5799999999995,435.5999999999997 h7 v7 h-7 Z M609.8399999999995,435.5999999999997 h7 v7 h-7 Z M617.0999999999995,435.5999999999997 h7 v7 h-7 Z M624.3599999999994,435.5999999999997 h7 v7 h-7 Z M631.6199999999994,435.5999999999997 h7 v7 h-7 Z M646.1399999999994,435.5999999999997 h7 v7 h-7 Z M653.3999999999994,435.5999999999997 h7 v7 h-7 Z M660.6599999999994,435.5999999999997 h7 v7 h-7 Z M667.9199999999994,435.5999999999997 h7 v7 h-7 Z M203.27999999999994,442.8599999999997 h7 v7 h-7 Z M210.53999999999994,442.8599999999997 h7 v7 h-7 Z M217.79999999999993,442.8599999999997 h7 v7 h-7 Z M268.6199999999999,442.8599999999997 h7 v7 h-7 Z M341.2199999999998,442.8599999999997 h7 v7 h-7 Z M450.11999999999966,442.8599999999997 h7 v7 h-7 Z M522.7199999999996,442.8599999999997 h7 v7 h-7 Z M588.0599999999995,442.8599999999997 h7 v7 h-7 Z M595.3199999999995,442.8599999999997 h7 v7 h-7 Z M602.5799999999995,442.8599999999997 h7 v7 h-7 Z M609.8399999999995,442.8599999999997 h7 v7 h-7 Z M617.0999999999995,442.8599999999997 h7 v7 h-7 Z M624.3599999999994,442.8599999999997 h7 v7 h-7 Z M631.6199999999994,442.8599999999997 h7 v7 h-7 Z M646.1399999999994,442.8599999999997 h7 v7 h-7 Z M653.3999999999994,442.8599999999997 h7 v7 h-7 Z M660.6599999999994,442.8599999999997 h7 v7 h-7 Z M667.9199999999994,442.8599999999997 h7 v7 h-7 Z M203.27999999999994,450.11999999999966 h7 v7 h-7 Z M210.53999999999994,450.11999999999966 h7 v7 h-7 Z M261.3599999999999,450.11999999999966 h7 v7 h-7 Z M341.2199999999998,450.11999999999966 h7 v7 h-7 Z M450.11999999999966,450.11999999999966 h7 v7 h-7 Z M522.7199999999996,450.11999999999966 h7 v7 h-7 Z M588.0599999999995,450.11999999999966 h7 v7 h-7 Z M595.3199999999995,450.11999999999966 h7 v7 h-7 Z M602.5799999999995,450.11999999999966 h7 v7 h-7 Z M609.8399999999995,450.11999999999966 h7 v7 h-7 Z M617.0999999999995,450.11999999999966 h7 v7 h-7 Z M624.3599999999994,450.11999999999966 h7 v7 h-7 Z M631.6199999999994,450.11999999999966 h7 v7 h-7 Z M646.1399999999994,450.11999999999966 h7 v7 h-7 Z M653.3999999999994,450.11999999999966 h7 v7 h-7 Z M660.6599999999994,450.11999999999966 h7 v7 h-7 Z M667.9199999999994,450.11999999999966 h7 v7 h-7 Z M196.01999999999995,457.37999999999965 h7 v7 h-7 Z M203.27999999999994,457.37999999999965 h7 v7 h-7 Z M261.3599999999999,457.37999999999965 h7 v7 h-7 Z M333.9599999999998,457.37999999999965 h7 v7 h-7 Z M341.2199999999998,457.37999999999965 h7 v7 h-7 Z M450.11999999999966,457.37999999999965 h7 v7 h-7 Z M522.7199999999996,457.37999999999965 h7 v7 h-7 Z M595.3199999999995,457.37999999999965 h7 v7 h-7 Z M602.5799999999995,457.37999999999965 h7 v7 h-7 Z M609.8399999999995,457.37999999999965 h7 v7 h-7 Z M617.0999999999995,457.37999999999965 h7 v7 h-7 Z M624.3599999999994,457.37999999999965 h7 v7 h-7 Z M631.6199999999994,457.37999999999965 h7 v7 h-7 Z M653.3999999999994,457.37999999999965 h7 v7 h-7 Z M660.6599999999994,457.37999999999965 h7 v7 h-7 Z M667.9199999999994,457.37999999999965 h7 v7 h-7 Z M196.01999999999995,464.63999999999965 h7 v7 h-7 Z M203.27999999999994,464.63999999999965 h7 v7 h-7 Z M210.53999999999994,464.63999999999965 h7 v7 h-7 Z M254.09999999999988,464.63999999999965 h7 v7 h-7 Z M333.9599999999998,464.63999999999965 h7 v7 h-7 Z M450.11999999999966,464.63999999999965 h7 v7 h-7 Z M522.7199999999996,464.63999999999965 h7 v7 h-7 Z M602.5799999999995,464.63999999999965 h7 v7 h-7 Z M609.8399999999995,464.63999999999965 h7 v7 h-7 Z M617.0999999999995,464.63999999999965 h7 v7 h-7 Z M624.3599999999994,464.63999999999965 h7 v7 h-7 Z M631.6199999999994,464.63999999999965 h7 v7 h-7 Z M653.3999999999994,464.63999999999965 h7 v7 h-7 Z M660.6599999999994,464.63999999999965 h7 v7 h-7 Z M203.27999999999994,471.89999999999964 h7 v7 h-7 Z M210.53999999999994,471.89999999999964 h7 v7 h-7 Z M217.79999999999993,471.89999999999964 h7 v7 h-7 Z M254.09999999999988,471.89999999999964 h7 v7 h-7 Z M333.9599999999998,471.89999999999964 h7 v7 h-7 Z M450.11999999999966,471.89999999999964 h7 v7 h-7 Z M522.7199999999996,471.89999999999964 h7 v7 h-7 Z M624.3599999999994,471.89999999999964 h7 v7 h-7 Z M631.6199999999994,471.89999999999964 h7 v7 h-7 Z M638.8799999999994,471.89999999999964 h7 v7 h-7 Z M210.53999999999994,479.1599999999996 h7 v7 h-7 Z M217.79999999999993,479.1599999999996 h7 v7 h-7 Z M225.05999999999992,479.1599999999996 h7 v7 h-7 Z M232.3199999999999,479.1599999999996 h7 v7 h-7 Z M239.5799999999999,479.1599999999996 h7 v7 h-7 Z M246.8399999999999,479.1599999999996 h7 v7 h-7 Z M254.09999999999988,479.1599999999996 h7 v7 h-7 Z M333.9599999999998,479.1599999999996 h7 v7 h-7 Z M450.11999999999966,479.1599999999996 h7 v7 h-7 Z M522.7199999999996,479.1599999999996 h7 v7 h-7 Z M631.6199999999994,479.1599999999996 h7 v7 h-7 Z M638.8799999999994,479.1599999999996 h7 v7 h-7 Z M225.05999999999992,486.4199999999996 h7 v7 h-7 Z M232.3199999999999,486.4199999999996 h7 v7 h-7 Z M239.5799999999999,486.4199999999996 h7 v7 h-7 Z M246.8399999999999,486.4199999999996 h7 v7 h-7 Z M326.6999999999998,486.4199999999996 h7 v7 h-7 Z M450.11999999999966,486.4199999999996 h7 v7 h-7 Z M522.7199999999996,486.4199999999996 h7 v7 h-7 Z M631.6199999999994,486.4199999999996 h7 v7 h-7 Z M638.8799999999994,486.4199999999996 h7 v7 h-7 Z M232.3199999999999,493.6799999999996 h7 v7 h-7 Z M239.5799999999999,493.6799999999996 h7 v7 h-7 Z M326.6999999999998,493.6799999999996 h7 v7 h-7 Z M450.11999999999966,493.6799999999996 h7 v7 h-7 Z M522.7199999999996,493.6799999999996 h7 v7 h-7 Z M544.4999999999995,493.6799999999996 h7 v7 h-7 Z M551.7599999999995,493.6799999999996 h7 v7 h-7 Z M559.0199999999995,493.6799999999996 h7 v7 h-7 Z M566.2799999999995,493.6799999999996 h7 v7 h-7 Z M573.5399999999995,493.6799999999996 h7 v7 h-7 Z M580.7999999999995,493.6799999999996 h7 v7 h-7 Z M588.0599999999995,493.6799999999996 h7 v7 h-7 Z M595.3199999999995,493.6799999999996 h7 v7 h-7 Z M602.5799999999995,493.6799999999996 h7 v7 h-7 Z M609.8399999999995,493.6799999999996 h7 v7 h-7 Z M617.0999999999995,493.6799999999996 h7 v7 h-7 Z M624.3599999999994,493.6799999999996 h7 v7 h-7 Z M631.6199999999994,493.6799999999996 h7 v7 h-7 Z M232.3199999999999,500.9399999999996 h7 v7 h-7 Z M239.5799999999999,500.9399999999996 h7 v7 h-7 Z M326.6999999999998,500.9399999999996 h7 v7 h-7 Z M450.11999999999966,500.9399999999996 h7 v7 h-7 Z M522.7199999999996,500.9399999999996 h7 v7 h-7 Z M529.9799999999996,500.9399999999996 h7 v7 h-7 Z M537.2399999999996,500.9399999999996 h7 v7 h-7 Z M544.4999999999995,500.9399999999996 h7 v7 h-7 Z M551.7599999999995,500.9399999999996 h7 v7 h-7 Z M595.3199999999995,500.9399999999996 h7 v7 h-7 Z M602.5799999999995,500.9399999999996 h7 v7 h-7 Z M609.8399999999995,500.9399999999996 h7 v7 h-7 Z M617.0999999999995,500.9399999999996 h7 v7 h-7 Z M232.3199999999999,508.1999999999996 h7 v7 h-7 Z M239.5799999999999,508.1999999999996 h7 v7 h-7 Z M319.4399999999998,508.1999999999996 h7 v7 h-7 Z M326.6999999999998,508.1999999999996 h7 v7 h-7 Z M341.2199999999998,508.1999999999996 h7 v7 h-7 Z M348.4799999999998,508.1999999999996 h7 v7 h-7 Z M355.7399999999998,508.1999999999996 h7 v7 h-7 Z M362.9999999999998,508.1999999999996 h7 v7 h-7 Z M370.25999999999976,508.1999999999996 h7 v7 h-7 Z M377.51999999999975,508.1999999999996 h7 v7 h-7 Z M384.77999999999975,508.1999999999996 h7 v7 h-7 Z M392.03999999999974,508.1999999999996 h7 v7 h-7 Z M450.11999999999966,508.1999999999996 h7 v7 h-7 Z M522.7199999999996,508.1999999999996 h7 v7 h-7 Z M529.9799999999996,508.1999999999996 h7 v7 h-7 Z M537.2399999999996,508.1999999999996 h7 v7 h-7 Z M544.4999999999995,508.1999999999996 h7 v7 h-7 Z M232.3199999999999,515.4599999999996 h7 v7 h-7 Z M239.5799999999999,515.4599999999996 h7 v7 h-7 Z M319.4399999999998,515.4599999999996 h7 v7 h-7 Z M326.6999999999998,515.4599999999996 h7 v7 h-7 Z M333.9599999999998,515.4599999999996 h7 v7 h-7 Z M341.2199999999998,515.4599999999996 h7 v7 h-7 Z M348.4799999999998,515.4599999999996 h7 v7 h-7 Z M355.7399999999998,515.4599999999996 h7 v7 h-7 Z M384.77999999999975,515.4599999999996 h7 v7 h-7 Z M392.03999999999974,515.4599999999996 h7 v7 h-7 Z M399.2999999999997,515.4599999999996 h7 v7 h-7 Z M406.5599999999997,515.4599999999996 h7 v7 h-7 Z M413.8199999999997,515.4599999999996 h7 v7 h-7 Z M421.0799999999997,515.4599999999996 h7 v7 h-7 Z M450.11999999999966,515.4599999999996 h7 v7 h-7 Z M522.7199999999996,515.4599999999996 h7 v7 h-7 Z M529.9799999999996,515.4599999999996 h7 v7 h-7 Z M537.2399999999996,515.4599999999996 h7 v7 h-7 Z M544.4999999999995,515.4599999999996 h7 v7 h-7 Z M551.7599999999995,515.4599999999996 h7 v7 h-7 Z M863.9399999999991,515.4599999999996 h7 v7 h-7 Z M239.5799999999999,522.7199999999996 h7 v7 h-7 Z M246.8399999999999,522.7199999999996 h7 v7 h-7 Z M319.4399999999998,522.7199999999996 h7 v7 h-7 Z M326.6999999999998,522.7199999999996 h7 v7 h-7 Z M333.9599999999998,522.7199999999996 h7 v7 h-7 Z M341.2199999999998,522.7199999999996 h7 v7 h-7 Z M348.4799999999998,522.7199999999996 h7 v7 h-7 Z M421.0799999999997,522.7199999999996 h7 v7 h-7 Z M428.3399999999997,522.7199999999996 h7 v7 h-7 Z M435.5999999999997,522.7199999999996 h7 v7 h-7 Z M442.8599999999997,522.7199999999996 h7 v7 h-7 Z M450.11999999999966,522.7199999999996 h7 v7 h-7 Z M522.7199999999996,522.7199999999996 h7 v7 h-7 Z M529.9799999999996,522.7199999999996 h7 v7 h-7 Z M537.2399999999996,522.7199999999996 h7 v7 h-7 Z M544.4999999999995,522.7199999999996 h7 v7 h-7 Z M551.7599999999995,522.7199999999996 h7 v7 h-7 Z M863.9399999999991,522.7199999999996 h7 v7 h-7 Z M239.5799999999999,529.9799999999996 h7 v7 h-7 Z M246.8399999999999,529.9799999999996 h7 v7 h-7 Z M254.09999999999988,529.9799999999996 h7 v7 h-7 Z M319.4399999999998,529.9799999999996 h7 v7 h-7 Z M326.6999999999998,529.9799999999996 h7 v7 h-7 Z M333.9599999999998,529.9799999999996 h7 v7 h-7 Z M341.2199999999998,529.9799999999996 h7 v7 h-7 Z M348.4799999999998,529.9799999999996 h7 v7 h-7 Z M421.0799999999997,529.9799999999996 h7 v7 h-7 Z M428.3399999999997,529.9799999999996 h7 v7 h-7 Z M435.5999999999997,529.9799999999996 h7 v7 h-7 Z M442.8599999999997,529.9799999999996 h7 v7 h-7 Z M450.11999999999966,529.9799999999996 h7 v7 h-7 Z M529.9799999999996,529.9799999999996 h7 v7 h-7 Z M537.2399999999996,529.9799999999996 h7 v7 h-7 Z M544.4999999999995,529.9799999999996 h7 v7 h-7 Z M551.7599999999995,529.9799999999996 h7 v7 h-7 Z M863.9399999999991,529.9799999999996 h7 v7 h-7 Z M246.8399999999999,537.2399999999996 h7 v7 h-7 Z M254.09999999999988,537.2399999999996 h7 v7 h-7 Z M261.3599999999999,537.2399999999996 h7 v7 h-7 Z M326.6999999999998,537.2399999999996 h7 v7 h-7 Z M333.9599999999998,537.2399999999996 h7 v7 h-7 Z M341.2199999999998,537.2399999999996 h7 v7 h-7 Z M348.4799999999998,537.2399999999996 h7 v7 h-7 Z M421.0799999999997,537.2399999999996 h7 v7 h-7 Z M428.3399999999997,537.2399999999996 h7 v7 h-7 Z M435.5999999999997,537.2399999999996 h7 v7 h-7 Z M442.8599999999997,537.2399999999996 h7 v7 h-7 Z M450.11999999999966,537.2399999999996 h7 v7 h-7 Z M544.4999999999995,537.2399999999996 h7 v7 h-7 Z M551.7599999999995,537.2399999999996 h7 v7 h-7 Z M254.09999999999988,544.4999999999995 h7 v7 h-7 Z M261.3599999999999,544.4999999999995 h7 v7 h-7 Z M268.6199999999999,544.4999999999995 h7 v7 h-7 Z M275.8799999999999,544.4999999999995 h7 v7 h-7 Z M333.9599999999998,544.4999999999995 h7 v7 h-7 Z M341.2199999999998,544.4999999999995 h7 v7 h-7 Z M348.4799999999998,544.4999999999995 h7 v7 h-7 Z M421.0799999999997,544.4999999999995 h7 v7 h-7 Z M428.3399999999997,544.4999999999995 h7 v7 h-7 Z M435.5999999999997,544.4999999999995 h7 v7 h-7 Z M442.8599999999997,544.4999999999995 h7 v7 h-7 Z M450.11999999999966,544.4999999999995 h7 v7 h-7 Z M544.4999999999995,544.4999999999995 h7 v7 h-7 Z M268.6199999999999,551.7599999999995 h7 v7 h-7 Z M275.8799999999999,551.7599999999995 h7 v7 h-7 Z M283.1399999999999,551.7599999999995 h7 v7 h-7 Z M290.39999999999986,551.7599999999995 h7 v7 h-7 Z M333.9599999999998,551.7599999999995 h7 v7 h-7 Z M341.2199999999998,551.7599999999995 h7 v7 h-7 Z M348.4799999999998,551.7599999999995 h7 v7 h-7 Z M421.0799999999997,551.7599999999995 h7 v7 h-7 Z M428.3399999999997,551.7599999999995 h7 v7 h-7 Z M435.5999999999997,551.7599999999995 h7 v7 h-7 Z M537.2399999999996,551.7599999999995 h7 v7 h-7 Z M544.4999999999995,551.7599999999995 h7 v7 h-7 Z M275.8799999999999,559.0199999999995 h7 v7 h-7 Z M283.1399999999999,559.0199999999995 h7 v7 h-7 Z M290.39999999999986,559.0199999999995 h7 v7 h-7 Z M297.65999999999985,559.0199999999995 h7 v7 h-7 Z M304.91999999999985,559.0199999999995 h7 v7 h-7 Z M312.17999999999984,559.0199999999995 h7 v7 h-7 Z M319.4399999999998,559.0199999999995 h7 v7 h-7 Z M326.6999999999998,559.0199999999995 h7 v7 h-7 Z M333.9599999999998,559.0199999999995 h7 v7 h-7 Z M341.2199999999998,559.0199999999995 h7 v7 h-7 Z M421.0799999999997,559.0199999999995 h7 v7 h-7 Z M529.9799999999996,559.0199999999995 h7 v7 h-7 Z M537.2399999999996,559.0199999999995 h7 v7 h-7 Z M297.65999999999985,566.2799999999995 h7 v7 h-7 Z M304.91999999999985,566.2799999999995 h7 v7 h-7 Z M312.17999999999984,566.2799999999995 h7 v7 h-7 Z M319.4399999999998,566.2799999999995 h7 v7 h-7 Z M326.6999999999998,566.2799999999995 h7 v7 h-7 Z M333.9599999999998,566.2799999999995 h7 v7 h-7 Z M421.0799999999997,566.2799999999995 h7 v7 h-7 Z M428.3399999999997,566.2799999999995 h7 v7 h-7 Z M435.5999999999997,566.2799999999995 h7 v7 h-7 Z M515.4599999999996,566.2799999999995 h7 v7 h-7 Z M522.7199999999996,566.2799999999995 h7 v7 h-7 Z M529.9799999999996,566.2799999999995 h7 v7 h-7 Z M428.3399999999997,573.5399999999995 h7 v7 h-7 Z M435.5999999999997,573.5399999999995 h7 v7 h-7 Z M442.8599999999997,573.5399999999995 h7 v7 h-7 Z M450.11999999999966,573.5399999999995 h7 v7 h-7 Z M457.37999999999965,573.5399999999995 h7 v7 h-7 Z M464.63999999999965,573.5399999999995 h7 v7 h-7 Z M471.89999999999964,573.5399999999995 h7 v7 h-7 Z M479.1599999999996,573.5399999999995 h7 v7 h-7 Z M486.4199999999996,573.5399999999995 h7 v7 h-7 Z M493.6799999999996,573.5399999999995 h7 v7 h-7 Z M500.9399999999996,573.5399999999995 h7 v7 h-7 Z M508.1999999999996,573.5399999999995 h7 v7 h-7 Z M515.4599999999996,573.5399999999995 h7 v7 h-7 Z M522.7199999999996,573.5399999999995 h7 v7 h-7 Z" fill="#1e0e01" /></svg>