<?xml version="1.0" encoding="utf-8"?>
<!-- Generator: Adobe Illustrator 27.3.1, SVG Export Plug-In . SVG Version: 6.00 Build 0)  -->
<svg version="1.1" id="Слой_1" xmlns:ev="http://www.w3.org/2001/xml-events"
	 xmlns="http://www.w3.org/2000/svg" xmlns:xlink="http://www.w3.org/1999/xlink" x="0px" y="0px" viewBox="0 0 871 595"
	 style="enable-background:new 0 0 871 595;" xml:space="preserve">
<style type="text/css">
	.st0{fill:#1E0E01;}
</style>
<path class="st0" d="M159.7,0h7v7h-7V0z M167,0h7v7h-7V0z M174.2,0h7v7h-7V0z M181.5,0h7v7h-7V0z M188.8,0h7v7h-7V0z M196,0h7v7h-7
	V0z M203.3,0h7v7h-7V0z M210.5,0h7v7h-7V0z M217.8,0h7v7h-7V0z M225.1,0h7v7h-7V0z M232.3,0h7v7h-7V0z M239.6,0h7v7h-7V0z M246.8,0
	h7v7h-7V0z M254.1,0h7v7h-7V0z M261.4,0h7v7h-7V0z M268.6,0h7v7h-7V0z M275.9,0h7v7h-7V0z M283.1,0h7v7h-7V0z M290.4,0h7v7h-7V0z
	 M297.7,0h7v7h-7V0z M304.9,0h7v7h-7V0z M312.2,0h7v7h-7V0z M319.4,0h7v7h-7V0z M326.7,0h7v7h-7V0z M334,0h7v7h-7V0z M341.2,0h7v7
	h-7V0z M348.5,0h7v7h-7V0z M355.7,0h7v7h-7V0z M363,0h7v7h-7V0z M370.3,0h7v7h-7V0z M377.5,0h7v7h-7V0z M384.8,0h7v7h-7V0z M392,0h7
	v7h-7V0z M399.3,0h7v7h-7V0z M406.6,0h7v7h-7V0z M413.8,0h7v7h-7V0z M421.1,0h7v7h-7V0z M428.3,0h7v7h-7V0z M435.6,0h7v7h-7V0z
	 M442.9,0h7v7h-7V0z M450.1,0h7v7h-7V0z M457.4,0h7v7h-7V0z M464.6,0h7v7h-7V0z M471.9,0h7v7h-7V0z M479.2,0h7v7h-7V0z M486.4,0h7v7
	h-7V0z M159.7,7.3h7v7h-7V7.3z M167,7.3h7v7h-7V7.3z M174.2,7.3h7v7h-7V7.3z M254.1,7.3h7v7h-7V7.3z M261.4,7.3h7v7h-7V7.3z
	 M268.6,7.3h7v7h-7V7.3z M319.4,7.3h7v7h-7V7.3z M326.7,7.3h7v7h-7V7.3z M370.3,7.3h7v7h-7V7.3z M377.5,7.3h7v7h-7V7.3z M384.8,7.3
	h7v7h-7V7.3z M392,7.3h7v7h-7V7.3z M399.3,7.3h7v7h-7V7.3z M457.4,7.3h7v7h-7V7.3z M464.6,7.3h7v7h-7V7.3z M471.9,7.3h7v7h-7V7.3z
	 M486.4,7.3h7v7h-7V7.3z M493.7,7.3h7v7h-7V7.3z M493.7,0h7v7h-7V0z M159.7,14.5h7v7h-7V14.5z M174.2,14.5h7v7h-7V14.5z M181.5,14.5
	h7v7h-7V14.5z M239.6,14.5h7v7h-7V14.5z M246.8,14.5h7v7h-7V14.5z M246.8,7.3h7v7h-7V7.3z M254.1,14.5h7v7h-7V14.5z M261.4,14.5h7v7
	h-7V14.5z M268.6,14.5h7v7h-7V14.5z M319.4,14.5h7v7h-7V14.5z M326.7,14.5h7v7h-7V14.5z M370.3,14.5h7v7h-7V14.5z M377.5,14.5h7v7
	h-7V14.5z M399.3,14.5h7v7h-7V14.5z M406.6,14.5h7v7h-7V14.5z M450.1,14.5h7v7h-7V14.5z M457.4,14.5h7v7h-7V14.5z M464.6,14.5h7v7
	h-7V14.5z M486.4,14.5h7v7h-7V14.5z M493.7,14.5h7v7h-7V14.5z M159.7,21.8h7v7h-7V21.8z M181.5,21.8h7v7h-7V21.8z M188.8,21.8h7v7
	h-7V21.8z M232.3,21.8h7v7h-7V21.8z M239.6,21.8h7v7h-7V21.8z M246.8,21.8h7v7h-7V21.8z M261.4,21.8h7v7h-7V21.8z M268.6,21.8h7v7
	h-7V21.8z M319.4,21.8h7v7h-7V21.8z M326.7,21.8h7v7h-7V21.8z M370.3,21.8h7v7h-7V21.8z M377.5,21.8h7v7h-7V21.8z M406.6,21.8h7v7
	h-7V21.8z M413.8,21.8h7v7h-7V21.8z M421.1,21.8h7v7h-7V21.8z M442.9,21.8h7v7h-7V21.8z M450.1,21.8h7v7h-7V21.8z M457.4,21.8h7v7
	h-7V21.8z M486.4,21.8h7v7h-7V21.8z M493.7,21.8h7v7h-7V21.8z M159.7,29h7v7h-7V29z M188.8,29h7v7h-7V29z M196,29h7v7h-7V29z
	 M203.3,29h7v7h-7V29z M210.5,29h7v7h-7V29z M217.8,29h7v7h-7V29z M225.1,29h7v7h-7V29z M232.3,29h7v7h-7V29z M239.6,29h7v7h-7V29z
	 M261.4,29h7v7h-7V29z M268.6,29h7v7h-7V29z M319.4,29h7v7h-7V29z M326.7,29h7v7h-7V29z M370.3,29h7v7h-7V29z M377.5,29h7v7h-7V29z
	 M413.8,29h7v7h-7V29z M421.1,29h7v7h-7V29z M428.3,29h7v7h-7V29z M435.6,29h7v7h-7V29z M442.9,29h7v7h-7V29z M450.1,29h7v7h-7V29z
	 M486.4,29h7v7h-7V29z M493.7,29h7v7h-7V29z M159.7,36.3h7v7h-7V36.3z M196,36.3h7v7h-7V36.3z M203.3,36.3h7v7h-7V36.3z M210.5,36.3
	h7v7h-7V36.3z M217.8,36.3h7v7h-7V36.3z M225.1,36.3h7v7h-7V36.3z M232.3,36.3h7v7h-7V36.3z M261.4,36.3h7v7h-7V36.3z M268.6,36.3h7
	v7h-7V36.3z M319.4,36.3h7v7h-7V36.3z M326.7,36.3h7v7h-7V36.3z M370.3,36.3h7v7h-7V36.3z M377.5,36.3h7v7h-7V36.3z M421.1,36.3h7v7
	h-7V36.3z M428.3,36.3h7v7h-7V36.3z M435.6,36.3h7v7h-7V36.3z M442.9,36.3h7v7h-7V36.3z M486.4,36.3h7v7h-7V36.3z M493.7,36.3h7v7
	h-7V36.3z M108.9,43.6h7v7h-7V43.6z M116.2,43.6h7v7h-7V43.6z M123.4,43.6h7v7h-7V43.6z M159.7,43.6h7v7h-7V43.6z M196,43.6h7v7h-7
	V43.6z M203.3,43.6h7v7h-7V43.6z M210.5,43.6h7v7h-7V43.6z M217.8,43.6h7v7h-7V43.6z M225.1,43.6h7v7h-7V43.6z M232.3,43.6h7v7h-7
	V43.6z M261.4,43.6h7v7h-7V43.6z M268.6,43.6h7v7h-7V43.6z M275.9,43.6h7v7h-7V43.6z M283.1,43.6h7v7h-7V43.6z M290.4,43.6h7v7h-7
	V43.6z M297.7,43.6h7v7h-7V43.6z M304.9,43.6h7v7h-7V43.6z M312.2,43.6h7v7h-7V43.6z M319.4,43.6h7v7h-7V43.6z M326.7,43.6h7v7h-7
	V43.6z M334,43.6h7v7h-7V43.6z M341.2,43.6h7v7h-7V43.6z M348.5,43.6h7v7h-7V43.6z M355.7,43.6h7v7h-7V43.6z M363,43.6h7v7h-7V43.6z
	 M370.3,43.6h7v7h-7V43.6z M377.5,43.6h7v7h-7V43.6z M428.3,43.6h7v7h-7V43.6z M435.6,43.6h7v7h-7V43.6z M442.9,43.6h7v7h-7V43.6z
	 M493.7,43.6h7v7h-7V43.6z M87.1,50.8h7v7h-7V50.8z M94.4,50.8h7v7h-7V50.8z M101.6,50.8h7v7h-7V50.8z M108.9,50.8h7v7h-7V50.8z
	 M116.2,50.8h7v7h-7V50.8z M123.4,50.8h7v7h-7V50.8z M159.7,50.8h7v7h-7V50.8z M196,50.8h7v7h-7V50.8z M203.3,50.8h7v7h-7V50.8z
	 M210.5,50.8h7v7h-7V50.8z M217.8,50.8h7v7h-7V50.8z M225.1,50.8h7v7h-7V50.8z M232.3,50.8h7v7h-7V50.8z M261.4,50.8h7v7h-7V50.8z
	 M268.6,50.8h7v7h-7V50.8z M275.9,50.8h7v7h-7V50.8z M283.1,50.8h7v7h-7V50.8z M290.4,50.8h7v7h-7V50.8z M297.7,50.8h7v7h-7V50.8z
	 M304.9,50.8h7v7h-7V50.8z M312.2,50.8h7v7h-7V50.8z M319.4,50.8h7v7h-7V50.8z M326.7,50.8h7v7h-7V50.8z M334,50.8h7v7h-7V50.8z
	 M341.2,50.8h7v7h-7V50.8z M348.5,50.8h7v7h-7V50.8z M355.7,50.8h7v7h-7V50.8z M363,50.8h7v7h-7V50.8z M370.3,50.8h7v7h-7V50.8z
	 M377.5,50.8h7v7h-7V50.8z M421.1,50.8h7v7h-7V50.8z M428.3,50.8h7v7h-7V50.8z M442.9,50.8h7v7h-7V50.8z M450.1,50.8h7v7h-7V50.8z
	 M493.7,50.8h7v7h-7V50.8z M486.4,43.6h7v7h-7V43.6z M486.4,50.8h7v7h-7V50.8z M79.9,58.1h7v7h-7V58.1z M87.1,58.1h7v7h-7V58.1z
	 M94.4,58.1h7v7h-7V58.1z M101.6,58.1h7v7h-7V58.1z M123.4,58.1h7v7h-7V58.1z M159.7,58.1h7v7h-7V58.1z M196,58.1h7v7h-7V58.1z
	 M203.3,58.1h7v7h-7V58.1z M210.5,58.1h7v7h-7V58.1z M217.8,58.1h7v7h-7V58.1z M225.1,58.1h7v7h-7V58.1z M232.3,58.1h7v7h-7V58.1z
	 M261.4,58.1h7v7h-7V58.1z M268.6,58.1h7v7h-7V58.1z M319.4,58.1h7v7h-7V58.1z M326.7,58.1h7v7h-7V58.1z M377.5,58.1h7v7h-7V58.1z
	 M413.8,58.1h7v7h-7V58.1z M421.1,58.1h7v7h-7V58.1z M450.1,58.1h7v7h-7V58.1z M457.4,58.1h7v7h-7V58.1z M486.4,58.1h7v7h-7V58.1z
	 M493.7,58.1h7v7h-7V58.1z M65.3,65.3h7v7h-7V65.3z M72.6,65.3h7v7h-7V65.3z M79.9,65.3h7v7h-7V65.3z M87.1,65.3h7v7h-7V65.3z
	 M123.4,65.3h7v7h-7V65.3z M159.7,65.3h7v7h-7V65.3z M196,65.3h7v7h-7V65.3z M203.3,65.3h7v7h-7V65.3z M232.3,65.3h7v7h-7V65.3z
	 M239.6,65.3h7v7h-7V65.3z M261.4,65.3h7v7h-7V65.3z M268.6,65.3h7v7h-7V65.3z M319.4,65.3h7v7h-7V65.3z M326.7,65.3h7v7h-7V65.3z
	 M377.5,65.3h7v7h-7V65.3z M370.3,58.1h7v7h-7V58.1z M370.3,65.3h7v7h-7V65.3z M406.6,65.3h7v7h-7V65.3z M413.8,65.3h7v7h-7V65.3z
	 M457.4,65.3h7v7h-7V65.3z M486.4,65.3h7v7h-7V65.3z M493.7,65.3h7v7h-7V65.3z M704.2,65.3h7v7h-7V65.3z M711.5,65.3h7v7h-7V65.3z
	 M58.1,72.6h7v7h-7V72.6z M65.3,72.6h7v7h-7V72.6z M72.6,72.6h7v7h-7V72.6z M123.4,72.6h7v7h-7V72.6z M159.7,72.6h7v7h-7V72.6z
	 M188.8,72.6h7v7h-7V72.6z M196,72.6h7v7h-7V72.6z M239.6,72.6h7v7h-7V72.6z M246.8,72.6h7v7h-7V72.6z M261.4,72.6h7v7h-7V72.6z
	 M268.6,72.6h7v7h-7V72.6z M319.4,72.6h7v7h-7V72.6z M326.7,72.6h7v7h-7V72.6z M370.3,72.6h7v7h-7V72.6z M377.5,72.6h7v7h-7V72.6z
	 M399.3,72.6h7v7h-7V72.6z M406.6,72.6h7v7h-7V72.6z M457.4,72.6h7v7h-7V72.6z M464.6,72.6h7v7h-7V72.6z M486.4,72.6h7v7h-7V72.6z
	 M493.7,72.6h7v7h-7V72.6z M704.2,72.6h7v7h-7V72.6z M711.5,72.6h7v7h-7V72.6z M50.8,79.9h7v7h-7V79.9z M58.1,79.9h7v7h-7V79.9z
	 M65.3,79.9h7v7h-7V79.9z M123.4,79.9h7v7h-7V79.9z M159.7,79.9h7v7h-7V79.9z M167,87.1h7v7h-7V87.1z M181.5,79.9h7v7h-7V79.9z
	 M188.8,79.9h7v7h-7V79.9z M246.8,79.9h7v7h-7V79.9z M254.1,79.9h7v7h-7V79.9z M261.4,79.9h7v7h-7V79.9z M268.6,79.9h7v7h-7V79.9z
	 M319.4,79.9h7v7h-7V79.9z M326.7,79.9h7v7h-7V79.9z M370.3,79.9h7v7h-7V79.9z M377.5,79.9h7v7h-7V79.9z M392,79.9h7v7h-7V79.9z
	 M399.3,79.9h7v7h-7V79.9z M464.6,79.9h7v7h-7V79.9z M471.9,79.9h7v7h-7V79.9z M486.4,79.9h7v7h-7V79.9z M493.7,79.9h7v7h-7V79.9z
	 M704.2,79.9h7v7h-7V79.9z M711.5,79.9h7v7h-7V79.9z M50.8,87.1h7v7h-7V87.1z M58.1,87.1h7v7h-7V87.1z M123.4,87.1h7v7h-7V87.1z
	 M116.2,58.1h7v7h-7V58.1z M116.2,65.3h7v7h-7V65.3z M116.2,72.6h7v7h-7V72.6z M116.2,79.9h7v7h-7V79.9z M116.2,87.1h7v7h-7V87.1z
	 M159.7,87.1h7v7h-7V87.1z M174.2,87.1h7v7h-7V87.1z M181.5,87.1h7v7h-7V87.1z M254.1,87.1h7v7h-7V87.1z M261.4,87.1h7v7h-7V87.1z
	 M268.6,87.1h7v7h-7V87.1z M319.4,87.1h7v7h-7V87.1z M326.7,87.1h7v7h-7V87.1z M370.3,87.1h7v7h-7V87.1z M377.5,87.1h7v7h-7V87.1z
	 M384.8,87.1h7v7h-7V87.1z M392,87.1h7v7h-7V87.1z M471.9,87.1h7v7h-7V87.1z M479.2,87.1h7v7h-7V87.1z M486.4,87.1h7v7h-7V87.1z
	 M493.7,87.1h7v7h-7V87.1z M704.2,87.1h7v7h-7V87.1z M711.5,87.1h7v7h-7V87.1z M50.8,94.4h7v7h-7V94.4z M58.1,94.4h7v7h-7V94.4z
	 M116.2,94.4h7v7h-7V94.4z M123.4,94.4h7v7h-7V94.4z M159.7,94.4h7v7h-7V94.4z M167,94.4h7v7h-7V94.4z M174.2,94.4h7v7h-7V94.4z
	 M254.1,94.4h7v7h-7V94.4z M261.4,94.4h7v7h-7V94.4z M268.6,94.4h7v7h-7V94.4z M319.4,94.4h7v7h-7V94.4z M326.7,94.4h7v7h-7V94.4z
	 M370.3,94.4h7v7h-7V94.4z M377.5,94.4h7v7h-7V94.4z M384.8,94.4h7v7h-7V94.4z M479.2,94.4h7v7h-7V94.4z M486.4,94.4h7v7h-7V94.4z
	 M493.7,94.4h7v7h-7V94.4z M704.2,94.4h7v7h-7V94.4z M711.5,94.4h7v7h-7V94.4z M43.6,101.6h7v7h-7V101.6z M50.8,101.6h7v7h-7V101.6z
	 M116.2,101.6h7v7h-7V101.6z M123.4,101.6h7v7h-7V101.6z M159.7,101.6h7v7h-7V101.6z M167,101.6h7v7h-7V101.6z M174.2,101.6h7v7h-7
	V101.6z M181.5,101.6h7v7h-7V101.6z M188.8,101.6h7v7h-7V101.6z M196,101.6h7v7h-7V101.6z M203.3,101.6h7v7h-7V101.6z M210.5,101.6
	h7v7h-7V101.6z M217.8,101.6h7v7h-7V101.6z M225.1,101.6h7v7h-7V101.6z M232.3,101.6h7v7h-7V101.6z M239.6,101.6h7v7h-7V101.6z
	 M246.8,101.6h7v7h-7V101.6z M254.1,101.6h7v7h-7V101.6z M261.4,101.6h7v7h-7V101.6z M268.6,101.6h7v7h-7V101.6z M275.9,101.6h7v7
	h-7V101.6z M283.1,101.6h7v7h-7V101.6z M290.4,101.6h7v7h-7V101.6z M297.7,101.6h7v7h-7V101.6z M304.9,101.6h7v7h-7V101.6z
	 M312.2,101.6h7v7h-7V101.6z M319.4,101.6h7v7h-7V101.6z M326.7,101.6h7v7h-7V101.6z M334,101.6h7v7h-7V101.6z M341.2,101.6h7v7h-7
	V101.6z M348.5,101.6h7v7h-7V101.6z M355.7,101.6h7v7h-7V101.6z M363,101.6h7v7h-7V101.6z M370.3,101.6h7v7h-7V101.6z M377.5,101.6
	h7v7h-7V101.6z M384.8,101.6h7v7h-7V101.6z M392,101.6h7v7h-7V101.6z M399.3,101.6h7v7h-7V101.6z M406.6,101.6h7v7h-7V101.6z
	 M413.8,101.6h7v7h-7V101.6z M421.1,101.6h7v7h-7V101.6z M428.3,101.6h7v7h-7V101.6z M435.6,101.6h7v7h-7V101.6z M442.9,101.6h7v7
	h-7V101.6z M450.1,101.6h7v7h-7V101.6z M457.4,101.6h7v7h-7V101.6z M464.6,101.6h7v7h-7V101.6z M471.9,101.6h7v7h-7V101.6z
	 M479.2,101.6h7v7h-7V101.6z M486.4,101.6h7v7h-7V101.6z M493.7,101.6h7v7h-7V101.6z M704.2,101.6h7v7h-7V101.6z M711.5,101.6h7v7
	h-7V101.6z M43.6,108.9h7v7h-7V108.9z M50.8,108.9h7v7h-7V108.9z M116.2,108.9h7v7h-7V108.9z M123.4,108.9h7v7h-7V108.9z
	 M631.6,108.9h7v7h-7V108.9z M638.9,108.9h7v7h-7V108.9z M704.2,108.9h7v7h-7V108.9z M711.5,108.9h7v7h-7V108.9z M43.6,116.2h7v7h-7
	V116.2z M50.8,116.2h7v7h-7V116.2z M116.2,116.2h7v7h-7V116.2z M123.4,116.2h7v7h-7V116.2z M631.6,116.2h7v7h-7V116.2z M638.9,116.2
	h7v7h-7V116.2z M704.2,116.2h7v7h-7V116.2z M711.5,116.2h7v7h-7V116.2z M36.3,123.4h7v7h-7V123.4z M43.6,123.4h7v7h-7V123.4z
	 M116.2,123.4h7v7h-7V123.4z M123.4,123.4h7v7h-7V123.4z M167,123.4h7v7h-7V123.4z M174.2,123.4h7v7h-7V123.4z M181.5,123.4h7v7h-7
	V123.4z M188.8,123.4h7v7h-7V123.4z M196,123.4h7v7h-7V123.4z M203.3,123.4h7v7h-7V123.4z M210.5,123.4h7v7h-7V123.4z M254.1,123.4
	h7v7h-7V123.4z M246.8,123.4h7v7h-7V123.4z M304.9,123.4h7v7h-7V123.4z M421.1,123.4h7v7h-7V123.4z M471.9,123.4h7v7h-7V123.4z
	 M479.2,123.4h7v7h-7V123.4z M551.8,123.4h7v7h-7V123.4z M559,123.4h7v7h-7V123.4z M704.2,123.4h7v7h-7V123.4z M711.5,123.4h7v7h-7
	V123.4z M36.3,130.7h7v7h-7V130.7z M43.6,130.7h7v7h-7V130.7z M50.8,130.7h7v7h-7V130.7z M58.1,130.7h7v7h-7V130.7z M65.3,130.7h7v7
	h-7V130.7z M72.6,130.7h7v7h-7V130.7z M79.9,130.7h7v7h-7V130.7z M87.1,130.7h7v7h-7V130.7z M94.4,130.7h7v7h-7V130.7z M101.6,130.7
	h7v7h-7V130.7z M108.9,130.7h7v7h-7V130.7z M116.2,130.7h7v7h-7V130.7z M123.4,130.7h7v7h-7V130.7z M167,130.7h7v7h-7V130.7z
	 M174.2,130.7h7v7h-7V130.7z M203.3,130.7h7v7h-7V130.7z M210.5,130.7h7v7h-7V130.7z M217.8,130.7h7v7h-7V130.7z M254.1,130.7h7v7
	h-7V130.7z M246.8,130.7h7v7h-7V130.7z M297.7,130.7h7v7h-7V130.7z M297.7,123.4h7v7h-7V123.4z M304.9,130.7h7v7h-7V130.7z
	 M363,130.7h7v7h-7V130.7z M370.3,130.7h7v7h-7V130.7z M377.5,130.7h7v7h-7V130.7z M384.8,130.7h7v7h-7V130.7z M392,130.7h7v7h-7
	V130.7z M421.1,130.7h7v7h-7V130.7z M428.3,130.7h7v7h-7V130.7z M471.9,130.7h7v7h-7V130.7z M479.2,130.7h7v7h-7V130.7z M530,130.7
	h7v7h-7V130.7z M537.2,130.7h7v7h-7V130.7z M544.5,130.7h7v7h-7V130.7z M544.5,123.4h7v7h-7V123.4z M551.8,130.7h7v7h-7V130.7z
	 M559,130.7h7v7h-7V130.7z M566.3,130.7h7v7h-7V130.7z M573.5,130.7h7v7h-7V130.7z M675.2,130.7h7v7h-7V130.7z M682.4,130.7h7v7h-7
	V130.7z M689.7,130.7h7v7h-7V130.7z M697,130.7h7v7h-7V130.7z M704.2,130.7h7v7h-7V130.7z M711.5,130.7h7v7h-7V130.7z M36.3,137.9h7
	v7h-7V137.9z M43.6,137.9h7v7h-7V137.9z M50.8,137.9h7v7h-7V137.9z M58.1,137.9h7v7h-7V137.9z M65.3,137.9h7v7h-7V137.9z
	 M72.6,137.9h7v7h-7V137.9z M79.9,137.9h7v7h-7V137.9z M87.1,137.9h7v7h-7V137.9z M94.4,137.9h7v7h-7V137.9z M101.6,137.9h7v7h-7
	V137.9z M108.9,137.9h7v7h-7V137.9z M116.2,137.9h7v7h-7V137.9z M123.4,137.9h7v7h-7V137.9z M167,137.9h7v7h-7V137.9z M174.2,137.9
	h7v7h-7V137.9z M210.5,137.9h7v7h-7V137.9z M217.8,137.9h7v7h-7V137.9z M254.1,137.9h7v7h-7V137.9z M246.8,137.9h7v7h-7V137.9z
	 M297.7,137.9h7v7h-7V137.9z M304.9,137.9h7v7h-7V137.9z M355.7,137.9h7v7h-7V137.9z M363,137.9h7v7h-7V137.9z M370.3,137.9h7v7h-7
	V137.9z M377.5,137.9h7v7h-7V137.9z M384.8,137.9h7v7h-7V137.9z M392,137.9h7v7h-7V137.9z M421.1,137.9h7v7h-7V137.9z M413.8,123.4
	h7v7h-7V123.4z M413.8,130.7h7v7h-7V130.7z M413.8,137.9h7v7h-7V137.9z M428.3,137.9h7v7h-7V137.9z M435.6,137.9h7v7h-7V137.9z
	 M471.9,137.9h7v7h-7V137.9z M479.2,137.9h7v7h-7V137.9z M522.7,137.9h7v7h-7V137.9z M530,137.9h7v7h-7V137.9z M537.2,137.9h7v7h-7
	V137.9z M544.5,137.9h7v7h-7V137.9z M551.8,137.9h7v7h-7V137.9z M559,137.9h7v7h-7V137.9z M566.3,137.9h7v7h-7V137.9z M573.5,137.9
	h7v7h-7V137.9z M580.8,137.9h7v7h-7V137.9z M667.9,137.9h7v7h-7V137.9z M675.2,137.9h7v7h-7V137.9z M682.4,137.9h7v7h-7V137.9z
	 M689.7,137.9h7v7h-7V137.9z M697,137.9h7v7h-7V137.9z M704.2,137.9h7v7h-7V137.9z M711.5,137.9h7v7h-7V137.9z M36.3,145.2h7v7h-7
	V145.2z M43.6,145.2h7v7h-7V145.2z M116.2,145.2h7v7h-7V145.2z M123.4,145.2h7v7h-7V145.2z M167,145.2h7v7h-7V145.2z M174.2,145.2h7
	v7h-7V145.2z M210.5,145.2h7v7h-7V145.2z M217.8,145.2h7v7h-7V145.2z M246.8,145.2h7v7h-7V145.2z M254.1,145.2h7v7h-7V145.2z
	 M290.4,145.2h7v7h-7V145.2z M297.7,145.2h7v7h-7V145.2z M348.5,145.2h7v7h-7V145.2z M355.7,145.2h7v7h-7V145.2z M363,145.2h7v7h-7
	V145.2z M384.8,145.2h7v7h-7V145.2z M392,145.2h7v7h-7V145.2z M413.8,145.2h7v7h-7V145.2z M421.1,145.2h7v7h-7V145.2z M428.3,145.2
	h7v7h-7V145.2z M435.6,145.2h7v7h-7V145.2z M471.9,145.2h7v7h-7V145.2z M479.2,145.2h7v7h-7V145.2z M522.7,145.2h7v7h-7V145.2z
	 M530,145.2h7v7h-7V145.2z M537.2,145.2h7v7h-7V145.2z M566.3,145.2h7v7h-7V145.2z M573.5,145.2h7v7h-7V145.2z M580.8,145.2h7v7h-7
	V145.2z M631.6,145.2h7v7h-7V145.2z M638.9,145.2h7v7h-7V145.2z M660.7,145.2h7v7h-7V145.2z M667.9,145.2h7v7h-7V145.2z
	 M675.2,145.2h7v7h-7V145.2z M704.2,145.2h7v7h-7V145.2z M711.5,145.2h7v7h-7V145.2z M36.3,152.5h7v7h-7V152.5z M43.6,152.5h7v7h-7
	V152.5z M116.2,152.5h7v7h-7V152.5z M123.4,152.5h7v7h-7V152.5z M167,152.5h7v7h-7V152.5z M174.2,152.5h7v7h-7V152.5z M210.5,152.5
	h7v7h-7V152.5z M217.8,152.5h7v7h-7V152.5z M246.8,152.5h7v7h-7V152.5z M254.1,152.5h7v7h-7V152.5z M283.1,152.5h7v7h-7V152.5z
	 M290.4,152.5h7v7h-7V152.5z M348.5,152.5h7v7h-7V152.5z M355.7,152.5h7v7h-7V152.5z M384.8,152.5h7v7h-7V152.5z M392,152.5h7v7h-7
	V152.5z M413.8,152.5h7v7h-7V152.5z M421.1,152.5h7v7h-7V152.5z M428.3,152.5h7v7h-7V152.5z M435.6,152.5h7v7h-7V152.5z
	 M442.9,152.5h7v7h-7V152.5z M471.9,152.5h7v7h-7V152.5z M479.2,152.5h7v7h-7V152.5z M515.5,152.5h7v7h-7V152.5z M522.7,152.5h7v7
	h-7V152.5z M530,152.5h7v7h-7V152.5z M573.5,152.5h7v7h-7V152.5z M580.8,152.5h7v7h-7V152.5z M588.1,152.5h7v7h-7V152.5z
	 M631.6,152.5h7v7h-7V152.5z M638.9,152.5h7v7h-7V152.5z M653.4,152.5h7v7h-7V152.5z M660.7,152.5h7v7h-7V152.5z M667.9,152.5h7v7
	h-7V152.5z M704.2,152.5h7v7h-7V152.5z M711.5,152.5h7v7h-7V152.5z M36.3,159.7h7v7h-7V159.7z M43.6,159.7h7v7h-7V159.7z
	 M116.2,159.7h7v7h-7V159.7z M123.4,159.7h7v7h-7V159.7z M167,159.7h7v7h-7V159.7z M174.2,159.7h7v7h-7V159.7z M203.3,159.7h7v7h-7
	V159.7z M210.5,159.7h7v7h-7V159.7z M217.8,159.7h7v7h-7V159.7z M246.8,159.7h7v7h-7V159.7z M254.1,159.7h7v7h-7V159.7z
	 M275.9,159.7h7v7h-7V159.7z M283.1,159.7h7v7h-7V159.7z M341.2,159.7h7v7h-7V159.7z M348.5,159.7h7v7h-7V159.7z M384.8,159.7h7v7
	h-7V159.7z M392,159.7h7v7h-7V159.7z M413.8,159.7h7v7h-7V159.7z M421.1,159.7h7v7h-7V159.7z M435.6,159.7h7v7h-7V159.7z
	 M442.9,159.7h7v7h-7V159.7z M450.1,159.7h7v7h-7V159.7z M471.9,159.7h7v7h-7V159.7z M479.2,159.7h7v7h-7V159.7z M515.5,159.7h7v7
	h-7V159.7z M522.7,159.7h7v7h-7V159.7z M530,159.7h7v7h-7V159.7z M573.5,159.7h7v7h-7V159.7z M580.8,159.7h7v7h-7V159.7z
	 M588.1,159.7h7v7h-7V159.7z M631.6,159.7h7v7h-7V159.7z M638.9,159.7h7v7h-7V159.7z M653.4,159.7h7v7h-7V159.7z M660.7,159.7h7v7
	h-7V159.7z M704.2,159.7h7v7h-7V159.7z M711.5,159.7h7v7h-7V159.7z M755,159.7h7v7h-7V159.7z M762.3,159.7h7v7h-7V159.7z
	 M769.6,159.7h7v7h-7V159.7z M776.8,159.7h7v7h-7V159.7z M784.1,159.7h7v7h-7V159.7z M791.3,159.7h7v7h-7V159.7z M798.6,159.7h7v7
	h-7V159.7z M805.9,159.7h7v7h-7V159.7z M813.1,159.7h7v7h-7V159.7z M820.4,159.7h7v7h-7V159.7z M827.6,159.7h7v7h-7V159.7z
	 M834.9,159.7h7v7h-7V159.7z M842.2,159.7h7v7h-7V159.7z M849.4,159.7h7v7h-7V159.7z M856.7,159.7h7v7h-7V159.7z M863.9,159.7h7v7
	h-7V159.7z M36.3,167h7v7h-7V167z M43.6,167h7v7h-7V167z M116.2,167h7v7h-7V167z M123.4,167h7v7h-7V167z M167,167h7v7h-7V167z
	 M174.2,167h7v7h-7V167z M181.5,167h7v7h-7V167z M188.8,167h7v7h-7V167z M196,167h7v7h-7V167z M203.3,167h7v7h-7V167z M210.5,167h7
	v7h-7V167z M246.8,167h7v7h-7V167z M254.1,167h7v7h-7V167z M261.4,167h7v7h-7V167z M268.6,167h7v7h-7V167z M275.9,167h7v7h-7V167z
	 M341.2,167h7v7h-7V167z M348.5,167h7v7h-7V167z M384.8,167h7v7h-7V167z M392,167h7v7h-7V167z M413.8,167h7v7h-7V167z M421.1,167h7
	v7h-7V167z M442.9,167h7v7h-7V167z M450.1,167h7v7h-7V167z M471.9,167h7v7h-7V167z M479.2,167h7v7h-7V167z M515.5,167h7v7h-7V167z
	 M522.7,167h7v7h-7V167z M530,167h7v7h-7V167z M573.5,167h7v7h-7V167z M580.8,167h7v7h-7V167z M588.1,167h7v7h-7V167z M631.6,167h7
	v7h-7V167z M638.9,167h7v7h-7V167z M653.4,167h7v7h-7V167z M660.7,167h7v7h-7V167z M704.2,167h7v7h-7V167z M711.5,167h7v7h-7V167z
	 M755,167h7v7h-7V167z M863.9,167h7v7h-7V167z M36.3,174.2h7v7h-7V174.2z M43.6,174.2h7v7h-7V174.2z M116.2,174.2h7v7h-7V174.2z
	 M123.4,174.2h7v7h-7V174.2z M167,174.2h7v7h-7V174.2z M174.2,174.2h7v7h-7V174.2z M181.5,174.2h7v7h-7V174.2z M188.8,174.2h7v7h-7
	V174.2z M196,174.2h7v7h-7V174.2z M203.3,174.2h7v7h-7V174.2z M246.8,174.2h7v7h-7V174.2z M254.1,174.2h7v7h-7V174.2z M261.4,174.2
	h7v7h-7V174.2z M268.6,174.2h7v7h-7V174.2z M275.9,174.2h7v7h-7V174.2z M283.1,174.2h7v7h-7V174.2z M341.2,174.2h7v7h-7V174.2z
	 M348.5,174.2h7v7h-7V174.2z M355.7,174.2h7v7h-7V174.2z M377.5,174.2h7v7h-7V174.2z M384.8,174.2h7v7h-7V174.2z M392,174.2h7v7h-7
	V174.2z M413.8,174.2h7v7h-7V174.2z M421.1,174.2h7v7h-7V174.2z M442.9,174.2h7v7h-7V174.2z M450.1,174.2h7v7h-7V174.2z
	 M457.4,174.2h7v7h-7V174.2z M471.9,174.2h7v7h-7V174.2z M479.2,174.2h7v7h-7V174.2z M515.5,174.2h7v7h-7V174.2z M522.7,174.2h7v7
	h-7V174.2z M530,174.2h7v7h-7V174.2z M573.5,174.2h7v7h-7V174.2z M580.8,174.2h7v7h-7V174.2z M588.1,174.2h7v7h-7V174.2z
	 M631.6,174.2h7v7h-7V174.2z M638.9,174.2h7v7h-7V174.2z M653.4,174.2h7v7h-7V174.2z M660.7,174.2h7v7h-7V174.2z M704.2,174.2h7v7
	h-7V174.2z M711.5,174.2h7v7h-7V174.2z M755,174.2h7v7h-7V174.2z M863.9,174.2h7v7h-7V174.2z M36.3,181.5h7v7h-7V181.5z M43.6,181.5
	h7v7h-7V181.5z M116.2,181.5h7v7h-7V181.5z M123.4,181.5h7v7h-7V181.5z M167,181.5h7v7h-7V181.5z M174.2,181.5h7v7h-7V181.5z
	 M188.8,181.5h7v7h-7V181.5z M196,181.5h7v7h-7V181.5z M203.3,181.5h7v7h-7V181.5z M246.8,181.5h7v7h-7V181.5z M254.1,181.5h7v7h-7
	V181.5z M261.4,181.5h7v7h-7V181.5z M268.6,181.5h7v7h-7V181.5z M275.9,181.5h7v7h-7V181.5z M283.1,181.5h7v7h-7V181.5z
	 M290.4,181.5h7v7h-7V181.5z M341.2,181.5h7v7h-7V181.5z M348.5,181.5h7v7h-7V181.5z M355.7,181.5h7v7h-7V181.5z M363,181.5h7v7h-7
	V181.5z M370.3,181.5h7v7h-7V181.5z M377.5,181.5h7v7h-7V181.5z M384.8,181.5h7v7h-7V181.5z M392,181.5h7v7h-7V181.5z M413.8,181.5
	h7v7h-7V181.5z M421.1,181.5h7v7h-7V181.5z M450.1,181.5h7v7h-7V181.5z M457.4,181.5h7v7h-7V181.5z M471.9,181.5h7v7h-7V181.5z
	 M479.2,181.5h7v7h-7V181.5z M522.7,181.5h7v7h-7V181.5z M530,181.5h7v7h-7V181.5z M537.2,181.5h7v7h-7V181.5z M566.3,181.5h7v7h-7
	V181.5z M573.5,181.5h7v7h-7V181.5z M580.8,181.5h7v7h-7V181.5z M631.6,181.5h7v7h-7V181.5z M638.9,181.5h7v7h-7V181.5z
	 M653.4,181.5h7v7h-7V181.5z M660.7,181.5h7v7h-7V181.5z M704.2,181.5h7v7h-7V181.5z M711.5,181.5h7v7h-7V181.5z M755,181.5h7v7h-7
	V181.5z M863.9,181.5h7v7h-7V181.5z M36.3,188.8h7v7h-7V188.8z M43.6,188.8h7v7h-7V188.8z M116.2,188.8h7v7h-7V188.8z M123.4,188.8
	h7v7h-7V188.8z M167,188.8h7v7h-7V188.8z M174.2,188.8h7v7h-7V188.8z M196,188.8h7v7h-7V188.8z M203.3,188.8h7v7h-7V188.8z
	 M210.5,188.8h7v7h-7V188.8z M246.8,188.8h7v7h-7V188.8z M254.1,188.8h7v7h-7V188.8z M275.9,188.8h7v7h-7V188.8z M283.1,188.8h7v7
	h-7V188.8z M290.4,188.8h7v7h-7V188.8z M341.2,188.8h7v7h-7V188.8z M348.5,188.8h7v7h-7V188.8z M384.8,188.8h7v7h-7V188.8z
	 M392,188.8h7v7h-7V188.8z M413.8,188.8h7v7h-7V188.8z M421.1,188.8h7v7h-7V188.8z M457.4,188.8h7v7h-7V188.8z M464.6,188.8h7v7h-7
	V188.8z M471.9,188.8h7v7h-7V188.8z M479.2,188.8h7v7h-7V188.8z M522.7,188.8h7v7h-7V188.8z M530,188.8h7v7h-7V188.8z M537.2,188.8
	h7v7h-7V188.8z M544.5,188.8h7v7h-7V188.8z M551.8,188.8h7v7h-7V188.8z M559,188.8h7v7h-7V188.8z M566.3,188.8h7v7h-7V188.8z
	 M573.5,188.8h7v7h-7V188.8z M631.6,188.8h7v7h-7V188.8z M638.9,188.8h7v7h-7V188.8z M653.4,188.8h7v7h-7V188.8z M660.7,188.8h7v7
	h-7V188.8z M704.2,188.8h7v7h-7V188.8z M711.5,188.8h7v7h-7V188.8z M755,188.8h7v7h-7V188.8z M784.1,188.8h7v7h-7V188.8z
	 M791.3,188.8h7v7h-7V188.8z M798.6,188.8h7v7h-7V188.8z M805.9,188.8h7v7h-7V188.8z M813.1,188.8h7v7h-7V188.8z M820.4,188.8h7v7
	h-7V188.8z M827.6,188.8h7v7h-7V188.8z M834.9,188.8h7v7h-7V188.8z M842.2,188.8h7v7h-7V188.8z M863.9,188.8h7v7h-7V188.8z
	 M36.3,196h7v7h-7V196z M43.6,196h7v7h-7V196z M116.2,196h7v7h-7V196z M123.4,196h7v7h-7V196z M167,196h7v7h-7V196z M174.2,196h7v7
	h-7V196z M203.3,196h7v7h-7V196z M210.5,196h7v7h-7V196z M217.8,196h7v7h-7V196z M246.8,196h7v7h-7V196z M254.1,196h7v7h-7V196z
	 M283.1,196h7v7h-7V196z M290.4,196h7v7h-7V196z M297.7,196h7v7h-7V196z M341.2,196h7v7h-7V196z M384.8,196h7v7h-7V196z M392,196h7
	v7h-7V196z M413.8,196h7v7h-7V196z M421.1,196h7v7h-7V196z M457.4,196h7v7h-7V196z M464.6,196h7v7h-7V196z M471.9,196h7v7h-7V196z
	 M479.2,196h7v7h-7V196z M537.2,196h7v7h-7V196z M544.5,196h7v7h-7V196z M551.8,196h7v7h-7V196z M559,196h7v7h-7V196z M566.3,196h7
	v7h-7V196z M595.3,196h7v7h-7V196z M631.6,196h7v7h-7V196z M638.9,196h7v7h-7V196z M653.4,196h7v7h-7V196z M660.7,196h7v7h-7V196z
	 M704.2,196h7v7h-7V196z M711.5,196h7v7h-7V196z M755,196h7v7h-7V196z M784.1,196h7v7h-7V196z M791.3,196h7v7h-7V196z M798.6,196h7
	v7h-7V196z M805.9,196h7v7h-7V196z M813.1,196h7v7h-7V196z M820.4,196h7v7h-7V196z M827.6,196h7v7h-7V196z M834.9,196h7v7h-7V196z
	 M842.2,196h7v7h-7V196z M863.9,196h7v7h-7V196z M36.3,203.3h7v7h-7V203.3z M43.6,203.3h7v7h-7V203.3z M116.2,203.3h7v7h-7V203.3z
	 M123.4,203.3h7v7h-7V203.3z M167,203.3h7v7h-7V203.3z M174.2,203.3h7v7h-7V203.3z M210.5,203.3h7v7h-7V203.3z M217.8,203.3h7v7h-7
	V203.3z M246.8,203.3h7v7h-7V203.3z M254.1,203.3h7v7h-7V203.3z M290.4,203.3h7v7h-7V203.3z M297.7,203.3h7v7h-7V203.3z
	 M304.9,203.3h7v7h-7V203.3z M334,203.3h7v7h-7V203.3z M341.2,203.3h7v7h-7V203.3z M384.8,203.3h7v7h-7V203.3z M392,203.3h7v7h-7
	V203.3z M413.8,203.3h7v7h-7V203.3z M421.1,203.3h7v7h-7V203.3z M464.6,203.3h7v7h-7V203.3z M471.9,203.3h7v7h-7V203.3z
	 M479.2,203.3h7v7h-7V203.3z M595.3,203.3h7v7h-7V203.3z M631.6,203.3h7v7h-7V203.3z M638.9,203.3h7v7h-7V203.3z M660.7,203.3h7v7
	h-7V203.3z M667.9,203.3h7v7h-7V203.3z M704.2,203.3h7v7h-7V203.3z M711.5,203.3h7v7h-7V203.3z M755,203.3h7v7h-7V203.3z
	 M784.1,203.3h7v7h-7V203.3z M791.3,203.3h7v7h-7V203.3z M834.9,203.3h7v7h-7V203.3z M842.2,203.3h7v7h-7V203.3z M863.9,203.3h7v7
	h-7V203.3z M36.3,210.5h7v7h-7V210.5z M43.6,210.5h7v7h-7V210.5z M116.2,210.5h7v7h-7V210.5z M123.4,210.5h7v7h-7V210.5z M167,210.5
	h7v7h-7V210.5z M174.2,210.5h7v7h-7V210.5z M217.8,210.5h7v7h-7V210.5z M225.1,210.5h7v7h-7V210.5z M246.8,210.5h7v7h-7V210.5z
	 M254.1,210.5h7v7h-7V210.5z M290.4,210.5h7v7h-7V210.5z M297.7,210.5h7v7h-7V210.5z M304.9,210.5h7v7h-7V210.5z M334,210.5h7v7h-7
	V210.5z M341.2,210.5h7v7h-7V210.5z M384.8,210.5h7v7h-7V210.5z M392,210.5h7v7h-7V210.5z M413.8,210.5h7v7h-7V210.5z M421.1,210.5
	h7v7h-7V210.5z M464.6,210.5h7v7h-7V210.5z M471.9,210.5h7v7h-7V210.5z M479.2,210.5h7v7h-7V210.5z M530,210.5h7v7h-7V210.5z
	 M595.3,210.5h7v7h-7V210.5z M602.6,210.5h7v7h-7V210.5z M631.6,210.5h7v7h-7V210.5z M638.9,210.5h7v7h-7V210.5z M660.7,210.5h7v7
	h-7V210.5z M667.9,210.5h7v7h-7V210.5z M675.2,210.5h7v7h-7V210.5z M704.2,210.5h7v7h-7V210.5z M711.5,210.5h7v7h-7V210.5z
	 M755,210.5h7v7h-7V210.5z M784.1,210.5h7v7h-7V210.5z M791.3,210.5h7v7h-7V210.5z M834.9,210.5h7v7h-7V210.5z M842.2,210.5h7v7h-7
	V210.5z M863.9,210.5h7v7h-7V210.5z M29,217.8h7v7h-7V217.8z M36.3,217.8h7v7h-7V217.8z M43.6,217.8h7v7h-7V217.8z M116.2,217.8h7v7
	h-7V217.8z M123.4,217.8h7v7h-7V217.8z M167,217.8h7v7h-7V217.8z M174.2,217.8h7v7h-7V217.8z M217.8,217.8h7v7h-7V217.8z
	 M217.8,225.1h7v7h-7V225.1z M225.1,217.8h7v7h-7V217.8z M254.1,217.8h7v7h-7V217.8z M297.7,217.8h7v7h-7V217.8z M304.9,217.8h7v7
	h-7V217.8z M334,217.8h7v7h-7V217.8z M341.2,217.8h7v7h-7V217.8z M384.8,217.8h7v7h-7V217.8z M392,217.8h7v7h-7V217.8z M413.8,217.8
	h7v7h-7V217.8z M421.1,217.8h7v7h-7V217.8z M471.9,217.8h7v7h-7V217.8z M479.2,217.8h7v7h-7V217.8z M530,217.8h7v7h-7V217.8z
	 M537.2,217.8h7v7h-7V217.8z M566.3,217.8h7v7h-7V217.8z M602.6,217.8h7v7h-7V217.8z M631.6,217.8h7v7h-7V217.8z M638.9,217.8h7v7
	h-7V217.8z M667.9,217.8h7v7h-7V217.8z M675.2,217.8h7v7h-7V217.8z M675.2,225.1h7v7h-7V225.1z M682.4,217.8h7v7h-7V217.8z
	 M689.7,217.8h7v7h-7V217.8z M697,217.8h7v7h-7V217.8z M704.2,217.8h7v7h-7V217.8z M697,225.1h7v7h-7V225.1z M704.2,225.1h7v7h-7
	V225.1z M711.5,217.8h7v7h-7V217.8z M755,217.8h7v7h-7V217.8z M784.1,217.8h7v7h-7V217.8z M791.3,217.8h7v7h-7V217.8z M834.9,217.8
	h7v7h-7V217.8z M842.2,217.8h7v7h-7V217.8z M863.9,217.8h7v7h-7V217.8z M21.8,225.1h7v7h-7V225.1z M29,225.1h7v7h-7V225.1z
	 M36.3,225.1h7v7h-7V225.1z M116.2,225.1h7v7h-7V225.1z M123.4,225.1h7v7h-7V225.1z M167,225.1h7v7h-7V225.1z M174.2,225.1h7v7h-7
	V225.1z M225.1,225.1h7v7h-7V225.1z M254.1,225.1h7v7h-7V225.1z M246.8,217.8h7v7h-7V217.8z M246.8,225.1h7v7h-7V225.1z
	 M297.7,225.1h7v7h-7V225.1z M304.9,225.1h7v7h-7V225.1z M537.2,225.1h7v7h-7V225.1z M566.3,225.1h7v7h-7V225.1z M573.5,225.1h7v7
	h-7V225.1z M602.6,225.1h7v7h-7V225.1z M609.8,225.1h7v7h-7V225.1z M631.6,225.1h7v7h-7V225.1z M638.9,225.1h7v7h-7V225.1z
	 M682.4,225.1h7v7h-7V225.1z M689.7,225.1h7v7h-7V225.1z M711.5,225.1h7v7h-7V225.1z M755,225.1h7v7h-7V225.1z M784.1,225.1h7v7h-7
	V225.1z M791.3,225.1h7v7h-7V225.1z M834.9,225.1h7v7h-7V225.1z M842.2,225.1h7v7h-7V225.1z M863.9,225.1h7v7h-7V225.1z
	 M537.2,232.3h7v7h-7V232.3z M544.5,232.3h7v7h-7V232.3z M566.3,232.3h7v7h-7V232.3z M573.5,232.3h7v7h-7V232.3z M609.8,232.3h7v7
	h-7V232.3z M755,232.3h7v7h-7V232.3z M784.1,232.3h7v7h-7V232.3z M791.3,232.3h7v7h-7V232.3z M834.9,232.3h7v7h-7V232.3z
	 M842.2,232.3h7v7h-7V232.3z M863.9,232.3h7v7h-7V232.3z M537.2,239.6h7v7h-7V239.6z M544.5,239.6h7v7h-7V239.6z M573.5,239.6h7v7
	h-7V239.6z M609.8,239.6h7v7h-7V239.6z M617.1,239.6h7v7h-7V239.6z M755,239.6h7v7h-7V239.6z M784.1,239.6h7v7h-7V239.6z
	 M791.3,239.6h7v7h-7V239.6z M798.6,239.6h7v7h-7V239.6z M805.9,239.6h7v7h-7V239.6z M813.1,239.6h7v7h-7V239.6z M820.4,239.6h7v7
	h-7V239.6z M827.6,239.6h7v7h-7V239.6z M834.9,239.6h7v7h-7V239.6z M842.2,239.6h7v7h-7V239.6z M863.9,239.6h7v7h-7V239.6z
	 M544.5,246.8h7v7h-7V246.8z M551.8,246.8h7v7h-7V246.8z M573.5,246.8h7v7h-7V246.8z M580.8,246.8h7v7h-7V246.8z M617.1,246.8h7v7
	h-7V246.8z M755,246.8h7v7h-7V246.8z M784.1,246.8h7v7h-7V246.8z M791.3,246.8h7v7h-7V246.8z M798.6,246.8h7v7h-7V246.8z
	 M805.9,246.8h7v7h-7V246.8z M813.1,246.8h7v7h-7V246.8z M820.4,246.8h7v7h-7V246.8z M827.6,246.8h7v7h-7V246.8z M834.9,246.8h7v7
	h-7V246.8z M842.2,246.8h7v7h-7V246.8z M863.9,246.8h7v7h-7V246.8z M551.8,254.1h7v7h-7V254.1z M580.8,254.1h7v7h-7V254.1z
	 M617.1,254.1h7v7h-7V254.1z M624.4,254.1h7v7h-7V254.1z M755,254.1h7v7h-7V254.1z M863.9,254.1h7v7h-7V254.1z M559,261.4h7v7h-7
	V261.4z M624.4,261.4h7v7h-7V261.4z M755,261.4h7v7h-7V261.4z M863.9,261.4h7v7h-7V261.4z M559,268.6h7v7h-7V268.6z M566.3,268.6h7
	v7h-7V268.6z M595.3,268.6h7v7h-7V268.6z M755,268.6h7v7h-7V268.6z M863.9,268.6h7v7h-7V268.6z M566.3,275.9h7v7h-7V275.9z
	 M595.3,275.9h7v7h-7V275.9z M755,275.9h7v7h-7V275.9z M762.3,275.9h7v7h-7V275.9z M769.6,275.9h7v7h-7V275.9z M776.8,275.9h7v7h-7
	V275.9z M784.1,275.9h7v7h-7V275.9z M791.3,275.9h7v7h-7V275.9z M798.6,275.9h7v7h-7V275.9z M805.9,275.9h7v7h-7V275.9z
	 M813.1,275.9h7v7h-7V275.9z M820.4,275.9h7v7h-7V275.9z M827.6,275.9h7v7h-7V275.9z M834.9,275.9h7v7h-7V275.9z M842.2,275.9h7v7
	h-7V275.9z M849.4,275.9h7v7h-7V275.9z M856.7,275.9h7v7h-7V275.9z M863.9,275.9h7v7h-7V275.9z M36.3,283.1h7v7h-7V283.1z
	 M43.6,283.1h7v7h-7V283.1z M50.8,283.1h7v7h-7V283.1z M58.1,283.1h7v7h-7V283.1z M65.3,283.1h7v7h-7V283.1z M72.6,283.1h7v7h-7
	V283.1z M79.9,283.1h7v7h-7V283.1z M87.1,283.1h7v7h-7V283.1z M94.4,283.1h7v7h-7V283.1z M101.6,283.1h7v7h-7V283.1z M108.9,283.1h7
	v7h-7V283.1z M116.2,283.1h7v7h-7V283.1z M123.4,283.1h7v7h-7V283.1z M130.7,283.1h7v7h-7V283.1z M137.9,283.1h7v7h-7V283.1z
	 M145.2,283.1h7v7h-7V283.1z M152.5,283.1h7v7h-7V283.1z M159.7,283.1h7v7h-7V283.1z M167,283.1h7v7h-7V283.1z M174.2,283.1h7v7h-7
	V283.1z M181.5,283.1h7v7h-7V283.1z M188.8,283.1h7v7h-7V283.1z M196,283.1h7v7h-7V283.1z M203.3,283.1h7v7h-7V283.1z M210.5,283.1
	h7v7h-7V283.1z M217.8,283.1h7v7h-7V283.1z M225.1,283.1h7v7h-7V283.1z M232.3,283.1h7v7h-7V283.1z M239.6,283.1h7v7h-7V283.1z
	 M246.8,283.1h7v7h-7V283.1z M254.1,283.1h7v7h-7V283.1z M261.4,283.1h7v7h-7V283.1z M268.6,283.1h7v7h-7V283.1z M275.9,283.1h7v7
	h-7V283.1z M36.3,275.9h7v7h-7V275.9z M43.6,275.9h7v7h-7V275.9z M50.8,275.9h7v7h-7V275.9z M58.1,275.9h7v7h-7V275.9z M65.3,275.9
	h7v7h-7V275.9z M72.6,275.9h7v7h-7V275.9z M79.9,275.9h7v7h-7V275.9z M87.1,275.9h7v7h-7V275.9z M94.4,275.9h7v7h-7V275.9z
	 M101.6,275.9h7v7h-7V275.9z M108.9,275.9h7v7h-7V275.9z M116.2,275.9h7v7h-7V275.9z M123.4,275.9h7v7h-7V275.9z M130.7,275.9h7v7
	h-7V275.9z M137.9,275.9h7v7h-7V275.9z M145.2,275.9h7v7h-7V275.9z M152.5,275.9h7v7h-7V275.9z M159.7,275.9h7v7h-7V275.9z
	 M167,275.9h7v7h-7V275.9z M174.2,275.9h7v7h-7V275.9z M181.5,275.9h7v7h-7V275.9z M188.8,275.9h7v7h-7V275.9z M196,275.9h7v7h-7
	V275.9z M203.3,275.9h7v7h-7V275.9z M210.5,275.9h7v7h-7V275.9z M217.8,275.9h7v7h-7V275.9z M225.1,275.9h7v7h-7V275.9z
	 M232.3,275.9h7v7h-7V275.9z M239.6,275.9h7v7h-7V275.9z M246.8,275.9h7v7h-7V275.9z M254.1,275.9h7v7h-7V275.9z M261.4,275.9h7v7
	h-7V275.9z M268.6,275.9h7v7h-7V275.9z M275.9,275.9h7v7h-7V275.9z M573.5,283.1h7v7h-7V283.1z M595.3,283.1h7v7h-7V283.1z
	 M624.4,283.1h7v7h-7V283.1z M631.6,283.1h7v7h-7V283.1z M638.9,283.1h7v7h-7V283.1z M646.1,283.1h7v7h-7V283.1z M653.4,283.1h7v7
	h-7V283.1z M660.7,283.1h7v7h-7V283.1z M653.4,290.4h7v7h-7V290.4z M660.7,290.4h7v7h-7V290.4z M667.9,283.1h7v7h-7V283.1z
	 M675.2,283.1h7v7h-7V283.1z M682.4,283.1h7v7h-7V283.1z M689.7,283.1h7v7h-7V283.1z M697,283.1h7v7h-7V283.1z M704.2,283.1h7v7h-7
	V283.1z M711.5,283.1h7v7h-7V283.1z M718.7,283.1h7v7h-7V283.1z M726,283.1h7v7h-7V283.1z M733.3,283.1h7v7h-7V283.1z M740.5,283.1
	h7v7h-7V283.1z M747.8,283.1h7v7h-7V283.1z M755,283.1h7v7h-7V283.1z M762.3,283.1h7v7h-7V283.1z M769.6,283.1h7v7h-7V283.1z
	 M776.8,283.1h7v7h-7V283.1z M784.1,283.1h7v7h-7V283.1z M791.3,283.1h7v7h-7V283.1z M798.6,283.1h7v7h-7V283.1z M805.9,283.1h7v7
	h-7V283.1z M813.1,283.1h7v7h-7V283.1z M820.4,283.1h7v7h-7V283.1z M827.6,283.1h7v7h-7V283.1z M834.9,283.1h7v7h-7V283.1z
	 M842.2,283.1h7v7h-7V283.1z M849.4,283.1h7v7h-7V283.1z M856.7,283.1h7v7h-7V283.1z M863.9,283.1h7v7h-7V283.1z M36.3,290.4h7v7h-7
	V290.4z M43.6,290.4h7v7h-7V290.4z M152.5,290.4h7v7h-7V290.4z M159.7,290.4h7v7h-7V290.4z M196,290.4h7v7h-7V290.4z M203.3,290.4h7
	v7h-7V290.4z M268.6,290.4h7v7h-7V290.4z M275.9,290.4h7v7h-7V290.4z M573.5,290.4h7v7h-7V290.4z M624.4,290.4h7v7h-7V290.4z
	 M631.6,290.4h7v7h-7V290.4z M638.9,290.4h7v7h-7V290.4z M646.1,290.4h7v7h-7V290.4z M667.9,290.4h7v7h-7V290.4z M675.2,290.4h7v7
	h-7V290.4z M682.4,290.4h7v7h-7V290.4z M689.7,290.4h7v7h-7V290.4z M697,290.4h7v7h-7V290.4z M704.2,290.4h7v7h-7V290.4z
	 M711.5,290.4h7v7h-7V290.4z M718.7,290.4h7v7h-7V290.4z M726,290.4h7v7h-7V290.4z M733.3,290.4h7v7h-7V290.4z M740.5,290.4h7v7h-7
	V290.4z M747.8,290.4h7v7h-7V290.4z M805.9,290.4h7v7h-7V290.4z M813.1,290.4h7v7h-7V290.4z M856.7,290.4h7v7h-7V290.4z
	 M863.9,290.4h7v7h-7V290.4z M36.3,297.7h7v7h-7V297.7z M152.5,297.7h7v7h-7V297.7z M159.7,297.7h7v7h-7V297.7z M196,297.7h7v7h-7
	V297.7z M203.3,297.7h7v7h-7V297.7z M268.6,297.7h7v7h-7V297.7z M275.9,297.7h7v7h-7V297.7z M580.8,297.7h7v7h-7V297.7z
	 M624.4,297.7h7v7h-7V297.7z M631.6,297.7h7v7h-7V297.7z M638.9,297.7h7v7h-7V297.7z M646.1,297.7h7v7h-7V297.7z M740.5,297.7h7v7
	h-7V297.7z M747.8,297.7h7v7h-7V297.7z M805.9,297.7h7v7h-7V297.7z M813.1,297.7h7v7h-7V297.7z M856.7,297.7h7v7h-7V297.7z
	 M863.9,297.7h7v7h-7V297.7z M36.3,304.9h7v7h-7V304.9z M101.6,304.9h7v7h-7V304.9z M108.9,304.9h7v7h-7V304.9z M152.5,304.9h7v7h-7
	V304.9z M159.7,304.9h7v7h-7V304.9z M196,304.9h7v7h-7V304.9z M203.3,304.9h7v7h-7V304.9z M268.6,304.9h7v7h-7V304.9z M275.9,304.9
	h7v7h-7V304.9z M580.8,304.9h7v7h-7V304.9z M624.4,304.9h7v7h-7V304.9z M631.6,304.9h7v7h-7V304.9z M646.1,304.9h7v7h-7V304.9z
	 M653.4,304.9h7v7h-7V304.9z M733.3,304.9h7v7h-7V304.9z M740.5,304.9h7v7h-7V304.9z M747.8,304.9h7v7h-7V304.9z M805.9,304.9h7v7
	h-7V304.9z M813.1,304.9h7v7h-7V304.9z M856.7,304.9h7v7h-7V304.9z M863.9,304.9h7v7h-7V304.9z M36.3,312.2h7v7h-7V312.2z
	 M43.6,297.7h7v7h-7V297.7z M43.6,304.9h7v7h-7V304.9z M43.6,312.2h7v7h-7V312.2z M94.4,312.2h7v7h-7V312.2z M101.6,312.2h7v7h-7
	V312.2z M108.9,312.2h7v7h-7V312.2z M116.2,312.2h7v7h-7V312.2z M152.5,312.2h7v7h-7V312.2z M159.7,312.2h7v7h-7V312.2z M196,312.2
	h7v7h-7V312.2z M203.3,312.2h7v7h-7V312.2z M268.6,312.2h7v7h-7V312.2z M275.9,312.2h7v7h-7V312.2z M624.4,312.2h7v7h-7V312.2z
	 M631.6,312.2h7v7h-7V312.2z M653.4,312.2h7v7h-7V312.2z M660.7,312.2h7v7h-7V312.2z M726,312.2h7v7h-7V312.2z M733.3,312.2h7v7h-7
	V312.2z M740.5,312.2h7v7h-7V312.2z M747.8,312.2h7v7h-7V312.2z M805.9,312.2h7v7h-7V312.2z M813.1,312.2h7v7h-7V312.2z
	 M856.7,312.2h7v7h-7V312.2z M863.9,312.2h7v7h-7V312.2z M36.3,319.4h7v7h-7V319.4z M43.6,319.4h7v7h-7V319.4z M94.4,319.4h7v7h-7
	V319.4z M101.6,319.4h7v7h-7V319.4z M108.9,319.4h7v7h-7V319.4z M116.2,319.4h7v7h-7V319.4z M123.4,319.4h7v7h-7V319.4z
	 M152.5,319.4h7v7h-7V319.4z M159.7,319.4h7v7h-7V319.4z M167,319.4h7v7h-7V319.4z M174.2,319.4h7v7h-7V319.4z M181.5,319.4h7v7h-7
	V319.4z M188.8,319.4h7v7h-7V319.4z M196,319.4h7v7h-7V319.4z M203.3,319.4h7v7h-7V319.4z M268.6,319.4h7v7h-7V319.4z M275.9,319.4
	h7v7h-7V319.4z M624.4,319.4h7v7h-7V319.4z M631.6,319.4h7v7h-7V319.4z M660.7,319.4h7v7h-7V319.4z M667.9,319.4h7v7h-7V319.4z
	 M718.7,319.4h7v7h-7V319.4z M726,319.4h7v7h-7V319.4z M733.3,319.4h7v7h-7V319.4z M747.8,319.4h7v7h-7V319.4z M805.9,319.4h7v7h-7
	V319.4z M813.1,319.4h7v7h-7V319.4z M856.7,319.4h7v7h-7V319.4z M863.9,319.4h7v7h-7V319.4z M36.3,326.7h7v7h-7V326.7z M43.6,326.7
	h7v7h-7V326.7z M87.1,326.7h7v7h-7V326.7z M87.1,319.4h7v7h-7V319.4z M94.4,326.7h7v7h-7V326.7z M116.2,326.7h7v7h-7V326.7z
	 M123.4,326.7h7v7h-7V326.7z M130.7,326.7h7v7h-7V326.7z M152.5,326.7h7v7h-7V326.7z M159.7,326.7h7v7h-7V326.7z M167,326.7h7v7h-7
	V326.7z M174.2,326.7h7v7h-7V326.7z M181.5,326.7h7v7h-7V326.7z M188.8,326.7h7v7h-7V326.7z M196,326.7h7v7h-7V326.7z M203.3,326.7
	h7v7h-7V326.7z M268.6,326.7h7v7h-7V326.7z M275.9,326.7h7v7h-7V326.7z M624.4,326.7h7v7h-7V326.7z M631.6,326.7h7v7h-7V326.7z
	 M667.9,326.7h7v7h-7V326.7z M675.2,326.7h7v7h-7V326.7z M682.4,326.7h7v7h-7V326.7z M711.5,326.7h7v7h-7V326.7z M718.7,326.7h7v7
	h-7V326.7z M726,326.7h7v7h-7V326.7z M747.8,326.7h7v7h-7V326.7z M755,290.4h7v7h-7V290.4z M755,297.7h7v7h-7V297.7z M755,304.9h7v7
	h-7V304.9z M755,312.2h7v7h-7V312.2z M755,319.4h7v7h-7V319.4z M755,326.7h7v7h-7V326.7z M805.9,326.7h7v7h-7V326.7z M813.1,326.7h7
	v7h-7V326.7z M856.7,326.7h7v7h-7V326.7z M863.9,326.7h7v7h-7V326.7z M36.3,334h7v7h-7V334z M43.6,334h7v7h-7V334z M79.9,334h7v7h-7
	V334z M79.9,326.7h7v7h-7V326.7z M87.1,334h7v7h-7V334z M123.4,334h7v7h-7V334z M130.7,334h7v7h-7V334z M137.9,334h7v7h-7V334z
	 M152.5,334h7v7h-7V334z M159.7,334h7v7h-7V334z M268.6,334h7v7h-7V334z M275.9,334h7v7h-7V334z M624.4,334h7v7h-7V334z M631.6,334
	h7v7h-7V334z M675.2,334h7v7h-7V334z M682.4,334h7v7h-7V334z M689.7,334h7v7h-7V334z M704.2,334h7v7h-7V334z M711.5,334h7v7h-7V334z
	 M718.7,334h7v7h-7V334z M747.8,334h7v7h-7V334z M755,334h7v7h-7V334z M762.3,334h7v7h-7V334z M769.6,334h7v7h-7V334z M776.8,334h7
	v7h-7V334z M784.1,334h7v7h-7V334z M791.3,334h7v7h-7V334z M798.6,334h7v7h-7V334z M805.9,334h7v7h-7V334z M813.1,334h7v7h-7V334z
	 M820.4,334h7v7h-7V334z M827.6,334h7v7h-7V334z M834.9,334h7v7h-7V334z M842.2,334h7v7h-7V334z M849.4,334h7v7h-7V334z M856.7,334
	h7v7h-7V334z M863.9,334h7v7h-7V334z M36.3,341.2h7v7h-7V341.2z M43.6,341.2h7v7h-7V341.2z M72.6,341.2h7v7h-7V341.2z M72.6,334h7v7
	h-7V334z M79.9,341.2h7v7h-7V341.2z M130.7,341.2h7v7h-7V341.2z M137.9,341.2h7v7h-7V341.2z M152.5,341.2h7v7h-7V341.2z
	 M159.7,341.2h7v7h-7V341.2z M268.6,341.2h7v7h-7V341.2z M275.9,341.2h7v7h-7V341.2z M624.4,341.2h7v7h-7V341.2z M631.6,341.2h7v7
	h-7V341.2z M682.4,341.2h7v7h-7V341.2z M689.7,341.2h7v7h-7V341.2z M697,341.2h7v7h-7V341.2z M704.2,341.2h7v7h-7V341.2z
	 M747.8,341.2h7v7h-7V341.2z M755,341.2h7v7h-7V341.2z M762.3,341.2h7v7h-7V341.2z M769.6,341.2h7v7h-7V341.2z M776.8,341.2h7v7h-7
	V341.2z M784.1,341.2h7v7h-7V341.2z M791.3,341.2h7v7h-7V341.2z M798.6,341.2h7v7h-7V341.2z M805.9,341.2h7v7h-7V341.2z
	 M813.1,341.2h7v7h-7V341.2z M820.4,341.2h7v7h-7V341.2z M827.6,341.2h7v7h-7V341.2z M834.9,341.2h7v7h-7V341.2z M842.2,341.2h7v7
	h-7V341.2z M849.4,341.2h7v7h-7V341.2z M856.7,341.2h7v7h-7V341.2z M863.9,341.2h7v7h-7V341.2z M36.3,348.5h7v7h-7V348.5z
	 M43.6,348.5h7v7h-7V348.5z M72.6,348.5h7v7h-7V348.5z M65.3,341.2h7v7h-7V341.2z M79.9,348.5h7v7h-7V348.5z M87.1,348.5h7v7h-7
	V348.5z M123.4,348.5h7v7h-7V348.5z M130.7,348.5h7v7h-7V348.5z M137.9,348.5h7v7h-7V348.5z M152.5,348.5h7v7h-7V348.5z
	 M159.7,348.5h7v7h-7V348.5z M232.3,348.5h7v7h-7V348.5z M239.6,348.5h7v7h-7V348.5z M246.8,348.5h7v7h-7V348.5z M254.1,348.5h7v7
	h-7V348.5z M261.4,348.5h7v7h-7V348.5z M268.6,348.5h7v7h-7V348.5z M275.9,348.5h7v7h-7V348.5z M624.4,348.5h7v7h-7V348.5z
	 M631.6,348.5h7v7h-7V348.5z M682.4,348.5h7v7h-7V348.5z M689.7,348.5h7v7h-7V348.5z M697,348.5h7v7h-7V348.5z M704.2,348.5h7v7h-7
	V348.5z M747.8,348.5h7v7h-7V348.5z M805.9,348.5h7v7h-7V348.5z M813.1,348.5h7v7h-7V348.5z M856.7,348.5h7v7h-7V348.5z
	 M863.9,348.5h7v7h-7V348.5z M36.3,355.7h7v7h-7V355.7z M43.6,355.7h7v7h-7V355.7z M79.9,355.7h7v7h-7V355.7z M87.1,355.7h7v7h-7
	V355.7z M94.4,355.7h7v7h-7V355.7z M116.2,355.7h7v7h-7V355.7z M123.4,355.7h7v7h-7V355.7z M130.7,355.7h7v7h-7V355.7z M152.5,355.7
	h7v7h-7V355.7z M159.7,355.7h7v7h-7V355.7z M232.3,355.7h7v7h-7V355.7z M268.6,355.7h7v7h-7V355.7z M275.9,355.7h7v7h-7V355.7z
	 M624.4,355.7h7v7h-7V355.7z M631.6,355.7h7v7h-7V355.7z M675.2,355.7h7v7h-7V355.7z M682.4,355.7h7v7h-7V355.7z M689.7,355.7h7v7
	h-7V355.7z M697,355.7h7v7h-7V355.7z M704.2,355.7h7v7h-7V355.7z M711.5,355.7h7v7h-7V355.7z M747.8,355.7h7v7h-7V355.7z
	 M805.9,355.7h7v7h-7V355.7z M813.1,355.7h7v7h-7V355.7z M856.7,355.7h7v7h-7V355.7z M863.9,355.7h7v7h-7V355.7z M36.3,363h7v7h-7
	V363z M43.6,363h7v7h-7V363z M87.1,363h7v7h-7V363z M94.4,363h7v7h-7V363z M101.6,363h7v7h-7V363z M108.9,363h7v7h-7V363z
	 M116.2,363h7v7h-7V363z M123.4,363h7v7h-7V363z M152.5,363h7v7h-7V363z M159.7,363h7v7h-7V363z M232.3,363h7v7h-7V363z M268.6,363
	h7v7h-7V363z M275.9,363h7v7h-7V363z M624.4,363h7v7h-7V363z M631.6,363h7v7h-7V363z M667.9,363h7v7h-7V363z M675.2,363h7v7h-7V363z
	 M682.4,363h7v7h-7V363z M711.5,363h7v7h-7V363z M718.7,363h7v7h-7V363z M747.8,363h7v7h-7V363z M805.9,363h7v7h-7V363z M813.1,363
	h7v7h-7V363z M856.7,363h7v7h-7V363z M863.9,363h7v7h-7V363z M36.3,370.3h7v7h-7V370.3z M43.6,370.3h7v7h-7V370.3z M94.4,370.3h7v7
	h-7V370.3z M101.6,370.3h7v7h-7V370.3z M108.9,370.3h7v7h-7V370.3z M116.2,370.3h7v7h-7V370.3z M152.5,370.3h7v7h-7V370.3z
	 M159.7,370.3h7v7h-7V370.3z M232.3,370.3h7v7h-7V370.3z M268.6,370.3h7v7h-7V370.3z M275.9,370.3h7v7h-7V370.3z M624.4,370.3h7v7
	h-7V370.3z M631.6,370.3h7v7h-7V370.3z M660.7,370.3h7v7h-7V370.3z M667.9,370.3h7v7h-7V370.3z M675.2,370.3h7v7h-7V370.3z
	 M718.7,370.3h7v7h-7V370.3z M726,370.3h7v7h-7V370.3z M747.8,370.3h7v7h-7V370.3z M805.9,370.3h7v7h-7V370.3z M813.1,370.3h7v7h-7
	V370.3z M863.9,370.3h7v7h-7V370.3z M36.3,377.5h7v7h-7V377.5z M43.6,377.5h7v7h-7V377.5z M101.6,377.5h7v7h-7V377.5z M108.9,377.5
	h7v7h-7V377.5z M152.5,377.5h7v7h-7V377.5z M159.7,377.5h7v7h-7V377.5z M232.3,377.5h7v7h-7V377.5z M268.6,377.5h7v7h-7V377.5z
	 M275.9,377.5h7v7h-7V377.5z M624.4,377.5h7v7h-7V377.5z M631.6,377.5h7v7h-7V377.5z M646.1,377.5h7v7h-7V377.5z M653.4,377.5h7v7
	h-7V377.5z M660.7,377.5h7v7h-7V377.5z M726,377.5h7v7h-7V377.5z M733.3,377.5h7v7h-7V377.5z M747.8,377.5h7v7h-7V377.5z
	 M805.9,377.5h7v7h-7V377.5z M813.1,377.5h7v7h-7V377.5z M863.9,377.5h7v7h-7V377.5z M36.3,384.8h7v7h-7V384.8z M43.6,384.8h7v7h-7
	V384.8z M152.5,384.8h7v7h-7V384.8z M159.7,384.8h7v7h-7V384.8z M232.3,384.8h7v7h-7V384.8z M225.1,384.8h7v7h-7V384.8z
	 M225.1,341.2h7v7h-7V341.2z M232.3,341.2h7v7h-7V341.2z M239.6,341.2h7v7h-7V341.2z M246.8,341.2h7v7h-7V341.2z M254.1,341.2h7v7
	h-7V341.2z M261.4,341.2h7v7h-7V341.2z M225.1,348.5h7v7h-7V348.5z M225.1,355.7h7v7h-7V355.7z M225.1,363h7v7h-7V363z M225.1,370.3
	h7v7h-7V370.3z M225.1,377.5h7v7h-7V377.5z M268.6,384.8h7v7h-7V384.8z M275.9,384.8h7v7h-7V384.8z M624.4,384.8h7v7h-7V384.8z
	 M631.6,384.8h7v7h-7V384.8z M638.9,384.8h7v7h-7V384.8z M646.1,384.8h7v7h-7V384.8z M653.4,384.8h7v7h-7V384.8z M733.3,384.8h7v7
	h-7V384.8z M740.5,384.8h7v7h-7V384.8z M747.8,384.8h7v7h-7V384.8z M755,348.5h7v7h-7V348.5z M755,355.7h7v7h-7V355.7z M755,363h7v7
	h-7V363z M755,370.3h7v7h-7V370.3z M755,377.5h7v7h-7V377.5z M755,384.8h7v7h-7V384.8z M805.9,384.8h7v7h-7V384.8z M813.1,384.8h7v7
	h-7V384.8z M863.9,384.8h7v7h-7V384.8z M856.7,370.3h7v7h-7V370.3z M856.7,377.5h7v7h-7V377.5z M856.7,384.8h7v7h-7V384.8z
	 M36.3,392h7v7h-7V392z M43.6,392h7v7h-7V392z M36.3,399.3h7v7h-7V399.3z M43.6,399.3h7v7h-7V399.3z M50.8,392h7v7h-7V392z
	 M58.1,392h7v7h-7V392z M65.3,392h7v7h-7V392z M72.6,392h7v7h-7V392z M79.9,392h7v7h-7V392z M87.1,392h7v7h-7V392z M94.4,392h7v7h-7
	V392z M101.6,392h7v7h-7V392z M108.9,392h7v7h-7V392z M116.2,392h7v7h-7V392z M123.4,392h7v7h-7V392z M130.7,392h7v7h-7V392z
	 M137.9,392h7v7h-7V392z M145.2,392h7v7h-7V392z M152.5,392h7v7h-7V392z M159.7,392h7v7h-7V392z M167,392h7v7h-7V392z M174.2,392h7
	v7h-7V392z M181.5,392h7v7h-7V392z M188.8,392h7v7h-7V392z M196,392h7v7h-7V392z M203.3,392h7v7h-7V392z M210.5,392h7v7h-7V392z
	 M217.8,392h7v7h-7V392z M225.1,392h7v7h-7V392z M232.3,392h7v7h-7V392z M239.6,392h7v7h-7V392z M246.8,392h7v7h-7V392z M254.1,392
	h7v7h-7V392z M261.4,392h7v7h-7V392z M268.6,392h7v7h-7V392z M275.9,392h7v7h-7V392z M624.4,392h7v7h-7V392z M631.6,392h7v7h-7V392z
	 M638.9,392h7v7h-7V392z M646.1,392h7v7h-7V392z M653.4,392h7v7h-7V392z M660.7,392h7v7h-7V392z M624.4,399.3h7v7h-7V399.3z
	 M631.6,399.3h7v7h-7V399.3z M638.9,399.3h7v7h-7V399.3z M646.1,399.3h7v7h-7V399.3z M653.4,399.3h7v7h-7V399.3z M660.7,399.3h7v7
	h-7V399.3z M667.9,392h7v7h-7V392z M675.2,392h7v7h-7V392z M682.4,392h7v7h-7V392z M689.7,392h7v7h-7V392z M697,392h7v7h-7V392z
	 M704.2,392h7v7h-7V392z M711.5,392h7v7h-7V392z M718.7,392h7v7h-7V392z M726,392h7v7h-7V392z M733.3,392h7v7h-7V392z M740.5,392h7
	v7h-7V392z M747.8,392h7v7h-7V392z M755,392h7v7h-7V392z M762.3,392h7v7h-7V392z M769.6,392h7v7h-7V392z M776.8,392h7v7h-7V392z
	 M784.1,392h7v7h-7V392z M791.3,392h7v7h-7V392z M798.6,392h7v7h-7V392z M805.9,392h7v7h-7V392z M813.1,392h7v7h-7V392z M820.4,392
	h7v7h-7V392z M827.6,392h7v7h-7V392z M834.9,392h7v7h-7V392z M842.2,392h7v7h-7V392z M849.4,392h7v7h-7V392z M856.7,392h7v7h-7V392z
	 M863.9,392h7v7h-7V392z M50.8,399.3h7v7h-7V399.3z M58.1,399.3h7v7h-7V399.3z M65.3,399.3h7v7h-7V399.3z M72.6,399.3h7v7h-7V399.3z
	 M79.9,399.3h7v7h-7V399.3z M87.1,399.3h7v7h-7V399.3z M94.4,399.3h7v7h-7V399.3z M101.6,399.3h7v7h-7V399.3z M108.9,399.3h7v7h-7
	V399.3z M116.2,399.3h7v7h-7V399.3z M123.4,399.3h7v7h-7V399.3z M130.7,399.3h7v7h-7V399.3z M137.9,399.3h7v7h-7V399.3z
	 M145.2,399.3h7v7h-7V399.3z M152.5,399.3h7v7h-7V399.3z M159.7,399.3h7v7h-7V399.3z M167,399.3h7v7h-7V399.3z M174.2,399.3h7v7h-7
	V399.3z M181.5,399.3h7v7h-7V399.3z M188.8,399.3h7v7h-7V399.3z M196,399.3h7v7h-7V399.3z M203.3,399.3h7v7h-7V399.3z M210.5,399.3
	h7v7h-7V399.3z M217.8,399.3h7v7h-7V399.3z M225.1,399.3h7v7h-7V399.3z M232.3,399.3h7v7h-7V399.3z M239.6,399.3h7v7h-7V399.3z
	 M246.8,399.3h7v7h-7V399.3z M254.1,399.3h7v7h-7V399.3z M261.4,399.3h7v7h-7V399.3z M268.6,399.3h7v7h-7V399.3z M275.9,399.3h7v7
	h-7V399.3z M667.9,399.3h7v7h-7V399.3z M675.2,399.3h7v7h-7V399.3z M682.4,399.3h7v7h-7V399.3z M689.7,399.3h7v7h-7V399.3z
	 M697,399.3h7v7h-7V399.3z M704.2,399.3h7v7h-7V399.3z M711.5,399.3h7v7h-7V399.3z M718.7,399.3h7v7h-7V399.3z M726,399.3h7v7h-7
	V399.3z M733.3,399.3h7v7h-7V399.3z M740.5,399.3h7v7h-7V399.3z M747.8,399.3h7v7h-7V399.3z M755,399.3h7v7h-7V399.3z M762.3,399.3
	h7v7h-7V399.3z M769.6,399.3h7v7h-7V399.3z M776.8,399.3h7v7h-7V399.3z M784.1,399.3h7v7h-7V399.3z M791.3,399.3h7v7h-7V399.3z
	 M798.6,399.3h7v7h-7V399.3z M805.9,399.3h7v7h-7V399.3z M813.1,399.3h7v7h-7V399.3z M820.4,399.3h7v7h-7V399.3z M827.6,399.3h7v7
	h-7V399.3z M834.9,399.3h7v7h-7V399.3z M842.2,399.3h7v7h-7V399.3z M849.4,399.3h7v7h-7V399.3z M856.7,399.3h7v7h-7V399.3z
	 M863.9,399.3h7v7h-7V399.3z M246.8,479.2h7v7h-7V479.2z M254.1,479.2h7v7h-7V479.2z M261.4,479.2h7v7h-7V479.2z M268.6,479.2h7v7
	h-7V479.2z M275.9,479.2h7v7h-7V479.2z M283.1,479.2h7v7h-7V479.2z M290.4,479.2h7v7h-7V479.2z M297.7,479.2h7v7h-7V479.2z
	 M304.9,479.2h7v7h-7V479.2z M312.2,479.2h7v7h-7V479.2z M319.4,479.2h7v7h-7V479.2z M326.7,479.2h7v7h-7V479.2z M334,479.2h7v7h-7
	V479.2z M341.2,479.2h7v7h-7V479.2z M348.5,479.2h7v7h-7V479.2z M355.7,479.2h7v7h-7V479.2z M363,479.2h7v7h-7V479.2z M370.3,479.2
	h7v7h-7V479.2z M377.5,479.2h7v7h-7V479.2z M384.8,479.2h7v7h-7V479.2z M392,479.2h7v7h-7V479.2z M399.3,479.2h7v7h-7V479.2z
	 M406.6,479.2h7v7h-7V479.2z M413.8,479.2h7v7h-7V479.2z M421.1,479.2h7v7h-7V479.2z M428.3,479.2h7v7h-7V479.2z M435.6,479.2h7v7
	h-7V479.2z M442.9,479.2h7v7h-7V479.2z M450.1,479.2h7v7h-7V479.2z M457.4,479.2h7v7h-7V479.2z M464.6,479.2h7v7h-7V479.2z
	 M471.9,479.2h7v7h-7V479.2z M479.2,479.2h7v7h-7V479.2z M486.4,479.2h7v7h-7V479.2z M493.7,479.2h7v7h-7V479.2z M500.9,479.2h7v7
	h-7V479.2z M508.2,479.2h7v7h-7V479.2z M515.5,479.2h7v7h-7V479.2z M522.7,479.2h7v7h-7V479.2z M530,479.2h7v7h-7V479.2z
	 M537.2,479.2h7v7h-7V479.2z M544.5,479.2h7v7h-7V479.2z M551.8,479.2h7v7h-7V479.2z M559,479.2h7v7h-7V479.2z M566.3,479.2h7v7h-7
	V479.2z M573.5,479.2h7v7h-7V479.2z M580.8,479.2h7v7h-7V479.2z M588.1,479.2h7v7h-7V479.2z M595.3,479.2h7v7h-7V479.2z
	 M602.6,479.2h7v7h-7V479.2z M609.8,479.2h7v7h-7V479.2z M617.1,479.2h7v7h-7V479.2z M174.2,486.4h7v7h-7V486.4z M188.8,486.4h7v7
	h-7V486.4z M196,486.4h7v7h-7V486.4z M232.3,486.4h7v7h-7V486.4z M239.6,486.4h7v7h-7V486.4z M246.8,486.4h7v7h-7V486.4z
	 M254.1,486.4h7v7h-7V486.4z M261.4,486.4h7v7h-7V486.4z M268.6,486.4h7v7h-7V486.4z M275.9,486.4h7v7h-7V486.4z M283.1,486.4h7v7
	h-7V486.4z M290.4,486.4h7v7h-7V486.4z M297.7,486.4h7v7h-7V486.4z M304.9,486.4h7v7h-7V486.4z M312.2,486.4h7v7h-7V486.4z
	 M319.4,486.4h7v7h-7V486.4z M326.7,486.4h7v7h-7V486.4z M334,486.4h7v7h-7V486.4z M341.2,486.4h7v7h-7V486.4z M348.5,486.4h7v7h-7
	V486.4z M355.7,486.4h7v7h-7V486.4z M363,486.4h7v7h-7V486.4z M370.3,486.4h7v7h-7V486.4z M377.5,486.4h7v7h-7V486.4z M384.8,486.4
	h7v7h-7V486.4z M392,486.4h7v7h-7V486.4z M399.3,486.4h7v7h-7V486.4z M406.6,486.4h7v7h-7V486.4z M413.8,486.4h7v7h-7V486.4z
	 M421.1,486.4h7v7h-7V486.4z M428.3,486.4h7v7h-7V486.4z M435.6,486.4h7v7h-7V486.4z M442.9,486.4h7v7h-7V486.4z M450.1,486.4h7v7
	h-7V486.4z M457.4,486.4h7v7h-7V486.4z M464.6,486.4h7v7h-7V486.4z M471.9,486.4h7v7h-7V486.4z M479.2,486.4h7v7h-7V486.4z
	 M486.4,486.4h7v7h-7V486.4z M493.7,486.4h7v7h-7V486.4z M500.9,486.4h7v7h-7V486.4z M508.2,486.4h7v7h-7V486.4z M515.5,486.4h7v7
	h-7V486.4z M522.7,486.4h7v7h-7V486.4z M530,486.4h7v7h-7V486.4z M537.2,486.4h7v7h-7V486.4z M544.5,486.4h7v7h-7V486.4z
	 M551.8,486.4h7v7h-7V486.4z M559,486.4h7v7h-7V486.4z M566.3,486.4h7v7h-7V486.4z M573.5,486.4h7v7h-7V486.4z M580.8,486.4h7v7h-7
	V486.4z M588.1,486.4h7v7h-7V486.4z M595.3,486.4h7v7h-7V486.4z M602.6,486.4h7v7h-7V486.4z M609.8,486.4h7v7h-7V486.4z
	 M617.1,486.4h7v7h-7V486.4z M624.4,486.4h7v7h-7V486.4z M624.4,479.2h7v7h-7V479.2z M631.6,486.4h7v7h-7V486.4z M167,493.7h7v7h-7
	V493.7z M181.5,493.7h7v7h-7V493.7z M188.8,493.7h7v7h-7V493.7z M196,493.7h7v7h-7V493.7z M225.1,493.7h7v7h-7V493.7z M232.3,493.7
	h7v7h-7V493.7z M239.6,493.7h7v7h-7V493.7z M246.8,493.7h7v7h-7V493.7z M319.4,493.7h7v7h-7V493.7z M326.7,493.7h7v7h-7V493.7z
	 M334,493.7h7v7h-7V493.7z M341.2,493.7h7v7h-7V493.7z M348.5,493.7h7v7h-7V493.7z M355.7,493.7h7v7h-7V493.7z M421.1,493.7h7v7h-7
	V493.7z M428.3,493.7h7v7h-7V493.7z M435.6,493.7h7v7h-7V493.7z M442.9,493.7h7v7h-7V493.7z M515.5,493.7h7v7h-7V493.7z
	 M522.7,493.7h7v7h-7V493.7z M530,493.7h7v7h-7V493.7z M537.2,493.7h7v7h-7V493.7z M544.5,493.7h7v7h-7V493.7z M551.8,493.7h7v7h-7
	V493.7z M617.1,493.7h7v7h-7V493.7z M624.4,493.7h7v7h-7V493.7z M631.6,493.7h7v7h-7V493.7z M638.9,493.7h7v7h-7V493.7z
	 M225.1,500.9h7v7h-7V500.9z M232.3,500.9h7v7h-7V500.9z M239.6,500.9h7v7h-7V500.9z M312.2,500.9h7v7h-7V500.9z M319.4,500.9h7v7
	h-7V500.9z M326.7,500.9h7v7h-7V500.9z M334,500.9h7v7h-7V500.9z M341.2,500.9h7v7h-7V500.9z M348.5,500.9h7v7h-7V500.9z
	 M421.1,500.9h7v7h-7V500.9z M428.3,500.9h7v7h-7V500.9z M435.6,500.9h7v7h-7V500.9z M442.9,500.9h7v7h-7V500.9z M515.5,500.9h7v7
	h-7V500.9z M522.7,500.9h7v7h-7V500.9z M530,500.9h7v7h-7V500.9z M537.2,500.9h7v7h-7V500.9z M544.5,500.9h7v7h-7V500.9z
	 M551.8,500.9h7v7h-7V500.9z M559,500.9h7v7h-7V500.9z M624.4,500.9h7v7h-7V500.9z M631.6,500.9h7v7h-7V500.9z M638.9,500.9h7v7h-7
	V500.9z M145.2,508.2h7v7h-7V508.2z M159.7,508.2h7v7h-7V508.2z M167,508.2h7v7h-7V508.2z M181.5,508.2h7v7h-7V508.2z M188.8,508.2
	h7v7h-7V508.2z M196,508.2h7v7h-7V508.2z M203.3,508.2h7v7h-7V508.2z M225.1,508.2h7v7h-7V508.2z M232.3,508.2h7v7h-7V508.2z
	 M239.6,508.2h7v7h-7V508.2z M312.2,508.2h7v7h-7V508.2z M319.4,508.2h7v7h-7V508.2z M326.7,508.2h7v7h-7V508.2z M334,508.2h7v7h-7
	V508.2z M341.2,508.2h7v7h-7V508.2z M348.5,508.2h7v7h-7V508.2z M421.1,508.2h7v7h-7V508.2z M428.3,508.2h7v7h-7V508.2z
	 M435.6,508.2h7v7h-7V508.2z M442.9,508.2h7v7h-7V508.2z M522.7,508.2h7v7h-7V508.2z M530,508.2h7v7h-7V508.2z M537.2,508.2h7v7h-7
	V508.2z M544.5,508.2h7v7h-7V508.2z M551.8,508.2h7v7h-7V508.2z M559,508.2h7v7h-7V508.2z M631.6,508.2h7v7h-7V508.2z M638.9,508.2
	h7v7h-7V508.2z M130.7,515.5h7v7h-7V515.5z M137.9,515.5h7v7h-7V515.5z M152.5,515.5h7v7h-7V515.5z M159.7,515.5h7v7h-7V515.5z
	 M174.2,515.5h7v7h-7V515.5z M181.5,515.5h7v7h-7V515.5z M188.8,515.5h7v7h-7V515.5z M196,515.5h7v7h-7V515.5z M203.3,515.5h7v7h-7
	V515.5z M225.1,515.5h7v7h-7V515.5z M232.3,515.5h7v7h-7V515.5z M239.6,515.5h7v7h-7V515.5z M304.9,515.5h7v7h-7V515.5z
	 M312.2,515.5h7v7h-7V515.5z M319.4,515.5h7v7h-7V515.5z M326.7,515.5h7v7h-7V515.5z M334,515.5h7v7h-7V515.5z M341.2,515.5h7v7h-7
	V515.5z M421.1,515.5h7v7h-7V515.5z M428.3,515.5h7v7h-7V515.5z M435.6,515.5h7v7h-7V515.5z M442.9,515.5h7v7h-7V515.5z M530,515.5
	h7v7h-7V515.5z M537.2,515.5h7v7h-7V515.5z M544.5,515.5h7v7h-7V515.5z M551.8,515.5h7v7h-7V515.5z M559,515.5h7v7h-7V515.5z
	 M566.3,515.5h7v7h-7V515.5z M631.6,515.5h7v7h-7V515.5z M638.9,515.5h7v7h-7V515.5z M225.1,522.7h7v7h-7V522.7z M232.3,522.7h7v7
	h-7V522.7z M239.6,522.7h7v7h-7V522.7z M304.9,522.7h7v7h-7V522.7z M312.2,522.7h7v7h-7V522.7z M319.4,522.7h7v7h-7V522.7z
	 M326.7,522.7h7v7h-7V522.7z M334,522.7h7v7h-7V522.7z M341.2,522.7h7v7h-7V522.7z M421.1,522.7h7v7h-7V522.7z M428.3,522.7h7v7h-7
	V522.7z M435.6,522.7h7v7h-7V522.7z M442.9,522.7h7v7h-7V522.7z M537.2,522.7h7v7h-7V522.7z M544.5,522.7h7v7h-7V522.7z
	 M551.8,522.7h7v7h-7V522.7z M559,522.7h7v7h-7V522.7z M566.3,522.7h7v7h-7V522.7z M573.5,522.7h7v7h-7V522.7z M580.8,522.7h7v7h-7
	V522.7z M631.6,522.7h7v7h-7V522.7z M638.9,522.7h7v7h-7V522.7z M225.1,530h7v7h-7V530z M232.3,530h7v7h-7V530z M239.6,530h7v7h-7
	V530z M297.7,530h7v7h-7V530z M304.9,530h7v7h-7V530z M312.2,530h7v7h-7V530z M319.4,530h7v7h-7V530z M326.7,530h7v7h-7V530z
	 M334,530h7v7h-7V530z M421.1,530h7v7h-7V530z M428.3,530h7v7h-7V530z M435.6,530h7v7h-7V530z M442.9,530h7v7h-7V530z M537.2,530h7
	v7h-7V530z M544.5,530h7v7h-7V530z M551.8,530h7v7h-7V530z M559,530h7v7h-7V530z M566.3,530h7v7h-7V530z M573.5,530h7v7h-7V530z
	 M580.8,530h7v7h-7V530z M588.1,530h7v7h-7V530z M631.6,530h7v7h-7V530z M638.9,530h7v7h-7V530z M174.2,537.2h7v7h-7V537.2z
	 M188.8,537.2h7v7h-7V537.2z M196,537.2h7v7h-7V537.2z M203.3,537.2h7v7h-7V537.2z M225.1,537.2h7v7h-7V537.2z M232.3,537.2h7v7h-7
	V537.2z M239.6,537.2h7v7h-7V537.2z M246.8,537.2h7v7h-7V537.2z M297.7,537.2h7v7h-7V537.2z M304.9,537.2h7v7h-7V537.2z
	 M312.2,537.2h7v7h-7V537.2z M319.4,537.2h7v7h-7V537.2z M326.7,537.2h7v7h-7V537.2z M334,537.2h7v7h-7V537.2z M421.1,537.2h7v7h-7
	V537.2z M428.3,537.2h7v7h-7V537.2z M435.6,537.2h7v7h-7V537.2z M442.9,537.2h7v7h-7V537.2z M450.1,537.2h7v7h-7V537.2z
	 M544.5,537.2h7v7h-7V537.2z M551.8,537.2h7v7h-7V537.2z M559,537.2h7v7h-7V537.2z M566.3,537.2h7v7h-7V537.2z M573.5,537.2h7v7h-7
	V537.2z M580.8,537.2h7v7h-7V537.2z M588.1,537.2h7v7h-7V537.2z M631.6,537.2h7v7h-7V537.2z M638.9,537.2h7v7h-7V537.2z
	 M232.3,544.5h7v7h-7V544.5z M239.6,544.5h7v7h-7V544.5z M246.8,544.5h7v7h-7V544.5z M254.1,544.5h7v7h-7V544.5z M261.4,544.5h7v7
	h-7V544.5z M268.6,544.5h7v7h-7V544.5z M275.9,544.5h7v7h-7V544.5z M283.1,544.5h7v7h-7V544.5z M290.4,544.5h7v7h-7V544.5z
	 M297.7,544.5h7v7h-7V544.5z M304.9,544.5h7v7h-7V544.5z M312.2,544.5h7v7h-7V544.5z M319.4,544.5h7v7h-7V544.5z M326.7,544.5h7v7
	h-7V544.5z M334,544.5h7v7h-7V544.5z M341.2,544.5h7v7h-7V544.5z M348.5,544.5h7v7h-7V544.5z M355.7,544.5h7v7h-7V544.5z M363,544.5
	h7v7h-7V544.5z M370.3,544.5h7v7h-7V544.5z M377.5,544.5h7v7h-7V544.5z M384.8,544.5h7v7h-7V544.5z M392,544.5h7v7h-7V544.5z
	 M399.3,544.5h7v7h-7V544.5z M406.6,544.5h7v7h-7V544.5z M413.8,544.5h7v7h-7V544.5z M421.1,544.5h7v7h-7V544.5z M428.3,544.5h7v7
	h-7V544.5z M435.6,544.5h7v7h-7V544.5z M442.9,544.5h7v7h-7V544.5z M450.1,544.5h7v7h-7V544.5z M457.4,544.5h7v7h-7V544.5z
	 M464.6,544.5h7v7h-7V544.5z M471.9,544.5h7v7h-7V544.5z M479.2,544.5h7v7h-7V544.5z M486.4,544.5h7v7h-7V544.5z M493.7,544.5h7v7
	h-7V544.5z M500.9,544.5h7v7h-7V544.5z M508.2,544.5h7v7h-7V544.5z M515.5,544.5h7v7h-7V544.5z M522.7,544.5h7v7h-7V544.5z
	 M530,544.5h7v7h-7V544.5z M537.2,544.5h7v7h-7V544.5z M544.5,544.5h7v7h-7V544.5z M551.8,544.5h7v7h-7V544.5z M559,544.5h7v7h-7
	V544.5z M566.3,544.5h7v7h-7V544.5z M573.5,544.5h7v7h-7V544.5z M580.8,544.5h7v7h-7V544.5z M588.1,544.5h7v7h-7V544.5z
	 M595.3,544.5h7v7h-7V544.5z M602.6,544.5h7v7h-7V544.5z M609.8,544.5h7v7h-7V544.5z M617.1,544.5h7v7h-7V544.5z M624.4,544.5h7v7
	h-7V544.5z M624.4,537.2h7v7h-7V537.2z M631.6,544.5h7v7h-7V544.5z M246.8,551.8h7v7h-7V551.8z M254.1,551.8h7v7h-7V551.8z
	 M261.4,551.8h7v7h-7V551.8z M268.6,551.8h7v7h-7V551.8z M275.9,551.8h7v7h-7V551.8z M283.1,551.8h7v7h-7V551.8z M290.4,551.8h7v7
	h-7V551.8z M297.7,551.8h7v7h-7V551.8z M304.9,551.8h7v7h-7V551.8z M312.2,551.8h7v7h-7V551.8z M319.4,551.8h7v7h-7V551.8z
	 M326.7,551.8h7v7h-7V551.8z M334,551.8h7v7h-7V551.8z M341.2,551.8h7v7h-7V551.8z M348.5,551.8h7v7h-7V551.8z M355.7,551.8h7v7h-7
	V551.8z M363,551.8h7v7h-7V551.8z M370.3,551.8h7v7h-7V551.8z M377.5,551.8h7v7h-7V551.8z M384.8,551.8h7v7h-7V551.8z M392,551.8h7
	v7h-7V551.8z M399.3,551.8h7v7h-7V551.8z M406.6,551.8h7v7h-7V551.8z M413.8,551.8h7v7h-7V551.8z M421.1,551.8h7v7h-7V551.8z
	 M428.3,551.8h7v7h-7V551.8z M435.6,551.8h7v7h-7V551.8z M442.9,551.8h7v7h-7V551.8z M450.1,551.8h7v7h-7V551.8z M457.4,551.8h7v7
	h-7V551.8z M464.6,551.8h7v7h-7V551.8z M471.9,551.8h7v7h-7V551.8z M479.2,551.8h7v7h-7V551.8z M486.4,551.8h7v7h-7V551.8z
	 M493.7,551.8h7v7h-7V551.8z M500.9,551.8h7v7h-7V551.8z M508.2,551.8h7v7h-7V551.8z M515.5,551.8h7v7h-7V551.8z M522.7,551.8h7v7
	h-7V551.8z M530,551.8h7v7h-7V551.8z M537.2,551.8h7v7h-7V551.8z M544.5,551.8h7v7h-7V551.8z M551.8,551.8h7v7h-7V551.8z M559,551.8
	h7v7h-7V551.8z M566.3,551.8h7v7h-7V551.8z M573.5,551.8h7v7h-7V551.8z M580.8,551.8h7v7h-7V551.8z M588.1,551.8h7v7h-7V551.8z
	 M595.3,551.8h7v7h-7V551.8z M602.6,551.8h7v7h-7V551.8z M609.8,551.8h7v7h-7V551.8z M617.1,551.8h7v7h-7V551.8z M624.4,551.8h7v7
	h-7V551.8z"/>
</svg>
