<?xml version="1.0" encoding="utf-8"?>
<!-- Generator: Adobe Illustrator 27.3.1, SVG Export Plug-In . SVG Version: 6.00 Build 0)  -->
<svg version="1.1" id="Слой_1" xmlns="http://www.w3.org/2000/svg" xmlns:xlink="http://www.w3.org/1999/xlink" x="0px" y="0px"
	 viewBox="0 0 50.6 50.8" style="enable-background:new 0 0 50.6 50.8;" xml:space="preserve">
<style type="text/css">
	.st0{fill:#F7D276;}
	.st1{fill:#1E0E01;}
</style>
<polygon class="st0" points="0,28.9 21.8,50.7 28.8,50.8 50.6,28.9 50.6,21.9 28.7,0 21.5,0 0,21.6 "/>
<path class="st1" d="M0,14.6h7v7H0V14.6z M0,21.9h7v7H0V21.9z M7.3,7.3h7v7h-7V7.3z M14.5,14.6h7v7h-7V14.6z M14.5,21.9h7v7h-7V21.9
	z M14.5,0h7v7h-7V0z M21.8,14.6h7v7h-7V14.6z M21.8,21.9h7v7h-7V21.9z M21.8,0h7v7h-7V0z M29,14.6h7v7h-7V14.6z M29,21.9h7v7h-7
	V21.9z M29,0h7v7h-7V0z M36.3,7.3h7v7h-7V7.3z M43.6,14.6h7v7h-7V14.6z M43.6,21.9h7v7h-7V21.9z M0,29.2h7v7H0V29.2z M7.3,36.5h7v7
	h-7V36.5z M14.5,29.2h7v7h-7V29.2z M21.8,29.2h7v7h-7V29.2z M14.5,43.8h7v7h-7V43.8z M21.8,43.8h7v7h-7V43.8z M29,29.2h7v7h-7V29.2z
	 M36.3,36.5h7v7h-7V36.5z M29,43.8h7v7h-7V43.8z M43.6,29.2h7v7h-7V29.2z"/>
</svg>
