<?xml version="1.0" encoding="utf-8"?>
<!-- Generator: Adobe Illustrator 27.3.1, SVG Export Plug-In . SVG Version: 6.00 Build 0)  -->
<svg version="1.1" id="Слой_1" xmlns="http://www.w3.org/2000/svg" xmlns:xlink="http://www.w3.org/1999/xlink" x="0px" y="0px"
	 viewBox="0 0 50.6 50.6" style="enable-background:new 0 0 50.6 50.6;" xml:space="preserve">
<style type="text/css">
	.st0{fill:#1E0E01;}
</style>
<path class="st0" d="M0,0h7v7H0V0z M0,14.5h7v7H0V14.5z M0,21.8h7v7H0V21.8z M0,29h7v7H0V29z M0,36.3h7v7H0V36.3z M7.3,7.2h7v7h-7
	V7.2z M7.3,21.8h7v7h-7V21.8z M7.3,29h7v7h-7V29z M14.5,7.2h7v7h-7V7.2z M14.5,14.5h7v7h-7V14.5z M14.5,29h7v7h-7V29z M14.5,36.3h7
	v7h-7V36.3z M21.8,7.2h7v7h-7V7.2z M21.8,21.8h7v7h-7V21.8z M21.8,29h7v7h-7V29z M29,7.2h7v7h-7V7.2z M29,21.8h7v7h-7V21.8z
	 M29,36.3h7v7h-7V36.3z M36.3,14.5h7v7h-7V14.5z M36.3,29h7v7h-7V29z M36.3,36.3h7v7h-7V36.3z M0,43.6h7v7H0V43.6z M7.3,0h7v7h-7V0z
	 M7.3,43.6h7v7h-7V43.6z M21.8,0h7v7h-7V0z M21.8,43.6h7v7h-7V43.6z M29.1,43.6h7v7h-7V43.6z M36.3,0h7v7h-7V0z M43.6,0h7v7h-7V0z
	 M43.6,7.2h7v7h-7V7.2z M43.6,14.5h7v7h-7V14.5z M43.6,21.8h7v7h-7V21.8z M43.6,36.3h7v7h-7V36.3z M43.6,43.6h7v7h-7V43.6z"/>
</svg>
