<?xml version="1.0" encoding="utf-8"?>
<!-- Generator: Adobe Illustrator 27.3.1, SVG Export Plug-In . SVG Version: 6.00 Build 0)  -->
<svg version="1.1" id="Слой_1" xmlns="http://www.w3.org/2000/svg" xmlns:xlink="http://www.w3.org/1999/xlink" x="0px" y="0px"
	 viewBox="0 0 972.6 28.8" style="enable-background:new 0 0 972.6 28.8;" xml:space="preserve">
<style type="text/css">
	.st0{fill:#1E0E01;}
</style>
<path class="st0" d="M0,0h7v7H0V0z M0,7.3h7v7H0V7.3z M7.3,0h7v7h-7V0z M14.5,0h7v7h-7V0z M21.8,0h7v7h-7V0z M29.1,0h7v7h-7V0z
	 M36.3,0h7v7h-7V0z M36.3,7.3h7v7h-7V7.3z M43.6,0h7v7h-7V0z M43.6,7.3h7v7h-7V7.3z M50.8,0h7v7h-7V0z M58.1,0h7v7h-7V0z M65.4,0h7
	v7h-7V0z M72.6,0h7v7h-7V0z M79.9,0h7v7h-7V0z M79.9,7.3h7v7h-7V7.3z M87.1,0h7v7h-7V0z M87.1,7.3h7v7h-7V7.3z M94.4,0h7v7h-7V0z
	 M101.7,0h7v7h-7V0z M108.9,0h7v7h-7C108.9,7,108.9,0,108.9,0z M116.2,0h7v7h-7V0z M123.4,0h7v7h-7V0z M123.4,7.3h7v7h-7V7.3z
	 M130.7,0h7v7h-7V0z M130.7,7.3h7v7h-7V7.3z M138,0h7v7h-7V0z M138,7.3h7v7h-7V7.3z M145.2,0h7v7h-7V0z M145.2,7.3h7v7h-7V7.3z
	 M152.5,0h7v7h-7V0z M159.7,0h7v7h-7V0z M167,0h7v7h-7V0z M174.3,0h7v7h-7V0z M181.5,0h7v7h-7V0z M188.8,0h7v7h-7V0z M196,0h7v7h-7
	V0z M196,7.3h7v7h-7V7.3z M203.3,0h7v7h-7V0z M203.3,7.3h7v7h-7V7.3z M210.6,0h7v7h-7V0z M210.6,7.3h7v7h-7V7.3z M217.8,0h7v7h-7V0z
	 M217.8,7.3h7v7h-7V7.3z M225.1,0h7v7h-7V0z M232.3,0h7v7h-7V0z M239.6,0h7v7h-7V0z M246.9,0h7v7h-7V0z M254.1,0h7v7h-7V0z M261.4,0
	h7v7h-7V0z M268.6,0h7v7h-7V0z M268.6,7.3h7v7h-7V7.3z M275.9,0h7v7h-7V0z M275.9,7.3h7v7h-7V7.3z M283.2,0h7v7h-7V0z M283.2,7.3h7
	v7h-7V7.3z M290.4,0h7v7h-7V0z M290.4,7.3h7v7h-7V7.3z M297.7,0h7v7h-7V0z M297.7,7.3h7v7h-7V7.3z M304.9,0h7v7h-7V0z M312.2,0h7v7
	h-7V0z M319.5,0h7v7h-7V0z M326.7,0h7v7h-7V0z M334,0h7v7h-7V0z M341.2,0h7v7h-7V0z M348.5,0h7v7h-7V0z M355.8,0h7v7h-7V0z M363,0h7
	v7h-7V0z M363,7.3h7v7h-7V7.3z M370.3,0h7v7h-7V0z M370.3,7.3h7v7h-7V7.3z M377.5,0h7v7h-7V0z M377.5,7.3h7v7h-7V7.3z M384.8,0h7v7
	h-7V0z M384.8,7.3h7v7h-7V7.3z M392.1,0h7v7h-7V0z M392.1,7.3h7v7h-7V7.3z M399.3,0h7v7h-7V0z M406.6,0h7v7h-7V0z M413.8,0h7v7h-7V0
	z M421.1,0h7v7h-7V0z M428.4,0h7v7h-7V0z M435.6,0h7v7h-7V0z M442.9,0h7v7h-7V0z M450.1,0h7v7h-7V0z M457.4,0h7v7h-7V0z M457.4,7.3
	h7v7h-7V7.3z M464.7,0h7v7h-7V0z M464.7,7.3h7v7h-7V7.3z M471.9,0h7v7h-7V0z M471.9,7.3h7v7h-7V7.3z M479.2,0h7v7h-7V0z M486.4,0h7
	v7h-7V0z M493.7,0h7v7h-7V0z M493.7,7.3h7v7h-7V7.3z M501,0h7v7h-7V0z M501,7.3h7v7h-7V7.3z M508.2,0h7v7h-7V0z M508.2,7.3h7v7h-7
	V7.3z M515.5,0h7v7h-7V0z M522.7,0h7v7h-7V0z M530,0h7v7h-7V0z M537.3,0h7v7h-7V0z M544.5,0h7v7h-7V0z M551.8,0h7v7h-7V0z M559,0h7
	v7h-7V0z M566.3,0h7v7h-7V0z M573.6,0h7v7h-7V0z M573.6,7.3h7v7h-7V7.3z M580.8,0h7v7h-7V0z M580.8,7.3h7v7h-7V7.3z M588.1,0h7v7h-7
	V0z M588.1,7.3h7v7h-7V7.3z M595.3,0h7v7h-7V0z M595.3,7.3h7v7h-7V7.3z M602.6,0h7v7h-7V0z M602.6,7.3h7v7h-7V7.3z M609.9,0h7v7h-7
	V0z M617.1,0h7v7h-7V0z M624.4,0h7v7h-7V0z M631.6,0h7v7h-7V0z M638.9,0h7v7h-7V0z M646.2,0h7v7h-7V0z M653.4,0h7v7h-7V0z M660.7,0
	h7v7h-7V0z M667.9,0h7v7h-7V0z M667.9,7.3h7v7h-7V7.3z M675.2,0h7v7h-7V0z M675.2,7.3h7v7h-7V7.3z M682.5,0h7v7h-7V0z M682.5,7.3h7
	v7h-7V7.3z M689.7,0h7v7h-7V0z M689.7,7.3h7v7h-7V7.3z M697,0h7v7h-7V0z M697,7.3h7v7h-7V7.3z M704.2,0h7v7h-7V0z M711.5,0h7v7h-7V0
	z M718.8,0h7v7h-7V0z M726,0h7v7h-7V0z M733.3,0h7v7h-7V0z M740.5,0h7v7h-7V0z M747.8,0h7v7h-7V0z M747.8,7.3h7v7h-7V7.3z M755.1,0
	h7v7h-7V0z M755.1,7.3h7v7h-7V7.3z M762.3,0h7v7h-7V0z M762.3,7.3h7v7h-7V7.3z M769.6,0h7v7h-7V0z M769.6,7.3h7v7h-7V7.3z M776.8,0
	h7v7h-7V0z M784.1,0h7v7h-7V0z M791.4,0h7v7h-7V0z M798.6,0h7v7h-7V0z M805.9,0h7v7h-7V0z M813.1,0h7v7h-7V0z M820.4,0h7v7h-7V0z
	 M820.4,7.3h7v7h-7V7.3z M827.7,0h7v7h-7V0z M827.7,7.3h7v7h-7V7.3z M834.9,0h7v7h-7V0z M834.9,7.3h7v7h-7V7.3z M842.2,0h7v7h-7V0z
	 M842.2,7.3h7v7h-7V7.3z M849.4,0h7v7h-7V0z M856.7,0h7v7h-7V0z M864,0h7v7h-7V0z M871.2,0h7v7h-7V0z M878.5,0h7v7h-7V0z M878.5,7.3
	h7v7h-7V7.3z M885.7,0h7v7h-7V0z M885.7,7.3h7v7h-7V7.3z M893,0h7v7h-7V0z M900.3,0h7v7h-7V0z M907.5,0h7v7h-7V0z M914.8,0h7v7h-7V0
	z M922,0h7v7h-7V0z M922,7.3h7v7h-7V7.3z M929.3,0h7v7h-7V0z M929.3,7.3h7v7h-7V7.3z M936.6,0h7v7h-7V0z M943.8,0h7v7h-7V0z
	 M951.1,0h7v7h-7V0z M958.3,0h7v7h-7V0z M965.6,0h7v7h-7V0z M965.6,7.3h7v7h-7V7.3z M0,14.5h7v7H0V14.5z M0,21.8h7v7H0V21.8z
	 M7.3,14.5h7v7h-7V14.5z M7.3,21.8h7v7h-7V21.8z M14.5,21.8h7v7h-7V21.8z M21.8,21.8h7v7h-7V21.8z M29.1,21.8h7v7h-7V21.8z
	 M36.3,21.8h7v7h-7V21.8z M43.6,14.5h7v7h-7V14.5z M43.6,21.8h7v7h-7V21.8z M50.8,14.5h7v7h-7V14.5z M50.8,21.8h7v7h-7V21.8z
	 M58.1,21.8h7v7h-7V21.8z M65.4,21.8h7v7h-7V21.8z M72.6,21.8h7v7h-7V21.8z M79.9,21.8h7v7h-7V21.8z M87.1,14.5h7v7h-7V14.5z
	 M87.1,21.8h7v7h-7V21.8z M94.4,14.5h7v7h-7V14.5z M94.4,21.8h7v7h-7V21.8z M101.7,21.8h7v7h-7V21.8z M108.9,21.8h7v7h-7
	C108.9,28.8,108.9,21.8,108.9,21.8z M116.2,21.8h7v7h-7V21.8z M123.4,21.8h7v7h-7V21.8z M130.7,14.5h7v7h-7V14.5z M130.7,21.8h7v7
	h-7V21.8z M138,14.5h7v7h-7V14.5z M138,21.8h7v7h-7V21.8z M145.2,14.5h7v7h-7V14.5z M145.2,21.8h7v7h-7V21.8z M152.5,14.5h7v7h-7
	V14.5z M152.5,21.8h7v7h-7V21.8z M159.7,21.8h7v7h-7V21.8z M167,21.8h7v7h-7V21.8z M174.3,21.8h7v7h-7V21.8z M181.5,21.8h7v7h-7
	V21.8z M188.8,21.8h7v7h-7V21.8z M196,21.8h7v7h-7V21.8z M203.3,14.5h7v7h-7V14.5z M203.3,21.8h7v7h-7V21.8z M210.6,14.5h7v7h-7
	V14.5z M210.6,21.8h7v7h-7V21.8z M217.8,14.5h7v7h-7V14.5z M217.8,21.8h7v7h-7V21.8z M225.1,14.5h7v7h-7V14.5z M225.1,21.8h7v7h-7
	V21.8z M232.3,21.8h7v7h-7V21.8z M239.6,21.8h7v7h-7V21.8z M246.9,21.8h7v7h-7V21.8z M254.1,21.8h7v7h-7V21.8z M261.4,21.8h7v7h-7
	V21.8z M268.6,21.8h7v7h-7V21.8z M275.9,14.5h7v7h-7V14.5z M275.9,21.8h7v7h-7V21.8z M283.2,14.5h7v7h-7V14.5z M283.2,21.8h7v7h-7
	V21.8z M290.4,14.5h7v7h-7V14.5z M290.4,21.8h7v7h-7V21.8z M297.7,14.5h7v7h-7V14.5z M297.7,21.8h7v7h-7V21.8z M304.9,14.5h7v7h-7
	V14.5z M304.9,21.8h7v7h-7V21.8z M312.2,21.8h7v7h-7V21.8z M319.5,21.8h7v7h-7V21.8z M326.7,21.8h7v7h-7V21.8z M334,21.8h7v7h-7
	V21.8z M341.2,21.8h7v7h-7V21.8z M348.5,21.8h7v7h-7V21.8z M355.8,21.8h7v7h-7V21.8z M363,21.8h7v7h-7V21.8z M370.3,14.5h7v7h-7
	V14.5z M370.3,21.8h7v7h-7V21.8z M377.5,14.5h7v7h-7V14.5z M377.5,21.8h7v7h-7V21.8z M384.8,14.5h7v7h-7V14.5z M384.8,21.8h7v7h-7
	V21.8z M392.1,14.5h7v7h-7V14.5z M392.1,21.8h7v7h-7V21.8z M399.3,14.5h7v7h-7V14.5z M399.3,21.8h7v7h-7V21.8z M406.6,21.8h7v7h-7
	V21.8z M413.8,21.8h7v7h-7V21.8z M421.1,21.8h7v7h-7V21.8z M428.4,21.8h7v7h-7V21.8z M435.6,21.8h7v7h-7V21.8z M442.9,21.8h7v7h-7
	V21.8z M450.1,21.8h7v7h-7V21.8z M457.4,21.8h7v7h-7V21.8z M464.7,14.5h7v7h-7V14.5z M464.7,21.8h7v7h-7V21.8z M471.9,14.5h7v7h-7
	V14.5z M471.9,21.8h7v7h-7V21.8z M479.2,21.8h7v7h-7V21.8z M486.4,21.8h7v7h-7V21.8z M493.7,14.5h7v7h-7V14.5z M493.7,21.8h7v7h-7
	V21.8z M501,14.5h7v7h-7V14.5z M501,21.8h7v7h-7V21.8z M508.2,21.8h7v7h-7V21.8z M515.5,21.8h7v7h-7V21.8z M522.7,21.8h7v7h-7V21.8z
	 M530,21.8h7v7h-7V21.8z M537.3,21.8h7v7h-7V21.8z M544.5,21.8h7v7h-7V21.8z M551.8,21.8h7v7h-7V21.8z M559,21.8h7v7h-7V21.8z
	 M566.3,14.5h7v7h-7V14.5z M566.3,21.8h7v7h-7V21.8z M573.6,14.5h7v7h-7V14.5z M573.6,21.8h7v7h-7V21.8z M580.8,14.5h7v7h-7V14.5z
	 M580.8,21.8h7v7h-7V21.8z M588.1,14.5h7v7h-7V14.5z M588.1,21.8h7v7h-7V21.8z M595.3,14.5h7v7h-7V14.5z M595.3,21.8h7v7h-7V21.8z
	 M602.6,21.8h7v7h-7V21.8z M609.9,21.8h7v7h-7V21.8z M617.1,21.8h7v7h-7V21.8z M624.4,21.8h7v7h-7V21.8z M631.6,21.8h7v7h-7V21.8z
	 M638.9,21.8h7v7h-7V21.8z M646.2,21.8h7v7h-7V21.8z M653.4,21.8h7v7h-7V21.8z M660.7,14.5h7v7h-7V14.5z M660.7,21.8h7v7h-7V21.8z
	 M667.9,14.5h7v7h-7V14.5z M667.9,21.8h7v7h-7V21.8z M675.2,14.5h7v7h-7V14.5z M675.2,21.8h7v7h-7V21.8z M682.5,14.5h7v7h-7V14.5z
	 M682.5,21.8h7v7h-7V21.8z M689.7,14.5h7v7h-7V14.5z M689.7,21.8h7v7h-7V21.8z M697,21.8h7v7h-7V21.8z M704.2,21.8h7v7h-7V21.8z
	 M711.5,21.8h7v7h-7V21.8z M718.8,21.8h7v7h-7V21.8z M726,21.8h7v7h-7V21.8z M733.3,21.8h7v7h-7V21.8z M740.5,14.5h7v7h-7V14.5z
	 M740.5,21.8h7v7h-7V21.8z M747.8,14.5h7v7h-7V14.5z M747.8,21.8h7v7h-7V21.8z M755.1,14.5h7v7h-7V14.5z M755.1,21.8h7v7h-7V21.8z
	 M762.3,14.5h7v7h-7V14.5z M762.3,21.8h7v7h-7V21.8z M769.6,21.8h7v7h-7V21.8z M776.8,21.8h7v7h-7V21.8z M784.1,21.8h7v7h-7V21.8z
	 M791.4,21.8h7v7h-7V21.8z M798.6,21.8h7v7h-7V21.8z M805.9,21.8h7v7h-7V21.8z M813.1,14.5h7v7h-7V14.5z M813.1,21.8h7v7h-7V21.8z
	 M820.4,14.5h7v7h-7V14.5z M820.4,21.8h7v7h-7V21.8z M827.7,14.5h7v7h-7V14.5z M827.7,21.8h7v7h-7V21.8z M834.9,14.5h7v7h-7V14.5z
	 M834.9,21.8h7v7h-7V21.8z M842.2,21.8h7v7h-7V21.8z M849.4,21.8h7v7h-7V21.8z M856.7,21.8h7v7h-7V21.8z M864,21.8h7v7h-7V21.8z
	 M871.2,14.5h7v7h-7V14.5z M871.2,21.8h7v7h-7V21.8z M878.5,14.5h7v7h-7V14.5z M878.5,21.8h7v7h-7V21.8z M885.7,21.8h7v7h-7V21.8z
	 M893,21.8h7v7h-7V21.8z M900.3,21.8h7v7h-7V21.8z M907.5,21.8h7v7h-7V21.8z M914.8,14.5h7v7h-7V14.5z M914.8,21.8h7v7h-7V21.8z
	 M922,14.5h7v7h-7V14.5z M922,21.8h7v7h-7V21.8z M929.3,21.8h7v7h-7V21.8z M936.6,21.8h7v7h-7V21.8z M943.8,21.8h7v7h-7V21.8z
	 M951.1,21.8h7v7h-7V21.8z M958.3,14.5h7v7h-7V14.5z M958.3,21.8h7v7h-7V21.8z M965.6,14.5h7v7h-7V14.5z M965.6,21.8h7v7h-7V21.8z"
	/>
</svg>
