<?xml version="1.0" encoding="utf-8"?>
<!-- Generator: Adobe Illustrator 27.3.1, SVG Export Plug-In . SVG Version: 6.00 Build 0)  -->
<svg version="1.1" xmlns="http://www.w3.org/2000/svg" xmlns:xlink="http://www.w3.org/1999/xlink" x="0px" y="0px"
	 viewBox="0 0 237.1 389.5" style="enable-background:new 0 0 237.1 389.5;" xml:space="preserve">
<style type="text/css">
	.st0{fill:#FBE7B4;}
	.st1{fill:#1E0E01;}
</style>
<g id="Слой_2">
	<g>
		<path class="st0" d="M237.1,249.3c0-1.4-1.1-2.5-2.5-2.5h-4.8v-4.8c0,0,0-0.1,0-0.1c0,0,0-0.1,0-0.1v-7c0,0,0-0.1,0-0.1
			c0,0,0-0.1,0-0.1v-7c0-1.4-1.1-2.5-2.5-2.5h-4.8v-4.8c0,0,0-0.1,0-0.1c0,0,0-0.1,0-0.1v-7c0,0,0-0.1,0-0.1c0,0,0-0.1,0-0.1v-7
			c0,0,0-0.1,0-0.1c0,0,0-0.1,0-0.1v-7c0,0,0-0.1,0-0.1c0,0,0-0.1,0-0.1v-7c0-1.4-1.1-2.5-2.5-2.5h-4.8V184c0,0,0-0.1,0-0.1
			c0,0,0-0.1,0-0.1v-7c0-1.4-1.1-2.5-2.5-2.5H208v-4.8c0,0,0-0.1,0-0.1c0,0,0-0.1,0-0.1v-7c0-1.4-1.1-2.5-2.5-2.5h-4.8v-2.5h4.8
			c1.4,0,2.5-1.1,2.5-2.5v-7c0-1.4-1.1-2.5-2.5-2.5h-4.8v-4.8c0-1.4-1.1-2.5-2.5-2.5h-4.8v-2.5h4.8c1.4,0,2.5-1.1,2.5-2.5v-7
			c0,0,0-0.1,0-0.1c0,0,0-0.1,0-0.1v-4.8h4.8c1.4,0,2.5-1.1,2.5-2.5v-7c0,0,0-0.1,0-0.1c0,0,0-0.1,0-0.1v-7c0,0,0-0.1,0-0.1
			c0,0,0-0.1,0-0.1v-7c0,0,0-0.1,0-0.1c0,0,0-0.1,0-0.1v-7c0,0,0-0.1,0-0.1c0,0,0-0.1,0-0.1v-7c0,0,0-0.1,0-0.1c0,0,0-0.1,0-0.1v-7
			c0-1.4-1.1-2.5-2.5-2.5h-4.8v-2.5h4.8c1.4,0,2.5-1.1,2.5-2.5v-7c0,0,0-0.1,0-0.1c0,0,0-0.1,0-0.1v-7c0,0,0-0.1,0-0.1
			c0,0,0-0.1,0-0.1v-7c0-1.4-1.1-2.5-2.5-2.5h-7c-1.4,0-2.5,1.1-2.5,2.5v7c0,0,0,0.1,0,0.1c0,0,0,0.1,0,0.1v4.8h-4.8
			c-1.4,0-2.5,1.1-2.5,2.5v7c0,0,0,0.1,0,0.1c0,0,0,0.1,0,0.1v7c0,0,0,0.1,0,0.1c0,0,0,0.1,0,0.1v7c0,1.4,1.1,2.5,2.5,2.5h4.8v4.8
			c0,0,0,0.1,0,0.1c0,0,0,0.1,0,0.1v7c0,0,0,0.1,0,0.1c0,0,0,0.1,0,0.1v7c0,0,0,0.1,0,0.1c0,0,0,0.1,0,0.1v4.8h-4.8
			c-1.4,0-2.5,1.1-2.5,2.5v7c0,0,0,0.1,0,0.1c0,0,0,0.1,0,0.1v4.8H184c-1.4,0-2.5,1.1-2.5,2.5v7c0,0,0,0.1,0,0.1c0,0,0,0.1,0,0.1v7
			c0,0,0,0.1,0,0.1c0,0,0,0.1,0,0.1v7c0,1.4,1.1,2.5,2.5,2.5h4.8v4.8c0,0,0,0.1,0,0.1c0,0,0,0.1,0,0.1v7c0,0,0,0.1,0,0.1
			c0,0,0,0.1,0,0.1v4.8h-2.5v-4.8c0-1.4-1.1-2.5-2.5-2.5H179V155c0,0,0-0.1,0-0.1c0,0,0-0.1,0-0.1v-7c0,0,0-0.1,0-0.1
			c0,0,0-0.1,0-0.1v-7c0-1.4-1.1-2.5-2.5-2.5h-4.8v-4.8c0,0,0-0.1,0-0.1c0,0,0-0.1,0-0.1v-7c0,0,0-0.1,0-0.1c0,0,0-0.1,0-0.1v-7
			c0,0,0-0.1,0-0.1c0,0,0-0.1,0-0.1v-7c0,0,0-0.1,0-0.1c0,0,0-0.1,0-0.1v-7c0,0,0-0.1,0-0.1c0,0,0-0.1,0-0.1v-4.8h4.8
			c1.4,0,2.5-1.1,2.5-2.5v-7c0,0,0-0.1,0-0.1c0,0,0-0.1,0-0.1v-4.8h4.8c1.4,0,2.5-1.1,2.5-2.5v-7c0-1.4-1.1-2.5-2.5-2.5H179v-4.8
			c0,0,0-0.1,0-0.1c0,0,0-0.1,0-0.1v-7c0,0,0-0.1,0-0.1c0,0,0-0.1,0-0.1v-7c0-1.4-1.1-2.5-2.5-2.5h-4.8v-4.8c0,0,0-0.1,0-0.1
			c0,0,0-0.1,0-0.1v-7c0-1.4-1.1-2.5-2.5-2.5h-7c0,0-0.1,0-0.1,0c0,0-0.1,0-0.1,0h-7c-1.4,0-2.5,1.1-2.5,2.5v7
			c0,1.4,1.1,2.5,2.5,2.5h4.8v4.8c0,0,0,0.1,0,0.1c0,0,0,0.1,0,0.1v7c0,1.4,1.1,2.5,2.5,2.5h4.8v4.8c0,0,0,0.1,0,0.1
			c0,0,0,0.1,0,0.1v7c0,0,0,0.1,0,0.1c0,0,0,0.1,0,0.1v4.8h-4.8c-1.4,0-2.5,1.1-2.5,2.5v7c0,0,0,0.1,0,0.1c0,0,0,0.1,0,0.1v7
			c0,0,0,0.1,0,0.1c0,0,0,0.1,0,0.1v4.8H155c-1.4,0-2.5,1.1-2.5,2.5v7c0,0,0,0.1,0,0.1c0,0,0,0.1,0,0.1v7c0,0,0,0.1,0,0.1
			c0,0,0,0.1,0,0.1v7c0,0,0,0.1,0,0.1c0,0,0,0.1,0,0.1v7c0,1.4,1.1,2.5,2.5,2.5h4.8v4.8c0,0,0,0.1,0,0.1c0,0,0,0.1,0,0.1v7
			c0,0,0,0.1,0,0.1c0,0,0,0.1,0,0.1v7c0,0,0,0.1,0,0.1c0,0,0,0.1,0,0.1v4.8h-2.5V155c0-1.4-1.1-2.5-2.5-2.5h-4.8v-4.8
			c0-1.4-1.1-2.5-2.5-2.5h-4.8v-4.8c0-1.4-1.1-2.5-2.5-2.5h-4.8v-4.8c0-1.4-1.1-2.5-2.5-2.5h-4.8v-4.8c0-1.4-1.1-2.5-2.5-2.5h-4.8
			v-2.5h4.8c1.4,0,2.5-1.1,2.5-2.5v-4.8h4.8c1.4,0,2.5-1.1,2.5-2.5v-4.8h4.8c1.4,0,2.5-1.1,2.5-2.5v-4.8h4.8c1.4,0,2.5-1.1,2.5-2.5
			v-7c0,0,0-0.1,0-0.1c0,0,0-0.1,0-0.1v-7c0,0,0-0.1,0-0.1c0,0,0-0.1,0-0.1v-7c0,0,0-0.1,0-0.1c0,0,0-0.1,0-0.1v-7c0,0,0-0.1,0-0.1
			c0,0,0-0.1,0-0.1v-7c0,0,0-0.1,0-0.1c0,0,0-0.1,0-0.1v-7c0,0,0-0.1,0-0.1c0,0,0-0.1,0-0.1v-7c0,0,0-0.1,0-0.1c0,0,0-0.1,0-0.1v-7
			c0,0,0-0.1,0-0.1c0,0,0-0.1,0-0.1v-7c0,0,0-0.1,0-0.1c0,0,0-0.1,0-0.1v-4.8h4.8c1.4,0,2.5-1.1,2.5-2.5v-7c0,0,0-0.1,0-0.1
			c0,0,0-0.1,0-0.1V12h4.8c1.4,0,2.5-1.1,2.5-2.5v-7c0,0,0-0.1,0-0.1c0,0,0-0.1,0-0.1v-7c0-1.4-1.1-2.5-2.5-2.5h-7
			c-1.4,0-2.5,1.1-2.5,2.5V0h-4.8c-1.4,0-2.5,1.1-2.5,2.5v7c0,0,0,0.1,0,0.1c0,0,0,0.1,0,0.1v4.8h-4.8c-1.4,0-2.5,1.1-2.5,2.5v7
			c0,0,0,0.1,0,0.1c0,0,0,0.1,0,0.1v7c0,0,0,0.1,0,0.1c0,0,0,0.1,0,0.1v7c0,0,0,0.1,0,0.1c0,0,0,0.1,0,0.1v7c0,0,0,0.1,0,0.1
			c0,0,0,0.1,0,0.1v7c0,0,0,0.1,0,0.1c0,0,0,0.1,0,0.1v7c0,0,0,0.1,0,0.1c0,0,0,0.1,0,0.1v7c0,0,0,0.1,0,0.1c0,0,0,0.1,0,0.1v7
			c0,0,0,0.1,0,0.1c0,0,0,0.1,0,0.1v7c0,0,0,0.1,0,0.1c0,0,0,0.1,0,0.1v4.8h-4.8c-1.4,0-2.5,1.1-2.5,2.5v4.8h-4.8c0,0-0.1,0-0.1,0
			c0,0-0.1,0-0.1,0h-7c-1.4,0-2.5,1.1-2.5,2.5v4.8h-4.8c0,0-0.1,0-0.1,0c0,0-0.1,0-0.1,0h-4.8v-4.8c0,0,0-0.1,0-0.1c0,0,0-0.1,0-0.1
			v-4.8h4.8c1.4,0,2.5-1.1,2.5-2.5v-7c0-1.4-1.1-2.5-2.5-2.5h-4.8v-4.8c0-1.4-1.1-2.5-2.5-2.5h-4.8v-4.8c0,0,0-0.1,0-0.1
			c0,0,0-0.1,0-0.1v-7c0,0,0-0.1,0-0.1c0,0,0-0.1,0-0.1v-7c0-1.4-1.1-2.5-2.5-2.5h-4.8v-4.8c0,0,0-0.1,0-0.1c0,0,0-0.1,0-0.1v-7
			c0-1.4-1.1-2.5-2.5-2.5h-7c-1.4,0-2.5,1.1-2.5,2.5v7c0,0,0,0.1,0,0.1c0,0,0,0.1,0,0.1v7c0,0,0,0.1,0,0.1c0,0,0,0.1,0,0.1v7
			c0,0,0,0.1,0,0.1c0,0,0,0.1,0,0.1v7c0,1.4,1.1,2.5,2.5,2.5h4.8v4.8c0,1.4,1.1,2.5,2.5,2.5h4.8v4.8c0,0,0,0.1,0,0.1
			c0,0,0,0.1,0,0.1v7c0,0,0,0.1,0,0.1c0,0,0,0.1,0,0.1v7c0,0,0,0.1,0,0.1c0,0,0,0.1,0,0.1v4.8h-2.5v-4.8c0,0,0-0.1,0-0.1
			c0,0,0-0.1,0-0.1v-7c0-1.4-1.1-2.5-2.5-2.5h-4.8v-4.8c0,0,0-0.1,0-0.1c0,0,0-0.1,0-0.1v-7c0-1.4-1.1-2.5-2.5-2.5h-4.8v-4.8
			c0-1.4-1.1-2.5-2.5-2.5h-4.8v-4.8c0-1.4-1.1-2.5-2.5-2.5h-4.8v-4.8c0,0,0-0.1,0-0.1c0,0,0-0.1,0-0.1v-7c0,0,0-0.1,0-0.1
			c0,0,0-0.1,0-0.1v-7c0,0,0-0.1,0-0.1c0,0,0-0.1,0-0.1v-7c0-1.4-1.1-2.5-2.5-2.5h-7c0,0-0.1,0-0.1,0c0,0-0.1,0-0.1,0h-7
			c-1.4,0-2.5,1.1-2.5,2.5v7c0,0,0,0.1,0,0.1c0,0,0,0.1,0,0.1v7c0,0,0,0.1,0,0.1c0,0,0,0.1,0,0.1v7c0,1.4,1.1,2.5,2.5,2.5h4.8v4.8
			c0,0,0,0.1,0,0.1c0,0,0,0.1,0,0.1v7c0,0,0,0.1,0,0.1c0,0,0,0.1,0,0.1v7c0,0,0,0.1,0,0.1c0,0,0,0.1,0,0.1v7c0,0,0,0.1,0,0.1
			c0,0,0,0.1,0,0.1v7c0,0,0,0.1,0,0.1c0,0,0,0.1,0,0.1v4.8h-4.8c-1.4,0-2.5,1.1-2.5,2.5v7c0,0,0,0.1,0,0.1c0,0,0,0.1,0,0.1v7
			c0,0,0,0.1,0,0.1c0,0,0,0.1,0,0.1v7c0,0,0,0.1,0,0.1c0,0,0,0.1,0,0.1v7c0,0,0,0.1,0,0.1c0,0,0,0.1,0,0.1v7c0,1.4,1.1,2.5,2.5,2.5
			h4.8v4.8c0,0,0,0.1,0,0.1c0,0,0,0.1,0,0.1v4.8h-4.8c-1.4,0-2.5,1.1-2.5,2.5v7c0,0,0,0.1,0,0.1c0,0,0,0.1,0,0.1v7c0,0,0,0.1,0,0.1
			c0,0,0,0.1,0,0.1v4.8H41v-4.8c0,0,0-0.1,0-0.1c0,0,0-0.1,0-0.1v-7c0-1.4-1.1-2.5-2.5-2.5h-4.8v-4.8c0,0,0-0.1,0-0.1
			c0,0,0-0.1,0-0.1v-7c0,0,0-0.1,0-0.1c0,0,0-0.1,0-0.1v-7c0-1.4-1.1-2.5-2.5-2.5h-7c-1.4,0-2.5,1.1-2.5,2.5v7c0,0,0,0.1,0,0.1
			c0,0,0,0.1,0,0.1v7c0,0,0,0.1,0,0.1c0,0,0,0.1,0,0.1v7c0,0,0,0.1,0,0.1c0,0,0,0.1,0,0.1v7c0,0,0,0.1,0,0.1c0,0,0,0.1,0,0.1v7
			c0,0,0,0.1,0,0.1c0,0,0,0.1,0,0.1v7c0,0,0,0.1,0,0.1c0,0,0,0.1,0,0.1v7c0,0,0,0.1,0,0.1c0,0,0,0.1,0,0.1v4.8H17
			c-1.4,0-2.5,1.1-2.5,2.5v7c0,0,0,0.1,0,0.1c0,0,0,0.1,0,0.1v7c0,0,0,0.1,0,0.1c0,0,0,0.1,0,0.1v7c0,0,0,0.1,0,0.1c0,0,0,0.1,0,0.1
			v7c0,0,0,0.1,0,0.1c0,0,0,0.1,0,0.1v7c0,0,0,0.1,0,0.1c0,0,0,0.1,0,0.1v4.8H9.8c-1.4,0-2.5,1.1-2.5,2.5v7c0,0,0,0.1,0,0.1
			c0,0,0,0.1,0,0.1v7c0,0,0,0.1,0,0.1c0,0,0,0.1,0,0.1v4.8H2.5c-1.4,0-2.5,1.1-2.5,2.5v7c0,0,0,0.1,0,0.1c0,0,0,0.1,0,0.1v7
			c0,0,0,0.1,0,0.1c0,0,0,0.1,0,0.1v7c0,1.4,1.1,2.5,2.5,2.5h4.8v4.8c0,0,0,0.1,0,0.1c0,0,0,0.1,0,0.1v7c0,0,0,0.1,0,0.1
			c0,0,0,0.1,0,0.1v7c0,0,0,0.1,0,0.1c0,0,0,0.1,0,0.1v7c0,0,0,0.1,0,0.1c0,0,0,0.1,0,0.1v7c0,1.4,1.1,2.5,2.5,2.5h4.8v4.8
			c0,1.4,1.1,2.5,2.5,2.5h4.8v4.8c0,0,0,0.1,0,0.1c0,0,0,0.1,0,0.1v7c0,1.4,1.1,2.5,2.5,2.5H29v4.8c0,1.4,1.1,2.5,2.5,2.5h4.8v4.8
			c0,1.4,1.1,2.5,2.5,2.5h4.8v4.8c0,1.4,1.1,2.5,2.5,2.5h4.8v4.8c0,1.4,1.1,2.5,2.5,2.5h7c0,0,0.1,0,0.1,0c0,0,0.1,0,0.1,0h4.8v4.8
			c0,1.4,1.1,2.5,2.5,2.5h7c0,0,0.1,0,0.1,0c0,0,0.1,0,0.1,0h4.8v4.8c0,1.4,1.1,2.5,2.5,2.5h7c0,0,0.1,0,0.1,0c0,0,0.1,0,0.1,0h7
			c0,0,0.1,0,0.1,0c0,0,0.1,0,0.1,0h4.8v4.8c0,1.4,1.1,2.5,2.5,2.5h7c0,0,0.1,0,0.1,0c0,0,0.1,0,0.1,0h7c0,0,0.1,0,0.1,0
			c0,0,0.1,0,0.1,0h7c0,0,0.1,0,0.1,0c0,0,0.1,0,0.1,0h7c0,0,0.1,0,0.1,0c0,0,0.1,0,0.1,0h7c0,0,0.1,0,0.1,0c0,0,0.1,0,0.1,0h7
			c1.4,0,2.5-1.1,2.5-2.5v-4.8h4.8c0,0,0.1,0,0.1,0c0,0,0.1,0,0.1,0h7c0,0,0.1,0,0.1,0c0,0,0.1,0,0.1,0h7c1.4,0,2.5-1.1,2.5-2.5V375
			h4.8c0,0,0.1,0,0.1,0c0,0,0.1,0,0.1,0h7c1.4,0,2.5-1.1,2.5-2.5v-4.8h4.8c0,0,0.1,0,0.1,0c0,0,0.1,0,0.1,0h7c1.4,0,2.5-1.1,2.5-2.5
			v-4.8h4.8c1.4,0,2.5-1.1,2.5-2.5v-4.8h4.8c1.4,0,2.5-1.1,2.5-2.5V346h4.8c1.4,0,2.5-1.1,2.5-2.5v-7c0,0,0-0.1,0-0.1
			c0,0,0-0.1,0-0.1v-4.8h4.8c1.4,0,2.5-1.1,2.5-2.5v-7c0,0,0-0.1,0-0.1c0,0,0-0.1,0-0.1v-7c0,0,0-0.1,0-0.1c0,0,0-0.1,0-0.1v-4.8
			h4.8c1.4,0,2.5-1.1,2.5-2.5v-7c0,0,0-0.1,0-0.1c0,0,0-0.1,0-0.1v-7c0,0,0-0.1,0-0.1c0,0,0-0.1,0-0.1v-7c0,0,0-0.1,0-0.1
			c0,0,0-0.1,0-0.1v-7c0,0,0-0.1,0-0.1c0,0,0-0.1,0-0.1v-7c0,0,0-0.1,0-0.1c0,0,0-0.1,0-0.1v-7c0,0,0-0.1,0-0.1c0,0,0-0.1,0-0.1v-7
			c0,0,0-0.1,0-0.1c0,0,0-0.1,0-0.1V249.3z"/>
		<path class="st0" d="M118.7,77.3h7c1.4,0,2.5-1.1,2.5-2.5v-7c0-1.4-1.1-2.5-2.5-2.5h-7c-1.4,0-2.5,1.1-2.5,2.5v7
			C116.2,76.2,117.3,77.3,118.7,77.3z"/>
		<path class="st0" d="M82.4,19.3h7c0,0,0.1,0,0.1,0c0,0,0.1,0,0.1,0h7c1.4,0,2.5-1.1,2.5-2.5v-7c0,0,0-0.1,0-0.1c0,0,0-0.1,0-0.1
			v-7C99.1,1.1,98,0,96.6,0h-7c-1.4,0-2.5,1.1-2.5,2.5v4.8h-4.8c-1.4,0-2.5,1.1-2.5,2.5v7C79.9,18.1,81,19.3,82.4,19.3z"/>
		<path class="st0" d="M38.8,77.3h7c1.4,0,2.5-1.1,2.5-2.5v-7c0-1.4-1.1-2.5-2.5-2.5h-7c-1.4,0-2.5,1.1-2.5,2.5v7
			C36.3,76.2,37.4,77.3,38.8,77.3z"/>
		<path class="st0" d="M31.5,120.9h7c1.4,0,2.5-1.1,2.5-2.5v-7c0-1.4-1.1-2.5-2.5-2.5h-7c-1.4,0-2.5,1.1-2.5,2.5v7
			C29,119.8,30.2,120.9,31.5,120.9z"/>
	</g>
</g>
<g id="Слой_1" xmlns:ev="http://www.w3.org/2001/xml-events">
	<path class="st1" d="M155-4.9h7v7h-7V-4.9z M89.6,2.4h7v7h-7V2.4z M147.7,2.4h7v7h-7V2.4z M155,2.4h7v7h-7V2.4z M82.4,9.6h7v7h-7
		V9.6z M89.6,9.6h7v7h-7V9.6z M147.7,9.6h7v7h-7V9.6z M140.4,16.9h7v7h-7V16.9z M147.7,16.9h7v7h-7V16.9z M140.4,24.2h7v7h-7V24.2z
		 M46.1,31.4h7v7h-7V31.4z M53.3,31.4h7v7h-7V31.4z M140.4,31.4h7v7h-7V31.4z M46.1,38.7h7v7h-7V38.7z M53.3,38.7h7v7h-7V38.7z
		 M82.4,38.7h7v7h-7V38.7z M140.4,38.7h7v7h-7V38.7z M155,38.7h7v7h-7V38.7z M162.2,38.7h7v7h-7V38.7z M46.1,45.9h7v7h-7V45.9z
		 M53.3,45.9h7v7h-7V45.9z M82.4,45.9h7v7h-7V45.9z M140.4,45.9h7v7h-7V45.9z M162.2,45.9h7v7h-7V45.9z M198.5,45.9h7v7h-7V45.9z
		 M53.3,53.2h7v7h-7V53.2z M82.4,53.2h7v7h-7V53.2z M89.6,53.2h7v7h-7V53.2z M140.4,53.2h7v7h-7V53.2z M162.2,53.2h7v7h-7V53.2z
		 M169.5,53.2h7v7h-7V53.2z M198.5,53.2h7v7h-7V53.2z M53.3,60.5h7v7h-7V60.5z M60.6,60.5h7v7h-7V60.5z M82.4,60.5h7v7h-7V60.5z
		 M89.6,60.5h7v7h-7V60.5z M140.4,60.5h7v7h-7V60.5z M169.5,60.5h7v7h-7V60.5z M191.3,60.5h7v7h-7V60.5z M198.5,60.5h7v7h-7V60.5z
		 M38.8,67.7h7v7h-7V67.7z M53.3,67.7h7v7h-7V67.7z M60.6,67.7h7v7h-7V67.7z M67.8,67.7h7v7h-7V67.7z M89.6,67.7h7v7h-7V67.7z
		 M118.7,67.7h7v7h-7V67.7z M140.4,67.7h7v7h-7V67.7z M169.5,67.7h7v7h-7V67.7z M191.3,67.7h7v7h-7V67.7z M53.3,75h7v7h-7V75z
		 M67.8,75h7v7h-7V75z M75.1,75h7v7h-7V75z M96.9,75h7v7h-7V75z M140.4,75h7v7h-7V75z M169.5,75h7v7h-7V75z M176.7,75h7v7h-7V75z
		 M191.3,75h7v7h-7V75z M198.5,75h7v7h-7V75z M53.3,82.2h7v7h-7V82.2z M75.1,82.2h7v7h-7V82.2z M96.9,82.2h7v7h-7V82.2z M104.1,82.2
		h7v7h-7V82.2z M140.4,82.2h7v7h-7V82.2z M162.2,82.2h7v7h-7V82.2z M169.5,82.2h7v7h-7V82.2z M198.5,82.2h7v7h-7V82.2z M53.3,89.5h7
		v7h-7V89.5z M75.1,89.5h7v7h-7V89.5z M82.4,89.5h7v7h-7V89.5z M96.9,89.5h7v7h-7V89.5z M133.2,89.5h7v7h-7V89.5z M140.4,89.5h7v7
		h-7V89.5z M162.2,89.5h7v7h-7V89.5z M169.5,89.5h7v7h-7V89.5z M198.5,89.5h7v7h-7V89.5z M46.1,96.8h7v7h-7V96.8z M67.8,96.8h7v7h-7
		V96.8z M82.4,96.8h7v7h-7V96.8z M96.9,96.8h7v7h-7V96.8z M118.7,96.8h7v7h-7V96.8z M125.9,96.8h7v7h-7V96.8z M133.2,96.8h7v7h-7
		V96.8z M162.2,96.8h7v7h-7V96.8z M198.5,96.8h7v7h-7V96.8z M46.1,104h7v7h-7V104z M67.8,104h7v7h-7V104z M82.4,104h7v7h-7V104z
		 M89.6,104h7v7h-7V104z M104.1,104h7v7h-7V104z M111.4,104h7v7h-7V104z M118.7,104h7v7h-7V104z M125.9,104h7v7h-7V104z M155,104h7
		v7h-7V104z M162.2,104h7v7h-7V104z M198.5,104h7v7h-7V104z M31.5,111.3h7v7h-7V111.3z M46.1,111.3h7v7h-7V111.3z M67.8,111.3h7v7
		h-7V111.3z M82.4,111.3h7v7h-7V111.3z M89.6,111.3h7v7h-7V111.3z M104.1,111.3h7v7h-7V111.3z M111.4,111.3h7v7h-7V111.3z
		 M118.7,111.3h7v7h-7V111.3z M155,111.3h7v7h-7V111.3z M162.2,111.3h7v7h-7V111.3z M191.3,111.3h7v7h-7V111.3z M198.5,111.3h7v7h-7
		V111.3z M46.1,118.5h7v7h-7V118.5z M53.3,118.5h7v7h-7V118.5z M67.8,118.5h7v7h-7V118.5z M89.6,118.5h7v7h-7V118.5z M96.9,118.5h7
		v7h-7V118.5z M104.1,118.5h7v7h-7V118.5z M111.4,118.5h7v7h-7V118.5z M155,118.5h7v7h-7V118.5z M162.2,118.5h7v7h-7V118.5z
		 M191.3,118.5h7v7h-7V118.5z M46.1,125.8h7v7h-7V125.8z M53.3,125.8h7v7h-7V125.8z M67.8,125.8h7v7h-7V125.8z M75.1,125.8h7v7h-7
		V125.8z M82.4,125.8h7v7h-7V125.8z M89.6,125.8h7v7h-7V125.8z M96.9,125.8h7v7h-7V125.8z M111.4,125.8h7v7h-7V125.8z M118.7,125.8
		h7v7h-7V125.8z M155,125.8h7v7h-7V125.8z M162.2,125.8h7v7h-7V125.8z M184,125.8h7v7h-7V125.8z M191.3,125.8h7v7h-7V125.8z
		 M24.3,133.1h7v7h-7V133.1z M53.3,133.1h7v7h-7V133.1z M60.6,133.1h7v7h-7V133.1z M67.8,133.1h7v7h-7V133.1z M75.1,133.1h7v7h-7
		V133.1z M89.6,133.1h7v7h-7V133.1z M96.9,133.1h7v7h-7V133.1z M111.4,133.1h7v7h-7V133.1z M118.7,133.1h7v7h-7V133.1z M125.9,133.1
		h7v7h-7V133.1z M162.2,133.1h7v7h-7V133.1z M184,133.1h7v7h-7V133.1z M24.3,140.3h7v7h-7V140.3z M53.3,140.3h7v7h-7V140.3z
		 M60.6,140.3h7v7h-7V140.3z M75.1,140.3h7v7h-7V140.3z M96.9,140.3h7v7h-7V140.3z M104.1,140.3h7v7h-7V140.3z M118.7,140.3h7v7h-7
		V140.3z M125.9,140.3h7v7h-7V140.3z M133.2,140.3h7v7h-7V140.3z M162.2,140.3h7v7h-7V140.3z M169.5,140.3h7v7h-7V140.3z M184,140.3
		h7v7h-7V140.3z M191.3,140.3h7v7h-7V140.3z M24.3,147.6h7v7h-7V147.6z M46.1,147.6h7v7h-7V147.6z M53.3,147.6h7v7h-7V147.6z
		 M67.8,147.6h7v7h-7V147.6z M75.1,147.6h7v7h-7V147.6z M96.9,147.6h7v7h-7V147.6z M104.1,147.6h7v7h-7V147.6z M111.4,147.6h7v7h-7
		V147.6z M133.2,147.6h7v7h-7V147.6z M140.4,147.6h7v7h-7V147.6z M162.2,147.6h7v7h-7V147.6z M169.5,147.6h7v7h-7V147.6z
		 M191.3,147.6h7v7h-7V147.6z M198.5,147.6h7v7h-7V147.6z M24.3,154.8h7v7h-7V154.8z M31.5,154.8h7v7h-7V154.8z M46.1,154.8h7v7h-7
		V154.8z M53.3,154.8h7v7h-7V154.8z M67.8,154.8h7v7h-7V154.8z M75.1,154.8h7v7h-7V154.8z M96.9,154.8h7v7h-7V154.8z M104.1,154.8h7
		v7h-7V154.8z M111.4,154.8h7v7h-7V154.8z M118.7,154.8h7v7h-7V154.8z M133.2,154.8h7v7h-7V154.8z M140.4,154.8h7v7h-7V154.8z
		 M147.7,154.8h7v7h-7V154.8z M162.2,154.8h7v7h-7V154.8z M169.5,154.8h7v7h-7V154.8z M191.3,154.8h7v7h-7V154.8z M24.3,162.1h7v7
		h-7V162.1z M31.5,162.1h7v7h-7V162.1z M46.1,162.1h7v7h-7V162.1z M67.8,162.1h7v7h-7V162.1z M75.1,162.1h7v7h-7V162.1z M89.6,162.1
		h7v7h-7V162.1z M96.9,162.1h7v7h-7V162.1z M104.1,162.1h7v7h-7V162.1z M111.4,162.1h7v7h-7V162.1z M118.7,162.1h7v7h-7V162.1z
		 M125.9,162.1h7v7h-7V162.1z M133.2,162.1h7v7h-7V162.1z M140.4,162.1h7v7h-7V162.1z M147.7,162.1h7v7h-7V162.1z M155,162.1h7v7h-7
		V162.1z M162.2,162.1h7v7h-7V162.1z M169.5,162.1h7v7h-7V162.1z M176.7,162.1h7v7h-7V162.1z M191.3,162.1h7v7h-7V162.1z
		 M198.5,162.1h7v7h-7V162.1z M24.3,169.4h7v7h-7V169.4z M31.5,169.4h7v7h-7V169.4z M38.8,169.4h7v7h-7V169.4z M46.1,169.4h7v7h-7
		V169.4z M67.8,169.4h7v7h-7V169.4z M75.1,169.4h7v7h-7V169.4z M82.4,169.4h7v7h-7V169.4z M89.6,169.4h7v7h-7V169.4z M96.9,169.4h7
		v7h-7V169.4z M118.7,169.4h7v7h-7V169.4z M133.2,169.4h7v7h-7V169.4z M140.4,169.4h7v7h-7V169.4z M147.7,169.4h7v7h-7V169.4z
		 M155,169.4h7v7h-7V169.4z M162.2,169.4h7v7h-7V169.4z M169.5,169.4h7v7h-7V169.4z M176.7,169.4h7v7h-7V169.4z M184,169.4h7v7h-7
		V169.4z M198.5,169.4h7v7h-7V169.4z M24.3,176.6h7v7h-7V176.6z M38.8,176.6h7v7h-7V176.6z M46.1,176.6h7v7h-7V176.6z M53.3,176.6h7
		v7h-7V176.6z M60.6,176.6h7v7h-7V176.6z M67.8,176.6h7v7h-7V176.6z M75.1,176.6h7v7h-7V176.6z M82.4,176.6h7v7h-7V176.6z
		 M89.6,176.6h7v7h-7V176.6z M118.7,176.6h7v7h-7V176.6z M155,176.6h7v7h-7V176.6z M162.2,176.6h7v7h-7V176.6z M169.5,176.6h7v7h-7
		V176.6z M176.7,176.6h7v7h-7V176.6z M184,176.6h7v7h-7V176.6z M191.3,176.6h7v7h-7V176.6z M198.5,176.6h7v7h-7V176.6z M205.8,176.6
		h7v7h-7V176.6z M24.3,183.9h7v7h-7V183.9z M38.8,183.9h7v7h-7V183.9z M46.1,183.9h7v7h-7V183.9z M53.3,183.9h7v7h-7V183.9z
		 M60.6,183.9h7v7h-7V183.9z M67.8,183.9h7v7h-7V183.9z M75.1,183.9h7v7h-7V183.9z M82.4,183.9h7v7h-7V183.9z M111.4,183.9h7v7h-7
		V183.9z M118.7,183.9h7v7h-7V183.9z M169.5,183.9h7v7h-7V183.9z M176.7,183.9h7v7h-7V183.9z M184,183.9h7v7h-7V183.9z M191.3,183.9
		h7v7h-7V183.9z M205.8,183.9h7v7h-7V183.9z M17,191.1h7v7h-7V191.1z M24.3,191.1h7v7h-7V191.1z M38.8,191.1h7v7h-7V191.1z
		 M46.1,191.1h7v7h-7V191.1z M53.3,191.1h7v7h-7V191.1z M75.1,191.1h7v7h-7V191.1z M111.4,191.1h7v7h-7V191.1z M184,191.1h7v7h-7
		V191.1z M191.3,191.1h7v7h-7V191.1z M198.5,191.1h7v7h-7V191.1z M205.8,191.1h7v7h-7V191.1z M213,191.1h7v7h-7V191.1z M17,198.4h7
		v7h-7V198.4z M31.5,198.4h7v7h-7V198.4z M38.8,198.4h7v7h-7V198.4z M53.3,198.4h7v7h-7V198.4z M67.8,198.4h7v7h-7V198.4z
		 M75.1,198.4h7v7h-7V198.4z M111.4,198.4h7v7h-7V198.4z M184,198.4h7v7h-7V198.4z M191.3,198.4h7v7h-7V198.4z M198.5,198.4h7v7h-7
		V198.4z M205.8,198.4h7v7h-7V198.4z M213,198.4h7v7h-7V198.4z M17,205.7h7v7h-7V205.7z M24.3,205.7h7v7h-7V205.7z M31.5,205.7h7v7
		h-7V205.7z M67.8,205.7h7v7h-7V205.7z M111.4,205.7h7v7h-7V205.7z M176.7,205.7h7v7h-7V205.7z M184,205.7h7v7h-7V205.7z
		 M198.5,205.7h7v7h-7V205.7z M205.8,205.7h7v7h-7V205.7z M213,205.7h7v7h-7V205.7z M17,212.9h7v7h-7V212.9z M24.3,212.9h7v7h-7
		V212.9z M67.8,212.9h7v7h-7V212.9z M176.7,212.9h7v7h-7V212.9z M205.8,212.9h7v7h-7V212.9z M213,212.9h7v7h-7V212.9z M17,220.2h7v7
		h-7V220.2z M60.6,220.2h7v7h-7V220.2z M67.8,220.2h7v7h-7V220.2z M176.7,220.2h7v7h-7V220.2z M205.8,220.2h7v7h-7V220.2z
		 M213,220.2h7v7h-7V220.2z M17,227.4h7v7h-7V227.4z M38.8,227.4h7v7h-7V227.4z M60.6,227.4h7v7h-7V227.4z M176.7,227.4h7v7h-7
		V227.4z M213,227.4h7v7h-7V227.4z M220.3,227.4h7v7h-7V227.4z M9.8,234.7h7v7h-7V234.7z M17,234.7h7v7h-7V234.7z M60.6,234.7h7v7
		h-7V234.7z M176.7,234.7h7v7h-7V234.7z M213,234.7h7v7h-7V234.7z M220.3,234.7h7v7h-7V234.7z M9.8,242h7v7h-7V242z M176.7,242h7v7
		h-7V242z M213,242h7v7h-7V242z M220.3,242h7v7h-7V242z M9.8,249.2h7v7h-7V249.2z M31.5,249.2h7v7h-7V249.2z M176.7,249.2h7v7h-7
		V249.2z M220.3,249.2h7v7h-7V249.2z M227.6,249.2h7v7h-7V249.2z M2.5,256.5h7v7h-7V256.5z M9.8,256.5h7v7h-7V256.5z M205.8,256.5h7
		v7h-7V256.5z M220.3,256.5h7v7h-7V256.5z M227.6,256.5h7v7h-7V256.5z M2.5,263.7h7v7h-7V263.7z M9.8,263.7h7v7h-7V263.7z
		 M205.8,263.7h7v7h-7V263.7z M220.3,263.7h7v7h-7V263.7z M227.6,263.7h7v7h-7V263.7z M2.5,271h7v7h-7V271z M9.8,271h7v7h-7V271z
		 M205.8,271h7v7h-7V271z M227.6,271h7v7h-7V271z M9.8,278.3h7v7h-7V278.3z M220.3,278.3h7v7h-7V278.3z M227.6,278.3h7v7h-7V278.3z
		 M9.8,285.5h7v7h-7V285.5z M198.5,285.5h7v7h-7V285.5z M220.3,285.5h7v7h-7V285.5z M227.6,285.5h7v7h-7V285.5z M9.8,292.8h7v7h-7
		V292.8z M198.5,292.8h7v7h-7V292.8z M227.6,292.8h7v7h-7V292.8z M9.8,300h7v7h-7V300z M220.3,300h7v7h-7V300z M227.6,300h7v7h-7
		V300z M9.8,307.3h7v7h-7V307.3z M17,307.3h7v7h-7V307.3z M31.5,307.3h7v7h-7V307.3z M191.3,307.3h7v7h-7V307.3z M220.3,307.3h7v7
		h-7V307.3z M17,314.6h7v7h-7V314.6z M60.6,314.6h7v7h-7V314.6z M67.8,314.6h7v7h-7V314.6z M75.1,314.6h7v7h-7V314.6z M82.4,314.6h7
		v7h-7V314.6z M89.6,314.6h7v7h-7V314.6z M96.9,314.6h7v7h-7V314.6z M213,314.6h7v7h-7V314.6z M220.3,314.6h7v7h-7V314.6z
		 M24.3,321.8h7v7h-7V321.8z M53.3,321.8h7v7h-7V321.8z M60.6,321.8h7v7h-7V321.8z M67.8,321.8h7v7h-7V321.8z M75.1,321.8h7v7h-7
		V321.8z M82.4,321.8h7v7h-7V321.8z M89.6,321.8h7v7h-7V321.8z M96.9,321.8h7v7h-7V321.8z M104.1,321.8h7v7h-7V321.8z M111.4,321.8
		h7v7h-7V321.8z M205.8,321.8h7v7h-7V321.8z M213,321.8h7v7h-7V321.8z M220.3,321.8h7v7h-7V321.8z M24.3,329.1h7v7h-7V329.1z
		 M31.5,329.1h7v7h-7V329.1z M46.1,329.1h7v7h-7V329.1z M53.3,329.1h7v7h-7V329.1z M104.1,329.1h7v7h-7V329.1z M111.4,329.1h7v7h-7
		V329.1z M118.7,329.1h7v7h-7V329.1z M198.5,329.1h7v7h-7V329.1z M205.8,329.1h7v7h-7V329.1z M213,329.1h7v7h-7V329.1z M31.5,336.3
		h7v7h-7V336.3z M38.8,336.3h7v7h-7V336.3z M46.1,336.3h7v7h-7V336.3z M82.4,336.3h7v7h-7V336.3z M89.6,336.3h7v7h-7V336.3z
		 M118.7,336.3h7v7h-7V336.3z M125.9,336.3h7v7h-7V336.3z M205.8,336.3h7v7h-7V336.3z M213,336.3h7v7h-7V336.3z M38.8,343.6h7v7h-7
		V343.6z M46.1,343.6h7v7h-7V343.6z M75.1,343.6h7v7h-7V343.6z M82.4,343.6h7v7h-7V343.6z M89.6,343.6h7v7h-7V343.6z M96.9,343.6h7
		v7h-7V343.6z M104.1,343.6h7v7h-7V343.6z M125.9,343.6h7v7h-7V343.6z M133.2,343.6h7v7h-7V343.6z M198.5,343.6h7v7h-7V343.6z
		 M205.8,343.6h7v7h-7V343.6z M46.1,350.9h7v7h-7V350.9z M53.3,350.9h7v7h-7V350.9z M67.8,350.9h7v7h-7V350.9z M75.1,350.9h7v7h-7
		V350.9z M82.4,350.9h7v7h-7V350.9z M89.6,350.9h7v7h-7V350.9z M96.9,350.9h7v7h-7V350.9z M104.1,350.9h7v7h-7V350.9z M133.2,350.9
		h7v7h-7V350.9z M140.4,350.9h7v7h-7V350.9z M191.3,350.9h7v7h-7V350.9z M198.5,350.9h7v7h-7V350.9z M53.3,358.1h7v7h-7V358.1z
		 M60.6,358.1h7v7h-7V358.1z M67.8,358.1h7v7h-7V358.1z M75.1,358.1h7v7h-7V358.1z M82.4,358.1h7v7h-7V358.1z M89.6,358.1h7v7h-7
		V358.1z M96.9,358.1h7v7h-7V358.1z M104.1,358.1h7v7h-7V358.1z M133.2,358.1h7v7h-7V358.1z M140.4,358.1h7v7h-7V358.1z M184,358.1
		h7v7h-7V358.1z M191.3,358.1h7v7h-7V358.1z M67.8,365.4h7v7h-7V365.4z M75.1,365.4h7v7h-7V365.4z M82.4,365.4h7v7h-7V365.4z
		 M89.6,365.4h7v7h-7V365.4z M96.9,365.4h7v7h-7V365.4z M133.2,365.4h7v7h-7V365.4z M140.4,365.4h7v7h-7V365.4z M169.5,365.4h7v7h-7
		V365.4z M176.7,365.4h7v7h-7V365.4z M82.4,372.6h7v7h-7V372.6z M89.6,372.6h7v7h-7V372.6z M96.9,372.6h7v7h-7V372.6z M104.1,372.6
		h7v7h-7V372.6z M118.7,372.6h7v7h-7V372.6z M125.9,372.6h7v7h-7V372.6z M133.2,372.6h7v7h-7V372.6z M140.4,372.6h7v7h-7V372.6z
		 M147.7,372.6h7v7h-7V372.6z M155,372.6h7v7h-7V372.6z M162.2,372.6h7v7h-7V372.6z M104.1,379.9h7v7h-7V379.9z M111.4,379.9h7v7h-7
		V379.9z M118.7,379.9h7v7h-7V379.9z M125.9,379.9h7v7h-7V379.9z M133.2,379.9h7v7h-7V379.9z M140.4,379.9h7v7h-7V379.9z"/>
</g>
</svg>
