<?xml version="1.0" encoding="utf-8"?>
<!-- Generator: Adobe Illustrator 27.3.1, SVG Export Plug-In . SVG Version: 6.00 Build 0)  -->
<svg version="1.1" xmlns="http://www.w3.org/2000/svg" xmlns:xlink="http://www.w3.org/1999/xlink" x="0px" y="0px"
	 viewBox="0 0 237.1 389.5" style="enable-background:new 0 0 237.1 389.5;" xml:space="preserve">
<style type="text/css">
	.st0{fill:#FBE7B4;}
	.st1{fill:#1E0E01;}
</style>
<g id="Слой_1" xmlns:ev="http://www.w3.org/2001/xml-events">
	<g>
		<path class="st0" d="M237.1,234.8c0-1.4-1.1-2.5-2.5-2.5h-4.8v-4.8c0-1.4-1.1-2.5-2.5-2.5h-4.8v-4.8c0,0,0-0.1,0-0.1
			c0,0,0-0.1,0-0.1v-7c0,0,0-0.1,0-0.1c0,0,0-0.1,0-0.1v-7c0,0,0-0.1,0-0.1c0,0,0-0.1,0-0.1v-7c0,0,0-0.1,0-0.1c0,0,0-0.1,0-0.1v-7
			c0-1.4-1.1-2.5-2.5-2.5h-4.8V184c0,0,0-0.1,0-0.1c0,0,0-0.1,0-0.1v-7c0-1.4-1.1-2.5-2.5-2.5H208v-4.8c0,0,0-0.1,0-0.1
			c0,0,0-0.1,0-0.1v-7c0-1.4-1.1-2.5-2.5-2.5h-4.8V155c0,0,0-0.1,0-0.1c0,0,0-0.1,0-0.1v-7c0,0,0-0.1,0-0.1c0,0,0-0.1,0-0.1v-7
			c0-1.4-1.1-2.5-2.5-2.5h-4.8v-2.5h4.8c1.4,0,2.5-1.1,2.5-2.5v-7c0,0,0-0.1,0-0.1c0,0,0-0.1,0-0.1v-4.8h4.8c1.4,0,2.5-1.1,2.5-2.5
			v-7c0,0,0-0.1,0-0.1c0,0,0-0.1,0-0.1v-7c0,0,0-0.1,0-0.1c0,0,0-0.1,0-0.1v-7c0,0,0-0.1,0-0.1c0,0,0-0.1,0-0.1v-7c0,0,0-0.1,0-0.1
			c0,0,0-0.1,0-0.1v-7c0,0,0-0.1,0-0.1c0,0,0-0.1,0-0.1v-7c0-1.4-1.1-2.5-2.5-2.5h-4.8v-4.8c0-1.4-1.1-2.5-2.5-2.5h-7
			c-1.4,0-2.5,1.1-2.5,2.5v7c0,0,0,0.1,0,0.1c0,0,0,0.1,0,0.1v7c0,1.4,1.1,2.5,2.5,2.5h4.8v4.8c0,0,0,0.1,0,0.1c0,0,0,0.1,0,0.1v7
			c0,0,0,0.1,0,0.1c0,0,0,0.1,0,0.1v7c0,0,0,0.1,0,0.1c0,0,0,0.1,0,0.1v4.8h-4.8c-1.4,0-2.5,1.1-2.5,2.5v7c0,0,0,0.1,0,0.1
			c0,0,0,0.1,0,0.1v4.8H184c-1.4,0-2.5,1.1-2.5,2.5v7c0,0,0,0.1,0,0.1c0,0,0,0.1,0,0.1v7c0,0,0,0.1,0,0.1c0,0,0,0.1,0,0.1v7
			c0,1.4,1.1,2.5,2.5,2.5h4.8v4.8c0,0,0,0.1,0,0.1c0,0,0,0.1,0,0.1v7c0,0,0,0.1,0,0.1c0,0,0,0.1,0,0.1v7c0,1.4,1.1,2.5,2.5,2.5h4.8
			v4.8c0,0,0,0.1,0,0.1c0,0,0,0.1,0,0.1v4.8h-4.8c0,0-0.1,0-0.1,0c0,0-0.1,0-0.1,0h-4.8v-4.8c0,0,0-0.1,0-0.1c0,0,0-0.1,0-0.1v-7
			c0-1.4-1.1-2.5-2.5-2.5H179v-4.8c0-1.4-1.1-2.5-2.5-2.5h-4.8V155c0-1.4-1.1-2.5-2.5-2.5h-4.8v-2.5h4.8c1.4,0,2.5-1.1,2.5-2.5v-7
			c0-1.4-1.1-2.5-2.5-2.5h-7c0,0-0.1,0-0.1,0c0,0-0.1,0-0.1,0h-4.8v-4.8c0,0,0-0.1,0-0.1c0,0,0-0.1,0-0.1v-4.8h4.8
			c1.4,0,2.5-1.1,2.5-2.5v-4.8h4.8c1.4,0,2.5-1.1,2.5-2.5v-7c0,0,0-0.1,0-0.1c0,0,0-0.1,0-0.1v-4.8h4.8c1.4,0,2.5-1.1,2.5-2.5v-4.8
			h4.8c1.4,0,2.5-1.1,2.5-2.5v-7c0,0,0-0.1,0-0.1c0,0,0-0.1,0-0.1v-7c0,0,0-0.1,0-0.1c0,0,0-0.1,0-0.1v-7c0,0,0-0.1,0-0.1
			c0,0,0-0.1,0-0.1v-7c0-1.4-1.1-2.5-2.5-2.5H179v-4.8c0,0,0-0.1,0-0.1c0,0,0-0.1,0-0.1v-7c0,0,0-0.1,0-0.1c0,0,0-0.1,0-0.1v-7
			c0-1.4-1.1-2.5-2.5-2.5h-7c0,0-0.1,0-0.1,0c0,0-0.1,0-0.1,0h-7c-1.4,0-2.5,1.1-2.5,2.5v7c0,0,0,0.1,0,0.1c0,0,0,0.1,0,0.1v7
			c0,1.4,1.1,2.5,2.5,2.5h4.8v4.8c0,0,0,0.1,0,0.1c0,0,0,0.1,0,0.1v7c0,1.4,1.1,2.5,2.5,2.5h4.8v4.8c0,0,0,0.1,0,0.1
			c0,0,0,0.1,0,0.1v4.8h-4.8c-1.4,0-2.5,1.1-2.5,2.5v7c0,0,0,0.1,0,0.1c0,0,0,0.1,0,0.1v4.8h-4.8c-1.4,0-2.5,1.1-2.5,2.5v4.8H155
			c-1.4,0-2.5,1.1-2.5,2.5v4.8h-4.8c-1.4,0-2.5,1.1-2.5,2.5v7c0,0,0,0.1,0,0.1c0,0,0,0.1,0,0.1v7c0,0,0,0.1,0,0.1c0,0,0,0.1,0,0.1v7
			c0,0,0,0.1,0,0.1c0,0,0,0.1,0,0.1v4.8h-2.5v-4.8c0-1.4-1.1-2.5-2.5-2.5h-4.8v-4.8c0-1.4-1.1-2.5-2.5-2.5h-4.8v-4.8
			c0-1.4-1.1-2.5-2.5-2.5h-4.8v-2.5h4.8c1.4,0,2.5-1.1,2.5-2.5v-4.8h4.8c0,0,0.1,0,0.1,0c0,0,0.1,0,0.1,0h7c0,0,0.1,0,0.1,0
			c0,0,0.1,0,0.1,0h7c1.4,0,2.5-1.1,2.5-2.5v-4.8h4.8c1.4,0,2.5-1.1,2.5-2.5v-7c0,0,0-0.1,0-0.1c0,0,0-0.1,0-0.1v-7c0,0,0-0.1,0-0.1
			c0,0,0-0.1,0-0.1v-7c0,0,0-0.1,0-0.1c0,0,0-0.1,0-0.1v-7c0,0,0-0.1,0-0.1c0,0,0-0.1,0-0.1v-7c0-1.4-1.1-2.5-2.5-2.5h-4.8v-4.8
			c0-1.4-1.1-2.5-2.5-2.5h-4.8v-2.5h4.8c1.4,0,2.5-1.1,2.5-2.5v-7c0,0,0-0.1,0-0.1c0,0,0-0.1,0-0.1v-7c0,0,0-0.1,0-0.1
			c0,0,0-0.1,0-0.1v-7c0,0,0-0.1,0-0.1c0,0,0-0.1,0-0.1v-7c0,0,0-0.1,0-0.1c0,0,0-0.1,0-0.1v-7c0-1.4-1.1-2.5-2.5-2.5h-4.8V9.8
			c0-1.4-1.1-2.5-2.5-2.5h-4.8V2.5c0-1.4-1.1-2.5-2.5-2.5h-4.8v-4.8c0-1.4-1.1-2.5-2.5-2.5h-7c-1.4,0-2.5,1.1-2.5,2.5v7
			c0,1.4,1.1,2.5,2.5,2.5h4.8v4.8c0,0,0,0.1,0,0.1c0,0,0,0.1,0,0.1v7c0,1.4,1.1,2.5,2.5,2.5h4.8V24c0,1.4,1.1,2.5,2.5,2.5h4.8v4.8
			c0,0,0,0.1,0,0.1c0,0,0,0.1,0,0.1v7c0,0,0,0.1,0,0.1c0,0,0,0.1,0,0.1v4.8h-4.8c-1.4,0-2.5,1.1-2.5,2.5v7c0,0,0,0.1,0,0.1
			c0,0,0,0.1,0,0.1v7c0,0,0,0.1,0,0.1c0,0,0,0.1,0,0.1v7c0,1.4,1.1,2.5,2.5,2.5h4.8v4.8c0,1.4,1.1,2.5,2.5,2.5h4.8v4.8
			c0,0,0,0.1,0,0.1c0,0,0,0.1,0,0.1v7c0,0,0,0.1,0,0.1c0,0,0,0.1,0,0.1v4.8h-4.8c-1.4,0-2.5,1.1-2.5,2.5v4.8h-4.8c0,0-0.1,0-0.1,0
			c0,0-0.1,0-0.1,0h-4.8v-4.8c0-1.4-1.1-2.5-2.5-2.5h-7c-1.4,0-2.5,1.1-2.5,2.5v4.8h-4.8c0,0-0.1,0-0.1,0c0,0-0.1,0-0.1,0h-4.8v-4.8
			c0,0,0-0.1,0-0.1c0,0,0-0.1,0-0.1v-4.8h4.8c1.4,0,2.5-1.1,2.5-2.5v-7c0-1.4-1.1-2.5-2.5-2.5h-4.8v-4.8c0-1.4-1.1-2.5-2.5-2.5h-4.8
			v-4.8c0,0,0-0.1,0-0.1c0,0,0-0.1,0-0.1v-7c0,0,0-0.1,0-0.1c0,0,0-0.1,0-0.1v-7c0-1.4-1.1-2.5-2.5-2.5h-4.8v-4.8c0,0,0-0.1,0-0.1
			c0,0,0-0.1,0-0.1v-7c0-1.4-1.1-2.5-2.5-2.5h-7c-1.4,0-2.5,1.1-2.5,2.5v7c0,0,0,0.1,0,0.1c0,0,0,0.1,0,0.1v7c0,0,0,0.1,0,0.1
			c0,0,0,0.1,0,0.1v7c0,0,0,0.1,0,0.1c0,0,0,0.1,0,0.1v7c0,1.4,1.1,2.5,2.5,2.5h4.8v4.8c0,1.4,1.1,2.5,2.5,2.5h4.8v4.8
			c0,0,0,0.1,0,0.1c0,0,0,0.1,0,0.1v7c0,0,0,0.1,0,0.1c0,0,0,0.1,0,0.1v4.8h-2.5v-4.8c0,0,0-0.1,0-0.1c0,0,0-0.1,0-0.1v-7
			c0-1.4-1.1-2.5-2.5-2.5h-4.8v-4.8c0-1.4-1.1-2.5-2.5-2.5h-4.8v-4.8c0,0,0-0.1,0-0.1c0,0,0-0.1,0-0.1v-7c0,0,0-0.1,0-0.1
			c0,0,0-0.1,0-0.1v-7c0,0,0-0.1,0-0.1c0,0,0-0.1,0-0.1v-7c0-1.4-1.1-2.5-2.5-2.5h-7c-1.4,0-2.5,1.1-2.5,2.5v4.8h-4.8
			c-1.4,0-2.5,1.1-2.5,2.5v7c0,1.4,1.1,2.5,2.5,2.5h4.8v4.8c0,0,0,0.1,0,0.1c0,0,0,0.1,0,0.1v7c0,0,0,0.1,0,0.1c0,0,0,0.1,0,0.1v7
			c0,1.4,1.1,2.5,2.5,2.5h4.8v4.8c0,1.4,1.1,2.5,2.5,2.5h4.8v4.8c0,0,0,0.1,0,0.1c0,0,0,0.1,0,0.1v7c0,0,0,0.1,0,0.1
			c0,0,0,0.1,0,0.1v7c0,0,0,0.1,0,0.1c0,0,0,0.1,0,0.1v7c0,0,0,0.1,0,0.1c0,0,0,0.1,0,0.1v4.8h-2.5v-4.8c0,0,0-0.1,0-0.1
			c0,0,0-0.1,0-0.1v-7c0,0,0-0.1,0-0.1c0,0,0-0.1,0-0.1v-7c0,0,0-0.1,0-0.1c0,0,0-0.1,0-0.1v-7c0-1.4-1.1-2.5-2.5-2.5h-7
			c-1.4,0-2.5,1.1-2.5,2.5v7c0,0,0,0.1,0,0.1c0,0,0,0.1,0,0.1v7c0,0,0,0.1,0,0.1c0,0,0,0.1,0,0.1v7c0,0,0,0.1,0,0.1c0,0,0,0.1,0,0.1
			v7c0,0,0,0.1,0,0.1c0,0,0,0.1,0,0.1v4.8h-2.5v-4.8c0,0,0-0.1,0-0.1c0,0,0-0.1,0-0.1v-7c0-1.4-1.1-2.5-2.5-2.5h-4.8v-4.8
			c0,0,0-0.1,0-0.1c0,0,0-0.1,0-0.1v-7c0,0,0-0.1,0-0.1c0,0,0-0.1,0-0.1v-4.8h4.8c1.4,0,2.5-1.1,2.5-2.5v-7c0,0,0-0.1,0-0.1
			c0,0,0-0.1,0-0.1v-7c0,0,0-0.1,0-0.1c0,0,0-0.1,0-0.1v-7c0,0,0-0.1,0-0.1c0,0,0-0.1,0-0.1v-7c0-1.4-1.1-2.5-2.5-2.5h-7
			c-1.4,0-2.5,1.1-2.5,2.5v7c0,0,0,0.1,0,0.1c0,0,0,0.1,0,0.1v7c0,0,0,0.1,0,0.1c0,0,0,0.1,0,0.1v7c0,0,0,0.1,0,0.1c0,0,0,0.1,0,0.1
			v4.8h-4.8c-1.4,0-2.5,1.1-2.5,2.5v7c0,0,0,0.1,0,0.1c0,0,0,0.1,0,0.1v7c0,0,0,0.1,0,0.1c0,0,0,0.1,0,0.1v7c0,0,0,0.1,0,0.1
			c0,0,0,0.1,0,0.1v7c0,0,0,0.1,0,0.1c0,0,0,0.1,0,0.1v7c0,1.4,1.1,2.5,2.5,2.5h4.8v4.8c0,0,0,0.1,0,0.1c0,0,0,0.1,0,0.1v4.8h-4.8
			c-1.4,0-2.5,1.1-2.5,2.5v7c0,0,0,0.1,0,0.1c0,0,0,0.1,0,0.1v7c0,0,0,0.1,0,0.1c0,0,0,0.1,0,0.1v4.8h-4.8c-1.4,0-2.5,1.1-2.5,2.5v7
			c0,0,0,0.1,0,0.1c0,0,0,0.1,0,0.1v7c0,1.4,1.1,2.5,2.5,2.5h4.8v2.5h-4.8c-1.4,0-2.5,1.1-2.5,2.5v4.8h-4.8c-1.4,0-2.5,1.1-2.5,2.5
			v4.8h-2.5v-4.8c0,0,0-0.1,0-0.1c0,0,0-0.1,0-0.1v-7c0,0,0-0.1,0-0.1c0,0,0-0.1,0-0.1v-4.8h4.8c1.4,0,2.5-1.1,2.5-2.5v-7
			c0,0,0-0.1,0-0.1c0,0,0-0.1,0-0.1v-7c0,0,0-0.1,0-0.1c0,0,0-0.1,0-0.1v-7c0,0,0-0.1,0-0.1c0,0,0-0.1,0-0.1v-7c0,0,0-0.1,0-0.1
			c0,0,0-0.1,0-0.1v-7c0-1.4-1.1-2.5-2.5-2.5h-7c-1.4,0-2.5,1.1-2.5,2.5v7c0,0,0,0.1,0,0.1c0,0,0,0.1,0,0.1v7c0,0,0,0.1,0,0.1
			c0,0,0,0.1,0,0.1v7c0,0,0,0.1,0,0.1c0,0,0,0.1,0,0.1v7c0,0,0,0.1,0,0.1c0,0,0,0.1,0,0.1v4.8H17c-1.4,0-2.5,1.1-2.5,2.5v7
			c0,0,0,0.1,0,0.1c0,0,0,0.1,0,0.1v7c0,0,0,0.1,0,0.1c0,0,0,0.1,0,0.1v7c0,0,0,0.1,0,0.1c0,0,0,0.1,0,0.1v7c0,0,0,0.1,0,0.1
			c0,0,0,0.1,0,0.1v7c0,0,0,0.1,0,0.1c0,0,0,0.1,0,0.1v4.8H9.8c-1.4,0-2.5,1.1-2.5,2.5v7c0,0,0,0.1,0,0.1c0,0,0,0.1,0,0.1v7
			c0,0,0,0.1,0,0.1c0,0,0,0.1,0,0.1v4.8H2.5c-1.4,0-2.5,1.1-2.5,2.5v7c0,0,0,0.1,0,0.1c0,0,0,0.1,0,0.1v7c0,0,0,0.1,0,0.1
			c0,0,0,0.1,0,0.1v7c0,0,0,0.1,0,0.1c0,0,0,0.1,0,0.1v7c0,1.4,1.1,2.5,2.5,2.5h4.8v4.8c0,0,0,0.1,0,0.1c0,0,0,0.1,0,0.1v7
			c0,0,0,0.1,0,0.1c0,0,0,0.1,0,0.1v7c0,0,0,0.1,0,0.1c0,0,0,0.1,0,0.1v7c0,0,0,0.1,0,0.1c0,0,0,0.1,0,0.1v7c0,1.4,1.1,2.5,2.5,2.5
			h4.8v4.8c0,0,0,0.1,0,0.1c0,0,0,0.1,0,0.1v7c0,1.4,1.1,2.5,2.5,2.5h4.8v4.8c0,0,0,0.1,0,0.1c0,0,0,0.1,0,0.1v7
			c0,1.4,1.1,2.5,2.5,2.5H29v4.8c0,1.4,1.1,2.5,2.5,2.5h4.8v4.8c0,1.4,1.1,2.5,2.5,2.5h7c0,0,0.1,0,0.1,0c0,0,0.1,0,0.1,0h4.8v4.8
			c0,1.4,1.1,2.5,2.5,2.5h4.8v4.8c0,1.4,1.1,2.5,2.5,2.5h7c0,0,0.1,0,0.1,0c0,0,0.1,0,0.1,0h7c0,0,0.1,0,0.1,0c0,0,0.1,0,0.1,0h4.8
			v4.8c0,1.4,1.1,2.5,2.5,2.5h7c0,0,0.1,0,0.1,0c0,0,0.1,0,0.1,0h7c0,0,0.1,0,0.1,0c0,0,0.1,0,0.1,0h7c0,0,0.1,0,0.1,0
			c0,0,0.1,0,0.1,0h4.8v4.8c0,1.4,1.1,2.5,2.5,2.5h7c0,0,0.1,0,0.1,0c0,0,0.1,0,0.1,0h7c0,0,0.1,0,0.1,0c0,0,0.1,0,0.1,0h7
			c1.4,0,2.5-1.1,2.5-2.5v-4.8h4.8c0,0,0.1,0,0.1,0c0,0,0.1,0,0.1,0h7c0,0,0.1,0,0.1,0c0,0,0.1,0,0.1,0h7c0,0,0.1,0,0.1,0
			c0,0,0.1,0,0.1,0h7c1.4,0,2.5-1.1,2.5-2.5V375h4.8c0,0,0.1,0,0.1,0c0,0,0.1,0,0.1,0h7c0,0,0.1,0,0.1,0c0,0,0.1,0,0.1,0h7
			c1.4,0,2.5-1.1,2.5-2.5v-4.8h4.8c1.4,0,2.5-1.1,2.5-2.5v-4.8h4.8c1.4,0,2.5-1.1,2.5-2.5v-4.8h4.8c1.4,0,2.5-1.1,2.5-2.5V346h4.8
			c1.4,0,2.5-1.1,2.5-2.5v-4.8h4.8c1.4,0,2.5-1.1,2.5-2.5v-4.8h4.8c1.4,0,2.5-1.1,2.5-2.5v-7c0,0,0-0.1,0-0.1c0,0,0-0.1,0-0.1v-4.8
			h4.8c1.4,0,2.5-1.1,2.5-2.5v-7c0,0,0-0.1,0-0.1c0,0,0-0.1,0-0.1v-7c0,0,0-0.1,0-0.1c0,0,0-0.1,0-0.1v-7c0,0,0-0.1,0-0.1
			c0,0,0-0.1,0-0.1v-7c0,0,0-0.1,0-0.1c0,0,0-0.1,0-0.1v-7c0,0,0-0.1,0-0.1c0,0,0-0.1,0-0.1v-7c0,0,0-0.1,0-0.1c0,0,0-0.1,0-0.1v-7
			c0,0,0-0.1,0-0.1c0,0,0-0.1,0-0.1v-7c0,0,0-0.1,0-0.1c0,0,0-0.1,0-0.1v-7c0,0,0-0.1,0-0.1c0,0,0-0.1,0-0.1v-7c0,0,0-0.1,0-0.1
			c0,0,0-0.1,0-0.1V234.8z"/>
		<path class="st0" d="M104.1,33.8h7c1.4,0,2.5-1.1,2.5-2.5v-4.8h4.8c1.4,0,2.5-1.1,2.5-2.5v-7c0,0,0-0.1,0-0.1c0,0,0-0.1,0-0.1v-7
			c0-1.4-1.1-2.5-2.5-2.5h-7c-1.4,0-2.5,1.1-2.5,2.5v7c0,0,0,0.1,0,0.1c0,0,0,0.1,0,0.1v4.8h-4.8c-1.4,0-2.5,1.1-2.5,2.5v7
			C101.6,32.7,102.8,33.8,104.1,33.8z"/>
	</g>
</g>
<g id="Слой_2">
	<path class="st1" d="M118.8-5.8h7v7h-7V-5.8z M126,1.5h7v7h-7V1.5z M111.5,8.8h7v7h-7V8.8z M126,8.8h7v7h-7V8.8z M133.3,8.8h7v7h-7
		V8.8z M111.5,16h7v7h-7V16z M133.3,16h7v7h-7V16z M140.6,16h7v7h-7V16z M104.3,23.3h7v7h-7V23.3z M140.6,23.3h7v7h-7V23.3z
		 M140.6,30.5h7v7h-7V30.5z M82.5,37.8h7v7h-7V37.8z M140.6,37.8h7v7h-7V37.8z M68,45.1h7v7h-7V45.1z M82.5,45.1h7v7h-7V45.1z
		 M133.3,45.1h7v7h-7V45.1z M140.6,45.1h7v7h-7V45.1z M162.3,45.1h7v7h-7V45.1z M169.6,45.1h7v7h-7V45.1z M60.7,52.3h7v7h-7V52.3z
		 M68,52.3h7v7h-7V52.3z M82.5,52.3h7v7h-7V52.3z M89.7,52.3h7v7h-7V52.3z M133.3,52.3h7v7h-7V52.3z M162.3,52.3h7v7h-7V52.3z
		 M169.6,52.3h7v7h-7V52.3z M68,59.6h7v7h-7V59.6z M82.5,59.6h7v7h-7V59.6z M89.7,59.6h7v7h-7V59.6z M133.3,59.6h7v7h-7V59.6z
		 M140.6,59.6h7v7h-7V59.6z M169.6,59.6h7v7h-7V59.6z M53.4,66.8h7v7h-7V66.8z M68,66.8h7v7h-7V66.8z M89.7,66.8h7v7h-7V66.8z
		 M140.6,66.8h7v7h-7V66.8z M147.8,66.8h7v7h-7V66.8z M169.6,66.8h7v7h-7V66.8z M176.9,66.8h7v7h-7V66.8z M191.4,66.8h7v7h-7V66.8z
		 M53.4,74.1h7v7h-7V74.1z M68,74.1h7v7h-7V74.1z M75.2,74.1h7v7h-7V74.1z M97,74.1h7v7h-7V74.1z M147.8,74.1h7v7h-7V74.1z
		 M176.9,74.1h7v7h-7V74.1z M191.4,74.1h7v7h-7V74.1z M198.6,74.1h7v7h-7V74.1z M53.4,81.4h7v7h-7V81.4z M75.2,81.4h7v7h-7V81.4z
		 M82.5,81.4h7v7h-7V81.4z M97,81.4h7v7h-7V81.4z M104.3,81.4h7v7h-7V81.4z M147.8,81.4h7v7h-7V81.4z M176.9,81.4h7v7h-7V81.4z
		 M198.6,81.4h7v7h-7V81.4z M53.4,88.6h7v7h-7V88.6z M82.5,88.6h7v7h-7V88.6z M97,88.6h7v7h-7V88.6z M147.8,88.6h7v7h-7V88.6z
		 M169.6,88.6h7v7h-7V88.6z M176.9,88.6h7v7h-7V88.6z M198.6,88.6h7v7h-7V88.6z M46.2,95.9h7v7h-7V95.9z M68,95.9h7v7h-7V95.9z
		 M82.5,95.9h7v7h-7V95.9z M89.7,95.9h7v7h-7V95.9z M97,95.9h7v7h-7V95.9z M118.8,95.9h7v7h-7V95.9z M140.6,95.9h7v7h-7V95.9z
		 M147.8,95.9h7v7h-7V95.9z M169.6,95.9h7v7h-7V95.9z M198.6,95.9h7v7h-7V95.9z M46.2,103.1h7v7h-7V103.1z M68,103.1h7v7h-7V103.1z
		 M82.5,103.1h7v7h-7V103.1z M89.7,103.1h7v7h-7V103.1z M97,103.1h7v7h-7V103.1z M104.3,103.1h7v7h-7V103.1z M111.5,103.1h7v7h-7
		V103.1z M118.8,103.1h7v7h-7V103.1z M126,103.1h7v7h-7V103.1z M133.3,103.1h7v7h-7V103.1z M140.6,103.1h7v7h-7V103.1z M162.3,103.1
		h7v7h-7V103.1z M198.6,103.1h7v7h-7V103.1z M46.2,110.4h7v7h-7V110.4z M68,110.4h7v7h-7V110.4z M82.5,110.4h7v7h-7V110.4z
		 M89.7,110.4h7v7h-7V110.4z M97,110.4h7v7h-7V110.4z M104.3,110.4h7v7h-7V110.4z M111.5,110.4h7v7h-7V110.4z M118.8,110.4h7v7h-7
		V110.4z M155.1,110.4h7v7h-7V110.4z M162.3,110.4h7v7h-7V110.4z M191.4,110.4h7v7h-7V110.4z M198.6,110.4h7v7h-7V110.4z
		 M46.2,117.7h7v7h-7V117.7z M53.4,117.7h7v7h-7V117.7z M68,117.7h7v7h-7V117.7z M82.5,117.7h7v7h-7V117.7z M89.7,117.7h7v7h-7
		V117.7z M97,117.7h7v7h-7V117.7z M104.3,117.7h7v7h-7V117.7z M111.5,117.7h7v7h-7V117.7z M147.8,117.7h7v7h-7V117.7z M155.1,117.7
		h7v7h-7V117.7z M191.4,117.7h7v7h-7V117.7z M46.2,124.9h7v7h-7V124.9z M53.4,124.9h7v7h-7V124.9z M68,124.9h7v7h-7V124.9z
		 M75.2,124.9h7v7h-7V124.9z M82.5,124.9h7v7h-7V124.9z M89.7,124.9h7v7h-7V124.9z M97,124.9h7v7h-7V124.9z M111.5,124.9h7v7h-7
		V124.9z M118.8,124.9h7v7h-7V124.9z M147.8,124.9h7v7h-7V124.9z M184.1,124.9h7v7h-7V124.9z M191.4,124.9h7v7h-7V124.9z
		 M53.4,132.2h7v7h-7V132.2z M60.7,132.2h7v7h-7V132.2z M68,132.2h7v7h-7V132.2z M75.2,132.2h7v7h-7V132.2z M89.7,132.2h7v7h-7
		V132.2z M97,132.2h7v7h-7V132.2z M111.5,132.2h7v7h-7V132.2z M118.8,132.2h7v7h-7V132.2z M126,132.2h7v7h-7V132.2z M147.8,132.2h7
		v7h-7V132.2z M184.1,132.2h7v7h-7V132.2z M53.4,139.4h7v7h-7V139.4z M60.7,139.4h7v7h-7V139.4z M75.2,139.4h7v7h-7V139.4z
		 M97,139.4h7v7h-7V139.4z M104.3,139.4h7v7h-7V139.4z M118.8,139.4h7v7h-7V139.4z M126,139.4h7v7h-7V139.4z M133.3,139.4h7v7h-7
		V139.4z M147.8,139.4h7v7h-7V139.4z M155.1,139.4h7v7h-7V139.4z M162.3,139.4h7v7h-7V139.4z M184.1,139.4h7v7h-7V139.4z
		 M191.4,139.4h7v7h-7V139.4z M24.4,146.7h7v7h-7V146.7z M46.2,146.7h7v7h-7V146.7z M53.4,146.7h7v7h-7V146.7z M68,146.7h7v7h-7
		V146.7z M75.2,146.7h7v7h-7V146.7z M97,146.7h7v7h-7V146.7z M104.3,146.7h7v7h-7V146.7z M133.3,146.7h7v7h-7V146.7z M140.6,146.7h7
		v7h-7V146.7z M147.8,146.7h7v7h-7V146.7z M155.1,146.7h7v7h-7V146.7z M191.4,146.7h7v7h-7V146.7z M24.4,154h7v7h-7V154z M46.2,154
		h7v7h-7V154z M53.4,154h7v7h-7V154z M68,154h7v7h-7V154z M75.2,154h7v7h-7V154z M97,154h7v7h-7V154z M104.3,154h7v7h-7V154z
		 M111.5,154h7v7h-7V154z M133.3,154h7v7h-7V154z M140.6,154h7v7h-7V154z M147.8,154h7v7h-7V154z M155.1,154h7v7h-7V154z M162.3,154
		h7v7h-7V154z M191.4,154h7v7h-7V154z M24.4,161.2h7v7h-7V161.2z M46.2,161.2h7v7h-7V161.2z M68,161.2h7v7h-7V161.2z M75.2,161.2h7
		v7h-7V161.2z M89.7,161.2h7v7h-7V161.2z M97,161.2h7v7h-7V161.2z M104.3,161.2h7v7h-7V161.2z M111.5,161.2h7v7h-7V161.2z
		 M118.8,161.2h7v7h-7V161.2z M126,161.2h7v7h-7V161.2z M133.3,161.2h7v7h-7V161.2z M140.6,161.2h7v7h-7V161.2z M147.8,161.2h7v7h-7
		V161.2z M155.1,161.2h7v7h-7V161.2z M162.3,161.2h7v7h-7V161.2z M169.6,161.2h7v7h-7V161.2z M191.4,161.2h7v7h-7V161.2z
		 M198.6,161.2h7v7h-7V161.2z M24.4,168.5h7v7h-7V168.5z M38.9,168.5h7v7h-7V168.5z M46.2,168.5h7v7h-7V168.5z M68,168.5h7v7h-7
		V168.5z M75.2,168.5h7v7h-7V168.5z M82.5,168.5h7v7h-7V168.5z M89.7,168.5h7v7h-7V168.5z M97,168.5h7v7h-7V168.5z M104.3,168.5h7v7
		h-7V168.5z M111.5,168.5h7v7h-7V168.5z M118.8,168.5h7v7h-7V168.5z M126,168.5h7v7h-7V168.5z M133.3,168.5h7v7h-7V168.5z
		 M140.6,168.5h7v7h-7V168.5z M147.8,168.5h7v7h-7V168.5z M155.1,168.5h7v7h-7V168.5z M162.3,168.5h7v7h-7V168.5z M169.6,168.5h7v7
		h-7V168.5z M176.9,168.5h7v7h-7V168.5z M198.6,168.5h7v7h-7V168.5z M24.4,175.7h7v7h-7V175.7z M38.9,175.7h7v7h-7V175.7z
		 M46.2,175.7h7v7h-7V175.7z M53.4,175.7h7v7h-7V175.7z M60.7,175.7h7v7h-7V175.7z M68,175.7h7v7h-7V175.7z M75.2,175.7h7v7h-7
		V175.7z M82.5,175.7h7v7h-7V175.7z M147.8,175.7h7v7h-7V175.7z M155.1,175.7h7v7h-7V175.7z M162.3,175.7h7v7h-7V175.7z
		 M169.6,175.7h7v7h-7V175.7z M176.9,175.7h7v7h-7V175.7z M198.6,175.7h7v7h-7V175.7z M205.9,175.7h7v7h-7V175.7z M17.1,183h7v7h-7
		V183z M46.2,183h7v7h-7V183z M53.4,183h7v7h-7V183z M60.7,183h7v7h-7V183z M82.5,183h7v7h-7V183z M147.8,183h7v7h-7V183z
		 M176.9,183h7v7h-7V183z M184.1,183h7v7h-7V183z M191.4,183h7v7h-7V183z M205.9,183h7v7h-7V183z M17.1,190.3h7v7h-7V190.3z
		 M38.9,190.3h7v7h-7V190.3z M46.2,190.3h7v7h-7V190.3z M53.4,190.3h7v7h-7V190.3z M82.5,190.3h7v7h-7V190.3z M147.8,190.3h7v7h-7
		V190.3z M184.1,190.3h7v7h-7V190.3z M191.4,190.3h7v7h-7V190.3z M205.9,190.3h7v7h-7V190.3z M213.2,190.3h7v7h-7V190.3z
		 M17.1,197.5h7v7h-7V197.5z M31.7,197.5h7v7h-7V197.5z M38.9,197.5h7v7h-7V197.5z M46.2,197.5h7v7h-7V197.5z M53.4,197.5h7v7h-7
		V197.5z M82.5,197.5h7v7h-7V197.5z M147.8,197.5h7v7h-7V197.5z M184.1,197.5h7v7h-7V197.5z M191.4,197.5h7v7h-7V197.5z
		 M198.6,197.5h7v7h-7V197.5z M205.9,197.5h7v7h-7V197.5z M213.2,197.5h7v7h-7V197.5z M17.1,204.8h7v7h-7V204.8z M24.4,204.8h7v7h-7
		V204.8z M31.7,204.8h7v7h-7V204.8z M38.9,204.8h7v7h-7V204.8z M46.2,204.8h7v7h-7V204.8z M53.4,204.8h7v7h-7V204.8z M82.5,204.8h7
		v7h-7V204.8z M155.1,204.8h7v7h-7V204.8z M191.4,204.8h7v7h-7V204.8z M198.6,204.8h7v7h-7V204.8z M205.9,204.8h7v7h-7V204.8z
		 M213.2,204.8h7v7h-7V204.8z M17.1,212h7v7h-7V212z M24.4,212h7v7h-7V212z M31.7,212h7v7h-7V212z M46.2,212h7v7h-7V212z M82.5,212
		h7v7h-7V212z M89.7,212h7v7h-7V212z M155.1,212h7v7h-7V212z M191.4,212h7v7h-7V212z M205.9,212h7v7h-7V212z M213.2,212h7v7h-7V212z
		 M17.1,219.3h7v7h-7V219.3z M24.4,219.3h7v7h-7V219.3z M31.7,219.3h7v7h-7V219.3z M46.2,219.3h7v7h-7V219.3z M82.5,219.3h7v7h-7
		V219.3z M162.3,219.3h7v7h-7V219.3z M191.4,219.3h7v7h-7V219.3z M205.9,219.3h7v7h-7V219.3z M213.2,219.3h7v7h-7V219.3z M9.9,226.6
		h7v7h-7V226.6z M17.1,226.6h7v7h-7V226.6z M31.7,226.6h7v7h-7V226.6z M46.2,226.6h7v7h-7V226.6z M162.3,226.6h7v7h-7V226.6z
		 M213.2,226.6h7v7h-7V226.6z M220.4,226.6h7v7h-7V226.6z M9.9,233.8h7v7h-7V233.8z M17.1,233.8h7v7h-7V233.8z M46.2,233.8h7v7h-7
		V233.8z M53.4,233.8h7v7h-7V233.8z M162.3,233.8h7v7h-7V233.8z M198.6,233.8h7v7h-7V233.8z M220.4,233.8h7v7h-7V233.8z
		 M227.7,233.8h7v7h-7V233.8z M9.9,241.1h7v7h-7V241.1z M46.2,241.1h7v7h-7V241.1z M53.4,241.1h7v7h-7V241.1z M133.3,241.1h7v7h-7
		V241.1z M198.6,241.1h7v7h-7V241.1z M220.4,241.1h7v7h-7V241.1z M227.7,241.1h7v7h-7V241.1z M2.6,248.3h7v7h-7V248.3z M9.9,248.3h7
		v7h-7V248.3z M46.2,248.3h7v7h-7V248.3z M198.6,248.3h7v7h-7V248.3z M227.7,248.3h7v7h-7V248.3z M2.6,255.6h7v7h-7V255.6z
		 M9.9,255.6h7v7h-7V255.6z M24.4,255.6h7v7h-7V255.6z M46.2,255.6h7v7h-7V255.6z M198.6,255.6h7v7h-7V255.6z M227.7,255.6h7v7h-7
		V255.6z M2.6,262.9h7v7h-7V262.9z M9.9,262.9h7v7h-7V262.9z M53.4,262.9h7v7h-7V262.9z M198.6,262.9h7v7h-7V262.9z M220.4,262.9h7
		v7h-7V262.9z M227.7,262.9h7v7h-7V262.9z M2.6,270.1h7v7h-7V270.1z M9.9,270.1h7v7h-7V270.1z M198.6,270.1h7v7h-7V270.1z
		 M220.4,270.1h7v7h-7V270.1z M227.7,270.1h7v7h-7V270.1z M9.9,277.4h7v7h-7V277.4z M220.4,277.4h7v7h-7V277.4z M227.7,277.4h7v7h-7
		V277.4z M9.9,284.6h7v7h-7V284.6z M220.4,284.6h7v7h-7V284.6z M227.7,284.6h7v7h-7V284.6z M9.9,291.9h7v7h-7V291.9z M220.4,291.9h7
		v7h-7V291.9z M227.7,291.9h7v7h-7V291.9z M9.9,299.2h7v7h-7V299.2z M220.4,299.2h7v7h-7V299.2z M227.7,299.2h7v7h-7V299.2z
		 M9.9,306.4h7v7h-7V306.4z M17.1,306.4h7v7h-7V306.4z M220.4,306.4h7v7h-7V306.4z M227.7,306.4h7v7h-7V306.4z M17.1,313.7h7v7h-7
		V313.7z M220.4,313.7h7v7h-7V313.7z M17.1,320.9h7v7h-7V320.9z M24.4,320.9h7v7h-7V320.9z M104.3,320.9h7v7h-7V320.9z M111.5,320.9
		h7v7h-7V320.9z M118.8,320.9h7v7h-7V320.9z M126,320.9h7v7h-7V320.9z M133.3,320.9h7v7h-7V320.9z M140.6,320.9h7v7h-7V320.9z
		 M213.2,320.9h7v7h-7V320.9z M220.4,320.9h7v7h-7V320.9z M24.4,328.2h7v7h-7V328.2z M89.7,328.2h7v7h-7V328.2z M97,328.2h7v7h-7
		V328.2z M104.3,328.2h7v7h-7V328.2z M111.5,328.2h7v7h-7V328.2z M118.8,328.2h7v7h-7V328.2z M126,328.2h7v7h-7V328.2z M133.3,328.2
		h7v7h-7V328.2z M140.6,328.2h7v7h-7V328.2z M147.8,328.2h7v7h-7V328.2z M155.1,328.2h7v7h-7V328.2z M205.9,328.2h7v7h-7V328.2z
		 M213.2,328.2h7v7h-7V328.2z M24.4,335.5h7v7h-7V335.5z M31.7,335.5h7v7h-7V335.5z M53.4,335.5h7v7h-7V335.5z M82.5,335.5h7v7h-7
		V335.5z M89.7,335.5h7v7h-7V335.5z M97,335.5h7v7h-7V335.5z M155.1,335.5h7v7h-7V335.5z M162.3,335.5h7v7h-7V335.5z M169.6,335.5h7
		v7h-7V335.5z M205.9,335.5h7v7h-7V335.5z M31.7,342.7h7v7h-7V342.7z M38.9,342.7h7v7h-7V342.7z M75.2,342.7h7v7h-7V342.7z
		 M82.5,342.7h7v7h-7V342.7z M111.5,342.7h7v7h-7V342.7z M118.8,342.7h7v7h-7V342.7z M126,342.7h7v7h-7V342.7z M133.3,342.7h7v7h-7
		V342.7z M169.6,342.7h7v7h-7V342.7z M198.6,342.7h7v7h-7V342.7z M38.9,350h7v7h-7V350z M46.2,350h7v7h-7V350z M75.2,350h7v7h-7V350
		z M104.3,350h7v7h-7V350z M111.5,350h7v7h-7V350z M118.8,350h7v7h-7V350z M126,350h7v7h-7V350z M133.3,350h7v7h-7V350z M140.6,350
		h7v7h-7V350z M169.6,350h7v7h-7V350z M176.9,350h7v7h-7V350z M184.1,350h7v7h-7V350z M191.4,350h7v7h-7V350z M53.4,357.2h7v7h-7
		V357.2z M60.7,357.2h7v7h-7V357.2z M75.2,357.2h7v7h-7V357.2z M104.3,357.2h7v7h-7V357.2z M111.5,357.2h7v7h-7V357.2z M118.8,357.2
		h7v7h-7V357.2z M126,357.2h7v7h-7V357.2z M133.3,357.2h7v7h-7V357.2z M140.6,357.2h7v7h-7V357.2z M169.6,357.2h7v7h-7V357.2z
		 M176.9,357.2h7v7h-7V357.2z M184.1,357.2h7v7h-7V357.2z M60.7,364.5h7v7h-7V364.5z M68,364.5h7v7h-7V364.5z M75.2,364.5h7v7h-7
		V364.5z M82.5,364.5h7v7h-7V364.5z M104.3,364.5h7v7h-7V364.5z M111.5,364.5h7v7h-7V364.5z M118.8,364.5h7v7h-7V364.5z M126,364.5
		h7v7h-7V364.5z M133.3,364.5h7v7h-7V364.5z M155.1,364.5h7v7h-7V364.5z M162.3,364.5h7v7h-7V364.5z M169.6,364.5h7v7h-7V364.5z
		 M176.9,364.5h7v7h-7V364.5z M82.5,371.8h7v7h-7V371.8z M89.7,371.8h7v7h-7V371.8z M97,371.8h7v7h-7V371.8z M104.3,371.8h7v7h-7
		V371.8z M111.5,371.8h7v7h-7V371.8z M118.8,371.8h7v7h-7V371.8z M126,371.8h7v7h-7V371.8z M133.3,371.8h7v7h-7V371.8z M140.6,371.8
		h7v7h-7V371.8z M147.8,371.8h7v7h-7V371.8z M155.1,371.8h7v7h-7V371.8z M111.5,379h7v7h-7V379z M118.8,379h7v7h-7V379z M126,379h7
		v7h-7V379z"/>
</g>
</svg>
