<?xml version="1.0" encoding="utf-8"?>
<!-- Generator: Adobe Illustrator 27.3.1, SVG Export Plug-In . SVG Version: 6.00 Build 0)  -->
<svg version="1.1" xmlns="http://www.w3.org/2000/svg" xmlns:xlink="http://www.w3.org/1999/xlink" x="0px" y="0px"
	 viewBox="0 0 237.1 389.5" style="enable-background:new 0 0 237.1 389.5;" xml:space="preserve">
<style type="text/css">
	.st0{fill:#FBE7B4;}
	.st1{fill:#1E0E01;}
</style>
<g id="Слой_1" xmlns:ev="http://www.w3.org/2001/xml-events">
	<g>
		<path class="st0" d="M167,46.1v7c0,1.4,1.1,2.5,2.5,2.5h7c1.4,0,2.5-1.1,2.5-2.5v-7c0-1.4-1.1-2.5-2.5-2.5h-7
			C168.1,43.6,167,44.7,167,46.1z"/>
		<path class="st0" d="M31.5,84.6h7c1.4,0,2.5-1.1,2.5-2.5v-7c0-1.4-1.1-2.5-2.5-2.5h-7c-1.4,0-2.5,1.1-2.5,2.5v7
			C29,83.5,30.2,84.6,31.5,84.6z"/>
		<path class="st0" d="M118.7,26.5h7c1.4,0,2.5-1.1,2.5-2.5v-7c0-1.4-1.1-2.5-2.5-2.5h-7c-1.4,0-2.5,1.1-2.5,2.5v7
			C116.2,25.4,117.3,26.5,118.7,26.5z"/>
		<path class="st0" d="M123.4,82.4v7c0,0,0,0.1,0,0.1c0,0,0,0.1,0,0.1v7c0,1.4,1.1,2.5,2.5,2.5h7c1.4,0,2.5-1.1,2.5-2.5v-7
			c0,0,0-0.1,0-0.1c0,0,0-0.1,0-0.1v-7c0-1.4-1.1-2.5-2.5-2.5h-7C124.5,79.9,123.4,81,123.4,82.4z"/>
		<path class="st0" d="M65.3,75.1v7c0,0,0,0.1,0,0.1c0,0,0,0.1,0,0.1v7c0,1.4,1.1,2.5,2.5,2.5h7c0,0,0.1,0,0.1,0c0,0,0.1,0,0.1,0h7
			c1.4,0,2.5-1.1,2.5-2.5v-7c0-1.4-1.1-2.5-2.5-2.5h-4.8v-4.8c0-1.4-1.1-2.5-2.5-2.5h-7C66.5,72.6,65.3,73.7,65.3,75.1z"/>
		<path class="st0" d="M220.3,149.9h7c1.4,0,2.5-1.1,2.5-2.5v-7c0-1.4-1.1-2.5-2.5-2.5h-7c-1.4,0-2.5,1.1-2.5,2.5v7
			C217.8,148.8,218.9,149.9,220.3,149.9z"/>
		<path class="st0" d="M237.1,234.8c0-1.4-1.1-2.5-2.5-2.5h-4.8v-4.8c0,0,0-0.1,0-0.1c0,0,0-0.1,0-0.1v-7c0-1.4-1.1-2.5-2.5-2.5
			h-4.8V213c0-1.4-1.1-2.5-2.5-2.5h-4.8v-4.8c0,0,0-0.1,0-0.1c0,0,0-0.1,0-0.1v-7c0,0,0-0.1,0-0.1c0,0,0-0.1,0-0.1v-7
			c0,0,0-0.1,0-0.1c0,0,0-0.1,0-0.1v-7c0-1.4-1.1-2.5-2.5-2.5H208V179h4.8c1.4,0,2.5-1.1,2.5-2.5v-7c0-1.4-1.1-2.5-2.5-2.5H208v-4.8
			c0,0,0-0.1,0-0.1c0,0,0-0.1,0-0.1v-7c0-1.4-1.1-2.5-2.5-2.5h-4.8v-4.8c0,0,0-0.1,0-0.1c0,0,0-0.1,0-0.1v-7c0,0,0-0.1,0-0.1
			c0,0,0-0.1,0-0.1v-7c0,0,0-0.1,0-0.1c0,0,0-0.1,0-0.1v-7c0,0,0-0.1,0-0.1c0,0,0-0.1,0-0.1v-7c0,0,0-0.1,0-0.1c0,0,0-0.1,0-0.1v-7
			c0,0,0-0.1,0-0.1c0,0,0-0.1,0-0.1v-4.8h4.8c1.4,0,2.5-1.1,2.5-2.5v-7c0,0,0-0.1,0-0.1c0,0,0-0.1,0-0.1v-7c0,0,0-0.1,0-0.1
			c0,0,0-0.1,0-0.1v-7c0-1.4-1.1-2.5-2.5-2.5h-4.8v-4.8c0,0,0-0.1,0-0.1c0,0,0-0.1,0-0.1v-7c0-1.4-1.1-2.5-2.5-2.5h-7
			c-1.4,0-2.5,1.1-2.5,2.5v7c0,0,0,0.1,0,0.1c0,0,0,0.1,0,0.1v7c0,0,0,0.1,0,0.1c0,0,0,0.1,0,0.1v7c0,0,0,0.1,0,0.1c0,0,0,0.1,0,0.1
			v7c0,0,0,0.1,0,0.1c0,0,0,0.1,0,0.1v7c0,0,0,0.1,0,0.1c0,0,0,0.1,0,0.1v4.8H184c-1.4,0-2.5,1.1-2.5,2.5v7c0,0,0,0.1,0,0.1
			c0,0,0,0.1,0,0.1v7c0,0,0,0.1,0,0.1c0,0,0,0.1,0,0.1v7c0,0,0,0.1,0,0.1c0,0,0,0.1,0,0.1v7c0,1.4,1.1,2.5,2.5,2.5h4.8v4.8
			c0,0,0,0.1,0,0.1c0,0,0,0.1,0,0.1v7c0,0,0,0.1,0,0.1c0,0,0,0.1,0,0.1v7c0,0,0,0.1,0,0.1c0,0,0,0.1,0,0.1v4.8H184
			c-1.4,0-2.5,1.1-2.5,2.5v4.8h-4.8c0,0-0.1,0-0.1,0c0,0-0.1,0-0.1,0h-4.8v-4.8c0-1.4-1.1-2.5-2.5-2.5h-4.8v-4.8c0,0,0-0.1,0-0.1
			c0,0,0-0.1,0-0.1v-7c0-1.4-1.1-2.5-2.5-2.5h-4.8v-4.8c0,0,0-0.1,0-0.1c0,0,0-0.1,0-0.1v-4.8h4.8c1.4,0,2.5-1.1,2.5-2.5v-7
			c0,0,0-0.1,0-0.1c0,0,0-0.1,0-0.1v-4.8h4.8c1.4,0,2.5-1.1,2.5-2.5v-4.8h4.8c1.4,0,2.5-1.1,2.5-2.5v-7c0,0,0-0.1,0-0.1
			c0,0,0-0.1,0-0.1v-4.8h4.8c1.4,0,2.5-1.1,2.5-2.5v-7c0,0,0-0.1,0-0.1c0,0,0-0.1,0-0.1v-7c0,0,0-0.1,0-0.1c0,0,0-0.1,0-0.1v-7
			c0-1.4-1.1-2.5-2.5-2.5h-7c-1.4,0-2.5,1.1-2.5,2.5v4.8h-4.8c-1.4,0-2.5,1.1-2.5,2.5v4.8h-2.5v-4.8c0,0,0-0.1,0-0.1
			c0,0,0-0.1,0-0.1v-7c0,0,0-0.1,0-0.1c0,0,0-0.1,0-0.1v-7c0-1.4-1.1-2.5-2.5-2.5h-4.8v-4.8c0,0,0-0.1,0-0.1c0,0,0-0.1,0-0.1v-7
			c0,0,0-0.1,0-0.1c0,0,0-0.1,0-0.1v-7c0,0,0-0.1,0-0.1c0,0,0-0.1,0-0.1v-7c0,0,0-0.1,0-0.1c0,0,0-0.1,0-0.1v-7c0,0,0-0.1,0-0.1
			c0,0,0-0.1,0-0.1v-4.8h4.8c1.4,0,2.5-1.1,2.5-2.5v-7c0,0,0-0.1,0-0.1c0,0,0-0.1,0-0.1v-4.8h4.8c1.4,0,2.5-1.1,2.5-2.5v-7
			c0,0,0-0.1,0-0.1c0,0,0-0.1,0-0.1v-7c0-1.4-1.1-2.5-2.5-2.5h-7c-1.4,0-2.5,1.1-2.5,2.5v7c0,0,0,0.1,0,0.1c0,0,0,0.1,0,0.1v4.8H155
			c-1.4,0-2.5,1.1-2.5,2.5v4.8h-4.8c-1.4,0-2.5,1.1-2.5,2.5v7c0,0,0,0.1,0,0.1c0,0,0,0.1,0,0.1v4.8h-4.8c-1.4,0-2.5,1.1-2.5,2.5v7
			c0,0,0,0.1,0,0.1c0,0,0,0.1,0,0.1v7c0,0,0,0.1,0,0.1c0,0,0,0.1,0,0.1v7c0,0,0,0.1,0,0.1c0,0,0,0.1,0,0.1v7c0,1.4,1.1,2.5,2.5,2.5
			h4.8v4.8c0,0,0,0.1,0,0.1c0,0,0,0.1,0,0.1v7c0,0,0,0.1,0,0.1c0,0,0,0.1,0,0.1v7c0,0,0,0.1,0,0.1c0,0,0,0.1,0,0.1v7
			c0,0,0,0.1,0,0.1c0,0,0,0.1,0,0.1v7c0,0,0,0.1,0,0.1c0,0,0,0.1,0,0.1v7c0,0,0,0.1,0,0.1c0,0,0,0.1,0,0.1v7c0,0,0,0.1,0,0.1
			c0,0,0,0.1,0,0.1v7c0,0,0,0.1,0,0.1c0,0,0,0.1,0,0.1v4.8h-2.5v-4.8c0-1.4-1.1-2.5-2.5-2.5h-4.8v-4.8c0-1.4-1.1-2.5-2.5-2.5h-7
			c0,0-0.1,0-0.1,0c0,0-0.1,0-0.1,0h-4.8v-4.8c0,0,0-0.1,0-0.1c0,0,0-0.1,0-0.1v-7c0,0,0-0.1,0-0.1c0,0,0-0.1,0-0.1v-7
			c0-1.4-1.1-2.5-2.5-2.5h-4.8v-4.8c0,0,0-0.1,0-0.1c0,0,0-0.1,0-0.1v-7c0-1.4-1.1-2.5-2.5-2.5h-4.8v-4.8c0-1.4-1.1-2.5-2.5-2.5
			h-4.8v-4.8c0,0,0-0.1,0-0.1c0,0,0-0.1,0-0.1v-7c0-1.4-1.1-2.5-2.5-2.5h-4.8v-4.8c0,0,0-0.1,0-0.1c0,0,0-0.1,0-0.1v-7
			c0,0,0-0.1,0-0.1c0,0,0-0.1,0-0.1v-7c0,0,0-0.1,0-0.1c0,0,0-0.1,0-0.1v-7c0,0,0-0.1,0-0.1c0,0,0-0.1,0-0.1v-7c0,0,0-0.1,0-0.1
			c0,0,0-0.1,0-0.1v-7c0,0,0-0.1,0-0.1c0,0,0-0.1,0-0.1v-7c0,0,0-0.1,0-0.1c0,0,0-0.1,0-0.1v-7c0-1.4-1.1-2.5-2.5-2.5h-7
			c-1.4,0-2.5,1.1-2.5,2.5v7c0,0,0,0.1,0,0.1c0,0,0,0.1,0,0.1v7c0,0,0,0.1,0,0.1c0,0,0,0.1,0,0.1v7c0,0,0,0.1,0,0.1c0,0,0,0.1,0,0.1
			v7c0,0,0,0.1,0,0.1c0,0,0,0.1,0,0.1v7c0,0,0,0.1,0,0.1c0,0,0,0.1,0,0.1v7c0,0,0,0.1,0,0.1c0,0,0,0.1,0,0.1v7c0,0,0,0.1,0,0.1
			c0,0,0,0.1,0,0.1v7c0,0,0,0.1,0,0.1c0,0,0,0.1,0,0.1v7c0,1.4,1.1,2.5,2.5,2.5h4.8v4.8c0,0,0,0.1,0,0.1c0,0,0,0.1,0,0.1v7
			c0,1.4,1.1,2.5,2.5,2.5h4.8v4.8c0,0,0,0.1,0,0.1c0,0,0,0.1,0,0.1v7c0,1.4,1.1,2.5,2.5,2.5h4.8v2.5h-4.8c0,0-0.1,0-0.1,0
			c0,0-0.1,0-0.1,0h-7c-1.4,0-2.5,1.1-2.5,2.5v4.8h-4.8c0,0-0.1,0-0.1,0c0,0-0.1,0-0.1,0h-4.8v-4.8c0-1.4-1.1-2.5-2.5-2.5h-4.8v-4.8
			c0-1.4-1.1-2.5-2.5-2.5h-4.8v-4.8c0,0,0-0.1,0-0.1c0,0,0-0.1,0-0.1v-7c0,0,0-0.1,0-0.1c0,0,0-0.1,0-0.1v-7c0,0,0-0.1,0-0.1
			c0,0,0-0.1,0-0.1v-7c0,0,0-0.1,0-0.1c0,0,0-0.1,0-0.1v-7c0,0,0-0.1,0-0.1c0,0,0-0.1,0-0.1v-7c0,0,0-0.1,0-0.1c0,0,0-0.1,0-0.1
			v-4.8h4.8c1.4,0,2.5-1.1,2.5-2.5v-7c0,0,0-0.1,0-0.1c0,0,0-0.1,0-0.1v-7c0-1.4-1.1-2.5-2.5-2.5h-7c0,0-0.1,0-0.1,0
			c0,0-0.1,0-0.1,0h-7c-1.4,0-2.5,1.1-2.5,2.5v7c0,0,0,0.1,0,0.1c0,0,0,0.1,0,0.1v7c0,0,0,0.1,0,0.1c0,0,0,0.1,0,0.1v7
			c0,0,0,0.1,0,0.1c0,0,0,0.1,0,0.1v7c0,0,0,0.1,0,0.1c0,0,0,0.1,0,0.1v4.8h-4.8c-1.4,0-2.5,1.1-2.5,2.5v7c0,0,0,0.1,0,0.1
			c0,0,0,0.1,0,0.1v7c0,0,0,0.1,0,0.1c0,0,0,0.1,0,0.1v7c0,1.4,1.1,2.5,2.5,2.5h4.8v2.5h-4.8c-1.4,0-2.5,1.1-2.5,2.5v7
			c0,0,0,0.1,0,0.1c0,0,0,0.1,0,0.1v7c0,0,0,0.1,0,0.1c0,0,0,0.1,0,0.1v7c0,0,0,0.1,0,0.1c0,0,0,0.1,0,0.1v7c0,0,0,0.1,0,0.1
			c0,0,0,0.1,0,0.1v4.8h-4.8c-1.4,0-2.5,1.1-2.5,2.5v4.8h-4.8c-1.4,0-2.5,1.1-2.5,2.5v7c0,0,0,0.1,0,0.1c0,0,0,0.1,0,0.1v4.8h-4.8
			c-1.4,0-2.5,1.1-2.5,2.5v7c0,0,0,0.1,0,0.1c0,0,0,0.1,0,0.1v7c0,0,0,0.1,0,0.1c0,0,0,0.1,0,0.1v4.8H17c-1.4,0-2.5,1.1-2.5,2.5v7
			c0,0,0,0.1,0,0.1c0,0,0,0.1,0,0.1v4.8H9.8c-1.4,0-2.5,1.1-2.5,2.5v7c0,0,0,0.1,0,0.1c0,0,0,0.1,0,0.1v7c0,0,0,0.1,0,0.1
			c0,0,0,0.1,0,0.1v7c0,0,0,0.1,0,0.1c0,0,0,0.1,0,0.1v7c0,1.4,1.1,2.5,2.5,2.5h4.8v4.8c0,0,0,0.1,0,0.1c0,0,0,0.1,0,0.1v7
			c0,0,0,0.1,0,0.1c0,0,0,0.1,0,0.1v4.8H9.8c-1.4,0-2.5,1.1-2.5,2.5v7c0,0,0,0.1,0,0.1c0,0,0,0.1,0,0.1v7c0,0,0,0.1,0,0.1
			c0,0,0,0.1,0,0.1v4.8H2.5c-1.4,0-2.5,1.1-2.5,2.5v7c0,0,0,0.1,0,0.1c0,0,0,0.1,0,0.1v7c0,0,0,0.1,0,0.1c0,0,0,0.1,0,0.1v7
			c0,1.4,1.1,2.5,2.5,2.5h4.8v4.8c0,0,0,0.1,0,0.1c0,0,0,0.1,0,0.1v7c0,0,0,0.1,0,0.1c0,0,0,0.1,0,0.1v7c0,0,0,0.1,0,0.1
			c0,0,0,0.1,0,0.1v7c0,0,0,0.1,0,0.1c0,0,0,0.1,0,0.1v7c0,1.4,1.1,2.5,2.5,2.5h4.8v4.8c0,1.4,1.1,2.5,2.5,2.5h4.8v4.8
			c0,0,0,0.1,0,0.1c0,0,0,0.1,0,0.1v7c0,1.4,1.1,2.5,2.5,2.5H29v4.8c0,0,0,0.1,0,0.1c0,0,0,0.1,0,0.1v7c0,1.4,1.1,2.5,2.5,2.5h7
			c0,0,0.1,0,0.1,0c0,0,0.1,0,0.1,0h4.8v4.8c0,1.4,1.1,2.5,2.5,2.5h4.8v4.8c0,1.4,1.1,2.5,2.5,2.5h7c0,0,0.1,0,0.1,0
			c0,0,0.1,0,0.1,0h4.8v4.8c0,1.4,1.1,2.5,2.5,2.5h7c0,0,0.1,0,0.1,0c0,0,0.1,0,0.1,0h4.8v4.8c0,1.4,1.1,2.5,2.5,2.5h7
			c0,0,0.1,0,0.1,0c0,0,0.1,0,0.1,0h7c0,0,0.1,0,0.1,0c0,0,0.1,0,0.1,0h7c0,0,0.1,0,0.1,0c0,0,0.1,0,0.1,0h7c0,0,0.1,0,0.1,0
			c0,0,0.1,0,0.1,0h7c0,0,0.1,0,0.1,0c0,0,0.1,0,0.1,0h7c0,0,0.1,0,0.1,0c0,0,0.1,0,0.1,0h7c0,0,0.1,0,0.1,0c0,0,0.1,0,0.1,0h7
			c0,0,0.1,0,0.1,0c0,0,0.1,0,0.1,0h7c1.4,0,2.5-1.1,2.5-2.5v-4.8h4.8c0,0,0.1,0,0.1,0c0,0,0.1,0,0.1,0h7c0,0,0.1,0,0.1,0
			c0,0,0.1,0,0.1,0h7c1.4,0,2.5-1.1,2.5-2.5V375h4.8c0,0,0.1,0,0.1,0c0,0,0.1,0,0.1,0h7c1.4,0,2.5-1.1,2.5-2.5v-4.8h4.8
			c1.4,0,2.5-1.1,2.5-2.5v-4.8h4.8c1.4,0,2.5-1.1,2.5-2.5v-4.8h4.8c1.4,0,2.5-1.1,2.5-2.5V346h4.8c1.4,0,2.5-1.1,2.5-2.5v-4.8h4.8
			c1.4,0,2.5-1.1,2.5-2.5v-7c0,0,0-0.1,0-0.1c0,0,0-0.1,0-0.1v-4.8h4.8c1.4,0,2.5-1.1,2.5-2.5v-7c0,0,0-0.1,0-0.1c0,0,0-0.1,0-0.1
			v-4.8h4.8c1.4,0,2.5-1.1,2.5-2.5v-7c0,0,0-0.1,0-0.1c0,0,0-0.1,0-0.1v-7c0,0,0-0.1,0-0.1c0,0,0-0.1,0-0.1v-7c0,0,0-0.1,0-0.1
			c0,0,0-0.1,0-0.1v-7c0,0,0-0.1,0-0.1c0,0,0-0.1,0-0.1v-7c0,0,0-0.1,0-0.1c0,0,0-0.1,0-0.1v-7c0,0,0-0.1,0-0.1c0,0,0-0.1,0-0.1v-7
			c0,0,0-0.1,0-0.1c0,0,0-0.1,0-0.1v-7c0,0,0-0.1,0-0.1c0,0,0-0.1,0-0.1v-7c0,0,0-0.1,0-0.1c0,0,0-0.1,0-0.1V234.8z"/>
	</g>
</g>
<g id="Слой_2">
	<path class="st1" d="M82.4,2.5h7v7h-7V2.5z M162.2,2.5h7v7h-7V2.5z M82.4,9.8h7v7h-7V9.8z M162.2,9.8h7v7h-7V9.8z M82.4,17h7v7h-7
		V17z M118.7,17h7v7h-7V17z M155,17h7v7h-7V17z M82.4,24.3h7v7h-7V24.3z M147.7,24.3h7v7h-7V24.3z M155,24.3h7v7h-7V24.3z
		 M53.3,31.5h7v7h-7V31.5z M60.6,31.5h7v7h-7V31.5z M82.4,31.5h7v7h-7V31.5z M147.7,31.5h7v7h-7V31.5z M53.3,38.8h7v7h-7V38.8z
		 M60.6,38.8h7v7h-7V38.8z M82.4,38.8h7v7h-7V38.8z M140.4,38.8h7v7h-7V38.8z M147.7,38.8h7v7h-7V38.8z M53.3,46.1h7v7h-7V46.1z
		 M82.4,46.1h7v7h-7V46.1z M140.4,46.1h7v7h-7V46.1z M147.7,46.1h7v7h-7V46.1z M169.5,46.1h7v7h-7V46.1z M53.3,53.3h7v7h-7V53.3z
		 M82.4,53.3h7v7h-7V53.3z M140.4,53.3h7v7h-7V53.3z M147.7,53.3h7v7h-7V53.3z M53.3,60.6h7v7h-7V60.6z M82.4,60.6h7v7h-7V60.6z
		 M89.6,60.6h7v7h-7V60.6z M140.4,60.6h7v7h-7V60.6z M147.7,60.6h7v7h-7V60.6z M46.1,67.8h7v7h-7V67.8z M53.3,67.8h7v7h-7V67.8z
		 M89.6,67.8h7v7h-7V67.8z M147.7,67.8h7v7h-7V67.8z M191.3,67.8h7v7h-7V67.8z M31.5,75.1h7v7h-7V75.1z M46.1,75.1h7v7h-7V75.1z
		 M53.3,75.1h7v7h-7V75.1z M67.8,75.1h7v7h-7V75.1z M89.6,75.1h7v7h-7V75.1z M96.9,75.1h7v7h-7V75.1z M147.7,75.1h7v7h-7V75.1z
		 M155,75.1h7v7h-7V75.1z M191.3,75.1h7v7h-7V75.1z M46.1,82.4h7v7h-7V82.4z M53.3,82.4h7v7h-7V82.4z M67.8,82.4h7v7h-7V82.4z
		 M75.1,82.4h7v7h-7V82.4z M96.9,82.4h7v7h-7V82.4z M104.1,82.4h7v7h-7V82.4z M125.9,82.4h7v7h-7V82.4z M147.7,82.4h7v7h-7V82.4z
		 M155,82.4h7v7h-7V82.4z M176.7,82.4h7v7h-7V82.4z M191.3,82.4h7v7h-7V82.4z M198.5,82.4h7v7h-7V82.4z M53.3,89.6h7v7h-7V89.6z
		 M96.9,89.6h7v7h-7V89.6z M104.1,89.6h7v7h-7V89.6z M125.9,89.6h7v7h-7V89.6z M147.7,89.6h7v7h-7V89.6z M155,89.6h7v7h-7V89.6z
		 M169.5,89.6h7v7h-7V89.6z M176.7,89.6h7v7h-7V89.6z M191.3,89.6h7v7h-7V89.6z M198.5,89.6h7v7h-7V89.6z M46.1,96.9h7v7h-7V96.9z
		 M53.3,96.9h7v7h-7V96.9z M60.6,96.9h7v7h-7V96.9z M104.1,96.9h7v7h-7V96.9z M111.4,96.9h7v7h-7V96.9z M147.7,96.9h7v7h-7V96.9z
		 M155,96.9h7v7h-7V96.9z M162.2,96.9h7v7h-7V96.9z M169.5,96.9h7v7h-7V96.9z M176.7,96.9h7v7h-7V96.9z M191.3,96.9h7v7h-7V96.9z
		 M198.5,96.9h7v7h-7V96.9z M46.1,104.1h7v7h-7V104.1z M53.3,104.1h7v7h-7V104.1z M60.6,104.1h7v7h-7V104.1z M67.8,104.1h7v7h-7
		V104.1z M89.6,104.1h7v7h-7V104.1z M96.9,104.1h7v7h-7V104.1z M104.1,104.1h7v7h-7V104.1z M111.4,104.1h7v7h-7V104.1z M147.7,104.1
		h7v7h-7V104.1z M155,104.1h7v7h-7V104.1z M162.2,104.1h7v7h-7V104.1z M169.5,104.1h7v7h-7V104.1z M191.3,104.1h7v7h-7V104.1z
		 M46.1,111.4h7v7h-7V111.4z M60.6,111.4h7v7h-7V111.4z M67.8,111.4h7v7h-7V111.4z M75.1,111.4h7v7h-7V111.4z M82.4,111.4h7v7h-7
		V111.4z M89.6,111.4h7v7h-7V111.4z M96.9,111.4h7v7h-7V111.4z M104.1,111.4h7v7h-7V111.4z M111.4,111.4h7v7h-7V111.4z M147.7,111.4
		h7v7h-7V111.4z M155,111.4h7v7h-7V111.4z M162.2,111.4h7v7h-7V111.4z M169.5,111.4h7v7h-7V111.4z M184,111.4h7v7h-7V111.4z
		 M191.3,111.4h7v7h-7V111.4z M46.1,118.7h7v7h-7V118.7z M60.6,118.7h7v7h-7V118.7z M67.8,118.7h7v7h-7V118.7z M75.1,118.7h7v7h-7
		V118.7z M82.4,118.7h7v7h-7V118.7z M89.6,118.7h7v7h-7V118.7z M96.9,118.7h7v7h-7V118.7z M104.1,118.7h7v7h-7V118.7z M111.4,118.7
		h7v7h-7V118.7z M118.7,118.7h7v7h-7V118.7z M125.9,118.7h7v7h-7V118.7z M147.7,118.7h7v7h-7V118.7z M155,118.7h7v7h-7V118.7z
		 M162.2,118.7h7v7h-7V118.7z M184,118.7h7v7h-7V118.7z M191.3,118.7h7v7h-7V118.7z M46.1,125.9h7v7h-7V125.9z M67.8,125.9h7v7h-7
		V125.9z M96.9,125.9h7v7h-7V125.9z M104.1,125.9h7v7h-7V125.9z M111.4,125.9h7v7h-7V125.9z M118.7,125.9h7v7h-7V125.9z
		 M125.9,125.9h7v7h-7V125.9z M133.2,125.9h7v7h-7V125.9z M147.7,125.9h7v7h-7V125.9z M155,125.9h7v7h-7V125.9z M184,125.9h7v7h-7
		V125.9z M191.3,125.9h7v7h-7V125.9z M38.8,133.2h7v7h-7V133.2z M46.1,133.2h7v7h-7V133.2z M67.8,133.2h7v7h-7V133.2z M75.1,133.2h7
		v7h-7V133.2z M111.4,133.2h7v7h-7V133.2z M118.7,133.2h7v7h-7V133.2z M125.9,133.2h7v7h-7V133.2z M133.2,133.2h7v7h-7V133.2z
		 M140.4,133.2h7v7h-7V133.2z M147.7,133.2h7v7h-7V133.2z M155,133.2h7v7h-7V133.2z M184,133.2h7v7h-7V133.2z M191.3,133.2h7v7h-7
		V133.2z M31.5,140.4h7v7h-7V140.4z M38.8,140.4h7v7h-7V140.4z M67.8,140.4h7v7h-7V140.4z M75.1,140.4h7v7h-7V140.4z M111.4,140.4h7
		v7h-7V140.4z M118.7,140.4h7v7h-7V140.4z M125.9,140.4h7v7h-7V140.4z M133.2,140.4h7v7h-7V140.4z M140.4,140.4h7v7h-7V140.4z
		 M147.7,140.4h7v7h-7V140.4z M191.3,140.4h7v7h-7V140.4z M220.3,140.4h7v7h-7V140.4z M31.5,147.7h7v7h-7V147.7z M38.8,147.7h7v7h-7
		V147.7z M67.8,147.7h7v7h-7V147.7z M75.1,147.7h7v7h-7V147.7z M82.4,147.7h7v7h-7V147.7z M104.1,147.7h7v7h-7V147.7z M111.4,147.7
		h7v7h-7V147.7z M133.2,147.7h7v7h-7V147.7z M140.4,147.7h7v7h-7V147.7z M147.7,147.7h7v7h-7V147.7z M191.3,147.7h7v7h-7V147.7z
		 M24.3,155h7v7h-7V155z M31.5,155h7v7h-7V155z M38.8,155h7v7h-7V155z M67.8,155h7v7h-7V155z M75.1,155h7v7h-7V155z M82.4,155h7v7
		h-7V155z M104.1,155h7v7h-7V155z M111.4,155h7v7h-7V155z M140.4,155h7v7h-7V155z M147.7,155h7v7h-7V155z M155,155h7v7h-7V155z
		 M191.3,155h7v7h-7V155z M198.5,155h7v7h-7V155z M24.3,162.2h7v7h-7V162.2z M31.5,162.2h7v7h-7V162.2z M67.8,162.2h7v7h-7V162.2z
		 M75.1,162.2h7v7h-7V162.2z M82.4,162.2h7v7h-7V162.2z M104.1,162.2h7v7h-7V162.2z M111.4,162.2h7v7h-7V162.2z M118.7,162.2h7v7h-7
		V162.2z M125.9,162.2h7v7h-7V162.2z M140.4,162.2h7v7h-7V162.2z M147.7,162.2h7v7h-7V162.2z M155,162.2h7v7h-7V162.2z M191.3,162.2
		h7v7h-7V162.2z M198.5,162.2h7v7h-7V162.2z M24.3,169.5h7v7h-7V169.5z M31.5,169.5h7v7h-7V169.5z M67.8,169.5h7v7h-7V169.5z
		 M75.1,169.5h7v7h-7V169.5z M82.4,169.5h7v7h-7V169.5z M89.6,169.5h7v7h-7V169.5z M96.9,169.5h7v7h-7V169.5z M104.1,169.5h7v7h-7
		V169.5z M111.4,169.5h7v7h-7V169.5z M118.7,169.5h7v7h-7V169.5z M125.9,169.5h7v7h-7V169.5z M133.2,169.5h7v7h-7V169.5z
		 M140.4,169.5h7v7h-7V169.5z M147.7,169.5h7v7h-7V169.5z M155,169.5h7v7h-7V169.5z M162.2,169.5h7v7h-7V169.5z M184,169.5h7v7h-7
		V169.5z M191.3,169.5h7v7h-7V169.5z M198.5,169.5h7v7h-7V169.5z M205.8,169.5h7v7h-7V169.5z M17,176.7h7v7h-7V176.7z M24.3,176.7h7
		v7h-7V176.7z M31.5,176.7h7v7h-7V176.7z M67.8,176.7h7v7h-7V176.7z M75.1,176.7h7v7h-7V176.7z M82.4,176.7h7v7h-7V176.7z
		 M104.1,176.7h7v7h-7V176.7z M111.4,176.7h7v7h-7V176.7z M147.7,176.7h7v7h-7V176.7z M155,176.7h7v7h-7V176.7z M162.2,176.7h7v7h-7
		V176.7z M169.5,176.7h7v7h-7V176.7z M176.7,176.7h7v7h-7V176.7z M184,176.7h7v7h-7V176.7z M191.3,176.7h7v7h-7V176.7z M198.5,176.7
		h7v7h-7V176.7z M17,184h7v7h-7V184z M24.3,184h7v7h-7V184z M53.3,184h7v7h-7V184z M60.6,184h7v7h-7V184z M67.8,184h7v7h-7V184z
		 M104.1,184h7v7h-7V184z M111.4,184h7v7h-7V184z M155,184h7v7h-7V184z M162.2,184h7v7h-7V184z M169.5,184h7v7h-7V184z M176.7,184h7
		v7h-7V184z M184,184h7v7h-7V184z M191.3,184h7v7h-7V184z M198.5,184h7v7h-7V184z M205.8,184h7v7h-7V184z M9.8,191.3h7v7h-7V191.3z
		 M17,191.3h7v7h-7V191.3z M24.3,191.3h7v7h-7V191.3z M46.1,191.3h7v7h-7V191.3z M53.3,191.3h7v7h-7V191.3z M60.6,191.3h7v7h-7
		V191.3z M111.4,191.3h7v7h-7V191.3z M118.7,191.3h7v7h-7V191.3z M162.2,191.3h7v7h-7V191.3z M184,191.3h7v7h-7V191.3z M191.3,191.3
		h7v7h-7V191.3z M198.5,191.3h7v7h-7V191.3z M205.8,191.3h7v7h-7V191.3z M9.8,198.5h7v7h-7V198.5z M17,198.5h7v7h-7V198.5z
		 M38.8,198.5h7v7h-7V198.5z M46.1,198.5h7v7h-7V198.5z M118.7,198.5h7v7h-7V198.5z M125.9,198.5h7v7h-7V198.5z M169.5,198.5h7v7h-7
		V198.5z M191.3,198.5h7v7h-7V198.5z M198.5,198.5h7v7h-7V198.5z M205.8,198.5h7v7h-7V198.5z M9.8,205.8h7v7h-7V205.8z M17,205.8h7
		v7h-7V205.8z M24.3,205.8h7v7h-7V205.8z M31.5,205.8h7v7h-7V205.8z M38.8,205.8h7v7h-7V205.8z M46.1,205.8h7v7h-7V205.8z
		 M125.9,205.8h7v7h-7V205.8z M133.2,205.8h7v7h-7V205.8z M198.5,205.8h7v7h-7V205.8z M205.8,205.8h7v7h-7V205.8z M9.8,213h7v7h-7
		V213z M17,213h7v7h-7V213z M24.3,213h7v7h-7V213z M31.5,213h7v7h-7V213z M46.1,213h7v7h-7V213z M53.3,213h7v7h-7V213z M133.2,213h7
		v7h-7V213z M140.4,213h7v7h-7V213z M176.7,213h7v7h-7V213z M205.8,213h7v7h-7V213z M213,213h7v7h-7V213z M17,220.3h7v7h-7V220.3z
		 M24.3,220.3h7v7h-7V220.3z M53.3,220.3h7v7h-7V220.3z M140.4,220.3h7v7h-7V220.3z M184,220.3h7v7h-7V220.3z M213,220.3h7v7h-7
		V220.3z M220.3,220.3h7v7h-7V220.3z M17,227.6h7v7h-7V227.6z M24.3,227.6h7v7h-7V227.6z M53.3,227.6h7v7h-7V227.6z M60.6,227.6h7v7
		h-7V227.6z M147.7,227.6h7v7h-7V227.6z M213,227.6h7v7h-7V227.6z M220.3,227.6h7v7h-7V227.6z M17,234.8h7v7h-7V234.8z M24.3,234.8
		h7v7h-7V234.8z M31.5,234.8h7v7h-7V234.8z M60.6,234.8h7v7h-7V234.8z M67.8,234.8h7v7h-7V234.8z M191.3,234.8h7v7h-7V234.8z
		 M213,234.8h7v7h-7V234.8z M220.3,234.8h7v7h-7V234.8z M227.6,234.8h7v7h-7V234.8z M9.8,242.1h7v7h-7V242.1z M17,242.1h7v7h-7
		V242.1z M24.3,242.1h7v7h-7V242.1z M31.5,242.1h7v7h-7V242.1z M67.8,242.1h7v7h-7V242.1z M118.7,242.1h7v7h-7V242.1z M191.3,242.1
		h7v7h-7V242.1z M220.3,242.1h7v7h-7V242.1z M227.6,242.1h7v7h-7V242.1z M9.8,249.3h7v7h-7V249.3z M17,249.3h7v7h-7V249.3z
		 M24.3,249.3h7v7h-7V249.3z M31.5,249.3h7v7h-7V249.3z M227.6,249.3h7v7h-7V249.3z M9.8,256.6h7v7h-7V256.6z M17,256.6h7v7h-7
		V256.6z M31.5,256.6h7v7h-7V256.6z M227.6,256.6h7v7h-7V256.6z M2.5,263.9h7v7h-7V263.9z M9.8,263.9h7v7h-7V263.9z M17,263.9h7v7
		h-7V263.9z M31.5,263.9h7v7h-7V263.9z M38.8,263.9h7v7h-7V263.9z M227.6,263.9h7v7h-7V263.9z M2.5,271.1h7v7h-7V271.1z M9.8,271.1
		h7v7h-7V271.1z M17,271.1h7v7h-7V271.1z M24.3,271.1h7v7h-7V271.1z M38.8,271.1h7v7h-7V271.1z M46.1,271.1h7v7h-7V271.1z
		 M227.6,271.1h7v7h-7V271.1z M2.5,278.4h7v7h-7V278.4z M9.8,278.4h7v7h-7V278.4z M24.3,278.4h7v7h-7V278.4z M46.1,278.4h7v7h-7
		V278.4z M227.6,278.4h7v7h-7V278.4z M9.8,285.6h7v7h-7V285.6z M46.1,285.6h7v7h-7V285.6z M227.6,285.6h7v7h-7V285.6z M9.8,292.9h7
		v7h-7V292.9z M46.1,292.9h7v7h-7V292.9z M53.3,292.9h7v7h-7V292.9z M227.6,292.9h7v7h-7V292.9z M9.8,300.2h7v7h-7V300.2z
		 M220.3,300.2h7v7h-7V300.2z M227.6,300.2h7v7h-7V300.2z M9.8,307.4h7v7h-7V307.4z M162.2,307.4h7v7h-7V307.4z M169.5,307.4h7v7h-7
		V307.4z M176.7,307.4h7v7h-7V307.4z M184,307.4h7v7h-7V307.4z M220.3,307.4h7v7h-7V307.4z M9.8,314.7h7v7h-7V314.7z M17,314.7h7v7
		h-7V314.7z M38.8,314.7h7v7h-7V314.7z M140.4,314.7h7v7h-7V314.7z M147.7,314.7h7v7h-7V314.7z M155,314.7h7v7h-7V314.7z
		 M162.2,314.7h7v7h-7V314.7z M169.5,314.7h7v7h-7V314.7z M176.7,314.7h7v7h-7V314.7z M184,314.7h7v7h-7V314.7z M191.3,314.7h7v7h-7
		V314.7z M198.5,314.7h7v7h-7V314.7z M213,314.7h7v7h-7V314.7z M220.3,314.7h7v7h-7V314.7z M17,321.9h7v7h-7V321.9z M133.2,321.9h7
		v7h-7V321.9z M140.4,321.9h7v7h-7V321.9z M147.7,321.9h7v7h-7V321.9z M155,321.9h7v7h-7V321.9z M198.5,321.9h7v7h-7V321.9z
		 M205.8,321.9h7v7h-7V321.9z M213,321.9h7v7h-7V321.9z M24.3,329.2h7v7h-7V329.2z M125.9,329.2h7v7h-7V329.2z M133.2,329.2h7v7h-7
		V329.2z M140.4,329.2h7v7h-7V329.2z M205.8,329.2h7v7h-7V329.2z M213,329.2h7v7h-7V329.2z M24.3,336.5h7v7h-7V336.5z M31.5,336.5h7
		v7h-7V336.5z M118.7,336.5h7v7h-7V336.5z M125.9,336.5h7v7h-7V336.5z M133.2,336.5h7v7h-7V336.5z M147.7,336.5h7v7h-7V336.5z
		 M155,336.5h7v7h-7V336.5z M162.2,336.5h7v7h-7V336.5z M169.5,336.5h7v7h-7V336.5z M176.7,336.5h7v7h-7V336.5z M198.5,336.5h7v7h-7
		V336.5z M205.8,336.5h7v7h-7V336.5z M31.5,343.7h7v7h-7V343.7z M38.8,343.7h7v7h-7V343.7z M118.7,343.7h7v7h-7V343.7z M140.4,343.7
		h7v7h-7V343.7z M147.7,343.7h7v7h-7V343.7z M155,343.7h7v7h-7V343.7z M162.2,343.7h7v7h-7V343.7z M169.5,343.7h7v7h-7V343.7z
		 M176.7,343.7h7v7h-7V343.7z M191.3,343.7h7v7h-7V343.7z M198.5,343.7h7v7h-7V343.7z M31.5,351h7v7h-7V351z M38.8,351h7v7h-7V351z
		 M46.1,351h7v7h-7V351z M111.4,351h7v7h-7V351z M118.7,351h7v7h-7V351z M140.4,351h7v7h-7V351z M147.7,351h7v7h-7V351z M155,351h7
		v7h-7V351z M162.2,351h7v7h-7V351z M169.5,351h7v7h-7V351z M176.7,351h7v7h-7V351z M191.3,351h7v7h-7V351z M46.1,358.2h7v7h-7
		V358.2z M53.3,358.2h7v7h-7V358.2z M82.4,358.2h7v7h-7V358.2z M111.4,358.2h7v7h-7V358.2z M118.7,358.2h7v7h-7V358.2z M140.4,358.2
		h7v7h-7V358.2z M147.7,358.2h7v7h-7V358.2z M155,358.2h7v7h-7V358.2z M162.2,358.2h7v7h-7V358.2z M169.5,358.2h7v7h-7V358.2z
		 M176.7,358.2h7v7h-7V358.2z M184,358.2h7v7h-7V358.2z M53.3,365.5h7v7h-7V365.5z M60.6,365.5h7v7h-7V365.5z M67.8,365.5h7v7h-7
		V365.5z M111.4,365.5h7v7h-7V365.5z M118.7,365.5h7v7h-7V365.5z M147.7,365.5h7v7h-7V365.5z M155,365.5h7v7h-7V365.5z M162.2,365.5
		h7v7h-7V365.5z M169.5,365.5h7v7h-7V365.5z M176.7,365.5h7v7h-7V365.5z M67.8,372.8h7v7h-7V372.8z M75.1,372.8h7v7h-7V372.8z
		 M82.4,372.8h7v7h-7V372.8z M111.4,372.8h7v7h-7V372.8z M118.7,372.8h7v7h-7V372.8z M125.9,372.8h7v7h-7V372.8z M133.2,372.8h7v7
		h-7V372.8z M140.4,372.8h7v7h-7V372.8z M147.7,372.8h7v7h-7V372.8z M155,372.8h7v7h-7V372.8z M162.2,372.8h7v7h-7V372.8z M82.4,380
		h7v7h-7V380z M89.6,380h7v7h-7V380z M96.9,380h7v7h-7V380z M104.1,380h7v7h-7V380z M111.4,380h7v7h-7V380z M118.7,380h7v7h-7V380z
		 M125.9,380h7v7h-7V380z M133.2,380h7v7h-7V380z M140.4,380h7v7h-7V380z"/>
</g>
</svg>
