<?xml version="1.0" encoding="utf-8"?>
<!-- Generator: Adobe Illustrator 27.3.1, SVG Export Plug-In . SVG Version: 6.00 Build 0)  -->
<svg version="1.1" xmlns="http://www.w3.org/2000/svg" xmlns:xlink="http://www.w3.org/1999/xlink" x="0px" y="0px"
	 viewBox="0 0 237.1 389.5" style="enable-background:new 0 0 237.1 389.5;" xml:space="preserve">
<style type="text/css">
	.st0{fill:#FBE7B4;}
	.st1{fill:#1E0E01;}
</style>
<g id="Слой_1" xmlns:ev="http://www.w3.org/2001/xml-events">
	<g id="Слой_2_00000105393743236178348360000010296890426698722439_">
		<g>
			<path class="st0" d="M233.4,235.6c0-1.4-1.1-2.5-2.5-2.5h-4.8v-4.8v-0.1v-0.1v-7c0-1.4-1.1-2.5-2.5-2.5h-4.8v-4.8v-0.1v-0.1v-7
				c0-1.4-1.1-2.5-2.5-2.5h-4.7v-4.8c0-1.4-1.1-2.5-2.5-2.5h-4.8V192v-0.1v-0.1v-7c0-1.4-1.1-2.5-2.5-2.5H197v-4.8v-0.1v-0.1v-7
				v-0.1v-0.1v-7V163v-0.1v-4.8h4.8c1.4,0,2.5-1.1,2.5-2.5v-7v-0.1v-0.1v-7v-0.1v-0.1v-7v-0.1V134v-7v-0.1v-0.1v-7
				c0-1.4-1.1-2.5-2.5-2.5H197v-4.8v-0.1v-0.1v-7v-0.1v-0.1v-7V98v-0.1v-4.8h4.8c1.4,0,2.5-1.1,2.5-2.5v-4.8h4.8
				c1.4,0,2.5-1.1,2.5-2.5v-7v-0.1v-0.1v-7V69v-0.1v-7v-0.1v-0.1v-7c0-1.4-1.1-2.5-2.5-2.5h-7c-1.4,0-2.5,1.1-2.5,2.5v7v0.1v0.1v7
				V69v0.1v4.8h-4.8c-1.4,0-2.5,1.1-2.5,2.5v7v0.1v0.1v4.8h-4.7c-1.4,0-2.5,1.1-2.5,2.5v4.8h-4.8c-1.4,0-2.5,1.1-2.5,2.5v7
				c0,1.4,1.1,2.5,2.5,2.5h4.8v4.8v0.1v0.1v7v0.1v0.1v7v0.1v0.1v4.8h-4.8c-1.4,0-2.5,1.1-2.5,2.5v7v0.1v0.1v7c0,1.4,1.1,2.5,2.5,2.5
				h4.8v4.8v0.1v0.1v7v0.1v0.1v4.8h-2.5v-4.8c0-1.4-1.1-2.5-2.5-2.5h-4.8v-5v-0.1v-0.1v-7v-0.1v-0.1v-7v-0.1v-0.1v-7v-0.1V134v-7
				c0-1.4-1.1-2.5-2.5-2.5h-7c-1.4,0-2.5,1.1-2.5,2.5v4.8h-4.7c-1.4,0-2.5,1.1-2.5,2.5v7c0,1.4,1.1,2.5,2.5,2.5h4.8v4.8v0.1v0.1v4.8
				h-4.8c-1.4,0-2.5,1.1-2.5,2.5v4.8h-2.5v-5.1c0-1.4-1.1-2.5-2.5-2.5h-4.8v-4.8v-0.1v-0.1v-7v-0.1v-0.1v-7V134v-0.1v-4.8h4.8
				c1.4,0,2.5-1.1,2.5-2.5v-4.8h4.8c1.4,0,2.5-1.1,2.5-2.5v-4.8h4.8c1.4,0,2.5-1.1,2.5-2.5v-7v-0.1v-0.1V100h4.8
				c1.4,0,2.5-1.1,2.5-2.5v-7v-0.1v-0.1v-7v-0.1v-0.1v-4.8h4.8c1.4,0,2.5-1.1,2.5-2.5v-7v-0.1v-0.1v-7v-0.1v-0.1v-7
				c0-1.4-1.1-2.5-2.5-2.5h-7c-1.4,0-2.5,1.1-2.5,2.5v7v0.1v0.1v4.8H166c-1.4,0-2.5,1.1-2.5,2.5v4.8h-4.9c-1.4,0-2.5,1.1-2.5,2.5v7
				v0.1v0.1v7v0.1v0.1v4.8h-4.8c-1.4,0-2.5,1.1-2.5,2.5v7v0.1v0.1v4.8H144h-0.1h-0.1H139v-4.8V105v-0.1v-7v-0.1v-0.1v-7v-0.1v-0.1
				v-7v-0.1v-0.1v-7v-0.1v-0.1v-7V69v-0.1v-7c0-1.4-1.1-2.5-2.5-2.5h-4.8v-4.8v-0.1v-0.1v-7c0-1.4-1.1-2.5-2.5-2.5h-4.8v-3.1h4.8
				c1.4,0,2.5-1.1,2.5-2.5v-4.8h4.8c1.4,0,2.5-1.1,2.5-2.5v-4.8h4.8c1.4,0,2.5-1.1,2.5-2.5v-4.8h4.8c1.4,0,2.5-1.1,2.5-2.5v-7v-0.1
				v-0.1v-7c0-1.4-1.1-2.5-2.5-2.5h-7c-1.4,0-2.5,1.1-2.5,2.5V8h-4.8c-1.4,0-2.5,1.1-2.5,2.5v4.8h-4.8c-1.4,0-2.5,1.1-2.5,2.5v4.8
				h-4.8h-0.1H122h-7h-0.1h-0.1H110v-4.8c0-1.4-1.1-2.5-2.5-2.5h-4.8v-4.7c0-1.4-1.1-2.5-2.5-2.5h-7h-0.1H93h-7h-0.1h-0.1h-7h-0.1
				h-0.1h-7c-1.4,0-2.5,1.1-2.5,2.5v7c0,1.4,1.1,2.5,2.5,2.5h7h0.1h0.1h7h0.1H86h4.8v4.7c0,1.4,1.1,2.5,2.5,2.5h4.8v4.8v0.1v0.1v4.8
				h-4.8c-1.4,0-2.5,1.1-2.5,2.5v4.8H86c-1.4,0-2.5,1.1-2.5,2.5v7V54v0.1v4.8h-4.8c-1.4,0-2.5,1.1-2.5,2.5v7v0.1v0.1v7v0.1v0.1v4.8
				h-2.5v-4.8v-0.1v-0.1v-7c0-1.4-1.1-2.5-2.5-2.5h-4.8v-4.8v-0.1v-0.1v-7c0-1.4-1.1-2.5-2.5-2.5h-4.8v-4.8c0-1.4-1.1-2.5-2.5-2.5
				h-4.8v-4.8v-0.1v-0.1v-7v-0.1v-0.1v-7V25v-0.1v-7c0-1.4-1.1-2.5-2.5-2.5h-7c-1.4,0-2.5,1.1-2.5,2.5v7V25v0.1v7v0.1v0.1v7v0.1v0.1
				v7v0.1v0.1v7v0.1v0.1v4.8H35h-0.1h-0.1h-7c-1.4,0-2.5,1.1-2.5,2.5v7v0.1v0.1v7v0.1v0.1v7c0,1.4,1.1,2.5,2.5,2.5h4.8v4.8
				c0,1.4,1.1,2.5,2.5,2.5h7c1.4,0,2.5-1.1,2.5-2.5v-7v-0.1v-0.1v-7c0-1.4-1.1-2.5-2.5-2.5h-4.8v-2.5h4.8h0.1h0.1h4.8v4.8v0.1v0.1v7
				c0,1.4,1.1,2.5,2.5,2.5h4.8V90v0.1v0.1v7c0,1.4,1.1,2.5,2.5,2.5h4.8v4.8v0.1v0.1v7c0,1.4,1.1,2.5,2.5,2.5H69v4.8v0.1v0.1v7
				c0,1.4,1.1,2.5,2.5,2.5h4.8v2.5h-4.8c-1.4,0-2.5,1.1-2.5,2.5v4.8h-4.8h-0.1H64h-7c-1.4,0-2.5,1.1-2.5,2.5v4.8h-4.8
				c-1.4,0-2.5,1.1-2.5,2.5v7v0.1v0.1v7v0.1v0.1v7v0.1v0.1v4.8h-4.8c-1.4,0-2.5,1.1-2.5,2.5v7v0.1v0.1v4.8h-4.8
				c-1.4,0-2.5,1.1-2.5,2.5v7v0.1v0.1v4.8h-4.8h-0.1h-0.1h-4.8v-2.5h4.8c1.4,0,2.5-1.1,2.5-2.5v-7v-0.1v-0.1v-4.8h4.8
				c1.4,0,2.5-1.1,2.5-2.5v-7v-0.1V177v-7v-0.1v-0.1v-7v-0.1v-0.1v-4.8h4.8c1.4,0,2.5-1.1,2.5-2.5v-7v-0.1v-0.1v-4.8h4.8
				c1.4,0,2.5-1.1,2.5-2.5v-7v-0.1v-0.1v-7v-0.1v-0.1v-7v-0.1v-0.1v-7v-0.1V112v-7c0-1.4-1.1-2.5-2.5-2.5h-7c-1.4,0-2.5,1.1-2.5,2.5
				v7v0.1v0.1v7v0.1v0.1v7v0.1v0.1v7v0.1v0.1v4.8h-4.8c-1.4,0-2.5,1.1-2.5,2.5v4.8h-2.5v-4.8V141v-0.1v-7v-0.1v-0.1v-7
				c0-1.4-1.1-2.5-2.5-2.5h-4.8v-2.5h4.7c1.4,0,2.5-1.1,2.5-2.5v-7v-0.1V112v-7v-0.1v-0.1v-7c0-1.4-1.1-2.5-2.5-2.5h-7h-0.1h-0.1h-7
				c-1.4,0-2.5,1.1-2.5,2.5v7c0,1.4,1.1,2.5,2.5,2.5h4.8v2.5h-4.8c-1.4,0-2.5,1.1-2.5,2.5v7v0.1v0.1v7v0.1v0.1v7v0.1v0.1v7
				c0,1.4,1.1,2.5,2.5,2.5h4.8v4.8v0.1v0.1v7v0.1v0.1v7v0.1v0.1v7v0.1v0.1v4.8h-4.8c-1.4,0-2.5,1.1-2.5,2.5v7v0.1v0.1v4.8H6.1
				c-1.4,0-2.5,1.1-2.5,2.5v7v0.1v0.1v7v0.1v0.1v7v0.1v0.1v7c0,1.4,1.1,2.5,2.5,2.5h4.8v4.8v0.1v0.1v7v0.1v0.1v4.8H6.1
				c-1.4,0-2.5,1.1-2.5,2.5v7v0.1v0.1v7v0.1v0.1v7v0.1v0.1v7v0.1v0.1v7v0.1v0.1v7v0.1v0.1v7v0.1v0.1v7v0.1v0.1v7v0.1v0.1v7
				c0,1.4,1.1,2.5,2.5,2.5h4.8v4.8v0.1v0.1v7v0.1v0.1v7c0,1.4,1.1,2.5,2.5,2.5h4.8v4.8c0,1.4,1.1,2.5,2.5,2.5h4.8v4.8
				c0,1.4,1.1,2.5,2.5,2.5h4.6v4.8c0,1.4,1.1,2.5,2.5,2.5h4.8v4.8c0,1.4,1.1,2.5,2.5,2.5h4.8v4.8c0,1.4,1.1,2.5,2.5,2.5h4.8v4.8
				c0,1.4,1.1,2.5,2.5,2.5h7h0.1h0.1h7h0.1h0.1h4.8v4.8c0,1.4,1.1,2.5,2.5,2.5h7h0.1h0.1h7H93h0.1h7h0.1h0.1h7h0.1h0.1h7h0.1h0.1h7
				h0.1h0.1h7h0.1h0.1h7h0.1h0.1h7c1.4,0,2.5-1.1,2.5-2.5v-4.8h4.8h0.1h0.1h7c1.4,0,2.5-1.1,2.5-2.5v-3.9h4.8h0.1h0.1h7
				c1.4,0,2.5-1.1,2.5-2.5v-4.8h4.8h0.1h0.1h7c1.4,0,2.5-1.1,2.5-2.5v-4.8h4.8c1.4,0,2.5-1.1,2.5-2.5v-4.8h4.8
				c1.4,0,2.5-1.1,2.5-2.5v-4.6h4.8c1.4,0,2.5-1.1,2.5-2.5v-7v-0.1v-0.1v-4.8h4.8c1.4,0,2.5-1.1,2.5-2.5V325h4.8
				c1.4,0,2.5-1.1,2.5-2.5v-7v-0.1v-0.1v-7v-0.1v-0.1v-4.8h4.8c1.4,0,2.5-1.1,2.5-2.5v-7v-0.1v-0.1v-7v-0.1v-0.1v-7v-0.1v-0.1v-7
				v-0.1V272v-7v-0.1v-0.1v-7v-0.1v-0.1v-7v-0.1v-0.1v-7v-0.1v-0.1v-7.6H233.4z"/>
			<path class="st0" d="M148.8,39.6v7v0.1v0.1v7v0.1V54v7v0.1v0.1v7c0,1.4,1.1,2.5,2.5,2.5h7c1.4,0,2.5-1.1,2.5-2.5v-7v-0.1V61v-7
				v-0.1v-0.1v-7v-0.1v-0.1v-7c0-1.4-1.1-2.5-2.5-2.5h-7C149.9,37.1,148.8,38.2,148.8,39.6z"/>
			<path class="st0" d="M187.6,49.1h7c1.4,0,2.5-1.1,2.5-2.5v-7v-0.1v-0.1v-7c0-1.4-1.1-2.5-2.5-2.5h-7c-1.4,0-2.5,1.1-2.5,2.5v7
				v0.1v0.1v7C185.1,48,186.2,49.1,187.6,49.1z"/>
		</g>
	</g>
	<g id="Слой_1_00000079468950506006547810000015690183057526151310_" xmlns:ev="http://www.w3.org/2001/xml-events">
		<path class="st1" d="M144,2.5h7v7h-7V2.5z M71.4,9.8h7v7h-7V9.8z M78.7,9.8h7v7h-7V9.8z M86,9.8h7v7h-7V9.8z M93.2,9.8h7v7h-7V9.8
			z M136.8,9.8h7v7h-7V9.8z M144,9.8h7v7h-7V9.8z M42.4,17h7v7h-7V17z M93.2,17h7v7h-7V17z M100.5,17h7v7h-7V17z M129.5,17h7v7h-7
			C129.5,24,129.5,17,129.5,17z M136.8,17h7v7h-7V17z M42.4,24.3h7v7h-7V24.3z M100.5,24.3h7v7h-7V24.3z M107.7,24.3h7v7h-7V24.3z
			 M115,24.3h7v7h-7V24.3z M122.3,24.3h7v7h-7V24.3z M129.5,24.3h7v7h-7C129.5,31.3,129.5,24.3,129.5,24.3z M42.4,31.5h7v7h-7V31.5z
			 M100.5,31.5h7v7h-7V31.5z M107.7,31.5h7v7h-7V31.5z M115,31.5h7v7h-7V31.5z M122.3,31.5h7v7h-7V31.5z M187.6,31.5h7v7h-7V31.5z
			 M42.4,38.8h7v7h-7V38.8z M93.2,38.8h7v7h-7V38.8z M100.5,38.8h7v7h-7V38.8z M107.7,38.8h7v7h-7V38.8z M115,38.8h7v7h-7V38.8z
			 M151.3,38.8h7v7h-7V38.8z M187.6,38.8h7v7h-7V38.8z M42.4,46.1h7v7h-7V46.1z M49.7,46.1h7v7h-7V46.1z M86,46.1h7v7h-7V46.1z
			 M93.2,46.1h7v7h-7V46.1z M100.5,46.1h7v7h-7V46.1z M115,46.1h7v7h-7V46.1z M122.3,46.1h7v7h-7V46.1z M151.3,46.1h7v7h-7V46.1z
			 M42.4,53.3h7v7h-7V53.3z M49.7,53.3h7v7h-7V53.3z M56.9,53.3h7v7h-7V53.3z M86,53.3h7v7h-7V53.3z M93.2,53.3h7v7h-7V53.3z
			 M122.3,53.3h7v7h-7V53.3z M151.3,53.3h7v7h-7V53.3z M173.1,53.3h7v7h-7V53.3z M202.1,53.3h7v7h-7V53.3z M27.9,60.6h7v7h-7V60.6z
			 M35.1,60.6h7v7h-7V60.6z M42.4,60.6h7v7h-7V60.6z M49.7,60.6h7v7h-7V60.6z M56.9,60.6h7v7h-7V60.6z M78.7,60.6h7v7h-7V60.6z
			 M86,60.6h7v7h-7V60.6z M122.3,60.6h7v7h-7V60.6z M129.5,60.6h7v7h-7C129.5,67.6,129.5,60.6,129.5,60.6z M151.3,60.6h7v7h-7V60.6z
			 M173.1,60.6h7v7h-7V60.6z M202.1,60.6h7v7h-7V60.6z M27.9,67.8h7v7h-7V67.8z M49.7,67.8h7v7h-7V67.8z M56.9,67.8h7v7h-7V67.8z
			 M64.2,67.8h7v7h-7V67.8z M78.7,67.8h7v7h-7V67.8z M86,67.8h7v7h-7V67.8z M122.3,67.8h7v7h-7V67.8z M129.5,67.8h7v7h-7
			C129.5,74.8,129.5,67.8,129.5,67.8z M165.8,67.8h7v7h-7V67.8z M173.1,67.8h7v7h-7V67.8z M202.1,67.8h7v7h-7V67.8z M27.9,75.1h7v7
			h-7V75.1z M35.1,75.1h7v7h-7V75.1z M49.7,75.1h7v7h-7V75.1z M56.9,75.1h7v7h-7V75.1z M64.2,75.1h7v7h-7V75.1z M78.7,75.1h7v7h-7
			V75.1z M86,75.1h7v7h-7V75.1z M122.3,75.1h7v7h-7V75.1z M129.5,75.1h7v7h-7C129.5,82.1,129.5,75.1,129.5,75.1z M158.6,75.1h7v7h-7
			V75.1z M165.8,75.1h7v7h-7V75.1z M194.9,75.1h7v7h-7V75.1z M202.1,75.1h7v7h-7V75.1z M35.1,82.4h7v7h-7V82.4z M56.9,82.4h7v7h-7
			V82.4z M64.2,82.4h7v7h-7V82.4z M71.4,82.4h7v7h-7V82.4z M78.7,82.4h7v7h-7V82.4z M86,82.4h7v7h-7V82.4z M122.3,82.4h7v7h-7V82.4z
			 M129.5,82.4h7v7h-7C129.5,89.4,129.5,82.4,129.5,82.4z M158.6,82.4h7v7h-7V82.4z M165.8,82.4h7v7h-7V82.4z M194.9,82.4h7v7h-7
			V82.4z M56.9,89.6h7v7h-7V89.6z M64.2,89.6h7v7h-7V89.6z M71.4,89.6h7v7h-7V89.6z M78.7,89.6h7v7h-7V89.6z M86,89.6h7v7h-7V89.6z
			 M122.3,89.6h7v7h-7V89.6z M129.5,89.6h7v7h-7C129.5,96.6,129.5,89.6,129.5,89.6z M158.6,89.6h7v7h-7V89.6z M165.8,89.6h7v7h-7
			V89.6z M187.6,89.6h7v7h-7V89.6z M13.4,96.9h7v7h-7C13.4,103.9,13.4,96.9,13.4,96.9z M20.6,96.9h7v7h-7V96.9z M64.2,96.9h7v7h-7
			V96.9z M71.4,96.9h7v7h-7V96.9z M78.7,96.9h7v7h-7V96.9z M86,96.9h7v7h-7V96.9z M122.3,96.9h7v7h-7V96.9z M129.5,96.9h7v7h-7
			C129.5,103.9,129.5,96.9,129.5,96.9z M151.3,96.9h7v7h-7V96.9z M158.6,96.9h7v7h-7V96.9z M180.3,96.9h7v7h-7V96.9z M187.6,96.9h7
			v7h-7V96.9z M20.6,104.1h7v7h-7V104.1z M42.4,104.1h7v7h-7V104.1z M64.2,104.1h7v7h-7V104.1z M71.4,104.1h7v7h-7V104.1z
			 M78.7,104.1h7v7h-7V104.1z M86,104.1h7v7h-7V104.1z M93.2,104.1h7v7h-7V104.1z M122.3,104.1h7v7h-7V104.1z M129.5,104.1h7v7h-7
			C129.5,111.1,129.5,104.1,129.5,104.1z M151.3,104.1h7v7h-7V104.1z M158.6,104.1h7v7h-7V104.1z M187.6,104.1h7v7h-7V104.1z
			 M13.4,111.4h7v7h-7C13.4,118.4,13.4,111.4,13.4,111.4z M20.6,111.4h7v7h-7V111.4z M42.4,111.4h7v7h-7V111.4z M71.4,111.4h7v7h-7
			V111.4z M78.7,111.4h7v7h-7V111.4z M86,111.4h7v7h-7V111.4z M93.2,111.4h7v7h-7V111.4z M129.5,111.4h7v7h-7
			C129.5,118.4,129.5,111.4,129.5,111.4z M136.8,111.4h7v7h-7V111.4z M144,111.4h7v7h-7V111.4z M151.3,111.4h7v7h-7V111.4z
			 M187.6,111.4h7v7h-7V111.4z M13.4,118.7h7v7h-7C13.4,125.7,13.4,118.7,13.4,118.7z M42.4,118.7h7v7h-7V118.7z M71.4,118.7h7v7h-7
			V118.7z M78.7,118.7h7v7h-7V118.7z M86,118.7h7v7h-7V118.7z M93.2,118.7h7v7h-7V118.7z M115,118.7h7v7h-7V118.7z M122.3,118.7h7v7
			h-7V118.7z M129.5,118.7h7v7h-7C129.5,125.7,129.5,118.7,129.5,118.7z M136.8,118.7h7v7h-7V118.7z M144,118.7h7v7h-7V118.7z
			 M187.6,118.7h7v7h-7V118.7z M194.9,118.7h7v7h-7V118.7z M13.4,125.9h7v7h-7C13.4,132.9,13.4,125.9,13.4,125.9z M20.6,125.9h7v7
			h-7V125.9z M42.4,125.9h7v7h-7V125.9z M78.7,125.9h7v7h-7V125.9z M86,125.9h7v7h-7V125.9z M93.2,125.9h7v7h-7V125.9z M100.5,125.9
			h7v7h-7V125.9z M107.7,125.9h7v7h-7V125.9z M115,125.9h7v7h-7V125.9z M122.3,125.9h7v7h-7V125.9z M129.5,125.9h7v7h-7
			C129.5,132.9,129.5,125.9,129.5,125.9z M136.8,125.9h7v7h-7V125.9z M165.8,125.9h7v7h-7V125.9z M187.6,125.9h7v7h-7V125.9z
			 M194.9,125.9h7v7h-7V125.9z M13.4,133.2h7v7h-7C13.4,140.2,13.4,133.2,13.4,133.2z M20.6,133.2h7v7h-7V133.2z M42.4,133.2h7v7h-7
			V133.2z M71.4,133.2h7v7h-7V133.2z M78.7,133.2h7v7h-7V133.2z M86,133.2h7v7h-7V133.2z M93.2,133.2h7v7h-7V133.2z M100.5,133.2h7
			v7h-7V133.2z M129.5,133.2h7v7h-7C129.5,140.2,129.5,133.2,129.5,133.2z M136.8,133.2h7v7h-7V133.2z M158.6,133.2h7v7h-7V133.2z
			 M165.8,133.2h7v7h-7V133.2z M180.3,133.2h7v7h-7V133.2z M187.6,133.2h7v7h-7V133.2z M194.9,133.2h7v7h-7V133.2z M20.6,140.4h7v7
			h-7V140.4z M35.1,140.4h7v7h-7V140.4z M56.9,140.4h7v7h-7V140.4z M64.2,140.4h7v7h-7V140.4z M71.4,140.4h7v7h-7V140.4z
			 M78.7,140.4h7v7h-7V140.4z M86,140.4h7v7h-7V140.4z M93.2,140.4h7v7h-7V140.4z M129.5,140.4h7v7h-7
			C129.5,147.4,129.5,140.4,129.5,140.4z M136.8,140.4h7v7h-7V140.4z M165.8,140.4h7v7h-7V140.4z M180.3,140.4h7v7h-7V140.4z
			 M187.6,140.4h7v7h-7V140.4z M194.9,140.4h7v7h-7V140.4z M20.6,147.7h7v7h-7V147.7z M27.9,147.7h7v7h-7V147.7z M35.1,147.7h7v7h-7
			V147.7z M49.7,147.7h7v7h-7V147.7z M56.9,147.7h7v7h-7V147.7z M64.2,147.7h7v7h-7V147.7z M86,147.7h7v7h-7V147.7z M93.2,147.7h7v7
			h-7V147.7z M115,147.7h7v7h-7V147.7z M136.8,147.7h7v7h-7V147.7z M165.8,147.7h7v7h-7V147.7z M187.6,147.7h7v7h-7V147.7z
			 M194.9,147.7h7v7h-7V147.7z M20.6,155h7v7h-7V155z M27.9,155h7v7h-7V155z M49.7,155h7v7h-7V155z M56.9,155h7v7h-7V155z M64.2,155
			h7v7h-7V155z M86,155h7v7h-7V155z M93.2,155h7v7h-7V155z M136.8,155h7v7h-7V155z M144,155h7v7h-7V155z M158.6,155h7v7h-7V155z
			 M165.8,155h7v7h-7V155z M187.6,155h7v7h-7V155z M20.6,162.2h7v7h-7V162.2z M27.9,162.2h7v7h-7V162.2z M49.7,162.2h7v7h-7V162.2z
			 M56.9,162.2h7v7h-7V162.2z M86,162.2h7v7h-7V162.2z M93.2,162.2h7v7h-7V162.2z M100.5,162.2h7v7h-7V162.2z M107.7,162.2h7v7h-7
			V162.2z M115,162.2h7v7h-7V162.2z M122.3,162.2h7v7h-7V162.2z M129.5,162.2h7v7h-7C129.5,169.2,129.5,162.2,129.5,162.2z
			 M136.8,162.2h7v7h-7V162.2z M144,162.2h7v7h-7V162.2z M151.3,162.2h7v7h-7V162.2z M158.6,162.2h7v7h-7V162.2z M165.8,162.2h7v7
			h-7V162.2z M173.1,162.2h7v7h-7V162.2z M187.6,162.2h7v7h-7V162.2z M20.6,169.5h7v7h-7V169.5z M27.9,169.5h7v7h-7V169.5z
			 M49.7,169.5h7v7h-7V169.5z M56.9,169.5h7v7h-7V169.5z M78.7,169.5h7v7h-7V169.5z M86,169.5h7v7h-7V169.5z M93.2,169.5h7v7h-7
			V169.5z M100.5,169.5h7v7h-7V169.5z M107.7,169.5h7v7h-7V169.5z M115,169.5h7v7h-7V169.5z M122.3,169.5h7v7h-7V169.5z
			 M129.5,169.5h7v7h-7C129.5,176.5,129.5,169.5,129.5,169.5z M136.8,169.5h7v7h-7V169.5z M144,169.5h7v7h-7V169.5z M151.3,169.5h7
			v7h-7V169.5z M158.6,169.5h7v7h-7V169.5z M165.8,169.5h7v7h-7V169.5z M173.1,169.5h7v7h-7V169.5z M180.3,169.5h7v7h-7V169.5z
			 M187.6,169.5h7v7h-7V169.5z M13.4,176.7h7v7h-7C13.4,183.7,13.4,176.7,13.4,176.7z M20.6,176.7h7v7h-7V176.7z M27.9,176.7h7v7h-7
			V176.7z M42.4,176.7h7v7h-7V176.7z M49.7,176.7h7v7h-7V176.7z M64.2,176.7h7v7h-7V176.7z M71.4,176.7h7v7h-7V176.7z M78.7,176.7h7
			v7h-7V176.7z M122.3,176.7h7v7h-7V176.7z M129.5,176.7h7v7h-7C129.5,183.7,129.5,176.7,129.5,176.7z M158.6,176.7h7v7h-7V176.7z
			 M165.8,176.7h7v7h-7V176.7z M173.1,176.7h7v7h-7V176.7z M180.3,176.7h7v7h-7V176.7z M187.6,176.7h7v7h-7V176.7z M13.4,184h7v7h-7
			C13.4,191,13.4,184,13.4,184z M20.6,184h7v7h-7V184z M42.4,184h7v7h-7V184z M49.7,184h7v7h-7V184z M56.9,184h7v7h-7V184z
			 M64.2,184h7v7h-7V184z M78.7,184h7v7h-7V184z M136.8,184h7v7h-7V184z M173.1,184h7v7h-7V184z M180.3,184h7v7h-7V184z M187.6,184
			h7v7h-7V184z M194.9,184h7v7h-7V184z M6.1,191.3h7v7h-7V191.3z M13.4,191.3h7v7h-7C13.4,198.3,13.4,191.3,13.4,191.3z M20.6,191.3
			h7v7h-7V191.3z M35.1,191.3h7v7h-7V191.3z M42.4,191.3h7v7h-7V191.3z M49.7,191.3h7v7h-7V191.3z M56.9,191.3h7v7h-7V191.3z
			 M78.7,191.3h7v7h-7V191.3z M86,191.3h7v7h-7V191.3z M144,191.3h7v7h-7V191.3z M151.3,191.3h7v7h-7V191.3z M187.6,191.3h7v7h-7
			V191.3z M194.9,191.3h7v7h-7V191.3z M6.1,198.5h7v7h-7V198.5z M13.4,198.5h7v7h-7C13.4,205.5,13.4,198.5,13.4,198.5z M35.1,198.5
			h7v7h-7V198.5z M42.4,198.5h7v7h-7V198.5z M86,198.5h7v7h-7V198.5z M93.2,198.5h7v7h-7V198.5z M100.5,198.5h7v7h-7V198.5z
			 M158.6,198.5h7v7h-7V198.5z M187.6,198.5h7v7h-7V198.5z M194.9,198.5h7v7h-7V198.5z M202.1,198.5h7v7h-7V198.5z M6.1,205.8h7v7
			h-7V205.8z M13.4,205.8h7v7h-7C13.4,212.8,13.4,205.8,13.4,205.8z M20.6,205.8h7v7h-7V205.8z M27.9,205.8h7v7h-7V205.8z
			 M35.1,205.8h7v7h-7V205.8z M100.5,205.8h7v7h-7V205.8z M107.7,205.8h7v7h-7V205.8z M115,205.8h7v7h-7V205.8z M165.8,205.8h7v7h-7
			V205.8z M194.9,205.8h7v7h-7V205.8z M202.1,205.8h7v7h-7V205.8z M209.4,205.8h7v7h-7V205.8z M6.1,213h7v7h-7V213z M13.4,213h7v7
			h-7C13.4,220,13.4,213,13.4,213z M20.6,213h7v7h-7V213z M27.9,213h7v7h-7V213z M35.1,213h7v7h-7V213z M115,213h7v7h-7V213z
			 M122.3,213h7v7h-7V213z M173.1,213h7v7h-7V213z M202.1,213h7v7h-7V213z M209.4,213h7v7h-7V213z M13.4,220.3h7v7h-7
			C13.4,227.3,13.4,220.3,13.4,220.3z M20.6,220.3h7v7h-7V220.3z M27.9,220.3h7v7h-7V220.3z M129.5,220.3h7v7h-7
			C129.5,227.3,129.5,220.3,129.5,220.3z M202.1,220.3h7v7h-7V220.3z M209.4,220.3h7v7h-7V220.3z M216.6,220.3h7v7h-7V220.3z
			 M13.4,227.6h7v7h-7C13.4,234.6,13.4,227.6,13.4,227.6z M20.6,227.6h7v7h-7V227.6z M27.9,227.6h7v7h-7V227.6z M216.6,227.6h7v7h-7
			V227.6z M13.4,234.8h7v7h-7C13.4,241.8,13.4,234.8,13.4,234.8z M35.1,234.8h7v7h-7V234.8z M216.6,234.8h7v7h-7V234.8z
			 M223.9,234.8h7v7h-7V234.8z M6.1,242.1h7v7h-7V242.1z M13.4,242.1h7v7h-7C13.4,249.1,13.4,242.1,13.4,242.1z M35.1,242.1h7v7h-7
			V242.1z M42.4,242.1h7v7h-7V242.1z M107.7,242.1h7v7h-7V242.1z M216.6,242.1h7v7h-7V242.1z M223.9,242.1h7v7h-7V242.1z M6.1,249.3
			h7v7h-7V249.3z M13.4,249.3h7v7h-7C13.4,256.3,13.4,249.3,13.4,249.3z M42.4,249.3h7v7h-7V249.3z M49.7,249.3h7v7h-7V249.3z
			 M223.9,249.3h7v7h-7V249.3z M6.1,256.6h7v7h-7V256.6z M13.4,256.6h7v7h-7C13.4,263.6,13.4,256.6,13.4,256.6z M56.9,256.6h7v7h-7
			V256.6z M223.9,256.6h7v7h-7V256.6z M6.1,263.9h7v7h-7V263.9z M13.4,263.9h7v7h-7C13.4,270.9,13.4,263.9,13.4,263.9z M20.6,263.9
			h7v7h-7V263.9z M223.9,263.9h7v7h-7V263.9z M6.1,271.1h7v7h-7V271.1z M20.6,271.1h7v7h-7V271.1z M223.9,271.1h7v7h-7V271.1z
			 M6.1,278.4h7v7h-7V278.4z M13.4,278.4h7v7h-7C13.4,285.4,13.4,278.4,13.4,278.4z M20.6,278.4h7v7h-7V278.4z M27.9,278.4h7v7h-7
			V278.4z M223.9,278.4h7v7h-7V278.4z M6.1,285.6h7v7h-7V285.6z M13.4,285.6h7v7h-7C13.4,292.6,13.4,285.6,13.4,285.6z M27.9,285.6
			h7v7h-7V285.6z M35.1,285.6h7v7h-7V285.6z M223.9,285.6h7v7h-7V285.6z M6.1,292.9h7v7h-7V292.9z M13.4,292.9h7v7h-7
			C13.4,299.9,13.4,292.9,13.4,292.9z M20.6,292.9h7v7h-7V292.9z M35.1,292.9h7v7h-7V292.9z M42.4,292.9h7v7h-7V292.9z M122.3,292.9
			h7v7h-7V292.9z M173.1,292.9h7v7h-7V292.9z M180.3,292.9h7v7h-7V292.9z M187.6,292.9h7v7h-7V292.9z M194.9,292.9h7v7h-7V292.9z
			 M202.1,292.9h7v7h-7V292.9z M209.4,292.9h7v7h-7V292.9z M216.6,292.9h7v7h-7V292.9z M223.9,292.9h7v7h-7V292.9z M6.1,300.2h7v7
			h-7V300.2z M13.4,300.2h7v7h-7C13.4,307.2,13.4,300.2,13.4,300.2z M20.6,300.2h7v7h-7V300.2z M27.9,300.2h7v7h-7V300.2z
			 M49.7,300.2h7v7h-7V300.2z M158.6,300.2h7v7h-7V300.2z M165.8,300.2h7v7h-7V300.2z M173.1,300.2h7v7h-7V300.2z M180.3,300.2h7v7
			h-7V300.2z M209.4,300.2h7v7h-7V300.2z M216.6,300.2h7v7h-7V300.2z M6.1,307.4h7v7h-7V307.4z M13.4,307.4h7v7h-7
			C13.4,314.4,13.4,307.4,13.4,307.4z M49.7,307.4h7v7h-7V307.4z M56.9,307.4h7v7h-7V307.4z M151.3,307.4h7v7h-7V307.4z
			 M158.6,307.4h7v7h-7V307.4z M165.8,307.4h7v7h-7V307.4z M216.6,307.4h7v7h-7V307.4z M13.4,314.7h7v7h-7
			C13.4,321.7,13.4,314.7,13.4,314.7z M56.9,314.7h7v7h-7V314.7z M144,314.7h7v7h-7V314.7z M151.3,314.7h7v7h-7V314.7z M180.3,314.7
			h7v7h-7V314.7z M209.4,314.7h7v7h-7V314.7z M216.6,314.7h7v7h-7V314.7z M13.4,321.9h7v7h-7C13.4,328.9,13.4,321.9,13.4,321.9z
			 M136.8,321.9h7v7h-7V321.9z M144,321.9h7v7h-7V321.9z M151.3,321.9h7v7h-7V321.9z M165.8,321.9h7v7h-7V321.9z M173.1,321.9h7v7
			h-7V321.9z M180.3,321.9h7v7h-7V321.9z M187.6,321.9h7v7h-7V321.9z M209.4,321.9h7v7h-7V321.9z M13.4,329.2h7v7h-7
			C13.4,336.2,13.4,329.2,13.4,329.2z M20.6,329.2h7v7h-7V329.2z M42.4,329.2h7v7h-7V329.2z M136.8,329.2h7v7h-7V329.2z M144,329.2
			h7v7h-7V329.2z M158.6,329.2h7v7h-7V329.2z M165.8,329.2h7v7h-7V329.2z M173.1,329.2h7v7h-7V329.2z M180.3,329.2h7v7h-7V329.2z
			 M187.6,329.2h7v7h-7V329.2z M202.1,329.2h7v7h-7V329.2z M20.6,336.5h7v7h-7V336.5z M27.9,336.5h7v7h-7V336.5z M129.5,336.5h7v7
			h-7C129.5,343.5,129.5,336.5,129.5,336.5z M136.8,336.5h7v7h-7V336.5z M158.6,336.5h7v7h-7V336.5z M165.8,336.5h7v7h-7V336.5z
			 M173.1,336.5h7v7h-7V336.5z M180.3,336.5h7v7h-7V336.5z M187.6,336.5h7v7h-7V336.5z M194.9,336.5h7v7h-7V336.5z M202.1,336.5h7v7
			h-7V336.5z M27.9,343.7h7v7h-7V343.7z M35.1,343.7h7v7h-7V343.7z M56.9,343.7h7v7h-7V343.7z M129.5,343.7h7v7h-7
			C129.5,350.7,129.5,343.7,129.5,343.7z M136.8,343.7h7v7h-7V343.7z M158.6,343.7h7v7h-7V343.7z M165.8,343.7h7v7h-7V343.7z
			 M173.1,343.7h7v7h-7V343.7z M180.3,343.7h7v7h-7V343.7z M187.6,343.7h7v7h-7V343.7z M194.9,343.7h7v7h-7V343.7z M35.1,351h7v7h-7
			V351z M42.4,351h7v7h-7V351z M129.5,351h7v7h-7C129.5,358,129.5,351,129.5,351z M136.8,351h7v7h-7V351z M165.8,351h7v7h-7V351z
			 M173.1,351h7v7h-7V351z M180.3,351h7v7h-7V351z M187.6,351h7v7h-7V351z M42.4,358.2h7v7h-7V358.2z M49.7,358.2h7v7h-7V358.2z
			 M136.8,358.2h7v7h-7V358.2z M173.1,358.2h7v7h-7V358.2z M180.3,358.2h7v7h-7V358.2z M49.7,365.5h7v7h-7V365.5z M56.9,365.5h7v7
			h-7V365.5z M64.2,365.5h7v7h-7V365.5z M107.7,365.5h7v7h-7V365.5z M136.8,365.5h7v7h-7V365.5z M144,365.5h7v7h-7V365.5z
			 M151.3,365.5h7v7h-7V365.5z M158.6,365.5h7v7h-7V365.5z M165.8,365.5h7v7h-7V365.5z M56.9,372.8h7v7h-7V372.8z M64.2,372.8h7v7
			h-7V372.8z M71.4,372.8h7v7h-7V372.8z M78.7,372.8h7v7h-7V372.8z M136.8,372.8h7v7h-7V372.8z M144,372.8h7v7h-7V372.8z
			 M151.3,372.8h7v7h-7V372.8z M78.7,380h7v7h-7V380z M86,380h7v7h-7V380z M93.2,380h7v7h-7V380z M100.5,380h7v7h-7V380z M107.7,380
			h7v7h-7V380z M115,380h7v7h-7V380z M122.3,380h7v7h-7V380z M129.5,380h7v7h-7C129.5,387,129.5,380,129.5,380z M136.8,380h7v7h-7
			V380z"/>
	</g>
</g>
<g id="Слой_2">
</g>
</svg>
