<?xml version="1.0" encoding="utf-8"?>
<!-- Generator: Adobe Illustrator 27.3.1, SVG Export Plug-In . SVG Version: 6.00 Build 0)  -->
<svg version="1.1" id="Слой_1" xmlns="http://www.w3.org/2000/svg" xmlns:xlink="http://www.w3.org/1999/xlink" x="0px" y="0px"
	 viewBox="0 0 266.3 346" style="enable-background:new 0 0 266.3 346;" xml:space="preserve">
<style type="text/css">
	.st0{fill:#FBE7B4;}
	.st1{fill:#1E0E01;}
</style>
<g id="Слой_2_00000165208523451193697810000018190924630436256702_">
	<path class="st0" d="M266.3,31.5c0-1.4-1.1-2.5-2.5-2.5H259v-4.7c0-1.4-1.1-2.5-2.5-2.5h-4.8V17c0-1.4-1.1-2.5-2.5-2.5h-4.7V9.7
		c0-1.4-1.1-2.5-2.5-2.5h-4.8V2.5c0-1.4-1.1-2.5-2.5-2.5h-7h-0.1h-0.1h-7c-0.1,0-0.1,0-0.2,0h-0.1h-7c-0.1,0-0.1,0-0.2,0h-0.1h-7
		h-0.1h-0.1h-7c-0.1,0-0.1,0-0.2,0h-0.1h-7h-0.1h-0.1h-7c-0.1,0-0.1,0-0.2,0h-0.1h-7c-0.1,0-0.1,0-0.1,0s-0.1,0-0.2,0h-7h-0.1h-0.1
		h-7c-0.1,0-0.1,0-0.1,0s-0.1,0-0.2,0h-7H155h-0.1h-7c-0.1,0-0.1,0-0.1,0s-0.1,0-0.2,0h-7c-0.1,0-0.1,0-0.1,0s-0.1,0-0.2,0h-7
		c-0.1,0-0.1,0-0.2,0H133h-7c-0.1,0-0.1,0-0.1,0h-0.1h-7c-0.1,0-0.1,0-0.2,0h-0.1h-7h-0.1h-0.1h-7c-0.1,0-0.1,0-0.2,0H104h-7h-0.1
		h-0.1h-7c-0.1,0-0.1,0-0.2,0h-0.1h-7c-0.1,0-0.1,0-0.1,0h-0.1h-7h-0.1h-0.1h-7C68,0,68,0,68,0h-0.1h-7h-0.1h-0.1h-7
		c-0.1,0-0.1,0-0.1,0h-0.1h-7C46,0,46,0,46,0h-0.1h-7h-0.1h-0.1h-7c-1.4,0-2.5,1.1-2.5,2.5v4.7h-4.8c-1.4,0-2.5,1.1-2.5,2.5v4.8
		h-4.7c-1.4,0-2.5,1.1-2.5,2.5v4.8H9.8c-1.4,0-2.5,1.1-2.5,2.5V29H2.5C1.1,29,0,30.1,0,31.5v7c0,0.1,0,0.1,0,0.1s0,0.1,0,0.2v7
		c0,0.1,0,0.1,0,0.1V46v7v0.1v0.1v7c0,0.1,0,0.1,0,0.1v0.1v7v0.1v0.1v7c0,0.1,0,0.1,0,0.1v0.1v7c0,0.1,0,0.1,0,0.1s0,0.1,0,0.2v7
		v0.1v0.1v7c0,0.1,0,0.1,0,0.1s0,0.1,0,0.2v7v0.1v0.1v7c0,0.1,0,0.1,0,0.1s0,0.1,0,0.2v7v0.1v0.1v7c0,0.1,0,0.1,0,0.1s0,0.1,0,0.2v7
		c0,1.4,1.1,2.5,2.5,2.5h4.8v4.8v0.1v0.1v7c0,0.1,0,0.1,0,0.1v0.1v7v0.1v0.1v7c0,0.1,0,0.1,0,0.1v0.1v7c0,0.1,0,0.1,0,0.1v0.1v7v0.1
		v0.1v7c0,0.1,0,0.1,0,0.1s0,0.1,0,0.2v7c0,0.1,0,0.1,0,0.1s0,0.1,0,0.2v7v0.1v0.1v7c0,0.1,0,0.1,0,0.1s0,0.1,0,0.2v7v0.1v0.1v7
		c0,0.1,0,0.1,0,0.1s0,0.1,0,0.2v7v0.1v0.1v7c0,0.1,0,0.1,0,0.1s0,0.1,0,0.2v7c0,0.1,0,0.1,0,0.1s0,0.1,0,0.2v7v0.1v0.1v7
		c0,0.1,0,0.1,0,0.1s0,0.1,0,0.2v7c0,0.1,0,0.1,0,0.1s0,0.1,0,0.2v4.7H2.5c-1.4,0-2.5,1.1-2.5,2.5v7c0,0.1,0,0.1,0,0.1s0,0.1,0,0.2
		v7v0.1v0.1v7c0,1.4,1.1,2.5,2.5,2.5h4.8v4.8c0,1.4,1.1,2.5,2.5,2.5h4.8v4.7c0,1.4,1.1,2.5,2.5,2.5h4.7v4.8c0,1.4,1.1,2.5,2.5,2.5
		h4.8v4.8c0,1.4,1.1,2.5,2.5,2.5h4.7v4.7c0,1.4,1.1,2.5,2.5,2.5h4.8v4.8c0,1.4,1.1,2.5,2.5,2.5h4.8v4.8c0,1.4,1.1,2.5,2.5,2.5h7
		c0.1,0,0.1,0,0.2,0h7c0.1,0,0.1,0,0.1,0h0.1h7c0.1,0,0.1,0,0.2,0h7c0.1,0,0.1,0,0.1,0h0.1h7c0.1,0,0.1,0,0.1,0s0.1,0,0.2,0h7
		c0.1,0,0.1,0,0.2,0h7c0.1,0,0.1,0,0.1,0s0.1,0,0.2,0h7c0.1,0,0.1,0,0.2,0h7c0.1,0,0.1,0,0.1,0s0.1,0,0.2,0h7c0.1,0,0.1,0,0.1,0h0.1
		h7c0.1,0,0.1,0,0.2,0h0.1h7c0.1,0,0.1,0,0.2,0h0.1h7c0.1,0,0.1,0,0.2,0h0.1h7c0.1,0,0.1,0,0.2,0h7c0.1,0,0.1,0,0.2,0h0.1h7
		c0.1,0,0.1,0,0.2,0h7c0.1,0,0.1,0,0.2,0h0.1h7c0.1,0,0.1,0,0.1,0s0.1,0,0.2,0h7c0.1,0,0.1,0,0.2,0h7c0.1,0,0.1,0,0.1,0s0.1,0,0.2,0
		h7c0.1,0,0.1,0,0.2,0h7c1.4,0,2.5-1.1,2.5-2.5v-4.8h4.8c1.4,0,2.5-1.1,2.5-2.5v-4.8h4.8c1.4,0,2.5-1.1,2.5-2.5v-4.7h4.7
		c1.4,0,2.5-1.1,2.5-2.5v-4.8h4.8c1.4,0,2.5-1.1,2.5-2.5V309h4.7c1.4,0,2.5-1.1,2.5-2.5v-4.7h4.8c1.4,0,2.5-1.1,2.5-2.5v-4.8h4.8
		c1.4,0,2.5-1.1,2.5-2.5v-7v-0.1v-0.1v-7c0-0.1,0-0.1,0-0.1s0-0.1,0-0.2v-7c0-1.4-1.1-2.5-2.5-2.5H259v-4.7c0-0.1,0-0.1,0-0.1
		s0-0.1,0-0.2v-7c0-0.1,0-0.1,0-0.2c0,0,0-0.1,0-0.2v-7v-0.1v-0.1v-7c0-0.1,0-0.1,0-0.2c0,0,0-0.1,0-0.2v-7c0-0.1,0-0.1,0-0.1
		s0-0.1,0-0.2v-7v-0.1v-0.1v-7c0-0.1,0-0.1,0-0.1s0-0.1,0-0.2v-7v-0.1V212v-7c0-0.1,0-0.1,0-0.1s0-0.1,0-0.2v-7v-0.1v-0.1v-7
		c0-0.1,0-0.1,0-0.1s0-0.1,0-0.2v-7c0-0.1,0-0.1,0-0.1s0-0.1,0-0.2v-7v-0.1v-0.1v-7c0-0.1,0-0.1,0-0.1v-0.1v-7c0-0.1,0-0.1,0-0.1
		v-0.1v-7v-0.1v-0.1v-7c0-0.1,0-0.1,0-0.1v-0.1v-7v-0.1v-0.1v-4.8h4.8c1.4,0,2.5-1.1,2.5-2.5v-7c0-0.1,0-0.1,0-0.1s0-0.1,0-0.2v-7
		V118v-0.1v-7c0-0.1,0-0.1,0-0.1s0-0.1,0-0.2v-7v-0.1v-0.1v-7c0-0.1,0-0.1,0-0.1s0-0.1,0-0.2v-7V89v-0.1v-7c0-0.1,0-0.1,0-0.1
		s0-0.1,0-0.2v-7c0-0.1,0-0.1,0-0.1v-0.1v-7v-0.1v-0.1v-7c0-0.1,0-0.1,0-0.1V60v-7v-0.1v-0.1v-7c0-0.1,0-0.1,0-0.1v-0.1v-7
		c0-0.1,0-0.1,0-0.1s0-0.1,0-0.2V31.5z"/>
</g>
<g id="Слой_1_00000144307099130435693970000005194259245073916861_">
	<path class="st1" d="M2.5,31.5h7v7h-7V31.5z M2.5,38.8h7v7h-7V38.8z M2.5,46.1h7v7h-7V46.1z M2.5,53.3h7v7h-7V53.3z M2.5,60.6h7v7
		h-7V60.6z M2.5,67.8h7v7h-7V67.8z M2.5,75.1h7v7h-7V75.1z M2.5,82.4h7v7h-7V82.4z M2.5,89.6h7v7h-7V89.6z M2.5,96.9h7v7h-7V96.9z
		 M2.5,104.1h7v7h-7V104.1z M2.5,111.4h7v7h-7V111.4z M2.5,118.6h7v7h-7V118.6z M2.5,125.9h7v7h-7V125.9z M2.5,271.1h7v7h-7V271.1z
		 M2.5,278.4h7v7h-7V278.4z M2.5,285.6h7v7h-7V285.6z M9.8,24.3h7v7h-7C9.8,31.3,9.8,24.3,9.8,24.3z M9.8,31.5h7v7h-7
		C9.8,38.5,9.8,31.5,9.8,31.5z M9.8,46.1h7v7h-7C9.8,53.1,9.8,46.1,9.8,46.1z M9.8,60.6h7v7h-7C9.8,67.6,9.8,60.6,9.8,60.6z
		 M9.8,75.1h7v7h-7C9.8,82.1,9.8,75.1,9.8,75.1z M9.8,89.6h7v7h-7C9.8,96.6,9.8,89.6,9.8,89.6z M9.8,104.1h7v7h-7
		C9.8,111.1,9.8,104.1,9.8,104.1z M9.8,125.9h7v7h-7C9.8,132.9,9.8,125.9,9.8,125.9z M9.8,133.2h7v7h-7
		C9.8,140.2,9.8,133.2,9.8,133.2z M9.8,140.4h7v7h-7C9.8,147.4,9.8,140.4,9.8,140.4z M9.8,147.7h7v7h-7
		C9.8,154.7,9.8,147.7,9.8,147.7z M9.8,154.9h7v7h-7C9.8,161.9,9.8,154.9,9.8,154.9z M9.8,162.2h7v7h-7
		C9.8,169.2,9.8,162.2,9.8,162.2z M9.8,169.5h7v7h-7C9.8,176.5,9.8,169.5,9.8,169.5z M9.8,176.7h7v7h-7
		C9.8,183.7,9.8,176.7,9.8,176.7z M9.8,184h7v7h-7C9.8,191,9.8,184,9.8,184z M9.8,191.3h7v7h-7C9.8,198.3,9.8,191.3,9.8,191.3z
		 M9.8,198.5h7v7h-7C9.8,205.5,9.8,198.5,9.8,198.5z M9.8,205.8h7v7h-7C9.8,212.8,9.8,205.8,9.8,205.8z M9.8,213h7v7h-7
		C9.8,220,9.8,213,9.8,213z M9.8,220.3h7v7h-7C9.8,227.3,9.8,220.3,9.8,220.3z M9.8,227.5h7v7h-7C9.8,234.5,9.8,227.5,9.8,227.5z
		 M9.8,234.8h7v7h-7C9.8,241.8,9.8,234.8,9.8,234.8z M9.8,242.1h7v7h-7C9.8,249.1,9.8,242.1,9.8,242.1z M9.8,249.3h7v7h-7
		C9.8,256.3,9.8,249.3,9.8,249.3z M9.8,256.6h7v7h-7C9.8,263.6,9.8,256.6,9.8,256.6z M9.8,263.9h7v7h-7
		C9.8,270.9,9.8,263.9,9.8,263.9z M9.8,271.1h7v7h-7C9.8,278.1,9.8,271.1,9.8,271.1z M9.8,285.6h7v7h-7
		C9.8,292.6,9.8,285.6,9.8,285.6z M9.8,292.9h7v7h-7C9.8,299.9,9.8,292.9,9.8,292.9z M17.1,17h7v7h-7V17z M17.1,24.3h7v7h-7V24.3z
		 M17.1,38.8h7v7h-7V38.8z M17.1,53.3h7v7h-7V53.3z M17.1,67.8h7v7h-7V67.8z M17.1,82.4h7v7h-7V82.4z M17.1,96.9h7v7h-7V96.9z
		 M17.1,111.4h7v7h-7V111.4z M17.1,133.2h7v7h-7V133.2z M17.1,147.7h7v7h-7V147.7z M17.1,162.2h7v7h-7V162.2z M17.1,176.7h7v7h-7
		V176.7z M17.1,191.3h7v7h-7V191.3z M17.1,198.5h7v7h-7V198.5z M17.1,213h7v7h-7V213z M17.1,220.3h7v7h-7V220.3z M17.1,234.8h7v7h-7
		V234.8z M17.1,249.3h7v7h-7V249.3z M17.1,263.9h7v7h-7V263.9z M17.1,278.4h7v7h-7V278.4z M17.1,292.9h7v7h-7V292.9z M17.1,300.1h7
		v7h-7V300.1z M24.3,9.7h7v7h-7V9.7z M24.3,17h7v7h-7V17z M24.3,31.5h7v7h-7V31.5z M24.3,38.8h7v7h-7V38.8z M24.3,46.1h7v7h-7V46.1z
		 M24.3,53.3h7v7h-7V53.3z M24.3,60.6h7v7h-7V60.6z M24.3,67.8h7v7h-7V67.8z M24.3,75.1h7v7h-7V75.1z M24.3,82.4h7v7h-7V82.4z
		 M24.3,89.6h7v7h-7V89.6z M24.3,96.9h7v7h-7V96.9z M24.3,104.1h7v7h-7V104.1z M24.3,111.4h7v7h-7V111.4z M24.3,118.6h7v7h-7V118.6z
		 M24.3,133.2h7v7h-7V133.2z M24.3,140.4h7v7h-7V140.4z M24.3,154.9h7v7h-7V154.9z M24.3,169.5h7v7h-7V169.5z M24.3,184h7v7h-7V184z
		 M24.3,191.3h7v7h-7V191.3z M24.3,205.8h7v7h-7V205.8z M24.3,220.3h7v7h-7V220.3z M24.3,227.5h7v7h-7V227.5z M24.3,242.1h7v7h-7
		V242.1z M24.3,256.6h7v7h-7V256.6z M24.3,271.1h7v7h-7V271.1z M24.3,285.6h7v7h-7V285.6z M24.3,300.1h7v7h-7V300.1z M24.3,307.4h7
		v7h-7V307.4z M31.6,2.5h7v7h-7C31.6,9.5,31.6,2.5,31.6,2.5z M31.6,9.7h7v7h-7C31.6,16.7,31.6,9.7,31.6,9.7z M31.6,17h7v7h-7
		C31.6,24,31.6,17,31.6,17z M31.6,24.3h7v7h-7C31.6,31.3,31.6,24.3,31.6,24.3z M31.6,31.5h7v7h-7C31.6,38.5,31.6,31.5,31.6,31.5z
		 M31.6,38.8h7v7h-7C31.6,45.8,31.6,38.8,31.6,38.8z M31.6,46.1h7v7h-7C31.6,53.1,31.6,46.1,31.6,46.1z M31.6,53.3h7v7h-7
		C31.6,60.3,31.6,53.3,31.6,53.3z M31.6,60.6h7v7h-7C31.6,67.6,31.6,60.6,31.6,60.6z M31.6,67.8h7v7h-7
		C31.6,74.8,31.6,67.8,31.6,67.8z M31.6,75.1h7v7h-7C31.6,82.1,31.6,75.1,31.6,75.1z M31.6,82.4h7v7h-7
		C31.6,89.4,31.6,82.4,31.6,82.4z M31.6,89.6h7v7h-7C31.6,96.6,31.6,89.6,31.6,89.6z M31.6,96.9h7v7h-7
		C31.6,103.9,31.6,96.9,31.6,96.9z M31.6,104.1h7v7h-7C31.6,111.1,31.6,104.1,31.6,104.1z M31.6,111.4h7v7h-7
		C31.6,118.4,31.6,111.4,31.6,111.4z M31.6,118.6h7v7h-7C31.6,125.6,31.6,118.6,31.6,118.6z M31.6,125.9h7v7h-7
		C31.6,132.9,31.6,125.9,31.6,125.9z M31.6,133.2h7v7h-7C31.6,140.2,31.6,133.2,31.6,133.2z M31.6,140.4h7v7h-7
		C31.6,147.4,31.6,140.4,31.6,140.4z M31.6,147.7h7v7h-7C31.6,154.7,31.6,147.7,31.6,147.7z M31.6,154.9h7v7h-7
		C31.6,161.9,31.6,154.9,31.6,154.9z M31.6,162.2h7v7h-7C31.6,169.2,31.6,162.2,31.6,162.2z M31.6,169.5h7v7h-7
		C31.6,176.5,31.6,169.5,31.6,169.5z M31.6,184h7v7h-7C31.6,191,31.6,184,31.6,184z M31.6,198.5h7v7h-7
		C31.6,205.5,31.6,198.5,31.6,198.5z M31.6,213h7v7h-7C31.6,220,31.6,213,31.6,213z M31.6,227.5h7v7h-7
		C31.6,234.5,31.6,227.5,31.6,227.5z M31.6,234.8h7v7h-7C31.6,241.8,31.6,234.8,31.6,234.8z M31.6,249.3h7v7h-7
		C31.6,256.3,31.6,249.3,31.6,249.3z M31.6,263.9h7v7h-7C31.6,270.9,31.6,263.9,31.6,263.9z M31.6,278.4h7v7h-7
		C31.6,285.4,31.6,278.4,31.6,278.4z M31.6,292.9h7v7h-7C31.6,299.9,31.6,292.9,31.6,292.9z M31.6,307.4h7v7h-7
		C31.6,314.4,31.6,307.4,31.6,307.4z M31.6,314.7h7v7h-7C31.6,321.7,31.6,314.7,31.6,314.7z M38.8,2.5h7v7h-7V2.5z M38.8,9.7h7v7h-7
		V9.7z M38.8,24.3h7v7h-7V24.3z M38.8,38.8h7v7h-7V38.8z M38.8,53.3h7v7h-7V53.3z M38.8,67.8h7v7h-7V67.8z M38.8,82.4h7v7h-7V82.4z
		 M38.8,96.9h7v7h-7V96.9z M38.8,111.4h7v7h-7V111.4z M38.8,125.9h7v7h-7V125.9z M38.8,133.2h7v7h-7V133.2z M38.8,140.4h7v7h-7
		V140.4z M38.8,147.7h7v7h-7V147.7z M38.8,154.9h7v7h-7V154.9z M38.8,162.2h7v7h-7V162.2z M38.8,169.5h7v7h-7V169.5z M38.8,176.7h7
		v7h-7V176.7z M38.8,191.3h7v7h-7V191.3z M38.8,205.8h7v7h-7V205.8z M38.8,220.3h7v7h-7V220.3z M38.8,234.8h7v7h-7V234.8z
		 M38.8,242.1h7v7h-7V242.1z M38.8,256.6h7v7h-7V256.6z M38.8,271.1h7v7h-7V271.1z M38.8,285.6h7v7h-7V285.6z M38.8,300.1h7v7h-7
		V300.1z M38.8,307.4h7v7h-7V307.4z M38.8,314.7h7v7h-7V314.7z M38.8,321.9h7v7h-7V321.9z M46.1,2.5h7v7h-7V2.5z M46.1,17h7v7h-7V17
		z M46.1,31.5h7v7h-7V31.5z M46.1,46.1h7v7h-7V46.1z M46.1,60.6h7v7h-7V60.6z M46.1,75.1h7v7h-7V75.1z M46.1,89.6h7v7h-7V89.6z
		 M46.1,104.1h7v7h-7V104.1z M46.1,118.6h7v7h-7V118.6z M46.1,125.9h7v7h-7V125.9z M46.1,133.2h7v7h-7V133.2z M46.1,140.4h7v7h-7
		V140.4z M46.1,147.7h7v7h-7V147.7z M46.1,154.9h7v7h-7V154.9z M46.1,162.2h7v7h-7V162.2z M46.1,169.5h7v7h-7V169.5z M46.1,176.7h7
		v7h-7V176.7z M46.1,184h7v7h-7V184z M46.1,198.5h7v7h-7V198.5z M46.1,213h7v7h-7V213z M46.1,227.5h7v7h-7V227.5z M46.1,292.9h7v7
		h-7V292.9z M46.1,300.1h7v7h-7V300.1z M46.1,307.4h7v7h-7V307.4z M46.1,314.7h7v7h-7V314.7z M46.1,321.9h7v7h-7V321.9z M46.1,329.2
		h7v7h-7V329.2z M53.4,2.5h7v7h-7V2.5z M53.4,9.7h7v7h-7V9.7z M53.4,17h7v7h-7V17z M53.4,24.3h7v7h-7V24.3z M53.4,31.5h7v7h-7V31.5z
		 M53.4,38.8h7v7h-7V38.8z M53.4,46.1h7v7h-7V46.1z M53.4,53.3h7v7h-7V53.3z M53.4,60.6h7v7h-7V60.6z M53.4,67.8h7v7h-7V67.8z
		 M53.4,75.1h7v7h-7V75.1z M53.4,82.4h7v7h-7V82.4z M53.4,89.6h7v7h-7V89.6z M53.4,96.9h7v7h-7V96.9z M53.4,104.1h7v7h-7V104.1z
		 M53.4,111.4h7v7h-7V111.4z M53.4,118.6h7v7h-7V118.6z M53.4,125.9h7v7h-7V125.9z M53.4,133.2h7v7h-7V133.2z M53.4,140.4h7v7h-7
		V140.4z M53.4,147.7h7v7h-7V147.7z M53.4,184h7v7h-7V184z M53.4,191.3h7v7h-7V191.3z M53.4,205.8h7v7h-7V205.8z M53.4,213h7v7h-7
		V213z M53.4,220.3h7v7h-7V220.3z M53.4,227.5h7v7h-7V227.5z M53.4,234.8h7v7h-7V234.8z M53.4,242.1h7v7h-7V242.1z M53.4,249.3h7v7
		h-7V249.3z M53.4,256.6h7v7h-7V256.6z M53.4,263.9h7v7h-7V263.9z M53.4,271.1h7v7h-7V271.1z M53.4,278.4h7v7h-7V278.4z M53.4,285.6
		h7v7h-7V285.6z M53.4,292.9h7v7h-7V292.9z M53.4,300.1h7v7h-7V300.1z M53.4,307.4h7v7h-7V307.4z M53.4,321.9h7v7h-7V321.9z
		 M53.4,329.2h7v7h-7V329.2z M53.4,336.5h7v7h-7V336.5z M60.6,2.5h7v7h-7V2.5z M60.6,9.7h7v7h-7V9.7z M60.6,24.3h7v7h-7V24.3z
		 M60.6,31.5h7v7h-7V31.5z M60.6,38.8h7v7h-7V38.8z M60.6,46.1h7v7h-7V46.1z M60.6,53.3h7v7h-7V53.3z M60.6,60.6h7v7h-7V60.6z
		 M60.6,67.8h7v7h-7V67.8z M60.6,75.1h7v7h-7V75.1z M60.6,82.4h7v7h-7V82.4z M60.6,89.6h7v7h-7V89.6z M60.6,118.6h7v7h-7V118.6z
		 M60.6,125.9h7v7h-7V125.9z M60.6,133.2h7v7h-7V133.2z M60.6,140.4h7v7h-7V140.4z M60.6,154.9h7v7h-7V154.9z M60.6,162.2h7v7h-7
		V162.2z M60.6,169.5h7v7h-7V169.5z M60.6,176.7h7v7h-7V176.7z M60.6,191.3h7v7h-7V191.3z M60.6,198.5h7v7h-7V198.5z M60.6,205.8h7
		v7h-7V205.8z M60.6,213h7v7h-7V213z M60.6,220.3h7v7h-7V220.3z M60.6,227.5h7v7h-7V227.5z M60.6,234.8h7v7h-7V234.8z M60.6,242.1h7
		v7h-7V242.1z M60.6,249.3h7v7h-7V249.3z M60.6,256.6h7v7h-7V256.6z M60.6,263.9h7v7h-7V263.9z M60.6,271.1h7v7h-7V271.1z
		 M60.6,300.1h7v7h-7V300.1z M60.6,329.2h7v7h-7V329.2z M60.6,336.5h7v7h-7V336.5z M67.9,2.5h7v7h-7V2.5z M67.9,17h7v7h-7V17z
		 M67.9,24.3h7v7h-7V24.3z M67.9,31.5h7v7h-7V31.5z M67.9,38.8h7v7h-7V38.8z M67.9,46.1h7v7h-7V46.1z M67.9,53.3h7v7h-7V53.3z
		 M67.9,60.6h7v7h-7V60.6z M67.9,67.8h7v7h-7V67.8z M67.9,75.1h7v7h-7V75.1z M67.9,82.4h7v7h-7V82.4z M67.9,89.6h7v7h-7V89.6z
		 M67.9,96.9h7v7h-7V96.9z M67.9,104.1h7v7h-7V104.1z M67.9,125.9h7v7h-7V125.9z M67.9,133.2h7v7h-7V133.2z M67.9,147.7h7v7h-7
		V147.7z M67.9,154.9h7v7h-7V154.9z M67.9,176.7h7v7h-7V176.7z M67.9,184h7v7h-7V184z M67.9,198.5h7v7h-7V198.5z M67.9,205.8h7v7h-7
		V205.8z M67.9,213h7v7h-7V213z M67.9,220.3h7v7h-7V220.3z M67.9,227.5h7v7h-7V227.5z M67.9,234.8h7v7h-7V234.8z M67.9,242.1h7v7h-7
		V242.1z M67.9,249.3h7v7h-7V249.3z M67.9,256.6h7v7h-7V256.6z M67.9,263.9h7v7h-7V263.9z M67.9,271.1h7v7h-7V271.1z M67.9,278.4h7
		v7h-7V278.4z M67.9,285.6h7v7h-7V285.6z M67.9,292.9h7v7h-7V292.9z M67.9,307.4h7v7h-7V307.4z M67.9,314.7h7v7h-7V314.7z
		 M67.9,336.5h7v7h-7V336.5z M75.1,2.5h7v7h-7V2.5z M75.1,9.7h7v7h-7V9.7z M75.1,24.3h7v7h-7V24.3z M75.1,31.5h7v7h-7V31.5z
		 M75.1,38.8h7v7h-7V38.8z M75.1,46.1h7v7h-7V46.1z M75.1,53.3h7v7h-7V53.3z M75.1,60.6h7v7h-7V60.6z M75.1,67.8h7v7h-7V67.8z
		 M75.1,75.1h7v7h-7V75.1z M75.1,82.4h7v7h-7V82.4z M75.1,89.6h7v7h-7V89.6z M75.1,96.9h7v7h-7V96.9z M75.1,104.1h7v7h-7V104.1z
		 M75.1,125.9h7v7h-7V125.9z M75.1,133.2h7v7h-7V133.2z M75.1,147.7h7v7h-7V147.7z M75.1,184h7v7h-7V184z M75.1,198.5h7v7h-7V198.5z
		 M75.1,205.8h7v7h-7V205.8z M75.1,213h7v7h-7V213z M75.1,220.3h7v7h-7V220.3z M75.1,227.5h7v7h-7V227.5z M75.1,234.8h7v7h-7V234.8z
		 M75.1,242.1h7v7h-7V242.1z M75.1,249.3h7v7h-7V249.3z M75.1,256.6h7v7h-7V256.6z M75.1,263.9h7v7h-7V263.9z M75.1,271.1h7v7h-7
		V271.1z M75.1,278.4h7v7h-7V278.4z M75.1,285.6h7v7h-7V285.6z M75.1,292.9h7v7h-7V292.9z M75.1,300.1h7v7h-7V300.1z M75.1,314.7h7
		v7h-7V314.7z M75.1,321.9h7v7h-7V321.9z M75.1,329.2h7v7h-7V329.2z M75.1,336.5h7v7h-7V336.5z M82.4,2.5h7v7h-7V2.5z M82.4,17h7v7
		h-7V17z M82.4,24.3h7v7h-7V24.3z M82.4,31.5h7v7h-7V31.5z M82.4,38.8h7v7h-7V38.8z M82.4,46.1h7v7h-7V46.1z M82.4,53.3h7v7h-7V53.3
		z M82.4,60.6h7v7h-7V60.6z M82.4,67.8h7v7h-7V67.8z M82.4,75.1h7v7h-7V75.1z M82.4,82.4h7v7h-7V82.4z M82.4,89.6h7v7h-7V89.6z
		 M82.4,96.9h7v7h-7V96.9z M82.4,104.1h7v7h-7V104.1z M82.4,125.9h7v7h-7V125.9z M82.4,133.2h7v7h-7V133.2z M82.4,147.7h7v7h-7
		V147.7z M82.4,184h7v7h-7V184z M82.4,198.5h7v7h-7V198.5z M82.4,205.8h7v7h-7V205.8z M82.4,213h7v7h-7V213z M82.4,220.3h7v7h-7
		V220.3z M82.4,227.5h7v7h-7V227.5z M82.4,234.8h7v7h-7V234.8z M82.4,242.1h7v7h-7V242.1z M82.4,271.1h7v7h-7V271.1z M82.4,278.4h7
		v7h-7V278.4z M82.4,285.6h7v7h-7V285.6z M82.4,292.9h7v7h-7V292.9z M82.4,300.1h7v7h-7V300.1z M82.4,307.4h7v7h-7V307.4z
		 M82.4,321.9h7v7h-7V321.9z M82.4,329.2h7v7h-7V329.2z M82.4,336.5h7v7h-7V336.5z M89.7,2.5h7v7h-7V2.5z M89.7,9.7h7v7h-7V9.7z
		 M89.7,24.3h7v7h-7V24.3z M89.7,31.5h7v7h-7V31.5z M89.7,38.8h7v7h-7V38.8z M89.7,46.1h7v7h-7V46.1z M89.7,53.3h7v7h-7V53.3z
		 M89.7,67.8h7v7h-7V67.8z M89.7,75.1h7v7h-7V75.1z M89.7,82.4h7v7h-7V82.4z M89.7,96.9h7v7h-7V96.9z M89.7,104.1h7v7h-7V104.1z
		 M89.7,111.4h7v7h-7V111.4z M89.7,133.2h7v7h-7V133.2z M89.7,147.7h7v7h-7V147.7z M89.7,154.9h7v7h-7V154.9z M89.7,176.7h7v7h-7
		V176.7z M89.7,184h7v7h-7V184z M89.7,198.5h7v7h-7V198.5z M89.7,205.8h7v7h-7V205.8z M89.7,213h7v7h-7V213z M89.7,220.3h7v7h-7
		V220.3z M89.7,227.5h7v7h-7V227.5z M89.7,234.8h7v7h-7V234.8z M89.7,242.1h7v7h-7V242.1z M89.7,249.3h7v7h-7V249.3z M89.7,263.9h7
		v7h-7V263.9z M89.7,271.1h7v7h-7V271.1z M89.7,278.4h7v7h-7V278.4z M89.7,292.9h7v7h-7V292.9z M89.7,336.5h7v7h-7V336.5z M96.9,2.5
		h7v7h-7V2.5z M96.9,9.7h7v7h-7V9.7z M96.9,17h7v7h-7V17z M96.9,31.5h7v7h-7V31.5z M96.9,38.8h7v7h-7V38.8z M96.9,46.1h7v7h-7V46.1z
		 M96.9,53.3h7v7h-7V53.3z M96.9,60.6h7v7h-7V60.6z M96.9,75.1h7v7h-7V75.1z M96.9,89.6h7v7h-7V89.6z M96.9,96.9h7v7h-7V96.9z
		 M96.9,104.1h7v7h-7V104.1z M96.9,111.4h7v7h-7V111.4z M96.9,118.6h7v7h-7V118.6z M96.9,140.4h7v7h-7V140.4z M96.9,154.9h7v7h-7
		V154.9z M96.9,162.2h7v7h-7V162.2z M96.9,169.5h7v7h-7V169.5z M96.9,176.7h7v7h-7V176.7z M96.9,191.3h7v7h-7V191.3z M96.9,198.5h7
		v7h-7V198.5z M96.9,205.8h7v7h-7V205.8z M96.9,213h7v7h-7V213z M96.9,220.3h7v7h-7V220.3z M96.9,227.5h7v7h-7V227.5z M96.9,234.8h7
		v7h-7V234.8z M96.9,242.1h7v7h-7V242.1z M96.9,271.1h7v7h-7V271.1z M96.9,278.4h7v7h-7V278.4z M96.9,285.6h7v7h-7V285.6z
		 M96.9,292.9h7v7h-7V292.9z M96.9,300.1h7v7h-7V300.1z M96.9,307.4h7v7h-7V307.4z M96.9,321.9h7v7h-7V321.9z M96.9,329.2h7v7h-7
		V329.2z M96.9,336.5h7v7h-7V336.5z M104.2,2.5h7v7h-7V2.5z M104.2,9.7h7v7h-7V9.7z M104.2,24.3h7v7h-7V24.3z M104.2,31.5h7v7h-7
		V31.5z M104.2,38.8h7v7h-7V38.8z M104.2,46.1h7v7h-7V46.1z M104.2,53.3h7v7h-7V53.3z M104.2,60.6h7v7h-7V60.6z M104.2,75.1h7v7h-7
		V75.1z M104.2,89.6h7v7h-7V89.6z M104.2,96.9h7v7h-7V96.9z M104.2,104.1h7v7h-7V104.1z M104.2,111.4h7v7h-7V111.4z M104.2,118.6h7
		v7h-7V118.6z M104.2,125.9h7v7h-7V125.9z M104.2,140.4h7v7h-7V140.4z M104.2,147.7h7v7h-7V147.7z M104.2,184h7v7h-7V184z
		 M104.2,191.3h7v7h-7V191.3z M104.2,198.5h7v7h-7V198.5z M104.2,205.8h7v7h-7V205.8z M104.2,213h7v7h-7V213z M104.2,220.3h7v7h-7
		V220.3z M104.2,227.5h7v7h-7V227.5z M104.2,234.8h7v7h-7V234.8z M104.2,242.1h7v7h-7V242.1z M104.2,249.3h7v7h-7V249.3z
		 M104.2,263.9h7v7h-7V263.9z M104.2,271.1h7v7h-7V271.1z M104.2,278.4h7v7h-7V278.4z M104.2,292.9h7v7h-7V292.9z M104.2,336.5h7v7
		h-7V336.5z M111.4,2.5h7v7h-7V2.5z M111.4,9.7h7v7h-7V9.7z M111.4,17h7v7h-7V17z M111.4,31.5h7v7h-7V31.5z M111.4,38.8h7v7h-7V38.8
		z M111.4,46.1h7v7h-7V46.1z M111.4,60.6h7v7h-7V60.6z M111.4,75.1h7v7h-7V75.1z M111.4,89.6h7v7h-7V89.6z M111.4,104.1h7v7h-7
		V104.1z M111.4,111.4h7v7h-7V111.4z M111.4,118.6h7v7h-7V118.6z M111.4,125.9h7v7h-7V125.9z M111.4,133.2h7v7h-7V133.2z
		 M111.4,147.7h7v7h-7V147.7z M111.4,154.9h7v7h-7V154.9z M111.4,162.2h7v7h-7V162.2z M111.4,169.5h7v7h-7V169.5z M111.4,184h7v7h-7
		V184z M111.4,198.5h7v7h-7V198.5z M111.4,213h7v7h-7V213z M111.4,220.3h7v7h-7V220.3z M111.4,227.5h7v7h-7V227.5z M111.4,234.8h7v7
		h-7V234.8z M111.4,242.1h7v7h-7V242.1z M111.4,271.1h7v7h-7V271.1z M111.4,278.4h7v7h-7V278.4z M111.4,285.6h7v7h-7V285.6z
		 M111.4,292.9h7v7h-7V292.9z M111.4,300.1h7v7h-7V300.1z M111.4,307.4h7v7h-7V307.4z M111.4,321.9h7v7h-7V321.9z M111.4,329.2h7v7
		h-7V329.2z M111.4,336.5h7v7h-7V336.5z M118.7,2.5h7v7h-7V2.5z M118.7,9.7h7v7h-7V9.7z M118.7,17h7v7h-7V17z M118.7,24.3h7v7h-7
		V24.3z M118.7,38.8h7v7h-7V38.8z M118.7,46.1h7v7h-7V46.1z M118.7,53.3h7v7h-7V53.3z M118.7,60.6h7v7h-7V60.6z M118.7,67.8h7v7h-7
		V67.8z M118.7,75.1h7v7h-7V75.1z M118.7,82.4h7v7h-7V82.4z M118.7,89.6h7v7h-7V89.6z M118.7,96.9h7v7h-7V96.9z M118.7,111.4h7v7h-7
		V111.4z M118.7,118.6h7v7h-7V118.6z M118.7,125.9h7v7h-7V125.9z M118.7,133.2h7v7h-7V133.2z M118.7,140.4h7v7h-7V140.4z
		 M118.7,147.7h7v7h-7V147.7z M118.7,154.9h7v7h-7V154.9z M118.7,162.2h7v7h-7V162.2z M118.7,176.7h7v7h-7V176.7z M118.7,191.3h7v7
		h-7V191.3z M118.7,205.8h7v7h-7V205.8z M118.7,220.3h7v7h-7V220.3z M118.7,227.5h7v7h-7V227.5z M118.7,234.8h7v7h-7V234.8z
		 M118.7,242.1h7v7h-7V242.1z M118.7,249.3h7v7h-7V249.3z M118.7,263.9h7v7h-7V263.9z M118.7,271.1h7v7h-7V271.1z M118.7,278.4h7v7
		h-7V278.4z M118.7,292.9h7v7h-7V292.9z M118.7,336.5h7v7h-7V336.5z M126,2.5h7v7h-7V2.5z M126,9.7h7v7h-7V9.7z M126,17h7v7h-7V17z
		 M126,24.3h7v7h-7V24.3z M126,31.5h7v7h-7V31.5z M126,46.1h7v7h-7V46.1z M126,60.6h7v7h-7V60.6z M126,75.1h7v7h-7V75.1z M126,89.6
		h7v7h-7V89.6z M126,104.1h7v7h-7V104.1z M126,133.2h7v7h-7V133.2z M126,140.4h7v7h-7V140.4z M126,147.7h7v7h-7V147.7z M126,154.9h7
		v7h-7V154.9z M126,169.5h7v7h-7V169.5z M126,176.7h7v7h-7V176.7z M126,184h7v7h-7V184z M126,191.3h7v7h-7V191.3z M126,198.5h7v7h-7
		V198.5z M126,205.8h7v7h-7V205.8z M126,213h7v7h-7V213z M126,227.5h7v7h-7V227.5z M126,234.8h7v7h-7V234.8z M126,242.1h7v7h-7
		V242.1z M126,271.1h7v7h-7V271.1z M126,278.4h7v7h-7V278.4z M126,285.6h7v7h-7V285.6z M126,292.9h7v7h-7V292.9z M126,300.1h7v7h-7
		V300.1z M126,307.4h7v7h-7V307.4z M126,321.9h7v7h-7V321.9z M126,329.2h7v7h-7V329.2z M126,336.5h7v7h-7V336.5z M263.8,38.5h-7v-7
		h7V38.5z M263.8,45.8h-7v-7h7V45.8z M263.8,53.1h-7v-7h7V53.1z M263.8,60.3h-7v-7h7V60.3z M263.8,67.6h-7v-7h7V67.6z M263.8,74.8
		h-7v-7h7V74.8z M263.8,82.1h-7v-7h7V82.1z M263.8,89.4h-7v-7h7V89.4z M263.8,96.6h-7v-7h7V96.6z M263.8,103.9h-7v-7h7V103.9z
		 M263.8,111.1h-7v-7h7V111.1z M263.8,118.4h-7v-7h7V118.4z M263.8,125.6h-7v-7h7V125.6z M263.8,132.9h-7v-7h7V132.9z M263.8,278.1
		h-7v-7h7V278.1z M263.8,285.4h-7v-7h7V285.4z M263.8,292.6h-7v-7h7V292.6z M256.5,31.3h-7v-7h7V31.3z M256.5,38.5h-7v-7h7V38.5z
		 M256.5,53.1h-7v-7h7V53.1z M256.5,67.6h-7v-7h7V67.6z M256.5,82.1h-7v-7h7V82.1z M256.5,96.6h-7v-7h7V96.6z M256.5,111.1h-7v-7h7
		V111.1z M256.5,132.9h-7v-7h7V132.9z M256.5,140.2h-7v-7h7V140.2z M256.5,147.4h-7v-7h7V147.4z M256.5,154.7h-7v-7h7V154.7z
		 M256.5,161.9h-7v-7h7V161.9z M256.5,169.2h-7v-7h7V169.2z M256.5,176.5h-7v-7h7V176.5z M256.5,183.7h-7v-7h7V183.7z M256.5,191h-7
		v-7h7V191z M256.5,198.3h-7v-7h7V198.3z M256.5,205.5h-7v-7h7V205.5z M256.5,212.8h-7v-7h7V212.8z M256.5,220h-7v-7h7V220z
		 M256.5,227.3h-7v-7h7V227.3z M256.5,234.5h-7v-7h7V234.5z M256.5,241.8h-7v-7h7V241.8z M256.5,249.1h-7v-7h7V249.1z M256.5,256.3
		h-7v-7h7V256.3z M256.5,263.6h-7v-7h7V263.6z M256.5,270.9h-7v-7h7V270.9z M256.5,278.1h-7v-7h7V278.1z M256.5,292.6h-7v-7h7V292.6
		z M256.5,299.9h-7v-7h7V299.9z M249.2,24h-7v-7h7V24z M249.2,31.3h-7v-7h7V31.3z M249.2,45.8h-7v-7h7V45.8z M249.2,60.3h-7v-7h7
		V60.3z M249.2,74.8h-7v-7h7V74.8z M249.2,89.4h-7v-7h7V89.4z M249.2,103.9h-7v-7h7V103.9z M249.2,118.4h-7v-7h7V118.4z
		 M249.2,140.2h-7v-7h7V140.2z M249.2,154.7h-7v-7h7V154.7z M249.2,169.2h-7v-7h7V169.2z M249.2,183.7h-7v-7h7V183.7z M249.2,198.3
		h-7v-7h7V198.3z M249.2,205.5h-7v-7h7V205.5z M249.2,220h-7v-7h7V220z M249.2,227.3h-7v-7h7V227.3z M249.2,241.8h-7v-7h7V241.8z
		 M249.2,256.3h-7v-7h7V256.3z M249.2,270.9h-7v-7h7V270.9z M249.2,285.4h-7v-7h7V285.4z M249.2,299.9h-7v-7h7V299.9z M249.2,307.1
		h-7v-7h7V307.1z M242,16.7h-7v-7h7V16.7z M242,24h-7v-7h7V24z M242,38.5h-7v-7h7V38.5z M242,45.8h-7v-7h7V45.8z M242,53.1h-7v-7h7
		V53.1z M242,60.3h-7v-7h7V60.3z M242,67.6h-7v-7h7V67.6z M242,74.8h-7v-7h7V74.8z M242,82.1h-7v-7h7V82.1z M242,89.4h-7v-7h7V89.4z
		 M242,96.6h-7v-7h7V96.6z M242,103.9h-7v-7h7V103.9z M242,111.1h-7v-7h7V111.1z M242,118.4h-7v-7h7V118.4z M242,125.6h-7v-7h7
		V125.6z M242,140.2h-7v-7h7V140.2z M242,147.4h-7v-7h7V147.4z M242,161.9h-7v-7h7V161.9z M242,176.5h-7v-7h7V176.5z M242,191h-7v-7
		h7V191z M242,198.3h-7v-7h7V198.3z M242,212.8h-7v-7h7V212.8z M242,227.3h-7v-7h7V227.3z M242,234.5h-7v-7h7V234.5z M242,249.1h-7
		v-7h7V249.1z M242,263.6h-7v-7h7V263.6z M242,278.1h-7v-7h7V278.1z M242,292.6h-7v-7h7V292.6z M242,307.1h-7v-7h7V307.1z
		 M242,314.4h-7v-7h7V314.4z M234.7,9.5h-7v-7h7V9.5z M234.7,16.7h-7v-7h7V16.7z M234.7,24h-7v-7h7V24z M234.7,31.3h-7v-7h7V31.3z
		 M234.7,38.5h-7v-7h7V38.5z M234.7,45.8h-7v-7h7V45.8z M234.7,53.1h-7v-7h7V53.1z M234.7,60.3h-7v-7h7V60.3z M234.7,67.6h-7v-7h7
		V67.6z M234.7,74.8h-7v-7h7V74.8z M234.7,82.1h-7v-7h7V82.1z M234.7,89.4h-7v-7h7V89.4z M234.7,96.6h-7v-7h7V96.6z M234.7,103.9h-7
		v-7h7V103.9z M234.7,111.1h-7v-7h7V111.1z M234.7,118.4h-7v-7h7V118.4z M234.7,125.6h-7v-7h7V125.6z M234.7,132.9h-7v-7h7V132.9z
		 M234.7,140.2h-7v-7h7V140.2z M234.7,147.4h-7v-7h7V147.4z M234.7,154.7h-7v-7h7V154.7z M234.7,161.9h-7v-7h7V161.9z M234.7,169.2
		h-7v-7h7V169.2z M234.7,176.5h-7v-7h7V176.5z M234.7,191h-7v-7h7V191z M234.7,205.5h-7v-7h7V205.5z M234.7,220h-7v-7h7V220z
		 M234.7,234.5h-7v-7h7V234.5z M234.7,241.8h-7v-7h7V241.8z M234.7,256.3h-7v-7h7V256.3z M234.7,270.9h-7v-7h7V270.9z M234.7,285.4
		h-7v-7h7V285.4z M234.7,299.9h-7v-7h7V299.9z M234.7,314.4h-7v-7h7V314.4z M234.7,321.7h-7v-7h7V321.7z M227.5,9.5h-7v-7h7V9.5z
		 M227.5,16.7h-7v-7h7V16.7z M227.5,31.3h-7v-7h7V31.3z M227.5,45.8h-7v-7h7V45.8z M227.5,60.3h-7v-7h7V60.3z M227.5,74.8h-7v-7h7
		V74.8z M227.5,89.4h-7v-7h7V89.4z M227.5,103.9h-7v-7h7V103.9z M227.5,118.4h-7v-7h7V118.4z M227.5,132.9h-7v-7h7V132.9z
		 M227.5,140.2h-7v-7h7V140.2z M227.5,147.4h-7v-7h7V147.4z M227.5,154.7h-7v-7h7V154.7z M227.5,161.9h-7v-7h7V161.9z M227.5,169.2
		h-7v-7h7V169.2z M227.5,176.5h-7v-7h7V176.5z M227.5,183.7h-7v-7h7V183.7z M227.5,198.3h-7v-7h7V198.3z M227.5,212.8h-7v-7h7V212.8
		z M227.5,227.3h-7v-7h7V227.3z M227.5,241.8h-7v-7h7V241.8z M227.5,249.1h-7v-7h7V249.1z M227.5,263.6h-7v-7h7V263.6z M227.5,278.1
		h-7v-7h7V278.1z M227.5,292.6h-7v-7h7V292.6z M227.5,307.1h-7v-7h7V307.1z M227.5,314.4h-7v-7h7V314.4z M227.5,321.7h-7v-7h7V321.7
		z M227.5,328.9h-7v-7h7V328.9z M220.2,9.5h-7v-7h7V9.5z M220.2,24h-7v-7h7V24z M220.2,38.5h-7v-7h7V38.5z M220.2,53.1h-7v-7h7V53.1
		z M220.2,67.6h-7v-7h7V67.6z M220.2,82.1h-7v-7h7V82.1z M220.2,96.6h-7v-7h7V96.6z M220.2,111.1h-7v-7h7V111.1z M220.2,125.6h-7v-7
		h7V125.6z M220.2,132.9h-7v-7h7V132.9z M220.2,140.2h-7v-7h7V140.2z M220.2,147.4h-7v-7h7V147.4z M220.2,154.7h-7v-7h7V154.7z
		 M220.2,161.9h-7v-7h7V161.9z M220.2,169.2h-7v-7h7V169.2z M220.2,176.5h-7v-7h7V176.5z M220.2,183.7h-7v-7h7V183.7z M220.2,191h-7
		v-7h7V191z M220.2,205.5h-7v-7h7V205.5z M220.2,220h-7v-7h7V220z M220.2,234.5h-7v-7h7V234.5z M220.2,299.9h-7v-7h7V299.9z
		 M220.2,307.1h-7v-7h7V307.1z M220.2,314.4h-7v-7h7V314.4z M220.2,321.7h-7v-7h7V321.7z M220.2,328.9h-7v-7h7V328.9z M220.2,336.2
		h-7v-7h7V336.2z M212.9,9.5h-7v-7h7V9.5z M212.9,16.7h-7v-7h7V16.7z M212.9,24h-7v-7h7V24z M212.9,31.3h-7v-7h7V31.3z M212.9,38.5
		h-7v-7h7V38.5z M212.9,45.8h-7v-7h7V45.8z M212.9,53.1h-7v-7h7V53.1z M212.9,60.3h-7v-7h7V60.3z M212.9,67.6h-7v-7h7V67.6z
		 M212.9,74.8h-7v-7h7V74.8z M212.9,82.1h-7v-7h7V82.1z M212.9,89.4h-7v-7h7V89.4z M212.9,96.6h-7v-7h7V96.6z M212.9,103.9h-7v-7h7
		V103.9z M212.9,111.1h-7v-7h7V111.1z M212.9,118.4h-7v-7h7V118.4z M212.9,125.6h-7v-7h7V125.6z M212.9,132.9h-7v-7h7V132.9z
		 M212.9,140.2h-7v-7h7V140.2z M212.9,147.4h-7v-7h7V147.4z M212.9,154.7h-7v-7h7V154.7z M212.9,191h-7v-7h7V191z M212.9,198.3h-7
		v-7h7V198.3z M212.9,212.8h-7v-7h7V212.8z M212.9,220h-7v-7h7V220z M212.9,227.3h-7v-7h7V227.3z M212.9,234.5h-7v-7h7V234.5z
		 M212.9,241.8h-7v-7h7V241.8z M212.9,249.1h-7v-7h7V249.1z M212.9,256.3h-7v-7h7V256.3z M212.9,263.6h-7v-7h7V263.6z M212.9,270.9
		h-7v-7h7V270.9z M212.9,278.1h-7v-7h7V278.1z M212.9,285.4h-7v-7h7V285.4z M212.9,292.6h-7v-7h7V292.6z M212.9,299.9h-7v-7h7V299.9
		z M212.9,307.1h-7v-7h7V307.1z M212.9,314.4h-7v-7h7V314.4z M212.9,328.9h-7v-7h7V328.9z M212.9,336.2h-7v-7h7V336.2z M212.9,343.5
		h-7v-7h7V343.5z M205.7,9.5h-7v-7h7V9.5z M205.7,16.7h-7v-7h7V16.7z M205.7,31.3h-7v-7h7V31.3z M205.7,38.5h-7v-7h7V38.5z
		 M205.7,45.8h-7v-7h7V45.8z M205.7,53.1h-7v-7h7V53.1z M205.7,60.3h-7v-7h7V60.3z M205.7,67.6h-7v-7h7V67.6z M205.7,74.8h-7v-7h7
		V74.8z M205.7,82.1h-7v-7h7V82.1z M205.7,89.4h-7v-7h7V89.4z M205.7,96.6h-7v-7h7V96.6z M205.7,125.6h-7v-7h7V125.6z M205.7,132.9
		h-7v-7h7V132.9z M205.7,140.2h-7v-7h7V140.2z M205.7,147.4h-7v-7h7V147.4z M205.7,161.9h-7v-7h7V161.9z M205.7,169.2h-7v-7h7V169.2
		z M205.7,176.5h-7v-7h7V176.5z M205.7,183.7h-7v-7h7V183.7z M205.7,198.3h-7v-7h7V198.3z M205.7,205.5h-7v-7h7V205.5z M205.7,212.8
		h-7v-7h7V212.8z M205.7,220h-7v-7h7V220z M205.7,227.3h-7v-7h7V227.3z M205.7,234.5h-7v-7h7V234.5z M205.7,241.8h-7v-7h7V241.8z
		 M205.7,249.1h-7v-7h7V249.1z M205.7,256.3h-7v-7h7V256.3z M205.7,263.6h-7v-7h7V263.6z M205.7,270.9h-7v-7h7V270.9z M205.7,278.1
		h-7v-7h7V278.1z M205.7,307.1h-7v-7h7V307.1z M205.7,336.2h-7v-7h7V336.2z M205.7,343.5h-7v-7h7V343.5z M198.4,9.5h-7v-7h7V9.5z
		 M198.4,24h-7v-7h7V24z M198.4,31.3h-7v-7h7V31.3z M198.4,38.5h-7v-7h7V38.5z M198.4,45.8h-7v-7h7V45.8z M198.4,53.1h-7v-7h7V53.1z
		 M198.4,60.3h-7v-7h7V60.3z M198.4,67.6h-7v-7h7V67.6z M198.4,74.8h-7v-7h7V74.8z M198.4,82.1h-7v-7h7V82.1z M198.4,89.4h-7v-7h7
		V89.4z M198.4,96.6h-7v-7h7V96.6z M198.4,103.9h-7v-7h7V103.9z M198.4,111.1h-7v-7h7V111.1z M198.4,132.9h-7v-7h7V132.9z
		 M198.4,140.2h-7v-7h7V140.2z M198.4,154.7h-7v-7h7V154.7z M198.4,161.9h-7v-7h7V161.9z M198.4,183.7h-7v-7h7V183.7z M198.4,191h-7
		v-7h7V191z M198.4,205.5h-7v-7h7V205.5z M198.4,212.8h-7v-7h7V212.8z M198.4,220h-7v-7h7V220z M198.4,227.3h-7v-7h7V227.3z
		 M198.4,234.5h-7v-7h7V234.5z M198.4,241.8h-7v-7h7V241.8z M198.4,249.1h-7v-7h7V249.1z M198.4,256.3h-7v-7h7V256.3z M198.4,263.6
		h-7v-7h7V263.6z M198.4,270.9h-7v-7h7V270.9z M198.4,278.1h-7v-7h7V278.1z M198.4,285.4h-7v-7h7V285.4z M198.4,292.6h-7v-7h7V292.6
		z M198.4,299.9h-7v-7h7V299.9z M198.4,314.4h-7v-7h7V314.4z M198.4,321.7h-7v-7h7V321.7z M198.4,343.5h-7v-7h7V343.5z M191.2,9.5
		h-7v-7h7V9.5z M191.2,16.7h-7v-7h7V16.7z M191.2,31.3h-7v-7h7V31.3z M191.2,38.5h-7v-7h7V38.5z M191.2,45.8h-7v-7h7V45.8z
		 M191.2,53.1h-7v-7h7V53.1z M191.2,60.3h-7v-7h7V60.3z M191.2,67.6h-7v-7h7V67.6z M191.2,74.8h-7v-7h7V74.8z M191.2,82.1h-7v-7h7
		V82.1z M191.2,89.4h-7v-7h7V89.4z M191.2,96.6h-7v-7h7V96.6z M191.2,103.9h-7v-7h7V103.9z M191.2,111.1h-7v-7h7V111.1z
		 M191.2,132.9h-7v-7h7V132.9z M191.2,140.2h-7v-7h7V140.2z M191.2,154.7h-7v-7h7V154.7z M191.2,191h-7v-7h7V191z M191.2,205.5h-7
		v-7h7V205.5z M191.2,212.8h-7v-7h7V212.8z M191.2,220h-7v-7h7V220z M191.2,227.3h-7v-7h7V227.3z M191.2,234.5h-7v-7h7V234.5z
		 M191.2,241.8h-7v-7h7V241.8z M191.2,249.1h-7v-7h7V249.1z M191.2,256.3h-7v-7h7V256.3z M191.2,263.6h-7v-7h7V263.6z M191.2,270.9
		h-7v-7h7V270.9z M191.2,278.1h-7v-7h7V278.1z M191.2,285.4h-7v-7h7V285.4z M191.2,292.6h-7v-7h7V292.6z M191.2,299.9h-7v-7h7V299.9
		z M191.2,307.1h-7v-7h7V307.1z M191.2,321.7h-7v-7h7V321.7z M191.2,328.9h-7v-7h7V328.9z M191.2,336.2h-7v-7h7V336.2z M191.2,343.5
		h-7v-7h7V343.5z M183.9,9.5h-7v-7h7V9.5z M183.9,24h-7v-7h7V24z M183.9,31.3h-7v-7h7V31.3z M183.9,38.5h-7v-7h7V38.5z M183.9,45.8
		h-7v-7h7V45.8z M183.9,53.1h-7v-7h7V53.1z M183.9,60.3h-7v-7h7V60.3z M183.9,67.6h-7v-7h7V67.6z M183.9,74.8h-7v-7h7V74.8z
		 M183.9,82.1h-7v-7h7V82.1z M183.9,89.4h-7v-7h7V89.4z M183.9,96.6h-7v-7h7V96.6z M183.9,103.9h-7v-7h7V103.9z M183.9,111.1h-7v-7
		h7V111.1z M183.9,132.9h-7v-7h7V132.9z M183.9,140.2h-7v-7h7V140.2z M183.9,154.7h-7v-7h7V154.7z M183.9,191h-7v-7h7V191z
		 M183.9,205.5h-7v-7h7V205.5z M183.9,212.8h-7v-7h7V212.8z M183.9,220h-7v-7h7V220z M183.9,227.3h-7v-7h7V227.3z M183.9,234.5h-7
		v-7h7V234.5z M183.9,241.8h-7v-7h7V241.8z M183.9,249.1h-7v-7h7V249.1z M183.9,278.1h-7v-7h7V278.1z M183.9,285.4h-7v-7h7V285.4z
		 M183.9,292.6h-7v-7h7V292.6z M183.9,299.9h-7v-7h7V299.9z M183.9,307.1h-7v-7h7V307.1z M183.9,314.4h-7v-7h7V314.4z M183.9,328.9
		h-7v-7h7V328.9z M183.9,336.2h-7v-7h7V336.2z M183.9,343.5h-7v-7h7V343.5z M176.6,9.5h-7v-7h7V9.5z M176.6,16.7h-7v-7h7V16.7z
		 M176.6,31.3h-7v-7h7V31.3z M176.6,38.5h-7v-7h7V38.5z M176.6,45.8h-7v-7h7V45.8z M176.6,53.1h-7v-7h7V53.1z M176.6,60.3h-7v-7h7
		V60.3z M176.6,74.8h-7v-7h7V74.8z M176.6,82.1h-7v-7h7V82.1z M176.6,89.4h-7v-7h7V89.4z M176.6,103.9h-7v-7h7V103.9z M176.6,111.1
		h-7v-7h7V111.1z M176.6,118.4h-7v-7h7V118.4z M176.6,140.2h-7v-7h7V140.2z M176.6,154.7h-7v-7h7V154.7z M176.6,161.9h-7v-7h7V161.9
		z M176.6,183.7h-7v-7h7V183.7z M176.6,191h-7v-7h7V191z M176.6,205.5h-7v-7h7V205.5z M176.6,212.8h-7v-7h7V212.8z M176.6,220h-7v-7
		h7V220z M176.6,227.3h-7v-7h7V227.3z M176.6,234.5h-7v-7h7V234.5z M176.6,241.8h-7v-7h7V241.8z M176.6,249.1h-7v-7h7V249.1z
		 M176.6,256.3h-7v-7h7V256.3z M176.6,270.9h-7v-7h7V270.9z M176.6,278.1h-7v-7h7V278.1z M176.6,285.4h-7v-7h7V285.4z M176.6,299.9
		h-7v-7h7V299.9z M176.6,343.5h-7v-7h7V343.5z M169.4,9.5h-7v-7h7V9.5z M169.4,16.7h-7v-7h7V16.7z M169.4,24h-7v-7h7V24z
		 M169.4,38.5h-7v-7h7V38.5z M169.4,45.8h-7v-7h7V45.8z M169.4,53.1h-7v-7h7V53.1z M169.4,60.3h-7v-7h7V60.3z M169.4,67.6h-7v-7h7
		V67.6z M169.4,82.1h-7v-7h7V82.1z M169.4,96.6h-7v-7h7V96.6z M169.4,103.9h-7v-7h7V103.9z M169.4,111.1h-7v-7h7V111.1z
		 M169.4,118.4h-7v-7h7V118.4z M169.4,125.6h-7v-7h7V125.6z M169.4,147.4h-7v-7h7V147.4z M169.4,161.9h-7v-7h7V161.9z M169.4,169.2
		h-7v-7h7V169.2z M169.4,176.5h-7v-7h7V176.5z M169.4,183.7h-7v-7h7V183.7z M169.4,198.3h-7v-7h7V198.3z M169.4,205.5h-7v-7h7V205.5
		z M169.4,212.8h-7v-7h7V212.8z M169.4,220h-7v-7h7V220z M169.4,227.3h-7v-7h7V227.3z M169.4,234.5h-7v-7h7V234.5z M169.4,241.8h-7
		v-7h7V241.8z M169.4,249.1h-7v-7h7V249.1z M169.4,278.1h-7v-7h7V278.1z M169.4,285.4h-7v-7h7V285.4z M169.4,292.6h-7v-7h7V292.6z
		 M169.4,299.9h-7v-7h7V299.9z M169.4,307.1h-7v-7h7V307.1z M169.4,314.4h-7v-7h7V314.4z M169.4,328.9h-7v-7h7V328.9z M169.4,336.2
		h-7v-7h7V336.2z M169.4,343.5h-7v-7h7V343.5z M162.1,9.5h-7v-7h7V9.5z M162.1,16.7h-7v-7h7V16.7z M162.1,31.3h-7v-7h7V31.3z
		 M162.1,38.5h-7v-7h7V38.5z M162.1,45.8h-7v-7h7V45.8z M162.1,53.1h-7v-7h7V53.1z M162.1,60.3h-7v-7h7V60.3z M162.1,67.6h-7v-7h7
		V67.6z M162.1,82.1h-7v-7h7V82.1z M162.1,96.6h-7v-7h7V96.6z M162.1,103.9h-7v-7h7V103.9z M162.1,111.1h-7v-7h7V111.1z
		 M162.1,118.4h-7v-7h7V118.4z M162.1,125.6h-7v-7h7V125.6z M162.1,132.9h-7v-7h7V132.9z M162.1,147.4h-7v-7h7V147.4z M162.1,154.7
		h-7v-7h7V154.7z M162.1,191h-7v-7h7V191z M162.1,198.3h-7v-7h7V198.3z M162.1,205.5h-7v-7h7V205.5z M162.1,212.8h-7v-7h7V212.8z
		 M162.1,220h-7v-7h7V220z M162.1,227.3h-7v-7h7V227.3z M162.1,234.5h-7v-7h7V234.5z M162.1,241.8h-7v-7h7V241.8z M162.1,249.1h-7
		v-7h7V249.1z M162.1,256.3h-7v-7h7V256.3z M162.1,270.9h-7v-7h7V270.9z M162.1,278.1h-7v-7h7V278.1z M162.1,285.4h-7v-7h7V285.4z
		 M162.1,299.9h-7v-7h7V299.9z M162.1,343.5h-7v-7h7V343.5z M154.9,9.5h-7v-7h7V9.5z M154.9,16.7h-7v-7h7V16.7z M154.9,24h-7v-7h7
		V24z M154.9,38.5h-7v-7h7V38.5z M154.9,45.8h-7v-7h7V45.8z M154.9,53.1h-7v-7h7V53.1z M154.9,67.6h-7v-7h7V67.6z M154.9,82.1h-7v-7
		h7V82.1z M154.9,96.6h-7v-7h7V96.6z M154.9,111.1h-7v-7h7V111.1z M154.9,118.4h-7v-7h7V118.4z M154.9,125.6h-7v-7h7V125.6z
		 M154.9,132.9h-7v-7h7V132.9z M154.9,140.2h-7v-7h7V140.2z M154.9,154.7h-7v-7h7V154.7z M154.9,161.9h-7v-7h7V161.9z M154.9,169.2
		h-7v-7h7V169.2z M154.9,176.5h-7v-7h7V176.5z M154.9,191h-7v-7h7V191z M154.9,205.5h-7v-7h7V205.5z M154.9,220h-7v-7h7V220z
		 M154.9,227.3h-7v-7h7V227.3z M154.9,234.5h-7v-7h7V234.5z M154.9,241.8h-7v-7h7V241.8z M154.9,249.1h-7v-7h7V249.1z M154.9,278.1
		h-7v-7h7V278.1z M154.9,285.4h-7v-7h7V285.4z M154.9,292.6h-7v-7h7V292.6z M154.9,299.9h-7v-7h7V299.9z M154.9,307.1h-7v-7h7V307.1
		z M154.9,314.4h-7v-7h7V314.4z M154.9,328.9h-7v-7h7V328.9z M154.9,336.2h-7v-7h7V336.2z M154.9,343.5h-7v-7h7V343.5z M147.6,9.5
		h-7v-7h7V9.5z M147.6,16.7h-7v-7h7V16.7z M147.6,24h-7v-7h7V24z M147.6,31.3h-7v-7h7V31.3z M147.6,45.8h-7v-7h7V45.8z M147.6,53.1
		h-7v-7h7V53.1z M147.6,60.3h-7v-7h7V60.3z M147.6,67.6h-7v-7h7V67.6z M147.6,74.8h-7v-7h7V74.8z M147.6,82.1h-7v-7h7V82.1z
		 M147.6,89.4h-7v-7h7V89.4z M147.6,96.6h-7v-7h7V96.6z M147.6,103.9h-7v-7h7V103.9z M147.6,118.4h-7v-7h7V118.4z M147.6,125.6h-7
		v-7h7V125.6z M147.6,132.9h-7v-7h7V132.9z M147.6,140.2h-7v-7h7V140.2z M147.6,147.4h-7v-7h7V147.4z M147.6,154.7h-7v-7h7V154.7z
		 M147.6,161.9h-7v-7h7V161.9z M147.6,169.2h-7v-7h7V169.2z M147.6,183.7h-7v-7h7V183.7z M147.6,198.3h-7v-7h7V198.3z M147.6,212.8
		h-7v-7h7V212.8z M147.6,227.3h-7v-7h7V227.3z M147.6,234.5h-7v-7h7V234.5z M147.6,241.8h-7v-7h7V241.8z M147.6,249.1h-7v-7h7V249.1
		z M147.6,256.3h-7v-7h7V256.3z M147.6,270.9h-7v-7h7V270.9z M147.6,278.1h-7v-7h7V278.1z M147.6,285.4h-7v-7h7V285.4z M147.6,299.9
		h-7v-7h7V299.9z M147.6,343.5h-7v-7h7V343.5z M140.3,9.5h-7v-7h7V9.5z M140.3,16.7h-7v-7h7V16.7z M140.3,24h-7v-7h7V24z
		 M140.3,31.3h-7v-7h7V31.3z M140.3,38.5h-7v-7h7V38.5z M140.3,53.1h-7v-7h7V53.1z M140.3,67.6h-7v-7h7V67.6z M140.3,82.1h-7v-7h7
		V82.1z M140.3,96.6h-7v-7h7V96.6z M140.3,111.1h-7v-7h7V111.1z M140.3,140.2h-7v-7h7V140.2z M140.3,147.4h-7v-7h7V147.4z
		 M140.3,154.7h-7v-7h7V154.7z M140.3,161.9h-7v-7h7V161.9z M140.3,176.5h-7v-7h7V176.5z M140.3,183.7h-7v-7h7V183.7z M140.3,191h-7
		v-7h7V191z M140.3,198.3h-7v-7h7V198.3z M140.3,205.5h-7v-7h7V205.5z M140.3,212.8h-7v-7h7V212.8z M140.3,220h-7v-7h7V220z
		 M140.3,234.5h-7v-7h7V234.5z M140.3,241.8h-7v-7h7V241.8z M140.3,249.1h-7v-7h7V249.1z M140.3,278.1h-7v-7h7V278.1z M140.3,285.4
		h-7v-7h7V285.4z M140.3,292.6h-7v-7h7V292.6z M140.3,299.9h-7v-7h7V299.9z M140.3,307.1h-7v-7h7V307.1z M140.3,314.4h-7v-7h7V314.4
		z M140.3,328.9h-7v-7h7V328.9z M140.3,336.2h-7v-7h7V336.2z M140.3,343.5h-7v-7h7V343.5z"/>
</g>
</svg>
