<?xml version="1.0" encoding="utf-8"?>
<!-- Generator: Adobe Illustrator 27.3.1, SVG Export Plug-In . SVG Version: 6.00 Build 0)  -->
<svg version="1.1" xmlns="http://www.w3.org/2000/svg" xmlns:xlink="http://www.w3.org/1999/xlink" x="0px" y="0px"
	 viewBox="0 0 266.3 346" style="enable-background:new 0 0 266.3 346;" xml:space="preserve">
<style type="text/css">
	.st0{fill:#FBE7B4;}
	.st1{fill:#1E0E01;}
</style>
<g id="Слой_2">
	<path class="st0" d="M266.2,31.6c0-1.4-1.1-2.5-2.5-2.5h-4.8v-4.8c0-1.4-1.1-2.5-2.5-2.5h-4.8V17c0-1.4-1.1-2.5-2.5-2.5h-4.8V9.8
		c0-1.4-1.1-2.5-2.5-2.5h-7c0,0-0.1,0-0.1,0c0,0-0.1,0-0.1,0h-4.8V2.5c0-1.4-1.1-2.5-2.5-2.5h-7c0,0-0.1,0-0.1,0c0,0-0.1,0-0.1,0h-7
		c0,0-0.1,0-0.1,0c0,0-0.1,0-0.1,0h-7c0,0-0.1,0-0.1,0c0,0-0.1,0-0.1,0h-7c0,0-0.1,0-0.1,0c0,0-0.1,0-0.1,0h-7c0,0-0.1,0-0.1,0
		c0,0-0.1,0-0.1,0h-7c0,0-0.1,0-0.1,0c0,0-0.1,0-0.1,0h-7c0,0-0.1,0-0.1,0c0,0-0.1,0-0.1,0h-7c0,0-0.1,0-0.1,0c0,0-0.1,0-0.1,0h-7
		c0,0-0.1,0-0.1,0c0,0-0.1,0-0.1,0h-7c0,0-0.1,0-0.1,0c0,0-0.1,0-0.1,0h-7c0,0-0.1,0-0.1,0c0,0-0.1,0-0.1,0h-7c0,0-0.1,0-0.1,0
		c0,0-0.1,0-0.1,0h-7c0,0-0.1,0-0.1,0c0,0-0.1,0-0.1,0h-7c0,0-0.1,0-0.1,0c0,0-0.1,0-0.1,0h-7c0,0-0.1,0-0.1,0c0,0-0.1,0-0.1,0h-7
		c0,0-0.1,0-0.1,0c0,0-0.1,0-0.1,0h-7c0,0-0.1,0-0.1,0c0,0-0.1,0-0.1,0h-7c0,0-0.1,0-0.1,0c0,0-0.1,0-0.1,0h-7c0,0-0.1,0-0.1,0
		c0,0-0.1,0-0.1,0h-7c0,0-0.1,0-0.1,0c0,0-0.1,0-0.1,0h-7c0,0-0.1,0-0.1,0c0,0-0.1,0-0.1,0h-7c0,0-0.1,0-0.1,0c0,0-0.1,0-0.1,0h-7
		c0,0-0.1,0-0.1,0c0,0-0.1,0-0.1,0h-7c0,0-0.1,0-0.1,0c0,0-0.1,0-0.1,0h-7c0,0-0.1,0-0.1,0c0,0-0.1,0-0.1,0h-7
		c-1.4,0-2.5,1.1-2.5,2.5v4.8h-4.8c0,0-0.1,0-0.1,0c0,0-0.1,0-0.1,0h-7c-1.4,0-2.5,1.1-2.5,2.5v4.8h-4.8c-1.4,0-2.5,1.1-2.5,2.5v4.8
		H9.9c-1.4,0-2.5,1.1-2.5,2.5v4.8H2.6c-1.4,0-2.5,1.1-2.5,2.5v7c0,0,0,0.1,0,0.1c0,0,0,0.1,0,0.1v7c0,0,0,0.1,0,0.1c0,0,0,0.1,0,0.1
		v7c0,0,0,0.1,0,0.1c0,0,0,0.1,0,0.1v7c0,0,0,0.1,0,0.1c0,0,0,0.1,0,0.1v7c0,0,0,0.1,0,0.1c0,0,0,0.1,0,0.1v7c0,0,0,0.1,0,0.1
		c0,0,0,0.1,0,0.1v7c0,0,0,0.1,0,0.1c0,0,0,0.1,0,0.1v7c0,0,0,0.1,0,0.1c0,0,0,0.1,0,0.1v7c0,0,0,0.1,0,0.1c0,0,0,0.1,0,0.1v7
		c0,0,0,0.1,0,0.1c0,0,0,0.1,0,0.1v7c0,0,0,0.1,0,0.1c0,0,0,0.1,0,0.1v7c0,0,0,0.1,0,0.1c0,0,0,0.1,0,0.1v7c0,1.4,1.1,2.5,2.5,2.5
		h4.8v4.8c0,0,0,0.1,0,0.1c0,0,0,0.1,0,0.1v7c0,0,0,0.1,0,0.1c0,0,0,0.1,0,0.1v7c0,0,0,0.1,0,0.1c0,0,0,0.1,0,0.1v7c0,0,0,0.1,0,0.1
		c0,0,0,0.1,0,0.1v7c0,0,0,0.1,0,0.1c0,0,0,0.1,0,0.1v7c0,0,0,0.1,0,0.1c0,0,0,0.1,0,0.1v4.8H2.6c-1.4,0-2.5,1.1-2.5,2.5v7
		c0,0,0,0.1,0,0.1c0,0,0,0.1,0,0.1v7c0,0,0,0.1,0,0.1c0,0,0,0.1,0,0.1v7c0,0,0,0.1,0,0.1c0,0,0,0.1,0,0.1v7c0,0,0,0.1,0,0.1
		c0,0,0,0.1,0,0.1v7c0,0,0,0.1,0,0.1c0,0,0,0.1,0,0.1v7c0,0,0,0.1,0,0.1c0,0,0,0.1,0,0.1v7c0,0,0,0.1,0,0.1c0,0,0,0.1,0,0.1v7
		c0,0,0,0.1,0,0.1c0,0,0,0.1,0,0.1v7c0,0,0,0.1,0,0.1c0,0,0,0.1,0,0.1v7c0,0,0,0.1,0,0.1c0,0,0,0.1,0,0.1v7c0,0,0,0.1,0,0.1
		c0,0,0,0.1,0,0.1v7c0,0,0,0.1,0,0.1c0,0,0,0.1,0,0.1v7c0,0,0,0.1,0,0.1c0,0,0,0.1,0,0.1v7c0,0,0,0.1,0,0.1c0,0,0,0.1,0,0.1v7
		c0,0,0,0.1,0,0.1c0,0,0,0.1,0,0.1v7c0,0,0,0.1,0,0.1c0,0,0,0.1,0,0.1v7c0,0,0,0.1,0,0.1c0,0,0,0.1,0,0.1v7c0,1.4,1.1,2.5,2.5,2.5
		h4.8v4.8c0,1.4,1.1,2.5,2.5,2.5h4.8v4.8c0,1.4,1.1,2.5,2.5,2.5h4.8v4.8c0,1.4,1.1,2.5,2.5,2.5h4.8v4.8c0,1.4,1.1,2.5,2.5,2.5h7
		c0,0,0.1,0,0.1,0c0,0,0.1,0,0.1,0h4.8v4.8c0,1.4,1.1,2.5,2.5,2.5h7c0,0,0.1,0,0.1,0c0,0,0.1,0,0.1,0h7c0,0,0.1,0,0.1,0
		c0,0,0.1,0,0.1,0h7c0,0,0.1,0,0.1,0c0,0,0.1,0,0.1,0h7c0,0,0.1,0,0.1,0c0,0,0.1,0,0.1,0h7c0,0,0.1,0,0.1,0c0,0,0.1,0,0.1,0h7
		c0,0,0.1,0,0.1,0c0,0,0.1,0,0.1,0h7c0,0,0.1,0,0.1,0c0,0,0.1,0,0.1,0h7c0,0,0.1,0,0.1,0c0,0,0.1,0,0.1,0h7c0,0,0.1,0,0.1,0
		c0,0,0.1,0,0.1,0h7c0,0,0.1,0,0.1,0c0,0,0.1,0,0.1,0h7c0,0,0.1,0,0.1,0c0,0,0.1,0,0.1,0h7c0,0,0.1,0,0.1,0c0,0,0.1,0,0.1,0h7
		c0,0,0.1,0,0.1,0c0,0,0.1,0,0.1,0h7c0,0,0.1,0,0.1,0c0,0,0.1,0,0.1,0h7c0,0,0.1,0,0.1,0c0,0,0.1,0,0.1,0h7c0,0,0.1,0,0.1,0
		c0,0,0.1,0,0.1,0h7c0,0,0.1,0,0.1,0c0,0,0.1,0,0.1,0h7c0,0,0.1,0,0.1,0c0,0,0.1,0,0.1,0h7c0,0,0.1,0,0.1,0c0,0,0.1,0,0.1,0h7
		c0,0,0.1,0,0.1,0c0,0,0.1,0,0.1,0h7c0,0,0.1,0,0.1,0c0,0,0.1,0,0.1,0h7c0,0,0.1,0,0.1,0c0,0,0.1,0,0.1,0h7c0,0,0.1,0,0.1,0
		c0,0,0.1,0,0.1,0h7c0,0,0.1,0,0.1,0c0,0,0.1,0,0.1,0h7c1.4,0,2.5-1.1,2.5-2.5v-4.8h4.8c1.4,0,2.5-1.1,2.5-2.5v-4.8h4.8
		c1.4,0,2.5-1.1,2.5-2.5v-4.8h4.8c1.4,0,2.5-1.1,2.5-2.5v-4.8h4.8c1.4,0,2.5-1.1,2.5-2.5v-4.8h4.8c1.4,0,2.5-1.1,2.5-2.5v-7
		c0,0,0-0.1,0-0.1c0,0,0-0.1,0-0.1v-7c0,0,0-0.1,0-0.1c0,0,0-0.1,0-0.1v-7c0,0,0-0.1,0-0.1c0,0,0-0.1,0-0.1v-7c0,0,0-0.1,0-0.1
		c0,0,0-0.1,0-0.1v-7c0,0,0-0.1,0-0.1c0,0,0-0.1,0-0.1v-7c0,0,0-0.1,0-0.1c0,0,0-0.1,0-0.1v-7c0,0,0-0.1,0-0.1c0,0,0-0.1,0-0.1v-7
		c0,0,0-0.1,0-0.1c0,0,0-0.1,0-0.1v-7c0,0,0-0.1,0-0.1c0,0,0-0.1,0-0.1v-7c0,0,0-0.1,0-0.1c0,0,0-0.1,0-0.1v-7c0,0,0-0.1,0-0.1
		c0,0,0-0.1,0-0.1v-7c0,0,0-0.1,0-0.1c0,0,0-0.1,0-0.1v-7c0,0,0-0.1,0-0.1c0,0,0-0.1,0-0.1v-7c0,0,0-0.1,0-0.1c0,0,0-0.1,0-0.1v-7
		c0,0,0-0.1,0-0.1c0,0,0-0.1,0-0.1v-7c0,0,0-0.1,0-0.1c0,0,0-0.1,0-0.1v-7c0,0,0-0.1,0-0.1c0,0,0-0.1,0-0.1v-7
		c0-1.4-1.1-2.5-2.5-2.5h-4.8v-4.8c0,0,0-0.1,0-0.1c0,0,0-0.1,0-0.1v-7c0,0,0-0.1,0-0.1c0,0,0-0.1,0-0.1v-7c0,0,0-0.1,0-0.1
		c0,0,0-0.1,0-0.1v-7c0,0,0-0.1,0-0.1c0,0,0-0.1,0-0.1v-7c0,0,0-0.1,0-0.1c0,0,0-0.1,0-0.1v-7c0,0,0-0.1,0-0.1c0,0,0-0.1,0-0.1v-4.8
		h4.8c1.4,0,2.5-1.1,2.5-2.5v-7c0,0,0-0.1,0-0.1c0,0,0-0.1,0-0.1v-7c0,0,0-0.1,0-0.1c0,0,0-0.1,0-0.1v-7c0,0,0-0.1,0-0.1
		c0,0,0-0.1,0-0.1v-7c0,0,0-0.1,0-0.1c0,0,0-0.1,0-0.1v-7c0,0,0-0.1,0-0.1c0,0,0-0.1,0-0.1v-7c0,0,0-0.1,0-0.1c0,0,0-0.1,0-0.1v-7
		c0,0,0-0.1,0-0.1c0,0,0-0.1,0-0.1v-7c0,0,0-0.1,0-0.1c0,0,0-0.1,0-0.1v-7c0,0,0-0.1,0-0.1c0,0,0-0.1,0-0.1v-7c0,0,0-0.1,0-0.1
		c0,0,0-0.1,0-0.1v-7c0,0,0-0.1,0-0.1c0,0,0-0.1,0-0.1v-7c0,0,0-0.1,0-0.1c0,0,0-0.1,0-0.1V31.6z"/>
</g>
<g id="Слой_1">
	<path class="st1" d="M38.9,2.5h7v7h-7V2.5z M46.2,2.5h7v7h-7V2.5z M53.4,2.5h7v7h-7V2.5z M60.7,2.5h7v7h-7V2.5z M67.9,2.5h7v7h-7
		V2.5z M75.2,2.5h7v7h-7V2.5z M82.5,2.5h7v7h-7V2.5z M89.7,2.5h7v7h-7V2.5z M97,2.5h7v7h-7V2.5z M104.2,2.5h7v7h-7V2.5z M111.5,2.5
		h7v7h-7V2.5z M118.8,2.5h7v7h-7V2.5z M126,2.5h7v7h-7V2.5z M133.3,2.5h7v7h-7V2.5z M140.5,2.5h7v7h-7V2.5z M147.8,2.5h7v7h-7V2.5z
		 M155.1,2.5h7v7h-7V2.5z M162.3,2.5h7v7h-7V2.5z M169.6,2.5h7v7h-7V2.5z M176.8,2.5h7v7h-7V2.5z M184.1,2.5h7v7h-7V2.5z M191.4,2.5
		h7v7h-7V2.5z M198.6,2.5h7v7h-7V2.5z M205.9,2.5h7v7h-7V2.5z M213.1,2.5h7v7h-7V2.5z M220.4,2.5h7v7h-7V2.5z M24.4,9.8h7v7h-7V9.8z
		 M31.6,9.8h7v7h-7V9.8z M38.9,9.8h7v7h-7V9.8z M46.2,9.8h7v7h-7V9.8z M82.5,9.8h7v7h-7V9.8z M111.5,9.8h7v7h-7V9.8z M155.1,9.8h7v7
		h-7V9.8z M184.1,9.8h7v7h-7V9.8z M220.4,9.8h7v7h-7V9.8z M227.7,9.8h7v7h-7V9.8z M234.9,9.8h7v7h-7V9.8z M17.1,17h7v7h-7V17z
		 M24.4,17h7v7h-7V17z M31.6,17h7v7h-7V17z M46.2,17h7v7h-7V17z M53.4,17h7v7h-7V17z M60.7,17h7v7h-7V17z M75.2,17h7v7h-7V17z
		 M82.5,17h7v7h-7V17z M111.5,17h7v7h-7V17z M118.8,17h7v7h-7V17z M147.8,17h7v7h-7V17z M155.1,17h7v7h-7V17z M184.1,17h7v7h-7V17z
		 M205.9,17h7v7h-7V17z M213.1,17h7v7h-7V17z M220.4,17h7v7h-7V17z M234.9,17h7v7h-7V17z M242.2,17h7v7h-7V17z M9.9,24.3h7v7h-7
		V24.3z M17.1,24.3h7v7h-7V24.3z M24.4,24.3h7v7h-7V24.3z M46.2,24.3h7v7h-7V24.3z M53.4,24.3h7v7h-7V24.3z M60.7,24.3h7v7h-7V24.3z
		 M75.2,24.3h7v7h-7V24.3z M82.5,24.3h7v7h-7V24.3z M111.5,24.3h7v7h-7V24.3z M118.8,24.3h7v7h-7V24.3z M126,24.3h7v7h-7V24.3z
		 M133.3,24.3h7v7h-7V24.3z M140.5,24.3h7v7h-7V24.3z M147.8,24.3h7v7h-7V24.3z M155.1,24.3h7v7h-7V24.3z M184.1,24.3h7v7h-7V24.3z
		 M205.9,24.3h7v7h-7V24.3z M213.1,24.3h7v7h-7V24.3z M242.2,24.3h7v7h-7V24.3z M249.4,24.3h7v7h-7V24.3z M2.6,31.6h7v7h-7V31.6z
		 M9.9,31.6h7v7h-7V31.6z M75.2,31.6h7v7h-7V31.6z M82.5,31.6h7v7h-7V31.6z M111.5,31.6h7v7h-7V31.6z M118.8,31.6h7v7h-7V31.6z
		 M126,31.6h7v7h-7V31.6z M133.3,31.6h7v7h-7V31.6z M140.5,31.6h7v7h-7V31.6z M147.8,31.6h7v7h-7V31.6z M155.1,31.6h7v7h-7V31.6z
		 M184.1,31.6h7v7h-7V31.6z M256.7,31.6h7v7h-7V31.6z M2.6,38.8h7v7h-7V38.8z M46.2,38.8h7v7h-7V38.8z M53.4,38.8h7v7h-7V38.8z
		 M60.7,38.8h7v7h-7V38.8z M75.2,38.8h7v7h-7V38.8z M82.5,38.8h7v7h-7V38.8z M111.5,38.8h7v7h-7V38.8z M118.8,38.8h7v7h-7V38.8z
		 M126,38.8h7v7h-7V38.8z M133.3,38.8h7v7h-7V38.8z M140.5,38.8h7v7h-7V38.8z M147.8,38.8h7v7h-7V38.8z M155.1,38.8h7v7h-7V38.8z
		 M184.1,38.8h7v7h-7V38.8z M205.9,38.8h7v7h-7V38.8z M213.1,38.8h7v7h-7V38.8z M220.4,38.8h7v7h-7V38.8z M256.7,38.8h7v7h-7V38.8z
		 M2.6,46.1h7v7h-7V46.1z M38.9,46.1h7v7h-7V46.1z M46.2,46.1h7v7h-7V46.1z M53.4,46.1h7v7h-7V46.1z M60.7,46.1h7v7h-7V46.1z
		 M75.2,46.1h7v7h-7V46.1z M82.5,46.1h7v7h-7V46.1z M111.5,46.1h7v7h-7V46.1z M118.8,46.1h7v7h-7V46.1z M126,46.1h7v7h-7V46.1z
		 M133.3,46.1h7v7h-7V46.1z M140.5,46.1h7v7h-7V46.1z M147.8,46.1h7v7h-7V46.1z M155.1,46.1h7v7h-7V46.1z M184.1,46.1h7v7h-7V46.1z
		 M205.9,46.1h7v7h-7V46.1z M213.1,46.1h7v7h-7V46.1z M220.4,46.1h7v7h-7V46.1z M9.9,53.3h7v7h-7V53.3z M46.2,53.3h7v7h-7V53.3z
		 M53.4,53.3h7v7h-7V53.3z M60.7,53.3h7v7h-7V53.3z M75.2,53.3h7v7h-7V53.3z M82.5,53.3h7v7h-7V53.3z M111.5,53.3h7v7h-7V53.3z
		 M118.8,53.3h7v7h-7V53.3z M126,53.3h7v7h-7V53.3z M133.3,53.3h7v7h-7V53.3z M140.5,53.3h7v7h-7V53.3z M147.8,53.3h7v7h-7V53.3z
		 M155.1,53.3h7v7h-7V53.3z M184.1,53.3h7v7h-7V53.3z M205.9,53.3h7v7h-7V53.3z M213.1,53.3h7v7h-7V53.3z M220.4,53.3h7v7h-7V53.3z
		 M2.6,60.6h7v7h-7V60.6z M2.6,53.3h7v7h-7V53.3z M75.2,60.6h7v7h-7V60.6z M82.5,60.6h7v7h-7V60.6z M89.7,60.6h7v7h-7V60.6z
		 M111.5,60.6h7v7h-7V60.6z M118.8,60.6h7v7h-7V60.6z M126,60.6h7v7h-7V60.6z M133.3,60.6h7v7h-7V60.6z M140.5,60.6h7v7h-7V60.6z
		 M147.8,60.6h7v7h-7V60.6z M155.1,60.6h7v7h-7V60.6z M176.8,60.6h7v7h-7V60.6z M184.1,60.6h7v7h-7V60.6z M234.9,60.6h7v7h-7V60.6z
		 M256.7,60.6h7v7h-7V60.6z M256.7,53.3h7v7h-7V53.3z M256.7,46.1h7v7h-7V46.1z M2.6,67.9h7v7h-7V67.9z M9.9,67.9h7v7h-7V67.9z
		 M17.1,67.9h7v7h-7V67.9z M24.4,67.9h7v7h-7V67.9z M82.5,67.9h7v7h-7V67.9z M89.7,67.9h7v7h-7V67.9z M169.6,67.9h7v7h-7V67.9z
		 M176.8,67.9h7v7h-7V67.9z M184.1,67.9h7v7h-7V67.9z M242.2,67.9h7v7h-7V67.9z M256.7,67.9h7v7h-7V67.9z M2.6,75.1h7v7h-7V75.1z
		 M9.9,75.1h7v7h-7V75.1z M17.1,75.1h7v7h-7V75.1z M89.7,75.1h7v7h-7V75.1z M97,75.1h7v7h-7V75.1z M104.2,75.1h7v7h-7V75.1z
		 M111.5,75.1h7v7h-7V75.1z M118.8,75.1h7v7h-7V75.1z M126,75.1h7v7h-7V75.1z M133.3,75.1h7v7h-7V75.1z M140.5,75.1h7v7h-7V75.1z
		 M147.8,75.1h7v7h-7V75.1z M155.1,75.1h7v7h-7V75.1z M162.3,75.1h7v7h-7V75.1z M169.6,75.1h7v7h-7V75.1z M176.8,75.1h7v7h-7V75.1z
		 M249.4,75.1h7v7h-7V75.1z M249.4,67.9h7v7h-7V67.9z M249.4,60.6h7v7h-7V60.6z M249.4,31.6h7v7h-7V31.6z M256.7,75.1h7v7h-7V75.1z
		 M2.6,82.4h7v7h-7V82.4z M9.9,82.4h7v7h-7V82.4z M38.9,82.4h7v7h-7V82.4z M46.2,82.4h7v7h-7V82.4z M53.4,82.4h7v7h-7V82.4z
		 M104.2,82.4h7v7h-7V82.4z M111.5,82.4h7v7h-7V82.4z M147.8,82.4h7v7h-7V82.4z M155.1,82.4h7v7h-7V82.4z M213.1,82.4h7v7h-7V82.4z
		 M220.4,82.4h7v7h-7V82.4z M227.7,82.4h7v7h-7V82.4z M256.7,82.4h7v7h-7V82.4z M2.6,89.6h7v7h-7V89.6z M9.9,89.6h7v7h-7V89.6z
		 M31.6,89.6h7v7h-7V89.6z M38.9,89.6h7v7h-7V89.6z M46.2,89.6h7v7h-7V89.6z M53.4,89.6h7v7h-7V89.6z M60.7,89.6h7v7h-7V89.6z
		 M67.9,89.6h7v7h-7V89.6z M111.5,89.6h7v7h-7V89.6z M118.8,89.6h7v7h-7V89.6z M126,89.6h7v7h-7V89.6z M133.3,89.6h7v7h-7V89.6z
		 M140.5,89.6h7v7h-7V89.6z M147.8,89.6h7v7h-7V89.6z M155.1,89.6h7v7h-7V89.6z M198.6,89.6h7v7h-7V89.6z M205.9,89.6h7v7h-7V89.6z
		 M213.1,89.6h7v7h-7V89.6z M220.4,89.6h7v7h-7V89.6z M227.7,89.6h7v7h-7V89.6z M234.9,89.6h7v7h-7V89.6z M256.7,89.6h7v7h-7V89.6z
		 M2.6,96.9h7v7h-7V96.9z M9.9,96.9h7v7h-7V96.9z M17.1,96.9h7v7h-7V96.9z M24.4,96.9h7v7h-7V96.9z M31.6,96.9h7v7h-7V96.9z
		 M38.9,96.9h7v7h-7V96.9z M60.7,96.9h7v7h-7V96.9z M67.9,96.9h7v7h-7V96.9z M75.2,96.9h7v7h-7V96.9z M82.5,96.9h7v7h-7V96.9z
		 M89.7,96.9h7v7h-7V96.9z M155.1,96.9h7v7h-7V96.9z M176.8,96.9h7v7h-7V96.9z M184.1,96.9h7v7h-7V96.9z M191.4,96.9h7v7h-7V96.9z
		 M198.6,96.9h7v7h-7V96.9z M227.7,96.9h7v7h-7V96.9z M234.9,96.9h7v7h-7V96.9z M242.2,96.9h7v7h-7V96.9z M249.4,96.9h7v7h-7V96.9z
		 M256.7,96.9h7v7h-7V96.9z M2.6,104.2h7v7h-7V104.2z M9.9,104.2h7v7h-7V104.2z M17.1,104.2h7v7h-7V104.2z M24.4,104.2h7v7h-7V104.2
		z M89.7,104.2h7v7h-7V104.2z M97,104.2h7v7h-7V104.2z M104.2,104.2h7v7h-7V104.2z M155.1,104.2h7v7h-7V104.2z M162.3,104.2h7v7h-7
		V104.2z M169.6,104.2h7v7h-7V104.2z M176.8,104.2h7v7h-7V104.2z M242.2,104.2h7v7h-7V104.2z M249.4,104.2h7v7h-7V104.2z
		 M256.7,104.2h7v7h-7V104.2z M2.6,111.4h7v7h-7V111.4z M9.9,111.4h7v7h-7V111.4z M17.1,111.4h7v7h-7V111.4z M31.6,111.4h7v7h-7
		V111.4z M97,111.4h7v7h-7V111.4z M104.2,111.4h7v7h-7V111.4z M111.5,111.4h7v7h-7V111.4z M155.1,111.4h7v7h-7V111.4z M162.3,111.4
		h7v7h-7V111.4z M234.9,111.4h7v7h-7V111.4z M242.2,111.4h7v7h-7V111.4z M249.4,111.4h7v7h-7V111.4z M256.7,111.4h7v7h-7V111.4z
		 M2.6,118.7h7v7h-7V118.7z M9.9,118.7h7v7h-7V118.7z M17.1,118.7h7v7h-7V118.7z M24.4,118.7h7v7h-7V118.7z M75.2,118.7h7v7h-7
		V118.7z M82.5,118.7h7v7h-7V118.7z M111.5,118.7h7v7h-7V118.7z M118.8,118.7h7v7h-7V118.7z M147.8,118.7h7v7h-7V118.7z
		 M184.1,118.7h7v7h-7V118.7z M242.2,118.7h7v7h-7V118.7z M249.4,118.7h7v7h-7V118.7z M256.7,118.7h7v7h-7V118.7z M9.9,125.9h7v7h-7
		V125.9z M17.1,125.9h7v7h-7V125.9z M38.9,125.9h7v7h-7V125.9z M46.2,125.9h7v7h-7V125.9z M53.4,125.9h7v7h-7V125.9z M60.7,125.9h7
		v7h-7V125.9z M97,125.9h7v7h-7V125.9z M118.8,125.9h7v7h-7V125.9z M169.6,125.9h7v7h-7V125.9z M205.9,125.9h7v7h-7V125.9z
		 M213.1,125.9h7v7h-7V125.9z M220.4,125.9h7v7h-7V125.9z M227.7,125.9h7v7h-7V125.9z M249.4,125.9h7v7h-7V125.9z M9.9,133.2h7v7h-7
		V133.2z M17.1,133.2h7v7h-7V133.2z M31.6,133.2h7v7h-7V133.2z M38.9,133.2h7v7h-7V133.2z M46.2,133.2h7v7h-7V133.2z M53.4,133.2h7
		v7h-7V133.2z M60.7,133.2h7v7h-7V133.2z M67.9,133.2h7v7h-7V133.2z M104.2,133.2h7v7h-7V133.2z M118.8,133.2h7v7h-7V133.2z
		 M155.1,133.2h7v7h-7V133.2z M191.4,133.2h7v7h-7V133.2z M198.6,133.2h7v7h-7V133.2z M205.9,133.2h7v7h-7V133.2z M213.1,133.2h7v7
		h-7V133.2z M220.4,133.2h7v7h-7V133.2z M227.7,133.2h7v7h-7V133.2z M234.9,133.2h7v7h-7V133.2z M249.4,133.2h7v7h-7V133.2z
		 M9.9,140.5h7v7h-7V140.5z M17.1,140.5h7v7h-7V140.5z M24.4,140.5h7v7h-7V140.5z M31.6,140.5h7v7h-7V140.5z M38.9,140.5h7v7h-7
		V140.5z M46.2,140.5h7v7h-7V140.5z M53.4,140.5h7v7h-7V140.5z M60.7,140.5h7v7h-7V140.5z M67.9,140.5h7v7h-7V140.5z M75.2,140.5h7
		v7h-7V140.5z M82.5,140.5h7v7h-7V140.5z M118.8,140.5h7v7h-7V140.5z M147.8,140.5h7v7h-7V140.5z M176.8,140.5h7v7h-7V140.5z
		 M184.1,140.5h7v7h-7V140.5z M191.4,140.5h7v7h-7V140.5z M198.6,140.5h7v7h-7V140.5z M205.9,140.5h7v7h-7V140.5z M213.1,140.5h7v7
		h-7V140.5z M220.4,140.5h7v7h-7V140.5z M227.7,140.5h7v7h-7V140.5z M234.9,140.5h7v7h-7V140.5z M242.2,140.5h7v7h-7V140.5z
		 M249.4,140.5h7v7h-7V140.5z M9.9,147.7h7v7h-7V147.7z M17.1,147.7h7v7h-7V147.7z M24.4,147.7h7v7h-7V147.7z M38.9,147.7h7v7h-7
		V147.7z M46.2,147.7h7v7h-7V147.7z M53.4,147.7h7v7h-7V147.7z M60.7,147.7h7v7h-7V147.7z M67.9,147.7h7v7h-7V147.7z M75.2,147.7h7
		v7h-7V147.7z M82.5,147.7h7v7h-7V147.7z M89.7,147.7h7v7h-7V147.7z M97,147.7h7v7h-7V147.7z M118.8,147.7h7v7h-7V147.7z
		 M147.8,147.7h7v7h-7V147.7z M169.6,147.7h7v7h-7V147.7z M176.8,147.7h7v7h-7V147.7z M184.1,147.7h7v7h-7V147.7z M191.4,147.7h7v7
		h-7V147.7z M198.6,147.7h7v7h-7V147.7z M205.9,147.7h7v7h-7V147.7z M213.1,147.7h7v7h-7V147.7z M220.4,147.7h7v7h-7V147.7z
		 M227.7,147.7h7v7h-7V147.7z M234.9,147.7h7v7h-7V147.7z M242.2,147.7h7v7h-7V147.7z M249.4,147.7h7v7h-7V147.7z M9.9,155h7v7h-7
		V155z M17.1,155h7v7h-7V155z M24.4,155h7v7h-7V155z M38.9,155h7v7h-7V155z M46.2,155h7v7h-7V155z M53.4,155h7v7h-7V155z M60.7,155
		h7v7h-7V155z M67.9,155h7v7h-7V155z M97,155h7v7h-7V155z M104.2,155h7v7h-7V155z M111.5,155h7v7h-7V155z M118.8,155h7v7h-7V155z
		 M126,155h7v7h-7V155z M133.3,155h7v7h-7V155z M140.5,155h7v7h-7V155z M147.8,155h7v7h-7V155z M155.1,155h7v7h-7V155z M162.3,155h7
		v7h-7V155z M169.6,155h7v7h-7V155z M198.6,155h7v7h-7V155z M205.9,155h7v7h-7V155z M213.1,155h7v7h-7V155z M220.4,155h7v7h-7V155z
		 M227.7,155h7v7h-7V155z M234.9,155h7v7h-7V155z M242.2,155h7v7h-7V155z M249.4,155h7v7h-7V155z M9.9,162.2h7v7h-7V162.2z
		 M17.1,162.2h7v7h-7V162.2z M24.4,162.2h7v7h-7V162.2z M31.6,162.2h7v7h-7V162.2z M38.9,162.2h7v7h-7V162.2z M46.2,162.2h7v7h-7
		V162.2z M53.4,162.2h7v7h-7V162.2z M60.7,162.2h7v7h-7V162.2z M67.9,162.2h7v7h-7V162.2z M97,162.2h7v7h-7V162.2z M104.2,162.2h7v7
		h-7V162.2z M111.5,162.2h7v7h-7V162.2z M118.8,162.2h7v7h-7V162.2z M126,162.2h7v7h-7V162.2z M133.3,162.2h7v7h-7V162.2z
		 M140.5,162.2h7v7h-7V162.2z M147.8,162.2h7v7h-7V162.2z M155.1,162.2h7v7h-7V162.2z M162.3,162.2h7v7h-7V162.2z M169.6,162.2h7v7
		h-7V162.2z M191.4,162.2h7v7h-7V162.2z M198.6,162.2h7v7h-7V162.2z M205.9,162.2h7v7h-7V162.2z M213.1,162.2h7v7h-7V162.2z
		 M220.4,162.2h7v7h-7V162.2z M227.7,162.2h7v7h-7V162.2z M234.9,162.2h7v7h-7V162.2z M242.2,162.2h7v7h-7V162.2z M249.4,162.2h7v7
		h-7V162.2z M9.9,169.5h7v7h-7V169.5z M17.1,169.5h7v7h-7V169.5z M38.9,169.5h7v7h-7V169.5z M46.2,169.5h7v7h-7V169.5z M53.4,169.5
		h7v7h-7V169.5z M60.7,169.5h7v7h-7V169.5z M67.9,169.5h7v7h-7V169.5z M75.2,169.5h7v7h-7V169.5z M82.5,169.5h7v7h-7V169.5z
		 M89.7,169.5h7v7h-7V169.5z M97,169.5h7v7h-7V169.5z M104.2,169.5h7v7h-7V169.5z M111.5,169.5h7v7h-7V169.5z M118.8,169.5h7v7h-7
		V169.5z M147.8,169.5h7v7h-7V169.5z M155.1,169.5h7v7h-7V169.5z M162.3,169.5h7v7h-7V169.5z M169.6,169.5h7v7h-7V169.5z
		 M176.8,169.5h7v7h-7V169.5z M184.1,169.5h7v7h-7V169.5z M191.4,169.5h7v7h-7V169.5z M198.6,169.5h7v7h-7V169.5z M205.9,169.5h7v7
		h-7V169.5z M213.1,169.5h7v7h-7V169.5z M220.4,169.5h7v7h-7V169.5z M242.2,169.5h7v7h-7V169.5z M249.4,169.5h7v7h-7V169.5z
		 M2.6,176.8h7v7h-7V176.8z M9.9,176.8h7v7h-7V176.8z M17.1,176.8h7v7h-7V176.8z M46.2,176.8h7v7h-7V176.8z M53.4,176.8h7v7h-7
		V176.8z M60.7,176.8h7v7h-7V176.8z M67.9,176.8h7v7h-7V176.8z M75.2,176.8h7v7h-7V176.8z M82.5,176.8h7v7h-7V176.8z M89.7,176.8h7
		v7h-7V176.8z M97,176.8h7v7h-7V176.8z M104.2,176.8h7v7h-7V176.8z M111.5,176.8h7v7h-7V176.8z M155.1,176.8h7v7h-7V176.8z
		 M162.3,176.8h7v7h-7V176.8z M169.6,176.8h7v7h-7V176.8z M176.8,176.8h7v7h-7V176.8z M184.1,176.8h7v7h-7V176.8z M191.4,176.8h7v7
		h-7V176.8z M198.6,176.8h7v7h-7V176.8z M205.9,176.8h7v7h-7V176.8z M213.1,176.8h7v7h-7V176.8z M220.4,176.8h7v7h-7V176.8z
		 M249.4,176.8h7v7h-7V176.8z M256.7,176.8h7v7h-7V176.8z M2.6,184h7v7h-7V184z M9.9,184h7v7h-7V184z M17.1,184h7v7h-7V184z
		 M53.4,184h7v7h-7V184z M60.7,184h7v7h-7V184z M67.9,184h7v7h-7V184z M75.2,184h7v7h-7V184z M82.5,184h7v7h-7V184z M89.7,184h7v7
		h-7V184z M97,184h7v7h-7V184z M111.5,184h7v7h-7V184z M162.3,184h7v7h-7V184z M169.6,184h7v7h-7V184z M176.8,184h7v7h-7V184z
		 M184.1,184h7v7h-7V184z M191.4,184h7v7h-7V184z M198.6,184h7v7h-7V184z M205.9,184h7v7h-7V184z M213.1,184h7v7h-7V184z M249.4,184
		h7v7h-7V184z M256.7,184h7v7h-7V184z M2.6,191.3h7v7h-7V191.3z M9.9,191.3h7v7h-7V191.3z M17.1,191.3h7v7h-7V191.3z M67.9,191.3h7
		v7h-7V191.3z M75.2,191.3h7v7h-7V191.3z M126,191.3h7v7h-7V191.3z M133.3,191.3h7v7h-7V191.3z M169.6,191.3h7v7h-7V191.3z
		 M184.1,191.3h7v7h-7V191.3z M191.4,191.3h7v7h-7V191.3z M198.6,191.3h7v7h-7V191.3z M242.2,191.3h7v7h-7V191.3z M249.4,191.3h7v7
		h-7V191.3z M256.7,191.3h7v7h-7V191.3z M2.6,198.5h7v7h-7V198.5z M9.9,198.5h7v7h-7V198.5z M17.1,198.5h7v7h-7V198.5z M24.4,198.5
		h7v7h-7V198.5z M126,198.5h7v7h-7V198.5z M133.3,198.5h7v7h-7V198.5z M140.5,198.5h7v7h-7V198.5z M184.1,198.5h7v7h-7V198.5z
		 M234.9,198.5h7v7h-7V198.5z M242.2,198.5h7v7h-7V198.5z M249.4,198.5h7v7h-7V198.5z M256.7,198.5h7v7h-7V198.5z M2.6,205.8h7v7h-7
		V205.8z M9.9,205.8h7v7h-7V205.8z M17.1,205.8h7v7h-7V205.8z M24.4,205.8h7v7h-7V205.8z M31.6,205.8h7v7h-7V205.8z M38.9,205.8h7v7
		h-7V205.8z M97,205.8h7v7h-7V205.8z M118.8,205.8h7v7h-7V205.8z M126,205.8h7v7h-7V205.8z M133.3,205.8h7v7h-7V205.8z M140.5,205.8
		h7v7h-7V205.8z M147.8,205.8h7v7h-7V205.8z M169.6,205.8h7v7h-7V205.8z M227.7,205.8h7v7h-7V205.8z M234.9,205.8h7v7h-7V205.8z
		 M242.2,205.8h7v7h-7V205.8z M249.4,205.8h7v7h-7V205.8z M256.7,205.8h7v7h-7V205.8z M24.4,213.1h7v7h-7V213.1z M31.6,213.1h7v7h-7
		V213.1z M38.9,213.1h7v7h-7V213.1z M46.2,213.1h7v7h-7V213.1z M60.7,213.1h7v7h-7V213.1z M67.9,213.1h7v7h-7V213.1z M82.5,213.1h7
		v7h-7V213.1z M89.7,213.1h7v7h-7V213.1z M111.5,213.1h7v7h-7V213.1z M118.8,213.1h7v7h-7V213.1z M126,213.1h7v7h-7V213.1z
		 M133.3,213.1h7v7h-7V213.1z M140.5,213.1h7v7h-7V213.1z M147.8,213.1h7v7h-7V213.1z M176.8,213.1h7v7h-7V213.1z M198.6,213.1h7v7
		h-7V213.1z M205.9,213.1h7v7h-7V213.1z M213.1,213.1h7v7h-7V213.1z M220.4,213.1h7v7h-7V213.1z M227.7,213.1h7v7h-7V213.1z
		 M234.9,213.1h7v7h-7V213.1z M31.6,220.3h7v7h-7V220.3z M38.9,220.3h7v7h-7V220.3z M46.2,220.3h7v7h-7V220.3z M53.4,220.3h7v7h-7
		V220.3z M60.7,220.3h7v7h-7V220.3z M75.2,220.3h7v7h-7V220.3z M82.5,220.3h7v7h-7V220.3z M89.7,220.3h7v7h-7V220.3z M118.8,220.3h7
		v7h-7V220.3z M126,220.3h7v7h-7V220.3z M140.5,220.3h7v7h-7V220.3z M147.8,220.3h7v7h-7V220.3z M169.6,220.3h7v7h-7V220.3z
		 M176.8,220.3h7v7h-7V220.3z M184.1,220.3h7v7h-7V220.3z M191.4,220.3h7v7h-7V220.3z M198.6,220.3h7v7h-7V220.3z M205.9,220.3h7v7
		h-7V220.3z M213.1,220.3h7v7h-7V220.3z M220.4,220.3h7v7h-7V220.3z M227.7,220.3h7v7h-7V220.3z M234.9,220.3h7v7h-7V220.3z
		 M24.4,227.6h7v7h-7V227.6z M31.6,227.6h7v7h-7V227.6z M38.9,227.6h7v7h-7V227.6z M46.2,227.6h7v7h-7V227.6z M53.4,227.6h7v7h-7
		V227.6z M60.7,227.6h7v7h-7V227.6z M67.9,227.6h7v7h-7V227.6z M75.2,227.6h7v7h-7V227.6z M82.5,227.6h7v7h-7V227.6z M89.7,227.6h7
		v7h-7V227.6z M169.6,227.6h7v7h-7V227.6z M176.8,227.6h7v7h-7V227.6z M184.1,227.6h7v7h-7V227.6z M191.4,227.6h7v7h-7V227.6z
		 M198.6,227.6h7v7h-7V227.6z M205.9,227.6h7v7h-7V227.6z M213.1,227.6h7v7h-7V227.6z M220.4,227.6h7v7h-7V227.6z M227.7,227.6h7v7
		h-7V227.6z M234.9,227.6h7v7h-7V227.6z M2.6,234.8h7v7h-7V234.8z M2.6,227.6h7v7h-7V227.6z M2.6,220.3h7v7h-7V220.3z M2.6,213.1h7
		v7h-7V213.1z M9.9,234.8h7v7h-7V234.8z M17.1,234.8h7v7h-7V234.8z M24.4,234.8h7v7h-7V234.8z M31.6,234.8h7v7h-7V234.8z
		 M38.9,234.8h7v7h-7V234.8z M46.2,234.8h7v7h-7V234.8z M53.4,234.8h7v7h-7V234.8z M60.7,234.8h7v7h-7V234.8z M67.9,234.8h7v7h-7
		V234.8z M75.2,234.8h7v7h-7V234.8z M89.7,234.8h7v7h-7V234.8z M97,234.8h7v7h-7V234.8z M169.6,234.8h7v7h-7V234.8z M176.8,234.8h7
		v7h-7V234.8z M184.1,234.8h7v7h-7V234.8z M191.4,234.8h7v7h-7V234.8z M198.6,234.8h7v7h-7V234.8z M205.9,234.8h7v7h-7V234.8z
		 M213.1,234.8h7v7h-7V234.8z M220.4,234.8h7v7h-7V234.8z M234.9,234.8h7v7h-7V234.8z M242.2,234.8h7v7h-7V234.8z M249.4,234.8h7v7
		h-7V234.8z M256.7,234.8h7v7h-7V234.8z M256.7,227.6h7v7h-7V227.6z M256.7,220.3h7v7h-7V220.3z M256.7,213.1h7v7h-7V213.1z
		 M2.6,242.1h7v7h-7V242.1z M9.9,242.1h7v7h-7V242.1z M17.1,242.1h7v7h-7V242.1z M24.4,242.1h7v7h-7V242.1z M31.6,242.1h7v7h-7
		V242.1z M60.7,242.1h7v7h-7V242.1z M67.9,242.1h7v7h-7V242.1z M75.2,242.1h7v7h-7V242.1z M82.5,242.1h7v7h-7V242.1z M176.8,242.1h7
		v7h-7V242.1z M184.1,242.1h7v7h-7V242.1z M191.4,242.1h7v7h-7V242.1z M198.6,242.1h7v7h-7V242.1z M205.9,242.1h7v7h-7V242.1z
		 M234.9,242.1h7v7h-7V242.1z M242.2,242.1h7v7h-7V242.1z M249.4,242.1h7v7h-7V242.1z M256.7,242.1h7v7h-7V242.1z M2.6,249.4h7v7h-7
		V249.4z M9.9,249.4h7v7h-7V249.4z M17.1,249.4h7v7h-7V249.4z M24.4,249.4h7v7h-7V249.4z M31.6,249.4h7v7h-7V249.4z M38.9,249.4h7v7
		h-7V249.4z M60.7,249.4h7v7h-7V249.4z M67.9,249.4h7v7h-7V249.4z M75.2,249.4h7v7h-7V249.4z M82.5,249.4h7v7h-7V249.4z M89.7,249.4
		h7v7h-7V249.4z M97,249.4h7v7h-7V249.4z M104.2,249.4h7v7h-7V249.4z M111.5,249.4h7v7h-7V249.4z M118.8,249.4h7v7h-7V249.4z
		 M126,249.4h7v7h-7V249.4z M133.3,249.4h7v7h-7V249.4z M140.5,249.4h7v7h-7V249.4z M147.8,249.4h7v7h-7V249.4z M155.1,249.4h7v7h-7
		V249.4z M162.3,249.4h7v7h-7V249.4z M169.6,249.4h7v7h-7V249.4z M176.8,249.4h7v7h-7V249.4z M184.1,249.4h7v7h-7V249.4z
		 M191.4,249.4h7v7h-7V249.4z M198.6,249.4h7v7h-7V249.4z M205.9,249.4h7v7h-7V249.4z M234.9,249.4h7v7h-7V249.4z M242.2,249.4h7v7
		h-7V249.4z M249.4,249.4h7v7h-7V249.4z M256.7,249.4h7v7h-7V249.4z M2.6,256.6h7v7h-7V256.6z M9.9,256.6h7v7h-7V256.6z M17.1,256.6
		h7v7h-7V256.6z M24.4,256.6h7v7h-7V256.6z M38.9,256.6h7v7h-7V256.6z M60.7,256.6h7v7h-7V256.6z M67.9,256.6h7v7h-7V256.6z
		 M75.2,256.6h7v7h-7V256.6z M82.5,256.6h7v7h-7V256.6z M89.7,256.6h7v7h-7V256.6z M104.2,256.6h7v7h-7V256.6z M118.8,256.6h7v7h-7
		V256.6z M133.3,256.6h7v7h-7V256.6z M147.8,256.6h7v7h-7V256.6z M169.6,256.6h7v7h-7V256.6z M176.8,256.6h7v7h-7V256.6z
		 M184.1,256.6h7v7h-7V256.6z M191.4,256.6h7v7h-7V256.6z M198.6,256.6h7v7h-7V256.6z M205.9,256.6h7v7h-7V256.6z M220.4,256.6h7v7
		h-7V256.6z M234.9,256.6h7v7h-7V256.6z M242.2,256.6h7v7h-7V256.6z M249.4,256.6h7v7h-7V256.6z M256.7,256.6h7v7h-7V256.6z
		 M2.6,263.9h7v7h-7V263.9z M9.9,263.9h7v7h-7V263.9z M17.1,263.9h7v7h-7V263.9z M24.4,263.9h7v7h-7V263.9z M31.6,263.9h7v7h-7
		V263.9z M38.9,263.9h7v7h-7V263.9z M46.2,263.9h7v7h-7V263.9z M60.7,263.9h7v7h-7V263.9z M67.9,263.9h7v7h-7V263.9z M75.2,263.9h7
		v7h-7V263.9z M82.5,263.9h7v7h-7V263.9z M89.7,263.9h7v7h-7V263.9z M176.8,263.9h7v7h-7V263.9z M184.1,263.9h7v7h-7V263.9z
		 M191.4,263.9h7v7h-7V263.9z M198.6,263.9h7v7h-7V263.9z M205.9,263.9h7v7h-7V263.9z M220.4,263.9h7v7h-7V263.9z M234.9,263.9h7v7
		h-7V263.9z M242.2,263.9h7v7h-7V263.9z M249.4,263.9h7v7h-7V263.9z M24.4,271.1h7v7h-7V271.1z M31.6,271.1h7v7h-7V271.1z
		 M38.9,271.1h7v7h-7V271.1z M46.2,271.1h7v7h-7V271.1z M60.7,271.1h7v7h-7V271.1z M67.9,271.1h7v7h-7V271.1z M75.2,271.1h7v7h-7
		V271.1z M82.5,271.1h7v7h-7V271.1z M89.7,271.1h7v7h-7V271.1z M97,271.1h7v7h-7V271.1z M104.2,271.1h7v7h-7V271.1z M118.8,271.1h7
		v7h-7V271.1z M133.3,271.1h7v7h-7V271.1z M147.8,271.1h7v7h-7V271.1z M162.3,271.1h7v7h-7V271.1z M169.6,271.1h7v7h-7V271.1z
		 M176.8,271.1h7v7h-7V271.1z M184.1,271.1h7v7h-7V271.1z M191.4,271.1h7v7h-7V271.1z M198.6,271.1h7v7h-7V271.1z M205.9,271.1h7v7
		h-7V271.1z M220.4,271.1h7v7h-7V271.1z M227.7,271.1h7v7h-7V271.1z M234.9,271.1h7v7h-7V271.1z M242.2,271.1h7v7h-7V271.1z
		 M31.6,278.4h7v7h-7V278.4z M46.2,278.4h7v7h-7V278.4z M53.4,278.4h7v7h-7V278.4z M60.7,278.4h7v7h-7V278.4z M67.9,278.4h7v7h-7
		V278.4z M75.2,278.4h7v7h-7V278.4z M82.5,278.4h7v7h-7V278.4z M97,278.4h7v7h-7V278.4z M111.5,278.4h7v7h-7V278.4z M118.8,278.4h7
		v7h-7V278.4z M126,278.4h7v7h-7V278.4z M133.3,278.4h7v7h-7V278.4z M140.5,278.4h7v7h-7V278.4z M147.8,278.4h7v7h-7V278.4z
		 M155.1,278.4h7v7h-7V278.4z M169.6,278.4h7v7h-7V278.4z M184.1,278.4h7v7h-7V278.4z M191.4,278.4h7v7h-7V278.4z M198.6,278.4h7v7
		h-7V278.4z M205.9,278.4h7v7h-7V278.4z M213.1,278.4h7v7h-7V278.4z M220.4,278.4h7v7h-7V278.4z M234.9,278.4h7v7h-7V278.4z
		 M46.2,285.7h7v7h-7V285.7z M67.9,285.7h7v7h-7V285.7z M75.2,285.7h7v7h-7V285.7z M82.5,285.7h7v7h-7V285.7z M89.7,285.7h7v7h-7
		V285.7z M118.8,285.7h7v7h-7V285.7z M176.8,285.7h7v7h-7V285.7z M184.1,285.7h7v7h-7V285.7z M191.4,285.7h7v7h-7V285.7z
		 M220.4,285.7h7v7h-7V285.7z M2.6,292.9h7v7h-7V292.9z M2.6,285.7h7v7h-7V285.7z M2.6,278.4h7v7h-7V278.4z M2.6,271.1h7v7h-7V271.1
		z M9.9,292.9h7v7h-7V292.9z M75.2,292.9h7v7h-7V292.9z M82.5,292.9h7v7h-7V292.9z M89.7,292.9h7v7h-7V292.9z M97,292.9h7v7h-7
		V292.9z M104.2,292.9h7v7h-7V292.9z M162.3,292.9h7v7h-7V292.9z M169.6,292.9h7v7h-7V292.9z M176.8,292.9h7v7h-7V292.9z
		 M184.1,292.9h7v7h-7V292.9z M191.4,292.9h7v7h-7V292.9z M256.7,292.9h7v7h-7V292.9z M256.7,285.7h7v7h-7V285.7z M256.7,278.4h7v7
		h-7V278.4z M256.7,271.1h7v7h-7V271.1z M256.7,263.9h7v7h-7V263.9z M2.6,300.2h7v7h-7V300.2z M9.9,300.2h7v7h-7V300.2z M17.1,300.2
		h7v7h-7V300.2z M24.4,300.2h7v7h-7V300.2z M38.9,300.2h7v7h-7V300.2z M67.9,300.2h7v7h-7V300.2z M82.5,300.2h7v7h-7V300.2z
		 M89.7,300.2h7v7h-7V300.2z M104.2,300.2h7v7h-7V300.2z M111.5,300.2h7v7h-7V300.2z M118.8,300.2h7v7h-7V300.2z M133.3,300.2h7v7
		h-7V300.2z M155.1,300.2h7v7h-7V300.2z M162.3,300.2h7v7h-7V300.2z M176.8,300.2h7v7h-7V300.2z M184.1,300.2h7v7h-7V300.2z
		 M198.6,300.2h7v7h-7V300.2z M242.2,300.2h7v7h-7V300.2z M249.4,300.2h7v7h-7V300.2z M256.7,300.2h7v7h-7V300.2z M9.9,307.4h7v7h-7
		V307.4z M24.4,307.4h7v7h-7V307.4z M31.6,307.4h7v7h-7V307.4z M38.9,307.4h7v7h-7V307.4z M46.2,307.4h7v7h-7V307.4z M60.7,307.4h7
		v7h-7V307.4z M67.9,307.4h7v7h-7V307.4z M89.7,307.4h7v7h-7V307.4z M97,307.4h7v7h-7V307.4z M104.2,307.4h7v7h-7V307.4z
		 M111.5,307.4h7v7h-7V307.4z M118.8,307.4h7v7h-7V307.4z M126,307.4h7v7h-7V307.4z M133.3,307.4h7v7h-7V307.4z M140.5,307.4h7v7h-7
		V307.4z M147.8,307.4h7v7h-7V307.4z M155.1,307.4h7v7h-7V307.4z M169.6,307.4h7v7h-7V307.4z M176.8,307.4h7v7h-7V307.4z
		 M198.6,307.4h7v7h-7V307.4z M220.4,307.4h7v7h-7V307.4z M227.7,307.4h7v7h-7V307.4z M234.9,307.4h7v7h-7V307.4z M249.4,307.4h7v7
		h-7V307.4z M17.1,314.7h7v7h-7V314.7z M24.4,314.7h7v7h-7V314.7z M31.6,314.7h7v7h-7V314.7z M38.9,314.7h7v7h-7V314.7z M46.2,314.7
		h7v7h-7V314.7z M60.7,314.7h7v7h-7V314.7z M75.2,314.7h7v7h-7V314.7z M82.5,314.7h7v7h-7V314.7z M89.7,314.7h7v7h-7V314.7z
		 M97,314.7h7v7h-7V314.7z M162.3,314.7h7v7h-7V314.7z M169.6,314.7h7v7h-7V314.7z M184.1,314.7h7v7h-7V314.7z M191.4,314.7h7v7h-7
		V314.7z M205.9,314.7h7v7h-7V314.7z M220.4,314.7h7v7h-7V314.7z M227.7,314.7h7v7h-7V314.7z M234.9,314.7h7v7h-7V314.7z
		 M242.2,314.7h7v7h-7V314.7z M24.4,322h7v7h-7V322z M38.9,322h7v7h-7V322z M46.2,322h7v7h-7V322z M60.7,322h7v7h-7V322z M67.9,322
		h7v7h-7V322z M82.5,322h7v7h-7V322z M176.8,322h7v7h-7V322z M184.1,322h7v7h-7V322z M198.6,322h7v7h-7V322z M205.9,322h7v7h-7V322z
		 M220.4,322h7v7h-7V322z M227.7,322h7v7h-7V322z M234.9,322h7v7h-7V322z M31.6,329.2h7v7h-7V329.2z M38.9,329.2h7v7h-7V329.2z
		 M46.2,329.2h7v7h-7V329.2z M53.4,329.2h7v7h-7V329.2z M60.7,329.2h7v7h-7V329.2z M67.9,329.2h7v7h-7V329.2z M75.2,329.2h7v7h-7
		V329.2z M184.1,329.2h7v7h-7V329.2z M191.4,329.2h7v7h-7V329.2z M198.6,329.2h7v7h-7V329.2z M205.9,329.2h7v7h-7V329.2z
		 M213.1,329.2h7v7h-7V329.2z M220.4,329.2h7v7h-7V329.2z M227.7,329.2h7v7h-7V329.2z M46.2,336.5h7v7h-7V336.5z M53.4,336.5h7v7h-7
		V336.5z M60.7,336.5h7v7h-7V336.5z M67.9,336.5h7v7h-7V336.5z M75.2,336.5h7v7h-7V336.5z M82.5,336.5h7v7h-7V336.5z M89.7,336.5h7
		v7h-7V336.5z M97,336.5h7v7h-7V336.5z M104.2,336.5h7v7h-7V336.5z M111.5,336.5h7v7h-7V336.5z M118.8,336.5h7v7h-7V336.5z
		 M126,336.5h7v7h-7V336.5z M133.3,336.5h7v7h-7V336.5z M140.5,336.5h7v7h-7V336.5z M147.8,336.5h7v7h-7V336.5z M155.1,336.5h7v7h-7
		V336.5z M162.3,336.5h7v7h-7V336.5z M169.6,336.5h7v7h-7V336.5z M176.8,336.5h7v7h-7V336.5z M184.1,336.5h7v7h-7V336.5z
		 M191.4,336.5h7v7h-7V336.5z M198.6,336.5h7v7h-7V336.5z M205.9,336.5h7v7h-7V336.5z M213.1,336.5h7v7h-7V336.5z M220.4,336.5h7v7
		h-7V336.5z"/>
</g>
</svg>
