<?xml version="1.0" encoding="utf-8"?>
<!-- Generator: Adobe Illustrator 27.3.1, SVG Export Plug-In . SVG Version: 6.00 Build 0)  -->
<svg version="1.1" id="Слой_1" xmlns="http://www.w3.org/2000/svg" xmlns:xlink="http://www.w3.org/1999/xlink" x="0px" y="0px"
	 viewBox="0 0 1001.6 900" style="enable-background:new 0 0 1001.6 900;" xml:space="preserve">
<style type="text/css">
	.st0{fill:#1E0E01;}
</style>
<path class="st0" d="M14.5,58.1h7v7h-7V58.1z M14.5,65.4h7v7h-7V65.4z M21.8,58.1h7v7h-7V58.1z M21.8,65.4h7v7h-7V65.4z M29,58.1h7
	v7h-7V58.1z M29,65.4h7v7h-7V65.4z M36.3,58.1h7v7h-7V58.1z M36.3,65.4h7v7h-7V65.4z M43.6,58.1h7v7h-7V58.1z M43.6,65.4h7v7h-7
	V65.4z M50.8,58.1h7v7h-7V58.1z M50.8,65.4h7v7h-7V65.4z M58.1,58.1h7v7h-7V58.1z M58.1,65.4h7v7h-7V65.4z M65.3,58.1h7v7h-7V58.1z
	 M65.3,65.4h7v7h-7V65.4z M72.6,58.1h7v7h-7V58.1z M72.6,65.4h7v7h-7V65.4z M79.9,58.1h7v7h-7V58.1z M79.9,65.4h7v7h-7V65.4z
	 M87.1,58.1h7v7h-7V58.1z M87.1,65.4h7v7h-7V65.4z M94.4,58.1h7v7h-7V58.1z M94.4,65.4h7v7h-7V65.4z M101.6,58.1h7v7h-7V58.1z
	 M101.6,65.4h7v7h-7V65.4z M108.9,58.1h7v7h-7V58.1z M108.9,65.4h7v7h-7V65.4z M116.2,58.1h7v7h-7V58.1z M116.2,65.4h7v7h-7V65.4z
	 M123.4,58.1h7v7h-7V58.1z M123.4,65.4h7v7h-7V65.4z M130.7,58.1h7v7h-7V58.1z M130.7,65.4h7v7h-7V65.4z M137.9,58.1h7v7h-7V58.1z
	 M137.9,65.4h7v7h-7V65.4z M145.2,58.1h7v7h-7V58.1z M145.2,65.4h7v7h-7V65.4z M152.5,58.1h7v7h-7V58.1z M152.5,65.4h7v7h-7V65.4z
	 M159.7,58.1h7v7h-7V58.1z M159.7,65.4h7v7h-7V65.4z M167,58.1h7v7h-7V58.1z M167,65.4h7v7h-7V65.4z M174.2,58.1h7v7h-7V58.1z
	 M174.2,65.4h7v7h-7V65.4z M181.5,58.1h7v7h-7V58.1z M181.5,65.4h7v7h-7V65.4z M188.8,58.1h7v7h-7V58.1z M188.8,65.4h7v7h-7V65.4z
	 M196,58.1h7v7h-7V58.1z M196,65.4h7v7h-7V65.4z M203.3,58.1h7v7h-7V58.1z M203.3,65.4h7v7h-7V65.4z M210.5,58.1h7v7h-7V58.1z
	 M210.5,65.4h7v7h-7V65.4z M217.8,58.1h7v7h-7V58.1z M217.8,65.4h7v7h-7V65.4z M225.1,58.1h7v7h-7V58.1z M225.1,65.4h7v7h-7V65.4z
	 M232.3,58.1h7v7h-7V58.1z M232.3,65.4h7v7h-7V65.4z M239.6,58.1h7v7h-7V58.1z M239.6,65.4h7v7h-7V65.4z M246.8,58.1h7v7h-7V58.1z
	 M246.8,65.4h7v7h-7V65.4z M254.1,58.1h7v7h-7V58.1z M254.1,65.4h7v7h-7V65.4z M261.4,58.1h7v7h-7V58.1z M261.4,65.4h7v7h-7V65.4z
	 M268.6,58.1h7v7h-7V58.1z M268.6,65.4h7v7h-7V65.4z M275.9,58.1h7v7h-7V58.1z M275.9,65.4h7v7h-7V65.4z M283.1,58.1h7v7h-7V58.1z
	 M283.1,65.4h7v7h-7V65.4z M290.4,58.1h7v7h-7V58.1z M290.4,65.4h7v7h-7V65.4z M297.7,58.1h7v7h-7V58.1z M297.7,65.4h7v7h-7V65.4z
	 M304.9,58.1h7v7h-7V58.1z M304.9,65.4h7v7h-7V65.4z M312.2,58.1h7v7h-7V58.1z M312.2,65.4h7v7h-7V65.4z M319.4,58.1h7v7h-7V58.1z
	 M319.4,65.4h7v7h-7V65.4z M326.7,58.1h7v7h-7V58.1z M326.7,65.4h7v7h-7V65.4z M334,58.1h7v7h-7V58.1z M334,65.4h7v7h-7V65.4z
	 M341.2,58.1h7v7h-7V58.1z M341.2,65.4h7v7h-7V65.4z M348.5,58.1h7v7h-7V58.1z M348.5,65.4h7v7h-7V65.4z M355.7,58.1h7v7h-7V58.1z
	 M355.7,65.4h7v7h-7V65.4z M363,58.1h7v7h-7V58.1z M363,65.4h7v7h-7V65.4z M370.3,58.1h7v7h-7V58.1z M370.3,65.4h7v7h-7V65.4z
	 M377.5,58.1h7v7h-7V58.1z M377.5,65.4h7v7h-7V65.4z M384.8,58.1h7v7h-7V58.1z M384.8,65.4h7v7h-7V65.4z M392,58.1h7v7h-7V58.1z
	 M392,65.4h7v7h-7V65.4z M399.3,58.1h7v7h-7V58.1z M399.3,65.4h7v7h-7V65.4z M406.6,58.1h7v7h-7V58.1z M406.6,65.4h7v7h-7V65.4z
	 M413.8,58.1h7v7h-7V58.1z M413.8,65.4h7v7h-7V65.4z M421.1,58.1h7v7h-7V58.1z M421.1,65.4h7v7h-7V65.4z M428.3,58.1h7v7h-7V58.1z
	 M428.3,65.4h7v7h-7V65.4z M435.6,58.1h7v7h-7V58.1z M435.6,65.4h7v7h-7V65.4z M442.9,58.1h7v7h-7V58.1z M442.9,65.4h7v7h-7V65.4z
	 M450.1,58.1h7v7h-7V58.1z M450.1,65.4h7v7h-7V65.4z M457.4,58.1h7v7h-7V58.1z M457.4,65.4h7v7h-7V65.4z M464.6,58.1h7v7h-7V58.1z
	 M464.6,65.4h7v7h-7V65.4z M471.9,58.1h7v7h-7V58.1z M471.9,65.4h7v7h-7V65.4z M479.2,58.1h7v7h-7V58.1z M479.2,65.4h7v7h-7V65.4z
	 M486.4,58.1h7v7h-7V58.1z M486.4,65.4h7v7h-7V65.4z M493.7,58.1h7v7h-7V58.1z M493.7,65.4h7v7h-7V65.4z M500.9,58.1h7v7h-7V58.1z
	 M500.9,65.4h7v7h-7V65.4z M508.2,58.1h7v7h-7V58.1z M508.2,65.4h7v7h-7V65.4z M515.5,58.1h7v7h-7V58.1z M515.5,65.4h7v7h-7V65.4z
	 M522.7,58.1h7v7h-7V58.1z M522.7,65.4h7v7h-7V65.4z M530,58.1h7v7h-7V58.1z M530,65.4h7v7h-7V65.4z M537.2,58.1h7v7h-7V58.1z
	 M537.2,65.4h7v7h-7V65.4z M544.5,58.1h7v7h-7V58.1z M544.5,65.4h7v7h-7V65.4z M551.8,58.1h7v7h-7V58.1z M551.8,65.4h7v7h-7V65.4z
	 M559,58.1h7v7h-7V58.1z M559,65.4h7v7h-7V65.4z M566.3,58.1h7v7h-7V58.1z M566.3,65.4h7v7h-7V65.4z M573.5,58.1h7v7h-7V58.1z
	 M573.5,65.4h7v7h-7V65.4z M580.8,58.1h7v7h-7V58.1z M580.8,65.4h7v7h-7V65.4z M588.1,58.1h7v7h-7V58.1z M588.1,65.4h7v7h-7V65.4z
	 M595.3,58.1h7v7h-7V58.1z M595.3,65.4h7v7h-7V65.4z M602.6,58.1h7v7h-7V58.1z M602.6,65.4h7v7h-7V65.4z M609.8,58.1h7v7h-7V58.1z
	 M609.8,65.4h7v7h-7V65.4z M617.1,58.1h7v7h-7V58.1z M617.1,65.4h7v7h-7V65.4z M624.4,58.1h7v7h-7V58.1z M624.4,65.4h7v7h-7V65.4z
	 M631.6,58.1h7v7h-7V58.1z M631.6,65.4h7v7h-7V65.4z M638.9,58.1h7v7h-7V58.1z M638.9,65.4h7v7h-7V65.4z M646.1,58.1h7v7h-7V58.1z
	 M646.1,65.4h7v7h-7V65.4z M653.4,58.1h7v7h-7V58.1z M653.4,65.4h7v7h-7V65.4z M660.7,58.1h7v7h-7V58.1z M660.7,65.4h7v7h-7V65.4z
	 M667.9,58.1h7v7h-7V58.1z M667.9,65.4h7v7h-7V65.4z M675.2,58.1h7v7h-7V58.1z M675.2,65.4h7v7h-7V65.4z M682.4,58.1h7v7h-7V58.1z
	 M682.4,65.4h7v7h-7V65.4z M689.7,58.1h7v7h-7V58.1z M689.7,65.4h7v7h-7V65.4z M697,58.1h7v7h-7V58.1z M697,65.4h7v7h-7V65.4z
	 M704.2,58.1h7v7h-7V58.1z M704.2,65.4h7v7h-7V65.4z M711.5,58.1h7v7h-7V58.1z M711.5,65.4h7v7h-7V65.4z M718.7,58.1h7v7h-7V58.1z
	 M718.7,65.4h7v7h-7V65.4z M726,58.1h7v7h-7V58.1z M726,65.4h7v7h-7V65.4z M733.3,58.1h7v7h-7V58.1z M733.3,65.4h7v7h-7V65.4z
	 M740.5,58.1h7v7h-7V58.1z M740.5,65.4h7v7h-7V65.4z M747.8,58.1h7v7h-7V58.1z M747.8,65.4h7v7h-7V65.4z M755,58.1h7v7h-7V58.1z
	 M755,65.4h7v7h-7V65.4z M762.3,58.1h7v7h-7V58.1z M762.3,65.4h7v7h-7V65.4z M769.6,58.1h7v7h-7V58.1z M769.6,65.4h7v7h-7V65.4z
	 M776.8,58.1h7v7h-7V58.1z M776.8,65.4h7v7h-7V65.4z M784.1,58.1h7v7h-7V58.1z M784.1,65.4h7v7h-7V65.4z M791.3,58.1h7v7h-7V58.1z
	 M791.3,65.4h7v7h-7V65.4z M798.6,58.1h7v7h-7V58.1z M798.6,65.4h7v7h-7V65.4z M805.9,58.1h7v7h-7V58.1z M805.9,65.4h7v7h-7V65.4z
	 M813.1,58.1h7v7h-7V58.1z M813.1,65.4h7v7h-7V65.4z M820.4,58.1h7v7h-7V58.1z M820.4,65.4h7v7h-7V65.4z M827.6,58.1h7v7h-7V58.1z
	 M827.6,65.4h7v7h-7V65.4z M834.9,58.1h7v7h-7V58.1z M834.9,65.4h7v7h-7V65.4z M842.2,58.1h7v7h-7V58.1z M842.2,65.4h7v7h-7V65.4z
	 M849.4,58.1h7v7h-7V58.1z M849.4,65.4h7v7h-7V65.4z M856.7,58.1h7v7h-7V58.1z M856.7,65.4h7v7h-7V65.4z M863.9,58.1h7v7h-7V58.1z
	 M863.9,65.4h7v7h-7V65.4z M871.2,58.1h7v7h-7V58.1z M871.2,65.4h7v7h-7V65.4z M878.5,58.1h7v7h-7V58.1z M878.5,65.4h7v7h-7V65.4z
	 M885.7,58.1h7v7h-7V58.1z M885.7,65.4h7v7h-7V65.4z M893,58.1h7v7h-7V58.1z M893,65.4h7v7h-7V65.4z M900.2,58.1h7v7h-7V58.1z
	 M900.2,65.4h7v7h-7V65.4z M907.5,58.1h7v7h-7V58.1z M907.5,65.4h7v7h-7V65.4z M914.8,58.1h7v7h-7V58.1z M914.8,65.4h7v7h-7V65.4z
	 M922,58.1h7v7h-7V58.1z M922,65.4h7v7h-7V65.4z M929.3,58.1h7v7h-7V58.1z M929.3,65.4h7v7h-7V65.4z M936.5,58.1h7v7h-7V58.1z
	 M936.5,65.4h7v7h-7V65.4z M943.8,58.1h7v7h-7V58.1z M943.8,65.4h7v7h-7V65.4z M951.1,58.1h7v7h-7V58.1z M951.1,65.4h7v7h-7V65.4z
	 M958.3,58.1h7v7h-7V58.1z M958.3,65.4h7v7h-7V65.4z M965.6,58.1h7v7h-7V58.1z M965.6,65.4h7v7h-7V65.4z M972.8,58.1h7v7h-7V58.1z
	 M972.8,65.4h7v7h-7V65.4z M14.5,0h7v7h-7V0z M21.8,0h7v7h-7V0z M29,0h7v7h-7V0z M36.3,0h7v7h-7V0z M43.6,0h7v7h-7V0z M50.8,0h7v7
	h-7V0z M58.1,0h7v7h-7V0z M65.3,0h7v7h-7V0z M72.6,0h7v7h-7V0z M79.9,0h7v7h-7V0z M87.1,0h7v7h-7V0z M94.4,0h7v7h-7V0z M101.6,0h7v7
	h-7V0z M108.9,0h7v7h-7V0z M116.2,0h7v7h-7V0z M123.4,0h7v7h-7V0z M130.7,0h7v7h-7V0z M137.9,0h7v7h-7V0z M145.2,0h7v7h-7V0z
	 M152.5,0h7v7h-7V0z M159.7,0h7v7h-7V0z M167,0h7v7h-7V0z M174.2,0h7v7h-7V0z M181.5,0h7v7h-7V0z M188.8,0h7v7h-7V0z M196,0h7v7h-7
	V0z M203.3,0h7v7h-7V0z M210.5,0h7v7h-7V0z M217.8,0h7v7h-7V0z M225.1,0h7v7h-7V0z M232.3,0h7v7h-7V0z M239.6,0h7v7h-7V0z M246.8,0
	h7v7h-7V0z M254.1,0h7v7h-7V0z M261.4,0h7v7h-7V0z M268.6,0h7v7h-7V0z M275.9,0h7v7h-7V0z M283.1,0h7v7h-7V0z M290.4,0h7v7h-7V0z
	 M297.7,0h7v7h-7V0z M304.9,0h7v7h-7V0z M312.2,0h7v7h-7V0z M319.4,0h7v7h-7V0z M326.7,0h7v7h-7V0z M334,0h7v7h-7V0z M341.2,0h7v7
	h-7V0z M348.5,0h7v7h-7V0z M355.7,0h7v7h-7V0z M363,0h7v7h-7V0z M370.3,0h7v7h-7V0z M377.5,0h7v7h-7V0z M384.8,0h7v7h-7V0z M392,0h7
	v7h-7V0z M399.3,0h7v7h-7V0z M406.6,0h7v7h-7V0z M413.8,0h7v7h-7V0z M421.1,0h7v7h-7V0z M428.3,0h7v7h-7V0z M435.6,0h7v7h-7V0z
	 M442.9,0h7v7h-7V0z M450.1,0h7v7h-7V0z M457.4,0h7v7h-7V0z M464.6,0h7v7h-7V0z M471.9,0h7v7h-7V0z M479.2,0h7v7h-7V0z M486.4,0h7v7
	h-7V0z M493.7,0h7v7h-7V0z M500.9,0h7v7h-7V0z M508.2,0h7v7h-7V0z M515.5,0h7v7h-7V0z M522.7,0h7v7h-7V0z M530,0h7v7h-7V0z M537.2,0
	h7v7h-7V0z M544.5,0h7v7h-7V0z M551.8,0h7v7h-7V0z M559,0h7v7h-7V0z M566.3,0h7v7h-7V0z M573.5,0h7v7h-7V0z M580.8,0h7v7h-7V0z
	 M588.1,0h7v7h-7V0z M595.3,0h7v7h-7V0z M602.6,0h7v7h-7V0z M609.8,0h7v7h-7V0z M617.1,0h7v7h-7V0z M624.4,0h7v7h-7V0z M631.6,0h7v7
	h-7V0z M638.9,0h7v7h-7V0z M646.1,0h7v7h-7V0z M653.4,0h7v7h-7V0z M660.7,0h7v7h-7V0z M667.9,0h7v7h-7V0z M675.2,0h7v7h-7V0z
	 M682.4,0h7v7h-7V0z M689.7,0h7v7h-7V0z M697,0h7v7h-7V0z M704.2,0h7v7h-7V0z M711.5,0h7v7h-7V0z M718.7,0h7v7h-7V0z M726,0h7v7h-7
	V0z M733.3,0h7v7h-7V0z M740.5,0h7v7h-7V0z M747.8,0h7v7h-7V0z M755,0h7v7h-7V0z M762.3,0h7v7h-7V0z M769.6,0h7v7h-7V0z M776.8,0h7
	v7h-7V0z M784.1,0h7v7h-7V0z M791.3,0h7v7h-7V0z M798.6,0h7v7h-7V0z M805.9,0h7v7h-7V0z M813.1,0h7v7h-7V0z M820.4,0h7v7h-7V0z
	 M827.6,0h7v7h-7V0z M834.9,0h7v7h-7V0z M842.2,0h7v7h-7V0z M849.4,0h7v7h-7V0z M856.7,0h7v7h-7V0z M863.9,0h7v7h-7V0z M871.2,0h7v7
	h-7V0z M878.5,0h7v7h-7V0z M885.7,0h7v7h-7V0z M893,0h7v7h-7V0z M900.2,0h7v7h-7V0z M907.5,0h7v7h-7V0z M914.8,0h7v7h-7V0z M922,0h7
	v7h-7V0z M929.3,0h7v7h-7V0z M936.5,0h7v7h-7V0z M943.8,0h7v7h-7V0z M951.1,0h7v7h-7V0z M958.3,0h7v7h-7V0z M965.6,0h7v7h-7V0z
	 M972.8,0h7v7h-7V0z M980.1,0h7v7h-7V0z M980.1,58.1h7v7h-7V58.1z M980.1,65.4h7v7h-7V65.4z M0,7.3h7v7H0V7.3z M0,14.5h7v7H0V14.5z
	 M0,21.8h7v7H0V21.8z M0,29.1h7v7H0V29.1z M0,36.3h7v7H0V36.3z M0,43.6h7v7H0V43.6z M0,50.9h7v7H0V50.9z M0,58.1h7v7H0V58.1z
	 M0,72.6h7v7H0V72.6z M0,87.2h7v7H0V87.2z M0,101.7h7v7H0V101.7z M0,116.2h7v7H0V116.2z M0,130.7h7v7H0V130.7z M0,145.2h7v7H0V145.2
	z M0,159.7h7v7H0V159.7z M0,174.3h7v7H0V174.3z M0,188.8h7v7H0V188.8z M0,203.3h7v7H0V203.3z M0,217.8h7v7H0V217.8z M0,232.3h7v7H0
	V232.3z M0,246.9h7v7H0V246.9z M0,261.4h7v7H0V261.4z M0,275.9h7v7H0V275.9z M0,290.4h7v7H0V290.4z M0,304.9h7v7H0V304.9z M0,319.5
	h7v7H0V319.5z M0,334h7v7H0V334z M0,348.5h7v7H0V348.5z M0,363h7v7H0V363z M0,377.5h7v7H0V377.5z M7.3,58.1h7v7h-7V58.1z M7.3,65.4
	h7v7h-7V65.4z M7.3,72.6h7v7h-7V72.6z M7.3,79.9h7v7h-7V79.9z M7.3,87.2h7v7h-7V87.2z M7.3,94.4h7v7h-7V94.4z M7.3,101.7h7v7h-7
	V101.7z M7.3,108.9h7v7h-7V108.9z M7.3,116.2h7v7h-7V116.2z M7.3,123.4h7v7h-7V123.4z M7.3,130.7h7v7h-7V130.7z M7.3,138h7v7h-7V138
	z M7.3,145.2h7v7h-7V145.2z M7.3,152.5h7v7h-7V152.5z M7.3,159.7h7v7h-7V159.7z M7.3,167h7v7h-7V167z M7.3,174.3h7v7h-7V174.3z
	 M7.3,181.5h7v7h-7V181.5z M7.3,188.8h7v7h-7V188.8z M7.3,196.1h7v7h-7V196.1z M7.3,203.3h7v7h-7V203.3z M7.3,210.6h7v7h-7V210.6z
	 M7.3,217.8h7v7h-7V217.8z M7.3,225.1h7v7h-7V225.1z M7.3,232.3h7v7h-7V232.3z M7.3,239.6h7v7h-7V239.6z M7.3,246.9h7v7h-7V246.9z
	 M7.3,254.1h7v7h-7V254.1z M7.3,261.4h7v7h-7V261.4z M7.3,268.7h7v7h-7V268.7z M7.3,275.9h7v7h-7V275.9z M7.3,283.2h7v7h-7V283.2z
	 M7.3,290.4h7v7h-7V290.4z M7.3,297.7h7v7h-7V297.7z M7.3,304.9h7v7h-7V304.9z M7.3,312.2h7v7h-7V312.2z M7.3,319.5h7v7h-7V319.5z
	 M7.3,326.7h7v7h-7V326.7z M7.3,334h7v7h-7V334z M7.3,341.3h7v7h-7V341.3z M7.3,348.5h7v7h-7V348.5z M7.3,355.8h7v7h-7V355.8z
	 M7.3,363h7v7h-7V363z M7.3,370.3h7v7h-7V370.3z M7.3,377.5h7v7h-7V377.5z M7.3,384.8h7v7h-7V384.8z M0,392.1h7v7H0V392.1z M0,406.6
	h7v7H0V406.6z M0,421.1h7v7H0V421.1z M0,435.6h7v7H0V435.6z M0,450.1h7v7H0V450.1z M7.3,392.1h7v7h-7V392.1z M7.3,399.3h7v7h-7
	V399.3z M7.3,406.6h7v7h-7V406.6z M7.3,413.9h7v7h-7V413.9z M7.3,421.1h7v7h-7V421.1z M7.3,428.4h7v7h-7V428.4z M7.3,435.6h7v7h-7
	V435.6z M7.3,442.9h7v7h-7V442.9z M7.3,450.1h7v7h-7V450.1z M7.3,457.4h7v7h-7V457.4z M0,464.7h7v7H0V464.7z M0,479.2h7v7H0V479.2z
	 M0,493.7h7v7H0V493.7z M0,508.2h7v7H0V508.2z M0,522.7h7v7H0V522.7z M7.3,464.7h7v7h-7V464.7z M7.3,471.9h7v7h-7V471.9z M7.3,479.2
	h7v7h-7V479.2z M7.3,486.5h7v7h-7V486.5z M7.3,493.7h7v7h-7V493.7z M7.3,501h7v7h-7V501z M7.3,508.2h7v7h-7V508.2z M7.3,515.5h7v7
	h-7V515.5z M7.3,522.7h7v7h-7V522.7z M7.3,530h7v7h-7V530z M0,537.3h7v7H0V537.3z M0,551.8h7v7H0V551.8z M0,566.3h7v7H0V566.3z
	 M0,580.8h7v7H0V580.8z M7.3,537.3h7v7h-7V537.3z M7.3,544.5h7v7h-7V544.5z M7.3,551.8h7v7h-7V551.8z M7.3,559.1h7v7h-7V559.1z
	 M7.3,566.3h7v7h-7V566.3z M7.3,573.6h7v7h-7V573.6z M7.3,580.8h7v7h-7V580.8z M7.3,588.1h7v7h-7V588.1z M0,595.3h7v7H0V595.3z
	 M7.3,595.3h7v7h-7V595.3z M0,609.8h7v7H0V609.8z M0,624.4h7v7H0V624.4z M0,638.9h7v7H0V638.9z M0,653.4h7v7H0V653.4z M7.3,602.6h7
	v7h-7V602.6z M7.3,609.8h7v7h-7V609.8z M7.3,617.1h7v7h-7V617.1z M7.3,624.4h7v7h-7V624.4z M7.3,631.6h7v7h-7V631.6z M7.3,638.9h7v7
	h-7V638.9z M7.3,646.1h7v7h-7V646.1z M7.3,653.4h7v7h-7V653.4z M7.3,660.7h7v7h-7V660.7z M0,668h7v7H0V668z M0,682.5h7v7H0V682.5z
	 M0,697h7v7H0V697z M0,711.5h7v7H0V711.5z M7.3,668h7v7h-7V668z M7.3,675.2h7v7h-7V675.2z M7.3,682.5h7v7h-7V682.5z M7.3,689.8h7v7
	h-7V689.8z M7.3,697h7v7h-7V697z M7.3,704.3h7v7h-7V704.3z M7.3,711.5h7v7h-7V711.5z M7.3,718.8h7v7h-7V718.8z M0,726h7v7H0V726z
	 M7.3,726h7v7h-7V726z M0,740.5h7v7H0V740.5z M0,755.1h7v7H0V755.1z M0,769.6h7v7H0V769.6z M0,784.1h7v7H0V784.1z M7.3,733.3h7v7h-7
	V733.3z M7.3,740.5h7v7h-7V740.5z M7.3,747.8h7v7h-7V747.8z M7.3,755.1h7v7h-7V755.1z M7.3,762.3h7v7h-7V762.3z M7.3,769.6h7v7h-7
	V769.6z M7.3,776.8h7v7h-7V776.8z M7.3,784.1h7v7h-7V784.1z M0,0h7v7H0V0z M7.3,0h7v7h-7V0z M0,798.7h7v7H0V798.7z M0,813.2h7v7H0
	V813.2z M7.3,791.4h7v7h-7V791.4z M7.3,798.7h7v7h-7V798.7z M7.3,805.9h7v7h-7V805.9z M7.3,813.2h7v7h-7V813.2z M7.3,820.4h7v7h-7
	V820.4z M0,827.7h7v7H0V827.7z M0,842.2h7v7H0V842.2z M0,856.7h7v7H0V856.7z M0,871.2h7v7H0V871.2z M7.3,827.7h7v7h-7V827.7z
	 M7.3,834.9h7v7h-7V834.9z M7.3,842.2h7v7h-7V842.2z M7.3,849.5h7v7h-7V849.5z M7.3,856.7h7v7h-7V856.7z M7.3,864h7v7h-7V864z
	 M7.3,871.2h7v7h-7V871.2z M7.3,878.5h7v7h-7V878.5z M0,885.8h7v7H0V885.8z M7.3,885.8h7v7h-7V885.8z M7.3,893h7v7h-7V893z
	 M987.3,58.1h7v7h-7V58.1z M987.3,65.4h7v7h-7V65.4z M987.3,72.6h7v7h-7V72.6z M987.3,79.9h7v7h-7V79.9z M987.3,87.2h7v7h-7V87.2z
	 M987.3,94.4h7v7h-7V94.4z M987.3,101.7h7v7h-7V101.7z M987.3,108.9h7v7h-7V108.9z M987.3,116.2h7v7h-7V116.2z M987.3,123.4h7v7h-7
	V123.4z M987.3,130.7h7v7h-7V130.7z M987.3,138h7v7h-7V138z M987.3,145.2h7v7h-7V145.2z M987.3,152.5h7v7h-7V152.5z M987.3,159.7h7
	v7h-7V159.7z M987.3,167h7v7h-7V167z M987.3,174.3h7v7h-7V174.3z M987.3,181.5h7v7h-7V181.5z M987.3,188.8h7v7h-7V188.8z
	 M987.3,196.1h7v7h-7V196.1z M987.3,203.3h7v7h-7V203.3z M987.3,210.6h7v7h-7V210.6z M987.3,217.8h7v7h-7V217.8z M987.3,225.1h7v7
	h-7V225.1z M987.3,232.3h7v7h-7V232.3z M987.3,239.6h7v7h-7V239.6z M987.3,246.9h7v7h-7V246.9z M987.3,254.1h7v7h-7V254.1z
	 M987.3,261.4h7v7h-7V261.4z M987.3,268.7h7v7h-7V268.7z M987.3,275.9h7v7h-7V275.9z M987.3,283.2h7v7h-7V283.2z M987.3,290.4h7v7
	h-7V290.4z M987.3,297.7h7v7h-7V297.7z M987.3,304.9h7v7h-7V304.9z M987.3,312.2h7v7h-7V312.2z M987.3,319.5h7v7h-7V319.5z
	 M987.3,326.7h7v7h-7V326.7z M987.3,334h7v7h-7V334z M987.3,341.3h7v7h-7V341.3z M987.3,348.5h7v7h-7V348.5z M987.3,355.8h7v7h-7
	V355.8z M987.3,363h7v7h-7V363z M987.3,370.3h7v7h-7V370.3z M987.3,377.5h7v7h-7V377.5z M987.3,384.8h7v7h-7V384.8z M994.6,7.3h7v7
	h-7V7.3z M987.3,0h7v7h-7V0z M994.6,0h7v7h-7V0z M994.6,14.5h7v7h-7V14.5z M994.6,21.8h7v7h-7V21.8z M994.6,29.1h7v7h-7V29.1z
	 M994.6,36.3h7v7h-7V36.3z M994.6,43.6h7v7h-7V43.6z M994.6,50.9h7v7h-7V50.9z M994.6,58.1h7v7h-7V58.1z M994.6,72.6h7v7h-7V72.6z
	 M994.6,87.2h7v7h-7V87.2z M994.6,101.7h7v7h-7V101.7z M994.6,116.2h7v7h-7V116.2z M994.6,130.7h7v7h-7V130.7z M994.6,145.2h7v7h-7
	V145.2z M994.6,159.7h7v7h-7V159.7z M994.6,174.3h7v7h-7V174.3z M994.6,188.8h7v7h-7V188.8z M994.6,203.3h7v7h-7V203.3z
	 M994.6,217.8h7v7h-7V217.8z M994.6,232.3h7v7h-7V232.3z M994.6,246.9h7v7h-7V246.9z M994.6,261.4h7v7h-7V261.4z M994.6,275.9h7v7
	h-7V275.9z M994.6,290.4h7v7h-7V290.4z M994.6,304.9h7v7h-7V304.9z M994.6,319.5h7v7h-7V319.5z M994.6,334h7v7h-7V334z M994.6,348.5
	h7v7h-7V348.5z M994.6,363h7v7h-7V363z M994.6,377.5h7v7h-7V377.5z M987.3,392.1h7v7h-7V392.1z M987.3,399.3h7v7h-7V399.3z
	 M987.3,406.6h7v7h-7V406.6z M987.3,413.9h7v7h-7V413.9z M987.3,421.1h7v7h-7V421.1z M987.3,428.4h7v7h-7V428.4z M987.3,435.6h7v7
	h-7V435.6z M987.3,442.9h7v7h-7V442.9z M987.3,450.1h7v7h-7V450.1z M987.3,457.4h7v7h-7V457.4z M994.6,392.1h7v7h-7V392.1z
	 M994.6,406.6h7v7h-7V406.6z M994.6,421.1h7v7h-7V421.1z M994.6,435.6h7v7h-7V435.6z M994.6,450.1h7v7h-7V450.1z M987.3,464.7h7v7
	h-7V464.7z M987.3,471.9h7v7h-7V471.9z M987.3,479.2h7v7h-7V479.2z M987.3,486.5h7v7h-7V486.5z M987.3,493.7h7v7h-7V493.7z
	 M987.3,501h7v7h-7V501z M987.3,508.2h7v7h-7V508.2z M987.3,515.5h7v7h-7V515.5z M987.3,522.7h7v7h-7V522.7z M987.3,530h7v7h-7V530z
	 M994.6,464.7h7v7h-7V464.7z M994.6,479.2h7v7h-7V479.2z M994.6,493.7h7v7h-7V493.7z M994.6,508.2h7v7h-7V508.2z M994.6,522.7h7v7
	h-7V522.7z M987.3,537.3h7v7h-7V537.3z M987.3,544.5h7v7h-7V544.5z M987.3,551.8h7v7h-7V551.8z M987.3,559.1h7v7h-7V559.1z
	 M987.3,566.3h7v7h-7V566.3z M987.3,573.6h7v7h-7V573.6z M987.3,580.8h7v7h-7V580.8z M987.3,588.1h7v7h-7V588.1z M994.6,537.3h7v7
	h-7V537.3z M994.6,551.8h7v7h-7V551.8z M994.6,566.3h7v7h-7V566.3z M994.6,580.8h7v7h-7V580.8z M987.3,595.3h7v7h-7V595.3z
	 M994.6,595.3h7v7h-7V595.3z M987.3,602.6h7v7h-7V602.6z M987.3,609.8h7v7h-7V609.8z M987.3,617.1h7v7h-7V617.1z M987.3,624.4h7v7
	h-7V624.4z M987.3,631.6h7v7h-7V631.6z M987.3,638.9h7v7h-7V638.9z M987.3,646.1h7v7h-7V646.1z M987.3,653.4h7v7h-7V653.4z
	 M994.6,609.8h7v7h-7V609.8z M994.6,624.4h7v7h-7V624.4z M994.6,638.9h7v7h-7V638.9z M994.6,653.4h7v7h-7V653.4z M987.3,660.7h7v7
	h-7V660.7z M987.3,668h7v7h-7V668z M987.3,675.2h7v7h-7V675.2z M987.3,682.5h7v7h-7V682.5z M987.3,689.8h7v7h-7V689.8z M987.3,697h7
	v7h-7V697z M987.3,704.3h7v7h-7V704.3z M987.3,711.5h7v7h-7V711.5z M987.3,718.8h7v7h-7V718.8z M994.6,668h7v7h-7V668z M994.6,682.5
	h7v7h-7V682.5z M994.6,697h7v7h-7V697z M994.6,711.5h7v7h-7V711.5z M987.3,726h7v7h-7V726z M994.6,726h7v7h-7V726z M987.3,733.3h7v7
	h-7V733.3z M987.3,740.5h7v7h-7V740.5z M987.3,747.8h7v7h-7V747.8z M987.3,755.1h7v7h-7V755.1z M987.3,762.3h7v7h-7V762.3z
	 M987.3,769.6h7v7h-7V769.6z M987.3,776.8h7v7h-7V776.8z M987.3,784.1h7v7h-7V784.1z M994.6,740.5h7v7h-7V740.5z M994.6,755.1h7v7
	h-7V755.1z M994.6,769.6h7v7h-7V769.6z M994.6,784.1h7v7h-7V784.1z M987.3,791.4h7v7h-7V791.4z M987.3,798.7h7v7h-7V798.7z
	 M987.3,805.9h7v7h-7V805.9z M987.3,813.2h7v7h-7V813.2z M994.6,798.7h7v7h-7V798.7z M994.6,813.2h7v7h-7V813.2z M987.3,820.4h7v7
	h-7V820.4z M987.3,827.7h7v7h-7V827.7z M987.3,834.9h7v7h-7V834.9z M987.3,842.2h7v7h-7V842.2z M987.3,849.5h7v7h-7V849.5z
	 M987.3,856.7h7v7h-7V856.7z M987.3,864h7v7h-7V864z M987.3,871.2h7v7h-7V871.2z M987.3,878.5h7v7h-7V878.5z M994.6,827.7h7v7h-7
	V827.7z M994.6,842.2h7v7h-7V842.2z M994.6,856.7h7v7h-7V856.7z M994.6,871.2h7v7h-7V871.2z M987.3,885.8h7v7h-7V885.8z
	 M994.6,885.8h7v7h-7V885.8z M987.3,893h7v7h-7V893z"/>
</svg>
