<?xml version="1.0" encoding="utf-8"?>
<!-- Generator: Adobe Illustrator 27.3.1, SVG Export Plug-In . SVG Version: 6.00 Build 0)  -->
<svg version="1.1" id="Слой_1" xmlns="http://www.w3.org/2000/svg" xmlns:xlink="http://www.w3.org/1999/xlink" x="0px" y="0px"
	 viewBox="0 0 14.3 827.4" style="enable-background:new 0 0 14.3 827.4;" xml:space="preserve">
<style type="text/css">
	.st0{fill:#1E0E01;}
</style>
<path class="st0" d="M0,0h7v7H0V0z M0,14.6h7v7H0V14.6z M0,29.1h7v7H0V29.1z M0,43.6h7v7H0V43.6z M0,58.1h7v7H0V58.1z M0,72.6h7v7H0
	V72.6z M0,87.1h7v7H0V87.1z M0,101.7h7v7H0V101.7z M0,116.2h7v7H0V116.2z M0,130.7h7v7H0V130.7z M0,145.2h7v7H0V145.2z M0,159.7h7v7
	H0V159.7z M0,174.3h7v7H0V174.3z M0,188.8h7v7H0V188.8z M0,203.3h7v7H0V203.3z M0,217.8h7v7H0V217.8z M0,232.3h7v7H0V232.3z
	 M0,246.9h7v7H0V246.9z M0,261.4h7v7H0V261.4z M0,275.9h7v7H0V275.9z M0,290.4h7v7H0V290.4z M0,304.9h7v7H0V304.9z M7.3,0h7v7h-7V0z
	 M7.3,7.3h7v7h-7V7.3z M7.3,14.6h7v7h-7V14.6z M7.3,21.8h7v7h-7V21.8z M7.3,29.1h7v7h-7V29.1z M7.3,36.3h7v7h-7V36.3z M7.3,43.6h7v7
	h-7V43.6z M7.3,50.8h7v7h-7V50.8z M7.3,58.1h7v7h-7V58.1z M7.3,65.4h7v7h-7V65.4z M7.3,72.6h7v7h-7V72.6z M7.3,79.9h7v7h-7V79.9z
	 M7.3,87.1h7v7h-7V87.1z M7.3,94.4h7v7h-7V94.4z M7.3,101.7h7v7h-7V101.7z M7.3,108.9h7v7h-7V108.9z M7.3,116.2h7v7h-7V116.2z
	 M7.3,123.5h7v7h-7V123.5z M7.3,130.7h7v7h-7V130.7z M7.3,138h7v7h-7V138z M7.3,145.2h7v7h-7V145.2z M7.3,152.5h7v7h-7V152.5z
	 M7.3,159.7h7v7h-7V159.7z M7.3,167h7v7h-7V167z M7.3,174.3h7v7h-7V174.3z M7.3,181.5h7v7h-7V181.5z M7.3,188.8h7v7h-7V188.8z
	 M7.3,196.1h7v7h-7V196.1z M7.3,203.3h7v7h-7V203.3z M7.3,210.6h7v7h-7V210.6z M7.3,217.8h7v7h-7V217.8z M7.3,225.1h7v7h-7V225.1z
	 M7.3,232.3h7v7h-7V232.3z M7.3,239.6h7v7h-7V239.6z M7.3,246.9h7v7h-7V246.9z M7.3,254.1h7v7h-7V254.1z M7.3,261.4h7v7h-7V261.4z
	 M7.3,268.7h7v7h-7V268.7z M7.3,275.9h7v7h-7V275.9z M7.3,283.2h7v7h-7V283.2z M7.3,290.4h7v7h-7V290.4z M7.3,297.7h7v7h-7V297.7z
	 M7.3,304.9h7v7h-7V304.9z M7.3,312.2h7v7h-7V312.2z M0,319.5h7v7H0V319.5z M0,334h7v7H0V334z M0,348.5h7v7H0V348.5z M0,363h7v7H0
	V363z M0,377.5h7v7H0V377.5z M7.3,319.5h7v7h-7V319.5z M7.3,326.7h7v7h-7V326.7z M7.3,334h7v7h-7V334z M7.3,341.3h7v7h-7V341.3z
	 M7.3,348.5h7v7h-7V348.5z M7.3,355.8h7v7h-7V355.8z M7.3,363h7v7h-7V363z M7.3,370.3h7v7h-7V370.3z M7.3,377.5h7v7h-7V377.5z
	 M7.3,384.8h7v7h-7V384.8z M0,392.1h7v7H0V392.1z M0,406.6h7v7H0V406.6z M0,421.1h7v7H0V421.1z M0,435.6h7v7H0V435.6z M0,450.1h7v7
	H0V450.1z M7.3,392.1h7v7h-7V392.1z M7.3,399.3h7v7h-7V399.3z M7.3,406.6h7v7h-7V406.6z M7.3,413.9h7v7h-7V413.9z M7.3,421.1h7v7h-7
	V421.1z M7.3,428.4h7v7h-7V428.4z M7.3,435.6h7v7h-7V435.6z M7.3,442.9h7v7h-7V442.9z M7.3,450.1h7v7h-7V450.1z M7.3,457.4h7v7h-7
	V457.4z M0,464.7h7v7H0V464.7z M0,479.2h7v7H0V479.2z M0,493.7h7v7H0V493.7z M0,508.2h7v7H0V508.2z M7.3,464.7h7v7h-7V464.7z
	 M7.3,471.9h7v7h-7V471.9z M7.3,479.2h7v7h-7V479.2z M7.3,486.5h7v7h-7V486.5z M7.3,493.7h7v7h-7V493.7z M7.3,501h7v7h-7V501z
	 M7.3,508.2h7v7h-7V508.2z M7.3,515.5h7v7h-7V515.5z M0,522.7h7v7H0V522.7z M7.3,522.7h7v7h-7V522.7z M0,537.2h7v7H0V537.2z
	 M0,551.8h7v7H0V551.8z M0,566.3h7v7H0V566.3z M0,580.8h7v7H0V580.8z M7.3,530h7v7h-7V530z M7.3,537.2h7v7h-7V537.2z M7.3,544.5h7v7
	h-7V544.5z M7.3,551.8h7v7h-7V551.8z M7.3,559h7v7h-7V559z M7.3,566.3h7v7h-7V566.3z M7.3,573.5h7v7h-7V573.5z M7.3,580.8h7v7h-7
	V580.8z M7.3,588.1h7v7h-7V588.1z M0,595.4h7v7H0V595.4z M0,609.9h7v7H0V609.9z M0,624.4h7v7H0V624.4z M0,638.9h7v7H0V638.9z
	 M7.3,595.4h7v7h-7V595.4z M7.3,602.6h7v7h-7V602.6z M7.3,609.9h7v7h-7V609.9z M7.3,617.2h7v7h-7V617.2z M7.3,624.4h7v7h-7V624.4z
	 M7.3,631.7h7v7h-7V631.7z M7.3,638.9h7v7h-7V638.9z M7.3,646.2h7v7h-7V646.2z M0,653.4h7v7H0V653.4z M7.3,653.4h7v7h-7V653.4z
	 M0,667.9h7v7H0V667.9z M0,682.5h7v7H0V682.5z M0,697h7v7H0V697z M0,711.5h7v7H0V711.5z M7.3,660.7h7v7h-7V660.7z M7.3,667.9h7v7h-7
	V667.9z M7.3,675.2h7v7h-7V675.2z M7.3,682.5h7v7h-7V682.5z M7.3,689.7h7v7h-7V689.7z M7.3,697h7v7h-7V697z M7.3,704.2h7v7h-7V704.2
	z M7.3,711.5h7v7h-7V711.5z M0,726.1h7v7H0V726.1z M0,740.6h7v7H0V740.6z M7.3,718.8h7v7h-7V718.8z M7.3,726.1h7v7h-7V726.1z
	 M7.3,733.3h7v7h-7V733.3z M7.3,740.6h7v7h-7V740.6z M7.3,747.8h7v7h-7V747.8z M0,755.1h7v7H0V755.1z M0,769.6h7v7H0V769.6z
	 M0,784.1h7v7H0V784.1z M0,798.6h7v7H0V798.6z M7.3,755.1h7v7h-7V755.1z M7.3,762.3h7v7h-7V762.3z M7.3,769.6h7v7h-7V769.6z
	 M7.3,776.9h7v7h-7V776.9z M7.3,784.1h7v7h-7V784.1z M7.3,791.4h7v7h-7V791.4z M7.3,798.6h7v7h-7V798.6z M7.3,805.9h7v7h-7V805.9z
	 M0,813.2h7v7H0V813.2z M7.3,813.2h7v7h-7V813.2z M7.3,820.4h7v7h-7V820.4z"/>
</svg>
