<?xml version="1.0" encoding="utf-8"?>
<!-- Generator: Adobe Illustrator 27.3.1, SVG Export Plug-In . SVG Version: 6.00 Build 0)  -->
<svg version="1.1" id="Слой_1" xmlns="http://www.w3.org/2000/svg" xmlns:xlink="http://www.w3.org/1999/xlink" x="0px" y="0px"
	 viewBox="0 0 67.1 67.1" style="enable-background:new 0 0 67.1 67.1;" xml:space="preserve">
<style type="text/css">
	.st0{fill:#F9DA93;}
	.st1{fill:#1E0E01;}
</style>
<g id="Слой_2_00000109735324426696990610000005452325114260116628_">
	<path class="st0" d="M67.1,8.2c0-0.6-0.4-1-1-1h-6.3V1c0-0.6-0.4-1-1-1h-7h-0.1h-0.1h-7c-0.1,0-0.1,0-0.2,0h-0.1h-7h-0.1h-0.1h-7
		C30,0,30,0,29.9,0h-0.1h-7c-0.1,0-0.1,0-0.1,0s-0.1,0-0.2,0h-7h-0.1h-0.1h-7c-0.6,0-1,0.4-1,1v6.2H1c-0.6,0-1,0.4-1,1v7
		c0,0.1,0,0.1,0,0.2v0.1v7c0,0.1,0,0.1,0,0.1v0.1v7v0.1v0.1v7C0,37,0,37,0,37.1v0.1v7c0,0.1,0,0.1,0,0.1s0,0.1,0,0.2v7v0.1v0.1v7
		c0,0.6,0.4,1,1,1h6.3V66c0,0.6,0.4,1,1,1h7h0.1h0.1h7c0.1,0,0.1,0,0.2,0h0.1h7c0.1,0,0.1,0,0.1,0s0.1,0,0.2,0h7h0.1h0.1h7
		c0.1,0,0.1,0,0.1,0s0.1,0,0.2,0h7h0.1h0.1h7c0.6,0,1-0.4,1-1v-6.3h6.3c0.6,0,1-0.4,1-1v-7v-0.1v-0.1v-7c0-0.1,0-0.1,0-0.2v-0.1v-7
		c0-0.1,0-0.1,0-0.1s0-0.1,0-0.2v-7v-0.1v-0.1v-7c0-0.1,0-0.1,0-0.1v-0.1v-7c0-0.1,0-0.1,0-0.1s0-0.1,0-0.2V8.2z"/>
</g>
<rect x="1" y="51.9" class="st1" width="7" height="7"/>
<rect x="1" y="44.6" class="st1" width="7" height="7"/>
<rect x="1" y="37.3" class="st1" width="7" height="7"/>
<rect x="1" y="30.1" class="st1" width="7" height="7"/>
<rect x="1" y="22.8" class="st1" width="7" height="7"/>
<rect x="1" y="15.5" class="st1" width="7" height="7"/>
<rect x="1" y="8.3" class="st1" width="7" height="7"/>
<rect x="15.5" y="37.3" class="st1" width="7" height="7"/>
<rect x="15.5" y="30.1" class="st1" width="7" height="7"/>
<rect x="15.5" y="22.8" class="st1" width="7" height="7"/>
<rect x="22.8" y="37.3" class="st1" width="7" height="7"/>
<rect x="22.8" y="22.8" class="st1" width="7" height="7"/>
<rect x="30" y="30.1" class="st1" width="7" height="7"/>
<rect x="37.3" y="37.3" class="st1" width="7" height="7"/>
<rect x="37.3" y="22.8" class="st1" width="7" height="7"/>
<rect x="22.8" y="44.6" class="st1" width="7" height="7"/>
<rect x="22.8" y="15.5" class="st1" width="7" height="7"/>
<rect x="30" y="44.6" class="st1" width="7" height="7"/>
<rect x="30" y="15.5" class="st1" width="7" height="7"/>
<rect x="37.3" y="44.6" class="st1" width="7" height="7"/>
<rect x="37.3" y="15.5" class="st1" width="7" height="7"/>
<rect x="44.6" y="37.3" class="st1" width="7" height="7"/>
<rect x="44.6" y="30.1" class="st1" width="7" height="7"/>
<rect x="44.6" y="22.8" class="st1" width="7" height="7"/>
<rect x="8.3" y="59.1" class="st1" width="7" height="7"/>
<rect x="8.3" y="1" class="st1" width="7" height="7"/>
<rect x="15.5" y="59.1" class="st1" width="7" height="7"/>
<rect x="15.5" y="1" class="st1" width="7" height="7"/>
<rect x="22.8" y="59.1" class="st1" width="7" height="7"/>
<rect x="22.8" y="1" class="st1" width="7" height="7"/>
<rect x="30.1" y="59.1" class="st1" width="7" height="7"/>
<rect x="30.1" y="1" class="st1" width="7" height="7"/>
<rect x="37.3" y="59.1" class="st1" width="7" height="7"/>
<rect x="37.3" y="1" class="st1" width="7" height="7"/>
<rect x="44.6" y="59.1" class="st1" width="7" height="7"/>
<rect x="44.6" y="1" class="st1" width="7" height="7"/>
<rect x="51.8" y="59.1" class="st1" width="7" height="7"/>
<rect x="51.8" y="1" class="st1" width="7" height="7"/>
<rect x="59.1" y="51.9" class="st1" width="7" height="7"/>
<rect x="59.1" y="44.6" class="st1" width="7" height="7"/>
<rect x="59.1" y="37.3" class="st1" width="7" height="7"/>
<rect x="59.1" y="30.1" class="st1" width="7" height="7"/>
<rect x="59.1" y="22.8" class="st1" width="7" height="7"/>
<rect x="59.1" y="15.5" class="st1" width="7" height="7"/>
<rect x="59.1" y="8.3" class="st1" width="7" height="7"/>
</svg>
