<?xml version="1.0" encoding="utf-8"?>
<!-- Generator: Adobe Illustrator 27.3.1, SVG Export Plug-In . SVG Version: 6.00 Build 0)  -->
<svg version="1.1" xmlns="http://www.w3.org/2000/svg" xmlns:xlink="http://www.w3.org/1999/xlink" x="0px" y="0px"
	 viewBox="0 0 79.6 79.5" style="enable-background:new 0 0 79.6 79.5;" xml:space="preserve">
<style type="text/css">
	.st0{fill:#FBE8B4;}
	.st1{fill:#1E0E01;}
</style>
<g id="Слой_2">
	<path class="st0" d="M80.1,7.2c0-0.3-0.2-0.5-0.5-0.5h-6.8V0c0-0.3-0.2-0.5-0.5-0.5h-7c0,0-0.1,0-0.1,0c0,0-0.1,0-0.1,0h-7
		c0,0-0.1,0-0.1,0c0,0-0.1,0-0.1,0h-7c0,0-0.1,0-0.1,0c0,0-0.1,0-0.1,0h-7c0,0-0.1,0-0.1,0c0,0-0.1,0-0.1,0h-7c0,0-0.1,0-0.1,0
		c0,0-0.1,0-0.1,0h-7c0,0-0.1,0-0.1,0c0,0-0.1,0-0.1,0h-7c0,0-0.1,0-0.1,0c0,0-0.1,0-0.1,0h-7c0,0-0.1,0-0.1,0c0,0-0.1,0-0.1,0h-7
		C7-0.5,6.8-0.3,6.8,0v6.7H0c-0.3,0-0.5,0.2-0.5,0.5v7c0,0.1,0,0.1,0,0.1c0,0,0,0.1,0,0.2v7c0,0.1,0,0.1,0,0.1c0,0,0,0.1,0,0.1v7
		c0,0,0,0.1,0,0.1c0,0,0,0.1,0,0.1v7c0,0.1,0,0.1,0,0.1c0,0,0,0.1,0,0.1v7c0,0.1,0,0.1,0,0.1c0,0,0,0.1,0,0.2v7c0,0,0,0.1,0,0.1
		c0,0,0,0.1,0,0.1v7c0,0.1,0,0.1,0,0.1c0,0,0,0.1,0,0.2v7c0,0.1,0,0.1,0,0.2c0,0,0,0.1,0,0.2v7c0,0.3,0.2,0.5,0.5,0.5h6.8v6.7
		C6.8,79.8,7,80,7.3,80h7c0,0,0.1,0,0.1,0c0,0,0.1,0,0.1,0h7c0,0,0.1,0,0.1,0c0,0,0.1,0,0.1,0h7c0,0,0.1,0,0.1,0c0,0,0.1,0,0.1,0h7
		c0,0,0.1,0,0.1,0c0,0,0.1,0,0.1,0h7c0,0,0.1,0,0.1,0c0,0,0.1,0,0.1,0h7c0,0,0.1,0,0.1,0c0,0,0.1,0,0.1,0h7c0,0,0.1,0,0.1,0
		c0,0,0.1,0,0.1,0h7c0,0,0.1,0,0.1,0c0,0,0.1,0,0.1,0h7c0.3,0,0.5-0.2,0.5-0.5v-6.7h6.8c0.3,0,0.5-0.2,0.5-0.5v-7c0-0.1,0-0.1,0-0.2
		c0,0,0-0.1,0-0.2v-7c0-0.1,0-0.1,0-0.2c0,0,0-0.1,0-0.1v-7c0,0,0-0.1,0-0.1c0,0,0-0.1,0-0.1v-7c0-0.1,0-0.1,0-0.2c0,0,0-0.1,0-0.1
		v-7c0-0.1,0-0.1,0-0.1c0,0,0-0.1,0-0.1v-7c0,0,0-0.1,0-0.1c0,0,0-0.1,0-0.1v-7c0-0.1,0-0.1,0-0.1c0,0,0-0.1,0-0.1v-7
		c0-0.1,0-0.1,0-0.2c0,0,0-0.1,0-0.1V7.2z"/>
</g>
<g id="Слой_1">
	<path class="st1" d="M14.5,29h7v7h-7V29z M14.5,36.3h7v7h-7V36.3z M21.8,21.7h7v7h-7V21.7z M29,29h7v7h-7V29z M29,36.3h7v7h-7V36.3
		z M29,14.4h7v7h-7V14.4z M36.3,29h7v7h-7V29z M36.3,36.3h7v7h-7V36.3z M36.3,14.4h7v7h-7V14.4z M43.5,29h7v7h-7V29z M43.5,36.3h7v7
		h-7V36.3z M43.5,14.4h7v7h-7V14.4z M50.8,21.7h7v7h-7V21.7z M58.1,29h7v7h-7V29z M58.1,36.3h7v7h-7V36.3z M14.5,43.6h7v7h-7V43.6z
		 M0,29h7v7H0V29z M0,36.3h7v7H0V36.3z M0,43.6h7v7H0V43.6z M0,7.2h7v7H0V7.2z M0,14.5h7v7H0V14.5z M0,21.8h7v7H0V21.8z M7.3,0h7v7
		h-7V0z M14.5,0h7v7h-7V0z M21.8,0h7v7h-7V0z M29,0h7v7h-7V0z M36.3,0h7v7h-7V0z M43.6,0h7v7h-7V0z M50.8,0h7v7h-7V0z M58.1,0h7v7
		h-7V0z M65.3,0h7v7h-7V0z M0,50.7h7v7H0V50.7z M0,58h7v7H0V58z M0,65.3h7v7H0V65.3z M7.3,72.5h7v7h-7V72.5z M14.5,72.5h7v7h-7V72.5
		z M21.8,72.5h7v7h-7V72.5z M29,72.5h7v7h-7V72.5z M36.3,72.5h7v7h-7V72.5z M43.6,72.5h7v7h-7V72.5z M50.8,72.5h7v7h-7V72.5z
		 M58.1,72.5h7v7h-7V72.5z M65.3,72.5h7v7h-7V72.5z M21.8,50.9h7v7h-7V50.9z M29,43.6h7v7h-7V43.6z M36.3,43.6h7v7h-7V43.6z
		 M29,58.2h7v7h-7V58.2z M36.3,58.2h7v7h-7V58.2z M43.5,43.6h7v7h-7V43.6z M50.8,50.9h7v7h-7V50.9z M43.5,58.2h7v7h-7V58.2z
		 M58.1,43.6h7v7h-7V43.6z M72.6,29h7v7h-7V29z M72.6,36.3h7v7h-7V36.3z M72.6,43.6h7v7h-7V43.6z M72.6,7.2h7v7h-7V7.2z M72.6,14.5
		h7v7h-7V14.5z M72.6,21.8h7v7h-7V21.8z M72.6,50.7h7v7h-7V50.7z M72.6,58h7v7h-7V58z M72.6,65.3h7v7h-7V65.3z"/>
</g>
</svg>
