<?xml version="1.0" encoding="utf-8"?>
<!-- Generator: Adobe Illustrator 27.3.1, SVG Export Plug-In . SVG Version: 6.00 Build 0)  -->
<svg version="1.1" id="Слой_1" xmlns="http://www.w3.org/2000/svg" xmlns:xlink="http://www.w3.org/1999/xlink" x="0px" y="0px"
	 viewBox="0 0 67.1 67.1" style="enable-background:new 0 0 67.1 67.1;" xml:space="preserve">
<style type="text/css">
	.st0{fill:#F9DA93;}
	.st1{fill:#1E0E01;}
</style>
<g id="Слой_2_00000109735324426696990610000005452325114260116628_">
	<path class="st0" d="M67.1,8.2c0-0.6-0.4-1-1-1h-6.3V1c0-0.6-0.4-1-1-1h-7h-0.1h-0.1h-7c-0.1,0-0.1,0-0.2,0h-0.1h-7h-0.1h-0.1h-7
		C30,0,30,0,29.9,0h-0.1h-7c-0.1,0-0.1,0-0.1,0s-0.1,0-0.2,0h-7h-0.1h-0.1h-7c-0.6,0-1,0.4-1,1v6.2H1c-0.6,0-1,0.4-1,1v7
		c0,0.1,0,0.1,0,0.2v0.1v7c0,0.1,0,0.1,0,0.1v0.1v7v0.1v0.1v7C0,37,0,37,0,37.1v0.1v7c0,0.1,0,0.1,0,0.1s0,0.1,0,0.2v7v0.1v0.1v7
		c0,0.6,0.4,1,1,1h6.3V66c0,0.6,0.4,1,1,1h7h0.1h0.1h7c0.1,0,0.1,0,0.2,0h0.1h7c0.1,0,0.1,0,0.1,0s0.1,0,0.2,0h7h0.1h0.1h7
		c0.1,0,0.1,0,0.1,0s0.1,0,0.2,0h7h0.1h0.1h7c0.6,0,1-0.4,1-1v-6.3h6.3c0.6,0,1-0.4,1-1v-7v-0.1v-0.1v-7c0-0.1,0-0.1,0-0.2v-0.1v-7
		c0-0.1,0-0.1,0-0.1s0-0.1,0-0.2v-7v-0.1v-0.1v-7c0-0.1,0-0.1,0-0.1v-0.1v-7c0-0.1,0-0.1,0-0.1s0-0.1,0-0.2V8.2z"/>
</g>
<path class="st1" d="M1,51.9h7v7H1V51.9z M1,44.6h7v7H1V44.6z M1,37.3h7v7H1V37.3z M1,30.1h7v7H1V30.1z M1,22.8h7v7H1V22.8z M1,15.5
	h7v7H1V15.5z M1,8.3h7v7H1V8.3z M15.5,37.3h7v7h-7V37.3z M15.5,30.1h7v7h-7V30.1z M15.5,22.8h7v7h-7V22.8z M22.8,44.6h7v7h-7V44.6z
	 M22.8,15.5h7v7h-7V15.5z M30,44.6h7v7h-7V44.6z M30,15.5h7v7h-7V15.5z M37.3,44.6h7v7h-7V44.6z M37.3,15.5h7v7h-7V15.5z M44.6,37.3
	h7v7h-7V37.3z M44.6,30.1h7v7h-7V30.1z M44.6,22.8h7v7h-7V22.8z M8.3,59.1h7v7h-7V59.1z M8.3,1h7v7h-7V1z M15.5,59.1h7v7h-7V59.1z
	 M15.5,1h7v7h-7V1z M22.8,59.1h7v7h-7V59.1z M22.8,1h7v7h-7V1z M30.1,59.1h7v7h-7C30.1,66.1,30.1,59.1,30.1,59.1z M30.1,1h7v7h-7
	C30.1,8,30.1,1,30.1,1z M37.3,59.1h7v7h-7V59.1z M37.3,1h7v7h-7V1z M44.6,59.1h7v7h-7V59.1z M44.6,1h7v7h-7V1z M51.8,59.1h7v7h-7
	V59.1z M51.8,1h7v7h-7V1z M59.1,51.9h7v7h-7V51.9z M59.1,44.6h7v7h-7V44.6z M59.1,37.3h7v7h-7V37.3z M59.1,30.1h7v7h-7V30.1z
	 M59.1,22.8h7v7h-7V22.8z M59.1,15.5h7v7h-7V15.5z M59.1,8.3h7v7h-7V8.3z"/>
</svg>
