<?xml version="1.0" encoding="utf-8"?>
<!-- Generator: Adobe Illustrator 27.3.1, SVG Export Plug-In . SVG Version: 6.00 Build 0)  -->
<svg version="1.1" xmlns="http://www.w3.org/2000/svg" xmlns:xlink="http://www.w3.org/1999/xlink" x="0px" y="0px"
	 viewBox="0 0 67.1 67.1" style="enable-background:new 0 0 67.1 67.1;" xml:space="preserve">
<style type="text/css">
	.st0{fill:#F9DA93;}
	.st1{fill:#1E0E01;}
</style>
<g id="Слой_2">
	<path class="st0" d="M67.1,8.2c0-0.6-0.4-1-1-1h-6.3V1c0-0.6-0.4-1-1-1h-7c0,0-0.1,0-0.1,0c0,0-0.1,0-0.1,0h-7c-0.1,0-0.1,0-0.2,0
		c0,0-0.1,0-0.1,0h-7c0,0-0.1,0-0.1,0c0,0-0.1,0-0.1,0h-7C30,0,30,0,29.9,0c0,0-0.1,0-0.1,0h-7c-0.1,0-0.1,0-0.1,0c0,0-0.1,0-0.2,0
		h-7c0,0-0.1,0-0.1,0c0,0-0.1,0-0.1,0h-7c-0.6,0-1,0.4-1,1v6.2H1c-0.6,0-1,0.4-1,1v7c0,0.1,0,0.1,0,0.2c0,0,0,0.1,0,0.1v7
		c0,0.1,0,0.1,0,0.1c0,0,0,0.1,0,0.1v7c0,0,0,0.1,0,0.1c0,0,0,0.1,0,0.1v7c0,0.1,0,0.1,0,0.2c0,0,0,0.1,0,0.1v7c0,0.1,0,0.1,0,0.1
		c0,0,0,0.1,0,0.2v7c0,0,0,0.1,0,0.1c0,0,0,0.1,0,0.1v7c0,0.6,0.4,1,1,1h6.3v6.3c0,0.6,0.4,1,1,1h7c0,0,0.1,0,0.1,0c0,0,0.1,0,0.1,0
		h7c0.1,0,0.1,0,0.2,0c0,0,0.1,0,0.1,0h7c0.1,0,0.1,0,0.1,0c0,0,0.1,0,0.2,0h7c0,0,0.1,0,0.1,0c0,0,0.1,0,0.1,0h7c0.1,0,0.1,0,0.1,0
		c0,0,0.1,0,0.2,0h7c0,0,0.1,0,0.1,0c0,0,0.1,0,0.1,0h7c0.6,0,1-0.4,1-1v-6.3h6.3c0.6,0,1-0.4,1-1v-7c0,0,0-0.1,0-0.1
		c0,0,0-0.1,0-0.1v-7c0-0.1,0-0.1,0-0.2c0,0,0-0.1,0-0.1v-7c0-0.1,0-0.1,0-0.1c0,0,0-0.1,0-0.2v-7c0,0,0-0.1,0-0.1c0,0,0-0.1,0-0.1
		v-7c0-0.1,0-0.1,0-0.1c0,0,0-0.1,0-0.1v-7c0-0.1,0-0.1,0-0.1c0,0,0-0.1,0-0.2V8.2z"/>
</g>
<g id="Слой_1">
	<path class="st1" d="M1,8.2h7v7H1V8.2z M1,15.5h7v7H1V15.5z M1,22.8h7v7H1V22.8z M1,30h7v7H1V30z M1,37.3h7v7H1V37.3z M1,44.6h7v7
		H1V44.6z M1,51.8h7v7H1V51.8z M8.3,1h7v7h-7V1z M8.3,59.1h7v7h-7V59.1z M15.5,1h7v7h-7V1z M15.5,30h7v7h-7V30z M15.5,37.3h7v7h-7
		V37.3z M15.5,44.6h7v7h-7V44.6z M15.5,59.1h7v7h-7V59.1z M22.8,1h7v7h-7V1z M22.8,22.8h7v7h-7V22.8z M22.8,30h7v7h-7V30z
		 M22.8,37.3h7v7h-7V37.3z M22.8,59.1h7v7h-7V59.1z M30.1,1h7v7h-7V1z M30.1,15.5h7v7h-7V15.5z M30.1,22.8h7v7h-7V22.8z M30.1,30h7
		v7h-7V30z M30.1,59.1h7v7h-7V59.1z M37.3,1h7v7h-7V1z M37.3,22.8h7v7h-7V22.8z M37.3,30h7v7h-7V30z M37.3,37.3h7v7h-7V37.3z
		 M37.3,59.1h7v7h-7V59.1z M44.6,1h7v7h-7V1z M44.6,30h7v7h-7V30z M44.6,37.3h7v7h-7V37.3z M44.6,44.6h7v7h-7V44.6z M44.6,59.1h7v7
		h-7V59.1z M51.8,1h7v7h-7V1z M51.8,59.1h7v7h-7V59.1z M59.1,8.2h7v7h-7V8.2z M59.1,15.5h7v7h-7V15.5z M59.1,22.8h7v7h-7V22.8z
		 M59.1,30h7v7h-7V30z M59.1,37.3h7v7h-7V37.3z M59.1,44.6h7v7h-7V44.6z M59.1,51.8h7v7h-7V51.8z"/>
</g>
</svg>
