<?xml version="1.0" encoding="utf-8"?>
<!-- Generator: Adobe Illustrator 27.3.1, SVG Export Plug-In . SVG Version: 6.00 Build 0)  -->
<svg version="1.1" id="Слой_1" xmlns="http://www.w3.org/2000/svg" xmlns:xlink="http://www.w3.org/1999/xlink" x="0px" y="0px"
	 viewBox="0 0 50.6 50.6" style="enable-background:new 0 0 50.6 50.6;" xml:space="preserve">
<style type="text/css">
	.st0{fill:#1E0E01;}
</style>
<path class="st0" d="M7.3,7.2h7v7h-7V7.2z M7.3,14.5h7v7h-7V14.5z M7.3,29h7v7h-7V29z M7.3,36.3h7v7h-7V36.3z M14.5,7.2h7v7h-7V7.2z
	 M14.5,36.3h7v7h-7V36.3z M29.1,7.2h7v7h-7V7.2z M29.1,36.3h7v7h-7V36.3z M36.3,7.2h7v7h-7V7.2z M36.3,14.5h7v7h-7V14.5z M36.3,29h7
	v7h-7V29z M36.3,36.3h7v7h-7V36.3z"/>
</svg>
