<?xml version="1.0" encoding="utf-8"?>
<!-- Generator: Adobe Illustrator 27.3.1, SVG Export Plug-In . SVG Version: 6.00 Build 0)  -->
<svg version="1.1" id="Слой_1" xmlns="http://www.w3.org/2000/svg" xmlns:xlink="http://www.w3.org/1999/xlink" x="0px" y="0px"
	 viewBox="0 0 137.8 28.7" style="enable-background:new 0 0 137.8 28.7;" xml:space="preserve">
<style type="text/css">
	.st0{fill:#1E0E01;}
</style>
<path class="st0" d="M7.3,0h7v7h-7V0z M7.3,7.2h7v7h-7V7.2z M7.3,14.5h7v7h-7V14.5z M0,7.2h7v7H0V7.2z M0,14.5h7v7H0V14.5z M14.6,0
	h7v7h-7V0z M14.6,7.2h7v7h-7V7.2z M21.8,0h7v7h-7V0z M29.1,0h7v7h-7V0z M36.4,0h7v7h-7V0z M36.4,14.5h7v7h-7V14.5z M43.6,0h7v7h-7V0
	z M43.6,7.2h7v7h-7V7.2z M43.6,14.5h7v7h-7V14.5z M50.9,0h7v7h-7V0z M50.9,7.2h7v7h-7V7.2z M58.1,0h7v7h-7V0z M65.4,0h7v7h-7V0z
	 M72.7,0h7v7h-7V0z M79.9,0h7v7h-7V0z M79.9,7.2h7v7h-7V7.2z M87.2,0h7v7h-7V0z M87.2,7.2h7v7h-7V7.2z M87.2,14.5h7v7h-7V14.5z
	 M94.4,0h7v7h-7C94.4,7,94.4,0,94.4,0z M94.4,14.5h7v7h-7C94.4,21.5,94.4,14.5,94.4,14.5z M101.7,0h7v7h-7V0z M109,0h7v7h-7V0z
	 M116.2,0h7v7h-7V0z M116.2,7.2h7v7h-7V7.2z M123.5,0h7v7h-7V0z M123.5,7.2h7v7h-7V7.2z M123.5,14.5h7v7h-7V14.5z M130.8,7.2h7v7h-7
	V7.2z M130.8,14.5h7v7h-7V14.5z M7.3,21.7h7v7h-7V21.7z M14.6,21.7h7v7h-7V21.7z M21.8,21.7h7v7h-7V21.7z M29.1,21.7h7v7h-7V21.7z
	 M36.4,21.7h7v7h-7V21.7z M43.6,21.7h7v7h-7V21.7z M50.9,21.7h7v7h-7V21.7z M58.1,21.7h7v7h-7V21.7z M65.4,21.7h7v7h-7V21.7z
	 M72.7,21.7h7v7h-7V21.7z M79.9,21.7h7v7h-7V21.7z M87.2,21.7h7v7h-7V21.7z M94.4,21.7h7v7h-7C94.4,28.7,94.4,21.7,94.4,21.7z
	 M101.7,21.7h7v7h-7V21.7z M109,21.7h7v7h-7V21.7z M116.2,21.7h7v7h-7V21.7z M123.5,21.7h7v7h-7V21.7z"/>
</svg>
