<?xml version="1.0" encoding="utf-8"?>
<!-- Generator: Adobe Illustrator 27.3.1, SVG Export Plug-In . SVG Version: 6.00 Build 0)  -->
<svg version="1.1" id="Слой_1" xmlns="http://www.w3.org/2000/svg" xmlns:xlink="http://www.w3.org/1999/xlink" x="0px" y="0px"
	 viewBox="0 0 195.8 28.7" style="enable-background:new 0 0 195.8 28.7;" xml:space="preserve">
<style type="text/css">
	.st0{fill:#1E0E01;}
</style>
<path class="st0" d="M0,7.2h7v7H0V7.2z M0,14.5h7v7H0V14.5z M7.3,0h7v7h-7V0z M7.3,7.2h7v7h-7V7.2z M14.5,0h7v7h-7V0z M21.8,0h7v7
	h-7V0z M29.1,0h7v7h-7V0z M29.1,14.5h7v7h-7V14.5z M36.3,0h7v7h-7V0z M36.3,7.2h7v7h-7V7.2z M36.3,14.5h7v7h-7V14.5z M43.6,0h7v7h-7
	V0z M43.6,7.2h7v7h-7V7.2z M50.8,0h7v7h-7V0z M58.1,0h7v7h-7V0z M65.4,0h7v7h-7V0z M65.4,14.5h7v7h-7V14.5z M72.6,0h7v7h-7V0z
	 M72.6,7.2h7v7h-7V7.2z M72.6,14.5h7v7h-7V14.5z M79.9,0h7v7h-7V0z M79.9,7.2h7v7h-7V7.2z M87.1,0h7v7h-7V0z M94.4,0h7v7h-7V0z
	 M101.7,0h7v7h-7V0z M108.9,0h7v7h-7V0z M108.9,7.2h7v7h-7V7.2z M116.2,0h7v7h-7V0z M116.2,7.2h7v7h-7V7.2z M116.2,14.5h7v7h-7V14.5
	z M123.4,0h7v7h-7V0z M123.4,14.5h7v7h-7V14.5z M130.7,0h7v7h-7V0z M138,0h7v7h-7V0z M145.2,0h7v7h-7V0z M145.2,7.2h7v7h-7V7.2z
	 M152.5,0h7v7h-7V0z M152.5,7.2h7v7h-7V7.2z M152.5,14.5h7v7h-7V14.5z M159.7,0h7v7h-7V0z M159.7,14.5h7v7h-7V14.5z M167,0h7v7h-7V0
	z M174.3,0h7v7h-7V0z M181.5,0h7v7h-7V0z M181.5,7.2h7v7h-7V7.2z M188.8,7.2h7v7h-7V7.2z M188.8,14.5h7v7h-7V14.5z M7.3,21.7h7v7h-7
	V21.7z M14.5,21.7h7v7h-7V21.7z M21.8,21.7h7v7h-7V21.7z M29.1,21.7h7v7h-7V21.7z M36.3,21.7h7v7h-7V21.7z M43.6,21.7h7v7h-7V21.7z
	 M50.8,21.7h7v7h-7V21.7z M58.1,21.7h7v7h-7V21.7z M65.4,21.7h7v7h-7V21.7z M72.6,21.7h7v7h-7V21.7z M79.9,21.7h7v7h-7V21.7z
	 M87.1,21.7h7v7h-7V21.7z M94.4,21.7h7v7h-7V21.7z M101.7,21.7h7v7h-7V21.7z M108.9,21.7h7v7h-7V21.7z M116.2,21.7h7v7h-7V21.7z
	 M123.4,21.7h7v7h-7V21.7z M130.7,21.7h7v7h-7V21.7z M138,21.7h7v7h-7V21.7z M145.2,21.7h7v7h-7V21.7z M152.5,21.7h7v7h-7V21.7z
	 M159.7,21.7h7v7h-7V21.7z M167,21.7h7v7h-7V21.7z M174.3,21.7h7v7h-7V21.7z M181.5,21.7h7v7h-7V21.7z"/>
</svg>
