<?xml version="1.0" encoding="utf-8"?>
<!-- Generator: Adobe Illustrator 27.3.1, SVG Export Plug-In . SVG Version: 6.00 Build 0)  -->
<svg version="1.1" xmlns="http://www.w3.org/2000/svg" xmlns:xlink="http://www.w3.org/1999/xlink" x="0px" y="0px"
	 viewBox="0 0 138.6 28.7" style="enable-background:new 0 0 138.6 28.7;" xml:space="preserve">
<style type="text/css">
	.st0{fill:#F7D379;}
	.st1{fill:#1E0E01;}
</style>
<g id="Слой_2">
	<path class="st0" d="M143.1,7.2c0-2.8-2.2-5-5-5h-2.3V0c0-2.8-2.2-5-5-5h-7c0,0-0.1,0-0.2,0c0,0-0.1,0-0.1,0h-7c-0.1,0-0.1,0-0.2,0
		h-7c0,0-0.1,0-0.2,0c0,0-0.1,0-0.1,0h-7c0,0-0.1,0-0.1,0c0,0-0.1,0-0.2,0h-7c-0.1,0-0.1,0-0.2,0h-7c0,0-0.1,0-0.1,0
		c0,0-0.1,0-0.2,0h-7c-0.1,0-0.1,0-0.2,0h-7c0,0-0.1,0-0.1,0c0,0-0.1,0-0.2,0h-7c-0.1,0-0.1,0-0.1,0c0,0-0.1,0-0.1,0h-7
		c-0.1,0-0.1,0-0.2,0h-7c-0.1,0-0.1,0-0.1,0c0,0-0.1,0-0.1,0h-7c-0.1,0-0.1,0-0.2,0h-7c-0.1,0-0.1,0-0.1,0c0,0-0.1,0-0.1,0h-7
		c-0.1,0-0.1,0-0.1,0c-0.1,0-0.1,0-0.2,0h-7c-0.1,0-0.1,0-0.2,0h-7c-0.1,0-0.1,0-0.1,0c-0.1,0-0.1,0-0.2,0h-7c-2.8,0-5,2.2-5,5v2.2
		H0.3c-2.8,0-5,2.2-5,5v7c0,0.1,0,0.1,0,0.1c0,0,0,0.1,0,0.1v7c0,2.8,2.2,5,5,5h2.3v2.2c0,2.8,2.2,5,5,5h7c0.1,0,0.2,0,0.3,0h7
		c0.1,0,0.1,0,0.2,0h7c0.1,0,0.2,0,0.3,0h7c0.1,0,0.2,0,0.3,0h7c0.1,0,0.1,0,0.2,0h7c0.1,0,0.2,0,0.3,0h7c0.1,0,0.1,0,0.2,0h7
		c0.1,0,0.2,0,0.3,0h7c0.1,0,0.2,0,0.3,0h7c0.1,0,0.1,0,0.2,0h7c0.1,0,0.2,0,0.3,0h7c0.1,0,0.1,0,0.2,0h7c0.1,0,0.2,0,0.3,0h7
		c0.1,0,0.2,0,0.3,0h7c0.1,0,0.1,0,0.2,0h7c0.1,0,0.2,0,0.3,0h7c2.8,0,5-2.2,5-5v-2.2h2.3c2.8,0,5-2.2,5-5v-7c0-0.1,0-0.1,0-0.1
		c0,0,0-0.1,0-0.1V7.2z"/>
</g>
<g id="Слой_1">
	<path class="st1" d="M7.6,0h7v7h-7V0z M7.6,7.2h7v7h-7V7.2z M7.6,14.5h7v7h-7V14.5z M0.3,7.2h7v7h-7V7.2z M0.3,14.5h7v7h-7V14.5z
		 M14.9,0h7v7h-7V0z M14.9,7.2h7v7h-7V7.2z M22.1,0h7v7h-7V0z M29.4,0h7v7h-7C29.4,7,29.4,0,29.4,0z M36.7,0h7v7h-7V0z M36.7,14.5h7
		v7h-7V14.5z M43.9,0h7v7h-7V0z M43.9,7.2h7v7h-7V7.2z M43.9,14.5h7v7h-7V14.5z M51.2,0h7v7h-7V0z M51.2,7.2h7v7h-7V7.2z M58.4,0h7
		v7h-7V0z M65.7,0h7v7h-7V0z M73,0h7v7h-7V0z M80.2,0h7v7h-7V0z M80.2,7.2h7v7h-7V7.2z M87.5,0h7v7h-7V0z M87.5,7.2h7v7h-7V7.2z
		 M87.5,14.5h7v7h-7V14.5z M94.7,0h7v7h-7V0z M94.7,14.5h7v7h-7V14.5z M102,0h7v7h-7V0z M109.3,0h7v7h-7V0z M116.5,0h7v7h-7V0z
		 M116.5,7.2h7v7h-7V7.2z M123.8,0h7v7h-7V0z M123.8,7.2h7v7h-7V7.2z M123.8,14.5h7v7h-7V14.5z M131.1,7.2h7v7h-7V7.2z M131.1,14.5
		h7v7h-7V14.5z M7.6,21.7h7v7h-7V21.7z M14.9,21.7h7v7h-7V21.7z M22.1,21.7h7v7h-7V21.7z M29.4,21.7h7v7h-7
		C29.4,28.7,29.4,21.7,29.4,21.7z M36.7,21.7h7v7h-7V21.7z M43.9,21.7h7v7h-7V21.7z M51.2,21.7h7v7h-7V21.7z M58.4,21.7h7v7h-7V21.7
		z M65.7,21.7h7v7h-7V21.7z M73,21.7h7v7h-7V21.7z M80.2,21.7h7v7h-7V21.7z M87.5,21.7h7v7h-7V21.7z M94.7,21.7h7v7h-7V21.7z
		 M102,21.7h7v7h-7V21.7z M109.3,21.7h7v7h-7V21.7z M116.5,21.7h7v7h-7V21.7z M123.8,21.7h7v7h-7V21.7z"/>
</g>
</svg>
