<?xml version="1.0" encoding="utf-8"?>
<!-- Generator: Adobe Illustrator 27.3.1, SVG Export Plug-In . SVG Version: 6.00 Build 0)  -->
<svg version="1.1" xmlns="http://www.w3.org/2000/svg" xmlns:xlink="http://www.w3.org/1999/xlink" x="0px" y="0px"
	 viewBox="0 0 254.6 28.7" style="enable-background:new 0 0 254.6 28.7;" xml:space="preserve">
<style type="text/css">
	.st0{fill:#F7D379;}
	.st1{fill:#1E0E01;}
</style>
<g id="Слой_2">
	<path class="st0" d="M259.2,7.2c0-2.8-2.2-5-5-5h-2.3V0c0-2.8-2.2-5-5-5h-7c0,0-0.1,0-0.2,0c0,0-0.1,0-0.1,0h-7c0,0-0.1,0-0.2,0
		c0,0-0.1,0-0.1,0h-7c-0.1,0-0.1,0-0.2,0h-7c-0.1,0-0.1,0-0.2,0h-7c-0.1,0-0.1,0-0.2,0h-7c0,0-0.1,0-0.2,0c0,0-0.1,0-0.1,0h-7
		c0,0-0.1,0-0.2,0c0,0-0.1,0-0.1,0h-7c-0.1,0-0.1,0-0.2,0h-7c0,0-0.1,0-0.2,0c0,0-0.1,0-0.1,0h-7c-0.1,0-0.1,0-0.2,0h-7
		c0,0-0.1,0-0.2,0c0,0-0.1,0-0.1,0h-7c0,0-0.1,0-0.2,0c0,0-0.1,0-0.1,0h-7c-0.1,0-0.1,0-0.2,0h-7c0,0-0.1,0-0.2,0c0,0-0.1,0-0.1,0
		h-7c-0.1,0-0.1,0-0.2,0h-7c0,0-0.1,0-0.2,0c0,0-0.1,0-0.1,0h-7c-0.1,0-0.1,0-0.1,0c0,0-0.1,0-0.1,0h-7c-0.1,0-0.1,0-0.2,0h-7
		c-0.1,0-0.1,0-0.1,0c0,0-0.1,0-0.1,0h-7c-0.1,0-0.1,0-0.2,0h-7c-0.1,0-0.1,0-0.1,0c0,0-0.1,0-0.1,0h-7c-0.1,0-0.1,0-0.2,0
		c0,0-0.1,0-0.1,0h-7c-0.1,0-0.1,0-0.2,0h-7c-0.1,0-0.1,0-0.2,0c0,0-0.1,0-0.1,0h-7c-0.1,0-0.1,0-0.2,0h-7c-0.1,0-0.1,0-0.2,0
		c0,0-0.1,0-0.1,0h-7c-0.1,0-0.1,0-0.1,0c0,0-0.1,0-0.1,0h-7c-0.1,0-0.1,0-0.2,0h-7c-0.1,0-0.1,0-0.2,0h-7c-0.1,0-0.1,0-0.2,0h-7
		c-0.1,0-0.1,0-0.1,0c0,0-0.1,0-0.1,0h-7c-0.1,0-0.1,0-0.2,0c0,0-0.1,0-0.1,0h-7c-2.8,0-5,2.2-5,5v2.2H0.4c-2.8,0-5,2.2-5,5v7
		c0,0.1,0,0.1,0,0.1c0,0,0,0.1,0,0.1v7c0,2.8,2.2,5,5,5h2.3v2.2c0,2.8,2.2,5,5,5h7c0.1,0,0.2,0,0.3,0h7c0.1,0,0.2,0,0.3,0h7
		c0.1,0,0.1,0,0.2,0h7c0.1,0,0.1,0,0.2,0h7c0.1,0,0.1,0,0.2,0h7c0.1,0,0.2,0,0.3,0h7c0.1,0,0.2,0,0.3,0h7c0.1,0,0.1,0,0.2,0h7
		c0.1,0,0.2,0,0.3,0h7c0.1,0,0.1,0,0.2,0h7c0.1,0,0.2,0,0.3,0h7c0.1,0,0.2,0,0.3,0h7c0.1,0,0.1,0,0.2,0h7c0.1,0,0.2,0,0.3,0h7
		c0.1,0,0.1,0,0.2,0h7c0.1,0,0.2,0,0.3,0h7c0.1,0,0.2,0,0.3,0h7c0.1,0,0.1,0,0.2,0h7c0.1,0,0.2,0,0.3,0h7c0.1,0,0.1,0,0.2,0h7
		c0.1,0,0.2,0,0.3,0h7c0.1,0,0.2,0,0.3,0h7c0.1,0,0.1,0,0.2,0h7c0.1,0,0.2,0,0.3,0h7c0.1,0,0.1,0,0.2,0h7c0.1,0,0.2,0,0.3,0h7
		c0.1,0,0.2,0,0.3,0h7c0.1,0,0.1,0,0.2,0h7c0.1,0,0.1,0,0.2,0h7c0.1,0,0.1,0,0.2,0h7c0.1,0,0.2,0,0.3,0h7c0.1,0,0.2,0,0.3,0h7
		c2.8,0,5-2.2,5-5v-2.2h2.3c2.8,0,5-2.2,5-5v-7c0-0.1,0-0.1,0-0.1c0,0,0-0.1,0-0.1V7.2z"/>
</g>
<g id="Слой_1">
	<path class="st1" d="M36.7,0h7v7h-7V0z M36.7,7.2h7v7h-7V7.2z M43.9,0h7v7h-7V0z M51.2,0h7v7h-7V0z M58.5,0h7v7h-7V0z M58.5,14.5h7
		v7h-7V14.5z M65.7,0h7v7h-7V0z M65.7,7.2h7v7h-7V7.2z M65.7,14.5h7v7h-7V14.5z M73,0h7v7h-7V0z M73,7.2h7v7h-7V7.2z M80.2,0h7v7h-7
		V0z M87.5,0h7v7h-7V0z M94.8,0h7v7h-7V0z M94.8,14.5h7v7h-7V14.5z M102,0h7v7h-7V0z M102,7.2h7v7h-7V7.2z M102,14.5h7v7h-7V14.5z
		 M109.3,0h7v7h-7V0z M109.3,7.2h7v7h-7V7.2z M116.5,0h7v7h-7V0z M123.8,0h7v7h-7C123.8,7,123.8,0,123.8,0z M131.1,0h7v7h-7V0z
		 M138.3,0h7v7h-7V0z M138.3,7.2h7v7h-7V7.2z M145.6,0h7v7h-7V0z M145.6,7.2h7v7h-7V7.2z M145.6,14.5h7v7h-7V14.5z M152.8,0h7v7h-7
		V0z M152.8,14.5h7v7h-7V14.5z M160.1,0h7v7h-7V0z M167.4,0h7v7h-7V0z M174.6,0h7v7h-7V0z M174.6,7.2h7v7h-7V7.2z M181.9,0h7v7h-7V0
		z M181.9,7.2h7v7h-7V7.2z M181.9,14.5h7v7h-7V14.5z M189.1,0h7v7h-7V0z M189.1,14.5h7v7h-7V14.5z M196.4,0h7v7h-7V0z M203.7,0h7v7
		h-7V0z M210.9,0h7v7h-7V0z M210.9,7.2h7v7h-7V7.2z M36.7,21.7h7v7h-7V21.7z M43.9,21.7h7v7h-7V21.7z M51.2,21.7h7v7h-7V21.7z
		 M58.5,21.7h7v7h-7V21.7z M65.7,21.7h7v7h-7V21.7z M0.4,7.2h7v7h-7V7.2z M7.7,7.2h7v7h-7V7.2z M0.4,14.5h7v7h-7V14.5z M7.7,0h7v7
		h-7V0z M15,0h7v7h-7V0z M22.3,0h7v7h-7V0z M22.3,14.5h7v7h-7V14.5z M29.5,0h7v7h-7C29.5,7,29.5,0,29.5,0z M29.5,7.2h7v7h-7
		C29.5,14.2,29.5,7.2,29.5,7.2z M29.5,14.5h7v7h-7C29.5,21.5,29.5,14.5,29.5,14.5z M7.7,21.7h7v7h-7V21.7z M15,21.7h7v7h-7V21.7z
		 M22.3,21.7h7v7h-7V21.7z M29.5,21.7h7v7h-7C29.5,28.7,29.5,21.7,29.5,21.7z M73,21.7h7v7h-7V21.7z M80.2,21.7h7v7h-7V21.7z
		 M87.5,21.7h7v7h-7V21.7z M94.8,21.7h7v7h-7V21.7z M102,21.7h7v7h-7V21.7z M109.3,21.7h7v7h-7V21.7z M116.5,21.7h7v7h-7V21.7z
		 M123.8,21.7h7v7h-7C123.8,28.7,123.8,21.7,123.8,21.7z M131.1,21.7h7v7h-7V21.7z M138.3,21.7h7v7h-7V21.7z M145.6,21.7h7v7h-7
		V21.7z M152.8,21.7h7v7h-7V21.7z M160.1,21.7h7v7h-7V21.7z M167.4,21.7h7v7h-7V21.7z M174.6,21.7h7v7h-7V21.7z M181.9,21.7h7v7h-7
		V21.7z M189.1,21.7h7v7h-7V21.7z M196.4,21.7h7v7h-7V21.7z M203.7,21.7h7v7h-7V21.7z M210.9,21.7h7v7h-7V21.7z M218.1,0h7v7h-7V0z
		 M218.1,7.2h7v7h-7V7.2z M218.1,14.5h7v7h-7V14.5z M225.3,0h7v7h-7V0z M225.3,14.5h7v7h-7V14.5z M232.6,0h7v7h-7V0z M239.9,0h7v7
		h-7V0z M239.9,7.2h7v7h-7V7.2z M247.2,7.2h7v7h-7V7.2z M247.2,14.5h7v7h-7V14.5z M218.1,21.7h7v7h-7V21.7z M225.3,21.7h7v7h-7V21.7
		z M232.6,21.7h7v7h-7V21.7z M239.9,21.7h7v7h-7V21.7z"/>
</g>
</svg>
