<?xml version="1.0" encoding="utf-8"?>
<!-- Generator: Adobe Illustrator 27.3.1, SVG Export Plug-In . SVG Version: 6.00 Build 0)  -->
<svg version="1.1" xmlns="http://www.w3.org/2000/svg" xmlns:xlink="http://www.w3.org/1999/xlink" x="0px" y="0px"
	 viewBox="0 0 870.9 595.1" style="enable-background:new 0 0 870.9 595.1;" xml:space="preserve">
<style type="text/css">
	.st0{display:none;}
	.st1{fill:#1E0E01;}
</style>
<g id="Слой_2" class="st0">
	
		<image style="display:inline;overflow:visible;" width="1200" height="800" xlink:href="f23f32.jpg"  transform="matrix(1.1186 0 0 1.1186 -348.1562 -201.65)">
	</image>
</g>
<g id="Слой_1">
	<g id="Слой_1_00000010273091096693289490000001297315692549477020_">
	</g>
	<path class="st1" d="M0,0h7v7H0V0z M0,29h7v7H0V29z M0,50.8h7v7H0V50.8z M0,65.3h7v7H0V65.3z M0,79.9h7v7H0V79.9z M0,108.9h7v7H0
		V108.9z M0,123.4h7v7H0V123.4z M0,152.4h7v7H0V152.4z M0,167h7v7H0V167z M0,196h7v7H0V196z M0,210.5h7v7H0V210.5z M0,239.6h7v7H0
		V239.6z M0,254.1h7v7H0V254.1z M0,283.1h7v7H0V283.1z M0,297.6h7v7H0V297.6z M0,312.2h7v7H0V312.2z M0,326.7h7v7H0V326.7z M0,334h7
		v7H0V334z M0,348.5h7v7H0V348.5z M0,363h7v7H0V363z M0,377.5h7v7H0V377.5z M7.3,14.5h7v7h-7V14.5z M7.3,43.6h7v7h-7V43.6z
		 M7.3,87.1h7v7h-7V87.1z M7.3,101.6h7v7h-7V101.6z M7.3,130.7h7v7h-7V130.7z M7.3,145.2h7v7h-7V145.2z M7.3,174.2h7v7h-7V174.2z
		 M7.3,188.8h7v7h-7V188.8z M7.3,217.8h7v7h-7V217.8z M7.3,232.3h7v7h-7V232.3z M7.3,261.4h7v7h-7V261.4z M7.3,275.9h7v7h-7V275.9z
		 M7.3,304.9h7v7h-7V304.9z M7.3,319.4h7v7h-7V319.4z M7.3,326.7h7v7h-7V326.7z M7.3,341.2h7v7h-7V341.2z M7.3,355.7h7v7h-7V355.7z
		 M7.3,370.2h7v7h-7V370.2z M14.5,0h7v7h-7V0z M14.5,29h7v7h-7V29z M14.5,50.8h7v7h-7V50.8z M14.5,65.3h7v7h-7V65.3z M14.5,79.9h7v7
		h-7V79.9z M14.5,108.9h7v7h-7V108.9z M14.5,123.4h7v7h-7V123.4z M14.5,152.4h7v7h-7V152.4z M14.5,167h7v7h-7V167z M14.5,196h7v7h-7
		V196z M14.5,210.5h7v7h-7V210.5z M14.5,239.6h7v7h-7V239.6z M14.5,254.1h7v7h-7V254.1z M14.5,283.1h7v7h-7V283.1z M14.5,297.6h7v7
		h-7V297.6z M14.5,312.2h7v7h-7V312.2z M14.5,326.7h7v7h-7V326.7z M14.5,334h7v7h-7V334z M14.5,348.5h7v7h-7V348.5z M14.5,355.7h7v7
		h-7V355.7z M14.5,370.2h7v7h-7V370.2z M14.5,377.5h7v7h-7V377.5z M21.8,14.5h7v7h-7V14.5z M21.8,43.6h7v7h-7V43.6z M21.8,87.1h7v7
		h-7V87.1z M21.8,101.6h7v7h-7V101.6z M21.8,130.7h7v7h-7V130.7z M21.8,145.2h7v7h-7V145.2z M21.8,174.2h7v7h-7V174.2z M21.8,188.8
		h7v7h-7V188.8z M21.8,217.8h7v7h-7V217.8z M21.8,232.3h7v7h-7V232.3z M21.8,261.4h7v7h-7V261.4z M21.8,275.9h7v7h-7V275.9z
		 M21.8,304.9h7v7h-7V304.9z M21.8,319.4h7v7h-7V319.4z M21.8,326.7h7v7h-7V326.7z M21.8,341.2h7v7h-7V341.2z M21.8,348.5h7v7h-7
		V348.5z M21.8,363h7v7h-7V363z M21.8,377.5h7v7h-7V377.5z M29.1,0h7v7h-7V0z M29.1,29h7v7h-7V29z M29.1,50.8h7v7h-7V50.8z
		 M29.1,65.3h7v7h-7V65.3z M29.1,79.9h7v7h-7V79.9z M29.1,108.9h7v7h-7V108.9z M29.1,123.4h7v7h-7V123.4z M29.1,152.4h7v7h-7V152.4z
		 M29.1,167h7v7h-7V167z M29.1,196h7v7h-7V196z M29.1,210.5h7v7h-7V210.5z M29.1,239.6h7v7h-7V239.6z M29.1,254.1h7v7h-7V254.1z
		 M29.1,268.6h7v7h-7V268.6z M29.1,283.1h7v7h-7V283.1z M29.1,297.6h7v7h-7V297.6z M29.1,312.2h7v7h-7V312.2z M29.1,326.7h7v7h-7
		V326.7z M29.1,334h7v7h-7V334z M29.1,355.7h7v7h-7V355.7z M29.1,370.2h7v7h-7V370.2z M36.3,14.5h7v7h-7V14.5z M36.3,43.6h7v7h-7
		V43.6z M36.3,87.1h7v7h-7V87.1z M36.3,101.6h7v7h-7V101.6z M36.3,130.7h7v7h-7V130.7z M36.3,145.2h7v7h-7V145.2z M36.3,174.2h7v7
		h-7V174.2z M36.3,188.8h7v7h-7V188.8z M36.3,217.8h7v7h-7V217.8z M36.3,232.3h7v7h-7V232.3z M36.3,246.8h7v7h-7V246.8z M36.3,261.4
		h7v7h-7V261.4z M36.3,275.9h7v7h-7V275.9z M36.3,290.4h7v7h-7V290.4z M36.3,304.9h7v7h-7V304.9z M36.3,319.4h7v7h-7V319.4z
		 M36.3,334h7v7h-7V334z M36.3,341.2h7v7h-7V341.2z M36.3,348.5h7v7h-7V348.5z M36.3,355.7h7v7h-7V355.7z M36.3,363h7v7h-7V363z
		 M36.3,377.5h7v7h-7V377.5z M43.6,0h7v7h-7V0z M43.6,29h7v7h-7V29z M43.6,50.8h7v7h-7V50.8z M43.6,65.3h7v7h-7V65.3z M43.6,79.9h7
		v7h-7V79.9z M43.6,94.4h7v7h-7V94.4z M43.6,108.9h7v7h-7V108.9z M43.6,123.4h7v7h-7V123.4z M43.6,152.4h7v7h-7V152.4z M43.6,167h7
		v7h-7V167z M43.6,181.5h7v7h-7V181.5z M43.6,196h7v7h-7V196z M43.6,210.5h7v7h-7V210.5z M43.6,225h7v7h-7V225z M43.6,239.6h7v7h-7
		V239.6z M43.6,254.1h7v7h-7V254.1z M43.6,268.6h7v7h-7V268.6z M43.6,283.1h7v7h-7V283.1z M43.6,297.6h7v7h-7V297.6z M43.6,312.2h7
		v7h-7V312.2z M43.6,319.4h7v7h-7V319.4z M43.6,326.7h7v7h-7V326.7z M43.6,334h7v7h-7V334z M43.6,341.2h7v7h-7V341.2z M43.6,348.5h7
		v7h-7V348.5z M43.6,355.7h7v7h-7V355.7z M43.6,370.2h7v7h-7V370.2z M50.8,14.5h7v7h-7V14.5z M50.8,43.6h7v7h-7V43.6z M50.8,72.6h7
		v7h-7V72.6z M50.8,87.1h7v7h-7V87.1z M50.8,101.6h7v7h-7V101.6z M50.8,116.1h7v7h-7V116.1z M50.8,130.7h7v7h-7V130.7z M50.8,145.2
		h7v7h-7V145.2z M50.8,159.7h7v7h-7V159.7z M50.8,174.2h7v7h-7V174.2z M50.8,188.8h7v7h-7V188.8z M50.8,203.3h7v7h-7V203.3z
		 M50.8,217.8h7v7h-7V217.8z M50.8,232.3h7v7h-7V232.3z M50.8,246.8h7v7h-7V246.8z M50.8,261.4h7v7h-7V261.4z M50.8,275.9h7v7h-7
		V275.9z M50.8,290.4h7v7h-7V290.4z M50.8,304.9h7v7h-7V304.9z M50.8,319.4h7v7h-7V319.4z M50.8,326.7h7v7h-7V326.7z M50.8,334h7v7
		h-7V334z M50.8,341.2h7v7h-7V341.2z M50.8,355.7h7v7h-7V355.7z M50.8,363h7v7h-7V363z M50.8,370.2h7v7h-7V370.2z M50.8,377.5h7v7
		h-7V377.5z M0,406.6h7v7H0V406.6z M0,421.1h7v7H0V421.1z M0,435.6h7v7H0V435.6z M0,450.1h7v7H0V450.1z M7.3,384.8h7v7h-7V384.8z
		 M7.3,399.3h7v7h-7V399.3z M7.3,428.3h7v7h-7V428.3z M7.3,442.8h7v7h-7V442.8z M7.3,450.1h7v7h-7V450.1z M14.5,406.6h7v7h-7V406.6z
		 M14.5,421.1h7v7h-7V421.1z M14.5,435.6h7v7h-7V435.6z M14.5,450.1h7v7h-7V450.1z M21.8,384.8h7v7h-7V384.8z M21.8,399.3h7v7h-7
		V399.3z M21.8,428.3h7v7h-7V428.3z M21.8,442.8h7v7h-7V442.8z M21.8,450.1h7v7h-7V450.1z M29.1,384.8h7v7h-7V384.8z M29.1,392h7v7
		h-7V392z M29.1,406.6h7v7h-7V406.6z M29.1,421.1h7v7h-7V421.1z M29.1,435.6h7v7h-7V435.6z M29.1,442.8h7v7h-7V442.8z M29.1,450.1h7
		v7h-7V450.1z M36.3,392h7v7h-7V392z M36.3,399.3h7v7h-7V399.3z M36.3,428.3h7v7h-7V428.3z M36.3,435.6h7v7h-7V435.6z M36.3,442.8h7
		v7h-7V442.8z M36.3,450.1h7v7h-7V450.1z M43.6,384.8h7v7h-7V384.8z M43.6,399.3h7v7h-7V399.3z M43.6,406.6h7v7h-7V406.6z
		 M43.6,421.1h7v7h-7V421.1z M43.6,428.3h7v7h-7V428.3z M43.6,435.6h7v7h-7V435.6z M43.6,442.8h7v7h-7V442.8z M43.6,450.1h7v7h-7
		V450.1z M50.8,392h7v7h-7V392z M50.8,406.6h7v7h-7V406.6z M50.8,413.8h7v7h-7V413.8z M50.8,421.1h7v7h-7V421.1z M50.8,428.3h7v7h-7
		V428.3z M50.8,435.6h7v7h-7V435.6z M50.8,442.8h7v7h-7V442.8z M0,457.4h7v7H0V457.4z M0,464.6h7v7H0V464.6z M0,471.9h7v7H0V471.9z
		 M0,479.2h7v7H0V479.2z M0,486.4h7v7H0V486.4z M0,493.7h7v7H0V493.7z M0,500.9h7v7H0V500.9z M0,508.2h7v7H0V508.2z M0,515.4h7v7H0
		V515.4z M0,522.7h7v7H0V522.7z M7.3,457.4h7v7h-7V457.4z M7.3,464.6h7v7h-7V464.6z M7.3,471.9h7v7h-7V471.9z M7.3,479.2h7v7h-7
		V479.2z M7.3,486.4h7v7h-7V486.4z M7.3,493.7h7v7h-7V493.7z M7.3,500.9h7v7h-7V500.9z M7.3,508.2h7v7h-7V508.2z M7.3,515.4h7v7h-7
		V515.4z M14.5,457.4h7v7h-7V457.4z M14.5,464.6h7v7h-7V464.6z M14.5,471.9h7v7h-7V471.9z M14.5,479.2h7v7h-7V479.2z M14.5,486.4h7
		v7h-7V486.4z M14.5,493.7h7v7h-7V493.7z M14.5,500.9h7v7h-7V500.9z M14.5,515.4h7v7h-7V515.4z M14.5,522.7h7v7h-7V522.7z
		 M21.8,457.4h7v7h-7V457.4z M21.8,464.6h7v7h-7V464.6z M21.8,471.9h7v7h-7V471.9z M21.8,479.2h7v7h-7V479.2z M21.8,486.4h7v7h-7
		V486.4z M21.8,500.9h7v7h-7V500.9z M21.8,508.2h7v7h-7V508.2z M21.8,515.4h7v7h-7V515.4z M21.8,522.7h7v7h-7V522.7z M29.1,457.4h7
		v7h-7V457.4z M29.1,464.6h7v7h-7V464.6z M29.1,471.9h7v7h-7V471.9z M29.1,486.4h7v7h-7V486.4z M29.1,493.7h7v7h-7V493.7z
		 M29.1,500.9h7v7h-7V500.9z M29.1,508.2h7v7h-7V508.2z M29.1,515.4h7v7h-7V515.4z M29.1,522.7h7v7h-7V522.7z M36.3,457.4h7v7h-7
		V457.4z M36.3,464.6h7v7h-7V464.6z M36.3,479.2h7v7h-7V479.2z M36.3,486.4h7v7h-7V486.4z M36.3,493.7h7v7h-7V493.7z M36.3,500.9h7
		v7h-7V500.9z M36.3,508.2h7v7h-7V508.2z M36.3,515.4h7v7h-7V515.4z M36.3,522.7h7v7h-7V522.7z M43.6,457.4h7v7h-7V457.4z
		 M43.6,471.9h7v7h-7V471.9z M43.6,479.2h7v7h-7V479.2z M43.6,486.4h7v7h-7V486.4z M43.6,493.7h7v7h-7V493.7z M43.6,500.9h7v7h-7
		V500.9z M43.6,508.2h7v7h-7V508.2z M43.6,515.4h7v7h-7V515.4z M43.6,522.7h7v7h-7V522.7z M50.8,457.4h7v7h-7V457.4z M50.8,464.6h7
		v7h-7V464.6z M50.8,471.9h7v7h-7V471.9z M50.8,479.2h7v7h-7V479.2z M50.8,486.4h7v7h-7V486.4z M50.8,493.7h7v7h-7V493.7z
		 M50.8,500.9h7v7h-7V500.9z M50.8,508.2h7v7h-7V508.2z M50.8,515.4h7v7h-7V515.4z M50.8,522.7h7v7h-7V522.7z M0,530h7v7H0V530z
		 M0,544.5h7v7H0V544.5z M0,551.8h7v7H0V551.8z M0,559h7v7H0V559z M0,566.3h7v7H0V566.3z M0,573.5h7v7H0V573.5z M0,580.8h7v7H0
		V580.8z M7.3,530h7v7h-7V530z M7.3,537.2h7v7h-7V537.2z M7.3,544.5h7v7h-7V544.5z M7.3,551.8h7v7h-7V551.8z M7.3,559h7v7h-7V559z
		 M7.3,566.3h7v7h-7V566.3z M7.3,573.5h7v7h-7V573.5z M7.3,580.8h7v7h-7V580.8z M14.5,530h7v7h-7V530z M14.5,537.2h7v7h-7V537.2z
		 M14.5,544.5h7v7h-7V544.5z M14.5,551.8h7v7h-7V551.8z M14.5,559h7v7h-7V559z M14.5,566.3h7v7h-7V566.3z M14.5,573.5h7v7h-7V573.5z
		 M14.5,580.8h7v7h-7V580.8z M21.8,530h7v7h-7V530z M21.8,537.2h7v7h-7V537.2z M21.8,544.5h7v7h-7V544.5z M21.8,551.8h7v7h-7V551.8z
		 M21.8,559h7v7h-7V559z M21.8,566.3h7v7h-7V566.3z M21.8,573.5h7v7h-7V573.5z M21.8,580.8h7v7h-7V580.8z M29.1,530h7v7h-7V530z
		 M29.1,537.2h7v7h-7V537.2z M29.1,544.5h7v7h-7V544.5z M29.1,551.8h7v7h-7V551.8z M29.1,559h7v7h-7V559z M29.1,566.3h7v7h-7V566.3z
		 M29.1,573.5h7v7h-7V573.5z M29.1,580.8h7v7h-7V580.8z M36.3,530h7v7h-7V530z M36.3,537.2h7v7h-7V537.2z M36.3,544.5h7v7h-7V544.5z
		 M36.3,551.8h7v7h-7V551.8z M36.3,559h7v7h-7V559z M36.3,566.3h7v7h-7V566.3z M36.3,573.5h7v7h-7V573.5z M36.3,580.8h7v7h-7V580.8z
		 M43.6,530h7v7h-7V530z M43.6,537.2h7v7h-7V537.2z M43.6,544.5h7v7h-7V544.5z M43.6,551.8h7v7h-7V551.8z M43.6,559h7v7h-7V559z
		 M43.6,566.3h7v7h-7V566.3z M43.6,580.8h7v7h-7V580.8z M50.8,530h7v7h-7V530z M50.8,537.2h7v7h-7V537.2z M50.8,544.5h7v7h-7V544.5z
		 M50.8,551.8h7v7h-7V551.8z M50.8,566.3h7v7h-7V566.3z M50.8,573.5h7v7h-7V573.5z M50.8,580.8h7v7h-7V580.8z M58.1,0h7v7h-7V0z
		 M58.1,29h7v7h-7V29z M58.1,50.8h7v7h-7V50.8z M58.1,65.3h7v7h-7V65.3z M58.1,79.9h7v7h-7V79.9z M58.1,94.4h7v7h-7V94.4z
		 M58.1,108.9h7v7h-7V108.9z M58.1,123.4h7v7h-7V123.4z M58.1,137.9h7v7h-7V137.9z M58.1,152.4h7v7h-7V152.4z M58.1,167h7v7h-7V167z
		 M58.1,181.5h7v7h-7V181.5z M58.1,196h7v7h-7V196z M58.1,210.5h7v7h-7V210.5z M58.1,225h7v7h-7V225z M58.1,239.6h7v7h-7V239.6z
		 M58.1,254.1h7v7h-7V254.1z M58.1,268.6h7v7h-7V268.6z M58.1,283.1h7v7h-7V283.1z M58.1,297.6h7v7h-7V297.6z M58.1,304.9h7v7h-7
		V304.9z M58.1,312.2h7v7h-7V312.2z M58.1,319.4h7v7h-7V319.4z M58.1,334h7v7h-7V334z M58.1,341.2h7v7h-7V341.2z M58.1,348.5h7v7h-7
		V348.5z M58.1,355.7h7v7h-7V355.7z M58.1,363h7v7h-7V363z M58.1,370.2h7v7h-7V370.2z M65.4,14.5h7v7h-7V14.5z M65.4,43.6h7v7h-7
		V43.6z M65.4,58.1h7v7h-7V58.1z M65.4,72.6h7v7h-7V72.6z M65.4,87.1h7v7h-7V87.1z M65.4,101.6h7v7h-7V101.6z M65.4,116.1h7v7h-7
		V116.1z M65.4,130.7h7v7h-7V130.7z M65.4,145.2h7v7h-7V145.2z M65.4,159.7h7v7h-7V159.7z M65.4,174.2h7v7h-7V174.2z M65.4,188.8h7
		v7h-7V188.8z M65.4,203.3h7v7h-7V203.3z M65.4,217.8h7v7h-7V217.8z M65.4,232.3h7v7h-7V232.3z M65.4,246.8h7v7h-7V246.8z
		 M65.4,261.4h7v7h-7V261.4z M65.4,275.9h7v7h-7V275.9z M65.4,283.1h7v7h-7V283.1z M65.4,290.4h7v7h-7V290.4z M65.4,297.6h7v7h-7
		V297.6z M65.4,312.2h7v7h-7V312.2z M65.4,319.4h7v7h-7V319.4z M65.4,326.7h7v7h-7V326.7z M65.4,334h7v7h-7V334z M65.4,341.2h7v7h-7
		V341.2z M65.4,348.5h7v7h-7V348.5z M65.4,355.7h7v7h-7V355.7z M65.4,370.2h7v7h-7V370.2z M65.4,377.5h7v7h-7V377.5z M72.6,0h7v7h-7
		V0z M72.6,29h7v7h-7V29z M72.6,50.8h7v7h-7V50.8z M72.6,65.3h7v7h-7V65.3z M72.6,79.9h7v7h-7V79.9z M72.6,94.4h7v7h-7V94.4z
		 M72.6,108.9h7v7h-7V108.9z M72.6,123.4h7v7h-7V123.4z M72.6,137.9h7v7h-7V137.9z M72.6,152.4h7v7h-7V152.4z M72.6,167h7v7h-7V167z
		 M72.6,181.5h7v7h-7V181.5z M72.6,196h7v7h-7V196z M72.6,210.5h7v7h-7V210.5z M72.6,225h7v7h-7V225z M72.6,239.6h7v7h-7V239.6z
		 M72.6,254.1h7v7h-7V254.1z M72.6,261.4h7v7h-7V261.4z M72.6,268.6h7v7h-7V268.6z M72.6,275.9h7v7h-7V275.9z M72.6,290.4h7v7h-7
		V290.4z M72.6,297.6h7v7h-7V297.6z M72.6,304.9h7v7h-7V304.9z M72.6,312.2h7v7h-7V312.2z M72.6,319.4h7v7h-7V319.4z M72.6,326.7h7
		v7h-7V326.7z M72.6,334h7v7h-7V334z M72.6,341.2h7v7h-7V341.2z M72.6,355.7h7v7h-7V355.7z M72.6,363h7v7h-7V363z M72.6,370.2h7v7
		h-7V370.2z M72.6,377.5h7v7h-7V377.5z M79.9,14.5h7v7h-7V14.5z M79.9,43.6h7v7h-7V43.6z M79.9,58.1h7v7h-7V58.1z M79.9,72.6h7v7h-7
		V72.6z M79.9,87.1h7v7h-7V87.1z M79.9,101.6h7v7h-7V101.6z M79.9,116.1h7v7h-7V116.1z M79.9,130.7h7v7h-7V130.7z M79.9,145.2h7v7
		h-7V145.2z M79.9,159.7h7v7h-7V159.7z M79.9,174.2h7v7h-7V174.2z M79.9,188.8h7v7h-7V188.8z M79.9,203.3h7v7h-7V203.3z M79.9,217.8
		h7v7h-7V217.8z M79.9,232.3h7v7h-7V232.3z M79.9,239.6h7v7h-7V239.6z M79.9,246.8h7v7h-7V246.8z M79.9,254.1h7v7h-7V254.1z
		 M79.9,268.6h7v7h-7V268.6z M79.9,275.9h7v7h-7V275.9z M79.9,283.1h7v7h-7V283.1z M79.9,290.4h7v7h-7V290.4z M79.9,297.6h7v7h-7
		V297.6z M79.9,304.9h7v7h-7V304.9z M79.9,312.2h7v7h-7V312.2z M79.9,319.4h7v7h-7V319.4z M79.9,334h7v7h-7V334z M79.9,341.2h7v7h-7
		V341.2z M79.9,348.5h7v7h-7V348.5z M79.9,355.7h7v7h-7V355.7z M79.9,363h7v7h-7V363z M79.9,370.2h7v7h-7V370.2z M79.9,377.5h7v7h-7
		V377.5z M87.1,0h7v7h-7V0z M87.1,29h7v7h-7V29z M87.1,50.8h7v7h-7V50.8z M87.1,65.3h7v7h-7V65.3z M87.1,79.9h7v7h-7V79.9z
		 M87.1,94.4h7v7h-7V94.4z M87.1,108.9h7v7h-7V108.9z M87.1,123.4h7v7h-7V123.4z M87.1,137.9h7v7h-7V137.9z M87.1,152.4h7v7h-7
		V152.4z M87.1,167h7v7h-7V167z M87.1,181.5h7v7h-7V181.5z M87.1,196h7v7h-7V196z M87.1,210.5h7v7h-7V210.5z M87.1,217.8h7v7h-7
		V217.8z M87.1,225h7v7h-7V225z M87.1,232.3h7v7h-7V232.3z M87.1,246.8h7v7h-7V246.8z M87.1,254.1h7v7h-7V254.1z M87.1,261.4h7v7h-7
		V261.4z M87.1,268.6h7v7h-7V268.6z M87.1,275.9h7v7h-7V275.9z M87.1,283.1h7v7h-7V283.1z M87.1,290.4h7v7h-7V290.4z M87.1,297.6h7
		v7h-7V297.6z M87.1,312.2h7v7h-7V312.2z M87.1,319.4h7v7h-7V319.4z M87.1,326.7h7v7h-7V326.7z M87.1,334h7v7h-7V334z M87.1,341.2h7
		v7h-7V341.2z M87.1,348.5h7v7h-7V348.5z M87.1,355.7h7v7h-7V355.7z M87.1,370.2h7v7h-7V370.2z M87.1,377.5h7v7h-7V377.5z
		 M94.4,14.5h7v7h-7V14.5z M94.4,43.6h7v7h-7V43.6z M94.4,58.1h7v7h-7V58.1z M94.4,72.6h7v7h-7V72.6z M94.4,87.1h7v7h-7V87.1z
		 M94.4,101.6h7v7h-7V101.6z M94.4,116.1h7v7h-7V116.1z M94.4,130.7h7v7h-7V130.7z M94.4,145.2h7v7h-7V145.2z M94.4,159.7h7v7h-7
		V159.7z M94.4,174.2h7v7h-7V174.2z M94.4,188.8h7v7h-7V188.8z M94.4,196h7v7h-7V196z M94.4,203.3h7v7h-7V203.3z M94.4,210.5h7v7h-7
		V210.5z M94.4,225h7v7h-7V225z M94.4,232.3h7v7h-7V232.3z M94.4,239.6h7v7h-7V239.6z M94.4,246.8h7v7h-7V246.8z M94.4,254.1h7v7h-7
		V254.1z M94.4,261.4h7v7h-7V261.4z M94.4,268.6h7v7h-7V268.6z M94.4,275.9h7v7h-7V275.9z M94.4,290.4h7v7h-7V290.4z M94.4,297.6h7
		v7h-7V297.6z M94.4,304.9h7v7h-7V304.9z M94.4,312.2h7v7h-7V312.2z M94.4,319.4h7v7h-7V319.4z M94.4,326.7h7v7h-7V326.7z M94.4,334
		h7v7h-7V334z M94.4,341.2h7v7h-7V341.2z M94.4,355.7h7v7h-7V355.7z M94.4,363h7v7h-7V363z M94.4,370.2h7v7h-7V370.2z M101.7,0h7v7
		h-7V0z M101.7,21.8h7v7h-7V21.8z M101.7,36.3h7v7h-7V36.3z M101.7,50.8h7v7h-7V50.8z M101.7,65.3h7v7h-7V65.3z M101.7,79.9h7v7h-7
		V79.9z M101.7,94.4h7v7h-7V94.4z M101.7,108.9h7v7h-7V108.9z M101.7,123.4h7v7h-7V123.4z M101.7,137.9h7v7h-7V137.9z M101.7,152.4
		h7v7h-7V152.4z M101.7,159.7h7v7h-7V159.7z M101.7,167h7v7h-7V167z M101.7,174.2h7v7h-7V174.2z M101.7,181.5h7v7h-7V181.5z
		 M101.7,188.8h7v7h-7V188.8z M101.7,203.3h7v7h-7V203.3z M101.7,210.5h7v7h-7V210.5z M101.7,217.8h7v7h-7V217.8z M101.7,225h7v7h-7
		V225z M101.7,232.3h7v7h-7V232.3z M101.7,239.6h7v7h-7V239.6z M101.7,246.8h7v7h-7V246.8z M101.7,254.1h7v7h-7V254.1z M101.7,268.6
		h7v7h-7V268.6z M101.7,275.9h7v7h-7V275.9z M101.7,283.1h7v7h-7V283.1z M101.7,290.4h7v7h-7V290.4z M101.7,297.6h7v7h-7V297.6z
		 M101.7,304.9h7v7h-7V304.9z M101.7,312.2h7v7h-7V312.2z M101.7,319.4h7v7h-7V319.4z M101.7,334h7v7h-7V334z M101.7,348.5h7v7h-7
		V348.5z M101.7,355.7h7v7h-7V355.7z M101.7,363h7v7h-7V363z M101.7,370.2h7v7h-7V370.2z M101.7,377.5h7v7h-7V377.5z M108.9,14.5h7
		v7h-7V14.5z M108.9,43.6h7v7h-7V43.6z M108.9,58.1h7v7h-7V58.1z M108.9,72.6h7v7h-7V72.6z M108.9,87.1h7v7h-7V87.1z M108.9,101.6h7
		v7h-7V101.6z M108.9,116.1h7v7h-7V116.1z M108.9,123.4h7v7h-7V123.4z M108.9,130.7h7v7h-7V130.7z M108.9,137.9h7v7h-7V137.9z
		 M108.9,145.2h7v7h-7V145.2z M108.9,152.4h7v7h-7V152.4z M108.9,159.7h7v7h-7V159.7z M108.9,167h7v7h-7V167z M108.9,181.5h7v7h-7
		V181.5z M108.9,188.8h7v7h-7V188.8z M108.9,196h7v7h-7V196z M108.9,203.3h7v7h-7V203.3z M108.9,210.5h7v7h-7V210.5z M108.9,217.8h7
		v7h-7V217.8z M108.9,225h7v7h-7V225z M108.9,232.3h7v7h-7V232.3z M108.9,246.8h7v7h-7V246.8z M108.9,254.1h7v7h-7V254.1z
		 M108.9,261.4h7v7h-7V261.4z M108.9,268.6h7v7h-7V268.6z M108.9,275.9h7v7h-7V275.9z M108.9,283.1h7v7h-7V283.1z M108.9,290.4h7v7
		h-7V290.4z M108.9,297.6h7v7h-7V297.6z M108.9,312.2h7v7h-7V312.2z M108.9,326.7h7v7h-7V326.7z M108.9,334h7v7h-7V334z
		 M108.9,341.2h7v7h-7V341.2z M108.9,348.5h7v7h-7V348.5z M108.9,355.7h7v7h-7V355.7z M108.9,363h7v7h-7V363z M108.9,377.5h7v7h-7
		V377.5z M116.2,0h7v7h-7V0z M116.2,21.8h7v7h-7V21.8z M116.2,36.3h7v7h-7V36.3z M116.2,50.8h7v7h-7V50.8z M116.2,65.3h7v7h-7V65.3z
		 M116.2,79.9h7v7h-7V79.9z M116.2,94.4h7v7h-7V94.4z M116.2,101.6h7v7h-7V101.6z M116.2,108.9h7v7h-7V108.9z M116.2,116.1h7v7h-7
		V116.1z M116.2,123.4h7v7h-7V123.4z M116.2,130.7h7v7h-7V130.7z M116.2,137.9h7v7h-7V137.9z M116.2,145.2h7v7h-7V145.2z
		 M116.2,159.7h7v7h-7V159.7z M116.2,167h7v7h-7V167z M116.2,174.2h7v7h-7V174.2z M116.2,181.5h7v7h-7V181.5z M116.2,188.8h7v7h-7
		V188.8z M116.2,196h7v7h-7V196z M116.2,203.3h7v7h-7V203.3z M116.2,210.5h7v7h-7V210.5z M116.2,225h7v7h-7V225z M116.2,232.3h7v7
		h-7V232.3z M116.2,239.6h7v7h-7V239.6z M116.2,246.8h7v7h-7V246.8z M116.2,254.1h7v7h-7V254.1z M116.2,261.4h7v7h-7V261.4z
		 M116.2,268.6h7v7h-7V268.6z M116.2,275.9h7v7h-7V275.9z M116.2,290.4h7v7h-7V290.4z M116.2,304.9h7v7h-7V304.9z M116.2,312.2h7v7
		h-7V312.2z M116.2,319.4h7v7h-7V319.4z M116.2,326.7h7v7h-7V326.7z M116.2,334h7v7h-7V334z M116.2,341.2h7v7h-7V341.2z
		 M116.2,355.7h7v7h-7V355.7z M116.2,370.2h7v7h-7V370.2z M116.2,377.5h7v7h-7V377.5z M123.4,7.2h7v7h-7V7.2z M123.4,43.6h7v7h-7
		V43.6z M123.4,58.1h7v7h-7V58.1z M123.4,72.6h7v7h-7V72.6z M123.4,79.9h7v7h-7V79.9z M123.4,87.1h7v7h-7V87.1z M123.4,94.4h7v7h-7
		V94.4z M123.4,101.6h7v7h-7V101.6z M123.4,108.9h7v7h-7V108.9z M123.4,116.1h7v7h-7V116.1z M123.4,123.4h7v7h-7V123.4z
		 M123.4,137.9h7v7h-7V137.9z M123.4,145.2h7v7h-7V145.2z M123.4,152.4h7v7h-7V152.4z M123.4,159.7h7v7h-7V159.7z M123.4,167h7v7h-7
		V167z M123.4,174.2h7v7h-7V174.2z M123.4,181.5h7v7h-7V181.5z M123.4,188.8h7v7h-7V188.8z M123.4,203.3h7v7h-7V203.3z M123.4,210.5
		h7v7h-7V210.5z M123.4,217.8h7v7h-7V217.8z M123.4,225h7v7h-7V225z M123.4,232.3h7v7h-7V232.3z M123.4,239.6h7v7h-7V239.6z
		 M123.4,246.8h7v7h-7V246.8z M123.4,254.1h7v7h-7V254.1z M123.4,268.6h7v7h-7V268.6z M123.4,283.1h7v7h-7V283.1z M123.4,290.4h7v7
		h-7V290.4z M123.4,297.6h7v7h-7V297.6z M123.4,304.9h7v7h-7V304.9z M123.4,312.2h7v7h-7V312.2z M123.4,319.4h7v7h-7V319.4z
		 M123.4,334h7v7h-7V334z M123.4,348.5h7v7h-7V348.5z M123.4,355.7h7v7h-7V355.7z M123.4,363h7v7h-7V363z M123.4,370.2h7v7h-7V370.2
		z M58.1,384.8h7v7h-7V384.8z M58.1,399.3h7v7h-7V399.3z M58.1,413.8h7v7h-7V413.8z M58.1,421.1h7v7h-7V421.1z M58.1,428.3h7v7h-7
		V428.3z M58.1,435.6h7v7h-7V435.6z M58.1,450.1h7v7h-7V450.1z M65.4,392h7v7h-7V392z M65.4,406.6h7v7h-7V406.6z M65.4,421.1h7v7h-7
		V421.1z M65.4,428.3h7v7h-7V428.3z M65.4,442.8h7v7h-7V442.8z M65.4,450.1h7v7h-7V450.1z M72.6,384.8h7v7h-7V384.8z M72.6,399.3h7
		v7h-7V399.3z M72.6,413.8h7v7h-7V413.8z M72.6,428.3h7v7h-7V428.3z M72.6,435.6h7v7h-7V435.6z M72.6,442.8h7v7h-7V442.8z
		 M72.6,450.1h7v7h-7V450.1z M79.9,392h7v7h-7V392z M79.9,406.6h7v7h-7V406.6z M79.9,421.1h7v7h-7V421.1z M79.9,428.3h7v7h-7V428.3z
		 M79.9,435.6h7v7h-7V435.6z M79.9,442.8h7v7h-7V442.8z M87.1,384.8h7v7h-7V384.8z M87.1,399.3h7v7h-7V399.3z M87.1,406.6h7v7h-7
		V406.6z M87.1,413.8h7v7h-7V413.8z M87.1,421.1h7v7h-7V421.1z M87.1,428.3h7v7h-7V428.3z M87.1,435.6h7v7h-7V435.6z M94.4,384.8h7
		v7h-7V384.8z M94.4,392h7v7h-7V392z M94.4,399.3h7v7h-7V399.3z M94.4,413.8h7v7h-7V413.8z M94.4,421.1h7v7h-7V421.1z M94.4,435.6h7
		v7h-7V435.6z M94.4,442.8h7v7h-7V442.8z M101.7,406.6h7v7h-7V406.6z M101.7,428.3h7v7h-7V428.3z M101.7,442.8h7v7h-7V442.8z
		 M108.9,384.8h7v7h-7V384.8z M108.9,392h7v7h-7V392z M108.9,399.3h7v7h-7V399.3z M108.9,406.6h7v7h-7V406.6z M108.9,413.8h7v7h-7
		V413.8z M108.9,421.1h7v7h-7V421.1z M108.9,428.3h7v7h-7V428.3z M108.9,442.8h7v7h-7V442.8z M116.2,384.8h7v7h-7V384.8z
		 M116.2,399.3h7v7h-7V399.3z M116.2,413.8h7v7h-7V413.8z M116.2,428.3h7v7h-7V428.3z M116.2,435.6h7v7h-7V435.6z M116.2,442.8h7v7
		h-7V442.8z M123.4,384.8h7v7h-7V384.8z M123.4,392h7v7h-7V392z M123.4,399.3h7v7h-7V399.3z M123.4,406.6h7v7h-7V406.6z
		 M123.4,413.8h7v7h-7V413.8z M123.4,421.1h7v7h-7V421.1z M123.4,428.3h7v7h-7V428.3z M123.4,442.8h7v7h-7V442.8z M58.1,457.4h7v7
		h-7V457.4z M58.1,464.6h7v7h-7V464.6z M58.1,471.9h7v7h-7V471.9z M58.1,479.2h7v7h-7V479.2z M58.1,486.4h7v7h-7V486.4z M58.1,493.7
		h7v7h-7V493.7z M58.1,500.9h7v7h-7V500.9z M58.1,508.2h7v7h-7V508.2z M58.1,515.4h7v7h-7V515.4z M65.4,457.4h7v7h-7V457.4z
		 M65.4,464.6h7v7h-7V464.6z M65.4,471.9h7v7h-7V471.9z M65.4,479.2h7v7h-7V479.2z M65.4,486.4h7v7h-7V486.4z M65.4,493.7h7v7h-7
		V493.7z M65.4,500.9h7v7h-7V500.9z M65.4,515.4h7v7h-7V515.4z M65.4,522.7h7v7h-7V522.7z M72.6,457.4h7v7h-7V457.4z M72.6,464.6h7
		v7h-7V464.6z M72.6,471.9h7v7h-7V471.9z M72.6,515.4h7v7h-7V515.4z M72.6,522.7h7v7h-7V522.7z M79.9,515.4h7v7h-7V515.4z
		 M79.9,522.7h7v7h-7V522.7z M87.1,515.4h7v7h-7V515.4z M94.4,515.4h7v7h-7V515.4z M94.4,522.7h7v7h-7V522.7z M101.7,515.4h7v7h-7
		V515.4z M108.9,515.4h7v7h-7V515.4z M116.2,515.4h7v7h-7V515.4z M123.4,522.7h7v7h-7V522.7z M58.1,530h7v7h-7V530z M58.1,544.5h7v7
		h-7V544.5z M58.1,551.8h7v7h-7V551.8z M58.1,559h7v7h-7V559z M58.1,566.3h7v7h-7V566.3z M58.1,573.5h7v7h-7V573.5z M58.1,580.8h7v7
		h-7V580.8z M65.4,530h7v7h-7V530z M65.4,537.2h7v7h-7V537.2z M65.4,544.5h7v7h-7V544.5z M65.4,551.8h7v7h-7V551.8z M65.4,559h7v7
		h-7V559z M65.4,566.3h7v7h-7V566.3z M65.4,573.5h7v7h-7V573.5z M65.4,580.8h7v7h-7V580.8z M72.6,530h7v7h-7V530z M72.6,537.2h7v7
		h-7V537.2z M72.6,544.5h7v7h-7V544.5z M72.6,551.8h7v7h-7V551.8z M72.6,559h7v7h-7V559z M72.6,566.3h7v7h-7V566.3z M72.6,573.5h7v7
		h-7V573.5z M72.6,580.8h7v7h-7V580.8z M79.9,530h7v7h-7V530z M79.9,537.2h7v7h-7V537.2z M79.9,544.5h7v7h-7V544.5z M79.9,551.8h7v7
		h-7V551.8z M79.9,559h7v7h-7V559z M79.9,566.3h7v7h-7V566.3z M79.9,573.5h7v7h-7V573.5z M79.9,580.8h7v7h-7V580.8z M87.1,530h7v7
		h-7V530z M87.1,537.2h7v7h-7V537.2z M87.1,544.5h7v7h-7V544.5z M87.1,551.8h7v7h-7V551.8z M87.1,559h7v7h-7V559z M87.1,566.3h7v7
		h-7V566.3z M87.1,573.5h7v7h-7V573.5z M87.1,580.8h7v7h-7V580.8z M94.4,537.2h7v7h-7V537.2z M94.4,544.5h7v7h-7V544.5z M94.4,551.8
		h7v7h-7V551.8z M94.4,559h7v7h-7V559z M94.4,566.3h7v7h-7V566.3z M94.4,573.5h7v7h-7V573.5z M94.4,580.8h7v7h-7V580.8z M101.7,530
		h7v7h-7V530z M101.7,544.5h7v7h-7V544.5z M101.7,551.8h7v7h-7V551.8z M101.7,559h7v7h-7V559z M101.7,566.3h7v7h-7V566.3z
		 M101.7,573.5h7v7h-7V573.5z M101.7,580.8h7v7h-7V580.8z M108.9,537.2h7v7h-7V537.2z M108.9,551.8h7v7h-7V551.8z M108.9,559h7v7h-7
		V559z M108.9,566.3h7v7h-7V566.3z M108.9,573.5h7v7h-7V573.5z M108.9,580.8h7v7h-7V580.8z M116.2,530h7v7h-7V530z M116.2,544.5h7v7
		h-7V544.5z M116.2,559h7v7h-7V559z M116.2,566.3h7v7h-7V566.3z M116.2,573.5h7v7h-7V573.5z M116.2,580.8h7v7h-7V580.8z
		 M123.4,551.8h7v7h-7V551.8z M123.4,566.3h7v7h-7V566.3z M123.4,573.5h7v7h-7V573.5z M123.4,580.8h7v7h-7V580.8z M130.7,0h7v7h-7V0
		z M130.7,14.5h7v7h-7V14.5z M130.7,29h7v7h-7V29z M130.7,50.8h7v7h-7V50.8z M130.7,58.1h7v7h-7V58.1z M130.7,65.3h7v7h-7V65.3z
		 M130.7,72.6h7v7h-7V72.6z M130.7,79.9h7v7h-7V79.9z M130.7,87.1h7v7h-7V87.1z M130.7,94.4h7v7h-7V94.4z M130.7,101.6h7v7h-7V101.6
		z M130.7,116.1h7v7h-7V116.1z M130.7,123.4h7v7h-7V123.4z M130.7,130.7h7v7h-7V130.7z M130.7,137.9h7v7h-7V137.9z M130.7,145.2h7v7
		h-7V145.2z M130.7,152.4h7v7h-7V152.4z M130.7,159.7h7v7h-7V159.7z M130.7,167h7v7h-7V167z M130.7,181.5h7v7h-7V181.5z
		 M130.7,188.8h7v7h-7V188.8z M130.7,196h7v7h-7V196z M130.7,203.3h7v7h-7V203.3z M130.7,210.5h7v7h-7V210.5z M130.7,217.8h7v7h-7
		V217.8z M130.7,225h7v7h-7V225z M130.7,232.3h7v7h-7V232.3z M130.7,246.8h7v7h-7V246.8z M130.7,261.4h7v7h-7V261.4z M130.7,268.6h7
		v7h-7V268.6z M130.7,275.9h7v7h-7V275.9z M130.7,283.1h7v7h-7V283.1z M130.7,290.4h7v7h-7V290.4z M130.7,297.6h7v7h-7V297.6z
		 M130.7,312.2h7v7h-7V312.2z M130.7,326.7h7v7h-7V326.7z M130.7,341.2h7v7h-7V341.2z M130.7,348.5h7v7h-7V348.5z M130.7,355.7h7v7
		h-7V355.7z M130.7,370.2h7v7h-7V370.2z M130.7,377.5h7v7h-7V377.5z M138,7.2h7v7h-7V7.2z M138,21.8h7v7h-7V21.8z M138,36.3h7v7h-7
		V36.3z M138,43.6h7v7h-7V43.6z M138,50.8h7v7h-7V50.8z M138,58.1h7v7h-7V58.1z M138,65.3h7v7h-7V65.3z M138,72.6h7v7h-7V72.6z
		 M138,79.9h7v7h-7V79.9z M138,94.4h7v7h-7V94.4z M138,108.9h7v7h-7V108.9z M138,116.1h7v7h-7V116.1z M138,123.4h7v7h-7V123.4z
		 M138,130.7h7v7h-7V130.7z M138,137.9h7v7h-7V137.9z M138,145.2h7v7h-7V145.2z M138,159.7h7v7h-7V159.7z M138,167h7v7h-7V167z
		 M138,174.2h7v7h-7V174.2z M138,181.5h7v7h-7V181.5z M138,188.8h7v7h-7V188.8z M138,196h7v7h-7V196z M138,203.3h7v7h-7V203.3z
		 M138,210.5h7v7h-7V210.5z M138,225h7v7h-7V225z M138,239.6h7v7h-7V239.6z M138,246.8h7v7h-7V246.8z M138,254.1h7v7h-7V254.1z
		 M138,261.4h7v7h-7V261.4z M138,268.6h7v7h-7V268.6z M138,275.9h7v7h-7V275.9z M138,290.4h7v7h-7V290.4z M138,304.9h7v7h-7V304.9z
		 M138,312.2h7v7h-7V312.2z M138,319.4h7v7h-7V319.4z M138,326.7h7v7h-7V326.7z M138,334h7v7h-7V334z M138,341.2h7v7h-7V341.2z
		 M138,355.7h7v7h-7V355.7z M138,363h7v7h-7V363z M138,370.2h7v7h-7V370.2z M145.2,0h7v7h-7V0z M145.2,14.5h7v7h-7V14.5z M145.2,29
		h7v7h-7V29z M145.2,36.3h7v7h-7V36.3z M145.2,43.6h7v7h-7V43.6z M145.2,50.8h7v7h-7V50.8z M145.2,58.1h7v7h-7V58.1z M145.2,72.6h7
		v7h-7V72.6z M145.2,87.1h7v7h-7V87.1z M145.2,94.4h7v7h-7V94.4z M145.2,101.6h7v7h-7V101.6z M145.2,108.9h7v7h-7V108.9z
		 M145.2,116.1h7v7h-7V116.1z M145.2,123.4h7v7h-7V123.4z M145.2,137.9h7v7h-7V137.9z M145.2,145.2h7v7h-7V145.2z M145.2,152.4h7v7
		h-7V152.4z M145.2,159.7h7v7h-7V159.7z M145.2,167h7v7h-7V167z M145.2,174.2h7v7h-7V174.2z M145.2,181.5h7v7h-7V181.5z
		 M145.2,188.8h7v7h-7V188.8z M145.2,203.3h7v7h-7V203.3z M145.2,217.8h7v7h-7V217.8z M145.2,225h7v7h-7V225z M145.2,232.3h7v7h-7
		V232.3z M145.2,239.6h7v7h-7V239.6z M145.2,246.8h7v7h-7V246.8z M145.2,254.1h7v7h-7V254.1z M145.2,268.6h7v7h-7V268.6z
		 M145.2,283.1h7v7h-7V283.1z M145.2,290.4h7v7h-7V290.4z M145.2,297.6h7v7h-7V297.6z M145.2,312.2h7v7h-7V312.2z M145.2,319.4h7v7
		h-7V319.4z M145.2,326.7h7v7h-7V326.7z M145.2,341.2h7v7h-7V341.2z M145.2,348.5h7v7h-7V348.5z M145.2,355.7h7v7h-7V355.7z
		 M145.2,370.2h7v7h-7V370.2z M145.2,377.5h7v7h-7V377.5z M152.5,7.2h7v7h-7V7.2z M152.5,21.8h7v7h-7V21.8z M152.5,29h7v7h-7V29z
		 M152.5,36.3h7v7h-7V36.3z M152.5,50.8h7v7h-7V50.8z M152.5,65.3h7v7h-7V65.3z M152.5,72.6h7v7h-7V72.6z M152.5,79.9h7v7h-7V79.9z
		 M152.5,87.1h7v7h-7V87.1z M152.5,94.4h7v7h-7V94.4z M152.5,101.6h7v7h-7V101.6z M152.5,116.1h7v7h-7V116.1z M152.5,123.4h7v7h-7
		V123.4z M152.5,130.7h7v7h-7V130.7z M152.5,137.9h7v7h-7V137.9z M152.5,145.2h7v7h-7V145.2z M152.5,152.4h7v7h-7V152.4z
		 M152.5,159.7h7v7h-7V159.7z M152.5,167h7v7h-7V167z M152.5,181.5h7v7h-7V181.5z M152.5,196h7v7h-7V196z M152.5,203.3h7v7h-7V203.3
		z M152.5,210.5h7v7h-7V210.5z M152.5,217.8h7v7h-7V217.8z M152.5,225h7v7h-7V225z M152.5,232.3h7v7h-7V232.3z M152.5,246.8h7v7h-7
		V246.8z M152.5,261.4h7v7h-7V261.4z M152.5,268.6h7v7h-7V268.6z M152.5,275.9h7v7h-7V275.9z M152.5,290.4h7v7h-7V290.4z
		 M152.5,297.6h7v7h-7V297.6z M152.5,304.9h7v7h-7V304.9z M152.5,312.2h7v7h-7V312.2z M152.5,326.7h7v7h-7V326.7z M152.5,334h7v7h-7
		V334z M152.5,341.2h7v7h-7V341.2z M152.5,355.7h7v7h-7V355.7z M152.5,363h7v7h-7V363z M152.5,370.2h7v7h-7V370.2z M159.7,0h7v7h-7
		V0z M159.7,14.5h7v7h-7V14.5z M159.7,21.8h7v7h-7V21.8z M159.7,29h7v7h-7V29z M159.7,36.3h7v7h-7V36.3z M159.7,43.6h7v7h-7V43.6z
		 M159.7,50.8h7v7h-7V50.8z M159.7,58.1h7v7h-7V58.1z M159.7,65.3h7v7h-7V65.3z M159.7,72.6h7v7h-7V72.6z M159.7,79.9h7v7h-7V79.9z
		 M159.7,94.4h7v7h-7V94.4z M159.7,108.9h7v7h-7V108.9z M159.7,116.1h7v7h-7V116.1z M159.7,123.4h7v7h-7V123.4z M159.7,130.7h7v7h-7
		V130.7z M159.7,137.9h7v7h-7V137.9z M159.7,145.2h7v7h-7V145.2z M159.7,159.7h7v7h-7V159.7z M159.7,174.2h7v7h-7V174.2z
		 M159.7,181.5h7v7h-7V181.5z M159.7,188.8h7v7h-7V188.8z M159.7,196h7v7h-7V196z M159.7,203.3h7v7h-7V203.3z M159.7,210.5h7v7h-7
		V210.5z M159.7,225h7v7h-7V225z M159.7,239.6h7v7h-7V239.6z M159.7,246.8h7v7h-7V246.8z M159.7,254.1h7v7h-7V254.1z M159.7,268.6h7
		v7h-7V268.6z M159.7,275.9h7v7h-7V275.9z M159.7,283.1h7v7h-7V283.1z M159.7,290.4h7v7h-7V290.4z M159.7,297.6h7v7h-7V297.6z
		 M159.7,312.2h7v7h-7V312.2z M159.7,319.4h7v7h-7V319.4z M159.7,326.7h7v7h-7V326.7z M159.7,341.2h7v7h-7V341.2z M159.7,348.5h7v7
		h-7V348.5z M159.7,355.7h7v7h-7V355.7z M159.7,370.2h7v7h-7V370.2z M159.7,377.5h7v7h-7V377.5z M167,7.2h7v7h-7V7.2z M167,14.5h7v7
		h-7V14.5z M167,21.8h7v7h-7V21.8z M167,36.3h7v7h-7V36.3z M167,43.6h7v7h-7V43.6z M167,50.8h7v7h-7V50.8z M167,58.1h7v7h-7V58.1z
		 M167,72.6h7v7h-7V72.6z M167,87.1h7v7h-7V87.1z M167,94.4h7v7h-7V94.4z M167,101.6h7v7h-7V101.6z M167,108.9h7v7h-7V108.9z
		 M167,116.1h7v7h-7V116.1z M167,123.4h7v7h-7V123.4z M167,137.9h7v7h-7V137.9z M167,152.4h7v7h-7V152.4z M167,159.7h7v7h-7V159.7z
		 M167,167h7v7h-7V167z M167,174.2h7v7h-7V174.2z M167,181.5h7v7h-7V181.5z M167,188.8h7v7h-7V188.8z M167,203.3h7v7h-7V203.3z
		 M167,217.8h7v7h-7V217.8z M167,225h7v7h-7V225z M167,232.3h7v7h-7V232.3z M167,246.8h7v7h-7V246.8z M167,254.1h7v7h-7V254.1z
		 M167,261.4h7v7h-7V261.4z M167,268.6h7v7h-7V268.6z M167,283.1h7v7h-7V283.1z M167,297.6h7v7h-7V297.6z M167,304.9h7v7h-7V304.9z
		 M167,312.2h7v7h-7V312.2z M167,326.7h7v7h-7V326.7z M167,334h7v7h-7V334z M167,341.2h7v7h-7V341.2z M167,355.7h7v7h-7V355.7z
		 M167,363h7v7h-7V363z M167,370.2h7v7h-7V370.2z M174.3,0h7v7h-7V0z M174.3,7.2h7v7h-7V7.2z M174.3,14.5h7v7h-7V14.5z M174.3,21.8
		h7v7h-7V21.8z M174.3,29h7v7h-7V29z M174.3,36.3h7v7h-7V36.3z M174.3,50.8h7v7h-7V50.8z M174.3,65.3h7v7h-7V65.3z M174.3,72.6h7v7
		h-7V72.6z M174.3,79.9h7v7h-7V79.9z M174.3,87.1h7v7h-7V87.1z M174.3,94.4h7v7h-7V94.4z M174.3,101.6h7v7h-7V101.6z M174.3,116.1h7
		v7h-7V116.1z M174.3,130.7h7v7h-7V130.7z M174.3,137.9h7v7h-7V137.9z M174.3,145.2h7v7h-7V145.2z M174.3,152.4h7v7h-7V152.4z
		 M174.3,159.7h7v7h-7V159.7z M174.3,167h7v7h-7V167z M174.3,181.5h7v7h-7V181.5z M174.3,196h7v7h-7V196z M174.3,203.3h7v7h-7V203.3
		z M174.3,210.5h7v7h-7V210.5z M174.3,225h7v7h-7V225z M174.3,232.3h7v7h-7V232.3z M174.3,239.6h7v7h-7V239.6z M174.3,246.8h7v7h-7
		V246.8z M174.3,254.1h7v7h-7V254.1z M174.3,268.6h7v7h-7V268.6z M174.3,275.9h7v7h-7V275.9z M174.3,283.1h7v7h-7V283.1z
		 M174.3,290.4h7v7h-7V290.4z M174.3,297.6h7v7h-7V297.6z M174.3,312.2h7v7h-7V312.2z M174.3,319.4h7v7h-7V319.4z M174.3,326.7h7v7
		h-7V326.7z M174.3,341.2h7v7h-7V341.2z M174.3,348.5h7v7h-7V348.5z M174.3,355.7h7v7h-7V355.7z M174.3,363h7v7h-7V363z
		 M174.3,370.2h7v7h-7V370.2z M174.3,377.5h7v7h-7V377.5z M181.5,0h7v7h-7V0z M181.5,7.2h7v7h-7V7.2z M181.5,21.8h7v7h-7V21.8z
		 M181.5,29h7v7h-7V29z M181.5,36.3h7v7h-7V36.3z M181.5,43.6h7v7h-7V43.6z M181.5,50.8h7v7h-7V50.8z M181.5,58.1h7v7h-7V58.1z
		 M181.5,65.3h7v7h-7V65.3z M181.5,72.6h7v7h-7V72.6z M181.5,79.9h7v7h-7V79.9z M181.5,94.4h7v7h-7V94.4z M181.5,108.9h7v7h-7V108.9
		z M181.5,116.1h7v7h-7V116.1z M181.5,123.4h7v7h-7V123.4z M181.5,130.7h7v7h-7V130.7z M181.5,137.9h7v7h-7V137.9z M181.5,145.2h7v7
		h-7V145.2z M181.5,159.7h7v7h-7V159.7z M181.5,174.2h7v7h-7V174.2z M181.5,181.5h7v7h-7V181.5z M181.5,188.8h7v7h-7V188.8z
		 M181.5,203.3h7v7h-7V203.3z M181.5,210.5h7v7h-7V210.5z M181.5,217.8h7v7h-7V217.8z M181.5,225h7v7h-7V225z M181.5,239.6h7v7h-7
		V239.6z M181.5,254.1h7v7h-7V254.1z M181.5,261.4h7v7h-7V261.4z M181.5,268.6h7v7h-7V268.6z M181.5,283.1h7v7h-7V283.1z
		 M181.5,297.6h7v7h-7V297.6z M181.5,304.9h7v7h-7V304.9z M181.5,312.2h7v7h-7V312.2z M181.5,326.7h7v7h-7V326.7z M181.5,334h7v7h-7
		V334z M181.5,341.2h7v7h-7V341.2z M181.5,348.5h7v7h-7V348.5z M181.5,355.7h7v7h-7V355.7z M188.8,0h7v7h-7V0z M188.8,14.5h7v7h-7
		V14.5z M188.8,21.8h7v7h-7V21.8z M188.8,36.3h7v7h-7V36.3z M188.8,43.6h7v7h-7V43.6z M188.8,50.8h7v7h-7V50.8z M188.8,58.1h7v7h-7
		V58.1z M188.8,72.6h7v7h-7V72.6z M188.8,87.1h7v7h-7V87.1z M188.8,94.4h7v7h-7V94.4z M188.8,101.6h7v7h-7V101.6z M188.8,108.9h7v7
		h-7V108.9z M188.8,116.1h7v7h-7V116.1z M188.8,123.4h7v7h-7V123.4z M188.8,137.9h7v7h-7V137.9z M188.8,152.4h7v7h-7V152.4z
		 M188.8,159.7h7v7h-7V159.7z M188.8,167h7v7h-7V167z M188.8,181.5h7v7h-7V181.5z M188.8,188.8h7v7h-7V188.8z M188.8,196h7v7h-7V196
		z M188.8,203.3h7v7h-7V203.3z M188.8,210.5h7v7h-7V210.5z M188.8,225h7v7h-7V225z M188.8,232.3h7v7h-7V232.3z M188.8,239.6h7v7h-7
		V239.6z M188.8,246.8h7v7h-7V246.8z M188.8,254.1h7v7h-7V254.1z M188.8,268.6h7v7h-7V268.6z M188.8,275.9h7v7h-7V275.9z
		 M188.8,283.1h7v7h-7V283.1z M188.8,290.4h7v7h-7V290.4z M188.8,297.6h7v7h-7V297.6z M188.8,312.2h7v7h-7V312.2z M188.8,319.4h7v7
		h-7V319.4z M188.8,370.2h7v7h-7V370.2z M196,0h7v7h-7V0z M196,7.2h7v7h-7V7.2z M196,14.5h7v7h-7V14.5z M196,21.8h7v7h-7V21.8z
		 M196,29h7v7h-7V29z M196,36.3h7v7h-7V36.3z M196,50.8h7v7h-7V50.8z M196,65.3h7v7h-7V65.3z M196,72.6h7v7h-7V72.6z M196,79.9h7v7
		h-7V79.9z M196,87.1h7v7h-7V87.1z M196,94.4h7v7h-7V94.4z M196,101.6h7v7h-7V101.6z M196,116.1h7v7h-7V116.1z M196,130.7h7v7h-7
		V130.7z M196,137.9h7v7h-7V137.9z M196,145.2h7v7h-7V145.2z M196,159.7h7v7h-7V159.7z M196,167h7v7h-7V167z M196,174.2h7v7h-7
		V174.2z M196,181.5h7v7h-7V181.5z M196,188.8h7v7h-7V188.8z M196,196h7v7h-7V196z M196,210.5h7v7h-7V210.5z M196,217.8h7v7h-7
		V217.8z M196,225h7v7h-7V225z M196,239.6h7v7h-7V239.6z M196,254.1h7v7h-7V254.1z M196,261.4h7v7h-7V261.4z M196,268.6h7v7h-7
		V268.6z M196,283.1h7v7h-7V283.1z M196,297.6h7v7h-7V297.6z M196,334h7v7h-7V334z M196,348.5h7v7h-7V348.5z M196,363h7v7h-7V363z
		 M196,377.5h7v7h-7V377.5z M130.7,384.8h7v7h-7V384.8z M130.7,399.3h7v7h-7V399.3z M130.7,413.8h7v7h-7V413.8z M130.7,428.3h7v7h-7
		V428.3z M130.7,442.8h7v7h-7V442.8z M138,384.8h7v7h-7V384.8z M138,392h7v7h-7V392z M138,399.3h7v7h-7V399.3z M138,406.6h7v7h-7
		V406.6z M138,413.8h7v7h-7V413.8z M138,421.1h7v7h-7V421.1z M138,428.3h7v7h-7V428.3z M138,435.6h7v7h-7V435.6z M138,450.1h7v7h-7
		V450.1z M145.2,384.8h7v7h-7V384.8z M145.2,399.3h7v7h-7V399.3z M145.2,413.8h7v7h-7V413.8z M145.2,428.3h7v7h-7V428.3z
		 M145.2,442.8h7v7h-7V442.8z M152.5,384.8h7v7h-7V384.8z M152.5,392h7v7h-7V392z M152.5,399.3h7v7h-7V399.3z M152.5,406.6h7v7h-7
		V406.6z M152.5,413.8h7v7h-7V413.8z M152.5,421.1h7v7h-7V421.1z M152.5,435.6h7v7h-7V435.6z M152.5,450.1h7v7h-7V450.1z
		 M159.7,384.8h7v7h-7V384.8z M159.7,399.3h7v7h-7V399.3z M159.7,413.8h7v7h-7V413.8z M159.7,421.1h7v7h-7V421.1z M159.7,428.3h7v7
		h-7V428.3z M159.7,442.8h7v7h-7V442.8z M159.7,450.1h7v7h-7V450.1z M167,384.8h7v7h-7V384.8z M167,392h7v7h-7V392z M167,399.3h7v7
		h-7V399.3z M167,406.6h7v7h-7V406.6z M167,421.1h7v7h-7V421.1z M167,435.6h7v7h-7V435.6z M167,450.1h7v7h-7V450.1z M174.3,384.8h7
		v7h-7V384.8z M174.3,392h7v7h-7V392z M174.3,406.6h7v7h-7V406.6z M174.3,421.1h7v7h-7V421.1z M174.3,428.3h7v7h-7V428.3z
		 M174.3,435.6h7v7h-7V435.6z M174.3,442.8h7v7h-7V442.8z M174.3,450.1h7v7h-7V450.1z M181.5,399.3h7v7h-7V399.3z M181.5,413.8h7v7
		h-7V413.8z M181.5,428.3h7v7h-7V428.3z M181.5,442.8h7v7h-7V442.8z M181.5,450.1h7v7h-7V450.1z M188.8,384.8h7v7h-7V384.8z
		 M188.8,399.3h7v7h-7V399.3z M188.8,421.1h7v7h-7V421.1z M188.8,435.6h7v7h-7V435.6z M188.8,450.1h7v7h-7V450.1z M196,392h7v7h-7
		V392z M196,406.6h7v7h-7V406.6z M196,428.3h7v7h-7V428.3z M196,442.8h7v7h-7V442.8z M130.7,522.7h7v7h-7V522.7z M138,457.4h7v7h-7
		V457.4z M138,464.6h7v7h-7V464.6z M138,522.7h7v7h-7V522.7z M145.2,457.4h7v7h-7V457.4z M145.2,464.6h7v7h-7V464.6z M145.2,471.9h7
		v7h-7V471.9z M145.2,479.2h7v7h-7V479.2z M145.2,486.4h7v7h-7V486.4z M145.2,493.7h7v7h-7V493.7z M145.2,500.9h7v7h-7V500.9z
		 M145.2,508.2h7v7h-7V508.2z M152.5,464.6h7v7h-7V464.6z M152.5,471.9h7v7h-7V471.9z M152.5,479.2h7v7h-7V479.2z M152.5,486.4h7v7
		h-7V486.4z M152.5,493.7h7v7h-7V493.7z M152.5,500.9h7v7h-7V500.9z M152.5,508.2h7v7h-7V508.2z M152.5,515.4h7v7h-7V515.4z
		 M152.5,522.7h7v7h-7V522.7z M159.7,457.4h7v7h-7V457.4z M159.7,471.9h7v7h-7V471.9z M159.7,479.2h7v7h-7V479.2z M159.7,486.4h7v7
		h-7V486.4z M159.7,493.7h7v7h-7V493.7z M159.7,500.9h7v7h-7V500.9z M159.7,508.2h7v7h-7V508.2z M159.7,515.4h7v7h-7V515.4z
		 M159.7,522.7h7v7h-7V522.7z M167,464.6h7v7h-7V464.6z M167,471.9h7v7h-7V471.9z M167,479.2h7v7h-7V479.2z M167,486.4h7v7h-7V486.4
		z M167,493.7h7v7h-7V493.7z M167,500.9h7v7h-7V500.9z M167,508.2h7v7h-7V508.2z M167,515.4h7v7h-7V515.4z M167,522.7h7v7h-7V522.7z
		 M174.3,457.4h7v7h-7V457.4z M174.3,464.6h7v7h-7V464.6z M174.3,471.9h7v7h-7V471.9z M174.3,479.2h7v7h-7V479.2z M174.3,486.4h7v7
		h-7V486.4z M174.3,493.7h7v7h-7V493.7z M174.3,500.9h7v7h-7V500.9z M174.3,508.2h7v7h-7V508.2z M174.3,515.4h7v7h-7V515.4z
		 M174.3,522.7h7v7h-7V522.7z M181.5,457.4h7v7h-7V457.4z M181.5,464.6h7v7h-7V464.6z M181.5,471.9h7v7h-7V471.9z M181.5,479.2h7v7
		h-7V479.2z M181.5,486.4h7v7h-7V486.4z M181.5,493.7h7v7h-7V493.7z M181.5,500.9h7v7h-7V500.9z M181.5,508.2h7v7h-7V508.2z
		 M181.5,515.4h7v7h-7V515.4z M181.5,522.7h7v7h-7V522.7z M188.8,457.4h7v7h-7V457.4z M188.8,464.6h7v7h-7V464.6z M188.8,471.9h7v7
		h-7V471.9z M188.8,479.2h7v7h-7V479.2z M188.8,486.4h7v7h-7V486.4z M188.8,493.7h7v7h-7V493.7z M188.8,500.9h7v7h-7V500.9z
		 M188.8,508.2h7v7h-7V508.2z M188.8,515.4h7v7h-7V515.4z M188.8,522.7h7v7h-7V522.7z M196,457.4h7v7h-7V457.4z M196,471.9h7v7h-7
		V471.9z M196,486.4h7v7h-7V486.4z M196,493.7h7v7h-7V493.7z M196,500.9h7v7h-7V500.9z M196,508.2h7v7h-7V508.2z M196,515.4h7v7h-7
		V515.4z M196,522.7h7v7h-7V522.7z M130.7,530h7v7h-7V530z M130.7,537.2h7v7h-7V537.2z M130.7,544.5h7v7h-7V544.5z M130.7,566.3h7v7
		h-7V566.3z M130.7,580.8h7v7h-7V580.8z M138,544.5h7v7h-7V544.5z M138,551.8h7v7h-7V551.8z M138,573.5h7v7h-7V573.5z M145.2,530h7
		v7h-7V530z M145.2,537.2h7v7h-7V537.2z M145.2,559h7v7h-7V559z M145.2,566.3h7v7h-7V566.3z M145.2,580.8h7v7h-7V580.8z
		 M152.5,544.5h7v7h-7V544.5z M152.5,551.8h7v7h-7V551.8z M152.5,573.5h7v7h-7V573.5z M152.5,580.8h7v7h-7V580.8z M159.7,530h7v7h-7
		V530z M159.7,537.2h7v7h-7V537.2z M159.7,559h7v7h-7V559z M159.7,566.3h7v7h-7V566.3z M167,530h7v7h-7V530z M167,537.2h7v7h-7
		V537.2z M167,544.5h7v7h-7V544.5z M167,551.8h7v7h-7V551.8z M167,573.5h7v7h-7V573.5z M167,580.8h7v7h-7V580.8z M174.3,530h7v7h-7
		V530z M174.3,537.2h7v7h-7V537.2z M174.3,544.5h7v7h-7V544.5z M174.3,551.8h7v7h-7V551.8z M174.3,559h7v7h-7V559z M174.3,566.3h7v7
		h-7V566.3z M181.5,530h7v7h-7V530z M181.5,537.2h7v7h-7V537.2z M181.5,544.5h7v7h-7V544.5z M181.5,551.8h7v7h-7V551.8z M181.5,559
		h7v7h-7V559z M181.5,566.3h7v7h-7V566.3z M181.5,573.5h7v7h-7V573.5z M181.5,580.8h7v7h-7V580.8z M188.8,530h7v7h-7V530z
		 M188.8,537.2h7v7h-7V537.2z M188.8,544.5h7v7h-7V544.5z M188.8,551.8h7v7h-7V551.8z M188.8,559h7v7h-7V559z M188.8,566.3h7v7h-7
		V566.3z M188.8,573.5h7v7h-7V573.5z M188.8,580.8h7v7h-7V580.8z M196,530h7v7h-7V530z M196,537.2h7v7h-7V537.2z M196,544.5h7v7h-7
		V544.5z M196,551.8h7v7h-7V551.8z M196,559h7v7h-7V559z M196,566.3h7v7h-7V566.3z M196,573.5h7v7h-7V573.5z M196,580.8h7v7h-7
		V580.8z M203.3,0h7v7h-7V0z M203.3,7.2h7v7h-7V7.2z M203.3,21.8h7v7h-7V21.8z M203.3,29h7v7h-7V29z M203.3,36.3h7v7h-7V36.3z
		 M203.3,43.6h7v7h-7V43.6z M203.3,50.8h7v7h-7V50.8z M203.3,58.1h7v7h-7V58.1z M203.3,65.3h7v7h-7V65.3z M203.3,72.6h7v7h-7V72.6z
		 M203.3,79.9h7v7h-7V79.9z M203.3,94.4h7v7h-7V94.4z M203.3,108.9h7v7h-7V108.9z M203.3,116.1h7v7h-7V116.1z M203.3,123.4h7v7h-7
		V123.4z M203.3,137.9h7v7h-7V137.9z M203.3,145.2h7v7h-7V145.2z M203.3,152.4h7v7h-7V152.4z M203.3,159.7h7v7h-7V159.7z M203.3,167
		h7v7h-7V167z M203.3,181.5h7v7h-7V181.5z M203.3,196h7v7h-7V196z M203.3,203.3h7v7h-7V203.3z M203.3,210.5h7v7h-7V210.5z
		 M203.3,225h7v7h-7V225z M203.3,232.3h7v7h-7V232.3z M203.3,239.6h7v7h-7V239.6z M203.3,246.8h7v7h-7V246.8z M203.3,254.1h7v7h-7
		V254.1z M203.3,261.4h7v7h-7V261.4z M203.3,268.6h7v7h-7V268.6z M203.3,275.9h7v7h-7V275.9z M203.3,297.6h7v7h-7V297.6z
		 M203.3,326.7h7v7h-7V326.7z M203.3,341.2h7v7h-7V341.2z M203.3,355.7h7v7h-7V355.7z M203.3,370.2h7v7h-7V370.2z M210.6,0h7v7h-7V0
		z M210.6,14.5h7v7h-7V14.5z M210.6,21.8h7v7h-7V21.8z M210.6,36.3h7v7h-7V36.3z M210.6,43.6h7v7h-7V43.6z M210.6,50.8h7v7h-7V50.8z
		 M210.6,58.1h7v7h-7V58.1z M210.6,72.6h7v7h-7V72.6z M210.6,87.1h7v7h-7V87.1z M210.6,94.4h7v7h-7V94.4z M210.6,101.6h7v7h-7V101.6
		z M210.6,116.1h7v7h-7V116.1z M210.6,130.7h7v7h-7V130.7z M210.6,137.9h7v7h-7V137.9z M210.6,152.4h7v7h-7V152.4z M210.6,167h7v7
		h-7V167z M210.6,174.2h7v7h-7V174.2z M210.6,181.5h7v7h-7V181.5z M210.6,188.8h7v7h-7V188.8z M210.6,196h7v7h-7V196z M210.6,210.5
		h7v7h-7V210.5z M210.6,217.8h7v7h-7V217.8z M210.6,225h7v7h-7V225z M210.6,232.3h7v7h-7V232.3z M210.6,239.6h7v7h-7V239.6z
		 M210.6,246.8h7v7h-7V246.8z M210.6,304.9h7v7h-7V304.9z M210.6,319.4h7v7h-7V319.4z M210.6,334h7v7h-7V334z M210.6,348.5h7v7h-7
		V348.5z M210.6,363h7v7h-7V363z M210.6,377.5h7v7h-7V377.5z M217.8,0h7v7h-7V0z M217.8,7.2h7v7h-7V7.2z M217.8,14.5h7v7h-7V14.5z
		 M217.8,21.8h7v7h-7V21.8z M217.8,29h7v7h-7V29z M217.8,36.3h7v7h-7V36.3z M217.8,50.8h7v7h-7V50.8z M217.8,65.3h7v7h-7V65.3z
		 M217.8,72.6h7v7h-7V72.6z M217.8,79.9h7v7h-7V79.9z M217.8,94.4h7v7h-7V94.4z M217.8,108.9h7v7h-7V108.9z M217.8,116.1h7v7h-7
		V116.1z M217.8,123.4h7v7h-7V123.4z M217.8,137.9h7v7h-7V137.9z M217.8,145.2h7v7h-7V145.2z M217.8,152.4h7v7h-7V152.4z
		 M217.8,159.7h7v7h-7V159.7z M217.8,167h7v7h-7V167z M217.8,181.5h7v7h-7V181.5z M217.8,196h7v7h-7V196z M217.8,203.3h7v7h-7V203.3
		z M217.8,210.5h7v7h-7V210.5z M217.8,217.8h7v7h-7V217.8z M217.8,225h7v7h-7V225z M217.8,304.9h7v7h-7V304.9z M217.8,326.7h7v7h-7
		V326.7z M217.8,341.2h7v7h-7V341.2z M217.8,355.7h7v7h-7V355.7z M217.8,370.2h7v7h-7V370.2z M225.1,0h7v7h-7V0z M225.1,7.2h7v7h-7
		V7.2z M225.1,21.8h7v7h-7V21.8z M225.1,29h7v7h-7V29z M225.1,36.3h7v7h-7V36.3z M225.1,43.6h7v7h-7V43.6z M225.1,50.8h7v7h-7V50.8z
		 M225.1,58.1h7v7h-7V58.1z M225.1,72.6h7v7h-7V72.6z M225.1,87.1h7v7h-7V87.1z M225.1,94.4h7v7h-7V94.4z M225.1,101.6h7v7h-7V101.6
		z M225.1,116.1h7v7h-7V116.1z M225.1,123.4h7v7h-7V123.4z M225.1,130.7h7v7h-7V130.7z M225.1,137.9h7v7h-7V137.9z M225.1,152.4h7v7
		h-7V152.4z M225.1,167h7v7h-7V167z M225.1,174.2h7v7h-7V174.2z M225.1,181.5h7v7h-7V181.5z M225.1,188.8h7v7h-7V188.8z M225.1,196
		h7v7h-7V196z M225.1,203.3h7v7h-7V203.3z M225.1,210.5h7v7h-7V210.5z M225.1,304.9h7v7h-7V304.9z M225.1,319.4h7v7h-7V319.4z
		 M225.1,334h7v7h-7V334z M225.1,348.5h7v7h-7V348.5z M225.1,363h7v7h-7V363z M225.1,377.5h7v7h-7V377.5z M232.3,0h7v7h-7V0z
		 M232.3,14.5h7v7h-7V14.5z M232.3,21.8h7v7h-7V21.8z M232.3,36.3h7v7h-7V36.3z M232.3,43.6h7v7h-7V43.6z M232.3,50.8h7v7h-7V50.8z
		 M232.3,65.3h7v7h-7V65.3z M232.3,72.6h7v7h-7V72.6z M232.3,79.9h7v7h-7V79.9z M232.3,87.1h7v7h-7V87.1z M232.3,101.6h7v7h-7V101.6
		z M232.3,108.9h7v7h-7V108.9z M232.3,116.1h7v7h-7V116.1z M232.3,123.4h7v7h-7V123.4z M232.3,137.9h7v7h-7V137.9z M232.3,145.2h7v7
		h-7V145.2z M232.3,152.4h7v7h-7V152.4z M232.3,159.7h7v7h-7V159.7z M232.3,167h7v7h-7V167z M232.3,174.2h7v7h-7V174.2z
		 M232.3,181.5h7v7h-7V181.5z M232.3,188.8h7v7h-7V188.8z M232.3,304.9h7v7h-7V304.9z M232.3,326.7h7v7h-7V326.7z M232.3,341.2h7v7
		h-7V341.2z M232.3,355.7h7v7h-7V355.7z M232.3,370.2h7v7h-7V370.2z M239.6,0h7v7h-7V0z M239.6,7.2h7v7h-7V7.2z M239.6,14.5h7v7h-7
		V14.5z M239.6,21.8h7v7h-7V21.8z M239.6,29h7v7h-7V29z M239.6,36.3h7v7h-7V36.3z M239.6,50.8h7v7h-7V50.8z M239.6,58.1h7v7h-7V58.1
		z M239.6,65.3h7v7h-7V65.3z M239.6,72.6h7v7h-7V72.6z M239.6,87.1h7v7h-7V87.1z M239.6,94.4h7v7h-7V94.4z M239.6,101.6h7v7h-7
		V101.6z M239.6,108.9h7v7h-7V108.9z M239.6,123.4h7v7h-7V123.4z M239.6,130.7h7v7h-7V130.7z M239.6,137.9h7v7h-7V137.9z
		 M239.6,145.2h7v7h-7V145.2z M239.6,152.4h7v7h-7V152.4z M239.6,159.7h7v7h-7V159.7z M239.6,167h7v7h-7V167z M239.6,254.1h7v7h-7
		V254.1z M239.6,261.4h7v7h-7V261.4z M239.6,268.6h7v7h-7V268.6z M239.6,275.9h7v7h-7V275.9z M239.6,290.4h7v7h-7V290.4z
		 M239.6,297.6h7v7h-7V297.6z M239.6,319.4h7v7h-7V319.4z M239.6,334h7v7h-7V334z M239.6,348.5h7v7h-7V348.5z M239.6,363h7v7h-7V363
		z M239.6,377.5h7v7h-7V377.5z M246.9,0h7v7h-7V0z M246.9,7.2h7v7h-7V7.2z M246.9,21.8h7v7h-7V21.8z M246.9,36.3h7v7h-7V36.3z
		 M246.9,43.6h7v7h-7V43.6z M246.9,50.8h7v7h-7V50.8z M246.9,58.1h7v7h-7V58.1z M246.9,72.6h7v7h-7V72.6z M246.9,79.9h7v7h-7V79.9z
		 M246.9,87.1h7v7h-7V87.1z M246.9,94.4h7v7h-7V94.4z M246.9,108.9h7v7h-7V108.9z M246.9,116.1h7v7h-7V116.1z M246.9,123.4h7v7h-7
		V123.4z M246.9,130.7h7v7h-7V130.7z M246.9,137.9h7v7h-7V137.9z M246.9,159.7h7v7h-7V159.7z M246.9,167h7v7h-7V167z M246.9,254.1h7
		v7h-7V254.1z M246.9,261.4h7v7h-7V261.4z M246.9,268.6h7v7h-7V268.6z M246.9,275.9h7v7h-7V275.9z M246.9,283.1h7v7h-7V283.1z
		 M246.9,312.2h7v7h-7V312.2z M246.9,326.7h7v7h-7V326.7z M246.9,341.2h7v7h-7V341.2z M246.9,355.7h7v7h-7V355.7z M246.9,370.2h7v7
		h-7V370.2z M254.1,7.2h7v7h-7V7.2z M254.1,14.5h7v7h-7V14.5z M254.1,21.8h7v7h-7V21.8z M254.1,29h7v7h-7V29z M254.1,36.3h7v7h-7
		V36.3z M254.1,43.6h7v7h-7V43.6z M254.1,58.1h7v7h-7V58.1z M254.1,65.3h7v7h-7V65.3z M254.1,72.6h7v7h-7V72.6z M254.1,79.9h7v7h-7
		V79.9z M254.1,94.4h7v7h-7V94.4z M254.1,101.6h7v7h-7V101.6z M254.1,108.9h7v7h-7V108.9z M254.1,116.1h7v7h-7V116.1z M254.1,137.9
		h7v7h-7V137.9z M254.1,159.7h7v7h-7V159.7z M254.1,167h7v7h-7V167z M254.1,174.2h7v7h-7V174.2z M254.1,254.1h7v7h-7V254.1z
		 M254.1,261.4h7v7h-7V261.4z M254.1,275.9h7v7h-7V275.9z M254.1,283.1h7v7h-7V283.1z M254.1,304.9h7v7h-7V304.9z M254.1,319.4h7v7
		h-7V319.4z M254.1,334h7v7h-7V334z M254.1,348.5h7v7h-7V348.5z M254.1,363h7v7h-7V363z M254.1,377.5h7v7h-7V377.5z M261.4,7.2h7v7
		h-7V7.2z M261.4,14.5h7v7h-7V14.5z M261.4,21.8h7v7h-7V21.8z M261.4,29h7v7h-7V29z M261.4,43.6h7v7h-7V43.6z M261.4,50.8h7v7h-7
		V50.8z M261.4,58.1h7v7h-7V58.1z M261.4,65.3h7v7h-7V65.3z M261.4,79.9h7v7h-7V79.9z M261.4,87.1h7v7h-7V87.1z M261.4,94.4h7v7h-7
		V94.4z M261.4,101.6h7v7h-7V101.6z M261.4,137.9h7v7h-7V137.9z M261.4,159.7h7v7h-7V159.7z M261.4,167h7v7h-7V167z M261.4,174.2h7
		v7h-7V174.2z M261.4,225h7v7h-7V225z M261.4,217.8h7v7h-7V217.8z M261.4,232.3h7v7h-7V232.3z M261.4,254.1h7v7h-7V254.1z
		 M261.4,261.4h7v7h-7V261.4z M268.6,268.6h7v7h-7V268.6z M261.4,275.9h7v7h-7V275.9z M261.4,297.6h7v7h-7V297.6z M261.4,312.2h7v7
		h-7V312.2z M261.4,326.7h7v7h-7V326.7z M261.4,341.2h7v7h-7V341.2z M261.4,355.7h7v7h-7V355.7z M261.4,370.2h7v7h-7V370.2z
		 M268.6,14.5h7v7h-7V14.5z M268.6,29h7v7h-7V29z M268.6,36.3h7v7h-7V36.3z M268.6,43.6h7v7h-7V43.6z M268.6,50.8h7v7h-7V50.8z
		 M268.6,65.3h7v7h-7V65.3z M268.6,72.6h7v7h-7V72.6z M268.6,87.1h7v7h-7V87.1z M268.6,101.6h7v7h-7V101.6z M268.6,108.9h7v7h-7
		V108.9z M268.6,137.9h7v7h-7V137.9z M268.6,145.2h7v7h-7V145.2z M268.6,159.7h7v7h-7V159.7z M268.6,167h7v7h-7V167z M268.6,174.2h7
		v7h-7V174.2z M268.6,210.5h7v7h-7V210.5z M268.6,232.3h7v7h-7V232.3z M268.6,254.1h7v7h-7V254.1z M268.6,261.4h7v7h-7V261.4z
		 M268.6,290.4h7v7h-7V290.4z M268.6,304.9h7v7h-7V304.9z M268.6,319.4h7v7h-7V319.4z M268.6,334h7v7h-7V334z M268.6,348.5h7v7h-7
		V348.5z M268.6,363h7v7h-7V363z M268.6,377.5h7v7h-7V377.5z M203.3,384.8h7v7h-7V384.8z M203.3,399.3h7v7h-7V399.3z M203.3,413.8h7
		v7h-7V413.8z M203.3,435.6h7v7h-7V435.6z M203.3,450.1h7v7h-7V450.1z M210.6,392h7v7h-7V392z M210.6,406.6h7v7h-7V406.6z
		 M210.6,421.1h7v7h-7V421.1z M210.6,442.8h7v7h-7V442.8z M217.8,384.8h7v7h-7V384.8z M217.8,399.3h7v7h-7V399.3z M217.8,413.8h7v7
		h-7V413.8z M217.8,428.3h7v7h-7V428.3z M225.1,392h7v7h-7V392z M225.1,406.6h7v7h-7V406.6z M225.1,421.1h7v7h-7V421.1z
		 M225.1,435.6h7v7h-7V435.6z M225.1,450.1h7v7h-7V450.1z M232.3,384.8h7v7h-7V384.8z M232.3,399.3h7v7h-7V399.3z M232.3,413.8h7v7
		h-7V413.8z M232.3,428.3h7v7h-7V428.3z M232.3,442.8h7v7h-7V442.8z M239.6,392h7v7h-7V392z M239.6,406.6h7v7h-7V406.6z
		 M239.6,421.1h7v7h-7V421.1z M239.6,435.6h7v7h-7V435.6z M239.6,450.1h7v7h-7V450.1z M246.9,384.8h7v7h-7V384.8z M246.9,399.3h7v7
		h-7V399.3z M246.9,413.8h7v7h-7V413.8z M246.9,428.3h7v7h-7V428.3z M246.9,442.8h7v7h-7V442.8z M254.1,392h7v7h-7V392z
		 M254.1,406.6h7v7h-7V406.6z M254.1,421.1h7v7h-7V421.1z M254.1,435.6h7v7h-7V435.6z M254.1,450.1h7v7h-7V450.1z M261.4,384.8h7v7
		h-7V384.8z M261.4,399.3h7v7h-7V399.3z M261.4,413.8h7v7h-7V413.8z M261.4,428.3h7v7h-7V428.3z M261.4,442.8h7v7h-7V442.8z
		 M268.6,392h7v7h-7V392z M268.6,406.6h7v7h-7V406.6z M268.6,421.1h7v7h-7V421.1z M268.6,435.6h7v7h-7V435.6z M268.6,450.1h7v7h-7
		V450.1z M203.3,464.6h7v7h-7V464.6z M203.3,479.2h7v7h-7V479.2z M203.3,493.7h7v7h-7V493.7z M203.3,508.2h7v7h-7V508.2z
		 M203.3,515.4h7v7h-7V515.4z M203.3,522.7h7v7h-7V522.7z M210.6,457.4h7v7h-7V457.4z M210.6,471.9h7v7h-7V471.9z M210.6,486.4h7v7
		h-7V486.4z M210.6,500.9h7v7h-7V500.9z M210.6,515.4h7v7h-7V515.4z M217.8,479.2h7v7h-7V479.2z M217.8,493.7h7v7h-7V493.7z
		 M217.8,508.2h7v7h-7V508.2z M217.8,522.7h7v7h-7V522.7z M225.1,457.4h7v7h-7V457.4z M225.1,464.6h7v7h-7V464.6z M225.1,500.9h7v7
		h-7V500.9z M225.1,515.4h7v7h-7V515.4z M232.3,471.9h7v7h-7V471.9z M232.3,479.2h7v7h-7V479.2z M232.3,486.4h7v7h-7V486.4z
		 M232.3,508.2h7v7h-7V508.2z M232.3,522.7h7v7h-7V522.7z M239.6,493.7h7v7h-7V493.7z M239.6,500.9h7v7h-7V500.9z M246.9,508.2h7v7
		h-7V508.2z M246.9,515.4h7v7h-7V515.4z M246.9,522.7h7v7h-7V522.7z M254.1,457.4h7v7h-7V457.4z M261.4,464.6h7v7h-7V464.6z
		 M268.6,457.4h7v7h-7V457.4z M203.3,530h7v7h-7V530z M203.3,537.2h7v7h-7V537.2z M203.3,544.5h7v7h-7V544.5z M203.3,551.8h7v7h-7
		V551.8z M203.3,559h7v7h-7V559z M203.3,566.3h7v7h-7V566.3z M203.3,573.5h7v7h-7V573.5z M203.3,580.8h7v7h-7V580.8z M210.6,530h7v7
		h-7V530z M210.6,537.2h7v7h-7V537.2z M210.6,544.5h7v7h-7V544.5z M210.6,551.8h7v7h-7V551.8z M210.6,559h7v7h-7V559z M210.6,566.3
		h7v7h-7V566.3z M210.6,573.5h7v7h-7V573.5z M210.6,580.8h7v7h-7V580.8z M217.8,537.2h7v7h-7V537.2z M217.8,551.8h7v7h-7V551.8z
		 M217.8,559h7v7h-7V559z M217.8,566.3h7v7h-7V566.3z M217.8,573.5h7v7h-7V573.5z M217.8,580.8h7v7h-7V580.8z M225.1,530h7v7h-7V530
		z M225.1,544.5h7v7h-7V544.5z M225.1,559h7v7h-7V559z M225.1,573.5h7v7h-7V573.5z M232.3,537.2h7v7h-7V537.2z M232.3,551.8h7v7h-7
		V551.8z M232.3,566.3h7v7h-7V566.3z M232.3,580.8h7v7h-7V580.8z M239.6,530h7v7h-7V530z M239.6,544.5h7v7h-7V544.5z M239.6,559h7v7
		h-7V559z M239.6,573.5h7v7h-7V573.5z M246.9,551.8h7v7h-7V551.8z M246.9,566.3h7v7h-7V566.3z M254.1,530h7v7h-7V530z M254.1,537.2
		h7v7h-7V537.2z M254.1,544.5h7v7h-7V544.5z M254.1,551.8h7v7h-7V551.8z M254.1,573.5h7v7h-7V573.5z M254.1,580.8h7v7h-7V580.8z
		 M261.4,559h7v7h-7V559z M261.4,566.3h7v7h-7V566.3z M261.4,573.5h7v7h-7V573.5z M261.4,580.8h7v7h-7V580.8z M268.6,530h7v7h-7V530
		z M268.6,537.2h7v7h-7V537.2z M268.6,544.5h7v7h-7V544.5z M268.6,551.8h7v7h-7V551.8z M268.6,559h7v7h-7V559z M268.6,566.3h7v7h-7
		V566.3z M268.6,573.5h7v7h-7V573.5z M268.6,580.8h7v7h-7V580.8z M275.9,14.5h7v7h-7V14.5z M275.9,21.8h7v7h-7V21.8z M275.9,29h7v7
		h-7V29z M275.9,36.3h7v7h-7V36.3z M275.9,50.8h7v7h-7V50.8z M275.9,58.1h7v7h-7V58.1z M275.9,65.3h7v7h-7V65.3z M275.9,79.9h7v7h-7
		V79.9z M275.9,87.1h7v7h-7V87.1z M275.9,94.4h7v7h-7V94.4z M275.9,101.6h7v7h-7V101.6z M275.9,116.1h7v7h-7V116.1z M275.9,145.2h7
		v7h-7V145.2z M276,203.3h7v7h-7V203.3z M275.9,254.1h7v7h-7V254.1z M275.9,261.4h7v7h-7V261.4z M275.9,283.1h7v7h-7V283.1z
		 M275.9,297.6h7v7h-7V297.6z M275.9,312.2h7v7h-7V312.2z M275.9,326.7h7v7h-7V326.7z M275.9,341.2h7v7h-7V341.2z M275.9,355.7h7v7
		h-7V355.7z M275.9,370.2h7v7h-7V370.2z M283.2,21.8h7v7h-7V21.8z M283.2,36.3h7v7h-7V36.3z M283.2,43.6h7v7h-7V43.6z M283.2,50.8h7
		v7h-7V50.8z M283.2,65.3h7v7h-7V65.3z M283.2,72.6h7v7h-7V72.6z M283.2,87.1h7v7h-7V87.1z M283.2,101.6h7v7h-7V101.6z M283.2,108.9
		h7v7h-7V108.9z M283.2,116.1h7v7h-7V116.1z M283.2,145.2h7v7h-7V145.2z M283.2,152.4h7v7h-7V152.4z M283.2,196h7v7h-7V196z
		 M283.1,181.5h7v7h-7V181.5z M283.3,167h7v7h-7V167z M276,239.6h7v7h-7V239.6z M283.3,239.6h7v7h-7V239.6z M290.5,232.2h7v7h-7
		V232.2z M283.2,275.9h7v7h-7V275.9z M283.2,290.4h7v7h-7V290.4z M283.2,304.9h7v7h-7V304.9z M283.2,319.4h7v7h-7V319.4z M283.2,334
		h7v7h-7V334z M283.2,348.5h7v7h-7V348.5z M283.2,363h7v7h-7V363z M283.2,377.5h7v7h-7V377.5z M290.4,29h7v7h-7V29z M290.4,50.8h7v7
		h-7V50.8z M290.4,58.1h7v7h-7V58.1z M290.4,72.6h7v7h-7V72.6z M290.4,79.9h7v7h-7V79.9z M290.4,94.4h7v7h-7V94.4z M290.4,108.9h7v7
		h-7V108.9z M290.4,123.4h7v7h-7V123.4z M290.4,152.4h7v7h-7V152.4z M290.4,203.3h7v7h-7V203.3z M290.4,210.5h7v7h-7V210.5z
		 M290.4,217.8h7v7h-7V217.8z M290.4,225h7v7h-7V225z M290.4,268.6h7v7h-7V268.6z M290.4,283.1h7v7h-7V283.1z M290.4,297.6h7v7h-7
		V297.6z M290.4,312.2h7v7h-7V312.2z M290.4,326.7h7v7h-7V326.7z M290.4,341.2h7v7h-7V341.2z M290.4,355.7h7v7h-7V355.7z
		 M290.4,370.2h7v7h-7V370.2z M297.7,36.3h7v7h-7V36.3z M297.7,43.6h7v7h-7V43.6z M297.7,58.1h7v7h-7V58.1z M297.7,65.3h7v7h-7V65.3
		z M297.7,72.6h7v7h-7V72.6z M297.7,87.1h7v7h-7V87.1z M297.7,94.4h7v7h-7V94.4z M297.7,101.6h7v7h-7V101.6z M297.7,108.9h7v7h-7
		V108.9z M297.7,116.1h7v7h-7V116.1z M297.7,123.4h7v7h-7V123.4z M297.7,174.2h7v7h-7V174.2z M297.7,181.5h7v7h-7V181.5z
		 M297.7,188.8h7v7h-7V188.8z M305,181.5h7v7h-7V181.5z M305,188.8h7v7h-7V188.8z M297.7,261.4h7v7h-7V261.4z M297.7,275.9h7v7h-7
		V275.9z M297.7,290.4h7v7h-7V290.4z M297.7,304.9h7v7h-7V304.9z M297.7,319.4h7v7h-7V319.4z M297.7,334h7v7h-7V334z M297.7,348.5h7
		v7h-7V348.5z M297.7,363h7v7h-7V363z M297.7,377.5h7v7h-7V377.5z M304.9,43.6h7v7h-7V43.6z M304.9,50.8h7v7h-7V50.8z M304.9,58.1h7
		v7h-7V58.1z M304.9,72.6h7v7h-7V72.6z M304.9,79.9h7v7h-7V79.9z M304.9,87.1h7v7h-7V87.1z M304.9,101.6h7v7h-7V101.6z M304.9,116.1
		h7v7h-7V116.1z M304.9,130.7h7v7h-7V130.7z M304.9,254.1h7v7h-7V254.1z M304.9,268.6h7v7h-7V268.6z M304.9,283.1h7v7h-7V283.1z
		 M312.2,50.8h7v7h-7V50.8z M312.2,58.1h7v7h-7V58.1z M312.2,65.3h7v7h-7V65.3z M312.2,72.6h7v7h-7V72.6z M312.2,87.1h7v7h-7V87.1z
		 M312.2,94.4h7v7h-7V94.4z M312.2,101.6h7v7h-7V101.6z M312.2,108.9h7v7h-7V108.9z M312.2,116.1h7v7h-7V116.1z M312.2,123.4h7v7h-7
		V123.4z M312.2,130.7h7v7h-7V130.7z M312.2,167h7v7h-7V167z M319.5,65.3h7v7h-7V65.3z M319.5,72.6h7v7h-7V72.6z M319.5,79.9h7v7h-7
		V79.9z M319.5,87.1h7v7h-7V87.1z M319.5,101.6h7v7h-7V101.6z M319.5,116.1h7v7h-7V116.1z M319.5,130.7h7v7h-7V130.7z M319.5,145.2
		h7v7h-7V145.2z M319.5,152.4h7v7h-7V152.4z M319.5,159.7h7v7h-7V159.7z M326.7,72.6h7v7h-7V72.6z M326.7,79.9h7v7h-7V79.9z
		 M326.7,87.1h7v7h-7V87.1z M326.7,94.4h7v7h-7V94.4z M326.7,101.6h7v7h-7V101.6z M326.7,108.9h7v7h-7V108.9z M326.7,116.1h7v7h-7
		V116.1z M326.7,123.4h7v7h-7V123.4z M326.7,130.7h7v7h-7V130.7z M326.7,137.9h7v7h-7V137.9z M334,94.4h7v7h-7V94.4z M334,101.6h7v7
		h-7V101.6z M334,116.1h7v7h-7V116.1z M334,130.7h7v7h-7V130.7z M334,145.2h7v7h-7V145.2z M334,377.5h7v7h-7V377.5z M341.2,370.2h7
		v7h-7V370.2z M341.2,377.5h7v7h-7V377.5z M275.9,384.8h7v7h-7V384.8z M275.9,399.3h7v7h-7V399.3z M275.9,413.8h7v7h-7V413.8z
		 M275.9,428.3h7v7h-7V428.3z M275.9,442.8h7v7h-7V442.8z M283.2,392h7v7h-7V392z M283.2,406.6h7v7h-7V406.6z M283.2,421.1h7v7h-7
		V421.1z M283.2,435.6h7v7h-7V435.6z M283.2,450.1h7v7h-7V450.1z M290.4,384.8h7v7h-7V384.8z M290.4,399.3h7v7h-7V399.3z
		 M290.4,413.8h7v7h-7V413.8z M290.4,428.3h7v7h-7V428.3z M290.4,442.8h7v7h-7V442.8z M290.4,450.1h7v7h-7V450.1z M297.7,392h7v7h-7
		V392z M297.7,406.6h7v7h-7V406.6z M297.7,421.1h7v7h-7V421.1z M304.9,435.6h7v7h-7V435.6z M304.9,442.8h7v7h-7V442.8z M304.9,450.1
		h7v7h-7V450.1z M312.2,421.1h7v7h-7V421.1z M312.2,428.3h7v7h-7V428.3z M312.2,435.6h7v7h-7V435.6z M312.2,442.8h7v7h-7V442.8z
		 M312.2,450.1h7v7h-7V450.1z M319.5,392h7v7h-7V392z M319.5,399.3h7v7h-7V399.3z M319.5,406.6h7v7h-7V406.6z M319.5,413.8h7v7h-7
		V413.8z M319.5,421.1h7v7h-7V421.1z M319.5,428.3h7v7h-7V428.3z M319.5,435.6h7v7h-7V435.6z M319.5,442.8h7v7h-7V442.8z
		 M319.5,450.1h7v7h-7V450.1z M326.7,384.8h7v7h-7V384.8z M326.7,392h7v7h-7V392z M326.7,399.3h7v7h-7V399.3z M326.7,406.6h7v7h-7
		V406.6z M326.7,413.8h7v7h-7V413.8z M326.7,421.1h7v7h-7V421.1z M326.7,428.3h7v7h-7V428.3z M326.7,435.6h7v7h-7V435.6z
		 M326.7,442.8h7v7h-7V442.8z M326.7,450.1h7v7h-7V450.1z M334,384.8h7v7h-7V384.8z M334,392h7v7h-7V392z M334,399.3h7v7h-7V399.3z
		 M334,406.6h7v7h-7V406.6z M334,413.8h7v7h-7V413.8z M334,421.1h7v7h-7V421.1z M334,428.3h7v7h-7V428.3z M334,435.6h7v7h-7V435.6z
		 M334,442.8h7v7h-7V442.8z M341.2,384.8h7v7h-7V384.8z M341.2,392h7v7h-7V392z M341.2,399.3h7v7h-7V399.3z M341.2,406.6h7v7h-7
		V406.6z M341.2,413.8h7v7h-7V413.8z M341.2,421.1h7v7h-7V421.1z M341.2,428.3h7v7h-7V428.3z M341.2,435.6h7v7h-7V435.6z
		 M341.2,450.1h7v7h-7V450.1z M275.9,464.6h7v7h-7V464.6z M275.9,515.4h7v7h-7V515.4z M275.9,522.7h7v7h-7V522.7z M283.2,457.4h7v7
		h-7V457.4z M283.2,471.9h7v7h-7V471.9z M283.2,500.9h7v7h-7V500.9z M283.2,508.2h7v7h-7V508.2z M283.2,515.4h7v7h-7V515.4z
		 M283.2,522.7h7v7h-7V522.7z M290.4,479.2h7v7h-7V479.2z M290.4,486.4h7v7h-7V486.4z M290.4,493.7h7v7h-7V493.7z M290.4,500.9h7v7
		h-7V500.9z M290.4,508.2h7v7h-7V508.2z M290.4,515.4h7v7h-7V515.4z M290.4,522.7h7v7h-7V522.7z M297.7,464.6h7v7h-7V464.6z
		 M297.7,471.9h7v7h-7V471.9z M297.7,479.2h7v7h-7V479.2z M297.7,486.4h7v7h-7V486.4z M297.7,493.7h7v7h-7V493.7z M297.7,500.9h7v7
		h-7V500.9z M297.7,508.2h7v7h-7V508.2z M297.7,515.4h7v7h-7V515.4z M297.7,522.7h7v7h-7V522.7z M304.9,457.4h7v7h-7V457.4z
		 M304.9,464.6h7v7h-7V464.6z M304.9,471.9h7v7h-7V471.9z M304.9,479.2h7v7h-7V479.2z M304.9,486.4h7v7h-7V486.4z M304.9,493.7h7v7
		h-7V493.7z M304.9,500.9h7v7h-7V500.9z M304.9,508.2h7v7h-7V508.2z M304.9,515.4h7v7h-7V515.4z M304.9,522.7h7v7h-7V522.7z
		 M312.2,457.4h7v7h-7V457.4z M312.2,464.6h7v7h-7V464.6z M312.2,471.9h7v7h-7V471.9z M312.2,479.2h7v7h-7V479.2z M312.2,486.4h7v7
		h-7V486.4z M312.2,493.7h7v7h-7V493.7z M312.2,500.9h7v7h-7V500.9z M312.2,515.4h7v7h-7V515.4z M312.2,522.7h7v7h-7V522.7z
		 M319.5,457.4h7v7h-7V457.4z M319.5,464.6h7v7h-7V464.6z M319.5,471.9h7v7h-7V471.9z M319.5,479.2h7v7h-7V479.2z M319.5,486.4h7v7
		h-7V486.4z M319.5,493.7h7v7h-7V493.7z M319.5,508.2h7v7h-7V508.2z M319.5,522.7h7v7h-7V522.7z M326.7,457.4h7v7h-7V457.4z
		 M326.7,464.6h7v7h-7V464.6z M326.7,479.2h7v7h-7V479.2z M326.7,500.9h7v7h-7V500.9z M326.7,515.4h7v7h-7V515.4z M334,457.4h7v7h-7
		V457.4z M334,471.9h7v7h-7V471.9z M334,486.4h7v7h-7V486.4z M334,508.2h7v7h-7V508.2z M334,522.7h7v7h-7V522.7z M341.2,479.2h7v7
		h-7V479.2z M341.2,493.7h7v7h-7V493.7z M275.9,530h7v7h-7V530z M275.9,537.2h7v7h-7V537.2z M275.9,544.5h7v7h-7V544.5z
		 M275.9,551.8h7v7h-7V551.8z M275.9,559h7v7h-7V559z M275.9,566.3h7v7h-7V566.3z M275.9,573.5h7v7h-7V573.5z M275.9,580.8h7v7h-7
		V580.8z M283.2,530h7v7h-7V530z M283.2,537.2h7v7h-7V537.2z M283.2,544.5h7v7h-7V544.5z M283.2,551.8h7v7h-7V551.8z M283.2,559h7v7
		h-7V559z M283.2,566.3h7v7h-7V566.3z M283.2,573.5h7v7h-7V573.5z M283.2,580.8h7v7h-7V580.8z M290.4,530h7v7h-7V530z M290.4,537.2
		h7v7h-7V537.2z M290.4,544.5h7v7h-7V544.5z M290.4,551.8h7v7h-7V551.8z M290.4,559h7v7h-7V559z M290.4,566.3h7v7h-7V566.3z
		 M290.4,573.5h7v7h-7V573.5z M290.4,580.8h7v7h-7V580.8z M297.7,530h7v7h-7V530z M297.7,537.2h7v7h-7V537.2z M297.7,544.5h7v7h-7
		V544.5z M297.7,551.8h7v7h-7V551.8z M297.7,559h7v7h-7V559z M297.7,566.3h7v7h-7V566.3z M297.7,573.5h7v7h-7V573.5z M304.9,530h7v7
		h-7V530z M304.9,537.2h7v7h-7V537.2z M304.9,544.5h7v7h-7V544.5z M304.9,551.8h7v7h-7V551.8z M304.9,566.3h7v7h-7V566.3z
		 M304.9,580.8h7v7h-7V580.8z M312.2,537.2h7v7h-7V537.2z M312.2,559h7v7h-7V559z M312.2,573.5h7v7h-7V573.5z M319.5,530h7v7h-7V530
		z M319.5,544.5h7v7h-7V544.5z M319.5,566.3h7v7h-7V566.3z M319.5,580.8h7v7h-7V580.8z M326.7,537.2h7v7h-7V537.2z M326.7,551.8h7v7
		h-7V551.8z M334,559h7v7h-7V559z M334,566.3h7v7h-7V566.3z M334,573.5h7v7h-7V573.5z M334,580.8h7v7h-7V580.8z M341.2,530h7v7h-7
		V530z M341.2,537.2h7v7h-7V537.2z M341.2,544.5h7v7h-7V544.5z M341.2,551.8h7v7h-7V551.8z M341.2,123.4h7v7h-7V123.4z M341.2,130.7
		h7v7h-7V130.7z M341.2,137.9h7v7h-7V137.9z M348.5,370.2h7v7h-7V370.2z M348.5,377.5h7v7h-7V377.5z M355.8,363h7v7h-7V363z
		 M355.8,377.5h7v7h-7V377.5z M363,363h7v7h-7V363z M363,377.5h7v7h-7V377.5z M370.3,363h7v7h-7V363z M370.3,377.5h7v7h-7V377.5z
		 M377.5,363h7v7h-7V363z M377.5,377.5h7v7h-7V377.5z M384.8,363h7v7h-7V363z M384.8,377.5h7v7h-7V377.5z M392.1,363h7v7h-7V363z
		 M392.1,377.5h7v7h-7V377.5z M399.3,363h7v7h-7V363z M399.3,377.5h7v7h-7V377.5z M406.6,363h7v7h-7V363z M406.6,377.5h7v7h-7V377.5
		z M413.8,363h7v7h-7V363z M413.8,377.5h7v7h-7V377.5z M348.5,384.8h7v7h-7V384.8z M348.5,392h7v7h-7V392z M348.5,399.3h7v7h-7
		V399.3z M348.5,406.6h7v7h-7V406.6z M348.5,413.8h7v7h-7V413.8z M348.5,421.1h7v7h-7V421.1z M348.5,428.3h7v7h-7V428.3z
		 M348.5,442.8h7v7h-7V442.8z M355.8,384.8h7v7h-7V384.8z M355.8,392h7v7h-7V392z M355.8,399.3h7v7h-7V399.3z M355.8,406.6h7v7h-7
		V406.6z M355.8,413.8h7v7h-7V413.8z M355.8,421.1h7v7h-7V421.1z M355.8,428.3h7v7h-7V428.3z M355.8,450.1h7v7h-7V450.1z M363,384.8
		h7v7h-7V384.8z M363,392h7v7h-7V392z M363,399.3h7v7h-7V399.3z M363,406.6h7v7h-7V406.6z M363,413.8h7v7h-7V413.8z M363,421.1h7v7
		h-7V421.1z M363,435.6h7v7h-7V435.6z M370.3,384.8h7v7h-7V384.8z M370.3,392h7v7h-7V392z M370.3,399.3h7v7h-7V399.3z M370.3,406.6
		h7v7h-7V406.6z M370.3,413.8h7v7h-7V413.8z M370.3,421.1h7v7h-7V421.1z M370.3,428.3h7v7h-7V428.3z M370.3,442.8h7v7h-7V442.8z
		 M370.3,450.1h7v7h-7V450.1z M377.5,384.8h7v7h-7V384.8z M377.5,392h7v7h-7V392z M377.5,399.3h7v7h-7V399.3z M377.5,406.6h7v7h-7
		V406.6z M377.5,413.8h7v7h-7V413.8z M377.5,421.1h7v7h-7V421.1z M377.5,428.3h7v7h-7V428.3z M377.5,435.6h7v7h-7V435.6z
		 M384.8,384.8h7v7h-7V384.8z M384.8,392h7v7h-7V392z M384.8,399.3h7v7h-7V399.3z M384.8,406.6h7v7h-7V406.6z M384.8,413.8h7v7h-7
		V413.8z M384.8,421.1h7v7h-7V421.1z M384.8,428.3h7v7h-7V428.3z M392.1,384.8h7v7h-7V384.8z M392.1,392h7v7h-7V392z M392.1,399.3h7
		v7h-7V399.3z M392.1,406.6h7v7h-7V406.6z M392.1,413.8h7v7h-7V413.8z M392.1,421.1h7v7h-7V421.1z M392.1,428.3h7v7h-7V428.3z
		 M399.3,384.8h7v7h-7V384.8z M399.3,392h7v7h-7V392z M399.3,399.3h7v7h-7V399.3z M399.3,406.6h7v7h-7V406.6z M399.3,413.8h7v7h-7
		V413.8z M399.3,421.1h7v7h-7V421.1z M399.3,428.3h7v7h-7V428.3z M406.6,392h7v7h-7V392z M406.6,399.3h7v7h-7V399.3z M406.6,406.6h7
		v7h-7V406.6z M406.6,413.8h7v7h-7V413.8z M406.6,421.1h7v7h-7V421.1z M406.6,428.3h7v7h-7V428.3z M413.8,384.8h7v7h-7V384.8z
		 M413.8,399.3h7v7h-7V399.3z M413.8,406.6h7v7h-7V406.6z M413.8,413.8h7v7h-7V413.8z M413.8,421.1h7v7h-7V421.1z M413.8,428.3h7v7
		h-7V428.3z M348.5,464.6h7v7h-7V464.6z M348.5,500.9h7v7h-7V500.9z M348.5,508.2h7v7h-7V508.2z M348.5,515.4h7v7h-7V515.4z
		 M348.5,522.7h7v7h-7V522.7z M355.8,471.9h7v7h-7V471.9z M355.8,479.2h7v7h-7V479.2z M355.8,486.4h7v7h-7V486.4z M355.8,493.7h7v7
		h-7V493.7z M363,457.4h7v7h-7V457.4z M363,464.6h7v7h-7V464.6z M421.1,370.2h7v7h-7V370.2z M421.1,377.5h7v7h-7V377.5z
		 M428.4,370.2h7v7h-7V370.2z M428.4,377.5h7v7h-7V377.5z M435.6,363h7v7h-7V363z M435.6,377.5h7v7h-7V377.5z M442.9,363h7v7h-7V363
		z M442.9,377.5h7v7h-7V377.5z M450.1,363h7v7h-7V363z M450.1,377.5h7v7h-7V377.5z M457.4,370.2h7v7h-7V370.2z M464.7,370.2h7v7h-7
		V370.2z M471.9,370.2h7v7h-7V370.2z M479.2,370.2h7v7h-7V370.2z M486.4,370.2h7v7h-7V370.2z M421.1,384.8h7v7h-7V384.8z
		 M421.1,399.3h7v7h-7V399.3z M421.1,406.6h7v7h-7V406.6z M421.1,413.8h7v7h-7V413.8z M421.1,421.1h7v7h-7V421.1z M421.1,428.3h7v7
		h-7V428.3z M428.4,384.8h7v7h-7V384.8z M428.4,399.3h7v7h-7V399.3z M428.4,406.6h7v7h-7V406.6z M428.4,413.8h7v7h-7V413.8z
		 M428.4,421.1h7v7h-7V421.1z M435.6,384.8h7v7h-7V384.8z M435.6,399.3h7v7h-7V399.3z M435.6,406.6h7v7h-7V406.6z M435.6,413.8h7v7
		h-7V413.8z M435.6,421.1h7v7h-7V421.1z M442.9,384.8h7v7h-7V384.8z M442.9,392h7v7h-7V392z M442.9,406.6h7v7h-7V406.6z
		 M442.9,413.8h7v7h-7V413.8z M442.9,421.1h7v7h-7V421.1z M442.9,428.3h7v7h-7V428.3z M450.1,384.8h7v7h-7V384.8z M450.1,392h7v7h-7
		V392z M450.1,406.6h7v7h-7V406.6z M450.1,413.8h7v7h-7V413.8z M450.1,428.3h7v7h-7V428.3z M457.4,384.8h7v7h-7V384.8z M457.4,392h7
		v7h-7V392z M457.4,399.3h7v7h-7V399.3z M457.4,421.1h7v7h-7V421.1z M457.4,428.3h7v7h-7V428.3z M464.7,384.8h7v7h-7V384.8z
		 M464.7,392h7v7h-7V392z M464.7,399.3h7v7h-7V399.3z M464.7,406.6h7v7h-7V406.6z M464.7,413.8h7v7h-7V413.8z M464.7,421.1h7v7h-7
		V421.1z M464.7,428.3h7v7h-7V428.3z M464.7,435.6h7v7h-7V435.6z M464.7,442.8h7v7h-7V442.8z M464.7,450.1h7v7h-7V450.1z
		 M471.9,384.8h7v7h-7V384.8z M471.9,392h7v7h-7V392z M471.9,399.3h7v7h-7V399.3z M471.9,406.6h7v7h-7V406.6z M471.9,413.8h7v7h-7
		V413.8z M471.9,421.1h7v7h-7V421.1z M471.9,428.3h7v7h-7V428.3z M471.9,435.6h7v7h-7V435.6z M471.9,442.8h7v7h-7V442.8z
		 M471.9,450.1h7v7h-7V450.1z M479.2,384.8h7v7h-7V384.8z M479.2,392h7v7h-7V392z M479.2,406.6h7v7h-7V406.6z M479.2,413.8h7v7h-7
		V413.8z M479.2,421.1h7v7h-7V421.1z M479.2,428.3h7v7h-7V428.3z M479.2,435.6h7v7h-7V435.6z M479.2,442.8h7v7h-7V442.8z
		 M486.4,384.8h7v7h-7V384.8z M486.4,392h7v7h-7V392z M486.4,413.8h7v7h-7V413.8z M486.4,421.1h7v7h-7V421.1z M486.4,450.1h7v7h-7
		V450.1z M450.1,479.2h7v7h-7V479.2z M450.1,486.4h7v7h-7V486.4z M457.4,457.4h7v7h-7V457.4z M457.4,464.6h7v7h-7V464.6z
		 M457.4,471.9h7v7h-7V471.9z M457.4,479.2h7v7h-7V479.2z M457.4,486.4h7v7h-7V486.4z M457.4,493.7h7v7h-7V493.7z M464.7,457.4h7v7
		h-7V457.4z M464.7,464.6h7v7h-7V464.6z M464.7,471.9h7v7h-7V471.9z M464.7,479.2h7v7h-7V479.2z M464.7,486.4h7v7h-7V486.4z
		 M464.7,493.7h7v7h-7V493.7z M471.9,457.4h7v7h-7V457.4z M471.9,464.6h7v7h-7V464.6z M471.9,471.9h7v7h-7V471.9z M471.9,479.2h7v7
		h-7V479.2z M479.2,464.6h7v7h-7V464.6z M486.4,457.4h7v7h-7V457.4z M486.4,464.6h7v7h-7V464.6z M486.4,471.9h7v7h-7V471.9z
		 M457.4,580.8h7v7h-7V580.8z M464.7,573.5h7v7h-7V573.5z M464.7,580.8h7v7h-7V580.8z M471.9,566.3h7v7h-7V566.3z M471.9,573.5h7v7
		h-7V573.5z M471.9,580.8h7v7h-7V580.8z M479.2,559h7v7h-7V559z M479.2,566.3h7v7h-7V566.3z M479.2,573.5h7v7h-7V573.5z
		 M479.2,580.8h7v7h-7V580.8z M486.4,559h7v7h-7V559z M486.4,566.3h7v7h-7V566.3z M486.4,573.5h7v7h-7V573.5z M486.4,580.8h7v7h-7
		V580.8z M493.7,370.2h7v7h-7V370.2z M501,370.2h7v7h-7V370.2z M508.2,370.2h7v7h-7V370.2z M515.5,370.2h7v7h-7V370.2z M522.7,370.2
		h7v7h-7V370.2z M530,370.2h7v7h-7V370.2z M537.3,370.2h7v7h-7V370.2z M544.5,370.2h7v7h-7V370.2z M551.8,377.5h7v7h-7V377.5z
		 M559,377.5h7v7h-7V377.5z M493.7,384.8h7v7h-7V384.8z M493.7,392h7v7h-7V392z M493.7,428.3h7v7h-7V428.3z M493.7,435.6h7v7h-7
		V435.6z M493.7,442.8h7v7h-7V442.8z M493.7,450.1h7v7h-7V450.1z M501,384.8h7v7h-7V384.8z M501,392h7v7h-7V392z M508.2,384.8h7v7
		h-7V384.8z M508.2,392h7v7h-7V392z M515.5,384.8h7v7h-7V384.8z M515.5,392h7v7h-7V392z M522.7,384.8h7v7h-7V384.8z M522.7,392h7v7
		h-7V392z M530,384.8h7v7h-7V384.8z M530,392h7v7h-7V392z M537.3,384.8h7v7h-7V384.8z M537.3,392h7v7h-7V392z M544.5,384.8h7v7h-7
		V384.8z M544.5,392h7v7h-7V392z M551.8,392h7v7h-7V392z M559,392h7v7h-7V392z M493.7,457.4h7v7h-7V457.4z M493.7,464.6h7v7h-7
		V464.6z M493.7,471.9h7v7h-7V471.9z M530,522.7h7v7h-7V522.7z M537.3,515.4h7v7h-7V515.4z M537.3,522.7h7v7h-7V522.7z M544.5,508.2
		h7v7h-7V508.2z M544.5,515.4h7v7h-7V515.4z M544.5,522.7h7v7h-7V522.7z M551.8,500.9h7v7h-7V500.9z M551.8,508.2h7v7h-7V508.2z
		 M551.8,515.4h7v7h-7V515.4z M551.8,522.7h7v7h-7V522.7z M559,493.7h7v7h-7V493.7z M559,500.9h7v7h-7V500.9z M559,508.2h7v7h-7
		V508.2z M559,515.4h7v7h-7V515.4z M493.7,551.8h7v7h-7V551.8z M493.7,559h7v7h-7V559z M493.7,566.3h7v7h-7V566.3z M493.7,573.5h7v7
		h-7V573.5z M493.7,580.8h7v7h-7V580.8z M501,544.5h7v7h-7V544.5z M501,551.8h7v7h-7V551.8z M501,559h7v7h-7V559z M501,566.3h7v7h-7
		V566.3z M501,573.5h7v7h-7V573.5z M508.2,537.2h7v7h-7V537.2z M508.2,544.5h7v7h-7V544.5z M508.2,551.8h7v7h-7V551.8z M508.2,559h7
		v7h-7V559z M508.2,566.3h7v7h-7V566.3z M515.5,530h7v7h-7V530z M515.5,537.2h7v7h-7V537.2z M515.5,544.5h7v7h-7V544.5z
		 M515.5,551.8h7v7h-7V551.8z M515.5,559h7v7h-7V559z M515.5,566.3h7v7h-7V566.3z M515.5,573.5h7v7h-7V573.5z M515.5,580.8h7v7h-7
		V580.8z M522.7,530h7v7h-7V530z M522.7,537.2h7v7h-7V537.2z M522.7,544.5h7v7h-7V544.5z M522.7,551.8h7v7h-7V551.8z M522.7,559h7v7
		h-7V559z M522.7,566.3h7v7h-7V566.3z M522.7,573.5h7v7h-7V573.5z M522.7,580.8h7v7h-7V580.8z M530,530h7v7h-7V530z M530,537.2h7v7
		h-7V537.2z M530,544.5h7v7h-7V544.5z M537.3,530h7v7h-7V530z M537.3,537.2h7v7h-7V537.2z M544.5,530h7v7h-7V530z M566.3,377.5h7v7
		h-7V377.5z M566.3,384.8h7v7h-7V384.8z M624.4,450.1h7v7h-7V450.1z M631.6,442.8h7v7h-7V442.8z M631.6,450.1h7v7h-7V450.1z
		 M566.3,493.7h7v7h-7V493.7z M566.3,500.9h7v7h-7V500.9z M566.3,508.2h7v7h-7V508.2z M566.3,515.4h7v7h-7V515.4z M566.3,522.7h7v7
		h-7V522.7z M573.6,486.4h7v7h-7V486.4z M573.6,493.7h7v7h-7V493.7z M573.6,500.9h7v7h-7V500.9z M573.6,508.2h7v7h-7V508.2z
		 M573.6,515.4h7v7h-7V515.4z M573.6,522.7h7v7h-7V522.7z M580.8,479.2h7v7h-7V479.2z M580.8,486.4h7v7h-7V486.4z M580.8,493.7h7v7
		h-7V493.7z M588.1,479.2h7v7h-7V479.2z M588.1,486.4h7v7h-7V486.4z M595.3,471.9h7v7h-7V471.9z M595.3,479.2h7v7h-7V479.2z
		 M595.3,486.4h7v7h-7V486.4z M595.3,493.7h7v7h-7V493.7z M595.3,500.9h7v7h-7V500.9z M595.3,508.2h7v7h-7V508.2z M595.3,515.4h7v7
		h-7V515.4z M595.3,522.7h7v7h-7V522.7z M602.6,464.6h7v7h-7V464.6z M602.6,471.9h7v7h-7V471.9z M602.6,479.2h7v7h-7V479.2z
		 M609.9,464.6h7v7h-7V464.6z M609.9,471.9h7v7h-7V471.9z M617.1,457.4h7v7h-7V457.4z M617.1,464.6h7v7h-7V464.6z M624.4,457.4h7v7
		h-7V457.4z M624.4,464.6h7v7h-7V464.6z M624.4,471.9h7v7h-7V471.9z M624.4,479.2h7v7h-7V479.2z M624.4,486.4h7v7h-7V486.4z
		 M624.4,493.7h7v7h-7V493.7z M624.4,500.9h7v7h-7V500.9z M624.4,508.2h7v7h-7V508.2z M624.4,515.4h7v7h-7V515.4z M624.4,522.7h7v7
		h-7V522.7z M566.3,530h7v7h-7V530z M566.3,537.2h7v7h-7V537.2z M566.3,544.5h7v7h-7V544.5z M566.3,551.8h7v7h-7V551.8z M566.3,559
		h7v7h-7V559z M566.3,566.3h7v7h-7V566.3z M566.3,573.5h7v7h-7V573.5z M566.3,580.8h7v7h-7V580.8z M573.6,530h7v7h-7V530z
		 M573.6,537.2h7v7h-7V537.2z M573.6,544.5h7v7h-7V544.5z M573.6,551.8h7v7h-7V551.8z M573.6,559h7v7h-7V559z M573.6,566.3h7v7h-7
		V566.3z M573.6,573.5h7v7h-7V573.5z M573.6,580.8h7v7h-7V580.8z M595.3,530h7v7h-7V530z M595.3,537.2h7v7h-7V537.2z M595.3,544.5h7
		v7h-7V544.5z M595.3,551.8h7v7h-7V551.8z M595.3,559h7v7h-7V559z M595.3,566.3h7v7h-7V566.3z M595.3,573.5h7v7h-7V573.5z
		 M595.3,580.8h7v7h-7V580.8z M602.6,573.5h7v7h-7V573.5z M602.6,580.8h7v7h-7V580.8z M609.9,559h7v7h-7V559z M609.9,566.3h7v7h-7
		V566.3z M609.9,573.5h7v7h-7V573.5z M617.1,551.8h7v7h-7V551.8z M617.1,559h7v7h-7V559z M617.1,566.3h7v7h-7V566.3z M617.1,573.5h7
		v7h-7V573.5z M617.1,580.8h7v7h-7V580.8z M624.4,530h7v7h-7V530z M624.4,537.2h7v7h-7V537.2z M624.4,544.5h7v7h-7V544.5z
		 M624.4,551.8h7v7h-7V551.8z M631.6,530h7v7h-7V530z M631.6,537.2h7v7h-7V537.2z M631.6,544.5h7v7h-7V544.5z M667.9,145.2h7v7h-7
		V145.2z M667.9,152.4h7v7h-7V152.4z M667.9,159.7h7v7h-7V159.7z M667.9,167h7v7h-7V167z M667.9,174.2h7v7h-7V174.2z M667.9,181.5h7
		v7h-7V181.5z M667.9,188.8h7v7h-7V188.8z M667.9,196h7v7h-7V196z M667.9,203.3h7v7h-7V203.3z M667.9,210.5h7v7h-7V210.5z
		 M667.9,217.8h7v7h-7V217.8z M667.9,225h7v7h-7V225z M667.9,232.3h7v7h-7V232.3z M667.9,239.6h7v7h-7V239.6z M667.9,246.8h7v7h-7
		V246.8z M667.9,254.1h7v7h-7V254.1z M667.9,261.4h7v7h-7V261.4z M667.9,268.6h7v7h-7V268.6z M667.9,275.9h7v7h-7V275.9z
		 M667.9,283.1h7v7h-7V283.1z M667.9,290.4h7v7h-7V290.4z M667.9,297.6h7v7h-7V297.6z M667.9,304.9h7v7h-7V304.9z M667.9,312.2h7v7
		h-7V312.2z M667.9,319.4h7v7h-7V319.4z M667.9,326.7h7v7h-7V326.7z M667.9,334h7v7h-7V334z M667.9,341.2h7v7h-7V341.2z
		 M667.9,348.5h7v7h-7V348.5z M667.9,355.7h7v7h-7V355.7z M667.9,363h7v7h-7V363z M667.9,370.2h7v7h-7V370.2z M667.9,377.5h7v7h-7
		V377.5z M667.9,384.7h7v7h-7V384.7z M667.9,392h7v7h-7V392z M675.2,145.2h7v7h-7V145.2z M675.2,152.4h7v7h-7V152.4z M675.2,167h7v7
		h-7V167z M675.2,181.5h7v7h-7V181.5z M675.2,196h7v7h-7V196z M675.2,210.5h7v7h-7V210.5z M675.2,217.8h7v7h-7V217.8z M675.2,232.3
		h7v7h-7V232.3z M675.2,246.8h7v7h-7V246.8z M675.2,254.1h7v7h-7V254.1z M675.2,268.6h7v7h-7V268.6z M675.2,283.1h7v7h-7V283.1z
		 M675.2,290.4h7v7h-7V290.4z M675.2,304.9h7v7h-7V304.9z M675.2,319.4h7v7h-7V319.4z M675.2,334h7v7h-7V334z M675.2,348.5h7v7h-7
		V348.5z M675.2,355.7h7v7h-7V355.7z M675.2,370.2h7v7h-7V370.2z M682.5,145.2h7v7h-7V145.2z M682.5,159.7h7v7h-7V159.7z
		 M682.5,174.2h7v7h-7V174.2z M682.5,188.8h7v7h-7V188.8z M682.5,203.3h7v7h-7V203.3z M682.5,210.5h7v7h-7V210.5z M682.5,225h7v7h-7
		V225z M682.5,239.6h7v7h-7V239.6z M682.5,246.8h7v7h-7V246.8z M682.5,261.4h7v7h-7V261.4z M682.5,275.9h7v7h-7V275.9z M682.5,283.1
		h7v7h-7V283.1z M682.5,297.6h7v7h-7V297.6z M682.5,312.2h7v7h-7V312.2z M682.5,319.4h7v7h-7V319.4z M682.5,326.7h7v7h-7V326.7z
		 M682.5,341.2h7v7h-7V341.2z M682.5,348.5h7v7h-7V348.5z M682.5,363h7v7h-7V363z M682.5,377.5h7v7h-7V377.5z M689.7,145.2h7v7h-7
		V145.2z M689.7,152.4h7v7h-7V152.4z M689.7,159.7h7v7h-7V159.7z M689.7,167h7v7h-7V167z M689.7,174.2h7v7h-7V174.2z M689.7,181.5h7
		v7h-7V181.5z M689.7,188.8h7v7h-7V188.8z M689.7,196h7v7h-7V196z M689.7,203.3h7v7h-7V203.3z M689.7,210.5h7v7h-7V210.5z
		 M689.7,217.8h7v7h-7V217.8z M689.7,225h7v7h-7V225z M689.7,232.3h7v7h-7V232.3z M689.7,239.6h7v7h-7V239.6z M689.7,246.8h7v7h-7
		V246.8z M689.7,254.1h7v7h-7V254.1z M689.7,261.4h7v7h-7V261.4z M689.7,268.6h7v7h-7V268.6z M689.7,275.9h7v7h-7V275.9z
		 M689.7,283.1h7v7h-7V283.1z M689.7,290.4h7v7h-7V290.4z M689.7,304.9h7v7h-7V304.9z M689.7,319.4h7v7h-7V319.4z M689.7,326.7h7v7
		h-7V326.7z M689.7,334h7v7h-7V334z M689.7,341.2h7v7h-7V341.2z M689.7,348.5h7v7h-7V348.5z M689.7,355.7h7v7h-7V355.7z M689.7,363
		h7v7h-7V363z M689.7,370.2h7v7h-7V370.2z M689.7,377.5h7v7h-7V377.5z M697,152.4h7v7h-7V152.4z M697,159.7h7v7h-7V159.7z
		 M697,174.2h7v7h-7V174.2z M697,217.8h7v7h-7V217.8z M697,225h7v7h-7V225z M697,232.3h7v7h-7V232.3z M697,239.6h7v7h-7V239.6z
		 M697,246.8h7v7h-7V246.8z M697,254.1h7v7h-7V254.1z M697,268.6h7v7h-7V268.6z M697,275.9h7v7h-7V275.9z M697,283.1h7v7h-7V283.1z
		 M697,297.6h7v7h-7V297.6z M697,312.2h7v7h-7V312.2z M697,319.4h7v7h-7V319.4z M697,326.7h7v7h-7V326.7z M697,334h7v7h-7V334z
		 M697,341.2h7v7h-7V341.2z M704.2,152.4h7v7h-7V152.4z M704.2,167h7v7h-7V167z M704.2,174.2h7v7h-7V174.2z M704.2,217.8h7v7h-7
		V217.8z M704.2,225h7v7h-7V225z M704.2,232.3h7v7h-7V232.3z M704.2,239.6h7v7h-7V239.6z M704.2,246.8h7v7h-7V246.8z M704.2,261.4h7
		v7h-7V261.4z M704.2,268.6h7v7h-7V268.6z M704.2,275.9h7v7h-7V275.9z M704.2,290.4h7v7h-7V290.4z M704.2,297.6h7v7h-7V297.6z
		 M704.2,304.9h7v7h-7V304.9z M704.2,312.2h7v7h-7V312.2z M638.9,435.6h7v7h-7V435.6z M638.9,442.8h7v7h-7V442.8z M638.9,450.1h7v7
		h-7V450.1z M646.2,435.6h7v7h-7V435.6z M653.4,428.3h7v7h-7V428.3z M653.4,435.6h7v7h-7V435.6z M653.4,442.8h7v7h-7V442.8z
		 M653.4,450.1h7v7h-7V450.1z M660.7,421.1h7v7h-7V421.1z M660.7,428.3h7v7h-7V428.3z M660.7,442.8h7v7h-7V442.8z M660.7,450.1h7v7
		h-7V450.1z M667.9,406.6h7v7h-7V406.6z M667.9,413.8h7v7h-7V413.8z M667.9,421.1h7v7h-7V421.1z M667.9,428.3h7v7h-7V428.3z
		 M667.9,435.6h7v7h-7V435.6z M667.9,442.8h7v7h-7V442.8z M667.9,450.1h7v7h-7V450.1z M675.2,384.8h7v7h-7V384.8z M667.9,399.3h7v7
		h-7V399.3z M675.2,399.3h7v7h-7V399.3z M675.2,406.6h7v7h-7V406.6z M675.2,413.8h7v7h-7V413.8z M675.2,428.3h7v7h-7V428.3z
		 M675.2,442.8h7v7h-7V442.8z M682.5,384.8h7v7h-7V384.8z M682.5,392h7v7h-7V392z M682.5,399.3h7v7h-7V399.3z M682.5,413.8h7v7h-7
		V413.8z M682.5,421.1h7v7h-7V421.1z M682.5,428.3h7v7h-7V428.3z M682.5,435.6h7v7h-7V435.6z M682.5,442.8h7v7h-7V442.8z
		 M682.5,450.1h7v7h-7V450.1z M689.7,384.8h7v7h-7V384.8z M689.7,392h7v7h-7V392z M689.7,406.6h7v7h-7V406.6z M689.7,421.1h7v7h-7
		V421.1z M689.7,435.6h7v7h-7V435.6z M689.7,450.1h7v7h-7V450.1z M697,392h7v7h-7V392z M697,399.3h7v7h-7V399.3z M697,406.6h7v7h-7
		V406.6z M697,413.8h7v7h-7V413.8z M697,421.1h7v7h-7V421.1z M697,428.3h7v7h-7V428.3z M697,435.6h7v7h-7V435.6z M697,442.8h7v7h-7
		V442.8z M697,450.1h7v7h-7V450.1z M638.9,457.4h7v7h-7V457.4z M638.9,464.6h7v7h-7V464.6z M638.9,471.9h7v7h-7V471.9z M638.9,479.2
		h7v7h-7V479.2z M638.9,486.4h7v7h-7V486.4z M638.9,493.7h7v7h-7V493.7z M638.9,500.9h7v7h-7V500.9z M638.9,508.2h7v7h-7V508.2z
		 M638.9,515.4h7v7h-7V515.4z M638.9,522.7h7v7h-7V522.7z M646.2,500.9h7v7h-7V500.9z M646.2,508.2h7v7h-7V508.2z M653.4,457.4h7v7
		h-7V457.4z M653.4,464.6h7v7h-7V464.6z M653.4,471.9h7v7h-7V471.9z M653.4,479.2h7v7h-7V479.2z M653.4,486.4h7v7h-7V486.4z
		 M653.4,493.7h7v7h-7V493.7z M653.4,500.9h7v7h-7V500.9z M653.4,508.2h7v7h-7V508.2z M653.4,515.4h7v7h-7V515.4z M653.4,522.7h7v7
		h-7V522.7z M660.7,464.6h7v7h-7V464.6z M660.7,479.2h7v7h-7V479.2z M660.7,493.7h7v7h-7V493.7z M660.7,508.2h7v7h-7V508.2z
		 M660.7,515.4h7v7h-7V515.4z M660.7,522.7h7v7h-7V522.7z M667.9,457.4h7v7h-7V457.4z M667.9,464.6h7v7h-7V464.6z M667.9,471.9h7v7
		h-7V471.9z M667.9,479.2h7v7h-7V479.2z M667.9,486.4h7v7h-7V486.4z M667.9,493.7h7v7h-7V493.7z M667.9,500.9h7v7h-7V500.9z
		 M667.9,508.2h7v7h-7V508.2z M667.9,515.4h7v7h-7V515.4z M675.2,457.4h7v7h-7V457.4z M675.2,471.9h7v7h-7V471.9z M675.2,486.4h7v7
		h-7V486.4z M675.2,493.7h7v7h-7V493.7z M675.2,500.9h7v7h-7V500.9z M675.2,508.2h7v7h-7V508.2z M675.2,522.7h7v7h-7V522.7z
		 M682.5,457.4h7v7h-7V457.4z M682.5,464.6h7v7h-7V464.6z M682.5,471.9h7v7h-7V471.9z M682.5,479.2h7v7h-7V479.2z M682.5,486.4h7v7
		h-7V486.4z M682.5,500.9h7v7h-7V500.9z M682.5,515.4h7v7h-7V515.4z M689.7,457.4h7v7h-7V457.4z M689.7,464.6h7v7h-7V464.6z
		 M689.7,479.2h7v7h-7V479.2z M689.7,493.7h7v7h-7V493.7z M689.7,508.2h7v7h-7V508.2z M689.7,522.7h7v7h-7V522.7z M697,457.4h7v7h-7
		V457.4z M697,471.9h7v7h-7V471.9z M697,486.4h7v7h-7V486.4z M697,500.9h7v7h-7V500.9z M697,515.4h7v7h-7V515.4z M638.9,530h7v7h-7
		V530z M638.9,537.2h7v7h-7V537.2z M638.9,544.5h7v7h-7V544.5z M638.9,551.8h7v7h-7V551.8z M638.9,559h7v7h-7V559z M638.9,566.3h7v7
		h-7V566.3z M638.9,573.5h7v7h-7V573.5z M638.9,580.8h7v7h-7V580.8z M646.2,537.2h7v7h-7V537.2z M646.2,544.5h7v7h-7V544.5z
		 M646.2,559h7v7h-7V559z M646.2,566.3h7v7h-7V566.3z M646.2,573.5h7v7h-7V573.5z M646.2,580.8h7v7h-7V580.8z M653.4,530h7v7h-7V530
		z M653.4,537.2h7v7h-7V537.2z M653.4,544.5h7v7h-7V544.5z M653.4,551.8h7v7h-7V551.8z M653.4,573.5h7v7h-7V573.5z M653.4,580.8h7v7
		h-7V580.8z M660.7,530h7v7h-7V530z M660.7,537.2h7v7h-7V537.2z M660.7,551.8h7v7h-7V551.8z M660.7,559h7v7h-7V559z M660.7,566.3h7
		v7h-7V566.3z M660.7,580.8h7v7h-7V580.8z M667.9,530h7v7h-7V530z M667.9,544.5h7v7h-7V544.5z M667.9,559h7v7h-7V559z M667.9,573.5
		h7v7h-7V573.5z M675.2,537.2h7v7h-7V537.2z M675.2,551.8h7v7h-7V551.8z M675.2,566.3h7v7h-7V566.3z M675.2,580.8h7v7h-7V580.8z
		 M682.5,530h7v7h-7V530z M682.5,544.5h7v7h-7V544.5z M682.5,559h7v7h-7V559z M682.5,573.5h7v7h-7V573.5z M689.7,537.2h7v7h-7V537.2
		z M689.7,551.8h7v7h-7V551.8z M689.7,566.3h7v7h-7V566.3z M689.7,580.8h7v7h-7V580.8z M697,588h7v7h-7V588z M697,530h7v7h-7V530z
		 M697,544.5h7v7h-7V544.5z M697,559h7v7h-7V559z M697,573.5h7v7h-7V573.5z M704.2,464.6h7v7h-7V464.6z M704.2,479.2h7v7h-7V479.2z
		 M704.2,493.7h7v7h-7V493.7z M704.2,508.2h7v7h-7V508.2z M704.2,522.7h7v7h-7V522.7z M711.5,471.9h7v7h-7V471.9z M711.5,486.4h7v7
		h-7V486.4z M711.5,500.9h7v7h-7V500.9z M711.5,515.4h7v7h-7V515.4z M704.2,537.2h7v7h-7V537.2z M704.2,551.8h7v7h-7V551.8z
		 M704.2,566.3h7v7h-7V566.3z M704.2,580.8h7v7h-7V580.8z M711.5,588h7v7h-7V588z M711.5,530h7v7h-7V530z M711.5,544.5h7v7h-7V544.5
		z M711.5,559h7v7h-7V559z M711.5,573.5h7v7h-7V573.5z M718.7,464.6h7v7h-7V464.6z M718.7,479.2h7v7h-7V479.2z M718.7,493.7h7v7h-7
		V493.7z M718.7,508.2h7v7h-7V508.2z M718.7,522.7h7v7h-7V522.7z M726,471.9h7v7h-7V471.9z M726,486.4h7v7h-7V486.4z M726,500.9h7v7
		h-7V500.9z M726,515.4h7v7h-7V515.4z M718.7,537.2h7v7h-7V537.2z M718.7,551.8h7v7h-7V551.8z M718.7,566.3h7v7h-7V566.3z
		 M718.7,580.8h7v7h-7V580.8z M726,588h7v7h-7V588z M726,530h7v7h-7V530z M726,544.5h7v7h-7V544.5z M726,559h7v7h-7V559z M726,573.5
		h7v7h-7V573.5z M733.3,464.6h7v7h-7V464.6z M733.3,479.2h7v7h-7V479.2z M733.3,493.7h7v7h-7V493.7z M733.3,508.2h7v7h-7V508.2z
		 M733.3,522.7h7v7h-7V522.7z M740.6,471.9h7v7h-7V471.9z M740.6,486.4h7v7h-7V486.4z M740.6,500.9h7v7h-7V500.9z M740.6,515.4h7v7
		h-7V515.4z M733.3,537.2h7v7h-7V537.2z M733.3,551.8h7v7h-7V551.8z M733.3,566.3h7v7h-7V566.3z M733.3,580.8h7v7h-7V580.8z
		 M740.6,588h7v7h-7V588z M740.6,530h7v7h-7V530z M740.6,544.5h7v7h-7V544.5z M740.6,559h7v7h-7V559z M740.6,573.5h7v7h-7V573.5z
		 M747.8,464.6h7v7h-7V464.6z M747.8,479.2h7v7h-7V479.2z M747.8,493.7h7v7h-7V493.7z M747.8,508.2h7v7h-7V508.2z M747.8,522.7h7v7
		h-7V522.7z M755.1,471.9h7v7h-7V471.9z M769.6,471.9h7v7h-7V471.9z M755.1,486.4h7v7h-7V486.4z M769.6,486.2h7v7h-7V486.2z
		 M755.1,500.9h7v7h-7V500.9z M755.1,515.4h7v7h-7V515.4z M747.8,537.2h7v7h-7V537.2z M747.8,551.8h7v7h-7V551.8z M747.8,566.3h7v7
		h-7V566.3z M747.8,580.8h7v7h-7V580.8z M762.3,464.6h7v7h-7V464.6z M704.2,450.1h7v7h-7V450.1z M711.5,457.4h7v7h-7V457.4z
		 M718.8,450.1h7v7h-7V450.1z M726.1,457.4h7v7h-7V457.4z M733.3,450.1h7v7h-7V450.1z M740.6,457.4h7v7h-7V457.4z M747.8,450.1h7v7
		h-7V450.1z M755.1,457.4h7v7h-7V457.4z M726.1,442.8h7v7h-7V442.8z M740.6,442.8h7v7h-7V442.8z M755.1,442.8h7v7h-7V442.8z
		 M762.3,450.1h7v7h-7V450.1z M762.3,479.2h7v7h-7V479.2z M762.3,493.7h7v7h-7V493.7z M762.3,508.2h7v7h-7V508.2z M762.3,522.7h7v7
		h-7V522.7z M762.3,537.2h7v7h-7V537.2z M762.3,551.8h7v7h-7V551.8z M762.3,566.3h7v7h-7V566.3z M762.3,580.8h7v7h-7V580.8z
		 M755.1,588h7v7h-7V588z M755.1,530h7v7h-7V530z M755.1,544.5h7v7h-7V544.5z M755.1,559h7v7h-7V559z M755.1,573.5h7v7h-7V573.5z
		 M827.7,471.8h7v7h-7V471.8z M827.7,486.2h7v7h-7V486.2z M827.7,500.8h7v7h-7V500.8z M827.7,515.3h7v7h-7V515.3z M827.7,587.9h7v7
		h-7V587.9z M827.7,529.9h7v7h-7V529.9z M827.7,544.4h7v7h-7V544.4z M827.7,558.9h7v7h-7V558.9z M827.7,573.4h7v7h-7V573.4z
		 M834.9,464.5h7v7h-7V464.5z M834.9,479.1h7v7h-7V479.1z M834.9,493.6h7v7h-7V493.6z M834.9,508.1h7v7h-7V508.1z M834.9,522.6h7v7
		h-7V522.6z M842.2,471.8h7v7h-7V471.8z M842.2,486.2h7v7h-7V486.2z M842.2,500.8h7v7h-7V500.8z M842.2,515.3h7v7h-7V515.3z
		 M834.9,537.1h7v7h-7V537.1z M834.9,551.7h7v7h-7V551.7z M834.9,566.2h7v7h-7V566.2z M834.9,580.7h7v7h-7V580.7z M813.3,587.9h7v7
		h-7V587.9z M813.3,529.9h7v7h-7V529.9z M813.3,544.4h7v7h-7V544.4z M813.3,558.9h7v7h-7V558.9z M813.3,573.4h7v7h-7V573.4z
		 M820.5,537.1h7v7h-7V537.1z M820.5,551.7h7v7h-7V551.7z M820.5,566.2h7v7h-7V566.2z M820.5,580.7h7v7h-7V580.7z M842.2,587.9h7v7
		h-7V587.9z M842.2,529.9h7v7h-7V529.9z M842.2,544.4h7v7h-7V544.4z M842.2,558.9h7v7h-7V558.9z M842.2,573.4h7v7h-7V573.4z
		 M849.4,464.5h7v7h-7V464.5z M849.4,479.1h7v7h-7V479.1z M849.4,493.6h7v7h-7V493.6z M849.4,508.1h7v7h-7V508.1z M849.4,522.6h7v7
		h-7V522.6z M856.7,471.8h7v7h-7V471.8z M856.7,486.2h7v7h-7V486.2z M856.7,500.8h7v7h-7V500.8z M856.7,515.3h7v7h-7V515.3z
		 M849.4,537.1h7v7h-7V537.1z M849.4,551.7h7v7h-7V551.7z M849.4,566.2h7v7h-7V566.2z M849.4,580.7h7v7h-7V580.7z M856.7,587.9h7v7
		h-7V587.9z M856.7,529.9h7v7h-7V529.9z M856.7,544.4h7v7h-7V544.4z M856.7,558.9h7v7h-7V558.9z M856.7,573.4h7v7h-7V573.4z
		 M863.9,464.5h7v7h-7V464.5z M863.9,479.1h7v7h-7V479.1z M863.9,493.6h7v7h-7V493.6z M863.9,508.1h7v7h-7V508.1z M863.9,522.6h7v7
		h-7V522.6z M863.9,537.1h7v7h-7V537.1z M863.9,551.7h7v7h-7V551.7z M863.9,566.2h7v7h-7V566.2z M863.9,580.7h7v7h-7V580.7z
		 M827.7,457.2h7v7h-7V457.2z M834.9,450h7v7h-7V450z M842.2,457.2h7v7h-7V457.2z M849.5,450h7v7h-7V450z M856.8,457.2h7v7h-7V457.2
		z M827.7,442.8h7v7h-7V442.8z M842.2,442.8h7v7h-7V442.8z M856.8,442.8h7v7h-7V442.8z M864,450h7v7h-7V450z M834.9,435.5h7v7h-7
		V435.5z M849.4,435.5h7v7h-7V435.5z M863.9,435.5h7v7h-7V435.5z M777,537.2h7v7h-7V537.2z M777,551.8h7v7h-7V551.8z M777,566.3h7v7
		h-7V566.3z M769.7,544.5h7v7h-7V544.5z M769.7,559h7v7h-7V559z M784.1,544.5h7v7h-7V544.5z M784.1,559h7v7h-7V559z M769.7,573.5h7
		v7h-7V573.5z M711.5,152.4h7v7h-7V152.4z M711.5,159.7h7v7h-7V159.7z M711.5,174.2h7v7h-7V174.2z M711.5,217.8h7v7h-7V217.8z
		 M711.5,225h7v7h-7V225z M711.5,232.3h7v7h-7V232.3z M711.5,239.6h7v7h-7V239.6z M711.5,246.8h7v7h-7V246.8z M711.5,254.1h7v7h-7
		V254.1z M711.5,268.6h7v7h-7V268.6z M718.8,152.4h7v7h-7V152.4z M718.8,167h7v7h-7V167z M718.8,174.2h7v7h-7V174.2z M718.8,217.8h7
		v7h-7V217.8z M718.8,225h7v7h-7V225z M718.8,232.3h7v7h-7V232.3z M718.8,239.6h7v7h-7V239.6z M718.8,246.8h7v7h-7V246.8z
		 M718.8,261.4h7v7h-7V261.4z M718.8,268.6h7v7h-7V268.6z M726,145.2h7v7h-7V145.2z M726,152.4h7v7h-7V152.4z M726,159.7h7v7h-7
		V159.7z M726,167h7v7h-7V167z M726,174.2h7v7h-7V174.2z M726,217.8h7v7h-7V217.8z M726,225h7v7h-7V225z M726,232.3h7v7h-7V232.3z
		 M726,239.6h7v7h-7V239.6z M726,246.8h7v7h-7V246.8z M726,254.1h7v7h-7V254.1z M726,268.6h7v7h-7V268.6z M733.3,145.2h7v7h-7V145.2
		z M733.3,152.4h7v7h-7V152.4z M733.3,159.7h7v7h-7V159.7z M733.3,167h7v7h-7V167z M733.3,174.2h7v7h-7V174.2z M733.3,217.8h7v7h-7
		V217.8z M733.3,225h7v7h-7V225z M733.3,232.3h7v7h-7V232.3z M733.3,239.6h7v7h-7V239.6z M733.3,246.8h7v7h-7V246.8z M733.3,261.4h7
		v7h-7V261.4z M733.3,268.6h7v7h-7V268.6z M740.5,145.2h7v7h-7V145.2z M740.5,159.7h7v7h-7V159.7z M740.5,174.2h7v7h-7V174.2z
		 M740.5,217.8h7v7h-7V217.8z M740.5,225h7v7h-7V225z M740.5,232.3h7v7h-7V232.3z M740.5,239.6h7v7h-7V239.6z M740.5,254.1h7v7h-7
		V254.1z M740.5,268.6h7v7h-7V268.6z M747.8,145.2h7v7h-7V145.2z M747.8,152.4h7v7h-7V152.4z M747.8,167h7v7h-7V167z M747.8,174.2h7
		v7h-7V174.2z M747.8,217.8h7v7h-7V217.8z M747.8,225h7v7h-7V225z M747.8,232.3h7v7h-7V232.3z M747.8,239.6h7v7h-7V239.6z
		 M747.8,246.8h7v7h-7V246.8z M747.8,261.4h7v7h-7V261.4z M747.8,268.6h7v7h-7V268.6z M755.1,145.2h7v7h-7V145.2z M755.1,159.7h7v7
		h-7V159.7z M755.1,174.2h7v7h-7V174.2z M755.1,217.8h7v7h-7V217.8z M755.1,225h7v7h-7V225z M755.1,232.3h7v7h-7V232.3z
		 M755.1,239.6h7v7h-7V239.6z M755.1,254.1h7v7h-7V254.1z M755.1,268.6h7v7h-7V268.6z M762.3,145.2h7v7h-7V145.2z M762.3,152.4h7v7
		h-7V152.4z M762.3,167h7v7h-7V167z M762.3,174.2h7v7h-7V174.2z M762.3,217.8h7v7h-7V217.8z M762.3,225h7v7h-7V225z M762.3,232.3h7
		v7h-7V232.3z M762.3,246.8h7v7h-7V246.8z M762.3,261.4h7v7h-7V261.4z M762.3,268.6h7v7h-7V268.6z M769.6,145.2h7v7h-7V145.2z
		 M769.6,159.7h7v7h-7V159.7z M769.6,174.2h7v7h-7V174.2z M769.6,217.8h7v7h-7V217.8z M769.6,225h7v7h-7V225z M769.6,239.6h7v7h-7
		V239.6z M769.6,254.1h7v7h-7V254.1z M769.6,268.6h7v7h-7V268.6z M776.8,145.2h7v7h-7V145.2z M776.8,152.4h7v7h-7V152.4z M776.8,167
		h7v7h-7V167z M776.8,174.2h7v7h-7V174.2z M776.8,217.8h7v7h-7V217.8z M776.8,225h7v7h-7V225z M776.8,232.3h7v7h-7V232.3z
		 M776.8,239.6h7v7h-7V239.6z M776.8,246.8h7v7h-7V246.8z M776.8,254.1h7v7h-7V254.1z M776.8,261.4h7v7h-7V261.4z M776.8,268.6h7v7
		h-7V268.6z M697,384.7h7v7h-7V384.7z M697,377.5h7v7h-7V377.5z M697,370.2h7v7h-7V370.2z M697,363h7v7h-7V363z M697,355.7h7v7h-7
		V355.7z M697,348.4h7v7h-7V348.4z M784.2,333.9h7v7h-7V333.9z M784.1,145.2h7v7h-7V145.2z M784.1,159.7h7v7h-7V159.7z M784.1,174.2
		h7v7h-7V174.2z M784.1,217.8h7v7h-7V217.8z M784.1,225h7v7h-7V225z M784.1,232.3h7v7h-7V232.3z M784.1,239.6h7v7h-7V239.6z
		 M784.1,246.8h7v7h-7V246.8z M784.1,254.1h7v7h-7V254.1z M784.1,261.4h7v7h-7V261.4z M784.1,268.6h7v7h-7V268.6z M791.4,145.2h7v7
		h-7V145.2z M791.4,152.4h7v7h-7V152.4z M791.4,159.7h7v7h-7V159.7z M791.4,167h7v7h-7V167z M791.4,174.2h7v7h-7V174.2z
		 M791.4,217.8h7v7h-7V217.8z M791.4,225h7v7h-7V225z M791.4,232.3h7v7h-7V232.3z M791.4,239.6h7v7h-7V239.6z M791.4,246.8h7v7h-7
		V246.8z M791.4,254.1h7v7h-7V254.1z M791.4,268.6h7v7h-7V268.6z M798.6,145.2h7v7h-7V145.2z M798.6,159.7h7v7h-7V159.7z
		 M798.6,174.2h7v7h-7V174.2z M798.6,217.8h7v7h-7V217.8z M798.6,225h7v7h-7V225z M798.6,232.3h7v7h-7V232.3z M798.6,239.6h7v7h-7
		V239.6z M798.6,246.8h7v7h-7V246.8z M798.6,254.1h7v7h-7V254.1z M798.6,261.4h7v7h-7V261.4z M798.6,268.6h7v7h-7V268.6z
		 M805.9,145.2h7v7h-7V145.2z M805.9,152.4h7v7h-7V152.4z M805.9,167h7v7h-7V167z M805.9,174.2h7v7h-7V174.2z M805.9,217.8h7v7h-7
		V217.8z M805.9,225h7v7h-7V225z M805.9,232.3h7v7h-7V232.3z M805.9,239.6h7v7h-7V239.6z M805.9,246.8h7v7h-7V246.8z M805.9,254.1h7
		v7h-7V254.1z M805.9,268.6h7v7h-7V268.6z M813.1,145.2h7v7h-7V145.2z M813.1,159.7h7v7h-7V159.7z M813.1,174.2h7v7h-7V174.2z
		 M813.1,217.8h7v7h-7V217.8z M813.1,225h7v7h-7V225z M813.1,232.3h7v7h-7V232.3z M813.1,239.6h7v7h-7V239.6z M813.1,246.8h7v7h-7
		V246.8z M813.1,261.4h7v7h-7V261.4z M813.1,268.6h7v7h-7V268.6z M820.4,145.2h7v7h-7V145.2z M820.4,152.4h7v7h-7V152.4z M820.4,167
		h7v7h-7V167z M820.4,174.2h7v7h-7V174.2z M820.4,217.8h7v7h-7V217.8z M820.4,225h7v7h-7V225z M820.4,232.3h7v7h-7V232.3z
		 M820.4,239.6h7v7h-7V239.6z M820.4,254.1h7v7h-7V254.1z M820.4,268.6h7v7h-7V268.6z M827.7,145.2h7v7h-7V145.2z M827.7,159.7h7v7
		h-7V159.7z M827.7,174.2h7v7h-7V174.2z M827.7,217.8h7v7h-7V217.8z M827.7,225h7v7h-7V225z M827.7,232.3h7v7h-7V232.3z
		 M827.7,246.8h7v7h-7V246.8z M827.7,261.4h7v7h-7V261.4z M827.7,268.6h7v7h-7V268.6z M834.9,145.2h7v7h-7V145.2z M834.9,152.4h7v7
		h-7V152.4z M834.9,167h7v7h-7V167z M834.9,174.2h7v7h-7V174.2z M834.9,217.8h7v7h-7V217.8z M834.9,225h7v7h-7V225z M834.9,239.6h7
		v7h-7V239.6z M834.9,254.1h7v7h-7V254.1z M834.9,268.6h7v7h-7V268.6z M842.2,145.2h7v7h-7V145.2z M842.2,159.7h7v7h-7V159.7z
		 M842.2,174.2h7v7h-7V174.2z M842.2,217.8h7v7h-7V217.8z M842.2,225h7v7h-7V225z M842.2,232.3h7v7h-7V232.3z M842.2,239.6h7v7h-7
		V239.6z M842.2,246.8h7v7h-7V246.8z M842.2,254.1h7v7h-7V254.1z M842.2,261.4h7v7h-7V261.4z M842.2,268.6h7v7h-7V268.6z
		 M849.4,145.2h7v7h-7V145.2z M849.4,152.4h7v7h-7V152.4z M849.4,159.7h7v7h-7V159.7z M849.4,167h7v7h-7V167z M849.4,174.2h7v7h-7
		V174.2z M849.4,217.8h7v7h-7V217.8z M849.4,232.3h7v7h-7V232.3z M849.4,246.8h7v7h-7V246.8z M849.4,261.4h7v7h-7V261.4z M0,588h7v7
		H0V588z M7.3,588h7v7h-7V588z M14.5,588h7v7h-7V588z M21.8,588h7v7h-7V588z M29.1,588h7v7h-7V588z M43.6,588h7v7h-7V588z M50.8,588
		h7v7h-7V588z M58.1,588h7v7h-7V588z M65.4,588h7v7h-7V588z M72.6,588h7v7h-7V588z M79.9,588h7v7h-7V588z M87.1,588h7v7h-7V588z
		 M94.4,588h7v7h-7V588z M101.7,588h7v7h-7V588z M108.9,588h7v7h-7V588z M116.2,588h7v7h-7V588z M123.4,588h7v7h-7V588z M138,588h7
		v7h-7V588z M152.5,588h7v7h-7V588z M167,588h7v7h-7V588z M181.5,588h7v7h-7V588z M188.8,588h7v7h-7V588z M196,588h7v7h-7V588z
		 M203.3,588h7v7h-7V588z M210.6,588h7v7h-7V588z M217.8,588h7v7h-7V588z M225.1,588h7v7h-7V588z M232.3,588h7v7h-7V588z M246.9,588
		h7v7h-7V588z M254.1,588h7v7h-7V588z M261.4,588h7v7h-7V588z M268.6,588h7v7h-7V588z M275.9,588h7v7h-7V588z M283.2,588h7v7h-7V588
		z M297.7,588h7v7h-7V588z M312.2,588h7v7h-7V588z M326.7,588h7v7h-7V588z M450.1,588h7v7h-7V588z M457.4,588h7v7h-7V588z
		 M464.7,588h7v7h-7V588z M471.9,588h7v7h-7V588z M479.2,588h7v7h-7V588z M486.4,588h7v7h-7V588z M515.5,588h7v7h-7V588z M522.7,588
		h7v7h-7V588z M566.3,588h7v7h-7V588z M573.6,588h7v7h-7V588z M595.3,588h7v7h-7V588z M617.1,588h7v7h-7V588z M638.9,588h7v7h-7V588
		z M646.2,588h7v7h-7V588z M653.4,588h7v7h-7V588z M660.7,588h7v7h-7V588z M667.9,588h7v7h-7V588z M682.5,588h7v7h-7V588z
		 M791.4,333.9h7v7h-7V333.9z M798.7,341.2h7v7h-7V341.2z M798.7,333.9h7v7h-7V333.9z M805.9,341.2h7v7h-7V341.2z M776.9,384.7h7v7
		h-7V384.7z M769.6,406.6h7v7h-7V406.6z M769.6,413.8h7v7h-7V413.8z M769.6,421.1h7v7h-7V421.1z M769.6,428.3h7v7h-7V428.3z
		 M769.6,435.6h7v7h-7V435.6z M769.6,442.8h7v7h-7V442.8z M769.6,450.1h7v7h-7V450.1z M769.6,457.4h7v7h-7V457.4z M769.6,464.6h7v7
		h-7V464.6z M769.6,493.7h7v7h-7V493.7z M769.6,500.9h7v7h-7V500.9z M769.6,508.2h7v7h-7V508.2z M769.6,515.4h7v7h-7V515.4z
		 M769.6,522.7h7v7h-7V522.7z M776.9,392h7v7h-7V392z M776.9,377.5h7v7h-7V377.5z M776.9,355.7h7v7h-7V355.7z M776.9,348.4h7v7h-7
		V348.4z M776.9,341.2h7v7h-7V341.2z M776.9,399.3h7v7h-7V399.3z M776.9,413.8h7v7h-7V413.8z M776.9,428.3h7v7h-7V428.3z
		 M776.9,435.6h7v7h-7V435.6z M776.9,442.8h7v7h-7V442.8z M776.9,450.1h7v7h-7V450.1z M776.9,464.6h7v7h-7V464.6z M776.9,471.9h7v7
		h-7V471.9z M776.9,479.2h7v7h-7V479.2z M776.9,486.4h7v7h-7V486.4z M776.9,500.9h7v7h-7V500.9z M776.9,515.4h7v7h-7V515.4z
		 M776.9,530h7v7h-7V530z M769.7,580.8h7v7h-7V580.8z M769.7,588h7v7h-7V588z M784.1,384.7h7v7h-7V384.7z M784.1,370.2h7v7h-7V370.2
		z M784.1,363h7v7h-7V363z M784.1,355.7h7v7h-7V355.7z M784.1,399.3h7v7h-7V399.3z M784.1,406.6h7v7h-7V406.6z M784.1,413.8h7v7h-7
		V413.8z M784.1,421.1h7v7h-7V421.1z M784.1,428.3h7v7h-7V428.3z M784.1,435.6h7v7h-7V435.6z M784.1,457.4h7v7h-7V457.4z
		 M784.1,464.6h7v7h-7V464.6z M784.1,471.9h7v7h-7V471.9z M784.1,479.2h7v7h-7V479.2z M784.1,486.4h7v7h-7V486.4z M784.1,493.7h7v7
		h-7V493.7z M784.1,508.2h7v7h-7V508.2z M784.1,522.7h7v7h-7V522.7z M784.1,530h7v7h-7V530z M777,580.8h7v7h-7V580.8z M777,588h7v7
		h-7V588z M791.4,392h7v7h-7V392z M791.4,377.5h7v7h-7V377.5z M791.4,370.2h7v7h-7V370.2z M791.4,363h7v7h-7V363z M791.4,355.7h7v7
		h-7V355.7z M791.4,348.4h7v7h-7V348.4z M791.4,341.2h7v7h-7V341.2z M791.4,406.6h7v7h-7V406.6z M791.4,442.8h7v7h-7V442.8z
		 M791.4,450.1h7v7h-7V450.1z M791.4,457.4h7v7h-7V457.4z M791.4,464.6h7v7h-7V464.6z M791.4,471.9h7v7h-7V471.9z M791.4,479.2h7v7
		h-7V479.2z M791.4,486.4h7v7h-7V486.4z M791.4,493.7h7v7h-7V493.7z M791.4,500.9h7v7h-7V500.9z M791.4,508.2h7v7h-7V508.2z
		 M791.4,515.4h7v7h-7V515.4z M791.4,522.7h7v7h-7V522.7z M784.2,573.5h7v7h-7V573.5z M784.2,580.8h7v7h-7V580.8z M784.2,588h7v7h-7
		V588z M798.6,392h7v7h-7V392z M798.6,384.7h7v7h-7V384.7z M798.6,377.5h7v7h-7V377.5z M798.6,370.2h7v7h-7V370.2z M798.6,363h7v7
		h-7V363z M798.6,355.7h7v7h-7V355.7z M798.6,348.4h7v7h-7V348.4z M798.6,399.3h7v7h-7V399.3z M798.6,406.6h7v7h-7V406.6z
		 M798.6,413.8h7v7h-7V413.8z M798.6,421.1h7v7h-7V421.1z M798.6,428.3h7v7h-7V428.3z M798.6,435.6h7v7h-7V435.6z M798.6,442.8h7v7
		h-7V442.8z M798.6,450.1h7v7h-7V450.1z M798.6,457.4h7v7h-7V457.4z M798.6,464.6h7v7h-7V464.6z M798.6,471.9h7v7h-7V471.9z
		 M798.6,479.2h7v7h-7V479.2z M798.6,486.4h7v7h-7V486.4z M798.6,493.7h7v7h-7V493.7z M798.6,500.9h7v7h-7V500.9z M798.6,508.2h7v7
		h-7V508.2z M798.6,515.4h7v7h-7V515.4z M798.6,522.7h7v7h-7V522.7z M791.5,530h7v7h-7V530z M791.5,537.2h7v7h-7V537.2z
		 M791.5,544.5h7v7h-7V544.5z M791.5,551.8h7v7h-7V551.8z M791.5,559h7v7h-7V559z M791.5,566.3h7v7h-7V566.3z M791.5,573.5h7v7h-7
		V573.5z M791.5,580.8h7v7h-7V580.8z M791.5,588h7v7h-7V588z M805.9,392h7v7h-7V392z M805.9,384.7h7v7h-7V384.7z M805.9,377.5h7v7
		h-7V377.5z M805.9,370.2h7v7h-7V370.2z M805.9,355.7h7v7h-7V355.7z M805.9,348.4h7v7h-7V348.4z M805.9,399.3h7v7h-7V399.3z
		 M805.9,406.6h7v7h-7V406.6z M805.9,413.8h7v7h-7V413.8z M805.9,421.1h7v7h-7V421.1z M805.9,428.3h7v7h-7V428.3z M805.9,435.6h7v7
		h-7V435.6z M805.9,442.8h7v7h-7V442.8z M805.9,450.1h7v7h-7V450.1z M805.9,457.4h7v7h-7V457.4z M805.9,464.6h7v7h-7V464.6z
		 M805.9,471.9h7v7h-7V471.9z M805.9,479.2h7v7h-7V479.2z M805.9,486.4h7v7h-7V486.4z M805.9,493.7h7v7h-7V493.7z M805.9,500.9h7v7
		h-7V500.9z M805.9,508.2h7v7h-7V508.2z M805.9,515.4h7v7h-7V515.4z M805.9,522.7h7v7h-7V522.7z M798.8,530h7v7h-7V530z
		 M798.8,537.2h7v7h-7V537.2z M798.8,544.5h7v7h-7V544.5z M798.8,551.8h7v7h-7V551.8z M798.8,559h7v7h-7V559z M798.8,566.3h7v7h-7
		V566.3z M798.8,573.5h7v7h-7V573.5z M798.8,580.8h7v7h-7V580.8z M798.8,588h7v7h-7V588z M813.2,392h7v7h-7V392z M813.2,384.7h7v7
		h-7V384.7z M813.2,399.3h7v7h-7V399.3z M813.2,406.6h7v7h-7V406.6z M813.2,413.8h7v7h-7V413.8z M813.2,421.1h7v7h-7V421.1z
		 M813.2,428.3h7v7h-7V428.3z M813.2,435.6h7v7h-7V435.6z M813.2,442.8h7v7h-7V442.8z M813.2,450.1h7v7h-7V450.1z M813.2,457.4h7v7
		h-7V457.4z M813.2,464.6h7v7h-7V464.6z M813.2,471.9h7v7h-7V471.9z M813.2,479.2h7v7h-7V479.2z M813.2,486.4h7v7h-7V486.4z
		 M813.2,493.7h7v7h-7V493.7z M813.2,500.9h7v7h-7V500.9z M813.2,508.2h7v7h-7V508.2z M813.2,515.4h7v7h-7V515.4z M813.2,522.7h7v7
		h-7V522.7z M806,530h7v7h-7V530z M806,537.2h7v7h-7V537.2z M806,544.5h7v7h-7V544.5z M806,551.8h7v7h-7V551.8z M806,559h7v7h-7V559
		z M806,566.3h7v7h-7V566.3z M806,573.5h7v7h-7V573.5z M806,580.8h7v7h-7V580.8z M806,588h7v7h-7V588z M820.4,421.1h7v7h-7V421.1z
		 M820.4,428.3h7v7h-7V428.3z M820.4,435.6h7v7h-7V435.6z M820.4,442.8h7v7h-7V442.8z M820.4,450.1h7v7h-7V450.1z M820.4,457.4h7v7
		h-7V457.4z M820.4,464.6h7v7h-7V464.6z M820.4,471.9h7v7h-7V471.9z M820.4,479.2h7v7h-7V479.2z M820.4,486.4h7v7h-7V486.4z
		 M820.4,493.7h7v7h-7V493.7z M820.4,500.9h7v7h-7V500.9z M820.4,508.2h7v7h-7V508.2z M820.4,515.4h7v7h-7V515.4z M769.6,530h7v7h-7
		V530z M856.7,145.2h7v7h-7V145.2z M856.7,159.7h7v7h-7V159.7z M856.7,174.2h7v7h-7V174.2z M856.7,217.8h7v7h-7V217.8z M856.7,225h7
		v7h-7V225z M856.7,239.6h7v7h-7V239.6z M856.7,246.8h7v7h-7V246.8z M856.7,254.1h7v7h-7V254.1z M856.7,268.6h7v7h-7V268.6z
		 M864,145.2h7v7h-7V145.2z M864,152.4h7v7h-7V152.4z M864,167h7v7h-7V167z M864,174.2h7v7h-7V174.2z M864,210.5h7v7h-7V210.5z
		 M864,217.8h7v7h-7V217.8z M864,232.3h7v7h-7V232.3z M864,246.8h7v7h-7V246.8z M864,261.4h7v7h-7V261.4z"/>
</g>
</svg>
