<?xml version="1.0" encoding="utf-8"?>
<!-- Generator: Adobe Illustrator 27.3.1, SVG Export Plug-In . SVG Version: 6.00 Build 0)  -->
<svg version="1.1" xmlns="http://www.w3.org/2000/svg" xmlns:xlink="http://www.w3.org/1999/xlink" x="0px" y="0px"
	 viewBox="0 0 871 595" style="enable-background:new 0 0 871 595;" xml:space="preserve">
<style type="text/css">
	.st0{display:none;}
	.st1{fill:#1E0E01;}
</style>
<g id="Слой_2" class="st0">
	
		<image style="display:inline;overflow:visible;" width="1269" height="711" xlink:href="08499fb9-3d25-434c-9b7c-3c0f595c75f0.jpg"  transform="matrix(0.9643 0 0 0.9643 -60.3569 -99.7335)">
	</image>
</g>
<g id="Слой_1" xmlns:ev="http://www.w3.org/2001/xml-events">
	<path class="st1" d="M457.4,0h7v7h-7V0z M464.6,0h7v7h-7V0z M471.9,0h7v7h-7V0z M479.2,0h7v7h-7V0z M486.4,0h7v7h-7V0z M493.7,0h7
		v7h-7V0z M464.6,7.3h7v7h-7V7.3z M471.9,7.3h7v7h-7V7.3z M479.2,7.3h7v7h-7V7.3z M486.4,7.3h7v7h-7V7.3z M493.7,7.3h7v7h-7V7.3z
		 M500.9,7.3h7v7h-7V7.3z M508.2,7.3h7v7h-7V7.3z M421.1,14.5h7v7h-7V14.5z M428.3,14.5h7v7h-7V14.5z M435.6,14.5h7v7h-7V14.5z
		 M435.6,7.3h7v7h-7V7.3z M442.9,14.5h7v7h-7V14.5z M450.1,14.5h7v7h-7V14.5z M457.4,14.5h7v7h-7V14.5z M442.9,7.3h7v7h-7V7.3z
		 M450.1,7.3h7v7h-7V7.3z M457.4,7.3h7v7h-7V7.3z M464.6,14.5h7v7h-7V14.5z M471.9,14.5h7v7h-7V14.5z M479.2,14.5h7v7h-7V14.5z
		 M486.4,14.5h7v7h-7V14.5z M493.7,14.5h7v7h-7V14.5z M500.9,14.5h7v7h-7V14.5z M508.2,14.5h7v7h-7V14.5z M515.5,14.5h7v7h-7V14.5z
		 M522.7,14.5h7v7h-7V14.5z M406.6,21.8h7v7h-7V21.8z M413.8,21.8h7v7h-7V21.8z M421.1,21.8h7v7h-7V21.8z M428.3,21.8h7v7h-7V21.8z
		 M435.6,21.8h7v7h-7V21.8z M442.9,21.8h7v7h-7V21.8z M450.1,21.8h7v7h-7V21.8z M457.4,21.8h7v7h-7V21.8z M464.6,21.8h7v7h-7V21.8z
		 M471.9,21.8h7v7h-7V21.8z M479.2,21.8h7v7h-7V21.8z M486.4,21.8h7v7h-7V21.8z M493.7,21.8h7v7h-7V21.8z M500.9,21.8h7v7h-7V21.8z
		 M508.2,21.8h7v7h-7V21.8z M515.5,21.8h7v7h-7V21.8z M522.7,21.8h7v7h-7V21.8z M530,21.8h7v7h-7V21.8z M399.3,29h7v7h-7V29z
		 M406.6,29h7v7h-7V29z M413.8,29h7v7h-7V29z M421.1,29h7v7h-7V29z M428.3,29h7v7h-7V29z M435.6,29h7v7h-7V29z M450.1,29h7v7h-7V29z
		 M457.4,29h7v7h-7V29z M464.6,29h7v7h-7V29z M471.9,29h7v7h-7V29z M479.2,29h7v7h-7V29z M486.4,29h7v7h-7V29z M493.7,29h7v7h-7V29z
		 M500.9,29h7v7h-7V29z M508.2,29h7v7h-7V29z M515.5,29h7v7h-7V29z M522.7,29h7v7h-7V29z M530,29h7v7h-7V29z M537.2,29h7v7h-7V29z
		 M544.5,29h7v7h-7V29z M566.3,29h7v7h-7V29z M384.8,36.3h7v7h-7V36.3z M392,36.3h7v7h-7V36.3z M399.3,36.3h7v7h-7V36.3z
		 M406.6,36.3h7v7h-7V36.3z M413.8,36.3h7v7h-7V36.3z M421.1,36.3h7v7h-7V36.3z M428.3,36.3h7v7h-7V36.3z M435.6,36.3h7v7h-7V36.3z
		 M457.4,36.3h7v7h-7V36.3z M471.9,36.3h7v7h-7V36.3z M479.2,36.3h7v7h-7V36.3z M486.4,36.3h7v7h-7V36.3z M493.7,36.3h7v7h-7V36.3z
		 M500.9,36.3h7v7h-7V36.3z M508.2,36.3h7v7h-7V36.3z M515.5,36.3h7v7h-7V36.3z M522.7,36.3h7v7h-7V36.3z M530,36.3h7v7h-7V36.3z
		 M537.2,36.3h7v7h-7V36.3z M544.5,36.3h7v7h-7V36.3z M551.8,36.3h7v7h-7V36.3z M573.5,36.3h7v7h-7V36.3z M551.8,29h7v7h-7V29z
		 M537.2,21.8h7v7h-7V21.8z M530,14.5h7v7h-7V14.5z M537.2,14.5h7v7h-7V14.5z M544.5,21.8h7v7h-7V21.8z M551.8,21.8h7v7h-7V21.8z
		 M559,29h7v7h-7V29z M377.5,43.6h7v7h-7V43.6z M384.8,43.6h7v7h-7V43.6z M392,43.6h7v7h-7V43.6z M399.3,43.6h7v7h-7V43.6z
		 M406.6,43.6h7v7h-7V43.6z M413.8,43.6h7v7h-7V43.6z M421.1,43.6h7v7h-7V43.6z M428.3,43.6h7v7h-7V43.6z M450.1,43.6h7v7h-7V43.6z
		 M442.9,29h7v7h-7V29z M442.9,36.3h7v7h-7V36.3z M442.9,43.6h7v7h-7V43.6z M457.4,43.6h7v7h-7V43.6z M464.6,43.6h7v7h-7V43.6z
		 M471.9,43.6h7v7h-7V43.6z M486.4,43.6h7v7h-7V43.6z M493.7,43.6h7v7h-7V43.6z M508.2,43.6h7v7h-7V43.6z M515.5,43.6h7v7h-7V43.6z
		 M522.7,43.6h7v7h-7V43.6z M530,43.6h7v7h-7V43.6z M537.2,43.6h7v7h-7V43.6z M551.8,43.6h7v7h-7V43.6z M580.8,43.6h7v7h-7V43.6z
		 M377.5,50.8h7v7h-7V50.8z M384.8,50.8h7v7h-7V50.8z M392,50.8h7v7h-7V50.8z M399.3,50.8h7v7h-7V50.8z M406.6,50.8h7v7h-7V50.8z
		 M413.8,50.8h7v7h-7V50.8z M421.1,50.8h7v7h-7V50.8z M428.3,50.8h7v7h-7V50.8z M450.1,50.8h7v7h-7V50.8z M457.4,50.8h7v7h-7V50.8z
		 M471.9,50.8h7v7h-7V50.8z M479.2,50.8h7v7h-7V50.8z M486.4,50.8h7v7h-7V50.8z M493.7,50.8h7v7h-7V50.8z M500.9,50.8h7v7h-7V50.8z
		 M508.2,50.8h7v7h-7V50.8z M522.7,50.8h7v7h-7V50.8z M530,50.8h7v7h-7V50.8z M537.2,50.8h7v7h-7V50.8z M588.1,50.8h7v7h-7V50.8z
		 M370.3,58.1h7v7h-7V58.1z M377.5,58.1h7v7h-7V58.1z M384.8,58.1h7v7h-7V58.1z M392,58.1h7v7h-7V58.1z M399.3,58.1h7v7h-7V58.1z
		 M406.6,58.1h7v7h-7V58.1z M413.8,58.1h7v7h-7V58.1z M421.1,58.1h7v7h-7V58.1z M442.9,58.1h7v7h-7V58.1z M457.4,58.1h7v7h-7V58.1z
		 M464.6,58.1h7v7h-7V58.1z M471.9,58.1h7v7h-7V58.1z M479.2,58.1h7v7h-7V58.1z M493.7,58.1h7v7h-7V58.1z M508.2,58.1h7v7h-7V58.1z
		 M515.5,58.1h7v7h-7V58.1z M522.7,58.1h7v7h-7V58.1z M537.2,58.1h7v7h-7V58.1z M588.1,58.1h7v7h-7V58.1z M370.3,65.3h7v7h-7V65.3z
		 M377.5,65.3h7v7h-7V65.3z M384.8,65.3h7v7h-7V65.3z M392,65.3h7v7h-7V65.3z M399.3,65.3h7v7h-7V65.3z M406.6,65.3h7v7h-7V65.3z
		 M413.8,65.3h7v7h-7V65.3z M421.1,65.3h7v7h-7V65.3z M442.9,65.3h7v7h-7V65.3z M435.6,50.8h7v7h-7V50.8z M435.6,58.1h7v7h-7V58.1z
		 M464.6,65.3h7v7h-7V65.3z M479.2,65.3h7v7h-7V65.3z M493.7,65.3h7v7h-7V65.3z M500.9,65.3h7v7h-7V65.3z M508.2,65.3h7v7h-7V65.3z
		 M522.7,65.3h7v7h-7V65.3z M530,65.3h7v7h-7V65.3z M537.2,65.3h7v7h-7V65.3z M595.3,65.3h7v7h-7V65.3z M363,72.6h7v7h-7V72.6z
		 M370.3,72.6h7v7h-7V72.6z M377.5,72.6h7v7h-7V72.6z M384.8,72.6h7v7h-7V72.6z M392,72.6h7v7h-7V72.6z M399.3,72.6h7v7h-7V72.6z
		 M406.6,72.6h7v7h-7V72.6z M413.8,72.6h7v7h-7V72.6z M421.1,72.6h7v7h-7V72.6z M435.6,72.6h7v7h-7V72.6z M442.9,72.6h7v7h-7V72.6z
		 M457.4,72.6h7v7h-7V72.6z M464.6,72.6h7v7h-7V72.6z M493.7,72.6h7v7h-7V72.6z M508.2,72.6h7v7h-7V72.6z M515.5,72.6h7v7h-7V72.6z
		 M522.7,72.6h7v7h-7V72.6z M537.2,72.6h7v7h-7V72.6z M595.3,72.6h7v7h-7V72.6z M355.7,79.9h7v7h-7V79.9z M363,79.9h7v7h-7V79.9z
		 M370.3,79.9h7v7h-7V79.9z M377.5,79.9h7v7h-7V79.9z M384.8,79.9h7v7h-7V79.9z M392,79.9h7v7h-7V79.9z M399.3,79.9h7v7h-7V79.9z
		 M406.6,79.9h7v7h-7V79.9z M421.1,79.9h7v7h-7V79.9z M442.9,79.9h7v7h-7V79.9z M471.9,72.6h7v7h-7V72.6z M471.9,79.9h7v7h-7V79.9z
		 M493.7,79.9h7v7h-7V79.9z M500.9,79.9h7v7h-7V79.9z M508.2,79.9h7v7h-7V79.9z M522.7,79.9h7v7h-7V79.9z M530,79.9h7v7h-7V79.9z
		 M537.2,79.9h7v7h-7V79.9z M595.3,79.9h7v7h-7V79.9z M355.7,87.1h7v7h-7V87.1z M363,87.1h7v7h-7V87.1z M370.3,87.1h7v7h-7V87.1z
		 M377.5,87.1h7v7h-7V87.1z M384.8,87.1h7v7h-7V87.1z M392,87.1h7v7h-7V87.1z M399.3,87.1h7v7h-7V87.1z M406.6,87.1h7v7h-7V87.1z
		 M435.6,87.1h7v7h-7V87.1z M464.6,87.1h7v7h-7V87.1z M500.9,87.1h7v7h-7V87.1z M508.2,87.1h7v7h-7V87.1z M515.5,87.1h7v7h-7V87.1z
		 M522.7,87.1h7v7h-7V87.1z M602.6,87.1h7v7h-7V87.1z M355.7,94.4h7v7h-7V94.4z M363,94.4h7v7h-7V94.4z M370.3,94.4h7v7h-7V94.4z
		 M377.5,94.4h7v7h-7V94.4z M384.8,94.4h7v7h-7V94.4z M392,94.4h7v7h-7V94.4z M399.3,94.4h7v7h-7V94.4z M406.6,94.4h7v7h-7V94.4z
		 M515.5,94.4h7v7h-7V94.4z M522.7,94.4h7v7h-7V94.4z M530,94.4h7v7h-7V94.4z M602.6,94.4h7v7h-7V94.4z M348.5,101.6h7v7h-7V101.6z
		 M355.7,101.6h7v7h-7V101.6z M363,101.6h7v7h-7V101.6z M370.3,101.6h7v7h-7V101.6z M377.5,101.6h7v7h-7V101.6z M384.8,101.6h7v7h-7
		V101.6z M392,101.6h7v7h-7V101.6z M399.3,101.6h7v7h-7V101.6z M406.6,101.6h7v7h-7V101.6z M544.5,101.6h7v7h-7V101.6z M551.8,101.6
		h7v7h-7V101.6z M559,101.6h7v7h-7V101.6z M580.8,101.6h7v7h-7V101.6z M602.6,101.6h7v7h-7V101.6z M348.5,108.9h7v7h-7V108.9z
		 M355.7,108.9h7v7h-7V108.9z M363,108.9h7v7h-7V108.9z M370.3,108.9h7v7h-7V108.9z M377.5,108.9h7v7h-7V108.9z M384.8,108.9h7v7h-7
		V108.9z M392,108.9h7v7h-7V108.9z M399.3,108.9h7v7h-7V108.9z M406.6,108.9h7v7h-7V108.9z M421.1,108.9h7v7h-7V108.9z M428.3,108.9
		h7v7h-7V108.9z M435.6,108.9h7v7h-7V108.9z M442.9,108.9h7v7h-7V108.9z M450.1,108.9h7v7h-7V108.9z M551.8,108.9h7v7h-7V108.9z
		 M559,108.9h7v7h-7V108.9z M566.3,108.9h7v7h-7V108.9z M580.8,108.9h7v7h-7V108.9z M609.8,108.9h7v7h-7V108.9z M341.2,116.2h7v7h-7
		V116.2z M348.5,116.2h7v7h-7V116.2z M355.7,116.2h7v7h-7V116.2z M363,116.2h7v7h-7V116.2z M370.3,116.2h7v7h-7V116.2z M377.5,116.2
		h7v7h-7V116.2z M384.8,116.2h7v7h-7V116.2z M392,116.2h7v7h-7V116.2z M399.3,116.2h7v7h-7V116.2z M406.6,116.2h7v7h-7V116.2z
		 M435.6,116.2h7v7h-7V116.2z M442.9,116.2h7v7h-7V116.2z M450.1,116.2h7v7h-7V116.2z M457.4,116.2h7v7h-7V116.2z M464.6,116.2h7v7
		h-7V116.2z M566.3,116.2h7v7h-7V116.2z M573.5,116.2h7v7h-7V116.2z M580.8,116.2h7v7h-7V116.2z M609.8,116.2h7v7h-7V116.2z
		 M334,123.4h7v7h-7V123.4z M341.2,123.4h7v7h-7V123.4z M348.5,123.4h7v7h-7V123.4z M355.7,123.4h7v7h-7V123.4z M363,123.4h7v7h-7
		V123.4z M370.3,123.4h7v7h-7V123.4z M377.5,123.4h7v7h-7V123.4z M384.8,123.4h7v7h-7V123.4z M392,123.4h7v7h-7V123.4z M399.3,123.4
		h7v7h-7V123.4z M406.6,123.4h7v7h-7V123.4z M442.9,123.4h7v7h-7V123.4z M450.1,123.4h7v7h-7V123.4z M457.4,123.4h7v7h-7V123.4z
		 M464.6,123.4h7v7h-7V123.4z M471.9,123.4h7v7h-7V123.4z M522.7,123.4h7v7h-7V123.4z M530,123.4h7v7h-7V123.4z M537.2,123.4h7v7h-7
		V123.4z M544.5,123.4h7v7h-7V123.4z M551.8,123.4h7v7h-7V123.4z M559,123.4h7v7h-7V123.4z M573.5,123.4h7v7h-7V123.4z M580.8,123.4
		h7v7h-7V123.4z M609.8,123.4h7v7h-7V123.4z M334,130.7h7v7h-7V130.7z M341.2,130.7h7v7h-7V130.7z M348.5,130.7h7v7h-7V130.7z
		 M355.7,130.7h7v7h-7V130.7z M363,130.7h7v7h-7V130.7z M370.3,130.7h7v7h-7V130.7z M377.5,130.7h7v7h-7V130.7z M384.8,130.7h7v7h-7
		V130.7z M392,130.7h7v7h-7V130.7z M399.3,130.7h7v7h-7V130.7z M421.1,130.7h7v7h-7V130.7z M428.3,130.7h7v7h-7V130.7z M435.6,130.7
		h7v7h-7V130.7z M442.9,130.7h7v7h-7V130.7z M450.1,130.7h7v7h-7V130.7z M457.4,130.7h7v7h-7V130.7z M464.6,130.7h7v7h-7V130.7z
		 M471.9,130.7h7v7h-7V130.7z M479.2,130.7h7v7h-7V130.7z M515.5,130.7h7v7h-7V130.7z M522.7,130.7h7v7h-7V130.7z M530,130.7h7v7h-7
		V130.7z M537.2,130.7h7v7h-7V130.7z M544.5,130.7h7v7h-7V130.7z M566.3,130.7h7v7h-7V130.7z M573.5,130.7h7v7h-7V130.7z
		 M580.8,130.7h7v7h-7V130.7z M588.1,130.7h7v7h-7V130.7z M609.8,130.7h7v7h-7V130.7z M326.7,137.9h7v7h-7V137.9z M334,137.9h7v7h-7
		V137.9z M341.2,137.9h7v7h-7V137.9z M348.5,137.9h7v7h-7V137.9z M355.7,137.9h7v7h-7V137.9z M363,137.9h7v7h-7V137.9z M370.3,137.9
		h7v7h-7V137.9z M377.5,137.9h7v7h-7V137.9z M384.8,137.9h7v7h-7V137.9z M392,137.9h7v7h-7V137.9z M399.3,137.9h7v7h-7V137.9z
		 M413.8,137.9h7v7h-7V137.9z M421.1,137.9h7v7h-7V137.9z M457.4,137.9h7v7h-7V137.9z M464.6,137.9h7v7h-7V137.9z M471.9,137.9h7v7
		h-7V137.9z M479.2,137.9h7v7h-7V137.9z M515.5,137.9h7v7h-7V137.9z M522.7,137.9h7v7h-7V137.9z M530,137.9h7v7h-7V137.9z
		 M537.2,137.9h7v7h-7V137.9z M544.5,137.9h7v7h-7V137.9z M573.5,137.9h7v7h-7V137.9z M580.8,137.9h7v7h-7V137.9z M588.1,137.9h7v7
		h-7V137.9z M617.1,137.9h7v7h-7V137.9z M326.7,145.2h7v7h-7V145.2z M334,145.2h7v7h-7V145.2z M341.2,145.2h7v7h-7V145.2z
		 M348.5,145.2h7v7h-7V145.2z M355.7,145.2h7v7h-7V145.2z M363,145.2h7v7h-7V145.2z M370.3,145.2h7v7h-7V145.2z M377.5,145.2h7v7h-7
		V145.2z M384.8,145.2h7v7h-7V145.2z M392,145.2h7v7h-7V145.2z M399.3,145.2h7v7h-7V145.2z M413.8,145.2h7v7h-7V145.2z M421.1,145.2
		h7v7h-7V145.2z M428.3,145.2h7v7h-7V145.2z M435.6,145.2h7v7h-7V145.2z M442.9,145.2h7v7h-7V145.2z M450.1,145.2h7v7h-7V145.2z
		 M457.4,145.2h7v7h-7V145.2z M464.6,145.2h7v7h-7V145.2z M471.9,145.2h7v7h-7V145.2z M479.2,145.2h7v7h-7V145.2z M515.5,145.2h7v7
		h-7V145.2z M551.8,145.2h7v7h-7V145.2z M573.5,145.2h7v7h-7V145.2z M580.8,145.2h7v7h-7V145.2z M588.1,145.2h7v7h-7V145.2z
		 M617.1,145.2h7v7h-7V145.2z M326.7,152.5h7v7h-7V152.5z M334,152.5h7v7h-7V152.5z M341.2,152.5h7v7h-7V152.5z M348.5,152.5h7v7h-7
		V152.5z M355.7,152.5h7v7h-7V152.5z M363,152.5h7v7h-7V152.5z M370.3,152.5h7v7h-7V152.5z M377.5,152.5h7v7h-7V152.5z M384.8,152.5
		h7v7h-7V152.5z M392,152.5h7v7h-7V152.5z M399.3,152.5h7v7h-7V152.5z M413.8,152.5h7v7h-7V152.5z M421.1,152.5h7v7h-7V152.5z
		 M428.3,152.5h7v7h-7V152.5z M435.6,152.5h7v7h-7V152.5z M442.9,152.5h7v7h-7V152.5z M450.1,152.5h7v7h-7V152.5z M457.4,152.5h7v7
		h-7V152.5z M464.6,152.5h7v7h-7V152.5z M471.9,152.5h7v7h-7V152.5z M479.2,152.5h7v7h-7V152.5z M515.5,152.5h7v7h-7V152.5z
		 M522.7,152.5h7v7h-7V152.5z M530,152.5h7v7h-7V152.5z M537.2,152.5h7v7h-7V152.5z M551.8,152.5h7v7h-7V152.5z M559,152.5h7v7h-7
		V152.5z M573.5,152.5h7v7h-7V152.5z M580.8,152.5h7v7h-7V152.5z M588.1,152.5h7v7h-7V152.5z M595.3,152.5h7v7h-7V152.5z
		 M617.1,152.5h7v7h-7V152.5z M319.4,159.7h7v7h-7V159.7z M326.7,159.7h7v7h-7V159.7z M334,159.7h7v7h-7V159.7z M341.2,159.7h7v7h-7
		V159.7z M348.5,159.7h7v7h-7V159.7z M355.7,159.7h7v7h-7V159.7z M363,159.7h7v7h-7V159.7z M370.3,159.7h7v7h-7V159.7z M377.5,159.7
		h7v7h-7V159.7z M384.8,159.7h7v7h-7V159.7z M392,159.7h7v7h-7V159.7z M399.3,159.7h7v7h-7V159.7z M413.8,159.7h7v7h-7V159.7z
		 M421.1,159.7h7v7h-7V159.7z M428.3,159.7h7v7h-7V159.7z M435.6,159.7h7v7h-7V159.7z M442.9,159.7h7v7h-7V159.7z M450.1,159.7h7v7
		h-7V159.7z M457.4,159.7h7v7h-7V159.7z M464.6,159.7h7v7h-7V159.7z M471.9,159.7h7v7h-7V159.7z M479.2,159.7h7v7h-7V159.7z
		 M515.5,159.7h7v7h-7V159.7z M522.7,159.7h7v7h-7V159.7z M530,159.7h7v7h-7V159.7z M537.2,159.7h7v7h-7V159.7z M544.5,159.7h7v7h-7
		V159.7z M544.5,152.5h7v7h-7V152.5z M551.8,159.7h7v7h-7V159.7z M559,159.7h7v7h-7V159.7z M573.5,159.7h7v7h-7V159.7z M580.8,159.7
		h7v7h-7V159.7z M588.1,159.7h7v7h-7V159.7z M595.3,159.7h7v7h-7V159.7z M624.4,159.7h7v7h-7V159.7z M312.2,167h7v7h-7V167z
		 M319.4,167h7v7h-7V167z M326.7,167h7v7h-7V167z M334,167h7v7h-7V167z M341.2,167h7v7h-7V167z M348.5,167h7v7h-7V167z M355.7,167h7
		v7h-7V167z M363,167h7v7h-7V167z M370.3,167h7v7h-7V167z M377.5,167h7v7h-7V167z M384.8,167h7v7h-7V167z M392,167h7v7h-7V167z
		 M399.3,167h7v7h-7V167z M421.1,167h7v7h-7V167z M428.3,167h7v7h-7V167z M435.6,167h7v7h-7V167z M442.9,167h7v7h-7V167z M464.6,167
		h7v7h-7V167z M471.9,167h7v7h-7V167z M479.2,167h7v7h-7V167z M522.7,167h7v7h-7V167z M530,167h7v7h-7V167z M537.2,167h7v7h-7V167z
		 M544.5,167h7v7h-7V167z M551.8,167h7v7h-7V167z M559,167h7v7h-7V167z M573.5,167h7v7h-7V167z M588.1,167h7v7h-7V167z M595.3,167h7
		v7h-7V167z M624.4,167h7v7h-7V167z M312.2,174.2h7v7h-7V174.2z M319.4,174.2h7v7h-7V174.2z M326.7,174.2h7v7h-7V174.2z M334,174.2
		h7v7h-7V174.2z M341.2,174.2h7v7h-7V174.2z M348.5,174.2h7v7h-7V174.2z M355.7,174.2h7v7h-7V174.2z M363,174.2h7v7h-7V174.2z
		 M370.3,174.2h7v7h-7V174.2z M377.5,174.2h7v7h-7V174.2z M384.8,174.2h7v7h-7V174.2z M392,174.2h7v7h-7V174.2z M399.3,174.2h7v7h-7
		V174.2z M464.6,174.2h7v7h-7V174.2z M471.9,174.2h7v7h-7V174.2z M479.2,174.2h7v7h-7V174.2z M566.3,174.2h7v7h-7V174.2z
		 M573.5,174.2h7v7h-7V174.2z M588.1,174.2h7v7h-7V174.2z M595.3,174.2h7v7h-7V174.2z M624.4,174.2h7v7h-7V174.2z M304.9,181.5h7v7
		h-7V181.5z M312.2,181.5h7v7h-7V181.5z M319.4,181.5h7v7h-7V181.5z M326.7,181.5h7v7h-7V181.5z M334,181.5h7v7h-7V181.5z
		 M341.2,181.5h7v7h-7V181.5z M348.5,181.5h7v7h-7V181.5z M355.7,181.5h7v7h-7V181.5z M363,181.5h7v7h-7V181.5z M370.3,181.5h7v7h-7
		V181.5z M377.5,181.5h7v7h-7V181.5z M384.8,181.5h7v7h-7V181.5z M392,181.5h7v7h-7V181.5z M464.6,181.5h7v7h-7V181.5z M471.9,181.5
		h7v7h-7V181.5z M479.2,181.5h7v7h-7V181.5z M566.3,181.5h7v7h-7V181.5z M573.5,181.5h7v7h-7V181.5z M588.1,181.5h7v7h-7V181.5z
		 M595.3,181.5h7v7h-7V181.5z M624.4,181.5h7v7h-7V181.5z M304.9,188.8h7v7h-7V188.8z M312.2,188.8h7v7h-7V188.8z M319.4,188.8h7v7
		h-7V188.8z M326.7,188.8h7v7h-7V188.8z M334,188.8h7v7h-7V188.8z M341.2,188.8h7v7h-7V188.8z M348.5,188.8h7v7h-7V188.8z
		 M355.7,188.8h7v7h-7V188.8z M363,188.8h7v7h-7V188.8z M370.3,188.8h7v7h-7V188.8z M377.5,188.8h7v7h-7V188.8z M384.8,188.8h7v7h-7
		V188.8z M392,188.8h7v7h-7V188.8z M464.6,188.8h7v7h-7V188.8z M471.9,188.8h7v7h-7V188.8z M479.2,188.8h7v7h-7V188.8z M559,188.8h7
		v7h-7V188.8z M573.5,188.8h7v7h-7V188.8z M595.3,188.8h7v7h-7V188.8z M602.6,188.8h7v7h-7V188.8z M624.4,188.8h7v7h-7V188.8z
		 M297.7,196h7v7h-7V196z M304.9,196h7v7h-7V196z M312.2,196h7v7h-7V196z M319.4,196h7v7h-7V196z M326.7,196h7v7h-7V196z M334,196h7
		v7h-7V196z M341.2,196h7v7h-7V196z M348.5,196h7v7h-7V196z M355.7,196h7v7h-7V196z M377.5,196h7v7h-7V196z M384.8,196h7v7h-7V196z
		 M392,196h7v7h-7V196z M464.6,196h7v7h-7V196z M471.9,196h7v7h-7V196z M479.2,196h7v7h-7V196z M559,196h7v7h-7V196z M573.5,196h7v7
		h-7V196z M580.8,196h7v7h-7V196z M602.6,196h7v7h-7V196z M631.6,196h7v7h-7V196z M290.4,203.3h7v7h-7V203.3z M297.7,203.3h7v7h-7
		V203.3z M304.9,203.3h7v7h-7V203.3z M312.2,203.3h7v7h-7V203.3z M319.4,203.3h7v7h-7V203.3z M326.7,203.3h7v7h-7V203.3z M334,203.3
		h7v7h-7V203.3z M341.2,203.3h7v7h-7V203.3z M348.5,203.3h7v7h-7V203.3z M355.7,203.3h7v7h-7V203.3z M377.5,203.3h7v7h-7V203.3z
		 M384.8,203.3h7v7h-7V203.3z M392,203.3h7v7h-7V203.3z M457.4,203.3h7v7h-7V203.3z M464.6,203.3h7v7h-7V203.3z M471.9,203.3h7v7h-7
		V203.3z M479.2,203.3h7v7h-7V203.3z M486.4,203.3h7v7h-7V203.3z M559,203.3h7v7h-7V203.3z M580.8,203.3h7v7h-7V203.3z M602.6,203.3
		h7v7h-7V203.3z M609.8,203.3h7v7h-7V203.3z M631.6,203.3h7v7h-7V203.3z M290.4,210.5h7v7h-7V210.5z M297.7,210.5h7v7h-7V210.5z
		 M304.9,210.5h7v7h-7V210.5z M312.2,210.5h7v7h-7V210.5z M319.4,210.5h7v7h-7V210.5z M326.7,210.5h7v7h-7V210.5z M334,210.5h7v7h-7
		V210.5z M341.2,210.5h7v7h-7V210.5z M348.5,210.5h7v7h-7V210.5z M355.7,210.5h7v7h-7V210.5z M377.5,210.5h7v7h-7V210.5z
		 M384.8,210.5h7v7h-7V210.5z M392,210.5h7v7h-7V210.5z M457.4,210.5h7v7h-7V210.5z M464.6,210.5h7v7h-7V210.5z M471.9,210.5h7v7h-7
		V210.5z M479.2,210.5h7v7h-7V210.5z M486.4,210.5h7v7h-7V210.5z M493.7,210.5h7v7h-7V210.5z M559,210.5h7v7h-7V210.5z M566.3,210.5
		h7v7h-7V210.5z M588.1,210.5h7v7h-7V210.5z M609.8,210.5h7v7h-7V210.5z M631.6,210.5h7v7h-7V210.5z M283.1,217.8h7v7h-7V217.8z
		 M290.4,217.8h7v7h-7V217.8z M297.7,217.8h7v7h-7V217.8z M304.9,217.8h7v7h-7V217.8z M312.2,217.8h7v7h-7V217.8z M319.4,217.8h7v7
		h-7V217.8z M326.7,217.8h7v7h-7V217.8z M334,217.8h7v7h-7V217.8z M341.2,217.8h7v7h-7V217.8z M348.5,217.8h7v7h-7V217.8z
		 M355.7,217.8h7v7h-7V217.8z M377.5,217.8h7v7h-7V217.8z M384.8,217.8h7v7h-7V217.8z M399.3,210.4h7v7h-7V210.4z M399.3,217.7h7v7
		h-7V217.7z M457.4,217.8h7v7h-7V217.8z M464.6,217.8h7v7h-7V217.8z M471.9,217.8h7v7h-7V217.8z M479.2,217.8h7v7h-7V217.8z
		 M486.4,217.8h7v7h-7V217.8z M493.7,217.8h7v7h-7V217.8z M500.9,217.8h7v7h-7V217.8z M551.8,217.8h7v7h-7V217.8z M559,217.8h7v7h-7
		V217.8z M566.3,217.8h7v7h-7V217.8z M609.8,217.8h7v7h-7V217.8z M631.6,217.8h7v7h-7V217.8z M283.1,225.1h7v7h-7V225.1z
		 M290.4,225.1h7v7h-7V225.1z M297.7,225.1h7v7h-7V225.1z M304.9,225.1h7v7h-7V225.1z M312.2,225.1h7v7h-7V225.1z M319.4,225.1h7v7
		h-7V225.1z M326.7,225.1h7v7h-7V225.1z M334,225.1h7v7h-7V225.1z M341.2,225.1h7v7h-7V225.1z M348.5,225.1h7v7h-7V225.1z
		 M355.7,225.1h7v7h-7V225.1z M377.5,225.1h7v7h-7V225.1z M384.8,225.1h7v7h-7V225.1z M406.6,225.1h7v7h-7V225.1z M464.6,225.1h7v7
		h-7V225.1z M471.9,225.1h7v7h-7V225.1z M551.8,225.1h7v7h-7V225.1z M559,225.1h7v7h-7V225.1z M566.3,225.1h7v7h-7V225.1z
		 M573.5,225.1h7v7h-7V225.1z M609.8,225.1h7v7h-7V225.1z M631.6,225.1h7v7h-7V225.1z M275.9,232.3h7v7h-7V232.3z M283.1,232.3h7v7
		h-7V232.3z M290.4,232.3h7v7h-7V232.3z M297.7,232.3h7v7h-7V232.3z M304.9,232.3h7v7h-7V232.3z M312.2,232.3h7v7h-7V232.3z
		 M319.4,232.3h7v7h-7V232.3z M326.7,232.3h7v7h-7V232.3z M334,232.3h7v7h-7V232.3z M341.2,232.3h7v7h-7V232.3z M348.5,232.3h7v7h-7
		V232.3z M355.7,232.3h7v7h-7V232.3z M377.5,232.3h7v7h-7V232.3z M384.8,232.3h7v7h-7V232.3z M406.6,232.3h7v7h-7V232.3z
		 M551.8,232.3h7v7h-7V232.3z M559,232.3h7v7h-7V232.3z M566.3,232.3h7v7h-7V232.3z M573.5,232.3h7v7h-7V232.3z M609.8,232.3h7v7h-7
		V232.3z M617.1,232.3h7v7h-7V232.3z M638.9,232.3h7v7h-7V232.3z M275.9,239.6h7v7h-7V239.6z M283.1,239.6h7v7h-7V239.6z
		 M290.4,239.6h7v7h-7V239.6z M297.7,239.6h7v7h-7V239.6z M304.9,239.6h7v7h-7V239.6z M312.2,239.6h7v7h-7V239.6z M319.4,239.6h7v7
		h-7V239.6z M326.7,239.6h7v7h-7V239.6z M334,239.6h7v7h-7V239.6z M341.2,239.6h7v7h-7V239.6z M348.5,239.6h7v7h-7V239.6z
		 M355.7,239.6h7v7h-7V239.6z M406.6,239.6h7v7h-7V239.6z M413.8,239.6h7v7h-7V239.6z M457.4,239.6h7v7h-7V239.6z M464.6,239.6h7v7
		h-7V239.6z M471.9,239.6h7v7h-7V239.6z M479.2,239.6h7v7h-7V239.6z M486.4,239.6h7v7h-7V239.6z M493.7,239.6h7v7h-7V239.6z
		 M500.9,239.6h7v7h-7V239.6z M551.8,239.6h7v7h-7V239.6z M559,239.6h7v7h-7V239.6z M566.3,239.6h7v7h-7V239.6z M573.5,239.6h7v7h-7
		V239.6z M609.8,239.6h7v7h-7V239.6z M617.1,239.6h7v7h-7V239.6z M638.9,239.6h7v7h-7V239.6z M268.6,246.8h7v7h-7V246.8z
		 M275.9,246.8h7v7h-7V246.8z M283.1,246.8h7v7h-7V246.8z M290.4,246.8h7v7h-7V246.8z M297.7,246.8h7v7h-7V246.8z M304.9,246.8h7v7
		h-7V246.8z M312.2,246.8h7v7h-7V246.8z M319.4,246.8h7v7h-7V246.8z M326.7,246.8h7v7h-7V246.8z M334,246.8h7v7h-7V246.8z
		 M341.2,246.8h7v7h-7V246.8z M348.5,246.8h7v7h-7V246.8z M355.7,246.8h7v7h-7V246.8z M406.6,246.8h7v7h-7V246.8z M413.8,246.8h7v7
		h-7V246.8z M442.9,246.8h7v7h-7V246.8z M450.1,246.8h7v7h-7V246.8z M457.4,246.8h7v7h-7V246.8z M464.6,246.8h7v7h-7V246.8z
		 M471.9,246.8h7v7h-7V246.8z M479.2,246.8h7v7h-7V246.8z M486.4,246.8h7v7h-7V246.8z M493.7,246.8h7v7h-7V246.8z M500.9,246.8h7v7
		h-7V246.8z M508.2,246.8h7v7h-7V246.8z M551.8,246.8h7v7h-7V246.8z M559,246.8h7v7h-7V246.8z M566.3,246.8h7v7h-7V246.8z
		 M573.5,246.8h7v7h-7V246.8z M609.8,246.8h7v7h-7V246.8z M617.1,246.8h7v7h-7V246.8z M638.9,246.8h7v7h-7V246.8z M268.6,254.1h7v7
		h-7V254.1z M275.9,254.1h7v7h-7V254.1z M283.1,254.1h7v7h-7V254.1z M290.4,254.1h7v7h-7V254.1z M297.7,254.1h7v7h-7V254.1z
		 M304.9,254.1h7v7h-7V254.1z M312.2,254.1h7v7h-7V254.1z M319.4,254.1h7v7h-7V254.1z M326.7,254.1h7v7h-7V254.1z M334,254.1h7v7h-7
		V254.1z M341.2,254.1h7v7h-7V254.1z M348.5,254.1h7v7h-7V254.1z M355.7,254.1h7v7h-7V254.1z M406.6,254.1h7v7h-7V254.1z
		 M413.8,254.1h7v7h-7V254.1z M442.9,254.1h7v7h-7V254.1z M450.1,254.1h7v7h-7V254.1z M457.4,254.1h7v7h-7V254.1z M464.6,254.1h7v7
		h-7V254.1z M493.7,254.1h7v7h-7V254.1z M500.9,254.1h7v7h-7V254.1z M508.2,254.1h7v7h-7V254.1z M515.5,254.1h7v7h-7V254.1z
		 M544.5,254.1h7v7h-7V254.1z M551.8,254.1h7v7h-7V254.1z M559,254.1h7v7h-7V254.1z M566.3,254.1h7v7h-7V254.1z M602.6,254.1h7v7h-7
		V254.1z M609.8,254.1h7v7h-7V254.1z M617.1,254.1h7v7h-7V254.1z M638.9,254.1h7v7h-7V254.1z M268.6,261.4h7v7h-7V261.4z
		 M275.9,261.4h7v7h-7V261.4z M283.1,261.4h7v7h-7V261.4z M290.4,261.4h7v7h-7V261.4z M297.7,261.4h7v7h-7V261.4z M304.9,261.4h7v7
		h-7V261.4z M312.2,261.4h7v7h-7V261.4z M319.4,261.4h7v7h-7V261.4z M326.7,261.4h7v7h-7V261.4z M334,261.4h7v7h-7V261.4z
		 M341.2,261.4h7v7h-7V261.4z M348.5,261.4h7v7h-7V261.4z M355.7,261.4h7v7h-7V261.4z M406.6,261.4h7v7h-7V261.4z M413.8,261.4h7v7
		h-7V261.4z M421.1,261.4h7v7h-7V261.4z M450.1,261.4h7v7h-7V261.4z M457.4,261.4h7v7h-7V261.4z M464.6,261.4h7v7h-7V261.4z
		 M471.9,261.4h7v7h-7V261.4z M479.2,261.4h7v7h-7V261.4z M486.4,261.4h7v7h-7V261.4z M471.9,254.1h7v7h-7V254.1z M479.2,254.1h7v7
		h-7V254.1z M486.4,254.1h7v7h-7V254.1z M493.7,261.4h7v7h-7V261.4z M493.7,268.6h7v7h-7V268.6z M500.9,261.4h7v7h-7V261.4z
		 M508.2,261.4h7v7h-7V261.4z M515.5,261.4h7v7h-7V261.4z M544.5,261.4h7v7h-7V261.4z M551.8,261.4h7v7h-7V261.4z M559,261.4h7v7h-7
		V261.4z M566.3,261.4h7v7h-7V261.4z M602.6,261.4h7v7h-7V261.4z M609.8,261.4h7v7h-7V261.4z M617.1,261.4h7v7h-7V261.4z
		 M638.9,261.4h7v7h-7V261.4z M261.4,268.6h7v7h-7V268.6z M268.6,268.6h7v7h-7V268.6z M275.9,268.6h7v7h-7V268.6z M283.1,268.6h7v7
		h-7V268.6z M290.4,268.6h7v7h-7V268.6z M297.7,268.6h7v7h-7V268.6z M304.9,268.6h7v7h-7V268.6z M312.2,268.6h7v7h-7V268.6z
		 M319.4,268.6h7v7h-7V268.6z M326.7,268.6h7v7h-7V268.6z M334,268.6h7v7h-7V268.6z M341.2,268.6h7v7h-7V268.6z M348.5,268.6h7v7h-7
		V268.6z M355.7,268.6h7v7h-7V268.6z M406.6,268.6h7v7h-7V268.6z M413.8,268.6h7v7h-7V268.6z M421.1,268.6h7v7h-7V268.6z
		 M428.3,268.6h7v7h-7V268.6z M450.1,268.6h7v7h-7V268.6z M457.4,268.6h7v7h-7V268.6z M464.6,268.6h7v7h-7V268.6z M500.9,268.6h7v7
		h-7V268.6z M537.2,268.6h7v7h-7V268.6z M544.5,268.6h7v7h-7V268.6z M551.8,268.6h7v7h-7V268.6z M559,268.6h7v7h-7V268.6z
		 M595.3,268.6h7v7h-7V268.6z M602.6,268.6h7v7h-7V268.6z M609.8,268.6h7v7h-7V268.6z M617.1,268.6h7v7h-7V268.6z M646.1,268.6h7v7
		h-7V268.6z M254.1,275.9h7v7h-7V275.9z M261.4,275.9h7v7h-7V275.9z M268.6,275.9h7v7h-7V275.9z M275.9,275.9h7v7h-7V275.9z
		 M283.1,275.9h7v7h-7V275.9z M290.4,275.9h7v7h-7V275.9z M297.7,275.9h7v7h-7V275.9z M304.9,275.9h7v7h-7V275.9z M312.2,275.9h7v7
		h-7V275.9z M319.4,275.9h7v7h-7V275.9z M326.7,275.9h7v7h-7V275.9z M334,275.9h7v7h-7V275.9z M341.2,275.9h7v7h-7V275.9z
		 M348.5,275.9h7v7h-7V275.9z M355.7,275.9h7v7h-7V275.9z M406.6,275.9h7v7h-7V275.9z M413.8,275.9h7v7h-7V275.9z M421.1,275.9h7v7
		h-7V275.9z M428.3,275.9h7v7h-7V275.9z M457.4,275.9h7v7h-7V275.9z M464.6,275.9h7v7h-7V275.9z M471.9,275.9h7v7h-7V275.9z
		 M479.2,275.9h7v7h-7V275.9z M486.4,275.9h7v7h-7V275.9z M471.9,268.6h7v7h-7V268.6z M479.2,268.6h7v7h-7V268.6z M486.4,268.6h7v7
		h-7V268.6z M493.7,275.9h7v7h-7V275.9z M530,275.9h7v7h-7V275.9z M537.2,275.9h7v7h-7V275.9z M544.5,275.9h7v7h-7V275.9z
		 M551.8,275.9h7v7h-7V275.9z M595.3,275.9h7v7h-7V275.9z M602.6,275.9h7v7h-7V275.9z M609.8,275.9h7v7h-7V275.9z M617.1,275.9h7v7
		h-7V275.9z M646.1,275.9h7v7h-7V275.9z M254.1,283.1h7v7h-7V283.1z M261.4,283.1h7v7h-7V283.1z M239.5,283.1h7v7h-7V283.1z
		 M246.7,283.1h7v7h-7V283.1z M268.6,283.1h7v7h-7V283.1z M275.9,283.1h7v7h-7V283.1z M283.1,283.1h7v7h-7V283.1z M290.4,283.1h7v7
		h-7V283.1z M297.7,283.1h7v7h-7V283.1z M304.9,283.1h7v7h-7V283.1z M312.2,283.1h7v7h-7V283.1z M319.4,283.1h7v7h-7V283.1z
		 M326.7,283.1h7v7h-7V283.1z M334,283.1h7v7h-7V283.1z M341.2,283.1h7v7h-7V283.1z M348.5,283.1h7v7h-7V283.1z M355.7,283.1h7v7h-7
		V283.1z M406.6,283.1h7v7h-7V283.1z M413.8,283.1h7v7h-7V283.1z M421.1,283.1h7v7h-7V283.1z M428.3,283.1h7v7h-7V283.1z
		 M435.6,283.1h7v7h-7V283.1z M522.7,283.1h7v7h-7V283.1z M530,283.1h7v7h-7V283.1z M537.2,283.1h7v7h-7V283.1z M544.5,283.1h7v7h-7
		V283.1z M595.3,283.1h7v7h-7V283.1z M602.6,283.1h7v7h-7V283.1z M609.8,283.1h7v7h-7V283.1z M617.1,283.1h7v7h-7V283.1z
		 M646.1,283.1h7v7h-7V283.1z M225.1,290.4h7v7h-7V290.4z M232.3,290.4h7v7h-7V290.4z M283.1,290.4h7v7h-7V290.4z M290.4,290.4h7v7
		h-7V290.4z M297.7,290.4h7v7h-7V290.4z M304.9,290.4h7v7h-7V290.4z M312.2,290.4h7v7h-7V290.4z M319.4,290.4h7v7h-7V290.4z
		 M326.7,290.4h7v7h-7V290.4z M334,290.4h7v7h-7V290.4z M341.2,290.4h7v7h-7V290.4z M348.5,290.4h7v7h-7V290.4z M355.7,290.4h7v7h-7
		V290.4z M406.6,290.4h7v7h-7V290.4z M413.8,290.4h7v7h-7V290.4z M421.1,290.4h7v7h-7V290.4z M428.3,290.4h7v7h-7V290.4z
		 M435.6,290.4h7v7h-7V290.4z M515.5,290.4h7v7h-7V290.4z M522.7,290.4h7v7h-7V290.4z M530,290.4h7v7h-7V290.4z M588.1,290.4h7v7h-7
		V290.4z M595.3,290.4h7v7h-7V290.4z M602.6,290.4h7v7h-7V290.4z M609.8,290.4h7v7h-7V290.4z M617.1,290.4h7v7h-7V290.4z
		 M646.1,290.4h7v7h-7V290.4z M217.8,297.7h7v7h-7V297.7z M290.4,297.7h7v7h-7V297.7z M297.7,297.7h7v7h-7V297.7z M304.9,297.7h7v7
		h-7V297.7z M312.2,297.7h7v7h-7V297.7z M319.4,297.7h7v7h-7V297.7z M326.7,297.7h7v7h-7V297.7z M334,297.7h7v7h-7V297.7z
		 M341.2,297.7h7v7h-7V297.7z M348.5,297.7h7v7h-7V297.7z M355.7,297.7h7v7h-7V297.7z M399.3,297.7h7v7h-7V297.7z M406.6,297.7h7v7
		h-7V297.7z M413.8,297.7h7v7h-7V297.7z M421.1,297.7h7v7h-7V297.7z M428.3,297.7h7v7h-7V297.7z M435.6,297.7h7v7h-7V297.7z
		 M442.9,297.7h7v7h-7V297.7z M508.2,297.7h7v7h-7V297.7z M515.5,297.7h7v7h-7V297.7z M522.7,297.7h7v7h-7V297.7z M580.8,297.7h7v7
		h-7V297.7z M588.1,297.7h7v7h-7V297.7z M595.3,297.7h7v7h-7V297.7z M602.6,297.7h7v7h-7V297.7z M609.8,297.7h7v7h-7V297.7z
		 M617.1,297.7h7v7h-7V297.7z M646.1,297.7h7v7h-7V297.7z M297.7,304.9h7v7h-7V304.9z M304.9,304.9h7v7h-7V304.9z M312.2,304.9h7v7
		h-7V304.9z M319.4,304.9h7v7h-7V304.9z M326.7,304.9h7v7h-7V304.9z M334,304.9h7v7h-7V304.9z M341.2,304.9h7v7h-7V304.9z
		 M348.5,304.9h7v7h-7V304.9z M355.7,304.9h7v7h-7V304.9z M399.3,304.9h7v7h-7V304.9z M406.6,304.9h7v7h-7V304.9z M413.8,304.9h7v7
		h-7V304.9z M421.1,304.9h7v7h-7V304.9z M428.3,304.9h7v7h-7V304.9z M435.6,304.9h7v7h-7V304.9z M442.9,304.9h7v7h-7V304.9z
		 M450.1,304.9h7v7h-7V304.9z M457.4,304.9h7v7h-7V304.9z M500.9,304.9h7v7h-7V304.9z M508.2,304.9h7v7h-7V304.9z M573.5,304.9h7v7
		h-7V304.9z M580.8,304.9h7v7h-7V304.9z M588.1,304.9h7v7h-7V304.9z M595.3,304.9h7v7h-7V304.9z M602.6,304.9h7v7h-7V304.9z
		 M609.8,304.9h7v7h-7V304.9z M617.1,304.9h7v7h-7V304.9z M646.1,304.9h7v7h-7V304.9z M304.9,312.2h7v7h-7V312.2z M312.2,312.2h7v7
		h-7V312.2z M319.4,312.2h7v7h-7V312.2z M326.7,312.2h7v7h-7V312.2z M334,312.2h7v7h-7V312.2z M341.2,312.2h7v7h-7V312.2z
		 M348.5,312.2h7v7h-7V312.2z M355.7,312.2h7v7h-7V312.2z M399.3,312.2h7v7h-7V312.2z M406.6,312.2h7v7h-7V312.2z M413.8,312.2h7v7
		h-7V312.2z M421.1,312.2h7v7h-7V312.2z M428.3,312.2h7v7h-7V312.2z M435.6,312.2h7v7h-7V312.2z M442.9,312.2h7v7h-7V312.2z
		 M450.1,312.2h7v7h-7V312.2z M457.4,312.2h7v7h-7V312.2z M464.6,312.2h7v7h-7V312.2z M471.9,312.2h7v7h-7V312.2z M479.2,312.2h7v7
		h-7V312.2z M486.4,312.2h7v7h-7V312.2z M493.7,312.2h7v7h-7V312.2z M566.3,312.2h7v7h-7V312.2z M573.5,312.2h7v7h-7V312.2z
		 M580.8,312.2h7v7h-7V312.2z M588.1,312.2h7v7h-7V312.2z M595.3,312.2h7v7h-7V312.2z M602.6,312.2h7v7h-7V312.2z M609.8,312.2h7v7
		h-7V312.2z M617.1,312.2h7v7h-7V312.2z M646.1,312.2h7v7h-7V312.2z M312.2,319.4h7v7h-7V319.4z M319.4,319.4h7v7h-7V319.4z
		 M326.7,319.4h7v7h-7V319.4z M334,319.4h7v7h-7V319.4z M341.2,319.4h7v7h-7V319.4z M348.5,319.4h7v7h-7V319.4z M355.7,319.4h7v7h-7
		V319.4z M399.3,319.4h7v7h-7V319.4z M406.6,319.4h7v7h-7V319.4z M413.8,319.4h7v7h-7V319.4z M421.1,319.4h7v7h-7V319.4z
		 M428.3,319.4h7v7h-7V319.4z M435.6,319.4h7v7h-7V319.4z M442.9,319.4h7v7h-7V319.4z M450.1,319.4h7v7h-7V319.4z M457.4,319.4h7v7
		h-7V319.4z M464.6,319.4h7v7h-7V319.4z M471.9,319.4h7v7h-7V319.4z M479.2,319.4h7v7h-7V319.4z M486.4,319.4h7v7h-7V319.4z
		 M559,319.4h7v7h-7V319.4z M566.3,319.4h7v7h-7V319.4z M573.5,319.4h7v7h-7V319.4z M580.8,319.4h7v7h-7V319.4z M588.1,319.4h7v7h-7
		V319.4z M595.3,319.4h7v7h-7V319.4z M602.6,319.4h7v7h-7V319.4z M609.8,319.4h7v7h-7V319.4z M617.1,319.4h7v7h-7V319.4z
		 M646.1,319.4h7v7h-7V319.4z M312.2,326.7h7v7h-7V326.7z M319.4,326.7h7v7h-7V326.7z M326.7,326.7h7v7h-7V326.7z M334,326.7h7v7h-7
		V326.7z M341.2,326.7h7v7h-7V326.7z M348.5,326.7h7v7h-7V326.7z M355.7,326.7h7v7h-7V326.7z M399.3,326.7h7v7h-7V326.7z
		 M406.6,326.7h7v7h-7V326.7z M413.8,326.7h7v7h-7V326.7z M421.1,326.7h7v7h-7V326.7z M428.3,326.7h7v7h-7V326.7z M435.6,326.7h7v7
		h-7V326.7z M442.9,326.7h7v7h-7V326.7z M450.1,326.7h7v7h-7V326.7z M457.4,326.7h7v7h-7V326.7z M464.6,326.7h7v7h-7V326.7z
		 M471.9,326.7h7v7h-7V326.7z M479.2,326.7h7v7h-7V326.7z M486.4,326.7h7v7h-7V326.7z M544.5,326.7h7v7h-7V326.7z M551.8,326.7h7v7
		h-7V326.7z M559,326.7h7v7h-7V326.7z M566.3,326.7h7v7h-7V326.7z M573.5,326.7h7v7h-7V326.7z M580.8,326.7h7v7h-7V326.7z
		 M588.1,326.7h7v7h-7V326.7z M595.3,326.7h7v7h-7V326.7z M602.6,326.7h7v7h-7V326.7z M609.8,326.7h7v7h-7V326.7z M617.1,326.7h7v7
		h-7V326.7z M653.4,326.7h7v7h-7V326.7z M174.2,334h7v7h-7V334z M181.5,334h7v7h-7V334z M188.8,334h7v7h-7V334z M196,334h7v7h-7V334
		z M217.8,334h7v7h-7V334z M232.3,334h7v7h-7V334z M319.4,334h7v7h-7V334z M326.7,334h7v7h-7V334z M334,334h7v7h-7V334z M341.2,334
		h7v7h-7V334z M348.5,334h7v7h-7V334z M355.7,334h7v7h-7V334z M399.3,334h7v7h-7V334z M406.6,334h7v7h-7V334z M413.8,334h7v7h-7V334
		z M421.1,334h7v7h-7V334z M428.3,334h7v7h-7V334z M435.6,334h7v7h-7V334z M442.9,334h7v7h-7V334z M450.1,334h7v7h-7V334z
		 M457.4,334h7v7h-7V334z M464.6,334h7v7h-7V334z M471.9,334h7v7h-7V334z M479.2,334h7v7h-7V334z M486.4,334h7v7h-7V334z M544.5,334
		h7v7h-7V334z M551.8,334h7v7h-7V334z M559,334h7v7h-7V334z M566.3,334h7v7h-7V334z M573.5,334h7v7h-7V334z M580.8,334h7v7h-7V334z
		 M588.1,334h7v7h-7V334z M595.3,334h7v7h-7V334z M602.6,334h7v7h-7V334z M609.8,334h7v7h-7V334z M617.1,334h7v7h-7V334z M653.4,334
		h7v7h-7V334z M167,341.2h7v7h-7V341.2z M174.2,341.2h7v7h-7V341.2z M181.5,341.2h7v7h-7V341.2z M188.8,341.2h7v7h-7V341.2z
		 M196,341.2h7v7h-7V341.2z M203.3,341.2h7v7h-7V341.2z M188.6,319.4h7v7h-7V319.4z M181.4,326.7h7v7h-7V326.7z M203.2,304.9h7v7h-7
		V304.9z M210.4,297.7h7v7h-7V297.7z M195.9,312.2h7v7h-7V312.2z M210.5,341.2h7v7h-7V341.2z M225.1,341.2h7v7h-7V341.2z
		 M319.4,341.2h7v7h-7V341.2z M326.7,341.2h7v7h-7V341.2z M334,341.2h7v7h-7V341.2z M341.2,341.2h7v7h-7V341.2z M348.5,341.2h7v7h-7
		V341.2z M355.7,341.2h7v7h-7V341.2z M399.3,341.2h7v7h-7V341.2z M406.6,341.2h7v7h-7V341.2z M413.8,341.2h7v7h-7V341.2z
		 M421.1,341.2h7v7h-7V341.2z M428.3,341.2h7v7h-7V341.2z M435.6,341.2h7v7h-7V341.2z M442.9,341.2h7v7h-7V341.2z M450.1,341.2h7v7
		h-7V341.2z M457.4,341.2h7v7h-7V341.2z M464.6,341.2h7v7h-7V341.2z M471.9,341.2h7v7h-7V341.2z M479.2,341.2h7v7h-7V341.2z
		 M486.4,341.2h7v7h-7V341.2z M537.2,341.2h7v7h-7V341.2z M544.5,341.2h7v7h-7V341.2z M551.8,341.2h7v7h-7V341.2z M559,341.2h7v7h-7
		V341.2z M566.3,341.2h7v7h-7V341.2z M573.5,341.2h7v7h-7V341.2z M580.8,341.2h7v7h-7V341.2z M588.1,341.2h7v7h-7V341.2z
		 M595.3,341.2h7v7h-7V341.2z M602.6,341.2h7v7h-7V341.2z M609.8,341.2h7v7h-7V341.2z M617.1,341.2h7v7h-7V341.2z M653.4,341.2h7v7
		h-7V341.2z M159.7,348.5h7v7h-7V348.5z M167,348.5h7v7h-7V348.5z M174.2,348.5h7v7h-7V348.5z M181.5,348.5h7v7h-7V348.5z
		 M188.8,348.5h7v7h-7V348.5z M196,348.5h7v7h-7V348.5z M203.3,348.5h7v7h-7V348.5z M210.5,348.5h7v7h-7V348.5z M217.8,348.5h7v7h-7
		V348.5z M239.6,348.5h7v7h-7V348.5z M319.4,348.5h7v7h-7V348.5z M326.7,348.5h7v7h-7V348.5z M334,348.5h7v7h-7V348.5z M341.2,348.5
		h7v7h-7V348.5z M348.5,348.5h7v7h-7V348.5z M355.7,348.5h7v7h-7V348.5z M406.6,348.5h7v7h-7V348.5z M413.8,348.5h7v7h-7V348.5z
		 M421.1,348.5h7v7h-7V348.5z M428.3,348.5h7v7h-7V348.5z M435.6,348.5h7v7h-7V348.5z M442.9,348.5h7v7h-7V348.5z M450.1,348.5h7v7
		h-7V348.5z M457.4,348.5h7v7h-7V348.5z M464.6,348.5h7v7h-7V348.5z M471.9,348.5h7v7h-7V348.5z M479.2,348.5h7v7h-7V348.5z
		 M486.4,348.5h7v7h-7V348.5z M530,348.5h7v7h-7V348.5z M537.2,348.5h7v7h-7V348.5z M544.5,348.5h7v7h-7V348.5z M551.8,348.5h7v7h-7
		V348.5z M559,348.5h7v7h-7V348.5z M566.3,348.5h7v7h-7V348.5z M573.5,348.5h7v7h-7V348.5z M580.8,348.5h7v7h-7V348.5z M588.1,348.5
		h7v7h-7V348.5z M595.3,348.5h7v7h-7V348.5z M602.6,348.5h7v7h-7V348.5z M609.8,348.5h7v7h-7V348.5z M617.1,348.5h7v7h-7V348.5z
		 M653.4,348.5h7v7h-7V348.5z M152.5,355.7h7v7h-7V355.7z M159.7,355.7h7v7h-7V355.7z M167,355.7h7v7h-7V355.7z M174.2,355.7h7v7h-7
		V355.7z M181.5,355.7h7v7h-7V355.7z M188.8,355.7h7v7h-7V355.7z M196,355.7h7v7h-7V355.7z M210.5,355.7h7v7h-7V355.7z M225.1,355.7
		h7v7h-7V355.7z M319.4,355.7h7v7h-7V355.7z M326.7,355.7h7v7h-7V355.7z M334,355.7h7v7h-7V355.7z M341.2,355.7h7v7h-7V355.7z
		 M348.5,355.7h7v7h-7V355.7z M355.7,355.7h7v7h-7V355.7z M363,355.7h7v7h-7V355.7z M406.6,355.7h7v7h-7V355.7z M413.8,355.7h7v7h-7
		V355.7z M421.1,355.7h7v7h-7V355.7z M428.3,355.7h7v7h-7V355.7z M435.6,355.7h7v7h-7V355.7z M442.9,355.7h7v7h-7V355.7z
		 M450.1,355.7h7v7h-7V355.7z M457.4,355.7h7v7h-7V355.7z M464.6,355.7h7v7h-7V355.7z M471.9,355.7h7v7h-7V355.7z M479.2,355.7h7v7
		h-7V355.7z M486.4,355.7h7v7h-7V355.7z M530,355.7h7v7h-7V355.7z M537.2,355.7h7v7h-7V355.7z M544.5,355.7h7v7h-7V355.7z
		 M551.8,355.7h7v7h-7V355.7z M559,355.7h7v7h-7V355.7z M566.3,355.7h7v7h-7V355.7z M573.5,355.7h7v7h-7V355.7z M580.8,355.7h7v7h-7
		V355.7z M588.1,355.7h7v7h-7V355.7z M595.3,355.7h7v7h-7V355.7z M602.6,355.7h7v7h-7V355.7z M609.8,355.7h7v7h-7V355.7z
		 M617.1,355.7h7v7h-7V355.7z M653.4,355.7h7v7h-7V355.7z M145.2,363h7v7h-7V363z M152.5,363h7v7h-7V363z M159.7,363h7v7h-7V363z
		 M167,363h7v7h-7V363z M174.2,363h7v7h-7V363z M181.5,363h7v7h-7V363z M188.8,363h7v7h-7V363z M196,363h7v7h-7V363z M203.3,363h7v7
		h-7V363z M210.5,363h7v7h-7V363z M225.1,363h7v7h-7V363z M239.6,363h7v7h-7V363z M319.4,363h7v7h-7V363z M326.7,363h7v7h-7V363z
		 M334,363h7v7h-7V363z M341.2,363h7v7h-7V363z M348.5,363h7v7h-7V363z M355.7,363h7v7h-7V363z M363,363h7v7h-7V363z M399.3,363h7v7
		h-7V363z M406.6,363h7v7h-7V363z M413.8,363h7v7h-7V363z M421.1,363h7v7h-7V363z M428.3,363h7v7h-7V363z M435.6,363h7v7h-7V363z
		 M442.9,363h7v7h-7V363z M450.1,363h7v7h-7V363z M457.4,363h7v7h-7V363z M464.6,363h7v7h-7V363z M471.9,363h7v7h-7V363z M479.2,363
		h7v7h-7V363z M530,363h7v7h-7V363z M537.2,363h7v7h-7V363z M544.5,363h7v7h-7V363z M551.8,363h7v7h-7V363z M559,363h7v7h-7V363z
		 M566.3,363h7v7h-7V363z M573.5,363h7v7h-7V363z M580.8,363h7v7h-7V363z M588.1,363h7v7h-7V363z M595.3,363h7v7h-7V363z M602.6,363
		h7v7h-7V363z M609.8,363h7v7h-7V363z M653.4,363h7v7h-7V363z M137.9,370.3h7v7h-7V370.3z M145.2,370.3h7v7h-7V370.3z M152.5,370.3
		h7v7h-7V370.3z M159.7,370.3h7v7h-7V370.3z M167,370.3h7v7h-7V370.3z M174.2,370.3h7v7h-7V370.3z M181.5,370.3h7v7h-7V370.3z
		 M188.8,370.3h7v7h-7V370.3z M196,370.3h7v7h-7V370.3z M210.5,370.3h7v7h-7V370.3z M319.4,370.3h7v7h-7V370.3z M326.7,370.3h7v7h-7
		V370.3z M334,370.3h7v7h-7V370.3z M341.2,370.3h7v7h-7V370.3z M348.5,370.3h7v7h-7V370.3z M355.7,370.3h7v7h-7V370.3z M363,370.3h7
		v7h-7V370.3z M406.6,370.3h7v7h-7V370.3z M413.8,370.3h7v7h-7V370.3z M421.1,370.3h7v7h-7V370.3z M428.3,370.3h7v7h-7V370.3z
		 M435.6,370.3h7v7h-7V370.3z M442.9,370.3h7v7h-7V370.3z M450.1,370.3h7v7h-7V370.3z M457.4,370.3h7v7h-7V370.3z M464.6,370.3h7v7
		h-7V370.3z M471.9,370.3h7v7h-7V370.3z M479.2,370.3h7v7h-7V370.3z M530,370.3h7v7h-7V370.3z M537.2,370.3h7v7h-7V370.3z
		 M544.5,370.3h7v7h-7V370.3z M551.8,370.3h7v7h-7V370.3z M559,370.3h7v7h-7V370.3z M566.3,370.3h7v7h-7V370.3z M573.5,370.3h7v7h-7
		V370.3z M580.8,370.3h7v7h-7V370.3z M588.1,370.3h7v7h-7V370.3z M595.3,370.3h7v7h-7V370.3z M602.6,370.3h7v7h-7V370.3z
		 M609.8,370.3h7v7h-7V370.3z M653.4,370.3h7v7h-7V370.3z M130.7,377.5h7v7h-7V377.5z M137.9,377.5h7v7h-7V377.5z M145.2,377.5h7v7
		h-7V377.5z M152.5,377.5h7v7h-7V377.5z M159.7,377.5h7v7h-7V377.5z M167,377.5h7v7h-7V377.5z M174.2,377.5h7v7h-7V377.5z
		 M181.5,377.5h7v7h-7V377.5z M188.8,377.5h7v7h-7V377.5z M196,377.5h7v7h-7V377.5z M203.3,377.5h7v7h-7V377.5z M210.5,377.5h7v7h-7
		V377.5z M217.8,377.5h7v7h-7V377.5z M225.1,377.5h7v7h-7V377.5z M239.6,377.5h7v7h-7V377.5z M319.4,377.5h7v7h-7V377.5z
		 M326.7,377.5h7v7h-7V377.5z M334,377.5h7v7h-7V377.5z M341.2,377.5h7v7h-7V377.5z M348.5,377.5h7v7h-7V377.5z M355.7,377.5h7v7h-7
		V377.5z M363,377.5h7v7h-7V377.5z M399.3,377.5h7v7h-7V377.5z M406.6,377.5h7v7h-7V377.5z M413.8,377.5h7v7h-7V377.5z M421.1,377.5
		h7v7h-7V377.5z M428.3,377.5h7v7h-7V377.5z M435.6,377.5h7v7h-7V377.5z M442.9,377.5h7v7h-7V377.5z M450.1,377.5h7v7h-7V377.5z
		 M457.4,377.5h7v7h-7V377.5z M464.6,377.5h7v7h-7V377.5z M471.9,377.5h7v7h-7V377.5z M479.2,377.5h7v7h-7V377.5z M530,377.5h7v7h-7
		V377.5z M537.2,377.5h7v7h-7V377.5z M544.5,377.5h7v7h-7V377.5z M551.8,377.5h7v7h-7V377.5z M559,377.5h7v7h-7V377.5z M566.3,377.5
		h7v7h-7V377.5z M573.5,377.5h7v7h-7V377.5z M580.8,377.5h7v7h-7V377.5z M588.1,377.5h7v7h-7V377.5z M595.3,377.5h7v7h-7V377.5z
		 M602.6,377.5h7v7h-7V377.5z M609.8,377.5h7v7h-7V377.5z M653.4,377.5h7v7h-7V377.5z M123.4,384.8h7v7h-7V384.8z M130.7,384.8h7v7
		h-7V384.8z M137.9,384.8h7v7h-7V384.8z M145.2,384.8h7v7h-7V384.8z M152.5,384.8h7v7h-7V384.8z M159.7,384.8h7v7h-7V384.8z
		 M167,384.8h7v7h-7V384.8z M174.2,384.8h7v7h-7V384.8z M181.5,384.8h7v7h-7V384.8z M188.8,384.8h7v7h-7V384.8z M196,384.8h7v7h-7
		V384.8z M210.5,384.8h7v7h-7V384.8z M225.1,384.8h7v7h-7V384.8z M246.8,384.8h7v7h-7V384.8z M319.4,384.8h7v7h-7V384.8z
		 M326.7,384.8h7v7h-7V384.8z M334,384.8h7v7h-7V384.8z M341.2,384.8h7v7h-7V384.8z M348.5,384.8h7v7h-7V384.8z M355.7,384.8h7v7h-7
		V384.8z M363,384.8h7v7h-7V384.8z M399.3,384.8h7v7h-7V384.8z M406.6,384.8h7v7h-7V384.8z M413.8,384.8h7v7h-7V384.8z M421.1,384.8
		h7v7h-7V384.8z M428.3,384.8h7v7h-7V384.8z M435.6,384.8h7v7h-7V384.8z M442.9,384.8h7v7h-7V384.8z M450.1,384.8h7v7h-7V384.8z
		 M457.4,384.8h7v7h-7V384.8z M464.6,384.8h7v7h-7V384.8z M471.9,384.8h7v7h-7V384.8z M479.2,384.8h7v7h-7V384.8z M530,384.8h7v7h-7
		V384.8z M537.2,384.8h7v7h-7V384.8z M544.5,384.8h7v7h-7V384.8z M551.8,384.8h7v7h-7V384.8z M559,384.8h7v7h-7V384.8z M566.3,384.8
		h7v7h-7V384.8z M573.5,384.8h7v7h-7V384.8z M580.8,384.8h7v7h-7V384.8z M588.1,384.8h7v7h-7V384.8z M595.3,384.8h7v7h-7V384.8z
		 M602.6,384.8h7v7h-7V384.8z M609.8,384.8h7v7h-7V384.8z M653.4,384.8h7v7h-7V384.8z M116.2,392h7v7h-7V392z M123.4,392h7v7h-7V392
		z M130.7,392h7v7h-7V392z M137.9,392h7v7h-7V392z M145.2,392h7v7h-7V392z M152.5,392h7v7h-7V392z M159.7,392h7v7h-7V392z M167,392
		h7v7h-7V392z M174.2,392h7v7h-7V392z M181.5,392h7v7h-7V392z M188.8,392h7v7h-7V392z M196,392h7v7h-7V392z M203.3,392h7v7h-7V392z
		 M210.5,392h7v7h-7V392z M217.8,392h7v7h-7V392z M232.3,392h7v7h-7V392z M319.4,392h7v7h-7V392z M326.7,392h7v7h-7V392z M334,392h7
		v7h-7V392z M341.2,392h7v7h-7V392z M348.5,392h7v7h-7V392z M355.7,392h7v7h-7V392z M363,392h7v7h-7V392z M399.3,392h7v7h-7V392z
		 M406.6,392h7v7h-7V392z M413.8,392h7v7h-7V392z M421.1,392h7v7h-7V392z M428.3,392h7v7h-7V392z M435.6,392h7v7h-7V392z M442.9,392
		h7v7h-7V392z M450.1,392h7v7h-7V392z M457.4,392h7v7h-7V392z M464.6,392h7v7h-7V392z M471.9,392h7v7h-7V392z M530,392h7v7h-7V392z
		 M537.2,392h7v7h-7V392z M544.5,392h7v7h-7V392z M551.8,392h7v7h-7V392z M559,392h7v7h-7V392z M566.3,392h7v7h-7V392z M573.5,392h7
		v7h-7V392z M580.8,392h7v7h-7V392z M588.1,392h7v7h-7V392z M595.3,392h7v7h-7V392z M602.6,392h7v7h-7V392z M609.8,392h7v7h-7V392z
		 M653.4,392h7v7h-7V392z M116.2,399.3h7v7h-7V399.3z M123.4,399.3h7v7h-7V399.3z M130.7,399.3h7v7h-7V399.3z M137.9,399.3h7v7h-7
		V399.3z M145.2,399.3h7v7h-7V399.3z M152.5,399.3h7v7h-7V399.3z M159.7,399.3h7v7h-7V399.3z M167,399.3h7v7h-7V399.3z M174.2,399.3
		h7v7h-7V399.3z M181.5,399.3h7v7h-7V399.3z M196,399.3h7v7h-7V399.3z M210.5,399.3h7v7h-7V399.3z M225.1,399.3h7v7h-7V399.3z
		 M239.6,399.3h7v7h-7V399.3z M246.8,399.3h7v7h-7V399.3z M319.4,399.3h7v7h-7V399.3z M326.7,399.3h7v7h-7V399.3z M334,399.3h7v7h-7
		V399.3z M341.2,399.3h7v7h-7V399.3z M348.5,399.3h7v7h-7V399.3z M355.7,399.3h7v7h-7V399.3z M363,399.3h7v7h-7V399.3z M370.3,399.3
		h7v7h-7V399.3z M399.3,399.3h7v7h-7V399.3z M406.6,399.3h7v7h-7V399.3z M413.8,399.3h7v7h-7V399.3z M421.1,399.3h7v7h-7V399.3z
		 M428.3,399.3h7v7h-7V399.3z M435.6,399.3h7v7h-7V399.3z M442.9,399.3h7v7h-7V399.3z M450.1,399.3h7v7h-7V399.3z M457.4,399.3h7v7
		h-7V399.3z M464.6,399.3h7v7h-7V399.3z M471.9,399.3h7v7h-7V399.3z M530,399.3h7v7h-7V399.3z M537.2,399.3h7v7h-7V399.3z
		 M544.5,399.3h7v7h-7V399.3z M551.8,399.3h7v7h-7V399.3z M559,399.3h7v7h-7V399.3z M566.3,399.3h7v7h-7V399.3z M573.5,399.3h7v7h-7
		V399.3z M580.8,399.3h7v7h-7V399.3z M588.1,399.3h7v7h-7V399.3z M595.3,399.3h7v7h-7V399.3z M602.6,399.3h7v7h-7V399.3z
		 M653.4,399.3h7v7h-7V399.3z M108.9,406.6h7v7h-7V406.6z M116.2,406.6h7v7h-7V406.6z M123.4,406.6h7v7h-7V406.6z M130.7,406.6h7v7
		h-7V406.6z M137.9,406.6h7v7h-7V406.6z M145.2,406.6h7v7h-7V406.6z M152.5,406.6h7v7h-7V406.6z M159.7,406.6h7v7h-7V406.6z
		 M167,406.6h7v7h-7V406.6z M174.2,406.6h7v7h-7V406.6z M181.5,406.6h7v7h-7V406.6z M188.8,406.6h7v7h-7V406.6z M196,406.6h7v7h-7
		V406.6z M203.3,406.6h7v7h-7V406.6z M210.5,406.6h7v7h-7V406.6z M217.8,406.6h7v7h-7V406.6z M232.3,406.6h7v7h-7V406.6z
		 M312.2,406.6h7v7h-7V406.6z M319.4,406.6h7v7h-7V406.6z M326.7,406.6h7v7h-7V406.6z M334,406.6h7v7h-7V406.6z M341.2,406.6h7v7h-7
		V406.6z M348.5,406.6h7v7h-7V406.6z M355.7,406.6h7v7h-7V406.6z M363,406.6h7v7h-7V406.6z M370.3,406.6h7v7h-7V406.6z M399.3,406.6
		h7v7h-7V406.6z M406.6,406.6h7v7h-7V406.6z M413.8,406.6h7v7h-7V406.6z M421.1,406.6h7v7h-7V406.6z M428.3,406.6h7v7h-7V406.6z
		 M435.6,406.6h7v7h-7V406.6z M442.9,406.6h7v7h-7V406.6z M450.1,406.6h7v7h-7V406.6z M457.4,406.6h7v7h-7V406.6z M464.6,406.6h7v7
		h-7V406.6z M471.9,406.6h7v7h-7V406.6z M530,406.6h7v7h-7V406.6z M537.2,406.6h7v7h-7V406.6z M544.5,406.6h7v7h-7V406.6z
		 M551.8,406.6h7v7h-7V406.6z M559,406.6h7v7h-7V406.6z M566.3,406.6h7v7h-7V406.6z M573.5,406.6h7v7h-7V406.6z M580.8,406.6h7v7h-7
		V406.6z M588.1,406.6h7v7h-7V406.6z M595.3,406.6h7v7h-7V406.6z M602.6,406.6h7v7h-7V406.6z M653.4,406.6h7v7h-7V406.6z
		 M108.9,413.8h7v7h-7V413.8z M116.2,413.8h7v7h-7V413.8z M123.4,413.8h7v7h-7V413.8z M130.7,413.8h7v7h-7V413.8z M137.9,413.8h7v7
		h-7V413.8z M145.2,413.8h7v7h-7V413.8z M152.5,413.8h7v7h-7V413.8z M159.7,413.8h7v7h-7V413.8z M167,413.8h7v7h-7V413.8z
		 M181.5,413.8h7v7h-7V413.8z M196,413.8h7v7h-7V413.8z M210.5,413.8h7v7h-7V413.8z M312.2,413.8h7v7h-7V413.8z M319.4,413.8h7v7h-7
		V413.8z M326.7,413.8h7v7h-7V413.8z M334,413.8h7v7h-7V413.8z M341.2,413.8h7v7h-7V413.8z M348.5,413.8h7v7h-7V413.8z M355.7,413.8
		h7v7h-7V413.8z M363,413.8h7v7h-7V413.8z M370.3,413.8h7v7h-7V413.8z M406.6,413.8h7v7h-7V413.8z M413.8,413.8h7v7h-7V413.8z
		 M421.1,413.8h7v7h-7V413.8z M428.3,413.8h7v7h-7V413.8z M435.6,413.8h7v7h-7V413.8z M442.9,413.8h7v7h-7V413.8z M450.1,413.8h7v7
		h-7V413.8z M457.4,413.8h7v7h-7V413.8z M464.6,413.8h7v7h-7V413.8z M471.9,413.8h7v7h-7V413.8z M530,413.8h7v7h-7V413.8z
		 M537.2,413.8h7v7h-7V413.8z M544.5,413.8h7v7h-7V413.8z M551.8,413.8h7v7h-7V413.8z M559,413.8h7v7h-7V413.8z M566.3,413.8h7v7h-7
		V413.8z M573.5,413.8h7v7h-7V413.8z M580.8,413.8h7v7h-7V413.8z M588.1,413.8h7v7h-7V413.8z M595.3,413.8h7v7h-7V413.8z
		 M602.6,413.8h7v7h-7V413.8z M653.4,413.8h7v7h-7V413.8z M101.6,421.1h7v7h-7V421.1z M108.9,421.1h7v7h-7V421.1z M116.2,421.1h7v7
		h-7V421.1z M123.4,421.1h7v7h-7V421.1z M130.7,421.1h7v7h-7V421.1z M137.9,421.1h7v7h-7V421.1z M145.2,421.1h7v7h-7V421.1z
		 M152.5,421.1h7v7h-7V421.1z M159.7,421.1h7v7h-7V421.1z M167,421.1h7v7h-7V421.1z M174.2,421.1h7v7h-7V421.1z M181.5,421.1h7v7h-7
		V421.1z M188.8,421.1h7v7h-7V421.1z M196,421.1h7v7h-7V421.1z M203.3,421.1h7v7h-7V421.1z M217.8,421.1h7v7h-7V421.1z M312.2,421.1
		h7v7h-7V421.1z M319.4,421.1h7v7h-7V421.1z M326.7,421.1h7v7h-7V421.1z M334,421.1h7v7h-7V421.1z M341.2,421.1h7v7h-7V421.1z
		 M348.5,421.1h7v7h-7V421.1z M355.7,421.1h7v7h-7V421.1z M363,421.1h7v7h-7V421.1z M370.3,421.1h7v7h-7V421.1z M406.6,421.1h7v7h-7
		V421.1z M413.8,421.1h7v7h-7V421.1z M421.1,421.1h7v7h-7V421.1z M428.3,421.1h7v7h-7V421.1z M435.6,421.1h7v7h-7V421.1z
		 M442.9,421.1h7v7h-7V421.1z M450.1,421.1h7v7h-7V421.1z M457.4,421.1h7v7h-7V421.1z M464.6,421.1h7v7h-7V421.1z M471.9,421.1h7v7
		h-7V421.1z M530,421.1h7v7h-7V421.1z M537.2,421.1h7v7h-7V421.1z M544.5,421.1h7v7h-7V421.1z M551.8,421.1h7v7h-7V421.1z
		 M559,421.1h7v7h-7V421.1z M566.3,421.1h7v7h-7V421.1z M573.5,421.1h7v7h-7V421.1z M580.8,421.1h7v7h-7V421.1z M588.1,421.1h7v7h-7
		V421.1z M595.3,421.1h7v7h-7V421.1z M602.6,421.1h7v7h-7V421.1z M653.4,421.1h7v7h-7V421.1z M94.4,428.3h7v7h-7V428.3z
		 M101.6,428.3h7v7h-7V428.3z M108.9,428.3h7v7h-7V428.3z M116.2,428.3h7v7h-7V428.3z M123.4,428.3h7v7h-7V428.3z M130.7,428.3h7v7
		h-7V428.3z M137.9,428.3h7v7h-7V428.3z M145.2,428.3h7v7h-7V428.3z M152.5,428.3h7v7h-7V428.3z M159.7,428.3h7v7h-7V428.3z
		 M174.2,428.3h7v7h-7V428.3z M188.8,428.3h7v7h-7V428.3z M210.5,428.3h7v7h-7V428.3z M304.9,428.3h7v7h-7V428.3z M312.2,428.3h7v7
		h-7V428.3z M319.4,428.3h7v7h-7V428.3z M326.7,428.3h7v7h-7V428.3z M334,428.3h7v7h-7V428.3z M341.2,428.3h7v7h-7V428.3z
		 M348.5,428.3h7v7h-7V428.3z M355.7,428.3h7v7h-7V428.3z M363,428.3h7v7h-7V428.3z M370.3,428.3h7v7h-7V428.3z M377.5,428.3h7v7h-7
		V428.3z M406.6,428.3h7v7h-7V428.3z M413.8,428.3h7v7h-7V428.3z M421.1,428.3h7v7h-7V428.3z M428.3,428.3h7v7h-7V428.3z
		 M435.6,428.3h7v7h-7V428.3z M442.9,428.3h7v7h-7V428.3z M450.1,428.3h7v7h-7V428.3z M457.4,428.3h7v7h-7V428.3z M464.6,428.3h7v7
		h-7V428.3z M471.9,428.3h7v7h-7V428.3z M530,428.3h7v7h-7V428.3z M537.2,428.3h7v7h-7V428.3z M544.5,428.3h7v7h-7V428.3z
		 M551.8,428.3h7v7h-7V428.3z M559,428.3h7v7h-7V428.3z M566.3,428.3h7v7h-7V428.3z M573.5,428.3h7v7h-7V428.3z M580.8,428.3h7v7h-7
		V428.3z M588.1,428.3h7v7h-7V428.3z M595.3,428.3h7v7h-7V428.3z M602.6,428.3h7v7h-7V428.3z M653.4,428.3h7v7h-7V428.3z
		 M94.4,435.6h7v7h-7V435.6z M101.6,435.6h7v7h-7V435.6z M108.9,435.6h7v7h-7V435.6z M116.2,435.6h7v7h-7V435.6z M123.4,435.6h7v7
		h-7V435.6z M130.7,435.6h7v7h-7V435.6z M145.2,435.6h7v7h-7V435.6z M152.5,435.6h7v7h-7V435.6z M159.7,435.6h7v7h-7V435.6z
		 M167,435.6h7v7h-7V435.6z M174.2,435.6h7v7h-7V435.6z M181.5,435.6h7v7h-7V435.6z M196,435.6h7v7h-7V435.6z M304.9,435.6h7v7h-7
		V435.6z M312.2,435.6h7v7h-7V435.6z M319.4,435.6h7v7h-7V435.6z M326.7,435.6h7v7h-7V435.6z M334,435.6h7v7h-7V435.6z M341.2,435.6
		h7v7h-7V435.6z M348.5,435.6h7v7h-7V435.6z M355.7,435.6h7v7h-7V435.6z M363,435.6h7v7h-7V435.6z M370.3,435.6h7v7h-7V435.6z
		 M377.5,435.6h7v7h-7V435.6z M406.6,435.6h7v7h-7V435.6z M413.8,435.6h7v7h-7V435.6z M421.1,435.6h7v7h-7V435.6z M428.3,435.6h7v7
		h-7V435.6z M435.6,435.6h7v7h-7V435.6z M442.9,435.6h7v7h-7V435.6z M450.1,435.6h7v7h-7V435.6z M457.4,435.6h7v7h-7V435.6z
		 M464.6,435.6h7v7h-7V435.6z M471.9,435.6h7v7h-7V435.6z M530,435.6h7v7h-7V435.6z M537.2,435.6h7v7h-7V435.6z M544.5,435.6h7v7h-7
		V435.6z M551.8,435.6h7v7h-7V435.6z M559,435.6h7v7h-7V435.6z M566.3,435.6h7v7h-7V435.6z M573.5,435.6h7v7h-7V435.6z M580.8,435.6
		h7v7h-7V435.6z M588.1,435.6h7v7h-7V435.6z M595.3,435.6h7v7h-7V435.6z M602.6,435.6h7v7h-7V435.6z M653.4,435.6h7v7h-7V435.6z
		 M87.1,442.9h7v7h-7V442.9z M94.4,442.9h7v7h-7V442.9z M101.6,442.9h7v7h-7V442.9z M108.9,442.9h7v7h-7V442.9z M116.2,442.9h7v7h-7
		V442.9z M123.4,442.9h7v7h-7V442.9z M130.7,442.9h7v7h-7V442.9z M137.9,442.9h7v7h-7V442.9z M145.2,442.9h7v7h-7V442.9z
		 M159.7,442.9h7v7h-7V442.9z M174.2,442.9h7v7h-7V442.9z M188.8,442.9h7v7h-7V442.9z M217.8,442.9h7v7h-7V442.9z M297.7,442.9h7v7
		h-7V442.9z M304.9,442.9h7v7h-7V442.9z M312.2,442.9h7v7h-7V442.9z M319.4,442.9h7v7h-7V442.9z M326.7,442.9h7v7h-7V442.9z
		 M334,442.9h7v7h-7V442.9z M341.2,442.9h7v7h-7V442.9z M348.5,442.9h7v7h-7V442.9z M355.7,442.9h7v7h-7V442.9z M363,442.9h7v7h-7
		V442.9z M370.3,442.9h7v7h-7V442.9z M377.5,442.9h7v7h-7V442.9z M384.8,442.9h7v7h-7V442.9z M406.6,442.9h7v7h-7V442.9z
		 M413.8,442.9h7v7h-7V442.9z M421.1,442.9h7v7h-7V442.9z M428.3,442.9h7v7h-7V442.9z M435.6,442.9h7v7h-7V442.9z M442.9,442.9h7v7
		h-7V442.9z M450.1,442.9h7v7h-7V442.9z M457.4,442.9h7v7h-7V442.9z M464.6,442.9h7v7h-7V442.9z M471.9,442.9h7v7h-7V442.9z
		 M530,442.9h7v7h-7V442.9z M537.2,442.9h7v7h-7V442.9z M551.8,442.9h7v7h-7V442.9z M559,442.9h7v7h-7V442.9z M566.3,442.9h7v7h-7
		V442.9z M573.5,442.9h7v7h-7V442.9z M580.8,442.9h7v7h-7V442.9z M588.1,442.9h7v7h-7V442.9z M602.6,442.9h7v7h-7V442.9z
		 M653.4,442.9h7v7h-7V442.9z M79.9,450.1h7v7h-7V450.1z M87.1,450.1h7v7h-7V450.1z M94.4,450.1h7v7h-7V450.1z M101.6,450.1h7v7h-7
		V450.1z M108.9,450.1h7v7h-7V450.1z M116.2,450.1h7v7h-7V450.1z M123.4,450.1h7v7h-7V450.1z M145.2,450.1h7v7h-7V450.1z
		 M152.5,450.1h7v7h-7V450.1z M167,450.1h7v7h-7V450.1z M174.2,450.1h7v7h-7V450.1z M290.4,450.1h7v7h-7V450.1z M297.7,450.1h7v7h-7
		V450.1z M304.9,450.1h7v7h-7V450.1z M312.2,450.1h7v7h-7V450.1z M319.4,450.1h7v7h-7V450.1z M326.7,450.1h7v7h-7V450.1z M334,450.1
		h7v7h-7V450.1z M341.2,450.1h7v7h-7V450.1z M348.5,450.1h7v7h-7V450.1z M355.7,450.1h7v7h-7V450.1z M363,450.1h7v7h-7V450.1z
		 M370.3,450.1h7v7h-7V450.1z M377.5,450.1h7v7h-7V450.1z M384.8,450.1h7v7h-7V450.1z M413.8,450.1h7v7h-7V450.1z M421.1,450.1h7v7
		h-7V450.1z M428.3,450.1h7v7h-7V450.1z M435.6,450.1h7v7h-7V450.1z M442.9,450.1h7v7h-7V450.1z M450.1,450.1h7v7h-7V450.1z
		 M457.4,450.1h7v7h-7V450.1z M464.6,450.1h7v7h-7V450.1z M471.9,450.1h7v7h-7V450.1z M530,450.1h7v7h-7V450.1z M537.2,450.1h7v7h-7
		V450.1z M551.8,450.1h7v7h-7V450.1z M559,450.1h7v7h-7V450.1z M566.3,450.1h7v7h-7V450.1z M573.5,450.1h7v7h-7V450.1z M580.8,450.1
		h7v7h-7V450.1z M588.1,450.1h7v7h-7V450.1z M595.3,450.1h7v7h-7V450.1z M653.4,450.1h7v7h-7V450.1z M79.9,457.4h7v7h-7V457.4z
		 M87.1,457.4h7v7h-7V457.4z M94.4,457.4h7v7h-7V457.4z M101.6,457.4h7v7h-7V457.4z M108.9,457.4h7v7h-7V457.4z M116.2,457.4h7v7h-7
		V457.4z M152.5,457.4h7v7h-7V457.4z M181.5,457.4h7v7h-7V457.4z M196,457.4h7v7h-7V457.4z M283.1,457.4h7v7h-7V457.4z M290.4,457.4
		h7v7h-7V457.4z M297.7,457.4h7v7h-7V457.4z M304.9,457.4h7v7h-7V457.4z M312.2,457.4h7v7h-7V457.4z M319.4,457.4h7v7h-7V457.4z
		 M326.7,457.4h7v7h-7V457.4z M334,457.4h7v7h-7V457.4z M341.2,457.4h7v7h-7V457.4z M348.5,457.4h7v7h-7V457.4z M355.7,457.4h7v7h-7
		V457.4z M363,457.4h7v7h-7V457.4z M370.3,457.4h7v7h-7V457.4z M377.5,457.4h7v7h-7V457.4z M384.8,457.4h7v7h-7V457.4z M413.8,457.4
		h7v7h-7V457.4z M421.1,457.4h7v7h-7V457.4z M428.3,457.4h7v7h-7V457.4z M435.6,457.4h7v7h-7V457.4z M442.9,457.4h7v7h-7V457.4z
		 M450.1,457.4h7v7h-7V457.4z M457.4,457.4h7v7h-7V457.4z M464.6,457.4h7v7h-7V457.4z M471.9,457.4h7v7h-7V457.4z M530,457.4h7v7h-7
		V457.4z M537.2,457.4h7v7h-7V457.4z M551.8,457.4h7v7h-7V457.4z M559,457.4h7v7h-7V457.4z M573.5,457.4h7v7h-7V457.4z M580.8,457.4
		h7v7h-7V457.4z M595.3,457.4h7v7h-7V457.4z M602.6,457.4h7v7h-7V457.4z M653.4,457.4h7v7h-7V457.4z M72.6,464.6h7v7h-7V464.6z
		 M79.9,464.6h7v7h-7V464.6z M87.1,464.6h7v7h-7V464.6z M94.4,464.6h7v7h-7V464.6z M101.6,464.6h7v7h-7V464.6z M108.9,464.6h7v7h-7
		V464.6z M116.2,464.6h7v7h-7V464.6z M130.7,464.6h7v7h-7V464.6z M137.9,464.6h7v7h-7V464.6z M159.7,464.6h7v7h-7V464.6z
		 M174.2,464.6h7v7h-7V464.6z M268.6,464.6h7v7h-7V464.6z M275.9,464.6h7v7h-7V464.6z M283.1,464.6h7v7h-7V464.6z M290.4,464.6h7v7
		h-7V464.6z M297.7,464.6h7v7h-7V464.6z M304.9,464.6h7v7h-7V464.6z M312.2,464.6h7v7h-7V464.6z M319.4,464.6h7v7h-7V464.6z
		 M326.7,464.6h7v7h-7V464.6z M334,464.6h7v7h-7V464.6z M341.2,464.6h7v7h-7V464.6z M348.5,464.6h7v7h-7V464.6z M355.7,464.6h7v7h-7
		V464.6z M363,464.6h7v7h-7V464.6z M370.3,464.6h7v7h-7V464.6z M377.5,464.6h7v7h-7V464.6z M384.8,464.6h7v7h-7V464.6z M392,464.6h7
		v7h-7V464.6z M413.8,464.6h7v7h-7V464.6z M421.1,464.6h7v7h-7V464.6z M428.3,464.6h7v7h-7V464.6z M435.6,464.6h7v7h-7V464.6z
		 M442.9,464.6h7v7h-7V464.6z M450.1,464.6h7v7h-7V464.6z M457.4,464.6h7v7h-7V464.6z M464.6,464.6h7v7h-7V464.6z M471.9,464.6h7v7
		h-7V464.6z M530,464.6h7v7h-7V464.6z M537.2,464.6h7v7h-7V464.6z M559,464.6h7v7h-7V464.6z M566.3,464.6h7v7h-7V464.6z
		 M580.8,464.6h7v7h-7V464.6z M588.1,464.6h7v7h-7V464.6z M653.4,464.6h7v7h-7V464.6z M65.3,471.9h7v7h-7V471.9z M72.6,471.9h7v7h-7
		V471.9z M79.9,471.9h7v7h-7V471.9z M87.1,471.9h7v7h-7V471.9z M94.4,471.9h7v7h-7V471.9z M101.6,471.9h7v7h-7V471.9z M108.9,471.9
		h7v7h-7V471.9z M152.5,471.9h7v7h-7V471.9z M181.5,471.9h7v7h-7V471.9z M261.4,471.9h7v7h-7V471.9z M275.9,471.9h7v7h-7V471.9z
		 M283.1,471.9h7v7h-7V471.9z M290.4,471.9h7v7h-7V471.9z M297.7,471.9h7v7h-7V471.9z M304.9,471.9h7v7h-7V471.9z M312.2,471.9h7v7
		h-7V471.9z M319.4,471.9h7v7h-7V471.9z M326.7,471.9h7v7h-7V471.9z M334,471.9h7v7h-7V471.9z M341.2,471.9h7v7h-7V471.9z
		 M348.5,471.9h7v7h-7V471.9z M355.7,471.9h7v7h-7V471.9z M363,471.9h7v7h-7V471.9z M370.3,471.9h7v7h-7V471.9z M377.5,471.9h7v7h-7
		V471.9z M384.8,471.9h7v7h-7V471.9z M392,471.9h7v7h-7V471.9z M413.8,471.9h7v7h-7V471.9z M421.1,471.9h7v7h-7V471.9z M428.3,471.9
		h7v7h-7V471.9z M435.6,471.9h7v7h-7V471.9z M442.9,471.9h7v7h-7V471.9z M450.1,471.9h7v7h-7V471.9z M457.4,471.9h7v7h-7V471.9z
		 M464.6,471.9h7v7h-7V471.9z M471.9,471.9h7v7h-7V471.9z M537.2,471.9h7v7h-7V471.9z M551.8,471.9h7v7h-7V471.9z M559,471.9h7v7h-7
		V471.9z M573.5,471.9h7v7h-7V471.9z M580.8,471.9h7v7h-7V471.9z M595.3,471.9h7v7h-7V471.9z M653.4,471.9h7v7h-7V471.9z
		 M65.3,479.2h7v7h-7V479.2z M72.6,479.2h7v7h-7V479.2z M79.9,479.2h7v7h-7V479.2z M87.1,479.2h7v7h-7V479.2z M94.4,479.2h7v7h-7
		V479.2z M101.6,479.2h7v7h-7V479.2z M108.9,479.2h7v7h-7V479.2z M116.2,479.2h7v7h-7V479.2z M130.7,479.2h7v7h-7V479.2z
		 M137.9,479.2h7v7h-7V479.2z M152.5,479.2h7v7h-7V479.2z M159.7,479.2h7v7h-7V479.2z M268.6,479.2h7v7h-7V479.2z M275.9,479.2h7v7
		h-7V479.2z M283.1,479.2h7v7h-7V479.2z M290.4,479.2h7v7h-7V479.2z M297.7,479.2h7v7h-7V479.2z M304.9,479.2h7v7h-7V479.2z
		 M312.2,479.2h7v7h-7V479.2z M319.4,479.2h7v7h-7V479.2z M326.7,479.2h7v7h-7V479.2z M334,479.2h7v7h-7V479.2z M341.2,479.2h7v7h-7
		V479.2z M348.5,479.2h7v7h-7V479.2z M355.7,479.2h7v7h-7V479.2z M363,479.2h7v7h-7V479.2z M370.3,479.2h7v7h-7V479.2z M377.5,479.2
		h7v7h-7V479.2z M384.8,479.2h7v7h-7V479.2z M392,479.2h7v7h-7V479.2z M399.3,479.2h7v7h-7V479.2z M406.6,479.2h7v7h-7V479.2z
		 M413.8,479.2h7v7h-7V479.2z M421.1,479.2h7v7h-7V479.2z M428.3,479.2h7v7h-7V479.2z M435.6,479.2h7v7h-7V479.2z M442.9,479.2h7v7
		h-7V479.2z M450.1,479.2h7v7h-7V479.2z M457.4,479.2h7v7h-7V479.2z M464.6,479.2h7v7h-7V479.2z M471.9,479.2h7v7h-7V479.2z
		 M530,479.2h7v7h-7V479.2z M551.8,479.2h7v7h-7V479.2z M588.1,479.2h7v7h-7V479.2z M653.4,479.2h7v7h-7V479.2z M65.3,486.4h7v7h-7
		V486.4z M72.6,486.4h7v7h-7V486.4z M79.9,486.4h7v7h-7V486.4z M87.1,486.4h7v7h-7V486.4z M94.4,486.4h7v7h-7V486.4z M101.6,486.4h7
		v7h-7V486.4z M116.2,486.4h7v7h-7V486.4z M123.4,486.4h7v7h-7V486.4z M174.2,486.4h7v7h-7V486.4z M261.4,486.4h7v7h-7V486.4z
		 M268.6,486.4h7v7h-7V486.4z M275.9,486.4h7v7h-7V486.4z M283.1,486.4h7v7h-7V486.4z M290.4,486.4h7v7h-7V486.4z M297.7,486.4h7v7
		h-7V486.4z M304.9,486.4h7v7h-7V486.4z M312.2,486.4h7v7h-7V486.4z M319.4,486.4h7v7h-7V486.4z M326.7,486.4h7v7h-7V486.4z
		 M334,486.4h7v7h-7V486.4z M341.2,486.4h7v7h-7V486.4z M392,486.4h7v7h-7V486.4z M399.3,486.4h7v7h-7V486.4z M406.6,486.4h7v7h-7
		V486.4z M413.8,486.4h7v7h-7V486.4z M421.1,486.4h7v7h-7V486.4z M428.3,486.4h7v7h-7V486.4z M435.6,486.4h7v7h-7V486.4z
		 M442.9,486.4h7v7h-7V486.4z M450.1,486.4h7v7h-7V486.4z M457.4,486.4h7v7h-7V486.4z M464.6,486.4h7v7h-7V486.4z M471.9,486.4h7v7
		h-7V486.4z M537.2,486.4h7v7h-7V486.4z M646.1,486.4h7v7h-7V486.4z M58.1,493.7h7v7h-7V493.7z M65.3,493.7h7v7h-7V493.7z
		 M72.6,493.7h7v7h-7V493.7z M79.9,493.7h7v7h-7V493.7z M87.1,493.7h7v7h-7V493.7z M94.4,493.7h7v7h-7V493.7z M101.6,493.7h7v7h-7
		V493.7z M108.9,493.7h7v7h-7V493.7z M123.4,493.7h7v7h-7V493.7z M145.2,493.7h7v7h-7V493.7z M159.7,493.7h7v7h-7V493.7z
		 M174.2,493.7h7v7h-7V493.7z M254.1,493.7h7v7h-7V493.7z M261.4,493.7h7v7h-7V493.7z M268.6,493.7h7v7h-7V493.7z M275.9,493.7h7v7
		h-7V493.7z M283.1,493.7h7v7h-7V493.7z M290.4,493.7h7v7h-7V493.7z M297.7,493.7h7v7h-7V493.7z M304.9,493.7h7v7h-7V493.7z
		 M312.2,493.7h7v7h-7V493.7z M319.4,493.7h7v7h-7V493.7z M326.7,493.7h7v7h-7V493.7z M334,493.7h7v7h-7V493.7z M406.6,493.7h7v7h-7
		V493.7z M413.8,493.7h7v7h-7V493.7z M421.1,493.7h7v7h-7V493.7z M428.3,493.7h7v7h-7V493.7z M435.6,493.7h7v7h-7V493.7z
		 M442.9,493.7h7v7h-7V493.7z M450.1,493.7h7v7h-7V493.7z M457.4,493.7h7v7h-7V493.7z M464.6,493.7h7v7h-7V493.7z M471.9,493.7h7v7
		h-7V493.7z M646.1,493.7h7v7h-7V493.7z M58.1,500.9h7v7h-7V500.9z M65.3,500.9h7v7h-7V500.9z M72.6,500.9h7v7h-7V500.9z
		 M79.9,500.9h7v7h-7V500.9z M87.1,500.9h7v7h-7V500.9z M145.2,500.9h7v7h-7V500.9z M261.4,500.9h7v7h-7V500.9z M268.6,500.9h7v7h-7
		V500.9z M275.9,500.9h7v7h-7V500.9z M283.1,500.9h7v7h-7V500.9z M290.4,500.9h7v7h-7V500.9z M297.7,500.9h7v7h-7V500.9z
		 M304.9,500.9h7v7h-7V500.9z M312.2,500.9h7v7h-7V500.9z M319.4,500.9h7v7h-7V500.9z M326.7,500.9h7v7h-7V500.9z M406.6,500.9h7v7
		h-7V500.9z M413.8,500.9h7v7h-7V500.9z M421.1,500.9h7v7h-7V500.9z M428.3,500.9h7v7h-7V500.9z M435.6,500.9h7v7h-7V500.9z
		 M442.9,500.9h7v7h-7V500.9z M450.1,500.9h7v7h-7V500.9z M457.4,500.9h7v7h-7V500.9z M464.6,500.9h7v7h-7V500.9z M471.9,500.9h7v7
		h-7V500.9z M537.2,500.9h7v7h-7V500.9z M631.6,500.9h7v7h-7V500.9z M638.9,500.9h7v7h-7V500.9z M50.8,508.2h7v7h-7V508.2z
		 M58.1,508.2h7v7h-7V508.2z M65.3,508.2h7v7h-7V508.2z M72.6,508.2h7v7h-7V508.2z M79.9,508.2h7v7h-7V508.2z M87.1,508.2h7v7h-7
		V508.2z M94.4,508.2h7v7h-7V508.2z M101.6,508.2h7v7h-7V508.2z M108.9,508.2h7v7h-7V508.2z M123.4,508.2h7v7h-7V508.2z
		 M246.8,508.2h7v7h-7V508.2z M254.1,508.2h7v7h-7V508.2z M261.4,508.2h7v7h-7V508.2z M268.6,508.2h7v7h-7V508.2z M275.9,508.2h7v7
		h-7V508.2z M283.1,508.2h7v7h-7V508.2z M290.4,508.2h7v7h-7V508.2z M297.7,508.2h7v7h-7V508.2z M304.9,508.2h7v7h-7V508.2z
		 M312.2,508.2h7v7h-7V508.2z M319.4,508.2h7v7h-7V508.2z M413.8,508.2h7v7h-7V508.2z M421.1,508.2h7v7h-7V508.2z M428.3,508.2h7v7
		h-7V508.2z M435.6,508.2h7v7h-7V508.2z M442.9,508.2h7v7h-7V508.2z M450.1,508.2h7v7h-7V508.2z M457.4,508.2h7v7h-7V508.2z
		 M464.6,508.2h7v7h-7V508.2z M471.9,508.2h7v7h-7V508.2z M559,508.2h7v7h-7V508.2z M566.3,508.2h7v7h-7V508.2z M573.5,508.2h7v7h-7
		V508.2z M580.8,508.2h7v7h-7V508.2z M588.1,508.2h7v7h-7V508.2z M595.3,508.2h7v7h-7V508.2z M602.6,508.2h7v7h-7V508.2z
		 M609.8,508.2h7v7h-7V508.2z M617.1,508.2h7v7h-7V508.2z M624.4,508.2h7v7h-7V508.2z M50.8,515.5h7v7h-7V515.5z M58.1,515.5h7v7h-7
		V515.5z M65.3,515.5h7v7h-7V515.5z M72.6,515.5h7v7h-7V515.5z M79.9,515.5h7v7h-7V515.5z M87.1,515.5h7v7h-7V515.5z M101.6,515.5h7
		v7h-7V515.5z M116.2,515.5h7v7h-7V515.5z M130.7,515.5h7v7h-7V515.5z M137.9,515.5h7v7h-7V515.5z M254.1,515.5h7v7h-7V515.5z
		 M261.4,515.5h7v7h-7V515.5z M268.6,515.5h7v7h-7V515.5z M275.9,515.5h7v7h-7V515.5z M283.1,515.5h7v7h-7V515.5z M290.4,515.5h7v7
		h-7V515.5z M297.7,515.5h7v7h-7V515.5z M304.9,515.5h7v7h-7V515.5z M312.2,515.5h7v7h-7V515.5z M319.4,515.5h7v7h-7V515.5z
		 M421.1,515.5h7v7h-7V515.5z M428.3,515.5h7v7h-7V515.5z M435.6,515.5h7v7h-7V515.5z M442.9,515.5h7v7h-7V515.5z M450.1,515.5h7v7
		h-7V515.5z M457.4,515.5h7v7h-7V515.5z M464.6,515.5h7v7h-7V515.5z M471.9,515.5h7v7h-7V515.5z M551.8,515.5h7v7h-7V515.5z
		 M559,515.5h7v7h-7V515.5z M43.6,522.7h7v7h-7V522.7z M50.8,522.7h7v7h-7V522.7z M58.1,522.7h7v7h-7V522.7z M65.3,522.7h7v7h-7
		V522.7z M72.6,522.7h7v7h-7V522.7z M79.9,522.7h7v7h-7V522.7z M94.4,522.7h7v7h-7V522.7z M101.6,522.7h7v7h-7V522.7z M108.9,522.7
		h7v7h-7V522.7z M130.7,522.7h7v7h-7V522.7z M145.2,522.7h7v7h-7V522.7z M232.3,522.7h7v7h-7V522.7z M239.6,522.7h7v7h-7V522.7z
		 M246.8,522.7h7v7h-7V522.7z M254.1,522.7h7v7h-7V522.7z M261.4,522.7h7v7h-7V522.7z M268.6,522.7h7v7h-7V522.7z M275.9,522.7h7v7
		h-7V522.7z M283.1,522.7h7v7h-7V522.7z M290.4,522.7h7v7h-7V522.7z M297.7,522.7h7v7h-7V522.7z M304.9,522.7h7v7h-7V522.7z
		 M421.1,522.7h7v7h-7V522.7z M428.3,522.7h7v7h-7V522.7z M435.6,522.7h7v7h-7V522.7z M442.9,522.7h7v7h-7V522.7z M450.1,522.7h7v7
		h-7V522.7z M457.4,522.7h7v7h-7V522.7z M464.6,522.7h7v7h-7V522.7z M471.9,522.7h7v7h-7V522.7z M544.5,522.7h7v7h-7V522.7z
		 M551.8,522.7h7v7h-7V522.7z M43.6,530h7v7h-7V530z M50.8,530h7v7h-7V530z M58.1,530h7v7h-7V530z M65.3,530h7v7h-7V530z M72.6,530
		h7v7h-7V530z M87.1,530h7v7h-7V530z M94.4,530h7v7h-7V530z M108.9,530h7v7h-7V530z M116.2,530h7v7h-7V530z M225.1,530h7v7h-7V530z
		 M239.6,530h7v7h-7V530z M246.8,530h7v7h-7V530z M254.1,530h7v7h-7V530z M261.4,530h7v7h-7V530z M268.6,530h7v7h-7V530z M275.9,530
		h7v7h-7V530z M283.1,530h7v7h-7V530z M290.4,530h7v7h-7V530z M297.7,530h7v7h-7V530z M428.3,530h7v7h-7V530z M435.6,530h7v7h-7V530
		z M442.9,530h7v7h-7V530z M450.1,530h7v7h-7V530z M457.4,530h7v7h-7V530z M464.6,530h7v7h-7V530z M471.9,530h7v7h-7V530z
		 M544.5,530h7v7h-7V530z M551.8,530h7v7h-7V530z M36.3,537.2h7v7h-7V537.2z M43.6,537.2h7v7h-7V537.2z M50.8,537.2h7v7h-7V537.2z
		 M58.1,537.2h7v7h-7V537.2z M65.3,537.2h7v7h-7V537.2z M145.2,537.2h7v7h-7V537.2z M232.3,537.2h7v7h-7V537.2z M239.6,537.2h7v7h-7
		V537.2z M246.8,537.2h7v7h-7V537.2z M254.1,537.2h7v7h-7V537.2z M261.4,537.2h7v7h-7V537.2z M268.6,537.2h7v7h-7V537.2z
		 M275.9,537.2h7v7h-7V537.2z M283.1,537.2h7v7h-7V537.2z M290.4,537.2h7v7h-7V537.2z M428.3,537.2h7v7h-7V537.2z M435.6,537.2h7v7
		h-7V537.2z M442.9,537.2h7v7h-7V537.2z M450.1,537.2h7v7h-7V537.2z M457.4,537.2h7v7h-7V537.2z M464.6,537.2h7v7h-7V537.2z
		 M471.9,537.2h7v7h-7V537.2z M544.5,537.2h7v7h-7V537.2z M551.8,537.2h7v7h-7V537.2z M36.3,544.5h7v7h-7V544.5z M43.6,544.5h7v7h-7
		V544.5z M50.8,544.5h7v7h-7V544.5z M58.1,544.5h7v7h-7V544.5z M65.3,544.5h7v7h-7V544.5z M79.9,544.5h7v7h-7V544.5z M87.1,544.5h7
		v7h-7V544.5z M101.6,544.5h7v7h-7V544.5z M108.9,544.5h7v7h-7V544.5z M123.4,544.5h7v7h-7V544.5z M225.1,544.5h7v7h-7V544.5z
		 M232.3,544.5h7v7h-7V544.5z M239.6,544.5h7v7h-7V544.5z M246.8,544.5h7v7h-7V544.5z M254.1,544.5h7v7h-7V544.5z M261.4,544.5h7v7
		h-7V544.5z M268.6,544.5h7v7h-7V544.5z M275.9,544.5h7v7h-7V544.5z M283.1,544.5h7v7h-7V544.5z M435.6,544.5h7v7h-7V544.5z
		 M442.9,544.5h7v7h-7V544.5z M450.1,544.5h7v7h-7V544.5z M457.4,544.5h7v7h-7V544.5z M464.6,544.5h7v7h-7V544.5z M471.9,544.5h7v7
		h-7V544.5z M479.2,544.5h7v7h-7V544.5z M544.5,544.5h7v7h-7V544.5z M29,551.8h7v7h-7V551.8z M36.3,551.8h7v7h-7V551.8z M43.6,551.8
		h7v7h-7V551.8z M50.8,551.8h7v7h-7V551.8z M58.1,551.8h7v7h-7V551.8z M94.4,551.8h7v7h-7V551.8z M217.8,551.8h7v7h-7V551.8z
		 M232.3,551.8h7v7h-7V551.8z M239.6,551.8h7v7h-7V551.8z M246.8,551.8h7v7h-7V551.8z M254.1,551.8h7v7h-7V551.8z M261.4,551.8h7v7
		h-7V551.8z M268.6,551.8h7v7h-7V551.8z M275.9,551.8h7v7h-7V551.8z M377.5,551.8h7v7h-7V551.8z M384.8,551.8h7v7h-7V551.8z
		 M392,551.8h7v7h-7V551.8z M399.3,551.8h7v7h-7V551.8z M406.6,551.8h7v7h-7V551.8z M413.8,551.8h7v7h-7V551.8z M435.6,551.8h7v7h-7
		V551.8z M442.9,551.8h7v7h-7V551.8z M450.1,551.8h7v7h-7V551.8z M457.4,551.8h7v7h-7V551.8z M464.6,551.8h7v7h-7V551.8z
		 M471.9,551.8h7v7h-7V551.8z M479.2,551.8h7v7h-7V551.8z M544.5,551.8h7v7h-7V551.8z M21.8,559h7v7h-7V559z M29,559h7v7h-7V559z
		 M36.3,559h7v7h-7V559z M43.6,559h7v7h-7V559z M50.8,559h7v7h-7V559z M79.9,559h7v7h-7V559z M94.4,559h7v7h-7V559z M203.3,559h7v7
		h-7V559z M217.8,559h7v7h-7V559z M225.1,559h7v7h-7V559z M232.3,559h7v7h-7V559z M239.6,559h7v7h-7V559z M246.8,559h7v7h-7V559z
		 M254.1,559h7v7h-7V559z M261.4,559h7v7h-7V559z M268.6,559h7v7h-7V559z M377.5,559h7v7h-7V559z M384.8,559h7v7h-7V559z M392,559h7
		v7h-7V559z M399.3,559h7v7h-7V559z M406.6,559h7v7h-7V559z M413.8,559h7v7h-7V559z M442.9,559h7v7h-7V559z M450.1,559h7v7h-7V559z
		 M457.4,559h7v7h-7V559z M464.6,559h7v7h-7V559z M471.9,559h7v7h-7V559z M479.2,559h7v7h-7V559z M537.2,559h7v7h-7V559z M544.5,559
		h7v7h-7V559z M14.5,566.3h7v7h-7V566.3z M21.8,566.3h7v7h-7V566.3z M29,566.3h7v7h-7V566.3z M36.3,566.3h7v7h-7V566.3z M43.6,566.3
		h7v7h-7V566.3z M50.8,566.3h7v7h-7V566.3z M87.1,566.3h7v7h-7V566.3z M101.6,566.3h7v7h-7V566.3z M210.5,566.3h7v7h-7V566.3z
		 M217.8,566.3h7v7h-7V566.3z M225.1,566.3h7v7h-7V566.3z M232.3,566.3h7v7h-7V566.3z M239.6,566.3h7v7h-7V566.3z M246.8,566.3h7v7
		h-7V566.3z M254.1,566.3h7v7h-7V566.3z M261.4,566.3h7v7h-7V566.3z M348.5,566.3h7v7h-7V566.3z M355.7,566.3h7v7h-7V566.3z
		 M363,566.3h7v7h-7V566.3z M370.3,566.3h7v7h-7V566.3z M377.5,566.3h7v7h-7V566.3z M384.8,566.3h7v7h-7V566.3z M392,566.3h7v7h-7
		V566.3z M399.3,566.3h7v7h-7V566.3z M406.6,566.3h7v7h-7V566.3z M413.8,566.3h7v7h-7V566.3z M421.1,566.3h7v7h-7V566.3z
		 M428.3,566.3h7v7h-7V566.3z M435.6,566.3h7v7h-7V566.3z M442.9,566.3h7v7h-7V566.3z M450.1,566.3h7v7h-7V566.3z M457.4,566.3h7v7
		h-7V566.3z M464.6,566.3h7v7h-7V566.3z M471.9,566.3h7v7h-7V566.3z M479.2,566.3h7v7h-7V566.3z M537.2,566.3h7v7h-7V566.3z
		 M544.5,566.3h7v7h-7V566.3z M7.3,573.5h7v7h-7V573.5z M14.5,573.5h7v7h-7V573.5z M21.8,573.5h7v7h-7V573.5z M29,573.5h7v7h-7
		V573.5z M36.3,573.5h7v7h-7V573.5z M43.6,573.5h7v7h-7V573.5z M65.3,573.5h7v7h-7V573.5z M79.9,573.5h7v7h-7V573.5z M94.4,573.5h7
		v7h-7V573.5z M101.6,573.5h7v7h-7V573.5z M188.8,573.5h7v7h-7V573.5z M203.3,573.5h7v7h-7V573.5z M210.5,573.5h7v7h-7V573.5z
		 M217.8,573.5h7v7h-7V573.5z M225.1,573.5h7v7h-7V573.5z M232.3,573.5h7v7h-7V573.5z M239.6,573.5h7v7h-7V573.5z M246.8,573.5h7v7
		h-7V573.5z M254.1,573.5h7v7h-7V573.5z M261.4,573.5h7v7h-7V573.5z M341.2,573.5h7v7h-7V573.5z M348.5,573.5h7v7h-7V573.5z
		 M355.7,573.5h7v7h-7V573.5z M363,573.5h7v7h-7V573.5z M370.3,573.5h7v7h-7V573.5z M377.5,573.5h7v7h-7V573.5z M384.8,573.5h7v7h-7
		V573.5z M392,573.5h7v7h-7V573.5z M399.3,573.5h7v7h-7V573.5z M406.6,573.5h7v7h-7V573.5z M413.8,573.5h7v7h-7V573.5z M421.1,573.5
		h7v7h-7V573.5z M428.3,573.5h7v7h-7V573.5z M435.6,573.5h7v7h-7V573.5z M442.9,573.5h7v7h-7V573.5z M450.1,573.5h7v7h-7V573.5z
		 M457.4,573.5h7v7h-7V573.5z M464.6,573.5h7v7h-7V573.5z M471.9,573.5h7v7h-7V573.5z M479.2,573.5h7v7h-7V573.5z M537.2,573.5h7v7
		h-7V573.5z M544.5,573.5h7v7h-7V573.5z M7.1,580.8h7v7h-7V580.8z M14.4,580.8h7v7h-7V580.8z M21.6,580.8h7v7h-7V580.8z M28.9,580.8
		h7v7h-7V580.8z M36.2,580.8h7v7h-7V580.8z M43.4,580.8h7v7h-7V580.8z M79.7,580.8h7v7h-7V580.8z M94.2,580.8h7v7h-7V580.8z
		 M203.1,580.8h7v7h-7V580.8z M210.4,580.8h7v7h-7V580.8z M217.7,580.8h7v7h-7V580.8z M224.9,580.8h7v7h-7V580.8z M232.2,580.8h7v7
		h-7V580.8z M239.4,580.8h7v7h-7V580.8z M246.7,580.8h7v7h-7V580.8z M254,580.8h7v7h-7V580.8z M341.2,580.8h7v7h-7V580.8z
		 M348.5,580.8h7v7h-7V580.8z M355.8,580.8h7v7h-7V580.8z M363,580.8h7v7h-7V580.8z M370.3,580.8h7v7h-7V580.8z M377.5,580.8h7v7h-7
		V580.8z M384.8,580.8h7v7h-7V580.8z M392.1,580.8h7v7h-7V580.8z M399.3,580.8h7v7h-7V580.8z M406.6,580.8h7v7h-7V580.8z
		 M413.8,580.8h7v7h-7V580.8z M421.1,580.8h7v7h-7V580.8z M428.4,580.8h7v7h-7V580.8z M435.6,580.8h7v7h-7V580.8z M442.9,580.8h7v7
		h-7V580.8z M450.1,580.8h7v7h-7V580.8z M457.4,580.8h7v7h-7V580.8z M464.7,580.8h7v7h-7V580.8z M471.9,580.8h7v7h-7V580.8z
		 M479.2,580.8h7v7h-7V580.8z M537.2,580.8h7v7h-7V580.8z M544.5,580.8h7v7h-7V580.8z M-0.1,588.1h7v7h-7V588.1z M7.1,588.1h7v7h-7
		V588.1z M14.4,588.1h7v7h-7V588.1z M21.6,588.1h7v7h-7V588.1z M28.9,588.1h7v7h-7V588.1z M36.2,588.1h7v7h-7V588.1z M57.9,588.1h7
		v7h-7V588.1z M72.5,588.1h7v7h-7V588.1z M87,588.1h7v7h-7V588.1z M94.2,588.1h7v7h-7V588.1z M181.4,588.1h7v7h-7V588.1z
		 M195.9,588.1h7v7h-7V588.1z M203.1,588.1h7v7h-7V588.1z M210.4,588.1h7v7h-7V588.1z M217.7,588.1h7v7h-7V588.1z M224.9,588.1h7v7
		h-7V588.1z M232.2,588.1h7v7h-7V588.1z M239.4,588.1h7v7h-7V588.1z M246.7,588.1h7v7h-7V588.1z M334,588.1h7v7h-7V588.1z
		 M341.2,588.1h7v7h-7V588.1z M348.5,588.1h7v7h-7V588.1z M355.8,588.1h7v7h-7V588.1z M363,588.1h7v7h-7V588.1z M370.3,588.1h7v7h-7
		V588.1z M377.5,588.1h7v7h-7V588.1z M384.8,588.1h7v7h-7V588.1z M392.1,588.1h7v7h-7V588.1z M399.3,588.1h7v7h-7V588.1z
		 M406.6,588.1h7v7h-7V588.1z M413.8,588.1h7v7h-7V588.1z M421.1,588.1h7v7h-7V588.1z M428.4,588.1h7v7h-7V588.1z M435.6,588.1h7v7
		h-7V588.1z M442.9,588.1h7v7h-7V588.1z M450.1,588.1h7v7h-7V588.1z M457.4,588.1h7v7h-7V588.1z M464.7,588.1h7v7h-7V588.1z
		 M471.9,588.1h7v7h-7V588.1z M479.2,588.1h7v7h-7V588.1z M537.2,588.1h7v7h-7V588.1z M544.5,588.1h7v7h-7V588.1z M755.1,246.8h7v7
		h-7V246.8z M762.4,246.8h7v7h-7V246.8z M769.6,246.8h7v7h-7V246.8z M776.9,246.8h7v7h-7V246.8z M747.8,254.1h7v7h-7V254.1z
		 M755.1,254.1h7v7h-7V254.1z M762.4,254.1h7v7h-7V254.1z M769.6,254.1h7v7h-7V254.1z M776.9,254.1h7v7h-7V254.1z M784.1,254.1h7v7
		h-7V254.1z M747.8,261.4h7v7h-7V261.4z M755.1,261.4h7v7h-7V261.4z M762.4,261.4h7v7h-7V261.4z M769.6,261.4h7v7h-7V261.4z
		 M776.9,261.4h7v7h-7V261.4z M784.1,261.4h7v7h-7V261.4z M747.8,268.6h7v7h-7V268.6z M755.1,268.6h7v7h-7V268.6z M762.4,268.6h7v7
		h-7V268.6z M769.6,268.6h7v7h-7V268.6z M776.9,268.6h7v7h-7V268.6z M784.1,268.6h7v7h-7V268.6z M747.8,275.9h7v7h-7V275.9z
		 M755.1,275.9h7v7h-7V275.9z M762.4,275.9h7v7h-7V275.9z M769.6,275.9h7v7h-7V275.9z M776.9,275.9h7v7h-7V275.9z M784.1,275.9h7v7
		h-7V275.9z M747.8,283.1h7v7h-7V283.1z M755.1,283.1h7v7h-7V283.1z M762.4,283.1h7v7h-7V283.1z M769.6,283.1h7v7h-7V283.1z
		 M776.9,283.1h7v7h-7V283.1z M747.8,290.4h7v7h-7V290.4z M755.1,290.4h7v7h-7V290.4z M762.4,290.4h7v7h-7V290.4z M769.6,290.4h7v7
		h-7V290.4z M776.9,290.4h7v7h-7V290.4z M784.1,283.1h7v7h-7V283.1z M784.1,290.4h7v7h-7V290.4z M740.6,297.7h7v7h-7V297.7z
		 M747.8,297.7h7v7h-7V297.7z M755.1,297.7h7v7h-7V297.7z M762.4,297.7h7v7h-7V297.7z M769.6,297.7h7v7h-7V297.7z M776.9,297.7h7v7
		h-7V297.7z M784.1,297.7h7v7h-7V297.7z M791.4,297.7h7v7h-7V297.7z M733.3,304.9h7v7h-7V304.9z M733.3,297.7h7v7h-7V297.7z
		 M740.6,304.9h7v7h-7V304.9z M747.8,304.9h7v7h-7V304.9z M755.1,304.9h7v7h-7V304.9z M762.4,304.9h7v7h-7V304.9z M769.6,304.9h7v7
		h-7V304.9z M776.9,304.9h7v7h-7V304.9z M784.1,304.9h7v7h-7V304.9z M791.4,304.9h7v7h-7V304.9z M798.7,304.9h7v7h-7V304.9z
		 M798.7,297.7h7v7h-7V297.7z M726.1,312.2h7v7h-7V312.2z M733.3,312.2h7v7h-7V312.2z M740.6,312.2h7v7h-7V312.2z M747.8,312.2h7v7
		h-7V312.2z M755.1,312.2h7v7h-7V312.2z M762.4,312.2h7v7h-7V312.2z M769.6,312.2h7v7h-7V312.2z M776.9,312.2h7v7h-7V312.2z
		 M784.1,312.2h7v7h-7V312.2z M791.4,312.2h7v7h-7V312.2z M798.7,312.2h7v7h-7V312.2z M805.9,312.2h7v7h-7V312.2z M813.2,312.2h7v7
		h-7V312.2z M718.8,319.4h7v7h-7V319.4z M726.1,319.4h7v7h-7V319.4z M733.3,319.4h7v7h-7V319.4z M740.6,319.4h7v7h-7V319.4z
		 M747.8,319.4h7v7h-7V319.4z M755.1,319.4h7v7h-7V319.4z M762.4,319.4h7v7h-7V319.4z M769.6,319.4h7v7h-7V319.4z M776.9,319.4h7v7
		h-7V319.4z M784.1,319.4h7v7h-7V319.4z M791.4,319.4h7v7h-7V319.4z M798.7,319.4h7v7h-7V319.4z M805.9,319.4h7v7h-7V319.4z
		 M813.2,319.4h7v7h-7V319.4z M820.4,319.4h7v7h-7V319.4z M711.5,326.7h7v7h-7V326.7z M718.8,326.7h7v7h-7V326.7z M726.1,326.7h7v7
		h-7V326.7z M733.3,326.7h7v7h-7V326.7z M740.6,326.7h7v7h-7V326.7z M747.8,326.7h7v7h-7V326.7z M755.1,326.7h7v7h-7V326.7z
		 M762.4,326.7h7v7h-7V326.7z M769.6,326.7h7v7h-7V326.7z M776.9,326.7h7v7h-7V326.7z M784.1,326.7h7v7h-7V326.7z M791.4,326.7h7v7
		h-7V326.7z M798.7,326.7h7v7h-7V326.7z M805.9,326.7h7v7h-7V326.7z M813.2,326.7h7v7h-7V326.7z M820.4,326.7h7v7h-7V326.7z
		 M827.7,326.7h7v7h-7V326.7z M711.5,334h7v7h-7V334z M718.8,334h7v7h-7V334z M726.1,334h7v7h-7V334z M733.3,334h7v7h-7V334z
		 M740.6,334h7v7h-7V334z M747.8,334h7v7h-7V334z M755.1,334h7v7h-7V334z M762.4,334h7v7h-7V334z M769.6,334h7v7h-7V334z M776.9,334
		h7v7h-7V334z M784.1,334h7v7h-7V334z M791.4,334h7v7h-7V334z M798.7,334h7v7h-7V334z M805.9,334h7v7h-7V334z M813.2,334h7v7h-7V334
		z M820.4,334h7v7h-7V334z M827.7,334h7v7h-7V334z M835,334h7v7h-7V334z M711.5,341.2h7v7h-7V341.2z M718.8,341.2h7v7h-7V341.2z
		 M726.1,341.2h7v7h-7V341.2z M733.3,341.2h7v7h-7V341.2z M740.6,341.2h7v7h-7V341.2z M747.8,341.2h7v7h-7V341.2z M755.1,341.2h7v7
		h-7V341.2z M762.4,341.2h7v7h-7V341.2z M769.6,341.2h7v7h-7V341.2z M776.9,341.2h7v7h-7V341.2z M784.1,341.2h7v7h-7V341.2z
		 M791.4,341.2h7v7h-7V341.2z M798.7,341.2h7v7h-7V341.2z M805.9,341.2h7v7h-7V341.2z M813.2,341.2h7v7h-7V341.2z M820.4,341.2h7v7
		h-7V341.2z M827.7,341.2h7v7h-7V341.2z M835,341.2h7v7h-7V341.2z M711.5,348.5h7v7h-7V348.5z M718.8,348.5h7v7h-7V348.5z
		 M726.1,348.5h7v7h-7V348.5z M733.3,348.5h7v7h-7V348.5z M740.6,348.5h7v7h-7V348.5z M747.8,348.5h7v7h-7V348.5z M755.1,348.5h7v7
		h-7V348.5z M762.4,348.5h7v7h-7V348.5z M769.6,348.5h7v7h-7V348.5z M776.9,348.5h7v7h-7V348.5z M784.1,348.5h7v7h-7V348.5z
		 M791.4,348.5h7v7h-7V348.5z M798.7,348.5h7v7h-7V348.5z M805.9,348.5h7v7h-7V348.5z M813.2,348.5h7v7h-7V348.5z M820.4,348.5h7v7
		h-7V348.5z M827.7,348.5h7v7h-7V348.5z M835,348.5h7v7h-7V348.5z M711.5,355.7h7v7h-7V355.7z M718.8,355.7h7v7h-7V355.7z
		 M726.1,355.7h7v7h-7V355.7z M733.3,355.7h7v7h-7V355.7z M740.6,355.7h7v7h-7V355.7z M747.8,355.7h7v7h-7V355.7z M755.1,355.7h7v7
		h-7V355.7z M762.4,355.7h7v7h-7V355.7z M769.6,355.7h7v7h-7V355.7z M776.9,355.7h7v7h-7V355.7z M784.1,355.7h7v7h-7V355.7z
		 M791.4,355.7h7v7h-7V355.7z M798.7,355.7h7v7h-7V355.7z M805.9,355.7h7v7h-7V355.7z M813.2,355.7h7v7h-7V355.7z M820.4,355.7h7v7
		h-7V355.7z M827.7,355.7h7v7h-7V355.7z M835,355.7h7v7h-7V355.7z M711.5,363h7v7h-7V363z M718.8,363h7v7h-7V363z M726.1,363h7v7h-7
		V363z M733.3,363h7v7h-7V363z M740.6,363h7v7h-7V363z M747.8,363h7v7h-7V363z M755.1,363h7v7h-7V363z M762.4,363h7v7h-7V363z
		 M769.6,363h7v7h-7V363z M776.9,363h7v7h-7V363z M784.1,363h7v7h-7V363z M791.4,363h7v7h-7V363z M798.7,363h7v7h-7V363z M805.9,363
		h7v7h-7V363z M813.2,363h7v7h-7V363z M820.4,363h7v7h-7V363z M827.7,363h7v7h-7V363z M835,363h7v7h-7V363z M711.5,370.3h7v7h-7
		V370.3z M718.8,370.3h7v7h-7V370.3z M726.1,370.3h7v7h-7V370.3z M733.3,370.3h7v7h-7V370.3z M740.6,370.3h7v7h-7V370.3z
		 M747.8,370.3h7v7h-7V370.3z M755.1,370.3h7v7h-7V370.3z M762.4,370.3h7v7h-7V370.3z M769.6,370.3h7v7h-7V370.3z M776.9,370.3h7v7
		h-7V370.3z M784.1,370.3h7v7h-7V370.3z M791.4,370.3h7v7h-7V370.3z M798.7,370.3h7v7h-7V370.3z M805.9,370.3h7v7h-7V370.3z
		 M813.2,370.3h7v7h-7V370.3z M820.4,370.3h7v7h-7V370.3z M827.7,370.3h7v7h-7V370.3z M835,370.3h7v7h-7V370.3z M711.5,377.5h7v7h-7
		V377.5z M718.8,377.5h7v7h-7V377.5z M726.1,377.5h7v7h-7V377.5z M733.3,377.5h7v7h-7V377.5z M740.6,377.5h7v7h-7V377.5z
		 M747.8,377.5h7v7h-7V377.5z M755.1,377.5h7v7h-7V377.5z M762.4,377.5h7v7h-7V377.5z M769.6,377.5h7v7h-7V377.5z M776.9,377.5h7v7
		h-7V377.5z M784.1,377.5h7v7h-7V377.5z M791.4,377.5h7v7h-7V377.5z M798.7,377.5h7v7h-7V377.5z M805.9,377.5h7v7h-7V377.5z
		 M813.2,377.5h7v7h-7V377.5z M820.4,377.5h7v7h-7V377.5z M827.7,377.5h7v7h-7V377.5z M835,377.5h7v7h-7V377.5z M842.2,377.5h7v7h-7
		V377.5z M704.3,384.8h7v7h-7V384.8z M711.5,384.8h7v7h-7V384.8z M718.8,384.8h7v7h-7V384.8z M726.1,384.8h7v7h-7V384.8z
		 M733.3,384.8h7v7h-7V384.8z M740.6,384.8h7v7h-7V384.8z M747.8,384.8h7v7h-7V384.8z M755.1,384.8h7v7h-7V384.8z M762.4,384.8h7v7
		h-7V384.8z M769.6,384.8h7v7h-7V384.8z M776.9,384.8h7v7h-7V384.8z M784.1,384.8h7v7h-7V384.8z M791.4,384.8h7v7h-7V384.8z
		 M798.7,384.8h7v7h-7V384.8z M805.9,384.8h7v7h-7V384.8z M813.2,384.8h7v7h-7V384.8z M820.4,384.8h7v7h-7V384.8z M827.7,384.8h7v7
		h-7V384.8z M835,384.8h7v7h-7V384.8z M842.2,384.8h7v7h-7V384.8z M704.3,392h7v7h-7V392z M711.5,392h7v7h-7V392z M718.8,392h7v7h-7
		V392z M726.1,392h7v7h-7V392z M733.3,392h7v7h-7V392z M740.6,392h7v7h-7V392z M747.8,392h7v7h-7V392z M755.1,392h7v7h-7V392z
		 M762.4,392h7v7h-7V392z M769.6,392h7v7h-7V392z M776.9,392h7v7h-7V392z M784.1,392h7v7h-7V392z M791.4,392h7v7h-7V392z M798.7,392
		h7v7h-7V392z M805.9,392h7v7h-7V392z M813.2,392h7v7h-7V392z M820.4,392h7v7h-7V392z M827.7,392h7v7h-7V392z M835,392h7v7h-7V392z
		 M842.2,392h7v7h-7V392z M704.3,399.3h7v7h-7V399.3z M711.5,399.3h7v7h-7V399.3z M718.8,399.3h7v7h-7V399.3z M726.1,399.3h7v7h-7
		V399.3z M733.3,399.3h7v7h-7V399.3z M740.6,399.3h7v7h-7V399.3z M747.8,399.3h7v7h-7V399.3z M755.1,399.3h7v7h-7V399.3z
		 M762.4,399.3h7v7h-7V399.3z M769.6,399.3h7v7h-7V399.3z M776.9,399.3h7v7h-7V399.3z M784.1,399.3h7v7h-7V399.3z M791.4,399.3h7v7
		h-7V399.3z M798.7,399.3h7v7h-7V399.3z M805.9,399.3h7v7h-7V399.3z M813.2,399.3h7v7h-7V399.3z M820.4,399.3h7v7h-7V399.3z
		 M827.7,399.3h7v7h-7V399.3z M835,399.3h7v7h-7V399.3z M842.2,399.3h7v7h-7V399.3z M704.3,406.6h7v7h-7V406.6z M711.5,406.6h7v7h-7
		V406.6z M718.8,406.6h7v7h-7V406.6z M726.1,406.6h7v7h-7V406.6z M733.3,406.6h7v7h-7V406.6z M740.6,406.6h7v7h-7V406.6z
		 M747.8,406.6h7v7h-7V406.6z M755.1,406.6h7v7h-7V406.6z M762.4,406.6h7v7h-7V406.6z M769.6,406.6h7v7h-7V406.6z M776.9,406.6h7v7
		h-7V406.6z M784.1,406.6h7v7h-7V406.6z M791.4,406.6h7v7h-7V406.6z M798.7,406.6h7v7h-7V406.6z M805.9,406.6h7v7h-7V406.6z
		 M813.2,406.6h7v7h-7V406.6z M820.4,406.6h7v7h-7V406.6z M827.7,406.6h7v7h-7V406.6z M835,406.6h7v7h-7V406.6z M842.2,406.6h7v7h-7
		V406.6z M704.3,413.8h7v7h-7V413.8z M711.5,413.8h7v7h-7V413.8z M718.8,413.8h7v7h-7V413.8z M726.1,413.8h7v7h-7V413.8z
		 M733.3,413.8h7v7h-7V413.8z M740.6,413.8h7v7h-7V413.8z M747.8,413.8h7v7h-7V413.8z M755.1,413.8h7v7h-7V413.8z M762.4,413.8h7v7
		h-7V413.8z M769.6,413.8h7v7h-7V413.8z M776.9,413.8h7v7h-7V413.8z M784.1,413.8h7v7h-7V413.8z M791.4,413.8h7v7h-7V413.8z
		 M798.7,413.8h7v7h-7V413.8z M805.9,413.8h7v7h-7V413.8z M813.2,413.8h7v7h-7V413.8z M820.4,413.8h7v7h-7V413.8z M827.7,413.8h7v7
		h-7V413.8z M835,413.8h7v7h-7V413.8z M842.2,413.8h7v7h-7V413.8z M704.3,421.1h7v7h-7V421.1z M711.5,421.1h7v7h-7V421.1z
		 M718.8,421.1h7v7h-7V421.1z M726.1,421.1h7v7h-7V421.1z M733.3,421.1h7v7h-7V421.1z M740.6,421.1h7v7h-7V421.1z M747.8,421.1h7v7
		h-7V421.1z M755.1,421.1h7v7h-7V421.1z M762.4,421.1h7v7h-7V421.1z M769.6,421.1h7v7h-7V421.1z M776.9,421.1h7v7h-7V421.1z
		 M784.1,421.1h7v7h-7V421.1z M791.4,421.1h7v7h-7V421.1z M798.7,421.1h7v7h-7V421.1z M805.9,421.1h7v7h-7V421.1z M813.2,421.1h7v7
		h-7V421.1z M820.4,421.1h7v7h-7V421.1z M827.7,421.1h7v7h-7V421.1z M835,421.1h7v7h-7V421.1z M842.2,421.1h7v7h-7V421.1z
		 M704.3,428.3h7v7h-7V428.3z M711.5,428.3h7v7h-7V428.3z M718.8,428.3h7v7h-7V428.3z M726.1,428.3h7v7h-7V428.3z M733.3,428.3h7v7
		h-7V428.3z M740.6,428.3h7v7h-7V428.3z M747.8,428.3h7v7h-7V428.3z M755.1,428.3h7v7h-7V428.3z M762.4,428.3h7v7h-7V428.3z
		 M769.6,428.3h7v7h-7V428.3z M776.9,428.3h7v7h-7V428.3z M784.1,428.3h7v7h-7V428.3z M791.4,428.3h7v7h-7V428.3z M798.7,428.3h7v7
		h-7V428.3z M805.9,428.3h7v7h-7V428.3z M813.2,428.3h7v7h-7V428.3z M820.4,428.3h7v7h-7V428.3z M827.7,428.3h7v7h-7V428.3z
		 M835,428.3h7v7h-7V428.3z M842.2,428.3h7v7h-7V428.3z M704.3,435.6h7v7h-7V435.6z M711.5,435.6h7v7h-7V435.6z M718.8,435.6h7v7h-7
		V435.6z M726.1,435.6h7v7h-7V435.6z M733.3,435.6h7v7h-7V435.6z M740.6,435.6h7v7h-7V435.6z M747.8,435.6h7v7h-7V435.6z
		 M755.1,435.6h7v7h-7V435.6z M762.4,435.6h7v7h-7V435.6z M769.6,435.6h7v7h-7V435.6z M776.9,435.6h7v7h-7V435.6z M784.1,435.6h7v7
		h-7V435.6z M791.4,435.6h7v7h-7V435.6z M798.7,435.6h7v7h-7V435.6z M805.9,435.6h7v7h-7V435.6z M813.2,435.6h7v7h-7V435.6z
		 M820.4,435.6h7v7h-7V435.6z M827.7,435.6h7v7h-7V435.6z M835,435.6h7v7h-7V435.6z M842.2,435.6h7v7h-7V435.6z M711.5,442.9h7v7h-7
		V442.9z M718.8,442.9h7v7h-7V442.9z M726.1,442.9h7v7h-7V442.9z M733.3,442.9h7v7h-7V442.9z M740.6,442.9h7v7h-7V442.9z
		 M747.8,442.9h7v7h-7V442.9z M755.1,442.9h7v7h-7V442.9z M762.4,442.9h7v7h-7V442.9z M769.6,442.9h7v7h-7V442.9z M776.9,442.9h7v7
		h-7V442.9z M784.1,442.9h7v7h-7V442.9z M791.4,442.9h7v7h-7V442.9z M798.7,442.9h7v7h-7V442.9z M805.9,442.9h7v7h-7V442.9z
		 M813.2,442.9h7v7h-7V442.9z M820.4,442.9h7v7h-7V442.9z M827.7,442.9h7v7h-7V442.9z M835,442.9h7v7h-7V442.9z M842.2,442.9h7v7h-7
		V442.9z M704.3,450.1h7v7h-7V450.1z M711.5,450.1h7v7h-7V450.1z M718.8,450.1h7v7h-7V450.1z M726.1,450.1h7v7h-7V450.1z
		 M733.3,450.1h7v7h-7V450.1z M740.6,450.1h7v7h-7V450.1z M747.8,450.1h7v7h-7V450.1z M755.1,450.1h7v7h-7V450.1z M762.4,450.1h7v7
		h-7V450.1z M769.6,450.1h7v7h-7V450.1z M776.9,450.1h7v7h-7V450.1z M784.1,450.1h7v7h-7V450.1z M791.4,450.1h7v7h-7V450.1z
		 M798.7,450.1h7v7h-7V450.1z M805.9,450.1h7v7h-7V450.1z M813.2,450.1h7v7h-7V450.1z M820.4,450.1h7v7h-7V450.1z M827.7,450.1h7v7
		h-7V450.1z M835,450.1h7v7h-7V450.1z M842.2,450.1h7v7h-7V450.1z M711.5,457.4h7v7h-7V457.4z M718.8,457.4h7v7h-7V457.4z
		 M726.1,457.4h7v7h-7V457.4z M733.3,457.4h7v7h-7V457.4z M740.6,457.4h7v7h-7V457.4z M747.8,457.4h7v7h-7V457.4z M755.1,457.4h7v7
		h-7V457.4z M762.4,457.4h7v7h-7V457.4z M769.6,457.4h7v7h-7V457.4z M776.9,457.4h7v7h-7V457.4z M784.1,457.4h7v7h-7V457.4z
		 M791.4,457.4h7v7h-7V457.4z M798.7,457.4h7v7h-7V457.4z M805.9,457.4h7v7h-7V457.4z M813.2,457.4h7v7h-7V457.4z M820.4,457.4h7v7
		h-7V457.4z M827.7,457.4h7v7h-7V457.4z M835,457.4h7v7h-7V457.4z M842.2,457.4h7v7h-7V457.4z M711.5,464.6h7v7h-7V464.6z
		 M718.8,464.6h7v7h-7V464.6z M726.1,464.6h7v7h-7V464.6z M733.3,464.6h7v7h-7V464.6z M740.6,464.6h7v7h-7V464.6z M747.8,464.6h7v7
		h-7V464.6z M755.1,464.6h7v7h-7V464.6z M762.4,464.6h7v7h-7V464.6z M769.6,464.6h7v7h-7V464.6z M776.9,464.6h7v7h-7V464.6z
		 M784.1,464.6h7v7h-7V464.6z M791.4,464.6h7v7h-7V464.6z M798.7,464.6h7v7h-7V464.6z M805.9,464.6h7v7h-7V464.6z M813.2,464.6h7v7
		h-7V464.6z M820.4,464.6h7v7h-7V464.6z M827.7,464.6h7v7h-7V464.6z M835,464.6h7v7h-7V464.6z M842.2,464.6h7v7h-7V464.6z
		 M711.5,471.9h7v7h-7V471.9z M718.8,471.9h7v7h-7V471.9z M726.1,471.9h7v7h-7V471.9z M733.3,471.9h7v7h-7V471.9z M740.6,471.9h7v7
		h-7V471.9z M747.8,471.9h7v7h-7V471.9z M755.1,471.9h7v7h-7V471.9z M762.4,471.9h7v7h-7V471.9z M769.6,471.9h7v7h-7V471.9z
		 M776.9,471.9h7v7h-7V471.9z M784.1,471.9h7v7h-7V471.9z M791.4,471.9h7v7h-7V471.9z M798.7,471.9h7v7h-7V471.9z M805.9,471.9h7v7
		h-7V471.9z M813.2,471.9h7v7h-7V471.9z M820.4,471.9h7v7h-7V471.9z M827.7,471.9h7v7h-7V471.9z M835,471.9h7v7h-7V471.9z
		 M842.2,471.9h7v7h-7V471.9z M711.5,479.2h7v7h-7V479.2z M718.8,479.2h7v7h-7V479.2z M726.1,479.2h7v7h-7V479.2z M733.3,479.2h7v7
		h-7V479.2z M740.6,479.2h7v7h-7V479.2z M747.8,479.2h7v7h-7V479.2z M755.1,479.2h7v7h-7V479.2z M762.4,479.2h7v7h-7V479.2z
		 M769.6,479.2h7v7h-7V479.2z M776.9,479.2h7v7h-7V479.2z M784.1,479.2h7v7h-7V479.2z M791.4,479.2h7v7h-7V479.2z M798.7,479.2h7v7
		h-7V479.2z M805.9,479.2h7v7h-7V479.2z M813.2,479.2h7v7h-7V479.2z M820.4,479.2h7v7h-7V479.2z M827.7,479.2h7v7h-7V479.2z
		 M835,479.2h7v7h-7V479.2z M842.2,479.2h7v7h-7V479.2z M718.8,486.4h7v7h-7V486.4z M726.1,486.4h7v7h-7V486.4z M733.3,486.4h7v7h-7
		V486.4z M740.6,486.4h7v7h-7V486.4z M747.8,486.4h7v7h-7V486.4z M755.1,486.4h7v7h-7V486.4z M762.4,486.4h7v7h-7V486.4z
		 M769.6,486.4h7v7h-7V486.4z M776.9,486.4h7v7h-7V486.4z M784.1,486.4h7v7h-7V486.4z M791.4,486.4h7v7h-7V486.4z M798.7,486.4h7v7
		h-7V486.4z M805.9,486.4h7v7h-7V486.4z M813.2,486.4h7v7h-7V486.4z M820.4,486.4h7v7h-7V486.4z M827.7,486.4h7v7h-7V486.4z
		 M835,486.4h7v7h-7V486.4z M842.2,486.4h7v7h-7V486.4z M718.8,493.7h7v7h-7V493.7z M726.1,493.7h7v7h-7V493.7z M733.3,493.7h7v7h-7
		V493.7z M740.6,493.7h7v7h-7V493.7z M747.8,493.7h7v7h-7V493.7z M755.1,493.7h7v7h-7V493.7z M762.4,493.7h7v7h-7V493.7z
		 M769.6,493.7h7v7h-7V493.7z M776.9,493.7h7v7h-7V493.7z M784.1,493.7h7v7h-7V493.7z M791.4,493.7h7v7h-7V493.7z M798.7,493.7h7v7
		h-7V493.7z M805.9,493.7h7v7h-7V493.7z M813.2,493.7h7v7h-7V493.7z M820.4,493.7h7v7h-7V493.7z M827.7,493.7h7v7h-7V493.7z
		 M835,493.7h7v7h-7V493.7z M842.2,493.7h7v7h-7V493.7z M726.1,500.9h7v7h-7V500.9z M733.3,500.9h7v7h-7V500.9z M740.6,500.9h7v7h-7
		V500.9z M747.8,500.9h7v7h-7V500.9z M755.1,500.9h7v7h-7V500.9z M762.4,500.9h7v7h-7V500.9z M769.6,500.9h7v7h-7V500.9z
		 M776.9,500.9h7v7h-7V500.9z M784.1,500.9h7v7h-7V500.9z M791.4,500.9h7v7h-7V500.9z M798.7,500.9h7v7h-7V500.9z M805.9,500.9h7v7
		h-7V500.9z M813.2,500.9h7v7h-7V500.9z M820.4,500.9h7v7h-7V500.9z M827.7,500.9h7v7h-7V500.9z M835,500.9h7v7h-7V500.9z
		 M842.2,500.9h7v7h-7V500.9z M849.5,500.9h7v7h-7V500.9z M726.1,508.2h7v7h-7V508.2z M733.3,508.2h7v7h-7V508.2z M740.6,508.2h7v7
		h-7V508.2z M747.8,508.2h7v7h-7V508.2z M755.1,508.2h7v7h-7V508.2z M762.4,508.2h7v7h-7V508.2z M769.6,508.2h7v7h-7V508.2z
		 M776.9,508.2h7v7h-7V508.2z M784.1,508.2h7v7h-7V508.2z M791.4,508.2h7v7h-7V508.2z M798.7,508.2h7v7h-7V508.2z M805.9,508.2h7v7
		h-7V508.2z M813.2,508.2h7v7h-7V508.2z M820.4,508.2h7v7h-7V508.2z M827.7,508.2h7v7h-7V508.2z M835,508.2h7v7h-7V508.2z
		 M842.2,508.2h7v7h-7V508.2z M849.5,508.2h7v7h-7V508.2z M726.1,515.5h7v7h-7V515.5z M733.3,515.5h7v7h-7V515.5z M740.6,515.5h7v7
		h-7V515.5z M747.8,515.5h7v7h-7V515.5z M755.1,515.5h7v7h-7V515.5z M762.4,515.5h7v7h-7V515.5z M769.6,515.5h7v7h-7V515.5z
		 M776.9,515.5h7v7h-7V515.5z M784.1,515.5h7v7h-7V515.5z M791.4,515.5h7v7h-7V515.5z M798.7,515.5h7v7h-7V515.5z M805.9,515.5h7v7
		h-7V515.5z M813.2,515.5h7v7h-7V515.5z M820.4,515.5h7v7h-7V515.5z M827.7,515.5h7v7h-7V515.5z M835,515.5h7v7h-7V515.5z
		 M842.2,515.5h7v7h-7V515.5z M849.5,515.5h7v7h-7V515.5z M726.1,522.7h7v7h-7V522.7z M733.3,522.7h7v7h-7V522.7z M740.6,522.7h7v7
		h-7V522.7z M747.8,522.7h7v7h-7V522.7z M755.1,522.7h7v7h-7V522.7z M762.4,522.7h7v7h-7V522.7z M769.6,522.7h7v7h-7V522.7z
		 M776.9,522.7h7v7h-7V522.7z M784.1,522.7h7v7h-7V522.7z M791.4,522.7h7v7h-7V522.7z M798.7,522.7h7v7h-7V522.7z M805.9,522.7h7v7
		h-7V522.7z M813.2,522.7h7v7h-7V522.7z M820.4,522.7h7v7h-7V522.7z M827.7,522.7h7v7h-7V522.7z M835,522.7h7v7h-7V522.7z
		 M842.2,522.7h7v7h-7V522.7z M849.5,522.7h7v7h-7V522.7z M726.1,530h7v7h-7V530z M733.3,530h7v7h-7V530z M740.6,530h7v7h-7V530z
		 M747.8,530h7v7h-7V530z M755.1,530h7v7h-7V530z M762.4,530h7v7h-7V530z M769.6,530h7v7h-7V530z M776.9,530h7v7h-7V530z M784.1,530
		h7v7h-7V530z M791.4,530h7v7h-7V530z M798.7,530h7v7h-7V530z M805.9,530h7v7h-7V530z M813.2,530h7v7h-7V530z M820.4,530h7v7h-7V530
		z M827.7,530h7v7h-7V530z M835,530h7v7h-7V530z M842.2,530h7v7h-7V530z M849.5,530h7v7h-7V530z M856.7,530h7v7h-7V530z
		 M726.1,537.2h7v7h-7V537.2z M733.3,537.2h7v7h-7V537.2z M740.6,537.2h7v7h-7V537.2z M747.8,537.2h7v7h-7V537.2z M755.1,537.2h7v7
		h-7V537.2z M762.4,537.2h7v7h-7V537.2z M769.6,537.2h7v7h-7V537.2z M776.9,537.2h7v7h-7V537.2z M784.1,537.2h7v7h-7V537.2z
		 M791.4,537.2h7v7h-7V537.2z M798.7,537.2h7v7h-7V537.2z M805.9,537.2h7v7h-7V537.2z M813.2,537.2h7v7h-7V537.2z M820.4,537.2h7v7
		h-7V537.2z M827.7,537.2h7v7h-7V537.2z M835,537.2h7v7h-7V537.2z M842.2,537.2h7v7h-7V537.2z M849.5,537.2h7v7h-7V537.2z
		 M856.7,537.2h7v7h-7V537.2z M718.8,544.5h7v7h-7V544.5z M726.1,544.5h7v7h-7V544.5z M733.3,544.5h7v7h-7V544.5z M740.6,544.5h7v7
		h-7V544.5z M747.8,544.5h7v7h-7V544.5z M755.1,544.5h7v7h-7V544.5z M762.4,544.5h7v7h-7V544.5z M769.6,544.5h7v7h-7V544.5z
		 M776.9,544.5h7v7h-7V544.5z M784.1,544.5h7v7h-7V544.5z M791.4,544.5h7v7h-7V544.5z M798.7,544.5h7v7h-7V544.5z M805.9,544.5h7v7
		h-7V544.5z M813.2,544.5h7v7h-7V544.5z M820.4,544.5h7v7h-7V544.5z M827.7,544.5h7v7h-7V544.5z M835,544.5h7v7h-7V544.5z
		 M842.2,544.5h7v7h-7V544.5z M849.5,544.5h7v7h-7V544.5z M856.7,544.5h7v7h-7V544.5z M718.8,551.8h7v7h-7V551.8z M726.1,551.8h7v7
		h-7V551.8z M733.3,551.8h7v7h-7V551.8z M740.6,551.8h7v7h-7V551.8z M747.8,551.8h7v7h-7V551.8z M755.1,551.8h7v7h-7V551.8z
		 M762.4,551.8h7v7h-7V551.8z M769.6,551.8h7v7h-7V551.8z M776.9,551.8h7v7h-7V551.8z M784.1,551.8h7v7h-7V551.8z M791.4,551.8h7v7
		h-7V551.8z M798.7,551.8h7v7h-7V551.8z M805.9,551.8h7v7h-7V551.8z M813.2,551.8h7v7h-7V551.8z M820.4,551.8h7v7h-7V551.8z
		 M827.7,551.8h7v7h-7V551.8z M835,551.8h7v7h-7V551.8z M842.2,551.8h7v7h-7V551.8z M849.5,551.8h7v7h-7V551.8z M856.7,551.8h7v7h-7
		V551.8z M718.8,559h7v7h-7V559z M726.1,559h7v7h-7V559z M733.3,559h7v7h-7V559z M740.6,559h7v7h-7V559z M747.8,559h7v7h-7V559z
		 M755.1,559h7v7h-7V559z M762.4,559h7v7h-7V559z M769.6,559h7v7h-7V559z M776.9,559h7v7h-7V559z M784.1,559h7v7h-7V559z M791.4,559
		h7v7h-7V559z M798.7,559h7v7h-7V559z M805.9,559h7v7h-7V559z M813.2,559h7v7h-7V559z M820.4,559h7v7h-7V559z M827.7,559h7v7h-7V559
		z M835,559h7v7h-7V559z M842.2,559h7v7h-7V559z M849.5,559h7v7h-7V559z M856.7,559h7v7h-7V559z M718.8,566.3h7v7h-7V566.3z
		 M726.1,566.3h7v7h-7V566.3z M733.3,566.3h7v7h-7V566.3z M740.6,566.3h7v7h-7V566.3z M747.8,566.3h7v7h-7V566.3z M755.1,566.3h7v7
		h-7V566.3z M762.4,566.3h7v7h-7V566.3z M769.6,566.3h7v7h-7V566.3z M776.9,566.3h7v7h-7V566.3z M784.1,566.3h7v7h-7V566.3z
		 M791.4,566.3h7v7h-7V566.3z M798.7,566.3h7v7h-7V566.3z M805.9,566.3h7v7h-7V566.3z M813.2,566.3h7v7h-7V566.3z M820.4,566.3h7v7
		h-7V566.3z M827.7,566.3h7v7h-7V566.3z M835,566.3h7v7h-7V566.3z M842.2,566.3h7v7h-7V566.3z M849.5,566.3h7v7h-7V566.3z
		 M856.7,566.3h7v7h-7V566.3z M864,566.3h7v7h-7V566.3z M718.8,573.5h7v7h-7V573.5z M726.1,573.5h7v7h-7V573.5z M733.3,573.5h7v7h-7
		V573.5z M740.6,573.5h7v7h-7V573.5z M747.8,573.5h7v7h-7V573.5z M755.1,573.5h7v7h-7V573.5z M762.4,573.5h7v7h-7V573.5z
		 M769.6,573.5h7v7h-7V573.5z M776.9,573.5h7v7h-7V573.5z M784.1,573.5h7v7h-7V573.5z M791.4,573.5h7v7h-7V573.5z M798.7,573.5h7v7
		h-7V573.5z M805.9,573.5h7v7h-7V573.5z M813.2,573.5h7v7h-7V573.5z M820.4,573.5h7v7h-7V573.5z M827.7,573.5h7v7h-7V573.5z
		 M835,573.5h7v7h-7V573.5z M842.2,573.5h7v7h-7V573.5z M849.5,573.5h7v7h-7V573.5z M856.7,573.5h7v7h-7V573.5z M864,573.5h7v7h-7
		V573.5z M718.8,580.8h7v7h-7V580.8z M726.1,580.8h7v7h-7V580.8z M733.3,580.8h7v7h-7V580.8z M740.6,580.8h7v7h-7V580.8z
		 M747.8,580.8h7v7h-7V580.8z M755.1,580.8h7v7h-7V580.8z M762.4,580.8h7v7h-7V580.8z M769.6,580.8h7v7h-7V580.8z M776.9,580.8h7v7
		h-7V580.8z M784.1,580.8h7v7h-7V580.8z M791.4,580.8h7v7h-7V580.8z M798.7,580.8h7v7h-7V580.8z M805.9,580.8h7v7h-7V580.8z
		 M813.2,580.8h7v7h-7V580.8z M820.4,580.8h7v7h-7V580.8z M827.7,580.8h7v7h-7V580.8z M835,580.8h7v7h-7V580.8z M842.2,580.8h7v7h-7
		V580.8z M849.5,580.8h7v7h-7V580.8z M856.7,580.8h7v7h-7V580.8z M864,580.8h7v7h-7V580.8z M718.8,588.1h7v7h-7V588.1z M711.5,566.3
		h7v7h-7V566.3z M711.5,573.5h7v7h-7V573.5z M711.5,580.8h7v7h-7V580.8z M711.5,588.1h7v7h-7V588.1z M726.1,588.1h7v7h-7V588.1z
		 M733.3,588.1h7v7h-7V588.1z M740.6,588.1h7v7h-7V588.1z M747.8,588.1h7v7h-7V588.1z M755.1,588.1h7v7h-7V588.1z M762.4,588.1h7v7
		h-7V588.1z M769.6,588.1h7v7h-7V588.1z M776.9,588.1h7v7h-7V588.1z M784.1,588.1h7v7h-7V588.1z M791.4,588.1h7v7h-7V588.1z
		 M798.7,588.1h7v7h-7V588.1z M805.9,588.1h7v7h-7V588.1z M813.2,588.1h7v7h-7V588.1z M820.4,588.1h7v7h-7V588.1z M827.7,588.1h7v7
		h-7V588.1z M835,588.1h7v7h-7V588.1z M842.2,588.1h7v7h-7V588.1z M849.5,588.1h7v7h-7V588.1z M856.7,588.1h7v7h-7V588.1z
		 M864,588.1h7v7h-7V588.1z"/>
</g>
</svg>
