<?xml version="1.0" encoding="utf-8" ?>
<svg baseProfile="full" height="590px" version="1.1" width="871px" xmlns="http://www.w3.org/2000/svg" xmlns:ev="http://www.w3.org/2001/xml-events" xmlns:xlink="http://www.w3.org/1999/xlink"><defs /><path d="M377.51999999999975,7.26 h7 v7 h-7 Z M399.2999999999997,7.26 h7 v7 h-7 Z M413.8199999999997,7.26 h7 v7 h-7 Z M421.0799999999997,7.26 h7 v7 h-7 Z M428.3399999999997,7.26 h7 v7 h-7 Z M377.51999999999975,14.52 h7 v7 h-7 Z M384.77999999999975,14.52 h7 v7 h-7 Z M392.03999999999974,14.52 h7 v7 h-7 Z M399.2999999999997,14.52 h7 v7 h-7 Z M406.5599999999997,14.52 h7 v7 h-7 Z M413.8199999999997,14.52 h7 v7 h-7 Z M421.0799999999997,14.52 h7 v7 h-7 Z M428.3399999999997,14.52 h7 v7 h-7 Z M435.5999999999997,14.52 h7 v7 h-7 Z M442.8599999999997,14.52 h7 v7 h-7 Z M450.11999999999966,14.52 h7 v7 h-7 Z M457.37999999999965,14.52 h7 v7 h-7 Z M464.63999999999965,14.52 h7 v7 h-7 Z M370.25999999999976,21.78 h7 v7 h-7 Z M377.51999999999975,21.78 h7 v7 h-7 Z M384.77999999999975,21.78 h7 v7 h-7 Z M392.03999999999974,21.78 h7 v7 h-7 Z M399.2999999999997,21.78 h7 v7 h-7 Z M406.5599999999997,21.78 h7 v7 h-7 Z M413.8199999999997,21.78 h7 v7 h-7 Z M421.0799999999997,21.78 h7 v7 h-7 Z M428.3399999999997,21.78 h7 v7 h-7 Z M435.5999999999997,21.78 h7 v7 h-7 Z M442.8599999999997,21.78 h7 v7 h-7 Z M450.11999999999966,21.78 h7 v7 h-7 Z M457.37999999999965,21.78 h7 v7 h-7 Z M464.63999999999965,21.78 h7 v7 h-7 Z M471.89999999999964,21.78 h7 v7 h-7 Z M355.7399999999998,29.04 h7 v7 h-7 Z M362.9999999999998,29.04 h7 v7 h-7 Z M370.25999999999976,29.04 h7 v7 h-7 Z M377.51999999999975,29.04 h7 v7 h-7 Z M384.77999999999975,29.04 h7 v7 h-7 Z M392.03999999999974,29.04 h7 v7 h-7 Z M435.5999999999997,29.04 h7 v7 h-7 Z M442.8599999999997,29.04 h7 v7 h-7 Z M450.11999999999966,29.04 h7 v7 h-7 Z M457.37999999999965,29.04 h7 v7 h-7 Z M464.63999999999965,29.04 h7 v7 h-7 Z M471.89999999999964,29.04 h7 v7 h-7 Z M479.1599999999996,29.04 h7 v7 h-7 Z M486.4199999999996,29.04 h7 v7 h-7 Z M341.2199999999998,36.3 h7 v7 h-7 Z M348.4799999999998,36.3 h7 v7 h-7 Z M355.7399999999998,36.3 h7 v7 h-7 Z M362.9999999999998,36.3 h7 v7 h-7 Z M370.25999999999976,36.3 h7 v7 h-7 Z M384.77999999999975,36.3 h7 v7 h-7 Z M392.03999999999974,36.3 h7 v7 h-7 Z M442.8599999999997,36.3 h7 v7 h-7 Z M450.11999999999966,36.3 h7 v7 h-7 Z M471.89999999999964,36.3 h7 v7 h-7 Z M479.1599999999996,36.3 h7 v7 h-7 Z M486.4199999999996,36.3 h7 v7 h-7 Z M493.6799999999996,36.3 h7 v7 h-7 Z M333.9599999999998,43.559999999999995 h7 v7 h-7 Z M341.2199999999998,43.559999999999995 h7 v7 h-7 Z M348.4799999999998,43.559999999999995 h7 v7 h-7 Z M355.7399999999998,43.559999999999995 h7 v7 h-7 Z M362.9999999999998,43.559999999999995 h7 v7 h-7 Z M370.25999999999976,43.559999999999995 h7 v7 h-7 Z M450.11999999999966,43.559999999999995 h7 v7 h-7 Z M479.1599999999996,43.559999999999995 h7 v7 h-7 Z M486.4199999999996,43.559999999999995 h7 v7 h-7 Z M493.6799999999996,43.559999999999995 h7 v7 h-7 Z M500.9399999999996,43.559999999999995 h7 v7 h-7 Z M333.9599999999998,50.81999999999999 h7 v7 h-7 Z M341.2199999999998,50.81999999999999 h7 v7 h-7 Z M362.9999999999998,50.81999999999999 h7 v7 h-7 Z M457.37999999999965,50.81999999999999 h7 v7 h-7 Z M486.4199999999996,50.81999999999999 h7 v7 h-7 Z M493.6799999999996,50.81999999999999 h7 v7 h-7 Z M500.9399999999996,50.81999999999999 h7 v7 h-7 Z M326.6999999999998,58.07999999999999 h7 v7 h-7 Z M333.9599999999998,58.07999999999999 h7 v7 h-7 Z M341.2199999999998,58.07999999999999 h7 v7 h-7 Z M362.9999999999998,58.07999999999999 h7 v7 h-7 Z M457.37999999999965,58.07999999999999 h7 v7 h-7 Z M493.6799999999996,58.07999999999999 h7 v7 h-7 Z M500.9399999999996,58.07999999999999 h7 v7 h-7 Z M508.1999999999996,58.07999999999999 h7 v7 h-7 Z M304.91999999999985,65.33999999999999 h7 v7 h-7 Z M312.17999999999984,65.33999999999999 h7 v7 h-7 Z M319.4399999999998,65.33999999999999 h7 v7 h-7 Z M326.6999999999998,65.33999999999999 h7 v7 h-7 Z M333.9599999999998,65.33999999999999 h7 v7 h-7 Z M464.63999999999965,65.33999999999999 h7 v7 h-7 Z M493.6799999999996,65.33999999999999 h7 v7 h-7 Z M500.9399999999996,65.33999999999999 h7 v7 h-7 Z M508.1999999999996,65.33999999999999 h7 v7 h-7 Z M515.4599999999996,65.33999999999999 h7 v7 h-7 Z M522.7199999999996,65.33999999999999 h7 v7 h-7 Z M312.17999999999984,72.6 h7 v7 h-7 Z M319.4399999999998,72.6 h7 v7 h-7 Z M326.6999999999998,72.6 h7 v7 h-7 Z M355.7399999999998,72.6 h7 v7 h-7 Z M464.63999999999965,72.6 h7 v7 h-7 Z M500.9399999999996,72.6 h7 v7 h-7 Z M508.1999999999996,72.6 h7 v7 h-7 Z M537.2399999999996,72.6 h7 v7 h-7 Z M544.4999999999995,72.6 h7 v7 h-7 Z M551.7599999999995,72.6 h7 v7 h-7 Z M319.4399999999998,79.86 h7 v7 h-7 Z M326.6999999999998,79.86 h7 v7 h-7 Z M355.7399999999998,79.86 h7 v7 h-7 Z M464.63999999999965,79.86 h7 v7 h-7 Z M500.9399999999996,79.86 h7 v7 h-7 Z M508.1999999999996,79.86 h7 v7 h-7 Z M529.9799999999996,79.86 h7 v7 h-7 Z M537.2399999999996,79.86 h7 v7 h-7 Z M544.4999999999995,79.86 h7 v7 h-7 Z M312.17999999999984,87.12 h7 v7 h-7 Z M319.4399999999998,87.12 h7 v7 h-7 Z M326.6999999999998,87.12 h7 v7 h-7 Z M355.7399999999998,87.12 h7 v7 h-7 Z M464.63999999999965,87.12 h7 v7 h-7 Z M471.89999999999964,87.12 h7 v7 h-7 Z M500.9399999999996,87.12 h7 v7 h-7 Z M508.1999999999996,87.12 h7 v7 h-7 Z M515.4599999999996,87.12 h7 v7 h-7 Z M522.7199999999996,87.12 h7 v7 h-7 Z M529.9799999999996,87.12 h7 v7 h-7 Z M312.17999999999984,94.38000000000001 h7 v7 h-7 Z M319.4399999999998,94.38000000000001 h7 v7 h-7 Z M355.7399999999998,94.38000000000001 h7 v7 h-7 Z M362.9999999999998,94.38000000000001 h7 v7 h-7 Z M370.25999999999976,94.38000000000001 h7 v7 h-7 Z M377.51999999999975,94.38000000000001 h7 v7 h-7 Z M384.77999999999975,94.38000000000001 h7 v7 h-7 Z M413.8199999999997,94.38000000000001 h7 v7 h-7 Z M450.11999999999966,94.38000000000001 h7 v7 h-7 Z M457.37999999999965,94.38000000000001 h7 v7 h-7 Z M464.63999999999965,94.38000000000001 h7 v7 h-7 Z M471.89999999999964,94.38000000000001 h7 v7 h-7 Z M500.9399999999996,94.38000000000001 h7 v7 h-7 Z M508.1999999999996,94.38000000000001 h7 v7 h-7 Z M515.4599999999996,94.38000000000001 h7 v7 h-7 Z M312.17999999999984,101.64000000000001 h7 v7 h-7 Z M319.4399999999998,101.64000000000001 h7 v7 h-7 Z M348.4799999999998,101.64000000000001 h7 v7 h-7 Z M355.7399999999998,101.64000000000001 h7 v7 h-7 Z M362.9999999999998,101.64000000000001 h7 v7 h-7 Z M370.25999999999976,101.64000000000001 h7 v7 h-7 Z M377.51999999999975,101.64000000000001 h7 v7 h-7 Z M384.77999999999975,101.64000000000001 h7 v7 h-7 Z M392.03999999999974,101.64000000000001 h7 v7 h-7 Z M413.8199999999997,101.64000000000001 h7 v7 h-7 Z M442.8599999999997,101.64000000000001 h7 v7 h-7 Z M450.11999999999966,101.64000000000001 h7 v7 h-7 Z M457.37999999999965,101.64000000000001 h7 v7 h-7 Z M464.63999999999965,101.64000000000001 h7 v7 h-7 Z M471.89999999999964,101.64000000000001 h7 v7 h-7 Z M479.1599999999996,101.64000000000001 h7 v7 h-7 Z M500.9399999999996,101.64000000000001 h7 v7 h-7 Z M508.1999999999996,101.64000000000001 h7 v7 h-7 Z M515.4599999999996,101.64000000000001 h7 v7 h-7 Z M312.17999999999984,108.90000000000002 h7 v7 h-7 Z M319.4399999999998,108.90000000000002 h7 v7 h-7 Z M341.2199999999998,108.90000000000002 h7 v7 h-7 Z M348.4799999999998,108.90000000000002 h7 v7 h-7 Z M355.7399999999998,108.90000000000002 h7 v7 h-7 Z M362.9999999999998,108.90000000000002 h7 v7 h-7 Z M370.25999999999976,108.90000000000002 h7 v7 h-7 Z M377.51999999999975,108.90000000000002 h7 v7 h-7 Z M384.77999999999975,108.90000000000002 h7 v7 h-7 Z M392.03999999999974,108.90000000000002 h7 v7 h-7 Z M413.8199999999997,108.90000000000002 h7 v7 h-7 Z M435.5999999999997,108.90000000000002 h7 v7 h-7 Z M442.8599999999997,108.90000000000002 h7 v7 h-7 Z M450.11999999999966,108.90000000000002 h7 v7 h-7 Z M457.37999999999965,108.90000000000002 h7 v7 h-7 Z M464.63999999999965,108.90000000000002 h7 v7 h-7 Z M471.89999999999964,108.90000000000002 h7 v7 h-7 Z M479.1599999999996,108.90000000000002 h7 v7 h-7 Z M486.4199999999996,108.90000000000002 h7 v7 h-7 Z M508.1999999999996,108.90000000000002 h7 v7 h-7 Z M515.4599999999996,108.90000000000002 h7 v7 h-7 Z M283.1399999999999,116.16000000000003 h7 v7 h-7 Z M290.39999999999986,116.16000000000003 h7 v7 h-7 Z M297.65999999999985,116.16000000000003 h7 v7 h-7 Z M304.91999999999985,116.16000000000003 h7 v7 h-7 Z M312.17999999999984,116.16000000000003 h7 v7 h-7 Z M319.4399999999998,116.16000000000003 h7 v7 h-7 Z M341.2199999999998,116.16000000000003 h7 v7 h-7 Z M348.4799999999998,116.16000000000003 h7 v7 h-7 Z M355.7399999999998,116.16000000000003 h7 v7 h-7 Z M362.9999999999998,116.16000000000003 h7 v7 h-7 Z M370.25999999999976,116.16000000000003 h7 v7 h-7 Z M377.51999999999975,116.16000000000003 h7 v7 h-7 Z M384.77999999999975,116.16000000000003 h7 v7 h-7 Z M392.03999999999974,116.16000000000003 h7 v7 h-7 Z M399.2999999999997,116.16000000000003 h7 v7 h-7 Z M413.8199999999997,116.16000000000003 h7 v7 h-7 Z M435.5999999999997,116.16000000000003 h7 v7 h-7 Z M442.8599999999997,116.16000000000003 h7 v7 h-7 Z M450.11999999999966,116.16000000000003 h7 v7 h-7 Z M457.37999999999965,116.16000000000003 h7 v7 h-7 Z M464.63999999999965,116.16000000000003 h7 v7 h-7 Z M471.89999999999964,116.16000000000003 h7 v7 h-7 Z M479.1599999999996,116.16000000000003 h7 v7 h-7 Z M486.4199999999996,116.16000000000003 h7 v7 h-7 Z M508.1999999999996,116.16000000000003 h7 v7 h-7 Z M515.4599999999996,116.16000000000003 h7 v7 h-7 Z M522.7199999999996,116.16000000000003 h7 v7 h-7 Z M529.9799999999996,116.16000000000003 h7 v7 h-7 Z M537.2399999999996,116.16000000000003 h7 v7 h-7 Z M297.65999999999985,123.42000000000003 h7 v7 h-7 Z M304.91999999999985,123.42000000000003 h7 v7 h-7 Z M312.17999999999984,123.42000000000003 h7 v7 h-7 Z M319.4399999999998,123.42000000000003 h7 v7 h-7 Z M341.2199999999998,123.42000000000003 h7 v7 h-7 Z M348.4799999999998,123.42000000000003 h7 v7 h-7 Z M355.7399999999998,123.42000000000003 h7 v7 h-7 Z M384.77999999999975,123.42000000000003 h7 v7 h-7 Z M392.03999999999974,123.42000000000003 h7 v7 h-7 Z M399.2999999999997,123.42000000000003 h7 v7 h-7 Z M435.5999999999997,123.42000000000003 h7 v7 h-7 Z M442.8599999999997,123.42000000000003 h7 v7 h-7 Z M450.11999999999966,123.42000000000003 h7 v7 h-7 Z M479.1599999999996,123.42000000000003 h7 v7 h-7 Z M486.4199999999996,123.42000000000003 h7 v7 h-7 Z M508.1999999999996,123.42000000000003 h7 v7 h-7 Z M515.4599999999996,123.42000000000003 h7 v7 h-7 Z M522.7199999999996,123.42000000000003 h7 v7 h-7 Z M529.9799999999996,123.42000000000003 h7 v7 h-7 Z M609.8399999999995,123.42000000000003 h7 v7 h-7 Z M646.1399999999994,123.42000000000003 h7 v7 h-7 Z M304.91999999999985,130.68000000000004 h7 v7 h-7 Z M312.17999999999984,130.68000000000004 h7 v7 h-7 Z M333.9599999999998,130.68000000000004 h7 v7 h-7 Z M341.2199999999998,130.68000000000004 h7 v7 h-7 Z M348.4799999999998,130.68000000000004 h7 v7 h-7 Z M355.7399999999998,130.68000000000004 h7 v7 h-7 Z M370.25999999999976,130.68000000000004 h7 v7 h-7 Z M384.77999999999975,130.68000000000004 h7 v7 h-7 Z M392.03999999999974,130.68000000000004 h7 v7 h-7 Z M399.2999999999997,130.68000000000004 h7 v7 h-7 Z M435.5999999999997,130.68000000000004 h7 v7 h-7 Z M442.8599999999997,130.68000000000004 h7 v7 h-7 Z M450.11999999999966,130.68000000000004 h7 v7 h-7 Z M464.63999999999965,130.68000000000004 h7 v7 h-7 Z M479.1599999999996,130.68000000000004 h7 v7 h-7 Z M486.4199999999996,130.68000000000004 h7 v7 h-7 Z M493.6799999999996,130.68000000000004 h7 v7 h-7 Z M508.1999999999996,130.68000000000004 h7 v7 h-7 Z M515.4599999999996,130.68000000000004 h7 v7 h-7 Z M609.8399999999995,130.68000000000004 h7 v7 h-7 Z M617.0999999999995,130.68000000000004 h7 v7 h-7 Z M646.1399999999994,130.68000000000004 h7 v7 h-7 Z M203.27999999999994,137.94000000000003 h7 v7 h-7 Z M304.91999999999985,137.94000000000003 h7 v7 h-7 Z M312.17999999999984,137.94000000000003 h7 v7 h-7 Z M333.9599999999998,137.94000000000003 h7 v7 h-7 Z M341.2199999999998,137.94000000000003 h7 v7 h-7 Z M348.4799999999998,137.94000000000003 h7 v7 h-7 Z M355.7399999999998,137.94000000000003 h7 v7 h-7 Z M370.25999999999976,137.94000000000003 h7 v7 h-7 Z M384.77999999999975,137.94000000000003 h7 v7 h-7 Z M392.03999999999974,137.94000000000003 h7 v7 h-7 Z M399.2999999999997,137.94000000000003 h7 v7 h-7 Z M435.5999999999997,137.94000000000003 h7 v7 h-7 Z M442.8599999999997,137.94000000000003 h7 v7 h-7 Z M450.11999999999966,137.94000000000003 h7 v7 h-7 Z M464.63999999999965,137.94000000000003 h7 v7 h-7 Z M479.1599999999996,137.94000000000003 h7 v7 h-7 Z M486.4199999999996,137.94000000000003 h7 v7 h-7 Z M493.6799999999996,137.94000000000003 h7 v7 h-7 Z M508.1999999999996,137.94000000000003 h7 v7 h-7 Z M515.4599999999996,137.94000000000003 h7 v7 h-7 Z M609.8399999999995,137.94000000000003 h7 v7 h-7 Z M617.0999999999995,137.94000000000003 h7 v7 h-7 Z M638.8799999999994,137.94000000000003 h7 v7 h-7 Z M646.1399999999994,137.94000000000003 h7 v7 h-7 Z M203.27999999999994,145.20000000000002 h7 v7 h-7 Z M304.91999999999985,145.20000000000002 h7 v7 h-7 Z M312.17999999999984,145.20000000000002 h7 v7 h-7 Z M333.9599999999998,145.20000000000002 h7 v7 h-7 Z M341.2199999999998,145.20000000000002 h7 v7 h-7 Z M348.4799999999998,145.20000000000002 h7 v7 h-7 Z M355.7399999999998,145.20000000000002 h7 v7 h-7 Z M384.77999999999975,145.20000000000002 h7 v7 h-7 Z M392.03999999999974,145.20000000000002 h7 v7 h-7 Z M399.2999999999997,145.20000000000002 h7 v7 h-7 Z M435.5999999999997,145.20000000000002 h7 v7 h-7 Z M442.8599999999997,145.20000000000002 h7 v7 h-7 Z M450.11999999999966,145.20000000000002 h7 v7 h-7 Z M479.1599999999996,145.20000000000002 h7 v7 h-7 Z M486.4199999999996,145.20000000000002 h7 v7 h-7 Z M508.1999999999996,145.20000000000002 h7 v7 h-7 Z M515.4599999999996,145.20000000000002 h7 v7 h-7 Z M609.8399999999995,145.20000000000002 h7 v7 h-7 Z M617.0999999999995,145.20000000000002 h7 v7 h-7 Z M624.3599999999994,145.20000000000002 h7 v7 h-7 Z M631.6199999999994,145.20000000000002 h7 v7 h-7 Z M638.8799999999994,145.20000000000002 h7 v7 h-7 Z M646.1399999999994,145.20000000000002 h7 v7 h-7 Z M203.27999999999994,152.46 h7 v7 h-7 Z M246.8399999999999,152.46 h7 v7 h-7 Z M304.91999999999985,152.46 h7 v7 h-7 Z M312.17999999999984,152.46 h7 v7 h-7 Z M333.9599999999998,152.46 h7 v7 h-7 Z M341.2199999999998,152.46 h7 v7 h-7 Z M348.4799999999998,152.46 h7 v7 h-7 Z M355.7399999999998,152.46 h7 v7 h-7 Z M362.9999999999998,152.46 h7 v7 h-7 Z M370.25999999999976,152.46 h7 v7 h-7 Z M377.51999999999975,152.46 h7 v7 h-7 Z M384.77999999999975,152.46 h7 v7 h-7 Z M392.03999999999974,152.46 h7 v7 h-7 Z M399.2999999999997,152.46 h7 v7 h-7 Z M435.5999999999997,152.46 h7 v7 h-7 Z M442.8599999999997,152.46 h7 v7 h-7 Z M450.11999999999966,152.46 h7 v7 h-7 Z M457.37999999999965,152.46 h7 v7 h-7 Z M464.63999999999965,152.46 h7 v7 h-7 Z M471.89999999999964,152.46 h7 v7 h-7 Z M479.1599999999996,152.46 h7 v7 h-7 Z M486.4199999999996,152.46 h7 v7 h-7 Z M508.1999999999996,152.46 h7 v7 h-7 Z M515.4599999999996,152.46 h7 v7 h-7 Z M522.7199999999996,152.46 h7 v7 h-7 Z M595.3199999999995,152.46 h7 v7 h-7 Z M602.5799999999995,152.46 h7 v7 h-7 Z M609.8399999999995,152.46 h7 v7 h-7 Z M617.0999999999995,152.46 h7 v7 h-7 Z M624.3599999999994,152.46 h7 v7 h-7 Z M631.6199999999994,152.46 h7 v7 h-7 Z M638.8799999999994,152.46 h7 v7 h-7 Z M646.1399999999994,152.46 h7 v7 h-7 Z M653.3999999999994,152.46 h7 v7 h-7 Z M660.6599999999994,152.46 h7 v7 h-7 Z M210.53999999999994,159.72 h7 v7 h-7 Z M246.8399999999999,159.72 h7 v7 h-7 Z M304.91999999999985,159.72 h7 v7 h-7 Z M312.17999999999984,159.72 h7 v7 h-7 Z M341.2199999999998,159.72 h7 v7 h-7 Z M348.4799999999998,159.72 h7 v7 h-7 Z M355.7399999999998,159.72 h7 v7 h-7 Z M362.9999999999998,159.72 h7 v7 h-7 Z M370.25999999999976,159.72 h7 v7 h-7 Z M377.51999999999975,159.72 h7 v7 h-7 Z M384.77999999999975,159.72 h7 v7 h-7 Z M392.03999999999974,159.72 h7 v7 h-7 Z M442.8599999999997,159.72 h7 v7 h-7 Z M450.11999999999966,159.72 h7 v7 h-7 Z M457.37999999999965,159.72 h7 v7 h-7 Z M464.63999999999965,159.72 h7 v7 h-7 Z M471.89999999999964,159.72 h7 v7 h-7 Z M479.1599999999996,159.72 h7 v7 h-7 Z M486.4199999999996,159.72 h7 v7 h-7 Z M508.1999999999996,159.72 h7 v7 h-7 Z M515.4599999999996,159.72 h7 v7 h-7 Z M595.3199999999995,159.72 h7 v7 h-7 Z M602.5799999999995,159.72 h7 v7 h-7 Z M609.8399999999995,159.72 h7 v7 h-7 Z M646.1399999999994,159.72 h7 v7 h-7 Z M653.3999999999994,159.72 h7 v7 h-7 Z M660.6599999999994,159.72 h7 v7 h-7 Z M667.9199999999994,159.72 h7 v7 h-7 Z M181.49999999999997,166.98 h7 v7 h-7 Z M188.75999999999996,166.98 h7 v7 h-7 Z M210.53999999999994,166.98 h7 v7 h-7 Z M246.8399999999999,166.98 h7 v7 h-7 Z M304.91999999999985,166.98 h7 v7 h-7 Z M312.17999999999984,166.98 h7 v7 h-7 Z M348.4799999999998,166.98 h7 v7 h-7 Z M355.7399999999998,166.98 h7 v7 h-7 Z M362.9999999999998,166.98 h7 v7 h-7 Z M370.25999999999976,166.98 h7 v7 h-7 Z M377.51999999999975,166.98 h7 v7 h-7 Z M384.77999999999975,166.98 h7 v7 h-7 Z M392.03999999999974,166.98 h7 v7 h-7 Z M450.11999999999966,166.98 h7 v7 h-7 Z M457.37999999999965,166.98 h7 v7 h-7 Z M464.63999999999965,166.98 h7 v7 h-7 Z M471.89999999999964,166.98 h7 v7 h-7 Z M479.1599999999996,166.98 h7 v7 h-7 Z M508.1999999999996,166.98 h7 v7 h-7 Z M515.4599999999996,166.98 h7 v7 h-7 Z M588.0599999999995,166.98 h7 v7 h-7 Z M595.3199999999995,166.98 h7 v7 h-7 Z M653.3999999999994,166.98 h7 v7 h-7 Z M660.6599999999994,166.98 h7 v7 h-7 Z M667.9199999999994,166.98 h7 v7 h-7 Z M682.4399999999994,166.98 h7 v7 h-7 Z M689.6999999999994,166.98 h7 v7 h-7 Z M696.9599999999994,166.98 h7 v7 h-7 Z M188.75999999999996,174.23999999999998 h7 v7 h-7 Z M196.01999999999995,174.23999999999998 h7 v7 h-7 Z M203.27999999999994,174.23999999999998 h7 v7 h-7 Z M210.53999999999994,174.23999999999998 h7 v7 h-7 Z M217.79999999999993,174.23999999999998 h7 v7 h-7 Z M225.05999999999992,174.23999999999998 h7 v7 h-7 Z M232.3199999999999,174.23999999999998 h7 v7 h-7 Z M239.5799999999999,174.23999999999998 h7 v7 h-7 Z M246.8399999999999,174.23999999999998 h7 v7 h-7 Z M304.91999999999985,174.23999999999998 h7 v7 h-7 Z M312.17999999999984,174.23999999999998 h7 v7 h-7 Z M355.7399999999998,174.23999999999998 h7 v7 h-7 Z M362.9999999999998,174.23999999999998 h7 v7 h-7 Z M370.25999999999976,174.23999999999998 h7 v7 h-7 Z M377.51999999999975,174.23999999999998 h7 v7 h-7 Z M508.1999999999996,174.23999999999998 h7 v7 h-7 Z M515.4599999999996,174.23999999999998 h7 v7 h-7 Z M522.7199999999996,174.23999999999998 h7 v7 h-7 Z M529.9799999999996,174.23999999999998 h7 v7 h-7 Z M573.5399999999995,174.23999999999998 h7 v7 h-7 Z M580.7999999999995,174.23999999999998 h7 v7 h-7 Z M588.0599999999995,174.23999999999998 h7 v7 h-7 Z M595.3199999999995,174.23999999999998 h7 v7 h-7 Z M660.6599999999994,174.23999999999998 h7 v7 h-7 Z M667.9199999999994,174.23999999999998 h7 v7 h-7 Z M675.1799999999994,174.23999999999998 h7 v7 h-7 Z M682.4399999999994,174.23999999999998 h7 v7 h-7 Z M689.6999999999994,174.23999999999998 h7 v7 h-7 Z M181.49999999999997,181.49999999999997 h7 v7 h-7 Z M188.75999999999996,181.49999999999997 h7 v7 h-7 Z M196.01999999999995,181.49999999999997 h7 v7 h-7 Z M203.27999999999994,181.49999999999997 h7 v7 h-7 Z M210.53999999999994,181.49999999999997 h7 v7 h-7 Z M217.79999999999993,181.49999999999997 h7 v7 h-7 Z M225.05999999999992,181.49999999999997 h7 v7 h-7 Z M232.3199999999999,181.49999999999997 h7 v7 h-7 Z M239.5799999999999,181.49999999999997 h7 v7 h-7 Z M304.91999999999985,181.49999999999997 h7 v7 h-7 Z M312.17999999999984,181.49999999999997 h7 v7 h-7 Z M508.1999999999996,181.49999999999997 h7 v7 h-7 Z M515.4599999999996,181.49999999999997 h7 v7 h-7 Z M522.7199999999996,181.49999999999997 h7 v7 h-7 Z M529.9799999999996,181.49999999999997 h7 v7 h-7 Z M580.7999999999995,181.49999999999997 h7 v7 h-7 Z M588.0599999999995,181.49999999999997 h7 v7 h-7 Z M595.3199999999995,181.49999999999997 h7 v7 h-7 Z M667.9199999999994,181.49999999999997 h7 v7 h-7 Z M675.1799999999994,181.49999999999997 h7 v7 h-7 Z M682.4399999999994,181.49999999999997 h7 v7 h-7 Z M159.72,188.75999999999996 h7 v7 h-7 Z M181.49999999999997,188.75999999999996 h7 v7 h-7 Z M188.75999999999996,188.75999999999996 h7 v7 h-7 Z M196.01999999999995,188.75999999999996 h7 v7 h-7 Z M232.3199999999999,188.75999999999996 h7 v7 h-7 Z M239.5799999999999,188.75999999999996 h7 v7 h-7 Z M246.8399999999999,188.75999999999996 h7 v7 h-7 Z M304.91999999999985,188.75999999999996 h7 v7 h-7 Z M312.17999999999984,188.75999999999996 h7 v7 h-7 Z M508.1999999999996,188.75999999999996 h7 v7 h-7 Z M515.4599999999996,188.75999999999996 h7 v7 h-7 Z M580.7999999999995,188.75999999999996 h7 v7 h-7 Z M588.0599999999995,188.75999999999996 h7 v7 h-7 Z M646.1399999999994,188.75999999999996 h7 v7 h-7 Z M667.9199999999994,188.75999999999996 h7 v7 h-7 Z M675.1799999999994,188.75999999999996 h7 v7 h-7 Z M682.4399999999994,188.75999999999996 h7 v7 h-7 Z M166.98,196.01999999999995 h7 v7 h-7 Z M174.23999999999998,196.01999999999995 h7 v7 h-7 Z M181.49999999999997,196.01999999999995 h7 v7 h-7 Z M188.75999999999996,196.01999999999995 h7 v7 h-7 Z M203.27999999999994,196.01999999999995 h7 v7 h-7 Z M239.5799999999999,196.01999999999995 h7 v7 h-7 Z M246.8399999999999,196.01999999999995 h7 v7 h-7 Z M304.91999999999985,196.01999999999995 h7 v7 h-7 Z M312.17999999999984,196.01999999999995 h7 v7 h-7 Z M508.1999999999996,196.01999999999995 h7 v7 h-7 Z M515.4599999999996,196.01999999999995 h7 v7 h-7 Z M522.7199999999996,196.01999999999995 h7 v7 h-7 Z M580.7999999999995,196.01999999999995 h7 v7 h-7 Z M588.0599999999995,196.01999999999995 h7 v7 h-7 Z M646.1399999999994,196.01999999999995 h7 v7 h-7 Z M653.3999999999994,196.01999999999995 h7 v7 h-7 Z M667.9199999999994,196.01999999999995 h7 v7 h-7 Z M675.1799999999994,196.01999999999995 h7 v7 h-7 Z M682.4399999999994,196.01999999999995 h7 v7 h-7 Z M166.98,203.27999999999994 h7 v7 h-7 Z M174.23999999999998,203.27999999999994 h7 v7 h-7 Z M181.49999999999997,203.27999999999994 h7 v7 h-7 Z M196.01999999999995,203.27999999999994 h7 v7 h-7 Z M239.5799999999999,203.27999999999994 h7 v7 h-7 Z M246.8399999999999,203.27999999999994 h7 v7 h-7 Z M254.09999999999988,203.27999999999994 h7 v7 h-7 Z M304.91999999999985,203.27999999999994 h7 v7 h-7 Z M312.17999999999984,203.27999999999994 h7 v7 h-7 Z M435.5999999999997,203.27999999999994 h7 v7 h-7 Z M508.1999999999996,203.27999999999994 h7 v7 h-7 Z M515.4599999999996,203.27999999999994 h7 v7 h-7 Z M522.7199999999996,203.27999999999994 h7 v7 h-7 Z M580.7999999999995,203.27999999999994 h7 v7 h-7 Z M588.0599999999995,203.27999999999994 h7 v7 h-7 Z M609.8399999999995,203.27999999999994 h7 v7 h-7 Z M653.3999999999994,203.27999999999994 h7 v7 h-7 Z M675.1799999999994,203.27999999999994 h7 v7 h-7 Z M682.4399999999994,203.27999999999994 h7 v7 h-7 Z M166.98,210.53999999999994 h7 v7 h-7 Z M174.23999999999998,210.53999999999994 h7 v7 h-7 Z M181.49999999999997,210.53999999999994 h7 v7 h-7 Z M196.01999999999995,210.53999999999994 h7 v7 h-7 Z M246.8399999999999,210.53999999999994 h7 v7 h-7 Z M254.09999999999988,210.53999999999994 h7 v7 h-7 Z M297.65999999999985,210.53999999999994 h7 v7 h-7 Z M304.91999999999985,210.53999999999994 h7 v7 h-7 Z M312.17999999999984,210.53999999999994 h7 v7 h-7 Z M435.5999999999997,210.53999999999994 h7 v7 h-7 Z M508.1999999999996,210.53999999999994 h7 v7 h-7 Z M515.4599999999996,210.53999999999994 h7 v7 h-7 Z M522.7199999999996,210.53999999999994 h7 v7 h-7 Z M529.9799999999996,210.53999999999994 h7 v7 h-7 Z M537.2399999999996,210.53999999999994 h7 v7 h-7 Z M544.4999999999995,210.53999999999994 h7 v7 h-7 Z M573.5399999999995,210.53999999999994 h7 v7 h-7 Z M580.7999999999995,210.53999999999994 h7 v7 h-7 Z M588.0599999999995,210.53999999999994 h7 v7 h-7 Z M609.8399999999995,210.53999999999994 h7 v7 h-7 Z M653.3999999999994,210.53999999999994 h7 v7 h-7 Z M660.6599999999994,210.53999999999994 h7 v7 h-7 Z M675.1799999999994,210.53999999999994 h7 v7 h-7 Z M682.4399999999994,210.53999999999994 h7 v7 h-7 Z M166.98,217.79999999999993 h7 v7 h-7 Z M174.23999999999998,217.79999999999993 h7 v7 h-7 Z M196.01999999999995,217.79999999999993 h7 v7 h-7 Z M232.3199999999999,217.79999999999993 h7 v7 h-7 Z M246.8399999999999,217.79999999999993 h7 v7 h-7 Z M254.09999999999988,217.79999999999993 h7 v7 h-7 Z M297.65999999999985,217.79999999999993 h7 v7 h-7 Z M304.91999999999985,217.79999999999993 h7 v7 h-7 Z M312.17999999999984,217.79999999999993 h7 v7 h-7 Z M435.5999999999997,217.79999999999993 h7 v7 h-7 Z M508.1999999999996,217.79999999999993 h7 v7 h-7 Z M515.4599999999996,217.79999999999993 h7 v7 h-7 Z M522.7199999999996,217.79999999999993 h7 v7 h-7 Z M529.9799999999996,217.79999999999993 h7 v7 h-7 Z M573.5399999999995,217.79999999999993 h7 v7 h-7 Z M580.7999999999995,217.79999999999993 h7 v7 h-7 Z M588.0599999999995,217.79999999999993 h7 v7 h-7 Z M609.8399999999995,217.79999999999993 h7 v7 h-7 Z M653.3999999999994,217.79999999999993 h7 v7 h-7 Z M660.6599999999994,217.79999999999993 h7 v7 h-7 Z M675.1799999999994,217.79999999999993 h7 v7 h-7 Z M682.4399999999994,217.79999999999993 h7 v7 h-7 Z M166.98,225.05999999999992 h7 v7 h-7 Z M174.23999999999998,225.05999999999992 h7 v7 h-7 Z M196.01999999999995,225.05999999999992 h7 v7 h-7 Z M232.3199999999999,225.05999999999992 h7 v7 h-7 Z M246.8399999999999,225.05999999999992 h7 v7 h-7 Z M254.09999999999988,225.05999999999992 h7 v7 h-7 Z M297.65999999999985,225.05999999999992 h7 v7 h-7 Z M304.91999999999985,225.05999999999992 h7 v7 h-7 Z M312.17999999999984,225.05999999999992 h7 v7 h-7 Z M515.4599999999996,225.05999999999992 h7 v7 h-7 Z M522.7199999999996,225.05999999999992 h7 v7 h-7 Z M529.9799999999996,225.05999999999992 h7 v7 h-7 Z M566.2799999999995,225.05999999999992 h7 v7 h-7 Z M573.5399999999995,225.05999999999992 h7 v7 h-7 Z M580.7999999999995,225.05999999999992 h7 v7 h-7 Z M609.8399999999995,225.05999999999992 h7 v7 h-7 Z M653.3999999999994,225.05999999999992 h7 v7 h-7 Z M660.6599999999994,225.05999999999992 h7 v7 h-7 Z M675.1799999999994,225.05999999999992 h7 v7 h-7 Z M682.4399999999994,225.05999999999992 h7 v7 h-7 Z M689.6999999999994,225.05999999999992 h7 v7 h-7 Z M159.72,232.3199999999999 h7 v7 h-7 Z M166.98,232.3199999999999 h7 v7 h-7 Z M174.23999999999998,232.3199999999999 h7 v7 h-7 Z M196.01999999999995,232.3199999999999 h7 v7 h-7 Z M232.3199999999999,232.3199999999999 h7 v7 h-7 Z M246.8399999999999,232.3199999999999 h7 v7 h-7 Z M254.09999999999988,232.3199999999999 h7 v7 h-7 Z M261.3599999999999,232.3199999999999 h7 v7 h-7 Z M290.39999999999986,232.3199999999999 h7 v7 h-7 Z M297.65999999999985,232.3199999999999 h7 v7 h-7 Z M304.91999999999985,232.3199999999999 h7 v7 h-7 Z M312.17999999999984,232.3199999999999 h7 v7 h-7 Z M515.4599999999996,232.3199999999999 h7 v7 h-7 Z M522.7199999999996,232.3199999999999 h7 v7 h-7 Z M529.9799999999996,232.3199999999999 h7 v7 h-7 Z M537.2399999999996,232.3199999999999 h7 v7 h-7 Z M551.7599999999995,232.3199999999999 h7 v7 h-7 Z M559.0199999999995,232.3199999999999 h7 v7 h-7 Z M566.2799999999995,232.3199999999999 h7 v7 h-7 Z M573.5399999999995,232.3199999999999 h7 v7 h-7 Z M580.7999999999995,232.3199999999999 h7 v7 h-7 Z M609.8399999999995,232.3199999999999 h7 v7 h-7 Z M660.6599999999994,232.3199999999999 h7 v7 h-7 Z M667.9199999999994,232.3199999999999 h7 v7 h-7 Z M675.1799999999994,232.3199999999999 h7 v7 h-7 Z M682.4399999999994,232.3199999999999 h7 v7 h-7 Z M689.6999999999994,232.3199999999999 h7 v7 h-7 Z M137.94000000000003,239.5799999999999 h7 v7 h-7 Z M159.72,239.5799999999999 h7 v7 h-7 Z M166.98,239.5799999999999 h7 v7 h-7 Z M174.23999999999998,239.5799999999999 h7 v7 h-7 Z M196.01999999999995,239.5799999999999 h7 v7 h-7 Z M232.3199999999999,239.5799999999999 h7 v7 h-7 Z M246.8399999999999,239.5799999999999 h7 v7 h-7 Z M254.09999999999988,239.5799999999999 h7 v7 h-7 Z M261.3599999999999,239.5799999999999 h7 v7 h-7 Z M290.39999999999986,239.5799999999999 h7 v7 h-7 Z M297.65999999999985,239.5799999999999 h7 v7 h-7 Z M304.91999999999985,239.5799999999999 h7 v7 h-7 Z M312.17999999999984,239.5799999999999 h7 v7 h-7 Z M522.7199999999996,239.5799999999999 h7 v7 h-7 Z M529.9799999999996,239.5799999999999 h7 v7 h-7 Z M537.2399999999996,239.5799999999999 h7 v7 h-7 Z M544.4999999999995,239.5799999999999 h7 v7 h-7 Z M551.7599999999995,239.5799999999999 h7 v7 h-7 Z M559.0199999999995,239.5799999999999 h7 v7 h-7 Z M566.2799999999995,239.5799999999999 h7 v7 h-7 Z M573.5399999999995,239.5799999999999 h7 v7 h-7 Z M580.7999999999995,239.5799999999999 h7 v7 h-7 Z M609.8399999999995,239.5799999999999 h7 v7 h-7 Z M660.6599999999994,239.5799999999999 h7 v7 h-7 Z M667.9199999999994,239.5799999999999 h7 v7 h-7 Z M675.1799999999994,239.5799999999999 h7 v7 h-7 Z M682.4399999999994,239.5799999999999 h7 v7 h-7 Z M689.6999999999994,239.5799999999999 h7 v7 h-7 Z M137.94000000000003,246.8399999999999 h7 v7 h-7 Z M145.20000000000002,246.8399999999999 h7 v7 h-7 Z M152.46,246.8399999999999 h7 v7 h-7 Z M159.72,246.8399999999999 h7 v7 h-7 Z M166.98,246.8399999999999 h7 v7 h-7 Z M196.01999999999995,246.8399999999999 h7 v7 h-7 Z M232.3199999999999,246.8399999999999 h7 v7 h-7 Z M246.8399999999999,246.8399999999999 h7 v7 h-7 Z M254.09999999999988,246.8399999999999 h7 v7 h-7 Z M261.3599999999999,246.8399999999999 h7 v7 h-7 Z M268.6199999999999,246.8399999999999 h7 v7 h-7 Z M275.8799999999999,246.8399999999999 h7 v7 h-7 Z M283.1399999999999,246.8399999999999 h7 v7 h-7 Z M290.39999999999986,246.8399999999999 h7 v7 h-7 Z M297.65999999999985,246.8399999999999 h7 v7 h-7 Z M304.91999999999985,246.8399999999999 h7 v7 h-7 Z M312.17999999999984,246.8399999999999 h7 v7 h-7 Z M399.2999999999997,246.8399999999999 h7 v7 h-7 Z M508.1999999999996,246.8399999999999 h7 v7 h-7 Z M529.9799999999996,246.8399999999999 h7 v7 h-7 Z M537.2399999999996,246.8399999999999 h7 v7 h-7 Z M544.4999999999995,246.8399999999999 h7 v7 h-7 Z M551.7599999999995,246.8399999999999 h7 v7 h-7 Z M559.0199999999995,246.8399999999999 h7 v7 h-7 Z M566.2799999999995,246.8399999999999 h7 v7 h-7 Z M573.5399999999995,246.8399999999999 h7 v7 h-7 Z M580.7999999999995,246.8399999999999 h7 v7 h-7 Z M609.8399999999995,246.8399999999999 h7 v7 h-7 Z M660.6599999999994,246.8399999999999 h7 v7 h-7 Z M667.9199999999994,246.8399999999999 h7 v7 h-7 Z M675.1799999999994,246.8399999999999 h7 v7 h-7 Z M682.4399999999994,246.8399999999999 h7 v7 h-7 Z M689.6999999999994,246.8399999999999 h7 v7 h-7 Z M152.46,254.09999999999988 h7 v7 h-7 Z M159.72,254.09999999999988 h7 v7 h-7 Z M166.98,254.09999999999988 h7 v7 h-7 Z M232.3199999999999,254.09999999999988 h7 v7 h-7 Z M246.8399999999999,254.09999999999988 h7 v7 h-7 Z M254.09999999999988,254.09999999999988 h7 v7 h-7 Z M261.3599999999999,254.09999999999988 h7 v7 h-7 Z M268.6199999999999,254.09999999999988 h7 v7 h-7 Z M275.8799999999999,254.09999999999988 h7 v7 h-7 Z M283.1399999999999,254.09999999999988 h7 v7 h-7 Z M290.39999999999986,254.09999999999988 h7 v7 h-7 Z M297.65999999999985,254.09999999999988 h7 v7 h-7 Z M304.91999999999985,254.09999999999988 h7 v7 h-7 Z M399.2999999999997,254.09999999999988 h7 v7 h-7 Z M508.1999999999996,254.09999999999988 h7 v7 h-7 Z M559.0199999999995,254.09999999999988 h7 v7 h-7 Z M566.2799999999995,254.09999999999988 h7 v7 h-7 Z M573.5399999999995,254.09999999999988 h7 v7 h-7 Z M580.7999999999995,254.09999999999988 h7 v7 h-7 Z M609.8399999999995,254.09999999999988 h7 v7 h-7 Z M660.6599999999994,254.09999999999988 h7 v7 h-7 Z M667.9199999999994,254.09999999999988 h7 v7 h-7 Z M675.1799999999994,254.09999999999988 h7 v7 h-7 Z M682.4399999999994,254.09999999999988 h7 v7 h-7 Z M689.6999999999994,254.09999999999988 h7 v7 h-7 Z M159.72,261.3599999999999 h7 v7 h-7 Z M166.98,261.3599999999999 h7 v7 h-7 Z M232.3199999999999,261.3599999999999 h7 v7 h-7 Z M246.8399999999999,261.3599999999999 h7 v7 h-7 Z M254.09999999999988,261.3599999999999 h7 v7 h-7 Z M261.3599999999999,261.3599999999999 h7 v7 h-7 Z M297.65999999999985,261.3599999999999 h7 v7 h-7 Z M304.91999999999985,261.3599999999999 h7 v7 h-7 Z M399.2999999999997,261.3599999999999 h7 v7 h-7 Z M457.37999999999965,261.3599999999999 h7 v7 h-7 Z M508.1999999999996,261.3599999999999 h7 v7 h-7 Z M559.0199999999995,261.3599999999999 h7 v7 h-7 Z M566.2799999999995,261.3599999999999 h7 v7 h-7 Z M573.5399999999995,261.3599999999999 h7 v7 h-7 Z M580.7999999999995,261.3599999999999 h7 v7 h-7 Z M609.8399999999995,261.3599999999999 h7 v7 h-7 Z M646.1399999999994,261.3599999999999 h7 v7 h-7 Z M653.3999999999994,261.3599999999999 h7 v7 h-7 Z M660.6599999999994,261.3599999999999 h7 v7 h-7 Z M667.9199999999994,261.3599999999999 h7 v7 h-7 Z M675.1799999999994,261.3599999999999 h7 v7 h-7 Z M682.4399999999994,261.3599999999999 h7 v7 h-7 Z M689.6999999999994,261.3599999999999 h7 v7 h-7 Z M159.72,268.6199999999999 h7 v7 h-7 Z M166.98,268.6199999999999 h7 v7 h-7 Z M232.3199999999999,268.6199999999999 h7 v7 h-7 Z M254.09999999999988,268.6199999999999 h7 v7 h-7 Z M261.3599999999999,268.6199999999999 h7 v7 h-7 Z M297.65999999999985,268.6199999999999 h7 v7 h-7 Z M304.91999999999985,268.6199999999999 h7 v7 h-7 Z M341.2199999999998,268.6199999999999 h7 v7 h-7 Z M399.2999999999997,268.6199999999999 h7 v7 h-7 Z M457.37999999999965,268.6199999999999 h7 v7 h-7 Z M515.4599999999996,268.6199999999999 h7 v7 h-7 Z M551.7599999999995,268.6199999999999 h7 v7 h-7 Z M559.0199999999995,268.6199999999999 h7 v7 h-7 Z M573.5399999999995,268.6199999999999 h7 v7 h-7 Z M580.7999999999995,268.6199999999999 h7 v7 h-7 Z M609.8399999999995,268.6199999999999 h7 v7 h-7 Z M617.0999999999995,268.6199999999999 h7 v7 h-7 Z M624.3599999999994,268.6199999999999 h7 v7 h-7 Z M631.6199999999994,268.6199999999999 h7 v7 h-7 Z M638.8799999999994,268.6199999999999 h7 v7 h-7 Z M646.1399999999994,268.6199999999999 h7 v7 h-7 Z M653.3999999999994,268.6199999999999 h7 v7 h-7 Z M660.6599999999994,268.6199999999999 h7 v7 h-7 Z M667.9199999999994,268.6199999999999 h7 v7 h-7 Z M675.1799999999994,268.6199999999999 h7 v7 h-7 Z M682.4399999999994,268.6199999999999 h7 v7 h-7 Z M689.6999999999994,268.6199999999999 h7 v7 h-7 Z M159.72,275.8799999999999 h7 v7 h-7 Z M166.98,275.8799999999999 h7 v7 h-7 Z M232.3199999999999,275.8799999999999 h7 v7 h-7 Z M254.09999999999988,275.8799999999999 h7 v7 h-7 Z M261.3599999999999,275.8799999999999 h7 v7 h-7 Z M290.39999999999986,275.8799999999999 h7 v7 h-7 Z M297.65999999999985,275.8799999999999 h7 v7 h-7 Z M341.2199999999998,275.8799999999999 h7 v7 h-7 Z M348.4799999999998,275.8799999999999 h7 v7 h-7 Z M399.2999999999997,275.8799999999999 h7 v7 h-7 Z M457.37999999999965,275.8799999999999 h7 v7 h-7 Z M515.4599999999996,275.8799999999999 h7 v7 h-7 Z M544.4999999999995,275.8799999999999 h7 v7 h-7 Z M551.7599999999995,275.8799999999999 h7 v7 h-7 Z M573.5399999999995,275.8799999999999 h7 v7 h-7 Z M580.7999999999995,275.8799999999999 h7 v7 h-7 Z M609.8399999999995,275.8799999999999 h7 v7 h-7 Z M617.0999999999995,275.8799999999999 h7 v7 h-7 Z M624.3599999999994,275.8799999999999 h7 v7 h-7 Z M631.6199999999994,275.8799999999999 h7 v7 h-7 Z M638.8799999999994,275.8799999999999 h7 v7 h-7 Z M646.1399999999994,275.8799999999999 h7 v7 h-7 Z M653.3999999999994,275.8799999999999 h7 v7 h-7 Z M660.6599999999994,275.8799999999999 h7 v7 h-7 Z M667.9199999999994,275.8799999999999 h7 v7 h-7 Z M675.1799999999994,275.8799999999999 h7 v7 h-7 Z M682.4399999999994,275.8799999999999 h7 v7 h-7 Z M689.6999999999994,275.8799999999999 h7 v7 h-7 Z M152.46,283.1399999999999 h7 v7 h-7 Z M159.72,283.1399999999999 h7 v7 h-7 Z M166.98,283.1399999999999 h7 v7 h-7 Z M232.3199999999999,283.1399999999999 h7 v7 h-7 Z M254.09999999999988,283.1399999999999 h7 v7 h-7 Z M261.3599999999999,283.1399999999999 h7 v7 h-7 Z M268.6199999999999,283.1399999999999 h7 v7 h-7 Z M275.8799999999999,283.1399999999999 h7 v7 h-7 Z M283.1399999999999,283.1399999999999 h7 v7 h-7 Z M290.39999999999986,283.1399999999999 h7 v7 h-7 Z M312.17999999999984,283.1399999999999 h7 v7 h-7 Z M348.4799999999998,283.1399999999999 h7 v7 h-7 Z M399.2999999999997,283.1399999999999 h7 v7 h-7 Z M457.37999999999965,283.1399999999999 h7 v7 h-7 Z M515.4599999999996,283.1399999999999 h7 v7 h-7 Z M522.7199999999996,283.1399999999999 h7 v7 h-7 Z M529.9799999999996,283.1399999999999 h7 v7 h-7 Z M537.2399999999996,283.1399999999999 h7 v7 h-7 Z M544.4999999999995,283.1399999999999 h7 v7 h-7 Z M573.5399999999995,283.1399999999999 h7 v7 h-7 Z M580.7999999999995,283.1399999999999 h7 v7 h-7 Z M602.5799999999995,283.1399999999999 h7 v7 h-7 Z M609.8399999999995,283.1399999999999 h7 v7 h-7 Z M617.0999999999995,283.1399999999999 h7 v7 h-7 Z M624.3599999999994,283.1399999999999 h7 v7 h-7 Z M631.6199999999994,283.1399999999999 h7 v7 h-7 Z M638.8799999999994,283.1399999999999 h7 v7 h-7 Z M646.1399999999994,283.1399999999999 h7 v7 h-7 Z M653.3999999999994,283.1399999999999 h7 v7 h-7 Z M660.6599999999994,283.1399999999999 h7 v7 h-7 Z M667.9199999999994,283.1399999999999 h7 v7 h-7 Z M675.1799999999994,283.1399999999999 h7 v7 h-7 Z M682.4399999999994,283.1399999999999 h7 v7 h-7 Z M689.6999999999994,283.1399999999999 h7 v7 h-7 Z M145.20000000000002,290.39999999999986 h7 v7 h-7 Z M152.46,290.39999999999986 h7 v7 h-7 Z M159.72,290.39999999999986 h7 v7 h-7 Z M166.98,290.39999999999986 h7 v7 h-7 Z M232.3199999999999,290.39999999999986 h7 v7 h-7 Z M254.09999999999988,290.39999999999986 h7 v7 h-7 Z M261.3599999999999,290.39999999999986 h7 v7 h-7 Z M268.6199999999999,290.39999999999986 h7 v7 h-7 Z M312.17999999999984,290.39999999999986 h7 v7 h-7 Z M348.4799999999998,290.39999999999986 h7 v7 h-7 Z M457.37999999999965,290.39999999999986 h7 v7 h-7 Z M573.5399999999995,290.39999999999986 h7 v7 h-7 Z M580.7999999999995,290.39999999999986 h7 v7 h-7 Z M602.5799999999995,290.39999999999986 h7 v7 h-7 Z M609.8399999999995,290.39999999999986 h7 v7 h-7 Z M617.0999999999995,290.39999999999986 h7 v7 h-7 Z M624.3599999999994,290.39999999999986 h7 v7 h-7 Z M631.6199999999994,290.39999999999986 h7 v7 h-7 Z M638.8799999999994,290.39999999999986 h7 v7 h-7 Z M646.1399999999994,290.39999999999986 h7 v7 h-7 Z M653.3999999999994,290.39999999999986 h7 v7 h-7 Z M660.6599999999994,290.39999999999986 h7 v7 h-7 Z M667.9199999999994,290.39999999999986 h7 v7 h-7 Z M675.1799999999994,290.39999999999986 h7 v7 h-7 Z M682.4399999999994,290.39999999999986 h7 v7 h-7 Z M137.94000000000003,297.65999999999985 h7 v7 h-7 Z M145.20000000000002,297.65999999999985 h7 v7 h-7 Z M152.46,297.65999999999985 h7 v7 h-7 Z M159.72,297.65999999999985 h7 v7 h-7 Z M232.3199999999999,297.65999999999985 h7 v7 h-7 Z M261.3599999999999,297.65999999999985 h7 v7 h-7 Z M268.6199999999999,297.65999999999985 h7 v7 h-7 Z M312.17999999999984,297.65999999999985 h7 v7 h-7 Z M348.4799999999998,297.65999999999985 h7 v7 h-7 Z M457.37999999999965,297.65999999999985 h7 v7 h-7 Z M551.7599999999995,297.65999999999985 h7 v7 h-7 Z M573.5399999999995,297.65999999999985 h7 v7 h-7 Z M580.7999999999995,297.65999999999985 h7 v7 h-7 Z M588.0599999999995,297.65999999999985 h7 v7 h-7 Z M595.3199999999995,297.65999999999985 h7 v7 h-7 Z M602.5799999999995,297.65999999999985 h7 v7 h-7 Z M609.8399999999995,297.65999999999985 h7 v7 h-7 Z M617.0999999999995,297.65999999999985 h7 v7 h-7 Z M624.3599999999994,297.65999999999985 h7 v7 h-7 Z M631.6199999999994,297.65999999999985 h7 v7 h-7 Z M638.8799999999994,297.65999999999985 h7 v7 h-7 Z M646.1399999999994,297.65999999999985 h7 v7 h-7 Z M653.3999999999994,297.65999999999985 h7 v7 h-7 Z M660.6599999999994,297.65999999999985 h7 v7 h-7 Z M667.9199999999994,297.65999999999985 h7 v7 h-7 Z M152.46,304.91999999999985 h7 v7 h-7 Z M159.72,304.91999999999985 h7 v7 h-7 Z M232.3199999999999,304.91999999999985 h7 v7 h-7 Z M261.3599999999999,304.91999999999985 h7 v7 h-7 Z M268.6199999999999,304.91999999999985 h7 v7 h-7 Z M312.17999999999984,304.91999999999985 h7 v7 h-7 Z M348.4799999999998,304.91999999999985 h7 v7 h-7 Z M457.37999999999965,304.91999999999985 h7 v7 h-7 Z M464.63999999999965,304.91999999999985 h7 v7 h-7 Z M551.7599999999995,304.91999999999985 h7 v7 h-7 Z M573.5399999999995,304.91999999999985 h7 v7 h-7 Z M580.7999999999995,304.91999999999985 h7 v7 h-7 Z M588.0599999999995,304.91999999999985 h7 v7 h-7 Z M595.3199999999995,304.91999999999985 h7 v7 h-7 Z M602.5799999999995,304.91999999999985 h7 v7 h-7 Z M617.0999999999995,304.91999999999985 h7 v7 h-7 Z M624.3599999999994,304.91999999999985 h7 v7 h-7 Z M631.6199999999994,304.91999999999985 h7 v7 h-7 Z M638.8799999999994,304.91999999999985 h7 v7 h-7 Z M646.1399999999994,304.91999999999985 h7 v7 h-7 Z M653.3999999999994,304.91999999999985 h7 v7 h-7 Z M660.6599999999994,304.91999999999985 h7 v7 h-7 Z M152.46,312.17999999999984 h7 v7 h-7 Z M159.72,312.17999999999984 h7 v7 h-7 Z M232.3199999999999,312.17999999999984 h7 v7 h-7 Z M261.3599999999999,312.17999999999984 h7 v7 h-7 Z M268.6199999999999,312.17999999999984 h7 v7 h-7 Z M312.17999999999984,312.17999999999984 h7 v7 h-7 Z M348.4799999999998,312.17999999999984 h7 v7 h-7 Z M464.63999999999965,312.17999999999984 h7 v7 h-7 Z M544.4999999999995,312.17999999999984 h7 v7 h-7 Z M551.7599999999995,312.17999999999984 h7 v7 h-7 Z M573.5399999999995,312.17999999999984 h7 v7 h-7 Z M580.7999999999995,312.17999999999984 h7 v7 h-7 Z M588.0599999999995,312.17999999999984 h7 v7 h-7 Z M602.5799999999995,312.17999999999984 h7 v7 h-7 Z M617.0999999999995,312.17999999999984 h7 v7 h-7 Z M624.3599999999994,312.17999999999984 h7 v7 h-7 Z M631.6199999999994,312.17999999999984 h7 v7 h-7 Z M638.8799999999994,312.17999999999984 h7 v7 h-7 Z M646.1399999999994,312.17999999999984 h7 v7 h-7 Z M653.3999999999994,312.17999999999984 h7 v7 h-7 Z M152.46,319.4399999999998 h7 v7 h-7 Z M159.72,319.4399999999998 h7 v7 h-7 Z M174.23999999999998,319.4399999999998 h7 v7 h-7 Z M181.49999999999997,319.4399999999998 h7 v7 h-7 Z M188.75999999999996,319.4399999999998 h7 v7 h-7 Z M196.01999999999995,319.4399999999998 h7 v7 h-7 Z M232.3199999999999,319.4399999999998 h7 v7 h-7 Z M261.3599999999999,319.4399999999998 h7 v7 h-7 Z M268.6199999999999,319.4399999999998 h7 v7 h-7 Z M312.17999999999984,319.4399999999998 h7 v7 h-7 Z M348.4799999999998,319.4399999999998 h7 v7 h-7 Z M471.89999999999964,319.4399999999998 h7 v7 h-7 Z M544.4999999999995,319.4399999999998 h7 v7 h-7 Z M573.5399999999995,319.4399999999998 h7 v7 h-7 Z M580.7999999999995,319.4399999999998 h7 v7 h-7 Z M602.5799999999995,319.4399999999998 h7 v7 h-7 Z M624.3599999999994,319.4399999999998 h7 v7 h-7 Z M631.6199999999994,319.4399999999998 h7 v7 h-7 Z M638.8799999999994,319.4399999999998 h7 v7 h-7 Z M646.1399999999994,319.4399999999998 h7 v7 h-7 Z M653.3999999999994,319.4399999999998 h7 v7 h-7 Z M152.46,326.6999999999998 h7 v7 h-7 Z M159.72,326.6999999999998 h7 v7 h-7 Z M166.98,326.6999999999998 h7 v7 h-7 Z M174.23999999999998,326.6999999999998 h7 v7 h-7 Z M181.49999999999997,326.6999999999998 h7 v7 h-7 Z M188.75999999999996,326.6999999999998 h7 v7 h-7 Z M196.01999999999995,326.6999999999998 h7 v7 h-7 Z M203.27999999999994,326.6999999999998 h7 v7 h-7 Z M210.53999999999994,326.6999999999998 h7 v7 h-7 Z M217.79999999999993,326.6999999999998 h7 v7 h-7 Z M225.05999999999992,326.6999999999998 h7 v7 h-7 Z M232.3199999999999,326.6999999999998 h7 v7 h-7 Z M261.3599999999999,326.6999999999998 h7 v7 h-7 Z M268.6199999999999,326.6999999999998 h7 v7 h-7 Z M312.17999999999984,326.6999999999998 h7 v7 h-7 Z M355.7399999999998,326.6999999999998 h7 v7 h-7 Z M471.89999999999964,326.6999999999998 h7 v7 h-7 Z M544.4999999999995,326.6999999999998 h7 v7 h-7 Z M573.5399999999995,326.6999999999998 h7 v7 h-7 Z M580.7999999999995,326.6999999999998 h7 v7 h-7 Z M595.3199999999995,326.6999999999998 h7 v7 h-7 Z M624.3599999999994,326.6999999999998 h7 v7 h-7 Z M631.6199999999994,326.6999999999998 h7 v7 h-7 Z M638.8799999999994,326.6999999999998 h7 v7 h-7 Z M646.1399999999994,326.6999999999998 h7 v7 h-7 Z M653.3999999999994,326.6999999999998 h7 v7 h-7 Z M152.46,333.9599999999998 h7 v7 h-7 Z M159.72,333.9599999999998 h7 v7 h-7 Z M166.98,333.9599999999998 h7 v7 h-7 Z M174.23999999999998,333.9599999999998 h7 v7 h-7 Z M181.49999999999997,333.9599999999998 h7 v7 h-7 Z M188.75999999999996,333.9599999999998 h7 v7 h-7 Z M203.27999999999994,333.9599999999998 h7 v7 h-7 Z M210.53999999999994,333.9599999999998 h7 v7 h-7 Z M217.79999999999993,333.9599999999998 h7 v7 h-7 Z M225.05999999999992,333.9599999999998 h7 v7 h-7 Z M232.3199999999999,333.9599999999998 h7 v7 h-7 Z M261.3599999999999,333.9599999999998 h7 v7 h-7 Z M268.6199999999999,333.9599999999998 h7 v7 h-7 Z M312.17999999999984,333.9599999999998 h7 v7 h-7 Z M355.7399999999998,333.9599999999998 h7 v7 h-7 Z M406.5599999999997,333.9599999999998 h7 v7 h-7 Z M428.3399999999997,333.9599999999998 h7 v7 h-7 Z M435.5999999999997,333.9599999999998 h7 v7 h-7 Z M442.8599999999997,333.9599999999998 h7 v7 h-7 Z M450.11999999999966,333.9599999999998 h7 v7 h-7 Z M457.37999999999965,333.9599999999998 h7 v7 h-7 Z M464.63999999999965,333.9599999999998 h7 v7 h-7 Z M471.89999999999964,333.9599999999998 h7 v7 h-7 Z M479.1599999999996,333.9599999999998 h7 v7 h-7 Z M544.4999999999995,333.9599999999998 h7 v7 h-7 Z M566.2799999999995,333.9599999999998 h7 v7 h-7 Z M573.5399999999995,333.9599999999998 h7 v7 h-7 Z M580.7999999999995,333.9599999999998 h7 v7 h-7 Z M595.3199999999995,333.9599999999998 h7 v7 h-7 Z M624.3599999999994,333.9599999999998 h7 v7 h-7 Z M631.6199999999994,333.9599999999998 h7 v7 h-7 Z M638.8799999999994,333.9599999999998 h7 v7 h-7 Z M646.1399999999994,333.9599999999998 h7 v7 h-7 Z M653.3999999999994,333.9599999999998 h7 v7 h-7 Z M660.6599999999994,333.9599999999998 h7 v7 h-7 Z M152.46,341.2199999999998 h7 v7 h-7 Z M159.72,341.2199999999998 h7 v7 h-7 Z M166.98,341.2199999999998 h7 v7 h-7 Z M174.23999999999998,341.2199999999998 h7 v7 h-7 Z M181.49999999999997,341.2199999999998 h7 v7 h-7 Z M203.27999999999994,341.2199999999998 h7 v7 h-7 Z M210.53999999999994,341.2199999999998 h7 v7 h-7 Z M217.79999999999993,341.2199999999998 h7 v7 h-7 Z M225.05999999999992,341.2199999999998 h7 v7 h-7 Z M232.3199999999999,341.2199999999998 h7 v7 h-7 Z M268.6199999999999,341.2199999999998 h7 v7 h-7 Z M275.8799999999999,341.2199999999998 h7 v7 h-7 Z M312.17999999999984,341.2199999999998 h7 v7 h-7 Z M355.7399999999998,341.2199999999998 h7 v7 h-7 Z M406.5599999999997,341.2199999999998 h7 v7 h-7 Z M428.3399999999997,341.2199999999998 h7 v7 h-7 Z M537.2399999999996,341.2199999999998 h7 v7 h-7 Z M544.4999999999995,341.2199999999998 h7 v7 h-7 Z M573.5399999999995,341.2199999999998 h7 v7 h-7 Z M588.0599999999995,341.2199999999998 h7 v7 h-7 Z M602.5799999999995,341.2199999999998 h7 v7 h-7 Z M624.3599999999994,341.2199999999998 h7 v7 h-7 Z M631.6199999999994,341.2199999999998 h7 v7 h-7 Z M638.8799999999994,341.2199999999998 h7 v7 h-7 Z M646.1399999999994,341.2199999999998 h7 v7 h-7 Z M152.46,348.4799999999998 h7 v7 h-7 Z M159.72,348.4799999999998 h7 v7 h-7 Z M166.98,348.4799999999998 h7 v7 h-7 Z M174.23999999999998,348.4799999999998 h7 v7 h-7 Z M181.49999999999997,348.4799999999998 h7 v7 h-7 Z M203.27999999999994,348.4799999999998 h7 v7 h-7 Z M210.53999999999994,348.4799999999998 h7 v7 h-7 Z M217.79999999999993,348.4799999999998 h7 v7 h-7 Z M225.05999999999992,348.4799999999998 h7 v7 h-7 Z M268.6199999999999,348.4799999999998 h7 v7 h-7 Z M275.8799999999999,348.4799999999998 h7 v7 h-7 Z M312.17999999999984,348.4799999999998 h7 v7 h-7 Z M355.7399999999998,348.4799999999998 h7 v7 h-7 Z M406.5599999999997,348.4799999999998 h7 v7 h-7 Z M421.0799999999997,348.4799999999998 h7 v7 h-7 Z M428.3399999999997,348.4799999999998 h7 v7 h-7 Z M508.1999999999996,348.4799999999998 h7 v7 h-7 Z M515.4599999999996,348.4799999999998 h7 v7 h-7 Z M537.2399999999996,348.4799999999998 h7 v7 h-7 Z M544.4999999999995,348.4799999999998 h7 v7 h-7 Z M573.5399999999995,348.4799999999998 h7 v7 h-7 Z M588.0599999999995,348.4799999999998 h7 v7 h-7 Z M602.5799999999995,348.4799999999998 h7 v7 h-7 Z M624.3599999999994,348.4799999999998 h7 v7 h-7 Z M631.6199999999994,348.4799999999998 h7 v7 h-7 Z M638.8799999999994,348.4799999999998 h7 v7 h-7 Z M646.1399999999994,348.4799999999998 h7 v7 h-7 Z M166.98,355.7399999999998 h7 v7 h-7 Z M174.23999999999998,355.7399999999998 h7 v7 h-7 Z M181.49999999999997,355.7399999999998 h7 v7 h-7 Z M203.27999999999994,355.7399999999998 h7 v7 h-7 Z M210.53999999999994,355.7399999999998 h7 v7 h-7 Z M217.79999999999993,355.7399999999998 h7 v7 h-7 Z M268.6199999999999,355.7399999999998 h7 v7 h-7 Z M275.8799999999999,355.7399999999998 h7 v7 h-7 Z M312.17999999999984,355.7399999999998 h7 v7 h-7 Z M355.7399999999998,355.7399999999998 h7 v7 h-7 Z M362.9999999999998,355.7399999999998 h7 v7 h-7 Z M406.5599999999997,355.7399999999998 h7 v7 h-7 Z M421.0799999999997,355.7399999999998 h7 v7 h-7 Z M508.1999999999996,355.7399999999998 h7 v7 h-7 Z M537.2399999999996,355.7399999999998 h7 v7 h-7 Z M544.4999999999995,355.7399999999998 h7 v7 h-7 Z M573.5399999999995,355.7399999999998 h7 v7 h-7 Z M595.3199999999995,355.7399999999998 h7 v7 h-7 Z M617.0999999999995,355.7399999999998 h7 v7 h-7 Z M624.3599999999994,355.7399999999998 h7 v7 h-7 Z M631.6199999999994,355.7399999999998 h7 v7 h-7 Z M638.8799999999994,355.7399999999998 h7 v7 h-7 Z M646.1399999999994,355.7399999999998 h7 v7 h-7 Z M174.23999999999998,362.9999999999998 h7 v7 h-7 Z M181.49999999999997,362.9999999999998 h7 v7 h-7 Z M203.27999999999994,362.9999999999998 h7 v7 h-7 Z M210.53999999999994,362.9999999999998 h7 v7 h-7 Z M217.79999999999993,362.9999999999998 h7 v7 h-7 Z M268.6199999999999,362.9999999999998 h7 v7 h-7 Z M275.8799999999999,362.9999999999998 h7 v7 h-7 Z M312.17999999999984,362.9999999999998 h7 v7 h-7 Z M362.9999999999998,362.9999999999998 h7 v7 h-7 Z M406.5599999999997,362.9999999999998 h7 v7 h-7 Z M421.0799999999997,362.9999999999998 h7 v7 h-7 Z M500.9399999999996,362.9999999999998 h7 v7 h-7 Z M508.1999999999996,362.9999999999998 h7 v7 h-7 Z M537.2399999999996,362.9999999999998 h7 v7 h-7 Z M544.4999999999995,362.9999999999998 h7 v7 h-7 Z M566.2799999999995,362.9999999999998 h7 v7 h-7 Z M573.5399999999995,362.9999999999998 h7 v7 h-7 Z M588.0599999999995,362.9999999999998 h7 v7 h-7 Z M617.0999999999995,362.9999999999998 h7 v7 h-7 Z M624.3599999999994,362.9999999999998 h7 v7 h-7 Z M631.6199999999994,362.9999999999998 h7 v7 h-7 Z M638.8799999999994,362.9999999999998 h7 v7 h-7 Z M174.23999999999998,370.25999999999976 h7 v7 h-7 Z M181.49999999999997,370.25999999999976 h7 v7 h-7 Z M210.53999999999994,370.25999999999976 h7 v7 h-7 Z M217.79999999999993,370.25999999999976 h7 v7 h-7 Z M268.6199999999999,370.25999999999976 h7 v7 h-7 Z M275.8799999999999,370.25999999999976 h7 v7 h-7 Z M312.17999999999984,370.25999999999976 h7 v7 h-7 Z M362.9999999999998,370.25999999999976 h7 v7 h-7 Z M406.5599999999997,370.25999999999976 h7 v7 h-7 Z M421.0799999999997,370.25999999999976 h7 v7 h-7 Z M500.9399999999996,370.25999999999976 h7 v7 h-7 Z M537.2399999999996,370.25999999999976 h7 v7 h-7 Z M551.7599999999995,370.25999999999976 h7 v7 h-7 Z M559.0199999999995,370.25999999999976 h7 v7 h-7 Z M566.2799999999995,370.25999999999976 h7 v7 h-7 Z M573.5399999999995,370.25999999999976 h7 v7 h-7 Z M580.7999999999995,370.25999999999976 h7 v7 h-7 Z M588.0599999999995,370.25999999999976 h7 v7 h-7 Z M609.8399999999995,370.25999999999976 h7 v7 h-7 Z M617.0999999999995,370.25999999999976 h7 v7 h-7 Z M624.3599999999994,370.25999999999976 h7 v7 h-7 Z M631.6199999999994,370.25999999999976 h7 v7 h-7 Z M638.8799999999994,370.25999999999976 h7 v7 h-7 Z M181.49999999999997,377.51999999999975 h7 v7 h-7 Z M188.75999999999996,377.51999999999975 h7 v7 h-7 Z M210.53999999999994,377.51999999999975 h7 v7 h-7 Z M217.79999999999993,377.51999999999975 h7 v7 h-7 Z M225.05999999999992,377.51999999999975 h7 v7 h-7 Z M268.6199999999999,377.51999999999975 h7 v7 h-7 Z M275.8799999999999,377.51999999999975 h7 v7 h-7 Z M312.17999999999984,377.51999999999975 h7 v7 h-7 Z M362.9999999999998,377.51999999999975 h7 v7 h-7 Z M406.5599999999997,377.51999999999975 h7 v7 h-7 Z M421.0799999999997,377.51999999999975 h7 v7 h-7 Z M500.9399999999996,377.51999999999975 h7 v7 h-7 Z M537.2399999999996,377.51999999999975 h7 v7 h-7 Z M544.4999999999995,377.51999999999975 h7 v7 h-7 Z M551.7599999999995,377.51999999999975 h7 v7 h-7 Z M559.0199999999995,377.51999999999975 h7 v7 h-7 Z M573.5399999999995,377.51999999999975 h7 v7 h-7 Z M580.7999999999995,377.51999999999975 h7 v7 h-7 Z M595.3199999999995,377.51999999999975 h7 v7 h-7 Z M609.8399999999995,377.51999999999975 h7 v7 h-7 Z M617.0999999999995,377.51999999999975 h7 v7 h-7 Z M624.3599999999994,377.51999999999975 h7 v7 h-7 Z M631.6199999999994,377.51999999999975 h7 v7 h-7 Z M638.8799999999994,377.51999999999975 h7 v7 h-7 Z M181.49999999999997,384.77999999999975 h7 v7 h-7 Z M188.75999999999996,384.77999999999975 h7 v7 h-7 Z M225.05999999999992,384.77999999999975 h7 v7 h-7 Z M232.3199999999999,384.77999999999975 h7 v7 h-7 Z M239.5799999999999,384.77999999999975 h7 v7 h-7 Z M246.8399999999999,384.77999999999975 h7 v7 h-7 Z M254.09999999999988,384.77999999999975 h7 v7 h-7 Z M261.3599999999999,384.77999999999975 h7 v7 h-7 Z M268.6199999999999,384.77999999999975 h7 v7 h-7 Z M275.8799999999999,384.77999999999975 h7 v7 h-7 Z M304.91999999999985,384.77999999999975 h7 v7 h-7 Z M312.17999999999984,384.77999999999975 h7 v7 h-7 Z M362.9999999999998,384.77999999999975 h7 v7 h-7 Z M370.25999999999976,384.77999999999975 h7 v7 h-7 Z M406.5599999999997,384.77999999999975 h7 v7 h-7 Z M421.0799999999997,384.77999999999975 h7 v7 h-7 Z M500.9399999999996,384.77999999999975 h7 v7 h-7 Z M529.9799999999996,384.77999999999975 h7 v7 h-7 Z M537.2399999999996,384.77999999999975 h7 v7 h-7 Z M544.4999999999995,384.77999999999975 h7 v7 h-7 Z M551.7599999999995,384.77999999999975 h7 v7 h-7 Z M566.2799999999995,384.77999999999975 h7 v7 h-7 Z M573.5399999999995,384.77999999999975 h7 v7 h-7 Z M588.0599999999995,384.77999999999975 h7 v7 h-7 Z M595.3199999999995,384.77999999999975 h7 v7 h-7 Z M602.5799999999995,384.77999999999975 h7 v7 h-7 Z M609.8399999999995,384.77999999999975 h7 v7 h-7 Z M617.0999999999995,384.77999999999975 h7 v7 h-7 Z M624.3599999999994,384.77999999999975 h7 v7 h-7 Z M631.6199999999994,384.77999999999975 h7 v7 h-7 Z M166.98,392.03999999999974 h7 v7 h-7 Z M174.23999999999998,392.03999999999974 h7 v7 h-7 Z M181.49999999999997,392.03999999999974 h7 v7 h-7 Z M188.75999999999996,392.03999999999974 h7 v7 h-7 Z M232.3199999999999,392.03999999999974 h7 v7 h-7 Z M239.5799999999999,392.03999999999974 h7 v7 h-7 Z M254.09999999999988,392.03999999999974 h7 v7 h-7 Z M261.3599999999999,392.03999999999974 h7 v7 h-7 Z M268.6199999999999,392.03999999999974 h7 v7 h-7 Z M275.8799999999999,392.03999999999974 h7 v7 h-7 Z M283.1399999999999,392.03999999999974 h7 v7 h-7 Z M290.39999999999986,392.03999999999974 h7 v7 h-7 Z M297.65999999999985,392.03999999999974 h7 v7 h-7 Z M304.91999999999985,392.03999999999974 h7 v7 h-7 Z M312.17999999999984,392.03999999999974 h7 v7 h-7 Z M362.9999999999998,392.03999999999974 h7 v7 h-7 Z M370.25999999999976,392.03999999999974 h7 v7 h-7 Z M399.2999999999997,392.03999999999974 h7 v7 h-7 Z M406.5599999999997,392.03999999999974 h7 v7 h-7 Z M421.0799999999997,392.03999999999974 h7 v7 h-7 Z M500.9399999999996,392.03999999999974 h7 v7 h-7 Z M529.9799999999996,392.03999999999974 h7 v7 h-7 Z M537.2399999999996,392.03999999999974 h7 v7 h-7 Z M544.4999999999995,392.03999999999974 h7 v7 h-7 Z M551.7599999999995,392.03999999999974 h7 v7 h-7 Z M559.0199999999995,392.03999999999974 h7 v7 h-7 Z M566.2799999999995,392.03999999999974 h7 v7 h-7 Z M573.5399999999995,392.03999999999974 h7 v7 h-7 Z M580.7999999999995,392.03999999999974 h7 v7 h-7 Z M588.0599999999995,392.03999999999974 h7 v7 h-7 Z M595.3199999999995,392.03999999999974 h7 v7 h-7 Z M602.5799999999995,392.03999999999974 h7 v7 h-7 Z M609.8399999999995,392.03999999999974 h7 v7 h-7 Z M617.0999999999995,392.03999999999974 h7 v7 h-7 Z M624.3599999999994,392.03999999999974 h7 v7 h-7 Z M631.6199999999994,392.03999999999974 h7 v7 h-7 Z M166.98,399.2999999999997 h7 v7 h-7 Z M188.75999999999996,399.2999999999997 h7 v7 h-7 Z M196.01999999999995,399.2999999999997 h7 v7 h-7 Z M246.8399999999999,399.2999999999997 h7 v7 h-7 Z M254.09999999999988,399.2999999999997 h7 v7 h-7 Z M261.3599999999999,399.2999999999997 h7 v7 h-7 Z M268.6199999999999,399.2999999999997 h7 v7 h-7 Z M275.8799999999999,399.2999999999997 h7 v7 h-7 Z M283.1399999999999,399.2999999999997 h7 v7 h-7 Z M290.39999999999986,399.2999999999997 h7 v7 h-7 Z M297.65999999999985,399.2999999999997 h7 v7 h-7 Z M304.91999999999985,399.2999999999997 h7 v7 h-7 Z M312.17999999999984,399.2999999999997 h7 v7 h-7 Z M370.25999999999976,399.2999999999997 h7 v7 h-7 Z M399.2999999999997,399.2999999999997 h7 v7 h-7 Z M421.0799999999997,399.2999999999997 h7 v7 h-7 Z M500.9399999999996,399.2999999999997 h7 v7 h-7 Z M529.9799999999996,399.2999999999997 h7 v7 h-7 Z M537.2399999999996,399.2999999999997 h7 v7 h-7 Z M544.4999999999995,399.2999999999997 h7 v7 h-7 Z M559.0199999999995,399.2999999999997 h7 v7 h-7 Z M566.2799999999995,399.2999999999997 h7 v7 h-7 Z M573.5399999999995,399.2999999999997 h7 v7 h-7 Z M580.7999999999995,399.2999999999997 h7 v7 h-7 Z M588.0599999999995,399.2999999999997 h7 v7 h-7 Z M595.3199999999995,399.2999999999997 h7 v7 h-7 Z M602.5799999999995,399.2999999999997 h7 v7 h-7 Z M609.8399999999995,399.2999999999997 h7 v7 h-7 Z M617.0999999999995,399.2999999999997 h7 v7 h-7 Z M624.3599999999994,399.2999999999997 h7 v7 h-7 Z M631.6199999999994,399.2999999999997 h7 v7 h-7 Z M188.75999999999996,406.5599999999997 h7 v7 h-7 Z M196.01999999999995,406.5599999999997 h7 v7 h-7 Z M203.27999999999994,406.5599999999997 h7 v7 h-7 Z M210.53999999999994,406.5599999999997 h7 v7 h-7 Z M232.3199999999999,406.5599999999997 h7 v7 h-7 Z M254.09999999999988,406.5599999999997 h7 v7 h-7 Z M261.3599999999999,406.5599999999997 h7 v7 h-7 Z M268.6199999999999,406.5599999999997 h7 v7 h-7 Z M275.8799999999999,406.5599999999997 h7 v7 h-7 Z M297.65999999999985,406.5599999999997 h7 v7 h-7 Z M304.91999999999985,406.5599999999997 h7 v7 h-7 Z M370.25999999999976,406.5599999999997 h7 v7 h-7 Z M377.51999999999975,406.5599999999997 h7 v7 h-7 Z M392.03999999999974,406.5599999999997 h7 v7 h-7 Z M399.2999999999997,406.5599999999997 h7 v7 h-7 Z M413.8199999999997,406.5599999999997 h7 v7 h-7 Z M421.0799999999997,406.5599999999997 h7 v7 h-7 Z M500.9399999999996,406.5599999999997 h7 v7 h-7 Z M529.9799999999996,406.5599999999997 h7 v7 h-7 Z M537.2399999999996,406.5599999999997 h7 v7 h-7 Z M544.4999999999995,406.5599999999997 h7 v7 h-7 Z M551.7599999999995,406.5599999999997 h7 v7 h-7 Z M559.0199999999995,406.5599999999997 h7 v7 h-7 Z M566.2799999999995,406.5599999999997 h7 v7 h-7 Z M573.5399999999995,406.5599999999997 h7 v7 h-7 Z M580.7999999999995,406.5599999999997 h7 v7 h-7 Z M588.0599999999995,406.5599999999997 h7 v7 h-7 Z M595.3199999999995,406.5599999999997 h7 v7 h-7 Z M602.5799999999995,406.5599999999997 h7 v7 h-7 Z M609.8399999999995,406.5599999999997 h7 v7 h-7 Z M617.0999999999995,406.5599999999997 h7 v7 h-7 Z M196.01999999999995,413.8199999999997 h7 v7 h-7 Z M203.27999999999994,413.8199999999997 h7 v7 h-7 Z M210.53999999999994,413.8199999999997 h7 v7 h-7 Z M217.79999999999993,413.8199999999997 h7 v7 h-7 Z M225.05999999999992,413.8199999999997 h7 v7 h-7 Z M246.8399999999999,413.8199999999997 h7 v7 h-7 Z M254.09999999999988,413.8199999999997 h7 v7 h-7 Z M268.6199999999999,413.8199999999997 h7 v7 h-7 Z M275.8799999999999,413.8199999999997 h7 v7 h-7 Z M283.1399999999999,413.8199999999997 h7 v7 h-7 Z M290.39999999999986,413.8199999999997 h7 v7 h-7 Z M297.65999999999985,413.8199999999997 h7 v7 h-7 Z M304.91999999999985,413.8199999999997 h7 v7 h-7 Z M312.17999999999984,413.8199999999997 h7 v7 h-7 Z M370.25999999999976,413.8199999999997 h7 v7 h-7 Z M377.51999999999975,413.8199999999997 h7 v7 h-7 Z M384.77999999999975,413.8199999999997 h7 v7 h-7 Z M392.03999999999974,413.8199999999997 h7 v7 h-7 Z M399.2999999999997,413.8199999999997 h7 v7 h-7 Z M406.5599999999997,413.8199999999997 h7 v7 h-7 Z M413.8199999999997,413.8199999999997 h7 v7 h-7 Z M421.0799999999997,413.8199999999997 h7 v7 h-7 Z M500.9399999999996,413.8199999999997 h7 v7 h-7 Z M529.9799999999996,413.8199999999997 h7 v7 h-7 Z M537.2399999999996,413.8199999999997 h7 v7 h-7 Z M544.4999999999995,413.8199999999997 h7 v7 h-7 Z M559.0199999999995,413.8199999999997 h7 v7 h-7 Z M566.2799999999995,413.8199999999997 h7 v7 h-7 Z M573.5399999999995,413.8199999999997 h7 v7 h-7 Z M580.7999999999995,413.8199999999997 h7 v7 h-7 Z M588.0599999999995,413.8199999999997 h7 v7 h-7 Z M595.3199999999995,413.8199999999997 h7 v7 h-7 Z M602.5799999999995,413.8199999999997 h7 v7 h-7 Z M609.8399999999995,413.8199999999997 h7 v7 h-7 Z M196.01999999999995,421.0799999999997 h7 v7 h-7 Z M203.27999999999994,421.0799999999997 h7 v7 h-7 Z M210.53999999999994,421.0799999999997 h7 v7 h-7 Z M217.79999999999993,421.0799999999997 h7 v7 h-7 Z M225.05999999999992,421.0799999999997 h7 v7 h-7 Z M232.3199999999999,421.0799999999997 h7 v7 h-7 Z M239.5799999999999,421.0799999999997 h7 v7 h-7 Z M246.8399999999999,421.0799999999997 h7 v7 h-7 Z M254.09999999999988,421.0799999999997 h7 v7 h-7 Z M261.3599999999999,421.0799999999997 h7 v7 h-7 Z M268.6199999999999,421.0799999999997 h7 v7 h-7 Z M275.8799999999999,421.0799999999997 h7 v7 h-7 Z M283.1399999999999,421.0799999999997 h7 v7 h-7 Z M297.65999999999985,421.0799999999997 h7 v7 h-7 Z M304.91999999999985,421.0799999999997 h7 v7 h-7 Z M312.17999999999984,421.0799999999997 h7 v7 h-7 Z M319.4399999999998,421.0799999999997 h7 v7 h-7 Z M370.25999999999976,421.0799999999997 h7 v7 h-7 Z M377.51999999999975,421.0799999999997 h7 v7 h-7 Z M384.77999999999975,421.0799999999997 h7 v7 h-7 Z M406.5599999999997,421.0799999999997 h7 v7 h-7 Z M413.8199999999997,421.0799999999997 h7 v7 h-7 Z M421.0799999999997,421.0799999999997 h7 v7 h-7 Z M493.6799999999996,421.0799999999997 h7 v7 h-7 Z M529.9799999999996,421.0799999999997 h7 v7 h-7 Z M537.2399999999996,421.0799999999997 h7 v7 h-7 Z M544.4999999999995,421.0799999999997 h7 v7 h-7 Z M551.7599999999995,421.0799999999997 h7 v7 h-7 Z M559.0199999999995,421.0799999999997 h7 v7 h-7 Z M566.2799999999995,421.0799999999997 h7 v7 h-7 Z M573.5399999999995,421.0799999999997 h7 v7 h-7 Z M580.7999999999995,421.0799999999997 h7 v7 h-7 Z M588.0599999999995,421.0799999999997 h7 v7 h-7 Z M595.3199999999995,421.0799999999997 h7 v7 h-7 Z M602.5799999999995,421.0799999999997 h7 v7 h-7 Z M210.53999999999994,428.3399999999997 h7 v7 h-7 Z M217.79999999999993,428.3399999999997 h7 v7 h-7 Z M225.05999999999992,428.3399999999997 h7 v7 h-7 Z M246.8399999999999,428.3399999999997 h7 v7 h-7 Z M254.09999999999988,428.3399999999997 h7 v7 h-7 Z M261.3599999999999,428.3399999999997 h7 v7 h-7 Z M268.6199999999999,428.3399999999997 h7 v7 h-7 Z M275.8799999999999,428.3399999999997 h7 v7 h-7 Z M283.1399999999999,428.3399999999997 h7 v7 h-7 Z M290.39999999999986,428.3399999999997 h7 v7 h-7 Z M297.65999999999985,428.3399999999997 h7 v7 h-7 Z M304.91999999999985,428.3399999999997 h7 v7 h-7 Z M312.17999999999984,428.3399999999997 h7 v7 h-7 Z M319.4399999999998,428.3399999999997 h7 v7 h-7 Z M326.6999999999998,428.3399999999997 h7 v7 h-7 Z M333.9599999999998,428.3399999999997 h7 v7 h-7 Z M341.2199999999998,428.3399999999997 h7 v7 h-7 Z M348.4799999999998,428.3399999999997 h7 v7 h-7 Z M355.7399999999998,428.3399999999997 h7 v7 h-7 Z M362.9999999999998,428.3399999999997 h7 v7 h-7 Z M370.25999999999976,428.3399999999997 h7 v7 h-7 Z M377.51999999999975,428.3399999999997 h7 v7 h-7 Z M384.77999999999975,428.3399999999997 h7 v7 h-7 Z M413.8199999999997,428.3399999999997 h7 v7 h-7 Z M421.0799999999997,428.3399999999997 h7 v7 h-7 Z M493.6799999999996,428.3399999999997 h7 v7 h-7 Z M522.7199999999996,428.3399999999997 h7 v7 h-7 Z M529.9799999999996,428.3399999999997 h7 v7 h-7 Z M537.2399999999996,428.3399999999997 h7 v7 h-7 Z M544.4999999999995,428.3399999999997 h7 v7 h-7 Z M551.7599999999995,428.3399999999997 h7 v7 h-7 Z M559.0199999999995,428.3399999999997 h7 v7 h-7 Z M566.2799999999995,428.3399999999997 h7 v7 h-7 Z M573.5399999999995,428.3399999999997 h7 v7 h-7 Z M602.5799999999995,428.3399999999997 h7 v7 h-7 Z M217.79999999999993,435.5999999999997 h7 v7 h-7 Z M225.05999999999992,435.5999999999997 h7 v7 h-7 Z M232.3199999999999,435.5999999999997 h7 v7 h-7 Z M239.5799999999999,435.5999999999997 h7 v7 h-7 Z M254.09999999999988,435.5999999999997 h7 v7 h-7 Z M261.3599999999999,435.5999999999997 h7 v7 h-7 Z M268.6199999999999,435.5999999999997 h7 v7 h-7 Z M275.8799999999999,435.5999999999997 h7 v7 h-7 Z M283.1399999999999,435.5999999999997 h7 v7 h-7 Z M297.65999999999985,435.5999999999997 h7 v7 h-7 Z M304.91999999999985,435.5999999999997 h7 v7 h-7 Z M312.17999999999984,435.5999999999997 h7 v7 h-7 Z M319.4399999999998,435.5999999999997 h7 v7 h-7 Z M326.6999999999998,435.5999999999997 h7 v7 h-7 Z M333.9599999999998,435.5999999999997 h7 v7 h-7 Z M341.2199999999998,435.5999999999997 h7 v7 h-7 Z M348.4799999999998,435.5999999999997 h7 v7 h-7 Z M355.7399999999998,435.5999999999997 h7 v7 h-7 Z M362.9999999999998,435.5999999999997 h7 v7 h-7 Z M370.25999999999976,435.5999999999997 h7 v7 h-7 Z M413.8199999999997,435.5999999999997 h7 v7 h-7 Z M421.0799999999997,435.5999999999997 h7 v7 h-7 Z M493.6799999999996,435.5999999999997 h7 v7 h-7 Z M508.1999999999996,435.5999999999997 h7 v7 h-7 Z M515.4599999999996,435.5999999999997 h7 v7 h-7 Z M522.7199999999996,435.5999999999997 h7 v7 h-7 Z M529.9799999999996,435.5999999999997 h7 v7 h-7 Z M537.2399999999996,435.5999999999997 h7 v7 h-7 Z M544.4999999999995,435.5999999999997 h7 v7 h-7 Z M566.2799999999995,435.5999999999997 h7 v7 h-7 Z M573.5399999999995,435.5999999999997 h7 v7 h-7 Z M638.8799999999994,435.5999999999997 h7 v7 h-7 Z M159.72,442.8599999999997 h7 v7 h-7 Z M225.05999999999992,442.8599999999997 h7 v7 h-7 Z M232.3199999999999,442.8599999999997 h7 v7 h-7 Z M239.5799999999999,442.8599999999997 h7 v7 h-7 Z M246.8399999999999,442.8599999999997 h7 v7 h-7 Z M254.09999999999988,442.8599999999997 h7 v7 h-7 Z M261.3599999999999,442.8599999999997 h7 v7 h-7 Z M268.6199999999999,442.8599999999997 h7 v7 h-7 Z M283.1399999999999,442.8599999999997 h7 v7 h-7 Z M290.39999999999986,442.8599999999997 h7 v7 h-7 Z M297.65999999999985,442.8599999999997 h7 v7 h-7 Z M304.91999999999985,442.8599999999997 h7 v7 h-7 Z M312.17999999999984,442.8599999999997 h7 v7 h-7 Z M319.4399999999998,442.8599999999997 h7 v7 h-7 Z M326.6999999999998,442.8599999999997 h7 v7 h-7 Z M333.9599999999998,442.8599999999997 h7 v7 h-7 Z M341.2199999999998,442.8599999999997 h7 v7 h-7 Z M348.4799999999998,442.8599999999997 h7 v7 h-7 Z M355.7399999999998,442.8599999999997 h7 v7 h-7 Z M362.9999999999998,442.8599999999997 h7 v7 h-7 Z M370.25999999999976,442.8599999999997 h7 v7 h-7 Z M413.8199999999997,442.8599999999997 h7 v7 h-7 Z M421.0799999999997,442.8599999999997 h7 v7 h-7 Z M428.3399999999997,442.8599999999997 h7 v7 h-7 Z M435.5999999999997,442.8599999999997 h7 v7 h-7 Z M442.8599999999997,442.8599999999997 h7 v7 h-7 Z M479.1599999999996,442.8599999999997 h7 v7 h-7 Z M486.4199999999996,442.8599999999997 h7 v7 h-7 Z M493.6799999999996,442.8599999999997 h7 v7 h-7 Z M500.9399999999996,442.8599999999997 h7 v7 h-7 Z M508.1999999999996,442.8599999999997 h7 v7 h-7 Z M515.4599999999996,442.8599999999997 h7 v7 h-7 Z M522.7199999999996,442.8599999999997 h7 v7 h-7 Z M529.9799999999996,442.8599999999997 h7 v7 h-7 Z M573.5399999999995,442.8599999999997 h7 v7 h-7 Z M609.8399999999995,442.8599999999997 h7 v7 h-7 Z M617.0999999999995,442.8599999999997 h7 v7 h-7 Z M624.3599999999994,442.8599999999997 h7 v7 h-7 Z M631.6199999999994,442.8599999999997 h7 v7 h-7 Z M638.8799999999994,442.8599999999997 h7 v7 h-7 Z M646.1399999999994,442.8599999999997 h7 v7 h-7 Z M653.3999999999994,442.8599999999997 h7 v7 h-7 Z M116.16000000000003,450.11999999999966 h7 v7 h-7 Z M123.42000000000003,450.11999999999966 h7 v7 h-7 Z M145.20000000000002,450.11999999999966 h7 v7 h-7 Z M152.46,450.11999999999966 h7 v7 h-7 Z M159.72,450.11999999999966 h7 v7 h-7 Z M166.98,450.11999999999966 h7 v7 h-7 Z M196.01999999999995,450.11999999999966 h7 v7 h-7 Z M217.79999999999993,450.11999999999966 h7 v7 h-7 Z M225.05999999999992,450.11999999999966 h7 v7 h-7 Z M246.8399999999999,450.11999999999966 h7 v7 h-7 Z M254.09999999999988,450.11999999999966 h7 v7 h-7 Z M261.3599999999999,450.11999999999966 h7 v7 h-7 Z M268.6199999999999,450.11999999999966 h7 v7 h-7 Z M275.8799999999999,450.11999999999966 h7 v7 h-7 Z M283.1399999999999,450.11999999999966 h7 v7 h-7 Z M290.39999999999986,450.11999999999966 h7 v7 h-7 Z M297.65999999999985,450.11999999999966 h7 v7 h-7 Z M304.91999999999985,450.11999999999966 h7 v7 h-7 Z M312.17999999999984,450.11999999999966 h7 v7 h-7 Z M319.4399999999998,450.11999999999966 h7 v7 h-7 Z M326.6999999999998,450.11999999999966 h7 v7 h-7 Z M333.9599999999998,450.11999999999966 h7 v7 h-7 Z M341.2199999999998,450.11999999999966 h7 v7 h-7 Z M348.4799999999998,450.11999999999966 h7 v7 h-7 Z M355.7399999999998,450.11999999999966 h7 v7 h-7 Z M370.25999999999976,450.11999999999966 h7 v7 h-7 Z M421.0799999999997,450.11999999999966 h7 v7 h-7 Z M428.3399999999997,450.11999999999966 h7 v7 h-7 Z M435.5999999999997,450.11999999999966 h7 v7 h-7 Z M442.8599999999997,450.11999999999966 h7 v7 h-7 Z M450.11999999999966,450.11999999999966 h7 v7 h-7 Z M457.37999999999965,450.11999999999966 h7 v7 h-7 Z M464.63999999999965,450.11999999999966 h7 v7 h-7 Z M471.89999999999964,450.11999999999966 h7 v7 h-7 Z M479.1599999999996,450.11999999999966 h7 v7 h-7 Z M486.4199999999996,450.11999999999966 h7 v7 h-7 Z M493.6799999999996,450.11999999999966 h7 v7 h-7 Z M500.9399999999996,450.11999999999966 h7 v7 h-7 Z M508.1999999999996,450.11999999999966 h7 v7 h-7 Z M515.4599999999996,450.11999999999966 h7 v7 h-7 Z M602.5799999999995,450.11999999999966 h7 v7 h-7 Z M609.8399999999995,450.11999999999966 h7 v7 h-7 Z M617.0999999999995,450.11999999999966 h7 v7 h-7 Z M624.3599999999994,450.11999999999966 h7 v7 h-7 Z M631.6199999999994,450.11999999999966 h7 v7 h-7 Z M638.8799999999994,450.11999999999966 h7 v7 h-7 Z M646.1399999999994,450.11999999999966 h7 v7 h-7 Z M653.3999999999994,450.11999999999966 h7 v7 h-7 Z M123.42000000000003,457.37999999999965 h7 v7 h-7 Z M130.68000000000004,457.37999999999965 h7 v7 h-7 Z M137.94000000000003,457.37999999999965 h7 v7 h-7 Z M145.20000000000002,457.37999999999965 h7 v7 h-7 Z M152.46,457.37999999999965 h7 v7 h-7 Z M159.72,457.37999999999965 h7 v7 h-7 Z M166.98,457.37999999999965 h7 v7 h-7 Z M174.23999999999998,457.37999999999965 h7 v7 h-7 Z M181.49999999999997,457.37999999999965 h7 v7 h-7 Z M188.75999999999996,457.37999999999965 h7 v7 h-7 Z M196.01999999999995,457.37999999999965 h7 v7 h-7 Z M217.79999999999993,457.37999999999965 h7 v7 h-7 Z M268.6199999999999,457.37999999999965 h7 v7 h-7 Z M275.8799999999999,457.37999999999965 h7 v7 h-7 Z M283.1399999999999,457.37999999999965 h7 v7 h-7 Z M290.39999999999986,457.37999999999965 h7 v7 h-7 Z M297.65999999999985,457.37999999999965 h7 v7 h-7 Z M304.91999999999985,457.37999999999965 h7 v7 h-7 Z M312.17999999999984,457.37999999999965 h7 v7 h-7 Z M319.4399999999998,457.37999999999965 h7 v7 h-7 Z M326.6999999999998,457.37999999999965 h7 v7 h-7 Z M333.9599999999998,457.37999999999965 h7 v7 h-7 Z M341.2199999999998,457.37999999999965 h7 v7 h-7 Z M348.4799999999998,457.37999999999965 h7 v7 h-7 Z M355.7399999999998,457.37999999999965 h7 v7 h-7 Z M362.9999999999998,457.37999999999965 h7 v7 h-7 Z M370.25999999999976,457.37999999999965 h7 v7 h-7 Z M377.51999999999975,457.37999999999965 h7 v7 h-7 Z M442.8599999999997,457.37999999999965 h7 v7 h-7 Z M450.11999999999966,457.37999999999965 h7 v7 h-7 Z M457.37999999999965,457.37999999999965 h7 v7 h-7 Z M464.63999999999965,457.37999999999965 h7 v7 h-7 Z M471.89999999999964,457.37999999999965 h7 v7 h-7 Z M479.1599999999996,457.37999999999965 h7 v7 h-7 Z M486.4199999999996,457.37999999999965 h7 v7 h-7 Z M493.6799999999996,457.37999999999965 h7 v7 h-7 Z M500.9399999999996,457.37999999999965 h7 v7 h-7 Z M508.1999999999996,457.37999999999965 h7 v7 h-7 Z M595.3199999999995,457.37999999999965 h7 v7 h-7 Z M602.5799999999995,457.37999999999965 h7 v7 h-7 Z M609.8399999999995,457.37999999999965 h7 v7 h-7 Z M631.6199999999994,457.37999999999965 h7 v7 h-7 Z M646.1399999999994,457.37999999999965 h7 v7 h-7 Z M653.3999999999994,457.37999999999965 h7 v7 h-7 Z M116.16000000000003,464.63999999999965 h7 v7 h-7 Z M123.42000000000003,464.63999999999965 h7 v7 h-7 Z M130.68000000000004,464.63999999999965 h7 v7 h-7 Z M137.94000000000003,464.63999999999965 h7 v7 h-7 Z M145.20000000000002,464.63999999999965 h7 v7 h-7 Z M152.46,464.63999999999965 h7 v7 h-7 Z M181.49999999999997,464.63999999999965 h7 v7 h-7 Z M188.75999999999996,464.63999999999965 h7 v7 h-7 Z M290.39999999999986,464.63999999999965 h7 v7 h-7 Z M297.65999999999985,464.63999999999965 h7 v7 h-7 Z M304.91999999999985,464.63999999999965 h7 v7 h-7 Z M312.17999999999984,464.63999999999965 h7 v7 h-7 Z M319.4399999999998,464.63999999999965 h7 v7 h-7 Z M326.6999999999998,464.63999999999965 h7 v7 h-7 Z M333.9599999999998,464.63999999999965 h7 v7 h-7 Z M341.2199999999998,464.63999999999965 h7 v7 h-7 Z M348.4799999999998,464.63999999999965 h7 v7 h-7 Z M355.7399999999998,464.63999999999965 h7 v7 h-7 Z M362.9999999999998,464.63999999999965 h7 v7 h-7 Z M370.25999999999976,464.63999999999965 h7 v7 h-7 Z M464.63999999999965,464.63999999999965 h7 v7 h-7 Z M471.89999999999964,464.63999999999965 h7 v7 h-7 Z M479.1599999999996,464.63999999999965 h7 v7 h-7 Z M486.4199999999996,464.63999999999965 h7 v7 h-7 Z M493.6799999999996,464.63999999999965 h7 v7 h-7 Z M500.9399999999996,464.63999999999965 h7 v7 h-7 Z M508.1999999999996,464.63999999999965 h7 v7 h-7 Z M515.4599999999996,464.63999999999965 h7 v7 h-7 Z M595.3199999999995,464.63999999999965 h7 v7 h-7 Z M602.5799999999995,464.63999999999965 h7 v7 h-7 Z M653.3999999999994,464.63999999999965 h7 v7 h-7 Z M660.6599999999994,464.63999999999965 h7 v7 h-7 Z M108.90000000000002,471.89999999999964 h7 v7 h-7 Z M116.16000000000003,471.89999999999964 h7 v7 h-7 Z M123.42000000000003,471.89999999999964 h7 v7 h-7 Z M130.68000000000004,471.89999999999964 h7 v7 h-7 Z M137.94000000000003,471.89999999999964 h7 v7 h-7 Z M188.75999999999996,471.89999999999964 h7 v7 h-7 Z M290.39999999999986,471.89999999999964 h7 v7 h-7 Z M333.9599999999998,471.89999999999964 h7 v7 h-7 Z M341.2199999999998,471.89999999999964 h7 v7 h-7 Z M348.4799999999998,471.89999999999964 h7 v7 h-7 Z M355.7399999999998,471.89999999999964 h7 v7 h-7 Z M370.25999999999976,471.89999999999964 h7 v7 h-7 Z M464.63999999999965,471.89999999999964 h7 v7 h-7 Z M471.89999999999964,471.89999999999964 h7 v7 h-7 Z M479.1599999999996,471.89999999999964 h7 v7 h-7 Z M486.4199999999996,471.89999999999964 h7 v7 h-7 Z M493.6799999999996,471.89999999999964 h7 v7 h-7 Z M500.9399999999996,471.89999999999964 h7 v7 h-7 Z M508.1999999999996,471.89999999999964 h7 v7 h-7 Z M588.0599999999995,471.89999999999964 h7 v7 h-7 Z M595.3199999999995,471.89999999999964 h7 v7 h-7 Z M653.3999999999994,471.89999999999964 h7 v7 h-7 Z M108.90000000000002,479.1599999999996 h7 v7 h-7 Z M116.16000000000003,479.1599999999996 h7 v7 h-7 Z M123.42000000000003,479.1599999999996 h7 v7 h-7 Z M130.68000000000004,479.1599999999996 h7 v7 h-7 Z M188.75999999999996,479.1599999999996 h7 v7 h-7 Z M196.01999999999995,479.1599999999996 h7 v7 h-7 Z M217.79999999999993,479.1599999999996 h7 v7 h-7 Z M341.2199999999998,479.1599999999996 h7 v7 h-7 Z M348.4799999999998,479.1599999999996 h7 v7 h-7 Z M355.7399999999998,479.1599999999996 h7 v7 h-7 Z M370.25999999999976,479.1599999999996 h7 v7 h-7 Z M471.89999999999964,479.1599999999996 h7 v7 h-7 Z M479.1599999999996,479.1599999999996 h7 v7 h-7 Z M486.4199999999996,479.1599999999996 h7 v7 h-7 Z M493.6799999999996,479.1599999999996 h7 v7 h-7 Z M500.9399999999996,479.1599999999996 h7 v7 h-7 Z M508.1999999999996,479.1599999999996 h7 v7 h-7 Z M588.0599999999995,479.1599999999996 h7 v7 h-7 Z M595.3199999999995,479.1599999999996 h7 v7 h-7 Z M653.3999999999994,479.1599999999996 h7 v7 h-7 Z M660.6599999999994,479.1599999999996 h7 v7 h-7 Z M108.90000000000002,486.4199999999996 h7 v7 h-7 Z M116.16000000000003,486.4199999999996 h7 v7 h-7 Z M123.42000000000003,486.4199999999996 h7 v7 h-7 Z M130.68000000000004,486.4199999999996 h7 v7 h-7 Z M196.01999999999995,486.4199999999996 h7 v7 h-7 Z M210.53999999999994,486.4199999999996 h7 v7 h-7 Z M217.79999999999993,486.4199999999996 h7 v7 h-7 Z M225.05999999999992,486.4199999999996 h7 v7 h-7 Z M341.2199999999998,486.4199999999996 h7 v7 h-7 Z M348.4799999999998,486.4199999999996 h7 v7 h-7 Z M355.7399999999998,486.4199999999996 h7 v7 h-7 Z M370.25999999999976,486.4199999999996 h7 v7 h-7 Z M377.51999999999975,486.4199999999996 h7 v7 h-7 Z M384.77999999999975,486.4199999999996 h7 v7 h-7 Z M399.2999999999997,486.4199999999996 h7 v7 h-7 Z M442.8599999999997,486.4199999999996 h7 v7 h-7 Z M479.1599999999996,486.4199999999996 h7 v7 h-7 Z M486.4199999999996,486.4199999999996 h7 v7 h-7 Z M493.6799999999996,486.4199999999996 h7 v7 h-7 Z M500.9399999999996,486.4199999999996 h7 v7 h-7 Z M508.1999999999996,486.4199999999996 h7 v7 h-7 Z M588.0599999999995,486.4199999999996 h7 v7 h-7 Z M595.3199999999995,486.4199999999996 h7 v7 h-7 Z M653.3999999999994,486.4199999999996 h7 v7 h-7 Z M108.90000000000002,493.6799999999996 h7 v7 h-7 Z M116.16000000000003,493.6799999999996 h7 v7 h-7 Z M123.42000000000003,493.6799999999996 h7 v7 h-7 Z M196.01999999999995,493.6799999999996 h7 v7 h-7 Z M203.27999999999994,493.6799999999996 h7 v7 h-7 Z M210.53999999999994,493.6799999999996 h7 v7 h-7 Z M217.79999999999993,493.6799999999996 h7 v7 h-7 Z M225.05999999999992,493.6799999999996 h7 v7 h-7 Z M232.3199999999999,493.6799999999996 h7 v7 h-7 Z M341.2199999999998,493.6799999999996 h7 v7 h-7 Z M348.4799999999998,493.6799999999996 h7 v7 h-7 Z M355.7399999999998,493.6799999999996 h7 v7 h-7 Z M370.25999999999976,493.6799999999996 h7 v7 h-7 Z M377.51999999999975,493.6799999999996 h7 v7 h-7 Z M384.77999999999975,493.6799999999996 h7 v7 h-7 Z M399.2999999999997,493.6799999999996 h7 v7 h-7 Z M413.8199999999997,493.6799999999996 h7 v7 h-7 Z M442.8599999999997,493.6799999999996 h7 v7 h-7 Z M479.1599999999996,493.6799999999996 h7 v7 h-7 Z M486.4199999999996,493.6799999999996 h7 v7 h-7 Z M493.6799999999996,493.6799999999996 h7 v7 h-7 Z M500.9399999999996,493.6799999999996 h7 v7 h-7 Z M508.1999999999996,493.6799999999996 h7 v7 h-7 Z M580.7999999999995,493.6799999999996 h7 v7 h-7 Z M588.0599999999995,493.6799999999996 h7 v7 h-7 Z M595.3199999999995,493.6799999999996 h7 v7 h-7 Z M646.1399999999994,493.6799999999996 h7 v7 h-7 Z M653.3999999999994,493.6799999999996 h7 v7 h-7 Z M667.9199999999994,493.6799999999996 h7 v7 h-7 Z M675.1799999999994,493.6799999999996 h7 v7 h-7 Z M101.64000000000001,500.9399999999996 h7 v7 h-7 Z M108.90000000000002,500.9399999999996 h7 v7 h-7 Z M116.16000000000003,500.9399999999996 h7 v7 h-7 Z M123.42000000000003,500.9399999999996 h7 v7 h-7 Z M203.27999999999994,500.9399999999996 h7 v7 h-7 Z M225.05999999999992,500.9399999999996 h7 v7 h-7 Z M232.3199999999999,500.9399999999996 h7 v7 h-7 Z M239.5799999999999,500.9399999999996 h7 v7 h-7 Z M341.2199999999998,500.9399999999996 h7 v7 h-7 Z M348.4799999999998,500.9399999999996 h7 v7 h-7 Z M355.7399999999998,500.9399999999996 h7 v7 h-7 Z M370.25999999999976,500.9399999999996 h7 v7 h-7 Z M384.77999999999975,500.9399999999996 h7 v7 h-7 Z M399.2999999999997,500.9399999999996 h7 v7 h-7 Z M413.8199999999997,500.9399999999996 h7 v7 h-7 Z M442.8599999999997,500.9399999999996 h7 v7 h-7 Z M471.89999999999964,500.9399999999996 h7 v7 h-7 Z M479.1599999999996,500.9399999999996 h7 v7 h-7 Z M486.4199999999996,500.9399999999996 h7 v7 h-7 Z M493.6799999999996,500.9399999999996 h7 v7 h-7 Z M500.9399999999996,500.9399999999996 h7 v7 h-7 Z M508.1999999999996,500.9399999999996 h7 v7 h-7 Z M588.0599999999995,500.9399999999996 h7 v7 h-7 Z M646.1399999999994,500.9399999999996 h7 v7 h-7 Z M653.3999999999994,500.9399999999996 h7 v7 h-7 Z M660.6599999999994,500.9399999999996 h7 v7 h-7 Z M667.9199999999994,500.9399999999996 h7 v7 h-7 Z M675.1799999999994,500.9399999999996 h7 v7 h-7 Z M682.4399999999994,500.9399999999996 h7 v7 h-7 Z M116.16000000000003,508.1999999999996 h7 v7 h-7 Z M123.42000000000003,508.1999999999996 h7 v7 h-7 Z M203.27999999999994,508.1999999999996 h7 v7 h-7 Z M225.05999999999992,508.1999999999996 h7 v7 h-7 Z M232.3199999999999,508.1999999999996 h7 v7 h-7 Z M341.2199999999998,508.1999999999996 h7 v7 h-7 Z M348.4799999999998,508.1999999999996 h7 v7 h-7 Z M355.7399999999998,508.1999999999996 h7 v7 h-7 Z M370.25999999999976,508.1999999999996 h7 v7 h-7 Z M384.77999999999975,508.1999999999996 h7 v7 h-7 Z M392.03999999999974,508.1999999999996 h7 v7 h-7 Z M399.2999999999997,508.1999999999996 h7 v7 h-7 Z M413.8199999999997,508.1999999999996 h7 v7 h-7 Z M442.8599999999997,508.1999999999996 h7 v7 h-7 Z M464.63999999999965,508.1999999999996 h7 v7 h-7 Z M471.89999999999964,508.1999999999996 h7 v7 h-7 Z M479.1599999999996,508.1999999999996 h7 v7 h-7 Z M486.4199999999996,508.1999999999996 h7 v7 h-7 Z M493.6799999999996,508.1999999999996 h7 v7 h-7 Z M500.9399999999996,508.1999999999996 h7 v7 h-7 Z M508.1999999999996,508.1999999999996 h7 v7 h-7 Z M515.4599999999996,508.1999999999996 h7 v7 h-7 Z M522.7199999999996,508.1999999999996 h7 v7 h-7 Z M588.0599999999995,508.1999999999996 h7 v7 h-7 Z M646.1399999999994,508.1999999999996 h7 v7 h-7 Z M653.3999999999994,508.1999999999996 h7 v7 h-7 Z M675.1799999999994,508.1999999999996 h7 v7 h-7 Z M682.4399999999994,508.1999999999996 h7 v7 h-7 Z M116.16000000000003,515.4599999999996 h7 v7 h-7 Z M123.42000000000003,515.4599999999996 h7 v7 h-7 Z M130.68000000000004,515.4599999999996 h7 v7 h-7 Z M203.27999999999994,515.4599999999996 h7 v7 h-7 Z M225.05999999999992,515.4599999999996 h7 v7 h-7 Z M232.3199999999999,515.4599999999996 h7 v7 h-7 Z M290.39999999999986,515.4599999999996 h7 v7 h-7 Z M297.65999999999985,515.4599999999996 h7 v7 h-7 Z M304.91999999999985,515.4599999999996 h7 v7 h-7 Z M312.17999999999984,515.4599999999996 h7 v7 h-7 Z M319.4399999999998,515.4599999999996 h7 v7 h-7 Z M326.6999999999998,515.4599999999996 h7 v7 h-7 Z M333.9599999999998,515.4599999999996 h7 v7 h-7 Z M341.2199999999998,515.4599999999996 h7 v7 h-7 Z M348.4799999999998,515.4599999999996 h7 v7 h-7 Z M355.7399999999998,515.4599999999996 h7 v7 h-7 Z M370.25999999999976,515.4599999999996 h7 v7 h-7 Z M377.51999999999975,515.4599999999996 h7 v7 h-7 Z M384.77999999999975,515.4599999999996 h7 v7 h-7 Z M392.03999999999974,515.4599999999996 h7 v7 h-7 Z M399.2999999999997,515.4599999999996 h7 v7 h-7 Z M413.8199999999997,515.4599999999996 h7 v7 h-7 Z M464.63999999999965,515.4599999999996 h7 v7 h-7 Z M471.89999999999964,515.4599999999996 h7 v7 h-7 Z M479.1599999999996,515.4599999999996 h7 v7 h-7 Z M486.4199999999996,515.4599999999996 h7 v7 h-7 Z M493.6799999999996,515.4599999999996 h7 v7 h-7 Z M500.9399999999996,515.4599999999996 h7 v7 h-7 Z M508.1999999999996,515.4599999999996 h7 v7 h-7 Z M515.4599999999996,515.4599999999996 h7 v7 h-7 Z M522.7199999999996,515.4599999999996 h7 v7 h-7 Z M529.9799999999996,515.4599999999996 h7 v7 h-7 Z M537.2399999999996,515.4599999999996 h7 v7 h-7 Z M544.4999999999995,515.4599999999996 h7 v7 h-7 Z M588.0599999999995,515.4599999999996 h7 v7 h-7 Z M638.8799999999994,515.4599999999996 h7 v7 h-7 Z M646.1399999999994,515.4599999999996 h7 v7 h-7 Z M675.1799999999994,515.4599999999996 h7 v7 h-7 Z M682.4399999999994,515.4599999999996 h7 v7 h-7 Z M116.16000000000003,522.7199999999996 h7 v7 h-7 Z M123.42000000000003,522.7199999999996 h7 v7 h-7 Z M130.68000000000004,522.7199999999996 h7 v7 h-7 Z M203.27999999999994,522.7199999999996 h7 v7 h-7 Z M210.53999999999994,522.7199999999996 h7 v7 h-7 Z M225.05999999999992,522.7199999999996 h7 v7 h-7 Z M232.3199999999999,522.7199999999996 h7 v7 h-7 Z M239.5799999999999,522.7199999999996 h7 v7 h-7 Z M246.8399999999999,522.7199999999996 h7 v7 h-7 Z M254.09999999999988,522.7199999999996 h7 v7 h-7 Z M261.3599999999999,522.7199999999996 h7 v7 h-7 Z M268.6199999999999,522.7199999999996 h7 v7 h-7 Z M275.8799999999999,522.7199999999996 h7 v7 h-7 Z M283.1399999999999,522.7199999999996 h7 v7 h-7 Z M290.39999999999986,522.7199999999996 h7 v7 h-7 Z M297.65999999999985,522.7199999999996 h7 v7 h-7 Z M312.17999999999984,522.7199999999996 h7 v7 h-7 Z M319.4399999999998,522.7199999999996 h7 v7 h-7 Z M326.6999999999998,522.7199999999996 h7 v7 h-7 Z M333.9599999999998,522.7199999999996 h7 v7 h-7 Z M341.2199999999998,522.7199999999996 h7 v7 h-7 Z M348.4799999999998,522.7199999999996 h7 v7 h-7 Z M355.7399999999998,522.7199999999996 h7 v7 h-7 Z M384.77999999999975,522.7199999999996 h7 v7 h-7 Z M392.03999999999974,522.7199999999996 h7 v7 h-7 Z M399.2999999999997,522.7199999999996 h7 v7 h-7 Z M413.8199999999997,522.7199999999996 h7 v7 h-7 Z M464.63999999999965,522.7199999999996 h7 v7 h-7 Z M471.89999999999964,522.7199999999996 h7 v7 h-7 Z M486.4199999999996,522.7199999999996 h7 v7 h-7 Z M493.6799999999996,522.7199999999996 h7 v7 h-7 Z M500.9399999999996,522.7199999999996 h7 v7 h-7 Z M537.2399999999996,522.7199999999996 h7 v7 h-7 Z M544.4999999999995,522.7199999999996 h7 v7 h-7 Z M551.7599999999995,522.7199999999996 h7 v7 h-7 Z M559.0199999999995,522.7199999999996 h7 v7 h-7 Z M566.2799999999995,522.7199999999996 h7 v7 h-7 Z M573.5399999999995,522.7199999999996 h7 v7 h-7 Z M580.7999999999995,522.7199999999996 h7 v7 h-7 Z M588.0599999999995,522.7199999999996 h7 v7 h-7 Z M638.8799999999994,522.7199999999996 h7 v7 h-7 Z M667.9199999999994,522.7199999999996 h7 v7 h-7 Z M675.1799999999994,522.7199999999996 h7 v7 h-7 Z M682.4399999999994,522.7199999999996 h7 v7 h-7 Z M116.16000000000003,529.9799999999996 h7 v7 h-7 Z M123.42000000000003,529.9799999999996 h7 v7 h-7 Z M130.68000000000004,529.9799999999996 h7 v7 h-7 Z M210.53999999999994,529.9799999999996 h7 v7 h-7 Z M217.79999999999993,529.9799999999996 h7 v7 h-7 Z M225.05999999999992,529.9799999999996 h7 v7 h-7 Z M232.3199999999999,529.9799999999996 h7 v7 h-7 Z M239.5799999999999,529.9799999999996 h7 v7 h-7 Z M246.8399999999999,529.9799999999996 h7 v7 h-7 Z M275.8799999999999,529.9799999999996 h7 v7 h-7 Z M283.1399999999999,529.9799999999996 h7 v7 h-7 Z M290.39999999999986,529.9799999999996 h7 v7 h-7 Z M297.65999999999985,529.9799999999996 h7 v7 h-7 Z M304.91999999999985,529.9799999999996 h7 v7 h-7 Z M312.17999999999984,529.9799999999996 h7 v7 h-7 Z M319.4399999999998,529.9799999999996 h7 v7 h-7 Z M348.4799999999998,529.9799999999996 h7 v7 h-7 Z M355.7399999999998,529.9799999999996 h7 v7 h-7 Z M392.03999999999974,529.9799999999996 h7 v7 h-7 Z M399.2999999999997,529.9799999999996 h7 v7 h-7 Z M413.8199999999997,529.9799999999996 h7 v7 h-7 Z M421.0799999999997,529.9799999999996 h7 v7 h-7 Z M428.3399999999997,529.9799999999996 h7 v7 h-7 Z M435.5999999999997,529.9799999999996 h7 v7 h-7 Z M442.8599999999997,529.9799999999996 h7 v7 h-7 Z M450.11999999999966,529.9799999999996 h7 v7 h-7 Z M464.63999999999965,529.9799999999996 h7 v7 h-7 Z M471.89999999999964,529.9799999999996 h7 v7 h-7 Z M479.1599999999996,529.9799999999996 h7 v7 h-7 Z M486.4199999999996,529.9799999999996 h7 v7 h-7 Z M493.6799999999996,529.9799999999996 h7 v7 h-7 Z M500.9399999999996,529.9799999999996 h7 v7 h-7 Z M508.1999999999996,529.9799999999996 h7 v7 h-7 Z M515.4599999999996,529.9799999999996 h7 v7 h-7 Z M537.2399999999996,529.9799999999996 h7 v7 h-7 Z M573.5399999999995,529.9799999999996 h7 v7 h-7 Z M580.7999999999995,529.9799999999996 h7 v7 h-7 Z M588.0599999999995,529.9799999999996 h7 v7 h-7 Z M624.3599999999994,529.9799999999996 h7 v7 h-7 Z M631.6199999999994,529.9799999999996 h7 v7 h-7 Z M638.8799999999994,529.9799999999996 h7 v7 h-7 Z M653.3999999999994,529.9799999999996 h7 v7 h-7 Z M660.6599999999994,529.9799999999996 h7 v7 h-7 Z M667.9199999999994,529.9799999999996 h7 v7 h-7 Z M675.1799999999994,529.9799999999996 h7 v7 h-7 Z M108.90000000000002,537.2399999999996 h7 v7 h-7 Z M116.16000000000003,537.2399999999996 h7 v7 h-7 Z M123.42000000000003,537.2399999999996 h7 v7 h-7 Z M130.68000000000004,537.2399999999996 h7 v7 h-7 Z M137.94000000000003,537.2399999999996 h7 v7 h-7 Z M210.53999999999994,537.2399999999996 h7 v7 h-7 Z M217.79999999999993,537.2399999999996 h7 v7 h-7 Z M225.05999999999992,537.2399999999996 h7 v7 h-7 Z M232.3199999999999,537.2399999999996 h7 v7 h-7 Z M304.91999999999985,537.2399999999996 h7 v7 h-7 Z M362.9999999999998,537.2399999999996 h7 v7 h-7 Z M370.25999999999976,537.2399999999996 h7 v7 h-7 Z M384.77999999999975,537.2399999999996 h7 v7 h-7 Z M392.03999999999974,537.2399999999996 h7 v7 h-7 Z M399.2999999999997,537.2399999999996 h7 v7 h-7 Z M406.5599999999997,537.2399999999996 h7 v7 h-7 Z M413.8199999999997,537.2399999999996 h7 v7 h-7 Z M421.0799999999997,537.2399999999996 h7 v7 h-7 Z M428.3399999999997,537.2399999999996 h7 v7 h-7 Z M435.5999999999997,537.2399999999996 h7 v7 h-7 Z M442.8599999999997,537.2399999999996 h7 v7 h-7 Z M450.11999999999966,537.2399999999996 h7 v7 h-7 Z M457.37999999999965,537.2399999999996 h7 v7 h-7 Z M464.63999999999965,537.2399999999996 h7 v7 h-7 Z M471.89999999999964,537.2399999999996 h7 v7 h-7 Z M479.1599999999996,537.2399999999996 h7 v7 h-7 Z M508.1999999999996,537.2399999999996 h7 v7 h-7 Z M515.4599999999996,537.2399999999996 h7 v7 h-7 Z M522.7199999999996,537.2399999999996 h7 v7 h-7 Z M537.2399999999996,537.2399999999996 h7 v7 h-7 Z M588.0599999999995,537.2399999999996 h7 v7 h-7 Z M595.3199999999995,537.2399999999996 h7 v7 h-7 Z M624.3599999999994,537.2399999999996 h7 v7 h-7 Z M631.6199999999994,537.2399999999996 h7 v7 h-7 Z M638.8799999999994,537.2399999999996 h7 v7 h-7 Z M646.1399999999994,537.2399999999996 h7 v7 h-7 Z M653.3999999999994,537.2399999999996 h7 v7 h-7 Z M660.6599999999994,537.2399999999996 h7 v7 h-7 Z M130.68000000000004,544.4999999999995 h7 v7 h-7 Z M137.94000000000003,544.4999999999995 h7 v7 h-7 Z M145.20000000000002,544.4999999999995 h7 v7 h-7 Z M203.27999999999994,544.4999999999995 h7 v7 h-7 Z M210.53999999999994,544.4999999999995 h7 v7 h-7 Z M217.79999999999993,544.4999999999995 h7 v7 h-7 Z M225.05999999999992,544.4999999999995 h7 v7 h-7 Z M341.2199999999998,544.4999999999995 h7 v7 h-7 Z M348.4799999999998,544.4999999999995 h7 v7 h-7 Z M355.7399999999998,544.4999999999995 h7 v7 h-7 Z M362.9999999999998,544.4999999999995 h7 v7 h-7 Z M370.25999999999976,544.4999999999995 h7 v7 h-7 Z M377.51999999999975,544.4999999999995 h7 v7 h-7 Z M384.77999999999975,544.4999999999995 h7 v7 h-7 Z M399.2999999999997,544.4999999999995 h7 v7 h-7 Z M406.5599999999997,544.4999999999995 h7 v7 h-7 Z M413.8199999999997,544.4999999999995 h7 v7 h-7 Z M435.5999999999997,544.4999999999995 h7 v7 h-7 Z M442.8599999999997,544.4999999999995 h7 v7 h-7 Z M457.37999999999965,544.4999999999995 h7 v7 h-7 Z M464.63999999999965,544.4999999999995 h7 v7 h-7 Z M537.2399999999996,544.4999999999995 h7 v7 h-7 Z M588.0599999999995,544.4999999999995 h7 v7 h-7 Z M595.3199999999995,544.4999999999995 h7 v7 h-7 Z M602.5799999999995,544.4999999999995 h7 v7 h-7 Z M609.8399999999995,544.4999999999995 h7 v7 h-7 Z M617.0999999999995,544.4999999999995 h7 v7 h-7 Z M624.3599999999994,544.4999999999995 h7 v7 h-7 Z M631.6199999999994,544.4999999999995 h7 v7 h-7 Z M137.94000000000003,551.7599999999995 h7 v7 h-7 Z M145.20000000000002,551.7599999999995 h7 v7 h-7 Z M152.46,551.7599999999995 h7 v7 h-7 Z M188.75999999999996,551.7599999999995 h7 v7 h-7 Z M196.01999999999995,551.7599999999995 h7 v7 h-7 Z M203.27999999999994,551.7599999999995 h7 v7 h-7 Z M210.53999999999994,551.7599999999995 h7 v7 h-7 Z M217.79999999999993,551.7599999999995 h7 v7 h-7 Z M225.05999999999992,551.7599999999995 h7 v7 h-7 Z M232.3199999999999,551.7599999999995 h7 v7 h-7 Z M333.9599999999998,551.7599999999995 h7 v7 h-7 Z M341.2199999999998,551.7599999999995 h7 v7 h-7 Z M348.4799999999998,551.7599999999995 h7 v7 h-7 Z M406.5599999999997,551.7599999999995 h7 v7 h-7 Z M428.3399999999997,551.7599999999995 h7 v7 h-7 Z M435.5999999999997,551.7599999999995 h7 v7 h-7 Z M537.2399999999996,551.7599999999995 h7 v7 h-7 Z M588.0599999999995,551.7599999999995 h7 v7 h-7 Z M595.3199999999995,551.7599999999995 h7 v7 h-7 Z M624.3599999999994,551.7599999999995 h7 v7 h-7 Z M631.6199999999994,551.7599999999995 h7 v7 h-7 Z M638.8799999999994,551.7599999999995 h7 v7 h-7 Z M646.1399999999994,551.7599999999995 h7 v7 h-7 Z M152.46,559.0199999999995 h7 v7 h-7 Z M159.72,559.0199999999995 h7 v7 h-7 Z M181.49999999999997,559.0199999999995 h7 v7 h-7 Z M188.75999999999996,559.0199999999995 h7 v7 h-7 Z M196.01999999999995,559.0199999999995 h7 v7 h-7 Z M203.27999999999994,559.0199999999995 h7 v7 h-7 Z M210.53999999999994,559.0199999999995 h7 v7 h-7 Z M217.79999999999993,559.0199999999995 h7 v7 h-7 Z M225.05999999999992,559.0199999999995 h7 v7 h-7 Z M232.3199999999999,559.0199999999995 h7 v7 h-7 Z M246.8399999999999,559.0199999999995 h7 v7 h-7 Z M254.09999999999988,559.0199999999995 h7 v7 h-7 Z M333.9599999999998,559.0199999999995 h7 v7 h-7 Z M341.2199999999998,559.0199999999995 h7 v7 h-7 Z M348.4799999999998,559.0199999999995 h7 v7 h-7 Z M428.3399999999997,559.0199999999995 h7 v7 h-7 Z M537.2399999999996,559.0199999999995 h7 v7 h-7 Z M631.6199999999994,559.0199999999995 h7 v7 h-7 Z M638.8799999999994,559.0199999999995 h7 v7 h-7 Z M646.1399999999994,559.0199999999995 h7 v7 h-7 Z M653.3999999999994,559.0199999999995 h7 v7 h-7 Z M660.6599999999994,559.0199999999995 h7 v7 h-7 Z M667.9199999999994,559.0199999999995 h7 v7 h-7 Z M159.72,566.2799999999995 h7 v7 h-7 Z M166.98,566.2799999999995 h7 v7 h-7 Z M174.23999999999998,566.2799999999995 h7 v7 h-7 Z M181.49999999999997,566.2799999999995 h7 v7 h-7 Z M188.75999999999996,566.2799999999995 h7 v7 h-7 Z M196.01999999999995,566.2799999999995 h7 v7 h-7 Z M203.27999999999994,566.2799999999995 h7 v7 h-7 Z M210.53999999999994,566.2799999999995 h7 v7 h-7 Z M217.79999999999993,566.2799999999995 h7 v7 h-7 Z M225.05999999999992,566.2799999999995 h7 v7 h-7 Z M232.3199999999999,566.2799999999995 h7 v7 h-7 Z M239.5799999999999,566.2799999999995 h7 v7 h-7 Z M246.8399999999999,566.2799999999995 h7 v7 h-7 Z M254.09999999999988,566.2799999999995 h7 v7 h-7 Z M261.3599999999999,566.2799999999995 h7 v7 h-7 Z M333.9599999999998,566.2799999999995 h7 v7 h-7 Z M341.2199999999998,566.2799999999995 h7 v7 h-7 Z M421.0799999999997,566.2799999999995 h7 v7 h-7 Z M428.3399999999997,566.2799999999995 h7 v7 h-7 Z M529.9799999999996,566.2799999999995 h7 v7 h-7 Z M537.2399999999996,566.2799999999995 h7 v7 h-7 Z M544.4999999999995,566.2799999999995 h7 v7 h-7 Z M551.7599999999995,566.2799999999995 h7 v7 h-7 Z M559.0199999999995,566.2799999999995 h7 v7 h-7 Z M566.2799999999995,566.2799999999995 h7 v7 h-7 Z M573.5399999999995,566.2799999999995 h7 v7 h-7 Z M580.7999999999995,566.2799999999995 h7 v7 h-7 Z M646.1399999999994,566.2799999999995 h7 v7 h-7 Z M653.3999999999994,566.2799999999995 h7 v7 h-7 Z M660.6599999999994,566.2799999999995 h7 v7 h-7 Z M667.9199999999994,566.2799999999995 h7 v7 h-7 Z M675.1799999999994,566.2799999999995 h7 v7 h-7 Z M196.01999999999995,573.5399999999995 h7 v7 h-7 Z M203.27999999999994,573.5399999999995 h7 v7 h-7 Z M210.53999999999994,573.5399999999995 h7 v7 h-7 Z M217.79999999999993,573.5399999999995 h7 v7 h-7 Z M225.05999999999992,573.5399999999995 h7 v7 h-7 Z M232.3199999999999,573.5399999999995 h7 v7 h-7 Z M239.5799999999999,573.5399999999995 h7 v7 h-7 Z M246.8399999999999,573.5399999999995 h7 v7 h-7 Z M254.09999999999988,573.5399999999995 h7 v7 h-7 Z M261.3599999999999,573.5399999999995 h7 v7 h-7 Z M268.6199999999999,573.5399999999995 h7 v7 h-7 Z M275.8799999999999,573.5399999999995 h7 v7 h-7 Z M283.1399999999999,573.5399999999995 h7 v7 h-7 Z M290.39999999999986,573.5399999999995 h7 v7 h-7 Z M297.65999999999985,573.5399999999995 h7 v7 h-7 Z M304.91999999999985,573.5399999999995 h7 v7 h-7 Z M312.17999999999984,573.5399999999995 h7 v7 h-7 Z M319.4399999999998,573.5399999999995 h7 v7 h-7 Z M326.6999999999998,573.5399999999995 h7 v7 h-7 Z M333.9599999999998,573.5399999999995 h7 v7 h-7 Z M341.2199999999998,573.5399999999995 h7 v7 h-7 Z M348.4799999999998,573.5399999999995 h7 v7 h-7 Z M355.7399999999998,573.5399999999995 h7 v7 h-7 Z M362.9999999999998,573.5399999999995 h7 v7 h-7 Z M370.25999999999976,573.5399999999995 h7 v7 h-7 Z M377.51999999999975,573.5399999999995 h7 v7 h-7 Z M384.77999999999975,573.5399999999995 h7 v7 h-7 Z M392.03999999999974,573.5399999999995 h7 v7 h-7 Z M399.2999999999997,573.5399999999995 h7 v7 h-7 Z M406.5599999999997,573.5399999999995 h7 v7 h-7 Z M413.8199999999997,573.5399999999995 h7 v7 h-7 Z M421.0799999999997,573.5399999999995 h7 v7 h-7 Z M428.3399999999997,573.5399999999995 h7 v7 h-7 Z M435.5999999999997,573.5399999999995 h7 v7 h-7 Z M442.8599999999997,573.5399999999995 h7 v7 h-7 Z M450.11999999999966,573.5399999999995 h7 v7 h-7 Z M457.37999999999965,573.5399999999995 h7 v7 h-7 Z M464.63999999999965,573.5399999999995 h7 v7 h-7 Z M471.89999999999964,573.5399999999995 h7 v7 h-7 Z M479.1599999999996,573.5399999999995 h7 v7 h-7 Z M486.4199999999996,573.5399999999995 h7 v7 h-7 Z M493.6799999999996,573.5399999999995 h7 v7 h-7 Z M500.9399999999996,573.5399999999995 h7 v7 h-7 Z M508.1999999999996,573.5399999999995 h7 v7 h-7 Z M515.4599999999996,573.5399999999995 h7 v7 h-7 Z M522.7199999999996,573.5399999999995 h7 v7 h-7 Z M529.9799999999996,573.5399999999995 h7 v7 h-7 Z M588.0599999999995,573.5399999999995 h7 v7 h-7 Z M595.3199999999995,573.5399999999995 h7 v7 h-7 Z M602.5799999999995,573.5399999999995 h7 v7 h-7 Z M609.8399999999995,573.5399999999995 h7 v7 h-7 Z M617.0999999999995,573.5399999999995 h7 v7 h-7 Z M624.3599999999994,573.5399999999995 h7 v7 h-7 Z M631.6199999999994,573.5399999999995 h7 v7 h-7 Z M638.8799999999994,573.5399999999995 h7 v7 h-7 Z M646.1399999999994,573.5399999999995 h7 v7 h-7 Z M653.3999999999994,573.5399999999995 h7 v7 h-7 Z M660.6599999999994,573.5399999999995 h7 v7 h-7 Z M667.9199999999994,573.5399999999995 h7 v7 h-7 Z M675.1799999999994,573.5399999999995 h7 v7 h-7 Z" fill="#1e0e01" /></svg>