<?xml version="1.0" encoding="utf-8"?>
<!-- Generator: Adobe Illustrator 27.3.1, SVG Export Plug-In . SVG Version: 6.00 Build 0)  -->
<svg version="1.1" id="Слой_1" xmlns="http://www.w3.org/2000/svg" xmlns:xlink="http://www.w3.org/1999/xlink" x="0px" y="0px"
	 viewBox="0 0 870.9 595.1" style="enable-background:new 0 0 870.9 595.1;" xml:space="preserve">
<style type="text/css">
	.st0{fill:#1E0E01;}
</style>
<path class="st0" d="M399.3,32.7h7v7h-7V32.7z M406.5,32.7h7v7h-7V32.7z M413.8,32.7h7v7h-7V32.7z M421,32.7h7v7h-7V32.7z
	 M428.3,32.7h7v7h-7V32.7z M435.6,32.7h7v7h-7V32.7z M442.8,32.7h7v7h-7V32.7z M450.1,32.7h7v7h-7V32.7z M457.3,32.7h7v7h-7V32.7z
	 M464.6,32.7h7v7h-7V32.7z M471.9,32.7h7v7h-7V32.7z M370.2,40h7v7h-7V40z M377.5,40h7v7h-7V40z M384.7,40h7v7h-7V40z M392,40h7v7
	h-7V40z M399.3,40h7v7h-7V40z M406.5,40h7v7h-7V40z M413.8,40h7v7h-7V40z M421,40h7v7h-7V40z M428.3,40h7v7h-7V40z M435.6,40h7v7h-7
	V40z M442.8,40h7v7h-7V40z M450.1,40h7v7h-7V40z M457.3,40h7v7h-7V40z M464.6,40h7v7h-7V40z M471.9,40h7v7h-7V40z M479.1,40h7v7h-7
	V40z M486.4,40h7v7h-7V40z M493.6,40h7v7h-7V40z M348.4,47.2h7v7h-7V47.2z M355.7,47.2h7v7h-7V47.2z M363,47.2h7v7h-7V47.2z
	 M370.2,47.2h7v7h-7V47.2z M377.5,47.2h7v7h-7V47.2z M384.7,47.2h7v7h-7V47.2z M392,47.2h7v7h-7V47.2z M399.3,47.2h7v7h-7V47.2z
	 M406.5,47.2h7v7h-7V47.2z M413.8,47.2h7v7h-7V47.2z M421,47.2h7v7h-7V47.2z M428.3,47.2h7v7h-7V47.2z M435.6,47.2h7v7h-7V47.2z
	 M442.8,47.2h7v7h-7V47.2z M450.1,47.2h7v7h-7V47.2z M457.3,47.2h7v7h-7V47.2z M464.6,47.2h7v7h-7V47.2z M471.9,47.2h7v7h-7V47.2z
	 M479.1,47.2h7v7h-7V47.2z M486.4,47.2h7v7h-7V47.2z M493.6,47.2h7v7h-7V47.2z M500.9,47.2h7v7h-7V47.2z M508.2,47.2h7v7h-7V47.2z
	 M515.4,47.2h7v7h-7V47.2z M326.7,54.5h7v7h-7V54.5z M333.9,54.5h7v7h-7V54.5z M341.2,54.5h7v7h-7V54.5z M348.4,54.5h7v7h-7V54.5z
	 M355.7,54.5h7v7h-7V54.5z M363,54.5h7v7h-7V54.5z M370.2,54.5h7v7h-7V54.5z M377.5,54.5h7v7h-7V54.5z M384.7,54.5h7v7h-7V54.5z
	 M392,54.5h7v7h-7V54.5z M399.3,54.5h7v7h-7V54.5z M406.5,54.5h7v7h-7V54.5z M413.8,54.5h7v7h-7V54.5z M421,54.5h7v7h-7V54.5z
	 M428.3,54.5h7v7h-7V54.5z M435.6,54.5h7v7h-7V54.5z M442.8,54.5h7v7h-7V54.5z M450.1,54.5h7v7h-7V54.5z M457.3,54.5h7v7h-7V54.5z
	 M464.6,54.5h7v7h-7V54.5z M471.9,54.5h7v7h-7V54.5z M479.1,54.5h7v7h-7V54.5z M486.4,54.5h7v7h-7V54.5z M493.6,54.5h7v7h-7V54.5z
	 M500.9,54.5h7v7h-7V54.5z M508.2,54.5h7v7h-7V54.5z M515.4,54.5h7v7h-7V54.5z M522.7,54.5h7v7h-7V54.5z M529.9,54.5h7v7h-7V54.5z
	 M537.2,54.5h7v7h-7V54.5z M312.1,61.8h7v7h-7V61.8z M319.4,61.8h7v7h-7V61.8z M326.7,61.8h7v7h-7V61.8z M333.9,61.8h7v7h-7V61.8z
	 M341.2,61.8h7v7h-7V61.8z M348.4,61.8h7v7h-7V61.8z M355.7,61.8h7v7h-7V61.8z M363,61.8h7v7h-7V61.8z M370.2,61.8h7v7h-7V61.8z
	 M377.5,61.8h7v7h-7V61.8z M384.7,61.8h7v7h-7V61.8z M399.3,61.8h7v7h-7V61.8z M406.5,61.8h7v7h-7V61.8z M413.8,61.8h7v7h-7V61.8z
	 M421,61.8h7v7h-7V61.8z M428.3,61.8h7v7h-7V61.8z M435.6,61.8h7v7h-7V61.8z M442.8,61.8h7v7h-7V61.8z M450.1,61.8h7v7h-7V61.8z
	 M457.3,61.8h7v7h-7V61.8z M464.6,61.8h7v7h-7V61.8z M471.9,61.8h7v7h-7V61.8z M479.1,61.8h7v7h-7V61.8z M486.4,61.8h7v7h-7V61.8z
	 M493.6,61.8h7v7h-7V61.8z M500.9,61.8h7v7h-7V61.8z M508.2,61.8h7v7h-7V61.8z M515.4,61.8h7v7h-7V61.8z M522.7,61.8h7v7h-7V61.8z
	 M529.9,61.8h7v7h-7V61.8z M537.2,61.8h7v7h-7V61.8z M544.5,61.8h7v7h-7V61.8z M551.7,61.8h7v7h-7V61.8z M297.6,69h7v7h-7V69z
	 M304.9,69h7v7h-7V69z M312.1,69h7v7h-7V69z M319.4,69h7v7h-7V69z M326.7,69h7v7h-7V69z M333.9,69h7v7h-7V69z M341.2,69h7v7h-7V69z
	 M348.4,69h7v7h-7V69z M355.7,69h7v7h-7V69z M363,69h7v7h-7V69z M370.2,69h7v7h-7V69z M399.3,69h7v7h-7V69z M406.5,69h7v7h-7V69z
	 M413.8,69h7v7h-7V69z M421,69h7v7h-7V69z M428.3,69h7v7h-7V69z M435.6,69h7v7h-7V69z M442.8,69h7v7h-7V69z M450.1,69h7v7h-7V69z
	 M457.3,69h7v7h-7V69z M464.6,69h7v7h-7V69z M471.9,69h7v7h-7V69z M479.1,69h7v7h-7V69z M486.4,69h7v7h-7V69z M500.9,69h7v7h-7V69z
	 M537.2,69h7v7h-7V69z M544.5,69h7v7h-7V69z M551.7,69h7v7h-7V69z M559,69h7v7h-7V69z M566.2,69h7v7h-7V69z M290.4,76.3h7v7h-7V76.3
	z M297.6,76.3h7v7h-7V76.3z M304.9,76.3h7v7h-7V76.3z M312.1,76.3h7v7h-7V76.3z M319.4,76.3h7v7h-7V76.3z M326.7,76.3h7v7h-7V76.3z
	 M333.9,76.3h7v7h-7V76.3z M341.2,76.3h7v7h-7V76.3z M348.4,76.3h7v7h-7V76.3z M392,76.3h7v7h-7V76.3z M399.3,76.3h7v7h-7V76.3z
	 M406.5,76.3h7v7h-7V76.3z M413.8,76.3h7v7h-7V76.3z M421,76.3h7v7h-7V76.3z M428.3,76.3h7v7h-7V76.3z M435.6,76.3h7v7h-7V76.3z
	 M442.8,76.3h7v7h-7V76.3z M450.1,76.3h7v7h-7V76.3z M457.3,76.3h7v7h-7V76.3z M464.6,76.3h7v7h-7V76.3z M471.9,76.3h7v7h-7V76.3z
	 M479.1,76.3h7v7h-7V76.3z M486.4,76.3h7v7h-7V76.3z M493.6,76.3h7v7h-7V76.3z M551.7,76.3h7v7h-7V76.3z M559,76.3h7v7h-7V76.3z
	 M566.2,76.3h7v7h-7V76.3z M573.5,76.3h7v7h-7V76.3z M283.1,83.6h7v7h-7V83.6z M290.4,83.6h7v7h-7V83.6z M297.6,83.6h7v7h-7V83.6z
	 M304.9,83.6h7v7h-7V83.6z M312.1,83.6h7v7h-7V83.6z M319.4,83.6h7v7h-7V83.6z M326.7,83.6h7v7h-7V83.6z M333.9,83.6h7v7h-7V83.6z
	 M370.2,83.6h7v7h-7V83.6z M377.5,83.6h7v7h-7V83.6z M384.7,83.6h7v7h-7V83.6z M392,83.6h7v7h-7V83.6z M399.3,83.6h7v7h-7V83.6z
	 M406.5,83.6h7v7h-7V83.6z M413.8,83.6h7v7h-7V83.6z M421,83.6h7v7h-7V83.6z M428.3,83.6h7v7h-7V83.6z M435.6,83.6h7v7h-7V83.6z
	 M442.8,83.6h7v7h-7V83.6z M450.1,83.6h7v7h-7V83.6z M457.3,83.6h7v7h-7V83.6z M464.6,83.6h7v7h-7V83.6z M471.9,83.6h7v7h-7V83.6z
	 M479.1,83.6h7v7h-7V83.6z M486.4,83.6h7v7h-7V83.6z M493.6,83.6h7v7h-7V83.6z M500.9,83.6h7v7h-7V83.6z M566.2,83.6h7v7h-7V83.6z
	 M573.5,83.6h7v7h-7V83.6z M580.8,83.6h7v7h-7V83.6z M268.6,90.8h7v7h-7V90.8z M275.8,90.8h7v7h-7V90.8z M283.1,90.8h7v7h-7V90.8z
	 M290.4,90.8h7v7h-7V90.8z M304.9,90.8h7v7h-7V90.8z M312.1,90.8h7v7h-7V90.8z M319.4,90.8h7v7h-7V90.8z M326.7,90.8h7v7h-7V90.8z
	 M355.7,90.8h7v7h-7V90.8z M363,90.8h7v7h-7V90.8z M370.2,90.8h7v7h-7V90.8z M377.5,90.8h7v7h-7V90.8z M384.7,90.8h7v7h-7V90.8z
	 M392,90.8h7v7h-7V90.8z M399.3,90.8h7v7h-7V90.8z M406.5,90.8h7v7h-7V90.8z M413.8,90.8h7v7h-7V90.8z M421,90.8h7v7h-7V90.8z
	 M428.3,90.8h7v7h-7V90.8z M435.6,90.8h7v7h-7V90.8z M442.8,90.8h7v7h-7V90.8z M450.1,90.8h7v7h-7V90.8z M457.3,90.8h7v7h-7V90.8z
	 M464.6,90.8h7v7h-7V90.8z M471.9,90.8h7v7h-7V90.8z M479.1,90.8h7v7h-7V90.8z M486.4,90.8h7v7h-7V90.8z M493.6,90.8h7v7h-7V90.8z
	 M500.9,90.8h7v7h-7V90.8z M508.2,90.8h7v7h-7V90.8z M573.5,90.8h7v7h-7V90.8z M580.8,90.8h7v7h-7V90.8z M588,90.8h7v7h-7V90.8z
	 M595.3,90.8h7v7h-7V90.8z M261.3,98.1h7v7h-7V98.1z M268.6,98.1h7v7h-7V98.1z M275.8,98.1h7v7h-7V98.1z M283.1,98.1h7v7h-7V98.1z
	 M297.6,98.1h7v7h-7V98.1z M304.9,98.1h7v7h-7V98.1z M312.1,98.1h7v7h-7V98.1z M319.4,98.1h7v7h-7V98.1z M326.7,98.1h7v7h-7V98.1z
	 M333.9,98.1h7v7h-7V98.1z M341.2,98.1h7v7h-7V98.1z M348.4,98.1h7v7h-7V98.1z M355.7,98.1h7v7h-7V98.1z M363,98.1h7v7h-7V98.1z
	 M370.2,98.1h7v7h-7V98.1z M377.5,98.1h7v7h-7V98.1z M384.7,98.1h7v7h-7V98.1z M392,98.1h7v7h-7V98.1z M399.3,98.1h7v7h-7V98.1z
	 M406.5,98.1h7v7h-7V98.1z M413.8,98.1h7v7h-7V98.1z M421,98.1h7v7h-7V98.1z M428.3,98.1h7v7h-7V98.1z M442.8,98.1h7v7h-7V98.1z
	 M450.1,98.1h7v7h-7V98.1z M457.3,98.1h7v7h-7V98.1z M464.6,98.1h7v7h-7V98.1z M471.9,98.1h7v7h-7V98.1z M479.1,98.1h7v7h-7V98.1z
	 M500.9,98.1h7v7h-7V98.1z M508.2,98.1h7v7h-7V98.1z M588,98.1h7v7h-7V98.1z M595.3,98.1h7v7h-7V98.1z M602.5,98.1h7v7h-7V98.1z
	 M254.1,105.3h7v7h-7V105.3z M261.3,105.3h7v7h-7V105.3z M268.6,105.3h7v7h-7V105.3z M290.4,105.3h7v7h-7V105.3z M297.6,105.3h7v7
	h-7V105.3z M304.9,105.3h7v7h-7V105.3z M312.1,105.3h7v7h-7V105.3z M319.4,105.3h7v7h-7V105.3z M326.7,105.3h7v7h-7V105.3z
	 M333.9,105.3h7v7h-7V105.3z M341.2,105.3h7v7h-7V105.3z M348.4,105.3h7v7h-7V105.3z M355.7,105.3h7v7h-7V105.3z M363,105.3h7v7h-7
	V105.3z M370.2,105.3h7v7h-7V105.3z M377.5,105.3h7v7h-7V105.3z M384.7,105.3h7v7h-7V105.3z M392,105.3h7v7h-7V105.3z M399.3,105.3
	h7v7h-7V105.3z M406.5,105.3h7v7h-7V105.3z M413.8,105.3h7v7h-7V105.3z M450.1,105.3h7v7h-7V105.3z M457.3,105.3h7v7h-7V105.3z
	 M464.6,105.3h7v7h-7V105.3z M573.5,105.3h7v7h-7V105.3z M580.8,105.3h7v7h-7V105.3z M595.3,105.3h7v7h-7V105.3z M602.5,105.3h7v7
	h-7V105.3z M609.8,105.3h7v7h-7V105.3z M246.8,112.6h7v7h-7V112.6z M254.1,112.6h7v7h-7V112.6z M261.3,112.6h7v7h-7V112.6z
	 M283.1,112.6h7v7h-7V112.6z M290.4,112.6h7v7h-7V112.6z M297.6,112.6h7v7h-7V112.6z M304.9,112.6h7v7h-7V112.6z M312.1,112.6h7v7
	h-7V112.6z M319.4,112.6h7v7h-7V112.6z M326.7,112.6h7v7h-7V112.6z M333.9,112.6h7v7h-7V112.6z M341.2,112.6h7v7h-7V112.6z
	 M348.4,112.6h7v7h-7V112.6z M355.7,112.6h7v7h-7V112.6z M363,112.6h7v7h-7V112.6z M370.2,112.6h7v7h-7V112.6z M377.5,112.6h7v7h-7
	V112.6z M384.7,112.6h7v7h-7V112.6z M392,112.6h7v7h-7V112.6z M399.3,112.6h7v7h-7V112.6z M406.5,112.6h7v7h-7V112.6z M428.3,112.6
	h7v7h-7V112.6z M435.6,112.6h7v7h-7V112.6z M450.1,112.6h7v7h-7V112.6z M457.3,112.6h7v7h-7V112.6z M580.8,112.6h7v7h-7V112.6z
	 M602.5,112.6h7v7h-7V112.6z M609.8,112.6h7v7h-7V112.6z M617.1,112.6h7v7h-7V112.6z M239.5,119.8h7v7h-7V119.8z M246.8,119.8h7v7
	h-7V119.8z M254.1,119.8h7v7h-7V119.8z M268.6,119.8h7v7h-7V119.8z M275.8,119.8h7v7h-7V119.8z M283.1,119.8h7v7h-7V119.8z
	 M290.4,119.8h7v7h-7V119.8z M297.6,119.8h7v7h-7V119.8z M304.9,119.8h7v7h-7V119.8z M312.1,119.8h7v7h-7V119.8z M319.4,119.8h7v7
	h-7V119.8z M326.7,119.8h7v7h-7V119.8z M333.9,119.8h7v7h-7V119.8z M341.2,119.8h7v7h-7V119.8z M348.4,119.8h7v7h-7V119.8z
	 M355.7,119.8h7v7h-7V119.8z M363,119.8h7v7h-7V119.8z M370.2,119.8h7v7h-7V119.8z M377.5,119.8h7v7h-7V119.8z M384.7,119.8h7v7h-7
	V119.8z M392,119.8h7v7h-7V119.8z M399.3,119.8h7v7h-7V119.8z M421,119.8h7v7h-7V119.8z M428.3,119.8h7v7h-7V119.8z M609.8,119.8h7
	v7h-7V119.8z M617.1,119.8h7v7h-7V119.8z M624.3,119.8h7v7h-7V119.8z M232.3,127.1h7v7h-7V127.1z M239.5,127.1h7v7h-7V127.1z
	 M246.8,127.1h7v7h-7V127.1z M254.1,127.1h7v7h-7V127.1z M261.3,127.1h7v7h-7V127.1z M268.6,127.1h7v7h-7V127.1z M275.8,127.1h7v7
	h-7V127.1z M283.1,127.1h7v7h-7V127.1z M290.4,127.1h7v7h-7V127.1z M297.6,127.1h7v7h-7V127.1z M304.9,127.1h7v7h-7V127.1z
	 M312.1,127.1h7v7h-7V127.1z M319.4,127.1h7v7h-7V127.1z M326.7,127.1h7v7h-7V127.1z M333.9,127.1h7v7h-7V127.1z M341.2,127.1h7v7
	h-7V127.1z M348.4,127.1h7v7h-7V127.1z M355.7,127.1h7v7h-7V127.1z M363,127.1h7v7h-7V127.1z M370.2,127.1h7v7h-7V127.1z
	 M377.5,127.1h7v7h-7V127.1z M384.7,127.1h7v7h-7V127.1z M392,127.1h7v7h-7V127.1z M421,127.1h7v7h-7V127.1z M428.3,127.1h7v7h-7
	V127.1z M435.6,127.1h7v7h-7V127.1z M442.8,127.1h7v7h-7V127.1z M617.1,127.1h7v7h-7V127.1z M624.3,127.1h7v7h-7V127.1z
	 M631.6,127.1h7v7h-7V127.1z M225,134.4h7v7h-7V134.4z M232.3,134.4h7v7h-7V134.4z M239.5,134.4h7v7h-7V134.4z M246.8,134.4h7v7h-7
	V134.4z M254.1,134.4h7v7h-7V134.4z M261.3,134.4h7v7h-7V134.4z M268.6,134.4h7v7h-7V134.4z M275.8,134.4h7v7h-7V134.4z
	 M283.1,134.4h7v7h-7V134.4z M290.4,134.4h7v7h-7V134.4z M297.6,134.4h7v7h-7V134.4z M304.9,134.4h7v7h-7V134.4z M312.1,134.4h7v7
	h-7V134.4z M319.4,134.4h7v7h-7V134.4z M326.7,134.4h7v7h-7V134.4z M333.9,134.4h7v7h-7V134.4z M341.2,134.4h7v7h-7V134.4z
	 M348.4,134.4h7v7h-7V134.4z M355.7,134.4h7v7h-7V134.4z M363,134.4h7v7h-7V134.4z M370.2,134.4h7v7h-7V134.4z M377.5,134.4h7v7h-7
	V134.4z M384.7,134.4h7v7h-7V134.4z M392,134.4h7v7h-7V134.4z M399.3,134.4h7v7h-7V134.4z M406.5,134.4h7v7h-7V134.4z M421,134.4h7
	v7h-7V134.4z M428.3,134.4h7v7h-7V134.4z M624.3,134.4h7v7h-7V134.4z M631.6,134.4h7v7h-7V134.4z M638.8,134.4h7v7h-7V134.4z
	 M225,141.6h7v7h-7V141.6z M232.3,141.6h7v7h-7V141.6z M239.5,141.6h7v7h-7V141.6z M246.8,141.6h7v7h-7V141.6z M254.1,141.6h7v7h-7
	V141.6z M261.3,141.6h7v7h-7V141.6z M268.6,141.6h7v7h-7V141.6z M275.8,141.6h7v7h-7V141.6z M283.1,141.6h7v7h-7V141.6z
	 M290.4,141.6h7v7h-7V141.6z M297.6,141.6h7v7h-7V141.6z M304.9,141.6h7v7h-7V141.6z M312.1,141.6h7v7h-7V141.6z M319.4,141.6h7v7
	h-7V141.6z M326.7,141.6h7v7h-7V141.6z M333.9,141.6h7v7h-7V141.6z M341.2,141.6h7v7h-7V141.6z M348.4,141.6h7v7h-7V141.6z
	 M363,141.6h7v7h-7V141.6z M370.2,141.6h7v7h-7V141.6z M377.5,141.6h7v7h-7V141.6z M384.7,141.6h7v7h-7V141.6z M392,141.6h7v7h-7
	V141.6z M399.3,141.6h7v7h-7V141.6z M406.5,141.6h7v7h-7V141.6z M413.8,141.6h7v7h-7V141.6z M421,141.6h7v7h-7V141.6z M624.3,141.6
	h7v7h-7V141.6z M631.6,141.6h7v7h-7V141.6z M638.8,141.6h7v7h-7V141.6z M217.8,148.9h7v7h-7V148.9z M225,148.9h7v7h-7V148.9z
	 M232.3,148.9h7v7h-7V148.9z M239.5,148.9h7v7h-7V148.9z M246.8,148.9h7v7h-7V148.9z M254.1,148.9h7v7h-7V148.9z M261.3,148.9h7v7
	h-7V148.9z M268.6,148.9h7v7h-7V148.9z M275.8,148.9h7v7h-7V148.9z M283.1,148.9h7v7h-7V148.9z M290.4,148.9h7v7h-7V148.9z
	 M297.6,148.9h7v7h-7V148.9z M304.9,148.9h7v7h-7V148.9z M312.1,148.9h7v7h-7V148.9z M319.4,148.9h7v7h-7V148.9z M326.7,148.9h7v7
	h-7V148.9z M333.9,148.9h7v7h-7V148.9z M341.2,148.9h7v7h-7V148.9z M348.4,148.9h7v7h-7V148.9z M355.7,148.9h7v7h-7V148.9z
	 M377.5,148.9h7v7h-7V148.9z M384.7,148.9h7v7h-7V148.9z M392,148.9h7v7h-7V148.9z M631.6,148.9h7v7h-7V148.9z M638.8,148.9h7v7h-7
	V148.9z M646.1,148.9h7v7h-7V148.9z M210.5,156.2h7v7h-7V156.2z M217.8,156.2h7v7h-7V156.2z M225,156.2h7v7h-7V156.2z M232.3,156.2
	h7v7h-7V156.2z M239.5,156.2h7v7h-7V156.2z M246.8,156.2h7v7h-7V156.2z M254.1,156.2h7v7h-7V156.2z M261.3,156.2h7v7h-7V156.2z
	 M268.6,156.2h7v7h-7V156.2z M275.8,156.2h7v7h-7V156.2z M283.1,156.2h7v7h-7V156.2z M290.4,156.2h7v7h-7V156.2z M297.6,156.2h7v7
	h-7V156.2z M304.9,156.2h7v7h-7V156.2z M312.1,156.2h7v7h-7V156.2z M319.4,156.2h7v7h-7V156.2z M326.7,156.2h7v7h-7V156.2z
	 M333.9,156.2h7v7h-7V156.2z M341.2,156.2h7v7h-7V156.2z M348.4,156.2h7v7h-7V156.2z M355.7,156.2h7v7h-7V156.2z M363,156.2h7v7h-7
	V156.2z M370.2,156.2h7v7h-7V156.2z M377.5,156.2h7v7h-7V156.2z M566.2,156.2h7v7h-7V156.2z M573.5,156.2h7v7h-7V156.2z
	 M638.8,156.2h7v7h-7V156.2z M646.1,156.2h7v7h-7V156.2z M653.4,156.2h7v7h-7V156.2z M210.5,163.4h7v7h-7V163.4z M217.8,163.4h7v7
	h-7V163.4z M225,163.4h7v7h-7V163.4z M232.3,163.4h7v7h-7V163.4z M239.5,163.4h7v7h-7V163.4z M246.8,163.4h7v7h-7V163.4z
	 M254.1,163.4h7v7h-7V163.4z M261.3,163.4h7v7h-7V163.4z M268.6,163.4h7v7h-7V163.4z M275.8,163.4h7v7h-7V163.4z M283.1,163.4h7v7
	h-7V163.4z M290.4,163.4h7v7h-7V163.4z M297.6,163.4h7v7h-7V163.4z M304.9,163.4h7v7h-7V163.4z M312.1,163.4h7v7h-7V163.4z
	 M319.4,163.4h7v7h-7V163.4z M326.7,163.4h7v7h-7V163.4z M333.9,163.4h7v7h-7V163.4z M341.2,163.4h7v7h-7V163.4z M348.4,163.4h7v7
	h-7V163.4z M355.7,163.4h7v7h-7V163.4z M537.2,163.4h7v7h-7V163.4z M566.2,163.4h7v7h-7V163.4z M646.1,163.4h7v7h-7V163.4z
	 M653.4,163.4h7v7h-7V163.4z M203.2,170.7h7v7h-7V170.7z M210.5,170.7h7v7h-7V170.7z M217.8,170.7h7v7h-7V170.7z M225,170.7h7v7h-7
	V170.7z M232.3,170.7h7v7h-7V170.7z M239.5,170.7h7v7h-7V170.7z M246.8,170.7h7v7h-7V170.7z M254.1,170.7h7v7h-7V170.7z
	 M261.3,170.7h7v7h-7V170.7z M268.6,170.7h7v7h-7V170.7z M275.8,170.7h7v7h-7V170.7z M283.1,170.7h7v7h-7V170.7z M290.4,170.7h7v7
	h-7V170.7z M297.6,170.7h7v7h-7V170.7z M304.9,170.7h7v7h-7V170.7z M312.1,170.7h7v7h-7V170.7z M319.4,170.7h7v7h-7V170.7z
	 M326.7,170.7h7v7h-7V170.7z M333.9,170.7h7v7h-7V170.7z M341.2,170.7h7v7h-7V170.7z M348.4,170.7h7v7h-7V170.7z M355.7,170.7h7v7
	h-7V170.7z M471.9,170.7h7v7h-7V170.7z M508.2,170.7h7v7h-7V170.7z M515.4,170.7h7v7h-7V170.7z M529.9,170.7h7v7h-7V170.7z
	 M537.2,170.7h7v7h-7V170.7z M646.1,170.7h7v7h-7V170.7z M653.4,170.7h7v7h-7V170.7z M660.6,170.7h7v7h-7V170.7z M203.2,177.9h7v7
	h-7V177.9z M210.5,177.9h7v7h-7V177.9z M217.8,177.9h7v7h-7V177.9z M225,177.9h7v7h-7V177.9z M232.3,177.9h7v7h-7V177.9z
	 M239.5,177.9h7v7h-7V177.9z M246.8,177.9h7v7h-7V177.9z M254.1,177.9h7v7h-7V177.9z M261.3,177.9h7v7h-7V177.9z M268.6,177.9h7v7
	h-7V177.9z M275.8,177.9h7v7h-7V177.9z M283.1,177.9h7v7h-7V177.9z M290.4,177.9h7v7h-7V177.9z M297.6,177.9h7v7h-7V177.9z
	 M304.9,177.9h7v7h-7V177.9z M312.1,177.9h7v7h-7V177.9z M319.4,177.9h7v7h-7V177.9z M326.7,177.9h7v7h-7V177.9z M333.9,177.9h7v7
	h-7V177.9z M341.2,177.9h7v7h-7V177.9z M348.4,177.9h7v7h-7V177.9z M355.7,177.9h7v7h-7V177.9z M399.3,177.9h7v7h-7V177.9z
	 M450.1,177.9h7v7h-7V177.9z M457.3,177.9h7v7h-7V177.9z M464.6,177.9h7v7h-7V177.9z M471.9,177.9h7v7h-7V177.9z M500.9,177.9h7v7
	h-7V177.9z M508.2,177.9h7v7h-7V177.9z M515.4,177.9h7v7h-7V177.9z M653.4,177.9h7v7h-7V177.9z M660.6,177.9h7v7h-7V177.9z
	 M196,185.2h7v7h-7V185.2z M203.2,185.2h7v7h-7V185.2z M210.5,185.2h7v7h-7V185.2z M217.8,185.2h7v7h-7V185.2z M225,185.2h7v7h-7
	V185.2z M232.3,185.2h7v7h-7V185.2z M239.5,185.2h7v7h-7V185.2z M246.8,185.2h7v7h-7V185.2z M254.1,185.2h7v7h-7V185.2z
	 M261.3,185.2h7v7h-7V185.2z M268.6,185.2h7v7h-7V185.2z M275.8,185.2h7v7h-7V185.2z M283.1,185.2h7v7h-7V185.2z M290.4,185.2h7v7
	h-7V185.2z M297.6,185.2h7v7h-7V185.2z M304.9,185.2h7v7h-7V185.2z M312.1,185.2h7v7h-7V185.2z M319.4,185.2h7v7h-7V185.2z
	 M326.7,185.2h7v7h-7V185.2z M370.2,185.2h7v7h-7V185.2z M377.5,185.2h7v7h-7V185.2z M384.7,185.2h7v7h-7V185.2z M399.3,185.2h7v7
	h-7V185.2z M406.5,185.2h7v7h-7V185.2z M450.1,185.2h7v7h-7V185.2z M457.3,185.2h7v7h-7V185.2z M464.6,185.2h7v7h-7V185.2z
	 M471.9,185.2h7v7h-7V185.2z M479.1,185.2h7v7h-7V185.2z M508.2,185.2h7v7h-7V185.2z M515.4,185.2h7v7h-7V185.2z M522.7,185.2h7v7
	h-7V185.2z M653.4,185.2h7v7h-7V185.2z M660.6,185.2h7v7h-7V185.2z M667.9,185.2h7v7h-7V185.2z M196,192.5h7v7h-7V192.5z
	 M203.2,192.5h7v7h-7V192.5z M210.5,192.5h7v7h-7V192.5z M217.8,192.5h7v7h-7V192.5z M225,192.5h7v7h-7V192.5z M232.3,192.5h7v7h-7
	V192.5z M239.5,192.5h7v7h-7V192.5z M246.8,192.5h7v7h-7V192.5z M254.1,192.5h7v7h-7V192.5z M261.3,192.5h7v7h-7V192.5z
	 M268.6,192.5h7v7h-7V192.5z M275.8,192.5h7v7h-7V192.5z M283.1,192.5h7v7h-7V192.5z M290.4,192.5h7v7h-7V192.5z M297.6,192.5h7v7
	h-7V192.5z M304.9,192.5h7v7h-7V192.5z M312.1,192.5h7v7h-7V192.5z M319.4,192.5h7v7h-7V192.5z M326.7,192.5h7v7h-7V192.5z
	 M363,192.5h7v7h-7V192.5z M370.2,192.5h7v7h-7V192.5z M377.5,192.5h7v7h-7V192.5z M384.7,192.5h7v7h-7V192.5z M392,192.5h7v7h-7
	V192.5z M406.5,192.5h7v7h-7V192.5z M413.8,192.5h7v7h-7V192.5z M442.8,192.5h7v7h-7V192.5z M450.1,192.5h7v7h-7V192.5z
	 M457.3,192.5h7v7h-7V192.5z M464.6,192.5h7v7h-7V192.5z M471.9,192.5h7v7h-7V192.5z M479.1,192.5h7v7h-7V192.5z M486.4,192.5h7v7
	h-7V192.5z M515.4,192.5h7v7h-7V192.5z M522.7,192.5h7v7h-7V192.5z M660.6,192.5h7v7h-7V192.5z M667.9,192.5h7v7h-7V192.5z
	 M196,199.7h7v7h-7V199.7z M203.2,199.7h7v7h-7V199.7z M210.5,199.7h7v7h-7V199.7z M217.8,199.7h7v7h-7V199.7z M225,199.7h7v7h-7
	V199.7z M232.3,199.7h7v7h-7V199.7z M239.5,199.7h7v7h-7V199.7z M246.8,199.7h7v7h-7V199.7z M254.1,199.7h7v7h-7V199.7z
	 M261.3,199.7h7v7h-7V199.7z M268.6,199.7h7v7h-7V199.7z M275.8,199.7h7v7h-7V199.7z M283.1,199.7h7v7h-7V199.7z M290.4,199.7h7v7
	h-7V199.7z M297.6,199.7h7v7h-7V199.7z M304.9,199.7h7v7h-7V199.7z M312.1,199.7h7v7h-7V199.7z M319.4,199.7h7v7h-7V199.7z
	 M326.7,199.7h7v7h-7V199.7z M355.7,199.7h7v7h-7V199.7z M363,199.7h7v7h-7V199.7z M370.2,199.7h7v7h-7V199.7z M377.5,199.7h7v7h-7
	V199.7z M384.7,199.7h7v7h-7V199.7z M392,199.7h7v7h-7V199.7z M399.3,199.7h7v7h-7V199.7z M406.5,199.7h7v7h-7V199.7z M413.8,199.7
	h7v7h-7V199.7z M435.6,199.7h7v7h-7V199.7z M442.8,199.7h7v7h-7V199.7z M450.1,199.7h7v7h-7V199.7z M515.4,199.7h7v7h-7V199.7z
	 M522.7,199.7h7v7h-7V199.7z M529.9,199.7h7v7h-7V199.7z M660.6,199.7h7v7h-7V199.7z M667.9,199.7h7v7h-7V199.7z M675.1,199.7h7v7
	h-7V199.7z M188.7,207h7v7h-7V207z M196,207h7v7h-7V207z M203.2,207h7v7h-7V207z M210.5,207h7v7h-7V207z M217.8,207h7v7h-7V207z
	 M225,207h7v7h-7V207z M232.3,207h7v7h-7V207z M239.5,207h7v7h-7V207z M246.8,207h7v7h-7V207z M254.1,207h7v7h-7V207z M261.3,207h7
	v7h-7V207z M268.6,207h7v7h-7V207z M275.8,207h7v7h-7V207z M283.1,207h7v7h-7V207z M290.4,207h7v7h-7V207z M297.6,207h7v7h-7V207z
	 M304.9,207h7v7h-7V207z M312.1,207h7v7h-7V207z M319.4,207h7v7h-7V207z M326.7,207h7v7h-7V207z M341.2,207h7v7h-7V207z M348.4,207
	h7v7h-7V207z M355.7,207h7v7h-7V207z M363,207h7v7h-7V207z M370.2,207h7v7h-7V207z M377.5,207h7v7h-7V207z M384.7,207h7v7h-7V207z
	 M392,207h7v7h-7V207z M399.3,207h7v7h-7V207z M406.5,207h7v7h-7V207z M413.8,207h7v7h-7V207z M421,207h7v7h-7V207z M428.3,207h7v7
	h-7V207z M435.6,207h7v7h-7V207z M442.8,207h7v7h-7V207z M515.4,207h7v7h-7V207z M522.7,207h7v7h-7V207z M529.9,207h7v7h-7V207z
	 M667.9,207h7v7h-7V207z M675.1,207h7v7h-7V207z M188.7,214.2h7v7h-7V214.2z M196,214.2h7v7h-7V214.2z M203.2,214.2h7v7h-7V214.2z
	 M210.5,214.2h7v7h-7V214.2z M217.8,214.2h7v7h-7V214.2z M225,214.2h7v7h-7V214.2z M232.3,214.2h7v7h-7V214.2z M239.5,214.2h7v7h-7
	V214.2z M246.8,214.2h7v7h-7V214.2z M254.1,214.2h7v7h-7V214.2z M261.3,214.2h7v7h-7V214.2z M268.6,214.2h7v7h-7V214.2z
	 M275.8,214.2h7v7h-7V214.2z M283.1,214.2h7v7h-7V214.2z M290.4,214.2h7v7h-7V214.2z M297.6,214.2h7v7h-7V214.2z M304.9,214.2h7v7
	h-7V214.2z M312.1,214.2h7v7h-7V214.2z M319.4,214.2h7v7h-7V214.2z M326.7,214.2h7v7h-7V214.2z M341.2,214.2h7v7h-7V214.2z
	 M348.4,214.2h7v7h-7V214.2z M384.7,214.2h7v7h-7V214.2z M392,214.2h7v7h-7V214.2z M399.3,214.2h7v7h-7V214.2z M406.5,214.2h7v7h-7
	V214.2z M413.8,214.2h7v7h-7V214.2z M421,214.2h7v7h-7V214.2z M428.3,214.2h7v7h-7V214.2z M435.6,214.2h7v7h-7V214.2z M442.8,214.2
	h7v7h-7V214.2z M450.1,214.2h7v7h-7V214.2z M457.3,214.2h7v7h-7V214.2z M471.9,214.2h7v7h-7V214.2z M667.9,214.2h7v7h-7V214.2z
	 M675.1,214.2h7v7h-7V214.2z M188.7,221.5h7v7h-7V221.5z M196,221.5h7v7h-7V221.5z M203.2,221.5h7v7h-7V221.5z M210.5,221.5h7v7h-7
	V221.5z M217.8,221.5h7v7h-7V221.5z M225,221.5h7v7h-7V221.5z M232.3,221.5h7v7h-7V221.5z M239.5,221.5h7v7h-7V221.5z M246.8,221.5
	h7v7h-7V221.5z M254.1,221.5h7v7h-7V221.5z M261.3,221.5h7v7h-7V221.5z M268.6,221.5h7v7h-7V221.5z M275.8,221.5h7v7h-7V221.5z
	 M283.1,221.5h7v7h-7V221.5z M290.4,221.5h7v7h-7V221.5z M297.6,221.5h7v7h-7V221.5z M304.9,221.5h7v7h-7V221.5z M312.1,221.5h7v7
	h-7V221.5z M319.4,221.5h7v7h-7V221.5z M384.7,221.5h7v7h-7V221.5z M392,221.5h7v7h-7V221.5z M399.3,221.5h7v7h-7V221.5z
	 M406.5,221.5h7v7h-7V221.5z M413.8,221.5h7v7h-7V221.5z M421,221.5h7v7h-7V221.5z M428.3,221.5h7v7h-7V221.5z M435.6,221.5h7v7h-7
	V221.5z M442.8,221.5h7v7h-7V221.5z M450.1,221.5h7v7h-7V221.5z M457.3,221.5h7v7h-7V221.5z M464.6,221.5h7v7h-7V221.5z
	 M471.9,221.5h7v7h-7V221.5z M667.9,221.5h7v7h-7V221.5z M675.1,221.5h7v7h-7V221.5z M682.4,221.5h7v7h-7V221.5z M181.5,228.7h7v7
	h-7V228.7z M188.7,228.7h7v7h-7V228.7z M196,228.7h7v7h-7V228.7z M203.2,228.7h7v7h-7V228.7z M210.5,228.7h7v7h-7V228.7z
	 M217.8,228.7h7v7h-7V228.7z M225,228.7h7v7h-7V228.7z M232.3,228.7h7v7h-7V228.7z M239.5,228.7h7v7h-7V228.7z M246.8,228.7h7v7h-7
	V228.7z M254.1,228.7h7v7h-7V228.7z M261.3,228.7h7v7h-7V228.7z M268.6,228.7h7v7h-7V228.7z M275.8,228.7h7v7h-7V228.7z
	 M283.1,228.7h7v7h-7V228.7z M290.4,228.7h7v7h-7V228.7z M297.6,228.7h7v7h-7V228.7z M304.9,228.7h7v7h-7V228.7z M312.1,228.7h7v7
	h-7V228.7z M384.7,228.7h7v7h-7V228.7z M392,228.7h7v7h-7V228.7z M399.3,228.7h7v7h-7V228.7z M406.5,228.7h7v7h-7V228.7z
	 M413.8,228.7h7v7h-7V228.7z M421,228.7h7v7h-7V228.7z M428.3,228.7h7v7h-7V228.7z M435.6,228.7h7v7h-7V228.7z M442.8,228.7h7v7h-7
	V228.7z M450.1,228.7h7v7h-7V228.7z M457.3,228.7h7v7h-7V228.7z M464.6,228.7h7v7h-7V228.7z M471.9,228.7h7v7h-7V228.7z
	 M667.9,228.7h7v7h-7V228.7z M675.1,228.7h7v7h-7V228.7z M682.4,228.7h7v7h-7V228.7z M181.5,236h7v7h-7V236z M188.7,236h7v7h-7V236z
	 M196,236h7v7h-7V236z M203.2,236h7v7h-7V236z M210.5,236h7v7h-7V236z M217.8,236h7v7h-7V236z M225,236h7v7h-7V236z M232.3,236h7v7
	h-7V236z M239.5,236h7v7h-7V236z M246.8,236h7v7h-7V236z M254.1,236h7v7h-7V236z M261.3,236h7v7h-7V236z M268.6,236h7v7h-7V236z
	 M275.8,236h7v7h-7V236z M283.1,236h7v7h-7V236z M290.4,236h7v7h-7V236z M297.6,236h7v7h-7V236z M304.9,236h7v7h-7V236z M399.3,236
	h7v7h-7V236z M406.5,236h7v7h-7V236z M413.8,236h7v7h-7V236z M421,236h7v7h-7V236z M435.6,236h7v7h-7V236z M442.8,236h7v7h-7V236z
	 M450.1,236h7v7h-7V236z M457.3,236h7v7h-7V236z M464.6,236h7v7h-7V236z M471.9,236h7v7h-7V236z M522.7,236h7v7h-7V236z M646.1,236
	h7v7h-7V236z M667.9,236h7v7h-7V236z M675.1,236h7v7h-7V236z M682.4,236h7v7h-7V236z M181.5,243.3h7v7h-7V243.3z M188.7,243.3h7v7
	h-7V243.3z M196,243.3h7v7h-7V243.3z M203.2,243.3h7v7h-7V243.3z M210.5,243.3h7v7h-7V243.3z M217.8,243.3h7v7h-7V243.3z M225,243.3
	h7v7h-7V243.3z M232.3,243.3h7v7h-7V243.3z M239.5,243.3h7v7h-7V243.3z M246.8,243.3h7v7h-7V243.3z M254.1,243.3h7v7h-7V243.3z
	 M261.3,243.3h7v7h-7V243.3z M268.6,243.3h7v7h-7V243.3z M275.8,243.3h7v7h-7V243.3z M283.1,243.3h7v7h-7V243.3z M290.4,243.3h7v7
	h-7V243.3z M297.6,243.3h7v7h-7V243.3z M413.8,243.3h7v7h-7V243.3z M522.7,243.3h7v7h-7V243.3z M529.9,243.3h7v7h-7V243.3z
	 M537.2,243.3h7v7h-7V243.3z M638.8,243.3h7v7h-7V243.3z M646.1,243.3h7v7h-7V243.3z M653.4,243.3h7v7h-7V243.3z M675.1,243.3h7v7
	h-7V243.3z M682.4,243.3h7v7h-7V243.3z M181.5,250.5h7v7h-7V250.5z M188.7,250.5h7v7h-7V250.5z M196,250.5h7v7h-7V250.5z
	 M203.2,250.5h7v7h-7V250.5z M210.5,250.5h7v7h-7V250.5z M217.8,250.5h7v7h-7V250.5z M225,250.5h7v7h-7V250.5z M232.3,250.5h7v7h-7
	V250.5z M239.5,250.5h7v7h-7V250.5z M246.8,250.5h7v7h-7V250.5z M254.1,250.5h7v7h-7V250.5z M261.3,250.5h7v7h-7V250.5z
	 M268.6,250.5h7v7h-7V250.5z M275.8,250.5h7v7h-7V250.5z M283.1,250.5h7v7h-7V250.5z M290.4,250.5h7v7h-7V250.5z M471.9,250.5h7v7
	h-7V250.5z M529.9,250.5h7v7h-7V250.5z M537.2,250.5h7v7h-7V250.5z M544.5,250.5h7v7h-7V250.5z M551.7,250.5h7v7h-7V250.5z
	 M559,250.5h7v7h-7V250.5z M566.2,250.5h7v7h-7V250.5z M573.5,250.5h7v7h-7V250.5z M580.8,250.5h7v7h-7V250.5z M588,250.5h7v7h-7
	V250.5z M638.8,250.5h7v7h-7V250.5z M646.1,250.5h7v7h-7V250.5z M653.4,250.5h7v7h-7V250.5z M660.6,250.5h7v7h-7V250.5z
	 M675.1,250.5h7v7h-7V250.5z M682.4,250.5h7v7h-7V250.5z M689.7,250.5h7v7h-7V250.5z M174.2,257.8h7v7h-7V257.8z M181.5,257.8h7v7
	h-7V257.8z M188.7,257.8h7v7h-7V257.8z M196,257.8h7v7h-7V257.8z M203.2,257.8h7v7h-7V257.8z M210.5,257.8h7v7h-7V257.8z
	 M217.8,257.8h7v7h-7V257.8z M225,257.8h7v7h-7V257.8z M232.3,257.8h7v7h-7V257.8z M239.5,257.8h7v7h-7V257.8z M246.8,257.8h7v7h-7
	V257.8z M254.1,257.8h7v7h-7V257.8z M261.3,257.8h7v7h-7V257.8z M268.6,257.8h7v7h-7V257.8z M275.8,257.8h7v7h-7V257.8z
	 M283.1,257.8h7v7h-7V257.8z M471.9,257.8h7v7h-7V257.8z M479.1,257.8h7v7h-7V257.8z M537.2,257.8h7v7h-7V257.8z M544.5,257.8h7v7
	h-7V257.8z M559,257.8h7v7h-7V257.8z M566.2,257.8h7v7h-7V257.8z M573.5,257.8h7v7h-7V257.8z M580.8,257.8h7v7h-7V257.8z M588,257.8
	h7v7h-7V257.8z M595.3,257.8h7v7h-7V257.8z M602.5,257.8h7v7h-7V257.8z M638.8,257.8h7v7h-7V257.8z M646.1,257.8h7v7h-7V257.8z
	 M653.4,257.8h7v7h-7V257.8z M660.6,257.8h7v7h-7V257.8z M667.9,257.8h7v7h-7V257.8z M675.1,257.8h7v7h-7V257.8z M682.4,257.8h7v7
	h-7V257.8z M689.7,257.8h7v7h-7V257.8z M174.2,265h7v7h-7V265z M181.5,265h7v7h-7V265z M188.7,265h7v7h-7V265z M196,265h7v7h-7V265z
	 M203.2,265h7v7h-7V265z M210.5,265h7v7h-7V265z M217.8,265h7v7h-7V265z M225,265h7v7h-7V265z M232.3,265h7v7h-7V265z M239.5,265h7
	v7h-7V265z M246.8,265h7v7h-7V265z M254.1,265h7v7h-7V265z M261.3,265h7v7h-7V265z M268.6,265h7v7h-7V265z M275.8,265h7v7h-7V265z
	 M479.1,265h7v7h-7V265z M486.4,265h7v7h-7V265z M566.2,265h7v7h-7V265z M573.5,265h7v7h-7V265z M580.8,265h7v7h-7V265z M588,265h7
	v7h-7V265z M595.3,265h7v7h-7V265z M602.5,265h7v7h-7V265z M609.8,265h7v7h-7V265z M638.8,265h7v7h-7V265z M646.1,265h7v7h-7V265z
	 M653.4,265h7v7h-7V265z M660.6,265h7v7h-7V265z M667.9,265h7v7h-7V265z M675.1,265h7v7h-7V265z M682.4,265h7v7h-7V265z M689.7,265
	h7v7h-7V265z M174.2,272.3h7v7h-7V272.3z M181.5,272.3h7v7h-7V272.3z M188.7,272.3h7v7h-7V272.3z M196,272.3h7v7h-7V272.3z
	 M203.2,272.3h7v7h-7V272.3z M210.5,272.3h7v7h-7V272.3z M217.8,272.3h7v7h-7V272.3z M225,272.3h7v7h-7V272.3z M232.3,272.3h7v7h-7
	V272.3z M239.5,272.3h7v7h-7V272.3z M246.8,272.3h7v7h-7V272.3z M254.1,272.3h7v7h-7V272.3z M261.3,272.3h7v7h-7V272.3z
	 M268.6,272.3h7v7h-7V272.3z M275.8,272.3h7v7h-7V272.3z M479.1,272.3h7v7h-7V272.3z M486.4,272.3h7v7h-7V272.3z M493.6,272.3h7v7
	h-7V272.3z M566.2,272.3h7v7h-7V272.3z M573.5,272.3h7v7h-7V272.3z M580.8,272.3h7v7h-7V272.3z M588,272.3h7v7h-7V272.3z
	 M595.3,272.3h7v7h-7V272.3z M602.5,272.3h7v7h-7V272.3z M609.8,272.3h7v7h-7V272.3z M631.6,272.3h7v7h-7V272.3z M638.8,272.3h7v7
	h-7V272.3z M646.1,272.3h7v7h-7V272.3z M653.4,272.3h7v7h-7V272.3z M660.6,272.3h7v7h-7V272.3z M667.9,272.3h7v7h-7V272.3z
	 M675.1,272.3h7v7h-7V272.3z M682.4,272.3h7v7h-7V272.3z M689.7,272.3h7v7h-7V272.3z M174.2,279.6h7v7h-7V279.6z M181.5,279.6h7v7
	h-7V279.6z M188.7,279.6h7v7h-7V279.6z M196,279.6h7v7h-7V279.6z M203.2,279.6h7v7h-7V279.6z M210.5,279.6h7v7h-7V279.6z
	 M217.8,279.6h7v7h-7V279.6z M225,279.6h7v7h-7V279.6z M232.3,279.6h7v7h-7V279.6z M239.5,279.6h7v7h-7V279.6z M246.8,279.6h7v7h-7
	V279.6z M254.1,279.6h7v7h-7V279.6z M261.3,279.6h7v7h-7V279.6z M268.6,279.6h7v7h-7V279.6z M275.8,279.6h7v7h-7V279.6z
	 M486.4,279.6h7v7h-7V279.6z M493.6,279.6h7v7h-7V279.6z M559,279.6h7v7h-7V279.6z M566.2,279.6h7v7h-7V279.6z M573.5,279.6h7v7h-7
	V279.6z M580.8,279.6h7v7h-7V279.6z M588,279.6h7v7h-7V279.6z M595.3,279.6h7v7h-7V279.6z M602.5,279.6h7v7h-7V279.6z M609.8,279.6
	h7v7h-7V279.6z M631.6,279.6h7v7h-7V279.6z M638.8,279.6h7v7h-7V279.6z M646.1,279.6h7v7h-7V279.6z M653.4,279.6h7v7h-7V279.6z
	 M660.6,279.6h7v7h-7V279.6z M667.9,279.6h7v7h-7V279.6z M675.1,279.6h7v7h-7V279.6z M682.4,279.6h7v7h-7V279.6z M689.7,279.6h7v7
	h-7V279.6z M174.2,286.8h7v7h-7V286.8z M181.5,286.8h7v7h-7V286.8z M188.7,286.8h7v7h-7V286.8z M196,286.8h7v7h-7V286.8z
	 M203.2,286.8h7v7h-7V286.8z M210.5,286.8h7v7h-7V286.8z M217.8,286.8h7v7h-7V286.8z M225,286.8h7v7h-7V286.8z M232.3,286.8h7v7h-7
	V286.8z M239.5,286.8h7v7h-7V286.8z M246.8,286.8h7v7h-7V286.8z M254.1,286.8h7v7h-7V286.8z M261.3,286.8h7v7h-7V286.8z
	 M268.6,286.8h7v7h-7V286.8z M275.8,286.8h7v7h-7V286.8z M486.4,286.8h7v7h-7V286.8z M493.6,286.8h7v7h-7V286.8z M500.9,286.8h7v7
	h-7V286.8z M559,286.8h7v7h-7V286.8z M566.2,286.8h7v7h-7V286.8z M573.5,286.8h7v7h-7V286.8z M580.8,286.8h7v7h-7V286.8z M588,286.8
	h7v7h-7V286.8z M595.3,286.8h7v7h-7V286.8z M602.5,286.8h7v7h-7V286.8z M609.8,286.8h7v7h-7V286.8z M617.1,286.8h7v7h-7V286.8z
	 M638.8,286.8h7v7h-7V286.8z M646.1,286.8h7v7h-7V286.8z M653.4,286.8h7v7h-7V286.8z M660.6,286.8h7v7h-7V286.8z M667.9,286.8h7v7
	h-7V286.8z M675.1,286.8h7v7h-7V286.8z M682.4,286.8h7v7h-7V286.8z M689.7,286.8h7v7h-7V286.8z M174.2,294.1h7v7h-7V294.1z
	 M181.5,294.1h7v7h-7V294.1z M196,294.1h7v7h-7V294.1z M203.2,294.1h7v7h-7V294.1z M210.5,294.1h7v7h-7V294.1z M217.8,294.1h7v7h-7
	V294.1z M225,294.1h7v7h-7V294.1z M232.3,294.1h7v7h-7V294.1z M239.5,294.1h7v7h-7V294.1z M246.8,294.1h7v7h-7V294.1z M254.1,294.1
	h7v7h-7V294.1z M261.3,294.1h7v7h-7V294.1z M268.6,294.1h7v7h-7V294.1z M275.8,294.1h7v7h-7V294.1z M493.6,294.1h7v7h-7V294.1z
	 M500.9,294.1h7v7h-7V294.1z M508.2,294.1h7v7h-7V294.1z M544.5,294.1h7v7h-7V294.1z M551.7,294.1h7v7h-7V294.1z M559,294.1h7v7h-7
	V294.1z M566.2,294.1h7v7h-7V294.1z M573.5,294.1h7v7h-7V294.1z M580.8,294.1h7v7h-7V294.1z M588,294.1h7v7h-7V294.1z M595.3,294.1
	h7v7h-7V294.1z M602.5,294.1h7v7h-7V294.1z M609.8,294.1h7v7h-7V294.1z M617.1,294.1h7v7h-7V294.1z M624.3,294.1h7v7h-7V294.1z
	 M638.8,294.1h7v7h-7V294.1z M646.1,294.1h7v7h-7V294.1z M653.4,294.1h7v7h-7V294.1z M660.6,294.1h7v7h-7V294.1z M667.9,294.1h7v7
	h-7V294.1z M675.1,294.1h7v7h-7V294.1z M682.4,294.1h7v7h-7V294.1z M689.7,294.1h7v7h-7V294.1z M174.2,301.4h7v7h-7V301.4z
	 M181.5,301.4h7v7h-7V301.4z M196,301.4h7v7h-7V301.4z M203.2,301.4h7v7h-7V301.4z M210.5,301.4h7v7h-7V301.4z M217.8,301.4h7v7h-7
	V301.4z M225,301.4h7v7h-7V301.4z M232.3,301.4h7v7h-7V301.4z M239.5,301.4h7v7h-7V301.4z M246.8,301.4h7v7h-7V301.4z M254.1,301.4
	h7v7h-7V301.4z M261.3,301.4h7v7h-7V301.4z M268.6,301.4h7v7h-7V301.4z M275.8,301.4h7v7h-7V301.4z M493.6,301.4h7v7h-7V301.4z
	 M500.9,301.4h7v7h-7V301.4z M508.2,301.4h7v7h-7V301.4z M537.2,301.4h7v7h-7V301.4z M544.5,301.4h7v7h-7V301.4z M551.7,301.4h7v7
	h-7V301.4z M559,301.4h7v7h-7V301.4z M566.2,301.4h7v7h-7V301.4z M573.5,301.4h7v7h-7V301.4z M580.8,301.4h7v7h-7V301.4z M588,301.4
	h7v7h-7V301.4z M595.3,301.4h7v7h-7V301.4z M602.5,301.4h7v7h-7V301.4z M609.8,301.4h7v7h-7V301.4z M617.1,301.4h7v7h-7V301.4z
	 M624.3,301.4h7v7h-7V301.4z M631.6,301.4h7v7h-7V301.4z M638.8,301.4h7v7h-7V301.4z M646.1,301.4h7v7h-7V301.4z M653.4,301.4h7v7
	h-7V301.4z M660.6,301.4h7v7h-7V301.4z M667.9,301.4h7v7h-7V301.4z M675.1,301.4h7v7h-7V301.4z M682.4,301.4h7v7h-7V301.4z
	 M689.7,301.4h7v7h-7V301.4z M174.2,308.6h7v7h-7V308.6z M181.5,308.6h7v7h-7V308.6z M196,308.6h7v7h-7V308.6z M203.2,308.6h7v7h-7
	V308.6z M210.5,308.6h7v7h-7V308.6z M217.8,308.6h7v7h-7V308.6z M225,308.6h7v7h-7V308.6z M232.3,308.6h7v7h-7V308.6z M239.5,308.6
	h7v7h-7V308.6z M246.8,308.6h7v7h-7V308.6z M254.1,308.6h7v7h-7V308.6z M261.3,308.6h7v7h-7V308.6z M268.6,308.6h7v7h-7V308.6z
	 M275.8,308.6h7v7h-7V308.6z M500.9,308.6h7v7h-7V308.6z M508.2,308.6h7v7h-7V308.6z M522.7,308.6h7v7h-7V308.6z M529.9,308.6h7v7
	h-7V308.6z M537.2,308.6h7v7h-7V308.6z M544.5,308.6h7v7h-7V308.6z M551.7,308.6h7v7h-7V308.6z M559,308.6h7v7h-7V308.6z
	 M566.2,308.6h7v7h-7V308.6z M573.5,308.6h7v7h-7V308.6z M580.8,308.6h7v7h-7V308.6z M588,308.6h7v7h-7V308.6z M595.3,308.6h7v7h-7
	V308.6z M602.5,308.6h7v7h-7V308.6z M609.8,308.6h7v7h-7V308.6z M617.1,308.6h7v7h-7V308.6z M624.3,308.6h7v7h-7V308.6z
	 M631.6,308.6h7v7h-7V308.6z M638.8,308.6h7v7h-7V308.6z M646.1,308.6h7v7h-7V308.6z M653.4,308.6h7v7h-7V308.6z M660.6,308.6h7v7
	h-7V308.6z M667.9,308.6h7v7h-7V308.6z M675.1,308.6h7v7h-7V308.6z M682.4,308.6h7v7h-7V308.6z M689.7,308.6h7v7h-7V308.6z
	 M174.2,315.9h7v7h-7V315.9z M181.5,315.9h7v7h-7V315.9z M196,315.9h7v7h-7V315.9z M203.2,315.9h7v7h-7V315.9z M210.5,315.9h7v7h-7
	V315.9z M217.8,315.9h7v7h-7V315.9z M225,315.9h7v7h-7V315.9z M232.3,315.9h7v7h-7V315.9z M239.5,315.9h7v7h-7V315.9z M246.8,315.9
	h7v7h-7V315.9z M254.1,315.9h7v7h-7V315.9z M261.3,315.9h7v7h-7V315.9z M268.6,315.9h7v7h-7V315.9z M275.8,315.9h7v7h-7V315.9z
	 M283.1,315.9h7v7h-7V315.9z M515.4,315.9h7v7h-7V315.9z M522.7,315.9h7v7h-7V315.9z M529.9,315.9h7v7h-7V315.9z M537.2,315.9h7v7
	h-7V315.9z M544.5,315.9h7v7h-7V315.9z M551.7,315.9h7v7h-7V315.9z M559,315.9h7v7h-7V315.9z M566.2,315.9h7v7h-7V315.9z
	 M573.5,315.9h7v7h-7V315.9z M580.8,315.9h7v7h-7V315.9z M588,315.9h7v7h-7V315.9z M595.3,315.9h7v7h-7V315.9z M602.5,315.9h7v7h-7
	V315.9z M609.8,315.9h7v7h-7V315.9z M617.1,315.9h7v7h-7V315.9z M624.3,315.9h7v7h-7V315.9z M631.6,315.9h7v7h-7V315.9z
	 M638.8,315.9h7v7h-7V315.9z M646.1,315.9h7v7h-7V315.9z M653.4,315.9h7v7h-7V315.9z M660.6,315.9h7v7h-7V315.9z M667.9,315.9h7v7
	h-7V315.9z M675.1,315.9h7v7h-7V315.9z M682.4,315.9h7v7h-7V315.9z M689.7,315.9h7v7h-7V315.9z M174.2,323.1h7v7h-7V323.1z
	 M181.5,323.1h7v7h-7V323.1z M196,323.1h7v7h-7V323.1z M203.2,323.1h7v7h-7V323.1z M210.5,323.1h7v7h-7V323.1z M217.8,323.1h7v7h-7
	V323.1z M225,323.1h7v7h-7V323.1z M232.3,323.1h7v7h-7V323.1z M239.5,323.1h7v7h-7V323.1z M246.8,323.1h7v7h-7V323.1z M254.1,323.1
	h7v7h-7V323.1z M261.3,323.1h7v7h-7V323.1z M268.6,323.1h7v7h-7V323.1z M275.8,323.1h7v7h-7V323.1z M283.1,323.1h7v7h-7V323.1z
	 M515.4,323.1h7v7h-7V323.1z M522.7,323.1h7v7h-7V323.1z M544.5,323.1h7v7h-7V323.1z M551.7,323.1h7v7h-7V323.1z M559,323.1h7v7h-7
	V323.1z M566.2,323.1h7v7h-7V323.1z M573.5,323.1h7v7h-7V323.1z M580.8,323.1h7v7h-7V323.1z M588,323.1h7v7h-7V323.1z M595.3,323.1
	h7v7h-7V323.1z M602.5,323.1h7v7h-7V323.1z M609.8,323.1h7v7h-7V323.1z M617.1,323.1h7v7h-7V323.1z M624.3,323.1h7v7h-7V323.1z
	 M631.6,323.1h7v7h-7V323.1z M638.8,323.1h7v7h-7V323.1z M646.1,323.1h7v7h-7V323.1z M653.4,323.1h7v7h-7V323.1z M660.6,323.1h7v7
	h-7V323.1z M667.9,323.1h7v7h-7V323.1z M675.1,323.1h7v7h-7V323.1z M682.4,323.1h7v7h-7V323.1z M689.7,323.1h7v7h-7V323.1z
	 M174.2,330.4h7v7h-7V330.4z M181.5,330.4h7v7h-7V330.4z M203.2,330.4h7v7h-7V330.4z M210.5,330.4h7v7h-7V330.4z M217.8,330.4h7v7
	h-7V330.4z M225,330.4h7v7h-7V330.4z M232.3,330.4h7v7h-7V330.4z M239.5,330.4h7v7h-7V330.4z M246.8,330.4h7v7h-7V330.4z
	 M254.1,330.4h7v7h-7V330.4z M261.3,330.4h7v7h-7V330.4z M268.6,330.4h7v7h-7V330.4z M275.8,330.4h7v7h-7V330.4z M283.1,330.4h7v7
	h-7V330.4z M290.4,330.4h7v7h-7V330.4z M544.5,330.4h7v7h-7V330.4z M551.7,330.4h7v7h-7V330.4z M559,330.4h7v7h-7V330.4z
	 M566.2,330.4h7v7h-7V330.4z M573.5,330.4h7v7h-7V330.4z M580.8,330.4h7v7h-7V330.4z M588,330.4h7v7h-7V330.4z M595.3,330.4h7v7h-7
	V330.4z M602.5,330.4h7v7h-7V330.4z M609.8,330.4h7v7h-7V330.4z M617.1,330.4h7v7h-7V330.4z M624.3,330.4h7v7h-7V330.4z
	 M631.6,330.4h7v7h-7V330.4z M638.8,330.4h7v7h-7V330.4z M646.1,330.4h7v7h-7V330.4z M653.4,330.4h7v7h-7V330.4z M660.6,330.4h7v7
	h-7V330.4z M667.9,330.4h7v7h-7V330.4z M675.1,330.4h7v7h-7V330.4z M682.4,330.4h7v7h-7V330.4z M689.7,330.4h7v7h-7V330.4z
	 M174.2,337.6h7v7h-7V337.6z M181.5,337.6h7v7h-7V337.6z M203.2,337.6h7v7h-7V337.6z M210.5,337.6h7v7h-7V337.6z M217.8,337.6h7v7
	h-7V337.6z M225,337.6h7v7h-7V337.6z M232.3,337.6h7v7h-7V337.6z M239.5,337.6h7v7h-7V337.6z M246.8,337.6h7v7h-7V337.6z
	 M254.1,337.6h7v7h-7V337.6z M261.3,337.6h7v7h-7V337.6z M268.6,337.6h7v7h-7V337.6z M275.8,337.6h7v7h-7V337.6z M283.1,337.6h7v7
	h-7V337.6z M290.4,337.6h7v7h-7V337.6z M297.6,337.6h7v7h-7V337.6z M537.2,337.6h7v7h-7V337.6z M544.5,337.6h7v7h-7V337.6z
	 M551.7,337.6h7v7h-7V337.6z M559,337.6h7v7h-7V337.6z M566.2,337.6h7v7h-7V337.6z M573.5,337.6h7v7h-7V337.6z M580.8,337.6h7v7h-7
	V337.6z M588,337.6h7v7h-7V337.6z M595.3,337.6h7v7h-7V337.6z M602.5,337.6h7v7h-7V337.6z M609.8,337.6h7v7h-7V337.6z M617.1,337.6
	h7v7h-7V337.6z M624.3,337.6h7v7h-7V337.6z M631.6,337.6h7v7h-7V337.6z M638.8,337.6h7v7h-7V337.6z M646.1,337.6h7v7h-7V337.6z
	 M653.4,337.6h7v7h-7V337.6z M660.6,337.6h7v7h-7V337.6z M667.9,337.6h7v7h-7V337.6z M675.1,337.6h7v7h-7V337.6z M682.4,337.6h7v7
	h-7V337.6z M689.7,337.6h7v7h-7V337.6z M181.5,344.9h7v7h-7V344.9z M188.7,344.9h7v7h-7V344.9z M210.5,344.9h7v7h-7V344.9z
	 M217.8,344.9h7v7h-7V344.9z M225,344.9h7v7h-7V344.9z M232.3,344.9h7v7h-7V344.9z M239.5,344.9h7v7h-7V344.9z M246.8,344.9h7v7h-7
	V344.9z M254.1,344.9h7v7h-7V344.9z M261.3,344.9h7v7h-7V344.9z M268.6,344.9h7v7h-7V344.9z M275.8,344.9h7v7h-7V344.9z
	 M283.1,344.9h7v7h-7V344.9z M290.4,344.9h7v7h-7V344.9z M297.6,344.9h7v7h-7V344.9z M304.9,344.9h7v7h-7V344.9z M312.1,344.9h7v7
	h-7V344.9z M319.4,344.9h7v7h-7V344.9z M326.7,344.9h7v7h-7V344.9z M333.9,344.9h7v7h-7V344.9z M341.2,344.9h7v7h-7V344.9z
	 M348.4,344.9h7v7h-7V344.9z M537.2,344.9h7v7h-7V344.9z M544.5,344.9h7v7h-7V344.9z M551.7,344.9h7v7h-7V344.9z M559,344.9h7v7h-7
	V344.9z M566.2,344.9h7v7h-7V344.9z M573.5,344.9h7v7h-7V344.9z M580.8,344.9h7v7h-7V344.9z M588,344.9h7v7h-7V344.9z M595.3,344.9
	h7v7h-7V344.9z M602.5,344.9h7v7h-7V344.9z M609.8,344.9h7v7h-7V344.9z M617.1,344.9h7v7h-7V344.9z M624.3,344.9h7v7h-7V344.9z
	 M631.6,344.9h7v7h-7V344.9z M638.8,344.9h7v7h-7V344.9z M646.1,344.9h7v7h-7V344.9z M653.4,344.9h7v7h-7V344.9z M660.6,344.9h7v7
	h-7V344.9z M667.9,344.9h7v7h-7V344.9z M675.1,344.9h7v7h-7V344.9z M682.4,344.9h7v7h-7V344.9z M689.7,344.9h7v7h-7V344.9z
	 M181.5,352.2h7v7h-7V352.2z M188.7,352.2h7v7h-7V352.2z M217.8,352.2h7v7h-7V352.2z M225,352.2h7v7h-7V352.2z M232.3,352.2h7v7h-7
	V352.2z M239.5,352.2h7v7h-7V352.2z M246.8,352.2h7v7h-7V352.2z M254.1,352.2h7v7h-7V352.2z M261.3,352.2h7v7h-7V352.2z
	 M268.6,352.2h7v7h-7V352.2z M275.8,352.2h7v7h-7V352.2z M283.1,352.2h7v7h-7V352.2z M290.4,352.2h7v7h-7V352.2z M297.6,352.2h7v7
	h-7V352.2z M304.9,352.2h7v7h-7V352.2z M312.1,352.2h7v7h-7V352.2z M319.4,352.2h7v7h-7V352.2z M326.7,352.2h7v7h-7V352.2z
	 M333.9,352.2h7v7h-7V352.2z M341.2,352.2h7v7h-7V352.2z M348.4,352.2h7v7h-7V352.2z M355.7,352.2h7v7h-7V352.2z M363,352.2h7v7h-7
	V352.2z M370.2,352.2h7v7h-7V352.2z M529.9,352.2h7v7h-7V352.2z M537.2,352.2h7v7h-7V352.2z M544.5,352.2h7v7h-7V352.2z
	 M551.7,352.2h7v7h-7V352.2z M559,352.2h7v7h-7V352.2z M566.2,352.2h7v7h-7V352.2z M573.5,352.2h7v7h-7V352.2z M580.8,352.2h7v7h-7
	V352.2z M588,352.2h7v7h-7V352.2z M595.3,352.2h7v7h-7V352.2z M602.5,352.2h7v7h-7V352.2z M609.8,352.2h7v7h-7V352.2z M617.1,352.2
	h7v7h-7V352.2z M624.3,352.2h7v7h-7V352.2z M631.6,352.2h7v7h-7V352.2z M638.8,352.2h7v7h-7V352.2z M646.1,352.2h7v7h-7V352.2z
	 M653.4,352.2h7v7h-7V352.2z M660.6,352.2h7v7h-7V352.2z M667.9,352.2h7v7h-7V352.2z M675.1,352.2h7v7h-7V352.2z M682.4,352.2h7v7
	h-7V352.2z M181.5,359.4h7v7h-7V359.4z M188.7,359.4h7v7h-7V359.4z M217.8,359.4h7v7h-7V359.4z M225,359.4h7v7h-7V359.4z
	 M232.3,359.4h7v7h-7V359.4z M239.5,359.4h7v7h-7V359.4z M246.8,359.4h7v7h-7V359.4z M254.1,359.4h7v7h-7V359.4z M261.3,359.4h7v7
	h-7V359.4z M268.6,359.4h7v7h-7V359.4z M275.8,359.4h7v7h-7V359.4z M283.1,359.4h7v7h-7V359.4z M290.4,359.4h7v7h-7V359.4z
	 M297.6,359.4h7v7h-7V359.4z M304.9,359.4h7v7h-7V359.4z M312.1,359.4h7v7h-7V359.4z M319.4,359.4h7v7h-7V359.4z M326.7,359.4h7v7
	h-7V359.4z M333.9,359.4h7v7h-7V359.4z M341.2,359.4h7v7h-7V359.4z M348.4,359.4h7v7h-7V359.4z M355.7,359.4h7v7h-7V359.4z
	 M363,359.4h7v7h-7V359.4z M370.2,359.4h7v7h-7V359.4z M522.7,359.4h7v7h-7V359.4z M529.9,359.4h7v7h-7V359.4z M537.2,359.4h7v7h-7
	V359.4z M544.5,359.4h7v7h-7V359.4z M551.7,359.4h7v7h-7V359.4z M559,359.4h7v7h-7V359.4z M566.2,359.4h7v7h-7V359.4z M573.5,359.4
	h7v7h-7V359.4z M580.8,359.4h7v7h-7V359.4z M588,359.4h7v7h-7V359.4z M595.3,359.4h7v7h-7V359.4z M602.5,359.4h7v7h-7V359.4z
	 M609.8,359.4h7v7h-7V359.4z M617.1,359.4h7v7h-7V359.4z M624.3,359.4h7v7h-7V359.4z M631.6,359.4h7v7h-7V359.4z M638.8,359.4h7v7
	h-7V359.4z M646.1,359.4h7v7h-7V359.4z M653.4,359.4h7v7h-7V359.4z M660.6,359.4h7v7h-7V359.4z M667.9,359.4h7v7h-7V359.4z
	 M675.1,359.4h7v7h-7V359.4z M682.4,359.4h7v7h-7V359.4z M181.5,366.7h7v7h-7V366.7z M188.7,366.7h7v7h-7V366.7z M225,366.7h7v7h-7
	V366.7z M232.3,366.7h7v7h-7V366.7z M239.5,366.7h7v7h-7V366.7z M246.8,366.7h7v7h-7V366.7z M254.1,366.7h7v7h-7V366.7z
	 M261.3,366.7h7v7h-7V366.7z M268.6,366.7h7v7h-7V366.7z M275.8,366.7h7v7h-7V366.7z M283.1,366.7h7v7h-7V366.7z M290.4,366.7h7v7
	h-7V366.7z M297.6,366.7h7v7h-7V366.7z M304.9,366.7h7v7h-7V366.7z M312.1,366.7h7v7h-7V366.7z M319.4,366.7h7v7h-7V366.7z
	 M326.7,366.7h7v7h-7V366.7z M333.9,366.7h7v7h-7V366.7z M341.2,366.7h7v7h-7V366.7z M348.4,366.7h7v7h-7V366.7z M355.7,366.7h7v7
	h-7V366.7z M363,366.7h7v7h-7V366.7z M370.2,366.7h7v7h-7V366.7z M515.4,366.7h7v7h-7V366.7z M522.7,366.7h7v7h-7V366.7z
	 M529.9,366.7h7v7h-7V366.7z M537.2,366.7h7v7h-7V366.7z M544.5,366.7h7v7h-7V366.7z M551.7,366.7h7v7h-7V366.7z M559,366.7h7v7h-7
	V366.7z M566.2,366.7h7v7h-7V366.7z M573.5,366.7h7v7h-7V366.7z M580.8,366.7h7v7h-7V366.7z M588,366.7h7v7h-7V366.7z M595.3,366.7
	h7v7h-7V366.7z M602.5,366.7h7v7h-7V366.7z M609.8,366.7h7v7h-7V366.7z M617.1,366.7h7v7h-7V366.7z M624.3,366.7h7v7h-7V366.7z
	 M631.6,366.7h7v7h-7V366.7z M638.8,366.7h7v7h-7V366.7z M646.1,366.7h7v7h-7V366.7z M653.4,366.7h7v7h-7V366.7z M660.6,366.7h7v7
	h-7V366.7z M667.9,366.7h7v7h-7V366.7z M675.1,366.7h7v7h-7V366.7z M682.4,366.7h7v7h-7V366.7z M188.7,374h7v7h-7V374z M196,374h7v7
	h-7V374z M225,374h7v7h-7V374z M232.3,374h7v7h-7V374z M239.5,374h7v7h-7V374z M246.8,374h7v7h-7V374z M254.1,374h7v7h-7V374z
	 M261.3,374h7v7h-7V374z M268.6,374h7v7h-7V374z M275.8,374h7v7h-7V374z M283.1,374h7v7h-7V374z M290.4,374h7v7h-7V374z M297.6,374
	h7v7h-7V374z M304.9,374h7v7h-7V374z M312.1,374h7v7h-7V374z M319.4,374h7v7h-7V374z M326.7,374h7v7h-7V374z M333.9,374h7v7h-7V374z
	 M341.2,374h7v7h-7V374z M348.4,374h7v7h-7V374z M355.7,374h7v7h-7V374z M363,374h7v7h-7V374z M370.2,374h7v7h-7V374z M471.9,374h7
	v7h-7V374z M508.2,374h7v7h-7V374z M515.4,374h7v7h-7V374z M522.7,374h7v7h-7V374z M529.9,374h7v7h-7V374z M537.2,374h7v7h-7V374z
	 M544.5,374h7v7h-7V374z M551.7,374h7v7h-7V374z M559,374h7v7h-7V374z M566.2,374h7v7h-7V374z M573.5,374h7v7h-7V374z M580.8,374h7
	v7h-7V374z M588,374h7v7h-7V374z M595.3,374h7v7h-7V374z M602.5,374h7v7h-7V374z M609.8,374h7v7h-7V374z M617.1,374h7v7h-7V374z
	 M624.3,374h7v7h-7V374z M631.6,374h7v7h-7V374z M638.8,374h7v7h-7V374z M646.1,374h7v7h-7V374z M653.4,374h7v7h-7V374z M660.6,374
	h7v7h-7V374z M667.9,374h7v7h-7V374z M675.1,374h7v7h-7V374z M682.4,374h7v7h-7V374z M188.7,381.2h7v7h-7V381.2z M196,381.2h7v7h-7
	V381.2z M217.8,381.2h7v7h-7V381.2z M225,381.2h7v7h-7V381.2z M232.3,381.2h7v7h-7V381.2z M239.5,381.2h7v7h-7V381.2z M246.8,381.2
	h7v7h-7V381.2z M254.1,381.2h7v7h-7V381.2z M261.3,381.2h7v7h-7V381.2z M268.6,381.2h7v7h-7V381.2z M275.8,381.2h7v7h-7V381.2z
	 M283.1,381.2h7v7h-7V381.2z M290.4,381.2h7v7h-7V381.2z M297.6,381.2h7v7h-7V381.2z M304.9,381.2h7v7h-7V381.2z M312.1,381.2h7v7
	h-7V381.2z M319.4,381.2h7v7h-7V381.2z M326.7,381.2h7v7h-7V381.2z M333.9,381.2h7v7h-7V381.2z M341.2,381.2h7v7h-7V381.2z
	 M348.4,381.2h7v7h-7V381.2z M355.7,381.2h7v7h-7V381.2z M363,381.2h7v7h-7V381.2z M370.2,381.2h7v7h-7V381.2z M464.6,381.2h7v7h-7
	V381.2z M471.9,381.2h7v7h-7V381.2z M500.9,381.2h7v7h-7V381.2z M508.2,381.2h7v7h-7V381.2z M515.4,381.2h7v7h-7V381.2z
	 M522.7,381.2h7v7h-7V381.2z M529.9,381.2h7v7h-7V381.2z M537.2,381.2h7v7h-7V381.2z M544.5,381.2h7v7h-7V381.2z M551.7,381.2h7v7
	h-7V381.2z M559,381.2h7v7h-7V381.2z M566.2,381.2h7v7h-7V381.2z M573.5,381.2h7v7h-7V381.2z M580.8,381.2h7v7h-7V381.2z M588,381.2
	h7v7h-7V381.2z M595.3,381.2h7v7h-7V381.2z M602.5,381.2h7v7h-7V381.2z M609.8,381.2h7v7h-7V381.2z M617.1,381.2h7v7h-7V381.2z
	 M624.3,381.2h7v7h-7V381.2z M631.6,381.2h7v7h-7V381.2z M638.8,381.2h7v7h-7V381.2z M646.1,381.2h7v7h-7V381.2z M653.4,381.2h7v7
	h-7V381.2z M660.6,381.2h7v7h-7V381.2z M667.9,381.2h7v7h-7V381.2z M675.1,381.2h7v7h-7V381.2z M188.7,388.5h7v7h-7V388.5z
	 M196,388.5h7v7h-7V388.5z M217.8,388.5h7v7h-7V388.5z M225,388.5h7v7h-7V388.5z M232.3,388.5h7v7h-7V388.5z M239.5,388.5h7v7h-7
	V388.5z M246.8,388.5h7v7h-7V388.5z M254.1,388.5h7v7h-7V388.5z M261.3,388.5h7v7h-7V388.5z M268.6,388.5h7v7h-7V388.5z
	 M275.8,388.5h7v7h-7V388.5z M283.1,388.5h7v7h-7V388.5z M290.4,388.5h7v7h-7V388.5z M297.6,388.5h7v7h-7V388.5z M304.9,388.5h7v7
	h-7V388.5z M312.1,388.5h7v7h-7V388.5z M319.4,388.5h7v7h-7V388.5z M326.7,388.5h7v7h-7V388.5z M333.9,388.5h7v7h-7V388.5z
	 M341.2,388.5h7v7h-7V388.5z M348.4,388.5h7v7h-7V388.5z M355.7,388.5h7v7h-7V388.5z M363,388.5h7v7h-7V388.5z M370.2,388.5h7v7h-7
	V388.5z M377.5,388.5h7v7h-7V388.5z M457.3,388.5h7v7h-7V388.5z M500.9,388.5h7v7h-7V388.5z M508.2,388.5h7v7h-7V388.5z
	 M515.4,388.5h7v7h-7V388.5z M522.7,388.5h7v7h-7V388.5z M529.9,388.5h7v7h-7V388.5z M537.2,388.5h7v7h-7V388.5z M544.5,388.5h7v7
	h-7V388.5z M551.7,388.5h7v7h-7V388.5z M559,388.5h7v7h-7V388.5z M566.2,388.5h7v7h-7V388.5z M573.5,388.5h7v7h-7V388.5z
	 M580.8,388.5h7v7h-7V388.5z M588,388.5h7v7h-7V388.5z M595.3,388.5h7v7h-7V388.5z M602.5,388.5h7v7h-7V388.5z M609.8,388.5h7v7h-7
	V388.5z M617.1,388.5h7v7h-7V388.5z M624.3,388.5h7v7h-7V388.5z M631.6,388.5h7v7h-7V388.5z M638.8,388.5h7v7h-7V388.5z
	 M646.1,388.5h7v7h-7V388.5z M653.4,388.5h7v7h-7V388.5z M660.6,388.5h7v7h-7V388.5z M667.9,388.5h7v7h-7V388.5z M675.1,388.5h7v7
	h-7V388.5z M196,395.7h7v7h-7V395.7z M203.2,395.7h7v7h-7V395.7z M217.8,395.7h7v7h-7V395.7z M225,395.7h7v7h-7V395.7z M232.3,395.7
	h7v7h-7V395.7z M239.5,395.7h7v7h-7V395.7z M246.8,395.7h7v7h-7V395.7z M254.1,395.7h7v7h-7V395.7z M261.3,395.7h7v7h-7V395.7z
	 M268.6,395.7h7v7h-7V395.7z M275.8,395.7h7v7h-7V395.7z M283.1,395.7h7v7h-7V395.7z M290.4,395.7h7v7h-7V395.7z M297.6,395.7h7v7
	h-7V395.7z M304.9,395.7h7v7h-7V395.7z M312.1,395.7h7v7h-7V395.7z M319.4,395.7h7v7h-7V395.7z M326.7,395.7h7v7h-7V395.7z
	 M333.9,395.7h7v7h-7V395.7z M341.2,395.7h7v7h-7V395.7z M348.4,395.7h7v7h-7V395.7z M355.7,395.7h7v7h-7V395.7z M363,395.7h7v7h-7
	V395.7z M370.2,395.7h7v7h-7V395.7z M377.5,395.7h7v7h-7V395.7z M457.3,395.7h7v7h-7V395.7z M500.9,395.7h7v7h-7V395.7z
	 M508.2,395.7h7v7h-7V395.7z M515.4,395.7h7v7h-7V395.7z M522.7,395.7h7v7h-7V395.7z M529.9,395.7h7v7h-7V395.7z M537.2,395.7h7v7
	h-7V395.7z M544.5,395.7h7v7h-7V395.7z M551.7,395.7h7v7h-7V395.7z M559,395.7h7v7h-7V395.7z M566.2,395.7h7v7h-7V395.7z
	 M573.5,395.7h7v7h-7V395.7z M580.8,395.7h7v7h-7V395.7z M588,395.7h7v7h-7V395.7z M595.3,395.7h7v7h-7V395.7z M602.5,395.7h7v7h-7
	V395.7z M609.8,395.7h7v7h-7V395.7z M617.1,395.7h7v7h-7V395.7z M624.3,395.7h7v7h-7V395.7z M631.6,395.7h7v7h-7V395.7z
	 M638.8,395.7h7v7h-7V395.7z M646.1,395.7h7v7h-7V395.7z M653.4,395.7h7v7h-7V395.7z M660.6,395.7h7v7h-7V395.7z M667.9,395.7h7v7
	h-7V395.7z M675.1,395.7h7v7h-7V395.7z M196,403h7v7h-7V403z M203.2,403h7v7h-7V403z M225,403h7v7h-7V403z M232.3,403h7v7h-7V403z
	 M239.5,403h7v7h-7V403z M246.8,403h7v7h-7V403z M254.1,403h7v7h-7V403z M261.3,403h7v7h-7V403z M268.6,403h7v7h-7V403z M275.8,403
	h7v7h-7V403z M283.1,403h7v7h-7V403z M290.4,403h7v7h-7V403z M297.6,403h7v7h-7V403z M304.9,403h7v7h-7V403z M312.1,403h7v7h-7V403z
	 M319.4,403h7v7h-7V403z M326.7,403h7v7h-7V403z M333.9,403h7v7h-7V403z M341.2,403h7v7h-7V403z M348.4,403h7v7h-7V403z M355.7,403
	h7v7h-7V403z M363,403h7v7h-7V403z M370.2,403h7v7h-7V403z M377.5,403h7v7h-7V403z M384.7,403h7v7h-7V403z M457.3,403h7v7h-7V403z
	 M500.9,403h7v7h-7V403z M508.2,403h7v7h-7V403z M515.4,403h7v7h-7V403z M522.7,403h7v7h-7V403z M529.9,403h7v7h-7V403z M537.2,403
	h7v7h-7V403z M544.5,403h7v7h-7V403z M551.7,403h7v7h-7V403z M559,403h7v7h-7V403z M566.2,403h7v7h-7V403z M573.5,403h7v7h-7V403z
	 M580.8,403h7v7h-7V403z M588,403h7v7h-7V403z M595.3,403h7v7h-7V403z M602.5,403h7v7h-7V403z M609.8,403h7v7h-7V403z M617.1,403h7
	v7h-7V403z M624.3,403h7v7h-7V403z M631.6,403h7v7h-7V403z M638.8,403h7v7h-7V403z M646.1,403h7v7h-7V403z M653.4,403h7v7h-7V403z
	 M660.6,403h7v7h-7V403z M667.9,403h7v7h-7V403z M203.2,410.2h7v7h-7V410.2z M210.5,410.2h7v7h-7V410.2z M225,410.2h7v7h-7V410.2z
	 M232.3,410.2h7v7h-7V410.2z M239.5,410.2h7v7h-7V410.2z M246.8,410.2h7v7h-7V410.2z M254.1,410.2h7v7h-7V410.2z M261.3,410.2h7v7
	h-7V410.2z M268.6,410.2h7v7h-7V410.2z M275.8,410.2h7v7h-7V410.2z M283.1,410.2h7v7h-7V410.2z M290.4,410.2h7v7h-7V410.2z
	 M297.6,410.2h7v7h-7V410.2z M304.9,410.2h7v7h-7V410.2z M312.1,410.2h7v7h-7V410.2z M319.4,410.2h7v7h-7V410.2z M326.7,410.2h7v7
	h-7V410.2z M333.9,410.2h7v7h-7V410.2z M341.2,410.2h7v7h-7V410.2z M348.4,410.2h7v7h-7V410.2z M355.7,410.2h7v7h-7V410.2z
	 M363,410.2h7v7h-7V410.2z M370.2,410.2h7v7h-7V410.2z M377.5,410.2h7v7h-7V410.2z M384.7,410.2h7v7h-7V410.2z M500.9,410.2h7v7h-7
	V410.2z M508.2,410.2h7v7h-7V410.2z M515.4,410.2h7v7h-7V410.2z M522.7,410.2h7v7h-7V410.2z M529.9,410.2h7v7h-7V410.2z
	 M537.2,410.2h7v7h-7V410.2z M544.5,410.2h7v7h-7V410.2z M551.7,410.2h7v7h-7V410.2z M559,410.2h7v7h-7V410.2z M566.2,410.2h7v7h-7
	V410.2z M573.5,410.2h7v7h-7V410.2z M580.8,410.2h7v7h-7V410.2z M588,410.2h7v7h-7V410.2z M595.3,410.2h7v7h-7V410.2z M602.5,410.2
	h7v7h-7V410.2z M609.8,410.2h7v7h-7V410.2z M617.1,410.2h7v7h-7V410.2z M624.3,410.2h7v7h-7V410.2z M631.6,410.2h7v7h-7V410.2z
	 M638.8,410.2h7v7h-7V410.2z M646.1,410.2h7v7h-7V410.2z M653.4,410.2h7v7h-7V410.2z M660.6,410.2h7v7h-7V410.2z M667.9,410.2h7v7
	h-7V410.2z M203.2,417.5h7v7h-7V417.5z M210.5,417.5h7v7h-7V417.5z M225,417.5h7v7h-7V417.5z M232.3,417.5h7v7h-7V417.5z
	 M239.5,417.5h7v7h-7V417.5z M246.8,417.5h7v7h-7V417.5z M254.1,417.5h7v7h-7V417.5z M261.3,417.5h7v7h-7V417.5z M268.6,417.5h7v7
	h-7V417.5z M275.8,417.5h7v7h-7V417.5z M283.1,417.5h7v7h-7V417.5z M290.4,417.5h7v7h-7V417.5z M297.6,417.5h7v7h-7V417.5z
	 M304.9,417.5h7v7h-7V417.5z M312.1,417.5h7v7h-7V417.5z M319.4,417.5h7v7h-7V417.5z M326.7,417.5h7v7h-7V417.5z M333.9,417.5h7v7
	h-7V417.5z M341.2,417.5h7v7h-7V417.5z M348.4,417.5h7v7h-7V417.5z M355.7,417.5h7v7h-7V417.5z M363,417.5h7v7h-7V417.5z
	 M370.2,417.5h7v7h-7V417.5z M377.5,417.5h7v7h-7V417.5z M384.7,417.5h7v7h-7V417.5z M479.1,417.5h7v7h-7V417.5z M500.9,417.5h7v7
	h-7V417.5z M508.2,417.5h7v7h-7V417.5z M515.4,417.5h7v7h-7V417.5z M522.7,417.5h7v7h-7V417.5z M529.9,417.5h7v7h-7V417.5z
	 M537.2,417.5h7v7h-7V417.5z M544.5,417.5h7v7h-7V417.5z M551.7,417.5h7v7h-7V417.5z M559,417.5h7v7h-7V417.5z M566.2,417.5h7v7h-7
	V417.5z M573.5,417.5h7v7h-7V417.5z M580.8,417.5h7v7h-7V417.5z M588,417.5h7v7h-7V417.5z M595.3,417.5h7v7h-7V417.5z M602.5,417.5
	h7v7h-7V417.5z M609.8,417.5h7v7h-7V417.5z M617.1,417.5h7v7h-7V417.5z M624.3,417.5h7v7h-7V417.5z M631.6,417.5h7v7h-7V417.5z
	 M638.8,417.5h7v7h-7V417.5z M646.1,417.5h7v7h-7V417.5z M653.4,417.5h7v7h-7V417.5z M660.6,417.5h7v7h-7V417.5z M203.2,424.8h7v7
	h-7V424.8z M210.5,424.8h7v7h-7V424.8z M217.8,424.8h7v7h-7V424.8z M225,424.8h7v7h-7V424.8z M232.3,424.8h7v7h-7V424.8z
	 M239.5,424.8h7v7h-7V424.8z M246.8,424.8h7v7h-7V424.8z M254.1,424.8h7v7h-7V424.8z M261.3,424.8h7v7h-7V424.8z M268.6,424.8h7v7
	h-7V424.8z M275.8,424.8h7v7h-7V424.8z M283.1,424.8h7v7h-7V424.8z M290.4,424.8h7v7h-7V424.8z M297.6,424.8h7v7h-7V424.8z
	 M304.9,424.8h7v7h-7V424.8z M312.1,424.8h7v7h-7V424.8z M319.4,424.8h7v7h-7V424.8z M326.7,424.8h7v7h-7V424.8z M333.9,424.8h7v7
	h-7V424.8z M341.2,424.8h7v7h-7V424.8z M348.4,424.8h7v7h-7V424.8z M355.7,424.8h7v7h-7V424.8z M363,424.8h7v7h-7V424.8z
	 M370.2,424.8h7v7h-7V424.8z M377.5,424.8h7v7h-7V424.8z M384.7,424.8h7v7h-7V424.8z M479.1,424.8h7v7h-7V424.8z M500.9,424.8h7v7
	h-7V424.8z M508.2,424.8h7v7h-7V424.8z M515.4,424.8h7v7h-7V424.8z M522.7,424.8h7v7h-7V424.8z M529.9,424.8h7v7h-7V424.8z
	 M537.2,424.8h7v7h-7V424.8z M544.5,424.8h7v7h-7V424.8z M551.7,424.8h7v7h-7V424.8z M559,424.8h7v7h-7V424.8z M566.2,424.8h7v7h-7
	V424.8z M573.5,424.8h7v7h-7V424.8z M580.8,424.8h7v7h-7V424.8z M588,424.8h7v7h-7V424.8z M595.3,424.8h7v7h-7V424.8z M602.5,424.8
	h7v7h-7V424.8z M609.8,424.8h7v7h-7V424.8z M617.1,424.8h7v7h-7V424.8z M624.3,424.8h7v7h-7V424.8z M631.6,424.8h7v7h-7V424.8z
	 M638.8,424.8h7v7h-7V424.8z M646.1,424.8h7v7h-7V424.8z M653.4,424.8h7v7h-7V424.8z M660.6,424.8h7v7h-7V424.8z M210.5,432h7v7h-7
	V432z M217.8,432h7v7h-7V432z M225,432h7v7h-7V432z M232.3,432h7v7h-7V432z M239.5,432h7v7h-7V432z M246.8,432h7v7h-7V432z
	 M254.1,432h7v7h-7V432z M261.3,432h7v7h-7V432z M268.6,432h7v7h-7V432z M275.8,432h7v7h-7V432z M283.1,432h7v7h-7V432z M290.4,432
	h7v7h-7V432z M297.6,432h7v7h-7V432z M304.9,432h7v7h-7V432z M312.1,432h7v7h-7V432z M319.4,432h7v7h-7V432z M326.7,432h7v7h-7V432z
	 M333.9,432h7v7h-7V432z M341.2,432h7v7h-7V432z M348.4,432h7v7h-7V432z M355.7,432h7v7h-7V432z M363,432h7v7h-7V432z M370.2,432h7
	v7h-7V432z M377.5,432h7v7h-7V432z M384.7,432h7v7h-7V432z M500.9,432h7v7h-7V432z M508.2,432h7v7h-7V432z M515.4,432h7v7h-7V432z
	 M537.2,432h7v7h-7V432z M544.5,432h7v7h-7V432z M551.7,432h7v7h-7V432z M559,432h7v7h-7V432z M566.2,432h7v7h-7V432z M573.5,432h7
	v7h-7V432z M580.8,432h7v7h-7V432z M588,432h7v7h-7V432z M595.3,432h7v7h-7V432z M602.5,432h7v7h-7V432z M609.8,432h7v7h-7V432z
	 M617.1,432h7v7h-7V432z M624.3,432h7v7h-7V432z M631.6,432h7v7h-7V432z M638.8,432h7v7h-7V432z M646.1,432h7v7h-7V432z M653.4,432
	h7v7h-7V432z M217.8,439.3h7v7h-7V439.3z M225,439.3h7v7h-7V439.3z M232.3,439.3h7v7h-7V439.3z M239.5,439.3h7v7h-7V439.3z
	 M246.8,439.3h7v7h-7V439.3z M254.1,439.3h7v7h-7V439.3z M261.3,439.3h7v7h-7V439.3z M268.6,439.3h7v7h-7V439.3z M275.8,439.3h7v7
	h-7V439.3z M283.1,439.3h7v7h-7V439.3z M290.4,439.3h7v7h-7V439.3z M297.6,439.3h7v7h-7V439.3z M304.9,439.3h7v7h-7V439.3z
	 M312.1,439.3h7v7h-7V439.3z M319.4,439.3h7v7h-7V439.3z M326.7,439.3h7v7h-7V439.3z M333.9,439.3h7v7h-7V439.3z M341.2,439.3h7v7
	h-7V439.3z M348.4,439.3h7v7h-7V439.3z M355.7,439.3h7v7h-7V439.3z M363,439.3h7v7h-7V439.3z M370.2,439.3h7v7h-7V439.3z
	 M377.5,439.3h7v7h-7V439.3z M486.4,439.3h7v7h-7V439.3z M493.6,439.3h7v7h-7V439.3z M500.9,439.3h7v7h-7V439.3z M508.2,439.3h7v7
	h-7V439.3z M537.2,439.3h7v7h-7V439.3z M544.5,439.3h7v7h-7V439.3z M551.7,439.3h7v7h-7V439.3z M559,439.3h7v7h-7V439.3z
	 M566.2,439.3h7v7h-7V439.3z M573.5,439.3h7v7h-7V439.3z M580.8,439.3h7v7h-7V439.3z M588,439.3h7v7h-7V439.3z M595.3,439.3h7v7h-7
	V439.3z M602.5,439.3h7v7h-7V439.3z M609.8,439.3h7v7h-7V439.3z M617.1,439.3h7v7h-7V439.3z M624.3,439.3h7v7h-7V439.3z
	 M631.6,439.3h7v7h-7V439.3z M638.8,439.3h7v7h-7V439.3z M646.1,439.3h7v7h-7V439.3z M217.8,446.6h7v7h-7V446.6z M225,446.6h7v7h-7
	V446.6z M232.3,446.6h7v7h-7V446.6z M239.5,446.6h7v7h-7V446.6z M246.8,446.6h7v7h-7V446.6z M254.1,446.6h7v7h-7V446.6z
	 M261.3,446.6h7v7h-7V446.6z M268.6,446.6h7v7h-7V446.6z M275.8,446.6h7v7h-7V446.6z M283.1,446.6h7v7h-7V446.6z M290.4,446.6h7v7
	h-7V446.6z M297.6,446.6h7v7h-7V446.6z M304.9,446.6h7v7h-7V446.6z M312.1,446.6h7v7h-7V446.6z M319.4,446.6h7v7h-7V446.6z
	 M326.7,446.6h7v7h-7V446.6z M333.9,446.6h7v7h-7V446.6z M341.2,446.6h7v7h-7V446.6z M348.4,446.6h7v7h-7V446.6z M355.7,446.6h7v7
	h-7V446.6z M363,446.6h7v7h-7V446.6z M370.2,446.6h7v7h-7V446.6z M377.5,446.6h7v7h-7V446.6z M384.7,446.6h7v7h-7V446.6z
	 M479.1,446.6h7v7h-7V446.6z M486.4,446.6h7v7h-7V446.6z M493.6,446.6h7v7h-7V446.6z M500.9,446.6h7v7h-7V446.6z M508.2,446.6h7v7
	h-7V446.6z M529.9,446.6h7v7h-7V446.6z M537.2,446.6h7v7h-7V446.6z M544.5,446.6h7v7h-7V446.6z M551.7,446.6h7v7h-7V446.6z
	 M559,446.6h7v7h-7V446.6z M566.2,446.6h7v7h-7V446.6z M573.5,446.6h7v7h-7V446.6z M580.8,446.6h7v7h-7V446.6z M588,446.6h7v7h-7
	V446.6z M595.3,446.6h7v7h-7V446.6z M602.5,446.6h7v7h-7V446.6z M609.8,446.6h7v7h-7V446.6z M617.1,446.6h7v7h-7V446.6z
	 M624.3,446.6h7v7h-7V446.6z M631.6,446.6h7v7h-7V446.6z M638.8,446.6h7v7h-7V446.6z M646.1,446.6h7v7h-7V446.6z M225,453.8h7v7h-7
	V453.8z M232.3,453.8h7v7h-7V453.8z M239.5,453.8h7v7h-7V453.8z M246.8,453.8h7v7h-7V453.8z M254.1,453.8h7v7h-7V453.8z
	 M261.3,453.8h7v7h-7V453.8z M268.6,453.8h7v7h-7V453.8z M275.8,453.8h7v7h-7V453.8z M283.1,453.8h7v7h-7V453.8z M290.4,453.8h7v7
	h-7V453.8z M297.6,453.8h7v7h-7V453.8z M304.9,453.8h7v7h-7V453.8z M312.1,453.8h7v7h-7V453.8z M319.4,453.8h7v7h-7V453.8z
	 M326.7,453.8h7v7h-7V453.8z M333.9,453.8h7v7h-7V453.8z M341.2,453.8h7v7h-7V453.8z M348.4,453.8h7v7h-7V453.8z M355.7,453.8h7v7
	h-7V453.8z M363,453.8h7v7h-7V453.8z M370.2,453.8h7v7h-7V453.8z M377.5,453.8h7v7h-7V453.8z M384.7,453.8h7v7h-7V453.8z M392,453.8
	h7v7h-7V453.8z M479.1,453.8h7v7h-7V453.8z M486.4,453.8h7v7h-7V453.8z M493.6,453.8h7v7h-7V453.8z M500.9,453.8h7v7h-7V453.8z
	 M508.2,453.8h7v7h-7V453.8z M529.9,453.8h7v7h-7V453.8z M537.2,453.8h7v7h-7V453.8z M544.5,453.8h7v7h-7V453.8z M551.7,453.8h7v7
	h-7V453.8z M559,453.8h7v7h-7V453.8z M566.2,453.8h7v7h-7V453.8z M573.5,453.8h7v7h-7V453.8z M580.8,453.8h7v7h-7V453.8z M588,453.8
	h7v7h-7V453.8z M595.3,453.8h7v7h-7V453.8z M602.5,453.8h7v7h-7V453.8z M609.8,453.8h7v7h-7V453.8z M617.1,453.8h7v7h-7V453.8z
	 M624.3,453.8h7v7h-7V453.8z M631.6,453.8h7v7h-7V453.8z M638.8,453.8h7v7h-7V453.8z M232.3,461.1h7v7h-7V461.1z M239.5,461.1h7v7
	h-7V461.1z M246.8,461.1h7v7h-7V461.1z M254.1,461.1h7v7h-7V461.1z M261.3,461.1h7v7h-7V461.1z M268.6,461.1h7v7h-7V461.1z
	 M275.8,461.1h7v7h-7V461.1z M283.1,461.1h7v7h-7V461.1z M290.4,461.1h7v7h-7V461.1z M297.6,461.1h7v7h-7V461.1z M304.9,461.1h7v7
	h-7V461.1z M312.1,461.1h7v7h-7V461.1z M319.4,461.1h7v7h-7V461.1z M326.7,461.1h7v7h-7V461.1z M333.9,461.1h7v7h-7V461.1z
	 M341.2,461.1h7v7h-7V461.1z M348.4,461.1h7v7h-7V461.1z M355.7,461.1h7v7h-7V461.1z M363,461.1h7v7h-7V461.1z M370.2,461.1h7v7h-7
	V461.1z M377.5,461.1h7v7h-7V461.1z M384.7,461.1h7v7h-7V461.1z M392,461.1h7v7h-7V461.1z M479.1,461.1h7v7h-7V461.1z M486.4,461.1
	h7v7h-7V461.1z M493.6,461.1h7v7h-7V461.1z M500.9,461.1h7v7h-7V461.1z M508.2,461.1h7v7h-7V461.1z M522.7,461.1h7v7h-7V461.1z
	 M529.9,461.1h7v7h-7V461.1z M537.2,461.1h7v7h-7V461.1z M544.5,461.1h7v7h-7V461.1z M551.7,461.1h7v7h-7V461.1z M559,461.1h7v7h-7
	V461.1z M566.2,461.1h7v7h-7V461.1z M573.5,461.1h7v7h-7V461.1z M580.8,461.1h7v7h-7V461.1z M588,461.1h7v7h-7V461.1z M595.3,461.1
	h7v7h-7V461.1z M602.5,461.1h7v7h-7V461.1z M609.8,461.1h7v7h-7V461.1z M617.1,461.1h7v7h-7V461.1z M624.3,461.1h7v7h-7V461.1z
	 M631.6,461.1h7v7h-7V461.1z M232.3,468.3h7v7h-7V468.3z M239.5,468.3h7v7h-7V468.3z M246.8,468.3h7v7h-7V468.3z M254.1,468.3h7v7
	h-7V468.3z M261.3,468.3h7v7h-7V468.3z M268.6,468.3h7v7h-7V468.3z M275.8,468.3h7v7h-7V468.3z M283.1,468.3h7v7h-7V468.3z
	 M290.4,468.3h7v7h-7V468.3z M297.6,468.3h7v7h-7V468.3z M304.9,468.3h7v7h-7V468.3z M312.1,468.3h7v7h-7V468.3z M319.4,468.3h7v7
	h-7V468.3z M326.7,468.3h7v7h-7V468.3z M333.9,468.3h7v7h-7V468.3z M341.2,468.3h7v7h-7V468.3z M348.4,468.3h7v7h-7V468.3z
	 M355.7,468.3h7v7h-7V468.3z M363,468.3h7v7h-7V468.3z M370.2,468.3h7v7h-7V468.3z M377.5,468.3h7v7h-7V468.3z M384.7,468.3h7v7h-7
	V468.3z M392,468.3h7v7h-7V468.3z M471.9,468.3h7v7h-7V468.3z M479.1,468.3h7v7h-7V468.3z M486.4,468.3h7v7h-7V468.3z M493.6,468.3
	h7v7h-7V468.3z M500.9,468.3h7v7h-7V468.3z M508.2,468.3h7v7h-7V468.3z M515.4,468.3h7v7h-7V468.3z M522.7,468.3h7v7h-7V468.3z
	 M529.9,468.3h7v7h-7V468.3z M537.2,468.3h7v7h-7V468.3z M544.5,468.3h7v7h-7V468.3z M551.7,468.3h7v7h-7V468.3z M559,468.3h7v7h-7
	V468.3z M566.2,468.3h7v7h-7V468.3z M573.5,468.3h7v7h-7V468.3z M580.8,468.3h7v7h-7V468.3z M588,468.3h7v7h-7V468.3z M595.3,468.3
	h7v7h-7V468.3z M602.5,468.3h7v7h-7V468.3z M609.8,468.3h7v7h-7V468.3z M617.1,468.3h7v7h-7V468.3z M624.3,468.3h7v7h-7V468.3z
	 M239.5,475.6h7v7h-7V475.6z M246.8,475.6h7v7h-7V475.6z M254.1,475.6h7v7h-7V475.6z M261.3,475.6h7v7h-7V475.6z M268.6,475.6h7v7
	h-7V475.6z M275.8,475.6h7v7h-7V475.6z M283.1,475.6h7v7h-7V475.6z M290.4,475.6h7v7h-7V475.6z M297.6,475.6h7v7h-7V475.6z
	 M304.9,475.6h7v7h-7V475.6z M312.1,475.6h7v7h-7V475.6z M319.4,475.6h7v7h-7V475.6z M326.7,475.6h7v7h-7V475.6z M333.9,475.6h7v7
	h-7V475.6z M341.2,475.6h7v7h-7V475.6z M348.4,475.6h7v7h-7V475.6z M355.7,475.6h7v7h-7V475.6z M363,475.6h7v7h-7V475.6z
	 M370.2,475.6h7v7h-7V475.6z M377.5,475.6h7v7h-7V475.6z M384.7,475.6h7v7h-7V475.6z M392,475.6h7v7h-7V475.6z M399.3,475.6h7v7h-7
	V475.6z M464.6,475.6h7v7h-7V475.6z M471.9,475.6h7v7h-7V475.6z M479.1,475.6h7v7h-7V475.6z M486.4,475.6h7v7h-7V475.6z
	 M493.6,475.6h7v7h-7V475.6z M500.9,475.6h7v7h-7V475.6z M508.2,475.6h7v7h-7V475.6z M515.4,475.6h7v7h-7V475.6z M522.7,475.6h7v7
	h-7V475.6z M529.9,475.6h7v7h-7V475.6z M537.2,475.6h7v7h-7V475.6z M544.5,475.6h7v7h-7V475.6z M551.7,475.6h7v7h-7V475.6z
	 M559,475.6h7v7h-7V475.6z M566.2,475.6h7v7h-7V475.6z M573.5,475.6h7v7h-7V475.6z M580.8,475.6h7v7h-7V475.6z M588,475.6h7v7h-7
	V475.6z M595.3,475.6h7v7h-7V475.6z M602.5,475.6h7v7h-7V475.6z M609.8,475.6h7v7h-7V475.6z M617.1,475.6h7v7h-7V475.6z
	 M624.3,475.6h7v7h-7V475.6z M246.8,482.8h7v7h-7V482.8z M254.1,482.8h7v7h-7V482.8z M261.3,482.8h7v7h-7V482.8z M268.6,482.8h7v7
	h-7V482.8z M275.8,482.8h7v7h-7V482.8z M283.1,482.8h7v7h-7V482.8z M290.4,482.8h7v7h-7V482.8z M297.6,482.8h7v7h-7V482.8z
	 M304.9,482.8h7v7h-7V482.8z M312.1,482.8h7v7h-7V482.8z M319.4,482.8h7v7h-7V482.8z M326.7,482.8h7v7h-7V482.8z M333.9,482.8h7v7
	h-7V482.8z M341.2,482.8h7v7h-7V482.8z M348.4,482.8h7v7h-7V482.8z M355.7,482.8h7v7h-7V482.8z M363,482.8h7v7h-7V482.8z
	 M370.2,482.8h7v7h-7V482.8z M377.5,482.8h7v7h-7V482.8z M384.7,482.8h7v7h-7V482.8z M392,482.8h7v7h-7V482.8z M399.3,482.8h7v7h-7
	V482.8z M406.5,482.8h7v7h-7V482.8z M457.3,482.8h7v7h-7V482.8z M464.6,482.8h7v7h-7V482.8z M471.9,482.8h7v7h-7V482.8z
	 M479.1,482.8h7v7h-7V482.8z M486.4,482.8h7v7h-7V482.8z M493.6,482.8h7v7h-7V482.8z M500.9,482.8h7v7h-7V482.8z M508.2,482.8h7v7
	h-7V482.8z M515.4,482.8h7v7h-7V482.8z M522.7,482.8h7v7h-7V482.8z M529.9,482.8h7v7h-7V482.8z M537.2,482.8h7v7h-7V482.8z
	 M544.5,482.8h7v7h-7V482.8z M551.7,482.8h7v7h-7V482.8z M559,482.8h7v7h-7V482.8z M566.2,482.8h7v7h-7V482.8z M573.5,482.8h7v7h-7
	V482.8z M580.8,482.8h7v7h-7V482.8z M588,482.8h7v7h-7V482.8z M595.3,482.8h7v7h-7V482.8z M602.5,482.8h7v7h-7V482.8z M609.8,482.8
	h7v7h-7V482.8z M617.1,482.8h7v7h-7V482.8z M254.1,490.1h7v7h-7V490.1z M261.3,490.1h7v7h-7V490.1z M268.6,490.1h7v7h-7V490.1z
	 M275.8,490.1h7v7h-7V490.1z M283.1,490.1h7v7h-7V490.1z M290.4,490.1h7v7h-7V490.1z M297.6,490.1h7v7h-7V490.1z M304.9,490.1h7v7
	h-7V490.1z M312.1,490.1h7v7h-7V490.1z M319.4,490.1h7v7h-7V490.1z M326.7,490.1h7v7h-7V490.1z M333.9,490.1h7v7h-7V490.1z
	 M341.2,490.1h7v7h-7V490.1z M348.4,490.1h7v7h-7V490.1z M355.7,490.1h7v7h-7V490.1z M363,490.1h7v7h-7V490.1z M370.2,490.1h7v7h-7
	V490.1z M377.5,490.1h7v7h-7V490.1z M384.7,490.1h7v7h-7V490.1z M392,490.1h7v7h-7V490.1z M399.3,490.1h7v7h-7V490.1z M406.5,490.1
	h7v7h-7V490.1z M450.1,490.1h7v7h-7V490.1z M457.3,490.1h7v7h-7V490.1z M464.6,490.1h7v7h-7V490.1z M471.9,490.1h7v7h-7V490.1z
	 M479.1,490.1h7v7h-7V490.1z M486.4,490.1h7v7h-7V490.1z M493.6,490.1h7v7h-7V490.1z M500.9,490.1h7v7h-7V490.1z M508.2,490.1h7v7
	h-7V490.1z M515.4,490.1h7v7h-7V490.1z M522.7,490.1h7v7h-7V490.1z M529.9,490.1h7v7h-7V490.1z M537.2,490.1h7v7h-7V490.1z
	 M544.5,490.1h7v7h-7V490.1z M551.7,490.1h7v7h-7V490.1z M559,490.1h7v7h-7V490.1z M566.2,490.1h7v7h-7V490.1z M573.5,490.1h7v7h-7
	V490.1z M580.8,490.1h7v7h-7V490.1z M588,490.1h7v7h-7V490.1z M595.3,490.1h7v7h-7V490.1z M602.5,490.1h7v7h-7V490.1z M609.8,490.1
	h7v7h-7V490.1z M261.3,497.4h7v7h-7V497.4z M268.6,497.4h7v7h-7V497.4z M275.8,497.4h7v7h-7V497.4z M283.1,497.4h7v7h-7V497.4z
	 M290.4,497.4h7v7h-7V497.4z M297.6,497.4h7v7h-7V497.4z M304.9,497.4h7v7h-7V497.4z M312.1,497.4h7v7h-7V497.4z M319.4,497.4h7v7
	h-7V497.4z M326.7,497.4h7v7h-7V497.4z M333.9,497.4h7v7h-7V497.4z M341.2,497.4h7v7h-7V497.4z M348.4,497.4h7v7h-7V497.4z
	 M355.7,497.4h7v7h-7V497.4z M363,497.4h7v7h-7V497.4z M370.2,497.4h7v7h-7V497.4z M377.5,497.4h7v7h-7V497.4z M384.7,497.4h7v7h-7
	V497.4z M392,497.4h7v7h-7V497.4z M399.3,497.4h7v7h-7V497.4z M406.5,497.4h7v7h-7V497.4z M413.8,497.4h7v7h-7V497.4z M421,497.4h7
	v7h-7V497.4z M428.3,497.4h7v7h-7V497.4z M435.6,497.4h7v7h-7V497.4z M442.8,497.4h7v7h-7V497.4z M450.1,497.4h7v7h-7V497.4z
	 M457.3,497.4h7v7h-7V497.4z M464.6,497.4h7v7h-7V497.4z M471.9,497.4h7v7h-7V497.4z M479.1,497.4h7v7h-7V497.4z M486.4,497.4h7v7
	h-7V497.4z M493.6,497.4h7v7h-7V497.4z M500.9,497.4h7v7h-7V497.4z M508.2,497.4h7v7h-7V497.4z M515.4,497.4h7v7h-7V497.4z
	 M522.7,497.4h7v7h-7V497.4z M529.9,497.4h7v7h-7V497.4z M537.2,497.4h7v7h-7V497.4z M544.5,497.4h7v7h-7V497.4z M551.7,497.4h7v7
	h-7V497.4z M559,497.4h7v7h-7V497.4z M566.2,497.4h7v7h-7V497.4z M573.5,497.4h7v7h-7V497.4z M580.8,497.4h7v7h-7V497.4z M588,497.4
	h7v7h-7V497.4z M595.3,497.4h7v7h-7V497.4z M602.5,497.4h7v7h-7V497.4z M275.8,504.6h7v7h-7V504.6z M283.1,504.6h7v7h-7V504.6z
	 M290.4,504.6h7v7h-7V504.6z M297.6,504.6h7v7h-7V504.6z M304.9,504.6h7v7h-7V504.6z M312.1,504.6h7v7h-7V504.6z M319.4,504.6h7v7
	h-7V504.6z M326.7,504.6h7v7h-7V504.6z M333.9,504.6h7v7h-7V504.6z M341.2,504.6h7v7h-7V504.6z M348.4,504.6h7v7h-7V504.6z
	 M355.7,504.6h7v7h-7V504.6z M363,504.6h7v7h-7V504.6z M370.2,504.6h7v7h-7V504.6z M377.5,504.6h7v7h-7V504.6z M384.7,504.6h7v7h-7
	V504.6z M392,504.6h7v7h-7V504.6z M399.3,504.6h7v7h-7V504.6z M406.5,504.6h7v7h-7V504.6z M413.8,504.6h7v7h-7V504.6z M421,504.6h7
	v7h-7V504.6z M428.3,504.6h7v7h-7V504.6z M435.6,504.6h7v7h-7V504.6z M442.8,504.6h7v7h-7V504.6z M450.1,504.6h7v7h-7V504.6z
	 M457.3,504.6h7v7h-7V504.6z M464.6,504.6h7v7h-7V504.6z M471.9,504.6h7v7h-7V504.6z M479.1,504.6h7v7h-7V504.6z M486.4,504.6h7v7
	h-7V504.6z M493.6,504.6h7v7h-7V504.6z M500.9,504.6h7v7h-7V504.6z M508.2,504.6h7v7h-7V504.6z M515.4,504.6h7v7h-7V504.6z
	 M522.7,504.6h7v7h-7V504.6z M529.9,504.6h7v7h-7V504.6z M537.2,504.6h7v7h-7V504.6z M544.5,504.6h7v7h-7V504.6z M551.7,504.6h7v7
	h-7V504.6z M559,504.6h7v7h-7V504.6z M566.2,504.6h7v7h-7V504.6z M573.5,504.6h7v7h-7V504.6z M580.8,504.6h7v7h-7V504.6z M588,504.6
	h7v7h-7V504.6z M283.1,511.9h7v7h-7V511.9z M290.4,511.9h7v7h-7V511.9z M297.6,511.9h7v7h-7V511.9z M304.9,511.9h7v7h-7V511.9z
	 M312.1,511.9h7v7h-7V511.9z M319.4,511.9h7v7h-7V511.9z M326.7,511.9h7v7h-7V511.9z M333.9,511.9h7v7h-7V511.9z M341.2,511.9h7v7
	h-7V511.9z M348.4,511.9h7v7h-7V511.9z M355.7,511.9h7v7h-7V511.9z M363,511.9h7v7h-7V511.9z M370.2,511.9h7v7h-7V511.9z
	 M377.5,511.9h7v7h-7V511.9z M384.7,511.9h7v7h-7V511.9z M392,511.9h7v7h-7V511.9z M399.3,511.9h7v7h-7V511.9z M406.5,511.9h7v7h-7
	V511.9z M413.8,511.9h7v7h-7V511.9z M421,511.9h7v7h-7V511.9z M428.3,511.9h7v7h-7V511.9z M435.6,511.9h7v7h-7V511.9z M442.8,511.9
	h7v7h-7V511.9z M450.1,511.9h7v7h-7V511.9z M457.3,511.9h7v7h-7V511.9z M464.6,511.9h7v7h-7V511.9z M471.9,511.9h7v7h-7V511.9z
	 M479.1,511.9h7v7h-7V511.9z M486.4,511.9h7v7h-7V511.9z M493.6,511.9h7v7h-7V511.9z M500.9,511.9h7v7h-7V511.9z M508.2,511.9h7v7
	h-7V511.9z M515.4,511.9h7v7h-7V511.9z M522.7,511.9h7v7h-7V511.9z M529.9,511.9h7v7h-7V511.9z M537.2,511.9h7v7h-7V511.9z
	 M544.5,511.9h7v7h-7V511.9z M551.7,511.9h7v7h-7V511.9z M559,511.9h7v7h-7V511.9z M566.2,511.9h7v7h-7V511.9z M573.5,511.9h7v7h-7
	V511.9z M580.8,511.9h7v7h-7V511.9z M297.6,519.1h7v7h-7V519.1z M304.9,519.1h7v7h-7V519.1z M312.1,519.1h7v7h-7V519.1z
	 M319.4,519.1h7v7h-7V519.1z M326.7,519.1h7v7h-7V519.1z M333.9,519.1h7v7h-7V519.1z M341.2,519.1h7v7h-7V519.1z M348.4,519.1h7v7
	h-7V519.1z M355.7,519.1h7v7h-7V519.1z M363,519.1h7v7h-7V519.1z M370.2,519.1h7v7h-7V519.1z M377.5,519.1h7v7h-7V519.1z
	 M384.7,519.1h7v7h-7V519.1z M392,519.1h7v7h-7V519.1z M399.3,519.1h7v7h-7V519.1z M406.5,519.1h7v7h-7V519.1z M413.8,519.1h7v7h-7
	V519.1z M421,519.1h7v7h-7V519.1z M428.3,519.1h7v7h-7V519.1z M435.6,519.1h7v7h-7V519.1z M442.8,519.1h7v7h-7V519.1z M450.1,519.1
	h7v7h-7V519.1z M457.3,519.1h7v7h-7V519.1z M464.6,519.1h7v7h-7V519.1z M471.9,519.1h7v7h-7V519.1z M479.1,519.1h7v7h-7V519.1z
	 M486.4,519.1h7v7h-7V519.1z M493.6,519.1h7v7h-7V519.1z M500.9,519.1h7v7h-7V519.1z M508.2,519.1h7v7h-7V519.1z M515.4,519.1h7v7
	h-7V519.1z M522.7,519.1h7v7h-7V519.1z M529.9,519.1h7v7h-7V519.1z M537.2,519.1h7v7h-7V519.1z M544.5,519.1h7v7h-7V519.1z
	 M551.7,519.1h7v7h-7V519.1z M559,519.1h7v7h-7V519.1z M566.2,519.1h7v7h-7V519.1z M573.5,519.1h7v7h-7V519.1z M304.9,526.4h7v7h-7
	V526.4z M312.1,526.4h7v7h-7V526.4z M319.4,526.4h7v7h-7V526.4z M326.7,526.4h7v7h-7V526.4z M333.9,526.4h7v7h-7V526.4z
	 M341.2,526.4h7v7h-7V526.4z M348.4,526.4h7v7h-7V526.4z M355.7,526.4h7v7h-7V526.4z M363,526.4h7v7h-7V526.4z M370.2,526.4h7v7h-7
	V526.4z M377.5,526.4h7v7h-7V526.4z M384.7,526.4h7v7h-7V526.4z M392,526.4h7v7h-7V526.4z M399.3,526.4h7v7h-7V526.4z M406.5,526.4
	h7v7h-7V526.4z M413.8,526.4h7v7h-7V526.4z M421,526.4h7v7h-7V526.4z M428.3,526.4h7v7h-7V526.4z M435.6,526.4h7v7h-7V526.4z
	 M442.8,526.4h7v7h-7V526.4z M450.1,526.4h7v7h-7V526.4z M457.3,526.4h7v7h-7V526.4z M464.6,526.4h7v7h-7V526.4z M471.9,526.4h7v7
	h-7V526.4z M479.1,526.4h7v7h-7V526.4z M486.4,526.4h7v7h-7V526.4z M493.6,526.4h7v7h-7V526.4z M500.9,526.4h7v7h-7V526.4z
	 M508.2,526.4h7v7h-7V526.4z M515.4,526.4h7v7h-7V526.4z M522.7,526.4h7v7h-7V526.4z M529.9,526.4h7v7h-7V526.4z M537.2,526.4h7v7
	h-7V526.4z M544.5,526.4h7v7h-7V526.4z M551.7,526.4h7v7h-7V526.4z M559,526.4h7v7h-7V526.4z M319.4,533.7h7v7h-7V533.7z
	 M326.7,533.7h7v7h-7V533.7z M333.9,533.7h7v7h-7V533.7z M341.2,533.7h7v7h-7V533.7z M348.4,533.7h7v7h-7V533.7z M355.7,533.7h7v7
	h-7V533.7z M363,533.7h7v7h-7V533.7z M370.2,533.7h7v7h-7V533.7z M377.5,533.7h7v7h-7V533.7z M384.7,533.7h7v7h-7V533.7z M392,533.7
	h7v7h-7V533.7z M399.3,533.7h7v7h-7V533.7z M406.5,533.7h7v7h-7V533.7z M413.8,533.7h7v7h-7V533.7z M421,533.7h7v7h-7V533.7z
	 M428.3,533.7h7v7h-7V533.7z M435.6,533.7h7v7h-7V533.7z M442.8,533.7h7v7h-7V533.7z M450.1,533.7h7v7h-7V533.7z M457.3,533.7h7v7
	h-7V533.7z M464.6,533.7h7v7h-7V533.7z M471.9,533.7h7v7h-7V533.7z M479.1,533.7h7v7h-7V533.7z M486.4,533.7h7v7h-7V533.7z
	 M493.6,533.7h7v7h-7V533.7z M500.9,533.7h7v7h-7V533.7z M508.2,533.7h7v7h-7V533.7z M515.4,533.7h7v7h-7V533.7z M522.7,533.7h7v7
	h-7V533.7z M529.9,533.7h7v7h-7V533.7z M537.2,533.7h7v7h-7V533.7z M544.5,533.7h7v7h-7V533.7z M333.9,540.9h7v7h-7V540.9z
	 M341.2,540.9h7v7h-7V540.9z M348.4,540.9h7v7h-7V540.9z M355.7,540.9h7v7h-7V540.9z M363,540.9h7v7h-7V540.9z M370.2,540.9h7v7h-7
	V540.9z M377.5,540.9h7v7h-7V540.9z M384.7,540.9h7v7h-7V540.9z M392,540.9h7v7h-7V540.9z M399.3,540.9h7v7h-7V540.9z M406.5,540.9
	h7v7h-7V540.9z M413.8,540.9h7v7h-7V540.9z M421,540.9h7v7h-7V540.9z M428.3,540.9h7v7h-7V540.9z M435.6,540.9h7v7h-7V540.9z
	 M442.8,540.9h7v7h-7V540.9z M450.1,540.9h7v7h-7V540.9z M457.3,540.9h7v7h-7V540.9z M464.6,540.9h7v7h-7V540.9z M471.9,540.9h7v7
	h-7V540.9z M479.1,540.9h7v7h-7V540.9z M486.4,540.9h7v7h-7V540.9z M493.6,540.9h7v7h-7V540.9z M500.9,540.9h7v7h-7V540.9z
	 M508.2,540.9h7v7h-7V540.9z M515.4,540.9h7v7h-7V540.9z M522.7,540.9h7v7h-7V540.9z M529.9,540.9h7v7h-7V540.9z M355.7,548.2h7v7
	h-7V548.2z M363,548.2h7v7h-7V548.2z M370.2,548.2h7v7h-7V548.2z M377.5,548.2h7v7h-7V548.2z M384.7,548.2h7v7h-7V548.2z M392,548.2
	h7v7h-7V548.2z M399.3,548.2h7v7h-7V548.2z M406.5,548.2h7v7h-7V548.2z M413.8,548.2h7v7h-7V548.2z M421,548.2h7v7h-7V548.2z
	 M428.3,548.2h7v7h-7V548.2z M435.6,548.2h7v7h-7V548.2z M442.8,548.2h7v7h-7V548.2z M450.1,548.2h7v7h-7V548.2z M457.3,548.2h7v7
	h-7V548.2z M464.6,548.2h7v7h-7V548.2z M471.9,548.2h7v7h-7V548.2z M479.1,548.2h7v7h-7V548.2z M486.4,548.2h7v7h-7V548.2z
	 M493.6,548.2h7v7h-7V548.2z M500.9,548.2h7v7h-7V548.2z M508.2,548.2h7v7h-7V548.2z M384.7,555.4h7v7h-7V555.4z M392,555.4h7v7h-7
	V555.4z M399.3,555.4h7v7h-7V555.4z M406.5,555.4h7v7h-7V555.4z M413.8,555.4h7v7h-7V555.4z M421,555.4h7v7h-7V555.4z M428.3,555.4
	h7v7h-7V555.4z M435.6,555.4h7v7h-7V555.4z M442.8,555.4h7v7h-7V555.4z M450.1,555.4h7v7h-7V555.4z M457.3,555.4h7v7h-7V555.4z
	 M464.6,555.4h7v7h-7V555.4z M471.9,555.4h7v7h-7V555.4z M479.1,555.4h7v7h-7V555.4z"/>
</svg>
