<?xml version="1.0" encoding="utf-8"?>
<!-- Generator: Adobe Illustrator 27.3.1, SVG Export Plug-In . SVG Version: 6.00 Build 0)  -->
<svg version="1.1" id="Слой_1" xmlns:ev="http://www.w3.org/2001/xml-events"
	 xmlns="http://www.w3.org/2000/svg" xmlns:xlink="http://www.w3.org/1999/xlink" x="0px" y="0px" viewBox="0 0 871 595"
	 style="enable-background:new 0 0 871 595;" xml:space="preserve">
<style type="text/css">
	.st0{fill:#1E0E01;}
</style>
<path class="st0" d="M439.2,32.7h7v7h-7V32.7z M439.2,40h7v7h-7V40z M432,47.2h7v7h-7V47.2z M439.2,47.2h7v7h-7V47.2z M432,54.5h7v7
	h-7V54.5z M439.2,54.5h7v7h-7V54.5z M432,61.7h7v7h-7V61.7z M439.2,61.7h7v7h-7V61.7z M432,69h7v7h-7V69z M439.2,69h7v7h-7V69z
	 M432,76.2h7v7h-7V76.2z M439.2,76.2h7v7h-7V76.2z M432,83.5h7v7h-7V83.5z M439.2,83.5h7v7h-7V83.5z M432,90.8h7v7h-7V90.8z
	 M439.2,90.8h7v7h-7V90.8z M432,98h7v7h-7V98z M439.2,98h7v7h-7V98z M432,105.2h7v7h-7V105.2z M439.2,105.2h7v7h-7V105.2z
	 M424.8,112.6h7v7h-7V112.6z M432,112.6h7v7h-7V112.6z M439.2,112.6h7v7h-7V112.6z M395.8,119.8h7v7h-7V119.8z M402.9,119.8h7v7h-7
	V119.8z M410.2,119.8h7v7h-7V119.8z M417.4,119.8h7v7h-7V119.8z M424.8,119.8h7v7h-7V119.8z M432,119.8h7v7h-7V119.8z M439.2,119.8
	h7v7h-7V119.8z M446.5,119.8h7v7h-7V119.8z M453.8,119.8h7v7h-7V119.8z M461,119.8h7v7h-7V119.8z M468.4,119.8h7v7h-7V119.8z
	 M395.8,127.1h7v7h-7V127.1z M402.9,127.1h7v7h-7V127.1z M410.2,127.1h7v7h-7V127.1z M417.4,127.1h7v7h-7V127.1z M424.8,127.1h7v7
	h-7V127.1z M432,127.1h7v7h-7V127.1z M439.2,127.1h7v7h-7V127.1z M446.5,127.1h7v7h-7V127.1z M453.8,127.1h7v7h-7V127.1z M461,127.1
	h7v7h-7V127.1z M468.4,127.1h7v7h-7V127.1z M243.2,134.2h7v7h-7V134.2z M250.5,134.2h7v7h-7V134.2z M257.8,134.2h7v7h-7V134.2z
	 M432,134.2h7v7h-7V134.2z M439.2,134.2h7v7h-7V134.2z M453.8,134.2h7v7h-7V134.2z M228.8,141.6h7v7h-7V141.6z M236,141.6h7v7h-7
	V141.6z M243.2,141.6h7v7h-7V141.6z M250.5,141.6h7v7h-7V141.6z M257.8,141.6h7v7h-7V141.6z M265,141.6h7v7h-7V141.6z M272.2,141.6
	h7v7h-7V141.6z M279.5,141.6h7v7h-7V141.6z M286.9,141.6h7v7h-7V141.6z M294,141.6h7v7h-7V141.6z M301.4,141.6h7v7h-7V141.6z
	 M432,141.6h7v7h-7V141.6z M439.2,141.6h7v7h-7V141.6z M468.4,141.6h7v7h-7V141.6z M599,141.6h7v7h-7V141.6z M606.2,141.6h7v7h-7
	V141.6z M613.6,141.6h7v7h-7V141.6z M620.8,141.6h7v7h-7V141.6z M214.2,148.9h7v7h-7V148.9z M221.5,148.9h7v7h-7V148.9z
	 M228.8,148.9h7v7h-7V148.9z M236,148.9h7v7h-7V148.9z M243.2,148.9h7v7h-7V148.9z M250.5,148.9h7v7h-7V148.9z M257.8,148.9h7v7h-7
	V148.9z M265,148.9h7v7h-7V148.9z M272.2,148.9h7v7h-7V148.9z M279.5,148.9h7v7h-7V148.9z M286.9,148.9h7v7h-7V148.9z M294,148.9h7
	v7h-7V148.9z M301.4,148.9h7v7h-7V148.9z M308.5,148.9h7v7h-7V148.9z M315.9,148.9h7v7h-7V148.9z M410.2,148.9h7v7h-7V148.9z
	 M432,148.9h7v7h-7V148.9z M439.2,148.9h7v7h-7V148.9z M555.5,148.9h7v7h-7V148.9z M562.7,148.9h7v7h-7V148.9z M570,148.9h7v7h-7
	V148.9z M577.2,148.9h7v7h-7V148.9z M584.5,148.9h7v7h-7V148.9z M591.8,148.9h7v7h-7V148.9z M599,148.9h7v7h-7V148.9z M606.2,148.9
	h7v7h-7V148.9z M613.6,148.9h7v7h-7V148.9z M620.8,148.9h7v7h-7V148.9z M628.1,148.9h7v7h-7V148.9z M635.2,148.9h7v7h-7V148.9z
	 M199.6,156.1h7v7h-7V156.1z M207,156.1h7v7h-7V156.1z M214.2,156.1h7v7h-7V156.1z M221.5,156.1h7v7h-7V156.1z M228.8,156.1h7v7h-7
	V156.1z M265,156.1h7v7h-7V156.1z M279.5,156.1h7v7h-7V156.1z M294,156.1h7v7h-7V156.1z M301.4,156.1h7v7h-7V156.1z M308.5,156.1h7
	v7h-7V156.1z M315.9,156.1h7v7h-7V156.1z M323.1,156.1h7v7h-7V156.1z M330.4,156.1h7v7h-7V156.1z M337.6,156.1h7v7h-7V156.1z
	 M410.2,156.1h7v7h-7V156.1z M432,156.1h7v7h-7V156.1z M533.7,156.1h7v7h-7V156.1z M541,156.1h7v7h-7V156.1z M548.2,156.1h7v7h-7
	V156.1z M555.5,156.1h7v7h-7V156.1z M562.7,156.1h7v7h-7V156.1z M570,156.1h7v7h-7V156.1z M577.2,156.1h7v7h-7V156.1z M584.5,156.1
	h7v7h-7V156.1z M591.8,156.1h7v7h-7V156.1z M599,156.1h7v7h-7V156.1z M606.2,156.1h7v7h-7V156.1z M613.6,156.1h7v7h-7V156.1z
	 M620.8,156.1h7v7h-7V156.1z M628.1,156.1h7v7h-7V156.1z M635.2,156.1h7v7h-7V156.1z M642.6,156.1h7v7h-7V156.1z M649.9,156.1h7v7
	h-7V156.1z M192.5,163.4h7v7h-7V163.4z M199.6,163.4h7v7h-7V163.4z M207,163.4h7v7h-7V163.4z M228.8,163.4h7v7h-7V163.4z
	 M243.2,163.4h7v7h-7V163.4z M257.8,163.4h7v7h-7V163.4z M272.2,163.4h7v7h-7V163.4z M286.9,163.4h7v7h-7V163.4z M301.4,163.4h7v7
	h-7V163.4z M315.9,163.4h7v7h-7V163.4z M323.1,163.4h7v7h-7V163.4z M330.4,163.4h7v7h-7V163.4z M337.6,163.4h7v7h-7V163.4z
	 M344.9,163.4h7v7h-7V163.4z M352.1,163.4h7v7h-7V163.4z M432,163.4h7v7h-7V163.4z M511.9,163.4h7v7h-7V163.4z M519.2,163.4h7v7h-7
	V163.4z M526.4,163.4h7v7h-7V163.4z M533.7,163.4h7v7h-7V163.4z M541,163.4h7v7h-7V163.4z M548.2,163.4h7v7h-7V163.4z M555.5,163.4
	h7v7h-7V163.4z M562.7,163.4h7v7h-7V163.4z M577.2,163.4h7v7h-7V163.4z M591.8,163.4h7v7h-7V163.4z M606.2,163.4h7v7h-7V163.4z
	 M620.8,163.4h7v7h-7V163.4z M628.1,163.4h7v7h-7V163.4z M635.2,163.4h7v7h-7V163.4z M642.6,163.4h7v7h-7V163.4z M649.9,163.4h7v7
	h-7V163.4z M657.1,163.4h7v7h-7V163.4z M185.1,170.6h7v7h-7V170.6z M192.5,170.6h7v7h-7V170.6z M214.2,170.6h7v7h-7V170.6z
	 M221.5,170.6h7v7h-7V170.6z M236,170.6h7v7h-7V170.6z M243.2,170.6h7v7h-7V170.6z M250.5,170.6h7v7h-7V170.6z M257.8,170.6h7v7h-7
	V170.6z M265,170.6h7v7h-7V170.6z M272.2,170.6h7v7h-7V170.6z M279.5,170.6h7v7h-7V170.6z M286.9,170.6h7v7h-7V170.6z M294,170.6h7
	v7h-7V170.6z M308.5,170.6h7v7h-7V170.6z M323.1,170.6h7v7h-7V170.6z M337.6,170.6h7v7h-7V170.6z M344.9,170.6h7v7h-7V170.6z
	 M352.1,170.6h7v7h-7V170.6z M359.4,170.6h7v7h-7V170.6z M366.6,170.6h7v7h-7V170.6z M432,170.6h7v7h-7V170.6z M504.6,170.6h7v7h-7
	V170.6z M511.9,170.6h7v7h-7V170.6z M519.2,170.6h7v7h-7V170.6z M526.4,170.6h7v7h-7V170.6z M533.7,170.6h7v7h-7V170.6z
	 M548.2,170.6h7v7h-7V170.6z M562.7,170.6h7v7h-7V170.6z M570,170.6h7v7h-7V170.6z M584.5,170.6h7v7h-7V170.6z M599,170.6h7v7h-7
	V170.6z M613.6,170.6h7v7h-7V170.6z M620.8,170.6h7v7h-7V170.6z M635.2,170.6h7v7h-7V170.6z M657.1,170.6h7v7h-7V170.6z
	 M664.4,170.6h7v7h-7V170.6z M178,177.9h7v7h-7V177.9z M185.1,177.9h7v7h-7V177.9z M199.6,177.9h7v7h-7V177.9z M207,177.9h7v7h-7
	V177.9z M221.5,177.9h7v7h-7V177.9z M228.8,177.9h7v7h-7V177.9z M236,177.9h7v7h-7V177.9z M243.2,177.9h7v7h-7V177.9z M250.5,177.9
	h7v7h-7V177.9z M257.8,177.9h7v7h-7V177.9z M265,177.9h7v7h-7V177.9z M272.2,177.9h7v7h-7V177.9z M279.5,177.9h7v7h-7V177.9z
	 M286.9,177.9h7v7h-7V177.9z M294,177.9h7v7h-7V177.9z M301.4,177.9h7v7h-7V177.9z M308.5,177.9h7v7h-7V177.9z M315.9,177.9h7v7h-7
	V177.9z M330.4,177.9h7v7h-7V177.9z M344.9,177.9h7v7h-7V177.9z M359.4,177.9h7v7h-7V177.9z M366.6,177.9h7v7h-7V177.9z
	 M373.9,177.9h7v7h-7V177.9z M432,177.9h7v7h-7V177.9z M497.4,177.9h7v7h-7V177.9z M504.6,177.9h7v7h-7V177.9z M511.9,177.9h7v7h-7
	V177.9z M519.2,177.9h7v7h-7V177.9z M533.7,177.9h7v7h-7V177.9z M541,177.9h7v7h-7V177.9z M555.5,177.9h7v7h-7V177.9z M570,177.9h7
	v7h-7V177.9z M577.2,177.9h7v7h-7V177.9z M584.5,177.9h7v7h-7V177.9z M591.8,177.9h7v7h-7V177.9z M599,177.9h7v7h-7V177.9z
	 M606.2,177.9h7v7h-7V177.9z M613.6,177.9h7v7h-7V177.9z M628.1,177.9h7v7h-7V177.9z M642.6,177.9h7v7h-7V177.9z M649.9,177.9h7v7
	h-7V177.9z M671.6,177.9h7v7h-7V177.9z M192.5,185.2h7v7h-7V185.2z M207,185.2h7v7h-7V185.2z M214.2,185.2h7v7h-7V185.2z
	 M221.5,185.2h7v7h-7V185.2z M228.8,185.2h7v7h-7V185.2z M236,185.2h7v7h-7V185.2z M243.2,185.2h7v7h-7V185.2z M250.5,185.2h7v7h-7
	V185.2z M257.8,185.2h7v7h-7V185.2z M265,185.2h7v7h-7V185.2z M272.2,185.2h7v7h-7V185.2z M279.5,185.2h7v7h-7V185.2z M286.9,185.2
	h7v7h-7V185.2z M294,185.2h7v7h-7V185.2z M301.4,185.2h7v7h-7V185.2z M308.5,185.2h7v7h-7V185.2z M315.9,185.2h7v7h-7V185.2z
	 M323.1,185.2h7v7h-7V185.2z M330.4,185.2h7v7h-7V185.2z M337.6,185.2h7v7h-7V185.2z M352.1,185.2h7v7h-7V185.2z M359.4,185.2h7v7
	h-7V185.2z M366.6,185.2h7v7h-7V185.2z M373.9,185.2h7v7h-7V185.2z M381.1,185.2h7v7h-7V185.2z M432,185.2h7v7h-7V185.2z M490,185.2
	h7v7h-7V185.2z M497.4,185.2h7v7h-7V185.2z M504.6,185.2h7v7h-7V185.2z M511.9,185.2h7v7h-7V185.2z M526.4,185.2h7v7h-7V185.2z
	 M541,185.2h7v7h-7V185.2z M548.2,185.2h7v7h-7V185.2z M555.5,185.2h7v7h-7V185.2z M562.7,185.2h7v7h-7V185.2z M570,185.2h7v7h-7
	V185.2z M577.2,185.2h7v7h-7V185.2z M584.5,185.2h7v7h-7V185.2z M591.8,185.2h7v7h-7V185.2z M599,185.2h7v7h-7V185.2z M606.2,185.2
	h7v7h-7V185.2z M613.6,185.2h7v7h-7V185.2z M620.8,185.2h7v7h-7V185.2z M628.1,185.2h7v7h-7V185.2z M635.2,185.2h7v7h-7V185.2z
	 M642.6,185.2h7v7h-7V185.2z M649.9,185.2h7v7h-7V185.2z M657.1,185.2h7v7h-7V185.2z M664.4,185.2h7v7h-7V185.2z M678.9,185.2h7v7
	h-7V185.2z M134.4,192.4h7v7h-7V192.4z M192.5,192.4h7v7h-7V192.4z M199.6,192.4h7v7h-7V192.4z M207,192.4h7v7h-7V192.4z
	 M214.2,192.4h7v7h-7V192.4z M221.5,192.4h7v7h-7V192.4z M228.8,192.4h7v7h-7V192.4z M236,192.4h7v7h-7V192.4z M243.2,192.4h7v7h-7
	V192.4z M250.5,192.4h7v7h-7V192.4z M257.8,192.4h7v7h-7V192.4z M265,192.4h7v7h-7V192.4z M272.2,192.4h7v7h-7V192.4z M279.5,192.4
	h7v7h-7V192.4z M286.9,192.4h7v7h-7V192.4z M294,192.4h7v7h-7V192.4z M301.4,192.4h7v7h-7V192.4z M308.5,192.4h7v7h-7V192.4z
	 M315.9,192.4h7v7h-7V192.4z M323.1,192.4h7v7h-7V192.4z M330.4,192.4h7v7h-7V192.4z M337.6,192.4h7v7h-7V192.4z M344.9,192.4h7v7
	h-7V192.4z M352.1,192.4h7v7h-7V192.4z M366.6,192.4h7v7h-7V192.4z M373.9,192.4h7v7h-7V192.4z M381.1,192.4h7v7h-7V192.4z
	 M432,192.4h7v7h-7V192.4z M490,192.4h7v7h-7V192.4z M497.4,192.4h7v7h-7V192.4z M504.6,192.4h7v7h-7V192.4z M519.2,192.4h7v7h-7
	V192.4z M533.7,192.4h7v7h-7V192.4z M541,192.4h7v7h-7V192.4z M548.2,192.4h7v7h-7V192.4z M555.5,192.4h7v7h-7V192.4z M562.7,192.4
	h7v7h-7V192.4z M570,192.4h7v7h-7V192.4z M577.2,192.4h7v7h-7V192.4z M584.5,192.4h7v7h-7V192.4z M591.8,192.4h7v7h-7V192.4z
	 M599,192.4h7v7h-7V192.4z M606.2,192.4h7v7h-7V192.4z M613.6,192.4h7v7h-7V192.4z M620.8,192.4h7v7h-7V192.4z M628.1,192.4h7v7h-7
	V192.4z M635.2,192.4h7v7h-7V192.4z M642.6,192.4h7v7h-7V192.4z M649.9,192.4h7v7h-7V192.4z M657.1,192.4h7v7h-7V192.4z
	 M664.4,192.4h7v7h-7V192.4z M671.6,192.4h7v7h-7V192.4z M729.7,192.4h7v7h-7V192.4z M141.6,199.7h7v7h-7V199.7z M185.1,199.7h7v7
	h-7V199.7z M192.5,199.7h7v7h-7V199.7z M199.6,199.7h7v7h-7V199.7z M207,199.7h7v7h-7V199.7z M214.2,199.7h7v7h-7V199.7z
	 M221.5,199.7h7v7h-7V199.7z M228.8,199.7h7v7h-7V199.7z M236,199.7h7v7h-7V199.7z M243.2,199.7h7v7h-7V199.7z M265,199.7h7v7h-7
	V199.7z M272.2,199.7h7v7h-7V199.7z M279.5,199.7h7v7h-7V199.7z M286.9,199.7h7v7h-7V199.7z M294,199.7h7v7h-7V199.7z M301.4,199.7
	h7v7h-7V199.7z M308.5,199.7h7v7h-7V199.7z M315.9,199.7h7v7h-7V199.7z M323.1,199.7h7v7h-7V199.7z M330.4,199.7h7v7h-7V199.7z
	 M337.6,199.7h7v7h-7V199.7z M344.9,199.7h7v7h-7V199.7z M352.1,199.7h7v7h-7V199.7z M359.4,199.7h7v7h-7V199.7z M373.9,199.7h7v7
	h-7V199.7z M432,199.7h7v7h-7V199.7z M490,199.7h7v7h-7V199.7z M497.4,199.7h7v7h-7V199.7z M511.9,199.7h7v7h-7V199.7z M526.4,199.7
	h7v7h-7V199.7z M533.7,199.7h7v7h-7V199.7z M541,199.7h7v7h-7V199.7z M548.2,199.7h7v7h-7V199.7z M555.5,199.7h7v7h-7V199.7z
	 M562.7,199.7h7v7h-7V199.7z M570,199.7h7v7h-7V199.7z M577.2,199.7h7v7h-7V199.7z M584.5,199.7h7v7h-7V199.7z M591.8,199.7h7v7h-7
	V199.7z M599,199.7h7v7h-7V199.7z M606.2,199.7h7v7h-7V199.7z M613.6,199.7h7v7h-7V199.7z M620.8,199.7h7v7h-7V199.7z M628.1,199.7
	h7v7h-7V199.7z M635.2,199.7h7v7h-7V199.7z M642.6,199.7h7v7h-7V199.7z M649.9,199.7h7v7h-7V199.7z M657.1,199.7h7v7h-7V199.7z
	 M664.4,199.7h7v7h-7V199.7z M671.6,199.7h7v7h-7V199.7z M678.9,199.7h7v7h-7V199.7z M722.5,199.7h7v7h-7V199.7z M729.7,199.7h7v7
	h-7V199.7z M141.6,206.9h7v7h-7V206.9z M148.9,206.9h7v7h-7V206.9z M156.1,206.9h7v7h-7V206.9z M163.4,206.9h7v7h-7V206.9z
	 M170.6,206.9h7v7h-7V206.9z M178,206.9h7v7h-7V206.9z M185.1,206.9h7v7h-7V206.9z M192.5,206.9h7v7h-7V206.9z M199.6,206.9h7v7h-7
	V206.9z M207,206.9h7v7h-7V206.9z M214.2,206.9h7v7h-7V206.9z M221.5,206.9h7v7h-7V206.9z M228.8,206.9h7v7h-7V206.9z M236,206.9h7
	v7h-7V206.9z M243.2,206.9h7v7h-7V206.9z M265,206.9h7v7h-7V206.9z M272.2,206.9h7v7h-7V206.9z M279.5,206.9h7v7h-7V206.9z
	 M286.9,206.9h7v7h-7V206.9z M294,206.9h7v7h-7V206.9z M301.4,206.9h7v7h-7V206.9z M308.5,206.9h7v7h-7V206.9z M315.9,206.9h7v7h-7
	V206.9z M323.1,206.9h7v7h-7V206.9z M330.4,206.9h7v7h-7V206.9z M337.6,206.9h7v7h-7V206.9z M344.9,206.9h7v7h-7V206.9z
	 M352.1,206.9h7v7h-7V206.9z M359.4,206.9h7v7h-7V206.9z M366.6,206.9h7v7h-7V206.9z M432,206.9h7v7h-7V206.9z M504.6,206.9h7v7h-7
	V206.9z M511.9,206.9h7v7h-7V206.9z M519.2,206.9h7v7h-7V206.9z M526.4,206.9h7v7h-7V206.9z M533.7,206.9h7v7h-7V206.9z M541,206.9
	h7v7h-7V206.9z M548.2,206.9h7v7h-7V206.9z M555.5,206.9h7v7h-7V206.9z M562.7,206.9h7v7h-7V206.9z M584.5,206.9h7v7h-7V206.9z
	 M591.8,206.9h7v7h-7V206.9z M599,206.9h7v7h-7V206.9z M606.2,206.9h7v7h-7V206.9z M613.6,206.9h7v7h-7V206.9z M620.8,206.9h7v7h-7
	V206.9z M628.1,206.9h7v7h-7V206.9z M635.2,206.9h7v7h-7V206.9z M642.6,206.9h7v7h-7V206.9z M649.9,206.9h7v7h-7V206.9z
	 M657.1,206.9h7v7h-7V206.9z M664.4,206.9h7v7h-7V206.9z M671.6,206.9h7v7h-7V206.9z M678.9,206.9h7v7h-7V206.9z M686.2,206.9h7v7
	h-7V206.9z M707.9,206.9h7v7h-7V206.9z M715.2,206.9h7v7h-7V206.9z M722.5,206.9h7v7h-7V206.9z M148.9,214.2h7v7h-7V214.2z
	 M156.1,214.2h7v7h-7V214.2z M163.4,214.2h7v7h-7V214.2z M170.6,214.2h7v7h-7V214.2z M178,214.2h7v7h-7V214.2z M185.1,214.2h7v7h-7
	V214.2z M192.5,214.2h7v7h-7V214.2z M199.6,214.2h7v7h-7V214.2z M207,214.2h7v7h-7V214.2z M214.2,214.2h7v7h-7V214.2z M221.5,214.2
	h7v7h-7V214.2z M228.8,214.2h7v7h-7V214.2z M236,214.2h7v7h-7V214.2z M243.2,214.2h7v7h-7V214.2z M250.5,214.2h7v7h-7V214.2z
	 M257.8,214.2h7v7h-7V214.2z M265,214.2h7v7h-7V214.2z M286.9,214.2h7v7h-7V214.2z M294,214.2h7v7h-7V214.2z M301.4,214.2h7v7h-7
	V214.2z M308.5,214.2h7v7h-7V214.2z M315.9,214.2h7v7h-7V214.2z M323.1,214.2h7v7h-7V214.2z M330.4,214.2h7v7h-7V214.2z
	 M337.6,214.2h7v7h-7V214.2z M344.9,214.2h7v7h-7V214.2z M352.1,214.2h7v7h-7V214.2z M359.4,214.2h7v7h-7V214.2z M366.6,214.2h7v7
	h-7V214.2z M432,214.2h7v7h-7V214.2z M497.4,214.2h7v7h-7V214.2z M504.6,214.2h7v7h-7V214.2z M511.9,214.2h7v7h-7V214.2z
	 M519.2,214.2h7v7h-7V214.2z M526.4,214.2h7v7h-7V214.2z M533.7,214.2h7v7h-7V214.2z M541,214.2h7v7h-7V214.2z M548.2,214.2h7v7h-7
	V214.2z M555.5,214.2h7v7h-7V214.2z M562.7,214.2h7v7h-7V214.2z M584.5,214.2h7v7h-7V214.2z M606.2,214.2h7v7h-7V214.2z
	 M613.6,214.2h7v7h-7V214.2z M620.8,214.2h7v7h-7V214.2z M628.1,214.2h7v7h-7V214.2z M635.2,214.2h7v7h-7V214.2z M642.6,214.2h7v7
	h-7V214.2z M649.9,214.2h7v7h-7V214.2z M657.1,214.2h7v7h-7V214.2z M664.4,214.2h7v7h-7V214.2z M671.6,214.2h7v7h-7V214.2z
	 M678.9,214.2h7v7h-7V214.2z M686.2,214.2h7v7h-7V214.2z M693.4,214.2h7v7h-7V214.2z M700.7,214.2h7v7h-7V214.2z M707.9,214.2h7v7
	h-7V214.2z M715.2,214.2h7v7h-7V214.2z M156.1,221.4h7v7h-7V221.4z M163.4,221.4h7v7h-7V221.4z M170.6,221.4h7v7h-7V221.4z
	 M178,221.4h7v7h-7V221.4z M185.1,221.4h7v7h-7V221.4z M192.5,221.4h7v7h-7V221.4z M199.6,221.4h7v7h-7V221.4z M207,221.4h7v7h-7
	V221.4z M214.2,221.4h7v7h-7V221.4z M221.5,221.4h7v7h-7V221.4z M228.8,221.4h7v7h-7V221.4z M236,221.4h7v7h-7V221.4z M243.2,221.4
	h7v7h-7V221.4z M250.5,221.4h7v7h-7V221.4z M257.8,221.4h7v7h-7V221.4z M265,221.4h7v7h-7V221.4z M294,221.4h7v7h-7V221.4z
	 M301.4,221.4h7v7h-7V221.4z M308.5,221.4h7v7h-7V221.4z M315.9,221.4h7v7h-7V221.4z M323.1,221.4h7v7h-7V221.4z M330.4,221.4h7v7
	h-7V221.4z M337.6,221.4h7v7h-7V221.4z M344.9,221.4h7v7h-7V221.4z M352.1,221.4h7v7h-7V221.4z M359.4,221.4h7v7h-7V221.4z
	 M366.6,221.4h7v7h-7V221.4z M432,221.4h7v7h-7V221.4z M490,221.4h7v7h-7V221.4z M497.4,221.4h7v7h-7V221.4z M504.6,221.4h7v7h-7
	V221.4z M511.9,221.4h7v7h-7V221.4z M519.2,221.4h7v7h-7V221.4z M526.4,221.4h7v7h-7V221.4z M533.7,221.4h7v7h-7V221.4z M541,221.4
	h7v7h-7V221.4z M548.2,221.4h7v7h-7V221.4z M555.5,221.4h7v7h-7V221.4z M562.7,221.4h7v7h-7V221.4z M570,221.4h7v7h-7V221.4z
	 M577.2,221.4h7v7h-7V221.4z M584.5,221.4h7v7h-7V221.4z M613.6,221.4h7v7h-7V221.4z M620.8,221.4h7v7h-7V221.4z M628.1,221.4h7v7
	h-7V221.4z M635.2,221.4h7v7h-7V221.4z M642.6,221.4h7v7h-7V221.4z M649.9,221.4h7v7h-7V221.4z M657.1,221.4h7v7h-7V221.4z
	 M664.4,221.4h7v7h-7V221.4z M671.6,221.4h7v7h-7V221.4z M678.9,221.4h7v7h-7V221.4z M686.2,221.4h7v7h-7V221.4z M693.4,221.4h7v7
	h-7V221.4z M700.7,221.4h7v7h-7V221.4z M707.9,221.4h7v7h-7V221.4z M715.2,221.4h7v7h-7V221.4z M163.4,228.7h7v7h-7V228.7z
	 M170.6,228.7h7v7h-7V228.7z M178,228.7h7v7h-7V228.7z M185.1,228.7h7v7h-7V228.7z M192.5,228.7h7v7h-7V228.7z M199.6,228.7h7v7h-7
	V228.7z M207,228.7h7v7h-7V228.7z M214.2,228.7h7v7h-7V228.7z M221.5,228.7h7v7h-7V228.7z M228.8,228.7h7v7h-7V228.7z M236,228.7h7
	v7h-7V228.7z M243.2,228.7h7v7h-7V228.7z M265,228.7h7v7h-7V228.7z M272.2,228.7h7v7h-7V228.7z M286.9,228.7h7v7h-7V228.7z
	 M294,228.7h7v7h-7V228.7z M301.4,228.7h7v7h-7V228.7z M308.5,228.7h7v7h-7V228.7z M315.9,228.7h7v7h-7V228.7z M323.1,228.7h7v7h-7
	V228.7z M330.4,228.7h7v7h-7V228.7z M337.6,228.7h7v7h-7V228.7z M344.9,228.7h7v7h-7V228.7z M352.1,228.7h7v7h-7V228.7z
	 M359.4,228.7h7v7h-7V228.7z M366.6,228.7h7v7h-7V228.7z M373.9,228.7h7v7h-7V228.7z M432,228.7h7v7h-7V228.7z M490,228.7h7v7h-7
	V228.7z M497.4,228.7h7v7h-7V228.7z M504.6,228.7h7v7h-7V228.7z M511.9,228.7h7v7h-7V228.7z M519.2,228.7h7v7h-7V228.7z
	 M526.4,228.7h7v7h-7V228.7z M533.7,228.7h7v7h-7V228.7z M541,228.7h7v7h-7V228.7z M548.2,228.7h7v7h-7V228.7z M555.5,228.7h7v7h-7
	V228.7z M577.2,228.7h7v7h-7V228.7z M584.5,228.7h7v7h-7V228.7z M591.8,228.7h7v7h-7V228.7z M613.6,228.7h7v7h-7V228.7z
	 M620.8,228.7h7v7h-7V228.7z M628.1,228.7h7v7h-7V228.7z M635.2,228.7h7v7h-7V228.7z M642.6,228.7h7v7h-7V228.7z M649.9,228.7h7v7
	h-7V228.7z M657.1,228.7h7v7h-7V228.7z M664.4,228.7h7v7h-7V228.7z M671.6,228.7h7v7h-7V228.7z M678.9,228.7h7v7h-7V228.7z
	 M686.2,228.7h7v7h-7V228.7z M693.4,228.7h7v7h-7V228.7z M700.7,228.7h7v7h-7V228.7z M707.9,228.7h7v7h-7V228.7z M163.4,235.9h7v7
	h-7V235.9z M170.6,235.9h7v7h-7V235.9z M178,235.9h7v7h-7V235.9z M185.1,235.9h7v7h-7V235.9z M192.5,235.9h7v7h-7V235.9z
	 M199.6,235.9h7v7h-7V235.9z M207,235.9h7v7h-7V235.9z M214.2,235.9h7v7h-7V235.9z M221.5,235.9h7v7h-7V235.9z M228.8,235.9h7v7h-7
	V235.9z M236,235.9h7v7h-7V235.9z M243.2,235.9h7v7h-7V235.9z M250.5,235.9h7v7h-7V235.9z M257.8,235.9h7v7h-7V235.9z M265,235.9h7
	v7h-7V235.9z M272.2,235.9h7v7h-7V235.9z M279.5,235.9h7v7h-7V235.9z M286.9,235.9h7v7h-7V235.9z M294,235.9h7v7h-7V235.9z
	 M301.4,235.9h7v7h-7V235.9z M308.5,235.9h7v7h-7V235.9z M315.9,235.9h7v7h-7V235.9z M323.1,235.9h7v7h-7V235.9z M330.4,235.9h7v7
	h-7V235.9z M337.6,235.9h7v7h-7V235.9z M344.9,235.9h7v7h-7V235.9z M352.1,235.9h7v7h-7V235.9z M359.4,235.9h7v7h-7V235.9z
	 M366.6,235.9h7v7h-7V235.9z M373.9,235.9h7v7h-7V235.9z M432,235.9h7v7h-7V235.9z M490,235.9h7v7h-7V235.9z M497.4,235.9h7v7h-7
	V235.9z M504.6,235.9h7v7h-7V235.9z M511.9,235.9h7v7h-7V235.9z M519.2,235.9h7v7h-7V235.9z M526.4,235.9h7v7h-7V235.9z
	 M533.7,235.9h7v7h-7V235.9z M541,235.9h7v7h-7V235.9z M548.2,235.9h7v7h-7V235.9z M555.5,235.9h7v7h-7V235.9z M562.7,235.9h7v7h-7
	V235.9z M570,235.9h7v7h-7V235.9z M577.2,235.9h7v7h-7V235.9z M584.5,235.9h7v7h-7V235.9z M591.8,235.9h7v7h-7V235.9z M599,235.9h7
	v7h-7V235.9z M606.2,235.9h7v7h-7V235.9z M613.6,235.9h7v7h-7V235.9z M620.8,235.9h7v7h-7V235.9z M628.1,235.9h7v7h-7V235.9z
	 M635.2,235.9h7v7h-7V235.9z M642.6,235.9h7v7h-7V235.9z M649.9,235.9h7v7h-7V235.9z M657.1,235.9h7v7h-7V235.9z M664.4,235.9h7v7
	h-7V235.9z M671.6,235.9h7v7h-7V235.9z M678.9,235.9h7v7h-7V235.9z M686.2,235.9h7v7h-7V235.9z M693.4,235.9h7v7h-7V235.9z
	 M700.7,235.9h7v7h-7V235.9z M163.4,243.2h7v7h-7V243.2z M170.6,243.2h7v7h-7V243.2z M178,243.2h7v7h-7V243.2z M185.1,243.2h7v7h-7
	V243.2z M192.5,243.2h7v7h-7V243.2z M199.6,243.2h7v7h-7V243.2z M207,243.2h7v7h-7V243.2z M214.2,243.2h7v7h-7V243.2z M221.5,243.2
	h7v7h-7V243.2z M228.8,243.2h7v7h-7V243.2z M236,243.2h7v7h-7V243.2z M243.2,243.2h7v7h-7V243.2z M250.5,243.2h7v7h-7V243.2z
	 M257.8,243.2h7v7h-7V243.2z M265,243.2h7v7h-7V243.2z M272.2,243.2h7v7h-7V243.2z M279.5,243.2h7v7h-7V243.2z M286.9,243.2h7v7h-7
	V243.2z M294,243.2h7v7h-7V243.2z M301.4,243.2h7v7h-7V243.2z M308.5,243.2h7v7h-7V243.2z M315.9,243.2h7v7h-7V243.2z M323.1,243.2
	h7v7h-7V243.2z M330.4,243.2h7v7h-7V243.2z M337.6,243.2h7v7h-7V243.2z M344.9,243.2h7v7h-7V243.2z M352.1,243.2h7v7h-7V243.2z
	 M359.4,243.2h7v7h-7V243.2z M366.6,243.2h7v7h-7V243.2z M373.9,243.2h7v7h-7V243.2z M432,243.2h7v7h-7V243.2z M482.9,243.2h7v7h-7
	V243.2z M490,243.2h7v7h-7V243.2z M497.4,243.2h7v7h-7V243.2z M504.6,243.2h7v7h-7V243.2z M511.9,243.2h7v7h-7V243.2z M519.2,243.2
	h7v7h-7V243.2z M526.4,243.2h7v7h-7V243.2z M533.7,243.2h7v7h-7V243.2z M541,243.2h7v7h-7V243.2z M548.2,243.2h7v7h-7V243.2z
	 M555.5,243.2h7v7h-7V243.2z M562.7,243.2h7v7h-7V243.2z M570,243.2h7v7h-7V243.2z M577.2,243.2h7v7h-7V243.2z M584.5,243.2h7v7h-7
	V243.2z M591.8,243.2h7v7h-7V243.2z M599,243.2h7v7h-7V243.2z M606.2,243.2h7v7h-7V243.2z M613.6,243.2h7v7h-7V243.2z M620.8,243.2
	h7v7h-7V243.2z M628.1,243.2h7v7h-7V243.2z M635.2,243.2h7v7h-7V243.2z M642.6,243.2h7v7h-7V243.2z M649.9,243.2h7v7h-7V243.2z
	 M657.1,243.2h7v7h-7V243.2z M664.4,243.2h7v7h-7V243.2z M671.6,243.2h7v7h-7V243.2z M678.9,243.2h7v7h-7V243.2z M686.2,243.2h7v7
	h-7V243.2z M693.4,243.2h7v7h-7V243.2z M700.7,243.2h7v7h-7V243.2z M163.4,250.4h7v7h-7V250.4z M170.6,250.4h7v7h-7V250.4z
	 M185.1,250.4h7v7h-7V250.4z M192.5,250.4h7v7h-7V250.4z M199.6,250.4h7v7h-7V250.4z M207,250.4h7v7h-7V250.4z M214.2,250.4h7v7h-7
	V250.4z M221.5,250.4h7v7h-7V250.4z M228.8,250.4h7v7h-7V250.4z M236,250.4h7v7h-7V250.4z M243.2,250.4h7v7h-7V250.4z M250.5,250.4
	h7v7h-7V250.4z M257.8,250.4h7v7h-7V250.4z M265,250.4h7v7h-7V250.4z M272.2,250.4h7v7h-7V250.4z M279.5,250.4h7v7h-7V250.4z
	 M286.9,250.4h7v7h-7V250.4z M294,250.4h7v7h-7V250.4z M301.4,250.4h7v7h-7V250.4z M308.5,250.4h7v7h-7V250.4z M315.9,250.4h7v7h-7
	V250.4z M323.1,250.4h7v7h-7V250.4z M330.4,250.4h7v7h-7V250.4z M337.6,250.4h7v7h-7V250.4z M344.9,250.4h7v7h-7V250.4z
	 M352.1,250.4h7v7h-7V250.4z M359.4,250.4h7v7h-7V250.4z M366.6,250.4h7v7h-7V250.4z M373.9,250.4h7v7h-7V250.4z M381.1,250.4h7v7
	h-7V250.4z M388.4,250.4h7v7h-7V250.4z M432,250.4h7v7h-7V250.4z M475.5,250.4h7v7h-7V250.4z M482.9,250.4h7v7h-7V250.4z M490,250.4
	h7v7h-7V250.4z M497.4,250.4h7v7h-7V250.4z M504.6,250.4h7v7h-7V250.4z M511.9,250.4h7v7h-7V250.4z M519.2,250.4h7v7h-7V250.4z
	 M526.4,250.4h7v7h-7V250.4z M533.7,250.4h7v7h-7V250.4z M541,250.4h7v7h-7V250.4z M548.2,250.4h7v7h-7V250.4z M555.5,250.4h7v7h-7
	V250.4z M562.7,250.4h7v7h-7V250.4z M570,250.4h7v7h-7V250.4z M577.2,250.4h7v7h-7V250.4z M584.5,250.4h7v7h-7V250.4z M591.8,250.4
	h7v7h-7V250.4z M599,250.4h7v7h-7V250.4z M606.2,250.4h7v7h-7V250.4z M613.6,250.4h7v7h-7V250.4z M620.8,250.4h7v7h-7V250.4z
	 M628.1,250.4h7v7h-7V250.4z M635.2,250.4h7v7h-7V250.4z M642.6,250.4h7v7h-7V250.4z M649.9,250.4h7v7h-7V250.4z M657.1,250.4h7v7
	h-7V250.4z M664.4,250.4h7v7h-7V250.4z M671.6,250.4h7v7h-7V250.4z M686.2,250.4h7v7h-7V250.4z M693.4,250.4h7v7h-7V250.4z
	 M163.4,257.8h7v7h-7V257.8z M170.6,257.8h7v7h-7V257.8z M185.1,257.8h7v7h-7V257.8z M214.2,257.8h7v7h-7V257.8z M221.5,257.8h7v7
	h-7V257.8z M228.8,257.8h7v7h-7V257.8z M236,257.8h7v7h-7V257.8z M243.2,257.8h7v7h-7V257.8z M250.5,257.8h7v7h-7V257.8z
	 M257.8,257.8h7v7h-7V257.8z M265,257.8h7v7h-7V257.8z M272.2,257.8h7v7h-7V257.8z M279.5,257.8h7v7h-7V257.8z M286.9,257.8h7v7h-7
	V257.8z M294,257.8h7v7h-7V257.8z M301.4,257.8h7v7h-7V257.8z M308.5,257.8h7v7h-7V257.8z M315.9,257.8h7v7h-7V257.8z M323.1,257.8
	h7v7h-7V257.8z M330.4,257.8h7v7h-7V257.8z M337.6,257.8h7v7h-7V257.8z M344.9,257.8h7v7h-7V257.8z M352.1,257.8h7v7h-7V257.8z
	 M359.4,257.8h7v7h-7V257.8z M366.6,257.8h7v7h-7V257.8z M373.9,257.8h7v7h-7V257.8z M381.1,257.8h7v7h-7V257.8z M388.4,257.8h7v7
	h-7V257.8z M475.5,257.8h7v7h-7V257.8z M482.9,257.8h7v7h-7V257.8z M490,257.8h7v7h-7V257.8z M497.4,257.8h7v7h-7V257.8z
	 M504.6,257.8h7v7h-7V257.8z M511.9,257.8h7v7h-7V257.8z M519.2,257.8h7v7h-7V257.8z M526.4,257.8h7v7h-7V257.8z M533.7,257.8h7v7
	h-7V257.8z M541,257.8h7v7h-7V257.8z M548.2,257.8h7v7h-7V257.8z M555.5,257.8h7v7h-7V257.8z M562.7,257.8h7v7h-7V257.8z M570,257.8
	h7v7h-7V257.8z M577.2,257.8h7v7h-7V257.8z M584.5,257.8h7v7h-7V257.8z M591.8,257.8h7v7h-7V257.8z M599,257.8h7v7h-7V257.8z
	 M606.2,257.8h7v7h-7V257.8z M613.6,257.8h7v7h-7V257.8z M620.8,257.8h7v7h-7V257.8z M628.1,257.8h7v7h-7V257.8z M664.4,257.8h7v7
	h-7V257.8z M671.6,257.8h7v7h-7V257.8z M693.4,257.8h7v7h-7V257.8z M163.4,265h7v7h-7V265z M170.6,265h7v7h-7V265z M185.1,265h7v7
	h-7V265z M221.5,265h7v7h-7V265z M228.8,265h7v7h-7V265z M236,265h7v7h-7V265z M243.2,265h7v7h-7V265z M250.5,265h7v7h-7V265z
	 M257.8,265h7v7h-7V265z M265,265h7v7h-7V265z M272.2,265h7v7h-7V265z M279.5,265h7v7h-7V265z M286.9,265h7v7h-7V265z M294,265h7v7
	h-7V265z M301.4,265h7v7h-7V265z M308.5,265h7v7h-7V265z M315.9,265h7v7h-7V265z M323.1,265h7v7h-7V265z M330.4,265h7v7h-7V265z
	 M337.6,265h7v7h-7V265z M344.9,265h7v7h-7V265z M352.1,265h7v7h-7V265z M359.4,265h7v7h-7V265z M366.6,265h7v7h-7V265z M373.9,265
	h7v7h-7V265z M381.1,265h7v7h-7V265z M475.5,265h7v7h-7V265z M482.9,265h7v7h-7V265z M490,265h7v7h-7V265z M497.4,265h7v7h-7V265z
	 M504.6,265h7v7h-7V265z M511.9,265h7v7h-7V265z M519.2,265h7v7h-7V265z M526.4,265h7v7h-7V265z M533.7,265h7v7h-7V265z M541,265h7
	v7h-7V265z M548.2,265h7v7h-7V265z M555.5,265h7v7h-7V265z M562.7,265h7v7h-7V265z M570,265h7v7h-7V265z M577.2,265h7v7h-7V265z
	 M584.5,265h7v7h-7V265z M591.8,265h7v7h-7V265z M599,265h7v7h-7V265z M606.2,265h7v7h-7V265z M613.6,265h7v7h-7V265z M620.8,265h7
	v7h-7V265z M664.4,265h7v7h-7V265z M671.6,265h7v7h-7V265z M693.4,265h7v7h-7V265z M163.4,272.3h7v7h-7V272.3z M170.6,272.3h7v7h-7
	V272.3z M185.1,272.3h7v7h-7V272.3z M228.8,272.3h7v7h-7V272.3z M236,272.3h7v7h-7V272.3z M243.2,272.3h7v7h-7V272.3z M250.5,272.3
	h7v7h-7V272.3z M257.8,272.3h7v7h-7V272.3z M265,272.3h7v7h-7V272.3z M272.2,272.3h7v7h-7V272.3z M279.5,272.3h7v7h-7V272.3z
	 M286.9,272.3h7v7h-7V272.3z M294,272.3h7v7h-7V272.3z M301.4,272.3h7v7h-7V272.3z M308.5,272.3h7v7h-7V272.3z M315.9,272.3h7v7h-7
	V272.3z M323.1,272.3h7v7h-7V272.3z M330.4,272.3h7v7h-7V272.3z M337.6,272.3h7v7h-7V272.3z M344.9,272.3h7v7h-7V272.3z
	 M352.1,272.3h7v7h-7V272.3z M359.4,272.3h7v7h-7V272.3z M366.6,272.3h7v7h-7V272.3z M373.9,272.3h7v7h-7V272.3z M482.9,272.3h7v7
	h-7V272.3z M490,272.3h7v7h-7V272.3z M497.4,272.3h7v7h-7V272.3z M504.6,272.3h7v7h-7V272.3z M511.9,272.3h7v7h-7V272.3z
	 M519.2,272.3h7v7h-7V272.3z M526.4,272.3h7v7h-7V272.3z M533.7,272.3h7v7h-7V272.3z M541,272.3h7v7h-7V272.3z M548.2,272.3h7v7h-7
	V272.3z M555.5,272.3h7v7h-7V272.3z M562.7,272.3h7v7h-7V272.3z M570,272.3h7v7h-7V272.3z M577.2,272.3h7v7h-7V272.3z M584.5,272.3
	h7v7h-7V272.3z M591.8,272.3h7v7h-7V272.3z M599,272.3h7v7h-7V272.3z M606.2,272.3h7v7h-7V272.3z M613.6,272.3h7v7h-7V272.3z
	 M671.6,272.3h7v7h-7V272.3z M693.4,272.3h7v7h-7V272.3z M163.4,279.5h7v7h-7V279.5z M170.6,279.5h7v7h-7V279.5z M185.1,279.5h7v7
	h-7V279.5z M228.8,279.5h7v7h-7V279.5z M236,279.5h7v7h-7V279.5z M243.2,279.5h7v7h-7V279.5z M286.9,279.5h7v7h-7V279.5z M294,279.5
	h7v7h-7V279.5z M337.6,279.5h7v7h-7V279.5z M344.9,279.5h7v7h-7V279.5z M352.1,279.5h7v7h-7V279.5z M359.4,279.5h7v7h-7V279.5z
	 M504.6,279.5h7v7h-7V279.5z M511.9,279.5h7v7h-7V279.5z M533.7,279.5h7v7h-7V279.5z M541,279.5h7v7h-7V279.5z M548.2,279.5h7v7h-7
	V279.5z M591.8,279.5h7v7h-7V279.5z M599,279.5h7v7h-7V279.5z M606.2,279.5h7v7h-7V279.5z M613.6,279.5h7v7h-7V279.5z M671.6,279.5
	h7v7h-7V279.5z M693.4,279.5h7v7h-7V279.5z M163.4,286.8h7v7h-7V286.8z M170.6,286.8h7v7h-7V286.8z M185.1,286.8h7v7h-7V286.8z
	 M228.8,286.8h7v7h-7V286.8z M236,286.8h7v7h-7V286.8z M243.2,286.8h7v7h-7V286.8z M286.9,286.8h7v7h-7V286.8z M294,286.8h7v7h-7
	V286.8z M337.6,286.8h7v7h-7V286.8z M344.9,286.8h7v7h-7V286.8z M504.6,286.8h7v7h-7V286.8z M511.9,286.8h7v7h-7V286.8z
	 M533.7,286.8h7v7h-7V286.8z M541,286.8h7v7h-7V286.8z M599,286.8h7v7h-7V286.8z M606.2,286.8h7v7h-7V286.8z M671.6,286.8h7v7h-7
	V286.8z M693.4,286.8h7v7h-7V286.8z M700.7,286.8h7v7h-7V286.8z M163.4,294.1h7v7h-7V294.1z M170.6,294.1h7v7h-7V294.1z
	 M185.1,294.1h7v7h-7V294.1z M228.8,294.1h7v7h-7V294.1z M236,294.1h7v7h-7V294.1z M286.9,294.1h7v7h-7V294.1z M294,294.1h7v7h-7
	V294.1z M344.9,294.1h7v7h-7V294.1z M504.6,294.1h7v7h-7V294.1z M541,294.1h7v7h-7V294.1z M599,294.1h7v7h-7V294.1z M606.2,294.1h7
	v7h-7V294.1z M671.6,294.1h7v7h-7V294.1z M693.4,294.1h7v7h-7V294.1z M185.1,301.3h7v7h-7V301.3z M228.8,301.3h7v7h-7V301.3z
	 M236,301.3h7v7h-7V301.3z M294,301.3h7v7h-7V301.3z M344.9,301.3h7v7h-7V301.3z M504.6,301.3h7v7h-7V301.3z M541,301.3h7v7h-7
	V301.3z M599,301.3h7v7h-7V301.3z M606.2,301.3h7v7h-7V301.3z M671.6,301.3h7v7h-7V301.3z M693.4,301.3h7v7h-7V301.3z M185.1,308.6
	h7v7h-7V308.6z M228.8,308.6h7v7h-7V308.6z M236,308.6h7v7h-7V308.6z M294,308.6h7v7h-7V308.6z M344.9,308.6h7v7h-7V308.6z
	 M504.6,308.6h7v7h-7V308.6z M599,308.6h7v7h-7V308.6z M606.2,308.6h7v7h-7V308.6z M671.6,308.6h7v7h-7V308.6z M693.4,308.6h7v7h-7
	V308.6z M185.1,315.8h7v7h-7V315.8z M228.8,315.8h7v7h-7V315.8z M236,315.8h7v7h-7V315.8z M294,315.8h7v7h-7V315.8z M344.9,315.8h7
	v7h-7V315.8z M504.6,315.8h7v7h-7V315.8z M599,315.8h7v7h-7V315.8z M671.6,315.8h7v7h-7V315.8z M693.4,315.8h7v7h-7V315.8z
	 M185.1,323.1h7v7h-7V323.1z M228.8,323.1h7v7h-7V323.1z M236,323.1h7v7h-7V323.1z M344.9,323.1h7v7h-7V323.1z M504.6,323.1h7v7h-7
	V323.1z M533.7,323.1h7v7h-7V323.1z M599,323.1h7v7h-7V323.1z M671.6,323.1h7v7h-7V323.1z M693.4,323.1h7v7h-7V323.1z M228.8,330.4
	h7v7h-7V330.4z M236,330.4h7v7h-7V330.4z M344.9,330.4h7v7h-7V330.4z M504.6,330.4h7v7h-7V330.4z M599,330.4h7v7h-7V330.4z
	 M693.4,330.4h7v7h-7V330.4z M228.8,337.6h7v7h-7V337.6z M236,337.6h7v7h-7V337.6z M344.9,337.6h7v7h-7V337.6z M504.6,337.6h7v7h-7
	V337.6z M599,337.6h7v7h-7V337.6z M693.4,337.6h7v7h-7V337.6z M228.8,344.9h7v7h-7V344.9z M236,344.9h7v7h-7V344.9z M344.9,344.9h7
	v7h-7V344.9z M599,344.9h7v7h-7V344.9z M693.4,344.9h7v7h-7V344.9z M228.8,352.1h7v7h-7V352.1z M236,352.1h7v7h-7V352.1z
	 M344.9,352.1h7v7h-7V352.1z M599,352.1h7v7h-7V352.1z M693.4,352.1h7v7h-7V352.1z M228.8,359.4h7v7h-7V359.4z M236,359.4h7v7h-7
	V359.4z M344.9,359.4h7v7h-7V359.4z M591.8,359.4h7v7h-7V359.4z M599,359.4h7v7h-7V359.4z M228.8,366.7h7v7h-7V366.7z M236,366.7h7
	v7h-7V366.7z M599,366.7h7v7h-7V366.7z M228.8,373.9h7v7h-7V373.9z M236,373.9h7v7h-7V373.9z M599,373.9h7v7h-7V373.9z M228.8,381.2
	h7v7h-7V381.2z M236,381.2h7v7h-7V381.2z M504.6,381.2h7v7h-7V381.2z M599,381.2h7v7h-7V381.2z M228.8,388.4h7v7h-7V388.4z
	 M236,388.4h7v7h-7V388.4z M599,388.4h7v7h-7V388.4z M228.8,395.7h7v7h-7V395.7z M236,395.7h7v7h-7V395.7z M599,395.7h7v7h-7V395.7z
	 M228.8,403h7v7h-7V403z M236,403h7v7h-7V403z M599,403h7v7h-7V403z M606.2,403h7v7h-7V403z M236,410.2h7v7h-7V410.2z M599,410.2h7
	v7h-7V410.2z M606.2,410.2h7v7h-7V410.2z M228.8,417.5h7v7h-7V417.5z M236,417.5h7v7h-7V417.5z M599,417.5h7v7h-7V417.5z
	 M606.2,417.5h7v7h-7V417.5z M228.8,424.7h7v7h-7V424.7z M599,424.7h7v7h-7V424.7z M606.2,424.7h7v7h-7V424.7z M228.8,432h7v7h-7
	V432z M236,432h7v7h-7V432z M599,432h7v7h-7V432z M606.2,432h7v7h-7V432z M228.8,439.3h7v7h-7V439.3z M599,439.3h7v7h-7V439.3z
	 M606.2,439.3h7v7h-7V439.3z M228.8,446.5h7v7h-7V446.5z M599,446.5h7v7h-7V446.5z M606.2,446.5h7v7h-7V446.5z M228.8,453.8h7v7h-7
	V453.8z M599,453.8h7v7h-7V453.8z M228.8,461h7v7h-7V461z M599,461h7v7h-7V461z M228.8,468.3h7v7h-7V468.3z M599,468.3h7v7h-7V468.3
	z M228.8,475.6h7v7h-7V475.6z M599,475.6h7v7h-7V475.6z M228.8,482.8h7v7h-7V482.8z M599,482.8h7v7h-7V482.8z M228.8,490.1h7v7h-7
	V490.1z M599,490.1h7v7h-7V490.1z M599,497.3h7v7h-7V497.3z M599,504.6h7v7h-7V504.6z M236,511.9h7v7h-7V511.9z M599,511.9h7v7h-7
	V511.9z M236,519h7v7h-7V519z M599,519h7v7h-7V519z M236,526.3h7v7h-7V526.3z M599,526.3h7v7h-7V526.3z M236,533.5h7v7h-7V533.5z
	 M236,540.8h7v7h-7V540.8z M236,548.1h7v7h-7V548.1z M236,555.3h7v7h-7V555.3z"/>
</svg>
