<?xml version="1.0" encoding="utf-8"?>
<!-- Generator: Adobe Illustrator 27.3.1, SVG Export Plug-In . SVG Version: 6.00 Build 0)  -->
<svg version="1.1" id="Слой_1" xmlns:ev="http://www.w3.org/2001/xml-events"
	 xmlns="http://www.w3.org/2000/svg" xmlns:xlink="http://www.w3.org/1999/xlink" x="0px" y="0px" viewBox="0 0 871 595"
	 style="enable-background:new 0 0 871 595;" xml:space="preserve">
<style type="text/css">
	.st0{fill:#1E0E01;}
</style>
<path class="st0" d="M497.3,130.6h7v7h-7V130.6z M504.6,130.6h7v7h-7V130.6z M511.9,130.6h7v7h-7L511.9,130.6L511.9,130.6z
	 M519.1,130.6h7v7h-7V130.6z M526.4,130.6h7v7h-7V130.6z M533.6,130.6h7v7h-7V130.6z M540.9,130.6h7v7h-7V130.6z M548.2,130.6h7v7
	h-7V130.6z M555.4,130.6h7v7h-7V130.6z M562.7,130.6h7v7h-7V130.6z M417.5,137.9h7v7h-7V137.9z M424.7,137.9h7v7h-7V137.9z
	 M432,137.9h7v7h-7V137.9z M439.3,137.9h7v7h-7V137.9z M446.5,137.9h7v7h-7V137.9z M453.8,137.9h7v7h-7V137.9z M461,137.9h7v7h-7
	V137.9z M468.3,137.9h7v7h-7V137.9z M475.6,137.9h7v7h-7V137.9z M482.8,137.9h7v7h-7V137.9z M490.1,137.9h7v7h-7V137.9z
	 M497.3,137.9h7v7h-7V137.9z M584.5,137.9h7v7h-7V137.9z M591.7,137.9h7v7h-7V137.9z M599,137.9h7v7h-7V137.9z M606.2,137.9h7v7h-7
	V137.9z M613.5,137.9h7v7h-7V137.9z M620.8,137.9h7v7h-7V137.9z M388.4,145.2h7v7h-7V145.2z M395.7,145.2h7v7h-7V145.2z M403,145.2
	h7v7h-7V145.2z M410.2,145.2h7v7h-7V145.2z M511.9,145.2h7v7h-7L511.9,145.2L511.9,145.2z M519.1,145.2h7v7h-7V145.2z M526.4,145.2
	h7v7h-7V145.2z M628,145.2h7v7h-7V145.2z M635.3,145.2h7v7h-7V145.2z M642.5,145.2h7v7h-7V145.2z M381.2,152.4h7v7h-7V152.4z
	 M410.2,152.4h7v7h-7V152.4z M417.5,152.4h7v7h-7V152.4z M424.7,152.4h7v7h-7V152.4z M432,152.4h7v7h-7V152.4z M439.3,152.4h7v7h-7
	V152.4z M446.5,152.4h7v7h-7V152.4z M453.8,152.4h7v7h-7V152.4z M461,152.4h7v7h-7V152.4z M468.3,152.4h7v7h-7V152.4z M475.6,152.4
	h7v7h-7V152.4z M482.8,152.4h7v7h-7V152.4z M490.1,152.4h7v7h-7V152.4z M497.3,152.4h7v7h-7V152.4z M504.6,152.4h7v7h-7V152.4z
	 M511.9,152.4h7v7h-7L511.9,152.4L511.9,152.4z M519.1,152.4h7v7h-7V152.4z M526.4,152.4h7v7h-7V152.4z M533.6,152.4h7v7h-7V152.4z
	 M540.9,152.4h7v7h-7V152.4z M548.2,152.4h7v7h-7V152.4z M555.4,152.4h7v7h-7V152.4z M562.7,152.4h7v7h-7V152.4z M569.9,152.4h7v7
	h-7V152.4z M577.2,152.4h7v7h-7V152.4z M657.1,152.4h7v7h-7V152.4z M373.9,159.7h7v7h-7V159.7z M388.4,159.7h7v7h-7V159.7z
	 M395.7,159.7h7v7h-7V159.7z M403,159.7h7v7h-7V159.7z M410.2,159.7h7v7h-7V159.7z M417.5,159.7h7v7h-7V159.7z M424.7,159.7h7v7h-7
	V159.7z M432,159.7h7v7h-7V159.7z M439.3,159.7h7v7h-7V159.7z M446.5,159.7h7v7h-7V159.7z M453.8,159.7h7v7h-7V159.7z M461,159.7h7
	v7h-7V159.7z M468.3,159.7h7v7h-7V159.7z M475.6,159.7h7v7h-7V159.7z M482.8,159.7h7v7h-7V159.7z M490.1,159.7h7v7h-7V159.7z
	 M497.3,159.7h7v7h-7V159.7z M504.6,159.7h7v7h-7V159.7z M511.9,159.7h7v7h-7L511.9,159.7L511.9,159.7z M519.1,159.7h7v7h-7V159.7z
	 M526.4,159.7h7v7h-7V159.7z M533.6,159.7h7v7h-7V159.7z M540.9,159.7h7v7h-7V159.7z M548.2,159.7h7v7h-7V159.7z M555.4,159.7h7v7
	h-7V159.7z M562.7,159.7h7v7h-7V159.7z M569.9,159.7h7v7h-7V159.7z M599,159.7h7v7h-7V159.7z M606.2,159.7h7v7h-7V159.7z
	 M613.5,159.7h7v7h-7V159.7z M620.8,159.7h7v7h-7V159.7z M628,159.7h7v7h-7V159.7z M664.3,159.7h7v7h-7V159.7z M671.6,159.7h7v7h-7
	V159.7z M359.4,166.9h7v7h-7V166.9z M366.7,166.9h7v7h-7V166.9z M381.2,166.9h7v7h-7V166.9z M388.4,166.9h7v7h-7V166.9z
	 M395.7,166.9h7v7h-7V166.9z M403,166.9h7v7h-7V166.9z M410.2,166.9h7v7h-7V166.9z M417.5,166.9h7v7h-7V166.9z M424.7,166.9h7v7h-7
	V166.9z M432,166.9h7v7h-7V166.9z M439.3,166.9h7v7h-7V166.9z M446.5,166.9h7v7h-7V166.9z M453.8,166.9h7v7h-7V166.9z M461,166.9h7
	v7h-7V166.9z M468.3,166.9h7v7h-7V166.9z M475.6,166.9h7v7h-7V166.9z M482.8,166.9h7v7h-7V166.9z M490.1,166.9h7v7h-7V166.9z
	 M497.3,166.9h7v7h-7V166.9z M504.6,166.9h7v7h-7V166.9z M511.9,166.9h7v7h-7L511.9,166.9L511.9,166.9z M519.1,166.9h7v7h-7V166.9z
	 M526.4,166.9h7v7h-7V166.9z M533.6,166.9h7v7h-7V166.9z M540.9,166.9h7v7h-7V166.9z M548.2,166.9h7v7h-7V166.9z M555.4,166.9h7v7
	h-7V166.9z M562.7,166.9h7v7h-7V166.9z M569.9,166.9h7v7h-7V166.9z M591.7,166.9h7v7h-7V166.9z M599,166.9h7v7h-7V166.9z
	 M606.2,166.9h7v7h-7V166.9z M613.5,166.9h7v7h-7V166.9z M620.8,166.9h7v7h-7V166.9z M628,166.9h7v7h-7V166.9z M635.3,166.9h7v7h-7
	V166.9z M642.5,166.9h7v7h-7V166.9z M649.8,166.9h7v7h-7V166.9z M678.8,166.9h7v7h-7V166.9z M352.1,174.2h7v7h-7V174.2z
	 M359.4,174.2h7v7h-7V174.2z M373.9,174.2h7v7h-7V174.2z M381.2,174.2h7v7h-7V174.2z M388.4,174.2h7v7h-7V174.2z M395.7,174.2h7v7
	h-7V174.2z M403,174.2h7v7h-7V174.2z M410.2,174.2h7v7h-7V174.2z M417.5,174.2h7v7h-7V174.2z M424.7,174.2h7v7h-7V174.2z M432,174.2
	h7v7h-7V174.2z M439.3,174.2h7v7h-7V174.2z M446.5,174.2h7v7h-7V174.2z M453.8,174.2h7v7h-7V174.2z M461,174.2h7v7h-7V174.2z
	 M468.3,174.2h7v7h-7V174.2z M475.6,174.2h7v7h-7V174.2z M482.8,174.2h7v7h-7V174.2z M490.1,174.2h7v7h-7V174.2z M497.3,174.2h7v7
	h-7V174.2z M504.6,174.2h7v7h-7V174.2z M511.9,174.2h7v7h-7L511.9,174.2L511.9,174.2z M519.1,174.2h7v7h-7V174.2z M526.4,174.2h7v7
	h-7V174.2z M533.6,174.2h7v7h-7V174.2z M540.9,174.2h7v7h-7V174.2z M548.2,174.2h7v7h-7V174.2z M555.4,174.2h7v7h-7V174.2z
	 M562.7,174.2h7v7h-7V174.2z M569.9,174.2h7v7h-7V174.2z M591.7,174.2h7v7h-7V174.2z M599,174.2h7v7h-7V174.2z M606.2,174.2h7v7h-7
	V174.2z M613.5,174.2h7v7h-7V174.2z M620.8,174.2h7v7h-7V174.2z M628,174.2h7v7h-7V174.2z M635.3,174.2h7v7h-7V174.2z M642.5,174.2
	h7v7h-7V174.2z M649.8,174.2h7v7h-7V174.2z M657.1,174.2h7v7h-7V174.2z M664.3,174.2h7v7h-7V174.2z M686.1,174.2h7v7h-7V174.2z
	 M693.4,174.2h7v7h-7V174.2z M344.9,181.5h7v7h-7V181.5z M352.1,181.5h7v7h-7V181.5z M359.4,181.5h7v7h-7V181.5z M366.7,181.5h7v7
	h-7V181.5z M373.9,181.5h7v7h-7V181.5z M381.2,181.5h7v7h-7V181.5z M388.4,181.5h7v7h-7V181.5z M395.7,181.5h7v7h-7V181.5z
	 M403,181.5h7v7h-7V181.5z M410.2,181.5h7v7h-7V181.5z M417.5,181.5h7v7h-7V181.5z M424.7,181.5h7v7h-7V181.5z M432,181.5h7v7h-7
	V181.5z M439.3,181.5h7v7h-7V181.5z M446.5,181.5h7v7h-7V181.5z M453.8,181.5h7v7h-7V181.5z M461,181.5h7v7h-7V181.5z M468.3,181.5
	h7v7h-7V181.5z M475.6,181.5h7v7h-7V181.5z M482.8,181.5h7v7h-7V181.5z M490.1,181.5h7v7h-7V181.5z M497.3,181.5h7v7h-7V181.5z
	 M504.6,181.5h7v7h-7V181.5z M511.9,181.5h7v7h-7L511.9,181.5L511.9,181.5z M519.1,181.5h7v7h-7V181.5z M526.4,181.5h7v7h-7V181.5z
	 M533.6,181.5h7v7h-7V181.5z M540.9,181.5h7v7h-7V181.5z M548.2,181.5h7v7h-7V181.5z M555.4,181.5h7v7h-7V181.5z M562.7,181.5h7v7
	h-7V181.5z M569.9,181.5h7v7h-7V181.5z M591.7,181.5h7v7h-7V181.5z M599,181.5h7v7h-7V181.5z M606.2,181.5h7v7h-7V181.5z
	 M613.5,181.5h7v7h-7V181.5z M620.8,181.5h7v7h-7V181.5z M628,181.5h7v7h-7V181.5z M635.3,181.5h7v7h-7V181.5z M642.5,181.5h7v7h-7
	V181.5z M649.8,181.5h7v7h-7V181.5z M657.1,181.5h7v7h-7V181.5z M664.3,181.5h7v7h-7V181.5z M671.6,181.5h7v7h-7V181.5z
	 M678.8,181.5h7v7h-7V181.5z M693.4,181.5h7v7h-7V181.5z M700.6,181.5h7v7h-7V181.5z M315.8,188.7h7v7h-7V188.7z M323.1,188.7h7v7
	h-7V188.7z M330.4,188.7h7v7h-7V188.7z M337.6,188.7h7v7h-7V188.7z M344.9,188.7h7v7h-7V188.7z M352.1,188.7h7v7h-7V188.7z
	 M359.4,188.7h7v7h-7V188.7z M366.7,188.7h7v7h-7V188.7z M373.9,188.7h7v7h-7V188.7z M381.2,188.7h7v7h-7V188.7z M388.4,188.7h7v7
	h-7V188.7z M395.7,188.7h7v7h-7V188.7z M403,188.7h7v7h-7V188.7z M410.2,188.7h7v7h-7V188.7z M417.5,188.7h7v7h-7V188.7z
	 M424.7,188.7h7v7h-7V188.7z M432,188.7h7v7h-7V188.7z M439.3,188.7h7v7h-7V188.7z M446.5,188.7h7v7h-7V188.7z M453.8,188.7h7v7h-7
	V188.7z M461,188.7h7v7h-7V188.7z M468.3,188.7h7v7h-7V188.7z M475.6,188.7h7v7h-7V188.7z M482.8,188.7h7v7h-7V188.7z M490.1,188.7
	h7v7h-7V188.7z M497.3,188.7h7v7h-7V188.7z M504.6,188.7h7v7h-7V188.7z M511.9,188.7h7v7h-7L511.9,188.7L511.9,188.7z M519.1,188.7
	h7v7h-7V188.7z M526.4,188.7h7v7h-7V188.7z M533.6,188.7h7v7h-7V188.7z M540.9,188.7h7v7h-7V188.7z M548.2,188.7h7v7h-7V188.7z
	 M555.4,188.7h7v7h-7V188.7z M562.7,188.7h7v7h-7V188.7z M591.7,188.7h7v7h-7V188.7z M599,188.7h7v7h-7V188.7z M606.2,188.7h7v7h-7
	V188.7z M613.5,188.7h7v7h-7V188.7z M620.8,188.7h7v7h-7V188.7z M628,188.7h7v7h-7V188.7z M635.3,188.7h7v7h-7V188.7z M642.5,188.7
	h7v7h-7V188.7z M649.8,188.7h7v7h-7V188.7z M657.1,188.7h7v7h-7V188.7z M678.8,188.7h7v7h-7V188.7z M686.1,188.7h7v7h-7V188.7z
	 M707.9,188.7h7v7h-7V188.7z M715.1,188.7h7v7h-7V188.7z M308.6,196h7v7h-7V196z M315.8,196h7v7h-7V196z M330.4,196h7v7h-7V196z
	 M337.6,196h7v7h-7V196z M344.9,196h7v7h-7V196z M352.1,196h7v7h-7V196z M359.4,196h7v7h-7V196z M366.7,196h7v7h-7V196z M373.9,196
	h7v7h-7V196z M381.2,196h7v7h-7V196z M388.4,196h7v7h-7V196z M395.7,196h7v7h-7V196z M403,196h7v7h-7V196z M410.2,196h7v7h-7V196z
	 M417.5,196h7v7h-7V196z M424.7,196h7v7h-7V196z M432,196h7v7h-7V196z M439.3,196h7v7h-7V196z M446.5,196h7v7h-7V196z M453.8,196h7
	v7h-7V196z M461,196h7v7h-7V196z M468.3,196h7v7h-7V196z M475.6,196h7v7h-7V196z M482.8,196h7v7h-7V196z M490.1,196h7v7h-7V196z
	 M497.3,196h7v7h-7V196z M504.6,196h7v7h-7V196z M511.9,196h7v7h-7L511.9,196L511.9,196z M519.1,196h7v7h-7V196z M526.4,196h7v7h-7
	V196z M533.6,196h7v7h-7V196z M540.9,196h7v7h-7V196z M548.2,196h7v7h-7V196z M555.4,196h7v7h-7V196z M562.7,196h7v7h-7V196z
	 M584.5,196h7v7h-7V196z M591.7,196h7v7h-7V196z M599,196h7v7h-7V196z M649.8,196h7v7h-7V196z M657.1,196h7v7h-7V196z M671.6,196h7
	v7h-7V196z M686.1,196h7v7h-7V196z M707.9,196h7v7h-7V196z M715.1,196h7v7h-7V196z M722.4,196h7v7h-7V196z M308.6,203.2h7v7h-7
	V203.2z M337.6,203.2h7v7h-7V203.2z M344.9,203.2h7v7h-7V203.2z M352.1,203.2h7v7h-7V203.2z M359.4,203.2h7v7h-7V203.2z
	 M366.7,203.2h7v7h-7V203.2z M373.9,203.2h7v7h-7V203.2z M381.2,203.2h7v7h-7V203.2z M388.4,203.2h7v7h-7V203.2z M395.7,203.2h7v7
	h-7V203.2z M403,203.2h7v7h-7V203.2z M410.2,203.2h7v7h-7V203.2z M417.5,203.2h7v7h-7V203.2z M424.7,203.2h7v7h-7V203.2z M432,203.2
	h7v7h-7V203.2z M439.3,203.2h7v7h-7V203.2z M446.5,203.2h7v7h-7V203.2z M453.8,203.2h7v7h-7V203.2z M461,203.2h7v7h-7V203.2z
	 M468.3,203.2h7v7h-7V203.2z M475.6,203.2h7v7h-7V203.2z M482.8,203.2h7v7h-7V203.2z M490.1,203.2h7v7h-7V203.2z M497.3,203.2h7v7
	h-7V203.2z M504.6,203.2h7v7h-7V203.2z M511.9,203.2h7v7h-7L511.9,203.2L511.9,203.2z M519.1,203.2h7v7h-7V203.2z M526.4,203.2h7v7
	h-7V203.2z M533.6,203.2h7v7h-7V203.2z M540.9,203.2h7v7h-7V203.2z M548.2,203.2h7v7h-7V203.2z M555.4,203.2h7v7h-7V203.2z
	 M562.7,203.2h7v7h-7V203.2z M584.5,203.2h7v7h-7V203.2z M591.7,203.2h7v7h-7V203.2z M599,203.2h7v7h-7V203.2z M649.8,203.2h7v7h-7
	V203.2z M657.1,203.2h7v7h-7V203.2z M664.3,203.2h7v7h-7V203.2z M671.6,203.2h7v7h-7V203.2z M678.8,203.2h7v7h-7V203.2z
	 M686.1,203.2h7v7h-7V203.2z M715.1,203.2h7v7h-7V203.2z M729.7,203.2h7v7h-7V203.2z M170.6,210.5h7v7h-7V210.5z M177.9,210.5h7v7
	h-7V210.5z M185.2,210.5h7v7h-7V210.5z M192.4,210.5h7v7h-7V210.5z M199.7,210.5h7v7h-7V210.5z M206.9,210.5h7v7h-7V210.5z
	 M214.2,210.5h7v7h-7V210.5z M221.5,210.5h7v7h-7V210.5z M228.7,210.5h7v7h-7V210.5z M236,210.5h7v7h-7V210.5z M243.2,210.5h7v7h-7
	V210.5z M250.5,210.5h7v7h-7V210.5z M257.8,210.5h7v7h-7V210.5z M265,210.5h7v7h-7V210.5z M272.3,210.5h7v7h-7V210.5z M279.5,210.5
	h7v7h-7V210.5z M286.8,210.5h7v7h-7V210.5z M294.1,210.5h7v7h-7V210.5z M301.3,210.5h7v7h-7V210.5z M308.6,210.5h7v7h-7V210.5z
	 M330.4,210.5h7v7h-7V210.5z M417.5,210.5h7v7h-7V210.5z M424.7,210.5h7v7h-7V210.5z M432,210.5h7v7h-7V210.5z M439.3,210.5h7v7h-7
	V210.5z M446.5,210.5h7v7h-7V210.5z M453.8,210.5h7v7h-7V210.5z M461,210.5h7v7h-7V210.5z M497.3,210.5h7v7h-7V210.5z M504.6,210.5
	h7v7h-7V210.5z M511.9,210.5h7v7h-7L511.9,210.5L511.9,210.5z M519.1,210.5h7v7h-7V210.5z M526.4,210.5h7v7h-7V210.5z M533.6,210.5
	h7v7h-7V210.5z M540.9,210.5h7v7h-7V210.5z M548.2,210.5h7v7h-7V210.5z M555.4,210.5h7v7h-7V210.5z M584.5,210.5h7v7h-7V210.5z
	 M591.7,210.5h7v7h-7V210.5z M599,210.5h7v7h-7V210.5z M642.5,210.5h7v7h-7V210.5z M649.8,210.5h7v7h-7V210.5z M657.1,210.5h7v7h-7
	V210.5z M664.3,210.5h7v7h-7V210.5z M671.6,210.5h7v7h-7V210.5z M678.8,210.5h7v7h-7V210.5z M686.1,210.5h7v7h-7V210.5z
	 M736.9,210.5h7v7h-7V210.5z M141.6,217.8h7v7h-7V217.8z M148.9,217.8h7v7h-7V217.8z M156.1,217.8h7v7h-7V217.8z M279.5,217.8h7v7
	h-7V217.8z M352.1,217.8h7v7h-7V217.8z M359.4,217.8h7v7h-7V217.8z M366.7,217.8h7v7h-7V217.8z M373.9,217.8h7v7h-7V217.8z
	 M381.2,217.8h7v7h-7V217.8z M584.5,217.8h7v7h-7V217.8z M591.7,217.8h7v7h-7V217.8z M613.5,217.8h7v7h-7V217.8z M620.8,217.8h7v7
	h-7V217.8z M628,217.8h7v7h-7V217.8z M635.3,217.8h7v7h-7V217.8z M642.5,217.8h7v7h-7V217.8z M649.8,217.8h7v7h-7V217.8z
	 M657.1,217.8h7v7h-7V217.8z M664.3,217.8h7v7h-7V217.8z M671.6,217.8h7v7h-7V217.8z M678.8,217.8h7v7h-7V217.8z M686.1,217.8h7v7
	h-7V217.8z M744.2,217.8h7v7h-7V217.8z M112.6,225h7v7h-7V225z M119.8,225h7v7h-7V225z M127.1,225h7v7h-7
	C127.1,232,127.1,225,127.1,225z M134.3,225h7v7h-7V225z M613.5,225h7v7h-7V225z M620.8,225h7v7h-7V225z M628,225h7v7h-7V225z
	 M635.3,225h7v7h-7V225z M642.5,225h7v7h-7V225z M649.8,225h7v7h-7V225z M657.1,225h7v7h-7V225z M664.3,225h7v7h-7V225z M671.6,225
	h7v7h-7V225z M678.8,225h7v7h-7V225z M751.4,225h7v7h-7V225z M105.3,232.3h7v7h-7V232.3z M112.6,232.3h7v7h-7V232.3z M758.7,232.3h7
	v7h-7V232.3z M766,232.3h7v7h-7V232.3z M773.2,232.3h7v7h-7V232.3z M98,239.5h7v7h-7V239.5z M105.3,239.5h7v7h-7V239.5z
	 M112.6,239.5h7v7h-7V239.5z M119.8,239.5h7v7h-7V239.5z M127.1,239.5h7v7h-7C127.1,246.5,127.1,239.5,127.1,239.5z M134.3,239.5h7
	v7h-7V239.5z M780.5,239.5h7v7h-7V239.5z M787.7,239.5h7v7h-7V239.5z M90.8,246.8h7v7h-7V246.8z M98,246.8h7v7h-7V246.8z
	 M105.3,246.8h7v7h-7V246.8z M112.6,246.8h7v7h-7V246.8z M119.8,246.8h7v7h-7V246.8z M127.1,246.8h7v7h-7
	C127.1,253.8,127.1,246.8,127.1,246.8z M134.3,246.8h7v7h-7V246.8z M352.1,246.8h7v7h-7V246.8z M359.4,246.8h7v7h-7V246.8z
	 M366.7,246.8h7v7h-7V246.8z M373.9,246.8h7v7h-7V246.8z M686.1,246.8h7v7h-7V246.8z M693.4,246.8h7v7h-7V246.8z M795,246.8h7v7h-7
	V246.8z M83.5,254.1h7v7h-7V254.1z M90.8,254.1h7v7h-7V254.1z M98,254.1h7v7h-7V254.1z M105.3,254.1h7v7h-7V254.1z M344.9,254.1h7v7
	h-7V254.1z M352.1,254.1h7v7h-7V254.1z M359.4,254.1h7v7h-7V254.1z M366.7,254.1h7v7h-7V254.1z M373.9,254.1h7v7h-7V254.1z
	 M381.2,254.1h7v7h-7V254.1z M693.4,254.1h7v7h-7V254.1z M795,254.1h7v7h-7V254.1z M802.3,254.1h7v7h-7V254.1z M76.3,261.3h7v7h-7
	V261.3z M83.5,261.3h7v7h-7V261.3z M90.8,261.3h7v7h-7V261.3z M98,261.3h7v7h-7V261.3z M134.3,261.3h7v7h-7V261.3z M337.6,261.3h7v7
	h-7V261.3z M344.9,261.3h7v7h-7V261.3z M352.1,261.3h7v7h-7V261.3z M359.4,261.3h7v7h-7V261.3z M482.8,261.3h7v7h-7V261.3z
	 M490.1,261.3h7v7h-7V261.3z M497.3,261.3h7v7h-7V261.3z M548.2,261.3h7v7h-7V261.3z M555.4,261.3h7v7h-7V261.3z M562.7,261.3h7v7
	h-7V261.3z M802.3,261.3h7v7h-7V261.3z M69,268.6h7v7h-7V268.6z M76.3,268.6h7v7h-7V268.6z M83.5,268.6h7v7h-7V268.6z M90.8,268.6h7
	v7h-7V268.6z M127.1,268.6h7v7h-7C127.1,275.6,127.1,268.6,127.1,268.6z M330.4,268.6h7v7h-7V268.6z M337.6,268.6h7v7h-7V268.6z
	 M344.9,268.6h7v7h-7V268.6z M352.1,268.6h7v7h-7V268.6z M381.2,268.6h7v7h-7V268.6z M475.6,268.6h7v7h-7V268.6z M482.8,268.6h7v7
	h-7V268.6z M490.1,268.6h7v7h-7V268.6z M497.3,268.6h7v7h-7V268.6z M504.6,268.6h7v7h-7V268.6z M548.2,268.6h7v7h-7V268.6z
	 M555.4,268.6h7v7h-7V268.6z M562.7,268.6h7v7h-7V268.6z M802.3,268.6h7v7h-7V268.6z M69,275.8h7v7h-7V275.8z M76.3,275.8h7v7h-7
	V275.8z M83.5,275.8h7v7h-7V275.8z M90.8,275.8h7v7h-7V275.8z M98,275.8h7v7h-7V275.8z M105.3,275.8h7v7h-7V275.8z M112.6,275.8h7v7
	h-7V275.8z M119.8,275.8h7v7h-7V275.8z M148.9,275.8h7v7h-7V275.8z M323.1,275.8h7v7h-7V275.8z M330.4,275.8h7v7h-7V275.8z
	 M337.6,275.8h7v7h-7V275.8z M344.9,275.8h7v7h-7V275.8z M373.9,275.8h7v7h-7V275.8z M381.2,275.8h7v7h-7V275.8z M468.3,275.8h7v7
	h-7V275.8z M475.6,275.8h7v7h-7V275.8z M482.8,275.8h7v7h-7V275.8z M490.1,275.8h7v7h-7V275.8z M497.3,275.8h7v7h-7V275.8z
	 M504.6,275.8h7v7h-7V275.8z M511.9,275.8h7v7h-7L511.9,275.8L511.9,275.8z M548.2,275.8h7v7h-7V275.8z M555.4,275.8h7v7h-7V275.8z
	 M562.7,275.8h7v7h-7V275.8z M751.4,275.8h7v7h-7V275.8z M758.7,275.8h7v7h-7V275.8z M766,275.8h7v7h-7V275.8z M802.3,275.8h7v7h-7
	V275.8z M61.7,283.1h7v7h-7C61.7,290.1,61.7,283.1,61.7,283.1z M69,283.1h7v7h-7V283.1z M76.3,283.1h7v7h-7V283.1z M83.5,283.1h7v7
	h-7V283.1z M90.8,283.1h7v7h-7V283.1z M98,283.1h7v7h-7V283.1z M105.3,283.1h7v7h-7V283.1z M112.6,283.1h7v7h-7V283.1z M315.8,283.1
	h7v7h-7V283.1z M323.1,283.1h7v7h-7V283.1z M330.4,283.1h7v7h-7V283.1z M337.6,283.1h7v7h-7V283.1z M344.9,283.1h7v7h-7V283.1z
	 M352.1,283.1h7v7h-7V283.1z M359.4,283.1h7v7h-7V283.1z M366.7,283.1h7v7h-7V283.1z M373.9,283.1h7v7h-7V283.1z M410.2,283.1h7v7
	h-7V283.1z M461,283.1h7v7h-7V283.1z M468.3,283.1h7v7h-7V283.1z M475.6,283.1h7v7h-7V283.1z M482.8,283.1h7v7h-7V283.1z
	 M490.1,283.1h7v7h-7V283.1z M497.3,283.1h7v7h-7V283.1z M504.6,283.1h7v7h-7V283.1z M511.9,283.1h7v7h-7L511.9,283.1L511.9,283.1z
	 M519.1,283.1h7v7h-7V283.1z M555.4,283.1h7v7h-7V283.1z M562.7,283.1h7v7h-7V283.1z M569.9,283.1h7v7h-7V283.1z M751.4,283.1h7v7
	h-7V283.1z M758.7,283.1h7v7h-7V283.1z M766,283.1h7v7h-7V283.1z M773.2,283.1h7v7h-7V283.1z M802.3,283.1h7v7h-7V283.1z
	 M61.7,290.4h7v7h-7C61.7,297.4,61.7,290.4,61.7,290.4z M69,290.4h7v7h-7V290.4z M76.3,290.4h7v7h-7V290.4z M83.5,290.4h7v7h-7
	V290.4z M90.8,290.4h7v7h-7V290.4z M98,290.4h7v7h-7V290.4z M105.3,290.4h7v7h-7V290.4z M308.6,290.4h7v7h-7V290.4z M315.8,290.4h7
	v7h-7V290.4z M323.1,290.4h7v7h-7V290.4z M330.4,290.4h7v7h-7V290.4z M337.6,290.4h7v7h-7V290.4z M344.9,290.4h7v7h-7V290.4z
	 M352.1,290.4h7v7h-7V290.4z M359.4,290.4h7v7h-7V290.4z M366.7,290.4h7v7h-7V290.4z M410.2,290.4h7v7h-7V290.4z M417.5,290.4h7v7
	h-7V290.4z M461,290.4h7v7h-7V290.4z M468.3,290.4h7v7h-7V290.4z M475.6,290.4h7v7h-7V290.4z M482.8,290.4h7v7h-7V290.4z
	 M490.1,290.4h7v7h-7V290.4z M497.3,290.4h7v7h-7V290.4z M504.6,290.4h7v7h-7V290.4z M511.9,290.4h7v7h-7L511.9,290.4L511.9,290.4z
	 M519.1,290.4h7v7h-7V290.4z M555.4,290.4h7v7h-7V290.4z M562.7,290.4h7v7h-7V290.4z M569.9,290.4h7v7h-7V290.4z M744.2,290.4h7v7
	h-7V290.4z M751.4,290.4h7v7h-7V290.4z M758.7,290.4h7v7h-7V290.4z M766,290.4h7v7h-7V290.4z M773.2,290.4h7v7h-7V290.4z
	 M802.3,290.4h7v7h-7V290.4z M54.5,297.6h7v7h-7V297.6z M61.7,297.6h7v7h-7C61.7,304.6,61.7,297.6,61.7,297.6z M301.3,297.6h7v7h-7
	V297.6z M308.6,297.6h7v7h-7V297.6z M315.8,297.6h7v7h-7V297.6z M323.1,297.6h7v7h-7V297.6z M330.4,297.6h7v7h-7V297.6z
	 M337.6,297.6h7v7h-7V297.6z M344.9,297.6h7v7h-7V297.6z M352.1,297.6h7v7h-7V297.6z M359.4,297.6h7v7h-7V297.6z M453.8,297.6h7v7
	h-7V297.6z M461,297.6h7v7h-7V297.6z M468.3,297.6h7v7h-7V297.6z M475.6,297.6h7v7h-7V297.6z M482.8,297.6h7v7h-7V297.6z
	 M490.1,297.6h7v7h-7V297.6z M497.3,297.6h7v7h-7V297.6z M504.6,297.6h7v7h-7V297.6z M511.9,297.6h7v7h-7L511.9,297.6L511.9,297.6z
	 M519.1,297.6h7v7h-7V297.6z M526.4,297.6h7v7h-7V297.6z M744.2,297.6h7v7h-7V297.6z M751.4,297.6h7v7h-7V297.6z M758.7,297.6h7v7
	h-7V297.6z M766,297.6h7v7h-7V297.6z M773.2,297.6h7v7h-7V297.6z M780.5,297.6h7v7h-7V297.6z M802.3,297.6h7v7h-7V297.6z
	 M809.5,297.6h7v7h-7V297.6z M47.2,304.9h7v7h-7V304.9z M54.5,304.9h7v7h-7V304.9z M61.7,304.9h7v7h-7
	C61.7,311.9,61.7,304.9,61.7,304.9z M453.8,304.9h7v7h-7V304.9z M461,304.9h7v7h-7V304.9z M468.3,304.9h7v7h-7V304.9z M475.6,304.9
	h7v7h-7V304.9z M482.8,304.9h7v7h-7V304.9z M497.3,304.9h7v7h-7V304.9z M504.6,304.9h7v7h-7V304.9z M511.9,304.9h7v7h-7L511.9,304.9
	L511.9,304.9z M519.1,304.9h7v7h-7V304.9z M526.4,304.9h7v7h-7V304.9z M736.9,304.9h7v7h-7V304.9z M744.2,304.9h7v7h-7V304.9z
	 M766,304.9h7v7h-7V304.9z M773.2,304.9h7v7h-7V304.9z M780.5,304.9h7v7h-7V304.9z M802.3,304.9h7v7h-7V304.9z M809.5,304.9h7v7h-7
	V304.9z M47.2,312.1h7v7h-7V312.1z M54.5,312.1h7v7h-7V312.1z M61.7,312.1h7v7h-7C61.7,319.1,61.7,312.1,61.7,312.1z M69,312.1h7v7
	h-7V312.1z M76.3,312.1h7v7h-7V312.1z M83.5,312.1h7v7h-7V312.1z M90.8,312.1h7v7h-7V312.1z M98,312.1h7v7h-7V312.1z M105.3,312.1h7
	v7h-7V312.1z M112.6,312.1h7v7h-7V312.1z M119.8,312.1h7v7h-7V312.1z M127.1,312.1h7v7h-7C127.1,319.1,127.1,312.1,127.1,312.1z
	 M134.3,312.1h7v7h-7V312.1z M141.6,312.1h7v7h-7V312.1z M148.9,312.1h7v7h-7V312.1z M156.1,312.1h7v7h-7V312.1z M163.4,312.1h7v7
	h-7V312.1z M170.6,312.1h7v7h-7V312.1z M177.9,312.1h7v7h-7V312.1z M185.2,312.1h7v7h-7V312.1z M192.4,312.1h7v7h-7V312.1z
	 M199.7,312.1h7v7h-7V312.1z M206.9,312.1h7v7h-7V312.1z M214.2,312.1h7v7h-7V312.1z M221.5,312.1h7v7h-7V312.1z M228.7,312.1h7v7
	h-7V312.1z M236,312.1h7v7h-7V312.1z M381.2,312.1h7v7h-7V312.1z M388.4,312.1h7v7h-7V312.1z M395.7,312.1h7v7h-7V312.1z M403,312.1
	h7v7h-7V312.1z M410.2,312.1h7v7h-7V312.1z M417.5,312.1h7v7h-7V312.1z M424.7,312.1h7v7h-7V312.1z M432,312.1h7v7h-7V312.1z
	 M439.3,312.1h7v7h-7V312.1z M446.5,312.1h7v7h-7V312.1z M453.8,312.1h7v7h-7V312.1z M461,312.1h7v7h-7V312.1z M468.3,312.1h7v7h-7
	V312.1z M475.6,312.1h7v7h-7V312.1z M482.8,312.1h7v7h-7V312.1z M490.1,312.1h7v7h-7V312.1z M504.6,312.1h7v7h-7V312.1z
	 M511.9,312.1h7v7h-7L511.9,312.1L511.9,312.1z M519.1,312.1h7v7h-7V312.1z M526.4,312.1h7v7h-7V312.1z M736.9,312.1h7v7h-7V312.1z
	 M744.2,312.1h7v7h-7V312.1z M758.7,312.1h7v7h-7V312.1z M766,312.1h7v7h-7V312.1z M773.2,312.1h7v7h-7V312.1z M780.5,312.1h7v7h-7
	V312.1z M795,312.1h7v7h-7V312.1z M802.3,312.1h7v7h-7V312.1z M809.5,312.1h7v7h-7V312.1z M54.5,319.4h7v7h-7V319.4z M61.7,319.4h7
	v7h-7C61.7,326.4,61.7,319.4,61.7,319.4z M83.5,319.4h7v7h-7V319.4z M141.6,319.4h7v7h-7V319.4z M148.9,319.4h7v7h-7V319.4z
	 M156.1,319.4h7v7h-7V319.4z M163.4,319.4h7v7h-7V319.4z M170.6,319.4h7v7h-7V319.4z M177.9,319.4h7v7h-7V319.4z M185.2,319.4h7v7
	h-7V319.4z M192.4,319.4h7v7h-7V319.4z M199.7,319.4h7v7h-7V319.4z M206.9,319.4h7v7h-7V319.4z M214.2,319.4h7v7h-7V319.4z
	 M221.5,319.4h7v7h-7V319.4z M228.7,319.4h7v7h-7V319.4z M236,319.4h7v7h-7V319.4z M243.2,319.4h7v7h-7V319.4z M250.5,319.4h7v7h-7
	V319.4z M257.8,319.4h7v7h-7V319.4z M265,319.4h7v7h-7V319.4z M272.3,319.4h7v7h-7V319.4z M279.5,319.4h7v7h-7V319.4z M286.8,319.4
	h7v7h-7V319.4z M294.1,319.4h7v7h-7V319.4z M301.3,319.4h7v7h-7V319.4z M308.6,319.4h7v7h-7V319.4z M315.8,319.4h7v7h-7V319.4z
	 M323.1,319.4h7v7h-7V319.4z M330.4,319.4h7v7h-7V319.4z M337.6,319.4h7v7h-7V319.4z M344.9,319.4h7v7h-7V319.4z M352.1,319.4h7v7
	h-7V319.4z M359.4,319.4h7v7h-7V319.4z M366.7,319.4h7v7h-7V319.4z M373.9,319.4h7v7h-7V319.4z M381.2,319.4h7v7h-7V319.4z
	 M388.4,319.4h7v7h-7V319.4z M395.7,319.4h7v7h-7V319.4z M403,319.4h7v7h-7V319.4z M410.2,319.4h7v7h-7V319.4z M417.5,319.4h7v7h-7
	V319.4z M424.7,319.4h7v7h-7V319.4z M432,319.4h7v7h-7V319.4z M439.3,319.4h7v7h-7V319.4z M446.5,319.4h7v7h-7V319.4z M453.8,319.4
	h7v7h-7V319.4z M461,319.4h7v7h-7V319.4z M468.3,319.4h7v7h-7V319.4z M475.6,319.4h7v7h-7V319.4z M482.8,319.4h7v7h-7V319.4z
	 M490.1,319.4h7v7h-7V319.4z M497.3,319.4h7v7h-7V319.4z M511.9,319.4h7v7h-7L511.9,319.4L511.9,319.4z M519.1,319.4h7v7h-7V319.4z
	 M526.4,319.4h7v7h-7V319.4z M533.6,319.4h7v7h-7V319.4z M736.9,319.4h7v7h-7V319.4z M744.2,319.4h7v7h-7V319.4z M758.7,319.4h7v7
	h-7V319.4z M766,319.4h7v7h-7V319.4z M773.2,319.4h7v7h-7V319.4z M780.5,319.4h7v7h-7V319.4z M802.3,319.4h7v7h-7V319.4z
	 M809.5,319.4h7v7h-7V319.4z M61.7,326.7h7v7h-7C61.7,333.7,61.7,326.7,61.7,326.7z M69,326.7h7v7h-7V326.7z M76.3,326.7h7v7h-7
	V326.7z M83.5,326.7h7v7h-7V326.7z M90.8,326.7h7v7h-7V326.7z M98,326.7h7v7h-7V326.7z M105.3,326.7h7v7h-7V326.7z M112.6,326.7h7v7
	h-7V326.7z M119.8,326.7h7v7h-7V326.7z M127.1,326.7h7v7h-7C127.1,333.7,127.1,326.7,127.1,326.7z M134.3,326.7h7v7h-7V326.7z
	 M141.6,326.7h7v7h-7V326.7z M148.9,326.7h7v7h-7V326.7z M156.1,326.7h7v7h-7V326.7z M163.4,326.7h7v7h-7V326.7z M170.6,326.7h7v7
	h-7V326.7z M177.9,326.7h7v7h-7V326.7z M185.2,326.7h7v7h-7V326.7z M192.4,326.7h7v7h-7V326.7z M199.7,326.7h7v7h-7V326.7z
	 M206.9,326.7h7v7h-7V326.7z M214.2,326.7h7v7h-7V326.7z M221.5,326.7h7v7h-7V326.7z M228.7,326.7h7v7h-7V326.7z M236,326.7h7v7h-7
	V326.7z M243.2,326.7h7v7h-7V326.7z M250.5,326.7h7v7h-7V326.7z M257.8,326.7h7v7h-7V326.7z M265,326.7h7v7h-7V326.7z M272.3,326.7
	h7v7h-7V326.7z M279.5,326.7h7v7h-7V326.7z M308.6,326.7h7v7h-7V326.7z M315.8,326.7h7v7h-7V326.7z M323.1,326.7h7v7h-7V326.7z
	 M337.6,326.7h7v7h-7V326.7z M344.9,326.7h7v7h-7V326.7z M352.1,326.7h7v7h-7V326.7z M359.4,326.7h7v7h-7V326.7z M366.7,326.7h7v7
	h-7V326.7z M373.9,326.7h7v7h-7V326.7z M381.2,326.7h7v7h-7V326.7z M388.4,326.7h7v7h-7V326.7z M395.7,326.7h7v7h-7V326.7z
	 M403,326.7h7v7h-7V326.7z M410.2,326.7h7v7h-7V326.7z M417.5,326.7h7v7h-7V326.7z M424.7,326.7h7v7h-7V326.7z M432,326.7h7v7h-7
	V326.7z M439.3,326.7h7v7h-7V326.7z M446.5,326.7h7v7h-7V326.7z M453.8,326.7h7v7h-7V326.7z M461,326.7h7v7h-7V326.7z M468.3,326.7
	h7v7h-7V326.7z M475.6,326.7h7v7h-7V326.7z M482.8,326.7h7v7h-7V326.7z M490.1,326.7h7v7h-7V326.7z M497.3,326.7h7v7h-7V326.7z
	 M504.6,326.7h7v7h-7V326.7z M519.1,326.7h7v7h-7V326.7z M526.4,326.7h7v7h-7V326.7z M533.6,326.7h7v7h-7V326.7z M736.9,326.7h7v7
	h-7V326.7z M744.2,326.7h7v7h-7V326.7z M766,326.7h7v7h-7V326.7z M773.2,326.7h7v7h-7V326.7z M780.5,326.7h7v7h-7V326.7z
	 M802.3,326.7h7v7h-7V326.7z M61.7,333.9h7v7h-7C61.7,340.9,61.7,333.9,61.7,333.9z M90.8,333.9h7v7h-7V333.9z M105.3,333.9h7v7h-7
	V333.9z M112.6,333.9h7v7h-7V333.9z M119.8,333.9h7v7h-7V333.9z M127.1,333.9h7v7h-7C127.1,340.9,127.1,333.9,127.1,333.9z
	 M134.3,333.9h7v7h-7V333.9z M141.6,333.9h7v7h-7V333.9z M148.9,333.9h7v7h-7V333.9z M156.1,333.9h7v7h-7V333.9z M163.4,333.9h7v7
	h-7V333.9z M170.6,333.9h7v7h-7V333.9z M177.9,333.9h7v7h-7V333.9z M185.2,333.9h7v7h-7V333.9z M192.4,333.9h7v7h-7V333.9z
	 M199.7,333.9h7v7h-7V333.9z M206.9,333.9h7v7h-7V333.9z M214.2,333.9h7v7h-7V333.9z M221.5,333.9h7v7h-7V333.9z M228.7,333.9h7v7
	h-7V333.9z M236,333.9h7v7h-7V333.9z M243.2,333.9h7v7h-7V333.9z M250.5,333.9h7v7h-7V333.9z M257.8,333.9h7v7h-7V333.9z M265,333.9
	h7v7h-7V333.9z M272.3,333.9h7v7h-7V333.9z M279.5,333.9h7v7h-7V333.9z M286.8,333.9h7v7h-7V333.9z M301.3,333.9h7v7h-7V333.9z
	 M308.6,333.9h7v7h-7V333.9z M315.8,333.9h7v7h-7V333.9z M323.1,333.9h7v7h-7V333.9z M330.4,333.9h7v7h-7V333.9z M337.6,333.9h7v7
	h-7V333.9z M344.9,333.9h7v7h-7V333.9z M352.1,333.9h7v7h-7V333.9z M359.4,333.9h7v7h-7V333.9z M366.7,333.9h7v7h-7V333.9z
	 M373.9,333.9h7v7h-7V333.9z M381.2,333.9h7v7h-7V333.9z M388.4,333.9h7v7h-7V333.9z M395.7,333.9h7v7h-7V333.9z M403,333.9h7v7h-7
	V333.9z M439.3,333.9h7v7h-7V333.9z M446.5,333.9h7v7h-7V333.9z M461,333.9h7v7h-7V333.9z M468.3,333.9h7v7h-7V333.9z M475.6,333.9
	h7v7h-7V333.9z M482.8,333.9h7v7h-7V333.9z M490.1,333.9h7v7h-7V333.9z M497.3,333.9h7v7h-7V333.9z M504.6,333.9h7v7h-7V333.9z
	 M519.1,333.9h7v7h-7V333.9z M526.4,333.9h7v7h-7V333.9z M533.6,333.9h7v7h-7V333.9z M729.7,333.9h7v7h-7V333.9z M736.9,333.9h7v7
	h-7V333.9z M780.5,333.9h7v7h-7V333.9z M795,333.9h7v7h-7V333.9z M802.3,333.9h7v7h-7V333.9z M61.7,341.2h7v7h-7
	C61.7,348.2,61.7,341.2,61.7,341.2z M69,341.2h7v7h-7V341.2z M90.8,341.2h7v7h-7V341.2z M112.6,341.2h7v7h-7V341.2z M119.8,341.2h7
	v7h-7V341.2z M127.1,341.2h7v7h-7C127.1,348.2,127.1,341.2,127.1,341.2z M134.3,341.2h7v7h-7V341.2z M141.6,341.2h7v7h-7V341.2z
	 M148.9,341.2h7v7h-7V341.2z M156.1,341.2h7v7h-7V341.2z M163.4,341.2h7v7h-7V341.2z M170.6,341.2h7v7h-7V341.2z M177.9,341.2h7v7
	h-7V341.2z M185.2,341.2h7v7h-7V341.2z M199.7,341.2h7v7h-7V341.2z M206.9,341.2h7v7h-7V341.2z M214.2,341.2h7v7h-7V341.2z
	 M221.5,341.2h7v7h-7V341.2z M228.7,341.2h7v7h-7V341.2z M236,341.2h7v7h-7V341.2z M243.2,341.2h7v7h-7V341.2z M250.5,341.2h7v7h-7
	V341.2z M257.8,341.2h7v7h-7V341.2z M265,341.2h7v7h-7V341.2z M272.3,341.2h7v7h-7V341.2z M279.5,341.2h7v7h-7V341.2z M286.8,341.2
	h7v7h-7V341.2z M301.3,341.2h7v7h-7V341.2z M308.6,341.2h7v7h-7V341.2z M315.8,341.2h7v7h-7V341.2z M323.1,341.2h7v7h-7V341.2z
	 M330.4,341.2h7v7h-7V341.2z M337.6,341.2h7v7h-7V341.2z M446.5,341.2h7v7h-7V341.2z M461,341.2h7v7h-7V341.2z M475.6,341.2h7v7h-7
	V341.2z M482.8,341.2h7v7h-7V341.2z M490.1,341.2h7v7h-7V341.2z M497.3,341.2h7v7h-7V341.2z M504.6,341.2h7v7h-7V341.2z
	 M526.4,341.2h7v7h-7V341.2z M533.6,341.2h7v7h-7V341.2z M729.7,341.2h7v7h-7V341.2z M736.9,341.2h7v7h-7V341.2z M780.5,341.2h7v7
	h-7V341.2z M795,341.2h7v7h-7V341.2z M802.3,341.2h7v7h-7V341.2z M69,348.4h7v7h-7V348.4z M76.3,348.4h7v7h-7V348.4z M83.5,348.4h7
	v7h-7V348.4z M90.8,348.4h7v7h-7V348.4z M127.1,348.4h7v7h-7C127.1,355.4,127.1,348.4,127.1,348.4z M134.3,348.4h7v7h-7V348.4z
	 M141.6,348.4h7v7h-7V348.4z M148.9,348.4h7v7h-7V348.4z M156.1,348.4h7v7h-7V348.4z M163.4,348.4h7v7h-7V348.4z M170.6,348.4h7v7
	h-7V348.4z M177.9,348.4h7v7h-7V348.4z M185.2,348.4h7v7h-7V348.4z M192.4,348.4h7v7h-7V348.4z M199.7,348.4h7v7h-7V348.4z
	 M206.9,348.4h7v7h-7V348.4z M214.2,348.4h7v7h-7V348.4z M221.5,348.4h7v7h-7V348.4z M228.7,348.4h7v7h-7V348.4z M236,348.4h7v7h-7
	V348.4z M243.2,348.4h7v7h-7V348.4z M250.5,348.4h7v7h-7V348.4z M257.8,348.4h7v7h-7V348.4z M265,348.4h7v7h-7V348.4z M272.3,348.4
	h7v7h-7V348.4z M279.5,348.4h7v7h-7V348.4z M330.4,348.4h7v7h-7V348.4z M337.6,348.4h7v7h-7V348.4z M439.3,348.4h7v7h-7V348.4z
	 M446.5,348.4h7v7h-7V348.4z M453.8,348.4h7v7h-7V348.4z M482.8,348.4h7v7h-7V348.4z M490.1,348.4h7v7h-7V348.4z M497.3,348.4h7v7
	h-7V348.4z M504.6,348.4h7v7h-7V348.4z M511.9,348.4h7v7h-7L511.9,348.4L511.9,348.4z M526.4,348.4h7v7h-7V348.4z M533.6,348.4h7v7
	h-7V348.4z M729.7,348.4h7v7h-7V348.4z M736.9,348.4h7v7h-7V348.4z M751.4,348.4h7v7h-7V348.4z M758.7,348.4h7v7h-7V348.4z
	 M780.5,348.4h7v7h-7V348.4z M787.7,348.4h7v7h-7V348.4z M795,348.4h7v7h-7V348.4z M69,355.7h7v7h-7V355.7z M76.3,355.7h7v7h-7
	V355.7z M90.8,355.7h7v7h-7V355.7z M98,355.7h7v7h-7V355.7z M134.3,355.7h7v7h-7V355.7z M141.6,355.7h7v7h-7V355.7z M148.9,355.7h7
	v7h-7V355.7z M156.1,355.7h7v7h-7V355.7z M163.4,355.7h7v7h-7V355.7z M170.6,355.7h7v7h-7V355.7z M177.9,355.7h7v7h-7V355.7z
	 M185.2,355.7h7v7h-7V355.7z M192.4,355.7h7v7h-7V355.7z M199.7,355.7h7v7h-7V355.7z M206.9,355.7h7v7h-7V355.7z M214.2,355.7h7v7
	h-7V355.7z M221.5,355.7h7v7h-7V355.7z M228.7,355.7h7v7h-7V355.7z M236,355.7h7v7h-7V355.7z M243.2,355.7h7v7h-7V355.7z
	 M250.5,355.7h7v7h-7V355.7z M257.8,355.7h7v7h-7V355.7z M265,355.7h7v7h-7V355.7z M272.3,355.7h7v7h-7V355.7z M294.1,355.7h7v7h-7
	V355.7z M301.3,355.7h7v7h-7V355.7z M308.6,355.7h7v7h-7V355.7z M315.8,355.7h7v7h-7V355.7z M323.1,355.7h7v7h-7V355.7z
	 M330.4,355.7h7v7h-7V355.7z M337.6,355.7h7v7h-7V355.7z M439.3,355.7h7v7h-7V355.7z M446.5,355.7h7v7h-7V355.7z M453.8,355.7h7v7
	h-7V355.7z M461,355.7h7v7h-7V355.7z M468.3,355.7h7v7h-7V355.7z M497.3,355.7h7v7h-7V355.7z M504.6,355.7h7v7h-7V355.7z
	 M526.4,355.7h7v7h-7V355.7z M533.6,355.7h7v7h-7V355.7z M729.7,355.7h7v7h-7V355.7z M736.9,355.7h7v7h-7V355.7z M744.2,355.7h7v7
	h-7V355.7z M780.5,355.7h7v7h-7V355.7z M787.7,355.7h7v7h-7V355.7z M69,363h7v7h-7V363z M90.8,363h7v7h-7V363z M98,363h7v7h-7V363z
	 M105.3,363h7v7h-7V363z M112.6,363h7v7h-7V363z M148.9,363h7v7h-7V363z M156.1,363h7v7h-7V363z M163.4,363h7v7h-7V363z M170.6,363
	h7v7h-7V363z M177.9,363h7v7h-7V363z M185.2,363h7v7h-7V363z M192.4,363h7v7h-7V363z M199.7,363h7v7h-7V363z M206.9,363h7v7h-7V363z
	 M214.2,363h7v7h-7V363z M221.5,363h7v7h-7V363z M228.7,363h7v7h-7V363z M236,363h7v7h-7V363z M243.2,363h7v7h-7V363z M250.5,363h7
	v7h-7V363z M257.8,363h7v7h-7V363z M301.3,363h7v7h-7V363z M308.6,363h7v7h-7V363z M315.8,363h7v7h-7V363z M323.1,363h7v7h-7V363z
	 M439.3,363h7v7h-7V363z M446.5,363h7v7h-7V363z M468.3,363h7v7h-7V363z M475.6,363h7v7h-7V363z M497.3,363h7v7h-7V363z M504.6,363
	h7v7h-7V363z M511.9,363h7v7h-7L511.9,363L511.9,363z M526.4,363h7v7h-7V363z M533.6,363h7v7h-7V363z M722.4,363h7v7h-7V363z
	 M729.7,363h7v7h-7V363z M736.9,363h7v7h-7V363z M780.5,363h7v7h-7V363z M787.7,363h7v7h-7V363z M61.7,370.2h7v7h-7
	C61.7,377.2,61.7,370.2,61.7,370.2z M69,370.2h7v7h-7V370.2z M90.8,370.2h7v7h-7V370.2z M98,370.2h7v7h-7V370.2z M105.3,370.2h7v7
	h-7V370.2z M112.6,370.2h7v7h-7V370.2z M294.1,370.2h7v7h-7V370.2z M301.3,370.2h7v7h-7V370.2z M308.6,370.2h7v7h-7V370.2z
	 M315.8,370.2h7v7h-7V370.2z M439.3,370.2h7v7h-7V370.2z M446.5,370.2h7v7h-7V370.2z M475.6,370.2h7v7h-7V370.2z M482.8,370.2h7v7
	h-7V370.2z M490.1,370.2h7v7h-7V370.2z M497.3,370.2h7v7h-7V370.2z M504.6,370.2h7v7h-7V370.2z M526.4,370.2h7v7h-7V370.2z
	 M533.6,370.2h7v7h-7V370.2z M715.1,370.2h7v7h-7V370.2z M722.4,370.2h7v7h-7V370.2z M729.7,370.2h7v7h-7V370.2z M736.9,370.2h7v7
	h-7V370.2z M744.2,370.2h7v7h-7V370.2z M766,370.2h7v7h-7V370.2z M780.5,370.2h7v7h-7V370.2z M69,377.5h7v7h-7V377.5z M98,377.5h7v7
	h-7V377.5z M105.3,377.5h7v7h-7V377.5z M294.1,377.5h7v7h-7V377.5z M301.3,377.5h7v7h-7V377.5z M308.6,377.5h7v7h-7V377.5z
	 M315.8,377.5h7v7h-7V377.5z M323.1,377.5h7v7h-7V377.5z M439.3,377.5h7v7h-7V377.5z M482.8,377.5h7v7h-7V377.5z M490.1,377.5h7v7
	h-7V377.5z M497.3,377.5h7v7h-7V377.5z M504.6,377.5h7v7h-7V377.5z M526.4,377.5h7v7h-7V377.5z M533.6,377.5h7v7h-7V377.5z
	 M635.3,377.5h7v7h-7V377.5z M642.5,377.5h7v7h-7V377.5z M649.8,377.5h7v7h-7V377.5z M657.1,377.5h7v7h-7V377.5z M664.3,377.5h7v7
	h-7V377.5z M671.6,377.5h7v7h-7V377.5z M678.8,377.5h7v7h-7V377.5z M686.1,377.5h7v7h-7V377.5z M693.4,377.5h7v7h-7V377.5z
	 M700.6,377.5h7v7h-7V377.5z M707.9,377.5h7v7h-7V377.5z M715.1,377.5h7v7h-7V377.5z M722.4,377.5h7v7h-7V377.5z M729.7,377.5h7v7
	h-7V377.5z M736.9,377.5h7v7h-7V377.5z M744.2,377.5h7v7h-7V377.5z M780.5,377.5h7v7h-7V377.5z M69,384.7h7v7h-7V384.7z M76.3,384.7
	h7v7h-7V384.7z M119.8,384.7h7v7h-7V384.7z M127.1,384.7h7v7h-7C127.1,391.7,127.1,384.7,127.1,384.7z M134.3,384.7h7v7h-7V384.7z
	 M141.6,384.7h7v7h-7V384.7z M148.9,384.7h7v7h-7V384.7z M156.1,384.7h7v7h-7V384.7z M163.4,384.7h7v7h-7V384.7z M170.6,384.7h7v7
	h-7V384.7z M177.9,384.7h7v7h-7V384.7z M185.2,384.7h7v7h-7V384.7z M192.4,384.7h7v7h-7V384.7z M199.7,384.7h7v7h-7V384.7z
	 M206.9,384.7h7v7h-7V384.7z M214.2,384.7h7v7h-7V384.7z M221.5,384.7h7v7h-7V384.7z M228.7,384.7h7v7h-7V384.7z M236,384.7h7v7h-7
	V384.7z M243.2,384.7h7v7h-7V384.7z M250.5,384.7h7v7h-7V384.7z M294.1,384.7h7v7h-7V384.7z M301.3,384.7h7v7h-7V384.7z
	 M308.6,384.7h7v7h-7V384.7z M315.8,384.7h7v7h-7V384.7z M432,384.7h7v7h-7V384.7z M439.3,384.7h7v7h-7V384.7z M446.5,384.7h7v7h-7
	V384.7z M482.8,384.7h7v7h-7V384.7z M490.1,384.7h7v7h-7V384.7z M497.3,384.7h7v7h-7V384.7z M526.4,384.7h7v7h-7V384.7z
	 M533.6,384.7h7v7h-7V384.7z M548.2,384.7h7v7h-7V384.7z M562.7,384.7h7v7h-7V384.7z M569.9,384.7h7v7h-7V384.7z M577.2,384.7h7v7
	h-7V384.7z M584.5,384.7h7v7h-7V384.7z M591.7,384.7h7v7h-7V384.7z M599,384.7h7v7h-7V384.7z M606.2,384.7h7v7h-7V384.7z
	 M613.5,384.7h7v7h-7V384.7z M620.8,384.7h7v7h-7V384.7z M628,384.7h7v7h-7V384.7z M635.3,384.7h7v7h-7V384.7z M642.5,384.7h7v7h-7
	V384.7z M649.8,384.7h7v7h-7V384.7z M657.1,384.7h7v7h-7V384.7z M664.3,384.7h7v7h-7V384.7z M671.6,384.7h7v7h-7V384.7z
	 M678.8,384.7h7v7h-7V384.7z M686.1,384.7h7v7h-7V384.7z M693.4,384.7h7v7h-7V384.7z M700.6,384.7h7v7h-7V384.7z M707.9,384.7h7v7
	h-7V384.7z M715.1,384.7h7v7h-7V384.7z M722.4,384.7h7v7h-7V384.7z M729.7,384.7h7v7h-7V384.7z M736.9,384.7h7v7h-7V384.7z
	 M744.2,384.7h7v7h-7V384.7z M751.4,384.7h7v7h-7V384.7z M758.7,384.7h7v7h-7V384.7z M773.2,384.7h7v7h-7V384.7z M780.5,384.7h7v7
	h-7V384.7z M76.3,392h7v7h-7V392z M83.5,392h7v7h-7V392z M90.8,392h7v7h-7V392z M98,392h7v7h-7V392z M105.3,392h7v7h-7V392z
	 M112.6,392h7v7h-7V392z M119.8,392h7v7h-7V392z M127.1,392h7v7h-7C127.1,399,127.1,392,127.1,392z M134.3,392h7v7h-7V392z
	 M141.6,392h7v7h-7V392z M148.9,392h7v7h-7V392z M156.1,392h7v7h-7V392z M163.4,392h7v7h-7V392z M170.6,392h7v7h-7V392z M177.9,392
	h7v7h-7V392z M185.2,392h7v7h-7V392z M192.4,392h7v7h-7V392z M199.7,392h7v7h-7V392z M206.9,392h7v7h-7V392z M214.2,392h7v7h-7V392z
	 M221.5,392h7v7h-7V392z M228.7,392h7v7h-7V392z M236,392h7v7h-7V392z M243.2,392h7v7h-7V392z M250.5,392h7v7h-7V392z M257.8,392h7
	v7h-7V392z M265,392h7v7h-7V392z M424.7,392h7v7h-7V392z M432,392h7v7h-7V392z M439.3,392h7v7h-7V392z M461,392h7v7h-7V392z
	 M468.3,392h7v7h-7V392z M482.8,392h7v7h-7V392z M490.1,392h7v7h-7V392z M497.3,392h7v7h-7V392z M519.1,392h7v7h-7V392z M526.4,392
	h7v7h-7V392z M533.6,392h7v7h-7V392z M540.9,392h7v7h-7V392z M548.2,392h7v7h-7V392z M555.4,392h7v7h-7V392z M562.7,392h7v7h-7V392z
	 M569.9,392h7v7h-7V392z M577.2,392h7v7h-7V392z M584.5,392h7v7h-7V392z M591.7,392h7v7h-7V392z M599,392h7v7h-7V392z M606.2,392h7
	v7h-7V392z M613.5,392h7v7h-7V392z M620.8,392h7v7h-7V392z M628,392h7v7h-7V392z M635.3,392h7v7h-7V392z M642.5,392h7v7h-7V392z
	 M649.8,392h7v7h-7V392z M657.1,392h7v7h-7V392z M664.3,392h7v7h-7V392z M671.6,392h7v7h-7V392z M678.8,392h7v7h-7V392z M686.1,392
	h7v7h-7V392z M693.4,392h7v7h-7V392z M700.6,392h7v7h-7V392z M707.9,392h7v7h-7V392z M715.1,392h7v7h-7V392z M722.4,392h7v7h-7V392z
	 M729.7,392h7v7h-7V392z M736.9,392h7v7h-7V392z M744.2,392h7v7h-7V392z M751.4,392h7v7h-7V392z M773.2,392h7v7h-7V392z M780.5,392
	h7v7h-7V392z M134.3,399.3h7v7h-7V399.3z M141.6,399.3h7v7h-7V399.3z M148.9,399.3h7v7h-7V399.3z M156.1,399.3h7v7h-7V399.3z
	 M163.4,399.3h7v7h-7V399.3z M170.6,399.3h7v7h-7V399.3z M177.9,399.3h7v7h-7V399.3z M185.2,399.3h7v7h-7V399.3z M192.4,399.3h7v7
	h-7V399.3z M199.7,399.3h7v7h-7V399.3z M206.9,399.3h7v7h-7V399.3z M214.2,399.3h7v7h-7V399.3z M221.5,399.3h7v7h-7V399.3z
	 M228.7,399.3h7v7h-7V399.3z M236,399.3h7v7h-7V399.3z M243.2,399.3h7v7h-7V399.3z M250.5,399.3h7v7h-7V399.3z M257.8,399.3h7v7h-7
	V399.3z M265,399.3h7v7h-7V399.3z M272.3,399.3h7v7h-7V399.3z M279.5,399.3h7v7h-7V399.3z M286.8,399.3h7v7h-7V399.3z M294.1,399.3
	h7v7h-7V399.3z M301.3,399.3h7v7h-7V399.3z M308.6,399.3h7v7h-7V399.3z M315.8,399.3h7v7h-7V399.3z M323.1,399.3h7v7h-7V399.3z
	 M330.4,399.3h7v7h-7V399.3z M337.6,399.3h7v7h-7V399.3z M344.9,399.3h7v7h-7V399.3z M352.1,399.3h7v7h-7V399.3z M359.4,399.3h7v7
	h-7V399.3z M366.7,399.3h7v7h-7V399.3z M373.9,399.3h7v7h-7V399.3z M381.2,399.3h7v7h-7V399.3z M388.4,399.3h7v7h-7V399.3z
	 M395.7,399.3h7v7h-7V399.3z M403,399.3h7v7h-7V399.3z M410.2,399.3h7v7h-7V399.3z M417.5,399.3h7v7h-7V399.3z M424.7,399.3h7v7h-7
	V399.3z M432,399.3h7v7h-7V399.3z M453.8,399.3h7v7h-7V399.3z M461,399.3h7v7h-7V399.3z M468.3,399.3h7v7h-7V399.3z M482.8,399.3h7
	v7h-7V399.3z M490.1,399.3h7v7h-7V399.3z M519.1,399.3h7v7h-7V399.3z M526.4,399.3h7v7h-7V399.3z M533.6,399.3h7v7h-7V399.3z
	 M540.9,399.3h7v7h-7V399.3z M548.2,399.3h7v7h-7V399.3z M555.4,399.3h7v7h-7V399.3z M562.7,399.3h7v7h-7V399.3z M569.9,399.3h7v7
	h-7V399.3z M577.2,399.3h7v7h-7V399.3z M584.5,399.3h7v7h-7V399.3z M591.7,399.3h7v7h-7V399.3z M599,399.3h7v7h-7V399.3z
	 M606.2,399.3h7v7h-7V399.3z M613.5,399.3h7v7h-7V399.3z M620.8,399.3h7v7h-7V399.3z M628,399.3h7v7h-7V399.3z M635.3,399.3h7v7h-7
	V399.3z M642.5,399.3h7v7h-7V399.3z M649.8,399.3h7v7h-7V399.3z M657.1,399.3h7v7h-7V399.3z M693.4,399.3h7v7h-7V399.3z
	 M700.6,399.3h7v7h-7V399.3z M707.9,399.3h7v7h-7V399.3z M715.1,399.3h7v7h-7V399.3z M722.4,399.3h7v7h-7V399.3z M729.7,399.3h7v7
	h-7V399.3z M736.9,399.3h7v7h-7V399.3z M744.2,399.3h7v7h-7V399.3z M773.2,399.3h7v7h-7V399.3z M780.5,399.3h7v7h-7V399.3z
	 M141.6,406.5h7v7h-7V406.5z M148.9,406.5h7v7h-7V406.5z M156.1,406.5h7v7h-7V406.5z M163.4,406.5h7v7h-7V406.5z M170.6,406.5h7v7
	h-7V406.5z M177.9,406.5h7v7h-7V406.5z M185.2,406.5h7v7h-7V406.5z M192.4,406.5h7v7h-7V406.5z M199.7,406.5h7v7h-7V406.5z
	 M206.9,406.5h7v7h-7V406.5z M214.2,406.5h7v7h-7V406.5z M221.5,406.5h7v7h-7V406.5z M228.7,406.5h7v7h-7V406.5z M236,406.5h7v7h-7
	V406.5z M243.2,406.5h7v7h-7V406.5z M250.5,406.5h7v7h-7V406.5z M257.8,406.5h7v7h-7V406.5z M265,406.5h7v7h-7V406.5z M279.5,406.5
	h7v7h-7V406.5z M294.1,406.5h7v7h-7V406.5z M308.6,406.5h7v7h-7V406.5z M323.1,406.5h7v7h-7V406.5z M337.6,406.5h7v7h-7V406.5z
	 M352.1,406.5h7v7h-7V406.5z M366.7,406.5h7v7h-7V406.5z M381.2,406.5h7v7h-7V406.5z M395.7,406.5h7v7h-7V406.5z M403,406.5h7v7h-7
	V406.5z M410.2,406.5h7v7h-7V406.5z M417.5,406.5h7v7h-7V406.5z M439.3,406.5h7v7h-7V406.5z M446.5,406.5h7v7h-7V406.5z
	 M453.8,406.5h7v7h-7V406.5z M461,406.5h7v7h-7V406.5z M468.3,406.5h7v7h-7V406.5z M475.6,406.5h7v7h-7V406.5z M511.9,406.5h7v7h-7
	L511.9,406.5L511.9,406.5z M519.1,406.5h7v7h-7V406.5z M526.4,406.5h7v7h-7V406.5z M533.6,406.5h7v7h-7V406.5z M540.9,406.5h7v7h-7
	V406.5z M548.2,406.5h7v7h-7V406.5z M555.4,406.5h7v7h-7V406.5z M562.7,406.5h7v7h-7V406.5z M569.9,406.5h7v7h-7V406.5z
	 M577.2,406.5h7v7h-7V406.5z M584.5,406.5h7v7h-7V406.5z M591.7,406.5h7v7h-7V406.5z M599,406.5h7v7h-7V406.5z M606.2,406.5h7v7h-7
	V406.5z M613.5,406.5h7v7h-7V406.5z M620.8,406.5h7v7h-7V406.5z M628,406.5h7v7h-7V406.5z M635.3,406.5h7v7h-7V406.5z M642.5,406.5
	h7v7h-7V406.5z M649.8,406.5h7v7h-7V406.5z M657.1,406.5h7v7h-7V406.5z M664.3,406.5h7v7h-7V406.5z M671.6,406.5h7v7h-7V406.5z
	 M686.1,406.5h7v7h-7V406.5z M700.6,406.5h7v7h-7V406.5z M707.9,406.5h7v7h-7V406.5z M715.1,406.5h7v7h-7V406.5z M722.4,406.5h7v7
	h-7V406.5z M729.7,406.5h7v7h-7V406.5z M736.9,406.5h7v7h-7V406.5z M744.2,406.5h7v7h-7V406.5z M751.4,406.5h7v7h-7V406.5z
	 M758.7,406.5h7v7h-7V406.5z M766,406.5h7v7h-7V406.5z M773.2,406.5h7v7h-7V406.5z M148.9,413.8h7v7h-7V413.8z M156.1,413.8h7v7h-7
	V413.8z M163.4,413.8h7v7h-7V413.8z M170.6,413.8h7v7h-7V413.8z M177.9,413.8h7v7h-7V413.8z M185.2,413.8h7v7h-7V413.8z
	 M192.4,413.8h7v7h-7V413.8z M199.7,413.8h7v7h-7V413.8z M206.9,413.8h7v7h-7V413.8z M214.2,413.8h7v7h-7V413.8z M221.5,413.8h7v7
	h-7V413.8z M228.7,413.8h7v7h-7V413.8z M236,413.8h7v7h-7V413.8z M243.2,413.8h7v7h-7V413.8z M250.5,413.8h7v7h-7V413.8z
	 M257.8,413.8h7v7h-7V413.8z M272.3,413.8h7v7h-7V413.8z M286.8,413.8h7v7h-7V413.8z M301.3,413.8h7v7h-7V413.8z M315.8,413.8h7v7
	h-7V413.8z M330.4,413.8h7v7h-7V413.8z M344.9,413.8h7v7h-7V413.8z M359.4,413.8h7v7h-7V413.8z M373.9,413.8h7v7h-7V413.8z
	 M395.7,413.8h7v7h-7V413.8z M403,413.8h7v7h-7V413.8z M410.2,413.8h7v7h-7V413.8z M417.5,413.8h7v7h-7V413.8z M424.7,413.8h7v7h-7
	V413.8z M504.6,413.8h7v7h-7V413.8z M511.9,413.8h7v7h-7L511.9,413.8L511.9,413.8z M519.1,413.8h7v7h-7V413.8z M526.4,413.8h7v7h-7
	V413.8z M533.6,413.8h7v7h-7V413.8z M540.9,413.8h7v7h-7V413.8z M548.2,413.8h7v7h-7V413.8z M555.4,413.8h7v7h-7V413.8z
	 M562.7,413.8h7v7h-7V413.8z M569.9,413.8h7v7h-7V413.8z M577.2,413.8h7v7h-7V413.8z M584.5,413.8h7v7h-7V413.8z M591.7,413.8h7v7
	h-7V413.8z M599,413.8h7v7h-7V413.8z M606.2,413.8h7v7h-7V413.8z M613.5,413.8h7v7h-7V413.8z M620.8,413.8h7v7h-7V413.8z M628,413.8
	h7v7h-7V413.8z M635.3,413.8h7v7h-7V413.8z M642.5,413.8h7v7h-7V413.8z M649.8,413.8h7v7h-7V413.8z M657.1,413.8h7v7h-7V413.8z
	 M664.3,413.8h7v7h-7V413.8z M671.6,413.8h7v7h-7V413.8z M678.8,413.8h7v7h-7V413.8z M693.4,413.8h7v7h-7V413.8z M707.9,413.8h7v7
	h-7V413.8z M715.1,413.8h7v7h-7V413.8z M722.4,413.8h7v7h-7V413.8z M729.7,413.8h7v7h-7V413.8z M736.9,413.8h7v7h-7V413.8z
	 M744.2,413.8h7v7h-7V413.8z M751.4,413.8h7v7h-7V413.8z M758.7,413.8h7v7h-7V413.8z M766,413.8h7v7h-7V413.8z M773.2,413.8h7v7h-7
	V413.8z M780.5,413.8h7v7h-7V413.8z M787.7,413.8h7v7h-7V413.8z M795,413.8h7v7h-7V413.8z M802.3,413.8h7v7h-7V413.8z M809.5,413.8
	h7v7h-7V413.8z M816.8,413.8h7v7h-7V413.8z M824,413.8h7v7h-7V413.8z M831.3,413.8h7v7h-7V413.8z M156.1,421h7v7h-7V421z M163.4,421
	h7v7h-7V421z M170.6,421h7v7h-7V421z M177.9,421h7v7h-7V421z M185.2,421h7v7h-7V421z M192.4,421h7v7h-7V421z M199.7,421h7v7h-7V421z
	 M206.9,421h7v7h-7V421z M214.2,421h7v7h-7V421z M221.5,421h7v7h-7V421z M228.7,421h7v7h-7V421z M236,421h7v7h-7V421z M243.2,421h7
	v7h-7V421z M250.5,421h7v7h-7V421z M265,421h7v7h-7V421z M272.3,421h7v7h-7V421z M279.5,421h7v7h-7V421z M294.1,421h7v7h-7V421z
	 M301.3,421h7v7h-7V421z M308.6,421h7v7h-7V421z M315.8,421h7v7h-7V421z M323.1,421h7v7h-7V421z M330.4,421h7v7h-7V421z M337.6,421
	h7v7h-7V421z M344.9,421h7v7h-7V421z M352.1,421h7v7h-7V421z M359.4,421h7v7h-7V421z M366.7,421h7v7h-7V421z M373.9,421h7v7h-7V421z
	 M381.2,421h7v7h-7V421z M388.4,421h7v7h-7V421z M403,421h7v7h-7V421z M410.2,421h7v7h-7V421z M417.5,421h7v7h-7V421z M424.7,421h7
	v7h-7V421z M432,421h7v7h-7V421z M497.3,421h7v7h-7V421z M504.6,421h7v7h-7V421z M511.9,421h7v7h-7L511.9,421L511.9,421z M519.1,421
	h7v7h-7V421z M526.4,421h7v7h-7V421z M533.6,421h7v7h-7V421z M540.9,421h7v7h-7V421z M548.2,421h7v7h-7V421z M555.4,421h7v7h-7V421z
	 M562.7,421h7v7h-7V421z M569.9,421h7v7h-7V421z M577.2,421h7v7h-7V421z M584.5,421h7v7h-7V421z M591.7,421h7v7h-7V421z M599,421h7
	v7h-7V421z M606.2,421h7v7h-7V421z M613.5,421h7v7h-7V421z M620.8,421h7v7h-7V421z M628,421h7v7h-7V421z M635.3,421h7v7h-7V421z
	 M642.5,421h7v7h-7V421z M649.8,421h7v7h-7V421z M657.1,421h7v7h-7V421z M664.3,421h7v7h-7V421z M671.6,421h7v7h-7V421z M678.8,421
	h7v7h-7V421z M686.1,421h7v7h-7V421z M693.4,421h7v7h-7V421z M700.6,421h7v7h-7V421z M707.9,421h7v7h-7V421z M715.1,421h7v7h-7V421z
	 M722.4,421h7v7h-7V421z M729.7,421h7v7h-7V421z M736.9,421h7v7h-7V421z M744.2,421h7v7h-7V421z M751.4,421h7v7h-7V421z M758.7,421
	h7v7h-7V421z M766,421h7v7h-7V421z M773.2,421h7v7h-7V421z M780.5,421h7v7h-7V421z M787.7,421h7v7h-7V421z M795,421h7v7h-7V421z
	 M802.3,421h7v7h-7V421z M809.5,421h7v7h-7V421z M816.8,421h7v7h-7V421z M98,428.3h7v7h-7V428.3z M105.3,428.3h7v7h-7V428.3z
	 M112.6,428.3h7v7h-7V428.3z M119.8,428.3h7v7h-7V428.3z M127.1,428.3h7v7h-7C127.1,435.3,127.1,428.3,127.1,428.3z M134.3,428.3h7
	v7h-7V428.3z M141.6,428.3h7v7h-7V428.3z M148.9,428.3h7v7h-7V428.3z M156.1,428.3h7v7h-7V428.3z M163.4,428.3h7v7h-7V428.3z
	 M170.6,428.3h7v7h-7V428.3z M177.9,428.3h7v7h-7V428.3z M185.2,428.3h7v7h-7V428.3z M192.4,428.3h7v7h-7V428.3z M199.7,428.3h7v7
	h-7V428.3z M206.9,428.3h7v7h-7V428.3z M214.2,428.3h7v7h-7V428.3z M221.5,428.3h7v7h-7V428.3z M228.7,428.3h7v7h-7V428.3z
	 M236,428.3h7v7h-7V428.3z M243.2,428.3h7v7h-7V428.3z M250.5,428.3h7v7h-7V428.3z M257.8,428.3h7v7h-7V428.3z M265,428.3h7v7h-7
	V428.3z M272.3,428.3h7v7h-7V428.3z M279.5,428.3h7v7h-7V428.3z M286.8,428.3h7v7h-7V428.3z M294.1,428.3h7v7h-7V428.3z
	 M301.3,428.3h7v7h-7V428.3z M308.6,428.3h7v7h-7V428.3z M315.8,428.3h7v7h-7V428.3z M323.1,428.3h7v7h-7V428.3z M330.4,428.3h7v7
	h-7V428.3z M337.6,428.3h7v7h-7V428.3z M344.9,428.3h7v7h-7V428.3z M352.1,428.3h7v7h-7V428.3z M359.4,428.3h7v7h-7V428.3z
	 M366.7,428.3h7v7h-7V428.3z M373.9,428.3h7v7h-7V428.3z M381.2,428.3h7v7h-7V428.3z M388.4,428.3h7v7h-7V428.3z M395.7,428.3h7v7
	h-7V428.3z M403,428.3h7v7h-7V428.3z M410.2,428.3h7v7h-7V428.3z M417.5,428.3h7v7h-7V428.3z M424.7,428.3h7v7h-7V428.3z M432,428.3
	h7v7h-7V428.3z M439.3,428.3h7v7h-7V428.3z M446.5,428.3h7v7h-7V428.3z M482.8,428.3h7v7h-7V428.3z M490.1,428.3h7v7h-7V428.3z
	 M497.3,428.3h7v7h-7V428.3z M504.6,428.3h7v7h-7V428.3z M511.9,428.3h7v7h-7L511.9,428.3L511.9,428.3z M519.1,428.3h7v7h-7V428.3z
	 M526.4,428.3h7v7h-7V428.3z M533.6,428.3h7v7h-7V428.3z M540.9,428.3h7v7h-7V428.3z M548.2,428.3h7v7h-7V428.3z M555.4,428.3h7v7
	h-7V428.3z M562.7,428.3h7v7h-7V428.3z M569.9,428.3h7v7h-7V428.3z M577.2,428.3h7v7h-7V428.3z M584.5,428.3h7v7h-7V428.3z
	 M591.7,428.3h7v7h-7V428.3z M599,428.3h7v7h-7V428.3z M606.2,428.3h7v7h-7V428.3z M613.5,428.3h7v7h-7V428.3z M620.8,428.3h7v7h-7
	V428.3z M628,428.3h7v7h-7V428.3z M635.3,428.3h7v7h-7V428.3z M642.5,428.3h7v7h-7V428.3z M649.8,428.3h7v7h-7V428.3z M657.1,428.3
	h7v7h-7V428.3z M664.3,428.3h7v7h-7V428.3z M671.6,428.3h7v7h-7V428.3z M678.8,428.3h7v7h-7V428.3z M686.1,428.3h7v7h-7V428.3z
	 M693.4,428.3h7v7h-7V428.3z M700.6,428.3h7v7h-7V428.3z M707.9,428.3h7v7h-7V428.3z M715.1,428.3h7v7h-7V428.3z M722.4,428.3h7v7
	h-7V428.3z M729.7,428.3h7v7h-7V428.3z M736.9,428.3h7v7h-7V428.3z M744.2,428.3h7v7h-7V428.3z M751.4,428.3h7v7h-7V428.3z
	 M758.7,428.3h7v7h-7V428.3z M766,428.3h7v7h-7V428.3z M773.2,428.3h7v7h-7V428.3z M780.5,428.3h7v7h-7V428.3z M787.7,428.3h7v7h-7
	V428.3z M795,428.3h7v7h-7V428.3z M40,435.6h7v7h-7V435.6z M47.2,435.6h7v7h-7V435.6z M54.5,435.6h7v7h-7V435.6z M61.7,435.6h7v7h-7
	C61.7,442.6,61.7,435.6,61.7,435.6z M69,435.6h7v7h-7V435.6z M76.3,435.6h7v7h-7V435.6z M83.5,435.6h7v7h-7V435.6z M90.8,435.6h7v7
	h-7V435.6z M98,435.6h7v7h-7V435.6z M105.3,435.6h7v7h-7V435.6z M112.6,435.6h7v7h-7V435.6z M119.8,435.6h7v7h-7V435.6z
	 M127.1,435.6h7v7h-7C127.1,442.6,127.1,435.6,127.1,435.6z M134.3,435.6h7v7h-7V435.6z M141.6,435.6h7v7h-7V435.6z M148.9,435.6h7
	v7h-7V435.6z M156.1,435.6h7v7h-7V435.6z M163.4,435.6h7v7h-7V435.6z M170.6,435.6h7v7h-7V435.6z M177.9,435.6h7v7h-7V435.6z
	 M185.2,435.6h7v7h-7V435.6z M192.4,435.6h7v7h-7V435.6z M199.7,435.6h7v7h-7V435.6z M206.9,435.6h7v7h-7V435.6z M214.2,435.6h7v7
	h-7V435.6z M221.5,435.6h7v7h-7V435.6z M228.7,435.6h7v7h-7V435.6z M236,435.6h7v7h-7V435.6z M243.2,435.6h7v7h-7V435.6z
	 M250.5,435.6h7v7h-7V435.6z M257.8,435.6h7v7h-7V435.6z M265,435.6h7v7h-7V435.6z M272.3,435.6h7v7h-7V435.6z M279.5,435.6h7v7h-7
	V435.6z M286.8,435.6h7v7h-7V435.6z M294.1,435.6h7v7h-7V435.6z M301.3,435.6h7v7h-7V435.6z M308.6,435.6h7v7h-7V435.6z
	 M315.8,435.6h7v7h-7V435.6z M323.1,435.6h7v7h-7V435.6z M330.4,435.6h7v7h-7V435.6z M337.6,435.6h7v7h-7V435.6z M344.9,435.6h7v7
	h-7V435.6z M352.1,435.6h7v7h-7V435.6z M359.4,435.6h7v7h-7V435.6z M366.7,435.6h7v7h-7V435.6z M373.9,435.6h7v7h-7V435.6z
	 M381.2,435.6h7v7h-7V435.6z M388.4,435.6h7v7h-7V435.6z M395.7,435.6h7v7h-7V435.6z M403,435.6h7v7h-7V435.6z M410.2,435.6h7v7h-7
	V435.6z M417.5,435.6h7v7h-7V435.6z M424.7,435.6h7v7h-7V435.6z M432,435.6h7v7h-7V435.6z M439.3,435.6h7v7h-7V435.6z M446.5,435.6
	h7v7h-7V435.6z M453.8,435.6h7v7h-7V435.6z M461,435.6h7v7h-7V435.6z M468.3,435.6h7v7h-7V435.6z M475.6,435.6h7v7h-7V435.6z
	 M482.8,435.6h7v7h-7V435.6z M490.1,435.6h7v7h-7V435.6z M497.3,435.6h7v7h-7V435.6z M504.6,435.6h7v7h-7V435.6z M511.9,435.6h7v7
	h-7L511.9,435.6L511.9,435.6z M519.1,435.6h7v7h-7V435.6z M526.4,435.6h7v7h-7V435.6z M533.6,435.6h7v7h-7V435.6z M540.9,435.6h7v7
	h-7V435.6z M548.2,435.6h7v7h-7V435.6z M555.4,435.6h7v7h-7V435.6z M562.7,435.6h7v7h-7V435.6z M569.9,435.6h7v7h-7V435.6z
	 M577.2,435.6h7v7h-7V435.6z M584.5,435.6h7v7h-7V435.6z M591.7,435.6h7v7h-7V435.6z M599,435.6h7v7h-7V435.6z M606.2,435.6h7v7h-7
	V435.6z M613.5,435.6h7v7h-7V435.6z M620.8,435.6h7v7h-7V435.6z M628,435.6h7v7h-7V435.6z M635.3,435.6h7v7h-7V435.6z M642.5,435.6
	h7v7h-7V435.6z M649.8,435.6h7v7h-7V435.6z M657.1,435.6h7v7h-7V435.6z M664.3,435.6h7v7h-7V435.6z M671.6,435.6h7v7h-7V435.6z
	 M678.8,435.6h7v7h-7V435.6z M686.1,435.6h7v7h-7V435.6z M32.7,442.8h7v7h-7V442.8z M40,442.8h7v7h-7V442.8z M47.2,442.8h7v7h-7
	V442.8z M54.5,442.8h7v7h-7V442.8z M61.7,442.8h7v7h-7C61.7,449.8,61.7,442.8,61.7,442.8z M69,442.8h7v7h-7V442.8z M76.3,442.8h7v7
	h-7V442.8z M83.5,442.8h7v7h-7V442.8z M90.8,442.8h7v7h-7V442.8z M98,442.8h7v7h-7V442.8z M105.3,442.8h7v7h-7V442.8z M112.6,442.8
	h7v7h-7V442.8z M119.8,442.8h7v7h-7V442.8z M127.1,442.8h7v7h-7C127.1,449.8,127.1,442.8,127.1,442.8z M134.3,442.8h7v7h-7V442.8z
	 M141.6,442.8h7v7h-7V442.8z M148.9,442.8h7v7h-7V442.8z M156.1,442.8h7v7h-7V442.8z M163.4,442.8h7v7h-7V442.8z M170.6,442.8h7v7
	h-7V442.8z M177.9,442.8h7v7h-7V442.8z M185.2,442.8h7v7h-7V442.8z M192.4,442.8h7v7h-7V442.8z M199.7,442.8h7v7h-7V442.8z
	 M206.9,442.8h7v7h-7V442.8z M214.2,442.8h7v7h-7V442.8z M221.5,442.8h7v7h-7V442.8z M228.7,442.8h7v7h-7V442.8z M236,442.8h7v7h-7
	V442.8z M243.2,442.8h7v7h-7V442.8z M250.5,442.8h7v7h-7V442.8z M257.8,442.8h7v7h-7V442.8z M265,442.8h7v7h-7V442.8z M272.3,442.8
	h7v7h-7V442.8z M279.5,442.8h7v7h-7V442.8z M286.8,442.8h7v7h-7V442.8z M294.1,442.8h7v7h-7V442.8z M301.3,442.8h7v7h-7V442.8z
	 M308.6,442.8h7v7h-7V442.8z M315.8,442.8h7v7h-7V442.8z M323.1,442.8h7v7h-7V442.8z M330.4,442.8h7v7h-7V442.8z M337.6,442.8h7v7
	h-7V442.8z M344.9,442.8h7v7h-7V442.8z M352.1,442.8h7v7h-7V442.8z M359.4,442.8h7v7h-7V442.8z M366.7,442.8h7v7h-7V442.8z
	 M373.9,442.8h7v7h-7V442.8z M381.2,442.8h7v7h-7V442.8z M388.4,442.8h7v7h-7V442.8z M395.7,442.8h7v7h-7V442.8z M403,442.8h7v7h-7
	V442.8z M410.2,442.8h7v7h-7V442.8z M417.5,442.8h7v7h-7V442.8z M424.7,442.8h7v7h-7V442.8z M432,442.8h7v7h-7V442.8z M439.3,442.8
	h7v7h-7V442.8z M446.5,442.8h7v7h-7V442.8z M453.8,442.8h7v7h-7V442.8z M461,442.8h7v7h-7V442.8z M468.3,442.8h7v7h-7V442.8z
	 M475.6,442.8h7v7h-7V442.8z M482.8,442.8h7v7h-7V442.8z M490.1,442.8h7v7h-7V442.8z M497.3,442.8h7v7h-7V442.8z M504.6,442.8h7v7
	h-7V442.8z M511.9,442.8h7v7h-7L511.9,442.8L511.9,442.8z M519.1,442.8h7v7h-7V442.8z M526.4,442.8h7v7h-7V442.8z M533.6,442.8h7v7
	h-7V442.8z M540.9,442.8h7v7h-7V442.8z M548.2,442.8h7v7h-7V442.8z M555.4,442.8h7v7h-7V442.8z M562.7,442.8h7v7h-7V442.8z
	 M569.9,442.8h7v7h-7V442.8z M577.2,442.8h7v7h-7V442.8z M584.5,442.8h7v7h-7V442.8z M591.7,442.8h7v7h-7V442.8z M599,442.8h7v7h-7
	V442.8z M606.2,442.8h7v7h-7V442.8z M613.5,442.8h7v7h-7V442.8z M620.8,442.8h7v7h-7V442.8z M61.7,450.1h7v7h-7
	C61.7,457.1,61.7,450.1,61.7,450.1z M69,450.1h7v7h-7V450.1z M76.3,450.1h7v7h-7V450.1z M83.5,450.1h7v7h-7V450.1z M90.8,450.1h7v7
	h-7V450.1z M98,450.1h7v7h-7V450.1z M105.3,450.1h7v7h-7V450.1z M112.6,450.1h7v7h-7V450.1z M119.8,450.1h7v7h-7V450.1z
	 M127.1,450.1h7v7h-7C127.1,457.1,127.1,450.1,127.1,450.1z M134.3,450.1h7v7h-7V450.1z M141.6,450.1h7v7h-7V450.1z M148.9,450.1h7
	v7h-7V450.1z M156.1,450.1h7v7h-7V450.1z M163.4,450.1h7v7h-7V450.1z M170.6,450.1h7v7h-7V450.1z M177.9,450.1h7v7h-7V450.1z
	 M185.2,450.1h7v7h-7V450.1z M192.4,450.1h7v7h-7V450.1z M199.7,450.1h7v7h-7V450.1z M206.9,450.1h7v7h-7V450.1z M214.2,450.1h7v7
	h-7V450.1z M221.5,450.1h7v7h-7V450.1z M228.7,450.1h7v7h-7V450.1z M236,450.1h7v7h-7V450.1z M243.2,450.1h7v7h-7V450.1z
	 M250.5,450.1h7v7h-7V450.1z M257.8,450.1h7v7h-7V450.1z M265,450.1h7v7h-7V450.1z M272.3,450.1h7v7h-7V450.1z M279.5,450.1h7v7h-7
	V450.1z M286.8,450.1h7v7h-7V450.1z M294.1,450.1h7v7h-7V450.1z M301.3,450.1h7v7h-7V450.1z M308.6,450.1h7v7h-7V450.1z
	 M315.8,450.1h7v7h-7V450.1z M323.1,450.1h7v7h-7V450.1z M330.4,450.1h7v7h-7V450.1z M337.6,450.1h7v7h-7V450.1z M344.9,450.1h7v7
	h-7V450.1z M352.1,450.1h7v7h-7V450.1z M359.4,450.1h7v7h-7V450.1z M366.7,450.1h7v7h-7V450.1z M373.9,450.1h7v7h-7V450.1z
	 M381.2,450.1h7v7h-7V450.1z M388.4,450.1h7v7h-7V450.1z M395.7,450.1h7v7h-7V450.1z M403,450.1h7v7h-7V450.1z M410.2,450.1h7v7h-7
	V450.1z M417.5,450.1h7v7h-7V450.1z M424.7,450.1h7v7h-7V450.1z M432,450.1h7v7h-7V450.1z M439.3,450.1h7v7h-7V450.1z M446.5,450.1
	h7v7h-7V450.1z M453.8,450.1h7v7h-7V450.1z M461,450.1h7v7h-7V450.1z M468.3,450.1h7v7h-7V450.1z M475.6,450.1h7v7h-7V450.1z
	 M482.8,450.1h7v7h-7V450.1z M490.1,450.1h7v7h-7V450.1z M497.3,450.1h7v7h-7V450.1z M504.6,450.1h7v7h-7V450.1z M511.9,450.1h7v7
	h-7L511.9,450.1L511.9,450.1z M519.1,450.1h7v7h-7V450.1z M526.4,450.1h7v7h-7V450.1z M533.6,450.1h7v7h-7V450.1z M540.9,450.1h7v7
	h-7V450.1z M265,457.4h7v7h-7V457.4z M272.3,457.4h7v7h-7V457.4z M279.5,457.4h7v7h-7V457.4z M286.8,457.4h7v7h-7V457.4z
	 M294.1,457.4h7v7h-7V457.4z M301.3,457.4h7v7h-7V457.4z M308.6,457.4h7v7h-7V457.4z M315.8,457.4h7v7h-7V457.4z M323.1,457.4h7v7
	h-7V457.4z M330.4,457.4h7v7h-7V457.4z M337.6,457.4h7v7h-7V457.4z M344.9,457.4h7v7h-7V457.4z M352.1,457.4h7v7h-7V457.4z
	 M359.4,457.4h7v7h-7V457.4z M366.7,457.4h7v7h-7V457.4z M373.9,457.4h7v7h-7V457.4z M381.2,457.4h7v7h-7V457.4z M388.4,457.4h7v7
	h-7V457.4z M395.7,457.4h7v7h-7V457.4z M403,457.4h7v7h-7V457.4z M410.2,457.4h7v7h-7V457.4z M417.5,457.4h7v7h-7V457.4z
	 M424.7,457.4h7v7h-7V457.4z M432,457.4h7v7h-7V457.4z M439.3,457.4h7v7h-7V457.4z"/>
</svg>
