<?xml version="1.0" encoding="utf-8"?>
<!-- Generator: Adobe Illustrator 27.3.1, SVG Export Plug-In . SVG Version: 6.00 Build 0)  -->
<svg version="1.1" id="Слой_1" xmlns:ev="http://www.w3.org/2001/xml-events"
	 xmlns="http://www.w3.org/2000/svg" xmlns:xlink="http://www.w3.org/1999/xlink" x="0px" y="0px" viewBox="0 0 871 595"
	 style="enable-background:new 0 0 871 595;" xml:space="preserve">
<style type="text/css">
	.st0{fill:#291701;}
</style>
<path class="st0" d="M348.5,87.1h7v7h-7V87.1z M355.8,87.1h7v7h-7V87.1z M363,87.1h7v7h-7V87.1z M370.3,87.1h7v7h-7V87.1z
	 M377.5,87.1h7v7h-7V87.1z M384.8,87.1h7v7h-7V87.1z M392.1,87.1h7v7h-7V87.1z M399.3,87.1h7v7h-7V87.1z M406.6,87.1h7v7h-7V87.1z
	 M573.6,87.1h7v7h-7V87.1z M580.8,87.1h7v7h-7V87.1z M588.1,87.1h7v7h-7V87.1z M595.4,87.1h7v7h-7V87.1z M602.6,87.1h7v7h-7V87.1z
	 M609.9,87.1h7v7h-7V87.1z M617.1,87.1h7v7h-7V87.1z M624.4,87.1h7v7h-7V87.1z M631.7,87.1h7v7h-7V87.1z M326.7,94.4h7v7h-7V94.4z
	 M660.7,94.4h7v7h-7V94.4z M384.8,101.6h7v7h-7V101.6z M392.1,101.6h7v7h-7V101.6z M399.3,101.6h7v7h-7V101.6z M406.6,101.6h7v7h-7
	V101.6z M413.9,101.6h7v7h-7V101.6z M421.1,101.6h7v7h-7V101.6z M428.4,101.6h7v7h-7V101.6z M435.6,101.6h7v7h-7V101.6z
	 M442.9,101.6h7v7h-7V101.6z M450.1,101.6h7v7h-7V101.6z M457.4,101.6h7v7h-7V101.6z M464.7,101.6h7v7h-7V101.6z M471.9,101.6h7v7
	h-7V101.6z M479.2,101.6h7v7h-7V101.6z M486.5,101.6h7v7h-7V101.6z M493.7,101.6h7v7h-7V101.6z M501,101.6h7v7h-7V101.6z
	 M508.2,101.6h7v7h-7V101.6z M515.5,101.6h7v7h-7V101.6z M522.8,101.6h7v7h-7V101.6z M530,101.6h7v7h-7V101.6z M537.3,101.6h7v7h-7
	V101.6z M544.5,101.6h7v7h-7V101.6z M413.9,87.1h7v7h-7V87.1z M421.1,87.1h7v7h-7V87.1z M428.4,87.1h7v7h-7V87.1z M435.6,87.1h7v7
	h-7V87.1z M442.9,87.1h7v7h-7V87.1z M450.1,87.1h7v7h-7V87.1z M457.4,87.1h7v7h-7V87.1z M464.7,87.1h7v7h-7V87.1z M471.9,87.1h7v7
	h-7V87.1z M479.2,87.1h7v7h-7V87.1z M486.5,87.1h7v7h-7V87.1z M493.7,87.1h7v7h-7V87.1z M501,87.1h7v7h-7V87.1z M508.2,87.1h7v7h-7
	V87.1z M515.5,87.1h7v7h-7V87.1z M522.8,87.1h7v7h-7V87.1z M530,87.1h7v7h-7V87.1z M537.3,87.1h7v7h-7V87.1z M544.5,87.1h7v7h-7
	V87.1z M660.7,101.6h7v7h-7V101.6z M675.2,101.6h7v7h-7V101.6z M682.5,101.6h7v7h-7V101.6z M689.7,101.6h7v7h-7V101.6z M305,108.9h7
	v7h-7V108.9z M319.5,108.9h7v7h-7V108.9z M312.2,101.4h7v7h-7V101.4z M319.5,101.4h7v7h-7V101.4z M326.7,108.9h7v7h-7V108.9z
	 M334,108.9h7v7h-7V108.9z M341.2,108.9h7v7h-7V108.9z M334.1,94.4h7v7h-7V94.4z M341.4,94.4h7v7h-7V94.4z M348.5,108.9h7v7h-7
	V108.9z M355.8,108.9h7v7h-7V108.9z M363,108.9h7v7h-7V108.9z M370.3,108.9h7v7h-7V108.9z M377.5,108.9h7v7h-7V108.9z M384.8,108.9
	h7v7h-7V108.9z M392.1,108.9h7v7h-7V108.9z M399.3,108.9h7v7h-7V108.9z M406.6,108.9h7v7h-7V108.9z M413.9,108.9h7v7h-7V108.9z
	 M421.1,108.9h7v7h-7V108.9z M428.4,108.9h7v7h-7V108.9z M435.6,108.9h7v7h-7V108.9z M442.9,108.9h7v7h-7V108.9z M450.1,108.9h7v7
	h-7V108.9z M457.4,108.9h7v7h-7V108.9z M464.7,108.9h7v7h-7V108.9z M471.9,108.9h7v7h-7V108.9z M479.2,108.9h7v7h-7V108.9z
	 M486.5,108.9h7v7h-7V108.9z M493.7,108.9h7v7h-7V108.9z M501,108.9h7v7h-7V108.9z M508.2,108.9h7v7h-7V108.9z M515.5,108.9h7v7h-7
	V108.9z M522.8,108.9h7v7h-7V108.9z M530,108.9h7v7h-7V108.9z M537.3,108.9h7v7h-7V108.9z M544.5,108.9h7v7h-7V108.9z M551.8,108.9
	h7v7h-7V108.9z M559.1,108.9h7v7h-7V108.9z M566.3,108.9h7v7h-7V108.9z M551.8,87.1h7v7h-7V87.1z M559.1,87.1h7v7h-7V87.1z
	 M566.3,87.1h7v7h-7V87.1z M573.6,108.9h7v7h-7V108.9z M580.8,108.9h7v7h-7V108.9z M588.1,108.9h7v7h-7V108.9z M595.4,108.9h7v7h-7
	V108.9z M602.6,108.9h7v7h-7V108.9z M609.9,108.9h7v7h-7V108.9z M617.1,108.9h7v7h-7V108.9z M646.2,108.9h7v7h-7V108.9z
	 M653.4,108.9h7v7h-7V108.9z M646.2,94.4h7v7h-7V94.4z M653.4,94.4h7v7h-7V94.4z M660.7,108.9h7v7h-7V108.9z M668,94.4h7v7h-7V94.4z
	 M675.2,108.9h7v7h-7V108.9z M682.5,108.9h7v7h-7V108.9z M697,108.9h7v7h-7V108.9z M704.2,108.9h7v7h-7V108.9z M297.7,116.1h7v7h-7
	V116.1z M355.8,130.5h7v7h-7V130.5z M355.8,116.1h7v7h-7V116.1z M363,116.1h7v7h-7V116.1z M370.3,116.1h7v7h-7V116.1z M377.5,116.1
	h7v7h-7V116.1z M384.8,116.1h7v7h-7V116.1z M392.1,116.1h7v7h-7V116.1z M399.3,116.1h7v7h-7V116.1z M406.6,116.1h7v7h-7V116.1z
	 M413.9,116.1h7v7h-7V116.1z M421.1,116.1h7v7h-7V116.1z M428.4,116.1h7v7h-7V116.1z M435.6,116.1h7v7h-7V116.1z M442.9,116.1h7v7
	h-7V116.1z M450.1,116.1h7v7h-7V116.1z M457.4,116.1h7v7h-7V116.1z M464.7,116.1h7v7h-7V116.1z M471.9,116.1h7v7h-7V116.1z
	 M479.2,116.1h7v7h-7V116.1z M486.5,116.1h7v7h-7V116.1z M493.7,116.1h7v7h-7V116.1z M501,116.1h7v7h-7V116.1z M508.2,116.1h7v7h-7
	V116.1z M515.5,116.1h7v7h-7V116.1z M522.8,116.1h7v7h-7V116.1z M530,116.1h7v7h-7V116.1z M537.3,116.1h7v7h-7V116.1z M544.5,116.1
	h7v7h-7V116.1z M551.8,116.1h7v7h-7V116.1z M559.1,116.1h7v7h-7V116.1z M566.3,116.1h7v7h-7V116.1z M573.6,116.1h7v7h-7V116.1z
	 M580.8,116.1h7v7h-7V116.1z M588.1,116.1h7v7h-7V116.1z M595.4,116.1h7v7h-7V116.1z M602.6,116.1h7v7h-7V116.1z M609.9,116.1h7v7
	h-7V116.1z M617.1,116.1h7v7h-7V116.1z M624.4,108.9h7v7h-7V108.9z M631.6,108.9h7v7h-7V108.9z M624.4,116.1h7v7h-7V116.1z
	 M631.6,116.1h7v7h-7V116.1z M646.2,116.1h7v7h-7V116.1z M653.4,116.1h7v7h-7V116.1z M660.7,116.1h7v7h-7V116.1z M668,116.1h7v7h-7
	V116.1z M675.2,116.1h7v7h-7V116.1z M682.5,116.1h7v7h-7V116.1z M689.7,116.1h7v7h-7V116.1z M697,116.1h7v7h-7V116.1z M704.2,116.1
	h7v7h-7V116.1z M711.5,116.1h7v7h-7V116.1z M290.4,123.4h7v7h-7V123.4z M377.5,123.4h7v7h-7V123.4z M384.8,123.4h7v7h-7V123.4z
	 M392.1,123.4h7v7h-7V123.4z M399.3,123.4h7v7h-7V123.4z M406.6,123.4h7v7h-7V123.4z M413.9,123.4h7v7h-7V123.4z M421.1,123.4h7v7
	h-7V123.4z M428.4,123.4h7v7h-7V123.4z M682.5,123.4h7v7h-7V123.4z M689.7,123.4h7v7h-7V123.4z M697,123.4h7v7h-7V123.4z
	 M704.2,123.4h7v7h-7V123.4z M711.5,123.4h7v7h-7V123.4z M718.8,123.4h7v7h-7V123.4z M283.2,130.6h7v7h-7V130.6z M384.8,130.6h7v7
	h-7V130.6z M392.1,130.6h7v7h-7V130.6z M399.3,130.6h7v7h-7V130.6z M406.6,130.6h7v7h-7V130.6z M413.9,130.6h7v7h-7V130.6z
	 M421.1,130.6h7v7h-7V130.6z M428.4,130.6h7v7h-7V130.6z M435.6,130.6h7v7h-7V130.6z M689.7,130.6h7v7h-7V130.6z M697,130.6h7v7h-7
	V130.6z M704.2,130.6h7v7h-7V130.6z M711.5,130.6h7v7h-7V130.6z M718.8,130.6h7v7h-7V130.6z M726,130.6h7v7h-7V130.6z M733.3,137.9
	h7v7h-7V137.9z M275.9,137.9h7v7h-7V137.9z M355.8,137.8h7v7h-7V137.8z M392.1,137.9h7v7h-7V137.9z M399.3,137.9h7v7h-7V137.9z
	 M406.6,137.9h7v7h-7V137.9z M413.9,137.9h7v7h-7V137.9z M421.1,137.9h7v7h-7V137.9z M428.4,137.9h7v7h-7V137.9z M435.6,137.9h7v7
	h-7V137.9z M442.9,137.9h7v7h-7V137.9z M689.7,137.9h7v7h-7V137.9z M697,137.9h7v7h-7V137.9z M704.2,137.9h7v7h-7V137.9z
	 M711.5,137.9h7v7h-7V137.9z M718.8,137.9h7v7h-7V137.9z M726,137.9h7v7h-7V137.9z M268.6,145.2h7v7h-7V145.2z M355.8,145h7v7h-7
	V145z M399.3,145.2h7v7h-7V145.2z M406.6,145.2h7v7h-7V145.2z M413.9,145.2h7v7h-7V145.2z M421.1,145.2h7v7h-7V145.2z M428.4,145.2
	h7v7h-7V145.2z M435.6,145.2h7v7h-7V145.2z M442.9,145.2h7v7h-7V145.2z M450.1,145.2h7v7h-7V145.2z M689.7,145.2h7v7h-7V145.2z
	 M704.2,145.2h7v7h-7V145.2z M711.5,145.2h7v7h-7V145.2z M718.8,145.2h7v7h-7V145.2z M726,145.2h7v7h-7V145.2z M733.3,145.2h7v7h-7
	V145.2z M740.6,145.2h7v7h-7V145.2z M268.6,152.4h7v7h-7V152.4z M355.8,123.3h7v7h-7V123.3z M348.5,152.3h7v7h-7V152.3z
	 M399.3,152.4h7v7h-7V152.4z M406.6,152.4h7v7h-7V152.4z M413.9,152.4h7v7h-7V152.4z M421.1,152.4h7v7h-7V152.4z M428.4,152.4h7v7
	h-7V152.4z M435.6,152.4h7v7h-7V152.4z M442.9,152.4h7v7h-7V152.4z M450.1,152.4h7v7h-7V152.4z M457.4,152.4h7v7h-7V152.4z
	 M689.7,152.4h7v7h-7V152.4z M697,152.4h7v7h-7V152.4z M711.5,152.4h7v7h-7V152.4z M718.8,152.4h7v7h-7V152.4z M726,152.4h7v7h-7
	V152.4z M740.6,152.4h7v7h-7V152.4z M747.8,152.4h7v7h-7V152.4z M261.4,159.7h7v7h-7V159.7z M348.5,159.6h7v7h-7V159.6z
	 M392.1,159.7h7v7h-7V159.7z M399.3,159.7h7v7h-7V159.7z M406.6,159.7h7v7h-7V159.7z M413.9,159.7h7v7h-7V159.7z M421.1,159.7h7v7
	h-7V159.7z M428.4,159.7h7v7h-7V159.7z M435.6,159.7h7v7h-7V159.7z M442.9,159.7h7v7h-7V159.7z M450.1,159.7h7v7h-7V159.7z
	 M457.4,159.7h7v7h-7V159.7z M464.7,159.7h7v7h-7V159.7z M471.9,159.7h7v7h-7V159.7z M479.2,159.7h7v7h-7V159.7z M486.5,159.7h7v7
	h-7V159.7z M493.7,159.7h7v7h-7V159.7z M501,159.7h7v7h-7V159.7z M508.2,159.7h7v7h-7V159.7z M515.5,159.7h7v7h-7V159.7z
	 M522.8,159.7h7v7h-7V159.7z M530,159.7h7v7h-7V159.7z M537.3,159.7h7v7h-7V159.7z M544.5,159.7h7v7h-7V159.7z M551.8,159.7h7v7h-7
	V159.7z M559.1,159.7h7v7h-7V159.7z M566.3,159.7h7v7h-7V159.7z M573.6,159.7h7v7h-7V159.7z M580.8,159.7h7v7h-7V159.7z
	 M588.1,159.7h7v7h-7V159.7z M595.4,159.7h7v7h-7V159.7z M602.6,159.7h7v7h-7V159.7z M609.9,159.7h7v7h-7V159.7z M631.7,166.8h7v7
	h-7V166.8z M675.2,159.7h7v7h-7V159.7z M689.7,159.7h7v7h-7V159.7z M697,159.7h7v7h-7V159.7z M718.8,159.7h7v7h-7V159.7z M726,159.7
	h7v7h-7V159.7z M733.3,159.7h7v7h-7V159.7z M740.6,159.7h7v7h-7V159.7z M747.8,159.7h7v7h-7V159.7z M254.1,167h7v7h-7V167z
	 M334,174.2h7v7h-7V174.2z M341.2,174.2h7v7h-7V174.2z M348.5,174.2h7v7h-7V174.2z M348.5,167h7v7h-7V167z M355.8,167h7v7h-7V167z
	 M363,167h7v7h-7V167z M377.5,167h7v7h-7V167z M384.8,167h7v7h-7V167z M392.1,167h7v7h-7V167z M399.3,167h7v7h-7V167z M406.6,167h7
	v7h-7V167z M479.2,167h7v7h-7V167z M501,167h7v7h-7V167z M508.2,167h7v7h-7V167z M515.5,167h7v7h-7V167z M522.8,167h7v7h-7V167z
	 M530,167h7v7h-7V167z M537.3,167h7v7h-7V167z M544.5,167h7v7h-7V167z M551.8,167h7v7h-7V167z M559.1,167h7v7h-7V167z M566.3,167h7
	v7h-7V167z M573.6,167h7v7h-7V167z M580.8,167h7v7h-7V167z M588.1,167h7v7h-7V167z M595.4,167h7v7h-7V167z M602.6,167h7v7h-7V167z
	 M609.9,167h7v7h-7V167z M617.1,167h7v7h-7V167z M631.7,174.1h7v7h-7V174.1z M668,167h7v7h-7V167z M697,167h7v7h-7V167z M718.8,167
	h7v7h-7V167z M726,167h7v7h-7V167z M733.3,167h7v7h-7V167z M740.6,167h7v7h-7V167z M747.8,167h7v7h-7V167z M755.1,167h7v7h-7V167z
	 M246.9,174.2h7v7h-7V174.2z M275.9,174.2h7v7h-7V174.2z M283.2,174.2h7v7h-7V174.2z M290.4,174.2h7v7h-7V174.2z M297.7,174.2h7v7
	h-7V174.2z M305,174.2h7v7h-7V174.2z M312.2,174.2h7v7h-7V174.2z M319.5,174.2h7v7h-7V174.2z M326.7,174.2h7v7h-7V174.2z
	 M355.8,174.2h7v7h-7V174.2z M363,174.2h7v7h-7V174.2z M370.3,174.2h7v7h-7V174.2z M377.5,174.2h7v7h-7V174.2z M384.8,174.2h7v7h-7
	V174.2z M392.1,174.2h7v7h-7V174.2z M399.3,174.2h7v7h-7V174.2z M406.6,174.2h7v7h-7V174.2z M413.9,174.2h7v7h-7V174.2z
	 M421.1,174.2h7v7h-7V174.2z M428.4,174.2h7v7h-7V174.2z M435.6,174.2h7v7h-7V174.2z M442.9,174.2h7v7h-7V174.2z M450.1,174.2h7v7
	h-7V174.2z M457.4,174.2h7v7h-7V174.2z M464.7,174.2h7v7h-7V174.2z M471.9,174.2h7v7h-7V174.2z M479.2,174.2h7v7h-7V174.2z
	 M486.5,174.2h7v7h-7V174.2z M493.7,174.2h7v7h-7V174.2z M501,174.2h7v7h-7V174.2z M508.2,174.2h7v7h-7V174.2z M537.3,174.2h7v7h-7
	V174.2z M544.5,174.2h7v7h-7V174.2z M551.8,174.2h7v7h-7V174.2z M559.1,174.2h7v7h-7V174.2z M566.3,174.2h7v7h-7V174.2z
	 M573.6,174.2h7v7h-7V174.2z M580.8,174.2h7v7h-7V174.2z M588.1,174.2h7v7h-7V174.2z M595.4,174.2h7v7h-7V174.2z M602.6,174.2h7v7
	h-7V174.2z M609.9,174.2h7v7h-7V174.2z M617.1,174.2h7v7h-7V174.2z M631.7,181.3h7v7h-7V181.3z M697,174.2h7v7h-7V174.2z
	 M704.2,174.2h7v7h-7V174.2z M711.5,174.2h7v7h-7V174.2z M718.8,174.2h7v7h-7V174.2z M726,174.2h7v7h-7V174.2z M733.3,174.2h7v7h-7
	V174.2z M740.6,174.2h7v7h-7V174.2z M755.1,174.2h7v7h-7V174.2z M188.8,181.5h7v7h-7V181.5z M196.1,181.5h7v7h-7V181.5z
	 M203.3,181.5h7v7h-7V181.5z M210.6,181.5h7v7h-7V181.5z M217.8,181.5h7v7h-7V181.5z M225.1,181.5h7v7h-7V181.5z M232.4,181.5h7v7
	h-7V181.5z M239.6,181.5h7v7h-7V181.5z M377.5,181.5h7v7h-7V181.5z M384.8,181.5h7v7h-7V181.5z M392.1,181.5h7v7h-7V181.5z
	 M399.3,181.5h7v7h-7V181.5z M406.6,181.5h7v7h-7V181.5z M413.9,181.5h7v7h-7V181.5z M421.1,181.5h7v7h-7V181.5z M428.4,181.5h7v7
	h-7V181.5z M435.6,181.5h7v7h-7V181.5z M442.9,181.5h7v7h-7V181.5z M450.1,181.5h7v7h-7V181.5z M457.4,181.5h7v7h-7V181.5z
	 M486.5,181.5h7v7h-7V181.5z M493.7,181.5h7v7h-7V181.5z M501,181.5h7v7h-7V181.5z M508.2,181.5h7v7h-7V181.5z M515.5,181.5h7v7h-7
	V181.5z M522.8,181.5h7v7h-7V181.5z M631.7,188.6h7v7h-7V188.6z M631.7,137.8h7v7h-7V137.8z M631.7,145h7v7h-7V145z M631.7,152.3h7
	v7h-7V152.3z M631.7,159.6h7v7h-7V159.6z M638.9,108.9h7v7h-7V108.9z M638.9,116.1h7v7h-7V116.1z M638.9,94.4h7v7h-7V94.4z
	 M638.9,101.6h7v7h-7V101.6z M638.9,123.4h7v7h-7V123.4z M638.9,130.7h7v7h-7V130.7z M668,181.5h7v7h-7V181.5z M675.2,181.5h7v7h-7
	V181.5z M697,181.5h7v7h-7V181.5z M704.2,181.5h7v7h-7V181.5z M711.5,181.5h7v7h-7V181.5z M718.8,181.5h7v7h-7V181.5z M726,181.5h7
	v7h-7V181.5z M733.3,181.5h7v7h-7V181.5z M740.6,181.5h7v7h-7V181.5z M747.8,181.5h7v7h-7V181.5z M755.1,181.5h7v7h-7V181.5z
	 M762.3,181.5h7v7h-7V181.5z M769.6,181.5h7v7h-7V181.5z M776.9,181.5h7v7h-7V181.5z M108.9,188.7h7v7h-7V188.7z M116.2,188.7h7v7
	h-7V188.7z M123.5,188.7h7v7h-7V188.7z M130.7,188.7h7v7h-7V188.7z M138,188.7h7v7h-7V188.7z M145.2,188.7h7v7h-7V188.7z
	 M152.5,188.7h7v7h-7V188.7z M159.8,188.7h7v7h-7V188.7z M167,188.7h7v7h-7V188.7z M174.3,188.7h7v7h-7V188.7z M181.5,188.7h7v7h-7
	V188.7z M268.6,174.2h7v7h-7V174.2z M261.5,174.2h7v7h-7V174.2z M254.3,174.2h7v7h-7V174.2z M370.3,188.7h7v7h-7V188.7z
	 M377.5,188.7h7v7h-7V188.7z M384.8,188.7h7v7h-7V188.7z M392.1,188.7h7v7h-7V188.7z M399.3,188.7h7v7h-7V188.7z M406.6,188.7h7v7
	h-7V188.7z M413.9,188.7h7v7h-7V188.7z M421.1,188.7h7v7h-7V188.7z M428.4,188.7h7v7h-7V188.7z M435.6,188.7h7v7h-7V188.7z
	 M442.9,188.7h7v7h-7V188.7z M450.1,188.7h7v7h-7V188.7z M457.4,188.7h7v7h-7V188.7z M464.7,188.7h7v7h-7V188.7z M471.9,188.7h7v7
	h-7V188.7z M479.2,188.7h7v7h-7V188.7z M486.5,188.7h7v7h-7V188.7z M493.7,188.7h7v7h-7V188.7z M501,188.7h7v7h-7V188.7z
	 M508.2,188.7h7v7h-7V188.7z M515.5,188.7h7v7h-7V188.7z M522.8,188.7h7v7h-7V188.7z M530,188.7h7v7h-7V188.7z M537.3,188.7h7v7h-7
	V188.7z M544.5,188.7h7v7h-7V188.7z M551.8,188.7h7v7h-7V188.7z M559.1,188.7h7v7h-7V188.7z M566.3,188.7h7v7h-7V188.7z
	 M573.6,188.7h7v7h-7V188.7z M580.8,188.7h7v7h-7V188.7z M588.1,188.7h7v7h-7V188.7z M595.4,188.7h7v7h-7V188.7z M602.6,188.7h7v7
	h-7V188.7z M609.9,188.7h7v7h-7V188.7z M617.1,188.7h7v7h-7V188.7z M624.4,188.7h7v7h-7V188.7z M638.9,188.7h7v7h-7V188.7z
	 M646.2,188.7h7v7h-7V188.7z M660.7,188.7h7v7h-7V188.7z M668,188.7h7v7h-7V188.7z M675.2,188.7h7v7h-7V188.7z M682.5,188.7h7v7h-7
	V188.7z M689.7,188.7h7v7h-7V188.7z M697,188.7h7v7h-7V188.7z M704.2,188.7h7v7h-7V188.7z M711.5,188.7h7v7h-7V188.7z M718.8,188.7
	h7v7h-7V188.7z M798.6,188.7h7v7h-7V188.7z M50.9,196h7v7h-7V196z M58.1,196h7v7h-7V196z M65.4,196h7v7h-7V196z M72.6,196h7v7h-7
	V196z M79.9,196h7v7h-7V196z M87.2,196h7v7h-7V196z M94.4,196h7v7h-7V196z M101.7,196h7v7h-7V196z M363,196h7v7h-7V196z M370.3,196
	h7v7h-7V196z M377.5,196h7v7h-7V196z M384.8,196h7v7h-7V196z M392.1,196h7v7h-7V196z M399.3,196h7v7h-7V196z M406.6,196h7v7h-7V196z
	 M413.9,196h7v7h-7V196z M421.1,196h7v7h-7V196z M428.4,196h7v7h-7V196z M435.6,196h7v7h-7V196z M442.9,196h7v7h-7V196z M450.1,196
	h7v7h-7V196z M457.4,196h7v7h-7V196z M464.7,196h7v7h-7V196z M471.9,196h7v7h-7V196z M479.2,196h7v7h-7V196z M486.5,196h7v7h-7V196z
	 M493.7,196h7v7h-7V196z M501,196h7v7h-7V196z M508.2,196h7v7h-7V196z M515.5,196h7v7h-7V196z M522.8,196h7v7h-7V196z M530,196h7v7
	h-7V196z M537.3,196h7v7h-7V196z M544.5,196h7v7h-7V196z M551.8,196h7v7h-7V196z M559.1,196h7v7h-7V196z M566.3,196h7v7h-7V196z
	 M573.6,196h7v7h-7V196z M646.2,196h7v7h-7V196z M653.4,196h7v7h-7V196z M660.7,196h7v7h-7V196z M668,196h7v7h-7V196z M675.2,196h7
	v7h-7V196z M813.2,196h7v7h-7V196z M820.4,196h7v7h-7V196z M827.7,196h7v7h-7V196z M805.9,188.7h7v7h-7V188.7z M43.6,203.3h7v7h-7
	V203.3z M421.1,203.3h7v7h-7V203.3z M435.6,203.3h7v7h-7V203.3z M442.9,203.3h7v7h-7V203.3z M450.1,203.3h7v7h-7V203.3z
	 M457.4,203.3h7v7h-7V203.3z M464.7,203.3h7v7h-7V203.3z M471.9,203.3h7v7h-7V203.3z M479.2,203.3h7v7h-7V203.3z M486.5,203.3h7v7
	h-7V203.3z M493.7,203.3h7v7h-7V203.3z M501,203.3h7v7h-7V203.3z M508.2,203.3h7v7h-7V203.3z M515.5,203.3h7v7h-7V203.3z
	 M522.8,203.3h7v7h-7V203.3z M530,203.3h7v7h-7V203.3z M537.3,203.3h7v7h-7V203.3z M544.5,203.3h7v7h-7V203.3z M653.4,203.3h7v7h-7
	V203.3z M660.7,203.3h7v7h-7V203.3z M668,203.3h7v7h-7V203.3z M726,203.3h7v7h-7V203.3z M834.9,203.3h7v7h-7V203.3z M36.3,210.5h7v7
	h-7V210.5z M58.1,210.5h7v7h-7V210.5z M65.4,210.5h7v7h-7V210.5z M493.7,210.5h7v7h-7V210.5z M522.8,210.5h7v7h-7V210.5z
	 M842.2,210.5h7v7h-7V210.5z M36.3,217.8h7v7h-7V217.8z M43.6,217.8h7v7h-7V217.8z M50.9,217.8h7v7h-7V217.8z M58.1,217.8h7v7h-7
	V217.8z M87.2,217.8h7v7h-7V217.8z M94.4,217.8h7v7h-7V217.8z M101.7,217.8h7v7h-7V217.8z M108.9,217.8h7v7h-7V217.8z M116.2,217.8
	h7v7h-7V217.8z M123.5,217.8h7v7h-7V217.8z M130.7,217.8h7v7h-7V217.8z M138,217.8h7v7h-7V217.8z M145.2,217.8h7v7h-7V217.8z
	 M152.5,217.8h7v7h-7V217.8z M159.8,217.8h7v7h-7V217.8z M167,217.8h7v7h-7V217.8z M174.3,217.8h7v7h-7V217.8z M181.5,217.8h7v7h-7
	V217.8z M188.8,217.8h7v7h-7V217.8z M196.1,217.8h7v7h-7V217.8z M203.3,217.8h7v7h-7V217.8z M210.6,217.8h7v7h-7V217.8z
	 M217.8,217.8h7v7h-7V217.8z M225.1,217.8h7v7h-7V217.8z M232.4,217.8h7v7h-7V217.8z M239.6,217.8h7v7h-7V217.8z M246.9,217.8h7v7
	h-7V217.8z M254.1,217.8h7v7h-7V217.8z M268.6,217.8h7v7h-7V217.8z M275.9,217.8h7v7h-7V217.8z M283.2,217.8h7v7h-7V217.8z
	 M290.4,217.8h7v7h-7V217.8z M297.7,217.8h7v7h-7V217.8z M305,217.8h7v7h-7V217.8z M312.2,217.8h7v7h-7V217.8z M319.5,217.8h7v7h-7
	V217.8z M326.7,217.8h7v7h-7V217.8z M334,217.8h7v7h-7V217.8z M341.2,217.8h7v7h-7V217.8z M348.5,217.8h7v7h-7V217.8z M355.8,217.8
	h7v7h-7V217.8z M363,217.8h7v7h-7V217.8z M370.3,217.8h7v7h-7V217.8z M377.5,217.8h7v7h-7V217.8z M384.8,217.8h7v7h-7V217.8z
	 M392.1,217.8h7v7h-7V217.8z M399.3,217.8h7v7h-7V217.8z M718.8,217.8h7v7h-7V217.8z M726,217.8h7v7h-7V217.8z M740.6,217.8h7v7h-7
	V217.8z M784,188.7h7v7h-7V188.7z M791.2,188.7h7v7h-7V188.7z M813.2,217.8h7v7h-7V217.8z M820.4,217.8h7v7h-7V217.8z M827.7,217.8
	h7v7h-7V217.8z M834.9,217.8h7v7h-7V217.8z M849.5,217.8h7v7h-7V217.8z M29.1,225h7v7h-7V225z M43.6,225h7v7h-7V225z M50.9,225h7v7
	h-7V225z M65.4,225h7v7h-7V225z M72.6,225h7v7h-7V225z M79.9,225h7v7h-7V225z M87.2,225h7v7h-7V225z M94.4,225h7v7h-7V225z
	 M101.7,225h7v7h-7V225z M108.9,225h7v7h-7V225z M116.2,225h7v7h-7V225z M123.5,225h7v7h-7V225z M130.7,225h7v7h-7V225z M138,225h7
	v7h-7V225z M145.2,225h7v7h-7V225z M152.5,225h7v7h-7V225z M159.8,225h7v7h-7V225z M167,225h7v7h-7V225z M174.3,225h7v7h-7V225z
	 M181.5,225h7v7h-7V225z M188.8,225h7v7h-7V225z M196.1,225h7v7h-7V225z M203.3,225h7v7h-7V225z M210.6,225h7v7h-7V225z M217.8,225
	h7v7h-7V225z M225.1,225h7v7h-7V225z M232.4,225h7v7h-7V225z M239.6,225h7v7h-7V225z M246.9,225h7v7h-7V225z M268.6,225h7v7h-7V225z
	 M275.9,225h7v7h-7V225z M283.2,225h7v7h-7V225z M290.4,225h7v7h-7V225z M297.7,225h7v7h-7V225z M305,225h7v7h-7V225z M312.2,225h7
	v7h-7V225z M319.5,225h7v7h-7V225z M326.7,225h7v7h-7V225z M334,225h7v7h-7V225z M341.2,225h7v7h-7V225z M348.5,225h7v7h-7V225z
	 M355.8,225h7v7h-7V225z M363,225h7v7h-7V225z M370.3,225h7v7h-7V225z M377.5,225h7v7h-7V225z M384.8,225h7v7h-7V225z M392.1,225h7
	v7h-7V225z M399.3,225h7v7h-7V225z M406.6,225h7v7h-7V225z M413.9,225h7v7h-7V225z M421.1,225h7v7h-7V225z M428.4,225h7v7h-7V225z
	 M435.6,225h7v7h-7V225z M442.9,225h7v7h-7V225z M450.1,225h7v7h-7V225z M457.4,225h7v7h-7V225z M464.7,225h7v7h-7V225z M471.9,225
	h7v7h-7V225z M479.2,225h7v7h-7V225z M486.5,225h7v7h-7V225z M493.7,225h7v7h-7V225z M501,225h7v7h-7V225z M508.2,225h7v7h-7V225z
	 M515.5,225h7v7h-7V225z M530,225h7v7h-7V225z M537.3,225h7v7h-7V225z M668,225h7v7h-7V225z M697,225h7v7h-7V225z M704.2,225h7v7h-7
	V225z M711.5,225h7v7h-7V225z M718.8,225h7v7h-7V225z M726,225h7v7h-7V225z M733.3,225h7v7h-7V225z M740.6,225h7v7h-7V225z
	 M747.8,225h7v7h-7V225z M755.1,225h7v7h-7V225z M762.3,225h7v7h-7V225z M769.6,225h7v7h-7V225z M776.9,225h7v7h-7V225z M784.1,225
	h7v7h-7V225z M791.4,225h7v7h-7V225z M798.6,225h7v7h-7V225z M805.9,225h7v7h-7V225z M813.2,225h7v7h-7V225z M820.4,225h7v7h-7V225z
	 M827.7,225h7v7h-7V225z M834.9,225h7v7h-7V225z M842.2,225h7v7h-7V225z M849.5,225h7v7h-7V225z M21.8,232.3h7v7h-7V232.3z
	 M43.6,232.3h7v7h-7V232.3z M87.2,232.3h7v7h-7V232.3z M94.4,232.3h7v7h-7V232.3z M246.9,232.3h7v7h-7V232.3z M268.6,232.3h7v7h-7
	V232.3z M275.9,232.3h7v7h-7V232.3z M283.2,232.3h7v7h-7V232.3z M290.4,232.3h7v7h-7V232.3z M297.7,232.3h7v7h-7V232.3z M305,232.3
	h7v7h-7V232.3z M312.2,232.3h7v7h-7V232.3z M319.5,232.3h7v7h-7V232.3z M326.7,232.3h7v7h-7V232.3z M334,232.3h7v7h-7V232.3z
	 M341.2,232.3h7v7h-7V232.3z M348.5,232.3h7v7h-7V232.3z M355.8,232.3h7v7h-7V232.3z M363,232.3h7v7h-7V232.3z M370.3,232.3h7v7h-7
	V232.3z M377.5,232.3h7v7h-7V232.3z M384.8,232.3h7v7h-7V232.3z M392.1,232.3h7v7h-7V232.3z M399.3,232.3h7v7h-7V232.3z
	 M406.6,232.3h7v7h-7V232.3z M413.9,232.3h7v7h-7V232.3z M421.1,232.3h7v7h-7V232.3z M428.4,232.3h7v7h-7V232.3z M435.6,232.3h7v7
	h-7V232.3z M442.9,232.3h7v7h-7V232.3z M450.1,232.3h7v7h-7V232.3z M457.4,232.3h7v7h-7V232.3z M464.7,232.3h7v7h-7V232.3z
	 M471.9,232.3h7v7h-7V232.3z M479.2,232.3h7v7h-7V232.3z M486.5,232.3h7v7h-7V232.3z M493.7,232.3h7v7h-7V232.3z M501,232.3h7v7h-7
	V232.3z M508.2,232.3h7v7h-7V232.3z M515.5,232.3h7v7h-7V232.3z M530,232.3h7v7h-7V232.3z M537.3,232.3h7v7h-7V232.3z M653.4,232.3
	h7v7h-7V232.3z M660.7,232.3h7v7h-7V232.3z M668,232.3h7v7h-7V232.3z M675.2,232.3h7v7h-7V232.3z M682.5,232.3h7v7h-7V232.3z
	 M689.7,232.3h7v7h-7V232.3z M697,232.3h7v7h-7V232.3z M704.2,232.3h7v7h-7V232.3z M711.5,232.3h7v7h-7V232.3z M718.8,232.3h7v7h-7
	V232.3z M726,232.3h7v7h-7V232.3z M733.3,232.3h7v7h-7V232.3z M740.6,232.3h7v7h-7V232.3z M747.8,232.3h7v7h-7V232.3z M755.1,232.3
	h7v7h-7V232.3z M762.3,232.3h7v7h-7V232.3z M769.6,232.3h7v7h-7V232.3z M776.9,232.3h7v7h-7V232.3z M784.1,232.3h7v7h-7V232.3z
	 M791.4,232.3h7v7h-7V232.3z M798.6,232.3h7v7h-7V232.3z M805.9,232.3h7v7h-7V232.3z M813.2,232.3h7v7h-7V232.3z M820.4,232.3h7v7
	h-7V232.3z M827.7,232.3h7v7h-7V232.3z M834.9,232.3h7v7h-7V232.3z M842.2,232.3h7v7h-7V232.3z M849.5,232.3h7v7h-7V232.3z
	 M856.7,232.3h7v7h-7V232.3z M14.6,239.6h7v7h-7V239.6z M21.8,239.6h7v7h-7V239.6z M268.6,239.6h7v7h-7V239.6z M275.9,239.6h7v7h-7
	V239.6z M283.2,239.6h7v7h-7V239.6z M290.4,239.6h7v7h-7V239.6z M297.7,239.6h7v7h-7V239.6z M305,239.6h7v7h-7V239.6z M312.2,239.6
	h7v7h-7V239.6z M319.5,239.6h7v7h-7V239.6z M326.7,239.6h7v7h-7V239.6z M334,239.6h7v7h-7V239.6z M341.2,239.6h7v7h-7V239.6z
	 M348.5,239.6h7v7h-7V239.6z M355.8,239.6h7v7h-7V239.6z M363,239.6h7v7h-7V239.6z M370.3,239.6h7v7h-7V239.6z M377.5,239.6h7v7h-7
	V239.6z M384.8,239.6h7v7h-7V239.6z M392.1,239.6h7v7h-7V239.6z M399.3,239.6h7v7h-7V239.6z M471.9,239.6h7v7h-7V239.6z M530,239.6
	h7v7h-7V239.6z M537.3,239.6h7v7h-7V239.6z M544.5,239.6h7v7h-7V239.6z M609.9,239.6h7v7h-7V239.6z M617.1,239.6h7v7h-7V239.6z
	 M624.4,239.6h7v7h-7V239.6z M631.7,239.6h7v7h-7V239.6z M638.9,239.6h7v7h-7V239.6z M646.2,239.6h7v7h-7V239.6z M653.4,239.6h7v7
	h-7V239.6z M660.7,239.6h7v7h-7V239.6z M668,239.6h7v7h-7V239.6z M675.2,239.6h7v7h-7V239.6z M682.5,239.6h7v7h-7V239.6z
	 M689.7,239.6h7v7h-7V239.6z M697,239.6h7v7h-7V239.6z M704.2,239.6h7v7h-7V239.6z M711.5,239.6h7v7h-7V239.6z M718.8,239.6h7v7h-7
	V239.6z M726,239.6h7v7h-7V239.6z M733.3,239.6h7v7h-7V239.6z M740.6,239.6h7v7h-7V239.6z M747.8,239.6h7v7h-7V239.6z M755.1,239.6
	h7v7h-7V239.6z M762.3,239.6h7v7h-7V239.6z M769.6,239.6h7v7h-7V239.6z M776.9,239.6h7v7h-7V239.6z M784.1,239.6h7v7h-7V239.6z
	 M791.4,239.6h7v7h-7V239.6z M798.6,239.6h7v7h-7V239.6z M805.9,239.6h7v7h-7V239.6z M813.2,239.6h7v7h-7V239.6z M820.4,239.6h7v7
	h-7V239.6z M827.7,239.6h7v7h-7V239.6z M834.9,239.6h7v7h-7V239.6z M842.2,239.6h7v7h-7V239.6z M849.5,239.6h7v7h-7V239.6z
	 M856.7,239.6h7v7h-7V239.6z M14.6,246.8h7v7h-7V246.8z M36.3,246.8h7v7h-7V246.8z M43.6,246.8h7v7h-7V246.8z M50.9,246.8h7v7h-7
	V246.8z M58.1,246.8h7v7h-7V246.8z M65.4,246.8h7v7h-7V246.8z M72.6,246.8h7v7h-7V246.8z M79.9,246.8h7v7h-7V246.8z M87.2,246.8h7v7
	h-7V246.8z M94.4,246.8h7v7h-7V246.8z M101.7,246.8h7v7h-7V246.8z M108.9,246.8h7v7h-7V246.8z M116.2,246.8h7v7h-7V246.8z
	 M537.3,246.8h7v7h-7V246.8z M544.5,246.8h7v7h-7V246.8z M551.8,246.8h7v7h-7V246.8z M573.6,246.8h7v7h-7V246.8z M580.8,246.8h7v7
	h-7V246.8z M588.1,246.8h7v7h-7V246.8z M595.4,246.8h7v7h-7V246.8z M602.6,246.8h7v7h-7V246.8z M609.9,246.8h7v7h-7V246.8z
	 M617.1,246.8h7v7h-7V246.8z M624.4,246.8h7v7h-7V246.8z M631.7,246.8h7v7h-7V246.8z M638.9,246.8h7v7h-7V246.8z M646.2,246.8h7v7
	h-7V246.8z M653.4,246.8h7v7h-7V246.8z M660.7,246.8h7v7h-7V246.8z M668,246.8h7v7h-7V246.8z M675.2,246.8h7v7h-7V246.8z
	 M682.5,246.8h7v7h-7V246.8z M689.7,246.8h7v7h-7V246.8z M697,246.8h7v7h-7V246.8z M704.2,246.8h7v7h-7V246.8z M711.5,246.8h7v7h-7
	V246.8z M718.8,246.8h7v7h-7V246.8z M726,246.8h7v7h-7V246.8z M733.3,246.8h7v7h-7V246.8z M740.6,246.8h7v7h-7V246.8z M747.8,246.8
	h7v7h-7V246.8z M755.1,246.8h7v7h-7V246.8z M762.3,246.8h7v7h-7V246.8z M769.6,246.8h7v7h-7V246.8z M776.9,246.8h7v7h-7V246.8z
	 M784.1,246.8h7v7h-7V246.8z M791.4,246.8h7v7h-7V246.8z M798.6,246.8h7v7h-7V246.8z M805.9,246.8h7v7h-7V246.8z M813.2,246.8h7v7
	h-7V246.8z M820.4,246.8h7v7h-7V246.8z M827.7,246.8h7v7h-7V246.8z M834.9,246.8h7v7h-7V246.8z M842.2,246.8h7v7h-7V246.8z
	 M849.5,246.8h7v7h-7V246.8z M856.7,246.8h7v7h-7V246.8z M14.6,254.1h7v7h-7V254.1z M29.1,254.1h7v7h-7V254.1z M36.3,254.1h7v7h-7
	V254.1z M43.6,254.1h7v7h-7V254.1z M50.9,254.1h7v7h-7V254.1z M58.1,254.1h7v7h-7V254.1z M79.9,254.1h7v7h-7V254.1z M87.2,254.1h7v7
	h-7V254.1z M94.4,254.1h7v7h-7V254.1z M101.7,254.1h7v7h-7V254.1z M108.9,254.1h7v7h-7V254.1z M130.7,254.1h7v7h-7V254.1z
	 M138,254.1h7v7h-7V254.1z M145.2,254.1h7v7h-7V254.1z M152.5,254.1h7v7h-7V254.1z M159.8,254.1h7v7h-7V254.1z M167,254.1h7v7h-7
	V254.1z M174.3,254.1h7v7h-7V254.1z M181.5,254.1h7v7h-7V254.1z M188.8,254.1h7v7h-7V254.1z M196.1,254.1h7v7h-7V254.1z
	 M203.3,254.1h7v7h-7V254.1z M210.6,254.1h7v7h-7V254.1z M217.8,254.1h7v7h-7V254.1z M232.4,254.1h7v7h-7V254.1z M239.6,254.1h7v7
	h-7V254.1z M246.9,254.1h7v7h-7V254.1z M261.4,254.1h7v7h-7V254.1z M268.6,254.1h7v7h-7V254.1z M275.9,254.1h7v7h-7V254.1z
	 M283.2,254.1h7v7h-7V254.1z M297.7,254.1h7v7h-7V254.1z M305,254.1h7v7h-7V254.1z M312.2,254.1h7v7h-7V254.1z M319.5,254.1h7v7h-7
	V254.1z M326.7,254.1h7v7h-7V254.1z M341.2,254.1h7v7h-7V254.1z M348.5,254.1h7v7h-7V254.1z M355.8,254.1h7v7h-7V254.1z M363,254.1
	h7v7h-7V254.1z M377.5,254.1h7v7h-7V254.1z M384.8,254.1h7v7h-7V254.1z M392.1,254.1h7v7h-7V254.1z M406.6,254.1h7v7h-7V254.1z
	 M399.3,254.1h7v7h-7V254.1z M413.9,254.1h7v7h-7V254.1z M421.1,254.1h7v7h-7V254.1z M428.4,254.1h7v7h-7V254.1z M435.6,254.1h7v7
	h-7V254.1z M442.9,254.1h7v7h-7V254.1z M450.1,254.1h7v7h-7V254.1z M457.4,254.1h7v7h-7V254.1z M464.7,254.1h7v7h-7V254.1z
	 M471.9,254.1h7v7h-7V254.1z M479.2,254.1h7v7h-7V254.1z M486.5,254.1h7v7h-7V254.1z M493.7,254.1h7v7h-7V254.1z M501,254.1h7v7h-7
	V254.1z M508.2,254.1h7v7h-7V254.1z M515.5,254.1h7v7h-7V254.1z M544.5,254.1h7v7h-7V254.1z M551.8,254.1h7v7h-7V254.1z
	 M566.3,254.1h7v7h-7V254.1z M573.6,254.1h7v7h-7V254.1z M580.8,254.1h7v7h-7V254.1z M588.1,254.1h7v7h-7V254.1z M595.4,254.1h7v7
	h-7V254.1z M602.6,254.1h7v7h-7V254.1z M609.9,254.1h7v7h-7V254.1z M617.1,254.1h7v7h-7V254.1z M624.4,254.1h7v7h-7V254.1z
	 M631.7,254.1h7v7h-7V254.1z M638.9,254.1h7v7h-7V254.1z M646.2,254.1h7v7h-7V254.1z M653.4,254.1h7v7h-7V254.1z M660.7,254.1h7v7
	h-7V254.1z M668,254.1h7v7h-7V254.1z M675.2,254.1h7v7h-7V254.1z M682.5,254.1h7v7h-7V254.1z M689.7,254.1h7v7h-7V254.1z M697,254.1
	h7v7h-7V254.1z M704.2,254.1h7v7h-7V254.1z M711.5,254.1h7v7h-7V254.1z M718.8,254.1h7v7h-7V254.1z M726,254.1h7v7h-7V254.1z
	 M733.3,254.1h7v7h-7V254.1z M740.6,254.1h7v7h-7V254.1z M747.8,254.1h7v7h-7V254.1z M755.1,254.1h7v7h-7V254.1z M762.3,254.1h7v7
	h-7V254.1z M769.6,254.1h7v7h-7V254.1z M776.9,254.1h7v7h-7V254.1z M784.1,254.1h7v7h-7V254.1z M791.4,254.1h7v7h-7V254.1z
	 M798.6,254.1h7v7h-7V254.1z M805.9,254.1h7v7h-7V254.1z M813.2,254.1h7v7h-7V254.1z M820.4,254.1h7v7h-7V254.1z M827.7,254.1h7v7
	h-7V254.1z M834.9,254.1h7v7h-7V254.1z M842.2,254.1h7v7h-7V254.1z M849.5,254.1h7v7h-7V254.1z M14.6,261.3h7v7h-7V261.3z
	 M21.8,261.3h7v7h-7V261.3z M29.1,261.3h7v7h-7V261.3z M36.3,261.3h7v7h-7V261.3z M43.6,261.3h7v7h-7V261.3z M50.9,261.3h7v7h-7
	V261.3z M65.4,261.3h7v7h-7V261.3z M87.2,261.3h7v7h-7V261.3z M94.4,261.3h7v7h-7V261.3z M101.7,261.3h7v7h-7V261.3z M116.2,261.3h7
	v7h-7V261.3z M138,261.3h7v7h-7V261.3z M188.8,261.3h7v7h-7V261.3z M210.6,261.3h7v7h-7V261.3z M217.8,261.3h7v7h-7V261.3z
	 M232.4,261.3h7v7h-7V261.3z M239.6,261.3h7v7h-7V261.3z M246.9,261.3h7v7h-7V261.3z M261.4,261.3h7v7h-7V261.3z M268.6,261.3h7v7
	h-7V261.3z M275.9,261.3h7v7h-7V261.3z M283.2,261.3h7v7h-7V261.3z M297.7,261.3h7v7h-7V261.3z M305,261.3h7v7h-7V261.3z
	 M312.2,261.3h7v7h-7V261.3z M319.5,261.3h7v7h-7V261.3z M326.7,261.3h7v7h-7V261.3z M341.2,261.3h7v7h-7V261.3z M348.5,261.3h7v7
	h-7V261.3z M355.8,261.3h7v7h-7V261.3z M363,261.3h7v7h-7V261.3z M377.5,261.3h7v7h-7V261.3z M384.8,261.3h7v7h-7V261.3z
	 M392.1,261.3h7v7h-7V261.3z M399.3,261.3h7v7h-7V261.3z M413.9,261.3h7v7h-7V261.3z M406.6,261.3h7v7h-7V261.3z M421.1,261.3h7v7
	h-7V261.3z M428.4,261.3h7v7h-7V261.3z M450.1,261.3h7v7h-7V261.3z M457.4,261.3h7v7h-7V261.3z M464.7,261.3h7v7h-7V261.3z
	 M479.2,261.3h7v7h-7V261.3z M486.5,261.3h7v7h-7V261.3z M508.2,261.3h7v7h-7V261.3z M515.5,261.3h7v7h-7V261.3z M522.8,261.3h7v7
	h-7V261.3z M566.3,261.3h7v7h-7V261.3z M573.6,261.3h7v7h-7V261.3z M580.8,261.3h7v7h-7V261.3z M588.1,261.3h7v7h-7V261.3z
	 M595.4,261.3h7v7h-7V261.3z M602.6,261.3h7v7h-7V261.3z M609.9,261.3h7v7h-7V261.3z M617.1,261.3h7v7h-7V261.3z M624.4,261.3h7v7
	h-7V261.3z M631.7,261.3h7v7h-7V261.3z M638.9,261.3h7v7h-7V261.3z M646.2,261.3h7v7h-7V261.3z M653.4,261.3h7v7h-7V261.3z
	 M660.7,261.3h7v7h-7V261.3z M668,261.3h7v7h-7V261.3z M675.2,261.3h7v7h-7V261.3z M682.5,261.3h7v7h-7V261.3z M689.7,261.3h7v7h-7
	V261.3z M697,261.3h7v7h-7V261.3z M704.2,261.3h7v7h-7V261.3z M711.5,261.3h7v7h-7V261.3z M718.8,261.3h7v7h-7V261.3z M726,261.3h7
	v7h-7V261.3z M733.3,261.3h7v7h-7V261.3z M740.6,261.3h7v7h-7V261.3z M747.8,261.3h7v7h-7V261.3z M755.1,261.3h7v7h-7V261.3z
	 M762.3,261.3h7v7h-7V261.3z M769.6,261.3h7v7h-7V261.3z M776.9,261.3h7v7h-7V261.3z M784.1,261.3h7v7h-7V261.3z M813.2,261.3h7v7
	h-7V261.3z M820.4,261.3h7v7h-7V261.3z M827.7,261.3h7v7h-7V261.3z M834.9,261.3h7v7h-7V261.3z M842.2,261.3h7v7h-7V261.3z
	 M849.5,261.3h7v7h-7V261.3z M856.7,261.3h7v7h-7V261.3z M14.6,268.6h7v7h-7V268.6z M21.8,268.6h7v7h-7V268.6z M29.1,268.6h7v7h-7
	V268.6z M36.3,268.6h7v7h-7V268.6z M43.6,268.6h7v7h-7V268.6z M87.2,268.6h7v7h-7V268.6z M94.4,268.6h7v7h-7V268.6z M138,268.6h7v7
	h-7V268.6z M145.2,268.6h7v7h-7V268.6z M152.5,268.6h7v7h-7V268.6z M159.8,268.6h7v7h-7V268.6z M167,268.6h7v7h-7V268.6z
	 M174.3,268.6h7v7h-7V268.6z M181.5,268.6h7v7h-7V268.6z M188.8,268.6h7v7h-7V268.6z M196.1,268.6h7v7h-7V268.6z M210.6,268.6h7v7
	h-7V268.6z M217.8,268.6h7v7h-7V268.6z M239.6,268.6h7v7h-7V268.6z M246.9,268.6h7v7h-7V268.6z M261.4,268.6h7v7h-7V268.6z
	 M268.6,268.6h7v7h-7V268.6z M275.9,268.6h7v7h-7V268.6z M283.2,268.6h7v7h-7V268.6z M305,268.6h7v7h-7V268.6z M312.2,268.6h7v7h-7
	V268.6z M319.5,268.6h7v7h-7V268.6z M326.7,268.6h7v7h-7V268.6z M341.2,268.6h7v7h-7V268.6z M348.5,268.6h7v7h-7V268.6z
	 M355.8,268.6h7v7h-7V268.6z M363,268.6h7v7h-7V268.6z M377.5,268.6h7v7h-7V268.6z M384.8,268.6h7v7h-7V268.6z M392.1,268.6h7v7h-7
	V268.6z M399.3,268.6h7v7h-7V268.6z M406.6,268.6h7v7h-7V268.6z M413.9,268.6h7v7h-7V268.6z M435.6,268.6h7v7h-7V268.6z
	 M457.4,268.6h7v7h-7V268.6z M471.9,268.6h7v7h-7V268.6z M493.7,268.6h7v7h-7V268.6z M515.5,268.6h7v7h-7V268.6z M522.8,268.6h7v7
	h-7V268.6z M544.5,268.6h7v7h-7V268.6z M551.8,268.6h7v7h-7V268.6z M559.1,268.6h7v7h-7V268.6z M566.3,268.6h7v7h-7V268.6z
	 M573.6,268.6h7v7h-7V268.6z M580.8,268.6h7v7h-7V268.6z M588.1,268.6h7v7h-7V268.6z M595.4,268.6h7v7h-7V268.6z M602.6,268.6h7v7
	h-7V268.6z M609.9,268.6h7v7h-7V268.6z M617.1,268.6h7v7h-7V268.6z M638.9,268.6h7v7h-7V268.6z M646.2,268.6h7v7h-7V268.6z
	 M653.4,268.6h7v7h-7V268.6z M660.7,268.6h7v7h-7V268.6z M668,268.6h7v7h-7V268.6z M675.2,268.6h7v7h-7V268.6z M682.5,268.6h7v7h-7
	V268.6z M689.7,268.6h7v7h-7V268.6z M697,268.6h7v7h-7V268.6z M704.2,268.6h7v7h-7V268.6z M711.5,268.6h7v7h-7V268.6z M718.8,268.6
	h7v7h-7V268.6z M726,268.6h7v7h-7V268.6z M733.3,268.6h7v7h-7V268.6z M740.6,268.6h7v7h-7V268.6z M747.8,268.6h7v7h-7V268.6z
	 M755.1,268.6h7v7h-7V268.6z M762.3,268.6h7v7h-7V268.6z M769.6,268.6h7v7h-7V268.6z M776.9,268.6h7v7h-7V268.6z M791.4,268.6h7v7
	h-7V268.6z M798.6,268.6h7v7h-7V268.6z M805.9,268.6h7v7h-7V268.6z M820.4,268.6h7v7h-7V268.6z M827.7,268.6h7v7h-7V268.6z
	 M834.9,268.6h7v7h-7V268.6z M842.2,268.6h7v7h-7V268.6z M849.5,268.6h7v7h-7V268.6z M856.7,268.6h7v7h-7V268.6z M14.6,275.9h7v7h-7
	V275.9z M21.8,275.9h7v7h-7V275.9z M29.1,275.9h7v7h-7V275.9z M36.3,275.9h7v7h-7V275.9z M43.6,275.9h7v7h-7V275.9z M87.2,275.9h7v7
	h-7V275.9z M94.4,275.9h7v7h-7V275.9z M138,275.9h7v7h-7V275.9z M210.6,275.9h7v7h-7V275.9z M217.8,275.9h7v7h-7V275.9z
	 M232.4,275.9h7v7h-7V275.9z M239.6,275.9h7v7h-7V275.9z M246.9,275.9h7v7h-7V275.9z M261.4,275.9h7v7h-7V275.9z M268.6,275.9h7v7
	h-7V275.9z M275.9,275.9h7v7h-7V275.9z M283.2,275.9h7v7h-7V275.9z M290.4,275.9h7v7h-7V275.9z M305,275.9h7v7h-7V275.9z
	 M312.2,275.9h7v7h-7V275.9z M319.5,275.9h7v7h-7V275.9z M326.7,275.9h7v7h-7V275.9z M341.2,275.9h7v7h-7V275.9z M348.5,275.9h7v7
	h-7V275.9z M355.8,275.9h7v7h-7V275.9z M363,275.9h7v7h-7V275.9z M377.5,275.9h7v7h-7V275.9z M384.8,275.9h7v7h-7V275.9z
	 M392.1,275.9h7v7h-7V275.9z M399.3,275.9h7v7h-7V275.9z M406.6,275.9h7v7h-7V275.9z M442.9,275.9h7v7h-7V275.9z M457.4,275.9h7v7
	h-7V275.9z M464.7,275.9h7v7h-7V275.9z M501,275.9h7v7h-7V275.9z M515.5,275.9h7v7h-7V275.9z M522.8,275.9h7v7h-7V275.9z
	 M544.5,275.9h7v7h-7V275.9z M551.8,275.9h7v7h-7V275.9z M559.1,275.9h7v7h-7V275.9z M566.3,275.9h7v7h-7V275.9z M573.6,275.9h7v7
	h-7V275.9z M580.8,275.9h7v7h-7V275.9z M588.1,275.9h7v7h-7V275.9z M595.4,275.9h7v7h-7V275.9z M646.2,275.9h7v7h-7V275.9z
	 M653.4,275.9h7v7h-7V275.9z M660.7,275.9h7v7h-7V275.9z M668,275.9h7v7h-7V275.9z M675.2,275.9h7v7h-7V275.9z M682.5,275.9h7v7h-7
	V275.9z M689.7,275.9h7v7h-7V275.9z M697,275.9h7v7h-7V275.9z M704.2,275.9h7v7h-7V275.9z M711.5,275.9h7v7h-7V275.9z M718.8,275.9
	h7v7h-7V275.9z M726,275.9h7v7h-7V275.9z M733.3,275.9h7v7h-7V275.9z M740.6,275.9h7v7h-7V275.9z M747.8,275.9h7v7h-7V275.9z
	 M755.1,275.9h7v7h-7V275.9z M762.3,275.9h7v7h-7V275.9z M769.6,275.9h7v7h-7V275.9z M784.1,275.9h7v7h-7V275.9z M791.4,275.9h7v7
	h-7V275.9z M798.6,275.9h7v7h-7V275.9z M805.9,275.9h7v7h-7V275.9z M813.2,275.9h7v7h-7V275.9z M820.4,275.9h7v7h-7V275.9z
	 M827.7,275.9h7v7h-7V275.9z M834.9,275.9h7v7h-7V275.9z M842.2,275.9h7v7h-7V275.9z M849.5,275.9h7v7h-7V275.9z M856.7,275.9h7v7
	h-7V275.9z M14.6,290.4h7v7h-7V290.4z M14.6,283.1h7v7h-7V283.1z M21.8,283.1h7v7h-7V283.1z M29.1,283.1h7v7h-7V283.1z M36.3,283.1
	h7v7h-7V283.1z M87.2,283.1h7v7h-7V283.1z M138,283.1h7v7h-7V283.1z M145.2,283.1h7v7h-7V283.1z M152.5,283.1h7v7h-7V283.1z
	 M159.8,283.1h7v7h-7V283.1z M167,283.1h7v7h-7V283.1z M174.3,283.1h7v7h-7V283.1z M181.5,283.1h7v7h-7V283.1z M188.8,283.1h7v7h-7
	V283.1z M196.1,283.1h7v7h-7V283.1z M203.3,283.1h7v7h-7V283.1z M210.6,283.1h7v7h-7V283.1z M217.8,283.1h7v7h-7V283.1z
	 M232.4,283.1h7v7h-7V283.1z M239.6,283.1h7v7h-7V283.1z M246.9,283.1h7v7h-7V283.1z M254.1,283.1h7v7h-7V283.1z M268.6,283.1h7v7
	h-7V283.1z M275.9,283.1h7v7h-7V283.1z M283.2,283.1h7v7h-7V283.1z M290.4,283.1h7v7h-7V283.1z M305,283.1h7v7h-7V283.1z
	 M312.2,283.1h7v7h-7V283.1z M319.5,283.1h7v7h-7V283.1z M326.7,283.1h7v7h-7V283.1z M341.2,283.1h7v7h-7V283.1z M348.5,283.1h7v7
	h-7V283.1z M355.8,283.1h7v7h-7V283.1z M363,283.1h7v7h-7V283.1z M377.5,283.1h7v7h-7V283.1z M384.8,283.1h7v7h-7V283.1z
	 M392.1,283.1h7v7h-7V283.1z M399.3,283.1h7v7h-7V283.1z M406.6,283.1h7v7h-7V283.1z M442.9,283.1h7v7h-7V283.1z M457.4,283.1h7v7
	h-7V283.1z M464.7,283.1h7v7h-7V283.1z M501,283.1h7v7h-7V283.1z M515.5,283.1h7v7h-7V283.1z M522.8,283.1h7v7h-7V283.1z
	 M544.5,283.1h7v7h-7V283.1z M551.8,283.1h7v7h-7V283.1z M559.1,283.1h7v7h-7V283.1z M588.1,283.1h7v7h-7V283.1z M602.6,283.1h7v7
	h-7V283.1z M609.9,283.1h7v7h-7V283.1z M617.1,283.1h7v7h-7V283.1z M624.4,283.1h7v7h-7V283.1z M631.7,283.1h7v7h-7V283.1z
	 M638.9,283.1h7v7h-7V283.1z M653.4,283.1h7v7h-7V283.1z M660.7,283.1h7v7h-7V283.1z M668,283.1h7v7h-7V283.1z M675.2,283.1h7v7h-7
	V283.1z M682.5,283.1h7v7h-7V283.1z M689.7,283.1h7v7h-7V283.1z M697,283.1h7v7h-7V283.1z M704.2,283.1h7v7h-7V283.1z M711.5,283.1
	h7v7h-7V283.1z M718.8,283.1h7v7h-7V283.1z M726,283.1h7v7h-7V283.1z M733.3,283.1h7v7h-7V283.1z M740.6,283.1h7v7h-7V283.1z
	 M747.8,283.1h7v7h-7V283.1z M755.1,283.1h7v7h-7V283.1z M762.3,283.1h7v7h-7V283.1z M769.6,283.1h7v7h-7V283.1z M776.9,283.1h7v7
	h-7V283.1z M784.1,283.1h7v7h-7V283.1z M791.4,283.1h7v7h-7V283.1z M798.6,283.1h7v7h-7V283.1z M805.9,283.1h7v7h-7V283.1z
	 M813.2,283.1h7v7h-7V283.1z M820.4,283.1h7v7h-7V283.1z M827.7,283.1h7v7h-7V283.1z M834.9,283.1h7v7h-7V283.1z M842.2,283.1h7v7
	h-7V283.1z M849.5,283.1h7v7h-7V283.1z M21.8,290.4h7v7h-7V290.4z M29.1,290.4h7v7h-7V290.4z M36.3,290.4h7v7h-7V290.4z M79.9,290.4
	h7v7h-7V290.4z M87.2,290.4h7v7h-7V290.4z M138,290.4h7v7h-7V290.4z M145.2,290.4h7v7h-7V290.4z M159.8,290.4h7v7h-7V290.4z
	 M167,290.4h7v7h-7V290.4z M174.3,290.4h7v7h-7V290.4z M188.8,290.4h7v7h-7V290.4z M196.1,290.4h7v7h-7V290.4z M210.6,290.4h7v7h-7
	V290.4z M217.8,290.4h7v7h-7V290.4z M225.1,290.4h7v7h-7V290.4z M239.6,290.4h7v7h-7V290.4z M246.9,290.4h7v7h-7V290.4z
	 M254.1,290.4h7v7h-7V290.4z M268.6,290.4h7v7h-7V290.4z M275.9,290.4h7v7h-7V290.4z M283.2,290.4h7v7h-7V290.4z M290.4,290.4h7v7
	h-7V290.4z M305,290.4h7v7h-7V290.4z M312.2,290.4h7v7h-7V290.4z M319.5,290.4h7v7h-7V290.4z M326.7,290.4h7v7h-7V290.4z M334,290.4
	h7v7h-7V290.4z M348.5,290.4h7v7h-7V290.4z M355.8,290.4h7v7h-7V290.4z M363,290.4h7v7h-7V290.4z M370.3,290.4h7v7h-7V290.4z
	 M384.8,290.4h7v7h-7V290.4z M392.1,290.4h7v7h-7V290.4z M399.3,290.4h7v7h-7V290.4z M450.1,290.4h7v7h-7V290.4z M457.4,290.4h7v7
	h-7V290.4z M515.5,290.4h7v7h-7V290.4z M522.8,290.4h7v7h-7V290.4z M544.5,290.4h7v7h-7V290.4z M551.8,290.4h7v7h-7V290.4z
	 M559.1,290.4h7v7h-7V290.4z M580.8,290.4h7v7h-7V290.4z M588.1,290.4h7v7h-7V290.4z M595.4,290.4h7v7h-7V290.4z M602.6,290.4h7v7
	h-7V290.4z M609.9,290.4h7v7h-7V290.4z M617.1,290.4h7v7h-7V290.4z M624.4,290.4h7v7h-7V290.4z M631.7,290.4h7v7h-7V290.4z
	 M638.9,290.4h7v7h-7V290.4z M646.2,290.4h7v7h-7V290.4z M653.4,290.4h7v7h-7V290.4z M660.7,290.4h7v7h-7V290.4z M668,290.4h7v7h-7
	V290.4z M675.2,290.4h7v7h-7V290.4z M682.5,290.4h7v7h-7V290.4z M689.7,290.4h7v7h-7V290.4z M697,290.4h7v7h-7V290.4z M704.2,290.4
	h7v7h-7V290.4z M711.5,290.4h7v7h-7V290.4z M718.8,290.4h7v7h-7V290.4z M726,290.4h7v7h-7V290.4z M733.3,290.4h7v7h-7V290.4z
	 M740.6,290.4h7v7h-7V290.4z M747.8,290.4h7v7h-7V290.4z M755.1,290.4h7v7h-7V290.4z M762.3,290.4h7v7h-7V290.4z M769.6,290.4h7v7
	h-7V290.4z M776.9,290.4h7v7h-7V290.4z M784.1,290.4h7v7h-7V290.4z M791.4,290.4h7v7h-7V290.4z M798.6,290.4h7v7h-7V290.4z
	 M805.9,290.4h7v7h-7V290.4z M813.2,290.4h7v7h-7V290.4z M820.4,290.4h7v7h-7V290.4z M827.7,290.4h7v7h-7V290.4z M834.9,290.4h7v7
	h-7V290.4z M842.2,290.4h7v7h-7V290.4z M14.6,297.6h7v7h-7V297.6z M29.1,297.6h7v7h-7V297.6z M36.3,297.6h7v7h-7V297.6z M43.6,297.6
	h7v7h-7V297.6z M50.9,297.6h7v7h-7V297.6z M72.6,297.6h7v7h-7V297.6z M79.9,297.6h7v7h-7V297.6z M87.2,297.6h7v7h-7V297.6z
	 M94.4,297.6h7v7h-7V297.6z M123.5,297.6h7v7h-7V297.6z M130.7,297.6h7v7h-7V297.6z M138,297.6h7v7h-7V297.6z M145.2,297.6h7v7h-7
	V297.6z M152.5,297.6h7v7h-7V297.6z M159.8,297.6h7v7h-7V297.6z M167,297.6h7v7h-7V297.6z M174.3,297.6h7v7h-7V297.6z M181.5,297.6
	h7v7h-7V297.6z M188.8,297.6h7v7h-7V297.6z M196.1,297.6h7v7h-7V297.6z M203.3,297.6h7v7h-7V297.6z M210.6,297.6h7v7h-7V297.6z
	 M217.8,297.6h7v7h-7V297.6z M225.1,297.6h7v7h-7V297.6z M239.6,297.6h7v7h-7V297.6z M246.9,297.6h7v7h-7V297.6z M254.1,297.6h7v7
	h-7V297.6z M268.6,297.6h7v7h-7V297.6z M275.9,297.6h7v7h-7V297.6z M283.2,297.6h7v7h-7V297.6z M290.4,297.6h7v7h-7V297.6z
	 M305,297.6h7v7h-7V297.6z M312.2,297.6h7v7h-7V297.6z M319.5,297.6h7v7h-7V297.6z M326.7,297.6h7v7h-7V297.6z M334,297.6h7v7h-7
	V297.6z M348.5,297.6h7v7h-7V297.6z M355.8,297.6h7v7h-7V297.6z M363,297.6h7v7h-7V297.6z M370.3,297.6h7v7h-7V297.6z M384.8,297.6
	h7v7h-7V297.6z M392.1,297.6h7v7h-7V297.6z M399.3,297.6h7v7h-7V297.6z M406.6,297.6h7v7h-7V297.6z M450.1,297.6h7v7h-7V297.6z
	 M457.4,297.6h7v7h-7V297.6z M464.7,297.6h7v7h-7V297.6z M515.5,297.6h7v7h-7V297.6z M522.8,297.6h7v7h-7V297.6z M544.5,297.6h7v7
	h-7V297.6z M551.8,297.6h7v7h-7V297.6z M559.1,297.6h7v7h-7V297.6z M566.3,297.6h7v7h-7V297.6z M573.6,297.6h7v7h-7V297.6z
	 M580.8,297.6h7v7h-7V297.6z M588.1,297.6h7v7h-7V297.6z M595.4,297.6h7v7h-7V297.6z M602.6,297.6h7v7h-7V297.6z M609.9,297.6h7v7
	h-7V297.6z M617.1,297.6h7v7h-7V297.6z M624.4,297.6h7v7h-7V297.6z M631.7,297.6h7v7h-7V297.6z M638.9,297.6h7v7h-7V297.6z
	 M646.2,297.6h7v7h-7V297.6z M653.4,297.6h7v7h-7V297.6z M660.7,297.6h7v7h-7V297.6z M668,297.6h7v7h-7V297.6z M675.2,297.6h7v7h-7
	V297.6z M682.5,297.6h7v7h-7V297.6z M689.7,297.6h7v7h-7V297.6z M697,297.6h7v7h-7V297.6z M704.2,297.6h7v7h-7V297.6z M711.5,297.6
	h7v7h-7V297.6z M718.8,297.6h7v7h-7V297.6z M726,297.6h7v7h-7V297.6z M733.3,297.6h7v7h-7V297.6z M740.6,297.6h7v7h-7V297.6z
	 M747.8,297.6h7v7h-7V297.6z M776.9,297.6h7v7h-7V297.6z M784.1,297.6h7v7h-7V297.6z M791.4,297.6h7v7h-7V297.6z M798.6,297.6h7v7
	h-7V297.6z M805.9,297.6h7v7h-7V297.6z M813.2,297.6h7v7h-7V297.6z M820.4,297.6h7v7h-7V297.6z M827.7,297.6h7v7h-7V297.6z
	 M834.9,297.6h7v7h-7V297.6z M14.6,304.9h7v7h-7V304.9z M21.8,304.9h7v7h-7V304.9z M29.1,304.9h7v7h-7V304.9z M36.3,304.9h7v7h-7
	V304.9z M43.6,304.9h7v7h-7V304.9z M50.9,304.9h7v7h-7V304.9z M58.1,304.9h7v7h-7V304.9z M65.4,304.9h7v7h-7V304.9z M72.6,304.9h7v7
	h-7V304.9z M79.9,304.9h7v7h-7V304.9z M87.2,304.9h7v7h-7V304.9z M94.4,304.9h7v7h-7V304.9z M101.7,304.9h7v7h-7V304.9z
	 M108.9,304.9h7v7h-7V304.9z M116.2,304.9h7v7h-7V304.9z M123.5,304.9h7v7h-7V304.9z M138,304.9h7v7h-7V304.9z M145.2,304.9h7v7h-7
	V304.9z M152.5,304.9h7v7h-7V304.9z M159.8,304.9h7v7h-7V304.9z M167,304.9h7v7h-7V304.9z M174.3,304.9h7v7h-7V304.9z M181.5,304.9
	h7v7h-7V304.9z M188.8,304.9h7v7h-7V304.9z M196.1,304.9h7v7h-7V304.9z M203.3,304.9h7v7h-7V304.9z M210.6,304.9h7v7h-7V304.9z
	 M217.8,304.9h7v7h-7V304.9z M225.1,304.9h7v7h-7V304.9z M232.4,304.9h7v7h-7V304.9z M239.6,304.9h7v7h-7V304.9z M246.9,304.9h7v7
	h-7V304.9z M254.1,304.9h7v7h-7V304.9z M261.4,304.9h7v7h-7V304.9z M268.6,304.9h7v7h-7V304.9z M275.9,304.9h7v7h-7V304.9z
	 M283.2,304.9h7v7h-7V304.9z M290.4,304.9h7v7h-7V304.9z M297.7,304.9h7v7h-7V304.9z M305,304.9h7v7h-7V304.9z M312.2,304.9h7v7h-7
	V304.9z M319.5,304.9h7v7h-7V304.9z M326.7,304.9h7v7h-7V304.9z M334,304.9h7v7h-7V304.9z M341.2,304.9h7v7h-7V304.9z M348.5,304.9
	h7v7h-7V304.9z M355.8,304.9h7v7h-7V304.9z M363,304.9h7v7h-7V304.9z M370.3,304.9h7v7h-7V304.9z M377.5,304.9h7v7h-7V304.9z
	 M384.8,304.9h7v7h-7V304.9z M392.1,304.9h7v7h-7V304.9z M399.3,304.9h7v7h-7V304.9z M406.6,304.9h7v7h-7V304.9z M413.9,304.9h7v7
	h-7V304.9z M442.9,304.9h7v7h-7V304.9z M450.1,304.9h7v7h-7V304.9z M457.4,304.9h7v7h-7V304.9z M464.7,304.9h7v7h-7V304.9z
	 M471.9,304.9h7v7h-7V304.9z M508.2,304.9h7v7h-7V304.9z M515.5,304.9h7v7h-7V304.9z M522.8,304.9h7v7h-7V304.9z M544.5,304.9h7v7
	h-7V304.9z M551.8,304.9h7v7h-7V304.9z M559.1,304.9h7v7h-7V304.9z M566.3,304.9h7v7h-7V304.9z M573.6,304.9h7v7h-7V304.9z
	 M580.8,304.9h7v7h-7V304.9z M588.1,304.9h7v7h-7V304.9z M595.4,304.9h7v7h-7V304.9z M602.6,304.9h7v7h-7V304.9z M609.9,304.9h7v7
	h-7V304.9z M617.1,304.9h7v7h-7V304.9z M624.4,304.9h7v7h-7V304.9z M631.7,304.9h7v7h-7V304.9z M638.9,304.9h7v7h-7V304.9z
	 M646.2,304.9h7v7h-7V304.9z M668,304.9h7v7h-7V304.9z M675.2,304.9h7v7h-7V304.9z M682.5,304.9h7v7h-7V304.9z M689.7,304.9h7v7h-7
	V304.9z M697,304.9h7v7h-7V304.9z M704.2,304.9h7v7h-7V304.9z M711.5,304.9h7v7h-7V304.9z M718.8,304.9h7v7h-7V304.9z M769.6,304.9
	h7v7h-7V304.9z M776.9,304.9h7v7h-7V304.9z M784.1,304.9h7v7h-7V304.9z M791.4,304.9h7v7h-7V304.9z M798.6,304.9h7v7h-7V304.9z
	 M805.9,304.9h7v7h-7V304.9z M813.2,304.9h7v7h-7V304.9z M820.4,304.9h7v7h-7V304.9z M827.7,304.9h7v7h-7V304.9z M7.3,312.1h7v7h-7
	V312.1z M138,312.1h7v7h-7V312.1z M225.1,312.1h7v7h-7V312.1z M232.4,312.1h7v7h-7V312.1z M239.6,312.1h7v7h-7V312.1z M246.9,312.1
	h7v7h-7V312.1z M254.1,312.1h7v7h-7V312.1z M261.4,312.1h7v7h-7V312.1z M268.6,312.1h7v7h-7V312.1z M275.9,312.1h7v7h-7V312.1z
	 M283.2,312.1h7v7h-7V312.1z M290.4,312.1h7v7h-7V312.1z M297.7,312.1h7v7h-7V312.1z M305,312.1h7v7h-7V312.1z M312.2,312.1h7v7h-7
	V312.1z M319.5,312.1h7v7h-7V312.1z M326.7,312.1h7v7h-7V312.1z M334,312.1h7v7h-7V312.1z M341.2,312.1h7v7h-7V312.1z M348.5,312.1
	h7v7h-7V312.1z M355.8,312.1h7v7h-7V312.1z M363,312.1h7v7h-7V312.1z M370.3,312.1h7v7h-7V312.1z M377.5,312.1h7v7h-7V312.1z
	 M384.8,312.1h7v7h-7V312.1z M399.3,312.1h7v7h-7V312.1z M406.6,312.1h7v7h-7V312.1z M413.9,312.1h7v7h-7V312.1z M421.1,312.1h7v7
	h-7V312.1z M428.4,312.1h7v7h-7V312.1z M435.6,312.1h7v7h-7V312.1z M442.9,312.1h7v7h-7V312.1z M450.1,312.1h7v7h-7V312.1z
	 M457.4,312.1h7v7h-7V312.1z M464.7,312.1h7v7h-7V312.1z M471.9,312.1h7v7h-7V312.1z M479.2,312.1h7v7h-7V312.1z M486.5,312.1h7v7
	h-7V312.1z M493.7,312.1h7v7h-7V312.1z M501,312.1h7v7h-7V312.1z M508.2,312.1h7v7h-7V312.1z M515.5,312.1h7v7h-7V312.1z
	 M522.8,312.1h7v7h-7V312.1z M544.5,312.1h7v7h-7V312.1z M551.8,312.1h7v7h-7V312.1z M559.1,312.1h7v7h-7V312.1z M566.3,312.1h7v7
	h-7V312.1z M573.6,312.1h7v7h-7V312.1z M580.8,312.1h7v7h-7V312.1z M588.1,312.1h7v7h-7V312.1z M595.4,312.1h7v7h-7V312.1z
	 M602.6,312.1h7v7h-7V312.1z M609.9,312.1h7v7h-7V312.1z M617.1,312.1h7v7h-7V312.1z M624.4,312.1h7v7h-7V312.1z M631.7,312.1h7v7
	h-7V312.1z M638.9,312.1h7v7h-7V312.1z M646.2,312.1h7v7h-7V312.1z M653.4,312.1h7v7h-7V312.1z M660.7,312.1h7v7h-7V312.1z
	 M668,312.1h7v7h-7V312.1z M675.2,312.1h7v7h-7V312.1z M682.5,312.1h7v7h-7V312.1z M689.7,312.1h7v7h-7V312.1z M697,312.1h7v7h-7
	V312.1z M747.8,312.1h7v7h-7V312.1z M755.1,312.1h7v7h-7V312.1z M762.3,312.1h7v7h-7V312.1z M769.6,312.1h7v7h-7V312.1z
	 M776.9,312.1h7v7h-7V312.1z M791.4,312.1h7v7h-7V312.1z M798.6,312.1h7v7h-7V312.1z M805.9,312.1h7v7h-7V312.1z M813.2,312.1h7v7
	h-7V312.1z M820.4,312.1h7v7h-7V312.1z M7.3,319.4h7v7h-7V319.4z M130.7,319.4h7v7h-7V319.4z M399.3,319.4h7v7h-7V319.4z
	 M421.1,319.4h7v7h-7V319.4z M428.4,319.4h7v7h-7V319.4z M435.6,319.4h7v7h-7V319.4z M442.9,319.4h7v7h-7V319.4z M450.1,319.4h7v7
	h-7V319.4z M457.4,319.4h7v7h-7V319.4z M464.7,319.4h7v7h-7V319.4z M471.9,319.4h7v7h-7V319.4z M479.2,319.4h7v7h-7V319.4z
	 M486.5,319.4h7v7h-7V319.4z M493.7,319.4h7v7h-7V319.4z M501,319.4h7v7h-7V319.4z M508.2,319.4h7v7h-7V319.4z M515.5,319.4h7v7h-7
	V319.4z M522.8,319.4h7v7h-7V319.4z M530,319.4h7v7h-7V319.4z M537.3,319.4h7v7h-7V319.4z M544.5,319.4h7v7h-7V319.4z M551.8,319.4
	h7v7h-7V319.4z M566.3,319.4h7v7h-7V319.4z M573.6,319.4h7v7h-7V319.4z M580.8,319.4h7v7h-7V319.4z M588.1,319.4h7v7h-7V319.4z
	 M595.4,319.4h7v7h-7V319.4z M602.6,319.4h7v7h-7V319.4z M609.9,319.4h7v7h-7V319.4z M617.1,319.4h7v7h-7V319.4z M624.4,319.4h7v7
	h-7V319.4z M631.7,319.4h7v7h-7V319.4z M638.9,319.4h7v7h-7V319.4z M653.4,319.4h7v7h-7V319.4z M660.7,319.4h7v7h-7V319.4z
	 M668,319.4h7v7h-7V319.4z M726,319.4h7v7h-7V319.4z M733.3,319.4h7v7h-7V319.4z M740.6,319.4h7v7h-7V319.4z M747.8,319.4h7v7h-7
	V319.4z M755.1,319.4h7v7h-7V319.4z M762.3,319.4h7v7h-7V319.4z M769.6,319.4h7v7h-7V319.4z M776.9,319.4h7v7h-7V319.4z
	 M805.9,319.4h7v7h-7V319.4z M14.6,326.7h7v7h-7V326.7z M21.8,326.7h7v7h-7V326.7z M36.3,326.7h7v7h-7V326.7z M43.6,326.7h7v7h-7
	V326.7z M50.9,326.7h7v7h-7V326.7z M58.1,326.7h7v7h-7V326.7z M65.4,326.7h7v7h-7V326.7z M72.6,326.7h7v7h-7V326.7z M79.9,326.7h7v7
	h-7V326.7z M87.2,326.7h7v7h-7V326.7z M94.4,326.7h7v7h-7V326.7z M101.7,326.7h7v7h-7V326.7z M108.9,326.7h7v7h-7V326.7z
	 M116.2,326.7h7v7h-7V326.7z M130.7,326.7h7v7h-7V326.7z M392.1,326.7h7v7h-7V326.7z M566.3,326.7h7v7h-7V326.7z M573.6,326.7h7v7
	h-7V326.7z M588.1,326.7h7v7h-7V326.7z M595.4,326.7h7v7h-7V326.7z M602.6,326.7h7v7h-7V326.7z M609.9,326.7h7v7h-7V326.7z
	 M617.1,326.7h7v7h-7V326.7z M624.4,326.7h7v7h-7V326.7z M631.7,326.7h7v7h-7V326.7z M638.9,326.7h7v7h-7V326.7z M697,326.7h7v7h-7
	V326.7z M704.2,326.7h7v7h-7V326.7z M711.5,326.7h7v7h-7V326.7z M718.8,326.7h7v7h-7V326.7z M726,326.7h7v7h-7V326.7z M733.3,326.7
	h7v7h-7V326.7z M740.6,326.7h7v7h-7V326.7z M747.8,326.7h7v7h-7V326.7z M755.1,326.7h7v7h-7V326.7z M762.3,326.7h7v7h-7V326.7z
	 M769.6,326.7h7v7h-7V326.7z M776.9,326.7h7v7h-7V326.7z M21.8,333.9h7v7h-7V333.9z M36.3,333.9h7v7h-7V333.9z M43.6,333.9h7v7h-7
	V333.9z M50.9,333.9h7v7h-7V333.9z M58.1,333.9h7v7h-7V333.9z M65.4,333.9h7v7h-7V333.9z M72.6,333.9h7v7h-7V333.9z M79.9,333.9h7v7
	h-7V333.9z M87.2,333.9h7v7h-7V333.9z M94.4,333.9h7v7h-7V333.9z M101.7,333.9h7v7h-7V333.9z M108.9,333.9h7v7h-7V333.9z
	 M116.2,333.9h7v7h-7V333.9z M123.5,333.9h7v7h-7V333.9z M130.7,333.9h7v7h-7V333.9z M138,333.9h7v7h-7V333.9z M145.2,333.9h7v7h-7
	V333.9z M152.5,333.9h7v7h-7V333.9z M159.8,333.9h7v7h-7V333.9z M167,333.9h7v7h-7V333.9z M174.3,333.9h7v7h-7V333.9z M181.5,333.9
	h7v7h-7V333.9z M188.8,333.9h7v7h-7V333.9z M196.1,333.9h7v7h-7V333.9z M203.3,333.9h7v7h-7V333.9z M210.6,333.9h7v7h-7V333.9z
	 M217.8,333.9h7v7h-7V333.9z M225.1,333.9h7v7h-7V333.9z M232.4,333.9h7v7h-7V333.9z M239.6,333.9h7v7h-7V333.9z M246.9,333.9h7v7
	h-7V333.9z M254.1,333.9h7v7h-7V333.9z M261.4,333.9h7v7h-7V333.9z M268.6,333.9h7v7h-7V333.9z M275.9,333.9h7v7h-7V333.9z
	 M283.2,333.9h7v7h-7V333.9z M290.4,333.9h7v7h-7V333.9z M297.7,333.9h7v7h-7V333.9z M305,333.9h7v7h-7V333.9z M312.2,333.9h7v7h-7
	V333.9z M319.5,333.9h7v7h-7V333.9z M326.7,333.9h7v7h-7V333.9z M334,333.9h7v7h-7V333.9z M341.2,333.9h7v7h-7V333.9z M348.5,333.9
	h7v7h-7V333.9z M355.8,333.9h7v7h-7V333.9z M363,333.9h7v7h-7V333.9z M370.3,333.9h7v7h-7V333.9z M377.5,333.9h7v7h-7V333.9z
	 M392.1,333.9h7v7h-7V333.9z M566.3,333.9h7v7h-7V333.9z M573.6,333.9h7v7h-7V333.9z M588.1,333.9h7v7h-7V333.9z M595.4,333.9h7v7
	h-7V333.9z M602.6,333.9h7v7h-7V333.9z M617.1,333.9h7v7h-7V333.9z M624.4,333.9h7v7h-7V333.9z M631.7,333.9h7v7h-7V333.9z
	 M638.9,333.9h7v7h-7V333.9z M668,333.9h7v7h-7V333.9z M675.2,333.9h7v7h-7V333.9z M682.5,333.9h7v7h-7V333.9z M689.7,333.9h7v7h-7
	V333.9z M697,333.9h7v7h-7V333.9z M704.2,333.9h7v7h-7V333.9z M711.5,333.9h7v7h-7V333.9z M718.8,333.9h7v7h-7V333.9z M726,333.9h7
	v7h-7V333.9z M733.3,333.9h7v7h-7V333.9z M740.6,333.9h7v7h-7V333.9z M747.8,333.9h7v7h-7V333.9z M755.1,333.9h7v7h-7V333.9z
	 M762.3,333.9h7v7h-7V333.9z M769.6,333.9h7v7h-7V333.9z M776.9,333.9h7v7h-7V333.9z M29.1,341.2h7v7h-7V341.2z M72.6,341.2h7v7h-7
	V341.2z M79.9,341.2h7v7h-7V341.2z M87.2,341.2h7v7h-7V341.2z M94.4,341.2h7v7h-7V341.2z M101.7,341.2h7v7h-7V341.2z M108.9,341.2h7
	v7h-7V341.2z M116.2,341.2h7v7h-7V341.2z M123.5,341.2h7v7h-7V341.2z M130.7,341.2h7v7h-7V341.2z M138,341.2h7v7h-7V341.2z
	 M145.2,341.2h7v7h-7V341.2z M152.5,341.2h7v7h-7V341.2z M159.8,341.2h7v7h-7V341.2z M167,341.2h7v7h-7V341.2z M174.3,341.2h7v7h-7
	V341.2z M181.5,341.2h7v7h-7V341.2z M188.8,341.2h7v7h-7V341.2z M196.1,341.2h7v7h-7V341.2z M203.3,341.2h7v7h-7V341.2z
	 M210.6,341.2h7v7h-7V341.2z M217.8,341.2h7v7h-7V341.2z M297.7,341.2h7v7h-7V341.2z M305,341.2h7v7h-7V341.2z M312.2,341.2h7v7h-7
	V341.2z M319.5,341.2h7v7h-7V341.2z M326.7,341.2h7v7h-7V341.2z M334,341.2h7v7h-7V341.2z M341.2,341.2h7v7h-7V341.2z M348.5,341.2
	h7v7h-7V341.2z M355.8,341.2h7v7h-7V341.2z M363,341.2h7v7h-7V341.2z M370.3,341.2h7v7h-7V341.2z M377.5,341.2h7v7h-7V341.2z
	 M384.8,341.2h7v7h-7V341.2z M392.1,341.2h7v7h-7V341.2z M399.3,341.2h7v7h-7V341.2z M406.6,341.2h7v7h-7V341.2z M413.9,341.2h7v7
	h-7V341.2z M421.1,341.2h7v7h-7V341.2z M428.4,341.2h7v7h-7V341.2z M435.6,341.2h7v7h-7V341.2z M442.9,341.2h7v7h-7V341.2z
	 M450.1,341.2h7v7h-7V341.2z M457.4,341.2h7v7h-7V341.2z M464.7,341.2h7v7h-7V341.2z M471.9,341.2h7v7h-7V341.2z M479.2,341.2h7v7
	h-7V341.2z M486.5,341.2h7v7h-7V341.2z M493.7,341.2h7v7h-7V341.2z M501,341.2h7v7h-7V341.2z M508.2,341.2h7v7h-7V341.2z
	 M515.5,341.2h7v7h-7V341.2z M544.5,341.2h7v7h-7V341.2z M551.8,341.2h7v7h-7V341.2z M559.1,341.2h7v7h-7V341.2z M566.3,341.2h7v7
	h-7V341.2z M573.6,341.2h7v7h-7V341.2z M580.8,341.2h7v7h-7V341.2z M588.1,341.2h7v7h-7V341.2z M595.4,341.2h7v7h-7V341.2z
	 M602.6,341.2h7v7h-7V341.2z M609.9,341.2h7v7h-7V341.2z M617.1,341.2h7v7h-7V341.2z M624.4,341.2h7v7h-7V341.2z M631.7,341.2h7v7
	h-7V341.2z M638.9,341.2h7v7h-7V341.2z M646.2,341.2h7v7h-7V341.2z M653.4,341.2h7v7h-7V341.2z M660.7,341.2h7v7h-7V341.2z
	 M668,341.2h7v7h-7V341.2z M675.2,341.2h7v7h-7V341.2z M682.5,341.2h7v7h-7V341.2z M689.7,341.2h7v7h-7V341.2z M697,341.2h7v7h-7
	V341.2z M704.2,341.2h7v7h-7V341.2z M711.5,341.2h7v7h-7V341.2z M718.8,341.2h7v7h-7V341.2z M726,341.2h7v7h-7V341.2z M733.3,341.2
	h7v7h-7V341.2z M740.6,341.2h7v7h-7V341.2z M747.8,341.2h7v7h-7V341.2z M755.1,341.2h7v7h-7V341.2z M762.3,341.2h7v7h-7V341.2z
	 M769.6,341.2h7v7h-7V341.2z M776.9,341.2h7v7h-7V341.2z M29.1,348.4h7v7h-7V348.4z M36.3,348.4h7v7h-7V348.4z M123.5,348.4h7v7h-7
	V348.4z M130.7,348.4h7v7h-7V348.4z M138,348.4h7v7h-7V348.4z M145.2,348.4h7v7h-7V348.4z M152.5,348.4h7v7h-7V348.4z M159.8,348.4
	h7v7h-7V348.4z M167,348.4h7v7h-7V348.4z M174.3,348.4h7v7h-7V348.4z M181.5,348.4h7v7h-7V348.4z M188.8,348.4h7v7h-7V348.4z
	 M196.1,348.4h7v7h-7V348.4z M203.3,348.4h7v7h-7V348.4z M305,348.4h7v7h-7V348.4z M312.2,348.4h7v7h-7V348.4z M319.5,348.4h7v7h-7
	V348.4z M326.7,348.4h7v7h-7V348.4z M334,348.4h7v7h-7V348.4z M341.2,348.4h7v7h-7V348.4z M348.5,348.4h7v7h-7V348.4z M355.8,348.4
	h7v7h-7V348.4z M363,348.4h7v7h-7V348.4z M370.3,348.4h7v7h-7V348.4z M377.5,348.4h7v7h-7V348.4z M384.8,348.4h7v7h-7V348.4z
	 M392.1,348.4h7v7h-7V348.4z M406.6,348.4h7v7h-7V348.4z M413.9,348.4h7v7h-7V348.4z M421.1,348.4h7v7h-7V348.4z M428.4,348.4h7v7
	h-7V348.4z M435.6,348.4h7v7h-7V348.4z M442.9,348.4h7v7h-7V348.4z M450.1,348.4h7v7h-7V348.4z M457.4,348.4h7v7h-7V348.4z
	 M464.7,348.4h7v7h-7V348.4z M471.9,348.4h7v7h-7V348.4z M479.2,348.4h7v7h-7V348.4z M486.5,348.4h7v7h-7V348.4z M493.7,348.4h7v7
	h-7V348.4z M501,348.4h7v7h-7V348.4z M508.2,348.4h7v7h-7V348.4z M515.5,348.4h7v7h-7V348.4z M522.8,348.4h7v7h-7V348.4z M530,348.4
	h7v7h-7V348.4z M537.3,348.4h7v7h-7V348.4z M544.5,348.4h7v7h-7V348.4z M551.8,348.4h7v7h-7V348.4z M559.1,348.4h7v7h-7V348.4z
	 M566.3,348.4h7v7h-7V348.4z M573.6,348.4h7v7h-7V348.4z M580.8,348.4h7v7h-7V348.4z M588.1,348.4h7v7h-7V348.4z M595.4,348.4h7v7
	h-7V348.4z M602.6,348.4h7v7h-7V348.4z M609.9,348.4h7v7h-7V348.4z M617.1,348.4h7v7h-7V348.4z M624.4,348.4h7v7h-7V348.4z
	 M631.7,348.4h7v7h-7V348.4z M638.9,348.4h7v7h-7V348.4z M646.2,348.4h7v7h-7V348.4z M653.4,348.4h7v7h-7V348.4z M660.7,348.4h7v7
	h-7V348.4z M668,348.4h7v7h-7V348.4z M675.2,348.4h7v7h-7V348.4z M682.5,348.4h7v7h-7V348.4z M689.7,348.4h7v7h-7V348.4z M697,348.4
	h7v7h-7V348.4z M704.2,348.4h7v7h-7V348.4z M711.5,348.4h7v7h-7V348.4z M718.8,348.4h7v7h-7V348.4z M726,348.4h7v7h-7V348.4z
	 M733.3,348.4h7v7h-7V348.4z M740.6,348.4h7v7h-7V348.4z M747.8,348.4h7v7h-7V348.4z M755.1,348.4h7v7h-7V348.4z M762.3,348.4h7v7
	h-7V348.4z M769.6,348.4h7v7h-7V348.4z M776.9,348.4h7v7h-7V348.4z M36.3,355.7h7v7h-7V355.7z M123.5,355.7h7v7h-7V355.7z
	 M130.7,355.7h7v7h-7V355.7z M138,355.7h7v7h-7V355.7z M217.8,355.7h7v7h-7V355.7z M384.8,355.7h7v7h-7V355.7z M392.1,355.7h7v7h-7
	V355.7z M406.6,355.7h7v7h-7V355.7z M428.4,355.7h7v7h-7V355.7z M435.6,355.7h7v7h-7V355.7z M508.2,355.7h7v7h-7V355.7z
	 M537.3,355.7h7v7h-7V355.7z M544.5,355.7h7v7h-7V355.7z M551.8,355.7h7v7h-7V355.7z M559.1,355.7h7v7h-7V355.7z M566.3,355.7h7v7
	h-7V355.7z M573.6,355.7h7v7h-7V355.7z M588.1,355.7h7v7h-7V355.7z M595.4,355.7h7v7h-7V355.7z M602.6,355.7h7v7h-7V355.7z
	 M609.9,355.7h7v7h-7V355.7z M617.1,355.7h7v7h-7V355.7z M624.4,355.7h7v7h-7V355.7z M631.7,355.7h7v7h-7V355.7z M638.9,355.7h7v7
	h-7V355.7z M646.2,355.7h7v7h-7V355.7z M653.4,355.7h7v7h-7V355.7z M660.7,355.7h7v7h-7V355.7z M668,355.7h7v7h-7V355.7z
	 M675.2,355.7h7v7h-7V355.7z M682.5,355.7h7v7h-7V355.7z M689.7,355.7h7v7h-7V355.7z M697,355.7h7v7h-7V355.7z M704.2,355.7h7v7h-7
	V355.7z M711.5,355.7h7v7h-7V355.7z M718.8,355.7h7v7h-7V355.7z M726,355.7h7v7h-7V355.7z M733.3,355.7h7v7h-7V355.7z M740.6,355.7
	h7v7h-7V355.7z M747.8,355.7h7v7h-7V355.7z M755.1,355.7h7v7h-7V355.7z M762.3,355.7h7v7h-7V355.7z M769.6,355.7h7v7h-7V355.7z
	 M776.9,355.7h7v7h-7V355.7z M43.6,363h7v7h-7V363z M50.9,363h7v7h-7V363z M58.1,363h7v7h-7V363z M65.4,363h7v7h-7V363z M72.6,363h7
	v7h-7V363z M79.9,363h7v7h-7V363z M87.2,363h7v7h-7V363z M94.4,363h7v7h-7V363z M101.7,363h7v7h-7V363z M108.9,363h7v7h-7V363z
	 M116.2,363h7v7h-7V363z M123.5,363h7v7h-7V363z M130.7,363h7v7h-7V363z M138,363h7v7h-7V363z M217.8,363h7v7h-7V363z M305,363h7v7
	h-7V363z M384.8,363h7v7h-7V363z M392.1,363h7v7h-7V363z M508.2,363h7v7h-7V363z M537.3,363h7v7h-7V363z M544.5,363h7v7h-7V363z
	 M559.1,363h7v7h-7V363z M566.3,363h7v7h-7V363z M580.8,363h7v7h-7V363z M588.1,363h7v7h-7V363z M595.4,363h7v7h-7V363z M602.6,363
	h7v7h-7V363z M609.9,363h7v7h-7V363z M617.1,363h7v7h-7V363z M631.7,363h7v7h-7V363z M638.9,363h7v7h-7V363z M646.2,363h7v7h-7V363z
	 M653.4,363h7v7h-7V363z M660.7,363h7v7h-7V363z M668,363h7v7h-7V363z M675.2,363h7v7h-7V363z M682.5,363h7v7h-7V363z M689.7,363h7
	v7h-7V363z M697,363h7v7h-7V363z M718.8,363h7v7h-7V363z M726,363h7v7h-7V363z M733.3,363h7v7h-7V363z M740.6,363h7v7h-7V363z
	 M747.8,363h7v7h-7V363z M755.1,363h7v7h-7V363z M762.3,363h7v7h-7V363z M769.6,363h7v7h-7V363z M776.9,363h7v7h-7V363z
	 M791.4,319.4h7v7h-7V319.4z M791.4,326.7h7v7h-7V326.7z M791.4,333.9h7v7h-7V333.9z M791.4,341.2h7v7h-7V341.2z M791.4,348.4h7v7
	h-7V348.4z M798.6,319.4h7v7h-7V319.4z M798.6,326.7h7v7h-7V326.7z M798.6,333.9h7v7h-7V333.9z M798.6,341.2h7v7h-7V341.2z
	 M798.6,348.4h7v7h-7V348.4z M791.4,355.7h7v7h-7V355.7z M798.6,355.7h7v7h-7V355.7z M791.4,363h7v7h-7V363z M50.9,370.2h7v7h-7
	V370.2z M58.1,370.2h7v7h-7V370.2z M65.4,370.2h7v7h-7V370.2z M72.6,370.2h7v7h-7V370.2z M79.9,370.2h7v7h-7V370.2z M87.2,370.2h7v7
	h-7V370.2z M94.4,370.2h7v7h-7V370.2z M101.7,370.2h7v7h-7V370.2z M108.9,370.2h7v7h-7V370.2z M116.2,370.2h7v7h-7V370.2z
	 M123.5,370.2h7v7h-7V370.2z M130.7,370.2h7v7h-7V370.2z M138,370.2h7v7h-7V370.2z M145.2,370.2h7v7h-7V370.2z M152.5,370.2h7v7h-7
	V370.2z M159.8,370.2h7v7h-7V370.2z M167,370.2h7v7h-7V370.2z M174.3,370.2h7v7h-7V370.2z M181.5,370.2h7v7h-7V370.2z M188.8,370.2
	h7v7h-7V370.2z M196.1,370.2h7v7h-7V370.2z M203.3,370.2h7v7h-7V370.2z M210.6,370.2h7v7h-7V370.2z M217.8,370.2h7v7h-7V370.2z
	 M254.1,370.2h7v7h-7V370.2z M305,370.2h7v7h-7V370.2z M384.8,370.2h7v7h-7V370.2z M392.1,370.2h7v7h-7V370.2z M399.3,370.2h7v7h-7
	V370.2z M508.2,370.2h7v7h-7V370.2z M537.3,370.2h7v7h-7V370.2z M544.5,370.2h7v7h-7V370.2z M551.8,370.2h7v7h-7V370.2z
	 M559.1,370.2h7v7h-7V370.2z M566.3,370.2h7v7h-7V370.2z M595.4,370.2h7v7h-7V370.2z M609.9,370.2h7v7h-7V370.2z M617.1,370.2h7v7
	h-7V370.2z M631.7,370.2h7v7h-7V370.2z M638.9,370.2h7v7h-7V370.2z M646.2,370.2h7v7h-7V370.2z M653.4,370.2h7v7h-7V370.2z
	 M660.7,370.2h7v7h-7V370.2z M668,370.2h7v7h-7V370.2z M675.2,370.2h7v7h-7V370.2z M718.8,370.2h7v7h-7V370.2z M726,370.2h7v7h-7
	V370.2z M733.3,370.2h7v7h-7V370.2z M740.6,370.2h7v7h-7V370.2z M747.8,370.2h7v7h-7V370.2z M755.1,370.2h7v7h-7V370.2z
	 M762.3,370.2h7v7h-7V370.2z M769.6,370.2h7v7h-7V370.2z M776.9,370.2h7v7h-7V370.2z M784.1,370.2h7v7h-7V370.2z M791.4,370.2h7v7
	h-7V370.2z M65.4,377.5h7v7h-7V377.5z M72.6,377.5h7v7h-7V377.5z M79.9,377.5h7v7h-7V377.5z M87.2,377.5h7v7h-7V377.5z M94.4,377.5
	h7v7h-7V377.5z M101.7,377.5h7v7h-7V377.5z M108.9,377.5h7v7h-7V377.5z M116.2,377.5h7v7h-7V377.5z M123.5,377.5h7v7h-7V377.5z
	 M130.7,377.5h7v7h-7V377.5z M138,377.5h7v7h-7V377.5z M145.2,377.5h7v7h-7V377.5z M152.5,377.5h7v7h-7V377.5z M159.8,377.5h7v7h-7
	V377.5z M167,377.5h7v7h-7V377.5z M174.3,377.5h7v7h-7V377.5z M181.5,377.5h7v7h-7V377.5z M188.8,377.5h7v7h-7V377.5z M196.1,377.5
	h7v7h-7V377.5z M203.3,377.5h7v7h-7V377.5z M210.6,377.5h7v7h-7V377.5z M217.8,377.5h7v7h-7V377.5z M305,377.5h7v7h-7V377.5z
	 M312.2,377.5h7v7h-7V377.5z M319.5,377.5h7v7h-7V377.5z M326.7,377.5h7v7h-7V377.5z M334,377.5h7v7h-7V377.5z M341.2,377.5h7v7h-7
	V377.5z M348.5,377.5h7v7h-7V377.5z M355.8,377.5h7v7h-7V377.5z M363,377.5h7v7h-7V377.5z M370.3,377.5h7v7h-7V377.5z M377.5,377.5
	h7v7h-7V377.5z M384.8,377.5h7v7h-7V377.5z M392.1,377.5h7v7h-7V377.5z M399.3,377.5h7v7h-7V377.5z M413.9,377.5h7v7h-7V377.5z
	 M421.1,377.5h7v7h-7V377.5z M428.4,377.5h7v7h-7V377.5z M435.6,377.5h7v7h-7V377.5z M442.9,377.5h7v7h-7V377.5z M450.1,377.5h7v7
	h-7V377.5z M457.4,377.5h7v7h-7V377.5z M464.7,377.5h7v7h-7V377.5z M471.9,377.5h7v7h-7V377.5z M479.2,377.5h7v7h-7V377.5z
	 M486.5,377.5h7v7h-7V377.5z M493.7,377.5h7v7h-7V377.5z M501,377.5h7v7h-7V377.5z M508.2,377.5h7v7h-7V377.5z M515.5,377.5h7v7h-7
	V377.5z M537.3,377.5h7v7h-7V377.5z M544.5,377.5h7v7h-7V377.5z M551.8,377.5h7v7h-7V377.5z M559.1,377.5h7v7h-7V377.5z
	 M566.3,377.5h7v7h-7V377.5z M573.6,377.5h7v7h-7V377.5z M580.8,377.5h7v7h-7V377.5z M609.9,377.5h7v7h-7V377.5z M617.1,377.5h7v7
	h-7V377.5z M624.4,377.5h7v7h-7V377.5z M631.7,377.5h7v7h-7V377.5z M638.9,377.5h7v7h-7V377.5z M646.2,377.5h7v7h-7V377.5z
	 M653.4,377.5h7v7h-7V377.5z M726,377.5h7v7h-7V377.5z M733.3,377.5h7v7h-7V377.5z M740.6,377.5h7v7h-7V377.5z M747.8,377.5h7v7h-7
	V377.5z M755.1,377.5h7v7h-7V377.5z M762.3,377.5h7v7h-7V377.5z M769.6,377.5h7v7h-7V377.5z M776.9,377.5h7v7h-7V377.5z
	 M784.1,377.5h7v7h-7V377.5z M791.4,377.5h7v7h-7V377.5z M65.4,384.8h7v7h-7V384.8z M72.6,384.8h7v7h-7V384.8z M79.9,384.8h7v7h-7
	V384.8z M87.2,384.8h7v7h-7V384.8z M94.4,384.8h7v7h-7V384.8z M101.7,384.8h7v7h-7V384.8z M108.9,384.8h7v7h-7V384.8z M116.2,384.8
	h7v7h-7V384.8z M123.5,384.8h7v7h-7V384.8z M130.7,384.8h7v7h-7V384.8z M138,384.8h7v7h-7V384.8z M145.2,384.8h7v7h-7V384.8z
	 M152.5,384.8h7v7h-7V384.8z M159.8,384.8h7v7h-7V384.8z M167,384.8h7v7h-7V384.8z M174.3,384.8h7v7h-7V384.8z M181.5,384.8h7v7h-7
	V384.8z M188.8,384.8h7v7h-7V384.8z M196.1,384.8h7v7h-7V384.8z M203.3,384.8h7v7h-7V384.8z M210.6,384.8h7v7h-7V384.8z
	 M217.8,384.8h7v7h-7V384.8z M225.1,384.8h7v7h-7V384.8z M246.9,384.8h7v7h-7V384.8z M254.1,384.8h7v7h-7V384.8z M261.4,384.8h7v7
	h-7V384.8z M268.6,384.8h7v7h-7V384.8z M275.9,384.8h7v7h-7V384.8z M283.2,384.8h7v7h-7V384.8z M290.4,384.8h7v7h-7V384.8z
	 M297.7,384.8h7v7h-7V384.8z M305,384.8h7v7h-7V384.8z M312.2,384.8h7v7h-7V384.8z M319.5,384.8h7v7h-7V384.8z M326.7,384.8h7v7h-7
	V384.8z M334,384.8h7v7h-7V384.8z M341.2,384.8h7v7h-7V384.8z M348.5,384.8h7v7h-7V384.8z M355.8,384.8h7v7h-7V384.8z M363,384.8h7
	v7h-7V384.8z M370.3,384.8h7v7h-7V384.8z M377.5,384.8h7v7h-7V384.8z M384.8,384.8h7v7h-7V384.8z M392.1,384.8h7v7h-7V384.8z
	 M399.3,384.8h7v7h-7V384.8z M406.6,384.8h7v7h-7V384.8z M413.9,384.8h7v7h-7V384.8z M421.1,384.8h7v7h-7V384.8z M428.4,384.8h7v7
	h-7V384.8z M435.6,384.8h7v7h-7V384.8z M442.9,384.8h7v7h-7V384.8z M450.1,384.8h7v7h-7V384.8z M457.4,384.8h7v7h-7V384.8z
	 M464.7,384.8h7v7h-7V384.8z M471.9,384.8h7v7h-7V384.8z M479.2,384.8h7v7h-7V384.8z M486.5,384.8h7v7h-7V384.8z M493.7,384.8h7v7
	h-7V384.8z M501,384.8h7v7h-7V384.8z M508.2,384.8h7v7h-7V384.8z M515.5,384.8h7v7h-7V384.8z M522.8,384.8h7v7h-7V384.8z
	 M537.3,384.8h7v7h-7V384.8z M544.5,384.8h7v7h-7V384.8z M551.8,384.8h7v7h-7V384.8z M559.1,384.8h7v7h-7V384.8z M566.3,384.8h7v7
	h-7V384.8z M573.6,384.8h7v7h-7V384.8z M580.8,384.8h7v7h-7V384.8z M588.1,384.8h7v7h-7V384.8z M595.4,384.8h7v7h-7V384.8z
	 M609.9,384.8h7v7h-7V384.8z M631.7,384.8h7v7h-7V384.8z M638.9,384.8h7v7h-7V384.8z M646.2,384.8h7v7h-7V384.8z M653.4,384.8h7v7
	h-7V384.8z M660.7,384.8h7v7h-7V384.8z M675.2,384.8h7v7h-7V384.8z M689.7,384.8h7v7h-7V384.8z M697,384.8h7v7h-7V384.8z
	 M704.2,384.8h7v7h-7V384.8z M711.5,384.8h7v7h-7V384.8z M718.8,384.8h7v7h-7V384.8z M726,384.8h7v7h-7V384.8z M733.3,384.8h7v7h-7
	V384.8z M740.6,384.8h7v7h-7V384.8z M747.8,384.8h7v7h-7V384.8z M755.1,384.8h7v7h-7V384.8z M762.3,384.8h7v7h-7V384.8z
	 M769.6,384.8h7v7h-7V384.8z M776.9,384.8h7v7h-7V384.8z M784.1,384.8h7v7h-7V384.8z M65.4,392h7v7h-7V392z M72.6,392h7v7h-7V392z
	 M79.9,392h7v7h-7V392z M87.2,392h7v7h-7V392z M94.4,392h7v7h-7V392z M101.7,392h7v7h-7V392z M108.9,392h7v7h-7V392z M116.2,392h7v7
	h-7V392z M123.5,392h7v7h-7V392z M130.7,392h7v7h-7V392z M145.2,392h7v7h-7V392z M152.5,392h7v7h-7V392z M159.8,392h7v7h-7V392z
	 M167,392h7v7h-7V392z M174.3,392h7v7h-7V392z M181.5,392h7v7h-7V392z M188.8,392h7v7h-7V392z M196.1,392h7v7h-7V392z M203.3,392h7
	v7h-7V392z M210.6,392h7v7h-7V392z M217.8,392h7v7h-7V392z M225.1,392h7v7h-7V392z M232.4,392h7v7h-7V392z M239.6,392h7v7h-7V392z
	 M246.9,392h7v7h-7V392z M254.1,392h7v7h-7V392z M261.4,392h7v7h-7V392z M268.6,392h7v7h-7V392z M275.9,392h7v7h-7V392z M283.2,392
	h7v7h-7V392z M290.4,392h7v7h-7V392z M297.7,392h7v7h-7V392z M305,392h7v7h-7V392z M312.2,392h7v7h-7V392z M319.5,392h7v7h-7V392z
	 M326.7,392h7v7h-7V392z M334,392h7v7h-7V392z M341.2,392h7v7h-7V392z M348.5,392h7v7h-7V392z M355.8,392h7v7h-7V392z M363,392h7v7
	h-7V392z M370.3,392h7v7h-7V392z M377.5,392h7v7h-7V392z M384.8,392h7v7h-7V392z M392.1,392h7v7h-7V392z M399.3,392h7v7h-7V392z
	 M406.6,392h7v7h-7V392z M413.9,392h7v7h-7V392z M421.1,392h7v7h-7V392z M428.4,392h7v7h-7V392z M435.6,392h7v7h-7V392z M442.9,392
	h7v7h-7V392z M450.1,392h7v7h-7V392z M457.4,392h7v7h-7V392z M464.7,392h7v7h-7V392z M471.9,392h7v7h-7V392z M479.2,392h7v7h-7V392z
	 M486.5,392h7v7h-7V392z M493.7,392h7v7h-7V392z M501,392h7v7h-7V392z M508.2,392h7v7h-7V392z M515.5,392h7v7h-7V392z M522.8,392h7
	v7h-7V392z M530,392h7v7h-7V392z M537.3,392h7v7h-7V392z M544.5,392h7v7h-7V392z M551.8,392h7v7h-7V392z M559.1,392h7v7h-7V392z
	 M566.3,392h7v7h-7V392z M573.6,392h7v7h-7V392z M580.8,392h7v7h-7V392z M588.1,392h7v7h-7V392z M595.4,392h7v7h-7V392z M631.7,392
	h7v7h-7V392z M638.9,392h7v7h-7V392z M646.2,392h7v7h-7V392z M653.4,392h7v7h-7V392z M668,392h7v7h-7V392z M682.5,392h7v7h-7V392z
	 M689.7,392h7v7h-7V392z M697,392h7v7h-7V392z M704.2,392h7v7h-7V392z M711.5,392h7v7h-7V392z M718.8,392h7v7h-7V392z M726,392h7v7
	h-7V392z M733.3,392h7v7h-7V392z M740.6,392h7v7h-7V392z M747.8,392h7v7h-7V392z M755.1,392h7v7h-7V392z M762.3,392h7v7h-7V392z
	 M769.6,392h7v7h-7V392z M776.9,392h7v7h-7V392z M784.1,392h7v7h-7V392z M791.4,392h7v7h-7V392z M798.6,392h7v7h-7V392z M805.9,392
	h7v7h-7V392z M813.2,392h7v7h-7V392z M820.4,392h7v7h-7V392z M827.7,392h7v7h-7V392z M834.9,392h7v7h-7V392z M842.2,392h7v7h-7V392z
	 M72.6,399.3h7v7h-7V399.3z M79.9,399.3h7v7h-7V399.3z M87.2,399.3h7v7h-7V399.3z M94.4,399.3h7v7h-7V399.3z M101.7,399.3h7v7h-7
	V399.3z M108.9,399.3h7v7h-7V399.3z M116.2,399.3h7v7h-7V399.3z M123.5,399.3h7v7h-7V399.3z M130.7,399.3h7v7h-7V399.3z M138,399.3
	h7v7h-7V399.3z M159.8,399.3h7v7h-7V399.3z M167,399.3h7v7h-7V399.3z M174.3,399.3h7v7h-7V399.3z M181.5,399.3h7v7h-7V399.3z
	 M188.8,399.3h7v7h-7V399.3z M196.1,399.3h7v7h-7V399.3z M203.3,399.3h7v7h-7V399.3z M210.6,399.3h7v7h-7V399.3z M217.8,399.3h7v7
	h-7V399.3z M225.1,399.3h7v7h-7V399.3z M232.4,399.3h7v7h-7V399.3z M239.6,399.3h7v7h-7V399.3z M363,399.3h7v7h-7V399.3z
	 M377.5,399.3h7v7h-7V399.3z M392.1,399.3h7v7h-7V399.3z M406.6,399.3h7v7h-7V399.3z M421.1,399.3h7v7h-7V399.3z M435.6,399.3h7v7
	h-7V399.3z M450.1,399.3h7v7h-7V399.3z M464.7,399.3h7v7h-7V399.3z M479.2,399.3h7v7h-7V399.3z M501,399.3h7v7h-7V399.3z
	 M508.2,399.3h7v7h-7V399.3z M515.5,399.3h7v7h-7V399.3z M522.8,399.3h7v7h-7V399.3z M530,399.3h7v7h-7V399.3z M537.3,399.3h7v7h-7
	V399.3z M544.5,399.3h7v7h-7V399.3z M551.8,399.3h7v7h-7V399.3z M566.3,399.3h7v7h-7V399.3z M573.6,399.3h7v7h-7V399.3z
	 M580.8,399.3h7v7h-7V399.3z M588.1,399.3h7v7h-7V399.3z M595.4,399.3h7v7h-7V399.3z M631.7,399.3h7v7h-7V399.3z M638.9,399.3h7v7
	h-7V399.3z M646.2,399.3h7v7h-7V399.3z M653.4,399.3h7v7h-7V399.3z M660.7,399.3h7v7h-7V399.3z M675.2,399.3h7v7h-7V399.3z
	 M682.5,399.3h7v7h-7V399.3z M689.7,399.3h7v7h-7V399.3z M697,399.3h7v7h-7V399.3z M704.2,399.3h7v7h-7V399.3z M711.5,399.3h7v7h-7
	V399.3z M718.8,399.3h7v7h-7V399.3z M726,399.3h7v7h-7V399.3z M733.3,399.3h7v7h-7V399.3z M740.6,399.3h7v7h-7V399.3z M747.8,399.3
	h7v7h-7V399.3z M755.1,399.3h7v7h-7V399.3z M762.3,399.3h7v7h-7V399.3z M769.6,399.3h7v7h-7V399.3z M776.9,399.3h7v7h-7V399.3z
	 M784.1,399.3h7v7h-7V399.3z M791.4,399.3h7v7h-7V399.3z M798.6,399.3h7v7h-7V399.3z M805.9,399.3h7v7h-7V399.3z M72.6,406.5h7v7h-7
	V406.5z M79.9,406.5h7v7h-7V406.5z M87.2,406.5h7v7h-7V406.5z M94.4,406.5h7v7h-7V406.5z M101.7,406.5h7v7h-7V406.5z M108.9,406.5h7
	v7h-7V406.5z M116.2,406.5h7v7h-7V406.5z M123.5,406.5h7v7h-7V406.5z M130.7,406.5h7v7h-7V406.5z M138,406.5h7v7h-7V406.5z
	 M145.2,406.5h7v7h-7V406.5z M152.5,406.5h7v7h-7V406.5z M167,406.5h7v7h-7V406.5z M174.3,406.5h7v7h-7V406.5z M181.5,406.5h7v7h-7
	V406.5z M188.8,406.5h7v7h-7V406.5z M196.1,406.5h7v7h-7V406.5z M203.3,406.5h7v7h-7V406.5z M210.6,406.5h7v7h-7V406.5z
	 M217.8,406.5h7v7h-7V406.5z M225.1,406.5h7v7h-7V406.5z M232.4,406.5h7v7h-7V406.5z M355.8,406.5h7v7h-7V406.5z M370.3,406.5h7v7
	h-7V406.5z M384.8,406.5h7v7h-7V406.5z M399.3,406.5h7v7h-7V406.5z M413.9,406.5h7v7h-7V406.5z M428.4,406.5h7v7h-7V406.5z
	 M442.9,406.5h7v7h-7V406.5z M457.4,406.5h7v7h-7V406.5z M471.9,406.5h7v7h-7V406.5z M486.5,406.5h7v7h-7V406.5z M501,406.5h7v7h-7
	V406.5z M508.2,406.5h7v7h-7V406.5z M515.5,406.5h7v7h-7V406.5z M522.8,406.5h7v7h-7V406.5z M530,406.5h7v7h-7V406.5z M537.3,406.5
	h7v7h-7V406.5z M544.5,406.5h7v7h-7V406.5z M551.8,406.5h7v7h-7V406.5z M559.1,406.5h7v7h-7V406.5z M566.3,406.5h7v7h-7V406.5z
	 M573.6,406.5h7v7h-7V406.5z M580.8,406.5h7v7h-7V406.5z M588.1,406.5h7v7h-7V406.5z M595.4,406.5h7v7h-7V406.5z M624.4,406.5h7v7
	h-7V406.5z M631.7,406.5h7v7h-7V406.5z M638.9,406.5h7v7h-7V406.5z M646.2,406.5h7v7h-7V406.5z M653.4,406.5h7v7h-7V406.5z
	 M668,406.5h7v7h-7V406.5z M675.2,406.5h7v7h-7V406.5z M682.5,406.5h7v7h-7V406.5z M689.7,406.5h7v7h-7V406.5z M697,406.5h7v7h-7
	V406.5z M704.2,406.5h7v7h-7V406.5z M711.5,406.5h7v7h-7V406.5z M718.8,406.5h7v7h-7V406.5z M726,406.5h7v7h-7V406.5z M733.3,406.5
	h7v7h-7V406.5z M740.6,406.5h7v7h-7V406.5z M747.8,406.5h7v7h-7V406.5z M755.1,406.5h7v7h-7V406.5z M762.3,406.5h7v7h-7V406.5z
	 M769.6,406.5h7v7h-7V406.5z M776.9,406.5h7v7h-7V406.5z M784.1,406.5h7v7h-7V406.5z M791.4,406.5h7v7h-7V406.5z M798.6,406.5h7v7
	h-7V406.5z M805.9,406.5h7v7h-7V406.5z M813.2,406.5h7v7h-7V406.5z M820.4,406.5h7v7h-7V406.5z M79.9,413.8h7v7h-7V413.8z
	 M87.2,413.8h7v7h-7V413.8z M94.4,413.8h7v7h-7V413.8z M101.7,413.8h7v7h-7V413.8z M108.9,413.8h7v7h-7V413.8z M116.2,413.8h7v7h-7
	V413.8z M123.5,413.8h7v7h-7V413.8z M130.7,413.8h7v7h-7V413.8z M138,413.8h7v7h-7V413.8z M145.2,413.8h7v7h-7V413.8z M152.5,413.8
	h7v7h-7V413.8z M159.8,413.8h7v7h-7V413.8z M167,413.8h7v7h-7V413.8z M174.3,413.8h7v7h-7V413.8z M181.5,413.8h7v7h-7V413.8z
	 M188.8,413.8h7v7h-7V413.8z M196.1,413.8h7v7h-7V413.8z M203.3,413.8h7v7h-7V413.8z M210.6,413.8h7v7h-7V413.8z M217.8,413.8h7v7
	h-7V413.8z M225.1,413.8h7v7h-7V413.8z M232.4,413.8h7v7h-7V413.8z M334,413.8h7v7h-7V413.8z M348.5,413.8h7v7h-7V413.8z M363,413.8
	h7v7h-7V413.8z M377.5,413.8h7v7h-7V413.8z M384.8,413.8h7v7h-7V413.8z M392.1,413.8h7v7h-7V413.8z M406.6,413.8h7v7h-7V413.8z
	 M413.9,413.8h7v7h-7V413.8z M421.1,413.8h7v7h-7V413.8z M435.6,413.8h7v7h-7V413.8z M442.9,413.8h7v7h-7V413.8z M450.1,413.8h7v7
	h-7V413.8z M464.7,413.8h7v7h-7V413.8z M471.9,413.8h7v7h-7V413.8z M479.2,413.8h7v7h-7V413.8z M493.7,413.8h7v7h-7V413.8z
	 M508.2,413.8h7v7h-7V413.8z M515.5,413.8h7v7h-7V413.8z M522.8,413.8h7v7h-7V413.8z M530,413.8h7v7h-7V413.8z M537.3,413.8h7v7h-7
	V413.8z M544.5,413.8h7v7h-7V413.8z M551.8,413.8h7v7h-7V413.8z M559.1,413.8h7v7h-7V413.8z M573.6,413.8h7v7h-7V413.8z
	 M580.8,413.8h7v7h-7V413.8z M588.1,413.8h7v7h-7V413.8z M624.4,413.8h7v7h-7V413.8z M631.7,413.8h7v7h-7V413.8z M638.9,413.8h7v7
	h-7V413.8z M646.2,413.8h7v7h-7V413.8z M660.7,413.8h7v7h-7V413.8z M675.2,413.8h7v7h-7V413.8z M682.5,413.8h7v7h-7V413.8z
	 M689.7,413.8h7v7h-7V413.8z M697,413.8h7v7h-7V413.8z M704.2,413.8h7v7h-7V413.8z M711.5,413.8h7v7h-7V413.8z M718.8,413.8h7v7h-7
	V413.8z M726,413.8h7v7h-7V413.8z M733.3,413.8h7v7h-7V413.8z M740.6,413.8h7v7h-7V413.8z M747.8,413.8h7v7h-7V413.8z M755.1,413.8
	h7v7h-7V413.8z M762.3,413.8h7v7h-7V413.8z M769.6,413.8h7v7h-7V413.8z M776.9,413.8h7v7h-7V413.8z M784.1,413.8h7v7h-7V413.8z
	 M87.2,421.1h7v7h-7V421.1z M94.4,421.1h7v7h-7V421.1z M101.7,421.1h7v7h-7V421.1z M108.9,421.1h7v7h-7V421.1z M116.2,421.1h7v7h-7
	V421.1z M123.5,421.1h7v7h-7V421.1z M130.7,421.1h7v7h-7V421.1z M138,421.1h7v7h-7V421.1z M145.2,421.1h7v7h-7V421.1z M152.5,421.1
	h7v7h-7V421.1z M159.8,421.1h7v7h-7V421.1z M167,421.1h7v7h-7V421.1z M174.3,421.1h7v7h-7V421.1z M181.5,421.1h7v7h-7V421.1z
	 M188.8,421.1h7v7h-7V421.1z M196.1,421.1h7v7h-7V421.1z M203.3,421.1h7v7h-7V421.1z M210.6,421.1h7v7h-7V421.1z M217.8,421.1h7v7
	h-7V421.1z M225.1,421.1h7v7h-7V421.1z M290.4,421.1h7v7h-7V421.1z M297.7,421.1h7v7h-7V421.1z M305,421.1h7v7h-7V421.1z
	 M312.2,421.1h7v7h-7V421.1z M319.5,421.1h7v7h-7V421.1z M326.7,421.1h7v7h-7V421.1z M334,421.1h7v7h-7V421.1z M341.2,421.1h7v7h-7
	V421.1z M348.5,421.1h7v7h-7V421.1z M355.8,421.1h7v7h-7V421.1z M363,421.1h7v7h-7V421.1z M370.3,421.1h7v7h-7V421.1z M377.5,421.1
	h7v7h-7V421.1z M384.8,421.1h7v7h-7V421.1z M392.1,421.1h7v7h-7V421.1z M399.3,421.1h7v7h-7V421.1z M406.6,421.1h7v7h-7V421.1z
	 M413.9,421.1h7v7h-7V421.1z M421.1,421.1h7v7h-7V421.1z M428.4,421.1h7v7h-7V421.1z M435.6,421.1h7v7h-7V421.1z M442.9,421.1h7v7
	h-7V421.1z M450.1,421.1h7v7h-7V421.1z M457.4,421.1h7v7h-7V421.1z M464.7,421.1h7v7h-7V421.1z M471.9,421.1h7v7h-7V421.1z
	 M479.2,421.1h7v7h-7V421.1z M486.5,421.1h7v7h-7V421.1z M493.7,421.1h7v7h-7V421.1z M508.2,421.1h7v7h-7V421.1z M515.5,421.1h7v7
	h-7V421.1z M522.8,421.1h7v7h-7V421.1z M530,421.1h7v7h-7V421.1z M537.3,421.1h7v7h-7V421.1z M544.5,421.1h7v7h-7V421.1z
	 M551.8,421.1h7v7h-7V421.1z M559.1,421.1h7v7h-7V421.1z M617.1,421.1h7v7h-7V421.1z M624.4,421.1h7v7h-7V421.1z M631.7,421.1h7v7
	h-7V421.1z M638.9,421.1h7v7h-7V421.1z M646.2,421.1h7v7h-7V421.1z M653.4,421.1h7v7h-7V421.1z M668,421.1h7v7h-7V421.1z
	 M675.2,421.1h7v7h-7V421.1z M682.5,421.1h7v7h-7V421.1z M689.7,421.1h7v7h-7V421.1z M697,421.1h7v7h-7V421.1z M704.2,421.1h7v7h-7
	V421.1z M711.5,421.1h7v7h-7V421.1z M718.8,421.1h7v7h-7V421.1z M726,421.1h7v7h-7V421.1z M733.3,421.1h7v7h-7V421.1z M740.6,421.1
	h7v7h-7V421.1z M747.8,421.1h7v7h-7V421.1z M755.1,421.1h7v7h-7V421.1z M762.3,421.1h7v7h-7V421.1z M769.6,421.1h7v7h-7V421.1z
	 M94.4,428.3h7v7h-7V428.3z M101.7,428.3h7v7h-7V428.3z M108.9,428.3h7v7h-7V428.3z M116.2,428.3h7v7h-7V428.3z M123.5,428.3h7v7h-7
	V428.3z M130.7,428.3h7v7h-7V428.3z M138,428.3h7v7h-7V428.3z M145.2,428.3h7v7h-7V428.3z M152.5,428.3h7v7h-7V428.3z M159.8,428.3
	h7v7h-7V428.3z M167,428.3h7v7h-7V428.3z M174.3,428.3h7v7h-7V428.3z M181.5,428.3h7v7h-7V428.3z M188.8,428.3h7v7h-7V428.3z
	 M196.1,428.3h7v7h-7V428.3z M203.3,428.3h7v7h-7V428.3z M210.6,428.3h7v7h-7V428.3z M217.8,428.3h7v7h-7V428.3z M261.4,428.3h7v7
	h-7V428.3z M268.6,428.3h7v7h-7V428.3z M275.9,428.3h7v7h-7V428.3z M283.2,428.3h7v7h-7V428.3z M290.4,428.3h7v7h-7V428.3z
	 M297.7,428.3h7v7h-7V428.3z M305,428.3h7v7h-7V428.3z M312.2,428.3h7v7h-7V428.3z M319.5,428.3h7v7h-7V428.3z M326.7,428.3h7v7h-7
	V428.3z M334,428.3h7v7h-7V428.3z M341.2,428.3h7v7h-7V428.3z M348.5,428.3h7v7h-7V428.3z M355.8,428.3h7v7h-7V428.3z M363,428.3h7
	v7h-7V428.3z M370.3,428.3h7v7h-7V428.3z M377.5,428.3h7v7h-7V428.3z M384.8,428.3h7v7h-7V428.3z M392.1,428.3h7v7h-7V428.3z
	 M399.3,428.3h7v7h-7V428.3z M406.6,428.3h7v7h-7V428.3z M413.9,428.3h7v7h-7V428.3z M421.1,428.3h7v7h-7V428.3z M428.4,428.3h7v7
	h-7V428.3z M435.6,428.3h7v7h-7V428.3z M442.9,428.3h7v7h-7V428.3z M450.1,428.3h7v7h-7V428.3z M457.4,428.3h7v7h-7V428.3z
	 M464.7,428.3h7v7h-7V428.3z M471.9,428.3h7v7h-7V428.3z M479.2,428.3h7v7h-7V428.3z M486.5,428.3h7v7h-7V428.3z M493.7,428.3h7v7
	h-7V428.3z M501,428.3h7v7h-7V428.3z M515.5,428.3h7v7h-7V428.3z M522.8,428.3h7v7h-7V428.3z M530,428.3h7v7h-7V428.3z M537.3,428.3
	h7v7h-7V428.3z M544.5,428.3h7v7h-7V428.3z M551.8,428.3h7v7h-7V428.3z M559.1,428.3h7v7h-7V428.3z M566.3,428.3h7v7h-7V428.3z
	 M573.6,428.3h7v7h-7V428.3z M609.9,428.3h7v7h-7V428.3z M617.1,428.3h7v7h-7V428.3z M624.4,428.3h7v7h-7V428.3z M631.7,428.3h7v7
	h-7V428.3z M638.9,428.3h7v7h-7V428.3z M653.4,428.3h7v7h-7V428.3z M660.7,428.3h7v7h-7V428.3z M668,428.3h7v7h-7V428.3z
	 M675.2,428.3h7v7h-7V428.3z M682.5,428.3h7v7h-7V428.3z M689.7,428.3h7v7h-7V428.3z M697,428.3h7v7h-7V428.3z M704.2,428.3h7v7h-7
	V428.3z M711.5,428.3h7v7h-7V428.3z M718.8,428.3h7v7h-7V428.3z M726,428.3h7v7h-7V428.3z M733.3,428.3h7v7h-7V428.3z M740.6,428.3
	h7v7h-7V428.3z M747.8,428.3h7v7h-7V428.3z M755.1,428.3h7v7h-7V428.3z M762.3,428.3h7v7h-7V428.3z M769.6,428.3h7v7h-7V428.3z
	 M776.9,428.3h7v7h-7V428.3z M101.7,435.6h7v7h-7V435.6z M108.9,435.6h7v7h-7V435.6z M116.2,435.6h7v7h-7V435.6z M123.5,435.6h7v7
	h-7V435.6z M130.7,435.6h7v7h-7V435.6z M138,435.6h7v7h-7V435.6z M145.2,435.6h7v7h-7V435.6z M152.5,435.6h7v7h-7V435.6z
	 M159.8,435.6h7v7h-7V435.6z M167,435.6h7v7h-7V435.6z M174.3,435.6h7v7h-7V435.6z M181.5,435.6h7v7h-7V435.6z M188.8,435.6h7v7h-7
	V435.6z M196.1,435.6h7v7h-7V435.6z M203.3,435.6h7v7h-7V435.6z M210.6,435.6h7v7h-7V435.6z M217.8,435.6h7v7h-7V435.6z
	 M225.1,435.6h7v7h-7V435.6z M232.4,435.6h7v7h-7V435.6z M239.6,435.6h7v7h-7V435.6z M246.9,435.6h7v7h-7V435.6z M254.1,435.6h7v7
	h-7V435.6z M261.4,435.6h7v7h-7V435.6z M268.6,435.6h7v7h-7V435.6z M275.9,435.6h7v7h-7V435.6z M283.2,435.6h7v7h-7V435.6z
	 M290.4,435.6h7v7h-7V435.6z M297.7,435.6h7v7h-7V435.6z M305,435.6h7v7h-7V435.6z M312.2,435.6h7v7h-7V435.6z M319.5,435.6h7v7h-7
	V435.6z M326.7,435.6h7v7h-7V435.6z M334,435.6h7v7h-7V435.6z M341.2,435.6h7v7h-7V435.6z M348.5,435.6h7v7h-7V435.6z M355.8,435.6
	h7v7h-7V435.6z M363,435.6h7v7h-7V435.6z M370.3,435.6h7v7h-7V435.6z M377.5,435.6h7v7h-7V435.6z M384.8,435.6h7v7h-7V435.6z
	 M392.1,435.6h7v7h-7V435.6z M399.3,435.6h7v7h-7V435.6z M406.6,435.6h7v7h-7V435.6z M413.9,435.6h7v7h-7V435.6z M421.1,435.6h7v7
	h-7V435.6z M428.4,435.6h7v7h-7V435.6z M435.6,435.6h7v7h-7V435.6z M442.9,435.6h7v7h-7V435.6z M450.1,435.6h7v7h-7V435.6z
	 M457.4,435.6h7v7h-7V435.6z M464.7,435.6h7v7h-7V435.6z M471.9,435.6h7v7h-7V435.6z M479.2,435.6h7v7h-7V435.6z M486.5,435.6h7v7
	h-7V435.6z M493.7,435.6h7v7h-7V435.6z M501,435.6h7v7h-7V435.6z M508.2,435.6h7v7h-7V435.6z M515.5,435.6h7v7h-7V435.6z
	 M522.8,435.6h7v7h-7V435.6z M530,435.6h7v7h-7V435.6z M537.3,435.6h7v7h-7V435.6z M544.5,435.6h7v7h-7V435.6z M551.8,435.6h7v7h-7
	V435.6z M559.1,435.6h7v7h-7V435.6z M566.3,435.6h7v7h-7V435.6z M573.6,435.6h7v7h-7V435.6z M580.8,435.6h7v7h-7V435.6z
	 M588.1,435.6h7v7h-7V435.6z M595.4,435.6h7v7h-7V435.6z M602.6,435.6h7v7h-7V435.6z M609.9,435.6h7v7h-7V435.6z M617.1,435.6h7v7
	h-7V435.6z M624.4,435.6h7v7h-7V435.6z M631.7,435.6h7v7h-7V435.6z M638.9,435.6h7v7h-7V435.6z M646.2,435.6h7v7h-7V435.6z
	 M653.4,435.6h7v7h-7V435.6z M660.7,435.6h7v7h-7V435.6z M668,435.6h7v7h-7V435.6z M675.2,435.6h7v7h-7V435.6z M108.9,442.8h7v7h-7
	V442.8z M116.2,442.8h7v7h-7V442.8z M123.5,442.8h7v7h-7V442.8z M130.7,442.8h7v7h-7V442.8z M138,442.8h7v7h-7V442.8z M145.2,442.8
	h7v7h-7V442.8z M152.5,442.8h7v7h-7V442.8z M159.8,442.8h7v7h-7V442.8z M167,442.8h7v7h-7V442.8z M174.3,442.8h7v7h-7V442.8z
	 M181.5,442.8h7v7h-7V442.8z M188.8,442.8h7v7h-7V442.8z M196.1,442.8h7v7h-7V442.8z M203.3,442.8h7v7h-7V442.8z M210.6,442.8h7v7
	h-7V442.8z M217.8,442.8h7v7h-7V442.8z M225.1,442.8h7v7h-7V442.8z M232.4,442.8h7v7h-7V442.8z M239.6,442.8h7v7h-7V442.8z
	 M246.9,442.8h7v7h-7V442.8z M254.1,442.8h7v7h-7V442.8z M261.4,442.8h7v7h-7V442.8z M268.6,442.8h7v7h-7V442.8z M275.9,442.8h7v7
	h-7V442.8z M283.2,442.8h7v7h-7V442.8z M290.4,442.8h7v7h-7V442.8z M297.7,442.8h7v7h-7V442.8z M305,442.8h7v7h-7V442.8z
	 M312.2,442.8h7v7h-7V442.8z M319.5,442.8h7v7h-7V442.8z M326.7,442.8h7v7h-7V442.8z M334,442.8h7v7h-7V442.8z M341.2,442.8h7v7h-7
	V442.8z M348.5,442.8h7v7h-7V442.8z M355.8,442.8h7v7h-7V442.8z M363,442.8h7v7h-7V442.8z M370.3,442.8h7v7h-7V442.8z M377.5,442.8
	h7v7h-7V442.8z M384.8,442.8h7v7h-7V442.8z M392.1,442.8h7v7h-7V442.8z M399.3,442.8h7v7h-7V442.8z M406.6,442.8h7v7h-7V442.8z
	 M413.9,442.8h7v7h-7V442.8z M421.1,442.8h7v7h-7V442.8z M428.4,442.8h7v7h-7V442.8z M435.6,442.8h7v7h-7V442.8z M442.9,442.8h7v7
	h-7V442.8z M450.1,442.8h7v7h-7V442.8z M457.4,442.8h7v7h-7V442.8z M464.7,442.8h7v7h-7V442.8z M471.9,442.8h7v7h-7V442.8z
	 M479.2,442.8h7v7h-7V442.8z M486.5,442.8h7v7h-7V442.8z M493.7,442.8h7v7h-7V442.8z M501,442.8h7v7h-7V442.8z M508.2,442.8h7v7h-7
	V442.8z M515.5,442.8h7v7h-7V442.8z M522.8,442.8h7v7h-7V442.8z M530,442.8h7v7h-7V442.8z M537.3,442.8h7v7h-7V442.8z M544.5,442.8
	h7v7h-7V442.8z M551.8,442.8h7v7h-7V442.8z M559.1,442.8h7v7h-7V442.8z M566.3,442.8h7v7h-7V442.8z M573.6,442.8h7v7h-7V442.8z
	 M580.8,442.8h7v7h-7V442.8z M588.1,442.8h7v7h-7V442.8z M595.4,442.8h7v7h-7V442.8z M602.6,442.8h7v7h-7V442.8z M609.9,442.8h7v7
	h-7V442.8z M617.1,442.8h7v7h-7V442.8z M624.4,442.8h7v7h-7V442.8z M631.7,442.8h7v7h-7V442.8z M638.9,442.8h7v7h-7V442.8z
	 M646.2,442.8h7v7h-7V442.8z M653.4,442.8h7v7h-7V442.8z M660.7,442.8h7v7h-7V442.8z M668,442.8h7v7h-7V442.8z M675.2,442.8h7v7h-7
	V442.8z M682.5,442.8h7v7h-7V442.8z M689.7,442.8h7v7h-7V442.8z M697,442.8h7v7h-7V442.8z M704.2,442.8h7v7h-7V442.8z M711.5,442.8
	h7v7h-7V442.8z M718.8,442.8h7v7h-7V442.8z M726,442.8h7v7h-7V442.8z M733.3,442.8h7v7h-7V442.8z M740.6,442.8h7v7h-7V442.8z
	 M94.4,450.1h7v7h-7V450.1z M101.7,450.1h7v7h-7V450.1z M108.9,450.1h7v7h-7V450.1z M116.2,450.1h7v7h-7V450.1z M123.5,450.1h7v7h-7
	V450.1z M130.7,450.1h7v7h-7V450.1z M138,450.1h7v7h-7V450.1z M145.2,450.1h7v7h-7V450.1z M152.5,450.1h7v7h-7V450.1z M159.8,450.1
	h7v7h-7V450.1z M167,450.1h7v7h-7V450.1z M174.3,450.1h7v7h-7V450.1z M181.5,450.1h7v7h-7V450.1z M188.8,450.1h7v7h-7V450.1z
	 M196.1,450.1h7v7h-7V450.1z M203.3,450.1h7v7h-7V450.1z M210.6,450.1h7v7h-7V450.1z M217.8,450.1h7v7h-7V450.1z M225.1,450.1h7v7
	h-7V450.1z M232.4,450.1h7v7h-7V450.1z M239.6,450.1h7v7h-7V450.1z M246.9,450.1h7v7h-7V450.1z M254.1,450.1h7v7h-7V450.1z
	 M261.4,450.1h7v7h-7V450.1z M268.6,450.1h7v7h-7V450.1z M275.9,450.1h7v7h-7V450.1z M283.2,450.1h7v7h-7V450.1z M290.4,450.1h7v7
	h-7V450.1z M297.7,450.1h7v7h-7V450.1z M305,450.1h7v7h-7V450.1z M312.2,450.1h7v7h-7V450.1z M319.5,450.1h7v7h-7V450.1z
	 M326.7,450.1h7v7h-7V450.1z M334,450.1h7v7h-7V450.1z M341.2,450.1h7v7h-7V450.1z M348.5,450.1h7v7h-7V450.1z M355.8,450.1h7v7h-7
	V450.1z M363,450.1h7v7h-7V450.1z M370.3,450.1h7v7h-7V450.1z M377.5,450.1h7v7h-7V450.1z M384.8,450.1h7v7h-7V450.1z M392.1,450.1
	h7v7h-7V450.1z M399.3,450.1h7v7h-7V450.1z M406.6,450.1h7v7h-7V450.1z M413.9,450.1h7v7h-7V450.1z M421.1,450.1h7v7h-7V450.1z
	 M428.4,450.1h7v7h-7V450.1z M435.6,450.1h7v7h-7V450.1z M442.9,450.1h7v7h-7V450.1z M450.1,450.1h7v7h-7V450.1z M457.4,450.1h7v7
	h-7V450.1z M464.7,450.1h7v7h-7V450.1z M471.9,450.1h7v7h-7V450.1z M479.2,450.1h7v7h-7V450.1z M486.5,450.1h7v7h-7V450.1z
	 M493.7,450.1h7v7h-7V450.1z M501,450.1h7v7h-7V450.1z M508.2,450.1h7v7h-7V450.1z M515.5,450.1h7v7h-7V450.1z M522.8,450.1h7v7h-7
	V450.1z M530,450.1h7v7h-7V450.1z M537.3,450.1h7v7h-7V450.1z M544.5,450.1h7v7h-7V450.1z M551.8,450.1h7v7h-7V450.1z M559.1,450.1
	h7v7h-7V450.1z M566.3,450.1h7v7h-7V450.1z M573.6,450.1h7v7h-7V450.1z M580.8,450.1h7v7h-7V450.1z M588.1,450.1h7v7h-7V450.1z
	 M595.4,450.1h7v7h-7V450.1z M602.6,450.1h7v7h-7V450.1z M609.9,450.1h7v7h-7V450.1z M617.1,450.1h7v7h-7V450.1z M624.4,450.1h7v7
	h-7V450.1z M631.7,450.1h7v7h-7V450.1z M638.9,450.1h7v7h-7V450.1z M646.2,450.1h7v7h-7V450.1z M653.4,450.1h7v7h-7V450.1z
	 M660.7,450.1h7v7h-7V450.1z M668,450.1h7v7h-7V450.1z M675.2,450.1h7v7h-7V450.1z M682.5,450.1h7v7h-7V450.1z M689.7,450.1h7v7h-7
	V450.1z M697,450.1h7v7h-7V450.1z M704.2,450.1h7v7h-7V450.1z M711.5,450.1h7v7h-7V450.1z M718.8,450.1h7v7h-7V450.1z M79.9,457.4h7
	v7h-7V457.4z M87.2,457.4h7v7h-7V457.4z M94.4,457.4h7v7h-7V457.4z M101.7,457.4h7v7h-7V457.4z M108.9,457.4h7v7h-7V457.4z
	 M116.2,457.4h7v7h-7V457.4z M123.5,457.4h7v7h-7V457.4z M130.7,457.4h7v7h-7V457.4z M138,457.4h7v7h-7V457.4z M145.2,457.4h7v7h-7
	V457.4z M152.5,457.4h7v7h-7V457.4z M159.8,457.4h7v7h-7V457.4z M167,457.4h7v7h-7V457.4z M174.3,457.4h7v7h-7V457.4z M181.5,457.4
	h7v7h-7V457.4z M188.8,457.4h7v7h-7V457.4z M196.1,457.4h7v7h-7V457.4z M203.3,457.4h7v7h-7V457.4z M210.6,457.4h7v7h-7V457.4z
	 M217.8,457.4h7v7h-7V457.4z M225.1,457.4h7v7h-7V457.4z M232.4,457.4h7v7h-7V457.4z M239.6,457.4h7v7h-7V457.4z M246.9,457.4h7v7
	h-7V457.4z M254.1,457.4h7v7h-7V457.4z M261.4,457.4h7v7h-7V457.4z M268.6,457.4h7v7h-7V457.4z M275.9,457.4h7v7h-7V457.4z
	 M283.2,457.4h7v7h-7V457.4z M290.4,457.4h7v7h-7V457.4z M297.7,457.4h7v7h-7V457.4z M305,457.4h7v7h-7V457.4z M312.2,457.4h7v7h-7
	V457.4z M319.5,457.4h7v7h-7V457.4z M326.7,457.4h7v7h-7V457.4z M334,457.4h7v7h-7V457.4z M341.2,457.4h7v7h-7V457.4z M348.5,457.4
	h7v7h-7V457.4z M355.8,457.4h7v7h-7V457.4z M363,457.4h7v7h-7V457.4z M370.3,457.4h7v7h-7V457.4z M377.5,457.4h7v7h-7V457.4z
	 M384.8,457.4h7v7h-7V457.4z M392.1,457.4h7v7h-7V457.4z M399.3,457.4h7v7h-7V457.4z M406.6,457.4h7v7h-7V457.4z M413.9,457.4h7v7
	h-7V457.4z M421.1,457.4h7v7h-7V457.4z M428.4,457.4h7v7h-7V457.4z M435.6,457.4h7v7h-7V457.4z M442.9,457.4h7v7h-7V457.4z
	 M450.1,457.4h7v7h-7V457.4z M457.4,457.4h7v7h-7V457.4z M464.7,457.4h7v7h-7V457.4z M471.9,457.4h7v7h-7V457.4z M479.2,457.4h7v7
	h-7V457.4z M486.5,457.4h7v7h-7V457.4z M493.7,457.4h7v7h-7V457.4z M501,457.4h7v7h-7V457.4z M508.2,457.4h7v7h-7V457.4z
	 M515.5,457.4h7v7h-7V457.4z M522.8,457.4h7v7h-7V457.4z M530,457.4h7v7h-7V457.4z M537.3,457.4h7v7h-7V457.4z M544.5,457.4h7v7h-7
	V457.4z M551.8,457.4h7v7h-7V457.4z M559.1,457.4h7v7h-7V457.4z M566.3,457.4h7v7h-7V457.4z M573.6,457.4h7v7h-7V457.4z
	 M580.8,457.4h7v7h-7V457.4z M588.1,457.4h7v7h-7V457.4z M595.4,457.4h7v7h-7V457.4z M602.6,457.4h7v7h-7V457.4z M609.9,457.4h7v7
	h-7V457.4z M617.1,457.4h7v7h-7V457.4z M624.4,457.4h7v7h-7V457.4z M631.7,457.4h7v7h-7V457.4z M638.9,457.4h7v7h-7V457.4z
	 M646.2,457.4h7v7h-7V457.4z M653.4,457.4h7v7h-7V457.4z M660.7,457.4h7v7h-7V457.4z M668,457.4h7v7h-7V457.4z M675.2,457.4h7v7h-7
	V457.4z M682.5,457.4h7v7h-7V457.4z M689.7,457.4h7v7h-7V457.4z M697,457.4h7v7h-7V457.4z M704.2,457.4h7v7h-7V457.4z M711.5,457.4
	h7v7h-7V457.4z M718.8,457.4h7v7h-7V457.4z M65.4,464.6h7v7h-7V464.6z M72.6,464.6h7v7h-7V464.6z M79.9,464.6h7v7h-7V464.6z
	 M87.2,464.6h7v7h-7V464.6z M94.4,464.6h7v7h-7V464.6z M101.7,464.6h7v7h-7V464.6z M108.9,464.6h7v7h-7V464.6z M116.2,464.6h7v7h-7
	V464.6z M123.5,464.6h7v7h-7V464.6z M130.7,464.6h7v7h-7V464.6z M138,464.6h7v7h-7V464.6z M145.2,464.6h7v7h-7V464.6z M152.5,464.6
	h7v7h-7V464.6z M159.8,464.6h7v7h-7V464.6z M167,464.6h7v7h-7V464.6z M174.3,464.6h7v7h-7V464.6z M181.5,464.6h7v7h-7V464.6z
	 M188.8,464.6h7v7h-7V464.6z M196.1,464.6h7v7h-7V464.6z M203.3,464.6h7v7h-7V464.6z M210.6,464.6h7v7h-7V464.6z M217.8,464.6h7v7
	h-7V464.6z M225.1,464.6h7v7h-7V464.6z M232.4,464.6h7v7h-7V464.6z M239.6,464.6h7v7h-7V464.6z M246.9,464.6h7v7h-7V464.6z
	 M254.1,464.6h7v7h-7V464.6z M261.4,464.6h7v7h-7V464.6z M268.6,464.6h7v7h-7V464.6z M275.9,464.6h7v7h-7V464.6z M283.2,464.6h7v7
	h-7V464.6z M290.4,464.6h7v7h-7V464.6z M297.7,464.6h7v7h-7V464.6z M305,464.6h7v7h-7V464.6z M312.2,464.6h7v7h-7V464.6z
	 M319.5,464.6h7v7h-7V464.6z M326.7,464.6h7v7h-7V464.6z M334,464.6h7v7h-7V464.6z M341.2,464.6h7v7h-7V464.6z M348.5,464.6h7v7h-7
	V464.6z M355.8,464.6h7v7h-7V464.6z M363,464.6h7v7h-7V464.6z M370.3,464.6h7v7h-7V464.6z M377.5,464.6h7v7h-7V464.6z M384.8,464.6
	h7v7h-7V464.6z M392.1,464.6h7v7h-7V464.6z M399.3,464.6h7v7h-7V464.6z M406.6,464.6h7v7h-7V464.6z M413.9,464.6h7v7h-7V464.6z
	 M421.1,464.6h7v7h-7V464.6z M428.4,464.6h7v7h-7V464.6z M435.6,464.6h7v7h-7V464.6z M442.9,464.6h7v7h-7V464.6z M450.1,464.6h7v7
	h-7V464.6z M457.4,464.6h7v7h-7V464.6z M464.7,464.6h7v7h-7V464.6z M471.9,464.6h7v7h-7V464.6z M479.2,464.6h7v7h-7V464.6z
	 M486.5,464.6h7v7h-7V464.6z M493.7,464.6h7v7h-7V464.6z M501,464.6h7v7h-7V464.6z M508.2,464.6h7v7h-7V464.6z M515.5,464.6h7v7h-7
	V464.6z M522.8,464.6h7v7h-7V464.6z M530,464.6h7v7h-7V464.6z M537.3,464.6h7v7h-7V464.6z M544.5,464.6h7v7h-7V464.6z M551.8,464.6
	h7v7h-7V464.6z M559.1,464.6h7v7h-7V464.6z M566.3,464.6h7v7h-7V464.6z M573.6,464.6h7v7h-7V464.6z M580.8,464.6h7v7h-7V464.6z
	 M588.1,464.6h7v7h-7V464.6z M595.4,464.6h7v7h-7V464.6z M602.6,464.6h7v7h-7V464.6z M609.9,464.6h7v7h-7V464.6z M617.1,464.6h7v7
	h-7V464.6z M624.4,464.6h7v7h-7V464.6z M631.7,464.6h7v7h-7V464.6z M638.9,464.6h7v7h-7V464.6z M646.2,464.6h7v7h-7V464.6z
	 M653.4,464.6h7v7h-7V464.6z M660.7,464.6h7v7h-7V464.6z M668,464.6h7v7h-7V464.6z M675.2,464.6h7v7h-7V464.6z M682.5,464.6h7v7h-7
	V464.6z M689.7,464.6h7v7h-7V464.6z M697,464.6h7v7h-7V464.6z M704.2,464.6h7v7h-7V464.6z M711.5,464.6h7v7h-7V464.6z M718.8,464.6
	h7v7h-7V464.6z M58.1,471.9h7v7h-7V471.9z M65.4,471.9h7v7h-7V471.9z M72.6,471.9h7v7h-7V471.9z M79.9,471.9h7v7h-7V471.9z
	 M87.2,471.9h7v7h-7V471.9z M94.4,471.9h7v7h-7V471.9z M101.7,471.9h7v7h-7V471.9z M108.9,471.9h7v7h-7V471.9z M116.2,471.9h7v7h-7
	V471.9z M123.5,471.9h7v7h-7V471.9z M130.7,471.9h7v7h-7V471.9z M138,471.9h7v7h-7V471.9z M145.2,471.9h7v7h-7V471.9z M152.5,471.9
	h7v7h-7V471.9z M159.8,471.9h7v7h-7V471.9z M167,471.9h7v7h-7V471.9z M174.3,471.9h7v7h-7V471.9z M181.5,471.9h7v7h-7V471.9z
	 M188.8,471.9h7v7h-7V471.9z M196.1,471.9h7v7h-7V471.9z M203.3,471.9h7v7h-7V471.9z M210.6,471.9h7v7h-7V471.9z M217.8,471.9h7v7
	h-7V471.9z M225.1,471.9h7v7h-7V471.9z M232.4,471.9h7v7h-7V471.9z M239.6,471.9h7v7h-7V471.9z M246.9,471.9h7v7h-7V471.9z
	 M254.1,471.9h7v7h-7V471.9z M261.4,471.9h7v7h-7V471.9z M268.6,471.9h7v7h-7V471.9z M275.9,471.9h7v7h-7V471.9z M283.2,471.9h7v7
	h-7V471.9z M290.4,471.9h7v7h-7V471.9z M297.7,471.9h7v7h-7V471.9z M305,471.9h7v7h-7V471.9z M312.2,471.9h7v7h-7V471.9z
	 M319.5,471.9h7v7h-7V471.9z M326.7,471.9h7v7h-7V471.9z M334,471.9h7v7h-7V471.9z M341.2,471.9h7v7h-7V471.9z M348.5,471.9h7v7h-7
	V471.9z M355.8,471.9h7v7h-7V471.9z M363,471.9h7v7h-7V471.9z M370.3,471.9h7v7h-7V471.9z M377.5,471.9h7v7h-7V471.9z M384.8,471.9
	h7v7h-7V471.9z M392.1,471.9h7v7h-7V471.9z M399.3,471.9h7v7h-7V471.9z M406.6,471.9h7v7h-7V471.9z M413.9,471.9h7v7h-7V471.9z
	 M421.1,471.9h7v7h-7V471.9z M428.4,471.9h7v7h-7V471.9z M435.6,471.9h7v7h-7V471.9z M442.9,471.9h7v7h-7V471.9z M450.1,471.9h7v7
	h-7V471.9z M457.4,471.9h7v7h-7V471.9z M464.7,471.9h7v7h-7V471.9z M471.9,471.9h7v7h-7V471.9z M479.2,471.9h7v7h-7V471.9z
	 M486.5,471.9h7v7h-7V471.9z M493.7,471.9h7v7h-7V471.9z M501,471.9h7v7h-7V471.9z M508.2,471.9h7v7h-7V471.9z M515.5,471.9h7v7h-7
	V471.9z M522.8,471.9h7v7h-7V471.9z M530,471.9h7v7h-7V471.9z M537.3,471.9h7v7h-7V471.9z M544.5,471.9h7v7h-7V471.9z M551.8,471.9
	h7v7h-7V471.9z M559.1,471.9h7v7h-7V471.9z M566.3,471.9h7v7h-7V471.9z M573.6,471.9h7v7h-7V471.9z M580.8,471.9h7v7h-7V471.9z
	 M588.1,471.9h7v7h-7V471.9z M595.4,471.9h7v7h-7V471.9z M602.6,471.9h7v7h-7V471.9z M609.9,471.9h7v7h-7V471.9z M617.1,471.9h7v7
	h-7V471.9z M631.7,471.9h7v7h-7V471.9z M638.9,471.9h7v7h-7V471.9z M646.2,471.9h7v7h-7V471.9z M653.4,471.9h7v7h-7V471.9z
	 M660.7,471.9h7v7h-7V471.9z M668,471.9h7v7h-7V471.9z M675.2,471.9h7v7h-7V471.9z M682.5,471.9h7v7h-7V471.9z M87.2,479.1h7v7h-7
	V479.1z M94.4,479.1h7v7h-7V479.1z M101.7,479.1h7v7h-7V479.1z M108.9,479.1h7v7h-7V479.1z M116.2,479.1h7v7h-7V479.1z M123.5,479.1
	h7v7h-7V479.1z M130.7,479.1h7v7h-7V479.1z M138,479.1h7v7h-7V479.1z M145.2,479.1h7v7h-7V479.1z M152.5,479.1h7v7h-7V479.1z
	 M159.8,479.1h7v7h-7V479.1z M167,479.1h7v7h-7V479.1z M174.3,479.1h7v7h-7V479.1z M181.5,479.1h7v7h-7V479.1z M188.8,479.1h7v7h-7
	V479.1z M196.1,479.1h7v7h-7V479.1z M203.3,479.1h7v7h-7V479.1z M210.6,479.1h7v7h-7V479.1z M217.8,479.1h7v7h-7V479.1z
	 M225.1,479.1h7v7h-7V479.1z M232.4,479.1h7v7h-7V479.1z M239.6,479.1h7v7h-7V479.1z M246.9,479.1h7v7h-7V479.1z M254.1,479.1h7v7
	h-7V479.1z M261.4,479.1h7v7h-7V479.1z M268.6,479.1h7v7h-7V479.1z M275.9,479.1h7v7h-7V479.1z M283.2,479.1h7v7h-7V479.1z
	 M290.4,479.1h7v7h-7V479.1z M297.7,479.1h7v7h-7V479.1z M305,479.1h7v7h-7V479.1z M312.2,479.1h7v7h-7V479.1z M319.5,479.1h7v7h-7
	V479.1z M326.7,479.1h7v7h-7V479.1z M334,479.1h7v7h-7V479.1z M341.2,479.1h7v7h-7V479.1z M348.5,479.1h7v7h-7V479.1z M355.8,479.1
	h7v7h-7V479.1z M363,479.1h7v7h-7V479.1z M370.3,479.1h7v7h-7V479.1z M377.5,479.1h7v7h-7V479.1z M384.8,479.1h7v7h-7V479.1z
	 M392.1,479.1h7v7h-7V479.1z M399.3,479.1h7v7h-7V479.1z M406.6,479.1h7v7h-7V479.1z M413.9,479.1h7v7h-7V479.1z M421.1,479.1h7v7
	h-7V479.1z M428.4,479.1h7v7h-7V479.1z M435.6,479.1h7v7h-7V479.1z M442.9,479.1h7v7h-7V479.1z M450.1,479.1h7v7h-7V479.1z
	 M457.4,479.1h7v7h-7V479.1z M464.7,479.1h7v7h-7V479.1z M471.9,479.1h7v7h-7V479.1z M479.2,479.1h7v7h-7V479.1z M486.5,479.1h7v7
	h-7V479.1z M493.7,479.1h7v7h-7V479.1z M501,479.1h7v7h-7V479.1z M508.2,479.1h7v7h-7V479.1z M515.5,479.1h7v7h-7V479.1z
	 M522.8,479.1h7v7h-7V479.1z M530,479.1h7v7h-7V479.1z M537.3,479.1h7v7h-7V479.1z M544.5,479.1h7v7h-7V479.1z M551.8,479.1h7v7h-7
	V479.1z M559.1,479.1h7v7h-7V479.1z M566.3,479.1h7v7h-7V479.1z M573.6,479.1h7v7h-7V479.1z M580.8,479.1h7v7h-7V479.1z
	 M588.1,479.1h7v7h-7V479.1z M595.4,479.1h7v7h-7V479.1z M602.6,479.1h7v7h-7V479.1z M609.9,479.1h7v7h-7V479.1z M617.1,479.1h7v7
	h-7V479.1z M624.4,479.1h7v7h-7V479.1z M631.7,479.1h7v7h-7V479.1z M638.9,479.1h7v7h-7V479.1z M646.2,479.1h7v7h-7V479.1z
	 M653.4,479.1h7v7h-7V479.1z M660.7,479.1h7v7h-7V479.1z M668,479.1h7v7h-7V479.1z M675.2,479.1h7v7h-7V479.1z M682.5,479.1h7v7h-7
	V479.1z M689.7,479.1h7v7h-7V479.1z M697,479.1h7v7h-7V479.1z M704.2,479.1h7v7h-7V479.1z M711.5,479.1h7v7h-7V479.1z M718.8,479.1
	h7v7h-7V479.1z M726,479.1h7v7h-7V479.1z M290.4,486.4h7v7h-7V486.4z M297.7,486.4h7v7h-7V486.4z M305,486.4h7v7h-7V486.4z
	 M312.2,486.4h7v7h-7V486.4z M319.5,486.4h7v7h-7V486.4z M326.7,486.4h7v7h-7V486.4z M334,486.4h7v7h-7V486.4z M341.2,486.4h7v7h-7
	V486.4z M348.5,486.4h7v7h-7V486.4z M355.8,486.4h7v7h-7V486.4z M363,486.4h7v7h-7V486.4z M370.3,486.4h7v7h-7V486.4z M377.5,486.4
	h7v7h-7V486.4z M384.8,486.4h7v7h-7V486.4z M392.1,486.4h7v7h-7V486.4z M399.3,486.4h7v7h-7V486.4z M406.6,486.4h7v7h-7V486.4z
	 M413.9,486.4h7v7h-7V486.4z M421.1,486.4h7v7h-7V486.4z M428.4,486.4h7v7h-7V486.4z M435.6,486.4h7v7h-7V486.4z M442.9,486.4h7v7
	h-7V486.4z M450.1,486.4h7v7h-7V486.4z M457.4,486.4h7v7h-7V486.4z M464.7,486.4h7v7h-7V486.4z M471.9,486.4h7v7h-7V486.4z
	 M479.2,486.4h7v7h-7V486.4z M486.5,486.4h7v7h-7V486.4z M493.7,486.4h7v7h-7V486.4z M501,486.4h7v7h-7V486.4z M508.2,486.4h7v7h-7
	V486.4z M515.5,486.4h7v7h-7V486.4z M522.8,486.4h7v7h-7V486.4z M530,486.4h7v7h-7V486.4z M537.3,486.4h7v7h-7V486.4z M544.5,486.4
	h7v7h-7V486.4z M551.8,486.4h7v7h-7V486.4z M559.1,486.4h7v7h-7V486.4z M566.3,486.4h7v7h-7V486.4z M573.6,486.4h7v7h-7V486.4z
	 M580.8,486.4h7v7h-7V486.4z M588.1,486.4h7v7h-7V486.4z M595.4,486.4h7v7h-7V486.4z M602.6,486.4h7v7h-7V486.4z M609.9,486.4h7v7
	h-7V486.4z M617.1,486.4h7v7h-7V486.4z M624.4,486.4h7v7h-7V486.4z M631.7,486.4h7v7h-7V486.4z M638.9,486.4h7v7h-7V486.4z
	 M646.2,486.4h7v7h-7V486.4z M653.4,486.4h7v7h-7V486.4z M660.7,486.4h7v7h-7V486.4z M668,486.4h7v7h-7V486.4z M675.2,486.4h7v7h-7
	V486.4z M682.5,486.4h7v7h-7V486.4z M689.7,486.4h7v7h-7V486.4z M697,486.4h7v7h-7V486.4z M704.2,486.4h7v7h-7V486.4z M711.5,486.4
	h7v7h-7V486.4z M718.8,486.4h7v7h-7V486.4z M726,486.4h7v7h-7V486.4z M435.6,493.6h7v7h-7V493.6z M442.9,493.6h7v7h-7V493.6z
	 M464.7,493.6h7v7h-7V493.6z M471.9,493.6h7v7h-7V493.6z M479.2,493.6h7v7h-7V493.6z M486.5,493.6h7v7h-7V493.6z M493.7,493.6h7v7
	h-7V493.6z M501,493.6h7v7h-7V493.6z M508.2,493.6h7v7h-7V493.6z M515.5,493.6h7v7h-7V493.6z M522.8,493.6h7v7h-7V493.6z M530,493.6
	h7v7h-7V493.6z M537.3,493.6h7v7h-7V493.6z M544.5,493.6h7v7h-7V493.6z M551.8,493.6h7v7h-7V493.6z M559.1,493.6h7v7h-7V493.6z
	 M566.3,493.6h7v7h-7V493.6z M573.6,493.6h7v7h-7V493.6z M580.8,493.6h7v7h-7V493.6z M588.1,493.6h7v7h-7V493.6z M595.4,493.6h7v7
	h-7V493.6z M602.6,493.6h7v7h-7V493.6z M609.9,493.6h7v7h-7V493.6z M617.1,493.6h7v7h-7V493.6z M624.4,493.6h7v7h-7V493.6z
	 M631.7,493.6h7v7h-7V493.6z M638.9,493.6h7v7h-7V493.6z M646.2,493.6h7v7h-7V493.6z M653.4,493.6h7v7h-7V493.6z M660.7,493.6h7v7
	h-7V493.6z M668,493.6h7v7h-7V493.6z M675.2,493.6h7v7h-7V493.6z M682.5,493.6h7v7h-7V493.6z M689.7,493.6h7v7h-7V493.6z M697,493.6
	h7v7h-7V493.6z M704.2,493.6h7v7h-7V493.6z M711.5,493.6h7v7h-7V493.6z M508.2,500.9h7v7h-7V500.9z M515.5,500.9h7v7h-7V500.9z
	 M522.8,500.9h7v7h-7V500.9z M530,500.9h7v7h-7V500.9z M537.3,500.9h7v7h-7V500.9z M544.5,500.9h7v7h-7V500.9z M551.8,500.9h7v7h-7
	V500.9z M559.1,500.9h7v7h-7V500.9z M566.3,500.9h7v7h-7V500.9z M573.6,500.9h7v7h-7V500.9z M580.8,500.9h7v7h-7V500.9z
	 M588.1,500.9h7v7h-7V500.9z M595.4,500.9h7v7h-7V500.9z M602.6,500.9h7v7h-7V500.9z M609.9,500.9h7v7h-7V500.9z M617.1,500.9h7v7
	h-7V500.9z M624.4,500.9h7v7h-7V500.9z M631.7,500.9h7v7h-7V500.9z M638.9,500.9h7v7h-7V500.9z M646.2,500.9h7v7h-7V500.9z
	 M653.4,500.9h7v7h-7V500.9z M660.7,500.9h7v7h-7V500.9z M668,500.9h7v7h-7V500.9z M675.2,500.9h7v7h-7V500.9z M682.5,500.9h7v7h-7
	V500.9z M689.7,500.9h7v7h-7V500.9z M697,500.9h7v7h-7V500.9z"/>
</svg>
