<?xml version="1.0" encoding="utf-8"?>
<!-- Generator: Adobe Illustrator 27.3.1, SVG Export Plug-In . SVG Version: 6.00 Build 0)  -->
<svg version="1.1" id="Слой_2_00000113352612168036419030000011996576461455999415_"
	 xmlns="http://www.w3.org/2000/svg" xmlns:xlink="http://www.w3.org/1999/xlink" x="0px" y="0px" viewBox="0 0 870.9 595.1"
	 style="enable-background:new 0 0 870.9 595.1;" xml:space="preserve">
<style type="text/css">
	.st0{fill:#1E0E01;}
</style>
<path class="st0" d="M21.7,79.9h7v7h-7V79.9z M21.7,87.1h7v7h-7V87.1z M21.7,94.4h7v7h-7V94.4z M21.7,101.6h7v7h-7V101.6z
	 M21.7,108.9h7v7h-7V108.9z M21.7,116.1h7v7h-7V116.1z M21.7,123.4h7v7h-7V123.4z M21.7,130.7h7v7h-7V130.7z M21.7,137.9h7v7h-7
	V137.9z M21.7,145.2h7v7h-7V145.2z M21.7,152.4h7v7h-7V152.4z M21.7,159.7h7v7h-7V159.7z M21.7,167h7v7h-7V167z M29,79.9h7v7h-7
	C29,86.9,29,79.9,29,79.9z M29,87.1h7v7h-7C29,94.1,29,87.1,29,87.1z M29,94.4h7v7h-7C29,101.4,29,94.4,29,94.4z M29,101.6h7v7h-7
	C29,108.6,29,101.6,29,101.6z M29,108.9h7v7h-7C29,115.9,29,108.9,29,108.9z M29,116.1h7v7h-7C29,123.1,29,116.1,29,116.1z
	 M29,123.4h7v7h-7C29,130.4,29,123.4,29,123.4z M29,130.7h7v7h-7C29,137.7,29,130.7,29,130.7z M29,137.9h7v7h-7
	C29,144.9,29,137.9,29,137.9z M29,145.2h7v7h-7C29,152.2,29,145.2,29,145.2z M29,152.4h7v7h-7C29,159.4,29,152.4,29,152.4z
	 M29,159.7h7v7h-7C29,166.7,29,159.7,29,159.7z M29,167h7v7h-7C29,174,29,167,29,167z M43.4,79.9h7v7h-7V79.9z M43.4,87.1h7v7h-7
	V87.1z M43.4,94.4h7v7h-7V94.4z M43.4,101.6h7v7h-7V101.6z M43.4,108.9h7v7h-7V108.9z M43.4,116.1h7v7h-7V116.1z M43.4,123.4h7v7h-7
	V123.4z M43.4,130.7h7v7h-7V130.7z M43.4,137.9h7v7h-7V137.9z M43.4,145.2h7v7h-7V145.2z M43.4,152.4h7v7h-7V152.4z M43.4,159.7h7v7
	h-7V159.7z M43.4,167h7v7h-7V167z M50.7,79.9h7v7h-7V79.9z M50.7,87.1h7v7h-7V87.1z M50.7,94.4h7v7h-7V94.4z M50.7,101.6h7v7h-7
	V101.6z M50.7,108.9h7v7h-7V108.9z M50.7,116.1h7v7h-7V116.1z M50.7,123.4h7v7h-7V123.4z M50.7,130.7h7v7h-7V130.7z M50.7,137.9h7v7
	h-7V137.9z M50.7,145.2h7v7h-7V145.2z M50.7,152.4h7v7h-7V152.4z M50.7,159.7h7v7h-7V159.7z M50.7,167h7v7h-7V167z M58,79.9h7v7h-7
	V79.9z M58,87.1h7v7h-7V87.1z M58,130.7h7v7h-7V130.7z M58,137.9h7v7h-7V137.9z M65.3,79.9h7v7h-7V79.9z M65.3,87.1h7v7h-7V87.1z
	 M65.3,130.7h7v7h-7V130.7z M65.3,137.9h7v7h-7V137.9z M72.5,79.9h7v7h-7V79.9z M72.5,87.1h7v7h-7V87.1z M72.5,130.7h7v7h-7V130.7z
	 M72.5,137.9h7v7h-7V137.9z M79.8,87.1h7v7h-7V87.1z M79.8,94.4h7v7h-7V94.4z M79.8,123.4h7v7h-7V123.4z M79.8,130.7h7v7h-7V130.7z
	 M87.1,94.4h7v7h-7V94.4z M87.1,101.6h7v7h-7V101.6z M87.1,108.9h7v7h-7V108.9z M87.1,116.1h7v7h-7V116.1z M87.1,123.4h7v7h-7V123.4
	z M101.5,94.4h7v7h-7V94.4z M101.5,101.6h7v7h-7V101.6z M101.5,108.9h7v7h-7V108.9z M101.5,116.1h7v7h-7V116.1z M101.5,123.4h7v7h-7
	V123.4z M101.5,130.7h7v7h-7V130.7z M101.5,137.9h7v7h-7V137.9z M101.5,145.2h7v7h-7V145.2z M101.5,152.4h7v7h-7V152.4z
	 M101.5,159.7h7v7h-7V159.7z M101.5,167h7v7h-7V167z M108.8,87.1h7v7h-7V87.1z M108.8,94.4h7v7h-7V94.4z M108.8,101.6h7v7h-7V101.6z
	 M108.8,108.9h7v7h-7V108.9z M108.8,116.1h7v7h-7V116.1z M108.8,123.4h7v7h-7V123.4z M108.8,130.7h7v7h-7V130.7z M108.8,137.9h7v7
	h-7V137.9z M108.8,145.2h7v7h-7V145.2z M108.8,152.4h7v7h-7V152.4z M108.8,159.7h7v7h-7V159.7z M108.8,167h7v7h-7V167z M116.1,79.9
	h7v7h-7V79.9z M116.1,87.1h7v7h-7V87.1z M116.1,108.9h7v7h-7V108.9z M116.1,116.1h7v7h-7V116.1z M123.3,79.9h7v7h-7
	C123.3,86.9,123.3,79.9,123.3,79.9z M123.3,87.1h7v7h-7C123.3,94.1,123.3,87.1,123.3,87.1z M123.3,108.9h7v7h-7
	C123.3,115.9,123.3,108.9,123.3,108.9z M123.3,116.1h7v7h-7C123.3,123.1,123.3,116.1,123.3,116.1z M130.6,79.9h7v7h-7V79.9z
	 M130.6,87.1h7v7h-7V87.1z M130.6,108.9h7v7h-7V108.9z M130.6,116.1h7v7h-7V116.1z M137.8,79.9h7v7h-7V79.9z M137.8,87.1h7v7h-7
	V87.1z M145.2,123.4h7v7h-7V123.4z M145.2,130.7h7v7h-7V130.7z M145.2,137.9h7v7h-7V137.9z M145.2,145.2h7v7h-7V145.2z M145.2,152.4
	h7v7h-7V152.4z M152.4,116.1h7v7h-7V116.1z M152.4,123.4h7v7h-7V123.4z M152.4,130.7h7v7h-7V130.7z M152.4,137.9h7v7h-7V137.9z
	 M152.4,145.2h7v7h-7V145.2z M152.4,152.4h7v7h-7V152.4z M152.4,159.7h7v7h-7V159.7z M159.7,108.9h7v7h-7V108.9z M159.7,116.1h7v7
	h-7V116.1z M159.7,159.7h7v7h-7V159.7z M159.7,167h7v7h-7V167z M188.7,341.2h7v7h-7V341.2z M188.7,348.5h7v7h-7V348.5z M188.7,355.7
	h7v7h-7V355.7z M188.7,363h7v7h-7V363z M188.7,370.2h7v7h-7V370.2z M188.7,377.5h7v7h-7V377.5z M166.9,108.9h7v7h-7V108.9z
	 M166.9,167h7v7h-7V167z M195.9,326.7h7v7h-7V326.7z M195.9,334h7v7h-7V334z M195.9,341.2h7v7h-7V341.2z M195.9,348.5h7v7h-7V348.5z
	 M195.9,355.7h7v7h-7V355.7z M195.9,370.2h7v7h-7V370.2z M188.7,399.3h7v7h-7V399.3z M181.4,399.3h7v7h-7V399.3z M181.4,392h7v7h-7
	V392z M181.4,384.8h7v7h-7V384.8z M181.4,377.5h7v7h-7V377.5z M181.4,370.3h7v7h-7V370.3z M188.7,406.6h7v7h-7V406.6z M188.7,413.8
	h7v7h-7V413.8z M188.7,421.1h7v7h-7V421.1z M188.7,428.3h7v7h-7V428.3z M195.9,384.8h7v7h-7V384.8z M195.9,392h7v7h-7V392z
	 M195.9,399.3h7v7h-7V399.3z M195.9,421.1h7v7h-7V421.1z M195.9,428.3h7v7h-7V428.3z M195.9,435.6h7v7h-7V435.6z M195.9,442.8h7v7
	h-7V442.8z M174.2,108.9h7v7h-7V108.9z M174.2,167h7v7h-7V167z M203.2,319.4h7v7h-7V319.4z M203.2,326.7h7v7h-7V326.7z M203.2,334h7
	v7h-7V334z M203.2,341.2h7v7h-7V341.2z M203.2,348.5h7v7h-7V348.5z M203.2,355.7h7v7h-7V355.7z M203.2,363h7v7h-7V363z M203.2,370.2
	h7v7h-7V370.2z M203.2,377.5h7v7h-7V377.5z M181.5,108.9h7v7h-7V108.9z M181.5,116.1h7v7h-7V116.1z M181.5,159.7h7v7h-7V159.7z
	 M181.5,167h7v7h-7V167z M210.5,312.2h7v7h-7V312.2z M210.5,319.4h7v7h-7V319.4z M210.5,334h7v7h-7V334z M210.5,348.5h7v7h-7V348.5z
	 M210.5,355.7h7v7h-7V355.7z M210.5,363h7v7h-7V363z M210.5,377.5h7v7h-7V377.5z M188.7,116.1h7v7h-7V116.1z M188.7,123.4h7v7h-7
	V123.4z M188.7,130.7h7v7h-7V130.7z M188.7,137.9h7v7h-7V137.9z M188.7,145.2h7v7h-7V145.2z M188.7,152.4h7v7h-7V152.4z
	 M188.7,159.7h7v7h-7V159.7z M217.7,304.9h7v7h-7V304.9z M217.7,312.2h7v7h-7V312.2z M217.7,326.7h7v7h-7V326.7z M217.7,341.2h7v7
	h-7V341.2z M217.7,355.7h7v7h-7V355.7z M217.7,363h7v7h-7V363z M217.7,370.2h7v7h-7V370.2z M217.7,377.5h7v7h-7V377.5z M196,123.4h7
	v7h-7V123.4z M196,130.7h7v7h-7V130.7z M196,137.9h7v7h-7V137.9z M196,145.2h7v7h-7V145.2z M196,152.4h7v7h-7V152.4z M225,297.6h7v7
	h-7V297.6z M225,304.9h7v7h-7V304.9z M225,319.4h7v7h-7V319.4z M225,334h7v7h-7V334z M225,348.5h7v7h-7V348.5z M225,363h7v7h-7V363z
	 M225,377.5h7v7h-7V377.5z M232.2,290.4h7v7h-7V290.4z M232.2,297.6h7v7h-7V297.6z M232.2,326.7h7v7h-7V326.7z M232.2,341.2h7v7h-7
	V341.2z M232.2,355.7h7v7h-7V355.7z M232.2,370.2h7v7h-7V370.2z M232.2,377.5h7v7h-7V377.5z M210.5,108.9h7v7h-7V108.9z
	 M210.5,116.1h7v7h-7V116.1z M210.5,123.4h7v7h-7V123.4z M210.5,130.7h7v7h-7V130.7z M210.5,137.9h7v7h-7V137.9z M210.5,145.2h7v7
	h-7V145.2z M210.5,152.4h7v7h-7V152.4z M210.5,159.7h7v7h-7V159.7z M210.5,167h7v7h-7V167z M239.5,239.6h7v7h-7V239.6z M239.5,246.8
	h7v7h-7V246.8z M239.5,254.1h7v7h-7V254.1z M239.5,261.4h7v7h-7V261.4z M239.5,268.6h7v7h-7V268.6z M239.5,290.4h7v7h-7V290.4z
	 M239.5,334h7v7h-7V334z M239.5,348.5h7v7h-7V348.5z M239.5,363h7v7h-7V363z M239.5,377.5h7v7h-7V377.5z M217.8,108.9h7v7h-7V108.9z
	 M217.8,116.1h7v7h-7V116.1z M217.8,123.4h7v7h-7V123.4z M217.8,130.7h7v7h-7V130.7z M217.8,137.9h7v7h-7V137.9z M217.8,145.2h7v7
	h-7V145.2z M217.8,152.4h7v7h-7V152.4z M217.8,159.7h7v7h-7V159.7z M217.8,167h7v7h-7V167z M246.8,239.6h7v7h-7V239.6z M246.8,246.8
	h7v7h-7V246.8z M246.8,261.4h7v7h-7V261.4z M246.8,268.6h7v7h-7V268.6z M246.8,275.9h7v7h-7V275.9z M246.8,290.4h7v7h-7V290.4z
	 M246.8,341.2h7v7h-7V341.2z M246.8,355.7h7v7h-7V355.7z M246.8,370.2h7v7h-7V370.2z M246.8,377.5h7v7h-7V377.5z M225,116.1h7v7h-7
	V116.1z M254,239.6h7v7h-7V239.6z M254,254.1h7v7h-7V254.1z M254,261.4h7v7h-7V261.4z M254,275.9h7v7h-7V275.9z M254,283.1h7v7h-7
	V283.1z M254,290.4h7v7h-7V290.4z M254,334h7v7h-7V334z M254,348.5h7v7h-7V348.5z M254,363h7v7h-7V363z M254,377.5h7v7h-7V377.5z
	 M261.3,239.6h7v7h-7V239.6z M261.3,246.8h7v7h-7V246.8z M261.3,261.4h7v7h-7V261.4z M261.3,268.6h7v7h-7V268.6z M261.3,283.1h7v7
	h-7V283.1z M261.3,290.4h7v7h-7V290.4z M261.3,304.9h7v7h-7V304.9z M261.3,341.2h7v7h-7V341.2z M261.3,355.7h7v7h-7V355.7z
	 M261.3,370.2h7v7h-7V370.2z M232.2,108.9h7v7h-7V108.9z M232.2,116.1h7v7h-7V116.1z M268.5,246.8h7v7h-7V246.8z M268.5,254.1h7v7
	h-7V254.1z M268.5,268.6h7v7h-7V268.6z M268.5,275.9h7v7h-7V275.9z M268.5,290.4h7v7h-7V290.4z M268.5,297.6h7v7h-7V297.6z
	 M268.5,304.9h7v7h-7V304.9z M268.5,312.2h7v7h-7V312.2z M268.5,319.4h7v7h-7V319.4z M268.5,348.5h7v7h-7V348.5z M268.5,363h7v7h-7
	V363z M268.5,377.5h7v7h-7V377.5z M203.2,384.8h7v7h-7V384.8z M203.2,399.3h7v7h-7V399.3z M203.2,406.6h7v7h-7V406.6z M203.2,413.8
	h7v7h-7V413.8z M203.2,421.1h7v7h-7V421.1z M203.2,428.3h7v7h-7V428.3z M203.2,435.6h7v7h-7V435.6z M203.2,442.8h7v7h-7V442.8z
	 M203.2,450.1h7v7h-7V450.1z M210.5,384.8h7v7h-7V384.8z M210.5,392h7v7h-7V392z M210.5,399.3h7v7h-7V399.3z M210.5,406.6h7v7h-7
	V406.6z M210.5,413.8h7v7h-7V413.8z M210.5,421.1h7v7h-7V421.1z M210.5,428.3h7v7h-7V428.3z M210.5,435.6h7v7h-7V435.6z
	 M210.5,442.8h7v7h-7V442.8z M210.5,450.1h7v7h-7V450.1z M217.7,392h7v7h-7V392z M217.7,399.3h7v7h-7V399.3z M217.7,413.8h7v7h-7
	V413.8z M217.7,421.1h7v7h-7V421.1z M217.7,428.3h7v7h-7V428.3z M217.7,435.6h7v7h-7V435.6z M217.7,442.8h7v7h-7V442.8z
	 M217.7,450.1h7v7h-7V450.1z M225,384.8h7v7h-7V384.8z M225,392h7v7h-7V392z M225,399.3h7v7h-7V399.3z M225,406.6h7v7h-7V406.6z
	 M225,413.8h7v7h-7V413.8z M225,421.1h7v7h-7V421.1z M225,442.8h7v7h-7V442.8z M225,450.1h7v7h-7V450.1z M232.2,384.8h7v7h-7V384.8z
	 M232.2,399.3h7v7h-7V399.3z M232.2,406.6h7v7h-7V406.6z M232.2,413.8h7v7h-7V413.8z M232.2,421.1h7v7h-7V421.1z M232.2,428.3h7v7
	h-7V428.3z M232.2,435.6h7v7h-7V435.6z M232.2,442.8h7v7h-7V442.8z M232.2,450.1h7v7h-7V450.1z M239.5,384.8h7v7h-7V384.8z
	 M239.5,392h7v7h-7V392z M239.5,399.3h7v7h-7V399.3z M239.5,413.8h7v7h-7V413.8z M239.5,421.1h7v7h-7V421.1z M239.5,428.3h7v7h-7
	V428.3z M239.5,435.6h7v7h-7V435.6z M239.5,442.8h7v7h-7V442.8z M239.5,450.1h7v7h-7V450.1z M246.8,384.8h7v7h-7V384.8z M246.8,392
	h7v7h-7V392z M246.8,399.3h7v7h-7V399.3z M246.8,406.6h7v7h-7V406.6z M246.8,413.8h7v7h-7V413.8z M246.8,421.1h7v7h-7V421.1z
	 M246.8,428.3h7v7h-7V428.3z M246.8,435.6h7v7h-7V435.6z M246.8,442.8h7v7h-7V442.8z M246.8,450.1h7v7h-7V450.1z M254,392h7v7h-7
	V392z M254,406.6h7v7h-7V406.6z M254,413.8h7v7h-7V413.8z M254,428.3h7v7h-7V428.3z M254,435.6h7v7h-7V435.6z M254,442.8h7v7h-7
	V442.8z M254,450.1h7v7h-7V450.1z M261.3,384.8h7v7h-7V384.8z M261.3,392h7v7h-7V392z M261.3,399.3h7v7h-7V399.3z M261.3,406.6h7v7
	h-7V406.6z M261.3,413.8h7v7h-7V413.8z M261.3,421.1h7v7h-7V421.1z M261.3,428.3h7v7h-7V428.3z M261.3,435.6h7v7h-7V435.6z
	 M261.3,442.8h7v7h-7V442.8z M261.3,450.1h7v7h-7V450.1z M268.5,392h7v7h-7V392z M268.5,399.3h7v7h-7V399.3z M268.5,413.8h7v7h-7
	V413.8z M268.5,421.1h7v7h-7V421.1z M268.5,428.3h7v7h-7V428.3z M268.5,442.8h7v7h-7V442.8z M268.5,450.1h7v7h-7V450.1z
	 M210.5,457.4h7v7h-7V457.4z M217.7,457.4h7v7h-7V457.4z M217.7,464.6h7v7h-7V464.6z M225,457.4h7v7h-7V457.4z M225,464.6h7v7h-7
	V464.6z M225,471.9h7v7h-7V471.9z M232.2,457.4h7v7h-7V457.4z M232.2,464.6h7v7h-7V464.6z M232.2,471.9h7v7h-7V471.9z M232.2,479.2
	h7v7h-7V479.2z M239.5,457.4h7v7h-7V457.4z M239.5,464.6h7v7h-7V464.6z M239.5,471.9h7v7h-7V471.9z M239.5,479.2h7v7h-7V479.2z
	 M239.5,486.4h7v7h-7V486.4z M246.8,457.4h7v7h-7V457.4z M246.8,464.6h7v7h-7V464.6z M246.8,471.9h7v7h-7V471.9z M246.8,479.2h7v7
	h-7V479.2z M246.8,486.4h7v7h-7V486.4z M246.8,493.7h7v7h-7V493.7z M254,457.4h7v7h-7V457.4z M254,464.6h7v7h-7V464.6z M254,471.9h7
	v7h-7V471.9z M254,479.2h7v7h-7V479.2z M254,486.4h7v7h-7V486.4z M254,493.7h7v7h-7V493.7z M261.3,457.4h7v7h-7V457.4z M261.3,464.6
	h7v7h-7V464.6z M261.3,471.9h7v7h-7V471.9z M261.3,479.2h7v7h-7V479.2z M261.3,486.4h7v7h-7V486.4z M261.3,493.7h7v7h-7V493.7z
	 M261.3,500.9h7v7h-7V500.9z M268.5,457.4h7v7h-7V457.4z M268.5,464.6h7v7h-7V464.6z M268.5,471.9h7v7h-7V471.9z M268.5,479.2h7v7
	h-7V479.2z M268.5,486.4h7v7h-7V486.4z M268.5,493.7h7v7h-7V493.7z M268.5,500.9h7v7h-7V500.9z M239.5,108.9h7v7h-7V108.9z
	 M239.5,116.1h7v7h-7V116.1z M275.8,254.1h7v7h-7V254.1z M275.8,261.4h7v7h-7V261.4z M275.8,275.9h7v7h-7V275.9z M275.8,283.1h7v7
	h-7V283.1z M275.8,290.4h7v7h-7V290.4z M275.8,297.6h7v7h-7V297.6z M275.8,312.2h7v7h-7V312.2z M275.8,319.4h7v7h-7V319.4z
	 M275.8,341.2h7v7h-7V341.2z M275.8,355.7h7v7h-7V355.7z M275.8,370.2h7v7h-7V370.2z M246.8,116.1h7v7h-7V116.1z M246.8,123.4h7v7
	h-7V123.4z M246.8,130.7h7v7h-7V130.7z M246.8,137.9h7v7h-7V137.9z M246.8,145.2h7v7h-7V145.2z M246.8,152.4h7v7h-7V152.4z
	 M246.8,159.7h7v7h-7V159.7z M246.8,167h7v7h-7V167z M283.1,254.1h7v7h-7V254.1z M283.1,261.4h7v7h-7V261.4z M283.1,275.9h7v7h-7
	V275.9z M283.1,283.1h7v7h-7V283.1z M283.1,290.4h7v7h-7V290.4z M283.1,297.6h7v7h-7V297.6z M283.1,304.9h7v7h-7V304.9z
	 M283.1,312.2h7v7h-7V312.2z M283.1,319.4h7v7h-7V319.4z M283.1,348.5h7v7h-7V348.5z M283.1,363h7v7h-7V363z M283.1,377.5h7v7h-7
	V377.5z M254,123.4h7v7h-7V123.4z M254,130.7h7v7h-7V130.7z M254,137.9h7v7h-7V137.9z M254,145.2h7v7h-7V145.2z M254,152.4h7v7h-7
	V152.4z M254,159.7h7v7h-7V159.7z M254,167h7v7h-7V167z M290.3,261.4h7v7h-7V261.4z M290.3,268.6h7v7h-7V268.6z M290.3,275.9h7v7h-7
	V275.9z M290.3,283.1h7v7h-7V283.1z M290.3,290.4h7v7h-7V290.4z M290.3,297.6h7v7h-7V297.6z M290.3,304.9h7v7h-7V304.9z
	 M290.3,312.2h7v7h-7V312.2z M290.3,319.4h7v7h-7V319.4z M290.3,341.2h7v7h-7V341.2z M290.3,355.7h7v7h-7V355.7z M290.3,370.2h7v7
	h-7V370.2z M297.6,268.6h7v7h-7V268.6z M297.6,275.9h7v7h-7V275.9z M297.6,283.1h7v7h-7V283.1z M297.6,290.4h7v7h-7V290.4z
	 M297.6,297.6h7v7h-7V297.6z M297.6,312.2h7v7h-7V312.2z M297.6,319.4h7v7h-7V319.4z M297.6,348.5h7v7h-7V348.5z M297.6,363h7v7h-7
	V363z M297.6,377.5h7v7h-7V377.5z M268.5,123.4h7v7h-7V123.4z M268.5,130.7h7v7h-7V130.7z M268.5,137.9h7v7h-7V137.9z M268.5,145.2
	h7v7h-7V145.2z M268.5,152.4h7v7h-7V152.4z M304.8,283.1h7v7h-7V283.1z M304.8,312.2h7v7h-7V312.2z M304.8,319.4h7v7h-7V319.4z
	 M304.8,341.2h7v7h-7V341.2z M304.8,355.7h7v7h-7V355.7z M304.8,370.2h7v7h-7V370.2z M275.8,116.1h7v7h-7V116.1z M275.8,123.4h7v7
	h-7V123.4z M275.8,130.7h7v7h-7V130.7z M275.8,137.9h7v7h-7V137.9z M275.8,145.2h7v7h-7V145.2z M275.8,152.4h7v7h-7V152.4z
	 M275.8,159.7h7v7h-7V159.7z M283.1,159.7h7v7h-7V159.7z M312.1,283.1h7v7h-7V283.1z M312.1,304.9h7v7h-7V304.9z M312.1,312.2h7v7
	h-7V312.2z M312.1,348.5h7v7h-7V348.5z M312.1,363h7v7h-7V363z M312.1,377.5h7v7h-7V377.5z M283.1,108.9h7v7h-7V108.9z M283.1,116.1
	h7v7h-7V116.1z M283.1,137.9h7v7h-7V137.9z M283.1,167h7v7h-7V167z M319.4,283.1h7v7h-7V283.1z M319.4,304.9h7v7h-7V304.9z
	 M319.4,341.2h7v7h-7V341.2z M319.4,355.7h7v7h-7V355.7z M319.4,370.2h7v7h-7V370.2z M290.3,108.9h7v7h-7V108.9z M290.3,116.1h7v7
	h-7V116.1z M290.3,137.9h7v7h-7V137.9z M290.3,167h7v7h-7V167z M326.6,283.1h7v7h-7V283.1z M326.6,334h7v7h-7V334z M326.6,348.5h7v7
	h-7V348.5z M333.9,348.5h7v7h-7V348.5z M326.6,363h7v7h-7V363z M333.9,363h7v7h-7V363z M326.6,377.5h7v7h-7V377.5z M333.9,377.5h7v7
	h-7V377.5z M297.6,108.9h7v7h-7V108.9z M297.6,116.1h7v7h-7V116.1z M297.6,137.9h7v7h-7V137.9z M297.6,167h7v7h-7V167z M333.9,283.1
	h7v7h-7V283.1z M333.9,290.4h7v7h-7V290.4z M333.9,326.7h7v7h-7V326.7z M333.9,341.2h7v7h-7V341.2z M341.2,341.2h7v7h-7V341.2z
	 M333.9,355.7h7v7h-7V355.7z M333.9,370.2h7v7h-7V370.2z M304.8,116.1h7v7h-7V116.1z M304.8,123.4h7v7h-7V123.4z M304.8,137.9h7v7
	h-7V137.9z M304.8,159.7h7v7h-7V159.7z M304.8,167h7v7h-7V167z M341.1,290.4h7v7h-7V290.4z M348.4,290.4h7v7h-7V290.4z M341.1,297.6
	h7v7h-7V297.6z M341.1,319.4h7v7h-7V319.4z M348.4,319.4h7v7h-7V319.4z M341.1,334h7v7h-7V334z M275.8,384.8h7v7h-7V384.8z
	 M275.8,392h7v7h-7V392z M275.8,399.3h7v7h-7V399.3z M275.8,406.6h7v7h-7V406.6z M275.8,413.8h7v7h-7V413.8z M275.8,428.3h7v7h-7
	V428.3z M275.8,435.6h7v7h-7V435.6z M275.8,442.8h7v7h-7V442.8z M283.1,392h7v7h-7V392z M283.1,399.3h7v7h-7V399.3z M283.1,406.6h7
	v7h-7V406.6z M283.1,413.8h7v7h-7V413.8z M283.1,421.1h7v7h-7V421.1z M283.1,428.3h7v7h-7V428.3z M283.1,435.6h7v7h-7V435.6z
	 M283.1,442.8h7v7h-7V442.8z M283.1,450.1h7v7h-7V450.1z M290.3,384.8h7v7h-7V384.8z M290.3,392h7v7h-7V392z M290.3,406.6h7v7h-7
	V406.6z M290.3,413.8h7v7h-7V413.8z M290.3,421.1h7v7h-7V421.1z M290.3,428.3h7v7h-7V428.3z M290.3,442.8h7v7h-7V442.8z M297.6,392
	h7v7h-7V392z M297.6,399.3h7v7h-7V399.3z M297.6,406.6h7v7h-7V406.6z M297.6,413.8h7v7h-7V413.8z M297.6,428.3h7v7h-7V428.3z
	 M297.6,435.6h7v7h-7V435.6z M297.6,442.8h7v7h-7V442.8z M297.6,450.1h7v7h-7V450.1z M304.8,384.8h7v7h-7V384.8z M304.8,392h7v7h-7
	V392z M304.8,399.3h7v7h-7V399.3z M304.8,406.6h7v7h-7V406.6z M304.8,413.8h7v7h-7V413.8z M304.8,421.1h7v7h-7V421.1z M304.8,428.3
	h7v7h-7V428.3z M304.8,435.6h7v7h-7V435.6z M304.8,442.8h7v7h-7V442.8z M312.1,392h7v7h-7V392z M312.1,399.3h7v7h-7V399.3z
	 M312.1,413.8h7v7h-7V413.8z M312.1,421.1h7v7h-7V421.1z M312.1,428.3h7v7h-7V428.3z M312.1,442.8h7v7h-7V442.8z M312.1,450.1h7v7
	h-7V450.1z M319.4,384.8h7v7h-7V384.8z M319.4,392h7v7h-7V392z M319.4,399.3h7v7h-7V399.3z M319.4,406.6h7v7h-7V406.6z M319.4,413.8
	h7v7h-7V413.8z M319.4,428.3h7v7h-7V428.3z M319.4,435.6h7v7h-7V435.6z M319.4,442.8h7v7h-7V442.8z M319.4,450.1h7v7h-7V450.1z
	 M326.6,384.8h7v7h-7V384.8z M326.6,399.3h7v7h-7V399.3z M326.6,406.6h7v7h-7V406.6z M326.6,413.8h7v7h-7V413.8z M326.6,421.1h7v7
	h-7V421.1z M326.6,428.3h7v7h-7V428.3z M326.6,435.6h7v7h-7V435.6z M326.6,450.1h7v7h-7V450.1z M333.9,384.8h7v7h-7V384.8z
	 M333.9,392h7v7h-7V392z M333.9,399.3h7v7h-7V399.3z M333.9,406.6h7v7h-7V406.6z M333.9,421.1h7v7h-7V421.1z M333.9,435.6h7v7h-7
	V435.6z M333.9,442.8h7v7h-7V442.8z M333.9,450.1h7v7h-7V450.1z M341.1,384.8h7v7h-7V384.8z M341.1,392h7v7h-7V392z M341.1,399.3h7
	v7h-7V399.3z M348.4,399.3h7v7h-7V399.3z M341.1,406.6h7v7h-7V406.6z M341.1,413.8h7v7h-7V413.8z M341.1,421.1h7v7h-7V421.1z
	 M341.1,428.3h7v7h-7V428.3z M341.1,435.6h7v7h-7V435.6z M341.1,442.8h7v7h-7V442.8z M341.1,450.1h7v7h-7V450.1z M275.8,457.4h7v7
	h-7V457.4z M275.8,464.6h7v7h-7V464.6z M275.8,471.9h7v7h-7V471.9z M275.8,479.2h7v7h-7V479.2z M275.8,486.4h7v7h-7V486.4z
	 M275.8,493.7h7v7h-7V493.7z M275.8,500.9h7v7h-7V500.9z M283.1,457.4h7v7h-7V457.4z M283.1,464.6h7v7h-7V464.6z M283.1,471.9h7v7
	h-7V471.9z M283.1,479.2h7v7h-7V479.2z M283.1,486.4h7v7h-7V486.4z M283.1,493.7h7v7h-7V493.7z M283.1,500.9h7v7h-7V500.9z
	 M283.1,508.2h7v7h-7V508.2z M290.3,457.4h7v7h-7V457.4z M290.3,464.6h7v7h-7V464.6z M290.3,471.9h7v7h-7V471.9z M290.3,479.2h7v7
	h-7V479.2z M290.3,486.4h7v7h-7V486.4z M290.3,493.7h7v7h-7V493.7z M290.3,500.9h7v7h-7V500.9z M290.3,508.2h7v7h-7V508.2z
	 M297.6,457.4h7v7h-7V457.4z M297.6,464.6h7v7h-7V464.6z M297.6,471.9h7v7h-7V471.9z M297.6,479.2h7v7h-7V479.2z M297.6,486.4h7v7
	h-7V486.4z M297.6,493.7h7v7h-7V493.7z M297.6,500.9h7v7h-7V500.9z M297.6,508.2h7v7h-7V508.2z M304.8,457.4h7v7h-7V457.4z
	 M304.8,464.6h7v7h-7V464.6z M304.8,471.9h7v7h-7V471.9z M304.8,479.2h7v7h-7V479.2z M304.8,486.4h7v7h-7V486.4z M304.8,493.7h7v7
	h-7V493.7z M304.8,500.9h7v7h-7V500.9z M304.8,508.2h7v7h-7V508.2z M304.8,515.4h7v7h-7V515.4z M312.1,457.4h7v7h-7V457.4z
	 M312.1,464.6h7v7h-7V464.6z M312.1,471.9h7v7h-7V471.9z M312.1,479.2h7v7h-7V479.2z M312.1,486.4h7v7h-7V486.4z M312.1,493.7h7v7
	h-7V493.7z M312.1,500.9h7v7h-7V500.9z M312.1,508.2h7v7h-7V508.2z M312.1,515.4h7v7h-7V515.4z M319.4,457.4h7v7h-7V457.4z
	 M319.4,464.6h7v7h-7V464.6z M319.4,471.9h7v7h-7V471.9z M319.4,479.2h7v7h-7V479.2z M319.4,486.4h7v7h-7V486.4z M319.4,493.7h7v7
	h-7V493.7z M319.4,500.9h7v7h-7V500.9z M319.4,508.2h7v7h-7V508.2z M319.4,515.4h7v7h-7V515.4z M319.4,522.7h7v7h-7V522.7z
	 M326.6,457.4h7v7h-7V457.4z M326.6,464.6h7v7h-7V464.6z M326.6,471.9h7v7h-7V471.9z M326.6,479.2h7v7h-7V479.2z M326.6,486.4h7v7
	h-7V486.4z M326.6,493.7h7v7h-7V493.7z M326.6,500.9h7v7h-7V500.9z M326.6,508.2h7v7h-7V508.2z M326.6,515.4h7v7h-7V515.4z
	 M326.6,522.7h7v7h-7V522.7z M333.9,457.4h7v7h-7V457.4z M333.9,464.6h7v7h-7V464.6z M333.9,471.9h7v7h-7V471.9z M333.9,479.2h7v7
	h-7V479.2z M333.9,486.4h7v7h-7V486.4z M333.9,493.7h7v7h-7V493.7z M333.9,500.9h7v7h-7V500.9z M333.9,508.2h7v7h-7V508.2z
	 M333.9,515.4h7v7h-7V515.4z M333.9,522.7h7v7h-7V522.7z M341.1,457.4h7v7h-7V457.4z M341.1,464.6h7v7h-7V464.6z M341.1,471.9h7v7
	h-7V471.9z M341.1,479.2h7v7h-7V479.2z M341.1,486.4h7v7h-7V486.4z M341.1,493.7h7v7h-7V493.7z M341.1,500.9h7v7h-7V500.9z
	 M341.1,508.2h7v7h-7V508.2z M341.1,515.4h7v7h-7V515.4z M341.1,522.7h7v7h-7V522.7z M326.6,530h7v7h-7V530z M333.9,530h7v7h-7V530z
	 M333.9,537.2h7v7h-7V537.2z M341.1,530h7v7h-7V530z M341.1,537.2h7v7h-7V537.2z M312.1,123.4h7v7h-7V123.4z M312.1,130.7h7v7h-7
	V130.7z M312.1,137.9h7v7h-7V137.9z M312.1,159.7h7v7h-7V159.7z M348.4,297.6h7v7h-7V297.6z M355.7,297.6h7v7h-7V297.6z
	 M348.4,304.9h7v7h-7V304.9z M348.4,312.2h7v7h-7V312.2z M348.4,326.7h7v7h-7V326.7z M355.7,304.9h7v7h-7V304.9z M355.7,312.2h7v7
	h-7V312.2z M362.9,304.9h7v7h-7V304.9z M406.5,261.4h7v7h-7V261.4z M406.5,268.6h7v7h-7V268.6z M406.5,275.9h7v7h-7V275.9z
	 M406.5,283.1h7v7h-7V283.1z M406.5,290.4h7v7h-7V290.4z M406.5,297.6h7v7h-7V297.6z M413.7,246.8h7v7h-7V246.8z M413.7,254.1h7v7
	h-7V254.1z M413.7,261.4h7v7h-7V261.4z M413.7,268.6h7v7h-7V268.6z M413.7,283.1h7v7h-7V283.1z M413.7,297.6h7v7h-7V297.6z
	 M413.7,304.9h7v7h-7V304.9z M413.7,312.2h7v7h-7V312.2z M348.4,406.6h7v7h-7V406.6z M348.4,413.8h7v7h-7V413.8z M348.4,428.3h7v7
	h-7V428.3z M348.4,435.6h7v7h-7V435.6z M348.4,442.8h7v7h-7V442.8z M348.4,450.1h7v7h-7V450.1z M355.7,406.6h7v7h-7V406.6z
	 M355.7,413.8h7v7h-7V413.8z M355.7,421.1h7v7h-7V421.1z M355.7,428.3h7v7h-7V428.3z M355.7,435.6h7v7h-7V435.6z M355.7,442.8h7v7
	h-7V442.8z M355.7,450.1h7v7h-7V450.1z M362.9,413.8h7v7h-7V413.8z M370.2,413.8h7v7h-7V413.8z M362.9,421.1h7v7h-7V421.1z
	 M370.2,421.1h7v7h-7V421.1z M362.9,428.3h7v7h-7V428.3z M362.9,435.6h7v7h-7V435.6z M362.9,442.8h7v7h-7V442.8z M362.9,450.1h7v7
	h-7V450.1z M370.2,428.3h7v7h-7V428.3z M370.2,435.6h7v7h-7V435.6z M370.2,442.8h7v7h-7V442.8z M370.2,450.1h7v7h-7V450.1z
	 M377.4,442.8h7v7h-7V442.8z M377.4,450.1h7v7h-7V450.1z M348.4,457.4h7v7h-7V457.4z M348.4,464.6h7v7h-7V464.6z M348.4,471.9h7v7
	h-7V471.9z M348.4,479.2h7v7h-7V479.2z M348.4,486.4h7v7h-7V486.4z M348.4,493.7h7v7h-7V493.7z M348.4,500.9h7v7h-7V500.9z
	 M348.4,508.2h7v7h-7V508.2z M348.4,515.4h7v7h-7V515.4z M348.4,522.7h7v7h-7V522.7z M355.7,457.4h7v7h-7V457.4z M355.7,464.6h7v7
	h-7V464.6z M355.7,471.9h7v7h-7V471.9z M355.7,479.2h7v7h-7V479.2z M355.7,486.4h7v7h-7V486.4z M355.7,493.7h7v7h-7V493.7z
	 M355.7,500.9h7v7h-7V500.9z M355.7,508.2h7v7h-7V508.2z M355.7,515.4h7v7h-7V515.4z M355.7,522.7h7v7h-7V522.7z M362.9,457.4h7v7
	h-7V457.4z M362.9,464.6h7v7h-7V464.6z M362.9,471.9h7v7h-7V471.9z M362.9,479.2h7v7h-7V479.2z M362.9,486.4h7v7h-7V486.4z
	 M362.9,493.7h7v7h-7V493.7z M362.9,500.9h7v7h-7V500.9z M362.9,508.2h7v7h-7V508.2z M362.9,515.4h7v7h-7V515.4z M362.9,522.7h7v7
	h-7V522.7z M370.2,457.4h7v7h-7V457.4z M370.2,464.6h7v7h-7V464.6z M370.2,471.9h7v7h-7V471.9z M370.2,479.2h7v7h-7V479.2z
	 M370.2,486.4h7v7h-7V486.4z M370.2,493.7h7v7h-7V493.7z M370.2,500.9h7v7h-7V500.9z M370.2,508.2h7v7h-7V508.2z M370.2,515.4h7v7
	h-7V515.4z M370.2,522.7h7v7h-7V522.7z M377.4,457.4h7v7h-7V457.4z M377.4,464.6h7v7h-7V464.6z M377.4,471.9h7v7h-7V471.9z
	 M377.4,479.2h7v7h-7V479.2z M377.4,486.4h7v7h-7V486.4z M377.4,493.7h7v7h-7V493.7z M377.4,500.9h7v7h-7V500.9z M377.4,508.2h7v7
	h-7V508.2z M377.4,515.4h7v7h-7V515.4z M377.4,522.7h7v7h-7V522.7z M384.7,464.6h7v7h-7V464.6z M384.7,471.9h7v7h-7V471.9z
	 M384.7,479.2h7v7h-7V479.2z M384.7,486.4h7v7h-7V486.4z M384.7,493.7h7v7h-7V493.7z M384.7,500.9h7v7h-7V500.9z M384.7,508.2h7v7
	h-7V508.2z M384.7,515.4h7v7h-7V515.4z M384.7,522.7h7v7h-7V522.7z M392,471.9h7v7h-7V471.9z M392,479.2h7v7h-7V479.2z M392,486.4h7
	v7h-7V486.4z M392,493.7h7v7h-7V493.7z M392,500.9h7v7h-7V500.9z M392,508.2h7v7h-7V508.2z M392,515.4h7v7h-7V515.4z M392,522.7h7v7
	h-7V522.7z M399.2,479.2h7v7h-7V479.2z M399.2,486.4h7v7h-7V486.4z M399.2,493.7h7v7h-7V493.7z M399.2,500.9h7v7h-7V500.9z
	 M399.2,508.2h7v7h-7V508.2z M399.2,515.4h7v7h-7V515.4z M399.2,522.7h7v7h-7V522.7z M406.5,486.4h7v7h-7V486.4z M406.5,493.7h7v7
	h-7V493.7z M406.5,500.9h7v7h-7V500.9z M406.5,508.2h7v7h-7V508.2z M406.5,515.4h7v7h-7V515.4z M406.5,522.7h7v7h-7V522.7z
	 M413.7,493.7h7v7h-7V493.7z M413.7,500.9h7v7h-7V500.9z M413.7,508.2h7v7h-7V508.2z M413.7,515.4h7v7h-7V515.4z M413.7,522.7h7v7
	h-7V522.7z M348.4,530h7v7h-7V530z M348.4,537.2h7v7h-7V537.2z M348.4,544.5h7v7h-7V544.5z M348.4,551.8h7v7h-7V551.8z M355.7,530h7
	v7h-7V530z M355.7,537.2h7v7h-7V537.2z M355.7,544.5h7v7h-7V544.5z M355.7,551.8h7v7h-7V551.8z M355.7,559h7v7h-7V559z M362.9,530h7
	v7h-7V530z M362.9,537.2h7v7h-7V537.2z M362.9,544.5h7v7h-7V544.5z M362.9,551.8h7v7h-7V551.8z M362.9,559h7v7h-7V559z M362.9,566.3
	h7v7h-7V566.3z M370.2,530h7v7h-7V530z M370.2,537.2h7v7h-7V537.2z M370.2,544.5h7v7h-7V544.5z M370.2,551.8h7v7h-7V551.8z
	 M370.2,559h7v7h-7V559z M370.2,566.3h7v7h-7V566.3z M370.2,573.5h7v7h-7V573.5z M377.4,530h7v7h-7V530z M377.4,537.2h7v7h-7V537.2z
	 M377.4,544.5h7v7h-7V544.5z M377.4,551.8h7v7h-7V551.8z M377.4,559h7v7h-7V559z M377.4,566.3h7v7h-7V566.3z M377.4,573.5h7v7h-7
	V573.5z M384.7,530h7v7h-7V530z M384.7,537.2h7v7h-7V537.2z M384.7,544.5h7v7h-7V544.5z M384.7,551.8h7v7h-7V551.8z M384.7,559h7v7
	h-7V559z M384.7,566.3h7v7h-7V566.3z M384.7,573.5h7v7h-7V573.5z M384.7,580.8h7v7h-7V580.8z M392,530h7v7h-7V530z M392,537.2h7v7
	h-7V537.2z M392,544.5h7v7h-7V544.5z M392,551.8h7v7h-7V551.8z M392,559h7v7h-7V559z M392,566.3h7v7h-7V566.3z M392,573.5h7v7h-7
	V573.5z M392,580.8h7v7h-7V580.8z M399.2,530h7v7h-7V530z M399.2,537.2h7v7h-7V537.2z M399.2,544.5h7v7h-7V544.5z M399.2,551.8h7v7
	h-7V551.8z M399.2,559h7v7h-7V559z M399.2,566.3h7v7h-7V566.3z M399.2,573.5h7v7h-7V573.5z M399.2,580.8h7v7h-7V580.8z M406.5,530h7
	v7h-7V530z M406.5,537.2h7v7h-7V537.2z M406.5,544.5h7v7h-7V544.5z M406.5,551.8h7v7h-7V551.8z M406.5,559h7v7h-7V559z M406.5,566.3
	h7v7h-7V566.3z M406.5,573.5h7v7h-7V573.5z M406.5,580.8h7v7h-7V580.8z M413.7,530h7v7h-7V530z M413.7,537.2h7v7h-7V537.2z
	 M413.7,544.5h7v7h-7V544.5z M413.7,551.8h7v7h-7V551.8z M413.7,559h7v7h-7V559z M413.7,566.3h7v7h-7V566.3z M413.7,573.5h7v7h-7
	V573.5z M413.7,580.8h7v7h-7V580.8z M421,239.6h7v7h-7V239.6z M421,246.8h7v7h-7V246.8z M421,261.4h7v7h-7V261.4z M421,268.6h7v7h-7
	V268.6z M421,275.9h7v7h-7V275.9z M421,283.1h7v7h-7V283.1z M421,290.4h7v7h-7V290.4z M421,304.9h7v7h-7V304.9z M421,319.4h7v7h-7
	V319.4z M428.3,72.6h7v7h-7V72.6z M428.3,79.9h7v7h-7V79.9z M428.3,87.1h7v7h-7V87.1z M428.3,94.4h7v7h-7V94.4z M428.3,101.6h7v7h-7
	V101.6z M428.3,108.9h7v7h-7V108.9z M428.3,116.1h7v7h-7V116.1z M428.3,123.4h7v7h-7V123.4z M428.3,239.6h7v7h-7V239.6z
	 M428.3,246.8h7v7h-7V246.8z M428.3,268.6h7v7h-7V268.6z M428.3,275.9h7v7h-7V275.9z M428.3,283.1h7v7h-7V283.1z M428.3,290.4h7v7
	h-7V290.4z M428.3,297.6h7v7h-7V297.6z M428.3,312.2h7v7h-7V312.2z M428.3,326.7h7v7h-7V326.7z M435.5,50.8h7v7h-7V50.8z
	 M435.5,58.1h7v7h-7V58.1z M435.5,65.3h7v7h-7V65.3z M435.5,72.6h7v7h-7V72.6z M435.5,123.4h7v7h-7V123.4z M435.5,130.7h7v7h-7
	V130.7z M435.5,232.3h7v7h-7V232.3z M435.5,239.6h7v7h-7V239.6z M435.5,246.8h7v7h-7V246.8z M435.5,254.1h7v7h-7V254.1z
	 M435.5,261.4h7v7h-7V261.4z M435.5,275.9h7v7h-7V275.9z M435.5,283.1h7v7h-7V283.1z M435.5,290.4h7v7h-7V290.4z M435.5,297.6h7v7
	h-7V297.6z M435.5,304.9h7v7h-7V304.9z M435.5,319.4h7v7h-7V319.4z M435.5,334h7v7h-7V334z M442.8,58.1h7v7h-7V58.1z M442.8,72.6h7
	v7h-7V72.6z M442.8,79.9h7v7h-7V79.9z M442.8,87.1h7v7h-7V87.1z M442.8,94.4h7v7h-7V94.4z M442.8,101.6h7v7h-7V101.6z M442.8,108.9
	h7v7h-7V108.9z M442.8,116.1h7v7h-7V116.1z M442.8,130.7h7v7h-7V130.7z M442.8,137.9h7v7h-7V137.9z M442.8,225h7v7h-7V225z
	 M442.8,246.8h7v7h-7V246.8z M442.8,254.1h7v7h-7V254.1z M442.8,261.4h7v7h-7V261.4z M442.8,268.6h7v7h-7V268.6z M442.8,283.1h7v7
	h-7V283.1z M442.8,290.4h7v7h-7V290.4z M442.8,297.6h7v7h-7V297.6z M442.8,304.9h7v7h-7V304.9z M442.8,312.2h7v7h-7V312.2z
	 M442.8,326.7h7v7h-7V326.7z M442.8,341.2h7v7h-7V341.2z M450.1,341.2h7v7h-7V341.2z M450,65.3h7v7h-7V65.3z M450,79.9h7v7h-7V79.9z
	 M450,87.1h7v7h-7V87.1z M450,94.4h7v7h-7V94.4z M450,101.6h7v7h-7V101.6z M450,108.9h7v7h-7V108.9z M450,116.1h7v7h-7V116.1z
	 M450,123.4h7v7h-7V123.4z M450,137.9h7v7h-7V137.9z M450,145.2h7v7h-7V145.2z M450,217.8h7v7h-7V217.8z M450,225h7v7h-7V225z
	 M450,246.8h7v7h-7V246.8z M450,254.1h7v7h-7V254.1z M450,261.4h7v7h-7V261.4z M450,275.9h7v7h-7V275.9z M450,290.4h7v7h-7V290.4z
	 M450,297.6h7v7h-7V297.6z M450,304.9h7v7h-7V304.9z M450,312.2h7v7h-7V312.2z M450,319.4h7v7h-7V319.4z M450,334h7v7h-7V334z
	 M457.3,72.6h7v7h-7V72.6z M457.3,79.9h7v7h-7V79.9z M457.3,87.1h7v7h-7V87.1z M457.3,94.4h7v7h-7V94.4z M457.3,101.6h7v7h-7V101.6z
	 M457.3,108.9h7v7h-7V108.9z M457.3,116.1h7v7h-7V116.1z M457.3,123.4h7v7h-7V123.4z M457.3,130.7h7v7h-7V130.7z M457.3,152.4h7v7
	h-7V152.4z M457.3,217.8h7v7h-7V217.8z M457.3,246.8h7v7h-7V246.8z M457.3,254.1h7v7h-7V254.1z M457.3,261.4h7v7h-7V261.4z
	 M457.3,268.6h7v7h-7V268.6z M457.3,283.1h7v7h-7V283.1z M457.3,297.6h7v7h-7V297.6z M457.3,304.9h7v7h-7V304.9z M457.3,312.2h7v7
	h-7V312.2z M457.3,326.7h7v7h-7V326.7z M457.3,341.2h7v7h-7V341.2z M457.3,348.5h7v7h-7V348.5z M464.6,79.9h7v7h-7V79.9z
	 M464.6,87.1h7v7h-7V87.1z M464.6,94.4h7v7h-7V94.4z M464.6,101.6h7v7h-7V101.6z M464.6,108.9h7v7h-7V108.9z M464.6,116.1h7v7h-7
	V116.1z M464.6,123.4h7v7h-7V123.4z M464.6,130.7h7v7h-7V130.7z M464.6,137.9h7v7h-7V137.9z M464.6,152.4h7v7h-7V152.4z
	 M464.6,159.7h7v7h-7V159.7z M464.6,210.5h7v7h-7V210.5z M464.6,217.8h7v7h-7V217.8z M464.6,246.8h7v7h-7V246.8z M464.6,254.1h7v7
	h-7V254.1z M464.6,261.4h7v7h-7V261.4z M464.6,275.9h7v7h-7V275.9z M464.6,290.4h7v7h-7V290.4z M464.6,297.6h7v7h-7V297.6z
	 M464.6,304.9h7v7h-7V304.9z M464.6,312.2h7v7h-7V312.2z M464.6,319.4h7v7h-7V319.4z M464.6,334h7v7h-7V334z M464.6,348.5h7v7h-7
	V348.5z M471.9,348.5h7v7h-7V348.5z M471.8,87.1h7v7h-7V87.1z M471.8,94.4h7v7h-7V94.4z M471.8,101.6h7v7h-7V101.6z M471.8,108.9h7
	v7h-7V108.9z M471.8,116.1h7v7h-7V116.1z M471.8,123.4h7v7h-7V123.4z M471.8,130.7h7v7h-7V130.7z M471.8,137.9h7v7h-7V137.9z
	 M471.8,145.2h7v7h-7V145.2z M471.8,152.4h7v7h-7V152.4z M471.8,159.7h7v7h-7V159.7z M471.8,203.3h7v7h-7V203.3z M471.8,210.5h7v7
	h-7V210.5z M471.8,246.8h7v7h-7V246.8z M471.8,254.1h7v7h-7V254.1z M471.8,261.4h7v7h-7V261.4z M471.8,283.1h7v7h-7V283.1z
	 M471.8,297.6h7v7h-7V297.6z M471.8,304.9h7v7h-7V304.9z M471.8,312.2h7v7h-7V312.2z M471.8,319.4h7v7h-7V319.4z M471.8,326.7h7v7
	h-7V326.7z M471.8,341.2h7v7h-7V341.2z M479.1,94.4h7v7h-7V94.4z M479.1,101.6h7v7h-7V101.6z M479.1,108.9h7v7h-7V108.9z
	 M479.1,116.1h7v7h-7V116.1z M479.1,123.4h7v7h-7V123.4z M479.1,130.7h7v7h-7V130.7z M479.1,137.9h7v7h-7V137.9z M479.1,145.2h7v7
	h-7V145.2z M479.1,159.7h7v7h-7V159.7z M479.1,196h7v7h-7V196z M479.1,203.3h7v7h-7V203.3z M479.1,254.1h7v7h-7V254.1z M479.1,290.4
	h7v7h-7V290.4z M479.1,304.9h7v7h-7V304.9z M479.1,312.2h7v7h-7V312.2z M479.1,319.4h7v7h-7V319.4z M479.1,348.5h7v7h-7V348.5z
	 M479.1,355.7h7v7h-7V355.7z M486.3,101.6h7v7h-7V101.6z M486.3,108.9h7v7h-7V108.9z M486.3,116.1h7v7h-7V116.1z M486.3,123.4h7v7
	h-7V123.4z M486.3,130.7h7v7h-7V130.7z M486.3,137.9h7v7h-7V137.9z M486.3,145.2h7v7h-7V145.2z M486.3,152.4h7v7h-7V152.4z
	 M486.3,159.7h7v7h-7V159.7z M486.3,167h7v7h-7V167z M486.3,174.2h7v7h-7V174.2z M486.3,188.8h7v7h-7V188.8z M486.3,196h7v7h-7V196z
	 M486.3,297.6h7v7h-7V297.6z M486.3,304.9h7v7h-7V304.9z M486.3,312.2h7v7h-7V312.2z M486.3,319.4h7v7h-7V319.4z M486.3,341.2h7v7
	h-7V341.2z M486.3,355.7h7v7h-7V355.7z M421,500.9h7v7h-7V500.9z M421,508.2h7v7h-7V508.2z M421,515.4h7v7h-7V515.4z M421,522.7h7v7
	h-7V522.7z M428.3,515.4h7v7h-7V515.4z M428.3,522.7h7v7h-7V522.7z M435.5,522.7h7v7h-7V522.7z M421,530h7v7h-7V530z M421,537.2h7v7
	h-7V537.2z M421,544.5h7v7h-7V544.5z M421,551.8h7v7h-7V551.8z M421,559h7v7h-7V559z M421,566.3h7v7h-7V566.3z M421,573.5h7v7h-7
	V573.5z M421,580.8h7v7h-7V580.8z M428.3,530h7v7h-7V530z M428.3,537.2h7v7h-7V537.2z M428.3,544.5h7v7h-7V544.5z M428.3,551.8h7v7
	h-7V551.8z M428.3,559h7v7h-7V559z M428.3,566.3h7v7h-7V566.3z M428.3,573.5h7v7h-7V573.5z M428.3,580.8h7v7h-7V580.8z M435.5,530h7
	v7h-7V530z M435.5,537.2h7v7h-7V537.2z M435.5,544.5h7v7h-7V544.5z M435.5,551.8h7v7h-7V551.8z M435.5,559h7v7h-7V559z M435.5,566.3
	h7v7h-7V566.3z M435.5,573.5h7v7h-7V573.5z M435.5,580.8h7v7h-7V580.8z M442.8,530h7v7h-7V530z M442.8,537.2h7v7h-7V537.2z
	 M442.8,544.5h7v7h-7V544.5z M442.8,551.8h7v7h-7V551.8z M442.8,559h7v7h-7V559z M442.8,566.3h7v7h-7V566.3z M442.8,573.5h7v7h-7
	V573.5z M442.8,580.8h7v7h-7V580.8z M450,537.2h7v7h-7V537.2z M450,544.5h7v7h-7V544.5z M450,551.8h7v7h-7V551.8z M450,559h7v7h-7
	V559z M450,566.3h7v7h-7V566.3z M450,573.5h7v7h-7V573.5z M450,580.8h7v7h-7V580.8z M457.3,544.5h7v7h-7V544.5z M457.3,551.8h7v7h-7
	V551.8z M457.3,559h7v7h-7V559z M457.3,566.3h7v7h-7V566.3z M457.3,573.5h7v7h-7V573.5z M457.3,580.8h7v7h-7V580.8z M464.6,544.5h7
	v7h-7V544.5z M464.6,551.8h7v7h-7V551.8z M464.6,559h7v7h-7V559z M464.6,566.3h7v7h-7V566.3z M464.6,573.5h7v7h-7V573.5z
	 M464.6,580.8h7v7h-7V580.8z M471.8,551.8h7v7h-7V551.8z M471.8,559h7v7h-7V559z M471.8,566.3h7v7h-7V566.3z M471.8,573.5h7v7h-7
	V573.5z M471.8,580.8h7v7h-7V580.8z M479.1,559h7v7h-7V559z M479.1,566.3h7v7h-7V566.3z M479.1,573.5h7v7h-7V573.5z M479.1,580.8h7
	v7h-7V580.8z M486.3,566.3h7v7h-7V566.3z M486.3,573.5h7v7h-7V573.5z M486.3,580.8h7v7h-7V580.8z M493.6,101.6h7v7h-7V101.6z
	 M493.6,108.9h7v7h-7V108.9z M493.6,116.1h7v7h-7V116.1z M493.6,123.4h7v7h-7V123.4z M493.6,130.7h7v7h-7V130.7z M493.6,137.9h7v7
	h-7V137.9z M493.6,145.2h7v7h-7V145.2z M493.6,152.4h7v7h-7V152.4z M493.6,167h7v7h-7V167z M493.6,174.2h7v7h-7V174.2z M493.6,181.5
	h7v7h-7V181.5z M493.6,188.8h7v7h-7V188.8z M493.6,304.9h7v7h-7V304.9z M493.6,312.2h7v7h-7V312.2z M493.6,334h7v7h-7V334z
	 M493.6,348.5h7v7h-7V348.5z M493.6,355.7h7v7h-7V355.7z M500.9,123.4h7v7h-7V123.4z M500.9,130.7h7v7h-7V130.7z M500.9,137.9h7v7
	h-7V137.9z M500.9,145.2h7v7h-7V145.2z M500.9,152.4h7v7h-7V152.4z M500.9,159.7h7v7h-7V159.7z M500.9,181.5h7v7h-7V181.5z
	 M500.9,188.8h7v7h-7V188.8z M500.9,304.9h7v7h-7V304.9z M500.9,312.2h7v7h-7V312.2z M500.9,341.2h7v7h-7V341.2z M500.9,348.5h7v7
	h-7V348.5z M500.9,355.7h7v7h-7V355.7z M508.1,116.1h7v7h-7V116.1z M508.1,123.4h7v7h-7V123.4z M508.1,174.2h7v7h-7V174.2z
	 M508.1,181.5h7v7h-7V181.5z M508.1,304.9h7v7h-7V304.9z M508.1,312.2h7v7h-7V312.2z M508.1,334h7v7h-7V334z M508.1,348.5h7v7h-7
	V348.5z M508.1,355.7h7v7h-7V355.7z M508.1,363h7v7h-7V363z M515.4,123.4h7v7h-7V123.4z M515.4,167h7v7h-7V167z M515.4,174.2h7v7h-7
	V174.2z M515.4,246.8h7v7h-7V246.8z M515.4,254.1h7v7h-7V254.1z M515.4,304.9h7v7h-7V304.9z M515.4,326.7h7v7h-7V326.7z
	 M515.4,341.2h7v7h-7V341.2z M515.4,348.5h7v7h-7V348.5z M515.4,355.7h7v7h-7V355.7z M515.4,363h7v7h-7V363z M515.4,370.2h7v7h-7
	V370.2z M515.4,377.5h7v7h-7V377.5z M522.6,123.4h7v7h-7V123.4z M522.6,145.2h7v7h-7V145.2z M522.6,152.4h7v7h-7V152.4z
	 M522.6,159.7h7v7h-7V159.7z M522.6,225h7v7h-7V225z M522.6,232.3h7v7h-7V232.3z M522.6,239.6h7v7h-7V239.6z M522.6,246.8h7v7h-7
	V246.8z M522.6,254.1h7v7h-7V254.1z M522.6,261.4h7v7h-7V261.4z M522.6,268.6h7v7h-7V268.6z M522.6,334h7v7h-7V334z M522.6,341.2h7
	v7h-7V341.2z M522.6,348.5h7v7h-7V348.5z M522.6,355.7h7v7h-7V355.7z M522.6,363h7v7h-7V363z M522.6,370.2h7v7h-7V370.2z
	 M522.6,377.5h7v7h-7V377.5z M529.9,116.1h7v7h-7V116.1z M529.9,123.4h7v7h-7V123.4z M529.9,130.7h7v7h-7V130.7z M529.9,137.9h7v7
	h-7V137.9z M529.9,145.2h7v7h-7V145.2z M529.9,225h7v7h-7V225z M529.9,232.3h7v7h-7V232.3z M529.9,239.6h7v7h-7V239.6z M529.9,246.8
	h7v7h-7V246.8z M529.9,254.1h7v7h-7V254.1z M529.9,261.4h7v7h-7V261.4z M529.9,268.6h7v7h-7V268.6z M529.9,326.7h7v7h-7V326.7z
	 M529.9,334h7v7h-7V334z M529.9,341.2h7v7h-7V341.2z M529.9,348.5h7v7h-7V348.5z M529.9,355.7h7v7h-7V355.7z M529.9,363h7v7h-7V363z
	 M529.9,370.2h7v7h-7V370.2z M529.9,377.5h7v7h-7V377.5z M537.2,108.9h7v7h-7V108.9z M537.2,116.1h7v7h-7V116.1z M537.2,123.4h7v7
	h-7V123.4z M537.2,196h7v7h-7V196z M537.2,217.8h7v7h-7V217.8z M537.2,225h7v7h-7V225z M537.2,232.3h7v7h-7V232.3z M537.2,239.6h7v7
	h-7V239.6z M537.2,246.8h7v7h-7V246.8z M537.2,254.1h7v7h-7V254.1z M537.2,261.4h7v7h-7V261.4z M537.2,319.4h7v7h-7V319.4z
	 M537.2,326.7h7v7h-7V326.7z M537.2,334h7v7h-7V334z M537.2,341.2h7v7h-7V341.2z M537.2,348.5h7v7h-7V348.5z M537.2,355.7h7v7h-7
	V355.7z M537.2,363h7v7h-7V363z M537.2,370.2h7v7h-7V370.2z M537.2,377.5h7v7h-7V377.5z M544.4,108.9h7v7h-7V108.9z M544.4,116.1h7
	v7h-7V116.1z M544.4,196h7v7h-7V196z M544.4,217.8h7v7h-7V217.8z M544.4,225h7v7h-7V225z M544.4,232.3h7v7h-7V232.3z M544.4,239.6h7
	v7h-7V239.6z M544.4,246.8h7v7h-7V246.8z M544.4,254.1h7v7h-7V254.1z M544.4,261.4h7v7h-7V261.4z M544.4,268.6h7v7h-7V268.6z
	 M544.4,319.4h7v7h-7V319.4z M544.4,326.7h7v7h-7V326.7z M544.4,334h7v7h-7V334z M544.4,341.2h7v7h-7V341.2z M544.4,348.5h7v7h-7
	V348.5z M544.4,355.7h7v7h-7V355.7z M544.4,363h7v7h-7V363z M544.4,370.2h7v7h-7V370.2z M544.4,377.5h7v7h-7V377.5z M551.7,101.6h7
	v7h-7V101.6z M551.7,108.9h7v7h-7V108.9z M551.7,196h7v7h-7V196z M551.7,203.3h7v7h-7V203.3z M551.7,210.5h7v7h-7V210.5z
	 M551.7,217.8h7v7h-7V217.8z M551.7,225h7v7h-7V225z M551.7,232.3h7v7h-7V232.3z M551.7,239.6h7v7h-7V239.6z M551.7,246.8h7v7h-7
	V246.8z M551.7,254.1h7v7h-7V254.1z M551.7,304.9h7v7h-7V304.9z M551.7,312.2h7v7h-7V312.2z M551.7,319.4h7v7h-7V319.4z
	 M551.7,326.7h7v7h-7V326.7z M551.7,334h7v7h-7V334z M551.7,341.2h7v7h-7V341.2z M551.7,348.5h7v7h-7V348.5z M551.7,355.7h7v7h-7
	V355.7z M551.7,363h7v7h-7V363z M551.7,370.2h7v7h-7V370.2z M551.7,377.5h7v7h-7V377.5z M558.9,94.4h7v7h-7V94.4z M558.9,101.6h7v7
	h-7V101.6z M558.9,196h7v7h-7V196z M558.9,203.3h7v7h-7V203.3z M558.9,210.5h7v7h-7V210.5z M558.9,217.8h7v7h-7V217.8z M558.9,225h7
	v7h-7V225z M558.9,232.3h7v7h-7V232.3z M558.9,239.6h7v7h-7V239.6z M558.9,246.8h7v7h-7V246.8z M558.9,290.4h7v7h-7V290.4z
	 M558.9,297.6h7v7h-7V297.6z M558.9,304.9h7v7h-7V304.9z M558.9,312.2h7v7h-7V312.2z M558.9,319.4h7v7h-7V319.4z M558.9,326.7h7v7
	h-7V326.7z M558.9,334h7v7h-7V334z M558.9,341.2h7v7h-7V341.2z M558.9,348.5h7v7h-7V348.5z M558.9,355.7h7v7h-7V355.7z M558.9,363h7
	v7h-7V363z M558.9,370.2h7v7h-7V370.2z M558.9,377.5h7v7h-7V377.5z M508.1,435.6h7v7h-7V435.6z M515.4,428.3h7v7h-7V428.3z
	 M522.6,384.8h7v7h-7V384.8z M522.6,392h7v7h-7V392z M522.6,399.3h7v7h-7V399.3z M522.6,406.6h7v7h-7V406.6z M522.6,413.8h7v7h-7
	V413.8z M522.6,421.1h7v7h-7V421.1z M529.9,384.8h7v7h-7V384.8z M529.9,392h7v7h-7V392z M529.9,399.3h7v7h-7V399.3z M529.9,406.6h7
	v7h-7V406.6z M529.9,413.8h7v7h-7V413.8z M529.9,421.1h7v7h-7V421.1z M529.9,428.3h7v7h-7V428.3z M529.9,435.6h7v7h-7V435.6z
	 M529.9,450.1h7v7h-7V450.1z M537.2,384.8h7v7h-7V384.8z M537.2,392h7v7h-7V392z M537.2,399.3h7v7h-7V399.3z M537.2,406.6h7v7h-7
	V406.6z M537.2,413.8h7v7h-7V413.8z M537.2,421.1h7v7h-7V421.1z M537.2,428.3h7v7h-7V428.3z M537.2,442.8h7v7h-7V442.8z
	 M544.4,384.8h7v7h-7V384.8z M544.4,392h7v7h-7V392z M544.4,399.3h7v7h-7V399.3z M544.4,406.6h7v7h-7V406.6z M544.4,413.8h7v7h-7
	V413.8z M544.4,421.1h7v7h-7V421.1z M544.4,428.3h7v7h-7V428.3z M544.4,435.6h7v7h-7V435.6z M551.7,384.8h7v7h-7V384.8z M551.7,392
	h7v7h-7V392z M551.7,399.3h7v7h-7V399.3z M551.7,406.6h7v7h-7V406.6z M551.7,413.8h7v7h-7V413.8z M551.7,421.1h7v7h-7V421.1z
	 M551.7,428.3h7v7h-7V428.3z M558.9,384.8h7v7h-7V384.8z M558.9,406.6h7v7h-7V406.6z M522.6,457.4h7v7h-7V457.4z M493.6,573.5h7v7
	h-7V573.5z M493.6,580.8h7v7h-7V580.8z M500.9,580.8h7v7h-7V580.8z M566.2,72.6h7v7h-7V72.6z M566.2,79.9h7v7h-7V79.9z M566.2,87.1
	h7v7h-7V87.1z M566.2,94.4h7v7h-7V94.4z M566.2,101.6h7v7h-7V101.6z M566.2,174.2h7v7h-7V174.2z M566.2,181.5h7v7h-7V181.5z
	 M566.2,188.8h7v7h-7V188.8z M566.2,196h7v7h-7V196z M566.2,203.3h7v7h-7V203.3z M566.2,210.5h7v7h-7V210.5z M566.2,217.8h7v7h-7
	V217.8z M566.2,225h7v7h-7V225z M566.2,232.3h7v7h-7V232.3z M566.2,283.1h7v7h-7V283.1z M566.2,290.4h7v7h-7V290.4z M566.2,297.6h7
	v7h-7V297.6z M566.2,304.9h7v7h-7V304.9z M566.2,312.2h7v7h-7V312.2z M566.2,319.4h7v7h-7V319.4z M566.2,326.7h7v7h-7V326.7z
	 M566.2,334h7v7h-7V334z M566.2,341.2h7v7h-7V341.2z M566.2,348.5h7v7h-7V348.5z M566.2,355.7h7v7h-7V355.7z M566.2,363h7v7h-7V363z
	 M566.2,370.2h7v7h-7V370.2z M566.2,377.5h7v7h-7V377.5z M573.5,58.1h7v7h-7V58.1z M573.5,65.3h7v7h-7V65.3z M573.5,72.6h7v7h-7
	V72.6z M573.5,87.1h7v7h-7V87.1z M573.5,94.4h7v7h-7V94.4z M573.5,167h7v7h-7V167z M573.5,174.2h7v7h-7V174.2z M573.5,181.5h7v7h-7
	V181.5z M573.5,188.8h7v7h-7V188.8z M573.5,196h7v7h-7V196z M573.5,203.3h7v7h-7V203.3z M573.5,210.5h7v7h-7V210.5z M573.5,217.8h7
	v7h-7V217.8z M573.5,225h7v7h-7V225z M573.5,232.3h7v7h-7V232.3z M573.5,275.9h7v7h-7V275.9z M573.5,283.1h7v7h-7V283.1z
	 M573.5,290.4h7v7h-7V290.4z M573.5,297.6h7v7h-7V297.6z M573.5,304.9h7v7h-7V304.9z M573.5,312.2h7v7h-7V312.2z M573.5,319.4h7v7
	h-7V319.4z M573.5,326.7h7v7h-7V326.7z M573.5,334h7v7h-7V334z M573.5,341.2h7v7h-7V341.2z M573.5,348.5h7v7h-7V348.5z M573.5,355.7
	h7v7h-7V355.7z M573.5,363h7v7h-7V363z M573.5,377.5h7v7h-7V377.5z M580.7,43.6h7v7h-7V43.6z M580.7,50.8h7v7h-7V50.8z M580.7,65.3
	h7v7h-7V65.3z M580.7,79.9h7v7h-7V79.9z M580.7,94.4h7v7h-7V94.4z M580.7,167h7v7h-7V167z M580.7,174.2h7v7h-7V174.2z M580.7,181.5
	h7v7h-7V181.5z M580.7,188.8h7v7h-7V188.8z M580.7,196h7v7h-7V196z M580.7,203.3h7v7h-7V203.3z M580.7,210.5h7v7h-7V210.5z
	 M580.7,217.8h7v7h-7V217.8z M580.7,261.4h7v7h-7V261.4z M580.7,268.6h7v7h-7V268.6z M580.7,275.9h7v7h-7V275.9z M580.7,283.1h7v7
	h-7V283.1z M580.7,290.4h7v7h-7V290.4z M580.7,297.6h7v7h-7V297.6z M580.7,304.9h7v7h-7V304.9z M580.7,312.2h7v7h-7V312.2z
	 M580.7,319.4h7v7h-7V319.4z M580.7,326.7h7v7h-7V326.7z M580.7,334h7v7h-7V334z M580.7,341.2h7v7h-7V341.2z M580.7,348.5h7v7h-7
	V348.5z M580.7,363h7v7h-7V363z M588,36.3h7v7h-7V36.3z M588,43.6h7v7h-7V43.6z M588,58.1h7v7h-7V58.1z M588,72.6h7v7h-7V72.6z
	 M588,79.9h7v7h-7V79.9z M588,87.1h7v7h-7V87.1z M588,94.4h7v7h-7V94.4z M588,101.6h7v7h-7V101.6z M588,108.9h7v7h-7V108.9z
	 M588,116.1h7v7h-7V116.1z M588,159.7h7v7h-7V159.7z M588,167h7v7h-7V167z M588,174.2h7v7h-7V174.2z M588,181.5h7v7h-7V181.5z
	 M588,188.8h7v7h-7V188.8z M588,196h7v7h-7V196z M588,246.8h7v7h-7V246.8z M588,254.1h7v7h-7V254.1z M588,261.4h7v7h-7V261.4z
	 M588,268.6h7v7h-7V268.6z M588,275.9h7v7h-7V275.9z M588,283.1h7v7h-7V283.1z M588,290.4h7v7h-7V290.4z M588,297.6h7v7h-7V297.6z
	 M588,304.9h7v7h-7V304.9z M588,312.2h7v7h-7V312.2z M588,319.4h7v7h-7V319.4z M588,326.7h7v7h-7V326.7z M588,334h7v7h-7V334z
	 M588,341.2h7v7h-7V341.2z M588,348.5h7v7h-7V348.5z M588,355.7h7v7h-7V355.7z M588,363h7v7h-7V363z M595.2,29h7v7h-7V29z
	 M595.2,36.3h7v7h-7V36.3z M595.2,58.1h7v7h-7V58.1z M595.2,65.3h7v7h-7V65.3z M595.2,72.6h7v7h-7V72.6z M595.2,79.9h7v7h-7V79.9z
	 M595.2,87.1h7v7h-7V87.1z M595.2,94.4h7v7h-7V94.4z M595.2,101.6h7v7h-7V101.6z M595.2,152.4h7v7h-7V152.4z M595.2,159.7h7v7h-7
	V159.7z M595.2,167h7v7h-7V167z M595.2,174.2h7v7h-7V174.2z M595.2,181.5h7v7h-7V181.5z M595.2,225h7v7h-7V225z M595.2,232.3h7v7h-7
	V232.3z M595.2,239.6h7v7h-7V239.6z M595.2,246.8h7v7h-7V246.8z M595.2,254.1h7v7h-7V254.1z M595.2,261.4h7v7h-7V261.4z
	 M595.2,268.6h7v7h-7V268.6z M595.2,275.9h7v7h-7V275.9z M595.2,283.1h7v7h-7V283.1z M595.2,290.4h7v7h-7V290.4z M595.2,297.6h7v7
	h-7V297.6z M595.2,304.9h7v7h-7V304.9z M595.2,312.2h7v7h-7V312.2z M595.2,319.4h7v7h-7V319.4z M595.2,326.7h7v7h-7V326.7z
	 M595.2,334h7v7h-7V334z M595.2,341.2h7v7h-7V341.2z M595.2,348.5h7v7h-7V348.5z M595.2,363h7v7h-7V363z M595.2,370.2h7v7h-7V370.2z
	 M595.2,377.5h7v7h-7V377.5z M602.5,21.8h7v7h-7V21.8z M602.5,29h7v7h-7V29z M602.5,43.6h7v7h-7V43.6z M602.5,50.8h7v7h-7V50.8z
	 M602.5,58.1h7v7h-7V58.1z M602.5,65.3h7v7h-7V65.3z M602.5,72.6h7v7h-7V72.6z M602.5,79.9h7v7h-7V79.9z M602.5,87.1h7v7h-7V87.1z
	 M602.5,94.4h7v7h-7V94.4z M602.5,101.6h7v7h-7V101.6z M602.5,152.4h7v7h-7V152.4z M602.5,159.7h7v7h-7V159.7z M602.5,210.5h7v7h-7
	V210.5z M602.5,217.8h7v7h-7V217.8z M602.5,225h7v7h-7V225z M602.5,232.3h7v7h-7V232.3z M602.5,239.6h7v7h-7V239.6z M602.5,246.8h7
	v7h-7V246.8z M602.5,254.1h7v7h-7V254.1z M602.5,261.4h7v7h-7V261.4z M602.5,268.6h7v7h-7V268.6z M602.5,275.9h7v7h-7V275.9z
	 M602.5,283.1h7v7h-7V283.1z M602.5,290.4h7v7h-7V290.4z M602.5,297.6h7v7h-7V297.6z M602.5,304.9h7v7h-7V304.9z M602.5,312.2h7v7
	h-7V312.2z M602.5,319.4h7v7h-7V319.4z M602.5,326.7h7v7h-7V326.7z M602.5,334h7v7h-7V334z M602.5,341.2h7v7h-7V341.2z M602.5,348.5
	h7v7h-7V348.5z M602.5,355.7h7v7h-7V355.7z M602.5,363h7v7h-7V363z M602.5,370.2h7v7h-7V370.2z M602.5,377.5h7v7h-7V377.5z
	 M609.8,14.5h7v7h-7V14.5z M609.8,21.8h7v7h-7V21.8z M609.8,36.3h7v7h-7V36.3z M609.8,43.6h7v7h-7V43.6z M609.8,50.8h7v7h-7V50.8z
	 M609.8,58.1h7v7h-7V58.1z M609.8,65.3h7v7h-7V65.3z M609.8,72.6h7v7h-7V72.6z M609.8,94.4h7v7h-7V94.4z M609.8,101.6h7v7h-7V101.6z
	 M609.8,145.2h7v7h-7V145.2z M609.8,196h7v7h-7V196z M609.8,203.3h7v7h-7V203.3z M609.8,210.5h7v7h-7V210.5z M609.8,217.8h7v7h-7
	V217.8z M609.8,225h7v7h-7V225z M609.8,232.3h7v7h-7V232.3z M609.8,239.6h7v7h-7V239.6z M609.8,246.8h7v7h-7V246.8z M609.8,254.1h7
	v7h-7V254.1z M609.8,261.4h7v7h-7V261.4z M609.8,268.6h7v7h-7V268.6z M609.8,275.9h7v7h-7V275.9z M609.8,283.1h7v7h-7V283.1z
	 M609.8,290.4h7v7h-7V290.4z M609.8,297.6h7v7h-7V297.6z M609.8,304.9h7v7h-7V304.9z M609.8,312.2h7v7h-7V312.2z M609.8,319.4h7v7
	h-7V319.4z M609.8,326.7h7v7h-7V326.7z M609.8,334h7v7h-7V334z M609.8,341.2h7v7h-7V341.2z M609.8,348.5h7v7h-7V348.5z M609.8,363h7
	v7h-7V363z M609.8,370.2h7v7h-7V370.2z M609.8,377.5h7v7h-7V377.5z M617,7.2h7v7h-7V7.2z M617,14.5h7v7h-7V14.5z M617,29h7v7h-7V29z
	 M617,36.3h7v7h-7V36.3z M617,43.6h7v7h-7V43.6z M617,50.8h7v7h-7V50.8z M617,94.4h7v7h-7V94.4z M617,101.6h7v7h-7V101.6z
	 M617,137.9h7v7h-7V137.9z M617,145.2h7v7h-7V145.2z M617,188.8h7v7h-7V188.8z M617,196h7v7h-7V196z M617,217.8h7v7h-7V217.8z
	 M617,225h7v7h-7V225z M617,232.3h7v7h-7V232.3z M617,239.6h7v7h-7V239.6z M617,246.8h7v7h-7V246.8z M617,254.1h7v7h-7V254.1z
	 M617,261.4h7v7h-7V261.4z M617,268.6h7v7h-7V268.6z M617,275.9h7v7h-7V275.9z M617,283.1h7v7h-7V283.1z M617,290.4h7v7h-7V290.4z
	 M617,297.6h7v7h-7V297.6z M617,304.9h7v7h-7V304.9z M617,312.2h7v7h-7V312.2z M617,319.4h7v7h-7V319.4z M617,326.7h7v7h-7V326.7z
	 M617,334h7v7h-7V334z M617,341.2h7v7h-7V341.2z M617,355.7h7v7h-7V355.7z M617,363h7v7h-7V363z M617,370.2h7v7h-7V370.2z
	 M617,377.5h7v7h-7V377.5z M624.3,7.2h7v7h-7V7.2z M624.3,21.8h7v7h-7V21.8z M624.3,29h7v7h-7V29z M624.3,36.3h7v7h-7V36.3z
	 M624.3,43.6h7v7h-7V43.6z M624.3,94.4h7v7h-7V94.4z M624.3,101.6h7v7h-7V101.6z M624.3,137.9h7v7h-7V137.9z M624.3,181.5h7v7h-7
	V181.5z M624.3,188.8h7v7h-7V188.8z M624.3,203.3h7v7h-7V203.3z M624.3,210.5h7v7h-7V210.5z M624.3,225h7v7h-7V225z M624.3,232.3h7
	v7h-7V232.3z M624.3,239.6h7v7h-7V239.6z M624.3,246.8h7v7h-7V246.8z M624.3,254.1h7v7h-7V254.1z M624.3,261.4h7v7h-7V261.4z
	 M624.3,268.6h7v7h-7V268.6z M624.3,275.9h7v7h-7V275.9z M624.3,283.1h7v7h-7V283.1z M624.3,290.4h7v7h-7V290.4z M624.3,297.6h7v7
	h-7V297.6z M624.3,304.9h7v7h-7V304.9z M624.3,312.2h7v7h-7V312.2z M624.3,319.4h7v7h-7V319.4z M624.3,326.7h7v7h-7V326.7z
	 M624.3,334h7v7h-7V334z M624.3,348.5h7v7h-7V348.5z M624.3,355.7h7v7h-7V355.7z M624.3,363h7v7h-7V363z M624.3,370.2h7v7h-7V370.2z
	 M624.3,377.5h7v7h-7V377.5z M631.5,0h7v7h-7V0z M631.5,7.2h7v7h-7V7.2z M631.5,14.5h7v7h-7V14.5z M631.5,21.8h7v7h-7V21.8z
	 M631.5,29h7v7h-7V29z M631.5,36.3h7v7h-7V36.3z M631.5,87.1h7v7h-7V87.1z M631.5,94.4h7v7h-7V94.4z M631.5,101.6h7v7h-7V101.6z
	 M631.5,130.7h7v7h-7V130.7z M631.5,137.9h7v7h-7V137.9z M631.5,188.8h7v7h-7V188.8z M631.5,203.3h7v7h-7V203.3z M631.5,210.5h7v7
	h-7V210.5z M631.5,225h7v7h-7V225z M631.5,232.3h7v7h-7V232.3z M631.5,239.6h7v7h-7V239.6z M631.5,246.8h7v7h-7V246.8z M631.5,254.1
	h7v7h-7V254.1z M631.5,261.4h7v7h-7V261.4z M631.5,268.6h7v7h-7V268.6z M631.5,275.9h7v7h-7V275.9z M631.5,283.1h7v7h-7V283.1z
	 M631.5,290.4h7v7h-7V290.4z M631.5,297.6h7v7h-7V297.6z M631.5,304.9h7v7h-7V304.9z M631.5,312.2h7v7h-7V312.2z M631.5,319.4h7v7
	h-7V319.4z M631.5,326.7h7v7h-7V326.7z M631.5,334h7v7h-7V334z M631.5,341.2h7v7h-7V341.2z M631.5,355.7h7v7h-7V355.7z M631.5,363h7
	v7h-7V363z M631.5,370.2h7v7h-7V370.2z M631.5,377.5h7v7h-7V377.5z M566.2,384.8h7v7h-7V384.8z M566.2,392h7v7h-7V392z M566.2,399.3
	h7v7h-7V399.3z M566.2,406.6h7v7h-7V406.6z M566.2,413.8h7v7h-7V413.8z M566.2,421.1h7v7h-7V421.1z M573.5,384.8h7v7h-7V384.8z
	 M573.5,392h7v7h-7V392z M573.5,399.3h7v7h-7V399.3z M573.5,406.6h7v7h-7V406.6z M602.5,384.8h7v7h-7V384.8z M609.8,384.8h7v7h-7
	V384.8z M609.8,392h7v7h-7V392z M609.8,399.3h7v7h-7V399.3z M609.8,406.6h7v7h-7V406.6z M617,384.8h7v7h-7V384.8z M617,392h7v7h-7
	V392z M617,399.3h7v7h-7V399.3z M617,406.6h7v7h-7V406.6z M617,413.8h7v7h-7V413.8z M617,421.1h7v7h-7V421.1z M624.3,384.8h7v7h-7
	V384.8z M624.3,392h7v7h-7V392z M624.3,399.3h7v7h-7V399.3z M624.3,406.6h7v7h-7V406.6z M624.3,413.8h7v7h-7V413.8z M624.3,421.1h7
	v7h-7V421.1z M624.3,428.3h7v7h-7V428.3z M631.5,384.8h7v7h-7V384.8z M631.5,392h7v7h-7V392z M631.5,399.3h7v7h-7V399.3z
	 M631.5,406.6h7v7h-7V406.6z M631.5,413.8h7v7h-7V413.8z M631.5,421.1h7v7h-7V421.1z M631.5,428.3h7v7h-7V428.3z M631.5,435.6h7v7
	h-7V435.6z M631.5,442.8h7v7h-7V442.8z M631.5,450.1h7v7h-7V450.1z M638.8,0h7v7h-7V0z M638.8,14.5h7v7h-7V14.5z M638.8,21.8h7v7h-7
	V21.8z M638.8,29h7v7h-7V29z M638.8,72.6h7v7h-7V72.6z M638.8,79.9h7v7h-7V79.9z M638.8,87.1h7v7h-7V87.1z M638.8,94.4h7v7h-7V94.4z
	 M638.8,101.6h7v7h-7V101.6z M638.8,123.4h7v7h-7V123.4z M638.8,130.7h7v7h-7V130.7z M638.8,137.9h7v7h-7V137.9z M638.8,188.8h7v7
	h-7V188.8z M638.8,203.3h7v7h-7V203.3z M638.8,210.5h7v7h-7V210.5z M638.8,225h7v7h-7V225z M638.8,232.3h7v7h-7V232.3z M638.8,239.6
	h7v7h-7V239.6z M638.8,246.8h7v7h-7V246.8z M638.8,254.1h7v7h-7V254.1z M638.8,261.4h7v7h-7V261.4z M638.8,268.6h7v7h-7V268.6z
	 M638.8,275.9h7v7h-7V275.9z M638.8,283.1h7v7h-7V283.1z M638.8,290.4h7v7h-7V290.4z M638.8,297.6h7v7h-7V297.6z M638.8,304.9h7v7
	h-7V304.9z M638.8,312.2h7v7h-7V312.2z M638.8,319.4h7v7h-7V319.4z M638.8,326.7h7v7h-7V326.7z M638.8,334h7v7h-7V334z M638.8,348.5
	h7v7h-7V348.5z M638.8,355.7h7v7h-7V355.7z M638.8,363h7v7h-7V363z M638.8,370.2h7v7h-7V370.2z M638.8,377.5h7v7h-7V377.5z M646.1,0
	h7v7h-7V0z M646.1,7.2h7v7h-7V7.2z M646.1,14.5h7v7h-7V14.5z M646.1,21.8h7v7h-7V21.8z M646.1,72.6h7v7h-7V72.6z M646.1,87.1h7v7h-7
	V87.1z M646.1,101.6h7v7h-7V101.6z M646.1,108.9h7v7h-7V108.9z M646.1,123.4h7v7h-7V123.4z M646.1,130.7h7v7h-7V130.7z M646.1,137.9
	h7v7h-7V137.9z M646.1,145.2h7v7h-7V145.2z M646.1,181.5h7v7h-7V181.5z M646.1,188.8h7v7h-7V188.8z M646.1,196h7v7h-7V196z
	 M646.1,217.8h7v7h-7V217.8z M646.1,225h7v7h-7V225z M646.1,232.3h7v7h-7V232.3z M646.1,239.6h7v7h-7V239.6z M646.1,246.8h7v7h-7
	V246.8z M646.1,254.1h7v7h-7V254.1z M646.1,261.4h7v7h-7V261.4z M646.1,268.6h7v7h-7V268.6z M646.1,275.9h7v7h-7V275.9z
	 M646.1,283.1h7v7h-7V283.1z M646.1,290.4h7v7h-7V290.4z M646.1,297.6h7v7h-7V297.6z M646.1,304.9h7v7h-7V304.9z M646.1,312.2h7v7
	h-7V312.2z M646.1,319.4h7v7h-7V319.4z M646.1,326.7h7v7h-7V326.7z M646.1,341.2h7v7h-7V341.2z M646.1,348.5h7v7h-7V348.5z
	 M646.1,355.7h7v7h-7V355.7z M646.1,363h7v7h-7V363z M646.1,370.2h7v7h-7V370.2z M646.1,377.5h7v7h-7V377.5z M653.3,0h7v7h-7V0z
	 M653.3,7.2h7v7h-7V7.2z M653.3,14.5h7v7h-7V14.5z M653.3,21.8h7v7h-7V21.8z M653.3,65.3h7v7h-7V65.3z M653.3,72.6h7v7h-7V72.6z
	 M653.3,94.4h7v7h-7V94.4z M653.3,108.9h7v7h-7V108.9z M653.3,116.1h7v7h-7V116.1z M653.3,123.4h7v7h-7V123.4z M653.3,130.7h7v7h-7
	V130.7z M653.3,137.9h7v7h-7V137.9z M653.3,145.2h7v7h-7V145.2z M653.3,181.5h7v7h-7V181.5z M653.3,188.8h7v7h-7V188.8z M653.3,196
	h7v7h-7V196z M653.3,203.3h7v7h-7V203.3z M653.3,210.5h7v7h-7V210.5z M653.3,217.8h7v7h-7V217.8z M653.3,225h7v7h-7V225z
	 M653.3,232.3h7v7h-7V232.3z M653.3,239.6h7v7h-7V239.6z M653.3,246.8h7v7h-7V246.8z M653.3,254.1h7v7h-7V254.1z M653.3,261.4h7v7
	h-7V261.4z M653.3,268.6h7v7h-7V268.6z M653.3,275.9h7v7h-7V275.9z M653.3,283.1h7v7h-7V283.1z M653.3,290.4h7v7h-7V290.4z
	 M653.3,297.6h7v7h-7V297.6z M653.3,304.9h7v7h-7V304.9z M653.3,312.2h7v7h-7V312.2z M653.3,319.4h7v7h-7V319.4z M653.3,334h7v7h-7
	V334z M653.3,348.5h7v7h-7V348.5z M653.3,355.7h7v7h-7V355.7z M653.3,363h7v7h-7V363z M653.3,370.2h7v7h-7V370.2z M653.3,377.5h7v7
	h-7V377.5z M660.6,0h7v7h-7V0z M660.6,14.5h7v7h-7V14.5z M660.6,58.1h7v7h-7V58.1z M660.6,65.3h7v7h-7V65.3z M660.6,79.9h7v7h-7
	V79.9z M660.6,94.4h7v7h-7V94.4z M660.6,101.6h7v7h-7V101.6z M660.6,108.9h7v7h-7V108.9z M660.6,116.1h7v7h-7V116.1z M660.6,123.4h7
	v7h-7V123.4z M660.6,130.7h7v7h-7V130.7z M660.6,137.9h7v7h-7V137.9z M660.6,145.2h7v7h-7V145.2z M660.6,152.4h7v7h-7V152.4z
	 M660.6,159.7h7v7h-7V159.7z M660.6,167h7v7h-7V167z M660.6,174.2h7v7h-7V174.2z M660.6,181.5h7v7h-7V181.5z M660.6,188.8h7v7h-7
	V188.8z M660.6,196h7v7h-7V196z M660.6,203.3h7v7h-7V203.3z M660.6,210.5h7v7h-7V210.5z M660.6,217.8h7v7h-7V217.8z M660.6,225h7v7
	h-7V225z M660.6,232.3h7v7h-7V232.3z M660.6,239.6h7v7h-7V239.6z M660.6,246.8h7v7h-7V246.8z M660.6,254.1h7v7h-7V254.1z
	 M660.6,261.4h7v7h-7V261.4z M660.6,268.6h7v7h-7V268.6z M660.6,275.9h7v7h-7V275.9z M660.6,283.1h7v7h-7V283.1z M660.6,290.4h7v7
	h-7V290.4z M660.6,297.6h7v7h-7V297.6z M660.6,304.9h7v7h-7V304.9z M660.6,312.2h7v7h-7V312.2z M660.6,326.7h7v7h-7V326.7z
	 M660.6,341.2h7v7h-7V341.2z M660.6,348.5h7v7h-7V348.5z M660.6,355.7h7v7h-7V355.7z M660.6,363h7v7h-7V363z M660.6,370.2h7v7h-7
	V370.2z M660.6,377.5h7v7h-7V377.5z M667.8,0h7v7h-7V0z M667.8,7.2h7v7h-7V7.2z M667.8,14.5h7v7h-7V14.5z M667.8,50.8h7v7h-7V50.8z
	 M667.8,58.1h7v7h-7V58.1z M667.8,87.1h7v7h-7V87.1z M667.8,101.6h7v7h-7V101.6z M667.8,108.9h7v7h-7V108.9z M667.8,116.1h7v7h-7
	V116.1z M667.8,123.4h7v7h-7V123.4z M667.8,130.7h7v7h-7V130.7z M667.8,137.9h7v7h-7V137.9z M667.8,145.2h7v7h-7V145.2z
	 M667.8,152.4h7v7h-7V152.4z M667.8,159.7h7v7h-7V159.7z M667.8,167h7v7h-7V167z M667.8,174.2h7v7h-7V174.2z M667.8,181.5h7v7h-7
	V181.5z M667.8,188.8h7v7h-7V188.8z M667.8,196h7v7h-7V196z M667.8,203.3h7v7h-7V203.3z M667.8,210.5h7v7h-7V210.5z M667.8,217.8h7
	v7h-7V217.8z M667.8,225h7v7h-7V225z M667.8,232.3h7v7h-7V232.3z M667.8,239.6h7v7h-7V239.6z M667.8,246.8h7v7h-7V246.8z
	 M667.8,254.1h7v7h-7V254.1z M667.8,261.4h7v7h-7V261.4z M667.8,268.6h7v7h-7V268.6z M667.8,275.9h7v7h-7V275.9z M667.8,283.1h7v7
	h-7V283.1z M667.8,290.4h7v7h-7V290.4z M667.8,304.9h7v7h-7V304.9z M667.8,319.4h7v7h-7V319.4z M667.8,334h7v7h-7V334z M667.8,341.2
	h7v7h-7V341.2z M667.8,348.5h7v7h-7V348.5z M667.8,355.7h7v7h-7V355.7z M667.8,363h7v7h-7V363z M667.8,377.5h7v7h-7V377.5z M675.1,0
	h7v7h-7V0z M675.1,7.2h7v7h-7V7.2z M675.1,14.5h7v7h-7V14.5z M675.1,50.8h7v7h-7V50.8z M675.1,65.3h7v7h-7V65.3z M675.1,79.9h7v7h-7
	V79.9z M675.1,87.1h7v7h-7V87.1z M675.1,94.4h7v7h-7V94.4z M675.1,101.6h7v7h-7V101.6z M675.1,108.9h7v7h-7V108.9z M675.1,116.1h7v7
	h-7V116.1z M675.1,123.4h7v7h-7V123.4z M675.1,130.7h7v7h-7V130.7z M675.1,137.9h7v7h-7V137.9z M675.1,145.2h7v7h-7V145.2z
	 M675.1,152.4h7v7h-7V152.4z M675.1,159.7h7v7h-7V159.7z M675.1,167h7v7h-7V167z M675.1,174.2h7v7h-7V174.2z M675.1,181.5h7v7h-7
	V181.5z M675.1,188.8h7v7h-7V188.8z M675.1,196h7v7h-7V196z M675.1,203.3h7v7h-7V203.3z M675.1,210.5h7v7h-7V210.5z M675.1,217.8h7
	v7h-7V217.8z M675.1,225h7v7h-7V225z M675.1,232.3h7v7h-7V232.3z M675.1,239.6h7v7h-7V239.6z M675.1,246.8h7v7h-7V246.8z
	 M675.1,254.1h7v7h-7V254.1z M675.1,261.4h7v7h-7V261.4z M675.1,268.6h7v7h-7V268.6z M675.1,275.9h7v7h-7V275.9z M675.1,283.1h7v7
	h-7V283.1z M675.1,290.4h7v7h-7V290.4z M675.1,297.6h7v7h-7V297.6z M675.1,312.2h7v7h-7V312.2z M675.1,326.7h7v7h-7V326.7z
	 M675.1,334h7v7h-7V334z M675.1,341.2h7v7h-7V341.2z M675.1,348.5h7v7h-7V348.5z M675.1,355.7h7v7h-7V355.7z M675.1,370.2h7v7h-7
	V370.2z M682.4,7.2h7v7h-7V7.2z M682.4,43.6h7v7h-7V43.6z M682.4,50.8h7v7h-7V50.8z M682.4,72.6h7v7h-7V72.6z M682.4,87.1h7v7h-7
	V87.1z M682.4,94.4h7v7h-7V94.4z M682.4,101.6h7v7h-7V101.6z M682.4,108.9h7v7h-7V108.9z M682.4,116.1h7v7h-7V116.1z M682.4,123.4h7
	v7h-7V123.4z M682.4,137.9h7v7h-7V137.9z M682.4,145.2h7v7h-7V145.2z M682.4,152.4h7v7h-7V152.4z M682.4,159.7h7v7h-7V159.7z
	 M682.4,167h7v7h-7V167z M682.4,174.2h7v7h-7V174.2z M682.4,181.5h7v7h-7V181.5z M682.4,188.8h7v7h-7V188.8z M682.4,196h7v7h-7V196z
	 M682.4,203.3h7v7h-7V203.3z M682.4,210.5h7v7h-7V210.5z M682.4,217.8h7v7h-7V217.8z M682.4,232.3h7v7h-7V232.3z M682.4,246.8h7v7
	h-7V246.8z M682.4,254.1h7v7h-7V254.1z M682.4,261.4h7v7h-7V261.4z M682.4,268.6h7v7h-7V268.6z M682.4,275.9h7v7h-7V275.9z
	 M682.4,290.4h7v7h-7V290.4z M682.4,304.9h7v7h-7V304.9z M682.4,312.2h7v7h-7V312.2z M682.4,319.4h7v7h-7V319.4z M682.4,326.7h7v7
	h-7V326.7z M682.4,334h7v7h-7V334z M682.4,348.5h7v7h-7V348.5z M682.4,363h7v7h-7V363z M682.4,377.5h7v7h-7V377.5z M689.6,43.6h7v7
	h-7V43.6z M689.6,65.3h7v7h-7V65.3z M689.6,79.9h7v7h-7V79.9z M689.6,87.1h7v7h-7V87.1z M689.6,94.4h7v7h-7V94.4z M689.6,101.6h7v7
	h-7V101.6z M689.6,108.9h7v7h-7V108.9z M689.6,116.1h7v7h-7V116.1z M689.6,145.2h7v7h-7V145.2z M689.6,152.4h7v7h-7V152.4z
	 M689.6,159.7h7v7h-7V159.7z M689.6,167h7v7h-7V167z M689.6,174.2h7v7h-7V174.2z M689.6,181.5h7v7h-7V181.5z M689.6,196h7v7h-7V196z
	 M689.6,210.5h7v7h-7V210.5z M689.6,225h7v7h-7V225z M689.6,239.6h7v7h-7V239.6z M689.6,254.1h7v7h-7V254.1z M689.6,268.6h7v7h-7
	V268.6z M689.6,283.1h7v7h-7V283.1z M689.6,297.6h7v7h-7V297.6z M689.6,312.2h7v7h-7V312.2z M689.6,326.7h7v7h-7V326.7z
	 M689.6,341.2h7v7h-7V341.2z M689.6,355.7h7v7h-7V355.7z M689.6,370.2h7v7h-7V370.2z M696.9,36.3h7v7h-7V36.3z M696.9,43.6h7v7h-7
	V43.6z M696.9,58.1h7v7h-7V58.1z M696.9,72.6h7v7h-7V72.6z M696.9,79.9h7v7h-7V79.9z M696.9,87.1h7v7h-7V87.1z M696.9,94.4h7v7h-7
	V94.4z M696.9,101.6h7v7h-7V101.6z M696.9,108.9h7v7h-7V108.9z M696.9,145.2h7v7h-7V145.2z M696.9,152.4h7v7h-7V152.4z M696.9,167h7
	v7h-7V167z M696.9,188.8h7v7h-7V188.8z M696.9,203.3h7v7h-7V203.3z M696.9,210.5h7v7h-7V210.5z M696.9,217.8h7v7h-7V217.8z
	 M696.9,225h7v7h-7V225z M696.9,232.3h7v7h-7V232.3z M696.9,246.8h7v7h-7V246.8z M696.9,254.1h7v7h-7V254.1z M696.9,261.4h7v7h-7
	V261.4z M696.9,268.6h7v7h-7V268.6z M696.9,275.9h7v7h-7V275.9z M696.9,290.4h7v7h-7V290.4z M696.9,304.9h7v7h-7V304.9z
	 M696.9,319.4h7v7h-7V319.4z M696.9,334h7v7h-7V334z M696.9,348.5h7v7h-7V348.5z M696.9,363h7v7h-7V363z M696.9,377.5h7v7h-7V377.5z
	 M704.1,36.3h7v7h-7V36.3z M704.1,65.3h7v7h-7V65.3z M704.1,72.6h7v7h-7V72.6z M704.1,79.9h7v7h-7V79.9z M704.1,87.1h7v7h-7V87.1z
	 M704.1,94.4h7v7h-7V94.4z M704.1,101.6h7v7h-7V101.6z M704.1,152.4h7v7h-7V152.4z M704.1,159.7h7v7h-7V159.7z M704.1,167h7v7h-7
	V167z M704.1,174.2h7v7h-7V174.2z M704.1,181.5h7v7h-7V181.5z M704.1,188.8h7v7h-7V188.8z M704.1,196h7v7h-7V196z M704.1,203.3h7v7
	h-7V203.3z M704.1,210.5h7v7h-7V210.5z M704.1,217.8h7v7h-7V217.8z M704.1,225h7v7h-7V225z M704.1,239.6h7v7h-7V239.6z M704.1,246.8
	h7v7h-7V246.8z M704.1,254.1h7v7h-7V254.1z M704.1,268.6h7v7h-7V268.6z M704.1,275.9h7v7h-7V275.9z M704.1,283.1h7v7h-7V283.1z
	 M704.1,297.6h7v7h-7V297.6z M704.1,312.2h7v7h-7V312.2z M704.1,326.7h7v7h-7V326.7z M704.1,341.2h7v7h-7V341.2z M704.1,355.7h7v7
	h-7V355.7z M704.1,370.2h7v7h-7V370.2z M638.8,384.8h7v7h-7V384.8z M638.8,392h7v7h-7V392z M638.8,399.3h7v7h-7V399.3z M638.8,406.6
	h7v7h-7V406.6z M638.8,413.8h7v7h-7V413.8z M638.8,421.1h7v7h-7V421.1z M638.8,428.3h7v7h-7V428.3z M638.8,435.6h7v7h-7V435.6z
	 M638.8,442.8h7v7h-7V442.8z M638.8,450.1h7v7h-7V450.1z M646.1,384.8h7v7h-7V384.8z M646.1,392h7v7h-7V392z M646.1,399.3h7v7h-7
	V399.3z M646.1,406.6h7v7h-7V406.6z M646.1,413.8h7v7h-7V413.8z M646.1,421.1h7v7h-7V421.1z M646.1,428.3h7v7h-7V428.3z
	 M646.1,435.6h7v7h-7V435.6z M646.1,442.8h7v7h-7V442.8z M646.1,450.1h7v7h-7V450.1z M653.3,384.8h7v7h-7V384.8z M653.3,392h7v7h-7
	V392z M653.3,399.3h7v7h-7V399.3z M653.3,406.6h7v7h-7V406.6z M653.3,413.8h7v7h-7V413.8z M653.3,421.1h7v7h-7V421.1z M653.3,428.3
	h7v7h-7V428.3z M653.3,435.6h7v7h-7V435.6z M653.3,442.8h7v7h-7V442.8z M653.3,450.1h7v7h-7V450.1z M660.6,384.8h7v7h-7V384.8z
	 M660.6,399.3h7v7h-7V399.3z M660.6,413.8h7v7h-7V413.8z M660.6,428.3h7v7h-7V428.3z M660.6,442.8h7v7h-7V442.8z M667.8,392h7v7h-7
	V392z M667.8,406.6h7v7h-7V406.6z M667.8,421.1h7v7h-7V421.1z M667.8,435.6h7v7h-7V435.6z M667.8,450.1h7v7h-7V450.1z M675.1,384.8
	h7v7h-7V384.8z M675.1,399.3h7v7h-7V399.3z M675.1,413.8h7v7h-7V413.8z M675.1,428.3h7v7h-7V428.3z M682.4,392h7v7h-7V392z
	 M689.6,384.8h7v7h-7V384.8z M638.8,457.4h7v7h-7V457.4z M638.8,464.6h7v7h-7V464.6z M638.8,471.9h7v7h-7V471.9z M638.8,479.2h7v7
	h-7V479.2z M646.1,457.4h7v7h-7V457.4z M646.1,464.6h7v7h-7V464.6z M646.1,471.9h7v7h-7V471.9z M646.1,479.2h7v7h-7V479.2z
	 M646.1,486.4h7v7h-7V486.4z M646.1,493.7h7v7h-7V493.7z M646.1,500.9h7v7h-7V500.9z M646.1,508.2h7v7h-7V508.2z M653.3,457.4h7v7
	h-7V457.4z M653.3,464.6h7v7h-7V464.6z M653.3,471.9h7v7h-7V471.9z M653.3,479.2h7v7h-7V479.2z M653.3,486.4h7v7h-7V486.4z
	 M653.3,493.7h7v7h-7V493.7z M653.3,500.9h7v7h-7V500.9z M653.3,508.2h7v7h-7V508.2z M653.3,515.4h7v7h-7V515.4z M653.3,522.7h7v7
	h-7V522.7z M660.6,457.4h7v7h-7V457.4z M660.6,471.9h7v7h-7V471.9z M660.6,479.2h7v7h-7V479.2z M660.6,486.4h7v7h-7V486.4z
	 M660.6,493.7h7v7h-7V493.7z M660.6,500.9h7v7h-7V500.9z M660.6,508.2h7v7h-7V508.2z M660.6,515.4h7v7h-7V515.4z M660.6,522.7h7v7
	h-7V522.7z M667.8,464.6h7v7h-7V464.6z M667.8,479.2h7v7h-7V479.2z M667.8,493.7h7v7h-7V493.7z M667.8,500.9h7v7h-7V500.9z
	 M667.8,508.2h7v7h-7V508.2z M667.8,515.4h7v7h-7V515.4z M667.8,522.7h7v7h-7V522.7z M675.1,457.4h7v7h-7V457.4z M675.1,471.9h7v7
	h-7V471.9z M675.1,486.4h7v7h-7V486.4z M675.1,500.9h7v7h-7V500.9z M675.1,515.4h7v7h-7V515.4z M675.1,522.7h7v7h-7V522.7z
	 M682.4,479.2h7v7h-7V479.2z M682.4,493.7h7v7h-7V493.7z M682.4,508.2h7v7h-7V508.2z M682.4,522.7h7v7h-7V522.7z M689.6,500.9h7v7
	h-7V500.9z M689.6,515.4h7v7h-7V515.4z M696.9,522.7h7v7h-7V522.7z M704.1,515.4h7v7h-7V515.4z M646.1,580.8h7v7h-7V580.8z
	 M653.3,530h7v7h-7V530z M653.3,537.2h7v7h-7V537.2z M653.3,580.8h7v7h-7V580.8z M660.6,530h7v7h-7V530z M660.6,537.2h7v7h-7V537.2z
	 M660.6,544.5h7v7h-7V544.5z M660.6,551.8h7v7h-7V551.8z M660.6,559h7v7h-7V559z M660.6,566.3h7v7h-7V566.3z M660.6,573.5h7v7h-7
	V573.5z M660.6,580.8h7v7h-7V580.8z M667.8,530h7v7h-7V530z M667.8,537.2h7v7h-7V537.2z M667.8,544.5h7v7h-7V544.5z M667.8,551.8h7
	v7h-7V551.8z M667.8,559h7v7h-7V559z M667.8,566.3h7v7h-7V566.3z M667.8,573.5h7v7h-7V573.5z M667.8,580.8h7v7h-7V580.8z M675.1,530
	h7v7h-7V530z M675.1,537.2h7v7h-7V537.2z M675.1,544.5h7v7h-7V544.5z M675.1,551.8h7v7h-7V551.8z M675.1,559h7v7h-7V559z
	 M675.1,566.3h7v7h-7V566.3z M675.1,573.5h7v7h-7V573.5z M675.1,580.8h7v7h-7V580.8z M682.4,530h7v7h-7V530z M682.4,537.2h7v7h-7
	V537.2z M682.4,544.5h7v7h-7V544.5z M682.4,551.8h7v7h-7V551.8z M682.4,559h7v7h-7V559z M682.4,566.3h7v7h-7V566.3z M682.4,573.5h7
	v7h-7V573.5z M682.4,580.8h7v7h-7V580.8z M689.6,530h7v7h-7V530z M689.6,544.5h7v7h-7V544.5z M689.6,551.8h7v7h-7V551.8z M689.6,559
	h7v7h-7V559z M689.6,566.3h7v7h-7V566.3z M689.6,573.5h7v7h-7V573.5z M689.6,580.8h7v7h-7V580.8z M696.9,537.2h7v7h-7V537.2z
	 M696.9,551.8h7v7h-7V551.8z M696.9,559h7v7h-7V559z M696.9,566.3h7v7h-7V566.3z M696.9,573.5h7v7h-7V573.5z M696.9,580.8h7v7h-7
	V580.8z M704.1,530h7v7h-7V530z M704.1,544.5h7v7h-7V544.5z M704.1,559h7v7h-7V559z M704.1,573.5h7v7h-7V573.5z M711.4,29h7v7h-7V29
	z M711.4,36.3h7v7h-7V36.3z M711.4,58.1h7v7h-7V58.1z M711.4,72.6h7v7h-7V72.6z M711.4,79.9h7v7h-7V79.9z M711.4,87.1h7v7h-7V87.1z
	 M711.4,94.4h7v7h-7V94.4z M711.4,152.4h7v7h-7V152.4z M711.4,159.7h7v7h-7V159.7z M711.4,167h7v7h-7V167z M711.4,174.2h7v7h-7
	V174.2z M711.4,181.5h7v7h-7V181.5z M711.4,188.8h7v7h-7V188.8z M711.4,196h7v7h-7V196z M711.4,203.3h7v7h-7V203.3z M711.4,210.5h7
	v7h-7V210.5z M711.4,217.8h7v7h-7V217.8z M711.4,232.3h7v7h-7V232.3z M711.4,239.6h7v7h-7V239.6z M711.4,246.8h7v7h-7V246.8z
	 M711.4,254.1h7v7h-7V254.1z M711.4,261.4h7v7h-7V261.4z M711.4,268.6h7v7h-7V268.6z M711.4,275.9h7v7h-7V275.9z M711.4,283.1h7v7
	h-7V283.1z M711.4,290.4h7v7h-7V290.4z M711.4,297.6h7v7h-7V297.6z M711.4,304.9h7v7h-7V304.9z M711.4,319.4h7v7h-7V319.4z
	 M711.4,334h7v7h-7V334z M711.4,348.5h7v7h-7V348.5z M711.4,363h7v7h-7V363z M711.4,377.5h7v7h-7V377.5z M718.7,29h7v7h-7V29z
	 M718.7,36.3h7v7h-7V36.3z M718.7,50.8h7v7h-7V50.8z M718.7,65.3h7v7h-7V65.3z M718.7,72.6h7v7h-7V72.6z M718.7,79.9h7v7h-7V79.9z
	 M718.7,87.1h7v7h-7V87.1z M718.7,94.4h7v7h-7V94.4z M718.7,145.2h7v7h-7V145.2z M718.7,152.4h7v7h-7V152.4z M718.7,159.7h7v7h-7
	V159.7z M718.7,167h7v7h-7V167z M718.7,174.2h7v7h-7V174.2z M718.7,181.5h7v7h-7V181.5z M718.7,188.8h7v7h-7V188.8z M718.7,196h7v7
	h-7V196z M718.7,203.3h7v7h-7V203.3z M718.7,210.5h7v7h-7V210.5z M718.7,225h7v7h-7V225z M718.7,232.3h7v7h-7V232.3z M718.7,239.6h7
	v7h-7V239.6z M718.7,246.8h7v7h-7V246.8z M718.7,254.1h7v7h-7V254.1z M718.7,261.4h7v7h-7V261.4z M718.7,268.6h7v7h-7V268.6z
	 M718.7,275.9h7v7h-7V275.9z M718.7,283.1h7v7h-7V283.1z M718.7,290.4h7v7h-7V290.4z M718.7,297.6h7v7h-7V297.6z M718.7,304.9h7v7
	h-7V304.9z M718.7,312.2h7v7h-7V312.2z M718.7,326.7h7v7h-7V326.7z M718.7,334h7v7h-7V334z M718.7,341.2h7v7h-7V341.2z M718.7,355.7
	h7v7h-7V355.7z M718.7,370.2h7v7h-7V370.2z M725.9,29h7v7h-7V29z M725.9,58.1h7v7h-7V58.1z M725.9,72.6h7v7h-7V72.6z M725.9,79.9h7
	v7h-7V79.9z M725.9,137.9h7v7h-7V137.9z M725.9,145.2h7v7h-7V145.2z M725.9,152.4h7v7h-7V152.4z M725.9,159.7h7v7h-7V159.7z
	 M725.9,167h7v7h-7V167z M725.9,174.2h7v7h-7V174.2z M725.9,181.5h7v7h-7V181.5z M725.9,188.8h7v7h-7V188.8z M725.9,196h7v7h-7V196z
	 M725.9,203.3h7v7h-7V203.3z M725.9,225h7v7h-7V225z M725.9,232.3h7v7h-7V232.3z M725.9,239.6h7v7h-7V239.6z M725.9,246.8h7v7h-7
	V246.8z M725.9,254.1h7v7h-7V254.1z M725.9,261.4h7v7h-7V261.4z M725.9,268.6h7v7h-7V268.6z M725.9,275.9h7v7h-7V275.9z
	 M725.9,283.1h7v7h-7V283.1z M725.9,290.4h7v7h-7V290.4z M725.9,297.6h7v7h-7V297.6z M725.9,304.9h7v7h-7V304.9z M725.9,312.2h7v7
	h-7V312.2z M725.9,319.4h7v7h-7V319.4z M725.9,326.7h7v7h-7V326.7z M725.9,334h7v7h-7V334z M725.9,341.2h7v7h-7V341.2z M725.9,348.5
	h7v7h-7V348.5z M725.9,355.7h7v7h-7V355.7z M725.9,363h7v7h-7V363z M725.9,370.2h7v7h-7V370.2z M725.9,377.5h7v7h-7V377.5z
	 M733.2,29h7v7h-7V29z M733.2,50.8h7v7h-7V50.8z M733.2,65.3h7v7h-7V65.3z M733.2,72.6h7v7h-7V72.6z M733.2,79.9h7v7h-7V79.9z
	 M733.2,123.4h7v7h-7V123.4z M733.2,130.7h7v7h-7V130.7z M733.2,137.9h7v7h-7V137.9z M733.2,145.2h7v7h-7V145.2z M733.2,152.4h7v7
	h-7V152.4z M733.2,159.7h7v7h-7V159.7z M733.2,167h7v7h-7V167z M733.2,174.2h7v7h-7V174.2z M733.2,181.5h7v7h-7V181.5z M733.2,188.8
	h7v7h-7V188.8z M733.2,196h7v7h-7V196z M733.2,210.5h7v7h-7V210.5z M733.2,217.8h7v7h-7V217.8z M733.2,225h7v7h-7V225z M733.2,232.3
	h7v7h-7V232.3z M733.2,239.6h7v7h-7V239.6z M733.2,246.8h7v7h-7V246.8z M733.2,254.1h7v7h-7V254.1z M733.2,261.4h7v7h-7V261.4z
	 M733.2,268.6h7v7h-7V268.6z M733.2,275.9h7v7h-7V275.9z M733.2,283.1h7v7h-7V283.1z M733.2,290.4h7v7h-7V290.4z M733.2,297.6h7v7
	h-7V297.6z M733.2,304.9h7v7h-7V304.9z M733.2,312.2h7v7h-7V312.2z M733.2,319.4h7v7h-7V319.4z M733.2,326.7h7v7h-7V326.7z
	 M733.2,334h7v7h-7V334z M733.2,341.2h7v7h-7V341.2z M733.2,348.5h7v7h-7V348.5z M733.2,355.7h7v7h-7V355.7z M733.2,363h7v7h-7V363z
	 M733.2,370.2h7v7h-7V370.2z M733.2,377.5h7v7h-7V377.5z M740.4,29h7v7h-7V29z M740.4,43.6h7v7h-7V43.6z M740.4,58.1h7v7h-7V58.1z
	 M740.4,65.3h7v7h-7V65.3z M740.4,72.6h7v7h-7V72.6z M740.4,116.1h7v7h-7V116.1z M740.4,130.7h7v7h-7V130.7z M740.4,137.9h7v7h-7
	V137.9z M740.4,145.2h7v7h-7V145.2z M740.4,152.4h7v7h-7V152.4z M740.4,159.7h7v7h-7V159.7z M740.4,167h7v7h-7V167z M740.4,174.2h7
	v7h-7V174.2z M740.4,181.5h7v7h-7V181.5z M740.4,188.8h7v7h-7V188.8z M740.4,196h7v7h-7V196z M740.4,203.3h7v7h-7V203.3z
	 M740.4,210.5h7v7h-7V210.5z M740.4,217.8h7v7h-7V217.8z M740.4,239.6h7v7h-7V239.6z M740.4,246.8h7v7h-7V246.8z M740.4,254.1h7v7
	h-7V254.1z M740.4,261.4h7v7h-7V261.4z M740.4,268.6h7v7h-7V268.6z M740.4,275.9h7v7h-7V275.9z M740.4,283.1h7v7h-7V283.1z
	 M740.4,290.4h7v7h-7V290.4z M740.4,297.6h7v7h-7V297.6z M740.4,304.9h7v7h-7V304.9z M740.4,312.2h7v7h-7V312.2z M740.4,319.4h7v7
	h-7V319.4z M740.4,326.7h7v7h-7V326.7z M740.4,334h7v7h-7V334z M740.4,341.2h7v7h-7V341.2z M740.4,348.5h7v7h-7V348.5z M740.4,355.7
	h7v7h-7V355.7z M740.4,363h7v7h-7V363z M740.4,370.2h7v7h-7V370.2z M740.4,377.5h7v7h-7V377.5z M747.7,29h7v7h-7V29z M747.7,50.8h7
	v7h-7V50.8z M747.7,65.3h7v7h-7V65.3z M747.7,72.6h7v7h-7V72.6z M747.7,116.1h7v7h-7V116.1z M747.7,130.7h7v7h-7V130.7z
	 M747.7,137.9h7v7h-7V137.9z M747.7,145.2h7v7h-7V145.2z M747.7,152.4h7v7h-7V152.4z M747.7,159.7h7v7h-7V159.7z M747.7,167h7v7h-7
	V167z M747.7,174.2h7v7h-7V174.2z M747.7,181.5h7v7h-7V181.5z M747.7,188.8h7v7h-7V188.8z M747.7,196h7v7h-7V196z M747.7,210.5h7v7
	h-7V210.5z M747.7,217.8h7v7h-7V217.8z M747.7,254.1h7v7h-7V254.1z M747.7,261.4h7v7h-7V261.4z M747.7,268.6h7v7h-7V268.6z
	 M747.7,275.9h7v7h-7V275.9z M747.7,283.1h7v7h-7V283.1z M747.7,290.4h7v7h-7V290.4z M747.7,297.6h7v7h-7V297.6z M747.7,304.9h7v7
	h-7V304.9z M747.7,312.2h7v7h-7V312.2z M747.7,319.4h7v7h-7V319.4z M747.7,326.7h7v7h-7V326.7z M747.7,334h7v7h-7V334z M747.7,341.2
	h7v7h-7V341.2z M747.7,348.5h7v7h-7V348.5z M747.7,355.7h7v7h-7V355.7z M747.7,363h7v7h-7V363z M747.7,370.2h7v7h-7V370.2z
	 M747.7,377.5h7v7h-7V377.5z M755,29h7v7h-7V29z M755,58.1h7v7h-7V58.1z M755,65.3h7v7h-7V65.3z M755,72.6h7v7h-7V72.6z M755,116.1
	h7v7h-7V116.1z M755,137.9h7v7h-7V137.9z M755,145.2h7v7h-7V145.2z M755,152.4h7v7h-7V152.4z M755,159.7h7v7h-7V159.7z M755,167h7v7
	h-7V167z M755,174.2h7v7h-7V174.2z M755,181.5h7v7h-7V181.5z M755,188.8h7v7h-7V188.8z M755,203.3h7v7h-7V203.3z M755,210.5h7v7h-7
	V210.5z M755,268.6h7v7h-7V268.6z M755,275.9h7v7h-7V275.9z M755,283.1h7v7h-7V283.1z M755,290.4h7v7h-7V290.4z M755,297.6h7v7h-7
	V297.6z M755,304.9h7v7h-7V304.9z M755,312.2h7v7h-7V312.2z M755,319.4h7v7h-7V319.4z M755,326.7h7v7h-7V326.7z M755,334h7v7h-7V334
	z M755,341.2h7v7h-7V341.2z M755,348.5h7v7h-7V348.5z M755,355.7h7v7h-7V355.7z M755,363h7v7h-7V363z M755,370.2h7v7h-7V370.2z
	 M755,377.5h7v7h-7V377.5z M762.2,29h7v7h-7V29z M762.2,43.6h7v7h-7V43.6z M762.2,50.8h7v7h-7V50.8z M762.2,65.3h7v7h-7V65.3z
	 M762.2,72.6h7v7h-7V72.6z M762.2,116.1h7v7h-7V116.1z M762.2,123.4h7v7h-7V123.4z M762.2,130.7h7v7h-7V130.7z M762.2,137.9h7v7h-7
	V137.9z M762.2,145.2h7v7h-7V145.2z M762.2,152.4h7v7h-7V152.4z M762.2,188.8h7v7h-7V188.8z M762.2,196h7v7h-7V196z M762.2,203.3h7
	v7h-7V203.3z M762.2,283.1h7v7h-7V283.1z M762.2,290.4h7v7h-7V290.4z M762.2,297.6h7v7h-7V297.6z M762.2,304.9h7v7h-7V304.9z
	 M762.2,312.2h7v7h-7V312.2z M762.2,319.4h7v7h-7V319.4z M762.2,326.7h7v7h-7V326.7z M762.2,334h7v7h-7V334z M762.2,341.2h7v7h-7
	V341.2z M762.2,348.5h7v7h-7V348.5z M762.2,355.7h7v7h-7V355.7z M762.2,363h7v7h-7V363z M762.2,370.2h7v7h-7V370.2z M762.2,377.5h7
	v7h-7V377.5z M769.5,29h7v7h-7V29z M769.5,36.3h7v7h-7V36.3z M769.5,50.8h7v7h-7V50.8z M769.5,58.1h7v7h-7V58.1z M769.5,65.3h7v7h-7
	V65.3z M769.5,72.6h7v7h-7V72.6z M769.5,130.7h7v7h-7V130.7z M769.5,137.9h7v7h-7V137.9z M769.5,145.2h7v7h-7V145.2z M769.5,152.4h7
	v7h-7V152.4z M769.5,159.7h7v7h-7V159.7z M769.5,167h7v7h-7V167z M769.5,174.2h7v7h-7V174.2z M769.5,181.5h7v7h-7V181.5z
	 M769.5,188.8h7v7h-7V188.8z M769.5,297.6h7v7h-7V297.6z M769.5,304.9h7v7h-7V304.9z M769.5,312.2h7v7h-7V312.2z M769.5,319.4h7v7
	h-7V319.4z M769.5,326.7h7v7h-7V326.7z M769.5,334h7v7h-7V334z M769.5,341.2h7v7h-7V341.2z M769.5,348.5h7v7h-7V348.5z M769.5,355.7
	h7v7h-7V355.7z M769.5,363h7v7h-7V363z M769.5,370.2h7v7h-7V370.2z M769.5,377.5h7v7h-7V377.5z M776.7,29h7v7h-7V29z M776.7,36.3h7
	v7h-7V36.3z M776.7,43.6h7v7h-7V43.6z M776.7,58.1h7v7h-7V58.1z M776.7,65.3h7v7h-7V65.3z M776.7,72.6h7v7h-7V72.6z M776.7,312.2h7
	v7h-7V312.2z M776.7,319.4h7v7h-7V319.4z M776.7,326.7h7v7h-7V326.7z M776.7,334h7v7h-7V334z M776.7,341.2h7v7h-7V341.2z
	 M776.7,348.5h7v7h-7V348.5z M776.7,355.7h7v7h-7V355.7z M776.7,363h7v7h-7V363z M776.7,370.2h7v7h-7V370.2z M776.7,377.5h7v7h-7
	V377.5z M733.2,384.8h7v7h-7V384.8z M733.2,392h7v7h-7V392z M733.2,399.3h7v7h-7V399.3z M740.4,384.8h7v7h-7V384.8z M740.4,392h7v7
	h-7V392z M740.4,399.3h7v7h-7V399.3z M740.4,406.6h7v7h-7V406.6z M740.4,413.8h7v7h-7V413.8z M740.4,421.1h7v7h-7V421.1z
	 M740.4,428.3h7v7h-7V428.3z M747.7,384.8h7v7h-7V384.8z M747.7,392h7v7h-7V392z M747.7,399.3h7v7h-7V399.3z M747.7,406.6h7v7h-7
	V406.6z M747.7,413.8h7v7h-7V413.8z M747.7,442.8h7v7h-7V442.8z M755,384.8h7v7h-7V384.8z M755,392h7v7h-7V392z M755,399.3h7v7h-7
	V399.3z M762.2,384.8h7v7h-7V384.8z M762.2,392h7v7h-7V392z M762.2,399.3h7v7h-7V399.3z M762.2,406.6h7v7h-7V406.6z M762.2,413.8h7
	v7h-7V413.8z M762.2,421.1h7v7h-7V421.1z M762.2,428.3h7v7h-7V428.3z M762.2,435.6h7v7h-7V435.6z M762.2,442.8h7v7h-7V442.8z
	 M762.2,450.1h7v7h-7V450.1z M769.5,384.8h7v7h-7V384.8z M769.5,392h7v7h-7V392z M769.5,399.3h7v7h-7V399.3z M769.5,406.6h7v7h-7
	V406.6z M769.5,413.8h7v7h-7V413.8z M769.5,421.1h7v7h-7V421.1z M769.5,428.3h7v7h-7V428.3z M769.5,435.6h7v7h-7V435.6z
	 M769.5,442.8h7v7h-7V442.8z M769.5,450.1h7v7h-7V450.1z M776.7,384.8h7v7h-7V384.8z M776.7,392h7v7h-7V392z M776.7,399.3h7v7h-7
	V399.3z M776.7,406.6h7v7h-7V406.6z M776.7,413.8h7v7h-7V413.8z M776.7,421.1h7v7h-7V421.1z M776.7,428.3h7v7h-7V428.3z
	 M776.7,435.6h7v7h-7V435.6z M776.7,442.8h7v7h-7V442.8z M776.7,450.1h7v7h-7V450.1z M755,479.2h7v7h-7V479.2z M755,493.7h7v7h-7
	V493.7z M762.2,457.4h7v7h-7V457.4z M762.2,464.6h7v7h-7V464.6z M762.2,471.9h7v7h-7V471.9z M762.2,500.9h7v7h-7V500.9z
	 M769.5,457.4h7v7h-7V457.4z M769.5,464.6h7v7h-7V464.6z M769.5,493.7h7v7h-7V493.7z M769.5,508.2h7v7h-7V508.2z M776.7,457.4h7v7
	h-7V457.4z M776.7,464.6h7v7h-7V464.6z M776.7,471.9h7v7h-7V471.9z M776.7,479.2h7v7h-7V479.2z M776.7,500.9h7v7h-7V500.9z
	 M711.4,551.8h7v7h-7V551.8z M711.4,566.3h7v7h-7V566.3z M711.4,580.8h7v7h-7V580.8z M718.7,559h7v7h-7V559z M718.7,573.5h7v7h-7
	V573.5z M725.9,566.3h7v7h-7V566.3z M725.9,580.8h7v7h-7V580.8z M784,36.3h7v7h-7V36.3z M784,50.8h7v7h-7V50.8z M784,58.1h7v7h-7
	V58.1z M784,65.3h7v7h-7V65.3z M784,72.6h7v7h-7V72.6z M784,319.4h7v7h-7V319.4z M784,326.7h7v7h-7V326.7z M784,334h7v7h-7V334z
	 M784,341.2h7v7h-7V341.2z M784,348.5h7v7h-7V348.5z M784,355.7h7v7h-7V355.7z M784,363h7v7h-7V363z M784,370.2h7v7h-7V370.2z
	 M784,377.5h7v7h-7V377.5z M791.3,36.3h7v7h-7V36.3z M791.3,43.6h7v7h-7V43.6z M791.3,58.1h7v7h-7V58.1z M791.3,65.3h7v7h-7V65.3z
	 M791.3,72.6h7v7h-7V72.6z M791.3,79.9h7v7h-7V79.9z M791.3,326.7h7v7h-7V326.7z M791.3,334h7v7h-7V334z M791.3,341.2h7v7h-7V341.2z
	 M791.3,348.5h7v7h-7V348.5z M791.3,355.7h7v7h-7V355.7z M791.3,363h7v7h-7V363z M791.3,370.2h7v7h-7V370.2z M791.3,377.5h7v7h-7
	V377.5z M798.5,43.6h7v7h-7V43.6z M798.5,50.8h7v7h-7V50.8z M798.5,65.3h7v7h-7V65.3z M798.5,72.6h7v7h-7V72.6z M798.5,79.9h7v7h-7
	V79.9z M798.5,348.5h7v7h-7V348.5z M798.5,355.7h7v7h-7V355.7z M798.5,363h7v7h-7V363z M798.5,370.2h7v7h-7V370.2z M798.5,377.5h7v7
	h-7V377.5z M805.8,50.8h7v7h-7V50.8z M805.8,72.6h7v7h-7V72.6z M805.8,79.9h7v7h-7V79.9z M805.8,87.1h7v7h-7V87.1z M805.8,355.7h7v7
	h-7V355.7z M805.8,363h7v7h-7V363z M805.8,370.2h7v7h-7V370.2z M805.8,377.5h7v7h-7V377.5z M813,50.8h7v7h-7V50.8z M813,58.1h7v7h-7
	V58.1z M813,79.9h7v7h-7V79.9z M813,87.1h7v7h-7V87.1z M813,94.4h7v7h-7V94.4z M813,363h7v7h-7V363z M813,370.2h7v7h-7V370.2z
	 M813,377.5h7v7h-7V377.5z M820.3,58.1h7v7h-7V58.1z M820.3,65.3h7v7h-7V65.3z M820.3,72.6h7v7h-7V72.6z M820.3,79.9h7v7h-7V79.9z
	 M820.3,87.1h7v7h-7V87.1z M820.3,94.4h7v7h-7V94.4z M820.3,101.6h7v7h-7V101.6z M820.3,370.2h7v7h-7V370.2z M820.3,377.5h7v7h-7
	V377.5z M827.6,65.3h7v7h-7V65.3z M827.6,72.6h7v7h-7V72.6z M827.6,79.9h7v7h-7V79.9z M827.6,87.1h7v7h-7V87.1z M827.6,94.4h7v7h-7
	V94.4z M827.6,101.6h7v7h-7V101.6z M827.6,108.9h7v7h-7V108.9z M827.6,377.5h7v7h-7V377.5z M834.8,72.6h7v7h-7V72.6z M834.8,79.9h7
	v7h-7V79.9z M834.8,87.1h7v7h-7V87.1z M834.8,94.4h7v7h-7V94.4z M834.8,101.6h7v7h-7V101.6z M834.8,108.9h7v7h-7V108.9z
	 M834.8,116.1h7v7h-7V116.1z M834.8,123.4h7v7h-7V123.4z M842.1,94.4h7v7h-7V94.4z M842.1,87.1h7v7h-7V87.1z M842.1,79.9h7v7h-7
	V79.9z M842.1,101.6h7v7h-7V101.6z M842.1,108.9h7v7h-7V108.9z M842.1,116.1h7v7h-7V116.1z M842.1,123.4h7v7h-7V123.4z M842.1,130.7
	h7v7h-7V130.7z M849.3,94.4h7v7h-7V94.4z M849.3,101.6h7v7h-7V101.6z M849.3,108.9h7v7h-7V108.9z M849.3,116.1h7v7h-7V116.1z
	 M849.3,123.4h7v7h-7V123.4z M849.3,130.7h7v7h-7V130.7z M849.3,137.9h7v7h-7V137.9z M784,384.8h7v7h-7V384.8z M784,392h7v7h-7V392z
	 M784,399.3h7v7h-7V399.3z M784,406.6h7v7h-7V406.6z M784,413.8h7v7h-7V413.8z M784,421.1h7v7h-7V421.1z M784,428.3h7v7h-7V428.3z
	 M784,435.6h7v7h-7V435.6z M784,442.8h7v7h-7V442.8z M784,450.1h7v7h-7V450.1z M791.3,384.8h7v7h-7V384.8z M791.3,392h7v7h-7V392z
	 M791.3,399.3h7v7h-7V399.3z M791.3,406.6h7v7h-7V406.6z M791.3,413.8h7v7h-7V413.8z M791.3,421.1h7v7h-7V421.1z M791.3,428.3h7v7
	h-7V428.3z M791.3,435.6h7v7h-7V435.6z M791.3,442.8h7v7h-7V442.8z M791.3,450.1h7v7h-7V450.1z M798.5,384.8h7v7h-7V384.8z
	 M798.5,392h7v7h-7V392z M798.5,399.3h7v7h-7V399.3z M798.5,406.6h7v7h-7V406.6z M798.5,413.8h7v7h-7V413.8z M798.5,421.1h7v7h-7
	V421.1z M798.5,428.3h7v7h-7V428.3z M798.5,435.6h7v7h-7V435.6z M798.5,442.8h7v7h-7V442.8z M798.5,450.1h7v7h-7V450.1z
	 M805.8,384.8h7v7h-7V384.8z M805.8,392h7v7h-7V392z M805.8,399.3h7v7h-7V399.3z M805.8,406.6h7v7h-7V406.6z M805.8,413.8h7v7h-7
	V413.8z M805.8,421.1h7v7h-7V421.1z M805.8,428.3h7v7h-7V428.3z M805.8,435.6h7v7h-7V435.6z M805.8,442.8h7v7h-7V442.8z
	 M805.8,450.1h7v7h-7V450.1z M813,384.8h7v7h-7V384.8z M813,392h7v7h-7V392z M813,399.3h7v7h-7V399.3z M813,406.6h7v7h-7V406.6z
	 M813,413.8h7v7h-7V413.8z M813,421.1h7v7h-7V421.1z M813,428.3h7v7h-7V428.3z M813,435.6h7v7h-7V435.6z M813,442.8h7v7h-7V442.8z
	 M813,450.1h7v7h-7V450.1z M820.3,384.8h7v7h-7V384.8z M820.3,392h7v7h-7V392z M820.3,399.3h7v7h-7V399.3z M820.3,406.6h7v7h-7
	V406.6z M820.3,413.8h7v7h-7V413.8z M820.3,421.1h7v7h-7V421.1z M820.3,428.3h7v7h-7V428.3z M820.3,435.6h7v7h-7V435.6z
	 M820.3,442.8h7v7h-7V442.8z M820.3,450.1h7v7h-7V450.1z M827.6,384.8h7v7h-7V384.8z M827.6,392h7v7h-7V392z M827.6,399.3h7v7h-7
	V399.3z M827.6,406.6h7v7h-7V406.6z M827.6,413.8h7v7h-7V413.8z M827.6,421.1h7v7h-7V421.1z M827.6,428.3h7v7h-7V428.3z
	 M827.6,435.6h7v7h-7V435.6z M827.6,442.8h7v7h-7V442.8z M827.6,450.1h7v7h-7V450.1z M834.8,384.8h7v7h-7V384.8z M834.8,392h7v7h-7
	V392z M834.8,399.3h7v7h-7V399.3z M834.8,406.6h7v7h-7V406.6z M834.8,413.8h7v7h-7V413.8z M834.8,421.1h7v7h-7V421.1z M834.8,428.3
	h7v7h-7V428.3z M834.8,435.6h7v7h-7V435.6z M834.8,442.8h7v7h-7V442.8z M834.8,450.1h7v7h-7V450.1z M842.1,392h7v7h-7V392z
	 M842.1,399.3h7v7h-7V399.3z M842.1,406.6h7v7h-7V406.6z M842.1,413.8h7v7h-7V413.8z M842.1,421.1h7v7h-7V421.1z M842.1,428.3h7v7
	h-7V428.3z M842.1,435.6h7v7h-7V435.6z M842.1,442.8h7v7h-7V442.8z M842.1,450.1h7v7h-7V450.1z M849.3,399.3h7v7h-7V399.3z
	 M849.3,406.6h7v7h-7V406.6z M849.3,413.8h7v7h-7V413.8z M849.3,421.1h7v7h-7V421.1z M849.3,428.3h7v7h-7V428.3z M849.3,435.6h7v7
	h-7V435.6z M849.3,442.8h7v7h-7V442.8z M849.3,450.1h7v7h-7V450.1z M784,457.4h7v7h-7V457.4z M784,464.6h7v7h-7V464.6z M784,471.9h7
	v7h-7V471.9z M784,479.2h7v7h-7V479.2z M784,486.4h7v7h-7V486.4z M784,500.9h7v7h-7V500.9z M791.3,457.4h7v7h-7V457.4z M791.3,464.6
	h7v7h-7V464.6z M791.3,471.9h7v7h-7V471.9z M791.3,479.2h7v7h-7V479.2z M791.3,486.4h7v7h-7V486.4z M791.3,493.7h7v7h-7V493.7z
	 M791.3,500.9h7v7h-7V500.9z M791.3,508.2h7v7h-7V508.2z M791.3,515.4h7v7h-7V515.4z M798.5,457.4h7v7h-7V457.4z M798.5,464.6h7v7
	h-7V464.6z M798.5,471.9h7v7h-7V471.9z M798.5,479.2h7v7h-7V479.2z M798.5,486.4h7v7h-7V486.4z M798.5,493.7h7v7h-7V493.7z
	 M798.5,500.9h7v7h-7V500.9z M805.8,457.4h7v7h-7V457.4z M805.8,464.6h7v7h-7V464.6z M805.8,471.9h7v7h-7V471.9z M805.8,479.2h7v7
	h-7V479.2z M805.8,486.4h7v7h-7V486.4z M805.8,508.2h7v7h-7V508.2z M813,457.4h7v7h-7V457.4z M813,464.6h7v7h-7V464.6z M813,471.9h7
	v7h-7V471.9z M813,479.2h7v7h-7V479.2z M813,486.4h7v7h-7V486.4z M813,493.7h7v7h-7V493.7z M813,515.4h7v7h-7V515.4z M820.3,457.4h7
	v7h-7V457.4z M820.3,464.6h7v7h-7V464.6z M820.3,471.9h7v7h-7V471.9z M820.3,479.2h7v7h-7V479.2z M820.3,486.4h7v7h-7V486.4z
	 M820.3,493.7h7v7h-7V493.7z M820.3,500.9h7v7h-7V500.9z M827.6,457.4h7v7h-7V457.4z M827.6,464.6h7v7h-7V464.6z M827.6,471.9h7v7
	h-7V471.9z M827.6,479.2h7v7h-7V479.2z M827.6,486.4h7v7h-7V486.4z M827.6,500.9h7v7h-7V500.9z M827.6,508.2h7v7h-7V508.2z
	 M827.6,515.4h7v7h-7V515.4z M834.8,457.4h7v7h-7V457.4z M834.8,464.6h7v7h-7V464.6z M834.8,471.9h7v7h-7V471.9z M834.8,479.2h7v7
	h-7V479.2z M834.8,493.7h7v7h-7V493.7z M834.8,500.9h7v7h-7V500.9z M834.8,508.2h7v7h-7V508.2z M834.8,515.4h7v7h-7V515.4z
	 M834.8,522.7h7v7h-7V522.7z M842.1,457.4h7v7h-7V457.4z M842.1,464.6h7v7h-7V464.6z M842.1,471.9h7v7h-7V471.9z M842.1,479.2h7v7
	h-7V479.2z M842.1,486.4h7v7h-7V486.4z M842.1,493.7h7v7h-7V493.7z M842.1,500.9h7v7h-7V500.9z M849.3,457.4h7v7h-7V457.4z
	 M849.3,464.6h7v7h-7V464.6z M849.3,471.9h7v7h-7V471.9z M849.3,479.2h7v7h-7V479.2z M849.3,486.4h7v7h-7V486.4z M849.3,493.7h7v7
	h-7V493.7z M849.3,500.9h7v7h-7V500.9z M849.3,508.2h7v7h-7V508.2z M384.7,588h7v7h-7V588z M392,588h7v7h-7V588z M399.2,588h7v7h-7
	V588z M406.5,588h7v7h-7V588z M413.7,588h7v7h-7V588z M421,588h7v7h-7V588z M428.3,588h7v7h-7V588z M435.5,588h7v7h-7V588z
	 M442.8,588h7v7h-7V588z M450,588h7v7h-7V588z M457.3,588h7v7h-7V588z M464.6,588h7v7h-7V588z M471.8,588h7v7h-7V588z M479.1,588h7
	v7h-7V588z M486.3,588h7v7h-7V588z M493.6,588h7v7h-7V588z M500.9,588h7v7h-7V588z M508.1,588h7v7h-7V588z M638.8,588h7v7h-7V588z
	 M646.1,588h7v7h-7V588z M653.3,588h7v7h-7V588z M660.6,588h7v7h-7V588z M667.8,588h7v7h-7V588z M675.1,588h7v7h-7V588z M682.4,588
	h7v7h-7V588z M689.6,588h7v7h-7V588z M696.9,588h7v7h-7V588z M704.1,588h7v7h-7V588z M718.7,588h7v7h-7V588z M733.2,588h7v7h-7V588z
	 M856.6,406.6h7v7h-7V406.6z M856.6,413.8h7v7h-7V413.8z M856.6,421.1h7v7h-7V421.1z M856.6,428.3h7v7h-7V428.3z M856.6,435.6h7v7
	h-7V435.6z M856.6,442.8h7v7h-7V442.8z M856.6,450.1h7v7h-7V450.1z M863.9,406.6h7v7h-7V406.6z M863.9,413.8h7v7h-7V413.8z
	 M863.9,421.1h7v7h-7V421.1z M863.9,428.3h7v7h-7V428.3z M863.9,435.6h7v7h-7V435.6z M863.9,442.8h7v7h-7V442.8z M863.9,450.1h7v7
	h-7V450.1z M856.6,457.4h7v7h-7V457.4z M856.6,464.6h7v7h-7V464.6z M856.6,471.9h7v7h-7V471.9z M856.6,479.2h7v7h-7V479.2z
	 M856.6,486.4h7v7h-7V486.4z M856.6,493.7h7v7h-7V493.7z M856.6,500.9h7v7h-7V500.9z M856.6,508.2h7v7h-7V508.2z M863.9,457.4h7v7
	h-7V457.4z M863.9,464.6h7v7h-7V464.6z M863.9,471.9h7v7h-7V471.9z M863.9,479.2h7v7h-7V479.2z M326.6,123.3h7v7h-7V123.3z
	 M326.6,130.6h7v7h-7V130.6z M326.6,137.8h7v7h-7V137.8z M326.6,145.1h7v7h-7V145.1z M326.6,152.3h7v7h-7V152.3z M333.9,116h7v7h-7
	V116z M333.9,123.3h7v7h-7V123.3z M333.9,130.6h7v7h-7V130.6z M333.9,137.8h7v7h-7V137.8z M333.9,145.1h7v7h-7V145.1z M333.9,152.3
	h7v7h-7V152.3z M333.9,159.6h7v7h-7V159.6z M341.2,159.6h7v7h-7V159.6z M341.2,108.8h7v7h-7V108.8z M341.2,116h7v7h-7V116z
	 M341.2,137.8h7v7h-7V137.8z M341.2,166.9h7v7h-7V166.9z M348.4,108.8h7v7h-7V108.8z M348.4,116h7v7h-7V116z M348.4,137.8h7v7h-7
	V137.8z M348.4,166.9h7v7h-7V166.9z M355.7,108.8h7v7h-7V108.8z M355.7,116h7v7h-7V116z M355.7,137.8h7v7h-7V137.8z M355.7,166.9h7
	v7h-7V166.9z M362.9,116h7v7h-7V116z M362.9,123.3h7v7h-7V123.3z M362.9,137.8h7v7h-7V137.8z M362.9,159.6h7v7h-7V159.6z
	 M362.9,166.9h7v7h-7V166.9z M370.2,123.3h7v7h-7V123.3z M370.2,130.6h7v7h-7V130.6z M370.2,137.8h7v7h-7V137.8z M370.2,159.6h7v7
	h-7V159.6z"/>
</svg>
