<?xml version="1.0" encoding="utf-8"?>
<!-- Generator: Adobe Illustrator 27.3.1, SVG Export Plug-In . SVG Version: 6.00 Build 0)  -->
<svg version="1.1" id="Слой_1" xmlns:ev="http://www.w3.org/2001/xml-events"
	 xmlns="http://www.w3.org/2000/svg" xmlns:xlink="http://www.w3.org/1999/xlink" x="0px" y="0px" viewBox="0 0 871 595"
	 style="enable-background:new 0 0 871 595;" xml:space="preserve">
<style type="text/css">
	.st0{fill:#1E0E01;}
</style>
<path class="st0" d="M580.9,21.7h7v7h-7V21.7z M588.1,21.7h7v7h-7V21.7z M595.4,21.7h7v7h-7V21.7z M602.7,21.7h7v7h-7V21.7z
	 M609.9,21.7h7v7h-7V21.7z M617.2,21.7h7v7h-7V21.7z M624.4,21.7h7v7h-7V21.7z M631.7,21.7h7v7h-7V21.7z M639,21.7h7v7h-7V21.7z
	 M551.8,29h7v7h-7V29z M559.1,29h7v7h-7V29z M566.4,29h7v7h-7V29z M573.6,29h7v7h-7V29z M580.9,29h7v7h-7V29z M602.7,29h7v7h-7V29z
	 M646.2,29h7v7h-7V29z M653.5,29h7v7h-7V29z M530.1,36.2h7v7h-7V36.2z M537.3,36.2h7v7h-7V36.2z M544.6,36.2h7v7h-7V36.2z
	 M551.8,36.2h7v7h-7V36.2z M559.1,36.2h7v7h-7V36.2z M580.9,36.2h7v7h-7V36.2z M588.1,36.2h7v7h-7V36.2z M602.7,36.2h7v7h-7V36.2z
	 M609.9,36.2h7v7h-7V36.2z M653.5,36.2h7v7h-7V36.2z M660.7,36.2h7v7h-7V36.2z M493.8,43.5h7v7h-7V43.5z M501,43.5h7v7h-7V43.5z
	 M508.3,43.5h7v7h-7V43.5z M515.5,43.5h7v7h-7V43.5z M522.8,43.5h7v7h-7V43.5z M530.1,43.5h7v7h-7V43.5z M537.3,43.5h7v7h-7V43.5z
	 M544.6,43.5h7v7h-7V43.5z M559.1,43.5h7v7h-7V43.5z M566.4,43.5h7v7h-7V43.5z M588.1,43.5h7v7h-7V43.5z M609.9,43.5h7v7h-7V43.5z
	 M617.2,43.5h7v7h-7V43.5z M668,43.5h7v7h-7V43.5z M675.3,43.5h7v7h-7V43.5z M486.5,50.8h7v7h-7V50.8z M493.8,50.8h7v7h-7V50.8z
	 M501,50.8h7v7h-7V50.8z M515.5,50.8h7v7h-7V50.8z M522.8,50.8h7v7h-7V50.8z M530.1,50.8h7v7h-7V50.8z M537.3,50.8h7v7h-7V50.8z
	 M544.6,50.8h7v7h-7V50.8z M559.1,50.8h7v7h-7V50.8z M566.4,50.8h7v7h-7V50.8z M573.6,50.8h7v7h-7V50.8z M675.3,50.8h7v7h-7V50.8z
	 M682.5,50.8h7v7h-7V50.8z M486.5,58h7v7h-7V58z M493.8,58h7v7h-7V58z M501,58h7v7h-7V58z M508.3,58h7v7h-7V58z M515.5,58h7v7h-7V58
	z M537.3,58h7v7h-7V58z M544.6,58h7v7h-7V58z M559.1,58h7v7h-7V58z M580.9,58h7v7h-7V58z M588.1,58h7v7h-7V58z M689.8,58h7v7h-7V58z
	 M697,58h7v7h-7V58z M486.5,65.3h7v7h-7V65.3z M493.8,65.3h7v7h-7V65.3z M537.3,65.3h7v7h-7V65.3z M551.8,65.3h7v7h-7V65.3z
	 M559.1,65.3h7v7h-7V65.3z M566.4,65.3h7v7h-7V65.3z M588.1,65.3h7v7h-7V65.3z M595.4,65.3h7v7h-7V65.3z M704.3,65.3h7v7h-7V65.3z
	 M711.6,65.3h7v7h-7V65.3z M479.2,72.5h7v7h-7V72.5z M486.5,72.5h7v7h-7V72.5z M493.8,72.5h7v7h-7V72.5z M501,72.5h7v7h-7V72.5z
	 M508.3,72.5h7v7h-7V72.5z M515.5,72.5h7v7h-7V72.5z M522.8,72.5h7v7h-7V72.5z M530.1,72.5h7v7h-7V72.5z M537.3,72.5h7v7h-7V72.5z
	 M551.8,72.5h7v7h-7V72.5z M559.1,72.5h7v7h-7V72.5z M566.4,72.5h7v7h-7V72.5z M602.7,72.5h7v7h-7V72.5z M711.6,72.5h7v7h-7V72.5z
	 M718.8,72.5h7v7h-7V72.5z M530.1,79.8h7v7h-7V79.8z M544.6,79.8h7v7h-7V79.8z M551.8,79.8h7v7h-7V79.8z M566.4,79.8h7v7h-7V79.8z
	 M602.7,79.8h7v7h-7V79.8z M609.9,79.8h7v7h-7V79.8z M617.2,79.8h7v7h-7V79.8z M718.8,79.8h7v7h-7V79.8z M726.1,79.8h7v7h-7V79.8z
	 M733.3,79.8h7v7h-7V79.8z M522.8,87.1h7v7h-7V87.1z M544.6,87.1h7v7h-7V87.1z M551.8,87.1h7v7h-7V87.1z M609.9,87.1h7v7h-7V87.1z
	 M617.2,87.1h7v7h-7V87.1z M624.4,87.1h7v7h-7V87.1z M704.3,87.1h7v7h-7V87.1z M711.6,87.1h7v7h-7V87.1z M733.3,87.1h7v7h-7V87.1z
	 M740.6,87.1h7v7h-7V87.1z M515.5,94.3h7v7h-7V94.3z M522.8,94.3h7v7h-7V94.3z M537.3,94.3h7v7h-7V94.3z M544.6,94.3h7v7h-7V94.3z
	 M551.8,94.3h7v7h-7V94.3z M609.9,94.3h7v7h-7V94.3z M624.4,94.3h7v7h-7V94.3z M631.7,94.3h7v7h-7V94.3z M639,94.3h7v7h-7V94.3z
	 M711.6,94.3h7v7h-7V94.3z M747.9,94.3h7v7h-7V94.3z M755.1,94.3h7v7h-7V94.3z M515.5,101.6h7v7h-7V101.6z M537.3,101.6h7v7h-7
	V101.6z M544.6,101.6h7v7h-7V101.6z M551.8,101.6h7v7h-7V101.6z M588.1,101.6h7v7h-7V101.6z M595.4,101.6h7v7h-7V101.6z
	 M609.9,101.6h7v7h-7V101.6z M617.2,101.6h7v7h-7V101.6z M631.7,101.6h7v7h-7V101.6z M639,101.6h7v7h-7V101.6z M646.2,101.6h7v7h-7
	V101.6z M689.8,101.6h7v7h-7V101.6z M718.8,101.6h7v7h-7V101.6z M755.1,101.6h7v7h-7V101.6z M762.4,101.6h7v7h-7V101.6z
	 M508.3,108.8h7v7h-7V108.8z M515.5,108.8h7v7h-7V108.8z M537.3,108.8h7v7h-7V108.8z M544.6,108.8h7v7h-7V108.8z M551.8,108.8h7v7
	h-7V108.8z M573.6,108.8h7v7h-7V108.8z M573.6,101.6h7v7h-7V101.6z M580.9,101.6h7v7h-7V101.6z M595.4,108.8h7v7h-7V108.8z
	 M609.9,108.8h7v7h-7V108.8z M617.2,108.8h7v7h-7V108.8z M624.4,108.8h7v7h-7V108.8z M646.2,108.8h7v7h-7V108.8z M653.5,108.8h7v7
	h-7V108.8z M689.8,108.8h7v7h-7V108.8z M697,108.8h7v7h-7V108.8z M718.8,108.8h7v7h-7V108.8z M740.6,108.8h7v7h-7V108.8z
	 M747.9,108.8h7v7h-7V108.8z M762.4,108.8h7v7h-7V108.8z M769.6,108.8h7v7h-7V108.8z M508.3,116.1h7v7h-7V116.1z M537.3,116.1h7v7
	h-7V116.1z M544.6,116.1h7v7h-7V116.1z M551.8,116.1h7v7h-7V116.1z M573.6,116.1h7v7h-7V116.1z M595.4,116.1h7v7h-7V116.1z
	 M609.9,116.1h7v7h-7V116.1z M617.2,116.1h7v7h-7V116.1z M624.4,116.1h7v7h-7V116.1z M631.7,116.1h7v7h-7V116.1z M639,116.1h7v7h-7
	V116.1z M660.7,116.1h7v7h-7V116.1z M668,116.1h7v7h-7V116.1z M675.3,116.1h7v7h-7V116.1z M682.5,116.1h7v7h-7V116.1z M689.8,116.1
	h7v7h-7V116.1z M704.3,116.1h7v7h-7V116.1z M726.1,116.1h7v7h-7V116.1z M747.9,116.1h7v7h-7V116.1z M755.1,116.1h7v7h-7V116.1z
	 M762.4,116.1h7v7h-7V116.1z M776.9,116.1h7v7h-7V116.1z M501,123.4h7v7h-7V123.4z M508.3,123.4h7v7h-7V123.4z M537.3,123.4h7v7h-7
	V123.4z M544.6,123.4h7v7h-7V123.4z M573.6,123.4h7v7h-7V123.4z M595.4,123.4h7v7h-7V123.4z M609.9,123.4h7v7h-7V123.4z
	 M624.4,123.4h7v7h-7V123.4z M631.7,123.4h7v7h-7V123.4z M639,123.4h7v7h-7V123.4z M646.2,123.4h7v7h-7V123.4z M653.5,123.4h7v7h-7
	V123.4z M660.7,123.4h7v7h-7V123.4z M668,123.4h7v7h-7V123.4z M675.3,123.4h7v7h-7V123.4z M711.6,123.4h7v7h-7V123.4z M733.3,123.4
	h7v7h-7V123.4z M747.9,123.4h7v7h-7V123.4z M776.9,123.4h7v7h-7V123.4z M784.2,123.4h7v7h-7V123.4z M501,130.6h7v7h-7V130.6z
	 M508.3,130.6h7v7h-7V130.6z M537.3,130.6h7v7h-7V130.6z M544.6,130.6h7v7h-7V130.6z M573.6,130.6h7v7h-7V130.6z M595.4,130.6h7v7
	h-7V130.6z M609.9,130.6h7v7h-7V130.6z M624.4,130.6h7v7h-7V130.6z M631.7,130.6h7v7h-7V130.6z M646.2,130.6h7v7h-7V130.6z
	 M668,130.6h7v7h-7V130.6z M675.3,130.6h7v7h-7V130.6z M682.5,130.6h7v7h-7V130.6z M711.6,130.6h7v7h-7V130.6z M718.8,130.6h7v7h-7
	V130.6z M726.1,130.6h7v7h-7V130.6z M733.3,130.6h7v7h-7V130.6z M740.6,130.6h7v7h-7V130.6z M762.4,130.6h7v7h-7V130.6z
	 M769.6,130.6h7v7h-7V130.6z M776.9,130.6h7v7h-7V130.6z M493.8,137.9h7v7h-7V137.9z M501,137.9h7v7h-7V137.9z M544.6,137.9h7v7h-7
	V137.9z M573.6,137.9h7v7h-7V137.9z M580.9,137.9h7v7h-7V137.9z M588.1,137.9h7v7h-7V137.9z M595.4,137.9h7v7h-7V137.9z
	 M609.9,137.9h7v7h-7V137.9z M617.2,137.9h7v7h-7V137.9z M631.7,137.9h7v7h-7V137.9z M653.5,137.9h7v7h-7V137.9z M675.3,137.9h7v7
	h-7V137.9z M689.8,137.9h7v7h-7V137.9z M697,137.9h7v7h-7V137.9z M704.3,137.9h7v7h-7V137.9z M711.6,137.9h7v7h-7V137.9z
	 M718.8,137.9h7v7h-7V137.9z M726.1,137.9h7v7h-7V137.9z M733.3,137.9h7v7h-7V137.9z M740.6,137.9h7v7h-7V137.9z M747.9,137.9h7v7
	h-7V137.9z M755.1,137.9h7v7h-7V137.9z M493.8,145.1h7v7h-7V145.1z M530.1,145.1h7v7h-7V145.1z M537.3,145.1h7v7h-7V145.1z
	 M544.6,145.1h7v7h-7V145.1z M588.1,145.1h7v7h-7V145.1z M617.2,145.1h7v7h-7V145.1z M631.7,145.1h7v7h-7V145.1z M653.5,145.1h7v7
	h-7V145.1z M660.7,145.1h7v7h-7V145.1z M675.3,145.1h7v7h-7V145.1z M697,145.1h7v7h-7V145.1z M704.3,145.1h7v7h-7V145.1z
	 M740.6,145.1h7v7h-7V145.1z M486.5,152.4h7v7h-7V152.4z M493.8,152.4h7v7h-7V152.4z M530.1,152.4h7v7h-7V152.4z M537.3,152.4h7v7
	h-7V152.4z M544.6,152.4h7v7h-7V152.4z M551.8,152.4h7v7h-7V152.4z M588.1,152.4h7v7h-7V152.4z M617.2,152.4h7v7h-7V152.4z
	 M631.7,152.4h7v7h-7V152.4z M675.3,152.4h7v7h-7V152.4z M682.5,152.4h7v7h-7V152.4z M697,152.4h7v7h-7V152.4z M704.3,152.4h7v7h-7
	V152.4z M740.6,152.4h7v7h-7V152.4z M486.5,159.7h7v7h-7V159.7z M530.1,159.7h7v7h-7V159.7z M544.6,159.7h7v7h-7V159.7z
	 M551.8,159.7h7v7h-7V159.7z M588.1,159.7h7v7h-7V159.7z M617.2,159.7h7v7h-7V159.7z M631.7,159.7h7v7h-7V159.7z M704.3,159.7h7v7
	h-7V159.7z M740.6,159.7h7v7h-7V159.7z M479.2,166.9h7v7h-7V166.9z M486.5,166.9h7v7h-7V166.9z M522.8,166.9h7v7h-7V166.9z
	 M530.1,166.9h7v7h-7V166.9z M544.6,166.9h7v7h-7V166.9z M551.8,166.9h7v7h-7V166.9z M588.1,166.9h7v7h-7V166.9z M617.2,166.9h7v7
	h-7V166.9z M639,166.9h7v7h-7V166.9z M704.3,166.9h7v7h-7V166.9z M740.6,166.9h7v7h-7V166.9z M479.2,174.2h7v7h-7V174.2z
	 M486.5,174.2h7v7h-7V174.2z M522.8,174.2h7v7h-7V174.2z M544.6,174.2h7v7h-7V174.2z M551.8,174.2h7v7h-7V174.2z M588.1,174.2h7v7
	h-7V174.2z M617.2,174.2h7v7h-7V174.2z M639,174.2h7v7h-7V174.2z M682.5,174.2h7v7h-7V174.2z M704.3,174.2h7v7h-7V174.2z
	 M740.6,174.2h7v7h-7V174.2z M733.3,174.2h7v7h-7V174.2z M472,181.4h7v7h-7V181.4z M479.2,181.4h7v7h-7V181.4z M515.5,181.4h7v7h-7
	V181.4z M522.8,181.4h7v7h-7V181.4z M551.8,181.4h7v7h-7V181.4z M559.1,181.4h7v7h-7V181.4z M588.1,181.4h7v7h-7V181.4z
	 M624.4,181.4h7v7h-7V181.4z M639,181.4h7v7h-7V181.4z M646.2,181.4h7v7h-7V181.4z M682.5,181.4h7v7h-7V181.4z M711.6,181.4h7v7h-7
	V181.4z M733.3,181.4h7v7h-7V181.4z M464.7,188.7h7v7h-7V188.7z M472,188.7h7v7h-7V188.7z M515.5,188.7h7v7h-7V188.7z M522.8,188.7
	h7v7h-7V188.7z M551.8,188.7h7v7h-7V188.7z M559.1,188.7h7v7h-7V188.7z M588.1,188.7h7v7h-7V188.7z M617.2,188.7h7v7h-7V188.7z
	 M624.4,188.7h7v7h-7V188.7z M646.2,188.7h7v7h-7V188.7z M682.5,188.7h7v7h-7V188.7z M689.8,188.7h7v7h-7V188.7z M711.6,188.7h7v7
	h-7V188.7z M733.3,188.7h7v7h-7V188.7z M740.6,188.7h7v7h-7V188.7z M747.9,174.2h7v7h-7V174.2z M747.9,181.4h7v7h-7V181.4z
	 M747.9,188.7h7v7h-7V188.7z M813.2,188.7h7v7h-7V188.7z M820.5,188.7h7v7h-7V188.7z M464.7,196h7v7h-7V196z M508.3,196h7v7h-7V196z
	 M515.5,196h7v7h-7V196z M551.8,196h7v7h-7V196z M559.1,196h7v7h-7V196z M588.1,196h7v7h-7V196z M624.4,196h7v7h-7V196z M646.2,196
	h7v7h-7V196z M689.8,196h7v7h-7V196z M711.6,196h7v7h-7V196z M798.7,196h7v7h-7V196z M805.9,196h7v7h-7V196z M813.2,196h7v7h-7V196z
	 M820.5,196h7v7h-7V196z M827.7,196h7v7h-7V196z M457.5,203.2h7v7h-7V203.2z M464.7,203.2h7v7h-7V203.2z M501,203.2h7v7h-7V203.2z
	 M508.3,203.2h7v7h-7V203.2z M515.5,203.2h7v7h-7V203.2z M559.1,203.2h7v7h-7V203.2z M588.1,203.2h7v7h-7V203.2z M624.4,203.2h7v7
	h-7V203.2z M646.2,203.2h7v7h-7V203.2z M653.5,203.2h7v7h-7V203.2z M689.8,203.2h7v7h-7V203.2z M711.6,203.2h7v7h-7V203.2z
	 M762.4,196h7v7h-7V196z M769.6,196h7v7h-7V196z M776.9,196h7v7h-7V196z M784.2,196h7v7h-7V196z M791.4,196h7v7h-7V196z
	 M798.7,203.2h7v7h-7V203.2z M805.9,203.2h7v7h-7V203.2z M835,203.2h7v7h-7V203.2z M457.5,210.5h7v7h-7V210.5z M501,210.5h7v7h-7
	V210.5z M508.3,210.5h7v7h-7V210.5z M559.1,210.5h7v7h-7V210.5z M566.4,210.5h7v7h-7V210.5z M588.1,210.5h7v7h-7V210.5z
	 M624.4,210.5h7v7h-7V210.5z M631.7,210.5h7v7h-7V210.5z M653.5,210.5h7v7h-7V210.5z M668,210.5h7v7h-7V210.5z M689.8,210.5h7v7h-7
	V210.5z M697,210.5h7v7h-7V210.5z M704.3,210.5h7v7h-7V210.5z M711.6,210.5h7v7h-7V210.5z M718.8,203.2h7v7h-7V203.2z M726.1,203.2
	h7v7h-7V203.2z M733.3,203.2h7v7h-7V203.2z M740.6,203.2h7v7h-7V203.2z M747.9,203.2h7v7h-7V203.2z M755.1,203.2h7v7h-7V203.2z
	 M791.4,210.5h7v7h-7V210.5z M835,210.5h7v7h-7V210.5z M450.2,217.7h7v7h-7V217.7z M457.5,217.7h7v7h-7V217.7z M501,217.7h7v7h-7
	V217.7z M508.3,217.7h7v7h-7V217.7z M559.1,217.7h7v7h-7V217.7z M566.4,217.7h7v7h-7V217.7z M588.1,217.7h7v7h-7V217.7z
	 M631.7,217.7h7v7h-7V217.7z M653.5,217.7h7v7h-7V217.7z M682.5,217.7h7v7h-7V217.7z M689.8,217.7h7v7h-7V217.7z M784.2,217.7h7v7
	h-7V217.7z M798.7,217.7h7v7h-7V217.7z M820.5,217.7h7v7h-7V217.7z M835,217.7h7v7h-7V217.7z M450.2,225h7v7h-7V225z M457.5,225h7v7
	h-7V225z M493.8,225h7v7h-7V225z M501,225h7v7h-7V225z M559.1,225h7v7h-7V225z M566.4,225h7v7h-7V225z M588.1,225h7v7h-7V225z
	 M631.7,225h7v7h-7V225z M653.5,225h7v7h-7V225z M668,225h7v7h-7V225z M675.3,225h7v7h-7V225z M682.5,225h7v7h-7V225z M704.3,225h7
	v7h-7V225z M711.6,225h7v7h-7V225z M718.8,225h7v7h-7V225z M733.3,225h7v7h-7V225z M747.9,225h7v7h-7V225z M740.6,225h7v7h-7V225z
	 M755.1,225h7v7h-7V225z M762.4,225h7v7h-7V225z M776.9,225h7v7h-7V225z M769.6,225h7v7h-7V225z M784.2,225h7v7h-7V225z M798.7,225
	h7v7h-7V225z M805.9,225h7v7h-7V225z M820.5,225h7v7h-7V225z M842.2,225h7v7h-7V225z M442.9,232.3h7v7h-7V232.3z M450.2,232.3h7v7
	h-7V232.3z M493.8,232.3h7v7h-7V232.3z M559.1,232.3h7v7h-7V232.3z M566.4,232.3h7v7h-7V232.3z M588.1,232.3h7v7h-7V232.3z
	 M595.4,232.3h7v7h-7V232.3z M631.7,232.3h7v7h-7V232.3z M653.5,232.3h7v7h-7V232.3z M660.7,232.3h7v7h-7V232.3z M668,232.3h7v7h-7
	V232.3z M675.3,232.3h7v7h-7V232.3z M682.5,232.3h7v7h-7V232.3z M689.8,232.3h7v7h-7V232.3z M711.6,232.3h7v7h-7V232.3z
	 M718.8,232.3h7v7h-7V232.3z M697,232.3h7v7h-7V232.3z M704.3,232.3h7v7h-7V232.3z M726.1,232.3h7v7h-7V232.3z M733.3,232.3h7v7h-7
	V232.3z M784.2,232.3h7v7h-7V232.3z M791.4,232.3h7v7h-7V232.3z M805.9,232.3h7v7h-7V232.3z M820.5,232.3h7v7h-7V232.3z
	 M842.2,232.3h7v7h-7V232.3z M442.9,239.5h7v7h-7V239.5z M450.2,239.5h7v7h-7V239.5z M486.5,239.5h7v7h-7V239.5z M486.5,232.3h7v7
	h-7V232.3z M559.1,239.5h7v7h-7V239.5z M566.4,239.5h7v7h-7V239.5z M595.4,239.5h7v7h-7V239.5z M595.4,246.8h7v7h-7V246.8z
	 M631.7,239.5h7v7h-7V239.5z M639,239.5h7v7h-7V239.5z M653.5,239.5h7v7h-7V239.5z M660.7,239.5h7v7h-7V239.5z M784.2,239.5h7v7h-7
	V239.5z M791.4,239.5h7v7h-7V239.5z M805.9,239.5h7v7h-7V239.5z M813.2,239.5h7v7h-7V239.5z M820.5,239.5h7v7h-7V239.5z
	 M842.2,239.5h7v7h-7V239.5z M435.7,246.8h7v7h-7V246.8z M442.9,246.8h7v7h-7V246.8z M472,246.8h7v7h-7V246.8z M479.2,246.8h7v7h-7
	V246.8z M479.2,239.5h7v7h-7V239.5z M508.3,254h7v7h-7V254z M515.5,254h7v7h-7V254z M522.8,246.8h7v7h-7V246.8z M530.1,246.8h7v7h-7
	V246.8z M537.3,239.5h7v7h-7V239.5z M544.6,239.5h7v7h-7V239.5z M551.8,239.5h7v7h-7V239.5z M559.1,246.8h7v7h-7V246.8z
	 M566.4,246.8h7v7h-7V246.8z M588.1,246.8h7v7h-7V246.8z M580.9,232.3h7v7h-7V232.3z M580.9,239.5h7v7h-7V239.5z M580.9,246.8h7v7
	h-7V246.8z M631.7,246.8h7v7h-7V246.8z M639,246.8h7v7h-7V246.8z M660.7,246.8h7v7h-7V246.8z M791.4,246.8h7v7h-7V246.8z
	 M813.2,246.8h7v7h-7V246.8z M820.5,246.8h7v7h-7V246.8z M827.7,246.8h7v7h-7V246.8z M835,246.8h7v7h-7V246.8z M842.2,246.8h7v7h-7
	V246.8z M435.7,254h7v7h-7V254z M442.9,254h7v7h-7V254z M464.7,254h7v7h-7V254z M472,254h7v7h-7V254z M493.8,254h7v7h-7V254z
	 M501,254h7v7h-7V254z M501,283.1h7v7h-7V283.1z M508.3,283.1h7v7h-7V283.1z M515.5,275.8h7v7h-7V275.8z M522.8,275.8h7v7h-7V275.8z
	 M530.1,268.6h7v7h-7V268.6z M537.3,268.6h7v7h-7V268.6z M544.6,268.6h7v7h-7V268.6z M486.5,283.1h7v7h-7V283.1z M493.8,283.1h7v7
	h-7V283.1z M559.1,254h7v7h-7V254z M631.7,254h7v7h-7V254z M639,254h7v7h-7V254z M660.7,254h7v7h-7V254z M704.3,254h7v7h-7V254z
	 M791.4,254h7v7h-7V254z M820.5,254h7v7h-7V254z M827.7,254h7v7h-7V254z M835,254h7v7h-7V254z M842.2,254h7v7h-7V254z M849.5,254h7
	v7h-7V254z M428.4,261.3h7v7h-7C428.4,268.3,428.4,261.3,428.4,261.3z M435.7,261.3h7v7h-7V261.3z M457.5,261.3h7v7h-7V261.3z
	 M464.7,261.3h7v7h-7V261.3z M486.5,261.3h7v7h-7V261.3z M493.8,261.3h7v7h-7V261.3z M559.1,261.3h7v7h-7V261.3z M566.4,261.3h7v7
	h-7V261.3z M551.8,261.3h7v7h-7V261.3z M566.4,268.6h7v7h-7V268.6z M631.7,261.3h7v7h-7V261.3z M639,261.3h7v7h-7V261.3z
	 M631.7,268.6h7v7h-7V268.6z M639,268.6h7v7h-7V268.6z M631.7,275.8h7v7h-7V275.8z M639,275.8h7v7h-7V275.8z M660.7,261.3h7v7h-7
	V261.3z M668,261.3h7v7h-7V261.3z M704.3,261.3h7v7h-7V261.3z M718.8,261.3h7v7h-7V261.3z M733.3,261.3h7v7h-7V261.3z M740.6,261.3
	h7v7h-7V261.3z M747.9,261.3h7v7h-7V261.3z M791.4,261.3h7v7h-7V261.3z M798.7,261.3h7v7h-7V261.3z M805.9,261.3h7v7h-7V261.3z
	 M813.2,261.3h7v7h-7V261.3z M820.5,261.3h7v7h-7V261.3z M849.5,261.3h7v7h-7V261.3z M428.4,268.6h7v7h-7
	C428.4,275.6,428.4,268.6,428.4,268.6z M435.7,268.6h7v7h-7V268.6z M450.2,268.6h7v7h-7V268.6z M457.5,268.6h7v7h-7V268.6z
	 M479.2,268.6h7v7h-7V268.6z M486.5,268.6h7v7h-7V268.6z M551.8,268.6h7v7h-7V268.6z M551.8,275.8h7v7h-7V275.8z M660.7,268.6h7v7
	h-7V268.6z M668,268.6h7v7h-7V268.6z M704.3,268.6h7v7h-7V268.6z M718.8,268.6h7v7h-7V268.6z M733.3,268.6h7v7h-7V268.6z
	 M740.6,268.6h7v7h-7V268.6z M747.9,268.6h7v7h-7V268.6z M776.9,268.6h7v7h-7V268.6z M784.2,268.6h7v7h-7V268.6z M791.4,268.6h7v7
	h-7V268.6z M798.7,268.6h7v7h-7V268.6z M813.2,268.6h7v7h-7V268.6z M827.7,268.6h7v7h-7V268.6z M849.5,268.6h7v7h-7V268.6z
	 M435.7,275.8h7v7h-7V275.8z M442.9,275.8h7v7h-7V275.8z M450.2,275.8h7v7h-7V275.8z M472,275.8h7v7h-7V275.8z M559.1,275.8h7v7h-7
	V275.8z M566.4,275.8h7v7h-7V275.8z M668,275.8h7v7h-7V275.8z M704.3,275.8h7v7h-7V275.8z M718.8,275.8h7v7h-7V275.8z M798.7,275.8
	h7v7h-7V275.8z M813.2,275.8h7v7h-7V275.8z M827.7,275.8h7v7h-7V275.8z M835,275.8h7v7h-7V275.8z M856.8,275.8h7v7h-7V275.8z
	 M435.7,283.1h7v7h-7V283.1z M442.9,283.1h7v7h-7V283.1z M464.7,283.1h7v7h-7V283.1z M472,283.1h7v7h-7V283.1z M479.2,275.8h7v7h-7
	V275.8z M646.2,283.1h7v7h-7V283.1z M639,283.1h7v7h-7V283.1z M668,283.1h7v7h-7V283.1z M704.3,283.1h7v7h-7V283.1z M718.8,283.1h7
	v7h-7V283.1z M798.7,283.1h7v7h-7V283.1z M842.2,283.1h7v7h-7V283.1z M856.8,283.1h7v7h-7V283.1z M435.7,290.3h7v7h-7V290.3z
	 M464.7,290.3h7v7h-7V290.3z M479.2,283.1h7v7h-7V283.1z M486.5,290.3h7v7h-7V290.3z M639,290.3h7v7h-7V290.3z M646.2,290.3h7v7h-7
	V290.3z M668,290.3h7v7h-7V290.3z M675.3,290.3h7v7h-7V290.3z M704.3,290.3h7v7h-7V290.3z M718.8,290.3h7v7h-7V290.3z M791.4,290.3
	h7v7h-7V290.3z M798.7,290.3h7v7h-7V290.3z M849.5,290.3h7v7h-7V290.3z M856.8,290.3h7v7h-7V290.3z M435.7,297.6h7v7h-7V297.6z
	 M464.7,297.6h7v7h-7V297.6z M472,297.6h7v7h-7V297.6z M486.5,297.6h7v7h-7V297.6z M493.8,297.6h7v7h-7V297.6z M501,297.6h7v7h-7
	V297.6z M522.8,297.6h7v7h-7V297.6z M530.1,297.6h7v7h-7V297.6z M639,297.6h7v7h-7V297.6z M646.2,297.6h7v7h-7V297.6z M660.7,297.6
	h7v7h-7V297.6z M668,297.6h7v7h-7V297.6z M675.3,297.6h7v7h-7V297.6z M697,297.6h7v7h-7V297.6z M704.3,297.6h7v7h-7V297.6z
	 M718.8,297.6h7v7h-7V297.6z M726.1,297.6h7v7h-7V297.6z M733.3,297.6h7v7h-7V297.6z M740.6,297.6h7v7h-7V297.6z M747.9,297.6h7v7
	h-7V297.6z M755.1,297.6h7v7h-7V297.6z M762.4,297.6h7v7h-7V297.6z M769.6,297.6h7v7h-7V297.6z M776.9,297.6h7v7h-7V297.6z
	 M798.7,297.6h7v7h-7V297.6z M805.9,297.6h7v7h-7V297.6z M849.5,297.6h7v7h-7V297.6z M856.8,297.6h7v7h-7V297.6z M435.7,304.9h7v7
	h-7V304.9z M472,304.9h7v7h-7V304.9z M486.5,304.9h7v7h-7V304.9z M493.8,304.9h7v7h-7V304.9z M501,304.9h7v7h-7V304.9z M508.3,304.9
	h7v7h-7V304.9z M515.5,304.9h7v7h-7V304.9z M639,304.9h7v7h-7V304.9z M646.2,304.9h7v7h-7V304.9z M660.7,304.9h7v7h-7V304.9z
	 M668,304.9h7v7h-7V304.9z M675.3,304.9h7v7h-7V304.9z M697,304.9h7v7h-7V304.9z M704.3,304.9h7v7h-7V304.9z M718.8,304.9h7v7h-7
	V304.9z M726.1,304.9h7v7h-7V304.9z M805.9,304.9h7v7h-7V304.9z M842.2,304.9h7v7h-7V304.9z M849.5,304.9h7v7h-7V304.9z
	 M856.8,304.9h7v7h-7V304.9z M435.7,312.1h7v7h-7V312.1z M472,312.1h7v7h-7V312.1z M486.5,312.1h7v7h-7V312.1z M646.2,312.1h7v7h-7
	V312.1z M660.7,312.1h7v7h-7V312.1z M668,312.1h7v7h-7V312.1z M675.3,312.1h7v7h-7V312.1z M697,312.1h7v7h-7V312.1z M704.3,312.1h7
	v7h-7V312.1z M726.1,312.1h7v7h-7V312.1z M813.2,312.1h7v7h-7V312.1z M827.7,312.1h7v7h-7V312.1z M835,312.1h7v7h-7V312.1z
	 M842.2,312.1h7v7h-7V312.1z M856.8,312.1h7v7h-7V312.1z M435.7,319.4h7v7h-7V319.4z M472,319.4h7v7h-7V319.4z M479.2,319.4h7v7h-7
	V319.4z M530.1,319.4h7v7h-7V319.4z M573.6,319.4h7v7h-7V319.4z M646.2,319.4h7v7h-7V319.4z M646.2,326.6h7v7h-7V326.6z
	 M646.2,333.9h7v7h-7V333.9z M646.2,341.2h7v7h-7V341.2z M660.7,319.4h7v7h-7V319.4z M668,319.4h7v7h-7V319.4z M675.3,319.4h7v7h-7
	V319.4z M682.5,319.4h7v7h-7V319.4z M697,319.4h7v7h-7V319.4z M704.3,319.4h7v7h-7V319.4z M726.1,319.4h7v7h-7V319.4z M813.2,319.4
	h7v7h-7V319.4z M820.5,319.4h7v7h-7V319.4z M827.7,319.4h7v7h-7V319.4z M856.8,319.4h7v7h-7V319.4z M428.4,326.6h7v7h-7
	C428.4,333.6,428.4,326.6,428.4,326.6z M435.7,326.6h7v7h-7V326.6z M479.2,326.6h7v7h-7V326.6z M486.5,326.6h7v7h-7V326.6z
	 M508.3,326.6h7v7h-7V326.6z M515.5,326.6h7v7h-7V326.6z M522.8,326.6h7v7h-7V326.6z M573.6,326.6h7v7h-7V326.6z M675.3,326.6h7v7
	h-7V326.6z M682.5,326.6h7v7h-7V326.6z M697,326.6h7v7h-7V326.6z M704.3,326.6h7v7h-7V326.6z M726.1,326.6h7v7h-7V326.6z
	 M762.4,326.6h7v7h-7V326.6z M769.6,326.6h7v7h-7V326.6z M776.9,326.6h7v7h-7V326.6z M784.2,326.6h7v7h-7V326.6z M791.4,326.6h7v7
	h-7V326.6z M798.7,326.6h7v7h-7V326.6z M805.9,326.6h7v7h-7V326.6z M856.8,326.6h7v7h-7V326.6z M428.4,333.9h7v7h-7
	C428.4,340.9,428.4,333.9,428.4,333.9z M479.2,333.9h7v7h-7V333.9z M486.5,333.9h7v7h-7V333.9z M493.8,333.9h7v7h-7V333.9z
	 M501,333.9h7v7h-7V333.9z M508.3,333.9h7v7h-7V333.9z M573.6,333.9h7v7h-7V333.9z M675.3,333.9h7v7h-7V333.9z M682.5,333.9h7v7h-7
	V333.9z M704.3,333.9h7v7h-7V333.9z M711.6,333.9h7v7h-7V333.9z M718.8,333.9h7v7h-7V333.9z M726.1,333.9h7v7h-7V333.9z
	 M733.3,333.9h7v7h-7V333.9z M740.6,333.9h7v7h-7V333.9z M747.9,333.9h7v7h-7V333.9z M755.1,333.9h7v7h-7V333.9z M805.9,333.9h7v7
	h-7V333.9z M856.8,333.9h7v7h-7V333.9z M428.4,341.2h7v7h-7C428.4,348.2,428.4,341.2,428.4,341.2z M435.7,341.2h7v7h-7V341.2z
	 M442.9,326.6h7v7h-7V326.6z M442.9,333.9h7v7h-7V333.9z M442.9,341.2h7v7h-7V341.2z M486.5,341.2h7v7h-7V341.2z M573.6,341.2h7v7
	h-7V341.2z M682.5,341.2h7v7h-7V341.2z M689.8,341.2h7v7h-7V341.2z M697,341.2h7v7h-7V341.2z M704.3,341.2h7v7h-7V341.2z
	 M726.1,341.2h7v7h-7V341.2z M747.9,341.2h7v7h-7V341.2z M805.9,341.2h7v7h-7V341.2z M856.8,341.2h7v7h-7V341.2z M486.5,348.4h7v7
	h-7V348.4z M566.4,348.4h7v7h-7V348.4z M573.6,348.4h7v7h-7V348.4z M580.9,348.4h7v7h-7V348.4z M646.2,348.4h7v7h-7V348.4z
	 M689.8,348.4h7v7h-7V348.4z M726.1,348.4h7v7h-7V348.4z M747.9,348.4h7v7h-7V348.4z M805.9,348.4h7v7h-7V348.4z M856.8,348.4h7v7
	h-7V348.4z M486.5,355.7h7v7h-7V355.7z M515.5,355.7h7v7h-7V355.7z M522.8,355.7h7v7h-7V355.7z M530.1,355.7h7v7h-7V355.7z
	 M537.3,355.7h7v7h-7V355.7z M551.8,355.7h7v7h-7V355.7z M559.1,355.7h7v7h-7V355.7z M566.4,355.7h7v7h-7V355.7z M573.6,355.7h7v7
	h-7V355.7z M580.9,355.7h7v7h-7V355.7z M602.7,355.7h7v7h-7V355.7z M609.9,348.4h7v7h-7V348.4z M588.1,348.4h7v7h-7V348.4z
	 M595.4,348.4h7v7h-7V348.4z M602.7,348.4h7v7h-7V348.4z M609.9,355.7h7v7h-7V355.7z M646.2,355.7h7v7h-7V355.7z M689.8,355.7h7v7
	h-7V355.7z M726.1,355.7h7v7h-7V355.7z M718.8,362.9h7v7h-7V362.9z M726.1,362.9h7v7h-7V362.9z M718.8,370.2h7v7h-7V370.2z
	 M718.8,377.5h7v7h-7V377.5z M726.1,377.5h7v7h-7V377.5z M733.3,362.9h7v7h-7V362.9z M733.3,370.2h7v7h-7V370.2z M733.3,377.5h7v7
	h-7V377.5z M747.9,355.7h7v7h-7V355.7z M798.7,355.7h7v7h-7V355.7z M805.9,355.7h7v7h-7V355.7z M856.8,355.7h7v7h-7V355.7z
	 M486.5,362.9h7v7h-7V362.9z M493.8,362.9h7v7h-7V362.9z M501,362.9h7v7h-7V362.9z M508.3,362.9h7v7h-7V362.9z M515.5,362.9h7v7h-7
	V362.9z M522.8,362.9h7v7h-7V362.9z M530.1,362.9h7v7h-7V362.9z M573.6,362.9h7v7h-7V362.9z M602.7,362.9h7v7h-7V362.9z
	 M609.9,362.9h7v7h-7V362.9z M639,362.9h7v7h-7V362.9z M646.2,362.9h7v7h-7V362.9z M689.8,362.9h7v7h-7V362.9z M697,362.9h7v7h-7
	V362.9z M747.9,362.9h7v7h-7V362.9z M798.7,362.9h7v7h-7V362.9z M798.7,370.2h7v7h-7V370.2z M813.2,363.1h7v7h-7V363.1z
	 M813.2,355.7h7v7h-7V355.7z M813.2,370.3h7v7h-7V370.3z M813.2,362.9h7v7h-7V362.9z M813.2,370.2h7v7h-7V370.2z M849.5,362.9h7v7
	h-7V362.9z M856.8,362.9h7v7h-7V362.9z M864,362.9h7v7h-7V362.9z M486.5,370.2h7v7h-7V370.2z M573.6,370.2h7v7h-7V370.2z
	 M602.7,370.2h7v7h-7V370.2z M609.9,370.2h7v7h-7V370.2z M617.2,370.2h7v7h-7V370.2z M639,370.2h7v7h-7V370.2z M646.2,370.2h7v7h-7
	V370.2z M697,370.2h7v7h-7V370.2z M747.9,370.2h7v7h-7V370.2z M755.1,370.2h7v7h-7V370.2z M805.9,370.2h7v7h-7V370.2z M849.5,370.2
	h7v7h-7V370.2z M864,370.2h7v7h-7V370.2z M486.5,377.5h7v7h-7V377.5z M573.6,377.5h7v7h-7V377.5z M602.7,377.5h7v7h-7V377.5z
	 M609.9,377.5h7v7h-7V377.5z M617.2,377.5h7v7h-7V377.5z M639,377.5h7v7h-7V377.5z M646.2,377.5h7v7h-7V377.5z M697,377.5h7v7h-7
	V377.5z M755.1,377.5h7v7h-7V377.5z M849.5,377.5h7v7h-7V377.5z M856.8,377.5h7v7h-7V377.5z M864,377.5h7v7h-7V377.5z M486.5,384.7
	h7v7h-7V384.7z M551.8,384.7h7v7h-7V384.7z M573.6,391.8h7v7h-7V391.8z M566.4,377.5h7v7h-7V377.5z M566.4,384.8h7v7h-7V384.8z
	 M566.4,391.9h7v7h-7V391.9z M580.9,377.5h7v7h-7V377.5z M580.9,384.7h7v7h-7V384.7z M580.9,391.8h7v7h-7V391.8z M609.9,384.7h7v7
	h-7V384.7z M617.2,384.7h7v7h-7V384.7z M639,384.7h7v7h-7V384.7z M646.2,384.7h7v7h-7V384.7z M697,384.7h7v7h-7V384.7z M704.3,384.7
	h7v7h-7V384.7z M755.1,384.7h7v7h-7V384.7z M486.5,392h7v7h-7V392z M551.8,392h7v7h-7V392z M609.9,392h7v7h-7V392z M617.2,392h7v7
	h-7V392z M646.2,392h7v7h-7V392z M653.5,392h7v7h-7V392z M675.3,392h7v7h-7V392z M697,392h7v7h-7V392z M704.3,392h7v7h-7V392z
	 M755.1,392h7v7h-7V392z M551.8,399.2h7v7h-7V399.2z M544.6,384.7h7v7h-7V384.7z M544.6,399.2h7v7h-7V399.2z M544.6,297.6h7v7h-7
	V297.6z M544.6,304.9h7v7h-7V304.9z M544.6,312.1h7v7h-7V312.1z M544.6,319.4h7v7h-7V319.4z M544.6,326.6h7v7h-7V326.6z
	 M544.6,333.9h7v7h-7V333.9z M544.6,341.2h7v7h-7V341.2z M544.6,348.4h7v7h-7V348.4z M544.6,355.7h7v7h-7V355.7z M544.6,362.9h7v7
	h-7V362.9z M544.6,370.2h7v7h-7V370.2z M544.6,377.5h7v7h-7V377.5z M544.6,384.7h7v7h-7V384.7z M544.6,399.2h7v7h-7V399.2z
	 M537.3,384.7h7v7h-7V384.7z M537.3,392h7v7h-7V392z M537.3,399.2h7v7h-7V399.2z M609.9,399.2h7v7h-7V399.2z M617.2,399.2h7v7h-7
	V399.2z M624.4,399.2h7v7h-7V399.2z M646.2,399.2h7v7h-7V399.2z M653.5,399.2h7v7h-7V399.2z M675.3,399.2h7v7h-7V399.2z M697,399.2
	h7v7h-7V399.2z M704.3,399.2h7v7h-7V399.2z M755.1,399.2h7v7h-7V399.2z M486.5,406.5h7v7h-7V406.5z M479.2,392h7v7h-7V392z
	 M479.2,399.2h7v7h-7V399.2z M479.2,406.5h7v7h-7V406.5z M493.7,392h7v7h-7V392z M493.7,399.2h7v7h-7V399.2z M493.7,406.5h7v7h-7
	V406.5z M609.9,406.5h7v7h-7V406.5z M617.2,406.5h7v7h-7V406.5z M624.4,406.5h7v7h-7V406.5z M631.7,406.5h7v7h-7V406.5z M639,406.5
	h7v7h-7V406.5z M653.5,406.5h7v7h-7V406.5z M675.3,406.5h7v7h-7V406.5z M682.5,406.5h7v7h-7V406.5z M704.3,406.5h7v7h-7V406.5z
	 M711.6,406.5h7v7h-7V406.5z M733.3,406.5h7v7h-7V406.5z M740.6,406.5h7v7h-7V406.5z M747.9,406.5h7v7h-7V406.5z M755.1,406.5h7v7
	h-7V406.5z M609.9,413.8h7v7h-7V413.8z M624.4,413.8h7v7h-7V413.8z M631.7,413.8h7v7h-7V413.8z M639,413.8h7v7h-7V413.8z
	 M653.5,413.8h7v7h-7V413.8z M660.7,413.8h7v7h-7V413.8z M675.3,413.8h7v7h-7V413.8z M682.5,413.8h7v7h-7V413.8z M704.3,413.8h7v7
	h-7V413.8z M711.6,413.8h7v7h-7V413.8z M718.8,413.8h7v7h-7V413.8z M726.1,413.8h7v7h-7V413.8z M733.3,413.8h7v7h-7V413.8z
	 M740.6,413.8h7v7h-7V413.8z M747.9,413.8h7v7h-7V413.8z M755.1,413.8h7v7h-7V413.8z M609.9,421h7v7h-7V421z M624.4,421h7v7h-7V421z
	 M639,421h7v7h-7V421z M653.5,421h7v7h-7V421z M660.7,421h7v7h-7V421z M675.3,421h7v7h-7V421z M682.5,421h7v7h-7V421z M704.3,421h7
	v7h-7V421z M755.1,421h7v7h-7V421z M609.9,428.3h7v7h-7V428.3z M624.4,428.3h7v7h-7V428.3z M639,428.3h7v7h-7V428.3z M660.7,428.3h7
	v7h-7V428.3z M682.5,428.3h7v7h-7V428.3z M704.3,428.3h7v7h-7V428.3z M755.1,428.3h7v7h-7V428.3z M762.4,428.3h7v7h-7V428.3z
	 M602.7,435.5h7v7h-7V435.5z M609.9,435.5h7v7h-7V435.5z M624.4,435.5h7v7h-7V435.5z M639,435.5h7v7h-7V435.5z M660.7,435.5h7v7h-7
	V435.5z M668,435.5h7v7h-7V435.5z M682.5,435.5h7v7h-7V435.5z M689.8,435.5h7v7h-7V435.5z M704.3,435.5h7v7h-7V435.5z M711.6,435.5
	h7v7h-7V435.5z M762.4,435.5h7v7h-7V435.5z M602.7,442.8h7v7h-7V442.8z M609.9,442.8h7v7h-7V442.8z M624.4,442.8h7v7h-7V442.8z
	 M631.7,442.8h7v7h-7V442.8z M660.7,442.8h7v7h-7V442.8z M668,442.8h7v7h-7V442.8z M682.5,442.8h7v7h-7V442.8z M689.8,442.8h7v7h-7
	V442.8z M704.3,442.8h7v7h-7V442.8z M711.6,442.8h7v7h-7V442.8z M762.4,442.8h7v7h-7V442.8z M769.6,442.8h7v7h-7V442.8z
	 M602.7,450.1h7v7h-7V450.1z M609.9,450.1h7v7h-7V450.1z M624.4,450.1h7v7h-7V450.1z M631.7,450.1h7v7h-7V450.1z M668,450.1h7v7h-7
	V450.1z M689.8,450.1h7v7h-7V450.1z M704.3,450.1h7v7h-7V450.1z M711.6,450.1h7v7h-7V450.1z M762.4,450.1h7v7h-7V450.1z
	 M769.6,450.1h7v7h-7V450.1z M624.4,457.3h7v7h-7V457.3z M631.7,457.3h7v7h-7V457.3z M668,457.3h7v7h-7V457.3z M675.3,457.3h7v7h-7
	V457.3z M689.8,457.3h7v7h-7V457.3z M711.6,457.3h7v7h-7V457.3z M718.8,457.3h7v7h-7V457.3z M762.4,457.3h7v7h-7V457.3z
	 M769.6,457.3h7v7h-7V457.3z M631.7,464.6h7v7h-7V464.6z M668,464.6h7v7h-7V464.6z M675.3,464.6h7v7h-7V464.6z M697,464.6h7v7h-7
	V464.6z M711.6,464.6h7v7h-7V464.6z M718.8,464.6h7v7h-7V464.6z M769.6,464.6h7v7h-7V464.6z M631.7,471.8h7v7h-7V471.8z M668,471.8
	h7v7h-7V471.8z M675.3,471.8h7v7h-7V471.8z M697,471.8h7v7h-7V471.8z M718.8,471.8h7v7h-7V471.8z M769.6,471.8h7v7h-7V471.8z
	 M631.7,479.1h7v7h-7V479.1z M639,479.1h7v7h-7V479.1z M675.3,479.1h7v7h-7V479.1z M682.5,479.1h7v7h-7V479.1z M697,479.1h7v7h-7
	V479.1z M704.3,479.1h7v7h-7V479.1z M718.8,479.1h7v7h-7V479.1z M769.6,479.1h7v7h-7V479.1z M776.9,479.1h7v7h-7V479.1z
	 M631.7,486.4h7v7h-7V486.4z M639,486.4h7v7h-7V486.4z M675.3,486.4h7v7h-7V486.4z M682.5,486.4h7v7h-7V486.4z M704.3,486.4h7v7h-7
	V486.4z M718.8,486.4h7v7h-7V486.4z M755.1,486.4h7v7h-7V486.4z M776.9,486.4h7v7h-7V486.4z M639,493.6h7v7h-7V493.6z M653.5,493.6
	h7v7h-7V493.6z M675.3,493.6h7v7h-7V493.6z M682.5,493.6h7v7h-7V493.6z M704.3,493.6h7v7h-7V493.6z M718.8,493.6h7v7h-7V493.6z
	 M726.1,493.6h7v7h-7V493.6z M755.1,493.6h7v7h-7V493.6z M776.9,493.6h7v7h-7V493.6z M639,500.9h7v7h-7V500.9z M668,500.9h7v7h-7
	V500.9z M675.3,500.9h7v7h-7V500.9z M704.3,500.9h7v7h-7V500.9z M718.8,500.9h7v7h-7V500.9z M726.1,500.9h7v7h-7V500.9z
	 M740.6,500.9h7v7h-7V500.9z M762.4,500.9h7v7h-7V500.9z M776.9,500.9h7v7h-7V500.9z M639,508.1h7v7h-7V508.1z M668,508.1h7v7h-7
	V508.1z M675.3,508.1h7v7h-7V508.1z M704.3,508.1h7v7h-7V508.1z M726.1,508.1h7v7h-7V508.1z M740.6,508.1h7v7h-7V508.1z
	 M762.4,508.1h7v7h-7V508.1z M776.9,508.1h7v7h-7V508.1z M639,515.4h7v7h-7V515.4z M646.2,515.4h7v7h-7V515.4z M668,515.4h7v7h-7
	V515.4z M675.3,515.4h7v7h-7V515.4z M704.3,515.4h7v7h-7V515.4z M711.6,515.4h7v7h-7V515.4z M726.1,515.4h7v7h-7V515.4z
	 M740.6,515.4h7v7h-7V515.4z M762.4,515.4h7v7h-7V515.4z M776.9,515.4h7v7h-7V515.4z M639,522.7h7v7h-7V522.7z M646.2,522.7h7v7h-7
	V522.7z M675.3,522.7h7v7h-7V522.7z M689.8,522.7h7v7h-7V522.7z M697,522.7h7v7h-7V522.7z M711.6,522.7h7v7h-7V522.7z M726.1,522.7
	h7v7h-7V522.7z M740.6,522.7h7v7h-7V522.7z M747.9,522.7h7v7h-7V522.7z M776.9,522.7h7v7h-7V522.7z M784.2,522.7h7v7h-7V522.7z
	 M639,529.9h7v7h-7V529.9z M646.2,529.9h7v7h-7V529.9z M689.8,529.9h7v7h-7V529.9z M697,529.9h7v7h-7V529.9z M711.6,529.9h7v7h-7
	V529.9z M726.1,529.9h7v7h-7V529.9z M747.9,529.9h7v7h-7V529.9z M762.4,529.9h7v7h-7V529.9z M762.4,522.7h7v7h-7V522.7z
	 M776.9,529.9h7v7h-7V529.9z M784.2,529.9h7v7h-7V529.9z M791.4,529.9h7v7h-7V529.9z M798.7,529.9h7v7h-7V529.9z M805.9,529.9h7v7
	h-7V529.9z M813.2,529.9h7v7h-7V529.9z M820.5,529.9h7v7h-7V529.9z M639,537.2h7v7h-7V537.2z M646.2,537.2h7v7h-7V537.2z
	 M689.8,537.2h7v7h-7V537.2z M697,537.2h7v7h-7V537.2z M711.6,537.2h7v7h-7V537.2z M726.1,537.2h7v7h-7V537.2z M733.3,537.2h7v7h-7
	V537.2z M747.9,537.2h7v7h-7V537.2z M762.4,537.2h7v7h-7V537.2z M769.6,537.2h7v7h-7V537.2z M776.9,537.2h7v7h-7V537.2z
	 M791.4,537.2h7v7h-7V537.2z M805.9,537.2h7v7h-7V537.2z M820.5,537.2h7v7h-7V537.2z M827.7,537.2h7v7h-7V537.2z M835,537.2h7v7h-7
	V537.2z M624.4,544.4h7v7h-7V544.4z M631.7,544.4h7v7h-7V544.4z M639,544.4h7v7h-7V544.4z M646.2,544.4h7v7h-7V544.4z M653.5,544.4
	h7v7h-7V544.4z M682.5,544.4h7v7h-7V544.4z M689.8,544.4h7v7h-7V544.4z M697,544.4h7v7h-7V544.4z M711.6,544.4h7v7h-7V544.4z
	 M733.3,544.4h7v7h-7V544.4z M747.9,544.4h7v7h-7V544.4z M762.4,544.4h7v7h-7V544.4z M776.9,544.4h7v7h-7V544.4z M784.2,544.4h7v7
	h-7V544.4z M791.4,544.4h7v7h-7V544.4z M798.7,544.4h7v7h-7V544.4z M805.9,544.4h7v7h-7V544.4z M813.2,544.4h7v7h-7V544.4z
	 M820.5,544.4h7v7h-7V544.4z M827.7,544.4h7v7h-7V544.4z M835,544.4h7v7h-7V544.4z M602.7,551.7h7v7h-7V551.7z M609.9,551.7h7v7h-7
	V551.7z M617.2,551.7h7v7h-7V551.7z M624.4,551.7h7v7h-7V551.7z M631.7,551.7h7v7h-7V551.7z M646.2,551.7h7v7h-7V551.7z
	 M653.5,551.7h7v7h-7V551.7z M660.7,551.7h7v7h-7V551.7z M668,551.7h7v7h-7V551.7z M682.5,551.7h7v7h-7V551.7z M689.8,551.7h7v7h-7
	V551.7z M697,551.7h7v7h-7V551.7z M704.3,551.7h7v7h-7V551.7z M711.6,551.7h7v7h-7V551.7z M733.3,551.7h7v7h-7V551.7z M747.9,551.7
	h7v7h-7V551.7z M755.1,551.7h7v7h-7V551.7z M762.4,551.7h7v7h-7V551.7z M769.6,551.7h7v7h-7V551.7z M776.9,551.7h7v7h-7V551.7z
	 M791.4,551.7h7v7h-7V551.7z M798.7,551.7h7v7h-7V551.7z M813.2,551.7h7v7h-7V551.7z M820.5,551.7h7v7h-7V551.7z M835,551.7h7v7h-7
	V551.7z M842.2,551.7h7v7h-7V551.7z M595.4,559h7v7h-7V559z M602.7,559h7v7h-7V559z M609.9,559h7v7h-7V559z M617.2,559h7v7h-7V559z
	 M631.7,559h7v7h-7V559z M639,559h7v7h-7V559z M646.2,559h7v7h-7V559z M653.5,559h7v7h-7V559z M668,559h7v7h-7V559z M675.3,559h7v7
	h-7V559z M682.5,559h7v7h-7V559z M697,559h7v7h-7V559z M704.3,559h7v7h-7V559z M711.6,559h7v7h-7V559z M718.8,559h7v7h-7V559z
	 M726.1,559h7v7h-7V559z M733.3,559h7v7h-7V559z M740.6,559h7v7h-7V559z M755.1,559h7v7h-7V559z M762.4,559h7v7h-7V559z M769.6,559
	h7v7h-7V559z M776.9,559h7v7h-7V559z M784.2,559h7v7h-7V559z M791.4,559h7v7h-7V559z M798.7,559h7v7h-7V559z M805.9,559h7v7h-7V559z
	 M813.2,559h7v7h-7V559z M820.5,559h7v7h-7V559z M827.7,559h7v7h-7V559z M835,559h7v7h-7V559z M588.1,566.2h7v7h-7V566.2z
	 M595.4,566.2h7v7h-7V566.2z M602.7,566.2h7v7h-7V566.2z M617.2,566.2h7v7h-7V566.2z M624.4,566.2h7v7h-7V566.2z M631.7,566.2h7v7
	h-7V566.2z M639,566.2h7v7h-7V566.2z M646.2,566.2h7v7h-7V566.2z M653.5,566.2h7v7h-7V566.2z M660.7,566.2h7v7h-7V566.2z M668,566.2
	h7v7h-7V566.2z M675.3,566.2h7v7h-7V566.2z M682.5,566.2h7v7h-7V566.2z M689.8,566.2h7v7h-7V566.2z M697,566.2h7v7h-7V566.2z
	 M704.3,566.2h7v7h-7V566.2z M711.6,566.2h7v7h-7V566.2z M718.8,566.2h7v7h-7V566.2z M733.3,566.2h7v7h-7V566.2z M740.6,566.2h7v7
	h-7V566.2z M747.9,566.2h7v7h-7V566.2z M755.1,566.2h7v7h-7V566.2z M762.4,566.2h7v7h-7V566.2z M776.9,566.2h7v7h-7V566.2z
	 M784.2,566.2h7v7h-7V566.2z M791.4,566.2h7v7h-7V566.2z M805.9,566.2h7v7h-7V566.2z M813.2,566.2h7v7h-7V566.2z M820.5,566.2h7v7
	h-7V566.2z M827.7,566.2h7v7h-7V566.2z M588.1,573.5h7v7h-7V573.5z M595.4,573.5h7v7h-7V573.5z M602.7,573.5h7v7h-7V573.5z
	 M609.9,573.5h7v7h-7V573.5z M617.2,573.5h7v7h-7V573.5z M631.7,573.5h7v7h-7V573.5z M639,573.5h7v7h-7V573.5z M653.5,573.5h7v7h-7
	V573.5z M660.7,573.5h7v7h-7V573.5z M668,573.5h7v7h-7V573.5z M682.5,573.5h7v7h-7V573.5z M689.8,573.5h7v7h-7V573.5z M697,573.5h7
	v7h-7V573.5z M711.6,573.5h7v7h-7V573.5z M718.8,573.5h7v7h-7V573.5z M726.1,573.5h7v7h-7V573.5z M733.3,573.5h7v7h-7V573.5z
	 M740.6,573.5h7v7h-7V573.5z M755.1,573.5h7v7h-7V573.5z M762.4,573.5h7v7h-7V573.5z M769.6,573.5h7v7h-7V573.5z M776.9,573.5h7v7
	h-7V573.5z M791.4,573.5h7v7h-7V573.5z M798.7,573.5h7v7h-7V573.5z M805.9,573.5h7v7h-7V573.5z M813.2,573.5h7v7h-7V573.5z
	 M602.7,580.7h7v7h-7V580.7z M609.9,580.7h7v7h-7V580.7z M617.2,580.7h7v7h-7V580.7z M624.4,580.7h7v7h-7V580.7z M631.7,580.7h7v7
	h-7V580.7z M639,580.7h7v7h-7V580.7z M646.2,580.7h7v7h-7V580.7z M653.5,580.7h7v7h-7V580.7z M660.7,580.7h7v7h-7V580.7z M646.2,588
	h7v7h-7V588z M653.5,588h7v7h-7V588z M660.7,588h7v7h-7V588z M668,580.7h7v7h-7V580.7z M675.3,580.7h7v7h-7V580.7z M682.5,580.7h7v7
	h-7V580.7z M697,580.7h7v7h-7V580.7z M704.3,580.7h7v7h-7V580.7z M711.6,580.7h7v7h-7V580.7z M718.8,580.7h7v7h-7V580.7z
	 M726.1,580.7h7v7h-7V580.7z M740.6,580.7h7v7h-7V580.7z M747.9,580.7h7v7h-7V580.7z M755.1,580.7h7v7h-7V580.7z M769.6,580.7h7v7
	h-7V580.7z M776.9,580.7h7v7h-7V580.7z M784.2,580.7h7v7h-7V580.7z M791.4,580.7h7v7h-7V580.7z M668,588h7v7h-7V588z M675.3,588h7v7
	h-7V588z M682.5,588h7v7h-7V588z M689.8,588h7v7h-7V588z M697,588h7v7h-7V588z M704.3,588h7v7h-7V588z M711.6,588h7v7h-7V588z
	 M718.8,588h7v7h-7V588z M726.1,588h7v7h-7V588z M733.3,588h7v7h-7V588z M740.6,588h7v7h-7V588z M747.9,588h7v7h-7V588z M755.1,588
	h7v7h-7V588z M762.4,588h7v7h-7V588z M769.6,588h7v7h-7V588z M22.1,381.2h7v7h-7V381.2z M29.4,381.2h7v7h-7V381.2z M36.7,381.2h7v7
	h-7V381.2z M43.9,381.2h7v7h-7V381.2z M73,381.2h7v7h-7V381.2z M80.2,381.2h7v7h-7V381.2z M87.5,381.2h7v7h-7V381.2z M94.7,381.2h7
	v7h-7V381.2z M102,381.2h7v7h-7V381.2z M109.3,381.2h7v7h-7V381.2z M116.5,381.2h7v7h-7V381.2z M152.8,381.2h7v7h-7V381.2z
	 M160.1,381.2h7v7h-7V381.2z M167.3,381.2h7v7h-7V381.2z M174.6,381.2h7v7h-7V381.2z M218.2,381.2h7v7h-7V381.2z M225.4,381.2h7v7
	h-7V381.2z M276.2,381.2h7v7h-7V381.2z M283.5,381.2h7v7h-7V381.2z M298,381.2h7v7h-7V381.2z M305.3,381.2h7v7h-7V381.2z
	 M312.5,381.2h7v7h-7V381.2z M348.8,381.2h7v7h-7V381.2z M356.1,381.2h7v7h-7V381.2z M363.4,381.2h7v7h-7V381.2z M370.6,381.2h7v7
	h-7V381.2z M414.2,381.2h7v7h-7V381.2z M421.4,381.2h7v7h-7V381.2z M428.7,381.2h7v7h-7V381.2z M436,381.2h7v7h-7V381.2z
	 M14.9,388.5h7v7h-7V388.5z M22.1,388.5h7v7h-7V388.5z M29.4,388.5h7v7h-7V388.5z M36.7,388.5h7v7h-7V388.5z M43.9,388.5h7v7h-7
	V388.5z M51.2,388.5h7v7h-7V388.5z M73,388.5h7v7h-7V388.5z M80.2,388.5h7v7h-7V388.5z M87.5,388.5h7v7h-7V388.5z M94.7,388.5h7v7
	h-7V388.5z M102,388.5h7v7h-7V388.5z M109.3,388.5h7v7h-7V388.5z M116.5,388.5h7v7h-7V388.5z M145.6,388.5h7v7h-7V388.5z
	 M152.8,388.5h7v7h-7V388.5z M160.1,388.5h7v7h-7V388.5z M167.3,388.5h7v7h-7V388.5z M174.6,388.5h7v7h-7V388.5z M218.2,388.5h7v7
	h-7V388.5z M225.4,388.5h7v7h-7V388.5z M276.2,388.5h7v7h-7V388.5z M283.5,388.5h7v7h-7V388.5z M298,388.5h7v7h-7V388.5z
	 M305.3,388.5h7v7h-7V388.5z M348.8,388.5h7v7h-7V388.5z M356.1,388.5h7v7h-7V388.5z M363.4,388.5h7v7h-7V388.5z M370.6,388.5h7v7
	h-7V388.5z M377.9,388.5h7v7h-7V388.5z M414.2,388.5h7v7h-7V388.5z M421.4,388.5h7v7h-7V388.5z M428.7,388.5h7v7h-7V388.5z
	 M436,388.5h7v7h-7V388.5z M443.2,388.5h7v7h-7V388.5z M14.9,395.7h7v7h-7V395.7z M22.1,395.7h7v7h-7V395.7z M43.9,395.7h7v7h-7
	V395.7z M51.2,395.7h7v7h-7V395.7z M73,395.7h7v7h-7V395.7z M80.2,395.7h7v7h-7V395.7z M87.5,395.7h7v7h-7V395.7z M94.7,395.7h7v7
	h-7V395.7z M102,395.7h7v7h-7V395.7z M116.5,395.7h7v7h-7V395.7z M145.6,395.7h7v7h-7V395.7z M152.8,395.7h7v7h-7V395.7z
	 M167.3,395.7h7v7h-7V395.7z M174.6,395.7h7v7h-7V395.7z M210.9,395.7h7v7h-7V395.7z M218.2,395.7h7v7h-7V395.7z M225.4,395.7h7v7
	h-7V395.7z M276.2,395.7h7v7h-7V395.7z M283.5,395.7h7v7h-7V395.7z M298,395.7h7v7h-7V395.7z M305.3,395.7h7v7h-7V395.7z
	 M348.8,395.7h7v7h-7V395.7z M356.1,395.7h7v7h-7V395.7z M414.2,395.7h7v7h-7V395.7z M421.4,395.7h7v7h-7V395.7z M436,395.7h7v7h-7
	V395.7z M443.2,395.7h7v7h-7V395.7z M14.9,403h7v7h-7V403z M22.1,403h7v7h-7V403z M43.9,403h7v7h-7V403z M51.2,403h7v7h-7V403z
	 M87.5,403h7v7h-7V403z M94.7,403h7v7h-7V403z M102,403h7v7h-7V403z M145.6,403h7v7h-7V403z M152.8,403h7v7h-7V403z M167.3,403h7v7
	h-7V403z M174.6,403h7v7h-7V403z M210.9,403h7v7h-7V403z M218.2,403h7v7h-7V403z M225.4,403h7v7h-7V403z M276.2,403h7v7h-7V403z
	 M283.5,403h7v7h-7V403z M290.8,403h7v7h-7V403z M298,403h7v7h-7V403z M305.3,403h7v7h-7V403z M341.6,403h7v7h-7V403z M348.8,403h7
	v7h-7V403z M356.1,403h7v7h-7V403z M363.4,403h7v7h-7V403z M370.6,403h7v7h-7V403z M377.9,403h7v7h-7V403z M414.2,403h7v7h-7V403z
	 M421.4,403h7v7h-7V403z M436,403h7v7h-7V403z M443.2,403h7v7h-7V403z M14.9,410.3h7v7h-7V410.3z M22.1,410.3h7v7h-7V410.3z
	 M43.9,410.3h7v7h-7V410.3z M51.2,410.3h7v7h-7V410.3z M94.7,410.3h7v7h-7V410.3z M102,410.3h7v7h-7V410.3z M145.6,410.3h7v7h-7
	V410.3z M152.8,410.3h7v7h-7V410.3z M167.3,410.3h7v7h-7V410.3z M174.6,410.3h7v7h-7V410.3z M210.9,410.3h7v7h-7V410.3z
	 M218.2,410.3h7v7h-7V410.3z M225.4,410.3h7v7h-7V410.3z M276.2,410.3h7v7h-7V410.3z M283.5,410.3h7v7h-7V410.3z M290.8,410.3h7v7
	h-7V410.3z M298,410.3h7v7h-7V410.3z M305.3,410.3h7v7h-7V410.3z M341.6,410.3h7v7h-7V410.3z M348.8,410.3h7v7h-7V410.3z
	 M356.1,410.3h7v7h-7V410.3z M363.4,410.3h7v7h-7V410.3z M370.6,410.3h7v7h-7V410.3z M377.9,410.3h7v7h-7V410.3z M414.2,410.3h7v7
	h-7V410.3z M421.4,410.3h7v7h-7V410.3z M436,410.3h7v7h-7V410.3z M443.2,410.3h7v7h-7V410.3z M14.9,417.5h7v7h-7V417.5z M22.1,417.5
	h7v7h-7V417.5z M94.7,417.5h7v7h-7V417.5z M102,417.5h7v7h-7V417.5z M145.6,417.5h7v7h-7V417.5z M152.8,417.5h7v7h-7V417.5z
	 M167.3,417.5h7v7h-7V417.5z M174.6,417.5h7v7h-7V417.5z M218.2,417.5h7v7h-7V417.5z M225.4,417.5h7v7h-7V417.5z M276.2,417.5h7v7
	h-7V417.5z M283.5,417.5h7v7h-7V417.5z M290.8,417.5h7v7h-7V417.5z M298,417.5h7v7h-7V417.5z M348.8,417.5h7v7h-7V417.5z
	 M356.1,417.5h7v7h-7V417.5z M414.2,417.5h7v7h-7V417.5z M421.4,417.5h7v7h-7V417.5z M436,417.5h7v7h-7V417.5z M443.2,417.5h7v7h-7
	V417.5z M14.9,424.8h7v7h-7V424.8z M22.1,424.8h7v7h-7V424.8z M29.4,424.8h7v7h-7V424.8z M36.7,424.8h7v7h-7V424.8z M43.9,424.8h7v7
	h-7V424.8z M51.2,424.8h7v7h-7V424.8z M87.5,424.8h7v7h-7V424.8z M94.7,424.8h7v7h-7V424.8z M102,424.8h7v7h-7V424.8z M145.6,424.8
	h7v7h-7V424.8z M152.8,424.8h7v7h-7V424.8z M160.1,424.8h7v7h-7V424.8z M167.3,424.8h7v7h-7V424.8z M174.6,424.8h7v7h-7V424.8z
	 M218.2,424.8h7v7h-7V424.8z M225.4,424.8h7v7h-7V424.8z M276.2,424.8h7v7h-7V424.8z M283.5,424.8h7v7h-7V424.8z M290.8,424.8h7v7
	h-7V424.8z M298,424.8h7v7h-7V424.8z M305.3,424.8h7v7h-7V424.8z M348.8,424.8h7v7h-7V424.8z M356.1,424.8h7v7h-7V424.8z
	 M414.2,424.8h7v7h-7V424.8z M421.4,424.8h7v7h-7V424.8z M436,424.8h7v7h-7V424.8z M443.2,424.8h7v7h-7V424.8z M22.1,432h7v7h-7V432
	z M29.4,432h7v7h-7V432z M36.7,432h7v7h-7V432z M43.9,432h7v7h-7V432z M51.2,432h7v7h-7V432z M87.5,432h7v7h-7V432z M94.7,432h7v7
	h-7V432z M102,432h7v7h-7V432z M145.6,432h7v7h-7V432z M152.8,432h7v7h-7V432z M167.3,432h7v7h-7V432z M174.6,432h7v7h-7V432z
	 M218.2,432h7v7h-7V432z M225.4,432h7v7h-7V432z M276.2,432h7v7h-7V432z M283.5,432h7v7h-7V432z M290.8,432h7v7h-7V432z M298,432h7
	v7h-7V432z M305.3,432h7v7h-7V432z M348.8,432h7v7h-7V432z M356.1,432h7v7h-7V432z M414.2,432h7v7h-7V432z M421.4,432h7v7h-7V432z
	 M428.7,432h7v7h-7V432z M436,432h7v7h-7V432z M43.9,439.3h7v7h-7V439.3z M51.2,439.3h7v7h-7V439.3z M87.5,439.3h7v7h-7V439.3z
	 M94.7,439.3h7v7h-7V439.3z M102,439.3h7v7h-7V439.3z M145.6,439.3h7v7h-7V439.3z M152.8,439.3h7v7h-7V439.3z M167.3,439.3h7v7h-7
	V439.3z M174.6,439.3h7v7h-7V439.3z M218.2,439.3h7v7h-7V439.3z M225.4,439.3h7v7h-7V439.3z M276.2,439.3h7v7h-7V439.3z
	 M283.5,439.3h7v7h-7V439.3z M298,439.3h7v7h-7V439.3z M305.3,439.3h7v7h-7V439.3z M348.8,439.3h7v7h-7V439.3z M356.1,439.3h7v7h-7
	V439.3z M414.2,439.3h7v7h-7V439.3z M421.4,439.3h7v7h-7V439.3z M428.7,439.3h7v7h-7V439.3z M436,439.3h7v7h-7V439.3z M443.2,439.3
	h7v7h-7V439.3z M43.9,446.6h7v7h-7V446.6z M51.2,446.6h7v7h-7V446.6z M94.7,446.6h7v7h-7V446.6z M102,446.6h7v7h-7V446.6z
	 M145.6,446.6h7v7h-7V446.6z M152.8,446.6h7v7h-7V446.6z M167.3,446.6h7v7h-7V446.6z M174.6,446.6h7v7h-7V446.6z M218.2,446.6h7v7
	h-7V446.6z M225.4,446.6h7v7h-7V446.6z M276.2,446.6h7v7h-7V446.6z M283.5,446.6h7v7h-7V446.6z M298,446.6h7v7h-7V446.6z
	 M305.3,446.6h7v7h-7V446.6z M312.5,446.6h7v7h-7V446.6z M348.8,446.6h7v7h-7V446.6z M356.1,446.6h7v7h-7V446.6z M414.2,446.6h7v7
	h-7V446.6z M421.4,446.6h7v7h-7V446.6z M436,446.6h7v7h-7V446.6z M443.2,446.6h7v7h-7V446.6z M14.9,453.8h7v7h-7V453.8z M22.1,453.8
	h7v7h-7V453.8z M43.9,453.8h7v7h-7V453.8z M51.2,453.8h7v7h-7V453.8z M94.7,453.8h7v7h-7V453.8z M102,453.8h7v7h-7V453.8z
	 M145.6,453.8h7v7h-7V453.8z M152.8,453.8h7v7h-7V453.8z M167.3,453.8h7v7h-7V453.8z M174.6,453.8h7v7h-7V453.8z M218.2,453.8h7v7
	h-7V453.8z M225.4,453.8h7v7h-7V453.8z M276.2,453.8h7v7h-7V453.8z M283.5,453.8h7v7h-7V453.8z M298,453.8h7v7h-7V453.8z
	 M305.3,453.8h7v7h-7V453.8z M312.5,453.8h7v7h-7V453.8z M348.8,453.8h7v7h-7V453.8z M356.1,453.8h7v7h-7V453.8z M414.2,453.8h7v7
	h-7V453.8z M421.4,453.8h7v7h-7V453.8z M436,453.8h7v7h-7V453.8z M443.2,453.8h7v7h-7V453.8z M450.5,453.8h7v7h-7V453.8z
	 M14.9,461.1h7v7h-7V461.1z M22.1,461.1h7v7h-7V461.1z M43.9,461.1h7v7h-7V461.1z M51.2,461.1h7v7h-7V461.1z M87.5,461.1h7v7h-7
	V461.1z M94.7,461.1h7v7h-7V461.1z M102,461.1h7v7h-7V461.1z M145.6,461.1h7v7h-7V461.1z M152.8,461.1h7v7h-7V461.1z M167.3,461.1h7
	v7h-7V461.1z M174.6,461.1h7v7h-7V461.1z M210.9,461.1h7v7h-7V461.1z M218.2,461.1h7v7h-7V461.1z M225.4,461.1h7v7h-7V461.1z
	 M276.2,461.1h7v7h-7V461.1z M283.5,461.1h7v7h-7V461.1z M298,461.1h7v7h-7V461.1z M305.3,461.1h7v7h-7V461.1z M348.8,461.1h7v7h-7
	V461.1z M356.1,461.1h7v7h-7V461.1z M414.2,461.1h7v7h-7V461.1z M421.4,461.1h7v7h-7V461.1z M436,461.1h7v7h-7V461.1z M443.2,461.1
	h7v7h-7V461.1z M450.5,461.1h7v7h-7V461.1z M14.9,468.3h7v7h-7V468.3z M22.1,468.3h7v7h-7V468.3z M43.9,468.3h7v7h-7V468.3z
	 M51.2,468.3h7v7h-7V468.3z M87.5,468.3h7v7h-7V468.3z M94.7,468.3h7v7h-7V468.3z M102,468.3h7v7h-7V468.3z M145.6,468.3h7v7h-7
	V468.3z M152.8,468.3h7v7h-7V468.3z M167.3,468.3h7v7h-7V468.3z M174.6,468.3h7v7h-7V468.3z M210.9,468.3h7v7h-7V468.3z
	 M218.2,468.3h7v7h-7V468.3z M225.4,468.3h7v7h-7V468.3z M276.2,468.3h7v7h-7V468.3z M283.5,468.3h7v7h-7V468.3z M298,468.3h7v7h-7
	V468.3z M305.3,468.3h7v7h-7V468.3z M348.8,468.3h7v7h-7V468.3z M356.1,468.3h7v7h-7V468.3z M414.2,468.3h7v7h-7V468.3z
	 M421.4,468.3h7v7h-7V468.3z M436,468.3h7v7h-7V468.3z M443.2,468.3h7v7h-7V468.3z M450.5,468.3h7v7h-7V468.3z M14.9,475.6h7v7h-7
	V475.6z M22.1,475.6h7v7h-7V475.6z M43.9,475.6h7v7h-7V475.6z M51.2,475.6h7v7h-7V475.6z M94.7,475.6h7v7h-7V475.6z M102,475.6h7v7
	h-7V475.6z M145.6,475.6h7v7h-7V475.6z M152.8,475.6h7v7h-7V475.6z M167.3,475.6h7v7h-7V475.6z M174.6,475.6h7v7h-7V475.6z
	 M210.9,475.6h7v7h-7V475.6z M218.2,475.6h7v7h-7V475.6z M225.4,475.6h7v7h-7V475.6z M276.2,475.6h7v7h-7V475.6z M283.5,475.6h7v7
	h-7V475.6z M298,475.6h7v7h-7V475.6z M305.3,475.6h7v7h-7V475.6z M348.8,475.6h7v7h-7V475.6z M356.1,475.6h7v7h-7V475.6z
	 M414.2,475.6h7v7h-7V475.6z M421.4,475.6h7v7h-7V475.6z M436,475.6h7v7h-7V475.6z M443.2,475.6h7v7h-7V475.6z M14.9,482.9h7v7h-7
	V482.9z M22.1,482.9h7v7h-7V482.9z M43.9,482.9h7v7h-7V482.9z M51.2,482.9h7v7h-7V482.9z M87.5,482.9h7v7h-7V482.9z M94.7,482.9h7v7
	h-7V482.9z M102,482.9h7v7h-7V482.9z M145.6,482.9h7v7h-7V482.9z M152.8,482.9h7v7h-7V482.9z M167.3,482.9h7v7h-7V482.9z
	 M174.6,482.9h7v7h-7V482.9z M210.9,482.9h7v7h-7V482.9z M218.2,482.9h7v7h-7V482.9z M225.4,482.9h7v7h-7V482.9z M276.2,482.9h7v7
	h-7V482.9z M283.5,482.9h7v7h-7V482.9z M298,482.9h7v7h-7V482.9z M305.3,482.9h7v7h-7V482.9z M348.8,482.9h7v7h-7V482.9z
	 M356.1,482.9h7v7h-7V482.9z M414.2,482.9h7v7h-7V482.9z M421.4,482.9h7v7h-7V482.9z M436,482.9h7v7h-7V482.9z M443.2,482.9h7v7h-7
	V482.9z M14.9,490.1h7v7h-7V490.1z M22.1,490.1h7v7h-7V490.1z M43.9,490.1h7v7h-7V490.1z M145.6,490.1h7v7h-7V490.1z M152.8,490.1h7
	v7h-7V490.1z M167.3,490.1h7v7h-7V490.1z M174.6,490.1h7v7h-7V490.1z M218.2,490.1h7v7h-7V490.1z M225.4,490.1h7v7h-7V490.1z
	 M276.2,490.1h7v7h-7V490.1z M283.5,490.1h7v7h-7V490.1z M298,490.1h7v7h-7V490.1z M305.3,490.1h7v7h-7V490.1z M348.8,490.1h7v7h-7
	V490.1z M356.1,490.1h7v7h-7V490.1z M414.2,490.1h7v7h-7V490.1z M421.4,490.1h7v7h-7V490.1z M436,490.1h7v7h-7V490.1z M443.2,490.1
	h7v7h-7V490.1z M14.9,497.4h7v7h-7V497.4z M22.1,497.4h7v7h-7V497.4z M43.9,497.4h7v7h-7V497.4z M51.2,497.4h7v7h-7V497.4z
	 M94.7,497.4h7v7h-7V497.4z M102,497.4h7v7h-7V497.4z M145.6,497.4h7v7h-7V497.4z M152.8,497.4h7v7h-7V497.4z M167.3,497.4h7v7h-7
	V497.4z M174.6,497.4h7v7h-7V497.4z M218.2,497.4h7v7h-7V497.4z M225.4,497.4h7v7h-7V497.4z M218.2,504.6h7v7h-7V504.6z
	 M225.4,504.6h7v7h-7V504.6z M276.2,497.4h7v7h-7V497.4z M283.5,497.4h7v7h-7V497.4z M298,497.4h7v7h-7V497.4z M305.3,497.4h7v7h-7
	V497.4z M348.8,497.4h7v7h-7V497.4z M356.1,497.4h7v7h-7V497.4z M414.2,497.4h7v7h-7V497.4z M421.4,497.4h7v7h-7V497.4z M436,497.4
	h7v7h-7V497.4z M443.2,497.4h7v7h-7V497.4z M22.1,504.6h7v7h-7V504.6z M29.4,504.6h7v7h-7V504.6z M43.9,504.6h7v7h-7V504.6z
	 M145.6,504.6h7v7h-7V504.6z M152.8,504.6h7v7h-7V504.6z M174.6,504.6h7v7h-7V504.6z M196.4,504.6h7v7h-7V504.6z M239.9,504.6h7v7
	h-7V504.6z M247.2,504.6h7v7h-7V504.6z M254.5,504.6h7v7h-7V504.6z M261.7,504.6h7v7h-7V504.6z M276.2,504.6h7v7h-7V504.6z
	 M283.5,504.6h7v7h-7V504.6z M305.3,504.6h7v7h-7V504.6z M327.1,504.6h7v7h-7V504.6z M348.8,504.6h7v7h-7V504.6z M356.1,504.6h7v7
	h-7V504.6z M399.7,511.9h7v7h-7V511.9z M414.2,504.6h7v7h-7V504.6z M421.4,504.6h7v7h-7V504.6z M436,504.6h7v7h-7V504.6z
	 M443.2,504.6h7v7h-7V504.6z M457.7,504.6h7v7h-7V504.6z M465,504.6h7v7h-7V504.6z M22.1,511.9h7v7h-7V511.9z M29.4,511.9h7v7h-7
	V511.9z M36.7,511.9h7v7h-7V511.9z M43.9,511.9h7v7h-7V511.9z M65.7,511.9h7v7h-7V511.9z M73,511.9h7v7h-7V511.9z M94.7,511.9h7v7
	h-7V511.9z M102,511.9h7v7h-7V511.9z M94.7,490.1h7v7h-7V490.1z M102,490.1h7v7h-7V490.1z M94.7,504.6h7v7h-7V504.6z M102,504.6h7v7
	h-7V504.6z M123.8,511.9h7v7h-7V511.9z M131,511.9h7v7h-7V511.9z M145.6,511.9h7v7h-7V511.9z M152.8,511.9h7v7h-7V511.9z
	 M167.3,511.9h7v7h-7V511.9z M174.6,511.9h7v7h-7V511.9z M189.1,511.9h7v7h-7V511.9z M196.4,511.9h7v7h-7V511.9z M203.6,511.9h7v7
	h-7V511.9z M218.2,511.9h7v7h-7V511.9z M225.4,511.9h7v7h-7V511.9z M232.7,511.9h7v7h-7V511.9z M239.9,511.9h7v7h-7V511.9z
	 M247.2,511.9h7v7h-7V511.9z M254.5,511.9h7v7h-7V511.9z M261.7,511.9h7v7h-7V511.9z M276.2,511.9h7v7h-7V511.9z M283.5,511.9h7v7
	h-7V511.9z M298,511.9h7v7h-7V511.9z M305.3,511.9h7v7h-7V511.9z M319.8,511.9h7v7h-7V511.9z M327.1,511.9h7v7h-7V511.9z
	 M334.3,511.9h7v7h-7V511.9z M348.8,511.9h7v7h-7V511.9z M356.1,511.9h7v7h-7V511.9z M363.4,511.9h7v7h-7V511.9z M370.6,511.9h7v7
	h-7V511.9z M377.9,511.9h7v7h-7V511.9z M392.4,511.9h7v7h-7V511.9z M414.2,511.9h7v7h-7V511.9z M421.4,511.9h7v7h-7V511.9z
	 M436,511.9h7v7h-7V511.9z M443.2,511.9h7v7h-7V511.9z M457.7,511.9h7v7h-7V511.9z M465,511.9h7v7h-7V511.9z M225.4,519.2h7v7h-7
	V519.2z M283.5,519.2h7v7h-7V519.2z M348.8,519.2h7v7h-7V519.2z M421.4,519.2h7v7h-7V519.2z M218.2,526.4h7v7h-7V526.4z M22.1-0.2h7
	v7h-7V-0.2z M29.4-0.2h7v7h-7V-0.2z M36.7-0.2h7v7h-7V-0.2z M43.9-0.2h7v7h-7V-0.2z M51.2-0.2h7v7h-7V-0.2z M58.4-0.2h7v7h-7V-0.2z
	 M65.7-0.2h7v7h-7V-0.2z M73-0.2h7v7h-7V-0.2z M80.2-0.2h7v7h-7V-0.2z M87.5-0.2h7v7h-7V-0.2z M94.7-0.2h7v7h-7V-0.2z M102-0.2h7v7
	h-7V-0.2z M116.5-0.2h7v7h-7V-0.2z M123.8-0.2h7v7h-7V-0.2z M131-0.2h7v7h-7V-0.2z M152.8-0.2h7v7h-7V-0.2z M160.1-0.2h7v7h-7V-0.2z
	 M36.7,7.1h7v7h-7V7.1z M43.9,7.1h7v7h-7V7.1z M51.2,7.1h7v7h-7V7.1z M58.4,7.1h7v7h-7V7.1z M65.7,7.1h7v7h-7V7.1z M73,7.1h7v7h-7
	V7.1z M80.2,7.1h7v7h-7V7.1z M87.5,7.1h7v7h-7V7.1z M94.7,7.1h7v7h-7V7.1z M102,7.1h7v7h-7V7.1z M109.3,7.1h7v7h-7V7.1z M123.8,7.1
	h7v7h-7V7.1z M131,7.1h7v7h-7V7.1z M138.3,7.1h7v7h-7V7.1z M160.1,7.1h7v7h-7V7.1z M43.9,14.4h7v7h-7V14.4z M51.2,14.4h7v7h-7V14.4z
	 M58.4,14.4h7v7h-7V14.4z M65.7,14.4h7v7h-7V14.4z M73,14.4h7v7h-7V14.4z M80.2,14.4h7v7h-7V14.4z M87.5,14.4h7v7h-7V14.4z
	 M94.7,14.4h7v7h-7V14.4z M102,14.4h7v7h-7V14.4z M109.3,14.4h7v7h-7V14.4z M116.5,14.4h7v7h-7V14.4z M123.8,14.4h7v7h-7V14.4z
	 M131,14.4h7v7h-7V14.4z M138.3,14.4h7v7h-7V14.4z M160.1,14.4h7v7h-7V14.4z M51.2,21.6h7v7h-7V21.6z M58.4,21.6h7v7h-7V21.6z
	 M65.7,21.6h7v7h-7V21.6z M73,21.6h7v7h-7V21.6z M80.2,21.6h7v7h-7V21.6z M87.5,21.6h7v7h-7V21.6z M94.7,21.6h7v7h-7V21.6z
	 M102,21.6h7v7h-7V21.6z M109.3,21.6h7v7h-7V21.6z M116.5,21.6h7v7h-7V21.6z M123.8,21.6h7v7h-7V21.6z M131,21.6h7v7h-7V21.6z
	 M138.3,21.6h7v7h-7V21.6z M145.6,21.6h7v7h-7V21.6z M160.1,21.6h7v7h-7V21.6z M65.7,28.9h7v7h-7V28.9z M73,28.9h7v7h-7V28.9z
	 M80.2,28.9h7v7h-7V28.9z M87.5,28.9h7v7h-7V28.9z M94.7,28.9h7v7h-7V28.9z M102,28.9h7v7h-7V28.9z M109.3,28.9h7v7h-7V28.9z
	 M116.5,28.9h7v7h-7V28.9z M123.8,28.9h7v7h-7V28.9z M131,28.9h7v7h-7V28.9z M138.3,28.9h7v7h-7V28.9z M145.6,28.9h7v7h-7V28.9z
	 M73,36.1h7v7h-7V36.1z M80.2,36.1h7v7h-7V36.1z M87.5,36.1h7v7h-7V36.1z M94.7,36.1h7v7h-7V36.1z M102,36.1h7v7h-7V36.1z
	 M109.3,36.1h7v7h-7V36.1z M116.5,36.1h7v7h-7V36.1z M123.8,36.1h7v7h-7V36.1z M131,36.1h7v7h-7V36.1z M138.3,36.1h7v7h-7V36.1z
	 M145.6,36.1h7v7h-7V36.1z M80.2,43.4h7v7h-7V43.4z M87.5,43.4h7v7h-7V43.4z M94.7,43.4h7v7h-7V43.4z M102,43.4h7v7h-7V43.4z
	 M109.3,43.4h7v7h-7V43.4z M116.5,43.4h7v7h-7V43.4z M123.8,43.4h7v7h-7V43.4z M131,43.4h7v7h-7V43.4z M138.3,43.4h7v7h-7V43.4z
	 M145.6,43.4h7v7h-7V43.4z M87.5,50.7h7v7h-7V50.7z M94.7,50.7h7v7h-7V50.7z M102,50.7h7v7h-7V50.7z M116.5,50.7h7v7h-7V50.7z
	 M123.8,50.7h7v7h-7V50.7z M131,50.7h7v7h-7V50.7z M138.3,50.7h7v7h-7V50.7z M145.6,50.7h7v7h-7V50.7z M94.7,57.9h7v7h-7V57.9z
	 M102,57.9h7v7h-7V57.9z M116.5,57.9h7v7h-7V57.9z M123.8,57.9h7v7h-7V57.9z M131,57.9h7v7h-7V57.9z M138.3,57.9h7v7h-7V57.9z
	 M145.6,57.9h7v7h-7V57.9z M102,65.2h7v7h-7V65.2z M131,72.4h7v7h-7V72.4z M138.3,72.4h7v7h-7V72.4z M145.6,72.4h7v7h-7V72.4z
	 M269,72.4h7v7h-7V72.4z M290.8,72.4h7v7h-7V72.4z M123.8,79.7h7v7h-7V79.7z M131,79.7h7v7h-7V79.7z M138.3,79.7h7v7h-7V79.7z
	 M145.6,79.7h7v7h-7V79.7z M160.1,79.7h7v7h-7V79.7z M247.2,79.7h7v7h-7V79.7z M261.7,79.7h7v7h-7V79.7z M269,79.7h7v7h-7V79.7z
	 M290.8,79.7h7v7h-7V79.7z M109.3,87h7v7h-7V87z M123.8,87h7v7h-7V87z M131,87h7v7h-7V87z M138.3,87h7v7h-7V87z M145.6,87h7v7h-7V87
	z M160.1,87h7v7h-7V87z M167.3,87h7v7h-7V87z M225.4,87h7v7h-7V87z M232.7,87h7v7h-7V87z M239.9,87h7v7h-7V87z M247.2,87h7v7h-7V87z
	 M261.7,87h7v7h-7V87z M269,87h7v7h-7V87z M290.8,87h7v7h-7V87z M109.3,94.2h7v7h-7V94.2z M123.8,94.2h7v7h-7V94.2z M131,94.2h7v7
	h-7V94.2z M138.3,94.2h7v7h-7V94.2z M145.6,94.2h7v7h-7V94.2z M152.8,94.2h7v7h-7V94.2z M160.1,94.2h7v7h-7V94.2z M167.3,94.2h7v7
	h-7V94.2z M174.6,94.2h7v7h-7V94.2z M196.4,94.2h7v7h-7V94.2z M210.9,94.2h7v7h-7V94.2z M218.2,94.2h7v7h-7V94.2z M225.4,94.2h7v7
	h-7V94.2z M232.7,94.2h7v7h-7V94.2z M239.9,94.2h7v7h-7V94.2z M247.2,94.2h7v7h-7V94.2z M254.5,94.2h7v7h-7V94.2z M261.7,94.2h7v7
	h-7V94.2z M269,94.2h7v7h-7V94.2z M276.2,94.2h7v7h-7V94.2z M283.5,94.2h7v7h-7V94.2z M290.8,94.2h7v7h-7V94.2z M102,101.5h7v7h-7
	V101.5z M109.3,101.5h7v7h-7V101.5z M131,101.5h7v7h-7V101.5z M138.3,101.5h7v7h-7V101.5z M145.6,101.5h7v7h-7V101.5z M152.8,101.5
	h7v7h-7V101.5z M167.3,101.5h7v7h-7V101.5z M174.6,101.5h7v7h-7V101.5z M189.1,101.5h7v7h-7V101.5z M196.4,101.5h7v7h-7V101.5z
	 M218.2,101.5h7v7h-7V101.5z M225.4,101.5h7v7h-7V101.5z M232.7,101.5h7v7h-7V101.5z M247.2,101.5h7v7h-7V101.5z M254.5,101.5h7v7
	h-7V101.5z M261.7,101.5h7v7h-7V101.5z M269,101.5h7v7h-7V101.5z M276.2,101.5h7v7h-7V101.5z M283.5,101.5h7v7h-7V101.5z
	 M290.8,101.5h7v7h-7V101.5z M102,108.7h7v7h-7V108.7z M109.3,108.7h7v7h-7V108.7z M131,108.7h7v7h-7V108.7z M138.3,108.7h7v7h-7
	V108.7z M145.6,108.7h7v7h-7V108.7z M152.8,108.7h7v7h-7V108.7z M160.1,108.7h7v7h-7V108.7z M167.3,108.7h7v7h-7V108.7z
	 M174.6,108.7h7v7h-7V108.7z M189.1,108.7h7v7h-7V108.7z M196.4,108.7h7v7h-7V108.7z M210.9,108.7h7v7h-7V108.7z M218.2,108.7h7v7
	h-7V108.7z M225.4,108.7h7v7h-7V108.7z M232.7,108.7h7v7h-7V108.7z M247.2,108.7h7v7h-7V108.7z M269,108.7h7v7h-7V108.7z
	 M276.2,108.7h7v7h-7V108.7z M283.5,108.7h7v7h-7V108.7z M290.8,108.7h7v7h-7V108.7z M102,116h7v7h-7V116z M109.3,116h7v7h-7V116z
	 M116.5,116h7v7h-7V116z M123.8,116h7v7h-7V116z M131,116h7v7h-7V116z M138.3,116h7v7h-7V116z M145.6,116h7v7h-7V116z M152.8,116h7
	v7h-7V116z M160.1,116h7v7h-7V116z M167.3,116h7v7h-7V116z M174.6,116h7v7h-7V116z M189.1,116h7v7h-7V116z M196.4,116h7v7h-7V116z
	 M203.6,116h7v7h-7V116z M210.9,116h7v7h-7V116z M218.2,116h7v7h-7V116z M225.4,116h7v7h-7V116z M232.7,116h7v7h-7V116z M239.9,116
	h7v7h-7V116z M247.2,116h7v7h-7V116z M269,116h7v7h-7V116z M276.2,116h7v7h-7V116z M283.5,116h7v7h-7V116z M290.8,116h7v7h-7V116z
	 M87.5,123.3h7v7h-7V123.3z M109.3,123.3h7v7h-7V123.3z M116.5,123.3h7v7h-7V123.3z M123.8,123.3h7v7h-7V123.3z M131,123.3h7v7h-7
	V123.3z M145.6,123.3h7v7h-7V123.3z M152.8,123.3h7v7h-7V123.3z M167.3,123.3h7v7h-7V123.3z M189.1,123.3h7v7h-7V123.3z
	 M196.4,123.3h7v7h-7V123.3z M203.6,123.3h7v7h-7V123.3z M210.9,123.3h7v7h-7V123.3z M218.2,123.3h7v7h-7V123.3z M225.4,123.3h7v7
	h-7V123.3z M232.7,123.3h7v7h-7V123.3z M239.9,123.3h7v7h-7V123.3z M247.2,123.3h7v7h-7V123.3z M269,123.3h7v7h-7V123.3z
	 M276.2,123.3h7v7h-7V123.3z M283.5,123.3h7v7h-7V123.3z M290.8,123.3h7v7h-7V123.3z M65.7,130.5h7v7h-7V130.5z M73,130.5h7v7h-7
	V130.5z M80.2,130.5h7v7h-7V130.5z M87.5,130.5h7v7h-7V130.5z M109.3,130.5h7v7h-7V130.5z M116.5,130.5h7v7h-7V130.5z M123.8,130.5
	h7v7h-7V130.5z M131,130.5h7v7h-7V130.5z M152.8,130.5h7v7h-7V130.5z M189.1,130.5h7v7h-7V130.5z M196.4,130.5h7v7h-7V130.5z
	 M203.6,130.5h7v7h-7V130.5z M225.4,130.5h7v7h-7V130.5z M239.9,130.5h7v7h-7V130.5z M247.2,130.5h7v7h-7V130.5z M254.5,130.5h7v7
	h-7V130.5z M269,130.5h7v7h-7V130.5z M276.2,130.5h7v7h-7V130.5z M283.5,130.5h7v7h-7V130.5z M290.8,130.5h7v7h-7V130.5z
	 M29.4,137.8h7v7h-7V137.8z M36.7,137.8h7v7h-7V137.8z M43.9,137.8h7v7h-7V137.8z M51.2,137.8h7v7h-7V137.8z M65.7,137.8h7v7h-7
	V137.8z M80.2,137.8h7v7h-7V137.8z M87.5,137.8h7v7h-7V137.8z M94.7,137.8h7v7h-7V137.8z M116.5,137.8h7v7h-7V137.8z M123.8,137.8h7
	v7h-7V137.8z M131,137.8h7v7h-7V137.8z M152.8,137.8h7v7h-7V137.8z M181.9,137.8h7v7h-7V137.8z M189.1,137.8h7v7h-7V137.8z
	 M196.4,137.8h7v7h-7V137.8z M203.6,137.8h7v7h-7V137.8z M210.9,137.8h7v7h-7V137.8z M225.4,137.8h7v7h-7V137.8z M247.2,137.8h7v7
	h-7V137.8z M254.5,137.8h7v7h-7V137.8z M269,137.8h7v7h-7V137.8z M283.5,137.8h7v7h-7V137.8z M0.4,145h7v7h-7V145z M7.6,145h7v7h-7
	V145z M14.9,145h7v7h-7V145z M22.1,145h7v7h-7V145z M29.4,145h7v7h-7V145z M36.7,145h7v7h-7V145z M43.9,145h7v7h-7V145z M51.2,145h7
	v7h-7V145z M65.7,145h7v7h-7V145z M73,145h7v7h-7V145z M80.2,145h7v7h-7V145z M87.5,145h7v7h-7V145z M94.7,145h7v7h-7V145z M102,145
	h7v7h-7V145z M131,145h7v7h-7V145z M138.3,145h7v7h-7V145z M181.9,145h7v7h-7V145z M203.6,145h7v7h-7V145z M210.9,145h7v7h-7V145z
	 M225.4,145h7v7h-7V145z M247.2,145h7v7h-7V145z M254.5,145h7v7h-7V145z M261.7,145h7v7h-7V145z M269,145h7v7h-7V145z M283.5,145h7
	v7h-7V145z M0.4,152.3h7v7h-7V152.3z M7.6,152.3h7v7h-7V152.3z M14.9,152.3h7v7h-7V152.3z M29.4,152.3h7v7h-7V152.3z M36.7,152.3h7
	v7h-7V152.3z M51.2,152.3h7v7h-7V152.3z M58.4,152.3h7v7h-7V152.3z M65.7,152.3h7v7h-7V152.3z M73,152.3h7v7h-7V152.3z M80.2,152.3
	h7v7h-7V152.3z M87.5,152.3h7v7h-7V152.3z M94.7,152.3h7v7h-7V152.3z M102,152.3h7v7h-7V152.3z M109.3,152.3h7v7h-7V152.3z
	 M203.6,152.3h7v7h-7V152.3z M210.9,152.3h7v7h-7V152.3z M218.2,152.3h7v7h-7V152.3z M225.4,152.3h7v7h-7V152.3z M239.9,152.3h7v7
	h-7V152.3z M247.2,152.3h7v7h-7V152.3z M254.5,152.3h7v7h-7V152.3z M261.7,152.3h7v7h-7V152.3z M269,152.3h7v7h-7V152.3z
	 M283.5,152.3h7v7h-7V152.3z M0.4,159.6h7v7h-7V159.6z M7.6,159.6h7v7h-7V159.6z M14.9,159.6h7v7h-7V159.6z M22.1,159.6h7v7h-7
	V159.6z M29.4,159.6h7v7h-7V159.6z M36.7,159.6h7v7h-7V159.6z M43.9,159.6h7v7h-7V159.6z M51.2,159.6h7v7h-7V159.6z M58.4,159.6h7v7
	h-7V159.6z M65.7,159.6h7v7h-7V159.6z M73,159.6h7v7h-7V159.6z M80.2,159.6h7v7h-7V159.6z M87.5,159.6h7v7h-7V159.6z M94.7,159.6h7
	v7h-7V159.6z M102,159.6h7v7h-7V159.6z M109.3,159.6h7v7h-7V159.6z M116.5,159.6h7v7h-7V159.6z M203.6,159.6h7v7h-7V159.6z
	 M210.9,159.6h7v7h-7V159.6z M218.2,159.6h7v7h-7V159.6z M225.4,159.6h7v7h-7V159.6z M239.9,159.6h7v7h-7V159.6z M247.2,159.6h7v7
	h-7V159.6z M254.5,159.6h7v7h-7V159.6z M261.7,159.6h7v7h-7V159.6z M269,159.6h7v7h-7V159.6z M0.4,166.8h7v7h-7V166.8z M7.6,166.8h7
	v7h-7V166.8z M14.9,166.8h7v7h-7V166.8z M22.1,166.8h7v7h-7V166.8z M29.4,166.8h7v7h-7V166.8z M36.7,166.8h7v7h-7V166.8z
	 M43.9,166.8h7v7h-7V166.8z M51.2,166.8h7v7h-7V166.8z M58.4,166.8h7v7h-7V166.8z M65.7,166.8h7v7h-7V166.8z M73,166.8h7v7h-7V166.8
	z M80.2,166.8h7v7h-7V166.8z M87.5,166.8h7v7h-7V166.8z M94.7,166.8h7v7h-7V166.8z M102,166.8h7v7h-7V166.8z M109.3,166.8h7v7h-7
	V166.8z M116.5,166.8h7v7h-7V166.8z M203.6,166.8h7v7h-7V166.8z M210.9,166.8h7v7h-7V166.8z M218.2,166.8h7v7h-7V166.8z
	 M225.4,166.8h7v7h-7V166.8z M239.9,166.8h7v7h-7V166.8z M247.2,166.8h7v7h-7V166.8z M254.5,166.8h7v7h-7V166.8z M261.7,166.8h7v7
	h-7V166.8z M269,166.8h7v7h-7V166.8z M0.4,174.1h7v7h-7V174.1z M7.6,174.1h7v7h-7V174.1z M14.9,174.1h7v7h-7V174.1z M22.1,174.1h7v7
	h-7V174.1z M29.4,174.1h7v7h-7V174.1z M36.7,174.1h7v7h-7V174.1z M43.9,174.1h7v7h-7V174.1z M51.2,174.1h7v7h-7V174.1z M58.4,174.1
	h7v7h-7V174.1z M65.7,174.1h7v7h-7V174.1z M73,174.1h7v7h-7V174.1z M80.2,174.1h7v7h-7V174.1z M87.5,174.1h7v7h-7V174.1z
	 M94.7,174.1h7v7h-7V174.1z M102,174.1h7v7h-7V174.1z M210.9,174.1h7v7h-7V174.1z M218.2,174.1h7v7h-7V174.1z M225.4,174.1h7v7h-7
	V174.1z M239.9,174.1h7v7h-7V174.1z M247.2,174.1h7v7h-7V174.1z M254.5,174.1h7v7h-7V174.1z M261.7,174.1h7v7h-7V174.1z M269,174.1
	h7v7h-7V174.1z M0.4,181.3h7v7h-7V181.3z M7.6,181.3h7v7h-7V181.3z M14.9,181.3h7v7h-7V181.3z M22.1,181.3h7v7h-7V181.3z
	 M29.4,181.3h7v7h-7V181.3z M36.7,181.3h7v7h-7V181.3z M51.2,181.3h7v7h-7V181.3z M58.4,181.3h7v7h-7V181.3z M65.7,181.3h7v7h-7
	V181.3z M73,181.3h7v7h-7V181.3z M80.2,181.3h7v7h-7V181.3z M87.5,181.3h7v7h-7V181.3z M94.7,181.3h7v7h-7V181.3z M102,181.3h7v7h-7
	V181.3z M218.2,181.3h7v7h-7V181.3z M225.4,181.3h7v7h-7V181.3z M232.7,181.3h7v7h-7V181.3z M239.9,181.3h7v7h-7V181.3z
	 M247.2,181.3h7v7h-7V181.3z M254.5,181.3h7v7h-7V181.3z M261.7,181.3h7v7h-7V181.3z M269,181.3h7v7h-7V181.3z M7.6,188.6h7v7h-7
	V188.6z M14.9,188.6h7v7h-7V188.6z M22.1,188.6h7v7h-7V188.6z M36.7,188.6h7v7h-7V188.6z M51.2,188.6h7v7h-7V188.6z M58.4,188.6h7v7
	h-7V188.6z M65.7,188.6h7v7h-7V188.6z M73,188.6h7v7h-7V188.6z M80.2,188.6h7v7h-7V188.6z M87.5,188.6h7v7h-7V188.6z M94.7,188.6h7
	v7h-7V188.6z M102,188.6h7v7h-7V188.6z M225.4,188.6h7v7h-7V188.6z M232.7,188.6h7v7h-7V188.6z M239.9,188.6h7v7h-7V188.6z
	 M254.5,188.6h7v7h-7V188.6z M261.7,188.6h7v7h-7V188.6z M269,188.6h7v7h-7V188.6z M7.6,195.9h7v7h-7V195.9z M14.9,195.9h7v7h-7
	V195.9z M22.1,195.9h7v7h-7V195.9z M29.4,195.9h7v7h-7V195.9z M36.7,195.9h7v7h-7V195.9z M43.9,195.9h7v7h-7V195.9z M51.2,195.9h7v7
	h-7V195.9z M58.4,195.9h7v7h-7V195.9z M65.7,195.9h7v7h-7V195.9z M73,195.9h7v7h-7V195.9z M80.2,195.9h7v7h-7V195.9z M87.5,195.9h7
	v7h-7V195.9z M94.7,195.9h7v7h-7V195.9z M102,195.9h7v7h-7V195.9z M109.3,195.9h7v7h-7V195.9z M232.7,195.9h7v7h-7V195.9z
	 M254.5,195.9h7v7h-7V195.9z M261.7,195.9h7v7h-7V195.9z M14.9,203.1h7v7h-7V203.1z M22.1,203.1h7v7h-7V203.1z M29.4,203.1h7v7h-7
	V203.1z M36.7,203.1h7v7h-7V203.1z M43.9,203.1h7v7h-7V203.1z M51.2,203.1h7v7h-7V203.1z M58.4,203.1h7v7h-7V203.1z M65.7,203.1h7v7
	h-7V203.1z M73,203.1h7v7h-7V203.1z M80.2,203.1h7v7h-7V203.1z M87.5,203.1h7v7h-7V203.1z M102,203.1h7v7h-7V203.1z M109.3,203.1h7
	v7h-7V203.1z M254.5,203.1h7v7h-7V203.1z M261.7,203.1h7v7h-7V203.1z M22.1,210.4h7v7h-7V210.4z M29.4,210.4h7v7h-7V210.4z
	 M36.7,210.4h7v7h-7V210.4z M43.9,210.4h7v7h-7V210.4z M51.2,210.4h7v7h-7V210.4z M58.4,210.4h7v7h-7V210.4z M65.7,210.4h7v7h-7
	V210.4z M73,210.4h7v7h-7V210.4z M80.2,210.4h7v7h-7V210.4z M87.5,210.4h7v7h-7V210.4z M102,210.4h7v7h-7V210.4z M254.5,210.4h7v7
	h-7V210.4z M29.4,217.6h7v7h-7V217.6z M36.7,217.6h7v7h-7V217.6z M43.9,217.6h7v7h-7V217.6z M51.2,217.6h7v7h-7V217.6z M65.7,217.6
	h7v7h-7V217.6z M73,217.6h7v7h-7V217.6z M80.2,217.6h7v7h-7V217.6z M87.5,217.6h7v7h-7V217.6z M102,217.6h7v7h-7V217.6z M36.7,224.9
	h7v7h-7V224.9z M43.9,224.9h7v7h-7V224.9z M51.2,224.9h7v7h-7V224.9z M58.4,224.9h7v7h-7V224.9z M65.7,224.9h7v7h-7V224.9z
	 M73,224.9h7v7h-7V224.9z M80.2,224.9h7v7h-7V224.9z M87.5,224.9h7v7h-7V224.9z M94.7,224.9h7v7h-7V224.9z M102,224.9h7v7h-7V224.9z
	 M43.9,232.2h7v7h-7V232.2z M51.2,232.2h7v7h-7V232.2z M58.4,232.2h7v7h-7V232.2z M65.7,232.2h7v7h-7V232.2z M73,232.2h7v7h-7V232.2
	z M80.2,232.2h7v7h-7V232.2z M87.5,232.2h7v7h-7V232.2z M94.7,232.2h7v7h-7V232.2z M102,232.2h7v7h-7V232.2z M65.7,239.4h7v7h-7
	V239.4z M73,239.4h7v7h-7V239.4z M80.2,239.4h7v7h-7V239.4z M87.5,239.4h7v7h-7V239.4z M94.7,239.4h7v7h-7V239.4z M102,239.4h7v7h-7
	V239.4z M73,246.7h7v7h-7V246.7z M80.2,246.7h7v7h-7V246.7z M87.5,246.7h7v7h-7V246.7z M94.7,246.7h7v7h-7V246.7z M87.5,253.9h7v7
	h-7V253.9z M94.7,253.9h7v7h-7V253.9z"/>
</svg>
