<?xml version="1.0" encoding="utf-8"?>
<!-- Generator: Adobe Illustrator 27.3.1, SVG Export Plug-In . SVG Version: 6.00 Build 0)  -->
<svg version="1.1" id="Слой_1" xmlns:ev="http://www.w3.org/2001/xml-events"
	 xmlns="http://www.w3.org/2000/svg" xmlns:xlink="http://www.w3.org/1999/xlink" x="0px" y="0px" viewBox="0 0 871 595"
	 style="enable-background:new 0 0 871 595;" xml:space="preserve">
<style type="text/css">
	.st0{fill:#1E0E01;}
</style>
<path class="st0" d="M609.8,7.3h7v7h-7V7.3z M580.8,14.5h7v7h-7V14.5z M588.1,14.5h7v7h-7V14.5z M595.3,14.5h7v7h-7V14.5z
	 M602.6,14.5h7v7h-7V14.5z M609.8,14.5h7v7h-7V14.5z M617.1,14.5h7v7h-7V14.5z M537.2,21.8h7v7h-7V21.8z M544.5,21.8h7v7h-7V21.8z
	 M551.8,21.8h7v7h-7V21.8z M559,21.8h7v7h-7V21.8z M566.3,21.8h7v7h-7V21.8z M573.5,21.8h7v7h-7V21.8z M580.8,21.8h7v7h-7V21.8z
	 M588.1,21.8h7v7h-7V21.8z M595.3,21.8h7v7h-7V21.8z M602.6,21.8h7v7h-7V21.8z M167,29h7v7h-7V29z M174.2,29h7v7h-7V29z M181.5,29h7
	v7h-7V29z M188.8,29h7v7h-7V29z M515.5,29h7v7h-7V29z M522.7,29h7v7h-7V29z M530,29h7v7h-7V29z M537.2,29h7v7h-7V29z M544.5,29h7v7
	h-7V29z M551.8,29h7v7h-7V29z M559,29h7v7h-7V29z M566.3,29h7v7h-7V29z M573.5,29h7v7h-7V29z M580.8,29h7v7h-7V29z M588.1,29h7v7h-7
	V29z M595.3,29h7v7h-7V29z M174.2,36.3h7v7h-7V36.3z M181.5,36.3h7v7h-7V36.3z M188.8,36.3h7v7h-7V36.3z M196,36.3h7v7h-7V36.3z
	 M203.3,36.3h7v7h-7V36.3z M210.5,36.3h7v7h-7V36.3z M341.2,36.3h7v7h-7V36.3z M348.5,36.3h7v7h-7V36.3z M355.7,36.3h7v7h-7V36.3z
	 M363,36.3h7v7h-7V36.3z M370.3,36.3h7v7h-7V36.3z M377.5,36.3h7v7h-7V36.3z M384.8,36.3h7v7h-7V36.3z M392,36.3h7v7h-7V36.3z
	 M399.3,36.3h7v7h-7V36.3z M406.6,36.3h7v7h-7V36.3z M479.2,36.3h7v7h-7V36.3z M486.4,36.3h7v7h-7V36.3z M493.7,36.3h7v7h-7V36.3z
	 M500.9,36.3h7v7h-7V36.3z M508.2,36.3h7v7h-7V36.3z M515.5,36.3h7v7h-7V36.3z M522.7,36.3h7v7h-7V36.3z M530,36.3h7v7h-7V36.3z
	 M537.2,36.3h7v7h-7V36.3z M544.5,36.3h7v7h-7V36.3z M551.8,36.3h7v7h-7V36.3z M559,36.3h7v7h-7V36.3z M566.3,36.3h7v7h-7V36.3z
	 M573.5,36.3h7v7h-7V36.3z M580.8,36.3h7v7h-7V36.3z M588.1,36.3h7v7h-7V36.3z M174.2,43.6h7v7h-7V43.6z M181.5,43.6h7v7h-7V43.6z
	 M188.8,43.6h7v7h-7V43.6z M196,43.6h7v7h-7V43.6z M203.3,43.6h7v7h-7V43.6z M210.5,43.6h7v7h-7V43.6z M217.8,43.6h7v7h-7V43.6z
	 M225.1,43.6h7v7h-7V43.6z M232.3,43.6h7v7h-7V43.6z M239.6,43.6h7v7h-7V43.6z M326.7,43.6h7v7h-7V43.6z M334,43.6h7v7h-7V43.6z
	 M341.2,43.6h7v7h-7V43.6z M413.8,43.6h7v7h-7V43.6z M421.1,43.6h7v7h-7V43.6z M428.3,43.6h7v7h-7V43.6z M435.6,43.6h7v7h-7V43.6z
	 M450.1,43.6h7v7h-7V43.6z M457.4,43.6h7v7h-7V43.6z M464.6,43.6h7v7h-7V43.6z M486.4,43.6h7v7h-7V43.6z M493.7,43.6h7v7h-7V43.6z
	 M500.9,43.6h7v7h-7V43.6z M508.2,43.6h7v7h-7V43.6z M515.5,43.6h7v7h-7V43.6z M522.7,43.6h7v7h-7V43.6z M530,43.6h7v7h-7V43.6z
	 M537.2,43.6h7v7h-7V43.6z M544.5,43.6h7v7h-7V43.6z M551.8,43.6h7v7h-7V43.6z M559,43.6h7v7h-7V43.6z M566.3,43.6h7v7h-7V43.6z
	 M573.5,43.6h7v7h-7V43.6z M580.8,43.6h7v7h-7V43.6z M181.5,50.8h7v7h-7V50.8z M188.8,50.8h7v7h-7V50.8z M196,50.8h7v7h-7V50.8z
	 M203.3,50.8h7v7h-7V50.8z M210.5,50.8h7v7h-7V50.8z M217.8,50.8h7v7h-7V50.8z M225.1,50.8h7v7h-7V50.8z M232.3,50.8h7v7h-7V50.8z
	 M239.6,50.8h7v7h-7V50.8z M246.8,50.8h7v7h-7V50.8z M254.1,50.8h7v7h-7V50.8z M261.4,50.8h7v7h-7V50.8z M268.6,50.8h7v7h-7V50.8z
	 M275.9,50.8h7v7h-7V50.8z M312.2,50.8h7v7h-7V50.8z M319.4,50.8h7v7h-7V50.8z M435.6,50.8h7v7h-7V50.8z M442.9,50.8h7v7h-7V50.8z
	 M450.1,50.8h7v7h-7V50.8z M500.9,50.8h7v7h-7V50.8z M508.2,50.8h7v7h-7V50.8z M530,50.8h7v7h-7V50.8z M537.2,50.8h7v7h-7V50.8z
	 M544.5,50.8h7v7h-7V50.8z M551.8,50.8h7v7h-7V50.8z M559,50.8h7v7h-7V50.8z M566.3,50.8h7v7h-7V50.8z M573.5,50.8h7v7h-7V50.8z
	 M580.8,50.8h7v7h-7V50.8z M181.5,58.1h7v7h-7V58.1z M188.8,58.1h7v7h-7V58.1z M196,58.1h7v7h-7V58.1z M203.3,58.1h7v7h-7V58.1z
	 M210.5,58.1h7v7h-7V58.1z M217.8,58.1h7v7h-7V58.1z M225.1,58.1h7v7h-7V58.1z M232.3,58.1h7v7h-7V58.1z M239.6,58.1h7v7h-7V58.1z
	 M246.8,58.1h7v7h-7V58.1z M254.1,58.1h7v7h-7V58.1z M283.1,58.1h7v7h-7V58.1z M290.4,58.1h7v7h-7V58.1z M297.7,58.1h7v7h-7V58.1z
	 M304.9,58.1h7v7h-7V58.1z M312.2,58.1h7v7h-7V58.1z M450.1,58.1h7v7h-7V58.1z M457.4,58.1h7v7h-7V58.1z M544.5,58.1h7v7h-7V58.1z
	 M551.8,58.1h7v7h-7V58.1z M559,58.1h7v7h-7V58.1z M566.3,58.1h7v7h-7V58.1z M573.5,58.1h7v7h-7V58.1z M188.8,65.3h7v7h-7V65.3z
	 M196,65.3h7v7h-7V65.3z M203.3,65.3h7v7h-7V65.3z M210.5,65.3h7v7h-7V65.3z M217.8,65.3h7v7h-7V65.3z M225.1,65.3h7v7h-7V65.3z
	 M232.3,65.3h7v7h-7V65.3z M239.6,65.3h7v7h-7V65.3z M246.8,65.3h7v7h-7V65.3z M254.1,65.3h7v7h-7V65.3z M297.7,65.3h7v7h-7V65.3z
	 M464.6,65.3h7v7h-7V65.3z M471.9,65.3h7v7h-7V65.3z M551.8,65.3h7v7h-7V65.3z M559,65.3h7v7h-7V65.3z M566.3,65.3h7v7h-7V65.3z
	 M196,72.6h7v7h-7V72.6z M203.3,72.6h7v7h-7V72.6z M210.5,72.6h7v7h-7V72.6z M217.8,72.6h7v7h-7V72.6z M225.1,72.6h7v7h-7V72.6z
	 M232.3,72.6h7v7h-7V72.6z M239.6,72.6h7v7h-7V72.6z M246.8,72.6h7v7h-7V72.6z M479.2,72.6h7v7h-7V72.6z M486.4,72.6h7v7h-7V72.6z
	 M544.5,72.6h7v7h-7V72.6z M551.8,72.6h7v7h-7V72.6z M559,72.6h7v7h-7V72.6z M566.3,72.6h7v7h-7V72.6z M203.3,79.9h7v7h-7V79.9z
	 M210.5,79.9h7v7h-7V79.9z M217.8,79.9h7v7h-7V79.9z M225.1,79.9h7v7h-7V79.9z M232.3,79.9h7v7h-7V79.9z M239.6,79.9h7v7h-7V79.9z
	 M246.8,79.9h7v7h-7V79.9z M537.2,79.9h7v7h-7V79.9z M544.5,79.9h7v7h-7V79.9z M551.8,79.9h7v7h-7V79.9z M559,79.9h7v7h-7V79.9z
	 M210.5,87.1h7v7h-7V87.1z M217.8,87.1h7v7h-7V87.1z M225.1,87.1h7v7h-7V87.1z M232.3,87.1h7v7h-7V87.1z M239.6,87.1h7v7h-7V87.1z
	 M246.8,87.1h7v7h-7V87.1z M254.1,87.1h7v7h-7V87.1z M537.2,87.1h7v7h-7V87.1z M544.5,87.1h7v7h-7V87.1z M551.8,87.1h7v7h-7V87.1z
	 M210.5,94.4h7v7h-7V94.4z M217.8,94.4h7v7h-7V94.4z M225.1,94.4h7v7h-7V94.4z M232.3,94.4h7v7h-7V94.4z M239.6,94.4h7v7h-7V94.4z
	 M246.8,94.4h7v7h-7V94.4z M537.2,94.4h7v7h-7V94.4z M544.5,94.4h7v7h-7V94.4z M551.8,94.4h7v7h-7V94.4z M217.8,101.6h7v7h-7V101.6z
	 M225.1,101.6h7v7h-7V101.6z M232.3,101.6h7v7h-7V101.6z M239.6,101.6h7v7h-7V101.6z M530,101.6h7v7h-7V101.6z M537.2,101.6h7v7h-7
	V101.6z M544.5,101.6h7v7h-7V101.6z M210.5,108.9h7v7h-7V108.9z M217.8,108.9h7v7h-7V108.9z M225.1,108.9h7v7h-7V108.9z
	 M232.3,108.9h7v7h-7V108.9z M239.6,108.9h7v7h-7V108.9z M457.4,108.9h7v7h-7V108.9z M464.6,108.9h7v7h-7V108.9z M471.9,108.9h7v7
	h-7V108.9z M522.7,108.9h7v7h-7V108.9z M530,108.9h7v7h-7V108.9z M537.2,108.9h7v7h-7V108.9z M217.8,116.2h7v7h-7V116.2z
	 M225.1,116.2h7v7h-7V116.2z M232.3,116.2h7v7h-7V116.2z M283.1,116.2h7v7h-7V116.2z M290.4,116.2h7v7h-7V116.2z M297.7,116.2h7v7
	h-7V116.2z M464.6,116.2h7v7h-7V116.2z M471.9,116.2h7v7h-7V116.2z M515.5,116.2h7v7h-7V116.2z M522.7,116.2h7v7h-7V116.2z
	 M530,116.2h7v7h-7V116.2z M225.1,123.4h7v7h-7V123.4z M232.3,123.4h7v7h-7V123.4z M239.6,123.4h7v7h-7V123.4z M283.1,123.4h7v7h-7
	V123.4z M290.4,123.4h7v7h-7V123.4z M297.7,123.4h7v7h-7V123.4z M304.9,123.4h7v7h-7V123.4z M435.6,123.4h7v7h-7V123.4z
	 M464.6,123.4h7v7h-7V123.4z M522.7,123.4h7v7h-7V123.4z M530,123.4h7v7h-7V123.4z M537.2,123.4h7v7h-7V123.4z M544.5,123.4h7v7h-7
	V123.4z M551.8,123.4h7v7h-7V123.4z M559,123.4h7v7h-7V123.4z M566.3,123.4h7v7h-7V123.4z M588.1,123.4h7v7h-7V123.4z M232.3,130.7
	h7v7h-7V130.7z M239.6,130.7h7v7h-7V130.7z M246.8,130.7h7v7h-7V130.7z M275.9,130.7h7v7h-7V130.7z M283.1,130.7h7v7h-7V130.7z
	 M290.4,130.7h7v7h-7V130.7z M312.2,130.7h7v7h-7V130.7z M428.3,130.7h7v7h-7V130.7z M464.6,130.7h7v7h-7V130.7z M522.7,130.7h7v7
	h-7V130.7z M530,130.7h7v7h-7V130.7z M537.2,130.7h7v7h-7V130.7z M544.5,130.7h7v7h-7V130.7z M551.8,130.7h7v7h-7V130.7z M559,130.7
	h7v7h-7V130.7z M566.3,130.7h7v7h-7V130.7z M573.5,130.7h7v7h-7V130.7z M580.8,130.7h7v7h-7V130.7z M588.1,130.7h7v7h-7V130.7z
	 M595.3,130.7h7v7h-7V130.7z M602.6,130.7h7v7h-7V130.7z M609.8,130.7h7v7h-7V130.7z M239.6,137.9h7v7h-7V137.9z M246.8,137.9h7v7
	h-7V137.9z M254.1,137.9h7v7h-7V137.9z M275.9,137.9h7v7h-7V137.9z M283.1,137.9h7v7h-7V137.9z M290.4,137.9h7v7h-7V137.9z
	 M319.4,137.9h7v7h-7V137.9z M413.8,137.9h7v7h-7V137.9z M464.6,137.9h7v7h-7V137.9z M471.9,137.9h7v7h-7V137.9z M530,137.9h7v7h-7
	V137.9z M537.2,137.9h7v7h-7V137.9z M544.5,137.9h7v7h-7V137.9z M551.8,137.9h7v7h-7V137.9z M559,137.9h7v7h-7V137.9z M566.3,137.9
	h7v7h-7V137.9z M573.5,137.9h7v7h-7V137.9z M580.8,137.9h7v7h-7V137.9z M181.5,145.2h7v7h-7V145.2z M188.8,145.2h7v7h-7V145.2z
	 M196,145.2h7v7h-7V145.2z M203.3,145.2h7v7h-7V145.2z M210.5,145.2h7v7h-7V145.2z M217.8,145.2h7v7h-7V145.2z M225.1,145.2h7v7h-7
	V145.2z M232.3,145.2h7v7h-7V145.2z M239.6,145.2h7v7h-7V145.2z M246.8,145.2h7v7h-7V145.2z M254.1,145.2h7v7h-7V145.2z
	 M275.9,145.2h7v7h-7V145.2z M283.1,145.2h7v7h-7V145.2z M326.7,145.2h7v7h-7V145.2z M334,145.2h7v7h-7V145.2z M406.6,145.2h7v7h-7
	V145.2z M464.6,145.2h7v7h-7V145.2z M471.9,145.2h7v7h-7V145.2z M530,145.2h7v7h-7V145.2z M537.2,145.2h7v7h-7V145.2z M544.5,145.2
	h7v7h-7V145.2z M551.8,145.2h7v7h-7V145.2z M559,145.2h7v7h-7V145.2z M566.3,145.2h7v7h-7V145.2z M573.5,145.2h7v7h-7V145.2z
	 M181.5,152.5h7v7h-7V152.5z M188.8,152.5h7v7h-7V152.5z M196,152.5h7v7h-7V152.5z M203.3,152.5h7v7h-7V152.5z M210.5,152.5h7v7h-7
	V152.5z M217.8,152.5h7v7h-7V152.5z M225.1,152.5h7v7h-7V152.5z M232.3,152.5h7v7h-7V152.5z M239.6,152.5h7v7h-7V152.5z
	 M275.9,152.5h7v7h-7V152.5z M283.1,152.5h7v7h-7V152.5z M290.4,152.5h7v7h-7V152.5z M334,152.5h7v7h-7V152.5z M341.2,152.5h7v7h-7
	V152.5z M392,152.5h7v7h-7V152.5z M399.3,152.5h7v7h-7V152.5z M457.4,152.5h7v7h-7V152.5z M464.6,152.5h7v7h-7V152.5z M471.9,152.5
	h7v7h-7V152.5z M537.2,152.5h7v7h-7V152.5z M544.5,152.5h7v7h-7V152.5z M551.8,152.5h7v7h-7V152.5z M559,152.5h7v7h-7V152.5z
	 M566.3,152.5h7v7h-7V152.5z M196,159.7h7v7h-7V159.7z M203.3,159.7h7v7h-7V159.7z M210.5,159.7h7v7h-7V159.7z M217.8,159.7h7v7h-7
	V159.7z M225.1,159.7h7v7h-7V159.7z M275.9,159.7h7v7h-7V159.7z M283.1,159.7h7v7h-7V159.7z M290.4,159.7h7v7h-7V159.7z
	 M348.5,159.7h7v7h-7V159.7z M355.7,159.7h7v7h-7V159.7z M392,159.7h7v7h-7V159.7z M399.3,159.7h7v7h-7V159.7z M406.6,159.7h7v7h-7
	V159.7z M457.4,159.7h7v7h-7V159.7z M464.6,159.7h7v7h-7V159.7z M471.9,159.7h7v7h-7V159.7z M537.2,159.7h7v7h-7V159.7z
	 M544.5,159.7h7v7h-7V159.7z M551.8,159.7h7v7h-7V159.7z M559,159.7h7v7h-7V159.7z M203.3,167h7v7h-7V167z M210.5,167h7v7h-7V167z
	 M217.8,167h7v7h-7V167z M225.1,167h7v7h-7V167z M232.3,167h7v7h-7V167z M283.1,167h7v7h-7V167z M290.4,167h7v7h-7V167z M297.7,167
	h7v7h-7V167z M348.5,167h7v7h-7V167z M355.7,167h7v7h-7V167z M399.3,167h7v7h-7V167z M406.6,167h7v7h-7V167z M413.8,167h7v7h-7V167z
	 M450.1,167h7v7h-7V167z M457.4,167h7v7h-7V167z M464.6,167h7v7h-7V167z M537.2,167h7v7h-7V167z M544.5,167h7v7h-7V167z M551.8,167
	h7v7h-7V167z M210.5,174.2h7v7h-7V174.2z M217.8,174.2h7v7h-7V174.2z M225.1,174.2h7v7h-7V174.2z M232.3,174.2h7v7h-7V174.2z
	 M283.1,174.2h7v7h-7V174.2z M290.4,174.2h7v7h-7V174.2z M297.7,174.2h7v7h-7V174.2z M304.9,174.2h7v7h-7V174.2z M312.2,174.2h7v7
	h-7V174.2z M326.7,174.2h7v7h-7V174.2z M334,174.2h7v7h-7V174.2z M341.2,174.2h7v7h-7V174.2z M348.5,174.2h7v7h-7V174.2z
	 M399.3,174.2h7v7h-7V174.2z M406.6,174.2h7v7h-7V174.2z M413.8,174.2h7v7h-7V174.2z M421.1,174.2h7v7h-7V174.2z M428.3,174.2h7v7
	h-7V174.2z M435.6,174.2h7v7h-7V174.2z M442.9,174.2h7v7h-7V174.2z M450.1,174.2h7v7h-7V174.2z M457.4,174.2h7v7h-7V174.2z
	 M464.6,174.2h7v7h-7V174.2z M537.2,174.2h7v7h-7V174.2z M544.5,174.2h7v7h-7V174.2z M566.3,174.2h7v7h-7V174.2z M217.8,181.5h7v7
	h-7V181.5z M225.1,181.5h7v7h-7V181.5z M232.3,181.5h7v7h-7V181.5z M239.6,181.5h7v7h-7V181.5z M290.4,181.5h7v7h-7V181.5z
	 M297.7,181.5h7v7h-7V181.5z M304.9,181.5h7v7h-7V181.5z M312.2,181.5h7v7h-7V181.5z M319.4,181.5h7v7h-7V181.5z M326.7,181.5h7v7
	h-7V181.5z M334,181.5h7v7h-7V181.5z M341.2,181.5h7v7h-7V181.5z M406.6,181.5h7v7h-7V181.5z M413.8,181.5h7v7h-7V181.5z
	 M421.1,181.5h7v7h-7V181.5z M428.3,181.5h7v7h-7V181.5z M435.6,181.5h7v7h-7V181.5z M442.9,181.5h7v7h-7V181.5z M450.1,181.5h7v7
	h-7V181.5z M479.2,181.5h7v7h-7V181.5z M537.2,181.5h7v7h-7V181.5z M544.5,181.5h7v7h-7V181.5z M551.8,181.5h7v7h-7V181.5z
	 M559,181.5h7v7h-7V181.5z M566.3,181.5h7v7h-7V181.5z M225.1,188.8h7v7h-7V188.8z M232.3,188.8h7v7h-7V188.8z M297.7,188.8h7v7h-7
	V188.8z M304.9,188.8h7v7h-7V188.8z M312.2,188.8h7v7h-7V188.8z M319.4,188.8h7v7h-7V188.8z M326.7,188.8h7v7h-7V188.8z M334,188.8
	h7v7h-7V188.8z M421.1,188.8h7v7h-7V188.8z M428.3,188.8h7v7h-7V188.8z M435.6,188.8h7v7h-7V188.8z M442.9,188.8h7v7h-7V188.8z
	 M464.6,188.8h7v7h-7V188.8z M471.9,188.8h7v7h-7V188.8z M479.2,188.8h7v7h-7V188.8z M544.5,188.8h7v7h-7V188.8z M551.8,188.8h7v7
	h-7V188.8z M559,188.8h7v7h-7V188.8z M232.3,196h7v7h-7V196z M239.6,196h7v7h-7V196z M290.4,196h7v7h-7V196z M457.4,196h7v7h-7V196z
	 M464.6,196h7v7h-7V196z M471.9,196h7v7h-7V196z M551.8,196h7v7h-7V196z M239.6,203.3h7v7h-7V203.3z M246.8,203.3h7v7h-7V203.3z
	 M290.4,203.3h7v7h-7V203.3z M297.7,203.3h7v7h-7V203.3z M304.9,203.3h7v7h-7V203.3z M442.9,203.3h7v7h-7V203.3z M450.1,203.3h7v7
	h-7V203.3z M457.4,203.3h7v7h-7V203.3z M464.6,203.3h7v7h-7V203.3z M471.9,203.3h7v7h-7V203.3z M515.5,203.3h7v7h-7V203.3z
	 M522.7,203.3h7v7h-7V203.3z M530,203.3h7v7h-7V203.3z M537.2,203.3h7v7h-7V203.3z M544.5,203.3h7v7h-7V203.3z M551.8,203.3h7v7h-7
	V203.3z M559,203.3h7v7h-7V203.3z M566.3,203.3h7v7h-7V203.3z M225.1,210.5h7v7h-7V210.5z M232.3,210.5h7v7h-7V210.5z M239.6,210.5
	h7v7h-7V210.5z M246.8,210.5h7v7h-7V210.5z M254.1,210.5h7v7h-7V210.5z M261.4,210.5h7v7h-7V210.5z M297.7,210.5h7v7h-7V210.5z
	 M304.9,210.5h7v7h-7V210.5z M312.2,210.5h7v7h-7V210.5z M319.4,210.5h7v7h-7V210.5z M326.7,210.5h7v7h-7V210.5z M334,210.5h7v7h-7
	V210.5z M341.2,210.5h7v7h-7V210.5z M363,210.5h7v7h-7V210.5z M370.3,210.5h7v7h-7V210.5z M377.5,210.5h7v7h-7V210.5z M384.8,210.5
	h7v7h-7V210.5z M392,210.5h7v7h-7V210.5z M399.3,210.5h7v7h-7V210.5z M413.8,210.5h7v7h-7V210.5z M421.1,210.5h7v7h-7V210.5z
	 M428.3,210.5h7v7h-7V210.5z M435.6,210.5h7v7h-7V210.5z M442.9,210.5h7v7h-7V210.5z M450.1,210.5h7v7h-7V210.5z M457.4,210.5h7v7
	h-7V210.5z M464.6,210.5h7v7h-7V210.5z M530,210.5h7v7h-7V210.5z M537.2,210.5h7v7h-7V210.5z M544.5,210.5h7v7h-7V210.5z
	 M551.8,210.5h7v7h-7V210.5z M559,210.5h7v7h-7V210.5z M566.3,210.5h7v7h-7V210.5z M203.3,217.8h7v7h-7V217.8z M210.5,217.8h7v7h-7
	V217.8z M217.8,217.8h7v7h-7V217.8z M225.1,217.8h7v7h-7V217.8z M232.3,217.8h7v7h-7V217.8z M239.6,217.8h7v7h-7V217.8z
	 M246.8,217.8h7v7h-7V217.8z M254.1,217.8h7v7h-7V217.8z M304.9,217.8h7v7h-7V217.8z M312.2,217.8h7v7h-7V217.8z M319.4,217.8h7v7
	h-7V217.8z M326.7,217.8h7v7h-7V217.8z M334,217.8h7v7h-7V217.8z M341.2,217.8h7v7h-7V217.8z M348.5,217.8h7v7h-7V217.8z
	 M355.7,217.8h7v7h-7V217.8z M363,217.8h7v7h-7V217.8z M370.3,217.8h7v7h-7V217.8z M377.5,217.8h7v7h-7V217.8z M384.8,217.8h7v7h-7
	V217.8z M392,217.8h7v7h-7V217.8z M399.3,217.8h7v7h-7V217.8z M413.8,217.8h7v7h-7V217.8z M421.1,217.8h7v7h-7V217.8z M428.3,217.8
	h7v7h-7V217.8z M435.6,217.8h7v7h-7V217.8z M442.9,217.8h7v7h-7V217.8z M450.1,217.8h7v7h-7V217.8z M457.4,217.8h7v7h-7V217.8z
	 M530,217.8h7v7h-7V217.8z M537.2,217.8h7v7h-7V217.8z M544.5,217.8h7v7h-7V217.8z M559,217.8h7v7h-7V217.8z M566.3,217.8h7v7h-7
	V217.8z M573.5,217.8h7v7h-7V217.8z M210.5,225.1h7v7h-7V225.1z M217.8,225.1h7v7h-7V225.1z M225.1,225.1h7v7h-7V225.1z
	 M232.3,225.1h7v7h-7V225.1z M239.6,225.1h7v7h-7V225.1z M246.8,225.1h7v7h-7V225.1z M254.1,225.1h7v7h-7V225.1z M312.2,225.1h7v7
	h-7V225.1z M319.4,225.1h7v7h-7V225.1z M326.7,225.1h7v7h-7V225.1z M334,225.1h7v7h-7V225.1z M341.2,225.1h7v7h-7V225.1z
	 M348.5,225.1h7v7h-7V225.1z M355.7,225.1h7v7h-7V225.1z M363,225.1h7v7h-7V225.1z M370.3,225.1h7v7h-7V225.1z M377.5,225.1h7v7h-7
	V225.1z M384.8,225.1h7v7h-7V225.1z M392,225.1h7v7h-7V225.1z M399.3,225.1h7v7h-7V225.1z M406.6,225.1h7v7h-7V225.1z M413.8,225.1
	h7v7h-7V225.1z M421.1,225.1h7v7h-7V225.1z M428.3,225.1h7v7h-7V225.1z M435.6,225.1h7v7h-7V225.1z M442.9,225.1h7v7h-7V225.1z
	 M450.1,225.1h7v7h-7V225.1z M522.7,225.1h7v7h-7V225.1z M530,225.1h7v7h-7V225.1z M537.2,225.1h7v7h-7V225.1z M544.5,225.1h7v7h-7
	V225.1z M559,225.1h7v7h-7V225.1z M566.3,225.1h7v7h-7V225.1z M573.5,225.1h7v7h-7V225.1z M181.5,232.3h7v7h-7V232.3z M188.8,232.3
	h7v7h-7V232.3z M196,232.3h7v7h-7V232.3z M203.3,232.3h7v7h-7V232.3z M210.5,232.3h7v7h-7V232.3z M217.8,232.3h7v7h-7V232.3z
	 M225.1,232.3h7v7h-7V232.3z M232.3,232.3h7v7h-7V232.3z M239.6,232.3h7v7h-7V232.3z M246.8,232.3h7v7h-7V232.3z M254.1,232.3h7v7
	h-7V232.3z M312.2,232.3h7v7h-7V232.3z M319.4,232.3h7v7h-7V232.3z M326.7,232.3h7v7h-7V232.3z M334,232.3h7v7h-7V232.3z
	 M341.2,232.3h7v7h-7V232.3z M348.5,232.3h7v7h-7V232.3z M355.7,232.3h7v7h-7V232.3z M363,232.3h7v7h-7V232.3z M370.3,232.3h7v7h-7
	V232.3z M377.5,232.3h7v7h-7V232.3z M384.8,232.3h7v7h-7V232.3z M392,232.3h7v7h-7V232.3z M399.3,232.3h7v7h-7V232.3z M406.6,232.3
	h7v7h-7V232.3z M413.8,232.3h7v7h-7V232.3z M421.1,232.3h7v7h-7V232.3z M428.3,232.3h7v7h-7V232.3z M435.6,232.3h7v7h-7V232.3z
	 M442.9,232.3h7v7h-7V232.3z M450.1,232.3h7v7h-7V232.3z M522.7,232.3h7v7h-7V232.3z M530,232.3h7v7h-7V232.3z M537.2,232.3h7v7h-7
	V232.3z M544.5,232.3h7v7h-7V232.3z M566.3,232.3h7v7h-7V232.3z M573.5,232.3h7v7h-7V232.3z M580.8,232.3h7v7h-7V232.3z
	 M181.5,239.6h7v7h-7V239.6z M188.8,239.6h7v7h-7V239.6z M196,239.6h7v7h-7V239.6z M203.3,239.6h7v7h-7V239.6z M210.5,239.6h7v7h-7
	V239.6z M217.8,239.6h7v7h-7V239.6z M232.3,239.6h7v7h-7V239.6z M239.6,239.6h7v7h-7V239.6z M246.8,239.6h7v7h-7V239.6z
	 M254.1,239.6h7v7h-7V239.6z M261.4,239.6h7v7h-7V239.6z M319.4,239.6h7v7h-7V239.6z M326.7,239.6h7v7h-7V239.6z M334,239.6h7v7h-7
	V239.6z M341.2,239.6h7v7h-7V239.6z M348.5,239.6h7v7h-7V239.6z M355.7,239.6h7v7h-7V239.6z M363,239.6h7v7h-7V239.6z M370.3,239.6
	h7v7h-7V239.6z M377.5,239.6h7v7h-7V239.6z M384.8,239.6h7v7h-7V239.6z M392,239.6h7v7h-7V239.6z M399.3,239.6h7v7h-7V239.6z
	 M406.6,239.6h7v7h-7V239.6z M413.8,239.6h7v7h-7V239.6z M421.1,239.6h7v7h-7V239.6z M428.3,239.6h7v7h-7V239.6z M435.6,239.6h7v7
	h-7V239.6z M442.9,239.6h7v7h-7V239.6z M515.5,239.6h7v7h-7V239.6z M522.7,239.6h7v7h-7V239.6z M530,239.6h7v7h-7V239.6z
	 M537.2,239.6h7v7h-7V239.6z M544.5,239.6h7v7h-7V239.6z M559,239.6h7v7h-7V239.6z M566.3,239.6h7v7h-7V239.6z M573.5,239.6h7v7h-7
	V239.6z M580.8,239.6h7v7h-7V239.6z M588.1,239.6h7v7h-7V239.6z M181.5,246.8h7v7h-7V246.8z M196,246.8h7v7h-7V246.8z M203.3,246.8
	h7v7h-7V246.8z M210.5,246.8h7v7h-7V246.8z M217.8,246.8h7v7h-7V246.8z M225.1,246.8h7v7h-7V246.8z M246.8,246.8h7v7h-7V246.8z
	 M254.1,246.8h7v7h-7V246.8z M261.4,246.8h7v7h-7V246.8z M326.7,246.8h7v7h-7V246.8z M334,246.8h7v7h-7V246.8z M341.2,246.8h7v7h-7
	V246.8z M348.5,246.8h7v7h-7V246.8z M355.7,246.8h7v7h-7V246.8z M363,246.8h7v7h-7V246.8z M370.3,246.8h7v7h-7V246.8z M377.5,246.8
	h7v7h-7V246.8z M384.8,246.8h7v7h-7V246.8z M392,246.8h7v7h-7V246.8z M399.3,246.8h7v7h-7V246.8z M406.6,246.8h7v7h-7V246.8z
	 M413.8,246.8h7v7h-7V246.8z M421.1,246.8h7v7h-7V246.8z M428.3,246.8h7v7h-7V246.8z M435.6,246.8h7v7h-7V246.8z M508.2,246.8h7v7
	h-7V246.8z M515.5,246.8h7v7h-7V246.8z M522.7,246.8h7v7h-7V246.8z M530,246.8h7v7h-7V246.8z M537.2,246.8h7v7h-7V246.8z M559,246.8
	h7v7h-7V246.8z M566.3,246.8h7v7h-7V246.8z M573.5,246.8h7v7h-7V246.8z M580.8,246.8h7v7h-7V246.8z M588.1,246.8h7v7h-7V246.8z
	 M595.3,246.8h7v7h-7V246.8z M174.2,254.1h7v7h-7V254.1z M181.5,254.1h7v7h-7V254.1z M203.3,254.1h7v7h-7V254.1z M210.5,254.1h7v7
	h-7V254.1z M217.8,254.1h7v7h-7V254.1z M225.1,254.1h7v7h-7V254.1z M232.3,254.1h7v7h-7V254.1z M254.1,254.1h7v7h-7V254.1z
	 M261.4,254.1h7v7h-7V254.1z M334,254.1h7v7h-7V254.1z M341.2,254.1h7v7h-7V254.1z M348.5,254.1h7v7h-7V254.1z M355.7,254.1h7v7h-7
	V254.1z M363,254.1h7v7h-7V254.1z M370.3,254.1h7v7h-7V254.1z M377.5,254.1h7v7h-7V254.1z M384.8,254.1h7v7h-7V254.1z M392,254.1h7
	v7h-7V254.1z M406.6,254.1h7v7h-7V254.1z M413.8,254.1h7v7h-7V254.1z M428.3,254.1h7v7h-7V254.1z M493.7,254.1h7v7h-7V254.1z
	 M500.9,254.1h7v7h-7V254.1z M508.2,254.1h7v7h-7V254.1z M515.5,254.1h7v7h-7V254.1z M522.7,254.1h7v7h-7V254.1z M530,254.1h7v7h-7
	V254.1z M537.2,254.1h7v7h-7V254.1z M559,254.1h7v7h-7V254.1z M566.3,254.1h7v7h-7V254.1z M573.5,254.1h7v7h-7V254.1z M580.8,254.1
	h7v7h-7V254.1z M588.1,254.1h7v7h-7V254.1z M595.3,254.1h7v7h-7V254.1z M602.6,254.1h7v7h-7V254.1z M609.8,254.1h7v7h-7V254.1z
	 M174.2,261.4h7v7h-7V261.4z M181.5,261.4h7v7h-7V261.4z M188.8,261.4h7v7h-7V261.4z M203.3,261.4h7v7h-7V261.4z M217.8,261.4h7v7
	h-7V261.4z M225.1,261.4h7v7h-7V261.4z M232.3,261.4h7v7h-7V261.4z M239.6,261.4h7v7h-7V261.4z M261.4,261.4h7v7h-7V261.4z
	 M268.6,261.4h7v7h-7V261.4z M275.9,261.4h7v7h-7V261.4z M283.1,261.4h7v7h-7V261.4z M290.4,261.4h7v7h-7V261.4z M370.3,261.4h7v7
	h-7V261.4z M406.6,261.4h7v7h-7V261.4z M471.9,261.4h7v7h-7V261.4z M479.2,261.4h7v7h-7V261.4z M486.4,261.4h7v7h-7V261.4z
	 M493.7,261.4h7v7h-7V261.4z M500.9,261.4h7v7h-7V261.4z M508.2,261.4h7v7h-7V261.4z M515.5,261.4h7v7h-7V261.4z M522.7,261.4h7v7
	h-7V261.4z M530,261.4h7v7h-7V261.4z M537.2,261.4h7v7h-7V261.4z M559,261.4h7v7h-7V261.4z M566.3,261.4h7v7h-7V261.4z M573.5,261.4
	h7v7h-7V261.4z M580.8,261.4h7v7h-7V261.4z M588.1,261.4h7v7h-7V261.4z M595.3,261.4h7v7h-7V261.4z M602.6,261.4h7v7h-7V261.4z
	 M609.8,261.4h7v7h-7V261.4z M617.1,261.4h7v7h-7V261.4z M174.2,268.6h7v7h-7V268.6z M181.5,268.6h7v7h-7V268.6z M188.8,268.6h7v7
	h-7V268.6z M196,268.6h7v7h-7V268.6z M203.3,268.6h7v7h-7V268.6z M210.5,268.6h7v7h-7V268.6z M225.1,268.6h7v7h-7V268.6z
	 M232.3,268.6h7v7h-7V268.6z M239.6,268.6h7v7h-7V268.6z M246.8,268.6h7v7h-7V268.6z M254.1,268.6h7v7h-7V268.6z M261.4,268.6h7v7
	h-7V268.6z M268.6,268.6h7v7h-7V268.6z M275.9,268.6h7v7h-7V268.6z M283.1,268.6h7v7h-7V268.6z M297.7,268.6h7v7h-7V268.6z
	 M304.9,268.6h7v7h-7V268.6z M457.4,268.6h7v7h-7V268.6z M464.6,268.6h7v7h-7V268.6z M471.9,268.6h7v7h-7V268.6z M479.2,268.6h7v7
	h-7V268.6z M486.4,268.6h7v7h-7V268.6z M493.7,268.6h7v7h-7V268.6z M500.9,268.6h7v7h-7V268.6z M508.2,268.6h7v7h-7V268.6z
	 M515.5,268.6h7v7h-7V268.6z M522.7,268.6h7v7h-7V268.6z M530,268.6h7v7h-7V268.6z M537.2,268.6h7v7h-7V268.6z M559,268.6h7v7h-7
	V268.6z M566.3,268.6h7v7h-7V268.6z M580.8,268.6h7v7h-7V268.6z M588.1,268.6h7v7h-7V268.6z M595.3,268.6h7v7h-7V268.6z
	 M602.6,268.6h7v7h-7V268.6z M609.8,268.6h7v7h-7V268.6z M617.1,268.6h7v7h-7V268.6z M624.4,268.6h7v7h-7V268.6z M167,275.9h7v7h-7
	V275.9z M174.2,275.9h7v7h-7V275.9z M181.5,275.9h7v7h-7V275.9z M196,275.9h7v7h-7V275.9z M232.3,275.9h7v7h-7V275.9z M239.6,275.9
	h7v7h-7V275.9z M246.8,275.9h7v7h-7V275.9z M254.1,275.9h7v7h-7V275.9z M261.4,275.9h7v7h-7V275.9z M268.6,275.9h7v7h-7V275.9z
	 M275.9,275.9h7v7h-7V275.9z M297.7,275.9h7v7h-7V275.9z M304.9,275.9h7v7h-7V275.9z M312.2,275.9h7v7h-7V275.9z M457.4,275.9h7v7
	h-7V275.9z M464.6,275.9h7v7h-7V275.9z M471.9,275.9h7v7h-7V275.9z M479.2,275.9h7v7h-7V275.9z M486.4,275.9h7v7h-7V275.9z
	 M493.7,275.9h7v7h-7V275.9z M508.2,275.9h7v7h-7V275.9z M515.5,275.9h7v7h-7V275.9z M522.7,275.9h7v7h-7V275.9z M530,275.9h7v7h-7
	V275.9z M537.2,275.9h7v7h-7V275.9z M551.8,275.9h7v7h-7V275.9z M559,275.9h7v7h-7V275.9z M566.3,275.9h7v7h-7V275.9z M588.1,275.9
	h7v7h-7V275.9z M595.3,275.9h7v7h-7V275.9z M602.6,275.9h7v7h-7V275.9z M609.8,275.9h7v7h-7V275.9z M617.1,275.9h7v7h-7V275.9z
	 M624.4,275.9h7v7h-7V275.9z M167,283.1h7v7h-7V283.1z M174.2,283.1h7v7h-7V283.1z M181.5,283.1h7v7h-7V283.1z M196,283.1h7v7h-7
	V283.1z M275.9,283.1h7v7h-7V283.1z M304.9,283.1h7v7h-7V283.1z M312.2,283.1h7v7h-7V283.1z M450.1,283.1h7v7h-7V283.1z
	 M457.4,283.1h7v7h-7V283.1z M464.6,283.1h7v7h-7V283.1z M471.9,283.1h7v7h-7V283.1z M479.2,283.1h7v7h-7V283.1z M500.9,283.1h7v7
	h-7V283.1z M515.5,283.1h7v7h-7V283.1z M522.7,283.1h7v7h-7V283.1z M530,283.1h7v7h-7V283.1z M537.2,283.1h7v7h-7V283.1z
	 M551.8,283.1h7v7h-7V283.1z M559,283.1h7v7h-7V283.1z M566.3,283.1h7v7h-7V283.1z M595.3,283.1h7v7h-7V283.1z M602.6,283.1h7v7h-7
	V283.1z M609.8,283.1h7v7h-7V283.1z M617.1,283.1h7v7h-7V283.1z M624.4,283.1h7v7h-7V283.1z M631.6,283.1h7v7h-7V283.1z M167,290.4
	h7v7h-7V290.4z M174.2,290.4h7v7h-7V290.4z M181.5,290.4h7v7h-7V290.4z M188.8,290.4h7v7h-7V290.4z M196,290.4h7v7h-7V290.4z
	 M254.1,290.4h7v7h-7V290.4z M268.6,290.4h7v7h-7V290.4z M275.9,290.4h7v7h-7V290.4z M297.7,290.4h7v7h-7V290.4z M304.9,290.4h7v7
	h-7V290.4z M312.2,290.4h7v7h-7V290.4z M319.4,290.4h7v7h-7V290.4z M450.1,290.4h7v7h-7V290.4z M457.4,290.4h7v7h-7V290.4z
	 M493.7,290.4h7v7h-7V290.4z M500.9,290.4h7v7h-7V290.4z M508.2,290.4h7v7h-7V290.4z M515.5,290.4h7v7h-7V290.4z M522.7,290.4h7v7
	h-7V290.4z M530,290.4h7v7h-7V290.4z M537.2,290.4h7v7h-7V290.4z M551.8,290.4h7v7h-7V290.4z M559,290.4h7v7h-7V290.4z M566.3,290.4
	h7v7h-7V290.4z M573.5,290.4h7v7h-7V290.4z M602.6,290.4h7v7h-7V290.4z M609.8,290.4h7v7h-7V290.4z M617.1,290.4h7v7h-7V290.4z
	 M624.4,290.4h7v7h-7V290.4z M631.6,290.4h7v7h-7V290.4z M152.5,297.7h7v7h-7V297.7z M159.7,297.7h7v7h-7V297.7z M167,297.7h7v7h-7
	V297.7z M174.2,297.7h7v7h-7V297.7z M196,297.7h7v7h-7V297.7z M203.3,297.7h7v7h-7V297.7z M210.5,297.7h7v7h-7V297.7z M261.4,297.7
	h7v7h-7V297.7z M275.9,297.7h7v7h-7V297.7z M297.7,297.7h7v7h-7V297.7z M304.9,297.7h7v7h-7V297.7z M312.2,297.7h7v7h-7V297.7z
	 M319.4,297.7h7v7h-7V297.7z M450.1,297.7h7v7h-7V297.7z M479.2,297.7h7v7h-7V297.7z M486.4,297.7h7v7h-7V297.7z M493.7,297.7h7v7
	h-7V297.7z M500.9,297.7h7v7h-7V297.7z M508.2,297.7h7v7h-7V297.7z M515.5,297.7h7v7h-7V297.7z M522.7,297.7h7v7h-7V297.7z
	 M530,297.7h7v7h-7V297.7z M551.8,297.7h7v7h-7V297.7z M559,297.7h7v7h-7V297.7z M566.3,297.7h7v7h-7V297.7z M573.5,297.7h7v7h-7
	V297.7z M580.8,297.7h7v7h-7V297.7z M588.1,297.7h7v7h-7V297.7z M602.6,297.7h7v7h-7V297.7z M609.8,297.7h7v7h-7V297.7z
	 M617.1,297.7h7v7h-7V297.7z M624.4,297.7h7v7h-7V297.7z M631.6,297.7h7v7h-7V297.7z M152.5,304.9h7v7h-7V304.9z M159.7,304.9h7v7
	h-7V304.9z M167,304.9h7v7h-7V304.9z M174.2,304.9h7v7h-7V304.9z M181.5,304.9h7v7h-7V304.9z M196,304.9h7v7h-7V304.9z M203.3,304.9
	h7v7h-7V304.9z M210.5,304.9h7v7h-7V304.9z M217.8,304.9h7v7h-7V304.9z M225.1,304.9h7v7h-7V304.9z M232.3,304.9h7v7h-7V304.9z
	 M239.6,304.9h7v7h-7V304.9z M246.8,304.9h7v7h-7V304.9z M254.1,304.9h7v7h-7V304.9z M283.1,304.9h7v7h-7V304.9z M297.7,304.9h7v7
	h-7V304.9z M304.9,304.9h7v7h-7V304.9z M312.2,304.9h7v7h-7V304.9z M319.4,304.9h7v7h-7V304.9z M326.7,304.9h7v7h-7V304.9z
	 M348.5,304.9h7v7h-7V304.9z M450.1,304.9h7v7h-7V304.9z M457.4,304.9h7v7h-7V304.9z M479.2,304.9h7v7h-7V304.9z M486.4,304.9h7v7
	h-7V304.9z M493.7,304.9h7v7h-7V304.9z M500.9,304.9h7v7h-7V304.9z M508.2,304.9h7v7h-7V304.9z M515.5,304.9h7v7h-7V304.9z
	 M522.7,304.9h7v7h-7V304.9z M551.8,304.9h7v7h-7V304.9z M559,304.9h7v7h-7V304.9z M566.3,304.9h7v7h-7V304.9z M573.5,304.9h7v7h-7
	V304.9z M580.8,304.9h7v7h-7V304.9z M588.1,304.9h7v7h-7V304.9z M609.8,304.9h7v7h-7V304.9z M617.1,304.9h7v7h-7V304.9z
	 M624.4,304.9h7v7h-7V304.9z M152.5,312.2h7v7h-7V312.2z M159.7,312.2h7v7h-7V312.2z M167,312.2h7v7h-7V312.2z M174.2,312.2h7v7h-7
	V312.2z M181.5,312.2h7v7h-7V312.2z M203.3,312.2h7v7h-7V312.2z M210.5,312.2h7v7h-7V312.2z M217.8,312.2h7v7h-7V312.2z
	 M225.1,312.2h7v7h-7V312.2z M232.3,312.2h7v7h-7V312.2z M239.6,312.2h7v7h-7V312.2z M246.8,312.2h7v7h-7V312.2z M254.1,312.2h7v7
	h-7V312.2z M261.4,312.2h7v7h-7V312.2z M268.6,312.2h7v7h-7V312.2z M275.9,312.2h7v7h-7V312.2z M283.1,312.2h7v7h-7V312.2z
	 M297.7,312.2h7v7h-7V312.2z M304.9,312.2h7v7h-7V312.2z M312.2,312.2h7v7h-7V312.2z M319.4,312.2h7v7h-7V312.2z M326.7,312.2h7v7
	h-7V312.2z M457.4,312.2h7v7h-7V312.2z M464.6,312.2h7v7h-7V312.2z M471.9,312.2h7v7h-7V312.2z M486.4,312.2h7v7h-7V312.2z
	 M493.7,312.2h7v7h-7V312.2z M500.9,312.2h7v7h-7V312.2z M508.2,312.2h7v7h-7V312.2z M515.5,312.2h7v7h-7V312.2z M522.7,312.2h7v7
	h-7V312.2z M573.5,312.2h7v7h-7V312.2z M580.8,312.2h7v7h-7V312.2z M588.1,312.2h7v7h-7V312.2z M609.8,312.2h7v7h-7V312.2z
	 M617.1,312.2h7v7h-7V312.2z M624.4,312.2h7v7h-7V312.2z M145.2,319.4h7v7h-7V319.4z M152.5,319.4h7v7h-7V319.4z M159.7,319.4h7v7
	h-7V319.4z M167,319.4h7v7h-7V319.4z M174.2,319.4h7v7h-7V319.4z M181.5,319.4h7v7h-7V319.4z M188.8,319.4h7v7h-7V319.4z
	 M203.3,319.4h7v7h-7V319.4z M210.5,319.4h7v7h-7V319.4z M217.8,319.4h7v7h-7V319.4z M225.1,319.4h7v7h-7V319.4z M232.3,319.4h7v7
	h-7V319.4z M239.6,319.4h7v7h-7V319.4z M246.8,319.4h7v7h-7V319.4z M254.1,319.4h7v7h-7V319.4z M261.4,319.4h7v7h-7V319.4z
	 M268.6,319.4h7v7h-7V319.4z M275.9,319.4h7v7h-7V319.4z M283.1,319.4h7v7h-7V319.4z M297.7,319.4h7v7h-7V319.4z M304.9,319.4h7v7
	h-7V319.4z M312.2,319.4h7v7h-7V319.4z M319.4,319.4h7v7h-7V319.4z M326.7,319.4h7v7h-7V319.4z M334,319.4h7v7h-7V319.4z
	 M355.7,319.4h7v7h-7V319.4z M457.4,319.4h7v7h-7V319.4z M464.6,319.4h7v7h-7V319.4z M471.9,319.4h7v7h-7V319.4z M486.4,319.4h7v7
	h-7V319.4z M530,319.4h7v7h-7V319.4z M544.5,319.4h7v7h-7V319.4z M580.8,319.4h7v7h-7V319.4z M602.6,319.4h7v7h-7V319.4z
	 M609.8,319.4h7v7h-7V319.4z M617.1,319.4h7v7h-7V319.4z M145.2,326.7h7v7h-7V326.7z M152.5,326.7h7v7h-7V326.7z M159.7,326.7h7v7
	h-7V326.7z M167,326.7h7v7h-7V326.7z M174.2,326.7h7v7h-7V326.7z M181.5,326.7h7v7h-7V326.7z M188.8,326.7h7v7h-7V326.7z
	 M203.3,326.7h7v7h-7V326.7z M210.5,326.7h7v7h-7V326.7z M217.8,326.7h7v7h-7V326.7z M225.1,326.7h7v7h-7V326.7z M232.3,326.7h7v7
	h-7V326.7z M239.6,326.7h7v7h-7V326.7z M246.8,326.7h7v7h-7V326.7z M254.1,326.7h7v7h-7V326.7z M261.4,326.7h7v7h-7V326.7z
	 M290.4,326.7h7v7h-7V326.7z M297.7,326.7h7v7h-7V326.7z M304.9,326.7h7v7h-7V326.7z M319.4,326.7h7v7h-7V326.7z M326.7,326.7h7v7
	h-7V326.7z M334,326.7h7v7h-7V326.7z M341.2,326.7h7v7h-7V326.7z M355.7,326.7h7v7h-7V326.7z M363,326.7h7v7h-7V326.7z M457.4,326.7
	h7v7h-7V326.7z M464.6,326.7h7v7h-7V326.7z M471.9,326.7h7v7h-7V326.7z M479.2,326.7h7v7h-7V326.7z M486.4,326.7h7v7h-7V326.7z
	 M530,326.7h7v7h-7V326.7z M544.5,326.7h7v7h-7V326.7z M573.5,326.7h7v7h-7V326.7z M602.6,326.7h7v7h-7V326.7z M609.8,326.7h7v7h-7
	V326.7z M145.2,334h7v7h-7V334z M159.7,334h7v7h-7V334z M167,334h7v7h-7V334z M174.2,334h7v7h-7V334z M181.5,334h7v7h-7V334z
	 M188.8,334h7v7h-7V334z M196,334h7v7h-7V334z M203.3,334h7v7h-7V334z M210.5,334h7v7h-7V334z M217.8,334h7v7h-7V334z M246.8,334h7
	v7h-7V334z M275.9,334h7v7h-7V334z M283.1,334h7v7h-7V334z M290.4,334h7v7h-7V334z M297.7,334h7v7h-7V334z M304.9,334h7v7h-7V334z
	 M326.7,334h7v7h-7V334z M334,334h7v7h-7V334z M341.2,334h7v7h-7V334z M348.5,334h7v7h-7V334z M355.7,334h7v7h-7V334z M363,334h7v7
	h-7V334z M370.3,334h7v7h-7V334z M457.4,334h7v7h-7V334z M464.6,334h7v7h-7V334z M471.9,334h7v7h-7V334z M479.2,334h7v7h-7V334z
	 M530,334h7v7h-7V334z M544.5,334h7v7h-7V334z M602.6,334h7v7h-7V334z M609.8,334h7v7h-7V334z M152.5,341.2h7v7h-7V341.2z
	 M159.7,341.2h7v7h-7V341.2z M167,341.2h7v7h-7V341.2z M174.2,341.2h7v7h-7V341.2z M181.5,341.2h7v7h-7V341.2z M188.8,341.2h7v7h-7
	V341.2z M196,341.2h7v7h-7V341.2z M203.3,341.2h7v7h-7V341.2z M210.5,341.2h7v7h-7V341.2z M275.9,341.2h7v7h-7V341.2z M283.1,341.2
	h7v7h-7V341.2z M290.4,341.2h7v7h-7V341.2z M297.7,341.2h7v7h-7V341.2z M304.9,341.2h7v7h-7V341.2z M334,341.2h7v7h-7V341.2z
	 M341.2,341.2h7v7h-7V341.2z M348.5,341.2h7v7h-7V341.2z M355.7,341.2h7v7h-7V341.2z M363,341.2h7v7h-7V341.2z M370.3,341.2h7v7h-7
	V341.2z M377.5,341.2h7v7h-7V341.2z M457.4,341.2h7v7h-7V341.2z M464.6,341.2h7v7h-7V341.2z M471.9,341.2h7v7h-7V341.2z
	 M479.2,341.2h7v7h-7V341.2z M537.2,341.2h7v7h-7V341.2z M544.5,341.2h7v7h-7V341.2z M595.3,341.2h7v7h-7V341.2z M602.6,341.2h7v7
	h-7V341.2z M152.5,348.5h7v7h-7V348.5z M159.7,348.5h7v7h-7V348.5z M167,348.5h7v7h-7V348.5z M203.3,348.5h7v7h-7V348.5z
	 M210.5,348.5h7v7h-7V348.5z M283.1,348.5h7v7h-7V348.5z M341.2,348.5h7v7h-7V348.5z M348.5,348.5h7v7h-7V348.5z M355.7,348.5h7v7
	h-7V348.5z M363,348.5h7v7h-7V348.5z M370.3,348.5h7v7h-7V348.5z M377.5,348.5h7v7h-7V348.5z M384.8,348.5h7v7h-7V348.5z
	 M442.9,348.5h7v7h-7V348.5z M464.6,348.5h7v7h-7V348.5z M471.9,348.5h7v7h-7V348.5z M479.2,348.5h7v7h-7V348.5z M537.2,348.5h7v7
	h-7V348.5z M544.5,348.5h7v7h-7V348.5z M595.3,348.5h7v7h-7V348.5z M602.6,348.5h7v7h-7V348.5z M152.5,355.7h7v7h-7V355.7z
	 M159.7,355.7h7v7h-7V355.7z M167,355.7h7v7h-7V355.7z M203.3,355.7h7v7h-7V355.7z M210.5,355.7h7v7h-7V355.7z M261.4,355.7h7v7h-7
	V355.7z M275.9,355.7h7v7h-7V355.7z M341.2,355.7h7v7h-7V355.7z M348.5,355.7h7v7h-7V355.7z M355.7,355.7h7v7h-7V355.7z M363,355.7
	h7v7h-7V355.7z M370.3,355.7h7v7h-7V355.7z M377.5,355.7h7v7h-7V355.7z M384.8,355.7h7v7h-7V355.7z M435.6,355.7h7v7h-7V355.7z
	 M442.9,355.7h7v7h-7V355.7z M471.9,355.7h7v7h-7V355.7z M479.2,355.7h7v7h-7V355.7z M537.2,355.7h7v7h-7V355.7z M544.5,355.7h7v7
	h-7V355.7z M595.3,355.7h7v7h-7V355.7z M152.5,363h7v7h-7V363z M159.7,363h7v7h-7V363z M167,363h7v7h-7V363z M174.2,363h7v7h-7V363z
	 M210.5,363h7v7h-7V363z M261.4,363h7v7h-7V363z M348.5,363h7v7h-7V363z M355.7,363h7v7h-7V363z M363,363h7v7h-7V363z M370.3,363h7
	v7h-7V363z M377.5,363h7v7h-7V363z M384.8,363h7v7h-7V363z M392,363h7v7h-7V363z M435.6,363h7v7h-7V363z M442.9,363h7v7h-7V363z
	 M471.9,363h7v7h-7V363z M479.2,363h7v7h-7V363z M537.2,363h7v7h-7V363z M544.5,363h7v7h-7V363z M595.3,363h7v7h-7V363z
	 M159.7,370.3h7v7h-7V370.3z M167,370.3h7v7h-7V370.3z M174.2,370.3h7v7h-7V370.3z M210.5,370.3h7v7h-7V370.3z M217.8,370.3h7v7h-7
	V370.3z M254.1,370.3h7v7h-7V370.3z M355.7,370.3h7v7h-7V370.3z M363,370.3h7v7h-7V370.3z M370.3,370.3h7v7h-7V370.3z M377.5,370.3
	h7v7h-7V370.3z M384.8,370.3h7v7h-7V370.3z M392,370.3h7v7h-7V370.3z M399.3,370.3h7v7h-7V370.3z M435.6,370.3h7v7h-7V370.3z
	 M442.9,370.3h7v7h-7V370.3z M450.1,370.3h7v7h-7V370.3z M457.4,370.3h7v7h-7V370.3z M464.6,370.3h7v7h-7V370.3z M479.2,370.3h7v7
	h-7V370.3z M486.4,370.3h7v7h-7V370.3z M537.2,370.3h7v7h-7V370.3z M588.1,370.3h7v7h-7V370.3z M595.3,370.3h7v7h-7V370.3z
	 M159.7,377.5h7v7h-7V377.5z M167,377.5h7v7h-7V377.5z M174.2,377.5h7v7h-7V377.5z M217.8,377.5h7v7h-7V377.5z M246.8,377.5h7v7h-7
	V377.5z M355.7,377.5h7v7h-7V377.5z M363,377.5h7v7h-7V377.5z M370.3,377.5h7v7h-7V377.5z M377.5,377.5h7v7h-7V377.5z M384.8,377.5
	h7v7h-7V377.5z M392,377.5h7v7h-7V377.5z M399.3,377.5h7v7h-7V377.5z M435.6,377.5h7v7h-7V377.5z M442.9,377.5h7v7h-7V377.5z
	 M450.1,377.5h7v7h-7V377.5z M457.4,377.5h7v7h-7V377.5z M464.6,377.5h7v7h-7V377.5z M486.4,377.5h7v7h-7V377.5z M537.2,377.5h7v7
	h-7V377.5z M588.1,377.5h7v7h-7V377.5z M159.7,384.8h7v7h-7V384.8z M167,384.8h7v7h-7V384.8z M174.2,384.8h7v7h-7V384.8z
	 M217.8,384.8h7v7h-7V384.8z M225.1,384.8h7v7h-7V384.8z M363,384.8h7v7h-7V384.8z M370.3,384.8h7v7h-7V384.8z M377.5,384.8h7v7h-7
	V384.8z M384.8,384.8h7v7h-7V384.8z M392,384.8h7v7h-7V384.8z M421.1,384.8h7v7h-7V384.8z M428.3,384.8h7v7h-7V384.8z M435.6,384.8
	h7v7h-7V384.8z M442.9,384.8h7v7h-7V384.8z M450.1,384.8h7v7h-7V384.8z M457.4,384.8h7v7h-7V384.8z M464.6,384.8h7v7h-7V384.8z
	 M167,392h7v7h-7V392z M174.2,392h7v7h-7V392z M370.3,392h7v7h-7V392z M377.5,392h7v7h-7V392z M384.8,392h7v7h-7V392z M392,392h7v7
	h-7V392z M399.3,392h7v7h-7V392z M428.3,392h7v7h-7V392z M435.6,392h7v7h-7V392z M442.9,392h7v7h-7V392z M450.1,392h7v7h-7V392z
	 M457.4,392h7v7h-7V392z M464.6,392h7v7h-7V392z M174.2,399.3h7v7h-7V399.3z M181.5,399.3h7v7h-7V399.3z M377.5,399.3h7v7h-7V399.3z
	 M384.8,399.3h7v7h-7V399.3z M392,399.3h7v7h-7V399.3z M399.3,399.3h7v7h-7V399.3z M428.3,399.3h7v7h-7V399.3z M435.6,399.3h7v7h-7
	V399.3z M442.9,399.3h7v7h-7V399.3z M450.1,399.3h7v7h-7V399.3z M457.4,399.3h7v7h-7V399.3z M464.6,399.3h7v7h-7V399.3z
	 M181.5,406.6h7v7h-7V406.6z M384.8,406.6h7v7h-7V406.6z M392,406.6h7v7h-7V406.6z M399.3,406.6h7v7h-7V406.6z M406.6,406.6h7v7h-7
	V406.6z M428.3,406.6h7v7h-7V406.6z M435.6,406.6h7v7h-7V406.6z M442.9,406.6h7v7h-7V406.6z M450.1,406.6h7v7h-7V406.6z
	 M457.4,406.6h7v7h-7V406.6z M181.5,413.8h7v7h-7V413.8z M384.8,413.8h7v7h-7V413.8z M392,413.8h7v7h-7V413.8z M399.3,413.8h7v7h-7
	V413.8z M406.6,413.8h7v7h-7V413.8z M428.3,413.8h7v7h-7V413.8z M435.6,413.8h7v7h-7V413.8z M442.9,413.8h7v7h-7V413.8z
	 M457.4,413.8h7v7h-7V413.8z M392,421.1h7v7h-7V421.1z M399.3,421.1h7v7h-7V421.1z M406.6,421.1h7v7h-7V421.1z M428.3,421.1h7v7h-7
	V421.1z M435.6,421.1h7v7h-7V421.1z M442.9,421.1h7v7h-7V421.1z M457.4,421.1h7v7h-7V421.1z M392,428.3h7v7h-7V428.3z M399.3,428.3
	h7v7h-7V428.3z M406.6,428.3h7v7h-7V428.3z M428.3,428.3h7v7h-7V428.3z M435.6,428.3h7v7h-7V428.3z M442.9,428.3h7v7h-7V428.3z
	 M457.4,428.3h7v7h-7V428.3z M392,435.6h7v7h-7V435.6z M399.3,435.6h7v7h-7V435.6z M406.6,435.6h7v7h-7V435.6z M435.6,435.6h7v7h-7
	V435.6z M442.9,435.6h7v7h-7V435.6z M457.4,435.6h7v7h-7V435.6z M399.3,442.9h7v7h-7V442.9z M406.6,442.9h7v7h-7V442.9z
	 M435.6,442.9h7v7h-7V442.9z M442.9,442.9h7v7h-7V442.9z M457.4,442.9h7v7h-7V442.9z M399.3,450.1h7v7h-7V450.1z M406.6,450.1h7v7
	h-7V450.1z M413.8,450.1h7v7h-7V450.1z M435.6,450.1h7v7h-7V450.1z M399.3,457.4h7v7h-7V457.4z M406.6,457.4h7v7h-7V457.4z
	 M413.8,457.4h7v7h-7V457.4z M435.6,457.4h7v7h-7V457.4z M399.3,464.6h7v7h-7V464.6z M406.6,464.6h7v7h-7V464.6z M413.8,464.6h7v7
	h-7V464.6z M435.6,464.6h7v7h-7V464.6z M406.6,471.9h7v7h-7V471.9z M413.8,471.9h7v7h-7V471.9z M435.6,471.9h7v7h-7V471.9z
	 M406.6,479.2h7v7h-7V479.2z M413.8,479.2h7v7h-7V479.2z M435.6,479.2h7v7h-7V479.2z M406.6,486.4h7v7h-7V486.4z M435.6,486.4h7v7
	h-7V486.4z M399.3,493.7h7v7h-7V493.7z M406.6,493.7h7v7h-7V493.7z M413.8,493.7h7v7h-7V493.7z M428.3,493.7h7v7h-7V493.7z
	 M435.6,493.7h7v7h-7V493.7z M406.6,500.9h7v7h-7V500.9z M413.8,500.9h7v7h-7V500.9z M421.1,500.9h7v7h-7V500.9z M428.3,500.9h7v7
	h-7V500.9z M435.6,500.9h7v7h-7V500.9z M442.9,500.9h7v7h-7V500.9z M406.6,508.2h7v7h-7V508.2z M413.8,508.2h7v7h-7V508.2z
	 M421.1,508.2h7v7h-7V508.2z M428.3,508.2h7v7h-7V508.2z M435.6,508.2h7v7h-7V508.2z M442.9,508.2h7v7h-7V508.2z M413.8,515.5h7v7
	h-7V515.5z M421.1,515.5h7v7h-7V515.5z M428.3,515.5h7v7h-7V515.5z M435.6,515.5h7v7h-7V515.5z M442.9,515.5h7v7h-7V515.5z
	 M421.1,522.7h7v7h-7V522.7z M428.3,522.7h7v7h-7V522.7z M435.6,522.7h7v7h-7V522.7z M442.9,522.7h7v7h-7V522.7z M421.1,530h7v7h-7
	V530z M428.3,530h7v7h-7V530z M435.6,530h7v7h-7V530z M442.9,530h7v7h-7V530z M428.3,537.2h7v7h-7V537.2z M435.6,537.2h7v7h-7V537.2
	z M442.9,537.2h7v7h-7V537.2z M435.6,544.5h7v7h-7V544.5z M442.9,544.5h7v7h-7V544.5z M435.6,551.8h7v7h-7V551.8z M442.9,551.8h7v7
	h-7V551.8z M442.9,559h7v7h-7V559z M442.9,566.3h7v7h-7V566.3z M450.1,566.3h7v7h-7V566.3z M450.1,573.5h7v7h-7V573.5z"/>
</svg>
