<?xml version="1.0" encoding="utf-8"?>
<!-- Generator: Adobe Illustrator 27.3.1, SVG Export Plug-In . SVG Version: 6.00 Build 0)  -->
<svg version="1.1" id="Слой_1" xmlns:ev="http://www.w3.org/2001/xml-events"
	 xmlns="http://www.w3.org/2000/svg" xmlns:xlink="http://www.w3.org/1999/xlink" x="0px" y="0px" viewBox="0 0 871 595"
	 style="enable-background:new 0 0 871 595;" xml:space="preserve">
<style type="text/css">
	.st0{fill:#1E0E01;}
</style>
<path class="st0" d="M468.3,25.4h7v7h-7V25.4z M475.6,25.4h7v7h-7V25.4z M490.1,25.4h7v7h-7V25.4z M482.8,25.4h7v7h-7V25.4z
	 M446.5,25.4h7v7h-7V25.4z M453.8,25.4h7v7h-7V25.4z M461,25.4h7v7h-7V25.4z M497.3,25.4h7v7h-7V25.4z M410.4,32.5h7v7h-7V32.5z
	 M417.6,32.5h7v7h-7V32.5z M432.1,32.5h7v7h-7V32.5z M424.9,32.5h7v7h-7V32.5z M388.6,39.9h7v7h-7V39.9z M381.2,39.9h7v7h-7V39.9z
	 M395.8,39.9h7v7h-7V39.9z M403.1,32.5h7v7h-7V32.5z M439.4,32.5h7v7h-7V32.5z M504.6,25.4h7v7h-7V25.4z M511.9,25.4h7v7h-7V25.4z
	 M519.1,25.4h7v7h-7V25.4z M526.4,25.4h7v7h-7V25.4z M533.6,25.4h7v7h-7V25.4z M540.9,25.4h7v7h-7V25.4z M548.2,25.4h7v7h-7V25.4z
	 M555.4,25.4h7v7h-7V25.4z M562.8,25.4h7v7h-7V25.4z M570.1,25.4h7v7h-7V25.4z M577.3,25.4h7v7h-7V25.4z M584.6,25.4h7v7h-7V25.4z
	 M591.9,25.4h7v7h-7V25.4z M599.1,25.4h7v7h-7V25.4z M606.3,25.4h7v7h-7V25.4z M613.5,25.4h7v7h-7V25.4z M642.5,32.6h7v7h-7V32.6z
	 M649.8,32.6h7v7h-7V32.6z M657.1,32.6h7v7h-7V32.6z M620.8,32.6h7v7h-7V32.6z M628,32.6h7v7h-7V32.6z M635.3,32.6h7v7h-7V32.6z
	 M664.3,32.6h7v7h-7V32.6z M671.6,32.6h7v7h-7V32.6z M678.8,32.6h7v7h-7V32.6z M686.1,32.6h7v7h-7V32.6z M453.8,39.9h7v7h-7V39.9z
	 M461,39.9h7v7h-7V39.9z M468.3,39.9h7v7h-7V39.9z M475.6,39.9h7v7h-7V39.9z M482.8,39.9h7v7h-7V39.9z M490.1,39.9h7v7h-7V39.9z
	 M497.3,39.9h7v7h-7V39.9z M504.6,39.9h7v7h-7V39.9z M511.9,39.9h7v7h-7V39.9z M519.1,39.9h7v7h-7V39.9z M526.4,39.9h7v7h-7V39.9z
	 M533.6,39.9h7v7h-7V39.9z M540.9,39.9h7v7h-7V39.9z M693.4,39.9h7v7h-7V39.9z M700.6,39.9h7v7h-7V39.9z M707.9,39.9h7v7h-7V39.9z
	 M715.1,39.9h7v7h-7V39.9z M722.4,39.9h7v7h-7V39.9z M729.7,39.9h7v7h-7V39.9z M736.9,39.9h7v7h-7V39.9z M744.2,39.9h7v7h-7V39.9z
	 M751.4,39.9h7v7h-7V39.9z M758.7,39.9h7v7h-7V39.9z M766,39.9h7v7h-7V39.9z M773.2,39.9h7v7h-7V39.9z M780.5,39.9h7v7h-7V39.9z
	 M787.7,39.9h7v7h-7V39.9z M816.8,39.9h7v7h-7V39.9z M373.9,47.2h7v7h-7V47.2z M381.2,47.2h7v7h-7V47.2z M388.4,47.2h7v7h-7V47.2z
	 M395.7,47.2h7v7h-7V47.2z M403,47.2h7v7h-7V47.2z M410.2,47.2h7v7h-7V47.2z M417.5,47.2h7v7h-7V47.2z M424.7,47.2h7v7h-7V47.2z
	 M432,47.2h7v7h-7V47.2z M439.3,47.2h7v7h-7V47.2z M446.5,47.2h7v7h-7V47.2z M453.8,47.2h7v7h-7V47.2z M461,47.2h7v7h-7V47.2z
	 M468.3,47.2h7v7h-7V47.2z M475.6,47.2h7v7h-7V47.2z M482.8,47.2h7v7h-7V47.2z M490.1,47.2h7v7h-7V47.2z M497.3,47.2h7v7h-7V47.2z
	 M504.6,47.2h7v7h-7V47.2z M511.9,47.2h7v7h-7V47.2z M519.1,47.2h7v7h-7V47.2z M526.4,47.2h7v7h-7V47.2z M533.6,47.2h7v7h-7V47.2z
	 M540.9,47.2h7v7h-7V47.2z M548.2,47.2h7v7h-7V47.2z M555.4,47.2h7v7h-7V47.2z M562.7,47.2h7v7h-7V47.2z M569.9,47.2h7v7h-7V47.2z
	 M577.2,47.2h7v7h-7V47.2z M584.5,47.2h7v7h-7V47.2z M591.7,47.2h7v7h-7V47.2z M599,47.2h7v7h-7V47.2z M606.2,47.2h7v7h-7V47.2z
	 M613.5,47.2h7v7h-7V47.2z M628,47.2h7v7h-7V47.2z M664.3,47.2h7v7h-7V47.2z M671.6,47.2h7v7h-7V47.2z M678.8,47.2h7v7h-7V47.2z
	 M686.1,47.2h7v7h-7V47.2z M693.4,47.2h7v7h-7V47.2z M700.6,47.2h7v7h-7V47.2z M707.9,47.2h7v7h-7V47.2z M715.1,47.2h7v7h-7V47.2z
	 M722.4,47.2h7v7h-7V47.2z M729.7,47.2h7v7h-7V47.2z M795,47.2h7v7h-7V47.2z M802.3,47.2h7v7h-7V47.2z M809.5,47.2h7v7h-7V47.2z
	 M816.8,47.2h7v7h-7V47.2z M824,47.2h7v7h-7V47.2z M366.7,54.4h7v7h-7V54.4z M395.7,54.4h7v7h-7V54.4z M403,54.4h7v7h-7V54.4z
	 M410.2,54.4h7v7h-7V54.4z M417.5,54.4h7v7h-7V54.4z M424.7,54.4h7v7h-7V54.4z M432,54.4h7v7h-7V54.4z M439.3,54.4h7v7h-7V54.4z
	 M446.5,54.4h7v7h-7V54.4z M453.8,54.4h7v7h-7V54.4z M461,54.4h7v7h-7V54.4z M468.3,54.4h7v7h-7V54.4z M475.6,54.4h7v7h-7V54.4z
	 M482.8,54.4h7v7h-7V54.4z M490.1,54.4h7v7h-7V54.4z M497.3,54.4h7v7h-7V54.4z M504.6,54.4h7v7h-7V54.4z M511.9,54.4h7v7h-7V54.4z
	 M519.1,54.4h7v7h-7V54.4z M526.4,54.4h7v7h-7V54.4z M533.6,54.4h7v7h-7V54.4z M540.9,54.4h7v7h-7V54.4z M548.2,54.4h7v7h-7V54.4z
	 M555.4,54.4h7v7h-7V54.4z M562.7,54.4h7v7h-7V54.4z M569.9,54.4h7v7h-7V54.4z M577.2,54.4h7v7h-7V54.4z M584.5,54.4h7v7h-7V54.4z
	 M591.7,54.4h7v7h-7V54.4z M599,54.4h7v7h-7V54.4z M606.2,54.4h7v7h-7V54.4z M613.5,54.4h7v7h-7V54.4z M620.8,54.4h7v7h-7V54.4z
	 M628,54.4h7v7h-7V54.4z M635.3,54.4h7v7h-7V54.4z M657.1,54.4h7v7h-7V54.4z M664.3,54.4h7v7h-7V54.4z M693.4,54.4h7v7h-7V54.4z
	 M700.6,54.4h7v7h-7V54.4z M707.9,54.4h7v7h-7V54.4z M715.1,54.4h7v7h-7V54.4z M722.4,54.4h7v7h-7V54.4z M729.7,54.4h7v7h-7V54.4z
	 M736.9,54.4h7v7h-7V54.4z M744.2,54.4h7v7h-7V54.4z M751.4,54.4h7v7h-7V54.4z M758.7,54.4h7v7h-7V54.4z M766,54.4h7v7h-7V54.4z
	 M773.2,54.4h7v7h-7V54.4z M780.5,54.4h7v7h-7V54.4z M787.7,54.4h7v7h-7V54.4z M795,54.4h7v7h-7V54.4z M816.8,54.4h7v7h-7V54.4z
	 M824,54.4h7v7h-7V54.4z M352.1,61.7h7v7h-7V61.7z M388.4,61.7h7v7h-7V61.7z M395.7,61.7h7v7h-7V61.7z M403,61.7h7v7h-7V61.7z
	 M410.2,61.7h7v7h-7V61.7z M417.5,61.7h7v7h-7V61.7z M424.7,61.7h7v7h-7V61.7z M432,61.7h7v7h-7V61.7z M439.3,61.7h7v7h-7V61.7z
	 M446.5,61.7h7v7h-7V61.7z M453.8,61.7h7v7h-7V61.7z M461,61.7h7v7h-7V61.7z M468.3,61.7h7v7h-7V61.7z M475.6,61.7h7v7h-7V61.7z
	 M482.8,61.7h7v7h-7V61.7z M490.1,61.7h7v7h-7V61.7z M497.3,61.7h7v7h-7V61.7z M504.6,61.7h7v7h-7V61.7z M511.9,61.7h7v7h-7V61.7z
	 M519.1,61.7h7v7h-7V61.7z M526.4,61.7h7v7h-7V61.7z M540.9,61.7h7v7h-7V61.7z M548.2,61.7h7v7h-7V61.7z M555.4,61.7h7v7h-7V61.7z
	 M562.7,61.7h7v7h-7V61.7z M569.9,61.7h7v7h-7V61.7z M577.2,61.7h7v7h-7V61.7z M584.5,61.7h7v7h-7V61.7z M591.7,61.7h7v7h-7V61.7z
	 M599,61.7h7v7h-7V61.7z M606.2,61.7h7v7h-7V61.7z M613.5,61.7h7v7h-7V61.7z M620.8,61.7h7v7h-7V61.7z M628,61.7h7v7h-7V61.7z
	 M635.3,61.7h7v7h-7V61.7z M642.5,61.7h7v7h-7V61.7z M657.1,61.7h7v7h-7V61.7z M707.9,61.7h7v7h-7V61.7z M715.1,61.7h7v7h-7V61.7z
	 M722.4,61.7h7v7h-7V61.7z M729.7,61.7h7v7h-7V61.7z M780.5,61.7h7v7h-7V61.7z M787.7,61.7h7v7h-7V61.7z M795,61.7h7v7h-7V61.7z
	 M802.3,61.7h7v7h-7V61.7z M809.5,61.7h7v7h-7V61.7z M816.8,61.7h7v7h-7V61.7z M824,61.7h7v7h-7V61.7z M344.9,68.9h7v7h-7V68.9z
	 M381.2,68.9h7v7h-7V68.9z M388.4,68.9h7v7h-7V68.9z M395.7,68.9h7v7h-7V68.9z M439.3,68.9h7v7h-7V68.9z M446.5,68.9h7v7h-7V68.9z
	 M453.8,68.9h7v7h-7V68.9z M461,68.9h7v7h-7V68.9z M468.3,68.9h7v7h-7V68.9z M475.6,68.9h7v7h-7V68.9z M482.8,68.9h7v7h-7V68.9z
	 M497.3,68.9h7v7h-7V68.9z M504.6,68.9h7v7h-7V68.9z M511.9,68.9h7v7h-7V68.9z M519.1,68.9h7v7h-7V68.9z M526.4,68.9h7v7h-7V68.9z
	 M533.6,68.9h7v7h-7V68.9z M555.4,68.9h7v7h-7V68.9z M562.7,68.9h7v7h-7V68.9z M569.9,68.9h7v7h-7V68.9z M577.2,68.9h7v7h-7V68.9z
	 M584.5,68.9h7v7h-7V68.9z M591.7,68.9h7v7h-7V68.9z M599,68.9h7v7h-7V68.9z M606.2,68.9h7v7h-7V68.9z M613.5,68.9h7v7h-7V68.9z
	 M620.8,68.9h7v7h-7V68.9z M628,68.9h7v7h-7V68.9z M635.3,68.9h7v7h-7V68.9z M642.5,68.9h7v7h-7V68.9z M657.1,68.9h7v7h-7V68.9z
	 M729.7,68.9h7v7h-7V68.9z M736.9,68.9h7v7h-7V68.9z M780.5,68.9h7v7h-7V68.9z M787.7,68.9h7v7h-7V68.9z M816.8,68.9h7v7h-7V68.9z
	 M337.6,76.2h7v7h-7V76.2z M373.9,76.2h7v7h-7V76.2z M381.2,76.2h7v7h-7V76.2z M439.3,76.2h7v7h-7V76.2z M446.5,76.2h7v7h-7V76.2z
	 M453.8,76.2h7v7h-7V76.2z M461,76.2h7v7h-7V76.2z M468.3,76.2h7v7h-7V76.2z M475.6,76.2h7v7h-7V76.2z M490.1,76.2h7v7h-7V76.2z
	 M497.3,76.2h7v7h-7V76.2z M504.6,76.2h7v7h-7V76.2z M511.9,76.2h7v7h-7V76.2z M519.1,76.2h7v7h-7V76.2z M526.4,76.2h7v7h-7V76.2z
	 M533.6,76.2h7v7h-7V76.2z M540.9,76.2h7v7h-7V76.2z M548.2,76.2h7v7h-7V76.2z M562.7,76.2h7v7h-7V76.2z M569.9,76.2h7v7h-7V76.2z
	 M613.5,76.2h7v7h-7V76.2z M620.8,76.2h7v7h-7V76.2z M628,76.2h7v7h-7V76.2z M635.3,76.2h7v7h-7V76.2z M642.5,76.2h7v7h-7V76.2z
	 M657.1,76.2h7v7h-7V76.2z M736.9,76.2h7v7h-7V76.2z M744.2,76.2h7v7h-7V76.2z M780.5,76.2h7v7h-7V76.2z M787.7,76.2h7v7h-7V76.2z
	 M330.4,83.5h7v7h-7V83.5z M373.9,83.5h7v7h-7V83.5z M432,83.5h7v7h-7V83.5z M439.3,83.5h7v7h-7V83.5z M446.5,83.5h7v7h-7V83.5z
	 M453.8,83.5h7v7h-7V83.5z M461,83.5h7v7h-7V83.5z M468.3,83.5h7v7h-7V83.5z M475.6,83.5h7v7h-7V83.5z M482.8,83.5h7v7h-7V83.5z
	 M490.1,83.5h7v7h-7V83.5z M497.3,83.5h7v7h-7V83.5z M504.6,83.5h7v7h-7V83.5z M511.9,83.5h7v7h-7V83.5z M519.1,83.5h7v7h-7V83.5z
	 M526.4,83.5h7v7h-7V83.5z M533.6,83.5h7v7h-7V83.5z M540.9,83.5h7v7h-7V83.5z M548.2,83.5h7v7h-7V83.5z M555.4,83.5h7v7h-7V83.5z
	 M562.7,83.5h7v7h-7V83.5z M569.9,83.5h7v7h-7V83.5z M577.2,83.5h7v7h-7V83.5z M584.5,83.5h7v7h-7V83.5z M591.7,83.5h7v7h-7V83.5z
	 M599,83.5h7v7h-7V83.5z M606.2,83.5h7v7h-7V83.5z M613.5,83.5h7v7h-7V83.5z M620.8,83.5h7v7h-7V83.5z M628,83.5h7v7h-7V83.5z
	 M635.3,83.5h7v7h-7V83.5z M642.5,83.5h7v7h-7V83.5z M657.1,83.5h7v7h-7V83.5z M736.9,83.5h7v7h-7V83.5z M744.2,83.5h7v7h-7V83.5z
	 M751.4,83.5h7v7h-7V83.5z M780.5,83.5h7v7h-7V83.5z M787.7,83.5h7v7h-7V83.5z M323.1,90.7h7v7h-7V90.7z M424.7,90.7h7v7h-7V90.7z
	 M432,90.7h7v7h-7V90.7z M439.3,90.7h7v7h-7V90.7z M446.5,90.7h7v7h-7V90.7z M453.8,90.7h7v7h-7V90.7z M461,90.7h7v7h-7V90.7z
	 M468.3,90.7h7v7h-7V90.7z M475.6,90.7h7v7h-7V90.7z M482.8,90.7h7v7h-7V90.7z M490.1,90.7h7v7h-7V90.7z M497.3,90.7h7v7h-7V90.7z
	 M504.6,90.7h7v7h-7V90.7z M511.9,90.7h7v7h-7V90.7z M519.1,90.7h7v7h-7V90.7z M526.4,90.7h7v7h-7V90.7z M533.6,90.7h7v7h-7V90.7z
	 M540.9,90.7h7v7h-7V90.7z M548.2,90.7h7v7h-7V90.7z M555.4,90.7h7v7h-7V90.7z M562.7,90.7h7v7h-7V90.7z M569.9,90.7h7v7h-7V90.7z
	 M577.2,90.7h7v7h-7V90.7z M613.5,90.7h7v7h-7V90.7z M620.8,90.7h7v7h-7V90.7z M628,90.7h7v7h-7V90.7z M635.3,90.7h7v7h-7V90.7z
	 M642.5,90.7h7v7h-7V90.7z M657.1,90.7h7v7h-7V90.7z M736.9,90.7h7v7h-7V90.7z M744.2,90.7h7v7h-7V90.7z M751.4,90.7h7v7h-7V90.7z
	 M758.7,90.7h7v7h-7V90.7z M780.5,90.7h7v7h-7V90.7z M787.7,90.7h7v7h-7V90.7z M315.8,98h7v7h-7V98z M424.7,98h7v7h-7V98z M432,98h7
	v7h-7V98z M439.3,98h7v7h-7V98z M446.5,98h7v7h-7V98z M461,98h7v7h-7V98z M468.3,98h7v7h-7V98z M475.6,98h7v7h-7V98z M482.8,98h7v7
	h-7V98z M490.1,98h7v7h-7V98z M497.3,98h7v7h-7V98z M504.6,98h7v7h-7V98z M511.9,98h7v7h-7V98z M519.1,98h7v7h-7V98z M526.4,98h7v7
	h-7V98z M533.6,98h7v7h-7V98z M540.9,98h7v7h-7V98z M548.2,98h7v7h-7V98z M555.4,98h7v7h-7V98z M562.7,98h7v7h-7V98z M569.9,98h7v7
	h-7V98z M577.2,98h7v7h-7V98z M584.5,98h7v7h-7V98z M591.7,98h7v7h-7V98z M599,98h7v7h-7V98z M606.2,98h7v7h-7V98z M613.5,98h7v7h-7
	V98z M620.8,98h7v7h-7V98z M628,98h7v7h-7V98z M635.3,98h7v7h-7V98z M657.1,98h7v7h-7V98z M736.9,98h7v7h-7V98z M744.2,98h7v7h-7V98
	z M751.4,98h7v7h-7V98z M758.7,98h7v7h-7V98z M766,98h7v7h-7V98z M773.2,98h7v7h-7V98z M780.5,98h7v7h-7V98z M787.7,98h7v7h-7V98z
	 M308.6,105.2h7v7h-7V105.2z M417.5,105.2h7v7h-7V105.2z M424.7,105.2h7v7h-7V105.2z M432,105.2h7v7h-7V105.2z M439.3,105.2h7v7h-7
	V105.2z M446.5,105.2h7v7h-7V105.2z M453.8,105.2h7v7h-7V105.2z M461,105.2h7v7h-7V105.2z M468.3,105.2h7v7h-7V105.2z M475.6,105.2
	h7v7h-7V105.2z M482.8,105.2h7v7h-7V105.2z M490.1,105.2h7v7h-7V105.2z M497.3,105.2h7v7h-7V105.2z M504.6,105.2h7v7h-7V105.2z
	 M511.9,105.2h7v7h-7V105.2z M519.1,105.2h7v7h-7V105.2z M526.4,105.2h7v7h-7V105.2z M533.6,105.2h7v7h-7V105.2z M540.9,105.2h7v7
	h-7V105.2z M548.2,105.2h7v7h-7V105.2z M555.4,105.2h7v7h-7V105.2z M562.7,105.2h7v7h-7V105.2z M569.9,105.2h7v7h-7V105.2z
	 M577.2,105.2h7v7h-7V105.2z M584.5,105.2h7v7h-7V105.2z M591.7,105.2h7v7h-7V105.2z M599,105.2h7v7h-7V105.2z M606.2,105.2h7v7h-7
	V105.2z M613.5,105.2h7v7h-7V105.2z M620.8,105.2h7v7h-7V105.2z M628,105.2h7v7h-7V105.2z M635.3,105.2h7v7h-7V105.2z M649.8,105.2
	h7v7h-7V105.2z M657.1,105.2h7v7h-7V105.2z M744.2,105.2h7v7h-7V105.2z M751.4,105.2h7v7h-7V105.2z M758.7,105.2h7v7h-7V105.2z
	 M773.2,105.2h7v7h-7V105.2z M780.5,105.2h7v7h-7V105.2z M787.7,105.2h7v7h-7V105.2z M795,105.2h7v7h-7V105.2z M802.3,105.2h7v7h-7
	V105.2z M286.8,112.5h7v7h-7V112.5z M294.1,112.5h7v7h-7V112.5z M301.3,112.5h7v7h-7V112.5z M417.5,112.5h7v7h-7V112.5z
	 M424.7,112.5h7v7h-7V112.5z M432,112.5h7v7h-7V112.5z M439.3,112.5h7v7h-7V112.5z M446.5,112.5h7v7h-7V112.5z M453.8,112.5h7v7h-7
	V112.5z M461,112.5h7v7h-7V112.5z M468.3,112.5h7v7h-7V112.5z M475.6,112.5h7v7h-7V112.5z M482.8,112.5h7v7h-7V112.5z M490.1,112.5
	h7v7h-7V112.5z M497.3,112.5h7v7h-7V112.5z M504.6,112.5h7v7h-7V112.5z M511.9,112.5h7v7h-7V112.5z M519.1,112.5h7v7h-7V112.5z
	 M526.4,112.5h7v7h-7V112.5z M533.6,112.5h7v7h-7V112.5z M540.9,112.5h7v7h-7V112.5z M548.2,112.5h7v7h-7V112.5z M555.4,112.5h7v7
	h-7V112.5z M562.7,112.5h7v7h-7V112.5z M569.9,112.5h7v7h-7V112.5z M577.2,112.5h7v7h-7V112.5z M584.5,112.5h7v7h-7V112.5z
	 M591.7,112.5h7v7h-7V112.5z M599,112.5h7v7h-7V112.5z M606.2,112.5h7v7h-7V112.5z M613.5,112.5h7v7h-7V112.5z M620.8,112.5h7v7h-7
	V112.5z M628,112.5h7v7h-7V112.5z M635.3,112.5h7v7h-7V112.5z M649.8,112.5h7v7h-7V112.5z M657.1,112.5h7v7h-7V112.5z M744.2,112.5
	h7v7h-7V112.5z M751.4,112.5h7v7h-7V112.5z M816.8,112.5h7v7h-7V112.5z M809.5,105.2h7v7h-7V105.2z M279.5,119.8h7v7h-7V119.8z
	 M286.8,119.8h7v7h-7V119.8z M294.1,119.8h7v7h-7V119.8z M410.2,119.8h7v7h-7V119.8z M417.5,119.8h7v7h-7V119.8z M424.7,119.8h7v7
	h-7V119.8z M432,119.8h7v7h-7V119.8z M439.3,119.8h7v7h-7V119.8z M446.5,119.8h7v7h-7V119.8z M453.8,119.8h7v7h-7V119.8z M461,119.8
	h7v7h-7V119.8z M468.3,119.8h7v7h-7V119.8z M475.6,119.8h7v7h-7V119.8z M482.8,119.8h7v7h-7V119.8z M490.1,119.8h7v7h-7V119.8z
	 M497.3,119.8h7v7h-7V119.8z M504.6,119.8h7v7h-7V119.8z M511.9,119.8h7v7h-7V119.8z M519.1,119.8h7v7h-7V119.8z M526.4,119.8h7v7
	h-7V119.8z M533.6,119.8h7v7h-7V119.8z M540.9,119.8h7v7h-7V119.8z M548.2,119.8h7v7h-7V119.8z M555.4,119.8h7v7h-7V119.8z
	 M562.7,119.8h7v7h-7V119.8z M569.9,119.8h7v7h-7V119.8z M577.2,119.8h7v7h-7V119.8z M584.5,119.8h7v7h-7V119.8z M591.7,119.8h7v7
	h-7V119.8z M599,119.8h7v7h-7V119.8z M606.2,119.8h7v7h-7V119.8z M613.5,119.8h7v7h-7V119.8z M620.8,119.8h7v7h-7V119.8z M628,119.8
	h7v7h-7V119.8z M635.3,119.8h7v7h-7V119.8z M649.8,119.8h7v7h-7V119.8z M729.7,119.8h7v7h-7V119.8z M736.9,119.8h7v7h-7V119.8z
	 M744.2,119.8h7v7h-7V119.8z M824,119.8h7v7h-7V119.8z M279.5,127h7v7h-7V127z M286.8,127h7v7h-7V127z M373.9,127h7v7h-7V127z
	 M381.2,127h7v7h-7V127z M388.4,127h7v7h-7V127z M395.7,127h7v7h-7V127z M403,127h7v7h-7V127z M410.2,127h7v7h-7V127z M417.5,127h7
	v7h-7V127z M424.7,127h7v7h-7V127z M432,127h7v7h-7V127z M439.3,127h7v7h-7V127z M446.5,127h7v7h-7V127z M453.8,127h7v7h-7V127z
	 M461,127h7v7h-7V127z M468.3,127h7v7h-7V127z M475.6,127h7v7h-7V127z M482.8,127h7v7h-7V127z M490.1,127h7v7h-7V127z M497.3,127h7
	v7h-7V127z M504.6,127h7v7h-7V127z M511.9,127h7v7h-7V127z M519.1,127h7v7h-7V127z M526.4,127h7v7h-7V127z M533.6,127h7v7h-7V127z
	 M540.9,127h7v7h-7V127z M548.2,127h7v7h-7V127z M555.4,127h7v7h-7V127z M562.7,127h7v7h-7V127z M577.2,127h7v7h-7V127z M584.5,127
	h7v7h-7V127z M591.7,127h7v7h-7V127z M599,127h7v7h-7V127z M606.2,127h7v7h-7V127z M613.5,127h7v7h-7V127z M620.8,127h7v7h-7V127z
	 M628,127h7v7h-7V127z M635.3,127h7v7h-7V127z M649.8,127h7v7h-7V127z M657.1,127h7v7h-7V127z M693.4,127h7v7h-7V127z M780.5,127h7
	v7h-7V127z M787.7,127h7v7h-7V127z M265,134.3h7v7h-7V134.3z M272.3,134.3h7v7h-7V134.3z M279.5,134.3h7v7h-7V134.3z M352.1,134.3h7
	v7h-7V134.3z M359.4,134.3h7v7h-7V134.3z M366.7,134.3h7v7h-7V134.3z M373.9,134.3h7v7h-7V134.3z M381.2,134.3h7v7h-7V134.3z
	 M388.4,134.3h7v7h-7V134.3z M395.7,134.3h7v7h-7V134.3z M403,134.3h7v7h-7V134.3z M410.2,134.3h7v7h-7V134.3z M417.5,134.3h7v7h-7
	V134.3z M424.7,134.3h7v7h-7V134.3z M432,134.3h7v7h-7V134.3z M439.3,134.3h7v7h-7V134.3z M446.5,134.3h7v7h-7V134.3z M453.8,134.3
	h7v7h-7V134.3z M461,134.3h7v7h-7V134.3z M468.3,134.3h7v7h-7V134.3z M475.6,134.3h7v7h-7V134.3z M482.8,134.3h7v7h-7V134.3z
	 M490.1,134.3h7v7h-7V134.3z M497.3,134.3h7v7h-7V134.3z M504.6,134.3h7v7h-7V134.3z M511.9,134.3h7v7h-7V134.3z M519.1,134.3h7v7
	h-7V134.3z M526.4,134.3h7v7h-7V134.3z M533.6,134.3h7v7h-7V134.3z M548.2,134.3h7v7h-7V134.3z M555.4,134.3h7v7h-7V134.3z
	 M562.7,134.3h7v7h-7V134.3z M569.9,134.3h7v7h-7V134.3z M577.2,134.3h7v7h-7V134.3z M591.7,134.3h7v7h-7V134.3z M599,134.3h7v7h-7
	V134.3z M606.2,134.3h7v7h-7V134.3z M613.5,134.3h7v7h-7V134.3z M620.8,134.3h7v7h-7V134.3z M628,134.3h7v7h-7V134.3z M635.3,134.3
	h7v7h-7V134.3z M649.8,134.3h7v7h-7V134.3z M657.1,134.3h7v7h-7V134.3z M686.1,134.3h7v7h-7V134.3z M773.2,134.3h7v7h-7V134.3z
	 M780.5,134.3h7v7h-7V134.3z M787.7,134.3h7v7h-7V134.3z M795,134.3h7v7h-7V134.3z M831.3,134.3h7v7h-7V134.3z M831.3,127h7v7h-7
	V127z M265,141.5h7v7h-7V141.5z M272.3,141.5h7v7h-7V141.5z M337.6,141.5h7v7h-7V141.5z M344.9,141.5h7v7h-7V141.5z M352.1,141.5h7
	v7h-7V141.5z M359.4,141.5h7v7h-7V141.5z M366.7,141.5h7v7h-7V141.5z M373.9,141.5h7v7h-7V141.5z M381.2,141.5h7v7h-7V141.5z
	 M388.4,141.5h7v7h-7V141.5z M395.7,141.5h7v7h-7V141.5z M403,141.5h7v7h-7V141.5z M410.2,141.5h7v7h-7V141.5z M417.5,141.5h7v7h-7
	V141.5z M424.7,141.5h7v7h-7V141.5z M432,141.5h7v7h-7V141.5z M446.5,141.5h7v7h-7V141.5z M453.8,141.5h7v7h-7V141.5z M461,141.5h7
	v7h-7V141.5z M475.6,141.5h7v7h-7V141.5z M482.8,141.5h7v7h-7V141.5z M490.1,141.5h7v7h-7V141.5z M497.3,141.5h7v7h-7V141.5z
	 M504.6,141.5h7v7h-7V141.5z M511.9,141.5h7v7h-7V141.5z M569.9,141.5h7v7h-7V141.5z M577.2,141.5h7v7h-7V141.5z M584.5,141.5h7v7
	h-7V141.5z M591.7,141.5h7v7h-7V141.5z M599,141.5h7v7h-7V141.5z M606.2,141.5h7v7h-7V141.5z M613.5,141.5h7v7h-7V141.5z
	 M620.8,141.5h7v7h-7V141.5z M628,141.5h7v7h-7V141.5z M635.3,141.5h7v7h-7V141.5z M649.8,141.5h7v7h-7V141.5z M657.1,141.5h7v7h-7
	V141.5z M715.1,141.5h7v7h-7V141.5z M722.4,141.5h7v7h-7V141.5z M729.7,141.5h7v7h-7V141.5z M736.9,141.5h7v7h-7V141.5z
	 M744.2,141.5h7v7h-7V141.5z M766,141.5h7v7h-7V141.5z M773.2,141.5h7v7h-7V141.5z M780.5,141.5h7v7h-7V141.5z M787.7,141.5h7v7h-7
	V141.5z M795,141.5h7v7h-7V141.5z M824,141.5h7v7h-7V141.5z M831.3,141.5h7v7h-7V141.5z M236,148.8h7v7h-7V148.8z M243.2,148.8h7v7
	h-7V148.8z M250.5,148.8h7v7h-7V148.8z M257.8,148.8h7v7h-7V148.8z M265,148.8h7v7h-7V148.8z M272.3,148.8h7v7h-7V148.8z
	 M279.5,148.8h7v7h-7V148.8z M286.8,148.8h7v7h-7V148.8z M294.1,148.8h7v7h-7V148.8z M301.3,148.8h7v7h-7V148.8z M308.6,148.8h7v7
	h-7V148.8z M315.8,148.8h7v7h-7V148.8z M323.1,148.8h7v7h-7V148.8z M330.4,148.8h7v7h-7V148.8z M337.6,148.8h7v7h-7V148.8z
	 M344.9,148.8h7v7h-7V148.8z M352.1,148.8h7v7h-7V148.8z M359.4,148.8h7v7h-7V148.8z M366.7,148.8h7v7h-7V148.8z M373.9,148.8h7v7
	h-7V148.8z M381.2,148.8h7v7h-7V148.8z M388.4,148.8h7v7h-7V148.8z M395.7,148.8h7v7h-7V148.8z M403,148.8h7v7h-7V148.8z
	 M410.2,148.8h7v7h-7V148.8z M417.5,148.8h7v7h-7V148.8z M424.7,148.8h7v7h-7V148.8z M432,148.8h7v7h-7V148.8z M439.3,148.8h7v7h-7
	V148.8z M446.5,148.8h7v7h-7V148.8z M453.8,148.8h7v7h-7V148.8z M461,148.8h7v7h-7V148.8z M468.3,148.8h7v7h-7V148.8z M475.6,148.8
	h7v7h-7V148.8z M482.8,148.8h7v7h-7V148.8z M490.1,148.8h7v7h-7V148.8z M497.3,148.8h7v7h-7V148.8z M548.2,148.8h7v7h-7V148.8z
	 M555.4,148.8h7v7h-7V148.8z M562.7,148.8h7v7h-7V148.8z M569.9,148.8h7v7h-7V148.8z M577.2,148.8h7v7h-7V148.8z M584.5,148.8h7v7
	h-7V148.8z M591.7,148.8h7v7h-7V148.8z M599,148.8h7v7h-7V148.8z M606.2,148.8h7v7h-7V148.8z M613.5,148.8h7v7h-7V148.8z
	 M620.8,148.8h7v7h-7V148.8z M628,148.8h7v7h-7V148.8z M635.3,148.8h7v7h-7V148.8z M649.8,148.8h7v7h-7V148.8z M657.1,148.8h7v7h-7
	V148.8z M678.8,148.8h7v7h-7V148.8z M686.1,148.8h7v7h-7V148.8z M693.4,148.8h7v7h-7V148.8z M700.6,148.8h7v7h-7V148.8z
	 M707.9,148.8h7v7h-7V148.8z M715.1,148.8h7v7h-7V148.8z M722.4,148.8h7v7h-7V148.8z M729.7,148.8h7v7h-7V148.8z M736.9,148.8h7v7
	h-7V148.8z M766,148.8h7v7h-7V148.8z M773.2,148.8h7v7h-7V148.8z M780.5,148.8h7v7h-7V148.8z M787.7,148.8h7v7h-7V148.8z M795,148.8
	h7v7h-7V148.8z M816.8,148.8h7v7h-7V148.8z M824,148.8h7v7h-7V148.8z M831.3,148.8h7v7h-7V148.8z M838.6,148.8h7v7h-7V148.8z
	 M214.2,156.1h7v7h-7V156.1z M221.5,156.1h7v7h-7V156.1z M228.7,156.1h7v7h-7V156.1z M323.1,156.1h7v7h-7V156.1z M330.4,156.1h7v7
	h-7V156.1z M337.6,156.1h7v7h-7V156.1z M344.9,156.1h7v7h-7V156.1z M352.1,156.1h7v7h-7V156.1z M359.4,156.1h7v7h-7V156.1z
	 M366.7,156.1h7v7h-7V156.1z M373.9,156.1h7v7h-7V156.1z M381.2,156.1h7v7h-7V156.1z M388.4,156.1h7v7h-7V156.1z M395.7,156.1h7v7
	h-7V156.1z M403,156.1h7v7h-7V156.1z M410.2,156.1h7v7h-7V156.1z M417.5,156.1h7v7h-7V156.1z M424.7,156.1h7v7h-7V156.1z M432,156.1
	h7v7h-7V156.1z M439.3,156.1h7v7h-7V156.1z M446.5,156.1h7v7h-7V156.1z M453.8,156.1h7v7h-7V156.1z M461,156.1h7v7h-7V156.1z
	 M468.3,156.1h7v7h-7V156.1z M475.6,156.1h7v7h-7V156.1z M482.8,156.1h7v7h-7V156.1z M490.1,156.1h7v7h-7V156.1z M497.3,156.1h7v7
	h-7V156.1z M504.6,156.1h7v7h-7V156.1z M511.9,156.1h7v7h-7V156.1z M519.1,156.1h7v7h-7V156.1z M526.4,156.1h7v7h-7V156.1z
	 M533.6,156.1h7v7h-7V156.1z M540.9,156.1h7v7h-7V156.1z M548.2,156.1h7v7h-7V156.1z M555.4,156.1h7v7h-7V156.1z M562.7,156.1h7v7
	h-7V156.1z M569.9,156.1h7v7h-7V156.1z M577.2,156.1h7v7h-7V156.1z M584.5,156.1h7v7h-7V156.1z M591.7,156.1h7v7h-7V156.1z
	 M599,156.1h7v7h-7V156.1z M606.2,156.1h7v7h-7V156.1z M613.5,156.1h7v7h-7V156.1z M620.8,156.1h7v7h-7V156.1z M628,156.1h7v7h-7
	V156.1z M635.3,156.1h7v7h-7V156.1z M649.8,156.1h7v7h-7V156.1z M657.1,156.1h7v7h-7V156.1z M664.3,156.1h7v7h-7V156.1z
	 M671.6,156.1h7v7h-7V156.1z M678.8,156.1h7v7h-7V156.1z M686.1,156.1h7v7h-7V156.1z M693.4,156.1h7v7h-7V156.1z M700.6,156.1h7v7
	h-7V156.1z M707.9,156.1h7v7h-7V156.1z M715.1,156.1h7v7h-7V156.1z M722.4,156.1h7v7h-7V156.1z M729.7,156.1h7v7h-7V156.1z
	 M773.2,156.1h7v7h-7V156.1z M780.5,156.1h7v7h-7V156.1z M787.7,156.1h7v7h-7V156.1z M795,156.1h7v7h-7V156.1z M816.8,156.1h7v7h-7
	V156.1z M824,156.1h7v7h-7V156.1z M831.3,156.1h7v7h-7V156.1z M838.6,156.1h7v7h-7V156.1z M206.9,163.3h7v7h-7V163.3z M482.8,163.3
	h7v7h-7V163.3z M490.1,163.3h7v7h-7V163.3z M497.3,163.3h7v7h-7V163.3z M504.6,163.3h7v7h-7V163.3z M511.9,163.3h7v7h-7V163.3z
	 M519.1,163.3h7v7h-7V163.3z M526.4,163.3h7v7h-7V163.3z M533.6,163.3h7v7h-7V163.3z M540.9,163.3h7v7h-7V163.3z M548.2,163.3h7v7
	h-7V163.3z M555.4,163.3h7v7h-7V163.3z M562.7,163.3h7v7h-7V163.3z M569.9,163.3h7v7h-7V163.3z M577.2,163.3h7v7h-7V163.3z
	 M584.5,163.3h7v7h-7V163.3z M591.7,163.3h7v7h-7V163.3z M599,163.3h7v7h-7V163.3z M606.2,163.3h7v7h-7V163.3z M613.5,163.3h7v7h-7
	V163.3z M620.8,163.3h7v7h-7V163.3z M628,163.3h7v7h-7V163.3z M635.3,163.3h7v7h-7V163.3z M649.8,163.3h7v7h-7V163.3z M671.6,163.3
	h7v7h-7V163.3z M678.8,163.3h7v7h-7V163.3z M686.1,163.3h7v7h-7V163.3z M693.4,163.3h7v7h-7V163.3z M700.6,163.3h7v7h-7V163.3z
	 M707.9,163.3h7v7h-7V163.3z M773.2,163.3h7v7h-7V163.3z M780.5,163.3h7v7h-7V163.3z M787.7,163.3h7v7h-7V163.3z M795,163.3h7v7h-7
	V163.3z M816.8,163.3h7v7h-7V163.3z M824,163.3h7v7h-7V163.3z M831.3,163.3h7v7h-7V163.3z M838.6,163.3h7v7h-7V163.3z M192.4,170.6
	h7v7h-7V170.6z M199.7,170.6h7v7h-7V170.6z M315.8,170.6h7v7h-7V170.6z M323.1,170.6h7v7h-7V170.6z M548.2,170.6h7v7h-7V170.6z
	 M555.4,170.6h7v7h-7V170.6z M591.7,170.6h7v7h-7V170.6z M599,170.6h7v7h-7V170.6z M606.2,170.6h7v7h-7V170.6z M613.5,170.6h7v7h-7
	V170.6z M620.8,170.6h7v7h-7V170.6z M671.6,170.6h7v7h-7V170.6z M678.8,170.6h7v7h-7V170.6z M686.1,170.6h7v7h-7V170.6z
	 M693.4,170.6h7v7h-7V170.6z M758.7,170.6h7v7h-7V170.6z M766,170.6h7v7h-7V170.6z M773.2,170.6h7v7h-7V170.6z M780.5,170.6h7v7h-7
	V170.6z M787.7,170.6h7v7h-7V170.6z M795,170.6h7v7h-7V170.6z M809.5,170.6h7v7h-7V170.6z M816.8,170.6h7v7h-7V170.6z M824,170.6h7
	v7h-7V170.6z M831.3,170.6h7v7h-7V170.6z M838.6,170.6h7v7h-7V170.6z M170.6,177.8h7v7h-7V177.8z M177.9,177.8h7v7h-7V177.8z
	 M185.2,177.8h7v7h-7V177.8z M192.4,177.8h7v7h-7V177.8z M301.3,177.8h7v7h-7V177.8z M308.6,177.8h7v7h-7V177.8z M569.9,177.8h7v7
	h-7V177.8z M577.2,177.8h7v7h-7V177.8z M584.5,177.8h7v7h-7V177.8z M591.7,177.8h7v7h-7V177.8z M599,177.8h7v7h-7V177.8z
	 M606.2,177.8h7v7h-7V177.8z M613.5,177.8h7v7h-7V177.8z M657.1,177.8h7v7h-7V177.8z M664.3,177.8h7v7h-7V177.8z M671.6,177.8h7v7
	h-7V177.8z M678.8,177.8h7v7h-7V177.8z M686.1,177.8h7v7h-7V177.8z M751.4,177.8h7v7h-7V177.8z M758.7,177.8h7v7h-7V177.8z
	 M766,177.8h7v7h-7V177.8z M773.2,177.8h7v7h-7V177.8z M780.5,177.8h7v7h-7V177.8z M787.7,177.8h7v7h-7V177.8z M795,177.8h7v7h-7
	V177.8z M809.5,177.8h7v7h-7V177.8z M816.8,177.8h7v7h-7V177.8z M824,177.8h7v7h-7V177.8z M831.3,177.8h7v7h-7V177.8z M838.6,177.8
	h7v7h-7V177.8z M148.9,185.1h7v7h-7V185.1z M141.6,192.1h7v7h-7V192.1z M156.1,185.1h7v7h-7V185.1z M163.4,185.1h7v7h-7V185.1z
	 M170.6,185.1h7v7h-7V185.1z M177.9,185.1h7v7h-7V185.1z M185.2,185.1h7v7h-7V185.1z M286.8,185.1h7v7h-7V185.1z M294.1,185.1h7v7
	h-7V185.1z M301.3,185.1h7v7h-7V185.1z M388.4,185.1h7v7h-7V185.1z M555.4,185.1h7v7h-7V185.1z M562.7,185.1h7v7h-7V185.1z
	 M569.9,185.1h7v7h-7V185.1z M577.2,185.1h7v7h-7V185.1z M591.7,185.1h7v7h-7V185.1z M599,185.1h7v7h-7V185.1z M606.2,185.1h7v7h-7
	V185.1z M649.8,185.1h7v7h-7V185.1z M657.1,185.1h7v7h-7V185.1z M664.3,185.1h7v7h-7V185.1z M671.6,185.1h7v7h-7V185.1z
	 M744.2,185.1h7v7h-7V185.1z M751.4,185.1h7v7h-7V185.1z M758.7,185.1h7v7h-7V185.1z M766,185.1h7v7h-7V185.1z M773.2,185.1h7v7h-7
	V185.1z M780.5,185.1h7v7h-7V185.1z M787.7,185.1h7v7h-7V185.1z M809.5,185.1h7v7h-7V185.1z M816.8,185.1h7v7h-7V185.1z M824,185.1
	h7v7h-7V185.1z M831.3,185.1h7v7h-7V185.1z M838.6,185.1h7v7h-7V185.1z M119.8,192.4h7v7h-7V192.4z M127.1,192.4h7v7h-7V192.4z
	 M134.3,192.4h7v7h-7V192.4z M170.6,192.4h7v7h-7V192.4z M177.9,192.4h7v7h-7V192.4z M199.7,192.4h7v7h-7V192.4z M206.9,192.4h7v7
	h-7V192.4z M214.2,192.4h7v7h-7V192.4z M221.5,192.4h7v7h-7V192.4z M279.5,192.4h7v7h-7V192.4z M286.8,192.4h7v7h-7V192.4z
	 M381.2,192.4h7v7h-7V192.4z M533.6,192.4h7v7h-7V192.4z M540.9,192.4h7v7h-7V192.4z M548.2,192.4h7v7h-7V192.4z M555.4,192.4h7v7
	h-7V192.4z M584.5,192.4h7v7h-7V192.4z M591.7,192.4h7v7h-7V192.4z M599,192.4h7v7h-7V192.4z M606.2,192.4h7v7h-7V192.4z
	 M613.5,192.4h7v7h-7V192.4z M642.5,192.4h7v7h-7V192.4z M649.8,192.4h7v7h-7V192.4z M657.1,192.4h7v7h-7V192.4z M664.3,192.4h7v7
	h-7V192.4z M729.7,192.4h7v7h-7V192.4z M736.9,192.4h7v7h-7V192.4z M744.2,192.4h7v7h-7V192.4z M751.4,192.4h7v7h-7V192.4z
	 M758.7,192.4h7v7h-7V192.4z M766,192.4h7v7h-7V192.4z M773.2,192.4h7v7h-7V192.4z M780.5,192.4h7v7h-7V192.4z M787.7,192.4h7v7h-7
	V192.4z M809.5,192.4h7v7h-7V192.4z M816.8,192.4h7v7h-7V192.4z M824,192.4h7v7h-7V192.4z M831.3,192.4h7v7h-7V192.4z M838.6,192.4
	h7v7h-7V192.4z M105.3,199.6h7v7h-7V199.6z M112.6,199.6h7v7h-7V199.6z M119.8,199.6h7v7h-7V199.6z M127.1,199.6h7v7h-7V199.6z
	 M134.3,199.6h7v7h-7V199.6z M163.4,199.6h7v7h-7V199.6z M170.6,199.6h7v7h-7V199.6z M192.4,199.6h7v7h-7V199.6z M199.7,199.6h7v7
	h-7V199.6z M206.9,199.6h7v7h-7V199.6z M214.2,199.6h7v7h-7V199.6z M221.5,199.6h7v7h-7V199.6z M272.3,199.6h7v7h-7V199.6z
	 M279.5,199.6h7v7h-7V199.6z M366.7,199.6h7v7h-7V199.6z M519.1,199.6h7v7h-7V199.6z M526.4,199.6h7v7h-7V199.6z M533.6,199.6h7v7
	h-7V199.6z M591.7,199.6h7v7h-7V199.6z M599,199.6h7v7h-7V199.6z M606.2,199.6h7v7h-7V199.6z M613.5,199.6h7v7h-7V199.6z
	 M620.8,199.6h7v7h-7V199.6z M635.3,199.6h7v7h-7V199.6z M642.5,199.6h7v7h-7V199.6z M649.8,199.6h7v7h-7V199.6z M715.1,199.6h7v7
	h-7V199.6z M722.4,199.6h7v7h-7V199.6z M729.7,199.6h7v7h-7V199.6z M736.9,199.6h7v7h-7V199.6z M751.4,199.6h7v7h-7V199.6z
	 M758.7,199.6h7v7h-7V199.6z M766,199.6h7v7h-7V199.6z M773.2,199.6h7v7h-7V199.6z M780.5,199.6h7v7h-7V199.6z M787.7,199.6h7v7h-7
	V199.6z M809.5,199.6h7v7h-7V199.6z M816.8,199.6h7v7h-7V199.6z M824,199.6h7v7h-7V199.6z M831.3,199.6h7v7h-7V199.6z M838.6,199.6
	h7v7h-7V199.6z M98,206.9h7v7h-7V206.9z M105.3,206.9h7v7h-7V206.9z M112.6,206.9h7v7h-7V206.9z M119.8,206.9h7v7h-7V206.9z
	 M127.1,206.9h7v7h-7V206.9z M134.3,206.9h7v7h-7V206.9z M156.1,206.9h7v7h-7V206.9z M163.4,206.9h7v7h-7V206.9z M170.6,206.9h7v7
	h-7V206.9z M185.2,206.9h7v7h-7V206.9z M192.4,206.9h7v7h-7V206.9z M199.7,206.9h7v7h-7V206.9z M206.9,206.9h7v7h-7V206.9z
	 M214.2,206.9h7v7h-7V206.9z M257.8,206.9h7v7h-7V206.9z M265,206.9h7v7h-7V206.9z M359.4,206.9h7v7h-7V206.9z M424.7,206.9h7v7h-7
	V206.9z M432,206.9h7v7h-7V206.9z M439.3,206.9h7v7h-7V206.9z M446.5,206.9h7v7h-7V206.9z M453.8,206.9h7v7h-7V206.9z M461,206.9h7
	v7h-7V206.9z M468.3,206.9h7v7h-7V206.9z M504.6,206.9h7v7h-7V206.9z M511.9,206.9h7v7h-7V206.9z M599,206.9h7v7h-7V206.9z
	 M606.2,206.9h7v7h-7V206.9z M613.5,206.9h7v7h-7V206.9z M620.8,206.9h7v7h-7V206.9z M628,206.9h7v7h-7V206.9z M635.3,206.9h7v7h-7
	V206.9z M642.5,206.9h7v7h-7V206.9z M700.6,206.9h7v7h-7V206.9z M707.9,206.9h7v7h-7V206.9z M715.1,206.9h7v7h-7V206.9z
	 M722.4,206.9h7v7h-7V206.9z M751.4,206.9h7v7h-7V206.9z M758.7,206.9h7v7h-7V206.9z M766,206.9h7v7h-7V206.9z M773.2,206.9h7v7h-7
	V206.9z M809.5,206.9h7v7h-7V206.9z M816.8,206.9h7v7h-7V206.9z M824,206.9h7v7h-7V206.9z M831.3,206.9h7v7h-7V206.9z M838.6,206.9
	h7v7h-7V206.9z M90.8,214.1h7v7h-7V214.1z M98,214.1h7v7h-7V214.1z M105.3,214.1h7v7h-7V214.1z M119.8,214.1h7v7h-7V214.1z
	 M127.1,214.1h7v7h-7V214.1z M134.3,214.1h7v7h-7V214.1z M156.1,214.1h7v7h-7V214.1z M163.4,214.1h7v7h-7V214.1z M185.2,214.1h7v7
	h-7V214.1z M192.4,214.1h7v7h-7V214.1z M199.7,214.1h7v7h-7V214.1z M206.9,214.1h7v7h-7V214.1z M250.5,214.1h7v7h-7V214.1z
	 M257.8,214.1h7v7h-7V214.1z M352.1,214.1h7v7h-7V214.1z M410.2,214.1h7v7h-7V214.1z M417.5,214.1h7v7h-7V214.1z M424.7,214.1h7v7
	h-7V214.1z M432,214.1h7v7h-7V214.1z M439.3,214.1h7v7h-7V214.1z M446.5,214.1h7v7h-7V214.1z M453.8,214.1h7v7h-7V214.1z M461,214.1
	h7v7h-7V214.1z M468.3,214.1h7v7h-7V214.1z M490.1,214.1h7v7h-7V214.1z M497.3,214.1h7v7h-7V214.1z M504.6,214.1h7v7h-7V214.1z
	 M511.9,214.1h7v7h-7V214.1z M519.1,214.1h7v7h-7V214.1z M599,214.1h7v7h-7V214.1z M606.2,214.1h7v7h-7V214.1z M613.5,214.1h7v7h-7
	V214.1z M620.8,214.1h7v7h-7V214.1z M628,214.1h7v7h-7V214.1z M635.3,214.1h7v7h-7V214.1z M642.5,214.1h7v7h-7V214.1z M686.1,214.1
	h7v7h-7V214.1z M693.4,214.1h7v7h-7V214.1z M700.6,214.1h7v7h-7V214.1z M707.9,214.1h7v7h-7V214.1z M751.4,214.1h7v7h-7V214.1z
	 M758.7,214.1h7v7h-7V214.1z M766,214.1h7v7h-7V214.1z M773.2,214.1h7v7h-7V214.1z M809.5,214.1h7v7h-7V214.1z M816.8,214.1h7v7h-7
	V214.1z M824,214.1h7v7h-7V214.1z M831.3,214.1h7v7h-7V214.1z M838.6,214.1h7v7h-7V214.1z M90.8,221.4h7v7h-7V221.4z M98,221.4h7v7
	h-7V221.4z M119.8,221.4h7v7h-7V221.4z M127.1,221.4h7v7h-7V221.4z M134.3,221.4h7v7h-7V221.4z M148.9,221.4h7v7h-7V221.4z
	 M156.1,221.4h7v7h-7V221.4z M177.9,221.4h7v7h-7V221.4z M185.2,221.4h7v7h-7V221.4z M192.4,221.4h7v7h-7V221.4z M199.7,221.4h7v7
	h-7V221.4z M243.2,221.4h7v7h-7V221.4z M250.5,221.4h7v7h-7V221.4z M344.9,221.4h7v7h-7V221.4z M395.7,221.4h7v7h-7V221.4z
	 M403,221.4h7v7h-7V221.4z M410.2,221.4h7v7h-7V221.4z M417.5,221.4h7v7h-7V221.4z M424.7,221.4h7v7h-7V221.4z M432,221.4h7v7h-7
	V221.4z M439.3,221.4h7v7h-7V221.4z M446.5,221.4h7v7h-7V221.4z M453.8,221.4h7v7h-7V221.4z M482.8,221.4h7v7h-7V221.4z
	 M490.1,221.4h7v7h-7V221.4z M497.3,221.4h7v7h-7V221.4z M504.6,221.4h7v7h-7V221.4z M511.9,221.4h7v7h-7V221.4z M519.1,221.4h7v7
	h-7V221.4z M526.4,221.4h7v7h-7V221.4z M533.6,221.4h7v7h-7V221.4z M613.5,221.4h7v7h-7V221.4z M671.6,221.4h7v7h-7V221.4z
	 M678.8,221.4h7v7h-7V221.4z M686.1,221.4h7v7h-7V221.4z M693.4,221.4h7v7h-7V221.4z M751.4,221.4h7v7h-7V221.4z M758.7,221.4h7v7
	h-7V221.4z M766,221.4h7v7h-7V221.4z M773.2,221.4h7v7h-7V221.4z M802.3,221.4h7v7h-7V221.4z M809.5,221.4h7v7h-7V221.4z
	 M816.8,221.4h7v7h-7V221.4z M824,221.4h7v7h-7V221.4z M831.3,221.4h7v7h-7V221.4z M838.6,221.4h7v7h-7V221.4z M83.5,228.7h7v7h-7
	V228.7z M90.8,228.7h7v7h-7V228.7z M119.8,228.7h7v7h-7V228.7z M127.1,228.7h7v7h-7V228.7z M148.9,228.7h7v7h-7V228.7z M177.9,228.7
	h7v7h-7V228.7z M185.2,228.7h7v7h-7V228.7z M192.4,228.7h7v7h-7V228.7z M236,228.7h7v7h-7V228.7z M388.4,228.7h7v7h-7V228.7z
	 M395.7,228.7h7v7h-7V228.7z M403,228.7h7v7h-7V228.7z M410.2,228.7h7v7h-7V228.7z M417.5,228.7h7v7h-7V228.7z M424.7,228.7h7v7h-7
	V228.7z M432,228.7h7v7h-7V228.7z M439.3,228.7h7v7h-7V228.7z M468.3,228.7h7v7h-7V228.7z M475.6,228.7h7v7h-7V228.7z M482.8,228.7
	h7v7h-7V228.7z M490.1,228.7h7v7h-7V228.7z M497.3,228.7h7v7h-7V228.7z M504.6,228.7h7v7h-7V228.7z M511.9,228.7h7v7h-7V228.7z
	 M519.1,228.7h7v7h-7V228.7z M526.4,228.7h7v7h-7V228.7z M533.6,228.7h7v7h-7V228.7z M540.9,228.7h7v7h-7V228.7z M628,228.7h7v7h-7
	V228.7z M635.3,228.7h7v7h-7V228.7z M642.5,228.7h7v7h-7V228.7z M649.8,228.7h7v7h-7V228.7z M657.1,228.7h7v7h-7V228.7z
	 M664.3,228.7h7v7h-7V228.7z M671.6,228.7h7v7h-7V228.7z M678.8,228.7h7v7h-7V228.7z M751.4,228.7h7v7h-7V228.7z M758.7,228.7h7v7
	h-7V228.7z M766,228.7h7v7h-7V228.7z M802.3,228.7h7v7h-7V228.7z M809.5,228.7h7v7h-7V228.7z M816.8,228.7h7v7h-7V228.7z M824,228.7
	h7v7h-7V228.7z M831.3,228.7h7v7h-7V228.7z M838.6,228.7h7v7h-7V228.7z M76.3,235.9h7v7h-7V235.9z M83.5,235.9h7v7h-7V235.9z
	 M90.8,235.9h7v7h-7V235.9z M112.6,235.9h7v7h-7V235.9z M119.8,235.9h7v7h-7V235.9z M127.1,235.9h7v7h-7V235.9z M141.6,235.9h7v7h-7
	V235.9z M148.9,235.9h7v7h-7V235.9z M228.7,235.9h7v7h-7V235.9z M373.9,235.9h7v7h-7V235.9z M381.2,235.9h7v7h-7V235.9z
	 M388.4,235.9h7v7h-7V235.9z M395.7,235.9h7v7h-7V235.9z M403,235.9h7v7h-7V235.9z M410.2,235.9h7v7h-7V235.9z M417.5,235.9h7v7h-7
	V235.9z M424.7,235.9h7v7h-7V235.9z M461,235.9h7v7h-7V235.9z M468.3,235.9h7v7h-7V235.9z M475.6,235.9h7v7h-7V235.9z M482.8,235.9
	h7v7h-7V235.9z M490.1,235.9h7v7h-7V235.9z M497.3,235.9h7v7h-7V235.9z M504.6,235.9h7v7h-7V235.9z M511.9,235.9h7v7h-7V235.9z
	 M519.1,235.9h7v7h-7V235.9z M526.4,235.9h7v7h-7V235.9z M533.6,235.9h7v7h-7V235.9z M540.9,235.9h7v7h-7V235.9z M620.8,235.9h7v7
	h-7V235.9z M628,235.9h7v7h-7V235.9z M635.3,235.9h7v7h-7V235.9z M642.5,235.9h7v7h-7V235.9z M649.8,235.9h7v7h-7V235.9z
	 M657.1,235.9h7v7h-7V235.9z M664.3,235.9h7v7h-7V235.9z M671.6,235.9h7v7h-7V235.9z M751.4,235.9h7v7h-7V235.9z M758.7,235.9h7v7
	h-7V235.9z M766,235.9h7v7h-7V235.9z M802.3,235.9h7v7h-7V235.9z M809.5,235.9h7v7h-7V235.9z M816.8,235.9h7v7h-7V235.9z M824,235.9
	h7v7h-7V235.9z M831.3,235.9h7v7h-7V235.9z M838.6,235.9h7v7h-7V235.9z M76.3,243.2h7v7h-7V243.2z M83.5,243.2h7v7h-7V243.2z
	 M90.8,243.2h7v7h-7V243.2z M105.3,243.2h7v7h-7V243.2z M112.6,243.2h7v7h-7V243.2z M119.8,243.2h7v7h-7V243.2z M134.3,243.2h7v7h-7
	V243.2z M141.6,243.2h7v7h-7V243.2z M221.5,243.2h7v7h-7V243.2z M366.7,243.2h7v7h-7V243.2z M373.9,243.2h7v7h-7V243.2z
	 M381.2,243.2h7v7h-7V243.2z M388.4,243.2h7v7h-7V243.2z M395.7,243.2h7v7h-7V243.2z M403,243.2h7v7h-7V243.2z M410.2,243.2h7v7h-7
	V243.2z M453.8,243.2h7v7h-7V243.2z M461,243.2h7v7h-7V243.2z M468.3,243.2h7v7h-7V243.2z M475.6,243.2h7v7h-7V243.2z M482.8,243.2
	h7v7h-7V243.2z M490.1,243.2h7v7h-7V243.2z M497.3,243.2h7v7h-7V243.2z M504.6,243.2h7v7h-7V243.2z M511.9,243.2h7v7h-7V243.2z
	 M519.1,243.2h7v7h-7V243.2z M526.4,243.2h7v7h-7V243.2z M533.6,243.2h7v7h-7V243.2z M540.9,243.2h7v7h-7V243.2z M548.2,243.2h7v7
	h-7V243.2z M613.5,243.2h7v7h-7V243.2z M620.8,243.2h7v7h-7V243.2z M628,243.2h7v7h-7V243.2z M635.3,243.2h7v7h-7V243.2z
	 M642.5,243.2h7v7h-7V243.2z M649.8,243.2h7v7h-7V243.2z M657.1,243.2h7v7h-7V243.2z M664.3,243.2h7v7h-7V243.2z M744.2,243.2h7v7
	h-7V243.2z M751.4,243.2h7v7h-7V243.2z M758.7,243.2h7v7h-7V243.2z M766,243.2h7v7h-7V243.2z M802.3,243.2h7v7h-7V243.2z
	 M809.5,243.2h7v7h-7V243.2z M816.8,243.2h7v7h-7V243.2z M824,243.2h7v7h-7V243.2z M831.3,243.2h7v7h-7V243.2z M838.6,243.2h7v7h-7
	V243.2z M69,250.4h7v7h-7V250.4z M76.3,250.4h7v7h-7V250.4z M83.5,250.4h7v7h-7V250.4z M90.8,250.4h7v7h-7V250.4z M98,250.4h7v7h-7
	V250.4z M105.3,250.4h7v7h-7V250.4z M112.6,250.4h7v7h-7V250.4z M134.3,250.4h7v7h-7V250.4z M439.3,250.4h7v7h-7V250.4z
	 M446.5,250.4h7v7h-7V250.4z M453.8,250.4h7v7h-7V250.4z M461,250.4h7v7h-7V250.4z M468.3,250.4h7v7h-7V250.4z M475.6,250.4h7v7h-7
	V250.4z M482.8,250.4h7v7h-7V250.4z M490.1,250.4h7v7h-7V250.4z M497.3,250.4h7v7h-7V250.4z M504.6,250.4h7v7h-7V250.4z
	 M511.9,250.4h7v7h-7V250.4z M519.1,250.4h7v7h-7V250.4z M533.6,250.4h7v7h-7V250.4z M540.9,250.4h7v7h-7V250.4z M548.2,250.4h7v7
	h-7V250.4z M613.5,250.4h7v7h-7V250.4z M620.8,250.4h7v7h-7V250.4z M628,250.4h7v7h-7V250.4z M635.3,250.4h7v7h-7V250.4z
	 M642.5,250.4h7v7h-7V250.4z M649.8,250.4h7v7h-7V250.4z M657.1,250.4h7v7h-7V250.4z M664.3,250.4h7v7h-7V250.4z M744.2,250.4h7v7
	h-7V250.4z M751.4,250.4h7v7h-7V250.4z M758.7,250.4h7v7h-7V250.4z M802.3,250.4h7v7h-7V250.4z M809.5,250.4h7v7h-7V250.4z
	 M816.8,250.4h7v7h-7V250.4z M824,250.4h7v7h-7V250.4z M831.3,250.4h7v7h-7V250.4z M838.6,250.4h7v7h-7V250.4z M61.7,257.7h7v7h-7
	V257.7z M69,257.7h7v7h-7V257.7z M76.3,257.7h7v7h-7V257.7z M83.5,257.7h7v7h-7V257.7z M90.8,257.7h7v7h-7V257.7z M98,257.7h7v7h-7
	V257.7z M105.3,257.7h7v7h-7V257.7z M127.1,257.7h7v7h-7V257.7z M134.3,257.7h7v7h-7V257.7z M439.3,257.7h7v7h-7V257.7z
	 M446.5,257.7h7v7h-7V257.7z M461,257.7h7v7h-7V257.7z M468.3,257.7h7v7h-7V257.7z M475.6,257.7h7v7h-7V257.7z M504.6,257.7h7v7h-7
	V257.7z M511.9,257.7h7v7h-7V257.7z M519.1,257.7h7v7h-7V257.7z M526.4,257.7h7v7h-7V257.7z M533.6,257.7h7v7h-7V257.7z
	 M540.9,257.7h7v7h-7V257.7z M548.2,257.7h7v7h-7V257.7z M606.2,257.7h7v7h-7V257.7z M613.5,257.7h7v7h-7V257.7z M620.8,257.7h7v7
	h-7V257.7z M628,257.7h7v7h-7V257.7z M635.3,257.7h7v7h-7V257.7z M642.5,257.7h7v7h-7V257.7z M649.8,257.7h7v7h-7V257.7z
	 M657.1,257.7h7v7h-7V257.7z M664.3,257.7h7v7h-7V257.7z M671.6,257.7h7v7h-7V257.7z M744.2,257.7h7v7h-7V257.7z M751.4,257.7h7v7
	h-7V257.7z M758.7,257.7h7v7h-7V257.7z M802.3,257.7h7v7h-7V257.7z M809.5,257.7h7v7h-7V257.7z M816.8,257.7h7v7h-7V257.7z
	 M824,257.7h7v7h-7V257.7z M831.3,257.7h7v7h-7V257.7z M838.6,257.7h7v7h-7V257.7z M61.7,265h7v7h-7V265z M69,265h7v7h-7V265z
	 M76.3,265h7v7h-7V265z M83.5,265h7v7h-7V265z M90.8,265h7v7h-7V265z M98,265h7v7h-7V265z M105.3,265h7v7h-7V265z M127.1,265h7v7h-7
	V265z M432,265h7v7h-7V265z M439.3,265h7v7h-7V265z M461,265h7v7h-7V265z M468.3,265h7v7h-7V265z M497.3,265h7v7h-7V265z M504.6,265
	h7v7h-7V265z M511.9,265h7v7h-7V265z M519.1,265h7v7h-7V265z M526.4,265h7v7h-7V265z M533.6,265h7v7h-7V265z M540.9,265h7v7h-7V265z
	 M548.2,265h7v7h-7V265z M606.2,265h7v7h-7V265z M613.5,265h7v7h-7V265z M620.8,265h7v7h-7V265z M628,265h7v7h-7V265z M635.3,265h7
	v7h-7V265z M642.5,265h7v7h-7V265z M649.8,265h7v7h-7V265z M657.1,265h7v7h-7V265z M664.3,265h7v7h-7V265z M671.6,265h7v7h-7V265z
	 M736.9,265h7v7h-7V265z M744.2,265h7v7h-7V265z M751.4,265h7v7h-7V265z M758.7,265h7v7h-7V265z M802.3,265h7v7h-7V265z M809.5,265
	h7v7h-7V265z M816.8,265h7v7h-7V265z M824,265h7v7h-7V265z M831.3,265h7v7h-7V265z M838.6,265h7v7h-7V265z M61.7,272.2h7v7h-7V272.2
	z M69,272.2h7v7h-7V272.2z M76.3,272.2h7v7h-7V272.2z M83.5,272.2h7v7h-7V272.2z M90.8,272.2h7v7h-7V272.2z M98,272.2h7v7h-7V272.2z
	 M119.8,272.2h7v7h-7V272.2z M403,272.2h7v7h-7V272.2z M432,272.2h7v7h-7V272.2z M439.3,272.2h7v7h-7V272.2z M446.5,272.2h7v7h-7
	V272.2z M453.8,272.2h7v7h-7V272.2z M461,272.2h7v7h-7V272.2z M468.3,272.2h7v7h-7V272.2z M490.1,272.2h7v7h-7V272.2z M504.6,272.2
	h7v7h-7V272.2z M511.9,272.2h7v7h-7V272.2z M519.1,272.2h7v7h-7V272.2z M526.4,272.2h7v7h-7V272.2z M533.6,272.2h7v7h-7V272.2z
	 M540.9,272.2h7v7h-7V272.2z M606.2,272.2h7v7h-7V272.2z M613.5,272.2h7v7h-7V272.2z M642.5,272.2h7v7h-7V272.2z M649.8,272.2h7v7
	h-7V272.2z M657.1,272.2h7v7h-7V272.2z M664.3,272.2h7v7h-7V272.2z M671.6,272.2h7v7h-7V272.2z M736.9,272.2h7v7h-7V272.2z
	 M744.2,272.2h7v7h-7V272.2z M751.4,272.2h7v7h-7V272.2z M795,272.2h7v7h-7V272.2z M802.3,272.2h7v7h-7V272.2z M809.5,272.2h7v7h-7
	V272.2z M816.8,272.2h7v7h-7V272.2z M824,272.2h7v7h-7V272.2z M831.3,272.2h7v7h-7V272.2z M61.7,279.5h7v7h-7V279.5z M54.5,279.5h7
	v7h-7V279.5z M69,279.5h7v7h-7V279.5z M76.3,279.5h7v7h-7V279.5z M83.5,279.5h7v7h-7V279.5z M119.8,279.5h7v7h-7V279.5z M432,279.5
	h7v7h-7V279.5z M439.3,279.5h7v7h-7V279.5z M446.5,279.5h7v7h-7V279.5z M453.8,279.5h7v7h-7V279.5z M461,279.5h7v7h-7V279.5z
	 M482.8,279.5h7v7h-7V279.5z M497.3,279.5h7v7h-7V279.5z M504.6,279.5h7v7h-7V279.5z M511.9,279.5h7v7h-7V279.5z M526.4,279.5h7v7
	h-7V279.5z M533.6,279.5h7v7h-7V279.5z M540.9,279.5h7v7h-7V279.5z M599,279.5h7v7h-7V279.5z M606.2,279.5h7v7h-7V279.5z
	 M613.5,279.5h7v7h-7V279.5z M620.8,279.5h7v7h-7V279.5z M628,279.5h7v7h-7V279.5z M635.3,279.5h7v7h-7V279.5z M642.5,279.5h7v7h-7
	V279.5z M649.8,279.5h7v7h-7V279.5z M657.1,279.5h7v7h-7V279.5z M664.3,279.5h7v7h-7V279.5z M671.6,279.5h7v7h-7V279.5z
	 M736.9,279.5h7v7h-7V279.5z M744.2,279.5h7v7h-7V279.5z M780.5,279.5h7v7h-7V279.5z M787.7,279.5h7v7h-7V279.5z M795,279.5h7v7h-7
	V279.5z M802.3,279.5h7v7h-7V279.5z M809.5,279.5h7v7h-7V279.5z M816.8,279.5h7v7h-7V279.5z M824,279.5h7v7h-7V279.5z M831.3,279.5
	h7v7h-7V279.5z M47.2,286.7h7v7h-7V286.7z M40,294h7v7h-7V294z M61.7,286.7h7v7h-7V286.7z M69,286.7h7v7h-7V286.7z M76.3,286.7h7v7
	h-7V286.7z M221.5,286.7h7v7h-7V286.7z M228.7,286.7h7v7h-7V286.7z M236,286.7h7v7h-7V286.7z M381.2,286.7h7v7h-7V286.7z
	 M424.7,286.7h7v7h-7V286.7z M432,286.7h7v7h-7V286.7z M439.3,286.7h7v7h-7V286.7z M446.5,286.7h7v7h-7V286.7z M453.8,286.7h7v7h-7
	V286.7z M461,286.7h7v7h-7V286.7z M468.3,286.7h7v7h-7V286.7z M490.1,286.7h7v7h-7V286.7z M497.3,286.7h7v7h-7V286.7z M504.6,286.7
	h7v7h-7V286.7z M511.9,286.7h7v7h-7V286.7z M526.4,286.7h7v7h-7V286.7z M533.6,286.7h7v7h-7V286.7z M599,286.7h7v7h-7V286.7z
	 M606.2,286.7h7v7h-7V286.7z M613.5,286.7h7v7h-7V286.7z M620.8,286.7h7v7h-7V286.7z M628,286.7h7v7h-7V286.7z M635.3,286.7h7v7h-7
	V286.7z M642.5,286.7h7v7h-7V286.7z M649.8,286.7h7v7h-7V286.7z M657.1,286.7h7v7h-7V286.7z M664.3,286.7h7v7h-7V286.7z
	 M671.6,286.7h7v7h-7V286.7z M715.1,286.7h7v7h-7V286.7z M722.4,286.7h7v7h-7V286.7z M766,286.7h7v7h-7V286.7z M773.2,286.7h7v7h-7
	V286.7z M780.5,286.7h7v7h-7V286.7z M787.7,286.7h7v7h-7V286.7z M795,286.7h7v7h-7V286.7z M802.3,286.7h7v7h-7V286.7z M809.5,286.7
	h7v7h-7V286.7z M816.8,286.7h7v7h-7V286.7z M824,286.7h7v7h-7V286.7z M831.3,286.7h7v7h-7V286.7z M838.6,286.7h7v7h-7V286.7z
	 M112.6,294h7v7h-7V294z M214.2,294h7v7h-7V294z M221.5,294h7v7h-7V294z M373.9,294h7v7h-7V294z M410.2,294h7v7h-7V294z M424.7,294
	h7v7h-7V294z M432,294h7v7h-7V294z M453.8,294h7v7h-7V294z M461,294h7v7h-7V294z M468.3,294h7v7h-7V294z M475.6,294h7v7h-7V294z
	 M482.8,294h7v7h-7V294z M490.1,294h7v7h-7V294z M497.3,294h7v7h-7V294z M504.6,294h7v7h-7V294z M511.9,294h7v7h-7V294z M519.1,294
	h7v7h-7V294z M526.4,294h7v7h-7V294z M569.9,294h7v7h-7V294z M577.2,294h7v7h-7V294z M584.5,294h7v7h-7V294z M591.7,294h7v7h-7V294z
	 M599,294h7v7h-7V294z M606.2,294h7v7h-7V294z M613.5,294h7v7h-7V294z M620.8,294h7v7h-7V294z M628,294h7v7h-7V294z M635.3,294h7v7
	h-7V294z M642.5,294h7v7h-7V294z M649.8,294h7v7h-7V294z M657.1,294h7v7h-7V294z M664.3,294h7v7h-7V294z M671.6,294h7v7h-7V294z
	 M678.8,294h7v7h-7V294z M686.1,294h7v7h-7V294z M693.4,294h7v7h-7V294z M700.6,294h7v7h-7V294z M707.9,294h7v7h-7V294z M715.1,294
	h7v7h-7V294z M751.4,294h7v7h-7V294z M758.7,294h7v7h-7V294z M766,294h7v7h-7V294z M773.2,294h7v7h-7V294z M780.5,294h7v7h-7V294z
	 M787.7,294h7v7h-7V294z M795,294h7v7h-7V294z M802.3,294h7v7h-7V294z M809.5,294h7v7h-7V294z M816.8,294h7v7h-7V294z M824,294h7v7
	h-7V294z M831.3,294h7v7h-7V294z M838.6,294h7v7h-7V294z M40,301.3h7v7h-7V301.3z M105.3,301.3h7v7h-7V301.3z M112.6,301.3h7v7h-7
	V301.3z M119.8,301.3h7v7h-7V301.3z M127.1,301.3h7v7h-7V301.3z M359.4,301.3h7v7h-7V301.3z M424.7,301.3h7v7h-7V301.3z M432,301.3
	h7v7h-7V301.3z M453.8,301.3h7v7h-7V301.3z M461,301.3h7v7h-7V301.3z M468.3,301.3h7v7h-7V301.3z M475.6,301.3h7v7h-7V301.3z
	 M482.8,301.3h7v7h-7V301.3z M490.1,301.3h7v7h-7V301.3z M497.3,301.3h7v7h-7V301.3z M504.6,301.3h7v7h-7V301.3z M511.9,301.3h7v7
	h-7V301.3z M519.1,301.3h7v7h-7V301.3z M526.4,301.3h7v7h-7V301.3z M555.4,301.3h7v7h-7V301.3z M562.7,301.3h7v7h-7V301.3z
	 M577.2,301.3h7v7h-7V301.3z M584.5,301.3h7v7h-7V301.3z M591.7,301.3h7v7h-7V301.3z M599,301.3h7v7h-7V301.3z M606.2,301.3h7v7h-7
	V301.3z M613.5,301.3h7v7h-7V301.3z M620.8,301.3h7v7h-7V301.3z M628,301.3h7v7h-7V301.3z M635.3,301.3h7v7h-7V301.3z M642.5,301.3
	h7v7h-7V301.3z M649.8,301.3h7v7h-7V301.3z M657.1,301.3h7v7h-7V301.3z M664.3,301.3h7v7h-7V301.3z M671.6,301.3h7v7h-7V301.3z
	 M678.8,301.3h7v7h-7V301.3z M686.1,301.3h7v7h-7V301.3z M693.4,301.3h7v7h-7V301.3z M700.6,301.3h7v7h-7V301.3z M707.9,301.3h7v7
	h-7V301.3z M744.2,301.3h7v7h-7V301.3z M751.4,301.3h7v7h-7V301.3z M758.7,301.3h7v7h-7V301.3z M766,301.3h7v7h-7V301.3z
	 M773.2,301.3h7v7h-7V301.3z M780.5,301.3h7v7h-7V301.3z M787.7,301.3h7v7h-7V301.3z M795,301.3h7v7h-7V301.3z M802.3,301.3h7v7h-7
	V301.3z M809.5,301.3h7v7h-7V301.3z M816.8,301.3h7v7h-7V301.3z M824,301.3h7v7h-7V301.3z M831.3,301.3h7v7h-7V301.3z M40,308.5h7v7
	h-7V308.5z M105.3,308.5h7v7h-7V308.5z M112.6,308.5h7v7h-7V308.5z M119.8,308.5h7v7h-7V308.5z M127.1,308.5h7v7h-7V308.5z
	 M134.3,308.5h7v7h-7V308.5z M141.6,308.5h7v7h-7V308.5z M148.9,308.5h7v7h-7V308.5z M156.1,308.5h7v7h-7V308.5z M344.9,308.5h7v7
	h-7V308.5z M424.7,308.5h7v7h-7V308.5z M432,308.5h7v7h-7V308.5z M439.3,308.5h7v7h-7V308.5z M446.5,308.5h7v7h-7V308.5z
	 M453.8,308.5h7v7h-7V308.5z M461,308.5h7v7h-7V308.5z M468.3,308.5h7v7h-7V308.5z M475.6,308.5h7v7h-7V308.5z M482.8,308.5h7v7h-7
	V308.5z M497.3,308.5h7v7h-7V308.5z M504.6,308.5h7v7h-7V308.5z M511.9,308.5h7v7h-7V308.5z M569.9,308.5h7v7h-7V308.5z
	 M577.2,308.5h7v7h-7V308.5z M584.5,308.5h7v7h-7V308.5z M591.7,308.5h7v7h-7V308.5z M599,308.5h7v7h-7V308.5z M606.2,308.5h7v7h-7
	V308.5z M613.5,308.5h7v7h-7V308.5z M620.8,308.5h7v7h-7V308.5z M628,308.5h7v7h-7V308.5z M635.3,308.5h7v7h-7V308.5z M642.5,308.5
	h7v7h-7V308.5z M649.8,308.5h7v7h-7V308.5z M657.1,308.5h7v7h-7V308.5z M664.3,308.5h7v7h-7V308.5z M671.6,308.5h7v7h-7V308.5z
	 M678.8,308.5h7v7h-7V308.5z M686.1,308.5h7v7h-7V308.5z M693.4,308.5h7v7h-7V308.5z M700.6,308.5h7v7h-7V308.5z M736.9,308.5h7v7
	h-7V308.5z M744.2,308.5h7v7h-7V308.5z M751.4,308.5h7v7h-7V308.5z M758.7,308.5h7v7h-7V308.5z M766,308.5h7v7h-7V308.5z
	 M773.2,308.5h7v7h-7V308.5z M780.5,308.5h7v7h-7V308.5z M787.7,308.5h7v7h-7V308.5z M795,308.5h7v7h-7V308.5z M802.3,308.5h7v7h-7
	V308.5z M809.5,308.5h7v7h-7V308.5z M816.8,308.5h7v7h-7V308.5z M824,308.5h7v7h-7V308.5z M831.3,308.5h7v7h-7V308.5z M32.7,315.8h7
	v7h-7V315.8z M40,315.8h7v7h-7V315.8z M112.6,315.8h7v7h-7V315.8z M119.8,315.8h7v7h-7V315.8z M127.1,315.8h7v7h-7V315.8z
	 M134.3,315.8h7v7h-7V315.8z M141.6,315.8h7v7h-7V315.8z M148.9,315.8h7v7h-7V315.8z M156.1,315.8h7v7h-7V315.8z M163.4,315.8h7v7
	h-7V315.8z M170.6,315.8h7v7h-7V315.8z M177.9,315.8h7v7h-7V315.8z M185.2,315.8h7v7h-7V315.8z M192.4,315.8h7v7h-7V315.8z
	 M199.7,315.8h7v7h-7V315.8z M424.7,315.8h7v7h-7V315.8z M432,315.8h7v7h-7V315.8z M439.3,315.8h7v7h-7V315.8z M446.5,315.8h7v7h-7
	V315.8z M453.8,315.8h7v7h-7V315.8z M461,315.8h7v7h-7V315.8z M468.3,315.8h7v7h-7V315.8z M475.6,315.8h7v7h-7V315.8z M482.8,315.8
	h7v7h-7V315.8z M490.1,315.8h7v7h-7V315.8z M497.3,315.8h7v7h-7V315.8z M504.6,315.8h7v7h-7V315.8z M591.7,315.8h7v7h-7V315.8z
	 M599,315.8h7v7h-7V315.8z M606.2,315.8h7v7h-7V315.8z M613.5,315.8h7v7h-7V315.8z M620.8,315.8h7v7h-7V315.8z M628,315.8h7v7h-7
	V315.8z M635.3,315.8h7v7h-7V315.8z M642.5,315.8h7v7h-7V315.8z M649.8,315.8h7v7h-7V315.8z M657.1,315.8h7v7h-7V315.8z
	 M664.3,315.8h7v7h-7V315.8z M671.6,315.8h7v7h-7V315.8z M678.8,315.8h7v7h-7V315.8z M686.1,315.8h7v7h-7V315.8z M693.4,315.8h7v7
	h-7V315.8z M722.4,315.8h7v7h-7V315.8z M729.7,315.8h7v7h-7V315.8z M736.9,315.8h7v7h-7V315.8z M744.2,315.8h7v7h-7V315.8z
	 M751.4,315.8h7v7h-7V315.8z M758.7,315.8h7v7h-7V315.8z M766,315.8h7v7h-7V315.8z M773.2,315.8h7v7h-7V315.8z M780.5,315.8h7v7h-7
	V315.8z M787.7,315.8h7v7h-7V315.8z M795,315.8h7v7h-7V315.8z M802.3,315.8h7v7h-7V315.8z M809.5,315.8h7v7h-7V315.8z M816.8,315.8
	h7v7h-7V315.8z M824,315.8h7v7h-7V315.8z M32.7,323h7v7h-7V323z M40,323h7v7h-7V323z M47.2,323h7v7h-7V323z M54.5,323h7v7h-7V323z
	 M119.8,323h7v7h-7V323z M127.1,323h7v7h-7V323z M134.3,323h7v7h-7V323z M141.6,323h7v7h-7V323z M148.9,323h7v7h-7V323z M156.1,323
	h7v7h-7V323z M163.4,323h7v7h-7V323z M170.6,323h7v7h-7V323z M177.9,323h7v7h-7V323z M185.2,323h7v7h-7V323z M192.4,323h7v7h-7V323z
	 M199.7,323h7v7h-7V323z M206.9,323h7v7h-7V323z M214.2,323h7v7h-7V323z M221.5,323h7v7h-7V323z M228.7,323h7v7h-7V323z M236,323h7
	v7h-7V323z M243.2,323h7v7h-7V323z M250.5,323h7v7h-7V323z M257.8,323h7v7h-7V323z M265,323h7v7h-7V323z M272.3,323h7v7h-7V323z
	 M279.5,323h7v7h-7V323z M286.8,323h7v7h-7V323z M294.1,323h7v7h-7V323z M301.3,323h7v7h-7V323z M308.6,323h7v7h-7V323z M315.8,323
	h7v7h-7V323z M323.1,323h7v7h-7V323z M330.4,323h7v7h-7V323z M432,323h7v7h-7V323z M439.3,323h7v7h-7V323z M446.5,323h7v7h-7V323z
	 M453.8,323h7v7h-7V323z M461,323h7v7h-7V323z M468.3,323h7v7h-7V323z M475.6,323h7v7h-7V323z M482.8,323h7v7h-7V323z M490.1,323h7
	v7h-7V323z M497.3,323h7v7h-7V323z M591.7,323h7v7h-7V323z M599,323h7v7h-7V323z M606.2,323h7v7h-7V323z M613.5,323h7v7h-7V323z
	 M620.8,323h7v7h-7V323z M628,323h7v7h-7V323z M635.3,323h7v7h-7V323z M642.5,323h7v7h-7V323z M649.8,323h7v7h-7V323z M657.1,323h7
	v7h-7V323z M664.3,323h7v7h-7V323z M671.6,323h7v7h-7V323z M678.8,323h7v7h-7V323z M715.1,323h7v7h-7V323z M722.4,323h7v7h-7V323z
	 M729.7,323h7v7h-7V323z M736.9,323h7v7h-7V323z M744.2,323h7v7h-7V323z M751.4,323h7v7h-7V323z M758.7,323h7v7h-7V323z M766,323h7
	v7h-7V323z M773.2,323h7v7h-7V323z M780.5,323h7v7h-7V323z M787.7,323h7v7h-7V323z M25.4,330.3h7v7h-7V330.3z M32.7,330.3h7v7h-7
	V330.3z M40,330.3h7v7h-7V330.3z M47.2,330.3h7v7h-7V330.3z M54.5,330.3h7v7h-7V330.3z M61.7,330.3h7v7h-7V330.3z M156.1,330.3h7v7
	h-7V330.3z M163.4,330.3h7v7h-7V330.3z M170.6,330.3h7v7h-7V330.3z M177.9,330.3h7v7h-7V330.3z M185.2,330.3h7v7h-7V330.3z
	 M192.4,330.3h7v7h-7V330.3z M199.7,330.3h7v7h-7V330.3z M206.9,330.3h7v7h-7V330.3z M214.2,330.3h7v7h-7V330.3z M221.5,330.3h7v7
	h-7V330.3z M228.7,330.3h7v7h-7V330.3z M236,330.3h7v7h-7V330.3z M243.2,330.3h7v7h-7V330.3z M250.5,330.3h7v7h-7V330.3z
	 M257.8,330.3h7v7h-7V330.3z M265,330.3h7v7h-7V330.3z M272.3,330.3h7v7h-7V330.3z M279.5,330.3h7v7h-7V330.3z M286.8,330.3h7v7h-7
	V330.3z M294.1,330.3h7v7h-7V330.3z M301.3,330.3h7v7h-7V330.3z M308.6,330.3h7v7h-7V330.3z M315.8,330.3h7v7h-7V330.3z
	 M410.2,330.3h7v7h-7V330.3z M417.5,330.3h7v7h-7V330.3z M432,330.3h7v7h-7V330.3z M439.3,330.3h7v7h-7V330.3z M446.5,330.3h7v7h-7
	V330.3z M453.8,330.3h7v7h-7V330.3z M461,330.3h7v7h-7V330.3z M468.3,330.3h7v7h-7V330.3z M475.6,330.3h7v7h-7V330.3z M482.8,330.3
	h7v7h-7V330.3z M591.7,330.3h7v7h-7V330.3z M599,330.3h7v7h-7V330.3z M606.2,330.3h7v7h-7V330.3z M613.5,330.3h7v7h-7V330.3z
	 M620.8,330.3h7v7h-7V330.3z M628,330.3h7v7h-7V330.3z M635.3,330.3h7v7h-7V330.3z M642.5,330.3h7v7h-7V330.3z M649.8,330.3h7v7h-7
	V330.3z M657.1,330.3h7v7h-7V330.3z M664.3,330.3h7v7h-7V330.3z M671.6,330.3h7v7h-7V330.3z M678.8,330.3h7v7h-7V330.3z
	 M707.9,330.3h7v7h-7V330.3z M715.1,330.3h7v7h-7V330.3z M722.4,330.3h7v7h-7V330.3z M729.7,330.3h7v7h-7V330.3z M736.9,330.3h7v7
	h-7V330.3z M744.2,330.3h7v7h-7V330.3z M751.4,330.3h7v7h-7V330.3z M758.7,330.3h7v7h-7V330.3z M766,330.3h7v7h-7V330.3z
	 M773.2,330.3h7v7h-7V330.3z M780.5,330.3h7v7h-7V330.3z M32.7,337.6h7v7h-7V337.6z M40,337.6h7v7h-7V337.6z M47.2,337.6h7v7h-7
	V337.6z M54.5,337.6h7v7h-7V337.6z M61.7,337.6h7v7h-7V337.6z M69,337.6h7v7h-7V337.6z M206.9,337.6h7v7h-7V337.6z M214.2,337.6h7v7
	h-7V337.6z M221.5,337.6h7v7h-7V337.6z M228.7,337.6h7v7h-7V337.6z M236,337.6h7v7h-7V337.6z M243.2,337.6h7v7h-7V337.6z
	 M250.5,337.6h7v7h-7V337.6z M257.8,337.6h7v7h-7V337.6z M265,337.6h7v7h-7V337.6z M272.3,337.6h7v7h-7V337.6z M417.5,337.6h7v7h-7
	V337.6z M432,337.6h7v7h-7V337.6z M439.3,337.6h7v7h-7V337.6z M584.5,337.6h7v7h-7V337.6z M591.7,337.6h7v7h-7V337.6z M599,337.6h7
	v7h-7V337.6z M606.2,337.6h7v7h-7V337.6z M613.5,337.6h7v7h-7V337.6z M620.8,337.6h7v7h-7V337.6z M628,337.6h7v7h-7V337.6z
	 M635.3,337.6h7v7h-7V337.6z M642.5,337.6h7v7h-7V337.6z M649.8,337.6h7v7h-7V337.6z M657.1,337.6h7v7h-7V337.6z M664.3,337.6h7v7
	h-7V337.6z M671.6,337.6h7v7h-7V337.6z M678.8,337.6h7v7h-7V337.6z M693.4,337.6h7v7h-7V337.6z M700.6,337.6h7v7h-7V337.6z
	 M707.9,337.6h7v7h-7V337.6z M715.1,337.6h7v7h-7V337.6z M722.4,337.6h7v7h-7V337.6z M729.7,337.6h7v7h-7V337.6z M736.9,337.6h7v7
	h-7V337.6z M744.2,337.6h7v7h-7V337.6z M751.4,337.6h7v7h-7V337.6z M758.7,337.6h7v7h-7V337.6z M766,337.6h7v7h-7V337.6z
	 M773.2,337.6h7v7h-7V337.6z M32.7,344.8h7v7h-7V344.8z M40,344.8h7v7h-7V344.8z M47.2,344.8h7v7h-7V344.8z M54.5,344.8h7v7h-7
	V344.8z M61.7,344.8h7v7h-7V344.8z M69,344.8h7v7h-7V344.8z M76.3,344.8h7v7h-7V344.8z M584.5,344.8h7v7h-7V344.8z M591.7,344.8h7v7
	h-7V344.8z M599,344.8h7v7h-7V344.8z M606.2,344.8h7v7h-7V344.8z M613.5,344.8h7v7h-7V344.8z M628,344.8h7v7h-7V344.8z M635.3,344.8
	h7v7h-7V344.8z M642.5,344.8h7v7h-7V344.8z M649.8,344.8h7v7h-7V344.8z M657.1,344.8h7v7h-7V344.8z M664.3,344.8h7v7h-7V344.8z
	 M671.6,344.8h7v7h-7V344.8z M678.8,344.8h7v7h-7V344.8z M686.1,344.8h7v7h-7V344.8z M693.4,344.8h7v7h-7V344.8z M700.6,344.8h7v7
	h-7V344.8z M707.9,344.8h7v7h-7V344.8z M715.1,344.8h7v7h-7V344.8z M722.4,344.8h7v7h-7V344.8z M729.7,344.8h7v7h-7V344.8z
	 M736.9,344.8h7v7h-7V344.8z M744.2,344.8h7v7h-7V344.8z M751.4,344.8h7v7h-7V344.8z M758.7,344.8h7v7h-7V344.8z M32.7,352.1h7v7h-7
	V352.1z M40,352.1h7v7h-7V352.1z M47.2,352.1h7v7h-7V352.1z M54.5,352.1h7v7h-7V352.1z M61.7,352.1h7v7h-7V352.1z M69,352.1h7v7h-7
	V352.1z M76.3,352.1h7v7h-7V352.1z M83.5,352.1h7v7h-7V352.1z M90.8,352.1h7v7h-7V352.1z M569.9,352.1h7v7h-7V352.1z M577.2,352.1h7
	v7h-7V352.1z M584.5,352.1h7v7h-7V352.1z M591.7,352.1h7v7h-7V352.1z M599,352.1h7v7h-7V352.1z M606.2,352.1h7v7h-7V352.1z
	 M613.5,352.1h7v7h-7V352.1z M620.8,352.1h7v7h-7V352.1z M628,352.1h7v7h-7V352.1z M635.3,352.1h7v7h-7V352.1z M649.8,352.1h7v7h-7
	V352.1z M657.1,352.1h7v7h-7V352.1z M664.3,352.1h7v7h-7V352.1z M671.6,352.1h7v7h-7V352.1z M678.8,352.1h7v7h-7V352.1z
	 M686.1,352.1h7v7h-7V352.1z M693.4,352.1h7v7h-7V352.1z M700.6,352.1h7v7h-7V352.1z M707.9,352.1h7v7h-7V352.1z M715.1,352.1h7v7
	h-7V352.1z M722.4,352.1h7v7h-7V352.1z M729.7,352.1h7v7h-7V352.1z M736.9,352.1h7v7h-7V352.1z M744.2,352.1h7v7h-7V352.1z
	 M751.4,352.1h7v7h-7V352.1z M32.7,359.3h7v7h-7V359.3z M40,359.3h7v7h-7V359.3z M47.2,359.3h7v7h-7V359.3z M54.5,359.3h7v7h-7
	V359.3z M61.7,359.3h7v7h-7V359.3z M69,359.3h7v7h-7V359.3z M76.3,359.3h7v7h-7V359.3z M90.8,359.3h7v7h-7V359.3z M98,359.3h7v7h-7
	V359.3z M105.3,359.3h7v7h-7V359.3z M112.6,359.3h7v7h-7V359.3z M555.4,359.3h7v7h-7V359.3z M562.7,359.3h7v7h-7V359.3z
	 M569.9,359.3h7v7h-7V359.3z M584.5,359.3h7v7h-7V359.3z M591.7,359.3h7v7h-7V359.3z M599,359.3h7v7h-7V359.3z M606.2,359.3h7v7h-7
	V359.3z M613.5,359.3h7v7h-7V359.3z M620.8,359.3h7v7h-7V359.3z M628,359.3h7v7h-7V359.3z M635.3,359.3h7v7h-7V359.3z M642.5,359.3
	h7v7h-7V359.3z M649.8,359.3h7v7h-7V359.3z M657.1,359.3h7v7h-7V359.3z M664.3,359.3h7v7h-7V359.3z M671.6,359.3h7v7h-7V359.3z
	 M678.8,359.3h7v7h-7V359.3z M686.1,359.3h7v7h-7V359.3z M693.4,359.3h7v7h-7V359.3z M700.6,359.3h7v7h-7V359.3z M707.9,359.3h7v7
	h-7V359.3z M715.1,359.3h7v7h-7V359.3z M722.4,359.3h7v7h-7V359.3z M729.7,359.3h7v7h-7V359.3z M736.9,359.3h7v7h-7V359.3z
	 M744.2,359.3h7v7h-7V359.3z M32.7,366.6h7v7h-7V366.6z M40,366.6h7v7h-7V366.6z M47.2,366.6h7v7h-7V366.6z M54.5,366.6h7v7h-7
	V366.6z M61.7,366.6h7v7h-7V366.6z M69,366.6h7v7h-7V366.6z M76.3,366.6h7v7h-7V366.6z M83.5,366.6h7v7h-7V366.6z M90.8,366.6h7v7
	h-7V366.6z M112.6,366.6h7v7h-7V366.6z M119.8,366.6h7v7h-7V366.6z M127.1,366.6h7v7h-7V366.6z M134.3,366.6h7v7h-7V366.6z
	 M141.6,366.6h7v7h-7V366.6z M148.9,366.6h7v7h-7V366.6z M417.5,366.6h7v7h-7V366.6z M424.7,366.6h7v7h-7V366.6z M432,366.6h7v7h-7
	V366.6z M439.3,366.6h7v7h-7V366.6z M446.5,366.6h7v7h-7V366.6z M453.8,366.6h7v7h-7V366.6z M461,366.6h7v7h-7V366.6z M468.3,366.6
	h7v7h-7V366.6z M475.6,366.6h7v7h-7V366.6z M482.8,366.6h7v7h-7V366.6z M490.1,366.6h7v7h-7V366.6z M540.9,366.6h7v7h-7V366.6z
	 M548.2,366.6h7v7h-7V366.6z M555.4,366.6h7v7h-7V366.6z M569.9,366.6h7v7h-7V366.6z M577.2,366.6h7v7h-7V366.6z M584.5,366.6h7v7
	h-7V366.6z M591.7,366.6h7v7h-7V366.6z M599,366.6h7v7h-7V366.6z M606.2,366.6h7v7h-7V366.6z M613.5,366.6h7v7h-7V366.6z
	 M620.8,366.6h7v7h-7V366.6z M628,366.6h7v7h-7V366.6z M635.3,366.6h7v7h-7V366.6z M642.5,366.6h7v7h-7V366.6z M649.8,366.6h7v7h-7
	V366.6z M657.1,366.6h7v7h-7V366.6z M664.3,366.6h7v7h-7V366.6z M671.6,366.6h7v7h-7V366.6z M678.8,366.6h7v7h-7V366.6z
	 M686.1,366.6h7v7h-7V366.6z M693.4,366.6h7v7h-7V366.6z M700.6,366.6h7v7h-7V366.6z M707.9,366.6h7v7h-7V366.6z M715.1,366.6h7v7
	h-7V366.6z M722.4,366.6h7v7h-7V366.6z M729.7,366.6h7v7h-7V366.6z M736.9,366.6h7v7h-7V366.6z M32.7,373.9h7v7h-7V373.9z M40,373.9
	h7v7h-7V373.9z M47.2,373.9h7v7h-7V373.9z M54.5,373.9h7v7h-7V373.9z M61.7,373.9h7v7h-7V373.9z M69,373.9h7v7h-7V373.9z
	 M76.3,373.9h7v7h-7V373.9z M83.5,373.9h7v7h-7V373.9z M148.9,373.9h7v7h-7V373.9z M156.1,373.9h7v7h-7V373.9z M163.4,373.9h7v7h-7
	V373.9z M170.6,373.9h7v7h-7V373.9z M177.9,373.9h7v7h-7V373.9z M185.2,373.9h7v7h-7V373.9z M192.4,373.9h7v7h-7V373.9z
	 M199.7,373.9h7v7h-7V373.9z M352.1,373.9h7v7h-7V373.9z M359.4,373.9h7v7h-7V373.9z M366.7,373.9h7v7h-7V373.9z M373.9,373.9h7v7
	h-7V373.9z M381.2,373.9h7v7h-7V373.9z M388.4,373.9h7v7h-7V373.9z M395.7,373.9h7v7h-7V373.9z M403,373.9h7v7h-7V373.9z
	 M410.2,373.9h7v7h-7V373.9z M417.5,373.9h7v7h-7V373.9z M424.7,373.9h7v7h-7V373.9z M432,373.9h7v7h-7V373.9z M439.3,373.9h7v7h-7
	V373.9z M446.5,373.9h7v7h-7V373.9z M453.8,373.9h7v7h-7V373.9z M461,373.9h7v7h-7V373.9z M468.3,373.9h7v7h-7V373.9z M475.6,373.9
	h7v7h-7V373.9z M482.8,373.9h7v7h-7V373.9z M490.1,373.9h7v7h-7V373.9z M497.3,373.9h7v7h-7V373.9z M504.6,373.9h7v7h-7V373.9z
	 M526.4,373.9h7v7h-7V373.9z M533.6,373.9h7v7h-7V373.9z M540.9,373.9h7v7h-7V373.9z M569.9,373.9h7v7h-7V373.9z M577.2,373.9h7v7
	h-7V373.9z M584.5,373.9h7v7h-7V373.9z M591.7,373.9h7v7h-7V373.9z M599,373.9h7v7h-7V373.9z M606.2,373.9h7v7h-7V373.9z
	 M613.5,373.9h7v7h-7V373.9z M620.8,373.9h7v7h-7V373.9z M628,373.9h7v7h-7V373.9z M635.3,373.9h7v7h-7V373.9z M642.5,373.9h7v7h-7
	V373.9z M649.8,373.9h7v7h-7V373.9z M657.1,373.9h7v7h-7V373.9z M664.3,373.9h7v7h-7V373.9z M671.6,373.9h7v7h-7V373.9z
	 M678.8,373.9h7v7h-7V373.9z M686.1,373.9h7v7h-7V373.9z M693.4,373.9h7v7h-7V373.9z M700.6,373.9h7v7h-7V373.9z M707.9,373.9h7v7
	h-7V373.9z M715.1,373.9h7v7h-7V373.9z M722.4,373.9h7v7h-7V373.9z M729.7,373.9h7v7h-7V373.9z M32.7,381.1h7v7h-7V381.1z M40,381.1
	h7v7h-7V381.1z M47.2,381.1h7v7h-7V381.1z M54.5,381.1h7v7h-7V381.1z M61.7,381.1h7v7h-7V381.1z M69,381.1h7v7h-7V381.1z
	 M76.3,381.1h7v7h-7V381.1z M83.5,381.1h7v7h-7V381.1z M98,381.1h7v7h-7V381.1z M199.7,381.1h7v7h-7V381.1z M206.9,381.1h7v7h-7
	V381.1z M214.2,381.1h7v7h-7V381.1z M221.5,381.1h7v7h-7V381.1z M228.7,381.1h7v7h-7V381.1z M236,381.1h7v7h-7V381.1z M243.2,381.1
	h7v7h-7V381.1z M250.5,381.1h7v7h-7V381.1z M257.8,381.1h7v7h-7V381.1z M265,381.1h7v7h-7V381.1z M272.3,381.1h7v7h-7V381.1z
	 M279.5,381.1h7v7h-7V381.1z M337.6,381.1h7v7h-7V381.1z M344.9,381.1h7v7h-7V381.1z M352.1,381.1h7v7h-7V381.1z M359.4,381.1h7v7
	h-7V381.1z M366.7,381.1h7v7h-7V381.1z M373.9,381.1h7v7h-7V381.1z M381.2,381.1h7v7h-7V381.1z M388.4,381.1h7v7h-7V381.1z
	 M395.7,381.1h7v7h-7V381.1z M403,381.1h7v7h-7V381.1z M410.2,381.1h7v7h-7V381.1z M417.5,381.1h7v7h-7V381.1z M424.7,381.1h7v7h-7
	V381.1z M432,381.1h7v7h-7V381.1z M439.3,381.1h7v7h-7V381.1z M446.5,381.1h7v7h-7V381.1z M453.8,381.1h7v7h-7V381.1z M461,381.1h7
	v7h-7V381.1z M468.3,381.1h7v7h-7V381.1z M475.6,381.1h7v7h-7V381.1z M482.8,381.1h7v7h-7V381.1z M490.1,381.1h7v7h-7V381.1z
	 M497.3,381.1h7v7h-7V381.1z M504.6,381.1h7v7h-7V381.1z M511.9,381.1h7v7h-7V381.1z M519.1,381.1h7v7h-7V381.1z M526.4,381.1h7v7
	h-7V381.1z M562.7,381.1h7v7h-7V381.1z M569.9,381.1h7v7h-7V381.1z M577.2,381.1h7v7h-7V381.1z M584.5,381.1h7v7h-7V381.1z
	 M591.7,381.1h7v7h-7V381.1z M599,381.1h7v7h-7V381.1z M606.2,381.1h7v7h-7V381.1z M613.5,381.1h7v7h-7V381.1z M620.8,381.1h7v7h-7
	V381.1z M628,381.1h7v7h-7V381.1z M635.3,381.1h7v7h-7V381.1z M642.5,381.1h7v7h-7V381.1z M649.8,381.1h7v7h-7V381.1z M657.1,381.1
	h7v7h-7V381.1z M664.3,381.1h7v7h-7V381.1z M671.6,381.1h7v7h-7V381.1z M678.8,381.1h7v7h-7V381.1z M686.1,381.1h7v7h-7V381.1z
	 M693.4,381.1h7v7h-7V381.1z M700.6,381.1h7v7h-7V381.1z M707.9,381.1h7v7h-7V381.1z M715.1,381.1h7v7h-7V381.1z M722.4,381.1h7v7
	h-7V381.1z M40,388.4h7v7h-7V388.4z M47.2,388.4h7v7h-7V388.4z M54.5,388.4h7v7h-7V388.4z M61.7,388.4h7v7h-7V388.4z M69,388.4h7v7
	h-7V388.4z M76.3,388.4h7v7h-7V388.4z M83.5,388.4h7v7h-7V388.4z M105.3,388.4h7v7h-7V388.4z M112.6,388.4h7v7h-7V388.4z
	 M119.8,388.4h7v7h-7V388.4z M127.1,388.4h7v7h-7V388.4z M134.3,388.4h7v7h-7V388.4z M265,388.4h7v7h-7V388.4z M272.3,388.4h7v7h-7
	V388.4z M279.5,388.4h7v7h-7V388.4z M286.8,388.4h7v7h-7V388.4z M294.1,388.4h7v7h-7V388.4z M301.3,388.4h7v7h-7V388.4z
	 M308.6,388.4h7v7h-7V388.4z M323.1,388.4h7v7h-7V388.4z M330.4,388.4h7v7h-7V388.4z M337.6,388.4h7v7h-7V388.4z M344.9,388.4h7v7
	h-7V388.4z M352.1,388.4h7v7h-7V388.4z M359.4,388.4h7v7h-7V388.4z M366.7,388.4h7v7h-7V388.4z M373.9,388.4h7v7h-7V388.4z
	 M381.2,388.4h7v7h-7V388.4z M388.4,388.4h7v7h-7V388.4z M395.7,388.4h7v7h-7V388.4z M403,388.4h7v7h-7V388.4z M410.2,388.4h7v7h-7
	V388.4z M417.5,388.4h7v7h-7V388.4z M424.7,388.4h7v7h-7V388.4z M432,388.4h7v7h-7V388.4z M439.3,388.4h7v7h-7V388.4z M446.5,388.4
	h7v7h-7V388.4z M453.8,388.4h7v7h-7V388.4z M461,388.4h7v7h-7V388.4z M468.3,388.4h7v7h-7V388.4z M475.6,388.4h7v7h-7V388.4z
	 M482.8,388.4h7v7h-7V388.4z M490.1,388.4h7v7h-7V388.4z M497.3,388.4h7v7h-7V388.4z M504.6,388.4h7v7h-7V388.4z M511.9,388.4h7v7
	h-7V388.4z M562.7,388.4h7v7h-7V388.4z M569.9,388.4h7v7h-7V388.4z M577.2,388.4h7v7h-7V388.4z M584.5,388.4h7v7h-7V388.4z
	 M591.7,388.4h7v7h-7V388.4z M599,388.4h7v7h-7V388.4z M606.2,388.4h7v7h-7V388.4z M613.5,388.4h7v7h-7V388.4z M620.8,388.4h7v7h-7
	V388.4z M628,388.4h7v7h-7V388.4z M635.3,388.4h7v7h-7V388.4z M642.5,388.4h7v7h-7V388.4z M649.8,388.4h7v7h-7V388.4z M657.1,388.4
	h7v7h-7V388.4z M664.3,388.4h7v7h-7V388.4z M671.6,388.4h7v7h-7V388.4z M678.8,388.4h7v7h-7V388.4z M686.1,388.4h7v7h-7V388.4z
	 M693.4,388.4h7v7h-7V388.4z M700.6,388.4h7v7h-7V388.4z M707.9,388.4h7v7h-7V388.4z M715.1,388.4h7v7h-7V388.4z M40,395.6h7v7h-7
	V395.6z M47.2,395.6h7v7h-7V395.6z M54.5,395.6h7v7h-7V395.6z M61.7,395.6h7v7h-7V395.6z M69,395.6h7v7h-7V395.6z M76.3,395.6h7v7
	h-7V395.6z M83.5,395.6h7v7h-7V395.6z M90.8,395.6h7v7h-7V395.6z M98,395.6h7v7h-7V395.6z M105.3,395.6h7v7h-7V395.6z M112.6,395.6
	h7v7h-7V395.6z M265,395.6h7v7h-7V395.6z M315.8,395.6h7v7h-7V395.6z M323.1,395.6h7v7h-7V395.6z M330.4,395.6h7v7h-7V395.6z
	 M337.6,395.6h7v7h-7V395.6z M344.9,395.6h7v7h-7V395.6z M352.1,395.6h7v7h-7V395.6z M359.4,395.6h7v7h-7V395.6z M366.7,395.6h7v7
	h-7V395.6z M373.9,395.6h7v7h-7V395.6z M381.2,395.6h7v7h-7V395.6z M388.4,395.6h7v7h-7V395.6z M395.7,395.6h7v7h-7V395.6z
	 M403,395.6h7v7h-7V395.6z M410.2,395.6h7v7h-7V395.6z M417.5,395.6h7v7h-7V395.6z M424.7,395.6h7v7h-7V395.6z M432,395.6h7v7h-7
	V395.6z M439.3,395.6h7v7h-7V395.6z M446.5,395.6h7v7h-7V395.6z M453.8,395.6h7v7h-7V395.6z M461,395.6h7v7h-7V395.6z M468.3,395.6
	h7v7h-7V395.6z M475.6,395.6h7v7h-7V395.6z M482.8,395.6h7v7h-7V395.6z M490.1,395.6h7v7h-7V395.6z M497.3,395.6h7v7h-7V395.6z
	 M504.6,395.6h7v7h-7V395.6z M511.9,395.6h7v7h-7V395.6z M562.7,395.6h7v7h-7V395.6z M569.9,395.6h7v7h-7V395.6z M577.2,395.6h7v7
	h-7V395.6z M584.5,395.6h7v7h-7V395.6z M591.7,395.6h7v7h-7V395.6z M599,395.6h7v7h-7V395.6z M606.2,395.6h7v7h-7V395.6z
	 M613.5,395.6h7v7h-7V395.6z M620.8,395.6h7v7h-7V395.6z M628,395.6h7v7h-7V395.6z M635.3,395.6h7v7h-7V395.6z M642.5,395.6h7v7h-7
	V395.6z M649.8,395.6h7v7h-7V395.6z M657.1,395.6h7v7h-7V395.6z M664.3,395.6h7v7h-7V395.6z M671.6,395.6h7v7h-7V395.6z
	 M678.8,395.6h7v7h-7V395.6z M686.1,395.6h7v7h-7V395.6z M693.4,395.6h7v7h-7V395.6z M700.6,395.6h7v7h-7V395.6z M40,402.9h7v7h-7
	V402.9z M47.2,402.9h7v7h-7V402.9z M54.5,402.9h7v7h-7V402.9z M61.7,402.9h7v7h-7V402.9z M69,402.9h7v7h-7V402.9z M76.3,402.9h7v7
	h-7V402.9z M83.5,402.9h7v7h-7V402.9z M90.8,402.9h7v7h-7V402.9z M98,402.9h7v7h-7V402.9z M105.3,402.9h7v7h-7V402.9z M112.6,402.9
	h7v7h-7V402.9z M119.8,402.9h7v7h-7V402.9z M127.1,402.9h7v7h-7V402.9z M134.3,402.9h7v7h-7V402.9z M141.6,402.9h7v7h-7V402.9z
	 M301.3,402.9h7v7h-7V402.9z M308.6,402.9h7v7h-7V402.9z M315.8,402.9h7v7h-7V402.9z M323.1,402.9h7v7h-7V402.9z M330.4,402.9h7v7
	h-7V402.9z M337.6,402.9h7v7h-7V402.9z M344.9,402.9h7v7h-7V402.9z M352.1,402.9h7v7h-7V402.9z M359.4,402.9h7v7h-7V402.9z
	 M366.7,402.9h7v7h-7V402.9z M373.9,402.9h7v7h-7V402.9z M381.2,402.9h7v7h-7V402.9z M388.4,402.9h7v7h-7V402.9z M395.7,402.9h7v7
	h-7V402.9z M403,402.9h7v7h-7V402.9z M410.2,402.9h7v7h-7V402.9z M417.5,402.9h7v7h-7V402.9z M424.7,402.9h7v7h-7V402.9z M432,402.9
	h7v7h-7V402.9z M439.3,402.9h7v7h-7V402.9z M446.5,402.9h7v7h-7V402.9z M453.8,402.9h7v7h-7V402.9z M461,402.9h7v7h-7V402.9z
	 M468.3,402.9h7v7h-7V402.9z M475.6,402.9h7v7h-7V402.9z M482.8,402.9h7v7h-7V402.9z M490.1,402.9h7v7h-7V402.9z M497.3,402.9h7v7
	h-7V402.9z M504.6,402.9h7v7h-7V402.9z M511.9,402.9h7v7h-7V402.9z M562.7,402.9h7v7h-7V402.9z M569.9,402.9h7v7h-7V402.9z
	 M577.2,402.9h7v7h-7V402.9z M584.5,402.9h7v7h-7V402.9z M591.7,402.9h7v7h-7V402.9z M599,402.9h7v7h-7V402.9z M606.2,402.9h7v7h-7
	V402.9z M613.5,402.9h7v7h-7V402.9z M620.8,402.9h7v7h-7V402.9z M628,402.9h7v7h-7V402.9z M635.3,402.9h7v7h-7V402.9z M642.5,402.9
	h7v7h-7V402.9z M649.8,402.9h7v7h-7V402.9z M657.1,402.9h7v7h-7V402.9z M664.3,402.9h7v7h-7V402.9z M671.6,402.9h7v7h-7V402.9z
	 M678.8,402.9h7v7h-7V402.9z M686.1,402.9h7v7h-7V402.9z M693.4,402.9h7v7h-7V402.9z M700.6,402.9h7v7h-7V402.9z M707.9,402.9h7v7
	h-7V402.9z M715.1,402.9h7v7h-7V402.9z M40,410.2h7v7h-7V410.2z M47.2,410.2h7v7h-7V410.2z M54.5,410.2h7v7h-7V410.2z M61.7,410.2h7
	v7h-7V410.2z M69,410.2h7v7h-7V410.2z M76.3,410.2h7v7h-7V410.2z M83.5,410.2h7v7h-7V410.2z M90.8,410.2h7v7h-7V410.2z M98,410.2h7
	v7h-7V410.2z M105.3,410.2h7v7h-7V410.2z M112.6,410.2h7v7h-7V410.2z M119.8,410.2h7v7h-7V410.2z M127.1,410.2h7v7h-7V410.2z
	 M134.3,410.2h7v7h-7V410.2z M141.6,410.2h7v7h-7V410.2z M148.9,410.2h7v7h-7V410.2z M156.1,410.2h7v7h-7V410.2z M163.4,410.2h7v7
	h-7V410.2z M170.6,410.2h7v7h-7V410.2z M177.9,410.2h7v7h-7V410.2z M185.2,410.2h7v7h-7V410.2z M301.3,410.2h7v7h-7V410.2z
	 M308.6,410.2h7v7h-7V410.2z M315.8,410.2h7v7h-7V410.2z M323.1,410.2h7v7h-7V410.2z M330.4,410.2h7v7h-7V410.2z M337.6,410.2h7v7
	h-7V410.2z M344.9,410.2h7v7h-7V410.2z M352.1,410.2h7v7h-7V410.2z M359.4,410.2h7v7h-7V410.2z M366.7,410.2h7v7h-7V410.2z
	 M373.9,410.2h7v7h-7V410.2z M381.2,410.2h7v7h-7V410.2z M388.4,410.2h7v7h-7V410.2z M395.7,410.2h7v7h-7V410.2z M403,410.2h7v7h-7
	V410.2z M410.2,410.2h7v7h-7V410.2z M417.5,410.2h7v7h-7V410.2z M424.7,410.2h7v7h-7V410.2z M432,410.2h7v7h-7V410.2z M439.3,410.2
	h7v7h-7V410.2z M446.5,410.2h7v7h-7V410.2z M453.8,410.2h7v7h-7V410.2z M461,410.2h7v7h-7V410.2z M468.3,410.2h7v7h-7V410.2z
	 M475.6,410.2h7v7h-7V410.2z M482.8,410.2h7v7h-7V410.2z M490.1,410.2h7v7h-7V410.2z M497.3,410.2h7v7h-7V410.2z M504.6,410.2h7v7
	h-7V410.2z M511.9,410.2h7v7h-7V410.2z M562.7,410.2h7v7h-7V410.2z M569.9,410.2h7v7h-7V410.2z M577.2,410.2h7v7h-7V410.2z
	 M584.5,410.2h7v7h-7V410.2z M591.7,410.2h7v7h-7V410.2z M599,410.2h7v7h-7V410.2z M606.2,410.2h7v7h-7V410.2z M613.5,410.2h7v7h-7
	V410.2z M620.8,410.2h7v7h-7V410.2z M628,410.2h7v7h-7V410.2z M635.3,410.2h7v7h-7V410.2z M642.5,410.2h7v7h-7V410.2z M649.8,410.2
	h7v7h-7V410.2z M657.1,410.2h7v7h-7V410.2z M664.3,410.2h7v7h-7V410.2z M671.6,410.2h7v7h-7V410.2z M678.8,410.2h7v7h-7V410.2z
	 M686.1,410.2h7v7h-7V410.2z M693.4,410.2h7v7h-7V410.2z M700.6,410.2h7v7h-7V410.2z M707.9,410.2h7v7h-7V410.2z M40,417.4h7v7h-7
	V417.4z M47.2,417.4h7v7h-7V417.4z M61.7,417.4h7v7h-7V417.4z M69,417.4h7v7h-7V417.4z M76.3,417.4h7v7h-7V417.4z M83.5,417.4h7v7
	h-7V417.4z M90.8,417.4h7v7h-7V417.4z M98,417.4h7v7h-7V417.4z M105.3,417.4h7v7h-7V417.4z M112.6,417.4h7v7h-7V417.4z M119.8,417.4
	h7v7h-7V417.4z M127.1,417.4h7v7h-7V417.4z M134.3,417.4h7v7h-7V417.4z M141.6,417.4h7v7h-7V417.4z M148.9,417.4h7v7h-7V417.4z
	 M156.1,417.4h7v7h-7V417.4z M163.4,417.4h7v7h-7V417.4z M170.6,417.4h7v7h-7V417.4z M177.9,417.4h7v7h-7V417.4z M185.2,417.4h7v7
	h-7V417.4z M192.4,417.4h7v7h-7V417.4z M199.7,417.4h7v7h-7V417.4z M206.9,417.4h7v7h-7V417.4z M214.2,417.4h7v7h-7V417.4z
	 M221.5,417.4h7v7h-7V417.4z M228.7,417.4h7v7h-7V417.4z M236,417.4h7v7h-7V417.4z M243.2,417.4h7v7h-7V417.4z M250.5,417.4h7v7h-7
	V417.4z M301.3,417.4h7v7h-7V417.4z M308.6,417.4h7v7h-7V417.4z M330.4,417.4h7v7h-7V417.4z M337.6,417.4h7v7h-7V417.4z
	 M344.9,417.4h7v7h-7V417.4z M352.1,417.4h7v7h-7V417.4z M359.4,417.4h7v7h-7V417.4z M366.7,417.4h7v7h-7V417.4z M373.9,417.4h7v7
	h-7V417.4z M381.2,417.4h7v7h-7V417.4z M388.4,417.4h7v7h-7V417.4z M395.7,417.4h7v7h-7V417.4z M403,417.4h7v7h-7V417.4z
	 M410.2,417.4h7v7h-7V417.4z M417.5,417.4h7v7h-7V417.4z M424.7,417.4h7v7h-7V417.4z M432,417.4h7v7h-7V417.4z M439.3,417.4h7v7h-7
	V417.4z M446.5,417.4h7v7h-7V417.4z M453.8,417.4h7v7h-7V417.4z M461,417.4h7v7h-7V417.4z M468.3,417.4h7v7h-7V417.4z M475.6,417.4
	h7v7h-7V417.4z M482.8,417.4h7v7h-7V417.4z M490.1,417.4h7v7h-7V417.4z M497.3,417.4h7v7h-7V417.4z M504.6,417.4h7v7h-7V417.4z
	 M511.9,417.4h7v7h-7V417.4z M519.1,417.4h7v7h-7V417.4z M555.4,417.4h7v7h-7V417.4z M562.7,417.4h7v7h-7V417.4z M569.9,417.4h7v7
	h-7V417.4z M577.2,417.4h7v7h-7V417.4z M584.5,417.4h7v7h-7V417.4z M591.7,417.4h7v7h-7V417.4z M599,417.4h7v7h-7V417.4z
	 M606.2,417.4h7v7h-7V417.4z M613.5,417.4h7v7h-7V417.4z M620.8,417.4h7v7h-7V417.4z M628,417.4h7v7h-7V417.4z M635.3,417.4h7v7h-7
	V417.4z M642.5,417.4h7v7h-7V417.4z M649.8,417.4h7v7h-7V417.4z M657.1,417.4h7v7h-7V417.4z M664.3,417.4h7v7h-7V417.4z
	 M671.6,417.4h7v7h-7V417.4z M678.8,417.4h7v7h-7V417.4z M686.1,417.4h7v7h-7V417.4z M693.4,417.4h7v7h-7V417.4z M700.6,417.4h7v7
	h-7V417.4z M40,424.7h7v7h-7V424.7z M47.2,424.7h7v7h-7V424.7z M54.5,424.7h7v7h-7V424.7z M69,424.7h7v7h-7V424.7z M76.3,424.7h7v7
	h-7V424.7z M83.5,424.7h7v7h-7V424.7z M90.8,424.7h7v7h-7V424.7z M98,424.7h7v7h-7V424.7z M105.3,424.7h7v7h-7V424.7z M112.6,424.7
	h7v7h-7V424.7z M119.8,424.7h7v7h-7V424.7z M127.1,424.7h7v7h-7V424.7z M134.3,424.7h7v7h-7V424.7z M141.6,424.7h7v7h-7V424.7z
	 M148.9,424.7h7v7h-7V424.7z M156.1,424.7h7v7h-7V424.7z M163.4,424.7h7v7h-7V424.7z M170.6,424.7h7v7h-7V424.7z M177.9,424.7h7v7
	h-7V424.7z M185.2,424.7h7v7h-7V424.7z M192.4,424.7h7v7h-7V424.7z M199.7,424.7h7v7h-7V424.7z M206.9,424.7h7v7h-7V424.7z
	 M214.2,424.7h7v7h-7V424.7z M221.5,424.7h7v7h-7V424.7z M228.7,424.7h7v7h-7V424.7z M236,424.7h7v7h-7V424.7z M243.2,424.7h7v7h-7
	V424.7z M250.5,424.7h7v7h-7V424.7z M257.8,424.7h7v7h-7V424.7z M265,424.7h7v7h-7V424.7z M272.3,424.7h7v7h-7V424.7z M279.5,424.7
	h7v7h-7V424.7z M286.8,424.7h7v7h-7V424.7z M294.1,424.7h7v7h-7V424.7z M301.3,424.7h7v7h-7V424.7z M330.4,424.7h7v7h-7V424.7z
	 M337.6,424.7h7v7h-7V424.7z M344.9,424.7h7v7h-7V424.7z M352.1,424.7h7v7h-7V424.7z M359.4,424.7h7v7h-7V424.7z M366.7,424.7h7v7
	h-7V424.7z M373.9,424.7h7v7h-7V424.7z M381.2,424.7h7v7h-7V424.7z M388.4,424.7h7v7h-7V424.7z M395.7,424.7h7v7h-7V424.7z
	 M403,424.7h7v7h-7V424.7z M410.2,424.7h7v7h-7V424.7z M417.5,424.7h7v7h-7V424.7z M424.7,424.7h7v7h-7V424.7z M432,424.7h7v7h-7
	V424.7z M439.3,424.7h7v7h-7V424.7z M446.5,424.7h7v7h-7V424.7z M453.8,424.7h7v7h-7V424.7z M461,424.7h7v7h-7V424.7z M468.3,424.7
	h7v7h-7V424.7z M475.6,424.7h7v7h-7V424.7z M482.8,424.7h7v7h-7V424.7z M490.1,424.7h7v7h-7V424.7z M497.3,424.7h7v7h-7V424.7z
	 M504.6,424.7h7v7h-7V424.7z M511.9,424.7h7v7h-7V424.7z M519.1,424.7h7v7h-7V424.7z M526.4,424.7h7v7h-7V424.7z M533.6,424.7h7v7
	h-7V424.7z M540.9,424.7h7v7h-7V424.7z M555.4,424.7h7v7h-7V424.7z M562.7,424.7h7v7h-7V424.7z M569.9,424.7h7v7h-7V424.7z
	 M577.2,424.7h7v7h-7V424.7z M584.5,424.7h7v7h-7V424.7z M591.7,424.7h7v7h-7V424.7z M599,424.7h7v7h-7V424.7z M606.2,424.7h7v7h-7
	V424.7z M613.5,424.7h7v7h-7V424.7z M620.8,424.7h7v7h-7V424.7z M628,424.7h7v7h-7V424.7z M635.3,424.7h7v7h-7V424.7z M642.5,424.7
	h7v7h-7V424.7z M649.8,424.7h7v7h-7V424.7z M657.1,424.7h7v7h-7V424.7z M664.3,424.7h7v7h-7V424.7z M671.6,424.7h7v7h-7V424.7z
	 M678.8,424.7h7v7h-7V424.7z M686.1,424.7h7v7h-7V424.7z M693.4,424.7h7v7h-7V424.7z M40,431.9h7v7h-7V431.9z M47.2,431.9h7v7h-7
	V431.9z M54.5,431.9h7v7h-7V431.9z M61.7,431.9h7v7h-7V431.9z M83.5,431.9h7v7h-7V431.9z M90.8,431.9h7v7h-7V431.9z M98,431.9h7v7
	h-7V431.9z M105.3,431.9h7v7h-7V431.9z M112.6,431.9h7v7h-7V431.9z M119.8,431.9h7v7h-7V431.9z M127.1,431.9h7v7h-7V431.9z
	 M134.3,431.9h7v7h-7V431.9z M141.6,431.9h7v7h-7V431.9z M148.9,431.9h7v7h-7V431.9z M156.1,431.9h7v7h-7V431.9z M163.4,431.9h7v7
	h-7V431.9z M170.6,431.9h7v7h-7V431.9z M177.9,431.9h7v7h-7V431.9z M185.2,431.9h7v7h-7V431.9z M192.4,431.9h7v7h-7V431.9z
	 M199.7,431.9h7v7h-7V431.9z M206.9,431.9h7v7h-7V431.9z M214.2,431.9h7v7h-7V431.9z M221.5,431.9h7v7h-7V431.9z M228.7,431.9h7v7
	h-7V431.9z M236,431.9h7v7h-7V431.9z M243.2,431.9h7v7h-7V431.9z M250.5,431.9h7v7h-7V431.9z M257.8,431.9h7v7h-7V431.9z M265,431.9
	h7v7h-7V431.9z M272.3,431.9h7v7h-7V431.9z M279.5,431.9h7v7h-7V431.9z M286.8,431.9h7v7h-7V431.9z M294.1,431.9h7v7h-7V431.9z
	 M301.3,431.9h7v7h-7V431.9z M337.6,431.9h7v7h-7V431.9z M344.9,431.9h7v7h-7V431.9z M352.1,431.9h7v7h-7V431.9z M359.4,431.9h7v7
	h-7V431.9z M366.7,431.9h7v7h-7V431.9z M373.9,431.9h7v7h-7V431.9z M381.2,431.9h7v7h-7V431.9z M388.4,431.9h7v7h-7V431.9z
	 M395.7,431.9h7v7h-7V431.9z M403,431.9h7v7h-7V431.9z M410.2,431.9h7v7h-7V431.9z M417.5,431.9h7v7h-7V431.9z M424.7,431.9h7v7h-7
	V431.9z M432,431.9h7v7h-7V431.9z M439.3,431.9h7v7h-7V431.9z M446.5,431.9h7v7h-7V431.9z M453.8,431.9h7v7h-7V431.9z M461,431.9h7
	v7h-7V431.9z M468.3,431.9h7v7h-7V431.9z M475.6,431.9h7v7h-7V431.9z M482.8,431.9h7v7h-7V431.9z M490.1,431.9h7v7h-7V431.9z
	 M497.3,431.9h7v7h-7V431.9z M504.6,431.9h7v7h-7V431.9z M511.9,431.9h7v7h-7V431.9z M519.1,431.9h7v7h-7V431.9z M526.4,431.9h7v7
	h-7V431.9z M533.6,431.9h7v7h-7V431.9z M540.9,431.9h7v7h-7V431.9z M548.2,431.9h7v7h-7V431.9z M555.4,431.9h7v7h-7V431.9z
	 M562.7,431.9h7v7h-7V431.9z M569.9,431.9h7v7h-7V431.9z M577.2,431.9h7v7h-7V431.9z M584.5,431.9h7v7h-7V431.9z M591.7,431.9h7v7
	h-7V431.9z M599,431.9h7v7h-7V431.9z M606.2,431.9h7v7h-7V431.9z M613.5,431.9h7v7h-7V431.9z M620.8,431.9h7v7h-7V431.9z M628,431.9
	h7v7h-7V431.9z M635.3,431.9h7v7h-7V431.9z M642.5,431.9h7v7h-7V431.9z M649.8,431.9h7v7h-7V431.9z M657.1,431.9h7v7h-7V431.9z
	 M664.3,431.9h7v7h-7V431.9z M671.6,431.9h7v7h-7V431.9z M678.8,431.9h7v7h-7V431.9z M686.1,431.9h7v7h-7V431.9z M40,439.2h7v7h-7
	V439.2z M47.2,439.2h7v7h-7V439.2z M54.5,439.2h7v7h-7V439.2z M61.7,439.2h7v7h-7V439.2z M69,439.2h7v7h-7V439.2z M76.3,439.2h7v7
	h-7V439.2z M83.5,439.2h7v7h-7V439.2z M90.8,439.2h7v7h-7V439.2z M98,439.2h7v7h-7V439.2z M105.3,439.2h7v7h-7V439.2z M112.6,439.2
	h7v7h-7V439.2z M119.8,439.2h7v7h-7V439.2z M127.1,439.2h7v7h-7V439.2z M134.3,439.2h7v7h-7V439.2z M141.6,439.2h7v7h-7V439.2z
	 M148.9,439.2h7v7h-7V439.2z M156.1,439.2h7v7h-7V439.2z M163.4,439.2h7v7h-7V439.2z M170.6,439.2h7v7h-7V439.2z M177.9,439.2h7v7
	h-7V439.2z M185.2,439.2h7v7h-7V439.2z M192.4,439.2h7v7h-7V439.2z M199.7,439.2h7v7h-7V439.2z M206.9,439.2h7v7h-7V439.2z
	 M214.2,439.2h7v7h-7V439.2z M221.5,439.2h7v7h-7V439.2z M228.7,439.2h7v7h-7V439.2z M236,439.2h7v7h-7V439.2z M243.2,439.2h7v7h-7
	V439.2z M250.5,439.2h7v7h-7V439.2z M257.8,439.2h7v7h-7V439.2z M265,439.2h7v7h-7V439.2z M272.3,439.2h7v7h-7V439.2z M279.5,439.2
	h7v7h-7V439.2z M286.8,439.2h7v7h-7V439.2z M294.1,439.2h7v7h-7V439.2z M301.3,439.2h7v7h-7V439.2z M308.6,439.2h7v7h-7V439.2z
	 M337.6,439.2h7v7h-7V439.2z M344.9,439.2h7v7h-7V439.2z M352.1,439.2h7v7h-7V439.2z M359.4,439.2h7v7h-7V439.2z M366.7,439.2h7v7
	h-7V439.2z M373.9,439.2h7v7h-7V439.2z M381.2,439.2h7v7h-7V439.2z M388.4,439.2h7v7h-7V439.2z M395.7,439.2h7v7h-7V439.2z
	 M403,439.2h7v7h-7V439.2z M410.2,439.2h7v7h-7V439.2z M417.5,439.2h7v7h-7V439.2z M424.7,439.2h7v7h-7V439.2z M432,439.2h7v7h-7
	V439.2z M439.3,439.2h7v7h-7V439.2z M446.5,439.2h7v7h-7V439.2z M453.8,439.2h7v7h-7V439.2z M461,439.2h7v7h-7V439.2z M468.3,439.2
	h7v7h-7V439.2z M475.6,439.2h7v7h-7V439.2z M482.8,439.2h7v7h-7V439.2z M490.1,439.2h7v7h-7V439.2z M497.3,439.2h7v7h-7V439.2z
	 M504.6,439.2h7v7h-7V439.2z M511.9,439.2h7v7h-7V439.2z M519.1,439.2h7v7h-7V439.2z M526.4,439.2h7v7h-7V439.2z M533.6,439.2h7v7
	h-7V439.2z M540.9,439.2h7v7h-7V439.2z M548.2,439.2h7v7h-7V439.2z M555.4,439.2h7v7h-7V439.2z M562.7,439.2h7v7h-7V439.2z
	 M569.9,439.2h7v7h-7V439.2z M577.2,439.2h7v7h-7V439.2z M584.5,439.2h7v7h-7V439.2z M591.7,439.2h7v7h-7V439.2z M599,439.2h7v7h-7
	V439.2z M606.2,439.2h7v7h-7V439.2z M613.5,439.2h7v7h-7V439.2z M620.8,439.2h7v7h-7V439.2z M628,439.2h7v7h-7V439.2z M635.3,439.2
	h7v7h-7V439.2z M642.5,439.2h7v7h-7V439.2z M657.1,439.2h7v7h-7V439.2z M664.3,439.2h7v7h-7V439.2z M671.6,439.2h7v7h-7V439.2z
	 M678.8,439.2h7v7h-7V439.2z M40,446.5h7v7h-7V446.5z M47.2,446.5h7v7h-7V446.5z M54.5,446.5h7v7h-7V446.5z M61.7,446.5h7v7h-7
	V446.5z M69,446.5h7v7h-7V446.5z M76.3,446.5h7v7h-7V446.5z M83.5,446.5h7v7h-7V446.5z M90.8,446.5h7v7h-7V446.5z M98,446.5h7v7h-7
	V446.5z M105.3,446.5h7v7h-7V446.5z M112.6,446.5h7v7h-7V446.5z M119.8,446.5h7v7h-7V446.5z M127.1,446.5h7v7h-7V446.5z
	 M134.3,446.5h7v7h-7V446.5z M141.6,446.5h7v7h-7V446.5z M148.9,446.5h7v7h-7V446.5z M156.1,446.5h7v7h-7V446.5z M163.4,446.5h7v7
	h-7V446.5z M170.6,446.5h7v7h-7V446.5z M177.9,446.5h7v7h-7V446.5z M185.2,446.5h7v7h-7V446.5z M192.4,446.5h7v7h-7V446.5z
	 M199.7,446.5h7v7h-7V446.5z M206.9,446.5h7v7h-7V446.5z M214.2,446.5h7v7h-7V446.5z M221.5,446.5h7v7h-7V446.5z M228.7,446.5h7v7
	h-7V446.5z M236,446.5h7v7h-7V446.5z M243.2,446.5h7v7h-7V446.5z M250.5,446.5h7v7h-7V446.5z M257.8,446.5h7v7h-7V446.5z M265,446.5
	h7v7h-7V446.5z M272.3,446.5h7v7h-7V446.5z M279.5,446.5h7v7h-7V446.5z M286.8,446.5h7v7h-7V446.5z M294.1,446.5h7v7h-7V446.5z
	 M301.3,446.5h7v7h-7V446.5z M308.6,446.5h7v7h-7V446.5z M315.8,446.5h7v7h-7V446.5z M344.9,446.5h7v7h-7V446.5z M352.1,446.5h7v7
	h-7V446.5z M359.4,446.5h7v7h-7V446.5z M366.7,446.5h7v7h-7V446.5z M373.9,446.5h7v7h-7V446.5z M381.2,446.5h7v7h-7V446.5z
	 M388.4,446.5h7v7h-7V446.5z M395.7,446.5h7v7h-7V446.5z M403,446.5h7v7h-7V446.5z M410.2,446.5h7v7h-7V446.5z M417.5,446.5h7v7h-7
	V446.5z M424.7,446.5h7v7h-7V446.5z M432,446.5h7v7h-7V446.5z M439.3,446.5h7v7h-7V446.5z M446.5,446.5h7v7h-7V446.5z M453.8,446.5
	h7v7h-7V446.5z M461,446.5h7v7h-7V446.5z M468.3,446.5h7v7h-7V446.5z M475.6,446.5h7v7h-7V446.5z M482.8,446.5h7v7h-7V446.5z
	 M490.1,446.5h7v7h-7V446.5z M497.3,446.5h7v7h-7V446.5z M504.6,446.5h7v7h-7V446.5z M511.9,446.5h7v7h-7V446.5z M519.1,446.5h7v7
	h-7V446.5z M526.4,446.5h7v7h-7V446.5z M533.6,446.5h7v7h-7V446.5z M540.9,446.5h7v7h-7V446.5z M555.4,446.5h7v7h-7V446.5z
	 M562.7,446.5h7v7h-7V446.5z M569.9,446.5h7v7h-7V446.5z M584.5,446.5h7v7h-7V446.5z M591.7,446.5h7v7h-7V446.5z M599,446.5h7v7h-7
	V446.5z M606.2,446.5h7v7h-7V446.5z M613.5,446.5h7v7h-7V446.5z M620.8,446.5h7v7h-7V446.5z M628,446.5h7v7h-7V446.5z M635.3,446.5
	h7v7h-7V446.5z M649.8,446.5h7v7h-7V446.5z M657.1,446.5h7v7h-7V446.5z M664.3,446.5h7v7h-7V446.5z M671.6,446.5h7v7h-7V446.5z
	 M678.8,446.5h7v7h-7V446.5z M40,453.7h7v7h-7V453.7z M47.2,453.7h7v7h-7V453.7z M54.5,453.7h7v7h-7V453.7z M61.7,453.7h7v7h-7
	V453.7z M69,453.7h7v7h-7V453.7z M76.3,453.7h7v7h-7V453.7z M98,453.7h7v7h-7V453.7z M105.3,453.7h7v7h-7V453.7z M134.3,453.7h7v7
	h-7V453.7z M141.6,453.7h7v7h-7V453.7z M148.9,453.7h7v7h-7V453.7z M156.1,453.7h7v7h-7V453.7z M163.4,453.7h7v7h-7V453.7z
	 M170.6,453.7h7v7h-7V453.7z M177.9,453.7h7v7h-7V453.7z M185.2,453.7h7v7h-7V453.7z M192.4,453.7h7v7h-7V453.7z M199.7,453.7h7v7
	h-7V453.7z M206.9,453.7h7v7h-7V453.7z M214.2,453.7h7v7h-7V453.7z M221.5,453.7h7v7h-7V453.7z M228.7,453.7h7v7h-7V453.7z
	 M236,453.7h7v7h-7V453.7z M243.2,453.7h7v7h-7V453.7z M250.5,453.7h7v7h-7V453.7z M257.8,453.7h7v7h-7V453.7z M265,453.7h7v7h-7
	V453.7z M272.3,453.7h7v7h-7V453.7z M279.5,453.7h7v7h-7V453.7z M286.8,453.7h7v7h-7V453.7z M294.1,453.7h7v7h-7V453.7z
	 M301.3,453.7h7v7h-7V453.7z M308.6,453.7h7v7h-7V453.7z M315.8,453.7h7v7h-7V453.7z M344.9,453.7h7v7h-7V453.7z M352.1,453.7h7v7
	h-7V453.7z M359.4,453.7h7v7h-7V453.7z M366.7,453.7h7v7h-7V453.7z M373.9,453.7h7v7h-7V453.7z M381.2,453.7h7v7h-7V453.7z
	 M388.4,453.7h7v7h-7V453.7z M395.7,453.7h7v7h-7V453.7z M403,453.7h7v7h-7V453.7z M410.2,453.7h7v7h-7V453.7z M417.5,453.7h7v7h-7
	V453.7z M424.7,453.7h7v7h-7V453.7z M432,453.7h7v7h-7V453.7z M439.3,453.7h7v7h-7V453.7z M446.5,453.7h7v7h-7V453.7z M453.8,453.7
	h7v7h-7V453.7z M461,453.7h7v7h-7V453.7z M468.3,453.7h7v7h-7V453.7z M475.6,453.7h7v7h-7V453.7z M482.8,453.7h7v7h-7V453.7z
	 M490.1,453.7h7v7h-7V453.7z M497.3,453.7h7v7h-7V453.7z M504.6,453.7h7v7h-7V453.7z M511.9,453.7h7v7h-7V453.7z M519.1,453.7h7v7
	h-7V453.7z M526.4,453.7h7v7h-7V453.7z M555.4,453.7h7v7h-7V453.7z M562.7,453.7h7v7h-7V453.7z M569.9,453.7h7v7h-7V453.7z
	 M577.2,453.7h7v7h-7V453.7z M591.7,453.7h7v7h-7V453.7z M599,453.7h7v7h-7V453.7z M606.2,453.7h7v7h-7V453.7z M613.5,453.7h7v7h-7
	V453.7z M620.8,453.7h7v7h-7V453.7z M628,453.7h7v7h-7V453.7z M635.3,453.7h7v7h-7V453.7z M642.5,453.7h7v7h-7V453.7z M649.8,453.7
	h7v7h-7V453.7z M657.1,453.7h7v7h-7V453.7z M664.3,453.7h7v7h-7V453.7z M671.6,453.7h7v7h-7V453.7z M47.2,461h7v7h-7V461z M54.5,461
	h7v7h-7V461z M61.7,461h7v7h-7V461z M69,461h7v7h-7V461z M76.3,461h7v7h-7V461z M83.5,461h7v7h-7V461z M163.4,461h7v7h-7V461z
	 M170.6,461h7v7h-7V461z M177.9,461h7v7h-7V461z M185.2,461h7v7h-7V461z M192.4,461h7v7h-7V461z M199.7,461h7v7h-7V461z M206.9,461
	h7v7h-7V461z M214.2,461h7v7h-7V461z M221.5,461h7v7h-7V461z M228.7,461h7v7h-7V461z M236,461h7v7h-7V461z M243.2,461h7v7h-7V461z
	 M250.5,461h7v7h-7V461z M257.8,461h7v7h-7V461z M265,461h7v7h-7V461z M272.3,461h7v7h-7V461z M279.5,461h7v7h-7V461z M286.8,461h7
	v7h-7V461z M294.1,461h7v7h-7V461z M301.3,461h7v7h-7V461z M308.6,461h7v7h-7V461z M315.8,461h7v7h-7V461z M323.1,461h7v7h-7V461z
	 M352.1,461h7v7h-7V461z M359.4,461h7v7h-7V461z M366.7,461h7v7h-7V461z M373.9,461h7v7h-7V461z M381.2,461h7v7h-7V461z M388.4,461
	h7v7h-7V461z M395.7,461h7v7h-7V461z M403,461h7v7h-7V461z M410.2,461h7v7h-7V461z M417.5,461h7v7h-7V461z M424.7,461h7v7h-7V461z
	 M432,461h7v7h-7V461z M439.3,461h7v7h-7V461z M446.5,461h7v7h-7V461z M453.8,461h7v7h-7V461z M461,461h7v7h-7V461z M468.3,461h7v7
	h-7V461z M475.6,461h7v7h-7V461z M482.8,461h7v7h-7V461z M490.1,461h7v7h-7V461z M497.3,461h7v7h-7V461z M504.6,461h7v7h-7V461z
	 M511.9,461h7v7h-7V461z M540.9,461h7v7h-7V461z M548.2,461h7v7h-7V461z M555.4,461h7v7h-7V461z M562.7,461h7v7h-7V461z M569.9,461
	h7v7h-7V461z M584.5,461h7v7h-7V461z M606.2,461h7v7h-7V461z M620.8,461h7v7h-7V461z M635.3,461h7v7h-7V461z M642.5,461h7v7h-7V461z
	 M649.8,461h7v7h-7V461z M657.1,461h7v7h-7V461z M664.3,461h7v7h-7V461z M54.5,468.2h7v7h-7V468.2z M61.7,468.2h7v7h-7V468.2z
	 M69,468.2h7v7h-7V468.2z M76.3,468.2h7v7h-7V468.2z M83.5,468.2h7v7h-7V468.2z M90.8,468.2h7v7h-7V468.2z M98,468.2h7v7h-7V468.2z
	 M105.3,468.2h7v7h-7V468.2z M199.7,468.2h7v7h-7V468.2z M206.9,468.2h7v7h-7V468.2z M214.2,468.2h7v7h-7V468.2z M221.5,468.2h7v7
	h-7V468.2z M228.7,468.2h7v7h-7V468.2z M236,468.2h7v7h-7V468.2z M243.2,468.2h7v7h-7V468.2z M250.5,468.2h7v7h-7V468.2z
	 M257.8,468.2h7v7h-7V468.2z M265,468.2h7v7h-7V468.2z M272.3,468.2h7v7h-7V468.2z M279.5,468.2h7v7h-7V468.2z M286.8,468.2h7v7h-7
	V468.2z M294.1,468.2h7v7h-7V468.2z M301.3,468.2h7v7h-7V468.2z M308.6,468.2h7v7h-7V468.2z M315.8,468.2h7v7h-7V468.2z
	 M323.1,468.2h7v7h-7V468.2z M352.1,468.2h7v7h-7V468.2z M359.4,468.2h7v7h-7V468.2z M366.7,468.2h7v7h-7V468.2z M373.9,468.2h7v7
	h-7V468.2z M381.2,468.2h7v7h-7V468.2z M388.4,468.2h7v7h-7V468.2z M395.7,468.2h7v7h-7V468.2z M403,468.2h7v7h-7V468.2z
	 M410.2,468.2h7v7h-7V468.2z M417.5,468.2h7v7h-7V468.2z M424.7,468.2h7v7h-7V468.2z M432,468.2h7v7h-7V468.2z M439.3,468.2h7v7h-7
	V468.2z M446.5,468.2h7v7h-7V468.2z M453.8,468.2h7v7h-7V468.2z M461,468.2h7v7h-7V468.2z M468.3,468.2h7v7h-7V468.2z M475.6,468.2
	h7v7h-7V468.2z M482.8,468.2h7v7h-7V468.2z M490.1,468.2h7v7h-7V468.2z M497.3,468.2h7v7h-7V468.2z M504.6,468.2h7v7h-7V468.2z
	 M526.4,468.2h7v7h-7V468.2z M533.6,468.2h7v7h-7V468.2z M540.9,468.2h7v7h-7V468.2z M548.2,468.2h7v7h-7V468.2z M555.4,468.2h7v7
	h-7V468.2z M562.7,468.2h7v7h-7V468.2z M569.9,468.2h7v7h-7V468.2z M577.2,468.2h7v7h-7V468.2z M591.7,468.2h7v7h-7V468.2z
	 M599,468.2h7v7h-7V468.2z M613.5,468.2h7v7h-7V468.2z M628,468.2h7v7h-7V468.2z M635.3,468.2h7v7h-7V468.2z M642.5,468.2h7v7h-7
	V468.2z M649.8,468.2h7v7h-7V468.2z M657.1,468.2h7v7h-7V468.2z M61.7,475.5h7v7h-7V475.5z M69,475.5h7v7h-7V475.5z M76.3,475.5h7v7
	h-7V475.5z M83.5,475.5h7v7h-7V475.5z M90.8,475.5h7v7h-7V475.5z M98,475.5h7v7h-7V475.5z M105.3,475.5h7v7h-7V475.5z M112.6,475.5
	h7v7h-7V475.5z M119.8,475.5h7v7h-7V475.5z M127.1,475.5h7v7h-7V475.5z M134.3,475.5h7v7h-7V475.5z M236,475.5h7v7h-7V475.5z
	 M243.2,475.5h7v7h-7V475.5z M250.5,475.5h7v7h-7V475.5z M257.8,475.5h7v7h-7V475.5z M265,475.5h7v7h-7V475.5z M272.3,475.5h7v7h-7
	V475.5z M279.5,475.5h7v7h-7V475.5z M286.8,475.5h7v7h-7V475.5z M294.1,475.5h7v7h-7V475.5z M301.3,475.5h7v7h-7V475.5z
	 M308.6,475.5h7v7h-7V475.5z M315.8,475.5h7v7h-7V475.5z M323.1,475.5h7v7h-7V475.5z M330.4,475.5h7v7h-7V475.5z M359.4,475.5h7v7
	h-7V475.5z M366.7,475.5h7v7h-7V475.5z M373.9,475.5h7v7h-7V475.5z M381.2,475.5h7v7h-7V475.5z M388.4,475.5h7v7h-7V475.5z
	 M395.7,475.5h7v7h-7V475.5z M403,475.5h7v7h-7V475.5z M410.2,475.5h7v7h-7V475.5z M417.5,475.5h7v7h-7V475.5z M424.7,475.5h7v7h-7
	V475.5z M432,475.5h7v7h-7V475.5z M439.3,475.5h7v7h-7V475.5z M446.5,475.5h7v7h-7V475.5z M453.8,475.5h7v7h-7V475.5z M461,475.5h7
	v7h-7V475.5z M468.3,475.5h7v7h-7V475.5z M475.6,475.5h7v7h-7V475.5z M482.8,475.5h7v7h-7V475.5z M490.1,475.5h7v7h-7V475.5z
	 M497.3,475.5h7v7h-7V475.5z M511.9,475.5h7v7h-7V475.5z M519.1,475.5h7v7h-7V475.5z M526.4,475.5h7v7h-7V475.5z M533.6,475.5h7v7
	h-7V475.5z M540.9,475.5h7v7h-7V475.5z M548.2,475.5h7v7h-7V475.5z M555.4,475.5h7v7h-7V475.5z M562.7,475.5h7v7h-7V475.5z
	 M569.9,475.5h7v7h-7V475.5z M577.2,475.5h7v7h-7V475.5z M584.5,475.5h7v7h-7V475.5z M591.7,475.5h7v7h-7V475.5z M599,475.5h7v7h-7
	V475.5z M606.2,475.5h7v7h-7V475.5z M613.5,475.5h7v7h-7V475.5z M620.8,475.5h7v7h-7V475.5z M628,475.5h7v7h-7V475.5z M635.3,475.5
	h7v7h-7V475.5z M642.5,475.5h7v7h-7V475.5z M69,482.8h7v7h-7V482.8z M76.3,482.8h7v7h-7V482.8z M83.5,482.8h7v7h-7V482.8z
	 M90.8,482.8h7v7h-7V482.8z M98,482.8h7v7h-7V482.8z M105.3,482.8h7v7h-7V482.8z M112.6,482.8h7v7h-7V482.8z M119.8,482.8h7v7h-7
	V482.8z M127.1,482.8h7v7h-7V482.8z M134.3,482.8h7v7h-7V482.8z M141.6,482.8h7v7h-7V482.8z M148.9,482.8h7v7h-7V482.8z
	 M156.1,482.8h7v7h-7V482.8z M163.4,482.8h7v7h-7V482.8z M286.8,482.8h7v7h-7V482.8z M294.1,482.8h7v7h-7V482.8z M301.3,482.8h7v7
	h-7V482.8z M308.6,482.8h7v7h-7V482.8z M315.8,482.8h7v7h-7V482.8z M323.1,482.8h7v7h-7V482.8z M330.4,482.8h7v7h-7V482.8z
	 M388.4,482.8h7v7h-7V482.8z M395.7,482.8h7v7h-7V482.8z M403,482.8h7v7h-7V482.8z M446.5,482.8h7v7h-7V482.8z M453.8,482.8h7v7h-7
	V482.8z M461,482.8h7v7h-7V482.8z M468.3,482.8h7v7h-7V482.8z M475.6,482.8h7v7h-7V482.8z M482.8,482.8h7v7h-7V482.8z M490.1,482.8
	h7v7h-7V482.8z M497.3,482.8h7v7h-7V482.8z M504.6,482.8h7v7h-7V482.8z M511.9,482.8h7v7h-7V482.8z M519.1,482.8h7v7h-7V482.8z
	 M526.4,482.8h7v7h-7V482.8z M533.6,482.8h7v7h-7V482.8z M540.9,482.8h7v7h-7V482.8z M548.2,482.8h7v7h-7V482.8z M555.4,482.8h7v7
	h-7V482.8z M569.9,482.8h7v7h-7V482.8z M577.2,482.8h7v7h-7V482.8z M584.5,482.8h7v7h-7V482.8z M591.7,482.8h7v7h-7V482.8z
	 M599,482.8h7v7h-7V482.8z M606.2,482.8h7v7h-7V482.8z M613.5,482.8h7v7h-7V482.8z M620.8,482.8h7v7h-7V482.8z M628,482.8h7v7h-7
	V482.8z M635.3,482.8h7v7h-7V482.8z M76.3,490h7v7h-7V490z M83.5,490h7v7h-7V490z M90.8,490h7v7h-7V490z M98,490h7v7h-7V490z
	 M105.3,490h7v7h-7V490z M112.6,490h7v7h-7V490z M119.8,490h7v7h-7V490z M127.1,490h7v7h-7V490z M134.3,490h7v7h-7V490z M141.6,490
	h7v7h-7V490z M148.9,490h7v7h-7V490z M156.1,490h7v7h-7V490z M163.4,490h7v7h-7V490z M170.6,490h7v7h-7V490z M177.9,490h7v7h-7V490z
	 M185.2,490h7v7h-7V490z M192.4,490h7v7h-7V490z M199.7,490h7v7h-7V490z M301.3,490h7v7h-7V490z M308.6,490h7v7h-7V490z M315.8,490
	h7v7h-7V490z M323.1,490h7v7h-7V490z M359.4,490h7v7h-7V490z M439.3,490h7v7h-7V490z M446.5,490h7v7h-7V490z M453.8,490h7v7h-7V490z
	 M461,490h7v7h-7V490z M468.3,490h7v7h-7V490z M475.6,490h7v7h-7V490z M482.8,490h7v7h-7V490z M490.1,490h7v7h-7V490z M497.3,490h7
	v7h-7V490z M504.6,490h7v7h-7V490z M511.9,490h7v7h-7V490z M519.1,490h7v7h-7V490z M526.4,490h7v7h-7V490z M533.6,490h7v7h-7V490z
	 M540.9,490h7v7h-7V490z M562.7,490h7v7h-7V490z M569.9,490h7v7h-7V490z M577.2,490h7v7h-7V490z M584.5,490h7v7h-7V490z M591.7,490
	h7v7h-7V490z M599,490h7v7h-7V490z M606.2,490h7v7h-7V490z M613.5,490h7v7h-7V490z M620.8,490h7v7h-7V490z M83.5,497.3h7v7h-7V497.3
	z M90.8,497.3h7v7h-7V497.3z M98,497.3h7v7h-7V497.3z M105.3,497.3h7v7h-7V497.3z M112.6,497.3h7v7h-7V497.3z M119.8,497.3h7v7h-7
	V497.3z M127.1,497.3h7v7h-7V497.3z M134.3,497.3h7v7h-7V497.3z M141.6,497.3h7v7h-7V497.3z M148.9,497.3h7v7h-7V497.3z
	 M156.1,497.3h7v7h-7V497.3z M163.4,497.3h7v7h-7V497.3z M170.6,497.3h7v7h-7V497.3z M177.9,497.3h7v7h-7V497.3z M185.2,497.3h7v7
	h-7V497.3z M192.4,497.3h7v7h-7V497.3z M199.7,497.3h7v7h-7V497.3z M206.9,497.3h7v7h-7V497.3z M214.2,497.3h7v7h-7V497.3z
	 M221.5,497.3h7v7h-7V497.3z M228.7,497.3h7v7h-7V497.3z M236,497.3h7v7h-7V497.3z M243.2,497.3h7v7h-7V497.3z M250.5,497.3h7v7h-7
	V497.3z M352.1,497.3h7v7h-7V497.3z M359.4,497.3h7v7h-7V497.3z M366.7,497.3h7v7h-7V497.3z M373.9,497.3h7v7h-7V497.3z
	 M381.2,497.3h7v7h-7V497.3z M388.4,497.3h7v7h-7V497.3z M395.7,497.3h7v7h-7V497.3z M403,497.3h7v7h-7V497.3z M410.2,497.3h7v7h-7
	V497.3z M417.5,497.3h7v7h-7V497.3z M424.7,497.3h7v7h-7V497.3z M432,497.3h7v7h-7V497.3z M439.3,497.3h7v7h-7V497.3z M446.5,497.3
	h7v7h-7V497.3z M453.8,497.3h7v7h-7V497.3z M461,497.3h7v7h-7V497.3z M468.3,497.3h7v7h-7V497.3z M475.6,497.3h7v7h-7V497.3z
	 M482.8,497.3h7v7h-7V497.3z M490.1,497.3h7v7h-7V497.3z M497.3,497.3h7v7h-7V497.3z M504.6,497.3h7v7h-7V497.3z M511.9,497.3h7v7
	h-7V497.3z M519.1,497.3h7v7h-7V497.3z M526.4,497.3h7v7h-7V497.3z M533.6,497.3h7v7h-7V497.3z M555.4,497.3h7v7h-7V497.3z
	 M562.7,497.3h7v7h-7V497.3z M569.9,497.3h7v7h-7V497.3z M577.2,497.3h7v7h-7V497.3z M584.5,497.3h7v7h-7V497.3z M591.7,497.3h7v7
	h-7V497.3z M599,497.3h7v7h-7V497.3z M606.2,497.3h7v7h-7V497.3z M613.5,497.3h7v7h-7V497.3z M98,504.5h7v7h-7V504.5z M105.3,504.5
	h7v7h-7V504.5z M112.6,504.5h7v7h-7V504.5z M119.8,504.5h7v7h-7V504.5z M127.1,504.5h7v7h-7V504.5z M134.3,504.5h7v7h-7V504.5z
	 M141.6,504.5h7v7h-7V504.5z M148.9,504.5h7v7h-7V504.5z M156.1,504.5h7v7h-7V504.5z M163.4,504.5h7v7h-7V504.5z M170.6,504.5h7v7
	h-7V504.5z M177.9,504.5h7v7h-7V504.5z M185.2,504.5h7v7h-7V504.5z M192.4,504.5h7v7h-7V504.5z M199.7,504.5h7v7h-7V504.5z
	 M206.9,504.5h7v7h-7V504.5z M214.2,504.5h7v7h-7V504.5z M221.5,504.5h7v7h-7V504.5z M228.7,504.5h7v7h-7V504.5z M236,504.5h7v7h-7
	V504.5z M243.2,504.5h7v7h-7V504.5z M250.5,504.5h7v7h-7V504.5z M257.8,504.5h7v7h-7V504.5z M265,504.5h7v7h-7V504.5z M272.3,504.5
	h7v7h-7V504.5z M279.5,504.5h7v7h-7V504.5z M286.8,504.5h7v7h-7V504.5z M294.1,504.5h7v7h-7V504.5z M301.3,504.5h7v7h-7V504.5z
	 M308.6,504.5h7v7h-7V504.5z M315.8,504.5h7v7h-7V504.5z M323.1,504.5h7v7h-7V504.5z M330.4,504.5h7v7h-7V504.5z M337.6,504.5h7v7
	h-7V504.5z M344.9,504.5h7v7h-7V504.5z M352.1,504.5h7v7h-7V504.5z M359.4,504.5h7v7h-7V504.5z M366.7,504.5h7v7h-7V504.5z
	 M373.9,504.5h7v7h-7V504.5z M381.2,504.5h7v7h-7V504.5z M388.4,504.5h7v7h-7V504.5z M395.7,504.5h7v7h-7V504.5z M403,504.5h7v7h-7
	V504.5z M410.2,504.5h7v7h-7V504.5z M417.5,504.5h7v7h-7V504.5z M424.7,504.5h7v7h-7V504.5z M432,504.5h7v7h-7V504.5z M439.3,504.5
	h7v7h-7V504.5z M446.5,504.5h7v7h-7V504.5z M453.8,504.5h7v7h-7V504.5z M461,504.5h7v7h-7V504.5z M468.3,504.5h7v7h-7V504.5z
	 M475.6,504.5h7v7h-7V504.5z M482.8,504.5h7v7h-7V504.5z M490.1,504.5h7v7h-7V504.5z M497.3,504.5h7v7h-7V504.5z M504.6,504.5h7v7
	h-7V504.5z M511.9,504.5h7v7h-7V504.5z M519.1,504.5h7v7h-7V504.5z M526.4,504.5h7v7h-7V504.5z M533.6,504.5h7v7h-7V504.5z
	 M540.9,504.5h7v7h-7V504.5z M548.2,504.5h7v7h-7V504.5z M555.4,504.5h7v7h-7V504.5z M562.7,504.5h7v7h-7V504.5z M569.9,504.5h7v7
	h-7V504.5z M577.2,504.5h7v7h-7V504.5z M584.5,504.5h7v7h-7V504.5z M591.7,504.5h7v7h-7V504.5z M599,504.5h7v7h-7V504.5z
	 M112.6,511.8h7v7h-7V511.8z M119.8,511.8h7v7h-7V511.8z M127.1,511.8h7v7h-7V511.8z M134.3,511.8h7v7h-7V511.8z M141.6,511.8h7v7
	h-7V511.8z M148.9,511.8h7v7h-7V511.8z M156.1,511.8h7v7h-7V511.8z M163.4,511.8h7v7h-7V511.8z M170.6,511.8h7v7h-7V511.8z
	 M177.9,511.8h7v7h-7V511.8z M185.2,511.8h7v7h-7V511.8z M192.4,511.8h7v7h-7V511.8z M199.7,511.8h7v7h-7V511.8z M206.9,511.8h7v7
	h-7V511.8z M214.2,511.8h7v7h-7V511.8z M221.5,511.8h7v7h-7V511.8z M228.7,511.8h7v7h-7V511.8z M236,511.8h7v7h-7V511.8z
	 M243.2,511.8h7v7h-7V511.8z M250.5,511.8h7v7h-7V511.8z M257.8,511.8h7v7h-7V511.8z M265,511.8h7v7h-7V511.8z M272.3,511.8h7v7h-7
	V511.8z M279.5,511.8h7v7h-7V511.8z M286.8,511.8h7v7h-7V511.8z M294.1,511.8h7v7h-7V511.8z M301.3,511.8h7v7h-7V511.8z
	 M308.6,511.8h7v7h-7V511.8z M315.8,511.8h7v7h-7V511.8z M323.1,511.8h7v7h-7V511.8z M330.4,511.8h7v7h-7V511.8z M337.6,511.8h7v7
	h-7V511.8z M344.9,511.8h7v7h-7V511.8z M352.1,511.8h7v7h-7V511.8z M359.4,511.8h7v7h-7V511.8z M366.7,511.8h7v7h-7V511.8z
	 M373.9,511.8h7v7h-7V511.8z M381.2,511.8h7v7h-7V511.8z M388.4,511.8h7v7h-7V511.8z M395.7,511.8h7v7h-7V511.8z M403,511.8h7v7h-7
	V511.8z M410.2,511.8h7v7h-7V511.8z M417.5,511.8h7v7h-7V511.8z M424.7,511.8h7v7h-7V511.8z M432,511.8h7v7h-7V511.8z M439.3,511.8
	h7v7h-7V511.8z M446.5,511.8h7v7h-7V511.8z M453.8,511.8h7v7h-7V511.8z M461,511.8h7v7h-7V511.8z M468.3,511.8h7v7h-7V511.8z
	 M475.6,511.8h7v7h-7V511.8z M482.8,511.8h7v7h-7V511.8z M490.1,511.8h7v7h-7V511.8z M497.3,511.8h7v7h-7V511.8z M504.6,511.8h7v7
	h-7V511.8z M511.9,511.8h7v7h-7V511.8z M519.1,511.8h7v7h-7V511.8z M526.4,511.8h7v7h-7V511.8z M533.6,511.8h7v7h-7V511.8z
	 M540.9,511.8h7v7h-7V511.8z M548.2,511.8h7v7h-7V511.8z M555.4,511.8h7v7h-7V511.8z M562.7,511.8h7v7h-7V511.8z M569.9,511.8h7v7
	h-7V511.8z M577.2,511.8h7v7h-7V511.8z M584.5,511.8h7v7h-7V511.8z M134.3,519.1h7v7h-7V519.1z M141.6,519.1h7v7h-7V519.1z
	 M148.9,519.1h7v7h-7V519.1z M156.1,519.1h7v7h-7V519.1z M163.4,519.1h7v7h-7V519.1z M170.6,519.1h7v7h-7V519.1z M177.9,519.1h7v7
	h-7V519.1z M185.2,519.1h7v7h-7V519.1z M192.4,519.1h7v7h-7V519.1z M199.7,519.1h7v7h-7V519.1z M206.9,519.1h7v7h-7V519.1z
	 M214.2,519.1h7v7h-7V519.1z M221.5,519.1h7v7h-7V519.1z M228.7,519.1h7v7h-7V519.1z M236,519.1h7v7h-7V519.1z M243.2,519.1h7v7h-7
	V519.1z M250.5,519.1h7v7h-7V519.1z M257.8,519.1h7v7h-7V519.1z M265,519.1h7v7h-7V519.1z M272.3,519.1h7v7h-7V519.1z M279.5,519.1
	h7v7h-7V519.1z M286.8,519.1h7v7h-7V519.1z M294.1,519.1h7v7h-7V519.1z M301.3,519.1h7v7h-7V519.1z M308.6,519.1h7v7h-7V519.1z
	 M315.8,519.1h7v7h-7V519.1z M323.1,519.1h7v7h-7V519.1z M330.4,519.1h7v7h-7V519.1z M337.6,519.1h7v7h-7V519.1z M344.9,519.1h7v7
	h-7V519.1z M352.1,519.1h7v7h-7V519.1z M359.4,519.1h7v7h-7V519.1z M366.7,519.1h7v7h-7V519.1z M373.9,519.1h7v7h-7V519.1z
	 M381.2,519.1h7v7h-7V519.1z M388.4,519.1h7v7h-7V519.1z M395.7,519.1h7v7h-7V519.1z M403,519.1h7v7h-7V519.1z M410.2,519.1h7v7h-7
	V519.1z M417.5,519.1h7v7h-7V519.1z M424.7,519.1h7v7h-7V519.1z M432,519.1h7v7h-7V519.1z M439.3,519.1h7v7h-7V519.1z M446.5,519.1
	h7v7h-7V519.1z M453.8,519.1h7v7h-7V519.1z M461,519.1h7v7h-7V519.1z M468.3,519.1h7v7h-7V519.1z M475.6,519.1h7v7h-7V519.1z
	 M482.8,519.1h7v7h-7V519.1z M490.1,519.1h7v7h-7V519.1z M497.3,519.1h7v7h-7V519.1z M504.6,519.1h7v7h-7V519.1z M511.9,519.1h7v7
	h-7V519.1z M519.1,519.1h7v7h-7V519.1z M526.4,519.1h7v7h-7V519.1z M533.6,519.1h7v7h-7V519.1z M540.9,519.1h7v7h-7V519.1z
	 M548.2,519.1h7v7h-7V519.1z M555.4,519.1h7v7h-7V519.1z M562.7,519.1h7v7h-7V519.1z M569.9,519.1h7v7h-7V519.1z M577.2,519.1h7v7
	h-7V519.1z M156.1,526.3h7v7h-7V526.3z M163.4,526.3h7v7h-7V526.3z M170.6,526.3h7v7h-7V526.3z M177.9,526.3h7v7h-7V526.3z
	 M185.2,526.3h7v7h-7V526.3z M192.4,526.3h7v7h-7V526.3z M199.7,526.3h7v7h-7V526.3z M206.9,526.3h7v7h-7V526.3z M214.2,526.3h7v7
	h-7V526.3z M221.5,526.3h7v7h-7V526.3z M228.7,526.3h7v7h-7V526.3z M236,526.3h7v7h-7V526.3z M243.2,526.3h7v7h-7V526.3z
	 M250.5,526.3h7v7h-7V526.3z M257.8,526.3h7v7h-7V526.3z M265,526.3h7v7h-7V526.3z M272.3,526.3h7v7h-7V526.3z M279.5,526.3h7v7h-7
	V526.3z M286.8,526.3h7v7h-7V526.3z M294.1,526.3h7v7h-7V526.3z M301.3,526.3h7v7h-7V526.3z M308.6,526.3h7v7h-7V526.3z
	 M315.8,526.3h7v7h-7V526.3z M323.1,526.3h7v7h-7V526.3z M330.4,526.3h7v7h-7V526.3z M337.6,526.3h7v7h-7V526.3z M344.9,526.3h7v7
	h-7V526.3z M352.1,526.3h7v7h-7V526.3z M359.4,526.3h7v7h-7V526.3z M366.7,526.3h7v7h-7V526.3z M373.9,526.3h7v7h-7V526.3z
	 M381.2,526.3h7v7h-7V526.3z M388.4,526.3h7v7h-7V526.3z M395.7,526.3h7v7h-7V526.3z M403,526.3h7v7h-7V526.3z M410.2,526.3h7v7h-7
	V526.3z M417.5,526.3h7v7h-7V526.3z M424.7,526.3h7v7h-7V526.3z M432,526.3h7v7h-7V526.3z M439.3,526.3h7v7h-7V526.3z M446.5,526.3
	h7v7h-7V526.3z M453.8,526.3h7v7h-7V526.3z M461,526.3h7v7h-7V526.3z M468.3,526.3h7v7h-7V526.3z M475.6,526.3h7v7h-7V526.3z
	 M482.8,526.3h7v7h-7V526.3z M490.1,526.3h7v7h-7V526.3z M497.3,526.3h7v7h-7V526.3z M504.6,526.3h7v7h-7V526.3z M511.9,526.3h7v7
	h-7V526.3z M519.1,526.3h7v7h-7V526.3z M526.4,526.3h7v7h-7V526.3z M533.6,526.3h7v7h-7V526.3z M540.9,526.3h7v7h-7V526.3z
	 M548.2,526.3h7v7h-7V526.3z M555.4,526.3h7v7h-7V526.3z M562.7,526.3h7v7h-7V526.3z M185.2,533.6h7v7h-7V533.6z M192.4,533.6h7v7
	h-7V533.6z M199.7,533.6h7v7h-7V533.6z M206.9,533.6h7v7h-7V533.6z M214.2,533.6h7v7h-7V533.6z M221.5,533.6h7v7h-7V533.6z
	 M228.7,533.6h7v7h-7V533.6z M236,533.6h7v7h-7V533.6z M243.2,533.6h7v7h-7V533.6z M250.5,533.6h7v7h-7V533.6z M257.8,533.6h7v7h-7
	V533.6z M265,533.6h7v7h-7V533.6z M272.3,533.6h7v7h-7V533.6z M279.5,533.6h7v7h-7V533.6z M286.8,533.6h7v7h-7V533.6z M294.1,533.6
	h7v7h-7V533.6z M301.3,533.6h7v7h-7V533.6z M308.6,533.6h7v7h-7V533.6z M315.8,533.6h7v7h-7V533.6z M323.1,533.6h7v7h-7V533.6z
	 M330.4,533.6h7v7h-7V533.6z M337.6,533.6h7v7h-7V533.6z M344.9,533.6h7v7h-7V533.6z M352.1,533.6h7v7h-7V533.6z M359.4,533.6h7v7
	h-7V533.6z M366.7,533.6h7v7h-7V533.6z M373.9,533.6h7v7h-7V533.6z M381.2,533.6h7v7h-7V533.6z M388.4,533.6h7v7h-7V533.6z
	 M395.7,533.6h7v7h-7V533.6z M403,533.6h7v7h-7V533.6z M410.2,533.6h7v7h-7V533.6z M417.5,533.6h7v7h-7V533.6z M424.7,533.6h7v7h-7
	V533.6z M432,533.6h7v7h-7V533.6z M439.3,533.6h7v7h-7V533.6z M446.5,533.6h7v7h-7V533.6z M453.8,533.6h7v7h-7V533.6z M461,533.6h7
	v7h-7V533.6z M468.3,533.6h7v7h-7V533.6z M475.6,533.6h7v7h-7V533.6z M482.8,533.6h7v7h-7V533.6z M490.1,533.6h7v7h-7V533.6z
	 M497.3,533.6h7v7h-7V533.6z M504.6,533.6h7v7h-7V533.6z M511.9,533.6h7v7h-7V533.6z M519.1,533.6h7v7h-7V533.6z M526.4,533.6h7v7
	h-7V533.6z M533.6,533.6h7v7h-7V533.6z M540.9,533.6h7v7h-7V533.6z M548.2,533.6h7v7h-7V533.6z M555.4,533.6h7v7h-7V533.6z
	 M221.5,540.8h7v7h-7V540.8z M228.7,540.8h7v7h-7V540.8z M236,540.8h7v7h-7V540.8z M243.2,540.8h7v7h-7V540.8z M250.5,540.8h7v7h-7
	V540.8z M257.8,540.8h7v7h-7V540.8z M265,540.8h7v7h-7V540.8z M272.3,540.8h7v7h-7V540.8z M279.5,540.8h7v7h-7V540.8z M286.8,540.8
	h7v7h-7V540.8z M294.1,540.8h7v7h-7V540.8z M301.3,540.8h7v7h-7V540.8z M308.6,540.8h7v7h-7V540.8z M315.8,540.8h7v7h-7V540.8z
	 M323.1,540.8h7v7h-7V540.8z M330.4,540.8h7v7h-7V540.8z M337.6,540.8h7v7h-7V540.8z M344.9,540.8h7v7h-7V540.8z M352.1,540.8h7v7
	h-7V540.8z M359.4,540.8h7v7h-7V540.8z M366.7,540.8h7v7h-7V540.8z M373.9,540.8h7v7h-7V540.8z M381.2,540.8h7v7h-7V540.8z
	 M388.4,540.8h7v7h-7V540.8z M395.7,540.8h7v7h-7V540.8z M403,540.8h7v7h-7V540.8z M410.2,540.8h7v7h-7V540.8z M417.5,540.8h7v7h-7
	V540.8z M424.7,540.8h7v7h-7V540.8z M432,540.8h7v7h-7V540.8z M439.3,540.8h7v7h-7V540.8z M446.5,540.8h7v7h-7V540.8z M453.8,540.8
	h7v7h-7V540.8z M461,540.8h7v7h-7V540.8z M468.3,540.8h7v7h-7V540.8z M475.6,540.8h7v7h-7V540.8z M482.8,540.8h7v7h-7V540.8z
	 M490.1,540.8h7v7h-7V540.8z M497.3,540.8h7v7h-7V540.8z M504.6,540.8h7v7h-7V540.8z M511.9,540.8h7v7h-7V540.8z M519.1,540.8h7v7
	h-7V540.8z M526.4,540.8h7v7h-7V540.8z M533.6,540.8h7v7h-7V540.8z M540.9,540.8h7v7h-7V540.8z M257.8,548.1h7v7h-7V548.1z
	 M265,548.1h7v7h-7V548.1z M272.3,548.1h7v7h-7V548.1z M279.5,548.1h7v7h-7V548.1z M286.8,548.1h7v7h-7V548.1z M294.1,548.1h7v7h-7
	V548.1z M301.3,548.1h7v7h-7V548.1z M308.6,548.1h7v7h-7V548.1z M315.8,548.1h7v7h-7V548.1z M323.1,548.1h7v7h-7V548.1z
	 M330.4,548.1h7v7h-7V548.1z M337.6,548.1h7v7h-7V548.1z M344.9,548.1h7v7h-7V548.1z M352.1,548.1h7v7h-7V548.1z M359.4,548.1h7v7
	h-7V548.1z M366.7,548.1h7v7h-7V548.1z M373.9,548.1h7v7h-7V548.1z M381.2,548.1h7v7h-7V548.1z M388.4,548.1h7v7h-7V548.1z
	 M395.7,548.1h7v7h-7V548.1z M403,548.1h7v7h-7V548.1z M410.2,548.1h7v7h-7V548.1z M417.5,548.1h7v7h-7V548.1z M424.7,548.1h7v7h-7
	V548.1z M432,548.1h7v7h-7V548.1z M439.3,548.1h7v7h-7V548.1z M446.5,548.1h7v7h-7V548.1z M453.8,548.1h7v7h-7V548.1z M461,548.1h7
	v7h-7V548.1z M468.3,548.1h7v7h-7V548.1z M475.6,548.1h7v7h-7V548.1z M482.8,548.1h7v7h-7V548.1z M490.1,548.1h7v7h-7V548.1z
	 M497.3,548.1h7v7h-7V548.1z M504.6,548.1h7v7h-7V548.1z M511.9,548.1h7v7h-7V548.1z M519.1,548.1h7v7h-7V548.1z M526.4,548.1h7v7
	h-7V548.1z M301.3,555.4h7v7h-7V555.4z M308.6,555.4h7v7h-7V555.4z M315.8,555.4h7v7h-7V555.4z M323.1,555.4h7v7h-7V555.4z
	 M330.4,555.4h7v7h-7V555.4z M337.6,555.4h7v7h-7V555.4z M344.9,555.4h7v7h-7V555.4z M352.1,555.4h7v7h-7V555.4z M359.4,555.4h7v7
	h-7V555.4z M366.7,555.4h7v7h-7V555.4z M373.9,555.4h7v7h-7V555.4z M381.2,555.4h7v7h-7V555.4z M388.4,555.4h7v7h-7V555.4z
	 M395.7,555.4h7v7h-7V555.4z M403,555.4h7v7h-7V555.4z M410.2,555.4h7v7h-7V555.4z M417.5,555.4h7v7h-7V555.4z M424.7,555.4h7v7h-7
	V555.4z M432,555.4h7v7h-7V555.4z M439.3,555.4h7v7h-7V555.4z M446.5,555.4h7v7h-7V555.4z M453.8,555.4h7v7h-7V555.4z M461,555.4h7
	v7h-7V555.4z M468.3,555.4h7v7h-7V555.4z M475.6,555.4h7v7h-7V555.4z M482.8,555.4h7v7h-7V555.4z M490.1,555.4h7v7h-7V555.4z
	 M497.3,555.4h7v7h-7V555.4z M504.6,555.4h7v7h-7V555.4z M424.7,562.6h7v7h-7V562.6z M432,562.6h7v7h-7V562.6z M439.3,562.6h7v7h-7
	V562.6z M446.5,562.6h7v7h-7V562.6z"/>
</svg>
