<?xml version="1.0" encoding="utf-8"?>
<!-- Generator: Adobe Illustrator 27.3.1, SVG Export Plug-In . SVG Version: 6.00 Build 0)  -->
<svg version="1.1" id="Слой_1" xmlns:ev="http://www.w3.org/2001/xml-events"
	 xmlns="http://www.w3.org/2000/svg" xmlns:xlink="http://www.w3.org/1999/xlink" x="0px" y="0px" viewBox="0 0 871 595"
	 style="enable-background:new 0 0 871 595;" xml:space="preserve">
<style type="text/css">
	.st0{fill:#1E0E01;}
</style>
<path class="st0" d="M392,0h7v7h-7V0z M399.3,0h7v7h-7V0z M406.6,7.3h7v7h-7V7.3z M413.8,7.3h7v7h-7V7.3z M413.8,14.5h7v7h-7V14.5z
	 M421.1,14.5h7v7h-7V14.5z M428.3,14.5h7v7h-7V14.5z M435.6,14.5h7v7h-7V14.5z M551.8,14.5h7v7h-7V14.5z M559,14.5h7v7h-7V14.5z
	 M566.3,14.5h7v7h-7V14.5z M421.1,21.8h7v7h-7V21.8z M428.3,21.8h7v7h-7V21.8z M435.6,21.8h7v7h-7V21.8z M442.9,21.8h7v7h-7V21.8z
	 M450.1,21.8h7v7h-7V21.8z M537.2,21.8h7v7h-7V21.8z M544.5,21.8h7v7h-7V21.8z M551.8,21.8h7v7h-7V21.8z M566.3,21.8h7v7h-7V21.8z
	 M573.5,21.8h7v7h-7V21.8z M580.8,21.8h7v7h-7V21.8z M588.1,21.8h7v7h-7V21.8z M421.1,29h7v7h-7V29z M428.3,29h7v7h-7V29z M435.6,29
	h7v7h-7V29z M450.1,29h7v7h-7V29z M457.4,29h7v7h-7V29z M530,29h7v7h-7V29z M537.2,29h7v7h-7V29z M588.1,29h7v7h-7V29z M595.3,29h7
	v7h-7V29z M667.9,29h7v7h-7V29z M675.2,29h7v7h-7V29z M682.4,29h7v7h-7V29z M689.7,29h7v7h-7V29z M421.1,36.3h7v7h-7V36.3z
	 M428.3,36.3h7v7h-7V36.3z M457.4,36.3h7v7h-7V36.3z M464.6,36.3h7v7h-7V36.3z M471.9,36.3h7v7h-7V36.3z M515.5,36.3h7v7h-7V36.3z
	 M522.7,36.3h7v7h-7V36.3z M602.6,36.3h7v7h-7V36.3z M660.7,36.3h7v7h-7V36.3z M667.9,36.3h7v7h-7V36.3z M675.2,36.3h7v7h-7V36.3z
	 M689.7,36.3h7v7h-7V36.3z M697,36.3h7v7h-7V36.3z M428.3,43.6h7v7h-7V43.6z M457.4,43.6h7v7h-7V43.6z M464.6,43.6h7v7h-7V43.6z
	 M471.9,43.6h7v7h-7V43.6z M479.2,43.6h7v7h-7V43.6z M508.2,43.6h7v7h-7V43.6z M515.5,43.6h7v7h-7V43.6z M609.8,43.6h7v7h-7V43.6z
	 M624.4,43.6h7v7h-7V43.6z M631.6,43.6h7v7h-7V43.6z M638.9,43.6h7v7h-7V43.6z M646.1,43.6h7v7h-7V43.6z M653.4,43.6h7v7h-7V43.6z
	 M660.7,43.6h7v7h-7V43.6z M667.9,43.6h7v7h-7V43.6z M697,43.6h7v7h-7V43.6z M326.7,50.8h7v7h-7V50.8z M428.3,50.8h7v7h-7V50.8z
	 M442.9,50.8h7v7h-7V50.8z M471.9,50.8h7v7h-7V50.8z M479.2,50.8h7v7h-7V50.8z M486.4,50.8h7v7h-7V50.8z M508.2,50.8h7v7h-7V50.8z
	 M609.8,50.8h7v7h-7V50.8z M617.1,50.8h7v7h-7V50.8z M624.4,50.8h7v7h-7V50.8z M697,50.8h7v7h-7V50.8z M704.2,50.8h7v7h-7V50.8z
	 M326.7,58.1h7v7h-7V58.1z M428.3,58.1h7v7h-7V58.1z M435.6,58.1h7v7h-7V58.1z M450.1,58.1h7v7h-7V58.1z M464.6,58.1h7v7h-7V58.1z
	 M479.2,58.1h7v7h-7V58.1z M486.4,58.1h7v7h-7V58.1z M493.7,58.1h7v7h-7V58.1z M508.2,58.1h7v7h-7V58.1z M609.8,58.1h7v7h-7V58.1z
	 M617.1,58.1h7v7h-7V58.1z M704.2,58.1h7v7h-7V58.1z M326.7,65.3h7v7h-7V65.3z M334,65.3h7v7h-7V65.3z M435.6,65.3h7v7h-7V65.3z
	 M450.1,65.3h7v7h-7V65.3z M457.4,65.3h7v7h-7V65.3z M464.6,65.3h7v7h-7V65.3z M479.2,65.3h7v7h-7V65.3z M493.7,65.3h7v7h-7V65.3z
	 M508.2,65.3h7v7h-7V65.3z M609.8,65.3h7v7h-7V65.3z M617.1,65.3h7v7h-7V65.3z M704.2,65.3h7v7h-7V65.3z M334,72.6h7v7h-7V72.6z
	 M341.2,72.6h7v7h-7V72.6z M435.6,72.6h7v7h-7V72.6z M442.9,72.6h7v7h-7V72.6z M457.4,72.6h7v7h-7V72.6z M464.6,72.6h7v7h-7V72.6z
	 M471.9,72.6h7v7h-7V72.6z M493.7,72.6h7v7h-7V72.6z M500.9,72.6h7v7h-7V72.6z M508.2,72.6h7v7h-7V72.6z M609.8,72.6h7v7h-7V72.6z
	 M653.4,72.6h7v7h-7V72.6z M660.7,72.6h7v7h-7V72.6z M667.9,72.6h7v7h-7V72.6z M704.2,72.6h7v7h-7V72.6z M334,79.9h7v7h-7V79.9z
	 M341.2,79.9h7v7h-7V79.9z M348.5,79.9h7v7h-7V79.9z M355.7,79.9h7v7h-7V79.9z M363,79.9h7v7h-7V79.9z M370.3,79.9h7v7h-7V79.9z
	 M377.5,79.9h7v7h-7V79.9z M384.8,79.9h7v7h-7V79.9z M399.3,79.9h7v7h-7V79.9z M442.9,79.9h7v7h-7V79.9z M457.4,79.9h7v7h-7V79.9z
	 M464.6,79.9h7v7h-7V79.9z M471.9,79.9h7v7h-7V79.9z M500.9,79.9h7v7h-7V79.9z M508.2,79.9h7v7h-7V79.9z M515.5,79.9h7v7h-7V79.9z
	 M580.8,79.9h7v7h-7V79.9z M602.6,79.9h7v7h-7V79.9z M609.8,79.9h7v7h-7V79.9z M646.1,79.9h7v7h-7V79.9z M653.4,79.9h7v7h-7V79.9z
	 M660.7,79.9h7v7h-7V79.9z M667.9,79.9h7v7h-7V79.9z M675.2,79.9h7v7h-7V79.9z M704.2,79.9h7v7h-7V79.9z M711.5,79.9h7v7h-7V79.9z
	 M348.5,87.1h7v7h-7V87.1z M355.7,87.1h7v7h-7V87.1z M363,87.1h7v7h-7V87.1z M370.3,87.1h7v7h-7V87.1z M377.5,87.1h7v7h-7V87.1z
	 M384.8,87.1h7v7h-7V87.1z M392,87.1h7v7h-7V87.1z M399.3,87.1h7v7h-7V87.1z M406.6,87.1h7v7h-7V87.1z M413.8,87.1h7v7h-7V87.1z
	 M442.9,87.1h7v7h-7V87.1z M450.1,87.1h7v7h-7V87.1z M464.6,87.1h7v7h-7V87.1z M471.9,87.1h7v7h-7V87.1z M479.2,87.1h7v7h-7V87.1z
	 M500.9,87.1h7v7h-7V87.1z M508.2,87.1h7v7h-7V87.1z M515.5,87.1h7v7h-7V87.1z M522.7,87.1h7v7h-7V87.1z M530,87.1h7v7h-7V87.1z
	 M580.8,87.1h7v7h-7V87.1z M595.3,87.1h7v7h-7V87.1z M602.6,87.1h7v7h-7V87.1z M624.4,87.1h7v7h-7V87.1z M631.6,87.1h7v7h-7V87.1z
	 M638.9,87.1h7v7h-7V87.1z M646.1,87.1h7v7h-7V87.1z M675.2,87.1h7v7h-7V87.1z M682.4,87.1h7v7h-7V87.1z M711.5,87.1h7v7h-7V87.1z
	 M399.3,94.4h7v7h-7V94.4z M406.6,94.4h7v7h-7V94.4z M421.1,94.4h7v7h-7V94.4z M428.3,94.4h7v7h-7V94.4z M435.6,94.4h7v7h-7V94.4z
	 M450.1,94.4h7v7h-7V94.4z M471.9,94.4h7v7h-7V94.4z M479.2,94.4h7v7h-7V94.4z M493.7,94.4h7v7h-7V94.4z M500.9,94.4h7v7h-7V94.4z
	 M544.5,94.4h7v7h-7V94.4z M573.5,94.4h7v7h-7V94.4z M595.3,94.4h7v7h-7V94.4z M602.6,94.4h7v7h-7V94.4z M609.8,94.4h7v7h-7V94.4z
	 M617.1,94.4h7v7h-7V94.4z M624.4,94.4h7v7h-7V94.4z M631.6,94.4h7v7h-7V94.4z M682.4,94.4h7v7h-7V94.4z M689.7,94.4h7v7h-7V94.4z
	 M711.5,94.4h7v7h-7V94.4z M348.5,101.6h7v7h-7V101.6z M363,101.6h7v7h-7V101.6z M428.3,101.6h7v7h-7V101.6z M435.6,101.6h7v7h-7
	V101.6z M442.9,101.6h7v7h-7V101.6z M450.1,101.6h7v7h-7V101.6z M457.4,101.6h7v7h-7V101.6z M471.9,101.6h7v7h-7V101.6z
	 M479.2,101.6h7v7h-7V101.6z M486.4,101.6h7v7h-7V101.6z M493.7,101.6h7v7h-7V101.6z M551.8,101.6h7v7h-7V101.6z M566.3,101.6h7v7
	h-7V101.6z M573.5,101.6h7v7h-7V101.6z M588.1,101.6h7v7h-7V101.6z M595.3,101.6h7v7h-7V101.6z M689.7,101.6h7v7h-7V101.6z
	 M697,101.6h7v7h-7V101.6z M711.5,101.6h7v7h-7V101.6z M348.5,108.9h7v7h-7V108.9z M370.3,108.9h7v7h-7V108.9z M377.5,108.9h7v7h-7
	V108.9z M392,108.9h7v7h-7V108.9z M450.1,108.9h7v7h-7V108.9z M457.4,108.9h7v7h-7V108.9z M464.6,108.9h7v7h-7V108.9z M479.2,108.9
	h7v7h-7V108.9z M486.4,108.9h7v7h-7V108.9z M551.8,108.9h7v7h-7V108.9z M559,108.9h7v7h-7V108.9z M566.3,108.9h7v7h-7V108.9z
	 M573.5,108.9h7v7h-7V108.9z M580.8,108.9h7v7h-7V108.9z M588.1,108.9h7v7h-7V108.9z M609.8,108.9h7v7h-7V108.9z M617.1,108.9h7v7
	h-7V108.9z M624.4,108.9h7v7h-7V108.9z M697,108.9h7v7h-7V108.9z M704.2,108.9h7v7h-7V108.9z M711.5,108.9h7v7h-7V108.9z
	 M348.5,116.2h7v7h-7V116.2z M355.7,116.2h7v7h-7V116.2z M363,116.2h7v7h-7V116.2z M377.5,116.2h7v7h-7V116.2z M392,116.2h7v7h-7
	V116.2z M399.3,116.2h7v7h-7V116.2z M450.1,116.2h7v7h-7V116.2z M457.4,116.2h7v7h-7V116.2z M464.6,116.2h7v7h-7V116.2z
	 M479.2,116.2h7v7h-7V116.2z M522.7,116.2h7v7h-7V116.2z M530,116.2h7v7h-7V116.2z M537.2,116.2h7v7h-7V116.2z M580.8,116.2h7v7h-7
	V116.2z M595.3,116.2h7v7h-7V116.2z M602.6,116.2h7v7h-7V116.2z M609.8,116.2h7v7h-7V116.2z M617.1,116.2h7v7h-7V116.2z
	 M624.4,116.2h7v7h-7V116.2z M631.6,116.2h7v7h-7V116.2z M638.9,116.2h7v7h-7V116.2z M711.5,116.2h7v7h-7V116.2z M348.5,123.4h7v7
	h-7V123.4z M355.7,123.4h7v7h-7V123.4z M363,123.4h7v7h-7V123.4z M370.3,123.4h7v7h-7V123.4z M399.3,123.4h7v7h-7V123.4z
	 M428.3,123.4h7v7h-7V123.4z M457.4,123.4h7v7h-7V123.4z M464.6,123.4h7v7h-7V123.4z M471.9,123.4h7v7h-7V123.4z M479.2,123.4h7v7
	h-7V123.4z M515.5,123.4h7v7h-7V123.4z M522.7,123.4h7v7h-7V123.4z M580.8,123.4h7v7h-7V123.4z M588.1,123.4h7v7h-7V123.4z
	 M595.3,123.4h7v7h-7V123.4z M646.1,123.4h7v7h-7V123.4z M711.5,123.4h7v7h-7V123.4z M718.7,123.4h7v7h-7V123.4z M217.8,130.7h7v7
	h-7V130.7z M225.1,130.7h7v7h-7V130.7z M232.3,130.7h7v7h-7V130.7z M239.6,130.7h7v7h-7V130.7z M246.8,130.7h7v7h-7V130.7z
	 M254.1,130.7h7v7h-7V130.7z M261.4,130.7h7v7h-7V130.7z M348.5,130.7h7v7h-7V130.7z M355.7,130.7h7v7h-7V130.7z M370.3,130.7h7v7
	h-7V130.7z M377.5,130.7h7v7h-7V130.7z M384.8,130.7h7v7h-7V130.7z M399.3,130.7h7v7h-7V130.7z M428.3,130.7h7v7h-7V130.7z
	 M435.6,130.7h7v7h-7V130.7z M464.6,130.7h7v7h-7V130.7z M471.9,130.7h7v7h-7V130.7z M479.2,130.7h7v7h-7V130.7z M515.5,130.7h7v7
	h-7V130.7z M573.5,130.7h7v7h-7V130.7z M580.8,130.7h7v7h-7V130.7z M653.4,130.7h7v7h-7V130.7z M718.7,130.7h7v7h-7V130.7z
	 M726,130.7h7v7h-7V130.7z M196,137.9h7v7h-7V137.9z M203.3,137.9h7v7h-7V137.9z M210.5,137.9h7v7h-7V137.9z M217.8,137.9h7v7h-7
	V137.9z M225.1,137.9h7v7h-7V137.9z M254.1,137.9h7v7h-7V137.9z M261.4,137.9h7v7h-7V137.9z M268.6,137.9h7v7h-7V137.9z
	 M275.9,137.9h7v7h-7V137.9z M283.1,137.9h7v7h-7V137.9z M348.5,137.9h7v7h-7V137.9z M355.7,137.9h7v7h-7V137.9z M370.3,137.9h7v7
	h-7V137.9z M377.5,137.9h7v7h-7V137.9z M384.8,137.9h7v7h-7V137.9z M392,137.9h7v7h-7V137.9z M399.3,137.9h7v7h-7V137.9z
	 M435.6,137.9h7v7h-7V137.9z M464.6,137.9h7v7h-7V137.9z M471.9,137.9h7v7h-7V137.9z M508.2,137.9h7v7h-7V137.9z M515.5,137.9h7v7
	h-7V137.9z M566.3,137.9h7v7h-7V137.9z M573.5,137.9h7v7h-7V137.9z M653.4,137.9h7v7h-7V137.9z M726,137.9h7v7h-7V137.9z
	 M733.3,137.9h7v7h-7V137.9z M167,145.2h7v7h-7V145.2z M174.2,145.2h7v7h-7V145.2z M181.5,145.2h7v7h-7V145.2z M188.8,145.2h7v7h-7
	V145.2z M196,145.2h7v7h-7V145.2z M203.3,145.2h7v7h-7V145.2z M210.5,145.2h7v7h-7V145.2z M217.8,145.2h7v7h-7V145.2z M225.1,145.2
	h7v7h-7V145.2z M268.6,145.2h7v7h-7V145.2z M275.9,145.2h7v7h-7V145.2z M283.1,145.2h7v7h-7V145.2z M290.4,145.2h7v7h-7V145.2z
	 M297.7,145.2h7v7h-7V145.2z M304.9,145.2h7v7h-7V145.2z M355.7,145.2h7v7h-7V145.2z M384.8,145.2h7v7h-7V145.2z M392,145.2h7v7h-7
	V145.2z M399.3,145.2h7v7h-7V145.2z M406.6,145.2h7v7h-7V145.2z M435.6,145.2h7v7h-7V145.2z M457.4,145.2h7v7h-7V145.2z
	 M464.6,145.2h7v7h-7V145.2z M471.9,145.2h7v7h-7V145.2z M508.2,145.2h7v7h-7V145.2z M566.3,145.2h7v7h-7V145.2z M573.5,145.2h7v7
	h-7V145.2z M653.4,145.2h7v7h-7V145.2z M733.3,145.2h7v7h-7V145.2z M740.5,145.2h7v7h-7V145.2z M210.5,152.5h7v7h-7V152.5z
	 M217.8,152.5h7v7h-7V152.5z M225.1,152.5h7v7h-7V152.5z M232.3,152.5h7v7h-7V152.5z M239.6,152.5h7v7h-7V152.5z M275.9,152.5h7v7
	h-7V152.5z M283.1,152.5h7v7h-7V152.5z M297.7,152.5h7v7h-7V152.5z M304.9,152.5h7v7h-7V152.5z M312.2,152.5h7v7h-7V152.5z
	 M355.7,152.5h7v7h-7V152.5z M363,152.5h7v7h-7V152.5z M370.3,152.5h7v7h-7V152.5z M377.5,152.5h7v7h-7V152.5z M384.8,152.5h7v7h-7
	V152.5z M392,152.5h7v7h-7V152.5z M399.3,152.5h7v7h-7V152.5z M406.6,152.5h7v7h-7V152.5z M413.8,152.5h7v7h-7V152.5z M435.6,152.5
	h7v7h-7V152.5z M450.1,152.5h7v7h-7V152.5z M457.4,152.5h7v7h-7V152.5z M471.9,152.5h7v7h-7V152.5z M508.2,152.5h7v7h-7V152.5z
	 M559,152.5h7v7h-7V152.5z M566.3,152.5h7v7h-7V152.5z M573.5,152.5h7v7h-7V152.5z M646.1,152.5h7v7h-7V152.5z M653.4,152.5h7v7h-7
	V152.5z M660.7,152.5h7v7h-7V152.5z M667.9,152.5h7v7h-7V152.5z M697,152.5h7v7h-7V152.5z M704.2,152.5h7v7h-7V152.5z M740.5,152.5
	h7v7h-7V152.5z M747.8,152.5h7v7h-7V152.5z M232.3,159.7h7v7h-7V159.7z M239.6,159.7h7v7h-7V159.7z M246.8,159.7h7v7h-7V159.7z
	 M254.1,159.7h7v7h-7V159.7z M261.4,159.7h7v7h-7V159.7z M268.6,159.7h7v7h-7V159.7z M275.9,159.7h7v7h-7V159.7z M283.1,159.7h7v7
	h-7V159.7z M290.4,159.7h7v7h-7V159.7z M312.2,159.7h7v7h-7V159.7z M319.4,159.7h7v7h-7V159.7z M355.7,159.7h7v7h-7V159.7z
	 M363,159.7h7v7h-7V159.7z M413.8,159.7h7v7h-7V159.7z M421.1,159.7h7v7h-7V159.7z M435.6,159.7h7v7h-7V159.7z M442.9,159.7h7v7h-7
	V159.7z M450.1,159.7h7v7h-7V159.7z M471.9,159.7h7v7h-7V159.7z M479.2,159.7h7v7h-7V159.7z M500.9,159.7h7v7h-7V159.7z
	 M508.2,159.7h7v7h-7V159.7z M551.8,159.7h7v7h-7V159.7z M559,159.7h7v7h-7V159.7z M566.3,159.7h7v7h-7V159.7z M573.5,159.7h7v7h-7
	V159.7z M602.6,159.7h7v7h-7V159.7z M638.9,159.7h7v7h-7V159.7z M646.1,159.7h7v7h-7V159.7z M653.4,159.7h7v7h-7V159.7z
	 M660.7,159.7h7v7h-7V159.7z M667.9,159.7h7v7h-7V159.7z M675.2,159.7h7v7h-7V159.7z M711.5,159.7h7v7h-7V159.7z M718.7,159.7h7v7
	h-7V159.7z M733.3,159.7h7v7h-7V159.7z M740.5,159.7h7v7h-7V159.7z M747.8,159.7h7v7h-7V159.7z M246.8,167h7v7h-7V167z M254.1,167h7
	v7h-7V167z M283.1,167h7v7h-7V167z M290.4,167h7v7h-7V167z M297.7,167h7v7h-7V167z M312.2,167h7v7h-7V167z M326.7,167h7v7h-7V167z
	 M341.2,167h7v7h-7V167z M348.5,167h7v7h-7V167z M355.7,167h7v7h-7V167z M363,167h7v7h-7V167z M377.5,167h7v7h-7V167z M384.8,167h7
	v7h-7V167z M392,167h7v7h-7V167z M399.3,167h7v7h-7V167z M406.6,167h7v7h-7V167z M413.8,167h7v7h-7V167z M421.1,167h7v7h-7V167z
	 M428.3,167h7v7h-7V167z M435.6,167h7v7h-7V167z M442.9,167h7v7h-7V167z M471.9,167h7v7h-7V167z M479.2,167h7v7h-7V167z M500.9,167
	h7v7h-7V167z M551.8,167h7v7h-7V167z M559,167h7v7h-7V167z M566.3,167h7v7h-7V167z M573.5,167h7v7h-7V167z M595.3,167h7v7h-7V167z
	 M602.6,167h7v7h-7V167z M609.8,167h7v7h-7V167z M631.6,167h7v7h-7V167z M638.9,167h7v7h-7V167z M646.1,167h7v7h-7V167z M682.4,167
	h7v7h-7V167z M726,167h7v7h-7V167z M747.8,167h7v7h-7V167z M261.4,174.2h7v7h-7V174.2z M268.6,174.2h7v7h-7V174.2z M275.9,174.2h7v7
	h-7V174.2z M297.7,174.2h7v7h-7V174.2z M312.2,174.2h7v7h-7V174.2z M334,174.2h7v7h-7V174.2z M341.2,174.2h7v7h-7V174.2z
	 M348.5,174.2h7v7h-7V174.2z M355.7,174.2h7v7h-7V174.2z M363,174.2h7v7h-7V174.2z M384.8,174.2h7v7h-7V174.2z M392,174.2h7v7h-7
	V174.2z M399.3,174.2h7v7h-7V174.2z M406.6,174.2h7v7h-7V174.2z M428.3,174.2h7v7h-7V174.2z M435.6,174.2h7v7h-7V174.2z
	 M442.9,174.2h7v7h-7V174.2z M471.9,174.2h7v7h-7V174.2z M479.2,174.2h7v7h-7V174.2z M500.9,174.2h7v7h-7V174.2z M544.5,174.2h7v7
	h-7V174.2z M551.8,174.2h7v7h-7V174.2z M559,174.2h7v7h-7V174.2z M566.3,174.2h7v7h-7V174.2z M573.5,174.2h7v7h-7V174.2z
	 M588.1,174.2h7v7h-7V174.2z M595.3,174.2h7v7h-7V174.2z M602.6,174.2h7v7h-7V174.2z M609.8,174.2h7v7h-7V174.2z M617.1,174.2h7v7
	h-7V174.2z M624.4,174.2h7v7h-7V174.2z M631.6,174.2h7v7h-7V174.2z M638.9,174.2h7v7h-7V174.2z M689.7,174.2h7v7h-7V174.2z
	 M733.3,174.2h7v7h-7V174.2z M740.5,174.2h7v7h-7V174.2z M747.8,174.2h7v7h-7V174.2z M268.6,181.5h7v7h-7V181.5z M275.9,181.5h7v7
	h-7V181.5z M283.1,181.5h7v7h-7V181.5z M297.7,181.5h7v7h-7V181.5z M304.9,181.5h7v7h-7V181.5z M312.2,181.5h7v7h-7V181.5z
	 M334,181.5h7v7h-7V181.5z M341.2,181.5h7v7h-7V181.5z M348.5,181.5h7v7h-7V181.5z M355.7,181.5h7v7h-7V181.5z M363,181.5h7v7h-7
	V181.5z M370.3,181.5h7v7h-7V181.5z M428.3,181.5h7v7h-7V181.5z M435.6,181.5h7v7h-7V181.5z M471.9,181.5h7v7h-7V181.5z
	 M479.2,181.5h7v7h-7V181.5z M500.9,181.5h7v7h-7V181.5z M544.5,181.5h7v7h-7V181.5z M551.8,181.5h7v7h-7V181.5z M559,181.5h7v7h-7
	V181.5z M573.5,181.5h7v7h-7V181.5z M580.8,181.5h7v7h-7V181.5z M624.4,181.5h7v7h-7V181.5z M631.6,181.5h7v7h-7V181.5z
	 M638.9,181.5h7v7h-7V181.5z M689.7,181.5h7v7h-7V181.5z M733.3,181.5h7v7h-7V181.5z M740.5,181.5h7v7h-7V181.5z M275.9,188.8h7v7
	h-7V188.8z M283.1,188.8h7v7h-7V188.8z M290.4,188.8h7v7h-7V188.8z M304.9,188.8h7v7h-7V188.8z M319.4,188.8h7v7h-7V188.8z
	 M326.7,188.8h7v7h-7V188.8z M355.7,188.8h7v7h-7V188.8z M363,188.8h7v7h-7V188.8z M370.3,188.8h7v7h-7V188.8z M421.1,188.8h7v7h-7
	V188.8z M428.3,188.8h7v7h-7V188.8z M435.6,188.8h7v7h-7V188.8z M471.9,188.8h7v7h-7V188.8z M479.2,188.8h7v7h-7V188.8z
	 M500.9,188.8h7v7h-7V188.8z M537.2,188.8h7v7h-7V188.8z M544.5,188.8h7v7h-7V188.8z M566.3,188.8h7v7h-7V188.8z M573.5,188.8h7v7
	h-7V188.8z M580.8,188.8h7v7h-7V188.8z M631.6,188.8h7v7h-7V188.8z M638.9,188.8h7v7h-7V188.8z M646.1,188.8h7v7h-7V188.8z
	 M697,188.8h7v7h-7V188.8z M740.5,188.8h7v7h-7V188.8z M747.8,188.8h7v7h-7V188.8z M145.2,196h7v7h-7V196z M152.5,196h7v7h-7V196z
	 M159.7,196h7v7h-7V196z M167,196h7v7h-7V196z M181.5,196h7v7h-7V196z M188.8,196h7v7h-7V196z M283.1,196h7v7h-7V196z M290.4,196h7
	v7h-7V196z M297.7,196h7v7h-7V196z M304.9,196h7v7h-7V196z M312.2,196h7v7h-7V196z M319.4,196h7v7h-7V196z M326.7,196h7v7h-7V196z
	 M355.7,196h7v7h-7V196z M370.3,196h7v7h-7V196z M377.5,196h7v7h-7V196z M384.8,196h7v7h-7V196z M392,196h7v7h-7V196z M399.3,196h7
	v7h-7V196z M406.6,196h7v7h-7V196z M413.8,196h7v7h-7V196z M421.1,196h7v7h-7V196z M428.3,196h7v7h-7V196z M435.6,196h7v7h-7V196z
	 M471.9,196h7v7h-7V196z M479.2,196h7v7h-7V196z M500.9,196h7v7h-7V196z M530,196h7v7h-7V196z M537.2,196h7v7h-7V196z M559,196h7v7
	h-7V196z M566.3,196h7v7h-7V196z M573.5,196h7v7h-7V196z M624.4,196h7v7h-7V196z M646.1,196h7v7h-7V196z M653.4,196h7v7h-7V196z
	 M660.7,196h7v7h-7V196z M697,196h7v7h-7V196z M747.8,196h7v7h-7V196z M116.2,203.3h7v7h-7V203.3z M123.4,203.3h7v7h-7V203.3z
	 M130.7,203.3h7v7h-7V203.3z M137.9,203.3h7v7h-7V203.3z M145.2,203.3h7v7h-7V203.3z M159.7,203.3h7v7h-7V203.3z M167,203.3h7v7h-7
	V203.3z M174.2,203.3h7v7h-7V203.3z M188.8,203.3h7v7h-7V203.3z M196,203.3h7v7h-7V203.3z M297.7,203.3h7v7h-7V203.3z M304.9,203.3
	h7v7h-7V203.3z M312.2,203.3h7v7h-7V203.3z M319.4,203.3h7v7h-7V203.3z M326.7,203.3h7v7h-7V203.3z M334,203.3h7v7h-7V203.3z
	 M355.7,203.3h7v7h-7V203.3z M377.5,203.3h7v7h-7V203.3z M384.8,203.3h7v7h-7V203.3z M392,203.3h7v7h-7V203.3z M399.3,203.3h7v7h-7
	V203.3z M406.6,203.3h7v7h-7V203.3z M413.8,203.3h7v7h-7V203.3z M428.3,203.3h7v7h-7V203.3z M435.6,203.3h7v7h-7V203.3z
	 M471.9,203.3h7v7h-7V203.3z M479.2,203.3h7v7h-7V203.3z M500.9,203.3h7v7h-7V203.3z M530,203.3h7v7h-7V203.3z M537.2,203.3h7v7h-7
	V203.3z M551.8,203.3h7v7h-7V203.3z M559,203.3h7v7h-7V203.3z M624.4,203.3h7v7h-7V203.3z M660.7,203.3h7v7h-7V203.3z M667.9,203.3
	h7v7h-7V203.3z M675.2,203.3h7v7h-7V203.3z M697,203.3h7v7h-7V203.3z M704.2,203.3h7v7h-7V203.3z M747.8,203.3h7v7h-7V203.3z
	 M101.6,210.5h7v7h-7V210.5z M108.9,210.5h7v7h-7V210.5z M116.2,210.5h7v7h-7V210.5z M123.4,210.5h7v7h-7V210.5z M188.8,210.5h7v7
	h-7V210.5z M203.3,210.5h7v7h-7V210.5z M210.5,210.5h7v7h-7V210.5z M217.8,210.5h7v7h-7V210.5z M297.7,210.5h7v7h-7V210.5z
	 M304.9,210.5h7v7h-7V210.5z M312.2,210.5h7v7h-7V210.5z M319.4,210.5h7v7h-7V210.5z M326.7,210.5h7v7h-7V210.5z M348.5,210.5h7v7
	h-7V210.5z M355.7,210.5h7v7h-7V210.5z M384.8,210.5h7v7h-7V210.5z M392,210.5h7v7h-7V210.5z M428.3,210.5h7v7h-7V210.5z
	 M435.6,210.5h7v7h-7V210.5z M471.9,210.5h7v7h-7V210.5z M479.2,210.5h7v7h-7V210.5z M500.9,210.5h7v7h-7V210.5z M508.2,210.5h7v7
	h-7V210.5z M537.2,210.5h7v7h-7V210.5z M544.5,210.5h7v7h-7V210.5z M624.4,210.5h7v7h-7V210.5z M631.6,210.5h7v7h-7V210.5z
	 M638.9,210.5h7v7h-7V210.5z M646.1,210.5h7v7h-7V210.5z M653.4,210.5h7v7h-7V210.5z M660.7,210.5h7v7h-7V210.5z M667.9,210.5h7v7
	h-7V210.5z M675.2,210.5h7v7h-7V210.5z M682.4,210.5h7v7h-7V210.5z M689.7,210.5h7v7h-7V210.5z M697,210.5h7v7h-7V210.5z
	 M747.8,210.5h7v7h-7V210.5z M94.4,217.8h7v7h-7V217.8z M101.6,217.8h7v7h-7V217.8z M108.9,217.8h7v7h-7V217.8z M210.5,217.8h7v7h-7
	V217.8z M217.8,217.8h7v7h-7V217.8z M225.1,217.8h7v7h-7V217.8z M304.9,217.8h7v7h-7V217.8z M312.2,217.8h7v7h-7V217.8z
	 M319.4,217.8h7v7h-7V217.8z M326.7,217.8h7v7h-7V217.8z M334,217.8h7v7h-7V217.8z M341.2,217.8h7v7h-7V217.8z M348.5,217.8h7v7h-7
	V217.8z M384.8,217.8h7v7h-7V217.8z M392,217.8h7v7h-7V217.8z M399.3,217.8h7v7h-7V217.8z M406.6,217.8h7v7h-7V217.8z M413.8,217.8
	h7v7h-7V217.8z M421.1,217.8h7v7h-7V217.8z M428.3,217.8h7v7h-7V217.8z M435.6,217.8h7v7h-7V217.8z M479.2,217.8h7v7h-7V217.8z
	 M486.4,217.8h7v7h-7V217.8z M500.9,217.8h7v7h-7V217.8z M508.2,217.8h7v7h-7V217.8z M537.2,217.8h7v7h-7V217.8z M544.5,217.8h7v7
	h-7V217.8z M551.8,217.8h7v7h-7V217.8z M624.4,217.8h7v7h-7V217.8z M631.6,217.8h7v7h-7V217.8z M653.4,217.8h7v7h-7V217.8z
	 M660.7,217.8h7v7h-7V217.8z M689.7,217.8h7v7h-7V217.8z M747.8,217.8h7v7h-7V217.8z M87.1,225.1h7v7h-7V225.1z M94.4,225.1h7v7h-7
	V225.1z M137.9,225.1h7v7h-7V225.1z M145.2,225.1h7v7h-7V225.1z M152.5,225.1h7v7h-7V225.1z M217.8,225.1h7v7h-7V225.1z
	 M225.1,225.1h7v7h-7V225.1z M232.3,225.1h7v7h-7V225.1z M312.2,225.1h7v7h-7V225.1z M319.4,225.1h7v7h-7V225.1z M326.7,225.1h7v7
	h-7V225.1z M334,225.1h7v7h-7V225.1z M341.2,225.1h7v7h-7V225.1z M348.5,225.1h7v7h-7V225.1z M399.3,225.1h7v7h-7V225.1z
	 M406.6,225.1h7v7h-7V225.1z M413.8,225.1h7v7h-7V225.1z M435.6,225.1h7v7h-7V225.1z M486.4,225.1h7v7h-7V225.1z M493.7,225.1h7v7
	h-7V225.1z M500.9,225.1h7v7h-7V225.1z M508.2,225.1h7v7h-7V225.1z M515.5,225.1h7v7h-7V225.1z M537.2,225.1h7v7h-7V225.1z
	 M551.8,225.1h7v7h-7V225.1z M624.4,225.1h7v7h-7V225.1z M631.6,225.1h7v7h-7V225.1z M646.1,225.1h7v7h-7V225.1z M653.4,225.1h7v7
	h-7V225.1z M660.7,225.1h7v7h-7V225.1z M667.9,225.1h7v7h-7V225.1z M697,225.1h7v7h-7V225.1z M726,225.1h7v7h-7V225.1z M747.8,225.1
	h7v7h-7V225.1z M79.9,232.3h7v7h-7V232.3z M87.1,232.3h7v7h-7V232.3z M108.9,232.3h7v7h-7V232.3z M116.2,232.3h7v7h-7V232.3z
	 M137.9,232.3h7v7h-7V232.3z M159.7,232.3h7v7h-7V232.3z M181.5,232.3h7v7h-7V232.3z M203.3,232.3h7v7h-7V232.3z M239.6,232.3h7v7
	h-7V232.3z M246.8,232.3h7v7h-7V232.3z M312.2,232.3h7v7h-7V232.3z M319.4,232.3h7v7h-7V232.3z M326.7,232.3h7v7h-7V232.3z
	 M334,232.3h7v7h-7V232.3z M348.5,232.3h7v7h-7V232.3z M355.7,232.3h7v7h-7V232.3z M363,232.3h7v7h-7V232.3z M370.3,232.3h7v7h-7
	V232.3z M377.5,232.3h7v7h-7V232.3z M406.6,232.3h7v7h-7V232.3z M413.8,232.3h7v7h-7V232.3z M421.1,232.3h7v7h-7V232.3z
	 M428.3,232.3h7v7h-7V232.3z M435.6,232.3h7v7h-7V232.3z M442.9,232.3h7v7h-7V232.3z M493.7,232.3h7v7h-7V232.3z M500.9,232.3h7v7
	h-7V232.3z M508.2,232.3h7v7h-7V232.3z M515.5,232.3h7v7h-7V232.3z M537.2,232.3h7v7h-7V232.3z M559,232.3h7v7h-7V232.3z
	 M573.5,232.3h7v7h-7V232.3z M624.4,232.3h7v7h-7V232.3z M631.6,232.3h7v7h-7V232.3z M638.9,232.3h7v7h-7V232.3z M646.1,232.3h7v7
	h-7V232.3z M653.4,232.3h7v7h-7V232.3z M667.9,232.3h7v7h-7V232.3z M675.2,232.3h7v7h-7V232.3z M733.3,232.3h7v7h-7V232.3z
	 M747.8,232.3h7v7h-7V232.3z M50.8,239.6h7v7h-7V239.6z M72.6,239.6h7v7h-7V239.6z M79.9,239.6h7v7h-7V239.6z M116.2,239.6h7v7h-7
	V239.6z M123.4,239.6h7v7h-7V239.6z M130.7,239.6h7v7h-7V239.6z M167,239.6h7v7h-7V239.6z M188.8,239.6h7v7h-7V239.6z M210.5,239.6
	h7v7h-7V239.6z M232.3,239.6h7v7h-7V239.6z M246.8,239.6h7v7h-7V239.6z M304.9,239.6h7v7h-7V239.6z M312.2,239.6h7v7h-7V239.6z
	 M319.4,239.6h7v7h-7V239.6z M326.7,239.6h7v7h-7V239.6z M334,239.6h7v7h-7V239.6z M341.2,239.6h7v7h-7V239.6z M363,239.6h7v7h-7
	V239.6z M370.3,239.6h7v7h-7V239.6z M377.5,239.6h7v7h-7V239.6z M384.8,239.6h7v7h-7V239.6z M421.1,239.6h7v7h-7V239.6z
	 M428.3,239.6h7v7h-7V239.6z M435.6,239.6h7v7h-7V239.6z M442.9,239.6h7v7h-7V239.6z M493.7,239.6h7v7h-7V239.6z M500.9,239.6h7v7
	h-7V239.6z M508.2,239.6h7v7h-7V239.6z M515.5,239.6h7v7h-7V239.6z M522.7,239.6h7v7h-7V239.6z M537.2,239.6h7v7h-7V239.6z
	 M566.3,239.6h7v7h-7V239.6z M580.8,239.6h7v7h-7V239.6z M617.1,239.6h7v7h-7V239.6z M624.4,239.6h7v7h-7V239.6z M638.9,239.6h7v7
	h-7V239.6z M646.1,239.6h7v7h-7V239.6z M653.4,239.6h7v7h-7V239.6z M660.7,239.6h7v7h-7V239.6z M667.9,239.6h7v7h-7V239.6z
	 M675.2,239.6h7v7h-7V239.6z M733.3,239.6h7v7h-7V239.6z M740.5,239.6h7v7h-7V239.6z M747.8,239.6h7v7h-7V239.6z M50.8,246.8h7v7h-7
	V246.8z M58.1,246.8h7v7h-7V246.8z M65.3,246.8h7v7h-7V246.8z M72.6,246.8h7v7h-7V246.8z M79.9,246.8h7v7h-7V246.8z M94.4,246.8h7v7
	h-7V246.8z M101.6,246.8h7v7h-7V246.8z M130.7,246.8h7v7h-7V246.8z M137.9,246.8h7v7h-7V246.8z M145.2,246.8h7v7h-7V246.8z
	 M174.2,246.8h7v7h-7V246.8z M188.8,246.8h7v7h-7V246.8z M210.5,246.8h7v7h-7V246.8z M232.3,246.8h7v7h-7V246.8z M246.8,246.8h7v7
	h-7V246.8z M254.1,246.8h7v7h-7V246.8z M304.9,246.8h7v7h-7V246.8z M312.2,246.8h7v7h-7V246.8z M319.4,246.8h7v7h-7V246.8z
	 M348.5,246.8h7v7h-7V246.8z M355.7,246.8h7v7h-7V246.8z M384.8,246.8h7v7h-7V246.8z M392,246.8h7v7h-7V246.8z M435.6,246.8h7v7h-7
	V246.8z M442.9,246.8h7v7h-7V246.8z M450.1,246.8h7v7h-7V246.8z M493.7,246.8h7v7h-7V246.8z M500.9,246.8h7v7h-7V246.8z
	 M508.2,246.8h7v7h-7V246.8z M515.5,246.8h7v7h-7V246.8z M522.7,246.8h7v7h-7V246.8z M573.5,246.8h7v7h-7V246.8z M580.8,246.8h7v7
	h-7V246.8z M588.1,246.8h7v7h-7V246.8z M609.8,246.8h7v7h-7V246.8z M617.1,246.8h7v7h-7V246.8z M624.4,246.8h7v7h-7V246.8z
	 M646.1,246.8h7v7h-7V246.8z M660.7,246.8h7v7h-7V246.8z M667.9,246.8h7v7h-7V246.8z M675.2,246.8h7v7h-7V246.8z M733.3,246.8h7v7
	h-7V246.8z M740.5,246.8h7v7h-7V246.8z M747.8,246.8h7v7h-7V246.8z M58.1,254.1h7v7h-7V254.1z M65.3,254.1h7v7h-7V254.1z
	 M101.6,254.1h7v7h-7V254.1z M108.9,254.1h7v7h-7V254.1z M137.9,254.1h7v7h-7V254.1z M145.2,254.1h7v7h-7V254.1z M181.5,254.1h7v7
	h-7V254.1z M188.8,254.1h7v7h-7V254.1z M210.5,254.1h7v7h-7V254.1z M217.8,254.1h7v7h-7V254.1z M232.3,254.1h7v7h-7V254.1z
	 M254.1,254.1h7v7h-7V254.1z M297.7,254.1h7v7h-7V254.1z M304.9,254.1h7v7h-7V254.1z M312.2,254.1h7v7h-7V254.1z M334,254.1h7v7h-7
	V254.1z M341.2,254.1h7v7h-7V254.1z M355.7,254.1h7v7h-7V254.1z M392,254.1h7v7h-7V254.1z M406.6,254.1h7v7h-7V254.1z M413.8,254.1
	h7v7h-7V254.1z M421.1,254.1h7v7h-7V254.1z M428.3,254.1h7v7h-7V254.1z M435.6,254.1h7v7h-7V254.1z M442.9,254.1h7v7h-7V254.1z
	 M450.1,254.1h7v7h-7V254.1z M457.4,254.1h7v7h-7V254.1z M493.7,254.1h7v7h-7V254.1z M500.9,254.1h7v7h-7V254.1z M508.2,254.1h7v7
	h-7V254.1z M515.5,254.1h7v7h-7V254.1z M522.7,254.1h7v7h-7V254.1z M588.1,254.1h7v7h-7V254.1z M595.3,254.1h7v7h-7V254.1z
	 M602.6,254.1h7v7h-7V254.1z M617.1,254.1h7v7h-7V254.1z M653.4,254.1h7v7h-7V254.1z M660.7,254.1h7v7h-7V254.1z M667.9,254.1h7v7
	h-7V254.1z M733.3,254.1h7v7h-7V254.1z M740.5,254.1h7v7h-7V254.1z M747.8,254.1h7v7h-7V254.1z M755,254.1h7v7h-7V254.1z
	 M65.3,261.4h7v7h-7V261.4z M72.6,261.4h7v7h-7V261.4z M79.9,261.4h7v7h-7V261.4z M87.1,261.4h7v7h-7V261.4z M94.4,261.4h7v7h-7
	V261.4z M101.6,261.4h7v7h-7V261.4z M108.9,261.4h7v7h-7V261.4z M116.2,261.4h7v7h-7V261.4z M123.4,261.4h7v7h-7V261.4z
	 M130.7,261.4h7v7h-7V261.4z M137.9,261.4h7v7h-7V261.4z M145.2,261.4h7v7h-7V261.4z M152.5,261.4h7v7h-7V261.4z M181.5,261.4h7v7
	h-7V261.4z M188.8,261.4h7v7h-7V261.4z M210.5,261.4h7v7h-7V261.4z M217.8,261.4h7v7h-7V261.4z M232.3,261.4h7v7h-7V261.4z
	 M239.6,261.4h7v7h-7V261.4z M254.1,261.4h7v7h-7V261.4z M297.7,261.4h7v7h-7V261.4z M304.9,261.4h7v7h-7V261.4z M326.7,261.4h7v7
	h-7V261.4z M334,261.4h7v7h-7V261.4z M341.2,261.4h7v7h-7V261.4z M348.5,261.4h7v7h-7V261.4z M355.7,261.4h7v7h-7V261.4z M363,261.4
	h7v7h-7V261.4z M377.5,261.4h7v7h-7V261.4z M392,261.4h7v7h-7V261.4z M399.3,261.4h7v7h-7V261.4z M406.6,261.4h7v7h-7V261.4z
	 M413.8,261.4h7v7h-7V261.4z M421.1,261.4h7v7h-7V261.4z M428.3,261.4h7v7h-7V261.4z M442.9,261.4h7v7h-7V261.4z M450.1,261.4h7v7
	h-7V261.4z M457.4,261.4h7v7h-7V261.4z M464.6,261.4h7v7h-7V261.4z M493.7,261.4h7v7h-7V261.4z M500.9,261.4h7v7h-7V261.4z
	 M508.2,261.4h7v7h-7V261.4z M515.5,261.4h7v7h-7V261.4z M522.7,261.4h7v7h-7V261.4z M595.3,261.4h7v7h-7V261.4z M602.6,261.4h7v7
	h-7V261.4z M617.1,261.4h7v7h-7V261.4z M653.4,261.4h7v7h-7V261.4z M660.7,261.4h7v7h-7V261.4z M667.9,261.4h7v7h-7V261.4z
	 M675.2,261.4h7v7h-7V261.4z M733.3,261.4h7v7h-7V261.4z M755,261.4h7v7h-7V261.4z M65.3,268.6h7v7h-7V268.6z M72.6,268.6h7v7h-7
	V268.6z M94.4,268.6h7v7h-7V268.6z M101.6,268.6h7v7h-7V268.6z M108.9,268.6h7v7h-7V268.6z M116.2,268.6h7v7h-7V268.6z M123.4,268.6
	h7v7h-7V268.6z M130.7,268.6h7v7h-7V268.6z M137.9,268.6h7v7h-7V268.6z M145.2,268.6h7v7h-7V268.6z M152.5,268.6h7v7h-7V268.6z
	 M159.7,268.6h7v7h-7V268.6z M167,268.6h7v7h-7V268.6z M174.2,268.6h7v7h-7V268.6z M181.5,268.6h7v7h-7V268.6z M188.8,268.6h7v7h-7
	V268.6z M210.5,268.6h7v7h-7V268.6z M217.8,268.6h7v7h-7V268.6z M232.3,268.6h7v7h-7V268.6z M239.6,268.6h7v7h-7V268.6z
	 M254.1,268.6h7v7h-7V268.6z M261.4,268.6h7v7h-7V268.6z M290.4,268.6h7v7h-7V268.6z M297.7,268.6h7v7h-7V268.6z M304.9,268.6h7v7
	h-7V268.6z M334,268.6h7v7h-7V268.6z M341.2,268.6h7v7h-7V268.6z M348.5,268.6h7v7h-7V268.6z M355.7,268.6h7v7h-7V268.6z M363,268.6
	h7v7h-7V268.6z M370.3,268.6h7v7h-7V268.6z M377.5,268.6h7v7h-7V268.6z M384.8,268.6h7v7h-7V268.6z M413.8,268.6h7v7h-7V268.6z
	 M421.1,268.6h7v7h-7V268.6z M428.3,268.6h7v7h-7V268.6z M450.1,268.6h7v7h-7V268.6z M457.4,268.6h7v7h-7V268.6z M464.6,268.6h7v7
	h-7V268.6z M471.9,268.6h7v7h-7V268.6z M479.2,268.6h7v7h-7V268.6z M486.4,268.6h7v7h-7V268.6z M493.7,268.6h7v7h-7V268.6z
	 M500.9,268.6h7v7h-7V268.6z M515.5,268.6h7v7h-7V268.6z M522.7,268.6h7v7h-7V268.6z M595.3,268.6h7v7h-7V268.6z M602.6,268.6h7v7
	h-7V268.6z M609.8,268.6h7v7h-7V268.6z M617.1,268.6h7v7h-7V268.6z M660.7,268.6h7v7h-7V268.6z M667.9,268.6h7v7h-7V268.6z
	 M675.2,268.6h7v7h-7V268.6z M704.2,268.6h7v7h-7V268.6z M726,268.6h7v7h-7V268.6z M733.3,268.6h7v7h-7V268.6z M755,268.6h7v7h-7
	V268.6z M65.3,275.9h7v7h-7V275.9z M72.6,275.9h7v7h-7V275.9z M87.1,275.9h7v7h-7V275.9z M101.6,275.9h7v7h-7V275.9z M130.7,275.9h7
	v7h-7V275.9z M137.9,275.9h7v7h-7V275.9z M159.7,275.9h7v7h-7V275.9z M167,275.9h7v7h-7V275.9z M174.2,275.9h7v7h-7V275.9z
	 M181.5,275.9h7v7h-7V275.9z M188.8,275.9h7v7h-7V275.9z M210.5,275.9h7v7h-7V275.9z M217.8,275.9h7v7h-7V275.9z M232.3,275.9h7v7
	h-7V275.9z M239.6,275.9h7v7h-7V275.9z M254.1,275.9h7v7h-7V275.9z M261.4,275.9h7v7h-7V275.9z M275.9,275.9h7v7h-7V275.9z
	 M283.1,275.9h7v7h-7V275.9z M290.4,275.9h7v7h-7V275.9z M297.7,275.9h7v7h-7V275.9z M304.9,275.9h7v7h-7V275.9z M312.2,275.9h7v7
	h-7V275.9z M319.4,275.9h7v7h-7V275.9z M334,275.9h7v7h-7V275.9z M363,275.9h7v7h-7V275.9z M370.3,275.9h7v7h-7V275.9z M377.5,275.9
	h7v7h-7V275.9z M384.8,275.9h7v7h-7V275.9z M392,275.9h7v7h-7V275.9z M399.3,275.9h7v7h-7V275.9z M406.6,275.9h7v7h-7V275.9z
	 M413.8,275.9h7v7h-7V275.9z M421.1,275.9h7v7h-7V275.9z M464.6,275.9h7v7h-7V275.9z M471.9,275.9h7v7h-7V275.9z M479.2,275.9h7v7
	h-7V275.9z M486.4,275.9h7v7h-7V275.9z M493.7,275.9h7v7h-7V275.9z M500.9,275.9h7v7h-7V275.9z M522.7,275.9h7v7h-7V275.9z
	 M602.6,275.9h7v7h-7V275.9z M609.8,275.9h7v7h-7V275.9z M617.1,275.9h7v7h-7V275.9z M631.6,275.9h7v7h-7V275.9z M638.9,275.9h7v7
	h-7V275.9z M660.7,275.9h7v7h-7V275.9z M667.9,275.9h7v7h-7V275.9z M675.2,275.9h7v7h-7V275.9z M682.4,275.9h7v7h-7V275.9z
	 M704.2,275.9h7v7h-7V275.9z M718.7,275.9h7v7h-7V275.9z M726,275.9h7v7h-7V275.9z M755,275.9h7v7h-7V275.9z M72.6,283.1h7v7h-7
	V283.1z M79.9,283.1h7v7h-7V283.1z M87.1,283.1h7v7h-7V283.1z M116.2,283.1h7v7h-7V283.1z M123.4,283.1h7v7h-7V283.1z M130.7,283.1
	h7v7h-7V283.1z M181.5,283.1h7v7h-7V283.1z M188.8,283.1h7v7h-7V283.1z M196,283.1h7v7h-7V283.1z M210.5,283.1h7v7h-7V283.1z
	 M217.8,283.1h7v7h-7V283.1z M232.3,283.1h7v7h-7V283.1z M239.6,283.1h7v7h-7V283.1z M254.1,283.1h7v7h-7V283.1z M261.4,283.1h7v7
	h-7V283.1z M275.9,283.1h7v7h-7V283.1z M283.1,283.1h7v7h-7V283.1z M290.4,283.1h7v7h-7V283.1z M319.4,283.1h7v7h-7V283.1z
	 M326.7,283.1h7v7h-7V283.1z M334,283.1h7v7h-7V283.1z M341.2,283.1h7v7h-7V283.1z M363,283.1h7v7h-7V283.1z M370.3,283.1h7v7h-7
	V283.1z M377.5,283.1h7v7h-7V283.1z M384.8,283.1h7v7h-7V283.1z M392,283.1h7v7h-7V283.1z M399.3,283.1h7v7h-7V283.1z M406.6,283.1
	h7v7h-7V283.1z M413.8,283.1h7v7h-7V283.1z M421.1,283.1h7v7h-7V283.1z M486.4,283.1h7v7h-7V283.1z M493.7,283.1h7v7h-7V283.1z
	 M500.9,283.1h7v7h-7V283.1z M522.7,283.1h7v7h-7V283.1z M530,283.1h7v7h-7V283.1z M602.6,283.1h7v7h-7V283.1z M609.8,283.1h7v7h-7
	V283.1z M617.1,283.1h7v7h-7V283.1z M660.7,283.1h7v7h-7V283.1z M667.9,283.1h7v7h-7V283.1z M675.2,283.1h7v7h-7V283.1z
	 M682.4,283.1h7v7h-7V283.1z M697,283.1h7v7h-7V283.1z M718.7,283.1h7v7h-7V283.1z M733.3,283.1h7v7h-7V283.1z M755,283.1h7v7h-7
	V283.1z M79.9,290.4h7v7h-7V290.4z M87.1,290.4h7v7h-7V290.4z M101.6,290.4h7v7h-7V290.4z M108.9,290.4h7v7h-7V290.4z M116.2,290.4
	h7v7h-7V290.4z M174.2,290.4h7v7h-7V290.4z M181.5,290.4h7v7h-7V290.4z M188.8,290.4h7v7h-7V290.4z M196,290.4h7v7h-7V290.4z
	 M203.3,290.4h7v7h-7V290.4z M210.5,290.4h7v7h-7V290.4z M217.8,290.4h7v7h-7V290.4z M225.1,290.4h7v7h-7V290.4z M232.3,290.4h7v7
	h-7V290.4z M246.8,290.4h7v7h-7V290.4z M254.1,290.4h7v7h-7V290.4z M275.9,290.4h7v7h-7V290.4z M283.1,290.4h7v7h-7V290.4z
	 M290.4,290.4h7v7h-7V290.4z M297.7,290.4h7v7h-7V290.4z M304.9,290.4h7v7h-7V290.4z M326.7,290.4h7v7h-7V290.4z M334,290.4h7v7h-7
	V290.4z M341.2,290.4h7v7h-7V290.4z M348.5,290.4h7v7h-7V290.4z M355.7,290.4h7v7h-7V290.4z M384.8,290.4h7v7h-7V290.4z M392,290.4
	h7v7h-7V290.4z M399.3,290.4h7v7h-7V290.4z M406.6,290.4h7v7h-7V290.4z M413.8,290.4h7v7h-7V290.4z M421.1,290.4h7v7h-7V290.4z
	 M486.4,290.4h7v7h-7V290.4z M493.7,290.4h7v7h-7V290.4z M500.9,290.4h7v7h-7V290.4z M609.8,290.4h7v7h-7V290.4z M617.1,290.4h7v7
	h-7V290.4z M624.4,290.4h7v7h-7V290.4z M646.1,290.4h7v7h-7V290.4z M653.4,290.4h7v7h-7V290.4z M660.7,290.4h7v7h-7V290.4z
	 M667.9,290.4h7v7h-7V290.4z M697,290.4h7v7h-7V290.4z M711.5,290.4h7v7h-7V290.4z M718.7,290.4h7v7h-7V290.4z M733.3,290.4h7v7h-7
	V290.4z M740.5,290.4h7v7h-7V290.4z M755,290.4h7v7h-7V290.4z M79.9,297.7h7v7h-7V297.7z M87.1,297.7h7v7h-7V297.7z M94.4,297.7h7v7
	h-7V297.7z M159.7,297.7h7v7h-7V297.7z M167,297.7h7v7h-7V297.7z M174.2,297.7h7v7h-7V297.7z M181.5,297.7h7v7h-7V297.7z M196,297.7
	h7v7h-7V297.7z M203.3,297.7h7v7h-7V297.7z M210.5,297.7h7v7h-7V297.7z M217.8,297.7h7v7h-7V297.7z M225.1,297.7h7v7h-7V297.7z
	 M246.8,297.7h7v7h-7V297.7z M283.1,297.7h7v7h-7V297.7z M290.4,297.7h7v7h-7V297.7z M297.7,297.7h7v7h-7V297.7z M326.7,297.7h7v7
	h-7V297.7z M334,297.7h7v7h-7V297.7z M348.5,297.7h7v7h-7V297.7z M355.7,297.7h7v7h-7V297.7z M363,297.7h7v7h-7V297.7z M370.3,297.7
	h7v7h-7V297.7z M377.5,297.7h7v7h-7V297.7z M384.8,297.7h7v7h-7V297.7z M406.6,297.7h7v7h-7V297.7z M413.8,297.7h7v7h-7V297.7z
	 M421.1,297.7h7v7h-7V297.7z M493.7,297.7h7v7h-7V297.7z M500.9,297.7h7v7h-7V297.7z M609.8,297.7h7v7h-7V297.7z M631.6,297.7h7v7
	h-7V297.7z M638.9,297.7h7v7h-7V297.7z M646.1,297.7h7v7h-7V297.7z M653.4,297.7h7v7h-7V297.7z M660.7,297.7h7v7h-7V297.7z
	 M667.9,297.7h7v7h-7V297.7z M675.2,297.7h7v7h-7V297.7z M682.4,297.7h7v7h-7V297.7z M689.7,297.7h7v7h-7V297.7z M697,297.7h7v7h-7
	V297.7z M711.5,297.7h7v7h-7V297.7z M733.3,297.7h7v7h-7V297.7z M755,297.7h7v7h-7V297.7z M87.1,304.9h7v7h-7V304.9z M94.4,304.9h7
	v7h-7V304.9z M101.6,304.9h7v7h-7V304.9z M123.4,304.9h7v7h-7V304.9z M130.7,304.9h7v7h-7V304.9z M137.9,304.9h7v7h-7V304.9z
	 M145.2,304.9h7v7h-7V304.9z M152.5,304.9h7v7h-7V304.9z M159.7,304.9h7v7h-7V304.9z M167,304.9h7v7h-7V304.9z M203.3,304.9h7v7h-7
	V304.9z M210.5,304.9h7v7h-7V304.9z M217.8,304.9h7v7h-7V304.9z M225.1,304.9h7v7h-7V304.9z M232.3,304.9h7v7h-7V304.9z
	 M239.6,304.9h7v7h-7V304.9z M246.8,304.9h7v7h-7V304.9z M283.1,304.9h7v7h-7V304.9z M290.4,304.9h7v7h-7V304.9z M319.4,304.9h7v7
	h-7V304.9z M326.7,304.9h7v7h-7V304.9z M334,304.9h7v7h-7V304.9z M341.2,304.9h7v7h-7V304.9z M348.5,304.9h7v7h-7V304.9z
	 M355.7,304.9h7v7h-7V304.9z M363,304.9h7v7h-7V304.9z M370.3,304.9h7v7h-7V304.9z M377.5,304.9h7v7h-7V304.9z M384.8,304.9h7v7h-7
	V304.9z M392,304.9h7v7h-7V304.9z M399.3,304.9h7v7h-7V304.9z M406.6,304.9h7v7h-7V304.9z M413.8,304.9h7v7h-7V304.9z M421.1,304.9
	h7v7h-7V304.9z M493.7,304.9h7v7h-7V304.9z M500.9,304.9h7v7h-7V304.9z M508.2,304.9h7v7h-7V304.9z M609.8,304.9h7v7h-7V304.9z
	 M617.1,304.9h7v7h-7V304.9z M624.4,304.9h7v7h-7V304.9z M631.6,304.9h7v7h-7V304.9z M638.9,304.9h7v7h-7V304.9z M646.1,304.9h7v7
	h-7V304.9z M653.4,304.9h7v7h-7V304.9z M660.7,304.9h7v7h-7V304.9z M667.9,304.9h7v7h-7V304.9z M675.2,304.9h7v7h-7V304.9z
	 M704.2,304.9h7v7h-7V304.9z M733.3,304.9h7v7h-7V304.9z M755,304.9h7v7h-7V304.9z M94.4,312.2h7v7h-7V312.2z M101.6,312.2h7v7h-7
	V312.2z M108.9,312.2h7v7h-7V312.2z M203.3,312.2h7v7h-7V312.2z M210.5,312.2h7v7h-7V312.2z M217.8,312.2h7v7h-7V312.2z
	 M225.1,312.2h7v7h-7V312.2z M232.3,312.2h7v7h-7V312.2z M283.1,312.2h7v7h-7V312.2z M319.4,312.2h7v7h-7V312.2z M326.7,312.2h7v7
	h-7V312.2z M334,312.2h7v7h-7V312.2z M341.2,312.2h7v7h-7V312.2z M348.5,312.2h7v7h-7V312.2z M355.7,312.2h7v7h-7V312.2z M363,312.2
	h7v7h-7V312.2z M370.3,312.2h7v7h-7V312.2z M413.8,312.2h7v7h-7V312.2z M493.7,312.2h7v7h-7V312.2z M500.9,312.2h7v7h-7V312.2z
	 M508.2,312.2h7v7h-7V312.2z M537.2,312.2h7v7h-7V312.2z M609.8,312.2h7v7h-7V312.2z M617.1,312.2h7v7h-7V312.2z M624.4,312.2h7v7
	h-7V312.2z M631.6,312.2h7v7h-7V312.2z M689.7,312.2h7v7h-7V312.2z M697,312.2h7v7h-7V312.2z M726,312.2h7v7h-7V312.2z M755,312.2h7
	v7h-7V312.2z M101.6,319.4h7v7h-7V319.4z M108.9,319.4h7v7h-7V319.4z M116.2,319.4h7v7h-7V319.4z M196,319.4h7v7h-7V319.4z
	 M203.3,319.4h7v7h-7V319.4z M210.5,319.4h7v7h-7V319.4z M217.8,319.4h7v7h-7V319.4z M225.1,319.4h7v7h-7V319.4z M283.1,319.4h7v7
	h-7V319.4z M312.2,319.4h7v7h-7V319.4z M319.4,319.4h7v7h-7V319.4z M334,319.4h7v7h-7V319.4z M341.2,319.4h7v7h-7V319.4z
	 M348.5,319.4h7v7h-7V319.4z M355.7,319.4h7v7h-7V319.4z M413.8,319.4h7v7h-7V319.4z M493.7,319.4h7v7h-7V319.4z M500.9,319.4h7v7
	h-7V319.4z M508.2,319.4h7v7h-7V319.4z M537.2,319.4h7v7h-7V319.4z M609.8,319.4h7v7h-7V319.4z M624.4,319.4h7v7h-7V319.4z
	 M631.6,319.4h7v7h-7V319.4z M638.9,319.4h7v7h-7V319.4z M653.4,319.4h7v7h-7V319.4z M682.4,319.4h7v7h-7V319.4z M726,319.4h7v7h-7
	V319.4z M733.3,319.4h7v7h-7V319.4z M755,319.4h7v7h-7V319.4z M116.2,326.7h7v7h-7V326.7z M123.4,326.7h7v7h-7V326.7z M130.7,326.7
	h7v7h-7V326.7z M137.9,326.7h7v7h-7V326.7z M145.2,326.7h7v7h-7V326.7z M174.2,326.7h7v7h-7V326.7z M181.5,326.7h7v7h-7V326.7z
	 M188.8,326.7h7v7h-7V326.7z M196,326.7h7v7h-7V326.7z M203.3,326.7h7v7h-7V326.7z M210.5,326.7h7v7h-7V326.7z M217.8,326.7h7v7h-7
	V326.7z M225.1,326.7h7v7h-7V326.7z M275.9,326.7h7v7h-7V326.7z M283.1,326.7h7v7h-7V326.7z M290.4,326.7h7v7h-7V326.7z
	 M297.7,326.7h7v7h-7V326.7z M304.9,326.7h7v7h-7V326.7z M326.7,326.7h7v7h-7V326.7z M334,326.7h7v7h-7V326.7z M341.2,326.7h7v7h-7
	V326.7z M348.5,326.7h7v7h-7V326.7z M355.7,326.7h7v7h-7V326.7z M363,326.7h7v7h-7V326.7z M406.6,326.7h7v7h-7V326.7z M413.8,326.7
	h7v7h-7V326.7z M493.7,326.7h7v7h-7V326.7z M500.9,326.7h7v7h-7V326.7z M508.2,326.7h7v7h-7V326.7z M544.5,326.7h7v7h-7V326.7z
	 M551.8,326.7h7v7h-7V326.7z M595.3,326.7h7v7h-7V326.7z M602.6,326.7h7v7h-7V326.7z M624.4,326.7h7v7h-7V326.7z M631.6,326.7h7v7
	h-7V326.7z M638.9,326.7h7v7h-7V326.7z M646.1,326.7h7v7h-7V326.7z M660.7,326.7h7v7h-7V326.7z M667.9,326.7h7v7h-7V326.7z
	 M675.2,326.7h7v7h-7V326.7z M682.4,326.7h7v7h-7V326.7z M718.7,326.7h7v7h-7V326.7z M740.5,326.7h7v7h-7V326.7z M755,326.7h7v7h-7
	V326.7z M137.9,334h7v7h-7V334z M145.2,334h7v7h-7V334z M152.5,334h7v7h-7V334z M159.7,334h7v7h-7V334z M167,334h7v7h-7V334z
	 M174.2,334h7v7h-7V334z M181.5,334h7v7h-7V334z M188.8,334h7v7h-7V334z M196,334h7v7h-7V334z M210.5,334h7v7h-7V334z M225.1,334h7
	v7h-7V334z M232.3,334h7v7h-7V334z M275.9,334h7v7h-7V334z M283.1,334h7v7h-7V334z M290.4,334h7v7h-7V334z M297.7,334h7v7h-7V334z
	 M312.2,334h7v7h-7V334z M319.4,334h7v7h-7V334z M326.7,334h7v7h-7V334z M334,334h7v7h-7V334z M341.2,334h7v7h-7V334z M348.5,334h7
	v7h-7V334z M355.7,334h7v7h-7V334z M363,334h7v7h-7V334z M406.6,334h7v7h-7V334z M493.7,334h7v7h-7V334z M500.9,334h7v7h-7V334z
	 M508.2,334h7v7h-7V334z M544.5,334h7v7h-7V334z M551.8,334h7v7h-7V334z M559,334h7v7h-7V334z M566.3,334h7v7h-7V334z M573.5,334h7
	v7h-7V334z M580.8,334h7v7h-7V334z M588.1,334h7v7h-7V334z M595.3,334h7v7h-7V334z M602.6,334h7v7h-7V334z M609.8,334h7v7h-7V334z
	 M617.1,334h7v7h-7V334z M624.4,334h7v7h-7V334z M631.6,334h7v7h-7V334z M638.9,334h7v7h-7V334z M646.1,334h7v7h-7V334z M660.7,334
	h7v7h-7V334z M667.9,334h7v7h-7V334z M711.5,334h7v7h-7V334z M718.7,334h7v7h-7V334z M747.8,334h7v7h-7V334z M755,334h7v7h-7V334z
	 M167,341.2h7v7h-7V341.2z M210.5,341.2h7v7h-7V341.2z M225.1,341.2h7v7h-7V341.2z M232.3,341.2h7v7h-7V341.2z M275.9,341.2h7v7h-7
	V341.2z M304.9,341.2h7v7h-7V341.2z M312.2,341.2h7v7h-7V341.2z M319.4,341.2h7v7h-7V341.2z M399.3,341.2h7v7h-7V341.2z
	 M406.6,341.2h7v7h-7V341.2z M493.7,341.2h7v7h-7V341.2z M500.9,341.2h7v7h-7V341.2z M508.2,341.2h7v7h-7V341.2z M544.5,341.2h7v7
	h-7V341.2z M559,341.2h7v7h-7V341.2z M566.3,341.2h7v7h-7V341.2z M573.5,341.2h7v7h-7V341.2z M580.8,341.2h7v7h-7V341.2z
	 M588.1,341.2h7v7h-7V341.2z M595.3,341.2h7v7h-7V341.2z M602.6,341.2h7v7h-7V341.2z M609.8,341.2h7v7h-7V341.2z M617.1,341.2h7v7
	h-7V341.2z M624.4,341.2h7v7h-7V341.2z M631.6,341.2h7v7h-7V341.2z M638.9,341.2h7v7h-7V341.2z M646.1,341.2h7v7h-7V341.2z
	 M653.4,341.2h7v7h-7V341.2z M660.7,341.2h7v7h-7V341.2z M689.7,341.2h7v7h-7V341.2z M697,341.2h7v7h-7V341.2z M704.2,341.2h7v7h-7
	V341.2z M718.7,341.2h7v7h-7V341.2z M726,341.2h7v7h-7V341.2z M747.8,341.2h7v7h-7V341.2z M203.3,348.5h7v7h-7V348.5z M210.5,348.5
	h7v7h-7V348.5z M232.3,348.5h7v7h-7V348.5z M239.6,348.5h7v7h-7V348.5z M254.1,348.5h7v7h-7V348.5z M261.4,348.5h7v7h-7V348.5z
	 M268.6,348.5h7v7h-7V348.5z M275.9,348.5h7v7h-7V348.5z M290.4,348.5h7v7h-7V348.5z M297.7,348.5h7v7h-7V348.5z M304.9,348.5h7v7
	h-7V348.5z M334,348.5h7v7h-7V348.5z M341.2,348.5h7v7h-7V348.5z M392,348.5h7v7h-7V348.5z M399.3,348.5h7v7h-7V348.5z M406.6,348.5
	h7v7h-7V348.5z M493.7,348.5h7v7h-7V348.5z M500.9,348.5h7v7h-7V348.5z M508.2,348.5h7v7h-7V348.5z M551.8,348.5h7v7h-7V348.5z
	 M566.3,348.5h7v7h-7V348.5z M573.5,348.5h7v7h-7V348.5z M580.8,348.5h7v7h-7V348.5z M588.1,348.5h7v7h-7V348.5z M595.3,348.5h7v7
	h-7V348.5z M602.6,348.5h7v7h-7V348.5z M609.8,348.5h7v7h-7V348.5z M617.1,348.5h7v7h-7V348.5z M624.4,348.5h7v7h-7V348.5z
	 M631.6,348.5h7v7h-7V348.5z M638.9,348.5h7v7h-7V348.5z M646.1,348.5h7v7h-7V348.5z M653.4,348.5h7v7h-7V348.5z M660.7,348.5h7v7
	h-7V348.5z M667.9,348.5h7v7h-7V348.5z M675.2,348.5h7v7h-7V348.5z M682.4,348.5h7v7h-7V348.5z M726,348.5h7v7h-7V348.5z
	 M740.5,348.5h7v7h-7V348.5z M747.8,348.5h7v7h-7V348.5z M203.3,355.7h7v7h-7V355.7z M210.5,355.7h7v7h-7V355.7z M225.1,355.7h7v7
	h-7V355.7z M232.3,355.7h7v7h-7V355.7z M239.6,355.7h7v7h-7V355.7z M254.1,355.7h7v7h-7V355.7z M261.4,355.7h7v7h-7V355.7z
	 M268.6,355.7h7v7h-7V355.7z M283.1,355.7h7v7h-7V355.7z M290.4,355.7h7v7h-7V355.7z M297.7,355.7h7v7h-7V355.7z M304.9,355.7h7v7
	h-7V355.7z M326.7,355.7h7v7h-7V355.7z M334,355.7h7v7h-7V355.7z M341.2,355.7h7v7h-7V355.7z M392,355.7h7v7h-7V355.7z M399.3,355.7
	h7v7h-7V355.7z M406.6,355.7h7v7h-7V355.7z M413.8,355.7h7v7h-7V355.7z M500.9,355.7h7v7h-7V355.7z M508.2,355.7h7v7h-7V355.7z
	 M551.8,355.7h7v7h-7V355.7z M566.3,355.7h7v7h-7V355.7z M573.5,355.7h7v7h-7V355.7z M580.8,355.7h7v7h-7V355.7z M588.1,355.7h7v7
	h-7V355.7z M602.6,355.7h7v7h-7V355.7z M609.8,355.7h7v7h-7V355.7z M617.1,355.7h7v7h-7V355.7z M624.4,355.7h7v7h-7V355.7z
	 M631.6,355.7h7v7h-7V355.7z M638.9,355.7h7v7h-7V355.7z M646.1,355.7h7v7h-7V355.7z M653.4,355.7h7v7h-7V355.7z M726,355.7h7v7h-7
	V355.7z M733.3,355.7h7v7h-7V355.7z M196,363h7v7h-7V363z M203.3,363h7v7h-7V363z M210.5,363h7v7h-7V363z M217.8,363h7v7h-7V363z
	 M225.1,363h7v7h-7V363z M232.3,363h7v7h-7V363z M239.6,363h7v7h-7V363z M246.8,363h7v7h-7V363z M254.1,363h7v7h-7V363z M275.9,363
	h7v7h-7V363z M283.1,363h7v7h-7V363z M290.4,363h7v7h-7V363z M297.7,363h7v7h-7V363z M304.9,363h7v7h-7V363z M312.2,363h7v7h-7V363z
	 M319.4,363h7v7h-7V363z M326.7,363h7v7h-7V363z M334,363h7v7h-7V363z M341.2,363h7v7h-7V363z M348.5,363h7v7h-7V363z M355.7,363h7
	v7h-7V363z M384.8,363h7v7h-7V363z M392,363h7v7h-7V363z M399.3,363h7v7h-7V363z M406.6,363h7v7h-7V363z M413.8,363h7v7h-7V363z
	 M500.9,363h7v7h-7V363z M508.2,363h7v7h-7V363z M515.5,363h7v7h-7V363z M551.8,363h7v7h-7V363z M573.5,363h7v7h-7V363z M580.8,363
	h7v7h-7V363z M588.1,363h7v7h-7V363z M595.3,363h7v7h-7V363z M718.7,363h7v7h-7V363z M726,363h7v7h-7V363z M152.5,370.3h7v7h-7
	V370.3z M159.7,370.3h7v7h-7V370.3z M196,370.3h7v7h-7V370.3z M203.3,370.3h7v7h-7V370.3z M210.5,370.3h7v7h-7V370.3z M232.3,370.3
	h7v7h-7V370.3z M239.6,370.3h7v7h-7V370.3z M246.8,370.3h7v7h-7V370.3z M268.6,370.3h7v7h-7V370.3z M275.9,370.3h7v7h-7V370.3z
	 M283.1,370.3h7v7h-7V370.3z M290.4,370.3h7v7h-7V370.3z M297.7,370.3h7v7h-7V370.3z M304.9,370.3h7v7h-7V370.3z M312.2,370.3h7v7
	h-7V370.3z M319.4,370.3h7v7h-7V370.3z M326.7,370.3h7v7h-7V370.3z M334,370.3h7v7h-7V370.3z M341.2,370.3h7v7h-7V370.3z
	 M348.5,370.3h7v7h-7V370.3z M355.7,370.3h7v7h-7V370.3z M384.8,370.3h7v7h-7V370.3z M392,370.3h7v7h-7V370.3z M399.3,370.3h7v7h-7
	V370.3z M406.6,370.3h7v7h-7V370.3z M413.8,370.3h7v7h-7V370.3z M500.9,370.3h7v7h-7V370.3z M508.2,370.3h7v7h-7V370.3z
	 M515.5,370.3h7v7h-7V370.3z M559,370.3h7v7h-7V370.3z M573.5,370.3h7v7h-7V370.3z M580.8,370.3h7v7h-7V370.3z M588.1,370.3h7v7h-7
	V370.3z M595.3,370.3h7v7h-7V370.3z M602.6,370.3h7v7h-7V370.3z M718.7,370.3h7v7h-7V370.3z M726,370.3h7v7h-7V370.3z M152.5,377.5
	h7v7h-7V377.5z M159.7,377.5h7v7h-7V377.5z M174.2,377.5h7v7h-7V377.5z M188.8,377.5h7v7h-7V377.5z M203.3,377.5h7v7h-7V377.5z
	 M225.1,377.5h7v7h-7V377.5z M232.3,377.5h7v7h-7V377.5z M254.1,377.5h7v7h-7V377.5z M261.4,377.5h7v7h-7V377.5z M268.6,377.5h7v7
	h-7V377.5z M275.9,377.5h7v7h-7V377.5z M283.1,377.5h7v7h-7V377.5z M290.4,377.5h7v7h-7V377.5z M297.7,377.5h7v7h-7V377.5z
	 M304.9,377.5h7v7h-7V377.5z M312.2,377.5h7v7h-7V377.5z M319.4,377.5h7v7h-7V377.5z M326.7,377.5h7v7h-7V377.5z M334,377.5h7v7h-7
	V377.5z M341.2,377.5h7v7h-7V377.5z M348.5,377.5h7v7h-7V377.5z M355.7,377.5h7v7h-7V377.5z M363,377.5h7v7h-7V377.5z M370.3,377.5
	h7v7h-7V377.5z M377.5,377.5h7v7h-7V377.5z M384.8,377.5h7v7h-7V377.5z M392,377.5h7v7h-7V377.5z M406.6,377.5h7v7h-7V377.5z
	 M413.8,377.5h7v7h-7V377.5z M500.9,377.5h7v7h-7V377.5z M508.2,377.5h7v7h-7V377.5z M515.5,377.5h7v7h-7V377.5z M522.7,377.5h7v7
	h-7V377.5z M559,377.5h7v7h-7V377.5z M580.8,377.5h7v7h-7V377.5z M588.1,377.5h7v7h-7V377.5z M595.3,377.5h7v7h-7V377.5z
	 M602.6,377.5h7v7h-7V377.5z M609.8,377.5h7v7h-7V377.5z M711.5,377.5h7v7h-7V377.5z M733.3,377.5h7v7h-7V377.5z M152.5,384.8h7v7
	h-7V384.8z M159.7,384.8h7v7h-7V384.8z M167,384.8h7v7h-7V384.8z M174.2,384.8h7v7h-7V384.8z M181.5,384.8h7v7h-7V384.8z
	 M188.8,384.8h7v7h-7V384.8z M196,384.8h7v7h-7V384.8z M217.8,384.8h7v7h-7V384.8z M225.1,384.8h7v7h-7V384.8z M246.8,384.8h7v7h-7
	V384.8z M254.1,384.8h7v7h-7V384.8z M261.4,384.8h7v7h-7V384.8z M312.2,384.8h7v7h-7V384.8z M319.4,384.8h7v7h-7V384.8z
	 M341.2,384.8h7v7h-7V384.8z M348.5,384.8h7v7h-7V384.8z M355.7,384.8h7v7h-7V384.8z M363,384.8h7v7h-7V384.8z M370.3,384.8h7v7h-7
	V384.8z M377.5,384.8h7v7h-7V384.8z M384.8,384.8h7v7h-7V384.8z M392,384.8h7v7h-7V384.8z M406.6,384.8h7v7h-7V384.8z M413.8,384.8
	h7v7h-7V384.8z M500.9,384.8h7v7h-7V384.8z M508.2,384.8h7v7h-7V384.8z M515.5,384.8h7v7h-7V384.8z M522.7,384.8h7v7h-7V384.8z
	 M530,384.8h7v7h-7V384.8z M537.2,384.8h7v7h-7V384.8z M551.8,384.8h7v7h-7V384.8z M580.8,384.8h7v7h-7V384.8z M595.3,384.8h7v7h-7
	V384.8z M602.6,384.8h7v7h-7V384.8z M609.8,384.8h7v7h-7V384.8z M617.1,384.8h7v7h-7V384.8z M704.2,384.8h7v7h-7V384.8z
	 M711.5,384.8h7v7h-7V384.8z M726,384.8h7v7h-7V384.8z M152.5,392h7v7h-7V392z M159.7,392h7v7h-7V392z M167,392h7v7h-7V392z
	 M181.5,392h7v7h-7V392z M196,392h7v7h-7V392z M203.3,392h7v7h-7V392z M210.5,392h7v7h-7V392z M232.3,392h7v7h-7V392z M239.6,392h7
	v7h-7V392z M246.8,392h7v7h-7V392z M348.5,392h7v7h-7V392z M355.7,392h7v7h-7V392z M370.3,392h7v7h-7V392z M377.5,392h7v7h-7V392z
	 M384.8,392h7v7h-7V392z M392,392h7v7h-7V392z M406.6,392h7v7h-7V392z M413.8,392h7v7h-7V392z M500.9,392h7v7h-7V392z M508.2,392h7
	v7h-7V392z M515.5,392h7v7h-7V392z M522.7,392h7v7h-7V392z M530,392h7v7h-7V392z M537.2,392h7v7h-7V392z M544.5,392h7v7h-7V392z
	 M551.8,392h7v7h-7V392z M609.8,392h7v7h-7V392z M617.1,392h7v7h-7V392z M624.4,392h7v7h-7V392z M631.6,392h7v7h-7V392z M689.7,392
	h7v7h-7V392z M697,392h7v7h-7V392z M704.2,392h7v7h-7V392z M711.5,392h7v7h-7V392z M718.7,392h7v7h-7V392z M152.5,399.3h7v7h-7
	V399.3z M159.7,399.3h7v7h-7V399.3z M167,399.3h7v7h-7V399.3z M181.5,399.3h7v7h-7V399.3z M196,399.3h7v7h-7V399.3z M203.3,399.3h7
	v7h-7V399.3z M217.8,399.3h7v7h-7V399.3z M225.1,399.3h7v7h-7V399.3z M232.3,399.3h7v7h-7V399.3z M239.6,399.3h7v7h-7V399.3z
	 M268.6,399.3h7v7h-7V399.3z M348.5,399.3h7v7h-7V399.3z M355.7,399.3h7v7h-7V399.3z M363,399.3h7v7h-7V399.3z M384.8,399.3h7v7h-7
	V399.3z M392,399.3h7v7h-7V399.3z M399.3,399.3h7v7h-7V399.3z M406.6,399.3h7v7h-7V399.3z M413.8,399.3h7v7h-7V399.3z M421.1,399.3
	h7v7h-7V399.3z M500.9,399.3h7v7h-7V399.3z M508.2,399.3h7v7h-7V399.3z M515.5,399.3h7v7h-7V399.3z M522.7,399.3h7v7h-7V399.3z
	 M530,399.3h7v7h-7V399.3z M537.2,399.3h7v7h-7V399.3z M544.5,399.3h7v7h-7V399.3z M624.4,399.3h7v7h-7V399.3z M631.6,399.3h7v7h-7
	V399.3z M638.9,399.3h7v7h-7V399.3z M646.1,399.3h7v7h-7V399.3z M653.4,399.3h7v7h-7V399.3z M660.7,399.3h7v7h-7V399.3z
	 M667.9,399.3h7v7h-7V399.3z M675.2,399.3h7v7h-7V399.3z M682.4,399.3h7v7h-7V399.3z M689.7,399.3h7v7h-7V399.3z M697,399.3h7v7h-7
	V399.3z M704.2,399.3h7v7h-7V399.3z M145.2,406.6h7v7h-7V406.6z M152.5,406.6h7v7h-7V406.6z M159.7,406.6h7v7h-7V406.6z
	 M174.2,406.6h7v7h-7V406.6z M181.5,406.6h7v7h-7V406.6z M203.3,406.6h7v7h-7V406.6z M210.5,406.6h7v7h-7V406.6z M217.8,406.6h7v7
	h-7V406.6z M225.1,406.6h7v7h-7V406.6z M232.3,406.6h7v7h-7V406.6z M239.6,406.6h7v7h-7V406.6z M246.8,406.6h7v7h-7V406.6z
	 M261.4,406.6h7v7h-7V406.6z M268.6,406.6h7v7h-7V406.6z M275.9,406.6h7v7h-7V406.6z M283.1,406.6h7v7h-7V406.6z M348.5,406.6h7v7
	h-7V406.6z M355.7,406.6h7v7h-7V406.6z M363,406.6h7v7h-7V406.6z M370.3,406.6h7v7h-7V406.6z M377.5,406.6h7v7h-7V406.6z
	 M384.8,406.6h7v7h-7V406.6z M392,406.6h7v7h-7V406.6z M399.3,406.6h7v7h-7V406.6z M421.1,406.6h7v7h-7V406.6z M428.3,406.6h7v7h-7
	V406.6z M500.9,406.6h7v7h-7V406.6z M508.2,406.6h7v7h-7V406.6z M515.5,406.6h7v7h-7V406.6z M522.7,406.6h7v7h-7V406.6z M530,406.6
	h7v7h-7V406.6z M537.2,406.6h7v7h-7V406.6z M544.5,406.6h7v7h-7V406.6z M551.8,406.6h7v7h-7V406.6z M559,406.6h7v7h-7V406.6z
	 M653.4,406.6h7v7h-7V406.6z M660.7,406.6h7v7h-7V406.6z M675.2,406.6h7v7h-7V406.6z M682.4,406.6h7v7h-7V406.6z M145.2,413.8h7v7
	h-7V413.8z M152.5,413.8h7v7h-7V413.8z M167,413.8h7v7h-7V413.8z M174.2,413.8h7v7h-7V413.8z M188.8,413.8h7v7h-7V413.8z M196,413.8
	h7v7h-7V413.8z M203.3,413.8h7v7h-7V413.8z M210.5,413.8h7v7h-7V413.8z M225.1,413.8h7v7h-7V413.8z M232.3,413.8h7v7h-7V413.8z
	 M239.6,413.8h7v7h-7V413.8z M246.8,413.8h7v7h-7V413.8z M254.1,413.8h7v7h-7V413.8z M261.4,413.8h7v7h-7V413.8z M268.6,413.8h7v7
	h-7V413.8z M275.9,413.8h7v7h-7V413.8z M283.1,413.8h7v7h-7V413.8z M290.4,413.8h7v7h-7V413.8z M297.7,413.8h7v7h-7V413.8z
	 M348.5,413.8h7v7h-7V413.8z M355.7,413.8h7v7h-7V413.8z M363,413.8h7v7h-7V413.8z M370.3,413.8h7v7h-7V413.8z M377.5,413.8h7v7h-7
	V413.8z M384.8,413.8h7v7h-7V413.8z M392,413.8h7v7h-7V413.8z M399.3,413.8h7v7h-7V413.8z M406.6,413.8h7v7h-7V413.8z M428.3,413.8
	h7v7h-7V413.8z M435.6,413.8h7v7h-7V413.8z M493.7,413.8h7v7h-7V413.8z M500.9,413.8h7v7h-7V413.8z M508.2,413.8h7v7h-7V413.8z
	 M515.5,413.8h7v7h-7V413.8z M522.7,413.8h7v7h-7V413.8z M530,413.8h7v7h-7V413.8z M537.2,413.8h7v7h-7V413.8z M544.5,413.8h7v7h-7
	V413.8z M551.8,413.8h7v7h-7V413.8z M559,413.8h7v7h-7V413.8z M566.3,413.8h7v7h-7V413.8z M653.4,413.8h7v7h-7V413.8z M660.7,413.8
	h7v7h-7V413.8z M145.2,421.1h7v7h-7V421.1z M152.5,421.1h7v7h-7V421.1z M159.7,421.1h7v7h-7V421.1z M167,421.1h7v7h-7V421.1z
	 M181.5,421.1h7v7h-7V421.1z M188.8,421.1h7v7h-7V421.1z M196,421.1h7v7h-7V421.1z M290.4,421.1h7v7h-7V421.1z M297.7,421.1h7v7h-7
	V421.1z M341.2,421.1h7v7h-7V421.1z M348.5,421.1h7v7h-7V421.1z M355.7,421.1h7v7h-7V421.1z M363,421.1h7v7h-7V421.1z M370.3,421.1
	h7v7h-7V421.1z M377.5,421.1h7v7h-7V421.1z M399.3,421.1h7v7h-7V421.1z M406.6,421.1h7v7h-7V421.1z M413.8,421.1h7v7h-7V421.1z
	 M435.6,421.1h7v7h-7V421.1z M442.9,421.1h7v7h-7V421.1z M486.4,421.1h7v7h-7V421.1z M493.7,421.1h7v7h-7V421.1z M500.9,421.1h7v7
	h-7V421.1z M508.2,421.1h7v7h-7V421.1z M522.7,421.1h7v7h-7V421.1z M530,421.1h7v7h-7V421.1z M537.2,421.1h7v7h-7V421.1z
	 M544.5,421.1h7v7h-7V421.1z M551.8,421.1h7v7h-7V421.1z M559,421.1h7v7h-7V421.1z M566.3,421.1h7v7h-7V421.1z M580.8,421.1h7v7h-7
	V421.1z M660.7,421.1h7v7h-7V421.1z M667.9,421.1h7v7h-7V421.1z M145.2,428.3h7v7h-7V428.3z M152.5,428.3h7v7h-7V428.3z M167,428.3
	h7v7h-7V428.3z M174.2,428.3h7v7h-7V428.3z M181.5,428.3h7v7h-7V428.3z M188.8,428.3h7v7h-7V428.3z M334,428.3h7v7h-7V428.3z
	 M341.2,428.3h7v7h-7V428.3z M348.5,428.3h7v7h-7V428.3z M355.7,428.3h7v7h-7V428.3z M392,428.3h7v7h-7V428.3z M399.3,428.3h7v7h-7
	V428.3z M421.1,428.3h7v7h-7V428.3z M442.9,428.3h7v7h-7V428.3z M450.1,428.3h7v7h-7V428.3z M457.4,428.3h7v7h-7V428.3z
	 M464.6,428.3h7v7h-7V428.3z M471.9,428.3h7v7h-7V428.3z M479.2,428.3h7v7h-7V428.3z M486.4,428.3h7v7h-7V428.3z M493.7,428.3h7v7
	h-7V428.3z M500.9,428.3h7v7h-7V428.3z M537.2,428.3h7v7h-7V428.3z M544.5,428.3h7v7h-7V428.3z M551.8,428.3h7v7h-7V428.3z
	 M559,428.3h7v7h-7V428.3z M566.3,428.3h7v7h-7V428.3z M573.5,428.3h7v7h-7V428.3z M588.1,428.3h7v7h-7V428.3z M595.3,428.3h7v7h-7
	V428.3z M667.9,428.3h7v7h-7V428.3z M137.9,435.6h7v7h-7V435.6z M145.2,435.6h7v7h-7V435.6z M159.7,435.6h7v7h-7V435.6z M167,435.6
	h7v7h-7V435.6z M174.2,435.6h7v7h-7V435.6z M326.7,435.6h7v7h-7V435.6z M334,435.6h7v7h-7V435.6z M392,435.6h7v7h-7V435.6z
	 M399.3,435.6h7v7h-7V435.6z M406.6,435.6h7v7h-7V435.6z M421.1,435.6h7v7h-7V435.6z M428.3,435.6h7v7h-7V435.6z M442.9,435.6h7v7
	h-7V435.6z M450.1,435.6h7v7h-7V435.6z M479.2,435.6h7v7h-7V435.6z M486.4,435.6h7v7h-7V435.6z M544.5,435.6h7v7h-7V435.6z
	 M551.8,435.6h7v7h-7V435.6z M559,435.6h7v7h-7V435.6z M566.3,435.6h7v7h-7V435.6z M573.5,435.6h7v7h-7V435.6z M588.1,435.6h7v7h-7
	V435.6z M595.3,435.6h7v7h-7V435.6z M667.9,435.6h7v7h-7V435.6z M130.7,442.9h7v7h-7V442.9z M137.9,442.9h7v7h-7V442.9z
	 M152.5,442.9h7v7h-7V442.9z M159.7,442.9h7v7h-7V442.9z M167,442.9h7v7h-7V442.9z M326.7,442.9h7v7h-7V442.9z M334,442.9h7v7h-7
	V442.9z M355.7,442.9h7v7h-7V442.9z M363,442.9h7v7h-7V442.9z M370.3,442.9h7v7h-7V442.9z M377.5,442.9h7v7h-7V442.9z M384.8,442.9
	h7v7h-7V442.9z M392,442.9h7v7h-7V442.9z M399.3,442.9h7v7h-7V442.9z M406.6,442.9h7v7h-7V442.9z M413.8,442.9h7v7h-7V442.9z
	 M428.3,442.9h7v7h-7V442.9z M435.6,442.9h7v7h-7V442.9z M450.1,442.9h7v7h-7V442.9z M479.2,442.9h7v7h-7V442.9z M486.4,442.9h7v7
	h-7V442.9z M551.8,442.9h7v7h-7V442.9z M559,442.9h7v7h-7V442.9z M566.3,442.9h7v7h-7V442.9z M573.5,442.9h7v7h-7V442.9z
	 M580.8,442.9h7v7h-7V442.9z M667.9,442.9h7v7h-7V442.9z M675.2,442.9h7v7h-7V442.9z M123.4,450.1h7v7h-7V450.1z M130.7,450.1h7v7
	h-7V450.1z M145.2,450.1h7v7h-7V450.1z M152.5,450.1h7v7h-7V450.1z M159.7,450.1h7v7h-7V450.1z M181.5,450.1h7v7h-7V450.1z
	 M188.8,450.1h7v7h-7V450.1z M196,450.1h7v7h-7V450.1z M203.3,450.1h7v7h-7V450.1z M319.4,450.1h7v7h-7V450.1z M326.7,450.1h7v7h-7
	V450.1z M334,450.1h7v7h-7V450.1z M348.5,450.1h7v7h-7V450.1z M355.7,450.1h7v7h-7V450.1z M392,450.1h7v7h-7V450.1z M399.3,450.1h7
	v7h-7V450.1z M413.8,450.1h7v7h-7V450.1z M435.6,450.1h7v7h-7V450.1z M450.1,450.1h7v7h-7V450.1z M457.4,450.1h7v7h-7V450.1z
	 M479.2,450.1h7v7h-7V450.1z M486.4,450.1h7v7h-7V450.1z M566.3,450.1h7v7h-7V450.1z M573.5,450.1h7v7h-7V450.1z M580.8,450.1h7v7
	h-7V450.1z M667.9,450.1h7v7h-7V450.1z M675.2,450.1h7v7h-7V450.1z M116.2,457.4h7v7h-7V457.4z M123.4,457.4h7v7h-7V457.4z
	 M137.9,457.4h7v7h-7V457.4z M145.2,457.4h7v7h-7V457.4z M152.5,457.4h7v7h-7V457.4z M159.7,457.4h7v7h-7V457.4z M167,457.4h7v7h-7
	V457.4z M174.2,457.4h7v7h-7V457.4z M181.5,457.4h7v7h-7V457.4z M188.8,457.4h7v7h-7V457.4z M196,457.4h7v7h-7V457.4z M203.3,457.4
	h7v7h-7V457.4z M210.5,457.4h7v7h-7V457.4z M217.8,457.4h7v7h-7V457.4z M326.7,457.4h7v7h-7V457.4z M392,457.4h7v7h-7V457.4z
	 M399.3,457.4h7v7h-7V457.4z M413.8,457.4h7v7h-7V457.4z M421.1,457.4h7v7h-7V457.4z M450.1,457.4h7v7h-7V457.4z M457.4,457.4h7v7
	h-7V457.4z M486.4,457.4h7v7h-7V457.4z M566.3,457.4h7v7h-7V457.4z M573.5,457.4h7v7h-7V457.4z M580.8,457.4h7v7h-7V457.4z
	 M588.1,457.4h7v7h-7V457.4z M667.9,457.4h7v7h-7V457.4z M675.2,457.4h7v7h-7V457.4z M108.9,464.6h7v7h-7V464.6z M116.2,464.6h7v7
	h-7V464.6z M130.7,464.6h7v7h-7V464.6z M137.9,464.6h7v7h-7V464.6z M145.2,464.6h7v7h-7V464.6z M152.5,464.6h7v7h-7V464.6z
	 M159.7,464.6h7v7h-7V464.6z M167,464.6h7v7h-7V464.6z M174.2,464.6h7v7h-7V464.6z M196,464.6h7v7h-7V464.6z M203.3,464.6h7v7h-7
	V464.6z M210.5,464.6h7v7h-7V464.6z M217.8,464.6h7v7h-7V464.6z M319.4,464.6h7v7h-7V464.6z M326.7,464.6h7v7h-7V464.6z M363,464.6
	h7v7h-7V464.6z M370.3,464.6h7v7h-7V464.6z M377.5,464.6h7v7h-7V464.6z M384.8,464.6h7v7h-7V464.6z M392,464.6h7v7h-7V464.6z
	 M421.1,464.6h7v7h-7V464.6z M450.1,464.6h7v7h-7V464.6z M486.4,464.6h7v7h-7V464.6z M493.7,464.6h7v7h-7V464.6z M588.1,464.6h7v7
	h-7V464.6z M595.3,464.6h7v7h-7V464.6z M667.9,464.6h7v7h-7V464.6z M675.2,464.6h7v7h-7V464.6z M101.6,471.9h7v7h-7V471.9z
	 M108.9,471.9h7v7h-7V471.9z M116.2,471.9h7v7h-7V471.9z M123.4,471.9h7v7h-7V471.9z M130.7,471.9h7v7h-7V471.9z M137.9,471.9h7v7
	h-7V471.9z M145.2,471.9h7v7h-7V471.9z M152.5,471.9h7v7h-7V471.9z M319.4,471.9h7v7h-7V471.9z M326.7,471.9h7v7h-7V471.9z
	 M334,471.9h7v7h-7V471.9z M348.5,471.9h7v7h-7V471.9z M355.7,471.9h7v7h-7V471.9z M363,471.9h7v7h-7V471.9z M384.8,471.9h7v7h-7
	V471.9z M392,471.9h7v7h-7V471.9z M421.1,471.9h7v7h-7V471.9z M428.3,471.9h7v7h-7V471.9z M450.1,471.9h7v7h-7V471.9z M457.4,471.9
	h7v7h-7V471.9z M493.7,471.9h7v7h-7V471.9z M588.1,471.9h7v7h-7V471.9z M595.3,471.9h7v7h-7V471.9z M602.6,471.9h7v7h-7V471.9z
	 M609.8,471.9h7v7h-7V471.9z M617.1,471.9h7v7h-7V471.9z M631.6,471.9h7v7h-7V471.9z M638.9,471.9h7v7h-7V471.9z M646.1,471.9h7v7
	h-7V471.9z M653.4,471.9h7v7h-7V471.9z M667.9,471.9h7v7h-7V471.9z M101.6,479.2h7v7h-7V479.2z M123.4,479.2h7v7h-7V479.2z
	 M130.7,479.2h7v7h-7V479.2z M319.4,479.2h7v7h-7V479.2z M326.7,479.2h7v7h-7V479.2z M341.2,479.2h7v7h-7V479.2z M348.5,479.2h7v7
	h-7V479.2z M384.8,479.2h7v7h-7V479.2z M392,479.2h7v7h-7V479.2z M428.3,479.2h7v7h-7V479.2z M442.9,479.2h7v7h-7V479.2z
	 M450.1,479.2h7v7h-7V479.2z M457.4,479.2h7v7h-7V479.2z M493.7,479.2h7v7h-7V479.2z M500.9,479.2h7v7h-7V479.2z M588.1,479.2h7v7
	h-7V479.2z M595.3,479.2h7v7h-7V479.2z M617.1,479.2h7v7h-7V479.2z M624.4,479.2h7v7h-7V479.2z M631.6,479.2h7v7h-7V479.2z
	 M638.9,479.2h7v7h-7V479.2z M646.1,479.2h7v7h-7V479.2z M653.4,479.2h7v7h-7V479.2z M660.7,479.2h7v7h-7V479.2z M94.4,486.4h7v7h-7
	V486.4z M123.4,486.4h7v7h-7V486.4z M130.7,486.4h7v7h-7V486.4z M319.4,486.4h7v7h-7V486.4z M326.7,486.4h7v7h-7V486.4z
	 M341.2,486.4h7v7h-7V486.4z M384.8,486.4h7v7h-7V486.4z M392,486.4h7v7h-7V486.4z M399.3,486.4h7v7h-7V486.4z M428.3,486.4h7v7h-7
	V486.4z M450.1,486.4h7v7h-7V486.4z M500.9,486.4h7v7h-7V486.4z M508.2,486.4h7v7h-7V486.4z M588.1,486.4h7v7h-7V486.4z
	 M116.2,493.7h7v7h-7V493.7z M123.4,493.7h7v7h-7V493.7z M319.4,493.7h7v7h-7V493.7z M326.7,493.7h7v7h-7V493.7z M384.8,493.7h7v7
	h-7V493.7z M399.3,493.7h7v7h-7V493.7z M406.6,493.7h7v7h-7V493.7z M428.3,493.7h7v7h-7V493.7z M442.9,493.7h7v7h-7V493.7z
	 M450.1,493.7h7v7h-7V493.7z M508.2,493.7h7v7h-7V493.7z M515.5,493.7h7v7h-7V493.7z M588.1,493.7h7v7h-7V493.7z M108.9,500.9h7v7
	h-7V500.9z M116.2,500.9h7v7h-7V500.9z M319.4,500.9h7v7h-7V500.9z M326.7,500.9h7v7h-7V500.9z M334,500.9h7v7h-7V500.9z
	 M370.3,500.9h7v7h-7V500.9z M377.5,500.9h7v7h-7V500.9z M384.8,500.9h7v7h-7V500.9z M406.6,500.9h7v7h-7V500.9z M428.3,500.9h7v7
	h-7V500.9z M442.9,500.9h7v7h-7V500.9z M450.1,500.9h7v7h-7V500.9z M515.5,500.9h7v7h-7V500.9z M522.7,500.9h7v7h-7V500.9z
	 M580.8,500.9h7v7h-7V500.9z M108.9,508.2h7v7h-7V508.2z M116.2,508.2h7v7h-7V508.2z M319.4,508.2h7v7h-7V508.2z M326.7,508.2h7v7
	h-7V508.2z M334,508.2h7v7h-7V508.2z M355.7,508.2h7v7h-7V508.2z M363,508.2h7v7h-7V508.2z M377.5,508.2h7v7h-7V508.2z M384.8,508.2
	h7v7h-7V508.2z M406.6,508.2h7v7h-7V508.2z M442.9,508.2h7v7h-7V508.2z M450.1,508.2h7v7h-7V508.2z M530,508.2h7v7h-7V508.2z
	 M573.5,508.2h7v7h-7V508.2z M108.9,515.5h7v7h-7V515.5z M326.7,515.5h7v7h-7V515.5z M334,515.5h7v7h-7V515.5z M355.7,515.5h7v7h-7
	V515.5z M377.5,515.5h7v7h-7V515.5z M384.8,515.5h7v7h-7V515.5z M392,515.5h7v7h-7V515.5z M406.6,515.5h7v7h-7V515.5z M413.8,515.5
	h7v7h-7V515.5z M442.9,515.5h7v7h-7V515.5z M537.2,515.5h7v7h-7V515.5z M544.5,515.5h7v7h-7V515.5z M566.3,515.5h7v7h-7V515.5z
	 M573.5,515.5h7v7h-7V515.5z M326.7,522.7h7v7h-7V522.7z M334,522.7h7v7h-7V522.7z M370.3,522.7h7v7h-7V522.7z M377.5,522.7h7v7h-7
	V522.7z M392,522.7h7v7h-7V522.7z M406.6,522.7h7v7h-7V522.7z M413.8,522.7h7v7h-7V522.7z M435.6,522.7h7v7h-7V522.7z M442.9,522.7
	h7v7h-7V522.7z M544.5,522.7h7v7h-7V522.7z M551.8,522.7h7v7h-7V522.7z M559,522.7h7v7h-7V522.7z M566.3,522.7h7v7h-7V522.7z
	 M334,530h7v7h-7V530z M341.2,530h7v7h-7V530z M363,530h7v7h-7V530z M370.3,530h7v7h-7V530z M377.5,530h7v7h-7V530z M392,530h7v7h-7
	V530z M406.6,530h7v7h-7V530z M413.8,530h7v7h-7V530z M435.6,530h7v7h-7V530z M442.9,530h7v7h-7V530z M334,537.2h7v7h-7V537.2z
	 M341.2,537.2h7v7h-7V537.2z M377.5,537.2h7v7h-7V537.2z M392,537.2h7v7h-7V537.2z M399.3,537.2h7v7h-7V537.2z M406.6,537.2h7v7h-7
	V537.2z M413.8,537.2h7v7h-7V537.2z M428.3,537.2h7v7h-7V537.2z M435.6,537.2h7v7h-7V537.2z M442.9,537.2h7v7h-7V537.2z
	 M341.2,544.5h7v7h-7V544.5z M377.5,544.5h7v7h-7V544.5z M392,544.5h7v7h-7V544.5z M428.3,544.5h7v7h-7V544.5z M341.2,551.8h7v7h-7
	V551.8z M348.5,551.8h7v7h-7V551.8z M370.3,551.8h7v7h-7V551.8z M377.5,551.8h7v7h-7V551.8z M413.8,551.8h7v7h-7V551.8z
	 M421.1,551.8h7v7h-7V551.8z M428.3,551.8h7v7h-7V551.8z M348.5,559h7v7h-7V559z M355.7,559h7v7h-7V559z M363,559h7v7h-7V559z
	 M370.3,559h7v7h-7V559z M377.5,559h7v7h-7V559z M384.8,559h7v7h-7V559z M406.6,559h7v7h-7V559z M413.8,559h7v7h-7V559z M421.1,559
	h7v7h-7V559z M355.7,566.3h7v7h-7V566.3z M363,566.3h7v7h-7V566.3z M370.3,566.3h7v7h-7V566.3z M377.5,566.3h7v7h-7V566.3z
	 M399.3,566.3h7v7h-7V566.3z M406.6,566.3h7v7h-7V566.3z M413.8,566.3h7v7h-7V566.3z M363,573.5h7v7h-7V573.5z M370.3,573.5h7v7h-7
	V573.5z M377.5,573.5h7v7h-7V573.5z M392,573.5h7v7h-7V573.5z M399.3,573.5h7v7h-7V573.5z"/>
</svg>
