<?xml version="1.0" encoding="utf-8"?>
<!-- Generator: Adobe Illustrator 27.3.1, SVG Export Plug-In . SVG Version: 6.00 Build 0)  -->
<svg version="1.1" id="Слой_1" xmlns="http://www.w3.org/2000/svg" xmlns:xlink="http://www.w3.org/1999/xlink" x="0px" y="0px"
	 viewBox="0 0 130.3 101.3" style="enable-background:new 0 0 130.3 101.3;" xml:space="preserve">
<style type="text/css">
	.st0{fill:#1E0E01;enable-background:new    ;}
</style>
<g id="Слой_2_00000116913596683537442500000009879021292151539850_">
</g>
<rect x="0.1" y="7.2" class="st0" width="7" height="7"/>
<rect x="7.4" class="st0" width="7" height="7"/>
<rect x="14.6" class="st0" width="7" height="7"/>
<rect x="21.9" class="st0" width="7" height="7"/>
<rect x="29.1" class="st0" width="7" height="7"/>
<rect x="36.4" class="st0" width="7" height="7"/>
<rect x="43.7" class="st0" width="7" height="7"/>
<rect x="50.9" class="st0" width="7" height="7"/>
<rect x="58.2" class="st0" width="7" height="7"/>
<rect x="65.4" class="st0" width="7" height="7"/>
<rect x="72.7" class="st0" width="7" height="7"/>
<rect x="0.1" y="14.5" class="st0" width="7" height="7"/>
<rect x="0.1" y="21.7" class="st0" width="7" height="7"/>
<rect x="0.1" y="29" class="st0" width="7" height="7"/>
<rect x="0.1" y="36.2" class="st0" width="7" height="7"/>
<rect x="0.1" y="43.5" class="st0" width="7" height="7"/>
<rect x="0.1" y="50.8" class="st0" width="7" height="7"/>
<rect x="0.1" y="58" class="st0" width="7" height="7"/>
<rect x="0.1" y="65.3" class="st0" width="7" height="7"/>
<rect x="80" class="st0" width="7" height="7"/>
<rect x="87.2" class="st0" width="7" height="7"/>
<rect x="94.5" class="st0" width="7" height="7"/>
<rect x="101.7" class="st0" width="7" height="7"/>
<rect x="109" class="st0" width="7" height="7"/>
<rect x="0.1" y="72.6" class="st0" width="7" height="7"/>
<rect x="0.1" y="79.8" class="st0" width="7" height="7"/>
<rect x="0.1" y="87.1" class="st0" width="7" height="7"/>
<rect x="7.4" y="14.5" class="st0" width="7" height="7"/>
<rect x="7.4" y="21.7" class="st0" width="7" height="7"/>
<rect x="7.4" y="29" class="st0" width="7" height="7"/>
<rect x="7.4" y="36.2" class="st0" width="7" height="7"/>
<rect x="7.4" y="43.5" class="st0" width="7" height="7"/>
<rect x="7.4" y="50.8" class="st0" width="7" height="7"/>
<rect x="7.4" y="58" class="st0" width="7" height="7"/>
<rect x="7.4" y="65.3" class="st0" width="7" height="7"/>
<rect x="7.4" y="72.6" class="st0" width="7" height="7"/>
<rect x="7.4" y="79.8" class="st0" width="7" height="7"/>
<rect x="7.4" y="87.1" class="st0" width="7" height="7"/>
<rect x="14.6" y="21.7" class="st0" width="7" height="7"/>
<rect x="14.6" y="29" class="st0" width="7" height="7"/>
<rect x="14.6" y="36.2" class="st0" width="7" height="7"/>
<rect x="14.6" y="50.8" class="st0" width="7" height="7"/>
<rect x="14.6" y="58" class="st0" width="7" height="7"/>
<rect x="14.6" y="65.3" class="st0" width="7" height="7"/>
<rect x="14.6" y="79.8" class="st0" width="7" height="7"/>
<rect x="14.6" y="87.1" class="st0" width="7" height="7"/>
<rect x="21.9" y="29" class="st0" width="7" height="7"/>
<rect x="21.9" y="36.2" class="st0" width="7" height="7"/>
<rect x="21.9" y="50.8" class="st0" width="7" height="7"/>
<rect x="21.9" y="58" class="st0" width="7" height="7"/>
<rect x="21.9" y="65.3" class="st0" width="7" height="7"/>
<rect x="21.9" y="79.8" class="st0" width="7" height="7"/>
<rect x="21.9" y="87.1" class="st0" width="7" height="7"/>
<rect x="29.1" y="29" class="st0" width="7" height="7"/>
<rect x="29.1" y="36.2" class="st0" width="7" height="7"/>
<rect x="29.1" y="50.8" class="st0" width="7" height="7"/>
<rect x="29.1" y="58" class="st0" width="7" height="7"/>
<rect x="29.1" y="65.3" class="st0" width="7" height="7"/>
<rect x="29.1" y="79.8" class="st0" width="7" height="7"/>
<rect x="29.1" y="87.1" class="st0" width="7" height="7"/>
<rect x="36.4" y="21.7" class="st0" width="7" height="7"/>
<rect x="36.4" y="29" class="st0" width="7" height="7"/>
<rect x="36.4" y="36.2" class="st0" width="7" height="7"/>
<rect x="36.4" y="50.8" class="st0" width="7" height="7"/>
<rect x="36.4" y="58" class="st0" width="7" height="7"/>
<rect x="36.4" y="65.3" class="st0" width="7" height="7"/>
<rect x="36.4" y="79.8" class="st0" width="7" height="7"/>
<rect x="36.4" y="87.1" class="st0" width="7" height="7"/>
<rect x="43.7" y="21.7" class="st0" width="7" height="7"/>
<rect x="43.7" y="29" class="st0" width="7" height="7"/>
<rect x="43.7" y="36.2" class="st0" width="7" height="7"/>
<rect x="43.7" y="50.8" class="st0" width="7" height="7"/>
<rect x="43.7" y="58" class="st0" width="7" height="7"/>
<rect x="43.7" y="65.3" class="st0" width="7" height="7"/>
<rect x="43.7" y="79.8" class="st0" width="7" height="7"/>
<rect x="43.7" y="87.1" class="st0" width="7" height="7"/>
<rect x="50.9" y="21.7" class="st0" width="7" height="7"/>
<rect x="50.9" y="29" class="st0" width="7" height="7"/>
<rect x="50.9" y="36.2" class="st0" width="7" height="7"/>
<rect x="50.9" y="50.8" class="st0" width="7" height="7"/>
<rect x="50.9" y="58" class="st0" width="7" height="7"/>
<rect x="50.9" y="65.3" class="st0" width="7" height="7"/>
<rect x="50.9" y="79.8" class="st0" width="7" height="7"/>
<rect x="50.9" y="87.1" class="st0" width="7" height="7"/>
<rect x="58.2" y="21.7" class="st0" width="7" height="7"/>
<rect x="58.2" y="29" class="st0" width="7" height="7"/>
<rect x="58.2" y="58" class="st0" width="7" height="7"/>
<rect x="58.2" y="65.3" class="st0" width="7" height="7"/>
<rect x="58.2" y="79.8" class="st0" width="7" height="7"/>
<rect x="58.2" y="87.1" class="st0" width="7" height="7"/>
<rect x="65.4" y="21.7" class="st0" width="7" height="7"/>
<rect x="65.4" y="29" class="st0" width="7" height="7"/>
<rect x="65.4" y="58" class="st0" width="7" height="7"/>
<rect x="65.4" y="65.3" class="st0" width="7" height="7"/>
<rect x="65.4" y="79.8" class="st0" width="7" height="7"/>
<rect x="65.4" y="87.1" class="st0" width="7" height="7"/>
<rect x="72.7" y="21.7" class="st0" width="7" height="7"/>
<rect x="72.7" y="29" class="st0" width="7" height="7"/>
<rect x="72.7" y="36.2" class="st0" width="7" height="7"/>
<rect x="72.7" y="50.8" class="st0" width="7" height="7"/>
<rect x="72.7" y="58" class="st0" width="7" height="7"/>
<rect x="72.7" y="65.3" class="st0" width="7" height="7"/>
<rect x="72.7" y="79.8" class="st0" width="7" height="7"/>
<rect x="72.7" y="87.1" class="st0" width="7" height="7"/>
<rect x="80" y="21.7" class="st0" width="7" height="7"/>
<rect x="80" y="29" class="st0" width="7" height="7"/>
<rect x="80" y="36.2" class="st0" width="7" height="7"/>
<rect x="80" y="50.8" class="st0" width="7" height="7"/>
<rect x="80" y="58" class="st0" width="7" height="7"/>
<rect x="80" y="65.3" class="st0" width="7" height="7"/>
<rect x="80" y="79.8" class="st0" width="7" height="7"/>
<rect x="80" y="87.1" class="st0" width="7" height="7"/>
<rect x="87.2" y="21.7" class="st0" width="7" height="7"/>
<rect x="87.2" y="29" class="st0" width="7" height="7"/>
<rect x="87.2" y="36.2" class="st0" width="7" height="7"/>
<rect x="87.2" y="50.8" class="st0" width="7" height="7"/>
<rect x="87.2" y="58" class="st0" width="7" height="7"/>
<rect x="87.2" y="65.3" class="st0" width="7" height="7"/>
<rect x="87.2" y="79.8" class="st0" width="7" height="7"/>
<rect x="87.2" y="87.1" class="st0" width="7" height="7"/>
<rect x="94.5" y="21.7" class="st0" width="7" height="7"/>
<rect x="94.5" y="29" class="st0" width="7" height="7"/>
<rect x="94.5" y="36.2" class="st0" width="7" height="7"/>
<rect x="94.5" y="50.8" class="st0" width="7" height="7"/>
<rect x="94.5" y="58" class="st0" width="7" height="7"/>
<rect x="94.5" y="87.1" class="st0" width="7" height="7"/>
<rect x="101.7" y="21.7" class="st0" width="7" height="7"/>
<rect x="101.7" y="29" class="st0" width="7" height="7"/>
<rect x="101.7" y="36.2" class="st0" width="7" height="7"/>
<rect x="101.7" y="50.8" class="st0" width="7" height="7"/>
<rect x="101.7" y="58" class="st0" width="7" height="7"/>
<rect x="101.7" y="87.1" class="st0" width="7" height="7"/>
<rect x="109" y="21.7" class="st0" width="7" height="7"/>
<rect x="109" y="29" class="st0" width="7" height="7"/>
<rect x="109" y="36.2" class="st0" width="7" height="7"/>
<rect x="109" y="50.8" class="st0" width="7" height="7"/>
<rect x="109" y="58" class="st0" width="7" height="7"/>
<rect x="109" y="65.3" class="st0" width="7" height="7"/>
<rect x="109" y="79.8" class="st0" width="7" height="7"/>
<rect x="109" y="87.1" class="st0" width="7" height="7"/>
<rect x="7.4" y="7.2" class="st0" width="7" height="7"/>
<rect x="14.6" y="7.2" class="st0" width="7" height="7"/>
<rect x="36.4" y="7.2" class="st0" width="7" height="7"/>
<rect x="43.7" y="7.2" class="st0" width="7" height="7"/>
<rect x="50.9" y="7.2" class="st0" width="7" height="7"/>
<rect x="58.2" y="7.2" class="st0" width="7" height="7"/>
<rect x="65.4" y="7.2" class="st0" width="7" height="7"/>
<rect x="72.7" y="7.2" class="st0" width="7" height="7"/>
<rect x="80" y="7.2" class="st0" width="7" height="7"/>
<rect x="87.2" y="7.2" class="st0" width="7" height="7"/>
<rect x="94.5" y="7.2" class="st0" width="7" height="7"/>
<rect x="101.7" y="7.2" class="st0" width="7" height="7"/>
<rect x="109" y="7.2" class="st0" width="7" height="7"/>
<rect x="116.3" y="7.2" class="st0" width="7" height="7"/>
<rect x="116.3" y="14.5" class="st0" width="7" height="7"/>
<rect x="116.3" y="21.7" class="st0" width="7" height="7"/>
<rect x="116.3" y="29" class="st0" width="7" height="7"/>
<rect x="116.3" y="36.2" class="st0" width="7" height="7"/>
<rect x="116.3" y="43.5" class="st0" width="7" height="7"/>
<rect x="116.3" y="50.8" class="st0" width="7" height="7"/>
<rect x="116.3" y="58" class="st0" width="7" height="7"/>
<rect x="116.3" y="65.3" class="st0" width="7" height="7"/>
<rect x="116.3" y="72.6" class="st0" width="7" height="7"/>
<rect x="116.3" y="79.8" class="st0" width="7" height="7"/>
<rect x="116.3" y="87.1" class="st0" width="7" height="7"/>
<rect x="123.5" y="58" class="st0" width="7" height="7"/>
<rect x="7.5" y="94.3" class="st0" width="7" height="7"/>
<rect x="14.7" y="94.3" class="st0" width="7" height="7"/>
<rect x="22" y="94.3" class="st0" width="7" height="7"/>
<rect x="29.2" y="94.3" class="st0" width="7" height="7"/>
<rect x="36.5" y="94.3" class="st0" width="7" height="7"/>
<rect x="43.8" y="94.3" class="st0" width="7" height="7"/>
<rect x="51" y="94.3" class="st0" width="7" height="7"/>
<rect x="58.3" y="94.3" class="st0" width="7" height="7"/>
<rect x="65.5" y="94.3" class="st0" width="7" height="7"/>
<rect x="72.8" y="94.3" class="st0" width="7" height="7"/>
<rect x="80.1" y="94.3" class="st0" width="7" height="7"/>
<rect x="87.3" y="94.3" class="st0" width="7" height="7"/>
<rect x="94.6" y="94.3" class="st0" width="7" height="7"/>
<rect x="101.8" y="94.3" class="st0" width="7" height="7"/>
<rect x="109.1" y="94.3" class="st0" width="7" height="7"/>
<rect x="116.4" y="94.3" class="st0" width="7" height="7"/>
<rect x="116.3" class="st0" width="7" height="7"/>
<rect x="123.6" y="7.2" class="st0" width="7" height="7"/>
<rect x="123.6" y="14.5" class="st0" width="7" height="7"/>
<rect x="123.6" y="21.7" class="st0" width="7" height="7"/>
<rect x="123.6" y="29" class="st0" width="7" height="7"/>
<rect x="123.6" y="36.2" class="st0" width="7" height="7"/>
<rect x="123.6" y="43.5" class="st0" width="7" height="7"/>
<rect x="123.6" y="50.8" class="st0" width="7" height="7"/>
<rect x="123.6" y="65.3" class="st0" width="7" height="7"/>
<rect x="123.6" y="72.6" class="st0" width="7" height="7"/>
<rect x="123.6" y="79.8" class="st0" width="7" height="7"/>
<rect x="123.6" y="87.1" class="st0" width="7" height="7"/>
</svg>
