<?xml version="1.0" encoding="utf-8"?>
<!-- Generator: Adobe Illustrator 27.3.1, SVG Export Plug-In . SVG Version: 6.00 Build 0)  -->
<svg version="1.1" id="Слой_1" xmlns="http://www.w3.org/2000/svg" xmlns:xlink="http://www.w3.org/1999/xlink" x="0px" y="0px"
	 viewBox="0 0 602.3 174" style="enable-background:new 0 0 602.3 174;" xml:space="preserve">
<style type="text/css">
	.st0{display:none;}
	.st1{display:inline;fill:#1E0E01;}
	.st2{fill:#1E0E01;}
</style>
<g id="Слой_2_00000098181015156602193050000010738361665969750940_" class="st0">
	<polygon class="st1" points="94.9,170.4 258.8,123.4 337.8,123.4 507.3,168.7 507.3,173.2 337.3,128.9 258.8,128.9 98.4,173.2 	"/>
</g>
<path class="st2" d="M0,72.7h7v7H0V72.7z M0,65.4h7v7H0V65.4z M0,58.2h7v7H0V58.2z M0,79.9h7v7H0V79.9z M0,87.2h7v7H0V87.2z M0,94.4
	h7v7H0V94.4z M0,101.7h7v7H0V101.7z M0,108.9h7v7H0V108.9z M7.2,43.6h7v7h-7V43.6z M7.2,50.9h7v7h-7V50.9z M7.2,58.1h7v7h-7V58.1z
	 M7.2,65.4h7v7h-7V65.4z M7.2,72.7h7v7h-7V72.7z M7.2,79.9h7v7h-7V79.9z M7.2,87.2h7v7h-7V87.2z M7.2,94.4h7v7h-7V94.4z M7.2,101.7
	h7v7h-7V101.7z M7.2,108.9h7v7h-7V108.9z M7.2,116.2h7v7h-7V116.2z M7.2,123.5h7v7h-7V123.5z M14.5,36.4h7v7h-7V36.4z M14.5,43.6h7
	v7h-7V43.6z M14.5,116.2h7v7h-7V116.2z M14.5,123.5h7v7h-7V123.5z M14.5,130.7h7v7h-7V130.7z M14.5,138h7v7h-7V138z M21.8,21.8h7v7
	h-7V21.8z M21.8,29.1h7v7h-7V29.1z M21.8,36.4h7v7h-7V36.4z M21.8,50.9h7v7h-7V50.9z M21.8,58.1h7v7h-7V58.1z M21.8,130.7h7v7h-7
	V130.7z M21.8,138h7v7h-7V138z M21.8,145.2h7v7h-7V145.2z M29,21.8h7v7h-7V21.8z M29,29.1h7v7h-7V29.1z M29,43.6h7v7h-7V43.6z
	 M29,58.1h7v7h-7V58.1z M29,138h7v7h-7V138z M29,145.2h7v7h-7V145.2z M29,152.5h7v7h-7V152.5z M36.3,14.6h7v7h-7V14.6z M36.3,21.8h7
	v7h-7V21.8z M36.3,36.4h7v7h-7V36.4z M36.3,58.1h7v7h-7V58.1z M36.3,65.4h7v7h-7V65.4z M36.3,145.2h7v7h-7V145.2z M36.3,152.5h7v7
	h-7V152.5z M36.3,159.8h7v7h-7V159.8z M43.5,7.3h7v7h-7V7.3z M43.5,14.6h7v7h-7V14.6z M43.5,36.4h7v7h-7V36.4z M43.5,43.6h7v7h-7
	V43.6z M43.5,50.9h7v7h-7V50.9z M43.5,58.1h7v7h-7V58.1z M43.5,65.4h7v7h-7V65.4z M43.5,152.5h7v7h-7V152.5z M43.5,159.8h7v7h-7
	V159.8z M50.8,7.3h7v7h-7V7.3z M50.8,14.6h7v7h-7V14.6z M50.8,43.6h7v7h-7V43.6z M50.8,50.9h7v7h-7V50.9z M50.8,58.1h7v7h-7V58.1z
	 M50.8,65.4h7v7h-7V65.4z M50.8,152.5h7v7h-7V152.5z M50.8,159.8h7v7h-7V159.8z M50.8,167h7v7h-7V167z M58.1,7.3h7v7h-7V7.3z
	 M58.1,50.9h7v7h-7V50.9z M58.1,58.1h7v7h-7V58.1z M58.1,79.9h7v7h-7V79.9z M58.1,87.2h7v7h-7V87.2z M58.1,159.8h7v7h-7V159.8z
	 M58.1,167h7v7h-7V167z M65.3,0h7v7h-7V0z M65.3,7.3h7v7h-7V7.3z M65.3,65.4h7v7h-7V65.4z M65.3,72.7h7v7h-7V72.7z M65.3,79.9h7v7
	h-7V79.9z M65.3,87.2h7v7h-7V87.2z M65.3,94.4h7v7h-7V94.4z M65.3,159.8h7v7h-7V159.8z M65.3,167h7v7h-7V167z M72.6,0h7v7h-7V0z
	 M72.6,7.3h7v7h-7V7.3z M72.6,65.4h7v7h-7V65.4z M72.6,72.7h7v7h-7V72.7z M72.6,79.9h7v7h-7V79.9z M72.6,87.2h7v7h-7V87.2z
	 M72.6,94.4h7v7h-7V94.4z M72.6,101.7h7v7h-7V101.7z M72.6,123.5h7v7h-7V123.5z M72.6,130.7h7v7h-7V130.7z M72.6,138h7v7h-7V138z
	 M72.6,145.2h7v7h-7V145.2z M72.6,159.8h7v7h-7V159.8z M72.6,167h7v7h-7V167z M79.8,0h7v7h-7V0z M79.8,7.3h7v7h-7V7.3z M79.8,58.1h7
	v7h-7V58.1z M79.8,65.4h7v7h-7V65.4z M79.8,72.7h7v7h-7V72.7z M79.8,79.9h7v7h-7V79.9z M79.8,87.2h7v7h-7V87.2z M79.8,94.4h7v7h-7
	V94.4z M79.8,101.7h7v7h-7V101.7z M79.8,116.2h7v7h-7V116.2z M79.8,123.5h7v7h-7V123.5z M79.8,130.7h7v7h-7V130.7z M79.8,152.5h7v7
	h-7V152.5z M79.8,167h7v7h-7V167z M87.1,0h7v7h-7V0z M87.1,7.3h7v7h-7V7.3z M87.1,58.1h7v7h-7V58.1z M87.1,65.4h7v7h-7V65.4z
	 M87.1,72.7h7v7h-7V72.7z M87.1,79.9h7v7h-7V79.9z M87.1,87.2h7v7h-7V87.2z M87.1,94.4h7v7h-7V94.4z M87.1,101.7h7v7h-7V101.7z
	 M87.1,116.2h7v7h-7V116.2z M87.1,123.5h7v7h-7V123.5z M87.1,130.7h7v7h-7V130.7z M87.1,152.5h7v7h-7V152.5z M87.1,167h7v7h-7V167z
	 M94.4,0h7v7h-7V0z M94.4,7.3h7v7h-7V7.3z M94.4,58.1h7v7h-7V58.1z M94.4,65.4h7v7h-7V65.4z M94.4,72.7h7v7h-7V72.7z M94.4,79.9h7v7
	h-7V79.9z M94.4,87.2h7v7h-7V87.2z M94.4,94.4h7v7h-7V94.4z M94.4,101.7h7v7h-7V101.7z M94.4,123.5h7v7h-7V123.5z M94.4,130.7h7v7
	h-7V130.7z M94.4,138h7v7h-7V138z M94.4,145.2h7v7h-7V145.2z M94.4,152.5h7v7h-7V152.5z M94.4,167h7v7h-7V167z M101.6,0h7v7h-7V0z
	 M101.6,7.3h7v7h-7V7.3z M101.6,65.4h7v7h-7V65.4z M101.6,72.7h7v7h-7V72.7z M101.6,79.9h7v7h-7V79.9z M101.6,87.2h7v7h-7V87.2z
	 M101.6,94.4h7v7h-7V94.4z M101.6,159.8h7v7h-7V159.8z M101.6,167h7v7h-7V167z M108.9,0h7v7h-7V0z M108.9,7.3h7v7h-7V7.3z
	 M108.9,72.7h7v7h-7V72.7z M108.9,79.9h7v7h-7V79.9z M108.9,87.2h7v7h-7V87.2z M108.9,159.8h7v7h-7V159.8z M108.9,167h7v7h-7V167z
	 M116.1,7.3h7v7h-7V7.3z M116.1,14.6h7v7h-7V14.6z M116.1,50.9h7v7h-7V50.9z M116.1,58.1h7v7h-7V58.1z M116.1,65.4h7v7h-7V65.4z
	 M116.1,152.5h7v7h-7V152.5z M116.1,159.8h7v7h-7V159.8z M123.4,7.3h7v7h-7V7.3z M123.4,14.6h7v7h-7V14.6z M123.4,43.6h7v7h-7V43.6z
	 M123.4,50.9h7v7h-7V50.9z M123.4,58.1h7v7h-7V58.1z M123.4,65.4h7v7h-7V65.4z M123.4,72.7h7v7h-7V72.7z M123.4,145.2h7v7h-7V145.2z
	 M123.4,152.5h7v7h-7V152.5z M123.4,159.8h7v7h-7V159.8z M130.7,14.6h7v7h-7V14.6z M130.7,21.8h7v7h-7V21.8z M130.7,36.4h7v7h-7
	V36.4z M130.7,43.6h7v7h-7V43.6z M130.7,65.4h7v7h-7V65.4z M130.7,145.2h7v7h-7V145.2z M130.7,152.5h7v7h-7V152.5z M137.9,21.8h7v7
	h-7V21.8z M137.9,43.6h7v7h-7V43.6z M137.9,65.4h7v7h-7V65.4z M137.9,138h7v7h-7V138z M137.9,145.2h7v7h-7V145.2z M137.9,152.5h7v7
	h-7V152.5z M145.2,21.8h7v7h-7V21.8z M145.2,29.1h7v7h-7V29.1z M145.2,50.9h7v7h-7V50.9z M145.2,58.1h7v7h-7V58.1z M145.2,65.4h7v7
	h-7V65.4z M145.2,130.7h7v7h-7V130.7z M145.2,138h7v7h-7V138z M145.2,145.2h7v7h-7V145.2z M152.4,36.4h7v7h-7V36.4z M152.4,43.6h7v7
	h-7V43.6z M152.4,116.2h7v7h-7V116.2z M152.4,123.5h7v7h-7V123.5z M152.4,130.7h7v7h-7V130.7z M152.4,138h7v7h-7V138z M159.7,43.6h7
	v7h-7V43.6z M159.7,50.9h7v7h-7V50.9z M159.7,58.1h7v7h-7V58.1z M159.7,65.4h7v7h-7V65.4z M159.7,72.7h7v7h-7V72.7z M159.7,94.4h7v7
	h-7V94.4z M159.7,101.7h7v7h-7V101.7z M159.7,108.9h7v7h-7V108.9z M159.7,116.2h7v7h-7V116.2z M159.7,123.5h7v7h-7V123.5z M167,58.1
	h7v7h-7V58.1z M167,65.4h7v7h-7V65.4z M167,72.7h7v7h-7V72.7z M167,79.9h7v7h-7V79.9z M167,87.2h7v7h-7V87.2z M167,94.4h7v7h-7V94.4
	z M167,101.7h7v7h-7V101.7z M130.7,72.7h7v7h-7V72.7z M167,108.9h7v7h-7V108.9z M159.7,138h7v7h-7V138z M166.9,138h7v7h-7V138z
	 M174.2,138h7v7h-7V138z M181.4,138h7v7h-7V138z M188.7,138h7v7h-7V138z M196,138h7v7h-7V138z M210.5,130.7h7v7h-7V130.7z
	 M203.2,130.7h7v7h-7V130.7z M217.7,130.7h7v7h-7V130.7z M225,130.7h7v7h-7V130.7z M232.3,130.7h7v7h-7V130.7z M239.6,123.5h7v7h-7
	V123.5z M246.8,123.5h7v7h-7V123.5z M246.8,130.7h7v7h-7V130.7z M246.8,138h7v7h-7V138z M254.1,123.5h7v7h-7V123.5z M261.4,87.2h7v7
	h-7V87.2z M261.4,94.4h7v7h-7V94.4z M254,138h7v7h-7V138z M261.3,123.5h7v7h-7V123.5z M268.6,87.2h7v7h-7V87.2z M268.6,94.4h7v7h-7
	V94.4z M268.6,101.7h7v7h-7V101.7z M261.3,130.7h7v7h-7V130.7z M261.3,138h7v7h-7V138z M268.6,123.5h7v7h-7V123.5z M275.9,87.2h7v7
	h-7V87.2z M275.9,101.7h7v7h-7V101.7z M275.9,108.9h7v7h-7V108.9z M268.6,130.7h7v7h-7V130.7z M268.6,138h7v7h-7V138z M275.9,116.2
	h7v7h-7V116.2z M275.9,123.5h7v7h-7V123.5z M283.2,87.2h7v7h-7V87.2z M283.2,94.4h7v7h-7V94.4z M283.2,101.7h7v7h-7V101.7z
	 M283.1,116.2h7v7h-7V116.2z M283.1,123.5h7v7h-7V123.5z M290.4,87.2h7v7h-7V87.2z M290.4,101.7h7v7h-7V101.7z M290.4,108.9h7v7h-7
	V108.9z M290.4,116.2h7v7h-7V116.2z M290.4,123.5h7v7h-7V123.5z M297.7,87.2h7v7h-7V87.2z M297.7,94.4h7v7h-7V94.4z M297.7,101.7h7
	v7h-7V101.7z M297.6,116.2h7v7h-7V116.2z M297.6,123.5h7v7h-7V123.5z M304.9,87.2h7v7h-7V87.2z M304.9,101.7h7v7h-7V101.7z
	 M304.9,108.9h7v7h-7V108.9z M304.9,116.2h7v7h-7V116.2z M304.9,123.5h7v7h-7V123.5z M312.2,87.2h7v7h-7V87.2z M312.2,94.4h7v7h-7
	V94.4z M312.2,101.7h7v7h-7V101.7z M312.2,108.9h7v7h-7V108.9z M312.2,116.2h7v7h-7V116.2z M312.2,123.5h7v7h-7V123.5z M319.5,87.2
	h7v7h-7V87.2z M319.5,94.4h7v7h-7V94.4z M319.5,101.7h7v7h-7V101.7z M319.4,123.5h7v7h-7V123.5z M326.7,87.2h7v7h-7V87.2z
	 M326.7,94.4h7v7h-7V94.4z M319.4,130.7h7v7h-7V130.7z M319.4,138h7v7h-7V138z M326.7,123.5h7v7h-7V123.5z M326.6,130.7h7v7h-7
	V130.7z M326.6,138h7v7h-7V138z M333.9,123.5h7v7h-7V123.5z M333.9,138h7v7h-7V138z M341.2,123.5h7v7h-7V123.5z M341.2,130.7h7v7h-7
	V130.7z M341.2,138h7v7h-7V138z M254,145.3h7v7h-7V145.3z M261.3,145.3h7v7h-7V145.3z M326.6,145.3h7v7h-7V145.3z M333.9,145.3h7v7
	h-7V145.3z M348.5,123.5h7v7h-7V123.5z M348.4,130.7h7v7h-7V130.7z M355.7,130.7h7v7h-7V130.7z M362.9,130.7h7v7h-7V130.7z
	 M370.2,130.7h7v7h-7V130.7z M377.5,130.7h7v7h-7V130.7z M384.7,130.7h7v7h-7V130.7z M392,138h7v7h-7V138z M399.2,138h7v7h-7V138z
	 M406.5,138h7v7h-7V138z M413.8,138h7v7h-7V138z M421,138h7v7h-7V138z M428.3,138h7v7h-7V138z M435.5,138h7v7h-7V138z M442.8,138h7
	v7h-7V138z M152.4,29.1h7v7h-7V29.1z M428.3,58.1h7v7h-7V58.1z M428.3,65.4h7v7h-7V65.4z M428.3,72.7h7v7h-7V72.7z M428.3,79.9h7v7
	h-7V79.9z M428.3,87.2h7v7h-7V87.2z M428.3,94.4h7v7h-7V94.4z M428.3,101.7h7v7h-7V101.7z M435.6,36.4h7v7h-7V36.4z M435.6,43.6h7v7
	h-7V43.6z M435.6,50.9h7v7h-7V50.9z M435.6,58.1h7v7h-7V58.1z M435.6,65.4h7v7h-7V65.4z M428.4,108.9h7v7h-7V108.9z M435.6,108.9h7
	v7h-7V108.9z M435.6,116.2h7v7h-7V116.2z M435.6,123.5h7v7h-7V123.5z M442.9,21.8h7v7h-7V21.8z M442.9,29.1h7v7h-7V29.1z
	 M442.9,36.4h7v7h-7V36.4z M442.9,43.6h7v7h-7V43.6z M442.9,123.5h7v7h-7V123.5z M442.9,130.7h7v7h-7V130.7z M450.1,21.8h7v7h-7
	V21.8z M450.1,29.1h7v7h-7V29.1z M450.1,138h7v7h-7V138z M450.1,145.2h7v7h-7V145.2z M457.4,14.6h7v7h-7V14.6z M457.4,21.8h7v7h-7
	V21.8z M457.4,145.2h7v7h-7V145.2z M457.4,152.5h7v7h-7V152.5z M464.6,7.3h7v7h-7V7.3z M464.6,14.6h7v7h-7V14.6z M464.6,29.1h7v7h-7
	V29.1z M464.6,36.4h7v7h-7V36.4z M464.6,43.6h7v7h-7V43.6z M464.6,145.2h7v7h-7V145.2z M479.1,145.2h7v7h-7V145.2z M464.6,152.5h7v7
	h-7V152.5z M471.9,7.3h7v7h-7V7.3z M471.9,21.8h7v7h-7V21.8z M471.9,29.1h7v7h-7V29.1z M471.9,43.6h7v7h-7V43.6z M471.9,50.9h7v7h-7
	V50.9z M471.9,123.5h7v7h-7V123.5z M471.9,130.7h7v7h-7V130.7z M471.9,138h7v7h-7V138z M471.9,152.5h7v7h-7V152.5z M471.9,159.8h7v7
	h-7V159.8z M479.2,7.3h7v7h-7V7.3z M479.2,21.8h7v7h-7V21.8z M479.2,43.6h7v7h-7V43.6z M479.2,50.9h7v7h-7V50.9z M479.2,58.1h7v7h-7
	V58.1z M479.2,116.2h7v7h-7V116.2z M479.2,123.5h7v7h-7V123.5z M479.2,130.7h7v7h-7V130.7z M486.3,145.2h7v7h-7V145.2z M486.4,123.5
	h7v7h-7V123.5z M479.2,159.8h7v7h-7V159.8z M486.4,0h7v7h-7V0z M486.4,7.3h7v7h-7V7.3z M486.4,21.8h7v7h-7V21.8z M486.4,29.1h7v7h-7
	V29.1z M486.4,36.4h7v7h-7V36.4z M486.4,43.6h7v7h-7V43.6z M486.4,50.9h7v7h-7V50.9z M486.4,72.7h7v7h-7V72.7z M486.4,79.9h7v7h-7
	V79.9z M486.4,87.2h7v7h-7V87.2z M486.4,94.4h7v7h-7V94.4z M486.4,108.9h7v7h-7V108.9z M486.4,116.2h7v7h-7V116.2z M493.6,116.2h7v7
	h-7V116.2z M486.4,159.8h7v7h-7V159.8z M493.7,0h7v7h-7V0z M493.7,7.3h7v7h-7V7.3z M493.7,29.1h7v7h-7V29.1z M493.7,36.4h7v7h-7
	V36.4z M493.7,43.6h7v7h-7V43.6z M493.7,50.9h7v7h-7V50.9z M493.7,65.4h7v7h-7V65.4z M493.7,72.7h7v7h-7V72.7z M493.7,79.9h7v7h-7
	V79.9z M493.7,87.2h7v7h-7V87.2z M493.7,94.4h7v7h-7V94.4z M493.7,101.7h7v7h-7V101.7z M493.7,123.5h7v7h-7V123.5z M493.7,130.7h7v7
	h-7V130.7z M493.7,138h7v7h-7V138z M493.7,145.2h7v7h-7V145.2z M493.7,159.8h7v7h-7V159.8z M500.9,159.8h7v7h-7V159.8z M515.4,159.8
	h7v7h-7V159.8z M493.7,167h7v7h-7V167z M500.9,0h7v7h-7V0z M500.9,58.1h7v7h-7V58.1z M500.9,65.4h7v7h-7V65.4z M500.9,72.7h7v7h-7
	V72.7z M500.9,79.9h7v7h-7V79.9z M500.9,87.2h7v7h-7V87.2z M500.9,94.4h7v7h-7V94.4z M500.9,101.7h7v7h-7V101.7z M500.9,116.2h7v7
	h-7V116.2z M500.9,123.5h7v7h-7V123.5z M500.9,130.7h7v7h-7V130.7z M500.9,167h7v7h-7V167z M508.2,0h7v7h-7V0z M508.2,58.1h7v7h-7
	V58.1z M508.2,65.4h7v7h-7V65.4z M508.2,72.7h7v7h-7V72.7z M508.2,79.9h7v7h-7V79.9z M508.2,87.2h7v7h-7V87.2z M508.2,94.4h7v7h-7
	V94.4z M508.2,101.7h7v7h-7V101.7z M508.2,167h7v7h-7V167z M515.5,0h7v7h-7V0z M515.5,58.1h7v7h-7V58.1z M515.5,65.4h7v7h-7V65.4z
	 M515.5,72.7h7v7h-7V72.7z M515.5,79.9h7v7h-7V79.9z M515.5,87.2h7v7h-7V87.2z M515.5,94.4h7v7h-7V94.4z M515.5,101.7h7v7h-7V101.7z
	 M515.5,167h7v7h-7V167z M522.7,0h7v7h-7V0z M522.7,7.3h7v7h-7V7.3z M522.7,65.4h7v7h-7V65.4z M529.9,65.4h7v7h-7V65.4z M522.7,72.7
	h7v7h-7V72.7z M522.7,79.9h7v7h-7V79.9z M522.7,87.2h7v7h-7V87.2z M522.7,94.4h7v7h-7V94.4z M522.7,101.7h7v7h-7V101.7z
	 M522.7,159.8h7v7h-7V159.8z M522.7,167h7v7h-7V167z M530,0h7v7h-7V0z M530,7.3h7v7h-7V7.3z M530,72.7h7v7h-7V72.7z M530,79.9h7v7
	h-7V79.9z M530,87.2h7v7h-7V87.2z M530,94.4h7v7h-7V94.4z M544.5,79.9h7v7h-7V79.9z M544.5,87.2h7v7h-7V87.2z M530,159.8h7v7h-7
	V159.8z M530,167h7v7h-7V167z M537.2,7.3h7v7h-7V7.3z M537.2,152.5h7v7h-7V152.5z M537.2,159.8h7v7h-7V159.8z M544.5,7.3h7v7h-7V7.3
	z M544.5,14.6h7v7h-7V14.6z M544.5,72.7h7v7h-7V72.7z M551.7,79.9h7v7h-7V79.9z M551.7,87.2h7v7h-7V87.2z M551.7,94.4h7v7h-7V94.4z
	 M551.7,72.7h7v7h-7V72.7z M559,79.9h7v7h-7V79.9z M559,87.2h7v7h-7V87.2z M559,94.4h7v7h-7V94.4z M559,72.7h7v7h-7V72.7z
	 M566.3,94.4h7v7h-7V94.4z M566.2,72.7h7v7h-7V72.7z M573.5,87.2h7v7h-7V87.2z M580.8,79.9h7v7h-7V79.9z M580.8,87.2h7v7h-7V87.2z
	 M573.5,94.4h7v7h-7V94.4z M573.5,72.7h7v7h-7V72.7z M544.5,152.5h7v7h-7V152.5z M544.5,159.8h7v7h-7V159.8z M551.8,14.6h7v7h-7
	V14.6z M551.8,152.5h7v7h-7V152.5z M559,21.8h7v7h-7V21.8z M559,65.4h7v7h-7V65.4z M559,145.2h7v7h-7V145.2z M559,152.5h7v7h-7
	V152.5z M566.3,21.8h7v7h-7V21.8z M566.3,29.1h7v7h-7V29.1z M566.3,65.4h7v7h-7V65.4z M573.5,65.4h7v7h-7V65.4z M566.3,130.7h7v7h-7
	V130.7z M566.3,138h7v7h-7V138z M566.3,145.2h7v7h-7V145.2z M573.5,36.4h7v7h-7V36.4z M573.5,43.6h7v7h-7V43.6z M573.5,123.5h7v7h-7
	V123.5z M573.5,130.7h7v7h-7V130.7z M573.5,138h7v7h-7V138z M580.8,43.6h7v7h-7V43.6z M580.8,50.9h7v7h-7V50.9z M580.8,72.7h7v7h-7
	V72.7z M580.8,108.9h7v7h-7V108.9z M580.8,116.2h7v7h-7V116.2z M580.8,123.5h7v7h-7V123.5z M588.1,58.1h7v7h-7V58.1z M588.1,65.4h7
	v7h-7V65.4z M588.1,94.4h7v7h-7V94.4z M588.1,101.7h7v7h-7V101.7z M588,50.9h7v7h-7V50.9z M588,108.9h7v7h-7V108.9z M588,116.2h7v7
	h-7V116.2z M595.3,65.4h7v7h-7V65.4z M595.3,72.7h7v7h-7V72.7z M595.3,79.9h7v7h-7V79.9z M595.3,87.2h7v7h-7V87.2z M595.3,94.4h7v7
	h-7V94.4z"/>
</svg>
