<?xml version="1.0" encoding="utf-8"?>
<!-- Generator: Adobe Illustrator 27.3.1, SVG Export Plug-In . SVG Version: 6.00 Build 0)  -->
<svg version="1.1" id="Слой_1" xmlns="http://www.w3.org/2000/svg" xmlns:xlink="http://www.w3.org/1999/xlink" x="0px" y="0px"
	 viewBox="0 0 602.3 174" style="enable-background:new 0 0 602.3 174;" xml:space="preserve">
<style type="text/css">
	.st0{fill:#1E0E01;}
</style>
<path class="st0" d="M152.4,138h7v7h-7V138z M159.7,138h7v7h-7V138z M166.9,138h7v7h-7V138z M174.2,138h7v7h-7V138z M181.4,138h7v7
	h-7V138z M188.7,138h7v7h-7V138z M196,138h7v7h-7V138z M210.5,130.7h7v7h-7V130.7z M203.2,130.7h7v7h-7V130.7z M217.7,130.7h7v7h-7
	V130.7z M225,130.7h7v7h-7V130.7z M232.3,130.7h7v7h-7V130.7z M239.6,123.5h7v7h-7V123.5z M246.8,123.5h7v7h-7V123.5z M246.8,130.7
	h7v7h-7V130.7z M246.8,138h7v7h-7V138z M254.1,123.5h7v7h-7V123.5z M261.4,87.2h7v7h-7V87.2z M261.4,94.4h7v7h-7V94.4z M254.1,130.7
	h7v7h-7V130.7z M261.3,123.5h7v7h-7V123.5z M268.6,87.2h7v7h-7V87.2z M268.6,94.4h7v7h-7V94.4z M268.6,101.7h7v7h-7V101.7z
	 M261.3,130.7h7v7h-7V130.7z M254.1,138h7v7h-7V138z M268.6,123.5h7v7h-7V123.5z M275.9,87.2h7v7h-7V87.2z M275.9,101.7h7v7h-7
	V101.7z M275.9,108.9h7v7h-7V108.9z M268.6,130.7h7v7h-7V130.7z M268.6,138h7v7h-7V138z M275.9,116.2h7v7h-7V116.2z M275.9,123.5h7
	v7h-7V123.5z M283.2,87.2h7v7h-7V87.2z M283.2,94.4h7v7h-7V94.4z M283.2,101.7h7v7h-7V101.7z M283.1,116.2h7v7h-7V116.2z
	 M283.1,123.5h7v7h-7V123.5z M290.4,87.2h7v7h-7V87.2z M290.4,101.7h7v7h-7V101.7z M290.4,108.9h7v7h-7V108.9z M290.4,116.2h7v7h-7
	V116.2z M290.4,123.5h7v7h-7V123.5z M297.7,87.2h7v7h-7V87.2z M297.7,94.4h7v7h-7V94.4z M297.7,101.7h7v7h-7V101.7z M297.6,116.2h7
	v7h-7V116.2z M297.6,123.5h7v7h-7V123.5z M304.9,87.2h7v7h-7V87.2z M304.9,101.7h7v7h-7V101.7z M304.9,108.9h7v7h-7V108.9z
	 M304.9,116.2h7v7h-7V116.2z M304.9,123.5h7v7h-7V123.5z M312.2,87.2h7v7h-7V87.2z M312.2,94.4h7v7h-7V94.4z M312.2,101.7h7v7h-7
	V101.7z M312.2,108.9h7v7h-7V108.9z M312.2,116.2h7v7h-7V116.2z M312.2,123.5h7v7h-7V123.5z M319.5,87.2h7v7h-7V87.2z M319.5,94.4h7
	v7h-7V94.4z M319.5,101.7h7v7h-7V101.7z M319.4,123.5h7v7h-7V123.5z M326.7,87.2h7v7h-7V87.2z M326.7,94.4h7v7h-7V94.4z
	 M319.4,130.7h7v7h-7V130.7z M319.4,138h7v7h-7V138z M326.7,123.5h7v7h-7V123.5z M333.9,130.7h7v7h-7V130.7z M326.6,130.7h7v7h-7
	V130.7z M333.9,123.5h7v7h-7V123.5z M333.9,138h7v7h-7V138z M341.2,123.5h7v7h-7V123.5z M341.2,130.7h7v7h-7V130.7z M341.2,138h7v7
	h-7V138z M254,145.2h7v7h-7V145.2z M261.3,145.2h7v7h-7V145.2z M326.6,145.2h7v7h-7V145.2z M333.9,145.2h7v7h-7V145.2z M348.5,123.5
	h7v7h-7V123.5z M348.4,130.7h7v7h-7V130.7z M355.7,130.7h7v7h-7V130.7z M362.9,130.7h7v7h-7V130.7z M370.2,130.7h7v7h-7V130.7z
	 M377.5,130.7h7v7h-7V130.7z M384.7,130.7h7v7h-7V130.7z M392,138h7v7h-7V138z M399.2,138h7v7h-7V138z M406.5,138h7v7h-7V138z
	 M413.8,138h7v7h-7V138z M421,138h7v7h-7V138z M428.3,138h7v7h-7V138z M435.5,138h7v7h-7V138z M442.8,138h7v7h-7V138z M450.1,138h7
	v7h-7V138z M-0.1,72.9h7v7h-7V72.9z M-0.1,80.1h7v7h-7V80.1z M-0.1,87.4h7v7h-7V87.4z M-0.1,94.6h7v7h-7V94.6z M-0.1,101.9h7v7h-7
	V101.9z M7.1,51.1h7v7h-7V51.1z M7.1,58.3h7v7h-7V58.3z M7.1,65.6h7v7h-7V65.6z M7.1,72.9h7v7h-7V72.9z M7.1,80.1h7v7h-7V80.1z
	 M7.1,87.4h7v7h-7V87.4z M7.1,94.6h7v7h-7V94.6z M7.1,101.9h7v7h-7V101.9z M7.1,109.1h7v7h-7V109.1z M7.1,116.4h7v7h-7V116.4z
	 M14.4,36.6h7v7h-7V36.6z M14.4,43.8h7v7h-7V43.8z M14.4,51.1h7v7h-7V51.1z M14.4,109.1h7v7h-7V109.1z M14.4,116.4h7v7h-7V116.4z
	 M14.4,123.7h7v7h-7V123.7z M14.4,130.9h7v7h-7V130.9z M21.7,29.3h7v7h-7V29.3z M21.7,36.6h7v7h-7V36.6z M21.7,43.8h7v7h-7V43.8z
	 M29,123.7h7v7h-7V123.7z M21.7,130.9h7v7h-7V130.9z M21.7,138.2h7v7h-7V138.2z M28.9,22h7v7h-7V22z M28.9,29.3h7v7h-7V29.3z
	 M28.9,36.6h7v7h-7V36.6z M28.9,109.1h7v7h-7V109.1z M28.9,116.4h7v7h-7V116.4z M36.2,130.9h7v7h-7V130.9z M28.9,138.2h7v7h-7V138.2
	z M28.9,145.4h7v7h-7V145.4z M36.2,14.8h7v7h-7V14.8z M36.2,22h7v7h-7V22z M36.2,29.3h7v7h-7V29.3z M36.2,101.9h7v7h-7V101.9z
	 M36.2,109.1h7v7h-7V109.1z M36.2,145.4h7v7h-7V145.4z M36.2,152.7h7v7h-7V152.7z M43.4,7.5h7v7h-7V7.5z M43.4,14.8h7v7h-7V14.8z
	 M43.4,22h7v7h-7V22z M43.4,101.9h7v7h-7V101.9z M43.4,109.1h7v7h-7V109.1z M43.4,130.9h7v7h-7V130.9z M43.4,152.7h7v7h-7V152.7z
	 M43.4,160h7v7h-7V160z M50.7,7.5h7v7h-7V7.5z M50.7,14.8h7v7h-7V14.8z M50.7,101.9h7v7h-7V101.9z M50.7,109.1h7v7h-7V109.1z
	 M50.7,116.4h7v7h-7V116.4z M50.7,123.7h7v7h-7V123.7z M50.7,152.7h7v7h-7V152.7z M50.7,160h7v7h-7V160z M58,7.5h7v7h-7V7.5z
	 M58,80.1h7v7h-7V80.1z M58,101.9h7v7h-7V101.9z M58,109.1h7v7h-7V109.1z M58,116.4h7v7h-7V116.4z M58,160h7v7h-7V160z M58,167.2h7
	v7h-7V167.2z M65.2,0.2h7v7h-7V0.2z M65.2,7.5h7v7h-7V7.5z M65.2,14.8h7v7h-7V14.8z M65.2,22h7v7h-7V22z M65.2,29.3h7v7h-7V29.3z
	 M65.2,36.6h7v7h-7V36.6z M65.2,43.8h7v7h-7V43.8z M65.2,65.6h7v7h-7V65.6z M65.2,72.9h7v7h-7V72.9z M65.2,80.1h7v7h-7V80.1z
	 M65.2,87.4h7v7h-7V87.4z M65.2,94.6h7v7h-7V94.6z M79.7,109.1h7v7h-7V109.1z M87,109.1h7v7h-7V109.1z M65.2,160h7v7h-7V160z
	 M65.2,167.2h7v7h-7V167.2z M72.5,0.2h7v7h-7V0.2z M72.5,14.8h7v7h-7V14.8z M72.5,36.6h7v7h-7V36.6z M72.5,43.8h7v7h-7V43.8z
	 M72.5,51.1h7v7h-7V51.1z M72.5,65.6h7v7h-7V65.6z M72.5,72.9h7v7h-7V72.9z M72.5,80.1h7v7h-7V80.1z M72.5,87.4h7v7h-7V87.4z
	 M72.5,94.6h7v7h-7V94.6z M72.5,101.9h7v7h-7V101.9z M72.5,160h7v7h-7V160z M79.8,160h7v7h-7V160z M87,160h7v7h-7V160z M94.3,160h7
	v7h-7V160z M72.5,167.2h7v7h-7V167.2z M79.7,0.2h7v7h-7V0.2z M79.7,14.8h7v7h-7V14.8z M79.7,36.6h7v7h-7V36.6z M79.7,43.8h7v7h-7
	V43.8z M79.7,58.3h7v7h-7V58.3z M79.7,65.6h7v7h-7V65.6z M79.7,72.9h7v7h-7V72.9z M79.7,80.1h7v7h-7V80.1z M79.7,87.4h7v7h-7V87.4z
	 M79.7,94.6h7v7h-7V94.6z M79.7,101.9h7v7h-7V101.9z M79.7,167.2h7v7h-7V167.2z M87,0.2h7v7h-7V0.2z M87,14.8h7v7h-7V14.8z M87,22h7
	v7h-7V22z M87,29.3h7v7h-7V29.3z M87,36.6h7v7h-7V36.6z M87,43.8h7v7h-7V43.8z M87,58.3h7v7h-7V58.3z M87,65.6h7v7h-7V65.6z
	 M87,72.9h7v7h-7V72.9z M87,80.1h7v7h-7V80.1z M87,87.4h7v7h-7V87.4z M87,94.6h7v7h-7V94.6z M87,101.9h7v7h-7V101.9z M87,167.2h7v7
	h-7V167.2z M94.3,0.2h7v7h-7V0.2z M94.3,7.5h7v7h-7V7.5z M94.3,58.3h7v7h-7V58.3z M94.3,65.6h7v7h-7V65.6z M94.3,72.9h7v7h-7V72.9z
	 M94.3,80.1h7v7h-7V80.1z M94.3,87.4h7v7h-7V87.4z M94.3,94.6h7v7h-7V94.6z M94.3,101.9h7v7h-7V101.9z M94.3,167.2h7v7h-7V167.2z
	 M101.5,0.2h7v7h-7V0.2z M101.5,7.5h7v7h-7V7.5z M101.5,58.3h7v7h-7V58.3z M101.5,65.6h7v7h-7V65.6z M108.8,65.6h7v7h-7V65.6z
	 M101.5,72.9h7v7h-7V72.9z M101.5,80.1h7v7h-7V80.1z M101.5,87.4h7v7h-7V87.4z M101.5,94.6h7v7h-7V94.6z M101.5,101.9h7v7h-7V101.9z
	 M101.5,160h7v7h-7V160z M101.5,167.2h7v7h-7V167.2z M108.8,7.5h7v7h-7V7.5z M108.8,72.9h7v7h-7V72.9z M108.8,80.1h7v7h-7V80.1z
	 M108.8,87.4h7v7h-7V87.4z M116,101.9h7v7h-7V101.9z M116.1,94.6h7v7h-7V94.6z M123.3,109.1h7v7h-7V109.1z M123.3,101.9h7v7h-7
	V101.9z M123.3,87.4h7v7h-7V87.4z M123.3,94.6h7v7h-7V94.6z M108.8,160h7v7h-7V160z M108.8,167.2h7v7h-7V167.2z M116,7.5h7v7h-7V7.5
	z M116,14.8h7v7h-7V14.8z M116,152.7h7v7h-7V152.7z M116,160h7v7h-7V160z M123.3,7.5h7v7h-7V7.5z M123.3,14.8h7v7h-7V14.8z
	 M130.6,116.4h7v7h-7V116.4z M130.6,109.1h7v7h-7V109.1z M130.5,101.9h7v7h-7V101.9z M130.6,87.4h7v7h-7V87.4z M130.6,94.6h7v7h-7
	V94.6z M137.8,116.4h7v7h-7V116.4z M137.9,109.1h7v7h-7V109.1z M137.8,87.4h7v7h-7V87.4z M137.8,94.6h7v7h-7V94.6z M145.1,116.4h7v7
	h-7V116.4z M145.1,87.4h7v7h-7V87.4z M145.1,94.6h7v7h-7V94.6z M152.4,109.1h7v7h-7V109.1z M152.3,101.9h7v7h-7V101.9z M152.4,94.6
	h7v7h-7V94.6z M123.3,152.7h7v7h-7V152.7z M123.3,160h7v7h-7V160z M130.6,14.8h7v7h-7V14.8z M130.6,22h7v7h-7V22z M130.6,145.4h7v7
	h-7V145.4z M130.6,152.7h7v7h-7V152.7z M137.8,22h7v7h-7V22z M137.8,29.3h7v7h-7V29.3z M145.1,36.6h7v7h-7V36.6z M137.8,138.2h7v7
	h-7V138.2z M137.8,145.4h7v7h-7V145.4z M137.8,152.7h7v7h-7V152.7z M145.1,22h7v7h-7V22z M145.1,29.3h7v7h-7V29.3z M152.4,51.1h7v7
	h-7V51.1z M145.1,130.9h7v7h-7V130.9z M145.1,138.2h7v7h-7V138.2z M145.1,145.4h7v7h-7V145.4z M152.3,36.6h7v7h-7V36.6z M152.3,43.8
	h7v7h-7V43.8z M152.3,123.7h7v7h-7V123.7z M152.3,130.9h7v7h-7V130.9z M159.6,43.8h7v7h-7V43.8z M159.6,51.1h7v7h-7V51.1z
	 M159.6,58.3h7v7h-7V58.3z M159.6,65.6h7v7h-7V65.6z M159.6,72.9h7v7h-7V72.9z M159.6,109.1h7v7h-7V109.1z M166.9,109.1h7v7h-7
	V109.1z M159.6,116.4h7v7h-7V116.4z M159.6,123.7h7v7h-7V123.7z M166.9,58.3h7v7h-7V58.3z M166.9,65.6h7v7h-7V65.6z M166.9,72.9h7v7
	h-7V72.9z M166.9,80.1h7v7h-7V80.1z M166.9,87.4h7v7h-7V87.4z M166.9,94.6h7v7h-7V94.6z M166.9,101.9h7v7h-7V101.9z M428.3,58.1h7v7
	h-7V58.1z M428.3,65.4h7v7h-7V65.4z M428.3,72.7h7v7h-7V72.7z M428.3,79.9h7v7h-7V79.9z M428.3,87.2h7v7h-7V87.2z M428.3,94.4h7v7
	h-7V94.4z M428.3,101.7h7v7h-7V101.7z M435.6,43.6h7v7h-7V43.6z M435.6,50.9h7v7h-7V50.9z M435.6,58.1h7v7h-7V58.1z M435.6,72.7h7v7
	h-7V72.7z M435.6,79.9h7v7h-7V79.9z M435.6,101.7h7v7h-7V101.7z M435.6,108.9h7v7h-7V108.9z M435.6,116.2h7v7h-7V116.2z
	 M435.6,123.5h7v7h-7V123.5z M442.9,29.1h7v7h-7V29.1z M442.9,36.4h7v7h-7V36.4z M442.9,43.6h7v7h-7V43.6z M442.9,65.4h7v7h-7V65.4z
	 M442.9,72.7h7v7h-7V72.7z M442.9,79.9h7v7h-7V79.9z M442.9,87.2h7v7h-7V87.2z M442.9,123.5h7v7h-7V123.5z M442.9,130.7h7v7h-7
	V130.7z M442.9,138h7v7h-7V138z M450.1,21.8h7v7h-7V21.8z M450.1,29.1h7v7h-7V29.1z M450.1,58.1h7v7h-7V58.1z M450.1,65.4h7v7h-7
	V65.4z M450.1,87.2h7v7h-7V87.2z M450.1,138h7v7h-7V138z M450.1,145.2h7v7h-7V145.2z M457.4,21.8h7v7h-7V21.8z M457.4,65.4h7v7h-7
	V65.4z M457.4,72.7h7v7h-7V72.7z M457.4,79.9h7v7h-7V79.9z M457.4,87.2h7v7h-7V87.2z M457.4,145.2h7v7h-7V145.2z M457.4,152.5h7v7
	h-7V152.5z M464.6,14.6h7v7h-7V14.6z M464.6,21.8h7v7h-7V21.8z M464.6,65.4h7v7h-7V65.4z M464.6,72.7h7v7h-7V72.7z M464.6,79.9h7v7
	h-7V79.9z M464.6,87.2h7v7h-7V87.2z M464.6,152.5h7v7h-7V152.5z M471.9,7.3h7v7h-7V7.3z M471.9,14.6h7v7h-7V14.6z M471.9,72.7h7v7
	h-7V72.7z M471.9,79.9h7v7h-7V79.9z M471.9,87.2h7v7h-7V87.2z M471.9,152.5h7v7h-7V152.5z M471.9,159.8h7v7h-7V159.8z M479.2,7.3h7
	v7h-7V7.3z M479.2,79.9h7v7h-7V79.9z M479.2,159.8h7v7h-7V159.8z M486.4,0h7v7h-7V0z M486.4,7.3h7v7h-7V7.3z M486.4,65.4h7v7h-7
	V65.4z M486.4,72.7h7v7h-7V72.7z M486.4,79.9h7v7h-7V79.9z M486.4,87.2h7v7h-7V87.2z M486.4,94.4h7v7h-7V94.4z M486.4,159.8h7v7h-7
	V159.8z M493.7,0h7v7h-7V0z M493.7,58.1h7v7h-7V58.1z M493.7,65.4h7v7h-7V65.4z M493.7,72.7h7v7h-7V72.7z M493.7,79.9h7v7h-7V79.9z
	 M493.7,87.2h7v7h-7V87.2z M493.7,94.4h7v7h-7V94.4z M493.7,101.7h7v7h-7V101.7z M493.7,159.8h7v7h-7V159.8z M500.9,159.8h7v7h-7
	V159.8z M493.7,167h7v7h-7V167z M500.9,0h7v7h-7V0z M500.9,58.1h7v7h-7V58.1z M500.9,65.4h7v7h-7V65.4z M500.9,72.7h7v7h-7V72.7z
	 M500.9,79.9h7v7h-7V79.9z M500.9,87.2h7v7h-7V87.2z M500.9,94.4h7v7h-7V94.4z M500.9,101.7h7v7h-7V101.7z M500.9,167h7v7h-7V167z
	 M508.2,0h7v7h-7V0z M508.2,58.1h7v7h-7V58.1z M508.2,65.4h7v7h-7V65.4z M508.2,72.7h7v7h-7V72.7z M508.2,79.9h7v7h-7V79.9z
	 M508.2,87.2h7v7h-7V87.2z M508.2,94.4h7v7h-7V94.4z M508.2,101.7h7v7h-7V101.7z M515.4,116.2h7v7h-7V116.2z M508.2,167h7v7h-7V167z
	 M515.5,0h7v7h-7V0z M515.5,58.1h7v7h-7V58.1z M515.5,65.4h7v7h-7V65.4z M515.5,72.7h7v7h-7V72.7z M515.5,79.9h7v7h-7V79.9z
	 M515.5,87.2h7v7h-7V87.2z M515.5,94.4h7v7h-7V94.4z M515.5,101.7h7v7h-7V101.7z M515.5,123.5h7v7h-7V123.5z M515.5,130.7h7v7h-7
	V130.7z M515.5,138h7v7h-7V138z M515.5,145.2h7v7h-7V145.2z M522.7,116.2h7v7h-7V116.2z M522.7,123.5h7v7h-7V123.5z M522.7,130.7h7
	v7h-7V130.7z M522.7,145.2h7v7h-7V145.2z M530,116.2h7v7h-7V116.2z M530,123.5h7v7h-7V123.5z M530,130.7h7v7h-7V130.7z M530,145.2h7
	v7h-7V145.2z M515.5,167h7v7h-7V167z M522.7,0h7v7h-7V0z M522.7,50.9h7v7h-7V50.9z M522.7,65.4h7v7h-7V65.4z M522.7,72.7h7v7h-7
	V72.7z M522.7,79.9h7v7h-7V79.9z M522.7,87.2h7v7h-7V87.2z M522.7,94.4h7v7h-7V94.4z M522.7,101.7h7v7h-7V101.7z M522.7,159.8h7v7
	h-7V159.8z M522.7,167h7v7h-7V167z M530,0h7v7h-7V0z M530,7.3h7v7h-7V7.3z M530,29.1h7v7h-7V29.1z M530,36.4h7v7h-7V36.4z M530,43.6
	h7v7h-7V43.6z M530,50.9h7v7h-7V50.9z M530,58.1h7v7h-7V58.1z M530,72.7h7v7h-7V72.7z M530,79.9h7v7h-7V79.9z M530,87.2h7v7h-7V87.2
	z M530,94.4h7v7h-7V94.4z M537.2,123.5h7v7h-7V123.5z M537.2,130.7h7v7h-7V130.7z M537.2,138h7v7h-7V138z M537.2,145.2h7v7h-7V145.2
	z M544.5,130.7h7v7h-7V130.7z M544.5,138h7v7h-7V138z M530,159.8h7v7h-7V159.8z M530,167h7v7h-7V167z M537.2,7.3h7v7h-7V7.3z
	 M537.2,21.8h7v7h-7V21.8z M537.2,29.1h7v7h-7V29.1z M537.2,43.6h7v7h-7V43.6z M537.2,50.9h7v7h-7V50.9z M537.2,58.1h7v7h-7V58.1z
	 M537.2,159.8h7v7h-7V159.8z M544.5,7.3h7v7h-7V7.3z M551.7,7.3h7v7h-7V7.3z M544.5,14.6h7v7h-7V14.6z M544.5,29.1h7v7h-7V29.1z
	 M544.5,50.9h7v7h-7V50.9z M544.5,58.1h7v7h-7V58.1z M544.5,152.5h7v7h-7V152.5z M544.5,159.8h7v7h-7V159.8z M551.8,14.6h7v7h-7
	V14.6z M559,14.6h7v7h-7V14.6z M551.8,29.1h7v7h-7V29.1z M551.8,36.4h7v7h-7V36.4z M551.8,43.6h7v7h-7V43.6z M551.8,50.9h7v7h-7
	V50.9z M551.8,152.5h7v7h-7V152.5z M559,21.8h7v7h-7V21.8z M559,36.4h7v7h-7V36.4z M559,43.6h7v7h-7V43.6z M559,145.2h7v7h-7V145.2z
	 M559,152.5h7v7h-7V152.5z M566.3,21.8h7v7h-7V21.8z M566.3,29.1h7v7h-7V29.1z M573.5,29.1h7v7h-7V29.1z M566.3,138h7v7h-7V138z
	 M566.3,145.2h7v7h-7V145.2z M573.5,36.4h7v7h-7V36.4z M580.7,36.4h7v7h-7V36.4z M573.5,123.5h7v7h-7V123.5z M573.5,130.7h7v7h-7
	V130.7z M573.5,138h7v7h-7V138z M580.8,43.6h7v7h-7V43.6z M588,43.6h7v7h-7V43.6z M580.8,50.9h7v7h-7V50.9z M588,50.9h7v7h-7V50.9z
	 M580.8,116.2h7v7h-7V116.2z M580.8,123.5h7v7h-7V123.5z M588.1,58.1h7v7h-7V58.1z M595.3,58.1h7v7h-7V58.1z M595.3,65.4h7v7h-7
	V65.4z M595.3,72.7h7v7h-7V72.7z M595.3,79.9h7v7h-7V79.9z M595.3,87.2h7v7h-7V87.2z M595.3,94.4h7v7h-7V94.4z M588.1,101.7h7v7h-7
	V101.7z M588,108.9h7v7h-7V108.9z M588,108.9h7v7h-7V108.9z M588,116.2h7v7h-7V116.2z M595.3,101.7h7v7h-7V101.7z"/>
</svg>
