<?xml version="1.0" encoding="utf-8"?>
<!-- Generator: Adobe Illustrator 27.3.1, SVG Export Plug-In . SVG Version: 6.00 Build 0)  -->
<svg version="1.1" id="Слой_1" xmlns="http://www.w3.org/2000/svg" xmlns:xlink="http://www.w3.org/1999/xlink" x="0px" y="0px"
	 viewBox="0 0 602.3 174" style="enable-background:new 0 0 602.3 174;" xml:space="preserve">
<style type="text/css">
	.st0{fill:#1E0E01;}
</style>
<path class="st0" d="M152.4,138h7v7h-7V138z M159.7,138h7v7h-7V138z M166.9,138h7v7h-7V138z M174.2,138h7v7h-7V138z M181.4,138h7v7
	h-7V138z M188.7,138h7v7h-7V138z M196,138h7v7h-7V138z M210.5,130.7h7v7h-7V130.7z M203.2,130.7h7v7h-7V130.7z M217.7,130.7h7v7h-7
	V130.7z M225,130.7h7v7h-7V130.7z M232.3,130.7h7v7h-7V130.7z M239.6,123.5h7v7h-7V123.5z M246.8,123.5h7v7h-7V123.5z M246.8,130.7
	h7v7h-7V130.7z M246.8,138h7v7h-7V138z M254.1,123.5h7v7h-7V123.5z M261.4,87.2h7v7h-7V87.2z M261.4,94.4h7v7h-7V94.4z M254.1,130.7
	h7v7h-7V130.7z M261.3,123.5h7v7h-7V123.5z M268.6,87.2h7v7h-7V87.2z M268.6,94.4h7v7h-7V94.4z M268.6,101.7h7v7h-7V101.7z
	 M261.3,138h7v7h-7V138z M254.1,138h7v7h-7V138z M268.6,123.5h7v7h-7V123.5z M275.9,87.2h7v7h-7V87.2z M275.9,101.7h7v7h-7V101.7z
	 M275.9,108.9h7v7h-7V108.9z M268.6,130.7h7v7h-7V130.7z M268.6,138h7v7h-7V138z M275.9,116.2h7v7h-7V116.2z M275.9,123.5h7v7h-7
	V123.5z M283.2,87.2h7v7h-7V87.2z M283.2,94.4h7v7h-7V94.4z M283.2,101.7h7v7h-7V101.7z M283.1,116.2h7v7h-7V116.2z M283.1,123.5h7
	v7h-7V123.5z M290.4,87.2h7v7h-7V87.2z M290.4,101.7h7v7h-7V101.7z M290.4,108.9h7v7h-7V108.9z M290.4,116.2h7v7h-7V116.2z
	 M290.4,123.5h7v7h-7V123.5z M297.7,87.2h7v7h-7V87.2z M297.7,94.4h7v7h-7V94.4z M297.7,101.7h7v7h-7V101.7z M297.6,116.2h7v7h-7
	V116.2z M297.6,123.5h7v7h-7V123.5z M304.9,87.2h7v7h-7V87.2z M304.9,101.7h7v7h-7V101.7z M304.9,108.9h7v7h-7V108.9z M304.9,116.2
	h7v7h-7V116.2z M304.9,123.5h7v7h-7V123.5z M312.2,87.2h7v7h-7V87.2z M312.2,94.4h7v7h-7V94.4z M312.2,101.7h7v7h-7V101.7z
	 M312.2,108.9h7v7h-7V108.9z M312.2,116.2h7v7h-7V116.2z M312.2,123.5h7v7h-7V123.5z M319.5,87.2h7v7h-7V87.2z M319.5,94.4h7v7h-7
	V94.4z M319.5,101.7h7v7h-7V101.7z M319.4,123.5h7v7h-7V123.5z M326.7,87.2h7v7h-7V87.2z M326.7,94.4h7v7h-7V94.4z M319.4,130.7h7v7
	h-7V130.7z M319.4,138h7v7h-7V138z M326.7,123.5h7v7h-7V123.5z M333.9,130.7h7v7h-7V130.7z M326.6,130.7h7v7h-7V130.7z M333.9,123.5
	h7v7h-7V123.5z M326.6,138h7v7h-7V138z M341.2,123.5h7v7h-7V123.5z M341.2,130.7h7v7h-7V130.7z M341.2,138h7v7h-7V138z M254,145.2h7
	v7h-7V145.2z M261.3,145.2h7v7h-7V145.2z M326.6,145.2h7v7h-7V145.2z M333.9,145.2h7v7h-7V145.2z M348.5,123.5h7v7h-7V123.5z
	 M348.4,130.7h7v7h-7V130.7z M355.7,130.7h7v7h-7V130.7z M362.9,130.7h7v7h-7V130.7z M370.2,130.7h7v7h-7V130.7z M377.5,130.7h7v7
	h-7V130.7z M384.7,130.7h7v7h-7V130.7z M392,138h7v7h-7V138z M399.2,138h7v7h-7V138z M406.5,138h7v7h-7V138z M413.8,138h7v7h-7V138z
	 M421,138h7v7h-7V138z M428.3,138h7v7h-7V138z M435.5,138h7v7h-7V138z M442.8,138h7v7h-7V138z M450.1,138h7v7h-7V138z M-0.1,58.1h7
	v7h-7V58.1z M-0.1,65.4h7v7h-7V65.4z M-0.1,72.7h7v7h-7V72.7z M-0.1,79.9h7v7h-7V79.9z M-0.1,87.2h7v7h-7V87.2z M-0.1,94.4h7v7h-7
	V94.4z M-0.1,101.7h7v7h-7V101.7z M7.2,43.6h7v7h-7V43.6z M7.2,50.9h7v7h-7V50.9z M7.2,58.1h7v7h-7V58.1z M7.2,72.7h7v7h-7V72.7z
	 M7.2,79.9h7v7h-7V79.9z M7.2,101.7h7v7h-7V101.7z M7.2,108.9h7v7h-7V108.9z M7.2,116.2h7v7h-7V116.2z M7.2,123.5h7v7h-7V123.5z
	 M14.5,29.1h7v7h-7V29.1z M14.5,36.4h7v7h-7V36.4z M14.5,43.6h7v7h-7V43.6z M14.5,65.4h7v7h-7V65.4z M14.5,72.7h7v7h-7V72.7z
	 M14.5,79.9h7v7h-7V79.9z M14.5,87.2h7v7h-7V87.2z M14.5,123.5h7v7h-7V123.5z M14.5,130.7h7v7h-7V130.7z M14.5,138h7v7h-7V138z
	 M21.7,21.8h7v7h-7V21.8z M21.7,29.1h7v7h-7V29.1z M21.7,58.1h7v7h-7V58.1z M21.7,65.4h7v7h-7V65.4z M21.7,87.2h7v7h-7V87.2z
	 M21.7,138h7v7h-7V138z M21.7,145.2h7v7h-7V145.2z M29,21.8h7v7h-7V21.8z M29,65.4h7v7h-7V65.4z M29,72.7h7v7h-7V72.7z M29,79.9h7v7
	h-7V79.9z M29,87.2h7v7h-7V87.2z M29,145.2h7v7h-7V145.2z M29,152.5h7v7h-7V152.5z M36.2,14.6h7v7h-7V14.6z M36.2,21.8h7v7h-7V21.8z
	 M36.2,65.4h7v7h-7V65.4z M36.2,72.7h7v7h-7V72.7z M36.2,79.9h7v7h-7V79.9z M36.2,87.2h7v7h-7V87.2z M36.2,152.5h7v7h-7V152.5z
	 M43.5,7.3h7v7h-7V7.3z M43.5,14.6h7v7h-7V14.6z M43.5,72.7h7v7h-7V72.7z M43.5,79.9h7v7h-7V79.9z M43.5,87.2h7v7h-7V87.2z
	 M43.5,152.5h7v7h-7V152.5z M43.5,159.8h7v7h-7V159.8z M50.8,7.3h7v7h-7V7.3z M50.8,79.9h7v7h-7V79.9z M50.8,159.8h7v7h-7V159.8z
	 M58,0h7v7h-7V0z M58,7.3h7v7h-7V7.3z M58,65.4h7v7h-7V65.4z M58,72.7h7v7h-7V72.7z M58,79.9h7v7h-7V79.9z M58,87.2h7v7h-7V87.2z
	 M58,94.4h7v7h-7V94.4z M58,159.8h7v7h-7V159.8z M65.3,0h7v7h-7V0z M65.3,58.1h7v7h-7V58.1z M65.3,65.4h7v7h-7V65.4z M65.3,72.7h7v7
	h-7V72.7z M65.3,79.9h7v7h-7V79.9z M65.3,87.2h7v7h-7V87.2z M65.3,94.4h7v7h-7V94.4z M65.3,101.7h7v7h-7V101.7z M65.3,159.8h7v7h-7
	V159.8z M72.5,159.8h7v7h-7V159.8z M65.3,167h7v7h-7V167z M72.5,0h7v7h-7V0z M72.5,58.1h7v7h-7V58.1z M72.5,65.4h7v7h-7V65.4z
	 M72.5,72.7h7v7h-7V72.7z M72.5,79.9h7v7h-7V79.9z M72.5,87.2h7v7h-7V87.2z M72.5,94.4h7v7h-7V94.4z M72.5,101.7h7v7h-7V101.7z
	 M72.5,167h7v7h-7V167z M79.8,0h7v7h-7V0z M79.8,58.1h7v7h-7V58.1z M79.8,65.4h7v7h-7V65.4z M79.8,72.7h7v7h-7V72.7z M79.8,79.9h7v7
	h-7V79.9z M79.8,87.2h7v7h-7V87.2z M79.8,94.4h7v7h-7V94.4z M79.8,101.7h7v7h-7V101.7z M87,116.2h7v7h-7V116.2z M79.8,167h7v7h-7
	V167z M87.1,0h7v7h-7V0z M87.1,58.1h7v7h-7V58.1z M87.1,65.4h7v7h-7V65.4z M87.1,72.7h7v7h-7V72.7z M87.1,79.9h7v7h-7V79.9z
	 M87.1,87.2h7v7h-7V87.2z M87.1,94.4h7v7h-7V94.4z M87.1,101.7h7v7h-7V101.7z M87.1,123.5h7v7h-7V123.5z M87.1,130.7h7v7h-7V130.7z
	 M87.1,138h7v7h-7V138z M87.1,145.2h7v7h-7V145.2z M94.3,116.2h7v7h-7V116.2z M94.3,123.5h7v7h-7V123.5z M94.3,130.7h7v7h-7V130.7z
	 M94.3,145.2h7v7h-7V145.2z M101.6,116.2h7v7h-7V116.2z M101.6,123.5h7v7h-7V123.5z M101.6,130.7h7v7h-7V130.7z M101.6,145.2h7v7h-7
	V145.2z M87.1,167h7v7h-7V167z M94.3,0h7v7h-7V0z M94.3,50.9h7v7h-7V50.9z M94.3,65.4h7v7h-7V65.4z M94.3,72.7h7v7h-7V72.7z
	 M94.3,79.9h7v7h-7V79.9z M94.3,87.2h7v7h-7V87.2z M94.3,94.4h7v7h-7V94.4z M94.3,101.7h7v7h-7V101.7z M94.3,159.8h7v7h-7V159.8z
	 M94.3,167h7v7h-7V167z M101.6,0h7v7h-7V0z M101.6,7.3h7v7h-7V7.3z M101.6,29.1h7v7h-7V29.1z M101.6,36.4h7v7h-7V36.4z M101.6,43.6
	h7v7h-7V43.6z M101.6,50.9h7v7h-7V50.9z M101.6,58.1h7v7h-7V58.1z M101.6,72.7h7v7h-7V72.7z M101.6,79.9h7v7h-7V79.9z M101.6,87.2h7
	v7h-7V87.2z M101.6,94.4h7v7h-7V94.4z M108.8,123.5h7v7h-7V123.5z M108.8,130.7h7v7h-7V130.7z M108.8,138h7v7h-7V138z M108.8,145.2
	h7v7h-7V145.2z M116.1,130.7h7v7h-7V130.7z M116.1,138h7v7h-7V138z M101.6,159.8h7v7h-7V159.8z M101.6,167h7v7h-7V167z M108.8,7.3h7
	v7h-7V7.3z M108.8,21.8h7v7h-7V21.8z M108.8,29.1h7v7h-7V29.1z M108.8,43.6h7v7h-7V43.6z M108.8,50.9h7v7h-7V50.9z M108.8,58.1h7v7
	h-7V58.1z M108.8,159.8h7v7h-7V159.8z M116.1,7.3h7v7h-7V7.3z M123.3,7.3h7v7h-7V7.3z M116.1,14.6h7v7h-7V14.6z M116.1,29.1h7v7h-7
	V29.1z M116.1,50.9h7v7h-7V50.9z M116.1,58.1h7v7h-7V58.1z M116.1,152.5h7v7h-7V152.5z M116.1,159.8h7v7h-7V159.8z M123.4,14.6h7v7
	h-7V14.6z M130.6,14.6h7v7h-7V14.6z M123.4,29.1h7v7h-7V29.1z M123.4,36.4h7v7h-7V36.4z M123.4,43.6h7v7h-7V43.6z M123.4,50.9h7v7
	h-7V50.9z M123.4,152.5h7v7h-7V152.5z M130.6,21.8h7v7h-7V21.8z M130.6,36.4h7v7h-7V36.4z M130.6,43.6h7v7h-7V43.6z M130.6,145.2h7
	v7h-7V145.2z M130.6,152.5h7v7h-7V152.5z M137.9,21.8h7v7h-7V21.8z M137.9,29.1h7v7h-7V29.1z M145.1,29.1h7v7h-7V29.1z M137.9,138h7
	v7h-7V138z M137.9,145.2h7v7h-7V145.2z M145.1,36.4h7v7h-7V36.4z M152.3,36.4h7v7h-7V36.4z M145.1,123.5h7v7h-7V123.5z M145.1,130.7
	h7v7h-7V130.7z M145.1,138h7v7h-7V138z M152.4,43.6h7v7h-7V43.6z M159.6,43.6h7v7h-7V43.6z M152.4,50.9h7v7h-7V50.9z M159.6,50.9h7
	v7h-7V50.9z M152.4,116.2h7v7h-7V116.2z M152.4,123.5h7v7h-7V123.5z M159.7,58.1h7v7h-7V58.1z M166.9,58.1h7v7h-7V58.1z M166.9,65.4
	h7v7h-7V65.4z M166.9,72.7h7v7h-7V72.7z M166.9,79.9h7v7h-7V79.9z M166.9,87.2h7v7h-7V87.2z M166.9,94.4h7v7h-7V94.4z M159.7,101.7
	h7v7h-7V101.7z M159.6,108.9h7v7h-7V108.9z M159.6,108.9h7v7h-7V108.9z M159.6,116.2h7v7h-7V116.2z M166.9,101.7h7v7h-7V101.7z
	 M428.3,72.6h7v7h-7V72.6z M428.3,65.3h7v7h-7V65.3z M428.3,58.1h7v7h-7V58.1z M428.3,79.8h7v7h-7V79.8z M428.3,87.1h7v7h-7V87.1z
	 M428.3,94.3h7v7h-7V94.3z M428.3,101.6h7v7h-7V101.6z M428.3,108.8h7v7h-7V108.8z M435.5,43.5h7v7h-7V43.5z M435.5,50.8h7v7h-7
	V50.8z M435.5,58h7v7h-7V58z M435.5,65.3h7v7h-7V65.3z M435.5,72.6h7v7h-7V72.6z M435.5,79.8h7v7h-7V79.8z M435.5,87.1h7v7h-7V87.1z
	 M435.5,94.3h7v7h-7V94.3z M435.5,101.6h7v7h-7V101.6z M435.5,108.8h7v7h-7V108.8z M435.5,116.1h7v7h-7V116.1z M435.5,123.4h7v7h-7
	V123.4z M442.8,36.3h7v7h-7V36.3z M442.8,43.5h7v7h-7V43.5z M442.8,116.1h7v7h-7V116.1z M442.8,123.4h7v7h-7V123.4z M442.8,130.6h7
	v7h-7V130.6z M442.8,137.9h7v7h-7V137.9z M450.1,21.7h7v7h-7V21.7z M450.1,29h7v7h-7V29z M450.1,36.3h7v7h-7V36.3z M450.1,50.8h7v7
	h-7V50.8z M450.1,58h7v7h-7V58z M450.1,130.6h7v7h-7V130.6z M450.1,137.9h7v7h-7V137.9z M450.1,145.1h7v7h-7V145.1z M457.3,21.7h7v7
	h-7V21.7z M457.3,29h7v7h-7V29z M457.3,43.5h7v7h-7V43.5z M457.3,58h7v7h-7V58z M457.3,137.9h7v7h-7V137.9z M457.3,145.1h7v7h-7
	V145.1z M457.3,152.4h7v7h-7V152.4z M464.6,14.5h7v7h-7V14.5z M464.6,21.7h7v7h-7V21.7z M464.6,36.3h7v7h-7V36.3z M464.6,58h7v7h-7
	V58z M464.6,65.3h7v7h-7V65.3z M464.6,145.1h7v7h-7V145.1z M464.6,152.4h7v7h-7V152.4z M464.6,159.7h7v7h-7V159.7z M471.8,7.2h7v7
	h-7V7.2z M471.8,14.5h7v7h-7V14.5z M471.8,36.3h7v7h-7V36.3z M471.8,43.5h7v7h-7V43.5z M471.8,50.8h7v7h-7V50.8z M471.8,58h7v7h-7
	V58z M471.8,65.3h7v7h-7V65.3z M471.8,152.4h7v7h-7V152.4z M471.8,159.7h7v7h-7V159.7z M479.1,7.2h7v7h-7V7.2z M479.1,14.5h7v7h-7
	V14.5z M479.1,43.5h7v7h-7V43.5z M479.1,50.8h7v7h-7V50.8z M479.1,58h7v7h-7V58z M479.1,65.3h7v7h-7V65.3z M479.1,152.4h7v7h-7
	V152.4z M479.1,159.7h7v7h-7V159.7z M479.1,166.9h7v7h-7V166.9z M486.4,7.2h7v7h-7V7.2z M486.4,50.8h7v7h-7V50.8z M486.4,58h7v7h-7
	V58z M486.4,79.8h7v7h-7V79.8z M486.4,87.1h7v7h-7V87.1z M486.4,159.7h7v7h-7V159.7z M486.4,166.9h7v7h-7V166.9z M493.6-0.1h7v7h-7
	V-0.1z M493.6,7.2h7v7h-7V7.2z M493.6,65.3h7v7h-7V65.3z M493.6,72.6h7v7h-7V72.6z M493.6,79.8h7v7h-7V79.8z M493.6,87.1h7v7h-7
	V87.1z M493.6,94.3h7v7h-7V94.3z M493.6,159.7h7v7h-7V159.7z M493.6,166.9h7v7h-7V166.9z M500.9-0.1h7v7h-7V-0.1z M500.9,7.2h7v7h-7
	V7.2z M500.9,65.3h7v7h-7V65.3z M500.9,72.6h7v7h-7V72.6z M500.9,79.8h7v7h-7V79.8z M500.9,87.1h7v7h-7V87.1z M500.9,94.3h7v7h-7
	V94.3z M500.9,101.6h7v7h-7V101.6z M500.9,123.4h7v7h-7V123.4z M500.9,130.6h7v7h-7V130.6z M500.9,137.9h7v7h-7V137.9z M500.9,145.1
	h7v7h-7V145.1z M500.9,159.7h7v7h-7V159.7z M500.9,166.9h7v7h-7V166.9z M508.1-0.1h7v7h-7V-0.1z M508.1,7.2h7v7h-7V7.2z M508.1,58h7
	v7h-7V58z M508.1,65.3h7v7h-7V65.3z M508.1,72.6h7v7h-7V72.6z M508.1,79.8h7v7h-7V79.8z M508.1,87.1h7v7h-7V87.1z M508.1,94.3h7v7
	h-7V94.3z M508.1,101.6h7v7h-7V101.6z M508.1,116.1h7v7h-7V116.1z M508.1,123.4h7v7h-7V123.4z M508.1,130.6h7v7h-7V130.6z
	 M508.1,152.4h7v7h-7V152.4z M508.1,166.9h7v7h-7V166.9z M515.4-0.1h7v7h-7V-0.1z M515.4,7.2h7v7h-7V7.2z M515.4,58h7v7h-7V58z
	 M515.4,65.3h7v7h-7V65.3z M515.4,72.6h7v7h-7V72.6z M515.4,79.8h7v7h-7V79.8z M515.4,87.1h7v7h-7V87.1z M515.4,94.3h7v7h-7V94.3z
	 M515.4,101.6h7v7h-7V101.6z M515.4,116.1h7v7h-7V116.1z M515.4,123.4h7v7h-7V123.4z M515.4,130.6h7v7h-7V130.6z M515.4,152.4h7v7
	h-7V152.4z M515.4,166.9h7v7h-7V166.9z M522.7-0.1h7v7h-7V-0.1z M522.7,7.2h7v7h-7V7.2z M522.7,58h7v7h-7V58z M522.7,65.3h7v7h-7
	V65.3z M522.7,72.6h7v7h-7V72.6z M522.7,79.8h7v7h-7V79.8z M522.7,87.1h7v7h-7V87.1z M522.7,94.3h7v7h-7V94.3z M522.7,101.6h7v7h-7
	V101.6z M522.7,123.4h7v7h-7V123.4z M522.7,130.6h7v7h-7V130.6z M522.7,137.9h7v7h-7V137.9z M522.7,145.1h7v7h-7V145.1z
	 M522.7,152.4h7v7h-7V152.4z M522.7,166.9h7v7h-7V166.9z M529.9-0.1h7v7h-7V-0.1z M529.9,7.2h7v7h-7V7.2z M529.9,65.3h7v7h-7V65.3z
	 M529.9,72.6h7v7h-7V72.6z M529.9,79.8h7v7h-7V79.8z M529.9,87.1h7v7h-7V87.1z M529.9,94.3h7v7h-7V94.3z M529.9,159.7h7v7h-7V159.7z
	 M529.9,166.9h7v7h-7V166.9z M537.2-0.1h7v7h-7V-0.1z M537.2,7.2h7v7h-7V7.2z M537.2,72.6h7v7h-7V72.6z M537.2,79.8h7v7h-7V79.8z
	 M537.2,87.1h7v7h-7V87.1z M537.2,159.7h7v7h-7V159.7z M537.2,166.9h7v7h-7V166.9z M544.4,7.2h7v7h-7V7.2z M544.4,14.5h7v7h-7V14.5z
	 M544.4,50.8h7v7h-7V50.8z M544.4,58h7v7h-7V58z M544.4,65.3h7v7h-7V65.3z M544.4,152.4h7v7h-7V152.4z M544.4,159.7h7v7h-7V159.7z
	 M551.7,7.2h7v7h-7V7.2z M551.7,14.5h7v7h-7V14.5z M551.7,43.5h7v7h-7V43.5z M551.7,50.8h7v7h-7V50.8z M551.7,58h7v7h-7V58z
	 M551.7,65.3h7v7h-7V65.3z M551.7,72.6h7v7h-7V72.6z M551.7,145.1h7v7h-7V145.1z M551.7,152.4h7v7h-7V152.4z M551.7,159.7h7v7h-7
	V159.7z M559,14.5h7v7h-7V14.5z M559,21.7h7v7h-7V21.7z M559,36.3h7v7h-7V36.3z M559,43.5h7v7h-7V43.5z M559,65.3h7v7h-7V65.3z
	 M559,145.1h7v7h-7V145.1z M559,152.4h7v7h-7V152.4z M566.2,21.7h7v7h-7V21.7z M566.2,43.5h7v7h-7V43.5z M566.2,65.3h7v7h-7V65.3z
	 M566.2,137.9h7v7h-7V137.9z M566.2,145.1h7v7h-7V145.1z M566.2,152.4h7v7h-7V152.4z M573.5,21.7h7v7h-7V21.7z M573.5,29h7v7h-7V29z
	 M573.5,50.8h7v7h-7V50.8z M573.5,58h7v7h-7V58z M573.5,65.3h7v7h-7V65.3z M573.5,130.6h7v7h-7V130.6z M573.5,137.9h7v7h-7V137.9z
	 M573.5,145.1h7v7h-7V145.1z M580.7,36.3h7v7h-7V36.3z M580.7,43.5h7v7h-7V43.5z M580.7,116.1h7v7h-7V116.1z M580.7,123.4h7v7h-7
	V123.4z M580.7,130.6h7v7h-7V130.6z M580.7,137.9h7v7h-7V137.9z M588,43.5h7v7h-7V43.5z M588,50.8h7v7h-7V50.8z M588,58h7v7h-7V58z
	 M588,65.3h7v7h-7V65.3z M588,72.6h7v7h-7V72.6z M588,94.3h7v7h-7V94.3z M588,101.6h7v7h-7V101.6z M588,108.8h7v7h-7V108.8z
	 M588,116.1h7v7h-7V116.1z M588,123.4h7v7h-7V123.4z M595.3,58h7v7h-7V58z M595.3,65.3h7v7h-7V65.3z M595.3,72.6h7v7h-7V72.6z
	 M595.3,79.8h7v7h-7V79.8z M595.3,87.1h7v7h-7V87.1z M595.3,94.3h7v7h-7V94.3z M595.3,101.6h7v7h-7V101.6z M559,72.6h7v7h-7V72.6z
	 M595.3,108.8h7v7h-7V108.8z M580.7,29h7v7h-7V29z"/>
</svg>
