<?xml version="1.0" encoding="utf-8"?>
<!-- Generator: Adobe Illustrator 27.3.1, SVG Export Plug-In . SVG Version: 6.00 Build 0)  -->
<svg version="1.1" id="Слой_1" xmlns="http://www.w3.org/2000/svg" xmlns:xlink="http://www.w3.org/1999/xlink" x="0px" y="0px"
	 viewBox="0 0 116 115.9" style="enable-background:new 0 0 116 115.9;" xml:space="preserve">
<style type="text/css">
	.st0{fill:#1E0E01;}
</style>
<path class="st0" d="M14.5,7.3h7v7h-7V7.3z M14.5,14.5h7v7h-7V14.5z M14.5,21.8h7v7h-7V21.8z M14.5,29.1h7v7h-7V29.1z M14.5,36.3h7
	v7h-7V36.3z M14.5,43.6h7v7h-7V43.6z M21.8,0h7v7h-7V0z M21.8,7.3h7v7h-7V7.3z M21.8,14.5h7v7h-7V14.5z M21.8,21.8h7v7h-7V21.8z
	 M21.8,29.1h7v7h-7V29.1z M21.8,36.3h7v7h-7V36.3z M21.8,43.6h7v7h-7V43.6z M21.8,50.9h7v7h-7V50.9z M21.8,58.1h7v7h-7V58.1z M29,0
	h7v7h-7V0z M29,7.3h7v7h-7V7.3z M29,14.5h7v7h-7V14.5z M29,21.8h7v7h-7V21.8z M29,29.1h7v7h-7V29.1z M29,36.3h7v7h-7V36.3z M29,43.6
	h7v7h-7V43.6z M29,50.9h7v7h-7V50.9z M29,58.1h7v7h-7V58.1z M29,65.4h7v7h-7V65.4z M36.3,0h7v7h-7V0z M36.3,21.8h7v7h-7V21.8z
	 M36.3,29.1h7v7h-7V29.1z M36.3,36.3h7v7h-7V36.3z M36.3,43.6h7v7h-7V43.6z M36.3,50.9h7v7h-7V50.9z M36.3,58.1h7v7h-7V58.1z
	 M36.3,65.4h7v7h-7V65.4z M36.3,72.6h7v7h-7V72.6z M36.3,79.9h7v7h-7V79.9z M43.6,0h7v7h-7V0z M43.6,7.3h7v7h-7V7.3z M43.6,14.5h7v7
	h-7V14.5z M43.6,21.8h7v7h-7V21.8z M43.6,29.1h7v7h-7V29.1z M43.6,36.3h7v7h-7V36.3z M43.6,43.6h7v7h-7V43.6z M43.6,50.9h7v7h-7
	V50.9z M43.6,58.1h7v7h-7V58.1z M43.6,65.4h7v7h-7V65.4z M43.6,72.6h7v7h-7V72.6z M43.6,79.9h7v7h-7V79.9z M43.6,87.2h7v7h-7V87.2z
	 M43.6,94.4h7v7h-7V94.4z M50.8,0h7v7h-7V0z M50.8,7.3h7v7h-7V7.3z M50.8,14.5h7v7h-7V14.5z M50.8,21.8h7v7h-7V21.8z M50.8,29.1h7v7
	h-7V29.1z M50.8,36.3h7v7h-7V36.3z M50.8,43.6h7v7h-7V43.6z M50.8,50.9h7v7h-7V50.9z M50.8,58.1h7v7h-7V58.1z M50.8,65.4h7v7h-7
	V65.4z M50.8,72.6h7v7h-7V72.6z M50.8,79.9h7v7h-7V79.9z M50.8,87.2h7v7h-7V87.2z M50.8,94.4h7v7h-7V94.4z M50.8,101.7h7v7h-7V101.7
	z M50.8,108.9h7v7h-7V108.9z M58.1,0h7v7h-7V0z M58.1,7.3h7v7h-7V7.3z M58.1,14.5h7v7h-7V14.5z M58.1,21.8h7v7h-7V21.8z M58.1,29.1
	h7v7h-7V29.1z M58.1,36.3h7v7h-7V36.3z M58.1,43.6h7v7h-7V43.6z M58.1,50.9h7v7h-7V50.9z M58.1,58.1h7v7h-7V58.1z M58.1,65.4h7v7h-7
	V65.4z M58.1,72.6h7v7h-7V72.6z M58.1,79.9h7v7h-7V79.9z M58.1,94.4h7v7h-7V94.4z M58.1,101.7h7v7h-7V101.7z M58.1,108.9h7v7h-7
	V108.9z M65.3,0h7v7h-7V0z M65.3,7.3h7v7h-7V7.3z M65.3,14.5h7v7h-7V14.5z M65.3,21.8h7v7h-7V21.8z M65.3,29.1h7v7h-7V29.1z
	 M65.3,36.3h7v7h-7V36.3z M65.3,43.6h7v7h-7V43.6z M65.3,50.9h7v7h-7V50.9z M65.3,58.1h7v7h-7V58.1z M65.3,65.4h7v7h-7V65.4z
	 M65.3,72.6h7v7h-7V72.6z M65.3,79.9h7v7h-7V79.9z M65.3,87.2h7v7h-7V87.2z M65.3,94.4h7v7h-7V94.4z M72.6,0h7v7h-7V0z M72.6,21.8h7
	v7h-7V21.8z M72.6,29.1h7v7h-7V29.1z M72.6,36.3h7v7h-7V36.3z M72.6,43.6h7v7h-7V43.6z M72.6,50.9h7v7h-7V50.9z M72.6,58.1h7v7h-7
	V58.1z M72.6,65.4h7v7h-7V65.4z M72.6,72.6h7v7h-7V72.6z M72.6,79.9h7v7h-7V79.9z M72.6,87.2h7v7h-7V87.2z M79.9,0h7v7h-7V0z
	 M79.9,21.8h7v7h-7V21.8z M79.9,29.1h7v7h-7V29.1z M79.9,36.3h7v7h-7V36.3z M79.9,43.6h7v7h-7V43.6z M79.9,50.9h7v7h-7V50.9z
	 M79.9,58.1h7v7h-7V58.1z M79.9,65.4h7v7h-7V65.4z M87.1,0h7v7h-7V0z M87.1,7.3h7v7h-7V7.3z M87.1,14.5h7v7h-7V14.5z M87.1,21.8h7v7
	h-7V21.8z M87.1,29.1h7v7h-7V29.1z M87.1,36.3h7v7h-7V36.3z M87.1,43.6h7v7h-7V43.6z M87.1,50.9h7v7h-7V50.9z M87.1,58.1h7v7h-7
	V58.1z M94.4,7.3h7v7h-7V7.3z M94.4,14.5h7v7h-7V14.5z M94.4,21.8h7v7h-7V21.8z M94.4,29.1h7v7h-7V29.1z M94.4,36.3h7v7h-7V36.3z
	 M94.4,43.6h7v7h-7V43.6z"/>
</svg>
