<?xml version="1.0" encoding="utf-8"?>
<!-- Generator: Adobe Illustrator 27.3.1, SVG Export Plug-In . SVG Version: 6.00 Build 0)  -->
<svg version="1.1" id="Слой_1" xmlns="http://www.w3.org/2000/svg" xmlns:xlink="http://www.w3.org/1999/xlink" x="0px" y="0px"
	 viewBox="0 0 94.1 94.2" style="enable-background:new 0 0 94.1 94.2;" xml:space="preserve">
<style type="text/css">
	.st0{fill:#1E0E01;}
</style>
<path class="st0" d="M14.5,0h7v7h-7V0z M14.5,7.3h7v7h-7V7.3z M14.5,14.5h7v7h-7V14.5z M14.5,21.8h7v7h-7V21.8z M14.5,36.3h7v7h-7
	V36.3z M14.5,43.6h7v7h-7V43.6z M14.5,50.9h7v7h-7V50.9z M14.5,58.1h7v7h-7V58.1z M14.5,65.4h7v7h-7V65.4z M14.5,72.6h7v7h-7V72.6z
	 M21.8,0h7v7h-7V0z M21.8,14.5h7v7h-7V14.5z M21.8,21.8h7v7h-7V21.8z M21.8,29.1h7v7h-7V29.1z M21.8,50.9h7v7h-7V50.9z M21.8,58.1h7
	v7h-7V58.1z M21.8,65.4h7v7h-7V65.4z M21.8,72.6h7v7h-7V72.6z M21.8,79.9h7v7h-7V79.9z M29,0h7v7h-7V0z M29,7.3h7v7h-7V7.3z
	 M29,14.5h7v7h-7V14.5z M29,21.8h7v7h-7V21.8z M29,29.1h7v7h-7V29.1z M29,50.9h7v7h-7V50.9z M29,58.1h7v7h-7V58.1z M29,65.4h7v7h-7
	V65.4z M29,72.6h7v7h-7V72.6z M29,79.9h7v7h-7V79.9z M29,87.2h7v7h-7V87.2z M36.3,14.5h7v7h-7V14.5z M36.3,21.8h7v7h-7V21.8z
	 M36.3,29.1h7v7h-7V29.1z M36.3,36.3h7v7h-7V36.3z M36.3,43.6h7v7h-7V43.6z M36.3,50.9h7v7h-7V50.9z M36.3,58.1h7v7h-7V58.1z
	 M36.3,65.4h7v7h-7V65.4z M36.3,72.6h7v7h-7V72.6z M36.3,79.9h7v7h-7V79.9z M36.3,87.2h7v7h-7V87.2z M43.6,29.1h7v7h-7V29.1z
	 M43.6,36.3h7v7h-7V36.3z M43.6,43.6h7v7h-7V43.6z M43.6,50.9h7v7h-7V50.9z M43.6,58.1h7v7h-7V58.1z M43.6,65.4h7v7h-7V65.4z
	 M43.6,72.6h7v7h-7V72.6z M43.6,79.9h7v7h-7V79.9z M43.6,87.2h7v7h-7V87.2z M50.8,14.5h7v7h-7V14.5z M50.8,21.8h7v7h-7V21.8z
	 M50.8,36.3h7v7h-7V36.3z M50.8,43.6h7v7h-7V43.6z M50.8,50.9h7v7h-7V50.9z M50.8,58.1h7v7h-7V58.1z M50.8,65.4h7v7h-7V65.4z
	 M50.8,72.6h7v7h-7V72.6z M50.8,79.9h7v7h-7V79.9z M50.8,87.2h7v7h-7V87.2z M58.1,0h7v7h-7V0z M58.1,7.3h7v7h-7V7.3z M58.1,29.1h7v7
	h-7V29.1z M58.1,36.3h7v7h-7V36.3z M58.1,43.6h7v7h-7V43.6z M58.1,50.9h7v7h-7V50.9z M58.1,58.1h7v7h-7V58.1z M58.1,65.4h7v7h-7
	V65.4z M58.1,79.9h7v7h-7V79.9z M58.1,87.2h7v7h-7V87.2z M65.3,0h7v7h-7V0z M65.3,14.5h7v7h-7V14.5z M65.3,21.8h7v7h-7V21.8z
	 M65.3,29.1h7v7h-7V29.1z M65.3,36.3h7v7h-7V36.3z M65.3,43.6h7v7h-7V43.6z M65.3,50.9h7v7h-7V50.9z M65.3,58.1h7v7h-7V58.1z
	 M65.3,65.4h7v7h-7V65.4z M65.3,72.6h7v7h-7V72.6z M65.3,79.9h7v7h-7V79.9z M72.6,0h7v7h-7V0z M72.6,7.3h7v7h-7V7.3z M72.6,14.5h7v7
	h-7V14.5z M72.6,36.3h7v7h-7V36.3z M72.6,43.6h7v7h-7V43.6z M72.6,50.9h7v7h-7V50.9z M72.6,58.1h7v7h-7V58.1z M72.6,65.4h7v7h-7
	V65.4z M72.6,72.6h7v7h-7V72.6z"/>
</svg>
