<?xml version="1.0" encoding="utf-8"?>
<!-- Generator: Adobe Illustrator 27.3.1, SVG Export Plug-In . SVG Version: 6.00 Build 0)  -->
<svg version="1.1" id="Слой_1" xmlns="http://www.w3.org/2000/svg" xmlns:xlink="http://www.w3.org/1999/xlink" x="0px" y="0px"
	 viewBox="0 0 94.1 94.2" style="enable-background:new 0 0 94.1 94.2;" xml:space="preserve">
<style type="text/css">
	.st0{fill:#1E0E01;enable-background:new    ;}
</style>
<g>
	<rect x="14.5" y="36.3" class="st0" width="7" height="7"/>
	<rect x="14.5" y="43.6" class="st0" width="7" height="7"/>
	<rect x="14.5" y="50.9" class="st0" width="7" height="7"/>
	<rect x="14.5" y="58.1" class="st0" width="7" height="7"/>
	<rect x="14.5" y="65.4" class="st0" width="7" height="7"/>
	<rect x="14.5" y="72.6" class="st0" width="7" height="7"/>
	<rect x="21.8" y="29.1" class="st0" width="7" height="7"/>
	<rect x="21.8" y="36.3" class="st0" width="7" height="7"/>
	<rect x="21.8" y="43.6" class="st0" width="7" height="7"/>
	<rect x="21.8" y="50.9" class="st0" width="7" height="7"/>
	<rect x="21.8" y="58.1" class="st0" width="7" height="7"/>
	<rect x="21.8" y="65.4" class="st0" width="7" height="7"/>
	<rect x="21.8" y="72.6" class="st0" width="7" height="7"/>
	<rect x="21.8" y="79.9" class="st0" width="7" height="7"/>
	<rect x="29" y="21.8" class="st0" width="7" height="7"/>
	<rect x="29" y="50.9" class="st0" width="7" height="7"/>
	<rect x="29" y="58.1" class="st0" width="7" height="7"/>
	<rect x="29" y="65.4" class="st0" width="7" height="7"/>
	<rect x="29" y="72.6" class="st0" width="7" height="7"/>
	<rect x="29" y="79.9" class="st0" width="7" height="7"/>
	<rect x="29" y="87.2" class="st0" width="7" height="7"/>
	<rect x="36.3" class="st0" width="7" height="7"/>
	<rect x="36.3" y="7.3" class="st0" width="7" height="7"/>
	<rect x="36.3" y="14.5" class="st0" width="7" height="7"/>
	<rect x="36.3" y="21.8" class="st0" width="7" height="7"/>
	<rect x="36.3" y="43.6" class="st0" width="7" height="7"/>
	<rect x="36.3" y="50.9" class="st0" width="7" height="7"/>
	<rect x="36.3" y="58.1" class="st0" width="7" height="7"/>
	<rect x="36.3" y="65.4" class="st0" width="7" height="7"/>
	<rect x="36.3" y="72.6" class="st0" width="7" height="7"/>
	<rect x="36.3" y="79.9" class="st0" width="7" height="7"/>
	<rect x="36.3" y="87.2" class="st0" width="7" height="7"/>
	<rect x="43.6" class="st0" width="7" height="7"/>
	<rect x="43.6" y="29.1" class="st0" width="7" height="7"/>
	<rect x="43.6" y="36.3" class="st0" width="7" height="7"/>
	<rect x="43.6" y="43.6" class="st0" width="7" height="7"/>
	<rect x="43.6" y="50.9" class="st0" width="7" height="7"/>
	<rect x="43.6" y="58.1" class="st0" width="7" height="7"/>
	<rect x="43.6" y="65.4" class="st0" width="7" height="7"/>
	<rect x="43.6" y="72.6" class="st0" width="7" height="7"/>
	<rect x="43.6" y="79.9" class="st0" width="7" height="7"/>
	<rect x="43.6" y="87.2" class="st0" width="7" height="7"/>
	<rect x="50.8" y="7.3" class="st0" width="7" height="7"/>
	<rect x="50.8" y="14.5" class="st0" width="7" height="7"/>
	<rect x="50.8" y="21.8" class="st0" width="7" height="7"/>
	<rect x="50.8" y="29.1" class="st0" width="7" height="7"/>
	<rect x="50.8" y="36.3" class="st0" width="7" height="7"/>
	<rect x="50.8" y="43.6" class="st0" width="7" height="7"/>
	<rect x="50.8" y="50.9" class="st0" width="7" height="7"/>
	<rect x="50.8" y="58.1" class="st0" width="7" height="7"/>
	<rect x="50.8" y="65.4" class="st0" width="7" height="7"/>
	<rect x="50.8" y="72.6" class="st0" width="7" height="7"/>
	<rect x="50.8" y="79.9" class="st0" width="7" height="7"/>
	<rect x="50.8" y="87.2" class="st0" width="7" height="7"/>
	<rect x="58.1" y="21.8" class="st0" width="7" height="7"/>
	<rect x="58.1" y="29.1" class="st0" width="7" height="7"/>
	<rect x="58.1" y="36.3" class="st0" width="7" height="7"/>
	<rect x="58.1" y="43.6" class="st0" width="7" height="7"/>
	<rect x="58.1" y="50.9" class="st0" width="7" height="7"/>
	<rect x="58.1" y="58.1" class="st0" width="7" height="7"/>
	<rect x="58.1" y="65.4" class="st0" width="7" height="7"/>
	<rect x="58.1" y="79.9" class="st0" width="7" height="7"/>
	<rect x="58.1" y="87.2" class="st0" width="7" height="7"/>
	<rect x="65.3" y="29.1" class="st0" width="7" height="7"/>
	<rect x="65.3" y="36.3" class="st0" width="7" height="7"/>
	<rect x="65.3" y="43.6" class="st0" width="7" height="7"/>
	<rect x="65.3" y="50.9" class="st0" width="7" height="7"/>
	<rect x="65.3" y="58.1" class="st0" width="7" height="7"/>
	<rect x="65.3" y="65.4" class="st0" width="7" height="7"/>
	<rect x="65.3" y="72.6" class="st0" width="7" height="7"/>
	<rect x="65.3" y="79.9" class="st0" width="7" height="7"/>
	<rect x="72.6" y="36.3" class="st0" width="7" height="7"/>
	<rect x="72.6" y="43.6" class="st0" width="7" height="7"/>
	<rect x="72.6" y="50.9" class="st0" width="7" height="7"/>
	<rect x="72.6" y="58.1" class="st0" width="7" height="7"/>
	<rect x="72.6" y="65.4" class="st0" width="7" height="7"/>
	<rect x="72.6" y="72.6" class="st0" width="7" height="7"/>
</g>
</svg>
