<?xml version="1.0" encoding="utf-8"?>
<!-- Generator: Adobe Illustrator 27.3.1, SVG Export Plug-In . SVG Version: 6.00 Build 0)  -->
<svg version="1.1" id="Слой_1" xmlns="http://www.w3.org/2000/svg" xmlns:xlink="http://www.w3.org/1999/xlink" x="0px" y="0px"
	 viewBox="0 0 79.6 86.9" style="enable-background:new 0 0 79.6 86.9;" xml:space="preserve">
<style type="text/css">
	.st0{fill:#1E0E01;}
</style>
<path class="st0" d="M0,21.8h7v7H0V21.8z M0,29.1h7v7H0V29.1z M0,36.3h7v7H0V36.3z M0,43.6h7v7H0V43.6z M7.3,7.3h7v7h-7V7.3z
	 M7.3,14.5h7v7h-7V14.5z M7.3,50.9h7v7h-7V50.9z M14.5,0h7v7h-7V0z M14.5,21.8h7v7h-7V21.8z M14.5,58.1h7v7h-7V58.1z M21.8,0h7v7h-7
	V0z M21.8,14.5h7v7h-7V14.5z M21.8,29.1h7v7h-7V29.1z M21.8,65.4h7v7h-7V65.4z M29,0h7v7h-7V0z M29,14.5h7v7h-7V14.5z M29,29.1h7v7
	h-7V29.1z M29,72.6h7v7h-7V72.6z M36.3,0h7v7h-7V0z M36.3,21.8h7v7h-7V21.8z M36.3,79.9h7v7h-7V79.9z M43.6,0h7v7h-7V0z M43.6,65.4
	h7v7h-7V65.4z M43.6,79.9h7v7h-7V79.9z M50.8,0h7v7h-7V0z M50.8,65.4h7v7h-7V65.4z M50.8,72.6h7v7h-7V72.6z M58.1,7.3h7v7h-7V7.3z
	 M58.1,65.4h7v7h-7V65.4z M58.1,72.6h7v7h-7V72.6z M65.3,14.5h7v7h-7V14.5z M65.3,58.1h7v7h-7V58.1z M72.6,21.8h7v7h-7V21.8z
	 M72.6,29.1h7v7h-7V29.1z M72.6,36.3h7v7h-7V36.3z M72.6,43.6h7v7h-7V43.6z M72.6,50.9h7v7h-7V50.9z"/>
</svg>
