<?xml version="1.0" encoding="utf-8"?>
<!-- Generator: Adobe Illustrator 27.3.1, SVG Export Plug-In . SVG Version: 6.00 Build 0)  -->
<svg version="1.1" id="Слой_1" xmlns="http://www.w3.org/2000/svg" xmlns:xlink="http://www.w3.org/1999/xlink" x="0px" y="0px"
	 viewBox="0 0 174 65.1" style="enable-background:new 0 0 174 65.1;" xml:space="preserve">
<style type="text/css">
	.st0{fill:#1E0E01;}
</style>
<path class="st0" d="M21.8,7.3h7v7h-7V7.3z M29,7.3h7v7h-7V7.3z M36.3,7.3h7v7h-7V7.3z M43.6,7.3h7v7h-7V7.3z M50.8,7.3h7v7h-7V7.3z
	 M58.1,7.3h7v7h-7V7.3z M65.3,7.3h7v7h-7V7.3z M72.6,7.3h7v7h-7V7.3z M79.9,7.3h7v7h-7V7.3z M87.1,7.3h7v7h-7V7.3z M94.4,7.3h7v7h-7
	V7.3z M101.6,7.3h7v7h-7V7.3z M108.9,7.3h7v7h-7V7.3z M116.2,7.3h7v7h-7V7.3z M123.4,7.3h7v7h-7V7.3z M130.7,7.3h7v7h-7V7.3z
	 M137.9,7.3h7v7h-7V7.3z M145.2,7.3h7v7h-7V7.3z M152.5,7.3h7v7h-7V7.3z M14.5,14.5h7v7h-7V14.5z M29,14.5h7v7h-7V14.5z M36.3,14.5
	h7v7h-7V14.5z M43.6,14.5h7v7h-7V14.5z M50.8,14.5h7v7h-7V14.5z M58.1,14.5h7v7h-7V14.5z M65.3,14.5h7v7h-7V14.5z M72.6,14.5h7v7h-7
	V14.5z M79.9,14.5h7v7h-7V14.5z M87.1,14.5h7v7h-7V14.5z M94.4,14.5h7v7h-7V14.5z M101.6,14.5h7v7h-7V14.5z M108.9,14.5h7v7h-7V14.5
	z M116.2,14.5h7v7h-7V14.5z M123.4,14.5h7v7h-7V14.5z M130.7,14.5h7v7h-7V14.5z M137.9,14.5h7v7h-7V14.5z M145.2,14.5h7v7h-7V14.5z
	 M152.5,14.5h7v7h-7V14.5z M159.7,14.5h7v7h-7V14.5z M7.3,21.8h7v7h-7V21.8z M14.5,21.8h7v7h-7V21.8z M21.8,21.8h7v7h-7V21.8z
	 M36.3,21.8h7v7h-7V21.8z M43.6,21.8h7v7h-7V21.8z M50.8,21.8h7v7h-7V21.8z M58.1,21.8h7v7h-7V21.8z M65.3,21.8h7v7h-7V21.8z
	 M72.6,21.8h7v7h-7V21.8z M79.9,21.8h7v7h-7V21.8z M87.1,21.8h7v7h-7V21.8z M94.4,21.8h7v7h-7V21.8z M101.6,21.8h7v7h-7V21.8z
	 M108.9,21.8h7v7h-7V21.8z M116.2,21.8h7v7h-7V21.8z M123.4,21.8h7v7h-7V21.8z M130.7,21.8h7v7h-7V21.8z M137.9,21.8h7v7h-7V21.8z
	 M145.2,21.8h7v7h-7V21.8z M152.5,21.8h7v7h-7V21.8z M159.7,21.8h7v7h-7V21.8z M7.3,29h7v7h-7V29z M14.5,29h7v7h-7V29z M21.8,29h7v7
	h-7V29z M36.3,29h7v7h-7V29z M43.6,29h7v7h-7V29z M50.8,29h7v7h-7V29z M58.1,29h7v7h-7V29z M65.3,29h7v7h-7V29z M72.6,29h7v7h-7V29z
	 M79.9,29h7v7h-7V29z M87.1,29h7v7h-7V29z M94.4,29h7v7h-7V29z M101.6,29h7v7h-7V29z M108.9,29h7v7h-7V29z M116.2,29h7v7h-7V29z
	 M123.4,29h7v7h-7V29z M130.7,29h7v7h-7V29z M137.9,29h7v7h-7V29z M145.2,29h7v7h-7V29z M152.5,29h7v7h-7V29z M159.7,29h7v7h-7V29z
	 M7.3,36.3h7v7h-7V36.3z M14.5,36.3h7v7h-7V36.3z M21.8,36.3h7v7h-7V36.3z M36.3,36.3h7v7h-7V36.3z M43.6,36.3h7v7h-7V36.3z
	 M50.8,36.3h7v7h-7V36.3z M58.1,36.3h7v7h-7V36.3z M65.3,36.3h7v7h-7V36.3z M72.6,36.3h7v7h-7V36.3z M79.9,36.3h7v7h-7V36.3z
	 M87.1,36.3h7v7h-7V36.3z M94.4,36.3h7v7h-7V36.3z M101.6,36.3h7v7h-7V36.3z M108.9,36.3h7v7h-7V36.3z M116.2,36.3h7v7h-7V36.3z
	 M123.4,36.3h7v7h-7V36.3z M130.7,36.3h7v7h-7V36.3z M137.9,36.3h7v7h-7V36.3z M145.2,36.3h7v7h-7V36.3z M152.5,36.3h7v7h-7V36.3z
	 M159.7,36.3h7v7h-7V36.3z M14.5,43.6h7v7h-7V43.6z M29,43.6h7v7h-7V43.6z M36.3,43.6h7v7h-7V43.6z M43.6,43.6h7v7h-7V43.6z
	 M50.8,43.6h7v7h-7V43.6z M58.1,43.6h7v7h-7V43.6z M65.3,43.6h7v7h-7V43.6z M72.6,43.6h7v7h-7V43.6z M79.9,43.6h7v7h-7V43.6z
	 M87.1,43.6h7v7h-7V43.6z M94.4,43.6h7v7h-7V43.6z M101.6,43.6h7v7h-7V43.6z M108.9,43.6h7v7h-7V43.6z M116.2,43.6h7v7h-7V43.6z
	 M123.4,43.6h7v7h-7V43.6z M130.7,43.6h7v7h-7V43.6z M137.9,43.6h7v7h-7V43.6z M145.2,43.6h7v7h-7V43.6z M152.5,43.6h7v7h-7V43.6z
	 M159.7,43.6h7v7h-7V43.6z M21.8,50.8h7v7h-7V50.8z M29,50.8h7v7h-7V50.8z M36.3,50.8h7v7h-7V50.8z M43.6,50.8h7v7h-7V50.8z
	 M50.8,50.8h7v7h-7V50.8z M58.1,50.8h7v7h-7V50.8z M65.3,50.8h7v7h-7V50.8z M72.6,50.8h7v7h-7V50.8z M79.9,50.8h7v7h-7V50.8z
	 M87.1,50.8h7v7h-7V50.8z M94.4,50.8h7v7h-7V50.8z M101.6,50.8h7v7h-7V50.8z M108.9,50.8h7v7h-7V50.8z M116.2,50.8h7v7h-7V50.8z
	 M123.4,50.8h7v7h-7V50.8z M130.7,50.8h7v7h-7V50.8z M137.9,50.8h7v7h-7V50.8z M145.2,50.8h7v7h-7V50.8z M152.5,50.8h7v7h-7V50.8z"
	/>
</svg>
