<?xml version="1.0" encoding="utf-8"?>
<!-- Generator: Adobe Illustrator 27.3.1, SVG Export Plug-In . SVG Version: 6.00 Build 0)  -->
<svg version="1.1" id="Слой_1" xmlns="http://www.w3.org/2000/svg" xmlns:xlink="http://www.w3.org/1999/xlink" x="0px" y="0px"
	 viewBox="0 0 86.9 115.9" style="enable-background:new 0 0 86.9 115.9;" xml:space="preserve">
<style type="text/css">
	.st0{fill:#1E0E01;}
</style>
<path class="st0" d="M0,94.4h7v7H0V94.4z M0,101.7h7v7H0V101.7z M0,108.9h7v7H0V108.9z M7.3,87.2h7v7h-7V87.2z M7.3,101.7h7v7h-7
	V101.7z M7.3,108.9h7v7h-7V108.9z M14.5,72.6h7v7h-7V72.6z M14.5,79.9h7v7h-7V79.9z M14.5,94.4h7v7h-7V94.4z M14.5,101.7h7v7h-7
	V101.7z M14.5,108.9h7v7h-7V108.9z M21.8,50.9h7v7h-7V50.9z M21.8,58.1h7v7h-7V58.1z M21.8,65.4h7v7h-7V65.4z M21.8,72.6h7v7h-7
	V72.6z M21.8,87.2h7v7h-7V87.2z M21.8,94.4h7v7h-7V94.4z M21.8,101.7h7v7h-7V101.7z M21.8,108.9h7v7h-7V108.9z M29,21.8h7v7h-7V21.8
	z M29,29.1h7v7h-7V29.1z M29,36.3h7v7h-7V36.3z M29,43.6h7v7h-7V43.6z M29,65.4h7v7h-7V65.4z M29,79.9h7v7h-7V79.9z M29,87.2h7v7h-7
	V87.2z M29,94.4h7v7h-7V94.4z M36.3,0h7v7h-7V0z M36.3,7.3h7v7h-7V7.3z M36.3,14.5h7v7h-7V14.5z M36.3,65.4h7v7h-7V65.4z M36.3,72.6
	h7v7h-7V72.6z M36.3,79.9h7v7h-7V79.9z M36.3,87.2h7v7h-7V87.2z M43.6,65.4h7v7h-7V65.4z M43.6,72.6h7v7h-7V72.6z M43.6,79.9h7v7h-7
	V79.9z M50.8,43.6h7v7h-7V43.6z M50.8,58.1h7v7h-7V58.1z M58.1,50.9h7v7h-7V50.9z M72.6,36.3h7v7h-7V36.3z"/>
</svg>
