<?xml version="1.0" encoding="utf-8"?>
<!-- Generator: Adobe Illustrator 27.3.1, SVG Export Plug-In . SVG Version: 6.00 Build 0)  -->
<svg version="1.1" id="Слой_1" xmlns="http://www.w3.org/2000/svg" xmlns:xlink="http://www.w3.org/1999/xlink" x="0px" y="0px"
	 viewBox="0 0 79.6 86.9" style="enable-background:new 0 0 79.6 86.9;" xml:space="preserve">
<style type="text/css">
	.st0{fill:#1E0E01;}
</style>
<path class="st0" d="M36.3,0.1h7v7h-7V0.1z M29,72.7h7v7h-7V72.7z M29,80h7v7h-7V80z M36.3,7.4h7v7h-7V7.4z M36.3,14.6h7v7h-7V14.6z
	 M36.3,65.5h7v7h-7V65.5z M36.3,72.7h7v7h-7V72.7z M36.3,80h7v7h-7V80z M43.6,21.9h7v7h-7V21.9z M43.6,29.2h7v7h-7V29.2z M43.6,36.4
	h7v7h-7V36.4z M43.6,43.7h7v7h-7V43.7z M43.6,51h7v7h-7V51z M43.6,58.2h7v7h-7V58.2z M43.6,72.7h7v7h-7V72.7z M43.6,80h7v7h-7V80z
	 M50.8,58.2h7v7h-7V58.2z M50.8,65.5h7v7h-7V65.5z M58.1,51h7v7h-7V51z M58.1,58.2h7v7h-7V58.2z M58.1,65.5h7v7h-7V65.5z M65.3,51h7
	v7h-7V51z M65.3,58.2h7v7h-7V58.2z M72.6,21.9h7v7h-7V21.9z M72.6,36.4h7v7h-7V36.4z M72.6,43.7h7v7h-7V43.7z"/>
</svg>
