<?xml version="1.0" encoding="utf-8"?>
<!-- Generator: Adobe Illustrator 27.3.1, SVG Export Plug-In . SVG Version: 6.00 Build 0)  -->
<svg version="1.1" id="Слой_1" xmlns="http://www.w3.org/2000/svg" xmlns:xlink="http://www.w3.org/1999/xlink" x="0px" y="0px"
	 viewBox="0 0 79.6 86.9" style="enable-background:new 0 0 79.6 86.9;" xml:space="preserve">
<style type="text/css">
	.st0{fill:#1E0E01;}
</style>
<path class="st0" d="M14.5,65.6h7v7h-7V65.6z M14.5,72.8h7v7h-7V72.8z M14.5,80.1h7v7h-7V80.1z M21.8,58.2h7v7h-7V58.2z M21.8,65.6
	h7v7h-7V65.6z M21.8,72.8h7v7h-7V72.8z M21.8,80.1h7v7h-7V80.1z M29,0.1h7v7h-7V0.1z M29,7.4h7v7h-7V7.4z M29,14.6h7v7h-7V14.6z
	 M29,21.9h7v7h-7V21.9z M29,29.2h7v7h-7V29.2z M29,36.4h7v7h-7V36.4z M29,43.7h7v7h-7V43.7z M29,51h7v7h-7V51z M29,58.2h7v7h-7V58.2
	z M29,65.6h7v7h-7V65.6z M29,72.8h7v7h-7V72.8z M36.3,51h7v7h-7V51z M36.3,58.2h7v7h-7V58.2z M36.3,65.6h7v7h-7V65.6z M43.6,51h7v7
	h-7V51z M43.6,58.2h7v7h-7V58.2z M43.6,65.6h7v7h-7V65.6z M50.8,43.7h7v7h-7V43.7z M58.1,36.4h7v7h-7V36.4z"/>
</svg>
