<?xml version="1.0" encoding="utf-8"?>
<!-- Generator: Adobe Illustrator 27.3.1, SVG Export Plug-In . SVG Version: 6.00 Build 0)  -->
<svg version="1.1" id="Слой_1" xmlns="http://www.w3.org/2000/svg" xmlns:xlink="http://www.w3.org/1999/xlink" x="0px" y="0px"
	 viewBox="0 0 79.6 86.9" style="enable-background:new 0 0 79.6 86.9;" xml:space="preserve">
<style type="text/css">
	.st0{fill:#1E0E01;}
</style>
<path class="st0" d="M7.1,65.4h7v7h-7V65.4z M7.1,72.6h7v7h-7V72.6z M7.1,79.9h7v7h-7V79.9z M14.3,58.1h7v7h-7V58.1z M14.3,72.6h7v7
	h-7V72.6z M14.3,79.9h7v7h-7V79.9z M21.6,21.8h7v7h-7V21.8z M21.6,29.1h7v7h-7V29.1z M21.6,36.3h7v7h-7V36.3z M21.6,43.6h7v7h-7
	V43.6z M21.6,50.9h7v7h-7V50.9z M21.6,65.4h7v7h-7V65.4z M21.6,72.6h7v7h-7V72.6z M28.8,0h7v7h-7V0z M28.8,7.3h7v7h-7V7.3z
	 M28.8,14.5h7v7h-7V14.5z M28.8,50.9h7v7h-7V50.9z M28.8,58.1h7v7h-7V58.1z M28.8,65.4h7v7h-7V65.4z M36.1,50.9h7v7h-7V50.9z
	 M36.1,58.1h7v7h-7V58.1z M43.4,43.6h7v7h-7V43.6z M57.9,29.1h7v7h-7V29.1z"/>
</svg>
