<?xml version="1.0" encoding="utf-8"?>
<!-- Generator: Adobe Illustrator 27.3.1, SVG Export Plug-In . SVG Version: 6.00 Build 0)  -->
<svg version="1.1" id="Слой_1" xmlns="http://www.w3.org/2000/svg" xmlns:xlink="http://www.w3.org/1999/xlink" x="0px" y="0px"
	 viewBox="0 0 86.9 115.9" style="enable-background:new 0 0 86.9 115.9;" xml:space="preserve">
<style type="text/css">
	.st0{fill:#1E0E01;}
</style>
<path class="st0" d="M14.5,94.4h7v7h-7V94.4z M14.5,101.7h7v7h-7V101.7z M14.5,108.9h7v7h-7V108.9z M21.8,87.2h7v7h-7V87.2z
	 M21.8,101.7h7v7h-7V101.7z M21.8,108.9h7v7h-7V108.9z M29,79.9h7v7h-7V79.9z M29,94.4h7v7h-7V94.4z M29,101.7h7v7h-7V101.7z
	 M29,108.9h7v7h-7V108.9z M36.3,0h7v7h-7V0z M36.3,7.3h7v7h-7V7.3z M36.3,14.5h7v7h-7V14.5z M36.3,21.8h7v7h-7V21.8z M36.3,29.1h7v7
	h-7V29.1z M36.3,36.3h7v7h-7V36.3z M36.3,43.6h7v7h-7V43.6z M36.3,50.9h7v7h-7V50.9z M36.3,58.1h7v7h-7V58.1z M36.3,65.4h7v7h-7
	V65.4z M36.3,72.6h7v7h-7V72.6z M36.3,87.2h7v7h-7V87.2z M36.3,94.4h7v7h-7V94.4z M36.3,101.7h7v7h-7V101.7z M36.3,108.9h7v7h-7
	V108.9z M43.6,65.4h7v7h-7V65.4z M43.6,79.9h7v7h-7V79.9z M43.6,87.2h7v7h-7V87.2z M43.6,94.4h7v7h-7V94.4z M50.8,65.4h7v7h-7V65.4z
	 M50.8,72.6h7v7h-7V72.6z M50.8,79.9h7v7h-7V79.9z M50.8,87.2h7v7h-7V87.2z M58.1,36.3h7v7h-7V36.3z M58.1,65.4h7v7h-7V65.4z
	 M58.1,72.6h7v7h-7V72.6z M58.1,79.9h7v7h-7V79.9z M65.3,58.1h7v7h-7V58.1z M72.6,50.9h7v7h-7V50.9z M79.9,65.4h7v7h-7V65.4z"/>
</svg>
