<?xml version="1.0" encoding="utf-8"?>
<!-- Generator: Adobe Illustrator 27.3.1, SVG Export Plug-In . SVG Version: 6.00 Build 0)  -->
<svg version="1.1" id="Слой_1" xmlns="http://www.w3.org/2000/svg" xmlns:xlink="http://www.w3.org/1999/xlink" x="0px" y="0px"
	 viewBox="0 0 43.3 86.9" style="enable-background:new 0 0 43.3 86.9;" xml:space="preserve">
<style type="text/css">
	.st0{fill:#1E0E01;}
</style>
<path class="st0" d="M14.6,14.5h7v7h-7V14.5z M14.6,21.8h7v7h-7V21.8z M14.6,72.6h7v7h-7V72.6z M14.6,79.9h7v7h-7V79.9z M21.8,0h7v7
	h-7V0z M21.8,7.2h7v7h-7V7.2z M21.8,29h7v7h-7V29z M21.8,36.3h7v7h-7V36.3z M21.8,58.1h7v7h-7V58.1z M21.8,65.3h7v7h-7V65.3z
	 M29.1,43.5h7v7h-7V43.5z M29.1,50.8h7v7h-7V50.8z"/>
</svg>
