<?xml version="1.0" encoding="utf-8"?>
<!-- Generator: Adobe Illustrator 27.3.1, SVG Export Plug-In . SVG Version: 6.00 Build 0)  -->
<svg version="1.1" id="Слой_1" xmlns="http://www.w3.org/2000/svg" xmlns:xlink="http://www.w3.org/1999/xlink" x="0px" y="0px"
	 viewBox="0 0 116 115.9" style="enable-background:new 0 0 116 115.9;" xml:space="preserve">
<style type="text/css">
	.st0{fill:#1E0E01;}
</style>
<g id="Слой_2_00000021101078868616802640000018338439142610884533_">
</g>
<path class="st0" d="M36.3,43.6h7v7h-7V43.6z M36.3,50.9h7v7h-7V50.9z M36.3,58.1h7v7h-7V58.1z M36.3,65.4h7v7h-7V65.4z M36.3,72.6
	h7v7h-7V72.6z M36.3,79.9h7v7h-7V79.9z M36.3,87.2h7v7h-7V87.2z M36.3,94.4h7v7h-7V94.4z M36.3,101.7h7v7h-7V101.7z M43.6,43.6h7v7
	h-7V43.6z M43.6,50.9h7v7h-7V50.9z M43.6,101.7h7v7h-7V101.7z M50.9,0h7v7h-7V0z M50.9,43.6h7v7h-7V43.6z M50.9,58.1h7v7h-7V58.1z
	 M50.9,94.4h7v7h-7V94.4z M50.9,101.7h7v7h-7V101.7z M58.1,7.3h7v7h-7V7.3z M58.1,43.6h7v7h-7V43.6z M58.1,65.4h7v7h-7V65.4z
	 M58.1,72.6h7v7h-7V72.6z M58.1,87.2h7v7h-7V87.2z M58.1,101.7h7v7h-7V101.7z M65.4,14.5h7v7h-7V14.5z M65.4,43.6h7v7h-7V43.6z
	 M65.4,72.6h7v7h-7V72.6z M65.4,79.9h7v7h-7V79.9z M65.4,101.7h7v7h-7V101.7z M65.4,108.9h7v7h-7V108.9z M72.6,21.8h7v7h-7V21.8z
	 M72.6,43.6h7v7h-7V43.6z M72.6,72.6h7v7h-7V72.6z M72.6,79.9h7v7h-7V79.9z M72.6,101.7h7v7h-7V101.7z M79.9,29.1h7v7h-7V29.1z
	 M79.9,36.3h7v7h-7V36.3z M79.9,43.6h7v7h-7V43.6z M79.9,65.4h7v7h-7V65.4z M79.9,72.6h7v7h-7V72.6z M79.9,87.2h7v7h-7V87.2z
	 M79.9,101.7h7v7h-7V101.7z M87.2,43.6h7v7h-7V43.6z M87.2,58.1h7v7h-7V58.1z M87.2,94.4h7v7h-7V94.4z M87.2,101.7h7v7h-7V101.7z
	 M94.4,43.6h7v7h-7V43.6z M94.4,50.9h7v7h-7V50.9z M94.4,101.7h7v7h-7V101.7z M101.7,43.6h7v7h-7V43.6z M101.7,50.9h7v7h-7V50.9z
	 M101.7,58.1h7v7h-7V58.1z M101.7,65.4h7v7h-7V65.4z M101.7,72.6h7v7h-7V72.6z M101.7,79.9h7v7h-7V79.9z M101.7,87.2h7v7h-7V87.2z
	 M101.7,94.4h7v7h-7V94.4z M101.7,101.7h7v7h-7V101.7z"/>
</svg>
