<?xml version="1.0" encoding="utf-8"?>
<!-- Generator: Adobe Illustrator 27.3.1, SVG Export Plug-In . SVG Version: 6.00 Build 0)  -->
<svg version="1.1" id="Слой_1" xmlns="http://www.w3.org/2000/svg" xmlns:xlink="http://www.w3.org/1999/xlink" x="0px" y="0px"
	 viewBox="0 0 1001.6 900" style="enable-background:new 0 0 1001.6 900;" xml:space="preserve">
<style type="text/css">
	.st0{fill:#1E0E01;}
</style>
<g id="Слой_2_00000075842856718680154190000012400335028278832293_">
</g>
<path class="st0" d="M14.5,21.8h7v7h-7V21.8z M14.5,29.1h7v7h-7V29.1z M14.5,36.3h7v7h-7V36.3z M14.5,43.6h7v7h-7V43.6z M14.5,50.9
	h7v7h-7V50.9z M14.5,58.1h7v7h-7V58.1z M14.5,65.4h7v7h-7V65.4z M14.5,72.6h7v7h-7V72.6z M14.5,79.9h7v7h-7V79.9z M14.5,87.2h7v7h-7
	V87.2z M14.5,94.4h7v7h-7V94.4z M14.5,101.7h7v7h-7V101.7z M14.5,108.9h7v7h-7V108.9z M14.5,116.2h7v7h-7V116.2z M14.5,123.4h7v7h-7
	V123.4z M14.5,130.7h7v7h-7V130.7z M14.5,138h7v7h-7V138z M14.5,145.2h7v7h-7V145.2z M14.5,152.5h7v7h-7V152.5z M14.5,159.7h7v7h-7
	V159.7z M14.5,167h7v7h-7V167z M14.5,174.3h7v7h-7V174.3z M14.5,181.5h7v7h-7V181.5z M14.5,188.8h7v7h-7V188.8z M14.5,196.1h7v7h-7
	V196.1z M14.5,203.3h7v7h-7V203.3z M14.5,210.6h7v7h-7V210.6z M14.5,217.8h7v7h-7V217.8z M14.5,225.1h7v7h-7V225.1z M14.5,232.3h7v7
	h-7V232.3z M14.5,239.6h7v7h-7V239.6z M14.5,246.9h7v7h-7V246.9z M14.5,254.1h7v7h-7V254.1z M14.5,261.4h7v7h-7V261.4z M14.5,268.7
	h7v7h-7V268.7z M14.5,275.9h7v7h-7V275.9z M14.5,283.2h7v7h-7V283.2z M14.5,290.4h7v7h-7V290.4z M14.5,297.7h7v7h-7V297.7z
	 M14.5,304.9h7v7h-7V304.9z M14.5,312.2h7v7h-7V312.2z M14.5,319.5h7v7h-7V319.5z M14.5,326.7h7v7h-7V326.7z M14.5,334h7v7h-7V334z
	 M14.5,341.3h7v7h-7V341.3z M14.5,348.5h7v7h-7V348.5z M14.5,355.8h7v7h-7V355.8z M14.5,363h7v7h-7V363z M14.5,370.3h7v7h-7V370.3z
	 M14.5,377.5h7v7h-7V377.5z M14.5,384.8h7v7h-7V384.8z M21.8,14.5h7v7h-7V14.5z M29,7.3h7v7h-7V7.3z M36.3,7.3h7v7h-7V7.3z
	 M43.6,7.3h7v7h-7V7.3z M50.8,7.3h7v7h-7V7.3z M58.1,7.3h7v7h-7V7.3z M65.3,7.3h7v7h-7V7.3z M14.5,392.1h7v7h-7V392.1z M14.5,399.3
	h7v7h-7V399.3z M14.5,406.6h7v7h-7V406.6z M14.5,413.9h7v7h-7V413.9z M14.5,421.1h7v7h-7V421.1z M14.5,428.4h7v7h-7V428.4z
	 M14.5,435.6h7v7h-7V435.6z M14.5,442.9h7v7h-7V442.9z M14.5,450.1h7v7h-7V450.1z M14.5,457.4h7v7h-7V457.4z M14.5,464.7h7v7h-7
	V464.7z M14.5,471.9h7v7h-7V471.9z M14.5,479.2h7v7h-7V479.2z M14.5,486.5h7v7h-7V486.5z M14.5,493.7h7v7h-7V493.7z M14.5,501h7v7
	h-7V501z M14.5,508.2h7v7h-7V508.2z M14.5,515.5h7v7h-7V515.5z M14.5,522.7h7v7h-7V522.7z M14.5,530h7v7h-7V530z M14.5,537.3h7v7h-7
	V537.3z M14.5,544.5h7v7h-7V544.5z M14.5,551.8h7v7h-7V551.8z M14.5,559.1h7v7h-7V559.1z M14.5,566.3h7v7h-7V566.3z M14.5,573.6h7v7
	h-7V573.6z M14.5,580.8h7v7h-7V580.8z M14.5,588.1h7v7h-7V588.1z M72.6,7.3h7v7h-7V7.3z M79.9,7.3h7v7h-7V7.3z M87.1,7.3h7v7h-7V7.3
	z M94.4,7.3h7v7h-7V7.3z M101.6,7.3h7v7h-7V7.3z M108.9,7.3h7v7h-7V7.3z M116.2,7.3h7v7h-7V7.3z M123.4,7.3h7v7h-7
	C123.4,14.3,123.4,7.3,123.4,7.3z M130.7,7.3h7v7h-7V7.3z M137.9,7.3h7v7h-7V7.3z M145.2,7.3h7v7h-7V7.3z M152.5,7.3h7v7h-7V7.3z
	 M159.7,7.3h7v7h-7V7.3z M167,7.3h7v7h-7V7.3z M174.2,7.3h7v7h-7V7.3z M181.5,7.3h7v7h-7V7.3z M188.8,7.3h7v7h-7V7.3z M196,7.3h7v7
	h-7V7.3z M203.3,7.3h7v7h-7V7.3z M210.5,7.3h7v7h-7V7.3z M217.8,7.3h7v7h-7V7.3z M225.1,7.3h7v7h-7V7.3z M232.3,7.3h7v7h-7V7.3z
	 M239.6,7.3h7v7h-7V7.3z M246.8,7.3h7v7h-7V7.3z M254.1,7.3h7v7h-7V7.3z M261.4,7.3h7v7h-7V7.3z M268.6,7.3h7v7h-7V7.3z M275.9,7.3
	h7v7h-7V7.3z M283.1,7.3h7v7h-7V7.3z M290.4,7.3h7v7h-7V7.3z M297.7,7.3h7v7h-7V7.3z M304.9,7.3h7v7h-7V7.3z M312.2,7.3h7v7h-7V7.3z
	 M319.4,7.3h7v7h-7V7.3z M326.7,7.3h7v7h-7V7.3z M334,7.3h7v7h-7V7.3z M341.2,7.3h7v7h-7V7.3z M348.5,7.3h7v7h-7V7.3z M355.7,7.3h7
	v7h-7V7.3z M363,7.3h7v7h-7V7.3z M370.3,7.3h7v7h-7V7.3z M377.5,7.3h7v7h-7V7.3z M384.8,7.3h7v7h-7V7.3z M392,7.3h7v7h-7V7.3z
	 M399.3,7.3h7v7h-7V7.3z M406.6,7.3h7v7h-7V7.3z M413.8,7.3h7v7h-7V7.3z M421.1,7.3h7v7h-7V7.3z M428.3,7.3h7v7h-7V7.3z M435.6,7.3
	h7v7h-7V7.3z M442.9,7.3h7v7h-7V7.3z M450.1,7.3h7v7h-7V7.3z M457.4,7.3h7v7h-7V7.3z M464.6,7.3h7v7h-7V7.3z M471.9,7.3h7v7h-7V7.3z
	 M479.2,7.3h7v7h-7V7.3z M486.4,7.3h7v7h-7V7.3z M493.7,7.3h7v7h-7V7.3z M500.9,7.3h7v7h-7V7.3z M508.2,7.3h7v7h-7V7.3z M515.5,7.3
	h7v7h-7V7.3z M522.7,7.3h7v7h-7V7.3z M530,7.3h7v7h-7V7.3z M537.2,7.3h7v7h-7V7.3z M544.5,7.3h7v7h-7V7.3z M551.8,7.3h7v7h-7V7.3z
	 M559,7.3h7v7h-7V7.3z M566.3,7.3h7v7h-7V7.3z M573.5,7.3h7v7h-7V7.3z M580.8,7.3h7v7h-7V7.3z M588.1,7.3h7v7h-7V7.3z M595.3,7.3h7
	v7h-7V7.3z M602.6,7.3h7v7h-7V7.3z M609.8,7.3h7v7h-7V7.3z M617.1,7.3h7v7h-7V7.3z M624.4,7.3h7v7h-7V7.3z M631.6,7.3h7v7h-7V7.3z
	 M638.9,7.3h7v7h-7V7.3z M646.1,7.3h7v7h-7V7.3z M653.4,7.3h7v7h-7V7.3z M660.7,7.3h7v7h-7V7.3z M667.9,7.3h7v7h-7V7.3z M675.2,7.3
	h7v7h-7V7.3z M682.4,7.3h7v7h-7V7.3z M689.7,7.3h7v7h-7V7.3z M697,7.3h7v7h-7V7.3z M704.2,7.3h7v7h-7V7.3z M711.5,7.3h7v7h-7V7.3z
	 M718.7,7.3h7v7h-7V7.3z M726,7.3h7v7h-7V7.3z M733.3,7.3h7v7h-7V7.3z M740.5,7.3h7v7h-7V7.3z M747.8,7.3h7v7h-7V7.3z M755,7.3h7v7
	h-7V7.3z M762.3,7.3h7v7h-7V7.3z M769.6,7.3h7v7h-7V7.3z M776.8,7.3h7v7h-7V7.3z M784.1,7.3h7v7h-7V7.3z M791.3,7.3h7v7h-7V7.3z
	 M798.6,7.3h7v7h-7V7.3z M805.9,7.3h7v7h-7V7.3z M813.1,7.3h7v7h-7V7.3z M820.4,7.3h7v7h-7V7.3z M827.6,7.3h7v7h-7V7.3z M834.9,7.3
	h7v7h-7V7.3z M842.2,7.3h7v7h-7V7.3z M849.4,7.3h7v7h-7V7.3z M856.7,7.3h7v7h-7V7.3z M863.9,7.3h7v7h-7V7.3z M14.5,595.3h7v7h-7
	V595.3z M14.5,602.6h7v7h-7V602.6z M14.5,609.8h7v7h-7V609.8z M14.5,617.1h7v7h-7V617.1z M14.5,624.4h7v7h-7V624.4z M14.5,631.6h7v7
	h-7V631.6z M14.5,638.9h7v7h-7V638.9z M14.5,646.1h7v7h-7V646.1z M14.5,653.4h7v7h-7V653.4z M14.5,660.7h7v7h-7V660.7z M14.5,668h7
	v7h-7V668z M14.5,675.2h7v7h-7V675.2z M14.5,682.5h7v7h-7V682.5z M14.5,689.8h7v7h-7V689.8z M14.5,697h7v7h-7V697z M14.5,704.3h7v7
	h-7V704.3z M14.5,711.5h7v7h-7V711.5z M14.5,718.8h7v7h-7V718.8z M14.5,726h7v7h-7V726z M14.5,733.3h7v7h-7V733.3z M14.5,740.5h7v7
	h-7V740.5z M14.5,747.8h7v7h-7V747.8z M14.5,755.1h7v7h-7V755.1z M21.8,762.3h7v7h-7V762.3z M29,769.6h7v7h-7V769.6z M36.3,769.6h7
	v7h-7V769.6z M36.3,776.8h7v7h-7V776.8z M43.6,769.6h7v7h-7V769.6z M43.6,776.8h7v7h-7V776.8z M50.8,769.6h7v7h-7V769.6z
	 M50.8,776.8h7v7h-7V776.8z M58.1,769.6h7v7h-7V769.6z M58.1,776.8h7v7h-7V776.8z M65.3,769.6h7v7h-7V769.6z M65.3,776.8h7v7h-7
	V776.8z M72.6,769.6h7v7h-7V769.6z M72.6,776.8h7v7h-7V776.8z M79.9,769.6h7v7h-7V769.6z M79.9,776.8h7v7h-7V776.8z M87.1,769.6h7v7
	h-7V769.6z M87.1,776.8h7v7h-7V776.8z M94.4,769.6h7v7h-7V769.6z M94.4,776.8h7v7h-7V776.8z M101.6,769.6h7v7h-7V769.6z
	 M101.6,776.8h7v7h-7V776.8z M108.9,769.6h7v7h-7V769.6z M108.9,776.8h7v7h-7V776.8z M116.2,769.6h7v7h-7V769.6z M116.2,776.8h7v7
	h-7V776.8z M123.4,769.6h7v7h-7C123.4,776.6,123.4,769.6,123.4,769.6z M123.4,776.8h7v7h-7C123.4,783.8,123.4,776.8,123.4,776.8z
	 M130.7,769.6h7v7h-7V769.6z M130.7,776.8h7v7h-7V776.8z M137.9,769.6h7v7h-7V769.6z M137.9,776.8h7v7h-7V776.8z M145.2,769.6h7v7
	h-7V769.6z M145.2,776.8h7v7h-7V776.8z M152.5,769.6h7v7h-7V769.6z M152.5,776.8h7v7h-7V776.8z M159.7,769.6h7v7h-7V769.6z
	 M159.7,776.8h7v7h-7V776.8z M167,769.6h7v7h-7V769.6z M167,776.8h7v7h-7V776.8z M174.2,769.6h7v7h-7V769.6z M174.2,776.8h7v7h-7
	V776.8z M181.5,769.6h7v7h-7V769.6z M181.5,776.8h7v7h-7V776.8z M188.8,769.6h7v7h-7V769.6z M188.8,776.8h7v7h-7V776.8z M196,769.6
	h7v7h-7V769.6z M196,776.8h7v7h-7V776.8z M203.3,769.6h7v7h-7V769.6z M203.3,776.8h7v7h-7V776.8z M210.5,769.6h7v7h-7V769.6z
	 M210.5,776.8h7v7h-7V776.8z M217.8,769.6h7v7h-7V769.6z M217.8,776.8h7v7h-7V776.8z M225.1,769.6h7v7h-7V769.6z M225.1,776.8h7v7
	h-7V776.8z M232.3,769.6h7v7h-7V769.6z M232.3,776.8h7v7h-7V776.8z M239.6,769.6h7v7h-7V769.6z M239.6,776.8h7v7h-7V776.8z
	 M246.8,769.6h7v7h-7V769.6z M246.8,776.8h7v7h-7V776.8z M254.1,769.6h7v7h-7V769.6z M254.1,776.8h7v7h-7V776.8z M261.4,769.6h7v7
	h-7V769.6z M261.4,776.8h7v7h-7V776.8z M268.6,769.6h7v7h-7V769.6z M268.6,776.8h7v7h-7V776.8z M275.9,769.6h7v7h-7V769.6z
	 M275.9,776.8h7v7h-7V776.8z M283.1,769.6h7v7h-7V769.6z M283.1,776.8h7v7h-7V776.8z M290.4,769.6h7v7h-7V769.6z M290.4,776.8h7v7
	h-7V776.8z M297.7,769.6h7v7h-7V769.6z M297.7,776.8h7v7h-7V776.8z M304.9,769.6h7v7h-7V769.6z M304.9,776.8h7v7h-7V776.8z
	 M312.2,769.6h7v7h-7V769.6z M312.2,776.8h7v7h-7V776.8z M319.4,769.6h7v7h-7V769.6z M319.4,776.8h7v7h-7V776.8z M326.7,769.6h7v7
	h-7V769.6z M326.7,776.8h7v7h-7V776.8z M334,769.6h7v7h-7V769.6z M334,776.8h7v7h-7V776.8z M341.2,769.6h7v7h-7V769.6z M341.2,776.8
	h7v7h-7V776.8z M348.5,769.6h7v7h-7V769.6z M348.5,776.8h7v7h-7V776.8z M355.7,769.6h7v7h-7V769.6z M355.7,776.8h7v7h-7V776.8z
	 M363,769.6h7v7h-7V769.6z M363,776.8h7v7h-7V776.8z M370.3,769.6h7v7h-7V769.6z M370.3,776.8h7v7h-7V776.8z M377.5,769.6h7v7h-7
	V769.6z M377.5,776.8h7v7h-7V776.8z M384.8,769.6h7v7h-7V769.6z M384.8,776.8h7v7h-7V776.8z M392,769.6h7v7h-7V769.6z M392,776.8h7
	v7h-7V776.8z M399.3,769.6h7v7h-7V769.6z M399.3,776.8h7v7h-7V776.8z M406.6,769.6h7v7h-7V769.6z M406.6,776.8h7v7h-7V776.8z
	 M413.8,769.6h7v7h-7V769.6z M413.8,776.8h7v7h-7V776.8z M421.1,769.6h7v7h-7V769.6z M421.1,776.8h7v7h-7V776.8z M428.3,769.6h7v7
	h-7V769.6z M428.3,776.8h7v7h-7V776.8z M435.6,769.6h7v7h-7V769.6z M435.6,776.8h7v7h-7V776.8z M442.9,769.6h7v7h-7V769.6z
	 M442.9,776.8h7v7h-7V776.8z M450.1,769.6h7v7h-7V769.6z M450.1,776.8h7v7h-7V776.8z M457.4,769.6h7v7h-7V769.6z M457.4,776.8h7v7
	h-7V776.8z M464.6,769.6h7v7h-7V769.6z M464.6,776.8h7v7h-7V776.8z M471.9,769.6h7v7h-7V769.6z M471.9,776.8h7v7h-7V776.8z
	 M479.2,769.6h7v7h-7V769.6z M479.2,776.8h7v7h-7V776.8z M486.4,769.6h7v7h-7V769.6z M486.4,776.8h7v7h-7V776.8z M493.7,769.6h7v7
	h-7V769.6z M493.7,776.8h7v7h-7V776.8z M500.9,769.6h7v7h-7V769.6z M500.9,776.8h7v7h-7V776.8z M508.2,769.6h7v7h-7V769.6z
	 M508.2,776.8h7v7h-7V776.8z M515.5,769.6h7v7h-7V769.6z M515.5,776.8h7v7h-7V776.8z M522.7,769.6h7v7h-7V769.6z M522.7,776.8h7v7
	h-7V776.8z M530,769.6h7v7h-7V769.6z M530,776.8h7v7h-7V776.8z M537.2,769.6h7v7h-7V769.6z M537.2,776.8h7v7h-7V776.8z M544.5,769.6
	h7v7h-7V769.6z M544.5,776.8h7v7h-7V776.8z M551.8,769.6h7v7h-7V769.6z M551.8,776.8h7v7h-7V776.8z M559,769.6h7v7h-7V769.6z
	 M559,776.8h7v7h-7V776.8z M566.3,769.6h7v7h-7V769.6z M566.3,776.8h7v7h-7V776.8z M573.5,769.6h7v7h-7V769.6z M573.5,776.8h7v7h-7
	V776.8z M580.8,769.6h7v7h-7V769.6z M580.8,776.8h7v7h-7V776.8z M588.1,769.6h7v7h-7V769.6z M588.1,776.8h7v7h-7V776.8z
	 M595.3,769.6h7v7h-7V769.6z M595.3,776.8h7v7h-7V776.8z M602.6,769.6h7v7h-7V769.6z M602.6,776.8h7v7h-7V776.8z M609.8,769.6h7v7
	h-7V769.6z M609.8,776.8h7v7h-7V776.8z M617.1,769.6h7v7h-7V769.6z M617.1,776.8h7v7h-7V776.8z M624.4,769.6h7v7h-7V769.6z
	 M624.4,776.8h7v7h-7V776.8z M631.6,769.6h7v7h-7V769.6z M631.6,776.8h7v7h-7V776.8z M638.9,769.6h7v7h-7V769.6z M638.9,776.8h7v7
	h-7V776.8z M646.1,769.6h7v7h-7V769.6z M646.1,776.8h7v7h-7V776.8z M653.4,769.6h7v7h-7V769.6z M653.4,776.8h7v7h-7V776.8z
	 M660.7,769.6h7v7h-7V769.6z M660.7,776.8h7v7h-7V776.8z M667.9,769.6h7v7h-7V769.6z M667.9,776.8h7v7h-7V776.8z M675.2,769.6h7v7
	h-7V769.6z M675.2,776.8h7v7h-7V776.8z M682.4,769.6h7v7h-7V769.6z M682.4,776.8h7v7h-7V776.8z M689.7,769.6h7v7h-7V769.6z
	 M689.7,776.8h7v7h-7V776.8z M697,769.6h7v7h-7V769.6z M697,776.8h7v7h-7V776.8z M704.2,769.6h7v7h-7V769.6z M704.2,776.8h7v7h-7
	V776.8z M711.5,769.6h7v7h-7V769.6z M711.5,776.8h7v7h-7V776.8z M718.7,769.6h7v7h-7V769.6z M718.7,776.8h7v7h-7V776.8z M726,769.6
	h7v7h-7V769.6z M726,776.8h7v7h-7V776.8z M733.3,769.6h7v7h-7V769.6z M733.3,776.8h7v7h-7V776.8z M740.5,769.6h7v7h-7V769.6z
	 M740.5,776.8h7v7h-7V776.8z M747.8,769.6h7v7h-7V769.6z M747.8,776.8h7v7h-7V776.8z M755,769.6h7v7h-7V769.6z M755,776.8h7v7h-7
	V776.8z M762.3,769.6h7v7h-7V769.6z M762.3,776.8h7v7h-7V776.8z M769.6,769.6h7v7h-7V769.6z M769.6,776.8h7v7h-7V776.8z
	 M776.8,769.6h7v7h-7V769.6z M776.8,776.8h7v7h-7V776.8z M784.1,769.6h7v7h-7V769.6z M784.1,776.8h7v7h-7V776.8z M791.3,769.6h7v7
	h-7V769.6z M791.3,776.8h7v7h-7V776.8z M798.6,769.6h7v7h-7V769.6z M798.6,776.8h7v7h-7V776.8z M805.9,769.6h7v7h-7V769.6z
	 M805.9,776.8h7v7h-7V776.8z M813.1,769.6h7v7h-7V769.6z M813.1,776.8h7v7h-7V776.8z M820.4,769.6h7v7h-7V769.6z M820.4,776.8h7v7
	h-7V776.8z M827.6,769.6h7v7h-7V769.6z M827.6,776.8h7v7h-7V776.8z M834.9,769.6h7v7h-7V769.6z M834.9,776.8h7v7h-7V776.8z
	 M842.2,769.6h7v7h-7V769.6z M842.2,776.8h7v7h-7V776.8z M849.4,769.6h7v7h-7V769.6z M849.4,776.8h7v7h-7V776.8z M856.7,769.6h7v7
	h-7V769.6z M856.7,776.8h7v7h-7V776.8z M863.9,769.6h7v7h-7V769.6z M863.9,776.8h7v7h-7V776.8z M871.2,7.3h7v7h-7V7.3z M878.5,7.3h7
	v7h-7V7.3z M885.7,7.3h7v7h-7V7.3z M893,7.3h7v7h-7V7.3z M900.2,7.3h7v7h-7V7.3z M907.5,7.3h7v7h-7V7.3z M914.8,7.3h7v7h-7V7.3z
	 M922,7.3h7v7h-7V7.3z M929.3,7.3h7v7h-7V7.3z M936.5,7.3h7v7h-7V7.3z M871.2,769.6h7v7h-7V769.6z M871.2,776.8h7v7h-7V776.8z
	 M878.5,769.6h7v7h-7V769.6z M878.5,776.8h7v7h-7V776.8z M885.7,769.6h7v7h-7V769.6z M885.7,776.8h7v7h-7V776.8z M893,769.6h7v7h-7
	V769.6z M893,776.8h7v7h-7V776.8z M900.2,769.6h7v7h-7V769.6z M900.2,776.8h7v7h-7V776.8z M907.5,769.6h7v7h-7V769.6z M907.5,776.8
	h7v7h-7V776.8z M914.8,769.6h7v7h-7V769.6z M914.8,776.8h7v7h-7V776.8z M922,769.6h7v7h-7V769.6z M922,776.8h7v7h-7V776.8z
	 M929.3,769.6h7v7h-7V769.6z M929.3,776.8h7v7h-7V776.8z M936.5,769.6h7v7h-7V769.6z M936.5,776.8h7v7h-7V776.8z M943.8,7.3h7v7h-7
	V7.3z M951.1,7.3h7v7h-7V7.3z M958.3,7.3h7v7h-7V7.3z M958.3,14.5h7v7h-7V14.5z M965.6,14.5h7v7h-7V14.5z M965.6,21.8h7v7h-7V21.8z
	 M972.8,21.8h7v7h-7V21.8z M972.8,29.1h7v7h-7V29.1z M972.8,36.3h7v7h-7V36.3z M972.8,43.6h7v7h-7V43.6z M972.8,50.9h7v7h-7V50.9z
	 M972.8,58.1h7v7h-7V58.1z M972.8,65.4h7v7h-7V65.4z M972.8,72.6h7v7h-7V72.6z M972.8,79.9h7v7h-7V79.9z M972.8,87.2h7v7h-7V87.2z
	 M972.8,94.4h7v7h-7V94.4z M972.8,101.7h7v7h-7V101.7z M972.8,108.9h7v7h-7V108.9z M972.8,116.2h7v7h-7V116.2z M972.8,123.4h7v7h-7
	V123.4z M972.8,130.7h7v7h-7V130.7z M972.8,138h7v7h-7V138z M972.8,145.2h7v7h-7V145.2z M972.8,152.5h7v7h-7V152.5z M972.8,159.7h7
	v7h-7V159.7z M972.8,167h7v7h-7V167z M972.8,174.3h7v7h-7V174.3z M972.8,181.5h7v7h-7V181.5z M972.8,188.8h7v7h-7V188.8z
	 M972.8,196.1h7v7h-7V196.1z M972.8,203.3h7v7h-7V203.3z M972.8,210.6h7v7h-7V210.6z M972.8,217.8h7v7h-7V217.8z M972.8,225.1h7v7
	h-7V225.1z M972.8,232.3h7v7h-7V232.3z M972.8,239.6h7v7h-7V239.6z M972.8,246.9h7v7h-7V246.9z M972.8,254.1h7v7h-7V254.1z
	 M972.8,261.4h7v7h-7V261.4z M972.8,268.7h7v7h-7V268.7z M972.8,275.9h7v7h-7V275.9z M972.8,283.2h7v7h-7V283.2z M972.8,290.4h7v7
	h-7V290.4z M972.8,297.7h7v7h-7V297.7z M972.8,304.9h7v7h-7V304.9z M972.8,312.2h7v7h-7V312.2z M972.8,319.5h7v7h-7V319.5z
	 M972.8,326.7h7v7h-7V326.7z M972.8,334h7v7h-7V334z M972.8,341.3h7v7h-7V341.3z M972.8,348.5h7v7h-7V348.5z M972.8,355.8h7v7h-7
	V355.8z M972.8,363h7v7h-7V363z M972.8,370.3h7v7h-7V370.3z M972.8,377.5h7v7h-7V377.5z M972.8,384.8h7v7h-7V384.8z M980.1,29.1h7v7
	h-7V29.1z M980.1,36.3h7v7h-7V36.3z M980.1,43.6h7v7h-7V43.6z M980.1,50.9h7v7h-7V50.9z M980.1,58.1h7v7h-7V58.1z M980.1,65.4h7v7
	h-7V65.4z M980.1,72.6h7v7h-7V72.6z M980.1,79.9h7v7h-7V79.9z M980.1,87.2h7v7h-7V87.2z M980.1,94.4h7v7h-7V94.4z M980.1,101.7h7v7
	h-7V101.7z M980.1,108.9h7v7h-7V108.9z M980.1,116.2h7v7h-7V116.2z M980.1,123.4h7v7h-7V123.4z M980.1,130.7h7v7h-7V130.7z
	 M980.1,138h7v7h-7V138z M980.1,145.2h7v7h-7V145.2z M980.1,152.5h7v7h-7V152.5z M980.1,159.7h7v7h-7V159.7z M980.1,167h7v7h-7V167z
	 M980.1,174.3h7v7h-7V174.3z M980.1,181.5h7v7h-7V181.5z M980.1,188.8h7v7h-7V188.8z M980.1,196.1h7v7h-7V196.1z M980.1,203.3h7v7
	h-7V203.3z M980.1,210.6h7v7h-7V210.6z M980.1,217.8h7v7h-7V217.8z M980.1,225.1h7v7h-7V225.1z M980.1,232.3h7v7h-7V232.3z
	 M980.1,239.6h7v7h-7V239.6z M980.1,246.9h7v7h-7V246.9z M980.1,254.1h7v7h-7V254.1z M980.1,261.4h7v7h-7V261.4z M980.1,268.7h7v7
	h-7V268.7z M980.1,275.9h7v7h-7V275.9z M980.1,283.2h7v7h-7V283.2z M980.1,290.4h7v7h-7V290.4z M980.1,297.7h7v7h-7V297.7z
	 M980.1,304.9h7v7h-7V304.9z M980.1,312.2h7v7h-7V312.2z M980.1,319.5h7v7h-7V319.5z M980.1,326.7h7v7h-7V326.7z M980.1,334h7v7h-7
	V334z M980.1,341.3h7v7h-7V341.3z M980.1,348.5h7v7h-7V348.5z M980.1,355.8h7v7h-7V355.8z M980.1,363h7v7h-7V363z M980.1,370.3h7v7
	h-7V370.3z M980.1,377.5h7v7h-7V377.5z M980.1,384.8h7v7h-7V384.8z M972.8,392.1h7v7h-7V392.1z M972.8,399.3h7v7h-7V399.3z
	 M972.8,406.6h7v7h-7V406.6z M972.8,413.9h7v7h-7V413.9z M972.8,421.1h7v7h-7V421.1z M972.8,428.4h7v7h-7V428.4z M972.8,435.6h7v7
	h-7V435.6z M972.8,442.9h7v7h-7V442.9z M972.8,450.1h7v7h-7V450.1z M972.8,457.4h7v7h-7V457.4z M980.1,392.1h7v7h-7V392.1z
	 M980.1,399.3h7v7h-7V399.3z M980.1,406.6h7v7h-7V406.6z M980.1,413.9h7v7h-7V413.9z M980.1,421.1h7v7h-7V421.1z M980.1,428.4h7v7
	h-7V428.4z M980.1,435.6h7v7h-7V435.6z M980.1,442.9h7v7h-7V442.9z M980.1,450.1h7v7h-7V450.1z M980.1,457.4h7v7h-7V457.4z
	 M972.8,464.7h7v7h-7V464.7z M972.8,471.9h7v7h-7V471.9z M972.8,479.2h7v7h-7V479.2z M972.8,486.5h7v7h-7V486.5z M972.8,493.7h7v7
	h-7V493.7z M972.8,501h7v7h-7V501z M972.8,508.2h7v7h-7V508.2z M972.8,515.5h7v7h-7V515.5z M972.8,522.7h7v7h-7V522.7z M972.8,530h7
	v7h-7V530z M980.1,464.7h7v7h-7V464.7z M980.1,471.9h7v7h-7V471.9z M980.1,479.2h7v7h-7V479.2z M980.1,486.5h7v7h-7V486.5z
	 M980.1,493.7h7v7h-7V493.7z M980.1,501h7v7h-7V501z M980.1,508.2h7v7h-7V508.2z M980.1,515.5h7v7h-7V515.5z M980.1,522.7h7v7h-7
	V522.7z M980.1,530h7v7h-7V530z M972.8,537.3h7v7h-7V537.3z M972.8,544.5h7v7h-7V544.5z M972.8,551.8h7v7h-7V551.8z M972.8,559.1h7
	v7h-7V559.1z M972.8,566.3h7v7h-7V566.3z M972.8,573.6h7v7h-7V573.6z M972.8,580.8h7v7h-7V580.8z M972.8,588.1h7v7h-7V588.1z
	 M980.1,537.3h7v7h-7V537.3z M980.1,544.5h7v7h-7V544.5z M980.1,551.8h7v7h-7V551.8z M980.1,559.1h7v7h-7V559.1z M980.1,566.3h7v7
	h-7V566.3z M980.1,573.6h7v7h-7V573.6z M980.1,580.8h7v7h-7V580.8z M980.1,588.1h7v7h-7V588.1z M972.8,595.3h7v7h-7V595.3z
	 M980.1,595.3h7v7h-7V595.3z M972.8,602.6h7v7h-7V602.6z M972.8,609.8h7v7h-7V609.8z M972.8,617.1h7v7h-7V617.1z M972.8,624.4h7v7
	h-7V624.4z M972.8,631.6h7v7h-7V631.6z M972.8,638.9h7v7h-7V638.9z M972.8,646.1h7v7h-7V646.1z M972.8,653.4h7v7h-7V653.4z
	 M980.1,602.6h7v7h-7V602.6z M980.1,609.8h7v7h-7V609.8z M980.1,617.1h7v7h-7V617.1z M980.1,624.4h7v7h-7V624.4z M980.1,631.6h7v7
	h-7V631.6z M980.1,638.9h7v7h-7V638.9z M980.1,646.1h7v7h-7V646.1z M980.1,653.4h7v7h-7V653.4z M972.8,660.7h7v7h-7V660.7z
	 M980.1,660.7h7v7h-7V660.7z M972.8,668h7v7h-7V668z M972.8,675.2h7v7h-7V675.2z M972.8,682.5h7v7h-7V682.5z M972.8,689.8h7v7h-7
	V689.8z M972.8,697h7v7h-7V697z M972.8,704.3h7v7h-7V704.3z M972.8,711.5h7v7h-7V711.5z M972.8,718.8h7v7h-7V718.8z M980.1,668h7v7
	h-7V668z M980.1,675.2h7v7h-7V675.2z M980.1,682.5h7v7h-7V682.5z M980.1,689.8h7v7h-7V689.8z M980.1,697h7v7h-7V697z M980.1,704.3h7
	v7h-7V704.3z M980.1,711.5h7v7h-7V711.5z M980.1,718.8h7v7h-7V718.8z M972.8,726h7v7h-7V726z M980.1,726h7v7h-7V726z M943.8,769.6h7
	v7h-7V769.6z M943.8,776.8h7v7h-7V776.8z M951.1,769.6h7v7h-7V769.6z M951.1,776.8h7v7h-7V776.8z M958.3,769.6h7v7h-7V769.6z
	 M958.3,776.8h7v7h-7V776.8z M965.6,762.3h7v7h-7V762.3z M965.6,769.6h7v7h-7V769.6z M972.8,733.3h7v7h-7V733.3z M972.8,740.5h7v7
	h-7V740.5z M972.8,747.8h7v7h-7V747.8z M972.8,755.1h7v7h-7V755.1z M972.8,762.3h7v7h-7V762.3z M980.1,733.3h7v7h-7V733.3z
	 M980.1,740.5h7v7h-7V740.5z M980.1,747.8h7v7h-7V747.8z M980.1,755.1h7v7h-7V755.1z M14.5,805.9h7v7h-7V805.9z M21.8,813.2h7v7h-7
	V813.2z M617.1,805.9h7v7h-7V805.9z M617.1,813.2h7v7h-7V813.2z M624.4,805.9h7v7h-7V805.9z M624.4,813.2h7v7h-7V813.2z
	 M631.6,805.9h7v7h-7V805.9z M631.6,813.2h7v7h-7V813.2z M638.9,805.9h7v7h-7V805.9z M638.9,813.2h7v7h-7V813.2z M646.1,805.9h7v7
	h-7V805.9z M646.1,813.2h7v7h-7V813.2z M653.4,805.9h7v7h-7V805.9z M653.4,813.2h7v7h-7V813.2z M660.7,805.9h7v7h-7V805.9z
	 M660.7,813.2h7v7h-7V813.2z M667.9,805.9h7v7h-7V805.9z M667.9,813.2h7v7h-7V813.2z M675.2,805.9h7v7h-7V805.9z M682.5,805.9h7v7
	h-7V805.9z M689.7,805.9h7v7h-7V805.9z M675.2,813.2h7v7h-7V813.2z M682.5,813.2h7v7h-7V813.2z M697,805.9h7v7h-7V805.9z
	 M704.3,805.9h7v7h-7V805.9z M711.5,805.9h7v7h-7V805.9z M711.5,813.2h7v7h-7V813.2z M718.7,805.9h7v7h-7V805.9z M718.7,813.2h7v7
	h-7V813.2z M726,805.9h7v7h-7V805.9z M726,813.2h7v7h-7V813.2z M733.3,805.9h7v7h-7V805.9z M733.3,813.2h7v7h-7V813.2z M740.5,805.9
	h7v7h-7V805.9z M740.5,813.2h7v7h-7V813.2z M747.8,805.9h7v7h-7V805.9z M747.8,813.2h7v7h-7V813.2z M755,805.9h7v7h-7V805.9z
	 M755,813.2h7v7h-7V813.2z M762.3,805.9h7v7h-7V805.9z M769.6,805.9h7v7h-7V805.9z M776.8,805.9h7v7h-7V805.9z M762.3,813.2h7v7h-7
	V813.2z M784.1,805.9h7v7h-7V805.9z M784.1,813.2h7v7h-7V813.2z M791.3,805.9h7v7h-7V805.9z M791.3,813.2h7v7h-7V813.2z
	 M798.6,805.9h7v7h-7V805.9z M798.6,813.2h7v7h-7V813.2z M805.9,805.9h7v7h-7V805.9z M805.9,813.2h7v7h-7V813.2z M813.1,805.9h7v7
	h-7V805.9z M813.1,813.2h7v7h-7V813.2z M820.4,805.9h7v7h-7V805.9z M820.4,813.2h7v7h-7V813.2z M827.6,805.9h7v7h-7V805.9z
	 M827.6,813.2h7v7h-7V813.2z M834.9,805.9h7v7h-7V805.9z M834.9,813.2h7v7h-7V813.2z M842.2,805.9h7v7h-7V805.9z M842.2,813.2h7v7
	h-7V813.2z M849.4,805.9h7v7h-7V805.9z M849.4,813.2h7v7h-7V813.2z M856.7,805.9h7v7h-7V805.9z M856.7,813.2h7v7h-7V813.2z
	 M863.9,805.9h7v7h-7V805.9z M863.9,813.2h7v7h-7V813.2z M14.5,820.4h7v7h-7V820.4z M14.5,834.9h7v7h-7V834.9z M14.5,849.5h7v7h-7
	V849.5z M14.5,864h7v7h-7V864z M14.5,878.5h7v7h-7V878.5z M21.8,827.7h7v7h-7V827.7z M21.8,842.2h7v7h-7V842.2z M21.8,856.7h7v7h-7
	V856.7z M21.8,871.2h7v7h-7V871.2z M29,805.9h7v7h-7V805.9z M36.3,813.2h7v7h-7V813.2z M29,820.4h7v7h-7V820.4z M29,834.9h7v7h-7
	V834.9z M29,849.5h7v7h-7V849.5z M29,864h7v7h-7V864z M29,878.5h7v7h-7V878.5z M36.3,827.7h7v7h-7V827.7z M36.3,842.2h7v7h-7V842.2z
	 M36.3,856.7h7v7h-7V856.7z M36.3,871.2h7v7h-7V871.2z M43.5,805.9h7v7h-7V805.9z M50.8,813.2h7v7h-7V813.2z M43.5,820.4h7v7h-7
	V820.4z M43.5,834.9h7v7h-7V834.9z M43.5,849.5h7v7h-7V849.5z M43.5,864h7v7h-7V864z M43.5,878.5h7v7h-7V878.5z M50.8,827.7h7v7h-7
	V827.7z M50.8,842.2h7v7h-7V842.2z M50.8,856.7h7v7h-7V856.7z M50.8,871.2h7v7h-7V871.2z M58.1,805.9h7v7h-7V805.9z M65.4,813.2h7v7
	h-7V813.2z M58.1,820.4h7v7h-7V820.4z M58.1,834.9h7v7h-7V834.9z M58.1,849.5h7v7h-7V849.5z M58.1,864h7v7h-7V864z M58.1,878.5h7v7
	h-7V878.5z M65.4,827.7h7v7h-7V827.7z M65.4,842.2h7v7h-7V842.2z M65.4,856.7h7v7h-7V856.7z M65.4,871.2h7v7h-7V871.2z M72.6,805.9
	h7v7h-7V805.9z M79.9,813.2h7v7h-7V813.2z M72.6,820.4h7v7h-7V820.4z M72.6,834.9h7v7h-7V834.9z M72.6,849.5h7v7h-7V849.5z
	 M72.6,864h7v7h-7V864z M72.6,878.5h7v7h-7V878.5z M79.9,827.7h7v7h-7V827.7z M79.9,842.2h7v7h-7V842.2z M79.9,856.7h7v7h-7V856.7z
	 M79.9,871.2h7v7h-7V871.2z M87.1,805.9h7v7h-7V805.9z M94.4,813.2h7v7h-7V813.2z M87.1,820.4h7v7h-7V820.4z M87.1,834.9h7v7h-7
	V834.9z M87.1,849.5h7v7h-7V849.5z M87.1,864h7v7h-7V864z M87.1,878.5h7v7h-7V878.5z M94.4,827.7h7v7h-7V827.7z M94.4,842.2h7v7h-7
	V842.2z M94.4,856.7h7v7h-7V856.7z M94.4,871.2h7v7h-7V871.2z M101.6,805.9h7v7h-7V805.9z M108.9,813.2h7v7h-7V813.2z M101.6,820.4
	h7v7h-7V820.4z M101.6,834.9h7v7h-7V834.9z M101.6,849.5h7v7h-7V849.5z M101.6,864h7v7h-7V864z M101.6,878.5h7v7h-7V878.5z
	 M108.9,827.7h7v7h-7V827.7z M108.9,842.2h7v7h-7V842.2z M108.9,856.7h7v7h-7V856.7z M108.9,871.2h7v7h-7V871.2z M116.1,805.9h7v7
	h-7V805.9z M123.4,813.2h7v7h-7V813.2z M116.1,820.4h7v7h-7V820.4z M116.1,834.9h7v7h-7V834.9z M116.1,849.5h7v7h-7V849.5z
	 M116.1,864h7v7h-7V864z M116.1,878.5h7v7h-7V878.5z M123.4,827.7h7v7h-7V827.7z M123.4,842.2h7v7h-7V842.2z M123.4,856.7h7v7h-7
	V856.7z M123.4,871.2h7v7h-7V871.2z M130.7,805.9h7v7h-7V805.9z M138,813.2h7v7h-7V813.2z M130.7,820.4h7v7h-7V820.4z M130.7,834.9
	h7v7h-7V834.9z M130.7,849.5h7v7h-7V849.5z M130.7,864h7v7h-7V864z M130.7,878.5h7v7h-7V878.5z M138,827.7h7v7h-7V827.7z M138,842.2
	h7v7h-7V842.2z M138,856.7h7v7h-7V856.7z M138,871.2h7v7h-7V871.2z M145.2,805.9h7v7h-7V805.9z M152.5,813.2h7v7h-7V813.2z
	 M145.2,820.4h7v7h-7V820.4z M145.2,834.9h7v7h-7V834.9z M145.2,849.5h7v7h-7V849.5z M145.2,864h7v7h-7V864z M145.2,878.5h7v7h-7
	V878.5z M152.5,827.7h7v7h-7V827.7z M152.5,842.2h7v7h-7V842.2z M152.5,856.7h7v7h-7V856.7z M152.5,871.2h7v7h-7V871.2z
	 M159.7,805.9h7v7h-7V805.9z M167,813.2h7v7h-7V813.2z M159.7,820.4h7v7h-7V820.4z M159.7,834.9h7v7h-7V834.9z M159.7,849.5h7v7h-7
	V849.5z M159.7,864h7v7h-7V864z M159.7,878.5h7v7h-7V878.5z M167,827.7h7v7h-7V827.7z M167,842.2h7v7h-7V842.2z M167,856.7h7v7h-7
	V856.7z M167,871.2h7v7h-7V871.2z M174.2,805.9h7v7h-7V805.9z M181.5,813.2h7v7h-7V813.2z M174.2,820.4h7v7h-7V820.4z M174.2,834.9
	h7v7h-7V834.9z M174.2,849.5h7v7h-7V849.5z M174.2,864h7v7h-7V864z M174.2,878.5h7v7h-7V878.5z M181.5,827.7h7v7h-7V827.7z
	 M181.5,842.2h7v7h-7V842.2z M181.5,856.7h7v7h-7V856.7z M181.5,871.2h7v7h-7V871.2z M188.7,805.9h7v7h-7V805.9z M196,813.2h7v7h-7
	V813.2z M188.7,820.4h7v7h-7V820.4z M188.7,834.9h7v7h-7V834.9z M188.7,849.5h7v7h-7V849.5z M188.7,864h7v7h-7V864z M188.7,878.5h7
	v7h-7V878.5z M196,827.7h7v7h-7V827.7z M196,842.2h7v7h-7V842.2z M196,856.7h7v7h-7V856.7z M196,871.2h7v7h-7V871.2z M203.3,805.9h7
	v7h-7V805.9z M210.6,813.2h7v7h-7V813.2z M203.3,820.4h7v7h-7V820.4z M203.3,834.9h7v7h-7V834.9z M203.3,849.5h7v7h-7V849.5z
	 M203.3,864h7v7h-7V864z M203.3,878.5h7v7h-7V878.5z M210.6,827.7h7v7h-7V827.7z M210.6,842.2h7v7h-7V842.2z M210.6,856.7h7v7h-7
	V856.7z M210.6,871.2h7v7h-7V871.2z M217.8,805.9h7v7h-7V805.9z M225.1,813.2h7v7h-7V813.2z M217.8,820.4h7v7h-7V820.4z
	 M217.8,834.9h7v7h-7V834.9z M217.8,849.5h7v7h-7V849.5z M217.8,864h7v7h-7V864z M217.8,878.5h7v7h-7V878.5z M225.1,827.7h7v7h-7
	V827.7z M225.1,842.2h7v7h-7V842.2z M225.1,856.7h7v7h-7V856.7z M225.1,871.2h7v7h-7V871.2z M232.3,805.9h7v7h-7V805.9z
	 M239.6,813.2h7v7h-7V813.2z M232.3,820.4h7v7h-7V820.4z M232.3,834.9h7v7h-7V834.9z M232.3,849.5h7v7h-7V849.5z M232.3,864h7v7h-7
	V864z M232.3,878.5h7v7h-7V878.5z M239.6,827.7h7v7h-7V827.7z M239.6,842.2h7v7h-7V842.2z M239.6,856.7h7v7h-7V856.7z M239.6,871.2
	h7v7h-7V871.2z M246.8,805.9h7v7h-7V805.9z M254.1,813.2h7v7h-7V813.2z M246.8,820.4h7v7h-7V820.4z M246.8,834.9h7v7h-7V834.9z
	 M246.8,849.5h7v7h-7V849.5z M246.8,864h7v7h-7V864z M246.8,878.5h7v7h-7V878.5z M254.1,827.7h7v7h-7V827.7z M254.1,842.2h7v7h-7
	V842.2z M254.1,856.7h7v7h-7V856.7z M254.1,871.2h7v7h-7V871.2z M261.3,805.9h7v7h-7V805.9z M268.6,813.2h7v7h-7V813.2z
	 M261.3,820.4h7v7h-7V820.4z M261.3,834.9h7v7h-7V834.9z M261.3,849.5h7v7h-7V849.5z M261.3,864h7v7h-7V864z M261.3,878.5h7v7h-7
	V878.5z M268.6,827.7h7v7h-7V827.7z M268.6,842.2h7v7h-7V842.2z M268.6,856.7h7v7h-7V856.7z M268.6,871.2h7v7h-7V871.2z
	 M275.9,805.9h7v7h-7V805.9z M283.2,813.2h7v7h-7V813.2z M275.9,820.4h7v7h-7V820.4z M275.9,834.9h7v7h-7V834.9z M275.9,849.5h7v7
	h-7V849.5z M275.9,864h7v7h-7V864z M275.9,878.5h7v7h-7V878.5z M283.2,827.7h7v7h-7V827.7z M283.2,842.2h7v7h-7V842.2z M283.2,856.7
	h7v7h-7V856.7z M283.2,871.2h7v7h-7V871.2z M290.4,805.9h7v7h-7V805.9z M297.7,813.2h7v7h-7V813.2z M290.4,820.4h7v7h-7V820.4z
	 M290.4,834.9h7v7h-7V834.9z M290.4,849.5h7v7h-7V849.5z M290.4,864h7v7h-7V864z M290.4,878.5h7v7h-7V878.5z M297.7,827.7h7v7h-7
	V827.7z M297.7,842.2h7v7h-7V842.2z M297.7,856.7h7v7h-7V856.7z M297.7,871.2h7v7h-7V871.2z M304.9,805.9h7v7h-7V805.9z
	 M312.2,813.2h7v7h-7V813.2z M304.9,820.4h7v7h-7V820.4z M304.9,834.9h7v7h-7V834.9z M304.9,849.5h7v7h-7V849.5z M304.9,864h7v7h-7
	V864z M304.9,878.5h7v7h-7V878.5z M312.2,827.7h7v7h-7V827.7z M312.2,842.2h7v7h-7V842.2z M312.2,856.7h7v7h-7V856.7z M312.2,871.2
	h7v7h-7V871.2z M319.4,805.9h7v7h-7V805.9z M326.7,813.2h7v7h-7V813.2z M319.4,820.4h7v7h-7V820.4z M319.4,834.9h7v7h-7V834.9z
	 M319.4,849.5h7v7h-7V849.5z M319.4,864h7v7h-7V864z M319.4,878.5h7v7h-7V878.5z M326.7,827.7h7v7h-7V827.7z M326.7,842.2h7v7h-7
	V842.2z M326.7,856.7h7v7h-7V856.7z M326.7,871.2h7v7h-7V871.2z M333.9,805.9h7v7h-7V805.9z M341.2,813.2h7v7h-7V813.2z
	 M333.9,820.4h7v7h-7V820.4z M333.9,834.9h7v7h-7V834.9z M333.9,849.5h7v7h-7V849.5z M333.9,864h7v7h-7V864z M333.9,878.5h7v7h-7
	V878.5z M341.2,827.7h7v7h-7V827.7z M341.2,842.2h7v7h-7V842.2z M341.2,856.7h7v7h-7V856.7z M341.2,871.2h7v7h-7V871.2z
	 M348.5,805.9h7v7h-7V805.9z M355.8,813.2h7v7h-7V813.2z M348.5,820.4h7v7h-7V820.4z M348.5,834.9h7v7h-7V834.9z M348.5,849.5h7v7
	h-7V849.5z M348.5,864h7v7h-7V864z M348.5,878.5h7v7h-7V878.5z M355.8,827.7h7v7h-7V827.7z M355.8,842.2h7v7h-7V842.2z M355.8,856.7
	h7v7h-7V856.7z M355.8,871.2h7v7h-7V871.2z M363,805.9h7v7h-7V805.9z M370.3,813.2h7v7h-7V813.2z M363,820.4h7v7h-7V820.4z
	 M363,834.9h7v7h-7V834.9z M363,849.5h7v7h-7V849.5z M363,864h7v7h-7V864z M363,878.5h7v7h-7V878.5z M377.5,805.9h7v7h-7V805.9z
	 M377.5,820.4h7v7h-7V820.4z M377.5,834.9h7v7h-7V834.9z M377.5,849.5h7v7h-7V849.5z M377.5,864h7v7h-7V864z M377.5,878.5h7v7h-7
	V878.5z M370.3,827.7h7v7h-7V827.7z M370.3,842.2h7v7h-7V842.2z M370.3,856.7h7v7h-7V856.7z M370.3,871.2h7v7h-7V871.2z
	 M617.1,820.4h7v7h-7V820.4z M624.4,820.4h7v7h-7V820.4z M631.6,820.4h7v7h-7V820.4z M638.9,820.4h7v7h-7V820.4z M646.1,820.4h7v7
	h-7V820.4z M617.1,827.7h7v7h-7V827.7z M617.1,834.9h7v7h-7V834.9z M617.1,842.2h7v7h-7V842.2z M617.1,849.5h7v7h-7V849.5z
	 M617.1,856.7h7v7h-7V856.7z M617.1,864h7v7h-7V864z M617.1,871.2h7v7h-7V871.2z M617.1,878.5h7v7h-7V878.5z M624.4,827.7h7v7h-7
	V827.7z M624.4,834.9h7v7h-7V834.9z M624.4,842.2h7v7h-7V842.2z M624.4,849.5h7v7h-7V849.5z M624.4,856.7h7v7h-7V856.7z M624.4,864
	h7v7h-7V864z M624.4,871.2h7v7h-7V871.2z M624.4,878.5h7v7h-7V878.5z M631.6,827.7h7v7h-7V827.7z M631.6,834.9h7v7h-7V834.9z
	 M631.6,842.2h7v7h-7V842.2z M631.6,849.5h7v7h-7V849.5z M631.6,856.7h7v7h-7V856.7z M631.6,864h7v7h-7V864z M631.6,871.2h7v7h-7
	V871.2z M631.6,878.5h7v7h-7V878.5z M638.9,827.7h7v7h-7V827.7z M638.9,834.9h7v7h-7V834.9z M638.9,842.2h7v7h-7V842.2z
	 M638.9,849.5h7v7h-7V849.5z M638.9,856.7h7v7h-7V856.7z M638.9,864h7v7h-7V864z M638.9,871.2h7v7h-7V871.2z M638.9,878.5h7v7h-7
	V878.5z M646.1,827.7h7v7h-7V827.7z M646.1,834.9h7v7h-7V834.9z M646.1,842.2h7v7h-7V842.2z M646.1,849.5h7v7h-7V849.5z
	 M646.1,856.7h7v7h-7V856.7z M646.1,864h7v7h-7V864z M646.1,871.2h7v7h-7V871.2z M646.1,878.5h7v7h-7V878.5z M653.4,820.4h7v7h-7
	V820.4z M660.7,820.4h7v7h-7V820.4z M667.9,820.4h7v7h-7V820.4z M675.2,820.4h7v7h-7V820.4z M697,820.4h7v7h-7V820.4z M718.7,820.4
	h7v7h-7V820.4z M653.4,827.7h7v7h-7V827.7z M653.4,834.9h7v7h-7V834.9z M653.4,842.2h7v7h-7V842.2z M653.4,849.5h7v7h-7V849.5z
	 M653.4,856.7h7v7h-7V856.7z M653.4,864h7v7h-7V864z M653.4,871.2h7v7h-7V871.2z M653.4,878.5h7v7h-7V878.5z M660.7,827.7h7v7h-7
	V827.7z M660.7,834.9h7v7h-7V834.9z M660.7,842.2h7v7h-7V842.2z M660.7,849.5h7v7h-7V849.5z M660.7,856.7h7v7h-7V856.7z M660.7,864
	h7v7h-7V864z M660.7,871.2h7v7h-7V871.2z M660.7,878.5h7v7h-7V878.5z M667.9,827.7h7v7h-7V827.7z M667.9,834.9h7v7h-7V834.9z
	 M667.9,842.2h7v7h-7V842.2z M667.9,849.5h7v7h-7V849.5z M667.9,856.7h7v7h-7V856.7z M667.9,864h7v7h-7V864z M667.9,871.2h7v7h-7
	V871.2z M667.9,878.5h7v7h-7V878.5z M675.2,827.7h7v7h-7V827.7z M675.2,834.9h7v7h-7V834.9z M675.2,842.2h7v7h-7V842.2z
	 M675.2,849.5h7v7h-7V849.5z M675.2,856.7h7v7h-7V856.7z M675.2,864h7v7h-7V864z M675.2,871.2h7v7h-7V871.2z M675.2,878.5h7v7h-7
	V878.5z M696.9,834.9h7v7h-7V834.9z M704.2,834.9h7v7h-7V834.9z M682.4,842.2h7v7h-7V842.2z M711.5,842.2h7v7h-7V842.2z
	 M682.4,849.5h7v7h-7V849.5z M682.4,856.7h7v7h-7V856.7z M682.4,871.2h7v7h-7V871.2z M682.4,878.5h7v7h-7V878.5z M689.7,849.5h7v7
	h-7V849.5z M689.7,856.7h7v7h-7V856.7z M689.7,878.5h7v7h-7V878.5z M697,827.7h7v7h-7V827.7z M697,849.5h7v7h-7V849.5z M697,856.7h7
	v7h-7V856.7z M697,864h7v7h-7V864z M697,878.5h7v7h-7V878.5z M704.2,827.7h7v7h-7V827.7z M704.2,878.5h7v7h-7V878.5z M711.5,827.7h7
	v7h-7V827.7z M711.5,834.9h7v7h-7V834.9z M711.5,871.2h7v7h-7V871.2z M711.5,878.5h7v7h-7V878.5z M718.7,827.7h7v7h-7V827.7z
	 M718.7,834.9h7v7h-7V834.9z M718.7,842.2h7v7h-7V842.2z M718.7,849.5h7v7h-7V849.5z M718.7,856.7h7v7h-7V856.7z M718.7,864h7v7h-7
	V864z M718.7,871.2h7v7h-7V871.2z M718.7,878.5h7v7h-7V878.5z M726,820.4h7v7h-7V820.4z M733.3,820.4h7v7h-7V820.4z M740.5,820.4h7
	v7h-7V820.4z M747.8,820.4h7v7h-7V820.4z M755,820.4h7v7h-7V820.4z M762.3,820.4h7v7h-7V820.4z M784.1,820.4h7v7h-7V820.4z
	 M791.3,820.4h7v7h-7V820.4z M726,827.7h7v7h-7V827.7z M726,871.2h7v7h-7V871.2z M726,878.5h7v7h-7V878.5z M733.3,878.5h7v7h-7
	V878.5z M740.5,834.9h7v7h-7V834.9z M740.5,842.2h7v7h-7V842.2z M740.5,856.7h7v7h-7V856.7z M740.5,864h7v7h-7V864z M740.5,878.5h7
	v7h-7V878.5z M747.8,856.7h7v7h-7V856.7z M747.8,878.5h7v7h-7V878.5z M755,827.7h7v7h-7V827.7z M755,849.5h7v7h-7V849.5z M755,856.7
	h7v7h-7V856.7z M755,871.2h7v7h-7V871.2z M755,878.5h7v7h-7V878.5z M762.3,827.7h7v7h-7V827.7z M762.3,834.9h7v7h-7V834.9z
	 M762.3,842.2h7v7h-7V842.2z M762.3,849.5h7v7h-7V849.5z M762.3,856.7h7v7h-7V856.7z M762.3,864h7v7h-7V864z M762.3,871.2h7v7h-7
	V871.2z M762.3,878.5h7v7h-7V878.5z M769.6,878.5h7v7h-7V878.5z M776.8,878.5h7v7h-7V878.5z M784.1,827.7h7v7h-7V827.7z
	 M784.1,834.9h7v7h-7V834.9z M784.1,842.2h7v7h-7V842.2z M784.1,849.5h7v7h-7V849.5z M784.1,856.7h7v7h-7V856.7z M784.1,864h7v7h-7
	V864z M784.1,871.2h7v7h-7V871.2z M784.1,878.5h7v7h-7V878.5z M791.3,827.7h7v7h-7V827.7z M791.3,871.2h7v7h-7V871.2z M791.3,878.5
	h7v7h-7V878.5z M798.6,820.4h7v7h-7V820.4z M805.9,820.4h7v7h-7V820.4z M813.1,820.4h7v7h-7V820.4z M820.4,820.4h7v7h-7V820.4z
	 M827.6,820.4h7v7h-7V820.4z M834.9,820.4h7v7h-7V820.4z M842.2,820.4h7v7h-7V820.4z M849.4,820.4h7v7h-7V820.4z M856.7,820.4h7v7
	h-7V820.4z M863.9,820.4h7v7h-7V820.4z M798.6,878.5h7v7h-7V878.5z M805.9,834.9h7v7h-7V834.9z M805.9,842.2h7v7h-7V842.2z
	 M805.9,856.7h7v7h-7V856.7z M805.9,864h7v7h-7V864z M805.9,878.5h7v7h-7V878.5z M813.1,856.7h7v7h-7V856.7z M813.1,878.5h7v7h-7
	V878.5z M820.4,827.7h7v7h-7V827.7z M820.4,849.5h7v7h-7V849.5z M820.4,856.7h7v7h-7V856.7z M820.4,871.2h7v7h-7V871.2z
	 M820.4,878.5h7v7h-7V878.5z M827.6,827.7h7v7h-7V827.7z M827.6,834.9h7v7h-7V834.9z M827.6,842.2h7v7h-7V842.2z M827.6,849.5h7v7
	h-7V849.5z M827.6,856.7h7v7h-7V856.7z M827.6,864h7v7h-7V864z M827.6,871.2h7v7h-7V871.2z M827.6,878.5h7v7h-7V878.5z M834.9,827.7
	h7v7h-7V827.7z M834.9,871.2h7v7h-7V871.2z M834.9,878.5h7v7h-7V878.5z M842.2,878.5h7v7h-7V878.5z M849.4,834.9h7v7h-7V834.9z
	 M849.4,842.2h7v7h-7V842.2z M849.4,849.5h7v7h-7V849.5z M849.4,856.7h7v7h-7V856.7z M849.4,864h7v7h-7V864z M849.4,878.5h7v7h-7
	V878.5z M856.7,842.2h7v7h-7V842.2z M856.7,849.5h7v7h-7V849.5z M856.7,856.7h7v7h-7V856.7z M856.7,878.5h7v7h-7V878.5z
	 M863.9,827.7h7v7h-7V827.7z M863.9,842.2h7v7h-7V842.2z M863.9,849.5h7v7h-7V849.5z M863.9,856.7h7v7h-7V856.7z M863.9,871.2h7v7
	h-7V871.2z M863.9,878.5h7v7h-7V878.5z M871.2,805.9h7v7h-7V805.9z M871.2,813.2h7v7h-7V813.2z M878.5,805.9h7v7h-7V805.9z
	 M878.5,813.2h7v7h-7V813.2z M885.7,805.9h7v7h-7V805.9z M885.7,813.2h7v7h-7V813.2z M893,805.9h7v7h-7V805.9z M900.2,805.9h7v7h-7
	V805.9z M900.2,813.2h7v7h-7V813.2z M907.5,805.9h7v7h-7V805.9z M907.5,813.2h7v7h-7V813.2z M914.8,805.9h7v7h-7V805.9z
	 M914.8,813.2h7v7h-7V813.2z M922,805.9h7v7h-7V805.9z M922,813.2h7v7h-7V813.2z M929.3,805.9h7v7h-7V805.9z M929.3,813.2h7v7h-7
	V813.2z M936.5,805.9h7v7h-7V805.9z M936.5,813.2h7v7h-7V813.2z M871.2,820.4h7v7h-7V820.4z M878.5,820.4h7v7h-7V820.4z
	 M900.2,820.4h7v7h-7V820.4z M907.5,820.4h7v7h-7V820.4z M914.8,820.4h7v7h-7V820.4z M922,820.4h7v7h-7V820.4z M929.3,820.4h7v7h-7
	V820.4z M936.5,820.4h7v7h-7V820.4z M871.2,827.7h7v7h-7V827.7z M871.2,834.9h7v7h-7V834.9z M871.2,842.2h7v7h-7V842.2z
	 M871.2,849.5h7v7h-7V849.5z M871.2,856.7h7v7h-7V856.7z M871.2,864h7v7h-7V864z M871.2,871.2h7v7h-7V871.2z M871.2,878.5h7v7h-7
	V878.5z M878.5,834.9h7v7h-7V834.9z M878.5,842.2h7v7h-7V842.2z M878.5,849.5h7v7h-7V849.5z M878.5,856.7h7v7h-7V856.7z M878.5,864
	h7v7h-7V864z M878.5,871.2h7v7h-7V871.2z M878.5,878.5h7v7h-7V878.5z M885.7,871.2h7v7h-7V871.2z M885.7,878.5h7v7h-7V878.5z
	 M893,878.5h7v7h-7V878.5z M900.2,834.9h7v7h-7V834.9z M900.2,842.2h7v7h-7V842.2z M900.2,849.5h7v7h-7V849.5z M900.2,856.7h7v7h-7
	V856.7z M900.2,878.5h7v7h-7V878.5z M907.5,827.7h7v7h-7V827.7z M907.5,834.9h7v7h-7V834.9z M907.5,842.2h7v7h-7V842.2z
	 M907.5,849.5h7v7h-7V849.5z M907.5,856.7h7v7h-7V856.7z M907.5,864h7v7h-7V864z M907.5,871.2h7v7h-7V871.2z M907.5,878.5h7v7h-7
	V878.5z M914.8,827.7h7v7h-7V827.7z M914.8,834.9h7v7h-7V834.9z M914.8,842.2h7v7h-7V842.2z M914.8,849.5h7v7h-7V849.5z
	 M914.8,856.7h7v7h-7V856.7z M914.8,864h7v7h-7V864z M914.8,871.2h7v7h-7V871.2z M914.8,878.5h7v7h-7V878.5z M922,827.7h7v7h-7
	V827.7z M922,834.9h7v7h-7V834.9z M922,842.2h7v7h-7V842.2z M922,849.5h7v7h-7V849.5z M922,856.7h7v7h-7V856.7z M922,864h7v7h-7V864
	z M922,871.2h7v7h-7V871.2z M922,878.5h7v7h-7V878.5z M929.3,827.7h7v7h-7V827.7z M929.3,834.9h7v7h-7V834.9z M929.3,842.2h7v7h-7
	V842.2z M929.3,849.5h7v7h-7V849.5z M929.3,856.7h7v7h-7V856.7z M929.3,864h7v7h-7V864z M929.3,871.2h7v7h-7V871.2z M929.3,878.5h7
	v7h-7V878.5z M936.5,827.7h7v7h-7V827.7z M936.5,834.9h7v7h-7V834.9z M936.5,842.2h7v7h-7V842.2z M936.5,849.5h7v7h-7V849.5z
	 M936.5,856.7h7v7h-7V856.7z M936.5,864h7v7h-7V864z M936.5,871.2h7v7h-7V871.2z M936.5,878.5h7v7h-7V878.5z M943.8,805.9h7v7h-7
	V805.9z M943.8,813.2h7v7h-7V813.2z M951.1,805.9h7v7h-7V805.9z M951.1,813.2h7v7h-7V813.2z M958.3,805.9h7v7h-7V805.9z
	 M958.3,813.2h7v7h-7V813.2z M965.6,805.9h7v7h-7V805.9z M965.6,813.2h7v7h-7V813.2z M972.8,805.9h7v7h-7V805.9z M972.8,813.2h7v7
	h-7V813.2z M980.1,805.9h7v7h-7V805.9z M980.1,813.2h7v7h-7V813.2z M943.8,820.4h7v7h-7V820.4z M951.1,820.4h7v7h-7V820.4z
	 M958.3,820.4h7v7h-7V820.4z M965.6,820.4h7v7h-7V820.4z M972.8,820.4h7v7h-7V820.4z M980.1,820.4h7v7h-7V820.4z M943.8,827.7h7v7
	h-7V827.7z M943.8,834.9h7v7h-7V834.9z M943.8,842.2h7v7h-7V842.2z M943.8,849.5h7v7h-7V849.5z M943.8,856.7h7v7h-7V856.7z
	 M943.8,864h7v7h-7V864z M943.8,871.2h7v7h-7V871.2z M943.8,878.5h7v7h-7V878.5z M951.1,827.7h7v7h-7V827.7z M951.1,834.9h7v7h-7
	V834.9z M951.1,842.2h7v7h-7V842.2z M951.1,849.5h7v7h-7V849.5z M951.1,856.7h7v7h-7V856.7z M951.1,864h7v7h-7V864z M951.1,871.2h7
	v7h-7V871.2z M951.1,878.5h7v7h-7V878.5z M958.3,827.7h7v7h-7V827.7z M958.3,834.9h7v7h-7V834.9z M958.3,842.2h7v7h-7V842.2z
	 M958.3,849.5h7v7h-7V849.5z M958.3,856.7h7v7h-7V856.7z M958.3,864h7v7h-7V864z M958.3,871.2h7v7h-7V871.2z M958.3,878.5h7v7h-7
	V878.5z M965.6,827.7h7v7h-7V827.7z M965.6,834.9h7v7h-7V834.9z M965.6,842.2h7v7h-7V842.2z M965.6,849.5h7v7h-7V849.5z
	 M965.6,856.7h7v7h-7V856.7z M965.6,864h7v7h-7V864z M965.6,871.2h7v7h-7V871.2z M965.6,878.5h7v7h-7V878.5z M972.8,827.7h7v7h-7
	V827.7z M972.8,834.9h7v7h-7V834.9z M972.8,842.2h7v7h-7V842.2z M972.8,849.5h7v7h-7V849.5z M972.8,856.7h7v7h-7V856.7z M972.8,864
	h7v7h-7V864z M972.8,871.2h7v7h-7V871.2z M972.8,878.5h7v7h-7V878.5z M980.1,827.7h7v7h-7V827.7z M980.1,834.9h7v7h-7V834.9z
	 M980.1,842.2h7v7h-7V842.2z M980.1,849.5h7v7h-7V849.5z M980.1,856.7h7v7h-7V856.7z M980.1,864h7v7h-7V864z M980.1,871.2h7v7h-7
	V871.2z M980.1,878.5h7v7h-7V878.5z"/>
</svg>
