<?xml version="1.0" encoding="utf-8"?>
<!-- Generator: Adobe Illustrator 27.3.1, SVG Export Plug-In . SVG Version: 6.00 Build 0)  -->
<svg version="1.1" id="Слой_1" xmlns="http://www.w3.org/2000/svg" xmlns:xlink="http://www.w3.org/1999/xlink" x="0px" y="0px"
	 viewBox="0 0 108.7 116" style="enable-background:new 0 0 108.7 116;" xml:space="preserve">
<style type="text/css">
	.st0{fill:#1E0E01;}
</style>
<path class="st0" d="M101.7,72.6h7v7h-7V72.6z M101.7,65.3h7v7h-7V65.3z M101.7,36.3h7v7h-7V36.3z M101.7,43.5h7v7h-7V43.5z
	 M101.7,29h7v7h-7V29z M94.4,79.8h7v7h-7V79.8z M94.4,72.6h7v7h-7V72.6z M94.4,65.3h7v7h-7V65.3z M94.4,36.3h7v7h-7V36.3z M94.4,29
	h7v7h-7V29z M87.2,87.1h7v7h-7V87.1z M87.2,79.8h7v7h-7V79.8z M87.2,72.6h7v7h-7V72.6z M87.2,58h7v7h-7V58z M87.2,50.8h7v7h-7V50.8z
	 M87.2,29h7v7h-7V29z M87.2,21.7h7v7h-7V21.7z M79.9,108.9h7v7h-7V108.9z M79.9,101.6h7v7h-7V101.6z M79.9,94.4h7v7h-7V94.4z
	 M79.9,87.1h7v7h-7V87.1z M79.9,79.8h7v7h-7V79.8z M79.9,65.3h7v7h-7V65.3z M79.9,43.5h7v7h-7V43.5z M79.9,29h7v7h-7V29z M79.9,21.7
	h7v7h-7V21.7z M79.9,14.5h7v7h-7V14.5z M72.7,108.9h7v7h-7V108.9z M72.7,101.6h7v7h-7V101.6z M72.7,94.4h7v7h-7V94.4z M72.7,72.6h7
	v7h-7V72.6z M72.7,36.3h7v7h-7V36.3z M72.7,21.7h7v7h-7V21.7z M72.7,14.5h7v7h-7V14.5z M72.6,7.2h7v7h-7V7.2z M72.6,0h7v7h-7V0z
	 M65.4,87.1h7v7h-7V87.1z M65.4,79.8h7v7h-7V79.8z M65.3,7.2h7v7h-7V7.2z M65.4,29h7v7h-7V29z M65.4,36.2h7v7h-7V36.2z M65.3,0h7v7
	h-7V0z M58.1,94.4h7v7h-7V94.4z M58.1,29h7v7h-7V29z M58.1,21.7h7v7h-7V21.7z M58.1,14.5h7v7h-7V14.5z M50.9,94.4h7v7h-7V94.4z
	 M50.9,14.5h7v7h-7V14.5z M43.6,94.4h7v7h-7V94.4z M43.6,87.1h7v7h-7V87.1z M43.6,79.8h7v7h-7V79.8z M43.6,14.5h7v7h-7V14.5z
	 M36.4,108.9h7v7h-7V108.9z M36.4,101.6h7v7h-7V101.6z M36.4,79.8h7v7h-7V79.8z M36.4,72.6h7v7h-7V72.6z M36.4,29h7v7h-7V29z
	 M36.4,21.8h7v7h-7V21.8z M29.1,108.9h7v7h-7V108.9z M29.1,101.6h7v7h-7V101.6z M29.1,94.4h7v7h-7V94.4z M29.1,87.1h7v7h-7V87.1z
	 M29.1,72.6h7v7h-7V72.6z M29.1,36.3h7v7h-7V36.3z M29.1,21.7h7v7h-7V21.7z M29.1,14.5h7v7h-7V14.5z M29,7.2h7v7h-7V7.2z M29,0h7v7
	h-7V0z M21.8,7.2h7v7h-7V7.2z M21.8,0h7v7h-7V0z M21.8,94.4h7v7h-7V94.4z M21.8,87.1h7v7h-7V87.1z M21.8,79.8h7v7h-7V79.8z
	 M21.8,65.3h7v7h-7V65.3z M21.8,43.5h7v7h-7V43.5z M21.8,29h7v7h-7V29z M21.8,21.7h7v7h-7V21.7z M21.8,14.5h7v7h-7V14.5z M14.6,87.1
	h7v7h-7V87.1z M14.6,79.8h7v7h-7V79.8z M14.6,72.6h7v7h-7V72.6z M14.6,58h7v7h-7V58z M14.6,50.8h7v7h-7V50.8z M14.6,36.3h7v7h-7
	V36.3z M14.6,29h7v7h-7V29z M14.6,21.7h7v7h-7V21.7z M7.3,79.8h7v7h-7V79.8z M7.3,72.6h7v7h-7V72.6z M7.3,36.3h7v7h-7V36.3z M7.3,29
	h7v7h-7V29z M0,79.8h7v7H0V79.8z M0,72.6h7v7H0V72.6z M0,65.3h7v7H0V65.3z M0,36.3h7v7H0V36.3z M7.3,43.6h7v7h-7V43.6z M0,43.6h7v7
	H0V43.6z M0,29h7v7H0V29z"/>
</svg>
