<?xml version="1.0" encoding="utf-8"?>
<!-- Generator: Adobe Illustrator 27.3.1, SVG Export Plug-In . SVG Version: 6.00 Build 0)  -->
<svg version="1.1" id="Слой_1" xmlns="http://www.w3.org/2000/svg" xmlns:xlink="http://www.w3.org/1999/xlink" x="0px" y="0px"
	 viewBox="0 0 108.7 116" style="enable-background:new 0 0 108.7 116;" xml:space="preserve">
<style type="text/css">
	.st0{fill:#1E0E01;}
</style>
<path class="st0" d="M0,14.5h7v7H0V14.5z M0,21.8h7v7H0V21.8z M0,29.1h7v7H0V29.1z M0,79.9h7v7H0V79.9z M0,87.2h7v7H0V87.2z M0,94.4
	h7v7H0V94.4z M7.3,7.3h7v7h-7V7.3z M7.3,79.9h7v7h-7V79.9z M7.3,101.7h7v7h-7V101.7z M14.5,7.3h7v7h-7V7.3z M14.5,21.8h7v7h-7V21.8z
	 M14.5,29.1h7v7h-7V29.1z M14.5,50.9h7v7h-7V50.9z M14.5,79.9h7v7h-7V79.9z M14.5,87.2h7v7h-7V87.2z M14.5,101.7h7v7h-7V101.7z
	 M21.8,0h7v7h-7V0z M21.8,14.5h7v7h-7V14.5z M21.8,21.8h7v7h-7V21.8z M21.8,29.1h7v7h-7V29.1z M21.8,36.3h7v7h-7V36.3z M21.8,79.9h7
	v7h-7V79.9z M21.8,87.2h7v7h-7V87.2z M21.8,94.4h7v7h-7V94.4z M21.8,108.9h7v7h-7V108.9z M29,0h7v7h-7V0z M29,14.5h7v7h-7V14.5z
	 M29,21.8h7v7h-7V21.8z M29,29.1h7v7h-7V29.1z M29,36.3h7v7h-7V36.3z M29,72.6h7v7h-7V72.6z M29,79.9h7v7h-7V79.9z M29,108.9h7v7h-7
	V108.9z M65.3,21.8h7v7h-7V21.8z M65.3,29.1h7v7h-7V29.1z M65.3,36.3h7v7h-7V36.3z M65.3,65.4h7v7h-7V65.4z M72.6,0h7v7h-7V0z
	 M72.6,14.5h7v7h-7V14.5z M72.6,21.8h7v7h-7V21.8z M72.6,29.1h7v7h-7V29.1z M72.6,79.9h7v7h-7V79.9z M72.6,87.2h7v7h-7V87.2z
	 M72.6,94.4h7v7h-7V94.4z M72.6,108.9h7v7h-7V108.9z M79.9,0h7v7h-7V0z M79.9,21.8h7v7h-7V21.8z M79.9,29.1h7v7h-7V29.1z M79.9,79.9
	h7v7h-7V79.9z M79.9,87.2h7v7h-7V87.2z M79.9,94.4h7v7h-7V94.4z M79.9,108.9h7v7h-7V108.9z M87.1,7.3h7v7h-7V7.3z M87.1,29.1h7v7h-7
	V29.1z M87.1,108.9h7v7h-7V108.9z M94.4,14.5h7v7h-7V14.5z M94.4,21.8h7v7h-7V21.8z M94.4,79.9h7v7h-7V79.9z M94.4,87.2h7v7h-7V87.2
	z M94.4,94.4h7v7h-7V94.4z M94.4,101.7h7v7h-7V101.7z M94.4,108.9h7v7h-7V108.9z M101.7,29.1h7v7h-7V29.1z"/>
</svg>
