<?xml version="1.0" encoding="utf-8"?>
<!-- Generator: Adobe Illustrator 27.3.1, SVG Export Plug-In . SVG Version: 6.00 Build 0)  -->
<svg version="1.1" id="Слой_1" xmlns="http://www.w3.org/2000/svg" xmlns:xlink="http://www.w3.org/1999/xlink" x="0px" y="0px"
	 viewBox="0 0 210 64" style="enable-background:new 0 0 210 64;" xml:space="preserve">
<style type="text/css">
	.st0{fill:#1E0E01;}
</style>
<path class="st0" d="M0.9,7.8h7v7h-7V7.8z M0.9,15h7v7h-7V15z M0.9,22.3h7v7h-7V22.3z M0.9,29.5h7v7h-7V29.5z M0.9,36.8h7v7h-7V36.8
	z M0.9,44.1h7v7h-7V44.1z M0.9,51.3h7v7h-7V51.3z M8.1,7.8h7v7h-7V7.8z M8.1,15h7v7h-7V15z M8.1,22.3h7v7h-7V22.3z M8.1,29.5h7v7h-7
	V29.5z M8.1,36.8h7v7h-7V36.8z M8.1,44.1h7v7h-7V44.1z M8.1,51.3h7v7h-7V51.3z M15.4,7.8h7v7h-7V7.8z M15.4,15h7v7h-7V15z
	 M15.4,22.3h7v7h-7V22.3z M15.4,29.5h7v7h-7V29.5z M15.4,36.8h7v7h-7V36.8z M15.4,44.1h7v7h-7V44.1z M15.4,51.3h7v7h-7V51.3z
	 M22.6,7.8h7v7h-7V7.8z M22.6,15h7v7h-7V15z M22.6,22.3h7v7h-7V22.3z M22.6,29.5h7v7h-7V29.5z M22.6,36.8h7v7h-7V36.8z M22.6,44.1h7
	v7h-7V44.1z M22.6,51.3h7v7h-7V51.3z M29.9,7.8h7v7h-7V7.8z M29.9,15h7v7h-7V15z M29.9,22.3h7v7h-7V22.3z M29.9,29.5h7v7h-7V29.5z
	 M29.9,36.8h7v7h-7V36.8z M29.9,44.1h7v7h-7V44.1z M29.9,51.3h7v7h-7V51.3z M37.2,15h7v7h-7V15z M37.2,22.3h7v7h-7V22.3z M37.2,29.5
	h7v7h-7V29.5z M37.2,36.8h7v7h-7V36.8z M37.2,44.1h7v7h-7V44.1z M44.4,7.8h7v7h-7V7.8z M44.4,22.3h7v7h-7V22.3z M44.4,29.5h7v7h-7
	V29.5z M44.4,36.8h7v7h-7V36.8z M44.4,51.3h7v7h-7V51.3z M51.7,7.8h7v7h-7V7.8z M51.7,15h7v7h-7V15z M51.7,29.5h7v7h-7V29.5z
	 M51.7,44.1h7v7h-7V44.1z M51.7,51.3h7v7h-7V51.3z M58.9,7.8h7v7h-7V7.8z M58.9,15h7v7h-7V15z M58.9,22.3h7v7h-7V22.3z M58.9,36.8h7
	v7h-7V36.8z M58.9,44.1h7v7h-7V44.1z M58.9,51.3h7v7h-7V51.3z M66.2,7.8h7v7h-7V7.8z M66.2,15h7v7h-7V15z M66.2,22.3h7v7h-7V22.3z
	 M66.2,29.5h7v7h-7V29.5z M66.2,36.8h7v7h-7V36.8z M66.2,44.1h7v7h-7V44.1z M66.2,51.3h7v7h-7V51.3z M73.5,15h7v7h-7V15z M73.5,22.3
	h7v7h-7V22.3z M73.5,29.5h7v7h-7V29.5z M73.5,36.8h7v7h-7V36.8z M73.5,44.1h7v7h-7V44.1z M80.7,7.8h7v7h-7V7.8z M80.7,22.3h7v7h-7
	V22.3z M80.7,29.5h7v7h-7V29.5z M80.7,36.8h7v7h-7V36.8z M80.7,51.3h7v7h-7V51.3z M88,7.8h7v7h-7V7.8z M88,15h7v7h-7V15z M88,29.5h7
	v7h-7V29.5z M88,44.1h7v7h-7V44.1z M88,51.3h7v7h-7V51.3z M95.2,7.8h7v7h-7V7.8z M95.2,15h7v7h-7V15z M95.2,22.3h7v7h-7V22.3z
	 M95.2,36.8h7v7h-7V36.8z M95.2,44.1h7v7h-7V44.1z M95.2,51.3h7v7h-7V51.3z M102.5,7.8h7v7h-7V7.8z M102.5,15h7v7h-7V15z
	 M102.5,22.3h7v7h-7V22.3z M102.5,29.5h7v7h-7V29.5z M102.5,36.8h7v7h-7V36.8z M102.5,44.1h7v7h-7V44.1z M102.5,51.3h7v7h-7V51.3z
	 M109.8,15h7v7h-7V15z M109.8,22.3h7v7h-7V22.3z M109.8,29.5h7v7h-7V29.5z M109.8,36.8h7v7h-7V36.8z M109.8,44.1h7v7h-7V44.1z
	 M117,7.8h7v7h-7V7.8z M117,22.3h7v7h-7V22.3z M117,29.5h7v7h-7V29.5z M117,36.8h7v7h-7V36.8z M117,51.3h7v7h-7V51.3z M124.3,7.8h7
	v7h-7V7.8z M124.3,15h7v7h-7V15z M124.3,29.5h7v7h-7V29.5z M124.3,44.1h7v7h-7V44.1z M124.3,51.3h7v7h-7V51.3z M131.5,7.8h7v7h-7
	V7.8z M131.5,15h7v7h-7V15z M131.5,22.3h7v7h-7V22.3z M131.5,36.8h7v7h-7V36.8z M131.5,44.1h7v7h-7V44.1z M131.5,51.3h7v7h-7V51.3z
	 M138.8,7.8h7v7h-7V7.8z M138.8,15h7v7h-7V15z M138.8,22.3h7v7h-7V22.3z M138.8,29.5h7v7h-7V29.5z M138.8,36.8h7v7h-7V36.8z
	 M138.8,44.1h7v7h-7V44.1z M138.8,51.3h7v7h-7V51.3z M146.1,15h7v7h-7V15z M146.1,22.3h7v7h-7V22.3z M146.1,29.5h7v7h-7V29.5z
	 M146.1,36.8h7v7h-7V36.8z M146.1,44.1h7v7h-7V44.1z M153.3,22.3h7v7h-7V22.3z M153.3,29.5h7v7h-7V29.5z M153.3,36.8h7v7h-7V36.8z
	 M160.6,29.5h7v7h-7V29.5z M189.6,22.3h7v7h-7V22.3z M189.6,36.8h7v7h-7V36.8z M196.9,29.5h7v7h-7V29.5z"/>
</svg>
