<?xml version="1.0" encoding="utf-8"?>
<!-- Generator: Adobe Illustrator 27.3.1, SVG Export Plug-In . SVG Version: 6.00 Build 0)  -->
<svg version="1.1" id="Слой_1" xmlns="http://www.w3.org/2000/svg" xmlns:xlink="http://www.w3.org/1999/xlink" x="0px" y="0px"
	 viewBox="0 0 348.2 79.5" style="enable-background:new 0 0 348.2 79.5;" xml:space="preserve">
<style type="text/css">
	.st0{fill:#1E0E01;}
</style>
<path class="st0" d="M0.1,0h7v7h-7V0z M0.1,7.3h7v7h-7V7.3z M0.1,14.5h7v7h-7V14.5z M0.1,21.8h7v7h-7V21.8z M0.1,29h7v7h-7V29z
	 M0.1,36.3h7v7h-7V36.3z M0.1,43.6h7v7h-7V43.6z M0.1,50.8h7v7h-7V50.8z M0.1,58.1h7v7h-7V58.1z M0.1,65.3h7v7h-7V65.3z M0.1,72.6h7
	v7h-7V72.6z M7.4,0h7v7h-7V0z M7.4,7.3h7v7h-7V7.3z M7.4,14.5h7v7h-7V14.5z M7.4,21.8h7v7h-7V21.8z M7.4,29h7v7h-7V29z M7.4,36.3h7
	v7h-7V36.3z M7.4,43.6h7v7h-7V43.6z M7.4,50.8h7v7h-7V50.8z M7.4,58.1h7v7h-7V58.1z M7.4,65.3h7v7h-7V65.3z M7.4,72.6h7v7h-7V72.6z
	 M14.7,0h7v7h-7V0z M14.7,7.3h7v7h-7V7.3z M14.7,14.5h7v7h-7V14.5z M14.7,21.8h7v7h-7V21.8z M14.7,29h7v7h-7V29z M14.7,36.3h7v7h-7
	V36.3z M14.7,43.6h7v7h-7V43.6z M14.7,50.8h7v7h-7V50.8z M14.7,58.1h7v7h-7V58.1z M14.7,65.3h7v7h-7V65.3z M14.7,72.6h7v7h-7V72.6z
	 M21.9,0h7v7h-7V0z M21.9,7.3h7v7h-7V7.3z M21.9,14.5h7v7h-7V14.5z M21.9,21.8h7v7h-7V21.8z M21.9,29h7v7h-7V29z M21.9,36.3h7v7h-7
	V36.3z M21.9,43.6h7v7h-7V43.6z M21.9,50.8h7v7h-7V50.8z M21.9,58.1h7v7h-7V58.1z M21.9,65.3h7v7h-7V65.3z M21.9,72.6h7v7h-7V72.6z
	 M29.2,0h7v7h-7V0z M29.2,7.3h7v7h-7V7.3z M29.2,14.5h7v7h-7V14.5z M29.2,21.8h7v7h-7V21.8z M29.2,29h7v7h-7V29z M29.2,36.3h7v7h-7
	V36.3z M29.2,43.6h7v7h-7V43.6z M29.2,50.8h7v7h-7V50.8z M29.2,58.1h7v7h-7V58.1z M29.2,65.3h7v7h-7V65.3z M29.2,72.6h7v7h-7V72.6z
	 M36.4,0h7v7h-7V0z M36.4,7.3h7v7h-7V7.3z M36.4,14.5h7v7h-7V14.5z M36.4,21.8h7v7h-7V21.8z M36.4,29h7v7h-7V29z M36.4,36.3h7v7h-7
	V36.3z M36.4,43.6h7v7h-7V43.6z M36.4,50.8h7v7h-7V50.8z M36.4,58.1h7v7h-7V58.1z M36.4,65.3h7v7h-7V65.3z M36.4,72.6h7v7h-7V72.6z
	 M43.7,0h7v7h-7V0z M43.7,7.3h7v7h-7V7.3z M43.7,14.5h7v7h-7V14.5z M43.7,21.8h7v7h-7V21.8z M43.7,29h7v7h-7V29z M43.7,36.3h7v7h-7
	V36.3z M43.7,43.6h7v7h-7V43.6z M43.7,50.8h7v7h-7V50.8z M43.7,58.1h7v7h-7V58.1z M43.7,65.3h7v7h-7V65.3z M43.7,72.6h7v7h-7V72.6z
	 M51,0h7v7h-7V0z M51,7.3h7v7h-7V7.3z M51,14.5h7v7h-7V14.5z M51,21.8h7v7h-7V21.8z M51,29h7v7h-7V29z M51,36.3h7v7h-7V36.3z
	 M51,43.6h7v7h-7V43.6z M51,50.8h7v7h-7V50.8z M51,58.1h7v7h-7V58.1z M51,65.3h7v7h-7V65.3z M51,72.6h7v7h-7V72.6z M58.2,0h7v7h-7V0
	z M58.2,7.3h7v7h-7V7.3z M58.2,14.5h7v7h-7V14.5z M58.2,21.8h7v7h-7V21.8z M58.2,29h7v7h-7V29z M58.2,36.3h7v7h-7V36.3z M58.2,43.6
	h7v7h-7V43.6z M58.2,50.8h7v7h-7V50.8z M58.2,58.1h7v7h-7V58.1z M58.2,65.3h7v7h-7V65.3z M58.2,72.6h7v7h-7V72.6z M65.5,0h7v7h-7V0z
	 M65.5,7.3h7v7h-7V7.3z M65.5,14.5h7v7h-7V14.5z M65.5,21.8h7v7h-7V21.8z M65.5,29h7v7h-7V29z M65.5,36.3h7v7h-7V36.3z M65.5,43.6h7
	v7h-7V43.6z M65.5,50.8h7v7h-7V50.8z M65.5,58.1h7v7h-7V58.1z M65.5,65.3h7v7h-7V65.3z M65.5,72.6h7v7h-7V72.6z M72.8,0h7v7h-7V0z
	 M72.8,7.3h7v7h-7V7.3z M72.8,14.5h7v7h-7V14.5z M72.8,21.8h7v7h-7V21.8z M72.8,29h7v7h-7V29z M72.8,36.3h7v7h-7V36.3z M72.8,43.6h7
	v7h-7V43.6z M72.8,50.8h7v7h-7V50.8z M72.8,58.1h7v7h-7V58.1z M72.8,65.3h7v7h-7V65.3z M72.8,72.6h7v7h-7V72.6z M80,0h7v7h-7V0z
	 M80,72.6h7v7h-7V72.6z M87.3,0h7v7h-7V0z M87.3,7.3h7v7h-7V7.3z M87.3,72.6h7v7h-7V72.6z M94.5,0h7v7h-7V0z M94.5,7.3h7v7h-7V7.3z
	 M94.5,14.5h7v7h-7V14.5z M94.5,36.3h7v7h-7V36.3z M94.5,43.6h7v7h-7V43.6z M94.5,50.8h7v7h-7V50.8z M94.5,58.1h7v7h-7V58.1z
	 M94.5,65.3h7v7h-7V65.3z M94.5,72.6h7v7h-7V72.6z M101.8,0h7v7h-7V0z M101.8,7.3h7v7h-7V7.3z M101.8,14.5h7v7h-7V14.5z M101.8,21.8
	h7v7h-7V21.8z M101.8,43.6h7v7h-7V43.6z M101.8,50.8h7v7h-7V50.8z M101.8,58.1h7v7h-7V58.1z M101.8,65.3h7v7h-7V65.3z M101.8,72.6h7
	v7h-7V72.6z M109,0h7v7h-7V0z M109,7.3h7v7h-7V7.3z M109,14.5h7v7h-7V14.5z M109,36.3h7v7h-7V36.3z M109,43.6h7v7h-7V43.6z
	 M109,50.8h7v7h-7V50.8z M109,58.1h7v7h-7V58.1z M109,65.3h7v7h-7V65.3z M109,72.6h7v7h-7V72.6z M116.3,0h7v7h-7V0z M116.3,7.3h7v7
	h-7V7.3z M116.3,72.6h7v7h-7V72.6z M123.6,0h7v7h-7V0z M123.6,72.6h7v7h-7V72.6z M130.8,0h7v7h-7V0z M130.8,7.3h7v7h-7V7.3z
	 M130.8,14.5h7v7h-7V14.5z M130.8,21.8h7v7h-7V21.8z M130.8,29h7v7h-7V29z M130.8,36.3h7v7h-7V36.3z M130.8,43.6h7v7h-7V43.6z
	 M130.8,50.8h7v7h-7V50.8z M130.8,58.1h7v7h-7V58.1z M130.8,65.3h7v7h-7V65.3z M130.8,72.6h7v7h-7V72.6z M138.1,0h7v7h-7V0z
	 M138.1,7.3h7v7h-7V7.3z M138.1,14.5h7v7h-7V14.5z M138.1,21.8h7v7h-7V21.8z M138.1,65.3h7v7h-7V65.3z M138.1,72.6h7v7h-7V72.6z
	 M145.4,0h7v7h-7V0z M145.4,7.3h7v7h-7V7.3z M145.4,14.5h7v7h-7V14.5z M145.4,72.6h7v7h-7V72.6z M152.6,0h7v7h-7V0z M152.6,7.3h7v7
	h-7V7.3z M152.6,14.5h7v7h-7V14.5z M152.6,29h7v7h-7V29z M152.6,36.3h7v7h-7V36.3z M152.6,50.8h7v7h-7V50.8z M152.6,58.1h7v7h-7
	V58.1z M152.6,72.6h7v7h-7V72.6z M159.9,0h7v7h-7V0z M159.9,7.3h7v7h-7V7.3z M159.9,14.5h7v7h-7V14.5z M159.9,50.8h7v7h-7V50.8z
	 M159.9,72.6h7v7h-7V72.6z M167.1,0h7v7h-7V0z M167.1,7.3h7v7h-7V7.3z M167.1,14.5h7v7h-7V14.5z M167.1,21.8h7v7h-7V21.8z
	 M167.1,43.6h7v7h-7V43.6z M167.1,50.8h7v7h-7V50.8z M167.1,65.3h7v7h-7V65.3z M167.1,72.6h7v7h-7V72.6z M174.4,0h7v7h-7V0z
	 M174.4,7.3h7v7h-7V7.3z M174.4,14.5h7v7h-7V14.5z M174.4,21.8h7v7h-7V21.8z M174.4,29h7v7h-7V29z M174.4,36.3h7v7h-7V36.3z
	 M174.4,43.6h7v7h-7V43.6z M174.4,50.8h7v7h-7V50.8z M174.4,58.1h7v7h-7V58.1z M174.4,65.3h7v7h-7V65.3z M174.4,72.6h7v7h-7V72.6z
	 M181.6,0h7v7h-7V0z M181.6,7.3h7v7h-7V7.3z M181.6,14.5h7v7h-7V14.5z M181.6,72.6h7v7h-7V72.6z M188.9,0h7v7h-7V0z M188.9,7.3h7v7
	h-7V7.3z M188.9,14.5h7v7h-7V14.5z M188.9,21.8h7v7h-7V21.8z M188.9,72.6h7v7h-7V72.6z M196.2,0h7v7h-7V0z M196.2,7.3h7v7h-7V7.3z
	 M196.2,14.5h7v7h-7V14.5z M196.2,29h7v7h-7V29z M196.2,36.3h7v7h-7V36.3z M196.2,43.6h7v7h-7V43.6z M196.2,50.8h7v7h-7V50.8z
	 M196.2,58.1h7v7h-7V58.1z M196.2,65.3h7v7h-7V65.3z M196.2,72.6h7v7h-7V72.6z M203.4,0h7v7h-7V0z M203.4,7.3h7v7h-7V7.3z
	 M203.4,14.5h7v7h-7V14.5z M203.4,72.6h7v7h-7V72.6z M210.7,0h7v7h-7V0z M210.7,7.3h7v7h-7V7.3z M210.7,14.5h7v7h-7V14.5z
	 M210.7,21.8h7v7h-7V21.8z M210.7,72.6h7v7h-7V72.6z M217.9,0h7v7h-7V0z M217.9,7.3h7v7h-7V7.3z M217.9,14.5h7v7h-7V14.5z
	 M217.9,21.8h7v7h-7V21.8z M217.9,29h7v7h-7V29z M217.9,36.3h7v7h-7V36.3z M217.9,43.6h7v7h-7V43.6z M217.9,50.8h7v7h-7V50.8z
	 M217.9,58.1h7v7h-7V58.1z M217.9,65.3h7v7h-7V65.3z M217.9,72.6h7v7h-7V72.6z M225.2,0h7v7h-7V0z M225.2,7.3h7v7h-7V7.3z
	 M225.2,14.5h7v7h-7V14.5z M225.2,65.3h7v7h-7V65.3z M225.2,72.6h7v7h-7V72.6z M232.5,0h7v7h-7V0z M232.5,7.3h7v7h-7V7.3z
	 M232.5,14.5h7v7h-7V14.5z M232.5,72.6h7v7h-7V72.6z M239.7,0h7v7h-7V0z M239.7,7.3h7v7h-7V7.3z M239.7,14.5h7v7h-7V14.5z
	 M239.7,21.8h7v7h-7V21.8z M239.7,29h7v7h-7V29z M239.7,36.3h7v7h-7V36.3z M239.7,43.6h7v7h-7V43.6z M239.7,50.8h7v7h-7V50.8z
	 M239.7,58.1h7v7h-7V58.1z M239.7,72.6h7v7h-7V72.6z M247,0h7v7h-7V0z M247,7.3h7v7h-7V7.3z M247,14.5h7v7h-7V14.5z M247,65.3h7v7
	h-7V65.3z M247,72.6h7v7h-7V72.6z M254.2,0h7v7h-7V0z M254.2,7.3h7v7h-7V7.3z M254.2,14.5h7v7h-7V14.5z M254.2,72.6h7v7h-7V72.6z
	 M261.5,0h7v7h-7V0z M261.5,7.3h7v7h-7V7.3z M261.5,14.5h7v7h-7V14.5z M261.5,21.8h7v7h-7V21.8z M261.5,29h7v7h-7V29z M261.5,36.3h7
	v7h-7V36.3z M261.5,43.6h7v7h-7V43.6z M261.5,50.8h7v7h-7V50.8z M261.5,58.1h7v7h-7V58.1z M261.5,65.3h7v7h-7V65.3z M261.5,72.6h7v7
	h-7V72.6z M268.8,0h7v7h-7V0z M268.8,7.3h7v7h-7V7.3z M268.8,14.5h7v7h-7V14.5z M268.8,21.8h7v7h-7V21.8z M268.8,29h7v7h-7V29z
	 M268.8,36.3h7v7h-7V36.3z M268.8,43.6h7v7h-7V43.6z M268.8,50.8h7v7h-7V50.8z M268.8,58.1h7v7h-7V58.1z M268.8,65.3h7v7h-7V65.3z
	 M268.8,72.6h7v7h-7V72.6z M276,0h7v7h-7V0z M276,7.3h7v7h-7V7.3z M276,14.5h7v7h-7V14.5z M276,21.8h7v7h-7V21.8z M276,29h7v7h-7V29
	z M276,36.3h7v7h-7V36.3z M276,43.6h7v7h-7V43.6z M276,50.8h7v7h-7V50.8z M276,58.1h7v7h-7V58.1z M276,65.3h7v7h-7V65.3z M276,72.6
	h7v7h-7V72.6z M283.3,0h7v7h-7V0z M283.3,7.3h7v7h-7V7.3z M283.3,14.5h7v7h-7V14.5z M283.3,21.8h7v7h-7V21.8z M283.3,29h7v7h-7V29z
	 M283.3,36.3h7v7h-7V36.3z M283.3,43.6h7v7h-7V43.6z M283.3,50.8h7v7h-7V50.8z M283.3,58.1h7v7h-7V58.1z M283.3,65.3h7v7h-7V65.3z
	 M283.3,72.6h7v7h-7V72.6z M290.5,0h7v7h-7V0z M290.5,7.3h7v7h-7V7.3z M290.5,14.5h7v7h-7V14.5z M290.5,21.8h7v7h-7V21.8z M290.5,29
	h7v7h-7V29z M290.5,36.3h7v7h-7V36.3z M290.5,43.6h7v7h-7V43.6z M290.5,50.8h7v7h-7V50.8z M290.5,58.1h7v7h-7V58.1z M290.5,65.3h7v7
	h-7V65.3z M290.5,72.6h7v7h-7V72.6z M297.8,0h7v7h-7V0z M297.8,7.3h7v7h-7V7.3z M297.8,14.5h7v7h-7V14.5z M297.8,21.8h7v7h-7V21.8z
	 M297.8,29h7v7h-7V29z M297.8,36.3h7v7h-7V36.3z M297.8,43.6h7v7h-7V43.6z M297.8,50.8h7v7h-7V50.8z M297.8,58.1h7v7h-7V58.1z
	 M297.8,65.3h7v7h-7V65.3z M297.8,72.6h7v7h-7V72.6z M305.1,0h7v7h-7V0z M305.1,7.3h7v7h-7V7.3z M305.1,14.5h7v7h-7V14.5z
	 M305.1,21.8h7v7h-7V21.8z M305.1,29h7v7h-7V29z M305.1,36.3h7v7h-7V36.3z M305.1,43.6h7v7h-7V43.6z M305.1,50.8h7v7h-7V50.8z
	 M305.1,58.1h7v7h-7V58.1z M305.1,65.3h7v7h-7V65.3z M305.1,72.6h7v7h-7V72.6z M312.3,0h7v7h-7V0z M312.3,7.3h7v7h-7V7.3z
	 M312.3,14.5h7v7h-7V14.5z M312.3,21.8h7v7h-7V21.8z M312.3,29h7v7h-7V29z M312.3,36.3h7v7h-7V36.3z M312.3,43.6h7v7h-7V43.6z
	 M312.3,50.8h7v7h-7V50.8z M312.3,58.1h7v7h-7V58.1z M312.3,65.3h7v7h-7V65.3z M312.3,72.6h7v7h-7V72.6z M319.6,0h7v7h-7V0z
	 M319.6,7.3h7v7h-7V7.3z M319.6,14.5h7v7h-7V14.5z M319.6,21.8h7v7h-7V21.8z M319.6,29h7v7h-7V29z M319.6,36.3h7v7h-7V36.3z
	 M319.6,43.6h7v7h-7V43.6z M319.6,50.8h7v7h-7V50.8z M319.6,58.1h7v7h-7V58.1z M319.6,65.3h7v7h-7V65.3z M319.6,72.6h7v7h-7V72.6z
	 M326.9,0h7v7h-7V0z M326.9,7.3h7v7h-7V7.3z M326.9,14.5h7v7h-7V14.5z M326.9,21.8h7v7h-7V21.8z M326.9,29h7v7h-7V29z M326.9,36.3h7
	v7h-7V36.3z M326.9,43.6h7v7h-7V43.6z M326.9,50.8h7v7h-7V50.8z M326.9,58.1h7v7h-7V58.1z M326.9,65.3h7v7h-7V65.3z M326.9,72.6h7v7
	h-7V72.6z M334.1,0h7v7h-7V0z M334.1,7.3h7v7h-7V7.3z M334.1,14.5h7v7h-7V14.5z M334.1,21.8h7v7h-7V21.8z M334.1,29h7v7h-7V29z
	 M334.1,36.3h7v7h-7V36.3z M334.1,43.6h7v7h-7V43.6z M334.1,50.8h7v7h-7V50.8z M334.1,58.1h7v7h-7V58.1z M334.1,65.3h7v7h-7V65.3z
	 M334.1,72.6h7v7h-7V72.6z M341.4,0h7v7h-7V0z M341.4,7.3h7v7h-7V7.3z M341.4,14.5h7v7h-7V14.5z M341.4,21.8h7v7h-7V21.8z M341.4,29
	h7v7h-7V29z M341.4,36.3h7v7h-7V36.3z M341.4,43.6h7v7h-7V43.6z M341.4,50.8h7v7h-7V50.8z M341.4,58.1h7v7h-7V58.1z M341.4,65.3h7v7
	h-7V65.3z M341.4,72.6h7v7h-7V72.6z"/>
</svg>
