<?xml version="1.0" encoding="utf-8"?>
<!-- Generator: Adobe Illustrator 27.3.1, SVG Export Plug-In . SVG Version: 6.00 Build 0)  -->
<svg version="1.1" id="Слой_1" xmlns="http://www.w3.org/2000/svg" xmlns:xlink="http://www.w3.org/1999/xlink" x="0px" y="0px"
	 viewBox="0 0 130.3 101.3" style="enable-background:new 0 0 130.3 101.3;" xml:space="preserve">
<style type="text/css">
	.st0{fill:#1E0E01;}
</style>
<path class="st0" d="M0.1,7.2h7v7h-7V7.2z M7.4,0h7v7h-7V0z M14.6,0h7v7h-7V0z M21.9,0h7v7h-7V0z M29.1,0h7v7h-7V0z M36.4,0h7v7h-7
	V0z M43.7,0h7v7h-7V0z M50.9,0h7v7h-7V0z M58.2,0h7v7h-7V0z M65.4,0h7v7h-7V0z M72.7,0h7v7h-7V0z M0.1,14.5h7v7h-7V14.5z M0.1,21.7
	h7v7h-7V21.7z M0.1,29h7v7h-7V29z M0.1,36.2h7v7h-7V36.2z M0.1,43.5h7v7h-7V43.5z M0.1,50.8h7v7h-7V50.8z M0.1,58h7v7h-7V58z
	 M0.1,65.3h7v7h-7V65.3z M80,0h7v7h-7V0z M87.2,0h7v7h-7V0z M94.5,0h7v7h-7V0z M101.7,0h7v7h-7V0z M109,0h7v7h-7V0z M0.1,72.6h7v7
	h-7V72.6z M0.1,79.8h7v7h-7V79.8z M0.1,87.1h7v7h-7V87.1z M29.1,29h7v7h-7V29z M21.9,36.2h7v7h-7V36.2z M21.9,87.1h7v7h-7V87.1z
	 M29.1,43.5h7v7h-7V43.5z M29.1,79.8h7v7h-7V79.8z M36.4,36.2h7v7h-7V36.2z M36.4,72.6h7v7h-7V72.6z M43.7,65.3h7v7h-7V65.3z
	 M50.9,58h7v7h-7V58z M50.9,87.1h7v7h-7V87.1z M58.2,50.8h7v7h-7V50.8z M58.2,79.8h7v7h-7V79.8z M58.2,87.1h7v7h-7V87.1z M65.4,58h7
	v7h-7V58z M65.4,72.6h7v7h-7V72.6z M65.4,79.8h7v7h-7V79.8z M72.7,65.3h7v7h-7V65.3z M72.7,72.6h7v7h-7V72.6z M80,58h7v7h-7V58z
	 M80,65.3h7v7h-7V65.3z M87.2,50.8h7v7h-7V50.8z M87.2,58h7v7h-7V58z M87.2,72.6h7v7h-7V72.6z M94.5,65.3h7v7h-7V65.3z M101.7,58h7
	v7h-7V58z M109,58h7v7h-7V58z M101.7,72.6h7v7h-7V72.6z M109,65.3h7v7h-7V65.3z M116.3,65.3h7v7h-7V65.3z M123.5,58h7v7h-7V58z
	 M94.5,43.5h7v7h-7V43.5z M94.5,50.8h7v7h-7V50.8z M101.7,50.8h7v7h-7V50.8z M116.3,72.6h7v7h-7V72.6z M7.5,94.3h7v7h-7V94.3z
	 M14.7,94.3h7v7h-7V94.3z M22,94.3h7v7h-7V94.3z M29.2,94.3h7v7h-7V94.3z M36.5,94.3h7v7h-7V94.3z M43.8,94.3h7v7h-7V94.3z M51,94.3
	h7v7h-7V94.3z M58.3,94.3h7v7h-7V94.3z M65.5,94.3h7v7h-7V94.3z M72.8,94.3h7v7h-7V94.3z M80.1,94.3h7v7h-7V94.3z M87.3,94.3h7v7h-7
	V94.3z M94.6,94.3h7v7h-7V94.3z M101.8,94.3h7v7h-7V94.3z M109.1,94.3h7v7h-7V94.3z M116.4,94.3h7v7h-7V94.3z M116.3,0h7v7h-7V0z
	 M123.6,7.2h7v7h-7V7.2z M123.6,14.5h7v7h-7V14.5z M123.6,21.7h7v7h-7V21.7z M123.6,29h7v7h-7V29z M123.6,36.2h7v7h-7V36.2z
	 M123.6,43.5h7v7h-7V43.5z M123.6,50.8h7v7h-7V50.8z M123.6,65.3h7v7h-7V65.3z M123.6,72.6h7v7h-7V72.6z M123.6,79.8h7v7h-7V79.8z
	 M123.6,87.1h7v7h-7V87.1z"/>
</svg>
