<?xml version="1.0" encoding="utf-8"?>
<!-- Generator: Adobe Illustrator 27.3.1, SVG Export Plug-In . SVG Version: 6.00 Build 0)  -->
<svg version="1.1" id="Слой_1" xmlns="http://www.w3.org/2000/svg" xmlns:xlink="http://www.w3.org/1999/xlink" x="0px" y="0px"
	 viewBox="0 0 805.6 115.9" style="enable-background:new 0 0 805.6 115.9;" xml:space="preserve">
<style type="text/css">
	.st0{fill:#1E0E01;}
</style>
<path class="st0" d="M7.3,7.3h7v7h-7V7.3z M7.3,14.5h7v7h-7V14.5z M7.3,21.8h7v7h-7V21.8z M7.3,29h7v7h-7V29z M7.3,36.3h7v7h-7V36.3
	z M7.3,43.6h7v7h-7V43.6z M7.3,50.8h7v7h-7V50.8z M7.3,58.1h7v7h-7V58.1z M7.3,65.3h7v7h-7V65.3z M7.3,72.6h7v7h-7V72.6z M7.3,79.9
	h7v7h-7V79.9z M7.3,87.1h7v7h-7V87.1z M7.3,94.4h7v7h-7V94.4z M7.3,101.6h7v7h-7V101.6z M14.5,7.3h7v7h-7V7.3z M14.5,14.5h7v7h-7
	V14.5z M14.5,21.8h7v7h-7V21.8z M14.5,29h7v7h-7V29z M14.5,36.3h7v7h-7V36.3z M14.5,43.6h7v7h-7V43.6z M14.5,50.8h7v7h-7V50.8z
	 M14.5,58.1h7v7h-7V58.1z M14.5,65.3h7v7h-7V65.3z M14.5,72.6h7v7h-7V72.6z M14.5,79.9h7v7h-7V79.9z M14.5,87.1h7v7h-7V87.1z
	 M14.5,94.4h7v7h-7V94.4z M14.5,101.6h7v7h-7V101.6z M21.8,7.3h7v7h-7V7.3z M21.8,14.5h7v7h-7V14.5z M21.8,21.8h7v7h-7V21.8z
	 M21.8,29h7v7h-7V29z M21.8,36.3h7v7h-7V36.3z M21.8,43.6h7v7h-7V43.6z M21.8,50.8h7v7h-7V50.8z M21.8,58.1h7v7h-7V58.1z M21.8,65.3
	h7v7h-7V65.3z M21.8,72.6h7v7h-7V72.6z M21.8,79.9h7v7h-7V79.9z M21.8,87.1h7v7h-7V87.1z M21.8,94.4h7v7h-7V94.4z M21.8,101.6h7v7
	h-7V101.6z M29,7.3h7v7h-7V7.3z M29,14.5h7v7h-7V14.5z M29,21.8h7v7h-7V21.8z M29,29h7v7h-7V29z M29,36.3h7v7h-7V36.3z M29,43.6h7v7
	h-7V43.6z M29,50.8h7v7h-7V50.8z M29,58.1h7v7h-7V58.1z M29,65.3h7v7h-7V65.3z M29,72.6h7v7h-7V72.6z M29,79.9h7v7h-7V79.9z
	 M29,87.1h7v7h-7V87.1z M29,94.4h7v7h-7V94.4z M29,101.6h7v7h-7V101.6z M36.3,7.3h7v7h-7V7.3z M36.3,14.5h7v7h-7V14.5z M36.3,21.8h7
	v7h-7V21.8z M36.3,29h7v7h-7V29z M36.3,36.3h7v7h-7V36.3z M36.3,43.6h7v7h-7V43.6z M36.3,50.8h7v7h-7V50.8z M36.3,58.1h7v7h-7V58.1z
	 M36.3,65.3h7v7h-7V65.3z M36.3,72.6h7v7h-7V72.6z M36.3,79.9h7v7h-7V79.9z M36.3,87.1h7v7h-7V87.1z M36.3,94.4h7v7h-7V94.4z
	 M36.3,101.6h7v7h-7V101.6z M43.6,7.3h7v7h-7V7.3z M43.6,14.5h7v7h-7V14.5z M43.6,21.8h7v7h-7V21.8z M43.6,29h7v7h-7V29z M43.6,36.3
	h7v7h-7V36.3z M43.6,43.6h7v7h-7V43.6z M43.6,50.8h7v7h-7V50.8z M43.6,58.1h7v7h-7V58.1z M43.6,65.3h7v7h-7V65.3z M43.6,72.6h7v7h-7
	V72.6z M43.6,79.9h7v7h-7V79.9z M43.6,87.1h7v7h-7V87.1z M43.6,94.4h7v7h-7V94.4z M43.6,101.6h7v7h-7V101.6z M50.8,7.3h7v7h-7V7.3z
	 M50.8,14.5h7v7h-7V14.5z M50.8,21.8h7v7h-7V21.8z M50.8,29h7v7h-7V29z M50.8,36.3h7v7h-7V36.3z M50.8,43.6h7v7h-7V43.6z M50.8,50.8
	h7v7h-7V50.8z M50.8,58.1h7v7h-7V58.1z M50.8,65.3h7v7h-7V65.3z M50.8,72.6h7v7h-7V72.6z M50.8,79.9h7v7h-7V79.9z M50.8,87.1h7v7h-7
	V87.1z M50.8,94.4h7v7h-7V94.4z M50.8,101.6h7v7h-7V101.6z M58.1,7.3h7v7h-7V7.3z M58.1,14.5h7v7h-7V14.5z M58.1,21.8h7v7h-7V21.8z
	 M58.1,29h7v7h-7V29z M58.1,36.3h7v7h-7V36.3z M58.1,43.6h7v7h-7V43.6z M58.1,50.8h7v7h-7V50.8z M58.1,58.1h7v7h-7V58.1z M58.1,65.3
	h7v7h-7V65.3z M58.1,72.6h7v7h-7V72.6z M58.1,79.9h7v7h-7V79.9z M58.1,87.1h7v7h-7V87.1z M58.1,94.4h7v7h-7V94.4z M58.1,101.6h7v7
	h-7V101.6z M65.3,7.3h7v7h-7V7.3z M65.3,14.5h7v7h-7V14.5z M65.3,21.8h7v7h-7V21.8z M65.3,29h7v7h-7V29z M65.3,36.3h7v7h-7V36.3z
	 M65.3,43.6h7v7h-7V43.6z M65.3,50.8h7v7h-7V50.8z M65.3,58.1h7v7h-7V58.1z M65.3,65.3h7v7h-7V65.3z M65.3,72.6h7v7h-7V72.6z
	 M65.3,79.9h7v7h-7V79.9z M65.3,87.1h7v7h-7V87.1z M65.3,94.4h7v7h-7V94.4z M65.3,101.6h7v7h-7V101.6z M72.6,7.3h7v7h-7V7.3z
	 M72.6,14.5h7v7h-7V14.5z M72.6,21.8h7v7h-7V21.8z M72.6,29h7v7h-7V29z M72.6,36.3h7v7h-7V36.3z M72.6,43.6h7v7h-7V43.6z M72.6,50.8
	h7v7h-7V50.8z M72.6,58.1h7v7h-7V58.1z M72.6,65.3h7v7h-7V65.3z M72.6,72.6h7v7h-7V72.6z M72.6,79.9h7v7h-7V79.9z M72.6,87.1h7v7h-7
	V87.1z M72.6,94.4h7v7h-7V94.4z M72.6,101.6h7v7h-7V101.6z M79.9,7.3h7v7h-7V7.3z M79.9,14.5h7v7h-7V14.5z M79.9,21.8h7v7h-7V21.8z
	 M79.9,29h7v7h-7V29z M79.9,36.3h7v7h-7V36.3z M79.9,43.6h7v7h-7V43.6z M79.9,50.8h7v7h-7V50.8z M79.9,58.1h7v7h-7V58.1z M79.9,65.3
	h7v7h-7V65.3z M79.9,72.6h7v7h-7V72.6z M79.9,79.9h7v7h-7V79.9z M79.9,87.1h7v7h-7V87.1z M79.9,94.4h7v7h-7V94.4z M79.9,101.6h7v7
	h-7V101.6z M87.1,7.3h7v7h-7V7.3z M87.1,14.5h7v7h-7V14.5z M87.1,21.8h7v7h-7V21.8z M87.1,29h7v7h-7V29z M87.1,36.3h7v7h-7V36.3z
	 M87.1,43.6h7v7h-7V43.6z M87.1,50.8h7v7h-7V50.8z M87.1,58.1h7v7h-7V58.1z M87.1,65.3h7v7h-7V65.3z M87.1,72.6h7v7h-7V72.6z
	 M87.1,79.9h7v7h-7V79.9z M87.1,87.1h7v7h-7V87.1z M87.1,94.4h7v7h-7V94.4z M87.1,101.6h7v7h-7V101.6z M94.4,7.3h7v7h-7V7.3z
	 M94.4,14.5h7v7h-7V14.5z M94.4,21.8h7v7h-7V21.8z M94.4,29h7v7h-7V29z M94.4,36.3h7v7h-7V36.3z M94.4,43.6h7v7h-7V43.6z M94.4,50.8
	h7v7h-7V50.8z M94.4,58.1h7v7h-7V58.1z M94.4,65.3h7v7h-7V65.3z M94.4,72.6h7v7h-7V72.6z M94.4,79.9h7v7h-7V79.9z M94.4,87.1h7v7h-7
	V87.1z M94.4,94.4h7v7h-7V94.4z M94.4,101.6h7v7h-7V101.6z M101.6,7.3h7v7h-7V7.3z M101.6,14.5h7v7h-7V14.5z M101.6,21.8h7v7h-7
	V21.8z M101.6,29h7v7h-7V29z M101.6,36.3h7v7h-7V36.3z M101.6,43.6h7v7h-7V43.6z M101.6,50.8h7v7h-7V50.8z M101.6,58.1h7v7h-7V58.1z
	 M101.6,65.3h7v7h-7V65.3z M101.6,72.6h7v7h-7V72.6z M101.6,79.9h7v7h-7V79.9z M101.6,87.1h7v7h-7V87.1z M101.6,94.4h7v7h-7V94.4z
	 M101.6,101.6h7v7h-7V101.6z M108.9,7.3h7v7h-7V7.3z M108.9,14.5h7v7h-7V14.5z M108.9,21.8h7v7h-7V21.8z M108.9,29h7v7h-7V29z
	 M108.9,36.3h7v7h-7V36.3z M108.9,43.6h7v7h-7V43.6z M108.9,50.8h7v7h-7V50.8z M108.9,58.1h7v7h-7V58.1z M108.9,65.3h7v7h-7V65.3z
	 M108.9,72.6h7v7h-7V72.6z M108.9,79.9h7v7h-7V79.9z M108.9,87.1h7v7h-7V87.1z M108.9,94.4h7v7h-7V94.4z M108.9,101.6h7v7h-7V101.6z
	 M116.2,7.3h7v7h-7V7.3z M116.2,14.5h7v7h-7V14.5z M116.2,21.8h7v7h-7V21.8z M116.2,29h7v7h-7V29z M116.2,36.3h7v7h-7V36.3z
	 M116.2,43.6h7v7h-7V43.6z M116.2,50.8h7v7h-7V50.8z M116.2,58.1h7v7h-7V58.1z M116.2,65.3h7v7h-7V65.3z M116.2,72.6h7v7h-7V72.6z
	 M116.2,79.9h7v7h-7V79.9z M116.2,87.1h7v7h-7V87.1z M116.2,94.4h7v7h-7V94.4z M116.2,101.6h7v7h-7V101.6z M123.4,7.3h7v7h-7V7.3z
	 M123.4,14.5h7v7h-7V14.5z M123.4,21.8h7v7h-7V21.8z M123.4,29h7v7h-7V29z M123.4,36.3h7v7h-7V36.3z M123.4,43.6h7v7h-7V43.6z
	 M123.4,50.8h7v7h-7V50.8z M123.4,58.1h7v7h-7V58.1z M123.4,65.3h7v7h-7V65.3z M123.4,72.6h7v7h-7V72.6z M123.4,79.9h7v7h-7V79.9z
	 M123.4,87.1h7v7h-7V87.1z M123.4,94.4h7v7h-7V94.4z M123.4,101.6h7v7h-7V101.6z M130.7,7.3h7v7h-7V7.3z M130.7,14.5h7v7h-7V14.5z
	 M130.7,21.8h7v7h-7V21.8z M130.7,29h7v7h-7V29z M130.7,36.3h7v7h-7V36.3z M130.7,43.6h7v7h-7V43.6z M130.7,50.8h7v7h-7V50.8z
	 M130.7,58.1h7v7h-7V58.1z M130.7,65.3h7v7h-7V65.3z M130.7,72.6h7v7h-7V72.6z M130.7,79.9h7v7h-7V79.9z M130.7,87.1h7v7h-7V87.1z
	 M130.7,94.4h7v7h-7V94.4z M130.7,101.6h7v7h-7V101.6z M137.9,7.3h7v7h-7V7.3z M137.9,14.5h7v7h-7V14.5z M137.9,21.8h7v7h-7V21.8z
	 M137.9,29h7v7h-7V29z M137.9,36.3h7v7h-7V36.3z M137.9,43.6h7v7h-7V43.6z M137.9,50.8h7v7h-7V50.8z M137.9,58.1h7v7h-7V58.1z
	 M137.9,65.3h7v7h-7V65.3z M137.9,72.6h7v7h-7V72.6z M137.9,79.9h7v7h-7V79.9z M137.9,87.1h7v7h-7V87.1z M137.9,94.4h7v7h-7V94.4z
	 M137.9,101.6h7v7h-7V101.6z M145.2,7.3h7v7h-7V7.3z M145.2,14.5h7v7h-7V14.5z M145.2,21.8h7v7h-7V21.8z M145.2,29h7v7h-7V29z
	 M145.2,36.3h7v7h-7V36.3z M145.2,43.6h7v7h-7V43.6z M145.2,50.8h7v7h-7V50.8z M145.2,58.1h7v7h-7V58.1z M145.2,65.3h7v7h-7V65.3z
	 M145.2,72.6h7v7h-7V72.6z M145.2,79.9h7v7h-7V79.9z M145.2,87.1h7v7h-7V87.1z M145.2,94.4h7v7h-7V94.4z M145.2,101.6h7v7h-7V101.6z
	 M152.5,7.3h7v7h-7V7.3z M152.5,14.5h7v7h-7V14.5z M152.5,21.8h7v7h-7V21.8z M152.5,29h7v7h-7V29z M152.5,36.3h7v7h-7V36.3z
	 M152.5,43.6h7v7h-7V43.6z M152.5,50.8h7v7h-7V50.8z M152.5,58.1h7v7h-7V58.1z M152.5,65.3h7v7h-7V65.3z M152.5,72.6h7v7h-7V72.6z
	 M152.5,79.9h7v7h-7V79.9z M152.5,87.1h7v7h-7V87.1z M152.5,94.4h7v7h-7V94.4z M152.5,101.6h7v7h-7V101.6z M159.7,7.3h7v7h-7V7.3z
	 M159.7,14.5h7v7h-7V14.5z M159.7,21.8h7v7h-7V21.8z M159.7,29h7v7h-7V29z M159.7,36.3h7v7h-7V36.3z M159.7,43.6h7v7h-7V43.6z
	 M159.7,50.8h7v7h-7V50.8z M159.7,58.1h7v7h-7V58.1z M159.7,65.3h7v7h-7V65.3z M159.7,72.6h7v7h-7V72.6z M159.7,79.9h7v7h-7V79.9z
	 M159.7,87.1h7v7h-7V87.1z M159.7,94.4h7v7h-7V94.4z M159.7,101.6h7v7h-7V101.6z M167,7.3h7v7h-7V7.3z M167,14.5h7v7h-7V14.5z
	 M167,21.8h7v7h-7V21.8z M167,29h7v7h-7V29z M167,36.3h7v7h-7V36.3z M167,43.6h7v7h-7V43.6z M167,50.8h7v7h-7V50.8z M167,58.1h7v7
	h-7V58.1z M167,65.3h7v7h-7V65.3z M167,72.6h7v7h-7V72.6z M167,79.9h7v7h-7V79.9z M167,87.1h7v7h-7V87.1z M167,94.4h7v7h-7V94.4z
	 M167,101.6h7v7h-7V101.6z M174.2,7.3h7v7h-7V7.3z M174.2,14.5h7v7h-7V14.5z M174.2,21.8h7v7h-7V21.8z M174.2,29h7v7h-7V29z
	 M174.2,36.3h7v7h-7V36.3z M174.2,43.6h7v7h-7V43.6z M174.2,50.8h7v7h-7V50.8z M174.2,58.1h7v7h-7V58.1z M174.2,65.3h7v7h-7V65.3z
	 M174.2,72.6h7v7h-7V72.6z M174.2,79.9h7v7h-7V79.9z M174.2,87.1h7v7h-7V87.1z M174.2,94.4h7v7h-7V94.4z M174.2,101.6h7v7h-7V101.6z
	 M181.5,7.3h7v7h-7V7.3z M181.5,14.5h7v7h-7V14.5z M181.5,21.8h7v7h-7V21.8z M181.5,29h7v7h-7V29z M181.5,36.3h7v7h-7V36.3z
	 M181.5,43.6h7v7h-7V43.6z M181.5,50.8h7v7h-7V50.8z M181.5,58.1h7v7h-7V58.1z M181.5,65.3h7v7h-7V65.3z M181.5,72.6h7v7h-7V72.6z
	 M181.5,79.9h7v7h-7V79.9z M181.5,87.1h7v7h-7V87.1z M181.5,94.4h7v7h-7V94.4z M181.5,101.6h7v7h-7V101.6z M188.8,7.3h7v7h-7V7.3z
	 M188.8,14.5h7v7h-7V14.5z M188.8,21.8h7v7h-7V21.8z M188.8,29h7v7h-7V29z M188.8,36.3h7v7h-7V36.3z M188.8,43.6h7v7h-7V43.6z
	 M188.8,50.8h7v7h-7V50.8z M188.8,58.1h7v7h-7V58.1z M188.8,65.3h7v7h-7V65.3z M188.8,72.6h7v7h-7V72.6z M188.8,79.9h7v7h-7V79.9z
	 M188.8,87.1h7v7h-7V87.1z M188.8,94.4h7v7h-7V94.4z M188.8,101.6h7v7h-7V101.6z M196,7.3h7v7h-7V7.3z M196,14.5h7v7h-7V14.5z
	 M196,21.8h7v7h-7V21.8z M196,29h7v7h-7V29z M196,36.3h7v7h-7V36.3z M196,43.6h7v7h-7V43.6z M196,50.8h7v7h-7V50.8z M196,58.1h7v7
	h-7V58.1z M196,65.3h7v7h-7V65.3z M196,72.6h7v7h-7V72.6z M196,79.9h7v7h-7V79.9z M196,87.1h7v7h-7V87.1z M196,94.4h7v7h-7V94.4z
	 M196,101.6h7v7h-7V101.6z M203.3,7.3h7v7h-7V7.3z M203.3,14.5h7v7h-7V14.5z M203.3,21.8h7v7h-7V21.8z M203.3,29h7v7h-7V29z
	 M203.3,36.3h7v7h-7V36.3z M203.3,43.6h7v7h-7V43.6z M203.3,50.8h7v7h-7V50.8z M203.3,58.1h7v7h-7V58.1z M203.3,65.3h7v7h-7V65.3z
	 M203.3,72.6h7v7h-7V72.6z M203.3,79.9h7v7h-7V79.9z M203.3,87.1h7v7h-7V87.1z M203.3,94.4h7v7h-7V94.4z M203.3,101.6h7v7h-7V101.6z
	 M210.5,7.3h7v7h-7V7.3z M210.5,14.5h7v7h-7V14.5z M210.5,21.8h7v7h-7V21.8z M210.5,29h7v7h-7V29z M210.5,36.3h7v7h-7V36.3z
	 M210.5,43.6h7v7h-7V43.6z M210.5,50.8h7v7h-7V50.8z M210.5,58.1h7v7h-7V58.1z M210.5,65.3h7v7h-7V65.3z M210.5,72.6h7v7h-7V72.6z
	 M210.5,79.9h7v7h-7V79.9z M210.5,87.1h7v7h-7V87.1z M210.5,94.4h7v7h-7V94.4z M210.5,101.6h7v7h-7V101.6z M217.8,7.3h7v7h-7V7.3z
	 M217.8,14.5h7v7h-7V14.5z M217.8,21.8h7v7h-7V21.8z M217.8,29h7v7h-7V29z M217.8,36.3h7v7h-7V36.3z M217.8,43.6h7v7h-7V43.6z
	 M217.8,50.8h7v7h-7V50.8z M217.8,58.1h7v7h-7V58.1z M217.8,65.3h7v7h-7V65.3z M217.8,72.6h7v7h-7V72.6z M217.8,79.9h7v7h-7V79.9z
	 M217.8,87.1h7v7h-7V87.1z M217.8,94.4h7v7h-7V94.4z M217.8,101.6h7v7h-7V101.6z M225.1,7.3h7v7h-7V7.3z M225.1,14.5h7v7h-7V14.5z
	 M225.1,21.8h7v7h-7V21.8z M225.1,29h7v7h-7V29z M225.1,36.3h7v7h-7V36.3z M225.1,43.6h7v7h-7V43.6z M225.1,50.8h7v7h-7V50.8z
	 M225.1,58.1h7v7h-7V58.1z M225.1,65.3h7v7h-7V65.3z M225.1,72.6h7v7h-7V72.6z M225.1,79.9h7v7h-7V79.9z M225.1,87.1h7v7h-7V87.1z
	 M225.1,94.4h7v7h-7V94.4z M225.1,101.6h7v7h-7V101.6z M232.3,7.3h7v7h-7V7.3z M232.3,14.5h7v7h-7V14.5z M232.3,21.8h7v7h-7V21.8z
	 M232.3,29h7v7h-7V29z M232.3,36.3h7v7h-7V36.3z M232.3,43.6h7v7h-7V43.6z M232.3,50.8h7v7h-7V50.8z M232.3,58.1h7v7h-7V58.1z
	 M232.3,65.3h7v7h-7V65.3z M232.3,72.6h7v7h-7V72.6z M232.3,79.9h7v7h-7V79.9z M232.3,87.1h7v7h-7V87.1z M232.3,94.4h7v7h-7V94.4z
	 M232.3,101.6h7v7h-7V101.6z M239.6,7.3h7v7h-7V7.3z M239.6,14.5h7v7h-7V14.5z M239.6,21.8h7v7h-7V21.8z M239.6,29h7v7h-7V29z
	 M239.6,36.3h7v7h-7V36.3z M239.6,43.6h7v7h-7V43.6z M239.6,50.8h7v7h-7V50.8z M239.6,58.1h7v7h-7V58.1z M239.6,65.3h7v7h-7V65.3z
	 M239.6,72.6h7v7h-7V72.6z M239.6,79.9h7v7h-7V79.9z M239.6,87.1h7v7h-7V87.1z M239.6,94.4h7v7h-7V94.4z M239.6,101.6h7v7h-7V101.6z
	 M246.8,7.3h7v7h-7V7.3z M246.8,14.5h7v7h-7V14.5z M246.8,21.8h7v7h-7V21.8z M246.8,29h7v7h-7V29z M246.8,36.3h7v7h-7V36.3z
	 M246.8,43.6h7v7h-7V43.6z M246.8,50.8h7v7h-7V50.8z M246.8,58.1h7v7h-7V58.1z M246.8,65.3h7v7h-7V65.3z M246.8,72.6h7v7h-7V72.6z
	 M246.8,79.9h7v7h-7V79.9z M246.8,87.1h7v7h-7V87.1z M246.8,94.4h7v7h-7V94.4z M246.8,101.6h7v7h-7V101.6z M254.1,7.3h7v7h-7V7.3z
	 M254.1,14.5h7v7h-7V14.5z M254.1,21.8h7v7h-7V21.8z M254.1,29h7v7h-7V29z M254.1,36.3h7v7h-7V36.3z M254.1,43.6h7v7h-7V43.6z
	 M254.1,50.8h7v7h-7V50.8z M254.1,58.1h7v7h-7V58.1z M254.1,65.3h7v7h-7V65.3z M254.1,72.6h7v7h-7V72.6z M254.1,79.9h7v7h-7V79.9z
	 M254.1,87.1h7v7h-7V87.1z M254.1,94.4h7v7h-7V94.4z M254.1,101.6h7v7h-7V101.6z M261.4,7.3h7v7h-7V7.3z M261.4,14.5h7v7h-7V14.5z
	 M261.4,21.8h7v7h-7V21.8z M261.4,29h7v7h-7V29z M261.4,36.3h7v7h-7V36.3z M261.4,43.6h7v7h-7V43.6z M261.4,50.8h7v7h-7V50.8z
	 M261.4,58.1h7v7h-7V58.1z M261.4,65.3h7v7h-7V65.3z M261.4,72.6h7v7h-7V72.6z M261.4,79.9h7v7h-7V79.9z M261.4,87.1h7v7h-7V87.1z
	 M261.4,94.4h7v7h-7V94.4z M261.4,101.6h7v7h-7V101.6z M268.6,7.3h7v7h-7V7.3z M268.6,14.5h7v7h-7V14.5z M268.6,21.8h7v7h-7V21.8z
	 M268.6,29h7v7h-7V29z M268.6,36.3h7v7h-7V36.3z M268.6,43.6h7v7h-7V43.6z M268.6,50.8h7v7h-7V50.8z M268.6,58.1h7v7h-7V58.1z
	 M268.6,65.3h7v7h-7V65.3z M268.6,72.6h7v7h-7V72.6z M268.6,79.9h7v7h-7V79.9z M268.6,87.1h7v7h-7V87.1z M268.6,94.4h7v7h-7V94.4z
	 M268.6,101.6h7v7h-7V101.6z M275.9,7.3h7v7h-7V7.3z M275.9,14.5h7v7h-7V14.5z M275.9,21.8h7v7h-7V21.8z M275.9,29h7v7h-7V29z
	 M275.9,36.3h7v7h-7V36.3z M275.9,43.6h7v7h-7V43.6z M275.9,50.8h7v7h-7V50.8z M275.9,58.1h7v7h-7V58.1z M275.9,65.3h7v7h-7V65.3z
	 M275.9,72.6h7v7h-7V72.6z M275.9,79.9h7v7h-7V79.9z M275.9,87.1h7v7h-7V87.1z M275.9,94.4h7v7h-7V94.4z M275.9,101.6h7v7h-7V101.6z
	 M283.1,7.3h7v7h-7V7.3z M283.1,14.5h7v7h-7V14.5z M283.1,21.8h7v7h-7V21.8z M283.1,29h7v7h-7V29z M283.1,36.3h7v7h-7V36.3z
	 M283.1,43.6h7v7h-7V43.6z M283.1,50.8h7v7h-7V50.8z M283.1,58.1h7v7h-7V58.1z M283.1,65.3h7v7h-7V65.3z M283.1,72.6h7v7h-7V72.6z
	 M283.1,79.9h7v7h-7V79.9z M283.1,87.1h7v7h-7V87.1z M283.1,94.4h7v7h-7V94.4z M283.1,101.6h7v7h-7V101.6z M290.4,7.3h7v7h-7V7.3z
	 M290.4,14.5h7v7h-7V14.5z M290.4,21.8h7v7h-7V21.8z M290.4,29h7v7h-7V29z M290.4,36.3h7v7h-7V36.3z M290.4,43.6h7v7h-7V43.6z
	 M290.4,50.8h7v7h-7V50.8z M290.4,58.1h7v7h-7V58.1z M290.4,65.3h7v7h-7V65.3z M290.4,72.6h7v7h-7V72.6z M290.4,79.9h7v7h-7V79.9z
	 M290.4,87.1h7v7h-7V87.1z M290.4,94.4h7v7h-7V94.4z M290.4,101.6h7v7h-7V101.6z M297.7,7.3h7v7h-7V7.3z M297.7,14.5h7v7h-7V14.5z
	 M297.7,21.8h7v7h-7V21.8z M297.7,29h7v7h-7V29z M297.7,36.3h7v7h-7V36.3z M297.7,43.6h7v7h-7V43.6z M297.7,50.8h7v7h-7V50.8z
	 M297.7,58.1h7v7h-7V58.1z M297.7,65.3h7v7h-7V65.3z M297.7,72.6h7v7h-7V72.6z M297.7,79.9h7v7h-7V79.9z M297.7,87.1h7v7h-7V87.1z
	 M297.7,94.4h7v7h-7V94.4z M297.7,101.6h7v7h-7V101.6z M304.9,7.3h7v7h-7V7.3z M304.9,14.5h7v7h-7V14.5z M304.9,21.8h7v7h-7V21.8z
	 M304.9,29h7v7h-7V29z M304.9,36.3h7v7h-7V36.3z M304.9,43.6h7v7h-7V43.6z M304.9,50.8h7v7h-7V50.8z M304.9,58.1h7v7h-7V58.1z
	 M304.9,65.3h7v7h-7V65.3z M304.9,72.6h7v7h-7V72.6z M304.9,79.9h7v7h-7V79.9z M304.9,87.1h7v7h-7V87.1z M304.9,94.4h7v7h-7V94.4z
	 M304.9,101.6h7v7h-7V101.6z M312.2,7.3h7v7h-7V7.3z M312.2,14.5h7v7h-7V14.5z M312.2,21.8h7v7h-7V21.8z M312.2,29h7v7h-7V29z
	 M312.2,36.3h7v7h-7V36.3z M312.2,43.6h7v7h-7V43.6z M312.2,50.8h7v7h-7V50.8z M312.2,58.1h7v7h-7V58.1z M312.2,65.3h7v7h-7V65.3z
	 M312.2,72.6h7v7h-7V72.6z M312.2,79.9h7v7h-7V79.9z M312.2,87.1h7v7h-7V87.1z M312.2,94.4h7v7h-7V94.4z M312.2,101.6h7v7h-7V101.6z
	 M319.4,7.3h7v7h-7V7.3z M319.4,14.5h7v7h-7V14.5z M319.4,21.8h7v7h-7V21.8z M319.4,29h7v7h-7V29z M319.4,36.3h7v7h-7V36.3z
	 M319.4,43.6h7v7h-7V43.6z M319.4,50.8h7v7h-7V50.8z M319.4,58.1h7v7h-7V58.1z M319.4,65.3h7v7h-7V65.3z M319.4,72.6h7v7h-7V72.6z
	 M319.4,79.9h7v7h-7V79.9z M319.4,87.1h7v7h-7V87.1z M319.4,94.4h7v7h-7V94.4z M319.4,101.6h7v7h-7V101.6z M326.7,7.3h7v7h-7V7.3z
	 M326.7,14.5h7v7h-7V14.5z M326.7,21.8h7v7h-7V21.8z M326.7,29h7v7h-7V29z M326.7,36.3h7v7h-7V36.3z M326.7,43.6h7v7h-7V43.6z
	 M326.7,50.8h7v7h-7V50.8z M326.7,58.1h7v7h-7V58.1z M326.7,65.3h7v7h-7V65.3z M326.7,72.6h7v7h-7V72.6z M326.7,79.9h7v7h-7V79.9z
	 M326.7,87.1h7v7h-7V87.1z M326.7,94.4h7v7h-7V94.4z M326.7,101.6h7v7h-7V101.6z M334,7.3h7v7h-7V7.3z M334,14.5h7v7h-7V14.5z
	 M334,21.8h7v7h-7V21.8z M334,29h7v7h-7V29z M334,36.3h7v7h-7V36.3z M334,43.6h7v7h-7V43.6z M334,50.8h7v7h-7V50.8z M334,58.1h7v7
	h-7V58.1z M334,65.3h7v7h-7V65.3z M334,72.6h7v7h-7V72.6z M334,79.9h7v7h-7V79.9z M334,87.1h7v7h-7V87.1z M334,94.4h7v7h-7V94.4z
	 M334,101.6h7v7h-7V101.6z M341.2,7.3h7v7h-7V7.3z M341.2,14.5h7v7h-7V14.5z M341.2,21.8h7v7h-7V21.8z M341.2,29h7v7h-7V29z
	 M341.2,36.3h7v7h-7V36.3z M341.2,43.6h7v7h-7V43.6z M341.2,50.8h7v7h-7V50.8z M341.2,58.1h7v7h-7V58.1z M341.2,65.3h7v7h-7V65.3z
	 M341.2,72.6h7v7h-7V72.6z M341.2,79.9h7v7h-7V79.9z M341.2,87.1h7v7h-7V87.1z M341.2,94.4h7v7h-7V94.4z M341.2,101.6h7v7h-7V101.6z
	 M348.5,7.3h7v7h-7V7.3z M348.5,14.5h7v7h-7V14.5z M348.5,21.8h7v7h-7V21.8z M348.5,29h7v7h-7V29z M348.5,36.3h7v7h-7V36.3z
	 M348.5,43.6h7v7h-7V43.6z M348.5,50.8h7v7h-7V50.8z M348.5,58.1h7v7h-7V58.1z M348.5,65.3h7v7h-7V65.3z M348.5,72.6h7v7h-7V72.6z
	 M348.5,79.9h7v7h-7V79.9z M348.5,87.1h7v7h-7V87.1z M348.5,94.4h7v7h-7V94.4z M348.5,101.6h7v7h-7V101.6z M355.7,7.3h7v7h-7V7.3z
	 M355.7,14.5h7v7h-7V14.5z M355.7,21.8h7v7h-7V21.8z M355.7,29h7v7h-7V29z M355.7,36.3h7v7h-7V36.3z M355.7,43.6h7v7h-7V43.6z
	 M355.7,50.8h7v7h-7V50.8z M355.7,58.1h7v7h-7V58.1z M355.7,65.3h7v7h-7V65.3z M355.7,72.6h7v7h-7V72.6z M355.7,79.9h7v7h-7V79.9z
	 M355.7,87.1h7v7h-7V87.1z M355.7,94.4h7v7h-7V94.4z M355.7,101.6h7v7h-7V101.6z M363,7.3h7v7h-7V7.3z M363,14.5h7v7h-7V14.5z
	 M363,21.8h7v7h-7V21.8z M363,29h7v7h-7V29z M363,36.3h7v7h-7V36.3z M363,43.6h7v7h-7V43.6z M363,50.8h7v7h-7V50.8z M363,58.1h7v7
	h-7V58.1z M363,65.3h7v7h-7V65.3z M363,72.6h7v7h-7V72.6z M363,79.9h7v7h-7V79.9z M363,87.1h7v7h-7V87.1z M363,94.4h7v7h-7V94.4z
	 M363,101.6h7v7h-7V101.6z M370.3,7.3h7v7h-7V7.3z M370.3,14.5h7v7h-7V14.5z M370.3,21.8h7v7h-7V21.8z M370.3,29h7v7h-7V29z
	 M370.3,36.3h7v7h-7V36.3z M370.3,43.6h7v7h-7V43.6z M370.3,50.8h7v7h-7V50.8z M370.3,58.1h7v7h-7V58.1z M370.3,65.3h7v7h-7V65.3z
	 M370.3,72.6h7v7h-7V72.6z M370.3,79.9h7v7h-7V79.9z M370.3,87.1h7v7h-7V87.1z M370.3,94.4h7v7h-7V94.4z M370.3,101.6h7v7h-7V101.6z
	 M377.5,7.3h7v7h-7V7.3z M377.5,14.5h7v7h-7V14.5z M377.5,21.8h7v7h-7V21.8z M377.5,29h7v7h-7V29z M377.5,36.3h7v7h-7V36.3z
	 M377.5,43.6h7v7h-7V43.6z M377.5,50.8h7v7h-7V50.8z M377.5,58.1h7v7h-7V58.1z M377.5,65.3h7v7h-7V65.3z M377.5,72.6h7v7h-7V72.6z
	 M377.5,79.9h7v7h-7V79.9z M377.5,87.1h7v7h-7V87.1z M377.5,94.4h7v7h-7V94.4z M377.5,101.6h7v7h-7V101.6z M384.8,7.3h7v7h-7V7.3z
	 M384.8,14.5h7v7h-7V14.5z M384.8,21.8h7v7h-7V21.8z M384.8,29h7v7h-7V29z M384.8,36.3h7v7h-7V36.3z M384.8,43.6h7v7h-7V43.6z
	 M384.8,50.8h7v7h-7V50.8z M384.8,58.1h7v7h-7V58.1z M384.8,65.3h7v7h-7V65.3z M384.8,72.6h7v7h-7V72.6z M384.8,79.9h7v7h-7V79.9z
	 M384.8,87.1h7v7h-7V87.1z M384.8,94.4h7v7h-7V94.4z M384.8,101.6h7v7h-7V101.6z M392,7.3h7v7h-7V7.3z M392,14.5h7v7h-7V14.5z
	 M392,21.8h7v7h-7V21.8z M392,29h7v7h-7V29z M392,36.3h7v7h-7V36.3z M392,43.6h7v7h-7V43.6z M392,50.8h7v7h-7V50.8z M392,58.1h7v7
	h-7V58.1z M392,65.3h7v7h-7V65.3z M392,72.6h7v7h-7V72.6z M392,79.9h7v7h-7V79.9z M392,87.1h7v7h-7V87.1z M392,94.4h7v7h-7V94.4z
	 M392,101.6h7v7h-7V101.6z M399.3,7.3h7v7h-7V7.3z M399.3,14.5h7v7h-7V14.5z M399.3,21.8h7v7h-7V21.8z M399.3,29h7v7h-7V29z
	 M399.3,36.3h7v7h-7V36.3z M399.3,43.6h7v7h-7V43.6z M399.3,50.8h7v7h-7V50.8z M399.3,58.1h7v7h-7V58.1z M399.3,65.3h7v7h-7V65.3z
	 M399.3,72.6h7v7h-7V72.6z M399.3,79.9h7v7h-7V79.9z M399.3,87.1h7v7h-7V87.1z M399.3,94.4h7v7h-7V94.4z M399.3,101.6h7v7h-7V101.6z
	 M406.6,7.3h7v7h-7V7.3z M406.6,14.5h7v7h-7V14.5z M406.6,21.8h7v7h-7V21.8z M406.6,29h7v7h-7V29z M406.6,36.3h7v7h-7V36.3z
	 M406.6,43.6h7v7h-7V43.6z M406.6,50.8h7v7h-7V50.8z M406.6,58.1h7v7h-7V58.1z M406.6,65.3h7v7h-7V65.3z M406.6,72.6h7v7h-7V72.6z
	 M406.6,79.9h7v7h-7V79.9z M406.6,87.1h7v7h-7V87.1z M406.6,94.4h7v7h-7V94.4z M406.6,101.6h7v7h-7V101.6z M413.8,7.3h7v7h-7V7.3z
	 M413.8,14.5h7v7h-7V14.5z M413.8,21.8h7v7h-7V21.8z M413.8,29h7v7h-7V29z M413.8,36.3h7v7h-7V36.3z M413.8,43.6h7v7h-7V43.6z
	 M413.8,50.8h7v7h-7V50.8z M413.8,58.1h7v7h-7V58.1z M413.8,65.3h7v7h-7V65.3z M413.8,72.6h7v7h-7V72.6z M413.8,79.9h7v7h-7V79.9z
	 M413.8,87.1h7v7h-7V87.1z M413.8,94.4h7v7h-7V94.4z M413.8,101.6h7v7h-7V101.6z M421.1,7.3h7v7h-7V7.3z M421.1,14.5h7v7h-7V14.5z
	 M421.1,21.8h7v7h-7V21.8z M421.1,29h7v7h-7V29z M421.1,36.3h7v7h-7V36.3z M421.1,43.6h7v7h-7V43.6z M421.1,50.8h7v7h-7V50.8z
	 M421.1,58.1h7v7h-7V58.1z M421.1,65.3h7v7h-7V65.3z M421.1,72.6h7v7h-7V72.6z M421.1,79.9h7v7h-7V79.9z M421.1,87.1h7v7h-7V87.1z
	 M421.1,94.4h7v7h-7V94.4z M421.1,101.6h7v7h-7V101.6z M428.3,7.3h7v7h-7V7.3z M428.3,14.5h7v7h-7V14.5z M428.3,21.8h7v7h-7V21.8z
	 M428.3,29h7v7h-7V29z M428.3,36.3h7v7h-7V36.3z M428.3,43.6h7v7h-7V43.6z M428.3,50.8h7v7h-7V50.8z M428.3,58.1h7v7h-7V58.1z
	 M428.3,65.3h7v7h-7V65.3z M428.3,72.6h7v7h-7V72.6z M428.3,79.9h7v7h-7V79.9z M428.3,87.1h7v7h-7V87.1z M428.3,94.4h7v7h-7V94.4z
	 M428.3,101.6h7v7h-7V101.6z M435.6,7.3h7v7h-7V7.3z M435.6,14.5h7v7h-7V14.5z M435.6,21.8h7v7h-7V21.8z M435.6,29h7v7h-7V29z
	 M435.6,36.3h7v7h-7V36.3z M435.6,43.6h7v7h-7V43.6z M435.6,50.8h7v7h-7V50.8z M435.6,58.1h7v7h-7V58.1z M435.6,65.3h7v7h-7V65.3z
	 M435.6,72.6h7v7h-7V72.6z M435.6,79.9h7v7h-7V79.9z M435.6,87.1h7v7h-7V87.1z M435.6,94.4h7v7h-7V94.4z M435.6,101.6h7v7h-7V101.6z
	 M442.9,7.3h7v7h-7V7.3z M442.9,14.5h7v7h-7V14.5z M442.9,21.8h7v7h-7V21.8z M442.9,29h7v7h-7V29z M442.9,36.3h7v7h-7V36.3z
	 M442.9,43.6h7v7h-7V43.6z M442.9,50.8h7v7h-7V50.8z M442.9,58.1h7v7h-7V58.1z M442.9,65.3h7v7h-7V65.3z M442.9,72.6h7v7h-7V72.6z
	 M442.9,79.9h7v7h-7V79.9z M442.9,87.1h7v7h-7V87.1z M442.9,94.4h7v7h-7V94.4z M442.9,101.6h7v7h-7V101.6z M450.1,7.3h7v7h-7V7.3z
	 M450.1,14.5h7v7h-7V14.5z M450.1,21.8h7v7h-7V21.8z M450.1,29h7v7h-7V29z M450.1,36.3h7v7h-7V36.3z M450.1,43.6h7v7h-7V43.6z
	 M450.1,50.8h7v7h-7V50.8z M450.1,58.1h7v7h-7V58.1z M450.1,65.3h7v7h-7V65.3z M450.1,72.6h7v7h-7V72.6z M450.1,79.9h7v7h-7V79.9z
	 M450.1,87.1h7v7h-7V87.1z M450.1,94.4h7v7h-7V94.4z M450.1,101.6h7v7h-7V101.6z M457.4,7.3h7v7h-7V7.3z M457.4,14.5h7v7h-7V14.5z
	 M457.4,21.8h7v7h-7V21.8z M457.4,29h7v7h-7V29z M457.4,36.3h7v7h-7V36.3z M457.4,43.6h7v7h-7V43.6z M457.4,50.8h7v7h-7V50.8z
	 M457.4,58.1h7v7h-7V58.1z M457.4,65.3h7v7h-7V65.3z M457.4,72.6h7v7h-7V72.6z M457.4,79.9h7v7h-7V79.9z M457.4,87.1h7v7h-7V87.1z
	 M457.4,94.4h7v7h-7V94.4z M457.4,101.6h7v7h-7V101.6z M464.6,7.3h7v7h-7V7.3z M464.6,14.5h7v7h-7V14.5z M464.6,21.8h7v7h-7V21.8z
	 M464.6,29h7v7h-7V29z M464.6,36.3h7v7h-7V36.3z M464.6,43.6h7v7h-7V43.6z M464.6,50.8h7v7h-7V50.8z M464.6,58.1h7v7h-7V58.1z
	 M464.6,65.3h7v7h-7V65.3z M464.6,72.6h7v7h-7V72.6z M464.6,79.9h7v7h-7V79.9z M464.6,87.1h7v7h-7V87.1z M464.6,94.4h7v7h-7V94.4z
	 M464.6,101.6h7v7h-7V101.6z M471.9,7.3h7v7h-7V7.3z M471.9,14.5h7v7h-7V14.5z M471.9,21.8h7v7h-7V21.8z M471.9,29h7v7h-7V29z
	 M471.9,36.3h7v7h-7V36.3z M471.9,43.6h7v7h-7V43.6z M471.9,50.8h7v7h-7V50.8z M471.9,58.1h7v7h-7V58.1z M471.9,65.3h7v7h-7V65.3z
	 M471.9,72.6h7v7h-7V72.6z M471.9,79.9h7v7h-7V79.9z M471.9,87.1h7v7h-7V87.1z M471.9,94.4h7v7h-7V94.4z M471.9,101.6h7v7h-7V101.6z
	 M479.2,7.3h7v7h-7V7.3z M479.2,14.5h7v7h-7V14.5z M479.2,21.8h7v7h-7V21.8z M479.2,29h7v7h-7V29z M479.2,36.3h7v7h-7V36.3z
	 M479.2,43.6h7v7h-7V43.6z M479.2,50.8h7v7h-7V50.8z M479.2,58.1h7v7h-7V58.1z M479.2,65.3h7v7h-7V65.3z M479.2,72.6h7v7h-7V72.6z
	 M479.2,79.9h7v7h-7V79.9z M479.2,87.1h7v7h-7V87.1z M479.2,94.4h7v7h-7V94.4z M479.2,101.6h7v7h-7V101.6z M486.4,7.3h7v7h-7V7.3z
	 M486.4,14.5h7v7h-7V14.5z M486.4,21.8h7v7h-7V21.8z M486.4,29h7v7h-7V29z M486.4,36.3h7v7h-7V36.3z M486.4,43.6h7v7h-7V43.6z
	 M486.4,50.8h7v7h-7V50.8z M486.4,58.1h7v7h-7V58.1z M486.4,65.3h7v7h-7V65.3z M486.4,72.6h7v7h-7V72.6z M486.4,79.9h7v7h-7V79.9z
	 M486.4,87.1h7v7h-7V87.1z M486.4,94.4h7v7h-7V94.4z M486.4,101.6h7v7h-7V101.6z M493.7,7.3h7v7h-7V7.3z M493.7,14.5h7v7h-7V14.5z
	 M493.7,21.8h7v7h-7V21.8z M493.7,29h7v7h-7V29z M493.7,36.3h7v7h-7V36.3z M493.7,43.6h7v7h-7V43.6z M493.7,50.8h7v7h-7V50.8z
	 M493.7,58.1h7v7h-7V58.1z M493.7,65.3h7v7h-7V65.3z M493.7,72.6h7v7h-7V72.6z M493.7,79.9h7v7h-7V79.9z M493.7,87.1h7v7h-7V87.1z
	 M493.7,94.4h7v7h-7V94.4z M493.7,101.6h7v7h-7V101.6z M500.9,7.3h7v7h-7V7.3z M500.9,14.5h7v7h-7V14.5z M500.9,21.8h7v7h-7V21.8z
	 M500.9,29h7v7h-7V29z M500.9,36.3h7v7h-7V36.3z M500.9,43.6h7v7h-7V43.6z M500.9,50.8h7v7h-7V50.8z M500.9,58.1h7v7h-7V58.1z
	 M500.9,65.3h7v7h-7V65.3z M500.9,72.6h7v7h-7V72.6z M500.9,79.9h7v7h-7V79.9z M500.9,87.1h7v7h-7V87.1z M500.9,94.4h7v7h-7V94.4z
	 M500.9,101.6h7v7h-7V101.6z M508.2,7.3h7v7h-7V7.3z M508.2,14.5h7v7h-7V14.5z M508.2,21.8h7v7h-7V21.8z M508.2,29h7v7h-7V29z
	 M508.2,36.3h7v7h-7V36.3z M508.2,43.6h7v7h-7V43.6z M508.2,50.8h7v7h-7V50.8z M508.2,58.1h7v7h-7V58.1z M508.2,65.3h7v7h-7V65.3z
	 M508.2,72.6h7v7h-7V72.6z M508.2,79.9h7v7h-7V79.9z M508.2,87.1h7v7h-7V87.1z M508.2,94.4h7v7h-7V94.4z M508.2,101.6h7v7h-7V101.6z
	 M515.5,7.3h7v7h-7V7.3z M515.5,14.5h7v7h-7V14.5z M515.5,21.8h7v7h-7V21.8z M515.5,29h7v7h-7V29z M515.5,36.3h7v7h-7V36.3z
	 M515.5,43.6h7v7h-7V43.6z M515.5,50.8h7v7h-7V50.8z M515.5,58.1h7v7h-7V58.1z M515.5,65.3h7v7h-7V65.3z M515.5,72.6h7v7h-7V72.6z
	 M515.5,79.9h7v7h-7V79.9z M515.5,87.1h7v7h-7V87.1z M515.5,94.4h7v7h-7V94.4z M515.5,101.6h7v7h-7V101.6z M522.7,7.3h7v7h-7V7.3z
	 M522.7,14.5h7v7h-7V14.5z M522.7,21.8h7v7h-7V21.8z M522.7,29h7v7h-7V29z M522.7,36.3h7v7h-7V36.3z M522.7,43.6h7v7h-7V43.6z
	 M522.7,50.8h7v7h-7V50.8z M522.7,58.1h7v7h-7V58.1z M522.7,65.3h7v7h-7V65.3z M522.7,72.6h7v7h-7V72.6z M522.7,79.9h7v7h-7V79.9z
	 M522.7,87.1h7v7h-7V87.1z M522.7,94.4h7v7h-7V94.4z M522.7,101.6h7v7h-7V101.6z M530,7.3h7v7h-7V7.3z M530,14.5h7v7h-7V14.5z
	 M530,21.8h7v7h-7V21.8z M530,29h7v7h-7V29z M530,36.3h7v7h-7V36.3z M530,43.6h7v7h-7V43.6z M530,50.8h7v7h-7V50.8z M530,58.1h7v7
	h-7V58.1z M530,65.3h7v7h-7V65.3z M530,72.6h7v7h-7V72.6z M530,79.9h7v7h-7V79.9z M530,87.1h7v7h-7V87.1z M530,94.4h7v7h-7V94.4z
	 M530,101.6h7v7h-7V101.6z M537.2,7.3h7v7h-7V7.3z M537.2,14.5h7v7h-7V14.5z M537.2,21.8h7v7h-7V21.8z M537.2,29h7v7h-7V29z
	 M537.2,36.3h7v7h-7V36.3z M537.2,43.6h7v7h-7V43.6z M537.2,50.8h7v7h-7V50.8z M537.2,58.1h7v7h-7V58.1z M537.2,65.3h7v7h-7V65.3z
	 M537.2,72.6h7v7h-7V72.6z M537.2,79.9h7v7h-7V79.9z M537.2,87.1h7v7h-7V87.1z M537.2,94.4h7v7h-7V94.4z M537.2,101.6h7v7h-7V101.6z
	 M544.5,7.3h7v7h-7V7.3z M544.5,14.5h7v7h-7V14.5z M544.5,21.8h7v7h-7V21.8z M544.5,29h7v7h-7V29z M544.5,36.3h7v7h-7V36.3z
	 M544.5,43.6h7v7h-7V43.6z M544.5,50.8h7v7h-7V50.8z M544.5,58.1h7v7h-7V58.1z M544.5,65.3h7v7h-7V65.3z M544.5,72.6h7v7h-7V72.6z
	 M544.5,79.9h7v7h-7V79.9z M544.5,87.1h7v7h-7V87.1z M544.5,94.4h7v7h-7V94.4z M544.5,101.6h7v7h-7V101.6z M551.8,7.3h7v7h-7V7.3z
	 M551.8,14.5h7v7h-7V14.5z M551.8,21.8h7v7h-7V21.8z M551.8,29h7v7h-7V29z M551.8,36.3h7v7h-7V36.3z M551.8,43.6h7v7h-7V43.6z
	 M551.8,50.8h7v7h-7V50.8z M551.8,58.1h7v7h-7V58.1z M551.8,65.3h7v7h-7V65.3z M551.8,72.6h7v7h-7V72.6z M551.8,79.9h7v7h-7V79.9z
	 M551.8,87.1h7v7h-7V87.1z M551.8,94.4h7v7h-7V94.4z M551.8,101.6h7v7h-7V101.6z M559,7.3h7v7h-7V7.3z M559,14.5h7v7h-7V14.5z
	 M559,21.8h7v7h-7V21.8z M559,29h7v7h-7V29z M559,36.3h7v7h-7V36.3z M559,43.6h7v7h-7V43.6z M559,50.8h7v7h-7V50.8z M559,58.1h7v7
	h-7V58.1z M559,65.3h7v7h-7V65.3z M559,72.6h7v7h-7V72.6z M559,79.9h7v7h-7V79.9z M559,87.1h7v7h-7V87.1z M559,94.4h7v7h-7V94.4z
	 M559,101.6h7v7h-7V101.6z M566.3,7.3h7v7h-7V7.3z M566.3,14.5h7v7h-7V14.5z M566.3,21.8h7v7h-7V21.8z M566.3,29h7v7h-7V29z
	 M566.3,36.3h7v7h-7V36.3z M566.3,43.6h7v7h-7V43.6z M566.3,50.8h7v7h-7V50.8z M566.3,58.1h7v7h-7V58.1z M566.3,65.3h7v7h-7V65.3z
	 M566.3,72.6h7v7h-7V72.6z M566.3,79.9h7v7h-7V79.9z M566.3,87.1h7v7h-7V87.1z M566.3,94.4h7v7h-7V94.4z M566.3,101.6h7v7h-7V101.6z
	 M573.5,7.3h7v7h-7V7.3z M573.5,14.5h7v7h-7V14.5z M573.5,21.8h7v7h-7V21.8z M573.5,29h7v7h-7V29z M573.5,36.3h7v7h-7V36.3z
	 M573.5,43.6h7v7h-7V43.6z M573.5,50.8h7v7h-7V50.8z M573.5,58.1h7v7h-7V58.1z M573.5,65.3h7v7h-7V65.3z M573.5,72.6h7v7h-7V72.6z
	 M573.5,79.9h7v7h-7V79.9z M573.5,87.1h7v7h-7V87.1z M573.5,94.4h7v7h-7V94.4z M573.5,101.6h7v7h-7V101.6z M580.8,7.3h7v7h-7V7.3z
	 M580.8,14.5h7v7h-7V14.5z M580.8,21.8h7v7h-7V21.8z M580.8,29h7v7h-7V29z M580.8,36.3h7v7h-7V36.3z M580.8,43.6h7v7h-7V43.6z
	 M580.8,50.8h7v7h-7V50.8z M580.8,58.1h7v7h-7V58.1z M580.8,65.3h7v7h-7V65.3z M580.8,72.6h7v7h-7V72.6z M580.8,79.9h7v7h-7V79.9z
	 M580.8,87.1h7v7h-7V87.1z M580.8,94.4h7v7h-7V94.4z M580.8,101.6h7v7h-7V101.6z M588.1,7.3h7v7h-7V7.3z M588.1,14.5h7v7h-7V14.5z
	 M588.1,21.8h7v7h-7V21.8z M588.1,29h7v7h-7V29z M588.1,36.3h7v7h-7V36.3z M588.1,43.6h7v7h-7V43.6z M588.1,50.8h7v7h-7V50.8z
	 M588.1,58.1h7v7h-7V58.1z M588.1,65.3h7v7h-7V65.3z M588.1,72.6h7v7h-7V72.6z M588.1,79.9h7v7h-7V79.9z M588.1,87.1h7v7h-7V87.1z
	 M588.1,94.4h7v7h-7V94.4z M588.1,101.6h7v7h-7V101.6z M595.3,7.3h7v7h-7V7.3z M595.3,14.5h7v7h-7V14.5z M595.3,21.8h7v7h-7V21.8z
	 M595.3,29h7v7h-7V29z M595.3,36.3h7v7h-7V36.3z M595.3,43.6h7v7h-7V43.6z M595.3,50.8h7v7h-7V50.8z M595.3,58.1h7v7h-7V58.1z
	 M595.3,65.3h7v7h-7V65.3z M595.3,72.6h7v7h-7V72.6z M595.3,79.9h7v7h-7V79.9z M595.3,87.1h7v7h-7V87.1z M595.3,94.4h7v7h-7V94.4z
	 M595.3,101.6h7v7h-7V101.6z M602.6,7.3h7v7h-7V7.3z M602.6,14.5h7v7h-7V14.5z M602.6,21.8h7v7h-7V21.8z M602.6,29h7v7h-7V29z
	 M602.6,36.3h7v7h-7V36.3z M602.6,43.6h7v7h-7V43.6z M602.6,50.8h7v7h-7V50.8z M602.6,58.1h7v7h-7V58.1z M602.6,65.3h7v7h-7V65.3z
	 M602.6,72.6h7v7h-7V72.6z M602.6,79.9h7v7h-7V79.9z M602.6,87.1h7v7h-7V87.1z M602.6,94.4h7v7h-7V94.4z M602.6,101.6h7v7h-7V101.6z
	 M609.8,7.3h7v7h-7V7.3z M609.8,14.5h7v7h-7V14.5z M609.8,21.8h7v7h-7V21.8z M609.8,29h7v7h-7V29z M609.8,36.3h7v7h-7V36.3z
	 M609.8,43.6h7v7h-7V43.6z M609.8,50.8h7v7h-7V50.8z M609.8,58.1h7v7h-7V58.1z M609.8,65.3h7v7h-7V65.3z M609.8,72.6h7v7h-7V72.6z
	 M609.8,79.9h7v7h-7V79.9z M609.8,87.1h7v7h-7V87.1z M609.8,94.4h7v7h-7V94.4z M609.8,101.6h7v7h-7V101.6z M617.1,7.3h7v7h-7V7.3z
	 M617.1,14.5h7v7h-7V14.5z M617.1,21.8h7v7h-7V21.8z M617.1,29h7v7h-7V29z M617.1,36.3h7v7h-7V36.3z M617.1,43.6h7v7h-7V43.6z
	 M617.1,50.8h7v7h-7V50.8z M617.1,58.1h7v7h-7V58.1z M617.1,65.3h7v7h-7V65.3z M617.1,72.6h7v7h-7V72.6z M617.1,79.9h7v7h-7V79.9z
	 M617.1,87.1h7v7h-7V87.1z M617.1,94.4h7v7h-7V94.4z M617.1,101.6h7v7h-7V101.6z M624.4,7.3h7v7h-7V7.3z M624.4,14.5h7v7h-7V14.5z
	 M624.4,21.8h7v7h-7V21.8z M624.4,29h7v7h-7V29z M624.4,36.3h7v7h-7V36.3z M624.4,43.6h7v7h-7V43.6z M624.4,50.8h7v7h-7V50.8z
	 M624.4,58.1h7v7h-7V58.1z M624.4,65.3h7v7h-7V65.3z M624.4,72.6h7v7h-7V72.6z M624.4,79.9h7v7h-7V79.9z M624.4,87.1h7v7h-7V87.1z
	 M624.4,94.4h7v7h-7V94.4z M624.4,101.6h7v7h-7V101.6z M631.6,7.3h7v7h-7V7.3z M631.6,14.5h7v7h-7V14.5z M631.6,21.8h7v7h-7V21.8z
	 M631.6,29h7v7h-7V29z M631.6,36.3h7v7h-7V36.3z M631.6,43.6h7v7h-7V43.6z M631.6,50.8h7v7h-7V50.8z M631.6,58.1h7v7h-7V58.1z
	 M631.6,65.3h7v7h-7V65.3z M631.6,72.6h7v7h-7V72.6z M631.6,79.9h7v7h-7V79.9z M631.6,87.1h7v7h-7V87.1z M631.6,94.4h7v7h-7V94.4z
	 M631.6,101.6h7v7h-7V101.6z M638.9,7.3h7v7h-7V7.3z M638.9,14.5h7v7h-7V14.5z M638.9,21.8h7v7h-7V21.8z M638.9,29h7v7h-7V29z
	 M638.9,36.3h7v7h-7V36.3z M638.9,43.6h7v7h-7V43.6z M638.9,50.8h7v7h-7V50.8z M638.9,58.1h7v7h-7V58.1z M638.9,65.3h7v7h-7V65.3z
	 M638.9,72.6h7v7h-7V72.6z M638.9,79.9h7v7h-7V79.9z M638.9,87.1h7v7h-7V87.1z M638.9,94.4h7v7h-7V94.4z M638.9,101.6h7v7h-7V101.6z
	 M646.1,7.3h7v7h-7V7.3z M646.1,14.5h7v7h-7V14.5z M646.1,21.8h7v7h-7V21.8z M646.1,29h7v7h-7V29z M646.1,36.3h7v7h-7V36.3z
	 M646.1,43.6h7v7h-7V43.6z M646.1,50.8h7v7h-7V50.8z M646.1,58.1h7v7h-7V58.1z M646.1,65.3h7v7h-7V65.3z M646.1,72.6h7v7h-7V72.6z
	 M646.1,79.9h7v7h-7V79.9z M646.1,87.1h7v7h-7V87.1z M646.1,94.4h7v7h-7V94.4z M646.1,101.6h7v7h-7V101.6z M653.4,7.3h7v7h-7V7.3z
	 M653.4,14.5h7v7h-7V14.5z M653.4,21.8h7v7h-7V21.8z M653.4,29h7v7h-7V29z M653.4,36.3h7v7h-7V36.3z M653.4,43.6h7v7h-7V43.6z
	 M653.4,50.8h7v7h-7V50.8z M653.4,58.1h7v7h-7V58.1z M653.4,65.3h7v7h-7V65.3z M653.4,72.6h7v7h-7V72.6z M653.4,79.9h7v7h-7V79.9z
	 M653.4,87.1h7v7h-7V87.1z M653.4,94.4h7v7h-7V94.4z M653.4,101.6h7v7h-7V101.6z M660.7,7.3h7v7h-7V7.3z M660.7,14.5h7v7h-7V14.5z
	 M660.7,21.8h7v7h-7V21.8z M660.7,29h7v7h-7V29z M660.7,36.3h7v7h-7V36.3z M660.7,43.6h7v7h-7V43.6z M660.7,50.8h7v7h-7V50.8z
	 M660.7,58.1h7v7h-7V58.1z M660.7,65.3h7v7h-7V65.3z M660.7,72.6h7v7h-7V72.6z M660.7,79.9h7v7h-7V79.9z M660.7,87.1h7v7h-7V87.1z
	 M660.7,94.4h7v7h-7V94.4z M660.7,101.6h7v7h-7V101.6z M667.9,7.3h7v7h-7V7.3z M667.9,14.5h7v7h-7V14.5z M667.9,21.8h7v7h-7V21.8z
	 M667.9,29h7v7h-7V29z M667.9,36.3h7v7h-7V36.3z M667.9,43.6h7v7h-7V43.6z M667.9,50.8h7v7h-7V50.8z M667.9,58.1h7v7h-7V58.1z
	 M667.9,65.3h7v7h-7V65.3z M667.9,72.6h7v7h-7V72.6z M667.9,79.9h7v7h-7V79.9z M667.9,87.1h7v7h-7V87.1z M667.9,94.4h7v7h-7V94.4z
	 M667.9,101.6h7v7h-7V101.6z M675.2,7.3h7v7h-7V7.3z M675.2,14.5h7v7h-7V14.5z M675.2,21.8h7v7h-7V21.8z M675.2,29h7v7h-7V29z
	 M675.2,36.3h7v7h-7V36.3z M675.2,43.6h7v7h-7V43.6z M675.2,50.8h7v7h-7V50.8z M675.2,58.1h7v7h-7V58.1z M675.2,65.3h7v7h-7V65.3z
	 M675.2,72.6h7v7h-7V72.6z M675.2,79.9h7v7h-7V79.9z M675.2,87.1h7v7h-7V87.1z M675.2,94.4h7v7h-7V94.4z M675.2,101.6h7v7h-7V101.6z
	 M682.4,7.3h7v7h-7V7.3z M682.4,14.5h7v7h-7V14.5z M682.4,21.8h7v7h-7V21.8z M682.4,29h7v7h-7V29z M682.4,36.3h7v7h-7V36.3z
	 M682.4,43.6h7v7h-7V43.6z M682.4,50.8h7v7h-7V50.8z M682.4,58.1h7v7h-7V58.1z M682.4,65.3h7v7h-7V65.3z M682.4,72.6h7v7h-7V72.6z
	 M682.4,79.9h7v7h-7V79.9z M682.4,87.1h7v7h-7V87.1z M682.4,94.4h7v7h-7V94.4z M682.4,101.6h7v7h-7V101.6z M689.7,7.3h7v7h-7V7.3z
	 M689.7,14.5h7v7h-7V14.5z M689.7,21.8h7v7h-7V21.8z M689.7,29h7v7h-7V29z M689.7,36.3h7v7h-7V36.3z M689.7,43.6h7v7h-7V43.6z
	 M689.7,50.8h7v7h-7V50.8z M689.7,58.1h7v7h-7V58.1z M689.7,65.3h7v7h-7V65.3z M689.7,72.6h7v7h-7V72.6z M689.7,79.9h7v7h-7V79.9z
	 M689.7,87.1h7v7h-7V87.1z M689.7,94.4h7v7h-7V94.4z M689.7,101.6h7v7h-7V101.6z M697,7.3h7v7h-7V7.3z M697,14.5h7v7h-7V14.5z
	 M697,21.8h7v7h-7V21.8z M697,29h7v7h-7V29z M697,36.3h7v7h-7V36.3z M697,43.6h7v7h-7V43.6z M697,50.8h7v7h-7V50.8z M697,58.1h7v7
	h-7V58.1z M697,65.3h7v7h-7V65.3z M697,72.6h7v7h-7V72.6z M697,79.9h7v7h-7V79.9z M697,87.1h7v7h-7V87.1z M697,94.4h7v7h-7V94.4z
	 M697,101.6h7v7h-7V101.6z M704.2,7.3h7v7h-7V7.3z M704.2,14.5h7v7h-7V14.5z M704.2,21.8h7v7h-7V21.8z M704.2,29h7v7h-7V29z
	 M704.2,36.3h7v7h-7V36.3z M704.2,43.6h7v7h-7V43.6z M704.2,50.8h7v7h-7V50.8z M704.2,58.1h7v7h-7V58.1z M704.2,65.3h7v7h-7V65.3z
	 M704.2,72.6h7v7h-7V72.6z M704.2,79.9h7v7h-7V79.9z M704.2,87.1h7v7h-7V87.1z M704.2,94.4h7v7h-7V94.4z M704.2,101.6h7v7h-7V101.6z
	 M711.5,7.3h7v7h-7V7.3z M711.5,14.5h7v7h-7V14.5z M711.5,21.8h7v7h-7V21.8z M711.5,29h7v7h-7V29z M711.5,36.3h7v7h-7V36.3z
	 M711.5,43.6h7v7h-7V43.6z M711.5,50.8h7v7h-7V50.8z M711.5,58.1h7v7h-7V58.1z M711.5,65.3h7v7h-7V65.3z M711.5,72.6h7v7h-7V72.6z
	 M711.5,79.9h7v7h-7V79.9z M711.5,87.1h7v7h-7V87.1z M711.5,94.4h7v7h-7V94.4z M711.5,101.6h7v7h-7V101.6z M718.7,7.3h7v7h-7V7.3z
	 M718.7,14.5h7v7h-7V14.5z M718.7,21.8h7v7h-7V21.8z M718.7,29h7v7h-7V29z M718.7,36.3h7v7h-7V36.3z M718.7,43.6h7v7h-7V43.6z
	 M718.7,50.8h7v7h-7V50.8z M718.7,58.1h7v7h-7V58.1z M718.7,65.3h7v7h-7V65.3z M718.7,72.6h7v7h-7V72.6z M718.7,79.9h7v7h-7V79.9z
	 M718.7,87.1h7v7h-7V87.1z M718.7,94.4h7v7h-7V94.4z M718.7,101.6h7v7h-7V101.6z M726,7.3h7v7h-7V7.3z M726,14.5h7v7h-7V14.5z
	 M726,21.8h7v7h-7V21.8z M726,29h7v7h-7V29z M726,36.3h7v7h-7V36.3z M726,43.6h7v7h-7V43.6z M726,50.8h7v7h-7V50.8z M726,58.1h7v7
	h-7V58.1z M726,65.3h7v7h-7V65.3z M726,72.6h7v7h-7V72.6z M726,79.9h7v7h-7V79.9z M726,87.1h7v7h-7V87.1z M726,94.4h7v7h-7V94.4z
	 M726,101.6h7v7h-7V101.6z M733.3,7.3h7v7h-7V7.3z M733.3,14.5h7v7h-7V14.5z M733.3,21.8h7v7h-7V21.8z M733.3,29h7v7h-7V29z
	 M733.3,36.3h7v7h-7V36.3z M733.3,43.6h7v7h-7V43.6z M733.3,50.8h7v7h-7V50.8z M733.3,58.1h7v7h-7V58.1z M733.3,65.3h7v7h-7V65.3z
	 M733.3,72.6h7v7h-7V72.6z M733.3,79.9h7v7h-7V79.9z M733.3,87.1h7v7h-7V87.1z M733.3,94.4h7v7h-7V94.4z M733.3,101.6h7v7h-7V101.6z
	 M740.5,7.3h7v7h-7V7.3z M740.5,14.5h7v7h-7V14.5z M740.5,21.8h7v7h-7V21.8z M740.5,29h7v7h-7V29z M740.5,36.3h7v7h-7V36.3z
	 M740.5,43.6h7v7h-7V43.6z M740.5,50.8h7v7h-7V50.8z M740.5,58.1h7v7h-7V58.1z M740.5,65.3h7v7h-7V65.3z M740.5,72.6h7v7h-7V72.6z
	 M740.5,79.9h7v7h-7V79.9z M740.5,87.1h7v7h-7V87.1z M740.5,94.4h7v7h-7V94.4z M740.5,101.6h7v7h-7V101.6z M747.8,7.3h7v7h-7V7.3z
	 M747.8,14.5h7v7h-7V14.5z M747.8,21.8h7v7h-7V21.8z M747.8,29h7v7h-7V29z M747.8,36.3h7v7h-7V36.3z M747.8,43.6h7v7h-7V43.6z
	 M747.8,50.8h7v7h-7V50.8z M747.8,58.1h7v7h-7V58.1z M747.8,65.3h7v7h-7V65.3z M747.8,72.6h7v7h-7V72.6z M747.8,79.9h7v7h-7V79.9z
	 M747.8,87.1h7v7h-7V87.1z M747.8,94.4h7v7h-7V94.4z M747.8,101.6h7v7h-7V101.6z M755,7.3h7v7h-7V7.3z M755,14.5h7v7h-7V14.5z
	 M755,21.8h7v7h-7V21.8z M755,29h7v7h-7V29z M755,36.3h7v7h-7V36.3z M755,43.6h7v7h-7V43.6z M755,50.8h7v7h-7V50.8z M755,58.1h7v7
	h-7V58.1z M755,65.3h7v7h-7V65.3z M755,72.6h7v7h-7V72.6z M755,79.9h7v7h-7V79.9z M755,87.1h7v7h-7V87.1z M755,94.4h7v7h-7V94.4z
	 M755,101.6h7v7h-7V101.6z M762.3,7.3h7v7h-7V7.3z M762.3,14.5h7v7h-7V14.5z M762.3,21.8h7v7h-7V21.8z M762.3,29h7v7h-7V29z
	 M762.3,36.3h7v7h-7V36.3z M762.3,43.6h7v7h-7V43.6z M762.3,50.8h7v7h-7V50.8z M762.3,58.1h7v7h-7V58.1z M762.3,65.3h7v7h-7V65.3z
	 M762.3,72.6h7v7h-7V72.6z M762.3,79.9h7v7h-7V79.9z M762.3,87.1h7v7h-7V87.1z M762.3,94.4h7v7h-7V94.4z M762.3,101.6h7v7h-7V101.6z
	 M769.6,7.3h7v7h-7V7.3z M769.6,14.5h7v7h-7V14.5z M769.6,21.8h7v7h-7V21.8z M769.6,29h7v7h-7V29z M769.6,36.3h7v7h-7V36.3z
	 M769.6,43.6h7v7h-7V43.6z M769.6,50.8h7v7h-7V50.8z M769.6,58.1h7v7h-7V58.1z M769.6,65.3h7v7h-7V65.3z M769.6,72.6h7v7h-7V72.6z
	 M769.6,79.9h7v7h-7V79.9z M769.6,87.1h7v7h-7V87.1z M769.6,94.4h7v7h-7V94.4z M769.6,101.6h7v7h-7V101.6z M776.8,7.3h7v7h-7V7.3z
	 M776.8,14.5h7v7h-7V14.5z M776.8,21.8h7v7h-7V21.8z M776.8,29h7v7h-7V29z M776.8,36.3h7v7h-7V36.3z M776.8,43.6h7v7h-7V43.6z
	 M776.8,50.8h7v7h-7V50.8z M776.8,58.1h7v7h-7V58.1z M776.8,65.3h7v7h-7V65.3z M776.8,72.6h7v7h-7V72.6z M776.8,79.9h7v7h-7V79.9z
	 M776.8,87.1h7v7h-7V87.1z M776.8,94.4h7v7h-7V94.4z M776.8,101.6h7v7h-7V101.6z M784.1,7.3h7v7h-7V7.3z M784.1,14.5h7v7h-7V14.5z
	 M784.1,21.8h7v7h-7V21.8z M784.1,29h7v7h-7V29z M784.1,36.3h7v7h-7V36.3z M784.1,43.6h7v7h-7V43.6z M784.1,50.8h7v7h-7V50.8z
	 M784.1,58.1h7v7h-7V58.1z M784.1,65.3h7v7h-7V65.3z M784.1,72.6h7v7h-7V72.6z M784.1,79.9h7v7h-7V79.9z M784.1,87.1h7v7h-7V87.1z
	 M784.1,94.4h7v7h-7V94.4z M784.1,101.6h7v7h-7V101.6z M791.3,7.3h7v7h-7V7.3z M791.3,14.5h7v7h-7V14.5z M791.3,21.8h7v7h-7V21.8z
	 M791.3,29h7v7h-7V29z M791.3,36.3h7v7h-7V36.3z M791.3,43.6h7v7h-7V43.6z M791.3,50.8h7v7h-7V50.8z M791.3,58.1h7v7h-7V58.1z
	 M791.3,65.3h7v7h-7V65.3z M791.3,72.6h7v7h-7V72.6z M791.3,79.9h7v7h-7V79.9z M791.3,87.1h7v7h-7V87.1z M791.3,94.4h7v7h-7V94.4z
	 M791.3,101.6h7v7h-7V101.6z"/>
</svg>
