<?xml version="1.0" encoding="utf-8"?>
<!-- Generator: Adobe Illustrator 27.3.1, SVG Export Plug-In . SVG Version: 6.00 Build 0)  -->
<svg version="1.1" id="Слой_1" xmlns="http://www.w3.org/2000/svg" xmlns:xlink="http://www.w3.org/1999/xlink" x="0px" y="0px"
	 viewBox="0 0 805.6 115.9" style="enable-background:new 0 0 805.6 115.9;" xml:space="preserve">
<style type="text/css">
	.st0{fill:#1E0E01;}
</style>
<path class="st0" d="M0,0h7v7H0V0z M0,7.3h7v7H0V7.3z M0,14.5h7v7H0V14.5z M0,21.8h7v7H0V21.8z M0,29h7v7H0V29z M0,36.3h7v7H0V36.3z
	 M0,43.6h7v7H0V43.6z M0,50.8h7v7H0V50.8z M0,58.1h7v7H0V58.1z M0,65.3h7v7H0V65.3z M0,72.6h7v7H0V72.6z M0,79.9h7v7H0V79.9z
	 M0,87.1h7v7H0V87.1z M0,94.4h7v7H0V94.4z M0,101.6h7v7H0V101.6z M7.2,0h7v7h-7V0z M14.5,0h7v7h-7V0z M21.8,0h7v7h-7V0z M29,0h7v7
	h-7V0z M36.3,0h7v7h-7V0z M43.5,0h7v7h-7V0z M50.8,0h7v7h-7V0z M58.1,0h7v7h-7V0z M65.3,0h7v7h-7V0z M72.6,0h7v7h-7V0z M79.8,0h7v7
	h-7V0z M87.1,0h7v7h-7V0z M94.4,0h7v7h-7V0z M101.6,0h7v7h-7V0z M108.9,0h7v7h-7V0z M116.1,0h7v7h-7V0z M123.4,0h7v7h-7V0z M130.7,0
	h7v7h-7V0z M137.9,0h7v7h-7V0z M145.2,0h7v7h-7V0z M152.4,0h7v7h-7V0z M159.7,0h7v7h-7V0z M167,0h7v7h-7V0z M174.2,0h7v7h-7V0z
	 M181.5,0h7v7h-7V0z M188.7,0h7v7h-7V0z M196,0h7v7h-7V0z M203.3,0h7v7h-7V0z M210.5,0h7v7h-7V0z M217.8,0h7v7h-7V0z M225,0h7v7h-7
	V0z M232.3,0h7v7h-7V0z M239.6,0h7v7h-7V0z M246.8,0h7v7h-7V0z M254.1,0h7v7h-7V0z M261.3,0h7v7h-7V0z M268.6,0h7v7h-7V0z M275.9,0
	h7v7h-7V0z M283.1,0h7v7h-7V0z M290.4,0h7v7h-7V0z M297.6,0h7v7h-7V0z M304.9,0h7v7h-7V0z M312.2,0h7v7h-7V0z M319.4,0h7v7h-7V0z
	 M326.7,0h7v7h-7V0z M333.9,0h7v7h-7V0z M341.2,0h7v7h-7V0z M348.5,0h7v7h-7V0z M355.7,0h7v7h-7V0z M363,0h7v7h-7V0z M370.2,0h7v7
	h-7V0z M377.5,0h7v7h-7V0z M384.8,0h7v7h-7V0z M392,0h7v7h-7V0z M399.3,0h7v7h-7V0z M406.5,0h7v7h-7V0z M413.8,0h7v7h-7V0z M421.1,0
	h7v7h-7V0z M428.3,0h7v7h-7V0z M435.6,0h7v7h-7V0z M442.8,0h7v7h-7V0z M450.1,0h7v7h-7V0z M457.4,0h7v7h-7V0z M464.6,0h7v7h-7V0z
	 M471.9,0h7v7h-7V0z M479.1,0h7v7h-7V0z M486.4,0h7v7h-7V0z M493.7,0h7v7h-7V0z M500.9,0h7v7h-7V0z M508.2,0h7v7h-7V0z M515.4,0h7v7
	h-7V0z M522.7,0h7v7h-7V0z M530,0h7v7h-7V0z M537.2,0h7v7h-7V0z M544.5,0h7v7h-7V0z M551.7,0h7v7h-7V0z M559,0h7v7h-7V0z M566.3,0h7
	v7h-7V0z M573.5,0h7v7h-7V0z M580.8,0h7v7h-7V0z M588,0h7v7h-7V0z M595.3,0h7v7h-7V0z M602.6,0h7v7h-7V0z M609.8,0h7v7h-7V0z
	 M617.1,0h7v7h-7V0z M624.3,0h7v7h-7V0z M631.6,0h7v7h-7V0z M638.9,0h7v7h-7V0z M646.1,0h7v7h-7V0z M653.4,0h7v7h-7V0z M660.6,0h7v7
	h-7V0z M667.9,0h7v7h-7V0z M675.2,0h7v7h-7V0z M682.4,0h7v7h-7V0z M689.7,0h7v7h-7V0z M696.9,0h7v7h-7V0z M704.2,0h7v7h-7V0z
	 M711.5,0h7v7h-7V0z M718.7,0h7v7h-7V0z M726,0h7v7h-7V0z M733.2,0h7v7h-7V0z M740.5,0h7v7h-7V0z M747.8,0h7v7h-7V0z M755,0h7v7h-7
	V0z M762.3,0h7v7h-7V0z M769.5,0h7v7h-7V0z M776.8,0h7v7h-7V0z M784.1,0h7v7h-7V0z M798.6,7.2h7v7h-7V7.2z M798.6,14.4h7v7h-7V14.4z
	 M798.6,21.7h7v7h-7V21.7z M798.6,28.9h7v7h-7V28.9z M798.6,36.2h7v7h-7V36.2z M798.6,43.5h7v7h-7V43.5z M798.6,50.7h7v7h-7V50.7z
	 M798.6,58h7v7h-7V58z M798.6,65.2h7v7h-7V65.2z M798.6,72.5h7v7h-7V72.5z M798.6,79.8h7v7h-7V79.8z M798.6,87h7v7h-7V87z
	 M798.6,94.3h7v7h-7V94.3z M7.3,108.9h7v7h-7V108.9z M0,108.9h7v7H0V108.9z M14.5,108.9h7v7h-7V108.9z M21.8,108.9h7v7h-7V108.9z
	 M29,108.9h7v7h-7V108.9z M36.3,108.9h7v7h-7V108.9z M43.6,108.9h7v7h-7V108.9z M50.8,108.9h7v7h-7V108.9z M58.1,108.9h7v7h-7V108.9
	z M65.3,108.9h7v7h-7V108.9z M72.6,108.9h7v7h-7V108.9z M79.9,108.9h7v7h-7V108.9z M87.1,108.9h7v7h-7V108.9z M94.4,108.9h7v7h-7
	V108.9z M101.6,108.9h7v7h-7V108.9z M108.9,108.9h7v7h-7V108.9z M116.2,108.9h7v7h-7V108.9z M123.4,108.9h7v7h-7V108.9z
	 M130.7,108.9h7v7h-7V108.9z M137.9,108.9h7v7h-7V108.9z M145.2,108.9h7v7h-7V108.9z M152.5,108.9h7v7h-7V108.9z M159.7,108.9h7v7
	h-7V108.9z M167,108.9h7v7h-7V108.9z M174.2,108.9h7v7h-7V108.9z M181.5,108.9h7v7h-7V108.9z M188.8,108.9h7v7h-7V108.9z M196,108.9
	h7v7h-7V108.9z M203.3,108.9h7v7h-7V108.9z M210.5,108.9h7v7h-7V108.9z M217.8,108.9h7v7h-7V108.9z M225.1,108.9h7v7h-7V108.9z
	 M232.3,108.9h7v7h-7V108.9z M239.6,108.9h7v7h-7V108.9z M246.8,108.9h7v7h-7V108.9z M254.1,108.9h7v7h-7V108.9z M261.4,108.9h7v7
	h-7V108.9z M268.6,108.9h7v7h-7V108.9z M275.9,108.9h7v7h-7V108.9z M283.2,108.9h7v7h-7V108.9z M290.4,108.9h7v7h-7V108.9z
	 M297.7,108.9h7v7h-7V108.9z M304.9,108.9h7v7h-7V108.9z M312.2,108.9h7v7h-7V108.9z M319.4,108.9h7v7h-7V108.9z M326.7,108.9h7v7
	h-7V108.9z M334,108.9h7v7h-7V108.9z M341.2,108.9h7v7h-7V108.9z M348.5,108.9h7v7h-7V108.9z M355.7,108.9h7v7h-7V108.9z M363,108.9
	h7v7h-7V108.9z M370.3,108.9h7v7h-7V108.9z M377.5,108.9h7v7h-7V108.9z M384.8,108.9h7v7h-7V108.9z M392,108.9h7v7h-7V108.9z
	 M399.3,108.9h7v7h-7V108.9z M406.6,108.9h7v7h-7V108.9z M413.8,108.9h7v7h-7V108.9z M421.1,108.9h7v7h-7V108.9z M428.3,108.9h7v7
	h-7V108.9z M435.6,108.9h7v7h-7V108.9z M442.9,108.9h7v7h-7V108.9z M450.1,108.9h7v7h-7V108.9z M457.4,108.9h7v7h-7V108.9z
	 M464.6,108.9h7v7h-7V108.9z M471.9,108.9h7v7h-7V108.9z M479.2,108.9h7v7h-7V108.9z M486.4,108.9h7v7h-7V108.9z M493.7,108.9h7v7
	h-7V108.9z M500.9,108.9h7v7h-7V108.9z M508.2,108.9h7v7h-7V108.9z M515.5,108.9h7v7h-7V108.9z M522.7,108.9h7v7h-7V108.9z
	 M530,108.9h7v7h-7V108.9z M537.2,108.9h7v7h-7V108.9z M544.5,108.9h7v7h-7V108.9z M551.8,108.9h7v7h-7V108.9z M559,108.9h7v7h-7
	V108.9z M566.3,108.9h7v7h-7V108.9z M573.5,108.9h7v7h-7V108.9z M580.8,108.9h7v7h-7V108.9z M588.1,108.9h7v7h-7V108.9z
	 M595.3,108.9h7v7h-7V108.9z M602.6,108.9h7v7h-7V108.9z M609.9,108.9h7v7h-7V108.9z M617.1,108.9h7v7h-7V108.9z M624.4,108.9h7v7
	h-7V108.9z M631.6,108.9h7v7h-7V108.9z M638.9,108.9h7v7h-7V108.9z M646.2,108.9h7v7h-7V108.9z M653.4,108.9h7v7h-7V108.9z
	 M660.7,108.9h7v7h-7V108.9z M667.9,108.9h7v7h-7V108.9z M675.2,108.9h7v7h-7V108.9z M682.4,108.9h7v7h-7V108.9z M689.7,108.9h7v7
	h-7V108.9z M697,108.9h7v7h-7V108.9z M704.2,108.9h7v7h-7V108.9z M711.5,108.9h7v7h-7V108.9z M718.7,108.9h7v7h-7V108.9z M726,108.9
	h7v7h-7V108.9z M733.3,108.9h7v7h-7V108.9z M740.5,108.9h7v7h-7V108.9z M747.8,108.9h7v7h-7V108.9z M755,108.9h7v7h-7V108.9z
	 M762.3,108.9h7v7h-7V108.9z M769.6,108.9h7v7h-7V108.9z M776.8,108.9h7v7h-7V108.9z M784.1,108.9h7v7h-7V108.9z M798.7,101.5h7v7
	h-7V101.5z M791.4,0h7v7h-7V0z M791.4,108.9h7v7h-7V108.9z M798.6,0h7v7h-7V0z M798.6,108.9h7v7h-7V108.9z"/>
</svg>
