<?xml version="1.0" encoding="utf-8"?>
<!-- Generator: Adobe Illustrator 27.3.1, SVG Export Plug-In . SVG Version: 6.00 Build 0)  -->
<svg version="1.1" xmlns="http://www.w3.org/2000/svg" xmlns:xlink="http://www.w3.org/1999/xlink" x="0px" y="0px"
	 viewBox="0 0 72.4 58" style="enable-background:new 0 0 72.4 58;" xml:space="preserve">
<style type="text/css">
	.st0{fill:#1E0E01;enable-background:new    ;}
</style>
<g id="Слой_2">
</g>
<g id="Слой_1">
	<rect x="36.4" y="14.5" class="st0" width="7" height="7"/>
	<rect x="43.7" y="7.3" class="st0" width="7" height="7"/>
	<rect x="43.7" y="21.8" class="st0" width="7" height="7"/>
	<rect x="43.7" y="43.6" class="st0" width="7" height="7"/>
	<rect x="43.7" y="50.9" class="st0" width="7" height="7"/>
	<rect x="50.9" y="0" class="st0" width="7" height="7"/>
	<rect x="50.9" y="29.1" class="st0" width="7" height="7"/>
	<rect x="50.9" y="36.3" class="st0" width="7" height="7"/>
	<rect x="58.2" y="7.3" class="st0" width="7" height="7"/>
	<rect x="58.2" y="21.8" class="st0" width="7" height="7"/>
	<rect x="65.4" y="14.5" class="st0" width="7" height="7"/>
	<rect x="7.3" y="21.8" class="st0" width="7" height="7"/>
	<rect x="7.3" y="29.1" class="st0" width="7" height="7"/>
	<rect y="14.5" class="st0" width="7" height="7"/>
	<rect y="36.3" class="st0" width="7" height="7"/>
	<rect x="14.6" y="21.8" class="st0" width="7" height="7"/>
	<rect x="14.6" y="29.1" class="st0" width="7" height="7"/>
	<rect x="21.8" y="14.5" class="st0" width="7" height="7"/>
	<rect x="21.8" y="36.3" class="st0" width="7" height="7"/>
</g>
</svg>
