<?xml version="1.0" encoding="utf-8"?>
<!-- Generator: Adobe Illustrator 27.3.1, SVG Export Plug-In . SVG Version: 6.00 Build 0)  -->
<svg version="1.1" id="Слой_1" xmlns="http://www.w3.org/2000/svg" xmlns:xlink="http://www.w3.org/1999/xlink" x="0px" y="0px"
	 viewBox="0 0 987.2 123.2" style="enable-background:new 0 0 987.2 123.2;" xml:space="preserve">
<style type="text/css">
	.st0{fill:#1E0E01;}
</style>
<path class="st0" d="M0.1,14.5h7v7h-7V14.5z M0.1,21.8h7v7h-7V21.8z M0.1,29h7v7h-7V29z M0.1,36.3h7v7h-7V36.3z M0.1,43.6h7v7h-7
	V43.6z M0.1,50.8h7v7h-7V50.8z M0.1,58.1h7v7h-7V58.1z M0.1,65.3h7v7h-7V65.3z M0.1,72.6h7v7h-7V72.6z M0.1,79.9h7v7h-7V79.9z
	 M0.1,87.1h7v7h-7V87.1z M7.3,7.3h7v7h-7V7.3z M14.6,0h7v7h-7V0z M21.8,0h7v7h-7V0z M29.1,0h7v7h-7V0z M36.4,0h7v7h-7V0z M43.6,0h7
	v7h-7V0z M50.9,0h7v7h-7V0z M58.1,0h7v7h-7V0z M65.4,0h7v7h-7V0z M72.7,0h7v7h-7V0z M79.9,0h7v7h-7V0z M87.2,0h7v7h-7V0z M94.4,0h7
	v7h-7V0z M101.7,0h7v7h-7V0z M109,0h7v7h-7V0z M116.2,0h7v7h-7V0z M123.5,0h7v7h-7V0z M130.7,0h7v7h-7V0z M138,0h7v7h-7V0z M145.3,0
	h7v7h-7V0z M152.5,0h7v7h-7V0z M159.8,0h7v7h-7V0z M167,0h7v7h-7V0z M174.3,0h7v7h-7V0z M181.6,0h7v7h-7V0z M188.8,0h7v7h-7V0z
	 M196.1,0h7v7h-7V0z M203.3,0h7v7h-7V0z M210.6,0h7v7h-7V0z M217.9,0h7v7h-7V0z M225.1,0h7v7h-7V0z M232.4,0h7v7h-7V0z M239.6,0h7v7
	h-7V0z M246.9,0h7v7h-7V0z M254.2,0h7v7h-7V0z M261.4,0h7v7h-7V0z M268.7,0h7v7h-7V0z M275.9,0h7v7h-7V0z M283.2,0h7v7h-7V0z
	 M290.5,0h7v7h-7V0z M297.7,0h7v7h-7V0z M305,0h7v7h-7V0z M312.2,0h7v7h-7V0z M319.5,0h7v7h-7V0z M326.8,0h7v7h-7V0z M334,0h7v7h-7
	V0z M341.3,0h7v7h-7V0z M348.5,0h7v7h-7V0z M355.8,0h7v7h-7V0z M363.1,0h7v7h-7V0z M370.3,0h7v7h-7V0z M377.6,0h7v7h-7V0z M384.8,0
	h7v7h-7V0z M392.1,0h7v7h-7V0z M399.4,0h7v7h-7V0z M406.6,0h7v7h-7V0z M413.9,0h7v7h-7V0z M421.1,0h7v7h-7V0z M428.4,0h7v7h-7V0z
	 M435.7,0h7v7h-7V0z M442.9,0h7v7h-7V0z M450.2,0h7v7h-7V0z M457.4,0h7v7h-7V0z M464.7,0h7v7h-7V0z M472,0h7v7h-7V0z M479.2,0h7v7
	h-7V0z M486.5,0h7v7h-7V0z M493.7,0h7v7h-7V0z M501,0h7v7h-7V0z M508.3,0h7v7h-7V0z M515.5,0h7v7h-7V0z M522.8,0h7v7h-7V0z M530,0h7
	v7h-7V0z M537.3,0h7v7h-7V0z M544.6,0h7v7h-7V0z M551.8,0h7v7h-7V0z M559.1,0h7v7h-7V0z M566.3,0h7v7h-7V0z M573.6,0h7v7h-7V0z
	 M580.9,0h7v7h-7V0z M588.1,0h7v7h-7V0z M595.4,0h7v7h-7V0z M602.6,0h7v7h-7V0z M609.9,0h7v7h-7V0z M617.2,0h7v7h-7V0z M624.4,0h7v7
	h-7V0z M631.7,0h7v7h-7V0z M638.9,0h7v7h-7V0z M646.2,0h7v7h-7V0z M653.5,0h7v7h-7V0z M660.7,0h7v7h-7V0z M668,0h7v7h-7V0z M675.2,0
	h7v7h-7V0z M682.5,0h7v7h-7V0z M689.8,0h7v7h-7V0z M697,0h7v7h-7V0z M704.3,0h7v7h-7V0z M711.5,0h7v7h-7V0z M718.8,0h7v7h-7V0z
	 M726.1,0h7v7h-7V0z M733.3,0h7v7h-7V0z M740.6,0h7v7h-7V0z M747.8,0h7v7h-7V0z M755.1,0h7v7h-7V0z M762.4,0h7v7h-7V0z M769.6,0h7v7
	h-7V0z M776.9,0h7v7h-7V0z M784.1,0h7v7h-7V0z M791.4,0h7v7h-7V0z M798.7,0h7v7h-7V0z M958.4,0h7v7h-7V0z M965.7,7.3h7v7h-7V7.3z
	 M972.9,14.5h7v7h-7V14.5z M972.9,21.8h7v7h-7V21.8z M972.9,29h7v7h-7V29z M972.9,36.3h7v7h-7V36.3z M972.9,43.6h7v7h-7V43.6z
	 M972.9,50.8h7v7h-7V50.8z M973,58.1h7v7h-7V58.1z M973,65.3h7v7h-7V65.3z M973,72.6h7v7h-7V72.6z M973,79.9h7v7h-7V79.9z M973,87.1
	h7v7h-7V87.1z M980.2,21.8h7v7h-7V21.8z M980.2,29h7v7h-7V29z M980.2,36.3h7v7h-7V36.3z M980.2,43.6h7v7h-7V43.6z M980.2,50.8h7v7
	h-7V50.8z M980.2,58.1h7v7h-7V58.1z M980.2,65.3h7v7h-7V65.3z M980.2,72.6h7v7h-7V72.6z M980.2,79.9h7v7h-7V79.9z M980.2,87.1h7v7
	h-7V87.1z M0.1,94.4h7v7h-7V94.4z M7.3,101.6h7v7h-7V101.6z M21.9,108.9h7v7h-7V108.9z M14.6,108.9h7v7h-7V108.9z M29.1,108.9h7v7
	h-7V108.9z M36.4,108.9h7v7h-7V108.9z M43.6,108.9h7v7h-7V108.9z M50.9,108.9h7v7h-7V108.9z M58.2,108.9h7v7h-7V108.9z M65.4,108.9
	h7v7h-7V108.9z M72.7,108.9h7v7h-7V108.9z M79.9,108.9h7v7h-7V108.9z M87.2,108.9h7v7h-7V108.9z M94.5,108.9h7v7h-7V108.9z
	 M101.7,108.9h7v7h-7V108.9z M109,108.9h7v7h-7V108.9z M116.2,108.9h7v7h-7V108.9z M123.5,108.9h7v7h-7V108.9z M130.8,108.9h7v7h-7
	V108.9z M138,108.9h7v7h-7V108.9z M145.3,108.9h7v7h-7V108.9z M152.5,108.9h7v7h-7V108.9z M159.8,108.9h7v7h-7V108.9z M167.1,108.9
	h7v7h-7V108.9z M174.3,108.9h7v7h-7V108.9z M181.6,108.9h7v7h-7V108.9z M188.8,108.9h7v7h-7V108.9z M196.1,108.9h7v7h-7V108.9z
	 M203.4,108.9h7v7h-7V108.9z M210.6,108.9h7v7h-7V108.9z M217.9,108.9h7v7h-7V108.9z M225.1,108.9h7v7h-7V108.9z M232.4,108.9h7v7
	h-7V108.9z M239.7,108.9h7v7h-7V108.9z M246.9,108.9h7v7h-7V108.9z M254.2,108.9h7v7h-7V108.9z M261.4,108.9h7v7h-7V108.9z
	 M268.7,108.9h7v7h-7V108.9z M276,108.9h7v7h-7V108.9z M283.2,108.9h7v7h-7V108.9z M290.5,108.9h7v7h-7V108.9z M297.8,108.9h7v7h-7
	V108.9z M305,108.9h7v7h-7V108.9z M312.3,108.9h7v7h-7V108.9z M319.5,108.9h7v7h-7V108.9z M326.8,108.9h7v7h-7V108.9z M334,108.9h7
	v7h-7V108.9z M341.3,108.9h7v7h-7V108.9z M348.6,108.9h7v7h-7V108.9z M355.8,108.9h7v7h-7V108.9z M363.1,108.9h7v7h-7V108.9z
	 M370.3,108.9h7v7h-7V108.9z M377.6,108.9h7v7h-7V108.9z M384.9,108.9h7v7h-7V108.9z M392.1,108.9h7v7h-7V108.9z M399.4,108.9h7v7
	h-7V108.9z M406.6,108.9h7v7h-7V108.9z M413.9,108.9h7v7h-7V108.9z M421.2,108.9h7v7h-7V108.9z M428.4,108.9h7v7h-7V108.9z
	 M435.7,108.9h7v7h-7V108.9z M442.9,108.9h7v7h-7V108.9z M450.2,108.9h7v7h-7V108.9z M457.5,108.9h7v7h-7V108.9z M464.7,108.9h7v7
	h-7V108.9z M472,108.9h7v7h-7V108.9z M479.2,108.9h7v7h-7V108.9z M486.5,108.9h7v7h-7V108.9z M493.8,108.9h7v7h-7V108.9z M501,108.9
	h7v7h-7V108.9z M508.3,108.9h7v7h-7V108.9z M515.5,108.9h7v7h-7V108.9z M522.8,108.9h7v7h-7V108.9z M530.1,108.9h7v7h-7V108.9z
	 M537.3,108.9h7v7h-7V108.9z M544.6,108.9h7v7h-7V108.9z M551.8,108.9h7v7h-7V108.9z M559.1,108.9h7v7h-7V108.9z M566.4,108.9h7v7
	h-7V108.9z M573.6,108.9h7v7h-7V108.9z M580.9,108.9h7v7h-7V108.9z M588.1,108.9h7v7h-7V108.9z M595.4,108.9h7v7h-7V108.9z
	 M602.7,108.9h7v7h-7V108.9z M609.9,108.9h7v7h-7V108.9z M617.2,108.9h7v7h-7V108.9z M624.5,108.9h7v7h-7V108.9z M631.7,108.9h7v7
	h-7V108.9z M639,108.9h7v7h-7V108.9z M646.2,108.9h7v7h-7V108.9z M653.5,108.9h7v7h-7V108.9z M660.8,108.9h7v7h-7V108.9z M668,108.9
	h7v7h-7V108.9z M675.3,108.9h7v7h-7V108.9z M682.5,108.9h7v7h-7V108.9z M689.8,108.9h7v7h-7V108.9z M697,108.9h7v7h-7V108.9z
	 M704.3,108.9h7v7h-7V108.9z M711.6,108.9h7v7h-7V108.9z M718.8,108.9h7v7h-7V108.9z M726.1,108.9h7v7h-7V108.9z M733.3,108.9h7v7
	h-7V108.9z M740.6,108.9h7v7h-7V108.9z M747.9,108.9h7v7h-7V108.9z M755.1,108.9h7v7h-7V108.9z M762.4,108.9h7v7h-7V108.9z
	 M769.6,108.9h7v7h-7V108.9z M776.9,108.9h7v7h-7V108.9z M784.2,108.9h7v7h-7V108.9z M791.4,108.9h7v7h-7V108.9z M798.7,108.9h7v7
	h-7V108.9z M958.5,101.6h7v7h-7V101.6z M958.5,108.9h7v7h-7V108.9z M965.7,108.9h7v7h-7V108.9z M21.9,116.2h7v7h-7V116.2z
	 M29.1,116.2h7v7h-7V116.2z M36.4,116.2h7v7h-7V116.2z M43.6,116.2h7v7h-7V116.2z M50.9,116.2h7v7h-7V116.2z M58.2,116.2h7v7h-7
	V116.2z M65.4,116.2h7v7h-7V116.2z M72.7,116.2h7v7h-7V116.2z M79.9,116.2h7v7h-7V116.2z M87.2,116.2h7v7h-7V116.2z M94.5,116.2h7v7
	h-7V116.2z M101.7,116.2h7v7h-7V116.2z M109,116.2h7v7h-7V116.2z M116.2,116.2h7v7h-7V116.2z M123.5,116.2h7v7h-7V116.2z
	 M130.8,116.2h7v7h-7V116.2z M138,116.2h7v7h-7V116.2z M145.3,116.2h7v7h-7V116.2z M152.5,116.2h7v7h-7V116.2z M159.8,116.2h7v7h-7
	V116.2z M167.1,116.2h7v7h-7V116.2z M174.3,116.2h7v7h-7V116.2z M181.6,116.2h7v7h-7V116.2z M188.8,116.2h7v7h-7V116.2z
	 M196.1,116.2h7v7h-7V116.2z M203.4,116.2h7v7h-7V116.2z M210.6,116.2h7v7h-7V116.2z M217.9,116.2h7v7h-7V116.2z M225.1,116.2h7v7
	h-7V116.2z M232.4,116.2h7v7h-7V116.2z M239.7,116.2h7v7h-7V116.2z M246.9,116.2h7v7h-7V116.2z M254.2,116.2h7v7h-7V116.2z
	 M261.4,116.2h7v7h-7V116.2z M268.7,116.2h7v7h-7V116.2z M276,116.2h7v7h-7V116.2z M283.2,116.2h7v7h-7V116.2z M290.5,116.2h7v7h-7
	V116.2z M297.8,116.2h7v7h-7V116.2z M305,116.2h7v7h-7V116.2z M312.3,116.2h7v7h-7V116.2z M319.5,116.2h7v7h-7V116.2z M326.8,116.2
	h7v7h-7V116.2z M334,116.2h7v7h-7V116.2z M341.3,116.2h7v7h-7V116.2z M348.6,116.2h7v7h-7V116.2z M355.8,116.2h7v7h-7V116.2z
	 M363.1,116.2h7v7h-7V116.2z M370.3,116.2h7v7h-7V116.2z M377.6,116.2h7v7h-7V116.2z M384.9,116.2h7v7h-7V116.2z M392.1,116.2h7v7
	h-7V116.2z M399.4,116.2h7v7h-7V116.2z M406.6,116.2h7v7h-7V116.2z M413.9,116.2h7v7h-7V116.2z M421.2,116.2h7v7h-7V116.2z
	 M428.4,116.2h7v7h-7V116.2z M435.7,116.2h7v7h-7V116.2z M442.9,116.2h7v7h-7V116.2z M450.2,116.2h7v7h-7V116.2z M457.5,116.2h7v7
	h-7V116.2z M464.7,116.2h7v7h-7V116.2z M472,116.2h7v7h-7V116.2z M479.2,116.2h7v7h-7V116.2z M486.5,116.2h7v7h-7V116.2z
	 M493.8,116.2h7v7h-7V116.2z M501,116.2h7v7h-7V116.2z M508.3,116.2h7v7h-7V116.2z M515.5,116.2h7v7h-7V116.2z M522.8,116.2h7v7h-7
	V116.2z M530.1,116.2h7v7h-7V116.2z M537.3,116.2h7v7h-7V116.2z M544.6,116.2h7v7h-7V116.2z M551.8,116.2h7v7h-7V116.2z
	 M559.1,116.2h7v7h-7V116.2z M566.4,116.2h7v7h-7V116.2z M573.6,116.2h7v7h-7V116.2z M580.9,116.2h7v7h-7V116.2z M588.1,116.2h7v7
	h-7V116.2z M595.4,116.2h7v7h-7V116.2z M602.7,116.2h7v7h-7V116.2z M609.9,116.2h7v7h-7V116.2z M617.2,116.2h7v7h-7V116.2z
	 M624.5,116.2h7v7h-7V116.2z M631.7,116.2h7v7h-7V116.2z M639,116.2h7v7h-7V116.2z M646.2,116.2h7v7h-7V116.2z M653.5,116.2h7v7h-7
	V116.2z M660.8,116.2h7v7h-7V116.2z M668,116.2h7v7h-7V116.2z M675.3,116.2h7v7h-7V116.2z M682.5,116.2h7v7h-7V116.2z M689.8,116.2
	h7v7h-7V116.2z M697,116.2h7v7h-7V116.2z M704.3,116.2h7v7h-7V116.2z M711.6,116.2h7v7h-7V116.2z M718.8,116.2h7v7h-7V116.2z
	 M726.1,116.2h7v7h-7V116.2z M733.3,116.2h7v7h-7V116.2z M740.6,116.2h7v7h-7V116.2z M747.9,116.2h7v7h-7V116.2z M755.1,116.2h7v7
	h-7V116.2z M762.4,116.2h7v7h-7V116.2z M769.6,116.2h7v7h-7V116.2z M776.9,116.2h7v7h-7V116.2z M784.2,116.2h7v7h-7V116.2z
	 M791.4,116.2h7v7h-7V116.2z M798.7,116.2h7v7h-7V116.2z M806,0h7v7h-7V0z M806,108.9h7v7h-7V108.9z M806,116.2h7v7h-7V116.2z
	 M813.2,0h7v7h-7V0z M813.2,108.9h7v7h-7V108.9z M813.2,116.2h7v7h-7V116.2z M820.5,0h7v7h-7V0z M820.5,108.9h7v7h-7V108.9z
	 M820.5,116.2h7v7h-7V116.2z M827.7,0h7v7h-7V0z M827.7,108.9h7v7h-7V108.9z M827.7,116.2h7v7h-7V116.2z M835,0h7v7h-7V0z
	 M835,108.9h7v7h-7V108.9z M835,116.2h7v7h-7V116.2z M842.3,0h7v7h-7V0z M842.3,108.9h7v7h-7V108.9z M842.3,116.2h7v7h-7V116.2z
	 M849.5,0h7v7h-7V0z M849.5,108.9h7v7h-7V108.9z M849.5,116.2h7v7h-7V116.2z M856.8,0h7v7h-7V0z M856.8,108.9h7v7h-7V108.9z
	 M856.8,116.2h7v7h-7V116.2z M864,0h7v7h-7V0z M864,108.9h7v7h-7V108.9z M864,116.2h7v7h-7V116.2z M871.3,0h7v7h-7V0z M871.3,108.9
	h7v7h-7V108.9z M871.3,116.2h7v7h-7V116.2z M878.6,0h7v7h-7V0z M878.6,108.9h7v7h-7V108.9z M878.6,116.2h7v7h-7V116.2z M885.8,0h7v7
	h-7V0z M885.8,108.9h7v7h-7V108.9z M885.8,116.2h7v7h-7V116.2z M893.1,0h7v7h-7V0z M893.1,108.9h7v7h-7V108.9z M893.1,116.2h7v7h-7
	V116.2z M900.3,0h7v7h-7V0z M900.3,108.9h7v7h-7V108.9z M900.3,116.2h7v7h-7V116.2z M907.6,0h7v7h-7V0z M907.6,108.9h7v7h-7V108.9z
	 M907.6,116.2h7v7h-7V116.2z M914.9,0h7v7h-7V0z M914.9,108.9h7v7h-7V108.9z M914.9,116.2h7v7h-7V116.2z M922.1,0h7v7h-7V0z
	 M922.1,108.9h7v7h-7V108.9z M922.1,116.2h7v7h-7V116.2z M929.4,0h7v7h-7V0z M929.4,108.9h7v7h-7V108.9z M929.4,116.2h7v7h-7V116.2z
	 M936.6,0h7v7h-7V0z M936.6,108.9h7v7h-7V108.9z M936.6,116.2h7v7h-7V116.2z M943.9,0h7v7h-7V0z M943.9,108.9h7v7h-7V108.9z
	 M943.9,116.2h7v7h-7V116.2z M951.2,0h7v7h-7V0z M951.2,108.9h7v7h-7V108.9z M951.2,116.2h7v7h-7V116.2z M958.5,116.2h7v7h-7V116.2z
	 M965.7,94.4h7v7h-7V94.4z M965.7,101.6h7v7h-7V101.6z M973,101.6h7v7h-7V101.6z M973,94.4h7v7h-7V94.4z M980.2,94.4h7v7h-7V94.4z"
	/>
</svg>
