<?xml version="1.0" encoding="utf-8"?>
<!-- Generator: Adobe Illustrator 27.3.1, SVG Export Plug-In . SVG Version: 6.00 Build 0)  -->
<svg version="1.1" id="Слой_1" xmlns="http://www.w3.org/2000/svg" xmlns:xlink="http://www.w3.org/1999/xlink" x="0px" y="0px"
	 viewBox="0 0 65.1 537" style="enable-background:new 0 0 65.1 537;" xml:space="preserve">
<style type="text/css">
	.st0{display:none;}
	.st1{fill:#1E0E01;}
</style>
<g id="Слой_2_00000116230097982020482110000015244635232631682736_" class="st0">
</g>
<path class="st1" d="M0,36.3h7v7H0V36.3z M0,43.6h7v7H0V43.6z M0,50.9h7v7H0V50.9z M0,58.1h7v7H0V58.1z M0,65.4h7v7H0V65.4z
	 M0,464.7h7v7H0V464.7z M0,471.9h7v7H0V471.9z M0,479.2h7v7H0V479.2z M0,486.5h7v7H0V486.5z M0,493.7h7v7H0V493.7z M0,501h7v7H0V501
	z M0,508.2h7v7H0V508.2z M0,515.5h7v7H0V515.5z M0,522.7h7v7H0V522.7z M0,530h7v7H0V530z M7.3,29.1h7v7h-7V29.1z M14.5,29.1h7v7h-7
	V29.1z M7.3,72.6h7v7h-7V72.6z M14.5,72.6h7v7h-7V72.6z M7.3,464.7h7v7h-7V464.7z M7.3,471.9h7v7h-7V471.9z M7.3,479.2h7v7h-7V479.2
	z M7.3,486.5h7v7h-7V486.5z M7.3,493.7h7v7h-7V493.7z M7.3,501h7v7h-7V501z M7.3,508.2h7v7h-7V508.2z M7.3,515.5h7v7h-7V515.5z
	 M7.3,522.7h7v7h-7V522.7z M7.3,530h7v7h-7V530z M21.8,29.1h7v7h-7V29.1z M21.8,72.6h7v7h-7V72.6z M29,21.8h7v7h-7V21.8z M29,29.1h7
	v7h-7V29.1z M29,36.3h7v7h-7V36.3z M29,43.6h7v7h-7V43.6z M29,50.8h7v7h-7V50.8z M29,58.1h7v7h-7V58.1z M29,65.3h7v7h-7V65.3z
	 M29,72.6h7v7h-7V72.6z M29,79.9h7v7h-7V79.9z M36.3,14.5h7v7h-7V14.5z M36.3,87.2h7v7h-7V87.2z M43.6,7.3h7v7h-7V7.3z M43.6,94.4h7
	v7h-7V94.4z M50.8,0h7v7h-7V0z M50.8,101.7h7v7h-7V101.7z M58.1,14.5h7v7h-7V14.5z M58.1,21.8h7v7h-7V21.8z M58.1,0h7v7h-7V0z
	 M58.1,7.3h7v7h-7V7.3z M58.1,29.1h7v7h-7V29.1z M58.1,36.3h7v7h-7V36.3z M58.1,43.6h7v7h-7V43.6z M58.1,50.9h7v7h-7V50.9z
	 M58.1,58.1h7v7h-7V58.1z M58.1,65.4h7v7h-7V65.4z M58.1,72.6h7v7h-7V72.6z M58.1,79.9h7v7h-7V79.9z M58.1,87.2h7v7h-7V87.2z
	 M58.1,94.4h7v7h-7V94.4z M58.1,101.7h7v7h-7V101.7z"/>
</svg>
