<?xml version="1.0" encoding="utf-8"?>
<!-- Generator: Adobe Illustrator 27.3.1, SVG Export Plug-In . SVG Version: 6.00 Build 0)  -->
<svg version="1.1" id="Слой_1" xmlns="http://www.w3.org/2000/svg" xmlns:xlink="http://www.w3.org/1999/xlink" x="0px" y="0px"
	 viewBox="0 0 65.1 537" style="enable-background:new 0 0 65.1 537;" xml:space="preserve">
<style type="text/css">
	.st0{display:none;}
	.st1{fill:#1E0E01;}
</style>
<g id="Слой_2_00000113341358110954105550000014707504821818772618_" class="st0">
</g>
<path class="st1" d="M0,36.3h7v7H0V36.3z M0,43.6h7v7H0V43.6z M0,50.9h7v7H0V50.9z M0,58.1h7v7H0V58.1z M0,65.4h7v7H0V65.4z
	 M0,116.2h7v7H0V116.2z M0,123.4h7v7H0V123.4z M0,130.7h7v7H0V130.7z M0,138h7v7H0V138z M0,145.2h7v7H0V145.2z M0,152.5h7v7H0V152.5
	z M0,159.7h7v7H0V159.7z M0,167h7v7H0V167z M0,174.3h7v7H0V174.3z M0,181.5h7v7H0V181.5z M0,203.3h7v7H0V203.3z M0,210.6h7v7H0
	V210.6z M0,217.8h7v7H0V217.8z M0,225.1h7v7H0V225.1z M0,232.3h7v7H0V232.3z M0,239.6h7v7H0V239.6z M0,246.9h7v7H0V246.9z M0,254.1
	h7v7H0V254.1z M0,261.4h7v7H0V261.4z M0,268.7h7v7H0V268.7z M0,290.4h7v7H0V290.4z M0,297.7h7v7H0V297.7z M0,304.9h7v7H0V304.9z
	 M0,312.2h7v7H0V312.2z M0,319.5h7v7H0V319.5z M0,326.7h7v7H0V326.7z M0,334h7v7H0V334z M0,341.3h7v7H0V341.3z M0,348.5h7v7H0V348.5
	z M0,355.8h7v7H0V355.8z M0,377.5h7v7H0V377.5z M0,384.8h7v7H0V384.8z M0,392.1h7v7H0V392.1z M0,399.3h7v7H0V399.3z M0,406.6h7v7H0
	V406.6z M0,413.9h7v7H0V413.9z M0,421.1h7v7H0V421.1z M0,428.4h7v7H0V428.4z M0,435.6h7v7H0V435.6z M0,442.9h7v7H0V442.9z M0,464.7
	h7v7H0V464.7z M0,471.9h7v7H0V471.9z M0,479.2h7v7H0V479.2z M0,486.5h7v7H0V486.5z M0,493.7h7v7H0V493.7z M0,501h7v7H0V501z
	 M0,508.2h7v7H0V508.2z M0,515.5h7v7H0V515.5z M0,522.7h7v7H0V522.7z M0,530h7v7H0V530z M7.3,29.1h7v7h-7V29.1z M14.5,29.1h7v7h-7
	V29.1z M7.3,72.6h7v7h-7V72.6z M14.5,72.6h7v7h-7V72.6z M7.3,116.2h7v7h-7V116.2z M7.3,123.4h7v7h-7V123.4z M7.3,130.7h7v7h-7V130.7
	z M7.3,138h7v7h-7V138z M7.3,145.2h7v7h-7V145.2z M7.3,152.5h7v7h-7V152.5z M7.3,159.7h7v7h-7V159.7z M7.3,167h7v7h-7V167z
	 M7.3,174.3h7v7h-7V174.3z M7.3,181.5h7v7h-7V181.5z M7.3,203.3h7v7h-7V203.3z M7.3,210.6h7v7h-7V210.6z M7.3,217.8h7v7h-7V217.8z
	 M7.3,225.1h7v7h-7V225.1z M7.3,232.3h7v7h-7V232.3z M7.3,239.6h7v7h-7V239.6z M7.3,246.9h7v7h-7V246.9z M7.3,254.1h7v7h-7V254.1z
	 M7.3,261.4h7v7h-7V261.4z M7.3,268.7h7v7h-7V268.7z M7.3,290.4h7v7h-7V290.4z M7.3,297.7h7v7h-7V297.7z M7.3,304.9h7v7h-7V304.9z
	 M7.3,312.2h7v7h-7V312.2z M7.3,319.5h7v7h-7V319.5z M7.3,326.7h7v7h-7V326.7z M7.3,334h7v7h-7V334z M7.3,341.3h7v7h-7V341.3z
	 M7.3,348.5h7v7h-7V348.5z M7.3,355.8h7v7h-7V355.8z M7.3,377.5h7v7h-7V377.5z M7.3,384.8h7v7h-7V384.8z M7.3,392.1h7v7h-7V392.1z
	 M7.3,399.3h7v7h-7V399.3z M7.3,406.6h7v7h-7V406.6z M7.3,413.9h7v7h-7V413.9z M7.3,421.1h7v7h-7V421.1z M7.3,428.4h7v7h-7V428.4z
	 M7.3,435.6h7v7h-7V435.6z M7.3,442.9h7v7h-7V442.9z M7.3,464.7h7v7h-7V464.7z M7.3,471.9h7v7h-7V471.9z M7.3,479.2h7v7h-7V479.2z
	 M7.3,486.5h7v7h-7V486.5z M7.3,493.7h7v7h-7V493.7z M7.3,501h7v7h-7V501z M7.3,508.2h7v7h-7V508.2z M7.3,515.5h7v7h-7V515.5z
	 M7.3,522.7h7v7h-7V522.7z M7.3,530h7v7h-7V530z M21.8,29.1h7v7h-7V29.1z M21.8,72.6h7v7h-7V72.6z M14.5,116.2h7v7h-7V116.2z
	 M14.5,123.4h7v7h-7V123.4z M14.5,130.7h7v7h-7V130.7z M14.5,138h7v7h-7V138z M14.5,145.2h7v7h-7V145.2z M14.5,152.5h7v7h-7V152.5z
	 M14.5,159.7h7v7h-7V159.7z M14.5,167h7v7h-7V167z M14.5,174.3h7v7h-7V174.3z M14.5,181.5h7v7h-7V181.5z M14.5,203.3h7v7h-7V203.3z
	 M14.5,210.6h7v7h-7V210.6z M14.5,217.8h7v7h-7V217.8z M14.5,225.1h7v7h-7V225.1z M14.5,232.3h7v7h-7V232.3z M14.5,239.6h7v7h-7
	V239.6z M14.5,246.9h7v7h-7V246.9z M14.5,254.1h7v7h-7V254.1z M14.5,261.4h7v7h-7V261.4z M14.5,268.7h7v7h-7V268.7z M14.5,290.4h7v7
	h-7V290.4z M14.5,297.7h7v7h-7V297.7z M14.5,304.9h7v7h-7V304.9z M14.5,312.2h7v7h-7V312.2z M14.5,319.5h7v7h-7V319.5z M14.5,326.7
	h7v7h-7V326.7z M14.5,334h7v7h-7V334z M14.5,341.3h7v7h-7V341.3z M14.5,348.5h7v7h-7V348.5z M14.5,355.8h7v7h-7V355.8z M14.5,377.5
	h7v7h-7V377.5z M14.5,384.8h7v7h-7V384.8z M14.5,392.1h7v7h-7V392.1z M14.5,399.3h7v7h-7V399.3z M14.5,406.6h7v7h-7V406.6z
	 M14.5,413.9h7v7h-7V413.9z M14.5,421.1h7v7h-7V421.1z M14.5,428.4h7v7h-7V428.4z M14.5,435.6h7v7h-7V435.6z M14.5,442.9h7v7h-7
	V442.9z M29,21.8h7v7h-7V21.8z M29,29.1h7v7h-7V29.1z M29,36.3h7v7h-7V36.3z M29,43.6h7v7h-7V43.6z M29,50.8h7v7h-7V50.8z M29,58.1
	h7v7h-7V58.1z M29,65.3h7v7h-7V65.3z M29,72.6h7v7h-7V72.6z M29,79.9h7v7h-7V79.9z M21.8,116.2h7v7h-7V116.2z M21.8,123.4h7v7h-7
	V123.4z M21.8,130.7h7v7h-7V130.7z M21.8,138h7v7h-7V138z M21.8,145.2h7v7h-7V145.2z M21.8,152.5h7v7h-7V152.5z M21.8,159.7h7v7h-7
	V159.7z M21.8,167h7v7h-7V167z M21.8,174.3h7v7h-7V174.3z M21.8,181.5h7v7h-7V181.5z M21.8,203.3h7v7h-7V203.3z M21.8,210.6h7v7h-7
	V210.6z M21.8,217.8h7v7h-7V217.8z M21.8,225.1h7v7h-7V225.1z M21.8,232.3h7v7h-7V232.3z M21.8,239.6h7v7h-7V239.6z M21.8,246.9h7v7
	h-7V246.9z M21.8,254.1h7v7h-7V254.1z M21.8,261.4h7v7h-7V261.4z M21.8,268.7h7v7h-7V268.7z M21.8,290.4h7v7h-7V290.4z M21.8,297.7
	h7v7h-7V297.7z M21.8,304.9h7v7h-7V304.9z M21.8,312.2h7v7h-7V312.2z M21.8,319.5h7v7h-7V319.5z M21.8,326.7h7v7h-7V326.7z
	 M21.8,334h7v7h-7V334z M21.8,341.3h7v7h-7V341.3z M21.8,348.5h7v7h-7V348.5z M21.8,355.8h7v7h-7V355.8z M36.3,14.5h7v7h-7V14.5z
	 M36.3,87.2h7v7h-7V87.2z M29,116.2h7v7h-7V116.2z M29,123.4h7v7h-7V123.4z M29,130.7h7v7h-7V130.7z M29,138h7v7h-7V138z M29,145.2
	h7v7h-7V145.2z M29,152.5h7v7h-7V152.5z M29,159.7h7v7h-7V159.7z M29,167h7v7h-7V167z M29,174.3h7v7h-7V174.3z M29,181.5h7v7h-7
	V181.5z M29,203.3h7v7h-7V203.3z M29,210.6h7v7h-7V210.6z M29,217.8h7v7h-7V217.8z M29,225.1h7v7h-7V225.1z M29,232.3h7v7h-7V232.3z
	 M29,239.6h7v7h-7V239.6z M29,246.9h7v7h-7V246.9z M29,254.1h7v7h-7V254.1z M29,261.4h7v7h-7V261.4z M29,268.7h7v7h-7V268.7z
	 M43.6,7.3h7v7h-7V7.3z M43.6,94.4h7v7h-7V94.4z M36.3,116.2h7v7h-7V116.2z M36.3,123.4h7v7h-7V123.4z M36.3,130.7h7v7h-7V130.7z
	 M36.3,138h7v7h-7V138z M36.3,145.2h7v7h-7V145.2z M36.3,152.5h7v7h-7V152.5z M36.3,159.7h7v7h-7V159.7z M36.3,167h7v7h-7V167z
	 M36.3,174.3h7v7h-7V174.3z M36.3,181.5h7v7h-7V181.5z M50.8,0h7v7h-7V0z M50.8,101.7h7v7h-7V101.7z M58.1,14.5h7v7h-7V14.5z
	 M58.1,21.8h7v7h-7V21.8z M58.1,0h7v7h-7V0z M58.1,7.3h7v7h-7V7.3z M58.1,29.1h7v7h-7V29.1z M58.1,36.3h7v7h-7V36.3z M58.1,43.6h7v7
	h-7V43.6z M58.1,50.9h7v7h-7V50.9z M58.1,58.1h7v7h-7V58.1z M58.1,65.4h7v7h-7V65.4z M58.1,72.6h7v7h-7V72.6z M58.1,79.9h7v7h-7
	V79.9z M58.1,87.2h7v7h-7V87.2z M58.1,94.4h7v7h-7V94.4z M58.1,101.7h7v7h-7V101.7z"/>
</svg>
