<?xml version="1.0" encoding="utf-8"?>
<!-- Generator: Adobe Illustrator 27.3.1, SVG Export Plug-In . SVG Version: 6.00 Build 0)  -->
<svg version="1.1" id="Слой_1" xmlns="http://www.w3.org/2000/svg" xmlns:xlink="http://www.w3.org/1999/xlink" x="0px" y="0px"
	 viewBox="0 0 130.4 152.2" style="enable-background:new 0 0 130.4 152.2;" xml:space="preserve">
<style type="text/css">
	.st0{fill:#1E0E01;}
</style>
<path class="st0" d="M0,79.9h7v7H0V79.9z M0,65.3h7v7H0V65.3z M0,50.8h7v7H0V50.8z M7.3,87.1h7v7h-7V87.1z M7.3,43.6h7v7h-7V43.6z
	 M14.5,94.4h7v7h-7V94.4z M14.5,79.9h7v7h-7V79.9z M14.5,65.3h7v7h-7V65.3z M14.5,50.8h7v7h-7V50.8z M14.5,36.3h7v7h-7V36.3z
	 M21.8,72.6h7v7h-7V72.6z M21.8,58.1h7v7h-7V58.1z M29,94.4h7v7h-7V94.4z M29,36.3h7v7h-7V36.3z M36.3,130.7h7v7h-7V130.7z
	 M36.3,116.2h7v7h-7V116.2z M36.3,101.6h7v7h-7V101.6z M36.3,65.3h7v7h-7V65.3z M36.3,29h7v7h-7V29z M36.3,21.8h7v7h-7V21.8z
	 M36.3,7.3h7v7h-7V7.3z M43.6,137.9h7v7h-7V137.9z M43.6,123.4h7v7h-7V123.4z M43.6,72.6h7v7h-7V72.6z M43.6,58.1h7v7h-7V58.1z
	 M43.6,0h7v7h-7V0z M50.8,145.2h7v7h-7V145.2z M50.8,65.3h7v7h-7V65.3z M50.8,7.3h7v7h-7V7.3z M58.1,137.9h7v7h-7V137.9z
	 M58.1,123.4h7v7h-7V123.4z M58.1,101.6h7v7h-7V101.6z M58.1,72.6h7v7h-7V72.6z M58.1,58.1h7v7h-7V58.1z M58.1,36.3h7v7h-7V36.3z
	 M58.1,21.8h7v7h-7V21.8z M58.1,0h7v7h-7V0z M65.3,145.2h7v7h-7V145.2z M65.3,130.7h7v7h-7V130.7z M65.3,108.9h7v7h-7V108.9z
	 M87.1,72.6h7v7h-7V72.6z M65.3,65.3h7v7h-7V65.3z M65.3,14.5h7v7h-7V14.5z M72.6,137.9h7v7h-7V137.9z M72.6,123.4h7v7h-7V123.4z
	 M72.6,101.6h7v7h-7V101.6z M87.4,58.1h7v7h-7V58.1z M116.4,50.7h7v7h-7V50.7z M72.6,36.3h7v7h-7V36.3z M72.6,21.8h7v7h-7V21.8z
	 M72.6,0h7v7h-7V0z M79.9,145.2h7v7h-7V145.2z M72.7,72.6h7v7h-7V72.6z M72.7,58.1h7v7h-7V58.1z M79.9,7.3h7v7h-7V7.3z M87.1,137.9
	h7v7h-7V137.9z M87.1,123.4h7v7h-7V123.4z M80,65.3h7v7h-7V65.3z M87.1,0h7v7h-7V0z M94.4,130.7h7v7h-7V130.7z M94.4,116.2h7v7h-7
	V116.2z M94.4,101.6h7v7h-7V101.6z M94.4,29h7v7h-7V29z M94.4,21.8h7v7h-7V21.8z M94.4,7.3h7v7h-7V7.3z M101.6,94.4h7v7h-7V94.4z
	 M101.6,36.3h7v7h-7V36.3z M116.4,65.2h7v7h-7V65.2z M116.2,94.4h7v7h-7V94.4z M116.2,79.9h7v7h-7V79.9z M123.7,57.9h7v7h-7V57.9z
	 M116.2,36.3h7v7h-7V36.3z M123.4,87.1h7v7h-7V87.1z M123.4,72.6h7v7h-7V72.6z M123.4,43.6h7v7h-7V43.6z"/>
</svg>
