<?xml version="1.0" encoding="utf-8"?>
<!-- Generator: Adobe Illustrator 27.3.1, SVG Export Plug-In . SVG Version: 6.00 Build 0)  -->
<svg version="1.1" id="Слой_1" xmlns="http://www.w3.org/2000/svg" xmlns:xlink="http://www.w3.org/1999/xlink" x="0px" y="0px"
	 viewBox="0 0 159.5 181.2" style="enable-background:new 0 0 159.5 181.2;" xml:space="preserve">
<style type="text/css">
	.st0{fill:#1E0E01;}
</style>
<rect y="14.5" class="st0" width="7" height="7"/>
<rect y="21.8" class="st0" width="7" height="7"/>
<rect x="7.3" y="7.3" class="st0" width="7" height="7"/>
<rect x="14.5" class="st0" width="7" height="7"/>
<rect x="21.8" class="st0" width="7" height="7"/>
<rect x="43.6" class="st0" width="7" height="7"/>
<rect x="50.8" class="st0" width="7" height="7"/>
<rect y="29.1" class="st0" width="7" height="7"/>
<rect y="36.3" class="st0" width="7" height="7"/>
<rect y="58.1" class="st0" width="7" height="7"/>
<rect y="65.4" class="st0" width="7" height="7"/>
<rect y="72.6" class="st0" width="7" height="7"/>
<rect y="79.9" class="st0" width="7" height="7"/>
<rect y="101.6" class="st0" width="7" height="7"/>
<rect y="108.9" class="st0" width="7" height="7"/>
<rect y="116.2" class="st0" width="7" height="7"/>
<rect y="123.5" class="st0" width="7" height="7"/>
<rect y="145.2" class="st0" width="7" height="7"/>
<rect y="152.5" class="st0" width="7" height="7"/>
<rect y="159.7" class="st0" width="7" height="7"/>
<rect x="7.3" y="167" class="st0" width="7" height="7"/>
<rect x="58.1" class="st0" width="7" height="7"/>
<rect x="65.4" class="st0" width="7" height="7"/>
<rect x="87.1" class="st0" width="7" height="7"/>
<rect x="94.4" class="st0" width="7" height="7"/>
<rect x="101.7" class="st0" width="7" height="7"/>
<rect x="108.9" class="st0" width="7" height="7"/>
<rect x="130.4" class="st0" width="7" height="7"/>
<rect x="137.6" class="st0" width="7" height="7"/>
<rect x="145.2" y="7.3" class="st0" width="7" height="7"/>
<rect x="152.5" y="14.5" class="st0" width="7" height="7"/>
<rect x="152.5" y="21.8" class="st0" width="7" height="7"/>
<rect x="152.5" y="29" class="st0" width="7" height="7"/>
<rect x="152.5" y="50.9" class="st0" width="7" height="7"/>
<rect x="152.5" y="58.2" class="st0" width="7" height="7"/>
<rect x="152.5" y="65.4" class="st0" width="7" height="7"/>
<rect x="152.5" y="72.6" class="st0" width="7" height="7"/>
<rect x="152.5" y="94.4" class="st0" width="7" height="7"/>
<rect x="152.5" y="101.6" class="st0" width="7" height="7"/>
<rect x="152.5" y="108.9" class="st0" width="7" height="7"/>
<rect x="152.5" y="116.2" class="st0" width="7" height="7"/>
<rect x="152.5" y="138" class="st0" width="7" height="7"/>
<rect x="152.5" y="145.2" class="st0" width="7" height="7"/>
<rect x="152.5" y="152.5" class="st0" width="7" height="7"/>
<rect x="152.5" y="159.7" class="st0" width="7" height="7"/>
<rect x="14.5" y="174.2" class="st0" width="7" height="7"/>
<rect x="21.8" y="174.2" class="st0" width="7" height="7"/>
<rect x="29.1" y="174.2" class="st0" width="7" height="7"/>
<rect x="36.3" y="174.2" class="st0" width="7" height="7"/>
<rect x="58.1" y="174.2" class="st0" width="7" height="7"/>
<rect x="65.4" y="174.2" class="st0" width="7" height="7"/>
<rect x="72.7" y="174.2" class="st0" width="7" height="7"/>
<rect x="80" y="174.2" class="st0" width="7" height="7"/>
<rect x="101.7" y="174.2" class="st0" width="7" height="7"/>
<rect x="108.9" y="174.2" class="st0" width="7" height="7"/>
<rect x="116.1" y="174.2" class="st0" width="7" height="7"/>
<rect x="123.4" y="174.2" class="st0" width="7" height="7"/>
<rect x="145.2" y="167" class="st0" width="7" height="7"/>
</svg>
