<?xml version="1.0" encoding="utf-8"?>
<!-- Generator: Adobe Illustrator 27.3.1, SVG Export Plug-In . SVG Version: 6.00 Build 0)  -->
<svg version="1.1" id="Слой_1" xmlns="http://www.w3.org/2000/svg" xmlns:xlink="http://www.w3.org/1999/xlink" x="0px" y="0px"
	 viewBox="0 0 159.5 181.2" style="enable-background:new 0 0 159.5 181.2;" xml:space="preserve">
<style type="text/css">
	.st0{fill:#1E0E01;}
</style>
<path class="st0" d="M0,14.5h7v7H0V14.5z M0,21.8h7v7H0V21.8z M7.3,7.3h7v7h-7V7.3z M14.5,0h7v7h-7V0z M21.8,0h7v7h-7V0z M29.1,0h7
	v7h-7V0z M36.3,0h7v7h-7V0z M0,43.6h7v7H0V43.6z M0,50.8h7v7H0V50.8z M0,58.1h7v7H0V58.1z M0,65.4h7v7H0V65.4z M0,87.1h7v7H0V87.1z
	 M0,94.4h7v7H0V94.4z M0,101.6h7v7H0V101.6z M0,108.9h7v7H0V108.9z M0,130.7h7v7H0V130.7z M0,138h7v7H0V138z M0,145.2h7v7H0V145.2z
	 M0,152.5h7v7H0V152.5z M0,159.7h7v7H0V159.7z M7.3,167h7v7h-7V167z M58.1,0h7v7h-7V0z M65.4,0h7v7h-7V0z M72.6,0h7v7h-7V0z M79.9,0
	h7v7h-7V0z M101.7,0h7v7h-7V0z M108.9,0h7v7h-7V0z M116.2,0h7v7h-7V0z M123.4,0h7v7h-7V0z M145.2,7.3h7v7h-7V7.3z M152.5,14.5h7v7
	h-7V14.5z M152.5,21.8h7v7h-7V21.8z M152.5,29h7v7h-7V29z M152.5,36.3h7v7h-7V36.3z M152.5,43.6h7v7h-7V43.6z M152.5,65.4h7v7h-7
	V65.4z M152.5,72.6h7v7h-7V72.6z M152.5,79.9h7v7h-7V79.9z M152.5,87.1h7v7h-7V87.1z M152.5,108.9h7v7h-7V108.9z M152.5,116.2h7v7
	h-7V116.2z M152.5,123.4h7v7h-7V123.4z M152.5,130.7h7v7h-7V130.7z M152.5,152.5h7v7h-7V152.5z M152.5,159.7h7v7h-7V159.7z
	 M14.5,174.2h7v7h-7V174.2z M21.8,174.2h7v7h-7V174.2z M43.6,174.2h7v7h-7V174.2z M50.8,174.2h7v7h-7V174.2z M58.1,174.2h7v7h-7
	V174.2z M65.4,174.2h7v7h-7V174.2z M87.1,174.2h7v7h-7V174.2z M94.4,174.2h7v7h-7V174.2z M101.7,174.2h7v7h-7V174.2z M108.9,174.2h7
	v7h-7V174.2z M130.7,174.2h7v7h-7V174.2z M138,174.2h7v7h-7V174.2z M145.2,167h7v7h-7V167z"/>
</svg>
