<?xml version="1.0" encoding="utf-8"?>
<!-- Generator: Adobe Illustrator 27.3.1, SVG Export Plug-In . SVG Version: 6.00 Build 0)  -->
<svg version="1.1" id="Слой_1" xmlns="http://www.w3.org/2000/svg" xmlns:xlink="http://www.w3.org/1999/xlink" x="0px" y="0px"
	 viewBox="0 0 246.6 239.3" style="enable-background:new 0 0 246.6 239.3;" xml:space="preserve">
<style type="text/css">
	.st0{fill:#140901;}
</style>
<path class="st0" d="M7.3,174.3h7v7h-7V174.3z M0,174.2h7v7H0V174.2z M14.5,174.3h7v7h-7V174.3z M21.8,174.3h7v7h-7V174.3z
	 M29,174.3h7v7h-7V174.3z M36.3,174.3h7v7h-7V174.3z M43.6,174.3h7v7h-7V174.3z M50.8,174.3h7v7h-7V174.3z M58.1,174.3h7v7h-7V174.3
	z M65.3,174.3h7v7h-7V174.3z M72.6,174.3h7v7h-7V174.3z M79.9,174.3h7v7h-7V174.3z M87.1,174.3h7v7h-7V174.3z M94.4,174.3h7v7h-7
	V174.3z M101.6,174.3h7v7h-7V174.3z M108.9,174.3h7v7h-7V174.3z M116.2,174.3h7v7h-7V174.3z M123.4,174.2h7v7h-7
	C123.4,181.2,123.4,174.2,123.4,174.2z M130.7,174.2h7v7h-7V174.2z M137.9,174.2h7v7h-7V174.2z M145.2,174.2h7v7h-7V174.2z
	 M152.5,174.2h7v7h-7V174.2z M159.7,174.2h7v7h-7V174.2z M167,174.2h7v7h-7V174.2z M174.2,174.2h7v7h-7V174.2z M181.5,174.2h7v7h-7
	V174.2z M188.8,174.2h7v7h-7V174.2z M196,174.2h7v7h-7V174.2z M203.3,174.2h7v7h-7V174.2z M210.5,174.2h7v7h-7V174.2z M217.8,174.2
	h7v7h-7V174.2z M225.1,174.2h7v7h-7V174.2z M232.3,174.2h7v7h-7V174.2z M239.6,174.2h7v7h-7V174.2z M0,167h7v7H0V167z M232.3,167h7
	v7h-7V167z M239.6,167h7v7h-7V167z M0,159.7h7v7H0V159.7z M159.7,159.8h7v7h-7V159.8z M167,159.8h7v7h-7V159.8z M174.2,159.8h7v7h-7
	V159.8z M181.5,159.8h7v7h-7V159.8z M188.8,159.8h7v7h-7V159.8z M232.3,159.7h7v7h-7V159.7z M239.6,159.7h7v7h-7V159.7z M0,152.5h7
	v7H0V152.5z M145.2,152.6h7v7h-7V152.6z M152.5,152.6h7v7h-7V152.6z M159.7,152.6h7v7h-7V152.6z M188.8,152.6h7v7h-7V152.6z
	 M196,152.6h7v7h-7V152.6z M203.3,152.6h7v7h-7V152.6z M232.3,152.5h7v7h-7V152.5z M239.6,152.5h7v7h-7V152.5z M0,145.2h7v7H0V145.2
	z M137.9,145.3h7v7h-7V145.3z M145.2,145.3h7v7h-7V145.3z M203.3,145.3h7v7h-7V145.3z M210.5,145.3h7v7h-7V145.3z M232.3,145.2h7v7
	h-7V145.2z M239.6,145.2h7v7h-7V145.2z M0,138h7v7H0V138z M137.9,138.1h7v7h-7V138.1z M159.7,138.1h7v7h-7V138.1z M167,138.1h7v7h-7
	V138.1z M181.5,138.1h7v7h-7V138.1z M188.8,138.1h7v7h-7V138.1z M210.5,138.1h7v7h-7V138.1z M232.3,137.9h7v7h-7V137.9z
	 M239.6,137.9h7v7h-7V137.9z M0,130.7h7v7H0V130.7z M130.7,130.8h7v7h-7V130.8z M137.9,130.8h7v7h-7V130.8z M159.7,130.8h7v7h-7
	V130.8z M167,130.8h7v7h-7V130.8z M181.5,130.8h7v7h-7V130.8z M188.8,130.8h7v7h-7V130.8z M210.5,130.8h7v7h-7V130.8z M217.8,130.8
	h7v7h-7V130.8z M232.3,130.7h7v7h-7V130.7z M239.6,130.7h7v7h-7V130.7z M0,123.4h7v7H0V123.4z M130.7,123.5h7v7h-7V123.5z
	 M159.7,123.5h7v7h-7V123.5z M167,123.5h7v7h-7V123.5z M181.5,123.5h7v7h-7V123.5z M188.8,123.5h7v7h-7V123.5z M217.8,123.5h7v7h-7
	V123.5z M232.3,123.4h7v7h-7V123.4z M239.6,123.4h7v7h-7V123.4z M0,116.2h7v7H0V116.2z M130.7,116.3h7v7h-7V116.3z M159.7,116.3h7v7
	h-7V116.3z M167,116.3h7v7h-7V116.3z M174.2,116.3h7v7h-7V116.3z M181.5,116.3h7v7h-7V116.3z M188.8,116.3h7v7h-7V116.3z
	 M217.8,116.3h7v7h-7V116.3z M232.3,116.2h7v7h-7V116.2z M239.6,116.2h7v7h-7V116.2z M0,108.9h7v7H0V108.9z M130.7,109h7v7h-7V109z
	 M159.7,109h7v7h-7V109z M167,109h7v7h-7V109z M181.5,109h7v7h-7V109z M188.8,109h7v7h-7V109z M217.8,109h7v7h-7V109z M232.3,108.9
	h7v7h-7V108.9z M239.6,108.9h7v7h-7V108.9z M0,101.7h7v7H0V101.7z M130.7,101.8h7v7h-7V101.8z M137.9,101.8h7v7h-7V101.8z
	 M159.7,101.8h7v7h-7V101.8z M167,101.8h7v7h-7V101.8z M181.5,101.8h7v7h-7V101.8z M188.8,101.8h7v7h-7V101.8z M210.5,101.8h7v7h-7
	V101.8z M217.8,101.8h7v7h-7V101.8z M232.3,101.6h7v7h-7V101.6z M239.6,101.6h7v7h-7V101.6z M0,94.4h7v7H0V94.4z M137.9,94.5h7v7h-7
	V94.5z M159.7,94.5h7v7h-7V94.5z M167,94.5h7v7h-7V94.5z M181.5,94.5h7v7h-7V94.5z M188.8,94.5h7v7h-7V94.5z M210.5,94.5h7v7h-7
	V94.5z M232.3,94.4h7v7h-7V94.4z M239.6,94.4h7v7h-7V94.4z M0,87.1h7v7H0V87.1z M137.9,87.2h7v7h-7V87.2z M145.2,87.2h7v7h-7V87.2z
	 M203.3,87.2h7v7h-7V87.2z M210.5,87.2h7v7h-7V87.2z M232.3,87.1h7v7h-7V87.1z M239.6,87.1h7v7h-7V87.1z M0,79.9h7v7H0V79.9z
	 M145.2,80h7v7h-7V80z M152.5,80h7v7h-7V80z M159.7,80h7v7h-7V80z M188.8,80h7v7h-7V80z M196,80h7v7h-7V80z M203.3,80h7v7h-7V80z
	 M232.3,79.9h7v7h-7V79.9z M239.6,79.9h7v7h-7V79.9z M0,72.6h7v7H0V72.6z M159.7,72.7h7v7h-7V72.7z M167,72.7h7v7h-7V72.7z
	 M174.2,72.7h7v7h-7V72.7z M181.5,72.7h7v7h-7V72.7z M188.8,72.7h7v7h-7V72.7z M232.3,72.6h7v7h-7V72.6z M239.6,72.6h7v7h-7V72.6z
	 M0,65.4h7v7H0V65.4z M7.3,167h7v7h-7V167z M7.3,159.7h7v7h-7V159.7z M7.3,152.5h7v7h-7V152.5z M7.3,145.2h7v7h-7V145.2z M7.3,138h7
	v7h-7V138z M7.3,130.7h7v7h-7V130.7z M7.3,123.4h7v7h-7V123.4z M7.3,116.2h7v7h-7V116.2z M7.3,108.9h7v7h-7V108.9z M7.3,101.7h7v7
	h-7V101.7z M7.3,94.4h7v7h-7V94.4z M7.3,87.1h7v7h-7V87.1z M7.3,79.9h7v7h-7V79.9z M7.3,72.6h7v7h-7V72.6z M7.3,65.4h7v7h-7V65.4z
	 M232.3,65.3h7v7h-7V65.3z M239.6,65.3h7v7h-7V65.3z M0,58.1h7v7H0V58.1z M7.3,58.1h7v7h-7V58.1z M14.5,58.1h7v7h-7V58.1z
	 M21.8,58.1h7v7h-7V58.1z M29,58.1h7v7h-7V58.1z M36.3,58.1h7v7h-7V58.1z M43.6,58.1h7v7h-7V58.1z M50.8,58.1h7v7h-7V58.1z
	 M58.1,58.1h7v7h-7V58.1z M65.3,58.1h7v7h-7V58.1z M72.6,58.1h7v7h-7V58.1z M79.9,58.1h7v7h-7V58.1z M87.1,58.1h7v7h-7V58.1z
	 M94.4,58.1h7v7h-7V58.1z M101.6,58.1h7v7h-7V58.1z M108.9,58.1h7v7h-7V58.1z M116.2,58.1h7v7h-7V58.1z M123.4,58.1h7v7h-7
	C123.4,65.1,123.4,58.1,123.4,58.1z M130.7,58.1h7v7h-7V58.1z M137.9,58.1h7v7h-7V58.1z M145.2,58.1h7v7h-7V58.1z M152.5,58.1h7v7
	h-7V58.1z M159.7,58.1h7v7h-7V58.1z M167,58.1h7v7h-7V58.1z M174.2,58.1h7v7h-7V58.1z M181.5,58.1h7v7h-7V58.1z M188.8,58.1h7v7h-7
	V58.1z M196,58.1h7v7h-7V58.1z M203.3,58.1h7v7h-7V58.1z M210.5,58.1h7v7h-7V58.1z M217.8,58.1h7v7h-7V58.1z M225.1,58.1h7v7h-7
	V58.1z M232.3,58.1h7v7h-7V58.1z M239.6,58.1h7v7h-7V58.1z M0,50.8h7v7H0V50.8z M7.3,50.8h7v7h-7V50.8z M14.5,50.8h7v7h-7V50.8z
	 M21.8,50.8h7v7h-7V50.8z M29,50.8h7v7h-7V50.8z M36.3,50.8h7v7h-7V50.8z M43.6,50.8h7v7h-7V50.8z M50.8,50.8h7v7h-7V50.8z
	 M58.1,50.8h7v7h-7V50.8z M65.3,50.8h7v7h-7V50.8z M72.6,50.8h7v7h-7V50.8z M79.9,50.8h7v7h-7V50.8z M87.1,50.8h7v7h-7V50.8z
	 M94.4,50.8h7v7h-7V50.8z M101.6,50.8h7v7h-7V50.8z M108.9,50.8h7v7h-7V50.8z M116.2,50.8h7v7h-7V50.8z M123.4,50.8h7v7h-7
	C123.4,57.8,123.4,50.8,123.4,50.8z M130.7,50.8h7v7h-7V50.8z M137.9,50.8h7v7h-7V50.8z M145.2,50.8h7v7h-7V50.8z M152.5,50.8h7v7
	h-7V50.8z M159.7,50.8h7v7h-7V50.8z M167,50.8h7v7h-7V50.8z M174.2,50.8h7v7h-7V50.8z M181.5,50.8h7v7h-7V50.8z M188.8,50.8h7v7h-7
	V50.8z M196,50.8h7v7h-7V50.8z M203.3,50.8h7v7h-7V50.8z M210.5,50.8h7v7h-7V50.8z M217.8,50.8h7v7h-7V50.8z M225.1,50.8h7v7h-7
	V50.8z M232.3,50.8h7v7h-7V50.8z M239.6,50.8h7v7h-7V50.8z M0,43.6h7v7H0V43.6z M7.3,43.6h7v7h-7V43.6z M21.8,43.6h7v7h-7V43.6z
	 M36.3,43.6h7v7h-7V43.6z M50.8,43.6h7v7h-7V43.6z M58.1,43.6h7v7h-7V43.6z M72.6,43.6h7v7h-7V43.6z M79.9,43.6h7v7h-7V43.6z
	 M87.1,43.6h7v7h-7V43.6z M94.4,43.6h7v7h-7V43.6z M101.6,43.6h7v7h-7V43.6z M108.9,43.6h7v7h-7V43.6z M116.2,43.6h7v7h-7V43.6z
	 M123.4,43.6h7v7h-7C123.4,50.6,123.4,43.6,123.4,43.6z M130.7,43.6h7v7h-7V43.6z M137.9,43.6h7v7h-7V43.6z M145.2,43.6h7v7h-7V43.6
	z M152.4,43.6h7v7h-7V43.6z M159.7,43.6h7v7h-7V43.6z M167,43.6h7v7h-7V43.6z M174.2,43.6h7v7h-7V43.6z M188.7,43.6h7v7h-7V43.6z
	 M203.3,43.6h7v7h-7V43.6z M210.5,43.6h7v7h-7V43.6z M225,43.6h7v7h-7V43.6z M239.6,43.6h7v7h-7V43.6z M0,36.3h7v7H0V36.3z
	 M14.5,36.3h7v7h-7V36.3z M29,36.3h7v7h-7V36.3z M36.3,36.3h7v7h-7V36.3z M50.8,36.3h7v7h-7V36.3z M65.3,36.3h7v7h-7V36.3z
	 M72.6,36.3h7v7h-7V36.3z M79.9,36.3h7v7h-7V36.3z M87.1,36.3h7v7h-7V36.3z M94.4,36.3h7v7h-7V36.3z M101.6,36.3h7v7h-7V36.3z
	 M108.9,36.3h7v7h-7V36.3z M116.2,36.3h7v7h-7V36.3z M123.4,36.3h7v7h-7C123.4,43.3,123.4,36.3,123.4,36.3z M130.7,36.3h7v7h-7V36.3
	z M137.9,36.3h7v7h-7V36.3z M145.2,36.3h7v7h-7V36.3z M152.4,36.3h7v7h-7V36.3z M159.7,36.3h7v7h-7V36.3z M167,36.3h7v7h-7V36.3z
	 M181.5,36.3h7v7h-7V36.3z M188.7,36.3h7v7h-7V36.3z M203.3,36.3h7v7h-7V36.3z M217.8,36.3h7v7h-7V36.3z M232.3,36.3h7v7h-7V36.3z
	 M239.6,36.3h7v7h-7V36.3z M0,29h7v7H0V29z M7.3,29h7v7h-7V29z M21.8,29h7v7h-7V29z M36.3,29h7v7h-7V29z M50.8,29h7v7h-7V29z
	 M58.1,29h7v7h-7V29z M72.6,29h7v7h-7V29z M79.9,29h7v7h-7V29z M87.1,29h7v7h-7V29z M94.4,29h7v7h-7V29z M101.6,29h7v7h-7V29z
	 M108.9,29h7v7h-7V29z M116.2,29h7v7h-7V29z M123.4,29h7v7h-7C123.4,36,123.4,29,123.4,29z M130.7,29h7v7h-7V29z M137.9,29h7v7h-7
	V29z M145.2,29h7v7h-7V29z M152.4,29h7v7h-7V29z M159.7,29h7v7h-7V29z M167,29h7v7h-7V29z M174.2,29h7v7h-7V29z M188.7,29h7v7h-7V29
	z M203.3,29h7v7h-7V29z M210.5,29h7v7h-7V29z M225,29h7v7h-7V29z M239.6,29h7v7h-7V29z M0,21.8h7v7H0V21.8z M14.5,21.8h7v7h-7V21.8z
	 M29,21.8h7v7h-7V21.8z M36.3,21.8h7v7h-7V21.8z M50.8,21.8h7v7h-7V21.8z M65.3,21.8h7v7h-7V21.8z M79.9,21.8h7v7h-7V21.8z
	 M87.1,21.8h7v7h-7V21.8z M94.4,21.8h7v7h-7V21.8z M101.6,21.8h7v7h-7V21.8z M108.9,21.8h7v7h-7V21.8z M116.2,21.8h7v7h-7V21.8z
	 M123.4,21.8h7v7h-7C123.4,28.8,123.4,21.8,123.4,21.8z M130.7,21.8h7v7h-7V21.8z M137.9,21.8h7v7h-7V21.8z M145.2,21.8h7v7h-7V21.8
	z M152.4,21.8h7v7h-7V21.8z M159.7,21.8h7v7h-7V21.8z M167,21.8h7v7h-7V21.8z M181.5,21.8h7v7h-7V21.8z M188.7,21.8h7v7h-7V21.8z
	 M203.3,21.8h7v7h-7V21.8z M217.8,21.8h7v7h-7V21.8z M232.3,21.8h7v7h-7V21.8z M239.6,21.8h7v7h-7V21.8z M0,14.5h7v7H0V14.5z
	 M7.3,14.5h7v7h-7V14.5z M21.8,14.5h7v7h-7V14.5z M36.3,14.5h7v7h-7V14.5z M50.8,14.5h7v7h-7V14.5z M58.1,14.5h7v7h-7V14.5z
	 M72.6,14.5h7v7h-7V14.5z M87.1,14.5h7v7h-7V14.5z M101.6,14.5h7v7h-7V14.5z M108.9,14.5h7v7h-7V14.5z M116.2,14.5h7v7h-7V14.5z
	 M123.4,14.5h7v7h-7C123.4,21.5,123.4,14.5,123.4,14.5z M130.7,14.5h7v7h-7V14.5z M137.9,14.5h7v7h-7V14.5z M145.2,14.5h7v7h-7V14.5
	z M159.7,14.5h7v7h-7V14.5z M174.2,14.5h7v7h-7V14.5z M188.7,14.5h7v7h-7V14.5z M203.3,14.5h7v7h-7V14.5z M210.5,14.5h7v7h-7V14.5z
	 M225,14.5h7v7h-7V14.5z M239.6,14.5h7v7h-7V14.5z M0,7.3h7v7H0V7.3z M14.5,7.3h7v7h-7V7.3z M29,7.3h7v7h-7V7.3z M36.3,7.3h7v7h-7
	V7.3z M50.8,7.3h7v7h-7V7.3z M65.3,7.3h7v7h-7V7.3z M79.9,7.3h7v7h-7V7.3z M94.4,7.3h7v7h-7V7.3z M108.9,7.3h7v7h-7V7.3z M123.4,7.3
	h7v7h-7C123.4,14.3,123.4,7.3,123.4,7.3z M137.9,7.3h7v7h-7V7.3z M152.4,7.3h7v7h-7V7.3z M167,7.3h7v7h-7V7.3z M181.5,7.3h7v7h-7
	V7.3z M188.7,7.3h7v7h-7V7.3z M203.3,7.3h7v7h-7V7.3z M217.8,7.3h7v7h-7V7.3z M232.3,7.3h7v7h-7V7.3z M239.6,7.3h7v7h-7V7.3z M7.3,0
	h7v7h-7V0z M14.5,0h7v7h-7V0z M21.8,0h7v7h-7V0z M29,0h7v7h-7V0z M58.1,0h7v7h-7V0z M65.3,0h7v7h-7V0z M72.6,0h7v7h-7V0z M79.9,0h7
	v7h-7V0z M87.1,0h7v7h-7V0z M94.4,0h7v7h-7V0z M101.6,0h7v7h-7V0z M108.9,0h7v7h-7V0z M116.2,0h7v7h-7V0z M123.4,0h7v7h-7
	C123.4,7,123.4,0,123.4,0z M130.7,0h7v7h-7V0z M137.9,0h7v7h-7V0z M145.2,0h7v7h-7V0z M152.4,0h7v7h-7V0z M159.7,0h7v7h-7V0z M167,0
	h7v7h-7V0z M174.2,0h7v7h-7V0z M181.5,0h7v7h-7V0z M210.5,0h7v7h-7V0z M217.8,0h7v7h-7V0z M225,0h7v7h-7V0z M232.3,0h7v7h-7V0z
	 M0,181.5h7v7H0V181.5z M7.3,181.5h7v7h-7V181.5z M14.5,181.5h7v7h-7V181.5z M21.8,181.5h7v7h-7V181.5z M29.1,181.5h7v7h-7
	C29.1,188.5,29.1,181.5,29.1,181.5z M36.3,181.5h7v7h-7V181.5z M43.6,181.5h7v7h-7V181.5z M50.8,181.5h7v7h-7V181.5z M58.1,181.5h7
	v7h-7V181.5z M65.4,181.5h7v7h-7V181.5z M72.6,181.5h7v7h-7V181.5z M79.9,181.5h7v7h-7V181.5z M87.1,181.5h7v7h-7V181.5z
	 M94.4,181.5h7v7h-7V181.5z M101.7,181.5h7v7h-7V181.5z M108.9,181.5h7v7h-7V181.5z M116.2,181.5h7v7h-7V181.5z M123.4,181.5h7v7h-7
	C123.4,188.5,123.4,181.5,123.4,181.5z M130.7,181.5h7v7h-7V181.5z M137.9,181.5h7v7h-7V181.5z M145.2,181.5h7v7h-7V181.5z
	 M152.5,181.5h7v7h-7V181.5z M159.7,181.5h7v7h-7V181.5z M167,181.5h7v7h-7V181.5z M174.2,181.5h7v7h-7V181.5z M181.5,181.5h7v7h-7
	V181.5z M188.8,181.5h7v7h-7V181.5z M196,181.5h7v7h-7V181.5z M203.3,181.5h7v7h-7V181.5z M210.5,181.5h7v7h-7V181.5z M217.8,181.5
	h7v7h-7V181.5z M225.1,181.5h7v7h-7V181.5z M232.3,181.5h7v7h-7V181.5z M239.6,181.5h7v7h-7V181.5z M0,188.8h7v7H0V188.8z
	 M7.3,188.8h7v7h-7V188.8z M21.8,188.8h7v7h-7V188.8z M36.3,188.8h7v7h-7V188.8z M50.8,188.8h7v7h-7V188.8z M58.1,188.8h7v7h-7
	V188.8z M72.6,188.8h7v7h-7V188.8z M79.9,188.8h7v7h-7V188.8z M87.1,188.8h7v7h-7V188.8z M94.4,188.8h7v7h-7V188.8z M101.6,188.8h7
	v7h-7V188.8z M108.9,188.8h7v7h-7V188.8z M116.2,188.8h7v7h-7V188.8z M123.4,188.8h7v7h-7C123.4,195.8,123.4,188.8,123.4,188.8z
	 M130.7,188.8h7v7h-7V188.8z M137.9,188.8h7v7h-7V188.8z M145.2,188.8h7v7h-7V188.8z M152.5,188.8h7v7h-7V188.8z M159.7,188.8h7v7
	h-7V188.8z M167,188.8h7v7h-7V188.8z M174.2,188.8h7v7h-7V188.8z M188.8,188.8h7v7h-7V188.8z M203.3,188.8h7v7h-7V188.8z
	 M210.5,188.8h7v7h-7V188.8z M225.1,188.8h7v7h-7V188.8z M239.6,188.8h7v7h-7V188.8z M0,196h7v7H0V196z M14.5,196h7v7h-7V196z
	 M29,196h7v7h-7V196z M36.3,196h7v7h-7V196z M50.8,196h7v7h-7V196z M65.3,196h7v7h-7V196z M72.6,196h7v7h-7V196z M79.9,196h7v7h-7
	V196z M87.1,196h7v7h-7V196z M94.4,196h7v7h-7V196z M101.6,196h7v7h-7V196z M108.9,196h7v7h-7V196z M116.2,196h7v7h-7V196z
	 M123.4,196h7v7h-7C123.4,203,123.4,196,123.4,196z M130.7,196h7v7h-7V196z M137.9,196h7v7h-7V196z M145.2,196h7v7h-7V196z
	 M152.5,196h7v7h-7V196z M159.7,196h7v7h-7V196z M167,196h7v7h-7V196z M181.5,196h7v7h-7V196z M188.8,196h7v7h-7V196z M203.3,196h7
	v7h-7V196z M217.8,196h7v7h-7V196z M232.3,196h7v7h-7V196z M239.6,196h7v7h-7V196z M0,203.3h7v7H0V203.3z M7.3,203.3h7v7h-7V203.3z
	 M21.8,203.3h7v7h-7V203.3z M36.3,203.3h7v7h-7V203.3z M50.8,203.3h7v7h-7V203.3z M58.1,203.3h7v7h-7V203.3z M72.6,203.3h7v7h-7
	V203.3z M79.9,203.3h7v7h-7V203.3z M87.1,203.3h7v7h-7V203.3z M94.4,203.3h7v7h-7V203.3z M101.6,203.3h7v7h-7V203.3z M108.9,203.3h7
	v7h-7V203.3z M116.2,203.3h7v7h-7V203.3z M123.4,203.3h7v7h-7C123.4,210.3,123.4,203.3,123.4,203.3z M130.7,203.3h7v7h-7V203.3z
	 M137.9,203.3h7v7h-7V203.3z M145.2,203.3h7v7h-7V203.3z M152.5,203.3h7v7h-7V203.3z M159.7,203.3h7v7h-7V203.3z M167,203.3h7v7h-7
	V203.3z M174.2,203.3h7v7h-7V203.3z M188.8,203.3h7v7h-7V203.3z M203.3,203.3h7v7h-7V203.3z M210.5,203.3h7v7h-7V203.3z
	 M225.1,203.3h7v7h-7V203.3z M239.6,203.3h7v7h-7V203.3z M0,210.6h7v7H0V210.6z M14.5,210.6h7v7h-7V210.6z M29,210.6h7v7h-7V210.6z
	 M36.3,210.6h7v7h-7V210.6z M50.8,210.6h7v7h-7V210.6z M65.3,210.6h7v7h-7V210.6z M79.9,210.6h7v7h-7V210.6z M87.1,210.6h7v7h-7
	V210.6z M94.4,210.6h7v7h-7V210.6z M101.6,210.6h7v7h-7V210.6z M108.9,210.6h7v7h-7V210.6z M116.2,210.6h7v7h-7V210.6z M123.4,210.6
	h7v7h-7C123.4,217.6,123.4,210.6,123.4,210.6z M130.7,210.6h7v7h-7V210.6z M137.9,210.6h7v7h-7V210.6z M145.2,210.6h7v7h-7V210.6z
	 M152.5,210.6h7v7h-7V210.6z M159.7,210.6h7v7h-7V210.6z M167,210.6h7v7h-7V210.6z M181.5,210.6h7v7h-7V210.6z M188.8,210.6h7v7h-7
	V210.6z M203.3,210.6h7v7h-7V210.6z M217.8,210.6h7v7h-7V210.6z M232.3,210.6h7v7h-7V210.6z M239.6,210.6h7v7h-7V210.6z M0,217.8h7
	v7H0V217.8z M7.3,217.8h7v7h-7V217.8z M21.8,217.8h7v7h-7V217.8z M36.3,217.8h7v7h-7V217.8z M50.8,217.8h7v7h-7V217.8z M58.1,217.8
	h7v7h-7V217.8z M72.6,217.8h7v7h-7V217.8z M87.1,217.8h7v7h-7V217.8z M101.6,217.8h7v7h-7V217.8z M108.9,217.8h7v7h-7V217.8z
	 M116.2,217.8h7v7h-7V217.8z M123.4,217.8h7v7h-7C123.4,224.8,123.4,217.8,123.4,217.8z M130.7,217.8h7v7h-7V217.8z M137.9,217.8h7
	v7h-7V217.8z M145.2,217.8h7v7h-7V217.8z M159.7,217.8h7v7h-7V217.8z M174.2,217.8h7v7h-7V217.8z M188.8,217.8h7v7h-7V217.8z
	 M203.3,217.8h7v7h-7V217.8z M210.5,217.8h7v7h-7V217.8z M225.1,217.8h7v7h-7V217.8z M239.6,217.8h7v7h-7V217.8z M0,225.1h7v7H0
	V225.1z M14.5,225.1h7v7h-7V225.1z M29,225.1h7v7h-7V225.1z M36.3,225.1h7v7h-7V225.1z M50.8,225.1h7v7h-7V225.1z M65.3,225.1h7v7
	h-7V225.1z M79.9,225.1h7v7h-7V225.1z M94.4,225.1h7v7h-7V225.1z M108.9,225.1h7v7h-7V225.1z M123.4,225.1h7v7h-7
	C123.4,232.1,123.4,225.1,123.4,225.1z M137.9,225.1h7v7h-7V225.1z M152.5,225.1h7v7h-7V225.1z M167,225.1h7v7h-7V225.1z
	 M181.5,225.1h7v7h-7V225.1z M188.8,225.1h7v7h-7V225.1z M203.3,225.1h7v7h-7V225.1z M217.8,225.1h7v7h-7V225.1z M232.3,225.1h7v7
	h-7V225.1z M239.6,225.1h7v7h-7V225.1z M7.3,232.3h7v7h-7V232.3z M14.5,232.3h7v7h-7V232.3z M21.8,232.3h7v7h-7V232.3z M29,232.3h7
	v7h-7V232.3z M58.1,232.3h7v7h-7V232.3z M65.3,232.3h7v7h-7V232.3z M72.6,232.3h7v7h-7V232.3z M79.9,232.3h7v7h-7V232.3z
	 M87.1,232.3h7v7h-7V232.3z M94.4,232.3h7v7h-7V232.3z M101.6,232.3h7v7h-7V232.3z M108.9,232.3h7v7h-7V232.3z M116.2,232.3h7v7h-7
	V232.3z M123.4,232.3h7v7h-7C123.4,239.3,123.4,232.3,123.4,232.3z M130.7,232.3h7v7h-7V232.3z M137.9,232.3h7v7h-7V232.3z
	 M145.2,232.3h7v7h-7V232.3z M152.5,232.3h7v7h-7V232.3z M159.7,232.3h7v7h-7V232.3z M167,232.3h7v7h-7V232.3z M174.2,232.3h7v7h-7
	V232.3z M181.5,232.3h7v7h-7V232.3z M210.5,232.3h7v7h-7V232.3z M217.8,232.3h7v7h-7V232.3z M225.1,232.3h7v7h-7V232.3z
	 M232.3,232.3h7v7h-7V232.3z"/>
</svg>
