<?xml version="1.0" encoding="utf-8"?>
<!-- Generator: Adobe Illustrator 27.3.1, SVG Export Plug-In . SVG Version: 6.00 Build 0)  -->
<svg version="1.1" xmlns="http://www.w3.org/2000/svg" xmlns:xlink="http://www.w3.org/1999/xlink" x="0px" y="0px"
	 viewBox="0 0 246.6 239.3" style="enable-background:new 0 0 246.6 239.3;" xml:space="preserve">
<style type="text/css">
	.st0{fill:#FCE19B;}
	.st1{fill:#140901;}
</style>
<g id="Слой_2">
	<path class="st0" d="M251.6,7.2c0-2.8-2.2-5-5-5h-2.2v-2.3c0-2.8-2.2-5-5-5h-7c-0.1,0-0.1,0-0.2,0h-7c0,0-0.1,0-0.1,0
		c-0.1,0-0.1,0-0.2,0h-7c0,0-0.1,0-0.2,0c0,0-0.1,0-0.2,0h-7c-0.1,0-0.1,0-0.2,0h-7c0,0-0.1,0-0.2,0c0,0-0.1,0-0.2,0h-7
		c-2.8,0-5,2.2-5,5v2.3h-2.3c-1.5,0-2.9,0.7-3.8,1.8c-0.9-1.1-2.3-1.8-3.8-1.8H179V0c0-2.8-2.2-5-5-5h-7c0,0-0.1,0-0.1,0
		c0,0-0.1,0-0.2,0h-7c-0.1,0-0.1,0-0.2,0h-7c0,0-0.1,0-0.1,0c0,0-0.1,0-0.2,0h-7c0,0-0.1,0-0.1,0c-0.1,0-0.1,0-0.2,0h-7
		c-0.1,0-0.1,0-0.2,0h-7c0,0-0.1,0-0.1,0c-0.1,0-0.1,0-0.2,0h-7c-0.1,0-0.1,0-0.2,0h-7c-0.1,0-0.1,0-0.1,0c-0.1,0-0.1,0-0.2,0h-7
		c-0.1,0-0.1,0-0.1,0c0,0-0.1,0-0.1,0h-7c-0.1,0-0.1,0-0.2,0h-7c-0.1,0-0.1,0-0.1,0c0,0-0.1,0-0.1,0h-7C87-5,87-5,86.9-5h-7
		c-0.1,0-0.1,0-0.1,0c0,0-0.1,0-0.1,0h-7c-2.8,0-5,2.2-5,5v2.2h-2.3c-1.5,0-2.8,0.7-3.8,1.7c-0.9-1-2.3-1.7-3.8-1.7h-2.2V0
		c0-2.8-2.2-5-5-5h-7c-0.1,0-0.1,0-0.2,0c-0.1,0-0.1,0-0.2,0h-7c-0.1,0-0.1,0-0.2,0h-7c-0.1,0-0.1,0-0.2,0h-7c-0.1,0-0.1,0-0.1,0
		c0,0-0.1,0-0.1,0h-7c-0.1,0-0.1,0-0.2,0h-7c-2.8,0-5,2.2-5,5v2.2H0c-2.8,0-5,2.2-5,5v7c0,0.1,0,0.1,0,0.1c0,0,0,0.1,0,0.1v7
		c0,0.1,0,0.1,0,0.1c0,0,0,0.1,0,0.1v7c0,0,0,0.1,0,0.1c0,0,0,0.1,0,0.1v7c0,0.1,0,0.1,0,0.1c0,0,0,0.1,0,0.1v7c0,0,0,0.1,0,0.1
		c0,0,0,0.1,0,0.1v7c0,0.1,0,0.1,0,0.1c0,0,0,0.1,0,0.1v7c0,0,0,0.1,0,0.1c0,0,0,0.1,0,0.1v7c0,0.1,0,0.1,0,0.1c0,0,0,0.1,0,0.1v7
		c0,0.1,0,0.1,0,0.1c0,0.1,0,0.1,0,0.2v7c0,0,0,0.1,0,0.1c0,0,0,0.1,0,0.1v7c0,0.1,0,0.1,0,0.1c0,0.1,0,0.1,0,0.2v7c0,0,0,0.1,0,0.1
		c0,0,0,0.1,0,0.1v7c0,0.1,0,0.1,0,0.1c0,0.1,0,0.1,0,0.2v7c0,0.1,0,0.1,0,0.1c0,0,0,0.1,0,0.1v7c0,0,0,0.1,0,0.1c0,0,0,0.1,0,0.1v7
		c0,0,0,0.1,0,0.2c0,0,0,0.1,0,0.2v7c0,0,0,0.1,0,0.1c0,0,0,0.1,0,0.1v7c0,0,0,0.1,0,0.2c0,0,0,0.1,0,0.2v7c0,0,0,0.1,0,0.1
		c0,0.1,0,0.1,0,0.2v7c0,0,0,0.1,0,0.1c0,0,0,0.1,0,0.1v7c0,0,0,0.1,0,0.1c0,0.1,0,0.1,0,0.2v7c0,0,0,0.1,0,0.2c0,0,0,0.1,0,0.1v7
		c0,0,0,0.1,0,0.1c0,0,0,0.1,0,0.1v7c0,0,0,0.1,0,0.2c0,0,0,0.1,0,0.1v7c0,0,0,0.1,0,0.1c0,0,0,0.1,0,0.1v7c0,0,0,0.1,0,0.2
		c0,0,0,0.1,0,0.1v7c0,0,0,0.1,0,0.2c0,0,0,0.1,0,0.1v7c0,0,0,0.1,0,0.1c0,0,0,0.1,0,0.1v7c0,0,0,0.1,0,0.2c0,0,0,0.1,0,0.1v7
		c0,0,0,0.1,0,0.1c0,0,0,0.1,0,0.1v7c0,2.8,2.2,5,5,5h2.3v2.3c0,2.8,2.2,5,5,5h7c0.1,0,0.1,0,0.2,0h7c0.1,0,0.2,0,0.3,0h7
		c0.1,0,0.1,0,0.2,0h7c0.1,0,0.2,0,0.3,0h7c0.1,0,0.2,0,0.3,0h7c2.8,0,5-2.2,5-5V237h2.2c2.8,0,5-2.2,5-5v-2.2h2.3c2.8,0,5-2.2,5-5
		v-2.3h2.2c0.1,0,0.2,0,0.3,0h7c2.8,0,5-2.2,5-5v-3c0.7,0.4,1.6,0.7,2.5,0.7h2.3v2.3c0,0,0,0.1,0,0.1c0,0,0,0.1,0,0.1v7
		c0,0,0,0.1,0,0.2c0,0,0,0.1,0,0.1v7c0,2.8,2.2,5,5,5h7c0.1,0,0.1,0,0.2,0h7c2.8,0,5-2.2,5-5v-7c0,0,0-0.1,0-0.1c0-0.1,0-0.1,0-0.2
		v-7c0,0,0-0.1,0-0.1c0,0,0-0.1,0-0.1v-2.3h2.3c2.8,0,5-2.2,5-5V208h2.2c0.1,0,0.2,0,0.3,0h2.2v2.2c0,2.8,2.2,5,5,5h2.3v2.3
		c0,0,0,0.1,0,0.1c0,0,0,0.1,0,0.1v7c0,0,0,0.1,0,0.2c0,0,0,0.1,0,0.1v7c0,2.8,2.2,5,5,5h7c0.1,0,0.1,0,0.2,0h7c2.8,0,5-2.2,5-5v-7
		c0,0,0-0.1,0-0.1c0-0.1,0-0.1,0-0.2v-7c0,0,0-0.1,0-0.1c0,0,0-0.1,0-0.1v-2.3h2.3c0.9,0,1.8-0.3,2.5-0.7v3c0,2.8,2.2,5,5,5h7
		c0.1,0,0.1,0,0.2,0h2.3v2.3c0,2.8,2.2,5,5,5h2.3v2.2c0,2.8,2.2,5,5,5h2.2v2.3c0,2.8,2.2,5,5,5h7c0.1,0,0.2,0,0.3,0h7
		c0.1,0,0.1,0,0.2,0h7c0.1,0,0.2,0,0.3,0h7c0.1,0,0.2,0,0.3,0h7c0.1,0,0.1,0,0.2,0h7c2.8,0,5-2.2,5-5V237h2.3c2.8,0,5-2.2,5-5v-7
		c0,0,0-0.1,0-0.1c0,0,0-0.1,0-0.1v-7c0,0,0-0.1,0-0.1c0,0,0-0.1,0-0.2v-7c0,0,0-0.1,0-0.1c0,0,0-0.1,0-0.1v-7c0,0,0-0.1,0-0.1
		c0,0,0-0.1,0-0.2v-7c0,0,0-0.1,0-0.1c0-0.1,0-0.1,0-0.2v-7c0,0,0-0.1,0-0.1c0,0,0-0.1,0-0.1v-7c0,0,0-0.1,0-0.1c0-0.1,0-0.1,0-0.2
		v-7c0,0,0-0.1,0-0.1c0,0,0-0.1,0-0.1v-7c0,0,0-0.1,0-0.1c0-0.1,0-0.1,0-0.2v-7c0,0,0-0.1,0-0.2c0,0,0-0.1,0-0.1v-7c0,0,0-0.1,0-0.1
		c0,0,0-0.1,0-0.1v-7c0,0,0-0.1,0-0.2c0,0,0-0.1,0-0.1v-7c0,0,0-0.1,0-0.2c0,0,0-0.1,0-0.2v-7c0,0,0-0.1,0-0.1c0,0,0-0.1,0-0.1v-7
		c0,0,0-0.1,0-0.2c0,0,0-0.1,0-0.2v-7c0,0,0-0.1,0-0.1c0,0,0-0.1,0-0.1v-7c0-0.1,0-0.1,0-0.1c0,0,0-0.1,0-0.1v-7c0-0.1,0-0.1,0-0.2
		c0,0,0-0.1,0-0.1v-7c0,0,0-0.1,0-0.1c0,0,0-0.1,0-0.1v-7c0-0.1,0-0.1,0-0.2c0,0,0-0.1,0-0.1v-7c0,0,0-0.1,0-0.1c0,0,0-0.1,0-0.1v-7
		c0-0.1,0-0.1,0-0.2c0,0,0-0.1,0-0.1v-7c0-0.1,0-0.1,0-0.1c0,0,0-0.1,0-0.1v-7c0,0,0-0.1,0-0.1c0,0,0-0.1,0-0.1v-7
		c0-0.1,0-0.1,0-0.1c0,0,0-0.1,0-0.1v-7c0,0,0-0.1,0-0.1c0,0,0-0.1,0-0.1v-7c0-0.1,0-0.1,0-0.1c0,0,0-0.1,0-0.1v-7c0,0,0-0.1,0-0.1
		c0,0,0-0.1,0-0.1v-7c0-0.1,0-0.1,0-0.1c0,0,0-0.1,0-0.1v-7c0-0.1,0-0.1,0-0.1c0,0,0-0.1,0-0.1V7.2z"/>
</g>
<g id="Слой_1">
	<path class="st1" d="M79.8,196h7v7h-7V196z M79.9,123.4h7v7h-7V123.4z M79.9,116.1h7v7h-7V116.1z M87.1,130.7h7v7h-7V130.7z
		 M87.1,123.4h7v7h-7V123.4z M87.1,116.1h7v7h-7V116.1z M94.4,130.7h7v7h-7V130.7z M94.4,123.4h7v7h-7V123.4z M101.6,130.7h7v7h-7
		V130.7z M101.6,123.4h7v7h-7V123.4z M130.6,203.2h7v7h-7V203.2z M130.6,196h7v7h-7V196z M130.6,188.7h7v7h-7V188.7z M130.6,174.2h7
		v7h-7V174.2z M130.6,166.9h7v7h-7V166.9z M130.6,159.7h7v7h-7V159.7z M130.6,152.4h7v7h-7V152.4z M130.6,145.1h7v7h-7V145.1z
		 M130.6,137.9h7v7h-7V137.9z M108.9,130.7h7v7h-7V130.7z M108.9,116.1h7v7h-7V116.1z M137.9,203.2h7v7h-7V203.2z M137.9,196h7v7h-7
		V196z M137.9,188.7h7v7h-7V188.7z M137.9,181.4h7v7h-7V181.4z M137.9,174.2h7v7h-7V174.2z M137.9,166.9h7v7h-7V166.9z M137.9,159.7
		h7v7h-7V159.7z M137.9,152.4h7v7h-7V152.4z M137.9,145.1h7v7h-7V145.1z M137.9,137.9h7v7h-7V137.9z M116.2,130.7h7v7h-7V130.7z
		 M116.2,116.1h7v7h-7V116.1z M145.1,203.2h7v7h-7V203.2z M145.1,196h7v7h-7V196z M145.1,188.7h7v7h-7V188.7z M145.1,181.4h7v7h-7
		V181.4z M145.1,174.2h7v7h-7V174.2z M145.1,166.9h7v7h-7V166.9z M145.1,159.7h7v7h-7V159.7z M145.1,152.4h7v7h-7V152.4z
		 M145.1,145.1h7v7h-7V145.1z M145.1,137.9h7v7h-7V137.9z M123.4,130.7h7v7h-7V130.7z M123.4,116.1h7v7h-7V116.1z M152.4,203.2h7v7
		h-7V203.2z M152.4,196h7v7h-7V196z M152.4,188.7h7v7h-7V188.7z M137.9,225h7v7h-7V225z M137.9,217.7h7v7h-7V217.7z M137.9,210.5h7
		v7h-7V210.5z M145.1,225h7v7h-7V225z M145.1,217.7h7v7h-7V217.7z M145.1,210.5h7v7h-7V210.5z M152.4,174.2h7v7h-7V174.2z
		 M152.4,166.9h7v7h-7V166.9z M152.4,159.7h7v7h-7V159.7z M152.4,152.4h7v7h-7V152.4z M152.4,145.1h7v7h-7V145.1z M152.4,137.9h7v7
		h-7V137.9z M87.1,203.2h7v7h-7V203.2z M87.1,196h7v7h-7V196z M87.1,188.7h7v7h-7V188.7z M87.1,174.2h7v7h-7V174.2z M87.1,166.9h7v7
		h-7V166.9z M87.1,159.7h7v7h-7V159.7z M87.1,152.4h7v7h-7V152.4z M87.1,145.1h7v7h-7V145.1z M87.1,137.9h7v7h-7V137.9z M94.4,203.2
		h7v7h-7V203.2z M94.4,196h7v7h-7V196z M94.4,188.7h7v7h-7V188.7z M94.4,181.4h7v7h-7V181.4z M94.4,174.2h7v7h-7V174.2z M94.4,166.9
		h7v7h-7V166.9z M94.4,159.7h7v7h-7V159.7z M94.4,152.4h7v7h-7V152.4z M94.4,145.1h7v7h-7V145.1z M94.4,137.9h7v7h-7V137.9z
		 M101.6,203.2h7v7h-7V203.2z M101.6,196h7v7h-7V196z M101.6,188.7h7v7h-7V188.7z M101.6,181.4h7v7h-7V181.4z M101.6,174.2h7v7h-7
		V174.2z M101.6,166.9h7v7h-7V166.9z M101.6,159.7h7v7h-7V159.7z M101.6,152.4h7v7h-7V152.4z M101.6,145.1h7v7h-7V145.1z
		 M101.6,137.9h7v7h-7V137.9z M108.9,203.2h7v7h-7V203.2z M108.9,196h7v7h-7V196z M116.1,196h7v7h-7V196z M123.4,196h7v7h-7V196z
		 M108.9,188.7h7v7h-7V188.7z M94.4,225h7v7h-7V225z M94.4,217.7h7v7h-7V217.7z M94.4,210.5h7v7h-7V210.5z M101.6,225h7v7h-7V225z
		 M101.6,217.7h7v7h-7V217.7z M101.6,210.5h7v7h-7V210.5z M108.9,174.2h7v7h-7V174.2z M108.9,166.9h7v7h-7V166.9z M108.9,159.7h7v7
		h-7V159.7z M108.9,152.4h7v7h-7V152.4z M108.9,145.1h7v7h-7V145.1z M108.9,137.9h7v7h-7V137.9z M130.7,130.7h7v7h-7V130.7z
		 M130.7,116.1h7v7h-7V116.1z M137.9,130.7h7v7h-7V130.7z M137.9,123.4h7v7h-7V123.4z M145.2,130.7h7v7h-7V130.7z M145.2,123.4h7v7
		h-7V123.4z M152.5,130.7h7v7h-7V130.7z M152.5,123.4h7v7h-7V123.4z M152.5,116.1h7v7h-7V116.1z M159.7,123.4h7v7h-7V123.4z
		 M159.7,116.1h7v7h-7V116.1z M159.7,196h7v7h-7V196z M0,225h7v7H0V225z M0,217.8h7v7H0V217.8z M0,210.5h7v7H0V210.5z M0,203.3h7v7
		H0V203.3z M0,196h7v7H0V196z M0,188.7h7v7H0V188.7z M0,181.5h7v7H0V181.5z M0,174.2h7v7H0V174.2z M0,167h7v7H0V167z M0,159.7h7v7H0
		V159.7z M0,152.4h7v7H0V152.4z M0,145.2h7v7H0V145.2z M0,43.5h7v7H0V43.5z M0,36.3h7v7H0V36.3z M0,137.9h7v7H0V137.9z M0,130.6h7v7
		H0V130.6z M0,123.4h7v7H0V123.4z M0,116.1h7v7H0V116.1z M0,108.9h7v7H0V108.9z M0,101.6h7v7H0V101.6z M0,94.3h7v7H0V94.3z M0,87.1
		h7v7H0V87.1z M0,79.8h7v7H0V79.8z M0,72.6h7v7H0V72.6z M0,65.3h7v7H0V65.3z M0,58h7v7H0V58z M0,50.8h7v7H0V50.8z M0,29h7v7H0V29z
		 M0,21.8h7v7H0V21.8z M0,14.5h7v7H0V14.5z M0,7.2h7v7H0V7.2z M7.3,232.3h7v7h-7V232.3z M7.3,225h7v7h-7V225z M7.3,210.5h7v7h-7
		V210.5z M7.3,203.3h7v7h-7V203.3z M7.3,188.7h7v7h-7V188.7z M7.3,181.5h7v7h-7V181.5z M7.3,167h7v7h-7V167z M7.3,159.7h7v7h-7
		V159.7z M7.3,152.4h7v7h-7V152.4z M7.3,145.2h7v7h-7V145.2z M7.3,36.3h7v7h-7V36.3z M7.3,50.8h7v7h-7V50.8z M7.3,29h7v7h-7V29z
		 M7.3,14.5h7v7h-7V14.5z M7.3,7.2h7v7h-7V7.2z M7.3,0h7v7h-7V0z M14.5,232.3h7v7h-7V232.3z M14.5,217.8h7v7h-7V217.8z M14.5,210.5
		h7v7h-7V210.5z M14.5,196h7v7h-7V196z M14.5,188.7h7v7h-7V188.7z M14.5,174.2h7v7h-7V174.2z M14.5,167h7v7h-7V167z M14.5,159.7h7v7
		h-7V159.7z M14.5,152.4h7v7h-7V152.4z M14.5,145.2h7v7h-7V145.2z M14.5,43.5h7v7h-7V43.5z M14.5,137.9h7v7h-7V137.9z M14.5,123.4h7
		v7h-7V123.4z M14.5,116.1h7v7h-7V116.1z M14.5,108.9h7v7h-7V108.9z M14.5,101.6h7v7h-7V101.6z M14.5,94.3h7v7h-7V94.3z M14.5,87.1
		h7v7h-7V87.1z M14.5,79.8h7v7h-7V79.8z M14.5,72.6h7v7h-7V72.6z M14.5,65.3h7v7h-7V65.3z M14.5,50.8h7v7h-7V50.8z M14.5,29h7v7h-7
		V29z M14.5,21.8h7v7h-7V21.8z M14.5,0h7v7h-7V0z M21.8,232.3h7v7h-7V232.3z M21.8,225h7v7h-7V225z M21.8,217.8h7v7h-7V217.8z
		 M21.8,210.5h7v7h-7V210.5z M21.8,196h7v7h-7V196z M21.8,188.7h7v7h-7V188.7z M21.8,181.5h7v7h-7V181.5z M21.8,174.2h7v7h-7V174.2z
		 M21.8,167h7v7h-7V167z M21.8,159.7h7v7h-7V159.7z M21.8,152.4h7v7h-7V152.4z M21.8,145.2h7v7h-7V145.2z M21.8,43.5h7v7h-7V43.5z
		 M21.8,36.3h7v7h-7V36.3z M21.8,130.6h7v7h-7V130.6z M21.8,123.4h7v7h-7V123.4z M21.8,116.1h7v7h-7V116.1z M21.8,101.6h7v7h-7
		V101.6z M21.8,87.1h7v7h-7V87.1z M21.8,72.6h7v7h-7V72.6z M21.8,65.3h7v7h-7V65.3z M21.8,50.8h7v7h-7V50.8z M21.8,29h7v7h-7V29z
		 M21.8,21.8h7v7h-7V21.8z M14.5,7.2h7v7h-7V7.2z M21.8,7.2h7v7h-7V7.2z M21.8,0h7v7h-7V0z M29,232.3h7v7h-7V232.3z M29,217.8h7v7
		h-7V217.8z M29,210.5h7v7h-7V210.5z M29,203.3h7v7h-7V203.3z M29,196h7v7h-7V196z M29,188.7h7v7h-7V188.7z M29,174.2h7v7h-7V174.2z
		 M29,167h7v7h-7V167z M29,159.7h7v7h-7V159.7z M29,152.4h7v7h-7V152.4z M29,145.2h7v7h-7V145.2z M29,43.5h7v7h-7V43.5z M29,137.9h7
		v7h-7V137.9z M29,123.4h7v7h-7V123.4z M29,116.1h7v7h-7V116.1z M29,108.9h7v7h-7V108.9z M29,101.6h7v7h-7V101.6z M29,94.3h7v7h-7
		V94.3z M29,87.1h7v7h-7V87.1z M29,79.8h7v7h-7V79.8z M29,72.6h7v7h-7V72.6z M29,65.3h7v7h-7V65.3z M29,50.8h7v7h-7V50.8z M29,29h7
		v7h-7V29z M29,21.8h7v7h-7V21.8z M29,14.5h7v7h-7V14.5z M36.3,7.2h7v7h-7V7.2z M29,7.2h7v7h-7V7.2z M29,0h7v7h-7V0z M36.3,232.3h7
		v7h-7V232.3z M36.3,217.8h7v7h-7V217.8z M36.3,210.5h7v7h-7V210.5z M36.3,196h7v7h-7V196z M36.3,188.7h7v7h-7V188.7z M36.3,174.2h7
		v7h-7V174.2z M36.3,167h7v7h-7V167z M36.3,159.7h7v7h-7V159.7z M36.3,152.4h7v7h-7V152.4z M36.3,145.2h7v7h-7V145.2z M36.3,43.5h7
		v7h-7V43.5z M36.3,123.4h7v7h-7V123.4z M36.3,79.8h7v7h-7V79.8z M36.3,50.8h7v7h-7V50.8z M36.3,29h7v7h-7V29z M36.3,21.8h7v7h-7
		V21.8z M43.6,7.2h7v7h-7V7.2z M36.3,0h7v7h-7V0z M43.6,232.3h7v7h-7V232.3z M43.6,225h7v7h-7V225z M43.6,210.5h7v7h-7V210.5z
		 M43.6,203.3h7v7h-7V203.3z M43.6,188.7h7v7h-7V188.7z M43.6,181.5h7v7h-7V181.5z M43.6,167h7v7h-7V167z M43.6,159.7h7v7h-7V159.7z
		 M43.6,152.4h7v7h-7V152.4z M43.6,145.2h7v7h-7V145.2z M43.6,137.9h7v7h-7V137.9z M43.6,130.7h7v7h-7V130.7z M43.6,123.4h7v7h-7
		V123.4z M43.6,116.1h7v7h-7V116.1z M43.6,101.6h7v7h-7V101.6z M43.6,94.4h7v7h-7V94.4z M43.6,87.1h7v7h-7V87.1z M43.6,79.8h7v7h-7
		V79.8z M43.6,72.6h7v7h-7V72.6z M43.6,58.1h7v7h-7V58.1z M43.6,50.8h7v7h-7V50.8z M43.6,36.3h7v7h-7V36.3z M43.6,29h7v7h-7V29z
		 M43.6,14.5h7v7h-7V14.5z M43.6,0h7v7h-7V0z M50.8,225h7v7h-7V225z M50.8,217.8h7v7h-7V217.8z M50.8,210.5h7v7h-7V210.5z
		 M50.8,203.3h7v7h-7V203.3z M50.8,196h7v7h-7V196z M50.8,188.7h7v7h-7V188.7z M50.8,181.5h7v7h-7V181.5z M50.8,174.2h7v7h-7V174.2z
		 M50.8,167h7v7h-7V167z M50.8,159.7h7v7h-7V159.7z M50.8,152.4h7v7h-7V152.4z M50.8,145.2h7v7h-7V145.2z M50.8,137.9h7v7h-7V137.9z
		 M50.8,130.7h7v7h-7V130.7z M50.8,123.4h7v7h-7V123.4z M50.8,116.1h7v7h-7V116.1z M50.8,101.6h7v7h-7V101.6z M50.8,94.4h7v7h-7
		V94.4z M50.8,87.1h7v7h-7V87.1z M50.8,79.8h7v7h-7V79.8z M50.8,72.6h7v7h-7V72.6z M50.8,65.3h7v7h-7V65.3z M50.8,50.8h7v7h-7V50.8z
		 M50.8,43.5h7v7h-7V43.5z M50.8,36.3h7v7h-7V36.3z M50.8,29h7v7h-7V29z M50.8,21.8h7v7h-7V21.8z M50.8,14.5h7v7h-7V14.5z M50.8,7.2
		h7v7h-7V7.2z M58.1,217.8h7v7h-7V217.8z M58.1,210.5h7v7h-7V210.5z M58.1,203.3h7v7h-7V203.3z M58.1,196h7v7h-7V196z M58.1,188.7h7
		v7h-7V188.7z M58.1,181.5h7v7h-7V181.5z M58.1,174.2h7v7h-7V174.2z M58.1,167h7v7h-7V167z M58.1,159.7h7v7h-7V159.7z M58.1,152.4h7
		v7h-7V152.4z M58.1,145.2h7v7h-7V145.2z M58.1,137.9h7v7h-7V137.9z M58.1,130.7h7v7h-7V130.7z M58.1,123.4h7v7h-7V123.4z
		 M58.1,108.9h7v7h-7V108.9z M58.1,101.6h7v7h-7V101.6z M58.1,94.4h7v7h-7V94.4z M58.1,87.1h7v7h-7V87.1z M58.1,79.8h7v7h-7V79.8z
		 M58.1,72.6h7v7h-7V72.6z M58.1,65.3h7v7h-7V65.3z M58.1,58.1h7v7h-7V58.1z M58.1,43.5h7v7h-7V43.5z M58.1,36.3h7v7h-7V36.3z
		 M58.1,29h7v7h-7V29z M58.1,21.8h7v7h-7V21.8z M58.1,14.5h7v7h-7V14.5z M65.3,210.5h7v7h-7V210.5z M65.3,203.3h7v7h-7V203.3z
		 M65.3,196h7v7h-7V196z M65.3,188.7h7v7h-7V188.7z M65.3,181.5h7v7h-7V181.5z M65.3,167h7v7h-7V167z M65.3,159.7h7v7h-7V159.7z
		 M65.3,145.2h7v7h-7V145.2z M65.3,137.9h7v7h-7V137.9z M65.3,130.7h7v7h-7V130.7z M65.3,116.1h7v7h-7V116.1z M65.3,108.9h7v7h-7
		V108.9z M65.3,101.6h7v7h-7V101.6z M65.3,72.6h7v7h-7V72.6z M65.3,65.3h7v7h-7V65.3z M65.3,58.1h7v7h-7V58.1z M65.3,50.8h7v7h-7
		V50.8z M65.3,36.3h7v7h-7V36.3z M65.3,29h7v7h-7V29z M65.3,21.8h7v7h-7V21.8z M65.3,14.5h7v7h-7V14.5z M65.3,7.2h7v7h-7V7.2z
		 M72.6,210.5h7v7h-7V210.5z M72.6,203.3h7v7h-7V203.3z M72.6,196h7v7h-7V196z M72.6,188.7h7v7h-7V188.7z M72.6,174.2h7v7h-7V174.2z
		 M72.6,167h7v7h-7V167z M72.6,152.4h7v7h-7V152.4z M72.6,145.2h7v7h-7V145.2z M72.6,137.9h7v7h-7V137.9z M72.6,123.4h7v7h-7V123.4z
		 M72.6,116.1h7v7h-7V116.1z M72.6,108.9h7v7h-7V108.9z M72.6,94.4h7v7h-7V94.4z M72.6,87.1h7v7h-7V87.1z M72.6,79.8h7v7h-7V79.8z
		 M72.6,65.3h7v7h-7V65.3z M72.6,58.1h7v7h-7V58.1z M72.6,50.8h7v7h-7V50.8z M72.6,43.5h7v7h-7V43.5z M72.6,29h7v7h-7V29z
		 M72.6,21.8h7v7h-7V21.8z M72.6,14.5h7v7h-7V14.5z M72.6,7.2h7v7h-7V7.2z M72.6,0h7v7h-7V0z M79.9,94.4h7v7h-7V94.4z M79.9,87.1h7
		v7h-7V87.1z M79.9,79.8h7v7h-7V79.8z M79.9,58.1h7v7h-7V58.1z M79.9,50.8h7v7h-7V50.8z M79.9,43.5h7v7h-7V43.5z M79.9,29h7v7h-7V29
		z M79.9,14.5h7v7h-7V14.5z M79.9,0h7v7h-7V0z M79.9,101.6h7v7h-7V101.6z M87.1,101.6h7v7h-7V101.6z M87.1,94.4h7v7h-7V94.4z
		 M87.1,87.1h7v7h-7V87.1z M87.1,79.8h7v7h-7V79.8z M79.9,72.6h7v7h-7V72.6z M87.1,72.6h7v7h-7V72.6z M94.4,94.4h7v7h-7V94.4z
		 M94.4,87.1h7v7h-7V87.1z M94.4,79.8h7v7h-7V79.8z M87.1,65.3h7v7h-7V65.3z M87.1,50.8h7v7h-7V50.8z M87.1,36.3h7v7h-7V36.3z
		 M87.1,29h7v7h-7V29z M87.1,21.8h7v7h-7V21.8z M87.1,14.5h7v7h-7V14.5z M87.1,7.2h7v7h-7V7.2z M87.1,0h7v7h-7V0z M94.4,108.9h7v7
		h-7V108.9z M94.4,101.6h7v7h-7V101.6z M94.4,72.6h7v7h-7V72.6z M94.4,65.3h7v7h-7V65.3z M94.4,58.1h7v7h-7V58.1z M94.4,43.5h7v7h-7
		V43.5z M94.4,36.3h7v7h-7V36.3z M94.4,29h7v7h-7V29z M94.4,14.5h7v7h-7V14.5z M94.4,0h7v7h-7V0z M101.6,108.9h7v7h-7V108.9z
		 M101.6,101.6h7v7h-7V101.6z M101.6,94.4h7v7h-7V94.4z M101.6,87.1h7v7h-7V87.1z M101.6,79.8h7v7h-7V79.8z M101.6,72.6h7v7h-7V72.6
		z M101.6,65.3h7v7h-7V65.3z M101.6,58.1h7v7h-7V58.1z M101.6,43.5h7v7h-7V43.5z M101.6,36.3h7v7h-7V36.3z M101.6,29h7v7h-7V29z
		 M101.6,21.8h7v7h-7V21.8z M101.6,14.5h7v7h-7V14.5z M101.6,7.2h7v7h-7V7.2z M101.6,0h7v7h-7V0z M108.9,108.9h7v7h-7V108.9z
		 M108.9,101.6h7v7h-7V101.6z M108.9,94.4h7v7h-7V94.4z M108.9,87.1h7v7h-7V87.1z M108.9,79.8h7v7h-7V79.8z M108.9,72.6h7v7h-7V72.6
		z M108.9,65.3h7v7h-7V65.3z M108.9,58.1h7v7h-7V58.1z M108.9,43.5h7v7h-7V43.5z M108.9,36.3h7v7h-7V36.3z M108.9,29h7v7h-7V29z
		 M108.9,14.5h7v7h-7V14.5z M108.9,0h7v7h-7V0z M116.2,108.9h7v7h-7V108.9z M116.2,101.6h7v7h-7V101.6z M116.2,94.4h7v7h-7V94.4z
		 M116.2,87.1h7v7h-7V87.1z M116.2,79.8h7v7h-7V79.8z M116.2,72.6h7v7h-7V72.6z M116.2,65.3h7v7h-7V65.3z M116.2,58.1h7v7h-7V58.1z
		 M116.2,43.5h7v7h-7V43.5z M116.2,36.3h7v7h-7V36.3z M116.2,29h7v7h-7V29z M116.2,21.8h7v7h-7V21.8z M116.2,14.5h7v7h-7V14.5z
		 M116.2,7.2h7v7h-7V7.2z M116.2,0h7v7h-7V0z M123.4,108.9h7v7h-7V108.9z M123.4,101.6h7v7h-7V101.6z M123.4,94.4h7v7h-7V94.4z
		 M123.4,87.1h7v7h-7V87.1z M123.4,79.8h7v7h-7V79.8z M123.4,72.6h7v7h-7V72.6z M123.4,65.3h7v7h-7V65.3z M123.4,58.1h7v7h-7V58.1z
		 M123.4,43.5h7v7h-7V43.5z M123.4,36.3h7v7h-7V36.3z M123.4,29h7v7h-7V29z M123.4,21.8h7v7h-7V21.8z M123.4,14.5h7v7h-7V14.5z
		 M123.4,7.2h7v7h-7V7.2z M123.4,0h7v7h-7V0z M130.7,108.9h7v7h-7V108.9z M130.7,101.6h7v7h-7V101.6z M130.7,94.4h7v7h-7V94.4z
		 M130.7,87.1h7v7h-7V87.1z M130.7,79.8h7v7h-7V79.8z M130.7,72.6h7v7h-7V72.6z M130.7,65.3h7v7h-7V65.3z M130.7,58.1h7v7h-7V58.1z
		 M130.7,43.5h7v7h-7V43.5z M130.7,36.3h7v7h-7V36.3z M130.7,29h7v7h-7V29z M130.7,14.5h7v7h-7V14.5z M130.7,0h7v7h-7V0z
		 M137.9,108.9h7v7h-7V108.9z M137.9,101.6h7v7h-7V101.6z M137.9,94.4h7v7h-7V94.4z M137.9,87.1h7v7h-7V87.1z M137.9,79.8h7v7h-7
		V79.8z M137.9,72.6h7v7h-7V72.6z M137.9,65.3h7v7h-7V65.3z M137.9,58.1h7v7h-7V58.1z M137.9,43.5h7v7h-7V43.5z M137.9,36.3h7v7h-7
		V36.3z M137.9,29h7v7h-7V29z M137.9,21.8h7v7h-7V21.8z M137.9,14.5h7v7h-7V14.5z M137.9,7.2h7v7h-7V7.2z M137.9,0h7v7h-7V0z
		 M145.2,108.9h7v7h-7V108.9z M145.2,101.6h7v7h-7V101.6z M145.2,94.4h7v7h-7V94.4z M145.2,72.6h7v7h-7V72.6z M145.2,87.1h7v7h-7
		V87.1z M145.2,79.8h7v7h-7V79.8z M167,108.8h7v7h-7V108.8z M145.2,65.3h7v7h-7V65.3z M152.4,101.6h7v7h-7V101.6z M152.4,94.4h7v7
		h-7V94.4z M152.4,87.1h7v7h-7V87.1z M152.4,79.8h7v7h-7V79.8z M152.4,72.6h7v7h-7V72.6z M152.4,65.3h7v7h-7V65.3z M159.7,101.6h7v7
		h-7V101.6z M159.7,94.4h7v7h-7V94.4z M159.7,87.1h7v7h-7V87.1z M159.7,79.8h7v7h-7V79.8z M159.7,72.6h7v7h-7V72.6z M167,94.4h7v7
		h-7V94.4z M167,87.1h7v7h-7V87.1z M167,79.8h7v7h-7V79.8z M167,65.3h7v7h-7V65.3z M145.2,58.1h7v7h-7V58.1z M145.2,43.5h7v7h-7
		V43.5z M145.2,36.3h7v7h-7V36.3z M145.2,29h7v7h-7V29z M145.2,14.5h7v7h-7V14.5z M145.2,0h7v7h-7V0z M152.5,50.8h7v7h-7V50.8z
		 M152.5,36.3h7v7h-7V36.3z M152.5,29h7v7h-7V29z M152.5,21.8h7v7h-7V21.8z M152.5,14.5h7v7h-7V14.5z M152.5,7.2h7v7h-7V7.2z
		 M152.5,0h7v7h-7V0z M159.7,58.1h7v7h-7V58.1z M159.7,50.8h7v7h-7V50.8z M159.7,43.5h7v7h-7V43.5z M159.7,29h7v7h-7V29z
		 M159.7,14.5h7v7h-7V14.5z M159.7,0h7v7h-7V0z M167,210.5h7v7h-7V210.5z M167,203.3h7v7h-7V203.3z M167,196h7v7h-7V196z M167,188.7
		h7v7h-7V188.7z M167,174.2h7v7h-7V174.2z M167,167h7v7h-7V167z M167,152.4h7v7h-7V152.4z M167,145.2h7v7h-7V145.2z M167,137.9h7v7
		h-7V137.9z M167,123.4h7v7h-7V123.4z M167,116.1h7v7h-7V116.1z M167,58.1h7v7h-7V58.1z M167,50.8h7v7h-7V50.8z M167,43.5h7v7h-7
		V43.5z M167,29h7v7h-7V29z M167,21.8h7v7h-7V21.8z M167,14.5h7v7h-7V14.5z M167,7.2h7v7h-7V7.2z M167,0h7v7h-7V0z M174.2,210.5h7v7
		h-7V210.5z M174.2,203.3h7v7h-7V203.3z M174.2,196h7v7h-7V196z M174.2,188.7h7v7h-7V188.7z M174.2,181.5h7v7h-7V181.5z M174.2,167
		h7v7h-7V167z M174.2,159.7h7v7h-7V159.7z M174.2,145.2h7v7h-7V145.2z M174.2,137.9h7v7h-7V137.9z M174.2,130.7h7v7h-7V130.7z
		 M174.2,116.1h7v7h-7V116.1z M174.2,108.9h7v7h-7V108.9z M174.2,101.6h7v7h-7V101.6z M181.5,87.1h7v7h-7V87.1z M181.5,79.8h7v7h-7
		V79.8z M174.2,65.3h7v7h-7V65.3z M174.2,58.1h7v7h-7V58.1z M174.2,50.8h7v7h-7V50.8z M174.2,36.3h7v7h-7V36.3z M174.2,29h7v7h-7V29
		z M174.2,21.8h7v7h-7V21.8z M174.2,14.5h7v7h-7V14.5z M174.2,7.2h7v7h-7V7.2z M181.5,217.8h7v7h-7V217.8z M181.5,210.5h7v7h-7
		V210.5z M181.5,203.3h7v7h-7V203.3z M181.5,196h7v7h-7V196z M181.5,188.7h7v7h-7V188.7z M181.5,181.5h7v7h-7V181.5z M181.5,174.2h7
		v7h-7V174.2z M181.5,167h7v7h-7V167z M181.5,159.7h7v7h-7V159.7z M181.5,152.4h7v7h-7V152.4z M181.5,145.2h7v7h-7V145.2z
		 M181.5,137.9h7v7h-7V137.9z M181.5,130.7h7v7h-7V130.7z M181.5,123.4h7v7h-7V123.4z M181.5,108.9h7v7h-7V108.9z M181.5,101.6h7v7
		h-7V101.6z M181.5,94.4h7v7h-7V94.4z M181.5,72.6h7v7h-7V72.6z M174.2,72.6h7v7h-7V72.6z M181.5,65.3h7v7h-7V65.3z M181.5,58.1h7v7
		h-7V58.1z M181.5,43.5h7v7h-7V43.5z M181.5,36.3h7v7h-7V36.3z M181.5,29h7v7h-7V29z M181.5,21.8h7v7h-7V21.8z M181.5,14.5h7v7h-7
		V14.5z M188.8,225h7v7h-7V225z M188.8,217.8h7v7h-7V217.8z M188.8,210.5h7v7h-7V210.5z M188.8,203.3h7v7h-7V203.3z M188.8,196h7v7
		h-7V196z M188.8,188.7h7v7h-7V188.7z M188.8,181.5h7v7h-7V181.5z M188.8,174.2h7v7h-7V174.2z M188.8,167h7v7h-7V167z M188.8,159.7
		h7v7h-7V159.7z M188.8,152.4h7v7h-7V152.4z M188.8,145.2h7v7h-7V145.2z M188.8,137.9h7v7h-7V137.9z M188.8,130.7h7v7h-7V130.7z
		 M188.8,123.4h7v7h-7V123.4z M188.8,116.1h7v7h-7V116.1z M188.8,101.6h7v7h-7V101.6z M188.8,94.4h7v7h-7V94.4z M188.8,87.1h7v7h-7
		V87.1z M188.8,79.8h7v7h-7V79.8z M188.8,72.6h7v7h-7V72.6z M188.8,65.3h7v7h-7V65.3z M188.8,50.8h7v7h-7V50.8z M188.8,43.5h7v7h-7
		V43.5z M188.8,36.3h7v7h-7V36.3z M188.8,29h7v7h-7V29z M188.8,21.8h7v7h-7V21.8z M188.8,14.5h7v7h-7V14.5z M188.8,7.2h7v7h-7V7.2z
		 M196,232.3h7v7h-7V232.3z M196,225h7v7h-7V225z M196,210.5h7v7h-7V210.5z M196,203.3h7v7h-7V203.3z M196,188.7h7v7h-7V188.7z
		 M196,181.5h7v7h-7V181.5z M196,167h7v7h-7V167z M196,159.7h7v7h-7V159.7z M196,152.4h7v7h-7V152.4z M196,145.2h7v7h-7V145.2z
		 M196,137.9h7v7h-7V137.9z M196,130.7h7v7h-7V130.7z M196,123.4h7v7h-7V123.4z M196,116.1h7v7h-7V116.1z M196,101.6h7v7h-7V101.6z
		 M196,94.4h7v7h-7V94.4z M196,87.1h7v7h-7V87.1z M196,79.8h7v7h-7V79.8z M196,72.6h7v7h-7V72.6z M196,58.1h7v7h-7V58.1z M196,50.8
		h7v7h-7V50.8z M196,36.3h7v7h-7V36.3z M196,29h7v7h-7V29z M196,14.5h7v7h-7V14.5z M196,0h7v7h-7V0z M203.3,232.3h7v7h-7V232.3z
		 M203.3,217.8h7v7h-7V217.8z M203.3,210.5h7v7h-7V210.5z M203.3,196h7v7h-7V196z M203.3,188.7h7v7h-7V188.7z M203.3,174.2h7v7h-7
		V174.2z M203.3,167h7v7h-7V167z M203.3,159.7h7v7h-7V159.7z M203.3,152.4h7v7h-7V152.4z M203.3,145.2h7v7h-7V145.2z M203.3,108.9h7
		v7h-7V108.9z M203.2,65.3h7v7h-7V65.3z M203.3,29h7v7h-7V29z M203.3,21.8h7v7h-7V21.8z M203.3,0h7v7h-7V0z M210.5,232.3h7v7h-7
		V232.3z M210.5,217.8h7v7h-7V217.8z M210.5,210.5h7v7h-7V210.5z M210.5,203.3h7v7h-7V203.3z M210.5,196h7v7h-7V196z M210.5,188.7h7
		v7h-7V188.7z M210.5,174.2h7v7h-7V174.2z M210.5,167h7v7h-7V167z M210.5,159.7h7v7h-7V159.7z M210.5,152.4h7v7h-7V152.4z
		 M210.5,145.2h7v7h-7V145.2z M210.5,137.9h7v7h-7V137.9z M210.5,123.4h7v7h-7V123.4z M210.5,116.1h7v7h-7V116.1z M210.5,108.9h7v7
		h-7V108.9z M210.5,101.6h7v7h-7V101.6z M210.5,94.3h7v7h-7V94.3z M210.5,87.1h7v7h-7V87.1z M210.5,79.8h7v7h-7V79.8z M210.5,72.6h7
		v7h-7V72.6z M210.5,65.3h7v7h-7V65.3z M210.5,29h7v7h-7V29z M210.5,21.8h7v7h-7V21.8z M210.5,14.5h7v7h-7V14.5z M210.5,0h7v7h-7V0z
		 M217.8,232.3h7v7h-7V232.3z M217.8,225h7v7h-7V225z M217.8,217.8h7v7h-7V217.8z M217.8,210.5h7v7h-7V210.5z M217.8,196h7v7h-7V196
		z M217.8,188.7h7v7h-7V188.7z M217.8,181.5h7v7h-7V181.5z M217.8,174.2h7v7h-7V174.2z M217.8,167h7v7h-7V167z M217.8,159.7h7v7h-7
		V159.7z M217.8,152.4h7v7h-7V152.4z M217.8,145.2h7v7h-7V145.2z M217.8,130.6h7v7h-7V130.6z M217.8,123.4h7v7h-7V123.4z
		 M217.8,116.1h7v7h-7V116.1z M217.8,101.6h7v7h-7V101.6z M217.8,87.1h7v7h-7V87.1z M217.8,72.6h7v7h-7V72.6z M217.8,65.3h7v7h-7
		V65.3z M217.8,36.3h7v7h-7V36.3z M217.8,29h7v7h-7V29z M217.8,21.8h7v7h-7V21.8z M217.8,0h7v7h-7V0z M225.1,232.3h7v7h-7V232.3z
		 M225.1,217.8h7v7h-7V217.8z M225.1,210.5h7v7h-7V210.5z M225.1,196h7v7h-7V196z M225.1,188.7h7v7h-7V188.7z M225.1,174.2h7v7h-7
		V174.2z M225.1,167h7v7h-7V167z M225.1,159.7h7v7h-7V159.7z M225.1,152.4h7v7h-7V152.4z M225.1,145.2h7v7h-7V145.2z M225.1,137.9h7
		v7h-7V137.9z M225.1,123.4h7v7h-7V123.4z M225.1,116.1h7v7h-7V116.1z M225.1,108.9h7v7h-7V108.9z M225.1,101.6h7v7h-7V101.6z
		 M225.1,94.3h7v7h-7V94.3z M225.1,87.1h7v7h-7V87.1z M225.1,79.8h7v7h-7V79.8z M225.1,72.6h7v7h-7V72.6z M225.1,65.3h7v7h-7V65.3z
		 M225.1,29h7v7h-7V29z M225.1,21.8h7v7h-7V21.8z M225.1,0h7v7h-7V0z M232.3,232.3h7v7h-7V232.3z M232.3,225h7v7h-7V225z
		 M232.3,210.5h7v7h-7V210.5z M232.3,203.3h7v7h-7V203.3z M232.3,188.7h7v7h-7V188.7z M232.3,181.5h7v7h-7V181.5z M232.3,167h7v7h-7
		V167z M232.3,159.7h7v7h-7V159.7z M232.3,152.4h7v7h-7V152.4z M232.3,145.2h7v7h-7V145.2z M232.3,36.3h7v7h-7V36.3z M232.3,29h7v7
		h-7V29z M232.3,14.5h7v7h-7V14.5z M232.3,0h7v7h-7V0z M196.1,7.2h7v7h-7V7.2z M203.4,7.2h7v7h-7V7.2z M210.6,7.2h7v7h-7V7.2z
		 M217.9,7.2h7v7h-7V7.2z M225.2,7.2h7v7h-7V7.2z M232.4,7.2h7v7h-7V7.2z M239.6,225h7v7h-7V225z M239.6,217.8h7v7h-7V217.8z
		 M239.6,210.5h7v7h-7V210.5z M239.6,203.3h7v7h-7V203.3z M239.6,196h7v7h-7V196z M239.6,188.7h7v7h-7V188.7z M239.6,181.5h7v7h-7
		V181.5z M239.6,174.2h7v7h-7V174.2z M239.6,167h7v7h-7V167z M239.6,159.7h7v7h-7V159.7z M239.6,152.4h7v7h-7V152.4z M239.6,145.2h7
		v7h-7V145.2z M239.6,137.9h7v7h-7V137.9z M239.6,130.6h7v7h-7V130.6z M239.6,123.4h7v7h-7V123.4z M239.6,116.1h7v7h-7V116.1z
		 M239.6,108.9h7v7h-7V108.9z M239.6,101.6h7v7h-7V101.6z M239.6,94.3h7v7h-7V94.3z M239.6,87.1h7v7h-7V87.1z M239.6,79.8h7v7h-7
		V79.8z M239.6,72.6h7v7h-7V72.6z M239.6,65.3h7v7h-7V65.3z M239.6,58h7v7h-7V58z M239.6,36.3h7v7h-7V36.3z M239.6,29h7v7h-7V29z
		 M203.3,50.8h7v7h-7V50.8z M203.3,43.5h7v7h-7V43.5z M210.5,50.8h7v7h-7V50.8z M210.5,43.5h7v7h-7V43.5z M217.8,50.8h7v7h-7V50.8z
		 M217.8,43.5h7v7h-7V43.5z M225.1,50.8h7v7h-7V50.8z M225.1,43.5h7v7h-7V43.5z M232.3,50.8h7v7h-7V50.8z M239.6,50.8h7v7h-7V50.8z
		 M239.6,43.5h7v7h-7V43.5z M239.6,21.8h7v7h-7V21.8z M239.6,14.5h7v7h-7V14.5z M239.6,7.2h7v7h-7V7.2z"/>
</g>
</svg>
