<?xml version="1.0" encoding="utf-8"?>
<!-- Generator: Adobe Illustrator 27.3.1, SVG Export Plug-In . SVG Version: 6.00 Build 0)  -->
<svg version="1.1" xmlns="http://www.w3.org/2000/svg" xmlns:xlink="http://www.w3.org/1999/xlink" x="0px" y="0px"
	 viewBox="0 0 21.5 21.5" style="enable-background:new 0 0 21.5 21.5;" xml:space="preserve">
<style type="text/css">
	.st0{fill:#F2E5C7;}
	.st1{fill:#1E0E01;}
</style>
<g id="Слой_2">
	<path class="st0" d="M22,0c0-0.3-0.2-0.5-0.5-0.5h-7c0,0-0.1,0-0.1,0c0,0-0.1,0-0.1,0h-7c-0.1,0-0.1,0-0.1,0c0,0-0.1,0-0.1,0H0
		c-0.3,0-0.5,0.2-0.5,0.5v7c0,0.1,0,0.1,0,0.1c0,0,0,0.1,0,0.1v7c0,0,0,0.1,0,0.1c0,0,0,0.1,0,0.1v7c0,0.3,0.2,0.5,0.5,0.5h7
		c0.1,0,0.1,0,0.1,0c0,0,0.1,0,0.1,0h7c0,0,0.1,0,0.1,0c0,0,0.1,0,0.1,0h7c0.3,0,0.5-0.2,0.5-0.5v-7c0,0,0-0.1,0-0.1
		c0,0,0-0.1,0-0.1v-7c0-0.1,0-0.1,0-0.1c0,0,0-0.1,0-0.1V0z"/>
</g>
<g id="Слой_1">
	<path class="st1" d="M0,0h7v7H0V0z M0,7.3h7v7H0V7.3z M7.3,0h7v7h-7V0z M14.5,0h7v7h-7V0z M14.5,7.3h7v7h-7V7.3z M0,14.5h7v7H0
		V14.5z M7.3,14.5h7v7h-7V14.5z M14.5,14.5h7v7h-7V14.5z"/>
</g>
</svg>
