<?xml version="1.0" encoding="utf-8"?>
<!-- Generator: Adobe Illustrator 27.3.1, SVG Export Plug-In . SVG Version: 6.00 Build 0)  -->
<svg version="1.1" xmlns="http://www.w3.org/2000/svg" xmlns:xlink="http://www.w3.org/1999/xlink" x="0px" y="0px"
	 viewBox="0 0 152.3 152.2" style="enable-background:new 0 0 152.3 152.2;" xml:space="preserve">
<style type="text/css">
	.st0{fill:#FCE19B;}
	.st1{display:none;}
	.st2{fill:#1E0E01;}
</style>
<g id="Слой_2">
	<path class="st0" d="M150,79.9c0-2.8-2.2-5-5-5h-2.3v-2.3c0-2.8-2.2-5-5-5h-7c0,0-0.1,0-0.1,0c-0.1,0-0.1,0-0.2,0h-7
		c-2.8,0-5,2.2-5,5v2.3h-2.2c-2.8,0-5,2.2-5,5v7c0,0,0,0.1,0,0.1c0,0,0,0.1,0,0.2v7c0,2.8,2.2,5,5,5h2.2v2.2c0,1,0.3,1.8,0.7,2.6
		h-2.9c-1.5,0-2.8,0.7-3.8,1.7c-0.9-1-2.3-1.7-3.8-1.7h-2.3v-2.3c0-2.8-2.2-5-5-5h-7c-0.9,0-1.8,0.2-2.5,0.7v-3c0,0,0-0.1,0-0.1
		c0,0,0-0.1,0-0.1v-2.3h2.2c0.1,0,0.2,0,0.3,0h7c2.8,0,5-2.2,5-5v-7c0,0,0-0.1,0-0.2c0,0,0-0.1,0-0.2v-2.2h2.3c2.8,0,5-2.2,5-5v-7
		c0-0.9-0.2-1.8-0.7-2.5h2.9c2.8,0,5-2.2,5-5v-2.3h2.3c2.8,0,5-2.2,5-5v-7c0-0.1,0-0.1,0-0.2c0,0,0-0.1,0-0.1v-7c0-2.8-2.2-5-5-5
		h-2.3V29c0-2.8-2.2-5-5-5H113c0.4-0.7,0.7-1.6,0.7-2.5v-7c0-2.8-2.2-5-5-5h-7c-2.8,0-5,2.2-5,5v7c0,0.9,0.2,1.8,0.7,2.5h-3
		c-0.9,0-1.8,0.2-2.5,0.7v-2.9c0-2.8-2.2-5-5-5h-2.3v-2.3c0-2.8-2.2-5-5-5h-7c-0.1,0-0.1,0-0.2,0h-7c-0.1,0-0.1,0-0.1,0
		c0,0-0.1,0-0.1,0h-7c-2.8,0-5,2.2-5,5v2.3h-2.3c-0.1,0-0.1,0-0.2,0h-7c-2.8,0-5,2.2-5,5v7c0,0,0,0.1,0,0.1c0,0,0,0.1,0,0.1v3
		c-0.7-0.4-1.6-0.7-2.5-0.7h-7c-2.8,0-5,2.2-5,5v2.3h-2.3c-0.1,0-0.1,0-0.1,0c0,0-0.1,0-0.1,0h-7c-2.8,0-5,2.2-5,5v7
		c0,0.1,0,0.1,0,0.1c0,0,0,0.1,0,0.1v7c0,2.8,2.2,5,5,5h7c0.1,0,0.1,0,0.1,0c0,0,0.1,0,0.1,0h3c-0.4,0.7-0.7,1.6-0.7,2.5v2.2h-2.3
		c-2.8,0-5,2.2-5,5v7c0,0,0,0.1,0,0.2c0,0,0,0.1,0,0.2v7c0,0,0,0.1,0,0.1c0,0,0,0.1,0,0.2v7c0,2.8,2.2,5,5,5h7c0.1,0,0.2,0,0.3,0h7
		c0.1,0,0.1,0,0.2,0h7c0.9,0,1.8-0.2,2.5-0.7v2.9c0,2.8,2.2,5,5,5h7c1,0,1.8-0.3,2.6-0.7v3c0,2.8,2.2,5,5,5h7c2.8,0,5-2.2,5-5v-3
		c0.7,0.4,1.6,0.7,2.5,0.7h2.9c-0.5,0.8-0.7,1.6-0.7,2.6v7c0,0.9,0.2,1.8,0.7,2.5h-2.9c-0.1,0-0.2,0-0.3,0h-7c-0.1,0-0.1,0-0.2,0h-7
		c-2.8,0-5,2.2-5,5v2.9c-0.8-0.5-1.6-0.7-2.6-0.7h-2.2v-2.2c0,0,0-0.1,0-0.2c0,0,0-0.1,0-0.1v-7c0-2.8-2.2-5-5-5h-2.3V109
		c0-2.8-2.2-5-5-5h-7c-1.5,0-2.8,0.7-3.8,1.7c-0.9-1-2.3-1.7-3.8-1.7h-7c-2.8,0-5,2.2-5,5v7c0,2.8,2.2,5,5,5h2.3v2.2
		c0,0,0,0.1,0,0.1c0,0.1,0,0.1,0,0.2v7c0,2.8,2.2,5,5,5h7c0.1,0,0.1,0,0.2,0h7c0.1,0,0.2,0,0.3,0h2.2v2.2c0,2.8,2.2,5,5,5h7
		c2.8,0,5-2.2,5-5v-2.9c0.8,0.5,1.6,0.7,2.6,0.7h2.2v2.2c0,2.8,2.2,5,5,5h7c0.1,0,0.2,0,0.3,0h7c2.8,0,5-2.2,5-5v-7c0,0,0-0.1,0-0.1
		c0,0,0-0.1,0-0.1v-3c0.7,0.4,1.6,0.7,2.5,0.7h7c0.9,0,1.8-0.2,2.5-0.7v3c0,2.8,2.2,5,5,5h7c2.8,0,5-2.2,5-5v-3
		c0.7,0.4,1.6,0.7,2.5,0.7h7c2.8,0,5-2.2,5-5v-7c0-2.8-2.2-5-5-5h-2.2V109c0-1-0.3-1.8-0.7-2.6h2.9c0.1,0,0.2,0,0.3,0h7
		c2.8,0,5-2.2,5-5v-2.2h2.3c2.8,0,5-2.2,5-5v-7c0,0,0-0.1,0-0.2c0,0,0-0.1,0-0.1V79.9z"/>
</g>
<g id="Слой_1">
	<g id="Слой_2_00000031924517541103888730000004962356364689186216_" class="st1">
	</g>
	<g id="Слой_1_00000136413660229728340580000014888553714383451017_">
		<path class="st2" d="M14.5,43.6h7v7h-7V43.6z M14.5,50.9h7v7h-7V50.9z M21.8,43.6h7v7h-7V43.6z M21.8,50.9h7v7h-7V50.9z
			 M21.8,72.6h7v7h-7V72.6z M21.8,79.9h7v7h-7V79.9z M29.1,43.6h7v7h-7C29.1,50.6,29.1,43.6,29.1,43.6z M29.1,50.9h7v7h-7
			C29.1,57.9,29.1,50.9,29.1,50.9z M29.1,65.4h7v7h-7C29.1,72.4,29.1,65.4,29.1,65.4z M29.1,72.6h7v7h-7
			C29.1,79.6,29.1,72.6,29.1,72.6z M36.3,72.6h7v7h-7V72.6z M36.3,79.9h7v7h-7V79.9z M43.6,43.6h7v7h-7V43.6z M43.6,65.4h7v7h-7
			V65.4z M43.6,72.6h7v7h-7V72.6z M43.6,79.9h7v7h-7V79.9z M50.8,58.1h7v7h-7V58.1z M50.8,65.4h7v7h-7V65.4z M50.8,72.6h7v7h-7V72.6
			z M50.8,79.9h7v7h-7V79.9z M21.8,87.2h7v7h-7V87.2z M21.8,109h7v7h-7V109z M29.1,87.2h7v7h-7C29.1,94.2,29.1,87.2,29.1,87.2z
			 M29.1,116.2h7v7h-7C29.1,123.2,29.1,116.2,29.1,116.2z M29.1,123.5h7v7h-7C29.1,130.5,29.1,123.5,29.1,123.5z M36.3,87.2h7v7h-7
			V87.2z M36.3,109h7v7h-7V109z M36.3,123.5h7v7h-7V123.5z M43.6,116.2h7v7h-7V116.2z M43.6,123.5h7v7h-7V123.5z M50.8,94.4h7v7h-7
			V94.4z M50.8,130.7h7v7h-7V130.7z M58.1,43.6h7v7h-7V43.6z M58.1,50.9h7v7h-7V50.9z M58.1,79.9h7v7h-7V79.9z M65.4,50.9h7v7h-7
			V50.9z M65.4,58.1h7v7h-7V58.1z M65.4,65.4h7v7h-7V65.4z M65.4,72.6h7v7h-7V72.6z M72.6,58.1h7v7h-7V58.1z M72.6,72.6h7v7h-7V72.6
			z M72.6,79.9h7v7h-7V79.9z M79.9,58.1h7v7h-7V58.1z M79.9,79.9h7v7h-7V79.9z M87.1,58.1h7v7h-7V58.1z M87.1,79.9h7v7h-7V79.9z
			 M94.4,58.1h7v7h-7V58.1z M94.4,65.4h7v7h-7V65.4z M94.4,72.6h7v7h-7V72.6z M94.4,79.9h7v7h-7V79.9z M101.7,43.6h7v7h-7V43.6z
			 M29.1,36.3h7v7h-7C29.1,43.3,29.1,36.3,29.1,36.3z M43.6,29h7v7h-7V29z M58.1,29h7v7h-7V29z M65.4,29h7v7h-7V29z M65.4,36.3h7v7
			h-7V36.3z M72.6,36.3h7v7h-7V36.3z M79.9,29h7v7h-7V29z M79.9,36.3h7v7h-7V36.3z M87.1,36.3h7v7h-7V36.3z M94.4,29h7v7h-7V29z
			 M101.7,36.3h7v7h-7V36.3z M43.6,21.8h7v7h-7V21.8z M50.8,21.8h7v7h-7V21.8z M58.1,14.5h7v7h-7V14.5z M58.1,21.8h7v7h-7V21.8z
			 M65.4,14.5h7v7h-7V14.5z M72.6,14.5h7v7h-7V14.5z M79.9,21.8h7v7h-7V21.8z M101.7,14.5h7v7h-7V14.5z M101.7,65.4h7v7h-7V65.4z
			 M58.1,87.2h7v7h-7V87.2z M65.4,87.2h7v7h-7V87.2z M65.4,101.7h7v7h-7V101.7z M65.4,123.5h7v7h-7V123.5z M72.6,87.2h7v7h-7V87.2z
			 M72.6,123.5h7v7h-7V123.5z M72.6,130.7h7v7h-7V130.7z M79.9,87.2h7v7h-7V87.2z M79.9,94.4h7v7h-7V94.4z M79.9,123.5h7v7h-7V123.5
			z M79.9,130.7h7v7h-7V130.7z M87.1,109h7v7h-7V109z M94.4,101.7h7v7h-7V101.7z M94.4,116.2h7v7h-7V116.2z M101.7,109h7v7h-7V109z
			 M108.9,50.9h7v7h-7V50.9z M116.2,43.6h7v7h-7V43.6z M108.9,29h7v7h-7V29z M108.9,36.3h7v7h-7V36.3z M116.2,36.3h7v7h-7V36.3z
			 M116.2,79.9h7v7h-7V79.9z M108.9,123.5h7v7h-7V123.5z M116.2,87.2h7v7h-7V87.2z M116.2,109h7v7h-7V109z M123.4,72.6h7v7h-7
			C123.4,79.6,123.4,72.6,123.4,72.6z M123.4,79.9h7v7h-7C123.4,86.9,123.4,79.9,123.4,79.9z M130.7,72.6h7v7h-7V72.6z M123.4,94.4
			h7v7h-7C123.4,101.4,123.4,94.4,123.4,94.4z M123.4,116.2h7v7h-7C123.4,123.2,123.4,116.2,123.4,116.2z M130.7,87.2h7v7h-7V87.2z
			 M130.7,94.4h7v7h-7V94.4z M138,79.9h7v7h-7V79.9z M138,87.2h7v7h-7V87.2z"/>
	</g>
</g>
</svg>
