<?xml version="1.0" encoding="utf-8"?>
<!-- Generator: Adobe Illustrator 27.3.1, SVG Export Plug-In . SVG Version: 6.00 Build 0)  -->
<svg version="1.1" xmlns="http://www.w3.org/2000/svg" xmlns:xlink="http://www.w3.org/1999/xlink" x="0px" y="0px"
	 viewBox="0 0 152.3 152.2" style="enable-background:new 0 0 152.3 152.2;" xml:space="preserve">
<style type="text/css">
	.st0{fill:#FCE19B;}
	.st1{display:none;}
	.st2{fill:#1E0E01;}
</style>
<g id="Слой_2">
	<path class="st0" d="M113.6,79.7v-7c0-2.8-2.2-5-5-5h-7c0,0-0.1,0-0.1,0c-0.1,0-0.1,0-0.2,0h-2.3v-2.2c0-1.5-0.7-2.8-1.7-3.8
		c1-0.9,1.7-2.3,1.7-3.8v-7c0-2.8-2.2-5-5-5h-7c-0.9,0-1.8,0.2-2.5,0.7v-3c0-2.8-2.2-5-5-5h-7c-0.1,0-0.1,0-0.2,0h-7
		c-2.8,0-5,2.2-5,5v7c0,0.1,0,0.1,0,0.1c0,0,0,0.1,0,0.1v7c0,1.5,0.7,2.8,1.7,3.8c-1,0.9-1.7,2.3-1.7,3.8v2.2H58c-0.1,0-0.1,0-0.2,0
		c0,0-0.1,0-0.1,0h-7c-2.8,0-5,2.2-5,5v7c0,2.8,2.2,5,5,5H53V87c0,2.8,2.2,5,5,5h2.3v2.3c0,0,0,0.1,0,0.1c0,0,0,0.1,0,0.1v7
		c0,2.8,2.2,5,5,5h7c0.1,0,0.1,0,0.2,0h7c2.8,0,5-2.2,5-5v-7c0,0,0-0.1,0-0.1c0,0,0-0.1,0-0.1v-7c0-2.8-2.2-5-5-5h-7
		c-0.1,0-0.1,0-0.2,0H70V80c0,0,0-0.1,0-0.2c0,0,0-0.1,0-0.2v-2.2h2.3c0.1,0,0.1,0,0.2,0h7c1.5,0,2.8-0.7,3.7-1.7
		c0.9,1,2.3,1.7,3.8,1.7h2.3v2.2c0,2.8,2.2,5,5,5h3c-0.5,0.8-0.7,1.6-0.7,2.6v7c0,2.8,2.2,5,5,5h7c2.8,0,5-2.2,5-5v-7
		c0-1.5-0.7-2.9-1.8-3.8C112.9,82.6,113.6,81.2,113.6,79.7z"/>
</g>
<g id="Слой_1">
	<g id="Слой_2_00000116948118859984171260000015424636889221430922_" class="st1">
	</g>
	<g id="Слой_1_00000183238143175579153730000003113059728517225885_">
		<path class="st2" d="M50.8,72.6h7v7h-7V72.6z M58.1,72.6h7v7h-7V72.6z M58.1,79.9h7v7h-7V79.9z M65.4,43.6h7v7h-7V43.6z
			 M65.4,50.9h7v7h-7V50.9z M65.4,65.4h7v7h-7V65.4z M72.6,43.6h7v7h-7V43.6z M72.6,50.9h7v7h-7V50.9z M72.6,65.4h7v7h-7V65.4z
			 M87.1,50.9h7v7h-7V50.9z M87.1,65.4h7v7h-7V65.4z M94.4,72.6h7v7h-7V72.6z M101.7,72.6h7v7h-7V72.6z M65.4,87.2h7v7h-7V87.2z
			 M65.4,94.4h7v7h-7V94.4z M72.6,87.2h7v7h-7V87.2z M72.6,94.4h7v7h-7V94.4z M101.7,87.2h7v7h-7V87.2z"/>
	</g>
</g>
</svg>
