<?xml version="1.0" encoding="utf-8"?>
<!-- Generator: Adobe Illustrator 27.3.1, SVG Export Plug-In . SVG Version: 6.00 Build 0)  -->
<svg version="1.1" id="Слой_1" xmlns="http://www.w3.org/2000/svg" xmlns:xlink="http://www.w3.org/1999/xlink" x="0px" y="0px"
	 viewBox="0 0 166.7 101.3" style="enable-background:new 0 0 166.7 101.3;" xml:space="preserve">
<style type="text/css">
	.st0{fill:#1E0E01;}
</style>
<path class="st0" d="M0,7.2h7v7H0V7.2z M0,14.5h7v7H0V14.5z M0,21.7h7v7H0V21.7z M0,29h7v7H0V29z M7.3,7.2h7v7h-7V7.2z M7.3,21.7h7
	v7h-7V21.7z M7.3,29h7v7h-7V29z M14.5,7.2h7v7h-7V7.2z M14.5,14.5h7v7h-7V14.5z M14.5,29h7v7h-7V29z M21.8,7.2h7v7h-7V7.2z
	 M21.8,14.5h7v7h-7V14.5z M21.8,21.7h7v7h-7V21.7z M29.1,7.2h7v7h-7V7.2z M29.1,14.5h7v7h-7V14.5z M29.1,21.7h7v7h-7V21.7z M29.1,29
	h7v7h-7V29z M36.3,7.2h7v7h-7V7.2z M36.3,14.5h7v7h-7V14.5z M36.3,21.7h7v7h-7V21.7z M36.3,29h7v7h-7V29z M43.6,0h7v7h-7V0z
	 M43.6,7.2h7v7h-7V7.2z M43.6,14.5h7v7h-7V14.5z M43.6,21.7h7v7h-7V21.7z M43.6,29h7v7h-7V29z M50.8,0h7v7h-7V0z M50.8,14.5h7v7h-7
	V14.5z M50.8,21.7h7v7h-7V21.7z M50.8,29h7v7h-7V29z M0,36.3h7v7H0V36.3z M0,43.5h7v7H0V43.5z M0,50.8h7v7H0V50.8z M0,58.1h7v7H0
	V58.1z M0,65.3h7v7H0V65.3z M0,72.6h7v7H0V72.6z M0,79.8h7v7H0V79.8z M0,87.1h7v7H0V87.1z M7.3,36.3h7v7h-7V36.3z M7.3,50.8h7v7h-7
	V50.8z M7.3,65.3h7v7h-7V65.3z M7.3,72.6h7v7h-7V72.6z M7.3,79.8h7v7h-7V79.8z M14.5,36.3h7v7h-7V36.3z M14.5,43.5h7v7h-7V43.5z
	 M14.5,58.1h7v7h-7V58.1z M14.5,65.3h7v7h-7V65.3z M14.5,72.6h7v7h-7V72.6z M14.5,87.1h7v7h-7V87.1z M21.8,36.3h7v7h-7V36.3z
	 M21.8,43.5h7v7h-7V43.5z M21.8,50.8h7v7h-7V50.8z M21.8,58.1h7v7h-7V58.1z M21.8,65.3h7v7h-7V65.3z M21.8,79.8h7v7h-7V79.8z
	 M21.8,87.1h7v7h-7V87.1z M29.1,43.5h7v7h-7V43.5z M29.1,50.8h7v7h-7V50.8z M29.1,58.1h7v7h-7V58.1z M29.1,72.6h7v7h-7V72.6z
	 M29.1,79.8h7v7h-7V79.8z M29.1,87.1h7v7h-7V87.1z M36.3,36.3h7v7h-7V36.3z M36.3,50.8h7v7h-7V50.8z M36.3,65.3h7v7h-7V65.3z
	 M36.3,72.6h7v7h-7V72.6z M36.3,79.8h7v7h-7V79.8z M43.6,36.3h7v7h-7V36.3z M43.6,43.5h7v7h-7V43.5z M43.6,58.1h7v7h-7V58.1z
	 M43.6,65.3h7v7h-7V65.3z M43.6,72.6h7v7h-7V72.6z M43.6,87.1h7v7h-7V87.1z M50.8,36.3h7v7h-7V36.3z M50.8,43.5h7v7h-7V43.5z
	 M50.8,50.8h7v7h-7V50.8z M50.8,58.1h7v7h-7V58.1z M50.8,65.3h7v7h-7V65.3z M50.8,79.8h7v7h-7V79.8z M50.8,87.1h7v7h-7V87.1z
	 M58.1,0h7v7h-7V0z M58.1,7.2h7v7h-7V7.2z M58.1,21.7h7v7h-7V21.7z M58.1,29h7v7h-7V29z M65.4,0h7v7h-7V0z M65.4,14.5h7v7h-7V14.5z
	 M65.4,21.7h7v7h-7V21.7z M65.4,29h7v7h-7V29z M72.6,0h7v7h-7V0z M72.6,7.2h7v7h-7V7.2z M72.6,14.5h7v7h-7V14.5z M72.6,21.7h7v7h-7
	V21.7z M72.6,29h7v7h-7V29z M79.9,7.2h7v7h-7V7.2z M79.9,14.5h7v7h-7V14.5z M87.1,7.2h7v7h-7V7.2z M87.1,14.5h7v7h-7V14.5z M87.1,29
	h7v7h-7V29z M94.4,7.2h7v7h-7V7.2z M94.4,14.5h7v7h-7V14.5z M101.7,7.2h7v7h-7V7.2z M101.7,14.5h7v7h-7V14.5z M101.7,21.7h7v7h-7
	V21.7z M101.7,29h7v7h-7V29z M108.9,7.2h7v7h-7V7.2z M108.9,14.5h7v7h-7V14.5z M108.9,21.7h7v7h-7V21.7z M108.9,29h7v7h-7V29z
	 M116.2,7.2h7v7h-7V7.2z M116.2,14.5h7v7h-7V14.5z M116.2,21.7h7v7h-7V21.7z M116.2,29h7v7h-7V29z M123.4,7.2h7v7h-7V7.2z
	 M123.4,14.5h7v7h-7V14.5z M123.4,21.7h7v7h-7V21.7z M123.4,29h7v7h-7V29z M58.1,36.3h7v7h-7V36.3z M58.1,43.5h7v7h-7V43.5z
	 M58.1,58.1h7v7h-7V58.1z M58.1,65.3h7v7h-7V65.3z M58.1,72.6h7v7h-7V72.6z M58.1,79.8h7v7h-7V79.8z M58.1,87.1h7v7h-7V87.1z
	 M65.4,36.3h7v7h-7V36.3z M65.4,43.5h7v7h-7V43.5z M65.4,50.8h7v7h-7V50.8z M65.4,58.1h7v7h-7V58.1z M65.4,65.3h7v7h-7V65.3z
	 M65.4,72.6h7v7h-7V72.6z M65.4,79.8h7v7h-7V79.8z M65.4,87.1h7v7h-7V87.1z M72.6,36.3h7v7h-7V36.3z M72.6,43.5h7v7h-7V43.5z
	 M72.6,58.1h7v7h-7V58.1z M72.6,65.3h7v7h-7V65.3z M72.6,72.6h7v7h-7V72.6z M72.6,79.8h7v7h-7V79.8z M72.6,87.1h7v7h-7V87.1z
	 M79.9,43.5h7v7h-7V43.5z M79.9,50.8h7v7h-7V50.8z M79.9,58.1h7v7h-7V58.1z M79.9,65.3h7v7h-7V65.3z M79.9,72.6h7v7h-7V72.6z
	 M79.9,79.8h7v7h-7V79.8z M79.9,87.1h7v7h-7V87.1z M87.1,43.5h7v7h-7V43.5z M87.1,58.1h7v7h-7V58.1z M87.1,65.3h7v7h-7V65.3z
	 M87.1,72.6h7v7h-7V72.6z M87.1,79.8h7v7h-7V79.8z M87.1,87.1h7v7h-7V87.1z M94.4,43.5h7v7h-7V43.5z M94.4,50.8h7v7h-7V50.8z
	 M94.4,58.1h7v7h-7V58.1z M94.4,65.3h7v7h-7V65.3z M94.4,72.6h7v7h-7V72.6z M94.4,79.8h7v7h-7V79.8z M94.4,87.1h7v7h-7V87.1z
	 M101.7,36.3h7v7h-7V36.3z M101.7,43.5h7v7h-7V43.5z M101.7,58.1h7v7h-7V58.1z M101.7,65.3h7v7h-7V65.3z M101.7,72.6h7v7h-7V72.6z
	 M101.7,79.8h7v7h-7V79.8z M101.7,87.1h7v7h-7V87.1z M108.9,36.3h7v7h-7V36.3z M108.9,43.5h7v7h-7V43.5z M108.9,50.8h7v7h-7V50.8z
	 M108.9,58.1h7v7h-7V58.1z M108.9,65.3h7v7h-7V65.3z M108.9,79.8h7v7h-7V79.8z M108.9,87.1h7v7h-7V87.1z M116.2,36.3h7v7h-7V36.3z
	 M116.2,43.5h7v7h-7V43.5z M116.2,58.1h7v7h-7V58.1z M116.2,65.3h7v7h-7V65.3z M116.2,72.6h7v7h-7V72.6z M116.2,87.1h7v7h-7V87.1z
	 M123.4,36.3h7v7h-7V36.3z M123.4,50.8h7v7h-7V50.8z M123.4,65.3h7v7h-7V65.3z M123.4,72.6h7v7h-7V72.6z M123.4,79.8h7v7h-7V79.8z
	 M130.7,7.2h7v7h-7V7.2z M130.7,14.5h7v7h-7V14.5z M130.7,21.7h7v7h-7V21.7z M130.7,29h7v7h-7V29z M138,7.2h7v7h-7V7.2z M138,14.5h7
	v7h-7V14.5z M138,21.7h7v7h-7V21.7z M145.2,7.2h7v7h-7V7.2z M145.2,14.5h7v7h-7V14.5z M145.2,29h7v7h-7V29z M152.5,7.2h7v7h-7V7.2z
	 M152.5,21.7h7v7h-7V21.7z M152.5,29h7v7h-7V29z M159.7,7.2h7v7h-7V7.2z M159.7,14.5h7v7h-7V14.5z M159.7,21.7h7v7h-7V21.7z
	 M159.7,29h7v7h-7V29z M130.7,43.5h7v7h-7V43.5z M130.7,50.8h7v7h-7V50.8z M130.7,58.1h7v7h-7V58.1z M130.7,72.6h7v7h-7V72.6z
	 M130.7,79.8h7v7h-7V79.8z M130.7,87.1h7v7h-7V87.1z M138,36.3h7v7h-7V36.3z M138,43.5h7v7h-7V43.5z M138,50.8h7v7h-7V50.8z
	 M138,58.1h7v7h-7V58.1z M138,65.3h7v7h-7V65.3z M138,79.8h7v7h-7V79.8z M138,87.1h7v7h-7V87.1z M145.2,36.3h7v7h-7V36.3z
	 M145.2,43.5h7v7h-7V43.5z M145.2,58.1h7v7h-7V58.1z M145.2,65.3h7v7h-7V65.3z M145.2,72.6h7v7h-7V72.6z M145.2,87.1h7v7h-7V87.1z
	 M152.5,36.3h7v7h-7V36.3z M152.5,50.8h7v7h-7V50.8z M152.5,65.3h7v7h-7V65.3z M152.5,72.6h7v7h-7V72.6z M152.5,79.8h7v7h-7V79.8z
	 M159.7,36.3h7v7h-7V36.3z M159.7,43.5h7v7h-7V43.5z M159.7,50.8h7v7h-7V50.8z M159.7,58.1h7v7h-7V58.1z M159.7,65.3h7v7h-7V65.3z
	 M159.7,72.6h7v7h-7V72.6z M159.7,79.8h7v7h-7V79.8z M159.7,87.1h7v7h-7V87.1z M0,94.3h7v7H0V94.3z M7.3,94.3h7v7h-7V94.3z
	 M14.5,94.3h7v7h-7V94.3z M21.8,94.3h7v7h-7V94.3z M29.1,94.3h7v7h-7V94.3z M36.3,94.3h7v7h-7V94.3z M43.6,94.3h7v7h-7V94.3z
	 M50.8,94.3h7v7h-7V94.3z M58.1,94.3h7v7h-7V94.3z M65.4,94.3h7v7h-7V94.3z M72.6,94.3h7v7h-7V94.3z M79.9,94.3h7v7h-7V94.3z
	 M87.1,94.3h7v7h-7V94.3z M94.4,94.3h7v7h-7V94.3z M101.7,94.3h7v7h-7V94.3z M108.9,94.3h7v7h-7V94.3z M116.2,94.3h7v7h-7V94.3z
	 M123.4,94.3h7v7h-7V94.3z M130.7,94.3h7v7h-7V94.3z M138,94.3h7v7h-7V94.3z M145.2,94.3h7v7h-7V94.3z M152.5,94.3h7v7h-7V94.3z
	 M159.7,94.3h7v7h-7V94.3z"/>
</svg>
