<?xml version="1.0" encoding="utf-8"?>
<!-- Generator: Adobe Illustrator 27.3.1, SVG Export Plug-In . SVG Version: 6.00 Build 0)  -->
<svg version="1.1" xmlns="http://www.w3.org/2000/svg" xmlns:xlink="http://www.w3.org/1999/xlink" x="0px" y="0px"
	 viewBox="0 0 423.6 263.8" style="enable-background:new 0 0 423.6 263.8;" xml:space="preserve">
<style type="text/css">
	.st0{fill:#FCE19B;}
	.st1{fill:#1E0E01;}
</style>
<g id="Слой_2">
	<g id="Слой_2_00000169552536113480580740000017062375426909318553_">
		<path class="st0" d="M423.6,5c0-2.8-2.2-5-5-5h-7h-0.1c-0.1,0-0.1,0-0.2,0h-7c-0.1,0-0.1,0-0.2,0h-7H397c-0.1,0-0.1,0-0.2,0h-7
			c-1.5,0-2.8,0.7-3.8,1.7c-0.9-1-2.3-1.7-3.8-1.7h-7c0,0-0.1,0-0.2,0h-0.1h-7c-0.1,0-0.1,0-0.2,0h-7c0,0-0.1,0-0.2,0h-0.1h-7
			c0,0-0.1,0-0.2,0h-0.1h-7c-0.1,0-0.1,0-0.2,0h-7c0,0-0.1,0-0.2,0h-0.1h-7c-2.8,0-5,2.2-5,5v2.2h-2.2c0,0-0.1,0-0.2,0h-0.1h-7
			c0,0-0.1,0-0.2,0h-0.1h-2.2V5c0-2.8-2.2-5-5-5h-7c0,0-0.1,0-0.2,0h-0.1h-7c-0.1,0-0.1,0-0.2,0h-7c0,0-0.1,0-0.2,0h-0.1h-7
			c0,0-0.1,0-0.2,0c0,0-0.1,0-0.2,0h-7c-0.1,0-0.1,0-0.2,0h-7c0,0-0.1,0-0.2,0c0,0-0.1,0-0.2,0h-7c-1.5,0-2.8,0.7-3.8,1.7
			c-0.9-1-2.3-1.7-3.8-1.7h-7h-0.1c-0.1,0-0.1,0-0.2,0h-7c-0.1,0-0.1,0-0.2,0h-7h-0.1c-0.1,0-0.1,0-0.2,0h-7c-0.1,0-0.1,0-0.2,0h-7
			h-0.1c-0.1,0-0.1,0-0.2,0h-7c-0.1,0-0.1,0-0.1,0h-0.1h-7c-0.1,0-0.1,0-0.2,0h-7c-0.1,0-0.1,0-0.1,0h-0.1h-7c-2.8,0-5,2.2-5,5v2.2
			h-2.2c-2.8,0-5,2.2-5,5v2.3H172c-0.1,0-0.1,0-0.1,0h-0.1h-2.2v-2.3c0-2.8-2.2-5-5-5h-2.3V5c0-2.8-2.2-5-5-5h-7c-0.1,0-0.1,0-0.2,0
			h-7C143,0,143,0,143,0h-0.1h-7c-0.1,0-0.1,0-0.1,0c-0.1,0-0.1,0-0.2,0h-7c-0.1,0-0.1,0-0.2,0h-7c-0.1,0-0.1,0-0.1,0
			c-0.1,0-0.1,0-0.2,0h-7c-0.1,0-0.1,0-0.2,0h-7c-0.1,0-0.1,0-0.1,0c-0.1,0-0.1,0-0.2,0h-7c-0.1,0-0.1,0-0.1,0h-0.1h-7
			C92,0,92,0,91.9,0h-7c-0.1,0-0.1,0-0.1,0h-0.1h-7c-0.1,0-0.1,0-0.2,0h-7c-0.1,0-0.1,0-0.1,0h-0.1h-7c-2.8,0-5,2.2-5,5v2.2H56
			c-1.5,0-2.8,0.7-3.8,1.7c-0.9-1-2.3-1.7-3.8-1.7h-2.2V5c0-2.8-2.2-5-5-5h-7C34,0,34,0,34,0c-0.1,0-0.1,0-0.2,0h-7
			c-0.1,0-0.1,0-0.1,0h-0.1h-7c-0.1,0-0.1,0-0.2,0h-7c-0.1,0-0.1,0-0.1,0h-0.1H5C2.2,0,0,2.2,0,5v7v0.1v0.1v7c0,0.1,0,0.1,0,0.1v0.1
			v7c0,0.1,0,0.1,0,0.1v0.1v7v0.1v0.1v7c0,2.8,2.2,5,5,5h2.3v2.3c0,1.7,0.7,3,1.7,3.9c-1,0.9-1.7,2.3-1.7,3.8v2.3H5
			c-2.8,0-5,2.2-5,5v7v0.1v0.1v7c0,0.1,0,0.1,0,0.1c0,0.1,0,0.1,0,0.2v7c0,0.1,0,0.1,0,0.1v0.1v7v0.1V92v7c0,0.1,0,0.1,0,0.1v0.1v7
			c0,1.5,0.7,2.8,1.7,3.8c-1,0.9-1.7,2.3-1.7,3.8v7v0.1v0.1v7c0,0.1,0,0.1,0,0.1v0.1v7c0,0,0,0.1,0,0.2v0.1v7v0.1v0.1v7
			c0,2.8,2.2,5,5,5h2.3v2.3v0.1v0.1v7c0,0,0,0.1,0,0.2v0.1v2.3H5c-2.8,0-5,2.2-5,5v7v0.1v0.1v7c0,0,0,0.1,0,0.2v0.1v7v0.1
			c0,0,0,0.1,0,0.2v7c0,2.8,2.2,5,5,5h2.3v2.2c0,1.5,0.7,2.8,1.7,3.8c-1,0.9-1.7,2.3-1.7,3.8v2.3H5c-2.8,0-5,2.2-5,5v7v0.1v0.1v7
			v0.1c0,0,0,0.1,0,0.2v7v0.1c0,0.1,0,0.1,0,0.2v7v0.1v0.1v7c0,2.8,2.2,5,5,5h7c0.1,0,0.2,0,0.3,0h7c2.8,0,5-2.2,5-5v-2.2h2.2
			c0.1,0,0.2,0,0.3,0h7c1.5,0,2.8-0.7,3.8-1.7c0.9,1,2.3,1.7,3.8,1.7h2.3v2.2c0,2.8,2.2,5,5,5h7c0.1,0,0.1,0,0.2,0h7
			c0.1,0,0.2,0,0.3,0h7c0.1,0,0.2,0,0.3,0h7c0.1,0,0.1,0,0.2,0h7c0.1,0,0.2,0,0.3,0h7c0.1,0,0.1,0,0.2,0h7c0.1,0,0.2,0,0.3,0h7
			c0.1,0,0.2,0,0.3,0h7c0.1,0,0.1,0,0.2,0h7c0.1,0,0.2,0,0.3,0h7c0.1,0,0.1,0,0.2,0h7c0.1,0,0.2,0,0.3,0h7c0.1,0,0.2,0,0.3,0h7
			c2.8,0,5-2.2,5-5v-2.2h2.2c1.5,0,2.8-0.7,3.8-1.7c0.9,1,2.3,1.7,3.8,1.7h2.3v2.2c0,2.8,2.2,5,5,5h7c0.1,0,0.2,0,0.3,0h7
			c0.1,0,0.1,0,0.2,0h7c0.1,0,0.2,0,0.3,0h7c0.1,0,0.1,0,0.2,0h7c1.5,0,2.9-0.7,3.8-1.8c0.9,1.1,2.3,1.8,3.8,1.8h7
			c0.1,0,0.1,0,0.2,0h7c0.1,0,0.2,0,0.3,0h7c0.1,0,0.1,0,0.2,0h7c0.1,0,0.2,0,0.3,0h7c0.1,0,0.2,0,0.3,0h7c2.8,0,5-2.2,5-5v-2.2h2.2
			c0.1,0,0.2,0,0.3,0h2.2v2.2c0,2.8,2.2,5,5,5h7c0.1,0,0.2,0,0.3,0h7c0.1,0,0.2,0,0.3,0h7c0.1,0,0.1,0,0.2,0h7c0.1,0,0.2,0,0.3,0h7
			c0.1,0,0.1,0,0.2,0h7c0.1,0,0.2,0,0.3,0h7c0.1,0,0.2,0,0.3,0h7c0.1,0,0.1,0,0.2,0h7c0.1,0,0.2,0,0.3,0h7c2.8,0,5-2.2,5-5v-2.2h2.2
			c1.5,0,2.9-0.7,3.8-1.8c0.9,1.1,2.3,1.8,3.8,1.8h7c1.5,0,2.8-0.7,3.8-1.7c0.9,1,2.3,1.7,3.8,1.7h2.2v2.2c0,2.8,2.2,5,5,5h7
			c0.1,0,0.2,0,0.3,0h7c0.1,0,0.2,0,0.3,0h7c0.1,0,0.1,0,0.2,0h7c0.1,0,0.2,0,0.3,0h7c2.8,0,5-2.2,5-5v-7v-0.1v-0.1v-7
			c0,0,0-0.1,0-0.2v-0.1v-7c0,0,0-0.1,0-0.2v-0.1v-7v-0.1v-0.1v-7c0,0,0-0.1,0-0.2v-0.1v-7v-0.1v-0.1v-7c0-2.8-2.2-5-5-5h-2.3V201
			c0-1.5-0.7-2.8-1.7-3.8c1-0.9,1.7-2.3,1.7-3.8v-2.3h2.3c2.8,0,5-2.2,5-5v-7V179v-0.1v-7v-0.1c0-0.1,0-0.1,0-0.2v-7v-0.1
			c0-0.1,0-0.1,0-0.2v-7v-0.1v-0.1v-7V150c0-0.1,0-0.1,0-0.2v-7v-0.1v-0.1v-7c0-1.5-0.7-2.9-1.8-3.8c1.1-0.9,1.8-2.3,1.8-3.8v-7
			v-0.1v-0.1v-7c0-0.1,0-0.1,0-0.1v-0.1v-7v-0.1v-0.1v-7c0-0.1,0-0.1,0-0.1v-0.1v-7v-0.1V92v-7c0-0.1,0-0.1,0-0.1v-0.1v-7
			c0-0.1,0-0.1,0-0.2v-0.1v-7c0-2.8-2.2-5-5-5h-7h-0.1c-0.1,0-0.1,0-0.2,0h-2.2v-2.2c0-0.1,0-0.1,0-0.2V63v-2.2h2.2c2.8,0,5-2.2,5-5
			v-2.3h2.3c2.8,0,5-2.2,5-5v-7c0-0.1,0-0.1,0-0.1v-0.1v-7v-0.1v-0.1v-7c0-0.1,0-0.1,0-0.1v-0.1v-7c0-0.1,0-0.1,0-0.1v-0.1v-7v-0.1
			v-0.1V5H423.6z"/>
	</g>
</g>
<g id="Слой_1">
	<path class="st1" d="M5,5h7v7H5V5z M5,12.2h7v7H5V12.2z M5,19.5h7v7H5V19.5z M5,26.8h7v7H5V26.8z M5,34h7v7H5V34z M5,63.1h7v7H5
		V63.1z M5,70.3h7v7H5V70.3z M12.3,77.6h7v7h-7V77.6z M12.3,84.9h7v7h-7V84.9z M5,92.1h7v7H5V92.1z M5,99.4h7v7H5V99.4z M5,113.9h7
		v7H5V113.9z M5,121.1h7v7H5V121.1z M5,128.4h7v7H5V128.4z M5,135.7h7v7H5V135.7z M5,142.9h7v7H5V142.9z M5,172h7v7H5V172z M5,179.2
		h7v7H5V179.2z M5,186.5h7v7H5V186.5z M5,193.8h7v7H5V193.8z M5,222.8h7v7H5V222.8z M5,230h7v7H5V230z M5,237.3h7v7H5V237.3z
		 M5,244.6h7v7H5V244.6z M5,251.8h7v7H5V251.8z M12.3,5h7v7h-7C12.3,12,12.3,5,12.3,5z M12.3,19.5h7v7h-7
		C12.3,26.5,12.3,19.5,12.3,19.5z M12.3,26.8h7v7h-7C12.3,33.8,12.3,26.8,12.3,26.8z M12.3,34h7v7h-7C12.3,41,12.3,34,12.3,34z
		 M12.3,41.3h7v7h-7C12.3,48.3,12.3,41.3,12.3,41.3z M12.3,55.8h7v7h-7C12.3,62.8,12.3,55.8,12.3,55.8z M12.3,106.6h7v7h-7
		C12.3,113.6,12.3,106.6,12.3,106.6z M12.3,121.1h7v7h-7C12.3,128.1,12.3,121.1,12.3,121.1z M12.3,142.9h7v7h-7
		C12.3,149.9,12.3,142.9,12.3,142.9z M12.3,150.2h7v7h-7C12.3,157.2,12.3,150.2,12.3,150.2z M12.3,157.4h7v7h-7
		C12.3,164.4,12.3,157.4,12.3,157.4z M12.3,164.7h7v7h-7C12.3,171.7,12.3,164.7,12.3,164.7z M12.3,172h7v7h-7
		C12.3,179,12.3,172,12.3,172z M12.3,179.2h7v7h-7C12.3,186.2,12.3,179.2,12.3,179.2z M12.3,186.5h7v7h-7
		C12.3,193.5,12.3,186.5,12.3,186.5z M12.3,193.8h7v7h-7C12.3,200.8,12.3,193.8,12.3,193.8z M12.3,201h7v7h-7
		C12.3,208,12.3,201,12.3,201z M12.3,215.5h7v7h-7C12.3,222.5,12.3,215.5,12.3,215.5z M12.3,222.8h7v7h-7
		C12.3,229.8,12.3,222.8,12.3,222.8z M12.3,230h7v7h-7C12.3,237,12.3,230,12.3,230z M12.3,237.3h7v7h-7
		C12.3,244.3,12.3,237.3,12.3,237.3z M12.3,251.8h7v7h-7C12.3,258.8,12.3,251.8,12.3,251.8z M19.5,5h7v7h-7V5z M19.5,12.2h7v7h-7
		V12.2z M19.5,26.8h7v7h-7V26.8z M19.5,34h7v7h-7V34z M19.5,41.3h7v7h-7V41.3z M19.5,48.6h7v7h-7V48.6z M19.5,113.9h7v7h-7V113.9z
		 M19.5,128.4h7v7h-7V128.4z M19.5,172h7v7h-7V172z M19.5,179.2h7v7h-7V179.2z M19.5,186.5h7v7h-7V186.5z M19.5,193.8h7v7h-7V193.8z
		 M19.5,201h7v7h-7V201z M19.5,208.3h7v7h-7V208.3z M19.5,215.5h7v7h-7V215.5z M19.5,222.8h7v7h-7V222.8z M19.5,230h7v7h-7V230z
		 M19.5,244.6h7v7h-7V244.6z M26.8,5h7v7h-7V5z M26.8,12.2h7v7h-7V12.2z M26.8,19.5h7v7h-7V19.5z M26.8,34h7v7h-7V34z M26.8,41.3h7
		v7h-7V41.3z M26.8,48.6h7v7h-7V48.6z M26.8,55.8h7v7h-7V55.8z M26.8,106.6h7v7h-7V106.6z M26.8,135.7h7v7h-7V135.7z M26.8,164.7h7
		v7h-7V164.7z M26.8,172h7v7h-7V172z M26.8,179.2h7v7h-7V179.2z M26.8,186.5h7v7h-7V186.5z M26.8,193.8h7v7h-7V193.8z M26.8,201h7v7
		h-7V201z M26.8,208.3h7v7h-7V208.3z M26.8,215.5h7v7h-7V215.5z M26.8,222.8h7v7h-7V222.8z M26.8,237.3h7v7h-7V237.3z M26.8,244.6h7
		v7h-7V244.6z M34.1,5h7v7h-7V5z M34.1,12.2h7v7h-7V12.2z M34.1,19.5h7v7h-7V19.5z M34.1,26.8h7v7h-7V26.8z M34.1,41.3h7v7h-7V41.3z
		 M34.1,48.6h7v7h-7V48.6z M34.1,55.8h7v7h-7V55.8z M34.1,63.1h7v7h-7V63.1z M34.1,70.3h7v7h-7V70.3z M34.1,77.6h7v7h-7V77.6z
		 M34.1,99.4h7v7h-7V99.4z M34.1,142.9h7v7h-7V142.9z M34.1,157.4h7v7h-7V157.4z M34.1,164.7h7v7h-7V164.7z M34.1,172h7v7h-7V172z
		 M34.1,179.2h7v7h-7V179.2z M34.1,186.5h7v7h-7V186.5z M34.1,193.8h7v7h-7V193.8z M34.1,201h7v7h-7V201z M34.1,208.3h7v7h-7V208.3z
		 M34.1,215.5h7v7h-7V215.5z M34.1,230h7v7h-7V230z M34.1,237.3h7v7h-7V237.3z M41.3,12.2h7v7h-7V12.2z M41.3,19.5h7v7h-7V19.5z
		 M41.3,26.8h7v7h-7V26.8z M41.3,34h7v7h-7V34z M41.3,48.6h7v7h-7V48.6z M41.3,55.8h7v7h-7V55.8z M41.3,63.1h7v7h-7V63.1z
		 M41.3,70.3h7v7h-7V70.3z M41.3,77.6h7v7h-7V77.6z M41.3,84.9h7v7h-7V84.9z M41.3,150.2h7v7h-7V150.2z M41.3,157.4h7v7h-7V157.4z
		 M41.3,164.7h7v7h-7V164.7z M41.3,172h7v7h-7V172z M41.3,179.2h7v7h-7V179.2z M41.3,186.5h7v7h-7V186.5z M41.3,193.8h7v7h-7V193.8z
		 M41.3,201h7v7h-7V201z M41.3,208.3h7v7h-7V208.3z M41.3,222.8h7v7h-7V222.8z M41.3,230h7v7h-7V230z M41.3,237.3h7v7h-7V237.3z
		 M41.3,244.6h7v7h-7V244.6z M48.6,19.5h7v7h-7V19.5z M48.6,26.8h7v7h-7V26.8z M48.6,34h7v7h-7V34z M48.6,41.3h7v7h-7V41.3z
		 M48.6,55.8h7v7h-7V55.8z M48.6,63.1h7v7h-7V63.1z M48.6,70.3h7v7h-7V70.3z M48.6,77.6h7v7h-7V77.6z M48.6,84.9h7v7h-7V84.9z
		 M48.6,92.1h7v7h-7V92.1z M48.6,99.4h7v7h-7V99.4z M48.6,128.4h7v7h-7V128.4z M48.6,135.7h7v7h-7V135.7z M48.6,142.9h7v7h-7V142.9z
		 M48.6,150.2h7v7h-7V150.2z M48.6,157.4h7v7h-7V157.4z M48.6,164.7h7v7h-7V164.7z M48.6,172h7v7h-7V172z M48.6,179.2h7v7h-7V179.2z
		 M48.6,186.5h7v7h-7V186.5z M48.6,193.8h7v7h-7V193.8z M48.6,201h7v7h-7V201z M48.6,215.5h7v7h-7V215.5z M48.6,222.8h7v7h-7V222.8z
		 M48.6,230h7v7h-7V230z M48.6,237.3h7v7h-7V237.3z M48.6,251.8h7v7h-7V251.8z M55.8,12.2h7v7h-7V12.2z M55.8,19.5h7v7h-7V19.5z
		 M55.8,26.8h7v7h-7V26.8z M55.8,34h7v7h-7V34z M55.8,41.3h7v7h-7V41.3z M55.8,48.6h7v7h-7V48.6z M55.8,63.1h7v7h-7V63.1z
		 M55.8,70.3h7v7h-7V70.3z M55.8,77.6h7v7h-7V77.6z M55.8,84.9h7v7h-7V84.9z M55.8,92.1h7v7h-7V92.1z M55.8,99.4h7v7h-7V99.4z
		 M55.8,106.6h7v7h-7V106.6z M55.8,113.9h7v7h-7V113.9z M55.8,121.1h7v7h-7V121.1z M55.8,128.4h7v7h-7V128.4z M55.8,135.7h7v7h-7
		V135.7z M55.8,142.9h7v7h-7V142.9z M55.8,150.2h7v7h-7V150.2z M55.8,157.4h7v7h-7V157.4z M55.8,164.7h7v7h-7V164.7z M55.8,172h7v7
		h-7V172z M55.8,179.2h7v7h-7V179.2z M55.8,186.5h7v7h-7V186.5z M55.8,193.8h7v7h-7V193.8z M55.8,208.3h7v7h-7V208.3z M55.8,215.5h7
		v7h-7V215.5z M55.8,222.8h7v7h-7V222.8z M55.8,230h7v7h-7V230z M55.8,244.6h7v7h-7V244.6z M55.8,251.8h7v7h-7V251.8z M63.1,5h7v7
		h-7V5z M63.1,12.2h7v7h-7V12.2z M63.1,19.5h7v7h-7V19.5z M63.1,26.8h7v7h-7V26.8z M63.1,34h7v7h-7V34z M63.1,41.3h7v7h-7V41.3z
		 M63.1,48.6h7v7h-7V48.6z M63.1,55.8h7v7h-7V55.8z M63.1,70.3h7v7h-7V70.3z M63.1,77.6h7v7h-7V77.6z M63.1,84.9h7v7h-7V84.9z
		 M63.1,92.1h7v7h-7V92.1z M63.1,99.4h7v7h-7V99.4z M63.1,106.6h7v7h-7V106.6z M63.1,113.9h7v7h-7V113.9z M63.1,121.1h7v7h-7V121.1z
		 M63.1,128.4h7v7h-7V128.4z M63.1,135.7h7v7h-7V135.7z M63.1,142.9h7v7h-7V142.9z M63.1,150.2h7v7h-7V150.2z M63.1,157.4h7v7h-7
		V157.4z M63.1,164.7h7v7h-7V164.7z M63.1,172h7v7h-7V172z M63.1,179.2h7v7h-7V179.2z M63.1,186.5h7v7h-7V186.5z M63.1,201h7v7h-7
		V201z M63.1,208.3h7v7h-7V208.3z M63.1,215.5h7v7h-7V215.5z M63.1,222.8h7v7h-7V222.8z M63.1,237.3h7v7h-7V237.3z M63.1,251.8h7v7
		h-7V251.8z M70.4,5h7v7h-7V5z M70.4,12.2h7v7h-7V12.2z M70.4,26.8h7v7h-7V26.8z M70.4,34h7v7h-7V34z M70.4,41.3h7v7h-7V41.3z
		 M70.4,48.6h7v7h-7V48.6z M70.4,55.8h7v7h-7V55.8z M70.4,63.1h7v7h-7V63.1z M70.4,77.6h7v7h-7V77.6z M70.4,84.9h7v7h-7V84.9z
		 M70.4,92.1h7v7h-7V92.1z M70.4,99.4h7v7h-7V99.4z M70.4,106.6h7v7h-7V106.6z M70.4,113.9h7v7h-7V113.9z M70.4,121.1h7v7h-7V121.1z
		 M70.4,128.4h7v7h-7V128.4z M70.4,135.7h7v7h-7V135.7z M70.4,142.9h7v7h-7V142.9z M70.4,150.2h7v7h-7V150.2z M70.4,157.4h7v7h-7
		V157.4z M70.4,164.7h7v7h-7V164.7z M70.4,172h7v7h-7V172z M70.4,179.2h7v7h-7V179.2z M70.4,193.8h7v7h-7V193.8z M70.4,201h7v7h-7
		V201z M70.4,208.3h7v7h-7V208.3z M70.4,215.5h7v7h-7V215.5z M70.4,230h7v7h-7V230z M70.4,244.6h7v7h-7V244.6z M70.4,251.8h7v7h-7
		V251.8z M77.6,5h7v7h-7V5z M77.6,12.2h7v7h-7V12.2z M77.6,19.5h7v7h-7V19.5z M77.6,34h7v7h-7V34z M77.6,41.3h7v7h-7V41.3z
		 M77.6,48.6h7v7h-7V48.6z M77.6,55.8h7v7h-7V55.8z M77.6,63.1h7v7h-7V63.1z M77.6,70.3h7v7h-7V70.3z M77.6,84.9h7v7h-7V84.9z
		 M77.6,92.1h7v7h-7V92.1z M77.6,99.4h7v7h-7V99.4z M77.6,106.6h7v7h-7V106.6z M77.6,113.9h7v7h-7V113.9z M77.6,121.1h7v7h-7V121.1z
		 M77.6,128.4h7v7h-7V128.4z M77.6,135.7h7v7h-7V135.7z M77.6,142.9h7v7h-7V142.9z M77.6,150.2h7v7h-7V150.2z M77.6,157.4h7v7h-7
		V157.4z M77.6,164.7h7v7h-7V164.7z M77.6,172h7v7h-7V172z M77.6,186.5h7v7h-7V186.5z M77.6,193.8h7v7h-7V193.8z M77.6,201h7v7h-7
		V201z M77.6,208.3h7v7h-7V208.3z M77.6,215.5h7v7h-7V215.5z M77.6,222.8h7v7h-7V222.8z M77.6,237.3h7v7h-7V237.3z M77.6,251.8h7v7
		h-7V251.8z M84.9,5h7v7h-7V5z M84.9,12.2h7v7h-7V12.2z M84.9,26.8h7v7h-7V26.8z M84.9,41.3h7v7h-7V41.3z M84.9,48.6h7v7h-7V48.6z
		 M84.9,55.8h7v7h-7V55.8z M84.9,63.1h7v7h-7V63.1z M84.9,70.3h7v7h-7V70.3z M84.9,77.6h7v7h-7V77.6z M84.9,92.1h7v7h-7V92.1z
		 M84.9,99.4h7v7h-7V99.4z M84.9,106.6h7v7h-7V106.6z M84.9,113.9h7v7h-7V113.9z M84.9,121.1h7v7h-7V121.1z M84.9,128.4h7v7h-7
		V128.4z M84.9,135.7h7v7h-7V135.7z M84.9,142.9h7v7h-7V142.9z M84.9,150.2h7v7h-7V150.2z M84.9,157.4h7v7h-7V157.4z M84.9,164.7h7
		v7h-7V164.7z M84.9,179.2h7v7h-7V179.2z M84.9,186.5h7v7h-7V186.5z M84.9,193.8h7v7h-7V193.8z M84.9,201h7v7h-7V201z M84.9,208.3h7
		v7h-7V208.3z M84.9,215.5h7v7h-7V215.5z M84.9,230h7v7h-7V230z M84.9,244.6h7v7h-7V244.6z M84.9,251.8h7v7h-7V251.8z M92.1,5h7v7
		h-7V5z M92.1,12.2h7v7h-7V12.2z M92.1,19.5h7v7h-7V19.5z M92.1,34h7v7h-7V34z M92.1,48.6h7v7h-7V48.6z M92.1,55.8h7v7h-7V55.8z
		 M92.1,63.1h7v7h-7V63.1z M92.1,70.3h7v7h-7V70.3z M92.1,77.6h7v7h-7V77.6z M92.1,84.9h7v7h-7V84.9z M92.1,99.4h7v7h-7V99.4z
		 M92.1,106.6h7v7h-7V106.6z M92.1,113.9h7v7h-7V113.9z M92.1,121.1h7v7h-7V121.1z M92.1,128.4h7v7h-7V128.4z M92.1,135.7h7v7h-7
		V135.7z M92.1,142.9h7v7h-7V142.9z M92.1,150.2h7v7h-7V150.2z M92.1,157.4h7v7h-7V157.4z M92.1,172h7v7h-7V172z M92.1,179.2h7v7h-7
		V179.2z M92.1,186.5h7v7h-7V186.5z M92.1,193.8h7v7h-7V193.8z M92.1,201h7v7h-7V201z M92.1,208.3h7v7h-7V208.3z M92.1,215.5h7v7h-7
		V215.5z M92.1,222.8h7v7h-7V222.8z M92.1,237.3h7v7h-7V237.3z M92.1,251.8h7v7h-7V251.8z M99.4,5h7v7h-7V5z M99.4,12.2h7v7h-7V12.2
		z M99.4,26.8h7v7h-7V26.8z M99.4,41.3h7v7h-7V41.3z M99.4,48.6h7v7h-7V48.6z M99.4,55.8h7v7h-7V55.8z M99.4,63.1h7v7h-7V63.1z
		 M99.4,70.3h7v7h-7V70.3z M99.4,77.6h7v7h-7V77.6z M99.4,84.9h7v7h-7V84.9z M99.4,92.1h7v7h-7V92.1z M99.4,106.6h7v7h-7V106.6z
		 M99.4,113.9h7v7h-7V113.9z M99.4,121.1h7v7h-7V121.1z M99.4,128.4h7v7h-7V128.4z M99.4,135.7h7v7h-7V135.7z M99.4,142.9h7v7h-7
		V142.9z M99.4,150.2h7v7h-7V150.2z M99.4,164.7h7v7h-7V164.7z M99.4,172h7v7h-7V172z M99.4,179.2h7v7h-7V179.2z M99.4,186.5h7v7h-7
		V186.5z M99.4,193.8h7v7h-7V193.8z M99.4,201h7v7h-7V201z M99.4,208.3h7v7h-7V208.3z M99.4,215.5h7v7h-7V215.5z M99.4,230h7v7h-7
		V230z M99.4,244.6h7v7h-7V244.6z M99.4,251.8h7v7h-7V251.8z M106.7,5h7v7h-7V5z M106.7,12.2h7v7h-7V12.2z M106.7,19.5h7v7h-7V19.5z
		 M106.7,34h7v7h-7V34z M106.7,48.6h7v7h-7V48.6z M106.7,55.8h7v7h-7V55.8z M106.7,63.1h7v7h-7V63.1z M106.7,70.3h7v7h-7V70.3z
		 M106.7,77.6h7v7h-7V77.6z M106.7,84.9h7v7h-7V84.9z M106.7,92.1h7v7h-7V92.1z M106.7,99.4h7v7h-7V99.4z M106.7,113.9h7v7h-7V113.9
		z M106.7,121.1h7v7h-7V121.1z M106.7,128.4h7v7h-7V128.4z M106.7,135.7h7v7h-7V135.7z M106.7,142.9h7v7h-7V142.9z M106.7,157.4h7v7
		h-7V157.4z M106.7,164.7h7v7h-7V164.7z M106.7,172h7v7h-7V172z M106.7,179.2h7v7h-7V179.2z M106.7,186.5h7v7h-7V186.5z
		 M106.7,193.8h7v7h-7V193.8z M106.7,201h7v7h-7V201z M106.7,208.3h7v7h-7V208.3z M106.7,215.5h7v7h-7V215.5z M106.7,222.8h7v7h-7
		V222.8z M106.7,237.3h7v7h-7V237.3z M106.7,251.8h7v7h-7V251.8z M113.9,5h7v7h-7V5z M113.9,12.2h7v7h-7V12.2z M113.9,26.8h7v7h-7
		V26.8z M113.9,41.3h7v7h-7V41.3z M113.9,48.6h7v7h-7V48.6z M113.9,55.8h7v7h-7V55.8z M113.9,63.1h7v7h-7V63.1z M113.9,70.3h7v7h-7
		V70.3z M113.9,77.6h7v7h-7V77.6z M113.9,84.9h7v7h-7V84.9z M113.9,92.1h7v7h-7V92.1z M113.9,99.4h7v7h-7V99.4z M113.9,106.6h7v7h-7
		V106.6z M113.9,121.1h7v7h-7V121.1z M113.9,128.4h7v7h-7V128.4z M113.9,135.7h7v7h-7V135.7z M113.9,150.2h7v7h-7V150.2z
		 M113.9,157.4h7v7h-7V157.4z M113.9,164.7h7v7h-7V164.7z M113.9,172h7v7h-7V172z M113.9,179.2h7v7h-7V179.2z M113.9,186.5h7v7h-7
		V186.5z M113.9,193.8h7v7h-7V193.8z M113.9,201h7v7h-7V201z M113.9,208.3h7v7h-7V208.3z M113.9,215.5h7v7h-7V215.5z M113.9,230h7v7
		h-7V230z M113.9,244.6h7v7h-7V244.6z M113.9,251.8h7v7h-7V251.8z M121.2,5h7v7h-7V5z M121.2,12.2h7v7h-7V12.2z M121.2,19.5h7v7h-7
		V19.5z M121.2,34h7v7h-7V34z M121.2,48.6h7v7h-7V48.6z M121.2,55.8h7v7h-7V55.8z M121.2,63.1h7v7h-7V63.1z M121.2,70.3h7v7h-7V70.3
		z M121.2,77.6h7v7h-7V77.6z M121.2,84.9h7v7h-7V84.9z M121.2,92.1h7v7h-7V92.1z M121.2,99.4h7v7h-7V99.4z M121.2,106.6h7v7h-7
		V106.6z M121.2,113.9h7v7h-7V113.9z M121.2,128.4h7v7h-7V128.4z M121.2,142.9h7v7h-7V142.9z M121.2,150.2h7v7h-7V150.2z
		 M121.2,157.4h7v7h-7V157.4z M121.2,164.7h7v7h-7V164.7z M121.2,172h7v7h-7V172z M121.2,179.2h7v7h-7V179.2z M121.2,186.5h7v7h-7
		V186.5z M121.2,193.8h7v7h-7V193.8z M121.2,201h7v7h-7V201z M121.2,208.3h7v7h-7V208.3z M121.2,215.5h7v7h-7V215.5z M121.2,222.8h7
		v7h-7V222.8z M121.2,237.3h7v7h-7V237.3z M121.2,244.6h7v7h-7V244.6z M121.2,251.8h7v7h-7V251.8z M128.4,5h7v7h-7V5z M128.4,12.2h7
		v7h-7V12.2z M128.4,26.8h7v7h-7V26.8z M128.4,41.3h7v7h-7V41.3z M128.4,48.6h7v7h-7V48.6z M128.4,55.8h7v7h-7V55.8z M128.4,63.1h7
		v7h-7V63.1z M128.4,70.3h7v7h-7V70.3z M128.4,77.6h7v7h-7V77.6z M128.4,84.9h7v7h-7V84.9z M128.4,92.1h7v7h-7V92.1z M128.4,99.4h7
		v7h-7V99.4z M128.4,106.6h7v7h-7V106.6z M128.4,113.9h7v7h-7V113.9z M128.4,121.1h7v7h-7V121.1z M128.4,135.7h7v7h-7V135.7z
		 M128.4,142.9h7v7h-7V142.9z M128.4,150.2h7v7h-7V150.2z M128.4,157.4h7v7h-7V157.4z M128.4,164.7h7v7h-7V164.7z M128.4,172h7v7h-7
		V172z M128.4,179.2h7v7h-7V179.2z M128.4,186.5h7v7h-7V186.5z M128.4,193.8h7v7h-7V193.8z M128.4,201h7v7h-7V201z M128.4,208.3h7v7
		h-7V208.3z M128.4,215.5h7v7h-7V215.5z M128.4,230h7v7h-7V230z M128.4,237.3h7v7h-7V237.3z M128.4,244.6h7v7h-7V244.6z
		 M128.4,251.8h7v7h-7V251.8z M135.7,5h7v7h-7V5z M135.7,12.2h7v7h-7V12.2z M135.7,19.5h7v7h-7V19.5z M135.7,34h7v7h-7V34z
		 M135.7,48.6h7v7h-7V48.6z M135.7,55.8h7v7h-7V55.8z M135.7,63.1h7v7h-7V63.1z M135.7,70.3h7v7h-7V70.3z M135.7,77.6h7v7h-7V77.6z
		 M135.7,84.9h7v7h-7V84.9z M135.7,92.1h7v7h-7V92.1z M135.7,99.4h7v7h-7V99.4z M135.7,106.6h7v7h-7V106.6z M135.7,113.9h7v7h-7
		V113.9z M135.7,121.1h7v7h-7V121.1z M135.7,128.4h7v7h-7V128.4z M135.7,135.7h7v7h-7V135.7z M135.7,142.9h7v7h-7V142.9z
		 M135.7,150.2h7v7h-7V150.2z M135.7,157.4h7v7h-7V157.4z M135.7,164.7h7v7h-7V164.7z M135.7,172h7v7h-7V172z M135.7,186.5h7v7h-7
		V186.5z M135.7,193.8h7v7h-7V193.8z M135.7,201h7v7h-7V201z M135.7,208.3h7v7h-7V208.3z M135.7,215.5h7v7h-7V215.5z M135.7,222.8h7
		v7h-7V222.8z M135.7,230h7v7h-7V230z M135.7,237.3h7v7h-7V237.3z M135.7,244.6h7v7h-7V244.6z M135.7,251.8h7v7h-7V251.8z M143,5h7
		v7h-7V5z M143,12.2h7v7h-7V12.2z M143,19.5h7v7h-7V19.5z M143,26.8h7v7h-7V26.8z M143,41.3h7v7h-7V41.3z M143,48.6h7v7h-7V48.6z
		 M143,55.8h7v7h-7V55.8z M143,63.1h7v7h-7V63.1z M143,70.3h7v7h-7V70.3z M143,77.6h7v7h-7V77.6z M143,84.9h7v7h-7V84.9z M143,92.1
		h7v7h-7V92.1z M143,99.4h7v7h-7V99.4z M143,106.6h7v7h-7V106.6z M143,113.9h7v7h-7V113.9z M143,121.1h7v7h-7V121.1z M143,135.7h7v7
		h-7V135.7z M143,142.9h7v7h-7V142.9z M143,150.2h7v7h-7V150.2z M143,157.4h7v7h-7V157.4z M143,164.7h7v7h-7V164.7z M143,172h7v7h-7
		V172z M143,179.2h7v7h-7V179.2z M143,193.8h7v7h-7V193.8z M143,201h7v7h-7V201z M143,208.3h7v7h-7V208.3z M143,215.5h7v7h-7V215.5z
		 M143,222.8h7v7h-7V222.8z M143,230h7v7h-7V230z M143,244.6h7v7h-7V244.6z M143,251.8h7v7h-7V251.8z M150.2,5h7v7h-7V5z
		 M150.2,12.2h7v7h-7V12.2z M150.2,19.5h7v7h-7V19.5z M150.2,26.8h7v7h-7V26.8z M150.2,34h7v7h-7V34z M150.2,48.6h7v7h-7V48.6z
		 M150.2,55.8h7v7h-7V55.8z M150.2,63.1h7v7h-7V63.1z M150.2,70.3h7v7h-7V70.3z M150.2,77.6h7v7h-7V77.6z M150.2,84.9h7v7h-7V84.9z
		 M150.2,92.1h7v7h-7V92.1z M150.2,99.4h7v7h-7V99.4z M150.2,106.6h7v7h-7V106.6z M150.2,113.9h7v7h-7V113.9z M150.2,121.1h7v7h-7
		V121.1z M150.2,128.4h7v7h-7V128.4z M150.2,135.7h7v7h-7V135.7z M150.2,142.9h7v7h-7V142.9z M150.2,150.2h7v7h-7V150.2z
		 M150.2,157.4h7v7h-7V157.4z M150.2,164.7h7v7h-7V164.7z M150.2,172h7v7h-7V172z M150.2,179.2h7v7h-7V179.2z M150.2,186.5h7v7h-7
		V186.5z M150.2,201h7v7h-7V201z M150.2,208.3h7v7h-7V208.3z M150.2,215.5h7v7h-7V215.5z M150.2,244.6h7v7h-7V244.6z M157.5,12.2h7
		v7h-7V12.2z M157.5,19.5h7v7h-7V19.5z M157.5,26.8h7v7h-7V26.8z M157.5,34h7v7h-7V34z M157.5,41.3h7v7h-7V41.3z M157.5,48.6h7v7h-7
		V48.6z M157.5,55.8h7v7h-7V55.8z M157.5,63.1h7v7h-7V63.1z M157.5,70.3h7v7h-7V70.3z M157.5,77.6h7v7h-7V77.6z M157.5,84.9h7v7h-7
		V84.9z M157.5,92.1h7v7h-7V92.1z M157.5,99.4h7v7h-7V99.4z M157.5,106.6h7v7h-7V106.6z M157.5,113.9h7v7h-7V113.9z M157.5,121.1h7
		v7h-7V121.1z M157.5,135.7h7v7h-7V135.7z M157.5,142.9h7v7h-7V142.9z M157.5,150.2h7v7h-7V150.2z M157.5,157.4h7v7h-7V157.4z
		 M157.5,164.7h7v7h-7V164.7z M157.5,172h7v7h-7V172z M157.5,179.2h7v7h-7V179.2z M157.5,193.8h7v7h-7V193.8z M157.5,208.3h7v7h-7
		V208.3z M157.5,237.3h7v7h-7V237.3z M164.7,19.5h7v7h-7V19.5z M164.7,26.8h7v7h-7V26.8z M164.7,34h7v7h-7V34z M164.7,41.3h7v7h-7
		V41.3z M164.7,48.6h7v7h-7V48.6z M164.7,55.8h7v7h-7V55.8z M164.7,63.1h7v7h-7V63.1z M164.7,70.3h7v7h-7V70.3z M164.7,77.6h7v7h-7
		V77.6z M164.7,84.9h7v7h-7V84.9z M164.7,92.1h7v7h-7V92.1z M164.7,99.4h7v7h-7V99.4z M164.7,106.6h7v7h-7V106.6z M164.7,113.9h7v7
		h-7V113.9z M164.7,121.1h7v7h-7V121.1z M164.7,128.4h7v7h-7V128.4z M164.7,135.7h7v7h-7V135.7z M164.7,142.9h7v7h-7V142.9z
		 M164.7,150.2h7v7h-7V150.2z M164.7,157.4h7v7h-7V157.4z M164.7,164.7h7v7h-7V164.7z M164.7,172h7v7h-7V172z M164.7,186.5h7v7h-7
		V186.5z M164.7,193.8h7v7h-7V193.8z M164.7,201h7v7h-7V201z M164.7,237.3h7v7h-7V237.3z M172,19.5h7v7h-7V19.5z M172,26.8h7v7h-7
		V26.8z M172,34h7v7h-7V34z M172,41.3h7v7h-7V41.3z M172,48.6h7v7h-7V48.6z M172,55.8h7v7h-7V55.8z M172,63.1h7v7h-7V63.1z
		 M172,70.3h7v7h-7V70.3z M172,77.6h7v7h-7V77.6z M172,84.9h7v7h-7V84.9z M172,92.1h7v7h-7V92.1z M172,99.4h7v7h-7V99.4z M172,106.6
		h7v7h-7V106.6z M172,113.9h7v7h-7V113.9z M172,121.1h7v7h-7V121.1z M172,135.7h7v7h-7V135.7z M172,142.9h7v7h-7V142.9z M172,150.2
		h7v7h-7V150.2z M172,157.4h7v7h-7V157.4z M172,164.7h7v7h-7V164.7z M172,172h7v7h-7V172z M172,179.2h7v7h-7V179.2z M172,186.5h7v7
		h-7V186.5z M172,193.8h7v7h-7V193.8z M172,237.3h7v7h-7V237.3z M179.3,12.2h7v7h-7V12.2z M179.3,19.5h7v7h-7V19.5z M179.3,26.8h7v7
		h-7V26.8z M179.3,34h7v7h-7V34z M179.3,41.3h7v7h-7V41.3z M179.3,48.6h7v7h-7V48.6z M179.3,55.8h7v7h-7V55.8z M179.3,63.1h7v7h-7
		V63.1z M179.3,70.3h7v7h-7V70.3z M179.3,77.6h7v7h-7V77.6z M179.3,84.9h7v7h-7V84.9z M179.3,92.1h7v7h-7V92.1z M179.3,99.4h7v7h-7
		V99.4z M179.3,106.6h7v7h-7V106.6z M179.3,113.9h7v7h-7V113.9z M179.3,121.1h7v7h-7V121.1z M179.3,128.4h7v7h-7V128.4z
		 M179.3,135.7h7v7h-7V135.7z M179.3,142.9h7v7h-7V142.9z M179.3,150.2h7v7h-7V150.2z M179.3,157.4h7v7h-7V157.4z M179.3,164.7h7v7
		h-7V164.7z M179.3,172h7v7h-7V172z M179.3,179.2h7v7h-7V179.2z M179.3,186.5h7v7h-7V186.5z M179.3,193.8h7v7h-7V193.8z
		 M179.3,237.3h7v7h-7V237.3z M186.5,5h7v7h-7V5z M186.5,12.2h7v7h-7V12.2z M186.5,19.5h7v7h-7V19.5z M186.5,26.8h7v7h-7V26.8z
		 M186.5,34h7v7h-7V34z M186.5,41.3h7v7h-7V41.3z M186.5,48.6h7v7h-7V48.6z M186.5,55.8h7v7h-7V55.8z M186.5,63.1h7v7h-7V63.1z
		 M186.5,70.3h7v7h-7V70.3z M186.5,77.6h7v7h-7V77.6z M186.5,84.9h7v7h-7V84.9z M186.5,92.1h7v7h-7V92.1z M186.5,99.4h7v7h-7V99.4z
		 M186.5,106.6h7v7h-7V106.6z M186.5,113.9h7v7h-7V113.9z M186.5,121.1h7v7h-7V121.1z M186.5,135.7h7v7h-7V135.7z M186.5,186.5h7v7
		h-7V186.5z M186.5,237.3h7v7h-7V237.3z M193.8,5h7v7h-7V5z M193.8,12.2h7v7h-7V12.2z M193.8,19.5h7v7h-7V19.5z M193.8,26.8h7v7h-7
		V26.8z M193.8,34h7v7h-7V34z M193.8,41.3h7v7h-7V41.3z M193.8,48.6h7v7h-7V48.6z M193.8,55.8h7v7h-7V55.8z M193.8,63.1h7v7h-7V63.1
		z M193.8,70.3h7v7h-7V70.3z M193.8,77.6h7v7h-7V77.6z M193.8,84.9h7v7h-7V84.9z M193.8,92.1h7v7h-7V92.1z M193.8,99.4h7v7h-7V99.4z
		 M193.8,106.6h7v7h-7V106.6z M193.8,113.9h7v7h-7V113.9z M193.8,121.1h7v7h-7V121.1z M193.8,128.4h7v7h-7V128.4z M193.8,135.7h7v7
		h-7V135.7z M193.8,150.2h7v7h-7V150.2z M193.8,157.4h7v7h-7V157.4z M193.8,164.7h7v7h-7V164.7z M193.8,172h7v7h-7V172z
		 M193.8,186.5h7v7h-7V186.5z M193.8,237.3h7v7h-7V237.3z M201,5h7v7h-7V5z M201,12.2h7v7h-7V12.2z M201,19.5h7v7h-7V19.5z
		 M201,26.8h7v7h-7V26.8z M201,34h7v7h-7V34z M201,41.3h7v7h-7V41.3z M201,48.6h7v7h-7V48.6z M201,55.8h7v7h-7V55.8z M201,63.1h7v7
		h-7V63.1z M201,70.3h7v7h-7V70.3z M201,77.6h7v7h-7V77.6z M201,84.9h7v7h-7V84.9z M201,92.1h7v7h-7V92.1z M201,99.4h7v7h-7V99.4z
		 M201,106.6h7v7h-7V106.6z M201,113.9h7v7h-7V113.9z M201,121.1h7v7h-7V121.1z M201,135.7h7v7h-7V135.7z M201,150.2h7v7h-7V150.2z
		 M201,172h7v7h-7V172z M201,186.5h7v7h-7V186.5z M201,237.3h7v7h-7V237.3z M201,230h7v7h-7V230z M208.3,222.8h7v7h-7V222.8z
		 M201,215.6h7v7h-7V215.6z M193.8,208.3h7v7h-7V208.3z M186.5,201.1h7v7h-7V201.1z M215.6,215.6h7v7h-7V215.6z M222.9,208.3h7v7h-7
		V208.3z M208.3,5h7v7h-7V5z M208.3,12.2h7v7h-7V12.2z M208.3,19.5h7v7h-7V19.5z M208.3,26.8h7v7h-7V26.8z M208.3,34h7v7h-7V34z
		 M208.3,41.3h7v7h-7V41.3z M208.3,48.6h7v7h-7V48.6z M208.3,55.8h7v7h-7V55.8z M208.3,63.1h7v7h-7V63.1z M208.3,70.3h7v7h-7V70.3z
		 M208.3,77.6h7v7h-7V77.6z M208.3,84.9h7v7h-7V84.9z M208.3,92.1h7v7h-7V92.1z M208.3,99.4h7v7h-7V99.4z M208.3,106.6h7v7h-7V106.6
		z M208.3,113.9h7v7h-7V113.9z M208.3,121.1h7v7h-7V121.1z M208.3,128.4h7v7h-7V128.4z M208.3,135.7h7v7h-7V135.7z M208.3,150.2h7v7
		h-7V150.2z M208.3,172h7v7h-7V172z M208.3,186.5h7v7h-7V186.5z M208.3,237.3h7v7h-7V237.3z M215.6,5h7v7h-7V5z M215.6,12.2h7v7h-7
		V12.2z M215.6,19.5h7v7h-7V19.5z M215.6,26.8h7v7h-7V26.8z M215.6,34h7v7h-7V34z M215.6,41.3h7v7h-7V41.3z M215.6,48.6h7v7h-7V48.6
		z M215.6,55.8h7v7h-7V55.8z M215.6,63.1h7v7h-7V63.1z M215.6,70.3h7v7h-7V70.3z M215.6,77.6h7v7h-7V77.6z M215.6,84.9h7v7h-7V84.9z
		 M215.6,92.1h7v7h-7V92.1z M215.6,99.4h7v7h-7V99.4z M215.6,106.6h7v7h-7V106.6z M215.6,113.9h7v7h-7V113.9z M215.6,121.1h7v7h-7
		V121.1z M215.6,135.7h7v7h-7V135.7z M215.6,150.2h7v7h-7V150.2z M215.6,157.4h7v7h-7V157.4z M215.6,164.7h7v7h-7V164.7z M215.6,172
		h7v7h-7V172z M215.6,186.5h7v7h-7V186.5z M215.6,193.8h7v7h-7V193.8z M215.6,237.3h7v7h-7V237.3z M222.8,5h7v7h-7V5z M222.8,12.2h7
		v7h-7V12.2z M222.8,19.5h7v7h-7V19.5z M222.8,26.8h7v7h-7V26.8z M222.8,34h7v7h-7V34z M222.8,41.3h7v7h-7V41.3z M222.8,48.6h7v7h-7
		V48.6z M222.8,55.8h7v7h-7V55.8z M222.8,63.1h7v7h-7V63.1z M222.8,70.3h7v7h-7V70.3z M222.8,77.6h7v7h-7V77.6z M222.8,84.9h7v7h-7
		V84.9z M222.8,92.1h7v7h-7V92.1z M222.8,99.4h7v7h-7V99.4z M222.8,106.6h7v7h-7V106.6z M222.8,113.9h7v7h-7V113.9z M222.8,121.1h7
		v7h-7V121.1z M222.8,128.4h7v7h-7V128.4z M222.8,135.7h7v7h-7V135.7z M222.8,186.5h7v7h-7V186.5z M222.8,193.8h7v7h-7V193.8z
		 M222.8,237.3h7v7h-7V237.3z M230.1,5h7v7h-7V5z M230.1,12.2h7v7h-7V12.2z M230.1,19.5h7v7h-7V19.5z M230.1,26.8h7v7h-7V26.8z
		 M230.1,34h7v7h-7V34z M230.1,41.3h7v7h-7V41.3z M230.1,48.6h7v7h-7V48.6z M230.1,55.8h7v7h-7V55.8z M230.1,63.1h7v7h-7V63.1z
		 M230.1,70.3h7v7h-7V70.3z M230.1,77.6h7v7h-7V77.6z M230.1,84.9h7v7h-7V84.9z M230.1,92.1h7v7h-7V92.1z M230.1,99.4h7v7h-7V99.4z
		 M230.1,106.6h7v7h-7V106.6z M230.1,113.9h7v7h-7V113.9z M230.1,121.1h7v7h-7V121.1z M230.1,135.7h7v7h-7V135.7z M230.1,142.9h7v7
		h-7V142.9z M230.1,150.2h7v7h-7V150.2z M230.1,157.4h7v7h-7V157.4z M230.1,164.7h7v7h-7V164.7z M230.1,172h7v7h-7V172z
		 M230.1,179.2h7v7h-7V179.2z M230.1,186.5h7v7h-7V186.5z M230.1,193.8h7v7h-7V193.8z M230.1,201h7v7h-7V201z M230.1,237.3h7v7h-7
		V237.3z M237.3,5h7v7h-7V5z M237.3,12.2h7v7h-7V12.2z M237.3,19.5h7v7h-7V19.5z M237.3,26.8h7v7h-7V26.8z M237.3,34h7v7h-7V34z
		 M237.3,41.3h7v7h-7V41.3z M237.3,48.6h7v7h-7V48.6z M237.3,55.8h7v7h-7V55.8z M237.3,63.1h7v7h-7V63.1z M237.3,70.3h7v7h-7V70.3z
		 M237.3,77.6h7v7h-7V77.6z M237.3,84.9h7v7h-7V84.9z M237.3,92.1h7v7h-7V92.1z M237.3,99.4h7v7h-7V99.4z M237.3,106.6h7v7h-7V106.6
		z M237.3,113.9h7v7h-7V113.9z M237.3,121.1h7v7h-7V121.1z M237.3,128.4h7v7h-7V128.4z M237.3,135.7h7v7h-7V135.7z M237.3,142.9h7v7
		h-7V142.9z M237.3,150.2h7v7h-7V150.2z M237.3,157.4h7v7h-7V157.4z M237.3,164.7h7v7h-7V164.7z M237.3,172h7v7h-7V172z
		 M237.3,179.2h7v7h-7V179.2z M237.3,186.5h7v7h-7V186.5z M237.3,193.8h7v7h-7V193.8z M237.3,201h7v7h-7V201z M237.3,237.3h7v7h-7
		V237.3z M244.6,5h7v7h-7V5z M244.6,12.2h7v7h-7V12.2z M244.6,19.5h7v7h-7V19.5z M244.6,26.8h7v7h-7V26.8z M244.6,34h7v7h-7V34z
		 M244.6,41.3h7v7h-7V41.3z M244.6,48.6h7v7h-7V48.6z M244.6,55.8h7v7h-7V55.8z M244.6,63.1h7v7h-7V63.1z M244.6,70.3h7v7h-7V70.3z
		 M244.6,77.6h7v7h-7V77.6z M244.6,84.9h7v7h-7V84.9z M244.6,92.1h7v7h-7V92.1z M244.6,99.4h7v7h-7V99.4z M244.6,106.6h7v7h-7V106.6
		z M244.6,113.9h7v7h-7V113.9z M244.6,121.1h7v7h-7V121.1z M244.6,135.7h7v7h-7V135.7z M244.6,142.9h7v7h-7V142.9z M244.6,150.2h7v7
		h-7V150.2z M244.6,157.4h7v7h-7V157.4z M244.6,164.7h7v7h-7V164.7z M244.6,172h7v7h-7V172z M244.6,179.2h7v7h-7V179.2z
		 M244.6,186.5h7v7h-7V186.5z M244.6,193.8h7v7h-7V193.8z M244.6,201h7v7h-7V201z M244.6,208.3h7v7h-7V208.3z M244.6,237.3h7v7h-7
		V237.3z M251.9,12.2h7v7h-7V12.2z M251.9,19.5h7v7h-7V19.5z M251.9,26.8h7v7h-7V26.8z M251.9,34h7v7h-7V34z M251.9,41.3h7v7h-7
		V41.3z M251.9,48.6h7v7h-7V48.6z M251.9,55.8h7v7h-7V55.8z M251.9,63.1h7v7h-7V63.1z M251.9,70.3h7v7h-7V70.3z M251.9,77.6h7v7h-7
		V77.6z M251.9,84.9h7v7h-7V84.9z M251.9,92.1h7v7h-7V92.1z M251.9,99.4h7v7h-7V99.4z M251.9,106.6h7v7h-7V106.6z M251.9,113.9h7v7
		h-7V113.9z M251.9,121.1h7v7h-7V121.1z M251.9,128.4h7v7h-7V128.4z M251.9,135.7h7v7h-7V135.7z M251.9,142.9h7v7h-7V142.9z
		 M251.9,150.2h7v7h-7V150.2z M251.9,157.4h7v7h-7V157.4z M251.9,164.7h7v7h-7V164.7z M251.9,172h7v7h-7V172z M251.9,179.2h7v7h-7
		V179.2z M251.9,186.5h7v7h-7V186.5z M251.9,193.8h7v7h-7V193.8z M251.9,201h7v7h-7V201z M251.9,208.3h7v7h-7V208.3z M251.9,215.5h7
		v7h-7V215.5z M251.9,237.3h7v7h-7V237.3z M259.1,5h7v7h-7V5z M259.1,12.2h7v7h-7V12.2z M259.1,19.5h7v7h-7V19.5z M259.1,26.8h7v7
		h-7V26.8z M259.1,34h7v7h-7V34z M259.1,41.3h7v7h-7V41.3z M259.1,48.6h7v7h-7V48.6z M259.1,55.8h7v7h-7V55.8z M259.1,63.1h7v7h-7
		V63.1z M259.1,70.3h7v7h-7V70.3z M259.1,77.6h7v7h-7V77.6z M259.1,84.9h7v7h-7V84.9z M259.1,92.1h7v7h-7V92.1z M259.1,99.4h7v7h-7
		V99.4z M259.1,106.6h7v7h-7V106.6z M259.1,113.9h7v7h-7V113.9z M259.1,121.1h7v7h-7V121.1z M259.1,135.7h7v7h-7V135.7z
		 M259.1,142.9h7v7h-7V142.9z M259.1,150.2h7v7h-7V150.2z M259.1,157.4h7v7h-7V157.4z M259.1,164.7h7v7h-7V164.7z M259.1,172h7v7h-7
		V172z M259.1,186.5h7v7h-7V186.5z M259.1,201h7v7h-7V201z M259.1,208.3h7v7h-7V208.3z M259.1,215.5h7v7h-7V215.5z M259.1,244.6h7v7
		h-7V244.6z M266.4,5h7v7h-7V5z M266.4,12.2h7v7h-7V12.2z M266.4,19.5h7v7h-7V19.5z M266.4,26.8h7v7h-7V26.8z M266.4,34h7v7h-7V34z
		 M266.4,48.6h7v7h-7V48.6z M266.4,55.8h7v7h-7V55.8z M266.4,63.1h7v7h-7V63.1z M266.4,70.3h7v7h-7V70.3z M266.4,77.6h7v7h-7V77.6z
		 M266.4,84.9h7v7h-7V84.9z M266.4,92.1h7v7h-7V92.1z M266.4,99.4h7v7h-7V99.4z M266.4,106.6h7v7h-7V106.6z M266.4,113.9h7v7h-7
		V113.9z M266.4,121.1h7v7h-7V121.1z M266.4,128.4h7v7h-7V128.4z M266.4,135.7h7v7h-7V135.7z M266.4,142.9h7v7h-7V142.9z
		 M266.4,150.2h7v7h-7V150.2z M266.4,157.4h7v7h-7V157.4z M266.4,164.7h7v7h-7V164.7z M266.4,172h7v7h-7V172z M266.4,179.2h7v7h-7
		V179.2z M266.4,193.8h7v7h-7V193.8z M266.4,208.3h7v7h-7V208.3z M266.4,222.8h7v7h-7V222.8z M266.4,230h7v7h-7V230z M266.4,237.3h7
		v7h-7V237.3z M266.4,244.6h7v7h-7V244.6z M273.6,5h7v7h-7V5z M273.6,12.2h7v7h-7V12.2z M273.6,19.5h7v7h-7V19.5z M273.6,26.8h7v7
		h-7V26.8z M273.6,41.3h7v7h-7V41.3z M273.6,48.6h7v7h-7V48.6z M273.6,55.8h7v7h-7V55.8z M273.6,63.1h7v7h-7V63.1z M273.6,70.3h7v7
		h-7V70.3z M273.6,77.6h7v7h-7V77.6z M273.6,84.9h7v7h-7V84.9z M273.6,92.1h7v7h-7V92.1z M273.6,99.4h7v7h-7V99.4z M273.6,106.6h7v7
		h-7V106.6z M273.6,113.9h7v7h-7V113.9z M273.6,121.1h7v7h-7V121.1z M273.6,135.7h7v7h-7V135.7z M273.6,142.9h7v7h-7V142.9z
		 M273.6,150.2h7v7h-7V150.2z M273.6,157.4h7v7h-7V157.4z M273.6,164.7h7v7h-7V164.7z M273.6,172h7v7h-7V172z M273.6,179.2h7v7h-7
		V179.2z M273.6,186.5h7v7h-7V186.5z M273.6,193.8h7v7h-7V193.8z M273.6,201h7v7h-7V201z M273.6,215.5h7v7h-7V215.5z M273.6,222.8h7
		v7h-7V222.8z M273.6,230h7v7h-7V230z M273.6,237.3h7v7h-7V237.3z M273.6,244.6h7v7h-7V244.6z M273.6,251.8h7v7h-7V251.8z M280.9,5
		h7v7h-7V5z M280.9,12.2h7v7h-7V12.2z M280.9,19.5h7v7h-7V19.5z M280.9,34h7v7h-7V34z M280.9,48.6h7v7h-7V48.6z M280.9,55.8h7v7h-7
		V55.8z M280.9,63.1h7v7h-7V63.1z M280.9,70.3h7v7h-7V70.3z M280.9,77.6h7v7h-7V77.6z M280.9,84.9h7v7h-7V84.9z M280.9,92.1h7v7h-7
		V92.1z M280.9,99.4h7v7h-7V99.4z M280.9,106.6h7v7h-7V106.6z M280.9,113.9h7v7h-7V113.9z M280.9,121.1h7v7h-7V121.1z M280.9,128.4
		h7v7h-7V128.4z M280.9,135.7h7v7h-7V135.7z M280.9,142.9h7v7h-7V142.9z M280.9,150.2h7v7h-7V150.2z M280.9,157.4h7v7h-7V157.4z
		 M280.9,164.7h7v7h-7V164.7z M280.9,172h7v7h-7V172z M280.9,179.2h7v7h-7V179.2z M280.9,186.5h7v7h-7V186.5z M280.9,193.8h7v7h-7
		V193.8z M280.9,208.3h7v7h-7V208.3z M280.9,215.5h7v7h-7V215.5z M280.9,222.8h7v7h-7V222.8z M280.9,230h7v7h-7V230z M280.9,237.3h7
		v7h-7V237.3z M280.9,244.6h7v7h-7V244.6z M280.9,251.8h7v7h-7V251.8z M288.2,5h7v7h-7V5z M288.2,12.2h7v7h-7V12.2z M288.2,26.8h7v7
		h-7V26.8z M288.2,41.3h7v7h-7V41.3z M288.2,48.6h7v7h-7V48.6z M288.2,55.8h7v7h-7V55.8z M288.2,63.1h7v7h-7V63.1z M288.2,70.3h7v7
		h-7V70.3z M288.2,77.6h7v7h-7V77.6z M288.2,84.9h7v7h-7V84.9z M288.2,92.1h7v7h-7V92.1z M288.2,99.4h7v7h-7V99.4z M288.2,106.6h7v7
		h-7V106.6z M288.2,113.9h7v7h-7V113.9z M288.2,121.1h7v7h-7V121.1z M288.2,135.7h7v7h-7V135.7z M288.2,142.9h7v7h-7V142.9z
		 M288.2,150.2h7v7h-7V150.2z M288.2,157.4h7v7h-7V157.4z M288.2,164.7h7v7h-7V164.7z M288.2,172h7v7h-7V172z M288.2,179.2h7v7h-7
		V179.2z M288.2,186.5h7v7h-7V186.5z M288.2,193.8h7v7h-7V193.8z M288.2,201h7v7h-7V201z M288.2,208.3h7v7h-7V208.3z M288.2,215.5h7
		v7h-7V215.5z M288.2,230h7v7h-7V230z M288.2,237.3h7v7h-7V237.3z M288.2,244.6h7v7h-7V244.6z M288.2,251.8h7v7h-7V251.8z M295.4,5
		h7v7h-7V5z M295.4,12.2h7v7h-7V12.2z M295.4,34h7v7h-7V34z M295.4,48.6h7v7h-7V48.6z M295.4,55.8h7v7h-7V55.8z M295.4,63.1h7v7h-7
		V63.1z M295.4,70.3h7v7h-7V70.3z M295.4,77.6h7v7h-7V77.6z M295.4,84.9h7v7h-7V84.9z M295.4,92.1h7v7h-7V92.1z M295.4,99.4h7v7h-7
		V99.4z M295.4,106.6h7v7h-7V106.6z M295.4,113.9h7v7h-7V113.9z M295.4,128.4h7v7h-7V128.4z M295.4,142.9h7v7h-7V142.9z
		 M295.4,150.2h7v7h-7V150.2z M295.4,157.4h7v7h-7V157.4z M295.4,164.7h7v7h-7V164.7z M295.4,172h7v7h-7V172z M295.4,179.2h7v7h-7
		V179.2z M295.4,186.5h7v7h-7V186.5z M295.4,193.8h7v7h-7V193.8z M295.4,208.3h7v7h-7V208.3z M295.4,215.5h7v7h-7V215.5z
		 M295.4,222.8h7v7h-7V222.8z M295.4,237.3h7v7h-7V237.3z M295.4,244.6h7v7h-7V244.6z M295.4,251.8h7v7h-7V251.8z M302.7,5h7v7h-7V5
		z M302.7,12.2h7v7h-7V12.2z M302.7,41.3h7v7h-7V41.3z M302.7,48.6h7v7h-7V48.6z M302.7,55.8h7v7h-7V55.8z M302.7,63.1h7v7h-7V63.1z
		 M302.7,70.3h7v7h-7V70.3z M302.7,77.6h7v7h-7V77.6z M302.7,84.9h7v7h-7V84.9z M302.7,92.1h7v7h-7V92.1z M302.7,99.4h7v7h-7V99.4z
		 M302.7,106.6h7v7h-7V106.6z M302.7,121.1h7v7h-7V121.1z M302.7,128.4h7v7h-7V128.4z M302.7,135.7h7v7h-7V135.7z M302.7,150.2h7v7
		h-7V150.2z M302.7,157.4h7v7h-7V157.4z M302.7,164.7h7v7h-7V164.7z M302.7,172h7v7h-7V172z M302.7,179.2h7v7h-7V179.2z
		 M302.7,186.5h7v7h-7V186.5z M302.7,193.8h7v7h-7V193.8z M302.7,201h7v7h-7V201z M302.7,208.3h7v7h-7V208.3z M302.7,215.5h7v7h-7
		V215.5z M302.7,230h7v7h-7V230z M302.7,244.6h7v7h-7V244.6z M302.7,251.8h7v7h-7V251.8z M309.9,12.2h7v7h-7V12.2z M309.9,48.6h7v7
		h-7V48.6z M309.9,55.8h7v7h-7V55.8z M309.9,63.1h7v7h-7V63.1z M309.9,70.3h7v7h-7V70.3z M309.9,77.6h7v7h-7V77.6z M309.9,84.9h7v7
		h-7V84.9z M309.9,92.1h7v7h-7V92.1z M309.9,99.4h7v7h-7V99.4z M309.9,113.9h7v7h-7V113.9z M309.9,121.1h7v7h-7V121.1z M309.9,128.4
		h7v7h-7V128.4z M309.9,135.7h7v7h-7V135.7z M309.9,142.9h7v7h-7V142.9z M309.9,157.4h7v7h-7V157.4z M309.9,164.7h7v7h-7V164.7z
		 M309.9,172h7v7h-7V172z M309.9,179.2h7v7h-7V179.2z M309.9,186.5h7v7h-7V186.5z M309.9,193.8h7v7h-7V193.8z M309.9,201h7v7h-7V201
		z M309.9,208.3h7v7h-7V208.3z M309.9,215.5h7v7h-7V215.5z M309.9,222.8h7v7h-7V222.8z M309.9,237.3h7v7h-7V237.3z M309.9,251.8h7v7
		h-7V251.8z M317.2,12.2h7v7h-7V12.2z M317.2,63.1h7v7h-7V63.1z M317.2,70.3h7v7h-7V70.3z M317.2,77.6h7v7h-7V77.6z M317.2,84.9h7v7
		h-7V84.9z M331.8,48.5h7v7h-7V48.5z M324.5,55.8h7v7h-7V55.8z M339,41.2h7v7h-7V41.2z M346.3,34h7v7h-7V34z M346.3,55.8h7v7h-7
		V55.8z M353.6,26.7h7v7h-7V26.7z M353.6,48.5h7v7h-7V48.5z M360.8,19.5h7v7h-7V19.5z M360.8,48.5h7v7h-7V48.5z M360.7,12.2h7v7h-7
		V12.2z M368.1,41.2h7v7h-7V41.2z M375.3,34h7v7h-7V34z M375.3,48.5h7v7h-7V48.5z M382.6,55.8h7v7h-7V55.8z M317.2,92.1h7v7h-7V92.1
		z M317.2,106.6h7v7h-7V106.6z M317.2,113.9h7v7h-7V113.9z M317.2,121.1h7v7h-7V121.1z M317.2,128.4h7v7h-7V128.4z M317.2,135.7h7v7
		h-7V135.7z M317.2,142.9h7v7h-7V142.9z M317.2,150.2h7v7h-7V150.2z M317.2,164.7h7v7h-7V164.7z M317.2,172h7v7h-7V172z
		 M317.2,179.2h7v7h-7V179.2z M317.2,186.5h7v7h-7V186.5z M317.2,193.8h7v7h-7V193.8z M317.2,201h7v7h-7V201z M317.2,208.3h7v7h-7
		V208.3z M317.2,215.5h7v7h-7V215.5z M317.2,230h7v7h-7V230z M317.2,244.6h7v7h-7V244.6z M317.2,251.8h7v7h-7V251.8z M324.5,12.2h7
		v7h-7V12.2z M324.5,70.3h7v7h-7V70.3z M324.5,77.6h7v7h-7V77.6z M324.5,84.9h7v7h-7V84.9z M324.5,99.4h7v7h-7V99.4z M324.5,106.6h7
		v7h-7V106.6z M324.5,113.9h7v7h-7V113.9z M324.5,121.1h7v7h-7V121.1z M324.5,128.4h7v7h-7V128.4z M324.5,135.7h7v7h-7V135.7z
		 M324.5,142.9h7v7h-7V142.9z M324.5,150.2h7v7h-7V150.2z M324.5,157.4h7v7h-7V157.4z M324.5,172h7v7h-7V172z M324.5,179.2h7v7h-7
		V179.2z M324.5,186.5h7v7h-7V186.5z M324.5,193.8h7v7h-7V193.8z M324.5,201h7v7h-7V201z M324.5,208.3h7v7h-7V208.3z M324.5,215.5h7
		v7h-7V215.5z M324.5,222.8h7v7h-7V222.8z M324.5,237.3h7v7h-7V237.3z M324.5,251.8h7v7h-7V251.8z M331.7,5h7v7h-7V5z M331.7,77.6h7
		v7h-7V77.6z M331.7,92.1h7v7h-7V92.1z M331.7,99.4h7v7h-7V99.4z M331.7,106.6h7v7h-7V106.6z M331.7,113.9h7v7h-7V113.9z
		 M331.7,121.1h7v7h-7V121.1z M331.7,128.4h7v7h-7V128.4z M331.7,135.7h7v7h-7V135.7z M331.7,142.9h7v7h-7V142.9z M331.7,150.2h7v7
		h-7V150.2z M331.7,157.4h7v7h-7V157.4z M331.7,164.7h7v7h-7V164.7z M331.7,179.2h7v7h-7V179.2z M331.7,186.5h7v7h-7V186.5z
		 M331.7,193.8h7v7h-7V193.8z M331.7,201h7v7h-7V201z M331.7,208.3h7v7h-7V208.3z M331.7,215.5h7v7h-7V215.5z M331.7,230h7v7h-7V230
		z M331.7,244.6h7v7h-7V244.6z M331.7,251.8h7v7h-7V251.8z M339,5h7v7h-7V5z M339,84.9h7v7h-7V84.9z M339,92.1h7v7h-7V92.1z
		 M339,99.4h7v7h-7V99.4z M339,106.6h7v7h-7V106.6z M339,113.9h7v7h-7V113.9z M339,121.1h7v7h-7V121.1z M339,128.4h7v7h-7V128.4z
		 M339,135.7h7v7h-7V135.7z M339,142.9h7v7h-7V142.9z M339,150.2h7v7h-7V150.2z M339,157.4h7v7h-7V157.4z M339,164.7h7v7h-7V164.7z
		 M339,172h7v7h-7V172z M339,186.5h7v7h-7V186.5z M339,193.8h7v7h-7V193.8z M339,201h7v7h-7V201z M339,208.3h7v7h-7V208.3z
		 M339,215.5h7v7h-7V215.5z M339,222.8h7v7h-7V222.8z M339,237.3h7v7h-7V237.3z M339,251.8h7v7h-7V251.8z M346.2,5h7v7h-7V5z
		 M346.2,84.9h7v7h-7V84.9z M346.2,92.1h7v7h-7V92.1z M346.2,99.4h7v7h-7V99.4z M346.2,106.6h7v7h-7V106.6z M346.2,113.9h7v7h-7
		V113.9z M346.2,121.1h7v7h-7V121.1z M346.2,128.4h7v7h-7V128.4z M346.2,135.7h7v7h-7V135.7z M346.2,142.9h7v7h-7V142.9z
		 M346.2,150.2h7v7h-7V150.2z M346.2,157.4h7v7h-7V157.4z M346.2,164.7h7v7h-7V164.7z M346.2,172h7v7h-7V172z M346.2,179.2h7v7h-7
		V179.2z M346.2,193.8h7v7h-7V193.8z M346.2,201h7v7h-7V201z M346.2,208.3h7v7h-7V208.3z M346.2,215.5h7v7h-7V215.5z M346.2,230h7v7
		h-7V230z M346.2,244.6h7v7h-7V244.6z M353.5,5h7v7h-7V5z M353.5,99.4h7v7h-7V99.4z M353.5,106.6h7v7h-7V106.6z M353.5,113.9h7v7h-7
		V113.9z M353.5,121.1h7v7h-7V121.1z M353.5,128.4h7v7h-7V128.4z M353.5,135.7h7v7h-7V135.7z M353.5,142.9h7v7h-7V142.9z
		 M353.5,150.2h7v7h-7V150.2z M353.5,157.4h7v7h-7V157.4z M353.5,164.7h7v7h-7V164.7z M353.5,172h7v7h-7V172z M353.5,179.2h7v7h-7
		V179.2z M353.5,186.5h7v7h-7V186.5z M353.5,201h7v7h-7V201z M353.5,208.3h7v7h-7V208.3z M353.5,215.5h7v7h-7V215.5z M353.5,222.8h7
		v7h-7V222.8z M353.5,237.3h7v7h-7V237.3z M360.8,5h7v7h-7V5z M360.8,106.6h7v7h-7V106.6z M360.8,113.9h7v7h-7V113.9z M360.8,121.1
		h7v7h-7V121.1z M360.8,128.4h7v7h-7V128.4z M360.8,135.7h7v7h-7V135.7z M360.8,142.9h7v7h-7V142.9z M360.8,150.2h7v7h-7V150.2z
		 M360.8,157.4h7v7h-7V157.4z M360.8,164.7h7v7h-7V164.7z M360.8,172h7v7h-7V172z M360.8,179.2h7v7h-7V179.2z M360.8,186.5h7v7h-7
		V186.5z M360.8,193.8h7v7h-7V193.8z M360.8,208.3h7v7h-7V208.3z M360.8,215.5h7v7h-7V215.5z M360.8,222.8h7v7h-7V222.8z M360.8,230
		h7v7h-7V230z M360.8,244.6h7v7h-7V244.6z M368,5h7v7h-7V5z M382.3,5h7v7h-7V5z M389.6,5h7v7h-7V5z M396.8,5h7v7h-7V5z M368,106.6h7
		v7h-7V106.6z M368,113.9h7v7h-7V113.9z M368,121.1h7v7h-7V121.1z M368,128.4h7v7h-7V128.4z M368,135.7h7v7h-7V135.7z M368,142.9h7
		v7h-7V142.9z M368,150.2h7v7h-7V150.2z M368,157.4h7v7h-7V157.4z M368,164.7h7v7h-7V164.7z M368,172h7v7h-7V172z M368,179.2h7v7h-7
		V179.2z M368,186.5h7v7h-7V186.5z M368,193.8h7v7h-7V193.8z M368,201h7v7h-7V201z M368,215.5h7v7h-7V215.5z M368,222.8h7v7h-7
		V222.8z M368,230h7v7h-7V230z M368,237.3h7v7h-7V237.3z M375.3,12.2h7v7h-7V12.2z M375.3,106.6h7v7h-7V106.6z M375.3,121.1h7v7h-7
		V121.1z M375.3,135.7h7v7h-7V135.7z M375.3,150.2h7v7h-7V150.2z M375.3,157.4h7v7h-7V157.4z M375.3,164.7h7v7h-7V164.7z M375.3,172
		h7v7h-7V172z M375.3,179.2h7v7h-7V179.2z M375.3,186.5h7v7h-7V186.5z M375.3,193.8h7v7h-7V193.8z M375.3,201h7v7h-7V201z
		 M375.3,208.3h7v7h-7V208.3z M375.3,222.8h7v7h-7V222.8z M375.3,230h7v7h-7V230z M375.3,237.3h7v7h-7V237.3z M375.3,244.6h7v7h-7
		V244.6z M382.5,19.5h7v7h-7V19.5z M404.1,5h7v7h-7V5z M382.5,26.8h7v7h-7V26.8z M404.1,12.2h7v7h-7V12.2z M404.1,19.4h7v7h-7V19.4z
		 M404.1,26.6h7v7h-7V26.6z M382.5,113.9h7v7h-7V113.9z M382.5,128.4h7v7h-7V128.4z M382.5,142.9h7v7h-7V142.9z M382.5,157.4h7v7h-7
		V157.4z M382.5,164.7h7v7h-7V164.7z M382.5,172h7v7h-7V172z M382.5,179.2h7v7h-7V179.2z M382.5,186.5h7v7h-7V186.5z M382.5,193.8h7
		v7h-7V193.8z M382.5,201h7v7h-7V201z M382.5,208.3h7v7h-7V208.3z M382.5,215.5h7v7h-7V215.5z M382.5,230h7v7h-7V230z M382.5,237.3
		h7v7h-7V237.3z M382.5,244.6h7v7h-7V244.6z M382.5,251.8h7v7h-7V251.8z M389.8,34h7v7h-7V34z M389.8,41.3h7v7h-7V41.3z
		 M389.8,121.1h7v7h-7V121.1z M389.8,135.7h7v7h-7V135.7z M389.8,150.2h7v7h-7V150.2z M389.8,164.7h7v7h-7V164.7z M389.8,172h7v7h-7
		V172z M389.8,179.2h7v7h-7V179.2z M389.8,186.5h7v7h-7V186.5z M389.8,193.8h7v7h-7V193.8z M389.8,201h7v7h-7V201z M389.8,208.3h7v7
		h-7V208.3z M389.8,215.5h7v7h-7V215.5z M389.8,222.8h7v7h-7V222.8z M389.8,237.3h7v7h-7V237.3z M389.8,244.6h7v7h-7V244.6z
		 M389.8,251.8h7v7h-7V251.8z M397.1,48.6h7v7h-7V48.6z M397.1,55.8h7v7h-7V55.8z M404.1,33.8h7v7h-7V33.8z M404.1,41h7v7h-7V41z
		 M397.1,63.1h7v7h-7V63.1z M397.1,70.3h7v7h-7V70.3z M397.1,128.4h7v7h-7V128.4z M397.1,142.9h7v7h-7V142.9z M397.1,157.4h7v7h-7
		V157.4z M397.1,172h7v7h-7V172z M397.1,179.2h7v7h-7V179.2z M397.1,186.5h7v7h-7V186.5z M397.1,193.8h7v7h-7V193.8z M397.1,201h7v7
		h-7V201z M397.1,208.3h7v7h-7V208.3z M397.1,215.5h7v7h-7V215.5z M397.1,222.8h7v7h-7V222.8z M397.1,230h7v7h-7V230z M397.1,244.6
		h7v7h-7V244.6z M397.1,251.8h7v7h-7V251.8z M404.3,77.6h7v7h-7V77.6z M404.3,84.9h7v7h-7V84.9z M404.3,92.1h7v7h-7V92.1z
		 M404.3,99.4h7v7h-7V99.4z M404.3,106.6h7v7h-7V106.6z M404.3,113.9h7v7h-7V113.9z M404.3,121.1h7v7h-7V121.1z M404.3,128.4h7v7h-7
		V128.4z M404.3,135.7h7v7h-7V135.7z M404.3,142.9h7v7h-7V142.9z M404.3,150.2h7v7h-7V150.2z M404.3,157.4h7v7h-7V157.4z
		 M404.3,164.7h7v7h-7V164.7z M404.3,172h7v7h-7V172z M404.3,179.2h7v7h-7V179.2z M404.3,186.5h7v7h-7V186.5z M404.3,201h7v7h-7V201
		z M404.3,208.3h7v7h-7V208.3z M404.3,215.5h7v7h-7V215.5z M404.3,222.8h7v7h-7V222.8z M404.3,230h7v7h-7V230z M404.3,237.3h7v7h-7
		V237.3z M404.3,251.8h7v7h-7V251.8z M411.6,92.1h7v7h-7V92.1z M411.6,99.4h7v7h-7V99.4z M411.6,106.6h7v7h-7V106.6z M411.6,113.9h7
		v7h-7V113.9z M411.6,121.1h7v7h-7V121.1z M411.6,135.7h7v7h-7V135.7z M411.6,142.9h7v7h-7V142.9z M411.6,150.2h7v7h-7V150.2z
		 M411.6,157.4h7v7h-7V157.4z M411.6,164.7h7v7h-7V164.7z M411.6,172h7v7h-7V172z M411.6,179.2h7v7h-7V179.2z M411.6,208.3h7v7h-7
		V208.3z M411.6,215.5h7v7h-7V215.5z M411.6,222.8h7v7h-7V222.8z M411.6,230h7v7h-7V230z M411.6,237.3h7v7h-7V237.3z M411.6,244.6h7
		v7h-7V244.6z M411.6,251.8h7v7h-7V251.8z"/>
</g>
</svg>
