<?xml version="1.0" encoding="utf-8"?>
<!-- Generator: Adobe Illustrator 27.3.1, SVG Export Plug-In . SVG Version: 6.00 Build 0)  -->
<svg version="1.1" id="Слой_1" xmlns="http://www.w3.org/2000/svg" xmlns:xlink="http://www.w3.org/1999/xlink" x="0px" y="0px"
	 viewBox="0 0 1321 58" style="enable-background:new 0 0 1321 58;" xml:space="preserve">
<style type="text/css">
	.st0{fill:url(#SVGID_1_);}
	.st1{fill:#1E0E01;}
</style>
<g id="Слой_2_00000160888078012377297970000015610287114806181563_">
	
		<linearGradient id="SVGID_1_" gradientUnits="userSpaceOnUse" x1="660.5" y1="425.975" x2="660.5" y2="368" gradientTransform="matrix(1 0 0 1 0 -368)">
		<stop  offset="3.351955e-02" style="stop-color:#F9EACA"/>
		<stop  offset="1" style="stop-color:#F7D276"/>
	</linearGradient>
	<polygon class="st0" points="0,0 1321,0 1321,58 0,58 	"/>
</g>
<path class="st1" d="M0,0h7v7H0C0,7,0,0,0,0z M0,7.2h7v7H0C0,14.2,0,7.2,0,7.2z M0,14.5h7v7H0C0,21.5,0,14.5,0,14.5z M0,21.8h7v7H0
	C0,28.8,0,21.8,0,21.8z M0,29.2h7v7H0C0,36.2,0,29.2,0,29.2z M0,36.5h7v7H0C0,43.5,0,36.5,0,36.5z M0,43.7h7v7H0
	C0,50.7,0,43.7,0,43.7z M0,51h7v7H0C0,58,0,51,0,51z M7.3,0h7v7h-7V0z M7.3,51h7v7h-7V51z M14.5,0h7v7h-7V0z M14.5,51h7v7h-7V51z
	 M21.8,0h7v7h-7V0z M21.8,51h7v7h-7V51z M29.1,0h7v7h-7V0z M29.1,51h7v7h-7V51z M36.3,0h7v7h-7V0z M36.3,51h7v7h-7V51z M43.6,0h7v7
	h-7V0z M43.6,51h7v7h-7V51z M50.8,0h7v7h-7V0z M50.8,51h7v7h-7V51z M58.1,0h7v7h-7V0z M58.1,51h7v7h-7V51z M65.4,0h7v7h-7V0z
	 M65.4,51h7v7h-7V51z M72.6,0h7v7h-7V0z M72.6,51h7v7h-7V51z M79.9,0h7v7h-7V0z M79.9,51h7v7h-7V51z M87.1,0h7v7h-7V0z M87.1,51h7v7
	h-7V51z M94.4,0h7v7h-7V0z M94.4,51h7v7h-7V51z M101.7,0h7v7h-7V0z M101.7,51h7v7h-7V51z M108.9,0h7v7h-7V0z M108.9,51h7v7h-7V51z
	 M116.2,0h7v7h-7V0z M116.2,51h7v7h-7V51z M123.4,0h7v7h-7V0z M123.4,51h7v7h-7V51z M130.7,0h7v7h-7V0z M130.7,51h7v7h-7V51z M138,0
	h7v7h-7V0z M138,51h7v7h-7V51z M145.2,0h7v7h-7V0z M145.2,51h7v7h-7V51z M152.5,0h7v7h-7V0z M152.5,51h7v7h-7V51z M159.7,0h7v7h-7V0
	z M159.7,51h7v7h-7V51z M167,0h7v7h-7V0z M167,51h7v7h-7V51z M174.3,0h7v7h-7V0z M174.3,51h7v7h-7V51z M181.5,0h7v7h-7V0z M181.5,51
	h7v7h-7V51z M188.8,0h7v7h-7V0z M188.8,51h7v7h-7V51z M196,0h7v7h-7V0z M196,51h7v7h-7V51z M203.3,0h7v7h-7V0z M203.3,51h7v7h-7V51z
	 M210.6,0h7v7h-7V0z M210.6,51h7v7h-7V51z M217.8,0h7v7h-7V0z M217.8,51h7v7h-7V51z M225.1,0h7v7h-7V0z M225.1,51h7v7h-7V51z
	 M232.3,0h7v7h-7V0z M232.3,51h7v7h-7V51z M239.6,0h7v7h-7V0z M239.6,51h7v7h-7V51z M246.9,0h7v7h-7V0z M246.9,51h7v7h-7V51z
	 M254.1,0h7v7h-7V0z M254.1,51h7v7h-7V51z M261.4,0h7v7h-7V0z M261.4,51h7v7h-7V51z M268.6,0h7v7h-7V0z M268.6,51h7v7h-7V51z
	 M275.9,0h7v7h-7V0z M275.9,51h7v7h-7V51z M283.2,0h7v7h-7V0z M283.2,51h7v7h-7V51z M290.4,0h7v7h-7V0z M290.4,51h7v7h-7V51z
	 M297.7,0h7v7h-7V0z M297.7,51h7v7h-7V51z M304.9,0h7v7h-7V0z M304.9,51h7v7h-7V51z M312.2,0h7v7h-7V0z M312.2,51h7v7h-7V51z
	 M319.5,0h7v7h-7V0z M319.5,51h7v7h-7V51z M326.7,0h7v7h-7V0z M326.7,51h7v7h-7V51z M334,0h7v7h-7V0z M334,51h7v7h-7V51z M341.2,0h7
	v7h-7V0z M341.2,51h7v7h-7V51z M348.5,0h7v7h-7V0z M348.5,51h7v7h-7V51z M355.8,0h7v7h-7V0z M355.8,51h7v7h-7V51z M363,0h7v7h-7V0z
	 M363,51h7v7h-7V51z M370.3,0h7v7h-7V0z M370.3,51h7v7h-7V51z M377.5,0h7v7h-7V0z M377.5,51h7v7h-7V51z M384.8,0h7v7h-7V0z
	 M384.8,51h7v7h-7V51z M392.1,0h7v7h-7V0z M392.1,51h7v7h-7V51z M399.3,0h7v7h-7V0z M399.3,51h7v7h-7V51z M406.6,0h7v7h-7V0z
	 M406.6,51h7v7h-7V51z M413.8,0h7v7h-7V0z M413.8,51h7v7h-7V51z M421.1,0h7v7h-7V0z M421.1,51h7v7h-7V51z M428.4,0h7v7h-7V0z
	 M428.4,51h7v7h-7V51z M435.6,0h7v7h-7V0z M435.6,51h7v7h-7V51z M442.9,0h7v7h-7V0z M442.9,51h7v7h-7V51z M450.1,0h7v7h-7V0z
	 M450.1,51h7v7h-7V51z M457.4,0h7v7h-7V0z M457.4,51h7v7h-7V51z M464.7,0h7v7h-7V0z M464.7,51h7v7h-7V51z M471.9,0h7v7h-7V0z
	 M471.9,51h7v7h-7V51z M479.2,0h7v7h-7V0z M479.2,51h7v7h-7V51z M486.4,0h7v7h-7V0z M486.4,51h7v7h-7V51z M493.7,0h7v7h-7V0z
	 M493.7,51h7v7h-7V51z M501,0h7v7h-7V0z M501,51h7v7h-7V51z M508.2,0h7v7h-7L508.2,0L508.2,0z M508.2,51h7v7h-7L508.2,51L508.2,51z
	 M515.5,0h7v7h-7V0z M515.5,51h7v7h-7V51z M522.7,0h7v7h-7V0z M522.7,51h7v7h-7V51z M530,0h7v7h-7V0z M530,51h7v7h-7V51z M537.3,0h7
	v7h-7V0z M537.3,51h7v7h-7V51z M544.5,0h7v7h-7V0z M544.5,51h7v7h-7V51z M551.8,0h7v7h-7V0z M551.8,51h7v7h-7V51z M559,0h7v7h-7V0z
	 M559,51h7v7h-7V51z M566.3,0h7v7h-7V0z M566.3,51h7v7h-7V51z M573.6,0h7v7h-7V0z M573.6,51h7v7h-7V51z M580.8,0h7v7h-7V0z
	 M580.8,51h7v7h-7V51z M588.1,0h7v7h-7V0z M588.1,51h7v7h-7V51z M595.3,0h7v7h-7V0z M595.3,51h7v7h-7V51z M602.6,0h7v7h-7V0z
	 M602.6,51h7v7h-7V51z M609.9,0h7v7h-7V0z M609.9,51h7v7h-7V51z M617.1,0h7v7h-7V0z M617.1,51h7v7h-7V51z M624.3,0h7v7h-7V0z
	 M624.3,51h7v7h-7V51z M631.7,0h7v7h-7V0z M631.7,51h7v7h-7V51z M638.9,0h7v7h-7V0z M638.9,51h7v7h-7V51z M646.2,0h7v7h-7V0z
	 M646.2,51h7v7h-7V51z M653.3,0h7v7h-7V0z M653.3,51h7v7h-7V51z M660.7,0h7v7h-7V0z M660.7,51h7v7h-7V51z M668,0h7v7h-7V0z M668,51
	h7v7h-7V51z M675.2,0h7v7h-7V0z M675.2,51h7v7h-7V51z M682.5,0h7v7h-7V0z M682.5,51h7v7h-7V51z M689.7,0h7v7h-7V0z M689.7,51h7v7h-7
	V51z M697,0h7v7h-7V0z M697,51h7v7h-7V51z M704.3,0h7v7h-7V0z M704.3,51h7v7h-7V51z M711.5,0h7v7h-7V0z M711.5,51h7v7h-7V51z
	 M718.8,0h7v7h-7V0z M718.8,51h7v7h-7V51z M726,0h7v7h-7V0z M726,51h7v7h-7V51z M733.3,0h7v7h-7V0z M733.3,51h7v7h-7V51z M740.6,0h7
	v7h-7V0z M740.6,51h7v7h-7V51z M747.8,0h7v7h-7V0z M747.8,51h7v7h-7V51z M755.1,0h7v7h-7V0z M755.1,51h7v7h-7V51z M762.3,0h7v7h-7V0
	z M762.3,51h7v7h-7V51z M769.6,0h7v7h-7V0z M769.6,51h7v7h-7V51z M776.9,0h7v7h-7V0z M776.9,51h7v7h-7V51z M784.1,0h7v7h-7V0z
	 M784.1,51h7v7h-7V51z M791.3,0h7v7h-7V0z M791.3,51h7v7h-7V51z M798.6,0h7v7h-7V0z M798.6,51h7v7h-7V51z M805.9,0h7v7h-7V0z
	 M805.9,51h7v7h-7V51z M813.2,0h7v7h-7V0z M813.2,51h7v7h-7V51z M820.3,0h7v7h-7V0z M820.3,51h7v7h-7V51z M827.7,0h7v7h-7V0z
	 M827.7,51h7v7h-7V51z M834.9,0h7v7h-7V0z M834.9,51h7v7h-7V51z M842.2,0h7v7h-7V0z M842.2,51h7v7h-7V51z M849.5,0h7v7h-7V0z
	 M849.5,51h7v7h-7V51z M856.7,0h7v7h-7V0z M856.7,51h7v7h-7V51z M864,0h7v7h-7V0z M864,51h7v7h-7V51z M871.2,0h7v7h-7V0z M871.2,51
	h7v7h-7V51z M878.5,0h7v7h-7V0z M878.5,51h7v7h-7V51z M885.8,0h7v7h-7V0z M885.8,51h7v7h-7V51z M893,0h7v7h-7V0z M893,51h7v7h-7V51z
	 M900.3,0h7v7h-7V0z M900.3,51h7v7h-7V51z M907.5,0h7v7h-7V0z M907.5,51h7v7h-7V51z M914.8,0h7v7h-7V0z M914.8,51h7v7h-7V51z
	 M922.1,0h7v7h-7V0z M922.1,51h7v7h-7V51z M929.3,0h7v7h-7V0z M929.3,51h7v7h-7V51z M936.6,0h7v7h-7V0z M936.6,51h7v7h-7V51z
	 M943.8,0h7v7h-7V0z M943.8,51h7v7h-7V51z M951.1,0h7v7h-7V0z M951.1,51h7v7h-7V51z M958.4,0h7v7h-7V0z M958.4,51h7v7h-7V51z
	 M965.6,0h7v7h-7V0z M965.6,51h7v7h-7V51z M972.9,0h7v7h-7V0z M972.9,51h7v7h-7V51z M980.1,0h7v7h-7V0z M980.1,51h7v7h-7V51z
	 M987.4,0h7v7h-7V0z M987.4,51h7v7h-7V51z M994.7,0h7v7h-7V0z M994.7,51h7v7h-7V51z M1001.9,0h7v7h-7V0z M1001.9,51h7v7h-7V51z
	 M1009.2,0h7v7h-7V0z M1009.2,51h7v7h-7V51z M1016.4,0h7v7h-7V0z M1016.4,51h7v7h-7V51z M1023.7,0h7v7h-7V0z M1023.7,51h7v7h-7V51z
	 M1030.9,0h7v7h-7V0z M1030.9,51h7v7h-7V51z M1038.2,0h7v7h-7V0z M1038.2,51h7v7h-7V51z M1045.4,0h7v7h-7V0z M1045.4,51h7v7h-7V51z
	 M1052.7,0h7v7h-7V0z M1052.7,51h7v7h-7V51z M1059.9,0h7v7h-7V0z M1059.9,51h7v7h-7V51z M1067.3,0h7v7h-7V0z M1067.3,51h7v7h-7V51z
	 M1074.4,0h7v7h-7V0z M1074.4,51h7v7h-7V51z M1081.8,0h7v7h-7V0z M1081.8,51h7v7h-7V51z M1088.9,0h7v7h-7V0z M1088.9,51h7v7h-7V51z
	 M1096.3,0h7v7h-7V0z M1096.3,51h7v7h-7V51z M1103.5,0h7v7h-7V0z M1103.5,51h7v7h-7V51z M1110.8,0h7v7h-7V0z M1110.8,51h7v7h-7V51z
	 M1118,0h7v7h-7V0z M1118,51h7v7h-7V51z M1125.3,0h7v7h-7V0z M1125.3,51h7v7h-7V51z M1132.5,0h7v7h-7V0z M1132.5,51h7v7h-7V51z
	 M1139.9,0h7v7h-7V0z M1139.9,51h7v7h-7V51z M1147,0h7v7h-7V0z M1147,51h7v7h-7V51z M1154.3,0h7v7h-7V0z M1154.3,51h7v7h-7V51z
	 M1161.5,0h7v7h-7V0z M1161.5,51h7v7h-7V51z M1168.9,0h7v7h-7V0z M1168.9,51h7v7h-7V51z M1176.2,0h7v7h-7V0z M1176.2,51h7v7h-7V51z
	 M1183.3,0h7v7h-7V0z M1183.3,51h7v7h-7V51z M1190.7,0h7v7h-7V0z M1190.7,51h7v7h-7V51z M1197.9,0h7v7h-7V0z M1197.9,51h7v7h-7V51z
	 M1205.2,0h7v7h-7V0z M1205.2,51h7v7h-7V51z M1212.4,0h7v7h-7V0z M1212.4,51h7v7h-7V51z M1219.7,0h7v7h-7V0z M1219.7,51h7v7h-7V51z
	 M1226.9,0h7v7h-7V0z M1226.9,51h7v7h-7V51z M1234.2,0h7v7h-7V0z M1234.2,51h7v7h-7V51z M1241.4,0h7v7h-7V0z M1241.4,51h7v7h-7V51z
	 M1248.8,0h7v7h-7V0z M1248.8,51h7v7h-7V51z M1255.9,0h7v7h-7V0z M1255.9,51h7v7h-7V51z M1263.3,0h7v7h-7V0z M1263.3,51h7v7h-7V51z
	 M1270.4,0h7v7h-7V0z M1270.4,51h7v7h-7V51z M1277.8,0h7v7h-7V0z M1277.8,51h7v7h-7V51z M1285,0h7v7h-7V0z M1285,51h7v7h-7V51z
	 M1292.3,0h7v7h-7V0z M1292.3,51h7v7h-7V51z M1299.5,0h7v7h-7V0z M1299.5,51h7v7h-7V51z M1306.8,0h7v7h-7V0z M1306.8,51h7v7h-7V51z
	 M1314,0h7v7h-7V0z M1314,7.2h7v7h-7V7.2z M1314,14.5h7v7h-7V14.5z M1314,21.8h7v7h-7V21.8z M1314,29.2h7v7h-7V29.2z M1314,36.5h7v7
	h-7V36.5z M1314,43.8h7v7h-7V43.8z M1314,51h7v7h-7V51z"/>
</svg>
