<?xml version="1.0" encoding="utf-8"?>
<!-- Generator: Adobe Illustrator 27.3.1, SVG Export Plug-In . SVG Version: 6.00 Build 0)  -->
<svg version="1.1" id="Слой_1" xmlns="http://www.w3.org/2000/svg" xmlns:xlink="http://www.w3.org/1999/xlink" x="0px" y="0px"
	 viewBox="0 0 79.6 72.3" style="enable-background:new 0 0 79.6 72.3;" xml:space="preserve">
<style type="text/css">
	.st0{fill:#1E0E01;}
</style>
<path class="st0" d="M7.3,0h7v7h-7V0z M14.5,0h7v7h-7V0z M21.8,0h7v7h-7V0z M29.1,0h7v7h-7V0z M36.3,0h7v7h-7V0z M36.3,7.2h7v7h-7
	V7.2z M43.6,0h7v7h-7V0z M50.8,0h7v7h-7V0z M0,7.3h7v7H0V7.3z M0,14.5h7v7H0V14.5z M0,21.8h7v7H0V21.8z M0,29.1h7v7H0V29.1z M0,36.3
	h7v7H0V36.3z M0,43.6h7v7H0V43.6z M0,50.8h7v7H0V50.8z M0,58.1h7v7H0V58.1z M14.5,29h7v7h-7V29z M14.5,36.3h7v7h-7V36.3z M14.5,50.8
	h7v7h-7V50.8z M14.5,58h7v7h-7V58z M21.8,21.7h7v7h-7V21.7z M21.8,29h7v7h-7V29z M21.8,43.5h7v7h-7V43.5z M21.8,50.8h7v7h-7V50.8z
	 M29.1,14.5h7v7h-7V14.5z M29.1,21.7h7v7h-7V21.7z M29.1,36.3h7v7h-7V36.3z M29.1,43.5h7v7h-7V43.5z M36.3,14.5h7v7h-7V14.5z
	 M36.3,29h7v7h-7V29z M36.3,36.3h7v7h-7V36.3z M43.6,14.5h7v7h-7V14.5z M43.6,21.7h7v7h-7V21.7z M43.6,36.3h7v7h-7V36.3z M43.6,43.5
	h7v7h-7V43.5z M50.8,21.7h7v7h-7V21.7z M50.8,29h7v7h-7V29z M50.8,43.5h7v7h-7V43.5z M50.8,50.8h7v7h-7V50.8z M58.1,0h7v7h-7V0z
	 M65.4,0h7v7h-7V0z M58.1,29h7v7h-7V29z M58.1,36.3h7v7h-7V36.3z M58.1,50.8h7v7h-7V50.8z M58.1,58h7v7h-7V58z M72.6,7.3h7v7h-7V7.3
	z M72.6,14.5h7v7h-7V14.5z M72.6,21.8h7v7h-7V21.8z M72.6,29.1h7v7h-7V29.1z M72.6,36.3h7v7h-7V36.3z M72.6,43.6h7v7h-7V43.6z
	 M72.6,50.8h7v7h-7V50.8z M72.6,58.1h7v7h-7V58.1z M7.3,65.3h7v7h-7V65.3z M14.5,65.3h7v7h-7V65.3z M21.8,65.3h7v7h-7V65.3z
	 M29.1,65.3h7v7h-7V65.3z M36.3,65.3h7v7h-7V65.3z M43.6,65.3h7v7h-7V65.3z M50.8,65.3h7v7h-7V65.3z M58.1,65.3h7v7h-7V65.3z
	 M65.4,65.3h7v7h-7V65.3z"/>
</svg>
