<?xml version="1.0" encoding="utf-8"?>
<!-- Generator: Adobe Illustrator 27.3.1, SVG Export Plug-In . SVG Version: 6.00 Build 0)  -->
<svg version="1.1" xmlns="http://www.w3.org/2000/svg" xmlns:xlink="http://www.w3.org/1999/xlink" x="0px" y="0px"
	 viewBox="0 0 79.6 79.6" style="enable-background:new 0 0 79.6 79.6;" xml:space="preserve">
<style type="text/css">
	.st0{fill:#FCE19B;}
	.st1{fill:#1E0E01;}
</style>
<g id="Слой_2">
	<path class="st0" d="M84.6,7.3c0-2.8-2.2-5-5-5h-2.2V0c0-2.8-2.2-5-5-5h-7c0,0-0.1,0-0.2,0c0,0-0.1,0-0.2,0h-7c0,0-0.1,0-0.2,0
		c0,0-0.1,0-0.1,0h-7c-0.1,0-0.1,0-0.2,0h-7c0,0-0.1,0-0.2,0c0,0-0.1,0-0.1,0h-7c-0.1,0-0.1,0-0.2,0h-7C29-5,29-5,28.9-5
		c0,0-0.1,0-0.1,0h-7c-0.1,0-0.1,0-0.1,0c0,0-0.1,0-0.1,0h-7c-0.1,0-0.1,0-0.2,0h-7c-2.8,0-5,2.2-5,5v2.3H0c-2.8,0-5,2.2-5,5v7
		c0,0.1,0,0.1,0,0.1c0,0,0,0.1,0,0.1v7c0,0,0,0.1,0,0.1c0,0,0,0.1,0,0.1v7c0,0.1,0,0.1,0,0.1c0,0,0,0.1,0,0.1v7c0,0.1,0,0.1,0,0.1
		c0,0.1,0,0.1,0,0.2v7c0,0,0,0.1,0,0.1c0,0,0,0.1,0,0.1v7c0,0,0,0.1,0,0.1c0,0.1,0,0.1,0,0.2v7c0,0,0,0.1,0,0.1c0,0,0,0.1,0,0.1v7
		c0,0,0,0.1,0,0.1c0,0.1,0,0.1,0,0.2v7c0,2.8,2.2,5,5,5h2.3v2.2c0,2.8,2.2,5,5,5h7c0.1,0,0.1,0,0.2,0h7c0.1,0,0.2,0,0.3,0h7
		c0.1,0,0.2,0,0.3,0h7c0.1,0,0.1,0,0.2,0h7c0.1,0,0.2,0,0.3,0h7c0.1,0,0.1,0,0.2,0h7c0.1,0,0.2,0,0.3,0h7c0.1,0,0.2,0,0.3,0h7
		c2.8,0,5-2.2,5-5v-2.2h2.2c2.8,0,5-2.2,5-5v-7c0,0,0-0.1,0-0.2c0,0,0-0.1,0-0.1v-7c0,0,0-0.1,0-0.1c0,0,0-0.1,0-0.1v-7
		c0,0,0-0.1,0-0.2c0,0,0-0.1,0-0.1v-7c0,0,0-0.1,0-0.1c0,0,0-0.1,0-0.1v-7c0-0.1,0-0.1,0-0.2c0,0,0-0.1,0-0.1v-7c0-0.1,0-0.1,0-0.1
		c0,0,0-0.1,0-0.1v-7c0,0,0-0.1,0-0.1c0,0,0-0.1,0-0.1v-7c0-0.1,0-0.1,0-0.1c0,0,0-0.1,0-0.1V7.3z"/>
</g>
<g id="Слой_1">
	<path class="st1" d="M0,14.6h7v7H0V14.6z M0,21.8h7v7H0V21.8z M0,29.1h7v7H0V29.1z M0,36.4h7v7H0V36.4z M0,43.6h7v7H0V43.6z
		 M0,50.9h7v7H0V50.9z M0,58.1h7v7H0V58.1z M0,65.4h7v7H0V65.4z M72.6,14.6h7v7h-7V14.6z M7.3,0h7v7h-7V0z M14.5,0h7v7h-7V0z
		 M21.8,0h7v7h-7V0z M29.1,0h7v7h-7C29.1,7,29.1,0,29.1,0z M36.3,0h7v7h-7V0z M43.6,0h7v7h-7V0z M50.8,0h7v7h-7V0z M0,7.3h7v7H0V7.3
		z M14.5,29.1h7v7h-7V29.1z M14.5,36.4h7v7h-7V36.4z M14.5,58.2h7v7h-7V58.2z M14.5,65.4h7v7h-7V65.4z M21.8,21.8h7v7h-7V21.8z
		 M21.8,29.1h7v7h-7V29.1z M21.8,50.9h7v7h-7V50.9z M21.8,58.2h7v7h-7V58.2z M29,14.6h7v7h-7V14.6z M29,21.8h7v7h-7V21.8z M29,43.7
		h7v7h-7V43.7z M29,50.9h7v7h-7V50.9z M36.3,14.6h7v7h-7V14.6z M36.3,36.4h7v7h-7V36.4z M36.3,43.7h7v7h-7V43.7z M36.3,7.3h7v7h-7
		V7.3z M43.6,14.6h7v7h-7V14.6z M43.6,21.8h7v7h-7V21.8z M43.5,43.7h7v7h-7V43.7z M43.5,50.9h7v7h-7V50.9z M50.8,21.8h7v7h-7V21.8z
		 M50.8,29.1h7v7h-7V29.1z M50.8,50.9h7v7h-7V50.9z M50.8,58.2h7v7h-7V58.2z M58.1,29.1h7v7h-7V29.1z M58.1,36.4h7v7h-7V36.4z
		 M58.1,58.2h7v7h-7V58.2z M58.1,65.4h7v7h-7V65.4z M58.1,0h7v7h-7V0z M65.4,0h7v7h-7V0z M72.6,7.3h7v7h-7V7.3z M72.6,21.8h7v7h-7
		V21.8z M72.6,29.1h7v7h-7V29.1z M72.6,36.4h7v7h-7V36.4z M72.6,43.6h7v7h-7V43.6z M72.6,50.9h7v7h-7V50.9z M72.6,58.1h7v7h-7V58.1z
		 M72.6,65.4h7v7h-7V65.4z M7.3,72.6h7v7h-7V72.6z M14.5,72.6h7v7h-7V72.6z M21.8,72.6h7v7h-7V72.6z M29.1,72.6h7v7h-7
		C29.1,79.6,29.1,72.6,29.1,72.6z M36.3,72.6h7v7h-7V72.6z M43.6,72.6h7v7h-7V72.6z M50.8,72.6h7v7h-7V72.6z M58.1,72.6h7v7h-7V72.6
		z M65.4,72.6h7v7h-7V72.6z"/>
	<path class="st1" d="M0,14.6h7v7H0V14.6z M0,21.8h7v7H0V21.8z M0,29.1h7v7H0V29.1z M0,36.4h7v7H0V36.4z M0,43.6h7v7H0V43.6z
		 M0,50.9h7v7H0V50.9z M0,58.1h7v7H0V58.1z M0,65.4h7v7H0V65.4z M72.6,14.6h7v7h-7V14.6z M7.3,0h7v7h-7V0z M14.5,0h7v7h-7V0z
		 M21.8,0h7v7h-7V0z M29.1,0h7v7h-7C29.1,7,29.1,0,29.1,0z M36.3,0h7v7h-7V0z M43.6,0h7v7h-7V0z M50.8,0h7v7h-7V0z M0,7.3h7v7H0V7.3
		z M14.5,29.1h7v7h-7V29.1z M14.5,36.4h7v7h-7V36.4z M14.5,58.2h7v7h-7V58.2z M14.5,65.4h7v7h-7V65.4z M21.8,21.8h7v7h-7V21.8z
		 M21.8,29.1h7v7h-7V29.1z M21.8,50.9h7v7h-7V50.9z M21.8,58.2h7v7h-7V58.2z M29,14.6h7v7h-7V14.6z M29,21.8h7v7h-7V21.8z M29,43.7
		h7v7h-7V43.7z M29,50.9h7v7h-7V50.9z M36.3,14.6h7v7h-7V14.6z M36.3,36.4h7v7h-7V36.4z M36.3,43.7h7v7h-7V43.7z M36.3,7.3h7v7h-7
		V7.3z M43.6,14.6h7v7h-7V14.6z M43.6,21.8h7v7h-7V21.8z M43.5,43.7h7v7h-7V43.7z M43.5,50.9h7v7h-7V50.9z M50.8,21.8h7v7h-7V21.8z
		 M50.8,29.1h7v7h-7V29.1z M50.8,50.9h7v7h-7V50.9z M50.8,58.2h7v7h-7V58.2z M58.1,29.1h7v7h-7V29.1z M58.1,36.4h7v7h-7V36.4z
		 M58.1,58.2h7v7h-7V58.2z M58.1,65.4h7v7h-7V65.4z M58.1,0h7v7h-7V0z M65.4,0h7v7h-7V0z M72.6,7.3h7v7h-7V7.3z M72.6,21.8h7v7h-7
		V21.8z M72.6,29.1h7v7h-7V29.1z M72.6,36.4h7v7h-7V36.4z M72.6,43.6h7v7h-7V43.6z M72.6,50.9h7v7h-7V50.9z M72.6,58.1h7v7h-7V58.1z
		 M72.6,65.4h7v7h-7V65.4z M7.3,72.6h7v7h-7V72.6z M14.5,72.6h7v7h-7V72.6z M21.8,72.6h7v7h-7V72.6z M29.1,72.6h7v7h-7
		C29.1,79.6,29.1,72.6,29.1,72.6z M36.3,72.6h7v7h-7V72.6z M43.6,72.6h7v7h-7V72.6z M50.8,72.6h7v7h-7V72.6z M58.1,72.6h7v7h-7V72.6
		z M65.4,72.6h7v7h-7V72.6z"/>
</g>
</svg>
