<?xml version="1.0" encoding="utf-8"?>
<!-- Generator: Adobe Illustrator 27.3.1, SVG Export Plug-In . SVG Version: 6.00 Build 0)  -->
<svg version="1.1" id="Слой_1" xmlns="http://www.w3.org/2000/svg" xmlns:xlink="http://www.w3.org/1999/xlink" x="0px" y="0px"
	 viewBox="0 0 46 111.2" style="enable-background:new 0 0 46 111.2;" xml:space="preserve">
<style type="text/css">
	.st0{fill:#FCE19B;}
	.st1{fill:#1E0E01;}
</style>
<path class="st0" d="M46,48.2v-7v-0.1V41v-7c0-2.8-2.2-5-5-5h-2.1v-2.2c0-2.8-2.2-5-5-5h-2.3v-2.2c0-2.8-2.2-5-5-5h-7
	c-2.8,0-5,2.2-5,5v2.2h-2.3c-2.8,0-5,2.2-5,5V29H5c-2.8,0-5,2.2-5,5v7v0.1v0.1v7c0,2.8,2.2,5,5,5h2.1v2.6v0.1V56v7v0.1v0.1v7v0.1
	v0.1v7v0.1v0.1v7v0.1v0.1v7c0,2.8,2.2,5,5,5h2.3V99v0.1v0.1v7c0,2.8,2.2,5,5,5h7c2.8,0,5-2.2,5-5v-7.4v-0.1v-0.1v-2.2h2.3
	c2.8,0,5-2.2,5-5v-7v-0.1v-0.1v-7v-0.1V77v-7v-0.1v-0.1v-7v-0.1v-0.1v-7v-0.1v-0.1v-2.2H41C43.8,53.2,46,51,46,48.2z"/>
<rect x="5" y="34" class="st1" width="7" height="7"/>
<rect x="5" y="41.2" class="st1" width="7" height="7"/>
<rect x="12.3" y="26.7" class="st1" width="7" height="7"/>
<rect x="12.3" y="34" class="st1" width="7" height="7"/>
<rect x="12.3" y="41.2" class="st1" width="7" height="7"/>
<rect x="12.3" y="48.5" class="st1" width="7" height="7"/>
<rect x="12.3" y="55.7" class="st1" width="7" height="7"/>
<rect x="12.3" y="63" class="st1" width="7" height="7"/>
<rect x="12.3" y="70.2" class="st1" width="7" height="7"/>
<rect x="12.3" y="77.5" class="st1" width="7" height="7"/>
<rect x="12.3" y="84.7" class="st1" width="7" height="7"/>
<rect x="19.5" y="19.5" class="st1" width="7" height="7"/>
<rect x="19.5" y="34" class="st1" width="7" height="7"/>
<rect x="19.5" y="41.2" class="st1" width="7" height="7"/>
<rect x="19.5" y="48.5" class="st1" width="7" height="7"/>
<rect x="19.5" y="55.7" class="st1" width="7" height="7"/>
<rect x="19.5" y="63" class="st1" width="7" height="7"/>
<rect x="19.5" y="70.2" class="st1" width="7" height="7"/>
<rect x="19.5" y="77.5" class="st1" width="7" height="7"/>
<rect x="19.5" y="84.7" class="st1" width="7" height="7"/>
<rect x="19.5" y="92" class="st1" width="7" height="7"/>
<rect x="19.5" y="99.2" class="st1" width="7" height="7"/>
<rect x="26.8" y="26.7" class="st1" width="7" height="7"/>
<rect x="26.8" y="34" class="st1" width="7" height="7"/>
<rect x="26.8" y="41.2" class="st1" width="7" height="7"/>
<rect x="26.8" y="48.5" class="st1" width="7" height="7"/>
<rect x="26.8" y="55.7" class="st1" width="7" height="7"/>
<rect x="26.8" y="63" class="st1" width="7" height="7"/>
<rect x="26.8" y="70.2" class="st1" width="7" height="7"/>
<rect x="26.8" y="77.5" class="st1" width="7" height="7"/>
<rect x="26.8" y="84.7" class="st1" width="7" height="7"/>
<rect x="34" y="34" class="st1" width="7" height="7"/>
<rect x="34" y="41.2" class="st1" width="7" height="7"/>
</svg>
