<?xml version="1.0" encoding="utf-8"?>
<!-- Generator: Adobe Illustrator 27.3.1, SVG Export Plug-In . SVG Version: 6.00 Build 0)  -->
<svg version="1.1" xmlns="http://www.w3.org/2000/svg" xmlns:xlink="http://www.w3.org/1999/xlink" x="0px" y="0px"
	 viewBox="0 0 115.9 152.2" style="enable-background:new 0 0 115.9 152.2;" xml:space="preserve">
<style type="text/css">
	.st0{fill:#FCE19B;}
	.st1{fill:#1E0E01;}
</style>
<g id="Слой_2">
	<path class="st0" d="M120.9,65.4c0-2.8-2.2-5-5-5h-7c-0.1,0-0.2,0-0.3,0h-2.3v-2.2c0,0,0-0.1,0-0.1c0,0,0-0.1,0-0.1v-2.2h2.3
		c2.8,0,5-2.2,5-5v-7c0,0,0-0.1,0-0.1c0,0,0-0.1,0-0.1v-7c0,0,0-0.1,0-0.1c0,0,0-0.1,0-0.1v-7c0-1.5-0.7-2.8-1.7-3.8
		c1-0.9,1.7-2.3,1.7-3.8v-7c0-2.8-2.2-5-5-5h-2.3V7.4c0-2.8-2.2-5-5-5h-2.3V0.2c0-2.8-2.2-5-5-5h-7c-0.1,0-0.2,0-0.3,0h-7
		c-0.1,0-0.2,0-0.3,0h-7c-0.1,0-0.2,0-0.3,0h-7c-0.1,0-0.2,0-0.3,0h-7c-0.1,0-0.2,0-0.3,0h-7c-0.1,0-0.2,0-0.3,0h-7
		c-0.1,0-0.2,0-0.3,0h-7c-0.1,0-0.2,0-0.3,0h-7c-0.1,0-0.2,0-0.3,0h-7c-2.8,0-5,2.2-5,5v2.2h-2.3c-2.8,0-5,2.2-5,5v2.2H7.3
		c-2.8,0-5,2.2-5,5v7c0,1.5,0.7,2.8,1.7,3.8c-1,0.9-1.7,2.3-1.7,3.8v7c0,0,0,0.1,0,0.1c0,0,0,0.1,0,0.1v7c0,0,0,0.1,0,0.1
		c0,0,0,0.1,0,0.1v7c0,2.8,2.2,5,5,5h2.3v2.2c0,0,0,0.1,0,0.1c0,0,0,0.1,0,0.1v2.2H7.3c-0.1,0-0.2,0-0.3,0H0c-2.8,0-5,2.2-5,5v7
		c0,0,0,0.1,0,0.1c0,0,0,0.1,0,0.1v7c0,0,0,0.1,0,0.1c0,0,0,0.1,0,0.1v7c0,0,0,0.1,0,0.1c0,0,0,0.1,0,0.1v7c0,0,0,0.1,0,0.1
		c0,0,0,0.1,0,0.1v7c0,0,0,0.1,0,0.1c0,0,0,0.1,0,0.1v7c0,0,0,0.1,0,0.1c0,0,0,0.1,0,0.1v7c0,0,0,0.1,0,0.1c0,0,0,0.1,0,0.1v7
		c0,0,0,0.1,0,0.1c0,0,0,0.1,0,0.1v7c0,0,0,0.1,0,0.1c0,0,0,0.1,0,0.1v7c0,0,0,0.1,0,0.1c0,0,0,0.1,0,0.1v7c0,2.8,2.2,5,5,5h7
		c0.1,0,0.2,0,0.3,0h2.3v2.2c0,2.8,2.2,5,5,5h7c0.1,0,0.2,0,0.3,0h7c0.1,0,0.2,0,0.3,0h7c0.1,0,0.2,0,0.3,0h7c0.1,0,0.2,0,0.3,0h7
		c0.1,0,0.2,0,0.3,0h7c0.1,0,0.2,0,0.3,0h7c0.1,0,0.2,0,0.3,0h7c0.1,0,0.2,0,0.3,0h7c0.1,0,0.2,0,0.3,0h7c0.1,0,0.2,0,0.3,0h7
		c0.1,0,0.2,0,0.3,0h7c2.8,0,5-2.2,5-5v-2.2h2.3c0.1,0,0.2,0,0.3,0h7c2.8,0,5-2.2,5-5v-7c0,0,0-0.1,0-0.1c0,0,0-0.1,0-0.1v-7
		c0,0,0-0.1,0-0.1c0,0,0-0.1,0-0.1v-7c0,0,0-0.1,0-0.1c0,0,0-0.1,0-0.1v-7c0,0,0-0.1,0-0.1c0,0,0-0.1,0-0.1v-7c0,0,0-0.1,0-0.1
		c0,0,0-0.1,0-0.1v-7c0,0,0-0.1,0-0.1c0,0,0-0.1,0-0.1v-7c0,0,0-0.1,0-0.1c0,0,0-0.1,0-0.1v-7c0,0,0-0.1,0-0.1c0,0,0-0.1,0-0.1v-7
		c0,0,0-0.1,0-0.1c0,0,0-0.1,0-0.1v-7c0,0,0-0.1,0-0.1c0,0,0-0.1,0-0.1V65.4z"/>
</g>
<g id="Слой_1">
	<path class="st1" d="M0,137.9h7v7H0L0,137.9z M0,130.7h7v7H0L0,130.7z M0,123.4h7v7H0L0,123.4z M0,116.2h7v7H0L0,116.2z M0,108.9h7
		v7H0L0,108.9z M0,101.7h7v7H0L0,101.7z M0,94.4h7v7H0L0,94.4z M0,87.2h7v7H0L0,87.2z M0,79.9h7v7H0L0,79.9z M0,72.7h7v7H0L0,72.7z
		 M0,65.4h7v7H0L0,65.4z M7.3,137.9h7v7h-7V137.9z M7.3,130.7h7v7h-7V130.7z M7.3,116.2h7v7h-7V116.2z M7.3,101.7h7v7h-7V101.7z
		 M7.3,87.2h7v7h-7V87.2z M7.3,72.7h7v7h-7V72.7z M7.3,65.4h7v7h-7V65.4z M7.3,43.7h7v7h-7V43.7z M7.3,21.9h7v7h-7V21.9z M7.3,14.7
		h7v7h-7V14.7z M14.5,145.2h7v7h-7V145.2z M14.5,137.9h7v7h-7V137.9z M14.5,123.4h7v7h-7V123.4z M14.5,116.2h7v7h-7V116.2z
		 M14.5,108.9h7v7h-7V108.9z M14.5,101.7h7v7h-7V101.7z M14.5,94.4h7v7h-7V94.4z M14.5,87.2h7v7h-7V87.2z M14.5,79.9h7v7h-7V79.9z
		 M14.5,65.4h7v7h-7V65.4z M14.5,58.2h7v7h-7V58.2z M14.5,50.9h7v7h-7V50.9z M14.5,43.7h7v7h-7V43.7z M14.5,36.4h7v7h-7V36.4z
		 M14.5,29.2h7v7h-7V29.2z M14.5,21.9h7v7h-7V21.9z M14.5,14.7h7v7h-7V14.7z M14.5,7.4h7v7h-7V7.4z M21.8,145.2h7v7h-7V145.2z
		 M21.8,137.9h7v7h-7V137.9z M21.8,130.7h7v7h-7V130.7z M21.8,123.4h7v7h-7V123.4z M21.8,116.2h7v7h-7V116.2z M21.8,108.9h7v7h-7
		V108.9z M21.8,101.7h7v7h-7V101.7z M21.8,94.4h7v7h-7V94.4z M21.8,87.2h7v7h-7V87.2z M21.8,79.9h7v7h-7V79.9z M21.8,65.4h7v7h-7
		V65.4z M21.8,50.9h7v7h-7V50.9z M21.8,43.7h7v7h-7V43.7z M21.8,29.2h7v7h-7V29.2z M21.8,14.7h7v7h-7V14.7z M21.8,0.2h7v7h-7V0.2z
		 M29,145.2h7v7h-7V145.2z M29,137.9h7v7h-7V137.9z M29,123.4h7v7h-7V123.4z M29,116.2h7v7h-7V116.2z M29,108.9h7v7h-7V108.9z
		 M29,101.7h7v7h-7V101.7z M29,94.4h7v7h-7V94.4z M29,87.2h7v7h-7V87.2z M29,79.9h7v7h-7V79.9z M29,72.7h7v7h-7V72.7z M29,65.4h7v7
		h-7V65.4z M29,58.2h7v7h-7V58.2z M29,50.9h7v7h-7V50.9z M29,43.7h7v7h-7V43.7z M29,36.4h7v7h-7V36.4z M29,29.2h7v7h-7V29.2z
		 M29,21.9h7v7h-7V21.9z M29,7.4h7v7h-7V7.4z M29,0.2h7v7h-7V0.2z M36.3,145.2h7v7h-7V145.2z M36.3,137.9h7v7h-7V137.9z M36.3,130.7
		h7v7h-7V130.7z M36.3,123.4h7v7h-7V123.4z M36.3,116.2h7v7h-7V116.2z M36.3,108.9h7v7h-7V108.9z M36.3,101.7h7v7h-7V101.7z
		 M36.3,94.4h7v7h-7V94.4z M36.3,87.2h7v7h-7V87.2z M36.3,79.9h7v7h-7V79.9z M36.3,65.4h7v7h-7V65.4z M36.3,50.9h7v7h-7V50.9z
		 M36.3,43.7h7v7h-7V43.7z M36.3,36.4h7v7h-7V36.4z M36.3,29.2h7v7h-7V29.2z M36.3,21.9h7v7h-7V21.9z M36.3,14.7h7v7h-7V14.7z
		 M36.3,0.2h7v7h-7V0.2z M43.6,145.2h7v7h-7V145.2z M43.6,137.9h7v7h-7V137.9z M43.6,123.4h7v7h-7V123.4z M43.6,108.9h7v7h-7V108.9z
		 M43.6,94.4h7v7h-7V94.4z M43.6,79.9h7v7h-7V79.9z M43.6,72.7h7v7h-7V72.7z M43.6,65.4h7v7h-7V65.4z M43.6,58.2h7v7h-7V58.2z
		 M43.6,50.9h7v7h-7V50.9z M43.6,43.7h7v7h-7V43.7z M43.6,36.4h7v7h-7V36.4z M43.6,29.2h7v7h-7V29.2z M43.6,21.9h7v7h-7V21.9z
		 M43.6,14.7h7v7h-7V14.7z M43.6,7.4h7v7h-7V7.4z M43.6,0.2h7v7h-7V0.2z M50.8,145.2h7v7h-7V145.2z M50.8,137.9h7v7h-7V137.9z
		 M50.8,130.7h7v7h-7V130.7z M50.8,123.4h7v7h-7V123.4z M50.8,116.2h7v7h-7V116.2z M50.8,108.9h7v7h-7V108.9z M50.8,101.7h7v7h-7
		V101.7z M50.8,94.4h7v7h-7V94.4z M50.8,87.2h7v7h-7V87.2z M50.8,79.9h7v7h-7V79.9z M50.8,65.4h7v7h-7V65.4z M50.8,50.9h7v7h-7V50.9
		z M50.8,43.7h7v7h-7V43.7z M50.8,36.4h7v7h-7V36.4z M50.8,29.2h7v7h-7V29.2z M50.8,21.9h7v7h-7V21.9z M50.8,14.7h7v7h-7V14.7z
		 M50.8,0.2h7v7h-7V0.2z M58.1,145.2h7v7h-7V145.2z M58.1,137.9h7v7h-7V137.9z M58.1,130.7h7v7h-7V130.7z M58.1,123.4h7v7h-7V123.4z
		 M58.1,116.2h7v7h-7V116.2z M58.1,108.9h7v7h-7V108.9z M58.1,101.7h7v7h-7V101.7z M58.1,94.4h7v7h-7V94.4z M58.1,87.2h7v7h-7V87.2z
		 M58.1,79.9h7v7h-7V79.9z M58.1,65.4h7v7h-7V65.4z M58.1,50.9h7v7h-7V50.9z M58.1,43.7h7v7h-7V43.7z M58.1,36.4h7v7h-7V36.4z
		 M58.1,29.2h7v7h-7V29.2z M58.1,21.9h7v7h-7V21.9z M58.1,14.7h7v7h-7V14.7z M58.1,7.4h7v7h-7V7.4z M58.1,0.2h7v7h-7V0.2z
		 M65.3,145.2h7v7h-7V145.2z M65.3,137.9h7v7h-7V137.9z M65.3,123.4h7v7h-7V123.4z M65.3,108.9h7v7h-7V108.9z M65.3,94.4h7v7h-7
		V94.4z M65.3,79.9h7v7h-7V79.9z M65.3,72.7h7v7h-7V72.7z M65.3,65.4h7v7h-7V65.4z M65.3,58.2h7v7h-7V58.2z M65.3,50.9h7v7h-7V50.9z
		 M65.3,43.7h7v7h-7V43.7z M65.3,36.4h7v7h-7V36.4z M65.3,29.2h7v7h-7V29.2z M65.3,21.9h7v7h-7V21.9z M65.3,14.7h7v7h-7V14.7z
		 M65.3,7.4h7v7h-7V7.4z M65.3,0.2h7v7h-7V0.2z M72.6,145.2h7v7h-7V145.2z M72.6,137.9h7v7h-7V137.9z M72.6,130.7h7v7h-7V130.7z
		 M72.6,123.4h7v7h-7V123.4z M72.6,116.2h7v7h-7V116.2z M72.6,108.9h7v7h-7V108.9z M72.6,101.7h7v7h-7V101.7z M72.6,94.4h7v7h-7
		V94.4z M72.6,87.2h7v7h-7V87.2z M72.6,79.9h7v7h-7V79.9z M72.6,65.4h7v7h-7V65.4z M72.6,50.9h7v7h-7V50.9z M72.6,43.7h7v7h-7V43.7z
		 M72.6,36.4h7v7h-7V36.4z M72.6,29.2h7v7h-7V29.2z M72.6,21.9h7v7h-7V21.9z M72.6,14.7h7v7h-7V14.7z M72.6,0.2h7v7h-7V0.2z
		 M79.9,145.2h7v7h-7V145.2z M79.9,137.9h7v7h-7V137.9z M79.9,123.4h7v7h-7V123.4z M79.9,116.2h7v7h-7V116.2z M79.9,108.9h7v7h-7
		V108.9z M79.9,101.7h7v7h-7V101.7z M79.9,94.4h7v7h-7V94.4z M79.9,87.2h7v7h-7V87.2z M79.9,79.9h7v7h-7V79.9z M79.9,72.7h7v7h-7
		V72.7z M79.9,65.4h7v7h-7V65.4z M79.9,58.2h7v7h-7V58.2z M79.9,50.9h7v7h-7V50.9z M79.9,43.7h7v7h-7V43.7z M79.9,36.4h7v7h-7V36.4z
		 M79.9,29.2h7v7h-7V29.2z M79.9,21.9h7v7h-7V21.9z M79.9,7.4h7v7h-7V7.4z M79.9,0.2h7v7h-7V0.2z M87.1,145.2h7v7h-7V145.2z
		 M87.1,137.9h7v7h-7V137.9z M87.1,130.7h7v7h-7V130.7z M87.1,123.4h7v7h-7V123.4z M87.1,116.2h7v7h-7V116.2z M87.1,108.9h7v7h-7
		V108.9z M87.1,101.7h7v7h-7V101.7z M87.1,94.4h7v7h-7V94.4z M87.1,87.2h7v7h-7V87.2z M87.1,79.9h7v7h-7V79.9z M87.1,65.4h7v7h-7
		V65.4z M87.1,50.9h7v7h-7V50.9z M87.1,43.7h7v7h-7V43.7z M87.1,29.2h7v7h-7V29.2z M87.1,14.7h7v7h-7V14.7z M87.1,0.2h7v7h-7V0.2z
		 M94.4,145.2h7v7h-7V145.2z M94.4,137.9h7v7h-7V137.9z M94.4,123.4h7v7h-7V123.4z M94.4,116.2h7v7h-7V116.2z M94.4,108.9h7v7h-7
		V108.9z M94.4,101.7h7v7h-7V101.7z M94.4,94.4h7v7h-7V94.4z M94.4,87.2h7v7h-7V87.2z M94.4,79.9h7v7h-7V79.9z M94.4,65.4h7v7h-7
		V65.4z M94.4,58.2h7v7h-7V58.2z M94.4,50.9h7v7h-7V50.9z M94.4,43.7h7v7h-7V43.7z M94.4,36.4h7v7h-7V36.4z M94.4,29.2h7v7h-7V29.2z
		 M94.4,21.9h7v7h-7V21.9z M94.4,14.7h7v7h-7V14.7z M94.4,7.4h7v7h-7V7.4z M101.6,137.9h7v7h-7V137.9z M101.6,130.7h7v7h-7V130.7z
		 M101.6,116.2h7v7h-7V116.2z M101.6,101.7h7v7h-7V101.7z M101.6,87.2h7v7h-7V87.2z M101.6,72.7h7v7h-7V72.7z M101.6,65.4h7v7h-7
		V65.4z M101.6,43.7h7v7h-7V43.7z M101.6,21.9h7v7h-7V21.9z M101.6,14.7h7v7h-7V14.7z M108.9,137.9h7v7h-7V137.9z M108.9,130.7h7v7
		h-7V130.7z M108.9,123.4h7v7h-7V123.4z M108.9,116.2h7v7h-7V116.2z M108.9,108.9h7v7h-7V108.9z M108.9,101.7h7v7h-7V101.7z
		 M108.9,94.4h7v7h-7V94.4z M108.9,87.2h7v7h-7V87.2z M108.9,79.9h7v7h-7V79.9z M108.9,72.7h7v7h-7V72.7z M108.9,65.4h7v7h-7V65.4z"
		/>
</g>
</svg>
