<?xml version="1.0" encoding="utf-8"?>
<!-- Generator: Adobe Illustrator 27.3.1, SVG Export Plug-In . SVG Version: 6.00 Build 0)  -->
<svg version="1.1" id="Слой_1" xmlns="http://www.w3.org/2000/svg" xmlns:xlink="http://www.w3.org/1999/xlink" x="0px" y="0px"
	 viewBox="0 0 79.6 72.3" style="enable-background:new 0 0 79.6 72.3;" xml:space="preserve">
<style type="text/css">
	.st0{fill:#1E0E01;}
</style>
<rect x="7.3" class="st0" width="7" height="7"/>
<rect x="14.6" class="st0" width="7" height="7"/>
<rect x="21.8" class="st0" width="7" height="7"/>
<rect x="29.1" class="st0" width="7" height="7"/>
<rect x="36.3" class="st0" width="7" height="7"/>
<rect y="7.3" class="st0" width="7" height="7"/>
<rect y="14.5" class="st0" width="7" height="7"/>
<rect y="21.8" class="st0" width="7" height="7"/>
<rect y="29.1" class="st0" width="7" height="7"/>
<rect y="36.3" class="st0" width="7" height="7"/>
<rect y="43.6" class="st0" width="7" height="7"/>
<rect y="50.8" class="st0" width="7" height="7"/>
<rect y="58.1" class="st0" width="7" height="7"/>
<rect x="14.6" y="14.5" class="st0" width="7" height="7"/>
<rect x="14.6" y="50.8" class="st0" width="7" height="7"/>
<rect x="21.8" y="14.5" class="st0" width="7" height="7"/>
<rect x="21.8" y="21.8" class="st0" width="7" height="7"/>
<rect x="21.8" y="43.6" class="st0" width="7" height="7"/>
<rect x="21.8" y="50.8" class="st0" width="7" height="7"/>
<rect x="29.1" y="21.8" class="st0" width="7" height="7"/>
<rect x="29.1" y="29.1" class="st0" width="7" height="7"/>
<rect x="29.1" y="36.3" class="st0" width="7" height="7"/>
<rect x="29.1" y="43.6" class="st0" width="7" height="7"/>
<rect x="36.3" y="14.5" class="st0" width="7" height="7"/>
<rect x="36.3" y="29.1" class="st0" width="7" height="7"/>
<rect x="36.3" y="36.3" class="st0" width="7" height="7"/>
<rect x="36.3" y="50.8" class="st0" width="7" height="7"/>
<rect x="43.6" class="st0" width="7" height="7"/>
<rect x="50.9" class="st0" width="7" height="7"/>
<rect x="58.1" class="st0" width="7" height="7"/>
<rect x="65.4" class="st0" width="7" height="7"/>
<rect x="43.6" y="14.5" class="st0" width="7" height="7"/>
<rect x="43.6" y="21.8" class="st0" width="7" height="7"/>
<rect x="43.6" y="43.6" class="st0" width="7" height="7"/>
<rect x="43.6" y="50.8" class="st0" width="7" height="7"/>
<rect x="50.9" y="21.8" class="st0" width="7" height="7"/>
<rect x="50.9" y="29.1" class="st0" width="7" height="7"/>
<rect x="50.9" y="36.3" class="st0" width="7" height="7"/>
<rect x="50.9" y="43.6" class="st0" width="7" height="7"/>
<rect x="58.1" y="29.1" class="st0" width="7" height="7"/>
<rect x="58.1" y="36.3" class="st0" width="7" height="7"/>
<rect x="72.6" y="7.3" class="st0" width="7" height="7"/>
<rect x="72.6" y="14.5" class="st0" width="7" height="7"/>
<rect x="72.6" y="21.8" class="st0" width="7" height="7"/>
<rect x="72.6" y="29.1" class="st0" width="7" height="7"/>
<rect x="72.6" y="36.3" class="st0" width="7" height="7"/>
<rect x="72.6" y="43.6" class="st0" width="7" height="7"/>
<rect x="72.6" y="50.8" class="st0" width="7" height="7"/>
<rect x="72.6" y="58.1" class="st0" width="7" height="7"/>
<rect x="7.3" y="65.3" class="st0" width="7" height="7"/>
<rect x="14.6" y="65.3" class="st0" width="7" height="7"/>
<rect x="21.8" y="65.3" class="st0" width="7" height="7"/>
<rect x="29.1" y="65.3" class="st0" width="7" height="7"/>
<rect x="36.3" y="65.3" class="st0" width="7" height="7"/>
<rect x="43.6" y="65.3" class="st0" width="7" height="7"/>
<rect x="50.9" y="65.3" class="st0" width="7" height="7"/>
<rect x="58.1" y="65.3" class="st0" width="7" height="7"/>
<rect x="65.4" y="65.3" class="st0" width="7" height="7"/>
</svg>
