<?xml version="1.0" encoding="utf-8"?>
<!-- Generator: Adobe Illustrator 27.3.1, SVG Export Plug-In . SVG Version: 6.00 Build 0)  -->
<svg version="1.1" id="Слой_1" xmlns="http://www.w3.org/2000/svg" xmlns:xlink="http://www.w3.org/1999/xlink" x="0px" y="0px"
	 viewBox="0 0 130.4 152.2" style="enable-background:new 0 0 130.4 152.2;" xml:space="preserve">
<style type="text/css">
	.st0{fill:#FCE19B;}
	.st1{fill:#1E0E01;}
</style>
<g id="Слой_2_00000155855775529212129650000007434788922940359309_">
	<path class="st0" d="M131.8,14.3v-7c0-2.8-2.2-5-5-5h-7c0,0-0.1,0-0.2,0c0,0-0.1,0-0.2,0h-7c-0.1,0-0.1,0-0.2,0h-7c0,0-0.1,0-0.2,0
		c0,0-0.1,0-0.2,0h-7c0,0-0.1,0-0.2,0h-0.1h-7c-2.8,0-5,2.2-5,5v2.3h-2.2c-0.9,0-1.8,0.2-2.5,0.7v-3c0-0.1,0-0.1,0-0.1V7.1V0
		c0-2.8-2.2-5-5-5h-7c0,0-0.1,0-0.2,0h-0.1h-7c-0.1,0-0.1,0-0.2,0h-7c-2.8,0-5,2.2-5,5v7c0,0.1,0,0.1,0,0.1v0.1v3
		c-0.7-0.4-1.6-0.7-2.5-0.7h-2.3V7.3c0-2.8-2.2-5-5-5h-7c-0.1,0-0.1,0-0.2,0h-7c-0.1,0-0.1,0-0.1,0c-0.1,0-0.1,0-0.2,0h-7
		c-0.1,0-0.1,0-0.1,0h-0.1h-7c-0.1,0-0.1,0-0.2,0h-7c-2.8,0-5,2.2-5,5v7c0.1,1.5,0.8,2.8,1.8,3.7c-1,0.9-1.7,2.3-1.7,3.8v7
		c0,1.5,0.7,2.8,1.7,3.8c-1,0.9-1.7,2.3-1.7,3.8v7c0,1.4,0.7,2.7,1.7,3.6c-1,0.9-1.7,2.3-1.7,3.8v7c0,1.5,0.7,2.8,1.7,3.8
		c-1,0.9-1.7,2.3-1.7,3.8v7c0,1.5,0.7,2.9,1.8,3.8c-1.1,0.8-1.8,2.2-1.8,3.7v7c0,1.5,0.7,2.8,1.7,3.8c-1,0.9-1.7,2.3-1.7,3.8v7
		c0,1.5,0.7,2.8,1.7,3.8c-1,0.9-1.7,2.3-1.7,3.8v7c0,1.5,0.7,2.8,1.7,3.8c-1,0.9-1.7,2.3-1.7,3.8v7c0,1.5,0.7,2.8,1.7,3.8
		c-1,0.9-1.7,2.3-1.7,3.8v7v0.1c0,0.1,0,0.1,0,0.2v7c0,2.8,2.2,5,5,5h7c0.1,0,0.1,0,0.2,0h7c0.1,0,0.2,0,0.3,0h7c0.1,0,0.2,0,0.3,0
		h7c0.1,0,0.1,0,0.2,0h7c2.8,0,5-2.2,5-5V150H47c0.1,0,0.1,0,0.2,0h7c0.1,0,0.2,0,0.3,0h7c0.3,0,0.7,0,1-0.1h6.2c0.1,0,0.2,0,0.3,0
		h7c0.1,0,0.1,0,0.2,0h6.3c0.3,0.1,0.7,0.1,1,0.1h2.2v2.2c0,2.8,2.2,5,5,5h7c0.1,0,0.2,0,0.3,0h7c0.1,0,0.2,0,0.3,0h7
		c0.1,0,0.2,0,0.3,0h7c0.1,0,0.1,0,0.2,0h7c2.8,0,5-2.2,5-5v-7c0,0,0-0.1,0-0.2v-0.1v-7c0-1.5-0.7-2.8-1.7-3.8
		c1-0.9,1.7-2.3,1.7-3.8v-7c0-1.5-0.7-2.8-1.7-3.8c1-0.9,1.7-2.3,1.7-3.8v-7c0-1.5-0.7-2.8-1.7-3.8c1-0.9,1.7-2.3,1.7-3.8v-7
		c0-1.5-0.7-2.8-1.7-3.8c1-0.9,1.7-2.3,1.7-3.8v-7c0-1.5-0.7-2.9-1.8-3.8c1.1-0.9,1.8-2.3,1.8-3.8v-7c0-1.5-0.7-2.8-1.7-3.8
		c1-0.9,1.7-2.3,1.7-3.8v-7c0-1.5-0.7-2.8-1.7-3.8c1-0.9,1.7-2.3,1.7-3.8v-7c0-1.5-0.7-2.8-1.7-3.8c1-0.9,1.7-2.3,1.7-3.8v-7
		c0-1.5-0.7-2.8-1.7-3.8C131.1,17.1,131.8,15.8,131.8,14.3z"/>
</g>
<g id="Слой_1_00000128449571041428299640000009184726813550276271_">
	<path class="st1" d="M10.9,7.3h7v7h-7V7.3z M18.1,7.3h7v7h-7V7.3z M25.5,7.3h7v7h-7C25.5,14.3,25.5,7.3,25.5,7.3z M32.6,7.3h7v7h-7
		V7.3z M3.7,7.3h7v7h-7V7.3z M3.7,21.8h7v7h-7V21.8z M3.7,36.3h7v7h-7V36.3z M3.7,50.8h7v7h-7V50.8z M3.7,65.3h7v7h-7V65.3z
		 M10.9,14.5h7v7h-7V14.5z M10.9,29.1h7v7h-7V29.1z M10.9,58h7v7h-7V58z M10.9,43.5h7v7h-7V43.5z M10.9,72.6h7v7h-7V72.6z
		 M18.1,14.5h7v7h-7V14.5z M18.1,29.1h7v7h-7V29.1z M18.1,21.8h7v7h-7V21.8z M18.1,36.4h7v7h-7V36.4z M18.1,50.9h7v7h-7V50.9z
		 M18.1,43.6h7v7h-7V43.6z M18.1,58.1h7v7h-7V58.1z M18.1,72.6h7v7h-7V72.6z M18.1,65.3h7v7h-7V65.3z M18.1,79.9h7v7h-7V79.9z
		 M25.5,29.1h7v7h-7C25.5,36.1,25.5,29.1,25.5,29.1z M25.5,14.5h7v7h-7C25.5,21.5,25.5,14.5,25.5,14.5z M25.5,36.4h7v7h-7
		C25.5,43.4,25.5,36.4,25.5,36.4z M25.5,50.9h7v7h-7C25.5,57.9,25.5,50.9,25.5,50.9z M25.5,43.6h7v7h-7
		C25.5,50.6,25.5,43.6,25.5,43.6z M25.5,65.4h7v7h-7C25.5,72.4,25.5,65.4,25.5,65.4z M25.5,58.1h7v7h-7
		C25.5,65.1,25.5,58.1,25.5,58.1z M25.5,72.6h7v7h-7C25.5,79.6,25.5,72.6,25.5,72.6z M32.6,21.8h7v7h-7V21.8z M32.6,36.4h7v7h-7
		V36.4z M32.6,43.6h7v7h-7V43.6z M32.6,58.1h7v7h-7V58.1z M32.6,50.8h7v7h-7V50.8z M32.6,65.4h7v7h-7V65.4z M32.6,79.9h7v7h-7V79.9z
		 M39.9,14.6h7v7h-7V14.6z M39.9,21.8h7v7h-7V21.8z M39.9,29.1h7v7h-7V29.1z M39.9,36.4h7v7h-7V36.4z M39.9,43.6h7v7h-7V43.6z
		 M39.9,50.9h7v7h-7V50.9z M39.9,58.1h7v7h-7V58.1z M39.9,72.6h7v7h-7V72.6z M39.9,79.9h7v7h-7V79.9z M47.1,36.4h7v7h-7V36.4z
		 M47.1,29.1h7v7h-7V29.1z M47.1,65.4h7v7h-7V65.4z M47.1,72.6h7v7h-7V72.6z M3.7,79.9h7v7h-7V79.9z M3.7,94.4h7v7h-7V94.4z
		 M3.7,108.9h7v7h-7V108.9z M3.7,123.4h7v7h-7V123.4z M10.9,94.4h7v7h-7V94.4z M10.9,87.1h7v7h-7V87.1z M10.9,109h7v7h-7V109z
		 M10.9,101.7h7v7h-7V101.7z M10.9,123.5h7v7h-7V123.5z M10.9,116.2h7v7h-7V116.2z M18.1,130.7h7v7h-7V130.7z M18.1,123.5h7v7h-7
		V123.5z M18.1,116.2h7v7h-7V116.2z M25.5,94.4h7v7h-7C25.5,101.4,25.5,94.4,25.5,94.4z M25.5,87.1h7v7h-7
		C25.5,94.1,25.5,87.1,25.5,87.1z M25.5,101.7h7v7h-7C25.5,108.7,25.5,101.7,25.5,101.7z M25.5,123.4h7v7h-7
		C25.5,130.4,25.5,123.4,25.5,123.4z M25.5,108.9h7v7h-7C25.5,115.9,25.5,108.9,25.5,108.9z M32.6,87.2h7v7h-7V87.2z M32.6,101.7h7
		v7h-7V101.7z M32.6,109h7v7h-7V109z M32.6,116.2h7v7h-7V116.2z M39.9,94.4h7v7h-7V94.4z M39.9,109h7v7h-7V109z M39.9,116.2h7v7h-7
		V116.2z M39.9,130.7h7v7h-7V130.7z M39.9,138h7v7h-7V138z M47.1,79.9h7v7h-7V79.9z M47.1,87.1h7v7h-7V87.1z M47.1,101.7h7v7h-7
		V101.7z M47.1,109h7v7h-7V109z M47.1,116.2h7v7h-7V116.2z M54.4,0h7v7h-7V0z M54.4,7.3h7v7h-7V7.3z M68.9,0h7v7h-7V0z M68.9,7.3h7
		v7h-7V7.3z M90.7,7.3h7v7h-7V7.3z M97.9,7.3h7v7h-7V7.3z M105.2,7.3h7v7h-7V7.3z M112.4,7.3h7v7h-7V7.3z M54.4,14.6h7v7h-7V14.6z
		 M54.4,21.8h7v7h-7V21.8z M54.4,29.1h7v7h-7V29.1z M54.4,36.4h7v7h-7V36.4z M54.4,43.6h7v7h-7V43.6z M54.4,50.9h7v7h-7V50.9z
		 M54.4,58.1h7v7h-7V58.1z M54.4,65.4h7v7h-7V65.4z M54.4,79.9h7v7h-7V79.9z M54.4,87.2h7v7h-7V87.2z M54.4,72.6h7v7h-7V72.6z
		 M68.9,14.6h7v7h-7V14.6z M68.9,21.8h7v7h-7V21.8z M68.9,29.1h7v7h-7V29.1z M68.9,36.4h7v7h-7V36.4z M68.9,43.6h7v7h-7V43.6z
		 M68.9,50.9h7v7h-7V50.9z M68.9,58.1h7v7h-7V58.1z M68.9,65.4h7v7h-7V65.4z M68.9,79.9h7v7h-7V79.9z M68.9,72.6h7v7h-7V72.6z
		 M76.2,36.4h7v7h-7V36.4z M76.2,29.1h7v7h-7V29.1z M76.2,65.4h7v7h-7V65.4z M76.2,72.6h7v7h-7V72.6z M83.4,14.6h7v7h-7V14.6z
		 M83.4,21.8h7v7h-7V21.8z M83.4,29.1h7v7h-7V29.1z M83.4,36.4h7v7h-7V36.4z M83.4,43.6h7v7h-7V43.6z M83.4,50.9h7v7h-7V50.9z
		 M83.4,58.1h7v7h-7V58.1z M83.4,72.6h7v7h-7V72.6z M83.4,79.9h7v7h-7V79.9z M90.7,21.8h7v7h-7V21.8z M90.7,36.4h7v7h-7V36.4z
		 M90.7,43.6h7v7h-7V43.6z M90.7,58.1h7v7h-7V58.1z M90.7,50.8h7v7h-7V50.8z M90.7,65.4h7v7h-7V65.4z M90.7,79.9h7v7h-7V79.9z
		 M97.9,29.1h7v7h-7V29.1z M97.9,14.5h7v7h-7V14.5z M97.9,36.4h7v7h-7V36.4z M97.9,50.9h7v7h-7V50.9z M97.9,43.6h7v7h-7V43.6z
		 M97.9,65.4h7v7h-7V65.4z M97.9,58.1h7v7h-7V58.1z M97.9,72.6h7v7h-7V72.6z M105.2,14.5h7v7h-7V14.5z M105.2,29.1h7v7h-7V29.1z
		 M105.2,21.8h7v7h-7V21.8z M105.2,36.4h7v7h-7V36.4z M105.2,50.9h7v7h-7V50.9z M105.2,43.6h7v7h-7V43.6z M105.2,58.1h7v7h-7V58.1z
		 M105.2,72.6h7v7h-7V72.6z M105.2,65.3h7v7h-7V65.3z M105.2,79.9h7v7h-7V79.9z M112.4,14.5h7v7h-7V14.5z M112.4,29.1h7v7h-7V29.1z
		 M112.4,58h7v7h-7V58z M112.4,43.5h7v7h-7V43.5z M112.4,72.6h7v7h-7V72.6z M119.8,7.3h7v7h-7C119.8,14.3,119.8,7.3,119.8,7.3z
		 M119.8,21.8h7v7h-7C119.8,28.8,119.8,21.8,119.8,21.8z M119.8,36.3h7v7h-7C119.8,43.3,119.8,36.3,119.8,36.3z M119.8,50.8h7v7h-7
		C119.8,57.8,119.8,50.8,119.8,50.8z M119.8,65.3h7v7h-7C119.8,72.3,119.8,65.3,119.8,65.3z M54.4,101.7h7v7h-7V101.7z M54.4,109h7
		v7h-7V109z M54.4,94.4h7v7h-7V94.4z M54.4,116.2h7v7h-7V116.2z M68.9,87.2h7v7h-7V87.2z M68.9,101.7h7v7h-7V101.7z M68.9,94.4h7v7
		h-7V94.4z M68.9,116.2h7v7h-7V116.2z M68.9,108.9h7v7h-7V108.9z M61.7,0h7v7h-7V0z M61.7,7.3h7v7h-7V7.3z M61.7,14.6h7v7h-7V14.6z
		 M61.7,21.8h7v7h-7V21.8z M61.7,29.1h7v7h-7V29.1z M61.7,36.4h7v7h-7V36.4z M61.7,43.6h7v7h-7V43.6z M61.7,50.9h7v7h-7V50.9z
		 M61.7,58.1h7v7h-7V58.1z M61.7,65.4h7v7h-7V65.4z M61.7,79.9h7v7h-7V79.9z M61.7,72.6h7v7h-7V72.6z M61.7,87.2h7v7h-7V87.2z
		 M61.7,94.4h7v7h-7V94.4z M61.7,101.7h7v7h-7V101.7z M61.7,116.2h7v7h-7V116.2z M61.7,108.9h7v7h-7V108.9z M76.2,87.1h7v7h-7V87.1z
		 M76.2,79.9h7v7h-7V79.9z M76.2,101.7h7v7h-7V101.7z M76.2,116.2h7v7h-7V116.2z M47.1,123.5h7v7h-7V123.5z M54.4,123.5h7v7h-7
		V123.5z M68.9,123.4h7v7h-7V123.4z M61.7,123.4h7v7h-7V123.4z M76.2,123.4h7v7h-7V123.4z M76.2,108.9h7v7h-7V108.9z M47.1,138h7v7
		h-7V138z M54.4,138h7v7h-7V138z M68.9,137.9h7v7h-7V137.9z M61.7,137.9h7v7h-7V137.9z M76.2,137.9h7v7h-7V137.9z M83.4,94.4h7v7h-7
		V94.4z M83.4,109h7v7h-7V109z M83.4,116.2h7v7h-7V116.2z M83.4,130.7h7v7h-7V130.7z M83.4,138h7v7h-7V138z M90.7,87.2h7v7h-7V87.2z
		 M90.7,101.7h7v7h-7V101.7z M90.7,109h7v7h-7V109z M90.7,116.2h7v7h-7V116.2z M97.9,94.4h7v7h-7V94.4z M97.9,87.1h7v7h-7V87.1z
		 M97.9,101.7h7v7h-7V101.7z M105.2,116.3h7v7h-7V116.3z M97.9,108.9h7v7h-7V108.9z M105.2,130.7h7v7h-7V130.7z M105.2,123.5h7v7h-7
		V123.5z M112.4,94.4h7v7h-7V94.4z M112.4,87.1h7v7h-7V87.1z M112.4,109h7v7h-7V109z M112.4,101.7h7v7h-7V101.7z M112.4,123.5h7v7
		h-7V123.5z M112.4,116.2h7v7h-7V116.2z M119.8,79.9h7v7h-7C119.8,86.9,119.8,79.9,119.8,79.9z M119.8,94.4h7v7h-7
		C119.8,101.4,119.8,94.4,119.8,94.4z M119.8,108.9h7v7h-7C119.8,115.9,119.8,108.9,119.8,108.9z M119.8,123.4h7v7h-7
		C119.8,130.4,119.8,123.4,119.8,123.4z M10.9,137.9h7v7h-7V137.9z M3.7,137.9h7v7h-7V137.9z M10.9,130.6h7v7h-7V130.6z M18.1,145.2
		h7v7h-7V145.2z M3.7,145.2h7v7h-7V145.2z M10.9,145.2h7v7h-7V145.2z M18.1,137.9h7v7h-7V137.9z M25.5,145.2h7v7h-7
		C25.5,152.2,25.5,145.2,25.5,145.2z M25.5,137.9h7v7h-7C25.5,144.9,25.5,137.9,25.5,137.9z M25.5,130.6h7v7h-7
		C25.5,137.6,25.5,130.6,25.5,130.6z M32.6,145.2h7v7h-7V145.2z M32.6,137.9h7v7h-7V137.9z M32.6,130.7h7v7h-7V130.7z M90.7,145.2h7
		v7h-7V145.2z M90.7,137.9h7v7h-7V137.9z M90.7,130.7h7v7h-7V130.7z M97.9,145.2h7v7h-7V145.2z M97.9,137.9h7v7h-7V137.9z
		 M97.9,130.7h7v7h-7V130.7z M97.9,123.5h7v7h-7V123.5z M105.2,145.2h7v7h-7V145.2z M112.5,145.2h7v7h-7V145.2z M119.8,145.2h7v7h-7
		C119.8,152.2,119.8,145.2,119.8,145.2z M105.2,137.9h7v7h-7V137.9z M119.8,137.9h7v7h-7C119.8,144.9,119.8,137.9,119.8,137.9z
		 M112.4,137.9h7v7h-7V137.9z M112.4,130.6h7v7h-7V130.6z"/>
</g>
</svg>
