<?xml version="1.0" encoding="utf-8"?>
<!-- Generator: Adobe Illustrator 27.3.1, SVG Export Plug-In . SVG Version: 6.00 Build 0)  -->
<svg version="1.1" id="Слой_1" xmlns="http://www.w3.org/2000/svg" xmlns:xlink="http://www.w3.org/1999/xlink" x="0px" y="0px"
	 viewBox="0 0 130.4 152.2" style="enable-background:new 0 0 130.4 152.2;" xml:space="preserve">
<style type="text/css">
	.st0{fill:#1E0E01;}
</style>
<rect x="14.5" y="7.3" class="st0" width="7" height="7"/>
<rect x="21.8" y="7.3" class="st0" width="7" height="7"/>
<rect x="29.1" y="7.3" class="st0" width="7" height="7"/>
<rect x="36.3" y="7.3" class="st0" width="7" height="7"/>
<rect x="43.6" y="7.3" class="st0" width="7" height="7"/>
<rect x="7.3" y="14.6" class="st0" width="7" height="7"/>
<rect x="7.3" y="29.1" class="st0" width="7" height="7"/>
<rect x="7.3" y="43.6" class="st0" width="7" height="7"/>
<rect x="7.3" y="58.1" class="st0" width="7" height="7"/>
<rect x="7.3" y="72.6" class="st0" width="7" height="7"/>
<rect x="14.5" y="21.8" class="st0" width="7" height="7"/>
<rect x="14.5" y="36.4" class="st0" width="7" height="7"/>
<rect x="14.5" y="65.3" class="st0" width="7" height="7"/>
<rect x="14.5" y="50.8" class="st0" width="7" height="7"/>
<rect x="14.5" y="79.9" class="st0" width="7" height="7"/>
<rect x="21.8" y="14.5" class="st0" width="7" height="7"/>
<rect x="21.8" y="29.1" class="st0" width="7" height="7"/>
<rect x="21.8" y="21.8" class="st0" width="7" height="7"/>
<rect x="21.8" y="36.4" class="st0" width="7" height="7"/>
<rect x="21.8" y="50.9" class="st0" width="7" height="7"/>
<rect x="21.8" y="43.6" class="st0" width="7" height="7"/>
<rect x="21.8" y="58.1" class="st0" width="7" height="7"/>
<rect x="21.8" y="72.6" class="st0" width="7" height="7"/>
<rect x="21.8" y="65.3" class="st0" width="7" height="7"/>
<rect x="21.8" y="79.9" class="st0" width="7" height="7"/>
<rect x="29.1" y="29.1" class="st0" width="7" height="7"/>
<rect x="29.1" y="21.8" class="st0" width="7" height="7"/>
<rect x="29.1" y="14.5" class="st0" width="7" height="7"/>
<rect x="29.1" y="36.4" class="st0" width="7" height="7"/>
<rect x="29.1" y="50.9" class="st0" width="7" height="7"/>
<rect x="29.1" y="43.6" class="st0" width="7" height="7"/>
<rect x="29.1" y="65.4" class="st0" width="7" height="7"/>
<rect x="29.1" y="58.1" class="st0" width="7" height="7"/>
<rect x="29.1" y="72.6" class="st0" width="7" height="7"/>
<rect x="36.3" y="21.8" class="st0" width="7" height="7"/>
<rect x="36.3" y="36.4" class="st0" width="7" height="7"/>
<rect x="36.3" y="43.6" class="st0" width="7" height="7"/>
<rect x="36.3" y="58.1" class="st0" width="7" height="7"/>
<rect x="36.3" y="50.8" class="st0" width="7" height="7"/>
<rect x="36.3" y="65.4" class="st0" width="7" height="7"/>
<rect x="36.3" y="79.9" class="st0" width="7" height="7"/>
<rect x="43.6" y="14.6" class="st0" width="7" height="7"/>
<rect x="43.6" y="21.8" class="st0" width="7" height="7"/>
<rect x="43.6" y="29.1" class="st0" width="7" height="7"/>
<rect x="43.6" y="36.4" class="st0" width="7" height="7"/>
<rect x="43.6" y="43.6" class="st0" width="7" height="7"/>
<rect x="43.6" y="50.9" class="st0" width="7" height="7"/>
<rect x="43.6" y="58.1" class="st0" width="7" height="7"/>
<rect x="43.6" y="72.6" class="st0" width="7" height="7"/>
<rect x="43.6" y="79.9" class="st0" width="7" height="7"/>
<rect x="50.8" y="36.4" class="st0" width="7" height="7"/>
<rect x="50.8" y="65.4" class="st0" width="7" height="7"/>
<rect x="50.8" y="72.6" class="st0" width="7" height="7"/>
<rect x="7.3" y="87.2" class="st0" width="7" height="7"/>
<rect x="7.3" y="101.7" class="st0" width="7" height="7"/>
<rect x="7.3" y="116.2" class="st0" width="7" height="7"/>
<rect x="7.3" y="130.7" class="st0" width="7" height="7"/>
<rect x="14.5" y="94.4" class="st0" width="7" height="7"/>
<rect x="14.5" y="109" class="st0" width="7" height="7"/>
<rect x="14.5" y="123.5" class="st0" width="7" height="7"/>
<rect x="21.8" y="109" class="st0" width="7" height="7"/>
<rect x="21.8" y="101.7" class="st0" width="7" height="7"/>
<rect x="21.8" y="94.5" class="st0" width="7" height="7"/>
<rect x="21.8" y="87.2" class="st0" width="7" height="7"/>
<rect x="21.8" y="116.2" class="st0" width="7" height="7"/>
<rect x="21.8" y="123.5" class="st0" width="7" height="7"/>
<rect x="21.8" y="130.7" class="st0" width="7" height="7"/>
<rect x="29.1" y="94.4" class="st0" width="7" height="7"/>
<rect x="29.1" y="101.7" class="st0" width="7" height="7"/>
<rect x="29.1" y="116.2" class="st0" width="7" height="7"/>
<rect x="29.1" y="108.9" class="st0" width="7" height="7"/>
<rect x="29.1" y="123.5" class="st0" width="7" height="7"/>
<rect x="36.3" y="87.2" class="st0" width="7" height="7"/>
<rect x="36.3" y="101.7" class="st0" width="7" height="7"/>
<rect x="36.3" y="109" class="st0" width="7" height="7"/>
<rect x="36.3" y="123.5" class="st0" width="7" height="7"/>
<rect x="36.3" y="116.2" class="st0" width="7" height="7"/>
<rect x="43.6" y="87.2" class="st0" width="7" height="7"/>
<rect x="43.6" y="94.4" class="st0" width="7" height="7"/>
<rect x="43.6" y="109" class="st0" width="7" height="7"/>
<rect x="43.6" y="116.2" class="st0" width="7" height="7"/>
<rect x="43.6" y="130.7" class="st0" width="7" height="7"/>
<rect x="43.6" y="138" class="st0" width="7" height="7"/>
<rect x="50.8" y="94.4" class="st0" width="7" height="7"/>
<rect x="50.8" y="101.7" class="st0" width="7" height="7"/>
<rect x="50.8" y="116.2" class="st0" width="7" height="7"/>
<rect x="50.8" y="130.7" class="st0" width="7" height="7"/>
<rect x="50.8" y="123.4" class="st0" width="7" height="7"/>
<rect x="58.1" class="st0" width="7" height="7"/>
<rect x="58.1" y="7.3" class="st0" width="7" height="7"/>
<rect x="65.4" class="st0" width="7" height="7"/>
<rect x="65.4" y="7.3" class="st0" width="7" height="7"/>
<rect x="79.9" y="7.3" class="st0" width="7" height="7"/>
<rect x="87.1" y="7.3" class="st0" width="7" height="7"/>
<rect x="94.4" y="7.3" class="st0" width="7" height="7"/>
<rect x="101.7" y="7.3" class="st0" width="7" height="7"/>
<rect x="108.9" y="7.3" class="st0" width="7" height="7"/>
<rect x="58.1" y="14.6" class="st0" width="7" height="7"/>
<rect x="58.1" y="21.8" class="st0" width="7" height="7"/>
<rect x="58.1" y="29.1" class="st0" width="7" height="7"/>
<rect x="58.1" y="36.4" class="st0" width="7" height="7"/>
<rect x="58.1" y="43.6" class="st0" width="7" height="7"/>
<rect x="58.1" y="50.9" class="st0" width="7" height="7"/>
<rect x="58.1" y="58.1" class="st0" width="7" height="7"/>
<rect x="58.1" y="65.4" class="st0" width="7" height="7"/>
<rect x="58.1" y="79.9" class="st0" width="7" height="7"/>
<rect x="65.4" y="14.6" class="st0" width="7" height="7"/>
<rect x="65.4" y="21.8" class="st0" width="7" height="7"/>
<rect x="65.4" y="29.1" class="st0" width="7" height="7"/>
<rect x="65.4" y="36.4" class="st0" width="7" height="7"/>
<rect x="65.4" y="43.6" class="st0" width="7" height="7"/>
<rect x="65.4" y="50.9" class="st0" width="7" height="7"/>
<rect x="65.4" y="58.1" class="st0" width="7" height="7"/>
<rect x="65.4" y="65.4" class="st0" width="7" height="7"/>
<rect x="65.4" y="79.9" class="st0" width="7" height="7"/>
<rect x="72.6" y="36.4" class="st0" width="7" height="7"/>
<rect x="72.6" y="65.4" class="st0" width="7" height="7"/>
<rect x="72.6" y="72.6" class="st0" width="7" height="7"/>
<rect x="79.9" y="14.6" class="st0" width="7" height="7"/>
<rect x="79.9" y="21.8" class="st0" width="7" height="7"/>
<rect x="79.9" y="29.1" class="st0" width="7" height="7"/>
<rect x="79.9" y="36.4" class="st0" width="7" height="7"/>
<rect x="79.9" y="43.6" class="st0" width="7" height="7"/>
<rect x="79.9" y="50.9" class="st0" width="7" height="7"/>
<rect x="79.9" y="58.1" class="st0" width="7" height="7"/>
<rect x="79.9" y="72.6" class="st0" width="7" height="7"/>
<rect x="79.9" y="79.9" class="st0" width="7" height="7"/>
<rect x="87.1" y="21.8" class="st0" width="7" height="7"/>
<rect x="87.1" y="36.4" class="st0" width="7" height="7"/>
<rect x="87.1" y="43.6" class="st0" width="7" height="7"/>
<rect x="87.1" y="58.1" class="st0" width="7" height="7"/>
<rect x="87.1" y="50.8" class="st0" width="7" height="7"/>
<rect x="87.1" y="65.4" class="st0" width="7" height="7"/>
<rect x="87.1" y="79.9" class="st0" width="7" height="7"/>
<rect x="94.4" y="29.1" class="st0" width="7" height="7"/>
<rect x="94.4" y="21.8" class="st0" width="7" height="7"/>
<rect x="94.4" y="14.5" class="st0" width="7" height="7"/>
<rect x="94.4" y="36.4" class="st0" width="7" height="7"/>
<rect x="94.4" y="50.9" class="st0" width="7" height="7"/>
<rect x="94.4" y="43.6" class="st0" width="7" height="7"/>
<rect x="94.4" y="65.4" class="st0" width="7" height="7"/>
<rect x="94.4" y="58.1" class="st0" width="7" height="7"/>
<rect x="94.4" y="72.6" class="st0" width="7" height="7"/>
<rect x="101.7" y="14.5" class="st0" width="7" height="7"/>
<rect x="101.7" y="29.1" class="st0" width="7" height="7"/>
<rect x="101.7" y="21.8" class="st0" width="7" height="7"/>
<rect x="101.7" y="36.4" class="st0" width="7" height="7"/>
<rect x="101.7" y="50.9" class="st0" width="7" height="7"/>
<rect x="101.7" y="43.6" class="st0" width="7" height="7"/>
<rect x="101.7" y="58.1" class="st0" width="7" height="7"/>
<rect x="101.7" y="72.6" class="st0" width="7" height="7"/>
<rect x="101.7" y="65.3" class="st0" width="7" height="7"/>
<rect x="101.7" y="79.9" class="st0" width="7" height="7"/>
<rect x="108.9" y="21.8" class="st0" width="7" height="7"/>
<rect x="108.9" y="36.4" class="st0" width="7" height="7"/>
<rect x="108.9" y="65.3" class="st0" width="7" height="7"/>
<rect x="108.9" y="50.8" class="st0" width="7" height="7"/>
<rect x="108.9" y="79.9" class="st0" width="7" height="7"/>
<rect x="116.2" y="14.6" class="st0" width="7" height="7"/>
<rect x="116.2" y="29.1" class="st0" width="7" height="7"/>
<rect x="116.2" y="43.6" class="st0" width="7" height="7"/>
<rect x="116.2" y="58.1" class="st0" width="7" height="7"/>
<rect x="116.2" y="72.6" class="st0" width="7" height="7"/>
<rect x="58.1" y="87.2" class="st0" width="7" height="7"/>
<rect x="58.1" y="101.7" class="st0" width="7" height="7"/>
<rect x="58.1" y="116.2" class="st0" width="7" height="7"/>
<rect x="58.1" y="130.7" class="st0" width="7" height="7"/>
<rect x="58.1" y="123.4" class="st0" width="7" height="7"/>
<rect x="65.4" y="87.2" class="st0" width="7" height="7"/>
<rect x="65.4" y="101.7" class="st0" width="7" height="7"/>
<rect x="65.4" y="116.2" class="st0" width="7" height="7"/>
<rect x="65.4" y="130.7" class="st0" width="7" height="7"/>
<rect x="65.4" y="123.4" class="st0" width="7" height="7"/>
<rect x="72.6" y="94.4" class="st0" width="7" height="7"/>
<rect x="72.6" y="101.7" class="st0" width="7" height="7"/>
<rect x="72.6" y="116.2" class="st0" width="7" height="7"/>
<rect x="72.6" y="130.7" class="st0" width="7" height="7"/>
<rect x="72.6" y="123.4" class="st0" width="7" height="7"/>
<rect x="79.9" y="87.2" class="st0" width="7" height="7"/>
<rect x="79.9" y="94.4" class="st0" width="7" height="7"/>
<rect x="79.9" y="109" class="st0" width="7" height="7"/>
<rect x="79.9" y="116.2" class="st0" width="7" height="7"/>
<rect x="79.9" y="130.7" class="st0" width="7" height="7"/>
<rect x="79.9" y="138" class="st0" width="7" height="7"/>
<rect x="87.1" y="87.2" class="st0" width="7" height="7"/>
<rect x="87.1" y="101.7" class="st0" width="7" height="7"/>
<rect x="87.1" y="109" class="st0" width="7" height="7"/>
<rect x="87.1" y="123.5" class="st0" width="7" height="7"/>
<rect x="87.1" y="116.2" class="st0" width="7" height="7"/>
<rect x="94.4" y="94.4" class="st0" width="7" height="7"/>
<rect x="94.4" y="101.7" class="st0" width="7" height="7"/>
<rect x="94.4" y="116.2" class="st0" width="7" height="7"/>
<rect x="94.4" y="108.9" class="st0" width="7" height="7"/>
<rect x="94.4" y="123.5" class="st0" width="7" height="7"/>
<rect x="101.7" y="109" class="st0" width="7" height="7"/>
<rect x="101.7" y="101.7" class="st0" width="7" height="7"/>
<rect x="101.7" y="94.5" class="st0" width="7" height="7"/>
<rect x="101.7" y="87.2" class="st0" width="7" height="7"/>
<rect x="101.7" y="116.2" class="st0" width="7" height="7"/>
<rect x="101.7" y="123.5" class="st0" width="7" height="7"/>
<rect x="101.7" y="130.7" class="st0" width="7" height="7"/>
<rect x="108.9" y="94.4" class="st0" width="7" height="7"/>
<rect x="108.9" y="109" class="st0" width="7" height="7"/>
<rect x="108.9" y="123.5" class="st0" width="7" height="7"/>
<rect x="116.2" y="87.2" class="st0" width="7" height="7"/>
<rect x="116.2" y="101.7" class="st0" width="7" height="7"/>
<rect x="116.2" y="116.2" class="st0" width="7" height="7"/>
<rect x="116.2" y="130.7" class="st0" width="7" height="7"/>
<rect x="14.5" y="137.9" class="st0" width="7" height="7"/>
<rect x="21.8" y="145.2" class="st0" width="7" height="7"/>
<rect x="21.8" y="137.9" class="st0" width="7" height="7"/>
<rect x="29.1" y="145.2" class="st0" width="7" height="7"/>
<rect x="29.1" y="137.9" class="st0" width="7" height="7"/>
<rect x="29.1" y="130.6" class="st0" width="7" height="7"/>
<rect x="36.3" y="145.2" class="st0" width="7" height="7"/>
<rect x="36.3" y="137.9" class="st0" width="7" height="7"/>
<rect x="87.1" y="145.2" class="st0" width="7" height="7"/>
<rect x="87.1" y="137.9" class="st0" width="7" height="7"/>
<rect x="94.4" y="145.2" class="st0" width="7" height="7"/>
<rect x="94.4" y="137.9" class="st0" width="7" height="7"/>
<rect x="94.4" y="130.6" class="st0" width="7" height="7"/>
<rect x="101.7" y="145.2" class="st0" width="7" height="7"/>
<rect x="101.7" y="137.9" class="st0" width="7" height="7"/>
<rect x="108.9" y="137.9" class="st0" width="7" height="7"/>
</svg>
