<?xml version="1.0" encoding="utf-8"?>
<!-- Generator: Adobe Illustrator 27.3.1, SVG Export Plug-In . SVG Version: 6.00 Build 0)  -->
<svg version="1.1" id="Слой_1" xmlns="http://www.w3.org/2000/svg" xmlns:xlink="http://www.w3.org/1999/xlink" x="0px" y="0px"
	 viewBox="0 0 130.4 152.2" style="enable-background:new 0 0 130.4 152.2;" xml:space="preserve">
<style type="text/css">
	.st0{fill:#1E0E01;}
</style>
<path class="st0" d="M14.5,7.3h7v7h-7V7.3z M21.8,7.3h7v7h-7V7.3z M29.1,7.3h7v7h-7C29.1,14.3,29.1,7.3,29.1,7.3z M36.3,7.3h7v7h-7
	V7.3z M43.6,7.3h7v7h-7V7.3z M7.3,14.6h7v7h-7V14.6z M7.3,21.8h7v7h-7V21.8z M7.3,29.1h7v7h-7V29.1z M7.3,36.4h7v7h-7V36.4z
	 M7.3,43.6h7v7h-7V43.6z M7.3,50.9h7v7h-7V50.9z M7.3,58.1h7v7h-7V58.1z M7.3,65.4h7v7h-7V65.4z M7.3,72.6h7v7h-7V72.6z M7.3,79.9h7
	v7h-7V79.9z M14.5,14.6h7v7h-7V14.6z M14.5,29.1h7v7h-7V29.1z M14.5,36.4h7v7h-7V36.4z M14.5,43.6h7v7h-7V43.6z M14.5,72.6h7v7h-7
	V72.6z M14.5,79.9h7v7h-7V79.9z M21.8,21.8h7v7h-7V21.8z M21.8,29.1h7v7h-7V29.1z M21.8,36.4h7v7h-7V36.4z M21.8,50.9h7v7h-7V50.9z
	 M21.8,58.1h7v7h-7V58.1z M21.8,72.6h7v7h-7V72.6z M21.8,79.9h7v7h-7V79.9z M29.1,14.6h7v7h-7C29.1,21.6,29.1,14.6,29.1,14.6z
	 M29.1,29.1h7v7h-7C29.1,36.1,29.1,29.1,29.1,29.1z M29.1,36.4h7v7h-7C29.1,43.4,29.1,36.4,29.1,36.4z M29.1,50.9h7v7h-7
	C29.1,57.9,29.1,50.9,29.1,50.9z M29.1,65.4h7v7h-7C29.1,72.4,29.1,65.4,29.1,65.4z M29.1,72.6h7v7h-7
	C29.1,79.6,29.1,72.6,29.1,72.6z M36.3,21.8h7v7h-7V21.8z M36.3,29.1h7v7h-7V29.1z M36.3,36.4h7v7h-7V36.4z M36.3,43.6h7v7h-7V43.6z
	 M36.3,58.1h7v7h-7V58.1z M36.3,65.4h7v7h-7V65.4z M36.3,79.9h7v7h-7V79.9z M43.6,14.6h7v7h-7V14.6z M43.6,21.8h7v7h-7V21.8z
	 M43.6,29.1h7v7h-7V29.1z M43.6,36.4h7v7h-7V36.4z M43.6,43.6h7v7h-7V43.6z M43.6,50.9h7v7h-7V50.9z M43.6,58.1h7v7h-7V58.1z
	 M43.6,72.6h7v7h-7V72.6z M43.6,79.9h7v7h-7V79.9z M50.8,36.4h7v7h-7V36.4z M50.8,65.4h7v7h-7V65.4z M50.8,72.6h7v7h-7V72.6z
	 M50.8,79.9h7v7h-7V79.9z M0,94.4h7v7H0V94.4z M0,101.7h7v7H0V101.7z M0,109h7v7H0V109z M0,116.2h7v7H0V116.2z M0,123.5h7v7H0V123.5
	z M7.3,87.2h7v7h-7V87.2z M7.3,94.4h7v7h-7V94.4z M7.3,101.7h7v7h-7V101.7z M7.3,109h7v7h-7V109z M7.3,116.2h7v7h-7V116.2z
	 M7.3,123.5h7v7h-7V123.5z M7.3,130.7h7v7h-7V130.7z M7.3,138h7v7h-7V138z M14.5,87.2h7v7h-7V87.2z M14.5,94.4h7v7h-7V94.4z
	 M14.5,101.7h7v7h-7V101.7z M14.5,109h7v7h-7V109z M14.5,116.2h7v7h-7V116.2z M14.5,123.5h7v7h-7V123.5z M14.5,130.7h7v7h-7V130.7z
	 M21.8,109h7v7h-7V109z M21.8,116.2h7v7h-7V116.2z M21.8,123.5h7v7h-7V123.5z M21.8,138h7v7h-7V138z M29.1,87.2h7v7h-7
	C29.1,94.2,29.1,87.2,29.1,87.2z M29.1,94.4h7v7h-7C29.1,101.4,29.1,94.4,29.1,94.4z M29.1,101.7h7v7h-7
	C29.1,108.7,29.1,101.7,29.1,101.7z M29.1,116.2h7v7h-7C29.1,123.2,29.1,116.2,29.1,116.2z M29.1,123.5h7v7h-7
	C29.1,130.5,29.1,123.5,29.1,123.5z M29.1,130.7h7v7h-7C29.1,137.7,29.1,130.7,29.1,130.7z M36.3,87.2h7v7h-7V87.2z M36.3,94.4h7v7
	h-7V94.4z M36.3,101.7h7v7h-7V101.7z M36.3,109h7v7h-7V109z M36.3,123.5h7v7h-7V123.5z M36.3,138h7v7h-7V138z M43.6,87.2h7v7h-7
	V87.2z M43.6,101.7h7v7h-7V101.7z M43.6,109h7v7h-7V109z M43.6,116.2h7v7h-7V116.2z M43.6,130.7h7v7h-7V130.7z M43.6,138h7v7h-7V138
	z M50.8,94.4h7v7h-7V94.4z M50.8,109h7v7h-7V109z M50.8,116.2h7v7h-7V116.2z M50.8,130.7h7v7h-7V130.7z M58.1,0h7v7h-7V0z M58.1,7.3
	h7v7h-7V7.3z M65.4,0h7v7h-7V0z M65.4,7.3h7v7h-7V7.3z M79.9,7.3h7v7h-7V7.3z M87.1,7.3h7v7h-7V7.3z M94.4,7.3h7v7h-7V7.3z
	 M101.7,7.3h7v7h-7V7.3z M108.9,7.3h7v7h-7V7.3z M58.1,14.6h7v7h-7V14.6z M58.1,21.8h7v7h-7V21.8z M58.1,29.1h7v7h-7V29.1z
	 M58.1,36.4h7v7h-7V36.4z M58.1,43.6h7v7h-7V43.6z M58.1,50.9h7v7h-7V50.9z M58.1,58.1h7v7h-7V58.1z M58.1,65.4h7v7h-7V65.4z
	 M58.1,72.6h7v7h-7V72.6z M58.1,79.9h7v7h-7V79.9z M65.4,14.6h7v7h-7V14.6z M65.4,21.8h7v7h-7V21.8z M65.4,29.1h7v7h-7V29.1z
	 M65.4,36.4h7v7h-7V36.4z M65.4,43.6h7v7h-7V43.6z M65.4,50.9h7v7h-7V50.9z M65.4,58.1h7v7h-7V58.1z M65.4,65.4h7v7h-7V65.4z
	 M65.4,72.6h7v7h-7V72.6z M65.4,79.9h7v7h-7V79.9z M72.6,36.4h7v7h-7V36.4z M72.6,65.4h7v7h-7V65.4z M72.6,72.6h7v7h-7V72.6z
	 M72.6,79.9h7v7h-7V79.9z M79.9,14.6h7v7h-7V14.6z M79.9,21.8h7v7h-7V21.8z M79.9,29.1h7v7h-7V29.1z M79.9,36.4h7v7h-7V36.4z
	 M79.9,43.6h7v7h-7V43.6z M79.9,50.9h7v7h-7V50.9z M79.9,58.1h7v7h-7V58.1z M79.9,72.6h7v7h-7V72.6z M79.9,79.9h7v7h-7V79.9z
	 M87.1,21.8h7v7h-7V21.8z M87.1,29.1h7v7h-7V29.1z M87.1,36.4h7v7h-7V36.4z M87.1,43.6h7v7h-7V43.6z M87.1,58.1h7v7h-7V58.1z
	 M87.1,65.4h7v7h-7V65.4z M87.1,79.9h7v7h-7V79.9z M94.4,14.6h7v7h-7V14.6z M94.4,29.1h7v7h-7V29.1z M94.4,36.4h7v7h-7V36.4z
	 M94.4,50.9h7v7h-7V50.9z M94.4,65.4h7v7h-7V65.4z M94.4,72.6h7v7h-7V72.6z M101.7,21.8h7v7h-7V21.8z M101.7,29.1h7v7h-7V29.1z
	 M101.7,36.4h7v7h-7V36.4z M101.7,50.9h7v7h-7V50.9z M101.7,58.1h7v7h-7V58.1z M101.7,72.6h7v7h-7V72.6z M101.7,79.9h7v7h-7V79.9z
	 M108.9,14.6h7v7h-7V14.6z M108.9,29.1h7v7h-7V29.1z M108.9,36.4h7v7h-7V36.4z M108.9,43.6h7v7h-7V43.6z M108.9,72.6h7v7h-7V72.6z
	 M108.9,79.9h7v7h-7V79.9z M116.2,14.6h7v7h-7V14.6z M116.2,21.8h7v7h-7V21.8z M116.2,29.1h7v7h-7V29.1z M116.2,36.4h7v7h-7V36.4z
	 M116.2,43.6h7v7h-7V43.6z M116.2,50.9h7v7h-7V50.9z M116.2,58.1h7v7h-7V58.1z M116.2,65.4h7v7h-7V65.4z M116.2,72.6h7v7h-7V72.6z
	 M116.2,79.9h7v7h-7V79.9z M58.1,87.2h7v7h-7V87.2z M58.1,101.7h7v7h-7V101.7z M58.1,109h7v7h-7V109z M58.1,116.2h7v7h-7V116.2z
	 M58.1,130.7h7v7h-7V130.7z M65.4,87.2h7v7h-7V87.2z M65.4,94.4h7v7h-7V94.4z M65.4,101.7h7v7h-7V101.7z M65.4,109h7v7h-7V109z
	 M65.4,116.2h7v7h-7V116.2z M65.4,130.7h7v7h-7V130.7z M72.6,87.2h7v7h-7V87.2z M72.6,94.4h7v7h-7V94.4z M72.6,101.7h7v7h-7V101.7z
	 M72.6,109h7v7h-7V109z M72.6,116.2h7v7h-7V116.2z M72.6,130.7h7v7h-7V130.7z M79.9,87.2h7v7h-7V87.2z M79.9,94.4h7v7h-7V94.4z
	 M79.9,101.7h7v7h-7V101.7z M79.9,109h7v7h-7V109z M79.9,116.2h7v7h-7V116.2z M79.9,130.7h7v7h-7V130.7z M79.9,138h7v7h-7V138z
	 M87.1,87.2h7v7h-7V87.2z M87.1,94.4h7v7h-7V94.4z M87.1,101.7h7v7h-7V101.7z M87.1,109h7v7h-7V109z M87.1,123.5h7v7h-7V123.5z
	 M87.1,138h7v7h-7V138z M94.4,87.2h7v7h-7V87.2z M94.4,94.4h7v7h-7V94.4z M94.4,101.7h7v7h-7V101.7z M94.4,116.2h7v7h-7V116.2z
	 M94.4,123.5h7v7h-7V123.5z M94.4,130.7h7v7h-7V130.7z M101.7,109h7v7h-7V109z M101.7,116.2h7v7h-7V116.2z M101.7,123.5h7v7h-7
	V123.5z M101.7,138h7v7h-7V138z M108.9,87.2h7v7h-7V87.2z M108.9,94.4h7v7h-7V94.4z M108.9,101.7h7v7h-7V101.7z M108.9,109h7v7h-7
	V109z M108.9,116.2h7v7h-7V116.2z M108.9,123.5h7v7h-7V123.5z M108.9,130.7h7v7h-7V130.7z M116.2,87.2h7v7h-7V87.2z M116.2,94.4h7v7
	h-7V94.4z M116.2,101.7h7v7h-7V101.7z M116.2,109h7v7h-7V109z M116.2,116.2h7v7h-7V116.2z M116.2,123.5h7v7h-7V123.5z M116.2,130.7
	h7v7h-7V130.7z M116.2,138h7v7h-7V138z M123.4,94.4h7v7h-7C123.4,101.4,123.4,94.4,123.4,94.4z M123.4,101.7h7v7h-7
	C123.4,108.7,123.4,101.7,123.4,101.7z M123.4,109h7v7h-7C123.4,116,123.4,109,123.4,109z M123.4,116.2h7v7h-7
	C123.4,123.2,123.4,116.2,123.4,116.2z M123.4,123.5h7v7h-7C123.4,130.5,123.4,123.5,123.4,123.5z M14.5,145.2h7v7h-7V145.2z
	 M21.8,145.2h7v7h-7V145.2z M29.1,145.2h7v7h-7C29.1,152.2,29.1,145.2,29.1,145.2z M36.3,145.2h7v7h-7V145.2z M87.1,145.2h7v7h-7
	V145.2z M94.4,145.2h7v7h-7V145.2z M101.7,145.2h7v7h-7V145.2z M108.9,145.2h7v7h-7V145.2z"/>
</svg>
