<?xml version="1.0" encoding="utf-8"?>
<!-- Generator: Adobe Illustrator 27.3.1, SVG Export Plug-In . SVG Version: 6.00 Build 0)  -->
<svg version="1.1" xmlns="http://www.w3.org/2000/svg" xmlns:xlink="http://www.w3.org/1999/xlink" x="0px" y="0px"
	 viewBox="0 0 130.4 152.2" style="enable-background:new 0 0 130.4 152.2;" xml:space="preserve">
<style type="text/css">
	.st0{fill:#FCE19B;}
	.st1{fill:#1E0E01;}
</style>
<g id="Слой_2">
	<path class="st0" d="M128.3,29.1c0-2.8-2.2-5-5-5H121v-2.3c0-2.8-2.2-5-5-5h-2.3v-2.3c0-2.8-2.2-5-5-5h-7c-0.1,0-0.1,0-0.2,0h-2.3
		V7.3c0-2.8-2.2-5-5-5h-7c-0.2,0-0.3,0-0.5,0H80c-0.1,0-0.3,0-0.5,0h-2.3V0c0-2.8-2.2-5-5-5h-7c-0.1,0-0.1,0-0.2,0h-7
		c-2.8,0-5,2.2-5,5v2.3h-2.3c-0.2,0-0.3,0-0.5,0h-6.2c-0.3-0.1-0.6-0.1-0.9-0.1h-7c-2.8,0-5,2.2-5,5v2.3H29c-0.1,0-0.1,0-0.2,0h-7
		c-2.8,0-5,2.2-5,5v2.3h-2.3c-2.8,0-5,2.2-5,5V24H7.3c-2.8,0-5,2.2-5,5v7c0,0,0,0.1,0,0.1c0,0,0,0.1,0,0.1v7c0,0.1,0,0.1,0,0.1
		c0,0,0,0.1,0,0.1v7c0,0,0,0.1,0,0.1c0,0,0,0.1,0,0.1v7c0,0.1,0,0.1,0,0.1c0,0,0,0.1,0,0.1v7c0,2.8,2.2,5,5,5h2.2v2.3
		c0,2.8,2.2,5,5,5h2.3v2.3c0,0,0,0.1,0,0.2c0,0,0,0.1,0,0.2v7c0,0,0,0.1,0,0.1c0,0,0,0.1,0,0.1v7c0,0,0,0.1,0,0.2c0,0,0,0.1,0,0.2
		v2.2h-2.3c-2.8,0-5,2.2-5,5v2.3H7.3c-2.8,0-5,2.2-5,5v7c0,0,0,0.1,0,0.1c0,0.1,0,0.1,0,0.2v7c0,0,0,0.1,0,0.1c0,0,0,0.1,0,0.1v7
		c0,0,0,0.1,0,0.1c0,0.1,0,0.1,0,0.2v7c0,0,0,0.1,0,0.1c0,0,0,0.1,0,0.1v7c0,2.8,2.2,5,5,5h2.2v2.3c0,2.8,2.2,5,5,5h7
		c0.1,0,0.2,0,0.3,0h7c0.1,0,0.1,0,0.2,0h7c0.1,0,0.2,0,0.3,0h7c2.8,0,5-2.2,5-5v-2.3h2.3c0.1,0,0.1,0,0.2,0h7c0.1,0,0.2,0,0.3,0h7
		c0.1,0,0.1,0,0.2,0h7c0.1,0,0.2,0,0.3,0h7c0.1,0,0.2,0,0.3,0h2.2v2.3c0,2.8,2.2,5,5,5h7c0.1,0,0.2,0,0.3,0h7c0.1,0,0.1,0,0.2,0h7
		c0.1,0,0.2,0,0.3,0h7c2.8,0,5-2.2,5-5v-2.3h2.3c2.8,0,5-2.2,5-5v-7c0,0,0-0.1,0-0.1c0,0,0-0.1,0-0.1v-7c0,0,0-0.1,0-0.2
		c0,0,0-0.1,0-0.1v-7c0,0,0-0.1,0-0.1c0,0,0-0.1,0-0.1v-7c0,0,0-0.1,0-0.2c0,0,0-0.1,0-0.1v-7c0-2.8-2.2-5-5-5h-2.3v-2.3
		c0-2.8-2.2-5-5-5h-2.3v-2.2c0,0,0-0.1,0-0.2c0,0,0-0.1,0-0.2v-7c0,0,0-0.1,0-0.1c0,0,0-0.1,0-0.1v-7c0,0,0-0.1,0-0.2
		c0,0,0-0.1,0-0.2v-2.2h2.4c2.8,0,5-2.2,5-5v-2.3h2.3c2.8,0,5-2.2,5-5v-7c0-0.1,0-0.1,0-0.1c0-0.1,0-0.1,0-0.2v-7c0,0,0-0.1,0-0.1
		c0,0,0-0.1,0-0.1v-7c0-0.1,0-0.1,0-0.1c0-0.1,0-0.1,0-0.2v-7c0,0,0-0.1,0-0.1c0,0,0-0.1,0-0.1V29.1z"/>
</g>
<g id="Слой_1">
	<path class="st1" d="M7.3,137.9h7v7h-7V137.9z M7.3,130.7h7v7h-7V130.7z M7.3,123.4h7v7h-7V123.4z M7.3,116.2h7v7h-7V116.2z
		 M7.3,58.1h7v7h-7V58.1z M7.3,50.8h7v7h-7V50.8z M7.3,43.6h7v7h-7V43.6z M7.3,36.3h7v7h-7V36.3z M7.3,29h7v7h-7V29z M7.3,108.9h7v7
		h-7V108.9z M14.5,145.2h7v7h-7V145.2z M14.5,130.7h7v7h-7V130.7z M14.5,123.4h7v7h-7V123.4z M14.5,101.6h7v7h-7V101.6z M14.5,65.3
		h7v7h-7V65.3z M14.5,50.8h7v7h-7V50.8z M14.5,43.6h7v7h-7V43.6z M14.5,21.8h7v7h-7V21.8z M21.8,145.2h7v7h-7V145.2z M21.8,137.9h7
		v7h-7V137.9z M21.8,130.7h7v7h-7V130.7z M21.8,123.4h7v7h-7V123.4z M21.8,116.2h7v7h-7V116.2z M21.8,108.9h7v7h-7V108.9z
		 M21.8,101.6h7v7h-7V101.6z M21.8,94.4h7v7h-7V94.4z M21.8,87.1h7v7h-7V87.1z M21.8,79.9h7v7h-7V79.9z M21.8,72.6h7v7h-7V72.6z
		 M21.8,65.3h7v7h-7V65.3z M21.8,58.1h7v7h-7V58.1z M21.8,50.8h7v7h-7V50.8z M21.8,43.6h7v7h-7V43.6z M21.8,36.3h7v7h-7V36.3z
		 M21.8,29h7v7h-7V29z M21.8,21.8h7v7h-7V21.8z M21.8,14.5h7v7h-7V14.5z M29,145.2h7v7h-7V145.2z M29,123.4h7v7h-7V123.4z M29,101.6
		h7v7h-7V101.6z M29,50.8h7v7h-7V50.8z M29,29h7v7h-7V29z M29,21.8h7v7h-7V21.8z M29,14.5h7v7h-7V14.5z M36.3,145.2h7v7h-7V145.2z
		 M36.3,137.9h7v7h-7V137.9z M36.3,130.7h7v7h-7V130.7z M36.3,123.4h7v7h-7V123.4z M36.3,116.2h7v7h-7V116.2z M29,94.4h7v7h-7V94.4z
		 M29,87.1h7v7h-7V87.1z M29,79.9h7v7h-7V79.9z M29,72.6h7v7h-7V72.6z M36.3,65.3h7v7h-7V65.3z M36.3,58.1h7v7h-7V58.1z M36.3,50.8
		h7v7h-7V50.8z M36.3,43.6h7v7h-7V43.6z M36.3,36.3h7v7h-7V36.3z M36.3,29h7v7h-7V29z M36.3,21.8h7v7h-7V21.8z M36.3,14.5h7v7h-7
		V14.5z M36.3,7.3h7v7h-7V7.3z M36.3,108.9h7v7h-7V108.9z M43.6,137.9h7v7h-7V137.9z M43.6,123.4h7v7h-7V123.4z M43.6,116.2h7v7h-7
		V116.2z M36.3,101.6h7v7h-7V101.6z M43.6,94.4h7v7h-7V94.4z M43.6,87.1h7v7h-7V87.1z M43.6,79.9h7v7h-7V79.9z M43.6,72.6h7v7h-7
		V72.6z M43.6,65.3h7v7h-7V65.3z M43.6,36.3h7v7h-7V36.3z M43.6,29h7v7h-7V29z M43.6,21.8h7v7h-7V21.8z M43.6,14.5h7v7h-7V14.5z
		 M43.6,7.3h7v7h-7V7.3z M50.8,137.9h7v7h-7V137.9z M50.8,123.4h7v7h-7V123.4z M50.8,116.2h7v7h-7V116.2z M43.6,108.9h7v7h-7V108.9z
		 M50.8,94.4h7v7h-7V94.4z M50.8,87.1h7v7h-7V87.1z M50.8,65.3h7v7h-7V65.3z M50.8,58.1h7v7h-7V58.1z M50.8,50.8h7v7h-7V50.8z
		 M50.8,43.6h7v7h-7V43.6z M50.8,29h7v7h-7V29z M50.8,7.3h7v7h-7V7.3z M58.1,137.9h7v7h-7V137.9z M58.1,130.7h7v7h-7V130.7z
		 M58.1,116.2h7v7h-7V116.2z M58.1,101.6h7v7h-7V101.6z M50.8,101.6h7v7h-7V101.6z M58.1,94.4h7v7h-7V94.4z M58.1,79.9h7v7h-7V79.9z
		 M58.1,72.6h7v7h-7V72.6z M58.1,58.1h7v7h-7V58.1z M58.1,50.8h7v7h-7V50.8z M58.1,43.6h7v7h-7V43.6z M58.1,36.3h7v7h-7V36.3z
		 M58.1,29h7v7h-7V29z M58.1,21.8h7v7h-7V21.8z M58.1,14.5h7v7h-7V14.5z M58.1,7.3h7v7h-7V7.3z M58.1,0h7v7h-7V0z M65.3,137.9h7v7
		h-7V137.9z M65.3,130.7h7v7h-7V130.7z M65.3,116.2h7v7h-7V116.2z M65.3,101.6h7v7h-7V101.6z M65.3,94.4h7v7h-7V94.4z M65.3,79.9h7
		v7h-7V79.9z M65.3,72.6h7v7h-7V72.6z M65.3,58.1h7v7h-7V58.1z M65.3,50.8h7v7h-7V50.8z M65.3,43.6h7v7h-7V43.6z M65.3,36.3h7v7h-7
		V36.3z M65.3,29h7v7h-7V29z M65.3,21.8h7v7h-7V21.8z M65.3,14.5h7v7h-7V14.5z M65.3,7.3h7v7h-7V7.3z M65.3,0h7v7h-7V0z M72.6,137.9
		h7v7h-7V137.9z M72.6,123.4h7v7h-7V123.4z M72.6,116.2h7v7h-7V116.2z M72.6,101.6h7v7h-7V101.6z M72.6,94.4h7v7h-7V94.4z
		 M72.6,87.1h7v7h-7V87.1z M72.6,65.3h7v7h-7V65.3z M72.6,58.1h7v7h-7V58.1z M72.6,50.8h7v7h-7V50.8z M72.6,43.6h7v7h-7V43.6z
		 M72.6,29h7v7h-7V29z M72.6,7.3h7v7h-7V7.3z M79.9,137.9h7v7h-7V137.9z M79.9,123.4h7v7h-7V123.4z M79.9,116.2h7v7h-7V116.2z
		 M79.9,108.9h7v7h-7V108.9z M87.1,101.6h7v7h-7V101.6z M79.9,94.4h7v7h-7V94.4z M79.9,87.1h7v7h-7V87.1z M79.9,79.9h7v7h-7V79.9z
		 M79.9,72.6h7v7h-7V72.6z M79.9,65.3h7v7h-7V65.3z M79.9,36.3h7v7h-7V36.3z M79.9,29h7v7h-7V29z M79.9,21.8h7v7h-7V21.8z
		 M79.9,14.5h7v7h-7V14.5z M79.9,7.3h7v7h-7V7.3z M87.1,145.2h7v7h-7V145.2z M87.1,137.9h7v7h-7V137.9z M87.1,130.7h7v7h-7V130.7z
		 M87.1,123.4h7v7h-7V123.4z M87.1,116.2h7v7h-7V116.2z M94.4,94.4h7v7h-7V94.4z M94.4,87.1h7v7h-7V87.1z M94.4,79.9h7v7h-7V79.9z
		 M94.4,72.6h7v7h-7V72.6z M87.1,65.3h7v7h-7V65.3z M87.1,58.1h7v7h-7V58.1z M87.1,50.8h7v7h-7V50.8z M87.1,43.6h7v7h-7V43.6z
		 M87.1,36.3h7v7h-7V36.3z M87.1,29h7v7h-7V29z M87.1,21.8h7v7h-7V21.8z M87.1,14.5h7v7h-7V14.5z M87.1,7.3h7v7h-7V7.3z M87.1,108.9
		h7v7h-7V108.9z M94.4,145.2h7v7h-7V145.2z M94.4,123.4h7v7h-7V123.4z M94.4,101.6h7v7h-7V101.6z M94.4,50.8h7v7h-7V50.8z M94.4,29
		h7v7h-7V29z M94.4,21.8h7v7h-7V21.8z M94.4,14.5h7v7h-7V14.5z M101.6,145.2h7v7h-7V145.2z M101.6,137.9h7v7h-7V137.9z M101.6,130.7
		h7v7h-7V130.7z M101.6,123.4h7v7h-7V123.4z M101.6,116.2h7v7h-7V116.2z M101.6,108.9h7v7h-7V108.9z M101.6,101.6h7v7h-7V101.6z
		 M101.6,94.4h7v7h-7V94.4z M101.6,87.1h7v7h-7V87.1z M101.6,79.9h7v7h-7V79.9z M101.6,72.6h7v7h-7V72.6z M101.6,65.3h7v7h-7V65.3z
		 M101.6,58.1h7v7h-7V58.1z M101.6,50.8h7v7h-7V50.8z M101.6,43.6h7v7h-7V43.6z M101.6,36.3h7v7h-7V36.3z M101.6,29h7v7h-7V29z
		 M101.6,21.8h7v7h-7V21.8z M101.6,14.5h7v7h-7V14.5z M108.9,145.2h7v7h-7V145.2z M108.9,130.7h7v7h-7V130.7z M108.9,123.4h7v7h-7
		V123.4z M108.9,101.6h7v7h-7V101.6z M108.9,65.3h7v7h-7V65.3z M108.9,50.8h7v7h-7V50.8z M108.9,43.6h7v7h-7V43.6z M108.9,21.8h7v7
		h-7V21.8z M116.2,137.9h7v7h-7V137.9z M116.2,130.7h7v7h-7V130.7z M116.2,123.4h7v7h-7V123.4z M116.2,116.2h7v7h-7V116.2z
		 M116.2,58.1h7v7h-7V58.1z M116.2,50.8h7v7h-7V50.8z M116.2,43.6h7v7h-7V43.6z M116.2,36.3h7v7h-7V36.3z M116.2,29h7v7h-7V29z
		 M116.2,108.9h7v7h-7V108.9z"/>
</g>
</svg>
