<?xml version="1.0" encoding="utf-8"?>
<!-- Generator: Adobe Illustrator 27.3.1, SVG Export Plug-In . SVG Version: 6.00 Build 0)  -->
<svg version="1.1" xmlns="http://www.w3.org/2000/svg" xmlns:xlink="http://www.w3.org/1999/xlink" x="0px" y="0px"
	 viewBox="0 0 130.4 152.2" style="enable-background:new 0 0 130.4 152.2;" xml:space="preserve">
<style type="text/css">
	.st0{fill:#FCE19B;}
	.st1{fill:#1E0E01;}
</style>
<g id="Слой_2">
	<path class="st0" d="M135.4,7.3c0-2.8-2.2-5-5-5h-2.2V0c0-2.8-2.2-5-5-5h-7c0,0-0.1,0-0.2,0c0,0-0.1,0-0.1,0h-7c0,0-0.1,0-0.2,0
		c0,0-0.1,0-0.2,0h-7c-0.1,0-0.1,0-0.2,0h-7c-2.8,0-5,2.2-5,5v2.3h-2.3c-1.5,0-2.8,0.7-3.8,1.7c-0.9-1-2.3-1.7-3.8-1.7h-2.3V0
		c0-2.8-2.2-5-5-5h-7c-0.1,0-0.1,0-0.2,0h-7c-2.8,0-5,2.2-5,5v2.3h-2.3C49.3,2.3,48,3,47,4c-0.9-1-2.3-1.7-3.8-1.7H41V0
		c0-2.8-2.2-5-5-5h-7c-0.1,0-0.1,0-0.2,0h-7c-0.1,0-0.1,0-0.1,0c0,0-0.1,0-0.1,0h-7c-0.1,0-0.1,0-0.2,0h-7c-2.8,0-5,2.2-5,5v2.3H0
		c-2.8,0-5,2.2-5,5v7c0,0,0,0.1,0,0.1c0,0,0,0.1,0,0.1v7c0,0.1,0,0.1,0,0.1c0,0,0,0.1,0,0.1v7c0,0,0,0.1,0,0.1c0,0,0,0.1,0,0.1v7
		c0,0.1,0,0.1,0,0.1c0,0,0,0.1,0,0.1v7c0,0.1,0,0.1,0,0.2c0,0,0,0.1,0,0.1v7c0,2.8,2.2,5,5,5h2.3v2.2c0,1.5,0.7,2.8,1.7,3.8
		c-1,0.9-1.7,2.3-1.7,3.8v2.3H0c-2.8,0-5,2.2-5,5v7c0,0,0,0.1,0,0.2c0,0,0,0.1,0,0.2v7c0,0,0,0.1,0,0.1c0,0,0,0.1,0,0.1v7
		c0,0,0,0.1,0,0.2c0,0,0,0.1,0,0.2v7c0,0,0,0.1,0,0.1c0,0,0,0.1,0,0.1v7c0,0,0,0.1,0,0.2c0,0,0,0.1,0,0.2v7c0,0,0,0.1,0,0.1
		c0,0.1,0,0.1,0,0.2v7c0,0,0,0.1,0,0.1c0,0,0,0.1,0,0.1v7c0,0,0,0.1,0,0.1c0,0.1,0,0.1,0,0.2v7c0,0,0,0.1,0,0.1c0,0,0,0.1,0,0.1v7
		c0,2.8,2.2,5,5,5h2.3v2.3c0,2.8,2.2,5,5,5h7c0.1,0,0.1,0,0.2,0h7c0.1,0,0.2,0,0.3,0h7c0.1,0,0.1,0,0.2,0h7c0.1,0,0.2,0,0.3,0h7
		c2.8,0,5-2.2,5-5v-2.3h2.3c0.1,0,0.1,0,0.2,0h7c0.1,0,0.2,0,0.3,0h7c0.1,0,0.1,0,0.2,0h7c0.1,0,0.2,0,0.3,0h7c0.1,0,0.2,0,0.3,0
		h2.2v2.3c0,2.8,2.2,5,5,5h7c0.1,0,0.2,0,0.3,0h7c0.1,0,0.1,0,0.2,0h7c0.1,0,0.2,0,0.3,0h7c0.1,0,0.2,0,0.3,0h7c2.8,0,5-2.2,5-5
		v-2.3h2.2c2.8,0,5-2.2,5-5v-7c0,0,0-0.1,0-0.1c0,0,0-0.1,0-0.1v-7c0,0,0-0.1,0-0.2c0,0,0-0.1,0-0.1v-7c0,0,0-0.1,0-0.1
		c0,0,0-0.1,0-0.1v-7c0,0,0-0.1,0-0.2c0,0,0-0.1,0-0.1v-7c0,0,0-0.1,0-0.2c0,0,0-0.1,0-0.2v-7c0,0,0-0.1,0-0.1c0,0,0-0.1,0-0.1v-7
		c0,0,0-0.1,0-0.2c0,0,0-0.1,0-0.2v-7c0,0,0-0.1,0-0.1c0,0,0-0.1,0-0.1v-7c0,0,0-0.1,0-0.2c0,0,0-0.1,0-0.2v-7c0-2.8-2.2-5-5-5h-2.2
		v-2.3c0-1.5-0.7-2.8-1.7-3.8c1-0.9,1.7-2.3,1.7-3.8v-2.2h2.2c2.8,0,5-2.2,5-5v-7c0-0.1,0-0.1,0-0.1c0-0.1,0-0.1,0-0.2v-7
		c0-0.1,0-0.1,0-0.1c0,0,0-0.1,0-0.1v-7c0,0,0-0.1,0-0.1c0,0,0-0.1,0-0.1v-7c0-0.1,0-0.1,0-0.1c0,0,0-0.1,0-0.1v-7c0,0,0-0.1,0-0.1
		c0,0,0-0.1,0-0.1V7.3z"/>
</g>
<g id="Слой_1">
	<rect x="7.3" y="145.2" class="st1" width="7" height="7"/>
	<rect x="7.3" y="137.9" class="st1" width="7" height="7"/>
	<rect y="137.9" class="st1" width="7" height="7"/>
	<rect y="130.7" class="st1" width="7" height="7"/>
	<rect y="123.4" class="st1" width="7" height="7"/>
	<rect x="7.3" y="116.2" class="st1" width="7" height="7"/>
	<rect y="116.2" class="st1" width="7" height="7"/>
	<rect y="108.9" class="st1" width="7" height="7"/>
	<rect y="101.6" class="st1" width="7" height="7"/>
	<rect x="7.3" y="94.4" class="st1" width="7" height="7"/>
	<rect y="94.4" class="st1" width="7" height="7"/>
	<rect y="87.1" class="st1" width="7" height="7"/>
	<rect y="79.9" class="st1" width="7" height="7"/>
	<rect x="7.3" y="72.6" class="st1" width="7" height="7"/>
	<rect y="72.6" class="st1" width="7" height="7"/>
	<rect x="7.3" y="65.3" class="st1" width="7" height="7"/>
	<rect x="7.3" y="50.8" class="st1" width="7" height="7"/>
	<rect y="43.6" class="st1" width="7" height="7"/>
	<rect y="36.3" class="st1" width="7" height="7"/>
	<rect x="7.3" y="29" class="st1" width="7" height="7"/>
	<rect x="7.3" y="21.8" class="st1" width="7" height="7"/>
	<rect y="29" class="st1" width="7" height="7"/>
	<rect y="21.8" class="st1" width="7" height="7"/>
	<rect y="14.5" class="st1" width="7" height="7"/>
	<rect y="7.3" class="st1" width="7" height="7"/>
	<rect x="7.3" class="st1" width="7" height="7"/>
	<rect x="14.5" y="145.2" class="st1" width="7" height="7"/>
	<rect x="14.5" y="137.9" class="st1" width="7" height="7"/>
	<rect x="14.5" y="130.7" class="st1" width="7" height="7"/>
	<rect x="14.5" y="123.4" class="st1" width="7" height="7"/>
	<rect x="14.5" y="116.2" class="st1" width="7" height="7"/>
	<rect x="14.5" y="101.6" class="st1" width="7" height="7"/>
	<rect x="14.5" y="94.4" class="st1" width="7" height="7"/>
	<rect x="14.5" y="87.1" class="st1" width="7" height="7"/>
	<rect x="14.5" y="79.9" class="st1" width="7" height="7"/>
	<rect x="14.5" y="72.6" class="st1" width="7" height="7"/>
	<rect x="14.5" y="65.3" class="st1" width="7" height="7"/>
	<rect x="7.3" y="58.1" class="st1" width="7" height="7"/>
	<rect x="14.5" y="58.1" class="st1" width="7" height="7"/>
	<rect x="14.5" y="50.8" class="st1" width="7" height="7"/>
	<rect x="14.5" y="43.6" class="st1" width="7" height="7"/>
	<rect x="14.5" y="36.3" class="st1" width="7" height="7"/>
	<rect x="14.5" y="29" class="st1" width="7" height="7"/>
	<rect x="14.5" y="21.8" class="st1" width="7" height="7"/>
	<rect x="14.5" y="14.5" class="st1" width="7" height="7"/>
	<rect x="14.5" y="7.3" class="st1" width="7" height="7"/>
	<rect x="14.5" class="st1" width="7" height="7"/>
	<rect x="21.8" y="145.2" class="st1" width="7" height="7"/>
	<rect x="21.8" y="137.9" class="st1" width="7" height="7"/>
	<rect x="21.8" y="130.7" class="st1" width="7" height="7"/>
	<rect x="14.5" y="108.9" class="st1" width="7" height="7"/>
	<rect x="21.8" y="94.4" class="st1" width="7" height="7"/>
	<rect x="21.8" y="87.1" class="st1" width="7" height="7"/>
	<rect x="21.8" y="79.9" class="st1" width="7" height="7"/>
	<rect x="21.8" y="72.6" class="st1" width="7" height="7"/>
	<rect x="21.8" y="65.3" class="st1" width="7" height="7"/>
	<rect x="21.8" y="36.3" class="st1" width="7" height="7"/>
	<rect x="21.8" y="29" class="st1" width="7" height="7"/>
	<rect x="21.8" y="7.3" class="st1" width="7" height="7"/>
	<rect x="21.8" class="st1" width="7" height="7"/>
	<rect x="29" y="145.2" class="st1" width="7" height="7"/>
	<rect x="29" y="137.9" class="st1" width="7" height="7"/>
	<rect x="29" y="130.7" class="st1" width="7" height="7"/>
	<rect x="21.8" y="123.4" class="st1" width="7" height="7"/>
	<rect x="29" y="116.2" class="st1" width="7" height="7"/>
	<rect x="29" y="108.9" class="st1" width="7" height="7"/>
	<rect x="29" y="101.6" class="st1" width="7" height="7"/>
	<rect x="29" y="87.1" class="st1" width="7" height="7"/>
	<rect x="29" y="79.9" class="st1" width="7" height="7"/>
	<rect x="29" y="72.6" class="st1" width="7" height="7"/>
	<rect x="29" y="65.3" class="st1" width="7" height="7"/>
	<rect x="29" y="58.1" class="st1" width="7" height="7"/>
	<rect x="21.8" y="58.1" class="st1" width="7" height="7"/>
	<rect x="29" y="50.8" class="st1" width="7" height="7"/>
	<rect x="29" y="43.6" class="st1" width="7" height="7"/>
	<rect x="29" y="36.3" class="st1" width="7" height="7"/>
	<rect x="29" y="29" class="st1" width="7" height="7"/>
	<rect x="29" y="21.8" class="st1" width="7" height="7"/>
	<rect x="29" y="14.5" class="st1" width="7" height="7"/>
	<rect x="29" y="7.3" class="st1" width="7" height="7"/>
	<rect x="29" class="st1" width="7" height="7"/>
	<rect x="36.3" y="145.2" class="st1" width="7" height="7"/>
	<rect x="36.3" y="137.9" class="st1" width="7" height="7"/>
	<rect x="36.3" y="116.2" class="st1" width="7" height="7"/>
	<rect x="36.3" y="108.9" class="st1" width="7" height="7"/>
	<rect x="36.3" y="101.6" class="st1" width="7" height="7"/>
	<rect x="36.3" y="94.4" class="st1" width="7" height="7"/>
	<rect x="36.3" y="79.9" class="st1" width="7" height="7"/>
	<rect x="36.3" y="72.6" class="st1" width="7" height="7"/>
	<rect x="43.6" y="72.6" class="st1" width="7" height="7"/>
	<rect x="36.3" y="65.3" class="st1" width="7" height="7"/>
	<rect x="36.3" y="58.1" class="st1" width="7" height="7"/>
	<rect x="36.3" y="50.8" class="st1" width="7" height="7"/>
	<rect x="36.3" y="43.6" class="st1" width="7" height="7"/>
	<rect x="43.6" y="43.6" class="st1" width="7" height="7"/>
	<rect x="36.3" y="36.3" class="st1" width="7" height="7"/>
	<rect x="36.3" y="29" class="st1" width="7" height="7"/>
	<rect x="43.6" y="29" class="st1" width="7" height="7"/>
	<rect x="36.3" y="21.8" class="st1" width="7" height="7"/>
	<rect x="36.3" y="14.5" class="st1" width="7" height="7"/>
	<rect x="36.3" y="7.3" class="st1" width="7" height="7"/>
	<rect x="43.6" y="137.9" class="st1" width="7" height="7"/>
	<rect x="43.6" y="116.2" class="st1" width="7" height="7"/>
	<rect x="43.6" y="108.9" class="st1" width="7" height="7"/>
	<rect x="43.6" y="94.4" class="st1" width="7" height="7"/>
	<rect x="43.6" y="87.1" class="st1" width="7" height="7"/>
	<rect x="43.6" y="57.8" class="st1" width="7" height="7"/>
	<rect x="43.6" y="14.6" class="st1" width="7" height="7"/>
	<rect x="50.8" y="137.9" class="st1" width="7" height="7"/>
	<rect x="50.8" y="116.2" class="st1" width="7" height="7"/>
	<rect x="50.8" y="101.6" class="st1" width="7" height="7"/>
	<rect x="50.8" y="87.1" class="st1" width="7" height="7"/>
	<rect x="50.8" y="79.9" class="st1" width="7" height="7"/>
	<rect x="50.8" y="65.3" class="st1" width="7" height="7"/>
	<rect x="50.8" y="50.8" class="st1" width="7" height="7"/>
	<rect x="50.8" y="36.3" class="st1" width="7" height="7"/>
	<rect x="50.8" y="21.8" class="st1" width="7" height="7"/>
	<rect x="50.8" y="7.3" class="st1" width="7" height="7"/>
	<rect x="58.1" y="137.9" class="st1" width="7" height="7"/>
	<rect x="58.1" y="116.2" class="st1" width="7" height="7"/>
	<rect x="58.1" y="87.1" class="st1" width="7" height="7"/>
	<rect x="58.1" y="79.9" class="st1" width="7" height="7"/>
	<rect x="58.1" y="72.6" class="st1" width="7" height="7"/>
	<rect x="58.1" y="65.3" class="st1" width="7" height="7"/>
	<rect x="58.1" y="58.1" class="st1" width="7" height="7"/>
	<rect x="58.1" y="50.8" class="st1" width="7" height="7"/>
	<rect x="58.1" y="43.6" class="st1" width="7" height="7"/>
	<rect x="58.1" y="36.3" class="st1" width="7" height="7"/>
	<rect x="58.1" y="29" class="st1" width="7" height="7"/>
	<rect x="58.1" y="21.8" class="st1" width="7" height="7"/>
	<rect x="58.1" y="14.5" class="st1" width="7" height="7"/>
	<rect x="58.1" y="7.3" class="st1" width="7" height="7"/>
	<rect x="58.1" class="st1" width="7" height="7"/>
	<rect x="65.3" y="137.9" class="st1" width="7" height="7"/>
	<rect x="65.3" y="116.2" class="st1" width="7" height="7"/>
	<rect x="65.3" y="108.9" class="st1" width="7" height="7"/>
	<rect x="58.1" y="101.6" class="st1" width="7" height="7"/>
	<rect x="65.3" y="94.4" class="st1" width="7" height="7"/>
	<rect x="65.3" y="87.1" class="st1" width="7" height="7"/>
	<rect x="65.3" y="79.9" class="st1" width="7" height="7"/>
	<rect x="65.3" y="72.6" class="st1" width="7" height="7"/>
	<rect x="65.3" y="65.3" class="st1" width="7" height="7"/>
	<rect x="65.3" y="58.1" class="st1" width="7" height="7"/>
	<rect x="65.3" y="50.8" class="st1" width="7" height="7"/>
	<rect x="65.3" y="43.6" class="st1" width="7" height="7"/>
	<rect x="65.3" y="36.3" class="st1" width="7" height="7"/>
	<rect x="65.3" y="29" class="st1" width="7" height="7"/>
	<rect x="65.3" y="21.8" class="st1" width="7" height="7"/>
	<rect x="65.3" y="14.5" class="st1" width="7" height="7"/>
	<rect x="65.3" y="7.3" class="st1" width="7" height="7"/>
	<rect x="65.3" class="st1" width="7" height="7"/>
	<rect x="72.6" y="137.9" class="st1" width="7" height="7"/>
	<rect x="72.6" y="116.2" class="st1" width="7" height="7"/>
	<rect x="72.6" y="108.9" class="st1" width="7" height="7"/>
	<rect x="72.6" y="101.6" class="st1" width="7" height="7"/>
	<rect x="72.6" y="94.4" class="st1" width="7" height="7"/>
	<rect x="72.6" y="87.1" class="st1" width="7" height="7"/>
	<rect x="72.6" y="79.9" class="st1" width="7" height="7"/>
	<rect x="72.6" y="65.3" class="st1" width="7" height="7"/>
	<rect x="72.6" y="50.8" class="st1" width="7" height="7"/>
	<rect x="72.6" y="36.3" class="st1" width="7" height="7"/>
	<rect x="72.6" y="21.8" class="st1" width="7" height="7"/>
	<rect x="72.6" y="7.3" class="st1" width="7" height="7"/>
	<rect x="79.9" y="137.9" class="st1" width="7" height="7"/>
	<rect x="79.9" y="116.2" class="st1" width="7" height="7"/>
	<rect x="79.9" y="108.9" class="st1" width="7" height="7"/>
	<rect x="79.9" y="101.6" class="st1" width="7" height="7"/>
	<rect x="79.9" y="94.4" class="st1" width="7" height="7"/>
	<rect x="79.9" y="87.1" class="st1" width="7" height="7"/>
	<rect x="79.9" y="58.1" class="st1" width="7" height="7"/>
	<rect x="79.9" y="14.6" class="st1" width="7" height="7"/>
	<rect x="87.1" y="145.2" class="st1" width="7" height="7"/>
	<rect x="87.1" y="137.9" class="st1" width="7" height="7"/>
	<rect x="36.3" y="123.4" class="st1" width="7" height="7"/>
	<rect x="43.6" y="123.4" class="st1" width="7" height="7"/>
	<rect x="50.8" y="123.4" class="st1" width="7" height="7"/>
	<rect x="58.1" y="123.4" class="st1" width="7" height="7"/>
	<rect x="65.3" y="123.4" class="st1" width="7" height="7"/>
	<rect x="72.6" y="123.4" class="st1" width="7" height="7"/>
	<rect x="79.9" y="123.4" class="st1" width="7" height="7"/>
	<rect x="87.1" y="123.4" class="st1" width="7" height="7"/>
	<rect x="87.1" y="116.2" class="st1" width="7" height="7"/>
	<rect x="87.1" y="108.9" class="st1" width="7" height="7"/>
	<rect x="87.1" y="101.6" class="st1" width="7" height="7"/>
	<rect x="87.1" y="94.4" class="st1" width="7" height="7"/>
	<rect x="87.1" y="79.9" class="st1" width="7" height="7"/>
	<rect x="87.1" y="72.6" class="st1" width="7" height="7"/>
	<rect x="79.6" y="72.6" class="st1" width="7" height="7"/>
	<rect x="87.1" y="65.3" class="st1" width="7" height="7"/>
	<rect x="87.1" y="58.1" class="st1" width="7" height="7"/>
	<rect x="87.1" y="50.8" class="st1" width="7" height="7"/>
	<rect x="87.1" y="43.6" class="st1" width="7" height="7"/>
	<rect x="79.9" y="43.6" class="st1" width="7" height="7"/>
	<rect x="87.1" y="36.3" class="st1" width="7" height="7"/>
	<rect x="87.1" y="29" class="st1" width="7" height="7"/>
	<rect x="79.8" y="29" class="st1" width="7" height="7"/>
	<rect x="87.1" y="21.8" class="st1" width="7" height="7"/>
	<rect x="87.1" y="14.5" class="st1" width="7" height="7"/>
	<rect x="87.1" y="7.3" class="st1" width="7" height="7"/>
	<rect x="94.4" y="145.2" class="st1" width="7" height="7"/>
	<rect x="94.4" y="137.9" class="st1" width="7" height="7"/>
	<rect x="101.6" y="123.4" class="st1" width="7" height="7"/>
	<rect x="94.4" y="130.7" class="st1" width="7" height="7"/>
	<rect x="94.4" y="116.2" class="st1" width="7" height="7"/>
	<rect x="94.4" y="108.9" class="st1" width="7" height="7"/>
	<rect x="94.4" y="101.6" class="st1" width="7" height="7"/>
	<rect x="94.4" y="87.1" class="st1" width="7" height="7"/>
	<rect x="94.4" y="79.9" class="st1" width="7" height="7"/>
	<rect x="94.4" y="72.6" class="st1" width="7" height="7"/>
	<rect x="94.4" y="65.3" class="st1" width="7" height="7"/>
	<rect x="94.4" y="58.1" class="st1" width="7" height="7"/>
	<rect x="101.6" y="58.1" class="st1" width="7" height="7"/>
	<rect x="94.4" y="50.8" class="st1" width="7" height="7"/>
	<rect x="94.4" y="43.6" class="st1" width="7" height="7"/>
	<rect x="94.4" y="36.3" class="st1" width="7" height="7"/>
	<rect x="94.4" y="29" class="st1" width="7" height="7"/>
	<rect x="94.4" y="21.8" class="st1" width="7" height="7"/>
	<rect x="94.4" y="14.5" class="st1" width="7" height="7"/>
	<rect x="94.4" y="7.3" class="st1" width="7" height="7"/>
	<rect x="94.4" class="st1" width="7" height="7"/>
	<rect x="101.6" y="145.2" class="st1" width="7" height="7"/>
	<rect x="101.6" y="137.9" class="st1" width="7" height="7"/>
	<rect x="101.6" y="130.7" class="st1" width="7" height="7"/>
	<rect x="108.9" y="109" class="st1" width="7" height="7"/>
	<rect x="101.6" y="94.4" class="st1" width="7" height="7"/>
	<rect x="101.6" y="87.1" class="st1" width="7" height="7"/>
	<rect x="101.6" y="79.9" class="st1" width="7" height="7"/>
	<rect x="101.6" y="72.6" class="st1" width="7" height="7"/>
	<rect x="101.6" y="65.3" class="st1" width="7" height="7"/>
	<rect x="101.6" y="36.3" class="st1" width="7" height="7"/>
	<rect x="101.6" y="29" class="st1" width="7" height="7"/>
	<rect x="101.6" y="7.3" class="st1" width="7" height="7"/>
	<rect x="101.6" class="st1" width="7" height="7"/>
	<rect x="108.9" y="145.2" class="st1" width="7" height="7"/>
	<rect x="108.9" y="137.9" class="st1" width="7" height="7"/>
	<rect x="108.9" y="130.7" class="st1" width="7" height="7"/>
	<rect x="108.9" y="123.4" class="st1" width="7" height="7"/>
	<rect x="108.9" y="116.2" class="st1" width="7" height="7"/>
	<rect x="108.9" y="101.6" class="st1" width="7" height="7"/>
	<rect x="108.9" y="94.4" class="st1" width="7" height="7"/>
	<rect x="108.9" y="87.1" class="st1" width="7" height="7"/>
	<rect x="108.9" y="79.9" class="st1" width="7" height="7"/>
	<rect x="108.9" y="72.6" class="st1" width="7" height="7"/>
	<rect x="108.9" y="65.3" class="st1" width="7" height="7"/>
	<rect x="108.9" y="50.8" class="st1" width="7" height="7"/>
	<rect x="108.9" y="43.6" class="st1" width="7" height="7"/>
	<rect x="108.9" y="36.3" class="st1" width="7" height="7"/>
	<rect x="108.9" y="29" class="st1" width="7" height="7"/>
	<rect x="108.9" y="21.8" class="st1" width="7" height="7"/>
	<rect x="108.9" y="14.5" class="st1" width="7" height="7"/>
	<rect x="108.9" y="7.3" class="st1" width="7" height="7"/>
	<rect x="108.9" class="st1" width="7" height="7"/>
	<rect x="116.2" y="145.2" class="st1" width="7" height="7"/>
	<rect x="116.2" y="137.9" class="st1" width="7" height="7"/>
	<rect x="116.2" y="116.2" class="st1" width="7" height="7"/>
	<rect x="116.2" y="94.4" class="st1" width="7" height="7"/>
	<rect x="116.2" y="72.6" class="st1" width="7" height="7"/>
	<rect x="116.2" y="65.3" class="st1" width="7" height="7"/>
	<rect x="108.9" y="58.1" class="st1" width="7" height="7"/>
	<rect x="116.2" y="58.1" class="st1" width="7" height="7"/>
	<rect x="116.2" y="50.8" class="st1" width="7" height="7"/>
	<rect x="116.2" y="29" class="st1" width="7" height="7"/>
	<rect x="116.2" y="21.8" class="st1" width="7" height="7"/>
	<rect x="116.2" class="st1" width="7" height="7"/>
	<rect x="123.4" y="137.9" class="st1" width="7" height="7"/>
	<rect x="123.4" y="130.7" class="st1" width="7" height="7"/>
	<rect x="123.4" y="123.4" class="st1" width="7" height="7"/>
	<rect x="123.4" y="116.2" class="st1" width="7" height="7"/>
	<rect x="123.4" y="108.9" class="st1" width="7" height="7"/>
	<rect x="123.4" y="101.6" class="st1" width="7" height="7"/>
	<rect x="123.4" y="94.4" class="st1" width="7" height="7"/>
	<rect x="123.4" y="87.1" class="st1" width="7" height="7"/>
	<rect x="123.4" y="79.9" class="st1" width="7" height="7"/>
	<rect x="123.4" y="72.6" class="st1" width="7" height="7"/>
	<rect x="123.4" y="43.6" class="st1" width="7" height="7"/>
	<rect x="123.4" y="36.3" class="st1" width="7" height="7"/>
	<rect x="123.4" y="29" class="st1" width="7" height="7"/>
	<rect x="123.4" y="21.8" class="st1" width="7" height="7"/>
	<rect x="123.4" y="14.5" class="st1" width="7" height="7"/>
	<rect x="123.4" y="7.3" class="st1" width="7" height="7"/>
</g>
</svg>
