<?xml version="1.0" encoding="utf-8"?>
<!-- Generator: Adobe Illustrator 27.3.1, SVG Export Plug-In . SVG Version: 6.00 Build 0)  -->
<svg version="1.1" id="Слой_1" xmlns:ev="http://www.w3.org/2001/xml-events"
	 xmlns="http://www.w3.org/2000/svg" xmlns:xlink="http://www.w3.org/1999/xlink" x="0px" y="0px" viewBox="0 0 871 595"
	 style="enable-background:new 0 0 871 595;" xml:space="preserve">
<style type="text/css">
	.st0{fill:#1E0E01;}
</style>
<path class="st0" d="M413.8,21.8h7v7h-7V21.8z M421.1,21.8h7v7h-7V21.8z M428.3,21.8h7v7h-7V21.8z M435.6,21.8h7v7h-7V21.8z
	 M442.9,21.8h7v7h-7V21.8z M450.1,21.8h7v7h-7V21.8z M457.4,21.8h7v7h-7V21.8z M464.6,21.8h7v7h-7V21.8z M471.9,21.8h7v7h-7V21.8z
	 M479.2,21.8h7v7h-7V21.8z M515.5,21.8h7v7h-7V21.8z M522.7,21.8h7v7h-7V21.8z M530,21.8h7v7h-7V21.8z M588.1,21.8h7v7h-7V21.8z
	 M595.3,21.8h7v7h-7V21.8z M602.6,21.8h7v7h-7V21.8z M609.8,21.8h7v7h-7V21.8z M660.7,21.8h7v7h-7V21.8z M667.9,21.8h7v7h-7V21.8z
	 M704.2,21.8h7v7h-7V21.8z M711.5,21.8h7v7h-7V21.8z M755,21.8h7v7h-7V21.8z M762.3,21.8h7v7h-7V21.8z M769.6,21.8h7v7h-7V21.8z
	 M805.9,21.8h7v7h-7V21.8z M813.1,21.8h7v7h-7V21.8z M820.4,21.8h7v7h-7V21.8z M827.6,21.8h7v7h-7V21.8z M834.9,21.8h7v7h-7V21.8z
	 M413.8,29h7v7h-7V29z M421.1,29h7v7h-7V29z M428.3,29h7v7h-7V29z M435.6,29h7v7h-7V29z M442.9,29h7v7h-7V29z M450.1,29h7v7h-7V29z
	 M457.4,29h7v7h-7V29z M464.6,29h7v7h-7V29z M471.9,29h7v7h-7V29z M479.2,29h7v7h-7V29z M508.2,29h7v7h-7V29z M515.5,29h7v7h-7V29z
	 M522.7,29h7v7h-7V29z M530,29h7v7h-7V29z M537.2,29h7v7h-7V29z M588.1,29h7v7h-7V29z M595.3,29h7v7h-7V29z M602.6,29h7v7h-7V29z
	 M609.8,29h7v7h-7V29z M660.7,29h7v7h-7V29z M667.9,29h7v7h-7V29z M704.2,29h7v7h-7V29z M711.5,29h7v7h-7V29z M718.7,29h7v7h-7V29z
	 M747.8,29h7v7h-7V29z M755,29h7v7h-7V29z M762.3,29h7v7h-7V29z M769.6,29h7v7h-7V29z M798.6,29h7v7h-7V29z M805.9,29h7v7h-7V29z
	 M813.1,29h7v7h-7V29z M820.4,29h7v7h-7V29z M827.6,29h7v7h-7V29z M834.9,29h7v7h-7V29z M842.2,29h7v7h-7V29z M413.8,36.3h7v7h-7
	V36.3z M421.1,36.3h7v7h-7V36.3z M428.3,36.3h7v7h-7V36.3z M435.6,36.3h7v7h-7V36.3z M442.9,36.3h7v7h-7V36.3z M450.1,36.3h7v7h-7
	V36.3z M457.4,36.3h7v7h-7V36.3z M464.6,36.3h7v7h-7V36.3z M471.9,36.3h7v7h-7V36.3z M479.2,36.3h7v7h-7V36.3z M508.2,36.3h7v7h-7
	V36.3z M515.5,36.3h7v7h-7V36.3z M522.7,36.3h7v7h-7V36.3z M530,36.3h7v7h-7V36.3z M537.2,36.3h7v7h-7V36.3z M588.1,36.3h7v7h-7
	V36.3z M595.3,36.3h7v7h-7V36.3z M602.6,36.3h7v7h-7V36.3z M609.8,36.3h7v7h-7V36.3z M617.1,36.3h7v7h-7V36.3z M660.7,36.3h7v7h-7
	V36.3z M667.9,36.3h7v7h-7V36.3z M704.2,36.3h7v7h-7V36.3z M711.5,36.3h7v7h-7V36.3z M718.7,36.3h7v7h-7V36.3z M747.8,36.3h7v7h-7
	V36.3z M755,36.3h7v7h-7V36.3z M762.3,36.3h7v7h-7V36.3z M791.3,36.3h7v7h-7V36.3z M798.6,36.3h7v7h-7V36.3z M805.9,36.3h7v7h-7
	V36.3z M813.1,36.3h7v7h-7V36.3z M820.4,36.3h7v7h-7V36.3z M827.6,36.3h7v7h-7V36.3z M834.9,36.3h7v7h-7V36.3z M842.2,36.3h7v7h-7
	V36.3z M435.6,43.6h7v7h-7V43.6z M442.9,43.6h7v7h-7V43.6z M450.1,43.6h7v7h-7V43.6z M508.2,43.6h7v7h-7V43.6z M515.5,43.6h7v7h-7
	V43.6z M522.7,43.6h7v7h-7V43.6z M530,43.6h7v7h-7V43.6z M537.2,43.6h7v7h-7V43.6z M544.5,43.6h7v7h-7V43.6z M588.1,43.6h7v7h-7
	V43.6z M595.3,43.6h7v7h-7V43.6z M602.6,43.6h7v7h-7V43.6z M609.8,43.6h7v7h-7V43.6z M617.1,43.6h7v7h-7V43.6z M624.4,43.6h7v7h-7
	V43.6z M660.7,43.6h7v7h-7V43.6z M667.9,43.6h7v7h-7V43.6z M704.2,43.6h7v7h-7V43.6z M711.5,43.6h7v7h-7V43.6z M718.7,43.6h7v7h-7
	V43.6z M740.5,43.6h7v7h-7V43.6z M747.8,43.6h7v7h-7V43.6z M755,43.6h7v7h-7V43.6z M791.3,43.6h7v7h-7V43.6z M798.6,43.6h7v7h-7
	V43.6z M805.9,43.6h7v7h-7V43.6z M435.6,50.8h7v7h-7V50.8z M442.9,50.8h7v7h-7V50.8z M450.1,50.8h7v7h-7V50.8z M500.9,50.8h7v7h-7
	V50.8z M508.2,50.8h7v7h-7V50.8z M515.5,50.8h7v7h-7V50.8z M530,50.8h7v7h-7V50.8z M537.2,50.8h7v7h-7V50.8z M544.5,50.8h7v7h-7
	V50.8z M588.1,50.8h7v7h-7V50.8z M595.3,50.8h7v7h-7V50.8z M602.6,50.8h7v7h-7V50.8z M609.8,50.8h7v7h-7V50.8z M617.1,50.8h7v7h-7
	V50.8z M624.4,50.8h7v7h-7V50.8z M660.7,50.8h7v7h-7V50.8z M667.9,50.8h7v7h-7V50.8z M704.2,50.8h7v7h-7V50.8z M711.5,50.8h7v7h-7
	V50.8z M718.7,50.8h7v7h-7V50.8z M733.3,50.8h7v7h-7V50.8z M740.5,50.8h7v7h-7V50.8z M747.8,50.8h7v7h-7V50.8z M791.3,50.8h7v7h-7
	V50.8z M798.6,50.8h7v7h-7V50.8z M805.9,50.8h7v7h-7V50.8z M435.6,58.1h7v7h-7V58.1z M442.9,58.1h7v7h-7V58.1z M450.1,58.1h7v7h-7
	V58.1z M500.9,58.1h7v7h-7V58.1z M508.2,58.1h7v7h-7V58.1z M515.5,58.1h7v7h-7V58.1z M537.2,58.1h7v7h-7V58.1z M544.5,58.1h7v7h-7
	V58.1z M588.1,58.1h7v7h-7V58.1z M595.3,58.1h7v7h-7V58.1z M602.6,58.1h7v7h-7V58.1z M617.1,58.1h7v7h-7V58.1z M624.4,58.1h7v7h-7
	V58.1z M631.6,58.1h7v7h-7V58.1z M660.7,58.1h7v7h-7V58.1z M667.9,58.1h7v7h-7V58.1z M704.2,58.1h7v7h-7V58.1z M711.5,58.1h7v7h-7
	V58.1z M718.7,58.1h7v7h-7V58.1z M726,58.1h7v7h-7V58.1z M733.3,58.1h7v7h-7V58.1z M740.5,58.1h7v7h-7V58.1z M747.8,58.1h7v7h-7
	V58.1z M791.3,58.1h7v7h-7V58.1z M798.6,58.1h7v7h-7V58.1z M805.9,58.1h7v7h-7V58.1z M813.1,58.1h7v7h-7V58.1z M435.6,65.3h7v7h-7
	V65.3z M442.9,65.3h7v7h-7V65.3z M450.1,65.3h7v7h-7V65.3z M500.9,65.3h7v7h-7V65.3z M508.2,65.3h7v7h-7V65.3z M515.5,65.3h7v7h-7
	V65.3z M537.2,65.3h7v7h-7V65.3z M544.5,65.3h7v7h-7V65.3z M551.8,65.3h7v7h-7V65.3z M588.1,65.3h7v7h-7V65.3z M595.3,65.3h7v7h-7
	V65.3z M602.6,65.3h7v7h-7V65.3z M617.1,65.3h7v7h-7V65.3z M624.4,65.3h7v7h-7V65.3z M631.6,65.3h7v7h-7V65.3z M660.7,65.3h7v7h-7
	V65.3z M667.9,65.3h7v7h-7V65.3z M704.2,65.3h7v7h-7V65.3z M711.5,65.3h7v7h-7V65.3z M718.7,65.3h7v7h-7V65.3z M726,65.3h7v7h-7
	V65.3z M733.3,65.3h7v7h-7V65.3z M740.5,65.3h7v7h-7V65.3z M798.6,65.3h7v7h-7V65.3z M805.9,65.3h7v7h-7V65.3z M813.1,65.3h7v7h-7
	V65.3z M820.4,65.3h7v7h-7V65.3z M827.6,65.3h7v7h-7V65.3z M435.6,72.6h7v7h-7V72.6z M442.9,72.6h7v7h-7V72.6z M450.1,72.6h7v7h-7
	V72.6z M493.7,72.6h7v7h-7V72.6z M500.9,72.6h7v7h-7V72.6z M508.2,72.6h7v7h-7V72.6z M537.2,72.6h7v7h-7V72.6z M544.5,72.6h7v7h-7
	V72.6z M551.8,72.6h7v7h-7V72.6z M588.1,72.6h7v7h-7V72.6z M595.3,72.6h7v7h-7V72.6z M602.6,72.6h7v7h-7V72.6z M624.4,72.6h7v7h-7
	V72.6z M631.6,72.6h7v7h-7V72.6z M638.9,72.6h7v7h-7V72.6z M660.7,72.6h7v7h-7V72.6z M667.9,72.6h7v7h-7V72.6z M704.2,72.6h7v7h-7
	V72.6z M711.5,72.6h7v7h-7V72.6z M718.7,72.6h7v7h-7V72.6z M726,72.6h7v7h-7V72.6z M733.3,72.6h7v7h-7V72.6z M740.5,72.6h7v7h-7
	V72.6z M747.8,72.6h7v7h-7V72.6z M805.9,72.6h7v7h-7V72.6z M813.1,72.6h7v7h-7V72.6z M820.4,72.6h7v7h-7V72.6z M827.6,72.6h7v7h-7
	V72.6z M834.9,72.6h7v7h-7V72.6z M435.6,79.9h7v7h-7V79.9z M442.9,79.9h7v7h-7V79.9z M450.1,79.9h7v7h-7V79.9z M493.7,79.9h7v7h-7
	V79.9z M500.9,79.9h7v7h-7V79.9z M508.2,79.9h7v7h-7V79.9z M515.5,79.9h7v7h-7V79.9z M522.7,79.9h7v7h-7V79.9z M530,79.9h7v7h-7
	V79.9z M537.2,79.9h7v7h-7V79.9z M544.5,79.9h7v7h-7V79.9z M551.8,79.9h7v7h-7V79.9z M588.1,79.9h7v7h-7V79.9z M595.3,79.9h7v7h-7
	V79.9z M602.6,79.9h7v7h-7V79.9z M624.4,79.9h7v7h-7V79.9z M631.6,79.9h7v7h-7V79.9z M638.9,79.9h7v7h-7V79.9z M660.7,79.9h7v7h-7
	V79.9z M667.9,79.9h7v7h-7V79.9z M704.2,79.9h7v7h-7V79.9z M711.5,79.9h7v7h-7V79.9z M718.7,79.9h7v7h-7V79.9z M726,79.9h7v7h-7
	V79.9z M733.3,79.9h7v7h-7V79.9z M740.5,79.9h7v7h-7V79.9z M747.8,79.9h7v7h-7V79.9z M820.4,79.9h7v7h-7V79.9z M827.6,79.9h7v7h-7
	V79.9z M834.9,79.9h7v7h-7V79.9z M842.2,79.9h7v7h-7V79.9z M435.6,87.1h7v7h-7V87.1z M442.9,87.1h7v7h-7V87.1z M450.1,87.1h7v7h-7
	V87.1z M493.7,87.1h7v7h-7V87.1z M500.9,87.1h7v7h-7V87.1z M508.2,87.1h7v7h-7V87.1z M515.5,87.1h7v7h-7V87.1z M522.7,87.1h7v7h-7
	V87.1z M530,87.1h7v7h-7V87.1z M537.2,87.1h7v7h-7V87.1z M544.5,87.1h7v7h-7V87.1z M551.8,87.1h7v7h-7V87.1z M559,87.1h7v7h-7V87.1z
	 M588.1,87.1h7v7h-7V87.1z M595.3,87.1h7v7h-7V87.1z M602.6,87.1h7v7h-7V87.1z M631.6,87.1h7v7h-7V87.1z M638.9,87.1h7v7h-7V87.1z
	 M646.1,87.1h7v7h-7V87.1z M660.7,87.1h7v7h-7V87.1z M667.9,87.1h7v7h-7V87.1z M704.2,87.1h7v7h-7V87.1z M711.5,87.1h7v7h-7V87.1z
	 M718.7,87.1h7v7h-7V87.1z M740.5,87.1h7v7h-7V87.1z M747.8,87.1h7v7h-7V87.1z M755,87.1h7v7h-7V87.1z M827.6,87.1h7v7h-7V87.1z
	 M834.9,87.1h7v7h-7V87.1z M842.2,87.1h7v7h-7V87.1z M435.6,94.4h7v7h-7V94.4z M442.9,94.4h7v7h-7V94.4z M450.1,94.4h7v7h-7V94.4z
	 M486.4,94.4h7v7h-7V94.4z M493.7,94.4h7v7h-7V94.4z M500.9,94.4h7v7h-7V94.4z M508.2,94.4h7v7h-7V94.4z M515.5,94.4h7v7h-7V94.4z
	 M522.7,94.4h7v7h-7V94.4z M530,94.4h7v7h-7V94.4z M537.2,94.4h7v7h-7V94.4z M544.5,94.4h7v7h-7V94.4z M551.8,94.4h7v7h-7V94.4z
	 M559,94.4h7v7h-7V94.4z M588.1,94.4h7v7h-7V94.4z M595.3,94.4h7v7h-7V94.4z M602.6,94.4h7v7h-7V94.4z M631.6,94.4h7v7h-7V94.4z
	 M638.9,94.4h7v7h-7V94.4z M646.1,94.4h7v7h-7V94.4z M653.4,94.4h7v7h-7V94.4z M660.7,94.4h7v7h-7V94.4z M667.9,94.4h7v7h-7V94.4z
	 M704.2,94.4h7v7h-7V94.4z M711.5,94.4h7v7h-7V94.4z M718.7,94.4h7v7h-7V94.4z M740.5,94.4h7v7h-7V94.4z M747.8,94.4h7v7h-7V94.4z
	 M755,94.4h7v7h-7V94.4z M762.3,94.4h7v7h-7V94.4z M834.9,94.4h7v7h-7V94.4z M842.2,94.4h7v7h-7V94.4z M849.4,94.4h7v7h-7V94.4z
	 M435.6,101.6h7v7h-7V101.6z M442.9,101.6h7v7h-7V101.6z M450.1,101.6h7v7h-7V101.6z M486.4,101.6h7v7h-7V101.6z M493.7,101.6h7v7
	h-7V101.6z M500.9,101.6h7v7h-7V101.6z M544.5,101.6h7v7h-7V101.6z M551.8,101.6h7v7h-7V101.6z M559,101.6h7v7h-7V101.6z
	 M588.1,101.6h7v7h-7V101.6z M595.3,101.6h7v7h-7V101.6z M602.6,101.6h7v7h-7V101.6z M638.9,101.6h7v7h-7V101.6z M646.1,101.6h7v7
	h-7V101.6z M653.4,101.6h7v7h-7V101.6z M660.7,101.6h7v7h-7V101.6z M667.9,101.6h7v7h-7V101.6z M704.2,101.6h7v7h-7V101.6z
	 M711.5,101.6h7v7h-7V101.6z M718.7,101.6h7v7h-7V101.6z M747.8,101.6h7v7h-7V101.6z M755,101.6h7v7h-7V101.6z M762.3,101.6h7v7h-7
	V101.6z M784.1,101.6h7v7h-7V101.6z M791.3,101.6h7v7h-7V101.6z M798.6,101.6h7v7h-7V101.6z M827.6,101.6h7v7h-7V101.6z
	 M834.9,101.6h7v7h-7V101.6z M842.2,101.6h7v7h-7V101.6z M435.6,108.9h7v7h-7V108.9z M442.9,108.9h7v7h-7V108.9z M450.1,108.9h7v7
	h-7V108.9z M486.4,108.9h7v7h-7V108.9z M493.7,108.9h7v7h-7V108.9z M500.9,108.9h7v7h-7V108.9z M551.8,108.9h7v7h-7V108.9z
	 M559,108.9h7v7h-7V108.9z M566.3,108.9h7v7h-7V108.9z M588.1,108.9h7v7h-7V108.9z M595.3,108.9h7v7h-7V108.9z M602.6,108.9h7v7h-7
	V108.9z M646.1,108.9h7v7h-7V108.9z M653.4,108.9h7v7h-7V108.9z M660.7,108.9h7v7h-7V108.9z M667.9,108.9h7v7h-7V108.9z
	 M704.2,108.9h7v7h-7V108.9z M711.5,108.9h7v7h-7V108.9z M718.7,108.9h7v7h-7V108.9z M747.8,108.9h7v7h-7V108.9z M755,108.9h7v7h-7
	V108.9z M762.3,108.9h7v7h-7V108.9z M769.6,108.9h7v7h-7V108.9z M784.1,108.9h7v7h-7V108.9z M791.3,108.9h7v7h-7V108.9z
	 M798.6,108.9h7v7h-7V108.9z M805.9,108.9h7v7h-7V108.9z M813.1,108.9h7v7h-7V108.9z M820.4,108.9h7v7h-7V108.9z M827.6,108.9h7v7
	h-7V108.9z M834.9,108.9h7v7h-7V108.9z M842.2,108.9h7v7h-7V108.9z M435.6,116.2h7v7h-7V116.2z M442.9,116.2h7v7h-7V116.2z
	 M450.1,116.2h7v7h-7V116.2z M479.2,116.2h7v7h-7V116.2z M486.4,116.2h7v7h-7V116.2z M493.7,116.2h7v7h-7V116.2z M551.8,116.2h7v7
	h-7V116.2z M559,116.2h7v7h-7V116.2z M566.3,116.2h7v7h-7V116.2z M588.1,116.2h7v7h-7V116.2z M595.3,116.2h7v7h-7V116.2z
	 M602.6,116.2h7v7h-7V116.2z M646.1,116.2h7v7h-7V116.2z M653.4,116.2h7v7h-7V116.2z M660.7,116.2h7v7h-7V116.2z M667.9,116.2h7v7
	h-7V116.2z M704.2,116.2h7v7h-7V116.2z M711.5,116.2h7v7h-7V116.2z M718.7,116.2h7v7h-7V116.2z M755,116.2h7v7h-7V116.2z
	 M762.3,116.2h7v7h-7V116.2z M769.6,116.2h7v7h-7V116.2z M791.3,116.2h7v7h-7V116.2z M798.6,116.2h7v7h-7V116.2z M805.9,116.2h7v7
	h-7V116.2z M813.1,116.2h7v7h-7V116.2z M820.4,116.2h7v7h-7V116.2z M827.6,116.2h7v7h-7V116.2z M834.9,116.2h7v7h-7V116.2z
	 M29,137.9h7v7h-7V137.9z M36.3,137.9h7v7h-7V137.9z M43.6,137.9h7v7h-7V137.9z M50.8,137.9h7v7h-7V137.9z M14.5,145.2h7v7h-7V145.2
	z M21.8,145.2h7v7h-7V145.2z M29,145.2h7v7h-7V145.2z M36.3,145.2h7v7h-7V145.2z M43.6,145.2h7v7h-7V145.2z M50.8,145.2h7v7h-7
	V145.2z M58.1,145.2h7v7h-7V145.2z M65.3,145.2h7v7h-7V145.2z M399.3,145.2h7v7h-7V145.2z M406.6,145.2h7v7h-7V145.2z M7.3,152.5h7
	v7h-7V152.5z M14.5,152.5h7v7h-7V152.5z M21.8,152.5h7v7h-7V152.5z M29,152.5h7v7h-7V152.5z M36.3,152.5h7v7h-7V152.5z M43.6,152.5
	h7v7h-7V152.5z M50.8,152.5h7v7h-7V152.5z M58.1,152.5h7v7h-7V152.5z M65.3,152.5h7v7h-7V152.5z M72.6,152.5h7v7h-7V152.5z
	 M370.3,152.5h7v7h-7V152.5z M377.5,152.5h7v7h-7V152.5z M384.8,152.5h7v7h-7V152.5z M392,152.5h7v7h-7V152.5z M399.3,152.5h7v7h-7
	V152.5z M406.6,152.5h7v7h-7V152.5z M7.3,159.7h7v7h-7V159.7z M14.5,159.7h7v7h-7V159.7z M21.8,159.7h7v7h-7V159.7z M29,159.7h7v7
	h-7V159.7z M36.3,159.7h7v7h-7V159.7z M43.6,159.7h7v7h-7V159.7z M50.8,159.7h7v7h-7V159.7z M58.1,159.7h7v7h-7V159.7z M65.3,159.7
	h7v7h-7V159.7z M72.6,159.7h7v7h-7V159.7z M79.9,159.7h7v7h-7V159.7z M304.9,159.7h7v7h-7V159.7z M312.2,159.7h7v7h-7V159.7z
	 M319.4,159.7h7v7h-7V159.7z M326.7,159.7h7v7h-7V159.7z M334,159.7h7v7h-7V159.7z M341.2,159.7h7v7h-7V159.7z M348.5,159.7h7v7h-7
	V159.7z M355.7,159.7h7v7h-7V159.7z M363,159.7h7v7h-7V159.7z M370.3,159.7h7v7h-7V159.7z M377.5,159.7h7v7h-7V159.7z M7.3,167h7v7
	h-7V167z M14.5,167h7v7h-7V167z M21.8,167h7v7h-7V167z M29,167h7v7h-7V167z M36.3,167h7v7h-7V167z M43.6,167h7v7h-7V167z M50.8,167
	h7v7h-7V167z M58.1,167h7v7h-7V167z M65.3,167h7v7h-7V167z M72.6,167h7v7h-7V167z M79.9,167h7v7h-7V167z M275.9,167h7v7h-7V167z
	 M283.1,167h7v7h-7V167z M290.4,167h7v7h-7V167z M297.7,167h7v7h-7V167z M304.9,167h7v7h-7V167z M319.4,167h7v7h-7V167z M341.2,167
	h7v7h-7V167z M348.5,167h7v7h-7V167z M355.7,167h7v7h-7V167z M7.3,174.2h7v7h-7V174.2z M14.5,174.2h7v7h-7V174.2z M21.8,174.2h7v7
	h-7V174.2z M36.3,174.2h7v7h-7V174.2z M43.6,174.2h7v7h-7V174.2z M50.8,174.2h7v7h-7V174.2z M58.1,174.2h7v7h-7V174.2z M65.3,174.2
	h7v7h-7V174.2z M72.6,174.2h7v7h-7V174.2z M79.9,174.2h7v7h-7V174.2z M268.6,174.2h7v7h-7V174.2z M283.1,174.2h7v7h-7V174.2z
	 M290.4,174.2h7v7h-7V174.2z M297.7,174.2h7v7h-7V174.2z M304.9,174.2h7v7h-7V174.2z M312.2,174.2h7v7h-7V174.2z M319.4,174.2h7v7
	h-7V174.2z M326.7,174.2h7v7h-7V174.2z M334,174.2h7v7h-7V174.2z M341.2,174.2h7v7h-7V174.2z M348.5,174.2h7v7h-7V174.2z M7.3,181.5
	h7v7h-7V181.5z M50.8,181.5h7v7h-7V181.5z M58.1,181.5h7v7h-7V181.5z M65.3,181.5h7v7h-7V181.5z M72.6,181.5h7v7h-7V181.5z
	 M79.9,181.5h7v7h-7V181.5z M87.1,181.5h7v7h-7V181.5z M254.1,181.5h7v7h-7V181.5z M261.4,181.5h7v7h-7V181.5z M268.6,181.5h7v7h-7
	V181.5z M283.1,181.5h7v7h-7V181.5z M290.4,181.5h7v7h-7V181.5z M297.7,181.5h7v7h-7V181.5z M304.9,181.5h7v7h-7V181.5z
	 M312.2,181.5h7v7h-7V181.5z M319.4,181.5h7v7h-7V181.5z M326.7,181.5h7v7h-7V181.5z M334,181.5h7v7h-7V181.5z M341.2,181.5h7v7h-7
	V181.5z M348.5,181.5h7v7h-7V181.5z M58.1,188.8h7v7h-7V188.8z M65.3,188.8h7v7h-7V188.8z M72.6,188.8h7v7h-7V188.8z M79.9,188.8h7
	v7h-7V188.8z M87.1,188.8h7v7h-7V188.8z M268.6,188.8h7v7h-7V188.8z M275.9,188.8h7v7h-7V188.8z M283.1,188.8h7v7h-7V188.8z
	 M290.4,188.8h7v7h-7V188.8z M297.7,188.8h7v7h-7V188.8z M304.9,188.8h7v7h-7V188.8z M312.2,188.8h7v7h-7V188.8z M319.4,188.8h7v7
	h-7V188.8z M326.7,188.8h7v7h-7V188.8z M58.1,196h7v7h-7V196z M65.3,196h7v7h-7V196z M72.6,196h7v7h-7V196z M79.9,196h7v7h-7V196z
	 M87.1,196h7v7h-7V196z M275.9,196h7v7h-7V196z M283.1,196h7v7h-7V196z M290.4,196h7v7h-7V196z M297.7,196h7v7h-7V196z M304.9,196h7
	v7h-7V196z M312.2,196h7v7h-7V196z M319.4,196h7v7h-7V196z M326.7,196h7v7h-7V196z M334,196h7v7h-7V196z M341.2,196h7v7h-7V196z
	 M348.5,196h7v7h-7V196z M355.7,196h7v7h-7V196z M363,196h7v7h-7V196z M370.3,196h7v7h-7V196z M791.3,196h7v7h-7V196z M798.6,196h7
	v7h-7V196z M805.9,196h7v7h-7V196z M813.1,196h7v7h-7V196z M820.4,196h7v7h-7V196z M827.6,196h7v7h-7V196z M834.9,196h7v7h-7V196z
	 M842.2,196h7v7h-7V196z M849.4,196h7v7h-7V196z M65.3,203.3h7v7h-7V203.3z M72.6,203.3h7v7h-7V203.3z M79.9,203.3h7v7h-7V203.3z
	 M87.1,203.3h7v7h-7V203.3z M268.6,203.3h7v7h-7V203.3z M275.9,203.3h7v7h-7V203.3z M283.1,203.3h7v7h-7V203.3z M290.4,203.3h7v7h-7
	V203.3z M297.7,203.3h7v7h-7V203.3z M304.9,203.3h7v7h-7V203.3z M312.2,203.3h7v7h-7V203.3z M319.4,203.3h7v7h-7V203.3z
	 M326.7,203.3h7v7h-7V203.3z M334,203.3h7v7h-7V203.3z M341.2,203.3h7v7h-7V203.3z M348.5,203.3h7v7h-7V203.3z M355.7,203.3h7v7h-7
	V203.3z M363,203.3h7v7h-7V203.3z M370.3,203.3h7v7h-7V203.3z M377.5,203.3h7v7h-7V203.3z M384.8,203.3h7v7h-7V203.3z M784.1,203.3
	h7v7h-7V203.3z M827.6,203.3h7v7h-7V203.3z M856.7,203.3h7v7h-7V203.3z M65.3,210.5h7v7h-7V210.5z M72.6,210.5h7v7h-7V210.5z
	 M79.9,210.5h7v7h-7V210.5z M87.1,210.5h7v7h-7V210.5z M116.2,210.5h7v7h-7V210.5z M123.4,210.5h7v7h-7V210.5z M130.7,210.5h7v7h-7
	V210.5z M137.9,210.5h7v7h-7V210.5z M261.4,210.5h7v7h-7V210.5z M268.6,210.5h7v7h-7V210.5z M275.9,210.5h7v7h-7V210.5z
	 M290.4,210.5h7v7h-7V210.5z M297.7,210.5h7v7h-7V210.5z M304.9,210.5h7v7h-7V210.5z M384.8,210.5h7v7h-7V210.5z M392,210.5h7v7h-7
	V210.5z M399.3,210.5h7v7h-7V210.5z M406.6,210.5h7v7h-7V210.5z M413.8,210.5h7v7h-7V210.5z M762.3,210.5h7v7h-7V210.5z
	 M769.6,210.5h7v7h-7V210.5z M776.8,210.5h7v7h-7V210.5z M798.6,210.5h7v7h-7V210.5z M820.4,210.5h7v7h-7V210.5z M827.6,210.5h7v7
	h-7V210.5z M842.2,210.5h7v7h-7V210.5z M849.4,210.5h7v7h-7V210.5z M863.9,210.5h7v7h-7V210.5z M65.3,217.8h7v7h-7V217.8z
	 M72.6,217.8h7v7h-7V217.8z M79.9,217.8h7v7h-7V217.8z M87.1,217.8h7v7h-7V217.8z M101.6,217.8h7v7h-7V217.8z M108.9,217.8h7v7h-7
	V217.8z M116.2,217.8h7v7h-7V217.8z M123.4,217.8h7v7h-7V217.8z M130.7,217.8h7v7h-7V217.8z M137.9,217.8h7v7h-7V217.8z
	 M145.2,217.8h7v7h-7V217.8z M254.1,217.8h7v7h-7V217.8z M261.4,217.8h7v7h-7V217.8z M268.6,217.8h7v7h-7V217.8z M275.9,217.8h7v7
	h-7V217.8z M283.1,217.8h7v7h-7V217.8z M290.4,217.8h7v7h-7V217.8z M297.7,217.8h7v7h-7V217.8z M304.9,217.8h7v7h-7V217.8z
	 M312.2,217.8h7v7h-7V217.8z M319.4,217.8h7v7h-7V217.8z M326.7,217.8h7v7h-7V217.8z M334,217.8h7v7h-7V217.8z M341.2,217.8h7v7h-7
	V217.8z M348.5,217.8h7v7h-7V217.8z M377.5,217.8h7v7h-7V217.8z M384.8,217.8h7v7h-7V217.8z M392,217.8h7v7h-7V217.8z M399.3,217.8
	h7v7h-7V217.8z M406.6,217.8h7v7h-7V217.8z M413.8,217.8h7v7h-7V217.8z M421.1,217.8h7v7h-7V217.8z M718.7,217.8h7v7h-7V217.8z
	 M726,217.8h7v7h-7V217.8z M733.3,217.8h7v7h-7V217.8z M740.5,217.8h7v7h-7V217.8z M747.8,217.8h7v7h-7V217.8z M755,217.8h7v7h-7
	V217.8z M776.8,217.8h7v7h-7V217.8z M798.6,217.8h7v7h-7V217.8z M820.4,217.8h7v7h-7V217.8z M827.6,217.8h7v7h-7V217.8z
	 M842.2,217.8h7v7h-7V217.8z M849.4,217.8h7v7h-7V217.8z M863.9,217.8h7v7h-7V217.8z M58.1,225.1h7v7h-7V225.1z M65.3,225.1h7v7h-7
	V225.1z M72.6,225.1h7v7h-7V225.1z M79.9,225.1h7v7h-7V225.1z M87.1,225.1h7v7h-7V225.1z M94.4,225.1h7v7h-7V225.1z M101.6,225.1h7
	v7h-7V225.1z M108.9,225.1h7v7h-7V225.1z M116.2,225.1h7v7h-7V225.1z M123.4,225.1h7v7h-7V225.1z M130.7,225.1h7v7h-7V225.1z
	 M137.9,225.1h7v7h-7V225.1z M145.2,225.1h7v7h-7V225.1z M152.5,225.1h7v7h-7V225.1z M239.6,225.1h7v7h-7V225.1z M246.8,225.1h7v7
	h-7V225.1z M254.1,225.1h7v7h-7V225.1z M261.4,225.1h7v7h-7V225.1z M268.6,225.1h7v7h-7V225.1z M275.9,225.1h7v7h-7V225.1z
	 M283.1,225.1h7v7h-7V225.1z M290.4,225.1h7v7h-7V225.1z M297.7,225.1h7v7h-7V225.1z M304.9,225.1h7v7h-7V225.1z M312.2,225.1h7v7
	h-7V225.1z M319.4,225.1h7v7h-7V225.1z M326.7,225.1h7v7h-7V225.1z M334,225.1h7v7h-7V225.1z M341.2,225.1h7v7h-7V225.1z
	 M348.5,225.1h7v7h-7V225.1z M355.7,225.1h7v7h-7V225.1z M363,225.1h7v7h-7V225.1z M370.3,225.1h7v7h-7V225.1z M377.5,225.1h7v7h-7
	V225.1z M384.8,225.1h7v7h-7V225.1z M392,225.1h7v7h-7V225.1z M399.3,225.1h7v7h-7V225.1z M406.6,225.1h7v7h-7V225.1z M413.8,225.1
	h7v7h-7V225.1z M421.1,225.1h7v7h-7V225.1z M428.3,225.1h7v7h-7V225.1z M435.6,225.1h7v7h-7V225.1z M442.9,225.1h7v7h-7V225.1z
	 M450.1,225.1h7v7h-7V225.1z M675.2,225.1h7v7h-7V225.1z M682.4,225.1h7v7h-7V225.1z M689.7,225.1h7v7h-7V225.1z M697,225.1h7v7h-7
	V225.1z M704.2,225.1h7v7h-7V225.1z M711.5,225.1h7v7h-7V225.1z M755,225.1h7v7h-7V225.1z M776.8,225.1h7v7h-7V225.1z M798.6,225.1
	h7v7h-7V225.1z M820.4,225.1h7v7h-7V225.1z M827.6,225.1h7v7h-7V225.1z M842.2,225.1h7v7h-7V225.1z M849.4,225.1h7v7h-7V225.1z
	 M863.9,225.1h7v7h-7V225.1z M58.1,232.3h7v7h-7V232.3z M65.3,232.3h7v7h-7V232.3z M72.6,232.3h7v7h-7V232.3z M79.9,232.3h7v7h-7
	V232.3z M87.1,232.3h7v7h-7V232.3z M94.4,232.3h7v7h-7V232.3z M101.6,232.3h7v7h-7V232.3z M108.9,232.3h7v7h-7V232.3z M116.2,232.3
	h7v7h-7V232.3z M123.4,232.3h7v7h-7V232.3z M130.7,232.3h7v7h-7V232.3z M137.9,232.3h7v7h-7V232.3z M145.2,232.3h7v7h-7V232.3z
	 M152.5,232.3h7v7h-7V232.3z M159.7,232.3h7v7h-7V232.3z M196,232.3h7v7h-7V232.3z M203.3,232.3h7v7h-7V232.3z M210.5,232.3h7v7h-7
	V232.3z M217.8,232.3h7v7h-7V232.3z M225.1,232.3h7v7h-7V232.3z M232.3,232.3h7v7h-7V232.3z M239.6,232.3h7v7h-7V232.3z
	 M254.1,232.3h7v7h-7V232.3z M261.4,232.3h7v7h-7V232.3z M319.4,232.3h7v7h-7V232.3z M326.7,232.3h7v7h-7V232.3z M406.6,232.3h7v7
	h-7V232.3z M428.3,232.3h7v7h-7V232.3z M450.1,232.3h7v7h-7V232.3z M457.4,232.3h7v7h-7V232.3z M464.6,232.3h7v7h-7V232.3z
	 M471.9,232.3h7v7h-7V232.3z M479.2,232.3h7v7h-7V232.3z M486.4,232.3h7v7h-7V232.3z M631.6,232.3h7v7h-7V232.3z M624.4,232.3h7v7
	h-7V232.3z M638.9,232.3h7v7h-7V232.3z M646.1,232.3h7v7h-7V232.3z M653.4,232.3h7v7h-7V232.3z M660.7,232.3h7v7h-7V232.3z
	 M667.9,232.3h7v7h-7V232.3z M682.4,232.3h7v7h-7V232.3z M711.5,232.3h7v7h-7V232.3z M726,232.3h7v7h-7V232.3z M755,232.3h7v7h-7
	V232.3z M762.3,232.3h7v7h-7V232.3z M776.8,232.3h7v7h-7V232.3z M784.1,232.3h7v7h-7V232.3z M798.6,232.3h7v7h-7V232.3z
	 M805.9,232.3h7v7h-7V232.3z M820.4,232.3h7v7h-7V232.3z M827.6,232.3h7v7h-7V232.3z M842.2,232.3h7v7h-7V232.3z M849.4,232.3h7v7
	h-7V232.3z M863.9,232.3h7v7h-7V232.3z M50.8,239.6h7v7h-7V239.6z M58.1,239.6h7v7h-7V239.6z M65.3,239.6h7v7h-7V239.6z M72.6,239.6
	h7v7h-7V239.6z M79.9,239.6h7v7h-7V239.6z M87.1,239.6h7v7h-7V239.6z M94.4,239.6h7v7h-7V239.6z M101.6,239.6h7v7h-7V239.6z
	 M108.9,239.6h7v7h-7V239.6z M116.2,239.6h7v7h-7V239.6z M123.4,239.6h7v7h-7V239.6z M130.7,239.6h7v7h-7V239.6z M137.9,239.6h7v7
	h-7V239.6z M145.2,239.6h7v7h-7V239.6z M152.5,239.6h7v7h-7V239.6z M159.7,239.6h7v7h-7V239.6z M167,239.6h7v7h-7V239.6z
	 M174.2,239.6h7v7h-7V239.6z M203.3,239.6h7v7h-7V239.6z M210.5,239.6h7v7h-7V239.6z M217.8,239.6h7v7h-7V239.6z M225.1,239.6h7v7
	h-7V239.6z M232.3,239.6h7v7h-7V239.6z M239.6,239.6h7v7h-7V239.6z M254.1,239.6h7v7h-7V239.6z M268.6,239.6h7v7h-7V239.6z
	 M275.9,239.6h7v7h-7V239.6z M312.2,239.6h7v7h-7V239.6z M319.4,239.6h7v7h-7V239.6z M326.7,239.6h7v7h-7V239.6z M334,239.6h7v7h-7
	V239.6z M428.3,239.6h7v7h-7V239.6z M435.6,239.6h7v7h-7V239.6z M464.6,239.6h7v7h-7V239.6z M471.9,239.6h7v7h-7V239.6z
	 M479.2,239.6h7v7h-7V239.6z M486.4,239.6h7v7h-7V239.6z M493.7,239.6h7v7h-7V239.6z M500.9,239.6h7v7h-7V239.6z M595.3,239.6h7v7
	h-7V239.6z M588.1,239.6h7v7h-7V239.6z M602.6,239.6h7v7h-7V239.6z M609.8,239.6h7v7h-7V239.6z M617.1,239.6h7v7h-7V239.6z
	 M646.1,239.6h7v7h-7V239.6z M682.4,239.6h7v7h-7V239.6z M711.5,239.6h7v7h-7V239.6z M726,239.6h7v7h-7V239.6z M733.3,239.6h7v7h-7
	V239.6z M755,239.6h7v7h-7V239.6z M762.3,239.6h7v7h-7V239.6z M769.6,239.6h7v7h-7V239.6z M776.8,239.6h7v7h-7V239.6z M784.1,239.6
	h7v7h-7V239.6z M791.3,239.6h7v7h-7V239.6z M798.6,239.6h7v7h-7V239.6z M805.9,239.6h7v7h-7V239.6z M813.1,239.6h7v7h-7V239.6z
	 M820.4,239.6h7v7h-7V239.6z M827.6,239.6h7v7h-7V239.6z M834.9,239.6h7v7h-7V239.6z M856.7,239.6h7v7h-7V239.6z M50.8,246.8h7v7h-7
	V246.8z M58.1,246.8h7v7h-7V246.8z M65.3,246.8h7v7h-7V246.8z M101.6,246.8h7v7h-7V246.8z M108.9,246.8h7v7h-7V246.8z M116.2,246.8
	h7v7h-7V246.8z M123.4,246.8h7v7h-7V246.8z M130.7,246.8h7v7h-7V246.8z M145.2,246.8h7v7h-7V246.8z M152.5,246.8h7v7h-7V246.8z
	 M159.7,246.8h7v7h-7V246.8z M167,246.8h7v7h-7V246.8z M174.2,246.8h7v7h-7V246.8z M181.5,246.8h7v7h-7V246.8z M188.8,246.8h7v7h-7
	V246.8z M196,246.8h7v7h-7V246.8z M217.8,246.8h7v7h-7V246.8z M225.1,246.8h7v7h-7V246.8z M232.3,246.8h7v7h-7V246.8z M239.6,246.8
	h7v7h-7V246.8z M246.8,246.8h7v7h-7V246.8z M268.6,246.8h7v7h-7V246.8z M275.9,246.8h7v7h-7V246.8z M297.7,246.8h7v7h-7V246.8z
	 M319.4,246.8h7v7h-7V246.8z M326.7,246.8h7v7h-7V246.8z M334,246.8h7v7h-7V246.8z M421.1,246.8h7v7h-7V246.8z M428.3,246.8h7v7h-7
	V246.8z M471.9,246.8h7v7h-7V246.8z M479.2,246.8h7v7h-7V246.8z M486.4,246.8h7v7h-7V246.8z M493.7,246.8h7v7h-7V246.8z
	 M500.9,246.8h7v7h-7V246.8z M508.2,246.8h7v7h-7V246.8z M551.8,246.8h7v7h-7V246.8z M559,246.8h7v7h-7V246.8z M566.3,246.8h7v7h-7
	V246.8z M573.5,246.8h7v7h-7V246.8z M580.8,246.8h7v7h-7V246.8z M609.8,246.8h7v7h-7V246.8z M646.1,246.8h7v7h-7V246.8z
	 M667.9,246.8h7v7h-7V246.8z M682.4,246.8h7v7h-7V246.8z M689.7,246.8h7v7h-7V246.8z M704.2,246.8h7v7h-7V246.8z M711.5,246.8h7v7
	h-7V246.8z M718.7,246.8h7v7h-7V246.8z M726,246.8h7v7h-7V246.8z M733.3,246.8h7v7h-7V246.8z M740.5,246.8h7v7h-7V246.8z
	 M747.8,246.8h7v7h-7V246.8z M755,246.8h7v7h-7V246.8z M762.3,246.8h7v7h-7V246.8z M769.6,246.8h7v7h-7V246.8z M776.8,246.8h7v7h-7
	V246.8z M784.1,246.8h7v7h-7V246.8z M791.3,246.8h7v7h-7V246.8z M798.6,246.8h7v7h-7V246.8z M805.9,246.8h7v7h-7V246.8z
	 M813.1,246.8h7v7h-7V246.8z M820.4,246.8h7v7h-7V246.8z M827.6,246.8h7v7h-7V246.8z M834.9,246.8h7v7h-7V246.8z M842.2,246.8h7v7
	h-7V246.8z M849.4,246.8h7v7h-7V246.8z M50.8,254.1h7v7h-7V254.1z M58.1,254.1h7v7h-7V254.1z M116.2,254.1h7v7h-7V254.1z
	 M123.4,254.1h7v7h-7V254.1z M130.7,254.1h7v7h-7V254.1z M137.9,254.1h7v7h-7V254.1z M145.2,254.1h7v7h-7V254.1z M152.5,254.1h7v7
	h-7V254.1z M159.7,254.1h7v7h-7V254.1z M181.5,254.1h7v7h-7V254.1z M196,254.1h7v7h-7V254.1z M210.5,254.1h7v7h-7V254.1z
	 M217.8,254.1h7v7h-7V254.1z M225.1,254.1h7v7h-7V254.1z M232.3,254.1h7v7h-7V254.1z M239.6,254.1h7v7h-7V254.1z M246.8,254.1h7v7
	h-7V254.1z M268.6,254.1h7v7h-7V254.1z M297.7,254.1h7v7h-7V254.1z M319.4,254.1h7v7h-7V254.1z M326.7,254.1h7v7h-7V254.1z
	 M413.8,254.1h7v7h-7V254.1z M421.1,254.1h7v7h-7V254.1z M428.3,254.1h7v7h-7V254.1z M464.6,254.1h7v7h-7V254.1z M471.9,254.1h7v7
	h-7V254.1z M479.2,254.1h7v7h-7V254.1z M486.4,254.1h7v7h-7V254.1z M493.7,254.1h7v7h-7V254.1z M500.9,254.1h7v7h-7V254.1z
	 M508.2,254.1h7v7h-7V254.1z M515.5,254.1h7v7h-7V254.1z M522.7,254.1h7v7h-7V254.1z M530,254.1h7v7h-7V254.1z M537.2,254.1h7v7h-7
	V254.1z M544.5,254.1h7v7h-7V254.1z M573.5,254.1h7v7h-7V254.1z M609.8,254.1h7v7h-7V254.1z M646.1,254.1h7v7h-7V254.1z
	 M653.4,254.1h7v7h-7V254.1z M660.7,254.1h7v7h-7V254.1z M667.9,254.1h7v7h-7V254.1z M675.2,254.1h7v7h-7V254.1z M682.4,254.1h7v7
	h-7V254.1z M689.7,254.1h7v7h-7V254.1z M697,254.1h7v7h-7V254.1z M704.2,254.1h7v7h-7V254.1z M711.5,254.1h7v7h-7V254.1z
	 M718.7,254.1h7v7h-7V254.1z M726,254.1h7v7h-7V254.1z M733.3,254.1h7v7h-7V254.1z M740.5,254.1h7v7h-7V254.1z M747.8,254.1h7v7h-7
	V254.1z M798.6,254.1h7v7h-7V254.1z M805.9,254.1h7v7h-7V254.1z M813.1,254.1h7v7h-7V254.1z M820.4,254.1h7v7h-7V254.1z
	 M827.6,254.1h7v7h-7V254.1z M123.4,261.4h7v7h-7V261.4z M130.7,261.4h7v7h-7V261.4z M137.9,261.4h7v7h-7V261.4z M145.2,261.4h7v7
	h-7V261.4z M152.5,261.4h7v7h-7V261.4z M159.7,261.4h7v7h-7V261.4z M181.5,261.4h7v7h-7V261.4z M188.8,261.4h7v7h-7V261.4z
	 M196,261.4h7v7h-7V261.4z M210.5,261.4h7v7h-7V261.4z M217.8,261.4h7v7h-7V261.4z M225.1,261.4h7v7h-7V261.4z M232.3,261.4h7v7h-7
	V261.4z M239.6,261.4h7v7h-7V261.4z M246.8,261.4h7v7h-7V261.4z M261.4,261.4h7v7h-7V261.4z M268.6,261.4h7v7h-7V261.4z
	 M319.4,261.4h7v7h-7V261.4z M413.8,261.4h7v7h-7V261.4z M421.1,261.4h7v7h-7V261.4z M428.3,261.4h7v7h-7V261.4z M450.1,261.4h7v7
	h-7V261.4z M457.4,261.4h7v7h-7V261.4z M508.2,261.4h7v7h-7V261.4z M573.5,261.4h7v7h-7V261.4z M609.8,261.4h7v7h-7V261.4z
	 M617.1,261.4h7v7h-7V261.4z M631.6,261.4h7v7h-7V261.4z M638.9,261.4h7v7h-7V261.4z M646.1,261.4h7v7h-7V261.4z M653.4,261.4h7v7
	h-7V261.4z M660.7,261.4h7v7h-7V261.4z M667.9,261.4h7v7h-7V261.4z M675.2,261.4h7v7h-7V261.4z M682.4,261.4h7v7h-7V261.4z
	 M689.7,261.4h7v7h-7V261.4z M697,261.4h7v7h-7V261.4z M704.2,261.4h7v7h-7V261.4z M711.5,261.4h7v7h-7V261.4z M145.2,268.6h7v7h-7
	V268.6z M152.5,268.6h7v7h-7V268.6z M159.7,268.6h7v7h-7V268.6z M174.2,268.6h7v7h-7V268.6z M181.5,268.6h7v7h-7V268.6z
	 M188.8,268.6h7v7h-7V268.6z M196,268.6h7v7h-7V268.6z M210.5,268.6h7v7h-7V268.6z M217.8,268.6h7v7h-7V268.6z M225.1,268.6h7v7h-7
	V268.6z M239.6,268.6h7v7h-7V268.6z M246.8,268.6h7v7h-7V268.6z M254.1,268.6h7v7h-7V268.6z M261.4,268.6h7v7h-7V268.6z
	 M275.9,268.6h7v7h-7V268.6z M290.4,268.6h7v7h-7V268.6z M304.9,268.6h7v7h-7V268.6z M312.2,268.6h7v7h-7V268.6z M319.4,268.6h7v7
	h-7V268.6z M326.7,268.6h7v7h-7V268.6z M399.3,268.6h7v7h-7V268.6z M406.6,268.6h7v7h-7V268.6z M413.8,268.6h7v7h-7V268.6z
	 M421.1,268.6h7v7h-7V268.6z M428.3,268.6h7v7h-7V268.6z M435.6,268.6h7v7h-7V268.6z M450.1,268.6h7v7h-7V268.6z M500.9,268.6h7v7
	h-7V268.6z M537.2,268.6h7v7h-7V268.6z M544.5,268.6h7v7h-7V268.6z M573.5,268.6h7v7h-7V268.6z M580.8,268.6h7v7h-7V268.6z
	 M602.6,268.6h7v7h-7V268.6z M609.8,268.6h7v7h-7V268.6z M617.1,268.6h7v7h-7V268.6z M624.4,268.6h7v7h-7V268.6z M631.6,268.6h7v7
	h-7V268.6z M638.9,268.6h7v7h-7V268.6z M646.1,268.6h7v7h-7V268.6z M653.4,268.6h7v7h-7V268.6z M660.7,268.6h7v7h-7V268.6z
	 M667.9,268.6h7v7h-7V268.6z M152.5,275.9h7v7h-7V275.9z M159.7,275.9h7v7h-7V275.9z M174.2,275.9h7v7h-7V275.9z M181.5,275.9h7v7
	h-7V275.9z M188.8,275.9h7v7h-7V275.9z M196,275.9h7v7h-7V275.9z M210.5,275.9h7v7h-7V275.9z M217.8,275.9h7v7h-7V275.9z
	 M239.6,275.9h7v7h-7V275.9z M246.8,275.9h7v7h-7V275.9z M254.1,275.9h7v7h-7V275.9z M261.4,275.9h7v7h-7V275.9z M319.4,275.9h7v7
	h-7V275.9z M326.7,275.9h7v7h-7V275.9z M406.6,275.9h7v7h-7V275.9z M413.8,275.9h7v7h-7V275.9z M435.6,275.9h7v7h-7V275.9z
	 M450.1,275.9h7v7h-7V275.9z M500.9,275.9h7v7h-7V275.9z M537.2,275.9h7v7h-7V275.9z M544.5,275.9h7v7h-7V275.9z M559,275.9h7v7h-7
	V275.9z M566.3,275.9h7v7h-7V275.9z M573.5,275.9h7v7h-7V275.9z M580.8,275.9h7v7h-7V275.9z M588.1,275.9h7v7h-7V275.9z
	 M595.3,275.9h7v7h-7V275.9z M602.6,275.9h7v7h-7V275.9z M609.8,275.9h7v7h-7V275.9z M617.1,275.9h7v7h-7V275.9z M624.4,275.9h7v7
	h-7V275.9z M631.6,275.9h7v7h-7V275.9z M145.2,283.1h7v7h-7V283.1z M152.5,283.1h7v7h-7V283.1z M159.7,283.1h7v7h-7V283.1z
	 M174.2,283.1h7v7h-7V283.1z M181.5,283.1h7v7h-7V283.1z M188.8,283.1h7v7h-7V283.1z M196,283.1h7v7h-7V283.1z M203.3,283.1h7v7h-7
	V283.1z M210.5,283.1h7v7h-7V283.1z M217.8,283.1h7v7h-7V283.1z M239.6,283.1h7v7h-7V283.1z M246.8,283.1h7v7h-7V283.1z
	 M254.1,283.1h7v7h-7V283.1z M261.4,283.1h7v7h-7V283.1z M319.4,283.1h7v7h-7V283.1z M413.8,283.1h7v7h-7V283.1z M435.6,283.1h7v7
	h-7V283.1z M450.1,283.1h7v7h-7V283.1z M500.9,283.1h7v7h-7V283.1z M508.2,283.1h7v7h-7V283.1z M515.5,283.1h7v7h-7V283.1z
	 M522.7,283.1h7v7h-7V283.1z M530,283.1h7v7h-7V283.1z M537.2,283.1h7v7h-7V283.1z M544.5,283.1h7v7h-7V283.1z M551.8,283.1h7v7h-7
	V283.1z M559,283.1h7v7h-7V283.1z M566.3,283.1h7v7h-7V283.1z M573.5,283.1h7v7h-7V283.1z M580.8,283.1h7v7h-7V283.1z M588.1,283.1
	h7v7h-7V283.1z M595.3,283.1h7v7h-7V283.1z M58.1,290.4h7v7h-7V290.4z M145.2,290.4h7v7h-7V290.4z M152.5,290.4h7v7h-7V290.4z
	 M159.7,290.4h7v7h-7V290.4z M174.2,290.4h7v7h-7V290.4z M181.5,290.4h7v7h-7V290.4z M188.8,290.4h7v7h-7V290.4z M196,290.4h7v7h-7
	V290.4z M203.3,290.4h7v7h-7V290.4z M210.5,290.4h7v7h-7V290.4z M232.3,290.4h7v7h-7V290.4z M239.6,290.4h7v7h-7V290.4z
	 M261.4,290.4h7v7h-7V290.4z M290.4,290.4h7v7h-7V290.4z M312.2,290.4h7v7h-7V290.4z M319.4,290.4h7v7h-7V290.4z M413.8,290.4h7v7
	h-7V290.4z M421.1,290.4h7v7h-7V290.4z M428.3,290.4h7v7h-7V290.4z M435.6,290.4h7v7h-7V290.4z M450.1,290.4h7v7h-7V290.4z
	 M457.4,290.4h7v7h-7V290.4z M500.9,290.4h7v7h-7V290.4z M508.2,290.4h7v7h-7V290.4z M515.5,290.4h7v7h-7V290.4z M522.7,290.4h7v7
	h-7V290.4z M530,290.4h7v7h-7V290.4z M537.2,290.4h7v7h-7V290.4z M544.5,290.4h7v7h-7V290.4z M551.8,290.4h7v7h-7V290.4z
	 M50.8,297.7h7v7h-7V297.7z M58.1,297.7h7v7h-7V297.7z M65.3,297.7h7v7h-7V297.7z M72.6,297.7h7v7h-7V297.7z M145.2,297.7h7v7h-7
	V297.7z M152.5,297.7h7v7h-7V297.7z M159.7,297.7h7v7h-7V297.7z M167,297.7h7v7h-7V297.7z M174.2,297.7h7v7h-7V297.7z M181.5,297.7
	h7v7h-7V297.7z M188.8,297.7h7v7h-7V297.7z M196,297.7h7v7h-7V297.7z M203.3,297.7h7v7h-7V297.7z M210.5,297.7h7v7h-7V297.7z
	 M217.8,297.7h7v7h-7V297.7z M225.1,297.7h7v7h-7V297.7z M232.3,297.7h7v7h-7V297.7z M239.6,297.7h7v7h-7V297.7z M261.4,297.7h7v7
	h-7V297.7z M268.6,297.7h7v7h-7V297.7z M290.4,297.7h7v7h-7V297.7z M297.7,297.7h7v7h-7V297.7z M304.9,297.7h7v7h-7V297.7z
	 M312.2,297.7h7v7h-7V297.7z M413.8,297.7h7v7h-7V297.7z M421.1,297.7h7v7h-7V297.7z M428.3,297.7h7v7h-7V297.7z M435.6,297.7h7v7
	h-7V297.7z M450.1,297.7h7v7h-7V297.7z M457.4,297.7h7v7h-7V297.7z M464.6,297.7h7v7h-7V297.7z M471.9,297.7h7v7h-7V297.7z
	 M479.2,297.7h7v7h-7V297.7z M486.4,297.7h7v7h-7V297.7z M493.7,297.7h7v7h-7V297.7z M500.9,297.7h7v7h-7V297.7z M508.2,297.7h7v7
	h-7V297.7z M515.5,297.7h7v7h-7V297.7z M522.7,297.7h7v7h-7V297.7z M530,297.7h7v7h-7V297.7z M544.5,297.7h7v7h-7V297.7z
	 M551.8,297.7h7v7h-7V297.7z M7.3,304.9h7v7h-7V304.9z M14.5,304.9h7v7h-7V304.9z M43.6,304.9h7v7h-7V304.9z M50.8,304.9h7v7h-7
	V304.9z M58.1,304.9h7v7h-7V304.9z M65.3,304.9h7v7h-7V304.9z M72.6,304.9h7v7h-7V304.9z M79.9,304.9h7v7h-7V304.9z M159.7,304.9h7
	v7h-7V304.9z M167,304.9h7v7h-7V304.9z M174.2,304.9h7v7h-7V304.9z M181.5,304.9h7v7h-7V304.9z M188.8,304.9h7v7h-7V304.9z
	 M196,304.9h7v7h-7V304.9z M203.3,304.9h7v7h-7V304.9z M210.5,304.9h7v7h-7V304.9z M217.8,304.9h7v7h-7V304.9z M225.1,304.9h7v7h-7
	V304.9z M232.3,304.9h7v7h-7V304.9z M239.6,304.9h7v7h-7V304.9z M246.8,304.9h7v7h-7V304.9z M261.4,304.9h7v7h-7V304.9z
	 M268.6,304.9h7v7h-7V304.9z M275.9,304.9h7v7h-7V304.9z M283.1,304.9h7v7h-7V304.9z M290.4,304.9h7v7h-7V304.9z M297.7,304.9h7v7
	h-7V304.9z M304.9,304.9h7v7h-7V304.9z M413.8,304.9h7v7h-7V304.9z M421.1,304.9h7v7h-7V304.9z M428.3,304.9h7v7h-7V304.9z
	 M435.6,304.9h7v7h-7V304.9z M442.9,304.9h7v7h-7V304.9z M450.1,304.9h7v7h-7V304.9z M457.4,304.9h7v7h-7V304.9z M464.6,304.9h7v7
	h-7V304.9z M471.9,304.9h7v7h-7V304.9z M479.2,304.9h7v7h-7V304.9z M486.4,304.9h7v7h-7V304.9z M493.7,304.9h7v7h-7V304.9z
	 M500.9,304.9h7v7h-7V304.9z M508.2,304.9h7v7h-7V304.9z M515.5,304.9h7v7h-7V304.9z M522.7,304.9h7v7h-7V304.9z M544.5,304.9h7v7
	h-7V304.9z M7.3,312.2h7v7h-7V312.2z M14.5,312.2h7v7h-7V312.2z M21.8,312.2h7v7h-7V312.2z M36.3,312.2h7v7h-7V312.2z M43.6,312.2h7
	v7h-7V312.2z M50.8,312.2h7v7h-7V312.2z M58.1,312.2h7v7h-7V312.2z M101.6,312.2h7v7h-7V312.2z M108.9,312.2h7v7h-7V312.2z
	 M116.2,312.2h7v7h-7V312.2z M174.2,312.2h7v7h-7V312.2z M181.5,312.2h7v7h-7V312.2z M188.8,312.2h7v7h-7V312.2z M196,312.2h7v7h-7
	V312.2z M203.3,312.2h7v7h-7V312.2z M210.5,312.2h7v7h-7V312.2z M217.8,312.2h7v7h-7V312.2z M225.1,312.2h7v7h-7V312.2z
	 M232.3,312.2h7v7h-7V312.2z M239.6,312.2h7v7h-7V312.2z M246.8,312.2h7v7h-7V312.2z M254.1,312.2h7v7h-7V312.2z M261.4,312.2h7v7
	h-7V312.2z M268.6,312.2h7v7h-7V312.2z M275.9,312.2h7v7h-7V312.2z M283.1,312.2h7v7h-7V312.2z M290.4,312.2h7v7h-7V312.2z
	 M297.7,312.2h7v7h-7V312.2z M304.9,312.2h7v7h-7V312.2z M326.7,312.2h7v7h-7V312.2z M334,312.2h7v7h-7V312.2z M341.2,312.2h7v7h-7
	V312.2z M348.5,312.2h7v7h-7V312.2z M355.7,312.2h7v7h-7V312.2z M363,312.2h7v7h-7V312.2z M370.3,312.2h7v7h-7V312.2z M377.5,312.2
	h7v7h-7V312.2z M384.8,312.2h7v7h-7V312.2z M392,312.2h7v7h-7V312.2z M399.3,312.2h7v7h-7V312.2z M406.6,312.2h7v7h-7V312.2z
	 M413.8,312.2h7v7h-7V312.2z M421.1,312.2h7v7h-7V312.2z M428.3,312.2h7v7h-7V312.2z M435.6,312.2h7v7h-7V312.2z M442.9,312.2h7v7
	h-7V312.2z M450.1,312.2h7v7h-7V312.2z M457.4,312.2h7v7h-7V312.2z M464.6,312.2h7v7h-7V312.2z M471.9,312.2h7v7h-7V312.2z
	 M479.2,312.2h7v7h-7V312.2z M486.4,312.2h7v7h-7V312.2z M493.7,312.2h7v7h-7V312.2z M500.9,312.2h7v7h-7V312.2z M508.2,312.2h7v7
	h-7V312.2z M515.5,312.2h7v7h-7V312.2z M522.7,312.2h7v7h-7V312.2z M530,312.2h7v7h-7V312.2z M537.2,312.2h7v7h-7V312.2z
	 M544.5,312.2h7v7h-7V312.2z M7.3,319.4h7v7h-7V319.4z M14.5,319.4h7v7h-7V319.4z M21.8,319.4h7v7h-7V319.4z M29,319.4h7v7h-7V319.4
	z M36.3,319.4h7v7h-7V319.4z M43.6,319.4h7v7h-7V319.4z M101.6,319.4h7v7h-7V319.4z M108.9,319.4h7v7h-7V319.4z M116.2,319.4h7v7h-7
	V319.4z M188.8,319.4h7v7h-7V319.4z M196,319.4h7v7h-7V319.4z M203.3,319.4h7v7h-7V319.4z M210.5,319.4h7v7h-7V319.4z M217.8,319.4
	h7v7h-7V319.4z M225.1,319.4h7v7h-7V319.4z M232.3,319.4h7v7h-7V319.4z M239.6,319.4h7v7h-7V319.4z M275.9,319.4h7v7h-7V319.4z
	 M283.1,319.4h7v7h-7V319.4z M326.7,319.4h7v7h-7V319.4z M334,319.4h7v7h-7V319.4z M341.2,319.4h7v7h-7V319.4z M377.5,319.4h7v7h-7
	V319.4z M384.8,319.4h7v7h-7V319.4z M399.3,319.4h7v7h-7V319.4z M406.6,319.4h7v7h-7V319.4z M413.8,319.4h7v7h-7V319.4z
	 M421.1,319.4h7v7h-7V319.4z M428.3,319.4h7v7h-7V319.4z M435.6,319.4h7v7h-7V319.4z M442.9,319.4h7v7h-7V319.4z M450.1,319.4h7v7
	h-7V319.4z M457.4,319.4h7v7h-7V319.4z M464.6,319.4h7v7h-7V319.4z M471.9,319.4h7v7h-7V319.4z M479.2,319.4h7v7h-7V319.4z
	 M486.4,319.4h7v7h-7V319.4z M493.7,319.4h7v7h-7V319.4z M500.9,319.4h7v7h-7V319.4z M508.2,319.4h7v7h-7V319.4z M515.5,319.4h7v7
	h-7V319.4z M522.7,319.4h7v7h-7V319.4z M530,319.4h7v7h-7V319.4z M537.2,319.4h7v7h-7V319.4z M7.3,326.7h7v7h-7V326.7z M14.5,326.7
	h7v7h-7V326.7z M21.8,326.7h7v7h-7V326.7z M29,326.7h7v7h-7V326.7z M36.3,326.7h7v7h-7V326.7z M65.3,326.7h7v7h-7V326.7z
	 M72.6,326.7h7v7h-7V326.7z M79.9,326.7h7v7h-7V326.7z M87.1,326.7h7v7h-7V326.7z M94.4,326.7h7v7h-7V326.7z M101.6,326.7h7v7h-7
	V326.7z M108.9,326.7h7v7h-7V326.7z M116.2,326.7h7v7h-7V326.7z M123.4,326.7h7v7h-7V326.7z M130.7,326.7h7v7h-7V326.7z
	 M137.9,326.7h7v7h-7V326.7z M145.2,326.7h7v7h-7V326.7z M152.5,326.7h7v7h-7V326.7z M159.7,326.7h7v7h-7V326.7z M167,326.7h7v7h-7
	V326.7z M174.2,326.7h7v7h-7V326.7z M181.5,326.7h7v7h-7V326.7z M210.5,326.7h7v7h-7V326.7z M217.8,326.7h7v7h-7V326.7z
	 M225.1,326.7h7v7h-7V326.7z M232.3,326.7h7v7h-7V326.7z M239.6,326.7h7v7h-7V326.7z M246.8,326.7h7v7h-7V326.7z M254.1,326.7h7v7
	h-7V326.7z M261.4,326.7h7v7h-7V326.7z M268.6,326.7h7v7h-7V326.7z M275.9,326.7h7v7h-7V326.7z M283.1,326.7h7v7h-7V326.7z
	 M290.4,326.7h7v7h-7V326.7z M297.7,326.7h7v7h-7V326.7z M304.9,326.7h7v7h-7V326.7z M312.2,326.7h7v7h-7V326.7z M319.4,326.7h7v7
	h-7V326.7z M326.7,326.7h7v7h-7V326.7z M334,326.7h7v7h-7V326.7z M341.2,326.7h7v7h-7V326.7z M348.5,326.7h7v7h-7V326.7z
	 M355.7,326.7h7v7h-7V326.7z M363,326.7h7v7h-7V326.7z M370.3,326.7h7v7h-7V326.7z M377.5,326.7h7v7h-7V326.7z M384.8,326.7h7v7h-7
	V326.7z M392,326.7h7v7h-7V326.7z M399.3,326.7h7v7h-7V326.7z M406.6,326.7h7v7h-7V326.7z M413.8,326.7h7v7h-7V326.7z M421.1,326.7
	h7v7h-7V326.7z M428.3,326.7h7v7h-7V326.7z M435.6,326.7h7v7h-7V326.7z M442.9,326.7h7v7h-7V326.7z M450.1,326.7h7v7h-7V326.7z
	 M457.4,326.7h7v7h-7V326.7z M464.6,326.7h7v7h-7V326.7z M471.9,326.7h7v7h-7V326.7z M479.2,326.7h7v7h-7V326.7z M486.4,326.7h7v7
	h-7V326.7z M493.7,326.7h7v7h-7V326.7z M500.9,326.7h7v7h-7V326.7z M508.2,326.7h7v7h-7V326.7z M515.5,326.7h7v7h-7V326.7z
	 M522.7,326.7h7v7h-7V326.7z M530,326.7h7v7h-7V326.7z M50.8,334h7v7h-7V334z M58.1,334h7v7h-7V334z M65.3,334h7v7h-7V334z
	 M72.6,334h7v7h-7V334z M137.9,334h7v7h-7V334z M145.2,334h7v7h-7V334z M181.5,334h7v7h-7V334z M188.8,334h7v7h-7V334z M196,334h7v7
	h-7V334z M203.3,334h7v7h-7V334z M210.5,334h7v7h-7V334z M217.8,334h7v7h-7V334z M225.1,334h7v7h-7V334z M232.3,334h7v7h-7V334z
	 M239.6,334h7v7h-7V334z M261.4,334h7v7h-7V334z M268.6,334h7v7h-7V334z M377.5,334h7v7h-7V334z M392,334h7v7h-7V334z M399.3,334h7
	v7h-7V334z M406.6,334h7v7h-7V334z M413.8,334h7v7h-7V334z M421.1,334h7v7h-7V334z M428.3,334h7v7h-7V334z M435.6,334h7v7h-7V334z
	 M442.9,334h7v7h-7V334z M450.1,334h7v7h-7V334z M457.4,334h7v7h-7V334z M464.6,334h7v7h-7V334z M479.2,334h7v7h-7V334z M544.5,334
	h7v7h-7V334z M551.8,334h7v7h-7V334z M559,334h7v7h-7V334z M566.3,334h7v7h-7V334z M573.5,334h7v7h-7V334z M580.8,334h7v7h-7V334z
	 M588.1,334h7v7h-7V334z M50.8,341.2h7v7h-7V341.2z M58.1,341.2h7v7h-7V341.2z M65.3,341.2h7v7h-7V341.2z M72.6,341.2h7v7h-7V341.2z
	 M130.7,341.2h7v7h-7V341.2z M137.9,341.2h7v7h-7V341.2z M145.2,341.2h7v7h-7V341.2z M152.5,341.2h7v7h-7V341.2z M167,341.2h7v7h-7
	V341.2z M181.5,341.2h7v7h-7V341.2z M188.8,341.2h7v7h-7V341.2z M217.8,341.2h7v7h-7V341.2z M225.1,341.2h7v7h-7V341.2z
	 M261.4,341.2h7v7h-7V341.2z M268.6,341.2h7v7h-7V341.2z M275.9,341.2h7v7h-7V341.2z M341.2,341.2h7v7h-7V341.2z M377.5,341.2h7v7
	h-7V341.2z M399.3,341.2h7v7h-7V341.2z M406.6,341.2h7v7h-7V341.2z M413.8,341.2h7v7h-7V341.2z M421.1,341.2h7v7h-7V341.2z
	 M428.3,341.2h7v7h-7V341.2z M435.6,341.2h7v7h-7V341.2z M442.9,341.2h7v7h-7V341.2z M450.1,341.2h7v7h-7V341.2z M457.4,341.2h7v7
	h-7V341.2z M464.6,341.2h7v7h-7V341.2z M471.9,341.2h7v7h-7V341.2z M479.2,341.2h7v7h-7V341.2z M486.4,341.2h7v7h-7V341.2z
	 M493.7,341.2h7v7h-7V341.2z M500.9,341.2h7v7h-7V341.2z M508.2,341.2h7v7h-7V341.2z M515.5,341.2h7v7h-7V341.2z M522.7,341.2h7v7
	h-7V341.2z M530,341.2h7v7h-7V341.2z M537.2,341.2h7v7h-7V341.2z M544.5,341.2h7v7h-7V341.2z M551.8,341.2h7v7h-7V341.2z
	 M566.3,341.2h7v7h-7V341.2z M595.3,341.2h7v7h-7V341.2z M50.8,348.5h7v7h-7V348.5z M58.1,348.5h7v7h-7V348.5z M65.3,348.5h7v7h-7
	V348.5z M72.6,348.5h7v7h-7V348.5z M79.9,348.5h7v7h-7V348.5z M87.1,348.5h7v7h-7V348.5z M94.4,348.5h7v7h-7V348.5z M101.6,348.5h7
	v7h-7V348.5z M108.9,348.5h7v7h-7V348.5z M116.2,348.5h7v7h-7V348.5z M123.4,348.5h7v7h-7V348.5z M130.7,348.5h7v7h-7V348.5z
	 M137.9,348.5h7v7h-7V348.5z M145.2,348.5h7v7h-7V348.5z M152.5,348.5h7v7h-7V348.5z M159.7,348.5h7v7h-7V348.5z M167,348.5h7v7h-7
	V348.5z M174.2,348.5h7v7h-7V348.5z M181.5,348.5h7v7h-7V348.5z M188.8,348.5h7v7h-7V348.5z M196,348.5h7v7h-7V348.5z M203.3,348.5
	h7v7h-7V348.5z M210.5,348.5h7v7h-7V348.5z M217.8,348.5h7v7h-7V348.5z M225.1,348.5h7v7h-7V348.5z M232.3,348.5h7v7h-7V348.5z
	 M239.6,348.5h7v7h-7V348.5z M246.8,348.5h7v7h-7V348.5z M254.1,348.5h7v7h-7V348.5z M261.4,348.5h7v7h-7V348.5z M268.6,348.5h7v7
	h-7V348.5z M275.9,348.5h7v7h-7V348.5z M290.4,348.5h7v7h-7V348.5z M297.7,348.5h7v7h-7V348.5z M304.9,348.5h7v7h-7V348.5z
	 M312.2,348.5h7v7h-7V348.5z M319.4,348.5h7v7h-7V348.5z M334,348.5h7v7h-7V348.5z M341.2,348.5h7v7h-7V348.5z M348.5,348.5h7v7h-7
	V348.5z M355.7,348.5h7v7h-7V348.5z M363,348.5h7v7h-7V348.5z M370.3,348.5h7v7h-7V348.5z M377.5,348.5h7v7h-7V348.5z M493.7,348.5
	h7v7h-7V348.5z M500.9,348.5h7v7h-7V348.5z M530,348.5h7v7h-7V348.5z M559,348.5h7v7h-7V348.5z M566.3,348.5h7v7h-7V348.5z
	 M573.5,348.5h7v7h-7V348.5z M580.8,348.5h7v7h-7V348.5z M588.1,348.5h7v7h-7V348.5z M595.3,348.5h7v7h-7V348.5z M602.6,348.5h7v7
	h-7V348.5z M609.8,348.5h7v7h-7V348.5z M617.1,348.5h7v7h-7V348.5z M624.4,348.5h7v7h-7V348.5z M638.9,348.5h7v7h-7V348.5z
	 M646.1,348.5h7v7h-7V348.5z M653.4,348.5h7v7h-7V348.5z M660.7,348.5h7v7h-7V348.5z M667.9,348.5h7v7h-7V348.5z M675.2,348.5h7v7
	h-7V348.5z M682.4,348.5h7v7h-7V348.5z M689.7,348.5h7v7h-7V348.5z M697,348.5h7v7h-7V348.5z M704.2,348.5h7v7h-7V348.5z
	 M36.3,355.7h7v7h-7V355.7z M43.6,355.7h7v7h-7V355.7z M50.8,355.7h7v7h-7V355.7z M58.1,355.7h7v7h-7V355.7z M65.3,355.7h7v7h-7
	V355.7z M72.6,355.7h7v7h-7V355.7z M79.9,355.7h7v7h-7V355.7z M87.1,355.7h7v7h-7V355.7z M94.4,355.7h7v7h-7V355.7z M101.6,355.7h7
	v7h-7V355.7z M108.9,355.7h7v7h-7V355.7z M116.2,355.7h7v7h-7V355.7z M123.4,355.7h7v7h-7V355.7z M130.7,355.7h7v7h-7V355.7z
	 M137.9,355.7h7v7h-7V355.7z M145.2,355.7h7v7h-7V355.7z M152.5,355.7h7v7h-7V355.7z M159.7,355.7h7v7h-7V355.7z M181.5,355.7h7v7
	h-7V355.7z M203.3,355.7h7v7h-7V355.7z M210.5,355.7h7v7h-7V355.7z M225.1,355.7h7v7h-7V355.7z M246.8,355.7h7v7h-7V355.7z
	 M254.1,355.7h7v7h-7V355.7z M261.4,355.7h7v7h-7V355.7z M268.6,355.7h7v7h-7V355.7z M275.9,355.7h7v7h-7V355.7z M283.1,355.7h7v7
	h-7V355.7z M290.4,355.7h7v7h-7V355.7z M312.2,355.7h7v7h-7V355.7z M319.4,355.7h7v7h-7V355.7z M334,355.7h7v7h-7V355.7z
	 M341.2,355.7h7v7h-7V355.7z M348.5,355.7h7v7h-7V355.7z M355.7,355.7h7v7h-7V355.7z M363,355.7h7v7h-7V355.7z M370.3,355.7h7v7h-7
	V355.7z M377.5,355.7h7v7h-7V355.7z M471.9,355.7h7v7h-7V355.7z M479.2,355.7h7v7h-7V355.7z M500.9,355.7h7v7h-7V355.7z
	 M508.2,355.7h7v7h-7V355.7z M515.5,355.7h7v7h-7V355.7z M617.1,355.7h7v7h-7V355.7z M624.4,355.7h7v7h-7V355.7z M631.6,355.7h7v7
	h-7V355.7z M638.9,355.7h7v7h-7V355.7z M646.1,355.7h7v7h-7V355.7z M653.4,355.7h7v7h-7V355.7z M660.7,355.7h7v7h-7V355.7z
	 M667.9,355.7h7v7h-7V355.7z M675.2,355.7h7v7h-7V355.7z M682.4,355.7h7v7h-7V355.7z M689.7,355.7h7v7h-7V355.7z M697,355.7h7v7h-7
	V355.7z M704.2,355.7h7v7h-7V355.7z M711.5,355.7h7v7h-7V355.7z M36.3,363h7v7h-7V363z M137.9,363h7v7h-7V363z M145.2,363h7v7h-7
	V363z M159.7,363h7v7h-7V363z M181.5,363h7v7h-7V363z M203.3,363h7v7h-7V363z M210.5,363h7v7h-7V363z M217.8,363h7v7h-7V363z
	 M225.1,363h7v7h-7V363z M246.8,363h7v7h-7V363z M254.1,363h7v7h-7V363z M261.4,363h7v7h-7V363z M268.6,363h7v7h-7V363z M275.9,363
	h7v7h-7V363z M283.1,363h7v7h-7V363z M290.4,363h7v7h-7V363z M297.7,363h7v7h-7V363z M304.9,363h7v7h-7V363z M312.2,363h7v7h-7V363z
	 M319.4,363h7v7h-7V363z M326.7,363h7v7h-7V363z M334,363h7v7h-7V363z M341.2,363h7v7h-7V363z M348.5,363h7v7h-7V363z M355.7,363h7
	v7h-7V363z M363,363h7v7h-7V363z M370.3,363h7v7h-7V363z M377.5,363h7v7h-7V363z M384.8,363h7v7h-7V363z M392,363h7v7h-7V363z
	 M399.3,363h7v7h-7V363z M450.1,363h7v7h-7V363z M464.6,363h7v7h-7V363z M471.9,363h7v7h-7V363z M486.4,363h7v7h-7V363z M500.9,363
	h7v7h-7V363z M508.2,363h7v7h-7V363z M522.7,363h7v7h-7V363z M530,363h7v7h-7V363z M537.2,363h7v7h-7V363z M595.3,363h7v7h-7V363z
	 M609.8,363h7v7h-7V363z M617.1,363h7v7h-7V363z M624.4,363h7v7h-7V363z M631.6,363h7v7h-7V363z M638.9,363h7v7h-7V363z M646.1,363
	h7v7h-7V363z M653.4,363h7v7h-7V363z M660.7,363h7v7h-7V363z M667.9,363h7v7h-7V363z M726,363h7v7h-7V363z M718.7,355.7h7v7h-7
	V355.7z M733.3,363h7v7h-7V363z M21.8,370.3h7v7h-7V370.3z M29,370.3h7v7h-7V370.3z M36.3,370.3h7v7h-7V370.3z M43.6,370.3h7v7h-7
	V370.3z M50.8,370.3h7v7h-7V370.3z M58.1,370.3h7v7h-7V370.3z M65.3,370.3h7v7h-7V370.3z M72.6,370.3h7v7h-7V370.3z M79.9,370.3h7v7
	h-7V370.3z M87.1,370.3h7v7h-7V370.3z M94.4,370.3h7v7h-7V370.3z M101.6,370.3h7v7h-7V370.3z M108.9,370.3h7v7h-7V370.3z
	 M116.2,370.3h7v7h-7V370.3z M123.4,370.3h7v7h-7V370.3z M130.7,370.3h7v7h-7V370.3z M137.9,370.3h7v7h-7V370.3z M145.2,370.3h7v7
	h-7V370.3z M152.5,370.3h7v7h-7V370.3z M159.7,370.3h7v7h-7V370.3z M167,370.3h7v7h-7V370.3z M174.2,370.3h7v7h-7V370.3z
	 M181.5,370.3h7v7h-7V370.3z M188.8,370.3h7v7h-7V370.3z M196,370.3h7v7h-7V370.3z M203.3,370.3h7v7h-7V370.3z M210.5,370.3h7v7h-7
	V370.3z M217.8,370.3h7v7h-7V370.3z M225.1,370.3h7v7h-7V370.3z M232.3,370.3h7v7h-7V370.3z M239.6,370.3h7v7h-7V370.3z
	 M246.8,370.3h7v7h-7V370.3z M254.1,370.3h7v7h-7V370.3z M261.4,370.3h7v7h-7V370.3z M268.6,370.3h7v7h-7V370.3z M275.9,370.3h7v7
	h-7V370.3z M283.1,370.3h7v7h-7V370.3z M363,370.3h7v7h-7V370.3z M370.3,370.3h7v7h-7V370.3z M377.5,370.3h7v7h-7V370.3z
	 M384.8,370.3h7v7h-7V370.3z M392,370.3h7v7h-7V370.3z M399.3,370.3h7v7h-7V370.3z M406.6,370.3h7v7h-7V370.3z M413.8,370.3h7v7h-7
	V370.3z M421.1,370.3h7v7h-7V370.3z M508.2,370.3h7v7h-7V370.3z M515.5,370.3h7v7h-7V370.3z M522.7,370.3h7v7h-7V370.3z
	 M544.5,370.3h7v7h-7V370.3z M588.1,370.3h7v7h-7V370.3z M595.3,370.3h7v7h-7V370.3z M602.6,370.3h7v7h-7V370.3z M609.8,370.3h7v7
	h-7V370.3z M624.4,370.3h7v7h-7V370.3z M631.6,370.3h7v7h-7V370.3z M638.9,370.3h7v7h-7V370.3z M646.1,370.3h7v7h-7V370.3z
	 M653.4,370.3h7v7h-7V370.3z M660.7,370.3h7v7h-7V370.3z M667.9,370.3h7v7h-7V370.3z M675.2,370.3h7v7h-7V370.3z M711.5,370.3h7v7
	h-7V370.3z M14.5,377.5h7v7h-7V377.5z M36.3,377.5h7v7h-7V377.5z M50.8,377.5h7v7h-7V377.5z M58.1,377.5h7v7h-7V377.5z M137.9,377.5
	h7v7h-7V377.5z M217.8,377.5h7v7h-7V377.5z M225.1,377.5h7v7h-7V377.5z M254.1,377.5h7v7h-7V377.5z M261.4,377.5h7v7h-7V377.5z
	 M268.6,377.5h7v7h-7V377.5z M275.9,377.5h7v7h-7V377.5z M283.1,377.5h7v7h-7V377.5z M290.4,377.5h7v7h-7V377.5z M297.7,377.5h7v7
	h-7V377.5z M304.9,377.5h7v7h-7V377.5z M312.2,377.5h7v7h-7V377.5z M319.4,377.5h7v7h-7V377.5z M326.7,377.5h7v7h-7V377.5z
	 M334,377.5h7v7h-7V377.5z M341.2,377.5h7v7h-7V377.5z M348.5,377.5h7v7h-7V377.5z M355.7,377.5h7v7h-7V377.5z M363,377.5h7v7h-7
	V377.5z M370.3,377.5h7v7h-7V377.5z M377.5,377.5h7v7h-7V377.5z M384.8,377.5h7v7h-7V377.5z M392,377.5h7v7h-7V377.5z M399.3,377.5
	h7v7h-7V377.5z M406.6,377.5h7v7h-7V377.5z M413.8,377.5h7v7h-7V377.5z M421.1,377.5h7v7h-7V377.5z M428.3,377.5h7v7h-7V377.5z
	 M508.2,377.5h7v7h-7V377.5z M515.5,377.5h7v7h-7V377.5z M522.7,377.5h7v7h-7V377.5z M530,377.5h7v7h-7V377.5z M537.2,377.5h7v7h-7
	V377.5z M544.5,377.5h7v7h-7V377.5z M588.1,377.5h7v7h-7V377.5z M595.3,377.5h7v7h-7V377.5z M602.6,377.5h7v7h-7V377.5z
	 M609.8,377.5h7v7h-7V377.5z M617.1,377.5h7v7h-7V377.5z M624.4,377.5h7v7h-7V377.5z M638.9,377.5h7v7h-7V377.5z M646.1,377.5h7v7
	h-7V377.5z M653.4,377.5h7v7h-7V377.5z M660.7,377.5h7v7h-7V377.5z M667.9,377.5h7v7h-7V377.5z M675.2,377.5h7v7h-7V377.5z
	 M682.4,377.5h7v7h-7V377.5z M689.7,377.5h7v7h-7V377.5z M14.5,384.8h7v7h-7V384.8z M21.8,384.8h7v7h-7V384.8z M29,384.8h7v7h-7
	V384.8z M36.3,384.8h7v7h-7V384.8z M43.6,384.8h7v7h-7V384.8z M50.8,384.8h7v7h-7V384.8z M58.1,384.8h7v7h-7V384.8z M65.3,384.8h7v7
	h-7V384.8z M72.6,384.8h7v7h-7V384.8z M79.9,384.8h7v7h-7V384.8z M87.1,384.8h7v7h-7V384.8z M94.4,384.8h7v7h-7V384.8z M101.6,384.8
	h7v7h-7V384.8z M108.9,384.8h7v7h-7V384.8z M116.2,384.8h7v7h-7V384.8z M123.4,384.8h7v7h-7V384.8z M130.7,384.8h7v7h-7V384.8z
	 M137.9,384.8h7v7h-7V384.8z M145.2,384.8h7v7h-7V384.8z M152.5,384.8h7v7h-7V384.8z M159.7,384.8h7v7h-7V384.8z M167,384.8h7v7h-7
	V384.8z M174.2,384.8h7v7h-7V384.8z M181.5,384.8h7v7h-7V384.8z M188.8,384.8h7v7h-7V384.8z M196,384.8h7v7h-7V384.8z M203.3,384.8
	h7v7h-7V384.8z M210.5,384.8h7v7h-7V384.8z M217.8,384.8h7v7h-7V384.8z M225.1,384.8h7v7h-7V384.8z M232.3,384.8h7v7h-7V384.8z
	 M239.6,384.8h7v7h-7V384.8z M246.8,384.8h7v7h-7V384.8z M254.1,384.8h7v7h-7V384.8z M261.4,384.8h7v7h-7V384.8z M268.6,384.8h7v7
	h-7V384.8z M275.9,384.8h7v7h-7V384.8z M283.1,384.8h7v7h-7V384.8z M290.4,384.8h7v7h-7V384.8z M297.7,384.8h7v7h-7V384.8z
	 M304.9,384.8h7v7h-7V384.8z M312.2,384.8h7v7h-7V384.8z M319.4,384.8h7v7h-7V384.8z M326.7,384.8h7v7h-7V384.8z M334,384.8h7v7h-7
	V384.8z M341.2,384.8h7v7h-7V384.8z M348.5,384.8h7v7h-7V384.8z M355.7,384.8h7v7h-7V384.8z M363,384.8h7v7h-7V384.8z M370.3,384.8
	h7v7h-7V384.8z M377.5,384.8h7v7h-7V384.8z M384.8,384.8h7v7h-7V384.8z M392,384.8h7v7h-7V384.8z M399.3,384.8h7v7h-7V384.8z
	 M406.6,384.8h7v7h-7V384.8z M413.8,384.8h7v7h-7V384.8z M421.1,384.8h7v7h-7V384.8z M428.3,384.8h7v7h-7V384.8z M457.4,384.8h7v7
	h-7V384.8z M479.2,384.8h7v7h-7V384.8z M515.5,384.8h7v7h-7V384.8z M522.7,384.8h7v7h-7V384.8z M530,384.8h7v7h-7V384.8z
	 M537.2,384.8h7v7h-7V384.8z M588.1,384.8h7v7h-7V384.8z M595.3,384.8h7v7h-7V384.8z M602.6,384.8h7v7h-7V384.8z M609.8,384.8h7v7
	h-7V384.8z M617.1,384.8h7v7h-7V384.8z M624.4,384.8h7v7h-7V384.8z M638.9,384.8h7v7h-7V384.8z M646.1,384.8h7v7h-7V384.8z
	 M653.4,384.8h7v7h-7V384.8z M660.7,384.8h7v7h-7V384.8z M667.9,384.8h7v7h-7V384.8z M675.2,384.8h7v7h-7V384.8z M682.4,384.8h7v7
	h-7V384.8z M689.7,384.8h7v7h-7V384.8z M14.5,392h7v7h-7V392z M21.8,392h7v7h-7V392z M29,392h7v7h-7V392z M36.3,392h7v7h-7V392z
	 M43.6,392h7v7h-7V392z M50.8,392h7v7h-7V392z M58.1,392h7v7h-7V392z M65.3,392h7v7h-7V392z M72.6,392h7v7h-7V392z M79.9,392h7v7h-7
	V392z M87.1,392h7v7h-7V392z M94.4,392h7v7h-7V392z M101.6,392h7v7h-7V392z M108.9,392h7v7h-7V392z M116.2,392h7v7h-7V392z
	 M123.4,392h7v7h-7V392z M130.7,392h7v7h-7V392z M137.9,392h7v7h-7V392z M145.2,392h7v7h-7V392z M152.5,392h7v7h-7V392z M159.7,392
	h7v7h-7V392z M167,392h7v7h-7V392z M174.2,392h7v7h-7V392z M181.5,392h7v7h-7V392z M188.8,392h7v7h-7V392z M196,392h7v7h-7V392z
	 M203.3,392h7v7h-7V392z M210.5,392h7v7h-7V392z M217.8,392h7v7h-7V392z M225.1,392h7v7h-7V392z M232.3,392h7v7h-7V392z M239.6,392
	h7v7h-7V392z M246.8,392h7v7h-7V392z M254.1,392h7v7h-7V392z M261.4,392h7v7h-7V392z M268.6,392h7v7h-7V392z M275.9,392h7v7h-7V392z
	 M283.1,392h7v7h-7V392z M290.4,392h7v7h-7V392z M297.7,392h7v7h-7V392z M304.9,392h7v7h-7V392z M312.2,392h7v7h-7V392z M319.4,392
	h7v7h-7V392z M326.7,392h7v7h-7V392z M334,392h7v7h-7V392z M341.2,392h7v7h-7V392z M348.5,392h7v7h-7V392z M355.7,392h7v7h-7V392z
	 M363,392h7v7h-7V392z M370.3,392h7v7h-7V392z M377.5,392h7v7h-7V392z M384.8,392h7v7h-7V392z M392,392h7v7h-7V392z M399.3,392h7v7
	h-7V392z M406.6,392h7v7h-7V392z M421.1,392h7v7h-7V392z M428.3,392h7v7h-7V392z M457.4,392h7v7h-7V392z M479.2,392h7v7h-7V392z
	 M522.7,392h7v7h-7V392z M530,392h7v7h-7V392z M537.2,392h7v7h-7V392z M595.3,392h7v7h-7V392z M602.6,392h7v7h-7V392z M609.8,392h7
	v7h-7V392z M617.1,392h7v7h-7V392z M646.1,392h7v7h-7V392z M653.4,392h7v7h-7V392z M660.7,392h7v7h-7V392z M667.9,392h7v7h-7V392z
	 M675.2,392h7v7h-7V392z M682.4,392h7v7h-7V392z M689.7,392h7v7h-7V392z M697,392h7v7h-7V392z M726,392h7v7h-7V392z M740.5,392h7v7
	h-7V392z M14.5,399.3h7v7h-7V399.3z M21.8,399.3h7v7h-7V399.3z M29,399.3h7v7h-7V399.3z M36.3,399.3h7v7h-7V399.3z M43.6,399.3h7v7
	h-7V399.3z M65.3,399.3h7v7h-7V399.3z M72.6,399.3h7v7h-7V399.3z M87.1,399.3h7v7h-7V399.3z M94.4,399.3h7v7h-7V399.3z M101.6,399.3
	h7v7h-7V399.3z M123.4,399.3h7v7h-7V399.3z M145.2,399.3h7v7h-7V399.3z M174.2,399.3h7v7h-7V399.3z M196,399.3h7v7h-7V399.3z
	 M217.8,399.3h7v7h-7V399.3z M232.3,399.3h7v7h-7V399.3z M239.6,399.3h7v7h-7V399.3z M254.1,399.3h7v7h-7V399.3z M261.4,399.3h7v7
	h-7V399.3z M275.9,399.3h7v7h-7V399.3z M290.4,399.3h7v7h-7V399.3z M297.7,399.3h7v7h-7V399.3z M304.9,399.3h7v7h-7V399.3z
	 M319.4,399.3h7v7h-7V399.3z M326.7,399.3h7v7h-7V399.3z M334,399.3h7v7h-7V399.3z M341.2,399.3h7v7h-7V399.3z M348.5,399.3h7v7h-7
	V399.3z M355.7,399.3h7v7h-7V399.3z M363,399.3h7v7h-7V399.3z M370.3,399.3h7v7h-7V399.3z M377.5,399.3h7v7h-7V399.3z M384.8,399.3
	h7v7h-7V399.3z M392,399.3h7v7h-7V399.3z M399.3,399.3h7v7h-7V399.3z M406.6,399.3h7v7h-7V399.3z M413.8,399.3h7v7h-7V399.3z
	 M421.1,399.3h7v7h-7V399.3z M428.3,399.3h7v7h-7V399.3z M435.6,399.3h7v7h-7V399.3z M457.4,399.3h7v7h-7V399.3z M479.2,399.3h7v7
	h-7V399.3z M508.2,399.3h7v7h-7V399.3z M530,399.3h7v7h-7V399.3z M602.6,399.3h7v7h-7V399.3z M609.8,399.3h7v7h-7V399.3z
	 M638.9,399.3h7v7h-7V399.3z M646.1,399.3h7v7h-7V399.3z M653.4,399.3h7v7h-7V399.3z M660.7,399.3h7v7h-7V399.3z M667.9,399.3h7v7
	h-7V399.3z M675.2,399.3h7v7h-7V399.3z M682.4,399.3h7v7h-7V399.3z M689.7,399.3h7v7h-7V399.3z M697,399.3h7v7h-7V399.3z M726,399.3
	h7v7h-7V399.3z M740.5,399.3h7v7h-7V399.3z M762.3,399.3h7v7h-7V399.3z M755,392h7v7h-7V392z M755,384.8h7v7h-7V384.8z M747.8,377.5
	h7v7h-7V377.5z M740.5,370.3h7v7h-7V370.3z M21.8,406.6h7v7h-7V406.6z M36.3,406.6h7v7h-7V406.6z M43.6,406.6h7v7h-7V406.6z
	 M50.8,406.6h7v7h-7V406.6z M58.1,406.6h7v7h-7V406.6z M65.3,406.6h7v7h-7V406.6z M72.6,406.6h7v7h-7V406.6z M79.9,406.6h7v7h-7
	V406.6z M87.1,406.6h7v7h-7V406.6z M94.4,406.6h7v7h-7V406.6z M101.6,406.6h7v7h-7V406.6z M108.9,406.6h7v7h-7V406.6z M116.2,406.6
	h7v7h-7V406.6z M123.4,406.6h7v7h-7V406.6z M130.7,406.6h7v7h-7V406.6z M137.9,406.6h7v7h-7V406.6z M145.2,406.6h7v7h-7V406.6z
	 M152.5,406.6h7v7h-7V406.6z M159.7,406.6h7v7h-7V406.6z M167,406.6h7v7h-7V406.6z M174.2,406.6h7v7h-7V406.6z M181.5,406.6h7v7h-7
	V406.6z M188.8,406.6h7v7h-7V406.6z M196,406.6h7v7h-7V406.6z M203.3,406.6h7v7h-7V406.6z M210.5,406.6h7v7h-7V406.6z M217.8,406.6
	h7v7h-7V406.6z M225.1,406.6h7v7h-7V406.6z M232.3,406.6h7v7h-7V406.6z M239.6,406.6h7v7h-7V406.6z M246.8,406.6h7v7h-7V406.6z
	 M254.1,406.6h7v7h-7V406.6z M261.4,406.6h7v7h-7V406.6z M268.6,406.6h7v7h-7V406.6z M275.9,406.6h7v7h-7V406.6z M283.1,406.6h7v7
	h-7V406.6z M290.4,406.6h7v7h-7V406.6z M297.7,406.6h7v7h-7V406.6z M304.9,406.6h7v7h-7V406.6z M312.2,406.6h7v7h-7V406.6z
	 M319.4,406.6h7v7h-7V406.6z M326.7,406.6h7v7h-7V406.6z M334,406.6h7v7h-7V406.6z M341.2,406.6h7v7h-7V406.6z M348.5,406.6h7v7h-7
	V406.6z M355.7,406.6h7v7h-7V406.6z M363,406.6h7v7h-7V406.6z M370.3,406.6h7v7h-7V406.6z M377.5,406.6h7v7h-7V406.6z M384.8,406.6
	h7v7h-7V406.6z M392,406.6h7v7h-7V406.6z M399.3,406.6h7v7h-7V406.6z M428.3,406.6h7v7h-7V406.6z M435.6,406.6h7v7h-7V406.6z
	 M442.9,406.6h7v7h-7V406.6z M450.1,406.6h7v7h-7V406.6z M457.4,406.6h7v7h-7V406.6z M464.6,406.6h7v7h-7V406.6z M471.9,406.6h7v7
	h-7V406.6z M479.2,406.6h7v7h-7V406.6z M486.4,406.6h7v7h-7V406.6z M493.7,406.6h7v7h-7V406.6z M500.9,406.6h7v7h-7V406.6z
	 M508.2,406.6h7v7h-7V406.6z M631.6,406.6h7v7h-7V406.6z M638.9,406.6h7v7h-7V406.6z M646.1,406.6h7v7h-7V406.6z M653.4,406.6h7v7
	h-7V406.6z M660.7,406.6h7v7h-7V406.6z M667.9,406.6h7v7h-7V406.6z M675.2,406.6h7v7h-7V406.6z M682.4,406.6h7v7h-7V406.6z
	 M689.7,406.6h7v7h-7V406.6z M697,406.6h7v7h-7V406.6z M726,406.6h7v7h-7V406.6z M740.5,406.6h7v7h-7V406.6z M762.3,406.6h7v7h-7
	V406.6z M21.8,413.8h7v7h-7V413.8z M29,413.8h7v7h-7V413.8z M36.3,413.8h7v7h-7V413.8z M43.6,413.8h7v7h-7V413.8z M50.8,413.8h7v7
	h-7V413.8z M58.1,413.8h7v7h-7V413.8z M65.3,413.8h7v7h-7V413.8z M72.6,413.8h7v7h-7V413.8z M79.9,413.8h7v7h-7V413.8z M87.1,413.8
	h7v7h-7V413.8z M94.4,413.8h7v7h-7V413.8z M101.6,413.8h7v7h-7V413.8z M108.9,413.8h7v7h-7V413.8z M116.2,413.8h7v7h-7V413.8z
	 M123.4,413.8h7v7h-7V413.8z M130.7,413.8h7v7h-7V413.8z M137.9,413.8h7v7h-7V413.8z M145.2,413.8h7v7h-7V413.8z M152.5,413.8h7v7
	h-7V413.8z M167,413.8h7v7h-7V413.8z M174.2,413.8h7v7h-7V413.8z M181.5,413.8h7v7h-7V413.8z M188.8,413.8h7v7h-7V413.8z M196,413.8
	h7v7h-7V413.8z M203.3,413.8h7v7h-7V413.8z M210.5,413.8h7v7h-7V413.8z M225.1,413.8h7v7h-7V413.8z M239.6,413.8h7v7h-7V413.8z
	 M246.8,413.8h7v7h-7V413.8z M254.1,413.8h7v7h-7V413.8z M261.4,413.8h7v7h-7V413.8z M268.6,413.8h7v7h-7V413.8z M275.9,413.8h7v7
	h-7V413.8z M283.1,413.8h7v7h-7V413.8z M290.4,413.8h7v7h-7V413.8z M297.7,413.8h7v7h-7V413.8z M304.9,413.8h7v7h-7V413.8z
	 M312.2,413.8h7v7h-7V413.8z M319.4,413.8h7v7h-7V413.8z M326.7,413.8h7v7h-7V413.8z M334,413.8h7v7h-7V413.8z M341.2,413.8h7v7h-7
	V413.8z M355.7,413.8h7v7h-7V413.8z M363,413.8h7v7h-7V413.8z M370.3,413.8h7v7h-7V413.8z M377.5,413.8h7v7h-7V413.8z M384.8,413.8
	h7v7h-7V413.8z M392,413.8h7v7h-7V413.8z M406.6,413.8h7v7h-7V413.8z M413.8,413.8h7v7h-7V413.8z M435.6,413.8h7v7h-7V413.8z
	 M450.1,413.8h7v7h-7V413.8z M464.6,413.8h7v7h-7V413.8z M479.2,413.8h7v7h-7V413.8z M486.4,413.8h7v7h-7V413.8z M493.7,413.8h7v7
	h-7V413.8z M500.9,413.8h7v7h-7V413.8z M508.2,413.8h7v7h-7V413.8z M631.6,413.8h7v7h-7V413.8z M638.9,413.8h7v7h-7V413.8z
	 M646.1,413.8h7v7h-7V413.8z M660.7,413.8h7v7h-7V413.8z M667.9,413.8h7v7h-7V413.8z M675.2,413.8h7v7h-7V413.8z M682.4,413.8h7v7
	h-7V413.8z M689.7,413.8h7v7h-7V413.8z M697,413.8h7v7h-7V413.8z M704.2,413.8h7v7h-7V413.8z M711.5,413.8h7v7h-7V413.8z
	 M718.7,413.8h7v7h-7V413.8z M726,413.8h7v7h-7V413.8z M733.3,413.8h7v7h-7V413.8z M740.5,413.8h7v7h-7V413.8z M747.8,413.8h7v7h-7
	V413.8z M755,413.8h7v7h-7V413.8z M762.3,413.8h7v7h-7V413.8z M29,421.1h7v7h-7V421.1z M36.3,421.1h7v7h-7V421.1z M43.6,421.1h7v7
	h-7V421.1z M50.8,421.1h7v7h-7V421.1z M65.3,421.1h7v7h-7V421.1z M72.6,421.1h7v7h-7V421.1z M94.4,421.1h7v7h-7V421.1z M101.6,421.1
	h7v7h-7V421.1z M108.9,421.1h7v7h-7V421.1z M116.2,421.1h7v7h-7V421.1z M123.4,421.1h7v7h-7V421.1z M137.9,421.1h7v7h-7V421.1z
	 M145.2,421.1h7v7h-7V421.1z M152.5,421.1h7v7h-7V421.1z M174.2,421.1h7v7h-7V421.1z M181.5,421.1h7v7h-7V421.1z M196,421.1h7v7h-7
	V421.1z M203.3,421.1h7v7h-7V421.1z M210.5,421.1h7v7h-7V421.1z M217.8,421.1h7v7h-7V421.1z M225.1,421.1h7v7h-7V421.1z
	 M239.6,421.1h7v7h-7V421.1z M246.8,421.1h7v7h-7V421.1z M254.1,421.1h7v7h-7V421.1z M261.4,421.1h7v7h-7V421.1z M268.6,421.1h7v7
	h-7V421.1z M275.9,421.1h7v7h-7V421.1z M290.4,421.1h7v7h-7V421.1z M297.7,421.1h7v7h-7V421.1z M304.9,421.1h7v7h-7V421.1z
	 M312.2,421.1h7v7h-7V421.1z M319.4,421.1h7v7h-7V421.1z M326.7,421.1h7v7h-7V421.1z M334,421.1h7v7h-7V421.1z M341.2,421.1h7v7h-7
	V421.1z M355.7,421.1h7v7h-7V421.1z M363,421.1h7v7h-7V421.1z M370.3,421.1h7v7h-7V421.1z M377.5,421.1h7v7h-7V421.1z M384.8,421.1
	h7v7h-7V421.1z M399.3,421.1h7v7h-7V421.1z M406.6,421.1h7v7h-7V421.1z M413.8,421.1h7v7h-7V421.1z M421.1,421.1h7v7h-7V421.1z
	 M428.3,421.1h7v7h-7V421.1z M435.6,421.1h7v7h-7V421.1z M442.9,421.1h7v7h-7V421.1z M450.1,421.1h7v7h-7V421.1z M457.4,421.1h7v7
	h-7V421.1z M464.6,421.1h7v7h-7V421.1z M471.9,421.1h7v7h-7V421.1z M486.4,421.1h7v7h-7V421.1z M493.7,421.1h7v7h-7V421.1z
	 M500.9,421.1h7v7h-7V421.1z M508.2,421.1h7v7h-7V421.1z M515.5,421.1h7v7h-7V421.1z M667.9,421.1h7v7h-7V421.1z M675.2,421.1h7v7
	h-7V421.1z M682.4,421.1h7v7h-7V421.1z M689.7,421.1h7v7h-7V421.1z M697,421.1h7v7h-7V421.1z M704.2,421.1h7v7h-7V421.1z
	 M711.5,421.1h7v7h-7V421.1z M718.7,421.1h7v7h-7V421.1z M726,421.1h7v7h-7V421.1z M733.3,421.1h7v7h-7V421.1z M740.5,421.1h7v7h-7
	V421.1z M747.8,421.1h7v7h-7V421.1z M755,421.1h7v7h-7V421.1z M762.3,421.1h7v7h-7V421.1z M14.5,428.3h7v7h-7V428.3z M21.8,428.3h7
	v7h-7V428.3z M29,428.3h7v7h-7V428.3z M79.9,428.3h7v7h-7V428.3z M87.1,428.3h7v7h-7V428.3z M94.4,428.3h7v7h-7V428.3z M101.6,428.3
	h7v7h-7V428.3z M108.9,428.3h7v7h-7V428.3z M116.2,428.3h7v7h-7V428.3z M123.4,428.3h7v7h-7V428.3z M130.7,428.3h7v7h-7V428.3z
	 M137.9,428.3h7v7h-7V428.3z M145.2,428.3h7v7h-7V428.3z M152.5,428.3h7v7h-7V428.3z M159.7,428.3h7v7h-7V428.3z M167,428.3h7v7h-7
	V428.3z M174.2,428.3h7v7h-7V428.3z M181.5,428.3h7v7h-7V428.3z M188.8,428.3h7v7h-7V428.3z M196,428.3h7v7h-7V428.3z M203.3,428.3
	h7v7h-7V428.3z M210.5,428.3h7v7h-7V428.3z M217.8,428.3h7v7h-7V428.3z M225.1,428.3h7v7h-7V428.3z M232.3,428.3h7v7h-7V428.3z
	 M239.6,428.3h7v7h-7V428.3z M246.8,428.3h7v7h-7V428.3z M254.1,428.3h7v7h-7V428.3z M268.6,428.3h7v7h-7V428.3z M283.1,428.3h7v7
	h-7V428.3z M290.4,428.3h7v7h-7V428.3z M297.7,428.3h7v7h-7V428.3z M304.9,428.3h7v7h-7V428.3z M312.2,428.3h7v7h-7V428.3z
	 M319.4,428.3h7v7h-7V428.3z M326.7,428.3h7v7h-7V428.3z M334,428.3h7v7h-7V428.3z M341.2,428.3h7v7h-7V428.3z M348.5,428.3h7v7h-7
	V428.3z M355.7,428.3h7v7h-7V428.3z M363,428.3h7v7h-7V428.3z M370.3,428.3h7v7h-7V428.3z M377.5,428.3h7v7h-7V428.3z M392,428.3h7
	v7h-7V428.3z M399.3,428.3h7v7h-7V428.3z M406.6,428.3h7v7h-7V428.3z M413.8,428.3h7v7h-7V428.3z M421.1,428.3h7v7h-7V428.3z
	 M442.9,428.3h7v7h-7V428.3z M464.6,428.3h7v7h-7V428.3z M479.2,428.3h7v7h-7V428.3z M500.9,428.3h7v7h-7V428.3z M508.2,428.3h7v7
	h-7V428.3z M515.5,428.3h7v7h-7V428.3z M522.7,428.3h7v7h-7V428.3z M559,428.3h7v7h-7V428.3z M595.3,428.3h7v7h-7V428.3z
	 M631.6,428.3h7v7h-7V428.3z M675.2,428.3h7v7h-7V428.3z M682.4,428.3h7v7h-7V428.3z M689.7,428.3h7v7h-7V428.3z M697,428.3h7v7h-7
	V428.3z M704.2,428.3h7v7h-7V428.3z M711.5,428.3h7v7h-7V428.3z M726,428.3h7v7h-7V428.3z M733.3,428.3h7v7h-7V428.3z M740.5,428.3
	h7v7h-7V428.3z M755,428.3h7v7h-7V428.3z M14.5,435.6h7v7h-7V435.6z M21.8,435.6h7v7h-7V435.6z M29,435.6h7v7h-7V435.6z M79.9,435.6
	h7v7h-7V435.6z M87.1,435.6h7v7h-7V435.6z M94.4,435.6h7v7h-7V435.6z M101.6,435.6h7v7h-7V435.6z M108.9,435.6h7v7h-7V435.6z
	 M116.2,435.6h7v7h-7V435.6z M123.4,435.6h7v7h-7V435.6z M130.7,435.6h7v7h-7V435.6z M137.9,435.6h7v7h-7V435.6z M145.2,435.6h7v7
	h-7V435.6z M152.5,435.6h7v7h-7V435.6z M159.7,435.6h7v7h-7V435.6z M167,435.6h7v7h-7V435.6z M174.2,435.6h7v7h-7V435.6z
	 M181.5,435.6h7v7h-7V435.6z M188.8,435.6h7v7h-7V435.6z M196,435.6h7v7h-7V435.6z M203.3,435.6h7v7h-7V435.6z M210.5,435.6h7v7h-7
	V435.6z M217.8,435.6h7v7h-7V435.6z M225.1,435.6h7v7h-7V435.6z M232.3,435.6h7v7h-7V435.6z M239.6,435.6h7v7h-7V435.6z
	 M246.8,435.6h7v7h-7V435.6z M254.1,435.6h7v7h-7V435.6z M261.4,435.6h7v7h-7V435.6z M268.6,435.6h7v7h-7V435.6z M275.9,435.6h7v7
	h-7V435.6z M283.1,435.6h7v7h-7V435.6z M290.4,435.6h7v7h-7V435.6z M297.7,435.6h7v7h-7V435.6z M304.9,435.6h7v7h-7V435.6z
	 M312.2,435.6h7v7h-7V435.6z M319.4,435.6h7v7h-7V435.6z M326.7,435.6h7v7h-7V435.6z M334,435.6h7v7h-7V435.6z M341.2,435.6h7v7h-7
	V435.6z M348.5,435.6h7v7h-7V435.6z M355.7,435.6h7v7h-7V435.6z M363,435.6h7v7h-7V435.6z M370.3,435.6h7v7h-7V435.6z M377.5,435.6
	h7v7h-7V435.6z M392,435.6h7v7h-7V435.6z M399.3,435.6h7v7h-7V435.6z M421.1,435.6h7v7h-7V435.6z M428.3,435.6h7v7h-7V435.6z
	 M435.6,435.6h7v7h-7V435.6z M442.9,435.6h7v7h-7V435.6z M450.1,435.6h7v7h-7V435.6z M457.4,435.6h7v7h-7V435.6z M464.6,435.6h7v7
	h-7V435.6z M471.9,435.6h7v7h-7V435.6z M479.2,435.6h7v7h-7V435.6z M486.4,435.6h7v7h-7V435.6z M500.9,435.6h7v7h-7V435.6z
	 M508.2,435.6h7v7h-7V435.6z M515.5,435.6h7v7h-7V435.6z M522.7,435.6h7v7h-7V435.6z M530,435.6h7v7h-7V435.6z M537.2,435.6h7v7h-7
	V435.6z M544.5,435.6h7v7h-7V435.6z M551.8,435.6h7v7h-7V435.6z M559,435.6h7v7h-7V435.6z M566.3,435.6h7v7h-7V435.6z M573.5,435.6
	h7v7h-7V435.6z M580.8,435.6h7v7h-7V435.6z M588.1,435.6h7v7h-7V435.6z M595.3,435.6h7v7h-7V435.6z M602.6,435.6h7v7h-7V435.6z
	 M609.8,435.6h7v7h-7V435.6z M617.1,435.6h7v7h-7V435.6z M624.4,435.6h7v7h-7V435.6z M631.6,435.6h7v7h-7V435.6z M638.9,435.6h7v7
	h-7V435.6z M646.1,435.6h7v7h-7V435.6z M653.4,435.6h7v7h-7V435.6z M660.7,435.6h7v7h-7V435.6z M667.9,435.6h7v7h-7V435.6z
	 M675.2,435.6h7v7h-7V435.6z M689.7,435.6h7v7h-7V435.6z M726,435.6h7v7h-7V435.6z M755,435.6h7v7h-7V435.6z M14.5,442.9h7v7h-7
	V442.9z M21.8,442.9h7v7h-7V442.9z M79.9,442.9h7v7h-7V442.9z M87.1,442.9h7v7h-7V442.9z M94.4,442.9h7v7h-7V442.9z M101.6,442.9h7
	v7h-7V442.9z M108.9,442.9h7v7h-7V442.9z M116.2,442.9h7v7h-7V442.9z M123.4,442.9h7v7h-7V442.9z M130.7,442.9h7v7h-7V442.9z
	 M137.9,442.9h7v7h-7V442.9z M145.2,442.9h7v7h-7V442.9z M152.5,442.9h7v7h-7V442.9z M159.7,442.9h7v7h-7V442.9z M167,442.9h7v7h-7
	V442.9z M174.2,442.9h7v7h-7V442.9z M181.5,442.9h7v7h-7V442.9z M188.8,442.9h7v7h-7V442.9z M196,442.9h7v7h-7V442.9z M203.3,442.9
	h7v7h-7V442.9z M210.5,442.9h7v7h-7V442.9z M217.8,442.9h7v7h-7V442.9z M225.1,442.9h7v7h-7V442.9z M232.3,442.9h7v7h-7V442.9z
	 M239.6,442.9h7v7h-7V442.9z M246.8,442.9h7v7h-7V442.9z M254.1,442.9h7v7h-7V442.9z M261.4,442.9h7v7h-7V442.9z M268.6,442.9h7v7
	h-7V442.9z M275.9,442.9h7v7h-7V442.9z M283.1,442.9h7v7h-7V442.9z M290.4,442.9h7v7h-7V442.9z M297.7,442.9h7v7h-7V442.9z
	 M304.9,442.9h7v7h-7V442.9z M312.2,442.9h7v7h-7V442.9z M319.4,442.9h7v7h-7V442.9z M326.7,442.9h7v7h-7V442.9z M334,442.9h7v7h-7
	V442.9z M341.2,442.9h7v7h-7V442.9z M348.5,442.9h7v7h-7V442.9z M355.7,442.9h7v7h-7V442.9z M363,442.9h7v7h-7V442.9z M370.3,442.9
	h7v7h-7V442.9z M377.5,442.9h7v7h-7V442.9z M392,442.9h7v7h-7V442.9z M399.3,442.9h7v7h-7V442.9z M421.1,442.9h7v7h-7V442.9z
	 M428.3,442.9h7v7h-7V442.9z M435.6,442.9h7v7h-7V442.9z M450.1,442.9h7v7h-7V442.9z M464.6,442.9h7v7h-7V442.9z M471.9,442.9h7v7
	h-7V442.9z M479.2,442.9h7v7h-7V442.9z M486.4,442.9h7v7h-7V442.9z M500.9,442.9h7v7h-7V442.9z M493.7,428.3h7v7h-7V428.3z
	 M508.2,442.9h7v7h-7V442.9z M515.5,442.9h7v7h-7V442.9z M522.7,442.9h7v7h-7V442.9z M530,442.9h7v7h-7V442.9z M537.2,442.9h7v7h-7
	V442.9z M544.5,442.9h7v7h-7V442.9z M551.8,442.9h7v7h-7V442.9z M559,442.9h7v7h-7V442.9z M566.3,442.9h7v7h-7V442.9z M573.5,442.9
	h7v7h-7V442.9z M580.8,442.9h7v7h-7V442.9z M588.1,442.9h7v7h-7V442.9z M595.3,442.9h7v7h-7V442.9z M602.6,442.9h7v7h-7V442.9z
	 M609.8,442.9h7v7h-7V442.9z M617.1,442.9h7v7h-7V442.9z M624.4,442.9h7v7h-7V442.9z M631.6,442.9h7v7h-7V442.9z M638.9,442.9h7v7
	h-7V442.9z M646.1,442.9h7v7h-7V442.9z M653.4,442.9h7v7h-7V442.9z M660.7,442.9h7v7h-7V442.9z M667.9,442.9h7v7h-7V442.9z
	 M675.2,442.9h7v7h-7V442.9z M689.7,442.9h7v7h-7V442.9z M697,442.9h7v7h-7V442.9z M704.2,442.9h7v7h-7V442.9z M711.5,442.9h7v7h-7
	V442.9z M718.7,442.9h7v7h-7V442.9z M726,442.9h7v7h-7V442.9z M733.3,442.9h7v7h-7V442.9z M740.5,442.9h7v7h-7V442.9z M747.8,442.9
	h7v7h-7V442.9z M755,442.9h7v7h-7V442.9z M7.3,450.1h7v7h-7V450.1z M14.5,450.1h7v7h-7V450.1z M21.8,450.1h7v7h-7V450.1z
	 M79.9,450.1h7v7h-7V450.1z M87.1,450.1h7v7h-7V450.1z M94.4,450.1h7v7h-7V450.1z M116.2,450.1h7v7h-7V450.1z M123.4,450.1h7v7h-7
	V450.1z M130.7,450.1h7v7h-7V450.1z M137.9,450.1h7v7h-7V450.1z M145.2,450.1h7v7h-7V450.1z M152.5,450.1h7v7h-7V450.1z
	 M159.7,450.1h7v7h-7V450.1z M167,450.1h7v7h-7V450.1z M174.2,450.1h7v7h-7V450.1z M203.3,450.1h7v7h-7V450.1z M210.5,450.1h7v7h-7
	V450.1z M217.8,450.1h7v7h-7V450.1z M225.1,450.1h7v7h-7V450.1z M232.3,450.1h7v7h-7V450.1z M239.6,450.1h7v7h-7V450.1z
	 M246.8,450.1h7v7h-7V450.1z M254.1,450.1h7v7h-7V450.1z M261.4,450.1h7v7h-7V450.1z M268.6,450.1h7v7h-7V450.1z M297.7,450.1h7v7
	h-7V450.1z M304.9,450.1h7v7h-7V450.1z M312.2,450.1h7v7h-7V450.1z M319.4,450.1h7v7h-7V450.1z M326.7,450.1h7v7h-7V450.1z
	 M334,450.1h7v7h-7V450.1z M341.2,450.1h7v7h-7V450.1z M348.5,450.1h7v7h-7V450.1z M355.7,450.1h7v7h-7V450.1z M363,450.1h7v7h-7
	V450.1z M370.3,450.1h7v7h-7V450.1z M377.5,450.1h7v7h-7V450.1z M392,450.1h7v7h-7V450.1z M399.3,450.1h7v7h-7V450.1z M406.6,450.1
	h7v7h-7V450.1z M413.8,450.1h7v7h-7V450.1z M421.1,450.1h7v7h-7V450.1z M428.3,450.1h7v7h-7V450.1z M435.6,450.1h7v7h-7V450.1z
	 M442.9,450.1h7v7h-7V450.1z M450.1,450.1h7v7h-7V450.1z M457.4,450.1h7v7h-7V450.1z M464.6,450.1h7v7h-7V450.1z M471.9,450.1h7v7
	h-7V450.1z M479.2,450.1h7v7h-7V450.1z M486.4,450.1h7v7h-7V450.1z M493.7,450.1h7v7h-7V450.1z M508.2,450.1h7v7h-7V450.1z
	 M515.5,450.1h7v7h-7V450.1z M522.7,450.1h7v7h-7V450.1z M530,450.1h7v7h-7V450.1z M537.2,450.1h7v7h-7V450.1z M544.5,450.1h7v7h-7
	V450.1z M551.8,450.1h7v7h-7V450.1z M559,450.1h7v7h-7V450.1z M566.3,450.1h7v7h-7V450.1z M573.5,450.1h7v7h-7V450.1z M580.8,450.1
	h7v7h-7V450.1z M588.1,450.1h7v7h-7V450.1z M595.3,450.1h7v7h-7V450.1z M602.6,450.1h7v7h-7V450.1z M609.8,450.1h7v7h-7V450.1z
	 M617.1,450.1h7v7h-7V450.1z M624.4,450.1h7v7h-7V450.1z M631.6,450.1h7v7h-7V450.1z M638.9,450.1h7v7h-7V450.1z M646.1,450.1h7v7
	h-7V450.1z M653.4,450.1h7v7h-7V450.1z M660.7,450.1h7v7h-7V450.1z M667.9,450.1h7v7h-7V450.1z M675.2,450.1h7v7h-7V450.1z
	 M689.7,450.1h7v7h-7V450.1z M726,450.1h7v7h-7V450.1z M755,450.1h7v7h-7V450.1z M7.3,457.4h7v7h-7V457.4z M14.5,457.4h7v7h-7V457.4
	z M21.8,457.4h7v7h-7V457.4z M72.6,457.4h7v7h-7V457.4z M79.9,457.4h7v7h-7V457.4z M101.6,457.4h7v7h-7V457.4z M108.9,457.4h7v7h-7
	V457.4z M123.4,457.4h7v7h-7V457.4z M130.7,457.4h7v7h-7V457.4z M137.9,457.4h7v7h-7V457.4z M145.2,457.4h7v7h-7V457.4z
	 M152.5,457.4h7v7h-7V457.4z M159.7,457.4h7v7h-7V457.4z M167,457.4h7v7h-7V457.4z M181.5,457.4h7v7h-7V457.4z M188.8,457.4h7v7h-7
	V457.4z M196,457.4h7v7h-7V457.4z M210.5,457.4h7v7h-7V457.4z M217.8,457.4h7v7h-7V457.4z M225.1,457.4h7v7h-7V457.4z M232.3,457.4
	h7v7h-7V457.4z M239.6,457.4h7v7h-7V457.4z M246.8,457.4h7v7h-7V457.4z M254.1,457.4h7v7h-7V457.4z M275.9,457.4h7v7h-7V457.4z
	 M283.1,457.4h7v7h-7V457.4z M290.4,457.4h7v7h-7V457.4z M304.9,457.4h7v7h-7V457.4z M319.4,457.4h7v7h-7V457.4z M326.7,457.4h7v7
	h-7V457.4z M334,457.4h7v7h-7V457.4z M341.2,457.4h7v7h-7V457.4z M348.5,457.4h7v7h-7V457.4z M355.7,457.4h7v7h-7V457.4z M363,457.4
	h7v7h-7V457.4z M370.3,457.4h7v7h-7V457.4z M377.5,457.4h7v7h-7V457.4z M392,457.4h7v7h-7V457.4z M399.3,457.4h7v7h-7V457.4z
	 M406.6,457.4h7v7h-7V457.4z M413.8,457.4h7v7h-7V457.4z M421.1,457.4h7v7h-7V457.4z M435.6,457.4h7v7h-7V457.4z M450.1,457.4h7v7
	h-7V457.4z M464.6,457.4h7v7h-7V457.4z M471.9,457.4h7v7h-7V457.4z M486.4,457.4h7v7h-7V457.4z M500.9,457.4h7v7h-7V457.4z
	 M508.2,457.4h7v7h-7V457.4z M515.5,457.4h7v7h-7V457.4z M522.7,457.4h7v7h-7V457.4z M530,457.4h7v7h-7V457.4z M537.2,457.4h7v7h-7
	V457.4z M544.5,457.4h7v7h-7V457.4z M551.8,457.4h7v7h-7V457.4z M559,457.4h7v7h-7V457.4z M566.3,457.4h7v7h-7V457.4z M573.5,457.4
	h7v7h-7V457.4z M580.8,457.4h7v7h-7V457.4z M588.1,457.4h7v7h-7V457.4z M595.3,457.4h7v7h-7V457.4z M602.6,457.4h7v7h-7V457.4z
	 M609.8,457.4h7v7h-7V457.4z M617.1,457.4h7v7h-7V457.4z M624.4,457.4h7v7h-7V457.4z M631.6,457.4h7v7h-7V457.4z M638.9,457.4h7v7
	h-7V457.4z M646.1,457.4h7v7h-7V457.4z M653.4,457.4h7v7h-7V457.4z M660.7,457.4h7v7h-7V457.4z M667.9,457.4h7v7h-7V457.4z
	 M675.2,457.4h7v7h-7V457.4z M689.7,457.4h7v7h-7V457.4z M697,457.4h7v7h-7V457.4z M711.5,457.4h7v7h-7V457.4z M718.7,457.4h7v7h-7
	V457.4z M726,457.4h7v7h-7V457.4z M740.5,457.4h7v7h-7V457.4z M747.8,457.4h7v7h-7V457.4z M755,457.4h7v7h-7V457.4z M14.5,464.6h7v7
	h-7V464.6z M21.8,464.6h7v7h-7V464.6z M29,464.6h7v7h-7V464.6z M72.6,464.6h7v7h-7V464.6z M79.9,464.6h7v7h-7V464.6z M87.1,464.6h7
	v7h-7V464.6z M94.4,464.6h7v7h-7V464.6z M101.6,464.6h7v7h-7V464.6z M108.9,464.6h7v7h-7V464.6z M116.2,464.6h7v7h-7V464.6z
	 M123.4,464.6h7v7h-7V464.6z M130.7,464.6h7v7h-7V464.6z M137.9,464.6h7v7h-7V464.6z M145.2,464.6h7v7h-7V464.6z M152.5,464.6h7v7
	h-7V464.6z M159.7,464.6h7v7h-7V464.6z M174.2,464.6h7v7h-7V464.6z M181.5,464.6h7v7h-7V464.6z M188.8,464.6h7v7h-7V464.6z
	 M196,464.6h7v7h-7V464.6z M203.3,464.6h7v7h-7V464.6z M217.8,464.6h7v7h-7V464.6z M225.1,464.6h7v7h-7V464.6z M232.3,464.6h7v7h-7
	V464.6z M239.6,464.6h7v7h-7V464.6z M246.8,464.6h7v7h-7V464.6z M254.1,464.6h7v7h-7V464.6z M268.6,464.6h7v7h-7V464.6z
	 M275.9,464.6h7v7h-7V464.6z M283.1,464.6h7v7h-7V464.6z M290.4,464.6h7v7h-7V464.6z M312.2,464.6h7v7h-7V464.6z M319.4,464.6h7v7
	h-7V464.6z M326.7,464.6h7v7h-7V464.6z M334,464.6h7v7h-7V464.6z M341.2,464.6h7v7h-7V464.6z M348.5,464.6h7v7h-7V464.6z
	 M355.7,464.6h7v7h-7V464.6z M363,464.6h7v7h-7V464.6z M370.3,464.6h7v7h-7V464.6z M377.5,464.6h7v7h-7V464.6z M384.8,464.6h7v7h-7
	V464.6z M399.3,464.6h7v7h-7V464.6z M406.6,464.6h7v7h-7V464.6z M413.8,464.6h7v7h-7V464.6z M428.3,464.6h7v7h-7V464.6z
	 M457.4,464.6h7v7h-7V464.6z M479.2,464.6h7v7h-7V464.6z M486.4,464.6h7v7h-7V464.6z M500.9,464.6h7v7h-7V464.6z M508.2,464.6h7v7
	h-7V464.6z M515.5,464.6h7v7h-7V464.6z M522.7,464.6h7v7h-7V464.6z M530,464.6h7v7h-7V464.6z M537.2,464.6h7v7h-7V464.6z
	 M544.5,464.6h7v7h-7V464.6z M551.8,464.6h7v7h-7V464.6z M559,464.6h7v7h-7V464.6z M566.3,464.6h7v7h-7V464.6z M573.5,464.6h7v7h-7
	V464.6z M580.8,464.6h7v7h-7V464.6z M588.1,464.6h7v7h-7V464.6z M595.3,464.6h7v7h-7V464.6z M602.6,464.6h7v7h-7V464.6z
	 M609.8,464.6h7v7h-7V464.6z M617.1,464.6h7v7h-7V464.6z M624.4,464.6h7v7h-7V464.6z M631.6,464.6h7v7h-7V464.6z M638.9,464.6h7v7
	h-7V464.6z M646.1,464.6h7v7h-7V464.6z M653.4,464.6h7v7h-7V464.6z M660.7,464.6h7v7h-7V464.6z M667.9,464.6h7v7h-7V464.6z
	 M682.4,464.6h7v7h-7V464.6z M689.7,464.6h7v7h-7V464.6z M697,464.6h7v7h-7V464.6z M704.2,464.6h7v7h-7V464.6z M711.5,464.6h7v7h-7
	V464.6z M718.7,464.6h7v7h-7V464.6z M726,464.6h7v7h-7V464.6z M733.3,464.6h7v7h-7V464.6z M740.5,464.6h7v7h-7V464.6z M747.8,464.6
	h7v7h-7V464.6z M14.5,471.9h7v7h-7V471.9z M21.8,471.9h7v7h-7V471.9z M29,471.9h7v7h-7V471.9z M36.3,471.9h7v7h-7V471.9z
	 M87.1,471.9h7v7h-7V471.9z M94.4,471.9h7v7h-7V471.9z M130.7,471.9h7v7h-7V471.9z M137.9,471.9h7v7h-7V471.9z M145.2,471.9h7v7h-7
	V471.9z M152.5,471.9h7v7h-7V471.9z M159.7,471.9h7v7h-7V471.9z M174.2,471.9h7v7h-7V471.9z M181.5,471.9h7v7h-7V471.9z
	 M188.8,471.9h7v7h-7V471.9z M196,471.9h7v7h-7V471.9z M203.3,471.9h7v7h-7V471.9z M217.8,471.9h7v7h-7V471.9z M232.3,471.9h7v7h-7
	V471.9z M239.6,471.9h7v7h-7V471.9z M246.8,471.9h7v7h-7V471.9z M268.6,471.9h7v7h-7V471.9z M275.9,471.9h7v7h-7V471.9z
	 M283.1,471.9h7v7h-7V471.9z M290.4,471.9h7v7h-7V471.9z M297.7,471.9h7v7h-7V471.9z M312.2,471.9h7v7h-7V471.9z M326.7,471.9h7v7
	h-7V471.9z M334,471.9h7v7h-7V471.9z M341.2,471.9h7v7h-7V471.9z M348.5,471.9h7v7h-7V471.9z M355.7,471.9h7v7h-7V471.9z M363,471.9
	h7v7h-7V471.9z M370.3,471.9h7v7h-7V471.9z M377.5,471.9h7v7h-7V471.9z M384.8,471.9h7v7h-7V471.9z M421.1,471.9h7v7h-7V471.9z
	 M428.3,471.9h7v7h-7V471.9z M435.6,471.9h7v7h-7V471.9z M442.9,471.9h7v7h-7V471.9z M450.1,471.9h7v7h-7V471.9z M457.4,471.9h7v7
	h-7V471.9z M464.6,471.9h7v7h-7V471.9z M471.9,471.9h7v7h-7V471.9z M479.2,471.9h7v7h-7V471.9z M493.7,471.9h7v7h-7V471.9z
	 M500.9,471.9h7v7h-7V471.9z M508.2,471.9h7v7h-7V471.9z M515.5,471.9h7v7h-7V471.9z M522.7,471.9h7v7h-7V471.9z M530,471.9h7v7h-7
	V471.9z M537.2,471.9h7v7h-7V471.9z M544.5,471.9h7v7h-7V471.9z M551.8,471.9h7v7h-7V471.9z M559,471.9h7v7h-7V471.9z M566.3,471.9
	h7v7h-7V471.9z M573.5,471.9h7v7h-7V471.9z M580.8,471.9h7v7h-7V471.9z M588.1,471.9h7v7h-7V471.9z M595.3,471.9h7v7h-7V471.9z
	 M602.6,471.9h7v7h-7V471.9z M609.8,471.9h7v7h-7V471.9z M617.1,471.9h7v7h-7V471.9z M624.4,471.9h7v7h-7V471.9z M631.6,471.9h7v7
	h-7V471.9z M638.9,471.9h7v7h-7V471.9z M646.1,471.9h7v7h-7V471.9z M653.4,471.9h7v7h-7V471.9z M660.7,471.9h7v7h-7V471.9z
	 M667.9,471.9h7v7h-7V471.9z M682.4,471.9h7v7h-7V471.9z M689.7,471.9h7v7h-7V471.9z M704.2,471.9h7v7h-7V471.9z M711.5,471.9h7v7
	h-7V471.9z M718.7,471.9h7v7h-7V471.9z M733.3,471.9h7v7h-7V471.9z M740.5,471.9h7v7h-7V471.9z M14.5,479.2h7v7h-7V479.2z
	 M21.8,479.2h7v7h-7V479.2z M29,479.2h7v7h-7V479.2z M36.3,479.2h7v7h-7V479.2z M94.4,479.2h7v7h-7V479.2z M137.9,479.2h7v7h-7
	V479.2z M145.2,479.2h7v7h-7V479.2z M152.5,479.2h7v7h-7V479.2z M159.7,479.2h7v7h-7V479.2z M174.2,479.2h7v7h-7V479.2z
	 M181.5,479.2h7v7h-7V479.2z M188.8,479.2h7v7h-7V479.2z M196,479.2h7v7h-7V479.2z M203.3,479.2h7v7h-7V479.2z M217.8,479.2h7v7h-7
	V479.2z M232.3,479.2h7v7h-7V479.2z M239.6,479.2h7v7h-7V479.2z M246.8,479.2h7v7h-7V479.2z M268.6,479.2h7v7h-7V479.2z
	 M283.1,479.2h7v7h-7V479.2z M297.7,479.2h7v7h-7V479.2z M312.2,479.2h7v7h-7V479.2z M326.7,479.2h7v7h-7V479.2z M334,479.2h7v7h-7
	V479.2z M341.2,479.2h7v7h-7V479.2z M348.5,479.2h7v7h-7V479.2z M355.7,479.2h7v7h-7V479.2z M363,479.2h7v7h-7V479.2z M370.3,479.2
	h7v7h-7V479.2z M377.5,479.2h7v7h-7V479.2z M384.8,479.2h7v7h-7V479.2z M392,479.2h7v7h-7V479.2z M399.3,479.2h7v7h-7V479.2z
	 M413.8,479.2h7v7h-7V479.2z M421.1,479.2h7v7h-7V479.2z M435.6,479.2h7v7h-7V479.2z M450.1,479.2h7v7h-7V479.2z M464.6,479.2h7v7
	h-7V479.2z M479.2,479.2h7v7h-7V479.2z M493.7,479.2h7v7h-7V479.2z M500.9,479.2h7v7h-7V479.2z M508.2,479.2h7v7h-7V479.2z
	 M515.5,479.2h7v7h-7V479.2z M522.7,479.2h7v7h-7V479.2z M530,479.2h7v7h-7V479.2z M537.2,479.2h7v7h-7V479.2z M544.5,479.2h7v7h-7
	V479.2z M551.8,479.2h7v7h-7V479.2z M559,479.2h7v7h-7V479.2z M566.3,479.2h7v7h-7V479.2z M573.5,479.2h7v7h-7V479.2z M580.8,479.2
	h7v7h-7V479.2z M588.1,479.2h7v7h-7V479.2z M595.3,479.2h7v7h-7V479.2z M602.6,479.2h7v7h-7V479.2z M609.8,479.2h7v7h-7V479.2z
	 M617.1,479.2h7v7h-7V479.2z M624.4,479.2h7v7h-7V479.2z M631.6,479.2h7v7h-7V479.2z M638.9,479.2h7v7h-7V479.2z M646.1,479.2h7v7
	h-7V479.2z M653.4,479.2h7v7h-7V479.2z M660.7,479.2h7v7h-7V479.2z M675.2,479.2h7v7h-7V479.2z M704.2,479.2h7v7h-7V479.2z
	 M733.3,479.2h7v7h-7V479.2z M137.9,486.4h7v7h-7V486.4z M145.2,486.4h7v7h-7V486.4z M152.5,486.4h7v7h-7V486.4z M174.2,486.4h7v7
	h-7V486.4z M181.5,486.4h7v7h-7V486.4z M196,486.4h7v7h-7V486.4z M203.3,486.4h7v7h-7V486.4z M217.8,486.4h7v7h-7V486.4z
	 M232.3,486.4h7v7h-7V486.4z M239.6,486.4h7v7h-7V486.4z M246.8,486.4h7v7h-7V486.4z M261.4,486.4h7v7h-7V486.4z M268.6,486.4h7v7
	h-7V486.4z M290.4,486.4h7v7h-7V486.4z M297.7,486.4h7v7h-7V486.4z M312.2,486.4h7v7h-7V486.4z M334,486.4h7v7h-7V486.4z
	 M341.2,486.4h7v7h-7V486.4z M355.7,486.4h7v7h-7V486.4z M363,486.4h7v7h-7V486.4z M370.3,486.4h7v7h-7V486.4z M377.5,486.4h7v7h-7
	V486.4z M384.8,486.4h7v7h-7V486.4z M392,486.4h7v7h-7V486.4z M399.3,486.4h7v7h-7V486.4z M406.6,486.4h7v7h-7V486.4z M413.8,486.4
	h7v7h-7V486.4z M442.9,486.4h7v7h-7V486.4z M471.9,486.4h7v7h-7V486.4z M479.2,486.4h7v7h-7V486.4z M493.7,486.4h7v7h-7V486.4z
	 M500.9,486.4h7v7h-7V486.4z M508.2,486.4h7v7h-7V486.4z M515.5,486.4h7v7h-7V486.4z M522.7,486.4h7v7h-7V486.4z M530,486.4h7v7h-7
	V486.4z M537.2,486.4h7v7h-7V486.4z M544.5,486.4h7v7h-7V486.4z M551.8,486.4h7v7h-7V486.4z M559,486.4h7v7h-7V486.4z M566.3,486.4
	h7v7h-7V486.4z M573.5,486.4h7v7h-7V486.4z M580.8,486.4h7v7h-7V486.4z M588.1,486.4h7v7h-7V486.4z M595.3,486.4h7v7h-7V486.4z
	 M602.6,486.4h7v7h-7V486.4z M609.8,486.4h7v7h-7V486.4z M617.1,486.4h7v7h-7V486.4z M624.4,486.4h7v7h-7V486.4z M631.6,486.4h7v7
	h-7V486.4z M638.9,486.4h7v7h-7V486.4z M646.1,486.4h7v7h-7V486.4z M653.4,486.4h7v7h-7V486.4z M667.9,486.4h7v7h-7V486.4z
	 M675.2,486.4h7v7h-7V486.4z M682.4,486.4h7v7h-7V486.4z M689.7,486.4h7v7h-7V486.4z M697,486.4h7v7h-7V486.4z M704.2,486.4h7v7h-7
	V486.4z M711.5,486.4h7v7h-7V486.4z M718.7,486.4h7v7h-7V486.4z M726,486.4h7v7h-7V486.4z M58.1,493.7h7v7h-7V493.7z M65.3,493.7h7
	v7h-7V493.7z M137.9,493.7h7v7h-7V493.7z M145.2,493.7h7v7h-7V493.7z M152.5,493.7h7v7h-7V493.7z M174.2,493.7h7v7h-7V493.7z
	 M188.8,493.7h7v7h-7V493.7z M196,493.7h7v7h-7V493.7z M203.3,493.7h7v7h-7V493.7z M217.8,493.7h7v7h-7V493.7z M232.3,493.7h7v7h-7
	V493.7z M239.6,493.7h7v7h-7V493.7z M246.8,493.7h7v7h-7V493.7z M268.6,493.7h7v7h-7V493.7z M283.1,493.7h7v7h-7V493.7z
	 M290.4,493.7h7v7h-7V493.7z M297.7,493.7h7v7h-7V493.7z M312.2,493.7h7v7h-7V493.7z M326.7,493.7h7v7h-7V493.7z M334,493.7h7v7h-7
	V493.7z M341.2,493.7h7v7h-7V493.7z M348.5,493.7h7v7h-7V493.7z M363,493.7h7v7h-7V493.7z M370.3,493.7h7v7h-7V493.7z M377.5,493.7
	h7v7h-7V493.7z M384.8,493.7h7v7h-7V493.7z M392,493.7h7v7h-7V493.7z M406.6,493.7h7v7h-7V493.7z M413.8,493.7h7v7h-7V493.7z
	 M421.1,493.7h7v7h-7V493.7z M428.3,493.7h7v7h-7V493.7z M435.6,493.7h7v7h-7V493.7z M442.9,493.7h7v7h-7V493.7z M450.1,493.7h7v7
	h-7V493.7z M457.4,493.7h7v7h-7V493.7z M464.6,493.7h7v7h-7V493.7z M471.9,493.7h7v7h-7V493.7z M486.4,493.7h7v7h-7V493.7z
	 M493.7,493.7h7v7h-7V493.7z M500.9,493.7h7v7h-7V493.7z M508.2,493.7h7v7h-7V493.7z M515.5,493.7h7v7h-7V493.7z M522.7,493.7h7v7
	h-7V493.7z M530,493.7h7v7h-7V493.7z M537.2,493.7h7v7h-7V493.7z M544.5,493.7h7v7h-7V493.7z M551.8,493.7h7v7h-7V493.7z M559,493.7
	h7v7h-7V493.7z M566.3,493.7h7v7h-7V493.7z M573.5,493.7h7v7h-7V493.7z M580.8,493.7h7v7h-7V493.7z M588.1,493.7h7v7h-7V493.7z
	 M595.3,493.7h7v7h-7V493.7z M602.6,493.7h7v7h-7V493.7z M609.8,493.7h7v7h-7V493.7z M617.1,493.7h7v7h-7V493.7z M624.4,493.7h7v7
	h-7V493.7z M631.6,493.7h7v7h-7V493.7z M638.9,493.7h7v7h-7V493.7z M646.1,493.7h7v7h-7V493.7z M660.7,493.7h7v7h-7V493.7z
	 M667.9,493.7h7v7h-7V493.7z M682.4,493.7h7v7h-7V493.7z M689.7,493.7h7v7h-7V493.7z M697,493.7h7v7h-7V493.7z M711.5,493.7h7v7h-7
	V493.7z M58.1,500.9h7v7h-7V500.9z M145.2,500.9h7v7h-7V500.9z M152.5,500.9h7v7h-7V500.9z M159.7,500.9h7v7h-7V500.9z M174.2,500.9
	h7v7h-7V500.9z M181.5,500.9h7v7h-7V500.9z M188.8,500.9h7v7h-7V500.9z M196,500.9h7v7h-7V500.9z M203.3,500.9h7v7h-7V500.9z
	 M210.5,500.9h7v7h-7V500.9z M217.8,500.9h7v7h-7V500.9z M225.1,500.9h7v7h-7V500.9z M232.3,500.9h7v7h-7V500.9z M239.6,500.9h7v7
	h-7V500.9z M246.8,500.9h7v7h-7V500.9z M254.1,500.9h7v7h-7V500.9z M268.6,500.9h7v7h-7V500.9z M275.9,500.9h7v7h-7V500.9z
	 M290.4,500.9h7v7h-7V500.9z M297.7,500.9h7v7h-7V500.9z M312.2,500.9h7v7h-7V500.9z M326.7,500.9h7v7h-7V500.9z M334,500.9h7v7h-7
	V500.9z M341.2,500.9h7v7h-7V500.9z M363,500.9h7v7h-7V500.9z M370.3,500.9h7v7h-7V500.9z M377.5,500.9h7v7h-7V500.9z M384.8,500.9
	h7v7h-7V500.9z M392,500.9h7v7h-7V500.9z M399.3,500.9h7v7h-7V500.9z M406.6,500.9h7v7h-7V500.9z M421.1,500.9h7v7h-7V500.9z
	 M435.6,500.9h7v7h-7V500.9z M442.9,500.9h7v7h-7V500.9z M457.4,500.9h7v7h-7V500.9z M471.9,500.9h7v7h-7V500.9z M486.4,500.9h7v7
	h-7V500.9z M493.7,500.9h7v7h-7V500.9z M500.9,500.9h7v7h-7V500.9z M508.2,500.9h7v7h-7V500.9z M515.5,500.9h7v7h-7V500.9z
	 M522.7,500.9h7v7h-7V500.9z M530,500.9h7v7h-7V500.9z M537.2,500.9h7v7h-7V500.9z M544.5,500.9h7v7h-7V500.9z M551.8,500.9h7v7h-7
	V500.9z M559,500.9h7v7h-7V500.9z M566.3,500.9h7v7h-7V500.9z M573.5,500.9h7v7h-7V500.9z M580.8,500.9h7v7h-7V500.9z M588.1,500.9
	h7v7h-7V500.9z M595.3,500.9h7v7h-7V500.9z M602.6,500.9h7v7h-7V500.9z M609.8,500.9h7v7h-7V500.9z M617.1,500.9h7v7h-7V500.9z
	 M624.4,500.9h7v7h-7V500.9z M631.6,500.9h7v7h-7V500.9z M638.9,500.9h7v7h-7V500.9z M653.4,500.9h7v7h-7V500.9z M675.2,500.9h7v7
	h-7V500.9z M682.4,500.9h7v7h-7V500.9z M704.2,500.9h7v7h-7V500.9z M7.3,508.2h7v7h-7V508.2z M50.8,508.2h7v7h-7V508.2z
	 M145.2,508.2h7v7h-7V508.2z M152.5,508.2h7v7h-7V508.2z M159.7,508.2h7v7h-7V508.2z M174.2,508.2h7v7h-7V508.2z M181.5,508.2h7v7
	h-7V508.2z M188.8,508.2h7v7h-7V508.2z M196,508.2h7v7h-7V508.2z M203.3,508.2h7v7h-7V508.2z M210.5,508.2h7v7h-7V508.2z
	 M217.8,508.2h7v7h-7V508.2z M225.1,508.2h7v7h-7V508.2z M254.1,508.2h7v7h-7V508.2z M268.6,508.2h7v7h-7V508.2z M275.9,508.2h7v7
	h-7V508.2z M283.1,508.2h7v7h-7V508.2z M290.4,508.2h7v7h-7V508.2z M304.9,508.2h7v7h-7V508.2z M312.2,508.2h7v7h-7V508.2z
	 M319.4,508.2h7v7h-7V508.2z M326.7,508.2h7v7h-7V508.2z M334,508.2h7v7h-7V508.2z M355.7,508.2h7v7h-7V508.2z M363,508.2h7v7h-7
	V508.2z M370.3,508.2h7v7h-7V508.2z M377.5,508.2h7v7h-7V508.2z M392,508.2h7v7h-7V508.2z M399.3,508.2h7v7h-7V508.2z M428.3,508.2
	h7v7h-7V508.2z M435.6,508.2h7v7h-7V508.2z M464.6,508.2h7v7h-7V508.2z M479.2,508.2h7v7h-7V508.2z M500.9,508.2h7v7h-7V508.2z
	 M508.2,508.2h7v7h-7V508.2z M515.5,508.2h7v7h-7V508.2z M522.7,508.2h7v7h-7V508.2z M530,508.2h7v7h-7V508.2z M537.2,508.2h7v7h-7
	V508.2z M544.5,508.2h7v7h-7V508.2z M551.8,508.2h7v7h-7V508.2z M559,508.2h7v7h-7V508.2z M566.3,508.2h7v7h-7V508.2z M573.5,508.2
	h7v7h-7V508.2z M580.8,508.2h7v7h-7V508.2z M588.1,508.2h7v7h-7V508.2z M595.3,508.2h7v7h-7V508.2z M609.8,508.2h7v7h-7V508.2z
	 M624.4,508.2h7v7h-7V508.2z M631.6,508.2h7v7h-7V508.2z M646.1,508.2h7v7h-7V508.2z M653.4,508.2h7v7h-7V508.2z M660.7,508.2h7v7
	h-7V508.2z M667.9,508.2h7v7h-7V508.2z M675.2,508.2h7v7h-7V508.2z M682.4,508.2h7v7h-7V508.2z M689.7,508.2h7v7h-7V508.2z
	 M697,508.2h7v7h-7V508.2z M7.3,515.5h7v7h-7V515.5z M14.5,515.5h7v7h-7V515.5z M43.6,515.5h7v7h-7V515.5z M50.8,515.5h7v7h-7V515.5
	z M145.2,515.5h7v7h-7V515.5z M174.2,515.5h7v7h-7V515.5z M181.5,515.5h7v7h-7V515.5z M188.8,515.5h7v7h-7V515.5z M196,515.5h7v7h-7
	V515.5z M261.4,515.5h7v7h-7V515.5z M268.6,515.5h7v7h-7V515.5z M275.9,515.5h7v7h-7V515.5z M283.1,515.5h7v7h-7V515.5z
	 M304.9,515.5h7v7h-7V515.5z M312.2,515.5h7v7h-7V515.5z M319.4,515.5h7v7h-7V515.5z M326.7,515.5h7v7h-7V515.5z M334,515.5h7v7h-7
	V515.5z M341.2,515.5h7v7h-7V515.5z M348.5,515.5h7v7h-7V515.5z M355.7,515.5h7v7h-7V515.5z M363,515.5h7v7h-7V515.5z M370.3,515.5
	h7v7h-7V515.5z M384.8,515.5h7v7h-7V515.5z M392,515.5h7v7h-7V515.5z M399.3,515.5h7v7h-7V515.5z M406.6,515.5h7v7h-7V515.5z
	 M413.8,515.5h7v7h-7V515.5z M421.1,515.5h7v7h-7V515.5z M428.3,515.5h7v7h-7V515.5z M435.6,515.5h7v7h-7V515.5z M442.9,515.5h7v7
	h-7V515.5z M450.1,515.5h7v7h-7V515.5z M457.4,515.5h7v7h-7V515.5z M471.9,515.5h7v7h-7V515.5z M500.9,515.5h7v7h-7V515.5z
	 M508.2,515.5h7v7h-7V515.5z M515.5,515.5h7v7h-7V515.5z M522.7,515.5h7v7h-7V515.5z M530,515.5h7v7h-7V515.5z M537.2,515.5h7v7h-7
	V515.5z M544.5,515.5h7v7h-7V515.5z M551.8,515.5h7v7h-7V515.5z M559,515.5h7v7h-7V515.5z M566.3,515.5h7v7h-7V515.5z M573.5,515.5
	h7v7h-7V515.5z M580.8,515.5h7v7h-7V515.5z M588.1,515.5h7v7h-7V515.5z M595.3,515.5h7v7h-7V515.5z M602.6,515.5h7v7h-7V515.5z
	 M617.1,515.5h7v7h-7V515.5z M624.4,515.5h7v7h-7V515.5z M638.9,515.5h7v7h-7V515.5z M646.1,515.5h7v7h-7V515.5z M660.7,515.5h7v7
	h-7V515.5z M667.9,515.5h7v7h-7V515.5z M675.2,515.5h7v7h-7V515.5z M682.4,515.5h7v7h-7V515.5z M7.3,522.7h7v7h-7V522.7z
	 M14.5,522.7h7v7h-7V522.7z M21.8,522.7h7v7h-7V522.7z M29,522.7h7v7h-7V522.7z M36.3,522.7h7v7h-7V522.7z M43.6,522.7h7v7h-7V522.7
	z M50.8,522.7h7v7h-7V522.7z M58.1,522.7h7v7h-7V522.7z M145.2,522.7h7v7h-7V522.7z M174.2,522.7h7v7h-7V522.7z M181.5,522.7h7v7h-7
	V522.7z M188.8,522.7h7v7h-7V522.7z M196,522.7h7v7h-7V522.7z M275.9,522.7h7v7h-7V522.7z M290.4,522.7h7v7h-7V522.7z M297.7,522.7
	h7v7h-7V522.7z M304.9,522.7h7v7h-7V522.7z M312.2,522.7h7v7h-7V522.7z M319.4,522.7h7v7h-7V522.7z M326.7,522.7h7v7h-7V522.7z
	 M334,522.7h7v7h-7V522.7z M355.7,522.7h7v7h-7V522.7z M377.5,522.7h7v7h-7V522.7z M384.8,522.7h7v7h-7V522.7z M399.3,522.7h7v7h-7
	V522.7z M413.8,522.7h7v7h-7V522.7z M421.1,522.7h7v7h-7V522.7z M435.6,522.7h7v7h-7V522.7z M450.1,522.7h7v7h-7V522.7z
	 M464.6,522.7h7v7h-7V522.7z M493.7,522.7h7v7h-7V522.7z M500.9,522.7h7v7h-7V522.7z M508.2,522.7h7v7h-7V522.7z M515.5,522.7h7v7
	h-7V522.7z M522.7,522.7h7v7h-7V522.7z M530,522.7h7v7h-7V522.7z M537.2,522.7h7v7h-7V522.7z M544.5,522.7h7v7h-7V522.7z
	 M551.8,522.7h7v7h-7V522.7z M559,522.7h7v7h-7V522.7z M580.8,522.7h7v7h-7V522.7z M588.1,522.7h7v7h-7V522.7z M595.3,522.7h7v7h-7
	V522.7z M602.6,522.7h7v7h-7V522.7z M609.8,522.7h7v7h-7V522.7z M617.1,522.7h7v7h-7V522.7z M631.6,522.7h7v7h-7V522.7z
	 M653.4,522.7h7v7h-7V522.7z M660.7,522.7h7v7h-7V522.7z M667.9,522.7h7v7h-7V522.7z M7.3,530h7v7h-7V530z M14.5,530h7v7h-7V530z
	 M21.8,530h7v7h-7V530z M29,530h7v7h-7V530z M36.3,530h7v7h-7V530z M43.6,530h7v7h-7V530z M50.8,530h7v7h-7V530z M58.1,530h7v7h-7
	V530z M65.3,530h7v7h-7V530z M72.6,530h7v7h-7V530z M87.1,530h7v7h-7V530z M94.4,530h7v7h-7V530z M108.9,530h7v7h-7V530z M145.2,530
	h7v7h-7V530z M174.2,530h7v7h-7V530z M196,530h7v7h-7V530z M203.3,530h7v7h-7V530z M210.5,530h7v7h-7V530z M275.9,530h7v7h-7V530z
	 M283.1,530h7v7h-7V530z M290.4,530h7v7h-7V530z M297.7,530h7v7h-7V530z M304.9,530h7v7h-7V530z M312.2,530h7v7h-7V530z M319.4,530
	h7v7h-7V530z M326.7,530h7v7h-7V530z M334,530h7v7h-7V530z M341.2,530h7v7h-7V530z M348.5,530h7v7h-7V530z M363,530h7v7h-7V530z
	 M370.3,530h7v7h-7V530z M377.5,530h7v7h-7V530z M406.6,530h7v7h-7V530z M413.8,530h7v7h-7V530z M442.9,530h7v7h-7V530z M457.4,530
	h7v7h-7V530z M464.6,530h7v7h-7V530z M471.9,530h7v7h-7V530z M479.2,530h7v7h-7V530z M486.4,530h7v7h-7V530z M493.7,530h7v7h-7V530z
	 M500.9,530h7v7h-7V530z M508.2,530h7v7h-7V530z M515.5,530h7v7h-7V530z M522.7,530h7v7h-7V530z M530,530h7v7h-7V530z M537.2,530h7
	v7h-7V530z M544.5,530h7v7h-7V530z M551.8,530h7v7h-7V530z M566.3,530h7v7h-7V530z M573.5,530h7v7h-7V530z M580.8,530h7v7h-7V530z
	 M588.1,530h7v7h-7V530z M595.3,530h7v7h-7V530z M602.6,530h7v7h-7V530z M609.8,530h7v7h-7V530z M617.1,530h7v7h-7V530z M624.4,530
	h7v7h-7V530z M631.6,530h7v7h-7V530z M638.9,530h7v7h-7V530z M646.1,530h7v7h-7V530z M653.4,530h7v7h-7V530z M660.7,530h7v7h-7V530z
	 M667.9,530h7v7h-7V530z M675.2,530h7v7h-7V530z M718.7,493.7h7v7h-7V493.7z M711.5,500.9h7v7h-7V500.9z M704.2,508.2h7v7h-7V508.2z
	 M697,515.5h7v7h-7V515.5z M689.7,522.7h7v7h-7V522.7z M682.4,530h7v7h-7V530z M7.3,537.2h7v7h-7V537.2z M14.5,537.2h7v7h-7V537.2z
	 M21.8,537.2h7v7h-7V537.2z M29,537.2h7v7h-7V537.2z M36.3,537.2h7v7h-7V537.2z M43.6,537.2h7v7h-7V537.2z M50.8,537.2h7v7h-7V537.2
	z M58.1,537.2h7v7h-7V537.2z M65.3,537.2h7v7h-7V537.2z M72.6,537.2h7v7h-7V537.2z M79.9,537.2h7v7h-7V537.2z M87.1,537.2h7v7h-7
	V537.2z M94.4,537.2h7v7h-7V537.2z M101.6,537.2h7v7h-7V537.2z M108.9,537.2h7v7h-7V537.2z M116.2,537.2h7v7h-7V537.2z M137.9,537.2
	h7v7h-7V537.2z M145.2,537.2h7v7h-7V537.2z M152.5,537.2h7v7h-7V537.2z M159.7,537.2h7v7h-7V537.2z M174.2,537.2h7v7h-7V537.2z
	 M196,537.2h7v7h-7V537.2z M203.3,537.2h7v7h-7V537.2z M210.5,537.2h7v7h-7V537.2z M217.8,537.2h7v7h-7V537.2z M232.3,537.2h7v7h-7
	V537.2z M283.1,537.2h7v7h-7V537.2z M297.7,537.2h7v7h-7V537.2z M304.9,537.2h7v7h-7V537.2z M312.2,537.2h7v7h-7V537.2z
	 M319.4,537.2h7v7h-7V537.2z M341.2,537.2h7v7h-7V537.2z M355.7,537.2h7v7h-7V537.2z M363,537.2h7v7h-7V537.2z M370.3,537.2h7v7h-7
	V537.2z M377.5,537.2h7v7h-7V537.2z M384.8,537.2h7v7h-7V537.2z M392,537.2h7v7h-7V537.2z M399.3,537.2h7v7h-7V537.2z M406.6,537.2
	h7v7h-7V537.2z M413.8,537.2h7v7h-7V537.2z M421.1,537.2h7v7h-7V537.2z M428.3,537.2h7v7h-7V537.2z M435.6,537.2h7v7h-7V537.2z
	 M450.1,537.2h7v7h-7V537.2z M457.4,537.2h7v7h-7V537.2z M464.6,537.2h7v7h-7V537.2z M471.9,537.2h7v7h-7V537.2z M479.2,537.2h7v7
	h-7V537.2z M486.4,537.2h7v7h-7V537.2z M493.7,537.2h7v7h-7V537.2z M500.9,537.2h7v7h-7V537.2z M508.2,537.2h7v7h-7V537.2z
	 M515.5,537.2h7v7h-7V537.2z M522.7,537.2h7v7h-7V537.2z M530,537.2h7v7h-7V537.2z M537.2,537.2h7v7h-7V537.2z M544.5,537.2h7v7h-7
	V537.2z M551.8,537.2h7v7h-7V537.2z M559,537.2h7v7h-7V537.2z M566.3,537.2h7v7h-7V537.2z M573.5,537.2h7v7h-7V537.2z M580.8,537.2
	h7v7h-7V537.2z M588.1,537.2h7v7h-7V537.2z M595.3,537.2h7v7h-7V537.2z M602.6,537.2h7v7h-7V537.2z M609.8,537.2h7v7h-7V537.2z
	 M617.1,537.2h7v7h-7V537.2z M624.4,537.2h7v7h-7V537.2z M631.6,537.2h7v7h-7V537.2z M638.9,537.2h7v7h-7V537.2z M646.1,537.2h7v7
	h-7V537.2z M653.4,537.2h7v7h-7V537.2z M660.7,537.2h7v7h-7V537.2z M667.9,537.2h7v7h-7V537.2z M675.2,537.2h7v7h-7V537.2z
	 M682.4,537.2h7v7h-7V537.2z M689.7,537.2h7v7h-7V537.2z M697,537.2h7v7h-7V537.2z M704.2,537.2h7v7h-7V537.2z M711.5,537.2h7v7h-7
	V537.2z M718.7,537.2h7v7h-7V537.2z M726,537.2h7v7h-7V537.2z M733.3,537.2h7v7h-7V537.2z M740.5,537.2h7v7h-7V537.2z M747.8,537.2
	h7v7h-7V537.2z M755,537.2h7v7h-7V537.2z M798.6,537.2h7v7h-7V537.2z M791.3,537.2h7v7h-7V537.2z M805.9,537.2h7v7h-7V537.2z
	 M813.1,537.2h7v7h-7V537.2z M820.4,537.2h7v7h-7V537.2z M827.6,537.2h7v7h-7V537.2z M834.9,537.2h7v7h-7V537.2z M842.2,537.2h7v7
	h-7V537.2z M849.4,537.2h7v7h-7V537.2z M7.3,544.5h7v7h-7V544.5z M14.5,544.5h7v7h-7V544.5z M21.8,544.5h7v7h-7V544.5z M29,544.5h7
	v7h-7V544.5z M36.3,544.5h7v7h-7V544.5z M43.6,544.5h7v7h-7V544.5z M50.8,544.5h7v7h-7V544.5z M58.1,544.5h7v7h-7V544.5z
	 M65.3,544.5h7v7h-7V544.5z M72.6,544.5h7v7h-7V544.5z M79.9,544.5h7v7h-7V544.5z M87.1,544.5h7v7h-7V544.5z M94.4,544.5h7v7h-7
	V544.5z M101.6,544.5h7v7h-7V544.5z M108.9,544.5h7v7h-7V544.5z M116.2,544.5h7v7h-7V544.5z M123.4,544.5h7v7h-7V544.5z
	 M130.7,544.5h7v7h-7V544.5z M137.9,544.5h7v7h-7V544.5z M145.2,544.5h7v7h-7V544.5z M152.5,544.5h7v7h-7V544.5z M159.7,544.5h7v7
	h-7V544.5z M167,544.5h7v7h-7V544.5z M174.2,544.5h7v7h-7V544.5z M181.5,544.5h7v7h-7V544.5z M188.8,544.5h7v7h-7V544.5z M196,544.5
	h7v7h-7V544.5z M203.3,544.5h7v7h-7V544.5z M210.5,544.5h7v7h-7V544.5z M217.8,544.5h7v7h-7V544.5z M225.1,544.5h7v7h-7V544.5z
	 M232.3,544.5h7v7h-7V544.5z M239.6,544.5h7v7h-7V544.5z M246.8,544.5h7v7h-7V544.5z M254.1,544.5h7v7h-7V544.5z M261.4,544.5h7v7
	h-7V544.5z M268.6,544.5h7v7h-7V544.5z M275.9,544.5h7v7h-7V544.5z M283.1,544.5h7v7h-7V544.5z M290.4,544.5h7v7h-7V544.5z
	 M297.7,544.5h7v7h-7V544.5z M304.9,544.5h7v7h-7V544.5z M312.2,544.5h7v7h-7V544.5z M319.4,544.5h7v7h-7V544.5z M326.7,544.5h7v7
	h-7V544.5z M334,544.5h7v7h-7V544.5z M341.2,544.5h7v7h-7V544.5z M348.5,544.5h7v7h-7V544.5z M355.7,544.5h7v7h-7V544.5z M363,544.5
	h7v7h-7V544.5z M370.3,544.5h7v7h-7V544.5z M377.5,544.5h7v7h-7V544.5z M384.8,544.5h7v7h-7V544.5z M392,544.5h7v7h-7V544.5z
	 M399.3,544.5h7v7h-7V544.5z M406.6,544.5h7v7h-7V544.5z M413.8,544.5h7v7h-7V544.5z M421.1,544.5h7v7h-7V544.5z M428.3,544.5h7v7
	h-7V544.5z M435.6,544.5h7v7h-7V544.5z M442.9,544.5h7v7h-7V544.5z M450.1,544.5h7v7h-7V544.5z M457.4,544.5h7v7h-7V544.5z
	 M464.6,544.5h7v7h-7V544.5z M471.9,544.5h7v7h-7V544.5z M479.2,544.5h7v7h-7V544.5z M486.4,544.5h7v7h-7V544.5z M493.7,544.5h7v7
	h-7V544.5z M500.9,544.5h7v7h-7V544.5z M508.2,544.5h7v7h-7V544.5z M515.5,544.5h7v7h-7V544.5z M522.7,544.5h7v7h-7V544.5z
	 M530,544.5h7v7h-7V544.5z M537.2,544.5h7v7h-7V544.5z M544.5,544.5h7v7h-7V544.5z M551.8,544.5h7v7h-7V544.5z M559,544.5h7v7h-7
	V544.5z M566.3,544.5h7v7h-7V544.5z M573.5,544.5h7v7h-7V544.5z M580.8,544.5h7v7h-7V544.5z M588.1,544.5h7v7h-7V544.5z
	 M595.3,544.5h7v7h-7V544.5z M602.6,544.5h7v7h-7V544.5z M609.8,544.5h7v7h-7V544.5z M617.1,544.5h7v7h-7V544.5z M624.4,544.5h7v7
	h-7V544.5z M631.6,544.5h7v7h-7V544.5z M638.9,544.5h7v7h-7V544.5z M646.1,544.5h7v7h-7V544.5z M653.4,544.5h7v7h-7V544.5z
	 M660.7,544.5h7v7h-7V544.5z M667.9,544.5h7v7h-7V544.5z M675.2,544.5h7v7h-7V544.5z M682.4,544.5h7v7h-7V544.5z M689.7,544.5h7v7
	h-7V544.5z M697,544.5h7v7h-7V544.5z M704.2,544.5h7v7h-7V544.5z M711.5,544.5h7v7h-7V544.5z M718.7,544.5h7v7h-7V544.5z
	 M798.6,544.5h7v7h-7V544.5z M805.9,544.5h7v7h-7V544.5z M813.1,544.5h7v7h-7V544.5z M820.4,544.5h7v7h-7V544.5z M827.6,544.5h7v7
	h-7V544.5z M834.9,544.5h7v7h-7V544.5z M842.2,544.5h7v7h-7V544.5z M805.9,551.8h7v7h-7V551.8z M813.1,551.8h7v7h-7V551.8z
	 M820.4,551.8h7v7h-7V551.8z M827.6,551.8h7v7h-7V551.8z M834.9,551.8h7v7h-7V551.8z M813.1,559h7v7h-7V559z M820.4,559h7v7h-7V559z
	 M820.4,566.3h7v7h-7V566.3z M827.6,559h7v7h-7V559z"/>
</svg>
