<?xml version="1.0" encoding="utf-8"?>
<!-- Generator: Adobe Illustrator 27.3.1, SVG Export Plug-In . SVG Version: 6.00 Build 0)  -->
<svg version="1.1" id="Слой_1" xmlns="http://www.w3.org/2000/svg" xmlns:xlink="http://www.w3.org/1999/xlink" x="0px" y="0px"
	 viewBox="0 0 101.4 108.6" style="enable-background:new 0 0 101.4 108.6;" xml:space="preserve">
<style type="text/css">
	.st0{fill:#1E0E01;}
</style>
<path class="st0" d="M7.3,50.8h7v7h-7V50.8z M7.3,43.5h7v7h-7V43.5z M7.3,36.3h7v7h-7V36.3z M7.3,29h7v7h-7V29z M7.3,21.7h7v7h-7
	V21.7z M0,36.3h7v7H0V36.3z M0,29h7v7H0V29z M0,21.7h7v7H0V21.7z M7.3,14.5h7v7h-7V14.5z M14.5,65.3h7v7h-7V65.3z M14.5,58h7v7h-7
	V58z M14.5,50.8h7v7h-7V50.8z M14.5,43.5h7v7h-7V43.5z M14.5,36.3h7v7h-7V36.3z M14.5,29h7v7h-7V29z M14.5,21.7h7v7h-7V21.7z
	 M14.5,14.5h7v7h-7V14.5z M14.5,7.2h7v7h-7V7.2z M21.8,72.6h7v7h-7V72.6z M21.8,65.3h7v7h-7V65.3z M21.8,58h7v7h-7V58z M21.8,50.8h7
	v7h-7V50.8z M21.8,43.5h7v7h-7V43.5z M21.8,0h7v7h-7V0z M29.1,79.8h7v7h-7V79.8z M29.1,72.6h7v7h-7V72.6z M29.1,65.3h7v7h-7V65.3z
	 M29.1,58h7v7h-7V58z M29.1,0h7v7h-7V0z M36.3,87.1h7v7h-7V87.1z M36.3,79.8h7v7h-7V79.8z M36.3,72.6h7v7h-7V72.6z M36.3,0h7v7h-7V0
	z M43.6,94.3h7v7h-7V94.3z M43.6,87.1h7v7h-7V87.1z M43.6,79.8h7v7h-7V79.8z M43.6,58h7v7h-7V58z M43.6,50.8h7v7h-7V50.8z M43.6,29
	h7v7h-7V29z M43.6,7.2h7v7h-7V7.2z M43.6,0h7v7h-7V0z M50.8,94.3h7v7h-7V94.3z M50.8,87.1h7v7h-7V87.1z M50.8,79.8h7v7h-7V79.8z
	 M50.8,50.8h7v7h-7V50.8z M50.8,43.5h7v7h-7V43.5z M50.8,29h7v7h-7V29z M50.8,7.2h7v7h-7V7.2z M58.1,101.6h7v7h-7V101.6z M58.1,94.3
	h7v7h-7V94.3z M58.1,87.1h7v7h-7V87.1z M58.1,43.5h7v7h-7V43.5z M58.1,29h7v7h-7V29z M58.1,14.5h7v7h-7V14.5z M58.1,7.2h7v7h-7V7.2z
	 M65.4,101.6h7v7h-7V101.6z M65.4,94.3h7v7h-7V94.3z M65.4,65.3h7v7h-7V65.3z M65.4,58h7v7h-7V58z M65.4,36.3h7v7h-7V36.3z M65.4,29
	h7v7h-7V29z M72.6,101.6h7v7h-7V101.6z M72.6,94.3h7v7h-7V94.3z M72.6,58h7v7h-7V58z M72.6,50.8h7v7h-7V50.8z M72.6,43.5h7v7h-7
	V43.5z M72.6,36.3h7v7h-7V36.3z M72.6,29h7v7h-7V29z M79.9,94.3h7v7h-7V94.3z M79.9,21.7h7v7h-7V21.7z M79.9,14.5h7v7h-7V14.5z
	 M87.1,94.3h7v7h-7V94.3z M87.1,87.1h7v7h-7V87.1z M87.1,50.8h7v7h-7V50.8z M87.1,21.7h7v7h-7V21.7z M87.1,14.5h7v7h-7V14.5z
	 M94.4,87.1h7v7h-7V87.1z M94.4,79.8h7v7h-7V79.8z M94.4,72.6h7v7h-7V72.6z M94.4,65.3h7v7h-7V65.3z M94.4,58h7v7h-7V58z"/>
</svg>
