<?xml version="1.0" encoding="utf-8"?>
<!-- Generator: Adobe Illustrator 27.3.1, SVG Export Plug-In . SVG Version: 6.00 Build 0)  -->
<svg version="1.1" xmlns="http://www.w3.org/2000/svg" xmlns:xlink="http://www.w3.org/1999/xlink" x="0px" y="0px"
	 viewBox="0 0 401.8 133.2" style="enable-background:new 0 0 401.8 133.2;" xml:space="preserve">
<style type="text/css">
	.st0{fill:#FCE19B;}
	.st1{fill:#1E0E01;}
</style>
<g id="Слой_2">
	<path class="st0" d="M401.8,19.5c0-2.8-2.2-5-5-5h-2.3v-2.2c0-2.8-2.2-5-5-5h-2.3V5c0-2.8-2.2-5-5-5h-7c-0.1,0-0.1,0-0.2,0h-7
		c-0.1,0-0.2,0-0.3,0h-7c-0.1,0-0.2,0-0.3,0h-7c-0.1,0-0.2,0-0.3,0h-7c-0.1,0-0.2,0-0.3,0h-7c-0.1,0-0.2,0-0.3,0h-7
		c-0.1,0-0.2,0-0.3,0h-7c-0.1,0-0.2,0-0.3,0h-7c-0.1,0-0.2,0-0.3,0h-7c-0.1,0-0.2,0-0.3,0h-7c-0.1,0-0.2,0-0.3,0h-7
		c-0.1,0-0.2,0-0.3,0h-7c-0.1,0-0.2,0-0.3,0h-7c-0.1,0-0.2,0-0.3,0h-7c-0.1,0-0.2,0-0.3,0h-7c-0.1,0-0.2,0-0.3,0h-7
		c-0.1,0-0.2,0-0.3,0h-7c-0.1,0-0.2,0-0.3,0h-7c-0.1,0-0.2,0-0.3,0h-7c-0.1,0-0.2,0-0.3,0h-7c-0.1,0-0.2,0-0.3,0h-7
		c-0.1,0-0.2,0-0.3,0h-7c-0.1,0-0.2,0-0.3,0h-7c-0.1,0-0.2,0-0.3,0h-7c-0.1,0-0.2,0-0.3,0h-7c-0.1,0-0.2,0-0.3,0h-7
		c-0.1,0-0.2,0-0.3,0h-7c-0.1,0-0.2,0-0.3,0h-7c-0.1,0-0.2,0-0.3,0h-7c-0.1,0-0.2,0-0.3,0h-7c-0.1,0-0.2,0-0.3,0h-7
		c-0.1,0-0.2,0-0.3,0h-7c-0.1,0-0.2,0-0.3,0h-7c-0.1,0-0.2,0-0.3,0h-7c-0.1,0-0.2,0-0.3,0h-7c-0.1,0-0.2,0-0.3,0h-7
		c-0.1,0-0.2,0-0.3,0h-7c-0.1,0-0.2,0-0.3,0h-7c-0.1,0-0.2,0-0.3,0h-7c-0.1,0-0.2,0-0.3,0h-7c-0.1,0-0.2,0-0.3,0h-7
		c-0.1,0-0.2,0-0.3,0h-7c-0.1,0-0.2,0-0.3,0h-7c-0.1,0-0.2,0-0.3,0h-7c-0.1,0-0.2,0-0.3,0h-7c-0.1,0-0.2,0-0.3,0h-7
		c-0.1,0-0.2,0-0.3,0h-7c-0.1,0-0.2,0-0.3,0h-7c-0.1,0-0.2,0-0.3,0h-7c-2.8,0-5,2.2-5,5v2.3h-2.3c-2.8,0-5,2.2-5,5v2.2H5
		c-2.8,0-5,2.2-5,5v7c0,0.1,0,0.1,0,0.1c0,0,0,0.1,0,0.1v7c0,2.8,2.2,5,5,5h2.3v2.3c0,0,0,0.1,0,0.1c0,0,0,0.1,0,0.1v7
		c0,0.1,0,0.1,0,0.1c0,0.1,0,0.1,0,0.2v2.2H5c-2.8,0-5,2.2-5,5v7c0,0.1,0,0.1,0,0.1c0,0.1,0,0.1,0,0.2v7c0,0,0,0.1,0,0.1
		c0,0,0,0.1,0,0.1v7c0,2.8,2.2,5,5,5h2.3v2.3c0,0.1,0,0.1,0,0.2c0,0,0,0.1,0,0.2v7c0,0,0,0.1,0,0.1c0,0,0,0.1,0,0.1v2.3H5
		c-2.8,0-5,2.2-5,5v7c0,0,0,0.1,0,0.2c0,0,0,0.1,0,0.1v7c0,2.8,2.2,5,5,5h2.3v2.2c0,2.8,2.2,5,5,5h2.3v2.3c0,2.8,2.2,5,5,5h7
		c0.1,0,0.2,0,0.3,0h7c0.1,0,0.2,0,0.3,0h7c0.1,0,0.2,0,0.3,0h7c0.1,0,0.2,0,0.3,0h7c0.1,0,0.2,0,0.3,0h7c0.1,0,0.2,0,0.3,0h7
		c0.1,0,0.2,0,0.3,0h7c0.1,0,0.2,0,0.3,0h7c0.1,0,0.2,0,0.3,0h7c0.1,0,0.2,0,0.3,0h7c0.1,0,0.2,0,0.3,0h7c0.1,0,0.2,0,0.3,0h7
		c0.1,0,0.2,0,0.3,0h7c0.1,0,0.2,0,0.3,0h7c0.1,0,0.2,0,0.3,0h7c0.1,0,0.2,0,0.3,0h7c0.1,0,0.2,0,0.3,0h7c0.1,0,0.2,0,0.3,0h7
		c0.1,0,0.2,0,0.3,0h7c0.1,0,0.2,0,0.3,0h7c0.1,0,0.2,0,0.3,0h7c0.1,0,0.2,0,0.3,0h7c0.1,0,0.2,0,0.3,0h7c0.1,0,0.2,0,0.3,0h7
		c0.1,0,0.2,0,0.3,0h7c0.1,0,0.2,0,0.3,0h7c0.1,0,0.2,0,0.3,0h7c0.1,0,0.2,0,0.3,0h7c0.1,0,0.2,0,0.3,0h7c0.1,0,0.2,0,0.3,0h7
		c0.1,0,0.2,0,0.3,0h7c0.1,0,0.2,0,0.3,0h7c0.1,0,0.2,0,0.3,0h7c0.1,0,0.2,0,0.3,0h7c0.1,0,0.2,0,0.3,0h7c0.1,0,0.2,0,0.3,0h7
		c0.1,0,0.2,0,0.3,0h7c0.1,0,0.2,0,0.3,0h7c0.1,0,0.2,0,0.3,0h7c0.1,0,0.2,0,0.3,0h7c0.1,0,0.2,0,0.3,0h7c0.1,0,0.2,0,0.3,0h7
		c0.1,0,0.2,0,0.3,0h7c0.1,0,0.2,0,0.3,0h7c0.1,0,0.2,0,0.3,0h7c0.1,0,0.2,0,0.3,0h7c0.1,0,0.2,0,0.3,0h7c0.1,0,0.2,0,0.3,0h7
		c0.1,0,0.1,0,0.2,0h7c2.8,0,5-2.2,5-5v-2.3h2.3c2.8,0,5-2.2,5-5v-2.2h2.3c2.8,0,5-2.2,5-5v-7c0,0,0-0.1,0-0.1c0-0.1,0-0.1,0-0.2v-7
		c0-2.8-2.2-5-5-5h-2.3v-2.3c0,0,0-0.1,0-0.1c0,0,0-0.1,0-0.1v-7c0-0.1,0-0.1,0-0.2c0,0,0-0.1,0-0.2v-2.3h2.3c2.8,0,5-2.2,5-5v-7
		c0,0,0-0.1,0-0.1c0,0,0-0.1,0-0.1v-7c0-0.1,0-0.1,0-0.2c0,0,0-0.1,0-0.1v-7c0-2.8-2.2-5-5-5h-2.3v-2.2c0-0.1,0-0.1,0-0.2
		c0,0,0-0.1,0-0.1v-7c0,0,0-0.1,0-0.1c0,0,0-0.1,0-0.1v-2.3h2.3c2.8,0,5-2.2,5-5v-7c0-0.1,0-0.1,0-0.1c0,0,0-0.1,0-0.1V19.5z"/>
</g>
<g id="Слой_1">
	<path class="st1" d="M5,19.5h7v7H5V19.5z M5,26.8h7v7H5V26.8z M5,55.8h7v7H5V55.8z M5,63.1h7v7H5V63.1z M5,70.3h7v7H5V70.3z
		 M5,99.4h7v7H5V99.4z M5,106.7h7v7H5V106.7z M368,5h7v7h-7V5z M368,12.3h7v7h-7V12.3z M368,19.5h7v7h-7V19.5z M368,26.8h7v7h-7
		V26.8z M368,34.1h7v7h-7V34.1z M368,41.3h7v7h-7V41.3z M368,48.6h7v7h-7V48.6z M368,55.8h7v7h-7V55.8z M368,63.1h7v7h-7V63.1z
		 M368,70.3h7v7h-7V70.3z M368,77.6h7v7h-7V77.6z M375.2,5h7v7h-7V5z M375.2,12.3h7v7h-7V12.3z M375.2,19.5h7v7h-7V19.5z
		 M375.2,26.8h7v7h-7V26.8z M375.2,34.1h7v7h-7V34.1z M375.2,41.3h7v7h-7V41.3z M375.2,48.6h7v7h-7V48.6z M375.2,55.8h7v7h-7V55.8z
		 M375.2,63.1h7v7h-7V63.1z M375.2,70.3h7v7h-7V70.3z M375.2,77.6h7v7h-7V77.6z M382.5,12.3h7v7h-7V12.3z M382.5,19.5h7v7h-7V19.5z
		 M382.5,26.8h7v7h-7V26.8z M382.5,34.1h7v7h-7V34.1z M382.5,41.3h7v7h-7V41.3z M382.5,48.6h7v7h-7V48.6z M382.5,55.8h7v7h-7V55.8z
		 M382.5,63.1h7v7h-7V63.1z M382.5,70.3h7v7h-7V70.3z M382.5,77.6h7v7h-7V77.6z M389.8,19.5h7v7h-7V19.5z M389.8,26.8h7v7h-7V26.8z
		 M389.8,55.8h7v7h-7V55.8z M389.8,63.1h7v7h-7V63.1z M389.8,70.3h7v7h-7V70.3z M368,84.9h7v7h-7V84.9z M368,92.1h7v7h-7V92.1z
		 M368,99.4h7v7h-7V99.4z M368,106.7h7v7h-7V106.7z M368,113.9h7v7h-7V113.9z M368,121.2h7v7h-7V121.2z M360.7,5h7v7h-7V5z
		 M360.7,12.3h7v7h-7V12.3z M360.7,19.5h7v7h-7V19.5z M360.7,26.8h7v7h-7V26.8z M360.7,34.1h7v7h-7V34.1z M360.7,41.3h7v7h-7V41.3z
		 M360.7,48.6h7v7h-7V48.6z M360.7,55.8h7v7h-7V55.8z M360.7,63.1h7v7h-7V63.1z M360.7,70.3h7v7h-7V70.3z M360.7,77.6h7v7h-7V77.6z
		 M360.7,84.9h7v7h-7V84.9z M360.7,92.1h7v7h-7V92.1z M360.7,99.4h7v7h-7V99.4z M360.7,106.7h7v7h-7V106.7z M360.7,113.9h7v7h-7
		V113.9z M360.7,121.2h7v7h-7V121.2z M353.5,5h7v7h-7V5z M353.5,12.3h7v7h-7V12.3z M353.5,19.5h7v7h-7V19.5z M353.5,26.8h7v7h-7
		V26.8z M353.5,34.1h7v7h-7V34.1z M353.5,41.3h7v7h-7V41.3z M353.5,48.6h7v7h-7V48.6z M353.5,55.8h7v7h-7V55.8z M353.5,63.1h7v7h-7
		V63.1z M353.5,70.3h7v7h-7V70.3z M353.5,77.6h7v7h-7V77.6z M353.5,84.9h7v7h-7V84.9z M353.5,92.1h7v7h-7V92.1z M353.5,99.4h7v7h-7
		V99.4z M353.5,106.7h7v7h-7V106.7z M353.5,113.9h7v7h-7V113.9z M353.5,121.2h7v7h-7V121.2z M346.2,5h7v7h-7V5z M346.2,12.3h7v7h-7
		V12.3z M346.2,19.5h7v7h-7V19.5z M346.2,26.8h7v7h-7V26.8z M346.2,34.1h7v7h-7V34.1z M346.2,41.3h7v7h-7V41.3z M346.2,48.6h7v7h-7
		V48.6z M346.2,55.8h7v7h-7V55.8z M346.2,63.1h7v7h-7V63.1z M346.2,70.3h7v7h-7V70.3z M346.2,77.6h7v7h-7V77.6z M346.2,84.9h7v7h-7
		V84.9z M346.2,92.1h7v7h-7V92.1z M346.2,99.4h7v7h-7V99.4z M346.2,106.7h7v7h-7V106.7z M346.2,113.9h7v7h-7V113.9z M346.2,121.2h7
		v7h-7V121.2z M339,5h7v7h-7V5z M339,12.3h7v7h-7V12.3z M339,26.8h7v7h-7V26.8z M339,41.3h7v7h-7V41.3z M339,55.8h7v7h-7V55.8z
		 M339,70.3h7v7h-7V70.3z M339,84.9h7v7h-7V84.9z M339,99.4h7v7h-7V99.4z M339,113.9h7v7h-7V113.9z M339,121.2h7v7h-7V121.2z
		 M331.7,5h7v7h-7V5z M331.7,19.5h7v7h-7V19.5z M331.7,26.8h7v7h-7V26.8z M331.7,34.1h7v7h-7V34.1z M331.7,41.3h7v7h-7V41.3z
		 M331.7,48.6h7v7h-7V48.6z M331.7,55.8h7v7h-7V55.8z M331.7,63.1h7v7h-7V63.1z M331.7,70.3h7v7h-7V70.3z M331.7,77.6h7v7h-7V77.6z
		 M331.7,84.9h7v7h-7V84.9z M331.7,92.1h7v7h-7V92.1z M331.7,99.4h7v7h-7V99.4z M331.7,106.7h7v7h-7V106.7z M331.7,121.2h7v7h-7
		V121.2z M324.4,5h7v7h-7V5z M324.4,12.3h7v7h-7V12.3z M324.4,19.5h7v7h-7V19.5z M324.4,26.8h7v7h-7V26.8z M324.4,34.1h7v7h-7V34.1z
		 M324.4,41.3h7v7h-7V41.3z M324.4,48.6h7v7h-7V48.6z M324.4,55.8h7v7h-7V55.8z M324.4,63.1h7v7h-7V63.1z M324.4,70.3h7v7h-7V70.3z
		 M324.4,77.6h7v7h-7V77.6z M324.4,84.9h7v7h-7V84.9z M324.4,92.1h7v7h-7V92.1z M324.4,99.4h7v7h-7V99.4z M324.4,106.7h7v7h-7V106.7
		z M324.4,113.9h7v7h-7V113.9z M324.4,121.2h7v7h-7V121.2z M317.2,5h7v7h-7V5z M317.2,12.3h7v7h-7V12.3z M317.2,19.5h7v7h-7V19.5z
		 M317.2,26.8h7v7h-7V26.8z M317.2,34.1h7v7h-7V34.1z M317.2,41.3h7v7h-7V41.3z M317.2,48.6h7v7h-7V48.6z M317.2,55.8h7v7h-7V55.8z
		 M317.2,63.1h7v7h-7V63.1z M317.2,70.3h7v7h-7V70.3z M317.2,77.6h7v7h-7V77.6z M317.2,84.9h7v7h-7V84.9z M317.2,92.1h7v7h-7V92.1z
		 M317.2,99.4h7v7h-7V99.4z M317.2,106.7h7v7h-7V106.7z M317.2,113.9h7v7h-7V113.9z M317.2,121.2h7v7h-7V121.2z M309.9,5h7v7h-7V5z
		 M309.9,12.3h7v7h-7V12.3z M309.9,19.5h7v7h-7V19.5z M309.9,26.8h7v7h-7V26.8z M309.9,34.1h7v7h-7V34.1z M309.9,41.3h7v7h-7V41.3z
		 M309.9,48.6h7v7h-7V48.6z M309.9,55.8h7v7h-7V55.8z M309.9,63.1h7v7h-7V63.1z M309.9,70.3h7v7h-7V70.3z M309.9,77.6h7v7h-7V77.6z
		 M309.9,84.9h7v7h-7V84.9z M309.9,92.1h7v7h-7V92.1z M309.9,99.4h7v7h-7V99.4z M309.9,106.7h7v7h-7V106.7z M309.9,113.9h7v7h-7
		V113.9z M309.9,121.2h7v7h-7V121.2z M302.7,5h7v7h-7V5z M302.7,12.3h7v7h-7V12.3z M302.7,19.5h7v7h-7V19.5z M302.7,26.8h7v7h-7
		V26.8z M302.7,34.1h7v7h-7V34.1z M302.7,41.3h7v7h-7V41.3z M302.7,48.6h7v7h-7V48.6z M302.7,55.8h7v7h-7V55.8z M302.7,63.1h7v7h-7
		V63.1z M302.7,70.3h7v7h-7V70.3z M302.7,77.6h7v7h-7V77.6z M302.7,84.9h7v7h-7V84.9z M302.7,92.1h7v7h-7V92.1z M302.7,99.4h7v7h-7
		V99.4z M302.7,106.7h7v7h-7V106.7z M302.7,113.9h7v7h-7V113.9z M302.7,121.2h7v7h-7V121.2z M295.4,5h7v7h-7V5z M295.4,12.3h7v7h-7
		V12.3z M295.4,19.5h7v7h-7V19.5z M295.4,26.8h7v7h-7V26.8z M295.4,34.1h7v7h-7V34.1z M295.4,41.3h7v7h-7V41.3z M295.4,48.6h7v7h-7
		V48.6z M295.4,55.8h7v7h-7V55.8z M295.4,63.1h7v7h-7V63.1z M295.4,70.3h7v7h-7V70.3z M295.4,77.6h7v7h-7V77.6z M295.4,84.9h7v7h-7
		V84.9z M295.4,92.1h7v7h-7V92.1z M295.4,99.4h7v7h-7V99.4z M295.4,106.7h7v7h-7V106.7z M295.4,113.9h7v7h-7V113.9z M295.4,121.2h7
		v7h-7V121.2z M288.1,5h7v7h-7V5z M288.1,12.3h7v7h-7V12.3z M288.1,19.5h7v7h-7V19.5z M288.1,26.8h7v7h-7V26.8z M288.1,34.1h7v7h-7
		V34.1z M288.1,41.3h7v7h-7V41.3z M288.1,48.6h7v7h-7V48.6z M288.1,55.8h7v7h-7V55.8z M288.1,63.1h7v7h-7V63.1z M288.1,70.3h7v7h-7
		V70.3z M288.1,77.6h7v7h-7V77.6z M288.1,84.9h7v7h-7V84.9z M288.1,92.1h7v7h-7V92.1z M288.1,99.4h7v7h-7V99.4z M288.1,106.7h7v7h-7
		V106.7z M288.1,113.9h7v7h-7V113.9z M288.1,121.2h7v7h-7V121.2z M280.9,5h7v7h-7V5z M280.9,12.3h7v7h-7V12.3z M280.9,19.5h7v7h-7
		V19.5z M280.9,26.8h7v7h-7V26.8z M280.9,34.1h7v7h-7V34.1z M280.9,41.3h7v7h-7V41.3z M280.9,48.6h7v7h-7V48.6z M280.9,55.8h7v7h-7
		V55.8z M280.9,63.1h7v7h-7V63.1z M280.9,70.3h7v7h-7V70.3z M280.9,77.6h7v7h-7V77.6z M280.9,84.9h7v7h-7V84.9z M280.9,92.1h7v7h-7
		V92.1z M280.9,99.4h7v7h-7V99.4z M280.9,106.7h7v7h-7V106.7z M280.9,113.9h7v7h-7V113.9z M280.9,121.2h7v7h-7V121.2z M273.6,5h7v7
		h-7V5z M273.6,12.3h7v7h-7V12.3z M273.6,26.8h7v7h-7V26.8z M273.6,41.3h7v7h-7V41.3z M273.6,55.8h7v7h-7V55.8z M273.6,70.3h7v7h-7
		V70.3z M273.6,84.9h7v7h-7V84.9z M273.6,99.4h7v7h-7V99.4z M273.6,113.9h7v7h-7V113.9z M273.6,121.2h7v7h-7V121.2z M266.4,5h7v7h-7
		V5z M266.4,19.5h7v7h-7V19.5z M266.4,26.8h7v7h-7V26.8z M266.4,34.1h7v7h-7V34.1z M266.4,41.3h7v7h-7V41.3z M266.4,48.6h7v7h-7
		V48.6z M266.4,55.8h7v7h-7V55.8z M266.4,63.1h7v7h-7V63.1z M266.4,70.3h7v7h-7V70.3z M266.4,77.6h7v7h-7V77.6z M266.4,84.9h7v7h-7
		V84.9z M266.4,92.1h7v7h-7V92.1z M266.4,99.4h7v7h-7V99.4z M266.4,106.7h7v7h-7V106.7z M266.4,121.2h7v7h-7V121.2z M259.1,5h7v7h-7
		V5z M259.1,12.3h7v7h-7V12.3z M259.1,19.5h7v7h-7V19.5z M259.1,26.8h7v7h-7V26.8z M259.1,34.1h7v7h-7V34.1z M259.1,41.3h7v7h-7
		V41.3z M259.1,48.6h7v7h-7V48.6z M259.1,55.8h7v7h-7V55.8z M259.1,63.1h7v7h-7V63.1z M259.1,70.3h7v7h-7V70.3z M259.1,77.6h7v7h-7
		V77.6z M259.1,84.9h7v7h-7V84.9z M259.1,92.1h7v7h-7V92.1z M259.1,99.4h7v7h-7V99.4z M259.1,106.7h7v7h-7V106.7z M259.1,113.9h7v7
		h-7V113.9z M259.1,121.2h7v7h-7V121.2z M251.8,5h7v7h-7V5z M251.8,12.3h7v7h-7V12.3z M251.8,19.5h7v7h-7V19.5z M251.8,26.8h7v7h-7
		V26.8z M251.8,34.1h7v7h-7V34.1z M251.8,41.3h7v7h-7V41.3z M251.8,48.6h7v7h-7V48.6z M251.8,55.8h7v7h-7V55.8z M251.8,63.1h7v7h-7
		V63.1z M251.8,70.3h7v7h-7V70.3z M251.8,77.6h7v7h-7V77.6z M251.8,84.9h7v7h-7V84.9z M251.8,92.1h7v7h-7V92.1z M251.8,99.4h7v7h-7
		V99.4z M251.8,106.7h7v7h-7V106.7z M251.8,113.9h7v7h-7V113.9z M251.8,121.2h7v7h-7V121.2z M244.6,5h7v7h-7V5z M244.6,12.3h7v7h-7
		V12.3z M244.6,19.5h7v7h-7V19.5z M244.6,26.8h7v7h-7V26.8z M244.6,34.1h7v7h-7V34.1z M244.6,41.3h7v7h-7V41.3z M244.6,48.6h7v7h-7
		V48.6z M244.6,55.8h7v7h-7V55.8z M244.6,63.1h7v7h-7V63.1z M244.6,70.3h7v7h-7V70.3z M244.6,77.6h7v7h-7V77.6z M244.6,84.9h7v7h-7
		V84.9z M244.6,92.1h7v7h-7V92.1z M244.6,99.4h7v7h-7V99.4z M244.6,106.7h7v7h-7V106.7z M244.6,113.9h7v7h-7V113.9z M244.6,121.2h7
		v7h-7V121.2z M237.3,5h7v7h-7V5z M237.3,12.3h7v7h-7V12.3z M237.3,19.5h7v7h-7V19.5z M237.3,26.8h7v7h-7V26.8z M237.3,34.1h7v7h-7
		V34.1z M237.3,41.3h7v7h-7V41.3z M237.3,48.6h7v7h-7V48.6z M237.3,55.8h7v7h-7V55.8z M237.3,63.1h7v7h-7V63.1z M237.3,70.3h7v7h-7
		V70.3z M237.3,77.6h7v7h-7V77.6z M237.3,84.9h7v7h-7V84.9z M237.3,92.1h7v7h-7V92.1z M237.3,99.4h7v7h-7V99.4z M237.3,106.7h7v7h-7
		V106.7z M237.3,113.9h7v7h-7V113.9z M237.3,121.2h7v7h-7V121.2z M230.1,5h7v7h-7V5z M230.1,12.3h7v7h-7V12.3z M230.1,19.5h7v7h-7
		V19.5z M230.1,26.8h7v7h-7V26.8z M230.1,34.1h7v7h-7V34.1z M230.1,41.3h7v7h-7V41.3z M230.1,48.6h7v7h-7V48.6z M230.1,55.8h7v7h-7
		V55.8z M230.1,63.1h7v7h-7V63.1z M230.1,70.3h7v7h-7V70.3z M230.1,77.6h7v7h-7V77.6z M230.1,84.9h7v7h-7V84.9z M230.1,92.1h7v7h-7
		V92.1z M230.1,99.4h7v7h-7V99.4z M230.1,106.7h7v7h-7V106.7z M230.1,113.9h7v7h-7V113.9z M230.1,121.2h7v7h-7V121.2z M222.8,5h7v7
		h-7V5z M222.8,12.3h7v7h-7V12.3z M222.8,19.5h7v7h-7V19.5z M222.8,26.8h7v7h-7V26.8z M222.8,34.1h7v7h-7V34.1z M222.8,41.3h7v7h-7
		V41.3z M222.8,48.6h7v7h-7V48.6z M222.8,55.8h7v7h-7V55.8z M222.8,63.1h7v7h-7V63.1z M222.8,70.3h7v7h-7V70.3z M222.8,77.6h7v7h-7
		V77.6z M222.8,84.9h7v7h-7V84.9z M222.8,92.1h7v7h-7V92.1z M222.8,99.4h7v7h-7V99.4z M222.8,106.7h7v7h-7V106.7z M222.8,113.9h7v7
		h-7V113.9z M222.8,121.2h7v7h-7V121.2z M215.5,5h7v7h-7V5z M215.5,12.3h7v7h-7V12.3z M215.5,19.5h7v7h-7V19.5z M215.5,26.8h7v7h-7
		V26.8z M215.5,41.4h7v7h-7V41.4z M215.5,48.6h7v7h-7V48.6z M215.5,77.6h7v7h-7V77.6z M215.5,84.9h7v7h-7V84.9z M215.5,92.1h7v7h-7
		V92.1z M215.5,99.4h7v7h-7V99.4z M215.5,106.7h7v7h-7V106.7z M215.5,113.9h7v7h-7V113.9z M215.5,121.2h7v7h-7V121.2z M208.3,5h7v7
		h-7V5z M208.3,12.3h7v7h-7V12.3z M208.3,19.5h7v7h-7V19.5z M208.3,26.8h7v7h-7V26.8z M208.3,41.4h7v7h-7V41.4z M208.3,55.9h7v7h-7
		V55.9z M208.3,63.1h7v7h-7V63.1z M208.3,70.4h7v7h-7V70.4z M208.3,84.9h7v7h-7V84.9z M208.3,92.1h7v7h-7V92.1z M208.3,99.4h7v7h-7
		V99.4z M208.3,106.7h7v7h-7V106.7z M208.3,113.9h7v7h-7V113.9z M208.3,121.2h7v7h-7V121.2z M201,5h7v7h-7V5z M201,12.3h7v7h-7V12.3
		z M201,19.5h7v7h-7V19.5z M201,26.8h7v7h-7V26.8z M201,48.6h7v7h-7V48.6z M201,55.9h7v7h-7V55.9z M201,63.1h7v7h-7V63.1z M201,70.4
		h7v7h-7V70.4z M201,77.6h7v7h-7V77.6z M201,92.1h7v7h-7V92.1z M201,99.4h7v7h-7V99.4z M201,106.7h7v7h-7V106.7z M201,113.9h7v7h-7
		V113.9z M201,121.2h7v7h-7V121.2z M193.8,5h7v7h-7V5z M193.8,12.3h7v7h-7V12.3z M193.8,19.5h7v7h-7V19.5z M193.8,26.8h7v7h-7V26.8z
		 M193.8,48.6h7v7h-7V48.6z M193.8,55.9h7v7h-7V55.9z M193.8,63.1h7v7h-7V63.1z M193.8,70.4h7v7h-7V70.4z M193.8,77.6h7v7h-7V77.6z
		 M193.8,92.1h7v7h-7V92.1z M193.8,99.4h7v7h-7V99.4z M193.8,106.7h7v7h-7V106.7z M193.8,113.9h7v7h-7V113.9z M193.8,121.2h7v7h-7
		V121.2z M186.5,5h7v7h-7V5z M186.5,12.3h7v7h-7V12.3z M186.5,19.5h7v7h-7V19.5z M186.5,26.8h7v7h-7V26.8z M186.5,48.6h7v7h-7V48.6z
		 M186.5,55.9h7v7h-7V55.9z M186.5,63.1h7v7h-7V63.1z M186.5,70.4h7v7h-7V70.4z M186.5,77.6h7v7h-7V77.6z M186.5,92.1h7v7h-7V92.1z
		 M186.5,99.4h7v7h-7V99.4z M186.5,106.7h7v7h-7V106.7z M186.5,113.9h7v7h-7V113.9z M186.5,121.2h7v7h-7V121.2z M179.2,5h7v7h-7V5z
		 M179.2,12.3h7v7h-7V12.3z M179.2,19.5h7v7h-7V19.5z M179.2,26.8h7v7h-7V26.8z M179.2,41.4h7v7h-7V41.4z M179.2,55.9h7v7h-7V55.9z
		 M179.2,63.1h7v7h-7V63.1z M179.2,70.4h7v7h-7V70.4z M179.2,84.9h7v7h-7V84.9z M179.2,92.1h7v7h-7V92.1z M179.2,99.4h7v7h-7V99.4z
		 M179.2,106.7h7v7h-7V106.7z M179.2,113.9h7v7h-7V113.9z M179.2,121.2h7v7h-7V121.2z M172,5h7v7h-7V5z M172,12.3h7v7h-7V12.3z
		 M172,19.5h7v7h-7V19.5z M172,26.8h7v7h-7V26.8z M215.5,34.1h7v7h-7V34.1z M208.3,34.1h7v7h-7V34.1z M201,34.1h7v7h-7V34.1z
		 M193.8,34.1h7v7h-7V34.1z M186.5,34.1h7v7h-7V34.1z M179.2,34.1h7v7h-7V34.1z M172,34.1h7v7h-7V34.1z M172,41.4h7v7h-7V41.4z
		 M172,48.6h7v7h-7V48.6z M172,77.6h7v7h-7V77.6z M172,84.9h7v7h-7V84.9z M172,92.1h7v7h-7V92.1z M172,99.4h7v7h-7V99.4z M172,106.7
		h7v7h-7V106.7z M172,113.9h7v7h-7V113.9z M172,121.2h7v7h-7V121.2z M164.7,5h7v7h-7V5z M164.7,12.3h7v7h-7V12.3z M164.7,19.5h7v7
		h-7V19.5z M164.7,26.8h7v7h-7V26.8z M164.7,34.1h7v7h-7V34.1z M164.7,41.3h7v7h-7V41.3z M164.7,48.6h7v7h-7V48.6z M164.7,55.8h7v7
		h-7V55.8z M164.7,63.1h7v7h-7V63.1z M164.7,70.3h7v7h-7V70.3z M164.7,77.6h7v7h-7V77.6z M164.7,84.9h7v7h-7V84.9z M164.7,92.1h7v7
		h-7V92.1z M164.7,99.4h7v7h-7V99.4z M164.7,106.7h7v7h-7V106.7z M164.7,113.9h7v7h-7V113.9z M164.7,121.2h7v7h-7V121.2z M157.5,5h7
		v7h-7V5z M157.5,12.3h7v7h-7V12.3z M157.5,19.5h7v7h-7V19.5z M157.5,26.8h7v7h-7V26.8z M157.5,34.1h7v7h-7V34.1z M157.5,41.3h7v7
		h-7V41.3z M157.5,48.6h7v7h-7V48.6z M157.5,55.8h7v7h-7V55.8z M157.5,63.1h7v7h-7V63.1z M157.5,70.3h7v7h-7V70.3z M157.5,77.6h7v7
		h-7V77.6z M157.5,84.9h7v7h-7V84.9z M157.5,92.1h7v7h-7V92.1z M157.5,99.4h7v7h-7V99.4z M157.5,106.7h7v7h-7V106.7z M157.5,113.9h7
		v7h-7V113.9z M157.5,121.2h7v7h-7V121.2z M150.2,5h7v7h-7V5z M150.2,12.3h7v7h-7V12.3z M150.2,19.5h7v7h-7V19.5z M150.2,26.8h7v7
		h-7V26.8z M150.2,34.1h7v7h-7V34.1z M150.2,41.3h7v7h-7V41.3z M150.2,48.6h7v7h-7V48.6z M150.2,55.8h7v7h-7V55.8z M150.2,63.1h7v7
		h-7V63.1z M150.2,70.3h7v7h-7V70.3z M150.2,77.6h7v7h-7V77.6z M150.2,84.9h7v7h-7V84.9z M150.2,92.1h7v7h-7V92.1z M150.2,99.4h7v7
		h-7V99.4z M150.2,106.7h7v7h-7V106.7z M150.2,113.9h7v7h-7V113.9z M150.2,121.2h7v7h-7V121.2z M142.9,5h7v7h-7V5z M142.9,12.3h7v7
		h-7V12.3z M142.9,19.5h7v7h-7V19.5z M142.9,26.8h7v7h-7V26.8z M142.9,34.1h7v7h-7V34.1z M142.9,41.3h7v7h-7V41.3z M142.9,48.6h7v7
		h-7V48.6z M142.9,55.8h7v7h-7V55.8z M142.9,63.1h7v7h-7V63.1z M142.9,70.3h7v7h-7V70.3z M142.9,77.6h7v7h-7V77.6z M142.9,84.9h7v7
		h-7V84.9z M142.9,92.1h7v7h-7V92.1z M142.9,99.4h7v7h-7V99.4z M142.9,106.7h7v7h-7V106.7z M142.9,113.9h7v7h-7V113.9z M142.9,121.2
		h7v7h-7V121.2z M135.7,5h7v7h-7V5z M135.7,19.5h7v7h-7V19.5z M135.7,26.8h7v7h-7V26.8z M135.7,34.1h7v7h-7V34.1z M135.7,41.3h7v7
		h-7V41.3z M135.7,48.6h7v7h-7V48.6z M135.7,55.8h7v7h-7V55.8z M135.7,63.1h7v7h-7V63.1z M135.7,70.3h7v7h-7V70.3z M135.7,77.6h7v7
		h-7V77.6z M135.7,84.9h7v7h-7V84.9z M135.7,92.1h7v7h-7V92.1z M135.7,99.4h7v7h-7V99.4z M135.7,106.7h7v7h-7V106.7z M135.7,121.2h7
		v7h-7V121.2z M128.4,5h7v7h-7V5z M128.4,12.3h7v7h-7V12.3z M128.4,26.8h7v7h-7V26.8z M128.4,41.3h7v7h-7V41.3z M128.4,55.8h7v7h-7
		V55.8z M128.4,70.3h7v7h-7V70.3z M128.4,84.9h7v7h-7V84.9z M128.4,99.4h7v7h-7V99.4z M128.4,113.9h7v7h-7V113.9z M128.4,121.2h7v7
		h-7V121.2z M121.2,5h7v7h-7V5z M121.2,12.3h7v7h-7V12.3z M121.2,19.5h7v7h-7V19.5z M121.2,26.8h7v7h-7V26.8z M121.2,34.1h7v7h-7
		V34.1z M121.2,41.3h7v7h-7V41.3z M121.2,48.6h7v7h-7V48.6z M121.2,55.8h7v7h-7V55.8z M121.2,63.1h7v7h-7V63.1z M121.2,70.3h7v7h-7
		V70.3z M121.2,77.6h7v7h-7V77.6z M121.2,84.9h7v7h-7V84.9z M121.2,92.1h7v7h-7V92.1z M121.2,99.4h7v7h-7V99.4z M121.2,106.7h7v7h-7
		V106.7z M121.2,113.9h7v7h-7V113.9z M121.2,121.2h7v7h-7V121.2z M113.9,5h7v7h-7V5z M113.9,12.3h7v7h-7V12.3z M113.9,19.5h7v7h-7
		V19.5z M113.9,26.8h7v7h-7V26.8z M113.9,34.1h7v7h-7V34.1z M113.9,41.3h7v7h-7V41.3z M113.9,48.6h7v7h-7V48.6z M113.9,55.8h7v7h-7
		V55.8z M113.9,63.1h7v7h-7V63.1z M113.9,70.3h7v7h-7V70.3z M113.9,77.6h7v7h-7V77.6z M113.9,84.9h7v7h-7V84.9z M113.9,92.1h7v7h-7
		V92.1z M113.9,99.4h7v7h-7V99.4z M113.9,106.7h7v7h-7V106.7z M113.9,113.9h7v7h-7V113.9z M113.9,121.2h7v7h-7V121.2z M106.6,5h7v7
		h-7V5z M106.6,12.3h7v7h-7V12.3z M106.6,19.5h7v7h-7V19.5z M106.6,26.8h7v7h-7V26.8z M106.6,34.1h7v7h-7V34.1z M106.6,41.3h7v7h-7
		V41.3z M106.6,48.6h7v7h-7V48.6z M106.6,55.8h7v7h-7V55.8z M106.6,63.1h7v7h-7V63.1z M106.6,70.3h7v7h-7V70.3z M106.6,77.6h7v7h-7
		V77.6z M106.6,84.9h7v7h-7V84.9z M106.6,92.1h7v7h-7V92.1z M106.6,99.4h7v7h-7V99.4z M106.6,106.7h7v7h-7V106.7z M106.6,113.9h7v7
		h-7V113.9z M106.6,121.2h7v7h-7V121.2z M99.4,5h7v7h-7V5z M99.4,12.3h7v7h-7V12.3z M99.4,19.5h7v7h-7V19.5z M99.4,26.8h7v7h-7V26.8
		z M99.4,34.1h7v7h-7V34.1z M99.4,41.3h7v7h-7V41.3z M99.4,48.6h7v7h-7V48.6z M99.4,55.8h7v7h-7V55.8z M99.4,63.1h7v7h-7V63.1z
		 M99.4,70.3h7v7h-7V70.3z M99.4,77.6h7v7h-7V77.6z M99.4,84.9h7v7h-7V84.9z M99.4,92.1h7v7h-7V92.1z M99.4,99.4h7v7h-7V99.4z
		 M99.4,106.7h7v7h-7V106.7z M99.4,113.9h7v7h-7V113.9z M99.4,121.2h7v7h-7V121.2z M92.1,5h7v7h-7V5z M92.1,12.3h7v7h-7V12.3z
		 M92.1,19.5h7v7h-7V19.5z M92.1,26.8h7v7h-7V26.8z M92.1,34.1h7v7h-7V34.1z M92.1,41.3h7v7h-7V41.3z M92.1,48.6h7v7h-7V48.6z
		 M92.1,55.8h7v7h-7V55.8z M92.1,63.1h7v7h-7V63.1z M92.1,70.3h7v7h-7V70.3z M92.1,77.6h7v7h-7V77.6z M92.1,84.9h7v7h-7V84.9z
		 M92.1,92.1h7v7h-7V92.1z M92.1,99.4h7v7h-7V99.4z M92.1,106.7h7v7h-7V106.7z M92.1,113.9h7v7h-7V113.9z M92.1,121.2h7v7h-7V121.2z
		 M84.9,5h7v7h-7V5z M84.9,12.3h7v7h-7V12.3z M84.9,19.5h7v7h-7V19.5z M84.9,26.8h7v7h-7V26.8z M84.9,34.1h7v7h-7V34.1z M84.9,41.3
		h7v7h-7V41.3z M84.9,48.6h7v7h-7V48.6z M84.9,55.8h7v7h-7V55.8z M84.9,63.1h7v7h-7V63.1z M84.9,70.3h7v7h-7V70.3z M84.9,77.6h7v7
		h-7V77.6z M84.9,84.9h7v7h-7V84.9z M84.9,92.1h7v7h-7V92.1z M84.9,99.4h7v7h-7V99.4z M84.9,106.7h7v7h-7V106.7z M84.9,113.9h7v7h-7
		V113.9z M84.9,121.2h7v7h-7V121.2z M77.6,5h7v7h-7V5z M77.6,12.3h7v7h-7V12.3z M77.6,19.5h7v7h-7V19.5z M77.6,26.8h7v7h-7V26.8z
		 M77.6,34.1h7v7h-7V34.1z M77.6,41.3h7v7h-7V41.3z M77.6,48.6h7v7h-7V48.6z M77.6,55.8h7v7h-7V55.8z M77.6,63.1h7v7h-7V63.1z
		 M77.6,70.3h7v7h-7V70.3z M77.6,77.6h7v7h-7V77.6z M77.6,84.9h7v7h-7V84.9z M77.6,92.1h7v7h-7V92.1z M77.6,99.4h7v7h-7V99.4z
		 M77.6,106.7h7v7h-7V106.7z M77.6,113.9h7v7h-7V113.9z M77.6,121.2h7v7h-7V121.2z M70.3,5h7v7h-7V5z M70.3,19.5h7v7h-7V19.5z
		 M70.3,26.8h7v7h-7V26.8z M70.3,34.1h7v7h-7V34.1z M70.3,41.3h7v7h-7V41.3z M70.3,48.6h7v7h-7V48.6z M70.3,55.8h7v7h-7V55.8z
		 M70.3,63.1h7v7h-7V63.1z M70.3,70.3h7v7h-7V70.3z M70.3,77.6h7v7h-7V77.6z M70.3,84.9h7v7h-7V84.9z M70.3,92.1h7v7h-7V92.1z
		 M70.3,99.4h7v7h-7V99.4z M70.3,106.7h7v7h-7V106.7z M70.3,121.2h7v7h-7V121.2z M63.1,5h7v7h-7V5z M63.1,12.3h7v7h-7V12.3z
		 M63.1,26.8h7v7h-7V26.8z M63.1,41.3h7v7h-7V41.3z M63.1,55.8h7v7h-7V55.8z M63.1,70.3h7v7h-7V70.3z M63.1,84.9h7v7h-7V84.9z
		 M63.1,99.4h7v7h-7V99.4z M63.1,113.9h7v7h-7V113.9z M63.1,121.2h7v7h-7V121.2z M55.8,5h7v7h-7V5z M55.8,12.3h7v7h-7V12.3z
		 M55.8,19.5h7v7h-7V19.5z M55.8,26.8h7v7h-7V26.8z M55.8,34.1h7v7h-7V34.1z M55.8,41.3h7v7h-7V41.3z M55.8,48.6h7v7h-7V48.6z
		 M55.8,55.8h7v7h-7V55.8z M55.8,63.1h7v7h-7V63.1z M55.8,70.3h7v7h-7V70.3z M55.8,77.6h7v7h-7V77.6z M55.8,84.9h7v7h-7V84.9z
		 M55.8,92.1h7v7h-7V92.1z M55.8,99.4h7v7h-7V99.4z M55.8,106.7h7v7h-7V106.7z M55.8,113.9h7v7h-7V113.9z M55.8,121.2h7v7h-7V121.2z
		 M48.6,5h7v7h-7V5z M48.6,12.3h7v7h-7V12.3z M48.6,19.5h7v7h-7V19.5z M48.6,26.8h7v7h-7V26.8z M48.6,34.1h7v7h-7V34.1z M48.6,41.3
		h7v7h-7V41.3z M48.6,48.6h7v7h-7V48.6z M48.6,55.8h7v7h-7V55.8z M48.6,63.1h7v7h-7V63.1z M48.6,70.3h7v7h-7V70.3z M48.6,77.6h7v7
		h-7V77.6z M48.6,84.9h7v7h-7V84.9z M48.6,92.1h7v7h-7V92.1z M48.6,99.4h7v7h-7V99.4z M48.6,106.7h7v7h-7V106.7z M48.6,113.9h7v7h-7
		V113.9z M48.6,121.2h7v7h-7V121.2z M41.3,5h7v7h-7V5z M41.3,12.3h7v7h-7V12.3z M41.3,19.5h7v7h-7V19.5z M41.3,26.8h7v7h-7V26.8z
		 M41.3,34.1h7v7h-7V34.1z M41.3,41.3h7v7h-7V41.3z M41.3,48.6h7v7h-7V48.6z M41.3,55.8h7v7h-7V55.8z M41.3,63.1h7v7h-7V63.1z
		 M41.3,70.3h7v7h-7V70.3z M41.3,77.6h7v7h-7V77.6z M41.3,84.9h7v7h-7V84.9z M41.3,92.1h7v7h-7V92.1z M41.3,99.4h7v7h-7V99.4z
		 M41.3,106.7h7v7h-7V106.7z M41.3,113.9h7v7h-7V113.9z M41.3,121.2h7v7h-7V121.2z M34,5h7v7h-7V5z M34,12.3h7v7h-7V12.3z M34,19.5
		h7v7h-7V19.5z M34,26.8h7v7h-7V26.8z M34,34.1h7v7h-7V34.1z M34,41.3h7v7h-7V41.3z M34,48.6h7v7h-7V48.6z M34,55.8h7v7h-7V55.8z
		 M34,63.1h7v7h-7V63.1z M34,70.3h7v7h-7V70.3z M34,77.6h7v7h-7V77.6z M34,84.9h7v7h-7V84.9z M34,92.1h7v7h-7V92.1z M34,99.4h7v7h-7
		V99.4z M34,106.7h7v7h-7V106.7z M34,113.9h7v7h-7V113.9z M34,121.2h7v7h-7V121.2z M26.8,5h7v7h-7V5z M26.8,12.3h7v7h-7V12.3z
		 M26.8,19.5h7v7h-7V19.5z M26.8,26.8h7v7h-7V26.8z M26.8,34.1h7v7h-7V34.1z M26.8,41.3h7v7h-7V41.3z M26.8,48.6h7v7h-7V48.6z
		 M26.8,55.8h7v7h-7V55.8z M26.8,63.1h7v7h-7V63.1z M26.8,70.3h7v7h-7V70.3z M26.8,77.6h7v7h-7V77.6z M26.8,84.9h7v7h-7V84.9z
		 M26.8,92.1h7v7h-7V92.1z M26.8,99.4h7v7h-7V99.4z M26.8,106.7h7v7h-7V106.7z M26.8,113.9h7v7h-7V113.9z M26.8,121.2h7v7h-7V121.2z
		 M19.5,5h7v7h-7V5z M19.5,12.3h7v7h-7V12.3z M19.5,19.5h7v7h-7V19.5z M19.5,26.8h7v7h-7V26.8z M19.5,34.1h7v7h-7V34.1z M19.5,41.3
		h7v7h-7V41.3z M19.5,48.6h7v7h-7V48.6z M19.5,55.8h7v7h-7V55.8z M19.5,63.1h7v7h-7V63.1z M19.5,70.3h7v7h-7V70.3z M19.5,77.6h7v7
		h-7V77.6z M19.5,84.9h7v7h-7V84.9z M19.5,92.1h7v7h-7V92.1z M19.5,99.4h7v7h-7V99.4z M19.5,106.7h7v7h-7V106.7z M19.5,113.9h7v7h-7
		V113.9z M19.5,121.2h7v7h-7V121.2z M12.3,12.3h7v7h-7V12.3z M12.3,19.5h7v7h-7V19.5z M12.3,26.8h7v7h-7V26.8z M12.3,34.1h7v7h-7
		V34.1z M12.3,41.3h7v7h-7V41.3z M12.3,48.6h7v7h-7V48.6z M12.3,55.8h7v7h-7V55.8z M12.3,63.1h7v7h-7V63.1z M12.3,70.3h7v7h-7V70.3z
		 M12.3,77.6h7v7h-7V77.6z M12.3,84.9h7v7h-7V84.9z M12.3,92.1h7v7h-7V92.1z M12.3,99.4h7v7h-7V99.4z M12.3,106.7h7v7h-7V106.7z
		 M12.3,113.9h7v7h-7V113.9z M375.2,84.9h7v7h-7V84.9z M375.2,92.1h7v7h-7V92.1z M375.2,99.4h7v7h-7V99.4z M375.2,106.7h7v7h-7
		V106.7z M375.2,113.9h7v7h-7V113.9z M375.2,121.2h7v7h-7V121.2z M382.5,84.9h7v7h-7V84.9z M382.5,92.1h7v7h-7V92.1z M382.5,99.4h7
		v7h-7V99.4z M382.5,106.7h7v7h-7V106.7z M382.5,113.9h7v7h-7V113.9z M389.8,99.4h7v7h-7V99.4z M389.8,106.7h7v7h-7V106.7z"/>
	<path class="st1" d="M5,19.5h7v7H5V19.5z M5,26.8h7v7H5V26.8z M5,55.8h7v7H5V55.8z M5,63.1h7v7H5V63.1z M5,70.3h7v7H5V70.3z
		 M5,99.4h7v7H5V99.4z M5,106.7h7v7H5V106.7z M368,5h7v7h-7V5z M368,12.3h7v7h-7V12.3z M368,19.5h7v7h-7V19.5z M368,26.8h7v7h-7
		V26.8z M368,34.1h7v7h-7V34.1z M368,41.3h7v7h-7V41.3z M368,48.6h7v7h-7V48.6z M368,55.8h7v7h-7V55.8z M368,63.1h7v7h-7V63.1z
		 M368,70.3h7v7h-7V70.3z M368,77.6h7v7h-7V77.6z M375.2,5h7v7h-7V5z M375.2,12.3h7v7h-7V12.3z M375.2,19.5h7v7h-7V19.5z
		 M375.2,26.8h7v7h-7V26.8z M375.2,34.1h7v7h-7V34.1z M375.2,41.3h7v7h-7V41.3z M375.2,48.6h7v7h-7V48.6z M375.2,55.8h7v7h-7V55.8z
		 M375.2,63.1h7v7h-7V63.1z M375.2,70.3h7v7h-7V70.3z M375.2,77.6h7v7h-7V77.6z M382.5,12.3h7v7h-7V12.3z M382.5,19.5h7v7h-7V19.5z
		 M382.5,26.8h7v7h-7V26.8z M382.5,34.1h7v7h-7V34.1z M382.5,41.3h7v7h-7V41.3z M382.5,48.6h7v7h-7V48.6z M382.5,55.8h7v7h-7V55.8z
		 M382.5,63.1h7v7h-7V63.1z M382.5,70.3h7v7h-7V70.3z M382.5,77.6h7v7h-7V77.6z M389.8,19.5h7v7h-7V19.5z M389.8,26.8h7v7h-7V26.8z
		 M389.8,55.8h7v7h-7V55.8z M389.8,63.1h7v7h-7V63.1z M389.8,70.3h7v7h-7V70.3z M368,84.9h7v7h-7V84.9z M368,92.1h7v7h-7V92.1z
		 M368,99.4h7v7h-7V99.4z M368,106.7h7v7h-7V106.7z M368,113.9h7v7h-7V113.9z M368,121.2h7v7h-7V121.2z M360.7,5h7v7h-7V5z
		 M360.7,12.3h7v7h-7V12.3z M360.7,19.5h7v7h-7V19.5z M360.7,26.8h7v7h-7V26.8z M360.7,34.1h7v7h-7V34.1z M360.7,41.3h7v7h-7V41.3z
		 M360.7,48.6h7v7h-7V48.6z M360.7,55.8h7v7h-7V55.8z M360.7,63.1h7v7h-7V63.1z M360.7,70.3h7v7h-7V70.3z M360.7,77.6h7v7h-7V77.6z
		 M360.7,84.9h7v7h-7V84.9z M360.7,92.1h7v7h-7V92.1z M360.7,99.4h7v7h-7V99.4z M360.7,106.7h7v7h-7V106.7z M360.7,113.9h7v7h-7
		V113.9z M360.7,121.2h7v7h-7V121.2z M353.5,5h7v7h-7V5z M353.5,12.3h7v7h-7V12.3z M353.5,19.5h7v7h-7V19.5z M353.5,26.8h7v7h-7
		V26.8z M353.5,34.1h7v7h-7V34.1z M353.5,41.3h7v7h-7V41.3z M353.5,48.6h7v7h-7V48.6z M353.5,55.8h7v7h-7V55.8z M353.5,63.1h7v7h-7
		V63.1z M353.5,70.3h7v7h-7V70.3z M353.5,77.6h7v7h-7V77.6z M353.5,84.9h7v7h-7V84.9z M353.5,92.1h7v7h-7V92.1z M353.5,99.4h7v7h-7
		V99.4z M353.5,106.7h7v7h-7V106.7z M353.5,113.9h7v7h-7V113.9z M353.5,121.2h7v7h-7V121.2z M346.2,5h7v7h-7V5z M346.2,12.3h7v7h-7
		V12.3z M346.2,19.5h7v7h-7V19.5z M346.2,26.8h7v7h-7V26.8z M346.2,34.1h7v7h-7V34.1z M346.2,41.3h7v7h-7V41.3z M346.2,48.6h7v7h-7
		V48.6z M346.2,55.8h7v7h-7V55.8z M346.2,63.1h7v7h-7V63.1z M346.2,70.3h7v7h-7V70.3z M346.2,77.6h7v7h-7V77.6z M346.2,84.9h7v7h-7
		V84.9z M346.2,92.1h7v7h-7V92.1z M346.2,99.4h7v7h-7V99.4z M346.2,106.7h7v7h-7V106.7z M346.2,113.9h7v7h-7V113.9z M346.2,121.2h7
		v7h-7V121.2z M339,5h7v7h-7V5z M339,12.3h7v7h-7V12.3z M339,26.8h7v7h-7V26.8z M339,41.3h7v7h-7V41.3z M339,55.8h7v7h-7V55.8z
		 M339,70.3h7v7h-7V70.3z M339,84.9h7v7h-7V84.9z M339,99.4h7v7h-7V99.4z M339,113.9h7v7h-7V113.9z M339,121.2h7v7h-7V121.2z
		 M331.7,5h7v7h-7V5z M331.7,19.5h7v7h-7V19.5z M331.7,26.8h7v7h-7V26.8z M331.7,34.1h7v7h-7V34.1z M331.7,41.3h7v7h-7V41.3z
		 M331.7,48.6h7v7h-7V48.6z M331.7,55.8h7v7h-7V55.8z M331.7,63.1h7v7h-7V63.1z M331.7,70.3h7v7h-7V70.3z M331.7,77.6h7v7h-7V77.6z
		 M331.7,84.9h7v7h-7V84.9z M331.7,92.1h7v7h-7V92.1z M331.7,99.4h7v7h-7V99.4z M331.7,106.7h7v7h-7V106.7z M331.7,121.2h7v7h-7
		V121.2z M324.4,5h7v7h-7V5z M324.4,12.3h7v7h-7V12.3z M324.4,19.5h7v7h-7V19.5z M324.4,26.8h7v7h-7V26.8z M324.4,34.1h7v7h-7V34.1z
		 M324.4,41.3h7v7h-7V41.3z M324.4,48.6h7v7h-7V48.6z M324.4,55.8h7v7h-7V55.8z M324.4,63.1h7v7h-7V63.1z M324.4,70.3h7v7h-7V70.3z
		 M324.4,77.6h7v7h-7V77.6z M324.4,84.9h7v7h-7V84.9z M324.4,92.1h7v7h-7V92.1z M324.4,99.4h7v7h-7V99.4z M324.4,106.7h7v7h-7V106.7
		z M324.4,113.9h7v7h-7V113.9z M324.4,121.2h7v7h-7V121.2z M317.2,5h7v7h-7V5z M317.2,12.3h7v7h-7V12.3z M317.2,19.5h7v7h-7V19.5z
		 M317.2,26.8h7v7h-7V26.8z M317.2,34.1h7v7h-7V34.1z M317.2,41.3h7v7h-7V41.3z M317.2,48.6h7v7h-7V48.6z M317.2,55.8h7v7h-7V55.8z
		 M317.2,63.1h7v7h-7V63.1z M317.2,70.3h7v7h-7V70.3z M317.2,77.6h7v7h-7V77.6z M317.2,84.9h7v7h-7V84.9z M317.2,92.1h7v7h-7V92.1z
		 M317.2,99.4h7v7h-7V99.4z M317.2,106.7h7v7h-7V106.7z M317.2,113.9h7v7h-7V113.9z M317.2,121.2h7v7h-7V121.2z M309.9,5h7v7h-7V5z
		 M309.9,12.3h7v7h-7V12.3z M309.9,19.5h7v7h-7V19.5z M309.9,26.8h7v7h-7V26.8z M309.9,34.1h7v7h-7V34.1z M309.9,41.3h7v7h-7V41.3z
		 M309.9,48.6h7v7h-7V48.6z M309.9,55.8h7v7h-7V55.8z M309.9,63.1h7v7h-7V63.1z M309.9,70.3h7v7h-7V70.3z M309.9,77.6h7v7h-7V77.6z
		 M309.9,84.9h7v7h-7V84.9z M309.9,92.1h7v7h-7V92.1z M309.9,99.4h7v7h-7V99.4z M309.9,106.7h7v7h-7V106.7z M309.9,113.9h7v7h-7
		V113.9z M309.9,121.2h7v7h-7V121.2z M302.7,5h7v7h-7V5z M302.7,12.3h7v7h-7V12.3z M302.7,19.5h7v7h-7V19.5z M302.7,26.8h7v7h-7
		V26.8z M302.7,34.1h7v7h-7V34.1z M302.7,41.3h7v7h-7V41.3z M302.7,48.6h7v7h-7V48.6z M302.7,55.8h7v7h-7V55.8z M302.7,63.1h7v7h-7
		V63.1z M302.7,70.3h7v7h-7V70.3z M302.7,77.6h7v7h-7V77.6z M302.7,84.9h7v7h-7V84.9z M302.7,92.1h7v7h-7V92.1z M302.7,99.4h7v7h-7
		V99.4z M302.7,106.7h7v7h-7V106.7z M302.7,113.9h7v7h-7V113.9z M302.7,121.2h7v7h-7V121.2z M295.4,5h7v7h-7V5z M295.4,12.3h7v7h-7
		V12.3z M295.4,19.5h7v7h-7V19.5z M295.4,26.8h7v7h-7V26.8z M295.4,34.1h7v7h-7V34.1z M295.4,41.3h7v7h-7V41.3z M295.4,48.6h7v7h-7
		V48.6z M295.4,55.8h7v7h-7V55.8z M295.4,63.1h7v7h-7V63.1z M295.4,70.3h7v7h-7V70.3z M295.4,77.6h7v7h-7V77.6z M295.4,84.9h7v7h-7
		V84.9z M295.4,92.1h7v7h-7V92.1z M295.4,99.4h7v7h-7V99.4z M295.4,106.7h7v7h-7V106.7z M295.4,113.9h7v7h-7V113.9z M295.4,121.2h7
		v7h-7V121.2z M288.1,5h7v7h-7V5z M288.1,12.3h7v7h-7V12.3z M288.1,19.5h7v7h-7V19.5z M288.1,26.8h7v7h-7V26.8z M288.1,34.1h7v7h-7
		V34.1z M288.1,41.3h7v7h-7V41.3z M288.1,48.6h7v7h-7V48.6z M288.1,55.8h7v7h-7V55.8z M288.1,63.1h7v7h-7V63.1z M288.1,70.3h7v7h-7
		V70.3z M288.1,77.6h7v7h-7V77.6z M288.1,84.9h7v7h-7V84.9z M288.1,92.1h7v7h-7V92.1z M288.1,99.4h7v7h-7V99.4z M288.1,106.7h7v7h-7
		V106.7z M288.1,113.9h7v7h-7V113.9z M288.1,121.2h7v7h-7V121.2z M280.9,5h7v7h-7V5z M280.9,12.3h7v7h-7V12.3z M280.9,19.5h7v7h-7
		V19.5z M280.9,26.8h7v7h-7V26.8z M280.9,34.1h7v7h-7V34.1z M280.9,41.3h7v7h-7V41.3z M280.9,48.6h7v7h-7V48.6z M280.9,55.8h7v7h-7
		V55.8z M280.9,63.1h7v7h-7V63.1z M280.9,70.3h7v7h-7V70.3z M280.9,77.6h7v7h-7V77.6z M280.9,84.9h7v7h-7V84.9z M280.9,92.1h7v7h-7
		V92.1z M280.9,99.4h7v7h-7V99.4z M280.9,106.7h7v7h-7V106.7z M280.9,113.9h7v7h-7V113.9z M280.9,121.2h7v7h-7V121.2z M273.6,5h7v7
		h-7V5z M273.6,12.3h7v7h-7V12.3z M273.6,26.8h7v7h-7V26.8z M273.6,41.3h7v7h-7V41.3z M273.6,55.8h7v7h-7V55.8z M273.6,70.3h7v7h-7
		V70.3z M273.6,84.9h7v7h-7V84.9z M273.6,99.4h7v7h-7V99.4z M273.6,113.9h7v7h-7V113.9z M273.6,121.2h7v7h-7V121.2z M266.4,5h7v7h-7
		V5z M266.4,19.5h7v7h-7V19.5z M266.4,26.8h7v7h-7V26.8z M266.4,34.1h7v7h-7V34.1z M266.4,41.3h7v7h-7V41.3z M266.4,48.6h7v7h-7
		V48.6z M266.4,55.8h7v7h-7V55.8z M266.4,63.1h7v7h-7V63.1z M266.4,70.3h7v7h-7V70.3z M266.4,77.6h7v7h-7V77.6z M266.4,84.9h7v7h-7
		V84.9z M266.4,92.1h7v7h-7V92.1z M266.4,99.4h7v7h-7V99.4z M266.4,106.7h7v7h-7V106.7z M266.4,121.2h7v7h-7V121.2z M259.1,5h7v7h-7
		V5z M259.1,12.3h7v7h-7V12.3z M259.1,19.5h7v7h-7V19.5z M259.1,26.8h7v7h-7V26.8z M259.1,34.1h7v7h-7V34.1z M259.1,41.3h7v7h-7
		V41.3z M259.1,48.6h7v7h-7V48.6z M259.1,55.8h7v7h-7V55.8z M259.1,63.1h7v7h-7V63.1z M259.1,70.3h7v7h-7V70.3z M259.1,77.6h7v7h-7
		V77.6z M259.1,84.9h7v7h-7V84.9z M259.1,92.1h7v7h-7V92.1z M259.1,99.4h7v7h-7V99.4z M259.1,106.7h7v7h-7V106.7z M259.1,113.9h7v7
		h-7V113.9z M259.1,121.2h7v7h-7V121.2z M251.8,5h7v7h-7V5z M251.8,12.3h7v7h-7V12.3z M251.8,19.5h7v7h-7V19.5z M251.8,26.8h7v7h-7
		V26.8z M251.8,34.1h7v7h-7V34.1z M251.8,41.3h7v7h-7V41.3z M251.8,48.6h7v7h-7V48.6z M251.8,55.8h7v7h-7V55.8z M251.8,63.1h7v7h-7
		V63.1z M251.8,70.3h7v7h-7V70.3z M251.8,77.6h7v7h-7V77.6z M251.8,84.9h7v7h-7V84.9z M251.8,92.1h7v7h-7V92.1z M251.8,99.4h7v7h-7
		V99.4z M251.8,106.7h7v7h-7V106.7z M251.8,113.9h7v7h-7V113.9z M251.8,121.2h7v7h-7V121.2z M244.6,5h7v7h-7V5z M244.6,12.3h7v7h-7
		V12.3z M244.6,19.5h7v7h-7V19.5z M244.6,26.8h7v7h-7V26.8z M244.6,34.1h7v7h-7V34.1z M244.6,41.3h7v7h-7V41.3z M244.6,48.6h7v7h-7
		V48.6z M244.6,55.8h7v7h-7V55.8z M244.6,63.1h7v7h-7V63.1z M244.6,70.3h7v7h-7V70.3z M244.6,77.6h7v7h-7V77.6z M244.6,84.9h7v7h-7
		V84.9z M244.6,92.1h7v7h-7V92.1z M244.6,99.4h7v7h-7V99.4z M244.6,106.7h7v7h-7V106.7z M244.6,113.9h7v7h-7V113.9z M244.6,121.2h7
		v7h-7V121.2z M237.3,5h7v7h-7V5z M237.3,12.3h7v7h-7V12.3z M237.3,19.5h7v7h-7V19.5z M237.3,26.8h7v7h-7V26.8z M237.3,34.1h7v7h-7
		V34.1z M237.3,41.3h7v7h-7V41.3z M237.3,48.6h7v7h-7V48.6z M237.3,55.8h7v7h-7V55.8z M237.3,63.1h7v7h-7V63.1z M237.3,70.3h7v7h-7
		V70.3z M237.3,77.6h7v7h-7V77.6z M237.3,84.9h7v7h-7V84.9z M237.3,92.1h7v7h-7V92.1z M237.3,99.4h7v7h-7V99.4z M237.3,106.7h7v7h-7
		V106.7z M237.3,113.9h7v7h-7V113.9z M237.3,121.2h7v7h-7V121.2z M230.1,5h7v7h-7V5z M230.1,12.3h7v7h-7V12.3z M230.1,19.5h7v7h-7
		V19.5z M230.1,26.8h7v7h-7V26.8z M230.1,34.1h7v7h-7V34.1z M230.1,41.3h7v7h-7V41.3z M230.1,48.6h7v7h-7V48.6z M230.1,55.8h7v7h-7
		V55.8z M230.1,63.1h7v7h-7V63.1z M230.1,70.3h7v7h-7V70.3z M230.1,77.6h7v7h-7V77.6z M230.1,84.9h7v7h-7V84.9z M230.1,92.1h7v7h-7
		V92.1z M230.1,99.4h7v7h-7V99.4z M230.1,106.7h7v7h-7V106.7z M230.1,113.9h7v7h-7V113.9z M230.1,121.2h7v7h-7V121.2z M222.8,5h7v7
		h-7V5z M222.8,12.3h7v7h-7V12.3z M222.8,19.5h7v7h-7V19.5z M222.8,26.8h7v7h-7V26.8z M222.8,34.1h7v7h-7V34.1z M222.8,41.3h7v7h-7
		V41.3z M222.8,48.6h7v7h-7V48.6z M222.8,55.8h7v7h-7V55.8z M222.8,63.1h7v7h-7V63.1z M222.8,70.3h7v7h-7V70.3z M222.8,77.6h7v7h-7
		V77.6z M222.8,84.9h7v7h-7V84.9z M222.8,92.1h7v7h-7V92.1z M222.8,99.4h7v7h-7V99.4z M222.8,106.7h7v7h-7V106.7z M222.8,113.9h7v7
		h-7V113.9z M222.8,121.2h7v7h-7V121.2z M215.5,5h7v7h-7V5z M215.5,12.3h7v7h-7V12.3z M215.5,19.5h7v7h-7V19.5z M215.5,26.8h7v7h-7
		V26.8z M215.5,41.4h7v7h-7V41.4z M215.5,48.6h7v7h-7V48.6z M215.5,77.6h7v7h-7V77.6z M215.5,84.9h7v7h-7V84.9z M215.5,92.1h7v7h-7
		V92.1z M215.5,99.4h7v7h-7V99.4z M215.5,106.7h7v7h-7V106.7z M215.5,113.9h7v7h-7V113.9z M215.5,121.2h7v7h-7V121.2z M208.3,5h7v7
		h-7V5z M208.3,12.3h7v7h-7V12.3z M208.3,19.5h7v7h-7V19.5z M208.3,26.8h7v7h-7V26.8z M208.3,41.4h7v7h-7V41.4z M208.3,55.9h7v7h-7
		V55.9z M208.3,63.1h7v7h-7V63.1z M208.3,70.4h7v7h-7V70.4z M208.3,84.9h7v7h-7V84.9z M208.3,92.1h7v7h-7V92.1z M208.3,99.4h7v7h-7
		V99.4z M208.3,106.7h7v7h-7V106.7z M208.3,113.9h7v7h-7V113.9z M208.3,121.2h7v7h-7V121.2z M201,5h7v7h-7V5z M201,12.3h7v7h-7V12.3
		z M201,19.5h7v7h-7V19.5z M201,26.8h7v7h-7V26.8z M201,48.6h7v7h-7V48.6z M201,55.9h7v7h-7V55.9z M201,63.1h7v7h-7V63.1z M201,70.4
		h7v7h-7V70.4z M201,77.6h7v7h-7V77.6z M201,92.1h7v7h-7V92.1z M201,99.4h7v7h-7V99.4z M201,106.7h7v7h-7V106.7z M201,113.9h7v7h-7
		V113.9z M201,121.2h7v7h-7V121.2z M193.8,5h7v7h-7V5z M193.8,12.3h7v7h-7V12.3z M193.8,19.5h7v7h-7V19.5z M193.8,26.8h7v7h-7V26.8z
		 M193.8,48.6h7v7h-7V48.6z M193.8,55.9h7v7h-7V55.9z M193.8,63.1h7v7h-7V63.1z M193.8,70.4h7v7h-7V70.4z M193.8,77.6h7v7h-7V77.6z
		 M193.8,92.1h7v7h-7V92.1z M193.8,99.4h7v7h-7V99.4z M193.8,106.7h7v7h-7V106.7z M193.8,113.9h7v7h-7V113.9z M193.8,121.2h7v7h-7
		V121.2z M186.5,5h7v7h-7V5z M186.5,12.3h7v7h-7V12.3z M186.5,19.5h7v7h-7V19.5z M186.5,26.8h7v7h-7V26.8z M186.5,48.6h7v7h-7V48.6z
		 M186.5,55.9h7v7h-7V55.9z M186.5,63.1h7v7h-7V63.1z M186.5,70.4h7v7h-7V70.4z M186.5,77.6h7v7h-7V77.6z M186.5,92.1h7v7h-7V92.1z
		 M186.5,99.4h7v7h-7V99.4z M186.5,106.7h7v7h-7V106.7z M186.5,113.9h7v7h-7V113.9z M186.5,121.2h7v7h-7V121.2z M179.2,5h7v7h-7V5z
		 M179.2,12.3h7v7h-7V12.3z M179.2,19.5h7v7h-7V19.5z M179.2,26.8h7v7h-7V26.8z M179.2,41.4h7v7h-7V41.4z M179.2,55.9h7v7h-7V55.9z
		 M179.2,63.1h7v7h-7V63.1z M179.2,70.4h7v7h-7V70.4z M179.2,84.9h7v7h-7V84.9z M179.2,92.1h7v7h-7V92.1z M179.2,99.4h7v7h-7V99.4z
		 M179.2,106.7h7v7h-7V106.7z M179.2,113.9h7v7h-7V113.9z M179.2,121.2h7v7h-7V121.2z M172,5h7v7h-7V5z M172,12.3h7v7h-7V12.3z
		 M172,19.5h7v7h-7V19.5z M172,26.8h7v7h-7V26.8z M215.5,34.1h7v7h-7V34.1z M208.3,34.1h7v7h-7V34.1z M201,34.1h7v7h-7V34.1z
		 M193.8,34.1h7v7h-7V34.1z M186.5,34.1h7v7h-7V34.1z M179.2,34.1h7v7h-7V34.1z M172,34.1h7v7h-7V34.1z M172,41.4h7v7h-7V41.4z
		 M172,48.6h7v7h-7V48.6z M172,77.6h7v7h-7V77.6z M172,84.9h7v7h-7V84.9z M172,92.1h7v7h-7V92.1z M172,99.4h7v7h-7V99.4z M172,106.7
		h7v7h-7V106.7z M172,113.9h7v7h-7V113.9z M172,121.2h7v7h-7V121.2z M164.7,5h7v7h-7V5z M164.7,12.3h7v7h-7V12.3z M164.7,19.5h7v7
		h-7V19.5z M164.7,26.8h7v7h-7V26.8z M164.7,34.1h7v7h-7V34.1z M164.7,41.3h7v7h-7V41.3z M164.7,48.6h7v7h-7V48.6z M164.7,55.8h7v7
		h-7V55.8z M164.7,63.1h7v7h-7V63.1z M164.7,70.3h7v7h-7V70.3z M164.7,77.6h7v7h-7V77.6z M164.7,84.9h7v7h-7V84.9z M164.7,92.1h7v7
		h-7V92.1z M164.7,99.4h7v7h-7V99.4z M164.7,106.7h7v7h-7V106.7z M164.7,113.9h7v7h-7V113.9z M164.7,121.2h7v7h-7V121.2z M157.5,5h7
		v7h-7V5z M157.5,12.3h7v7h-7V12.3z M157.5,19.5h7v7h-7V19.5z M157.5,26.8h7v7h-7V26.8z M157.5,34.1h7v7h-7V34.1z M157.5,41.3h7v7
		h-7V41.3z M157.5,48.6h7v7h-7V48.6z M157.5,55.8h7v7h-7V55.8z M157.5,63.1h7v7h-7V63.1z M157.5,70.3h7v7h-7V70.3z M157.5,77.6h7v7
		h-7V77.6z M157.5,84.9h7v7h-7V84.9z M157.5,92.1h7v7h-7V92.1z M157.5,99.4h7v7h-7V99.4z M157.5,106.7h7v7h-7V106.7z M157.5,113.9h7
		v7h-7V113.9z M157.5,121.2h7v7h-7V121.2z M150.2,5h7v7h-7V5z M150.2,12.3h7v7h-7V12.3z M150.2,19.5h7v7h-7V19.5z M150.2,26.8h7v7
		h-7V26.8z M150.2,34.1h7v7h-7V34.1z M150.2,41.3h7v7h-7V41.3z M150.2,48.6h7v7h-7V48.6z M150.2,55.8h7v7h-7V55.8z M150.2,63.1h7v7
		h-7V63.1z M150.2,70.3h7v7h-7V70.3z M150.2,77.6h7v7h-7V77.6z M150.2,84.9h7v7h-7V84.9z M150.2,92.1h7v7h-7V92.1z M150.2,99.4h7v7
		h-7V99.4z M150.2,106.7h7v7h-7V106.7z M150.2,113.9h7v7h-7V113.9z M150.2,121.2h7v7h-7V121.2z M142.9,5h7v7h-7V5z M142.9,12.3h7v7
		h-7V12.3z M142.9,19.5h7v7h-7V19.5z M142.9,26.8h7v7h-7V26.8z M142.9,34.1h7v7h-7V34.1z M142.9,41.3h7v7h-7V41.3z M142.9,48.6h7v7
		h-7V48.6z M142.9,55.8h7v7h-7V55.8z M142.9,63.1h7v7h-7V63.1z M142.9,70.3h7v7h-7V70.3z M142.9,77.6h7v7h-7V77.6z M142.9,84.9h7v7
		h-7V84.9z M142.9,92.1h7v7h-7V92.1z M142.9,99.4h7v7h-7V99.4z M142.9,106.7h7v7h-7V106.7z M142.9,113.9h7v7h-7V113.9z M142.9,121.2
		h7v7h-7V121.2z M135.7,5h7v7h-7V5z M135.7,19.5h7v7h-7V19.5z M135.7,26.8h7v7h-7V26.8z M135.7,34.1h7v7h-7V34.1z M135.7,41.3h7v7
		h-7V41.3z M135.7,48.6h7v7h-7V48.6z M135.7,55.8h7v7h-7V55.8z M135.7,63.1h7v7h-7V63.1z M135.7,70.3h7v7h-7V70.3z M135.7,77.6h7v7
		h-7V77.6z M135.7,84.9h7v7h-7V84.9z M135.7,92.1h7v7h-7V92.1z M135.7,99.4h7v7h-7V99.4z M135.7,106.7h7v7h-7V106.7z M135.7,121.2h7
		v7h-7V121.2z M128.4,5h7v7h-7V5z M128.4,12.3h7v7h-7V12.3z M128.4,26.8h7v7h-7V26.8z M128.4,41.3h7v7h-7V41.3z M128.4,55.8h7v7h-7
		V55.8z M128.4,70.3h7v7h-7V70.3z M128.4,84.9h7v7h-7V84.9z M128.4,99.4h7v7h-7V99.4z M128.4,113.9h7v7h-7V113.9z M128.4,121.2h7v7
		h-7V121.2z M121.2,5h7v7h-7V5z M121.2,12.3h7v7h-7V12.3z M121.2,19.5h7v7h-7V19.5z M121.2,26.8h7v7h-7V26.8z M121.2,34.1h7v7h-7
		V34.1z M121.2,41.3h7v7h-7V41.3z M121.2,48.6h7v7h-7V48.6z M121.2,55.8h7v7h-7V55.8z M121.2,63.1h7v7h-7V63.1z M121.2,70.3h7v7h-7
		V70.3z M121.2,77.6h7v7h-7V77.6z M121.2,84.9h7v7h-7V84.9z M121.2,92.1h7v7h-7V92.1z M121.2,99.4h7v7h-7V99.4z M121.2,106.7h7v7h-7
		V106.7z M121.2,113.9h7v7h-7V113.9z M121.2,121.2h7v7h-7V121.2z M113.9,5h7v7h-7V5z M113.9,12.3h7v7h-7V12.3z M113.9,19.5h7v7h-7
		V19.5z M113.9,26.8h7v7h-7V26.8z M113.9,34.1h7v7h-7V34.1z M113.9,41.3h7v7h-7V41.3z M113.9,48.6h7v7h-7V48.6z M113.9,55.8h7v7h-7
		V55.8z M113.9,63.1h7v7h-7V63.1z M113.9,70.3h7v7h-7V70.3z M113.9,77.6h7v7h-7V77.6z M113.9,84.9h7v7h-7V84.9z M113.9,92.1h7v7h-7
		V92.1z M113.9,99.4h7v7h-7V99.4z M113.9,106.7h7v7h-7V106.7z M113.9,113.9h7v7h-7V113.9z M113.9,121.2h7v7h-7V121.2z M106.6,5h7v7
		h-7V5z M106.6,12.3h7v7h-7V12.3z M106.6,19.5h7v7h-7V19.5z M106.6,26.8h7v7h-7V26.8z M106.6,34.1h7v7h-7V34.1z M106.6,41.3h7v7h-7
		V41.3z M106.6,48.6h7v7h-7V48.6z M106.6,55.8h7v7h-7V55.8z M106.6,63.1h7v7h-7V63.1z M106.6,70.3h7v7h-7V70.3z M106.6,77.6h7v7h-7
		V77.6z M106.6,84.9h7v7h-7V84.9z M106.6,92.1h7v7h-7V92.1z M106.6,99.4h7v7h-7V99.4z M106.6,106.7h7v7h-7V106.7z M106.6,113.9h7v7
		h-7V113.9z M106.6,121.2h7v7h-7V121.2z M99.4,5h7v7h-7V5z M99.4,12.3h7v7h-7V12.3z M99.4,19.5h7v7h-7V19.5z M99.4,26.8h7v7h-7V26.8
		z M99.4,34.1h7v7h-7V34.1z M99.4,41.3h7v7h-7V41.3z M99.4,48.6h7v7h-7V48.6z M99.4,55.8h7v7h-7V55.8z M99.4,63.1h7v7h-7V63.1z
		 M99.4,70.3h7v7h-7V70.3z M99.4,77.6h7v7h-7V77.6z M99.4,84.9h7v7h-7V84.9z M99.4,92.1h7v7h-7V92.1z M99.4,99.4h7v7h-7V99.4z
		 M99.4,106.7h7v7h-7V106.7z M99.4,113.9h7v7h-7V113.9z M99.4,121.2h7v7h-7V121.2z M92.1,5h7v7h-7V5z M92.1,12.3h7v7h-7V12.3z
		 M92.1,19.5h7v7h-7V19.5z M92.1,26.8h7v7h-7V26.8z M92.1,34.1h7v7h-7V34.1z M92.1,41.3h7v7h-7V41.3z M92.1,48.6h7v7h-7V48.6z
		 M92.1,55.8h7v7h-7V55.8z M92.1,63.1h7v7h-7V63.1z M92.1,70.3h7v7h-7V70.3z M92.1,77.6h7v7h-7V77.6z M92.1,84.9h7v7h-7V84.9z
		 M92.1,92.1h7v7h-7V92.1z M92.1,99.4h7v7h-7V99.4z M92.1,106.7h7v7h-7V106.7z M92.1,113.9h7v7h-7V113.9z M92.1,121.2h7v7h-7V121.2z
		 M84.9,5h7v7h-7V5z M84.9,12.3h7v7h-7V12.3z M84.9,19.5h7v7h-7V19.5z M84.9,26.8h7v7h-7V26.8z M84.9,34.1h7v7h-7V34.1z M84.9,41.3
		h7v7h-7V41.3z M84.9,48.6h7v7h-7V48.6z M84.9,55.8h7v7h-7V55.8z M84.9,63.1h7v7h-7V63.1z M84.9,70.3h7v7h-7V70.3z M84.9,77.6h7v7
		h-7V77.6z M84.9,84.9h7v7h-7V84.9z M84.9,92.1h7v7h-7V92.1z M84.9,99.4h7v7h-7V99.4z M84.9,106.7h7v7h-7V106.7z M84.9,113.9h7v7h-7
		V113.9z M84.9,121.2h7v7h-7V121.2z M77.6,5h7v7h-7V5z M77.6,12.3h7v7h-7V12.3z M77.6,19.5h7v7h-7V19.5z M77.6,26.8h7v7h-7V26.8z
		 M77.6,34.1h7v7h-7V34.1z M77.6,41.3h7v7h-7V41.3z M77.6,48.6h7v7h-7V48.6z M77.6,55.8h7v7h-7V55.8z M77.6,63.1h7v7h-7V63.1z
		 M77.6,70.3h7v7h-7V70.3z M77.6,77.6h7v7h-7V77.6z M77.6,84.9h7v7h-7V84.9z M77.6,92.1h7v7h-7V92.1z M77.6,99.4h7v7h-7V99.4z
		 M77.6,106.7h7v7h-7V106.7z M77.6,113.9h7v7h-7V113.9z M77.6,121.2h7v7h-7V121.2z M70.3,5h7v7h-7V5z M70.3,19.5h7v7h-7V19.5z
		 M70.3,26.8h7v7h-7V26.8z M70.3,34.1h7v7h-7V34.1z M70.3,41.3h7v7h-7V41.3z M70.3,48.6h7v7h-7V48.6z M70.3,55.8h7v7h-7V55.8z
		 M70.3,63.1h7v7h-7V63.1z M70.3,70.3h7v7h-7V70.3z M70.3,77.6h7v7h-7V77.6z M70.3,84.9h7v7h-7V84.9z M70.3,92.1h7v7h-7V92.1z
		 M70.3,99.4h7v7h-7V99.4z M70.3,106.7h7v7h-7V106.7z M70.3,121.2h7v7h-7V121.2z M63.1,5h7v7h-7V5z M63.1,12.3h7v7h-7V12.3z
		 M63.1,26.8h7v7h-7V26.8z M63.1,41.3h7v7h-7V41.3z M63.1,55.8h7v7h-7V55.8z M63.1,70.3h7v7h-7V70.3z M63.1,84.9h7v7h-7V84.9z
		 M63.1,99.4h7v7h-7V99.4z M63.1,113.9h7v7h-7V113.9z M63.1,121.2h7v7h-7V121.2z M55.8,5h7v7h-7V5z M55.8,12.3h7v7h-7V12.3z
		 M55.8,19.5h7v7h-7V19.5z M55.8,26.8h7v7h-7V26.8z M55.8,34.1h7v7h-7V34.1z M55.8,41.3h7v7h-7V41.3z M55.8,48.6h7v7h-7V48.6z
		 M55.8,55.8h7v7h-7V55.8z M55.8,63.1h7v7h-7V63.1z M55.8,70.3h7v7h-7V70.3z M55.8,77.6h7v7h-7V77.6z M55.8,84.9h7v7h-7V84.9z
		 M55.8,92.1h7v7h-7V92.1z M55.8,99.4h7v7h-7V99.4z M55.8,106.7h7v7h-7V106.7z M55.8,113.9h7v7h-7V113.9z M55.8,121.2h7v7h-7V121.2z
		 M48.6,5h7v7h-7V5z M48.6,12.3h7v7h-7V12.3z M48.6,19.5h7v7h-7V19.5z M48.6,26.8h7v7h-7V26.8z M48.6,34.1h7v7h-7V34.1z M48.6,41.3
		h7v7h-7V41.3z M48.6,48.6h7v7h-7V48.6z M48.6,55.8h7v7h-7V55.8z M48.6,63.1h7v7h-7V63.1z M48.6,70.3h7v7h-7V70.3z M48.6,77.6h7v7
		h-7V77.6z M48.6,84.9h7v7h-7V84.9z M48.6,92.1h7v7h-7V92.1z M48.6,99.4h7v7h-7V99.4z M48.6,106.7h7v7h-7V106.7z M48.6,113.9h7v7h-7
		V113.9z M48.6,121.2h7v7h-7V121.2z M41.3,5h7v7h-7V5z M41.3,12.3h7v7h-7V12.3z M41.3,19.5h7v7h-7V19.5z M41.3,26.8h7v7h-7V26.8z
		 M41.3,34.1h7v7h-7V34.1z M41.3,41.3h7v7h-7V41.3z M41.3,48.6h7v7h-7V48.6z M41.3,55.8h7v7h-7V55.8z M41.3,63.1h7v7h-7V63.1z
		 M41.3,70.3h7v7h-7V70.3z M41.3,77.6h7v7h-7V77.6z M41.3,84.9h7v7h-7V84.9z M41.3,92.1h7v7h-7V92.1z M41.3,99.4h7v7h-7V99.4z
		 M41.3,106.7h7v7h-7V106.7z M41.3,113.9h7v7h-7V113.9z M41.3,121.2h7v7h-7V121.2z M34,5h7v7h-7V5z M34,12.3h7v7h-7V12.3z M34,19.5
		h7v7h-7V19.5z M34,26.8h7v7h-7V26.8z M34,34.1h7v7h-7V34.1z M34,41.3h7v7h-7V41.3z M34,48.6h7v7h-7V48.6z M34,55.8h7v7h-7V55.8z
		 M34,63.1h7v7h-7V63.1z M34,70.3h7v7h-7V70.3z M34,77.6h7v7h-7V77.6z M34,84.9h7v7h-7V84.9z M34,92.1h7v7h-7V92.1z M34,99.4h7v7h-7
		V99.4z M34,106.7h7v7h-7V106.7z M34,113.9h7v7h-7V113.9z M34,121.2h7v7h-7V121.2z M26.8,5h7v7h-7V5z M26.8,12.3h7v7h-7V12.3z
		 M26.8,19.5h7v7h-7V19.5z M26.8,26.8h7v7h-7V26.8z M26.8,34.1h7v7h-7V34.1z M26.8,41.3h7v7h-7V41.3z M26.8,48.6h7v7h-7V48.6z
		 M26.8,55.8h7v7h-7V55.8z M26.8,63.1h7v7h-7V63.1z M26.8,70.3h7v7h-7V70.3z M26.8,77.6h7v7h-7V77.6z M26.8,84.9h7v7h-7V84.9z
		 M26.8,92.1h7v7h-7V92.1z M26.8,99.4h7v7h-7V99.4z M26.8,106.7h7v7h-7V106.7z M26.8,113.9h7v7h-7V113.9z M26.8,121.2h7v7h-7V121.2z
		 M19.5,5h7v7h-7V5z M19.5,12.3h7v7h-7V12.3z M19.5,19.5h7v7h-7V19.5z M19.5,26.8h7v7h-7V26.8z M19.5,34.1h7v7h-7V34.1z M19.5,41.3
		h7v7h-7V41.3z M19.5,48.6h7v7h-7V48.6z M19.5,55.8h7v7h-7V55.8z M19.5,63.1h7v7h-7V63.1z M19.5,70.3h7v7h-7V70.3z M19.5,77.6h7v7
		h-7V77.6z M19.5,84.9h7v7h-7V84.9z M19.5,92.1h7v7h-7V92.1z M19.5,99.4h7v7h-7V99.4z M19.5,106.7h7v7h-7V106.7z M19.5,113.9h7v7h-7
		V113.9z M19.5,121.2h7v7h-7V121.2z M12.3,12.3h7v7h-7V12.3z M12.3,19.5h7v7h-7V19.5z M12.3,26.8h7v7h-7V26.8z M12.3,34.1h7v7h-7
		V34.1z M12.3,41.3h7v7h-7V41.3z M12.3,48.6h7v7h-7V48.6z M12.3,55.8h7v7h-7V55.8z M12.3,63.1h7v7h-7V63.1z M12.3,70.3h7v7h-7V70.3z
		 M12.3,77.6h7v7h-7V77.6z M12.3,84.9h7v7h-7V84.9z M12.3,92.1h7v7h-7V92.1z M12.3,99.4h7v7h-7V99.4z M12.3,106.7h7v7h-7V106.7z
		 M12.3,113.9h7v7h-7V113.9z M375.2,84.9h7v7h-7V84.9z M375.2,92.1h7v7h-7V92.1z M375.2,99.4h7v7h-7V99.4z M375.2,106.7h7v7h-7
		V106.7z M375.2,113.9h7v7h-7V113.9z M375.2,121.2h7v7h-7V121.2z M382.5,84.9h7v7h-7V84.9z M382.5,92.1h7v7h-7V92.1z M382.5,99.4h7
		v7h-7V99.4z M382.5,106.7h7v7h-7V106.7z M382.5,113.9h7v7h-7V113.9z M389.8,99.4h7v7h-7V99.4z M389.8,106.7h7v7h-7V106.7z"/>
</g>
</svg>
