<?xml version="1.0" encoding="utf-8"?>
<!-- Generator: Adobe Illustrator 27.3.1, SVG Export Plug-In . SVG Version: 6.00 Build 0)  -->
<svg version="1.1" id="Слой_1" xmlns="http://www.w3.org/2000/svg" xmlns:xlink="http://www.w3.org/1999/xlink" x="0px" y="0px"
	 viewBox="0 0 749.4 132.3" style="enable-background:new 0 0 749.4 132.3;" xml:space="preserve">
<style type="text/css">
	.st0{fill:#FCE19B;}
	.st1{fill:#0C0501;}
</style>
<path class="st0" d="M744.9,14.5h-2.8v-10c0-2.5-2-4.5-4.5-4.5H410.9c-2.5,0-4.5,2-4.5,4.5v9.9h-2.7c-1.6,0-3,0.8-3.8,2.1
	c-0.8-1.3-2.2-2.1-3.8-2.1h-2.8V4.5c0-2.5-2-4.5-4.5-4.5H19.3c-2.5,0-4.5,2-4.5,4.5v2.8h-3.1c-2.5,0-4.5,2-4.5,4.5v2.7H4.5
	C2,14.5,0,16.5,0,19v94.3c0,2.5,2,4.5,4.5,4.5h2.7v2.7c0,2.5,2,4.5,4.5,4.5h2.8v2.8c0,2.5,2,4.5,4.5,4.5h368.4c2.5,0,4.5-2,4.5-4.5
	v-10h2.8c1.6,0,3-0.8,3.8-2.1c0.8,1.3,2.2,2.1,3.8,2.1h2.7v10c0,2.5,2,4.5,4.5,4.5h326.9c2.5,0,4.5-2,4.5-4.5v-10h2.8
	c2.5,0,4.5-2,4.5-4.5V99c0-2.5-2-4.5-4.5-4.5h-2.8V81.4h2.8c2.5,0,4.5-2,4.5-4.5V55.4c0-2.5-2-4.5-4.5-4.5h-2.8v-13h2.8
	c2.5,0,4.5-2,4.5-4.5V21.1c0.7-0.4,1.2-1.2,1.2-2.1C749.4,16.5,747.4,14.5,744.9,14.5z"/>
<path class="st1" d="M4.5,19h7v7h-7V19z M4.5,26.3h7v7h-7V26.3z M4.5,33.6h7v7h-7V33.6z M4.5,40.8h7v7h-7V40.8z M4.5,48.1h7v7h-7
	V48.1z M4.5,55.3h7v7h-7V55.3z M4.5,62.6h7v7h-7V62.6z M4.5,69.8h7v7h-7V69.8z M4.5,77.1h7v7h-7V77.1z M11.7,11.8h7v7h-7
	C11.7,18.8,11.7,11.8,11.7,11.8z M11.7,19h7v7h-7C11.7,26,11.7,19,11.7,19z M11.7,33.6h7v7h-7C11.7,40.6,11.7,33.6,11.7,33.6z
	 M11.7,48.1h7v7h-7C11.7,55.1,11.7,48.1,11.7,48.1z M11.7,62.6h7v7h-7C11.7,69.6,11.7,62.6,11.7,62.6z M11.7,77.1h7v7h-7
	C11.7,84.1,11.7,77.1,11.7,77.1z M19,4.5h7v7h-7V4.5z M19,11.8h7v7h-7V11.8z M19,26.3h7v7h-7V26.3z M19,40.8h7v7h-7V40.8z M19,55.3
	h7v7h-7V55.3z M19,62.6h7v7h-7V62.6z M19,69.8h7v7h-7V69.8z M26.3,4.5h7v7h-7V4.5z M26.3,19h7v7h-7V19z M26.3,33.6h7v7h-7V33.6z
	 M26.3,48.1h7v7h-7V48.1z M26.3,62.6h7v7h-7V62.6z M26.3,77.1h7v7h-7V77.1z M33.5,4.5h7v7h-7V4.5z M33.5,11.8h7v7h-7V11.8z M33.5,19
	h7v7h-7V19z M33.5,26.3h7v7h-7V26.3z M33.5,33.6h7v7h-7V33.6z M33.5,40.8h7v7h-7V40.8z M33.5,48.1h7v7h-7V48.1z M33.5,55.3h7v7h-7
	V55.3z M33.5,62.6h7v7h-7V62.6z M33.5,69.8h7v7h-7V69.8z M33.5,77.1h7v7h-7V77.1z M40.8,4.5h7v7h-7V4.5z M40.8,19h7v7h-7V19z
	 M40.8,26.3h7v7h-7V26.3z M40.8,33.6h7v7h-7V33.6z M40.8,40.8h7v7h-7V40.8z M40.8,77.1h7v7h-7V77.1z M48,4.5h7v7h-7V4.5z M48,11.8h7
	v7h-7V11.8z M48,26.3h7v7h-7V26.3z M48,33.6h7v7h-7V33.6z M48,40.8h7v7h-7V40.8z M48,48.1h7v7h-7V48.1z M48,55.3h7v7h-7V55.3z
	 M48,62.6h7v7h-7V62.6z M48,69.8h7v7h-7V69.8z M48,77.1h7v7h-7V77.1z M4.5,84.4h7v7h-7V84.4z M4.5,91.6h7v7h-7V91.6z M4.5,98.9h7v7
	h-7V98.9z M4.5,106.2h7v7h-7V106.2z M11.7,91.6h7v7h-7C11.7,98.6,11.7,91.6,11.7,91.6z M11.7,106.2h7v7h-7
	C11.7,113.2,11.7,106.2,11.7,106.2z M11.7,113.4h7v7h-7C11.7,120.4,11.7,113.4,11.7,113.4z M19,84.4h7v7h-7V84.4z M19,98.9h7v7h-7
	V98.9z M19,113.4h7v7h-7V113.4z M19,120.7h7v7h-7V120.7z M26.3,91.6h7v7h-7V91.6z M26.3,106.2h7v7h-7V106.2z M26.3,120.7h7v7h-7
	V120.7z M33.5,84.4h7v7h-7V84.4z M33.5,91.6h7v7h-7V91.6z M33.5,98.9h7v7h-7V98.9z M33.5,106.2h7v7h-7V106.2z M33.5,113.4h7v7h-7
	V113.4z M33.5,120.7h7v7h-7V120.7z M40.8,84.4h7v7h-7V84.4z M40.8,91.6h7v7h-7V91.6z M40.8,98.9h7v7h-7V98.9z M40.8,106.2h7v7h-7
	V106.2z M40.8,120.7h7v7h-7V120.7z M48,84.4h7v7h-7V84.4z M48,91.6h7v7h-7V91.6z M48,98.9h7v7h-7V98.9z M48,113.4h7v7h-7V113.4z
	 M48,120.7h7v7h-7V120.7z M55.3,4.5h7v7h-7V4.5z M55.3,19h7v7h-7V19z M55.3,26.3h7v7h-7V26.3z M55.3,33.6h7v7h-7V33.6z M55.3,40.8h7
	v7h-7V40.8z M55.3,55.3h7v7h-7V55.3z M55.3,62.6h7v7h-7V62.6z M55.3,77.1h7v7h-7V77.1z M62.6,4.5h7v7h-7V4.5z M62.6,11.8h7v7h-7
	V11.8z M62.6,26.3h7v7h-7V26.3z M62.6,33.6h7v7h-7V33.6z M62.6,40.8h7v7h-7V40.8z M62.6,48.1h7v7h-7V48.1z M62.6,55.3h7v7h-7V55.3z
	 M62.6,62.6h7v7h-7V62.6z M62.6,69.8h7v7h-7V69.8z M62.6,77.1h7v7h-7V77.1z M69.8,4.5h7v7h-7V4.5z M69.8,11.8h7v7h-7V11.8z M69.8,19
	h7v7h-7V19z M69.8,26.3h7v7h-7V26.3z M69.8,33.6h7v7h-7V33.6z M69.8,40.8h7v7h-7V40.8z M69.8,55.3h7v7h-7V55.3z M69.8,62.6h7v7h-7
	V62.6z M69.8,77.1h7v7h-7V77.1z M77.1,4.5h7v7h-7V4.5z M77.1,11.8h7v7h-7V11.8z M77.1,19h7v7h-7V19z M77.1,26.3h7v7h-7V26.3z
	 M77.1,33.6h7v7h-7V33.6z M77.1,40.8h7v7h-7V40.8z M77.1,48.1h7v7h-7V48.1z M77.1,69.8h7v7h-7V69.8z M77.1,77.1h7v7h-7V77.1z
	 M84.3,4.5h7v7h-7V4.5z M84.3,11.8h7v7h-7V11.8z M84.3,19h7v7h-7V19z M84.3,26.3h7v7h-7V26.3z M84.3,33.6h7v7h-7V33.6z M84.3,40.8h7
	v7h-7V40.8z M84.3,48.1h7v7h-7V48.1z M84.3,62.6h7v7h-7V62.6z M84.3,69.8h7v7h-7V69.8z M84.3,77.1h7v7h-7V77.1z M91.6,4.5h7v7h-7
	V4.5z M91.6,11.8h7v7h-7V11.8z M91.6,19h7v7h-7V19z M91.6,26.3h7v7h-7V26.3z M91.6,33.6h7v7h-7V33.6z M91.6,40.8h7v7h-7V40.8z
	 M91.6,48.1h7v7h-7V48.1z M91.6,62.6h7v7h-7V62.6z M91.6,69.8h7v7h-7V69.8z M91.6,77.1h7v7h-7V77.1z M98.9,4.5h7v7h-7V4.5z
	 M98.9,11.8h7v7h-7V11.8z M98.9,19h7v7h-7V19z M98.9,26.3h7v7h-7V26.3z M98.9,33.6h7v7h-7V33.6z M98.9,40.8h7v7h-7V40.8z M98.9,48.1
	h7v7h-7V48.1z M98.9,62.6h7v7h-7V62.6z M98.9,69.8h7v7h-7V69.8z M98.9,77.1h7v7h-7V77.1z M106.1,4.5h7v7h-7V4.5z M106.1,11.8h7v7h-7
	V11.8z M106.1,19h7v7h-7V19z M106.1,26.3h7v7h-7V26.3z M106.1,33.6h7v7h-7V33.6z M106.1,40.8h7v7h-7V40.8z M106.1,48.1h7v7h-7V48.1z
	 M106.1,62.6h7v7h-7V62.6z M106.1,69.8h7v7h-7V69.8z M106.1,77.1h7v7h-7V77.1z M113.4,4.5h7v7h-7V4.5z M113.4,40.8h7v7h-7V40.8z
	 M113.4,48.1h7v7h-7V48.1z M113.4,55.3h7v7h-7V55.3z M113.4,69.8h7v7h-7V69.8z M113.4,77.1h7v7h-7V77.1z M120.6,4.5h7v7h-7V4.5z
	 M120.6,11.8h7v7h-7V11.8z M120.6,26.3h7v7h-7V26.3z M120.6,40.8h7v7h-7V40.8z M120.6,48.1h7v7h-7V48.1z M120.6,55.3h7v7h-7V55.3z
	 M120.6,69.8h7v7h-7V69.8z M120.6,77.1h7v7h-7V77.1z M55.3,84.4h7v7h-7V84.4z M55.3,91.6h7v7h-7V91.6z M55.3,98.9h7v7h-7V98.9z
	 M55.3,106.2h7v7h-7V106.2z M55.3,120.7h7v7h-7V120.7z M62.6,84.4h7v7h-7V84.4z M62.6,91.6h7v7h-7V91.6z M62.6,98.9h7v7h-7V98.9z
	 M62.6,113.4h7v7h-7V113.4z M62.6,120.7h7v7h-7V120.7z M69.8,84.4h7v7h-7V84.4z M69.8,91.6h7v7h-7V91.6z M69.8,98.9h7v7h-7V98.9z
	 M69.8,106.2h7v7h-7V106.2z M69.8,113.4h7v7h-7V113.4z M69.8,120.7h7v7h-7V120.7z M77.1,84.4h7v7h-7V84.4z M77.1,91.6h7v7h-7V91.6z
	 M77.1,98.9h7v7h-7V98.9z M77.1,106.2h7v7h-7V106.2z M77.1,113.4h7v7h-7V113.4z M77.1,120.7h7v7h-7V120.7z M84.3,84.4h7v7h-7V84.4z
	 M84.3,91.6h7v7h-7V91.6z M84.3,98.9h7v7h-7V98.9z M84.3,106.2h7v7h-7V106.2z M84.3,113.4h7v7h-7V113.4z M84.3,120.7h7v7h-7V120.7z
	 M91.6,84.4h7v7h-7V84.4z M91.6,91.6h7v7h-7V91.6z M91.6,98.9h7v7h-7V98.9z M91.6,106.2h7v7h-7V106.2z M91.6,113.4h7v7h-7V113.4z
	 M91.6,120.7h7v7h-7V120.7z M98.9,84.4h7v7h-7V84.4z M98.9,91.6h7v7h-7V91.6z M98.9,98.9h7v7h-7V98.9z M98.9,106.2h7v7h-7V106.2z
	 M98.9,113.4h7v7h-7V113.4z M98.9,120.7h7v7h-7V120.7z M106.1,84.4h7v7h-7V84.4z M106.1,91.6h7v7h-7V91.6z M106.1,98.9h7v7h-7V98.9z
	 M106.1,106.2h7v7h-7V106.2z M106.1,113.4h7v7h-7V113.4z M106.1,120.7h7v7h-7V120.7z M113.4,84.4h7v7h-7V84.4z M113.4,120.7h7v7h-7
	V120.7z M120.6,84.4h7v7h-7V84.4z M120.6,98.9h7v7h-7V98.9z M120.6,113.4h7v7h-7V113.4z M120.6,120.7h7v7h-7V120.7z M127.9,4.5h7v7
	h-7C127.9,11.5,127.9,4.5,127.9,4.5z M127.9,19h7v7h-7C127.9,26,127.9,19,127.9,19z M127.9,40.8h7v7h-7
	C127.9,47.8,127.9,40.8,127.9,40.8z M127.9,48.1h7v7h-7C127.9,55.1,127.9,48.1,127.9,48.1z M127.9,55.3h7v7h-7
	C127.9,62.3,127.9,55.3,127.9,55.3z M127.9,69.8h7v7h-7C127.9,76.8,127.9,69.8,127.9,69.8z M127.9,77.1h7v7h-7
	C127.9,84.1,127.9,77.1,127.9,77.1z M135.2,4.5h7v7h-7V4.5z M135.2,11.8h7v7h-7V11.8z M135.2,26.3h7v7h-7V26.3z M135.2,40.8h7v7h-7
	V40.8z M135.2,48.1h7v7h-7V48.1z M135.2,55.3h7v7h-7V55.3z M135.2,69.8h7v7h-7V69.8z M135.2,77.1h7v7h-7V77.1z M142.4,4.5h7v7h-7
	V4.5z M142.4,19h7v7h-7V19z M142.4,40.8h7v7h-7V40.8z M142.4,48.1h7v7h-7V48.1z M142.4,55.3h7v7h-7V55.3z M142.4,69.8h7v7h-7V69.8z
	 M142.4,77.1h7v7h-7V77.1z M149.7,4.5h7v7h-7V4.5z M149.7,11.8h7v7h-7V11.8z M149.7,26.3h7v7h-7V26.3z M149.7,40.8h7v7h-7V40.8z
	 M149.7,48.1h7v7h-7V48.1z M149.7,62.6h7v7h-7V62.6z M149.7,69.8h7v7h-7V69.8z M149.7,77.1h7v7h-7V77.1z M156.9,4.5h7v7h-7V4.5z
	 M156.9,19h7v7h-7V19z M156.9,40.8h7v7h-7V40.8z M156.9,48.1h7v7h-7V48.1z M156.9,62.6h7v7h-7V62.6z M156.9,69.8h7v7h-7V69.8z
	 M156.9,77.1h7v7h-7V77.1z M164.2,4.5h7v7h-7V4.5z M164.2,11.8h7v7h-7V11.8z M164.2,26.3h7v7h-7V26.3z M164.2,40.8h7v7h-7V40.8z
	 M164.2,48.1h7v7h-7V48.1z M164.2,62.6h7v7h-7V62.6z M164.2,69.8h7v7h-7V69.8z M164.2,77.1h7v7h-7V77.1z M171.5,4.5h7v7h-7V4.5z
	 M171.5,19h7v7h-7V19z M171.5,40.8h7v7h-7V40.8z M171.5,48.1h7v7h-7V48.1z M171.5,62.6h7v7h-7V62.6z M171.5,69.8h7v7h-7V69.8z
	 M171.5,77.1h7v7h-7V77.1z M178.7,4.5h7v7h-7V4.5z M178.7,11.8h7v7h-7V11.8z M178.7,26.3h7v7h-7V26.3z M178.7,55.3h7v7h-7V55.3z
	 M186,4.5h7v7h-7V4.5z M186,19h7v7h-7V19z M186,40.8h7v7h-7V40.8z M186,48.1h7v7h-7V48.1z M186,55.3h7v7h-7V55.3z M186,69.8h7v7h-7
	V69.8z M186,77.1h7v7h-7V77.1z M193.2,4.5h7v7h-7V4.5z M193.2,11.8h7v7h-7V11.8z M193.2,26.3h7v7h-7V26.3z M193.2,40.8h7v7h-7V40.8z
	 M193.2,48.1h7v7h-7V48.1z M193.2,55.3h7v7h-7V55.3z M193.2,69.8h7v7h-7V69.8z M193.2,77.1h7v7h-7V77.1z M127.9,84.4h7v7h-7
	C127.9,91.4,127.9,84.4,127.9,84.4z M127.9,106.2h7v7h-7C127.9,113.2,127.9,106.2,127.9,106.2z M127.9,120.7h7v7h-7
	C127.9,127.7,127.9,120.7,127.9,120.7z M135.2,84.4h7v7h-7V84.4z M135.2,98.9h7v7h-7V98.9z M135.2,113.4h7v7h-7V113.4z M135.2,120.7
	h7v7h-7V120.7z M142.4,84.4h7v7h-7V84.4z M142.4,106.2h7v7h-7V106.2z M142.4,120.7h7v7h-7V120.7z M149.7,84.4h7v7h-7V84.4z
	 M149.7,98.9h7v7h-7V98.9z M149.7,113.4h7v7h-7V113.4z M149.7,120.7h7v7h-7V120.7z M156.9,84.4h7v7h-7V84.4z M156.9,106.2h7v7h-7
	V106.2z M156.9,120.7h7v7h-7V120.7z M164.2,84.4h7v7h-7V84.4z M164.2,98.9h7v7h-7V98.9z M164.2,113.4h7v7h-7V113.4z M164.2,120.7h7
	v7h-7V120.7z M171.5,84.4h7v7h-7V84.4z M171.5,106.2h7v7h-7V106.2z M171.5,120.7h7v7h-7V120.7z M178.7,98.9h7v7h-7V98.9z
	 M178.7,113.4h7v7h-7V113.4z M178.7,120.7h7v7h-7V120.7z M186,84.4h7v7h-7V84.4z M186,106.2h7v7h-7V106.2z M186,120.7h7v7h-7V120.7z
	 M193.2,84.4h7v7h-7V84.4z M193.2,98.9h7v7h-7V98.9z M193.2,113.4h7v7h-7V113.4z M193.2,120.7h7v7h-7V120.7z M200.5,4.5h7v7h-7V4.5z
	 M200.5,40.8h7v7h-7V40.8z M200.5,48.1h7v7h-7V48.1z M200.5,55.3h7v7h-7V55.3z M200.5,69.8h7v7h-7V69.8z M200.5,77.1h7v7h-7V77.1z
	 M207.8,4.5h7v7h-7V4.5z M207.8,11.8h7v7h-7V11.8z M207.8,19h7v7h-7V19z M207.8,26.3h7v7h-7V26.3z M207.8,33.6h7v7h-7V33.6z
	 M207.8,40.8h7v7h-7V40.8z M207.8,48.1h7v7h-7V48.1z M207.8,55.3h7v7h-7V55.3z M207.8,69.8h7v7h-7V69.8z M207.8,77.1h7v7h-7V77.1z
	 M215,4.5h7v7h-7V4.5z M215,11.8h7v7h-7V11.8z M215,19h7v7h-7V19z M215,26.3h7v7h-7V26.3z M215,33.6h7v7h-7V33.6z M215,40.8h7v7h-7
	V40.8z M215,48.1h7v7h-7V48.1z M215,55.3h7v7h-7V55.3z M215,69.8h7v7h-7V69.8z M215,77.1h7v7h-7V77.1z M222.3,4.5h7v7h-7V4.5z
	 M222.3,11.8h7v7h-7V11.8z M222.3,19h7v7h-7V19z M222.3,26.3h7v7h-7V26.3z M222.3,33.6h7v7h-7V33.6z M222.3,40.8h7v7h-7V40.8z
	 M222.3,48.1h7v7h-7V48.1z M222.3,55.3h7v7h-7V55.3z M222.3,69.8h7v7h-7V69.8z M222.3,77.1h7v7h-7V77.1z M229.5,4.5h7v7h-7V4.5z
	 M229.5,11.8h7v7h-7V11.8z M229.5,19h7v7h-7V19z M229.5,26.3h7v7h-7V26.3z M229.5,33.6h7v7h-7V33.6z M229.5,40.8h7v7h-7V40.8z
	 M229.5,48.1h7v7h-7V48.1z M229.5,55.3h7v7h-7V55.3z M229.5,69.8h7v7h-7V69.8z M229.5,77.1h7v7h-7V77.1z M236.8,4.5h7v7h-7V4.5z
	 M236.8,11.8h7v7h-7V11.8z M236.8,19h7v7h-7V19z M236.8,26.3h7v7h-7V26.3z M236.8,33.6h7v7h-7V33.6z M236.8,40.8h7v7h-7V40.8z
	 M236.8,48.1h7v7h-7V48.1z M236.8,55.3h7v7h-7V55.3z M236.8,69.8h7v7h-7V69.8z M236.8,77.1h7v7h-7V77.1z M244.1,4.5h7v7h-7V4.5z
	 M244.1,11.8h7v7h-7V11.8z M244.1,19h7v7h-7V19z M244.1,26.3h7v7h-7V26.3z M244.1,33.6h7v7h-7V33.6z M244.1,40.8h7v7h-7V40.8z
	 M244.1,48.1h7v7h-7V48.1z M244.1,62.6h7v7h-7V62.6z M244.1,69.8h7v7h-7V69.8z M244.1,77.1h7v7h-7V77.1z M251.3,4.5h7v7h-7
	L251.3,4.5L251.3,4.5z M251.3,11.8h7v7h-7L251.3,11.8L251.3,11.8z M251.3,19h7v7h-7L251.3,19L251.3,19z M251.3,26.3h7v7h-7
	L251.3,26.3L251.3,26.3z M251.3,33.6h7v7h-7L251.3,33.6L251.3,33.6z M251.3,40.8h7v7h-7L251.3,40.8L251.3,40.8z M251.3,48.1h7v7h-7
	L251.3,48.1L251.3,48.1z M251.3,62.6h7v7h-7L251.3,62.6L251.3,62.6z M251.3,69.8h7v7h-7L251.3,69.8L251.3,69.8z M251.3,77.1h7v7h-7
	L251.3,77.1L251.3,77.1z M258.6,4.5h7v7h-7V4.5z M258.6,11.8h7v7h-7V11.8z M258.6,19h7v7h-7V19z M258.6,26.3h7v7h-7V26.3z
	 M258.6,33.6h7v7h-7V33.6z M258.6,40.8h7v7h-7V40.8z M258.6,48.1h7v7h-7V48.1z M258.6,62.6h7v7h-7V62.6z M258.6,69.8h7v7h-7V69.8z
	 M258.6,77.1h7v7h-7V77.1z M265.8,4.5h7v7h-7V4.5z M265.8,11.8h7v7h-7V11.8z M265.8,19h7v7h-7V19z M265.8,26.3h7v7h-7V26.3z
	 M265.8,33.6h7v7h-7V33.6z M265.8,40.8h7v7h-7V40.8z M265.8,48.1h7v7h-7V48.1z M265.8,62.6h7v7h-7V62.6z M265.8,69.8h7v7h-7V69.8z
	 M265.8,77.1h7v7h-7V77.1z M200.5,84.4h7v7h-7V84.4z M200.5,120.7h7v7h-7V120.7z M207.8,84.4h7v7h-7V84.4z M207.8,91.6h7v7h-7V91.6z
	 M207.8,98.9h7v7h-7V98.9z M207.8,106.2h7v7h-7V106.2z M207.8,113.4h7v7h-7V113.4z M207.8,120.7h7v7h-7V120.7z M215,84.4h7v7h-7
	V84.4z M215,91.6h7v7h-7V91.6z M215,98.9h7v7h-7V98.9z M215,106.2h7v7h-7V106.2z M215,113.4h7v7h-7V113.4z M215,120.7h7v7h-7V120.7z
	 M222.3,84.4h7v7h-7V84.4z M222.3,91.6h7v7h-7V91.6z M222.3,98.9h7v7h-7V98.9z M222.3,106.2h7v7h-7V106.2z M222.3,113.4h7v7h-7
	V113.4z M222.3,120.7h7v7h-7V120.7z M229.5,84.4h7v7h-7V84.4z M229.5,91.6h7v7h-7V91.6z M229.5,98.9h7v7h-7V98.9z M229.5,106.2h7v7
	h-7V106.2z M229.5,113.4h7v7h-7V113.4z M229.5,120.7h7v7h-7V120.7z M236.8,84.4h7v7h-7V84.4z M236.8,91.6h7v7h-7V91.6z M236.8,98.9
	h7v7h-7V98.9z M236.8,106.2h7v7h-7V106.2z M236.8,113.4h7v7h-7V113.4z M236.8,120.7h7v7h-7V120.7z M244.1,84.4h7v7h-7V84.4z
	 M244.1,91.6h7v7h-7V91.6z M244.1,98.9h7v7h-7V98.9z M244.1,106.2h7v7h-7V106.2z M244.1,113.4h7v7h-7V113.4z M244.1,120.7h7v7h-7
	V120.7z M251.3,84.4h7v7h-7L251.3,84.4L251.3,84.4z M251.3,91.6h7v7h-7L251.3,91.6L251.3,91.6z M251.3,98.9h7v7h-7L251.3,98.9
	L251.3,98.9z M251.3,106.2h7v7h-7L251.3,106.2L251.3,106.2z M251.3,113.4h7v7h-7L251.3,113.4L251.3,113.4z M251.3,120.7h7v7h-7
	L251.3,120.7L251.3,120.7z M258.6,84.4h7v7h-7V84.4z M258.6,91.6h7v7h-7V91.6z M258.6,98.9h7v7h-7V98.9z M258.6,106.2h7v7h-7V106.2z
	 M258.6,113.4h7v7h-7V113.4z M258.6,120.7h7v7h-7V120.7z M265.8,84.4h7v7h-7V84.4z M265.8,91.6h7v7h-7V91.6z M265.8,98.9h7v7h-7
	V98.9z M265.8,106.2h7v7h-7V106.2z M265.8,113.4h7v7h-7V113.4z M265.8,120.7h7v7h-7V120.7z M273.1,4.5h7v7h-7V4.5z M273.1,11.8h7v7
	h-7V11.8z M273.1,19h7v7h-7V19z M280.4,4.5h7v7h-7V4.5z M280.4,11.8h7v7h-7V11.8z M280.4,26.3h7v7h-7V26.3z M280.4,33.6h7v7h-7V33.6
	z M280.4,40.8h7v7h-7V40.8z M280.4,48.1h7v7h-7V48.1z M280.4,55.3h7v7h-7V55.3z M280.4,69.8h7v7h-7V69.8z M280.4,77.1h7v7h-7V77.1z
	 M287.6,4.5h7v7h-7V4.5z M287.6,11.8h7v7h-7V11.8z M287.6,26.3h7v7h-7V26.3z M287.6,33.6h7v7h-7V33.6z M287.6,40.8h7v7h-7V40.8z
	 M287.6,48.1h7v7h-7V48.1z M287.6,55.3h7v7h-7V55.3z M287.6,62.6h7v7h-7V62.6z M287.6,69.8h7v7h-7V69.8z M287.6,77.1h7v7h-7V77.1z
	 M294.9,4.5h7v7h-7V4.5z M294.9,11.8h7v7h-7V11.8z M294.9,26.3h7v7h-7V26.3z M294.9,33.6h7v7h-7V33.6z M294.9,40.8h7v7h-7V40.8z
	 M294.9,48.1h7v7h-7V48.1z M294.9,55.3h7v7h-7V55.3z M294.9,69.8h7v7h-7V69.8z M294.9,77.1h7v7h-7V77.1z M302.1,4.5h7v7h-7V4.5z
	 M302.1,11.8h7v7h-7V11.8z M302.1,26.3h7v7h-7V26.3z M302.1,33.6h7v7h-7V33.6z M302.1,40.8h7v7h-7V40.8z M302.1,48.1h7v7h-7V48.1z
	 M302.1,55.3h7v7h-7V55.3z M302.1,62.6h7v7h-7V62.6z M302.1,69.8h7v7h-7V69.8z M302.1,77.1h7v7h-7V77.1z M309.4,4.5h7v7h-7V4.5z
	 M316.7,4.5h7v7h-7V4.5z M323.9,4.5h7v7h-7V4.5z M323.9,11.8h7v7h-7V11.8z M323.9,26.3h7v7h-7V26.3z M323.9,33.6h7v7h-7V33.6z
	 M323.9,40.8h7v7h-7V40.8z M323.9,48.1h7v7h-7V48.1z M323.9,55.3h7v7h-7V55.3z M323.9,62.6h7v7h-7V62.6z M323.9,69.8h7v7h-7V69.8z
	 M323.9,77.1h7v7h-7V77.1z M331.2,4.5h7v7h-7V4.5z M331.2,11.8h7v7h-7V11.8z M331.2,26.3h7v7h-7V26.3z M331.2,33.6h7v7h-7V33.6z
	 M331.2,40.8h7v7h-7V40.8z M331.2,48.1h7v7h-7V48.1z M331.2,55.3h7v7h-7V55.3z M331.2,69.8h7v7h-7V69.8z M331.2,77.1h7v7h-7V77.1z
	 M338.4,4.5h7v7h-7V4.5z M338.4,11.8h7v7h-7V11.8z M338.4,26.3h7v7h-7V26.3z M338.4,33.6h7v7h-7V33.6z M338.4,40.8h7v7h-7V40.8z
	 M338.4,48.1h7v7h-7V48.1z M338.4,55.3h7v7h-7V55.3z M338.4,62.6h7v7h-7V62.6z M338.4,69.8h7v7h-7V69.8z M338.4,77.1h7v7h-7V77.1z
	 M273.1,106.2h7v7h-7V106.2z M273.1,113.4h7v7h-7V113.4z M273.1,120.7h7v7h-7V120.7z M280.4,84.4h7v7h-7V84.4z M280.4,91.6h7v7h-7
	V91.6z M280.4,98.9h7v7h-7V98.9z M280.4,113.4h7v7h-7V113.4z M280.4,120.7h7v7h-7V120.7z M287.6,84.4h7v7h-7V84.4z M287.6,91.6h7v7
	h-7V91.6z M287.6,98.9h7v7h-7V98.9z M287.6,113.4h7v7h-7V113.4z M287.6,120.7h7v7h-7V120.7z M294.9,84.4h7v7h-7V84.4z M294.9,91.6h7
	v7h-7V91.6z M294.9,98.9h7v7h-7V98.9z M294.9,113.4h7v7h-7V113.4z M294.9,120.7h7v7h-7V120.7z M302.1,84.4h7v7h-7V84.4z M302.1,91.6
	h7v7h-7V91.6z M302.1,98.9h7v7h-7V98.9z M302.1,113.4h7v7h-7V113.4z M302.1,120.7h7v7h-7V120.7z M309.4,120.7h7v7h-7V120.7z
	 M316.7,120.7h7v7h-7V120.7z M323.9,84.4h7v7h-7V84.4z M323.9,91.6h7v7h-7V91.6z M323.9,98.9h7v7h-7V98.9z M323.9,113.4h7v7h-7
	V113.4z M323.9,120.7h7v7h-7V120.7z M331.2,84.4h7v7h-7V84.4z M331.2,91.6h7v7h-7V91.6z M331.2,98.9h7v7h-7V98.9z M331.2,113.4h7v7
	h-7V113.4z M331.2,120.7h7v7h-7V120.7z M338.4,84.4h7v7h-7V84.4z M338.4,91.6h7v7h-7V91.6z M338.4,98.9h7v7h-7V98.9z M338.4,113.4h7
	v7h-7V113.4z M338.4,120.7h7v7h-7V120.7z M345.7,4.5h7v7h-7V4.5z M345.7,11.8h7v7h-7V11.8z M345.7,26.3h7v7h-7V26.3z M345.7,33.6h7
	v7h-7V33.6z M345.7,40.8h7v7h-7V40.8z M345.7,48.1h7v7h-7V48.1z M345.7,55.3h7v7h-7V55.3z M345.7,69.8h7v7h-7V69.8z M345.7,77.1h7v7
	h-7V77.1z M353,4.5h7v7h-7V4.5z M353,11.8h7v7h-7V11.8z M353,19h7v7h-7V19z M360.2,4.5h7v7h-7V4.5z M360.2,11.8h7v7h-7V11.8z
	 M360.2,19h7v7h-7V19z M360.2,26.3h7v7h-7V26.3z M360.2,33.6h7v7h-7V33.6z M360.2,40.8h7v7h-7V40.8z M360.2,48.1h7v7h-7V48.1z
	 M360.2,55.3h7v7h-7V55.3z M360.2,62.6h7v7h-7V62.6z M360.2,69.8h7v7h-7V69.8z M360.2,77.1h7v7h-7V77.1z M367.5,4.5h7v7h-7V4.5z
	 M367.5,11.8h7v7h-7V11.8z M367.5,19h7v7h-7V19z M367.5,26.3h7v7h-7V26.3z M367.5,33.6h7v7h-7V33.6z M367.5,40.8h7v7h-7V40.8z
	 M367.5,48.1h7v7h-7V48.1z M367.5,55.3h7v7h-7V55.3z M367.5,62.6h7v7h-7V62.6z M367.5,69.8h7v7h-7V69.8z M367.5,77.1h7v7h-7V77.1z
	 M374.7,4.5h7v7h-7V4.5z M374.7,11.8h7v7h-7V11.8z M374.7,19h7v7h-7V19z M374.7,26.3h7v7h-7V26.3z M374.7,33.6h7v7h-7V33.6z
	 M374.7,40.8h7v7h-7V40.8z M374.7,48.1h7v7h-7V48.1z M374.7,55.3h7v7h-7V55.3z M374.7,62.6h7v7h-7V62.6z M374.7,69.8h7v7h-7V69.8z
	 M374.7,77.1h7v7h-7V77.1z M382,4.5h7v7h-7V4.5z M382,11.8h7v7h-7V11.8z M382,19h7v7h-7V19z M382,26.3h7v7h-7V26.3z M382,33.6h7v7
	h-7V33.6z M382,40.8h7v7h-7V40.8z M382,48.1h7v7h-7V48.1z M382,55.3h7v7h-7V55.3z M382,62.6h7v7h-7V62.6z M382,69.8h7v7h-7V69.8z
	 M382,77.1h7v7h-7V77.1z M389.3,19h7v7h-7V19z M389.3,26.3h7v7h-7V26.3z M389.3,55.3h7v7h-7V55.3z M389.3,62.6h7v7h-7V62.6z
	 M389.3,69.8h7v7h-7V69.8z M396.5,55.3h7v7h-7V55.3z M396.5,62.6h7v7h-7V62.6z M396.5,69.8h7v7h-7V69.8z M403.8,19h7v7h-7V19z
	 M403.8,26.3h7v7h-7V26.3z M403.8,55.3h7v7h-7V55.3z M403.8,62.6h7v7h-7V62.6z M403.8,69.8h7v7h-7V69.8z M411,4.5h7v7h-7V4.5z
	 M411,11.8h7v7h-7V11.8z M411,19h7v7h-7V19z M411,26.3h7v7h-7V26.3z M411,33.6h7v7h-7V33.6z M411,40.8h7v7h-7V40.8z M411,48.1h7v7
	h-7V48.1z M411,55.3h7v7h-7V55.3z M411,62.6h7v7h-7V62.6z M411,69.8h7v7h-7V69.8z M411,77.1h7v7h-7V77.1z M345.7,84.4h7v7h-7V84.4z
	 M345.7,91.6h7v7h-7V91.6z M345.7,98.9h7v7h-7V98.9z M345.7,113.4h7v7h-7V113.4z M345.7,120.7h7v7h-7V120.7z M353,106.2h7v7h-7
	V106.2z M353,113.4h7v7h-7V113.4z M353,120.7h7v7h-7V120.7z M360.2,84.4h7v7h-7V84.4z M360.2,91.6h7v7h-7V91.6z M360.2,98.9h7v7h-7
	V98.9z M360.2,106.2h7v7h-7V106.2z M360.2,113.4h7v7h-7V113.4z M360.2,120.7h7v7h-7V120.7z M367.5,84.4h7v7h-7V84.4z M367.5,91.6h7
	v7h-7V91.6z M367.5,98.9h7v7h-7V98.9z M367.5,106.2h7v7h-7V106.2z M367.5,113.4h7v7h-7V113.4z M367.5,120.7h7v7h-7V120.7z
	 M374.7,84.4h7v7h-7V84.4z M374.7,91.6h7v7h-7V91.6z M374.7,98.9h7v7h-7V98.9z M374.7,106.2h7v7h-7V106.2z M374.7,113.4h7v7h-7
	V113.4z M374.7,120.7h7v7h-7V120.7z M382,84.4h7v7h-7V84.4z M382,91.6h7v7h-7V91.6z M382,98.9h7v7h-7V98.9z M382,106.2h7v7h-7V106.2
	z M382,113.4h7v7h-7V113.4z M382,120.7h7v7h-7V120.7z M389.3,98.9h7v7h-7V98.9z M389.3,106.2h7v7h-7V106.2z M403.8,98.9h7v7h-7V98.9
	z M403.8,106.2h7v7h-7V106.2z M411,84.4h7v7h-7V84.4z M411,91.6h7v7h-7V91.6z M411,98.9h7v7h-7V98.9z M411,106.2h7v7h-7V106.2z
	 M411,113.4h7v7h-7V113.4z M411,120.7h7v7h-7V120.7z M418.3,4.5h7v7h-7V4.5z M418.3,19h7v7h-7V19z M418.3,33.6h7v7h-7V33.6z
	 M418.3,48.1h7v7h-7V48.1z M418.3,62.6h7v7h-7V62.6z M418.3,77.1h7v7h-7V77.1z M425.6,4.5h7v7h-7V4.5z M425.6,11.8h7v7h-7V11.8z
	 M425.6,26.3h7v7h-7V26.3z M425.6,40.8h7v7h-7V40.8z M425.6,48.1h7v7h-7V48.1z M425.6,55.3h7v7h-7V55.3z M425.6,62.6h7v7h-7V62.6z
	 M425.6,69.8h7v7h-7V69.8z M425.6,77.1h7v7h-7V77.1z M432.8,4.5h7v7h-7V4.5z M432.8,19h7v7h-7V19z M432.8,33.6h7v7h-7V33.6z
	 M432.8,40.8h7v7h-7V40.8z M432.8,48.1h7v7h-7V48.1z M432.8,55.3h7v7h-7V55.3z M432.8,62.6h7v7h-7V62.6z M432.8,69.8h7v7h-7V69.8z
	 M432.8,77.1h7v7h-7V77.1z M440.1,4.5h7v7h-7V4.5z M440.1,11.8h7v7h-7V11.8z M440.1,26.3h7v7h-7V26.3z M440.1,33.6h7v7h-7V33.6z
	 M440.1,40.8h7v7h-7V40.8z M440.1,48.1h7v7h-7V48.1z M440.1,55.3h7v7h-7V55.3z M440.1,62.6h7v7h-7V62.6z M440.1,69.8h7v7h-7V69.8z
	 M440.1,77.1h7v7h-7V77.1z M447.3,4.5h7v7h-7V4.5z M447.3,19h7v7h-7V19z M447.3,33.6h7v7h-7V33.6z M447.3,40.8h7v7h-7V40.8z
	 M447.3,48.1h7v7h-7V48.1z M447.3,55.3h7v7h-7V55.3z M447.3,62.6h7v7h-7V62.6z M447.3,69.8h7v7h-7V69.8z M447.3,77.1h7v7h-7V77.1z
	 M454.6,4.5h7v7h-7V4.5z M454.6,11.8h7v7h-7V11.8z M454.6,26.3h7v7h-7V26.3z M454.6,33.6h7v7h-7V33.6z M454.6,40.8h7v7h-7V40.8z
	 M454.6,48.1h7v7h-7V48.1z M454.6,55.3h7v7h-7V55.3z M454.6,62.6h7v7h-7V62.6z M454.6,69.8h7v7h-7V69.8z M454.6,77.1h7v7h-7V77.1z
	 M461.9,4.5h7v7h-7V4.5z M461.9,19h7v7h-7V19z M461.9,26.3h7v7h-7V26.3z M461.9,33.6h7v7h-7V33.6z M461.9,40.8h7v7h-7V40.8z
	 M461.9,48.1h7v7h-7V48.1z M461.9,55.3h7v7h-7V55.3z M461.9,62.6h7v7h-7V62.6z M461.9,69.8h7v7h-7V69.8z M461.9,77.1h7v7h-7V77.1z
	 M469.1,4.5h7v7h-7V4.5z M469.1,11.8h7v7h-7V11.8z M469.1,26.3h7v7h-7V26.3z M469.1,33.6h7v7h-7V33.6z M469.1,40.8h7v7h-7V40.8z
	 M469.1,48.1h7v7h-7V48.1z M469.1,55.3h7v7h-7V55.3z M469.1,62.6h7v7h-7V62.6z M469.1,69.8h7v7h-7V69.8z M469.1,77.1h7v7h-7V77.1z
	 M476.4,4.5h7v7h-7V4.5z M476.4,19h7v7h-7V19z M476.4,26.3h7v7h-7V26.3z M476.4,33.6h7v7h-7V33.6z M476.4,40.8h7v7h-7V40.8z
	 M476.4,48.1h7v7h-7V48.1z M476.4,55.3h7v7h-7V55.3z M476.4,62.6h7v7h-7V62.6z M476.4,69.8h7v7h-7V69.8z M476.4,77.1h7v7h-7V77.1z
	 M483.6,4.5h7v7h-7V4.5z M483.6,11.8h7v7h-7V11.8z M483.6,26.3h7v7h-7V26.3z M483.6,33.6h7v7h-7V33.6z M483.6,40.8h7v7h-7V40.8z
	 M483.6,48.1h7v7h-7V48.1z M483.6,55.3h7v7h-7V55.3z M483.6,62.6h7v7h-7V62.6z M483.6,69.8h7v7h-7V69.8z M483.6,77.1h7v7h-7V77.1z
	 M418.3,91.6h7v7h-7V91.6z M418.3,106.2h7v7h-7V106.2z M418.3,120.7h7v7h-7V120.7z M425.6,84.4h7v7h-7V84.4z M425.6,98.9h7v7h-7
	V98.9z M425.6,113.4h7v7h-7V113.4z M425.6,120.7h7v7h-7V120.7z M432.8,84.4h7v7h-7V84.4z M432.8,91.6h7v7h-7V91.6z M432.8,106.2h7v7
	h-7V106.2z M432.8,120.7h7v7h-7V120.7z M440.1,84.4h7v7h-7V84.4z M440.1,91.6h7v7h-7V91.6z M440.1,98.9h7v7h-7V98.9z M440.1,113.4h7
	v7h-7V113.4z M440.1,120.7h7v7h-7V120.7z M447.3,84.4h7v7h-7V84.4z M447.3,91.6h7v7h-7V91.6z M447.3,106.2h7v7h-7V106.2z
	 M447.3,120.7h7v7h-7V120.7z M454.6,84.4h7v7h-7V84.4z M454.6,91.6h7v7h-7V91.6z M454.6,98.9h7v7h-7V98.9z M454.6,113.4h7v7h-7
	V113.4z M454.6,120.7h7v7h-7V120.7z M461.9,84.4h7v7h-7V84.4z M461.9,91.6h7v7h-7V91.6z M461.9,98.9h7v7h-7V98.9z M461.9,106.2h7v7
	h-7V106.2z M469.2,113.4h7v7h-7V113.4z M461.9,120.7h7v7h-7V120.7z M469.1,84.4h7v7h-7V84.4z M469.1,91.6h7v7h-7V91.6z M469.1,98.9
	h7v7h-7V98.9z M469.1,120.7h7v7h-7V120.7z M476.4,84.4h7v7h-7V84.4z M476.4,91.6h7v7h-7V91.6z M476.4,98.9h7v7h-7V98.9z
	 M476.4,106.2h7v7h-7V106.2z M476.4,120.7h7v7h-7V120.7z M483.6,84.4h7v7h-7V84.4z M483.6,91.6h7v7h-7V91.6z M483.6,98.9h7v7h-7
	V98.9z M483.6,113.4h7v7h-7V113.4z M483.6,120.7h7v7h-7V120.7z M490.9,4.5h7v7h-7V4.5z M490.9,19h7v7h-7V19z M490.9,26.3h7v7h-7
	V26.3z M490.9,33.6h7v7h-7V33.6z M490.9,40.8h7v7h-7V40.8z M490.9,48.1h7v7h-7V48.1z M490.9,55.3h7v7h-7V55.3z M490.9,62.6h7v7h-7
	V62.6z M490.9,69.8h7v7h-7V69.8z M490.9,77.1h7v7h-7V77.1z M498.2,4.5h7v7h-7V4.5z M498.2,11.8h7v7h-7V11.8z M498.2,26.3h7v7h-7
	V26.3z M498.2,33.6h7v7h-7V33.6z M498.2,40.8h7v7h-7V40.8z M498.2,48.1h7v7h-7V48.1z M498.2,55.3h7v7h-7V55.3z M498.2,62.6h7v7h-7
	V62.6z M498.2,69.8h7v7h-7V69.8z M498.2,77.1h7v7h-7V77.1z M505.4,4.5h7v7h-7L505.4,4.5L505.4,4.5z M505.4,19h7v7h-7L505.4,19
	L505.4,19z M505.4,26.3h7v7h-7L505.4,26.3L505.4,26.3z M505.4,33.6h7v7h-7L505.4,33.6L505.4,33.6z M505.4,40.8h7v7h-7L505.4,40.8
	L505.4,40.8z M505.4,48.1h7v7h-7L505.4,48.1L505.4,48.1z M505.4,55.3h7v7h-7L505.4,55.3L505.4,55.3z M505.4,62.6h7v7h-7L505.4,62.6
	L505.4,62.6z M505.4,69.8h7v7h-7L505.4,69.8L505.4,69.8z M505.4,77.1h7v7h-7L505.4,77.1L505.4,77.1z M512.7,4.5h7v7h-7V4.5z
	 M512.7,11.8h7v7h-7V11.8z M512.7,19h7v7h-7V19z M512.7,26.3h7v7h-7V26.3z M512.7,33.6h7v7h-7V33.6z M512.7,40.8h7v7h-7V40.8z
	 M512.7,48.1h7v7h-7V48.1z M512.7,55.3h7v7h-7V55.3z M512.7,62.6h7v7h-7V62.6z M512.7,69.8h7v7h-7V69.8z M512.7,77.1h7v7h-7V77.1z
	 M519.9,4.5h7v7h-7V4.5z M519.9,19h7v7h-7V19z M519.9,26.3h7v7h-7V26.3z M519.9,33.6h7v7h-7V33.6z M519.9,40.8h7v7h-7V40.8z
	 M519.9,48.1h7v7h-7V48.1z M519.9,55.3h7v7h-7V55.3z M519.9,62.6h7v7h-7V62.6z M519.9,69.8h7v7h-7V69.8z M519.9,77.1h7v7h-7V77.1z
	 M527.2,4.5h7v7h-7V4.5z M527.2,11.8h7v7h-7V11.8z M527.2,19h7v7h-7V19z M527.2,26.3h7v7h-7V26.3z M527.2,33.6h7v7h-7V33.6z
	 M527.2,40.8h7v7h-7V40.8z M527.2,48.1h7v7h-7V48.1z M527.2,55.3h7v7h-7V55.3z M527.2,62.6h7v7h-7V62.6z M527.2,69.8h7v7h-7V69.8z
	 M527.2,77.1h7v7h-7V77.1z M534.5,4.5h7v7h-7V4.5z M534.5,11.8h7v7h-7V11.8z M534.5,19h7v7h-7V19z M534.5,26.3h7v7h-7V26.3z
	 M534.5,33.6h7v7h-7V33.6z M534.5,40.8h7v7h-7V40.8z M534.5,48.1h7v7h-7V48.1z M534.5,55.3h7v7h-7V55.3z M534.5,62.6h7v7h-7V62.6z
	 M534.5,69.8h7v7h-7V69.8z M534.5,77.1h7v7h-7V77.1z M541.7,4.5h7v7h-7V4.5z M541.7,11.8h7v7h-7V11.8z M541.7,19h7v7h-7V19z
	 M541.7,26.3h7v7h-7V26.3z M541.7,33.6h7v7h-7V33.6z M541.7,40.8h7v7h-7V40.8z M541.7,48.1h7v7h-7V48.1z M541.7,55.3h7v7h-7V55.3z
	 M541.7,62.6h7v7h-7V62.6z M541.7,69.8h7v7h-7V69.8z M541.7,77.1h7v7h-7V77.1z M549,4.5h7v7h-7V4.5z M549,11.8h7v7h-7V11.8z M549,19
	h7v7h-7V19z M549,26.3h7v7h-7V26.3z M549,33.6h7v7h-7V33.6z M549,40.8h7v7h-7V40.8z M549,48.1h7v7h-7V48.1z M549,55.3h7v7h-7V55.3z
	 M549,62.6h7v7h-7V62.6z M549,69.8h7v7h-7V69.8z M549,77.1h7v7h-7V77.1z M556.2,4.5h7v7h-7V4.5z M556.2,11.8h7v7h-7V11.8z M556.2,19
	h7v7h-7V19z M556.2,26.3h7v7h-7V26.3z M556.2,33.6h7v7h-7V33.6z M556.2,40.8h7v7h-7V40.8z M556.2,48.1h7v7h-7V48.1z M556.2,55.3h7v7
	h-7V55.3z M556.2,62.6h7v7h-7V62.6z M556.2,69.8h7v7h-7V69.8z M556.2,77.1h7v7h-7V77.1z M490.9,84.4h7v7h-7V84.4z M490.9,91.6h7v7
	h-7V91.6z M490.9,98.9h7v7h-7V98.9z M490.9,106.2h7v7h-7V106.2z M490.9,120.7h7v7h-7V120.7z M498.2,84.4h7v7h-7V84.4z M498.2,91.6h7
	v7h-7V91.6z M498.2,98.9h7v7h-7V98.9z M498.2,113.4h7v7h-7V113.4z M498.2,120.7h7v7h-7V120.7z M505.4,84.4h7v7h-7L505.4,84.4
	L505.4,84.4z M505.4,91.6h7v7h-7L505.4,91.6L505.4,91.6z M505.4,98.9h7v7h-7L505.4,98.9L505.4,98.9z M505.4,106.2h7v7h-7
	L505.4,106.2L505.4,106.2z M505.4,120.7h7v7h-7L505.4,120.7L505.4,120.7z M512.7,84.4h7v7h-7V84.4z M512.7,91.6h7v7h-7V91.6z
	 M512.7,98.9h7v7h-7V98.9z M512.7,106.2h7v7h-7V106.2z M512.7,113.4h7v7h-7V113.4z M512.7,120.7h7v7h-7V120.7z M519.9,84.4h7v7h-7
	V84.4z M519.9,91.6h7v7h-7V91.6z M519.9,98.9h7v7h-7V98.9z M519.9,106.2h7v7h-7V106.2z M519.9,120.7h7v7h-7V120.7z M527.2,84.4h7v7
	h-7V84.4z M527.2,91.6h7v7h-7V91.6z M527.2,98.9h7v7h-7V98.9z M527.2,106.2h7v7h-7V106.2z M527.2,113.4h7v7h-7V113.4z M527.2,120.7
	h7v7h-7V120.7z M534.5,84.4h7v7h-7V84.4z M534.5,91.6h7v7h-7V91.6z M534.5,98.9h7v7h-7V98.9z M534.5,106.2h7v7h-7V106.2z
	 M534.5,113.4h7v7h-7V113.4z M534.5,120.7h7v7h-7V120.7z M541.7,84.4h7v7h-7V84.4z M541.7,91.6h7v7h-7V91.6z M541.7,98.9h7v7h-7
	V98.9z M541.7,106.2h7v7h-7V106.2z M541.7,113.4h7v7h-7V113.4z M541.7,120.7h7v7h-7V120.7z M549,84.4h7v7h-7V84.4z M549,91.6h7v7h-7
	V91.6z M549,98.9h7v7h-7V98.9z M549,106.2h7v7h-7V106.2z M549,113.4h7v7h-7V113.4z M549,120.7h7v7h-7V120.7z M556.2,84.4h7v7h-7
	V84.4z M556.2,91.6h7v7h-7V91.6z M556.2,98.9h7v7h-7V98.9z M556.2,106.2h7v7h-7V106.2z M556.2,113.4h7v7h-7V113.4z M556.2,120.7h7v7
	h-7V120.7z M563.5,4.5h7v7h-7V4.5z M563.5,11.8h7v7h-7V11.8z M563.5,19h7v7h-7V19z M563.5,26.3h7v7h-7V26.3z M563.5,33.6h7v7h-7
	V33.6z M563.5,40.8h7v7h-7V40.8z M563.5,48.1h7v7h-7V48.1z M563.5,55.3h7v7h-7V55.3z M563.5,62.6h7v7h-7V62.6z M563.5,69.8h7v7h-7
	V69.8z M563.5,77.1h7v7h-7V77.1z M570.8,4.5h7v7h-7V4.5z M570.8,11.8h7v7h-7V11.8z M570.8,19h7v7h-7V19z M570.8,26.3h7v7h-7V26.3z
	 M570.8,33.6h7v7h-7V33.6z M570.8,40.8h7v7h-7V40.8z M570.8,48.1h7v7h-7V48.1z M570.8,55.3h7v7h-7V55.3z M570.8,62.6h7v7h-7V62.6z
	 M570.8,69.8h7v7h-7V69.8z M570.8,77.1h7v7h-7V77.1z M578,4.5h7v7h-7V4.5z M578,11.8h7v7h-7V11.8z M578,19h7v7h-7V19z M578,26.3h7v7
	h-7V26.3z M578,33.6h7v7h-7V33.6z M578,40.8h7v7h-7V40.8z M578,48.1h7v7h-7V48.1z M578,55.3h7v7h-7V55.3z M578,62.6h7v7h-7V62.6z
	 M578,69.8h7v7h-7V69.8z M578,77.1h7v7h-7V77.1z M585.3,4.5h7v7h-7V4.5z M585.3,11.8h7v7h-7V11.8z M585.3,19h7v7h-7V19z M585.3,26.3
	h7v7h-7V26.3z M585.3,33.6h7v7h-7V33.6z M585.3,40.8h7v7h-7V40.8z M585.3,48.1h7v7h-7V48.1z M585.3,55.3h7v7h-7V55.3z M585.3,62.6h7
	v7h-7V62.6z M585.3,69.8h7v7h-7V69.8z M585.3,77.1h7v7h-7V77.1z M592.5,4.5h7v7h-7V4.5z M592.5,11.8h7v7h-7V11.8z M592.5,19h7v7h-7
	V19z M592.5,26.3h7v7h-7V26.3z M592.5,33.6h7v7h-7V33.6z M592.5,40.8h7v7h-7V40.8z M592.5,48.1h7v7h-7V48.1z M592.5,55.3h7v7h-7
	V55.3z M592.5,62.6h7v7h-7V62.6z M592.5,69.8h7v7h-7V69.8z M592.5,77.1h7v7h-7V77.1z M599.8,4.5h7v7h-7V4.5z M599.8,11.8h7v7h-7
	V11.8z M599.8,19h7v7h-7V19z M599.8,26.3h7v7h-7V26.3z M599.8,33.6h7v7h-7V33.6z M599.8,40.8h7v7h-7V40.8z M599.8,48.1h7v7h-7V48.1z
	 M599.8,55.3h7v7h-7V55.3z M599.8,62.6h7v7h-7V62.6z M599.8,69.8h7v7h-7V69.8z M599.8,77.1h7v7h-7V77.1z M607.1,4.5h7v7h-7V4.5z
	 M607.1,19h7v7h-7V19z M607.1,26.3h7v7h-7V26.3z M607.1,33.6h7v7h-7V33.6z M607.1,40.8h7v7h-7V40.8z M607.1,48.1h7v7h-7V48.1z
	 M607.1,55.3h7v7h-7V55.3z M607.1,62.6h7v7h-7V62.6z M607.1,69.8h7v7h-7V69.8z M607.1,77.1h7v7h-7V77.1z M614.3,4.5h7v7h-7V4.5z
	 M614.3,11.8h7v7h-7V11.8z M614.3,19h7v7h-7V19z M614.3,26.3h7v7h-7V26.3z M614.3,33.6h7v7h-7V33.6z M614.3,40.8h7v7h-7V40.8z
	 M614.3,48.1h7v7h-7V48.1z M614.3,55.3h7v7h-7V55.3z M614.3,62.6h7v7h-7V62.6z M614.3,69.8h7v7h-7V69.8z M614.3,77.1h7v7h-7V77.1z
	 M621.6,4.5h7v7h-7V4.5z M621.6,19h7v7h-7V19z M621.6,26.3h7v7h-7V26.3z M621.6,33.6h7v7h-7V33.6z M621.6,40.8h7v7h-7V40.8z
	 M621.6,48.1h7v7h-7V48.1z M621.6,55.3h7v7h-7V55.3z M621.6,62.6h7v7h-7V62.6z M621.6,69.8h7v7h-7V69.8z M621.6,77.1h7v7h-7V77.1z
	 M628.8,4.5h7v7h-7V4.5z M628.8,11.8h7v7h-7V11.8z M628.8,19h7v7h-7V19z M628.8,26.3h7v7h-7V26.3z M628.8,33.6h7v7h-7V33.6z
	 M628.8,40.8h7v7h-7V40.8z M628.8,48.1h7v7h-7V48.1z M628.8,55.3h7v7h-7V55.3z M628.8,62.6h7v7h-7V62.6z M628.8,69.8h7v7h-7V69.8z
	 M628.8,77.1h7v7h-7V77.1z M563.5,84.4h7v7h-7V84.4z M563.5,91.6h7v7h-7V91.6z M563.5,98.9h7v7h-7V98.9z M563.5,106.2h7v7h-7V106.2z
	 M563.5,113.4h7v7h-7V113.4z M563.5,120.7h7v7h-7V120.7z M570.8,84.4h7v7h-7V84.4z M570.8,91.6h7v7h-7V91.6z M570.8,98.9h7v7h-7
	V98.9z M570.8,106.2h7v7h-7V106.2z M570.8,113.4h7v7h-7V113.4z M570.8,120.7h7v7h-7V120.7z M578,84.4h7v7h-7V84.4z M578,91.6h7v7h-7
	V91.6z M578,98.9h7v7h-7V98.9z M578,106.2h7v7h-7V106.2z M578,113.4h7v7h-7V113.4z M578,120.7h7v7h-7V120.7z M585.3,84.4h7v7h-7
	V84.4z M585.3,91.6h7v7h-7V91.6z M585.3,98.9h7v7h-7V98.9z M585.3,106.2h7v7h-7V106.2z M585.3,113.4h7v7h-7V113.4z M585.3,120.7h7v7
	h-7V120.7z M592.5,84.4h7v7h-7V84.4z M592.5,91.6h7v7h-7V91.6z M592.5,98.9h7v7h-7V98.9z M592.5,106.2h7v7h-7V106.2z M592.5,113.4h7
	v7h-7V113.4z M592.5,120.7h7v7h-7V120.7z M599.8,84.4h7v7h-7V84.4z M599.8,91.6h7v7h-7V91.6z M599.8,98.9h7v7h-7V98.9z M599.8,106.2
	h7v7h-7V106.2z M599.8,113.4h7v7h-7V113.4z M599.8,120.7h7v7h-7V120.7z M607.1,84.4h7v7h-7V84.4z M607.1,91.6h7v7h-7V91.6z
	 M607.1,98.9h7v7h-7V98.9z M607.1,106.2h7v7h-7V106.2z M607.1,120.7h7v7h-7V120.7z M614.3,84.4h7v7h-7V84.4z M614.3,91.6h7v7h-7
	V91.6z M614.3,98.9h7v7h-7V98.9z M614.3,106.2h7v7h-7V106.2z M614.3,113.4h7v7h-7V113.4z M614.3,120.7h7v7h-7V120.7z M621.6,84.4h7
	v7h-7V84.4z M621.6,91.6h7v7h-7V91.6z M621.6,98.9h7v7h-7V98.9z M621.6,106.2h7v7h-7V106.2z M621.6,120.7h7v7h-7V120.7z M628.8,84.4
	h7v7h-7V84.4z M628.8,91.6h7v7h-7V91.6z M628.8,98.9h7v7h-7V98.9z M628.8,106.2h7v7h-7V106.2z M628.8,113.4h7v7h-7V113.4z
	 M628.8,120.7h7v7h-7V120.7z M636.1,4.5h7v7h-7V4.5z M636.1,19h7v7h-7V19z M636.1,26.3h7v7h-7V26.3z M636.1,33.6h7v7h-7V33.6z
	 M636.1,40.8h7v7h-7V40.8z M636.1,48.1h7v7h-7V48.1z M636.1,55.3h7v7h-7V55.3z M636.1,62.6h7v7h-7V62.6z M636.1,69.8h7v7h-7V69.8z
	 M636.1,77.1h7v7h-7V77.1z M643.4,4.5h7v7h-7V4.5z M643.4,11.8h7v7h-7V11.8z M643.4,26.3h7v7h-7V26.3z M643.4,33.6h7v7h-7V33.6z
	 M643.4,40.8h7v7h-7V40.8z M643.4,48.1h7v7h-7V48.1z M643.4,55.3h7v7h-7V55.3z M643.4,62.6h7v7h-7V62.6z M643.4,69.8h7v7h-7V69.8z
	 M643.4,77.1h7v7h-7V77.1z M650.6,4.5h7v7h-7V4.5z M650.6,19h7v7h-7V19z M650.6,26.3h7v7h-7V26.3z M650.6,33.6h7v7h-7V33.6z
	 M650.6,40.8h7v7h-7V40.8z M650.6,48.1h7v7h-7V48.1z M650.6,55.3h7v7h-7V55.3z M650.6,62.6h7v7h-7V62.6z M650.6,69.8h7v7h-7V69.8z
	 M650.6,77.1h7v7h-7V77.1z M657.9,4.5h7v7h-7V4.5z M657.9,11.8h7v7h-7V11.8z M657.9,26.3h7v7h-7V26.3z M657.9,33.6h7v7h-7V33.6z
	 M657.9,40.8h7v7h-7V40.8z M657.9,48.1h7v7h-7V48.1z M657.9,55.3h7v7h-7V55.3z M657.9,62.6h7v7h-7V62.6z M657.9,69.8h7v7h-7V69.8z
	 M657.9,77.1h7v7h-7V77.1z M665.1,4.5h7v7h-7V4.5z M665.1,19h7v7h-7V19z M665.1,26.3h7v7h-7V26.3z M665.1,33.6h7v7h-7V33.6z
	 M665.1,40.8h7v7h-7V40.8z M665.1,48.1h7v7h-7V48.1z M665.1,55.3h7v7h-7V55.3z M665.1,62.6h7v7h-7V62.6z M665.1,69.8h7v7h-7V69.8z
	 M665.1,77.1h7v7h-7V77.1z M672.4,4.5h7v7h-7V4.5z M672.4,11.8h7v7h-7V11.8z M672.4,26.3h7v7h-7V26.3z M672.4,33.6h7v7h-7V33.6z
	 M672.4,40.8h7v7h-7V40.8z M672.4,48.1h7v7h-7V48.1z M672.4,55.3h7v7h-7V55.3z M672.4,62.6h7v7h-7V62.6z M672.4,69.8h7v7h-7V69.8z
	 M672.4,77.1h7v7h-7V77.1z M679.7,4.5h7v7h-7V4.5z M679.7,19h7v7h-7V19z M679.7,33.6h7v7h-7V33.6z M679.7,40.8h7v7h-7V40.8z
	 M679.7,48.1h7v7h-7V48.1z M679.7,55.3h7v7h-7V55.3z M679.7,62.6h7v7h-7V62.6z M679.7,69.8h7v7h-7V69.8z M679.7,77.1h7v7h-7V77.1z
	 M686.9,4.5h7v7h-7V4.5z M686.9,11.8h7v7h-7V11.8z M686.9,26.3h7v7h-7V26.3z M686.9,33.6h7v7h-7V33.6z M686.9,40.8h7v7h-7V40.8z
	 M686.9,48.1h7v7h-7V48.1z M686.9,55.3h7v7h-7V55.3z M686.9,62.6h7v7h-7V62.6z M686.9,69.8h7v7h-7V69.8z M686.9,77.1h7v7h-7V77.1z
	 M694.2,4.5h7v7h-7V4.5z M694.2,19h7v7h-7V19z M694.2,33.6h7v7h-7V33.6z M694.2,40.8h7v7h-7V40.8z M694.2,48.1h7v7h-7V48.1z
	 M694.2,55.3h7v7h-7V55.3z M694.2,62.6h7v7h-7V62.6z M694.2,69.8h7v7h-7V69.8z M694.2,77.1h7v7h-7V77.1z M701.4,4.5h7v7h-7V4.5z
	 M701.4,11.8h7v7h-7V11.8z M701.4,26.3h7v7h-7V26.3z M701.4,40.8h7v7h-7V40.8z M701.4,48.1h7v7h-7V48.1z M701.4,55.3h7v7h-7V55.3z
	 M701.4,62.6h7v7h-7V62.6z M701.4,69.8h7v7h-7V69.8z M701.4,77.1h7v7h-7V77.1z M636.1,84.4h7v7h-7V84.4z M636.1,91.6h7v7h-7V91.6z
	 M636.1,98.9h7v7h-7V98.9z M636.1,106.2h7v7h-7V106.2z M636.1,120.7h7v7h-7V120.7z M643.4,84.4h7v7h-7V84.4z M643.4,91.6h7v7h-7
	V91.6z M643.4,98.9h7v7h-7V98.9z M643.4,113.4h7v7h-7V113.4z M643.4,120.7h7v7h-7V120.7z M650.6,84.4h7v7h-7V84.4z M650.6,91.6h7v7
	h-7V91.6z M650.6,98.9h7v7h-7V98.9z M650.6,106.2h7v7h-7V106.2z M650.6,120.7h7v7h-7V120.7z M657.9,84.4h7v7h-7V84.4z M657.9,91.6h7
	v7h-7V91.6z M657.9,98.9h7v7h-7V98.9z M657.9,113.4h7v7h-7V113.4z M657.9,120.7h7v7h-7V120.7z M665.1,84.4h7v7h-7V84.4z M665.1,91.6
	h7v7h-7V91.6z M665.1,98.9h7v7h-7V98.9z M665.1,106.2h7v7h-7V106.2z M665.1,120.7h7v7h-7V120.7z M672.4,84.4h7v7h-7V84.4z
	 M672.4,91.6h7v7h-7V91.6z M672.4,98.9h7v7h-7V98.9z M672.4,113.4h7v7h-7V113.4z M672.4,120.7h7v7h-7V120.7z M679.7,84.4h7v7h-7
	V84.4z M679.7,91.6h7v7h-7V91.6z M679.7,106.2h7v7h-7V106.2z M679.7,120.7h7v7h-7V120.7z M686.9,84.4h7v7h-7V84.4z M686.9,91.6h7v7
	h-7V91.6z M686.9,98.9h7v7h-7V98.9z M686.9,113.4h7v7h-7V113.4z M686.9,120.7h7v7h-7V120.7z M694.2,84.4h7v7h-7V84.4z M694.2,91.6h7
	v7h-7V91.6z M694.2,106.2h7v7h-7V106.2z M694.2,120.7h7v7h-7V120.7z M701.4,84.4h7v7h-7V84.4z M701.4,98.9h7v7h-7V98.9z
	 M701.4,113.4h7v7h-7V113.4z M701.4,120.7h7v7h-7V120.7z M708.7,4.5h7v7h-7V4.5z M708.7,19h7v7h-7V19z M708.7,33.6h7v7h-7V33.6z
	 M708.7,48.1h7v7h-7V48.1z M708.7,62.6h7v7h-7V62.6z M708.7,77.1h7v7h-7V77.1z M716,4.5h7v7h-7V4.5z M716,11.8h7v7h-7V11.8z
	 M716,26.3h7v7h-7V26.3z M716,40.8h7v7h-7V40.8z M716,55.3h7v7h-7V55.3z M716,69.8h7v7h-7V69.8z M708.7,91.6h7v7h-7V91.6z
	 M708.7,106.2h7v7h-7V106.2z M708.7,120.7h7v7h-7V120.7z M716,84.4h7v7h-7V84.4z M716,98.9h7v7h-7V98.9z M716,113.4h7v7h-7V113.4z
	 M716,120.7h7v7h-7V120.7z M723.3,4.5h7v7h-7V4.5z M723.3,19h7v7h-7V19z M723.3,33.6h7v7h-7V33.6z M723.3,48.1h7v7h-7V48.1z
	 M723.3,62.6h7v7h-7V62.6z M723.3,77.1h7v7h-7V77.1z M723.3,91.6h7v7h-7V91.6z M723.3,106.2h7v7h-7V106.2z M723.3,120.7h7v7h-7
	V120.7z M730.6,4.5h7v7h-7V4.5z M730.6,11.8h7v7h-7V11.8z M730.6,19h7v7h-7V19z M730.6,26.3h7v7h-7V26.3z M730.6,33.6h7v7h-7V33.6z
	 M730.6,40.8h7v7h-7V40.8z M730.6,48.1h7v7h-7V48.1z M730.6,55.3h7v7h-7V55.3z M730.6,62.6h7v7h-7V62.6z M730.6,69.8h7v7h-7V69.8z
	 M730.6,77.1h7v7h-7V77.1z M737.9,19h7v7h-7V19z M737.9,26.3h7v7h-7V26.3z M737.9,55.3h7v7h-7V55.3z M737.9,62.6h7v7h-7V62.6z
	 M737.9,69.8h7v7h-7V69.8z M730.6,84.4h7v7h-7V84.4z M730.6,91.6h7v7h-7V91.6z M730.6,98.9h7v7h-7V98.9z M730.6,106.2h7v7h-7V106.2z
	 M730.6,113.4h7v7h-7V113.4z M730.6,120.7h7v7h-7V120.7z M737.9,98.9h7v7h-7V98.9z M737.9,106.2h7v7h-7V106.2z"/>
</svg>
