<?xml version="1.0" encoding="utf-8"?>
<!-- Generator: Adobe Illustrator 27.3.1, SVG Export Plug-In . SVG Version: 6.00 Build 0)  -->
<svg version="1.1" xmlns="http://www.w3.org/2000/svg" xmlns:xlink="http://www.w3.org/1999/xlink" x="0px" y="0px"
	 viewBox="0 0 667.7 181.2" style="enable-background:new 0 0 667.7 181.2;" xml:space="preserve">
<style type="text/css">
	.st0{fill:#FBE6B0;}
	.st1{fill:#1E0E01;}
</style>
<g id="Слой_2">
	<path class="st0" d="M672.9,108.8c0,2.8-2.2,5-5,5h-7c0,0-0.1,0-0.1,0c-0.1,0-0.1,0-0.2,0h-7c-0.9,0-1.8-0.2-2.5-0.7v2.9
		c0,0.1,0,0.1,0,0.1c0,0,0,0.1,0,0.1v7c0,0.1,0,0.1,0,0.2c0,0,0,0.1,0,0.1v7c0,0,0,0.1,0,0.1c0,0,0,0.1,0,0.1v7c0,0.1,0,0.1,0,0.2
		c0,0,0,0.1,0,0.1v7c0,0,0,0.1,0,0.1c0,0.1,0,0.1,0,0.2v7c0,0,0,0.1,0,0.1c0,0,0,0.1,0,0.1v7c0,0.1,0,0.1,0,0.1c0,0,0,0.1,0,0.1v7
		c0,0,0,0.1,0,0.1c0,0,0,0.1,0,0.1v7c0,2.8-2.2,5-5,5h-2.3v2.3c0,2.8-2.2,5-5,5h-7c-0.1,0-0.1,0-0.2,0h-7c-0.1,0-0.1,0-0.2,0
		c0,0-0.1,0-0.2,0h-7c-0.1,0-0.1,0-0.2,0h-7c-0.1,0-0.1,0-0.2,0c0,0-0.1,0-0.2,0h-7c0,0-0.1,0-0.2,0c0,0-0.1,0-0.1,0h-7
		c-0.1,0-0.1,0-0.2,0h-7c-1.5,0-2.8-0.7-3.8-1.7c-0.9,1-2.3,1.7-3.8,1.7h-7c0,0-0.1,0-0.2,0c0,0-0.1,0-0.1,0h-7c0,0-0.1,0-0.2,0
		c0,0-0.1,0-0.1,0h-7c-0.1,0-0.1,0-0.2,0h-7c0,0-0.1,0-0.2,0c0,0-0.1,0-0.1,0h-7c-0.1,0-0.1,0-0.2,0h-7c0,0-0.1,0-0.2,0
		c0,0-0.1,0-0.1,0h-7c-1.5,0-2.8-0.7-3.8-1.7c-0.9,1-2.3,1.7-3.8,1.7h-7c0,0-0.1,0-0.2,0c0,0-0.1,0-0.1,0h-7c-0.1,0-0.1,0-0.2,0h-7
		c0,0-0.1,0-0.2,0c0,0-0.1,0-0.1,0h-7c-0.1,0-0.1,0-0.2,0c0,0-0.1,0-0.2,0h-7c-0.1,0-0.1,0-0.2,0h-7c-0.1,0-0.1,0-0.2,0
		c0,0-0.1,0-0.2,0h-7c-2.8,0-5-2.2-5-5v-2.3h-2.2c-0.1,0-0.1,0-0.2,0c0,0-0.1,0-0.2,0h-7c0,0-0.1,0-0.2,0c0,0-0.1,0-0.1,0h-7
		c-0.1,0-0.1,0-0.2,0h-7c0,0-0.1,0-0.2,0c0,0-0.1,0-0.1,0h-2.2v2.3c0,2.8-2.2,5-5,5h-7c0,0-0.1,0-0.2,0c0,0-0.1,0-0.1,0h-7
		c0,0-0.1,0-0.2,0c0,0-0.1,0-0.1,0h-7c-2.8,0-5-2.2-5-5v-2.3h-2.2c0,0-0.1,0-0.2,0c0,0-0.1,0-0.1,0h-7c-0.1,0-0.1,0-0.2,0h-7
		c0,0-0.1,0-0.2,0c0,0-0.1,0-0.1,0h-7c0,0-0.1,0-0.2,0c0,0-0.1,0-0.1,0h-7c-0.1,0-0.1,0-0.2,0h-7c0,0-0.1,0-0.2,0c0,0-0.1,0-0.1,0
		h-7c-0.1,0-0.1,0-0.2,0h-7c0,0-0.1,0-0.2,0c0,0-0.1,0-0.1,0h-7c0,0-0.1,0-0.2,0c0,0-0.1,0-0.1,0h-7c-0.1,0-0.1,0-0.2,0h-7
		c-0.1,0-0.1,0-0.2,0c0,0-0.1,0-0.1,0h-7c-0.1,0-0.1,0-0.2,0h-7c-0.1,0-0.1,0-0.2,0c0,0-0.1,0-0.1,0h-7c-0.1,0-0.1,0-0.1,0
		c0,0-0.1,0-0.1,0h-7c-0.1,0-0.1,0-0.2,0h-7c-0.1,0-0.1,0-0.1,0c0,0-0.1,0-0.1,0h-7c-0.1,0-0.1,0-0.2,0h-7c-0.1,0-0.1,0-0.1,0
		c0,0-0.1,0-0.1,0h-7c-0.1,0-0.1,0-0.1,0c0,0-0.1,0-0.1,0h-7c-0.1,0-0.1,0-0.2,0h-7c-0.1,0-0.1,0-0.1,0c0,0-0.1,0-0.1,0h-7
		c-0.1,0-0.1,0-0.2,0h-7c-0.1,0-0.1,0-0.1,0c0,0-0.1,0-0.1,0h-7c-0.1,0-0.1,0-0.2,0c0,0-0.1,0-0.1,0h-7c-0.1,0-0.1,0-0.2,0h-7
		c-0.1,0-0.1,0-0.2,0c0,0-0.1,0-0.1,0h-7c-0.1,0-0.1,0-0.2,0h-7c-0.1,0-0.1,0-0.2,0c0,0-0.1,0-0.1,0h-7c-0.1,0-0.1,0-0.1,0
		c0,0-0.1,0-0.1,0h-7c-0.1,0-0.1,0-0.2,0h-7c-0.1,0-0.1,0-0.1,0c0,0-0.1,0-0.1,0h-7c-0.1,0-0.1,0-0.2,0h-7c-0.1,0-0.1,0-0.1,0
		c0,0-0.1,0-0.1,0h-7c-0.1,0-0.1,0-0.2,0c0,0-0.1,0-0.1,0h-7c-0.1,0-0.1,0-0.2,0h-2.3v2.3c0,0,0,0.1,0,0.1c0,0,0,0.1,0,0.1v7
		c0,2.8-2.2,5-5,5h-7c-2.8,0-5-2.2-5-5v-2.2h-2.2c-0.1,0-0.1,0-0.2,0c0,0-0.1,0-0.1,0h-2.3v2.2c0,2.8-2.2,5-5,5h-7c-2.8,0-5-2.2-5-5
		v-7c0,0,0-0.1,0-0.1c0,0,0-0.1,0-0.1v-2.3h-2.2c-0.1,0-0.1,0-0.1,0c0,0-0.1,0-0.1,0h-7c-0.1,0-0.1,0-0.2,0h-7c-0.1,0-0.1,0-0.1,0
		c0,0-0.1,0-0.1,0h-7c-0.1,0-0.1,0-0.1,0c0,0-0.1,0-0.1,0h-7c-0.1,0-0.1,0-0.2,0h-7c-0.1,0-0.1,0-0.1,0c0,0-0.1,0-0.1,0h-2.2v2.3
		c0,2.8-2.2,5-5,5h-7c-2.8,0-5-2.2-5-5v-2.3h-2.3c-2.8,0-5-2.2-5-5v-2.2h-2.3c-2.8,0-5-2.2-5-5v-7c0-0.1,0-0.1,0-0.1
		c0,0,0-0.1,0-0.1v-7c0-2.8,2.2-5,5-5h7c0.1,0,0.1,0,0.1,0c0.1,0,0.1,0,0.2,0h2.3v-2.2c0-0.1,0-0.1,0-0.1c0,0,0-0.1,0-0.1v-2.3h-2.3
		c-0.1,0-0.1,0-0.2,0c0,0-0.1,0-0.1,0h-7c-0.1,0-0.1,0-0.2,0h-7c-0.1,0-0.1,0-0.2,0c0,0-0.1,0-0.1,0h-7c-0.1,0-0.1,0-0.2,0h-7
		c-2.8,0-5-2.2-5-5v-2.2h-2.3c-2.8,0-5-2.2-5-5v-7c0-1.5,0.7-2.9,1.8-3.8c-1.1-0.9-1.8-2.3-1.8-3.8v-2.9c-0.7,0.4-1.6,0.7-2.5,0.7
		h-7c-0.1,0-0.1,0-0.1,0c0,0-0.1,0-0.1,0h-7c-2.8,0-5-2.2-5-5v-7c0-0.1,0-0.1,0-0.1c0,0,0-0.1,0-0.1v-7c0,0,0-0.1,0-0.1
		c0,0,0-0.1,0-0.1v-7c0-0.1,0-0.1,0-0.2c0,0,0-0.1,0-0.2v-7c0,0,0-0.1,0-0.1c0,0,0-0.1,0-0.1v-7c0-0.1,0-0.1,0-0.2c0,0,0-0.1,0-0.2
		v-7c0-2.8,2.2-5,5-5h2.3v-2.3c0-1.5,0.7-2.8,1.7-3.8c-1-0.9-1.7-2.3-1.7-3.8v-2.3H0.1c-2.8,0-5-2.2-5-5v-7c0,0,0-0.1,0-0.1
		c0,0,0-0.1,0-0.1v-7c0,0,0-0.1,0-0.2c0,0,0-0.1,0-0.1v-7c0,0,0-0.1,0-0.1c0,0,0-0.1,0-0.1v-7c0-2.8,2.2-5,5-5h2.3V7.4
		c0-2.8,2.2-5,5-5h7c2.8,0,5,2.2,5,5v7c0,0,0,0.1,0,0.1c0,0.1,0,0.1,0,0.2v2.2h2.2c0.1,0,0.2,0,0.3,0h7c0.1,0,0.2,0,0.3,0h7
		c0.1,0,0.1,0,0.2,0h7c1.5,0,2.9,0.7,3.8,1.7c0.1-0.2,0.3-0.3,0.4-0.4c-1.1-0.9-1.7-2.3-1.7-3.8v-7c0-2.8,2.2-5,5-5h7
		c0.1,0,0.2,0,0.3,0h2.3V0.2c0-2.8,2.2-5,5-5h7c0.1,0,0.1,0,0.2,0h7c0.1,0,0.2,0,0.3,0h7c2.8,0,5,2.2,5,5v2.2h2.2c0.1,0,0.2,0,0.3,0
		h7c0.1,0,0.2,0,0.3,0h7c2.8,0,5,2.2,5,5v2.3h2.2c0.1,0,0.2,0,0.3,0h7c0.1,0,0.1,0,0.2,0h7c0.1,0,0.2,0,0.3,0h7c0.1,0,0.2,0,0.3,0h7
		c0.1,0,0.1,0,0.2,0h2.3V7.4c0-2.8,2.2-5,5-5h7c0.1,0,0.1,0,0.2,0h7c0.1,0,0.2,0,0.3,0h2.3V0.2c0-2.8,2.2-5,5-5h7c0.1,0,0.1,0,0.2,0
		h7c0.1,0,0.2,0,0.3,0h7c2.8,0,5,2.2,5,5v2.2h2.2c2.8,0,5,2.2,5,5v7c0,0,0,0.1,0,0.1c0,0.1,0,0.1,0,0.2v2.2h2.3
		c1.5,0,2.8,0.7,3.8,1.7c0.9-1,2.3-1.7,3.8-1.7h2.3v-2.2c0-2.8,2.2-5,5-5h7c0.1,0,0.1,0,0.2,0h7c1,0,1.8,0.3,2.6,0.7v-3
		c0-2.8,2.2-5,5-5h7c0.1,0,0.1,0,0.2,0h7c0.1,0,0.2,0,0.3,0h7c0.1,0,0.1,0,0.2,0h7c0.1,0,0.2,0,0.3,0h7c0.1,0,0.2,0,0.3,0h7
		c0.1,0,0.1,0,0.2,0h7c0.1,0,0.2,0,0.3,0h7c0.1,0,0.1,0,0.2,0h7c0.1,0,0.2,0,0.3,0h7c0.1,0,0.2,0,0.3,0h7c0.1,0,0.1,0,0.2,0h7
		c0.1,0,0.2,0,0.3,0h7c0.1,0,0.1,0,0.2,0h7c0.1,0,0.2,0,0.3,0h7c0.1,0,0.2,0,0.3,0h7c0.1,0,0.1,0,0.2,0h7c0.1,0,0.2,0,0.3,0h7
		c0.1,0,0.1,0,0.2,0h7c0.1,0,0.2,0,0.3,0h7c0.1,0,0.2,0,0.3,0h7c0.1,0,0.1,0,0.2,0h7c0.1,0,0.2,0,0.3,0h7c0.1,0,0.1,0,0.2,0h7
		c2.8,0,5,2.2,5,5v3c0.8-0.5,1.6-0.7,2.6-0.7h7c0.1,0,0.1,0,0.2,0h7c2.8,0,5,2.2,5,5v2.2h2.3c2.8,0,5,2.2,5,5v3
		c0.7-0.4,1.6-0.7,2.5-0.7h2.3v-2.3c0,0,0-0.1,0-0.1c0,0,0-0.1,0-0.1v-7c0-2.8,2.2-5,5-5h2.2V7.4c0-2.8,2.2-5,5-5h2.3V0.2
		c0-2.8,2.2-5,5-5h7c0.1,0,0.1,0,0.2,0h7c0.1,0,0.2,0,0.3,0h7c2.8,0,5,2.2,5,5v2.2h2.3c0.1,0,0.1,0,0.2,0h7c0.1,0,0.2,0,0.3,0h7
		c2.8,0,5,2.2,5,5v2.3h2.2c0.1,0,0.2,0,0.3,0h7c0.1,0,0.2,0,0.3,0h7c0.1,0,0.1,0,0.2,0h7c0.1,0,0.2,0,0.3,0h2.2V7.4c0-2.8,2.2-5,5-5
		h7c0.1,0,0.2,0,0.3,0h7c0.1,0,0.2,0,0.3,0h2.2V0.2c0-2.8,2.2-5,5-5h7c0.1,0,0.2,0,0.3,0h7c0.1,0,0.1,0,0.2,0h7c2.8,0,5,2.2,5,5v2.2
		h2.3c2.8,0,5,2.2,5,5v2.3h2.3c2.8,0,5,2.2,5,5v7c0,0,0,0.1,0,0.1c0,0,0,0.1,0,0.1v2.3h2.2c0.1,0,0.2,0,0.3,0h2.2v-2.3
		c0,0,0-0.1,0-0.1c0,0,0-0.1,0-0.1v-7c0-2.8,2.2-5,5-5h7c0.1,0,0.2,0,0.3,0h7c0.1,0,0.2,0,0.3,0h7c0.1,0,0.1,0,0.2,0h7
		c2.8,0,5,2.2,5,5v7c0,0,0,0.1,0,0.1c0,0,0,0.1,0,0.1v2.3h2.3c2.8,0,5,2.2,5,5v7c0,0,0,0.1,0,0.1c0,0,0,0.1,0,0.1v7c0,2.8-2.2,5-5,5
		h-2.3v2.3c0,0,0,0.1,0,0.1c0,0.1,0,0.1,0,0.2v2.2h2.3c2.8,0,5,2.2,5,5v7c0,0,0,0.1,0,0.1c0,0.1,0,0.1,0,0.2v7c0,0.1,0,0.1,0,0.2
		c0,0,0,0.1,0,0.2v7c0,0,0,0.1,0,0.1c0,0,0,0.1,0,0.1v7c0,0.1,0,0.1,0,0.2c0,0,0,0.1,0,0.2v7c0,0,0,0.1,0,0.1c0,0,0,0.1,0,0.1v7
		c0,0.1,0,0.1,0,0.1c0,0,0,0.1,0,0.1V108.8z"/>
</g>
<g id="Слой_1">
	<path class="st1" d="M50.9,159.9h7v7h-7V159.9z M50.9,152.6h7v7h-7V152.6z M0.1,101.8h7v7h-7V101.8z M0.1,94.5h7v7h-7V94.5z
		 M0.1,87.3h7v7h-7V87.3z M0.1,80h7v7h-7V80z M0.1,72.8h7v7h-7V72.8z M0.1,65.5h7v7h-7V65.5z M7.4,101.8h7v7h-7V101.8z M7.4,87.3h7
		v7h-7V87.3z M7.4,72.8h7v7h-7V72.8z M21.9,123.6h7v7h-7V123.6z M21.9,109h7v7h-7V109z M21.9,101.8h7v7h-7V101.8z M21.9,94.5h7v7h-7
		V94.5z M21.9,80h7v7h-7V80z M21.9,72.8h7v7h-7V72.8z M21.9,65.5h7v7h-7V65.5z M29.2,130.8h7v7h-7V130.8z M29.2,123.6h7v7h-7V123.6z
		 M29.2,116.3h7v7h-7V116.3z M29.2,109h7v7h-7V109z M29.2,101.8h7v7h-7V101.8z M29.2,94.5h7v7h-7V94.5z M29.2,87.3h7v7h-7V87.3z
		 M29.2,80h7v7h-7V80z M29.2,72.8h7v7h-7V72.8z M29.2,65.5h7v7h-7V65.5z M36.4,130.8h7v7h-7V130.8z M36.4,123.6h7v7h-7V123.6z
		 M36.4,109h7v7h-7V109z M36.4,101.8h7v7h-7V101.8z M36.4,94.5h7v7h-7V94.5z M36.4,80h7v7h-7V80z M36.4,65.5h7v7h-7V65.5z
		 M43.7,130.8h7v7h-7V130.8z M43.7,123.6h7v7h-7V123.6z M43.7,116.3h7v7h-7V116.3z M43.7,109h7v7h-7V109z M43.7,101.8h7v7h-7V101.8z
		 M43.7,94.5h7v7h-7V94.5z M43.7,87.3h7v7h-7V87.3z M43.7,80h7v7h-7V80z M43.7,72.8h7v7h-7V72.8z M43.7,65.5h7v7h-7V65.5z
		 M50.9,130.8h7v7h-7V130.8z M50.9,123.6h7v7h-7V123.6z M50.9,109h7v7h-7V109z M50.9,101.8h7v7h-7V101.8z M50.9,94.5h7v7h-7V94.5z
		 M50.9,80h7v7h-7V80z M50.9,72.8h7v7h-7V72.8z M50.9,65.5h7v7h-7V65.5z M0.1,36.4h7v7h-7V36.4z M0.1,29.2h7v7h-7V29.2z M0.1,21.9h7
		v7h-7V21.9z M0.1,14.7h7v7h-7V14.7z M7.4,58.2h7v7h-7V58.2z M7.4,43.7h7v7h-7V43.7z M7.4,36.4h7v7h-7V36.4z M7.4,29.2h7v7h-7V29.2z
		 M7.4,14.7h7v7h-7V14.7z M7.4,7.4h7v7h-7V7.4z M14.6,58.2h7v7h-7V58.2z M14.6,51h7v7h-7V51z M14.6,43.7h7v7h-7V43.7z M14.6,36.4h7
		v7h-7V36.4z M14.6,29.2h7v7h-7V29.2z M14.6,21.9h7v7h-7V21.9z M21.9,58.2h7v7h-7V58.2z M21.9,51h7v7h-7V51z M21.9,43.7h7v7h-7V43.7
		z M21.9,36.4h7v7h-7V36.4z M21.9,29.2h7v7h-7V29.2z M21.9,21.9h7v7h-7V21.9z M29.2,58.2h7v7h-7V58.2z M29.2,51h7v7h-7V51z
		 M29.2,43.7h7v7h-7V43.7z M29.2,36.4h7v7h-7V36.4z M29.2,29.2h7v7h-7V29.2z M29.2,21.9h7v7h-7V21.9z M36.4,51h7v7h-7V51z
		 M36.4,43.7h7v7h-7V43.7z M36.4,36.4h7v7h-7V36.4z M36.4,29.2h7v7h-7V29.2z M36.4,21.9h7v7h-7V21.9z M43.7,58.2h7v7h-7V58.2z
		 M43.7,51h7v7h-7V51z M43.7,43.7h7v7h-7V43.7z M43.7,36.4h7v7h-7V36.4z M50.9,51h7v7h-7V51z M50.9,36.4h7v7h-7V36.4z M50.9,29.2h7
		v7h-7V29.2z M51,21.9h7v7h-7V21.9z M50.9,7.4h7v7h-7V7.4z M58.2,167.1h7v7h-7V167.1z M58.2,159.9h7v7h-7V159.9z M58.2,152.6h7v7h-7
		V152.6z M65.5,174.4h7v7h-7V174.4z M65.5,167.1h7v7h-7V167.1z M65.5,159.9h7v7h-7V159.9z M65.5,152.6h7v7h-7V152.6z M65.5,145.4h7
		v7h-7V145.4z M65.5,138.1h7v7h-7V138.1z M72.7,167.1h7v7h-7V167.1z M72.7,159.9h7v7h-7V159.9z M72.7,152.6h7v7h-7V152.6z
		 M72.7,145.4h7v7h-7V145.4z M80,167.1h7v7h-7V167.1z M80,159.9h7v7h-7V159.9z M80,152.6h7v7h-7V152.6z M80,138.1h7v7h-7V138.1z
		 M87.2,167.1h7v7h-7V167.1z M87.2,159.9h7v7h-7V159.9z M87.2,152.6h7v7h-7V152.6z M87.2,145.4h7v7h-7V145.4z M87.2,138.1h7v7h-7
		V138.1z M94.5,167.1h7v7h-7V167.1z M94.5,159.9h7v7h-7V159.9z M94.5,152.6h7v7h-7V152.6z M94.5,145.4h7v7h-7V145.4z M101.8,167.1h7
		v7h-7V167.1z M101.8,159.9h7v7h-7V159.9z M101.8,152.6h7v7h-7V152.6z M101.8,138.1h7v7h-7V138.1z M109,167.1h7v7h-7V167.1z
		 M109,159.9h7v7h-7V159.9z M109,152.6h7v7h-7V152.6z M109,145.4h7v7h-7V145.4z M116.3,167.1h7v7h-7V167.1z M116.3,159.9h7v7h-7
		V159.9z M116.3,152.6h7v7h-7V152.6z M116.3,138.1h7v7h-7V138.1z M123.5,174.4h7v7h-7V174.4z M123.5,167.1h7v7h-7V167.1z
		 M123.5,159.9h7v7h-7V159.9z M123.5,152.6h7v7h-7V152.6z M123.5,145.4h7v7h-7V145.4z M58.2,130.8h7v7h-7V130.8z M58.2,123.6h7v7h-7
		V123.6z M58.2,116.3h7v7h-7V116.3z M58.2,109h7v7h-7V109z M58.2,101.8h7v7h-7V101.8z M58.2,94.5h7v7h-7V94.5z M58.2,87.3h7v7h-7
		V87.3z M58.2,80h7v7h-7V80z M58.2,72.8h7v7h-7V72.8z M58.2,65.5h7v7h-7V65.5z M65.5,130.8h7v7h-7V130.8z M65.5,123.6h7v7h-7V123.6z
		 M65.5,109h7v7h-7V109z M65.5,101.8h7v7h-7V101.8z M65.5,94.5h7v7h-7V94.5z M65.5,80h7v7h-7V80z M65.5,72.8h7v7h-7V72.8z
		 M65.5,65.5h7v7h-7V65.5z M72.7,130.8h7v7h-7V130.8z M72.7,116.3h7v7h-7V116.3z M72.7,109h7v7h-7V109z M72.7,101.8h7v7h-7V101.8z
		 M72.7,94.5h7v7h-7V94.5z M72.7,87.3h7v7h-7V87.3z M72.7,80h7v7h-7V80z M72.7,72.8h7v7h-7V72.8z M72.7,65.5h7v7h-7V65.5z M80,123.6
		h7v7h-7V123.6z M80,116.3h7v7h-7V116.3z M80,109h7v7h-7V109z M80,101.8h7v7h-7V101.8z M80,94.5h7v7h-7V94.5z M80,80h7v7h-7V80z
		 M80,72.8h7v7h-7V72.8z M80,65.5h7v7h-7V65.5z M87.2,130.8h7v7h-7V130.8z M87.2,123.6h7v7h-7V123.6z M87.2,116.3h7v7h-7V116.3z
		 M87.2,109h7v7h-7V109z M87.2,101.8h7v7h-7V101.8z M87.2,94.5h7v7h-7V94.5z M87.2,87.3h7v7h-7V87.3z M87.2,80h7v7h-7V80z
		 M87.2,72.8h7v7h-7V72.8z M87.2,65.5h7v7h-7V65.5z M94.5,130.8h7v7h-7V130.8z M94.5,116.3h7v7h-7V116.3z M94.5,109h7v7h-7V109z
		 M94.5,101.8h7v7h-7V101.8z M94.5,94.5h7v7h-7V94.5z M94.5,80h7v7h-7V80z M94.5,72.8h7v7h-7V72.8z M94.5,65.5h7v7h-7V65.5z
		 M101.8,123.6h7v7h-7V123.6z M101.8,116.3h7v7h-7V116.3z M101.8,109h7v7h-7V109z M101.8,101.8h7v7h-7V101.8z M101.8,94.5h7v7h-7
		V94.5z M101.8,87.3h7v7h-7V87.3z M101.8,80h7v7h-7V80z M101.8,72.8h7v7h-7V72.8z M101.8,65.5h7v7h-7V65.5z M109,130.8h7v7h-7V130.8
		z M109,116.3h7v7h-7V116.3z M109,109h7v7h-7V109z M109,101.8h7v7h-7V101.8z M109,94.5h7v7h-7V94.5z M109,80h7v7h-7V80z M109,72.8h7
		v7h-7V72.8z M109,65.5h7v7h-7V65.5z M116.3,123.6h7v7h-7V123.6z M116.3,116.3h7v7h-7V116.3z M116.3,109h7v7h-7V109z M116.3,101.8h7
		v7h-7V101.8z M116.3,94.5h7v7h-7V94.5z M116.3,87.3h7v7h-7V87.3z M116.3,80h7v7h-7V80z M116.3,72.8h7v7h-7V72.8z M116.3,65.5h7v7
		h-7V65.5z M123.5,130.8h7v7h-7V130.8z M123.5,123.6h7v7h-7V123.6z M123.5,116.3h7v7h-7V116.3z M123.5,109h7v7h-7V109z M123.5,101.8
		h7v7h-7V101.8z M123.5,94.5h7v7h-7V94.5z M123.5,80h7v7h-7V80z M123.5,65.5h7v7h-7V65.5z M58.2,58.2h7v7h-7V58.2z M58.2,51h7v7h-7
		V51z M58.2,36.4h7v7h-7V36.4z M58.2,21.9h7v7h-7V21.9z M58.2,14.7h7v7h-7V14.7z M58.2,7.4h7v7h-7V7.4z M65.5,51h7v7h-7V51z
		 M65.5,43.7h7v7h-7V43.7z M65.5,29.2h7v7h-7V29.2z M65.5,21.9h7v7h-7V21.9z M65.5,14.7h7v7h-7V14.7z M65.5,7.4h7v7h-7V7.4z
		 M72.7,58.2h7v7h-7V58.2z M72.7,51h7v7h-7V51z M72.7,43.7h7v7h-7V43.7z M72.7,29.2h7v7h-7V29.2z M72.7,21.9h7v7h-7V21.9z M72.7,7.4
		h7v7h-7V7.4z M80,51h7v7h-7V51z M80,43.7h7v7h-7V43.7z M80,36.4h7v7h-7V36.4z M80,29.2h7v7h-7V29.2z M80,21.9h7v7h-7V21.9z
		 M80,14.7h7v7h-7V14.7z M80,7.4h7v7h-7V7.4z M87.2,58.2h7v7h-7V58.2z M87.2,51h7v7h-7V51z M87.2,43.7h7v7h-7V43.7z M87.2,36.4h7v7
		h-7V36.4z M87.2,21.9h7v7h-7V21.9z M87.2,14.7h7v7h-7V14.7z M87.2,7.4h7v7h-7V7.4z M94.5,51h7v7h-7V51z M94.5,43.7h7v7h-7V43.7z
		 M94.5,36.4h7v7h-7V36.4z M94.5,29.2h7v7h-7V29.2z M94.5,21.9h7v7h-7V21.9z M94.5,7.4h7v7h-7V7.4z M101.8,58.2h7v7h-7V58.2z
		 M101.8,51h7v7h-7V51z M101.8,43.7h7v7h-7V43.7z M101.8,36.4h7v7h-7V36.4z M101.8,29.2h7v7h-7V29.2z M101.8,7.4h7v7h-7V7.4z
		 M109,51h7v7h-7V51z M109,43.7h7v7h-7V43.7z M109,36.4h7v7h-7V36.4z M109,29.2h7v7h-7V29.2z M109,21.9h7v7h-7V21.9z M109,14.7h7v7
		h-7V14.7z M116.3,58.2h7v7h-7V58.2z M116.3,51h7v7h-7V51z M116.3,43.7h7v7h-7V43.7z M116.3,36.4h7v7h-7V36.4z M116.3,29.2h7v7h-7
		V29.2z M116.3,21.9h7v7h-7V21.9z M116.3,14.7h7v7h-7V14.7z M123.5,51h7v7h-7V51z M123.5,43.7h7v7h-7V43.7z M123.5,36.4h7v7h-7V36.4
		z M123.5,29.2h7v7h-7V29.2z M123.5,21.9h7v7h-7V21.9z M123.5,14.7h7v7h-7V14.7z M130.8,167.1h7v7h-7V167.1z M130.8,159.9h7v7h-7
		V159.9z M130.8,152.6h7v7h-7V152.6z M130.8,138.1h7v7h-7V138.1z M138.1,167.1h7v7h-7V167.1z M138.1,159.9h7v7h-7V159.9z
		 M138.1,152.6h7v7h-7V152.6z M138.1,145.4h7v7h-7V145.4z M145.3,174.4h7v7h-7V174.4z M145.3,167.1h7v7h-7V167.1z M145.3,159.9h7v7
		h-7V159.9z M145.3,152.6h7v7h-7V152.6z M145.3,145.4h7v7h-7V145.4z M145.3,138.1h7v7h-7V138.1z M152.6,167.1h7v7h-7V167.1z
		 M152.6,159.9h7v7h-7V159.9z M152.6,152.6h7v7h-7V152.6z M152.6,145.4h7v7h-7V145.4z M152.6,138.1h7v7h-7V138.1z M159.8,167.1h7v7
		h-7V167.1z M159.8,159.9h7v7h-7V159.9z M159.8,152.6h7v7h-7V152.6z M159.8,145.4h7v7h-7V145.4z M159.8,138.1h7v7h-7V138.1z
		 M167.1,167.1h7v7h-7V167.1z M167.1,159.9h7v7h-7V159.9z M167.1,152.6h7v7h-7V152.6z M167.1,145.4h7v7h-7V145.4z M167.1,138.1h7v7
		h-7V138.1z M174.4,167.1h7v7h-7V167.1z M174.4,159.9h7v7h-7V159.9z M174.4,152.6h7v7h-7V152.6z M174.4,145.4h7v7h-7V145.4z
		 M174.4,138.1h7v7h-7V138.1z M181.6,167.1h7v7h-7V167.1z M181.6,159.9h7v7h-7V159.9z M181.6,152.6h7v7h-7V152.6z M181.6,145.4h7v7
		h-7V145.4z M181.6,138.1h7v7h-7V138.1z M188.9,167.1h7v7h-7V167.1z M188.9,159.9h7v7h-7V159.9z M188.9,152.6h7v7h-7V152.6z
		 M188.9,145.4h7v7h-7V145.4z M188.9,138.1h7v7h-7V138.1z M196.1,167.1h7v7h-7V167.1z M196.1,159.9h7v7h-7V159.9z M196.1,152.6h7v7
		h-7V152.6z M196.1,145.4h7v7h-7V145.4z M196.1,138.1h7v7h-7V138.1z M130.8,123.6h7v7h-7V123.6z M130.8,116.3h7v7h-7V116.3z
		 M130.8,109h7v7h-7V109z M130.8,101.8h7v7h-7V101.8z M130.8,94.5h7v7h-7V94.5z M130.8,87.3h7v7h-7V87.3z M130.8,80h7v7h-7V80z
		 M130.8,72.8h7v7h-7V72.8z M130.8,65.5h7v7h-7V65.5z M138.1,130.8h7v7h-7V130.8z M138.1,116.3h7v7h-7V116.3z M138.1,109h7v7h-7V109
		z M138.1,101.8h7v7h-7V101.8z M138.1,94.5h7v7h-7V94.5z M138.1,87.3h7v7h-7V87.3z M138.1,80h7v7h-7V80z M138.1,72.8h7v7h-7V72.8z
		 M138.1,65.5h7v7h-7V65.5z M145.3,130.8h7v7h-7V130.8z M145.3,123.6h7v7h-7V123.6z M145.3,109h7v7h-7V109z M145.3,101.8h7v7h-7
		V101.8z M145.3,94.5h7v7h-7V94.5z M145.3,80h7v7h-7V80z M145.3,72.8h7v7h-7V72.8z M145.3,65.5h7v7h-7V65.5z M152.6,130.8h7v7h-7
		V130.8z M152.6,123.6h7v7h-7V123.6z M152.6,116.3h7v7h-7V116.3z M152.6,109h7v7h-7V109z M152.6,101.8h7v7h-7V101.8z M152.6,94.5h7
		v7h-7V94.5z M152.6,87.3h7v7h-7V87.3z M152.6,80h7v7h-7V80z M152.6,72.8h7v7h-7V72.8z M152.6,65.5h7v7h-7V65.5z M159.8,130.8h7v7
		h-7V130.8z M159.8,123.6h7v7h-7V123.6z M159.8,116.3h7v7h-7V116.3z M159.8,109h7v7h-7V109z M159.8,101.8h7v7h-7V101.8z M159.8,94.5
		h7v7h-7V94.5z M159.8,87.3h7v7h-7V87.3z M159.8,80h7v7h-7V80z M159.8,72.8h7v7h-7V72.8z M159.8,65.5h7v7h-7V65.5z M167.1,130.8h7v7
		h-7V130.8z M167.1,123.6h7v7h-7V123.6z M167.1,109h7v7h-7V109z M167.1,101.8h7v7h-7V101.8z M167.1,94.5h7v7h-7V94.5z M167.1,80h7v7
		h-7V80z M167.1,72.8h7v7h-7V72.8z M167.1,65.5h7v7h-7V65.5z M174.4,130.8h7v7h-7V130.8z M174.4,123.6h7v7h-7V123.6z M174.4,116.3h7
		v7h-7V116.3z M174.4,109h7v7h-7V109z M174.4,101.8h7v7h-7V101.8z M174.4,94.5h7v7h-7V94.5z M174.4,87.3h7v7h-7V87.3z M174.4,80h7v7
		h-7V80z M174.4,72.8h7v7h-7V72.8z M174.4,65.5h7v7h-7V65.5z M181.6,130.8h7v7h-7V130.8z M181.6,123.6h7v7h-7V123.6z M181.6,116.3h7
		v7h-7V116.3z M181.6,109h7v7h-7V109z M181.6,101.8h7v7h-7V101.8z M181.6,94.5h7v7h-7V94.5z M181.6,87.3h7v7h-7V87.3z M181.6,80h7v7
		h-7V80z M181.6,72.8h7v7h-7V72.8z M181.6,65.5h7v7h-7V65.5z M188.9,130.8h7v7h-7V130.8z M188.9,123.6h7v7h-7V123.6z M188.9,109h7v7
		h-7V109z M188.9,101.8h7v7h-7V101.8z M188.9,94.5h7v7h-7V94.5z M188.9,80h7v7h-7V80z M188.9,72.8h7v7h-7V72.8z M188.9,65.5h7v7h-7
		V65.5z M196.1,130.8h7v7h-7V130.8z M196.1,123.6h7v7h-7V123.6z M196.1,116.3h7v7h-7V116.3z M196.1,109h7v7h-7V109z M196.1,101.8h7
		v7h-7V101.8z M196.1,94.5h7v7h-7V94.5z M196.1,87.3h7v7h-7V87.3z M196.1,80h7v7h-7V80z M196.1,72.8h7v7h-7V72.8z M196.1,65.5h7v7
		h-7V65.5z M130.8,58.2h7v7h-7V58.2z M130.8,51h7v7h-7V51z M130.8,43.7h7v7h-7V43.7z M130.8,36.4h7v7h-7V36.4z M130.8,29.2h7v7h-7
		V29.2z M130.8,21.9h7v7h-7V21.9z M130.8,14.7h7v7h-7V14.7z M138.1,51h7v7h-7V51z M138.1,43.7h7v7h-7V43.7z M138.1,36.4h7v7h-7V36.4
		z M138.1,29.2h7v7h-7V29.2z M138.1,21.9h7v7h-7V21.9z M138.1,14.7h7v7h-7V14.7z M145.3,58.2h7v7h-7V58.2z M145.3,51h7v7h-7V51z
		 M145.3,43.7h7v7h-7V43.7z M145.3,36.4h7v7h-7V36.4z M145.3,29.2h7v7h-7V29.2z M145.3,21.9h7v7h-7V21.9z M145.3,14.7h7v7h-7V14.7z
		 M152.6,51h7v7h-7V51z M152.6,43.7h7v7h-7V43.7z M152.6,36.4h7v7h-7V36.4z M152.6,29.2h7v7h-7V29.2z M152.6,7.4h7v7h-7V7.4z
		 M159.8,58.2h7v7h-7V58.2z M159.8,51h7v7h-7V51z M159.8,43.7h7v7h-7V43.7z M159.8,36.4h7v7h-7V36.4z M159.8,29.2h7v7h-7V29.2z
		 M159.8,21.9h7v7h-7V21.9z M159.8,7.4h7v7h-7V7.4z M167.1,51h7v7h-7V51z M167.1,43.7h7v7h-7V43.7z M167.1,36.4h7v7h-7V36.4z
		 M167.1,21.9h7v7h-7V21.9z M167.1,14.7h7v7h-7V14.7z M167.1,7.4h7v7h-7V7.4z M174.4,58.2h7v7h-7V58.2z M174.4,51h7v7h-7V51z
		 M174.4,43.7h7v7h-7V43.7z M174.4,29.2h7v7h-7V29.2z M174.4,21.9h7v7h-7V21.9z M174.4,14.7h7v7h-7V14.7z M174.4,7.4h7v7h-7V7.4z
		 M181.6,51h7v7h-7V51z M181.6,43.7h7v7h-7V43.7z M181.6,29.2h7v7h-7V29.2z M181.6,21.9h7v7h-7V21.9z M181.6,7.4h7v7h-7V7.4z
		 M188.9,58.2h7v7h-7V58.2z M188.9,51h7v7h-7V51z M188.9,43.7h7v7h-7V43.7z M188.9,36.4h7v7h-7V36.4z M188.9,29.2h7v7h-7V29.2z
		 M188.9,21.9h7v7h-7V21.9z M188.9,14.7h7v7h-7V14.7z M188.9,7.4h7v7h-7V7.4z M196.1,51h7v7h-7V51z M196.1,43.7h7v7h-7V43.7z
		 M196.1,36.4h7v7h-7V36.4z M196.1,21.9h7v7h-7V21.9z M196.1,14.7h7v7h-7V14.7z M196.1,7.4h7v7h-7V7.4z M203.4,167.1h7v7h-7V167.1z
		 M203.4,159.9h7v7h-7V159.9z M203.4,152.6h7v7h-7V152.6z M203.4,145.4h7v7h-7V145.4z M203.4,138.1h7v7h-7V138.1z M210.7,167.1h7v7
		h-7V167.1z M210.7,159.9h7v7h-7V159.9z M210.7,152.6h7v7h-7V152.6z M210.7,145.4h7v7h-7V145.4z M210.7,138.1h7v7h-7V138.1z
		 M217.9,167.1h7v7h-7V167.1z M217.9,159.9h7v7h-7V159.9z M217.9,152.6h7v7h-7V152.6z M217.9,145.4h7v7h-7V145.4z M217.9,138.1h7v7
		h-7V138.1z M225.2,167.1h7v7h-7V167.1z M225.2,159.9h7v7h-7V159.9z M225.2,152.6h7v7h-7V152.6z M225.2,145.4h7v7h-7V145.4z
		 M225.2,138.1h7v7h-7V138.1z M232.4,167.1h7v7h-7V167.1z M232.4,159.9h7v7h-7V159.9z M232.4,152.6h7v7h-7V152.6z M232.4,145.4h7v7
		h-7V145.4z M232.4,138.1h7v7h-7V138.1z M239.7,167.1h7v7h-7V167.1z M239.7,159.9h7v7h-7V159.9z M239.7,152.6h7v7h-7V152.6z
		 M239.7,145.4h7v7h-7V145.4z M239.7,138.1h7v7h-7V138.1z M247,167.1h7v7h-7V167.1z M247,159.9h7v7h-7V159.9z M247,152.6h7v7h-7
		V152.6z M247,145.4h7v7h-7V145.4z M247,138.1h7v7h-7V138.1z M254.2,167.1h7v7h-7V167.1z M254.2,159.9h7v7h-7V159.9z M254.2,152.6h7
		v7h-7V152.6z M254.2,145.4h7v7h-7V145.4z M254.2,138.1h7v7h-7V138.1z M261.5,167.1h7v7h-7V167.1z M261.5,159.9h7v7h-7V159.9z
		 M261.5,152.6h7v7h-7V152.6z M261.5,145.4h7v7h-7V145.4z M261.5,138.1h7v7h-7V138.1z M268.7,167.1h7v7h-7V167.1z M268.7,159.9h7v7
		h-7V159.9z M268.7,152.6h7v7h-7V152.6z M268.7,145.4h7v7h-7V145.4z M268.7,138.1h7v7h-7V138.1z M203.4,130.8h7v7h-7V130.8z
		 M203.4,123.6h7v7h-7V123.6z M203.4,116.3h7v7h-7V116.3z M203.4,109h7v7h-7V109z M203.4,101.8h7v7h-7V101.8z M203.4,94.5h7v7h-7
		V94.5z M203.4,87.3h7v7h-7V87.3z M203.4,80h7v7h-7V80z M203.4,72.8h7v7h-7V72.8z M203.4,65.5h7v7h-7V65.5z M210.7,130.8h7v7h-7
		V130.8z M210.7,123.6h7v7h-7V123.6z M210.7,109h7v7h-7V109z M210.7,101.8h7v7h-7V101.8z M210.7,94.5h7v7h-7V94.5z M210.7,80h7v7h-7
		V80z M210.7,65.5h7v7h-7V65.5z M217.9,130.8h7v7h-7V130.8z M217.9,123.6h7v7h-7V123.6z M217.9,116.3h7v7h-7V116.3z M217.9,109h7v7
		h-7V109z M217.9,101.8h7v7h-7V101.8z M217.9,94.5h7v7h-7V94.5z M217.9,87.3h7v7h-7V87.3z M217.9,80h7v7h-7V80z M217.9,72.8h7v7h-7
		V72.8z M217.9,65.5h7v7h-7V65.5z M225.2,130.8h7v7h-7V130.8z M225.2,123.6h7v7h-7V123.6z M225.2,116.3h7v7h-7V116.3z M225.2,109h7
		v7h-7V109z M225.2,101.8h7v7h-7V101.8z M225.2,94.5h7v7h-7V94.5z M225.2,87.3h7v7h-7V87.3z M225.2,80h7v7h-7V80z M225.2,72.8h7v7
		h-7V72.8z M225.2,65.5h7v7h-7V65.5z M232.4,130.8h7v7h-7V130.8z M232.4,123.6h7v7h-7V123.6z M232.4,109h7v7h-7V109z M232.4,101.8h7
		v7h-7V101.8z M232.4,94.5h7v7h-7V94.5z M232.4,80h7v7h-7V80z M232.4,72.8h7v7h-7V72.8z M232.4,65.5h7v7h-7V65.5z M239.7,130.8h7v7
		h-7V130.8z M239.7,123.6h7v7h-7V123.6z M239.7,116.3h7v7h-7V116.3z M239.7,109h7v7h-7V109z M239.7,101.8h7v7h-7V101.8z M239.7,94.5
		h7v7h-7V94.5z M239.7,87.3h7v7h-7V87.3z M239.7,80h7v7h-7V80z M239.7,72.8h7v7h-7V72.8z M239.7,65.5h7v7h-7V65.5z M247,130.8h7v7
		h-7V130.8z M247,123.6h7v7h-7V123.6z M247,116.3h7v7h-7V116.3z M247,109h7v7h-7V109z M247,101.8h7v7h-7V101.8z M247,94.5h7v7h-7
		V94.5z M247,87.3h7v7h-7V87.3z M247,80h7v7h-7V80z M247,72.8h7v7h-7V72.8z M247,65.5h7v7h-7V65.5z M254.2,130.8h7v7h-7V130.8z
		 M254.2,123.6h7v7h-7V123.6z M254.2,109h7v7h-7V109z M254.2,101.8h7v7h-7V101.8z M254.2,94.5h7v7h-7V94.5z M254.2,80h7v7h-7V80z
		 M254.2,72.8h7v7h-7V72.8z M254.2,65.5h7v7h-7V65.5z M261.5,130.8h7v7h-7V130.8z M261.5,123.6h7v7h-7V123.6z M261.5,116.3h7v7h-7
		V116.3z M261.5,109h7v7h-7V109z M261.5,101.8h7v7h-7V101.8z M261.5,94.5h7v7h-7V94.5z M261.5,87.3h7v7h-7V87.3z M261.5,80h7v7h-7
		V80z M261.5,72.8h7v7h-7V72.8z M261.5,65.5h7v7h-7V65.5z M268.7,130.8h7v7h-7V130.8z M268.7,123.6h7v7h-7V123.6z M268.7,116.3h7v7
		h-7V116.3z M268.7,109h7v7h-7V109z M268.7,101.8h7v7h-7V101.8z M268.7,94.5h7v7h-7V94.5z M268.7,87.3h7v7h-7V87.3z M268.7,80h7v7
		h-7V80z M268.7,72.8h7v7h-7V72.8z M268.7,65.5h7v7h-7V65.5z M203.4,58.2h7v7h-7V58.2z M203.4,51h7v7h-7V51z M203.4,36.4h7v7h-7
		V36.4z M203.4,29.2h7v7h-7V29.2z M203.4,21.9h7v7h-7V21.9z M210.7,51h7v7h-7V51z M217.9,58.2h7v7h-7V58.2z M217.9,51h7v7h-7V51z
		 M217.9,43.7h7v7h-7V43.7z M217.9,36.4h7v7h-7V36.4z M217.9,29.2h7v7h-7V29.2z M217.9,21.9h7v7h-7V21.9z M225.2,51h7v7h-7V51z
		 M225.2,29.2h7v7h-7V29.2z M225.2,21.9h7v7h-7V21.9z M225.2,14.7h7v7h-7V14.7z M232.4,58.2h7v7h-7V58.2z M232.4,51h7v7h-7V51z
		 M232.4,43.7h7v7h-7V43.7z M232.4,36.4h7v7h-7V36.4z M232.4,29.2h7v7h-7V29.2z M232.4,21.9h7v7h-7V21.9z M232.4,14.7h7v7h-7V14.7z
		 M239.7,51h7v7h-7V51z M239.7,43.7h7v7h-7V43.7z M239.7,36.4h7v7h-7V36.4z M239.7,29.2h7v7h-7V29.2z M239.7,21.9h7v7h-7V21.9z
		 M247,58.2h7v7h-7V58.2z M247,51h7v7h-7V51z M247,43.7h7v7h-7V43.7z M247,36.4h7v7h-7V36.4z M247,29.2h7v7h-7V29.2z M247,21.9h7v7
		h-7V21.9z M247,14.7h7v7h-7V14.7z M247,7.4h7v7h-7V7.4z M254.2,51h7v7h-7V51z M254.2,36.4h7v7h-7V36.4z M254.2,21.9h7v7h-7V21.9z
		 M254.2,7.4h7v7h-7V7.4z M261.5,58.2h7v7h-7V58.2z M261.5,51h7v7h-7V51z M261.5,43.7h7v7h-7V43.7z M261.5,29.2h7v7h-7V29.2z
		 M261.5,14.7h7v7h-7V14.7z M261.5,7.4h7v7h-7V7.4z M268.7,51h7v7h-7V51z M268.7,43.7h7v7h-7V43.7z M268.7,36.4h7v7h-7V36.4z
		 M268.7,29.2h7v7h-7V29.2z M268.7,21.9h7v7h-7V21.9z M268.7,7.4h7v7h-7V7.4z M276,167.1h7v7h-7V167.1z M276,159.9h7v7h-7V159.9z
		 M276,152.6h7v7h-7V152.6z M276,145.4h7v7h-7V145.4z M276,138.1h7v7h-7V138.1z M283.3,167.1h7v7h-7V167.1z M283.3,159.9h7v7h-7
		V159.9z M283.3,152.6h7v7h-7V152.6z M283.3,145.4h7v7h-7V145.4z M283.3,138.1h7v7h-7V138.1z M290.5,167.1h7v7h-7V167.1z
		 M290.5,159.9h7v7h-7V159.9z M290.5,152.6h7v7h-7V152.6z M290.5,145.4h7v7h-7V145.4z M290.5,138.1h7v7h-7V138.1z M297.8,167.1h7v7
		h-7V167.1z M297.8,159.9h7v7h-7V159.9z M297.8,152.6h7v7h-7V152.6z M297.8,145.4h7v7h-7V145.4z M297.8,138.1h7v7h-7V138.1z
		 M305,167.1h7v7h-7V167.1z M305,159.9h7v7h-7V159.9z M305,152.6h7v7h-7V152.6z M305,145.4h7v7h-7V145.4z M305,138.1h7v7h-7V138.1z
		 M312.3,167.1h7v7h-7V167.1z M312.3,159.9h7v7h-7V159.9z M312.3,152.6h7v7h-7V152.6z M312.3,145.4h7v7h-7V145.4z M312.3,138.1h7v7
		h-7V138.1z M319.6,167.1h7v7h-7V167.1z M319.6,159.9h7v7h-7V159.9z M319.6,152.6h7v7h-7V152.6z M319.6,145.4h7v7h-7V145.4z
		 M319.6,138.1h7v7h-7V138.1z M326.8,167.1h7v7h-7V167.1z M326.8,159.9h7v7h-7V159.9z M326.8,152.6h7v7h-7V152.6z M326.8,145.4h7v7
		h-7V145.4z M326.8,138.1h7v7h-7V138.1z M334.1,167.1h7v7h-7V167.1z M334.1,159.9h7v7h-7V159.9z M334.1,152.6h7v7h-7V152.6z
		 M334.1,145.4h7v7h-7V145.4z M334.1,138.1h7v7h-7V138.1z M341.3,167.1h7v7h-7V167.1z M341.3,159.9h7v7h-7V159.9z M341.3,152.6h7v7
		h-7V152.6z M341.3,145.4h7v7h-7V145.4z M341.3,138.1h7v7h-7V138.1z M276,130.8h7v7h-7V130.8z M276,123.6h7v7h-7V123.6z M276,109h7
		v7h-7V109z M276,101.8h7v7h-7V101.8z M276,94.5h7v7h-7V94.5z M276,80h7v7h-7V80z M276,72.8h7v7h-7V72.8z M276,65.5h7v7h-7V65.5z
		 M283.3,130.8h7v7h-7V130.8z M283.3,123.6h7v7h-7V123.6z M283.3,116.3h7v7h-7V116.3z M283.3,109h7v7h-7V109z M283.3,101.8h7v7h-7
		V101.8z M283.3,94.5h7v7h-7V94.5z M283.3,87.3h7v7h-7V87.3z M283.3,80h7v7h-7V80z M283.3,72.8h7v7h-7V72.8z M283.3,65.5h7v7h-7
		V65.5z M290.5,130.8h7v7h-7V130.8z M290.5,123.6h7v7h-7V123.6z M290.5,116.3h7v7h-7V116.3z M290.5,109h7v7h-7V109z M290.5,101.8h7
		v7h-7V101.8z M290.5,94.5h7v7h-7V94.5z M290.5,87.3h7v7h-7V87.3z M290.5,80h7v7h-7V80z M290.5,72.8h7v7h-7V72.8z M290.5,65.5h7v7
		h-7V65.5z M297.8,130.8h7v7h-7V130.8z M297.8,123.6h7v7h-7V123.6z M297.8,109h7v7h-7V109z M297.8,101.8h7v7h-7V101.8z M297.8,94.5
		h7v7h-7V94.5z M297.8,80h7v7h-7V80z M297.8,72.8h7v7h-7V72.8z M297.8,65.5h7v7h-7V65.5z M305,130.8h7v7h-7V130.8z M305,123.6h7v7
		h-7V123.6z M305,116.3h7v7h-7V116.3z M305,109h7v7h-7V109z M305,101.8h7v7h-7V101.8z M305,94.5h7v7h-7V94.5z M305,87.3h7v7h-7V87.3
		z M305,80h7v7h-7V80z M305,72.8h7v7h-7V72.8z M305,65.5h7v7h-7V65.5z M312.3,130.8h7v7h-7V130.8z M312.3,123.6h7v7h-7V123.6z
		 M312.3,116.3h7v7h-7V116.3z M312.3,109h7v7h-7V109z M312.3,101.8h7v7h-7V101.8z M312.3,94.5h7v7h-7V94.5z M312.3,87.3h7v7h-7V87.3
		z M312.3,80h7v7h-7V80z M312.3,72.8h7v7h-7V72.8z M312.3,65.5h7v7h-7V65.5z M319.6,130.8h7v7h-7V130.8z M319.6,123.6h7v7h-7V123.6z
		 M319.6,109h7v7h-7V109z M319.6,101.8h7v7h-7V101.8z M319.6,94.5h7v7h-7V94.5z M319.6,80h7v7h-7V80z M319.6,65.5h7v7h-7V65.5z
		 M326.8,130.8h7v7h-7V130.8z M326.8,123.6h7v7h-7V123.6z M326.8,116.3h7v7h-7V116.3z M326.8,109h7v7h-7V109z M326.8,101.8h7v7h-7
		V101.8z M326.8,94.5h7v7h-7V94.5z M326.8,87.3h7v7h-7V87.3z M326.8,80h7v7h-7V80z M326.8,72.8h7v7h-7V72.8z M326.8,65.5h7v7h-7
		V65.5z M334.1,130.8h7v7h-7V130.8z M334.1,123.6h7v7h-7V123.6z M334.1,116.3h7v7h-7V116.3z M334.1,109h7v7h-7V109z M334.1,101.8h7
		v7h-7V101.8z M334.1,94.5h7v7h-7V94.5z M334.1,87.3h7v7h-7V87.3z M334.1,80h7v7h-7V80z M334.1,72.8h7v7h-7V72.8z M334.1,65.5h7v7
		h-7V65.5z M341.3,130.8h7v7h-7V130.8z M341.3,123.6h7v7h-7V123.6z M341.3,109h7v7h-7V109z M341.3,101.8h7v7h-7V101.8z M341.3,94.5
		h7v7h-7V94.5z M341.3,80h7v7h-7V80z M341.3,72.8h7v7h-7V72.8z M341.3,65.5h7v7h-7V65.5z M276,58.2h7v7h-7V58.2z M276,51h7v7h-7V51z
		 M276,43.7h7v7h-7V43.7z M276,36.4h7v7h-7V36.4z M276,29.2h7v7h-7V29.2z M276,14.7h7v7h-7V14.7z M276,7.4h7v7h-7V7.4z M283.3,51h7
		v7h-7V51z M283.3,43.7h7v7h-7V43.7z M283.3,36.4h7v7h-7V36.4z M283.3,29.2h7v7h-7V29.2z M283.3,21.9h7v7h-7V21.9z M283.3,7.4h7v7
		h-7V7.4z M290.5,58.2h7v7h-7V58.2z M290.5,51h7v7h-7V51z M290.5,43.7h7v7h-7V43.7z M290.5,36.4h7v7h-7V36.4z M290.5,29.2h7v7h-7
		V29.2z M290.5,21.9h7v7h-7V21.9z M290.5,14.7h7v7h-7V14.7z M290.5,7.4h7v7h-7V7.4z M297.8,51h7v7h-7V51z M297.8,43.7h7v7h-7V43.7z
		 M297.8,36.4h7v7h-7V36.4z M297.8,29.2h7v7h-7V29.2z M297.8,21.9h7v7h-7V21.9z M297.8,7.4h7v7h-7V7.4z M305,58.2h7v7h-7V58.2z
		 M305,51h7v7h-7V51z M305,43.7h7v7h-7V43.7z M305,36.4h7v7h-7V36.4z M305,29.2h7v7h-7V29.2z M305,21.9h7v7h-7V21.9z M305,14.7h7v7
		h-7V14.7z M305,7.4h7v7h-7V7.4z M312.3,51h7v7h-7V51z M312.3,43.7h7v7h-7V43.7z M312.3,36.4h7v7h-7V36.4z M312.3,29.2h7v7h-7V29.2z
		 M312.3,21.9h7v7h-7V21.9z M312.3,14.7h7v7h-7V14.7z M312.3,7.4h7v7h-7V7.4z M319.6,58.2h7v7h-7V58.2z M319.6,51h7v7h-7V51z
		 M319.6,43.7h7v7h-7V43.7z M319.6,36.4h7v7h-7V36.4z M319.6,29.2h7v7h-7V29.2z M319.6,21.9h7v7h-7V21.9z M319.6,14.7h7v7h-7V14.7z
		 M319.6,7.4h7v7h-7V7.4z M326.8,51h7v7h-7V51z M326.8,43.7h7v7h-7V43.7z M326.8,36.4h7v7h-7V36.4z M326.8,29.2h7v7h-7V29.2z
		 M326.8,21.9h7v7h-7V21.9z M326.8,14.7h7v7h-7V14.7z M326.8,7.4h7v7h-7V7.4z M334.1,58.2h7v7h-7V58.2z M334.1,51h7v7h-7V51z
		 M334.1,43.7h7v7h-7V43.7z M334.1,36.4h7v7h-7V36.4z M334.1,29.2h7v7h-7V29.2z M334.1,21.9h7v7h-7V21.9z M334.1,14.7h7v7h-7V14.7z
		 M334.1,7.4h7v7h-7V7.4z M341.3,51h7v7h-7V51z M341.3,43.7h7v7h-7V43.7z M341.3,36.4h7v7h-7V36.4z M341.3,29.2h7v7h-7V29.2z
		 M341.3,21.9h7v7h-7V21.9z M341.3,14.7h7v7h-7V14.7z M341.3,7.4h7v7h-7V7.4z M348.6,167.1h7v7h-7V167.1z M348.6,159.9h7v7h-7V159.9
		z M348.6,152.6h7v7h-7V152.6z M348.6,145.4h7v7h-7V145.4z M348.6,138.1h7v7h-7V138.1z M355.9,167.1h7v7h-7V167.1z M355.9,159.9h7v7
		h-7V159.9z M355.9,152.6h7v7h-7V152.6z M355.9,145.4h7v7h-7V145.4z M355.9,138.1h7v7h-7V138.1z M363.1,167.1h7v7h-7V167.1z
		 M363.1,159.9h7v7h-7V159.9z M363.1,152.6h7v7h-7V152.6z M363.1,145.4h7v7h-7V145.4z M363.1,138.1h7v7h-7V138.1z M370.4,167.1h7v7
		h-7V167.1z M370.4,159.9h7v7h-7V159.9z M370.4,152.6h7v7h-7V152.6z M370.4,145.4h7v7h-7V145.4z M370.4,138.1h7v7h-7V138.1z
		 M377.6,167.1h7v7h-7V167.1z M377.6,159.9h7v7h-7V159.9z M377.6,152.6h7v7h-7V152.6z M377.6,145.4h7v7h-7V145.4z M377.6,138.1h7v7
		h-7V138.1z M384.9,167.1h7v7h-7V167.1z M384.9,159.9h7v7h-7V159.9z M384.9,152.6h7v7h-7V152.6z M384.9,145.4h7v7h-7V145.4z
		 M384.9,138.1h7v7h-7V138.1z M392.2,167.1h7v7h-7V167.1z M392.2,159.9h7v7h-7V159.9z M392.2,152.6h7v7h-7V152.6z M392.2,145.4h7v7
		h-7V145.4z M392.2,138.1h7v7h-7V138.1z M399.4,167.1h7v7h-7V167.1z M399.4,159.9h7v7h-7V159.9z M399.4,152.6h7v7h-7V152.6z
		 M399.4,145.4h7v7h-7V145.4z M399.4,138.1h7v7h-7V138.1z M406.7,167.1h7v7h-7V167.1z M406.7,159.9h7v7h-7V159.9z M406.7,152.6h7v7
		h-7V152.6z M406.7,145.4h7v7h-7V145.4z M406.7,138.1h7v7h-7V138.1z M413.9,174.4h7v7h-7V174.4z M413.9,167.1h7v7h-7V167.1z
		 M413.9,159.9h7v7h-7V159.9z M413.9,152.6h7v7h-7V152.6z M413.9,145.4h7v7h-7V145.4z M413.9,138.1h7v7h-7V138.1z M348.6,130.8h7v7
		h-7V130.8z M348.6,123.6h7v7h-7V123.6z M348.6,116.3h7v7h-7V116.3z M348.6,109h7v7h-7V109z M348.6,101.8h7v7h-7V101.8z M348.6,94.5
		h7v7h-7V94.5z M348.6,87.3h7v7h-7V87.3z M348.6,80h7v7h-7V80z M348.6,72.8h7v7h-7V72.8z M348.6,65.5h7v7h-7V65.5z M355.9,130.8h7v7
		h-7V130.8z M355.9,123.6h7v7h-7V123.6z M355.9,116.3h7v7h-7V116.3z M355.9,109h7v7h-7V109z M355.9,101.8h7v7h-7V101.8z M355.9,94.5
		h7v7h-7V94.5z M355.9,87.3h7v7h-7V87.3z M355.9,80h7v7h-7V80z M355.9,72.8h7v7h-7V72.8z M355.9,65.5h7v7h-7V65.5z M363.1,130.8h7v7
		h-7V130.8z M363.1,123.6h7v7h-7V123.6z M363.1,109h7v7h-7V109z M363.1,101.8h7v7h-7V101.8z M363.1,94.5h7v7h-7V94.5z M363.1,80h7v7
		h-7V80z M363.1,72.8h7v7h-7V72.8z M363.1,65.5h7v7h-7V65.5z M370.4,130.8h7v7h-7V130.8z M370.4,123.6h7v7h-7V123.6z M370.4,116.3h7
		v7h-7V116.3z M370.4,109h7v7h-7V109z M370.4,101.8h7v7h-7V101.8z M370.4,94.5h7v7h-7V94.5z M370.4,87.3h7v7h-7V87.3z M370.4,80h7v7
		h-7V80z M370.4,72.8h7v7h-7V72.8z M370.4,65.5h7v7h-7V65.5z M377.6,130.8h7v7h-7V130.8z M377.6,123.6h7v7h-7V123.6z M377.6,116.3h7
		v7h-7V116.3z M377.6,109h7v7h-7V109z M377.6,101.8h7v7h-7V101.8z M377.6,94.5h7v7h-7V94.5z M377.6,87.3h7v7h-7V87.3z M377.6,80h7v7
		h-7V80z M377.6,72.8h7v7h-7V72.8z M377.6,65.5h7v7h-7V65.5z M384.9,130.8h7v7h-7V130.8z M384.9,123.6h7v7h-7V123.6z M384.9,109h7v7
		h-7V109z M384.9,101.8h7v7h-7V101.8z M384.9,94.5h7v7h-7V94.5z M384.9,80h7v7h-7V80z M384.9,72.8h7v7h-7V72.8z M384.9,65.5h7v7h-7
		V65.5z M392.2,130.8h7v7h-7V130.8z M392.2,123.6h7v7h-7V123.6z M392.2,116.3h7v7h-7V116.3z M392.2,109h7v7h-7V109z M392.2,101.8h7
		v7h-7V101.8z M392.2,94.5h7v7h-7V94.5z M392.2,87.3h7v7h-7V87.3z M392.2,80h7v7h-7V80z M392.2,72.8h7v7h-7V72.8z M392.2,65.5h7v7
		h-7V65.5z M399.4,130.8h7v7h-7V130.8z M399.4,123.6h7v7h-7V123.6z M399.4,116.3h7v7h-7V116.3z M399.4,109h7v7h-7V109z M399.4,101.8
		h7v7h-7V101.8z M399.4,94.5h7v7h-7V94.5z M399.4,87.3h7v7h-7V87.3z M399.4,80h7v7h-7V80z M399.4,72.8h7v7h-7V72.8z M399.4,65.5h7v7
		h-7V65.5z M406.7,130.8h7v7h-7V130.8z M406.7,123.6h7v7h-7V123.6z M406.7,109h7v7h-7V109z M406.7,101.8h7v7h-7V101.8z M406.7,87.3
		h7v7h-7V87.3z M406.7,80h7v7h-7V80z M406.7,72.8h7v7h-7V72.8z M406.7,65.5h7v7h-7V65.5z M413.9,130.8h7v7h-7V130.8z M413.9,123.6h7
		v7h-7V123.6z M413.9,116.3h7v7h-7V116.3z M413.9,109h7v7h-7V109z M413.9,101.8h7v7h-7V101.8z M413.9,94.5h7v7h-7V94.5z M413.9,87.3
		h7v7h-7V87.3z M413.9,80h7v7h-7V80z M413.9,72.8h7v7h-7V72.8z M413.9,65.5h7v7h-7V65.5z M348.6,58.2h7v7h-7V58.2z M348.6,51h7v7h-7
		V51z M348.6,43.7h7v7h-7V43.7z M348.6,36.4h7v7h-7V36.4z M348.6,29.2h7v7h-7V29.2z M348.6,21.9h7v7h-7V21.9z M348.6,14.7h7v7h-7
		V14.7z M348.6,7.4h7v7h-7V7.4z M355.9,51h7v7h-7V51z M355.9,43.7h7v7h-7V43.7z M355.9,36.4h7v7h-7V36.4z M355.9,29.2h7v7h-7V29.2z
		 M355.9,21.9h7v7h-7V21.9z M355.9,14.7h7v7h-7V14.7z M355.9,7.4h7v7h-7V7.4z M363.1,58.2h7v7h-7V58.2z M363.1,51h7v7h-7V51z
		 M363.1,43.7h7v7h-7V43.7z M363.1,36.4h7v7h-7V36.4z M363.1,29.2h7v7h-7V29.2z M363.1,21.9h7v7h-7V21.9z M363.1,7.4h7v7h-7V7.4z
		 M370.4,51h7v7h-7V51z M370.4,43.7h7v7h-7V43.7z M370.4,36.4h7v7h-7V36.4z M370.4,29.2h7v7h-7V29.2z M370.4,21.9h7v7h-7V21.9z
		 M370.4,14.7h7v7h-7V14.7z M370.4,7.4h7v7h-7V7.4z M377.6,58.2h7v7h-7V58.2z M377.6,51h7v7h-7V51z M377.6,43.7h7v7h-7V43.7z
		 M377.6,36.4h7v7h-7V36.4z M377.6,29.2h7v7h-7V29.2z M377.6,21.9h7v7h-7V21.9z M377.6,7.4h7v7h-7V7.4z M384.9,51h7v7h-7V51z
		 M384.9,43.7h7v7h-7V43.7z M384.9,36.4h7v7h-7V36.4z M384.9,29.2h7v7h-7V29.2z M384.9,14.7h7v7h-7V14.7z M384.9,7.4h7v7h-7V7.4z
		 M392.2,58.2h7v7h-7V58.2z M392.2,51h7v7h-7V51z M392.2,43.7h7v7h-7V43.7z M392.2,36.4h7v7h-7V36.4z M392.2,29.2h7v7h-7V29.2z
		 M392.2,21.9h7v7h-7V21.9z M392.2,7.4h7v7h-7V7.4z M399.4,51h7v7h-7V51z M399.4,43.7h7v7h-7V43.7z M399.4,29.2h7v7h-7V29.2z
		 M399.4,14.7h7v7h-7V14.7z M399.4,7.4h7v7h-7V7.4z M406.7,58.2h7v7h-7V58.2z M406.7,51h7v7h-7V51z M406.7,36.4h7v7h-7V36.4z
		 M406.7,21.9h7v7h-7V21.9z M406.7,7.4h7v7h-7V7.4z M413.9,51h7v7h-7V51z M413.9,43.7h7v7h-7V43.7z M413.9,36.4h7v7h-7V36.4z
		 M413.9,29.2h7v7h-7V29.2z M413.9,21.9h7v7h-7V21.9z M413.9,14.7h7v7h-7V14.7z M413.9,7.4h7v7h-7V7.4z M421.2,174.4h7v7h-7V174.4z
		 M421.2,167.1h7v7h-7V167.1z M421.2,159.9h7v7h-7V159.9z M421.2,152.6h7v7h-7V152.6z M421.2,145.4h7v7h-7V145.4z M421.2,138.1h7v7
		h-7V138.1z M428.5,174.4h7v7h-7V174.4z M428.5,167.1h7v7h-7V167.1z M428.5,159.9h7v7h-7V159.9z M428.5,152.6h7v7h-7V152.6z
		 M428.5,145.4h7v7h-7V145.4z M428.5,138.1h7v7h-7V138.1z M435.7,167.1h7v7h-7V167.1z M435.7,159.9h7v7h-7V159.9z M435.7,152.6h7v7
		h-7V152.6z M435.7,145.4h7v7h-7V145.4z M435.7,138.1h7v7h-7V138.1z M443,167.1h7v7h-7V167.1z M443,159.9h7v7h-7V159.9z M443,152.6
		h7v7h-7V152.6z M443,145.4h7v7h-7V145.4z M443,138.1h7v7h-7V138.1z M450.2,167.1h7v7h-7V167.1z M450.2,159.9h7v7h-7V159.9z
		 M450.2,152.6h7v7h-7V152.6z M450.2,145.4h7v7h-7V145.4z M450.2,138.1h7v7h-7V138.1z M457.5,167.1h7v7h-7V167.1z M457.5,159.9h7v7
		h-7V159.9z M457.5,152.6h7v7h-7V152.6z M457.5,145.4h7v7h-7V145.4z M457.5,138.1h7v7h-7V138.1z M464.8,167.1h7v7h-7V167.1z
		 M464.8,159.9h7v7h-7V159.9z M464.8,152.6h7v7h-7V152.6z M464.8,145.4h7v7h-7V145.4z M464.8,138.1h7v7h-7V138.1z M472,174.4h7v7h-7
		V174.4z M472,167.1h7v7h-7V167.1z M472,159.9h7v7h-7V159.9z M472,152.6h7v7h-7V152.6z M472,145.4h7v7h-7V145.4z M472,138.1h7v7h-7
		V138.1z M479.3,174.4h7v7h-7V174.4z M479.3,167.1h7v7h-7V167.1z M479.3,159.9h7v7h-7V159.9z M479.3,152.6h7v7h-7V152.6z
		 M479.3,145.4h7v7h-7V145.4z M479.3,138.1h7v7h-7V138.1z M486.5,174.4h7v7h-7V174.4z M486.5,167.1h7v7h-7V167.1z M486.5,159.9h7v7
		h-7V159.9z M486.5,152.6h7v7h-7V152.6z M486.5,145.4h7v7h-7V145.4z M486.5,138.1h7v7h-7V138.1z M421.2,130.8h7v7h-7V130.8z
		 M421.2,123.6h7v7h-7V123.6z M421.2,116.3h7v7h-7V116.3z M421.2,109h7v7h-7V109z M421.2,101.8h7v7h-7V101.8z M421.2,87.3h7v7h-7
		V87.3z M421.2,80h7v7h-7V80z M421.2,72.8h7v7h-7V72.8z M421.2,65.5h7v7h-7V65.5z M428.5,130.8h7v7h-7V130.8z M428.5,123.6h7v7h-7
		V123.6z M428.5,109h7v7h-7V109z M428.5,101.8h7v7h-7V101.8z M428.5,94.5h7v7h-7V94.5z M428.5,87.3h7v7h-7V87.3z M428.5,80h7v7h-7
		V80z M428.5,72.8h7v7h-7V72.8z M428.5,65.5h7v7h-7V65.5z M435.7,130.8h7v7h-7V130.8z M435.7,123.6h7v7h-7V123.6z M435.7,116.3h7v7
		h-7V116.3z M435.7,109h7v7h-7V109z M435.7,101.8h7v7h-7V101.8z M435.7,87.3h7v7h-7V87.3z M435.7,80h7v7h-7V80z M435.7,72.8h7v7h-7
		V72.8z M435.7,65.5h7v7h-7V65.5z M443,130.8h7v7h-7V130.8z M443,123.6h7v7h-7V123.6z M443,116.3h7v7h-7V116.3z M443,109h7v7h-7V109
		z M443,101.8h7v7h-7V101.8z M443,94.5h7v7h-7V94.5z M443,87.3h7v7h-7V87.3z M443,80h7v7h-7V80z M443,72.8h7v7h-7V72.8z M443,65.5h7
		v7h-7V65.5z M450.2,130.8h7v7h-7V130.8z M450.2,123.6h7v7h-7V123.6z M450.2,109h7v7h-7V109z M450.2,101.8h7v7h-7V101.8z
		 M450.2,87.3h7v7h-7V87.3z M450.2,80h7v7h-7V80z M450.2,72.8h7v7h-7V72.8z M450.2,65.5h7v7h-7V65.5z M457.5,130.8h7v7h-7V130.8z
		 M457.5,123.6h7v7h-7V123.6z M457.5,116.3h7v7h-7V116.3z M457.5,109h7v7h-7V109z M457.5,101.8h7v7h-7V101.8z M457.5,94.5h7v7h-7
		V94.5z M457.5,87.3h7v7h-7V87.3z M457.5,80h7v7h-7V80z M457.5,72.8h7v7h-7V72.8z M457.5,65.5h7v7h-7V65.5z M464.8,130.8h7v7h-7
		V130.8z M464.8,123.6h7v7h-7V123.6z M464.8,116.3h7v7h-7V116.3z M464.8,109h7v7h-7V109z M464.8,101.8h7v7h-7V101.8z M464.8,87.3h7
		v7h-7V87.3z M464.8,80h7v7h-7V80z M464.8,72.8h7v7h-7V72.8z M464.8,65.5h7v7h-7V65.5z M472,130.8h7v7h-7V130.8z M472,123.6h7v7h-7
		V123.6z M472,109h7v7h-7V109z M472,101.8h7v7h-7V101.8z M472,94.5h7v7h-7V94.5z M472,87.3h7v7h-7V87.3z M472,80h7v7h-7V80z
		 M472,72.8h7v7h-7V72.8z M472,65.5h7v7h-7V65.5z M479.3,130.8h7v7h-7V130.8z M479.3,123.6h7v7h-7V123.6z M479.3,116.3h7v7h-7V116.3
		z M479.3,109h7v7h-7V109z M479.3,101.8h7v7h-7V101.8z M479.3,94.5h7v7h-7V94.5z M479.3,80h7v7h-7V80z M479.3,65.5h7v7h-7V65.5z
		 M486.5,130.8h7v7h-7V130.8z M486.5,123.6h7v7h-7V123.6z M486.5,116.3h7v7h-7V116.3z M486.5,109h7v7h-7V109z M486.5,101.8h7v7h-7
		V101.8z M486.5,94.5h7v7h-7V94.5z M486.5,87.3h7v7h-7V87.3z M486.5,80h7v7h-7V80z M486.5,72.8h7v7h-7V72.8z M486.5,65.5h7v7h-7
		V65.5z M421.2,58.2h7v7h-7V58.2z M421.2,51h7v7h-7V51z M421.2,43.7h7v7h-7V43.7z M421.2,36.4h7v7h-7V36.4z M421.2,29.2h7v7h-7V29.2
		z M421.2,21.9h7v7h-7V21.9z M428.5,51h7v7h-7V51z M428.5,43.7h7v7h-7V43.7z M428.5,36.4h7v7h-7V36.4z M428.5,29.2h7v7h-7V29.2z
		 M428.5,21.9h7v7h-7V21.9z M428.5,14.7h7v7h-7V14.7z M435.7,58.2h7v7h-7V58.2z M435.7,51h7v7h-7V51z M435.7,29.2h7v7h-7V29.2z
		 M435.7,21.9h7v7h-7V21.9z M435.7,14.7h7v7h-7V14.7z M443,51h7v7h-7V51z M443,43.7h7v7h-7V43.7z M443,36.4h7v7h-7V36.4z M443,29.2
		h7v7h-7V29.2z M443,21.9h7v7h-7V21.9z M450.2,58.2h7v7h-7V58.2z M450.2,51h7v7h-7V51z M457.5,51h7v7h-7V51z M457.5,36.4h7v7h-7
		V36.4z M457.5,29.2h7v7h-7V29.2z M464.8,58.2h7v7h-7V58.2z M464.8,51h7v7h-7V51z M464.8,36.4h7v7h-7V36.4z M464.8,29.2h7v7h-7V29.2
		z M464.8,21.9h7v7h-7V21.9z M464.8,14.7h7v7h-7V14.7z M472,51h7v7h-7V51z M472,43.7h7v7h-7V43.7z M472,36.4h7v7h-7V36.4z M472,21.9
		h7v7h-7V21.9z M472,14.7h7v7h-7V14.7z M472,7.4h7v7h-7V7.4z M479.3,58.2h7v7h-7V58.2z M479.3,51h7v7h-7V51z M479.3,43.7h7v7h-7
		V43.7z M479.3,29.2h7v7h-7V29.2z M479.3,21.9h7v7h-7V21.9z M479.3,14.7h7v7h-7V14.7z M479.3,7.4h7v7h-7V7.4z M486.5,51h7v7h-7V51z
		 M486.5,43.7h7v7h-7V43.7z M486.5,29.2h7v7h-7V29.2z M486.5,21.9h7v7h-7V21.9z M486.5,7.4h7v7h-7V7.4z M493.8,174.4h7v7h-7V174.4z
		 M493.8,167.1h7v7h-7V167.1z M493.8,159.9h7v7h-7V159.9z M493.8,152.6h7v7h-7V152.6z M493.8,145.4h7v7h-7V145.4z M493.8,138.1h7v7
		h-7V138.1z M501.1,174.4h7v7h-7V174.4z M501.1,167.1h7v7h-7V167.1z M501.1,159.9h7v7h-7V159.9z M501.1,152.6h7v7h-7V152.6z
		 M501.1,145.4h7v7h-7V145.4z M501.1,138.1h7v7h-7V138.1z M508.3,174.4h7v7h-7V174.4z M508.3,167.1h7v7h-7V167.1z M508.3,159.9h7v7
		h-7V159.9z M508.3,152.6h7v7h-7V152.6z M508.3,145.4h7v7h-7V145.4z M508.3,138.1h7v7h-7V138.1z M515.6,174.4h7v7h-7V174.4z
		 M515.6,167.1h7v7h-7V167.1z M515.6,159.9h7v7h-7V159.9z M515.6,152.6h7v7h-7V152.6z M515.6,145.4h7v7h-7V145.4z M515.6,138.1h7v7
		h-7V138.1z M522.8,167.1h7v7h-7V167.1z M522.8,159.9h7v7h-7V159.9z M522.8,152.6h7v7h-7V152.6z M522.8,145.4h7v7h-7V145.4z
		 M522.8,138.1h7v7h-7V138.1z M530.1,174.4h7v7h-7V174.4z M530.1,167.1h7v7h-7V167.1z M530.1,159.9h7v7h-7V159.9z M530.1,152.6h7v7
		h-7V152.6z M530.1,145.4h7v7h-7V145.4z M537.4,174.4h7v7h-7V174.4z M537.4,167.1h7v7h-7V167.1z M537.4,159.9h7v7h-7V159.9z
		 M537.4,152.6h7v7h-7V152.6z M537.4,145.4h7v7h-7V145.4z M537.4,138.1h7v7h-7V138.1z M544.6,174.4h7v7h-7V174.4z M544.6,167.1h7v7
		h-7V167.1z M544.6,159.9h7v7h-7V159.9z M544.6,152.6h7v7h-7V152.6z M544.6,145.4h7v7h-7V145.4z M544.6,138.1h7v7h-7V138.1z
		 M551.9,174.4h7v7h-7V174.4z M551.9,167.1h7v7h-7V167.1z M551.9,159.9h7v7h-7V159.9z M551.9,152.6h7v7h-7V152.6z M551.9,145.4h7v7
		h-7V145.4z M551.9,138.1h7v7h-7V138.1z M559.1,174.4h7v7h-7V174.4z M559.1,167.1h7v7h-7V167.1z M559.1,159.9h7v7h-7V159.9z
		 M559.1,152.6h7v7h-7V152.6z M559.1,145.4h7v7h-7V145.4z M559.1,138.1h7v7h-7V138.1z M493.8,130.8h7v7h-7V130.8z M493.8,123.6h7v7
		h-7V123.6z M493.8,109h7v7h-7V109z M493.8,101.8h7v7h-7V101.8z M493.8,94.5h7v7h-7V94.5z M493.8,87.3h7v7h-7V87.3z M493.8,80h7v7
		h-7V80z M493.8,72.8h7v7h-7V72.8z M493.8,65.5h7v7h-7V65.5z M501.1,130.8h7v7h-7V130.8z M501.1,123.6h7v7h-7V123.6z M501.1,116.3h7
		v7h-7V116.3z M501.1,109h7v7h-7V109z M501.1,101.8h7v7h-7V101.8z M501.1,94.5h7v7h-7V94.5z M501.1,80h7v7h-7V80z M501.1,72.8h7v7
		h-7V72.8z M501.1,65.5h7v7h-7V65.5z M508.3,130.8h7v7h-7V130.8z M508.3,123.6h7v7h-7V123.6z M508.3,116.3h7v7h-7V116.3z M508.3,109
		h7v7h-7V109z M508.3,101.8h7v7h-7V101.8z M508.3,94.5h7v7h-7V94.5z M508.3,87.3h7v7h-7V87.3z M508.3,80h7v7h-7V80z M508.3,72.8h7v7
		h-7V72.8z M508.3,65.5h7v7h-7V65.5z M515.6,130.8h7v7h-7V130.8z M515.6,123.6h7v7h-7V123.6z M515.6,116.3h7v7h-7V116.3z M515.6,109
		h7v7h-7V109z M515.6,101.8h7v7h-7V101.8z M515.6,94.5h7v7h-7V94.5z M515.6,87.3h7v7h-7V87.3z M515.6,80h7v7h-7V80z M515.6,72.8h7v7
		h-7V72.8z M515.6,65.5h7v7h-7V65.5z M522.8,123.6h7v7h-7V123.6z M522.8,116.3h7v7h-7V116.3z M522.8,109h7v7h-7V109z M522.8,101.8h7
		v7h-7V101.8z M522.8,94.5h7v7h-7V94.5z M522.8,80h7v7h-7V80z M522.8,72.8h7v7h-7V72.8z M522.8,65.5h7v7h-7V65.5z M530.1,130.8h7v7
		h-7V130.8z M530.1,123.6h7v7h-7V123.6z M530.1,116.3h7v7h-7V116.3z M530.1,109h7v7h-7V109z M530.1,101.8h7v7h-7V101.8z M530.1,94.5
		h7v7h-7V94.5z M530.1,87.3h7v7h-7V87.3z M530.1,80h7v7h-7V80z M530.1,72.8h7v7h-7V72.8z M530.1,65.5h7v7h-7V65.5z M537.4,123.6h7v7
		h-7V123.6z M537.4,116.3h7v7h-7V116.3z M537.4,109h7v7h-7V109z M537.4,101.8h7v7h-7V101.8z M537.4,94.5h7v7h-7V94.5z M537.4,87.3h7
		v7h-7V87.3z M537.4,80h7v7h-7V80z M537.4,72.8h7v7h-7V72.8z M537.4,65.5h7v7h-7V65.5z M544.6,130.8h7v7h-7V130.8z M544.6,123.6h7v7
		h-7V123.6z M544.6,116.3h7v7h-7V116.3z M544.6,109h7v7h-7V109z M544.6,101.8h7v7h-7V101.8z M544.6,94.5h7v7h-7V94.5z M544.6,80h7v7
		h-7V80z M544.6,72.8h7v7h-7V72.8z M544.6,65.5h7v7h-7V65.5z M551.9,130.8h7v7h-7V130.8z M551.9,123.6h7v7h-7V123.6z M551.9,116.3h7
		v7h-7V116.3z M551.9,109h7v7h-7V109z M551.9,101.8h7v7h-7V101.8z M551.9,94.5h7v7h-7V94.5z M551.9,87.3h7v7h-7V87.3z M551.9,80h7v7
		h-7V80z M551.9,72.8h7v7h-7V72.8z M551.9,65.5h7v7h-7V65.5z M559.1,130.8h7v7h-7V130.8z M559.1,123.6h7v7h-7V123.6z M559.1,116.3h7
		v7h-7V116.3z M559.1,109h7v7h-7V109z M559.1,101.8h7v7h-7V101.8z M559.1,94.5h7v7h-7V94.5z M559.1,87.3h7v7h-7V87.3z M559.1,80h7v7
		h-7V80z M559.1,72.8h7v7h-7V72.8z M559.1,65.5h7v7h-7V65.5z M493.8,58.2h7v7h-7V58.2z M493.8,51h7v7h-7V51z M493.8,43.7h7v7h-7
		V43.7z M493.8,36.4h7v7h-7V36.4z M493.8,29.2h7v7h-7V29.2z M493.8,21.9h7v7h-7V21.9z M493.8,14.7h7v7h-7V14.7z M493.8,7.4h7v7h-7
		V7.4z M501.1,51h7v7h-7V51z M501.1,43.7h7v7h-7V43.7z M501.1,36.4h7v7h-7V36.4z M501.1,21.9h7v7h-7V21.9z M501.1,14.7h7v7h-7V14.7z
		 M501.1,7.4h7v7h-7V7.4z M508.3,58.2h7v7h-7V58.2z M508.3,51h7v7h-7V51z M508.3,43.7h7v7h-7V43.7z M508.3,36.4h7v7h-7V36.4z
		 M508.3,29.2h7v7h-7V29.2z M508.3,21.9h7v7h-7V21.9z M508.3,7.4h7v7h-7V7.4z M515.6,51h7v7h-7V51z M515.6,43.7h7v7h-7V43.7z
		 M515.6,36.4h7v7h-7V36.4z M515.6,29.2h7v7h-7V29.2z M515.6,7.4h7v7h-7V7.4z M522.8,58.2h7v7h-7V58.2z M522.8,51h7v7h-7V51z
		 M522.8,43.7h7v7h-7V43.7z M522.8,36.4h7v7h-7V36.4z M522.8,29.2h7v7h-7V29.2z M522.8,21.9h7v7h-7V21.9z M522.8,14.7h7v7h-7V14.7z
		 M530.1,51h7v7h-7V51z M530.1,43.7h7v7h-7V43.7z M530.1,36.4h7v7h-7V36.4z M530.1,29.2h7v7h-7V29.2z M530.1,21.9h7v7h-7V21.9z
		 M530.1,14.7h7v7h-7V14.7z M537.4,58.2h7v7h-7V58.2z M537.4,51h7v7h-7V51z M537.4,43.7h7v7h-7V43.7z M537.4,36.4h7v7h-7V36.4z
		 M537.4,29.2h7v7h-7V29.2z M537.4,21.9h7v7h-7V21.9z M537.4,14.7h7v7h-7V14.7z M544.6,51h7v7h-7V51z M544.6,43.7h7v7h-7V43.7z
		 M544.6,36.4h7v7h-7V36.4z M544.6,29.2h7v7h-7V29.2z M544.6,21.9h7v7h-7V21.9z M544.6,14.7h7v7h-7V14.7z M551.9,58.2h7v7h-7V58.2z
		 M551.9,51h7v7h-7V51z M551.9,43.7h7v7h-7V43.7z M551.9,36.4h7v7h-7V36.4z M551.9,29.2h7v7h-7V29.2z M551.9,21.9h7v7h-7V21.9z
		 M551.9,14.7h7v7h-7V14.7z M559.1,51h7v7h-7V51z M559.1,43.7h7v7h-7V43.7z M559.1,36.4h7v7h-7V36.4z M559.1,29.2h7v7h-7V29.2z
		 M559.1,7.4h7v7h-7V7.4z M566.4,174.4h7v7h-7V174.4z M566.4,167.1h7v7h-7V167.1z M566.4,159.9h7v7h-7V159.9z M566.4,152.6h7v7h-7
		V152.6z M566.4,145.4h7v7h-7V145.4z M566.4,138.1h7v7h-7V138.1z M573.7,174.4h7v7h-7V174.4z M573.7,167.1h7v7h-7V167.1z
		 M573.7,159.9h7v7h-7V159.9z M573.7,152.6h7v7h-7V152.6z M573.7,145.4h7v7h-7V145.4z M573.7,138.1h7v7h-7V138.1z M580.9,167.1h7v7
		h-7V167.1z M580.9,159.9h7v7h-7V159.9z M580.9,152.6h7v7h-7V152.6z M580.9,145.4h7v7h-7V145.4z M580.9,138.1h7v7h-7V138.1z
		 M588.2,174.4h7v7h-7V174.4z M588.2,167.1h7v7h-7V167.1z M588.2,159.9h7v7h-7V159.9z M588.2,152.6h7v7h-7V152.6z M588.2,145.4h7v7
		h-7V145.4z M588.2,138.1h7v7h-7V138.1z M595.4,174.4h7v7h-7V174.4z M595.4,167.1h7v7h-7V167.1z M595.4,159.9h7v7h-7V159.9z
		 M595.4,152.6h7v7h-7V152.6z M595.4,145.4h7v7h-7V145.4z M595.4,138.1h7v7h-7V138.1z M602.7,174.4h7v7h-7V174.4z M602.7,167.1h7v7
		h-7V167.1z M602.7,159.9h7v7h-7V159.9z M602.7,152.6h7v7h-7V152.6z M602.7,145.4h7v7h-7V145.4z M602.7,138.1h7v7h-7V138.1z
		 M610,174.4h7v7h-7V174.4z M610,167.1h7v7h-7V167.1z M610,159.9h7v7h-7V159.9z M610,152.6h7v7h-7V152.6z M610,145.4h7v7h-7V145.4z
		 M610,138.1h7v7h-7V138.1z M617.2,174.4h7v7h-7V174.4z M617.2,167.1h7v7h-7V167.1z M617.2,159.9h7v7h-7V159.9z M617.2,152.6h7v7h-7
		V152.6z M617.2,145.4h7v7h-7V145.4z M617.2,138.1h7v7h-7V138.1z M624.5,174.4h7v7h-7V174.4z M624.5,167.1h7v7h-7V167.1z
		 M624.5,159.9h7v7h-7V159.9z M624.5,152.6h7v7h-7V152.6z M624.5,145.4h7v7h-7V145.4z M624.5,138.1h7v7h-7V138.1z M631.7,174.4h7v7
		h-7V174.4z M631.7,167.1h7v7h-7V167.1z M631.7,159.9h7v7h-7V159.9z M631.7,152.6h7v7h-7V152.6z M631.7,138.1h7v7h-7V138.1z
		 M639,138.1h7v7h-7V138.1z M566.4,130.8h7v7h-7V130.8z M566.4,123.6h7v7h-7V123.6z M566.4,116.3h7v7h-7V116.3z M566.4,109h7v7h-7
		V109z M566.4,101.8h7v7h-7V101.8z M566.4,94.5h7v7h-7V94.5z M566.4,80h7v7h-7V80z M566.4,72.8h7v7h-7V72.8z M566.4,65.5h7v7h-7
		V65.5z M573.7,130.8h7v7h-7V130.8z M573.7,123.6h7v7h-7V123.6z M573.7,116.3h7v7h-7V116.3z M573.7,109h7v7h-7V109z M573.7,101.8h7
		v7h-7V101.8z M573.7,94.5h7v7h-7V94.5z M573.7,87.3h7v7h-7V87.3z M573.7,80h7v7h-7V80z M573.7,72.8h7v7h-7V72.8z M573.7,65.5h7v7
		h-7V65.5z M580.9,130.8h7v7h-7V130.8z M580.9,123.6h7v7h-7V123.6z M580.9,116.3h7v7h-7V116.3z M580.9,109h7v7h-7V109z M580.9,101.8
		h7v7h-7V101.8z M580.9,94.5h7v7h-7V94.5z M580.9,87.3h7v7h-7V87.3z M580.9,80h7v7h-7V80z M580.9,72.8h7v7h-7V72.8z M580.9,65.5h7v7
		h-7V65.5z M588.2,130.8h7v7h-7V130.8z M588.2,123.6h7v7h-7V123.6z M588.2,116.3h7v7h-7V116.3z M588.2,109h7v7h-7V109z M588.2,101.8
		h7v7h-7V101.8z M588.2,94.5h7v7h-7V94.5z M588.2,80h7v7h-7V80z M588.2,72.8h7v7h-7V72.8z M588.2,65.5h7v7h-7V65.5z M595.4,130.8h7
		v7h-7V130.8z M595.4,123.6h7v7h-7V123.6z M595.4,116.3h7v7h-7V116.3z M595.4,109h7v7h-7V109z M595.4,101.8h7v7h-7V101.8z
		 M595.4,94.5h7v7h-7V94.5z M595.4,87.3h7v7h-7V87.3z M595.4,80h7v7h-7V80z M595.4,72.8h7v7h-7V72.8z M595.4,65.5h7v7h-7V65.5z
		 M602.7,130.8h7v7h-7V130.8z M602.7,123.6h7v7h-7V123.6z M602.7,116.3h7v7h-7V116.3z M602.7,109h7v7h-7V109z M602.7,101.8h7v7h-7
		V101.8z M602.7,94.5h7v7h-7V94.5z M602.7,87.3h7v7h-7V87.3z M602.7,80h7v7h-7V80z M602.7,72.8h7v7h-7V72.8z M602.7,65.5h7v7h-7
		V65.5z M610,130.8h7v7h-7V130.8z M610,123.6h7v7h-7V123.6z M610,116.3h7v7h-7V116.3z M610,109h7v7h-7V109z M610,101.8h7v7h-7V101.8
		z M610,94.5h7v7h-7V94.5z M610,80h7v7h-7V80z M610,72.8h7v7h-7V72.8z M610,65.5h7v7h-7V65.5z M617.2,130.8h7v7h-7V130.8z
		 M617.2,123.6h7v7h-7V123.6z M617.2,116.3h7v7h-7V116.3z M617.2,109h7v7h-7V109z M617.2,101.8h7v7h-7V101.8z M617.2,94.5h7v7h-7
		V94.5z M617.2,87.3h7v7h-7V87.3z M617.2,80h7v7h-7V80z M617.2,72.8h7v7h-7V72.8z M617.2,65.5h7v7h-7V65.5z M624.5,130.8h7v7h-7
		V130.8z M624.5,123.6h7v7h-7V123.6z M624.5,116.3h7v7h-7V116.3z M624.5,109h7v7h-7V109z M624.5,101.8h7v7h-7V101.8z M624.5,94.5h7
		v7h-7V94.5z M624.5,87.3h7v7h-7V87.3z M624.5,80h7v7h-7V80z M624.5,72.8h7v7h-7V72.8z M624.5,65.5h7v7h-7V65.5z M631.7,130.8h7v7
		h-7V130.8z M631.7,123.6h7v7h-7V123.6z M631.7,116.3h7v7h-7V116.3z M631.7,109h7v7h-7V109z M631.7,101.8h7v7h-7V101.8z M631.7,94.5
		h7v7h-7V94.5z M631.7,80h7v7h-7V80z M631.7,65.5h7v7h-7V65.5z M566.4,58.2h7v7h-7V58.2z M566.4,51h7v7h-7V51z M566.4,43.7h7v7h-7
		V43.7z M566.4,36.4h7v7h-7V36.4z M566.4,29.2h7v7h-7V29.2z M566.4,21.9h7v7h-7V21.9z M566.4,7.4h7v7h-7V7.4z M573.7,51h7v7h-7V51z
		 M573.7,43.7h7v7h-7V43.7z M573.7,36.4h7v7h-7V36.4z M573.7,21.9h7v7h-7V21.9z M573.7,14.7h7v7h-7V14.7z M573.7,7.4h7v7h-7V7.4z
		 M580.9,58.2h7v7h-7V58.2z M580.9,51h7v7h-7V51z M580.9,43.7h7v7h-7V43.7z M580.9,29.2h7v7h-7V29.2z M580.9,21.9h7v7h-7V21.9z
		 M580.9,14.7h7v7h-7V14.7z M580.9,7.4h7v7h-7V7.4z M588.2,51h7v7h-7V51z M588.2,43.7h7v7h-7V43.7z M588.2,29.2h7v7h-7V29.2z
		 M588.2,21.9h7v7h-7V21.9z M588.2,7.4h7v7h-7V7.4z M595.4,58.2h7v7h-7V58.2z M595.4,51h7v7h-7V51z M595.4,43.7h7v7h-7V43.7z
		 M595.4,36.4h7v7h-7V36.4z M595.4,29.2h7v7h-7V29.2z M595.4,21.9h7v7h-7V21.9z M595.4,14.7h7v7h-7V14.7z M595.4,7.4h7v7h-7V7.4z
		 M602.7,51h7v7h-7V51z M602.7,43.7h7v7h-7V43.7z M602.7,36.4h7v7h-7V36.4z M602.7,21.9h7v7h-7V21.9z M602.7,14.7h7v7h-7V14.7z
		 M602.7,7.4h7v7h-7V7.4z M610,58.2h7v7h-7V58.2z M610,51h7v7h-7V51z M610,36.4h7v7h-7V36.4z M610,29.2h7v7h-7V29.2z M610,21.9h7v7
		h-7V21.9z M610,14.7h7v7h-7V14.7z M617.2,51h7v7h-7V51z M617.2,36.4h7v7h-7V36.4z M617.2,29.2h7v7h-7V29.2z M624.5,58.2h7v7h-7
		V58.2z M624.5,51h7v7h-7V51z M624.5,43.7h7v7h-7V43.7z M624.5,36.4h7v7h-7V36.4z M624.5,29.2h7v7h-7V29.2z M631.7,51h7v7h-7V51z
		 M631.7,43.7h7v7h-7V43.7z M631.7,36.4h7v7h-7V36.4z M631.7,29.2h7v7h-7V29.2z M631.7,21.9h7v7h-7V21.9z M631.7,14.7h7v7h-7V14.7z
		 M639,167.1h7v7h-7V167.1z M639,159.9h7v7h-7V159.9z M639,152.6h7v7h-7V152.6z M639,145.4h7v7h-7V145.4z M639,130.8h7v7h-7V130.8z
		 M639,123.6h7v7h-7V123.6z M639,116.3h7v7h-7V116.3z M639,109h7v7h-7V109z M639,101.8h7v7h-7V101.8z M639,94.5h7v7h-7V94.5z
		 M639,87.3h7v7h-7V87.3z M639,80h7v7h-7V80z M639,72.8h7v7h-7V72.8z M639,65.5h7v7h-7V65.5z M653.5,101.8h7v7h-7V101.8z
		 M653.5,87.3h7v7h-7V87.3z M653.5,72.8h7v7h-7V72.8z M660.8,101.8h7v7h-7V101.8z M660.8,94.5h7v7h-7V94.5z M660.8,87.3h7v7h-7V87.3
		z M660.8,80h7v7h-7V80z M660.8,72.8h7v7h-7V72.8z M660.8,65.5h7v7h-7V65.5z M639,58.2h7v7h-7V58.2z M639,51h7v7h-7V51z M639,43.7h7
		v7h-7V43.7z M639,36.4h7v7h-7V36.4z M639,29.2h7v7h-7V29.2z M639,21.9h7v7h-7V21.9z M639,14.7h7v7h-7V14.7z M646.3,58.2h7v7h-7
		V58.2z M646.3,51h7v7h-7V51z M646.3,43.7h7v7h-7V43.7z M646.3,36.4h7v7h-7V36.4z M646.3,29.2h7v7h-7V29.2z M646.3,21.9h7v7h-7V21.9
		z M646.3,14.7h7v7h-7V14.7z M653.5,58.2h7v7h-7V58.2z M653.5,51h7v7h-7V51z M653.5,43.7h7v7h-7V43.7z M653.5,36.4h7v7h-7V36.4z
		 M653.5,29.2h7v7h-7V29.2z M653.5,21.9h7v7h-7V21.9z M653.5,14.7h7v7h-7V14.7z M660.8,58.2h7v7h-7V58.2z M660.8,36.4h7v7h-7V36.4z
		 M660.8,29.2h7v7h-7V29.2z M65.5,0.2h7v7h-7V0.2z M72.7,0.2h7v7h-7V0.2z M80,0.2h7v7h-7V0.2z M174.4,0.2h7v7h-7V0.2z M181.6,0.2h7
		v7h-7V0.2z M188.9,0.2h7v7h-7V0.2z M479.3,0.2h7v7h-7V0.2z M486.5,0.2h7v7h-7V0.2z M493.8,0.2h7v7h-7V0.2z M580.9,0.2h7v7h-7V0.2z
		 M588.2,0.2h7v7h-7V0.2z M595.4,0.2h7v7h-7V0.2z"/>
</g>
</svg>
