<?xml version="1.0" encoding="utf-8"?>
<!-- Generator: Adobe Illustrator 27.3.1, SVG Export Plug-In . SVG Version: 6.00 Build 0)  -->
<svg version="1.1" id="Слой_1" xmlns="http://www.w3.org/2000/svg" xmlns:xlink="http://www.w3.org/1999/xlink" x="0px" y="0px"
	 viewBox="0 0 747.7 145" style="enable-background:new 0 0 747.7 145;" xml:space="preserve">
<style type="text/css">
	.st0{fill:#1E0E01;}
</style>
<path class="st0" d="M21.8,7.3h7v7h-7V7.3z M29,0h7v7h-7V0z M29,7.3h7v7h-7V7.3z M0,36.4h7v7H0V36.4z M0,43.6h7v7H0V43.6z M0,50.9h7
	v7H0V50.9z M0,58.1h7v7H0V58.1z M0,65.4h7v7H0V65.4z M0,72.6h7v7H0V72.6z M7.3,21.8h7v7h-7V21.8z M7.3,29.1h7v7h-7V29.1z M7.3,36.4
	h7v7h-7V36.4z M7.3,43.6h7v7h-7V43.6z M7.3,50.9h7v7h-7V50.9z M7.3,58.1h7v7h-7V58.1z M7.3,65.4h7v7h-7V65.4z M14.5,14.6h7v7h-7
	V14.6z M14.5,21.8h7v7h-7V21.8z M14.5,29.1h7v7h-7V29.1z M14.5,36.4h7v7h-7V36.4z M14.5,43.6h7v7h-7V43.6z M14.5,50.9h7v7h-7V50.9z
	 M14.5,58.1h7v7h-7V58.1z M14.5,65.4h7v7h-7V65.4z M14.5,72.6h7v7h-7V72.6z M14.5,79.9h7v7h-7V79.9z M21.8,14.6h7v7h-7V14.6z
	 M21.8,21.8h7v7h-7V21.8z M21.8,29.1h7v7h-7V29.1z M21.8,36.4h7v7h-7V36.4z M21.8,43.6h7v7h-7V43.6z M21.8,50.9h7v7h-7V50.9z
	 M21.8,58.1h7v7h-7V58.1z M21.8,65.4h7v7h-7V65.4z M21.8,72.6h7v7h-7V72.6z M21.8,79.9h7v7h-7V79.9z M29,14.6h7v7h-7V14.6z M29,21.8
	h7v7h-7V21.8z M29,29.1h7v7h-7V29.1z M29,36.4h7v7h-7V36.4z M29,43.6h7v7h-7V43.6z M29,50.9h7v7h-7V50.9z M29,58.1h7v7h-7V58.1z
	 M29,65.4h7v7h-7V65.4z M29,72.6h7v7h-7V72.6z M29,79.9h7v7h-7V79.9z M14.5,87.2h7v7h-7V87.2z M14.5,94.4h7v7h-7V94.4z M21.8,87.2h7
	v7h-7V87.2z M29,87.2h7v7h-7V87.2z M29,94.4h7v7h-7V94.4z M29,101.7h7v7h-7V101.7z M29,109h7v7h-7V109z M29,116.2h7v7h-7V116.2z
	 M36.3,36.4h7v7h-7V36.4z M36.3,43.6h7v7h-7V43.6z M36.3,50.9h7v7h-7V50.9z M36.3,58.1h7v7h-7V58.1z M36.3,65.4h7v7h-7V65.4z
	 M36.3,72.6h7v7h-7V72.6z M36.3,79.9h7v7h-7V79.9z M43.6,50.9h7v7h-7V50.9z M43.6,58.1h7v7h-7V58.1z M43.6,65.4h7v7h-7V65.4z
	 M43.6,72.6h7v7h-7V72.6z M43.6,79.9h7v7h-7V79.9z M50.8,65.4h7v7h-7V65.4z M50.8,72.6h7v7h-7V72.6z M50.8,79.9h7v7h-7V79.9z
	 M58.1,72.6h7v7h-7V72.6z M58.1,79.9h7v7h-7V79.9z M65.3,72.6h7v7h-7V72.6z M65.3,79.9h7v7h-7V79.9z M72.6,65.4h7v7h-7V65.4z
	 M72.6,72.6h7v7h-7V72.6z M72.6,79.9h7v7h-7V79.9z M79.9,72.6h7v7h-7V72.6z M79.9,79.9h7v7h-7V79.9z M87.1,79.9h7v7h-7V79.9z
	 M94.4,72.6h7v7h-7V72.6z M94.4,79.9h7v7h-7V79.9z M101.6,65.4h7v7h-7V65.4z M101.6,72.6h7v7h-7V72.6z M101.6,79.9h7v7h-7V79.9z
	 M36.3,87.2h7v7h-7V87.2z M36.3,94.4h7v7h-7V94.4z M36.3,101.7h7v7h-7V101.7z M36.3,109h7v7h-7V109z M43.6,87.2h7v7h-7V87.2z
	 M43.6,94.4h7v7h-7V94.4z M43.6,101.7h7v7h-7V101.7z M50.8,87.2h7v7h-7V87.2z M50.8,94.4h7v7h-7V94.4z M50.8,101.7h7v7h-7V101.7z
	 M50.8,109h7v7h-7V109z M58.1,87.2h7v7h-7V87.2z M58.1,94.4h7v7h-7V94.4z M58.1,101.7h7v7h-7V101.7z M58.1,109h7v7h-7V109z
	 M58.1,116.2h7v7h-7V116.2z M58.1,123.5h7v7h-7V123.5z M65.3,87.2h7v7h-7V87.2z M65.3,94.4h7v7h-7V94.4z M65.3,101.7h7v7h-7V101.7z
	 M65.3,109h7v7h-7V109z M65.3,123.5h7v7h-7V123.5z M65.3,130.7h7v7h-7V130.7z M72.6,87.2h7v7h-7V87.2z M72.6,116.2h7v7h-7V116.2z
	 M72.6,130.7h7v7h-7V130.7z M72.6,138h7v7h-7V138z M79.9,87.2h7v7h-7V87.2z M79.9,101.7h7v7h-7V101.7z M79.9,109h7v7h-7V109z
	 M79.9,116.2h7v7h-7V116.2z M79.9,138h7v7h-7V138z M87.1,87.2h7v7h-7V87.2z M87.1,94.4h7v7h-7V94.4z M87.1,101.7h7v7h-7V101.7z
	 M87.1,109h7v7h-7V109z M87.1,116.2h7v7h-7V116.2z M87.1,130.7h7v7h-7V130.7z M87.1,138h7v7h-7V138z M94.4,87.2h7v7h-7V87.2z
	 M94.4,101.7h7v7h-7V101.7z M94.4,109h7v7h-7V109z M94.4,116.2h7v7h-7V116.2z M94.4,138h7v7h-7V138z M101.6,87.2h7v7h-7V87.2z
	 M101.6,116.2h7v7h-7V116.2z M101.6,130.7h7v7h-7V130.7z M101.6,138h7v7h-7V138z M145.2,0h7v7h-7V0z M145.2,7.3h7v7h-7V7.3z
	 M152.5,7.3h7v7h-7V7.3z M108.9,72.6h7v7h-7V72.6z M108.9,79.9h7v7h-7V79.9z M116.2,72.6h7v7h-7V72.6z M116.2,79.9h7v7h-7V79.9z
	 M123.4,65.4h7v7h-7V65.4z M123.4,72.6h7v7h-7V72.6z M123.4,79.9h7v7h-7V79.9z M130.7,50.9h7v7h-7V50.9z M130.7,58.1h7v7h-7V58.1z
	 M130.7,65.4h7v7h-7V65.4z M130.7,72.6h7v7h-7V72.6z M130.7,79.9h7v7h-7V79.9z M137.9,36.4h7v7h-7V36.4z M137.9,43.6h7v7h-7V43.6z
	 M137.9,50.9h7v7h-7V50.9z M137.9,58.1h7v7h-7V58.1z M137.9,65.4h7v7h-7V65.4z M137.9,72.6h7v7h-7V72.6z M137.9,79.9h7v7h-7V79.9z
	 M145.2,14.6h7v7h-7V14.6z M145.2,21.8h7v7h-7V21.8z M145.2,29.1h7v7h-7V29.1z M145.2,36.4h7v7h-7V36.4z M145.2,43.6h7v7h-7V43.6z
	 M145.2,50.9h7v7h-7V50.9z M145.2,58.1h7v7h-7V58.1z M145.2,65.4h7v7h-7V65.4z M145.2,72.6h7v7h-7V72.6z M145.2,79.9h7v7h-7V79.9z
	 M152.5,14.6h7v7h-7V14.6z M152.5,21.8h7v7h-7V21.8z M152.5,29.1h7v7h-7V29.1z M152.5,36.4h7v7h-7V36.4z M152.5,43.6h7v7h-7V43.6z
	 M152.5,50.9h7v7h-7V50.9z M152.5,58.1h7v7h-7V58.1z M152.5,65.4h7v7h-7V65.4z M152.5,72.6h7v7h-7V72.6z M152.5,79.9h7v7h-7V79.9z
	 M159.7,14.6h7v7h-7V14.6z M159.7,21.8h7v7h-7V21.8z M159.7,29.1h7v7h-7V29.1z M159.7,36.4h7v7h-7V36.4z M159.7,43.6h7v7h-7V43.6z
	 M159.7,50.9h7v7h-7V50.9z M159.7,58.1h7v7h-7V58.1z M159.7,65.4h7v7h-7V65.4z M159.7,72.6h7v7h-7V72.6z M159.7,79.9h7v7h-7V79.9z
	 M167,21.8h7v7h-7V21.8z M167,29.1h7v7h-7V29.1z M167,36.4h7v7h-7V36.4z M167,43.6h7v7h-7V43.6z M167,50.9h7v7h-7V50.9z M167,58.1h7
	v7h-7V58.1z M167,65.4h7v7h-7V65.4z M174.2,36.4h7v7h-7V36.4z M174.2,43.6h7v7h-7V43.6z M174.2,50.9h7v7h-7V50.9z M174.2,58.1h7v7
	h-7V58.1z M174.2,65.4h7v7h-7V65.4z M174.2,72.6h7v7h-7V72.6z M108.9,87.2h7v7h-7V87.2z M108.9,94.4h7v7h-7V94.4z M108.9,101.7h7v7
	h-7V101.7z M108.9,109h7v7h-7V109z M108.9,123.5h7v7h-7V123.5z M108.9,130.7h7v7h-7V130.7z M116.2,87.2h7v7h-7V87.2z M116.2,94.4h7
	v7h-7V94.4z M116.2,101.7h7v7h-7V101.7z M116.2,109h7v7h-7V109z M116.2,116.2h7v7h-7V116.2z M116.2,123.5h7v7h-7V123.5z M123.4,87.2
	h7v7h-7V87.2z M123.4,94.4h7v7h-7V94.4z M123.4,101.7h7v7h-7V101.7z M123.4,109h7v7h-7V109z M130.7,87.2h7v7h-7V87.2z M130.7,94.4h7
	v7h-7V94.4z M130.7,101.7h7v7h-7V101.7z M137.9,87.2h7v7h-7V87.2z M137.9,94.4h7v7h-7V94.4z M137.9,101.7h7v7h-7V101.7z M137.9,109
	h7v7h-7V109z M145.2,87.2h7v7h-7V87.2z M145.2,94.4h7v7h-7V94.4z M145.2,101.7h7v7h-7V101.7z M145.2,109h7v7h-7V109z M145.2,116.2h7
	v7h-7V116.2z M152.5,87.2h7v7h-7V87.2z M159.7,87.2h7v7h-7V87.2z M159.7,94.4h7v7h-7V94.4z M188.7,14.7h7v7h-7V14.7z M188.7,21.9h7
	v7h-7V21.9z M188.7,29.2h7v7h-7V29.2z M188.7,36.4h7v7h-7V36.4z M188.7,43.7h7v7h-7V43.7z M188.7,50.9h7v7h-7V50.9z M188.7,58.2h7v7
	h-7V58.2z M203.2,0.1h7v7h-7V0.1z M196,7.4h7v7h-7V7.4z M196,14.7h7v7h-7V14.7z M196,21.9h7v7h-7V21.9z M196,29.2h7v7h-7V29.2z
	 M196,36.4h7v7h-7V36.4z M196,43.7h7v7h-7V43.7z M196,50.9h7v7h-7V50.9z M196,58.2h7v7h-7V58.2z M203.2,7.4h7v7h-7V7.4z M203.2,14.7
	h7v7h-7V14.7z M203.2,21.9h7v7h-7V21.9z M203.2,29.2h7v7h-7V29.2z M203.2,36.4h7v7h-7V36.4z M203.2,43.7h7v7h-7V43.7z M203.2,50.9h7
	v7h-7V50.9z M203.2,58.2h7v7h-7V58.2z M210.5,29.2h7v7h-7V29.2z M210.5,36.4h7v7h-7V36.4z M210.5,43.7h7v7h-7V43.7z M210.5,50.9h7v7
	h-7V50.9z M210.5,58.2h7v7h-7V58.2z M217.7,36.4h7v7h-7V36.4z M217.7,43.7h7v7h-7V43.7z M217.7,50.9h7v7h-7V50.9z M217.7,58.2h7v7
	h-7V58.2z M188.7,65.5h7v7h-7V65.5z M188.7,72.7h7v7h-7V72.7z M196,65.5h7v7h-7V65.5z M203.2,65.5h7v7h-7V65.5z M203.2,72.7h7v7h-7
	V72.7z M203.2,80h7v7h-7V80z M203.2,87.3h7v7h-7V87.3z M210.5,65.5h7v7h-7V65.5z M210.5,72.7h7v7h-7V72.7z M210.5,80h7v7h-7V80z
	 M210.5,87.3h7v7h-7V87.3z M210.5,94.5h7v7h-7V94.5z M217.7,65.5h7v7h-7V65.5z M217.7,72.7h7v7h-7V72.7z M217.7,80h7v7h-7V80z
	 M217.7,87.3h7v7h-7V87.3z M225,43.7h7v7h-7V43.7z M225,50.9h7v7h-7V50.9z M225,58.2h7v7h-7V58.2z M232.3,58.2h7v7h-7V58.2z
	 M239.5,58.2h7v7h-7V58.2z M246.8,58.2h7v7h-7V58.2z M254,50.9h7v7h-7V50.9z M254,58.2h7v7h-7V58.2z M261.3,58.2h7v7h-7V58.2z
	 M268.6,58.2h7v7h-7V58.2z M225,65.5h7v7h-7V65.5z M225,72.7h7v7h-7V72.7z M225,80h7v7h-7V80z M225,87.3h7v7h-7V87.3z M225,94.5h7v7
	h-7V94.5z M225,101.8h7v7h-7V101.8z M225,109h7v7h-7V109z M232.3,65.5h7v7h-7V65.5z M232.3,72.7h7v7h-7V72.7z M232.3,80h7v7h-7V80z
	 M232.3,87.3h7v7h-7V87.3z M232.3,94.5h7v7h-7V94.5z M232.3,101.8h7v7h-7V101.8z M239.5,65.5h7v7h-7V65.5z M239.5,72.7h7v7h-7V72.7z
	 M239.5,80h7v7h-7V80z M239.5,87.3h7v7h-7V87.3z M239.5,94.5h7v7h-7V94.5z M246.8,65.5h7v7h-7V65.5z M246.8,72.7h7v7h-7V72.7z
	 M246.8,80h7v7h-7V80z M246.8,87.3h7v7h-7V87.3z M246.8,94.5h7v7h-7V94.5z M246.8,101.8h7v7h-7V101.8z M246.8,109h7v7h-7V109z
	 M254,65.5h7v7h-7V65.5z M254,72.7h7v7h-7V72.7z M254,80h7v7h-7V80z M254,87.3h7v7h-7V87.3z M254,94.5h7v7h-7V94.5z M254,109h7v7h-7
	V109z M254,116.3h7v7h-7V116.3z M261.3,65.5h7v7h-7V65.5z M261.3,72.7h7v7h-7V72.7z M261.3,101.8h7v7h-7V101.8z M261.3,116.3h7v7h-7
	V116.3z M268.6,65.5h7v7h-7V65.5z M268.6,72.7h7v7h-7V72.7z M268.6,87.3h7v7h-7V87.3z M268.6,94.5h7v7h-7V94.5z M268.6,101.8h7v7h-7
	V101.8z M275.8,65.5h7v7h-7V65.5z M275.8,72.7h7v7h-7V72.7z M275.8,80h7v7h-7V80z M275.8,87.3h7v7h-7V87.3z M275.8,94.5h7v7h-7V94.5
	z M275.8,101.8h7v7h-7V101.8z M275.8,116.3h7v7h-7V116.3z M261.3,123.5h7v7h-7V123.5z M268.6,123.5h7v7h-7V123.5z M370,21.7h-7v-7h7
	V21.7z M370,28.9h-7v-7h7V28.9z M370,36.2h-7v-7h7V36.2z M370,43.4h-7v-7h7V43.4z M370,50.7h-7v-7h7V50.7z M370,57.9h-7v-7h7V57.9z
	 M370,65.2h-7v-7h7V65.2z M355.5,7.1h-7v-7h7V7.1z M362.7,14.4h-7v-7h7V14.4z M362.7,21.7h-7v-7h7V21.7z M362.7,28.9h-7v-7h7V28.9z
	 M362.7,36.2h-7v-7h7V36.2z M362.7,43.4h-7v-7h7V43.4z M362.7,50.7h-7v-7h7V50.7z M362.7,57.9h-7v-7h7V57.9z M362.7,65.2h-7v-7h7
	V65.2z M355.5,14.4h-7v-7h7V14.4z M355.5,21.7h-7v-7h7V21.7z M355.5,28.9h-7v-7h7V28.9z M355.5,36.2h-7v-7h7V36.2z M355.5,43.4h-7
	v-7h7V43.4z M355.5,50.7h-7v-7h7V50.7z M355.5,57.9h-7v-7h7V57.9z M355.5,65.2h-7v-7h7V65.2z M348.2,36.2h-7v-7h7V36.2z M348.2,43.4
	h-7v-7h7V43.4z M348.2,50.7h-7v-7h7V50.7z M348.2,57.9h-7v-7h7V57.9z M348.2,65.2h-7v-7h7V65.2z M341,43.4h-7v-7h7V43.4z M341,50.7
	h-7v-7h7V50.7z M341,57.9h-7v-7h7V57.9z M341,65.2h-7v-7h7V65.2z M370,72.5h-7v-7h7V72.5z M370,79.7h-7v-7h7V79.7z M362.7,72.5h-7
	v-7h7V72.5z M355.5,72.5h-7v-7h7V72.5z M355.5,79.7h-7v-7h7V79.7z M355.5,87h-7v-7h7V87z M355.5,94.3h-7v-7h7V94.3z M348.2,72.5h-7
	v-7h7V72.5z M348.2,79.7h-7v-7h7V79.7z M348.2,87h-7v-7h7V87z M348.2,94.3h-7v-7h7V94.3z M348.2,101.5h-7v-7h7V101.5z M341,72.5h-7
	v-7h7V72.5z M341,79.7h-7v-7h7V79.7z M341,87h-7v-7h7V87z M341,94.3h-7v-7h7V94.3z M333.7,50.7h-7v-7h7V50.7z M333.7,57.9h-7v-7h7
	V57.9z M333.7,65.2h-7v-7h7V65.2z M326.4,65.2h-7v-7h7V65.2z M319.2,65.2h-7v-7h7V65.2z M311.9,65.2h-7v-7h7V65.2z M304.7,57.9h-7
	v-7h7V57.9z M304.7,65.2h-7v-7h7V65.2z M297.4,65.2h-7v-7h7V65.2z M290.1,65.2h-7v-7h7V65.2z M333.7,72.5h-7v-7h7V72.5z M333.7,79.7
	h-7v-7h7V79.7z M333.7,87h-7v-7h7V87z M333.7,94.3h-7v-7h7V94.3z M333.7,101.5h-7v-7h7V101.5z M333.7,108.8h-7v-7h7V108.8z
	 M333.7,116h-7v-7h7V116z M326.4,72.5h-7v-7h7V72.5z M326.4,79.7h-7v-7h7V79.7z M326.4,87h-7v-7h7V87z M326.4,94.3h-7v-7h7V94.3z
	 M326.4,101.5h-7v-7h7V101.5z M326.4,108.8h-7v-7h7V108.8z M319.2,72.5h-7v-7h7V72.5z M319.2,79.7h-7v-7h7V79.7z M319.2,87h-7v-7h7
	V87z M319.2,94.3h-7v-7h7V94.3z M319.2,101.5h-7v-7h7V101.5z M311.9,72.5h-7v-7h7V72.5z M311.9,79.7h-7v-7h7V79.7z M311.9,87h-7v-7
	h7V87z M311.9,94.3h-7v-7h7V94.3z M311.9,101.5h-7v-7h7V101.5z M311.9,108.8h-7v-7h7V108.8z M311.9,116h-7v-7h7V116z M304.7,72.5h-7
	v-7h7V72.5z M304.7,79.7h-7v-7h7V79.7z M304.7,87h-7v-7h7V87z M304.7,94.3h-7v-7h7V94.3z M304.7,101.5h-7v-7h7V101.5z M304.7,116h-7
	v-7h7V116z M304.7,123.3h-7v-7h7V123.3z M297.4,72.5h-7v-7h7V72.5z M297.4,79.7h-7v-7h7V79.7z M297.4,108.8h-7v-7h7V108.8z
	 M297.4,123.3h-7v-7h7V123.3z M290.1,72.5h-7v-7h7V72.5z M290.1,79.7h-7v-7h7V79.7z M290.1,94.3h-7v-7h7V94.3z M290.1,101.5h-7v-7h7
	V101.5z M290.1,108.8h-7v-7h7V108.8z M297.4,130.5h-7v-7h7V130.5z M290.1,130.5h-7v-7h7V130.5z M275.8,123.5h7v7h-7V123.5z
	 M377.6,29.2h7v7h-7V29.2z M377.6,36.4h7v7h-7V36.4z M377.6,43.7h7v7h-7V43.7z M377.6,50.9h7v7h-7V50.9z M377.6,58.2h7v7h-7V58.2z
	 M377.6,65.4h7v7h-7V65.4z M377.6,72.7h7v7h-7V72.7z M384.8,21.9h7v7h-7V21.9z M384.8,29.2h7v7h-7V29.2z M384.8,36.4h7v7h-7V36.4z
	 M384.8,43.7h7v7h-7V43.7z M384.8,50.9h7v7h-7V50.9z M384.8,58.2h7v7h-7V58.2z M384.8,65.4h7v7h-7V65.4z M384.8,72.7h7v7h-7V72.7z
	 M392.1,7.4h7v7h-7V7.4z M392.1,14.6h7v7h-7V14.6z M392.1,21.9h7v7h-7V21.9z M392.1,29.2h7v7h-7V29.2z M392.1,36.4h7v7h-7V36.4z
	 M392.1,43.7h7v7h-7V43.7z M392.1,50.9h7v7h-7V50.9z M392.1,58.2h7v7h-7V58.2z M392.1,65.4h7v7h-7V65.4z M392.1,72.7h7v7h-7V72.7z
	 M399.4,14.6h7v7h-7V14.6z M399.4,21.9h7v7h-7V21.9z M399.4,29.2h7v7h-7V29.2z M399.4,36.4h7v7h-7V36.4z M399.4,43.7h7v7h-7V43.7z
	 M399.4,50.9h7v7h-7V50.9z M399.4,58.2h7v7h-7V58.2z M399.4,65.4h7v7h-7V65.4z M399.4,72.7h7v7h-7V72.7z M406.6,21.9h7v7h-7V21.9z
	 M406.6,29.2h7v7h-7V29.2z M406.6,36.4h7v7h-7V36.4z M406.6,43.7h7v7h-7V43.7z M406.6,50.9h7v7h-7V50.9z M406.6,58.2h7v7h-7V58.2z
	 M406.6,65.4h7v7h-7V65.4z M406.6,72.7h7v7h-7V72.7z M413.9,29.2h7v7h-7V29.2z M413.9,36.4h7v7h-7V36.4z M413.9,43.7h7v7h-7V43.7z
	 M413.9,50.9h7v7h-7V50.9z M413.9,58.2h7v7h-7V58.2z M413.9,65.4h7v7h-7V65.4z M413.9,72.7h7v7h-7V72.7z M421.1,36.4h7v7h-7V36.4z
	 M421.1,43.7h7v7h-7V43.7z M421.1,50.9h7v7h-7V50.9z M421.1,58.2h7v7h-7V58.2z M421.1,65.4h7v7h-7V65.4z M421.1,72.7h7v7h-7V72.7z
	 M377.6,80h7v7h-7V80z M377.6,87.2h7v7h-7V87.2z M384.8,80h7v7h-7V80z M399.4,80h7v7h-7V80z M399.4,87.2h7v7h-7V87.2z M399.4,94.5h7
	v7h-7V94.5z M406.6,80h7v7h-7V80z M406.6,87.2h7v7h-7V87.2z M413.9,80h7v7h-7V80z M413.9,87.2h7v7h-7V87.2z M413.9,94.5h7v7h-7V94.5
	z M413.9,101.8h7v7h-7V101.8z M413.9,109h7v7h-7V109z M421.1,80h7v7h-7V80z M421.1,87.2h7v7h-7V87.2z M421.1,94.5h7v7h-7V94.5z
	 M421.1,101.8h7v7h-7V101.8z M428.4,43.7h7v7h-7V43.7z M428.4,50.9h7v7h-7V50.9z M428.4,58.2h7v7h-7V58.2z M428.4,65.4h7v7h-7V65.4z
	 M428.4,72.7h7v7h-7V72.7z M435.7,36.4h7v7h-7V36.4z M435.7,43.7h7v7h-7V43.7z M435.7,50.9h7v7h-7V50.9z M435.7,58.2h7v7h-7V58.2z
	 M435.7,65.4h7v7h-7V65.4z M435.7,72.7h7v7h-7V72.7z M443,43.6h7v7h-7V43.6z M443,50.9h7v7h-7V50.9z M443,58.1h7v7h-7V58.1z
	 M443,65.4h7v7h-7V65.4z M450.3,43.6h7v7h-7V43.6z M450.3,50.9h7v7h-7V50.9z M457.5,36.4h7v7h-7V36.4z M457.5,43.6h7v7h-7V43.6z
	 M457.5,50.9h7v7h-7V50.9z M457.5,65.4h7v7h-7V65.4z M464.8,43.6h7v7h-7V43.6z M464.8,50.9h7v7h-7V50.9z M464.8,58.1h7v7h-7V58.1z
	 M464.8,65.4h7v7h-7V65.4z M428.4,80h7v7h-7V80z M428.4,87.2h7v7h-7V87.2z M428.4,94.5h7v7h-7V94.5z M435.7,80h7v7h-7V80z
	 M435.7,87.2h7v7h-7V87.2z M435.7,94.5h7v7h-7V94.5z M443,72.7h7v7h-7V72.7z M443,87.2h7v7h-7V87.2z M443,94.5h7v7h-7V94.5z
	 M450.3,79.9h7v7h-7V79.9z M450.3,94.5h7v7h-7V94.5z M450.3,101.7h7v7h-7V101.7z M457.5,72.7h7v7h-7V72.7z M457.5,79.9h7v7h-7V79.9z
	 M457.5,101.7h7v7h-7V101.7z M559,36.2h-7v-7h7V36.2z M559,43.4h-7v-7h7V43.4z M559,50.7h-7v-7h7V50.7z M559,57.9h-7v-7h7V57.9z
	 M559,65.2h-7v-7h7V65.2z M559,72.4h-7v-7h7V72.4z M559,79.7h-7v-7h7V79.7z M551.8,28.9h-7v-7h7V28.9z M551.8,36.2h-7v-7h7V36.2z
	 M551.8,43.4h-7v-7h7V43.4z M551.8,50.7h-7v-7h7V50.7z M551.8,57.9h-7v-7h7V57.9z M551.8,65.2h-7v-7h7V65.2z M551.8,72.4h-7v-7h7
	V72.4z M551.8,79.7h-7v-7h7V79.7z M544.5,14.4h-7v-7h7V14.4z M544.5,21.6h-7v-7h7V21.6z M544.5,28.9h-7v-7h7V28.9z M544.5,36.2h-7
	v-7h7V36.2z M544.5,43.4h-7v-7h7V43.4z M544.5,50.7h-7v-7h7V50.7z M544.5,57.9h-7v-7h7V57.9z M544.5,65.2h-7v-7h7V65.2z M544.5,72.4
	h-7v-7h7V72.4z M544.5,79.7h-7v-7h7V79.7z M537.2,21.6h-7v-7h7V21.6z M537.2,28.9h-7v-7h7V28.9z M537.2,36.2h-7v-7h7V36.2z
	 M537.2,43.4h-7v-7h7V43.4z M537.2,50.7h-7v-7h7V50.7z M537.2,57.9h-7v-7h7V57.9z M537.2,65.2h-7v-7h7V65.2z M537.2,72.4h-7v-7h7
	V72.4z M537.2,79.7h-7v-7h7V79.7z M530,28.9h-7v-7h7V28.9z M530,36.2h-7v-7h7V36.2z M530,43.4h-7v-7h7V43.4z M530,50.7h-7v-7h7V50.7
	z M530,57.9h-7v-7h7V57.9z M530,65.2h-7v-7h7V65.2z M530,72.4h-7v-7h7V72.4z M530,79.7h-7v-7h7V79.7z M522.7,36.2h-7v-7h7V36.2z
	 M522.7,43.4h-7v-7h7V43.4z M522.7,50.7h-7v-7h7V50.7z M522.7,57.9h-7v-7h7V57.9z M522.7,65.2h-7v-7h7V65.2z M522.7,72.4h-7v-7h7
	V72.4z M522.7,79.7h-7v-7h7V79.7z M515.5,43.4h-7v-7h7V43.4z M515.5,50.7h-7v-7h7V50.7z M515.5,57.9h-7v-7h7V57.9z M515.5,65.2h-7
	v-7h7V65.2z M515.5,72.4h-7v-7h7V72.4z M515.5,79.7h-7v-7h7V79.7z M559,87h-7v-7h7V87z M559,94.2h-7v-7h7V94.2z M551.8,87h-7v-7h7
	V87z M537.2,87h-7v-7h7V87z M537.2,94.2h-7v-7h7V94.2z M537.2,101.5h-7v-7h7V101.5z M530,87h-7v-7h7V87z M530,94.2h-7v-7h7V94.2z
	 M522.7,87h-7v-7h7V87z M522.7,94.2h-7v-7h7V94.2z M522.7,101.5h-7v-7h7V101.5z M522.7,108.8h-7v-7h7V108.8z M522.7,116h-7v-7h7V116
	z M515.5,87h-7v-7h7V87z M515.5,94.2h-7v-7h7V94.2z M515.5,101.5h-7v-7h7V101.5z M515.5,108.8h-7v-7h7V108.8z M508.2,50.7h-7v-7h7
	V50.7z M508.2,57.9h-7v-7h7V57.9z M508.2,65.2h-7v-7h7V65.2z M508.2,72.4h-7v-7h7V72.4z M508.2,79.7h-7v-7h7V79.7z M500.9,43.4h-7
	v-7h7V43.4z M500.9,50.7h-7v-7h7V50.7z M500.9,57.9h-7v-7h7V57.9z M500.9,65.2h-7v-7h7V65.2z M500.9,72.4h-7v-7h7V72.4z M500.9,79.7
	h-7v-7h7V79.7z M493.5,50.6h-7v-7h7V50.6z M493.5,57.9h-7v-7h7V57.9z M493.5,65.1h-7v-7h7V65.1z M493.5,72.4h-7v-7h7V72.4z
	 M486.2,50.6h-7v-7h7V50.6z M486.2,57.9h-7v-7h7V57.9z M479,43.4h-7v-7h7V43.4z M479,50.6h-7v-7h7V50.6z M479,57.9h-7v-7h7V57.9z
	 M479,72.4h-7v-7h7V72.4z M508.2,87h-7v-7h7V87z M508.2,94.2h-7v-7h7V94.2z M508.2,101.5h-7v-7h7V101.5z M500.9,87h-7v-7h7V87z
	 M500.9,94.2h-7v-7h7V94.2z M500.9,101.5h-7v-7h7V101.5z M493.5,79.7h-7v-7h7V79.7z M493.5,94.2h-7v-7h7V94.2z M493.5,101.5h-7v-7h7
	V101.5z M486.2,86.9h-7v-7h7V86.9z M486.2,101.5h-7v-7h7V101.5z M486.2,108.7h-7v-7h7V108.7z M479,79.7h-7v-7h7V79.7z M479,86.9h-7
	v-7h7V86.9z M479,108.7h-7v-7h7V108.7z M464.8,72.7h7v7h-7V72.7z M464.8,79.9h7v7h-7V79.9z M464.8,94.5h7v7h-7V94.5z M464.8,101.7h7
	v7h-7V101.7z M653.6,14.6h7v7h-7V14.6z M653.6,21.9h7v7h-7V21.9z M653.6,29.1h7v7h-7V29.1z M653.6,36.4h7v7h-7V36.4z M653.6,43.6h7
	v7h-7V43.6z M653.6,50.9h7v7h-7V50.9z M660.9,7.4h7v7h-7V7.4z M660.9,14.6h7v7h-7V14.6z M660.9,21.9h7v7h-7V21.9z M660.9,36.4h7v7
	h-7V36.4z M660.9,43.6h7v7h-7V43.6z M660.9,50.9h7v7h-7V50.9z M668.1,14.6h7v7h-7V14.6z M668.1,21.9h7v7h-7V21.9z M668.1,50.9h7v7
	h-7V50.9z M653.6,65.4h7v7h-7V65.4z M653.6,72.7h7v7h-7V72.7z M660.9,72.7h7v7h-7V72.7z M668.1,65.4h7v7h-7V65.4z M668.1,72.7h7v7
	h-7V72.7z M675.4,14.6h7v7h-7V14.6z M675.4,21.9h7v7h-7V21.9z M675.4,29.1h7v7h-7V29.1z M675.4,36.4h7v7h-7V36.4z M675.4,43.6h7v7
	h-7V43.6z M682.7,21.9h7v7h-7V21.9z M682.7,29.1h7v7h-7V29.1z M682.7,36.4h7v7h-7V36.4z M682.7,43.6h7v7h-7V43.6z M682.7,50.9h7v7
	h-7V50.9z M689.9,29.1h7v7h-7V29.1z M689.9,36.4h7v7h-7V36.4z M689.9,43.6h7v7h-7V43.6z M689.9,50.9h7v7h-7V50.9z M697.2,29.1h7v7
	h-7V29.1z M697.2,36.4h7v7h-7V36.4z M697.2,43.6h7v7h-7V43.6z M697.2,50.9h7v7h-7V50.9z M704.4,36.4h7v7h-7V36.4z M704.4,43.6h7v7
	h-7V43.6z M704.4,50.9h7v7h-7V50.9z M711.7,29.1h7v7h-7V29.1z M711.7,36.4h7v7h-7V36.4z M711.7,43.6h7v7h-7V43.6z M711.7,50.9h7v7
	h-7V50.9z M719,21.9h7v7h-7V21.9z M719,29.1h7v7h-7V29.1z M719,36.4h7v7h-7V36.4z M719,43.6h7v7h-7V43.6z M719,50.9h7v7h-7V50.9z
	 M726.2,43.6h7v7h-7V43.6z M726.2,50.9h7v7h-7V50.9z M733.5,50.9h7v7h-7V50.9z M740.7,43.6h7v7h-7V43.6z M740.7,50.9h7v7h-7V50.9z
	 M675.4,58.2h7v7h-7V58.2z M675.4,65.4h7v7h-7V65.4z M682.7,58.2h7v7h-7V58.2z M689.9,58.2h7v7h-7V58.2z M689.9,65.4h7v7h-7V65.4z
	 M689.9,72.7h7v7h-7V72.7z M697.2,58.2h7v7h-7V58.2z M697.2,65.4h7v7h-7V65.4z M697.2,72.7h7v7h-7V72.7z M697.2,80h7v7h-7V80z
	 M704.4,58.2h7v7h-7V58.2z M704.4,65.4h7v7h-7V65.4z M704.4,72.7h7v7h-7V72.7z M704.4,80h7v7h-7V80z M704.4,87.2h7v7h-7V87.2z
	 M711.7,58.2h7v7h-7V58.2z M711.7,65.4h7v7h-7V65.4z M711.7,72.7h7v7h-7V72.7z M711.7,80h7v7h-7V80z M719,58.2h7v7h-7V58.2z
	 M719,65.4h7v7h-7V65.4z M719,72.7h7v7h-7V72.7z M719,80h7v7h-7V80z M719,87.2h7v7h-7V87.2z M719,94.5h7v7h-7V94.5z M726.2,58.2h7v7
	h-7V58.2z M726.2,65.4h7v7h-7V65.4z M726.2,72.7h7v7h-7V72.7z M726.2,80h7v7h-7V80z M726.2,87.2h7v7h-7V87.2z M726.2,94.5h7v7h-7
	V94.5z M726.2,101.7h7v7h-7V101.7z M733.5,58.2h7v7h-7V58.2z M733.4,36.3h7v7h-7V36.3z M740.6,29h7v7h-7V29z M740.6,36.3h7v7h-7
	V36.3z M733.4,43.6h7v7h-7V43.6z M733.5,65.4h7v7h-7V65.4z M733.5,72.7h7v7h-7V72.7z M733.5,80h7v7h-7V80z M733.5,87.2h7v7h-7V87.2z
	 M733.5,94.5h7v7h-7V94.5z M740.7,58.2h7v7h-7V58.2z M740.7,65.4h7v7h-7V65.4z M740.7,72.7h7v7h-7V72.7z M740.7,80h7v7h-7V80z
	 M740.7,87.2h7v7h-7V87.2z M740.7,94.5h7v7h-7V94.5z M740.7,101.7h7v7h-7V101.7z M740.7,109h7v7h-7V109z M653.3,14.4h-7v-7h7V14.4z
	 M653.3,21.6h-7v-7h7V21.6z M653.3,28.9h-7v-7h7V28.9z M653.3,43.4h-7v-7h7V43.4z M653.3,50.6h-7v-7h7V50.6z M653.3,57.9h-7v-7h7
	V57.9z M646.1,21.6h-7v-7h7V21.6z M646.1,28.9h-7v-7h7V28.9z M646.1,57.9h-7v-7h7V57.9z M653.3,79.7h-7v-7h7V79.7z M646.1,72.4h-7
	v-7h7V72.4z M646.1,79.7h-7v-7h7V79.7z M638.8,21.6h-7v-7h7V21.6z M638.8,28.9h-7v-7h7V28.9z M638.8,36.1h-7v-7h7V36.1z M638.8,43.4
	h-7v-7h7V43.4z M638.8,50.6h-7v-7h7V50.6z M631.5,28.9h-7v-7h7V28.9z M631.5,36.1h-7v-7h7V36.1z M631.5,43.4h-7v-7h7V43.4z
	 M631.5,50.6h-7v-7h7V50.6z M631.5,57.9h-7v-7h7V57.9z M624.3,36.1h-7v-7h7V36.1z M624.3,43.4h-7v-7h7V43.4z M624.3,50.6h-7v-7h7
	V50.6z M624.3,57.9h-7v-7h7V57.9z M617,36.1h-7v-7h7V36.1z M617,43.4h-7v-7h7V43.4z M617,50.6h-7v-7h7V50.6z M617,57.9h-7v-7h7V57.9
	z M609.8,43.4h-7v-7h7V43.4z M609.8,50.6h-7v-7h7V50.6z M609.8,57.9h-7v-7h7V57.9z M602.5,36.1h-7v-7h7V36.1z M602.5,43.4h-7v-7h7
	V43.4z M602.5,50.6h-7v-7h7V50.6z M602.5,57.9h-7v-7h7V57.9z M595.2,28.9h-7v-7h7V28.9z M595.2,36.1h-7v-7h7V36.1z M595.2,43.4h-7
	v-7h7V43.4z M595.2,50.6h-7v-7h7V50.6z M595.2,57.9h-7v-7h7V57.9z M588,50.6h-7v-7h7V50.6z M588,57.9h-7v-7h7V57.9z M580.7,57.9h-7
	v-7h7V57.9z M573.5,50.6h-7v-7h7V50.6z M573.5,57.9h-7v-7h7V57.9z M638.8,65.2h-7v-7h7V65.2z M638.8,72.4h-7v-7h7V72.4z M631.5,65.2
	h-7v-7h7V65.2z M624.3,65.2h-7v-7h7V65.2z M624.3,72.4h-7v-7h7V72.4z M624.3,79.7h-7v-7h7V79.7z M617,65.2h-7v-7h7V65.2z M617,72.4
	h-7v-7h7V72.4z M617,79.7h-7v-7h7V79.7z M617,87h-7v-7h7V87z M609.8,65.2h-7v-7h7V65.2z M609.8,72.4h-7v-7h7V72.4z M609.8,79.7h-7
	v-7h7V79.7z M609.8,87h-7v-7h7V87z M609.8,94.2h-7v-7h7V94.2z M602.5,65.2h-7v-7h7V65.2z M602.5,72.4h-7v-7h7V72.4z M602.5,79.7h-7
	v-7h7V79.7z M602.5,87h-7v-7h7V87z M595.2,65.2h-7v-7h7V65.2z M595.2,72.4h-7v-7h7V72.4z M595.2,79.7h-7v-7h7V79.7z M595.2,87h-7v-7
	h7V87z M595.2,94.2h-7v-7h7V94.2z M595.2,101.5h-7v-7h7V101.5z M588,65.2h-7v-7h7V65.2z M588,72.4h-7v-7h7V72.4z M588,79.7h-7v-7h7
	V79.7z M588,87h-7v-7h7V87z M588,94.2h-7v-7h7V94.2z M588,101.5h-7v-7h7V101.5z M588,108.7h-7v-7h7V108.7z M580.7,65.2h-7v-7h7V65.2
	z M580.7,43.3h-7v-7h7V43.3z M573.5,36h-7v-7h7V36z M573.5,43.3h-7v-7h7V43.3z M580.7,50.6h-7v-7h7V50.6z M580.7,72.4h-7v-7h7V72.4z
	 M580.7,79.7h-7v-7h7V79.7z M580.7,87h-7v-7h7V87z M580.7,94.2h-7v-7h7V94.2z M580.7,101.5h-7v-7h7V101.5z M573.5,65.2h-7v-7h7V65.2
	z M573.5,72.4h-7v-7h7V72.4z M573.5,79.7h-7v-7h7V79.7z M573.5,87h-7v-7h7V87z M573.5,94.2h-7v-7h7V94.2z M573.5,101.5h-7v-7h7
	V101.5z M573.5,108.7h-7v-7h7V108.7z M573.5,116h-7v-7h7V116z"/>
</svg>
