<?xml version="1.0" encoding="utf-8"?>
<!-- Generator: Adobe Illustrator 27.3.1, SVG Export Plug-In . SVG Version: 6.00 Build 0)  -->
<svg version="1.1" id="Слой_1" xmlns="http://www.w3.org/2000/svg" xmlns:xlink="http://www.w3.org/1999/xlink" x="0px" y="0px"
	 viewBox="0 0 762.2 108.6" style="enable-background:new 0 0 762.2 108.6;" xml:space="preserve">
<style type="text/css">
	.st0{fill:#1E0E01;}
</style>
<path class="st0" d="M0,0h7v7H0V0z M0,7.2h7v7H0V7.2z M0,14.5h7v7H0V14.5z M0,21.8h7v7H0V21.8z M0,29h7v7H0V29z M0,36.3h7v7H0V36.3z
	 M0,43.6h7v7H0V43.6z M0,50.8h7v7H0V50.8z M0,58.1h7v7H0V58.1z M0,65.3h7v7H0V65.3z M0,72.6h7v7H0V72.6z M0,79.9h7v7H0V79.9z
	 M0,87.1h7v7H0V87.1z M0,94.4h7v7H0V94.4z M0,101.6h7v7H0V101.6z M7.3,0h7v7h-7V0z M7.3,7.2h7v7h-7V7.2z M7.3,14.5h7v7h-7V14.5z
	 M7.3,21.8h7v7h-7V21.8z M7.3,29h7v7h-7V29z M7.3,36.3h7v7h-7V36.3z M7.3,43.6h7v7h-7V43.6z M7.3,50.8h7v7h-7V50.8z M7.3,58.1h7v7
	h-7V58.1z M7.3,65.3h7v7h-7V65.3z M7.3,72.6h7v7h-7V72.6z M7.3,79.9h7v7h-7V79.9z M7.3,87.1h7v7h-7V87.1z M7.3,94.4h7v7h-7V94.4z
	 M7.3,101.6h7v7h-7V101.6z M14.5,0h7v7h-7V0z M14.5,7.2h7v7h-7V7.2z M14.5,14.5h7v7h-7V14.5z M14.5,21.8h7v7h-7V21.8z M14.5,29h7v7
	h-7V29z M14.5,36.3h7v7h-7V36.3z M14.5,43.6h7v7h-7V43.6z M14.5,50.8h7v7h-7V50.8z M14.5,58.1h7v7h-7V58.1z M14.5,65.3h7v7h-7V65.3z
	 M14.5,72.6h7v7h-7V72.6z M14.5,79.9h7v7h-7V79.9z M14.5,87.1h7v7h-7V87.1z M14.5,94.4h7v7h-7V94.4z M14.5,101.6h7v7h-7V101.6z
	 M21.8,0h7v7h-7V0z M21.8,7.2h7v7h-7V7.2z M21.8,14.5h7v7h-7V14.5z M21.8,21.8h7v7h-7V21.8z M21.8,29h7v7h-7V29z M21.8,36.3h7v7h-7
	V36.3z M21.8,43.6h7v7h-7V43.6z M21.8,50.8h7v7h-7V50.8z M21.8,58.1h7v7h-7V58.1z M21.8,65.3h7v7h-7V65.3z M21.8,72.6h7v7h-7V72.6z
	 M21.8,79.9h7v7h-7V79.9z M21.8,87.1h7v7h-7V87.1z M21.8,94.4h7v7h-7V94.4z M21.8,101.6h7v7h-7V101.6z M29.1,0h7v7h-7V0z M29.1,7.2
	h7v7h-7V7.2z M29.1,14.5h7v7h-7V14.5z M29.1,21.8h7v7h-7V21.8z M29.1,36.3h7v7h-7V36.3z M29.1,43.6h7v7h-7V43.6z M29.1,50.8h7v7h-7
	V50.8z M29.1,58.1h7v7h-7V58.1z M29.1,65.3h7v7h-7V65.3z M29.1,79.9h7v7h-7V79.9z M29.1,87.1h7v7h-7V87.1z M29.1,94.4h7v7h-7V94.4z
	 M29.1,101.6h7v7h-7V101.6z M36.3,0h7v7h-7V0z M36.3,7.2h7v7h-7V7.2z M36.3,14.5h7v7h-7V14.5z M36.3,36.3h7v7h-7V36.3z M36.3,43.6h7
	v7h-7V43.6z M36.3,50.8h7v7h-7V50.8z M36.3,58.1h7v7h-7V58.1z M36.3,65.3h7v7h-7V65.3z M36.3,79.9h7v7h-7V79.9z M36.3,87.1h7v7h-7
	V87.1z M36.3,94.4h7v7h-7V94.4z M36.3,101.6h7v7h-7V101.6z M43.6,0h7v7h-7V0z M43.6,7.2h7v7h-7V7.2z M43.6,79.9h7v7h-7V79.9z
	 M43.6,87.1h7v7h-7V87.1z M43.6,94.4h7v7h-7V94.4z M43.6,101.6h7v7h-7V101.6z M50.8,0h7v7h-7V0z M50.8,7.2h7v7h-7V7.2z M50.8,79.9h7
	v7h-7V79.9z M50.8,87.1h7v7h-7V87.1z M50.8,94.4h7v7h-7V94.4z M50.8,101.6h7v7h-7V101.6z M58.1,0h7v7h-7V0z M58.1,7.2h7v7h-7V7.2z
	 M58.1,14.5h7v7h-7V14.5z M58.1,21.8h7v7h-7V21.8z M58.1,29h7v7h-7V29z M58.1,36.3h7v7h-7V36.3z M58.1,43.6h7v7h-7V43.6z M58.1,50.8
	h7v7h-7V50.8z M58.1,58.1h7v7h-7V58.1z M58.1,65.3h7v7h-7V65.3z M58.1,79.9h7v7h-7V79.9z M58.1,87.1h7v7h-7V87.1z M58.1,94.4h7v7h-7
	V94.4z M58.1,101.6h7v7h-7V101.6z M65.4,0h7v7h-7V0z M65.4,7.2h7v7h-7V7.2z M65.4,14.5h7v7h-7V14.5z M65.4,21.8h7v7h-7V21.8z
	 M65.4,29h7v7h-7V29z M65.4,36.3h7v7h-7V36.3z M65.4,43.6h7v7h-7V43.6z M65.4,50.8h7v7h-7V50.8z M65.4,58.1h7v7h-7V58.1z M65.4,65.3
	h7v7h-7V65.3z M65.4,79.9h7v7h-7V79.9z M65.4,87.1h7v7h-7V87.1z M65.4,94.4h7v7h-7V94.4z M65.4,101.6h7v7h-7V101.6z M72.6,0h7v7h-7
	V0z M72.6,7.2h7v7h-7V7.2z M72.6,14.5h7v7h-7V14.5z M72.6,21.8h7v7h-7V21.8z M72.6,29h7v7h-7V29z M72.6,36.3h7v7h-7V36.3z
	 M72.6,43.6h7v7h-7V43.6z M72.6,50.8h7v7h-7V50.8z M72.6,58.1h7v7h-7V58.1z M72.6,65.3h7v7h-7V65.3z M72.6,72.6h7v7h-7V72.6z
	 M72.6,79.9h7v7h-7V79.9z M72.6,87.1h7v7h-7V87.1z M72.6,94.4h7v7h-7V94.4z M72.6,101.6h7v7h-7V101.6z M79.9,0h7v7h-7V0z M79.9,7.2
	h7v7h-7V7.2z M79.9,14.5h7v7h-7V14.5z M79.9,21.8h7v7h-7V21.8z M79.9,29h7v7h-7V29z M79.9,36.3h7v7h-7V36.3z M79.9,43.6h7v7h-7V43.6
	z M79.9,50.8h7v7h-7V50.8z M79.9,58.1h7v7h-7V58.1z M79.9,65.3h7v7h-7V65.3z M79.9,72.6h7v7h-7V72.6z M79.9,79.9h7v7h-7V79.9z
	 M79.9,87.1h7v7h-7V87.1z M79.9,94.4h7v7h-7V94.4z M79.9,101.6h7v7h-7V101.6z M87.1,0h7v7h-7V0z M87.1,7.2h7v7h-7V7.2z M87.1,14.5h7
	v7h-7V14.5z M87.1,21.8h7v7h-7V21.8z M87.1,29h7v7h-7V29z M87.1,36.3h7v7h-7V36.3z M87.1,43.6h7v7h-7V43.6z M87.1,50.8h7v7h-7V50.8z
	 M87.1,58.1h7v7h-7V58.1z M87.1,65.3h7v7h-7V65.3z M87.1,72.6h7v7h-7V72.6z M87.1,79.9h7v7h-7V79.9z M87.1,87.1h7v7h-7V87.1z
	 M87.1,94.4h7v7h-7V94.4z M87.1,101.6h7v7h-7V101.6z M94.4,0h7v7h-7V0z M94.4,7.2h7v7h-7V7.2z M94.4,14.5h7v7h-7V14.5z M94.4,21.8h7
	v7h-7V21.8z M94.4,29h7v7h-7V29z M94.4,36.3h7v7h-7V36.3z M94.4,43.6h7v7h-7V43.6z M94.4,50.8h7v7h-7V50.8z M94.4,58.1h7v7h-7V58.1z
	 M94.4,65.3h7v7h-7V65.3z M94.4,72.6h7v7h-7V72.6z M94.4,79.9h7v7h-7V79.9z M94.4,87.1h7v7h-7V87.1z M94.4,94.4h7v7h-7V94.4z
	 M94.4,101.6h7v7h-7V101.6z M101.7,7.2h7v7h-7V7.2z M101.7,14.5h7v7h-7V14.5z M101.7,21.8h7v7h-7V21.8z M101.7,29h7v7h-7V29z
	 M101.7,36.3h7v7h-7V36.3z M101.7,43.6h7v7h-7V43.6z M101.7,50.8h7v7h-7V50.8z M101.7,58.1h7v7h-7V58.1z M101.7,65.3h7v7h-7V65.3z
	 M101.7,72.6h7v7h-7V72.6z M101.7,79.9h7v7h-7V79.9z M101.7,87.1h7v7h-7V87.1z M101.7,94.4h7v7h-7V94.4z M101.7,101.6h7v7h-7V101.6z
	 M108.9,0h7v7h-7V0z M108.9,7.2h7v7h-7V7.2z M108.9,14.5h7v7h-7V14.5z M108.9,21.8h7v7h-7V21.8z M108.9,29h7v7h-7V29z M108.9,36.3h7
	v7h-7V36.3z M108.9,43.6h7v7h-7V43.6z M108.9,50.8h7v7h-7V50.8z M108.9,58.1h7v7h-7V58.1z M108.9,65.3h7v7h-7V65.3z M108.9,72.6h7v7
	h-7V72.6z M108.9,79.9h7v7h-7V79.9z M108.9,87.1h7v7h-7V87.1z M108.9,94.4h7v7h-7V94.4z M108.9,101.6h7v7h-7V101.6z M116.2,0h7v7h-7
	V0z M116.2,7.2h7v7h-7V7.2z M116.2,14.5h7v7h-7V14.5z M116.2,21.8h7v7h-7V21.8z M116.2,29h7v7h-7V29z M116.2,36.3h7v7h-7V36.3z
	 M116.2,43.6h7v7h-7V43.6z M116.2,50.8h7v7h-7V50.8z M116.2,58.1h7v7h-7V58.1z M116.2,65.3h7v7h-7V65.3z M116.2,72.6h7v7h-7V72.6z
	 M116.2,79.9h7v7h-7V79.9z M116.2,87.1h7v7h-7V87.1z M116.2,94.4h7v7h-7V94.4z M116.2,101.6h7v7h-7V101.6z M123.4,0h7v7h-7V0z
	 M123.4,7.2h7v7h-7V7.2z M123.4,14.5h7v7h-7V14.5z M123.4,21.8h7v7h-7V21.8z M123.4,29h7v7h-7V29z M123.4,36.3h7v7h-7V36.3z
	 M123.4,43.6h7v7h-7V43.6z M123.4,50.8h7v7h-7V50.8z M123.4,58.1h7v7h-7V58.1z M123.4,65.3h7v7h-7V65.3z M123.4,72.6h7v7h-7V72.6z
	 M123.4,79.9h7v7h-7V79.9z M123.4,87.1h7v7h-7V87.1z M123.4,94.4h7v7h-7V94.4z M123.4,101.6h7v7h-7V101.6z M130.7,0h7v7h-7V0z
	 M130.7,7.2h7v7h-7V7.2z M130.7,14.5h7v7h-7V14.5z M130.7,21.8h7v7h-7V21.8z M130.7,29h7v7h-7V29z M130.7,36.3h7v7h-7V36.3z
	 M130.7,43.6h7v7h-7V43.6z M130.7,50.8h7v7h-7V50.8z M130.7,58.1h7v7h-7V58.1z M130.7,65.3h7v7h-7V65.3z M130.7,72.6h7v7h-7V72.6z
	 M130.7,79.9h7v7h-7V79.9z M130.7,87.1h7v7h-7V87.1z M130.7,94.4h7v7h-7V94.4z M130.7,101.6h7v7h-7V101.6z M138,0h7v7h-7V0z
	 M138,7.2h7v7h-7V7.2z M138,14.5h7v7h-7V14.5z M138,36.3h7v7h-7V36.3z M138,43.6h7v7h-7V43.6z M138,50.8h7v7h-7V50.8z M138,58.1h7v7
	h-7V58.1z M138,79.9h7v7h-7V79.9z M138,87.1h7v7h-7V87.1z M138,94.4h7v7h-7V94.4z M138,101.6h7v7h-7V101.6z M145.2,0h7v7h-7V0z
	 M145.2,7.2h7v7h-7V7.2z M145.2,36.3h7v7h-7V36.3z M145.2,43.6h7v7h-7V43.6z M145.2,50.8h7v7h-7V50.8z M145.2,79.9h7v7h-7V79.9z
	 M145.2,87.1h7v7h-7V87.1z M145.2,94.4h7v7h-7V94.4z M145.2,101.6h7v7h-7V101.6z M152.5,0h7v7h-7V0z M152.5,7.2h7v7h-7V7.2z
	 M152.5,29h7v7h-7V29z M152.5,36.3h7v7h-7V36.3z M152.5,43.6h7v7h-7V43.6z M152.5,79.9h7v7h-7V79.9z M152.5,87.1h7v7h-7V87.1z
	 M152.5,94.4h7v7h-7V94.4z M152.5,101.6h7v7h-7V101.6z M159.7,0h7v7h-7V0z M159.7,7.2h7v7h-7V7.2z M159.7,29h7v7h-7V29z M159.7,36.3
	h7v7h-7V36.3z M159.7,65.3h7v7h-7V65.3z M159.7,79.9h7v7h-7V79.9z M159.7,87.1h7v7h-7V87.1z M159.7,94.4h7v7h-7V94.4z M159.7,101.6
	h7v7h-7V101.6z M167,0h7v7h-7V0z M167,7.2h7v7h-7V7.2z M167,58.1h7v7h-7V58.1z M167,65.3h7v7h-7V65.3z M167,79.9h7v7h-7V79.9z
	 M167,87.1h7v7h-7V87.1z M167,94.4h7v7h-7V94.4z M167,101.6h7v7h-7V101.6z M174.3,0h7v7h-7V0z M174.3,7.2h7v7h-7V7.2z M174.3,14.5h7
	v7h-7V14.5z M174.3,50.8h7v7h-7V50.8z M174.3,58.1h7v7h-7V58.1z M174.3,65.3h7v7h-7V65.3z M174.3,79.9h7v7h-7V79.9z M174.3,87.1h7v7
	h-7V87.1z M174.3,94.4h7v7h-7V94.4z M174.3,101.6h7v7h-7V101.6z M181.5,0h7v7h-7V0z M181.5,7.2h7v7h-7V7.2z M181.5,14.5h7v7h-7V14.5
	z M181.5,21.8h7v7h-7V21.8z M181.5,29h7v7h-7V29z M181.5,36.3h7v7h-7V36.3z M181.5,43.6h7v7h-7V43.6z M181.5,50.8h7v7h-7V50.8z
	 M181.5,58.1h7v7h-7V58.1z M181.5,65.3h7v7h-7V65.3z M181.5,72.6h7v7h-7V72.6z M181.5,79.9h7v7h-7V79.9z M181.5,87.1h7v7h-7V87.1z
	 M181.5,94.4h7v7h-7V94.4z M181.5,101.6h7v7h-7V101.6z M188.8,0h7v7h-7V0z M188.8,7.2h7v7h-7V7.2z M188.8,14.5h7v7h-7V14.5z
	 M188.8,21.8h7v7h-7V21.8z M188.8,29h7v7h-7V29z M188.8,36.3h7v7h-7V36.3z M188.8,43.6h7v7h-7V43.6z M188.8,50.8h7v7h-7V50.8z
	 M188.8,58.1h7v7h-7V58.1z M188.8,65.3h7v7h-7V65.3z M188.8,72.6h7v7h-7V72.6z M188.8,79.9h7v7h-7V79.9z M188.8,87.1h7v7h-7V87.1z
	 M188.8,94.4h7v7h-7V94.4z M188.8,101.6h7v7h-7V101.6z M196,0h7v7h-7V0z M196,7.2h7v7h-7V7.2z M196,14.5h7v7h-7V14.5z M196,21.8h7v7
	h-7V21.8z M196,29h7v7h-7V29z M196,36.3h7v7h-7V36.3z M196,43.6h7v7h-7V43.6z M196,50.8h7v7h-7V50.8z M196,58.1h7v7h-7V58.1z
	 M196,65.3h7v7h-7V65.3z M196,72.6h7v7h-7V72.6z M196,79.9h7v7h-7V79.9z M196,87.1h7v7h-7V87.1z M196,94.4h7v7h-7V94.4z M196,101.6
	h7v7h-7V101.6z M203.3,0h7v7h-7V0z M203.3,7.2h7v7h-7V7.2z M203.3,14.5h7v7h-7V14.5z M203.3,21.8h7v7h-7V21.8z M203.3,29h7v7h-7V29z
	 M203.3,36.3h7v7h-7V36.3z M203.3,43.6h7v7h-7V43.6z M203.3,50.8h7v7h-7V50.8z M203.3,58.1h7v7h-7V58.1z M203.3,65.3h7v7h-7V65.3z
	 M203.3,72.6h7v7h-7V72.6z M203.3,79.9h7v7h-7V79.9z M203.3,87.1h7v7h-7V87.1z M203.3,94.4h7v7h-7V94.4z M203.3,101.6h7v7h-7V101.6z
	 M210.6,7.2h7v7h-7V7.2z M210.6,14.5h7v7h-7V14.5z M210.6,21.8h7v7h-7V21.8z M210.6,29h7v7h-7V29z M210.6,36.3h7v7h-7V36.3z
	 M210.6,43.6h7v7h-7V43.6z M210.6,50.8h7v7h-7V50.8z M210.6,58.1h7v7h-7V58.1z M210.6,65.3h7v7h-7V65.3z M210.6,72.6h7v7h-7V72.6z
	 M210.6,79.9h7v7h-7V79.9z M210.6,87.1h7v7h-7V87.1z M210.6,94.4h7v7h-7V94.4z M210.6,101.6h7v7h-7V101.6z M217.8,0h7v7h-7V0z
	 M217.8,7.2h7v7h-7V7.2z M217.8,14.5h7v7h-7V14.5z M217.8,21.8h7v7h-7V21.8z M217.8,29h7v7h-7V29z M217.8,36.3h7v7h-7V36.3z
	 M217.8,43.6h7v7h-7V43.6z M217.8,50.8h7v7h-7V50.8z M217.8,58.1h7v7h-7V58.1z M217.8,65.3h7v7h-7V65.3z M217.8,72.6h7v7h-7V72.6z
	 M217.8,79.9h7v7h-7V79.9z M217.8,87.1h7v7h-7V87.1z M217.8,94.4h7v7h-7V94.4z M217.8,101.6h7v7h-7V101.6z M225.1,0h7v7h-7V0z
	 M225.1,7.2h7v7h-7V7.2z M225.1,14.5h7v7h-7V14.5z M225.1,21.8h7v7h-7V21.8z M225.1,29h7v7h-7V29z M225.1,36.3h7v7h-7V36.3z
	 M225.1,43.6h7v7h-7V43.6z M225.1,50.8h7v7h-7V50.8z M225.1,58.1h7v7h-7V58.1z M225.1,65.3h7v7h-7V65.3z M225.1,72.6h7v7h-7V72.6z
	 M225.1,79.9h7v7h-7V79.9z M225.1,87.1h7v7h-7V87.1z M225.1,94.4h7v7h-7V94.4z M225.1,101.6h7v7h-7V101.6z M232.3,0h7v7h-7V0z
	 M232.3,7.2h7v7h-7V7.2z M232.3,14.5h7v7h-7V14.5z M232.3,21.8h7v7h-7V21.8z M232.3,29h7v7h-7V29z M232.3,36.3h7v7h-7V36.3z
	 M232.3,43.6h7v7h-7V43.6z M232.3,50.8h7v7h-7V50.8z M232.3,58.1h7v7h-7V58.1z M232.3,65.3h7v7h-7V65.3z M232.3,72.6h7v7h-7V72.6z
	 M232.3,79.9h7v7h-7V79.9z M232.3,87.1h7v7h-7V87.1z M232.3,94.4h7v7h-7V94.4z M232.3,101.6h7v7h-7V101.6z M239.6,0h7v7h-7V0z
	 M239.6,7.2h7v7h-7V7.2z M239.6,14.5h7v7h-7V14.5z M239.6,21.8h7v7h-7V21.8z M239.6,29h7v7h-7V29z M239.6,36.3h7v7h-7V36.3z
	 M239.6,43.6h7v7h-7V43.6z M239.6,50.8h7v7h-7V50.8z M239.6,58.1h7v7h-7V58.1z M239.6,65.3h7v7h-7V65.3z M239.6,72.6h7v7h-7V72.6z
	 M239.6,79.9h7v7h-7V79.9z M239.6,87.1h7v7h-7V87.1z M239.6,94.4h7v7h-7V94.4z M239.6,101.6h7v7h-7V101.6z M246.9,0h7v7h-7V0z
	 M246.9,7.2h7v7h-7V7.2z M246.9,14.5h7v7h-7V14.5z M246.9,36.3h7v7h-7V36.3z M246.9,43.6h7v7h-7V43.6z M246.9,50.8h7v7h-7V50.8z
	 M246.9,72.6h7v7h-7V72.6z M246.9,79.9h7v7h-7V79.9z M246.9,87.1h7v7h-7V87.1z M246.9,94.4h7v7h-7V94.4z M246.9,101.6h7v7h-7V101.6z
	 M254.1,0h7v7h-7V0z M254.1,7.2h7v7h-7V7.2z M254.1,36.3h7v7h-7V36.3z M254.1,43.6h7v7h-7V43.6z M254.1,50.8h7v7h-7V50.8z
	 M254.1,79.9h7v7h-7V79.9z M254.1,87.1h7v7h-7V87.1z M254.1,94.4h7v7h-7V94.4z M254.1,101.6h7v7h-7V101.6z M261.4,0h7v7h-7V0z
	 M261.4,7.2h7v7h-7V7.2z M261.4,29h7v7h-7V29z M261.4,36.3h7v7h-7V36.3z M261.4,43.6h7v7h-7V43.6z M261.4,50.8h7v7h-7V50.8z
	 M261.4,58.1h7v7h-7V58.1z M261.4,79.9h7v7h-7V79.9z M261.4,87.1h7v7h-7V87.1z M261.4,94.4h7v7h-7V94.4z M261.4,101.6h7v7h-7V101.6z
	 M268.6,0h7v7h-7V0z M268.6,7.2h7v7h-7V7.2z M268.6,29h7v7h-7V29z M268.6,36.3h7v7h-7V36.3z M268.6,50.8h7v7h-7V50.8z M268.6,58.1h7
	v7h-7V58.1z M268.6,79.9h7v7h-7V79.9z M268.6,87.1h7v7h-7V87.1z M268.6,94.4h7v7h-7V94.4z M268.6,101.6h7v7h-7V101.6z M275.9,0h7v7
	h-7V0z M275.9,7.2h7v7h-7V7.2z M275.9,79.9h7v7h-7V79.9z M275.9,87.1h7v7h-7V87.1z M275.9,94.4h7v7h-7V94.4z M275.9,101.6h7v7h-7
	V101.6z M283.2,0h7v7h-7V0z M283.2,7.2h7v7h-7V7.2z M283.2,14.5h7v7h-7V14.5z M283.2,43.6h7v7h-7V43.6z M283.2,72.6h7v7h-7V72.6z
	 M283.2,79.9h7v7h-7V79.9z M283.2,87.1h7v7h-7V87.1z M283.2,94.4h7v7h-7V94.4z M283.2,101.6h7v7h-7V101.6z M290.4,0h7v7h-7V0z
	 M290.4,7.2h7v7h-7V7.2z M290.4,14.5h7v7h-7V14.5z M290.4,21.8h7v7h-7V21.8z M290.4,29h7v7h-7V29z M290.4,36.3h7v7h-7V36.3z
	 M290.4,43.6h7v7h-7V43.6z M290.4,50.8h7v7h-7V50.8z M290.4,58.1h7v7h-7V58.1z M290.4,65.3h7v7h-7V65.3z M290.4,72.6h7v7h-7V72.6z
	 M290.4,79.9h7v7h-7V79.9z M290.4,87.1h7v7h-7V87.1z M290.4,94.4h7v7h-7V94.4z M290.4,101.6h7v7h-7V101.6z M297.7,0h7v7h-7V0z
	 M297.7,7.2h7v7h-7V7.2z M297.7,14.5h7v7h-7V14.5z M297.7,21.8h7v7h-7V21.8z M297.7,29h7v7h-7V29z M297.7,36.3h7v7h-7V36.3z
	 M297.7,43.6h7v7h-7V43.6z M297.7,50.8h7v7h-7V50.8z M297.7,58.1h7v7h-7V58.1z M297.7,65.3h7v7h-7V65.3z M297.7,72.6h7v7h-7V72.6z
	 M297.7,79.9h7v7h-7V79.9z M297.7,87.1h7v7h-7V87.1z M297.7,94.4h7v7h-7V94.4z M297.7,101.6h7v7h-7V101.6z M304.9,0h7v7h-7V0z
	 M304.9,7.2h7v7h-7V7.2z M304.9,14.5h7v7h-7V14.5z M304.9,21.8h7v7h-7V21.8z M304.9,29h7v7h-7V29z M304.9,36.3h7v7h-7V36.3z
	 M304.9,43.6h7v7h-7V43.6z M304.9,50.8h7v7h-7V50.8z M304.9,58.1h7v7h-7V58.1z M304.9,65.3h7v7h-7V65.3z M304.9,72.6h7v7h-7V72.6z
	 M304.9,79.9h7v7h-7V79.9z M304.9,87.1h7v7h-7V87.1z M304.9,94.4h7v7h-7V94.4z M304.9,101.6h7v7h-7V101.6z M312.2,0h7v7h-7V0z
	 M312.2,7.2h7v7h-7V7.2z M312.2,14.5h7v7h-7V14.5z M312.2,21.8h7v7h-7V21.8z M312.2,29h7v7h-7V29z M312.2,36.3h7v7h-7V36.3z
	 M312.2,43.6h7v7h-7V43.6z M312.2,50.8h7v7h-7V50.8z M312.2,58.1h7v7h-7V58.1z M312.2,65.3h7v7h-7V65.3z M312.2,72.6h7v7h-7V72.6z
	 M312.2,79.9h7v7h-7V79.9z M312.2,87.1h7v7h-7V87.1z M312.2,94.4h7v7h-7V94.4z M312.2,101.6h7v7h-7V101.6z M319.5,7.2h7v7h-7V7.2z
	 M319.5,14.5h7v7h-7V14.5z M319.5,21.8h7v7h-7V21.8z M319.5,29h7v7h-7V29z M319.5,36.3h7v7h-7V36.3z M319.5,43.6h7v7h-7V43.6z
	 M319.5,50.8h7v7h-7V50.8z M319.5,58.1h7v7h-7V58.1z M319.5,65.3h7v7h-7V65.3z M319.5,72.6h7v7h-7V72.6z M319.5,79.9h7v7h-7V79.9z
	 M319.5,87.1h7v7h-7V87.1z M319.5,94.4h7v7h-7V94.4z M319.5,101.6h7v7h-7V101.6z M326.7,0h7v7h-7V0z M326.7,7.2h7v7h-7V7.2z
	 M326.7,14.5h7v7h-7V14.5z M326.7,21.8h7v7h-7V21.8z M326.7,29h7v7h-7V29z M326.7,36.3h7v7h-7V36.3z M326.7,43.6h7v7h-7V43.6z
	 M326.7,50.8h7v7h-7V50.8z M326.7,58.1h7v7h-7V58.1z M326.7,65.3h7v7h-7V65.3z M326.7,72.6h7v7h-7V72.6z M326.7,79.9h7v7h-7V79.9z
	 M326.7,87.1h7v7h-7V87.1z M326.7,94.4h7v7h-7V94.4z M326.7,101.6h7v7h-7V101.6z M334,0h7v7h-7V0z M334,7.2h7v7h-7V7.2z M334,14.5h7
	v7h-7V14.5z M334,21.8h7v7h-7V21.8z M334,29h7v7h-7V29z M334,36.3h7v7h-7V36.3z M334,43.6h7v7h-7V43.6z M334,50.8h7v7h-7V50.8z
	 M334,58.1h7v7h-7V58.1z M334,65.3h7v7h-7V65.3z M334,72.6h7v7h-7V72.6z M334,79.9h7v7h-7V79.9z M334,87.1h7v7h-7V87.1z M334,94.4h7
	v7h-7V94.4z M334,101.6h7v7h-7V101.6z M341.2,0h7v7h-7V0z M341.2,7.2h7v7h-7V7.2z M341.2,14.5h7v7h-7V14.5z M341.2,21.8h7v7h-7V21.8
	z M341.2,29h7v7h-7V29z M341.2,36.3h7v7h-7V36.3z M341.2,43.6h7v7h-7V43.6z M341.2,50.8h7v7h-7V50.8z M341.2,58.1h7v7h-7V58.1z
	 M341.2,65.3h7v7h-7V65.3z M341.2,72.6h7v7h-7V72.6z M341.2,79.9h7v7h-7V79.9z M341.2,87.1h7v7h-7V87.1z M341.2,94.4h7v7h-7V94.4z
	 M341.2,101.6h7v7h-7V101.6z M348.5,0h7v7h-7V0z M348.5,7.2h7v7h-7V7.2z M348.5,14.5h7v7h-7V14.5z M348.5,21.8h7v7h-7V21.8z
	 M348.5,29h7v7h-7V29z M348.5,36.3h7v7h-7V36.3z M348.5,43.6h7v7h-7V43.6z M348.5,50.8h7v7h-7V50.8z M348.5,58.1h7v7h-7V58.1z
	 M348.5,65.3h7v7h-7V65.3z M348.5,72.6h7v7h-7V72.6z M348.5,79.9h7v7h-7V79.9z M348.5,87.1h7v7h-7V87.1z M348.5,94.4h7v7h-7V94.4z
	 M348.5,101.6h7v7h-7V101.6z M355.8,0h7v7h-7V0z M355.8,7.2h7v7h-7V7.2z M355.8,50.8h7v7h-7V50.8z M355.8,58.1h7v7h-7V58.1z
	 M355.8,65.3h7v7h-7V65.3z M355.8,72.6h7v7h-7V72.6z M355.8,79.9h7v7h-7V79.9z M355.8,87.1h7v7h-7V87.1z M355.8,94.4h7v7h-7V94.4z
	 M355.8,101.6h7v7h-7V101.6z M363,0h7v7h-7V0z M363,7.2h7v7h-7V7.2z M363,58.1h7v7h-7V58.1z M363,65.3h7v7h-7V65.3z M363,72.6h7v7
	h-7V72.6z M363,79.9h7v7h-7V79.9z M363,87.1h7v7h-7V87.1z M363,94.4h7v7h-7V94.4z M363,101.6h7v7h-7V101.6z M370.3,0h7v7h-7V0z
	 M370.3,7.2h7v7h-7V7.2z M370.3,14.5h7v7h-7V14.5z M370.3,21.8h7v7h-7V21.8z M370.3,29h7v7h-7V29z M370.3,36.3h7v7h-7V36.3z
	 M370.3,58.1h7v7h-7V58.1z M370.3,65.3h7v7h-7V65.3z M370.3,72.6h7v7h-7V72.6z M370.3,79.9h7v7h-7V79.9z M370.3,87.1h7v7h-7V87.1z
	 M370.3,94.4h7v7h-7V94.4z M370.3,101.6h7v7h-7V101.6z M377.5,0h7v7h-7V0z M377.5,7.2h7v7h-7V7.2z M377.5,14.5h7v7h-7V14.5z
	 M377.5,21.8h7v7h-7V21.8z M377.5,29h7v7h-7V29z M377.5,36.3h7v7h-7V36.3z M377.5,58.1h7v7h-7V58.1z M377.5,65.3h7v7h-7V65.3z
	 M377.5,72.6h7v7h-7V72.6z M377.5,79.9h7v7h-7V79.9z M377.5,87.1h7v7h-7V87.1z M377.5,94.4h7v7h-7V94.4z M377.5,101.6h7v7h-7V101.6z
	 M384.8,0h7v7h-7V0z M384.8,7.2h7v7h-7V7.2z M384.8,79.9h7v7h-7V79.9z M384.8,87.1h7v7h-7V87.1z M384.8,94.4h7v7h-7V94.4z
	 M384.8,101.6h7v7h-7V101.6z M392.1,0h7v7h-7V0z M392.1,7.2h7v7h-7V7.2z M392.1,79.9h7v7h-7V79.9z M392.1,87.1h7v7h-7V87.1z
	 M392.1,94.4h7v7h-7V94.4z M392.1,101.6h7v7h-7V101.6z M399.3,0h7v7h-7V0z M399.3,7.2h7v7h-7V7.2z M399.3,14.5h7v7h-7V14.5z
	 M399.3,21.8h7v7h-7V21.8z M399.3,29h7v7h-7V29z M399.3,36.3h7v7h-7V36.3z M399.3,43.6h7v7h-7V43.6z M399.3,50.8h7v7h-7V50.8z
	 M399.3,58.1h7v7h-7V58.1z M399.3,65.3h7v7h-7V65.3z M399.3,72.6h7v7h-7V72.6z M399.3,79.9h7v7h-7V79.9z M399.3,87.1h7v7h-7V87.1z
	 M399.3,94.4h7v7h-7V94.4z M399.3,101.6h7v7h-7V101.6z M406.6,0h7v7h-7V0z M406.6,7.2h7v7h-7V7.2z M406.6,14.5h7v7h-7V14.5z
	 M406.6,21.8h7v7h-7V21.8z M406.6,29h7v7h-7V29z M406.6,36.3h7v7h-7V36.3z M406.6,43.6h7v7h-7V43.6z M406.6,50.8h7v7h-7V50.8z
	 M406.6,58.1h7v7h-7V58.1z M406.6,65.3h7v7h-7V65.3z M406.6,72.6h7v7h-7V72.6z M406.6,79.9h7v7h-7V79.9z M406.6,87.1h7v7h-7V87.1z
	 M406.6,94.4h7v7h-7V94.4z M406.6,101.6h7v7h-7V101.6z M413.8,0h7v7h-7V0z M413.8,7.2h7v7h-7V7.2z M413.8,14.5h7v7h-7V14.5z
	 M413.8,21.8h7v7h-7V21.8z M413.8,29h7v7h-7V29z M413.8,36.3h7v7h-7V36.3z M413.8,43.6h7v7h-7V43.6z M413.8,50.8h7v7h-7V50.8z
	 M413.8,58.1h7v7h-7V58.1z M413.8,65.3h7v7h-7V65.3z M413.8,72.6h7v7h-7V72.6z M413.8,79.9h7v7h-7V79.9z M413.8,87.1h7v7h-7V87.1z
	 M413.8,94.4h7v7h-7V94.4z M413.8,101.6h7v7h-7V101.6z M421.1,0h7v7h-7V0z M421.1,7.2h7v7h-7V7.2z M421.1,14.5h7v7h-7V14.5z
	 M421.1,21.8h7v7h-7V21.8z M421.1,29h7v7h-7V29z M421.1,36.3h7v7h-7V36.3z M421.1,43.6h7v7h-7V43.6z M421.1,50.8h7v7h-7V50.8z
	 M421.1,58.1h7v7h-7V58.1z M421.1,65.3h7v7h-7V65.3z M421.1,72.6h7v7h-7V72.6z M421.1,79.9h7v7h-7V79.9z M421.1,87.1h7v7h-7V87.1z
	 M421.1,94.4h7v7h-7V94.4z M421.1,101.6h7v7h-7V101.6z M428.4,7.2h7v7h-7V7.2z M428.4,14.5h7v7h-7V14.5z M428.4,21.8h7v7h-7V21.8z
	 M428.4,29h7v7h-7V29z M428.4,36.3h7v7h-7V36.3z M428.4,43.6h7v7h-7V43.6z M428.4,50.8h7v7h-7V50.8z M428.4,58.1h7v7h-7V58.1z
	 M428.4,65.3h7v7h-7V65.3z M428.4,72.6h7v7h-7V72.6z M428.4,79.9h7v7h-7V79.9z M428.4,87.1h7v7h-7V87.1z M428.4,94.4h7v7h-7V94.4z
	 M428.4,101.6h7v7h-7V101.6z M435.6,0h7v7h-7V0z M435.6,7.2h7v7h-7V7.2z M435.6,14.5h7v7h-7V14.5z M435.6,21.8h7v7h-7V21.8z
	 M435.6,29h7v7h-7V29z M435.6,36.3h7v7h-7V36.3z M435.6,43.6h7v7h-7V43.6z M435.6,50.8h7v7h-7V50.8z M435.6,58.1h7v7h-7V58.1z
	 M435.6,65.3h7v7h-7V65.3z M435.6,72.6h7v7h-7V72.6z M435.6,79.9h7v7h-7V79.9z M435.6,87.1h7v7h-7V87.1z M435.6,94.4h7v7h-7V94.4z
	 M435.6,101.6h7v7h-7V101.6z M442.9,0h7v7h-7V0z M442.9,7.2h7v7h-7V7.2z M442.9,14.5h7v7h-7V14.5z M442.9,21.8h7v7h-7V21.8z
	 M442.9,29h7v7h-7V29z M442.9,36.3h7v7h-7V36.3z M442.9,43.6h7v7h-7V43.6z M442.9,50.8h7v7h-7V50.8z M442.9,58.1h7v7h-7V58.1z
	 M442.9,65.3h7v7h-7V65.3z M442.9,72.6h7v7h-7V72.6z M442.9,79.9h7v7h-7V79.9z M442.9,87.1h7v7h-7V87.1z M442.9,94.4h7v7h-7V94.4z
	 M442.9,101.6h7v7h-7V101.6z M450.1,0h7v7h-7V0z M450.1,7.2h7v7h-7V7.2z M450.1,14.5h7v7h-7V14.5z M450.1,21.8h7v7h-7V21.8z
	 M450.1,29h7v7h-7V29z M450.1,36.3h7v7h-7V36.3z M450.1,43.6h7v7h-7V43.6z M450.1,50.8h7v7h-7V50.8z M450.1,58.1h7v7h-7V58.1z
	 M450.1,65.3h7v7h-7V65.3z M450.1,72.6h7v7h-7V72.6z M450.1,79.9h7v7h-7V79.9z M450.1,87.1h7v7h-7V87.1z M450.1,94.4h7v7h-7V94.4z
	 M450.1,101.6h7v7h-7V101.6z M457.4,0h7v7h-7V0z M457.4,7.2h7v7h-7V7.2z M457.4,14.5h7v7h-7V14.5z M457.4,21.8h7v7h-7V21.8z
	 M457.4,29h7v7h-7V29z M457.4,36.3h7v7h-7V36.3z M457.4,43.6h7v7h-7V43.6z M457.4,50.8h7v7h-7V50.8z M457.4,58.1h7v7h-7V58.1z
	 M457.4,65.3h7v7h-7V65.3z M457.4,72.6h7v7h-7V72.6z M457.4,79.9h7v7h-7V79.9z M457.4,87.1h7v7h-7V87.1z M457.4,94.4h7v7h-7V94.4z
	 M457.4,101.6h7v7h-7V101.6z M464.7,0h7v7h-7V0z M464.7,7.2h7v7h-7V7.2z M464.7,43.6h7v7h-7V43.6z M464.7,50.8h7v7h-7V50.8z
	 M464.7,72.6h7v7h-7V72.6z M464.7,79.9h7v7h-7V79.9z M464.7,87.1h7v7h-7V87.1z M464.7,94.4h7v7h-7V94.4z M464.7,101.6h7v7h-7V101.6z
	 M471.9,0h7v7h-7V0z M471.9,7.2h7v7h-7V7.2z M471.9,50.8h7v7h-7V50.8z M471.9,79.9h7v7h-7V79.9z M471.9,87.1h7v7h-7V87.1z
	 M471.9,94.4h7v7h-7V94.4z M471.9,101.6h7v7h-7V101.6z M479.2,0h7v7h-7V0z M479.2,7.2h7v7h-7V7.2z M479.2,29h7v7h-7V29z M479.2,50.8
	h7v7h-7V50.8z M479.2,58.1h7v7h-7V58.1z M479.2,79.9h7v7h-7V79.9z M479.2,87.1h7v7h-7V87.1z M479.2,94.4h7v7h-7V94.4z M479.2,101.6
	h7v7h-7V101.6z M486.4,0h7v7h-7V0z M486.4,7.2h7v7h-7V7.2z M486.4,29h7v7h-7V29z M486.4,50.8h7v7h-7V50.8z M486.4,58.1h7v7h-7V58.1z
	 M486.4,79.9h7v7h-7V79.9z M486.4,87.1h7v7h-7V87.1z M486.4,94.4h7v7h-7V94.4z M486.4,101.6h7v7h-7V101.6z M493.7,0h7v7h-7V0z
	 M493.7,7.2h7v7h-7V7.2z M493.7,29h7v7h-7V29z M493.7,79.9h7v7h-7V79.9z M493.7,87.1h7v7h-7V87.1z M493.7,94.4h7v7h-7V94.4z
	 M493.7,101.6h7v7h-7V101.6z M501,0h7v7h-7V0z M501,7.2h7v7h-7V7.2z M501,29h7v7h-7V29z M479.2,21.8h7v7h-7V21.8z M486.4,21.8h7v7
	h-7V21.8z M493.7,21.8h7v7h-7V21.8z M501,21.8h7v7h-7V21.8z M501,36.3h7v7h-7V36.3z M501,72.6h7v7h-7V72.6z M501,79.9h7v7h-7V79.9z
	 M501,87.1h7v7h-7V87.1z M501,94.4h7v7h-7V94.4z M501,101.6h7v7h-7V101.6z M508.2,0h7v7h-7V0z M508.2,7.2h7v7h-7V7.2z M508.2,14.5h7
	v7h-7V14.5z M508.2,21.8h7v7h-7V21.8z M508.2,29h7v7h-7V29z M508.2,36.3h7v7h-7V36.3z M508.2,43.6h7v7h-7V43.6z M508.2,50.8h7v7h-7
	V50.8z M508.2,58.1h7v7h-7V58.1z M508.2,65.3h7v7h-7V65.3z M508.2,72.6h7v7h-7V72.6z M508.2,79.9h7v7h-7V79.9z M508.2,87.1h7v7h-7
	V87.1z M508.2,94.4h7v7h-7V94.4z M508.2,101.6h7v7h-7V101.6z M515.5,0h7v7h-7V0z M515.5,7.2h7v7h-7V7.2z M515.5,14.5h7v7h-7V14.5z
	 M515.5,21.8h7v7h-7V21.8z M515.5,29h7v7h-7V29z M515.5,36.3h7v7h-7V36.3z M515.5,43.6h7v7h-7V43.6z M515.5,50.8h7v7h-7V50.8z
	 M515.5,58.1h7v7h-7V58.1z M515.5,65.3h7v7h-7V65.3z M515.5,72.6h7v7h-7V72.6z M515.5,79.9h7v7h-7V79.9z M515.5,87.1h7v7h-7V87.1z
	 M515.5,94.4h7v7h-7V94.4z M515.5,101.6h7v7h-7V101.6z M522.7,0h7v7h-7V0z M522.7,7.2h7v7h-7V7.2z M522.7,14.5h7v7h-7V14.5z
	 M522.7,21.8h7v7h-7V21.8z M522.7,29h7v7h-7V29z M522.7,36.3h7v7h-7V36.3z M522.7,43.6h7v7h-7V43.6z M522.7,50.8h7v7h-7V50.8z
	 M522.7,58.1h7v7h-7V58.1z M522.7,65.3h7v7h-7V65.3z M522.7,72.6h7v7h-7V72.6z M522.7,79.9h7v7h-7V79.9z M522.7,87.1h7v7h-7V87.1z
	 M522.7,94.4h7v7h-7V94.4z M522.7,101.6h7v7h-7V101.6z M530,0h7v7h-7V0z M530,7.2h7v7h-7V7.2z M530,14.5h7v7h-7V14.5z M530,21.8h7v7
	h-7V21.8z M530,29h7v7h-7V29z M530,36.3h7v7h-7V36.3z M530,43.6h7v7h-7V43.6z M530,50.8h7v7h-7V50.8z M530,58.1h7v7h-7V58.1z
	 M530,65.3h7v7h-7V65.3z M530,72.6h7v7h-7V72.6z M530,79.9h7v7h-7V79.9z M530,87.1h7v7h-7V87.1z M530,94.4h7v7h-7V94.4z M530,101.6
	h7v7h-7V101.6z M537.3,7.2h7v7h-7V7.2z M537.3,14.5h7v7h-7V14.5z M537.3,21.8h7v7h-7V21.8z M537.3,29h7v7h-7V29z M537.3,36.3h7v7h-7
	V36.3z M537.3,43.6h7v7h-7V43.6z M537.3,50.8h7v7h-7V50.8z M537.3,58.1h7v7h-7V58.1z M537.3,65.3h7v7h-7V65.3z M537.3,72.6h7v7h-7
	V72.6z M537.3,79.9h7v7h-7V79.9z M537.3,87.1h7v7h-7V87.1z M537.3,94.4h7v7h-7V94.4z M537.3,101.6h7v7h-7V101.6z M544.5,0h7v7h-7V0z
	 M544.5,7.2h7v7h-7V7.2z M544.5,14.5h7v7h-7V14.5z M544.5,21.8h7v7h-7V21.8z M544.5,29h7v7h-7V29z M544.5,36.3h7v7h-7V36.3z
	 M544.5,43.6h7v7h-7V43.6z M544.5,50.8h7v7h-7V50.8z M544.5,58.1h7v7h-7V58.1z M544.5,65.3h7v7h-7V65.3z M544.5,72.6h7v7h-7V72.6z
	 M544.5,79.9h7v7h-7V79.9z M544.5,87.1h7v7h-7V87.1z M544.5,94.4h7v7h-7V94.4z M544.5,101.6h7v7h-7V101.6z M551.8,0h7v7h-7V0z
	 M551.8,7.2h7v7h-7V7.2z M551.8,14.5h7v7h-7V14.5z M551.8,21.8h7v7h-7V21.8z M551.8,29h7v7h-7V29z M551.8,36.3h7v7h-7V36.3z
	 M551.8,43.6h7v7h-7V43.6z M551.8,50.8h7v7h-7V50.8z M551.8,58.1h7v7h-7V58.1z M551.8,65.3h7v7h-7V65.3z M551.8,72.6h7v7h-7V72.6z
	 M551.8,79.9h7v7h-7V79.9z M551.8,87.1h7v7h-7V87.1z M551.8,94.4h7v7h-7V94.4z M551.8,101.6h7v7h-7V101.6z M559,0h7v7h-7V0z
	 M559,7.2h7v7h-7V7.2z M559,14.5h7v7h-7V14.5z M559,21.8h7v7h-7V21.8z M559,29h7v7h-7V29z M559,36.3h7v7h-7V36.3z M559,43.6h7v7h-7
	V43.6z M559,50.8h7v7h-7V50.8z M559,58.1h7v7h-7V58.1z M559,65.3h7v7h-7V65.3z M559,72.6h7v7h-7V72.6z M559,79.9h7v7h-7V79.9z
	 M559,87.1h7v7h-7V87.1z M559,94.4h7v7h-7V94.4z M559,101.6h7v7h-7V101.6z M566.3,0h7v7h-7V0z M566.3,7.2h7v7h-7V7.2z M566.3,14.5h7
	v7h-7V14.5z M566.3,21.8h7v7h-7V21.8z M566.3,29h7v7h-7V29z M566.3,36.3h7v7h-7V36.3z M566.3,43.6h7v7h-7V43.6z M566.3,50.8h7v7h-7
	V50.8z M566.3,58.1h7v7h-7V58.1z M566.3,65.3h7v7h-7V65.3z M566.3,72.6h7v7h-7V72.6z M566.3,79.9h7v7h-7V79.9z M566.3,87.1h7v7h-7
	V87.1z M566.3,94.4h7v7h-7V94.4z M566.3,101.6h7v7h-7V101.6z M573.6,0h7v7h-7V0z M573.6,7.2h7v7h-7V7.2z M573.6,14.5h7v7h-7V14.5z
	 M573.6,72.6h7v7h-7V72.6z M573.6,79.9h7v7h-7V79.9z M573.6,87.1h7v7h-7V87.1z M573.6,94.4h7v7h-7V94.4z M573.6,101.6h7v7h-7V101.6z
	 M580.8,0h7v7h-7V0z M580.8,7.2h7v7h-7V7.2z M580.8,79.9h7v7h-7V79.9z M580.8,87.1h7v7h-7V87.1z M580.8,94.4h7v7h-7V94.4z
	 M580.8,101.6h7v7h-7V101.6z M588.1,0h7v7h-7V0z M588.1,7.2h7v7h-7V7.2z M588.1,36.3h7v7h-7V36.3z M588.1,58.1h7v7h-7V58.1z
	 M588.1,79.9h7v7h-7V79.9z M588.1,87.1h7v7h-7V87.1z M588.1,94.4h7v7h-7V94.4z M588.1,101.6h7v7h-7V101.6z M595.3,0h7v7h-7V0z
	 M595.3,7.2h7v7h-7V7.2z M595.3,29h7v7h-7V29z M588.1,29h7v7h-7V29z M595.3,36.3h7v7h-7V36.3z M595.3,58.1h7v7h-7V58.1z M588.1,50.9
	h7v7h-7V50.9z M595.3,50.9h7v7h-7V50.9z M595.3,79.9h7v7h-7V79.9z M595.3,87.1h7v7h-7V87.1z M595.3,94.4h7v7h-7V94.4z M595.3,101.6
	h7v7h-7V101.6z M602.6,0h7v7h-7V0z M602.6,7.2h7v7h-7V7.2z M602.6,36.3h7v7h-7V36.3z M602.6,79.9h7v7h-7V79.9z M602.6,87.1h7v7h-7
	V87.1z M602.6,94.4h7v7h-7V94.4z M602.6,101.6h7v7h-7V101.6z M609.9,0h7v7h-7V0z M609.9,7.2h7v7h-7V7.2z M609.9,14.5h7v7h-7V14.5z
	 M609.9,36.3h7v7h-7V36.3z M602.7,28.9h7v7h-7V28.9z M609.9,43.6h7v7h-7V43.6z M609.9,72.6h7v7h-7V72.6z M609.9,79.9h7v7h-7V79.9z
	 M609.9,87.1h7v7h-7V87.1z M609.9,94.4h7v7h-7V94.4z M609.9,101.6h7v7h-7V101.6z M617.1,0h7v7h-7V0z M617.1,7.2h7v7h-7V7.2z
	 M617.1,14.5h7v7h-7V14.5z M617.1,21.8h7v7h-7V21.8z M617.1,29h7v7h-7V29z M617.1,36.3h7v7h-7V36.3z M617.1,43.6h7v7h-7V43.6z
	 M617.1,50.8h7v7h-7V50.8z M617.1,58.1h7v7h-7V58.1z M617.1,65.3h7v7h-7V65.3z M617.1,72.6h7v7h-7V72.6z M617.1,79.9h7v7h-7V79.9z
	 M617.1,87.1h7v7h-7V87.1z M617.1,94.4h7v7h-7V94.4z M617.1,101.6h7v7h-7V101.6z M624.4,0h7v7h-7V0z M624.4,7.2h7v7h-7V7.2z
	 M624.4,14.5h7v7h-7V14.5z M624.4,21.8h7v7h-7V21.8z M624.4,29h7v7h-7V29z M624.4,36.3h7v7h-7V36.3z M624.4,43.6h7v7h-7V43.6z
	 M624.4,50.8h7v7h-7V50.8z M624.4,58.1h7v7h-7V58.1z M624.4,65.3h7v7h-7V65.3z M624.4,72.6h7v7h-7V72.6z M624.4,79.9h7v7h-7V79.9z
	 M624.4,87.1h7v7h-7V87.1z M624.4,94.4h7v7h-7V94.4z M624.4,101.6h7v7h-7V101.6z M631.6,0h7v7h-7V0z M631.6,7.2h7v7h-7V7.2z
	 M631.6,14.5h7v7h-7V14.5z M631.6,21.8h7v7h-7V21.8z M631.6,29h7v7h-7V29z M631.6,36.3h7v7h-7V36.3z M631.6,43.6h7v7h-7V43.6z
	 M631.6,50.8h7v7h-7V50.8z M631.6,58.1h7v7h-7V58.1z M631.6,65.3h7v7h-7V65.3z M631.6,72.6h7v7h-7V72.6z M631.6,79.9h7v7h-7V79.9z
	 M631.6,87.1h7v7h-7V87.1z M631.6,94.4h7v7h-7V94.4z M631.6,101.6h7v7h-7V101.6z M638.9,0h7v7h-7V0z M638.9,7.2h7v7h-7V7.2z
	 M638.9,14.5h7v7h-7V14.5z M638.9,21.8h7v7h-7V21.8z M638.9,29h7v7h-7V29z M638.9,36.3h7v7h-7V36.3z M638.9,43.6h7v7h-7V43.6z
	 M638.9,50.8h7v7h-7V50.8z M638.9,58.1h7v7h-7V58.1z M638.9,65.3h7v7h-7V65.3z M638.9,72.6h7v7h-7V72.6z M638.9,79.9h7v7h-7V79.9z
	 M638.9,87.1h7v7h-7V87.1z M638.9,94.4h7v7h-7V94.4z M638.9,101.6h7v7h-7V101.6z M646.2,7.2h7v7h-7V7.2z M646.2,14.5h7v7h-7V14.5z
	 M646.2,21.8h7v7h-7V21.8z M646.2,29h7v7h-7V29z M646.2,36.3h7v7h-7V36.3z M646.2,43.6h7v7h-7V43.6z M646.2,50.8h7v7h-7V50.8z
	 M646.2,58.1h7v7h-7V58.1z M646.2,65.3h7v7h-7V65.3z M646.2,72.6h7v7h-7V72.6z M646.2,79.9h7v7h-7V79.9z M646.2,87.1h7v7h-7V87.1z
	 M646.2,94.4h7v7h-7V94.4z M646.2,101.6h7v7h-7V101.6z M653.5,0h7v7h-7V0z M653.5,7.2h7v7h-7V7.2z M653.5,14.5h7v7h-7V14.5z
	 M653.5,21.8h7v7h-7V21.8z M653.5,29h7v7h-7V29z M653.5,36.3h7v7h-7V36.3z M653.5,43.6h7v7h-7V43.6z M653.5,50.8h7v7h-7V50.8z
	 M653.5,58.1h7v7h-7V58.1z M653.5,65.3h7v7h-7V65.3z M653.5,72.6h7v7h-7V72.6z M653.5,79.9h7v7h-7V79.9z M653.5,87.1h7v7h-7V87.1z
	 M653.5,94.4h7v7h-7V94.4z M653.5,101.6h7v7h-7V101.6z M660.8,0h7v7h-7V0z M660.8,7.2h7v7h-7V7.2z M660.8,14.5h7v7h-7V14.5z
	 M660.8,21.8h7v7h-7V21.8z M660.8,29h7v7h-7V29z M660.8,36.3h7v7h-7V36.3z M660.8,43.6h7v7h-7V43.6z M660.8,50.8h7v7h-7V50.8z
	 M660.8,58.1h7v7h-7V58.1z M660.8,65.3h7v7h-7V65.3z M660.8,72.6h7v7h-7V72.6z M660.8,79.9h7v7h-7V79.9z M660.8,87.1h7v7h-7V87.1z
	 M660.8,94.4h7v7h-7V94.4z M660.8,101.6h7v7h-7V101.6z M668,0h7v7h-7V0z M668,7.2h7v7h-7V7.2z M668,14.5h7v7h-7V14.5z M668,21.8h7v7
	h-7V21.8z M668,29h7v7h-7V29z M668,36.3h7v7h-7V36.3z M668,43.6h7v7h-7V43.6z M668,50.8h7v7h-7V50.8z M668,58.1h7v7h-7V58.1z
	 M668,65.3h7v7h-7V65.3z M668,72.6h7v7h-7V72.6z M668,79.9h7v7h-7V79.9z M668,87.1h7v7h-7V87.1z M668,94.4h7v7h-7V94.4z M668,101.6
	h7v7h-7V101.6z M675.3,0h7v7h-7V0z M675.3,7.2h7v7h-7V7.2z M675.3,14.5h7v7h-7V14.5z M675.3,21.8h7v7h-7V21.8z M675.3,29h7v7h-7V29z
	 M675.3,36.3h7v7h-7V36.3z M675.3,43.6h7v7h-7V43.6z M675.3,50.8h7v7h-7V50.8z M675.3,58.1h7v7h-7V58.1z M675.3,65.3h7v7h-7V65.3z
	 M675.3,72.6h7v7h-7V72.6z M682.6,29h7v7h-7V29z M682.6,36.3h7v7h-7V36.3z M682.6,43.6h7v7h-7V43.6z M682.6,50.8h7v7h-7V50.8z
	 M682.6,58.1h7v7h-7V58.1z M682.6,65.3h7v7h-7V65.3z M682.6,72.6h7v7h-7V72.6z M689.8,29h7v7h-7V29z M689.8,36.3h7v7h-7V36.3z
	 M689.8,43.6h7v7h-7V43.6z M689.8,50.8h7v7h-7V50.8z M689.8,58.1h7v7h-7V58.1z M697.1,29h7v7h-7V29z M697.1,36.3h7v7h-7V36.3z
	 M697.1,43.6h7v7h-7V43.6z M704.4,29h7v7h-7V29z M704.4,65.3h7v7h-7V65.3z M704.4,72.6h7v7h-7V72.6z M711.6,58.1h7v7h-7V58.1z
	 M711.6,50.8h7v7h-7V50.8z M711.6,65.3h7v7h-7V65.3z M711.6,72.6h7v7h-7V72.6z M718.9,43.6h7v7h-7V43.6z M718.9,50.8h7v7h-7V50.8z
	 M718.9,58.1h7v7h-7V58.1z M718.9,65.3h7v7h-7V65.3z M718.9,72.6h7v7h-7V72.6z M675.3,79.9h7v7h-7V79.9z M675.3,87.1h7v7h-7V87.1z
	 M675.3,94.4h7v7h-7V94.4z M675.3,101.6h7v7h-7V101.6z M682.6,0h7v7h-7V0z M682.6,7.2h7v7h-7V7.2z M682.6,79.9h7v7h-7V79.9z
	 M682.6,87.1h7v7h-7V87.1z M682.6,94.4h7v7h-7V94.4z M682.6,101.6h7v7h-7V101.6z M689.8,0h7v7h-7V0z M689.8,7.2h7v7h-7V7.2z
	 M689.8,79.9h7v7h-7V79.9z M689.8,87.1h7v7h-7V87.1z M689.8,94.4h7v7h-7V94.4z M689.8,101.6h7v7h-7V101.6z M697.1,0h7v7h-7V0z
	 M697.1,7.2h7v7h-7V7.2z M697.1,79.9h7v7h-7V79.9z M697.1,87.1h7v7h-7V87.1z M697.1,94.4h7v7h-7V94.4z M697.1,101.6h7v7h-7V101.6z
	 M704.3,0h7v7h-7V0z M704.3,7.2h7v7h-7V7.2z M704.3,79.9h7v7h-7V79.9z M704.3,87.1h7v7h-7V87.1z M704.3,94.4h7v7h-7V94.4z
	 M704.3,101.6h7v7h-7V101.6z M711.6,0h7v7h-7V0z M711.6,7.2h7v7h-7V7.2z M711.6,79.9h7v7h-7V79.9z M711.6,87.1h7v7h-7V87.1z
	 M711.6,94.4h7v7h-7V94.4z M711.6,101.6h7v7h-7V101.6z M718.9,0h7v7h-7V0z M718.9,7.2h7v7h-7V7.2z M718.9,79.9h7v7h-7V79.9z
	 M718.9,87.1h7v7h-7V87.1z M718.9,94.4h7v7h-7V94.4z M718.9,101.6h7v7h-7V101.6z M726.1,0h7v7h-7V0z M726.1,7.2h7v7h-7V7.2z
	 M726.1,14.5h7v7h-7V14.5z M726.1,21.8h7v7h-7V21.8z M726.1,29h7v7h-7V29z M726.1,36.3h7v7h-7V36.3z M726.1,43.6h7v7h-7V43.6z
	 M726.1,50.8h7v7h-7V50.8z M726.1,58.1h7v7h-7V58.1z M726.1,65.3h7v7h-7V65.3z M726.1,72.6h7v7h-7V72.6z M726.1,79.9h7v7h-7V79.9z
	 M726.1,87.1h7v7h-7V87.1z M726.1,94.4h7v7h-7V94.4z M726.1,101.6h7v7h-7V101.6z M733.4,0h7v7h-7V0z M733.4,7.2h7v7h-7V7.2z
	 M733.4,14.5h7v7h-7V14.5z M733.4,21.8h7v7h-7V21.8z M733.4,29h7v7h-7V29z M733.4,36.3h7v7h-7V36.3z M733.4,43.6h7v7h-7V43.6z
	 M733.4,50.8h7v7h-7V50.8z M733.4,58.1h7v7h-7V58.1z M733.4,65.3h7v7h-7V65.3z M733.4,72.6h7v7h-7V72.6z M733.4,79.9h7v7h-7V79.9z
	 M733.4,87.1h7v7h-7V87.1z M733.4,94.4h7v7h-7V94.4z M733.4,101.6h7v7h-7V101.6z M740.6,0h7v7h-7V0z M740.6,7.2h7v7h-7V7.2z
	 M740.6,14.5h7v7h-7V14.5z M740.6,21.8h7v7h-7V21.8z M740.6,29h7v7h-7V29z M740.6,36.3h7v7h-7V36.3z M740.6,43.6h7v7h-7V43.6z
	 M740.6,50.8h7v7h-7V50.8z M740.6,58.1h7v7h-7V58.1z M740.6,65.3h7v7h-7V65.3z M740.6,72.6h7v7h-7V72.6z M740.6,79.9h7v7h-7V79.9z
	 M740.6,87.1h7v7h-7V87.1z M740.6,94.4h7v7h-7V94.4z M740.6,101.6h7v7h-7V101.6z M747.9,0h7v7h-7V0z M747.9,7.2h7v7h-7V7.2z
	 M747.9,14.5h7v7h-7V14.5z M747.9,21.8h7v7h-7V21.8z M747.9,29h7v7h-7V29z M747.9,36.3h7v7h-7V36.3z M747.9,43.6h7v7h-7V43.6z
	 M747.9,50.8h7v7h-7V50.8z M747.9,58.1h7v7h-7V58.1z M747.9,65.3h7v7h-7V65.3z M747.9,72.6h7v7h-7V72.6z M747.9,79.9h7v7h-7V79.9z
	 M747.9,87.1h7v7h-7V87.1z M747.9,94.4h7v7h-7V94.4z M747.9,101.6h7v7h-7V101.6z M755.2,7.2h7v7h-7V7.2z M755.2,14.5h7v7h-7V14.5z
	 M755.2,21.8h7v7h-7V21.8z M755.2,29h7v7h-7V29z M755.2,36.3h7v7h-7V36.3z M755.2,43.6h7v7h-7V43.6z M755.2,50.8h7v7h-7V50.8z
	 M755.2,58.1h7v7h-7V58.1z M755.2,65.3h7v7h-7V65.3z M755.2,72.6h7v7h-7V72.6z M755.2,79.9h7v7h-7V79.9z M755.2,87.1h7v7h-7V87.1z
	 M755.2,94.4h7v7h-7V94.4z M755.2,101.6h7v7h-7V101.6z"/>
</svg>
