<?xml version="1.0" encoding="utf-8"?>
<!-- Generator: Adobe Illustrator 27.3.1, SVG Export Plug-In . SVG Version: 6.00 Build 0)  -->
<svg version="1.1" id="Слой_1" xmlns="http://www.w3.org/2000/svg" xmlns:xlink="http://www.w3.org/1999/xlink" x="0px" y="0px"
	 viewBox="0 0 762.2 108.6" style="enable-background:new 0 0 762.2 108.6;" xml:space="preserve">
<style type="text/css">
	.st0{fill:#1E0E01;}
</style>
<path class="st0" d="M29.1,0h7v7h-7V0z M36.3,0h7v7h-7V0z M43.6,0h7v7h-7V0z M50.9,0h7v7h-7V0z M58.1,0h7v7h-7V0z M65.4,0h7v7h-7V0z
	 M72.6,0h7v7h-7V0z M138,0h7v7h-7V0z M145.2,0h7v7h-7V0z M152.5,0h7v7h-7V0z M159.8,0h7v7h-7V0z M167,0h7v7h-7V0z M174.3,0h7v7h-7V0
	z M181.5,0h7v7h-7V0z M246.9,0h7v7h-7V0z M254.1,0h7v7h-7V0z M261.4,0h7v7h-7V0z M268.7,0h7v7h-7V0z M275.9,0h7v7h-7V0z M283.2,0h7
	v7h-7V0z M290.4,0h7v7h-7V0z M355.8,0h7v7h-7V0z M363,0h7v7h-7V0z M370.3,0h7v7h-7V0z M377.6,0h7v7h-7V0z M384.8,0h7v7h-7V0z
	 M392.1,0h7v7h-7V0z M399.3,0h7v7h-7V0z M464.7,0h7v7h-7V0z M471.9,0h7v7h-7V0z M479.2,0h7v7h-7V0z M486.5,0h7v7h-7V0z M493.7,0h7v7
	h-7V0z M501,0h7v7h-7V0z M508.2,0h7v7h-7V0z M21.8,7.3h7v7h-7V7.3z M29.1,7.3h7v7h-7V7.3z M79.9,7.3h7v7h-7V7.3z M87.2,7.3h7v7h-7
	V7.3z M130.7,7.3h7v7h-7V7.3z M138,7.3h7v7h-7V7.3z M188.8,7.3h7v7h-7V7.3z M196.1,7.3h7v7h-7V7.3z M239.6,7.3h7v7h-7V7.3z
	 M246.9,7.3h7v7h-7V7.3z M297.7,7.3h7v7h-7V7.3z M305,7.3h7v7h-7V7.3z M348.5,7.3h7v7h-7V7.3z M355.8,7.3h7v7h-7V7.3z M406.6,7.3h7
	v7h-7V7.3z M413.9,7.3h7v7h-7V7.3z M457.4,7.3h7v7h-7V7.3z M464.7,7.3h7v7h-7V7.3z M515.5,7.3h7v7h-7V7.3z M522.8,7.3h7v7h-7V7.3z
	 M14.6,14.5h7v7h-7V14.5z M21.8,14.5h7v7h-7V14.5z M65.4,14.5h7v7h-7V14.5z M72.6,14.5h7v7h-7V14.5z M87.2,14.5h7v7h-7V14.5z
	 M94.4,14.5h7v7h-7V14.5z M123.5,14.5h7v7h-7V14.5z M130.7,14.5h7v7h-7V14.5z M174.3,14.5h7v7h-7V14.5z M181.5,14.5h7v7h-7V14.5z
	 M196.1,14.5h7v7h-7V14.5z M203.3,14.5h7v7h-7V14.5z M232.4,14.5h7v7h-7V14.5z M239.6,14.5h7v7h-7V14.5z M290.4,14.5h7v7h-7V14.5z
	 M305,14.5h7v7h-7V14.5z M312.2,14.5h7v7h-7V14.5z M341.3,14.5h7v7h-7V14.5z M348.5,14.5h7v7h-7V14.5z M413.9,14.5h7v7h-7V14.5z
	 M421.1,14.5h7v7h-7V14.5z M450.2,14.5h7v7h-7V14.5z M457.4,14.5h7v7h-7V14.5z M522.8,14.5h7v7h-7V14.5z M530,14.5h7v7h-7V14.5z
	 M7.3,21.8h7v7h-7V21.8z M14.6,21.8h7v7h-7V21.8z M58.1,21.8h7v7h-7V21.8z M65.4,21.8h7v7h-7V21.8z M72.6,21.8h7v7h-7V21.8z
	 M79.9,21.8h7v7h-7V21.8z M94.4,21.8h7v7h-7V21.8z M116.2,21.8h7v7h-7V21.8z M123.5,21.8h7v7h-7V21.8z M167,21.8h7v7h-7V21.8z
	 M174.3,21.8h7v7h-7V21.8z M181.5,21.8h7v7h-7V21.8z M188.8,21.8h7v7h-7V21.8z M203.3,21.8h7v7h-7V21.8z M225.1,21.8h7v7h-7V21.8z
	 M232.4,21.8h7v7h-7V21.8z M283.2,21.8h7v7h-7V21.8z M290.4,21.8h7v7h-7V21.8z M297.7,21.8h7v7h-7V21.8z M312.2,21.8h7v7h-7V21.8z
	 M334,21.8h7v7h-7V21.8z M341.3,21.8h7v7h-7V21.8z M399.3,21.8h7v7h-7V21.8z M406.6,21.8h7v7h-7V21.8z M421.1,21.8h7v7h-7V21.8z
	 M442.9,21.8h7v7h-7V21.8z M450.2,21.8h7v7h-7V21.8z M515.5,21.8h7v7h-7V21.8z M530,21.8h7v7h-7V21.8z M7.3,29h7v7h-7V29z M21.8,29
	h7v7h-7V29z M50.9,29h7v7h-7V29z M58.1,29h7v7h-7V29z M65.4,29h7v7h-7V29z M72.6,29h7v7h-7V29z M79.9,29h7v7h-7V29z M87.2,29h7v7h-7
	V29z M101.7,29h7v7h-7V29z M116.2,29h7v7h-7V29z M130.7,29h7v7h-7V29z M159.8,29h7v7h-7V29z M167,29h7v7h-7V29z M174.3,29h7v7h-7V29
	z M181.5,29h7v7h-7V29z M188.8,29h7v7h-7V29z M196.1,29h7v7h-7V29z M210.6,29h7v7h-7V29z M225.1,29h7v7h-7V29z M239.6,29h7v7h-7V29z
	 M275.9,29h7v7h-7V29z M283.2,29h7v7h-7V29z M290.4,29h7v7h-7V29z M297.7,29h7v7h-7V29z M305,29h7v7h-7V29z M319.5,29h7v7h-7V29z
	 M334,29h7v7h-7V29z M348.5,29h7v7h-7V29z M392.1,29h7v7h-7V29z M399.3,29h7v7h-7V29z M406.6,29h7v7h-7V29z M428.4,29h7v7h-7V29z
	 M442.9,29h7v7h-7V29z M508.2,29h7v7h-7V29z M515.5,29h7v7h-7V29z M537.3,29h7v7h-7V29z M0,36.3h7v7H0V36.3z M14.6,36.3h7v7h-7V36.3
	z M21.8,36.3h7v7h-7V36.3z M29.1,36.3h7v7h-7V36.3z M50.9,36.3h7v7h-7V36.3z M58.1,36.3h7v7h-7V36.3z M65.4,36.3h7v7h-7V36.3z
	 M72.6,36.3h7v7h-7V36.3z M79.9,36.3h7v7h-7V36.3z M87.2,36.3h7v7h-7V36.3z M101.7,36.3h7v7h-7V36.3z M108.9,36.3h7v7h-7V36.3z
	 M123.5,36.3h7v7h-7V36.3z M130.7,36.3h7v7h-7V36.3z M138,36.3h7v7h-7V36.3z M159.8,36.3h7v7h-7V36.3z M167,36.3h7v7h-7V36.3z
	 M174.3,36.3h7v7h-7V36.3z M181.5,36.3h7v7h-7V36.3z M188.8,36.3h7v7h-7V36.3z M210.6,36.3h7v7h-7V36.3z M217.8,36.3h7v7h-7V36.3z
	 M232.4,36.3h7v7h-7V36.3z M239.6,36.3h7v7h-7V36.3z M246.9,36.3h7v7h-7V36.3z M268.7,36.3h7v7h-7V36.3z M275.9,36.3h7v7h-7V36.3z
	 M283.2,36.3h7v7h-7V36.3z M290.4,36.3h7v7h-7V36.3z M297.7,36.3h7v7h-7V36.3z M319.5,36.3h7v7h-7V36.3z M326.7,36.3h7v7h-7V36.3z
	 M341.3,36.3h7v7h-7V36.3z M348.5,36.3h7v7h-7V36.3z M355.8,36.3h7v7h-7V36.3z M384.8,36.3h7v7h-7V36.3z M392.1,36.3h7v7h-7V36.3z
	 M399.3,36.3h7v7h-7V36.3z M428.4,36.3h7v7h-7V36.3z M435.6,36.3h7v7h-7V36.3z M457.4,36.3h7v7h-7V36.3z M464.7,36.3h7v7h-7V36.3z
	 M501,36.3h7v7h-7V36.3z M508.2,36.3h7v7h-7V36.3z M537.3,36.3h7v7h-7V36.3z M0,43.6h7v7H0V43.6z M14.6,43.6h7v7h-7V43.6z
	 M21.8,43.6h7v7h-7V43.6z M29.1,43.6h7v7h-7V43.6z M43.6,43.6h7v7h-7V43.6z M50.9,43.6h7v7h-7V43.6z M58.1,43.6h7v7h-7V43.6z
	 M65.4,43.6h7v7h-7V43.6z M72.6,43.6h7v7h-7V43.6z M79.9,43.6h7v7h-7V43.6z M101.7,43.6h7v7h-7V43.6z M108.9,43.6h7v7h-7V43.6z
	 M123.5,43.6h7v7h-7V43.6z M130.7,43.6h7v7h-7V43.6z M138,43.6h7v7h-7V43.6z M152.5,43.6h7v7h-7V43.6z M159.8,43.6h7v7h-7V43.6z
	 M167,43.6h7v7h-7V43.6z M174.3,43.6h7v7h-7V43.6z M181.5,43.6h7v7h-7V43.6z M210.6,43.6h7v7h-7V43.6z M217.8,43.6h7v7h-7V43.6z
	 M232.4,43.6h7v7h-7V43.6z M239.6,43.6h7v7h-7V43.6z M246.9,43.6h7v7h-7V43.6z M268.7,43.6h7v7h-7V43.6z M275.9,43.6h7v7h-7V43.6z
	 M283.2,43.6h7v7h-7V43.6z M290.4,43.6h7v7h-7V43.6z M319.5,43.6h7v7h-7V43.6z M326.7,43.6h7v7h-7V43.6z M341.3,43.6h7v7h-7V43.6z
	 M348.5,43.6h7v7h-7V43.6z M355.8,43.6h7v7h-7V43.6z M377.6,43.6h7v7h-7V43.6z M384.8,43.6h7v7h-7V43.6z M392.1,43.6h7v7h-7V43.6z
	 M428.4,43.6h7v7h-7V43.6z M435.6,43.6h7v7h-7V43.6z M450.2,43.6h7v7h-7V43.6z M457.4,43.6h7v7h-7V43.6z M464.7,43.6h7v7h-7V43.6z
	 M493.7,43.6h7v7h-7V43.6z M501,43.6h7v7h-7V43.6z M537.3,43.6h7v7h-7V43.6z M0,50.8h7v7H0V50.8z M14.6,50.8h7v7h-7V50.8z
	 M21.8,50.8h7v7h-7V50.8z M29.1,50.8h7v7h-7V50.8z M58.1,50.8h7v7h-7V50.8z M65.4,50.8h7v7h-7V50.8z M72.6,50.8h7v7h-7V50.8z
	 M79.9,50.8h7v7h-7V50.8z M101.7,50.8h7v7h-7V50.8z M108.9,50.8h7v7h-7V50.8z M123.5,50.8h7v7h-7V50.8z M130.7,50.8h7v7h-7V50.8z
	 M138,50.8h7v7h-7V50.8z M167,50.8h7v7h-7V50.8z M174.3,50.8h7v7h-7V50.8z M210.6,50.8h7v7h-7V50.8z M217.8,50.8h7v7h-7V50.8z
	 M232.4,50.8h7v7h-7V50.8z M239.6,50.8h7v7h-7V50.8z M246.9,50.8h7v7h-7V50.8z M275.9,50.8h7v7h-7V50.8z M283.2,50.8h7v7h-7V50.8z
	 M319.5,50.8h7v7h-7V50.8z M326.7,50.8h7v7h-7V50.8z M341.3,50.8h7v7h-7V50.8z M348.5,50.8h7v7h-7V50.8z M355.8,50.8h7v7h-7V50.8z
	 M384.8,50.8h7v7h-7V50.8z M428.4,50.8h7v7h-7V50.8z M435.6,50.8h7v7h-7V50.8z M450.2,50.8h7v7h-7V50.8z M457.4,50.8h7v7h-7V50.8z
	 M464.7,50.8h7v7h-7V50.8z M493.7,50.8h7v7h-7V50.8z M537.3,50.8h7v7h-7V50.8z M0,58.1h7v7H0V58.1z M14.6,58.1h7v7h-7V58.1z
	 M21.8,58.1h7v7h-7V58.1z M36.3,58.1h7v7h-7V58.1z M50.9,58.1h7v7h-7V58.1z M65.4,58.1h7v7h-7V58.1z M72.6,58.1h7v7h-7V58.1z
	 M101.7,58.1h7v7h-7V58.1z M108.9,58.1h7v7h-7V58.1z M123.5,58.1h7v7h-7V58.1z M130.7,58.1h7v7h-7V58.1z M145.2,58.1h7v7h-7V58.1z
	 M159.8,58.1h7v7h-7V58.1z M210.6,58.1h7v7h-7V58.1z M217.8,58.1h7v7h-7V58.1z M232.4,58.1h7v7h-7V58.1z M239.6,58.1h7v7h-7V58.1z
	 M254.1,58.1h7v7h-7V58.1z M268.7,58.1h7v7h-7V58.1z M319.5,58.1h7v7h-7V58.1z M326.7,58.1h7v7h-7V58.1z M341.3,58.1h7v7h-7V58.1z
	 M348.5,58.1h7v7h-7V58.1z M363,58.1h7v7h-7V58.1z M377.6,58.1h7v7h-7V58.1z M421.1,58.1h7v7h-7V58.1z M428.4,58.1h7v7h-7V58.1z
	 M435.6,58.1h7v7h-7V58.1z M450.2,58.1h7v7h-7V58.1z M457.4,58.1h7v7h-7V58.1z M471.9,58.1h7v7h-7V58.1z M486.5,58.1h7v7h-7V58.1z
	 M530,58.1h7v7h-7V58.1z M537.3,58.1h7v7h-7V58.1z M0,65.3h7v7H0V65.3z M72.6,65.3h7v7h-7V65.3z M94.4,65.3h7v7h-7V65.3z
	 M101.7,65.3h7v7h-7V65.3z M108.9,65.3h7v7h-7V65.3z M203.3,65.3h7v7h-7V65.3z M210.6,65.3h7v7h-7V65.3z M217.8,65.3h7v7h-7V65.3z
	 M312.2,65.3h7v7h-7V65.3z M319.5,65.3h7v7h-7V65.3z M326.7,65.3h7v7h-7V65.3z M334,65.3h7v7h-7V65.3z M406.6,65.3h7v7h-7V65.3z
	 M413.9,65.3h7v7h-7V65.3z M428.4,65.3h7v7h-7V65.3z M435.6,65.3h7v7h-7V65.3z M442.9,65.3h7v7h-7V65.3z M515.5,65.3h7v7h-7V65.3z
	 M522.8,65.3h7v7h-7V65.3z M537.3,65.3h7v7h-7V65.3z M0,72.6h7v7H0V72.6z M7.3,72.6h7v7h-7V72.6z M21.8,72.6h7v7h-7V72.6z
	 M87.2,72.6h7v7h-7V72.6z M101.7,72.6h7v7h-7V72.6z M108.9,72.6h7v7h-7V72.6z M116.2,72.6h7v7h-7V72.6z M130.7,72.6h7v7h-7V72.6z
	 M196.1,72.6h7v7h-7V72.6z M210.6,72.6h7v7h-7V72.6z M217.8,72.6h7v7h-7V72.6z M225.1,72.6h7v7h-7V72.6z M239.6,72.6h7v7h-7V72.6z
	 M305,72.6h7v7h-7V72.6z M319.5,72.6h7v7h-7V72.6z M326.7,72.6h7v7h-7V72.6z M341.3,72.6h7v7h-7V72.6z M348.5,72.6h7v7h-7V72.6z
	 M392.1,72.6h7v7h-7V72.6z M399.3,72.6h7v7h-7V72.6z M428.4,72.6h7v7h-7V72.6z M435.6,72.6h7v7h-7V72.6z M450.2,72.6h7v7h-7V72.6z
	 M457.4,72.6h7v7h-7V72.6z M501,72.6h7v7h-7V72.6z M508.2,72.6h7v7h-7V72.6z M537.3,72.6h7v7h-7V72.6z M0,79.9h7v7H0V79.9z
	 M14.6,79.9h7v7h-7V79.9z M21.8,79.9h7v7h-7V79.9z M36.3,79.9h7v7h-7V79.9z M50.9,79.9h7v7h-7V79.9z M65.4,79.9h7v7h-7V79.9z
	 M79.9,79.9h7v7h-7V79.9z M94.4,79.9h7v7h-7V79.9z M108.9,79.9h7v7h-7V79.9z M123.5,79.9h7v7h-7V79.9z M130.7,79.9h7v7h-7V79.9z
	 M145.2,79.9h7v7h-7V79.9z M159.8,79.9h7v7h-7V79.9z M174.3,79.9h7v7h-7V79.9z M188.8,79.9h7v7h-7V79.9z M203.3,79.9h7v7h-7V79.9z
	 M217.8,79.9h7v7h-7V79.9z M232.4,79.9h7v7h-7V79.9z M239.6,79.9h7v7h-7V79.9z M246.9,79.9h7v7h-7V79.9z M254.1,79.9h7v7h-7V79.9z
	 M283.2,79.9h7v7h-7V79.9z M290.4,79.9h7v7h-7V79.9z M297.7,79.9h7v7h-7V79.9z M312.2,79.9h7v7h-7V79.9z M326.7,79.9h7v7h-7V79.9z
	 M355.8,79.9h7v7h-7V79.9z M363,79.9h7v7h-7V79.9z M384.8,79.9h7v7h-7V79.9z M421.1,79.9h7v7h-7V79.9z M435.6,79.9h7v7h-7V79.9z
	 M464.7,79.9h7v7h-7V79.9z M471.9,79.9h7v7h-7V79.9z M479.2,79.9h7v7h-7V79.9z M486.5,79.9h7v7h-7V79.9z M493.7,79.9h7v7h-7V79.9z
	 M530,79.9h7v7h-7V79.9z M7.3,87.1h7v7h-7V87.1z M29.1,87.1h7v7h-7V87.1z M36.3,87.1h7v7h-7V87.1z M36.3,94.4h7v7h-7V94.4z
	 M43.6,87.1h7v7h-7V87.1z M50.9,87.1h7v7h-7V87.1z M58.1,87.1h7v7h-7V87.1z M65.4,87.1h7v7h-7V87.1z M72.6,87.1h7v7h-7V87.1z
	 M87.2,87.1h7v7h-7V87.1z M94.4,87.1h7v7h-7V87.1z M116.2,87.1h7v7h-7V87.1z M138,87.1h7v7h-7V87.1z M145.2,87.1h7v7h-7V87.1z
	 M152.5,87.1h7v7h-7V87.1z M159.8,87.1h7v7h-7V87.1z M167,87.1h7v7h-7V87.1z M174.3,87.1h7v7h-7V87.1z M181.5,87.1h7v7h-7V87.1z
	 M196.1,87.1h7v7h-7V87.1z M203.3,87.1h7v7h-7V87.1z M225.1,87.1h7v7h-7V87.1z M261.4,87.1h7v7h-7V87.1z M268.7,87.1h7v7h-7V87.1z
	 M275.9,87.1h7v7h-7V87.1z M305,87.1h7v7h-7V87.1z M312.2,87.1h7v7h-7V87.1z M334,87.1h7v7h-7V87.1z M370.3,87.1h7v7h-7V87.1z
	 M377.6,87.1h7v7h-7V87.1z M413.9,87.1h7v7h-7V87.1z M421.1,87.1h7v7h-7V87.1z M442.9,87.1h7v7h-7V87.1z M522.8,87.1h7v7h-7V87.1z
	 M530,87.1h7v7h-7V87.1z M14.6,94.4h7v7h-7V94.4z M21.8,94.4h7v7h-7V94.4z M50.9,94.4h7v7h-7V94.4z M65.4,94.4h7v7h-7V94.4z
	 M79.9,94.4h7v7h-7V94.4z M87.2,94.4h7v7h-7V94.4z M123.5,94.4h7v7h-7V94.4z M130.7,94.4h7v7h-7V94.4z M188.8,94.4h7v7h-7V94.4z
	 M196.1,94.4h7v7h-7V94.4z M232.4,94.4h7v7h-7V94.4z M239.6,94.4h7v7h-7V94.4z M297.7,94.4h7v7h-7V94.4z M305,94.4h7v7h-7V94.4z
	 M341.3,94.4h7v7h-7V94.4z M348.5,94.4h7v7h-7V94.4z M406.6,94.4h7v7h-7V94.4z M413.9,94.4h7v7h-7V94.4z M450.2,94.4h7v7h-7V94.4z
	 M457.4,94.4h7v7h-7V94.4z M515.5,94.4h7v7h-7V94.4z M522.8,94.4h7v7h-7V94.4z M29.1,101.6h7v7h-7V101.6z M36.3,101.6h7v7h-7V101.6z
	 M43.6,101.6h7v7h-7V101.6z M50.9,101.6h7v7h-7V101.6z M58.1,101.6h7v7h-7V101.6z M65.4,101.6h7v7h-7V101.6z M72.6,101.6h7v7h-7
	V101.6z M138,101.6h7v7h-7V101.6z M145.2,101.6h7v7h-7V101.6z M152.5,101.6h7v7h-7V101.6z M159.8,101.6h7v7h-7V101.6z M167,101.6h7
	v7h-7V101.6z M174.3,101.6h7v7h-7V101.6z M181.5,101.6h7v7h-7V101.6z M246.9,101.6h7v7h-7V101.6z M254.1,101.6h7v7h-7V101.6z
	 M261.4,101.6h7v7h-7V101.6z M268.7,101.6h7v7h-7V101.6z M275.9,101.6h7v7h-7V101.6z M283.2,101.6h7v7h-7V101.6z M290.4,101.6h7v7
	h-7V101.6z M573.6,0h7v7h-7V0z M580.8,0h7v7h-7V0z M588.1,0h7v7h-7V0z M595.4,0h7v7h-7V0z M602.6,0h7v7h-7V0z M609.9,0h7v7h-7V0z
	 M617.1,0h7v7h-7V0z M566.3,7.2h7v7h-7V7.2z M573.6,7.2h7v7h-7V7.2z M624.4,7.2h7v7h-7V7.2z M631.7,7.2h7v7h-7V7.2z M559.1,14.5h7v7
	h-7V14.5z M566.3,14.5h7v7h-7V14.5z M617.1,14.5h7v7h-7V14.5z M631.7,14.5h7v7h-7V14.5z M638.9,14.5h7v7h-7V14.5z M551.8,21.8h7v7
	h-7V21.8z M559.1,21.8h7v7h-7V21.8z M609.9,21.8h7v7h-7V21.8z M617.1,21.8h7v7h-7V21.8z M624.4,21.8h7v7h-7V21.8z M638.9,21.8h7v7
	h-7V21.8z M551.8,29h7v7h-7V29z M566.3,29h7v7h-7V29z M602.6,29h7v7h-7V29z M609.9,29h7v7h-7V29z M617.1,29h7v7h-7V29z M624.4,29h7
	v7h-7V29z M631.7,29h7v7h-7V29z M646.2,29h7v7h-7V29z M544.5,36.3h7v7h-7V36.3z M559.1,36.3h7v7h-7V36.3z M566.3,36.3h7v7h-7V36.3z
	 M573.6,36.3h7v7h-7V36.3z M595.4,36.3h7v7h-7V36.3z M602.6,36.3h7v7h-7V36.3z M609.9,36.3h7v7h-7V36.3z M617.1,36.3h7v7h-7V36.3z
	 M624.4,36.3h7v7h-7V36.3z M646.2,36.3h7v7h-7V36.3z M544.5,43.5h7v7h-7V43.5z M559.1,43.5h7v7h-7V43.5z M566.3,43.5h7v7h-7V43.5z
	 M573.6,43.5h7v7h-7V43.5z M595.4,43.5h7v7h-7V43.5z M602.6,43.5h7v7h-7V43.5z M609.9,43.5h7v7h-7V43.5z M617.1,43.5h7v7h-7V43.5z
	 M646.2,43.5h7v7h-7V43.5z M544.5,50.8h7v7h-7V50.8z M559.1,50.8h7v7h-7V50.8z M566.3,50.8h7v7h-7V50.8z M573.6,50.8h7v7h-7V50.8z
	 M602.6,50.8h7v7h-7V50.8z M609.9,50.8h7v7h-7V50.8z M646.2,50.8h7v7h-7V50.8z M544.5,58.1h7v7h-7V58.1z M559.1,58.1h7v7h-7V58.1z
	 M566.3,58.1h7v7h-7V58.1z M580.8,58.1h7v7h-7V58.1z M595.4,58.1h7v7h-7V58.1z M646.2,58.1h7v7h-7V58.1z M544.5,65.3h7v7h-7V65.3z
	 M638.9,65.3h7v7h-7V65.3z M646.2,65.3h7v7h-7V65.3z M544.5,72.6h7v7h-7V72.6z M551.8,72.6h7v7h-7V72.6z M566.3,72.6h7v7h-7V72.6z
	 M631.7,72.6h7v7h-7V72.6z M646.2,72.6h7v7h-7V72.6z M544.5,79.8h7v7h-7V79.8z M559.1,79.8h7v7h-7V79.8z M566.3,79.8h7v7h-7V79.8z
	 M573.6,79.8h7v7h-7V79.8z M580.8,79.8h7v7h-7V79.8z M609.9,79.8h7v7h-7V79.8z M617.1,79.8h7v7h-7V79.8z M624.4,79.8h7v7h-7V79.8z
	 M638.9,79.8h7v7h-7V79.8z M551.8,87.1h7v7h-7V87.1z M588.1,87.1h7v7h-7V87.1z M595.4,87.1h7v7h-7V87.1z M602.6,87.1h7v7h-7V87.1z
	 M631.7,87.1h7v7h-7V87.1z M638.9,87.1h7v7h-7V87.1z M559.1,94.4h7v7h-7V94.4z M566.3,94.4h7v7h-7V94.4z M624.4,94.4h7v7h-7V94.4z
	 M631.7,94.4h7v7h-7V94.4z M573.6,101.6h7v7h-7V101.6z M580.8,101.6h7v7h-7V101.6z M588.1,101.6h7v7h-7V101.6z M595.4,101.6h7v7h-7
	V101.6z M602.6,101.6h7v7h-7V101.6z M609.9,101.6h7v7h-7V101.6z M617.1,101.6h7v7h-7V101.6z M355.8,101.6h7v7h-7V101.6z M363,101.6
	h7v7h-7V101.6z M370.3,101.6h7v7h-7V101.6z M377.6,101.6h7v7h-7V101.6z M384.8,101.6h7v7h-7V101.6z M392.1,101.6h7v7h-7V101.6z
	 M399.3,101.6h7v7h-7V101.6z M464.7,101.6h7v7h-7V101.6z M471.9,101.6h7v7h-7V101.6z M479.2,101.6h7v7h-7V101.6z M486.5,101.6h7v7
	h-7V101.6z M493.7,101.6h7v7h-7V101.6z M501,101.6h7v7h-7V101.6z M508.2,101.6h7v7h-7V101.6z M682.4,0h7v7h-7V0z M689.7,0h7v7h-7V0z
	 M696.9,0h7v7h-7V0z M704.2,0h7v7h-7V0z M711.5,0h7v7h-7V0z M718.7,0h7v7h-7V0z M726,0h7v7h-7V0z M675.2,7.2h7v7h-7V7.2z M682.4,7.2
	h7v7h-7V7.2z M733.2,7.2h7v7h-7V7.2z M740.5,7.2h7v7h-7V7.2z M667.9,14.5h7v7h-7V14.5z M675.2,14.5h7v7h-7V14.5z M718.7,14.5h7v7h-7
	V14.5z M726,14.5h7v7h-7V14.5z M740.5,14.5h7v7h-7V14.5z M747.8,14.5h7v7h-7V14.5z M660.6,21.8h7v7h-7V21.8z M667.9,21.8h7v7h-7
	V21.8z M711.5,21.8h7v7h-7V21.8z M718.7,21.8h7v7h-7V21.8z M726,21.8h7v7h-7V21.8z M733.2,21.8h7v7h-7V21.8z M747.8,21.8h7v7h-7
	V21.8z M660.6,29h7v7h-7V29z M675.2,29h7v7h-7V29z M704.2,29h7v7h-7V29z M711.5,29h7v7h-7V29z M718.7,29h7v7h-7V29z M726,29h7v7h-7
	V29z M733.2,29h7v7h-7V29z M740.5,29h7v7h-7V29z M755,29h7v7h-7V29z M653.4,36.3h7v7h-7V36.3z M667.9,36.3h7v7h-7V36.3z M675.2,36.3
	h7v7h-7V36.3z M682.4,36.3h7v7h-7V36.3z M704.2,36.3h7v7h-7V36.3z M711.5,36.3h7v7h-7V36.3z M718.7,36.3h7v7h-7V36.3z M726,36.3h7v7
	h-7V36.3z M733.2,36.3h7v7h-7V36.3z M755,36.3h7v7h-7V36.3z M653.4,43.5h7v7h-7V43.5z M667.9,43.5h7v7h-7V43.5z M675.2,43.5h7v7h-7
	V43.5z M682.4,43.5h7v7h-7V43.5z M696.9,43.5h7v7h-7V43.5z M704.2,43.5h7v7h-7V43.5z M711.5,43.5h7v7h-7V43.5z M718.7,43.5h7v7h-7
	V43.5z M726,43.5h7v7h-7V43.5z M755,43.5h7v7h-7V43.5z M653.4,50.8h7v7h-7V50.8z M667.9,50.8h7v7h-7V50.8z M675.2,50.8h7v7h-7V50.8z
	 M682.4,50.8h7v7h-7V50.8z M711.5,50.8h7v7h-7V50.8z M718.7,50.8h7v7h-7V50.8z M755,50.8h7v7h-7V50.8z M653.4,58.1h7v7h-7V58.1z
	 M667.9,58.1h7v7h-7V58.1z M675.2,58.1h7v7h-7V58.1z M689.7,58.1h7v7h-7V58.1z M704.2,58.1h7v7h-7V58.1z M755,58.1h7v7h-7V58.1z
	 M653.4,65.3h7v7h-7V65.3z M747.8,65.3h7v7h-7V65.3z M755,65.3h7v7h-7V65.3z M653.4,72.6h7v7h-7V72.6z M660.6,72.6h7v7h-7V72.6z
	 M675.2,72.6h7v7h-7V72.6z M740.5,72.6h7v7h-7V72.6z M755,72.6h7v7h-7V72.6z M653.4,79.8h7v7h-7V79.8z M667.9,79.8h7v7h-7V79.8z
	 M675.2,79.8h7v7h-7V79.8z M689.7,79.8h7v7h-7V79.8z M704.2,79.8h7v7h-7V79.8z M718.7,79.8h7v7h-7V79.8z M733.2,79.8h7v7h-7V79.8z
	 M747.8,79.8h7v7h-7V79.8z M660.6,87.1h7v7h-7V87.1z M682.4,87.1h7v7h-7V87.1z M689.7,87.1h7v7h-7V87.1z M696.9,87.1h7v7h-7V87.1z
	 M704.2,87.1h7v7h-7V87.1z M711.5,87.1h7v7h-7V87.1z M718.7,87.1h7v7h-7V87.1z M726,87.1h7v7h-7V87.1z M740.5,87.1h7v7h-7V87.1z
	 M747.8,87.1h7v7h-7V87.1z M667.9,94.4h7v7h-7V94.4z M675.2,94.4h7v7h-7V94.4z M733.2,94.4h7v7h-7V94.4z M740.5,94.4h7v7h-7V94.4z
	 M682.4,101.6h7v7h-7V101.6z M689.7,101.6h7v7h-7V101.6z M696.9,101.6h7v7h-7V101.6z M704.2,101.6h7v7h-7V101.6z M711.5,101.6h7v7
	h-7V101.6z M718.7,101.6h7v7h-7V101.6z M726,101.6h7v7h-7V101.6z"/>
</svg>
