<?xml version="1.0" encoding="utf-8"?>
<!-- Generator: Adobe Illustrator 27.3.1, SVG Export Plug-In . SVG Version: 6.00 Build 0)  -->
<svg version="1.1" id="Слой_1" xmlns="http://www.w3.org/2000/svg" xmlns:xlink="http://www.w3.org/1999/xlink" x="0px" y="0px"
	 viewBox="0 0 696.8 152.2" style="enable-background:new 0 0 696.8 152.2;" xml:space="preserve">
<style type="text/css">
	.st0{fill:#1E0E01;}
</style>
<path class="st0" d="M522.8,0h7v7h-7V0z M522.8,7.3h7v7h-7V7.3z M530.1,0h7v7h-7V0z M530.1,7.3h7v7h-7V7.3z M537.3,0h7v7h-7V0z
	 M537.3,7.3h7v7h-7V7.3z M544.6,0h7v7h-7V0z M544.6,7.3h7v7h-7V7.3z M551.9,0h7v7h-7V0z M551.9,7.3h7v7h-7V7.3z M559.1,0h7v7h-7V0z
	 M559.1,7.3h7v7h-7V7.3z M566.4,0h7v7h-7V0z M566.4,7.3h7v7h-7V7.3z M573.6,0h7v7h-7V0z M573.6,7.3h7v7h-7V7.3z M522.8,14.6h7v7h-7
	V14.6z M522.8,21.8h7v7h-7V21.8z M522.8,29.1h7v7h-7V29.1z M522.8,36.4h7v7h-7V36.4z M522.8,43.6h7v7h-7V43.6z M522.8,50.9h7v7h-7
	V50.9z M522.8,58.1h7v7h-7V58.1z M522.8,65.4h7v7h-7V65.4z M522.8,72.6h7v7h-7V72.6z M522.8,79.9h7v7h-7V79.9z M530.1,14.6h7v7h-7
	V14.6z M530.1,21.8h7v7h-7V21.8z M530.1,29.1h7v7h-7V29.1z M530.1,36.4h7v7h-7V36.4z M530.1,43.6h7v7h-7V43.6z M530.1,50.9h7v7h-7
	V50.9z M530.1,58.1h7v7h-7V58.1z M530.1,65.4h7v7h-7V65.4z M530.1,72.6h7v7h-7V72.6z M530.1,79.9h7v7h-7V79.9z M537.3,14.6h7v7h-7
	V14.6z M537.3,21.8h7v7h-7V21.8z M537.3,29.1h7v7h-7V29.1z M537.3,36.4h7v7h-7V36.4z M537.3,43.6h7v7h-7V43.6z M537.3,50.9h7v7h-7
	V50.9z M537.3,58.1h7v7h-7V58.1z M537.3,65.4h7v7h-7V65.4z M537.3,72.6h7v7h-7V72.6z M537.3,79.9h7v7h-7V79.9z M544.6,14.6h7v7h-7
	V14.6z M544.6,21.8h7v7h-7V21.8z M544.6,29.1h7v7h-7V29.1z M544.6,36.4h7v7h-7V36.4z M544.6,43.6h7v7h-7V43.6z M544.6,50.9h7v7h-7
	V50.9z M544.6,58.1h7v7h-7V58.1z M544.6,65.4h7v7h-7V65.4z M544.6,72.6h7v7h-7V72.6z M544.6,79.9h7v7h-7V79.9z M551.9,14.6h7v7h-7
	V14.6z M551.9,21.8h7v7h-7V21.8z M551.9,29.1h7v7h-7V29.1z M551.9,36.4h7v7h-7V36.4z M551.9,43.6h7v7h-7V43.6z M551.9,50.9h7v7h-7
	V50.9z M551.9,58.1h7v7h-7V58.1z M551.9,65.4h7v7h-7V65.4z M551.9,72.6h7v7h-7V72.6z M551.9,79.9h7v7h-7V79.9z M559.1,14.6h7v7h-7
	V14.6z M559.1,21.8h7v7h-7V21.8z M559.1,29.1h7v7h-7V29.1z M559.1,36.4h7v7h-7V36.4z M559.1,43.6h7v7h-7V43.6z M559.1,50.9h7v7h-7
	V50.9z M559.1,58.1h7v7h-7V58.1z M559.1,65.4h7v7h-7V65.4z M559.1,72.6h7v7h-7V72.6z M559.1,79.9h7v7h-7V79.9z M566.4,14.6h7v7h-7
	V14.6z M566.4,21.8h7v7h-7V21.8z M566.4,29.1h7v7h-7V29.1z M566.4,36.4h7v7h-7V36.4z M566.4,43.6h7v7h-7V43.6z M566.4,50.9h7v7h-7
	V50.9z M566.4,58.1h7v7h-7V58.1z M566.4,65.4h7v7h-7V65.4z M566.4,72.6h7v7h-7V72.6z M566.4,79.9h7v7h-7V79.9z M573.6,14.6h7v7h-7
	V14.6z M573.6,21.8h7v7h-7V21.8z M573.6,29.1h7v7h-7V29.1z M573.6,36.4h7v7h-7V36.4z M573.6,43.6h7v7h-7V43.6z M573.6,50.9h7v7h-7
	V50.9z M573.6,58.1h7v7h-7V58.1z M573.6,65.4h7v7h-7V65.4z M573.6,72.6h7v7h-7V72.6z M573.6,79.9h7v7h-7V79.9z M522.8,87.2h7v7h-7
	V87.2z M522.8,94.4h7v7h-7V94.4z M522.8,101.7h7v7h-7V101.7z M522.8,109h7v7h-7V109z M522.8,116.2h7v7h-7V116.2z M522.8,123.5h7v7
	h-7V123.5z M522.8,130.7h7v7h-7V130.7z M522.8,138h7v7h-7V138z M530.1,87.2h7v7h-7V87.2z M530.1,94.4h7v7h-7V94.4z M530.1,101.7h7v7
	h-7V101.7z M530.1,109h7v7h-7V109z M530.1,116.2h7v7h-7V116.2z M530.1,123.5h7v7h-7V123.5z M530.1,130.7h7v7h-7V130.7z M530.1,138h7
	v7h-7V138z M537.3,87.2h7v7h-7V87.2z M537.3,94.4h7v7h-7V94.4z M537.3,101.7h7v7h-7V101.7z M537.3,109h7v7h-7V109z M537.3,116.2h7v7
	h-7V116.2z M537.3,123.5h7v7h-7V123.5z M537.3,130.7h7v7h-7V130.7z M537.3,138h7v7h-7V138z M544.6,87.2h7v7h-7V87.2z M544.6,94.4h7
	v7h-7V94.4z M544.6,101.7h7v7h-7V101.7z M544.6,109h7v7h-7V109z M544.6,116.2h7v7h-7V116.2z M544.6,123.5h7v7h-7V123.5z
	 M544.6,130.7h7v7h-7V130.7z M544.6,138h7v7h-7V138z M551.9,87.2h7v7h-7V87.2z M551.9,94.4h7v7h-7V94.4z M551.9,101.7h7v7h-7V101.7z
	 M551.9,109h7v7h-7V109z M551.9,116.2h7v7h-7V116.2z M551.9,123.5h7v7h-7V123.5z M551.9,130.7h7v7h-7V130.7z M551.9,138h7v7h-7V138z
	 M559.1,87.2h7v7h-7V87.2z M559.1,94.4h7v7h-7V94.4z M559.1,101.7h7v7h-7V101.7z M559.1,109h7v7h-7V109z M559.1,116.2h7v7h-7V116.2z
	 M559.1,123.5h7v7h-7V123.5z M559.1,130.7h7v7h-7V130.7z M559.1,138h7v7h-7V138z M566.4,87.2h7v7h-7V87.2z M566.4,94.4h7v7h-7V94.4z
	 M566.4,101.7h7v7h-7V101.7z M566.4,109h7v7h-7V109z M566.4,116.2h7v7h-7V116.2z M566.4,123.5h7v7h-7V123.5z M566.4,130.7h7v7h-7
	V130.7z M566.4,138h7v7h-7V138z M573.6,87.2h7v7h-7V87.2z M573.6,94.4h7v7h-7V94.4z M573.6,101.7h7v7h-7V101.7z M573.6,109h7v7h-7
	V109z M573.6,116.2h7v7h-7V116.2z M573.6,123.5h7v7h-7V123.5z M573.6,130.7h7v7h-7V130.7z M573.6,138h7v7h-7V138z M580.9,0h7v7h-7V0
	z M580.9,7.3h7v7h-7V7.3z M588.2,0h7v7h-7V0z M588.2,7.3h7v7h-7V7.3z M595.4,0h7v7h-7V0z M595.4,7.3h7v7h-7V7.3z M602.7,0h7v7h-7V0z
	 M602.7,7.3h7v7h-7V7.3z M609.9,0h7v7h-7V0z M609.9,7.3h7v7h-7V7.3z M617.2,0h7v7h-7V0z M617.2,7.3h7v7h-7V7.3z M624.5,0h7v7h-7V0z
	 M624.5,7.3h7v7h-7V7.3z M631.7,0h7v7h-7V0z M631.7,7.3h7v7h-7V7.3z M639,0h7v7h-7V0z M639,7.3h7v7h-7V7.3z M646.2,0h7v7h-7V0z
	 M646.2,7.3h7v7h-7V7.3z M580.9,14.6h7v7h-7V14.6z M580.9,21.8h7v7h-7V21.8z M580.9,29.1h7v7h-7V29.1z M580.9,36.4h7v7h-7V36.4z
	 M580.9,43.6h7v7h-7V43.6z M580.9,50.9h7v7h-7V50.9z M580.9,58.1h7v7h-7V58.1z M580.9,65.4h7v7h-7V65.4z M580.9,72.6h7v7h-7V72.6z
	 M580.9,79.9h7v7h-7V79.9z M588.2,14.6h7v7h-7V14.6z M588.2,21.8h7v7h-7V21.8z M588.2,72.6h7v7h-7V72.6z M588.2,79.9h7v7h-7V79.9z
	 M595.4,14.6h7v7h-7V14.6z M595.4,21.8h7v7h-7V21.8z M595.4,29.1h7v7h-7V29.1z M595.4,36.4h7v7h-7V36.4z M595.4,43.6h7v7h-7V43.6z
	 M595.4,50.9h7v7h-7V50.9z M595.4,58.1h7v7h-7V58.1z M595.4,65.4h7v7h-7V65.4z M595.4,72.6h7v7h-7V72.6z M595.4,79.9h7v7h-7V79.9z
	 M602.7,14.6h7v7h-7V14.6z M602.7,21.8h7v7h-7V21.8z M602.7,29.1h7v7h-7V29.1z M602.7,36.4h7v7h-7V36.4z M602.7,43.6h7v7h-7V43.6z
	 M602.7,50.9h7v7h-7V50.9z M602.7,58.1h7v7h-7V58.1z M602.7,65.4h7v7h-7V65.4z M602.7,72.6h7v7h-7V72.6z M602.7,79.9h7v7h-7V79.9z
	 M609.9,14.6h7v7h-7V14.6z M609.9,21.8h7v7h-7V21.8z M609.9,29.1h7v7h-7V29.1z M609.9,36.4h7v7h-7V36.4z M609.9,43.6h7v7h-7V43.6z
	 M609.9,50.9h7v7h-7V50.9z M609.9,58.1h7v7h-7V58.1z M609.9,65.4h7v7h-7V65.4z M609.9,72.6h7v7h-7V72.6z M609.9,79.9h7v7h-7V79.9z
	 M617.2,14.6h7v7h-7V14.6z M617.2,21.8h7v7h-7V21.8z M617.2,29.1h7v7h-7V29.1z M617.2,36.4h7v7h-7V36.4z M617.2,43.6h7v7h-7V43.6z
	 M617.2,50.9h7v7h-7V50.9z M617.2,58.1h7v7h-7V58.1z M617.2,65.4h7v7h-7V65.4z M617.2,72.6h7v7h-7V72.6z M617.2,79.9h7v7h-7V79.9z
	 M624.5,14.6h7v7h-7V14.6z M624.5,21.8h7v7h-7V21.8z M631.7,14.6h7v7h-7V14.6z M631.7,21.8h7v7h-7V21.8z M631.7,29.1h7v7h-7V29.1z
	 M631.7,36.4h7v7h-7V36.4z M631.7,43.6h7v7h-7V43.6z M631.7,50.9h7v7h-7V50.9z M631.7,58.1h7v7h-7V58.1z M631.7,65.4h7v7h-7V65.4z
	 M631.7,72.6h7v7h-7V72.6z M631.7,79.9h7v7h-7V79.9z M639,14.6h7v7h-7V14.6z M639,21.8h7v7h-7V21.8z M639,29.1h7v7h-7V29.1z
	 M639,36.4h7v7h-7V36.4z M639,43.6h7v7h-7V43.6z M639,50.9h7v7h-7V50.9z M639,58.1h7v7h-7V58.1z M639,65.4h7v7h-7V65.4z M639,72.6h7
	v7h-7V72.6z M639,79.9h7v7h-7V79.9z M646.2,14.6h7v7h-7V14.6z M646.2,21.8h7v7h-7V21.8z M646.2,29.1h7v7h-7V29.1z M646.2,36.4h7v7
	h-7V36.4z M646.2,43.6h7v7h-7V43.6z M646.2,50.9h7v7h-7V50.9z M646.2,58.1h7v7h-7V58.1z M646.2,65.4h7v7h-7V65.4z M646.2,72.6h7v7
	h-7V72.6z M646.2,79.9h7v7h-7V79.9z M580.9,87.2h7v7h-7V87.2z M580.9,94.4h7v7h-7V94.4z M580.9,101.7h7v7h-7V101.7z M580.9,109h7v7
	h-7V109z M580.9,116.2h7v7h-7V116.2z M580.9,123.5h7v7h-7V123.5z M580.9,130.7h7v7h-7V130.7z M580.9,138h7v7h-7V138z M588.2,87.2h7
	v7h-7V87.2z M588.2,94.4h7v7h-7V94.4z M588.2,101.7h7v7h-7V101.7z M588.2,109h7v7h-7V109z M588.2,116.2h7v7h-7V116.2z M588.2,123.5
	h7v7h-7V123.5z M588.2,130.7h7v7h-7V130.7z M588.2,138h7v7h-7V138z M595.4,87.2h7v7h-7V87.2z M595.4,94.4h7v7h-7V94.4z M595.4,101.7
	h7v7h-7V101.7z M595.4,109h7v7h-7V109z M595.4,116.2h7v7h-7V116.2z M595.4,123.5h7v7h-7V123.5z M595.4,130.7h7v7h-7V130.7z
	 M595.4,138h7v7h-7V138z M602.7,87.2h7v7h-7V87.2z M602.7,94.4h7v7h-7V94.4z M602.7,101.7h7v7h-7V101.7z M602.7,109h7v7h-7V109z
	 M602.7,116.2h7v7h-7V116.2z M602.7,123.5h7v7h-7V123.5z M602.7,130.7h7v7h-7V130.7z M602.7,138h7v7h-7V138z M609.9,87.2h7v7h-7
	V87.2z M609.9,94.4h7v7h-7V94.4z M609.9,101.7h7v7h-7V101.7z M609.9,109h7v7h-7V109z M609.9,116.2h7v7h-7V116.2z M609.9,123.5h7v7
	h-7V123.5z M609.9,130.7h7v7h-7V130.7z M609.9,138h7v7h-7V138z M617.2,87.2h7v7h-7V87.2z M617.2,94.4h7v7h-7V94.4z M617.2,101.7h7v7
	h-7V101.7z M617.2,109h7v7h-7V109z M617.2,116.2h7v7h-7V116.2z M617.2,123.5h7v7h-7V123.5z M617.2,130.7h7v7h-7V130.7z M617.2,138h7
	v7h-7V138z M624.5,109h7v7h-7V109z M624.5,116.2h7v7h-7V116.2z M624.5,123.5h7v7h-7V123.5z M624.5,130.7h7v7h-7V130.7z M624.5,138h7
	v7h-7V138z M631.7,87.2h7v7h-7V87.2z M631.7,94.4h7v7h-7V94.4z M631.7,101.7h7v7h-7V101.7z M631.7,109h7v7h-7V109z M631.7,116.2h7v7
	h-7V116.2z M631.7,123.5h7v7h-7V123.5z M631.7,130.7h7v7h-7V130.7z M631.7,138h7v7h-7V138z M639,87.2h7v7h-7V87.2z M639,94.4h7v7h-7
	V94.4z M639,101.7h7v7h-7V101.7z M639,109h7v7h-7V109z M639,116.2h7v7h-7V116.2z M639,123.5h7v7h-7V123.5z M639,130.7h7v7h-7V130.7z
	 M639,138h7v7h-7V138z M646.2,87.2h7v7h-7V87.2z M646.2,94.4h7v7h-7V94.4z M646.2,101.7h7v7h-7V101.7z M646.2,109h7v7h-7V109z
	 M646.2,116.2h7v7h-7V116.2z M646.2,123.5h7v7h-7V123.5z M646.2,130.7h7v7h-7V130.7z M646.2,138h7v7h-7V138z M653.5,0h7v7h-7V0z
	 M653.5,7.3h7v7h-7V7.3z M660.8,0h7v7h-7V0z M660.8,7.3h7v7h-7V7.3z M668,0h7v7h-7V0z M668,7.3h7v7h-7V7.3z M675.3,0h7v7h-7V0z
	 M675.3,7.3h7v7h-7V7.3z M682.5,0h7v7h-7V0z M682.5,7.3h7v7h-7V7.3z M689.8,0h7v7h-7V0z M689.8,7.3h7v7h-7V7.3z M653.5,14.6h7v7h-7
	V14.6z M653.5,21.8h7v7h-7V21.8z M653.5,29.1h7v7h-7V29.1z M653.5,36.4h7v7h-7V36.4z M653.5,43.6h7v7h-7V43.6z M653.5,50.9h7v7h-7
	V50.9z M653.5,58.1h7v7h-7V58.1z M653.5,65.4h7v7h-7V65.4z M653.5,72.6h7v7h-7V72.6z M653.5,79.9h7v7h-7V79.9z M660.8,14.6h7v7h-7
	V14.6z M660.8,21.8h7v7h-7V21.8z M660.8,29.1h7v7h-7V29.1z M660.8,36.4h7v7h-7V36.4z M660.8,43.6h7v7h-7V43.6z M660.8,50.9h7v7h-7
	V50.9z M660.8,58.1h7v7h-7V58.1z M660.8,65.4h7v7h-7V65.4z M660.8,72.6h7v7h-7V72.6z M660.8,79.9h7v7h-7V79.9z M668,14.6h7v7h-7
	V14.6z M668,21.8h7v7h-7V21.8z M668,29.1h7v7h-7V29.1z M668,36.4h7v7h-7V36.4z M668,43.6h7v7h-7V43.6z M668,50.9h7v7h-7V50.9z
	 M668,58.1h7v7h-7V58.1z M668,65.4h7v7h-7V65.4z M668,72.6h7v7h-7V72.6z M668,79.9h7v7h-7V79.9z M675.3,14.6h7v7h-7V14.6z
	 M675.3,21.8h7v7h-7V21.8z M675.3,29.1h7v7h-7V29.1z M675.3,36.4h7v7h-7V36.4z M675.3,43.6h7v7h-7V43.6z M675.3,50.9h7v7h-7V50.9z
	 M675.3,58.1h7v7h-7V58.1z M675.3,65.4h7v7h-7V65.4z M675.3,72.6h7v7h-7V72.6z M675.3,79.9h7v7h-7V79.9z M682.5,14.6h7v7h-7V14.6z
	 M682.5,21.8h7v7h-7V21.8z M682.5,29.1h7v7h-7V29.1z M682.5,36.4h7v7h-7V36.4z M682.5,43.6h7v7h-7V43.6z M682.5,50.9h7v7h-7V50.9z
	 M682.5,58.1h7v7h-7V58.1z M682.5,65.4h7v7h-7V65.4z M682.5,72.6h7v7h-7V72.6z M682.5,79.9h7v7h-7V79.9z M689.8,14.6h7v7h-7V14.6z
	 M689.8,21.8h7v7h-7V21.8z M689.8,29.1h7v7h-7V29.1z M689.8,36.4h7v7h-7V36.4z M689.8,43.6h7v7h-7V43.6z M689.8,50.9h7v7h-7V50.9z
	 M689.8,58.1h7v7h-7V58.1z M689.8,65.4h7v7h-7V65.4z M689.8,72.6h7v7h-7V72.6z M689.8,79.9h7v7h-7V79.9z M653.5,87.2h7v7h-7V87.2z
	 M653.5,94.4h7v7h-7V94.4z M653.5,101.7h7v7h-7V101.7z M653.5,109h7v7h-7V109z M653.5,116.2h7v7h-7V116.2z M653.5,123.5h7v7h-7
	V123.5z M653.5,130.7h7v7h-7V130.7z M653.5,138h7v7h-7V138z M660.8,87.2h7v7h-7V87.2z M660.8,94.4h7v7h-7V94.4z M660.8,101.7h7v7h-7
	V101.7z M660.8,109h7v7h-7V109z M660.8,116.2h7v7h-7V116.2z M660.8,123.5h7v7h-7V123.5z M660.8,130.7h7v7h-7V130.7z M660.8,138h7v7
	h-7V138z M668,87.2h7v7h-7V87.2z M668,94.4h7v7h-7V94.4z M668,101.7h7v7h-7V101.7z M668,109h7v7h-7V109z M668,116.2h7v7h-7V116.2z
	 M668,123.5h7v7h-7V123.5z M668,130.7h7v7h-7V130.7z M668,138h7v7h-7V138z M675.3,87.2h7v7h-7V87.2z M675.3,94.4h7v7h-7V94.4z
	 M675.3,101.7h7v7h-7V101.7z M675.3,109h7v7h-7V109z M675.3,116.2h7v7h-7V116.2z M675.3,123.5h7v7h-7V123.5z M675.3,130.7h7v7h-7
	V130.7z M675.3,138h7v7h-7V138z M682.5,87.2h7v7h-7V87.2z M682.5,94.4h7v7h-7V94.4z M682.5,101.7h7v7h-7V101.7z M682.5,109h7v7h-7
	V109z M682.5,116.2h7v7h-7V116.2z M682.5,123.5h7v7h-7V123.5z M682.5,130.7h7v7h-7V130.7z M682.5,138h7v7h-7V138z M689.8,87.2h7v7
	h-7V87.2z M689.8,94.4h7v7h-7V94.4z M689.8,101.7h7v7h-7V101.7z M689.8,109h7v7h-7V109z M689.8,116.2h7v7h-7V116.2z M689.8,123.5h7
	v7h-7V123.5z M689.8,130.7h7v7h-7V130.7z M689.8,138h7v7h-7V138z M522.8,145.2h7v7h-7V145.2z M530.1,145.2h7v7h-7V145.2z
	 M537.3,145.2h7v7h-7V145.2z M544.6,145.2h7v7h-7V145.2z M551.9,145.2h7v7h-7V145.2z M559.1,145.2h7v7h-7V145.2z M566.4,145.2h7v7
	h-7V145.2z M573.6,145.2h7v7h-7V145.2z M580.9,145.2h7v7h-7V145.2z M588.2,145.2h7v7h-7V145.2z M595.4,145.2h7v7h-7V145.2z
	 M602.7,145.2h7v7h-7V145.2z M609.9,145.2h7v7h-7V145.2z M617.2,145.2h7v7h-7V145.2z M624.5,145.2h7v7h-7V145.2z M631.7,145.2h7v7
	h-7V145.2z M639,145.2h7v7h-7V145.2z M646.2,145.2h7v7h-7V145.2z M653.5,145.2h7v7h-7V145.2z M660.8,145.2h7v7h-7V145.2z M668,145.2
	h7v7h-7V145.2z M675.3,145.2h7v7h-7V145.2z M682.5,145.2h7v7h-7V145.2z M689.8,145.2h7v7h-7V145.2z M348.5,0h7v7h-7V0z M348.5,7.3h7
	v7h-7V7.3z M355.8,0h7v7h-7V0z M355.8,7.3h7v7h-7V7.3z M363,0h7v7h-7V0z M363,7.3h7v7h-7V7.3z M370.3,0h7v7h-7V0z M370.3,7.3h7v7h-7
	V7.3z M377.6,0h7v7h-7V0z M377.6,7.3h7v7h-7V7.3z M384.8,0h7v7h-7V0z M384.8,7.3h7v7h-7V7.3z M392.1,0h7v7h-7V0z M392.1,7.3h7v7h-7
	V7.3z M399.3,0h7v7h-7V0z M399.3,7.3h7v7h-7V7.3z M348.5,14.6h7v7h-7V14.6z M348.5,21.8h7v7h-7V21.8z M348.5,29.1h7v7h-7V29.1z
	 M348.5,36.4h7v7h-7V36.4z M348.5,43.6h7v7h-7V43.6z M348.5,50.9h7v7h-7V50.9z M348.5,58.1h7v7h-7V58.1z M348.5,65.4h7v7h-7V65.4z
	 M348.5,72.6h7v7h-7V72.6z M348.5,79.9h7v7h-7V79.9z M355.8,14.6h7v7h-7V14.6z M355.8,21.8h7v7h-7V21.8z M355.8,29.1h7v7h-7V29.1z
	 M355.8,36.4h7v7h-7V36.4z M355.8,43.6h7v7h-7V43.6z M355.8,50.9h7v7h-7V50.9z M355.8,58.1h7v7h-7V58.1z M355.8,65.4h7v7h-7V65.4z
	 M355.8,72.6h7v7h-7V72.6z M355.8,79.9h7v7h-7V79.9z M363,14.6h7v7h-7V14.6z M363,21.8h7v7h-7V21.8z M363,29.1h7v7h-7V29.1z
	 M363,36.4h7v7h-7V36.4z M363,43.6h7v7h-7V43.6z M363,50.9h7v7h-7V50.9z M363,58.1h7v7h-7V58.1z M363,65.4h7v7h-7V65.4z M363,72.6h7
	v7h-7V72.6z M363,79.9h7v7h-7V79.9z M370.3,14.6h7v7h-7V14.6z M370.3,21.8h7v7h-7V21.8z M370.3,29.1h7v7h-7V29.1z M370.3,36.4h7v7
	h-7V36.4z M370.3,43.6h7v7h-7V43.6z M370.3,50.9h7v7h-7V50.9z M370.3,58.1h7v7h-7V58.1z M370.3,65.4h7v7h-7V65.4z M370.3,72.6h7v7
	h-7V72.6z M370.3,79.9h7v7h-7V79.9z M377.6,14.6h7v7h-7V14.6z M377.6,21.8h7v7h-7V21.8z M377.6,29.1h7v7h-7V29.1z M377.6,36.4h7v7
	h-7V36.4z M377.6,43.6h7v7h-7V43.6z M377.6,50.9h7v7h-7V50.9z M377.6,58.1h7v7h-7V58.1z M377.6,65.4h7v7h-7V65.4z M377.6,72.6h7v7
	h-7V72.6z M377.6,79.9h7v7h-7V79.9z M384.8,14.6h7v7h-7V14.6z M384.8,21.8h7v7h-7V21.8z M384.8,29.1h7v7h-7V29.1z M384.8,36.4h7v7
	h-7V36.4z M384.8,43.6h7v7h-7V43.6z M384.8,50.9h7v7h-7V50.9z M384.8,58.1h7v7h-7V58.1z M384.8,65.4h7v7h-7V65.4z M384.8,72.6h7v7
	h-7V72.6z M384.8,79.9h7v7h-7V79.9z M392.1,14.6h7v7h-7V14.6z M392.1,21.8h7v7h-7V21.8z M392.1,29.1h7v7h-7V29.1z M392.1,36.4h7v7
	h-7V36.4z M392.1,43.6h7v7h-7V43.6z M392.1,50.9h7v7h-7V50.9z M392.1,58.1h7v7h-7V58.1z M392.1,65.4h7v7h-7V65.4z M392.1,72.6h7v7
	h-7V72.6z M392.1,79.9h7v7h-7V79.9z M399.3,14.6h7v7h-7V14.6z M399.3,21.8h7v7h-7V21.8z M399.3,29.1h7v7h-7V29.1z M399.3,36.4h7v7
	h-7V36.4z M399.3,43.6h7v7h-7V43.6z M399.3,50.9h7v7h-7V50.9z M399.3,58.1h7v7h-7V58.1z M399.3,65.4h7v7h-7V65.4z M399.3,72.6h7v7
	h-7V72.6z M399.3,79.9h7v7h-7V79.9z M348.5,87.2h7v7h-7V87.2z M348.5,94.4h7v7h-7V94.4z M348.5,101.7h7v7h-7V101.7z M348.5,109h7v7
	h-7V109z M348.5,116.2h7v7h-7V116.2z M348.5,123.5h7v7h-7V123.5z M348.5,130.7h7v7h-7V130.7z M348.5,138h7v7h-7V138z M355.8,87.2h7
	v7h-7V87.2z M355.8,94.4h7v7h-7V94.4z M355.8,101.7h7v7h-7V101.7z M355.8,109h7v7h-7V109z M355.8,116.2h7v7h-7V116.2z M355.8,123.5
	h7v7h-7V123.5z M355.8,130.7h7v7h-7V130.7z M355.8,138h7v7h-7V138z M363,87.2h7v7h-7V87.2z M363,94.4h7v7h-7V94.4z M363,101.7h7v7
	h-7V101.7z M363,109h7v7h-7V109z M363,116.2h7v7h-7V116.2z M363,123.5h7v7h-7V123.5z M363,130.7h7v7h-7V130.7z M363,138h7v7h-7V138z
	 M370.3,87.2h7v7h-7V87.2z M370.3,94.4h7v7h-7V94.4z M370.3,101.7h7v7h-7V101.7z M370.3,109h7v7h-7V109z M370.3,116.2h7v7h-7V116.2z
	 M370.3,123.5h7v7h-7V123.5z M370.3,130.7h7v7h-7V130.7z M370.3,138h7v7h-7V138z M377.6,87.2h7v7h-7V87.2z M377.6,94.4h7v7h-7V94.4z
	 M377.6,101.7h7v7h-7V101.7z M377.6,109h7v7h-7V109z M377.6,116.2h7v7h-7V116.2z M377.6,123.5h7v7h-7V123.5z M377.6,130.7h7v7h-7
	V130.7z M377.6,138h7v7h-7V138z M384.8,87.2h7v7h-7V87.2z M384.8,94.4h7v7h-7V94.4z M384.8,101.7h7v7h-7V101.7z M384.8,109h7v7h-7
	V109z M384.8,116.2h7v7h-7V116.2z M384.8,123.5h7v7h-7V123.5z M384.8,130.7h7v7h-7V130.7z M384.8,138h7v7h-7V138z M392.1,87.2h7v7
	h-7V87.2z M392.1,94.4h7v7h-7V94.4z M392.1,101.7h7v7h-7V101.7z M392.1,109h7v7h-7V109z M392.1,116.2h7v7h-7V116.2z M392.1,123.5h7
	v7h-7V123.5z M392.1,130.7h7v7h-7V130.7z M392.1,138h7v7h-7V138z M399.3,87.2h7v7h-7V87.2z M399.3,94.4h7v7h-7V94.4z M399.3,101.7h7
	v7h-7V101.7z M399.3,109h7v7h-7V109z M399.3,116.2h7v7h-7V116.2z M399.3,123.5h7v7h-7V123.5z M399.3,130.7h7v7h-7V130.7z M399.3,138
	h7v7h-7V138z M406.6,0h7v7h-7V0z M406.6,7.3h7v7h-7V7.3z M413.9,0h7v7h-7V0z M413.9,7.3h7v7h-7V7.3z M421.1,0h7v7h-7V0z M421.1,7.3
	h7v7h-7V7.3z M428.4,0h7v7h-7V0z M428.4,7.3h7v7h-7V7.3z M435.6,0h7v7h-7V0z M435.6,7.3h7v7h-7V7.3z M442.9,0h7v7h-7V0z M442.9,7.3
	h7v7h-7V7.3z M450.2,0h7v7h-7V0z M450.2,7.3h7v7h-7V7.3z M457.4,0h7v7h-7V0z M457.4,7.3h7v7h-7V7.3z M464.7,0h7v7h-7V0z M464.7,7.3
	h7v7h-7V7.3z M471.9,0h7v7h-7V0z M471.9,7.3h7v7h-7V7.3z M406.6,14.6h7v7h-7V14.6z M406.6,21.8h7v7h-7V21.8z M406.6,29.1h7v7h-7
	V29.1z M406.6,36.4h7v7h-7V36.4z M406.6,43.6h7v7h-7V43.6z M406.6,50.9h7v7h-7V50.9z M406.6,58.1h7v7h-7V58.1z M406.6,65.4h7v7h-7
	V65.4z M406.6,72.6h7v7h-7V72.6z M406.6,79.9h7v7h-7V79.9z M413.9,14.6h7v7h-7V14.6z M413.9,21.8h7v7h-7V21.8z M413.9,29.1h7v7h-7
	V29.1z M413.9,36.4h7v7h-7V36.4z M413.9,50.9h7v7h-7V50.9z M413.9,58.1h7v7h-7V58.1z M413.9,65.4h7v7h-7V65.4z M413.9,72.6h7v7h-7
	V72.6z M413.9,79.9h7v7h-7V79.9z M421.1,14.6h7v7h-7V14.6z M421.1,21.8h7v7h-7V21.8z M421.1,29.1h7v7h-7V29.1z M421.1,43.6h7v7h-7
	V43.6z M421.1,50.9h7v7h-7V50.9z M421.1,58.1h7v7h-7V58.1z M421.1,65.4h7v7h-7V65.4z M421.1,79.9h7v7h-7V79.9z M428.4,14.6h7v7h-7
	V14.6z M428.4,21.8h7v7h-7V21.8z M428.4,29.1h7v7h-7V29.1z M428.4,36.4h7v7h-7V36.4z M428.4,43.6h7v7h-7V43.6z M428.4,50.9h7v7h-7
	V50.9z M428.4,58.1h7v7h-7V58.1z M428.4,65.4h7v7h-7V65.4z M428.4,79.9h7v7h-7V79.9z M435.6,14.6h7v7h-7V14.6z M435.6,21.8h7v7h-7
	V21.8z M435.6,29.1h7v7h-7V29.1z M435.6,43.6h7v7h-7V43.6z M435.6,50.9h7v7h-7V50.9z M435.6,58.1h7v7h-7V58.1z M435.6,65.4h7v7h-7
	V65.4z M435.6,72.6h7v7h-7V72.6z M442.9,14.6h7v7h-7V14.6z M442.9,21.8h7v7h-7V21.8z M442.9,29.1h7v7h-7V29.1z M442.9,36.4h7v7h-7
	V36.4z M442.9,43.6h7v7h-7V43.6z M442.9,50.9h7v7h-7V50.9z M442.9,58.1h7v7h-7V58.1z M442.9,65.4h7v7h-7V65.4z M442.9,79.9h7v7h-7
	V79.9z M450.2,14.6h7v7h-7V14.6z M450.2,21.8h7v7h-7V21.8z M450.2,29.1h7v7h-7V29.1z M450.2,36.4h7v7h-7V36.4z M450.2,50.9h7v7h-7
	V50.9z M450.2,65.4h7v7h-7V65.4z M450.2,72.6h7v7h-7V72.6z M450.2,79.9h7v7h-7V79.9z M457.4,14.6h7v7h-7V14.6z M457.4,21.8h7v7h-7
	V21.8z M457.4,29.1h7v7h-7V29.1z M457.4,36.4h7v7h-7V36.4z M457.4,43.6h7v7h-7V43.6z M457.4,50.9h7v7h-7V50.9z M457.4,58.1h7v7h-7
	V58.1z M457.4,65.4h7v7h-7V65.4z M457.4,72.6h7v7h-7V72.6z M457.4,79.9h7v7h-7V79.9z M464.7,14.6h7v7h-7V14.6z M464.7,21.8h7v7h-7
	V21.8z M464.7,29.1h7v7h-7V29.1z M464.7,36.4h7v7h-7V36.4z M464.7,43.6h7v7h-7V43.6z M464.7,50.9h7v7h-7V50.9z M464.7,58.1h7v7h-7
	V58.1z M464.7,65.4h7v7h-7V65.4z M464.7,72.6h7v7h-7V72.6z M464.7,79.9h7v7h-7V79.9z M471.9,14.6h7v7h-7V14.6z M471.9,21.8h7v7h-7
	V21.8z M471.9,29.1h7v7h-7V29.1z M471.9,36.4h7v7h-7V36.4z M471.9,43.6h7v7h-7V43.6z M471.9,50.9h7v7h-7V50.9z M471.9,58.1h7v7h-7
	V58.1z M471.9,65.4h7v7h-7V65.4z M471.9,72.6h7v7h-7V72.6z M471.9,79.9h7v7h-7V79.9z M406.6,87.2h7v7h-7V87.2z M406.6,94.4h7v7h-7
	V94.4z M406.6,109h7v7h-7V109z M406.6,116.2h7v7h-7V116.2z M406.6,123.5h7v7h-7V123.5z M406.6,130.7h7v7h-7V130.7z M406.6,138h7v7
	h-7V138z M413.9,87.2h7v7h-7V87.2z M413.9,94.4h7v7h-7V94.4z M413.9,101.7h7v7h-7V101.7z M413.9,116.2h7v7h-7V116.2z M413.9,123.5h7
	v7h-7V123.5z M413.9,130.7h7v7h-7V130.7z M413.9,138h7v7h-7V138z M421.1,87.2h7v7h-7V87.2z M421.1,94.4h7v7h-7V94.4z M421.1,101.7h7
	v7h-7V101.7z M421.1,116.2h7v7h-7V116.2z M421.1,123.5h7v7h-7V123.5z M421.1,130.7h7v7h-7V130.7z M421.1,138h7v7h-7V138z
	 M428.4,87.2h7v7h-7V87.2z M428.4,94.4h7v7h-7V94.4z M428.4,101.7h7v7h-7V101.7z M428.4,116.2h7v7h-7V116.2z M428.4,123.5h7v7h-7
	V123.5z M428.4,130.7h7v7h-7V130.7z M428.4,138h7v7h-7V138z M435.6,87.2h7v7h-7V87.2z M435.6,94.4h7v7h-7V94.4z M435.6,101.7h7v7h-7
	V101.7z M435.6,116.2h7v7h-7V116.2z M435.6,123.5h7v7h-7V123.5z M435.6,130.7h7v7h-7V130.7z M435.6,138h7v7h-7V138z M442.9,87.2h7v7
	h-7V87.2z M442.9,109h7v7h-7V109z M442.9,116.2h7v7h-7V116.2z M442.9,123.5h7v7h-7V123.5z M442.9,130.7h7v7h-7V130.7z M442.9,138h7
	v7h-7V138z M450.2,87.2h7v7h-7V87.2z M450.2,94.4h7v7h-7V94.4z M450.2,101.7h7v7h-7V101.7z M450.2,109h7v7h-7V109z M450.2,116.2h7v7
	h-7V116.2z M450.2,123.5h7v7h-7V123.5z M450.2,130.7h7v7h-7V130.7z M450.2,138h7v7h-7V138z M457.4,87.2h7v7h-7V87.2z M457.4,94.4h7
	v7h-7V94.4z M457.4,101.7h7v7h-7V101.7z M457.4,109h7v7h-7V109z M457.4,116.2h7v7h-7V116.2z M457.4,123.5h7v7h-7V123.5z
	 M457.4,130.7h7v7h-7V130.7z M457.4,138h7v7h-7V138z M464.7,87.2h7v7h-7V87.2z M464.7,94.4h7v7h-7V94.4z M464.7,101.7h7v7h-7V101.7z
	 M464.7,109h7v7h-7V109z M464.7,116.2h7v7h-7V116.2z M464.7,123.5h7v7h-7V123.5z M464.7,130.7h7v7h-7V130.7z M464.7,138h7v7h-7V138z
	 M471.9,87.2h7v7h-7V87.2z M471.9,94.4h7v7h-7V94.4z M471.9,101.7h7v7h-7V101.7z M471.9,109h7v7h-7V109z M471.9,116.2h7v7h-7V116.2z
	 M471.9,123.5h7v7h-7V123.5z M471.9,130.7h7v7h-7V130.7z M471.9,138h7v7h-7V138z M479.2,0h7v7h-7V0z M479.2,7.3h7v7h-7V7.3z
	 M486.5,0h7v7h-7V0z M486.5,7.3h7v7h-7V7.3z M493.7,0h7v7h-7V0z M493.7,7.3h7v7h-7V7.3z M501,0h7v7h-7V0z M501,7.3h7v7h-7V7.3z
	 M508.2,0h7v7h-7V0z M508.2,7.3h7v7h-7V7.3z M515.5,0h7v7h-7V0z M515.5,7.3h7v7h-7V7.3z M479.2,14.6h7v7h-7V14.6z M479.2,21.8h7v7
	h-7V21.8z M479.2,29.1h7v7h-7V29.1z M479.2,36.4h7v7h-7V36.4z M479.2,43.6h7v7h-7V43.6z M479.2,50.9h7v7h-7V50.9z M479.2,58.1h7v7
	h-7V58.1z M479.2,65.4h7v7h-7V65.4z M479.2,72.6h7v7h-7V72.6z M479.2,79.9h7v7h-7V79.9z M486.5,14.6h7v7h-7V14.6z M486.5,21.8h7v7
	h-7V21.8z M486.5,29.1h7v7h-7V29.1z M486.5,36.4h7v7h-7V36.4z M486.5,43.6h7v7h-7V43.6z M486.5,50.9h7v7h-7V50.9z M486.5,58.1h7v7
	h-7V58.1z M486.5,65.4h7v7h-7V65.4z M486.5,72.6h7v7h-7V72.6z M486.5,79.9h7v7h-7V79.9z M493.7,14.6h7v7h-7V14.6z M493.7,21.8h7v7
	h-7V21.8z M493.7,29.1h7v7h-7V29.1z M493.7,36.4h7v7h-7V36.4z M493.7,43.6h7v7h-7V43.6z M493.7,50.9h7v7h-7V50.9z M493.7,58.1h7v7
	h-7V58.1z M493.7,65.4h7v7h-7V65.4z M493.7,72.6h7v7h-7V72.6z M493.7,79.9h7v7h-7V79.9z M501,14.6h7v7h-7V14.6z M501,21.8h7v7h-7
	V21.8z M501,29.1h7v7h-7V29.1z M501,36.4h7v7h-7V36.4z M501,43.6h7v7h-7V43.6z M501,50.9h7v7h-7V50.9z M501,58.1h7v7h-7V58.1z
	 M501,65.4h7v7h-7V65.4z M501,72.6h7v7h-7V72.6z M501,79.9h7v7h-7V79.9z M508.2,14.6h7v7h-7V14.6z M508.2,21.8h7v7h-7V21.8z
	 M508.2,29.1h7v7h-7V29.1z M508.2,36.4h7v7h-7V36.4z M508.2,43.6h7v7h-7V43.6z M508.2,50.9h7v7h-7V50.9z M508.2,58.1h7v7h-7V58.1z
	 M508.2,65.4h7v7h-7V65.4z M508.2,72.6h7v7h-7V72.6z M508.2,79.9h7v7h-7V79.9z M515.5,14.6h7v7h-7V14.6z M515.5,21.8h7v7h-7V21.8z
	 M515.5,29.1h7v7h-7V29.1z M515.5,36.4h7v7h-7V36.4z M515.5,43.6h7v7h-7V43.6z M515.5,50.9h7v7h-7V50.9z M515.5,58.1h7v7h-7V58.1z
	 M515.5,65.4h7v7h-7V65.4z M515.5,72.6h7v7h-7V72.6z M515.5,79.9h7v7h-7V79.9z M479.2,87.2h7v7h-7V87.2z M479.2,94.4h7v7h-7V94.4z
	 M479.2,101.7h7v7h-7V101.7z M479.2,109h7v7h-7V109z M479.2,116.2h7v7h-7V116.2z M479.2,123.5h7v7h-7V123.5z M479.2,130.7h7v7h-7
	V130.7z M479.2,138h7v7h-7V138z M486.5,87.2h7v7h-7V87.2z M486.5,94.4h7v7h-7V94.4z M486.5,101.7h7v7h-7V101.7z M486.5,109h7v7h-7
	V109z M486.5,116.2h7v7h-7V116.2z M486.5,123.5h7v7h-7V123.5z M486.5,130.7h7v7h-7V130.7z M486.5,138h7v7h-7V138z M493.7,87.2h7v7
	h-7V87.2z M493.7,94.4h7v7h-7V94.4z M493.7,101.7h7v7h-7V101.7z M493.7,109h7v7h-7V109z M493.7,116.2h7v7h-7V116.2z M493.7,123.5h7
	v7h-7V123.5z M493.7,130.7h7v7h-7V130.7z M493.7,138h7v7h-7V138z M501,87.2h7v7h-7V87.2z M501,94.4h7v7h-7V94.4z M501,101.7h7v7h-7
	V101.7z M501,109h7v7h-7V109z M501,116.2h7v7h-7V116.2z M501,123.5h7v7h-7V123.5z M501,130.7h7v7h-7V130.7z M501,138h7v7h-7V138z
	 M508.2,87.2h7v7h-7V87.2z M508.2,94.4h7v7h-7V94.4z M508.2,101.7h7v7h-7V101.7z M508.2,109h7v7h-7V109z M508.2,116.2h7v7h-7V116.2z
	 M508.2,123.5h7v7h-7V123.5z M508.2,130.7h7v7h-7V130.7z M508.2,138h7v7h-7V138z M515.5,87.2h7v7h-7V87.2z M515.5,94.4h7v7h-7V94.4z
	 M515.5,101.7h7v7h-7V101.7z M515.5,109h7v7h-7V109z M515.5,116.2h7v7h-7V116.2z M515.5,123.5h7v7h-7V123.5z M515.5,130.7h7v7h-7
	V130.7z M515.5,138h7v7h-7V138z M348.5,145.2h7v7h-7V145.2z M355.8,145.2h7v7h-7V145.2z M363,145.2h7v7h-7V145.2z M370.3,145.2h7v7
	h-7V145.2z M377.6,145.2h7v7h-7V145.2z M384.8,145.2h7v7h-7V145.2z M392.1,145.2h7v7h-7V145.2z M399.3,145.2h7v7h-7V145.2z
	 M406.6,145.2h7v7h-7V145.2z M413.9,145.2h7v7h-7V145.2z M421.1,145.2h7v7h-7V145.2z M428.4,145.2h7v7h-7V145.2z M435.6,145.2h7v7
	h-7V145.2z M442.9,145.2h7v7h-7V145.2z M450.2,145.2h7v7h-7V145.2z M457.4,145.2h7v7h-7V145.2z M464.7,145.2h7v7h-7V145.2z
	 M471.9,145.2h7v7h-7V145.2z M479.2,145.2h7v7h-7V145.2z M486.5,145.2h7v7h-7V145.2z M493.7,145.2h7v7h-7V145.2z M501,145.2h7v7h-7
	V145.2z M508.2,145.2h7v7h-7V145.2z M515.5,145.2h7v7h-7V145.2z M174.3,0h7v7h-7V0z M174.3,7.3h7v7h-7V7.3z M181.6,0h7v7h-7V0z
	 M181.6,7.3h7v7h-7V7.3z M188.8,0h7v7h-7V0z M188.8,7.3h7v7h-7V7.3z M196.1,0h7v7h-7V0z M196.1,7.3h7v7h-7V7.3z M203.4,0h7v7h-7V0z
	 M203.4,7.3h7v7h-7V7.3z M210.6,0h7v7h-7V0z M210.6,7.3h7v7h-7V7.3z M217.9,0h7v7h-7V0z M217.9,7.3h7v7h-7V7.3z M225.1,0h7v7h-7V0z
	 M225.1,7.3h7v7h-7V7.3z M174.3,14.6h7v7h-7V14.6z M174.3,21.8h7v7h-7V21.8z M174.3,29.1h7v7h-7V29.1z M174.3,36.4h7v7h-7V36.4z
	 M174.3,43.6h7v7h-7V43.6z M174.3,50.9h7v7h-7V50.9z M174.3,58.1h7v7h-7V58.1z M174.3,65.4h7v7h-7V65.4z M174.3,72.6h7v7h-7V72.6z
	 M174.3,79.9h7v7h-7V79.9z M181.6,14.6h7v7h-7V14.6z M181.6,21.8h7v7h-7V21.8z M181.6,29.1h7v7h-7V29.1z M181.6,36.4h7v7h-7V36.4z
	 M181.6,43.6h7v7h-7V43.6z M181.6,50.9h7v7h-7V50.9z M181.6,58.1h7v7h-7V58.1z M181.6,65.4h7v7h-7V65.4z M181.6,72.6h7v7h-7V72.6z
	 M181.6,79.9h7v7h-7V79.9z M188.8,14.6h7v7h-7V14.6z M188.8,21.8h7v7h-7V21.8z M188.8,29.1h7v7h-7V29.1z M188.8,36.4h7v7h-7V36.4z
	 M188.8,43.6h7v7h-7V43.6z M188.8,50.9h7v7h-7V50.9z M188.8,58.1h7v7h-7V58.1z M188.8,65.4h7v7h-7V65.4z M188.8,72.6h7v7h-7V72.6z
	 M188.8,79.9h7v7h-7V79.9z M196.1,14.6h7v7h-7V14.6z M196.1,21.8h7v7h-7V21.8z M196.1,29.1h7v7h-7V29.1z M196.1,36.4h7v7h-7V36.4z
	 M196.1,43.6h7v7h-7V43.6z M196.1,50.9h7v7h-7V50.9z M196.1,58.1h7v7h-7V58.1z M196.1,65.4h7v7h-7V65.4z M196.1,72.6h7v7h-7V72.6z
	 M196.1,79.9h7v7h-7V79.9z M203.4,14.6h7v7h-7V14.6z M203.4,21.8h7v7h-7V21.8z M203.4,29.1h7v7h-7V29.1z M203.4,36.4h7v7h-7V36.4z
	 M203.4,43.6h7v7h-7V43.6z M203.4,50.9h7v7h-7V50.9z M203.4,58.1h7v7h-7V58.1z M203.4,65.4h7v7h-7V65.4z M203.4,72.6h7v7h-7V72.6z
	 M203.4,79.9h7v7h-7V79.9z M210.6,14.6h7v7h-7V14.6z M210.6,21.8h7v7h-7V21.8z M210.6,29.1h7v7h-7V29.1z M210.6,36.4h7v7h-7V36.4z
	 M210.6,43.6h7v7h-7V43.6z M210.6,50.9h7v7h-7V50.9z M210.6,58.1h7v7h-7V58.1z M210.6,65.4h7v7h-7V65.4z M210.6,72.6h7v7h-7V72.6z
	 M210.6,79.9h7v7h-7V79.9z M217.9,14.6h7v7h-7V14.6z M217.9,21.8h7v7h-7V21.8z M217.9,29.1h7v7h-7V29.1z M217.9,36.4h7v7h-7V36.4z
	 M217.9,43.6h7v7h-7V43.6z M217.9,50.9h7v7h-7V50.9z M217.9,58.1h7v7h-7V58.1z M217.9,65.4h7v7h-7V65.4z M217.9,72.6h7v7h-7V72.6z
	 M217.9,79.9h7v7h-7V79.9z M225.1,14.6h7v7h-7V14.6z M225.1,21.8h7v7h-7V21.8z M225.1,29.1h7v7h-7V29.1z M225.1,36.4h7v7h-7V36.4z
	 M225.1,43.6h7v7h-7V43.6z M225.1,50.9h7v7h-7V50.9z M225.1,58.1h7v7h-7V58.1z M225.1,65.4h7v7h-7V65.4z M225.1,72.6h7v7h-7V72.6z
	 M225.1,79.9h7v7h-7V79.9z M174.3,87.2h7v7h-7V87.2z M174.3,94.4h7v7h-7V94.4z M174.3,101.7h7v7h-7V101.7z M174.3,109h7v7h-7V109z
	 M174.3,116.2h7v7h-7V116.2z M174.3,123.5h7v7h-7V123.5z M174.3,130.7h7v7h-7V130.7z M174.3,138h7v7h-7V138z M181.6,87.2h7v7h-7
	V87.2z M181.6,94.4h7v7h-7V94.4z M181.6,101.7h7v7h-7V101.7z M181.6,109h7v7h-7V109z M181.6,116.2h7v7h-7V116.2z M181.6,123.5h7v7
	h-7V123.5z M181.6,130.7h7v7h-7V130.7z M181.6,138h7v7h-7V138z M188.8,87.2h7v7h-7V87.2z M188.8,94.4h7v7h-7V94.4z M188.8,101.7h7v7
	h-7V101.7z M188.8,109h7v7h-7V109z M188.8,116.2h7v7h-7V116.2z M188.8,123.5h7v7h-7V123.5z M188.8,130.7h7v7h-7V130.7z M188.8,138h7
	v7h-7V138z M196.1,87.2h7v7h-7V87.2z M196.1,94.4h7v7h-7V94.4z M196.1,101.7h7v7h-7V101.7z M196.1,109h7v7h-7V109z M196.1,116.2h7v7
	h-7V116.2z M196.1,123.5h7v7h-7V123.5z M196.1,130.7h7v7h-7V130.7z M196.1,138h7v7h-7V138z M203.4,87.2h7v7h-7V87.2z M203.4,94.4h7
	v7h-7V94.4z M203.4,101.7h7v7h-7V101.7z M203.4,109h7v7h-7V109z M203.4,116.2h7v7h-7V116.2z M203.4,123.5h7v7h-7V123.5z
	 M203.4,130.7h7v7h-7V130.7z M203.4,138h7v7h-7V138z M210.6,87.2h7v7h-7V87.2z M210.6,94.4h7v7h-7V94.4z M210.6,101.7h7v7h-7V101.7z
	 M210.6,109h7v7h-7V109z M210.6,116.2h7v7h-7V116.2z M210.6,123.5h7v7h-7V123.5z M210.6,130.7h7v7h-7V130.7z M210.6,138h7v7h-7V138z
	 M217.9,87.2h7v7h-7V87.2z M217.9,94.4h7v7h-7V94.4z M217.9,101.7h7v7h-7V101.7z M217.9,109h7v7h-7V109z M217.9,116.2h7v7h-7V116.2z
	 M217.9,123.5h7v7h-7V123.5z M217.9,130.7h7v7h-7V130.7z M217.9,138h7v7h-7V138z M225.1,87.2h7v7h-7V87.2z M225.1,94.4h7v7h-7V94.4z
	 M225.1,101.7h7v7h-7V101.7z M225.1,109h7v7h-7V109z M225.1,116.2h7v7h-7V116.2z M225.1,123.5h7v7h-7V123.5z M225.1,130.7h7v7h-7
	V130.7z M225.1,138h7v7h-7V138z M232.4,0h7v7h-7V0z M232.4,7.3h7v7h-7V7.3z M239.7,0h7v7h-7V0z M239.7,7.3h7v7h-7V7.3z M246.9,0h7v7
	h-7V0z M246.9,7.3h7v7h-7V7.3z M254.2,0h7v7h-7V0z M254.2,7.3h7v7h-7V7.3z M261.4,0h7v7h-7V0z M261.4,7.3h7v7h-7V7.3z M268.7,0h7v7
	h-7V0z M268.7,7.3h7v7h-7V7.3z M276,0h7v7h-7V0z M276,7.3h7v7h-7V7.3z M283.2,0h7v7h-7V0z M283.2,7.3h7v7h-7V7.3z M290.5,0h7v7h-7V0
	z M290.5,7.3h7v7h-7V7.3z M297.7,0h7v7h-7V0z M297.7,7.3h7v7h-7V7.3z M232.4,14.6h7v7h-7V14.6z M232.4,21.8h7v7h-7V21.8z
	 M232.4,29.1h7v7h-7V29.1z M232.4,36.4h7v7h-7V36.4z M232.4,43.6h7v7h-7V43.6z M232.4,50.9h7v7h-7V50.9z M232.4,58.1h7v7h-7V58.1z
	 M232.4,65.4h7v7h-7V65.4z M232.4,72.6h7v7h-7V72.6z M232.4,79.9h7v7h-7V79.9z M239.7,14.6h7v7h-7V14.6z M239.7,21.8h7v7h-7V21.8z
	 M239.7,29.1h7v7h-7V29.1z M239.7,36.4h7v7h-7V36.4z M239.7,50.9h7v7h-7V50.9z M239.7,58.1h7v7h-7V58.1z M239.7,65.4h7v7h-7V65.4z
	 M239.7,72.6h7v7h-7V72.6z M239.7,79.9h7v7h-7V79.9z M246.9,14.6h7v7h-7V14.6z M246.9,21.8h7v7h-7V21.8z M246.9,29.1h7v7h-7V29.1z
	 M246.9,43.6h7v7h-7V43.6z M246.9,50.9h7v7h-7V50.9z M246.9,58.1h7v7h-7V58.1z M246.9,65.4h7v7h-7V65.4z M246.9,72.6h7v7h-7V72.6z
	 M254.2,14.6h7v7h-7V14.6z M254.2,21.8h7v7h-7V21.8z M254.2,29.1h7v7h-7V29.1z M254.2,43.6h7v7h-7V43.6z M254.2,50.9h7v7h-7V50.9z
	 M254.2,58.1h7v7h-7V58.1z M254.2,65.4h7v7h-7V65.4z M254.2,72.6h7v7h-7V72.6z M261.4,14.6h7v7h-7V14.6z M261.4,21.8h7v7h-7V21.8z
	 M261.4,29.1h7v7h-7V29.1z M261.4,43.6h7v7h-7V43.6z M261.4,50.9h7v7h-7V50.9z M261.4,58.1h7v7h-7V58.1z M261.4,65.4h7v7h-7V65.4z
	 M261.4,79.9h7v7h-7V79.9z M268.7,14.6h7v7h-7V14.6z M268.7,21.8h7v7h-7V21.8z M268.7,29.1h7v7h-7V29.1z M268.7,36.4h7v7h-7V36.4z
	 M268.7,58.1h7v7h-7V58.1z M268.7,72.6h7v7h-7V72.6z M268.7,79.9h7v7h-7V79.9z M276,14.6h7v7h-7V14.6z M276,21.8h7v7h-7V21.8z
	 M276,29.1h7v7h-7V29.1z M276,36.4h7v7h-7V36.4z M276,43.6h7v7h-7V43.6z M276,50.9h7v7h-7V50.9z M276,58.1h7v7h-7V58.1z M276,65.4h7
	v7h-7V65.4z M276,72.6h7v7h-7V72.6z M276,79.9h7v7h-7V79.9z M283.2,14.6h7v7h-7V14.6z M283.2,21.8h7v7h-7V21.8z M283.2,29.1h7v7h-7
	V29.1z M283.2,36.4h7v7h-7V36.4z M283.2,43.6h7v7h-7V43.6z M283.2,50.9h7v7h-7V50.9z M283.2,58.1h7v7h-7V58.1z M283.2,65.4h7v7h-7
	V65.4z M283.2,72.6h7v7h-7V72.6z M283.2,79.9h7v7h-7V79.9z M290.5,14.6h7v7h-7V14.6z M290.5,21.8h7v7h-7V21.8z M290.5,29.1h7v7h-7
	V29.1z M290.5,36.4h7v7h-7V36.4z M290.5,43.6h7v7h-7V43.6z M290.5,50.9h7v7h-7V50.9z M290.5,58.1h7v7h-7V58.1z M290.5,65.4h7v7h-7
	V65.4z M290.5,72.6h7v7h-7V72.6z M290.5,79.9h7v7h-7V79.9z M297.7,14.6h7v7h-7V14.6z M297.7,21.8h7v7h-7V21.8z M297.7,29.1h7v7h-7
	V29.1z M297.7,36.4h7v7h-7V36.4z M297.7,43.6h7v7h-7V43.6z M297.7,50.9h7v7h-7V50.9z M297.7,58.1h7v7h-7V58.1z M297.7,65.4h7v7h-7
	V65.4z M297.7,72.6h7v7h-7V72.6z M297.7,79.9h7v7h-7V79.9z M232.4,87.2h7v7h-7V87.2z M232.4,94.4h7v7h-7V94.4z M232.4,109h7v7h-7
	V109z M232.4,116.2h7v7h-7V116.2z M232.4,123.5h7v7h-7V123.5z M232.4,130.7h7v7h-7V130.7z M232.4,138h7v7h-7V138z M239.7,109h7v7h-7
	V109z M239.7,116.2h7v7h-7V116.2z M239.7,123.5h7v7h-7V123.5z M239.7,130.7h7v7h-7V130.7z M239.7,138h7v7h-7V138z M246.9,87.2h7v7
	h-7V87.2z M246.9,94.4h7v7h-7V94.4z M246.9,109h7v7h-7V109z M246.9,116.2h7v7h-7V116.2z M246.9,123.5h7v7h-7V123.5z M246.9,130.7h7
	v7h-7V130.7z M246.9,138h7v7h-7V138z M254.2,87.2h7v7h-7V87.2z M254.2,94.4h7v7h-7V94.4z M254.2,109h7v7h-7V109z M254.2,116.2h7v7
	h-7V116.2z M254.2,123.5h7v7h-7V123.5z M254.2,130.7h7v7h-7V130.7z M254.2,138h7v7h-7V138z M261.4,87.2h7v7h-7V87.2z M261.4,94.4h7
	v7h-7V94.4z M261.4,109h7v7h-7V109z M261.4,116.2h7v7h-7V116.2z M261.4,123.5h7v7h-7V123.5z M261.4,130.7h7v7h-7V130.7z M261.4,138
	h7v7h-7V138z M268.7,87.2h7v7h-7V87.2z M268.7,94.4h7v7h-7V94.4z M268.7,109h7v7h-7V109z M268.7,116.2h7v7h-7V116.2z M268.7,123.5h7
	v7h-7V123.5z M268.7,130.7h7v7h-7V130.7z M268.7,138h7v7h-7V138z M276,87.2h7v7h-7V87.2z M276,94.4h7v7h-7V94.4z M276,101.7h7v7h-7
	V101.7z M276,109h7v7h-7V109z M276,116.2h7v7h-7V116.2z M276,123.5h7v7h-7V123.5z M276,130.7h7v7h-7V130.7z M276,138h7v7h-7V138z
	 M283.2,87.2h7v7h-7V87.2z M283.2,94.4h7v7h-7V94.4z M283.2,101.7h7v7h-7V101.7z M283.2,109h7v7h-7V109z M283.2,116.2h7v7h-7V116.2z
	 M283.2,123.5h7v7h-7V123.5z M283.2,130.7h7v7h-7V130.7z M283.2,138h7v7h-7V138z M290.5,87.2h7v7h-7V87.2z M290.5,94.4h7v7h-7V94.4z
	 M290.5,101.7h7v7h-7V101.7z M290.5,109h7v7h-7V109z M290.5,116.2h7v7h-7V116.2z M290.5,123.5h7v7h-7V123.5z M290.5,130.7h7v7h-7
	V130.7z M290.5,138h7v7h-7V138z M297.7,87.2h7v7h-7V87.2z M297.7,94.4h7v7h-7V94.4z M297.7,101.7h7v7h-7V101.7z M297.7,109h7v7h-7
	V109z M297.7,116.2h7v7h-7V116.2z M297.7,123.5h7v7h-7V123.5z M297.7,130.7h7v7h-7V130.7z M297.7,138h7v7h-7V138z M305,0h7v7h-7V0z
	 M305,7.3h7v7h-7V7.3z M312.3,0h7v7h-7V0z M312.3,7.3h7v7h-7V7.3z M319.5,0h7v7h-7V0z M319.5,7.3h7v7h-7V7.3z M326.8,0h7v7h-7V0z
	 M326.8,7.3h7v7h-7V7.3z M334,0h7v7h-7V0z M334,7.3h7v7h-7V7.3z M341.3,0h7v7h-7V0z M341.3,7.3h7v7h-7V7.3z M305,14.6h7v7h-7V14.6z
	 M305,21.8h7v7h-7V21.8z M305,29.1h7v7h-7V29.1z M305,36.4h7v7h-7V36.4z M305,43.6h7v7h-7V43.6z M305,50.9h7v7h-7V50.9z M305,58.1h7
	v7h-7V58.1z M305,65.4h7v7h-7V65.4z M305,72.6h7v7h-7V72.6z M305,79.9h7v7h-7V79.9z M312.3,14.6h7v7h-7V14.6z M312.3,21.8h7v7h-7
	V21.8z M312.3,29.1h7v7h-7V29.1z M312.3,36.4h7v7h-7V36.4z M312.3,43.6h7v7h-7V43.6z M312.3,50.9h7v7h-7V50.9z M312.3,58.1h7v7h-7
	V58.1z M312.3,65.4h7v7h-7V65.4z M312.3,72.6h7v7h-7V72.6z M312.3,79.9h7v7h-7V79.9z M319.5,14.6h7v7h-7V14.6z M319.5,21.8h7v7h-7
	V21.8z M319.5,29.1h7v7h-7V29.1z M319.5,36.4h7v7h-7V36.4z M319.5,43.6h7v7h-7V43.6z M319.5,50.9h7v7h-7V50.9z M319.5,58.1h7v7h-7
	V58.1z M319.5,65.4h7v7h-7V65.4z M319.5,72.6h7v7h-7V72.6z M319.5,79.9h7v7h-7V79.9z M326.8,14.6h7v7h-7V14.6z M326.8,21.8h7v7h-7
	V21.8z M326.8,29.1h7v7h-7V29.1z M326.8,36.4h7v7h-7V36.4z M326.8,43.6h7v7h-7V43.6z M326.8,50.9h7v7h-7V50.9z M326.8,58.1h7v7h-7
	V58.1z M326.8,65.4h7v7h-7V65.4z M326.8,72.6h7v7h-7V72.6z M326.8,79.9h7v7h-7V79.9z M334,14.6h7v7h-7V14.6z M334,21.8h7v7h-7V21.8z
	 M334,29.1h7v7h-7V29.1z M334,36.4h7v7h-7V36.4z M334,43.6h7v7h-7V43.6z M334,50.9h7v7h-7V50.9z M334,58.1h7v7h-7V58.1z M334,65.4h7
	v7h-7V65.4z M334,72.6h7v7h-7V72.6z M334,79.9h7v7h-7V79.9z M341.3,14.6h7v7h-7V14.6z M341.3,21.8h7v7h-7V21.8z M341.3,29.1h7v7h-7
	V29.1z M341.3,36.4h7v7h-7V36.4z M341.3,43.6h7v7h-7V43.6z M341.3,50.9h7v7h-7V50.9z M341.3,58.1h7v7h-7V58.1z M341.3,65.4h7v7h-7
	V65.4z M341.3,72.6h7v7h-7V72.6z M341.3,79.9h7v7h-7V79.9z M305,87.2h7v7h-7V87.2z M305,94.4h7v7h-7V94.4z M305,101.7h7v7h-7V101.7z
	 M305,109h7v7h-7V109z M305,116.2h7v7h-7V116.2z M305,123.5h7v7h-7V123.5z M305,130.7h7v7h-7V130.7z M305,138h7v7h-7V138z
	 M312.3,87.2h7v7h-7V87.2z M312.3,94.4h7v7h-7V94.4z M312.3,101.7h7v7h-7V101.7z M312.3,109h7v7h-7V109z M312.3,116.2h7v7h-7V116.2z
	 M312.3,123.5h7v7h-7V123.5z M312.3,130.7h7v7h-7V130.7z M312.3,138h7v7h-7V138z M319.5,87.2h7v7h-7V87.2z M319.5,94.4h7v7h-7V94.4z
	 M319.5,101.7h7v7h-7V101.7z M319.5,109h7v7h-7V109z M319.5,116.2h7v7h-7V116.2z M319.5,123.5h7v7h-7V123.5z M319.5,130.7h7v7h-7
	V130.7z M319.5,138h7v7h-7V138z M326.8,87.2h7v7h-7V87.2z M326.8,94.4h7v7h-7V94.4z M326.8,101.7h7v7h-7V101.7z M326.8,109h7v7h-7
	V109z M326.8,116.2h7v7h-7V116.2z M326.8,123.5h7v7h-7V123.5z M326.8,130.7h7v7h-7V130.7z M326.8,138h7v7h-7V138z M334,87.2h7v7h-7
	V87.2z M334,94.4h7v7h-7V94.4z M334,101.7h7v7h-7V101.7z M334,109h7v7h-7V109z M334,116.2h7v7h-7V116.2z M334,123.5h7v7h-7V123.5z
	 M334,130.7h7v7h-7V130.7z M334,138h7v7h-7V138z M341.3,87.2h7v7h-7V87.2z M341.3,94.4h7v7h-7V94.4z M341.3,101.7h7v7h-7V101.7z
	 M341.3,109h7v7h-7V109z M341.3,116.2h7v7h-7V116.2z M341.3,123.5h7v7h-7V123.5z M341.3,130.7h7v7h-7V130.7z M341.3,138h7v7h-7V138z
	 M174.3,145.2h7v7h-7V145.2z M181.6,145.2h7v7h-7V145.2z M188.8,145.2h7v7h-7V145.2z M196.1,145.2h7v7h-7V145.2z M203.4,145.2h7v7
	h-7V145.2z M210.6,145.2h7v7h-7V145.2z M217.9,145.2h7v7h-7V145.2z M225.1,145.2h7v7h-7V145.2z M232.4,145.2h7v7h-7V145.2z
	 M239.7,145.2h7v7h-7V145.2z M246.9,145.2h7v7h-7V145.2z M254.2,145.2h7v7h-7V145.2z M261.4,145.2h7v7h-7V145.2z M268.7,145.2h7v7
	h-7V145.2z M276,145.2h7v7h-7V145.2z M283.2,145.2h7v7h-7V145.2z M290.5,145.2h7v7h-7V145.2z M297.7,145.2h7v7h-7V145.2z M305,145.2
	h7v7h-7V145.2z M312.3,145.2h7v7h-7V145.2z M319.5,145.2h7v7h-7V145.2z M326.8,145.2h7v7h-7V145.2z M334,145.2h7v7h-7V145.2z
	 M341.3,145.2h7v7h-7V145.2z M0,0h7v7H0V0z M0,7.3h7v7H0V7.3z M7.3,0h7v7h-7V0z M7.3,7.3h7v7h-7V7.3z M14.5,0h7v7h-7V0z M14.5,7.3h7
	v7h-7V7.3z M21.8,0h7v7h-7V0z M21.8,7.3h7v7h-7V7.3z M29.1,0h7v7h-7V0z M29.1,7.3h7v7h-7V7.3z M36.3,0h7v7h-7V0z M36.3,7.3h7v7h-7
	V7.3z M43.6,0h7v7h-7V0z M43.6,7.3h7v7h-7V7.3z M50.8,0h7v7h-7V0z M50.8,7.3h7v7h-7V7.3z M0,14.6h7v7H0V14.6z M0,21.8h7v7H0V21.8z
	 M0,29.1h7v7H0V29.1z M0,36.4h7v7H0V36.4z M0,43.6h7v7H0V43.6z M0,50.9h7v7H0V50.9z M0,58.1h7v7H0V58.1z M0,65.4h7v7H0V65.4z
	 M0,72.6h7v7H0V72.6z M0,79.9h7v7H0V79.9z M7.3,14.6h7v7h-7V14.6z M7.3,21.8h7v7h-7V21.8z M7.3,29.1h7v7h-7V29.1z M7.3,36.4h7v7h-7
	V36.4z M7.3,43.6h7v7h-7V43.6z M7.3,50.9h7v7h-7V50.9z M7.3,58.1h7v7h-7V58.1z M7.3,65.4h7v7h-7V65.4z M7.3,72.6h7v7h-7V72.6z
	 M7.3,79.9h7v7h-7V79.9z M14.5,14.6h7v7h-7V14.6z M14.5,21.8h7v7h-7V21.8z M14.5,29.1h7v7h-7V29.1z M14.5,36.4h7v7h-7V36.4z
	 M14.5,43.6h7v7h-7V43.6z M14.5,50.9h7v7h-7V50.9z M14.5,58.1h7v7h-7V58.1z M14.5,65.4h7v7h-7V65.4z M14.5,72.6h7v7h-7V72.6z
	 M14.5,79.9h7v7h-7V79.9z M21.8,14.6h7v7h-7V14.6z M21.8,21.8h7v7h-7V21.8z M21.8,29.1h7v7h-7V29.1z M21.8,36.4h7v7h-7V36.4z
	 M21.8,43.6h7v7h-7V43.6z M21.8,50.9h7v7h-7V50.9z M21.8,58.1h7v7h-7V58.1z M21.8,65.4h7v7h-7V65.4z M21.8,72.6h7v7h-7V72.6z
	 M21.8,79.9h7v7h-7V79.9z M29.1,14.6h7v7h-7V14.6z M29.1,21.8h7v7h-7V21.8z M29.1,29.1h7v7h-7V29.1z M29.1,36.4h7v7h-7V36.4z
	 M29.1,43.6h7v7h-7V43.6z M29.1,50.9h7v7h-7V50.9z M29.1,58.1h7v7h-7V58.1z M29.1,65.4h7v7h-7V65.4z M29.1,72.6h7v7h-7V72.6z
	 M29.1,79.9h7v7h-7V79.9z M36.3,14.6h7v7h-7V14.6z M36.3,21.8h7v7h-7V21.8z M36.3,29.1h7v7h-7V29.1z M36.3,36.4h7v7h-7V36.4z
	 M36.3,43.6h7v7h-7V43.6z M36.3,50.9h7v7h-7V50.9z M36.3,58.1h7v7h-7V58.1z M36.3,65.4h7v7h-7V65.4z M36.3,72.6h7v7h-7V72.6z
	 M36.3,79.9h7v7h-7V79.9z M43.6,14.6h7v7h-7V14.6z M43.6,21.8h7v7h-7V21.8z M43.6,29.1h7v7h-7V29.1z M43.6,36.4h7v7h-7V36.4z
	 M43.6,43.6h7v7h-7V43.6z M43.6,50.9h7v7h-7V50.9z M43.6,58.1h7v7h-7V58.1z M43.6,65.4h7v7h-7V65.4z M43.6,72.6h7v7h-7V72.6z
	 M43.6,79.9h7v7h-7V79.9z M50.8,14.6h7v7h-7V14.6z M50.8,21.8h7v7h-7V21.8z M50.8,29.1h7v7h-7V29.1z M50.8,36.4h7v7h-7V36.4z
	 M50.8,43.6h7v7h-7V43.6z M50.8,50.9h7v7h-7V50.9z M50.8,58.1h7v7h-7V58.1z M50.8,65.4h7v7h-7V65.4z M50.8,72.6h7v7h-7V72.6z
	 M50.8,79.9h7v7h-7V79.9z M0,87.2h7v7H0V87.2z M0,94.4h7v7H0V94.4z M0,101.7h7v7H0V101.7z M0,109h7v7H0V109z M0,116.2h7v7H0V116.2z
	 M0,123.5h7v7H0V123.5z M0,130.7h7v7H0V130.7z M0,138h7v7H0V138z M7.3,87.2h7v7h-7V87.2z M7.3,94.4h7v7h-7V94.4z M7.3,101.7h7v7h-7
	V101.7z M7.3,109h7v7h-7V109z M7.3,116.2h7v7h-7V116.2z M7.3,123.5h7v7h-7V123.5z M7.3,130.7h7v7h-7V130.7z M7.3,138h7v7h-7V138z
	 M14.5,87.2h7v7h-7V87.2z M14.5,94.4h7v7h-7V94.4z M14.5,101.7h7v7h-7V101.7z M14.5,109h7v7h-7V109z M14.5,116.2h7v7h-7V116.2z
	 M14.5,123.5h7v7h-7V123.5z M14.5,130.7h7v7h-7V130.7z M14.5,138h7v7h-7V138z M21.8,87.2h7v7h-7V87.2z M21.8,94.4h7v7h-7V94.4z
	 M21.8,101.7h7v7h-7V101.7z M21.8,109h7v7h-7V109z M21.8,116.2h7v7h-7V116.2z M21.8,123.5h7v7h-7V123.5z M21.8,130.7h7v7h-7V130.7z
	 M21.8,138h7v7h-7V138z M29.1,87.2h7v7h-7V87.2z M29.1,94.4h7v7h-7V94.4z M29.1,101.7h7v7h-7V101.7z M29.1,109h7v7h-7V109z
	 M29.1,116.2h7v7h-7V116.2z M29.1,123.5h7v7h-7V123.5z M29.1,130.7h7v7h-7V130.7z M29.1,138h7v7h-7V138z M36.3,87.2h7v7h-7V87.2z
	 M36.3,94.4h7v7h-7V94.4z M36.3,101.7h7v7h-7V101.7z M36.3,109h7v7h-7V109z M36.3,116.2h7v7h-7V116.2z M36.3,123.5h7v7h-7V123.5z
	 M36.3,130.7h7v7h-7V130.7z M36.3,138h7v7h-7V138z M43.6,87.2h7v7h-7V87.2z M43.6,94.4h7v7h-7V94.4z M43.6,101.7h7v7h-7V101.7z
	 M43.6,109h7v7h-7V109z M43.6,116.2h7v7h-7V116.2z M43.6,123.5h7v7h-7V123.5z M43.6,130.7h7v7h-7V130.7z M43.6,138h7v7h-7V138z
	 M50.8,87.2h7v7h-7V87.2z M50.8,94.4h7v7h-7V94.4z M50.8,101.7h7v7h-7V101.7z M50.8,109h7v7h-7V109z M50.8,116.2h7v7h-7V116.2z
	 M50.8,123.5h7v7h-7V123.5z M50.8,130.7h7v7h-7V130.7z M50.8,138h7v7h-7V138z M58.1,0h7v7h-7V0z M58.1,7.3h7v7h-7V7.3z M65.4,0h7v7
	h-7V0z M65.4,7.3h7v7h-7V7.3z M72.6,0h7v7h-7V0z M72.6,7.3h7v7h-7V7.3z M79.9,0h7v7h-7V0z M79.9,7.3h7v7h-7V7.3z M87.1,0h7v7h-7V0z
	 M87.1,7.3h7v7h-7V7.3z M94.4,0h7v7h-7V0z M94.4,7.3h7v7h-7V7.3z M101.7,0h7v7h-7V0z M101.7,7.3h7v7h-7V7.3z M108.9,0h7v7h-7V0z
	 M108.9,7.3h7v7h-7V7.3z M116.2,0h7v7h-7V0z M116.2,7.3h7v7h-7V7.3z M123.4,0h7v7h-7V0z M123.4,7.3h7v7h-7V7.3z M58.1,14.6h7v7h-7
	V14.6z M58.1,21.8h7v7h-7V21.8z M58.1,29.1h7v7h-7V29.1z M58.1,36.4h7v7h-7V36.4z M58.1,43.6h7v7h-7V43.6z M58.1,50.9h7v7h-7V50.9z
	 M58.1,65.4h7v7h-7V65.4z M58.1,72.6h7v7h-7V72.6z M58.1,79.9h7v7h-7V79.9z M65.4,14.6h7v7h-7V14.6z M65.4,21.8h7v7h-7V21.8z
	 M65.4,29.1h7v7h-7V29.1z M65.4,36.4h7v7h-7V36.4z M65.4,43.6h7v7h-7V43.6z M65.4,58.1h7v7h-7V58.1z M65.4,65.4h7v7h-7V65.4z
	 M65.4,72.6h7v7h-7V72.6z M65.4,79.9h7v7h-7V79.9z M72.6,14.6h7v7h-7V14.6z M72.6,21.8h7v7h-7V21.8z M72.6,29.1h7v7h-7V29.1z
	 M72.6,36.4h7v7h-7V36.4z M72.6,50.9h7v7h-7V50.9z M72.6,58.1h7v7h-7V58.1z M72.6,65.4h7v7h-7V65.4z M72.6,72.6h7v7h-7V72.6z
	 M72.6,79.9h7v7h-7V79.9z M79.9,14.6h7v7h-7V14.6z M79.9,21.8h7v7h-7V21.8z M79.9,29.1h7v7h-7V29.1z M87.1,14.6h7v7h-7V14.6z
	 M87.1,21.8h7v7h-7V21.8z M87.1,29.1h7v7h-7V29.1z M87.1,36.4h7v7h-7V36.4z M87.1,43.6h7v7h-7V43.6z M87.1,50.9h7v7h-7V50.9z
	 M87.1,58.1h7v7h-7V58.1z M87.1,65.4h7v7h-7V65.4z M87.1,72.6h7v7h-7V72.6z M87.1,79.9h7v7h-7V79.9z M94.4,14.6h7v7h-7V14.6z
	 M94.4,21.8h7v7h-7V21.8z M94.4,29.1h7v7h-7V29.1z M94.4,36.4h7v7h-7V36.4z M94.4,43.6h7v7h-7V43.6z M94.4,50.9h7v7h-7V50.9z
	 M94.4,58.1h7v7h-7V58.1z M94.4,65.4h7v7h-7V65.4z M94.4,72.6h7v7h-7V72.6z M94.4,79.9h7v7h-7V79.9z M101.7,14.6h7v7h-7V14.6z
	 M101.7,21.8h7v7h-7V21.8z M101.7,29.1h7v7h-7V29.1z M101.7,36.4h7v7h-7V36.4z M101.7,43.6h7v7h-7V43.6z M101.7,50.9h7v7h-7V50.9z
	 M101.7,58.1h7v7h-7V58.1z M101.7,65.4h7v7h-7V65.4z M101.7,72.6h7v7h-7V72.6z M101.7,79.9h7v7h-7V79.9z M108.9,14.6h7v7h-7V14.6z
	 M108.9,21.8h7v7h-7V21.8z M108.9,29.1h7v7h-7V29.1z M108.9,36.4h7v7h-7V36.4z M108.9,43.6h7v7h-7V43.6z M108.9,50.9h7v7h-7V50.9z
	 M108.9,58.1h7v7h-7V58.1z M108.9,65.4h7v7h-7V65.4z M108.9,72.6h7v7h-7V72.6z M108.9,79.9h7v7h-7V79.9z M116.2,14.6h7v7h-7V14.6z
	 M116.2,21.8h7v7h-7V21.8z M116.2,29.1h7v7h-7V29.1z M116.2,36.4h7v7h-7V36.4z M116.2,43.6h7v7h-7V43.6z M116.2,50.9h7v7h-7V50.9z
	 M116.2,58.1h7v7h-7V58.1z M116.2,65.4h7v7h-7V65.4z M116.2,72.6h7v7h-7V72.6z M116.2,79.9h7v7h-7V79.9z M123.4,14.6h7v7h-7V14.6z
	 M123.4,21.8h7v7h-7V21.8z M123.4,29.1h7v7h-7V29.1z M123.4,36.4h7v7h-7V36.4z M123.4,43.6h7v7h-7V43.6z M123.4,50.9h7v7h-7V50.9z
	 M123.4,58.1h7v7h-7V58.1z M123.4,65.4h7v7h-7V65.4z M123.4,72.6h7v7h-7V72.6z M123.4,79.9h7v7h-7V79.9z M58.1,87.2h7v7h-7V87.2z
	 M58.1,94.4h7v7h-7V94.4z M58.1,101.7h7v7h-7V101.7z M58.1,109h7v7h-7V109z M58.1,116.2h7v7h-7V116.2z M58.1,123.5h7v7h-7V123.5z
	 M58.1,130.7h7v7h-7V130.7z M58.1,138h7v7h-7V138z M65.4,87.2h7v7h-7V87.2z M65.4,94.4h7v7h-7V94.4z M65.4,101.7h7v7h-7V101.7z
	 M65.4,109h7v7h-7V109z M65.4,116.2h7v7h-7V116.2z M65.4,123.5h7v7h-7V123.5z M65.4,130.7h7v7h-7V130.7z M65.4,138h7v7h-7V138z
	 M72.6,87.2h7v7h-7V87.2z M72.6,101.7h7v7h-7V101.7z M72.6,109h7v7h-7V109z M72.6,116.2h7v7h-7V116.2z M72.6,123.5h7v7h-7V123.5z
	 M72.6,130.7h7v7h-7V130.7z M72.6,138h7v7h-7V138z M79.9,101.7h7v7h-7V101.7z M79.9,109h7v7h-7V109z M79.9,116.2h7v7h-7V116.2z
	 M79.9,123.5h7v7h-7V123.5z M79.9,130.7h7v7h-7V130.7z M79.9,138h7v7h-7V138z M87.1,87.2h7v7h-7V87.2z M87.1,101.7h7v7h-7V101.7z
	 M87.1,109h7v7h-7V109z M87.1,116.2h7v7h-7V116.2z M87.1,123.5h7v7h-7V123.5z M87.1,130.7h7v7h-7V130.7z M87.1,138h7v7h-7V138z
	 M94.4,87.2h7v7h-7V87.2z M94.4,94.4h7v7h-7V94.4z M94.4,101.7h7v7h-7V101.7z M94.4,109h7v7h-7V109z M94.4,116.2h7v7h-7V116.2z
	 M94.4,123.5h7v7h-7V123.5z M94.4,130.7h7v7h-7V130.7z M94.4,138h7v7h-7V138z M101.7,87.2h7v7h-7V87.2z M101.7,94.4h7v7h-7V94.4z
	 M101.7,101.7h7v7h-7V101.7z M101.7,109h7v7h-7V109z M101.7,116.2h7v7h-7V116.2z M101.7,123.5h7v7h-7V123.5z M101.7,130.7h7v7h-7
	V130.7z M101.7,138h7v7h-7V138z M108.9,87.2h7v7h-7V87.2z M108.9,94.4h7v7h-7V94.4z M108.9,101.7h7v7h-7V101.7z M108.9,109h7v7h-7
	V109z M108.9,116.2h7v7h-7V116.2z M108.9,123.5h7v7h-7V123.5z M108.9,130.7h7v7h-7V130.7z M108.9,138h7v7h-7V138z M116.2,87.2h7v7
	h-7V87.2z M116.2,94.4h7v7h-7V94.4z M116.2,101.7h7v7h-7V101.7z M116.2,109h7v7h-7V109z M116.2,116.2h7v7h-7V116.2z M116.2,123.5h7
	v7h-7V123.5z M116.2,130.7h7v7h-7V130.7z M116.2,138h7v7h-7V138z M123.4,87.2h7v7h-7V87.2z M123.4,94.4h7v7h-7V94.4z M123.4,101.7h7
	v7h-7V101.7z M123.4,109h7v7h-7V109z M123.4,116.2h7v7h-7V116.2z M123.4,123.5h7v7h-7V123.5z M123.4,130.7h7v7h-7V130.7z M123.4,138
	h7v7h-7V138z M130.7,0h7v7h-7V0z M130.7,7.3h7v7h-7V7.3z M138,0h7v7h-7V0z M138,7.3h7v7h-7V7.3z M145.2,0h7v7h-7V0z M145.2,7.3h7v7
	h-7V7.3z M152.5,0h7v7h-7V0z M152.5,7.3h7v7h-7V7.3z M159.7,0h7v7h-7V0z M159.7,7.3h7v7h-7V7.3z M167,0h7v7h-7V0z M167,7.3h7v7h-7
	V7.3z M130.7,14.6h7v7h-7V14.6z M130.7,21.8h7v7h-7V21.8z M130.7,29.1h7v7h-7V29.1z M130.7,36.4h7v7h-7V36.4z M130.7,43.6h7v7h-7
	V43.6z M130.7,50.9h7v7h-7V50.9z M130.7,58.1h7v7h-7V58.1z M130.7,65.4h7v7h-7V65.4z M130.7,72.6h7v7h-7V72.6z M130.7,79.9h7v7h-7
	V79.9z M138,14.6h7v7h-7V14.6z M138,21.8h7v7h-7V21.8z M138,29.1h7v7h-7V29.1z M138,36.4h7v7h-7V36.4z M138,43.6h7v7h-7V43.6z
	 M138,50.9h7v7h-7V50.9z M138,58.1h7v7h-7V58.1z M138,65.4h7v7h-7V65.4z M138,72.6h7v7h-7V72.6z M138,79.9h7v7h-7V79.9z M145.2,14.6
	h7v7h-7V14.6z M145.2,21.8h7v7h-7V21.8z M145.2,29.1h7v7h-7V29.1z M145.2,36.4h7v7h-7V36.4z M145.2,43.6h7v7h-7V43.6z M145.2,50.9h7
	v7h-7V50.9z M145.2,58.1h7v7h-7V58.1z M145.2,65.4h7v7h-7V65.4z M145.2,72.6h7v7h-7V72.6z M145.2,79.9h7v7h-7V79.9z M152.5,14.6h7v7
	h-7V14.6z M152.5,21.8h7v7h-7V21.8z M152.5,29.1h7v7h-7V29.1z M152.5,36.4h7v7h-7V36.4z M152.5,43.6h7v7h-7V43.6z M152.5,50.9h7v7
	h-7V50.9z M152.5,58.1h7v7h-7V58.1z M152.5,65.4h7v7h-7V65.4z M152.5,72.6h7v7h-7V72.6z M152.5,79.9h7v7h-7V79.9z M159.7,14.6h7v7
	h-7V14.6z M159.7,21.8h7v7h-7V21.8z M159.7,29.1h7v7h-7V29.1z M159.7,36.4h7v7h-7V36.4z M159.7,43.6h7v7h-7V43.6z M159.7,50.9h7v7
	h-7V50.9z M159.7,58.1h7v7h-7V58.1z M159.7,65.4h7v7h-7V65.4z M159.7,72.6h7v7h-7V72.6z M159.7,79.9h7v7h-7V79.9z M167,14.6h7v7h-7
	V14.6z M167,21.8h7v7h-7V21.8z M167,29.1h7v7h-7V29.1z M167,36.4h7v7h-7V36.4z M167,43.6h7v7h-7V43.6z M167,50.9h7v7h-7V50.9z
	 M167,58.1h7v7h-7V58.1z M167,65.4h7v7h-7V65.4z M167,72.6h7v7h-7V72.6z M167,79.9h7v7h-7V79.9z M130.7,87.2h7v7h-7V87.2z
	 M130.7,94.4h7v7h-7V94.4z M130.7,101.7h7v7h-7V101.7z M130.7,109h7v7h-7V109z M130.7,116.2h7v7h-7V116.2z M130.7,123.5h7v7h-7
	V123.5z M130.7,130.7h7v7h-7V130.7z M130.7,138h7v7h-7V138z M138,87.2h7v7h-7V87.2z M138,94.4h7v7h-7V94.4z M138,101.7h7v7h-7V101.7
	z M138,109h7v7h-7V109z M138,116.2h7v7h-7V116.2z M138,123.5h7v7h-7V123.5z M138,130.7h7v7h-7V130.7z M138,138h7v7h-7V138z
	 M145.2,87.2h7v7h-7V87.2z M145.2,94.4h7v7h-7V94.4z M145.2,101.7h7v7h-7V101.7z M145.2,109h7v7h-7V109z M145.2,116.2h7v7h-7V116.2z
	 M145.2,123.5h7v7h-7V123.5z M145.2,130.7h7v7h-7V130.7z M145.2,138h7v7h-7V138z M152.5,87.2h7v7h-7V87.2z M152.5,94.4h7v7h-7V94.4z
	 M152.5,101.7h7v7h-7V101.7z M152.5,109h7v7h-7V109z M152.5,116.2h7v7h-7V116.2z M152.5,123.5h7v7h-7V123.5z M152.5,130.7h7v7h-7
	V130.7z M152.5,138h7v7h-7V138z M159.7,87.2h7v7h-7V87.2z M159.7,94.4h7v7h-7V94.4z M159.7,101.7h7v7h-7V101.7z M159.7,109h7v7h-7
	V109z M159.7,116.2h7v7h-7V116.2z M159.7,123.5h7v7h-7V123.5z M159.7,130.7h7v7h-7V130.7z M159.7,138h7v7h-7V138z M167,87.2h7v7h-7
	V87.2z M167,94.4h7v7h-7V94.4z M167,101.7h7v7h-7V101.7z M167,109h7v7h-7V109z M167,116.2h7v7h-7V116.2z M167,123.5h7v7h-7V123.5z
	 M167,130.7h7v7h-7V130.7z M167,138h7v7h-7V138z M0,145.2h7v7H0V145.2z M7.3,145.2h7v7h-7V145.2z M14.5,145.2h7v7h-7V145.2z
	 M21.8,145.2h7v7h-7V145.2z M29.1,145.2h7v7h-7V145.2z M36.3,145.2h7v7h-7V145.2z M43.6,145.2h7v7h-7V145.2z M50.8,145.2h7v7h-7
	V145.2z M58.1,145.2h7v7h-7V145.2z M65.4,145.2h7v7h-7V145.2z M72.6,145.2h7v7h-7V145.2z M79.9,145.2h7v7h-7V145.2z M87.1,145.2h7v7
	h-7V145.2z M94.4,145.2h7v7h-7V145.2z M101.7,145.2h7v7h-7V145.2z M108.9,145.2h7v7h-7V145.2z M116.2,145.2h7v7h-7V145.2z
	 M123.4,145.2h7v7h-7V145.2z M130.7,145.2h7v7h-7V145.2z M138,145.2h7v7h-7V145.2z M145.2,145.2h7v7h-7V145.2z M152.5,145.2h7v7h-7
	V145.2z M159.7,145.2h7v7h-7V145.2z M167,145.2h7v7h-7V145.2z"/>
</svg>
