<?xml version="1.0" encoding="utf-8"?>
<!-- Generator: Adobe Illustrator 27.3.1, SVG Export Plug-In . SVG Version: 6.00 Build 0)  -->
<svg version="1.1" id="Слой_1" xmlns="http://www.w3.org/2000/svg" xmlns:xlink="http://www.w3.org/1999/xlink" x="0px" y="0px"
	 viewBox="0 0 870.9 595.1" style="enable-background:new 0 0 870.9 595.1;" xml:space="preserve">
<style type="text/css">
	.st0{display:none;}
	.st1{fill:#1E0E01;}
</style>
<g id="Слой_2_00000024000756126506223580000017467196067012961683_" class="st0">
</g>
<g id="Слой_1_00000027580802840933136670000007521585232850919312_">
</g>
<path class="st1" d="M188.7,486.4h7v7h-7C188.7,493.4,188.7,486.4,188.7,486.4z M188.7,508.2h7v7h-7
	C188.7,515.2,188.7,508.2,188.7,508.2z M137.9,580.8h7v7h-7V580.8z M145.2,580.8h7v7h-7V580.8z M152.4,580.8h7v7h-7V580.8z
	 M159.7,580.8h7v7h-7V580.8z M167,580.8h7v7h-7V580.8z M174.2,580.8h7v7h-7V580.8z M181.5,573.5h7v7h-7V573.5z M181.5,580.8h7v7h-7
	V580.8z M188.7,530h7v7h-7C188.7,537,188.7,530,188.7,530z M188.7,544.5h7v7h-7C188.7,551.5,188.7,544.5,188.7,544.5z M188.7,573.5
	h7v7h-7C188.7,580.5,188.7,573.5,188.7,573.5z M188.7,580.8h7v7h-7C188.7,587.8,188.7,580.8,188.7,580.8z M232.3,94.4h7v7h-7V94.4z
	 M246.8,94.4h7v7h-7V94.4z M246.8,159.7h7v7h-7V159.7z M261.3,94.4h7v7h-7V94.4z M261.3,159.7h7v7h-7V159.7z M261.3,442.8h7v7h-7
	V442.8z M203.3,486.4h7v7h-7V486.4z M203.3,508.2h7v7h-7V508.2z M210.5,500.9h7v7h-7V500.9z M217.8,471.9h7v7h-7V471.9z
	 M217.8,486.4h7v7h-7V486.4z M217.8,508.2h7v7h-7V508.2z M225,493.7h7v7h-7V493.7z M225,508.2h7v7h-7V508.2z M232.3,471.9h7v7h-7
	V471.9z M232.3,486.4h7v7h-7V486.4z M232.3,500.9h7v7h-7V500.9z M232.3,508.2h7v7h-7V508.2z M232.3,515.4h7v7h-7V515.4z
	 M232.3,522.7h7v7h-7V522.7z M239.6,464.6h7v7h-7V464.6z M239.6,493.7h7v7h-7V493.7z M239.6,508.2h7v7h-7V508.2z M239.6,515.4h7v7
	h-7V515.4z M239.6,522.7h7v7h-7V522.7z M246.8,471.9h7v7h-7V471.9z M246.8,486.4h7v7h-7V486.4z M246.8,500.9h7v7h-7V500.9z
	 M246.8,508.2h7v7h-7V508.2z M246.8,515.4h7v7h-7V515.4z M246.8,522.7h7v7h-7V522.7z M254.1,464.6h7v7h-7V464.6z M254.1,493.7h7v7
	h-7V493.7z M254.1,500.9h7v7h-7V500.9z M254.1,508.2h7v7h-7V508.2z M254.1,515.4h7v7h-7V515.4z M254.1,522.7h7v7h-7V522.7z
	 M261.3,471.9h7v7h-7V471.9z M261.3,486.4h7v7h-7V486.4z M261.3,500.9h7v7h-7V500.9z M261.3,508.2h7v7h-7V508.2z M261.3,515.4h7v7
	h-7V515.4z M261.3,522.7h7v7h-7V522.7z M196,544.5h7v7h-7V544.5z M196,573.5h7v7h-7V573.5z M196,580.8h7v7h-7V580.8z M203.3,530h7v7
	h-7V530z M203.3,551.8h7v7h-7V551.8z M203.3,573.5h7v7h-7V573.5z M203.3,580.8h7v7h-7V580.8z M210.5,544.5h7v7h-7V544.5z
	 M210.5,573.5h7v7h-7V573.5z M210.5,580.8h7v7h-7V580.8z M217.8,530h7v7h-7V530z M217.8,551.8h7v7h-7V551.8z M217.8,573.5h7v7h-7
	V573.5z M217.8,580.8h7v7h-7V580.8z M225,544.5h7v7h-7V544.5z M225,559h7v7h-7V559z M225,580.8h7v7h-7V580.8z M232.3,530h7v7h-7V530
	z M232.3,551.8h7v7h-7V551.8z M232.3,580.8h7v7h-7V580.8z M239.6,530h7v7h-7V530z M239.6,537.2h7v7h-7V537.2z M239.6,544.5h7v7h-7
	V544.5z M239.6,551.8h7v7h-7V551.8z M239.6,559h7v7h-7V559z M239.6,566.3h7v7h-7V566.3z M239.6,573.5h7v7h-7V573.5z M239.6,580.8h7
	v7h-7V580.8z M246.8,530h7v7h-7V530z M246.8,537.2h7v7h-7V537.2z M246.8,544.5h7v7h-7V544.5z M246.8,551.8h7v7h-7V551.8z M246.8,559
	h7v7h-7V559z M246.8,566.3h7v7h-7V566.3z M246.8,573.5h7v7h-7V573.5z M246.8,580.8h7v7h-7V580.8z M254.1,530h7v7h-7V530z
	 M254.1,537.2h7v7h-7V537.2z M254.1,544.5h7v7h-7V544.5z M254.1,551.8h7v7h-7V551.8z M254.1,559h7v7h-7V559z M254.1,566.3h7v7h-7
	V566.3z M254.1,573.5h7v7h-7V573.5z M254.1,580.8h7v7h-7V580.8z M261.3,530h7v7h-7V530z M261.3,537.2h7v7h-7V537.2z M261.3,544.5h7
	v7h-7V544.5z M261.3,551.8h7v7h-7V551.8z M261.3,559h7v7h-7V559z M261.3,566.3h7v7h-7V566.3z M261.3,573.5h7v7h-7V573.5z
	 M261.3,580.8h7v7h-7V580.8z M268.6,108.9h7v7h-7V108.9z M268.6,137.9h7v7h-7V137.9z M275.9,94.4h7v7h-7V94.4z M275.9,130.7h7v7h-7
	V130.7z M275.9,159.7h7v7h-7V159.7z M283.1,108.9h7v7h-7V108.9z M283.1,137.9h7v7h-7V137.9z M290.4,87.1h7v7h-7V87.1z M290.4,130.7
	h7v7h-7V130.7z M290.4,159.7h7v7h-7V159.7z M297.6,108.9h7v7h-7V108.9z M297.6,137.9h7v7h-7V137.9z M297.6,152.4h7v7h-7V152.4z
	 M304.9,87.1h7v7h-7V87.1z M304.9,130.7h7v7h-7V130.7z M304.9,145.2h7v7h-7V145.2z M304.9,159.7h7v7h-7V159.7z M312.2,79.9h7v7h-7
	V79.9z M312.2,108.9h7v7h-7V108.9z M312.2,123.4h7v7h-7V123.4z M312.2,137.9h7v7h-7V137.9z M312.2,152.4h7v7h-7V152.4z M319.4,87.1
	h7v7h-7V87.1z M319.4,130.7h7v7h-7V130.7z M319.4,145.2h7v7h-7V145.2z M319.4,159.7h7v7h-7V159.7z M319.4,355.7h7v7h-7V355.7z
	 M326.7,79.9h7v7h-7V79.9z M326.7,108.9h7v7h-7V108.9z M326.7,123.4h7v7h-7V123.4z M326.7,137.9h7v7h-7V137.9z M326.7,152.4h7v7h-7
	V152.4z M326.7,145.1h7v7h-7V145.1z M326.7,167h7v7h-7V167z M326.7,159.7h7v7h-7V159.7z M326.7,174.2h7v7h-7V174.2z M326.7,348.5h7
	v7h-7V348.5z M312.2,348.5h7v7h-7V348.5z M326.7,377.5h7v7h-7V377.5z M333.9,87.1h7v7h-7V87.1z M333.9,116.1h7v7h-7V116.1z
	 M333.9,130.7h7v7h-7V130.7z M333.9,145.2h7v7h-7V145.2z M333.9,137.9h7v7h-7V137.9z M333.9,159.7h7v7h-7V159.7z M333.9,167h7v7h-7
	V167z M333.9,174.2h7v7h-7V174.2z M333.9,181.5h7v7h-7V181.5z M333.9,355.7h7v7h-7V355.7z M275.9,442.8h7v7h-7V442.8z M283.1,450.1
	h7v7h-7V450.1z M290.4,442.8h7v7h-7V442.8z M297.6,450.1h7v7h-7V450.1z M304.9,442.8h7v7h-7V442.8z M312.2,435.6h7v7h-7V435.6z
	 M312.2,450.1h7v7h-7V450.1z M319.4,428.3h7v7h-7V428.3z M319.4,442.8h7v7h-7V442.8z M348.5,384.8h7v7h-7V384.8z M326.7,435.6h7v7
	h-7V435.6z M326.7,450.1h7v7h-7V450.1z M333.9,428.3h7v7h-7V428.3z M333.9,442.8h7v7h-7V442.8z M268.6,464.6h7v7h-7V464.6z
	 M268.6,479.2h7v7h-7V479.2z M268.6,493.7h7v7h-7V493.7z M268.6,500.9h7v7h-7V500.9z M268.6,508.2h7v7h-7V508.2z M268.6,515.4h7v7
	h-7V515.4z M268.6,522.7h7v7h-7V522.7z M275.9,457.4h7v7h-7V457.4z M275.9,471.9h7v7h-7V471.9z M275.9,486.4h7v7h-7V486.4z
	 M275.9,493.7h7v7h-7V493.7z M275.9,500.9h7v7h-7V500.9z M275.9,508.2h7v7h-7V508.2z M275.9,515.4h7v7h-7V515.4z M275.9,522.7h7v7
	h-7V522.7z M283.1,464.6h7v7h-7V464.6z M283.1,479.2h7v7h-7V479.2z M283.1,486.4h7v7h-7V486.4z M283.1,493.7h7v7h-7V493.7z
	 M283.1,500.9h7v7h-7V500.9z M283.1,508.2h7v7h-7V508.2z M290.4,457.4h7v7h-7V457.4z M290.4,471.9h7v7h-7V471.9z M290.4,479.2h7v7
	h-7V479.2z M290.4,486.4h7v7h-7V486.4z M290.4,493.7h7v7h-7V493.7z M290.4,500.9h7v7h-7V500.9z M297.6,464.6h7v7h-7V464.6z
	 M297.6,479.2h7v7h-7V479.2z M297.6,486.4h7v7h-7V486.4z M297.6,493.7h7v7h-7V493.7z M297.6,500.9h7v7h-7V500.9z M304.9,457.4h7v7
	h-7V457.4z M304.9,471.9h7v7h-7V471.9z M304.9,479.2h7v7h-7V479.2z M304.9,486.4h7v7h-7V486.4z M304.9,493.7h7v7h-7V493.7z
	 M312.2,464.6h7v7h-7V464.6z M312.2,471.9h7v7h-7V471.9z M312.2,479.2h7v7h-7V479.2z M312.2,486.4h7v7h-7V486.4z M312.2,493.7h7v7
	h-7V493.7z M319.4,457.4h7v7h-7V457.4z M319.4,464.6h7v7h-7V464.6z M319.4,471.9h7v7h-7V471.9z M319.4,479.2h7v7h-7V479.2z
	 M319.4,486.4h7v7h-7V486.4z M319.4,493.7h7v7h-7V493.7z M326.7,457.4h7v7h-7V457.4z M326.7,464.6h7v7h-7V464.6z M326.7,471.9h7v7
	h-7V471.9z M326.7,479.2h7v7h-7V479.2z M326.7,486.4h7v7h-7V486.4z M333.9,457.4h7v7h-7V457.4z M333.9,464.6h7v7h-7V464.6z
	 M333.9,471.9h7v7h-7V471.9z M333.9,479.2h7v7h-7V479.2z M333.9,486.4h7v7h-7V486.4z M268.6,530h7v7h-7V530z M268.6,537.2h7v7h-7
	V537.2z M268.6,544.5h7v7h-7V544.5z M268.6,551.8h7v7h-7V551.8z M268.6,559h7v7h-7V559z M268.6,566.3h7v7h-7V566.3z M268.6,573.5h7
	v7h-7V573.5z M268.6,580.8h7v7h-7V580.8z M275.9,566.3h7v7h-7V566.3z M275.9,573.5h7v7h-7V573.5z M275.9,580.8h7v7h-7V580.8z
	 M283.1,566.3h7v7h-7V566.3z M283.1,573.5h7v7h-7V573.5z M283.1,580.8h7v7h-7V580.8z M290.4,573.5h7v7h-7V573.5z M290.4,580.8h7v7
	h-7V580.8z M297.6,573.5h7v7h-7V573.5z M297.6,580.8h7v7h-7V580.8z M304.9,573.5h7v7h-7V573.5z M304.9,580.8h7v7h-7V580.8z
	 M312.2,573.5h7v7h-7V573.5z M312.2,580.8h7v7h-7V580.8z M319.4,573.5h7v7h-7V573.5z M319.4,580.8h7v7h-7V580.8z M326.7,573.5h7v7
	h-7V573.5z M326.7,580.8h7v7h-7V580.8z M333.9,573.5h7v7h-7V573.5z M333.9,580.8h7v7h-7V580.8z M341.2,79.9h7v7h-7V79.9z
	 M341.2,94.4h7v7h-7V94.4z M341.2,108.9h7v7h-7V108.9z M341.2,123.4h7v7h-7V123.4z M341.2,137.9h7v7h-7V137.9z M341.2,130.6h7v7h-7
	V130.6z M341.2,152.4h7v7h-7V152.4z M341.2,174.2h7v7h-7V174.2z M341.2,181.5h7v7h-7V181.5z M341.2,188.8h7v7h-7V188.8z
	 M341.2,348.5h7v7h-7V348.5z M341.2,377.5h7v7h-7V377.5z M348.5,58.1h7v7h-7V58.1z M348.5,87.1h7v7h-7V87.1z M348.5,116.1h7v7h-7
	V116.1z M348.5,130.7h7v7h-7V130.7z M348.5,123.4h7v7h-7V123.4z M348.5,145.2h7v7h-7V145.2z M348.5,181.5h7v7h-7V181.5z
	 M348.5,188.8h7v7h-7V188.8z M348.5,355.7h7v7h-7V355.7z M355.7,79.9h7v7h-7V79.9z M355.7,94.4h7v7h-7V94.4z M355.7,123.4h7v7h-7
	V123.4z M355.7,116.1h7v7h-7V116.1z M355.7,137.9h7v7h-7V137.9z M355.7,188.8h7v7h-7V188.8z M355.7,261.4h7v7h-7V261.4z
	 M355.7,290.4h7v7h-7V290.4z M355.7,334h7v7h-7V334z M355.7,348.5h7v7h-7V348.5z M355.7,377.5h7v7h-7V377.5z M363,58.1h7v7h-7V58.1z
	 M363,87.1h7v7h-7V87.1z M363,116.1h7v7h-7V116.1z M363,108.8h7v7h-7V108.8z M363,130.7h7v7h-7V130.7z M363,174.2h7v7h-7V174.2z
	 M363,181.5h7v7h-7V181.5z M363,188.8h7v7h-7V188.8z M363,355.7h7v7h-7V355.7z M370.2,79.9h7v7h-7V79.9z M370.2,108.9h7v7h-7V108.9z
	 M370.2,101.6h7v7h-7V101.6z M370.2,94.4h7v7h-7V94.4z M370.2,123.4h7v7h-7V123.4z M370.2,137.9h7v7h-7V137.9z M370.2,167h7v7h-7
	V167z M370.2,188.8h7v7h-7V188.8z M370.2,261.4h7v7h-7V261.4z M370.2,290.4h7v7h-7V290.4z M370.2,334h7v7h-7V334z M370.2,348.5h7v7
	h-7V348.5z M370.2,363h7v7h-7V363z M370.2,377.5h7v7h-7V377.5z M377.5,58.1h7v7h-7V58.1z M377.5,101.6h7v7h-7V101.6z M377.5,94.3h7
	v7h-7V94.3z M377.5,116.1h7v7h-7V116.1z M377.5,130.7h7v7h-7V130.7z M377.5,145.2h7v7h-7V145.2z M377.5,152.4h7v7h-7V152.4z
	 M377.5,174.2h7v7h-7V174.2z M377.5,181.5h7v7h-7V181.5z M377.5,355.7h7v7h-7V355.7z M377.5,370.2h7v7h-7V370.2z M384.8,79.9h7v7h-7
	V79.9z M384.8,94.4h7v7h-7V94.4z M384.8,87.1h7v7h-7V87.1z M384.8,108.9h7v7h-7V108.9z M384.8,123.4h7v7h-7V123.4z M384.8,130.7h7v7
	h-7V130.7z M384.8,159.7h7v7h-7V159.7z M384.8,167h7v7h-7V167z M384.8,261.4h7v7h-7V261.4z M384.8,290.4h7v7h-7V290.4z M384.8,304.9
	h7v7h-7V304.9z M384.8,319.4h7v7h-7V319.4z M384.8,334h7v7h-7V334z M384.8,348.5h7v7h-7V348.5z M384.8,363h7v7h-7V363z M384.8,377.5
	h7v7h-7V377.5z M392,58.1h7v7h-7V58.1z M392,87.1h7v7h-7V87.1z M392,101.6h7v7h-7V101.6z M392,94.3h7v7h-7V94.3z M392,116.1h7v7h-7
	V116.1z M392,123.4h7v7h-7V123.4z M392,239.6h7v7h-7V239.6z M392,341.2h7v7h-7V341.2z M392,355.7h7v7h-7V355.7z M392,370.2h7v7h-7
	V370.2z M399.3,65.3h7v7h-7V65.3z M399.3,79.9h7v7h-7V79.9z M399.3,94.4h7v7h-7V94.4z M399.3,87.1h7v7h-7V87.1z M399.3,108.9h7v7h-7
	V108.9z M399.3,116.1h7v7h-7V116.1z M399.3,123.4h7v7h-7V123.4z M399.3,261.4h7v7h-7V261.4z M399.3,275.9h7v7h-7V275.9z
	 M399.3,290.4h7v7h-7V290.4z M399.3,304.9h7v7h-7V304.9z M399.3,319.4h7v7h-7V319.4z M399.3,334h7v7h-7V334z M399.3,348.5h7v7h-7
	V348.5z M399.3,363h7v7h-7V363z M399.3,377.5h7v7h-7V377.5z M406.5,58.1h7v7h-7V58.1z M406.5,72.6h7v7h-7V72.6z M406.5,87.1h7v7h-7
	V87.1z M406.5,79.8h7v7h-7V79.8z M406.5,101.6h7v7h-7V101.6z M406.5,116.1h7v7h-7V116.1z M406.5,239.6h7v7h-7V239.6z M406.5,268.6h7
	v7h-7V268.6z M406.5,326.7h7v7h-7V326.7z M406.5,341.2h7v7h-7V341.2z M406.5,355.7h7v7h-7V355.7z M406.5,370.2h7v7h-7V370.2z
	 M363,384.8h7v7h-7V384.8z M341.2,421.1h7v7h-7V421.1z M341.2,435.6h7v7h-7V435.6z M341.2,450.1h7v7h-7V450.1z M348.5,413.8h7v7h-7
	V413.8z M348.5,428.3h7v7h-7V428.3z M348.5,442.8h7v7h-7V442.8z M348.5,450.1h7v7h-7V450.1z M355.7,392h7v7h-7V392z M355.7,406.6h7
	v7h-7V406.6z M355.7,421.1h7v7h-7V421.1z M355.7,435.6h7v7h-7V435.6z M355.7,450.1h7v7h-7V450.1z M363,399.3h7v7h-7V399.3z
	 M363,413.8h7v7h-7V413.8z M363,428.3h7v7h-7V428.3z M363,442.8h7v7h-7V442.8z M363,450.1h7v7h-7V450.1z M370.2,392h7v7h-7V392z
	 M370.2,406.6h7v7h-7V406.6z M370.2,421.1h7v7h-7V421.1z M370.2,435.6h7v7h-7V435.6z M370.2,442.8h7v7h-7V442.8z M370.2,450.1h7v7
	h-7V450.1z M377.5,384.8h7v7h-7V384.8z M377.5,399.3h7v7h-7V399.3z M377.5,413.8h7v7h-7V413.8z M377.5,428.3h7v7h-7V428.3z
	 M377.5,435.6h7v7h-7V435.6z M377.5,442.8h7v7h-7V442.8z M377.5,450.1h7v7h-7V450.1z M384.8,392h7v7h-7V392z M384.8,406.6h7v7h-7
	V406.6z M384.8,421.1h7v7h-7V421.1z M384.8,428.3h7v7h-7V428.3z M384.8,435.6h7v7h-7V435.6z M384.8,442.8h7v7h-7V442.8z
	 M384.8,450.1h7v7h-7V450.1z M392,384.8h7v7h-7V384.8z M392,399.3h7v7h-7V399.3z M392,413.8h7v7h-7V413.8z M392,421.1h7v7h-7V421.1z
	 M392,428.3h7v7h-7V428.3z M392,435.6h7v7h-7V435.6z M392,442.8h7v7h-7V442.8z M392,450.1h7v7h-7V450.1z M399.3,392h7v7h-7V392z
	 M399.3,406.6h7v7h-7V406.6z M399.3,413.8h7v7h-7V413.8z M399.3,421.1h7v7h-7V421.1z M399.3,428.3h7v7h-7V428.3z M399.3,435.6h7v7
	h-7V435.6z M399.3,442.8h7v7h-7V442.8z M399.3,450.1h7v7h-7V450.1z M406.5,384.8h7v7h-7V384.8z M406.5,399.3h7v7h-7V399.3z
	 M406.5,406.6h7v7h-7V406.6z M406.5,413.8h7v7h-7V413.8z M406.5,421.1h7v7h-7V421.1z M406.5,428.3h7v7h-7V428.3z M406.5,435.6h7v7
	h-7V435.6z M406.5,442.8h7v7h-7V442.8z M406.5,450.1h7v7h-7V450.1z M341.2,457.4h7v7h-7V457.4z M341.2,464.6h7v7h-7V464.6z
	 M341.2,471.9h7v7h-7V471.9z M341.2,479.2h7v7h-7V479.2z M341.2,486.4h7v7h-7V486.4z M348.5,457.4h7v7h-7V457.4z M348.5,464.6h7v7
	h-7V464.6z M348.5,471.9h7v7h-7V471.9z M348.5,479.2h7v7h-7V479.2z M355.7,457.4h7v7h-7V457.4z M355.7,464.6h7v7h-7V464.6z
	 M355.7,471.9h7v7h-7V471.9z M355.7,479.2h7v7h-7V479.2z M363,457.4h7v7h-7V457.4z M363,464.6h7v7h-7V464.6z M363,471.9h7v7h-7
	V471.9z M363,479.2h7v7h-7V479.2z M370.2,457.4h7v7h-7V457.4z M370.2,464.6h7v7h-7V464.6z M370.2,471.9h7v7h-7V471.9z M377.5,457.4
	h7v7h-7V457.4z M377.5,464.6h7v7h-7V464.6z M377.5,471.9h7v7h-7V471.9z M384.8,457.4h7v7h-7V457.4z M384.8,464.6h7v7h-7V464.6z
	 M384.8,471.9h7v7h-7V471.9z M392,457.4h7v7h-7V457.4z M392,464.6h7v7h-7V464.6z M392,471.9h7v7h-7V471.9z M399.3,457.4h7v7h-7
	V457.4z M399.3,464.6h7v7h-7V464.6z M406.5,457.4h7v7h-7V457.4z M406.5,464.6h7v7h-7V464.6z M341.2,573.5h7v7h-7V573.5z
	 M341.2,580.8h7v7h-7V580.8z M348.5,573.5h7v7h-7V573.5z M348.5,580.8h7v7h-7V580.8z M355.7,573.5h7v7h-7V573.5z M355.7,580.8h7v7
	h-7V580.8z M363,573.5h7v7h-7V573.5z M363,580.8h7v7h-7V580.8z M370.2,573.5h7v7h-7V573.5z M370.2,580.8h7v7h-7V580.8z M377.5,573.5
	h7v7h-7V573.5z M377.5,580.8h7v7h-7V580.8z M384.8,573.5h7v7h-7V573.5z M384.8,580.8h7v7h-7V580.8z M392,573.5h7v7h-7V573.5z
	 M392,580.8h7v7h-7V580.8z M399.3,573.5h7v7h-7V573.5z M399.3,580.8h7v7h-7V580.8z M406.5,573.5h7v7h-7V573.5z M406.5,580.8h7v7h-7
	V580.8z M413.8,65.3h7v7h-7V65.3z M413.8,79.9h7v7h-7V79.9z M413.8,72.6h7v7h-7V72.6z M413.8,94.4h7v7h-7V94.4z M413.8,108.9h7v7h-7
	V108.9z M413.8,116.1h7v7h-7V116.1z M413.8,188.8h7v7h-7V188.8z M413.8,261.4h7v7h-7V261.4z M413.8,275.9h7v7h-7V275.9z
	 M413.8,290.4h7v7h-7V290.4z M413.8,304.9h7v7h-7V304.9z M413.8,319.4h7v7h-7V319.4z M413.8,334h7v7h-7V334z M413.8,348.5h7v7h-7
	V348.5z M413.8,363h7v7h-7V363z M413.8,377.5h7v7h-7V377.5z M421.1,58.1h7v7h-7V58.1z M421.1,72.6h7v7h-7V72.6z M421.1,65.3h7v7h-7
	V65.3z M421.1,87.1h7v7h-7V87.1z M421.1,101.6h7v7h-7V101.6z M421.1,108.9h7v7h-7V108.9z M421.1,167h7v7h-7V167z M421.1,239.6h7v7
	h-7V239.6z M421.1,268.6h7v7h-7V268.6z M421.1,297.6h7v7h-7V297.6z M421.1,312.2h7v7h-7V312.2z M421.1,326.7h7v7h-7V326.7z
	 M421.1,341.2h7v7h-7V341.2z M421.1,355.7h7v7h-7V355.7z M421.1,370.2h7v7h-7V370.2z M421.1,377.5h7v7h-7V377.5z M428.3,65.3h7v7h-7
	V65.3z M428.3,58h7v7h-7V58z M428.3,79.9h7v7h-7V79.9z M428.3,94.4h7v7h-7V94.4z M428.3,108.9h7v7h-7V108.9z M428.3,145.2h7v7h-7
	V145.2z M428.3,188.8h7v7h-7V188.8z M428.3,261.4h7v7h-7V261.4z M428.3,275.9h7v7h-7V275.9z M428.3,290.4h7v7h-7V290.4z
	 M428.3,304.9h7v7h-7V304.9z M428.3,319.4h7v7h-7V319.4z M428.3,334h7v7h-7V334z M428.3,348.5h7v7h-7V348.5z M428.3,363h7v7h-7V363z
	 M428.3,370.2h7v7h-7V370.2z M428.3,377.5h7v7h-7V377.5z M435.6,58.1h7v7h-7V58.1z M435.6,72.6h7v7h-7V72.6z M435.6,87.1h7v7h-7
	V87.1z M435.6,101.6h7v7h-7V101.6z M435.6,123.4h7v7h-7V123.4z M435.6,167h7v7h-7V167z M435.6,225h7v7h-7V225z M435.6,239.6h7v7h-7
	V239.6z M435.6,268.6h7v7h-7V268.6z M435.6,283.1h7v7h-7V283.1z M435.6,297.6h7v7h-7V297.6z M435.6,312.2h7v7h-7V312.2z
	 M435.6,326.7h7v7h-7V326.7z M435.6,341.2h7v7h-7V341.2z M435.6,355.7h7v7h-7V355.7z M435.6,363h7v7h-7V363z M435.6,370.2h7v7h-7
	V370.2z M435.6,377.5h7v7h-7V377.5z M442.8,50.8h7v7h-7V50.8z M442.8,65.3h7v7h-7V65.3z M442.8,79.9h7v7h-7V79.9z M442.8,94.4h7v7
	h-7V94.4z M442.8,101.6h7v7h-7V101.6z M442.8,145.2h7v7h-7V145.2z M442.8,188.8h7v7h-7V188.8z M442.8,203.3h7v7h-7V203.3z
	 M442.8,232.3h7v7h-7V232.3z M442.8,261.4h7v7h-7V261.4z M442.8,275.9h7v7h-7V275.9z M442.8,290.4h7v7h-7V290.4z M442.8,304.9h7v7
	h-7V304.9z M442.8,319.4h7v7h-7V319.4z M442.8,334h7v7h-7V334z M442.8,348.5h7v7h-7V348.5z M442.8,355.7h7v7h-7V355.7z M442.8,363h7
	v7h-7V363z M442.8,370.2h7v7h-7V370.2z M442.8,377.5h7v7h-7V377.5z M450.1,43.6h7v7h-7V43.6z M450.1,50.8h7v7h-7V50.8z M450.1,58.1
	h7v7h-7V58.1z M450.1,72.6h7v7h-7V72.6z M450.1,87.1h7v7h-7V87.1z M450.1,94.4h7v7h-7V94.4z M450.1,123.4h7v7h-7V123.4z M450.1,167
	h7v7h-7V167z M450.1,225h7v7h-7V225z M450.1,239.6h7v7h-7V239.6z M450.1,254.1h7v7h-7V254.1z M450.1,268.6h7v7h-7V268.6z
	 M450.1,283.1h7v7h-7V283.1z M450.1,297.6h7v7h-7V297.6z M450.1,304.9h7v7h-7V304.9z M450.1,312.2h7v7h-7V312.2z M450.1,319.4h7v7
	h-7V319.4z M450.1,326.7h7v7h-7V326.7z M450.1,334h7v7h-7V334z M450.1,341.2h7v7h-7V341.2z M450.1,348.5h7v7h-7V348.5z M450.1,355.7
	h7v7h-7V355.7z M450.1,363h7v7h-7V363z M450.1,370.2h7v7h-7V370.2z M450.1,377.5h7v7h-7V377.5z M457.4,43.6h7v7h-7V43.6z
	 M457.4,50.8h7v7h-7V50.8z M457.4,65.3h7v7h-7V65.3z M457.4,79.9h7v7h-7V79.9z M457.4,94.4h7v7h-7V94.4z M457.4,145.2h7v7h-7V145.2z
	 M457.4,188.8h7v7h-7V188.8z M457.4,203.3h7v7h-7V203.3z M457.4,217.8h7v7h-7V217.8z M457.4,232.3h7v7h-7V232.3z M457.4,246.8h7v7
	h-7V246.8z M457.4,261.4h7v7h-7V261.4z M457.4,275.9h7v7h-7V275.9z M457.4,283.1h7v7h-7V283.1z M457.4,290.4h7v7h-7V290.4z
	 M457.4,297.6h7v7h-7V297.6z M457.4,304.9h7v7h-7V304.9z M457.4,312.2h7v7h-7V312.2z M457.4,319.4h7v7h-7V319.4z M457.4,326.7h7v7
	h-7V326.7z M457.4,334h7v7h-7V334z M457.4,341.2h7v7h-7V341.2z M457.4,348.5h7v7h-7V348.5z M457.4,355.7h7v7h-7V355.7z M457.4,363h7
	v7h-7V363z M457.4,370.2h7v7h-7V370.2z M457.4,377.5h7v7h-7V377.5z M464.6,43.6h7v7h-7V43.6z M464.6,72.6h7v7h-7V72.6z M464.6,87.1
	h7v7h-7V87.1z M464.6,123.4h7v7h-7V123.4z M464.6,167h7v7h-7V167z M464.6,225h7v7h-7V225z M464.6,239.6h7v7h-7V239.6z M464.6,254.1
	h7v7h-7V254.1z M464.6,268.6h7v7h-7V268.6z M464.6,275.9h7v7h-7V275.9z M464.6,283.1h7v7h-7V283.1z M464.6,290.4h7v7h-7V290.4z
	 M464.6,297.6h7v7h-7V297.6z M464.6,304.9h7v7h-7V304.9z M464.6,312.2h7v7h-7V312.2z M464.6,319.4h7v7h-7V319.4z M464.6,326.7h7v7
	h-7V326.7z M464.6,334h7v7h-7V334z M464.6,341.2h7v7h-7V341.2z M464.6,348.5h7v7h-7V348.5z M464.6,355.7h7v7h-7V355.7z M464.6,363h7
	v7h-7V363z M464.6,370.2h7v7h-7V370.2z M464.6,377.5h7v7h-7V377.5z M471.9,43.6h7v7h-7V43.6z M471.9,65.3h7v7h-7V65.3z M471.9,79.9
	h7v7h-7V79.9z M471.9,87.1h7v7h-7V87.1z M471.9,145.2h7v7h-7V145.2z M471.9,159.7h7v7h-7V159.7z M471.9,188.8h7v7h-7V188.8z
	 M471.9,203.3h7v7h-7V203.3z M471.9,217.8h7v7h-7V217.8z M471.9,232.3h7v7h-7V232.3z M471.9,246.8h7v7h-7V246.8z M471.9,261.4h7v7
	h-7V261.4z M471.9,268.6h7v7h-7V268.6z M471.9,275.9h7v7h-7V275.9z M471.9,283.1h7v7h-7V283.1z M471.9,290.4h7v7h-7V290.4z
	 M471.9,297.6h7v7h-7V297.6z M471.9,304.9h7v7h-7V304.9z M471.9,312.2h7v7h-7V312.2z M471.9,319.4h7v7h-7V319.4z M471.9,326.7h7v7
	h-7V326.7z M471.9,334h7v7h-7V334z M471.9,341.2h7v7h-7V341.2z M471.9,348.5h7v7h-7V348.5z M471.9,355.7h7v7h-7V355.7z M471.9,363h7
	v7h-7V363z M471.9,370.2h7v7h-7V370.2z M471.9,377.5h7v7h-7V377.5z M479.1,43.6h7v7h-7V43.6z M479.1,72.6h7v7h-7V72.6z M479.1,87.1
	h7v7h-7V87.1z M479.1,94.4h7v7h-7V94.4z M479.1,123.4h7v7h-7V123.4z M479.1,152.4h7v7h-7V152.4z M479.1,167h7v7h-7V167z M479.1,196
	h7v7h-7V196z M479.1,210.5h7v7h-7V210.5z M479.1,225h7v7h-7V225z M479.1,239.6h7v7h-7V239.6z M479.1,246.8h7v7h-7V246.8z
	 M479.1,254.1h7v7h-7V254.1z M479.1,261.4h7v7h-7V261.4z M479.1,268.6h7v7h-7V268.6z M479.1,275.9h7v7h-7V275.9z M479.1,283.1h7v7
	h-7V283.1z M479.1,290.4h7v7h-7V290.4z M479.1,297.6h7v7h-7V297.6z M479.1,304.9h7v7h-7V304.9z M479.1,312.2h7v7h-7V312.2z
	 M479.1,319.4h7v7h-7V319.4z M479.1,326.7h7v7h-7V326.7z M479.1,334h7v7h-7V334z M479.1,341.2h7v7h-7V341.2z M479.1,348.5h7v7h-7
	V348.5z M479.1,355.7h7v7h-7V355.7z M479.1,363h7v7h-7V363z M479.1,370.2h7v7h-7V370.2z M479.1,377.5h7v7h-7V377.5z M413.8,392h7v7
	h-7V392z M413.8,399.3h7v7h-7V399.3z M413.8,406.6h7v7h-7V406.6z M413.8,413.8h7v7h-7V413.8z M413.8,421.1h7v7h-7V421.1z
	 M413.8,428.3h7v7h-7V428.3z M413.8,435.6h7v7h-7V435.6z M413.8,442.8h7v7h-7V442.8z M413.8,450.1h7v7h-7V450.1z M421.1,384.8h7v7
	h-7V384.8z M421.1,392h7v7h-7V392z M421.1,399.3h7v7h-7V399.3z M421.1,406.6h7v7h-7V406.6z M421.1,413.8h7v7h-7V413.8z M421.1,421.1
	h7v7h-7V421.1z M421.1,428.3h7v7h-7V428.3z M421.1,435.6h7v7h-7V435.6z M421.1,442.8h7v7h-7V442.8z M421.1,450.1h7v7h-7V450.1z
	 M428.3,384.8h7v7h-7V384.8z M428.3,392h7v7h-7V392z M428.3,399.3h7v7h-7V399.3z M428.3,406.6h7v7h-7V406.6z M428.3,413.8h7v7h-7
	V413.8z M428.3,421.1h7v7h-7V421.1z M428.3,428.3h7v7h-7V428.3z M428.3,435.6h7v7h-7V435.6z M428.3,442.8h7v7h-7V442.8z
	 M435.6,384.8h7v7h-7V384.8z M435.6,392h7v7h-7V392z M435.6,399.3h7v7h-7V399.3z M435.6,406.6h7v7h-7V406.6z M435.6,413.8h7v7h-7
	V413.8z M435.6,421.1h7v7h-7V421.1z M435.6,428.3h7v7h-7V428.3z M435.6,435.6h7v7h-7V435.6z M442.8,384.8h7v7h-7V384.8z M442.8,392
	h7v7h-7V392z M442.8,399.3h7v7h-7V399.3z M442.8,406.6h7v7h-7V406.6z M442.8,413.8h7v7h-7V413.8z M442.8,421.1h7v7h-7V421.1z
	 M442.8,428.3h7v7h-7V428.3z M450.1,384.8h7v7h-7V384.8z M450.1,392h7v7h-7V392z M450.1,399.3h7v7h-7V399.3z M450.1,406.6h7v7h-7
	V406.6z M450.1,413.8h7v7h-7V413.8z M450.1,421.1h7v7h-7V421.1z M450.1,428.3h7v7h-7V428.3z M457.4,384.8h7v7h-7V384.8z M457.4,392
	h7v7h-7V392z M457.4,399.3h7v7h-7V399.3z M457.4,406.6h7v7h-7V406.6z M457.4,413.8h7v7h-7V413.8z M457.4,421.1h7v7h-7V421.1z
	 M464.6,384.8h7v7h-7V384.8z M464.6,392h7v7h-7V392z M464.6,399.3h7v7h-7V399.3z M464.6,406.6h7v7h-7V406.6z M464.6,413.8h7v7h-7
	V413.8z M471.9,384.8h7v7h-7V384.8z M471.9,392h7v7h-7V392z M471.9,399.3h7v7h-7V399.3z M471.9,406.6h7v7h-7V406.6z M479.1,384.8h7
	v7h-7V384.8z M479.1,392h7v7h-7V392z M479.1,399.3h7v7h-7V399.3z M413.8,457.4h7v7h-7V457.4z M413.8,573.5h7v7h-7V573.5z
	 M413.8,580.8h7v7h-7V580.8z M421.1,573.5h7v7h-7V573.5z M421.1,580.8h7v7h-7V580.8z M428.3,573.5h7v7h-7V573.5z M428.3,580.8h7v7
	h-7V580.8z M435.6,573.5h7v7h-7V573.5z M435.6,580.8h7v7h-7V580.8z M442.8,573.5h7v7h-7V573.5z M442.8,580.8h7v7h-7V580.8z
	 M450.1,580.8h7v7h-7V580.8z M457.4,580.8h7v7h-7V580.8z M464.6,580.8h7v7h-7V580.8z M471.9,580.8h7v7h-7V580.8z M479.1,580.8h7v7
	h-7V580.8z M486.4,50.8h7v7h-7V50.8z M486.4,65.3h7v7h-7V65.3z M486.4,79.9h7v7h-7V79.9z M486.4,87.1h7v7h-7V87.1z M486.4,94.4h7v7
	h-7V94.4z M486.4,145.2h7v7h-7V145.2z M486.4,159.7h7v7h-7V159.7z M486.4,174.2h7v7h-7V174.2z M486.4,188.8h7v7h-7V188.8z
	 M486.4,203.3h7v7h-7V203.3z M486.4,217.8h7v7h-7V217.8z M486.4,232.3h7v7h-7V232.3z M486.4,239.6h7v7h-7V239.6z M486.4,246.8h7v7
	h-7V246.8z M486.4,254.1h7v7h-7V254.1z M486.4,261.4h7v7h-7V261.4z M486.4,268.6h7v7h-7V268.6z M486.4,283.1h7v7h-7V283.1z
	 M486.4,297.6h7v7h-7V297.6z M486.4,304.9h7v7h-7V304.9z M486.4,312.2h7v7h-7V312.2z M486.4,319.4h7v7h-7V319.4z M486.4,326.7h7v7
	h-7V326.7z M486.4,334h7v7h-7V334z M486.4,341.2h7v7h-7V341.2z M486.4,348.5h7v7h-7V348.5z M486.4,355.7h7v7h-7V355.7z M486.4,363h7
	v7h-7V363z M486.4,370.2h7v7h-7V370.2z M486.4,377.5h7v7h-7V377.5z M493.7,50.8h7v7h-7V50.8z M493.7,72.6h7v7h-7V72.6z M493.7,87.1
	h7v7h-7V87.1z M493.7,94.4h7v7h-7V94.4z M493.7,101.6h7v7h-7V101.6z M493.7,123.4h7v7h-7V123.4z M493.7,130.7h7v7h-7V130.7z
	 M493.7,152.4h7v7h-7V152.4z M493.7,167h7v7h-7V167z M493.7,181.5h7v7h-7V181.5z M493.7,196h7v7h-7V196z M493.7,210.5h7v7h-7V210.5z
	 M493.7,217.8h7v7h-7V217.8z M493.7,225h7v7h-7V225z M493.7,232.3h7v7h-7V232.3z M493.7,239.6h7v7h-7V239.6z M493.7,246.8h7v7h-7
	V246.8z M493.7,254.1h7v7h-7V254.1z M493.7,261.4h7v7h-7V261.4z M493.7,275.9h7v7h-7V275.9z M493.7,290.4h7v7h-7V290.4z
	 M493.7,304.9h7v7h-7V304.9z M493.7,312.2h7v7h-7V312.2z M493.7,319.4h7v7h-7V319.4z M493.7,326.7h7v7h-7V326.7z M493.7,334h7v7h-7
	V334z M493.7,341.2h7v7h-7V341.2z M493.7,348.5h7v7h-7V348.5z M493.7,355.7h7v7h-7V355.7z M493.7,363h7v7h-7V363z M493.7,370.2h7v7
	h-7V370.2z M493.7,377.5h7v7h-7V377.5z M500.9,50.8h7v7h-7V50.8z M500.9,79.9h7v7h-7V79.9z M500.9,94.4h7v7h-7V94.4z M500.9,101.6h7
	v7h-7V101.6z M500.9,108.9h7v7h-7V108.9z M500.9,130.7h7v7h-7V130.7z M500.9,145.2h7v7h-7V145.2z M500.9,159.7h7v7h-7V159.7z
	 M500.9,174.2h7v7h-7V174.2z M500.9,188.8h7v7h-7V188.8z M500.9,203.3h7v7h-7V203.3z M500.9,210.5h7v7h-7V210.5z M500.9,217.8h7v7
	h-7V217.8z M500.9,225h7v7h-7V225z M500.9,232.3h7v7h-7V232.3z M500.9,239.6h7v7h-7V239.6z M500.9,246.8h7v7h-7V246.8z M500.9,254.1
	h7v7h-7V254.1z M500.9,268.6h7v7h-7V268.6z M500.9,297.6h7v7h-7V297.6z M500.9,304.9h7v7h-7V304.9z M500.9,312.2h7v7h-7V312.2z
	 M500.9,319.4h7v7h-7V319.4z M500.9,326.7h7v7h-7V326.7z M500.9,334h7v7h-7V334z M500.9,341.2h7v7h-7V341.2z M500.9,348.5h7v7h-7
	V348.5z M500.9,355.7h7v7h-7V355.7z M500.9,363h7v7h-7V363z M500.9,370.2h7v7h-7V370.2z M500.9,377.5h7v7h-7V377.5z M508.2,58.1h7v7
	h-7V58.1z M508.2,87.1h7v7h-7V87.1z M508.2,94.4h7v7h-7V94.4z M508.2,101.6h7v7h-7V101.6z M508.2,108.9h7v7h-7V108.9z M508.2,116.1
	h7v7h-7V116.1z M508.2,123.4h7v7h-7V123.4z M508.2,137.9h7v7h-7V137.9z M508.2,152.4h7v7h-7V152.4z M508.2,167h7v7h-7V167z
	 M508.2,174.2h7v7h-7V174.2z M508.2,181.5h7v7h-7V181.5z M508.2,188.8h7v7h-7V188.8z M508.2,196h7v7h-7V196z M508.2,203.3h7v7h-7
	V203.3z M508.2,210.5h7v7h-7V210.5z M508.2,217.8h7v7h-7V217.8z M508.2,225h7v7h-7V225z M508.2,232.3h7v7h-7V232.3z M508.2,239.6h7
	v7h-7V239.6z M508.2,246.8h7v7h-7V246.8z M508.2,261.4h7v7h-7V261.4z M508.2,275.9h7v7h-7V275.9z M508.2,304.9h7v7h-7V304.9z
	 M508.2,312.2h7v7h-7V312.2z M508.2,319.4h7v7h-7V319.4z M508.2,326.7h7v7h-7V326.7z M508.2,334h7v7h-7V334z M508.2,341.2h7v7h-7
	V341.2z M508.2,348.5h7v7h-7V348.5z M508.2,355.7h7v7h-7V355.7z M508.2,363h7v7h-7V363z M508.2,370.2h7v7h-7V370.2z M515.4,58.1h7v7
	h-7V58.1z M515.4,79.9h7v7h-7V79.9z M515.4,94.4h7v7h-7V94.4z M515.4,101.6h7v7h-7V101.6z M515.4,108.9h7v7h-7V108.9z M515.4,116.1
	h7v7h-7V116.1z M515.4,123.4h7v7h-7V123.4z M515.4,130.7h7v7h-7V130.7z M515.4,145.2h7v7h-7V145.2z M515.4,159.7h7v7h-7V159.7z
	 M515.4,167h7v7h-7V167z M515.4,174.2h7v7h-7V174.2z M515.4,181.5h7v7h-7V181.5z M515.4,188.8h7v7h-7V188.8z M515.4,196h7v7h-7V196z
	 M515.4,203.3h7v7h-7V203.3z M515.4,210.5h7v7h-7V210.5z M515.4,217.8h7v7h-7V217.8z M515.4,225h7v7h-7V225z M515.4,232.3h7v7h-7
	V232.3z M515.4,239.6h7v7h-7V239.6z M515.4,246.8h7v7h-7V246.8z M515.4,254.1h7v7h-7V254.1z M515.4,268.6h7v7h-7V268.6z
	 M515.4,297.6h7v7h-7V297.6z M515.4,312.2h7v7h-7V312.2z M515.4,319.4h7v7h-7V319.4z M515.4,326.7h7v7h-7V326.7z M515.4,334h7v7h-7
	V334z M515.4,341.2h7v7h-7V341.2z M515.4,348.5h7v7h-7V348.5z M515.4,355.7h7v7h-7V355.7z M515.4,363h7v7h-7V363z M522.7,43.6h7v7
	h-7V43.6z M522.7,58.1h7v7h-7V58.1z M522.7,87.1h7v7h-7V87.1z M522.7,94.4h7v7h-7V94.4z M522.7,101.6h7v7h-7V101.6z M522.7,108.9h7
	v7h-7V108.9z M522.7,116.1h7v7h-7V116.1z M522.7,123.4h7v7h-7V123.4z M522.7,130.7h7v7h-7V130.7z M522.7,137.9h7v7h-7V137.9z
	 M522.7,145.2h7v7h-7V145.2z M522.7,152.4h7v7h-7V152.4z M522.7,159.7h7v7h-7V159.7z M522.7,167h7v7h-7V167z M522.7,174.2h7v7h-7
	V174.2z M522.7,181.5h7v7h-7V181.5z M522.7,188.8h7v7h-7V188.8z M522.7,196h7v7h-7V196z M522.7,203.3h7v7h-7V203.3z M522.7,210.5h7
	v7h-7V210.5z M522.7,217.8h7v7h-7V217.8z M522.7,225h7v7h-7V225z M522.7,232.3h7v7h-7V232.3z M522.7,239.6h7v7h-7V239.6z
	 M522.7,246.8h7v7h-7V246.8z M522.7,261.4h7v7h-7V261.4z M522.7,304.9h7v7h-7V304.9z M522.7,319.4h7v7h-7V319.4z M522.7,326.7h7v7
	h-7V326.7z M522.7,334h7v7h-7V334z M522.7,341.2h7v7h-7V341.2z M522.7,348.5h7v7h-7V348.5z M522.7,355.7h7v7h-7V355.7z M522.7,363h7
	v7h-7V363z M530,58.1h7v7h-7V58.1z M530,65.3h7v7h-7V65.3z M530,79.9h7v7h-7V79.9z M530,94.4h7v7h-7V94.4z M530,101.6h7v7h-7V101.6z
	 M530,108.9h7v7h-7V108.9z M530,116.1h7v7h-7V116.1z M530,123.4h7v7h-7V123.4z M530,130.7h7v7h-7V130.7z M530,137.9h7v7h-7V137.9z
	 M530,145.2h7v7h-7V145.2z M530,152.4h7v7h-7V152.4z M530,159.7h7v7h-7V159.7z M530,167h7v7h-7V167z M530,174.2h7v7h-7V174.2z
	 M530,181.5h7v7h-7V181.5z M530,188.8h7v7h-7V188.8z M530,196h7v7h-7V196z M530,203.3h7v7h-7V203.3z M530,210.5h7v7h-7V210.5z
	 M530,217.8h7v7h-7V217.8z M530,225h7v7h-7V225z M530,232.3h7v7h-7V232.3z M530,239.6h7v7h-7V239.6z M530,246.8h7v7h-7V246.8z
	 M530,254.1h7v7h-7V254.1z M530,268.6h7v7h-7V268.6z M530,297.6h7v7h-7V297.6z M530,312.2h7v7h-7V312.2z M530,319.4h7v7h-7V319.4z
	 M530,326.7h7v7h-7V326.7z M530,334h7v7h-7V334z M530,341.2h7v7h-7V341.2z M530,348.5h7v7h-7V348.5z M530,355.7h7v7h-7V355.7z
	 M530,363h7v7h-7V363z M537.2,43.6h7v7h-7V43.6z M537.2,65.3h7v7h-7V65.3z M537.2,87.1h7v7h-7V87.1z M537.2,101.6h7v7h-7V101.6z
	 M537.2,108.9h7v7h-7V108.9z M537.2,116.1h7v7h-7V116.1z M537.2,123.4h7v7h-7V123.4z M537.2,130.7h7v7h-7V130.7z M537.2,137.9h7v7
	h-7V137.9z M537.2,145.2h7v7h-7V145.2z M537.2,152.4h7v7h-7V152.4z M537.2,159.7h7v7h-7V159.7z M537.2,167h7v7h-7V167z M537.2,174.2
	h7v7h-7V174.2z M537.2,181.5h7v7h-7V181.5z M537.2,188.8h7v7h-7V188.8z M537.2,196h7v7h-7V196z M537.2,203.3h7v7h-7V203.3z
	 M537.2,210.5h7v7h-7V210.5z M537.2,225h7v7h-7V225z M537.2,239.6h7v7h-7V239.6z M537.2,254.1h7v7h-7V254.1z M537.2,261.4h7v7h-7
	V261.4z M537.2,304.9h7v7h-7V304.9z M537.2,319.4h7v7h-7V319.4z M537.2,326.7h7v7h-7V326.7z M537.2,334h7v7h-7V334z M537.2,341.2h7
	v7h-7V341.2z M537.2,348.5h7v7h-7V348.5z M537.2,355.7h7v7h-7V355.7z M537.2,363h7v7h-7V363z M544.5,14.5h7v7h-7V14.5z M544.5,58.1
	h7v7h-7V58.1z M544.5,65.3h7v7h-7V65.3z M544.5,94.4h7v7h-7V94.4z M544.5,101.6h7v7h-7V101.6z M544.5,108.9h7v7h-7V108.9z
	 M544.5,116.1h7v7h-7V116.1z M544.5,123.4h7v7h-7V123.4z M544.5,130.7h7v7h-7V130.7z M544.5,137.9h7v7h-7V137.9z M544.5,145.2h7v7
	h-7V145.2z M544.5,152.4h7v7h-7V152.4z M544.5,159.7h7v7h-7V159.7z M544.5,167h7v7h-7V167z M544.5,174.2h7v7h-7V174.2z M544.5,181.5
	h7v7h-7V181.5z M544.5,188.8h7v7h-7V188.8z M544.5,196h7v7h-7V196z M544.5,203.3h7v7h-7V203.3z M544.5,210.5h7v7h-7V210.5z
	 M544.5,217.8h7v7h-7V217.8z M544.5,232.3h7v7h-7V232.3z M544.5,246.8h7v7h-7V246.8z M544.5,261.4h7v7h-7V261.4z M544.5,268.6h7v7
	h-7V268.6z M544.5,297.6h7v7h-7V297.6z M544.5,312.2h7v7h-7V312.2z M544.5,319.4h7v7h-7V319.4z M544.5,326.7h7v7h-7V326.7z
	 M544.5,334h7v7h-7V334z M544.5,341.2h7v7h-7V341.2z M544.5,348.5h7v7h-7V348.5z M544.5,355.7h7v7h-7V355.7z M544.5,363h7v7h-7V363z
	 M551.7,43.6h7v7h-7V43.6z M551.7,65.3h7v7h-7V65.3z M551.7,101.6h7v7h-7V101.6z M551.7,108.9h7v7h-7V108.9z M551.7,116.1h7v7h-7
	V116.1z M551.7,123.4h7v7h-7V123.4z M551.7,130.7h7v7h-7V130.7z M551.7,137.9h7v7h-7V137.9z M551.7,145.2h7v7h-7V145.2z
	 M551.7,152.4h7v7h-7V152.4z M551.7,159.7h7v7h-7V159.7z M551.7,167h7v7h-7V167z M551.7,174.2h7v7h-7V174.2z M551.7,181.5h7v7h-7
	V181.5z M551.7,188.8h7v7h-7V188.8z M551.7,196h7v7h-7V196z M551.7,210.5h7v7h-7V210.5z M551.7,217.8h7v7h-7V217.8z M551.7,225h7v7
	h-7V225z M551.7,239.6h7v7h-7V239.6z M551.7,254.1h7v7h-7V254.1z M551.7,261.4h7v7h-7V261.4z M551.7,275.9h7v7h-7V275.9z
	 M551.7,304.9h7v7h-7V304.9z M551.7,319.4h7v7h-7V319.4z M551.7,326.7h7v7h-7V326.7z M551.7,334h7v7h-7V334z M551.7,341.2h7v7h-7
	V341.2z M551.7,348.5h7v7h-7V348.5z M551.7,355.7h7v7h-7V355.7z M551.7,363h7v7h-7V363z M486.4,384.8h7v7h-7V384.8z M486.4,392h7v7
	h-7V392z M486.4,399.3h7v7h-7V399.3z M493.7,384.8h7v7h-7V384.8z M493.7,392h7v7h-7V392z M500.9,384.8h7v7h-7V384.8z M551.7,450.1h7
	v7h-7V450.1z M522.7,479.2h7v7h-7V479.2z M522.7,486.4h7v7h-7V486.4z M522.7,493.7h7v7h-7V493.7z M522.7,500.9h7v7h-7V500.9z
	 M530,471.9h7v7h-7V471.9z M530,486.4h7v7h-7V486.4z M530,493.7h7v7h-7V493.7z M530,500.9h7v7h-7V500.9z M530,508.2h7v7h-7V508.2z
	 M537.2,464.6h7v7h-7V464.6z M537.2,479.2h7v7h-7V479.2z M537.2,486.4h7v7h-7V486.4z M537.2,493.7h7v7h-7V493.7z M537.2,500.9h7v7
	h-7V500.9z M537.2,508.2h7v7h-7V508.2z M537.2,515.4h7v7h-7V515.4z M544.5,464.6h7v7h-7V464.6z M544.5,471.9h7v7h-7V471.9z
	 M544.5,479.2h7v7h-7V479.2z M544.5,486.4h7v7h-7V486.4z M544.5,493.7h7v7h-7V493.7z M544.5,500.9h7v7h-7V500.9z M544.5,508.2h7v7
	h-7V508.2z M544.5,515.4h7v7h-7V515.4z M544.5,522.7h7v7h-7V522.7z M551.7,457.4h7v7h-7V457.4z M551.7,471.9h7v7h-7V471.9z
	 M551.7,479.2h7v7h-7V479.2z M551.7,486.4h7v7h-7V486.4z M551.7,493.7h7v7h-7V493.7z M551.7,500.9h7v7h-7V500.9z M551.7,508.2h7v7
	h-7V508.2z M551.7,515.4h7v7h-7V515.4z M551.7,522.7h7v7h-7V522.7z M486.4,580.8h7v7h-7V580.8z M493.7,580.8h7v7h-7V580.8z
	 M500.9,580.8h7v7h-7V580.8z M508.2,580.8h7v7h-7V580.8z M515.4,580.8h7v7h-7V580.8z M522.7,580.8h7v7h-7V580.8z M530,580.8h7v7h-7
	V580.8z M537.2,580.8h7v7h-7V580.8z M544.5,580.8h7v7h-7V580.8z M551.7,530h7v7h-7V530z M551.7,580.8h7v7h-7V580.8z M559,14.5h7v7
	h-7V14.5z M559,58.1h7v7h-7V58.1z M559,65.3h7v7h-7V65.3z M559,94.4h7v7h-7V94.4z M559,108.9h7v7h-7V108.9z M559,116.1h7v7h-7V116.1
	z M559,123.4h7v7h-7V123.4z M559,130.7h7v7h-7V130.7z M559,137.9h7v7h-7V137.9z M559,145.2h7v7h-7V145.2z M559,152.4h7v7h-7V152.4z
	 M559,159.7h7v7h-7V159.7z M559,167h7v7h-7V167z M559,174.2h7v7h-7V174.2z M559,181.5h7v7h-7V181.5z M559,188.8h7v7h-7V188.8z
	 M559,196h7v7h-7V196z M559,203.3h7v7h-7V203.3z M559,217.8h7v7h-7V217.8z M559,232.3h7v7h-7V232.3z M559,246.8h7v7h-7V246.8z
	 M559,254.1h7v7h-7V254.1z M559,275.9h7v7h-7V275.9z M559,297.6h7v7h-7V297.6z M559,312.2h7v7h-7V312.2z M559,319.4h7v7h-7V319.4z
	 M559,326.7h7v7h-7V326.7z M559,334h7v7h-7V334z M559,341.2h7v7h-7V341.2z M559,348.5h7v7h-7V348.5z M559,355.7h7v7h-7V355.7z
	 M559,363h7v7h-7V363z M566.3,43.6h7v7h-7V43.6z M566.3,65.3h7v7h-7V65.3z M566.3,101.6h7v7h-7V101.6z M566.3,116.1h7v7h-7V116.1z
	 M566.3,123.4h7v7h-7V123.4z M566.3,130.7h7v7h-7V130.7z M566.3,137.9h7v7h-7V137.9z M566.3,145.2h7v7h-7V145.2z M566.3,152.4h7v7
	h-7V152.4z M566.3,159.7h7v7h-7V159.7z M566.3,167h7v7h-7V167z M566.3,174.2h7v7h-7V174.2z M566.3,188.8h7v7h-7V188.8z M566.3,196h7
	v7h-7V196z M566.3,203.3h7v7h-7V203.3z M566.3,210.5h7v7h-7V210.5z M566.3,225h7v7h-7V225z M566.3,232.3h7v7h-7V232.3z M566.3,239.6
	h7v7h-7V239.6z M566.3,246.8h7v7h-7V246.8z M566.3,275.9h7v7h-7V275.9z M566.3,304.9h7v7h-7V304.9z M566.3,319.4h7v7h-7V319.4z
	 M566.3,326.7h7v7h-7V326.7z M566.3,334h7v7h-7V334z M566.3,341.2h7v7h-7V341.2z M566.3,348.5h7v7h-7V348.5z M566.3,355.7h7v7h-7
	V355.7z M566.3,363h7v7h-7V363z M573.5,14.5h7v7h-7V14.5z M573.5,36.3h7v7h-7V36.3z M573.5,50.8h7v7h-7V50.8z M573.5,58.1h7v7h-7
	V58.1z M573.5,65.3h7v7h-7V65.3z M573.5,72.6h7v7h-7V72.6z M573.5,108.9h7v7h-7V108.9z M573.5,123.4h7v7h-7V123.4z M573.5,130.7h7v7
	h-7V130.7z M573.5,137.9h7v7h-7V137.9z M573.5,145.2h7v7h-7V145.2z M573.5,152.4h7v7h-7V152.4z M573.5,167h7v7h-7V167z M573.5,181.5
	h7v7h-7V181.5z M573.5,196h7v7h-7V196z M573.5,203.3h7v7h-7V203.3z M573.5,217.8h7v7h-7V217.8z M573.5,232.3h7v7h-7V232.3z
	 M573.5,239.7h7v7h-7V239.7z M580.8,239.7h7v7h-7V239.7z M573.5,275.9h7v7h-7V275.9z M573.5,312.2h7v7h-7V312.2z M573.5,319.4h7v7
	h-7V319.4z M573.5,326.7h7v7h-7V326.7z M573.5,334h7v7h-7V334z M573.5,341.2h7v7h-7V341.2z M573.5,348.5h7v7h-7V348.5z M573.5,355.7
	h7v7h-7V355.7z M573.5,363h7v7h-7V363z M580.8,43.6h7v7h-7V43.6z M580.8,50.8h7v7h-7V50.8z M580.8,65.3h7v7h-7V65.3z M580.8,79.9h7
	v7h-7V79.9z M580.8,116.1h7v7h-7V116.1z M580.8,123.4h7v7h-7V123.4z M580.8,137.9h7v7h-7V137.9z M580.8,145.2h7v7h-7V145.2z
	 M580.8,159.7h7v7h-7V159.7z M580.8,203.3h7v7h-7V203.3z M580.8,210.5h7v7h-7V210.5z M580.8,225h7v7h-7V225z M580.8,275.9h7v7h-7
	V275.9z M580.8,319.4h7v7h-7V319.4z M580.8,326.7h7v7h-7V326.7z M580.8,334h7v7h-7V334z M580.8,341.2h7v7h-7V341.2z M580.8,348.5h7
	v7h-7V348.5z M580.8,355.7h7v7h-7V355.7z M588,14.5h7v7h-7V14.5z M588,36.3h7v7h-7V36.3z M588,58.1h7v7h-7V58.1z M588,65.3h7v7h-7
	V65.3z M588,72.6h7v7h-7V72.6z M588,87.1h7v7h-7V87.1z M588,130.7h7v7h-7V130.7z M588,145.2h7v7h-7V145.2z M588,203.3h7v7h-7V203.3z
	 M588,210.5h7v7h-7V210.5z M588,217.8h7v7h-7V217.8z M588,232.3h7v7h-7V232.3z M588,275.9h7v7h-7V275.9z M588,312.2h7v7h-7V312.2z
	 M588,326.7h7v7h-7V326.7z M588,334h7v7h-7V334z M588,341.2h7v7h-7V341.2z M588,348.5h7v7h-7V348.5z M588,355.7h7v7h-7V355.7z
	 M595.3,43.6h7v7h-7V43.6z M595.3,50.8h7v7h-7V50.8z M595.3,65.3h7v7h-7V65.3z M595.3,79.9h7v7h-7V79.9z M595.3,94.4h7v7h-7V94.4z
	 M595.3,137.9h7v7h-7V137.9z M595.3,196h7v7h-7V196z M595.3,210.5h7v7h-7V210.5z M595.3,217.8h7v7h-7V217.8z M595.3,225h7v7h-7V225z
	 M595.3,283.1h7v7h-7V283.1z M595.3,319.4h7v7h-7V319.4z M595.3,326.7h7v7h-7V326.7z M595.3,334h7v7h-7V334z M595.3,341.2h7v7h-7
	V341.2z M595.3,348.5h7v7h-7V348.5z M595.3,355.7h7v7h-7V355.7z M595.3,377.5h7v7h-7V377.5z M602.6,14.5h7v7h-7V14.5z M602.6,36.3h7
	v7h-7V36.3z M602.6,58.1h7v7h-7V58.1z M602.6,72.6h7v7h-7V72.6z M602.6,87.1h7v7h-7V87.1z M602.6,94.4h7v7h-7V94.4z M602.6,108.9h7
	v7h-7V108.9z M602.6,123.4h7v7h-7V123.4z M602.6,188.8h7v7h-7V188.8z M602.6,217.8h7v7h-7V217.8z M602.6,283.1h7v7h-7V283.1z
	 M602.6,312.2h7v7h-7V312.2z M602.6,326.7h7v7h-7V326.7z M602.6,334h7v7h-7V334z M602.6,341.2h7v7h-7V341.2z M602.6,348.5h7v7h-7
	V348.5z M602.6,355.7h7v7h-7V355.7z M602.6,370.2h7v7h-7V370.2z M609.8,29h7v7h-7V29z M609.8,43.6h7v7h-7V43.6z M609.8,50.8h7v7h-7
	V50.8z M609.8,65.3h7v7h-7V65.3z M609.8,79.9h7v7h-7V79.9z M609.8,94.4h7v7h-7V94.4z M609.8,101.6h7v7h-7V101.6z M609.8,116.1h7v7
	h-7V116.1z M609.8,130.7h7v7h-7V130.7z M609.8,217.8h7v7h-7V217.8z M609.8,283.1h7v7h-7V283.1z M609.8,319.4h7v7h-7V319.4z
	 M609.8,326.7h7v7h-7V326.7z M609.8,334h7v7h-7V334z M609.8,341.2h7v7h-7V341.2z M609.8,348.5h7v7h-7V348.5z M609.8,355.7h7v7h-7
	V355.7z M609.8,363h7v7h-7V363z M609.8,377.5h7v7h-7V377.5z M617.1,14.5h7v7h-7V14.5z M617.1,21.8h7v7h-7V21.8z M617.1,29h7v7h-7V29
	z M617.1,36.3h7v7h-7V36.3z M617.1,50.8h7v7h-7V50.8z M617.1,58.1h7v7h-7V58.1z M617.1,65.3h7v7h-7V65.3z M617.1,72.6h7v7h-7V72.6z
	 M617.1,79.9h7v7h-7V79.9z M617.1,87.1h7v7h-7V87.1z M617.1,94.4h7v7h-7V94.4z M617.1,108.9h7v7h-7V108.9z M617.1,123.4h7v7h-7
	V123.4z M617.1,137.9h7v7h-7V137.9z M617.1,152.4h7v7h-7V152.4z M617.1,159.7h7v7h-7V159.7z M617.1,210.5h7v7h-7V210.5z
	 M617.1,283.1h7v7h-7V283.1z M617.1,326.7h7v7h-7V326.7z M617.1,334h7v7h-7V334z M617.1,341.2h7v7h-7V341.2z M617.1,348.5h7v7h-7
	V348.5z M617.1,355.7h7v7h-7V355.7z M617.1,370.2h7v7h-7V370.2z M624.3,21.8h7v7h-7V21.8z M624.3,36.3h7v7h-7V36.3z M624.3,43.6h7v7
	h-7V43.6z M624.3,50.8h7v7h-7V50.8z M624.3,58.1h7v7h-7V58.1z M624.3,65.3h7v7h-7V65.3z M624.3,72.6h7v7h-7V72.6z M624.3,79.9h7v7
	h-7V79.9z M624.3,87.1h7v7h-7V87.1z M624.3,94.4h7v7h-7V94.4z M624.3,101.6h7v7h-7V101.6z M624.3,116.1h7v7h-7V116.1z M624.3,130.7
	h7v7h-7V130.7z M624.3,145.2h7v7h-7V145.2z M624.3,152.4h7v7h-7V152.4z M624.3,159.7h7v7h-7V159.7z M624.3,167h7v7h-7V167z
	 M624.3,203.3h7v7h-7V203.3z M624.3,210.5h7v7h-7V210.5z M624.3,217.8h7v7h-7V217.8z M624.3,290.4h7v7h-7V290.4z M624.3,319.4h7v7
	h-7V319.4z M624.3,334h7v7h-7V334z M624.3,341.2h7v7h-7V341.2z M624.3,348.5h7v7h-7V348.5z M624.3,363h7v7h-7V363z M624.3,377.5h7v7
	h-7V377.5z M559,442.8h7v7h-7V442.8z M566.3,435.6h7v7h-7V435.6z M566.3,450.1h7v7h-7V450.1z M573.5,421.1h7v7h-7V421.1z
	 M573.5,428.3h7v7h-7V428.3z M573.5,442.8h7v7h-7V442.8z M573.5,450.1h7v7h-7V450.1z M580.8,413.8h7v7h-7V413.8z M580.8,428.3h7v7
	h-7V428.3z M580.8,435.6h7v7h-7V435.6z M580.8,442.8h7v7h-7V442.8z M580.8,450.1h7v7h-7V450.1z M588,384.8h7v7h-7V384.8z M588,399.3
	h7v7h-7V399.3z M588,413.8h7v7h-7V413.8z M588,421.1h7v7h-7V421.1z M588,428.3h7v7h-7V428.3z M588,435.6h7v7h-7V435.6z M588,442.8h7
	v7h-7V442.8z M588,450.1h7v7h-7V450.1z M595.3,392h7v7h-7V392z M595.3,406.6h7v7h-7V406.6z M595.3,413.8h7v7h-7V413.8z M595.3,421.1
	h7v7h-7V421.1z M595.3,428.3h7v7h-7V428.3z M595.3,435.6h7v7h-7V435.6z M595.3,442.8h7v7h-7V442.8z M595.3,450.1h7v7h-7V450.1z
	 M602.6,384.8h7v7h-7V384.8z M602.6,392h7v7h-7V392z M602.6,399.3h7v7h-7V399.3z M602.6,406.6h7v7h-7V406.6z M602.6,413.8h7v7h-7
	V413.8z M602.6,421.1h7v7h-7V421.1z M602.6,428.3h7v7h-7V428.3z M602.6,435.6h7v7h-7V435.6z M602.6,442.8h7v7h-7V442.8z M609.8,392
	h7v7h-7V392z M609.8,399.3h7v7h-7V399.3z M609.8,406.6h7v7h-7V406.6z M609.8,413.8h7v7h-7V413.8z M609.8,421.1h7v7h-7V421.1z
	 M609.8,428.3h7v7h-7V428.3z M609.8,435.6h7v7h-7V435.6z M609.8,450.1h7v7h-7V450.1z M617.1,384.8h7v7h-7V384.8z M617.1,392h7v7h-7
	V392z M617.1,399.3h7v7h-7V399.3z M617.1,406.6h7v7h-7V406.6z M617.1,413.8h7v7h-7V413.8z M617.1,421.1h7v7h-7V421.1z M617.1,428.3
	h7v7h-7V428.3z M617.1,442.8h7v7h-7V442.8z M624.3,384.8h7v7h-7V384.8z M624.3,392h7v7h-7V392z M624.3,399.3h7v7h-7V399.3z
	 M624.3,406.6h7v7h-7V406.6z M624.3,413.8h7v7h-7V413.8z M624.3,421.1h7v7h-7V421.1z M624.3,435.6h7v7h-7V435.6z M559,457.4h7v7h-7
	V457.4z M559,464.6h7v7h-7V464.6z M559,471.9h7v7h-7V471.9z M559,479.2h7v7h-7V479.2z M559,486.4h7v7h-7V486.4z M559,493.7h7v7h-7
	V493.7z M559,500.9h7v7h-7V500.9z M559,508.2h7v7h-7V508.2z M559,515.4h7v7h-7V515.4z M559,522.7h7v7h-7V522.7z M566.3,457.4h7v7h-7
	V457.4z M566.3,464.6h7v7h-7V464.6z M566.3,471.9h7v7h-7V471.9z M566.3,479.2h7v7h-7V479.2z M566.3,486.4h7v7h-7V486.4z
	 M566.3,493.7h7v7h-7V493.7z M566.3,508.2h7v7h-7V508.2z M566.3,522.7h7v7h-7V522.7z M573.5,457.4h7v7h-7V457.4z M573.5,464.6h7v7
	h-7V464.6z M573.5,471.9h7v7h-7V471.9z M573.5,479.2h7v7h-7V479.2z M573.5,486.4h7v7h-7V486.4z M573.5,500.9h7v7h-7V500.9z
	 M573.5,515.4h7v7h-7V515.4z M580.8,457.4h7v7h-7V457.4z M580.8,464.6h7v7h-7V464.6z M580.8,471.9h7v7h-7V471.9z M580.8,479.2h7v7
	h-7V479.2z M580.8,493.7h7v7h-7V493.7z M580.8,508.2h7v7h-7V508.2z M580.8,522.7h7v7h-7V522.7z M588,457.4h7v7h-7V457.4z M588,471.9
	h7v7h-7V471.9z M588,479.2h7v7h-7V479.2z M588,486.4h7v7h-7V486.4z M588,493.7h7v7h-7V493.7z M588,500.9h7v7h-7V500.9z M588,508.2h7
	v7h-7V508.2z M588,515.4h7v7h-7V515.4z M588,522.7h7v7h-7V522.7z M595.3,464.6h7v7h-7V464.6z M602.6,457.4h7v7h-7V457.4z M559,530h7
	v7h-7V530z M559,537.2h7v7h-7V537.2z M559,580.8h7v7h-7V580.8z M566.3,530h7v7h-7V530z M566.3,537.2h7v7h-7V537.2z M566.3,544.5h7v7
	h-7V544.5z M566.3,580.8h7v7h-7V580.8z M573.5,530h7v7h-7V530z M573.5,537.2h7v7h-7V537.2z M573.5,544.5h7v7h-7V544.5z M573.5,551.8
	h7v7h-7V551.8z M573.5,580.8h7v7h-7V580.8z M580.8,537.2h7v7h-7V537.2z M580.8,544.5h7v7h-7V544.5z M580.8,551.8h7v7h-7V551.8z
	 M580.8,559h7v7h-7V559z M580.8,580.8h7v7h-7V580.8z M588,530h7v7h-7V530z M588,544.5h7v7h-7V544.5z M588,559h7v7h-7V559z
	 M588,580.8h7v7h-7V580.8z M595.3,530h7v7h-7V530z M595.3,551.8h7v7h-7V551.8z M595.3,559h7v7h-7V559z M602.6,537.2h7v7h-7V537.2z
	 M602.6,544.5h7v7h-7V544.5z M602.6,559h7v7h-7V559z M602.6,580.8h7v7h-7V580.8z M609.8,544.5h7v7h-7V544.5z M609.8,551.8h7v7h-7
	V551.8z M609.8,559h7v7h-7V559z M609.8,580.8h7v7h-7V580.8z M617.1,580.8h7v7h-7V580.8z M624.3,580.8h7v7h-7V580.8z M631.6,14.5h7v7
	h-7V14.5z M631.6,29h7v7h-7V29z M631.6,36.3h7v7h-7V36.3z M631.6,43.6h7v7h-7V43.6z M631.6,50.8h7v7h-7V50.8z M631.6,58.1h7v7h-7
	V58.1z M631.6,65.3h7v7h-7V65.3z M631.6,72.6h7v7h-7V72.6z M631.6,79.9h7v7h-7V79.9z M631.6,87.1h7v7h-7V87.1z M631.6,94.4h7v7h-7
	V94.4z M631.6,101.6h7v7h-7V101.6z M631.6,108.9h7v7h-7V108.9z M631.6,123.4h7v7h-7V123.4z M631.6,137.9h7v7h-7V137.9z M631.6,145.2
	h7v7h-7V145.2z M631.6,152.4h7v7h-7V152.4z M631.6,159.7h7v7h-7V159.7z M631.6,167h7v7h-7V167z M631.6,174.2h7v7h-7V174.2z
	 M631.6,181.5h7v7h-7V181.5z M631.6,188.8h7v7h-7V188.8z M631.6,196h7v7h-7V196z M631.6,203.3h7v7h-7V203.3z M631.6,210.5h7v7h-7
	V210.5z M631.6,217.8h7v7h-7V217.8z M631.6,225h7v7h-7V225z M631.6,290.4h7v7h-7V290.4z M631.6,326.7h7v7h-7V326.7z M631.6,341.2h7
	v7h-7V341.2z M631.6,348.5h7v7h-7V348.5z M631.6,355.7h7v7h-7V355.7z M631.6,370.2h7v7h-7V370.2z M638.9,7.2h7v7h-7V7.2z
	 M638.9,21.8h7v7h-7V21.8z M638.9,36.3h7v7h-7V36.3z M638.9,43.6h7v7h-7V43.6z M638.9,50.8h7v7h-7V50.8z M638.9,58.1h7v7h-7V58.1z
	 M638.9,65.3h7v7h-7V65.3z M638.9,72.6h7v7h-7V72.6z M638.9,79.9h7v7h-7V79.9z M638.9,87.1h7v7h-7V87.1z M638.9,94.4h7v7h-7V94.4z
	 M638.9,101.6h7v7h-7V101.6z M638.9,108.9h7v7h-7V108.9z M638.9,116.1h7v7h-7V116.1z M638.9,130.7h7v7h-7V130.7z M638.9,137.9h7v7
	h-7V137.9z M638.9,145.2h7v7h-7V145.2z M638.9,152.4h7v7h-7V152.4z M638.9,159.7h7v7h-7V159.7z M638.9,167h7v7h-7V167z M638.9,174.2
	h7v7h-7V174.2z M638.9,181.5h7v7h-7V181.5z M638.9,188.8h7v7h-7V188.8z M638.9,196h7v7h-7V196z M638.9,203.3h7v7h-7V203.3z
	 M638.9,210.5h7v7h-7V210.5z M638.9,217.8h7v7h-7V217.8z M638.9,225h7v7h-7V225z M638.9,232.3h7v7h-7V232.3z M638.9,297.6h7v7h-7
	V297.6z M638.9,334h7v7h-7V334z M638.9,341.2h7v7h-7V341.2z M638.9,348.5h7v7h-7V348.5z M638.9,363h7v7h-7V363z M638.9,377.5h7v7h-7
	V377.5z M646.1,7.2h7v7h-7V7.2z M646.1,29h7v7h-7V29z M646.1,43.6h7v7h-7V43.6z M646.1,58.1h7v7h-7V58.1z M646.1,72.6h7v7h-7V72.6z
	 M646.1,87.1h7v7h-7V87.1z M646.1,101.6h7v7h-7V101.6z M646.1,108.9h7v7h-7V108.9z M646.1,116.1h7v7h-7V116.1z M646.1,123.4h7v7h-7
	V123.4z M646.1,130.7h7v7h-7V130.7z M646.1,137.9h7v7h-7V137.9z M646.1,152.4h7v7h-7V152.4z M646.1,159.7h7v7h-7V159.7z M646.1,167
	h7v7h-7V167z M646.1,174.2h7v7h-7V174.2z M646.1,181.5h7v7h-7V181.5z M646.1,188.8h7v7h-7V188.8z M646.1,196h7v7h-7V196z
	 M646.1,203.3h7v7h-7V203.3z M646.1,210.5h7v7h-7V210.5z M646.1,217.8h7v7h-7V217.8z M646.1,225h7v7h-7V225z M646.1,232.3h7v7h-7
	V232.3z M646.1,239.6h7v7h-7V239.6z M646.1,297.6h7v7h-7V297.6z M646.1,326.7h7v7h-7V326.7z M646.1,341.2h7v7h-7V341.2z
	 M646.1,355.7h7v7h-7V355.7z M646.1,370.2h7v7h-7V370.2z M646.1,377.5h7v7h-7V377.5z M653.4,7.2h7v7h-7V7.2z M653.4,50.8h7v7h-7
	V50.8z M653.4,65.3h7v7h-7V65.3z M653.4,79.9h7v7h-7V79.9z M653.4,94.4h7v7h-7V94.4z M653.4,108.9h7v7h-7V108.9z M653.4,116.1h7v7
	h-7V116.1z M653.4,123.4h7v7h-7V123.4z M653.4,130.7h7v7h-7V130.7z M653.4,137.9h7v7h-7V137.9z M653.4,145.2h7v7h-7V145.2z
	 M653.4,167h7v7h-7V167z M653.4,174.2h7v7h-7V174.2z M653.4,188.8h7v7h-7V188.8z M653.4,203.3h7v7h-7V203.3z M653.4,210.5h7v7h-7
	V210.5z M653.4,217.8h7v7h-7V217.8z M653.4,225h7v7h-7V225z M653.4,232.3h7v7h-7V232.3z M653.4,239.6h7v7h-7V239.6z M653.4,246.8h7
	v7h-7V246.8z M653.4,304.9h7v7h-7V304.9z M653.4,334h7v7h-7V334z M653.4,341.2h7v7h-7V341.2z M653.4,348.5h7v7h-7V348.5z M653.4,363
	h7v7h-7V363z M653.4,370.2h7v7h-7V370.2z M653.4,377.5h7v7h-7V377.5z M660.6,7.2h7v7h-7V7.2z M660.6,101.6h7v7h-7V101.6z
	 M660.6,116.1h7v7h-7V116.1z M660.6,123.4h7v7h-7V123.4z M660.6,130.7h7v7h-7V130.7z M660.6,137.9h7v7h-7V137.9z M660.6,152.4h7v7
	h-7V152.4z M660.6,196h7v7h-7V196z M660.6,210.5h7v7h-7V210.5z M660.6,217.8h7v7h-7V217.8z M660.6,225h7v7h-7V225z M660.6,232.3h7v7
	h-7V232.3z M660.6,239.6h7v7h-7V239.6z M660.6,246.8h7v7h-7V246.8z M660.6,254.1h7v7h-7V254.1z M660.6,304.9h7v7h-7V304.9z
	 M660.6,341.2h7v7h-7V341.2z M660.6,355.7h7v7h-7V355.7z M660.6,363h7v7h-7V363z M660.6,370.2h7v7h-7V370.2z M660.6,377.5h7v7h-7
	V377.5z M667.9,7.2h7v7h-7V7.2z M667.9,108.9h7v7h-7V108.9z M667.9,123.4h7v7h-7V123.4z M667.9,130.7h7v7h-7V130.7z M667.9,159.7h7
	v7h-7V159.7z M667.9,167h7v7h-7V167z M667.9,203.3h7v7h-7V203.3z M667.9,217.8h7v7h-7V217.8z M667.9,225h7v7h-7V225z M667.9,232.3h7
	v7h-7V232.3z M667.9,239.6h7v7h-7V239.6z M667.9,246.8h7v7h-7V246.8z M667.9,254.1h7v7h-7V254.1z M667.9,261.4h7v7h-7V261.4z
	 M667.9,304.9h7v7h-7V304.9z M667.9,348.5h7v7h-7V348.5z M667.9,355.7h7v7h-7V355.7z M667.9,363h7v7h-7V363z M667.9,377.5h7v7h-7
	V377.5z M675.2,7.2h7v7h-7V7.2z M675.2,116.1h7v7h-7V116.1z M675.2,130.7h7v7h-7V130.7z M675.2,174.2h7v7h-7V174.2z M675.2,181.5h7
	v7h-7V181.5z M675.2,210.5h7v7h-7V210.5z M675.2,225h7v7h-7V225z M675.2,232.3h7v7h-7V232.3z M675.2,239.6h7v7h-7V239.6z
	 M675.2,246.8h7v7h-7V246.8z M675.2,254.1h7v7h-7V254.1z M675.2,261.4h7v7h-7V261.4z M675.2,268.6h7v7h-7V268.6z M675.2,312.2h7v7
	h-7V312.2z M675.2,341.2h7v7h-7V341.2z M675.2,355.7h7v7h-7V355.7z M675.2,370.2h7v7h-7V370.2z M682.4,7.2h7v7h-7V7.2z M682.4,123.4
	h7v7h-7V123.4z M682.4,130.7h7v7h-7V130.7z M682.4,137.9h7v7h-7V137.9z M682.4,188.8h7v7h-7V188.8z M682.4,217.8h7v7h-7V217.8z
	 M682.4,232.3h7v7h-7V232.3z M682.4,239.6h7v7h-7V239.6z M682.4,246.8h7v7h-7V246.8z M682.4,254.1h7v7h-7V254.1z M682.4,261.4h7v7
	h-7V261.4z M682.4,268.6h7v7h-7V268.6z M682.4,319.4h7v7h-7V319.4z M682.4,348.5h7v7h-7V348.5z M682.4,363h7v7h-7V363z M682.4,377.5
	h7v7h-7V377.5z M689.7,14.5h7v7h-7V14.5z M689.7,58.1h7v7h-7V58.1z M689.7,65.3h7v7h-7V65.3z M689.7,72.6h7v7h-7V72.6z M689.7,79.9
	h7v7h-7V79.9z M689.7,87.1h7v7h-7V87.1z M689.7,94.4h7v7h-7V94.4z M689.7,137.9h7v7h-7V137.9z M689.7,196h7v7h-7V196z M689.7,203.3
	h7v7h-7V203.3z M689.7,225h7v7h-7V225z M689.7,239.6h7v7h-7V239.6z M689.7,246.8h7v7h-7V246.8z M689.7,254.1h7v7h-7V254.1z
	 M689.7,261.4h7v7h-7V261.4z M689.7,268.6h7v7h-7V268.6z M689.7,275.9h7v7h-7V275.9z M689.7,326.7h7v7h-7V326.7z M689.7,355.7h7v7
	h-7V355.7z M697,334h7v7h-7V334z M697,341.2h7v7h-7V341.2z M697,348.5h7v7h-7V348.5z M697,355.7h7v7h-7V355.7z M689.7,363h7v7h-7
	V363z M689.7,370.2h7v7h-7V370.2z M696.9,21.8h7v7h-7V21.8z M696.9,58.1h7v7h-7V58.1z M696.9,65.3h7v7h-7V65.3z M696.9,72.6h7v7h-7
	V72.6z M696.9,79.9h7v7h-7V79.9z M696.9,87.1h7v7h-7V87.1z M696.9,94.4h7v7h-7V94.4z M696.9,130.7h7v7h-7V130.7z M696.9,210.5h7v7
	h-7V210.5z M696.9,232.3h7v7h-7V232.3z M696.9,246.8h7v7h-7V246.8z M696.9,254.1h7v7h-7V254.1z M696.9,261.4h7v7h-7V261.4z
	 M696.9,268.6h7v7h-7V268.6z M696.9,275.9h7v7h-7V275.9z M631.6,384.8h7v7h-7V384.8z M631.6,392h7v7h-7V392z M631.6,399.3h7v7h-7
	V399.3z M631.6,406.6h7v7h-7V406.6z M631.6,413.8h7v7h-7V413.8z M631.6,428.3h7v7h-7V428.3z M638.9,384.8h7v7h-7V384.8z M638.9,392
	h7v7h-7V392z M638.9,399.3h7v7h-7V399.3z M638.9,406.6h7v7h-7V406.6z M638.9,421.1h7v7h-7V421.1z M646.1,384.8h7v7h-7V384.8z
	 M646.1,392h7v7h-7V392z M646.1,399.3h7v7h-7V399.3z M646.1,413.8h7v7h-7V413.8z M653.4,384.8h7v7h-7V384.8z M653.4,392h7v7h-7V392z
	 M653.4,406.6h7v7h-7V406.6z M660.6,384.8h7v7h-7V384.8z M660.6,399.3h7v7h-7V399.3z M667.9,392h7v7h-7V392z M675.2,384.8h7v7h-7
	V384.8z M638.9,580.8h7v7h-7V580.8z M646.1,580.8h7v7h-7V580.8z M653.4,580.8h7v7h-7V580.8z M675.2,580.8h7v7h-7V580.8z
	 M682.4,580.8h7v7h-7V580.8z M689.7,580.8h7v7h-7V580.8z M696.9,580.8h7v7h-7V580.8z M704.2,29h7v7h-7V29z M704.2,123.4h7v7h-7
	V123.4z M704.2,217.8h7v7h-7V217.8z M704.2,225h7v7h-7V225z M704.2,239.6h7v7h-7V239.6z M704.2,246.8h7v7h-7V246.8z M704.2,254.1h7
	v7h-7V254.1z M704.2,261.4h7v7h-7V261.4z M704.2,268.6h7v7h-7V268.6z M704.2,275.9h7v7h-7V275.9z M711.5,36.3h7v7h-7V36.3z
	 M711.5,108.9h7v7h-7V108.9z M711.5,116.1h7v7h-7V116.1z M711.5,217.8h7v7h-7V217.8z M711.5,232.3h7v7h-7V232.3z M711.5,239.6h7v7
	h-7V239.6z M711.5,246.8h7v7h-7V246.8z M711.5,254.1h7v7h-7V254.1z M711.5,261.4h7v7h-7V261.4z M711.5,268.6h7v7h-7V268.6z
	 M711.5,275.9h7v7h-7V275.9z M718.7,43.6h7v7h-7V43.6z M718.7,50.8h7v7h-7V50.8z M718.7,94.4h7v7h-7V94.4z M718.7,101.6h7v7h-7
	V101.6z M718.7,210.5h7v7h-7V210.5z M718.7,225h7v7h-7V225z M718.7,232.3h7v7h-7V232.3z M718.7,239.6h7v7h-7V239.6z M718.7,246.8h7
	v7h-7V246.8z M718.7,254.1h7v7h-7V254.1z M718.7,261.4h7v7h-7V261.4z M718.7,275.9h7v7h-7V275.9z M726,58.1h7v7h-7V58.1z M726,65.3
	h7v7h-7V65.3z M726,72.6h7v7h-7V72.6z M726,79.9h7v7h-7V79.9z M726,87.1h7v7h-7V87.1z M726,137.9h7v7h-7V137.9z M726,145.2h7v7h-7
	V145.2z M726,152.4h7v7h-7V152.4z M726,203.3h7v7h-7V203.3z M726,217.8h7v7h-7V217.8z M726,225h7v7h-7V225z M726,232.3h7v7h-7V232.3
	z M726,239.6h7v7h-7V239.6z M726,246.8h7v7h-7V246.8z M726,254.1h7v7h-7V254.1z M726,268.6h7v7h-7V268.6z M733.2,130.7h7v7h-7V130.7
	z M733.2,137.9h7v7h-7V137.9z M733.2,159.7h7v7h-7V159.7z M733.2,196h7v7h-7V196z M733.2,210.5h7v7h-7V210.5z M733.2,217.8h7v7h-7
	V217.8z M733.2,225h7v7h-7V225z M733.2,232.3h7v7h-7V232.3z M733.2,239.6h7v7h-7V239.6z M733.2,246.8h7v7h-7V246.8z M733.2,261.4h7
	v7h-7V261.4z M740.5,130.7h7v7h-7V130.7z M740.5,145.2h7v7h-7V145.2z M740.5,152.4h7v7h-7V152.4z M740.5,167h7v7h-7V167z
	 M740.5,181.5h7v7h-7V181.5z M740.5,188.8h7v7h-7V188.8z M740.5,203.3h7v7h-7V203.3z M740.5,210.5h7v7h-7V210.5z M740.5,217.8h7v7
	h-7V217.8z M740.5,225h7v7h-7V225z M740.5,232.3h7v7h-7V232.3z M740.5,246.8h7v7h-7V246.8z M747.8,130.7h7v7h-7V130.7z M747.8,145.2
	h7v7h-7V145.2z M747.8,152.4h7v7h-7V152.4z M747.8,159.7h7v7h-7V159.7z M747.8,174.2h7v7h-7V174.2z M747.8,188.8h7v7h-7V188.8z
	 M747.8,196h7v7h-7V196z M747.8,203.3h7v7h-7V203.3z M747.8,210.5h7v7h-7V210.5z M747.8,217.8h7v7h-7V217.8z M747.8,225h7v7h-7V225z
	 M747.8,239.6h7v7h-7V239.6z M755,123.4h7v7h-7V123.4z M755,130.7h7v7h-7V130.7z M755,137.9h7v7h-7V137.9z M755,145.2h7v7h-7V145.2z
	 M755,152.4h7v7h-7V152.4z M755,159.7h7v7h-7V159.7z M755,167h7v7h-7V167z M755,181.5h7v7h-7V181.5z M755,196h7v7h-7V196z
	 M755,203.3h7v7h-7V203.3z M755,210.5h7v7h-7V210.5z M755,225h7v7h-7V225z M755,232.3h7v7h-7V232.3z M762.3,123.4h7v7h-7V123.4z
	 M762.3,145.2h7v7h-7V145.2z M762.3,152.4h7v7h-7V152.4z M762.3,159.7h7v7h-7V159.7z M762.3,167h7v7h-7V167z M762.3,174.2h7v7h-7
	V174.2z M762.3,181.5h7v7h-7V181.5z M762.3,188.8h7v7h-7V188.8z M762.3,196h7v7h-7V196z M762.3,203.3h7v7h-7V203.3z M762.3,217.8h7
	v7h-7V217.8z M762.3,225h7v7h-7V225z M769.5,123.4h7v7h-7V123.4z M769.5,152.4h7v7h-7V152.4z M769.5,159.7h7v7h-7V159.7z M769.5,167
	h7v7h-7V167z M769.5,174.2h7v7h-7V174.2z M769.5,181.5h7v7h-7V181.5z M769.5,188.8h7v7h-7V188.8z M769.5,203.3h7v7h-7V203.3z
	 M769.5,210.5h7v7h-7V210.5z M718.7,580.8h7v7h-7V580.8z M726,580.8h7v7h-7V580.8z M733.2,580.8h7v7h-7V580.8z M776.8,130.7h7v7h-7
	V130.7z M776.8,167h7v7h-7V167z M776.8,181.5h7v7h-7V181.5z M776.8,196h7v7h-7V196z M784.1,137.9h7v7h-7V137.9z M784.1,159.7h7v7h-7
	V159.7z M784.1,174.2h7v7h-7V174.2z M784.1,188.8h7v7h-7V188.8z M791.3,145.2h7v7h-7V145.2z M791.3,167h7v7h-7V167z M791.3,174.2h7
	v7h-7V174.2z M791.3,181.5h7v7h-7V181.5z M798.6,152.4h7v7h-7V152.4z M798.6,159.7h7v7h-7V159.7z M798.6,167h7v7h-7V167z M781.8,552
	h7v7h-7V552z M789.1,552h7v7h-7V552z M789.1,559.3h7v7h-7V559.3z M796.3,552h7v7h-7V552z M796.3,559.3h7v7h-7V559.3z M796.3,566.6h7
	v7h-7V566.6z M803.6,559.3h7v7h-7V559.3z M803.6,566.6h7v7h-7V566.6z M803.6,573.8h7v7h-7V573.8z M810.8,566.6h7v7h-7V566.6z
	 M810.8,573.8h7v7h-7V573.8z M810.8,581.1h7v7h-7V581.1z M818.1,559.3h7v7h-7V559.3z M818.1,566.6h7v7h-7V566.6z M818.1,573.8h7v7
	h-7V573.8z M825.4,552h7v7h-7V552z M825.4,559.3h7v7h-7V559.3z M825.4,566.6h7v7h-7V566.6z M832.6,552h7v7h-7V552z M832.6,559.3h7v7
	h-7V559.3z M839.9,552h7v7h-7V552z M0.1,0h7v7h-7V0z M0.1,7.2h7v7h-7V7.2z M0.1,14.5h7v7h-7V14.5z M0.1,21.8h7v7h-7V21.8z M0.1,29h7
	v7h-7V29z M0.1,36.3h7v7h-7V36.3z M0.1,43.6h7v7h-7V43.6z M0.1,50.8h7v7h-7V50.8z M0.1,58.1h7v7h-7V58.1z M0.1,65.3h7v7h-7V65.3z
	 M0.1,72.6h7v7h-7V72.6z M0.1,79.9h7v7h-7V79.9z M0.1,87.1h7v7h-7V87.1z M0.1,94.4h7v7h-7V94.4z M7.4,0h7v7h-7V0z M7.4,7.2h7v7h-7
	V7.2z M7.4,14.5h7v7h-7V14.5z M7.4,21.8h7v7h-7V21.8z M7.4,29h7v7h-7V29z M7.4,36.3h7v7h-7V36.3z M7.4,43.6h7v7h-7V43.6z M7.4,50.8
	h7v7h-7V50.8z M7.4,58.1h7v7h-7V58.1z M7.4,65.3h7v7h-7V65.3z M7.4,72.6h7v7h-7V72.6z M7.4,79.9h7v7h-7V79.9z M7.4,87.1h7v7h-7V87.1
	z M7.4,94.4h7v7h-7V94.4z M14.6,0h7v7h-7V0z M14.6,7.2h7v7h-7V7.2z M14.6,14.5h7v7h-7V14.5z M14.6,21.8h7v7h-7V21.8z M14.6,29h7v7
	h-7V29z M14.6,36.3h7v7h-7V36.3z M14.6,43.6h7v7h-7V43.6z M14.6,50.8h7v7h-7V50.8z M14.6,58.1h7v7h-7V58.1z M14.6,65.3h7v7h-7V65.3z
	 M14.6,72.6h7v7h-7V72.6z M14.6,79.9h7v7h-7V79.9z M14.6,87.1h7v7h-7V87.1z M14.6,94.4h7v7h-7V94.4z M21.9,0h7v7h-7V0z M21.9,7.2h7
	v7h-7V7.2z M21.9,14.5h7v7h-7V14.5z M21.9,21.8h7v7h-7V21.8z M21.9,29h7v7h-7V29z M21.9,36.3h7v7h-7V36.3z M21.9,43.6h7v7h-7V43.6z
	 M21.9,50.8h7v7h-7V50.8z M21.9,58.1h7v7h-7V58.1z M21.9,65.3h7v7h-7V65.3z M21.9,72.6h7v7h-7V72.6z M21.9,79.9h7v7h-7V79.9z
	 M21.9,87.1h7v7h-7V87.1z M21.9,94.4h7v7h-7V94.4z M29.2,0h7v7h-7V0z M29.2,7.2h7v7h-7V7.2z M29.2,14.5h7v7h-7V14.5z M29.2,21.8h7v7
	h-7V21.8z M29.2,29h7v7h-7V29z M29.2,36.3h7v7h-7V36.3z M29.2,43.6h7v7h-7V43.6z M29.2,50.8h7v7h-7V50.8z M29.2,58.1h7v7h-7V58.1z
	 M29.2,65.3h7v7h-7V65.3z M29.2,72.6h7v7h-7V72.6z M29.2,79.9h7v7h-7V79.9z M29.2,87.1h7v7h-7V87.1z M29.2,94.4h7v7h-7V94.4z
	 M36.4,0h7v7h-7V0z M36.4,7.2h7v7h-7V7.2z M36.4,14.5h7v7h-7V14.5z M36.4,21.8h7v7h-7V21.8z M36.4,29h7v7h-7V29z M36.4,36.3h7v7h-7
	V36.3z M36.4,43.6h7v7h-7V43.6z M36.4,50.8h7v7h-7V50.8z M36.4,58.1h7v7h-7V58.1z M36.4,65.3h7v7h-7V65.3z M36.4,72.6h7v7h-7V72.6z
	 M36.4,79.9h7v7h-7V79.9z M36.4,87.1h7v7h-7V87.1z M36.4,94.4h7v7h-7V94.4z M43.7,0h7v7h-7V0z M43.7,7.2h7v7h-7V7.2z M43.7,14.5h7v7
	h-7V14.5z M43.7,21.8h7v7h-7V21.8z M43.7,29h7v7h-7V29z M43.7,36.3h7v7h-7V36.3z M43.7,43.6h7v7h-7V43.6z M43.7,50.8h7v7h-7V50.8z
	 M43.7,58.1h7v7h-7V58.1z M43.7,65.3h7v7h-7V65.3z M43.7,72.6h7v7h-7V72.6z M43.7,79.9h7v7h-7V79.9z M43.7,87.1h7v7h-7V87.1z
	 M43.7,94.4h7v7h-7V94.4z M50.9,0h7v7h-7V0z M50.9,7.2h7v7h-7V7.2z M50.9,14.5h7v7h-7V14.5z M50.9,21.8h7v7h-7V21.8z M50.9,29h7v7
	h-7V29z M50.9,36.3h7v7h-7V36.3z M50.9,43.6h7v7h-7V43.6z M50.9,50.8h7v7h-7V50.8z M50.9,58.1h7v7h-7V58.1z M50.9,65.3h7v7h-7V65.3z
	 M50.9,72.6h7v7h-7V72.6z M50.9,79.9h7v7h-7V79.9z M50.9,87.1h7v7h-7V87.1z M50.9,94.4h7v7h-7V94.4z M58.2,0h7v7h-7V0z M58.2,7.2h7
	v7h-7V7.2z M58.2,14.5h7v7h-7V14.5z M58.2,21.8h7v7h-7V21.8z M58.2,29h7v7h-7V29z M58.2,36.3h7v7h-7V36.3z M58.2,43.6h7v7h-7V43.6z
	 M58.2,50.8h7v7h-7V50.8z M58.2,58.1h7v7h-7V58.1z M58.2,65.3h7v7h-7V65.3z M58.2,72.6h7v7h-7V72.6z M58.2,79.9h7v7h-7V79.9z
	 M58.2,87.1h7v7h-7V87.1z M58.2,94.4h7v7h-7V94.4z M65.5,0h7v7h-7V0z M65.5,7.2h7v7h-7V7.2z M65.5,14.5h7v7h-7V14.5z M65.5,21.8h7v7
	h-7V21.8z M65.5,29h7v7h-7V29z M65.5,36.3h7v7h-7V36.3z M65.5,43.6h7v7h-7V43.6z M65.5,50.8h7v7h-7V50.8z M65.5,58.1h7v7h-7V58.1z
	 M65.5,65.3h7v7h-7V65.3z M65.5,72.6h7v7h-7V72.6z M65.5,79.9h7v7h-7V79.9z M65.5,87.1h7v7h-7V87.1z M65.5,94.4h7v7h-7V94.4z
	 M72.7,0h7v7h-7V0z M72.7,7.2h7v7h-7V7.2z M72.7,14.5h7v7h-7V14.5z M72.7,21.8h7v7h-7V21.8z M72.7,29h7v7h-7V29z M72.7,36.3h7v7h-7
	V36.3z M72.7,43.6h7v7h-7V43.6z M72.7,50.8h7v7h-7V50.8z M72.7,58.1h7v7h-7V58.1z M72.7,65.3h7v7h-7V65.3z M72.7,72.6h7v7h-7V72.6z
	 M72.7,79.9h7v7h-7V79.9z M72.7,87.1h7v7h-7V87.1z M72.7,94.4h7v7h-7V94.4z M80,0h7v7h-7V0z M80,7.2h7v7h-7V7.2z M80,14.5h7v7h-7
	V14.5z M80,21.8h7v7h-7V21.8z M80,29h7v7h-7V29z M80,36.3h7v7h-7V36.3z M80,43.6h7v7h-7V43.6z M80,50.8h7v7h-7V50.8z M80,58.1h7v7
	h-7V58.1z M80,65.3h7v7h-7V65.3z M80,72.6h7v7h-7V72.6z M80,79.9h7v7h-7V79.9z M80,87.1h7v7h-7V87.1z M80,94.4h7v7h-7V94.4z M87.2,0
	h7v7h-7V0z M87.2,7.2h7v7h-7V7.2z M87.2,14.5h7v7h-7V14.5z M87.2,21.8h7v7h-7V21.8z M87.2,29h7v7h-7V29z M87.2,36.3h7v7h-7V36.3z
	 M87.2,43.6h7v7h-7V43.6z M87.2,50.8h7v7h-7V50.8z M87.2,58.1h7v7h-7V58.1z M87.2,65.3h7v7h-7V65.3z M87.2,72.6h7v7h-7V72.6z
	 M87.2,79.9h7v7h-7V79.9z M87.2,87.1h7v7h-7V87.1z M87.2,94.4h7v7h-7V94.4z M94.5,0h7v7h-7V0z M94.5,7.2h7v7h-7V7.2z M94.5,14.5h7v7
	h-7V14.5z M94.5,21.8h7v7h-7V21.8z M94.5,29h7v7h-7V29z M94.5,36.3h7v7h-7V36.3z M94.5,43.6h7v7h-7V43.6z M94.5,50.8h7v7h-7V50.8z
	 M94.5,58.1h7v7h-7V58.1z M94.5,65.3h7v7h-7V65.3z M94.5,72.6h7v7h-7V72.6z M94.5,79.9h7v7h-7V79.9z M94.5,87.1h7v7h-7V87.1z
	 M94.5,94.4h7v7h-7V94.4z"/>
</svg>
