<?xml version="1.0" encoding="utf-8"?>
<!-- Generator: Adobe Illustrator 27.3.1, SVG Export Plug-In . SVG Version: 6.00 Build 0)  -->
<svg version="1.1" id="Слой_1" xmlns="http://www.w3.org/2000/svg" xmlns:xlink="http://www.w3.org/1999/xlink" x="0px" y="0px"
	 viewBox="0 0 442.6 137.6" style="enable-background:new 0 0 442.6 137.6;" xml:space="preserve">
<style type="text/css">
	.st0{display:none;}
	.st1{fill:#1E0E01;}
</style>
<g id="Слой_2_00000164506391906522692940000000516825196343956667_" class="st0">
</g>
<g id="Слой_1_00000056400078436433676260000018330890963915916423_">
</g>
<path class="st1" d="M0,87.1h7v7H0V87.1z M0,94.4h7v7H0V94.4z M0,101.6h7v7H0V101.6z M0,108.9h7v7H0V108.9z M7.3,79.8h7v7h-7V79.8z
	 M7.3,116.1h7v7h-7V116.1z M14.5,72.6h7v7h-7V72.6z M14.5,94.4h7v7h-7V94.4z M14.5,108.9h7v7h-7V108.9z M14.5,123.4h7v7h-7V123.4z
	 M21.8,72.6h7v7h-7V72.6z M21.8,116.1h7v7h-7V116.1z M21.8,130.6h7v7h-7V130.6z M29.1,130.6h7v7h-7
	C29.1,137.6,29.1,130.6,29.1,130.6z M29.1,72.6h7v7h-7C29.1,79.6,29.1,72.6,29.1,72.6z M29.1,101.6h7v7h-7
	C29.1,108.6,29.1,101.6,29.1,101.6z M29.1,123.4h7v7h-7C29.1,130.4,29.1,123.4,29.1,123.4z M36.3,65.3h7v7h-7V65.3z M36.3,108.9h7v7
	h-7V108.9z M36.3,130.6h7v7h-7V130.6z M43.6,65.3h7v7h-7V65.3z M43.6,101.6h7v7h-7V101.6z M43.6,123.4h7v7h-7V123.4z M50.9,123.4h7
	v7h-7V123.4z M50.8,43.5h7v7h-7V43.5z M50.8,50.8h7v7h-7V50.8z M50.8,58.1h7v7h-7V58.1z M50.8,108.9h7v7h-7V108.9z M50.8,116.1h7v7
	h-7V116.1z M58.1,29h7v7h-7V29z M58.1,36.3h7v7h-7V36.3z M58.1,101.6h7v7h-7V101.6z M58.1,123.4h7v7h-7V123.4z M65.4,29h7v7h-7V29z
	 M65.4,58.1h7v7h-7V58.1z M65.4,94.4h7v7h-7V94.4z M65.4,108.9h7v7h-7V108.9z M65.4,130.6h7v7h-7V130.6z M72.6,21.7h7v7h-7V21.7z
	 M72.6,50.8h7v7h-7V50.8z M72.6,65.3h7v7h-7V65.3z M72.6,87.1h7v7h-7V87.1z M72.6,101.6h7v7h-7V101.6z M72.6,116.1h7v7h-7V116.1z
	 M72.6,130.6h7v7h-7V130.6z M79.9,14.5h7v7h-7V14.5z M79.9,58.1h7v7h-7V58.1z M79.9,94.4h7v7h-7V94.4z M79.9,108.9h7v7h-7V108.9z
	 M79.9,130.6h7v7h-7V130.6z M87.1,14.5h7v7h-7V14.5z M87.1,50.8h7v7h-7V50.8z M87.1,65.3h7v7h-7V65.3z M87.1,101.6h7v7h-7V101.6z
	 M87.1,116.1h7v7h-7V116.1z M87.1,130.6h7v7h-7V130.6z M94.4,14.5h7v7h-7V14.5z M94.4,58.1h7v7h-7V58.1z M94.4,79.8h7v7h-7V79.8z
	 M94.4,130.6h7v7h-7V130.6z M101.7,130.6h7v7h-7V130.6z M101.7,21.7h7v7h-7V21.7z M101.7,65.3h7v7h-7V65.3z M101.7,79.8h7v7h-7V79.8
	z M101.7,101.6h7v7h-7V101.6z M101.7,123.4h7v7h-7V123.4z M108.9,21.7h7v7h-7V21.7z M108.9,58.1h7v7h-7V58.1z M108.9,79.8h7v7h-7
	V79.8z M108.9,87.1h7v7h-7V87.1z M108.9,116.1h7v7h-7V116.1z M108.9,130.6h7v7h-7V130.6z M116.2,29h7v7h-7V29z M116.2,50.8h7v7h-7
	V50.8z M116.2,65.3h7v7h-7V65.3z M116.2,87.1h7v7h-7V87.1z M116.2,94.4h7v7h-7V94.4z M116.2,108.9h7v7h-7V108.9z M116.2,123.4h7v7
	h-7V123.4z M123.4,29h7v7h-7C123.4,36,123.4,29,123.4,29z M123.4,58.1h7v7h-7C123.4,65.1,123.4,58.1,123.4,58.1z M123.4,72.6h7v7h-7
	C123.4,79.6,123.4,72.6,123.4,72.6z M123.4,87.1h7v7h-7C123.4,94.1,123.4,87.1,123.4,87.1z M123.4,108.9h7v7h-7
	C123.4,115.9,123.4,108.9,123.4,108.9z M123.4,130.6h7v7h-7C123.4,137.6,123.4,130.6,123.4,130.6z M130.7,130.6h7v7h-7V130.6z
	 M130.7,21.7h7v7h-7V21.7z M130.7,36.3h7v7h-7V36.3z M138,36.3h7v7h-7V36.3z M130.7,65.3h7v7h-7V65.3z M130.7,79.8h7v7h-7V79.8z
	 M130.7,101.6h7v7h-7V101.6z M130.7,108.9h7v7h-7V108.9z M130.7,123.4h7v7h-7V123.4z M138,14.5h7v7h-7V14.5z M145.3,14.5h7v7h-7
	V14.5z M138,58.1h7v7h-7V58.1z M138,94.4h7v7h-7V94.4z M138,108.9h7v7h-7V108.9z M138,130.6h7v7h-7V130.6z M145.3,130.6h7v7h-7
	V130.6z M145.2,21.7h7v7h-7V21.7z M145.2,36.3h7v7h-7V36.3z M145.2,65.3h7v7h-7V65.3z M145.2,72.6h7v7h-7V72.6z M145.2,101.6h7v7h-7
	V101.6z M145.2,116.1h7v7h-7V116.1z M152.5,14.5h7v7h-7V14.5z M152.5,116.1h7v7h-7V116.1z M152.5,130.6h7v7h-7V130.6z M159.7,21.7h7
	v7h-7V21.7z M159.7,65.3h7v7h-7V65.3z M159.7,108.9h7v7h-7V108.9z M159.7,123.4h7v7h-7V123.4z M167,65.3h7v7h-7V65.3z M167,101.6h7
	v7h-7V101.6z M167,116.1h7v7h-7V116.1z M167,130.6h7v7h-7V130.6z M174.3,58.1h7v7h-7V58.1z M174.3,94.4h7v7h-7V94.4z M174.3,123.4h7
	v7h-7V123.4z M181.6,123.4h7v7h-7V123.4z M181.5,14.5h7v7h-7V14.5z M196,14.5h7v7h-7V14.5z M210.5,14.5h7v7h-7V14.5z M181.5,50.8h7
	v7h-7V50.8z M181.5,101.6h7v7h-7V101.6z M181.5,116.1h7v7h-7V116.1z M188.8,43.5h7v7h-7V43.5z M188.8,94.4h7v7h-7V94.4z
	 M188.8,108.9h7v7h-7V108.9z M188.8,123.4h7v7h-7V123.4z M196,50.8h7v7h-7V50.8z M196,87.1h7v7h-7V87.1z M196,101.6h7v7h-7V101.6z
	 M196,116.1h7v7h-7V116.1z M203.3,116.1h7v7h-7V116.1z M203.3,43.5h7v7h-7V43.5z M203.3,108.9h7v7h-7V108.9z M210.6,36.3h7v7h-7
	V36.3z M210.6,50.8h7v7h-7V50.8z M210.6,94.4h7v7h-7V94.4z M210.6,116.1h7v7h-7V116.1z M217.8,43.5h7v7h-7V43.5z M217.8,108.9h7v7
	h-7V108.9z M217.8,123.4h7v7h-7V123.4z M225.1,14.5h7v7h-7V14.5z M225.1,36.3h7v7h-7V36.3z M225.1,58.1h7v7h-7V58.1z M225.1,87.1h7
	v7h-7V87.1z M225.1,94.4h7v7h-7V94.4z M225.1,116.1h7v7h-7V116.1z M225.1,130.6h7v7h-7V130.6z M232.4,130.6h7v7h-7V130.6z M232.3,29
	h7v7h-7V29z M232.3,50.8h7v7h-7V50.8z M232.3,58.1h7v7h-7V58.1z M232.3,108.9h7v7h-7V108.9z M232.3,123.4h7v7h-7V123.4z M239.6,21.7
	h7v7h-7V21.7z M239.6,36.3h7v7h-7V36.3z M239.6,50.8h7v7h-7V50.8z M239.6,94.4h7v7h-7V94.4z M239.6,116.1h7v7h-7V116.1z
	 M239.6,130.6h7v7h-7V130.6z M246.9,130.6h7v7h-7V130.6z M246.9,14.5h7v7h-7V14.5z M246.9,29h7v7h-7V29z M246.9,43.5h7v7h-7V43.5z
	 M246.9,50.8h7v7h-7V50.8z M246.9,87.1h7v7h-7V87.1z M246.9,108.9h7v7h-7V108.9z M246.9,123.4h7v7h-7V123.4z M254.1,14.5h7v7h-7
	V14.5z M159.8,7.3h7v7h-7V7.3z M167,7.3h7v7h-7V7.3z M174.3,7.3h7v7h-7V7.3z M188.8,7.3h7v7h-7V7.3z M203.3,7.3h7v7h-7V7.3z
	 M217.8,7.3h7v7h-7V7.3z M232.3,7.3h7v7h-7V7.3z M239.6,7.3h7v7h-7V7.3z M181.5,0h7v7h-7V0z M188.8,0h7v7h-7V0z M196,0h7v7h-7V0z
	 M203.3,0h7v7h-7V0z M210.5,0h7v7h-7V0z M217.8,0h7v7h-7V0z M225.1,0h7v7h-7V0z M254.1,21.7h7v7h-7V21.7z M254.1,36.3h7v7h-7V36.3z
	 M254.1,43.5h7v7h-7V43.5z M254.1,58.1h7v7h-7V58.1z M254.1,130.6h7v7h-7V130.6z M261.4,14.5h7v7h-7V14.5z M261.4,29h7v7h-7V29z
	 M261.4,36.3h7v7h-7V36.3z M261.4,50.8h7v7h-7V50.8z M261.4,123.4h7v7h-7V123.4z M268.6,21.7h7v7h-7V21.7z M268.6,29h7v7h-7V29z
	 M268.6,58.1h7v7h-7V58.1z M268.6,94.4h7v7h-7V94.4z M268.6,116.1h7v7h-7V116.1z M268.6,130.6h7v7h-7V130.6z M275.9,130.6h7v7h-7
	V130.6z M275.9,21.7h7v7h-7V21.7z M275.9,50.8h7v7h-7V50.8z M275.9,87.1h7v7h-7V87.1z M275.9,123.4h7v7h-7V123.4z M283.2,21.7h7v7
	h-7V21.7z M283.2,43.5h7v7h-7V43.5z M283.2,94.4h7v7h-7V94.4z M283.2,116.1h7v7h-7V116.1z M283.2,130.6h7v7h-7V130.6z M290.4,14.5h7
	v7h-7V14.5z M290.4,36.3h7v7h-7V36.3z M290.4,87.1h7v7h-7V87.1z M290.4,123.4h7v7h-7V123.4z M297.7,14.5h7v7h-7V14.5z M297.7,94.4h7
	v7h-7V94.4z M297.7,130.6h7v7h-7V130.6z M305,130.6h7v7h-7V130.6z M304.9,14.5h7v7h-7V14.5z M304.9,29h7v7h-7V29z M304.9,50.8h7v7
	h-7V50.8z M304.9,108.9h7v7h-7V108.9z M304.9,123.4h7v7h-7V123.4z M312.2,14.5h7v7h-7V14.5z M312.2,43.5h7v7h-7V43.5z M312.2,94.4h7
	v7h-7V94.4z M312.2,116.1h7v7h-7V116.1z M312.2,130.6h7v7h-7V130.6z M319.5,130.6h7v7h-7V130.6z M326.7,130.6h7v7h-7V130.6z
	 M319.5,14.5h7v7h-7V14.5z M319.5,50.8h7v7h-7V50.8z M319.5,72.6h7v7h-7V72.6z M319.5,87.1h7v7h-7V87.1z M319.5,101.6h7v7h-7V101.6z
	 M319.5,116.1h7v7h-7V116.1z M326.7,14.5h7v7h-7V14.5z M326.7,29h7v7h-7V29z M326.7,43.5h7v7h-7V43.5z M326.7,79.8h7v7h-7V79.8z
	 M326.7,94.4h7v7h-7V94.4z M326.7,108.9h7v7h-7V108.9z M326.7,123.4h7v7h-7V123.4z M334,14.5h7v7h-7V14.5z M334,29h7v7h-7V29z
	 M334,50.8h7v7h-7V50.8z M334,87.1h7v7h-7V87.1z M334,101.6h7v7h-7V101.6z M334,116.1h7v7h-7V116.1z M334,130.6h7v7h-7V130.6z
	 M341.2,21.7h7v7h-7V21.7z M341.2,43.5h7v7h-7V43.5z M341.2,123.4h7v7h-7V123.4z M348.5,21.7h7v7h-7V21.7z M348.5,36.3h7v7h-7V36.3z
	 M348.5,43.5h7v7h-7V43.5z M348.5,50.8h7v7h-7V50.8z M348.5,72.6h7v7h-7V72.6z M348.5,94.4h7v7h-7V94.4z M348.5,108.9h7v7h-7V108.9z
	 M348.5,123.4h7v7h-7V123.4z M355.8,29h7v7h-7V29z M355.8,50.8h7v7h-7V50.8z M355.8,58.1h7v7h-7V58.1z M355.8,65.3h7v7h-7V65.3z
	 M355.8,116.1h7v7h-7V116.1z M355.8,130.6h7v7h-7V130.6z M363,36.3h7v7h-7V36.3z M363,58.1h7v7h-7V58.1z M363,94.4h7v7h-7V94.4z
	 M363,108.9h7v7h-7V108.9z M363,123.4h7v7h-7V123.4z M370.3,43.5h7v7h-7V43.5z M370.3,50.8h7v7h-7V50.8z M370.3,58.1h7v7h-7V58.1z
	 M370.3,123.4h7v7h-7V123.4z M377.5,58.1h7v7h-7V58.1z M377.5,116.1h7v7h-7V116.1z M377.5,130.6h7v7h-7V130.6z M384.8,58.1h7v7h-7
	V58.1z M384.8,87.1h7v7h-7V87.1z M384.8,101.6h7v7h-7V101.6z M384.8,123.4h7v7h-7V123.4z M392.1,58.1h7v7h-7V58.1z M392.1,108.9h7v7
	h-7V108.9z M399.3,58.1h7v7h-7V58.1z M399.3,65.3h7v7h-7V65.3z M399.3,87.1h7v7h-7V87.1z M399.3,101.6h7v7h-7V101.6z M399.3,116.1h7
	v7h-7V116.1z M399.3,130.6h7v7h-7V130.6z M406.6,130.6h7v7h-7V130.6z M406.6,65.3h7v7h-7V65.3z M406.6,79.8h7v7h-7V79.8z
	 M406.6,94.4h7v7h-7V94.4z M406.6,123.4h7v7h-7V123.4z M413.8,72.6h7v7h-7V72.6z M413.8,87.1h7v7h-7V87.1z M413.8,101.6h7v7h-7
	V101.6z M413.8,130.6h7v7h-7V130.6z M421.1,79.8h7v7h-7V79.8z M421.1,94.4h7v7h-7V94.4z M421.1,130.6h7v7h-7V130.6z M428.4,87.1h7v7
	h-7V87.1z M428.4,123.4h7v7h-7V123.4z M435.6,94.4h7v7h-7V94.4z M435.6,101.6h7v7h-7V101.6z M435.6,108.9h7v7h-7V108.9z
	 M435.6,116.1h7v7h-7V116.1z M138,43.5h7v7h-7V43.5z M145.2,43.5h7v7h-7V43.5z M123.4,36.3h7v7h-7C123.4,43.3,123.4,36.3,123.4,36.3
	z M152.4,43.5h7v7h-7V43.5z"/>
</svg>
