<?xml version="1.0" encoding="utf-8"?>
<!-- Generator: Adobe Illustrator 27.3.1, SVG Export Plug-In . SVG Version: 6.00 Build 0)  -->
<svg version="1.1" id="Слой_1" xmlns="http://www.w3.org/2000/svg" xmlns:xlink="http://www.w3.org/1999/xlink" x="0px" y="0px"
	 viewBox="0 0 1001.7 65.1" style="enable-background:new 0 0 1001.7 65.1;" xml:space="preserve">
<style type="text/css">
	.st0{fill:#1E0E01;}
</style>
<g id="Слой_2_00000119104651623496210160000012224944478735318964_">
</g>
<g id="Слой_1_00000173131056064510046300000012164248116552135343_">
</g>
<path class="st0" d="M0,7.3h7v7H0V7.3z M0,14.5h7v7H0V14.5z M0,21.8h7v7H0V21.8z M0,29.1h7v7H0V29.1z M0,36.3h7v7H0V36.3z M0,43.6h7
	v7H0V43.6z M0,50.8h7v7H0V50.8z M7.3,7.3h7v7h-7V7.3z M7.3,14.5h7v7h-7V14.5z M7.3,21.8h7v7h-7V21.8z M7.3,29.1h7v7h-7V29.1z
	 M7.3,43.6h7v7h-7V43.6z M7.3,58.1h7v7h-7V58.1z M14.5,7.3h7v7h-7V7.3z M14.5,14.5h7v7h-7V14.5z M14.5,21.8h7v7h-7V21.8z M14.5,29.1
	h7v7h-7V29.1z M14.5,36.3h7v7h-7V36.3z M14.5,43.6h7v7h-7V43.6z M14.5,50.8h7v7h-7V50.8z M21.8,7.3h7v7h-7V7.3z M21.8,14.5h7v7h-7
	V14.5z M21.8,21.8h7v7h-7V21.8z M21.8,29.1h7v7h-7V29.1z M21.8,36.3h7v7h-7V36.3z M21.8,43.6h7v7h-7V43.6z M21.8,58.1h7v7h-7V58.1z
	 M36.3,29.1h7v7h-7V29.1z M36.3,36.3h7v7h-7V36.3z M36.3,43.6h7v7h-7V43.6z M36.3,58.1h7v7h-7V58.1z M29.1,7.3h7v7h-7V7.3z
	 M29.1,14.5h7v7h-7V14.5z M29.1,21.8h7v7h-7V21.8z M29.1,36.3h7v7h-7V36.3z M29.1,43.6h7v7h-7V43.6z M29.1,50.8h7v7h-7V50.8z
	 M36.3,7.3h7v7h-7V7.3z M36.3,14.5h7v7h-7V14.5z M36.3,21.8h7v7h-7V21.8z M43.6,7.3h7v7h-7V7.3z M43.6,14.5h7v7h-7V14.5z M43.6,21.8
	h7v7h-7V21.8z M50.8,7.3h7v7h-7V7.3z M50.8,14.5h7v7h-7V14.5z M50.8,21.8h7v7h-7V21.8z M58.1,7.3h7v7h-7V7.3z M58.1,14.5h7v7h-7
	V14.5z M58.1,21.8h7v7h-7V21.8z M65.4,7.3h7v7h-7V7.3z M65.4,14.5h7v7h-7V14.5z M65.4,21.8h7v7h-7V21.8z M72.6,7.3h7v7h-7V7.3z
	 M72.6,14.5h7v7h-7V14.5z M72.6,21.8h7v7h-7V21.8z M79.9,7.3h7v7h-7V7.3z M79.9,14.5h7v7h-7V14.5z M79.9,21.8h7v7h-7V21.8z
	 M87.1,7.3h7v7h-7V7.3z M87.1,14.5h7v7h-7V14.5z M87.1,21.8h7v7h-7V21.8z M94.4,7.3h7v7h-7V7.3z M94.4,14.5h7v7h-7V14.5z M94.4,21.8
	h7v7h-7V21.8z M101.7,7.3h7v7h-7V7.3z M101.7,14.5h7v7h-7V14.5z M101.7,21.8h7v7h-7V21.8z M108.9,7.3h7v7h-7V7.3z M108.9,14.5h7v7
	h-7V14.5z M108.9,21.8h7v7h-7V21.8z M116.2,7.3h7v7h-7V7.3z M116.2,14.5h7v7h-7V14.5z M116.2,21.8h7v7h-7V21.8z M123.4,7.3h7v7h-7
	V7.3z M123.4,14.5h7v7h-7V14.5z M123.4,21.8h7v7h-7V21.8z M130.7,7.3h7v7h-7V7.3z M130.7,14.5h7v7h-7V14.5z M130.7,21.8h7v7h-7V21.8
	z M138,7.3h7v7h-7V7.3z M138,14.5h7v7h-7V14.5z M138,21.8h7v7h-7V21.8z M145.2,7.3h7v7h-7V7.3z M145.2,14.5h7v7h-7V14.5z
	 M145.2,21.8h7v7h-7V21.8z M152.5,7.3h7v7h-7V7.3z M152.5,14.5h7v7h-7V14.5z M152.5,21.8h7v7h-7V21.8z M159.7,7.3h7v7h-7V7.3z
	 M159.7,14.5h7v7h-7V14.5z M159.7,21.8h7v7h-7V21.8z M167,7.3h7v7h-7V7.3z M167,14.5h7v7h-7V14.5z M167,21.8h7v7h-7V21.8z
	 M174.3,7.3h7v7h-7V7.3z M174.3,14.5h7v7h-7V14.5z M174.3,21.8h7v7h-7V21.8z M181.5,7.3h7v7h-7V7.3z M181.5,14.5h7v7h-7V14.5z
	 M181.5,21.8h7v7h-7V21.8z M188.8,7.3h7v7h-7V7.3z M188.8,14.5h7v7h-7V14.5z M188.8,21.8h7v7h-7V21.8z M196,7.3h7v7h-7V7.3z
	 M196,14.5h7v7h-7V14.5z M196,21.8h7v7h-7V21.8z M203.3,7.3h7v7h-7V7.3z M203.3,14.5h7v7h-7V14.5z M203.3,21.8h7v7h-7V21.8z
	 M210.6,7.3h7v7h-7V7.3z M210.6,14.5h7v7h-7V14.5z M210.6,21.8h7v7h-7V21.8z M217.8,7.3h7v7h-7V7.3z M217.8,14.5h7v7h-7V14.5z
	 M217.8,21.8h7v7h-7V21.8z M225.1,7.3h7v7h-7V7.3z M225.1,14.5h7v7h-7V14.5z M225.1,21.8h7v7h-7V21.8z M232.3,7.3h7v7h-7V7.3z
	 M232.3,14.5h7v7h-7V14.5z M232.3,21.8h7v7h-7V21.8z M239.6,7.3h7v7h-7V7.3z M239.6,14.5h7v7h-7V14.5z M239.6,21.8h7v7h-7V21.8z
	 M246.9,7.3h7v7h-7V7.3z M246.9,14.5h7v7h-7V14.5z M246.9,21.8h7v7h-7V21.8z M254.1,7.3h7v7h-7V7.3z M254.1,14.5h7v7h-7V14.5z
	 M254.1,21.8h7v7h-7V21.8z M261.4,7.3h7v7h-7V7.3z M261.4,14.5h7v7h-7V14.5z M261.4,21.8h7v7h-7V21.8z M268.6,7.3h7v7h-7V7.3z
	 M268.6,14.5h7v7h-7V14.5z M268.6,21.8h7v7h-7V21.8z M275.9,14.5h7v7h-7V14.5z M275.9,21.8h7v7h-7V21.8z M283.2,14.5h7v7h-7V14.5z
	 M283.2,21.8h7v7h-7V21.8z M290.4,14.5h7v7h-7V14.5z M290.4,21.8h7v7h-7V21.8z M297.7,14.5h7v7h-7V14.5z M297.7,21.8h7v7h-7V21.8z
	 M304.9,14.5h7v7h-7V14.5z M304.9,21.8h7v7h-7V21.8z M312.2,14.5h7v7h-7V14.5z M312.2,21.8h7v7h-7V21.8z M319.5,7.3h7v7h-7V7.3z
	 M319.5,14.5h7v7h-7V14.5z M319.5,21.8h7v7h-7V21.8z M326.7,7.3h7v7h-7V7.3z M326.7,14.5h7v7h-7V14.5z M326.7,21.8h7v7h-7V21.8z
	 M334,7.3h7v7h-7V7.3z M334,14.5h7v7h-7V14.5z M334,21.8h7v7h-7V21.8z M341.2,7.3h7v7h-7V7.3z M341.2,14.5h7v7h-7V14.5z M341.2,21.8
	h7v7h-7V21.8z M348.5,7.3h7v7h-7V7.3z M348.5,14.5h7v7h-7V14.5z M348.5,21.8h7v7h-7V21.8z M355.8,7.3h7v7h-7V7.3z M355.8,14.5h7v7
	h-7V14.5z M355.8,21.8h7v7h-7V21.8z M363,7.3h7v7h-7V7.3z M363,14.5h7v7h-7V14.5z M363,21.8h7v7h-7V21.8z M370.3,7.3h7v7h-7V7.3z
	 M370.3,14.5h7v7h-7V14.5z M370.3,21.8h7v7h-7V21.8z M377.5,7.3h7v7h-7V7.3z M377.5,14.5h7v7h-7V14.5z M377.5,21.8h7v7h-7V21.8z
	 M384.8,7.3h7v7h-7V7.3z M384.8,14.5h7v7h-7V14.5z M384.8,21.8h7v7h-7V21.8z M392.1,7.3h7v7h-7V7.3z M392.1,14.5h7v7h-7V14.5z
	 M392.1,21.8h7v7h-7V21.8z M399.3,7.3h7v7h-7V7.3z M399.3,14.5h7v7h-7V14.5z M399.3,21.8h7v7h-7V21.8z M406.6,7.3h7v7h-7V7.3z
	 M406.6,14.5h7v7h-7V14.5z M406.6,21.8h7v7h-7V21.8z M413.8,7.3h7v7h-7V7.3z M413.8,14.5h7v7h-7V14.5z M413.8,21.8h7v7h-7V21.8z
	 M421.1,7.3h7v7h-7V7.3z M421.1,14.5h7v7h-7V14.5z M421.1,21.8h7v7h-7V21.8z M428.4,7.3h7v7h-7V7.3z M428.4,14.5h7v7h-7V14.5z
	 M428.4,21.8h7v7h-7V21.8z M435.6,7.3h7v7h-7V7.3z M435.6,14.5h7v7h-7V14.5z M435.6,21.8h7v7h-7V21.8z M442.9,7.3h7v7h-7V7.3z
	 M442.9,14.5h7v7h-7V14.5z M442.9,21.8h7v7h-7V21.8z M450.1,7.3h7v7h-7V7.3z M450.1,14.5h7v7h-7V14.5z M450.1,21.8h7v7h-7V21.8z
	 M457.4,7.3h7v7h-7V7.3z M457.4,14.5h7v7h-7V14.5z M457.4,21.8h7v7h-7V21.8z M464.7,7.3h7v7h-7V7.3z M464.7,14.5h7v7h-7V14.5z
	 M464.7,21.8h7v7h-7V21.8z M471.9,7.3h7v7h-7V7.3z M471.9,14.5h7v7h-7V14.5z M471.9,21.8h7v7h-7V21.8z M479.2,7.3h7v7h-7V7.3z
	 M479.2,14.5h7v7h-7V14.5z M479.2,21.8h7v7h-7V21.8z M486.4,7.3h7v7h-7V7.3z M486.4,14.5h7v7h-7V14.5z M486.4,21.8h7v7h-7V21.8z
	 M493.7,7.3h7v7h-7V7.3z M493.7,14.5h7v7h-7V14.5z M493.7,21.8h7v7h-7V21.8z M501,7.3h7v7h-7V7.3z M501,14.5h7v7h-7V14.5z M501,21.8
	h7v7h-7V21.8z M508.2,7.3h7v7h-7V7.3z M508.2,14.5h7v7h-7V14.5z M508.2,21.8h7v7h-7V21.8z M515.5,7.3h7v7h-7V7.3z M515.5,14.5h7v7
	h-7V14.5z M515.5,21.8h7v7h-7V21.8z M522.7,7.3h7v7h-7V7.3z M522.7,14.5h7v7h-7V14.5z M522.7,21.8h7v7h-7V21.8z M530,7.3h7v7h-7V7.3
	z M530,14.5h7v7h-7V14.5z M530,21.8h7v7h-7V21.8z M537.3,7.3h7v7h-7V7.3z M522.7,0h7v7h-7V0z M530,0h7v7h-7V0z M537.3,0h7v7h-7V0z
	 M537.3,14.5h7v7h-7V14.5z M537.3,21.8h7v7h-7V21.8z M544.5,7.3h7v7h-7V7.3z M544.5,14.5h7v7h-7V14.5z M544.5,21.8h7v7h-7V21.8z
	 M551.8,7.3h7v7h-7V7.3z M551.8,14.5h7v7h-7V14.5z M551.8,21.8h7v7h-7V21.8z M559,7.3h7v7h-7V7.3z M559,14.5h7v7h-7V14.5z M559,21.8
	h7v7h-7V21.8z M566.3,7.3h7v7h-7V7.3z M566.3,14.5h7v7h-7V14.5z M566.3,21.8h7v7h-7V21.8z M573.6,7.3h7v7h-7V7.3z M573.6,14.5h7v7
	h-7V14.5z M573.6,21.8h7v7h-7V21.8z M580.8,7.3h7v7h-7V7.3z M580.8,14.5h7v7h-7V14.5z M580.8,21.8h7v7h-7V21.8z M588.1,7.3h7v7h-7
	V7.3z M588.1,14.5h7v7h-7V14.5z M588.1,21.8h7v7h-7V21.8z M595.3,7.3h7v7h-7V7.3z M595.3,14.5h7v7h-7V14.5z M595.3,21.8h7v7h-7V21.8
	z M602.6,7.3h7v7h-7V7.3z M602.6,14.5h7v7h-7V14.5z M602.6,21.8h7v7h-7V21.8z M609.9,7.3h7v7h-7V7.3z M609.9,14.5h7v7h-7V14.5z
	 M609.9,21.8h7v7h-7V21.8z M617.1,7.3h7v7h-7V7.3z M617.1,14.5h7v7h-7V14.5z M617.1,21.8h7v7h-7V21.8z M624.4,7.3h7v7h-7V7.3z
	 M624.4,14.5h7v7h-7V14.5z M624.4,21.8h7v7h-7V21.8z M631.6,7.3h7v7h-7V7.3z M631.6,14.5h7v7h-7V14.5z M631.6,21.8h7v7h-7V21.8z
	 M638.9,7.3h7v7h-7V7.3z M638.9,14.5h7v7h-7V14.5z M638.9,21.8h7v7h-7V21.8z M646.2,7.3h7v7h-7V7.3z M646.2,14.5h7v7h-7V14.5z
	 M646.2,21.8h7v7h-7V21.8z M653.4,7.3h7v7h-7V7.3z M653.4,14.5h7v7h-7V14.5z M653.4,21.8h7v7h-7V21.8z M660.7,7.3h7v7h-7V7.3z
	 M660.7,14.5h7v7h-7V14.5z M660.7,21.8h7v7h-7V21.8z M667.9,7.3h7v7h-7V7.3z M667.9,14.5h7v7h-7V14.5z M667.9,21.8h7v7h-7V21.8z
	 M675.2,7.3h7v7h-7V7.3z M675.2,14.5h7v7h-7V14.5z M675.2,21.8h7v7h-7V21.8z M682.5,7.3h7v7h-7V7.3z M682.5,14.5h7v7h-7V14.5z
	 M682.5,21.8h7v7h-7V21.8z M689.7,7.3h7v7h-7V7.3z M689.7,14.5h7v7h-7V14.5z M689.7,21.8h7v7h-7V21.8z M697,7.3h7v7h-7V7.3z
	 M697,14.5h7v7h-7V14.5z M697,21.8h7v7h-7V21.8z M704.2,7.3h7v7h-7V7.3z M704.2,14.5h7v7h-7V14.5z M704.2,21.8h7v7h-7V21.8z
	 M711.5,7.3h7v7h-7V7.3z M711.5,14.5h7v7h-7V14.5z M711.5,21.8h7v7h-7V21.8z M718.8,7.3h7v7h-7V7.3z M718.8,14.5h7v7h-7V14.5z
	 M718.8,21.8h7v7h-7V21.8z M726,7.3h7v7h-7V7.3z M726,14.5h7v7h-7V14.5z M726,21.8h7v7h-7V21.8z M733.3,7.3h7v7h-7V7.3z M733.3,14.5
	h7v7h-7V14.5z M733.3,21.8h7v7h-7V21.8z M740.5,7.3h7v7h-7V7.3z M740.5,14.5h7v7h-7V14.5z M740.5,21.8h7v7h-7V21.8z M747.8,7.3h7v7
	h-7V7.3z M747.8,14.5h7v7h-7V14.5z M747.8,21.8h7v7h-7V21.8z M755.1,7.3h7v7h-7V7.3z M755.1,14.5h7v7h-7V14.5z M755.1,21.8h7v7h-7
	V21.8z M762.3,14.5h7v7h-7V14.5z M762.3,21.8h7v7h-7V21.8z M769.6,14.5h7v7h-7V14.5z M769.6,21.8h7v7h-7V21.8z M776.8,14.5h7v7h-7
	V14.5z M776.8,21.8h7v7h-7V21.8z M784.1,7.3h7v7h-7V7.3z M784.1,14.5h7v7h-7V14.5z M784.1,21.8h7v7h-7V21.8z M791.4,7.3h7v7h-7V7.3z
	 M791.4,14.5h7v7h-7V14.5z M791.4,21.8h7v7h-7V21.8z M798.6,7.3h7v7h-7V7.3z M798.6,14.5h7v7h-7V14.5z M798.6,21.8h7v7h-7V21.8z
	 M805.9,7.3h7v7h-7V7.3z M805.9,14.5h7v7h-7V14.5z M805.9,21.8h7v7h-7V21.8z M813.1,7.3h7v7h-7V7.3z M813.1,14.5h7v7h-7V14.5z
	 M813.1,21.8h7v7h-7V21.8z M820.4,7.3h7v7h-7V7.3z M820.4,14.5h7v7h-7V14.5z M820.4,21.8h7v7h-7V21.8z M827.7,7.3h7v7h-7V7.3z
	 M827.7,14.5h7v7h-7V14.5z M827.7,21.8h7v7h-7V21.8z M834.9,7.3h7v7h-7V7.3z M834.9,14.5h7v7h-7V14.5z M834.9,21.8h7v7h-7V21.8z
	 M842.2,7.3h7v7h-7V7.3z M842.2,14.5h7v7h-7V14.5z M842.2,21.8h7v7h-7V21.8z M849.4,7.3h7v7h-7V7.3z M849.4,14.5h7v7h-7V14.5z
	 M849.4,21.8h7v7h-7V21.8z M43.6,36.3h7v7h-7V36.3z M43.6,43.6h7v7h-7V43.6z M43.6,50.8h7v7h-7V50.8z M50.9,29.1h7v7h-7V29.1z
	 M50.9,43.6h7v7h-7V43.6z M50.9,58.1h7v7h-7V58.1z M58.1,29.1h7v7h-7V29.1z M58.1,43.6h7v7h-7V43.6z M58.1,50.8h7v7h-7V50.8z
	 M65.4,29.1h7v7h-7V29.1z M65.4,36.3h7v7h-7V36.3z M65.4,58.1h7v7h-7V58.1z M79.9,29.1h7v7h-7V29.1z M79.9,36.3h7v7h-7V36.3z
	 M79.9,43.6h7v7h-7V43.6z M79.9,58.1h7v7h-7V58.1z M72.7,36.3h7v7h-7V36.3z M72.7,43.6h7v7h-7V43.6z M87.1,29.1h7v7h-7V29.1z
	 M87.1,36.3h7v7h-7V36.3z M87.1,43.6h7v7h-7V43.6z M87.1,50.8h7v7h-7V50.8z M94.4,29.1h7v7h-7V29.1z M94.4,43.6h7v7h-7V43.6z
	 M94.4,58.1h7v7h-7V58.1z M101.6,29.1h7v7h-7V29.1z M101.6,36.3h7v7h-7V36.3z M101.6,43.6h7v7h-7V43.6z M101.6,50.8h7v7h-7V50.8z
	 M108.9,29.1h7v7h-7V29.1z M108.9,36.3h7v7h-7V36.3z M108.9,43.6h7v7h-7V43.6z M108.9,58.1h7v7h-7V58.1z M123.4,29.1h7v7h-7V29.1z
	 M123.4,36.3h7v7h-7V36.3z M123.4,43.6h7v7h-7V43.6z M123.4,58.1h7v7h-7V58.1z M116.2,36.3h7v7h-7V36.3z M116.2,43.6h7v7h-7V43.6z
	 M116.2,50.8h7v7h-7V50.8z M130.7,29.1h7v7h-7V29.1z M130.7,36.3h7v7h-7V36.3z M130.7,43.6h7v7h-7V43.6z M130.7,50.8h7v7h-7V50.8z
	 M138,29.1h7v7h-7V29.1z M138,43.6h7v7h-7V43.6z M138,58.1h7v7h-7V58.1z M145.2,29.1h7v7h-7V29.1z M145.2,36.3h7v7h-7V36.3z
	 M145.2,43.6h7v7h-7V43.6z M145.2,50.8h7v7h-7V50.8z M152.5,29.1h7v7h-7V29.1z M152.5,36.3h7v7h-7V36.3z M152.5,43.6h7v7h-7V43.6z
	 M152.5,58.1h7v7h-7V58.1z M167,29.1h7v7h-7V29.1z M167,36.3h7v7h-7V36.3z M167,43.6h7v7h-7V43.6z M167,58.1h7v7h-7V58.1z
	 M159.8,36.3h7v7h-7V36.3z M159.8,43.6h7v7h-7V43.6z M159.8,50.8h7v7h-7V50.8z M174.2,29.1h7v7h-7V29.1z M174.2,36.3h7v7h-7V36.3z
	 M174.2,43.6h7v7h-7V43.6z M174.2,50.8h7v7h-7V50.8z M181.5,29.1h7v7h-7V29.1z M181.5,43.6h7v7h-7V43.6z M181.5,58.1h7v7h-7V58.1z
	 M188.7,29.1h7v7h-7V29.1z M188.7,36.3h7v7h-7V36.3z M188.7,43.6h7v7h-7V43.6z M188.7,50.8h7v7h-7V50.8z M196,29.1h7v7h-7V29.1z
	 M196,36.3h7v7h-7V36.3z M196,43.6h7v7h-7V43.6z M196,58.1h7v7h-7V58.1z M210.6,29.1h7v7h-7V29.1z M210.6,36.3h7v7h-7V36.3z
	 M210.6,43.6h7v7h-7V43.6z M210.6,58.1h7v7h-7V58.1z M203.3,36.3h7v7h-7V36.3z M203.3,43.6h7v7h-7V43.6z M203.3,50.8h7v7h-7V50.8z
	 M217.8,29.1h7v7h-7V29.1z M217.8,36.3h7v7h-7V36.3z M217.8,43.6h7v7h-7V43.6z M217.8,50.8h7v7h-7V50.8z M225.1,29.1h7v7h-7V29.1z
	 M225.1,43.6h7v7h-7V43.6z M225.1,58.1h7v7h-7V58.1z M232.3,29.1h7v7h-7V29.1z M232.3,36.3h7v7h-7V36.3z M232.3,43.6h7v7h-7V43.6z
	 M232.3,50.8h7v7h-7V50.8z M239.6,29.1h7v7h-7V29.1z M239.6,36.3h7v7h-7V36.3z M239.6,43.6h7v7h-7V43.6z M239.6,58.1h7v7h-7V58.1z
	 M254.1,29.1h7v7h-7V29.1z M254.1,36.3h7v7h-7V36.3z M254.1,43.6h7v7h-7V43.6z M254.1,58.1h7v7h-7V58.1z M246.9,36.3h7v7h-7V36.3z
	 M246.9,43.6h7v7h-7V43.6z M246.9,50.8h7v7h-7V50.8z M261.4,29.1h7v7h-7V29.1z M261.4,36.3h7v7h-7V36.3z M261.4,43.6h7v7h-7V43.6z
	 M261.4,50.8h7v7h-7V50.8z M268.7,29.1h7v7h-7V29.1z M268.7,43.6h7v7h-7V43.6z M268.7,58.1h7v7h-7V58.1z M275.9,29.1h7v7h-7V29.1z
	 M275.9,36.3h7v7h-7V36.3z M275.9,43.6h7v7h-7V43.6z M275.9,50.8h7v7h-7V50.8z M283.2,29.1h7v7h-7V29.1z M283.2,36.3h7v7h-7V36.3z
	 M283.2,43.6h7v7h-7V43.6z M283.2,58.1h7v7h-7V58.1z M297.7,29.1h7v7h-7V29.1z M297.7,36.3h7v7h-7V36.3z M297.7,43.6h7v7h-7V43.6z
	 M297.7,58.1h7v7h-7V58.1z M290.5,36.3h7v7h-7V36.3z M290.5,43.6h7v7h-7V43.6z M290.5,50.8h7v7h-7V50.8z M304.9,29.1h7v7h-7V29.1z
	 M304.9,36.3h7v7h-7V36.3z M304.9,43.6h7v7h-7V43.6z M304.9,50.8h7v7h-7V50.8z M312.2,29.1h7v7h-7V29.1z M312.2,43.6h7v7h-7V43.6z
	 M312.2,58.1h7v7h-7V58.1z M319.4,29.1h7v7h-7V29.1z M319.4,36.3h7v7h-7V36.3z M319.4,43.6h7v7h-7V43.6z M319.4,50.8h7v7h-7V50.8z
	 M326.7,29.1h7v7h-7V29.1z M326.7,36.3h7v7h-7V36.3z M326.7,43.6h7v7h-7V43.6z M326.7,58.1h7v7h-7V58.1z M341.2,29.1h7v7h-7V29.1z
	 M341.2,36.3h7v7h-7V36.3z M341.2,43.6h7v7h-7V43.6z M341.2,58.1h7v7h-7V58.1z M334,36.3h7v7h-7V36.3z M334,43.6h7v7h-7V43.6z
	 M334,50.8h7v7h-7V50.8z M348.5,29.1h7v7h-7V29.1z M348.5,36.3h7v7h-7V36.3z M348.5,43.6h7v7h-7V43.6z M348.5,50.8h7v7h-7V50.8z
	 M355.8,29.1h7v7h-7V29.1z M355.8,43.6h7v7h-7V43.6z M355.8,58.1h7v7h-7V58.1z M363,29.1h7v7h-7V29.1z M363,36.3h7v7h-7V36.3z
	 M363,43.6h7v7h-7V43.6z M363,50.8h7v7h-7V50.8z M370.3,29.1h7v7h-7V29.1z M370.3,36.3h7v7h-7V36.3z M370.3,43.6h7v7h-7V43.6z
	 M370.3,58.1h7v7h-7V58.1z M384.8,29.1h7v7h-7V29.1z M384.8,36.3h7v7h-7V36.3z M384.8,43.6h7v7h-7V43.6z M384.8,58.1h7v7h-7V58.1z
	 M377.6,36.3h7v7h-7V36.3z M377.6,43.6h7v7h-7V43.6z M377.6,50.8h7v7h-7V50.8z M392,29.1h7v7h-7V29.1z M392,36.3h7v7h-7V36.3z
	 M392,43.6h7v7h-7V43.6z M392,50.8h7v7h-7V50.8z M399.3,29.1h7v7h-7V29.1z M399.3,43.6h7v7h-7V43.6z M399.3,58.1h7v7h-7V58.1z
	 M406.5,29.1h7v7h-7V29.1z M406.5,36.3h7v7h-7V36.3z M406.5,43.6h7v7h-7V43.6z M406.5,50.8h7v7h-7V50.8z M413.8,29.1h7v7h-7V29.1z
	 M413.8,36.3h7v7h-7V36.3z M413.8,43.6h7v7h-7V43.6z M413.8,58.1h7v7h-7V58.1z M428.4,29.1h7v7h-7V29.1z M428.4,36.3h7v7h-7V36.3z
	 M428.4,43.6h7v7h-7V43.6z M428.4,58.1h7v7h-7V58.1z M421.1,36.3h7v7h-7V36.3z M421.1,43.6h7v7h-7V43.6z M421.1,50.8h7v7h-7V50.8z
	 M435.6,29.1h7v7h-7V29.1z M435.6,36.3h7v7h-7V36.3z M435.6,43.6h7v7h-7V43.6z M435.6,50.8h7v7h-7V50.8z M442.9,29.1h7v7h-7V29.1z
	 M442.9,43.6h7v7h-7V43.6z M442.9,58.1h7v7h-7V58.1z M450.1,29.1h7v7h-7V29.1z M450.1,36.3h7v7h-7V36.3z M450.1,43.6h7v7h-7V43.6z
	 M450.1,50.8h7v7h-7V50.8z M457.4,29.1h7v7h-7V29.1z M457.4,36.3h7v7h-7V36.3z M457.4,43.6h7v7h-7V43.6z M457.4,58.1h7v7h-7V58.1z
	 M471.9,29.1h7v7h-7V29.1z M471.9,36.3h7v7h-7V36.3z M471.9,43.6h7v7h-7V43.6z M471.9,58.1h7v7h-7V58.1z M464.7,36.3h7v7h-7V36.3z
	 M464.7,43.6h7v7h-7V43.6z M464.7,50.8h7v7h-7V50.8z M479.2,29.1h7v7h-7V29.1z M479.2,36.3h7v7h-7V36.3z M479.2,43.6h7v7h-7V43.6z
	 M479.2,50.8h7v7h-7V50.8z M486.5,29.1h7v7h-7V29.1z M486.5,43.6h7v7h-7V43.6z M486.5,58.1h7v7h-7V58.1z M493.7,29.1h7v7h-7V29.1z
	 M493.7,36.3h7v7h-7V36.3z M493.7,43.6h7v7h-7V43.6z M493.7,50.8h7v7h-7V50.8z M501,29.1h7v7h-7V29.1z M501,36.3h7v7h-7V36.3z
	 M501,43.6h7v7h-7V43.6z M501,58.1h7v7h-7V58.1z M515.5,29.1h7v7h-7V29.1z M515.5,36.3h7v7h-7V36.3z M515.5,43.6h7v7h-7V43.6z
	 M515.5,58.1h7v7h-7V58.1z M508.3,36.3h7v7h-7V36.3z M508.3,43.6h7v7h-7V43.6z M508.3,50.8h7v7h-7V50.8z M522.7,29.1h7v7h-7V29.1z
	 M522.7,36.3h7v7h-7V36.3z M522.7,43.6h7v7h-7V43.6z M522.7,50.8h7v7h-7V50.8z M530,29.1h7v7h-7V29.1z M530,43.6h7v7h-7V43.6z
	 M537.2,29.1h7v7h-7V29.1z M544.5,29.1h7v7h-7V29.1z M544.5,36.3h7v7h-7V36.3z M544.5,43.6h7v7h-7V43.6z M544.5,58.1h7v7h-7V58.1z
	 M559,29.1h7v7h-7V29.1z M559,36.3h7v7h-7V36.3z M559,43.6h7v7h-7V43.6z M559,58.1h7v7h-7V58.1z M551.8,36.3h7v7h-7V36.3z
	 M551.8,43.6h7v7h-7V43.6z M551.8,50.8h7v7h-7V50.8z M566.3,29.1h7v7h-7V29.1z M566.3,36.3h7v7h-7V36.3z M566.3,43.6h7v7h-7V43.6z
	 M566.3,50.8h7v7h-7V50.8z M573.6,29.1h7v7h-7V29.1z M573.6,43.6h7v7h-7V43.6z M573.6,58.1h7v7h-7V58.1z M580.8,29.1h7v7h-7V29.1z
	 M580.8,36.3h7v7h-7V36.3z M580.8,43.6h7v7h-7V43.6z M580.8,50.8h7v7h-7V50.8z M588.1,29.1h7v7h-7V29.1z M588.1,36.3h7v7h-7V36.3z
	 M588.1,43.6h7v7h-7V43.6z M588.1,58.1h7v7h-7V58.1z M602.6,29.1h7v7h-7V29.1z M602.6,36.3h7v7h-7V36.3z M602.6,43.6h7v7h-7V43.6z
	 M602.6,58.1h7v7h-7V58.1z M595.4,36.3h7v7h-7V36.3z M595.4,43.6h7v7h-7V43.6z M595.4,50.8h7v7h-7V50.8z M609.8,29.1h7v7h-7V29.1z
	 M609.8,36.3h7v7h-7V36.3z M609.8,43.6h7v7h-7V43.6z M609.8,50.8h7v7h-7V50.8z M617.1,29.1h7v7h-7V29.1z M617.1,43.6h7v7h-7V43.6z
	 M617.1,58.1h7v7h-7V58.1z M624.3,29.1h7v7h-7V29.1z M624.3,36.3h7v7h-7V36.3z M624.3,43.6h7v7h-7V43.6z M624.3,50.8h7v7h-7V50.8z
	 M631.6,29.1h7v7h-7V29.1z M631.6,36.3h7v7h-7V36.3z M631.6,43.6h7v7h-7V43.6z M631.6,58.1h7v7h-7V58.1z M646.2,29.1h7v7h-7V29.1z
	 M646.2,36.3h7v7h-7V36.3z M646.2,43.6h7v7h-7V43.6z M646.2,58.1h7v7h-7V58.1z M638.9,36.3h7v7h-7V36.3z M638.9,43.6h7v7h-7V43.6z
	 M638.9,50.8h7v7h-7V50.8z M653.4,29.1h7v7h-7V29.1z M653.4,36.3h7v7h-7V36.3z M653.4,43.6h7v7h-7V43.6z M653.4,50.8h7v7h-7V50.8z
	 M660.7,29.1h7v7h-7V29.1z M660.7,43.6h7v7h-7V43.6z M660.7,58.1h7v7h-7V58.1z M667.9,29.1h7v7h-7V29.1z M667.9,36.3h7v7h-7V36.3z
	 M667.9,43.6h7v7h-7V43.6z M667.9,50.8h7v7h-7V50.8z M675.2,29.1h7v7h-7V29.1z M675.2,36.3h7v7h-7V36.3z M675.2,43.6h7v7h-7V43.6z
	 M675.2,58.1h7v7h-7V58.1z M689.7,29.1h7v7h-7V29.1z M689.7,36.3h7v7h-7V36.3z M689.7,43.6h7v7h-7V43.6z M689.7,58.1h7v7h-7V58.1z
	 M682.5,36.3h7v7h-7V36.3z M682.5,43.6h7v7h-7V43.6z M682.5,50.8h7v7h-7V50.8z M697,29.1h7v7h-7V29.1z M697,36.3h7v7h-7V36.3z
	 M697,43.6h7v7h-7V43.6z M697,50.8h7v7h-7V50.8z M704.3,29.1h7v7h-7V29.1z M704.3,43.6h7v7h-7V43.6z M704.3,58.1h7v7h-7V58.1z
	 M711.5,29.1h7v7h-7V29.1z M711.5,36.3h7v7h-7V36.3z M711.5,43.6h7v7h-7V43.6z M711.5,50.8h7v7h-7V50.8z M718.8,29.1h7v7h-7V29.1z
	 M718.8,36.3h7v7h-7V36.3z M718.8,43.6h7v7h-7V43.6z M718.8,58.1h7v7h-7V58.1z M733.3,29.1h7v7h-7V29.1z M733.3,36.3h7v7h-7V36.3z
	 M733.3,43.6h7v7h-7V43.6z M733.3,58.1h7v7h-7V58.1z M726.1,36.3h7v7h-7V36.3z M726.1,43.6h7v7h-7V43.6z M726.1,50.8h7v7h-7V50.8z
	 M740.5,29.1h7v7h-7V29.1z M740.5,36.3h7v7h-7V36.3z M740.5,43.6h7v7h-7V43.6z M740.5,50.8h7v7h-7V50.8z M747.8,29.1h7v7h-7V29.1z
	 M747.8,43.6h7v7h-7V43.6z M747.8,58.1h7v7h-7V58.1z M755,29.1h7v7h-7V29.1z M755,36.3h7v7h-7V36.3z M755,43.6h7v7h-7V43.6z
	 M755,50.8h7v7h-7V50.8z M762.3,29.1h7v7h-7V29.1z M762.3,36.3h7v7h-7V36.3z M762.3,43.6h7v7h-7V43.6z M762.3,58.1h7v7h-7V58.1z
	 M776.8,29.1h7v7h-7V29.1z M776.8,36.3h7v7h-7V36.3z M776.8,43.6h7v7h-7V43.6z M776.8,58.1h7v7h-7V58.1z M769.6,36.3h7v7h-7V36.3z
	 M769.6,43.6h7v7h-7V43.6z M769.6,50.8h7v7h-7V50.8z M784.1,29.1h7v7h-7V29.1z M784.1,36.3h7v7h-7V36.3z M784.1,43.6h7v7h-7V43.6z
	 M784.1,50.8h7v7h-7V50.8z M791.4,29.1h7v7h-7V29.1z M791.4,43.6h7v7h-7V43.6z M791.4,58.1h7v7h-7V58.1z M798.6,29.1h7v7h-7V29.1z
	 M798.6,36.3h7v7h-7V36.3z M798.6,43.6h7v7h-7V43.6z M798.6,50.8h7v7h-7V50.8z M805.9,29.1h7v7h-7V29.1z M805.9,36.3h7v7h-7V36.3z
	 M805.9,43.6h7v7h-7V43.6z M805.9,58.1h7v7h-7V58.1z M820.4,29.1h7v7h-7V29.1z M820.4,36.3h7v7h-7V36.3z M820.4,43.6h7v7h-7V43.6z
	 M820.4,58.1h7v7h-7V58.1z M813.2,36.3h7v7h-7V36.3z M813.2,43.6h7v7h-7V43.6z M813.2,50.8h7v7h-7V50.8z M827.6,29.1h7v7h-7V29.1z
	 M827.6,36.3h7v7h-7V36.3z M827.6,43.6h7v7h-7V43.6z M827.6,50.8h7v7h-7V50.8z M834.9,29.1h7v7h-7V29.1z M834.9,43.6h7v7h-7V43.6z
	 M834.9,58.1h7v7h-7V58.1z M842.1,29.1h7v7h-7V29.1z M842.1,36.3h7v7h-7V36.3z M842.1,43.6h7v7h-7V43.6z M842.1,50.8h7v7h-7V50.8z
	 M849.4,29.1h7v7h-7V29.1z M849.4,36.3h7v7h-7V36.3z M849.4,43.6h7v7h-7V43.6z M849.4,58.1h7v7h-7V58.1z M864,29.1h7v7h-7V29.1z
	 M864,36.3h7v7h-7V36.3z M864,43.6h7v7h-7V43.6z M864,58.1h7v7h-7V58.1z M856.7,36.3h7v7h-7V36.3z M856.7,43.6h7v7h-7V43.6z
	 M856.7,50.8h7v7h-7V50.8z M871.2,29.1h7v7h-7V29.1z M871.2,36.3h7v7h-7V36.3z M871.2,43.6h7v7h-7V43.6z M871.2,50.8h7v7h-7V50.8z
	 M878.5,29.1h7v7h-7V29.1z M878.5,58.1h7v7h-7V58.1z M885.7,36.3h7v7h-7V36.3z M885.7,43.6h7v7h-7V43.6z M885.7,50.8h7v7h-7V50.8z
	 M893,29.1h7v7h-7V29.1z M893,36.3h7v7h-7V36.3z M893,43.6h7v7h-7V43.6z M893,58.1h7v7h-7V58.1z M907.5,29.1h7v7h-7V29.1z
	 M907.5,36.3h7v7h-7V36.3z M907.5,43.6h7v7h-7V43.6z M907.5,58.1h7v7h-7V58.1z M900.3,36.3h7v7h-7V36.3z M900.3,43.6h7v7h-7V43.6z
	 M900.3,50.8h7v7h-7V50.8z M914.8,29.1h7v7h-7V29.1z M914.8,36.3h7v7h-7V36.3z M914.8,43.6h7v7h-7V43.6z M914.8,50.8h7v7h-7V50.8z
	 M922.1,29.1h7v7h-7V29.1z M922.1,43.6h7v7h-7V43.6z M922.1,58.1h7v7h-7V58.1z M929.3,29.1h7v7h-7V29.1z M929.3,36.3h7v7h-7V36.3z
	 M929.3,43.6h7v7h-7V43.6z M929.3,50.8h7v7h-7V50.8z M936.6,29.1h7v7h-7V29.1z M936.6,36.3h7v7h-7V36.3z M936.6,43.6h7v7h-7V43.6z
	 M936.6,58.1h7v7h-7V58.1z M951.1,29.1h7v7h-7V29.1z M951.1,36.3h7v7h-7V36.3z M951.1,43.6h7v7h-7V43.6z M951.1,58.1h7v7h-7V58.1z
	 M943.9,36.3h7v7h-7V36.3z M943.9,43.6h7v7h-7V43.6z M943.9,50.8h7v7h-7V50.8z M958.3,29.1h7v7h-7V29.1z M958.3,36.3h7v7h-7V36.3z
	 M958.3,43.6h7v7h-7V43.6z M958.3,50.8h7v7h-7V50.8z M965.6,29.1h7v7h-7V29.1z M965.6,43.6h7v7h-7V43.6z M965.6,58.1h7v7h-7V58.1z
	 M972.8,29.1h7v7h-7V29.1z M972.8,36.3h7v7h-7V36.3z M972.8,43.6h7v7h-7V43.6z M972.8,50.8h7v7h-7V50.8z M980.1,29.1h7v7h-7V29.1z
	 M980.1,36.3h7v7h-7V36.3z M980.1,43.6h7v7h-7V43.6z M980.1,58.1h7v7h-7V58.1z M994.6,29.1h7v7h-7V29.1z M994.6,36.3h7v7h-7V36.3z
	 M994.6,43.6h7v7h-7V43.6z M994.6,58.1h7v7h-7V58.1z M987.4,36.3h7v7h-7V36.3z M987.4,43.6h7v7h-7V43.6z M987.4,50.8h7v7h-7V50.8z
	 M856.7,7.3h7v7h-7V7.3z M856.7,14.5h7v7h-7V14.5z M856.7,21.8h7v7h-7V21.8z M864,7.3h7v7h-7V7.3z M864,14.5h7v7h-7V14.5z M864,21.8
	h7v7h-7V21.8z M871.2,7.3h7v7h-7V7.3z M871.2,14.5h7v7h-7V14.5z M871.2,21.8h7v7h-7V21.8z M878.5,7.3h7v7h-7V7.3z M878.5,14.5h7v7
	h-7V14.5z M885.8,7.3h7v7h-7V7.3z M885.8,14.5h7v7h-7V14.5z M885.8,21.8h7v7h-7V21.8z M893,7.3h7v7h-7V7.3z M893,14.5h7v7h-7V14.5z
	 M893,21.8h7v7h-7V21.8z M900.3,7.3h7v7h-7V7.3z M900.3,14.5h7v7h-7V14.5z M900.3,21.8h7v7h-7V21.8z M907.6,7.3h7v7h-7V7.3z
	 M907.6,14.5h7v7h-7V14.5z M907.6,21.8h7v7h-7V21.8z M914.7,7.3h7v7h-7V7.3z M914.7,14.5h7v7h-7V14.5z M914.7,21.8h7v7h-7V21.8z
	 M922,7.3h7v7h-7V7.3z M922,14.5h7v7h-7V14.5z M922,21.8h7v7h-7V21.8z M929.3,7.3h7v7h-7V7.3z M929.3,14.5h7v7h-7V14.5z M929.3,21.8
	h7v7h-7V21.8z M936.5,7.3h7v7h-7V7.3z M936.5,14.5h7v7h-7V14.5z M936.5,21.8h7v7h-7V21.8z M943.8,7.3h7v7h-7V7.3z M943.8,14.5h7v7
	h-7V14.5z M943.8,21.8h7v7h-7V21.8z M951.1,7.3h7v7h-7V7.3z M951.1,14.5h7v7h-7V14.5z M951.1,21.8h7v7h-7V21.8z M958.3,7.3h7v7h-7
	V7.3z M958.3,14.5h7v7h-7V14.5z M958.3,21.8h7v7h-7V21.8z M965.6,7.3h7v7h-7V7.3z M965.6,14.5h7v7h-7V14.5z M965.6,21.8h7v7h-7V21.8
	z M972.9,7.3h7v7h-7V7.3z M972.9,14.5h7v7h-7V14.5z M972.9,21.8h7v7h-7V21.8z M980.1,7.3h7v7h-7V7.3z M980.1,14.5h7v7h-7V14.5z
	 M980.1,21.8h7v7h-7V21.8z M987.4,7.3h7v7h-7V7.3z M987.4,14.5h7v7h-7V14.5z M987.4,21.8h7v7h-7V21.8z M994.7,7.3h7v7h-7V7.3z
	 M994.7,14.5h7v7h-7V14.5z M994.7,21.8h7v7h-7V21.8z"/>
</svg>
