<?xml version="1.0" encoding="utf-8"?>
<!-- Generator: Adobe Illustrator 27.3.1, SVG Export Plug-In . SVG Version: 6.00 Build 0)  -->
<svg version="1.1" id="Слой_1" xmlns="http://www.w3.org/2000/svg" xmlns:xlink="http://www.w3.org/1999/xlink" x="0px" y="0px"
	 viewBox="0 0 326.5 304.6" style="enable-background:new 0 0 326.5 304.6;" xml:space="preserve">
<style type="text/css">
	.st0{fill:#1E0E01;}
</style>
<g id="Слой_1_00000129172084565034300610000010717907586191216793_">
</g>
<path class="st0" d="M43.6,87.1h7v7h-7V87.1z M50.8,79.8h7v7h-7V79.8z M50.8,87.1h7v7h-7V87.1z M0,159.7h7v7H0V159.7z M7.3,145.2h7
	v7h-7V145.2z M7.3,152.4h7v7h-7V152.4z M7.3,159.7h7v7h-7V159.7z M14.5,130.7h7v7h-7V130.7z M14.5,137.9h7v7h-7V137.9z M14.5,145.2
	h7v7h-7V145.2z M14.5,152.4h7v7h-7V152.4z M14.5,159.7h7v7h-7V159.7z M21.8,116.2h7v7h-7V116.2z M21.8,123.4h7v7h-7V123.4z
	 M21.8,130.7h7v7h-7V130.7z M21.8,137.9h7v7h-7V137.9z M21.8,145.2h7v7h-7V145.2z M29.1,108.9h7v7h-7V108.9z M29.1,116.2h7v7h-7
	V116.2z M29.1,123.4h7v7h-7V123.4z M29.1,130.7h7v7h-7V130.7z M29.1,159.7h7v7h-7V159.7z M36.3,101.6h7v7h-7V101.6z M36.3,108.9h7v7
	h-7V108.9z M36.3,116.2h7v7h-7V116.2z M36.3,123.4h7v7h-7V123.4z M36.3,137.9h7v7h-7V137.9z M36.3,145.2h7v7h-7V145.2z M36.3,152.4
	h7v7h-7V152.4z M36.3,159.7h7v7h-7V159.7z M43.6,94.4h7v7h-7V94.4z M43.6,101.6h7v7h-7V101.6z M43.6,108.9h7v7h-7V108.9z
	 M43.6,130.7h7v7h-7V130.7z M43.6,137.9h7v7h-7V137.9z M43.6,145.2h7v7h-7V145.2z M43.6,152.4h7v7h-7V152.4z M43.6,159.7h7v7h-7
	V159.7z M50.8,94.4h7v7h-7V94.4z M50.8,101.6h7v7h-7V101.6z M50.8,123.4h7v7h-7V123.4z M50.8,130.7h7v7h-7V130.7z M50.8,137.9h7v7
	h-7V137.9z M50.8,145.2h7v7h-7V145.2z M0,167h7v7H0V167z M7.3,167h7v7h-7V167z M21.8,167h7v7h-7V167z M21.8,174.2h7v7h-7V174.2z
	 M21.8,181.5h7v7h-7V181.5z M21.8,188.8h7v7h-7V188.8z M21.8,196h7v7h-7V196z M21.8,203.3h7v7h-7V203.3z M21.8,210.5h7v7h-7V210.5z
	 M21.8,217.8h7v7h-7V217.8z M21.8,225h7v7h-7V225z M21.8,232.3h7v7h-7V232.3z M29.1,167h7v7h-7V167z M36.3,167h7v7h-7V167z
	 M50.8,181.5h7v7h-7V181.5z M50.8,188.8h7v7h-7V188.8z M50.8,196h7v7h-7V196z M50.8,203.3h7v7h-7V203.3z M50.8,210.5h7v7h-7V210.5z
	 M50.8,217.8h7v7h-7V217.8z M0,268.6h7v7H0V268.6z M0,283.1h7v7H0V283.1z M7.3,268.6h7v7h-7V268.6z M14.5,239.6h7v7h-7V239.6z
	 M14.5,261.4h7v7h-7V261.4z M14.5,268.6h7v7h-7V268.6z M14.5,275.9h7v7h-7V275.9z M21.8,239.6h7v7h-7V239.6z M21.8,246.8h7v7h-7
	V246.8z M21.8,254.1h7v7h-7V254.1z M21.8,261.4h7v7h-7V261.4z M21.8,268.6h7v7h-7V268.6z M21.8,275.9h7v7h-7V275.9z M29.1,239.6h7v7
	h-7V239.6z M29.1,261.4h7v7h-7V261.4z M29.1,268.6h7v7h-7V268.6z M29.1,275.9h7v7h-7V275.9z M36.3,239.6h7v7h-7V239.6z M36.3,261.4
	h7v7h-7V261.4z M36.3,268.6h7v7h-7V268.6z M36.3,275.9h7v7h-7V275.9z M43.6,239.6h7v7h-7V239.6z M43.6,261.4h7v7h-7V261.4z
	 M43.6,268.6h7v7h-7V268.6z M43.6,275.9h7v7h-7V275.9z M43.6,283.1h7v7h-7V283.1z M50.8,239.6h7v7h-7V239.6z M50.8,261.4h7v7h-7
	V261.4z M50.8,268.6h7v7h-7V268.6z M50.8,283.1h7v7h-7V283.1z M58.1,72.6h7v7h-7V72.6z M58.1,79.8h7v7h-7V79.8z M58.1,87.1h7v7h-7
	V87.1z M65.4,58.1h7v7h-7V58.1z M65.4,65.3h7v7h-7V65.3z M65.4,72.6h7v7h-7V72.6z M65.4,79.8h7v7h-7V79.8z M65.4,87.1h7v7h-7V87.1z
	 M72.6,50.8h7v7h-7V50.8z M72.6,58.1h7v7h-7V58.1z M72.6,65.3h7v7h-7V65.3z M72.6,72.6h7v7h-7V72.6z M79.9,36.3h7v7h-7V36.3z
	 M79.9,43.6h7v7h-7V43.6z M79.9,50.8h7v7h-7V50.8z M79.9,58.1h7v7h-7V58.1z M79.9,72.6h7v7h-7V72.6z M79.9,87.1h7v7h-7V87.1z
	 M87.1,29h7v7h-7V29z M87.1,36.3h7v7h-7V36.3z M87.1,43.6h7v7h-7V43.6z M87.1,58.1h7v7h-7V58.1z M87.1,79.8h7v7h-7V79.8z M87.1,87.1
	h7v7h-7V87.1z M94.4,29h7v7h-7V29z M94.4,36.3h7v7h-7V36.3z M94.4,43.6h7v7h-7V43.6z M94.4,50.8h7v7h-7V50.8z M94.4,65.3h7v7h-7
	V65.3z M94.4,72.6h7v7h-7V72.6z M94.4,79.8h7v7h-7V79.8z M101.7,29h7v7h-7V29z M101.7,36.3h7v7h-7V36.3z M101.7,43.6h7v7h-7V43.6z
	 M101.7,50.8h7v7h-7V50.8z M101.7,58.1h7v7h-7V58.1z M101.7,65.3h7v7h-7V65.3z M101.7,72.6h7v7h-7V72.6z M108.9,29h7v7h-7V29z
	 M108.9,36.3h7v7h-7V36.3z M108.9,43.6h7v7h-7V43.6z M108.9,50.8h7v7h-7V50.8z M108.9,58.1h7v7h-7V58.1z M116.2,36.3h7v7h-7V36.3z
	 M116.2,43.6h7v7h-7V43.6z M116.2,50.8h7v7h-7V50.8z M116.2,58.1h7v7h-7V58.1z M116.2,65.3h7v7h-7V65.3z M116.2,72.6h7v7h-7V72.6z
	 M116.2,79.8h7v7h-7V79.8z M116.2,87.1h7v7h-7V87.1z M123.4,36.3h7v7h-7V36.3z M123.4,43.6h7v7h-7V43.6z M123.4,50.8h7v7h-7V50.8z
	 M123.4,58.1h7v7h-7V58.1z M123.4,65.3h7v7h-7V65.3z M123.4,72.6h7v7h-7V72.6z M123.4,79.8h7v7h-7V79.8z M123.4,87.1h7v7h-7V87.1z
	 M58.1,94.4h7v7h-7V94.4z M58.1,116.2h7v7h-7V116.2z M58.1,123.4h7v7h-7V123.4z M58.1,130.7h7v7h-7V130.7z M58.1,137.9h7v7h-7V137.9
	z M65.4,101.6h7v7h-7V101.6z M65.4,108.9h7v7h-7V108.9z M65.4,116.2h7v7h-7V116.2z M65.4,123.4h7v7h-7V123.4z M65.4,130.7h7v7h-7
	V130.7z M72.6,94.4h7v7h-7V94.4z M72.6,101.6h7v7h-7V101.6z M72.6,108.9h7v7h-7V108.9z M72.6,116.2h7v7h-7V116.2z M79.9,94.4h7v7h-7
	V94.4z M79.9,101.6h7v7h-7V101.6z M79.9,145.2h7v7h-7V145.2z M87.1,130.7h7v7h-7V130.7z M87.1,145.2h7v7h-7V145.2z M94.4,123.4h7v7
	h-7V123.4z M94.4,145.2h7v7h-7V145.2z M101.7,123.4h7v7h-7V123.4z M101.7,145.2h7v7h-7V145.2z M108.9,123.4h7v7h-7V123.4z
	 M108.9,145.2h7v7h-7V145.2z M116.2,108.9h7v7h-7V108.9z M116.2,116.2h7v7h-7V116.2z M116.2,123.4h7v7h-7V123.4z M116.2,130.7h7v7
	h-7V130.7z M116.2,145.2h7v7h-7V145.2z M123.4,94.4h7v7h-7V94.4z M123.4,145.2h7v7h-7V145.2z M58.1,181.5h7v7h-7V181.5z M58.1,188.8
	h7v7h-7V188.8z M58.1,196h7v7h-7V196z M58.1,203.3h7v7h-7V203.3z M58.1,210.5h7v7h-7V210.5z M58.1,217.8h7v7h-7V217.8z M65.4,181.5
	h7v7h-7V181.5z M65.4,188.8h7v7h-7V188.8z M65.4,196h7v7h-7V196z M65.4,203.3h7v7h-7V203.3z M65.4,210.5h7v7h-7V210.5z M65.4,217.8
	h7v7h-7V217.8z M87.1,181.5h7v7h-7V181.5z M87.1,188.8h7v7h-7V188.8z M87.1,196h7v7h-7V196z M87.1,203.3h7v7h-7V203.3z M87.1,210.5
	h7v7h-7V210.5z M87.1,217.8h7v7h-7V217.8z M87.1,225h7v7h-7V225z M87.1,232.3h7v7h-7V232.3z M94.4,181.5h7v7h-7V181.5z M94.4,188.8
	h7v7h-7V188.8z M94.4,196h7v7h-7V196z M94.4,203.3h7v7h-7V203.3z M94.4,210.5h7v7h-7V210.5z M94.4,217.8h7v7h-7V217.8z M94.4,225h7
	v7h-7V225z M94.4,232.3h7v7h-7V232.3z M101.7,181.5h7v7h-7V181.5z M101.7,188.8h7v7h-7V188.8z M101.7,196h7v7h-7V196z M101.7,203.3
	h7v7h-7V203.3z M101.7,210.5h7v7h-7V210.5z M101.7,217.8h7v7h-7V217.8z M101.7,225h7v7h-7V225z M101.7,232.3h7v7h-7V232.3z
	 M108.9,181.5h7v7h-7V181.5z M108.9,188.8h7v7h-7V188.8z M108.9,196h7v7h-7V196z M108.9,203.3h7v7h-7V203.3z M108.9,210.5h7v7h-7
	V210.5z M108.9,217.8h7v7h-7V217.8z M108.9,225h7v7h-7V225z M108.9,232.3h7v7h-7V232.3z M116.2,181.5h7v7h-7V181.5z M116.2,188.8h7
	v7h-7V188.8z M116.2,196h7v7h-7V196z M116.2,203.3h7v7h-7V203.3z M116.2,210.5h7v7h-7V210.5z M116.2,217.8h7v7h-7V217.8z M116.2,225
	h7v7h-7V225z M116.2,232.3h7v7h-7V232.3z M58.1,239.6h7v7h-7V239.6z M58.1,261.4h7v7h-7V261.4z M58.1,268.6h7v7h-7V268.6z
	 M58.1,283.1h7v7h-7V283.1z M65.4,239.6h7v7h-7V239.6z M65.4,254.1h7v7h-7V254.1z M65.4,268.6h7v7h-7V268.6z M65.4,283.1h7v7h-7
	V283.1z M72.6,239.6h7v7h-7V239.6z M72.6,254.1h7v7h-7V254.1z M72.6,268.6h7v7h-7V268.6z M72.6,283.1h7v7h-7V283.1z M79.9,239.6h7v7
	h-7V239.6z M79.9,254.1h7v7h-7V254.1z M79.9,268.6h7v7h-7V268.6z M79.9,283.1h7v7h-7V283.1z M87.1,239.6h7v7h-7V239.6z M87.1,246.8
	h7v7h-7V246.8z M87.1,254.1h7v7h-7V254.1z M87.1,268.6h7v7h-7V268.6z M87.1,283.1h7v7h-7V283.1z M94.4,239.6h7v7h-7V239.6z
	 M94.4,246.8h7v7h-7V246.8z M94.4,254.1h7v7h-7V254.1z M94.4,268.6h7v7h-7V268.6z M94.4,283.1h7v7h-7V283.1z M101.7,239.6h7v7h-7
	V239.6z M101.7,246.8h7v7h-7V246.8z M101.7,254.1h7v7h-7V254.1z M101.7,268.6h7v7h-7V268.6z M101.7,283.1h7v7h-7V283.1z
	 M108.9,239.6h7v7h-7V239.6z M108.9,246.8h7v7h-7V246.8z M108.9,254.1h7v7h-7V254.1z M108.9,268.6h7v7h-7V268.6z M108.9,275.9h7v7
	h-7V275.9z M108.9,283.1h7v7h-7V283.1z M116.2,239.6h7v7h-7V239.6z M116.2,246.8h7v7h-7V246.8z M116.2,254.1h7v7h-7V254.1z
	 M116.2,268.6h7v7h-7V268.6z M116.2,275.9h7v7h-7V275.9z M116.2,283.1h7v7h-7V283.1z M123.4,239.6h7v7h-7V239.6z M123.4,254.1h7v7
	h-7V254.1z M123.4,261.4h7v7h-7V261.4z M123.4,268.6h7v7h-7V268.6z M123.4,275.9h7v7h-7V275.9z M123.4,283.1h7v7h-7V283.1z
	 M130.7,36.3h7v7h-7V36.3z M130.7,43.6h7v7h-7V43.6z M130.7,50.8h7v7h-7V50.8z M130.7,58.1h7v7h-7V58.1z M130.7,65.3h7v7h-7V65.3z
	 M130.7,72.6h7v7h-7V72.6z M130.7,79.8h7v7h-7V79.8z M130.7,87.1h7v7h-7V87.1z M138,36.3h7v7h-7V36.3z M138,43.6h7v7h-7V43.6z
	 M138,50.8h7v7h-7V50.8z M138,58.1h7v7h-7V58.1z M138,65.3h7v7h-7V65.3z M138,72.6h7v7h-7V72.6z M138,79.8h7v7h-7V79.8z M138,87.1h7
	v7h-7V87.1z M145.2,7.2h7v7h-7V7.2z M145.2,36.3h7v7h-7V36.3z M145.2,43.6h7v7h-7V43.6z M145.2,50.8h7v7h-7V50.8z M145.2,58.1h7v7
	h-7V58.1z M145.2,65.3h7v7h-7V65.3z M145.2,72.6h7v7h-7V72.6z M145.2,79.8h7v7h-7V79.8z M145.2,87.1h7v7h-7V87.1z M152.5,7.2h7v7h-7
	V7.2z M152.5,14.5h7v7h-7V14.5z M152.5,21.8h7v7h-7V21.8z M152.5,29h7v7h-7V29z M152.5,36.3h7v7h-7V36.3z M152.5,43.6h7v7h-7V43.6z
	 M152.5,50.8h7v7h-7V50.8z M152.5,58.1h7v7h-7V58.1z M152.5,65.3h7v7h-7V65.3z M152.5,72.6h7v7h-7V72.6z M152.5,79.8h7v7h-7V79.8z
	 M152.5,87.1h7v7h-7V87.1z M159.7,0h7v7h-7V0z M159.7,7.2h7v7h-7V7.2z M159.7,14.5h7v7h-7V14.5z M159.7,21.8h7v7h-7V21.8z M159.7,29
	h7v7h-7V29z M159.7,36.3h7v7h-7V36.3z M159.7,43.6h7v7h-7V43.6z M159.7,50.8h7v7h-7V50.8z M159.7,58.1h7v7h-7V58.1z M159.7,65.3h7v7
	h-7V65.3z M159.7,72.6h7v7h-7V72.6z M159.7,79.8h7v7h-7V79.8z M159.7,87.1h7v7h-7V87.1z M167,0h7v7h-7V0z M167,7.2h7v7h-7V7.2z
	 M167,14.5h7v7h-7V14.5z M167,21.8h7v7h-7V21.8z M167,29h7v7h-7V29z M167,36.3h7v7h-7V36.3z M167,43.6h7v7h-7V43.6z M167,50.8h7v7
	h-7V50.8z M167,58.1h7v7h-7V58.1z M167,65.3h7v7h-7V65.3z M167,72.6h7v7h-7V72.6z M167,79.8h7v7h-7V79.8z M167,87.1h7v7h-7V87.1z
	 M174.3,7.2h7v7h-7V7.2z M174.3,14.5h7v7h-7V14.5z M174.3,21.8h7v7h-7V21.8z M174.3,29h7v7h-7V29z M174.3,36.3h7v7h-7V36.3z
	 M174.3,43.6h7v7h-7V43.6z M174.3,50.8h7v7h-7V50.8z M174.3,58.1h7v7h-7V58.1z M174.3,65.3h7v7h-7V65.3z M174.3,72.6h7v7h-7V72.6z
	 M174.3,79.8h7v7h-7V79.8z M174.3,87.1h7v7h-7V87.1z M181.5,7.2h7v7h-7V7.2z M181.5,36.3h7v7h-7V36.3z M181.5,43.6h7v7h-7V43.6z
	 M181.5,50.8h7v7h-7V50.8z M181.5,58.1h7v7h-7V58.1z M181.5,65.3h7v7h-7V65.3z M181.5,72.6h7v7h-7V72.6z M181.5,79.8h7v7h-7V79.8z
	 M181.5,87.1h7v7h-7V87.1z M188.8,36.3h7v7h-7V36.3z M188.8,43.6h7v7h-7V43.6z M188.8,50.8h7v7h-7V50.8z M188.8,58.1h7v7h-7V58.1z
	 M188.8,65.3h7v7h-7V65.3z M188.8,72.6h7v7h-7V72.6z M188.8,79.8h7v7h-7V79.8z M188.8,87.1h7v7h-7V87.1z M196,21.8h7v7h-7V21.8z
	 M196,29h7v7h-7V29z M196,36.3h7v7h-7V36.3z M196,43.6h7v7h-7V43.6z M196,50.8h7v7h-7V50.8z M196,58.1h7v7h-7V58.1z M196,65.3h7v7
	h-7V65.3z M196,72.6h7v7h-7V72.6z M196,79.8h7v7h-7V79.8z M196,87.1h7v7h-7V87.1z M130.7,94.4h7v7h-7V94.4z M130.7,101.6h7v7h-7
	V101.6z M138,94.4h7v7h-7V94.4z M138,101.6h7v7h-7V101.6z M138,108.9h7v7h-7V108.9z M145.2,94.4h7v7h-7V94.4z M145.2,101.6h7v7h-7
	V101.6z M145.2,108.9h7v7h-7V108.9z M145.2,116.2h7v7h-7V116.2z M145.2,123.4h7v7h-7V123.4z M152.5,94.4h7v7h-7V94.4z M152.5,101.6
	h7v7h-7V101.6z M152.5,108.9h7v7h-7V108.9z M152.5,116.2h7v7h-7V116.2z M152.5,123.4h7v7h-7V123.4z M152.5,130.7h7v7h-7V130.7z
	 M159.7,94.4h7v7h-7V94.4z M159.7,101.6h7v7h-7V101.6z M159.7,108.9h7v7h-7V108.9z M159.7,116.2h7v7h-7V116.2z M159.7,123.4h7v7h-7
	V123.4z M159.7,130.7h7v7h-7V130.7z M159.7,137.9h7v7h-7V137.9z M159.7,145.2h7v7h-7V145.2z M167,94.4h7v7h-7V94.4z M167,101.6h7v7
	h-7V101.6z M167,108.9h7v7h-7V108.9z M167,116.2h7v7h-7V116.2z M167,123.4h7v7h-7V123.4z M167,130.7h7v7h-7V130.7z M167,137.9h7v7
	h-7V137.9z M167,145.2h7v7h-7V145.2z M167,152.4h7v7h-7V152.4z M167,159.7h7v7h-7V159.7z M174.3,94.4h7v7h-7V94.4z M174.3,101.6h7v7
	h-7V101.6z M174.3,108.9h7v7h-7V108.9z M174.3,116.2h7v7h-7V116.2z M174.3,123.4h7v7h-7V123.4z M174.3,130.7h7v7h-7V130.7z
	 M174.3,137.9h7v7h-7V137.9z M174.3,145.2h7v7h-7V145.2z M174.3,152.4h7v7h-7V152.4z M174.3,159.7h7v7h-7V159.7z M181.5,94.4h7v7h-7
	V94.4z M181.5,101.6h7v7h-7V101.6z M181.5,108.9h7v7h-7V108.9z M181.5,116.2h7v7h-7V116.2z M181.5,123.4h7v7h-7V123.4z M181.5,130.7
	h7v7h-7V130.7z M181.5,137.9h7v7h-7V137.9z M181.5,145.2h7v7h-7V145.2z M181.5,152.4h7v7h-7V152.4z M181.5,159.7h7v7h-7V159.7z
	 M188.8,94.4h7v7h-7V94.4z M188.8,101.6h7v7h-7V101.6z M188.8,108.9h7v7h-7V108.9z M188.8,116.2h7v7h-7V116.2z M188.8,123.4h7v7h-7
	V123.4z M188.8,130.7h7v7h-7V130.7z M188.8,137.9h7v7h-7V137.9z M188.8,145.2h7v7h-7V145.2z M188.8,152.4h7v7h-7V152.4z
	 M188.8,159.7h7v7h-7V159.7z M196,94.4h7v7h-7V94.4z M196,101.6h7v7h-7V101.6z M196,108.9h7v7h-7V108.9z M196,116.2h7v7h-7V116.2z
	 M196,123.4h7v7h-7V123.4z M196,130.7h7v7h-7V130.7z M196,137.9h7v7h-7V137.9z M196,145.2h7v7h-7V145.2z M196,152.4h7v7h-7V152.4z
	 M196,159.7h7v7h-7V159.7z M138,181.5h7v7h-7V181.5z M138,188.8h7v7h-7V188.8z M138,196h7v7h-7V196z M138,203.3h7v7h-7V203.3z
	 M138,210.5h7v7h-7V210.5z M138,217.8h7v7h-7V217.8z M145.2,181.5h7v7h-7V181.5z M145.2,188.8h7v7h-7V188.8z M145.2,196h7v7h-7V196z
	 M145.2,203.3h7v7h-7V203.3z M145.2,210.5h7v7h-7V210.5z M145.2,217.8h7v7h-7V217.8z M152.5,181.5h7v7h-7V181.5z M152.5,188.8h7v7
	h-7V188.8z M152.5,196h7v7h-7V196z M152.5,203.3h7v7h-7V203.3z M152.5,210.5h7v7h-7V210.5z M152.5,217.8h7v7h-7V217.8z M174.3,167h7
	v7h-7V167z M181.5,167h7v7h-7V167z M181.5,174.2h7v7h-7V174.2z M181.5,181.5h7v7h-7V181.5z M181.5,188.8h7v7h-7V188.8z M181.5,196h7
	v7h-7V196z M181.5,203.3h7v7h-7V203.3z M181.5,210.5h7v7h-7V210.5z M181.5,217.8h7v7h-7V217.8z M181.5,225h7v7h-7V225z M181.5,232.3
	h7v7h-7V232.3z M188.8,167h7v7h-7V167z M188.8,174.2h7v7h-7V174.2z M188.8,181.5h7v7h-7V181.5z M188.8,188.8h7v7h-7V188.8z
	 M188.8,196h7v7h-7V196z M188.8,203.3h7v7h-7V203.3z M188.8,210.5h7v7h-7V210.5z M188.8,217.8h7v7h-7V217.8z M188.8,225h7v7h-7V225z
	 M188.8,232.3h7v7h-7V232.3z M196,167h7v7h-7V167z M130.7,239.6h7v7h-7V239.6z M130.7,254.1h7v7h-7V254.1z M130.7,261.4h7v7h-7
	V261.4z M130.7,268.6h7v7h-7V268.6z M130.7,275.9h7v7h-7V275.9z M130.7,283.1h7v7h-7V283.1z M138,239.6h7v7h-7V239.6z M138,261.4h7
	v7h-7V261.4z M138,268.6h7v7h-7V268.6z M138,275.9h7v7h-7V275.9z M138,283.1h7v7h-7V283.1z M145.2,239.6h7v7h-7V239.6z M145.2,261.4
	h7v7h-7V261.4z M145.2,268.6h7v7h-7V268.6z M145.2,275.9h7v7h-7V275.9z M145.2,283.1h7v7h-7V283.1z M152.5,239.6h7v7h-7V239.6z
	 M152.5,261.4h7v7h-7V261.4z M152.5,268.6h7v7h-7V268.6z M152.5,275.9h7v7h-7V275.9z M152.5,283.1h7v7h-7V283.1z M159.7,239.6h7v7
	h-7V239.6z M159.7,261.4h7v7h-7V261.4z M159.7,268.6h7v7h-7V268.6z M159.7,275.9h7v7h-7V275.9z M159.7,283.1h7v7h-7V283.1z
	 M167,239.6h7v7h-7V239.6z M167,261.4h7v7h-7V261.4z M167,268.6h7v7h-7V268.6z M167,275.9h7v7h-7V275.9z M167,283.1h7v7h-7V283.1z
	 M174.3,239.6h7v7h-7V239.6z M174.3,246.8h7v7h-7V246.8z M174.3,261.4h7v7h-7V261.4z M174.3,268.6h7v7h-7V268.6z M174.3,275.9h7v7
	h-7V275.9z M174.3,283.1h7v7h-7V283.1z M181.5,239.6h7v7h-7V239.6z M181.5,246.8h7v7h-7V246.8z M181.5,254.1h7v7h-7V254.1z
	 M181.5,261.4h7v7h-7V261.4z M181.5,268.6h7v7h-7V268.6z M181.5,275.9h7v7h-7V275.9z M181.5,283.1h7v7h-7V283.1z M188.8,239.6h7v7
	h-7V239.6z M188.8,246.8h7v7h-7V246.8z M188.8,254.1h7v7h-7V254.1z M188.8,261.4h7v7h-7V261.4z M188.8,268.6h7v7h-7V268.6z
	 M188.8,275.9h7v7h-7V275.9z M188.8,283.1h7v7h-7V283.1z M196,239.6h7v7h-7V239.6z M196,261.4h7v7h-7V261.4z M196,268.6h7v7h-7
	V268.6z M196,275.9h7v7h-7V275.9z M196,283.1h7v7h-7V283.1z M203.3,21.8h7v7h-7V21.8z M203.3,50.8h7v7h-7V50.8z M203.3,58.1h7v7h-7
	V58.1z M203.3,65.3h7v7h-7V65.3z M203.3,72.6h7v7h-7V72.6z M203.3,79.8h7v7h-7V79.8z M203.3,87.1h7v7h-7V87.1z M203.3,29h7v7h-7V29z
	 M210.6,58.1h7v7h-7V58.1z M210.6,65.3h7v7h-7V65.3z M210.6,72.6h7v7h-7V72.6z M210.6,79.8h7v7h-7V79.8z M210.6,87.1h7v7h-7V87.1z
	 M217.8,65.3h7v7h-7V65.3z M217.8,72.6h7v7h-7V72.6z M217.8,79.8h7v7h-7V79.8z M217.8,87.1h7v7h-7V87.1z M225.1,79.8h7v7h-7V79.8z
	 M225.1,87.1h7v7h-7V87.1z M232.3,87.1h7v7h-7V87.1z M203.3,94.4h7v7h-7V94.4z M203.3,101.6h7v7h-7V101.6z M203.3,108.9h7v7h-7
	V108.9z M203.3,116.2h7v7h-7V116.2z M203.3,123.4h7v7h-7V123.4z M203.3,130.7h7v7h-7V130.7z M203.3,137.9h7v7h-7V137.9z
	 M203.3,145.2h7v7h-7V145.2z M203.3,152.4h7v7h-7V152.4z M203.3,159.7h7v7h-7V159.7z M210.6,94.4h7v7h-7V94.4z M210.6,101.6h7v7h-7
	V101.6z M210.6,108.9h7v7h-7V108.9z M210.6,116.2h7v7h-7V116.2z M210.6,123.4h7v7h-7V123.4z M210.6,130.7h7v7h-7V130.7z
	 M210.6,137.9h7v7h-7V137.9z M210.6,145.2h7v7h-7V145.2z M210.6,152.4h7v7h-7V152.4z M210.6,159.7h7v7h-7V159.7z M217.8,94.4h7v7h-7
	V94.4z M217.8,101.6h7v7h-7V101.6z M217.8,108.9h7v7h-7V108.9z M217.8,116.2h7v7h-7V116.2z M217.8,123.4h7v7h-7V123.4z M217.8,130.7
	h7v7h-7V130.7z M217.8,137.9h7v7h-7V137.9z M217.8,145.2h7v7h-7V145.2z M217.8,152.4h7v7h-7V152.4z M217.8,159.7h7v7h-7V159.7z
	 M225.1,94.4h7v7h-7V94.4z M225.1,101.6h7v7h-7V101.6z M225.1,108.9h7v7h-7V108.9z M225.1,116.2h7v7h-7V116.2z M225.1,123.4h7v7h-7
	V123.4z M225.1,130.7h7v7h-7V130.7z M225.1,137.9h7v7h-7V137.9z M225.1,145.2h7v7h-7V145.2z M225.1,152.4h7v7h-7V152.4z
	 M225.1,159.7h7v7h-7V159.7z M232.3,94.4h7v7h-7V94.4z M232.3,101.6h7v7h-7V101.6z M232.3,108.9h7v7h-7V108.9z M232.3,116.2h7v7h-7
	V116.2z M232.3,123.4h7v7h-7V123.4z M232.3,130.7h7v7h-7V130.7z M232.3,137.9h7v7h-7V137.9z M232.3,145.2h7v7h-7V145.2z
	 M232.3,152.4h7v7h-7V152.4z M232.3,159.7h7v7h-7V159.7z M239.6,101.6h7v7h-7V101.6z M239.6,108.9h7v7h-7V108.9z M239.6,116.2h7v7
	h-7V116.2z M239.6,123.4h7v7h-7V123.4z M239.6,130.7h7v7h-7V130.7z M239.6,137.9h7v7h-7V137.9z M239.6,145.2h7v7h-7V145.2z
	 M239.6,152.4h7v7h-7V152.4z M239.6,159.7h7v7h-7V159.7z M246.9,108.9h7v7h-7V108.9z M246.9,116.2h7v7h-7V116.2z M246.9,123.4h7v7
	h-7V123.4z M246.9,130.7h7v7h-7V130.7z M246.9,137.9h7v7h-7V137.9z M246.9,145.2h7v7h-7V145.2z M246.9,152.4h7v7h-7V152.4z
	 M246.9,159.7h7v7h-7V159.7z M254.1,116.2h7v7h-7V116.2z M254.1,123.4h7v7h-7V123.4z M254.1,130.7h7v7h-7V130.7z M254.1,137.9h7v7
	h-7V137.9z M254.1,145.2h7v7h-7V145.2z M254.1,152.4h7v7h-7V152.4z M254.1,159.7h7v7h-7V159.7z M261.4,130.7h7v7h-7V130.7z
	 M261.4,137.9h7v7h-7V137.9z M261.4,145.2h7v7h-7V145.2z M261.4,152.4h7v7h-7V152.4z M261.4,159.7h7v7h-7V159.7z M268.6,145.2h7v7
	h-7V145.2z M268.6,152.4h7v7h-7V152.4z M268.6,159.7h7v7h-7V159.7z M203.3,167h7v7h-7V167z M203.3,196h7v7h-7V196z M203.3,203.3h7v7
	h-7V203.3z M203.3,210.5h7v7h-7V210.5z M203.3,225h7v7h-7V225z M203.3,232.3h7v7h-7V232.3z M210.6,167h7v7h-7V167z M210.6,188.8h7v7
	h-7V188.8z M210.6,196h7v7h-7V196z M210.6,210.5h7v7h-7V210.5z M210.6,225h7v7h-7V225z M210.6,232.3h7v7h-7V232.3z M217.8,167h7v7
	h-7V167z M217.8,188.8h7v7h-7V188.8z M217.8,196h7v7h-7V196z M217.8,210.5h7v7h-7V210.5z M217.8,225h7v7h-7V225z M217.8,232.3h7v7
	h-7V232.3z M225.1,167h7v7h-7V167z M225.1,188.8h7v7h-7V188.8z M225.1,196h7v7h-7V196z M225.1,203.3h7v7h-7V203.3z M225.1,210.5h7v7
	h-7V210.5z M225.1,225h7v7h-7V225z M225.1,232.3h7v7h-7V232.3z M232.3,167h7v7h-7V167z M239.6,167h7v7h-7V167z M246.9,167h7v7h-7
	V167z M254.1,167h7v7h-7V167z M254.1,174.2h7v7h-7V174.2z M254.1,181.5h7v7h-7V181.5z M254.1,188.8h7v7h-7V188.8z M254.1,196h7v7h-7
	V196z M254.1,203.3h7v7h-7V203.3z M254.1,210.5h7v7h-7V210.5z M254.1,217.8h7v7h-7V217.8z M254.1,225h7v7h-7V225z M254.1,232.3h7v7
	h-7V232.3z M261.4,167h7v7h-7V167z M268.6,167h7v7h-7V167z M203.3,261.4h7v7h-7V261.4z M203.3,268.6h7v7h-7V268.6z M203.3,275.9h7v7
	h-7V275.9z M203.3,283.1h7v7h-7V283.1z M210.6,261.4h7v7h-7V261.4z M210.6,268.6h7v7h-7V268.6z M210.6,275.9h7v7h-7V275.9z
	 M210.6,283.1h7v7h-7V283.1z M217.8,261.4h7v7h-7V261.4z M217.8,268.6h7v7h-7V268.6z M217.8,275.9h7v7h-7V275.9z M217.8,283.1h7v7
	h-7V283.1z M225.1,254.1h7v7h-7V254.1z M225.1,261.4h7v7h-7V261.4z M225.1,268.6h7v7h-7V268.6z M225.1,275.9h7v7h-7V275.9z
	 M225.1,283.1h7v7h-7V283.1z M232.3,254.1h7v7h-7V254.1z M232.3,261.4h7v7h-7V261.4z M232.3,268.6h7v7h-7V268.6z M232.3,275.9h7v7
	h-7V275.9z M232.3,283.1h7v7h-7V283.1z M239.6,254.1h7v7h-7V254.1z M239.6,261.4h7v7h-7V261.4z M239.6,268.6h7v7h-7V268.6z
	 M239.6,275.9h7v7h-7V275.9z M239.6,283.1h7v7h-7V283.1z M246.9,254.1h7v7h-7V254.1z M246.9,261.4h7v7h-7V261.4z M246.9,268.6h7v7
	h-7V268.6z M246.9,275.9h7v7h-7V275.9z M246.9,283.1h7v7h-7V283.1z M246.9,290.4h7v7h-7V290.4z M254.1,239.6h7v7h-7V239.6z
	 M254.1,246.8h7v7h-7V246.8z M254.1,254.1h7v7h-7V254.1z M254.1,261.4h7v7h-7V261.4z M254.1,268.6h7v7h-7V268.6z M254.1,275.9h7v7
	h-7V275.9z M254.1,283.1h7v7h-7V283.1z M261.4,268.6h7v7h-7V268.6z M261.4,275.9h7v7h-7V275.9z M261.4,283.1h7v7h-7V283.1z
	 M268.6,268.6h7v7h-7V268.6z M268.6,275.9h7v7h-7V275.9z M268.6,283.1h7v7h-7V283.1z M275.9,159.7h7v7h-7V159.7z M275.9,167h7v7h-7
	V167z M275.9,268.6h7v7h-7V268.6z M275.9,275.9h7v7h-7V275.9z M275.9,290.4h7v7h-7V290.4z M283.2,268.6h7v7h-7V268.6z M283.2,283.1
	h7v7h-7V283.1z M290.4,268.6h7v7h-7V268.6z M290.4,275.9h7v7h-7V275.9z M297.7,268.6h7v7h-7V268.6z M297.7,283.1h7v7h-7V283.1z
	 M304.9,268.6h7v7h-7V268.6z M304.9,275.9h7v7h-7V275.9z M312.2,268.6h7v7h-7V268.6z M319.5,268.6h7v7h-7V268.6z M14.5,297.6h7v7h-7
	V297.6z M29.1,297.6h7v7h-7V297.6z M50.8,297.6h7v7h-7V297.6z M79.9,297.6h7v7h-7V297.6z M152.5,297.6h7v7h-7V297.6z M196,297.6h7v7
	h-7V297.6z M203.3,297.6h7v7h-7V297.6z M217.8,297.6h7v7h-7V297.6z M239.6,297.6h7v7h-7V297.6z M254.1,297.6h7v7h-7V297.6z"/>
</svg>
