<?xml version="1.0" encoding="utf-8"?>
<!-- Generator: Adobe Illustrator 27.3.1, SVG Export Plug-In . SVG Version: 6.00 Build 0)  -->
<svg version="1.1" xmlns="http://www.w3.org/2000/svg" xmlns:xlink="http://www.w3.org/1999/xlink" x="0px" y="0px"
	 viewBox="0 0 391.8 384.5" style="enable-background:new 0 0 391.8 384.5;" xml:space="preserve">
<style type="text/css">
	.st0{display:none;}
	.st1{fill:#1E0E01;}
</style>
<g id="Слой_2" class="st0">
	
		<image style="display:inline;overflow:visible;" width="693" height="720" xlink:href="FBD8FC3A.jpg"  transform="matrix(0.6672 0 0 0.6672 -22.95 -60.05)">
	</image>
</g>
<g id="Слой_1">
	<g id="Слой_1_00000172436587012292569650000008437988936768587394_">
	</g>
	<path class="st1" d="M43.6,217.8h7v7h-7V217.8z M43.6,225.1h7v7h-7V225.1z M50.8,210.6h7v7h-7V210.6z M50.8,217.8h7v7h-7V217.8z
		 M50.8,232.3h7v7h-7V232.3z M50.8,239.6h7v7h-7V239.6z M43.6,312.2h7v7h-7V312.2z M50.8,246.9h7v7h-7V246.9z M50.8,254.1h7v7h-7
		V254.1z M50.8,261.4h7v7h-7V261.4z M50.8,268.7h7v7h-7V268.7z M50.8,275.9h7v7h-7V275.9z M50.8,283.2h7v7h-7V283.2z M50.8,290.4h7
		v7h-7V290.4z M50.8,297.7h7v7h-7V297.7z M50.8,304.9h7v7h-7V304.9z M50.8,312.2h7v7h-7V312.2z M0,341.3h7v7H0V341.3z M0,348.5h7v7
		H0V348.5z M7.3,341.3h7v7h-7V341.3z M7.3,348.5h7v7h-7V348.5z M14.5,341.3h7v7h-7V341.3z M14.5,348.5h7v7h-7V348.5z M14.5,355.8h7
		v7h-7V355.8z M21.8,341.3h7v7h-7V341.3z M21.8,348.5h7v7h-7V348.5z M29.1,341.3h7v7h-7V341.3z M29.1,348.5h7v7h-7V348.5z
		 M36.3,319.5h7v7h-7V319.5z M36.3,334h7v7h-7V334z M36.3,341.3h7v7h-7V341.3z M36.3,348.5h7v7h-7V348.5z M43.6,319.5h7v7h-7V319.5z
		 M43.6,326.7h7v7h-7V326.7z M43.6,334h7v7h-7V334z M43.6,341.3h7v7h-7V341.3z M43.6,348.5h7v7h-7V348.5z M43.6,355.8h7v7h-7V355.8z
		 M50.8,326.7h7v7h-7V326.7z M50.8,334h7v7h-7V334z M50.8,348.5h7v7h-7V348.5z M50.8,355.8h7v7h-7V355.8z M72.6,167h7v7h-7V167z
		 M79.9,152.5h7v7h-7V152.5z M79.9,159.7h7v7h-7V159.7z M87.1,130.7h7v7h-7V130.7z M87.1,138h7v7h-7V138z M87.1,145.2h7v7h-7V145.2z
		 M87.1,167h7v7h-7V167z M94.4,108.9h7v7h-7V108.9z M94.4,116.2h7v7h-7V116.2z M94.4,123.7h7v7h-7V123.7z M94.4,152.5h7v7h-7V152.5z
		 M94.4,159.7h7v7h-7V159.7z M94.4,167h7v7h-7V167z M101.7,94.4h7v7h-7V94.4z M101.7,101.7h7v7h-7V101.7z M101.7,130.7h7v7h-7V130.7
		z M101.7,138h7v7h-7V138z M101.7,145.2h7v7h-7V145.2z M101.7,159.7h7v7h-7V159.7z M108.9,79.9h7v7h-7V79.9z M108.9,87.1h7v7h-7
		V87.1z M108.9,94.4h7v7h-7V94.4z M108.9,116.2h7v7h-7V116.2z M108.9,123.5h7v7h-7V123.5z M108.9,138h7v7h-7V138z M108.9,152.5h7v7
		h-7V152.5z M108.9,167h7v7h-7V167z M116.2,72.6h7v7h-7V72.6z M116.2,79.9h7v7h-7V79.9z M116.2,101.7h7v7h-7V101.7z M116.2,108.9h7
		v7h-7V108.9z M116.2,116.2h7v7h-7V116.2z M116.2,130.7h7v7h-7V130.7z M116.2,145.2h7v7h-7V145.2z M116.2,159.7h7v7h-7V159.7z
		 M123.4,58.1h7v7h-7V58.1z M123.4,65.4h7v7h-7V65.4z M123.4,87.1h7v7h-7V87.1z M123.4,94.4h7v7h-7V94.4z M123.4,101.7h7v7h-7V101.7
		z M123.4,108.9h7v7h-7V108.9z M123.4,123.5h7v7h-7V123.5z M123.4,138h7v7h-7V138z M123.4,152.5h7v7h-7V152.5z M123.4,167h7v7h-7
		V167z M58.1,196.1h7v7h-7V196.1z M58.1,203.3h7v7h-7V203.3z M58.1,210.6h7v7h-7V210.6z M58.1,217.8h7v7h-7V217.8z M58.1,225.1h7v7
		h-7V225.1z M58.1,232.3h7v7h-7V232.3z M65.4,174.3h7v7h-7V174.3z M65.4,181.5h7v7h-7V181.5z M65.4,188.8h7v7h-7V188.8z M65.4,203.3
		h7v7h-7V203.3z M65.4,210.6h7v7h-7V210.6z M65.4,217.8h7v7h-7V217.8z M65.4,232.3h7v7h-7V232.3z M72.6,174.3h7v7h-7V174.3z
		 M72.6,196.1h7v7h-7V196.1z M72.6,203.3h7v7h-7V203.3z M72.6,217.8h7v7h-7V217.8z M72.6,225.1h7v7h-7V225.1z M72.6,232.3h7v7h-7
		V232.3z M72.6,239.6h7v7h-7V239.6z M79.9,181.5h7v7h-7V181.5z M79.9,188.8h7v7h-7V188.8z M79.9,196.1h7v7h-7V196.1z M79.9,203.3h7
		v7h-7V203.3z M79.9,217.8h7v7h-7V217.8z M79.9,232.3h7v7h-7V232.3z M87.1,174.3h7v7h-7V174.3z M87.1,188.8h7v7h-7V188.8z
		 M87.1,203.3h7v7h-7V203.3z M87.1,217.8h7v7h-7V217.8z M87.1,225.1h7v7h-7V225.1z M87.1,232.3h7v7h-7V232.3z M87.1,239.6h7v7h-7
		V239.6z M94.4,181.5h7v7h-7V181.5z M94.4,196.1h7v7h-7V196.1z M94.4,203.3h7v7h-7V203.3z M94.4,217.8h7v7h-7V217.8z M94.4,232.3h7
		v7h-7V232.3z M94.4,239.6h7v7h-7V239.6z M101.7,174.3h7v7h-7V174.3z M101.7,188.8h7v7h-7V188.8z M101.7,203.3h7v7h-7V203.3z
		 M101.7,217.8h7v7h-7V217.8z M101.7,225.1h7v7h-7V225.1z M101.7,232.3h7v7h-7V232.3z M101.7,239.6h7v7h-7V239.6z M108.9,181.5h7v7
		h-7V181.5z M108.9,196.1h7v7h-7V196.1z M108.9,203.3h7v7h-7V203.3z M108.9,217.8h7v7h-7V217.8z M108.9,232.3h7v7h-7V232.3z
		 M108.9,239.6h7v7h-7V239.6z M116.2,174.3h7v7h-7V174.3z M116.2,188.8h7v7h-7V188.8z M116.2,203.3h7v7h-7V203.3z M116.2,217.8h7v7
		h-7V217.8z M116.2,225.1h7v7h-7V225.1z M116.2,232.3h7v7h-7V232.3z M123.4,181.5h7v7h-7V181.5z M123.4,196.1h7v7h-7V196.1z
		 M123.4,203.3h7v7h-7V203.3z M123.4,217.8h7v7h-7V217.8z M123.4,232.3h7v7h-7V232.3z M123.4,239.6h7v7h-7V239.6z M58.1,312.2h7v7
		h-7V312.2z M65.4,312.2h7v7h-7V312.2z M72.6,246.9h7v7h-7V246.9z M72.6,254.1h7v7h-7V254.1z M72.6,261.4h7v7h-7V261.4z M72.6,268.7
		h7v7h-7V268.7z M72.6,275.9h7v7h-7V275.9z M72.6,283.2h7v7h-7V283.2z M72.6,290.4h7v7h-7V290.4z M72.6,297.7h7v7h-7V297.7z
		 M72.6,304.9h7v7h-7V304.9z M72.6,312.2h7v7h-7V312.2z M79.9,312.2h7v7h-7V312.2z M87.1,312.2h7v7h-7V312.2z M94.4,246.9h7v7h-7
		V246.9z M94.4,254.1h7v7h-7V254.1z M94.4,261.4h7v7h-7V261.4z M94.4,268.7h7v7h-7V268.7z M94.4,275.9h7v7h-7V275.9z M94.4,283.2h7
		v7h-7V283.2z M94.4,290.4h7v7h-7V290.4z M94.4,312.2h7v7h-7V312.2z M101.7,254.1h7v7h-7V254.1z M101.7,268.7h7v7h-7V268.7z
		 M101.7,283.2h7v7h-7V283.2z M101.7,290.4h7v7h-7V290.4z M101.7,312.2h7v7h-7V312.2z M108.9,246.9h7v7h-7V246.9z M108.9,254.1h7v7
		h-7V254.1z M108.9,261.4h7v7h-7V261.4z M108.9,268.7h7v7h-7V268.7z M108.9,275.9h7v7h-7V275.9z M108.9,283.2h7v7h-7V283.2z
		 M108.9,290.4h7v7h-7V290.4z M108.9,312.2h7v7h-7V312.2z M116.2,246.9h7v7h-7V246.9z M116.2,261.4h7v7h-7V261.4z M116.2,275.9h7v7
		h-7V275.9z M116.2,290.4h7v7h-7V290.4z M116.2,312.2h7v7h-7V312.2z M123.4,246.9h7v7h-7V246.9z M123.4,254.1h7v7h-7V254.1z
		 M123.4,261.4h7v7h-7V261.4z M123.4,268.7h7v7h-7V268.7z M123.4,275.9h7v7h-7V275.9z M123.4,283.2h7v7h-7V283.2z M123.4,290.4h7v7
		h-7V290.4z M58.1,319.5h7v7h-7V319.5z M58.1,334h7v7h-7V334z M58.1,341.3h7v7h-7V341.3z M58.1,355.8h7v7h-7V355.8z M65.4,326.7h7v7
		h-7V326.7z M65.4,334h7v7h-7V334z M65.4,348.5h7v7h-7V348.5z M65.4,355.8h7v7h-7V355.8z M65.4,370.3h7v7h-7V370.3z M72.6,319.5h7v7
		h-7V319.5z M72.6,326.7h7v7h-7V326.7z M72.6,334h7v7h-7V334z M72.6,341.3h7v7h-7V341.3z M72.6,355.8h7v7h-7V355.8z M72.6,363h7v7
		h-7V363z M72.6,370.3h7v7h-7V370.3z M79.9,326.7h7v7h-7V326.7z M79.9,334h7v7h-7V334z M79.9,348.5h7v7h-7V348.5z M79.9,355.8h7v7
		h-7V355.8z M79.9,363h7v7h-7V363z M79.9,370.3h7v7h-7V370.3z M87.1,319.5h7v7h-7V319.5z M87.1,334h7v7h-7V334z M87.1,341.3h7v7h-7
		V341.3z M87.1,348.5h7v7h-7V348.5z M87.1,355.8h7v7h-7V355.8z M87.1,363h7v7h-7V363z M87.1,370.3h7v7h-7V370.3z M94.4,326.7h7v7h-7
		V326.7z M94.4,334h7v7h-7V334z M94.4,341.3h7v7h-7V341.3z M94.4,348.5h7v7h-7V348.5z M94.4,355.8h7v7h-7V355.8z M94.4,370.3h7v7h-7
		V370.3z M101.7,319.5h7v7h-7V319.5z M101.7,326.7h7v7h-7V326.7z M101.7,334h7v7h-7V334z M101.7,348.5h7v7h-7V348.5z M101.7,363h7v7
		h-7V363z M101.7,370.3h7v7h-7V370.3z M108.9,319.5h7v7h-7V319.5z M108.9,326.7h7v7h-7V326.7z M108.9,341.3h7v7h-7V341.3z
		 M108.9,348.5h7v7h-7V348.5z M108.9,355.8h7v7h-7V355.8z M108.9,370.3h7v7h-7V370.3z M116.2,319.5h7v7h-7V319.5z M116.2,334h7v7h-7
		V334z M116.2,348.5h7v7h-7V348.5z M116.2,363h7v7h-7V363z M116.2,370.3h7v7h-7V370.3z M123.4,319.5h7v7h-7V319.5z M123.4,326.7h7v7
		h-7V326.7z M123.4,341.3h7v7h-7V341.3z M123.4,348.5h7v7h-7V348.5z M123.4,355.8h7v7h-7V355.8z M123.4,370.3h7v7h-7V370.3z
		 M130.7,50.9h7v7h-7V50.9z M130.7,72.6h7v7h-7V72.6z M130.7,79.9h7v7h-7V79.9z M130.7,87.1h7v7h-7V87.1z M130.7,101.7h7v7h-7V101.7
		z M130.7,116.2h7v7h-7V116.2z M130.7,130.7h7v7h-7V130.7z M130.7,138h7v7h-7V138z M130.7,145.2h7v7h-7V145.2z M130.7,152.5h7v7h-7
		V152.5z M130.7,159.7h7v7h-7V159.7z M130.7,167h7v7h-7V167z M138,36.3h7v7h-7V36.3z M138,43.6h7v7h-7V43.6z M138,58.1h7v7h-7V58.1z
		 M138,65.4h7v7h-7V65.4z M138,72.6h7v7h-7V72.6z M138,79.9h7v7h-7V79.9z M138,94.4h7v7h-7V94.4z M138,108.9h7v7h-7V108.9z
		 M138,123.5h7v7h-7V123.5z M138,138h7v7h-7V138z M138,145.2h7v7h-7V145.2z M138,152.5h7v7h-7V152.5z M138,159.7h7v7h-7V159.7z
		 M138,167h7v7h-7V167z M145.2,36.3h7v7h-7V36.3z M145.2,50.9h7v7h-7V50.9z M145.2,65.4h7v7h-7V65.4z M145.2,72.6h7v7h-7V72.6z
		 M145.2,87.1h7v7h-7V87.1z M145.2,94.4h7v7h-7V94.4z M145.2,101.7h7v7h-7V101.7z M145.2,116.2h7v7h-7V116.2z M145.2,130.7h7v7h-7
		V130.7z M145.2,138h7v7h-7V138z M145.2,145.2h7v7h-7V145.2z M145.2,152.5h7v7h-7V152.5z M145.2,159.7h7v7h-7V159.7z M145.2,167h7v7
		h-7V167z M152.5,36.3h7v7h-7V36.3z M152.5,43.6h7v7h-7V43.6z M152.5,58.1h7v7h-7V58.1z M152.5,72.6h7v7h-7V72.6z M152.5,79.9h7v7
		h-7V79.9z M152.5,94.4h7v7h-7V94.4z M152.5,108.9h7v7h-7V108.9z M152.5,123.5h7v7h-7V123.5z M152.5,138h7v7h-7V138z M152.5,145.2h7
		v7h-7V145.2z M152.5,152.5h7v7h-7V152.5z M152.5,159.7h7v7h-7V159.7z M152.5,167h7v7h-7V167z M159.7,36.3h7v7h-7V36.3z M159.7,43.6
		h7v7h-7V43.6z M159.7,50.9h7v7h-7V50.9z M159.7,58.1h7v7h-7V58.1z M159.7,65.4h7v7h-7V65.4z M159.7,87.1h7v7h-7V87.1z M159.7,94.4
		h7v7h-7V94.4z M159.7,101.7h7v7h-7V101.7z M159.7,116.2h7v7h-7V116.2z M159.7,130.7h7v7h-7V130.7z M159.7,138h7v7h-7V138z
		 M159.7,145.2h7v7h-7V145.2z M159.7,152.5h7v7h-7V152.5z M159.7,159.7h7v7h-7V159.7z M159.7,167h7v7h-7V167z M167,36.3h7v7h-7V36.3
		z M167,43.6h7v7h-7V43.6z M167,50.9h7v7h-7V50.9z M167,58.1h7v7h-7V58.1z M167,65.4h7v7h-7V65.4z M167,72.6h7v7h-7V72.6z M167,79.9
		h7v7h-7V79.9z M167,94.4h7v7h-7V94.4z M167,101.7h7v7h-7V101.7z M167,108.9h7v7h-7V108.9z M167,116.2h7v7h-7V116.2z M167,123.5h7v7
		h-7V123.5z M167,138h7v7h-7V138z M167,152.5h7v7h-7V152.5z M167,167h7v7h-7V167z M174.3,36.3h7v7h-7V36.3z M174.3,43.6h7v7h-7V43.6
		z M174.3,50.9h7v7h-7V50.9z M174.3,58.1h7v7h-7V58.1z M174.3,65.4h7v7h-7V65.4z M174.3,72.6h7v7h-7V72.6z M174.3,79.9h7v7h-7V79.9z
		 M174.3,87.1h7v7h-7V87.1z M174.3,108.9h7v7h-7V108.9z M174.3,116.2h7v7h-7V116.2z M174.3,123.5h7v7h-7V123.5z M174.3,130.7h7v7h-7
		V130.7z M174.3,145.2h7v7h-7V145.2z M174.3,159.7h7v7h-7V159.7z M181.5,36.3h7v7h-7V36.3z M181.5,43.6h7v7h-7V43.6z M181.5,50.9h7
		v7h-7V50.9z M181.5,58.1h7v7h-7V58.1z M181.5,65.4h7v7h-7V65.4z M181.5,72.6h7v7h-7V72.6z M181.5,79.9h7v7h-7V79.9z M181.5,87.1h7
		v7h-7V87.1z M181.5,94.4h7v7h-7V94.4z M181.5,101.7h7v7h-7V101.7z M181.5,123.5h7v7h-7V123.5z M181.5,130.7h7v7h-7V130.7z
		 M181.5,138h7v7h-7V138z M181.5,145.2h7v7h-7V145.2z M181.5,152.5h7v7h-7V152.5z M181.5,167h7v7h-7V167z M188.8,36.3h7v7h-7V36.3z
		 M188.8,43.6h7v7h-7V43.6z M188.8,50.9h7v7h-7V50.9z M188.8,58.1h7v7h-7V58.1z M188.8,65.4h7v7h-7V65.4z M188.8,72.6h7v7h-7V72.6z
		 M188.8,79.9h7v7h-7V79.9z M188.8,87.1h7v7h-7V87.1z M188.8,94.4h7v7h-7V94.4z M188.8,101.7h7v7h-7V101.7z M188.8,108.9h7v7h-7
		V108.9z M188.8,116.2h7v7h-7V116.2z M188.8,145.2h7v7h-7V145.2z M188.8,159.7h7v7h-7V159.7z M196,36.3h7v7h-7V36.3z M196,43.6h7v7
		h-7V43.6z M196,50.9h7v7h-7V50.9z M196,58.1h7v7h-7V58.1z M196,65.4h7v7h-7V65.4z M196,72.6h7v7h-7V72.6z M196,79.9h7v7h-7V79.9z
		 M196,87.1h7v7h-7V87.1z M196,94.4h7v7h-7V94.4z M196,101.7h7v7h-7V101.7z M196,108.9h7v7h-7V108.9z M196,116.2h7v7h-7V116.2z
		 M196,123.5h7v7h-7V123.5z M196,130.7h7v7h-7V130.7z M196,152.5h7v7h-7V152.5z M196,159.7h7v7h-7V159.7z M196,167h7v7h-7V167z
		 M130.7,174.3h7v7h-7V174.3z M130.7,181.5h7v7h-7V181.5z M130.7,188.8h7v7h-7V188.8z M130.7,203.3h7v7h-7V203.3z M130.7,217.8h7v7
		h-7V217.8z M130.7,225.1h7v7h-7V225.1z M130.7,232.3h7v7h-7V232.3z M138,174.3h7v7h-7V174.3z M138,181.5h7v7h-7V181.5z M138,188.8
		h7v7h-7V188.8z M138,196.1h7v7h-7V196.1z M138,203.3h7v7h-7V203.3z M138,217.8h7v7h-7V217.8z M138,232.3h7v7h-7V232.3z M138,239.6
		h7v7h-7V239.6z M145.2,174.3h7v7h-7V174.3z M145.2,181.5h7v7h-7V181.5z M145.2,188.8h7v7h-7V188.8z M145.2,203.3h7v7h-7V203.3z
		 M145.2,217.8h7v7h-7V217.8z M145.2,225.1h7v7h-7V225.1z M145.2,232.3h7v7h-7V232.3z M145.2,239.6h7v7h-7V239.6z M152.5,174.3h7v7
		h-7V174.3z M152.5,181.5h7v7h-7V181.5z M152.5,188.8h7v7h-7V188.8z M152.5,196.1h7v7h-7V196.1z M152.5,203.3h7v7h-7V203.3z
		 M152.5,217.8h7v7h-7V217.8z M152.5,232.3h7v7h-7V232.3z M152.5,239.6h7v7h-7V239.6z M159.7,174.3h7v7h-7V174.3z M159.7,181.5h7v7
		h-7V181.5z M159.7,188.8h7v7h-7V188.8z M159.7,203.3h7v7h-7V203.3z M159.7,217.8h7v7h-7V217.8z M159.7,225.1h7v7h-7V225.1z
		 M159.7,232.3h7v7h-7V232.3z M159.7,239.6h7v7h-7V239.6z M167,181.5h7v7h-7V181.5z M167,196.1h7v7h-7V196.1z M167,203.3h7v7h-7
		V203.3z M167,217.8h7v7h-7V217.8z M167,232.3h7v7h-7V232.3z M174.3,174.3h7v7h-7V174.3z M174.3,188.8h7v7h-7V188.8z M174.3,203.3h7
		v7h-7V203.3z M174.3,217.8h7v7h-7V217.8z M174.3,225.1h7v7h-7V225.1z M174.3,232.3h7v7h-7V232.3z M174.3,239.6h7v7h-7V239.6z
		 M181.5,181.5h7v7h-7V181.5z M181.5,196.1h7v7h-7V196.1z M181.5,203.3h7v7h-7V203.3z M181.5,217.8h7v7h-7V217.8z M181.5,232.3h7v7
		h-7V232.3z M181.5,239.6h7v7h-7V239.6z M188.8,174.3h7v7h-7V174.3z M188.8,188.8h7v7h-7V188.8z M188.8,203.3h7v7h-7V203.3z
		 M188.8,217.8h7v7h-7V217.8z M188.8,225.1h7v7h-7V225.1z M188.8,232.3h7v7h-7V232.3z M188.8,239.6h7v7h-7V239.6z M196,181.5h7v7h-7
		V181.5z M196,196.1h7v7h-7V196.1z M196,203.3h7v7h-7V203.3z M196,217.8h7v7h-7V217.8z M196,232.3h7v7h-7V232.3z M196,239.6h7v7h-7
		V239.6z M138,254.1h7v7h-7V254.1z M138,261.4h7v7h-7V261.4z M138,268.7h7v7h-7V268.7z M138,275.9h7v7h-7V275.9z M138,283.2h7v7h-7
		V283.2z M138,290.4h7v7h-7V290.4z M138,297.7h7v7h-7V297.7z M138,304.9h7v7h-7V304.9z M138,312.2h7v7h-7V312.2z M145.2,254.1h7v7
		h-7V254.1z M145.2,268.7h7v7h-7V268.7z M145.2,290.4h7v7h-7V290.4z M145.2,304.9h7v7h-7V304.9z M152.5,254.1h7v7h-7V254.1z
		 M152.5,261.4h7v7h-7V261.4z M152.5,275.9h7v7h-7V275.9z M152.5,283.2h7v7h-7V283.2z M152.5,297.7h7v7h-7V297.7z M152.5,312.2h7v7
		h-7V312.2z M159.7,254.1h7v7h-7V254.1z M159.7,261.4h7v7h-7V261.4z M159.7,268.7h7v7h-7V268.7z M159.7,275.9h7v7h-7V275.9z
		 M159.7,283.2h7v7h-7V283.2z M159.7,290.4h7v7h-7V290.4z M159.7,297.7h7v7h-7V297.7z M159.7,304.9h7v7h-7V304.9z M159.7,312.2h7v7
		h-7V312.2z M174.3,246.9h7v7h-7V246.9z M174.3,254.1h7v7h-7V254.1z M174.3,261.4h7v7h-7V261.4z M174.3,268.7h7v7h-7V268.7z
		 M174.3,275.9h7v7h-7V275.9z M174.3,283.2h7v7h-7V283.2z M174.3,290.4h7v7h-7V290.4z M174.3,297.7h7v7h-7V297.7z M174.3,312.2h7v7
		h-7V312.2z M181.5,246.9h7v7h-7V246.9z M181.5,261.4h7v7h-7V261.4z M181.5,275.9h7v7h-7V275.9z M181.5,290.4h7v7h-7V290.4z
		 M181.3,297.7h7v7h-7V297.7z M181.5,312.2h7v7h-7V312.2z M188.8,254.1h7v7h-7V254.1z M188.8,268.7h7v7h-7V268.7z M188.8,283.2h7v7
		h-7V283.2z M188.8,297.7h7v7h-7V297.7z M188.8,312.2h7v7h-7V312.2z M196,246.9h7v7h-7V246.9z M196,254.1h7v7h-7V254.1z M196,261.4
		h7v7h-7V261.4z M196,268.7h7v7h-7V268.7z M196,275.9h7v7h-7V275.9z M196,283.2h7v7h-7V283.2z M196,290.4h7v7h-7V290.4z M196,297.7
		h7v7h-7V297.7z M196,312.2h7v7h-7V312.2z M130.7,319.5h7v7h-7V319.5z M130.7,334h7v7h-7V334z M130.7,348.5h7v7h-7V348.5z
		 M130.7,363h7v7h-7V363z M130.7,370.3h7v7h-7V370.3z M138,319.5h7v7h-7V319.5z M138,326.7h7v7h-7V326.7z M138,341.3h7v7h-7V341.3z
		 M138,348.5h7v7h-7V348.5z M138,355.8h7v7h-7V355.8z M138,363h7v7h-7V363z M138,370.3h7v7h-7V370.3z M145.2,319.5h7v7h-7V319.5z
		 M145.2,334h7v7h-7V334z M145.2,348.5h7v7h-7V348.5z M145.2,355.8h7v7h-7V355.8z M145.2,363h7v7h-7V363z M145.2,370.3h7v7h-7V370.3
		z M152.5,326.7h7v7h-7V326.7z M152.5,334h7v7h-7V334z M152.5,341.3h7v7h-7V341.3z M152.5,348.5h7v7h-7V348.5z M152.5,370.3h7v7h-7
		V370.3z M159.7,319.5h7v7h-7V319.5z M159.7,326.7h7v7h-7V326.7z M159.7,334h7v7h-7V334z M159.7,355.8h7v7h-7V355.8z M159.7,363h7v7
		h-7V363z M159.7,370.3h7v7h-7V370.3z M167,341.3h7v7h-7V341.3z M167,348.5h7v7h-7V348.5z M167,355.8h7v7h-7V355.8z M167,363h7v7h-7
		V363z M167,370.3h7v7h-7V370.3z M174.3,319.5h7v7h-7V319.5z M174.3,326.7h7v7h-7V326.7z M174.3,334h7v7h-7V334z M174.3,341.3h7v7
		h-7V341.3z M174.3,348.5h7v7h-7V348.5z M174.3,355.8h7v7h-7V355.8z M174.3,363h7v7h-7V363z M174.3,370.3h7v7h-7V370.3z
		 M181.5,326.7h7v7h-7V326.7z M181.5,334h7v7h-7V334z M181.5,348.5h7v7h-7V348.5z M181.5,363h7v7h-7V363z M181.5,370.3h7v7h-7V370.3
		z M188.8,319.5h7v7h-7V319.5z M188.8,334h7v7h-7V334z M188.8,341.3h7v7h-7V341.3z M188.8,355.8h7v7h-7V355.8z M188.8,363h7v7h-7
		V363z M188.8,370.3h7v7h-7V370.3z M196,326.7h7v7h-7V326.7z M196,334h7v7h-7V334z M196,348.5h7v7h-7V348.5z M196,363h7v7h-7V363z
		 M196,370.3h7v7h-7V370.3z M203.3,36.3h7v7h-7V36.3z M203.3,50.9h7v7h-7V50.9z M203.3,58.1h7v7h-7V58.1z M203.3,72.6h7v7h-7V72.6z
		 M203.3,87.1h7v7h-7V87.1z M203.3,101.7h7v7h-7V101.7z M203.3,108.9h7v7h-7V108.9z M203.3,116.2h7v7h-7V116.2z M203.3,123.5h7v7h-7
		V123.5z M203.3,130.7h7v7h-7V130.7z M203.3,138h7v7h-7V138z M203.3,145.2h7v7h-7V145.2z M203.3,167h7v7h-7V167z M210.6,36.3h7v7h-7
		V36.3z M210.6,43.6h7v7h-7V43.6z M210.6,58.1h7v7h-7V58.1z M210.6,65.4h7v7h-7V65.4z M210.6,79.9h7v7h-7V79.9z M210.6,94.4h7v7h-7
		V94.4z M210.6,108.9h7v7h-7V108.9z M210.6,116.2h7v7h-7V116.2z M210.6,123.5h7v7h-7V123.5z M210.6,130.7h7v7h-7V130.7z M210.6,138
		h7v7h-7V138z M210.6,145.2h7v7h-7V145.2z M210.6,152.5h7v7h-7V152.5z M210.6,159.7h7v7h-7V159.7z M217.8,36.3h7v7h-7V36.3z
		 M217.8,43.6h7v7h-7V43.6z M217.8,50.9h7v7h-7V50.9z M217.8,65.4h7v7h-7V65.4z M217.8,72.6h7v7h-7V72.6z M217.8,87.1h7v7h-7V87.1z
		 M217.8,101.7h7v7h-7V101.7z M217.8,116.2h7v7h-7V116.2z M217.8,123.5h7v7h-7V123.5z M217.8,130.7h7v7h-7V130.7z M217.8,138h7v7h-7
		V138z M217.8,145.2h7v7h-7V145.2z M217.8,152.5h7v7h-7V152.5z M217.8,159.7h7v7h-7V159.7z M217.8,167h7v7h-7V167z M225.1,36.3h7v7
		h-7V36.3z M225.1,43.6h7v7h-7V43.6z M225.1,50.9h7v7h-7V50.9z M225.1,58.1h7v7h-7V58.1z M225.1,72.6h7v7h-7V72.6z M225.1,79.9h7v7
		h-7V79.9z M225.1,94.4h7v7h-7V94.4z M225.1,108.9h7v7h-7V108.9z M225.1,123.5h7v7h-7V123.5z M225.1,138h7v7h-7V138z M225.1,145.2h7
		v7h-7V145.2z M225.1,152.5h7v7h-7V152.5z M225.1,159.7h7v7h-7V159.7z M225.1,167h7v7h-7V167z M232.3,7.3h7v7h-7V7.3z M232.3,14.5h7
		v7h-7V14.5z M232.3,36.3h7v7h-7V36.3z M232.3,43.6h7v7h-7V43.6z M232.3,50.9h7v7h-7V50.9z M232.3,58.1h7v7h-7V58.1z M232.3,65.4h7
		v7h-7V65.4z M232.3,79.9h7v7h-7V79.9z M232.3,87.1h7v7h-7V87.1z M232.3,101.7h7v7h-7V101.7z M232.3,116.2h7v7h-7V116.2z
		 M232.3,130.7h7v7h-7V130.7z M232.3,145.2h7v7h-7V145.2z M232.3,152.5h7v7h-7V152.5z M232.3,159.7h7v7h-7V159.7z M232.3,167h7v7h-7
		V167z M239.6,0h7v7h-7V0z M239.6,7.3h7v7h-7V7.3z M239.6,14.5h7v7h-7V14.5z M239.6,21.8h7v7h-7V21.8z M239.6,29.1h7v7h-7V29.1z
		 M239.6,36.3h7v7h-7V36.3z M239.6,43.6h7v7h-7V43.6z M239.6,50.9h7v7h-7V50.9z M239.6,58.1h7v7h-7V58.1z M239.6,65.4h7v7h-7V65.4z
		 M239.6,72.6h7v7h-7V72.6z M239.6,87.1h7v7h-7V87.1z M239.6,94.4h7v7h-7V94.4z M239.6,108.9h7v7h-7V108.9z M239.6,123.5h7v7h-7
		V123.5z M239.6,138h7v7h-7V138z M239.6,152.5h7v7h-7V152.5z M239.6,159.7h7v7h-7V159.7z M239.6,167h7v7h-7V167z M246.9,0h7v7h-7V0z
		 M246.9,7.3h7v7h-7V7.3z M246.9,14.5h7v7h-7V14.5z M246.9,21.8h7v7h-7V21.8z M246.9,29.1h7v7h-7V29.1z M246.9,36.3h7v7h-7V36.3z
		 M246.9,43.6h7v7h-7V43.6z M246.9,50.9h7v7h-7V50.9z M246.9,58.1h7v7h-7V58.1z M246.9,65.4h7v7h-7V65.4z M246.9,72.6h7v7h-7V72.6z
		 M246.9,79.9h7v7h-7V79.9z M246.9,94.4h7v7h-7V94.4z M246.9,101.7h7v7h-7V101.7z M246.9,116.2h7v7h-7V116.2z M246.9,130.7h7v7h-7
		V130.7z M246.9,145.2h7v7h-7V145.2z M246.9,159.7h7v7h-7V159.7z M254.1,0h7v7h-7V0z M254.1,7.3h7v7h-7V7.3z M254.1,14.5h7v7h-7
		V14.5z M254.1,21.8h7v7h-7V21.8z M254.1,29.1h7v7h-7V29.1z M254.1,36.3h7v7h-7V36.3z M254.1,43.6h7v7h-7V43.6z M254.1,50.9h7v7h-7
		V50.9z M254.1,58.1h7v7h-7V58.1z M254.1,65.4h7v7h-7V65.4z M254.1,72.6h7v7h-7V72.6z M254.1,79.9h7v7h-7V79.9z M254.1,87.1h7v7h-7
		V87.1z M254.1,101.7h7v7h-7V101.7z M254.1,108.9h7v7h-7V108.9z M254.1,116.2h7v7h-7V116.2z M254.1,123.5h7v7h-7V123.5z M254.1,138
		h7v7h-7V138z M254.1,152.5h7v7h-7V152.5z M254.1,167h7v7h-7V167z M261.4,0h7v7h-7V0z M261.4,7.3h7v7h-7V7.3z M261.4,14.5h7v7h-7
		V14.5z M261.4,21.8h7v7h-7V21.8z M261.4,29.1h7v7h-7V29.1z M261.4,36.3h7v7h-7V36.3z M261.4,43.6h7v7h-7V43.6z M261.4,50.9h7v7h-7
		V50.9z M261.4,58.1h7v7h-7V58.1z M261.4,65.4h7v7h-7V65.4z M261.4,72.6h7v7h-7V72.6z M261.4,79.9h7v7h-7V79.9z M261.4,87.1h7v7h-7
		V87.1z M261.4,101.7h7v7h-7V101.7z M261.4,108.9h7v7h-7V108.9z M261.4,116.2h7v7h-7V116.2z M261.4,123.5h7v7h-7V123.5z
		 M261.4,130.7h7v7h-7V130.7z M261.4,138h7v7h-7V138z M261.4,145.2h7v7h-7V145.2z M261.4,152.5h7v7h-7V152.5z M261.4,159.7h7v7h-7
		V159.7z M261.4,167h7v7h-7V167z M268.6,0h7v7h-7V0z M268.6,7.3h7v7h-7V7.3z M268.6,14.5h7v7h-7V14.5z M268.6,21.8h7v7h-7V21.8z
		 M268.6,29.1h7v7h-7V29.1z M268.6,36.3h7v7h-7V36.3z M268.6,43.6h7v7h-7V43.6z M268.6,50.9h7v7h-7V50.9z M268.6,58.1h7v7h-7V58.1z
		 M268.6,65.4h7v7h-7V65.4z M268.6,72.6h7v7h-7V72.6z M268.6,79.9h7v7h-7V79.9z M268.6,87.1h7v7h-7V87.1z M268.6,94.4h7v7h-7V94.4z
		 M268.6,101.7h7v7h-7V101.7z M268.6,108.9h7v7h-7V108.9z M268.6,116.2h7v7h-7V116.2z M268.6,123.5h7v7h-7V123.5z M268.6,130.7h7v7
		h-7V130.7z M268.6,138h7v7h-7V138z M268.6,145.2h7v7h-7V145.2z M268.6,152.5h7v7h-7V152.5z M268.6,159.7h7v7h-7V159.7z M268.6,167
		h7v7h-7V167z M203.3,174.3h7v7h-7V174.3z M203.3,181.5h7v7h-7V181.5z M203.3,188.8h7v7h-7V188.8z M203.3,203.3h7v7h-7V203.3z
		 M203.3,217.8h7v7h-7V217.8z M203.3,232.3h7v7h-7V232.3z M210.6,181.5h7v7h-7V181.5z M210.6,188.8h7v7h-7V188.8z M210.6,196.1h7v7
		h-7V196.1z M210.6,203.3h7v7h-7V203.3z M210.6,225.1h7v7h-7V225.1z M210.6,232.3h7v7h-7V232.3z M217.8,174.3h7v7h-7V174.3z
		 M217.8,196.1h7v7h-7V196.1z M217.8,203.3h7v7h-7V203.3z M217.8,217.8h7v7h-7V217.8z M217.8,225.1h7v7h-7V225.1z M217.8,232.3h7v7
		h-7V232.3z M225.1,174.3h7v7h-7V174.3z M225.1,181.5h7v7h-7V181.5z M225.1,188.8h7v7h-7V188.8z M225.1,203.3h7v7h-7V203.3z
		 M225.1,210.6h7v7h-7V210.6z M225.1,217.8h7v7h-7V217.8z M225.1,232.3h7v7h-7V232.3z M225.1,239.6h7v7h-7V239.6z M232.3,174.3h7v7
		h-7V174.3z M232.3,181.5h7v7h-7V181.5z M232.3,188.8h7v7h-7V188.8z M232.3,196.1h7v7h-7V196.1z M232.3,210.6h7v7h-7V210.6z
		 M232.3,217.8h7v7h-7V217.8z M232.3,225.1h7v7h-7V225.1z M239.6,174.3h7v7h-7V174.3z M239.6,181.5h7v7h-7V181.5z M239.6,188.8h7v7
		h-7V188.8z M239.6,196.1h7v7h-7V196.1z M239.6,203.3h7v7h-7V203.3z M239.6,217.8h7v7h-7V217.8z M239.6,232.3h7v7h-7V232.3z
		 M239.6,239.6h7v7h-7V239.6z M246.9,174.3h7v7h-7V174.3z M246.9,181.5h7v7h-7V181.5z M246.9,188.8h7v7h-7V188.8z M246.9,196.1h7v7
		h-7V196.1z M246.9,203.3h7v7h-7V203.3z M246.9,210.6h7v7h-7V210.6z M246.9,217.8h7v7h-7V217.8z M246.9,232.3h7v7h-7V232.3z
		 M254.1,181.5h7v7h-7V181.5z M254.1,188.8h7v7h-7V188.8z M254.1,196.1h7v7h-7V196.1z M254.1,203.3h7v7h-7V203.3z M254.1,217.8h7v7
		h-7V217.8z M254.1,232.3h7v7h-7V232.3z M254.1,239.6h7v7h-7V239.6z M261.4,174.3h7v7h-7V174.3z M261.4,181.5h7v7h-7V181.5z
		 M261.4,188.8h7v7h-7V188.8z M261.4,196.1h7v7h-7V196.1z M261.4,203.3h7v7h-7V203.3z M261.4,210.6h7v7h-7V210.6z M261.4,217.8h7v7
		h-7V217.8z M261.4,232.3h7v7h-7V232.3z M268.6,174.3h7v7h-7V174.3z M268.6,181.5h7v7h-7V181.5z M268.6,188.8h7v7h-7V188.8z
		 M268.6,196.1h7v7h-7V196.1z M268.6,203.3h7v7h-7V203.3z M268.6,217.8h7v7h-7V217.8z M268.6,225.1h7v7h-7V225.1z M268.6,232.3h7v7
		h-7V232.3z M268.6,239.6h7v7h-7V239.6z M203.3,312.2h7v7h-7V312.2z M210.6,312.2h7v7h-7V312.2z M217.8,312.2h7v7h-7V312.2z
		 M225.1,246.9h7v7h-7V246.9z M225.1,254.1h7v7h-7V254.1z M225.1,261.4h7v7h-7V261.4z M225.1,268.7h7v7h-7V268.7z M225.1,275.9h7v7
		h-7V275.9z M225.1,283.2h7v7h-7V283.2z M225.1,290.4h7v7h-7V290.4z M225.1,297.7h7v7h-7V297.7z M225.1,304.9h7v7h-7V304.9z
		 M225.1,312.2h7v7h-7V312.2z M239.6,246.9h7v7h-7V246.9z M239.6,254.1h7v7h-7V254.1z M239.6,261.4h7v7h-7V261.4z M239.6,268.7h7v7
		h-7V268.7z M239.6,275.9h7v7h-7V275.9z M239.6,283.2h7v7h-7V283.2z M239.6,290.4h7v7h-7V290.4z M246.9,246.9h7v7h-7V246.9z
		 M246.9,261.4h7v7h-7V261.4z M246.9,275.9h7v7h-7V275.9z M246.9,290.4h7v7h-7V290.4z M254.1,246.9h7v7h-7V246.9z M254.1,254.1h7v7
		h-7V254.1z M254.1,261.4h7v7h-7V261.4z M254.1,268.7h7v7h-7V268.7z M254.1,275.9h7v7h-7V275.9z M254.1,283.2h7v7h-7V283.2z
		 M254.1,290.4h7v7h-7V290.4z M261.4,246.9h7v7h-7V246.9z M261.4,261.4h7v7h-7V261.4z M261.4,290.4h7v7h-7V290.4z M268.6,246.9h7v7
		h-7V246.9z M268.6,254.1h7v7h-7V254.1z M268.6,261.4h7v7h-7V261.4z M268.6,268.7h7v7h-7V268.7z M268.6,275.9h7v7h-7V275.9z
		 M268.6,283.2h7v7h-7V283.2z M268.6,290.4h7v7h-7V290.4z M203.3,326.7h7v7h-7V326.7z M203.3,334h7v7h-7V334z M203.3,341.3h7v7h-7
		V341.3z M203.3,355.8h7v7h-7V355.8z M203.3,363h7v7h-7V363z M203.3,370.3h7v7h-7V370.3z M210.6,319.5h7v7h-7V319.5z M210.6,334h7v7
		h-7V334z M210.6,348.5h7v7h-7V348.5z M210.6,363h7v7h-7V363z M210.6,370.3h7v7h-7V370.3z M217.8,326.7h7v7h-7V326.7z M217.8,334h7
		v7h-7V334z M217.8,341.3h7v7h-7V341.3z M217.8,348.5h7v7h-7V348.5z M217.8,355.8h7v7h-7V355.8z M217.8,363h7v7h-7V363z
		 M217.8,370.3h7v7h-7V370.3z M225.1,319.5h7v7h-7V319.5z M225.1,326.7h7v7h-7V326.7z M225.1,341.3h7v7h-7V341.3z M225.1,348.5h7v7
		h-7V348.5z M225.1,355.8h7v7h-7V355.8z M225.1,363h7v7h-7V363z M225.1,370.3h7v7h-7V370.3z M232.3,319.5h7v7h-7V319.5z M232.3,334
		h7v7h-7V334z M232.3,341.3h7v7h-7V341.3z M232.3,348.5h7v7h-7V348.5z M232.3,363h7v7h-7V363z M232.3,370.3h7v7h-7V370.3z
		 M239.6,319.5h7v7h-7V319.5z M239.6,326.7h7v7h-7V326.7z M239.6,341.3h7v7h-7V341.3z M239.6,355.8h7v7h-7V355.8z M239.6,363h7v7h-7
		V363z M239.6,370.3h7v7h-7V370.3z M246.9,319.5h7v7h-7V319.5z M246.9,334h7v7h-7V334z M246.9,341.3h7v7h-7V341.3z M246.9,348.5h7v7
		h-7V348.5z M246.9,355.8h7v7h-7V355.8z M246.9,363h7v7h-7V363z M246.9,370.3h7v7h-7V370.3z M254.1,319.5h7v7h-7V319.5z
		 M254.1,326.7h7v7h-7V326.7z M254.1,334h7v7h-7V334z M254.1,341.3h7v7h-7V341.3z M254.1,355.8h7v7h-7V355.8z M254.1,363h7v7h-7V363
		z M254.1,370.3h7v7h-7V370.3z M261.4,319.5h7v7h-7V319.5z M261.4,334h7v7h-7V334z M261.4,348.5h7v7h-7V348.5z M261.4,355.8h7v7h-7
		V355.8z M261.4,363h7v7h-7V363z M261.4,370.3h7v7h-7V370.3z M268.6,319.5h7v7h-7V319.5z M268.6,326.7h7v7h-7V326.7z M268.6,334h7v7
		h-7V334z M268.6,341.3h7v7h-7V341.3z M268.6,348.5h7v7h-7V348.5z M268.6,355.8h7v7h-7V355.8z M275.9,0h7v7h-7V0z M275.9,7.3h7v7h-7
		V7.3z M275.9,14.5h7v7h-7V14.5z M275.9,21.8h7v7h-7V21.8z M275.9,29.1h7v7h-7V29.1z M275.9,36.3h7v7h-7V36.3z M275.9,43.6h7v7h-7
		V43.6z M275.9,50.9h7v7h-7V50.9z M275.9,58.1h7v7h-7V58.1z M275.9,65.4h7v7h-7V65.4z M275.9,72.6h7v7h-7V72.6z M275.9,79.9h7v7h-7
		V79.9z M275.9,87.1h7v7h-7V87.1z M275.9,94.4h7v7h-7V94.4z M275.9,101.7h7v7h-7V101.7z M275.9,108.9h7v7h-7V108.9z M275.9,116.2h7
		v7h-7V116.2z M275.9,123.5h7v7h-7V123.5z M275.9,145.2h7v7h-7V145.2z M283.2,7.3h7v7h-7V7.3z M283.2,14.5h7v7h-7V14.5z M283.2,58.1
		h7v7h-7V58.1z M283.2,65.4h7v7h-7V65.4z M283.2,72.6h7v7h-7V72.6z M283.2,79.9h7v7h-7V79.9z M283.2,87.1h7v7h-7V87.1z M283.2,94.4
		h7v7h-7V94.4z M283.2,108.9h7v7h-7V108.9z M283.2,116.2h7v7h-7V116.2z M283.2,123.5h7v7h-7V123.5z M283.2,145.2h7v7h-7V145.2z
		 M290.4,72.6h7v7h-7V72.6z M290.4,79.9h7v7h-7V79.9z M290.4,87.1h7v7h-7V87.1z M290.4,94.4h7v7h-7V94.4z M290.4,101.7h7v7h-7V101.7
		z M290.4,108.9h7v7h-7V108.9z M290.4,116.2h7v7h-7V116.2z M290.4,123.5h7v7h-7V123.5z M290.4,130.7h7v7h-7V130.7z M290.4,138h7v7
		h-7V138z M290.4,145.2h7v7h-7V145.2z M290.4,152.5h7v7h-7V152.5z M290.4,159.7h7v7h-7V159.7z M290.4,167h7v7h-7V167z M297.7,79.9h7
		v7h-7V79.9z M297.7,87.1h7v7h-7V87.1z M297.7,94.4h7v7h-7V94.4z M297.7,108.9h7v7h-7V108.9z M297.7,116.2h7v7h-7V116.2z
		 M297.7,123.5h7v7h-7V123.5z M297.7,145.2h7v7h-7V145.2z M304.9,87.1h7v7h-7V87.1z M304.9,94.4h7v7h-7V94.4z M304.9,108.9h7v7h-7
		V108.9z M304.9,116.2h7v7h-7V116.2z M304.9,123.5h7v7h-7V123.5z M304.9,145.2h7v7h-7V145.2z M312.2,101.7h7v7h-7V101.7z
		 M312.2,108.9h7v7h-7V108.9z M312.2,116.2h7v7h-7V116.2z M312.2,123.5h7v7h-7V123.5z M312.2,130.7h7v7h-7V130.7z M312.2,138h7v7h-7
		V138z M312.2,145.2h7v7h-7V145.2z M312.2,152.5h7v7h-7V152.5z M312.2,159.7h7v7h-7V159.7z M312.2,167h7v7h-7V167z M319.5,108.9h7v7
		h-7V108.9z M319.5,138h7v7h-7V138z M319.5,145.2h7v7h-7V145.2z M319.5,152.5h7v7h-7V152.5z M319.5,159.7h7v7h-7V159.7z M319.5,167
		h7v7h-7V167z M326.7,152.5h7v7h-7V152.5z M326.7,159.7h7v7h-7V159.7z M326.7,167h7v7h-7V167z M334,167h7v7h-7V167z M275.9,174.3h7
		v7h-7V174.3z M275.9,181.5h7v7h-7V181.5z M275.9,188.8h7v7h-7V188.8z M275.9,196.1h7v7h-7V196.1z M275.9,203.3h7v7h-7V203.3z
		 M275.9,210.6h7v7h-7V210.6z M275.9,217.8h7v7h-7V217.8z M283.2,174.3h7v7h-7V174.3z M283.2,181.5h7v7h-7V181.5z M283.2,188.8h7v7
		h-7V188.8z M283.2,196.1h7v7h-7V196.1z M283.2,203.3h7v7h-7V203.3z M283.2,217.8h7v7h-7V217.8z M283.2,225.1h7v7h-7V225.1z
		 M283.2,232.3h7v7h-7V232.3z M283.2,239.6h7v7h-7V239.6z M290.4,174.3h7v7h-7V174.3z M290.4,181.5h7v7h-7V181.5z M290.4,188.8h7v7
		h-7V188.8z M290.4,196.1h7v7h-7V196.1z M290.4,203.3h7v7h-7V203.3z M290.4,210.6h7v7h-7V210.6z M290.4,217.8h7v7h-7V217.8z
		 M290.4,232.3h7v7h-7V232.3z M297.7,174.3h7v7h-7V174.3z M297.7,181.5h7v7h-7V181.5z M297.7,188.8h7v7h-7V188.8z M297.7,196.1h7v7
		h-7V196.1z M297.7,203.3h7v7h-7V203.3z M297.7,217.8h7v7h-7V217.8z M297.7,232.3h7v7h-7V232.3z M297.7,239.6h7v7h-7V239.6z
		 M304.9,174.3h7v7h-7V174.3z M304.9,181.5h7v7h-7V181.5z M304.9,188.8h7v7h-7V188.8z M304.9,196.1h7v7h-7V196.1z M304.9,203.3h7v7
		h-7V203.3z M304.9,210.6h7v7h-7V210.6z M304.9,217.8h7v7h-7V217.8z M304.9,232.3h7v7h-7V232.3z M312.2,174.3h7v7h-7V174.3z
		 M312.2,181.5h7v7h-7V181.5z M312.2,188.8h7v7h-7V188.8z M312.2,196.1h7v7h-7V196.1z M312.2,203.3h7v7h-7V203.3z M312.2,217.8h7v7
		h-7V217.8z M312.2,225.1h7v7h-7V225.1z M312.2,232.3h7v7h-7V232.3z M312.2,239.6h7v7h-7V239.6z M319.5,174.3h7v7h-7V174.3z
		 M319.5,181.5h7v7h-7V181.5z M319.5,188.8h7v7h-7V188.8z M319.5,196.1h7v7h-7V196.1z M319.5,203.3h7v7h-7V203.3z M319.5,210.6h7v7
		h-7V210.6z M319.5,217.8h7v7h-7V217.8z M326.7,174.3h7v7h-7V174.3z M326.7,181.5h7v7h-7V181.5z M326.7,188.8h7v7h-7V188.8z
		 M326.7,196.1h7v7h-7V196.1z M326.7,203.3h7v7h-7V203.3z M326.7,217.8h7v7h-7V217.8z M334,174.3h7v7h-7V174.3z M334,181.5h7v7h-7
		V181.5z M334,188.8h7v7h-7V188.8z M334,196.1h7v7h-7V196.1z M334,203.3h7v7h-7V203.3z M334,210.6h7v7h-7V210.6z M334,217.8h7v7h-7
		V217.8z M341.2,181.5h7v7h-7V181.5z M341.2,188.8h7v7h-7V188.8z M341.2,196.1h7v7h-7V196.1z M341.2,203.3h7v7h-7V203.3z
		 M341.2,210.6h7v7h-7V210.6z M341.2,217.8h7v7h-7V217.8z M341.2,225.1h7v7h-7V225.1z M341.2,232.3h7v7h-7V232.3z M341.2,239.6h7v7
		h-7V239.6z M283.2,246.9h7v7h-7V246.9z M283.2,254.1h7v7h-7V254.1z M283.2,261.4h7v7h-7V261.4z M283.2,268.7h7v7h-7V268.7z
		 M283.2,275.9h7v7h-7V275.9z M283.2,283.2h7v7h-7V283.2z M283.2,290.4h7v7h-7V290.4z M290.4,246.9h7v7h-7V246.9z M290.4,261.4h7v7
		h-7V261.4z M290.4,275.9h7v7h-7V275.9z M290.4,290.4h7v7h-7V290.4z M297.7,246.9h7v7h-7V246.9z M297.7,254.1h7v7h-7V254.1z
		 M297.7,261.4h7v7h-7V261.4z M297.7,268.7h7v7h-7V268.7z M297.7,275.9h7v7h-7V275.9z M297.7,283.2h7v7h-7V283.2z M297.7,290.4h7v7
		h-7V290.4z M304.9,246.9h7v7h-7V246.9z M304.9,261.4h7v7h-7V261.4z M304.9,275.9h7v7h-7V275.9z M304.9,290.4h7v7h-7V290.4z
		 M312.2,246.9h7v7h-7V246.9z M312.2,254.1h7v7h-7V254.1z M312.2,261.4h7v7h-7V261.4z M312.2,268.7h7v7h-7V268.7z M312.2,275.9h7v7
		h-7V275.9z M312.2,283.2h7v7h-7V283.2z M312.2,290.4h7v7h-7V290.4z M312.2,312.2h7v7h-7V312.2z M319.5,283.2h7v7h-7V283.2z
		 M319.5,290.4h7v7h-7V290.4z M319.5,312.2h7v7h-7V312.2z M326.7,312.2h7v7h-7V312.2z M334,312.2h7v7h-7V312.2z M341.2,246.9h7v7h-7
		V246.9z M341.2,254.1h7v7h-7V254.1z M341.2,261.4h7v7h-7V261.4z M341.2,268.7h7v7h-7V268.7z M341.2,275.9h7v7h-7V275.9z
		 M341.2,283.2h7v7h-7V283.2z M341.2,290.4h7v7h-7V290.4z M341.2,297.7h7v7h-7V297.7z M341.2,304.9h7v7h-7V304.9z M341.2,312.2h7v7
		h-7V312.2z M275.9,319.5h7v7h-7V319.5z M275.9,334h7v7h-7V334z M275.9,341.3h7v7h-7V341.3z M275.9,348.5h7v7h-7V348.5z
		 M275.9,355.8h7v7h-7V355.8z M283.2,319.5h7v7h-7V319.5z M283.2,326.7h7v7h-7V326.7z M283.2,334h7v7h-7V334z M283.2,348.5h7v7h-7
		V348.5z M283.2,355.8h7v7h-7V355.8z M283.2,363h7v7h-7V363z M283.2,370.3h7v7h-7V370.3z M290.4,319.5h7v7h-7V319.5z M290.4,334h7v7
		h-7V334z M290.4,348.5h7v7h-7V348.5z M290.4,355.8h7v7h-7V355.8z M297.7,319.5h7v7h-7V319.5z M297.7,326.7h7v7h-7V326.7z
		 M297.7,334h7v7h-7V334z M297.7,341.3h7v7h-7V341.3z M297.7,348.5h7v7h-7V348.5z M297.7,355.8h7v7h-7V355.8z M304.9,319.5h7v7h-7
		V319.5z M304.9,334h7v7h-7V334z M304.9,355.8h7v7h-7V355.8z M312.2,326.7h7v7h-7V326.7z M312.2,341.3h7v7h-7V341.3z M312.2,348.5h7
		v7h-7V348.5z M312.2,355.8h7v7h-7V355.8z M319.5,319.5h7v7h-7V319.5z M319.5,326.7h7v7h-7V326.7z M319.5,334h7v7h-7V334z
		 M319.5,341.3h7v7h-7V341.3z M319.5,355.8h7v7h-7V355.8z M326.7,326.7h7v7h-7V326.7z M326.7,334h7v7h-7V334z M326.7,341.3h7v7h-7
		V341.3z M326.7,348.5h7v7h-7V348.5z M326.7,355.8h7v7h-7V355.8z M334,319.5h7v7h-7V319.5z M334,334h7v7h-7V334z M334,355.8h7v7h-7
		V355.8z M341.2,326.7h7v7h-7V326.7z M341.2,334h7v7h-7V334z M341.2,341.3h7v7h-7V341.3z M341.2,348.5h7v7h-7V348.5z M348.5,188.8h7
		v7h-7V188.8z M348.5,196.1h7v7h-7V196.1z M348.5,203.3h7v7h-7V203.3z M348.5,210.6h7v7h-7V210.6z M348.5,217.8h7v7h-7V217.8z
		 M355.8,203.3h7v7h-7V203.3z M355.8,210.6h7v7h-7V210.6z M348.5,319.5h7v7h-7V319.5z M348.5,326.7h7v7h-7V326.7z M348.5,334h7v7h-7
		V334z M348.5,341.3h7v7h-7V341.3z M348.5,348.5h7v7h-7V348.5z M355.8,334h7v7h-7V334z M355.8,341.3h7v7h-7V341.3z M355.8,348.5h7v7
		h-7V348.5z M355.8,355.8h7v7h-7V355.8z M363,334h7v7h-7V334z M363,341.3h7v7h-7V341.3z M363,348.5h7v7h-7V348.5z M370.3,341.3h7v7
		h-7V341.3z M370.3,348.5h7v7h-7V348.5z M377.5,341.3h7v7h-7V341.3z M377.5,348.5h7v7h-7V348.5z M384.8,341.3h7v7h-7V341.3z
		 M384.8,348.5h7v7h-7V348.5z M203.3,377.5h7v7h-7V377.5z M217.8,377.5h7v7h-7V377.5z M225.1,377.5h7v7h-7V377.5z M261.4,275.9h7v7
		h-7V275.9z"/>
</g>
</svg>
