<?xml version="1.0" encoding="utf-8"?>
<!-- Generator: Adobe Illustrator 27.3.1, SVG Export Plug-In . SVG Version: 6.00 Build 0)  -->
<svg version="1.1" id="Слой_1" xmlns="http://www.w3.org/2000/svg" xmlns:xlink="http://www.w3.org/1999/xlink" x="0px" y="0px"
	 viewBox="0 0 166.4 130.3" style="enable-background:new 0 0 166.4 130.3;" xml:space="preserve">
<style type="text/css">
	.st0{fill:#FBE5A9;}
	.st1{fill:#1E0E01;}
</style>
<path class="st0" d="M7.4,18.5l65.7,0.7c1.3,0,2.4,1.1,2.4,2.4v1.1c0,1.3,1.1,2.4,2.4,2.4h10.3c1.3,0,2.4-1.1,2.4-2.4V7
	c0-1.3,1.1-2.4,2.4-2.4h67.4c1.3,0,2.4,1.1,2.4,2.4v7.3c0,1.4-1.1,2.4-2.5,2.4l-17.5-0.5c-1.4,0-2.5,1.1-2.5,2.4l0.2,17.3
	c0,0.7-0.3,1.4-0.8,1.8l-8.4,7.3c-0.4,0.4-1,0.6-1.6,0.6h-22.5c-1.5,0-2.7,1.4-2.4,2.9l0,0c0.1,0.5,0.3,0.9,0.7,1.3l22.7,7.9
	c0.2,0.2,3.7,6.1,3.8,6.4c1.9,3.3,1.1,35.6,1.1,35.6s0.3,5.5,0,9c-0.1,1-8,8.6-8.9,8.9l-36.6,0.3c-0.2,0.1-9.4,0.3-9.7,0.3H67
	l-7.5,0c-0.4,0-4.2-1.3-4.5-1.5l-4.7-4.9c-0.4-0.2-2.6-7.5-2.8-8l0-9.9c-0.1-0.3,0.5-11,0.5-11.4c0-2.8,0.4-9.5,0.6-9.8
	s2.2-10.7-0.5-10.9l-11.3-1c-0.6,0-1.1-0.3-1.5-0.7l-8.7-8.7C26.3,51,26,50.3,26,49.7l0.1-14.8c0-1.3-1.1-2.4-2.4-2.4H7.4
	C6.1,32.5,5,31.4,5,30v-9.1C5,19.6,6.1,18.5,7.4,18.5z"/>
<g id="Слой_1_00000154414341795956904540000007632341082879150239_">
</g>
<rect x="21.8" y="21.6" class="st1" width="7" height="7"/>
<rect x="36.3" y="50.7" class="st1" width="7" height="7"/>
<rect x="29" y="21.6" class="st1" width="7" height="7"/>
<rect x="29" y="36.1" class="st1" width="7" height="7"/>
<rect x="29" y="43.5" class="st1" width="7" height="7"/>
<rect x="36.3" y="21.6" class="st1" width="7" height="7"/>
<rect x="36.3" y="29" class="st1" width="7" height="7"/>
<rect x="36.3" y="36.1" class="st1" width="7" height="7"/>
<rect x="36.3" y="43.5" class="st1" width="7" height="7"/>
<rect x="50.8" y="21.6" class="st1" width="7" height="7"/>
<rect x="43.6" y="36.1" class="st1" width="7" height="7"/>
<rect x="43.6" y="43.5" class="st1" width="7" height="7"/>
<rect x="58.1" y="21.6" class="st1" width="7" height="7"/>
<rect x="50.8" y="36.1" class="st1" width="7" height="7"/>
<rect x="50.8" y="43.5" class="st1" width="7" height="7"/>
<rect x="50.8" y="50.7" class="st1" width="7" height="7"/>
<rect x="58.1" y="36.1" class="st1" width="7" height="7"/>
<rect x="58.1" y="43.5" class="st1" width="7" height="7"/>
<rect x="58.1" y="50.7" class="st1" width="7" height="7"/>
<rect x="65.3" y="21.6" class="st1" width="7" height="7"/>
<rect x="65.3" y="36.1" class="st1" width="7" height="7"/>
<rect x="65.3" y="43.5" class="st1" width="7" height="7"/>
<rect x="65.3" y="50.7" class="st1" width="7" height="7"/>
<rect x="50.8" y="65.3" class="st1" width="7" height="7"/>
<rect x="50.8" y="72.5" class="st1" width="7" height="7"/>
<rect x="58.1" y="58" class="st1" width="7" height="7"/>
<rect x="50.9" y="79.7" class="st1" width="7" height="7"/>
<rect x="50.9" y="87" class="st1" width="7" height="7"/>
<rect x="65.3" y="58" class="st1" width="7" height="7"/>
<rect x="50.8" y="94.3" class="st1" width="7" height="7"/>
<rect x="50.8" y="101.5" class="st1" width="7" height="7"/>
<rect x="72.6" y="58" class="st1" width="7" height="7"/>
<rect x="79.8" y="57.9" class="st1" width="7" height="7"/>
<rect x="65.3" y="72.4" class="st1" width="7" height="7"/>
<rect x="65.3" y="87" class="st1" width="7" height="7"/>
<rect x="94.4" y="21.6" class="st1" width="7" height="7"/>
<rect x="72.6" y="36.1" class="st1" width="7" height="7"/>
<rect x="72.6" y="43.5" class="st1" width="7" height="7"/>
<rect x="79.9" y="29" class="st1" width="7" height="7"/>
<rect x="79.9" y="36.1" class="st1" width="7" height="7"/>
<rect x="79.9" y="43.5" class="st1" width="7" height="7"/>
<rect x="94.4" y="50.7" class="st1" width="7" height="7"/>
<rect x="87.1" y="29" class="st1" width="7" height="7"/>
<rect x="87.1" y="36.1" class="st1" width="7" height="7"/>
<rect x="87.1" y="43.5" class="st1" width="7" height="7"/>
<rect x="101.6" y="58" class="st1" width="7" height="7"/>
<rect x="101.6" y="7.1" class="st1" width="7" height="7"/>
<rect x="94.4" y="29" class="st1" width="7" height="7"/>
<rect x="94.4" y="36.1" class="st1" width="7" height="7"/>
<rect x="108.9" y="58" class="st1" width="7" height="7"/>
<rect x="108.9" y="7.1" class="st1" width="7" height="7"/>
<rect x="101.6" y="21.6" class="st1" width="7" height="7"/>
<rect x="101.6" y="29" class="st1" width="7" height="7"/>
<rect x="101.6" y="36.1" class="st1" width="7" height="7"/>
<rect x="116.1" y="58" class="st1" width="7" height="7"/>
<rect x="108.9" y="21.6" class="st1" width="7" height="7"/>
<rect x="108.9" y="29" class="st1" width="7" height="7"/>
<rect x="108.9" y="36.1" class="st1" width="7" height="7"/>
<rect x="116.2" y="7.1" class="st1" width="7" height="7"/>
<rect x="116.2" y="21.6" class="st1" width="7" height="7"/>
<rect x="116.2" y="29" class="st1" width="7" height="7"/>
<rect x="123.4" y="7.1" class="st1" width="7" height="7"/>
<rect x="123.4" y="14.5" class="st1" width="7" height="7"/>
<rect x="123.4" y="21.6" class="st1" width="7" height="7"/>
<rect x="123.4" y="29" class="st1" width="7" height="7"/>
<rect x="123.4" y="36.1" class="st1" width="7" height="7"/>
<rect x="137.3" y="7.1" class="st1" width="7" height="7"/>
<rect x="130.7" y="21.6" class="st1" width="7" height="7"/>
<rect x="130.7" y="29" class="st1" width="7" height="7"/>
<rect x="144.9" y="7.1" class="st1" width="7" height="7"/>
<rect x="87.1" y="57.9" class="st1" width="7" height="7"/>
<rect x="72.6" y="72.5" class="st1" width="7" height="7"/>
<rect x="72.6" y="87" class="st1" width="7" height="7"/>
<rect x="94.4" y="57.9" class="st1" width="7" height="7"/>
<rect x="79.9" y="72.5" class="st1" width="7" height="7"/>
<rect x="79.9" y="86.9" class="st1" width="7" height="7"/>
<rect x="79.9" y="101.5" class="st1" width="7" height="7"/>
<rect x="87.1" y="72.5" class="st1" width="7" height="7"/>
<rect x="87.1" y="87" class="st1" width="7" height="7"/>
<rect x="87.1" y="108.7" class="st1" width="7" height="7"/>
<rect x="94.4" y="72.5" class="st1" width="7" height="7"/>
<rect x="94.4" y="86.9" class="st1" width="7" height="7"/>
<rect x="94.4" y="108.7" class="st1" width="7" height="7"/>
<rect x="101.6" y="72.5" class="st1" width="7" height="7"/>
<rect x="101.6" y="87" class="st1" width="7" height="7"/>
<rect x="101.6" y="101.5" class="st1" width="7" height="7"/>
<rect x="123.4" y="65.2" class="st1" width="7" height="7"/>
<rect x="108.9" y="86.9" class="st1" width="7" height="7"/>
<rect x="108.9" y="108.8" class="st1" width="7" height="7"/>
<rect x="123.5" y="72.5" class="st1" width="7" height="7"/>
<rect x="123.5" y="79.8" class="st1" width="7" height="7"/>
<rect x="116.2" y="108.8" class="st1" width="7" height="7"/>
<rect x="123.4" y="87" class="st1" width="7" height="7"/>
<rect x="123.4" y="94.2" class="st1" width="7" height="7"/>
<rect x="123.4" y="101.5" class="st1" width="7" height="7"/>
<rect x="152.2" y="7.1" class="st1" width="7" height="7"/>
<rect x="58.1" y="108.7" class="st1" width="7" height="7"/>
<rect x="65.3" y="108.7" class="st1" width="7" height="7"/>
<rect x="72.6" y="108.7" class="st1" width="7" height="7"/>
<rect x="14.5" y="21.6" class="st1" width="7" height="7"/>
</svg>
