<?xml version="1.0" encoding="utf-8"?>
<!-- Generator: Adobe Illustrator 27.3.1, SVG Export Plug-In . SVG Version: 6.00 Build 0)  -->
<svg version="1.1" id="Слой_1" xmlns="http://www.w3.org/2000/svg" xmlns:xlink="http://www.w3.org/1999/xlink" x="0px" y="0px"
	 viewBox="0 0 166.4 130.3" style="enable-background:new 0 0 166.4 130.3;" xml:space="preserve">
<style type="text/css">
	.st0{fill:#FBE5A9;}
	.st1{fill:#1E0E01;}
</style>
<path class="st0" d="M7.4,18.5l65.7,0.7c1.3,0,2.4,1.1,2.4,2.4v1.1c0,1.3,1.1,2.4,2.4,2.4h10.3c1.3,0,2.4-1.1,2.4-2.4V7
	c0-1.3,1.1-2.4,2.4-2.4h67.4c1.3,0,2.4,1.1,2.4,2.4v7.3c0,1.4-1.1,2.4-2.5,2.4l-17.5-0.5c-1.4,0-2.5,1.1-2.5,2.4l0.2,17.3
	c0,0.7-0.3,1.4-0.8,1.8l-8.4,7.3c-0.4,0.4-1,0.6-1.6,0.6h-22.5c-1.5,0-2.7,1.4-2.4,2.9l0,0c0.1,0.5,0.3,0.9,0.7,1.3l19.7,18.7
	c0.2,0.2,0.3,0.3,0.4,0.6c1.9,3.3,8.9,32.4,8.9,32.4s0.8,3.1,0.7,4.5c-0.2,2.6-0.5,4.7-0.7,7c-0.1,1-1.6,4.7-2.5,5l-53.8,15.6
	c-0.2,0.1-0.4,0.1-0.7,0.1h-16c-0.4,0-0.9-0.1-1.2-0.3l-12.8-5c-0.4-0.2-3.1-1.9-3.3-2.4l-1.3-2.2l-10-29.4c-0.1-0.3-0.2-0.6-0.2-1
	c0-2.8-0.2-16.1,0-16.4s7.9-7,9.8-8.6c0.3-0.2,0.6-0.4,0.9-0.5l5.3-1.4c2.6-0.7,2.3-4.5-0.4-4.7l-11.3-1c-0.6,0-1.1-0.3-1.5-0.7
	l-8.7-8.7C26.3,51,26,50.3,26,49.7l0.1-14.8c0-1.3-1.1-2.4-2.4-2.4H7.4C6.1,32.5,5,31.4,5,30v-9.1C5,19.6,6.1,18.5,7.4,18.5z"/>
<g id="Слой_1_00000154414341795956904540000007632341082879150239_">
</g>
<rect x="21.8" y="21.6" class="st1" width="7" height="7"/>
<rect x="36.3" y="50.7" class="st1" width="7" height="7"/>
<rect x="29" y="21.6" class="st1" width="7" height="7"/>
<rect x="29" y="36.1" class="st1" width="7" height="7"/>
<rect x="29" y="43.5" class="st1" width="7" height="7"/>
<rect x="36.3" y="21.6" class="st1" width="7" height="7"/>
<rect x="36.3" y="29" class="st1" width="7" height="7"/>
<rect x="36.3" y="36.1" class="st1" width="7" height="7"/>
<rect x="36.3" y="43.5" class="st1" width="7" height="7"/>
<rect x="43.6" y="21.6" class="st1" width="7" height="7"/>
<rect x="43.6" y="36.1" class="st1" width="7" height="7"/>
<rect x="43.6" y="43.5" class="st1" width="7" height="7"/>
<rect x="58.1" y="21.6" class="st1" width="7" height="7"/>
<rect x="50.8" y="36.1" class="st1" width="7" height="7"/>
<rect x="50.8" y="43.5" class="st1" width="7" height="7"/>
<rect x="50.8" y="50.7" class="st1" width="7" height="7"/>
<rect x="58.1" y="36.1" class="st1" width="7" height="7"/>
<rect x="58.1" y="43.5" class="st1" width="7" height="7"/>
<rect x="58.1" y="50.7" class="st1" width="7" height="7"/>
<rect x="65.3" y="21.6" class="st1" width="7" height="7"/>
<rect x="65.3" y="36.1" class="st1" width="7" height="7"/>
<rect x="65.3" y="43.5" class="st1" width="7" height="7"/>
<rect x="65.3" y="50.7" class="st1" width="7" height="7"/>
<rect x="36.3" y="79.8" class="st1" width="7" height="7"/>
<rect x="36.3" y="87" class="st1" width="7" height="7"/>
<rect x="43.6" y="72.5" class="st1" width="7" height="7"/>
<rect x="36.3" y="94.2" class="st1" width="7" height="7"/>
<rect x="43.6" y="101.5" class="st1" width="7" height="7"/>
<rect x="50.8" y="72.5" class="st1" width="7" height="7"/>
<rect x="50.8" y="87" class="st1" width="7" height="7"/>
<rect x="43.6" y="108.8" class="st1" width="7" height="7"/>
<rect x="50.8" y="116" class="st1" width="7" height="7"/>
<rect x="58.1" y="65.2" class="st1" width="7" height="7"/>
<rect x="58.1" y="101.5" class="st1" width="7" height="7"/>
<rect x="65.3" y="65.2" class="st1" width="7" height="7"/>
<rect x="65.3" y="72.5" class="st1" width="7" height="7"/>
<rect x="65.3" y="87" class="st1" width="7" height="7"/>
<rect x="65.3" y="101.5" class="st1" width="7" height="7"/>
<rect x="94.4" y="21.6" class="st1" width="7" height="7"/>
<rect x="72.6" y="36.1" class="st1" width="7" height="7"/>
<rect x="72.6" y="43.5" class="st1" width="7" height="7"/>
<rect x="79.9" y="29" class="st1" width="7" height="7"/>
<rect x="79.9" y="36.1" class="st1" width="7" height="7"/>
<rect x="79.9" y="43.5" class="st1" width="7" height="7"/>
<rect x="94.4" y="50.7" class="st1" width="7" height="7"/>
<rect x="87.1" y="29" class="st1" width="7" height="7"/>
<rect x="87.1" y="36.1" class="st1" width="7" height="7"/>
<rect x="87.1" y="43.5" class="st1" width="7" height="7"/>
<rect x="87.1" y="58" class="st1" width="7" height="7"/>
<rect x="94.4" y="7.1" class="st1" width="7" height="7"/>
<rect x="94.4" y="29" class="st1" width="7" height="7"/>
<rect x="94.4" y="36.1" class="st1" width="7" height="7"/>
<rect x="94.4" y="58" class="st1" width="7" height="7"/>
<rect x="101.6" y="7.1" class="st1" width="7" height="7"/>
<rect x="101.6" y="21.6" class="st1" width="7" height="7"/>
<rect x="101.6" y="29" class="st1" width="7" height="7"/>
<rect x="101.6" y="36.1" class="st1" width="7" height="7"/>
<rect x="101.6" y="58" class="st1" width="7" height="7"/>
<rect x="108.9" y="21.6" class="st1" width="7" height="7"/>
<rect x="108.9" y="29" class="st1" width="7" height="7"/>
<rect x="108.9" y="36.1" class="st1" width="7" height="7"/>
<rect x="108.9" y="7.1" class="st1" width="7" height="7"/>
<rect x="116.2" y="21.6" class="st1" width="7" height="7"/>
<rect x="116.2" y="29" class="st1" width="7" height="7"/>
<rect x="123.4" y="7.1" class="st1" width="7" height="7"/>
<rect x="123.4" y="14.5" class="st1" width="7" height="7"/>
<rect x="123.4" y="21.6" class="st1" width="7" height="7"/>
<rect x="123.4" y="29" class="st1" width="7" height="7"/>
<rect x="123.4" y="36.1" class="st1" width="7" height="7"/>
<rect x="130.7" y="7.1" class="st1" width="7" height="7"/>
<rect x="130.7" y="21.6" class="st1" width="7" height="7"/>
<rect x="130.7" y="29" class="st1" width="7" height="7"/>
<rect x="137.9" y="7.1" class="st1" width="7" height="7"/>
<rect x="72.6" y="65.2" class="st1" width="7" height="7"/>
<rect x="72.6" y="87" class="st1" width="7" height="7"/>
<rect x="72.6" y="101.5" class="st1" width="7" height="7"/>
<rect x="79.7" y="58" class="st1" width="7" height="7"/>
<rect x="79.7" y="79.8" class="st1" width="7" height="7"/>
<rect x="79.9" y="94.2" class="st1" width="7" height="7"/>
<rect x="79.9" y="116" class="st1" width="7" height="7"/>
<rect x="87.1" y="72.5" class="st1" width="7" height="7"/>
<rect x="87.1" y="87" class="st1" width="7" height="7"/>
<rect x="87.1" y="101.5" class="st1" width="7" height="7"/>
<rect x="87.1" y="116" class="st1" width="7" height="7"/>
<rect x="94.4" y="72.5" class="st1" width="7" height="7"/>
<rect x="94.3" y="87" class="st1" width="7" height="7"/>
<rect x="94.4" y="116" class="st1" width="7" height="7"/>
<rect x="101.6" y="72.5" class="st1" width="7" height="7"/>
<rect x="101.6" y="87" class="st1" width="7" height="7"/>
<rect x="101.6" y="108.8" class="st1" width="7" height="7"/>
<rect x="108.9" y="65.2" class="st1" width="7" height="7"/>
<rect x="108.9" y="94.2" class="st1" width="7" height="7"/>
<rect x="108.9" y="108.8" class="st1" width="7" height="7"/>
<rect x="108.9" y="72.5" class="st1" width="7" height="7"/>
<rect x="116.2" y="79.8" class="st1" width="7" height="7"/>
<rect x="116.2" y="108.8" class="st1" width="7" height="7"/>
<rect x="116.2" y="87" class="st1" width="7" height="7"/>
<rect x="123.4" y="94.2" class="st1" width="7" height="7"/>
<rect x="123.4" y="108.8" class="st1" width="7" height="7"/>
<rect x="123.4" y="101.5" class="st1" width="7" height="7"/>
<rect x="145.2" y="7.1" class="st1" width="7" height="7"/>
<rect x="58.1" y="123.2" class="st1" width="7" height="7"/>
<rect x="65.3" y="123.2" class="st1" width="7" height="7"/>
<rect x="72.6" y="116" class="st1" width="7" height="7"/>
<rect x="58.1" y="87" class="st1" width="7" height="7"/>
<rect x="7.2" y="21.6" class="st1" width="7" height="7"/>
</svg>
