<?xml version="1.0" encoding="utf-8"?>
<!-- Generator: Adobe Illustrator 27.3.1, SVG Export Plug-In . SVG Version: 6.00 Build 0)  -->
<svg version="1.1" id="Слой_1" xmlns="http://www.w3.org/2000/svg" xmlns:xlink="http://www.w3.org/1999/xlink" x="0px" y="0px"
	 viewBox="0 0 123.1 261" style="enable-background:new 0 0 123.1 261;" xml:space="preserve">
<style type="text/css">
	.st0{fill:#1E0E01;}
</style>
<rect x="43.6" y="29" class="st0" width="7" height="7"/>
<rect x="43.6" y="36.2" class="st0" width="7" height="7"/>
<rect x="43.6" y="43.5" class="st0" width="7" height="7"/>
<rect x="50.8" y="21.7" class="st0" width="7" height="7"/>
<rect x="50.8" y="29" class="st0" width="7" height="7"/>
<rect x="50.8" y="36.2" class="st0" width="7" height="7"/>
<rect x="50.8" y="43.5" class="st0" width="7" height="7"/>
<rect x="36.3" y="79.8" class="st0" width="7" height="7"/>
<rect x="36.3" y="87.1" class="st0" width="7" height="7"/>
<rect x="36.3" y="108.8" class="st0" width="7" height="7"/>
<rect x="36.3" y="116.1" class="st0" width="7" height="7"/>
<rect x="29" y="108.8" class="st0" width="7" height="7"/>
<rect x="21.8" y="108.8" class="st0" width="7" height="7"/>
<rect x="21.8" y="116.1" class="st0" width="7" height="7"/>
<rect x="14.5" y="116.1" class="st0" width="7" height="7"/>
<rect x="43.6" y="50.8" class="st0" width="7" height="7"/>
<rect x="43.6" y="72.6" class="st0" width="7" height="7"/>
<rect x="43.6" y="79.8" class="st0" width="7" height="7"/>
<rect x="43.6" y="87.1" class="st0" width="7" height="7"/>
<rect x="43.6" y="94.3" class="st0" width="7" height="7"/>
<rect x="43.6" y="101.6" class="st0" width="7" height="7"/>
<rect x="43.6" y="108.8" class="st0" width="7" height="7"/>
<rect x="43.6" y="116.1" class="st0" width="7" height="7"/>
<rect x="50.8" y="50.8" class="st0" width="7" height="7"/>
<rect x="50.8" y="58" class="st0" width="7" height="7"/>
<rect x="50.8" y="65.3" class="st0" width="7" height="7"/>
<rect x="50.8" y="72.6" class="st0" width="7" height="7"/>
<rect x="50.8" y="79.8" class="st0" width="7" height="7"/>
<rect x="50.8" y="87.1" class="st0" width="7" height="7"/>
<rect x="50.8" y="94.3" class="st0" width="7" height="7"/>
<rect x="50.8" y="101.6" class="st0" width="7" height="7"/>
<rect x="50.8" y="108.8" class="st0" width="7" height="7"/>
<rect x="50.8" y="116.1" class="st0" width="7" height="7"/>
<rect x="36.3" y="137.9" class="st0" width="7" height="7"/>
<rect x="36.3" y="145.2" class="st0" width="7" height="7"/>
<rect x="36.3" y="152.4" class="st0" width="7" height="7"/>
<rect x="36.3" y="159.7" class="st0" width="7" height="7"/>
<rect x="36.3" y="166.9" class="st0" width="7" height="7"/>
<rect x="36.3" y="174.2" class="st0" width="7" height="7"/>
<rect x="43.6" y="123.4" class="st0" width="7" height="7"/>
<rect x="43.6" y="130.6" class="st0" width="7" height="7"/>
<rect x="36.3" y="94.3" class="st0" width="7" height="7"/>
<rect x="29.1" y="94.3" class="st0" width="7" height="7"/>
<rect x="36.3" y="101.6" class="st0" width="7" height="7"/>
<rect x="29.1" y="101.6" class="st0" width="7" height="7"/>
<rect x="21.8" y="101.6" class="st0" width="7" height="7"/>
<rect x="36.3" y="123.4" class="st0" width="7" height="7"/>
<rect x="29.1" y="123.4" class="st0" width="7" height="7"/>
<rect x="21.8" y="123.4" class="st0" width="7" height="7"/>
<rect x="36.3" y="130.6" class="st0" width="7" height="7"/>
<rect x="29.1" y="130.6" class="st0" width="7" height="7"/>
<rect x="43.6" y="137.9" class="st0" width="7" height="7"/>
<rect x="43.6" y="145.2" class="st0" width="7" height="7"/>
<rect x="43.6" y="152.4" class="st0" width="7" height="7"/>
<rect x="43.6" y="159.7" class="st0" width="7" height="7"/>
<rect x="43.6" y="166.9" class="st0" width="7" height="7"/>
<rect x="43.6" y="174.2" class="st0" width="7" height="7"/>
<rect x="43.6" y="181.4" class="st0" width="7" height="7"/>
<rect x="43.6" y="188.7" class="st0" width="7" height="7"/>
<rect x="50.8" y="123.4" class="st0" width="7" height="7"/>
<rect x="50.8" y="130.6" class="st0" width="7" height="7"/>
<rect x="50.8" y="137.9" class="st0" width="7" height="7"/>
<rect x="50.8" y="145.2" class="st0" width="7" height="7"/>
<rect x="50.8" y="152.4" class="st0" width="7" height="7"/>
<rect x="50.8" y="159.7" class="st0" width="7" height="7"/>
<rect x="50.8" y="166.9" class="st0" width="7" height="7"/>
<rect x="50.8" y="174.2" class="st0" width="7" height="7"/>
<rect x="50.8" y="181.4" class="st0" width="7" height="7"/>
<rect x="50.8" y="188.7" class="st0" width="7" height="7"/>
<rect y="225" class="st0" width="7" height="7"/>
<rect y="232.3" class="st0" width="7" height="7"/>
<rect x="7.3" y="217.8" class="st0" width="7" height="7"/>
<rect x="7.3" y="225" class="st0" width="7" height="7"/>
<rect x="7.3" y="232.3" class="st0" width="7" height="7"/>
<rect x="7.3" y="239.5" class="st0" width="7" height="7"/>
<rect x="7.3" y="246.8" class="st0" width="7" height="7"/>
<rect x="14.5" y="210.5" class="st0" width="7" height="7"/>
<rect x="14.5" y="217.8" class="st0" width="7" height="7"/>
<rect x="14.5" y="225" class="st0" width="7" height="7"/>
<rect x="14.5" y="232.3" class="st0" width="7" height="7"/>
<rect x="14.5" y="239.5" class="st0" width="7" height="7"/>
<rect x="14.5" y="246.8" class="st0" width="7" height="7"/>
<rect x="21.8" y="203.2" class="st0" width="7" height="7"/>
<rect x="21.8" y="210.5" class="st0" width="7" height="7"/>
<rect x="21.8" y="217.8" class="st0" width="7" height="7"/>
<rect x="21.8" y="225" class="st0" width="7" height="7"/>
<rect x="29.1" y="196" class="st0" width="7" height="7"/>
<rect x="29.1" y="203.2" class="st0" width="7" height="7"/>
<rect x="29.1" y="210.5" class="st0" width="7" height="7"/>
<rect x="29.1" y="217.8" class="st0" width="7" height="7"/>
<rect x="36.3" y="196" class="st0" width="7" height="7"/>
<rect x="36.3" y="203.2" class="st0" width="7" height="7"/>
<rect x="36.3" y="210.5" class="st0" width="7" height="7"/>
<rect x="43.6" y="196" class="st0" width="7" height="7"/>
<rect x="43.6" y="203.2" class="st0" width="7" height="7"/>
<rect x="43.6" y="210.5" class="st0" width="7" height="7"/>
<rect x="50.8" y="196" class="st0" width="7" height="7"/>
<rect x="50.8" y="203.2" class="st0" width="7" height="7"/>
<rect x="58.1" y="21.7" class="st0" width="7" height="7"/>
<rect x="58.1" y="29" class="st0" width="7" height="7"/>
<rect x="58.1" y="36.2" class="st0" width="7" height="7"/>
<rect x="58.1" y="43.5" class="st0" width="7" height="7"/>
<rect x="65.4" y="29" class="st0" width="7" height="7"/>
<rect x="65.4" y="43.5" class="st0" width="7" height="7"/>
<rect x="72.6" y="36.2" class="st0" width="7" height="7"/>
<rect x="72.6" y="43.5" class="st0" width="7" height="7"/>
<rect x="58.1" y="50.8" class="st0" width="7" height="7"/>
<rect x="58.1" y="58" class="st0" width="7" height="7"/>
<rect x="58.1" y="65.3" class="st0" width="7" height="7"/>
<rect x="58.1" y="72.6" class="st0" width="7" height="7"/>
<rect x="58.1" y="79.8" class="st0" width="7" height="7"/>
<rect x="58.1" y="87.1" class="st0" width="7" height="7"/>
<rect x="58.1" y="94.3" class="st0" width="7" height="7"/>
<rect x="58.1" y="101.6" class="st0" width="7" height="7"/>
<rect x="58.1" y="108.8" class="st0" width="7" height="7"/>
<rect x="58.1" y="116.1" class="st0" width="7" height="7"/>
<rect x="65.4" y="50.8" class="st0" width="7" height="7"/>
<rect x="65.4" y="58" class="st0" width="7" height="7"/>
<rect x="65.4" y="79.8" class="st0" width="7" height="7"/>
<rect x="65.4" y="87.1" class="st0" width="7" height="7"/>
<rect x="65.4" y="94.3" class="st0" width="7" height="7"/>
<rect x="65.4" y="101.6" class="st0" width="7" height="7"/>
<rect x="65.4" y="108.8" class="st0" width="7" height="7"/>
<rect x="65.4" y="116.1" class="st0" width="7" height="7"/>
<rect x="72.6" y="50.8" class="st0" width="7" height="7"/>
<rect x="58.1" y="123.4" class="st0" width="7" height="7"/>
<rect x="58.1" y="130.6" class="st0" width="7" height="7"/>
<rect x="58.1" y="137.9" class="st0" width="7" height="7"/>
<rect x="58.1" y="145.2" class="st0" width="7" height="7"/>
<rect x="58.1" y="152.4" class="st0" width="7" height="7"/>
<rect x="58.1" y="159.7" class="st0" width="7" height="7"/>
<rect x="58.1" y="166.9" class="st0" width="7" height="7"/>
<rect x="58.1" y="174.2" class="st0" width="7" height="7"/>
<rect x="58.1" y="181.4" class="st0" width="7" height="7"/>
<rect x="58.1" y="188.7" class="st0" width="7" height="7"/>
<rect x="65.4" y="123.4" class="st0" width="7" height="7"/>
<rect x="65.4" y="130.6" class="st0" width="7" height="7"/>
<rect x="65.4" y="137.9" class="st0" width="7" height="7"/>
<rect x="65.4" y="145.2" class="st0" width="7" height="7"/>
<rect x="65.4" y="152.4" class="st0" width="7" height="7"/>
<rect x="65.4" y="159.7" class="st0" width="7" height="7"/>
<rect x="65.4" y="166.9" class="st0" width="7" height="7"/>
<rect x="65.4" y="174.2" class="st0" width="7" height="7"/>
<rect x="65.4" y="181.4" class="st0" width="7" height="7"/>
<rect x="72.6" y="152.4" class="st0" width="7" height="7"/>
<rect x="72.6" y="159.7" class="st0" width="7" height="7"/>
<rect x="72.6" y="166.9" class="st0" width="7" height="7"/>
<rect x="72.6" y="174.2" class="st0" width="7" height="7"/>
<rect x="72.6" y="181.4" class="st0" width="7" height="7"/>
<rect x="72.6" y="188.7" class="st0" width="7" height="7"/>
<rect x="79.9" y="166.9" class="st0" width="7" height="7"/>
<rect x="79.9" y="174.2" class="st0" width="7" height="7"/>
<rect x="79.9" y="181.4" class="st0" width="7" height="7"/>
<rect x="79.9" y="188.7" class="st0" width="7" height="7"/>
<rect x="87.1" y="181.4" class="st0" width="7" height="7"/>
<rect x="87.1" y="188.7" class="st0" width="7" height="7"/>
<rect x="72.6" y="196" class="st0" width="7" height="7"/>
<rect x="72.6" y="225" class="st0" width="7" height="7"/>
<rect x="72.6" y="232.3" class="st0" width="7" height="7"/>
<rect x="72.6" y="246.8" class="st0" width="7" height="7"/>
<rect x="79.9" y="196" class="st0" width="7" height="7"/>
<rect x="79.9" y="203.2" class="st0" width="7" height="7"/>
<rect x="79.9" y="210.5" class="st0" width="7" height="7"/>
<rect x="79.9" y="217.8" class="st0" width="7" height="7"/>
<rect x="79.9" y="225" class="st0" width="7" height="7"/>
<rect x="79.9" y="232.3" class="st0" width="7" height="7"/>
<rect x="79.9" y="239.5" class="st0" width="7" height="7"/>
<rect x="79.9" y="246.8" class="st0" width="7" height="7"/>
<rect x="87.1" y="196" class="st0" width="7" height="7"/>
<rect x="87.1" y="203.2" class="st0" width="7" height="7"/>
<rect x="87.1" y="210.5" class="st0" width="7" height="7"/>
<rect x="87.1" y="217.8" class="st0" width="7" height="7"/>
<rect x="87.1" y="225" class="st0" width="7" height="7"/>
<rect x="87.1" y="232.3" class="st0" width="7" height="7"/>
<rect x="87.1" y="239.5" class="st0" width="7" height="7"/>
<rect x="87.1" y="246.8" class="st0" width="7" height="7"/>
<rect x="94.4" y="196" class="st0" width="7" height="7"/>
<rect x="94.4" y="203.2" class="st0" width="7" height="7"/>
<rect x="94.4" y="210.5" class="st0" width="7" height="7"/>
<rect x="94.4" y="246.8" class="st0" width="7" height="7"/>
<rect x="14.5" y="254" class="st0" width="7" height="7"/>
<rect x="79.9" y="254" class="st0" width="7" height="7"/>
<rect x="87.1" y="254" class="st0" width="7" height="7"/>
<rect x="94.4" y="254" class="st0" width="7" height="7"/>
<rect x="101.7" y="254" class="st0" width="7" height="7"/>
<rect x="108.9" y="254" class="st0" width="7" height="7"/>
<rect x="72.6" y="115.9" class="st0" width="7" height="7"/>
<rect x="72.6" y="123.1" class="st0" width="7" height="7"/>
<rect x="72.6" y="130.4" class="st0" width="7" height="7"/>
<rect x="72.6" y="137.8" class="st0" width="7" height="7"/>
<rect x="79.8" y="130.4" class="st0" width="7" height="7"/>
<rect x="79.8" y="137.8" class="st0" width="7" height="7"/>
</svg>
