<?xml version="1.0" encoding="utf-8"?>
<!-- Generator: Adobe Illustrator 27.3.1, SVG Export Plug-In . SVG Version: 6.00 Build 0)  -->
<svg version="1.1" xmlns="http://www.w3.org/2000/svg" xmlns:xlink="http://www.w3.org/1999/xlink" x="0px" y="0px"
	 viewBox="0 0 123.1 261" style="enable-background:new 0 0 123.1 261;" xml:space="preserve">
<style type="text/css">
	.st0{fill:#FCE5A9;}
	.st1{fill:#1E0E01;}
</style>
<g id="Слой_2">
	<polygon class="st0" points="65.1,261 29.1,261 29.1,210.5 36.3,210.5 36.3,159.4 29.1,159.4 29.1,152.2 21.8,152.2 21.8,145.2 
		29.1,145.2 29.1,123 21.8,123.1 21.8,94.3 29.1,94.3 29.1,79.8 36.3,79.8 36.3,65.3 43.6,65.3 43.6,58 50.8,58 50.8,50.5 
		43.6,50.5 43.6,21.7 50.8,21.7 50.8,14.5 65.1,14.5 65.1,21.7 72.4,21.7 72.4,29 79.6,29 79.6,50.5 72.4,50.5 72.4,57.8 72.4,72.6 
		79.6,72.6 79.6,108.8 86.9,108.8 86.9,116.1 94.1,116.1 94.1,123.4 101.4,123.4 101.4,144.9 87.1,144.9 87.1,130.4 79.9,130.4 
		79.9,123.1 72.4,123.1 72.4,145.2 79.6,145.2 79.6,152.4 86.9,152.4 86.9,159.7 86.9,166.9 94.1,166.9 94.1,181.4 101.4,181.4 
		101.4,188.8 101.4,195.7 101.4,203 94.1,203 94.1,239.5 101.4,239.5 101.4,246.8 108.7,246.8 108.7,254.1 123.2,254 123.2,261 
		79.9,261 79.9,253.8 72.6,253.8 72.6,246.8 79.9,246.8 80,188.3 72.6,188.4 72.6,181.1 65.4,181.2 65.4,173.9 57.8,173.9 
		57.8,195.7 50.6,195.7 50.7,224.8 43.2,224.8 43.3,246.8 50.6,246.8 50.6,254 65.1,254 	"/>
</g>
<g id="Слой_1">
	<rect x="43.6" y="21.7" class="st1" width="7" height="7"/>
	<rect x="43.6" y="29" class="st1" width="7" height="7"/>
	<rect x="43.6" y="36.2" class="st1" width="7" height="7"/>
	<rect x="43.6" y="43.5" class="st1" width="7" height="7"/>
	<rect x="50.8" y="14.5" class="st1" width="7" height="7"/>
	<rect x="50.8" y="21.7" class="st1" width="7" height="7"/>
	<rect x="50.8" y="29" class="st1" width="7" height="7"/>
	<rect x="50.8" y="36.2" class="st1" width="7" height="7"/>
	<rect x="50.8" y="43.5" class="st1" width="7" height="7"/>
	<rect x="21.8" y="94.3" class="st1" width="7" height="7"/>
	<rect x="21.8" y="101.6" class="st1" width="7" height="7"/>
	<rect x="21.8" y="108.8" class="st1" width="7" height="7"/>
	<rect x="21.8" y="116.1" class="st1" width="7" height="7"/>
	<rect x="29.1" y="79.8" class="st1" width="7" height="7"/>
	<rect x="29.1" y="87.1" class="st1" width="7" height="7"/>
	<rect x="29.1" y="94.3" class="st1" width="7" height="7"/>
	<rect x="29.1" y="101.6" class="st1" width="7" height="7"/>
	<rect x="29.1" y="108.8" class="st1" width="7" height="7"/>
	<rect x="29.1" y="116.1" class="st1" width="7" height="7"/>
	<rect x="36.3" y="65.3" class="st1" width="7" height="7"/>
	<rect x="36.3" y="72.6" class="st1" width="7" height="7"/>
	<rect x="36.3" y="79.8" class="st1" width="7" height="7"/>
	<rect x="36.3" y="87.1" class="st1" width="7" height="7"/>
	<rect x="36.3" y="94.3" class="st1" width="7" height="7"/>
	<rect x="36.3" y="101.6" class="st1" width="7" height="7"/>
	<rect x="36.3" y="108.8" class="st1" width="7" height="7"/>
	<rect x="36.3" y="116.1" class="st1" width="7" height="7"/>
	<rect x="43.6" y="58" class="st1" width="7" height="7"/>
	<rect x="43.6" y="65.3" class="st1" width="7" height="7"/>
	<rect x="43.6" y="72.6" class="st1" width="7" height="7"/>
	<rect x="43.6" y="79.8" class="st1" width="7" height="7"/>
	<rect x="43.6" y="87.1" class="st1" width="7" height="7"/>
	<rect x="43.6" y="94.3" class="st1" width="7" height="7"/>
	<rect x="43.6" y="101.6" class="st1" width="7" height="7"/>
	<rect x="43.6" y="108.8" class="st1" width="7" height="7"/>
	<rect x="43.6" y="116.1" class="st1" width="7" height="7"/>
	<rect x="50.8" y="50.8" class="st1" width="7" height="7"/>
	<rect x="50.8" y="58" class="st1" width="7" height="7"/>
	<rect x="50.8" y="65.3" class="st1" width="7" height="7"/>
	<rect x="50.8" y="72.6" class="st1" width="7" height="7"/>
	<rect x="50.8" y="79.8" class="st1" width="7" height="7"/>
	<rect x="50.8" y="87.1" class="st1" width="7" height="7"/>
	<rect x="50.8" y="94.3" class="st1" width="7" height="7"/>
	<rect x="50.8" y="101.6" class="st1" width="7" height="7"/>
	<rect x="50.8" y="108.8" class="st1" width="7" height="7"/>
	<rect x="50.8" y="116.1" class="st1" width="7" height="7"/>
	<rect x="21.8" y="145.2" class="st1" width="7" height="7"/>
	<rect x="29.1" y="123.4" class="st1" width="7" height="7"/>
	<rect x="29.1" y="130.6" class="st1" width="7" height="7"/>
	<rect x="29.1" y="137.9" class="st1" width="7" height="7"/>
	<rect x="29.1" y="145.2" class="st1" width="7" height="7"/>
	<rect x="29.1" y="152.4" class="st1" width="7" height="7"/>
	<rect x="36.3" y="123.4" class="st1" width="7" height="7"/>
	<rect x="36.3" y="130.6" class="st1" width="7" height="7"/>
	<rect x="36.3" y="137.9" class="st1" width="7" height="7"/>
	<rect x="36.3" y="145.2" class="st1" width="7" height="7"/>
	<rect x="36.3" y="152.4" class="st1" width="7" height="7"/>
	<rect x="36.3" y="159.7" class="st1" width="7" height="7"/>
	<rect x="36.3" y="166.9" class="st1" width="7" height="7"/>
	<rect x="36.3" y="174.2" class="st1" width="7" height="7"/>
	<rect x="36.3" y="181.4" class="st1" width="7" height="7"/>
	<rect x="36.3" y="188.7" class="st1" width="7" height="7"/>
	<rect x="43.6" y="123.4" class="st1" width="7" height="7"/>
	<rect x="43.6" y="130.6" class="st1" width="7" height="7"/>
	<rect x="43.6" y="137.9" class="st1" width="7" height="7"/>
	<rect x="43.6" y="145.2" class="st1" width="7" height="7"/>
	<rect x="43.6" y="152.4" class="st1" width="7" height="7"/>
	<rect x="43.6" y="159.7" class="st1" width="7" height="7"/>
	<rect x="43.6" y="166.9" class="st1" width="7" height="7"/>
	<rect x="43.6" y="174.2" class="st1" width="7" height="7"/>
	<rect x="43.6" y="181.4" class="st1" width="7" height="7"/>
	<rect x="43.6" y="188.7" class="st1" width="7" height="7"/>
	<rect x="50.8" y="123.4" class="st1" width="7" height="7"/>
	<rect x="50.8" y="130.6" class="st1" width="7" height="7"/>
	<rect x="50.8" y="137.9" class="st1" width="7" height="7"/>
	<rect x="50.8" y="145.2" class="st1" width="7" height="7"/>
	<rect x="50.8" y="152.4" class="st1" width="7" height="7"/>
	<rect x="50.8" y="159.7" class="st1" width="7" height="7"/>
	<rect x="50.8" y="166.9" class="st1" width="7" height="7"/>
	<rect x="50.8" y="174.2" class="st1" width="7" height="7"/>
	<rect x="50.8" y="181.4" class="st1" width="7" height="7"/>
	<rect x="50.8" y="188.7" class="st1" width="7" height="7"/>
	<rect x="29.1" y="210.5" class="st1" width="7" height="7"/>
	<rect x="29.1" y="217.8" class="st1" width="7" height="7"/>
	<rect x="29.1" y="225" class="st1" width="7" height="7"/>
	<rect x="29.1" y="232.3" class="st1" width="7" height="7"/>
	<rect x="29.1" y="239.5" class="st1" width="7" height="7"/>
	<rect x="29.1" y="246.8" class="st1" width="7" height="7"/>
	<rect x="36.3" y="196" class="st1" width="7" height="7"/>
	<rect x="36.3" y="203.2" class="st1" width="7" height="7"/>
	<rect x="36.3" y="210.5" class="st1" width="7" height="7"/>
	<rect x="36.3" y="217.8" class="st1" width="7" height="7"/>
	<rect x="36.3" y="225" class="st1" width="7" height="7"/>
	<rect x="36.3" y="232.3" class="st1" width="7" height="7"/>
	<rect x="36.3" y="239.5" class="st1" width="7" height="7"/>
	<rect x="36.3" y="246.8" class="st1" width="7" height="7"/>
	<rect x="43.6" y="196" class="st1" width="7" height="7"/>
	<rect x="43.6" y="203.2" class="st1" width="7" height="7"/>
	<rect x="43.6" y="210.5" class="st1" width="7" height="7"/>
	<rect x="43.6" y="217.8" class="st1" width="7" height="7"/>
	<rect x="43.6" y="246.8" class="st1" width="7" height="7"/>
	<rect x="58.1" y="14.5" class="st1" width="7" height="7"/>
	<rect x="58.1" y="21.7" class="st1" width="7" height="7"/>
	<rect x="58.1" y="29" class="st1" width="7" height="7"/>
	<rect x="58.1" y="36.2" class="st1" width="7" height="7"/>
	<rect x="58.1" y="43.5" class="st1" width="7" height="7"/>
	<rect x="65.4" y="21.7" class="st1" width="7" height="7"/>
	<rect x="65.4" y="36.2" class="st1" width="7" height="7"/>
	<rect x="65.4" y="43.5" class="st1" width="7" height="7"/>
	<rect x="72.6" y="29" class="st1" width="7" height="7"/>
	<rect x="72.6" y="36.2" class="st1" width="7" height="7"/>
	<rect x="72.6" y="43.5" class="st1" width="7" height="7"/>
	<rect x="58.1" y="50.8" class="st1" width="7" height="7"/>
	<rect x="58.1" y="58" class="st1" width="7" height="7"/>
	<rect x="65.4" y="50.8" class="st1" width="7" height="7"/>
	<rect x="65.4" y="58" class="st1" width="7" height="7"/>
	<rect x="58.1" y="65.3" class="st1" width="7" height="7"/>
	<rect x="58.1" y="72.6" class="st1" width="7" height="7"/>
	<rect x="58.1" y="79.8" class="st1" width="7" height="7"/>
	<rect x="58.1" y="87.1" class="st1" width="7" height="7"/>
	<rect x="58.1" y="94.3" class="st1" width="7" height="7"/>
	<rect x="58.1" y="101.6" class="st1" width="7" height="7"/>
	<rect x="58.1" y="108.8" class="st1" width="7" height="7"/>
	<rect x="58.1" y="116.1" class="st1" width="7" height="7"/>
	<rect x="65.4" y="65.3" class="st1" width="7" height="7"/>
	<rect x="65.4" y="72.6" class="st1" width="7" height="7"/>
	<rect x="65.4" y="79.8" class="st1" width="7" height="7"/>
	<rect x="65.4" y="87.1" class="st1" width="7" height="7"/>
	<rect x="65.4" y="94.3" class="st1" width="7" height="7"/>
	<rect x="65.4" y="101.6" class="st1" width="7" height="7"/>
	<rect x="65.4" y="108.8" class="st1" width="7" height="7"/>
	<rect x="65.4" y="116.1" class="st1" width="7" height="7"/>
	<rect x="72.6" y="72.6" class="st1" width="7" height="7"/>
	<rect x="72.6" y="79.8" class="st1" width="7" height="7"/>
	<rect x="72.6" y="87.1" class="st1" width="7" height="7"/>
	<rect x="72.6" y="94.3" class="st1" width="7" height="7"/>
	<rect x="72.6" y="101.6" class="st1" width="7" height="7"/>
	<rect x="72.6" y="108.8" class="st1" width="7" height="7"/>
	<rect x="72.6" y="116.1" class="st1" width="7" height="7"/>
	<rect x="79.9" y="108.8" class="st1" width="7" height="7"/>
	<rect x="79.9" y="116.1" class="st1" width="7" height="7"/>
	<rect x="87.1" y="116.1" class="st1" width="7" height="7"/>
	<rect x="58.1" y="123.4" class="st1" width="7" height="7"/>
	<rect x="58.1" y="130.6" class="st1" width="7" height="7"/>
	<rect x="58.1" y="137.9" class="st1" width="7" height="7"/>
	<rect x="58.1" y="145.2" class="st1" width="7" height="7"/>
	<rect x="58.1" y="152.4" class="st1" width="7" height="7"/>
	<rect x="58.1" y="159.7" class="st1" width="7" height="7"/>
	<rect x="58.1" y="166.9" class="st1" width="7" height="7"/>
	<rect x="65.4" y="123.4" class="st1" width="7" height="7"/>
	<rect x="65.4" y="130.6" class="st1" width="7" height="7"/>
	<rect x="65.4" y="137.9" class="st1" width="7" height="7"/>
	<rect x="65.4" y="145.2" class="st1" width="7" height="7"/>
	<rect x="65.4" y="152.4" class="st1" width="7" height="7"/>
	<rect x="65.4" y="159.7" class="st1" width="7" height="7"/>
	<rect x="65.4" y="166.9" class="st1" width="7" height="7"/>
	<rect x="65.4" y="174.2" class="st1" width="7" height="7"/>
	<rect x="72.6" y="145.2" class="st1" width="7" height="7"/>
	<rect x="72.6" y="152.4" class="st1" width="7" height="7"/>
	<rect x="72.6" y="159.7" class="st1" width="7" height="7"/>
	<rect x="72.6" y="166.9" class="st1" width="7" height="7"/>
	<rect x="72.6" y="174.2" class="st1" width="7" height="7"/>
	<rect x="72.6" y="181.4" class="st1" width="7" height="7"/>
	<rect x="79.9" y="123.4" class="st1" width="7" height="7"/>
	<rect x="79.9" y="152.4" class="st1" width="7" height="7"/>
	<rect x="79.9" y="159.7" class="st1" width="7" height="7"/>
	<rect x="79.9" y="166.9" class="st1" width="7" height="7"/>
	<rect x="79.9" y="174.2" class="st1" width="7" height="7"/>
	<rect x="79.9" y="181.4" class="st1" width="7" height="7"/>
	<rect x="79.9" y="188.7" class="st1" width="7" height="7"/>
	<rect x="87.1" y="123.4" class="st1" width="7" height="7"/>
	<rect x="87.1" y="130.6" class="st1" width="7" height="7"/>
	<rect x="87.1" y="137.9" class="st1" width="7" height="7"/>
	<rect x="87.1" y="166.9" class="st1" width="7" height="7"/>
	<rect x="87.1" y="174.2" class="st1" width="7" height="7"/>
	<rect x="87.1" y="181.4" class="st1" width="7" height="7"/>
	<rect x="87.1" y="188.7" class="st1" width="7" height="7"/>
	<rect x="94.4" y="123.4" class="st1" width="7" height="7"/>
	<rect x="94.4" y="130.6" class="st1" width="7" height="7"/>
	<rect x="94.4" y="137.9" class="st1" width="7" height="7"/>
	<rect x="94.4" y="181.4" class="st1" width="7" height="7"/>
	<rect x="94.4" y="188.7" class="st1" width="7" height="7"/>
	<rect x="72.6" y="246.8" class="st1" width="7" height="7"/>
	<rect x="79.9" y="196" class="st1" width="7" height="7"/>
	<rect x="79.9" y="203.2" class="st1" width="7" height="7"/>
	<rect x="79.9" y="210.5" class="st1" width="7" height="7"/>
	<rect x="79.9" y="217.8" class="st1" width="7" height="7"/>
	<rect x="79.9" y="225" class="st1" width="7" height="7"/>
	<rect x="79.9" y="232.3" class="st1" width="7" height="7"/>
	<rect x="79.9" y="239.5" class="st1" width="7" height="7"/>
	<rect x="79.9" y="246.8" class="st1" width="7" height="7"/>
	<rect x="87.1" y="196" class="st1" width="7" height="7"/>
	<rect x="87.1" y="203.2" class="st1" width="7" height="7"/>
	<rect x="87.1" y="210.5" class="st1" width="7" height="7"/>
	<rect x="87.1" y="217.8" class="st1" width="7" height="7"/>
	<rect x="87.1" y="225" class="st1" width="7" height="7"/>
	<rect x="87.1" y="232.3" class="st1" width="7" height="7"/>
	<rect x="87.1" y="239.5" class="st1" width="7" height="7"/>
	<rect x="87.1" y="246.8" class="st1" width="7" height="7"/>
	<rect x="94.4" y="196" class="st1" width="7" height="7"/>
	<rect x="94.4" y="239.5" class="st1" width="7" height="7"/>
	<rect x="94.4" y="246.8" class="st1" width="7" height="7"/>
	<rect x="101.7" y="246.8" class="st1" width="7" height="7"/>
	<rect x="29.1" y="254" class="st1" width="7" height="7"/>
	<rect x="36.3" y="254" class="st1" width="7" height="7"/>
	<rect x="43.6" y="254" class="st1" width="7" height="7"/>
	<rect x="50.8" y="254" class="st1" width="7" height="7"/>
	<rect x="58.1" y="254" class="st1" width="7" height="7"/>
	<rect x="79.9" y="254" class="st1" width="7" height="7"/>
	<rect x="87.1" y="254" class="st1" width="7" height="7"/>
	<rect x="94.4" y="254" class="st1" width="7" height="7"/>
	<rect x="101.7" y="254" class="st1" width="7" height="7"/>
	<rect x="108.9" y="254" class="st1" width="7" height="7"/>
	<rect x="116.2" y="254" class="st1" width="7" height="7"/>
</g>
</svg>
