<?xml version="1.0" encoding="utf-8"?>
<!-- Generator: Adobe Illustrator 27.3.1, SVG Export Plug-In . SVG Version: 6.00 Build 0)  -->
<svg version="1.1" xmlns="http://www.w3.org/2000/svg" xmlns:xlink="http://www.w3.org/1999/xlink" x="0px" y="0px"
	 viewBox="0 0 123.1 261" style="enable-background:new 0 0 123.1 261;" xml:space="preserve">
<style type="text/css">
	.st0{fill:#FCE5A9;}
	.st1{fill:#1E0E01;}
</style>
<g id="Слой_2">
	<polygon class="st0" points="29,232.3 29,225 36.3,225 36.3,159.4 21.8,159.4 21.8,130.5 21.8,115.8 14.5,115.8 14.6,94.4 
		14.6,87.1 21.8,87.1 21.8,72.6 29.1,72.6 29.1,65.3 36.3,65.3 36.3,50.5 29.1,50.5 29.1,21.7 36.3,21.7 36.3,14.5 50.6,14.5 
		50.6,21.7 57.9,21.7 57.9,29 65.1,29 65.1,50.5 57.9,50.5 57.9,57.8 57.8,65.3 65.1,65.3 65.1,108.8 72.4,108.8 72.4,123.4 
		79.6,123.4 79.6,152.2 72.4,152.2 72.4,159.7 79.6,159.7 79.6,181.4 86.9,181.4 86.9,188.8 86.9,195.7 79.6,195.7 79.6,203 
		72.4,202.9 72.4,210.2 65.1,210.2 65.1,217.5 57.8,217.5 57.8,239.4 65,239.4 65.1,246.8 72.4,246.8 72.4,261 36.3,261 36.3,246.5 
		29,246.5 29,239.3 21.8,239.3 21.8,232.3 	"/>
</g>
<g id="Слой_1">
	<rect x="29.1" y="21.7" class="st1" width="7" height="7"/>
	<rect x="29.1" y="29" class="st1" width="7" height="7"/>
	<rect x="29.1" y="36.2" class="st1" width="7" height="7"/>
	<rect x="36.3" y="14.5" class="st1" width="7" height="7"/>
	<rect x="36.3" y="21.7" class="st1" width="7" height="7"/>
	<rect x="36.3" y="29" class="st1" width="7" height="7"/>
	<rect x="36.3" y="36.2" class="st1" width="7" height="7"/>
	<rect x="36.3" y="43.5" class="st1" width="7" height="7"/>
	<rect x="29" y="43.5" class="st1" width="7" height="7"/>
	<rect x="43.6" y="14.5" class="st1" width="7" height="7"/>
	<rect x="43.6" y="21.7" class="st1" width="7" height="7"/>
	<rect x="43.6" y="29" class="st1" width="7" height="7"/>
	<rect x="43.6" y="36.2" class="st1" width="7" height="7"/>
	<rect x="43.6" y="43.5" class="st1" width="7" height="7"/>
	<rect x="50.8" y="21.7" class="st1" width="7" height="7"/>
	<rect x="50.8" y="36.2" class="st1" width="7" height="7"/>
	<rect x="50.8" y="43.5" class="st1" width="7" height="7"/>
	<rect x="14.5" y="87.1" class="st1" width="7" height="7"/>
	<rect x="14.5" y="94.3" class="st1" width="7" height="7"/>
	<rect x="14.5" y="101.6" class="st1" width="7" height="7"/>
	<rect x="14.5" y="108.8" class="st1" width="7" height="7"/>
	<rect x="21.8" y="72.6" class="st1" width="7" height="7"/>
	<rect x="21.8" y="79.8" class="st1" width="7" height="7"/>
	<rect x="21.8" y="87.1" class="st1" width="7" height="7"/>
	<rect x="21.8" y="94.3" class="st1" width="7" height="7"/>
	<rect x="21.8" y="101.6" class="st1" width="7" height="7"/>
	<rect x="21.8" y="108.8" class="st1" width="7" height="7"/>
	<rect x="21.8" y="116.1" class="st1" width="7" height="7"/>
	<rect x="29.1" y="65.3" class="st1" width="7" height="7"/>
	<rect x="29.1" y="72.6" class="st1" width="7" height="7"/>
	<rect x="29.1" y="79.8" class="st1" width="7" height="7"/>
	<rect x="29.1" y="87.1" class="st1" width="7" height="7"/>
	<rect x="29.1" y="94.3" class="st1" width="7" height="7"/>
	<rect x="29.1" y="116.1" class="st1" width="7" height="7"/>
	<rect x="36.3" y="50.8" class="st1" width="7" height="7"/>
	<rect x="36.3" y="58" class="st1" width="7" height="7"/>
	<rect x="36.3" y="65.3" class="st1" width="7" height="7"/>
	<rect x="36.3" y="72.6" class="st1" width="7" height="7"/>
	<rect x="36.3" y="79.8" class="st1" width="7" height="7"/>
	<rect x="36.3" y="87.1" class="st1" width="7" height="7"/>
	<rect x="36.3" y="94.3" class="st1" width="7" height="7"/>
	<rect x="36.3" y="101.6" class="st1" width="7" height="7"/>
	<rect x="36.3" y="108.8" class="st1" width="7" height="7"/>
	<rect x="36.3" y="116.1" class="st1" width="7" height="7"/>
	<rect x="43.6" y="50.8" class="st1" width="7" height="7"/>
	<rect x="43.6" y="58" class="st1" width="7" height="7"/>
	<rect x="43.6" y="65.3" class="st1" width="7" height="7"/>
	<rect x="43.6" y="72.6" class="st1" width="7" height="7"/>
	<rect x="43.6" y="79.8" class="st1" width="7" height="7"/>
	<rect x="43.6" y="87.1" class="st1" width="7" height="7"/>
	<rect x="43.6" y="94.3" class="st1" width="7" height="7"/>
	<rect x="43.6" y="101.6" class="st1" width="7" height="7"/>
	<rect x="43.6" y="108.8" class="st1" width="7" height="7"/>
	<rect x="43.6" y="116.1" class="st1" width="7" height="7"/>
	<rect x="50.8" y="50.8" class="st1" width="7" height="7"/>
	<rect x="50.8" y="58" class="st1" width="7" height="7"/>
	<rect x="50.8" y="65.3" class="st1" width="7" height="7"/>
	<rect x="50.8" y="72.6" class="st1" width="7" height="7"/>
	<rect x="50.8" y="79.8" class="st1" width="7" height="7"/>
	<rect x="50.8" y="87.1" class="st1" width="7" height="7"/>
	<rect x="50.8" y="94.3" class="st1" width="7" height="7"/>
	<rect x="50.8" y="101.6" class="st1" width="7" height="7"/>
	<rect x="50.8" y="108.8" class="st1" width="7" height="7"/>
	<rect x="50.8" y="116.1" class="st1" width="7" height="7"/>
	<rect x="21.8" y="123.4" class="st1" width="7" height="7"/>
	<rect x="21.8" y="137.9" class="st1" width="7" height="7"/>
	<rect x="21.8" y="145.2" class="st1" width="7" height="7"/>
	<rect x="21.8" y="152.4" class="st1" width="7" height="7"/>
	<rect x="29.1" y="123.4" class="st1" width="7" height="7"/>
	<rect x="29.1" y="130.6" class="st1" width="7" height="7"/>
	<rect x="29.1" y="137.9" class="st1" width="7" height="7"/>
	<rect x="29.1" y="145.2" class="st1" width="7" height="7"/>
	<rect x="29.1" y="152.4" class="st1" width="7" height="7"/>
	<rect x="36.3" y="123.4" class="st1" width="7" height="7"/>
	<rect x="36.3" y="130.6" class="st1" width="7" height="7"/>
	<rect x="36.3" y="137.9" class="st1" width="7" height="7"/>
	<rect x="36.3" y="145.2" class="st1" width="7" height="7"/>
	<rect x="36.3" y="152.4" class="st1" width="7" height="7"/>
	<rect x="36.3" y="159.7" class="st1" width="7" height="7"/>
	<rect x="36.3" y="166.9" class="st1" width="7" height="7"/>
	<rect x="36.3" y="174.2" class="st1" width="7" height="7"/>
	<rect x="36.3" y="181.4" class="st1" width="7" height="7"/>
	<rect x="36.3" y="188.7" class="st1" width="7" height="7"/>
	<rect x="43.6" y="123.4" class="st1" width="7" height="7"/>
	<rect x="43.6" y="130.6" class="st1" width="7" height="7"/>
	<rect x="43.6" y="137.9" class="st1" width="7" height="7"/>
	<rect x="43.6" y="145.2" class="st1" width="7" height="7"/>
	<rect x="43.6" y="152.4" class="st1" width="7" height="7"/>
	<rect x="43.6" y="159.7" class="st1" width="7" height="7"/>
	<rect x="43.6" y="166.9" class="st1" width="7" height="7"/>
	<rect x="43.6" y="174.2" class="st1" width="7" height="7"/>
	<rect x="43.6" y="181.4" class="st1" width="7" height="7"/>
	<rect x="43.6" y="188.7" class="st1" width="7" height="7"/>
	<rect x="50.8" y="123.4" class="st1" width="7" height="7"/>
	<rect x="50.8" y="130.6" class="st1" width="7" height="7"/>
	<rect x="50.8" y="137.9" class="st1" width="7" height="7"/>
	<rect x="50.8" y="145.2" class="st1" width="7" height="7"/>
	<rect x="50.8" y="152.4" class="st1" width="7" height="7"/>
	<rect x="50.8" y="159.7" class="st1" width="7" height="7"/>
	<rect x="50.8" y="166.9" class="st1" width="7" height="7"/>
	<rect x="50.8" y="174.2" class="st1" width="7" height="7"/>
	<rect x="50.8" y="181.4" class="st1" width="7" height="7"/>
	<rect x="50.8" y="188.7" class="st1" width="7" height="7"/>
	<rect x="29.1" y="232.3" class="st1" width="7" height="7"/>
	<rect x="21.8" y="232.3" class="st1" width="7" height="7"/>
	<rect x="36.3" y="196" class="st1" width="7" height="7"/>
	<rect x="36.3" y="203.2" class="st1" width="7" height="7"/>
	<rect x="36.3" y="210.5" class="st1" width="7" height="7"/>
	<rect x="36.3" y="217.8" class="st1" width="7" height="7"/>
	<rect x="36.3" y="225" class="st1" width="7" height="7"/>
	<rect x="29" y="225" class="st1" width="7" height="7"/>
	<rect x="36.3" y="232.3" class="st1" width="7" height="7"/>
	<rect x="36.3" y="239.5" class="st1" width="7" height="7"/>
	<rect x="29" y="239.5" class="st1" width="7" height="7"/>
	<rect x="36.3" y="246.8" class="st1" width="7" height="7"/>
	<rect x="43.6" y="196" class="st1" width="7" height="7"/>
	<rect x="43.6" y="203.2" class="st1" width="7" height="7"/>
	<rect x="43.6" y="210.5" class="st1" width="7" height="7"/>
	<rect x="43.6" y="217.8" class="st1" width="7" height="7"/>
	<rect x="43.6" y="225" class="st1" width="7" height="7"/>
	<rect x="43.6" y="232.3" class="st1" width="7" height="7"/>
	<rect x="43.6" y="239.5" class="st1" width="7" height="7"/>
	<rect x="43.6" y="246.8" class="st1" width="7" height="7"/>
	<rect x="50.8" y="196" class="st1" width="7" height="7"/>
	<rect x="50.8" y="203.2" class="st1" width="7" height="7"/>
	<rect x="50.8" y="210.5" class="st1" width="7" height="7"/>
	<rect x="50.8" y="217.8" class="st1" width="7" height="7"/>
	<rect x="50.8" y="225" class="st1" width="7" height="7"/>
	<rect x="50.8" y="232.3" class="st1" width="7" height="7"/>
	<rect x="50.8" y="239.5" class="st1" width="7" height="7"/>
	<rect x="50.8" y="246.8" class="st1" width="7" height="7"/>
	<rect x="58.1" y="29" class="st1" width="7" height="7"/>
	<rect x="58.1" y="36.2" class="st1" width="7" height="7"/>
	<rect x="58.1" y="43.5" class="st1" width="7" height="7"/>
	<rect x="58.1" y="65.3" class="st1" width="7" height="7"/>
	<rect x="58.1" y="72.6" class="st1" width="7" height="7"/>
	<rect x="58.1" y="79.8" class="st1" width="7" height="7"/>
	<rect x="58.1" y="87.1" class="st1" width="7" height="7"/>
	<rect x="58.1" y="94.3" class="st1" width="7" height="7"/>
	<rect x="58.1" y="101.6" class="st1" width="7" height="7"/>
	<rect x="58.1" y="108.8" class="st1" width="7" height="7"/>
	<rect x="58.1" y="116.1" class="st1" width="7" height="7"/>
	<rect x="65.4" y="108.8" class="st1" width="7" height="7"/>
	<rect x="65.4" y="116.1" class="st1" width="7" height="7"/>
	<rect x="58.1" y="123.4" class="st1" width="7" height="7"/>
	<rect x="58.1" y="130.6" class="st1" width="7" height="7"/>
	<rect x="58.1" y="137.9" class="st1" width="7" height="7"/>
	<rect x="58.1" y="145.2" class="st1" width="7" height="7"/>
	<rect x="58.1" y="152.4" class="st1" width="7" height="7"/>
	<rect x="58.1" y="159.7" class="st1" width="7" height="7"/>
	<rect x="58.1" y="166.9" class="st1" width="7" height="7"/>
	<rect x="58.1" y="174.2" class="st1" width="7" height="7"/>
	<rect x="58.1" y="181.4" class="st1" width="7" height="7"/>
	<rect x="58.1" y="188.7" class="st1" width="7" height="7"/>
	<rect x="65.4" y="123.4" class="st1" width="7" height="7"/>
	<rect x="65.4" y="130.6" class="st1" width="7" height="7"/>
	<rect x="65.4" y="137.9" class="st1" width="7" height="7"/>
	<rect x="65.4" y="145.2" class="st1" width="7" height="7"/>
	<rect x="65.4" y="152.4" class="st1" width="7" height="7"/>
	<rect x="65.4" y="159.7" class="st1" width="7" height="7"/>
	<rect x="65.4" y="166.9" class="st1" width="7" height="7"/>
	<rect x="65.4" y="174.2" class="st1" width="7" height="7"/>
	<rect x="65.4" y="181.4" class="st1" width="7" height="7"/>
	<rect x="65.4" y="188.7" class="st1" width="7" height="7"/>
	<rect x="72.6" y="123.4" class="st1" width="7" height="7"/>
	<rect x="72.6" y="130.6" class="st1" width="7" height="7"/>
	<rect x="72.6" y="137.9" class="st1" width="7" height="7"/>
	<rect x="72.6" y="145.2" class="st1" width="7" height="7"/>
	<rect x="72.6" y="159.7" class="st1" width="7" height="7"/>
	<rect x="72.6" y="166.9" class="st1" width="7" height="7"/>
	<rect x="72.6" y="174.2" class="st1" width="7" height="7"/>
	<rect x="72.6" y="181.4" class="st1" width="7" height="7"/>
	<rect x="72.6" y="188.7" class="st1" width="7" height="7"/>
	<rect x="79.9" y="181.4" class="st1" width="7" height="7"/>
	<rect x="79.9" y="188.7" class="st1" width="7" height="7"/>
	<rect x="58.1" y="196" class="st1" width="7" height="7"/>
	<rect x="58.1" y="203.2" class="st1" width="7" height="7"/>
	<rect x="58.1" y="210.5" class="st1" width="7" height="7"/>
	<rect x="58.1" y="239.5" class="st1" width="7" height="7"/>
	<rect x="58.1" y="246.8" class="st1" width="7" height="7"/>
	<rect x="65.4" y="196" class="st1" width="7" height="7"/>
	<rect x="65.4" y="203.2" class="st1" width="7" height="7"/>
	<rect x="65.4" y="246.8" class="st1" width="7" height="7"/>
	<rect x="72.6" y="196" class="st1" width="7" height="7"/>
	<rect x="36.3" y="254" class="st1" width="7" height="7"/>
	<rect x="43.6" y="254" class="st1" width="7" height="7"/>
	<rect x="50.8" y="254" class="st1" width="7" height="7"/>
	<rect x="58.1" y="254" class="st1" width="7" height="7"/>
	<rect x="65.4" y="254" class="st1" width="7" height="7"/>
</g>
</svg>
