<?xml version="1.0" encoding="utf-8"?>
<!-- Generator: Adobe Illustrator 27.3.1, SVG Export Plug-In . SVG Version: 6.00 Build 0)  -->
<svg version="1.1" xmlns="http://www.w3.org/2000/svg" xmlns:xlink="http://www.w3.org/1999/xlink" x="0px" y="0px"
	 viewBox="0 0 123.1 261" style="enable-background:new 0 0 123.1 261;" xml:space="preserve">
<style type="text/css">
	.st0{fill:#FCE5A9;}
	.st1{fill:#1E0E01;}
</style>
<g id="Слой_2">
	<polygon class="st0" points="14.5,261 14.5,253.8 7.3,253.9 7.3,239.4 0,239.4 0,225.1 7.3,225.1 7.3,217.9 14.5,217.9 14.5,210.6 
		21.8,210.6 21.8,203.3 29.1,203.3 29.1,195.9 43.6,196 43.7,181.3 36.3,181.3 36.3,137.7 29.1,137.7 29.1,130.5 21.8,130.5 
		21.8,123.2 14.5,123.2 14.5,116.2 21.8,116.1 21.8,101.7 29.1,101.7 29.1,94.3 36.3,94.3 36.3,79.8 43.6,79.8 43.6,72.5 50.8,72.5 
		50.8,57.7 43.6,57.7 43.6,28.9 50.8,28.9 50.8,21.7 65.1,21.7 65.1,28.9 72.4,28.9 72.4,36.2 79.6,36.2 79.6,57.7 72.4,57.7 
		72.4,65.1 65,65 65.1,79.8 72.4,79.9 72.4,115.9 79.6,115.9 79.6,130.4 86.8,130.4 86.8,144.8 72.4,144.8 72.4,152.1 79.6,152.4 
		79.6,166.8 86.9,166.9 86.9,181.4 94.1,181.4 94.1,196 101.4,196 101.5,217.5 94.1,217.5 94.1,246.8 101.4,246.8 101.4,254 
		115.8,254.1 115.9,261 79.9,261 79.9,253.8 72.6,253.8 72.6,246.8 79.9,246.8 79.9,239.3 72.6,239.3 72.6,225 79.9,224.8 
		79.9,210.2 79.9,202.9 72.6,202.9 72.6,188.4 65.1,188.4 65.1,195.7 57.8,195.6 57.8,210.2 50.6,210.2 50.6,217.4 36.1,217.5 
		36.1,224.8 28.8,224.7 28.8,232 21.5,232 21.5,261 	"/>
</g>
<g id="Слой_1">
	<rect x="43.6" y="29" class="st1" width="7" height="7"/>
	<rect x="43.6" y="36.2" class="st1" width="7" height="7"/>
	<rect x="43.6" y="43.5" class="st1" width="7" height="7"/>
	<rect x="50.8" y="21.7" class="st1" width="7" height="7"/>
	<rect x="50.8" y="29" class="st1" width="7" height="7"/>
	<rect x="50.8" y="36.2" class="st1" width="7" height="7"/>
	<rect x="50.8" y="43.5" class="st1" width="7" height="7"/>
	<rect x="36.3" y="79.8" class="st1" width="7" height="7"/>
	<rect x="36.3" y="87.1" class="st1" width="7" height="7"/>
	<rect x="36.3" y="108.8" class="st1" width="7" height="7"/>
	<rect x="36.3" y="116.1" class="st1" width="7" height="7"/>
	<rect x="29" y="108.8" class="st1" width="7" height="7"/>
	<rect x="21.8" y="108.8" class="st1" width="7" height="7"/>
	<rect x="21.8" y="116.1" class="st1" width="7" height="7"/>
	<rect x="14.5" y="116.1" class="st1" width="7" height="7"/>
	<rect x="43.6" y="50.8" class="st1" width="7" height="7"/>
	<rect x="43.6" y="72.6" class="st1" width="7" height="7"/>
	<rect x="43.6" y="79.8" class="st1" width="7" height="7"/>
	<rect x="43.6" y="87.1" class="st1" width="7" height="7"/>
	<rect x="43.6" y="94.3" class="st1" width="7" height="7"/>
	<rect x="43.6" y="101.6" class="st1" width="7" height="7"/>
	<rect x="43.6" y="108.8" class="st1" width="7" height="7"/>
	<rect x="43.6" y="116.1" class="st1" width="7" height="7"/>
	<rect x="50.8" y="50.8" class="st1" width="7" height="7"/>
	<rect x="50.8" y="58" class="st1" width="7" height="7"/>
	<rect x="50.8" y="65.3" class="st1" width="7" height="7"/>
	<rect x="50.8" y="72.6" class="st1" width="7" height="7"/>
	<rect x="50.8" y="79.8" class="st1" width="7" height="7"/>
	<rect x="50.8" y="87.1" class="st1" width="7" height="7"/>
	<rect x="50.8" y="94.3" class="st1" width="7" height="7"/>
	<rect x="50.8" y="101.6" class="st1" width="7" height="7"/>
	<rect x="50.8" y="108.8" class="st1" width="7" height="7"/>
	<rect x="50.8" y="116.1" class="st1" width="7" height="7"/>
	<rect x="36.3" y="137.9" class="st1" width="7" height="7"/>
	<rect x="36.3" y="145.2" class="st1" width="7" height="7"/>
	<rect x="36.3" y="152.4" class="st1" width="7" height="7"/>
	<rect x="36.3" y="159.7" class="st1" width="7" height="7"/>
	<rect x="36.3" y="166.9" class="st1" width="7" height="7"/>
	<rect x="36.3" y="174.2" class="st1" width="7" height="7"/>
	<rect x="43.6" y="123.4" class="st1" width="7" height="7"/>
	<rect x="43.6" y="130.6" class="st1" width="7" height="7"/>
	<rect x="36.3" y="94.3" class="st1" width="7" height="7"/>
	<rect x="29.1" y="94.3" class="st1" width="7" height="7"/>
	<rect x="36.3" y="101.6" class="st1" width="7" height="7"/>
	<rect x="29.1" y="101.6" class="st1" width="7" height="7"/>
	<rect x="21.8" y="101.6" class="st1" width="7" height="7"/>
	<rect x="36.3" y="123.4" class="st1" width="7" height="7"/>
	<rect x="29.1" y="123.4" class="st1" width="7" height="7"/>
	<rect x="21.8" y="123.4" class="st1" width="7" height="7"/>
	<rect x="36.3" y="130.6" class="st1" width="7" height="7"/>
	<rect x="29.1" y="130.6" class="st1" width="7" height="7"/>
	<rect x="43.6" y="137.9" class="st1" width="7" height="7"/>
	<rect x="43.6" y="145.2" class="st1" width="7" height="7"/>
	<rect x="43.6" y="152.4" class="st1" width="7" height="7"/>
	<rect x="43.6" y="159.7" class="st1" width="7" height="7"/>
	<rect x="43.6" y="166.9" class="st1" width="7" height="7"/>
	<rect x="43.6" y="174.2" class="st1" width="7" height="7"/>
	<rect x="43.6" y="181.4" class="st1" width="7" height="7"/>
	<rect x="43.6" y="188.7" class="st1" width="7" height="7"/>
	<rect x="50.8" y="123.4" class="st1" width="7" height="7"/>
	<rect x="50.8" y="130.6" class="st1" width="7" height="7"/>
	<rect x="50.8" y="137.9" class="st1" width="7" height="7"/>
	<rect x="50.8" y="145.2" class="st1" width="7" height="7"/>
	<rect x="50.8" y="152.4" class="st1" width="7" height="7"/>
	<rect x="50.8" y="159.7" class="st1" width="7" height="7"/>
	<rect x="50.8" y="166.9" class="st1" width="7" height="7"/>
	<rect x="50.8" y="174.2" class="st1" width="7" height="7"/>
	<rect x="50.8" y="181.4" class="st1" width="7" height="7"/>
	<rect x="50.8" y="188.7" class="st1" width="7" height="7"/>
	<rect y="225" class="st1" width="7" height="7"/>
	<rect y="232.3" class="st1" width="7" height="7"/>
	<rect x="7.3" y="217.8" class="st1" width="7" height="7"/>
	<rect x="7.3" y="225" class="st1" width="7" height="7"/>
	<rect x="7.3" y="232.3" class="st1" width="7" height="7"/>
	<rect x="7.3" y="239.5" class="st1" width="7" height="7"/>
	<rect x="7.3" y="246.8" class="st1" width="7" height="7"/>
	<rect x="14.5" y="210.5" class="st1" width="7" height="7"/>
	<rect x="14.5" y="217.8" class="st1" width="7" height="7"/>
	<rect x="14.5" y="225" class="st1" width="7" height="7"/>
	<rect x="14.5" y="232.3" class="st1" width="7" height="7"/>
	<rect x="14.5" y="239.5" class="st1" width="7" height="7"/>
	<rect x="14.5" y="246.8" class="st1" width="7" height="7"/>
	<rect x="21.8" y="203.2" class="st1" width="7" height="7"/>
	<rect x="21.8" y="210.5" class="st1" width="7" height="7"/>
	<rect x="21.8" y="217.8" class="st1" width="7" height="7"/>
	<rect x="21.8" y="225" class="st1" width="7" height="7"/>
	<rect x="29.1" y="196" class="st1" width="7" height="7"/>
	<rect x="29.1" y="203.2" class="st1" width="7" height="7"/>
	<rect x="29.1" y="210.5" class="st1" width="7" height="7"/>
	<rect x="29.1" y="217.8" class="st1" width="7" height="7"/>
	<rect x="36.3" y="196" class="st1" width="7" height="7"/>
	<rect x="36.3" y="203.2" class="st1" width="7" height="7"/>
	<rect x="36.3" y="210.5" class="st1" width="7" height="7"/>
	<rect x="43.6" y="196" class="st1" width="7" height="7"/>
	<rect x="43.6" y="203.2" class="st1" width="7" height="7"/>
	<rect x="43.6" y="210.5" class="st1" width="7" height="7"/>
	<rect x="50.8" y="196" class="st1" width="7" height="7"/>
	<rect x="50.8" y="203.2" class="st1" width="7" height="7"/>
	<rect x="58.1" y="21.7" class="st1" width="7" height="7"/>
	<rect x="58.1" y="29" class="st1" width="7" height="7"/>
	<rect x="58.1" y="36.2" class="st1" width="7" height="7"/>
	<rect x="58.1" y="43.5" class="st1" width="7" height="7"/>
	<rect x="65.4" y="29" class="st1" width="7" height="7"/>
	<rect x="65.4" y="43.5" class="st1" width="7" height="7"/>
	<rect x="72.6" y="36.2" class="st1" width="7" height="7"/>
	<rect x="72.6" y="43.5" class="st1" width="7" height="7"/>
	<rect x="58.1" y="50.8" class="st1" width="7" height="7"/>
	<rect x="58.1" y="58" class="st1" width="7" height="7"/>
	<rect x="58.1" y="65.3" class="st1" width="7" height="7"/>
	<rect x="58.1" y="72.6" class="st1" width="7" height="7"/>
	<rect x="58.1" y="79.8" class="st1" width="7" height="7"/>
	<rect x="58.1" y="87.1" class="st1" width="7" height="7"/>
	<rect x="58.1" y="94.3" class="st1" width="7" height="7"/>
	<rect x="58.1" y="101.6" class="st1" width="7" height="7"/>
	<rect x="58.1" y="108.8" class="st1" width="7" height="7"/>
	<rect x="58.1" y="116.1" class="st1" width="7" height="7"/>
	<rect x="65.4" y="50.8" class="st1" width="7" height="7"/>
	<rect x="65.4" y="58" class="st1" width="7" height="7"/>
	<rect x="65.4" y="79.8" class="st1" width="7" height="7"/>
	<rect x="65.4" y="87.1" class="st1" width="7" height="7"/>
	<rect x="65.4" y="94.3" class="st1" width="7" height="7"/>
	<rect x="65.4" y="101.6" class="st1" width="7" height="7"/>
	<rect x="65.4" y="108.8" class="st1" width="7" height="7"/>
	<rect x="65.4" y="116.1" class="st1" width="7" height="7"/>
	<rect x="72.6" y="50.8" class="st1" width="7" height="7"/>
	<rect x="58.1" y="123.4" class="st1" width="7" height="7"/>
	<rect x="58.1" y="130.6" class="st1" width="7" height="7"/>
	<rect x="58.1" y="137.9" class="st1" width="7" height="7"/>
	<rect x="58.1" y="145.2" class="st1" width="7" height="7"/>
	<rect x="58.1" y="152.4" class="st1" width="7" height="7"/>
	<rect x="58.1" y="159.7" class="st1" width="7" height="7"/>
	<rect x="58.1" y="166.9" class="st1" width="7" height="7"/>
	<rect x="58.1" y="174.2" class="st1" width="7" height="7"/>
	<rect x="58.1" y="181.4" class="st1" width="7" height="7"/>
	<rect x="58.1" y="188.7" class="st1" width="7" height="7"/>
	<rect x="65.4" y="123.4" class="st1" width="7" height="7"/>
	<rect x="65.4" y="130.6" class="st1" width="7" height="7"/>
	<rect x="65.4" y="137.9" class="st1" width="7" height="7"/>
	<rect x="65.4" y="145.2" class="st1" width="7" height="7"/>
	<rect x="65.4" y="152.4" class="st1" width="7" height="7"/>
	<rect x="65.4" y="159.7" class="st1" width="7" height="7"/>
	<rect x="65.4" y="166.9" class="st1" width="7" height="7"/>
	<rect x="65.4" y="174.2" class="st1" width="7" height="7"/>
	<rect x="65.4" y="181.4" class="st1" width="7" height="7"/>
	<rect x="72.6" y="152.4" class="st1" width="7" height="7"/>
	<rect x="72.6" y="159.7" class="st1" width="7" height="7"/>
	<rect x="72.6" y="166.9" class="st1" width="7" height="7"/>
	<rect x="72.6" y="174.2" class="st1" width="7" height="7"/>
	<rect x="72.6" y="181.4" class="st1" width="7" height="7"/>
	<rect x="72.6" y="188.7" class="st1" width="7" height="7"/>
	<rect x="79.9" y="166.9" class="st1" width="7" height="7"/>
	<rect x="79.9" y="174.2" class="st1" width="7" height="7"/>
	<rect x="79.9" y="181.4" class="st1" width="7" height="7"/>
	<rect x="79.9" y="188.7" class="st1" width="7" height="7"/>
	<rect x="87.1" y="181.4" class="st1" width="7" height="7"/>
	<rect x="87.1" y="188.7" class="st1" width="7" height="7"/>
	<rect x="72.6" y="196" class="st1" width="7" height="7"/>
	<rect x="72.6" y="225" class="st1" width="7" height="7"/>
	<rect x="72.6" y="232.3" class="st1" width="7" height="7"/>
	<rect x="72.6" y="246.8" class="st1" width="7" height="7"/>
	<rect x="79.9" y="196" class="st1" width="7" height="7"/>
	<rect x="79.9" y="203.2" class="st1" width="7" height="7"/>
	<rect x="79.9" y="210.5" class="st1" width="7" height="7"/>
	<rect x="79.9" y="217.8" class="st1" width="7" height="7"/>
	<rect x="79.9" y="225" class="st1" width="7" height="7"/>
	<rect x="79.9" y="232.3" class="st1" width="7" height="7"/>
	<rect x="79.9" y="239.5" class="st1" width="7" height="7"/>
	<rect x="79.9" y="246.8" class="st1" width="7" height="7"/>
	<rect x="87.1" y="196" class="st1" width="7" height="7"/>
	<rect x="87.1" y="203.2" class="st1" width="7" height="7"/>
	<rect x="87.1" y="210.5" class="st1" width="7" height="7"/>
	<rect x="87.1" y="217.8" class="st1" width="7" height="7"/>
	<rect x="87.1" y="225" class="st1" width="7" height="7"/>
	<rect x="87.1" y="232.3" class="st1" width="7" height="7"/>
	<rect x="87.1" y="239.5" class="st1" width="7" height="7"/>
	<rect x="87.1" y="246.8" class="st1" width="7" height="7"/>
	<rect x="94.4" y="196" class="st1" width="7" height="7"/>
	<rect x="94.4" y="203.2" class="st1" width="7" height="7"/>
	<rect x="94.4" y="210.5" class="st1" width="7" height="7"/>
	<rect x="94.4" y="246.8" class="st1" width="7" height="7"/>
	<rect x="14.5" y="254" class="st1" width="7" height="7"/>
	<rect x="79.9" y="254" class="st1" width="7" height="7"/>
	<rect x="87.1" y="254" class="st1" width="7" height="7"/>
	<rect x="94.4" y="254" class="st1" width="7" height="7"/>
	<rect x="101.7" y="254" class="st1" width="7" height="7"/>
	<rect x="108.9" y="254" class="st1" width="7" height="7"/>
	<rect x="72.6" y="115.9" class="st1" width="7" height="7"/>
	<rect x="72.6" y="123.1" class="st1" width="7" height="7"/>
	<rect x="72.6" y="130.4" class="st1" width="7" height="7"/>
	<rect x="72.6" y="137.8" class="st1" width="7" height="7"/>
	<rect x="79.8" y="130.4" class="st1" width="7" height="7"/>
	<rect x="79.8" y="137.8" class="st1" width="7" height="7"/>
</g>
</svg>
