<?xml version="1.0" encoding="utf-8"?>
<!-- Generator: Adobe Illustrator 27.3.1, SVG Export Plug-In . SVG Version: 6.00 Build 0)  -->
<svg version="1.1" xmlns="http://www.w3.org/2000/svg" xmlns:xlink="http://www.w3.org/1999/xlink" x="0px" y="0px"
	 viewBox="0 0 152.2 261.1" style="enable-background:new 0 0 152.2 261.1;" xml:space="preserve">
<style type="text/css">
	.st0{fill:#FCE8B3;}
	.st1{fill:#1E0E01;}
</style>
<g id="Слой_2">
	<path class="st0" d="M122.4,130.7c0-3.3-2.7-6-6-6h-1.3v-1.3c0-3.3-2.7-6-6-6h-1.2v-1.3c0-3.3-2.7-6-6-6h-1.3v-1.2c0-3.3-2.7-6-6-6
		h-1.3v-1.5c0,0,0-0.1,0-0.1c0,0,0-0.1,0-0.1v-7c0-0.1,0-0.1,0-0.1c0-0.1,0-0.1,0-0.2v-7c0-3.3-2.7-6-6-6H86v-1.2c0-0.1,0-0.1,0-0.1
		c0-0.1,0-0.1,0-0.2v-1.3h1.3c3.3,0,6-2.7,6-6v-1.2h1.3c3.3,0,6-2.7,6-6v-7c0-0.1,0-0.1,0-0.1c0,0,0-0.1,0-0.1v-7c0,0,0-0.1,0-0.1
		c0,0,0-0.1,0-0.1v-7c0-3.3-2.7-6-6-6h-1.3v-1.3c0-3.3-2.7-6-6-6h-7c-0.1,0-0.1,0-0.2,0c0,0-0.1,0-0.2,0h-7c-0.1,0-0.1,0-0.2,0h-7
		c-3.3,0-6,2.7-6,6v1.3h-1.3c-3.3,0-6,2.7-6,6v7c0,0,0,0.1,0,0.1c0,0,0,0.1,0,0.1v7c0,3.3,2.7,6,6,6h1.3v1.3c0,0,0,0.1,0,0.1
		c0,0,0,0.1,0,0.1v1.3h-1.3c-3.3,0-6,2.7-6,6v7c0,0.1,0,0.1,0,0.2c0,0,0,0.1,0,0.1v1.2h-1.2c-3.3,0-6,2.7-6,6v7c0,0.1,0,0.1,0,0.2
		c0,0,0,0.1,0,0.1v1.2H44c-3.3,0-6,2.7-6,6v7c0,0.1,0,0.1,0,0.2c0,0,0,0.1,0,0.1v7c0,0,0,0.1,0,0.1c0,0,0,0.1,0,0.1v7
		c0,0.1,0,0.1,0,0.2c0,0,0,0.1,0,0.1v7c0,3.3,2.7,6,6,6h1.3v1.3c0,0,0,0.1,0,0.1c0,0,0,0.1,0,0.1v7c0,0,0,0.1,0,0.1
		c0,0.1,0,0.1,0,0.2v1.3H44c-3.3,0-6,2.7-6,6v7c0,3.3,2.7,6,6,6h1.3v1.3c0,0,0,0.1,0,0.1c0,0,0,0.1,0,0.1v7c0,0,0,0.1,0,0.1
		c0,0,0,0.1,0,0.1v7c0,0,0,0.1,0,0.2c0,0,0,0.1,0,0.1v7c0,0,0,0.1,0,0.2c0,0,0,0.1,0,0.1v7c0,0,0,0.1,0,0.1c0,0,0,0.1,0,0.1v7
		c0,0,0,0.1,0,0.1c0,0,0,0.1,0,0.1v7c0,0,0,0.1,0,0.1c0,0,0,0.1,0,0.1v7c0,0,0,0.1,0,0.1c0,0.1,0,0.1,0,0.2v7c0,0,0,0.1,0,0.1
		c0,0,0,0.1,0,0.1v7c0,0,0,0.1,0,0.1c0,0.1,0,0.1,0,0.2v7c0,0,0,0.1,0,0.1c0,0,0,0.1,0,0.1v7c0,0,0,0.1,0,0.1c0,0.1,0,0.1,0,0.2v7
		c0,0,0,0.1,0,0.2c0,0,0,0.1,0,0.1v7c0,3.3,2.7,6,6,6h7c0.1,0,0.1,0,0.2,0h7c0.1,0,0.2,0,0.3,0h7c0.1,0,0.1,0,0.2,0h7
		c3.3,0,6-2.7,6-6v-1.3h1.3c0.1,0,0.2,0,0.3,0h7c3.3,0,6-2.7,6-6v-7c0,0,0-0.1,0-0.2c0,0,0-0.1,0-0.1v-7c0-3.3-2.7-6-6-6h-1.3V232
		c0,0,0-0.1,0-0.2c0,0,0-0.1,0-0.1v-1.2h1.3c3.3,0,6-2.7,6-6v-7c0,0,0-0.1,0-0.2c0,0,0-0.1,0-0.1v-7c0,0,0-0.1,0-0.1
		c0,0,0-0.1,0-0.1v-1.2h1.2c3.3,0,6-2.7,6-6v-1.2h1.3c3.3,0,6-2.7,6-6v-7c0,0,0-0.1,0-0.1c0-0.1,0-0.1,0-0.2v-7c0-3.3-2.7-6-6-6
		h-1.3V174c0,0,0-0.1,0-0.1c0,0,0-0.1,0-0.1v-7c0-3.3-2.7-6-6-6h-1.2v-1.3c0,0,0-0.1,0-0.1c0,0,0-0.1,0-0.1v-1.4
		c0.5,0.1,1,0.2,1.5,0.2h7c0.1,0,0.2,0,0.3,0h7c3.3,0,6-2.7,6-6v-7c0,0,0-0.1,0-0.1c0,0,0-0.1,0-0.1v-7c0,0,0-0.1,0-0.1
		c0,0,0-0.1,0-0.1V130.7z M80.3,187h1.3v1.3c0,0,0,0.1,0,0.2c0,0,0,0.1,0,0.1v1.2h-1.3c-0.5,0-1,0.1-1.5,0.2v-1.4c0,0,0-0.1,0-0.1
		c0-0.1,0-0.1,0-0.2V187H80C80.1,187,80.2,187,80.3,187z M71.5,210.1C71.5,210.1,71.5,210,71.5,210.1l0-1.3h1.3c0.5,0,1-0.1,1.5-0.2
		v1.4c0,0,0,0.1,0,0.1c0,0,0,0.1,0,0.1v1.3H73c-0.5,0-1,0.1-1.5,0.2v-1.5C71.5,210.2,71.5,210.1,71.5,210.1z M93.3,146.3V145
		c0,0,0-0.1,0-0.2c0,0,0-0.1,0-0.1v-1.2c0.5,0.1,1,0.2,1.6,0.2h1.2v1.2c0,0,0,0.1,0,0.1c0,0,0,0.1,0,0.1v1.4c-0.5-0.1-1-0.2-1.5-0.2
		H93.3z"/>
</g>
<g id="Слой_1">
	<rect x="51.3" y="253.8" class="st1" width="7" height="7"/>
	<rect x="51.3" y="246.5" class="st1" width="7" height="7"/>
	<rect x="51.3" y="239.2" class="st1" width="7" height="7"/>
	<rect x="51.3" y="232" class="st1" width="7" height="7"/>
	<rect x="51.3" y="224.7" class="st1" width="7" height="7"/>
	<rect x="51.3" y="217.5" class="st1" width="7" height="7"/>
	<rect x="51.3" y="210.2" class="st1" width="7" height="7"/>
	<rect x="51.3" y="195.8" class="st1" width="7" height="7"/>
	<rect x="51.3" y="188.6" class="st1" width="7" height="7"/>
	<rect x="51.3" y="181.3" class="st1" width="7" height="7"/>
	<rect x="51.3" y="174" class="st1" width="7" height="7"/>
	<rect x="51.3" y="166.8" class="st1" width="7" height="7"/>
	<rect x="51.3" y="152.3" class="st1" width="7" height="7"/>
	<rect x="51.3" y="145" class="st1" width="7" height="7"/>
	<rect x="51.3" y="137.7" class="st1" width="7" height="7"/>
	<rect x="51.3" y="130.5" class="st1" width="7" height="7"/>
	<rect x="51.3" y="123.2" class="st1" width="7" height="7"/>
	<rect x="51.3" y="116" class="st1" width="7" height="7"/>
	<rect x="51.3" y="108.7" class="st1" width="7" height="7"/>
	<rect x="51.3" y="101.4" class="st1" width="7" height="7"/>
	<rect x="51.3" y="94.2" class="st1" width="7" height="7"/>
	<rect x="51.3" y="86.9" class="st1" width="7" height="7"/>
	<rect x="58.5" y="253.8" class="st1" width="7" height="7"/>
	<rect x="58.5" y="246.5" class="st1" width="7" height="7"/>
	<rect x="58.5" y="239.2" class="st1" width="7" height="7"/>
	<rect x="58.5" y="232" class="st1" width="7" height="7"/>
	<rect x="58.5" y="224.7" class="st1" width="7" height="7"/>
	<rect x="58.5" y="217.5" class="st1" width="7" height="7"/>
	<rect x="58.5" y="210.2" class="st1" width="7" height="7"/>
	<rect x="58.5" y="195.8" class="st1" width="7" height="7"/>
	<rect x="58.5" y="188.6" class="st1" width="7" height="7"/>
	<rect x="58.5" y="181.3" class="st1" width="7" height="7"/>
	<rect x="58.5" y="174" class="st1" width="7" height="7"/>
	<rect x="58.5" y="166.8" class="st1" width="7" height="7"/>
	<rect x="58.5" y="159.5" class="st1" width="7" height="7"/>
	<rect x="58.5" y="152.3" class="st1" width="7" height="7"/>
	<rect x="58.5" y="145" class="st1" width="7" height="7"/>
	<rect x="58.5" y="137.7" class="st1" width="7" height="7"/>
	<rect x="58.5" y="130.5" class="st1" width="7" height="7"/>
	<rect x="58.5" y="123.2" class="st1" width="7" height="7"/>
	<rect x="58.5" y="116" class="st1" width="7" height="7"/>
	<rect x="58.5" y="108.7" class="st1" width="7" height="7"/>
	<rect x="58.5" y="101.4" class="st1" width="7" height="7"/>
	<rect x="58.5" y="94.2" class="st1" width="7" height="7"/>
	<rect x="58.5" y="86.9" class="st1" width="7" height="7"/>
	<rect x="58.5" y="79.7" class="st1" width="7" height="7"/>
	<rect x="58.5" y="72.4" class="st1" width="7" height="7"/>
	<rect x="58.5" y="50.6" class="st1" width="7" height="7"/>
	<rect x="58.5" y="43.4" class="st1" width="7" height="7"/>
	<rect x="65.8" y="253.8" class="st1" width="7" height="7"/>
	<rect x="65.8" y="232" class="st1" width="7" height="7"/>
	<rect x="65.8" y="224.7" class="st1" width="7" height="7"/>
	<rect x="65.8" y="195.8" class="st1" width="7" height="7"/>
	<rect x="65.8" y="188.6" class="st1" width="7" height="7"/>
	<rect x="65.8" y="181.3" class="st1" width="7" height="7"/>
	<rect x="65.8" y="174" class="st1" width="7" height="7"/>
	<rect x="65.8" y="166.8" class="st1" width="7" height="7"/>
	<rect x="65.8" y="159.5" class="st1" width="7" height="7"/>
	<rect x="65.8" y="152.3" class="st1" width="7" height="7"/>
	<rect x="65.8" y="145" class="st1" width="7" height="7"/>
	<rect x="65.8" y="137.7" class="st1" width="7" height="7"/>
	<rect x="65.8" y="130.5" class="st1" width="7" height="7"/>
	<rect x="65.8" y="123.2" class="st1" width="7" height="7"/>
	<rect x="65.8" y="116" class="st1" width="7" height="7"/>
	<rect x="65.8" y="108.7" class="st1" width="7" height="7"/>
	<rect x="65.8" y="101.4" class="st1" width="7" height="7"/>
	<rect x="65.8" y="94.2" class="st1" width="7" height="7"/>
	<rect x="65.8" y="86.9" class="st1" width="7" height="7"/>
	<rect x="65.8" y="79.7" class="st1" width="7" height="7"/>
	<rect x="65.8" y="72.4" class="st1" width="7" height="7"/>
	<rect x="65.8" y="65.1" class="st1" width="7" height="7"/>
	<rect x="65.8" y="57.9" class="st1" width="7" height="7"/>
	<rect x="65.8" y="50.6" class="st1" width="7" height="7"/>
	<rect x="65.8" y="43.4" class="st1" width="7" height="7"/>
	<rect x="65.8" y="36.1" class="st1" width="7" height="7"/>
	<rect x="73" y="253.8" class="st1" width="7" height="7"/>
	<rect x="73" y="239.2" class="st1" width="7" height="7"/>
	<rect x="73" y="232" class="st1" width="7" height="7"/>
	<rect x="73" y="224.7" class="st1" width="7" height="7"/>
	<rect x="73" y="217.5" class="st1" width="7" height="7"/>
	<rect x="73" y="174" class="st1" width="7" height="7"/>
	<rect x="73" y="166.8" class="st1" width="7" height="7"/>
	<rect x="73" y="159.5" class="st1" width="7" height="7"/>
	<rect x="73" y="152.3" class="st1" width="7" height="7"/>
	<rect x="73" y="145" class="st1" width="7" height="7"/>
	<rect x="73" y="137.7" class="st1" width="7" height="7"/>
	<rect x="73" y="130.5" class="st1" width="7" height="7"/>
	<rect x="73" y="123.2" class="st1" width="7" height="7"/>
	<rect x="73" y="116" class="st1" width="7" height="7"/>
	<rect x="73" y="108.7" class="st1" width="7" height="7"/>
	<rect x="73" y="101.4" class="st1" width="7" height="7"/>
	<rect x="73" y="94.2" class="st1" width="7" height="7"/>
	<rect x="73" y="86.9" class="st1" width="7" height="7"/>
	<rect x="73" y="79.7" class="st1" width="7" height="7"/>
	<rect x="73" y="72.4" class="st1" width="7" height="7"/>
	<rect x="73" y="65.1" class="st1" width="7" height="7"/>
	<rect x="73" y="57.9" class="st1" width="7" height="7"/>
	<rect x="73" y="50.6" class="st1" width="7" height="7"/>
	<rect x="73" y="43.4" class="st1" width="7" height="7"/>
	<rect x="73" y="36.1" class="st1" width="7" height="7"/>
	<rect x="80.3" y="246.5" class="st1" width="7" height="7"/>
	<rect x="80.3" y="239.2" class="st1" width="7" height="7"/>
	<rect x="80.3" y="232" class="st1" width="7" height="7"/>
	<rect x="80.3" y="224.7" class="st1" width="7" height="7"/>
	<rect x="80.3" y="217.5" class="st1" width="7" height="7"/>
	<rect x="80.3" y="210.2" class="st1" width="7" height="7"/>
	<rect x="80.3" y="195.8" class="st1" width="7" height="7"/>
	<rect x="80.3" y="174" class="st1" width="7" height="7"/>
	<rect x="80.3" y="166.8" class="st1" width="7" height="7"/>
	<rect x="80.3" y="159.5" class="st1" width="7" height="7"/>
	<rect x="80.3" y="152.3" class="st1" width="7" height="7"/>
	<rect x="80.3" y="145" class="st1" width="7" height="7"/>
	<rect x="80.3" y="137.7" class="st1" width="7" height="7"/>
	<rect x="80.3" y="130.5" class="st1" width="7" height="7"/>
	<rect x="80.3" y="123.2" class="st1" width="7" height="7"/>
	<rect x="80.3" y="116" class="st1" width="7" height="7"/>
	<rect x="80.3" y="108.7" class="st1" width="7" height="7"/>
	<rect x="80.3" y="101.4" class="st1" width="7" height="7"/>
	<rect x="80.3" y="94.2" class="st1" width="7" height="7"/>
	<rect x="80.3" y="86.9" class="st1" width="7" height="7"/>
	<rect x="80.3" y="65.1" class="st1" width="7" height="7"/>
	<rect x="80.3" y="57.9" class="st1" width="7" height="7"/>
	<rect x="80.3" y="50.6" class="st1" width="7" height="7"/>
	<rect x="80.3" y="36.1" class="st1" width="7" height="7"/>
	<rect x="87.6" y="246.5" class="st1" width="7" height="7"/>
	<rect x="87.6" y="239.2" class="st1" width="7" height="7"/>
	<rect x="87.6" y="217.5" class="st1" width="7" height="7"/>
	<rect x="87.6" y="210.2" class="st1" width="7" height="7"/>
	<rect x="87.6" y="195.8" class="st1" width="7" height="7"/>
	<rect x="87.6" y="188.6" class="st1" width="7" height="7"/>
	<rect x="87.6" y="181.3" class="st1" width="7" height="7"/>
	<rect x="87.6" y="174" class="st1" width="7" height="7"/>
	<rect x="87.6" y="166.8" class="st1" width="7" height="7"/>
	<rect x="87.6" y="159.5" class="st1" width="7" height="7"/>
	<rect x="87.6" y="152.3" class="st1" width="7" height="7"/>
	<rect x="87.6" y="57.9" class="st1" width="7" height="7"/>
	<rect x="87.6" y="50.6" class="st1" width="7" height="7"/>
	<rect x="87.6" y="43.4" class="st1" width="7" height="7"/>
	<rect x="94.8" y="195.8" class="st1" width="7" height="7"/>
	<rect x="94.8" y="188.6" class="st1" width="7" height="7"/>
	<rect x="94.8" y="181.3" class="st1" width="7" height="7"/>
	<rect x="94.8" y="174" class="st1" width="7" height="7"/>
	<rect x="94.8" y="166.8" class="st1" width="7" height="7"/>
	<rect x="102.1" y="188.6" class="st1" width="7" height="7"/>
	<rect x="102.1" y="181.3" class="st1" width="7" height="7"/>
	<rect x="51.3" y="203" class="st1" width="7" height="7"/>
	<rect x="58.5" y="203" class="st1" width="7" height="7"/>
	<rect x="80.3" y="203" class="st1" width="7" height="7"/>
	<rect x="87.6" y="203" class="st1" width="7" height="7"/>
	<rect x="87.6" y="108.9" class="st1" width="7" height="7"/>
	<rect x="87.6" y="116.1" class="st1" width="7" height="7"/>
	<rect x="87.6" y="123.4" class="st1" width="7" height="7"/>
	<rect x="94.9" y="116.1" class="st1" width="7" height="7"/>
	<rect x="94.9" y="123.4" class="st1" width="7" height="7"/>
	<rect x="102.1" y="123.4" class="st1" width="7" height="7"/>
	<rect x="94.9" y="130.7" class="st1" width="7" height="7"/>
	<rect x="102.1" y="130.7" class="st1" width="7" height="7"/>
	<rect x="102.1" y="137.9" class="st1" width="7" height="7"/>
	<rect x="102.1" y="145.1" class="st1" width="7" height="7"/>
	<rect x="109.4" y="130.7" class="st1" width="7" height="7"/>
	<rect x="109.4" y="137.9" class="st1" width="7" height="7"/>
	<rect x="109.4" y="145.1" class="st1" width="7" height="7"/>
	<rect x="44" y="101.4" class="st1" width="7" height="7"/>
	<rect x="44" y="108.7" class="st1" width="7" height="7"/>
	<rect x="44" y="115.9" class="st1" width="7" height="7"/>
	<rect x="44" y="123.2" class="st1" width="7" height="7"/>
	<rect x="44" y="152.3" class="st1" width="7" height="7"/>
	<rect x="51.3" y="159.6" class="st1" width="7" height="7"/>
</g>
</svg>
