<?xml version="1.0" encoding="utf-8"?>
<!-- Generator: Adobe Illustrator 27.3.1, SVG Export Plug-In . SVG Version: 6.00 Build 0)  -->
<svg version="1.1" id="Слой_1" xmlns="http://www.w3.org/2000/svg" xmlns:xlink="http://www.w3.org/1999/xlink" x="0px" y="0px"
	 viewBox="0 0 137.7 261" style="enable-background:new 0 0 137.7 261;" xml:space="preserve">
<style type="text/css">
	.st0{fill:#FCE5A9;}
	.st1{fill:#1E0E01;}
</style>
<polygon class="st0" points="28.8,261 7.2,261 7.2,253.8 0,253.8 0,232.3 7.2,232.3 7.2,217.8 14.5,217.8 14.5,203.2 21.8,203.2 
	21.8,188.7 29,188.7 29,174.2 36.3,174.2 36.3,152.4 36,152.2 28.7,152.2 28.8,159.4 21.8,159.4 21.8,152.2 14.5,152.2 14.5,145.2 
	21.8,145.2 21.8,123.1 14.5,123.1 14.5,101.6 21.8,101.6 21.8,87.1 29,87.1 29,72.6 36.3,72.6 36.3,65.3 43.5,65.3 43.5,50.5 
	36.3,50.5 36.3,21.7 43.5,21.7 43.5,14.5 57.8,14.5 57.8,21.7 65.1,21.7 65.1,29 72.3,29 72.3,50.5 65.1,50.5 65,65.3 72.3,65.3 
	72.3,101.6 79.6,101.6 79.6,108.8 94.1,108.8 94.1,116.1 101.4,116.1 101.4,130.6 108.6,130.6 108.6,137.9 115.9,137.9 115.9,144.9 
	108.6,144.9 108.6,152.2 94.4,152.2 94.4,137.6 87.1,137.6 87.1,130.4 79.8,130.4 79.8,123.1 72.3,123.1 72.3,145.2 79.6,145.2 
	79.6,166.9 86.8,166.9 86.8,196 94.1,196 94.1,203.2 101.4,203.2 101.3,225 108.6,225 108.6,232.3 123.4,232.3 123.4,225 137.7,225 
	137.7,239.3 130.4,239.3 130.4,246.5 115.9,246.5 115.9,253.8 108.6,253.8 108.6,261 101.6,261 101.6,246.5 94.4,246.5 94.4,239.3 
	87.1,239.3 87.1,224.8 79.8,224.8 79.8,203 72.6,203 72.6,195.7 65.3,195.7 65.3,188.4 50.5,188.4 50.5,195.7 43.3,195.7 
	43.3,210.2 36,210.2 36,217.5 28.8,217.5 28.8,224.8 21.5,224.8 21.5,254 28.8,254 "/>
<rect x="36.3" y="21.7" class="st1" width="7" height="7"/>
<rect x="36.3" y="29" class="st1" width="7" height="7"/>
<rect x="36.3" y="36.2" class="st1" width="7" height="7"/>
<rect x="36.3" y="43.5" class="st1" width="7" height="7"/>
<rect x="43.5" y="14.5" class="st1" width="7" height="7"/>
<rect x="43.5" y="21.7" class="st1" width="7" height="7"/>
<rect x="43.5" y="29" class="st1" width="7" height="7"/>
<rect x="43.5" y="36.2" class="st1" width="7" height="7"/>
<rect x="43.5" y="43.5" class="st1" width="7" height="7"/>
<rect x="14.5" y="101.6" class="st1" width="7" height="7"/>
<rect x="14.5" y="108.8" class="st1" width="7" height="7"/>
<rect x="14.5" y="116.1" class="st1" width="7" height="7"/>
<rect x="21.8" y="87.1" class="st1" width="7" height="7"/>
<rect x="21.8" y="94.3" class="st1" width="7" height="7"/>
<rect x="21.8" y="101.6" class="st1" width="7" height="7"/>
<rect x="21.8" y="108.8" class="st1" width="7" height="7"/>
<rect x="21.8" y="116.1" class="st1" width="7" height="7"/>
<rect x="29" y="72.6" class="st1" width="7" height="7"/>
<rect x="29" y="79.8" class="st1" width="7" height="7"/>
<rect x="29" y="87.1" class="st1" width="7" height="7"/>
<rect x="29" y="94.3" class="st1" width="7" height="7"/>
<rect x="29" y="101.6" class="st1" width="7" height="7"/>
<rect x="29" y="108.8" class="st1" width="7" height="7"/>
<rect x="29" y="116.1" class="st1" width="7" height="7"/>
<rect x="36.3" y="65.3" class="st1" width="7" height="7"/>
<rect x="36.3" y="72.6" class="st1" width="7" height="7"/>
<rect x="36.3" y="79.8" class="st1" width="7" height="7"/>
<rect x="36.3" y="87.1" class="st1" width="7" height="7"/>
<rect x="36.3" y="94.3" class="st1" width="7" height="7"/>
<rect x="36.3" y="101.6" class="st1" width="7" height="7"/>
<rect x="36.3" y="108.8" class="st1" width="7" height="7"/>
<rect x="43.5" y="50.8" class="st1" width="7" height="7"/>
<rect x="43.5" y="58" class="st1" width="7" height="7"/>
<rect x="43.5" y="65.3" class="st1" width="7" height="7"/>
<rect x="43.5" y="72.6" class="st1" width="7" height="7"/>
<rect x="43.5" y="79.8" class="st1" width="7" height="7"/>
<rect x="43.5" y="87.1" class="st1" width="7" height="7"/>
<rect x="43.5" y="94.3" class="st1" width="7" height="7"/>
<rect x="43.5" y="101.6" class="st1" width="7" height="7"/>
<rect x="43.5" y="108.8" class="st1" width="7" height="7"/>
<rect x="43.5" y="116.1" class="st1" width="7" height="7"/>
<rect x="14.5" y="145.2" class="st1" width="7" height="7"/>
<rect x="21.8" y="123.4" class="st1" width="7" height="7"/>
<rect x="21.8" y="130.6" class="st1" width="7" height="7"/>
<rect x="21.8" y="137.9" class="st1" width="7" height="7"/>
<rect x="21.8" y="145.2" class="st1" width="7" height="7"/>
<rect x="21.8" y="152.4" class="st1" width="7" height="7"/>
<rect x="21.8" y="188.7" class="st1" width="7" height="7"/>
<rect x="29" y="123.4" class="st1" width="7" height="7"/>
<rect x="29" y="130.6" class="st1" width="7" height="7"/>
<rect x="29" y="137.9" class="st1" width="7" height="7"/>
<rect x="29" y="145.2" class="st1" width="7" height="7"/>
<rect x="29" y="174.2" class="st1" width="7" height="7"/>
<rect x="29" y="181.4" class="st1" width="7" height="7"/>
<rect x="29" y="188.7" class="st1" width="7" height="7"/>
<rect x="36.3" y="152.4" class="st1" width="7" height="7"/>
<rect x="36.3" y="159.7" class="st1" width="7" height="7"/>
<rect x="36.3" y="166.9" class="st1" width="7" height="7"/>
<rect x="36.3" y="174.2" class="st1" width="7" height="7"/>
<rect x="36.3" y="181.4" class="st1" width="7" height="7"/>
<rect x="36.3" y="188.7" class="st1" width="7" height="7"/>
<rect x="43.5" y="123.4" class="st1" width="7" height="7"/>
<rect x="43.5" y="130.6" class="st1" width="7" height="7"/>
<rect x="43.5" y="137.9" class="st1" width="7" height="7"/>
<rect x="43.5" y="145.2" class="st1" width="7" height="7"/>
<rect x="43.5" y="152.4" class="st1" width="7" height="7"/>
<rect x="43.5" y="159.7" class="st1" width="7" height="7"/>
<rect x="43.5" y="166.9" class="st1" width="7" height="7"/>
<rect x="43.5" y="174.2" class="st1" width="7" height="7"/>
<rect x="43.5" y="181.4" class="st1" width="7" height="7"/>
<rect x="43.5" y="188.7" class="st1" width="7" height="7"/>
<rect y="232.3" class="st1" width="7" height="7"/>
<rect y="239.5" class="st1" width="7" height="7"/>
<rect y="246.8" class="st1" width="7" height="7"/>
<rect x="7.2" y="217.8" class="st1" width="7" height="7"/>
<rect x="7.2" y="225" class="st1" width="7" height="7"/>
<rect x="7.2" y="232.3" class="st1" width="7" height="7"/>
<rect x="7.2" y="239.5" class="st1" width="7" height="7"/>
<rect x="7.2" y="246.8" class="st1" width="7" height="7"/>
<rect x="14.5" y="203.2" class="st1" width="7" height="7"/>
<rect x="14.5" y="210.5" class="st1" width="7" height="7"/>
<rect x="14.5" y="217.8" class="st1" width="7" height="7"/>
<rect x="14.5" y="225" class="st1" width="7" height="7"/>
<rect x="14.5" y="232.3" class="st1" width="7" height="7"/>
<rect x="14.5" y="239.5" class="st1" width="7" height="7"/>
<rect x="14.5" y="246.8" class="st1" width="7" height="7"/>
<rect x="21.8" y="196" class="st1" width="7" height="7"/>
<rect x="21.8" y="203.2" class="st1" width="7" height="7"/>
<rect x="21.8" y="210.5" class="st1" width="7" height="7"/>
<rect x="21.8" y="217.8" class="st1" width="7" height="7"/>
<rect x="29" y="196" class="st1" width="7" height="7"/>
<rect x="29" y="203.2" class="st1" width="7" height="7"/>
<rect x="29" y="210.5" class="st1" width="7" height="7"/>
<rect x="36.3" y="196" class="st1" width="7" height="7"/>
<rect x="36.3" y="203.2" class="st1" width="7" height="7"/>
<rect x="50.8" y="14.5" class="st1" width="7" height="7"/>
<rect x="50.8" y="21.7" class="st1" width="7" height="7"/>
<rect x="50.8" y="29" class="st1" width="7" height="7"/>
<rect x="50.8" y="36.2" class="st1" width="7" height="7"/>
<rect x="50.8" y="43.5" class="st1" width="7" height="7"/>
<rect x="58.1" y="21.7" class="st1" width="7" height="7"/>
<rect x="58.1" y="36.2" class="st1" width="7" height="7"/>
<rect x="58.1" y="43.5" class="st1" width="7" height="7"/>
<rect x="65.3" y="29" class="st1" width="7" height="7"/>
<rect x="65.3" y="36.2" class="st1" width="7" height="7"/>
<rect x="65.3" y="43.5" class="st1" width="7" height="7"/>
<rect x="50.8" y="50.8" class="st1" width="7" height="7"/>
<rect x="50.8" y="58" class="st1" width="7" height="7"/>
<rect x="50.8" y="65.3" class="st1" width="7" height="7"/>
<rect x="50.8" y="72.6" class="st1" width="7" height="7"/>
<rect x="50.8" y="79.8" class="st1" width="7" height="7"/>
<rect x="50.8" y="87.1" class="st1" width="7" height="7"/>
<rect x="50.8" y="94.3" class="st1" width="7" height="7"/>
<rect x="50.8" y="101.6" class="st1" width="7" height="7"/>
<rect x="50.8" y="108.8" class="st1" width="7" height="7"/>
<rect x="50.8" y="116.1" class="st1" width="7" height="7"/>
<rect x="58.1" y="50.8" class="st1" width="7" height="7"/>
<rect x="58.1" y="58" class="st1" width="7" height="7"/>
<rect x="58.1" y="65.3" class="st1" width="7" height="7"/>
<rect x="58.1" y="72.6" class="st1" width="7" height="7"/>
<rect x="58.1" y="79.8" class="st1" width="7" height="7"/>
<rect x="58.1" y="87.1" class="st1" width="7" height="7"/>
<rect x="58.1" y="94.3" class="st1" width="7" height="7"/>
<rect x="58.1" y="101.6" class="st1" width="7" height="7"/>
<rect x="58.1" y="108.8" class="st1" width="7" height="7"/>
<rect x="58.1" y="116.1" class="st1" width="7" height="7"/>
<rect x="65.3" y="65.3" class="st1" width="7" height="7"/>
<rect x="65.3" y="72.6" class="st1" width="7" height="7"/>
<rect x="65.3" y="79.8" class="st1" width="7" height="7"/>
<rect x="65.3" y="87.1" class="st1" width="7" height="7"/>
<rect x="65.3" y="94.3" class="st1" width="7" height="7"/>
<rect x="65.3" y="101.6" class="st1" width="7" height="7"/>
<rect x="65.3" y="108.8" class="st1" width="7" height="7"/>
<rect x="65.3" y="116.1" class="st1" width="7" height="7"/>
<rect x="72.6" y="101.6" class="st1" width="7" height="7"/>
<rect x="72.6" y="108.8" class="st1" width="7" height="7"/>
<rect x="72.6" y="116.1" class="st1" width="7" height="7"/>
<rect x="79.8" y="108.8" class="st1" width="7" height="7"/>
<rect x="79.8" y="116.1" class="st1" width="7" height="7"/>
<rect x="87.1" y="108.8" class="st1" width="7" height="7"/>
<rect x="87.1" y="116.1" class="st1" width="7" height="7"/>
<rect x="94.4" y="116.1" class="st1" width="7" height="7"/>
<rect x="50.8" y="123.4" class="st1" width="7" height="7"/>
<rect x="50.8" y="130.6" class="st1" width="7" height="7"/>
<rect x="50.8" y="137.9" class="st1" width="7" height="7"/>
<rect x="50.8" y="145.2" class="st1" width="7" height="7"/>
<rect x="50.8" y="152.4" class="st1" width="7" height="7"/>
<rect x="50.8" y="159.7" class="st1" width="7" height="7"/>
<rect x="50.8" y="166.9" class="st1" width="7" height="7"/>
<rect x="50.8" y="174.2" class="st1" width="7" height="7"/>
<rect x="50.8" y="181.4" class="st1" width="7" height="7"/>
<rect x="58.1" y="123.4" class="st1" width="7" height="7"/>
<rect x="58.1" y="130.6" class="st1" width="7" height="7"/>
<rect x="58.1" y="137.9" class="st1" width="7" height="7"/>
<rect x="58.1" y="145.2" class="st1" width="7" height="7"/>
<rect x="58.1" y="152.4" class="st1" width="7" height="7"/>
<rect x="58.1" y="159.7" class="st1" width="7" height="7"/>
<rect x="58.1" y="166.9" class="st1" width="7" height="7"/>
<rect x="58.1" y="174.2" class="st1" width="7" height="7"/>
<rect x="58.1" y="181.4" class="st1" width="7" height="7"/>
<rect x="65.3" y="123.4" class="st1" width="7" height="7"/>
<rect x="65.3" y="130.6" class="st1" width="7" height="7"/>
<rect x="65.3" y="137.9" class="st1" width="7" height="7"/>
<rect x="65.3" y="145.2" class="st1" width="7" height="7"/>
<rect x="65.3" y="152.4" class="st1" width="7" height="7"/>
<rect x="65.3" y="159.7" class="st1" width="7" height="7"/>
<rect x="65.3" y="166.9" class="st1" width="7" height="7"/>
<rect x="65.3" y="174.2" class="st1" width="7" height="7"/>
<rect x="65.3" y="181.4" class="st1" width="7" height="7"/>
<rect x="65.3" y="188.7" class="st1" width="7" height="7"/>
<rect x="72.6" y="145.2" class="st1" width="7" height="7"/>
<rect x="72.6" y="152.4" class="st1" width="7" height="7"/>
<rect x="72.6" y="159.7" class="st1" width="7" height="7"/>
<rect x="72.6" y="166.9" class="st1" width="7" height="7"/>
<rect x="72.6" y="174.2" class="st1" width="7" height="7"/>
<rect x="72.6" y="181.4" class="st1" width="7" height="7"/>
<rect x="72.6" y="188.7" class="st1" width="7" height="7"/>
<rect x="79.8" y="123.4" class="st1" width="7" height="7"/>
<rect x="79.8" y="166.9" class="st1" width="7" height="7"/>
<rect x="79.8" y="174.2" class="st1" width="7" height="7"/>
<rect x="79.8" y="181.4" class="st1" width="7" height="7"/>
<rect x="79.8" y="188.7" class="st1" width="7" height="7"/>
<rect x="87.1" y="123.4" class="st1" width="7" height="7"/>
<rect x="87.1" y="130.6" class="st1" width="7" height="7"/>
<rect x="94.4" y="123.4" class="st1" width="7" height="7"/>
<rect x="94.4" y="130.6" class="st1" width="7" height="7"/>
<rect x="94.4" y="137.9" class="st1" width="7" height="7"/>
<rect x="94.4" y="145.2" class="st1" width="7" height="7"/>
<rect x="101.6" y="130.6" class="st1" width="7" height="7"/>
<rect x="101.6" y="137.9" class="st1" width="7" height="7"/>
<rect x="101.6" y="145.2" class="st1" width="7" height="7"/>
<rect x="108.9" y="137.9" class="st1" width="7" height="7"/>
<rect x="72.6" y="196" class="st1" width="7" height="7"/>
<rect x="79.8" y="196" class="st1" width="7" height="7"/>
<rect x="79.8" y="203.2" class="st1" width="7" height="7"/>
<rect x="79.8" y="210.5" class="st1" width="7" height="7"/>
<rect x="79.8" y="217.8" class="st1" width="7" height="7"/>
<rect x="87.1" y="196" class="st1" width="7" height="7"/>
<rect x="87.1" y="203.2" class="st1" width="7" height="7"/>
<rect x="87.1" y="210.5" class="st1" width="7" height="7"/>
<rect x="87.1" y="217.8" class="st1" width="7" height="7"/>
<rect x="87.1" y="225" class="st1" width="7" height="7"/>
<rect x="87.1" y="232.3" class="st1" width="7" height="7"/>
<rect x="94.4" y="203.2" class="st1" width="7" height="7"/>
<rect x="94.4" y="210.5" class="st1" width="7" height="7"/>
<rect x="94.4" y="217.8" class="st1" width="7" height="7"/>
<rect x="94.4" y="225" class="st1" width="7" height="7"/>
<rect x="94.4" y="232.3" class="st1" width="7" height="7"/>
<rect x="94.4" y="239.5" class="st1" width="7" height="7"/>
<rect x="101.6" y="225" class="st1" width="7" height="7"/>
<rect x="101.6" y="232.3" class="st1" width="7" height="7"/>
<rect x="101.6" y="239.5" class="st1" width="7" height="7"/>
<rect x="101.6" y="246.8" class="st1" width="7" height="7"/>
<rect x="108.9" y="232.3" class="st1" width="7" height="7"/>
<rect x="108.9" y="239.5" class="st1" width="7" height="7"/>
<rect x="108.9" y="246.8" class="st1" width="7" height="7"/>
<rect x="116.1" y="232.3" class="st1" width="7" height="7"/>
<rect x="116.1" y="239.5" class="st1" width="7" height="7"/>
<rect x="123.4" y="225" class="st1" width="7" height="7"/>
<rect x="123.4" y="232.3" class="st1" width="7" height="7"/>
<rect x="123.4" y="239.5" class="st1" width="7" height="7"/>
<rect x="130.7" y="225" class="st1" width="7" height="7"/>
<rect x="130.7" y="232.3" class="st1" width="7" height="7"/>
<rect x="7.2" y="254" class="st1" width="7" height="7"/>
<rect x="14.5" y="254" class="st1" width="7" height="7"/>
<rect x="21.8" y="254" class="st1" width="7" height="7"/>
<rect x="101.6" y="254" class="st1" width="7" height="7"/>
</svg>
