<?xml version="1.0" encoding="utf-8"?>
<!-- Generator: Adobe Illustrator 27.3.1, SVG Export Plug-In . SVG Version: 6.00 Build 0)  -->
<svg version="1.1" xmlns="http://www.w3.org/2000/svg" xmlns:xlink="http://www.w3.org/1999/xlink" x="0px" y="0px"
	 viewBox="0 0 152.2 261.1" style="enable-background:new 0 0 152.2 261.1;" xml:space="preserve">
<style type="text/css">
	.st0{fill:#FCE8B3;}
	.st1{fill:#1E0E01;}
</style>
<g id="Слой_2">
	<path class="st0" d="M130.6,233.3h-7c-0.1,0-0.2,0-0.3,0H122v-1.2c0-3.3-2.7-6-6-6h-1.2v-1.3c0,0,0-0.1,0-0.1c0-0.1,0-0.1,0-0.2v-7
		c0,0,0-0.1,0-0.1c0,0,0-0.1,0-0.1v-7c0,0,0-0.1,0-0.1c0-0.1,0-0.1,0-0.2v-7c0,0,0-0.1,0-0.1c0,0,0-0.1,0-0.1v-7c0-3.3-2.7-6-6-6
		h-1.3v-1.3c0,0,0-0.1,0-0.1c0-0.1,0-0.1,0-0.2v-7c0-3.3-2.7-6-6-6h-1.3V174c0,0,0-0.1,0-0.1c0-0.1,0-0.1,0-0.2v-7c0,0,0-0.1,0-0.1
		c0,0,0-0.1,0-0.1v-7c0-3.3-2.7-6-6-6H93v-1.3c0,0,0-0.1,0-0.2c0,0,0-0.1,0-0.1v-7c0,0,0-0.1,0-0.1c0,0,0-0.1,0-0.1v-1.5
		c0.5,0.1,1,0.2,1.5,0.2h1.2v1.3c0,3.3,2.7,6,6,6h1.3v1.3c0,3.3,2.7,6,6,6h7c0.1,0,0.2,0,0.3,0h7c3.3,0,6-2.7,6-6v-7
		c0,0,0-0.1,0-0.1c0-0.1,0-0.1,0-0.2v-7c0-3.3-2.7-6-6-6H122v-1.3c0-3.3-2.7-6-6-6h-1.3v-1.2c0-3.3-2.7-6-6-6h-1.2v-1.3
		c0-3.3-2.7-6-6-6h-1.3v-1.3c0-3.3-2.7-6-6-6H93v-1.2c0-0.1,0-0.1,0-0.1c0,0,0-0.1,0-0.1v-7c0-3.3-2.7-6-6-6h-1.3v-1.2
		c0-0.1,0-0.1,0-0.1c0,0,0-0.1,0-0.1v-7c0-0.1,0-0.1,0-0.1c0-0.1,0-0.1,0-0.2v-1.2H87c3.3,0,6-2.7,6-6v-1.3h1.2c3.3,0,6-2.7,6-6v-7
		c0,0,0-0.1,0-0.1c0,0,0-0.1,0-0.1v-7c0-0.1,0-0.1,0-0.1c0-0.1,0-0.1,0-0.2v-7c0-3.3-2.7-6-6-6H93V36c0-3.3-2.7-6-6-6h-7
		c-0.1,0-0.1,0-0.2,0c0,0-0.1,0-0.2,0h-7c-0.1,0-0.1,0-0.2,0h-7c-3.3,0-6,2.7-6,6v1.3h-1.3c-3.3,0-6,2.7-6,6v7c0,0.1,0,0.1,0,0.2
		c0,0,0,0.1,0,0.1v7c0,3.3,2.7,6,6,6h1.3v1.2c0,0.1,0,0.1,0,0.2c0,0,0,0.1,0,0.1v1.2h-1.3c-3.3,0-6,2.7-6,6v7c0,0.1,0,0.1,0,0.2
		c0,0,0,0.1,0,0.1v1.3H51c-3.3,0-6,2.7-6,6v1.2h-1.2c-3.3,0-6,2.7-6,6v1.3h-1.3c-3.3,0-6,2.7-6,6v7c0,0,0,0.1,0,0.1c0,0,0,0.1,0,0.1
		v1.3h-1.2c-3.3,0-6,2.7-6,6v1.2H22c-3.3,0-6,2.7-6,6v7c0,3.3,2.7,6,6,6h1.3v1.3c0,0,0,0.1,0,0.1c0,0,0,0.1,0,0.1v7
		c0,0.1,0,0.1,0,0.2c0,0,0,0.1,0,0.2v7c0,0,0,0.1,0,0.1c0,0.1,0,0.1,0,0.2v7c0,0,0,0.1,0,0.1c0,0,0,0.1,0,0.1v1.4H22
		c-3.3,0-6,2.7-6,6v7c0,3.3,2.7,6,6,6h1.3v1.1c0,3.3,2.7,6,6,6h7c0.1,0,0.1,0,0.2,0h7c0.6,0,1.2-0.1,1.8-0.3
		c-0.2,0.6-0.3,1.2-0.3,1.9v7c0,0,0,0.1,0,0.2c0,0,0,0.1,0,0.1v7c0,0,0,0.1,0,0.1c0,0,0,0.1,0,0.1v1.3h-1.3c-3.3,0-6,2.7-6,6v7
		c0,0,0,0.1,0,0.1c0,0,0,0.1,0,0.1v7c0,0,0,0.1,0,0.2c0,0,0,0.1,0,0.1v7c0,0,0,0.1,0,0.1c0,0.1,0,0.1,0,0.2v7c0,0,0,0.1,0,0.1
		c0,0,0,0.1,0,0.1v7c0,0,0,0.1,0,0.1c0,0.1,0,0.1,0,0.2v7c0,0,0,0.1,0,0.1c0,0,0,0.1,0,0.1v7c0,3.3,2.7,6,6,6h7c0.1,0,0.2,0,0.3,0h7
		c0.1,0,0.1,0,0.2,0h7c0.1,0,0.2,0,0.3,0h7c0.1,0,0.1,0,0.2,0h7c3.3,0,6-2.7,6-6v-7c0-3.3-2.7-6-6-6h-1.2v-1.2c0-3.3-2.7-6-6-6h-7
		c-0.1,0-0.2,0-0.3,0H64v-1.3c0,0,0-0.1,0-0.1c0,0,0-0.1,0-0.1v-1.3h1.2c3.3,0,6-2.7,6-6v-7c0,0,0-0.1,0-0.1c0-0.1,0-0.1,0-0.2v-7
		c0,0,0-0.1,0-0.1c0,0,0-0.1,0-0.1V216h1.3c3.3,0,6-2.7,6-6v-7c0,0,0-0.1,0-0.1c0,0,0-0.1,0-0.1v-1.5c0.5,0.1,1,0.2,1.5,0.2h1.2v1.3
		c0,0,0,0.1,0,0.1c0,0,0,0.1,0,0.1v7c0,0,0,0.1,0,0.2c0,0,0,0.1,0,0.1v7c0,0,0,0.1,0,0.1c0,0,0,0.1,0,0.1v7c0,3.3,2.7,6,6,6h1.3v1.3
		c0,0,0,0.1,0,0.1c0,0.1,0,0.1,0,0.2v7c0,0,0,0.1,0,0.1c0,0,0,0.1,0,0.1v7c0,3.3,2.7,6,6,6h1.3v1.3c0,3.3,2.7,6,6,6h7
		c0.1,0,0.1,0,0.2,0h7c0.1,0,0.2,0,0.3,0h7c3.3,0,6-2.7,6-6v-1.3h1.3c3.3,0,6-2.7,6-6v-7C136.6,236,133.9,233.3,130.6,233.3z
		 M49.2,182.8c0.2-0.6,0.3-1.2,0.3-1.9v-7c0,0,0,0,0,0c0,0,0,0,0-0.1v-1.5c0.5,0.1,1,0.2,1.5,0.2h1.2v1.2c0,0,0,0.1,0,0.2
		c0,0,0,0.1,0,0.1v7c0,0,0,0.1,0,0.1c0,0,0,0.1,0,0.1v1.3H51C50.4,182.5,49.8,182.6,49.2,182.8z"/>
</g>
<g id="Слой_1">
	<path class="st1" d="M43.7,253.8h7v7h-7V253.8z M43.7,246.6h7v7h-7V246.6z M43.7,239.3h7v7h-7V239.3z M43.7,232.1h7v7h-7V232.1z
		 M43.7,224.8h7v7h-7V224.8z M43.7,217.5h7v7h-7V217.5z M43.7,210.3h7v7h-7V210.3z M51,253.8h7v7h-7V253.8z M51,246.6h7v7h-7V246.6z
		 M51,239.3h7v7h-7V239.3z M51,232.1h7v7h-7V232.1z M51,224.8h7v7h-7V224.8z M51,217.5h7v7h-7V217.5z M51,210.3h7v7h-7V210.3z
		 M51,203h7v7h-7V203z M51,195.8h7v7h-7V195.8z M51,188.5h7v7h-7V188.5z M51,159.5h7v7h-7V159.5z M51,152.2h7v7h-7V152.2z M51,144.9
		h7v7h-7V144.9z M51,137.7h7v7h-7V137.7z M51,130.4h7v7h-7V130.4z M51,123.2h7v7h-7V123.2z M51,115.9h7v7h-7V115.9z M51,108.6h7v7
		h-7V108.6z M51,101.4h7v7h-7V101.4z M51,94.1h7v7h-7V94.1z M51,86.9h7v7h-7V86.9z M58.2,253.8h7v7h-7V253.8z M58.2,246.6h7v7h-7
		V246.6z M58.2,224.8h7v7h-7V224.8z M58.2,217.5h7v7h-7V217.5z M58.2,210.3h7v7h-7V210.3z M58.2,203h7v7h-7V203z M58.2,195.8h7v7h-7
		V195.8z M58.2,188.5h7v7h-7V188.5z M58.2,181.2h7v7h-7V181.2z M58.2,174h7v7h-7V174z M58.2,166.7h7v7h-7V166.7z M58.2,159.5h7v7h-7
		V159.5z M58.2,152.2h7v7h-7V152.2z M58.2,144.9h7v7h-7V144.9z M58.2,137.7h7v7h-7V137.7z M58.2,130.4h7v7h-7V130.4z M58.2,123.2h7
		v7h-7V123.2z M58.2,115.9h7v7h-7V115.9z M58.2,108.6h7v7h-7V108.6z M58.2,101.4h7v7h-7V101.4z M58.2,94.1h7v7h-7V94.1z M58.2,86.9
		h7v7h-7V86.9z M58.2,79.6h7v7h-7V79.6z M58.2,72.3h7v7h-7V72.3z M58.2,50.6h7v7h-7V50.6z M58.2,43.3h7v7h-7V43.3z M65.5,253.8h7v7
		h-7V253.8z M65.5,246.6h7v7h-7V246.6z M65.5,203h7v7h-7V203z M65.5,195.8h7v7h-7V195.8z M65.5,188.5h7v7h-7V188.5z M65.5,181.2h7v7
		h-7V181.2z M65.5,174h7v7h-7V174z M65.5,166.7h7v7h-7V166.7z M65.5,159.5h7v7h-7V159.5z M65.5,152.2h7v7h-7V152.2z M65.5,144.9h7v7
		h-7V144.9z M65.5,137.7h7v7h-7V137.7z M65.5,130.4h7v7h-7V130.4z M65.5,123.2h7v7h-7V123.2z M65.5,115.9h7v7h-7V115.9z M65.5,108.6
		h7v7h-7V108.6z M65.5,101.4h7v7h-7V101.4z M65.5,94.1h7v7h-7V94.1z M65.5,86.9h7v7h-7V86.9z M65.5,79.6h7v7h-7V79.6z M65.5,72.3h7
		v7h-7V72.3z M65.5,65.1h7v7h-7V65.1z M65.5,57.8h7v7h-7V57.8z M65.5,50.6h7v7h-7V50.6z M65.5,43.3h7v7h-7V43.3z M65.5,36h7v7h-7V36
		z M72.7,253.8h7v7h-7V253.8z M72.7,181.2h7v7h-7V181.2z M72.7,174h7v7h-7V174z M72.7,166.7h7v7h-7V166.7z M72.7,159.5h7v7h-7V159.5
		z M72.7,152.2h7v7h-7V152.2z M72.7,144.9h7v7h-7V144.9z M72.7,137.7h7v7h-7V137.7z M72.7,130.4h7v7h-7V130.4z M72.7,123.2h7v7h-7
		V123.2z M72.7,115.9h7v7h-7V115.9z M72.7,108.6h7v7h-7V108.6z M72.7,101.4h7v7h-7V101.4z M72.7,94.1h7v7h-7V94.1z M72.7,86.9h7v7
		h-7V86.9z M72.7,79.6h7v7h-7V79.6z M72.7,72.3h7v7h-7V72.3z M72.7,65.1h7v7h-7V65.1z M72.7,57.8h7v7h-7V57.8z M72.7,50.6h7v7h-7
		V50.6z M72.7,43.3h7v7h-7V43.3z M72.7,36h7v7h-7V36z M80,188.5h7v7h-7V188.5z M80,181.2h7v7h-7V181.2z M80,174h7v7h-7V174z
		 M80,166.7h7v7h-7V166.7z M80,159.5h7v7h-7V159.5z M80,152.2h7v7h-7V152.2z M80,144.9h7v7h-7V144.9z M80,137.7h7v7h-7V137.7z
		 M80,130.4h7v7h-7V130.4z M80,123.2h7v7h-7V123.2z M80,115.9h7v7h-7V115.9z M80,108.6h7v7h-7V108.6z M80,101.4h7v7h-7V101.4z
		 M80,94.1h7v7h-7V94.1z M80,65.1h7v7h-7V65.1z M80,57.8h7v7h-7V57.8z M80,50.6h7v7h-7V50.6z M80,36h7v7h-7V36z M87.2,217.5h7v7h-7
		V217.5z M87.2,210.3h7v7h-7V210.3z M87.2,203h7v7h-7V203z M87.2,195.8h7v7h-7V195.8z M87.2,188.5h7v7h-7V188.5z M87.2,181.2h7v7h-7
		V181.2z M87.2,174h7v7h-7V174z M87.2,166.7h7v7h-7V166.7z M87.2,159.5h7v7h-7V159.5z M87.2,57.8h7v7h-7V57.8z M87.2,50.6h7v7h-7
		V50.6z M87.2,43.3h7v7h-7V43.3z M94.5,239.3h7v7h-7V239.3z M94.5,232.1h7v7h-7V232.1z M94.5,224.8h7v7h-7V224.8z M94.5,217.5h7v7
		h-7V217.5z M94.5,210.3h7v7h-7V210.3z M94.5,203h7v7h-7V203z M94.5,195.8h7v7h-7V195.8z M94.5,188.5h7v7h-7V188.5z M94.5,181.2h7v7
		h-7V181.2z M101.8,246.6h7v7h-7V246.6z M101.8,239.3h7v7h-7V239.3z M101.8,232.1h7v7h-7V232.1z M101.8,224.8h7v7h-7V224.8z
		 M101.8,217.5h7v7h-7V217.5z M101.8,210.3h7v7h-7V210.3z M101.8,203h7v7h-7V203z M101.8,195.8h7v7h-7V195.8z M109,246.6h7v7h-7
		V246.6z M109,239.3h7v7h-7V239.3z M109,232.1h7v7h-7V232.1z M116.3,246.6h7v7h-7V246.6z M116.3,239.3h7v7h-7V239.3z M123.6,239.3h7
		v7h-7V239.3z M87.2,108.6h7v7h-7V108.6z M87.2,115.9h7v7h-7V115.9z M94.5,115.9h7v7h-7V115.9z M87.2,123.2h7v7h-7V123.2z
		 M94.5,123.2h7v7h-7V123.2z M94.5,130.4h7v7h-7V130.4z M101.7,123.2h7v7h-7V123.2z M101.7,130.4h7v7h-7V130.4z M101.7,137.7h7v7h-7
		V137.7z M109,130.4h7v7h-7V130.4z M109,137.7h7v7h-7V137.7z M109,145h7v7h-7V145z M116.3,137.7h7v7h-7V137.7z M116.3,145h7v7h-7
		V145z M22,123.1h7v7h-7V123.1z M29.3,115.9h7v7h-7V115.9z M29.3,123.1h7v7h-7V123.1z M29.3,130.4h7v7h-7V130.4z M29.3,137.6h7v7h-7
		V137.6z M36.5,101.4h7v7h-7V101.4z M36.5,108.6h7v7h-7V108.6z M36.5,115.9h7v7h-7V115.9z M36.5,123.1h7v7h-7V123.1z M36.5,130.4h7
		v7h-7V130.4z M36.5,137.6h7v7h-7V137.6z M43.8,94.1h7v7h-7V94.1z M43.8,101.4h7v7h-7V101.4z M43.8,108.6h7v7h-7V108.6z M43.8,115.9
		h7v7h-7V115.9z M43.8,123.1h7v7h-7V123.1z M22,166.8h7v7h-7V166.8z M29.3,144.9h7v7h-7V144.9z M29.3,152.2h7v7h-7V152.2z
		 M29.3,159.4h7v7h-7V159.4z M29.3,166.8h7v7h-7V166.8z M29.3,173.9h7v7h-7V173.9z M36.5,144.9h7v7h-7V144.9z M36.5,152.2h7v7h-7
		V152.2z M36.5,159.4h7v7h-7V159.4z M36.5,166.8h7v7h-7V166.8z M36.5,173.9h7v7h-7V173.9z"/>
</g>
</svg>
