<?xml version="1.0" encoding="utf-8"?>
<!-- Generator: Adobe Illustrator 27.3.1, SVG Export Plug-In . SVG Version: 6.00 Build 0)  -->
<svg version="1.1" xmlns="http://www.w3.org/2000/svg" xmlns:xlink="http://www.w3.org/1999/xlink" x="0px" y="0px"
	 viewBox="0 0 152.2 261.1" style="enable-background:new 0 0 152.2 261.1;" xml:space="preserve">
<style type="text/css">
	.st0{fill:#FCE6AB;}
	.st1{fill:#1E0E01;}
</style>
<g id="Слой_3">
	<g>
		<path class="st0" d="M152.8,241.2h-9.5V239c0-2.8-2.2-5-5-5H136v-18.1h2.3c2.8,0,5-2.2,5-5v-44.5c0-2.8-2.2-5-5-5h-9.5v-2.3
			c0-2.8-2.2-5-5-5h-2.3v-2.3c0-2.8-2.2-5-5-5H99.7V136h9.5c2.8,0,5-2.2,5-5v-2.3h2.3c2.8,0,5-2.2,5-5v-9.5h2.3c2.8,0,5-2.2,5-5
			V86.5c0-2.8-2.2-5-5-5h-9.7c0.1-0.4,0.2-0.8,0.2-1.3V78h2.3c2.8,0,5-2.2,5-5V50.2c0-2.8-2.2-5-5-5h-2.3v-2.3c0-2.8-2.2-5-5-5H86.5
			c-2.8,0-5,2.2-5,5v9.5h-2.3c-2.8,0-5,2.2-5,5V67h-24c-2.8,0-5,2.2-5,5v30c0,2.8,2.2,5,5,5h2.3v9.5c0,2.8,2.2,5,5,5H67v3.5h-2.3
			c-2.8,0-5,2.2-5,5v9.5h-2.3c-2.8,0-5,2.2-5,5v24h-2.3c-2.8,0-5,2.2-5,5v24H28.4c-2.8,0-5,2.2-5,5v2.3h-9.5c-2.8,0-5,2.2-5,5v2.3
			h-9.5c-2.8,0-5,2.2-5,5v44.5c0,2.8,2.2,5,5,5h15.5c2.8,0,5-2.2,5-5v-16.8h2.3c2.8,0,5-2.2,5-5v-2.3h9.5c2.8,0,5-2.2,5-5v-2.3h9.5
			c2.8,0,5-2.2,5-5v-2.3h9.5c2.8,0,5-2.2,5-5v-2.3H73c2.8,0,5-2.2,5-5v-9.5h2.3c2.8,0,5-2.2,5-5V194c0.4,0.1,0.8,0.2,1.3,0.2h24
			v47.1h-2.3c-2.8,0-5,2.2-5,5v8.2c0,2.8,2.2,5,5,5h2.3v2.3c0,2.8,2.2,5,5,5h37.3c2.8,0,5-2.2,5-5v-15.5
			C157.8,243.5,155.6,241.2,152.8,241.2z"/>
	</g>
</g>
<g id="Слой_1">
	<rect y="254.1" class="st1" width="7" height="7"/>
	<rect y="246.8" class="st1" width="7" height="7"/>
	<rect y="239.6" class="st1" width="7" height="7"/>
	<rect y="232.3" class="st1" width="7" height="7"/>
	<rect y="225.1" class="st1" width="7" height="7"/>
	<rect y="217.8" class="st1" width="7" height="7"/>
	<rect x="7.3" y="254.1" class="st1" width="7" height="7"/>
	<rect x="7.3" y="246.8" class="st1" width="7" height="7"/>
	<rect x="7.3" y="239.6" class="st1" width="7" height="7"/>
	<rect x="7.3" y="232.3" class="st1" width="7" height="7"/>
	<rect x="7.3" y="225.1" class="st1" width="7" height="7"/>
	<rect x="7.3" y="217.8" class="st1" width="7" height="7"/>
	<rect x="14.5" y="232.3" class="st1" width="7" height="7"/>
	<rect x="14.5" y="225.1" class="st1" width="7" height="7"/>
	<rect x="14.5" y="217.8" class="st1" width="7" height="7"/>
	<rect x="14.5" y="210.5" class="st1" width="7" height="7"/>
	<rect x="21.8" y="225.1" class="st1" width="7" height="7"/>
	<rect x="21.8" y="217.8" class="st1" width="7" height="7"/>
	<rect x="21.8" y="210.5" class="st1" width="7" height="7"/>
	<rect x="29" y="225.1" class="st1" width="7" height="7"/>
	<rect x="29" y="217.8" class="st1" width="7" height="7"/>
	<rect x="29" y="210.5" class="st1" width="7" height="7"/>
	<rect x="29" y="203.3" class="st1" width="7" height="7"/>
	<rect x="36.3" y="217.8" class="st1" width="7" height="7"/>
	<rect x="36.3" y="210.5" class="st1" width="7" height="7"/>
	<rect x="36.3" y="203.3" class="st1" width="7" height="7"/>
	<rect x="43.6" y="217.8" class="st1" width="7" height="7"/>
	<rect x="43.6" y="210.5" class="st1" width="7" height="7"/>
	<rect x="43.6" y="203.3" class="st1" width="7" height="7"/>
	<rect x="50.8" y="210.5" class="st1" width="7" height="7"/>
	<rect x="50.8" y="203.3" class="st1" width="7" height="7"/>
	<rect x="50.8" y="196" class="st1" width="7" height="7"/>
	<rect x="50.8" y="188.8" class="st1" width="7" height="7"/>
	<rect x="50.8" y="181.5" class="st1" width="7" height="7"/>
	<rect x="50.8" y="174.2" class="st1" width="7" height="7"/>
	<rect x="50.8" y="94.4" class="st1" width="7" height="7"/>
	<rect x="50.8" y="87.1" class="st1" width="7" height="7"/>
	<rect x="50.8" y="79.9" class="st1" width="7" height="7"/>
	<rect x="50.8" y="72.6" class="st1" width="7" height="7"/>
	<rect x="58.1" y="210.5" class="st1" width="7" height="7"/>
	<rect x="58.1" y="203.3" class="st1" width="7" height="7"/>
	<rect x="58.1" y="196" class="st1" width="7" height="7"/>
	<rect x="58.1" y="188.8" class="st1" width="7" height="7"/>
	<rect x="58.1" y="181.5" class="st1" width="7" height="7"/>
	<rect x="58.1" y="174.2" class="st1" width="7" height="7"/>
	<rect x="58.1" y="167" class="st1" width="7" height="7"/>
	<rect x="58.1" y="159.7" class="st1" width="7" height="7"/>
	<rect x="58.1" y="152.5" class="st1" width="7" height="7"/>
	<rect x="58.1" y="145.2" class="st1" width="7" height="7"/>
	<rect x="58.1" y="108.9" class="st1" width="7" height="7"/>
	<rect x="58.1" y="101.6" class="st1" width="7" height="7"/>
	<rect x="58.1" y="94.4" class="st1" width="7" height="7"/>
	<rect x="58.1" y="87.1" class="st1" width="7" height="7"/>
	<rect x="58.1" y="79.9" class="st1" width="7" height="7"/>
	<rect x="58.1" y="72.6" class="st1" width="7" height="7"/>
	<rect x="65.3" y="203.3" class="st1" width="7" height="7"/>
	<rect x="65.3" y="196" class="st1" width="7" height="7"/>
	<rect x="65.3" y="188.8" class="st1" width="7" height="7"/>
	<rect x="65.3" y="181.5" class="st1" width="7" height="7"/>
	<rect x="65.3" y="174.2" class="st1" width="7" height="7"/>
	<rect x="65.3" y="167" class="st1" width="7" height="7"/>
	<rect x="65.3" y="159.7" class="st1" width="7" height="7"/>
	<rect x="65.3" y="152.5" class="st1" width="7" height="7"/>
	<rect x="65.3" y="145.2" class="st1" width="7" height="7"/>
	<rect x="65.3" y="137.9" class="st1" width="7" height="7"/>
	<rect x="65.3" y="130.7" class="st1" width="7" height="7"/>
	<rect x="65.3" y="108.9" class="st1" width="7" height="7"/>
	<rect x="65.3" y="101.6" class="st1" width="7" height="7"/>
	<rect x="65.3" y="94.4" class="st1" width="7" height="7"/>
	<rect x="65.3" y="79.9" class="st1" width="7" height="7"/>
	<rect x="65.3" y="72.6" class="st1" width="7" height="7"/>
	<rect x="72.6" y="188.8" class="st1" width="7" height="7"/>
	<rect x="72.6" y="181.5" class="st1" width="7" height="7"/>
	<rect x="72.6" y="174.2" class="st1" width="7" height="7"/>
	<rect x="72.6" y="167" class="st1" width="7" height="7"/>
	<rect x="72.6" y="159.7" class="st1" width="7" height="7"/>
	<rect x="72.6" y="152.5" class="st1" width="7" height="7"/>
	<rect x="72.6" y="145.2" class="st1" width="7" height="7"/>
	<rect x="72.6" y="137.9" class="st1" width="7" height="7"/>
	<rect x="72.6" y="130.7" class="st1" width="7" height="7"/>
	<rect x="72.6" y="123.4" class="st1" width="7" height="7"/>
	<rect x="72.6" y="116.2" class="st1" width="7" height="7"/>
	<rect x="72.6" y="108.9" class="st1" width="7" height="7"/>
	<rect x="72.6" y="101.6" class="st1" width="7" height="7"/>
	<rect x="72.6" y="94.4" class="st1" width="7" height="7"/>
	<rect x="72.6" y="87.1" class="st1" width="7" height="7"/>
	<rect x="72.6" y="79.9" class="st1" width="7" height="7"/>
	<rect x="72.6" y="72.6" class="st1" width="7" height="7"/>
	<rect x="79.9" y="174.2" class="st1" width="7" height="7"/>
	<rect x="79.9" y="167" class="st1" width="7" height="7"/>
	<rect x="79.9" y="159.7" class="st1" width="7" height="7"/>
	<rect x="79.9" y="152.5" class="st1" width="7" height="7"/>
	<rect x="79.9" y="145.2" class="st1" width="7" height="7"/>
	<rect x="79.9" y="137.9" class="st1" width="7" height="7"/>
	<rect x="79.9" y="130.7" class="st1" width="7" height="7"/>
	<rect x="79.9" y="123.4" class="st1" width="7" height="7"/>
	<rect x="79.9" y="116.2" class="st1" width="7" height="7"/>
	<rect x="79.9" y="108.9" class="st1" width="7" height="7"/>
	<rect x="79.9" y="101.6" class="st1" width="7" height="7"/>
	<rect x="79.9" y="94.4" class="st1" width="7" height="7"/>
	<rect x="79.9" y="87.1" class="st1" width="7" height="7"/>
	<rect x="79.9" y="79.9" class="st1" width="7" height="7"/>
	<rect x="79.9" y="72.6" class="st1" width="7" height="7"/>
	<rect x="79.9" y="65.3" class="st1" width="7" height="7"/>
	<rect x="79.9" y="58.1" class="st1" width="7" height="7"/>
	<rect x="87.1" y="181.5" class="st1" width="7" height="7"/>
	<rect x="87.1" y="174.2" class="st1" width="7" height="7"/>
	<rect x="87.1" y="167" class="st1" width="7" height="7"/>
	<rect x="87.1" y="159.7" class="st1" width="7" height="7"/>
	<rect x="87.1" y="152.5" class="st1" width="7" height="7"/>
	<rect x="87.1" y="145.2" class="st1" width="7" height="7"/>
	<rect x="87.1" y="137.9" class="st1" width="7" height="7"/>
	<rect x="87.1" y="130.7" class="st1" width="7" height="7"/>
	<rect x="87.1" y="123.4" class="st1" width="7" height="7"/>
	<rect x="87.1" y="116.2" class="st1" width="7" height="7"/>
	<rect x="87.1" y="108.9" class="st1" width="7" height="7"/>
	<rect x="87.1" y="101.6" class="st1" width="7" height="7"/>
	<rect x="87.1" y="94.4" class="st1" width="7" height="7"/>
	<rect x="87.1" y="87.1" class="st1" width="7" height="7"/>
	<rect x="87.1" y="79.9" class="st1" width="7" height="7"/>
	<rect x="87.1" y="72.6" class="st1" width="7" height="7"/>
	<rect x="87.1" y="65.3" class="st1" width="7" height="7"/>
	<rect x="87.1" y="58.1" class="st1" width="7" height="7"/>
	<rect x="87.1" y="50.8" class="st1" width="7" height="7"/>
	<rect x="87.1" y="43.6" class="st1" width="7" height="7"/>
	<rect x="94.4" y="181.5" class="st1" width="7" height="7"/>
	<rect x="94.4" y="174.2" class="st1" width="7" height="7"/>
	<rect x="94.4" y="167" class="st1" width="7" height="7"/>
	<rect x="94.4" y="159.7" class="st1" width="7" height="7"/>
	<rect x="94.4" y="152.5" class="st1" width="7" height="7"/>
	<rect x="94.4" y="123.4" class="st1" width="7" height="7"/>
	<rect x="94.4" y="116.2" class="st1" width="7" height="7"/>
	<rect x="94.4" y="108.9" class="st1" width="7" height="7"/>
	<rect x="94.4" y="101.6" class="st1" width="7" height="7"/>
	<rect x="94.4" y="94.4" class="st1" width="7" height="7"/>
	<rect x="94.4" y="87.1" class="st1" width="7" height="7"/>
	<rect x="94.4" y="79.9" class="st1" width="7" height="7"/>
	<rect x="94.4" y="72.6" class="st1" width="7" height="7"/>
	<rect x="94.4" y="65.3" class="st1" width="7" height="7"/>
	<rect x="94.4" y="58.1" class="st1" width="7" height="7"/>
	<rect x="94.4" y="50.8" class="st1" width="7" height="7"/>
	<rect x="94.4" y="43.6" class="st1" width="7" height="7"/>
	<rect x="101.6" y="181.5" class="st1" width="7" height="7"/>
	<rect x="101.6" y="174.2" class="st1" width="7" height="7"/>
	<rect x="101.6" y="167" class="st1" width="7" height="7"/>
	<rect x="101.6" y="159.7" class="st1" width="7" height="7"/>
	<rect x="101.6" y="152.5" class="st1" width="7" height="7"/>
	<rect x="101.6" y="123.4" class="st1" width="7" height="7"/>
	<rect x="101.6" y="116.2" class="st1" width="7" height="7"/>
	<rect x="101.6" y="108.9" class="st1" width="7" height="7"/>
	<rect x="101.6" y="101.6" class="st1" width="7" height="7"/>
	<rect x="101.6" y="94.4" class="st1" width="7" height="7"/>
	<rect x="101.6" y="72.6" class="st1" width="7" height="7"/>
	<rect x="101.6" y="65.3" class="st1" width="7" height="7"/>
	<rect x="101.6" y="58.1" class="st1" width="7" height="7"/>
	<rect x="101.6" y="43.6" class="st1" width="7" height="7"/>
	<rect x="108.9" y="246.8" class="st1" width="7" height="7"/>
	<rect x="108.9" y="181.5" class="st1" width="7" height="7"/>
	<rect x="108.9" y="174.2" class="st1" width="7" height="7"/>
	<rect x="108.9" y="167" class="st1" width="7" height="7"/>
	<rect x="108.9" y="159.7" class="st1" width="7" height="7"/>
	<rect x="108.9" y="152.5" class="st1" width="7" height="7"/>
	<rect x="108.9" y="116.2" class="st1" width="7" height="7"/>
	<rect x="108.9" y="108.9" class="st1" width="7" height="7"/>
	<rect x="108.9" y="101.6" class="st1" width="7" height="7"/>
	<rect x="108.9" y="94.4" class="st1" width="7" height="7"/>
	<rect x="108.9" y="87.1" class="st1" width="7" height="7"/>
	<rect x="108.9" y="65.3" class="st1" width="7" height="7"/>
	<rect x="108.9" y="58.1" class="st1" width="7" height="7"/>
	<rect x="108.9" y="50.8" class="st1" width="7" height="7"/>
	<rect x="116.2" y="254.1" class="st1" width="7" height="7"/>
	<rect x="116.2" y="246.8" class="st1" width="7" height="7"/>
	<rect x="116.2" y="239.6" class="st1" width="7" height="7"/>
	<rect x="116.2" y="232.3" class="st1" width="7" height="7"/>
	<rect x="116.2" y="225.1" class="st1" width="7" height="7"/>
	<rect x="116.2" y="217.8" class="st1" width="7" height="7"/>
	<rect x="116.2" y="210.5" class="st1" width="7" height="7"/>
	<rect x="116.2" y="203.3" class="st1" width="7" height="7"/>
	<rect x="116.2" y="196" class="st1" width="7" height="7"/>
	<rect x="116.2" y="188.8" class="st1" width="7" height="7"/>
	<rect x="116.2" y="181.5" class="st1" width="7" height="7"/>
	<rect x="116.2" y="174.2" class="st1" width="7" height="7"/>
	<rect x="116.2" y="167" class="st1" width="7" height="7"/>
	<rect x="116.2" y="159.7" class="st1" width="7" height="7"/>
	<rect x="116.2" y="101.6" class="st1" width="7" height="7"/>
	<rect x="116.2" y="94.4" class="st1" width="7" height="7"/>
	<rect x="116.2" y="87.1" class="st1" width="7" height="7"/>
	<rect x="123.4" y="254.1" class="st1" width="7" height="7"/>
	<rect x="123.4" y="246.8" class="st1" width="7" height="7"/>
	<rect x="123.4" y="239.6" class="st1" width="7" height="7"/>
	<rect x="123.4" y="232.3" class="st1" width="7" height="7"/>
	<rect x="123.4" y="225.1" class="st1" width="7" height="7"/>
	<rect x="123.4" y="217.8" class="st1" width="7" height="7"/>
	<rect x="123.4" y="210.5" class="st1" width="7" height="7"/>
	<rect x="123.4" y="203.3" class="st1" width="7" height="7"/>
	<rect x="123.4" y="196" class="st1" width="7" height="7"/>
	<rect x="123.4" y="188.8" class="st1" width="7" height="7"/>
	<rect x="123.4" y="181.5" class="st1" width="7" height="7"/>
	<rect x="123.4" y="174.2" class="st1" width="7" height="7"/>
	<rect x="123.4" y="167" class="st1" width="7" height="7"/>
	<rect x="130.7" y="254.1" class="st1" width="7" height="7"/>
	<rect x="130.7" y="246.8" class="st1" width="7" height="7"/>
	<rect x="130.7" y="239.6" class="st1" width="7" height="7"/>
	<rect x="130.7" y="203.3" class="st1" width="7" height="7"/>
	<rect x="130.7" y="196" class="st1" width="7" height="7"/>
	<rect x="130.7" y="188.8" class="st1" width="7" height="7"/>
	<rect x="130.7" y="181.5" class="st1" width="7" height="7"/>
	<rect x="130.7" y="174.2" class="st1" width="7" height="7"/>
	<rect x="130.7" y="167" class="st1" width="7" height="7"/>
	<rect x="137.9" y="254.1" class="st1" width="7" height="7"/>
	<rect x="137.9" y="246.8" class="st1" width="7" height="7"/>
	<rect x="145.2" y="254.1" class="st1" width="7" height="7"/>
	<rect x="145.2" y="246.8" class="st1" width="7" height="7"/>
</g>
</svg>
