<?xml version="1.0" encoding="utf-8"?>
<!-- Generator: Adobe Illustrator 27.3.1, SVG Export Plug-In . SVG Version: 6.00 Build 0)  -->
<svg version="1.1" xmlns="http://www.w3.org/2000/svg" xmlns:xlink="http://www.w3.org/1999/xlink" x="0px" y="0px"
	 viewBox="0 0 152.2 261.1" style="enable-background:new 0 0 152.2 261.1;" xml:space="preserve">
<style type="text/css">
	.st0{fill:#FCE8B3;}
	.st1{fill:#1E0E01;}
</style>
<g id="Слой_2">
	<path class="st0" d="M130.5,153.6h-1.3v-1.3c0-3.3-2.7-6-6-6H122v-1.2c0,0,0-0.1,0-0.1c0-0.1,0-0.1,0-0.2v-7c0-3.3-2.7-6-6-6h-1.3
		v-1.3c0-3.3-2.7-6-6-6h-7c0,0-0.1,0-0.2,0c0,0-0.1,0-0.1,0h-1.2v-1.2c0-3.3-2.7-6-6-6H93V116c0,0,0-0.1,0-0.1c0,0,0-0.1,0-0.1v-7
		c0-0.1,0-0.1,0-0.1c0,0,0-0.1,0-0.1v-7c0-0.1,0-0.1,0-0.1c0,0,0-0.1,0-0.1v-7c0-3.3-2.7-6-6-6h-1.3V87c0-0.1,0-0.1,0-0.1
		c0,0,0-0.1,0-0.1v-7c0,0,0-0.1,0-0.1c0,0,0-0.1,0-0.1v-1.3H87c3.3,0,6-2.7,6-6V71h1.2c3.3,0,6-2.7,6-6v-7c0-0.1,0-0.1,0-0.1
		c0,0,0-0.1,0-0.1v-7c0-0.1,0-0.1,0-0.2c0,0,0-0.1,0-0.1v-7c0-3.3-2.7-6-6-6H93v-1.2c0-3.3-2.7-6-6-6h-7c0,0-0.1,0-0.2,0
		c0,0-0.1,0-0.1,0h-7c-0.1,0-0.1,0-0.2,0c0,0-0.1,0-0.1,0h-7c-3.3,0-6,2.7-6,6v1.2h-1.2c-3.3,0-6,2.7-6,6v7c0,0.1,0,0.1,0,0.1
		c0,0.1,0,0.1,0,0.2v7c0,3.3,2.7,6,6,6h1.2V65c0,0,0,0.1,0,0.1c0,0,0,0.1,0,0.1v1.3h-1.2c-3.3,0-6,2.7-6,6v1.2h-1.3
		c-3.3,0-6,2.7-6,6V81h-1.3c-3.3,0-6,2.7-6,6v1.3h-1.3c-3.3,0-6,2.7-6,6v7c0,0,0,0.1,0,0.1c0,0,0,0.1,0,0.1v1.3H29c-3.3,0-6,2.7-6,6
		v7c0,0,0,0.1,0,0.1c0,0,0,0.1,0,0.1v1.3h-1.3c-3.3,0-6,2.7-6,6v7c0,0,0,0.1,0,0.1c0,0,0,0.1,0,0.1v7c0,0,0,0.1,0,0.1
		c0,0.1,0,0.1,0,0.2v7c0,3.3,2.7,6,6,6H23v1.3c0,0,0,0.1,0,0.1c0,0,0,0.1,0,0.1v7c0,0,0,0.1,0,0.2c0,0,0,0.1,0,0.1v1.3h-1.3
		c-3.3,0-6,2.7-6,6v7c0,3.3,2.7,6,6,6H23v1.2c0,3.3,2.7,6,6,6h7c3.3,0,6-2.7,6-6v-1.2h1.2c0.6,0,1.1-0.1,1.6-0.2v1.4
		c0,0.1,0,0.1,0,0.2c0,0,0,0.1,0,0.2v7c0,0,0,0.1,0,0.1c0,0,0,0.1,0,0.1v7c0,0.1,0,0.1,0,0.2c0,0,0,0.1,0,0.2v1.2h-1.2
		c-3.3,0-6,2.7-6,6v7c0,0.1,0,0.1,0,0.2c0,0,0,0.1,0,0.2v1.3h-1.3c-3.3,0-6,2.7-6,6v7c0,0,0,0.1,0,0.1c0,0,0,0.1,0,0.1v1.3h-1.3
		c-3.3,0-6,2.7-6,6v7c0,0,0,0.1,0,0.1c0,0,0,0.1,0,0.1v7c0,0,0,0.1,0,0.2c0,0,0,0.1,0,0.1v7c0,3.3,2.7,6,6,6h1.3v1.3
		c0,3.3,2.7,6,6,6h7c0.1,0,0.2,0,0.3,0h7c0.1,0,0.1,0,0.2,0h7c3.3,0,6-2.7,6-6v-7c0-3.3-2.7-6-6-6h-7c-0.1,0-0.1,0-0.2,0h-1.3v-1.3
		c0,0,0-0.1,0-0.1c0-0.1,0-0.1,0-0.2v-1.2h1.3c3.3,0,6-2.7,6-6v-7c0,0,0-0.1,0-0.1c0-0.1,0-0.1,0-0.2v-1.2h1.2c3.3,0,6-2.7,6-6v-1.3
		h1.3c3.3,0,6-2.7,6-6v-7c0-0.1,0-0.1,0-0.2c0,0,0-0.1,0-0.2v-1.2h1.2c0.6,0,1.1-0.1,1.6-0.2v1.4c0,0.1,0,0.1,0,0.2c0,0,0,0.1,0,0.2
		v7c0,0,0,0.1,0,0.2c0,0,0,0.1,0,0.1v7c0,3.3,2.7,6,6,6h1.2v1.2c0,0,0,0.1,0,0.2c0,0,0,0.1,0,0.1v7c0,0,0,0.1,0,0.1c0,0,0,0.1,0,0.1
		v7c0,0,0,0.1,0,0.2c0,0,0,0.1,0,0.1v7c0,3.3,2.7,6,6,6h1.3v1.3c0,3.3,2.7,6,6,6h7c3.3,0,6-2.7,6-6v-1.3h1.3c0.1,0,0.1,0,0.2,0h7
		c0.1,0,0.2,0,0.3,0h7c3.3,0,6-2.7,6-6v-7c0-3.3-2.7-6-6-6h-7c-0.1,0-0.2,0-0.3,0h-1.2v-1.3c0-3.3-2.7-6-6-6h-1.3v-1.2
		c0,0,0-0.1,0-0.1c0-0.1,0-0.1,0-0.2v-7c0,0,0-0.1,0-0.1c0,0,0-0.1,0-0.1v-7c0,0,0-0.1,0-0.1c0-0.1,0-0.1,0-0.2v-7
		c0-0.1,0-0.1,0-0.2c0,0,0-0.1,0-0.2v-7c0,0,0-0.1,0-0.1c0,0,0-0.1,0-0.1v-7c0-3.3-2.7-6-6-6h-1.3v-1.3c0,0,0-0.1,0-0.1
		c0,0,0-0.1,0-0.1v-7c0-0.1,0-0.1,0-0.2c0,0,0-0.1,0-0.2v-7c0-3.3-2.7-6-6-6H93v-1.2c0-0.1,0-0.1,0-0.2c0,0,0-0.1,0-0.2v-7
		c0,0,0-0.1,0-0.1c0-0.1,0-0.1,0-0.2v-1.4c0.4,0.1,0.9,0.2,1.4,0.2h1.3v1.2c0,3.3,2.7,6,6,6h1.3v1.3c0,0.1,0,0.1,0,0.2
		c0,0,0,0.1,0,0.2v7c0,3.3,2.7,6,6,6h7c0.1,0,0.1,0,0.2,0h7c3.3,0,6-2.7,6-6v-1.3h1.3c3.3,0,6-2.7,6-6v-7
		C136.5,156.3,133.8,153.6,130.5,153.6z"/>
</g>
<g id="Слой_1">
	<path class="st1" d="M29,246.7h7v7h-7V246.7z M29,239.4h7v7h-7V239.4z M29,232.2h7v7h-7V232.2z M36.3,254h7v7h-7V254z M36.3,246.7
		h7v7h-7V246.7z M36.3,239.4h7v7h-7V239.4z M36.3,232.2h7v7h-7V232.2z M36.3,224.9h7v7h-7V224.9z M36.3,217.7h7v7h-7V217.7z
		 M43.6,254h7v7h-7V254z M43.6,232.2h7v7h-7V232.2z M43.6,224.9h7v7h-7V224.9z M43.6,217.7h7v7h-7V217.7z M43.6,210.4h7v7h-7V210.4z
		 M43.6,203.1h7v7h-7V203.1z M50.8,254h7v7h-7V254z M50.8,217.7h7v7h-7V217.7z M50.8,210.4h7v7h-7V210.4z M50.8,203.1h7v7h-7V203.1z
		 M50.8,195.9h7v7h-7V195.9z M50.8,188.6h7v7h-7V188.6z M50.8,181.4h7v7h-7V181.4z M50.8,174.1h7v7h-7V174.1z M50.8,166.9h7v7h-7
		V166.9z M50.8,159.6h7v7h-7V159.6z M50.8,152.3h7v7h-7V152.3z M50.8,145.1h7v7h-7V145.1z M50.8,137.8h7v7h-7V137.8z M50.8,130.6h7
		v7h-7V130.6z M50.8,123.3h7v7h-7V123.3z M50.8,116h7v7h-7V116z M50.8,108.8h7v7h-7V108.8z M50.8,101.5h7v7h-7V101.5z M50.8,94.2h7
		v7h-7V94.2z M50.8,87h7v7h-7V87z M50.8,79.7h7v7h-7V79.7z M58.1,210.4h7v7h-7V210.4z M58.1,203.1h7v7h-7V203.1z M58.1,195.9h7v7h-7
		V195.9z M58.1,188.6h7v7h-7V188.6z M58.1,181.4h7v7h-7V181.4z M58.1,174.1h7v7h-7V174.1z M58.1,166.9h7v7h-7V166.9z M58.1,159.6h7
		v7h-7V159.6z M58.1,152.3h7v7h-7V152.3z M58.1,145.1h7v7h-7V145.1z M58.1,137.8h7v7h-7V137.8z M58.1,130.6h7v7h-7V130.6z
		 M58.1,123.3h7v7h-7V123.3z M58.1,116h7v7h-7V116z M58.1,108.8h7v7h-7V108.8z M58.1,101.5h7v7h-7V101.5z M58.1,94.2h7v7h-7V94.2z
		 M58.1,87h7v7h-7V87z M58.1,79.7h7v7h-7V79.7z M58.1,72.5h7v7h-7V72.5z M58.1,50.7h7v7h-7V50.7z M58.1,43.4h7v7h-7V43.4z
		 M65.3,195.9h7v7h-7V195.9z M65.3,188.6h7v7h-7V188.6z M65.3,181.4h7v7h-7V181.4z M65.3,174.1h7v7h-7V174.1z M65.3,166.9h7v7h-7
		V166.9z M65.3,159.6h7v7h-7V159.6z M65.3,152.3h7v7h-7V152.3z M65.3,145.1h7v7h-7V145.1z M65.3,137.8h7v7h-7V137.8z M65.3,130.6h7
		v7h-7V130.6z M65.3,123.3h7v7h-7V123.3z M65.3,116h7v7h-7V116z M65.3,108.8h7v7h-7V108.8z M65.3,101.5h7v7h-7V101.5z M65.3,94.2h7
		v7h-7V94.2z M65.3,87h7v7h-7V87z M65.3,79.7h7v7h-7V79.7z M65.3,72.5h7v7h-7V72.5z M65.3,65.2h7v7h-7V65.2z M65.3,58h7v7h-7V58z
		 M65.3,50.7h7v7h-7V50.7z M65.3,43.4h7v7h-7V43.4z M65.3,36.2h7v7h-7V36.2z M72.6,188.6h7v7h-7V188.6z M72.6,181.4h7v7h-7V181.4z
		 M72.6,174.1h7v7h-7V174.1z M72.6,166.9h7v7h-7V166.9z M72.6,159.6h7v7h-7V159.6z M72.6,152.3h7v7h-7V152.3z M72.6,145.1h7v7h-7
		V145.1z M72.6,137.8h7v7h-7V137.8z M72.6,130.6h7v7h-7V130.6z M72.6,123.3h7v7h-7V123.3z M72.6,116h7v7h-7V116z M72.6,108.8h7v7h-7
		V108.8z M72.6,101.5h7v7h-7V101.5z M72.6,94.2h7v7h-7V94.2z M72.6,87h7v7h-7V87z M72.6,79.7h7v7h-7V79.7z M72.6,72.5h7v7h-7V72.5z
		 M72.6,65.2h7v7h-7V65.2z M72.6,58h7v7h-7V58z M72.6,50.7h7v7h-7V50.7z M72.6,43.4h7v7h-7V43.4z M72.6,36.2h7v7h-7V36.2z
		 M79.9,217.7h7v7h-7V217.7z M79.9,210.4h7v7h-7V210.4z M79.9,203.1h7v7h-7V203.1z M79.9,195.9h7v7h-7V195.9z M79.9,188.6h7v7h-7
		V188.6z M79.9,181.4h7v7h-7V181.4z M79.9,174.1h7v7h-7V174.1z M79.9,166.9h7v7h-7V166.9z M79.9,159.6h7v7h-7V159.6z M79.9,152.3h7
		v7h-7V152.3z M79.9,145.1h7v7h-7V145.1z M79.9,137.8h7v7h-7V137.8z M79.9,130.6h7v7h-7V130.6z M79.9,123.3h7v7h-7V123.3z M79.9,116
		h7v7h-7V116z M79.9,108.8h7v7h-7V108.8z M79.9,101.5h7v7h-7V101.5z M79.9,94.2h7v7h-7V94.2z M79.9,65.2h7v7h-7V65.2z M79.9,58h7v7
		h-7V58z M79.9,50.7h7v7h-7V50.7z M79.9,36.2h7v7h-7V36.2z M87.1,239.4h7v7h-7V239.4z M87.1,232.2h7v7h-7V232.2z M87.1,224.9h7v7h-7
		V224.9z M87.1,217.7h7v7h-7V217.7z M87.1,210.4h7v7h-7V210.4z M87.1,203.1h7v7h-7V203.1z M87.1,195.9h7v7h-7V195.9z M87.1,188.6h7
		v7h-7V188.6z M87.1,181.4h7v7h-7V181.4z M87.1,174.1h7v7h-7V174.1z M87.1,58h7v7h-7V58z M87.1,50.7h7v7h-7V50.7z M87.1,43.4h7v7h-7
		V43.4z M94.4,254h7v7h-7V254z M94.4,246.7h7v7h-7V246.7z M94.4,239.4h7v7h-7V239.4z M94.4,232.2h7v7h-7V232.2z M94.4,224.9h7v7h-7
		V224.9z M94.4,217.7h7v7h-7V217.7z M94.4,210.4h7v7h-7V210.4z M94.4,203.1h7v7h-7V203.1z M94.4,195.9h7v7h-7V195.9z M87.1,246.7h7
		v7h-7V246.7z M101.7,246.7h7v7h-7V246.7z M101.7,239.4h7v7h-7V239.4z M108.9,246.7h7v7h-7V246.7z M116.2,246.7h7v7h-7V246.7z
		 M87.1,123.3h7v7h-7V123.3z M87.1,130.5h7v7h-7V130.5z M87.1,137.8h7v7h-7V137.8z M94.3,130.5h7v7h-7V130.5z M94.3,137.8h7v7h-7
		V137.8z M101.6,130.5h7v7h-7V130.5z M101.6,137.8h7v7h-7V137.8z M108.9,137.8h7v7h-7V137.8z M94.3,145.1h7v7h-7V145.1z
		 M101.6,145.1h7v7h-7V145.1z M101.6,152.3h7v7h-7V152.3z M108.9,145.1h7v7h-7V145.1z M108.9,152.3h7v7h-7V152.3z M108.9,159.6h7v7
		h-7V159.6z M108.9,166.9h7v7h-7V166.9z M116.1,152.3h7v7h-7V152.3z M116.1,159.6h7v7h-7V159.6z M116.1,166.9h7v7h-7V166.9z
		 M123.4,159.6h7v7h-7V159.6z M21.7,123.3h7v7h-7V123.3z M21.7,130.5h7v7h-7V130.5z M21.7,137.8h7v7h-7V137.8z M29,108.8h7v7h-7
		V108.8z M29,116h7v7h-7V116z M29,123.3h7v7h-7V123.3z M29,130.5h7v7h-7V130.5z M29,137.8h7v7h-7V137.8z M36.2,94.3h7v7h-7V94.3z
		 M36.2,101.5h7v7h-7V101.5z M36.2,108.8h7v7h-7V108.8z M36.2,116h7v7h-7V116z M36.2,123.3h7v7h-7V123.3z M36.2,130.5h7v7h-7V130.5z
		 M36.2,137.8h7v7h-7V137.8z M43.5,87h7v7h-7V87z M43.5,94.3h7v7h-7V94.3z M43.5,101.5h7v7h-7V101.5z M43.5,108.8h7v7h-7V108.8z
		 M43.5,116h7v7h-7V116z M43.5,123.3h7v7h-7V123.3z M43.5,130.5h7v7h-7V130.5z M21.7,166.9h7v7h-7V166.9z M29,145.1h7v7h-7V145.1z
		 M29,152.3h7v7h-7V152.3z M29,159.6h7v7h-7V159.6z M29,166.9h7v7h-7V166.9z M29,174.1h7v7h-7V174.1z M36.2,145.1h7v7h-7V145.1z
		 M36.2,152.3h7v7h-7V152.3z M36.2,159.6h7v7h-7V159.6z M36.2,166.9h7v7h-7V166.9z"/>
</g>
</svg>
