<?xml version="1.0" encoding="utf-8"?>
<!-- Generator: Adobe Illustrator 27.3.1, SVG Export Plug-In . SVG Version: 6.00 Build 0)  -->
<svg version="1.1" xmlns="http://www.w3.org/2000/svg" xmlns:xlink="http://www.w3.org/1999/xlink" x="0px" y="0px"
	 viewBox="0 0 152.2 261.1" style="enable-background:new 0 0 152.2 261.1;" xml:space="preserve">
<style type="text/css">
	.st0{fill:#FCE6AB;}
	.st1{fill:#1E0E01;}
</style>
<g id="Слой_3">
	<g>
		<path class="st0" d="M109.3,37.9H107v-2.3c0-2.8-2.2-5-5-5H86.5c-2.8,0-5,2.2-5,5v2.3h-2.3c-2.8,0-5,2.2-5,5v24h-9.5
			c-2.8,0-5,2.2-5,5v2.3h-2.3c-2.8,0-5,2.2-5,5v9.5h-2.3c-2.8,0-5,2.2-5,5v9.5h-2.3c-2.8,0-5,2.2-5,5v15.5c0,2.8,2.2,5,5,5h2.3v31.3
			c0,2.8,2.2,5,5,5h2.3v2.3c0,1.2,0.4,2.3,1.1,3.1c-0.7,0.9-1.1,1.9-1.1,3.1v2.3h-3.5v-2.3c0-2.8-2.2-5-5-5h-8.2c-2.8,0-5,2.2-5,5
			v37.3c0,2.8,2.2,5,5,5h8.2c2.8,0,5-2.2,5-5v-2.3h2.3c2.8,0,5-2.2,5-5v-2.3h3.5v18h-2.3c-2.8,0-5,2.2-5,5v16.8h-2.3
			c-2.8,0-5,2.2-5,5v15.5c0,2.8,2.2,5,5,5h44.5c2.8,0,5-2.2,5-5v-8.2c0-2.8-2.2-5-5-5h-9.5v-10.8h2.3c2.8,0,5-2.2,5-5v-24h9.5
			c2.8,0,5-2.2,5-5v-2.3h2.3c2.8,0,5-2.2,5-5v-8.2c0-2.8-2.2-5-5-5H107v-16.8c0-2.8-2.2-5-5-5h-2.3v-2.3c0-2.8-2.2-5-5-5h-2.3v-3.5
			h9.5c2.8,0,5-2.2,5-5v-2.3h2.3c2.8,0,5-2.2,5-5v-8.2c0-2.8-2.2-5-5-5H92.5v-3.5h2.3c2.8,0,5-2.2,5-5V78h2.3c2.8,0,5-2.2,5-5v-2.3
			h2.3c2.8,0,5-2.2,5-5V42.9C114.3,40.2,112,37.9,109.3,37.9z"/>
	</g>
</g>
<g id="Слой_1">
	<rect x="36.3" y="203.3" class="st1" width="7" height="7"/>
	<rect x="36.3" y="196" class="st1" width="7" height="7"/>
	<rect x="36.3" y="188.8" class="st1" width="7" height="7"/>
	<rect x="36.3" y="181.5" class="st1" width="7" height="7"/>
	<rect x="36.3" y="174.2" class="st1" width="7" height="7"/>
	<rect x="43.6" y="196" class="st1" width="7" height="7"/>
	<rect x="43.6" y="188.8" class="st1" width="7" height="7"/>
	<rect x="43.6" y="181.5" class="st1" width="7" height="7"/>
	<rect x="43.6" y="116.2" class="st1" width="7" height="7"/>
	<rect x="43.6" y="108.9" class="st1" width="7" height="7"/>
	<rect x="50.8" y="254.1" class="st1" width="7" height="7"/>
	<rect x="50.8" y="246.8" class="st1" width="7" height="7"/>
	<rect x="50.8" y="188.8" class="st1" width="7" height="7"/>
	<rect x="50.8" y="181.5" class="st1" width="7" height="7"/>
	<rect x="50.8" y="152.5" class="st1" width="7" height="7"/>
	<rect x="50.8" y="145.2" class="st1" width="7" height="7"/>
	<rect x="50.8" y="137.9" class="st1" width="7" height="7"/>
	<rect x="50.8" y="130.7" class="st1" width="7" height="7"/>
	<rect x="50.8" y="123.4" class="st1" width="7" height="7"/>
	<rect x="50.8" y="116.2" class="st1" width="7" height="7"/>
	<rect x="50.8" y="108.9" class="st1" width="7" height="7"/>
	<rect x="50.8" y="101.6" class="st1" width="7" height="7"/>
	<rect x="50.8" y="94.4" class="st1" width="7" height="7"/>
	<rect x="58.1" y="254.1" class="st1" width="7" height="7"/>
	<rect x="58.1" y="246.8" class="st1" width="7" height="7"/>
	<rect x="58.1" y="239.6" class="st1" width="7" height="7"/>
	<rect x="58.1" y="232.3" class="st1" width="7" height="7"/>
	<rect x="58.1" y="225.1" class="st1" width="7" height="7"/>
	<rect x="58.1" y="188.8" class="st1" width="7" height="7"/>
	<rect x="58.1" y="181.5" class="st1" width="7" height="7"/>
	<rect x="58.1" y="174.2" class="st1" width="7" height="7"/>
	<rect x="58.1" y="159.7" class="st1" width="7" height="7"/>
	<rect x="58.1" y="152.5" class="st1" width="7" height="7"/>
	<rect x="58.1" y="145.2" class="st1" width="7" height="7"/>
	<rect x="58.1" y="137.9" class="st1" width="7" height="7"/>
	<rect x="58.1" y="130.7" class="st1" width="7" height="7"/>
	<rect x="58.1" y="123.4" class="st1" width="7" height="7"/>
	<rect x="58.1" y="116.2" class="st1" width="7" height="7"/>
	<rect x="58.1" y="108.9" class="st1" width="7" height="7"/>
	<rect x="58.1" y="101.6" class="st1" width="7" height="7"/>
	<rect x="58.1" y="94.4" class="st1" width="7" height="7"/>
	<rect x="58.1" y="87.1" class="st1" width="7" height="7"/>
	<rect x="58.1" y="79.9" class="st1" width="7" height="7"/>
	<rect x="65.3" y="254.1" class="st1" width="7" height="7"/>
	<rect x="65.3" y="246.8" class="st1" width="7" height="7"/>
	<rect x="65.3" y="239.6" class="st1" width="7" height="7"/>
	<rect x="65.3" y="232.3" class="st1" width="7" height="7"/>
	<rect x="65.3" y="225.1" class="st1" width="7" height="7"/>
	<rect x="65.3" y="217.8" class="st1" width="7" height="7"/>
	<rect x="65.3" y="210.5" class="st1" width="7" height="7"/>
	<rect x="65.3" y="203.3" class="st1" width="7" height="7"/>
	<rect x="65.3" y="196" class="st1" width="7" height="7"/>
	<rect x="65.3" y="188.8" class="st1" width="7" height="7"/>
	<rect x="65.3" y="181.5" class="st1" width="7" height="7"/>
	<rect x="65.3" y="174.2" class="st1" width="7" height="7"/>
	<rect x="65.3" y="167" class="st1" width="7" height="7"/>
	<rect x="65.3" y="159.7" class="st1" width="7" height="7"/>
	<rect x="65.3" y="152.5" class="st1" width="7" height="7"/>
	<rect x="65.3" y="145.2" class="st1" width="7" height="7"/>
	<rect x="65.3" y="137.9" class="st1" width="7" height="7"/>
	<rect x="65.3" y="130.7" class="st1" width="7" height="7"/>
	<rect x="65.3" y="123.4" class="st1" width="7" height="7"/>
	<rect x="65.3" y="116.2" class="st1" width="7" height="7"/>
	<rect x="65.3" y="108.9" class="st1" width="7" height="7"/>
	<rect x="65.3" y="101.6" class="st1" width="7" height="7"/>
	<rect x="65.3" y="94.4" class="st1" width="7" height="7"/>
	<rect x="65.3" y="87.1" class="st1" width="7" height="7"/>
	<rect x="65.3" y="79.9" class="st1" width="7" height="7"/>
	<rect x="65.3" y="72.6" class="st1" width="7" height="7"/>
	<rect x="72.6" y="254.1" class="st1" width="7" height="7"/>
	<rect x="72.6" y="246.8" class="st1" width="7" height="7"/>
	<rect x="72.6" y="239.6" class="st1" width="7" height="7"/>
	<rect x="72.6" y="232.3" class="st1" width="7" height="7"/>
	<rect x="72.6" y="225.1" class="st1" width="7" height="7"/>
	<rect x="72.6" y="217.8" class="st1" width="7" height="7"/>
	<rect x="72.6" y="210.5" class="st1" width="7" height="7"/>
	<rect x="72.6" y="203.3" class="st1" width="7" height="7"/>
	<rect x="72.6" y="196" class="st1" width="7" height="7"/>
	<rect x="72.6" y="188.8" class="st1" width="7" height="7"/>
	<rect x="72.6" y="181.5" class="st1" width="7" height="7"/>
	<rect x="72.6" y="174.2" class="st1" width="7" height="7"/>
	<rect x="72.6" y="167" class="st1" width="7" height="7"/>
	<rect x="72.6" y="159.7" class="st1" width="7" height="7"/>
	<rect x="72.6" y="152.5" class="st1" width="7" height="7"/>
	<rect x="72.6" y="145.2" class="st1" width="7" height="7"/>
	<rect x="72.6" y="137.9" class="st1" width="7" height="7"/>
	<rect x="72.6" y="130.7" class="st1" width="7" height="7"/>
	<rect x="72.6" y="123.4" class="st1" width="7" height="7"/>
	<rect x="72.6" y="116.2" class="st1" width="7" height="7"/>
	<rect x="72.6" y="108.9" class="st1" width="7" height="7"/>
	<rect x="72.6" y="101.6" class="st1" width="7" height="7"/>
	<rect x="72.6" y="94.4" class="st1" width="7" height="7"/>
	<rect x="72.6" y="87.1" class="st1" width="7" height="7"/>
	<rect x="72.6" y="79.9" class="st1" width="7" height="7"/>
	<rect x="72.6" y="72.6" class="st1" width="7" height="7"/>
	<rect x="79.9" y="254.1" class="st1" width="7" height="7"/>
	<rect x="79.9" y="225.1" class="st1" width="7" height="7"/>
	<rect x="79.9" y="217.8" class="st1" width="7" height="7"/>
	<rect x="79.9" y="210.5" class="st1" width="7" height="7"/>
	<rect x="79.9" y="203.3" class="st1" width="7" height="7"/>
	<rect x="79.9" y="196" class="st1" width="7" height="7"/>
	<rect x="79.9" y="188.8" class="st1" width="7" height="7"/>
	<rect x="79.9" y="181.5" class="st1" width="7" height="7"/>
	<rect x="79.9" y="174.2" class="st1" width="7" height="7"/>
	<rect x="79.9" y="167" class="st1" width="7" height="7"/>
	<rect x="79.9" y="159.7" class="st1" width="7" height="7"/>
	<rect x="79.9" y="152.5" class="st1" width="7" height="7"/>
	<rect x="79.9" y="145.2" class="st1" width="7" height="7"/>
	<rect x="79.9" y="137.9" class="st1" width="7" height="7"/>
	<rect x="79.9" y="130.7" class="st1" width="7" height="7"/>
	<rect x="79.9" y="123.4" class="st1" width="7" height="7"/>
	<rect x="79.9" y="116.2" class="st1" width="7" height="7"/>
	<rect x="79.9" y="108.9" class="st1" width="7" height="7"/>
	<rect x="79.9" y="101.6" class="st1" width="7" height="7"/>
	<rect x="79.9" y="94.4" class="st1" width="7" height="7"/>
	<rect x="79.9" y="87.1" class="st1" width="7" height="7"/>
	<rect x="79.9" y="79.9" class="st1" width="7" height="7"/>
	<rect x="79.9" y="72.6" class="st1" width="7" height="7"/>
	<rect x="79.9" y="65.3" class="st1" width="7" height="7"/>
	<rect x="79.9" y="58.1" class="st1" width="7" height="7"/>
	<rect x="79.9" y="50.8" class="st1" width="7" height="7"/>
	<rect x="79.9" y="43.6" class="st1" width="7" height="7"/>
	<rect x="87.1" y="254.1" class="st1" width="7" height="7"/>
	<rect x="87.1" y="196" class="st1" width="7" height="7"/>
	<rect x="87.1" y="188.8" class="st1" width="7" height="7"/>
	<rect x="87.1" y="181.5" class="st1" width="7" height="7"/>
	<rect x="87.1" y="174.2" class="st1" width="7" height="7"/>
	<rect x="87.1" y="167" class="st1" width="7" height="7"/>
	<rect x="87.1" y="159.7" class="st1" width="7" height="7"/>
	<rect x="87.1" y="137.9" class="st1" width="7" height="7"/>
	<rect x="87.1" y="130.7" class="st1" width="7" height="7"/>
	<rect x="87.1" y="108.9" class="st1" width="7" height="7"/>
	<rect x="87.1" y="101.6" class="st1" width="7" height="7"/>
	<rect x="87.1" y="94.4" class="st1" width="7" height="7"/>
	<rect x="87.1" y="87.1" class="st1" width="7" height="7"/>
	<rect x="87.1" y="79.9" class="st1" width="7" height="7"/>
	<rect x="87.1" y="72.6" class="st1" width="7" height="7"/>
	<rect x="87.1" y="65.3" class="st1" width="7" height="7"/>
	<rect x="87.1" y="58.1" class="st1" width="7" height="7"/>
	<rect x="87.1" y="50.8" class="st1" width="7" height="7"/>
	<rect x="87.1" y="43.6" class="st1" width="7" height="7"/>
	<rect x="87.1" y="36.3" class="st1" width="7" height="7"/>
	<rect x="94.4" y="196" class="st1" width="7" height="7"/>
	<rect x="94.4" y="188.8" class="st1" width="7" height="7"/>
	<rect x="94.4" y="181.5" class="st1" width="7" height="7"/>
	<rect x="94.4" y="174.2" class="st1" width="7" height="7"/>
	<rect x="94.4" y="167" class="st1" width="7" height="7"/>
	<rect x="94.4" y="137.9" class="st1" width="7" height="7"/>
	<rect x="94.4" y="130.7" class="st1" width="7" height="7"/>
	<rect x="94.4" y="65.3" class="st1" width="7" height="7"/>
	<rect x="94.4" y="58.1" class="st1" width="7" height="7"/>
	<rect x="94.4" y="50.8" class="st1" width="7" height="7"/>
	<rect x="94.4" y="36.3" class="st1" width="7" height="7"/>
	<rect x="101.6" y="188.8" class="st1" width="7" height="7"/>
	<rect x="101.6" y="130.7" class="st1" width="7" height="7"/>
	<rect x="101.6" y="58.1" class="st1" width="7" height="7"/>
	<rect x="101.6" y="50.8" class="st1" width="7" height="7"/>
	<rect x="101.6" y="43.6" class="st1" width="7" height="7"/>
</g>
</svg>
