<?xml version="1.0" encoding="utf-8"?>
<!-- Generator: Adobe Illustrator 27.3.1, SVG Export Plug-In . SVG Version: 6.00 Build 0)  -->
<svg version="1.1" id="Layer_2" xmlns="http://www.w3.org/2000/svg" xmlns:xlink="http://www.w3.org/1999/xlink" x="0px" y="0px"
	 viewBox="0 0 566.9 167.2" style="enable-background:new 0 0 566.9 167.2;" xml:space="preserve">
<style type="text/css">
	.st0{fill:#FBE3A1;}
	.st1{fill:#1E0E01;}
</style>
<g>
	<path class="st0" d="M563.4,109.6h-4.1V98.2c0-1.8-1.4-3.2-3.2-3.2h-18.6V83.7c0-1.8-1.4-3.2-3.2-3.2h-4v-4c0-1.8-1.4-3.2-3.2-3.2
		h-11.3v-4.1c0-1.8-1.4-3.2-3.2-3.2h-4.1v-4.1c0-1.8-1.4-3.2-3.2-3.2h-25.8v-4c0-1.8-1.4-3.2-3.2-3.2h-25.9v-4.1
		c0-1.8-1.4-3.2-3.2-3.2h-11.3v-4c0-1.8-1.4-3.2-3.2-3.2h-11.3v-4.1c0-1.8-1.4-3.2-3.2-3.2h-11.3v-4c0-1.8-1.4-3.2-3.2-3.2h-4.1
		v-4.1c0-1.8-1.4-3.2-3.2-3.2h-11.3v-4.1c0-1.8-1.4-3.2-3.2-3.2H356v-4c0-1.8-1.4-3.2-3.2-3.2h-80.3c-1.8,0-3.2,1.4-3.2,3.2v4h-4
		c-1.8,0-3.2,1.4-3.2,3.2v4.1H258c-1.8,0-3.2,1.4-3.2,3.2v4.1h-4c-1.8,0-3.2,1.4-3.2,3.2v4h-4.1c-1.8,0-3.2,1.4-3.2,3.2V37h-4.1
		c-1.8,0-3.2,1.4-3.2,3.2v4h-11.3c-1.8,0-3.2,1.4-3.2,3.2v4.1h-14.9v-4.1c0-1.8-1.4-3.2-3.2-3.2h-36.8c-1.8,0-3.2,1.4-3.2,3.2v4.1
		H76.5c-1.8,0-3.2,1.4-3.2,3.2v4H33c-1.8,0-3.2,1.4-3.2,3.2V66H18.4c-1.8,0-3.2,1.4-3.2,3.2v4.1h-4c-1.8,0-3.2,1.4-3.2,3.2V95H3.9
		c-1.8,0-3.2,1.4-3.2,3.2v29.5c0,1.8,1.4,3.2,3.2,3.2H8v4.1c0,1.8,1.4,3.2,3.2,3.2h36.7c1.8,0,3.2-1.4,3.2-3.2v-4.1h0.5v11.3
		c0,1.8,1.4,3.2,3.2,3.2h4v4.1c0,1.8,1.4,3.2,3.2,3.2h4.1v4c0,1.8,1.4,3.2,3.2,3.2h4.1v4.1c0,1.8,1.4,3.2,3.2,3.2h44
		c1.8,0,3.2-1.4,3.2-3.2v-4.1h4c1.8,0,3.2-1.4,3.2-3.2v-4h4.1c1.8,0,3.2-1.4,3.2-3.2v-18.6h4c1.8,0,3.2-1.4,3.2-3.2v-15
		c0-1.8-1.4-3.2-3.2-3.2h-4V98.2c0-1.8-1.4-3.2-3.2-3.2H131v-4c0-1.8-1.4-3.2-3.2-3.2h-11.3v-0.4h11.3c1.8,0,3.2-1.4,3.2-3.2v-4.1
		h7.7v0.4h-4.1c-1.8,0-3.2,1.4-3.2,3.2v7.7c0,1.8,1.4,3.2,3.2,3.2h4.1v11.3c0,1.8,1.4,3.2,3.2,3.2h4v20.7c0,1.8,1.4,3.2,3.2,3.2h4.1
		v9.3c0,1.8,1.4,3.2,3.2,3.2h211c1.8,0,3.2-1.4,3.2-3.2v-33.2h0.4v25.8c0,1.8,1.4,3.2,3.2,3.2h4v11.4c0,1.8,1.4,3.2,3.2,3.2h4.1v4
		c0,1.8,1.4,3.2,3.2,3.2H400v4.1c0,1.8,1.4,3.2,3.2,3.2h29.5c1.8,0,3.2-1.4,3.2-3.2v-4.1h4.1c1.8,0,3.2-1.4,3.2-3.2v-4h4
		c1.8,0,3.2-1.4,3.2-3.2v-11.4h4.1c1.8,0,3.2-1.4,3.2-3.2v-29.4c0-1.8-1.4-3.2-3.2-3.2h-4.1v-4.1c0-1.8-1.4-3.2-3.2-3.2h-4v-4
		c0-1.8-1.4-3.2-3.2-3.2h-4.1v-0.4h7.7v4c0,1.8,1.4,3.2,3.2,3.2h4v4.1c0,1.8,1.4,3.2,3.2,3.2h4.1V135c0,1.8,1.4,3.2,3.2,3.2h94.8
		c1.8,0,3.2-1.4,3.2-3.2v-4.1h4.1c1.8,0,3.2-1.4,3.2-3.2v-14.9C566.6,111,565.2,109.6,563.4,109.6z"/>
	<path class="st1" d="M55.2,113h7v7h-7V113z M55.2,120.3h7v7h-7V120.3z M55.2,127.5h7v7h-7V127.5z M55.2,134.8h7v7h-7V134.8z
		 M62.4,98.5h7v7h-7V98.5z M62.4,105.8h7v7h-7V105.8z M62.4,113h7v7h-7V113z M62.4,120.3h7v7h-7V120.3z M62.4,127.5h7v7h-7V127.5z
		 M62.4,134.8h7v7h-7V134.8z M62.4,142.1h7v7h-7V142.1z M69.7,91.3h7v7h-7V91.3z M69.7,98.5h7v7h-7V98.5z M69.7,105.8h7v7h-7V105.8z
		 M69.7,134.8h7v7h-7V134.8z M69.7,142.1h7v7h-7V142.1z M69.7,149.3h7v7h-7V149.3z M77,84h7v7h-7V84z M77,91.3h7v7h-7V91.3z
		 M77,98.5h7v7h-7V98.5z M77,105.8h7v7h-7V105.8z M77,113h7v7h-7V113z M77,120.3h7v7h-7V120.3z M77,127.5h7v7h-7V127.5z M77,134.8h7
		v7h-7V134.8z M77,142.1h7v7h-7V142.1z M77,149.3h7v7h-7V149.3z M77,156.6h7v7h-7V156.6z M84.2,84h7v7h-7V84z M84.2,91.3h7v7h-7
		V91.3z M84.2,105.8h7v7h-7V105.8z M84.2,113h7v7h-7V113z M84.2,120.3h7v7h-7V120.3z M84.2,127.5h7v7h-7V127.5z M84.2,134.8h7v7h-7
		V134.8z M84.2,149.3h7v7h-7V149.3z M84.2,156.6h7v7h-7V156.6z M91.5,84h7v7h-7V84z M91.5,91.3h7v7h-7V91.3z M91.5,105.8h7v7h-7
		V105.8z M91.5,113h7v7h-7V113z M91.5,127.5h7v7h-7V127.5z M91.5,134.8h7v7h-7V134.8z M91.5,149.3h7v7h-7V149.3z M91.5,156.6h7v7h-7
		V156.6z M98.7,84h7v7h-7V84z M98.7,91.3h7v7h-7V91.3z M98.7,105.8h7v7h-7V105.8z M98.7,113h7v7h-7V113z M98.7,120.3h7v7h-7V120.3z
		 M98.7,127.5h7v7h-7V127.5z M98.7,134.8h7v7h-7V134.8z M98.7,149.3h7v7h-7V149.3z M98.7,156.6h7v7h-7V156.6z M106,84h7v7h-7V84z
		 M106,91.3h7v7h-7V91.3z M106,98.5h7v7h-7V98.5z M106,105.8h7v7h-7V105.8z M106,113h7v7h-7V113z M106,120.3h7v7h-7V120.3z
		 M106,127.5h7v7h-7V127.5z M106,134.8h7v7h-7V134.8z M106,142.1h7v7h-7V142.1z M106,149.3h7v7h-7V149.3z M106,156.6h7v7h-7V156.6z
		 M113.3,91.3h7v7h-7V91.3z M113.3,98.5h7v7h-7V98.5z M113.3,105.8h7v7h-7V105.8z M113.3,134.8h7v7h-7V134.8z M113.3,142.1h7v7h-7
		V142.1z M113.3,149.3h7v7h-7V149.3z M113.3,156.6h7v7h-7V156.6z M120.5,91.3h7v7h-7V91.3z M120.5,98.5h7v7h-7V98.5z M120.5,105.8h7
		v7h-7V105.8z M120.5,113h7v7h-7V113z M120.5,120.3h7v7h-7V120.3z M120.5,127.5h7v7h-7V127.5z M120.5,134.8h7v7h-7V134.8z
		 M120.5,142.1h7v7h-7V142.1z M120.5,149.3h7v7h-7V149.3z M127.8,98.5h7v7h-7V98.5z M127.8,105.8h7v7h-7V105.8z M127.8,113h7v7h-7
		V113z M127.8,120.3h7v7h-7V120.3z M127.8,127.5h7v7h-7V127.5z M127.8,134.8h7v7h-7V134.8z M127.8,142.1h7v7h-7V142.1z M135,113h7v7
		h-7V113z M135,120.3h7v7h-7V120.3z M374.6,105.8h7v7h-7V105.8z M374.6,113h7v7h-7V113z M374.6,120.3h7v7h-7V120.3z M374.6,127.5h7
		v7h-7V127.5z M381.8,98.5h7v7h-7V98.5z M381.8,105.8h7v7h-7V105.8z M381.8,113h7v7h-7V113z M381.8,120.3h7v7h-7V120.3z
		 M381.8,127.5h7v7h-7V127.5z M381.8,134.8h7v7h-7V134.8z M381.8,142.1h7v7h-7V142.1z M389.1,91.3h7v7h-7V91.3z M389.1,98.5h7v7h-7
		V98.5z M389.1,105.8h7v7h-7V105.8z M389.1,134.8h7v7h-7V134.8z M389.1,142.1h7v7h-7V142.1z M389.1,149.3h7v7h-7V149.3z M396.4,84h7
		v7h-7V84z M396.4,91.3h7v7h-7V91.3z M396.4,98.5h7v7h-7V98.5z M396.4,105.8h7v7h-7V105.8z M396.4,113h7v7h-7V113z M396.4,120.3h7v7
		h-7V120.3z M396.4,127.5h7v7h-7V127.5z M396.4,134.8h7v7h-7V134.8z M396.4,142.1h7v7h-7V142.1z M396.4,149.3h7v7h-7V149.3z
		 M403.6,84h7v7h-7V84z M403.6,91.3h7v7h-7V91.3z M403.6,105.8h7v7h-7V105.8z M403.6,113h7v7h-7V113z M403.6,120.3h7v7h-7V120.3z
		 M403.6,127.5h7v7h-7V127.5z M403.6,134.8h7v7h-7V134.8z M403.6,149.3h7v7h-7V149.3z M403.6,156.6h7v7h-7V156.6z M410.9,84h7v7h-7
		V84z M410.9,91.3h7v7h-7V91.3z M410.9,105.8h7v7h-7V105.8z M410.9,113h7v7h-7V113z M410.9,127.5h7v7h-7V127.5z M410.9,134.8h7v7h-7
		V134.8z M410.9,149.3h7v7h-7V149.3z M410.9,156.6h7v7h-7V156.6z M418.1,84h7v7h-7V84z M418.1,91.3h7v7h-7V91.3z M418.1,105.8h7v7
		h-7V105.8z M418.1,113h7v7h-7V113z M418.1,120.3h7v7h-7V120.3z M418.1,127.5h7v7h-7V127.5z M418.1,134.8h7v7h-7V134.8z
		 M418.1,149.3h7v7h-7V149.3z M418.1,156.6h7v7h-7V156.6z M425.4,84h7v7h-7V84z M425.4,91.3h7v7h-7V91.3z M425.4,98.5h7v7h-7V98.5z
		 M425.4,105.8h7v7h-7V105.8z M425.4,113h7v7h-7V113z M425.4,120.3h7v7h-7V120.3z M425.4,127.5h7v7h-7V127.5z M425.4,134.8h7v7h-7
		V134.8z M425.4,142.1h7v7h-7V142.1z M425.4,149.3h7v7h-7V149.3z M425.4,156.6h7v7h-7V156.6z M432.7,91.3h7v7h-7V91.3z M432.7,98.5
		h7v7h-7V98.5z M432.7,105.8h7v7h-7V105.8z M432.7,134.8h7v7h-7V134.8z M432.7,142.1h7v7h-7V142.1z M432.7,149.3h7v7h-7V149.3z
		 M439.9,98.5h7v7h-7V98.5z M439.9,105.8h7v7h-7V105.8z M439.9,113h7v7h-7V113z M439.9,120.3h7v7h-7V120.3z M439.9,127.5h7v7h-7
		V127.5z M439.9,134.8h7v7h-7V134.8z M439.9,142.1h7v7h-7V142.1z M447.2,105.8h7v7h-7V105.8z M447.2,113h7v7h-7V113z M447.2,120.3h7
		v7h-7V120.3z M447.2,127.5h7v7h-7V127.5z M4.3,98.5h7v7h-7V98.5z M4.3,105.8h7v7h-7V105.8z M4.3,113.1h7v7h-7V113.1z M4.3,120.3h7
		v7h-7V120.3z M11.6,76.8h7v7h-7V76.8z M11.6,84h7v7h-7V84z M11.6,91.3h7v7h-7V91.3z M11.6,98.5h7v7h-7V98.5z M11.6,113.1h7v7h-7
		V113.1z M11.6,127.6h7v7h-7V127.6z M18.8,69.5h7v7h-7V69.5z M18.8,98.5h7v7h-7V98.5z M18.8,105.8h7v7h-7V105.8z M18.8,113.1h7v7h-7
		V113.1z M18.8,127.6h7v7h-7V127.6z M26.1,69.5h7v7h-7V69.5z M26.1,76.8h7v7h-7V76.8z M26.1,84h7v7h-7V84z M26.1,91.3h7v7h-7V91.3z
		 M26.1,98.5h7v7h-7V98.5z M26.1,105.8h7v7h-7V105.8z M26.1,113.1h7v7h-7V113.1z M26.1,127.6h7v7h-7V127.6z M33.4,62.2h7v7h-7V62.2z
		 M33.4,69.5h7v7h-7V69.5z M33.4,76.8h7v7h-7V76.8z M33.4,84h7v7h-7V84z M33.4,91.3h7v7h-7V91.3z M33.4,98.5h7v7h-7V98.5z
		 M33.4,105.8h7v7h-7V105.8z M33.4,113.1h7v7h-7V113.1z M33.4,127.6h7v7h-7V127.6z M40.6,62.2h7v7h-7V62.2z M40.6,69.5h7v7h-7V69.5z
		 M40.6,76.8h7v7h-7V76.8z M40.6,84h7v7h-7V84z M40.6,91.3h7v7h-7V91.3z M40.6,98.5h7v7h-7V98.5z M40.6,105.8h7v7h-7V105.8z
		 M40.6,113.1h7v7h-7V113.1z M40.6,120.3h7v7h-7V120.3z M40.6,127.6h7v7h-7V127.6z M47.9,62.2h7v7h-7V62.2z M47.9,69.5h7v7h-7V69.5z
		 M47.9,76.8h7v7h-7V76.8z M47.9,84h7v7h-7V84z M47.9,91.3h7v7h-7V91.3z M47.9,98.5h7v7h-7V98.5z M47.9,105.8h7v7h-7V105.8z
		 M47.9,113.1h7v7h-7V113.1z M47.9,120.3h7v7h-7V120.3z M55.1,62.2h7v7h-7V62.2z M55.1,69.5h7v7h-7V69.5z M55.1,84h7v7h-7V84z
		 M55.1,91.3h7v7h-7V91.3z M62.4,62.2h7v7h-7V62.2z M62.4,69.5h7v7h-7V69.5z M62.4,84h7v7h-7V84z M69.7,62.2h7v7h-7V62.2z
		 M69.7,69.5h7v7h-7V69.5z M69.7,76.8h7v7h-7V76.8z M76.9,55h7v7h-7V55z M76.9,62.2h7v7h-7V62.2z M76.9,69.5h7v7h-7V69.5z M84.2,55
		h7v7h-7V55z M84.2,62.2h7v7h-7V62.2z M84.2,69.5h7v7h-7V69.5z M84.2,76.8h7v7h-7V76.8z M91.4,55h7v7h-7V55z M91.4,62.2h7v7h-7V62.2
		z M91.4,69.5h7v7h-7V69.5z M98.7,55h7v7h-7V55z M98.7,62.2h7v7h-7V62.2z M98.7,69.5h7v7h-7V69.5z M98.7,76.8h7v7h-7V76.8z M106,55
		h7v7h-7V55z M106,62.2h7v7h-7V62.2z M106,69.5h7v7h-7V69.5z M113.2,55h7v7h-7V55z M113.2,62.2h7v7h-7V62.2z M113.2,69.5h7v7h-7
		V69.5z M113.2,76.8h7v7h-7V76.8z M120.5,55h7v7h-7V55z M120.5,62.2h7v7h-7V62.2z M120.5,69.5h7v7h-7V69.5z M120.5,76.8h7v7h-7V76.8
		z M127.7,55h7v7h-7V55z M127.7,62.2h7v7h-7V62.2z M127.7,69.5h7v7h-7V69.5z M135,55h7v7h-7V55z M135,62.2h7v7h-7V62.2z M135,69.5h7
		v7h-7V69.5z M135,84h7v7h-7V84z M142.3,55h7v7h-7V55z M142.3,62.2h7v7h-7V62.2z M142.3,69.5h7v7h-7V69.5z M142.3,76.8h7v7h-7V76.8z
		 M142.3,84h7v7h-7V84z M142.3,91.3h7v7h-7V91.3z M142.3,98.5h7v7h-7V98.5z M149.5,55h7v7h-7V55z M149.5,62.2h7v7h-7V62.2z
		 M149.5,69.5h7v7h-7V69.5z M149.5,76.8h7v7h-7V76.8z M149.5,84h7v7h-7V84z M149.5,91.3h7v7h-7V91.3z M149.5,98.5h7v7h-7V98.5z
		 M149.5,105.8h7v7h-7V105.8z M149.5,113.1h7v7h-7V113.1z M149.5,127.6h7v7h-7V127.6z M156.8,55h7v7h-7V55z M156.8,62.2h7v7h-7V62.2
		z M156.8,69.5h7v7h-7V69.5z M156.8,76.8h7v7h-7V76.8z M156.8,84h7v7h-7V84z M156.8,91.3h7v7h-7V91.3z M156.8,98.5h7v7h-7V98.5z
		 M156.8,105.8h7v7h-7V105.8z M156.8,113.1h7v7h-7V113.1z M156.8,127.6h7v7h-7V127.6z M156.8,134.9h7v7h-7V134.9z M164,47.7h7v7h-7
		V47.7z M164,55h7v7h-7V55z M164,62.2h7v7h-7V62.2z M164,69.5h7v7h-7V69.5z M164,76.8h7v7h-7V76.8z M164,84h7v7h-7V84z M164,91.3h7
		v7h-7V91.3z M164,98.5h7v7h-7V98.5z M164,105.8h7v7h-7V105.8z M164,113.1h7v7h-7V113.1z M164,127.6h7v7h-7V127.6z M164,134.9h7v7
		h-7V134.9z M171.3,47.7h7v7h-7V47.7z M171.3,55h7v7h-7V55z M171.3,62.2h7v7h-7V62.2z M171.3,69.5h7v7h-7V69.5z M171.3,76.8h7v7h-7
		V76.8z M171.3,91.3h7v7h-7V91.3z M171.3,98.5h7v7h-7V98.5z M171.3,105.8h7v7h-7V105.8z M171.3,113.1h7v7h-7V113.1z M171.3,127.6h7
		v7h-7V127.6z M171.3,134.9h7v7h-7V134.9z M178.6,47.7h7v7h-7V47.7z M178.6,55h7v7h-7V55z M178.6,62.2h7v7h-7V62.2z M178.6,69.5h7v7
		h-7V69.5z M178.6,76.8h7v7h-7V76.8z M178.6,84h7v7h-7V84z M178.6,98.5h7v7h-7V98.5z M178.6,105.8h7v7h-7V105.8z M178.6,113.1h7v7
		h-7V113.1z M178.6,127.6h7v7h-7V127.6z M178.6,134.9h7v7h-7V134.9z M185.8,47.7h7v7h-7V47.7z M185.8,55h7v7h-7V55z M185.8,62.2h7v7
		h-7V62.2z M185.8,69.5h7v7h-7V69.5z M185.8,76.8h7v7h-7V76.8z M185.8,91.3h7v7h-7V91.3z M185.8,105.8h7v7h-7V105.8z M185.8,113.1h7
		v7h-7V113.1z M185.8,127.6h7v7h-7V127.6z M185.8,134.9h7v7h-7V134.9z M193.1,47.7h7v7h-7V47.7z M193.1,55h7v7h-7V55z M193.1,62.2h7
		v7h-7V62.2z M193.1,69.5h7v7h-7V69.5z M193.1,76.8h7v7h-7V76.8z M193.1,84h7v7h-7V84z M193.1,98.5h7v7h-7V98.5z M193.1,113.1h7v7
		h-7V113.1z M193.1,127.6h7v7h-7V127.6z M193.1,134.9h7v7h-7V134.9z M200.3,55h7v7h-7V55z M200.3,62.2h7v7h-7V62.2z M200.3,69.5h7v7
		h-7V69.5z M200.3,76.8h7v7h-7V76.8z M200.3,91.3h7v7h-7V91.3z M200.3,105.8h7v7h-7V105.8z M200.3,113.1h7v7h-7V113.1z M200.3,127.6
		h7v7h-7V127.6z M200.3,134.9h7v7h-7V134.9z M207.6,55h7v7h-7V55z M207.6,62.2h7v7h-7V62.2z M207.6,69.5h7v7h-7V69.5z M207.6,76.8h7
		v7h-7V76.8z M207.6,84h7v7h-7V84z M207.6,98.5h7v7h-7V98.5z M207.6,113.1h7v7h-7V113.1z M207.6,127.6h7v7h-7V127.6z M207.6,134.9h7
		v7h-7V134.9z M214.9,55h7v7h-7V55z M214.9,62.2h7v7h-7V62.2z M214.9,69.5h7v7h-7V69.5z M214.9,76.8h7v7h-7V76.8z M214.9,84h7v7h-7
		V84z M214.9,91.3h7v7h-7V91.3z M214.9,105.8h7v7h-7V105.8z M214.9,113.1h7v7h-7V113.1z M214.9,127.6h7v7h-7V127.6z M214.9,134.9h7
		v7h-7V134.9z M222.1,47.7h7v7h-7V47.7z M222.1,55h7v7h-7V55z M222.1,62.2h7v7h-7V62.2z M222.1,69.5h7v7h-7V69.5z M222.1,76.8h7v7
		h-7V76.8z M222.1,84h7v7h-7V84z M222.1,91.3h7v7h-7V91.3z M222.1,98.5h7v7h-7V98.5z M222.1,113.1h7v7h-7V113.1z M222.1,127.6h7v7
		h-7V127.6z M222.1,134.9h7v7h-7V134.9z M229.4,47.7h7v7h-7V47.7z M229.4,55h7v7h-7V55z M229.4,62.2h7v7h-7V62.2z M229.4,69.5h7v7
		h-7V69.5z M229.4,76.8h7v7h-7V76.8z M229.4,84h7v7h-7V84z M229.4,91.3h7v7h-7V91.3z M229.4,98.5h7v7h-7V98.5z M229.4,105.8h7v7h-7
		V105.8z M229.4,113.1h7v7h-7V113.1z M229.4,127.6h7v7h-7V127.6z M229.4,134.9h7v7h-7V134.9z M236.6,40.5h7v7h-7V40.5z M236.6,47.7
		h7v7h-7V47.7z M236.6,55h7v7h-7V55z M236.6,62.2h7v7h-7V62.2z M236.6,76.8h7v7h-7V76.8z M236.6,91.3h7v7h-7V91.3z M236.6,98.5h7v7
		h-7V98.5z M236.6,105.8h7v7h-7V105.8z M236.6,113.1h7v7h-7V113.1z M236.6,127.6h7v7h-7V127.6z M236.6,134.9h7v7h-7V134.9z
		 M243.9,33.2h7v7h-7V33.2z M243.9,40.5h7v7h-7V40.5z M243.9,47.7h7v7h-7V47.7z M243.9,55h7v7h-7V55z M243.9,62.2h7v7h-7V62.2z
		 M243.9,69.5h7v7h-7V69.5z M243.9,76.8h7v7h-7V76.8z M243.9,84h7v7h-7V84z M243.9,91.3h7v7h-7V91.3z M243.9,98.5h7v7h-7V98.5z
		 M243.9,105.8h7v7h-7V105.8z M243.9,113.1h7v7h-7V113.1z M243.9,127.6h7v7h-7V127.6z M243.9,134.9h7v7h-7V134.9z M251.2,26h7v7h-7
		V26z M251.2,33.2h7v7h-7V33.2z M251.2,40.5h7v7h-7V40.5z M251.2,47.7h7v7h-7V47.7z M251.2,55h7v7h-7V55z M251.2,62.2h7v7h-7V62.2z
		 M251.2,69.5h7v7h-7V69.5z M251.2,76.8h7v7h-7V76.8z M251.2,84h7v7h-7V84z M251.2,98.5h7v7h-7V98.5z M251.2,105.8h7v7h-7V105.8z
		 M251.2,113.1h7v7h-7V113.1z M251.2,127.6h7v7h-7V127.6z M251.2,134.9h7v7h-7V134.9z M258.4,18.7h7v7h-7V18.7z M258.4,26h7v7h-7V26
		z M258.4,33.2h7v7h-7V33.2z M258.4,40.5h7v7h-7V40.5z M258.4,47.7h7v7h-7V47.7z M258.4,55h7v7h-7V55z M258.4,62.2h7v7h-7V62.2z
		 M258.4,69.5h7v7h-7V69.5z M258.4,76.8h7v7h-7V76.8z M258.4,84h7v7h-7V84z M258.4,91.3h7v7h-7V91.3z M258.4,98.5h7v7h-7V98.5z
		 M258.4,105.8h7v7h-7V105.8z M258.4,113.1h7v7h-7V113.1z M258.4,127.6h7v7h-7V127.6z M258.4,134.9h7v7h-7V134.9z M265.7,11.4h7v7
		h-7V11.4z M265.7,18.7h7v7h-7V18.7z M265.7,26h7v7h-7V26z M265.7,33.2h7v7h-7V33.2z M265.7,40.5h7v7h-7V40.5z M265.7,47.7h7v7h-7
		V47.7z M265.7,55h7v7h-7V55z M265.7,62.2h7v7h-7V62.2z M265.7,69.5h7v7h-7V69.5z M265.7,76.8h7v7h-7V76.8z M265.7,84h7v7h-7V84z
		 M265.7,98.5h7v7h-7V98.5z M265.7,105.8h7v7h-7V105.8z M265.7,113.1h7v7h-7V113.1z M265.7,127.6h7v7h-7V127.6z M265.7,134.9h7v7h-7
		V134.9z M272.9,4.2h7v7h-7V4.2z M272.9,11.4h7v7h-7V11.4z M272.9,18.7h7v7h-7V18.7z M272.9,26h7v7h-7V26z M272.9,33.2h7v7h-7V33.2z
		 M272.9,40.5h7v7h-7V40.5z M272.9,47.7h7v7h-7V47.7z M272.9,55h7v7h-7V55z M272.9,62.2h7v7h-7V62.2z M272.9,69.5h7v7h-7V69.5z
		 M272.9,76.8h7v7h-7V76.8z M272.9,84h7v7h-7V84z M272.9,98.5h7v7h-7V98.5z M272.9,105.8h7v7h-7V105.8z M272.9,113.1h7v7h-7V113.1z
		 M272.9,127.6h7v7h-7V127.6z M272.9,134.9h7v7h-7V134.9z M280.2,4.2h7v7h-7V4.2z M280.2,11.4h7v7h-7V11.4z M280.2,18.7h7v7h-7V18.7
		z M280.2,26h7v7h-7V26z M280.2,33.2h7v7h-7V33.2z M280.2,55h7v7h-7V55z M280.2,62.2h7v7h-7V62.2z M280.2,69.5h7v7h-7V69.5z
		 M280.2,84h7v7h-7V84z M280.2,98.5h7v7h-7V98.5z M280.2,105.8h7v7h-7V105.8z M280.2,113.1h7v7h-7V113.1z M280.2,127.6h7v7h-7V127.6
		z M280.2,134.9h7v7h-7V134.9z M287.5,4.2h7v7h-7V4.2z M287.5,11.4h7v7h-7V11.4z M287.5,18.7h7v7h-7V18.7z M287.5,26h7v7h-7V26z
		 M287.5,55h7v7h-7V55z M287.5,62.2h7v7h-7V62.2z M287.5,69.5h7v7h-7V69.5z M287.5,84h7v7h-7V84z M287.5,98.5h7v7h-7V98.5z
		 M287.5,105.8h7v7h-7V105.8z M287.5,113.1h7v7h-7V113.1z M287.5,127.6h7v7h-7V127.6z M287.5,134.9h7v7h-7V134.9z M294.7,4.2h7v7h-7
		V4.2z M294.7,11.4h7v7h-7V11.4z M294.7,18.7h7v7h-7V18.7z M294.7,26h7v7h-7V26z M294.7,33.2h7v7h-7V33.2z M294.7,40.5h7v7h-7V40.5z
		 M294.7,47.7h7v7h-7V47.7z M294.7,55h7v7h-7V55z M294.7,62.2h7v7h-7V62.2z M294.7,69.5h7v7h-7V69.5z M294.7,84h7v7h-7V84z
		 M294.7,98.5h7v7h-7V98.5z M294.7,105.8h7v7h-7V105.8z M294.7,113.1h7v7h-7V113.1z M294.7,127.6h7v7h-7V127.6z M294.7,134.9h7v7h-7
		V134.9z M302,4.2h7v7h-7V4.2z M302,11.4h7v7h-7V11.4z M302,18.7h7v7h-7V18.7z M302,55h7v7h-7V55z M302,62.2h7v7h-7V62.2z M302,69.5
		h7v7h-7V69.5z M302,84h7v7h-7V84z M302,98.5h7v7h-7V98.5z M302,105.8h7v7h-7V105.8z M302,113.1h7v7h-7V113.1z M302,127.6h7v7h-7
		V127.6z M302,134.9h7v7h-7V134.9z M309.2,4.2h7v7h-7V4.2z M309.2,11.4h7v7h-7V11.4z M309.2,18.7h7v7h-7V18.7z M309.2,55h7v7h-7V55z
		 M309.2,62.2h7v7h-7V62.2z M309.2,69.5h7v7h-7V69.5z M309.2,76.8h7v7h-7V76.8z M309.2,84h7v7h-7V84z M309.2,98.5h7v7h-7V98.5z
		 M309.2,105.8h7v7h-7V105.8z M309.2,113.1h7v7h-7V113.1z M309.2,127.6h7v7h-7V127.6z M309.2,134.9h7v7h-7V134.9z M316.5,4.2h7v7h-7
		V4.2z M316.5,11.4h7v7h-7V11.4z M316.5,18.7h7v7h-7V18.7z M316.5,55h7v7h-7V55z M316.5,62.2h7v7h-7V62.2z M316.5,69.5h7v7h-7V69.5z
		 M316.5,76.8h7v7h-7V76.8z M316.5,84h7v7h-7V84z M316.5,98.5h7v7h-7V98.5z M316.5,105.8h7v7h-7V105.8z M316.5,113.1h7v7h-7V113.1z
		 M316.5,127.6h7v7h-7V127.6z M316.5,134.9h7v7h-7V134.9z M323.8,4.2h7v7h-7V4.2z M323.8,11.4h7v7h-7V11.4z M323.8,18.7h7v7h-7V18.7
		z M323.8,55h7v7h-7V55z M323.8,62.2h7v7h-7V62.2z M323.8,69.5h7v7h-7V69.5z M323.8,76.8h7v7h-7V76.8z M323.8,84h7v7h-7V84z
		 M323.8,98.5h7v7h-7V98.5z M323.8,105.8h7v7h-7V105.8z M323.8,113.1h7v7h-7V113.1z M323.8,127.6h7v7h-7V127.6z M323.8,134.9h7v7h-7
		V134.9z M331,4.2h7v7h-7V4.2z M331,11.4h7v7h-7V11.4z M331,18.7h7v7h-7V18.7z M331,55h7v7h-7V55z M331,62.2h7v7h-7V62.2z M331,69.5
		h7v7h-7V69.5z M331,76.8h7v7h-7V76.8z M331,84h7v7h-7V84z M331,98.5h7v7h-7V98.5z M331,105.8h7v7h-7V105.8z M331,113.1h7v7h-7
		V113.1z M331,127.6h7v7h-7V127.6z M331,134.9h7v7h-7V134.9z M338.3,4.2h7v7h-7V4.2z M338.3,11.4h7v7h-7V11.4z M338.3,18.7h7v7h-7
		V18.7z M338.3,47.7h7v7h-7V47.7z M338.3,55h7v7h-7V55z M338.3,62.2h7v7h-7V62.2z M338.3,69.5h7v7h-7V69.5z M338.3,76.8h7v7h-7V76.8
		z M338.3,84h7v7h-7V84z M338.3,91.3h7v7h-7V91.3z M338.3,98.5h7v7h-7V98.5z M338.3,105.8h7v7h-7V105.8z M338.3,113.1h7v7h-7V113.1z
		 M338.3,127.6h7v7h-7V127.6z M338.3,134.9h7v7h-7V134.9z M345.5,4.2h7v7h-7V4.2z M345.5,11.4h7v7h-7V11.4z M345.5,18.7h7v7h-7V18.7
		z M345.5,26h7v7h-7V26z M345.5,33.2h7v7h-7V33.2z M345.5,40.5h7v7h-7V40.5z M345.5,47.7h7v7h-7V47.7z M345.5,55h7v7h-7V55z
		 M345.5,62.2h7v7h-7V62.2z M345.5,69.5h7v7h-7V69.5z M345.5,76.8h7v7h-7V76.8z M345.5,84h7v7h-7V84z M345.5,91.3h7v7h-7V91.3z
		 M345.5,98.5h7v7h-7V98.5z M345.5,105.8h7v7h-7V105.8z M345.5,113.1h7v7h-7V113.1z M345.5,127.6h7v7h-7V127.6z M345.5,134.9h7v7h-7
		V134.9z M352.8,11.4h7v7h-7V11.4z M352.8,18.7h7v7h-7V18.7z M352.8,26h7v7h-7V26z M352.8,33.2h7v7h-7V33.2z M352.8,40.5h7v7h-7
		V40.5z M352.8,47.7h7v7h-7V47.7z M352.8,55h7v7h-7V55z M352.8,84h7v7h-7V84z M352.8,91.3h7v7h-7V91.3z M352.8,98.5h7v7h-7V98.5z
		 M352.8,105.8h7v7h-7V105.8z M352.8,113.1h7v7h-7V113.1z M352.8,127.6h7v7h-7V127.6z M352.8,134.9h7v7h-7V134.9z M360.1,11.4h7v7
		h-7V11.4z M360.1,18.7h7v7h-7V18.7z M360.1,26h7v7h-7V26z M360.1,33.2h7v7h-7V33.2z M360.1,40.5h7v7h-7V40.5z M360.1,47.7h7v7h-7
		V47.7z M360.1,55h7v7h-7V55z M360.1,62.2h7v7h-7V62.2z M360.1,69.5h7v7h-7V69.5z M360.1,76.8h7v7h-7V76.8z M360.1,84h7v7h-7V84z
		 M360.1,91.3h7v7h-7V91.3z M360.1,98.5h7v7h-7V98.5z M360.1,105.8h7v7h-7V105.8z M360.1,113.1h7v7h-7V113.1z M360.1,127.6h7v7h-7
		V127.6z M360.1,134.9h7v7h-7V134.9z M367.3,11.4h7v7h-7V11.4z M367.3,18.7h7v7h-7V18.7z M367.3,26h7v7h-7V26z M367.3,55h7v7h-7V55z
		 M367.3,62.2h7v7h-7V62.2z M367.3,69.5h7v7h-7V69.5z M367.3,76.8h7v7h-7V76.8z M367.3,84h7v7h-7V84z M367.3,91.3h7v7h-7V91.3z
		 M367.3,98.5h7v7h-7V98.5z M374.6,11.4h7v7h-7V11.4z M374.6,18.7h7v7h-7V18.7z M374.6,26h7v7h-7V26z M374.6,55h7v7h-7V55z
		 M374.6,62.2h7v7h-7V62.2z M374.6,69.5h7v7h-7V69.5z M374.6,76.8h7v7h-7V76.8z M374.6,84h7v7h-7V84z M381.8,18.7h7v7h-7V18.7z
		 M381.8,26h7v7h-7V26z M381.8,33.2h7v7h-7V33.2z M381.8,55h7v7h-7V55z M381.8,62.2h7v7h-7V62.2z M381.8,69.5h7v7h-7V69.5z
		 M381.8,76.8h7v7h-7V76.8z M389.1,18.7h7v7h-7V18.7z M389.1,26h7v7h-7V26z M389.1,33.2h7v7h-7V33.2z M389.1,40.5h7v7h-7V40.5z
		 M389.1,55h7v7h-7V55z M389.1,62.2h7v7h-7V62.2z M389.1,69.5h7v7h-7V69.5z M389.1,76.8h7v7h-7V76.8z M396.4,26h7v7h-7V26z
		 M396.4,33.2h7v7h-7V33.2z M396.4,40.5h7v7h-7V40.5z M396.4,47.7h7v7h-7V47.7z M396.4,55h7v7h-7V55z M396.4,62.2h7v7h-7V62.2z
		 M396.4,69.5h7v7h-7V69.5z M396.4,76.8h7v7h-7V76.8z M403.6,33.2h7v7h-7V33.2z M403.6,40.5h7v7h-7V40.5z M403.6,47.7h7v7h-7V47.7z
		 M403.6,55h7v7h-7V55z M403.6,62.2h7v7h-7V62.2z M403.6,69.5h7v7h-7V69.5z M403.6,76.8h7v7h-7V76.8z M410.9,33.2h7v7h-7V33.2z
		 M410.9,40.5h7v7h-7V40.5z M410.9,47.7h7v7h-7V47.7z M410.9,55h7v7h-7V55z M410.9,62.2h7v7h-7V62.2z M410.9,69.5h7v7h-7V69.5z
		 M410.9,76.8h7v7h-7V76.8z M418.1,40.5h7v7h-7V40.5z M418.1,47.7h7v7h-7V47.7z M418.1,55h7v7h-7V55z M418.1,62.2h7v7h-7V62.2z
		 M418.1,69.5h7v7h-7V69.5z M418.1,76.8h7v7h-7V76.8z M425.4,40.5h7v7h-7V40.5z M425.4,47.7h7v7h-7V47.7z M425.4,55h7v7h-7V55z
		 M425.4,62.2h7v7h-7V62.2z M425.4,69.5h7v7h-7V69.5z M425.4,76.8h7v7h-7V76.8z M432.7,47.7h7v7h-7V47.7z M432.7,55h7v7h-7V55z
		 M432.7,62.2h7v7h-7V62.2z M432.7,69.5h7v7h-7V69.5z M432.7,76.8h7v7h-7V76.8z M439.9,47.7h7v7h-7V47.7z M439.9,55h7v7h-7V55z
		 M439.9,62.2h7v7h-7V62.2z M439.9,69.5h7v7h-7V69.5z M439.9,76.8h7v7h-7V76.8z M447.2,55h7v7h-7V55z M447.2,62.2h7v7h-7V62.2z
		 M447.2,69.5h7v7h-7V69.5z M447.2,76.8h7v7h-7V76.8z M447.2,84h7v7h-7V84z M454.4,55h7v7h-7V55z M454.4,62.2h7v7h-7V62.2z
		 M454.4,69.5h7v7h-7V69.5z M454.4,76.8h7v7h-7V76.8z M454.4,84h7v7h-7V84z M454.4,91.3h7v7h-7V91.3z M461.7,55h7v7h-7V55z
		 M461.7,62.2h7v7h-7V62.2z M461.7,69.5h7v7h-7V69.5z M461.7,76.8h7v7h-7V76.8z M461.7,91.3h7v7h-7V91.3z M461.7,98.5h7v7h-7V98.5z
		 M461.7,105.8h7v7h-7V105.8z M461.7,113.1h7v7h-7V113.1z M461.7,120.3h7v7h-7V120.3z M461.7,127.6h7v7h-7V127.6z M469,55h7v7h-7V55
		z M469,62.2h7v7h-7V62.2z M469,69.5h7v7h-7V69.5z M469,76.8h7v7h-7V76.8z M469,91.3h7v7h-7V91.3z M469,98.5h7v7h-7V98.5z
		 M469,105.8h7v7h-7V105.8z M469,113.1h7v7h-7V113.1z M469,120.3h7v7h-7V120.3z M469,127.6h7v7h-7V127.6z M476.2,62.2h7v7h-7V62.2z
		 M476.2,69.5h7v7h-7V69.5z M476.2,76.8h7v7h-7V76.8z M476.2,84h7v7h-7V84z M476.2,91.3h7v7h-7V91.3z M476.2,98.5h7v7h-7V98.5z
		 M476.2,105.8h7v7h-7V105.8z M476.2,113.1h7v7h-7V113.1z M476.2,120.3h7v7h-7V120.3z M476.2,127.6h7v7h-7V127.6z M483.5,62.2h7v7
		h-7V62.2z M483.5,69.5h7v7h-7V69.5z M483.5,76.8h7v7h-7V76.8z M483.5,84h7v7h-7V84z M483.5,91.3h7v7h-7V91.3z M483.5,98.5h7v7h-7
		V98.5z M483.5,105.8h7v7h-7V105.8z M483.5,113.1h7v7h-7V113.1z M483.5,120.3h7v7h-7V120.3z M483.5,127.6h7v7h-7V127.6z M490.7,62.2
		h7v7h-7V62.2z M490.7,69.5h7v7h-7V69.5z M490.7,76.8h7v7h-7V76.8z M490.7,84h7v7h-7V84z M490.7,91.3h7v7h-7V91.3z M490.7,98.5h7v7
		h-7V98.5z M490.7,105.8h7v7h-7V105.8z M490.7,113.1h7v7h-7V113.1z M490.7,120.3h7v7h-7V120.3z M490.7,127.6h7v7h-7V127.6z
		 M498,62.2h7v7h-7V62.2z M498,69.5h7v7h-7V69.5z M498,76.8h7v7h-7V76.8z M498,84h7v7h-7V84z M498,91.3h7v7h-7V91.3z M498,98.5h7v7
		h-7V98.5z M498,105.8h7v7h-7V105.8z M498,113.1h7v7h-7V113.1z M498,120.3h7v7h-7V120.3z M498,127.6h7v7h-7V127.6z M505.3,69.5h7v7
		h-7V69.5z M505.3,76.8h7v7h-7V76.8z M505.3,84h7v7h-7V84z M505.3,91.3h7v7h-7V91.3z M505.3,98.5h7v7h-7V98.5z M505.3,105.8h7v7h-7
		V105.8z M505.3,113.1h7v7h-7V113.1z M505.3,120.3h7v7h-7V120.3z M505.3,127.6h7v7h-7V127.6z M512.5,76.8h7v7h-7V76.8z M512.5,84h7
		v7h-7V84z M512.5,91.3h7v7h-7V91.3z M512.5,98.5h7v7h-7V98.5z M512.5,105.8h7v7h-7V105.8z M512.5,113.1h7v7h-7V113.1z M512.5,127.6
		h7v7h-7V127.6z M519.8,76.8h7v7h-7V76.8z M519.8,84h7v7h-7V84z M519.8,91.3h7v7h-7V91.3z M519.8,98.5h7v7h-7V98.5z M519.8,113.1h7
		v7h-7V113.1z M519.8,120.3h7v7h-7V120.3z M519.8,127.6h7v7h-7V127.6z M527,84h7v7h-7V84z M527,91.3h7v7h-7V91.3z M527,98.5h7v7h-7
		V98.5z M527,113.1h7v7h-7V113.1z M527,127.6h7v7h-7V127.6z M534.3,98.5h7v7h-7V98.5z M534.3,105.8h7v7h-7V105.8z M534.3,113.1h7v7
		h-7V113.1z M534.3,120.3h7v7h-7V120.3z M534.3,127.6h7v7h-7V127.6z M541.6,98.5h7v7h-7V98.5z M541.6,120.3h7v7h-7V120.3z
		 M541.6,127.6h7v7h-7V127.6z M548.8,98.5h7v7h-7V98.5z M548.8,105.8h7v7h-7V105.8z M548.8,113.1h7v7h-7V113.1z M548.8,127.6h7v7h-7
		V127.6z M556.1,113.1h7v7h-7V113.1z M556.1,120.3h7v7h-7V120.3z M316.5,47.7h7v7h-7V47.7z M323.8,47.7h7v7h-7V47.7z M323.7,40.5h7
		v7h-7V40.5z M309.2,40.5h7v7h-7V40.5z M331,40.5h7v7h-7V40.5z M316.5,33.2h7v7h-7V33.2z M323.8,33.2h7v7h-7V33.2z"/>
</g>
</svg>
