<?xml version="1.0" encoding="utf-8"?>
<!-- Generator: Adobe Illustrator 27.3.1, SVG Export Plug-In . SVG Version: 6.00 Build 0)  -->
<svg version="1.1" id="Layer_1" xmlns="http://www.w3.org/2000/svg" xmlns:xlink="http://www.w3.org/1999/xlink" x="0px" y="0px"
	 viewBox="0 0 558.4 218.3" style="enable-background:new 0 0 558.4 218.3;" xml:space="preserve">
<style type="text/css">
	.st0{fill:#FBE3A1;}
	.st1{fill:#1E0E01;}
</style>
<g>
	<polygon class="st0" points="548.1,119.8 548.1,112.9 548.1,112.5 548.1,105.7 548.1,105.2 548.1,98.4 548.1,98 548.1,91.3 
		548.1,90.7 548.1,83.5 540.8,83.5 540.4,83.5 533.5,83.5 533.1,83.5 526.3,83.5 525.8,83.5 519,83.5 518.6,83.5 511.8,83.5 
		511.8,76.2 504.5,76.2 504.1,76.2 497.2,76.2 496.8,76.2 490,76.2 489.5,76.2 482.7,76.2 482.3,76.2 475.5,76.2 475,76.2 
		468.2,76.2 467.8,76.2 460.9,76.2 460.5,76.2 453.7,76.2 453.7,68.9 446.4,68.9 446.4,62.2 446.4,61.7 446.4,54.5 439.2,54.5 
		439.2,47.3 431.9,47.3 431.9,40.5 431.9,40 431.9,32.8 424.6,32.8 424.6,25.5 417.4,25.5 417.4,18.7 417.4,18.2 417.4,11 410.1,11 
		409.7,11 402.9,11 402.4,11 395.6,11 395.2,11 388.3,11 387.9,11 381.1,11 380.6,11 373.8,11 373.4,11 366.6,11 366.1,11 359.3,11 
		359.3,3.7 352,3.7 351.6,3.7 344.8,3.7 344.3,3.7 337.5,3.7 337.1,3.7 330.3,3.7 329.8,3.7 323,3.7 322.6,3.7 315.7,3.7 315.3,3.7 
		308.5,3.7 308,3.7 301.2,3.7 300.8,3.7 294,3.7 293.5,3.7 286.7,3.7 286.3,3.7 279.4,3.7 279,3.7 272.2,3.7 271.7,3.7 264.5,3.7 
		264.5,11 257.7,11 257.2,11 250.4,11 250,11 243.1,11 242.7,11 235.9,11 235.4,11 228.6,11 228.2,11 221.4,11 220.9,11 214.1,11 
		213.7,11 206.8,11 206.4,11 199.1,11 199.1,18.2 191.9,18.2 191.9,25.5 184.6,25.5 184.6,32.7 184.6,32.8 177.4,32.8 177.4,40 
		177.4,40.5 177.4,47.3 170.1,47.3 170.1,54.5 162.8,54.5 162.8,61.7 155.6,61.7 155.6,68.9 155.6,69.5 155.6,76.2 148.8,76.2 
		148.3,76.2 141.5,76.2 141.1,76.2 134.2,76.2 133.8,76.2 127,76.2 126.5,76.2 119.7,76.2 119.3,76.2 112.5,76.2 112,76.2 
		105.2,76.2 104.8,76.2 97.9,76.2 97.5,76.2 90.7,76.2 90.2,76.2 83.4,76.2 83,76.2 76.2,76.2 75.7,76.2 68.9,76.2 68.5,76.2 
		61.2,76.2 61.2,83.5 54.4,83.5 53.9,83.5 47.1,83.5 46.7,83.5 39.9,83.5 39.4,83.5 32.2,83.5 32.2,90.7 25.3,90.7 24.9,90.7 
		18.1,90.7 17.6,90.7 10.4,90.7 10.4,98 3.1,98 3.1,105.7 10.4,105.7 10.4,112.5 3.1,112.5 3.1,119.8 3.1,120.2 3.1,127.5 
		10.4,127.5 10.4,134.3 10.4,134.7 10.4,141.6 3.1,141.6 3.1,148.8 3.1,149.3 3.1,156.1 3.1,156.5 3.1,163.8 10.4,163.8 10.8,163.8 
		17.6,163.8 17.6,170.6 17.6,171 17.6,178.3 24.9,178.3 25.3,178.3 32.2,178.3 32.6,178.3 39.9,178.3 39.9,171 46.7,171 46.7,177.8 
		46.7,178.3 46.7,185.1 46.7,185.5 46.7,192.8 53.9,192.8 53.9,200.1 61.2,200.1 61.2,207.3 68.5,207.3 68.5,214.6 75.7,214.6 
		76.2,214.6 83,214.6 83.4,214.6 90.2,214.6 90.7,214.6 97.5,214.6 97.9,214.6 104.8,214.6 105.2,214.6 112.5,214.6 112.5,207.3 
		119.7,207.3 119.7,200.1 127,200.1 127,192.8 127,192.4 127,185.5 127,185.1 127,178.3 134.2,178.3 134.2,171 134.2,170.6 
		134.2,163.8 141.1,163.8 141.1,170.6 141.1,171 141.1,177.8 141.1,178.3 141.1,185.5 148.3,185.5 148.8,185.5 155.6,185.5 
		156,185.5 162.8,185.5 163.3,185.5 170.1,185.5 170.5,185.5 177.4,185.5 177.8,185.5 184.6,185.5 185.1,185.5 191.9,185.5 
		192.3,185.5 199.1,185.5 199.6,185.5 206.4,185.5 206.8,185.5 213.7,185.5 214.1,185.5 220.9,185.5 221.4,185.5 228.2,185.5 
		228.6,185.5 235.4,185.5 235.9,185.5 242.7,185.5 243.1,185.5 250,185.5 250.4,185.5 257.2,185.5 257.7,185.5 264.5,185.5 
		264.9,185.5 271.7,185.5 272.2,185.5 279,185.5 279.4,185.5 286.3,185.5 286.7,185.5 293.5,185.5 294,185.5 300.8,185.5 
		301.2,185.5 308,185.5 308.5,185.5 315.3,185.5 315.7,185.5 322.6,185.5 323,185.5 329.8,185.5 330.3,185.5 337.1,185.5 
		337.5,185.5 344.3,185.5 344.8,185.5 351.6,185.5 352,185.5 358.9,185.5 359.3,185.5 366.6,185.5 366.6,178.3 366.6,177.8 
		366.6,171 366.6,170.6 366.6,163.8 366.6,163.3 366.6,156.5 373.4,156.5 373.4,163.3 373.4,163.8 373.4,170.6 373.4,171 
		373.4,177.8 373.4,178.3 373.4,185.5 380.6,185.5 380.6,192.4 380.6,192.8 380.6,200.1 387.9,200.1 387.9,207.3 395.2,207.3 
		395.6,207.3 402.4,207.3 402.4,214.6 409.7,214.6 410.1,214.6 416.9,214.6 417.4,214.6 424.2,214.6 424.6,214.6 431.9,214.6 
		431.9,207.3 439.2,207.3 439.2,200.1 446.4,200.1 446.4,192.8 446.4,192.4 446.4,185.5 453.7,185.5 453.7,178.3 453.7,177.8 
		453.7,171 453.7,170.6 453.7,163.8 453.7,163.3 453.7,156.5 460.5,156.5 460.5,163.8 467.8,163.8 467.8,170.6 467.8,171 
		467.8,177.8 467.8,178.3 467.8,185.5 475.5,185.5 475.5,178.3 482.3,178.3 482.7,178.3 489.5,178.3 490,178.3 496.8,178.3 
		497.2,178.3 504.1,178.3 504.5,178.3 511.8,178.3 511.8,171 518.6,171 519,171 525.8,171 526.3,171 533.5,171 533.5,163.8 
		533.5,163.3 533.5,156.5 540.4,156.5 540.8,156.5 547.6,156.5 548.1,156.5 555.3,156.5 555.3,148.8 548.1,148.8 548.1,142 
		548.1,141.6 548.1,134.7 555.3,134.7 555.3,127.5 555.3,127 555.3,119.8 	"/>
	<path class="st0" d="M431.9,217.5h-29.5c-1.6,0-2.8-1.3-2.8-2.9v-4.4h-11.7c-1.6,0-2.8-1.3-2.8-2.9V203h-4.5
		c-1.6,0-2.8-1.3-2.8-2.9v-11.7h-4.4c-1.6,0-2.8-1.3-2.8-2.9v-26.1h-1.1v26.1c0,1.6-1.3,2.9-2.8,2.9H141.1c-1.6,0-2.8-1.3-2.8-2.9
		v-18.8h-1.2v11.6c0,1.6-1.3,2.9-2.8,2.9h-4.4v18.9c0,1.6-1.3,2.9-2.8,2.9h-4.5v4.3c0,1.6-1.3,2.9-2.8,2.9h-4.4v4.4
		c0,1.6-1.3,2.9-2.8,2.9h-44c-1.6,0-2.8-1.3-2.8-2.9v-4.4h-4.5c-1.6,0-2.8-1.3-2.8-2.9V203H54c-1.6,0-2.8-1.3-2.8-2.9v-4.4h-4.4
		c-1.6,0-2.8-1.3-2.8-2.9v-18.9h-1.1v4.4c0,1.6-1.3,2.9-2.8,2.9H17.6c-1.6,0-2.8-1.3-2.8-2.9v-11.6H3.1c-1.6,0-2.8-1.3-2.8-2.9
		v-22.2c0-1.6,1.3-2.9,2.8-2.9h4.5v-8.3H3.1c-1.6,0-2.8-1.3-2.8-2.9v-15c0-1.6,1.3-2.9,2.8-2.9h4.5v-1H3.1c-1.6,0-2.8-1.3-2.8-2.9
		V98c0-1.6,1.3-2.9,2.8-2.9h4.5v-4.4c0-1.6,1.3-2.9,2.8-2.9h19v-4.3c0-1.6,1.3-2.9,2.8-2.9h26.2v-4.4c0-1.6,1.3-2.9,2.8-2.9h91.6
		V61.7c0-1.6,1.3-2.9,2.8-2.9h4.4v-4.4c0-1.6,1.3-2.9,2.8-2.9h4.5v-4.3c0-1.6,1.3-2.9,2.8-2.9h4.5V32.8c0-1.6,1.3-2.9,2.8-2.9h4.4
		v-4.4c0-1.6,1.3-2.9,2.8-2.9h4.5v-4.4c0-1.6,1.3-2.9,2.8-2.9h4.4V11c0-1.6,1.3-2.9,2.8-2.9h62.6V3.7c0-1.6,1.3-2.9,2.8-2.9h94.8
		c1.6,0,2.8,1.3,2.8,2.9v4.4h55.3c1.6,0,2.8,1.3,2.8,2.9v11.6h4.4c1.6,0,2.8,1.3,2.8,2.9v4.4h4.5c1.6,0,2.8,1.3,2.8,2.9v11.6h4.5
		c1.6,0,2.8,1.3,2.8,2.9v4.3h4.4c1.6,0,2.8,1.3,2.8,2.9v11.6h4.5c1.6,0,2.8,1.3,2.8,2.9v4.4h55.3c1.6,0,2.8,1.3,2.8,2.9v4.4h33.5
		c1.6,0,2.8,1.3,2.8,2.9V117h4.4c1.6,0,2.8,1.3,2.8,2.9v14.9c0,1.6-1.3,2.9-2.8,2.9H551v8.3h4.4c1.6,0,2.8,1.3,2.8,2.9v7.7
		c0,1.6-1.3,2.9-2.8,2.9h-19V171c0,1.6-1.3,2.9-2.8,2.9h-18.9v4.4c0,1.6-1.3,2.9-2.8,2.9h-33.5v4.3c0,1.6-1.3,2.9-2.8,2.9h-7.7
		c-1.6,0-2.8-1.3-2.8-2.9v-18.8h-4.5c-1.6,0-2.8-1.3-2.8-2.9v-4.4h-1.1v26.1c0,1.6-1.3,2.9-2.8,2.9h-4.5v11.7c0,1.6-1.3,2.9-2.8,2.9
		h-4.4v4.3c0,1.6-1.3,2.9-2.8,2.9h-4.5v4.4C434.8,216.2,433.5,217.5,431.9,217.5z M405.2,211.7H429v-4.4c0-1.6,1.3-2.9,2.8-2.9h4.5
		v-4.3c0-1.6,1.3-2.9,2.8-2.9h4.4v-11.7c0-1.6,1.3-2.9,2.8-2.9h4.5v-26.1c0-1.6,1.3-2.9,2.8-2.9h6.8c1.6,0,2.8,1.3,2.8,2.9v4.4h4.5
		c1.6,0,2.8,1.3,2.8,2.9v18.8h2v-4.3c0-1.6,1.3-2.9,2.8-2.9H509V171c0-1.6,1.3-2.9,2.8-2.9h18.9v-11.6c0-1.6,1.3-2.9,2.8-2.9h19v-2
		h-4.4c-1.6,0-2.8-1.3-2.8-2.9v-14.1c0-1.6,1.3-2.9,2.8-2.9h4.4v-9.2h-4.4c-1.6,0-2.8-1.3-2.8-2.9V86.4h-33.5
		c-1.6,0-2.8-1.3-2.8-2.9v-4.4h-55.3c-1.6,0-2.8-1.3-2.8-2.9v-4.4h-4.5c-1.6,0-2.8-1.3-2.8-2.9V57.3h-4.4c-1.6,0-2.8-1.3-2.8-2.9
		v-4.3h-4.5c-1.6,0-2.8-1.3-2.8-2.9V35.6h-4.5c-1.6,0-2.8-1.3-2.8-2.9v-4.4h-4.4c-1.6,0-2.8-1.3-2.8-2.9V13.9h-55.3
		c-1.6,0-2.8-1.3-2.8-2.9V6.6h-89.1V11c0,1.6-1.3,2.9-2.8,2.9H202v4.3c0,1.6-1.3,2.9-2.8,2.9h-4.4v4.4c0,1.6-1.3,2.9-2.8,2.9h-4.5
		v4.4c0,1.6-1.3,2.9-2.8,2.9h-4.4v11.6c0,1.6-1.3,2.9-2.8,2.9H173v4.3c0,1.6-1.3,2.9-2.8,2.9h-4.5v4.4c0,1.6-1.3,2.9-2.8,2.9h-4.4
		v11.6c0,1.6-1.3,2.9-2.8,2.9H64v4.4c0,1.6-1.3,2.9-2.8,2.9H35v4.3c0,1.6-1.3,2.9-2.8,2.9h-19V98c0,1.6-1.3,2.9-2.8,2.9H5.9v2h4.5
		c1.6,0,2.8,1.3,2.8,2.9v6.8c0,1.6-1.3,2.9-2.8,2.9H5.9v9.3h4.5c1.6,0,2.8,1.3,2.8,2.9v14.1c0,1.6-1.3,2.9-2.8,2.9H5.9v16.4h11.7
		c1.6,0,2.8,1.3,2.8,2.9v11.6H37V171c0-1.6,1.3-2.9,2.8-2.9h6.8c1.6,0,2.8,1.3,2.8,2.9v18.9h4.4c1.6,0,2.8,1.3,2.8,2.9v4.4h4.5
		c1.6,0,2.8,1.3,2.8,2.9v4.3h4.5c1.6,0,2.8,1.3,2.8,2.9v4.4h38.3v-4.4c0-1.6,1.3-2.9,2.8-2.9h4.4v-4.3c0-1.6,1.3-2.9,2.8-2.9h4.5
		v-18.9c0-1.6,1.3-2.9,2.8-2.9h4.4v-11.6c0-1.6,1.3-2.9,2.8-2.9h6.9c1.6,0,2.8,1.3,2.8,2.9v18.8h219.8v-26.1c0-1.6,1.3-2.9,2.8-2.9
		h6.8c1.6,0,2.8,1.3,2.8,2.9v26.1h4.4c1.6,0,2.8,1.3,2.8,2.9v11.7h4.5c1.6,0,2.8,1.3,2.8,2.9v4.3h11.7c1.6,0,2.8,1.3,2.8,2.9v4.4
		H405.2z"/>
</g>
<path class="st1" d="M3.5,98.4h7v7h-7V98.4z M3.5,112.9h7v7h-7V112.9z M3.5,120.2h7v7h-7V120.2z M3.5,142h7v7h-7V142z M3.5,149.2h7
	v7h-7V149.2z M3.5,156.5h7v7h-7V156.5z M10.8,91.1h7v7h-7V91.1z M10.8,105.6h7v7h-7V105.6z M10.8,112.9h7v7h-7V112.9z M10.8,120.2h7
	v7h-7V120.2z M10.8,127.4h7v7h-7V127.4z M10.8,134.7h7v7h-7V134.7z M10.8,142h7v7h-7V142z M10.8,156.5h7v7h-7V156.5z M18,91.1h7v7
	h-7V91.1z M18,98.4h7v7h-7V98.4z M18,105.6h7v7h-7V105.6z M18,112.9h7v7h-7V112.9z M18,120.2h7v7h-7V120.2z M18,127.4h7v7h-7V127.4z
	 M18,134.7h7v7h-7V134.7z M18,142h7v7h-7V142z M18,149.2h7v7h-7V149.2z M18,156.5h7v7h-7V156.5z M18,163.7h7v7h-7V163.7z M18,171h7
	v7h-7V171z M25.3,91.1h7v7h-7V91.1z M25.3,105.6h7v7h-7V105.6z M25.3,112.9h7v7h-7V112.9z M25.3,120.2h7v7h-7V120.2z M25.3,127.4h7
	v7h-7V127.4z M25.3,134.7h7v7h-7V134.7z M25.3,142h7v7h-7V142z M25.3,156.5h7v7h-7V156.5z M25.3,163.7h7v7h-7V163.7z M25.3,171h7v7
	h-7V171z M32.6,83.9h7v7h-7V83.9z M32.6,91.1h7v7h-7V91.1z M32.6,98.4h7v7h-7V98.4z M32.6,105.6h7v7h-7V105.6z M32.6,112.9h7v7h-7
	V112.9z M32.6,120.2h7v7h-7V120.2z M32.6,127.4h7v7h-7V127.4z M32.6,134.7h7v7h-7V134.7z M32.6,142h7v7h-7V142z M32.6,149.2h7v7h-7
	V149.2z M32.6,156.5h7v7h-7V156.5z M32.6,163.7h7v7h-7V163.7z M32.6,171h7v7h-7V171z M39.8,83.9h7v7h-7V83.9z M39.8,91.1h7v7h-7
	V91.1z M39.8,105.6h7v7h-7V105.6z M39.8,112.9h7v7h-7V112.9z M39.8,120.2h7v7h-7V120.2z M39.8,127.4h7v7h-7V127.4z M39.8,134.7h7v7
	h-7V134.7z M39.8,142h7v7h-7V142z M39.8,149.2h7v7h-7V149.2z M39.8,156.5h7v7h-7V156.5z M39.8,163.7h7v7h-7V163.7z M47.1,83.9h7v7
	h-7V83.9z M47.1,91.1h7v7h-7V91.1z M47.1,98.4h7v7h-7V98.4z M47.1,105.6h7v7h-7V105.6z M47.1,112.9h7v7h-7V112.9z M47.1,120.2h7v7
	h-7V120.2z M47.1,127.4h7v7h-7V127.4z M47.1,134.7h7v7h-7V134.7z M47.1,142h7v7h-7V142z M47.1,149.2h7v7h-7V149.2z M47.1,163.7h7v7
	h-7V163.7z M47.1,171h7v7h-7V171z M47.1,178.1h7v7h-7V178.1z M47.1,185.4h7v7h-7V185.4z M54.3,83.9h7v7h-7V83.9z M54.3,91.1h7v7h-7
	V91.1z M54.3,105.6h7v7h-7V105.6z M54.3,112.9h7v7h-7V112.9z M54.3,120.2h7v7h-7V120.2z M54.3,127.4h7v7h-7V127.4z M54.3,134.7h7v7
	h-7V134.7z M54.3,149.2h7v7h-7V149.2z M54.3,156.5h7v7h-7V156.5z M54.3,163.7h7v7h-7V163.7z M54.3,171h7v7h-7V171z M54.3,178.1h7v7
	h-7V178.1z M54.3,185.4h7v7h-7V185.4z M54.3,192.7h7v7h-7V192.7z M61.6,76.6h7v7h-7V76.6z M61.6,83.9h7v7h-7V83.9z M61.6,91.1h7v7
	h-7V91.1z M61.6,98.4h7v7h-7V98.4z M61.6,105.6h7v7h-7V105.6z M61.6,112.9h7v7h-7V112.9z M61.6,120.2h7v7h-7V120.2z M61.6,127.4h7v7
	h-7V127.4z M61.6,142h7v7h-7V142z M61.6,149.2h7v7h-7V149.2z M61.6,156.5h7v7h-7V156.5z M76.1,149.2h7v7h-7V149.2z M61.6,178.1h7v7
	h-7V178.1z M61.6,185.4h7v7h-7V185.4z M61.6,192.7h7v7h-7V192.7z M61.6,199.9h7v7h-7V199.9z M68.9,76.6h7v7h-7V76.6z M68.9,83.9h7v7
	h-7V83.9z M68.9,91.1h7v7h-7V91.1z M68.9,105.6h7v7h-7V105.6z M68.9,112.9h7v7h-7V112.9z M68.9,120.2h7v7h-7V120.2z M68.9,134.7h7v7
	h-7V134.7z M68.9,142h7v7h-7V142z M68.9,149.2h7v7h-7V149.2z M68.9,163.7h7v7h-7V163.7z M68.9,171h7v7h-7V171z M68.9,178.1h7v7h-7
	V178.1z M68.9,192.7h7v7h-7V192.7z M68.9,199.9h7v7h-7V199.9z M68.9,207.2h7v7h-7V207.2z M76.1,76.6h7v7h-7V76.6z M76.1,83.9h7v7h-7
	V83.9z M76.1,91.1h7v7h-7V91.1z M76.1,98.4h7v7h-7V98.4z M76.1,105.6h7v7h-7V105.6z M76.1,112.9h7v7h-7V112.9z M76.1,120.2h7v7h-7
	V120.2z M76.1,134.7h7v7h-7V134.7z M76.1,142h7v7h-7V142z M76.1,156.5h7v7h-7V156.5z M76.1,163.7h7v7h-7V163.7z M76.1,171h7v7h-7
	V171z M76.1,178.1h7v7h-7V178.1z M76.1,185.4h7v7h-7V185.4z M76.1,199.9h7v7h-7V199.9z M76.1,207.2h7v7h-7V207.2z M83.4,76.6h7v7h-7
	V76.6z M83.4,83.9h7v7h-7V83.9z M83.4,91.1h7v7h-7V91.1z M83.4,105.6h7v7h-7V105.6z M83.4,112.9h7v7h-7V112.9z M83.4,120.2h7v7h-7
	V120.2z M83.4,134.7h7v7h-7V134.7z M83.4,142h7v7h-7V142z M83.4,156.5h7v7h-7V156.5z M83.4,163.7h7v7h-7V163.7z M90.6,171h7v7h-7
	V171z M83.4,178.1h7v7h-7V178.1z M83.4,185.4h7v7h-7V185.4z M83.4,199.9h7v7h-7V199.9z M83.4,207.2h7v7h-7V207.2z M90.6,76.6h7v7h-7
	V76.6z M90.6,83.9h7v7h-7V83.9z M90.6,91.1h7v7h-7V91.1z M90.6,98.4h7v7h-7V98.4z M90.6,105.6h7v7h-7V105.6z M90.6,112.9h7v7h-7
	V112.9z M90.6,120.2h7v7h-7V120.2z M90.6,134.7h7v7h-7V134.7z M90.6,142h7v7h-7V142z M97.9,149.2h7v7h-7V149.2z M90.6,156.5h7v7h-7
	V156.5z M90.6,163.7h7v7h-7V163.7z M90.6,178.1h7v7h-7V178.1z M90.6,185.4h7v7h-7V185.4z M90.6,192.7h7v7h-7V192.7z M90.6,199.9h7v7
	h-7V199.9z M90.6,207.2h7v7h-7V207.2z M97.9,76.6h7v7h-7V76.6z M97.9,83.9h7v7h-7V83.9z M97.9,91.1h7v7h-7V91.1z M97.9,105.6h7v7h-7
	V105.6z M97.9,112.9h7v7h-7V112.9z M97.9,120.2h7v7h-7V120.2z M97.9,134.7h7v7h-7V134.7z M97.9,142h7v7h-7V142z M105.1,156.5h7v7h-7
	V156.5z M97.9,163.7h7v7h-7V163.7z M97.9,171h7v7h-7V171z M97.9,178.1h7v7h-7V178.1z M105.1,185.4h7v7h-7V185.4z M97.9,199.9h7v7h-7
	V199.9z M97.9,207.2h7v7h-7V207.2z M105.2,76.6h7v7h-7V76.6z M105.2,83.9h7v7h-7V83.9z M105.2,91.1h7v7h-7V91.1z M105.2,98.4h7v7h-7
	V98.4z M105.2,105.6h7v7h-7V105.6z M105.2,112.9h7v7h-7V112.9z M105.2,120.2h7v7h-7V120.2z M105.2,127.4h7v7h-7V127.4z M105.2,142h7
	v7h-7V142z M105.2,149.2h7v7h-7V149.2z M105.2,163.7h7v7h-7V163.7z M97.9,192.7h7v7h-7V192.7z M112.4,178.2h7v7h-7V178.2z
	 M105.2,192.7h7v7h-7V192.7z M105.2,199.9h7v7h-7V199.9z M105.2,207.2h7v7h-7V207.2z M112.4,76.6h7v7h-7V76.6z M112.4,83.9h7v7h-7
	V83.9z M112.4,91.1h7v7h-7V91.1z M112.4,105.6h7v7h-7V105.6z M112.4,112.9h7v7h-7V112.9z M112.4,120.2h7v7h-7V120.2z M112.4,127.4h7
	v7h-7V127.4z M112.4,142h7v7h-7V142z M112.4,149.2h7v7h-7V149.2z M112.4,156.5h7v7h-7V156.5z M112.4,163.7h7v7h-7V163.7z
	 M112.4,170.9h7v7h-7V170.9z M112.4,185.4h7v7h-7V185.4z M112.4,192.7h7v7h-7V192.7z M112.4,199.9h7v7h-7V199.9z M119.7,76.6h7v7h-7
	V76.6z M119.7,83.9h7v7h-7V83.9z M119.7,91.1h7v7h-7V91.1z M119.7,98.4h7v7h-7V98.4z M119.7,105.6h7v7h-7V105.6z M119.7,112.9h7v7
	h-7V112.9z M119.7,120.2h7v7h-7V120.2z M119.7,127.4h7v7h-7V127.4z M119.7,134.7h7v7h-7V134.7z M119.7,149.2h7v7h-7V149.2z
	 M119.7,156.5h7v7h-7V156.5z M119.7,163.7h7v7h-7V163.7z M119.7,171h7v7h-7V171z M119.7,178.1h7v7h-7V178.1z M119.7,185.4h7v7h-7
	V185.4z M119.7,192.7h7v7h-7V192.7z M126.9,76.6h7v7h-7V76.6z M126.9,83.9h7v7h-7V83.9z M126.9,98.4h7v7h-7V98.4z M126.9,105.6h7v7
	h-7V105.6z M126.9,112.9h7v7h-7V112.9z M126.9,120.2h7v7h-7V120.2z M126.9,127.4h7v7h-7V127.4z M126.9,134.7h7v7h-7V134.7z
	 M126.9,142h7v7h-7V142z M126.9,163.7h7v7h-7V163.7z M126.9,171h7v7h-7V171z M134.2,76.6h7v7h-7V76.6z M134.2,83.9h7v7h-7V83.9z
	 M134.2,91.1h7v7h-7V91.1z M134.2,98.4h7v7h-7V98.4z M134.2,105.6h7v7h-7V105.6z M134.2,112.9h7v7h-7V112.9z M134.2,120.2h7v7h-7
	V120.2z M134.2,127.4h7v7h-7V127.4z M134.2,134.7h7v7h-7V134.7z M134.2,142h7v7h-7V142z M134.2,149.2h7v7h-7V149.2z M134.2,156.5h7
	v7h-7V156.5z M141.5,76.6h7v7h-7V76.6z M141.5,83.9h7v7h-7V83.9z M141.5,98.4h7v7h-7V98.4z M141.5,105.6h7v7h-7V105.6z M141.5,112.9
	h7v7h-7V112.9z M141.5,120.2h7v7h-7V120.2z M141.5,127.4h7v7h-7V127.4z M141.5,134.7h7v7h-7V134.7z M141.5,142h7v7h-7V142z
	 M141.5,149.2h7v7h-7V149.2z M141.5,156.5h7v7h-7V156.5z M141.5,163.7h7v7h-7V163.7z M141.5,171h7v7h-7V171z M141.5,178.1h7v7h-7
	V178.1z M148.7,76.6h7v7h-7V76.6z M148.7,83.9h7v7h-7V83.9z M148.7,91.1h7v7h-7V91.1z M148.7,98.4h7v7h-7V98.4z M148.7,105.6h7v7h-7
	V105.6z M148.7,112.9h7v7h-7V112.9z M148.7,120.2h7v7h-7V120.2z M148.7,127.4h7v7h-7V127.4z M148.7,134.7h7v7h-7V134.7z M148.7,142
	h7v7h-7V142z M148.7,149.2h7v7h-7V149.2z M148.7,156.5h7v7h-7V156.5z M148.7,163.7h7v7h-7V163.7z M148.7,171h7v7h-7V171z
	 M148.7,178.1h7v7h-7V178.1z M156,62.1h7v7h-7V62.1z M156,69.3h7v7h-7V69.3z M156,76.6h7v7h-7V76.6z M156,83.9h7v7h-7V83.9z
	 M156,98.4h7v7h-7V98.4z M156,105.6h7v7h-7V105.6z M156,112.9h7v7h-7V112.9z M156,120.2h7v7h-7V120.2z M156,127.4h7v7h-7V127.4z
	 M156,134.7h7v7h-7V134.7z M156,142h7v7h-7V142z M156,149.2h7v7h-7V149.2z M156,156.5h7v7h-7V156.5z M156,163.7h7v7h-7V163.7z
	 M156,171h7v7h-7V171z M156,178.1h7v7h-7V178.1z M163.2,54.8h7v7h-7V54.8z M163.2,69.3h7v7h-7V69.3z M163.2,76.6h7v7h-7V76.6z
	 M163.2,83.9h7v7h-7V83.9z M163.2,91.1h7v7h-7V91.1z M163.2,98.4h7v7h-7V98.4z M163.2,105.6h7v7h-7V105.6z M163.2,112.9h7v7h-7
	V112.9z M163.2,120.2h7v7h-7V120.2z M163.2,127.4h7v7h-7V127.4z M163.2,134.7h7v7h-7V134.7z M163.2,142h7v7h-7V142z M163.2,149.2h7
	v7h-7V149.2z M163.2,156.5h7v7h-7V156.5z M163.2,163.7h7v7h-7V163.7z M163.2,171h7v7h-7V171z M163.2,178.1h7v7h-7V178.1z
	 M170.5,47.6h7v7h-7V47.6z M170.5,54.8h7v7h-7V54.8z M170.5,76.6h7v7h-7V76.6z M170.5,83.9h7v7h-7V83.9z M170.5,98.4h7v7h-7V98.4z
	 M170.5,105.6h7v7h-7V105.6z M170.5,112.9h7v7h-7V112.9z M170.5,120.2h7v7h-7V120.2z M170.5,127.4h7v7h-7V127.4z M170.5,134.7h7v7
	h-7V134.7z M170.5,142h7v7h-7V142z M170.5,149.2h7v7h-7V149.2z M170.5,156.5h7v7h-7V156.5z M170.5,163.7h7v7h-7V163.7z M170.5,171h7
	v7h-7V171z M170.5,178.1h7v7h-7V178.1z M177.8,33.1h7v7h-7V33.1z M177.8,40.3h7v7h-7V40.3z M177.8,62.1h7v7h-7V62.1z M177.8,69.3h7
	v7h-7V69.3z M177.8,76.6h7v7h-7V76.6z M177.8,83.9h7v7h-7V83.9z M177.8,91.1h7v7h-7V91.1z M177.8,98.4h7v7h-7V98.4z M177.8,105.6h7
	v7h-7V105.6z M177.8,120.2h7v7h-7V120.2z M177.8,127.4h7v7h-7V127.4z M177.8,142h7v7h-7V142z M177.8,149.2h7v7h-7V149.2z
	 M177.8,163.7h7v7h-7V163.7z M177.8,171h7v7h-7V171z M177.8,178.1h7v7h-7V178.1z M185,25.8h7v7h-7V25.8z M185,40.3h7v7h-7V40.3z
	 M185,54.8h7v7h-7V54.8z M185,69.3h7v7h-7V69.3z M185,76.6h7v7h-7V76.6z M185,83.9h7v7h-7V83.9z M185,98.4h7v7h-7V98.4z M185,105.6
	h7v7h-7V105.6z M185,112.9h7v7h-7V112.9z M185,120.2h7v7h-7V120.2z M185,127.4h7v7h-7V127.4z M185,134.7h7v7h-7V134.7z M185,142h7v7
	h-7V142z M185,149.2h7v7h-7V149.2z M185,156.5h7v7h-7V156.5z M185,163.7h7v7h-7V163.7z M185,171h7v7h-7V171z M185,178.1h7v7h-7
	V178.1z M192.3,18.5h7v7h-7V18.5z M192.3,33.1h7v7h-7V33.1z M192.3,54.8h7v7h-7V54.8z M192.3,62.1h7v7h-7V62.1z M192.3,69.3h7v7h-7
	V69.3z M192.3,76.6h7v7h-7V76.6z M192.3,83.9h7v7h-7V83.9z M192.3,91.1h7v7h-7V91.1z M192.3,98.4h7v7h-7V98.4z M192.3,105.6h7v7h-7
	V105.6z M192.3,112.9h7v7h-7V112.9z M192.3,120.2h7v7h-7V120.2z M192.3,127.4h7v7h-7V127.4z M192.3,134.7h7v7h-7V134.7z M192.3,142
	h7v7h-7V142z M192.3,149.2h7v7h-7V149.2z M192.3,156.5h7v7h-7V156.5z M192.3,163.7h7v7h-7V163.7z M192.3,171h7v7h-7V171z
	 M192.3,178.1h7v7h-7V178.1z M199.5,11.3h7v7h-7V11.3z M199.5,18.5h7v7h-7V18.5z M199.5,40.3h7v7h-7V40.3z M199.5,47.6h7v7h-7V47.6z
	 M199.5,54.8h7v7h-7V54.8z M199.5,62.1h7v7h-7V62.1z M199.5,69.3h7v7h-7V69.3z M199.5,76.6h7v7h-7V76.6z M199.5,83.9h7v7h-7V83.9z
	 M199.5,98.4h7v7h-7V98.4z M199.5,105.6h7v7h-7V105.6z M199.5,112.9h7v7h-7V112.9z M199.5,120.2h7v7h-7V120.2z M199.5,127.4h7v7h-7
	V127.4z M199.5,134.7h7v7h-7V134.7z M199.5,142h7v7h-7V142z M199.5,149.2h7v7h-7V149.2z M199.5,156.5h7v7h-7V156.5z M199.5,163.7h7
	v7h-7V163.7z M199.5,171h7v7h-7V171z M199.5,178.1h7v7h-7V178.1z M206.8,11.3h7v7h-7V11.3z M206.8,18.5h7v7h-7V18.5z M206.8,25.8h7
	v7h-7V25.8z M206.8,33.1h7v7h-7V33.1z M206.8,40.3h7v7h-7V40.3z M206.8,47.6h7v7h-7V47.6z M206.8,54.8h7v7h-7V54.8z M206.8,62.1h7v7
	h-7V62.1z M206.8,76.6h7v7h-7V76.6z M206.8,83.9h7v7h-7V83.9z M206.8,98.4h7v7h-7V98.4z M206.8,105.6h7v7h-7V105.6z M206.8,112.9h7
	v7h-7V112.9z M206.8,120.2h7v7h-7V120.2z M206.8,127.4h7v7h-7V127.4z M206.8,134.7h7v7h-7V134.7z M206.8,142h7v7h-7V142z
	 M206.8,149.2h7v7h-7V149.2z M206.8,156.5h7v7h-7V156.5z M206.8,163.7h7v7h-7V163.7z M206.8,171h7v7h-7V171z M206.8,178.1h7v7h-7
	V178.1z M214.1,11.3h7v7h-7V11.3z M214.1,18.5h7v7h-7V18.5z M214.1,25.8h7v7h-7V25.8z M214.1,33.1h7v7h-7V33.1z M214.1,40.3h7v7h-7
	V40.3z M214.1,54.8h7v7h-7V54.8z M214.1,69.3h7v7h-7V69.3z M214.1,76.6h7v7h-7V76.6z M214.1,83.9h7v7h-7V83.9z M214.1,91.1h7v7h-7
	V91.1z M214.1,98.4h7v7h-7V98.4z M214.1,105.6h7v7h-7V105.6z M214.1,112.9h7v7h-7V112.9z M214.1,120.2h7v7h-7V120.2z M214.1,127.4h7
	v7h-7V127.4z M214.1,134.7h7v7h-7V134.7z M214.1,142h7v7h-7V142z M214.1,149.2h7v7h-7V149.2z M214.1,156.5h7v7h-7V156.5z
	 M214.1,163.7h7v7h-7V163.7z M214.1,171h7v7h-7V171z M214.1,178.1h7v7h-7V178.1z M221.3,11.3h7v7h-7V11.3z M221.3,18.5h7v7h-7V18.5z
	 M221.3,25.8h7v7h-7V25.8z M221.3,33.1h7v7h-7V33.1z M221.3,47.6h7v7h-7V47.6z M221.3,62.1h7v7h-7V62.1z M185,33.1h7v7h-7V33.1z
	 M192.3,47.6h7v7h-7V47.6z M199.5,33.1h7v7h-7V33.1z M221.3,54.9h7v7h-7V54.9z M221.3,69.3h7v7h-7V69.3z M221.3,76.6h7v7h-7V76.6z
	 M221.3,83.9h7v7h-7V83.9z M221.3,98.4h7v7h-7V98.4z M221.3,105.6h7v7h-7V105.6z M221.3,112.9h7v7h-7V112.9z M221.3,120.2h7v7h-7
	V120.2z M221.3,127.4h7v7h-7V127.4z M221.3,134.7h7v7h-7V134.7z M221.3,142h7v7h-7V142z M221.3,149.2h7v7h-7V149.2z M221.3,156.5h7
	v7h-7V156.5z M221.3,163.7h7v7h-7V163.7z M221.3,171h7v7h-7V171z M221.3,178.1h7v7h-7V178.1z M228.6,11.3h7v7h-7V11.3z M228.6,18.5
	h7v7h-7V18.5z M228.6,25.8h7v7h-7V25.8z M228.6,33.1h7v7h-7V33.1z M228.6,40.3h7v7h-7V40.3z M228.6,47.6h7v7h-7V47.6z M228.6,54.8h7
	v7h-7V54.8z M228.6,62.1h7v7h-7V62.1z M228.6,69.3h7v7h-7V69.3z M228.6,76.6h7v7h-7V76.6z M228.6,83.9h7v7h-7V83.9z M228.6,91.1h7v7
	h-7V91.1z M228.6,98.4h7v7h-7V98.4z M228.6,105.6h7v7h-7V105.6z M228.6,112.9h7v7h-7V112.9z M228.6,120.2h7v7h-7V120.2z
	 M228.6,127.4h7v7h-7V127.4z M228.6,134.7h7v7h-7V134.7z M228.6,142h7v7h-7V142z M228.6,149.2h7v7h-7V149.2z M228.6,156.5h7v7h-7
	V156.5z M228.6,163.7h7v7h-7V163.7z M228.6,171h7v7h-7V171z M228.6,178.1h7v7h-7V178.1z M235.8,11.3h7v7h-7V11.3z M235.8,18.5h7v7
	h-7V18.5z M235.8,40.3h7v7h-7V40.3z M235.8,54.8h7v7h-7V54.8z M235.8,62.1h7v7h-7V62.1z M235.8,76.6h7v7h-7V76.6z M235.8,83.9h7v7
	h-7V83.9z M235.8,98.4h7v7h-7V98.4z M235.8,105.6h7v7h-7V105.6z M235.8,112.9h7v7h-7V112.9z M235.8,120.2h7v7h-7V120.2z
	 M235.8,127.4h7v7h-7V127.4z M235.8,134.7h7v7h-7V134.7z M235.8,142h7v7h-7V142z M235.8,149.2h7v7h-7V149.2z M235.8,156.5h7v7h-7
	V156.5z M235.8,163.7h7v7h-7V163.7z M235.8,171h7v7h-7V171z M235.8,178.1h7v7h-7V178.1z M243.1,11.3h7v7h-7V11.3z M243.1,18.5h7v7
	h-7V18.5z M243.1,25.8h7v7h-7V25.8z M243.1,33.1h7v7h-7V33.1z M243.1,47.6h7v7h-7V47.6z M243.1,62.1h7v7h-7V62.1z M243.1,69.3h7v7
	h-7V69.3z M243.1,76.6h7v7h-7V76.6z M243.1,83.9h7v7h-7V83.9z M243.1,91.1h7v7h-7V91.1z M243.1,98.4h7v7h-7V98.4z M243.1,105.6h7v7
	h-7V105.6z M243.1,112.9h7v7h-7V112.9z M243.1,120.2h7v7h-7V120.2z M243.1,127.4h7v7h-7V127.4z M243.1,134.7h7v7h-7V134.7z
	 M243.1,142h7v7h-7V142z M243.1,149.2h7v7h-7V149.2z M243.1,156.5h7v7h-7V156.5z M243.1,163.7h7v7h-7V163.7z M243.1,171h7v7h-7V171z
	 M243.1,178.1h7v7h-7V178.1z M250.4,11.3h7v7h-7V11.3z M250.4,18.5h7v7h-7V18.5z M250.4,33.1h7v7h-7V33.1z M250.4,40.3h7v7h-7V40.3z
	 M250.4,54.8h7v7h-7V54.8z M250.4,69.3h7v7h-7V69.3z M250.4,76.6h7v7h-7V76.6z M250.4,83.9h7v7h-7V83.9z M250.4,98.4h7v7h-7V98.4z
	 M250.4,105.6h7v7h-7V105.6z M250.4,112.9h7v7h-7V112.9z M250.4,120.2h7v7h-7V120.2z M250.4,127.4h7v7h-7V127.4z M250.4,134.7h7v7
	h-7V134.7z M250.4,142h7v7h-7V142z M250.4,149.2h7v7h-7V149.2z M250.4,156.5h7v7h-7V156.5z M250.4,163.7h7v7h-7V163.7z M250.4,171h7
	v7h-7V171z M250.4,178.1h7v7h-7V178.1z M257.6,11.3h7v7h-7V11.3z M257.6,18.5h7v7h-7V18.5z M257.6,25.8h7v7h-7V25.8z M257.6,40.3h7
	v7h-7V40.3z M257.6,47.6h7v7h-7V47.6z M257.6,62.1h7v7h-7V62.1z M257.6,76.6h7v7h-7V76.6z M257.6,83.9h7v7h-7V83.9z M257.6,91.1h7v7
	h-7V91.1z M257.6,98.4h7v7h-7V98.4z M257.6,105.6h7v7h-7V105.6z M257.6,112.9h7v7h-7V112.9z M257.6,120.2h7v7h-7V120.2z
	 M257.6,127.4h7v7h-7V127.4z M257.6,134.7h7v7h-7V134.7z M257.6,142h7v7h-7V142z M257.6,149.2h7v7h-7V149.2z M257.6,156.5h7v7h-7
	V156.5z M257.6,163.7h7v7h-7V163.7z M257.6,171h7v7h-7V171z M257.6,178.1h7v7h-7V178.1z M264.9,4h7v7h-7V4z M264.9,11.3h7v7h-7V11.3
	z M264.9,18.5h7v7h-7V18.5z M264.9,33.1h7v7h-7V33.1z M264.9,47.6h7v7h-7V47.6z M264.9,54.8h7v7h-7V54.8z M264.9,62.1h7v7h-7V62.1z
	 M264.9,69.3h7v7h-7V69.3z M264.9,76.6h7v7h-7V76.6z M264.9,83.9h7v7h-7V83.9z M264.9,98.4h7v7h-7V98.4z M264.9,112.9h7v7h-7V112.9z
	 M264.9,120.2h7v7h-7V120.2z M264.9,127.4h7v7h-7V127.4z M264.9,134.7h7v7h-7V134.7z M264.9,142h7v7h-7V142z M264.9,149.2h7v7h-7
	V149.2z M264.9,156.5h7v7h-7V156.5z M264.9,163.7h7v7h-7V163.7z M264.9,171h7v7h-7V171z M264.9,178.1h7v7h-7V178.1z M272.1,4h7v7h-7
	V4z M272.1,11.3h7v7h-7V11.3z M272.1,18.5h7v7h-7V18.5z M272.1,25.8h7v7h-7V25.8z M272.1,40.3h7v7h-7V40.3z M272.1,54.8h7v7h-7V54.8
	z M272.1,69.3h7v7h-7V69.3z M272.1,76.6h7v7h-7V76.6z M272.1,83.9h7v7h-7V83.9z M272.1,91.1h7v7h-7V91.1z M272.1,98.4h7v7h-7V98.4z
	 M272.1,112.9h7v7h-7V112.9z M272.1,120.2h7v7h-7V120.2z M272.1,127.4h7v7h-7V127.4z M272.1,134.7h7v7h-7V134.7z M272.1,142h7v7h-7
	V142z M272.1,149.2h7v7h-7V149.2z M272.1,156.5h7v7h-7V156.5z M272.1,163.7h7v7h-7V163.7z M272.1,171h7v7h-7V171z M272.1,178.1h7v7
	h-7V178.1z M279.4,4h7v7h-7V4z M279.4,11.3h7v7h-7V11.3z M279.4,18.5h7v7h-7V18.5z M279.4,33.1h7v7h-7V33.1z M279.4,47.6h7v7h-7
	V47.6z M279.4,62.1h7v7h-7V62.1z M279.4,69.3h7v7h-7V69.3z M279.4,76.6h7v7h-7V76.6z M279.4,83.9h7v7h-7V83.9z M279.4,98.4h7v7h-7
	V98.4z M279.4,105.6h7v7h-7V105.6z M279.4,112.9h7v7h-7V112.9z M279.4,120.2h7v7h-7V120.2z M279.4,127.4h7v7h-7V127.4z M279.4,134.7
	h7v7h-7V134.7z M279.4,142h7v7h-7V142z M279.4,149.2h7v7h-7V149.2z M279.4,156.5h7v7h-7V156.5z M279.4,163.7h7v7h-7V163.7z
	 M279.4,171h7v7h-7V171z M279.4,178.1h7v7h-7V178.1z M286.7,4h7v7h-7V4z M286.7,11.3h7v7h-7V11.3z M286.7,18.5h7v7h-7V18.5z
	 M286.7,25.8h7v7h-7V25.8z M286.7,33.1h7v7h-7V33.1z M286.7,40.3h7v7h-7V40.3z M286.7,47.6h7v7h-7V47.6z M286.7,54.8h7v7h-7V54.8z
	 M286.7,62.1h7v7h-7V62.1z M286.7,69.3h7v7h-7V69.3z M286.7,76.6h7v7h-7V76.6z M286.7,83.9h7v7h-7V83.9z M286.7,91.1h7v7h-7V91.1z
	 M286.7,98.4h7v7h-7V98.4z M286.7,105.6h7v7h-7V105.6z M286.7,112.9h7v7h-7V112.9z M286.7,120.2h7v7h-7V120.2z M286.7,127.4h7v7h-7
	V127.4z M286.7,134.7h7v7h-7V134.7z M286.7,142h7v7h-7V142z M286.7,149.2h7v7h-7V149.2z M286.7,156.5h7v7h-7V156.5z M286.7,163.7h7
	v7h-7V163.7z M286.7,171h7v7h-7V171z M286.7,178.1h7v7h-7V178.1z M293.9,4h7v7h-7V4z M293.9,11.3h7v7h-7V11.3z M293.9,18.5h7v7h-7
	V18.5z M293.9,25.8h7v7h-7V25.8z M293.9,33.1h7v7h-7V33.1z M293.9,40.3h7v7h-7V40.3z M293.9,47.6h7v7h-7V47.6z M293.9,54.8h7v7h-7
	V54.8z M293.9,62.1h7v7h-7V62.1z M293.9,69.3h7v7h-7V69.3z M293.9,76.6h7v7h-7V76.6z M293.9,83.9h7v7h-7V83.9z M293.9,98.4h7v7h-7
	V98.4z M293.9,112.9h7v7h-7V112.9z M293.9,127.4h7v7h-7V127.4z M293.9,142h7v7h-7V142z M293.9,149.2h7v7h-7V149.2z M293.9,163.7h7v7
	h-7V163.7z M293.9,171h7v7h-7V171z M293.9,178.1h7v7h-7V178.1z M301.2,4h7v7h-7V4z M301.2,11.3h7v7h-7V11.3z M301.2,18.5h7v7h-7
	V18.5z M301.2,25.8h7v7h-7V25.8z M301.2,33.1h7v7h-7V33.1z M301.2,40.3h7v7h-7V40.3z M301.2,47.6h7v7h-7V47.6z M301.2,54.8h7v7h-7
	V54.8z M301.2,69.3h7v7h-7V69.3z M301.2,76.6h7v7h-7V76.6z M301.2,83.9h7v7h-7V83.9z M301.2,91.1h7v7h-7V91.1z M301.2,98.4h7v7h-7
	V98.4z M301.2,105.6h7v7h-7V105.6z M301.2,112.9h7v7h-7V112.9z M301.2,120.2h7v7h-7V120.2z M301.2,127.4h7v7h-7V127.4z M301.2,134.7
	h7v7h-7V134.7z M301.2,142h7v7h-7V142z M301.2,149.2h7v7h-7V149.2z M301.2,156.5h7v7h-7V156.5z M301.2,163.7h7v7h-7V163.7z
	 M301.2,171h7v7h-7V171z M301.2,178.1h7v7h-7V178.1z M308.4,4h7v7h-7V4z M308.4,11.3h7v7h-7V11.3z M308.4,18.5h7v7h-7V18.5z
	 M308.4,25.8h7v7h-7V25.8z M308.4,40.3h7v7h-7V40.3z M308.4,47.6h7v7h-7V47.6z M308.4,62.1h7v7h-7V62.1z M308.4,69.3h7v7h-7V69.3z
	 M308.4,76.6h7v7h-7V76.6z M308.4,83.9h7v7h-7V83.9z M308.4,98.4h7v7h-7V98.4z M308.4,105.6h7v7h-7V105.6z M308.4,112.9h7v7h-7
	V112.9z M308.4,120.2h7v7h-7V120.2z M308.4,127.4h7v7h-7V127.4z M308.4,134.7h7v7h-7V134.7z M308.4,142h7v7h-7V142z M308.4,149.2h7
	v7h-7V149.2z M308.4,156.5h7v7h-7V156.5z M308.4,163.7h7v7h-7V163.7z M308.4,171h7v7h-7V171z M308.4,178.1h7v7h-7V178.1z M315.7,4h7
	v7h-7V4z M315.7,11.3h7v7h-7V11.3z M315.7,18.5h7v7h-7V18.5z M315.7,25.8h7v7h-7V25.8z M315.7,33.1h7v7h-7V33.1z M315.7,47.6h7v7h-7
	V47.6z M315.7,54.8h7v7h-7V54.8z M315.7,69.3h7v7h-7V69.3z M315.7,76.6h7v7h-7V76.6z M315.7,83.9h7v7h-7V83.9z M315.7,91.1h7v7h-7
	V91.1z M315.7,98.4h7v7h-7V98.4z M315.7,105.6h7v7h-7V105.6z M315.7,112.9h7v7h-7V112.9z M315.7,120.2h7v7h-7V120.2z M315.7,127.4h7
	v7h-7V127.4z M315.7,134.7h7v7h-7V134.7z M315.7,142h7v7h-7V142z M315.7,149.2h7v7h-7V149.2z M315.7,156.5h7v7h-7V156.5z
	 M315.7,163.7h7v7h-7V163.7z M315.7,171h7v7h-7V171z M315.7,178.1h7v7h-7V178.1z M323,4h7v7h-7V4z M323,11.3h7v7h-7V11.3z M323,18.5
	h7v7h-7V18.5z M323,25.8h7v7h-7V25.8z M323,33.1h7v7h-7V33.1z M323,40.3h7v7h-7V40.3z M323,54.8h7v7h-7V54.8z M323,62.1h7v7h-7V62.1
	z M323,76.6h7v7h-7V76.6z M323,83.9h7v7h-7V83.9z M323,98.4h7v7h-7V98.4z M323,105.6h7v7h-7V105.6z M323,112.9h7v7h-7V112.9z
	 M323,120.2h7v7h-7V120.2z M323,127.4h7v7h-7V127.4z M323,134.7h7v7h-7V134.7z M323,142h7v7h-7V142z M323,149.2h7v7h-7V149.2z
	 M323,156.5h7v7h-7V156.5z M323,163.7h7v7h-7V163.7z M323,171h7v7h-7V171z M323,178.1h7v7h-7V178.1z M330.2,4h7v7h-7V4z M330.2,11.3
	h7v7h-7V11.3z M330.2,18.5h7v7h-7V18.5z M330.2,25.8h7v7h-7V25.8z M330.2,40.3h7v7h-7V40.3z M330.2,47.6h7v7h-7V47.6z M330.2,62.1h7
	v7h-7V62.1z M330.2,69.3h7v7h-7V69.3z M330.2,76.6h7v7h-7V76.6z M330.2,83.9h7v7h-7V83.9z M330.2,91.1h7v7h-7V91.1z M330.2,98.4h7v7
	h-7V98.4z M330.2,105.6h7v7h-7V105.6z M330.2,112.9h7v7h-7V112.9z M330.2,120.2h7v7h-7V120.2z M330.2,127.4h7v7h-7V127.4z
	 M330.2,134.7h7v7h-7V134.7z M330.2,142h7v7h-7V142z M330.2,149.2h7v7h-7V149.2z M330.2,156.5h7v7h-7V156.5z M330.2,163.7h7v7h-7
	V163.7z M330.2,171h7v7h-7V171z M330.2,178.1h7v7h-7V178.1z M337.5,4h7v7h-7V4z M337.5,11.3h7v7h-7V11.3z M337.5,18.5h7v7h-7V18.5z
	 M337.5,25.8h7v7h-7V25.8z M337.5,33.1h7v7h-7V33.1z M337.5,47.6h7v7h-7V47.6z M337.5,54.8h7v7h-7V54.8z M337.5,69.3h7v7h-7V69.3z
	 M337.5,76.6h7v7h-7V76.6z M337.5,83.9h7v7h-7V83.9z M337.5,98.4h7v7h-7V98.4z M337.5,105.6h7v7h-7V105.6z M337.5,112.9h7v7h-7
	V112.9z M337.5,120.2h7v7h-7V120.2z M337.5,127.4h7v7h-7V127.4z M337.5,134.7h7v7h-7V134.7z M337.5,142h7v7h-7V142z M337.5,149.2h7
	v7h-7V149.2z M337.5,156.5h7v7h-7V156.5z M337.5,163.7h7v7h-7V163.7z M337.5,171h7v7h-7V171z M337.5,178.1h7v7h-7V178.1z M344.7,4h7
	v7h-7V4z M344.7,11.3h7v7h-7V11.3z M344.7,18.5h7v7h-7V18.5z M344.7,25.8h7v7h-7V25.8z M344.7,33.1h7v7h-7V33.1z M344.7,40.3h7v7h-7
	V40.3z M344.7,54.8h7v7h-7V54.8z M344.7,62.1h7v7h-7V62.1z M344.7,76.6h7v7h-7V76.6z M344.7,83.9h7v7h-7V83.9z M344.7,91.1h7v7h-7
	V91.1z M344.7,98.4h7v7h-7V98.4z M344.7,105.6h7v7h-7V105.6z M344.7,112.9h7v7h-7V112.9z M344.7,120.2h7v7h-7V120.2z M344.7,127.4h7
	v7h-7V127.4z M344.7,134.7h7v7h-7V134.7z M344.7,142h7v7h-7V142z M344.7,149.2h7v7h-7V149.2z M344.7,156.5h7v7h-7V156.5z
	 M344.7,163.7h7v7h-7V163.7z M344.7,171h7v7h-7V171z M344.7,178.1h7v7h-7V178.1z M352,4h7v7h-7V4z M352,11.3h7v7h-7V11.3z M352,18.5
	h7v7h-7V18.5z M352,25.8h7v7h-7V25.8z M352,40.3h7v7h-7V40.3z M352,47.6h7v7h-7V47.6z M352,62.1h7v7h-7V62.1z M352,69.3h7v7h-7V69.3
	z M352,76.6h7v7h-7V76.6z M352,83.9h7v7h-7V83.9z M352,98.4h7v7h-7V98.4z M352,105.6h7v7h-7V105.6z M352,112.9h7v7h-7V112.9z
	 M352,120.2h7v7h-7V120.2z M352,127.4h7v7h-7V127.4z M352,134.7h7v7h-7V134.7z M352,142h7v7h-7V142z M352,149.2h7v7h-7V149.2z
	 M352,156.5h7v7h-7V156.5z M352,163.7h7v7h-7V163.7z M352,171h7v7h-7V171z M352,178.1h7v7h-7V178.1z M359.3,11.3h7v7h-7V11.3z
	 M359.3,18.5h7v7h-7V18.5z M359.3,25.8h7v7h-7V25.8z M359.3,33.1h7v7h-7V33.1z M359.3,40.3h7v7h-7V40.3z M359.3,54.8h7v7h-7V54.8z
	 M359.3,62.1h7v7h-7V62.1z M359.3,76.6h7v7h-7V76.6z M359.3,83.9h7v7h-7V83.9z M359.3,91.1h7v7h-7V91.1z M359.3,98.4h7v7h-7V98.4z
	 M359.3,105.6h7v7h-7V105.6z M359.3,112.9h7v7h-7V112.9z M359.3,120.2h7v7h-7V120.2z M359.3,127.4h7v7h-7V127.4z M359.3,134.7h7v7
	h-7V134.7z M359.3,142h7v7h-7V142z M359.3,149.2h7v7h-7V149.2z M359.3,156.5h7v7h-7V156.5z M359.3,163.7h7v7h-7V163.7z M359.3,171h7
	v7h-7V171z M359.3,178.1h7v7h-7V178.1z M366.5,11.3h7v7h-7V11.3z M366.5,18.5h7v7h-7V18.5z M366.5,25.8h7v7h-7V25.8z M366.5,33.1h7
	v7h-7V33.1z M366.5,40.3h7v7h-7V40.3z M366.5,47.6h7v7h-7V47.6z M366.5,54.8h7v7h-7V54.8z M366.5,62.1h7v7h-7V62.1z M366.5,69.3h7v7
	h-7V69.3z M366.5,76.6h7v7h-7V76.6z M366.5,83.9h7v7h-7V83.9z M366.5,98.4h7v7h-7V98.4z M366.5,105.6h7v7h-7V105.6z M366.5,112.9h7
	v7h-7V112.9z M366.5,120.2h7v7h-7V120.2z M366.5,127.4h7v7h-7V127.4z M366.5,134.7h7v7h-7V134.7z M366.5,142h7v7h-7V142z
	 M366.5,149.2h7v7h-7V149.2z M373.8,11.3h7v7h-7V11.3z M373.8,18.5h7v7h-7V18.5z M373.8,25.8h7v7h-7V25.8z M373.8,33.1h7v7h-7V33.1z
	 M373.8,40.3h7v7h-7V40.3z M373.8,47.6h7v7h-7V47.6z M373.8,69.3h7v7h-7V69.3z M373.8,76.6h7v7h-7V76.6z M373.8,83.9h7v7h-7V83.9z
	 M373.8,91.1h7v7h-7V91.1z M373.8,98.4h7v7h-7V98.4z M373.8,112.9h7v7h-7V112.9z M373.8,120.2h7v7h-7V120.2z M373.8,127.4h7v7h-7
	V127.4z M373.8,134.7h7v7h-7V134.7z M373.8,142h7v7h-7V142z M373.8,156.5h7v7h-7V156.5z M373.8,163.7h7v7h-7V163.7z M373.8,171h7v7
	h-7V171z M373.8,178.1h7v7h-7V178.1z M381,11.3h7v7h-7V11.3z M381,18.5h7v7h-7V18.5z M381,25.8h7v7h-7V25.8z M381,33.1h7v7h-7V33.1z
	 M381,40.3h7v7h-7V40.3z M381,47.6h7v7h-7V47.6z M381,54.8h7v7h-7V54.8z M381,69.3h7v7h-7V69.3z M381,76.6h7v7h-7V76.6z M381,83.9h7
	v7h-7V83.9z M381,98.4h7v7h-7V98.4z M381,112.9h7v7h-7V112.9z M381,120.2h7v7h-7V120.2z M381,127.4h7v7h-7V127.4z M381,134.7h7v7h-7
	V134.7z M381,149.2h7v7h-7V149.2z M381,156.5h7v7h-7V156.5z M381,163.7h7v7h-7V163.7z M381,171h7v7h-7V171z M381,178.1h7v7h-7V178.1
	z M381,185.4h7v7h-7V185.4z M381,192.7h7v7h-7V192.7z M388.3,11.3h7v7h-7V11.3z M388.3,18.5h7v7h-7V18.5z M388.3,25.8h7v7h-7V25.8z
	 M388.3,40.3h7v7h-7V40.3z M388.3,47.6h7v7h-7V47.6z M388.3,54.8h7v7h-7V54.8z M388.3,62.1h7v7h-7V62.1z M388.3,69.3h7v7h-7V69.3z
	 M388.3,76.6h7v7h-7V76.6z M388.3,83.9h7v7h-7V83.9z M388.3,91.1h7v7h-7V91.1z M388.3,98.4h7v7h-7V98.4z M388.3,105.6h7v7h-7V105.6z
	 M388.3,112.9h7v7h-7V112.9z M388.3,120.2h7v7h-7V120.2z M388.3,127.4h7v7h-7V127.4z M388.3,142h7v7h-7V142z M388.3,149.2h7v7h-7
	V149.2z M388.3,156.5h7v7h-7V156.5z M402.7,149.2h7v7h-7V149.2z M388.3,178.1h7v7h-7V178.1z M388.3,185.4h7v7h-7V185.4z
	 M388.3,192.7h7v7h-7V192.7z M388.3,199.9h7v7h-7V199.9z M395.6,11.3h7v7h-7V11.3z M395.6,18.5h7v7h-7V18.5z M395.6,25.8h7v7h-7
	V25.8z M395.6,40.3h7v7h-7V40.3z M395.6,47.6h7v7h-7V47.6z M395.6,54.8h7v7h-7V54.8z M395.6,62.1h7v7h-7V62.1z M395.6,69.3h7v7h-7
	V69.3z M395.6,76.6h7v7h-7V76.6z M395.6,83.9h7v7h-7V83.9z M395.6,98.4h7v7h-7V98.4z M395.6,105.6h7v7h-7V105.6z M395.6,112.9h7v7
	h-7V112.9z M395.6,120.2h7v7h-7V120.2z M395.6,134.7h7v7h-7V134.7z M395.6,142h7v7h-7V142z M395.6,149.2h7v7h-7V149.2z M395.6,163.7
	h7v7h-7V163.7z M395.6,171h7v7h-7V171z M395.6,178.1h7v7h-7V178.1z M395.6,192.7h7v7h-7V192.7z M395.6,199.9h7v7h-7V199.9z
	 M402.8,11.3h7v7h-7V11.3z M402.8,18.5h7v7h-7V18.5z M402.8,25.8h7v7h-7V25.8z M402.8,40.3h7v7h-7V40.3z M402.8,47.6h7v7h-7V47.6z
	 M402.8,54.8h7v7h-7V54.8z M410,54.8h7v7h-7V54.8z M402.8,62.1h7v7h-7V62.1z M402.8,69.3h7v7h-7V69.3z M402.8,76.6h7v7h-7V76.6z
	 M402.8,83.9h7v7h-7V83.9z M402.8,91.1h7v7h-7V91.1z M402.8,98.4h7v7h-7V98.4z M402.8,105.6h7v7h-7V105.6z M402.8,112.9h7v7h-7
	V112.9z M402.8,120.2h7v7h-7V120.2z M402.8,134.7h7v7h-7V134.7z M402.8,142h7v7h-7V142z M402.8,156.5h7v7h-7V156.5z M402.8,163.7h7
	v7h-7V163.7z M402.8,171h7v7h-7V171z M402.8,178.1h7v7h-7V178.1z M402.8,185.4h7v7h-7V185.4z M402.8,199.9h7v7h-7V199.9z
	 M402.8,207.2h7v7h-7V207.2z M410.1,11.3h7v7h-7V11.3z M410.1,18.5h7v7h-7V18.5z M410.1,33.1h7v7h-7V33.1z M410.1,47.6h7v7h-7V47.6z
	 M410.1,62.1h7v7h-7V62.1z M410.1,69.3h7v7h-7V69.3z M410.1,76.6h7v7h-7V76.6z M410.1,83.9h7v7h-7V83.9z M410.1,98.4h7v7h-7V98.4z
	 M410.1,105.6h7v7h-7V105.6z M410.1,112.9h7v7h-7V112.9z M410.1,120.2h7v7h-7V120.2z M410.1,134.7h7v7h-7V134.7z M410.1,142h7v7h-7
	V142z M431.8,156.5h7v7h-7V156.5z M410.1,156.5h7v7h-7V156.5z M410.1,163.7h7v7h-7V163.7z M410.1,178.1h7v7h-7V178.1z M410.1,185.4
	h7v7h-7V185.4z M410.1,199.9h7v7h-7V199.9z M410.1,207.2h7v7h-7V207.2z M417.3,25.8h7v7h-7V25.8z M417.3,40.3h7v7h-7V40.3z
	 M417.3,54.8h7v7h-7V54.8z M417.3,69.3h7v7h-7V69.3z M417.3,76.6h7v7h-7V76.6z M417.3,83.9h7v7h-7V83.9z M417.3,91.1h7v7h-7V91.1z
	 M417.3,98.4h7v7h-7V98.4z M417.3,105.6h7v7h-7V105.6z M417.3,112.9h7v7h-7V112.9z M417.3,120.2h7v7h-7V120.2z M417.3,134.7h7v7h-7
	V134.7z M417.3,142h7v7h-7V142z M417.3,156.5h7v7h-7V156.5z M417.3,163.7h7v7h-7V163.7z M417.3,171h7v7h-7V171z M417.3,178.1h7v7h-7
	V178.1z M417.3,185.4h7v7h-7V185.4z M417.3,199.9h7v7h-7V199.9z M417.3,207.2h7v7h-7V207.2z M424.6,33.1h7v7h-7V33.1z M424.6,40.3h7
	v7h-7V40.3z M424.6,47.6h7v7h-7V47.6z M424.6,62.1h7v7h-7V62.1z M424.6,76.6h7v7h-7V76.6z M424.6,83.9h7v7h-7V83.9z M424.6,98.4h7v7
	h-7V98.4z M424.6,105.6h7v7h-7V105.6z M424.6,112.9h7v7h-7V112.9z M424.6,120.2h7v7h-7V120.2z M424.6,134.7h7v7h-7V134.7z
	 M424.6,142h7v7h-7V142z M424.6,149.2h7v7h-7V149.2z M424.6,163.7h7v7h-7V163.7z M424.6,171h7v7h-7V171z M424.6,178.1h7v7h-7V178.1z
	 M424.6,192.7h7v7h-7V192.7z M424.6,199.9h7v7h-7V199.9z M424.6,207.2h7v7h-7V207.2z M431.9,47.6h7v7h-7V47.6z M272.1,33.1h7v7h-7
	V33.1z M279.4,25.8h7v7h-7V25.8z M315.7,40.4h7v7h-7V40.4z M344.7,47.6h7v7h-7V47.6z M395.6,33.1h7v7h-7V33.1z M410.1,40.4h7v7h-7
	V40.4z M431.9,54.9h7v7h-7V54.9z M431.9,69.3h7v7h-7V69.3z M431.9,76.6h7v7h-7V76.6z M431.9,83.9h7v7h-7V83.9z M431.9,91.1h7v7h-7
	V91.1z M431.9,98.4h7v7h-7V98.4z M431.9,105.6h7v7h-7V105.6z M431.9,112.9h7v7h-7V112.9z M431.9,120.2h7v7h-7V120.2z M431.9,127.4h7
	v7h-7V127.4z M431.9,142h7v7h-7V142z M431.9,149.2h7v7h-7V149.2z M431.9,163.7h7v7h-7V163.7z M417.2,192.7h7v7h-7V192.7z
	 M431.9,185.4h7v7h-7V185.4z M431.9,192.7h7v7h-7V192.7z M431.9,199.9h7v7h-7V199.9z M439.1,54.8h7v7h-7V54.8z M439.1,62.1h7v7h-7
	V62.1z M439.1,76.6h7v7h-7V76.6z M439.1,83.9h7v7h-7V83.9z M439.1,98.4h7v7h-7V98.4z M439.1,105.6h7v7h-7V105.6z M439.1,112.9h7v7
	h-7V112.9z M439.1,120.2h7v7h-7V120.2z M439.1,127.4h7v7h-7V127.4z M439.1,134.7h7v7h-7V134.7z M439.1,149.2h7v7h-7V149.2z
	 M439.1,156.5h7v7h-7V156.5z M439.1,163.7h7v7h-7V163.7z M439.1,171h7v7h-7V171z M439.1,178.1h7v7h-7V178.1z M439.1,185.4h7v7h-7
	V185.4z M439.1,192.7h7v7h-7V192.7z M446.4,69.3h7v7h-7V69.3z M446.4,76.6h7v7h-7V76.6z M446.4,83.9h7v7h-7V83.9z M446.4,91.1h7v7
	h-7V91.1z M446.4,98.4h7v7h-7V98.4z M446.4,105.6h7v7h-7V105.6z M446.4,112.9h7v7h-7V112.9z M446.4,120.2h7v7h-7V120.2z
	 M446.4,127.4h7v7h-7V127.4z M446.4,134.7h7v7h-7V134.7z M446.4,142h7v7h-7V142z M446.4,156.5h7v7h-7V156.5z M446.4,163.7h7v7h-7
	V163.7z M446.4,171h7v7h-7V171z M446.4,178.1h7v7h-7V178.1z M453.6,76.6h7v7h-7V76.6z M453.6,83.9h7v7h-7V83.9z M453.6,98.4h7v7h-7
	V98.4z M453.6,105.6h7v7h-7V105.6z M453.6,112.9h7v7h-7V112.9z M453.6,120.2h7v7h-7V120.2z M453.6,127.4h7v7h-7V127.4z M453.6,134.7
	h7v7h-7V134.7z M453.6,142h7v7h-7V142z M453.6,149.2h7v7h-7V149.2z M460.9,76.6h7v7h-7V76.6z M460.9,83.9h7v7h-7V83.9z M460.9,91.1
	h7v7h-7V91.1z M460.9,98.4h7v7h-7V98.4z M460.9,105.6h7v7h-7V105.6z M460.9,112.9h7v7h-7V112.9z M460.9,120.2h7v7h-7V120.2z
	 M460.9,127.4h7v7h-7V127.4z M460.9,134.7h7v7h-7V134.7z M460.9,142h7v7h-7V142z M460.9,149.2h7v7h-7V149.2z M460.9,156.5h7v7h-7
	V156.5z M468.2,76.6h7v7h-7V76.6z M468.2,83.9h7v7h-7V83.9z M468.2,98.4h7v7h-7V98.4z M468.2,105.6h7v7h-7V105.6z M468.2,112.9h7v7
	h-7V112.9z M468.2,120.2h7v7h-7V120.2z M468.2,127.4h7v7h-7V127.4z M468.2,134.7h7v7h-7V134.7z M468.2,142h7v7h-7V142z M468.2,149.2
	h7v7h-7V149.2z M468.2,156.5h7v7h-7V156.5z M468.2,163.7h7v7h-7V163.7z M468.2,171h7v7h-7V171z M468.2,178.1h7v7h-7V178.1z
	 M475.4,76.6h7v7h-7V76.6z M475.4,83.9h7v7h-7V83.9z M475.4,91.1h7v7h-7V91.1z M475.4,98.4h7v7h-7V98.4z M475.4,105.6h7v7h-7V105.6z
	 M475.4,112.9h7v7h-7V112.9z M475.4,120.2h7v7h-7V120.2z M475.4,127.4h7v7h-7V127.4z M475.4,134.7h7v7h-7V134.7z M475.4,142h7v7h-7
	V142z M475.4,149.2h7v7h-7V149.2z M475.4,156.5h7v7h-7V156.5z M475.4,163.7h7v7h-7V163.7z M475.4,171h7v7h-7V171z M482.7,76.6h7v7
	h-7V76.6z M482.7,83.9h7v7h-7V83.9z M482.7,91.1h7v7h-7V91.1z M482.7,105.6h7v7h-7V105.6z M482.7,112.9h7v7h-7V112.9z M482.7,120.2
	h7v7h-7V120.2z M482.7,127.4h7v7h-7V127.4z M482.7,134.7h7v7h-7V134.7z M482.7,142h7v7h-7V142z M482.7,149.2h7v7h-7V149.2z
	 M482.7,156.5h7v7h-7V156.5z M482.7,163.7h7v7h-7V163.7z M482.7,171h7v7h-7V171z M489.9,76.6h7v7h-7V76.6z M489.9,83.9h7v7h-7V83.9z
	 M489.9,91.1h7v7h-7V91.1z M489.9,98.4h7v7h-7V98.4z M489.9,105.6h7v7h-7V105.6z M489.9,112.9h7v7h-7V112.9z M489.9,120.2h7v7h-7
	V120.2z M489.9,127.4h7v7h-7V127.4z M489.9,134.7h7v7h-7V134.7z M489.9,142h7v7h-7V142z M489.9,149.2h7v7h-7V149.2z M489.9,156.5h7
	v7h-7V156.5z M489.9,163.7h7v7h-7V163.7z M489.9,171h7v7h-7V171z M497.2,76.6h7v7h-7V76.6z M497.2,83.9h7v7h-7V83.9z M497.2,91.1h7
	v7h-7V91.1z M497.2,105.6h7v7h-7V105.6z M497.2,112.9h7v7h-7V112.9z M497.2,120.2h7v7h-7V120.2z M497.2,127.4h7v7h-7V127.4z
	 M497.2,134.7h7v7h-7V134.7z M497.2,142h7v7h-7V142z M497.2,149.2h7v7h-7V149.2z M497.2,156.5h7v7h-7V156.5z M497.2,163.7h7v7h-7
	V163.7z M497.2,171h7v7h-7V171z M504.5,76.6h7v7h-7V76.6z M504.5,83.9h7v7h-7V83.9z M504.5,91.1h7v7h-7V91.1z M504.5,98.4h7v7h-7
	V98.4z M504.5,105.6h7v7h-7V105.6z M504.5,112.9h7v7h-7V112.9z M504.5,120.2h7v7h-7V120.2z M504.5,127.4h7v7h-7V127.4z M504.5,134.7
	h7v7h-7V134.7z M504.5,142h7v7h-7V142z M504.5,149.2h7v7h-7V149.2z M504.5,156.5h7v7h-7V156.5z M504.5,163.7h7v7h-7V163.7z
	 M504.5,171h7v7h-7V171z M511.7,83.9h7v7h-7V83.9z M511.7,91.1h7v7h-7V91.1z M511.7,105.6h7v7h-7V105.6z M511.7,112.9h7v7h-7V112.9z
	 M511.7,120.2h7v7h-7V120.2z M511.7,127.4h7v7h-7V127.4z M511.7,134.7h7v7h-7V134.7z M511.7,142h7v7h-7V142z M511.7,149.2h7v7h-7
	V149.2z M511.7,156.5h7v7h-7V156.5z M511.7,163.7h7v7h-7V163.7z M519,83.9h7v7h-7V83.9z M519,91.1h7v7h-7V91.1z M519,98.4h7v7h-7
	V98.4z M519,105.6h7v7h-7V105.6z M519,112.9h7v7h-7V112.9z M519,120.2h7v7h-7V120.2z M519,127.4h7v7h-7V127.4z M519,134.7h7v7h-7
	V134.7z M519,149.2h7v7h-7V149.2z M519,156.5h7v7h-7V156.5z M519,163.7h7v7h-7V163.7z M526.2,83.9h7v7h-7V83.9z M526.2,91.1h7v7h-7
	V91.1z M526.2,105.6h7v7h-7V105.6z M526.2,112.9h7v7h-7V112.9z M526.2,120.2h7v7h-7V120.2z M526.2,127.4h7v7h-7V127.4z M526.2,134.7
	h7v7h-7V134.7z M526.2,142h7v7h-7V142z M526.2,156.5h7v7h-7V156.5z M526.2,163.7h7v7h-7V163.7z M533.5,83.9h7v7h-7V83.9z
	 M533.5,91.1h7v7h-7V91.1z M533.5,98.4h7v7h-7V98.4z M533.5,105.6h7v7h-7V105.6z M533.5,112.9h7v7h-7V112.9z M533.5,120.2h7v7h-7
	V120.2z M533.5,127.4h7v7h-7V127.4z M533.5,134.7h7v7h-7V134.7z M533.5,149.2h7v7h-7V149.2z M540.8,83.9h7v7h-7V83.9z M540.8,91.1h7
	v7h-7V91.1z M540.8,98.4h7v7h-7V98.4z M540.8,105.6h7v7h-7V105.6z M540.8,112.9h7v7h-7V112.9z M540.8,120.2h7v7h-7V120.2z
	 M540.8,127.4h7v7h-7V127.4z M540.8,134.7h7v7h-7V134.7z M540.8,142h7v7h-7V142z M540.8,149.2h7v7h-7V149.2z M548,120.2h7v7h-7
	V120.2z M548,127.4h7v7h-7V127.4z M548,149.2h7v7h-7V149.2z"/>
</svg>
