<?xml version="1.0" encoding="utf-8"?>
<!-- Generator: Adobe Illustrator 27.3.1, SVG Export Plug-In . SVG Version: 6.00 Build 0)  -->
<svg version="1.1" xmlns="http://www.w3.org/2000/svg" xmlns:xlink="http://www.w3.org/1999/xlink" x="0px" y="0px"
	 viewBox="0 0 559.1 268.4" style="enable-background:new 0 0 559.1 268.4;" xml:space="preserve">
<style type="text/css">
	.st0{fill:#FCE8B3;}
	.st1{fill:#1E0E01;}
</style>
<g id="Слой_2">
	<g>
		<path class="st0" d="M213.6,87c0-1.7-1.3-3-3-3h-4.3v-4.2c0-1.7-1.3-3-3-3h-7c-0.1,0-0.1,0-0.1,0c-0.1,0-0.1,0-0.1,0h-7
			c-1.7,0-3,1.3-3,3V84h-4.2c-1.7,0-3,1.3-3,3v7c0,0.1,0,0.1,0,0.1c0,0.1,0,0.1,0,0.1v7c0,0,0,0.1,0,0.1c0,0,0,0.1,0,0.1v7
			c0,0.1,0,0.1,0,0.1c0,0.1,0,0.1,0,0.1v7c0,0.1,0,0.1,0,0.2c0,0.1,0,0.1,0,0.2v7c0,1.7,1.3,3,3,3h4.2v4.2c0,1.7,1.3,3,3,3h7
			c0.1,0,0.1,0,0.1,0c0.1,0,0.1,0,0.1,0h7c1.7,0,3-1.3,3-3v-4.2h4.3c1.7,0,3-1.3,3-3v-7c0-0.1,0-0.1,0-0.2c0-0.1,0-0.1,0-0.2v-7
			c0-0.1,0-0.1,0-0.1c0-0.1,0-0.1,0-0.1v-7c0,0,0-0.1,0-0.1c0,0,0-0.1,0-0.1v-7c0-0.1,0-0.1,0-0.1c0-0.1,0-0.1,0-0.1V87z M196,120.3
			h-4.2v-4.2c0-0.1,0-0.1,0-0.2c0-0.1,0-0.1,0-0.2v-7c0-0.1,0-0.1,0-0.1c0-0.1,0-0.1,0-0.1v-7c0,0,0-0.1,0-0.1c0,0,0-0.1,0-0.1v-7
			c0-0.1,0-0.1,0-0.1c0-0.1,0-0.1,0-0.1v-4.2h4.2c0.1,0,0.1,0,0.1,0c0.1,0,0.1,0,0.1,0h4.3V94c0,0.1,0,0.1,0,0.1c0,0.1,0,0.1,0,0.1
			v7c0,0,0,0.1,0,0.1c0,0,0,0.1,0,0.1v7c0,0.1,0,0.1,0,0.1c0,0.1,0,0.1,0,0.1v7c0,0.1,0,0.1,0,0.2c0,0.1,0,0.1,0,0.2v4.2h-4.3
			c-0.1,0-0.1,0-0.1,0C196.1,120.3,196.1,120.3,196,120.3z"/>
		<path class="st0" d="M249.9,79.8c0-1.7-1.3-3-3-3h-7c-1.7,0-3,1.3-3,3V84h-4.3c-1.7,0-3,1.3-3,3v4.3h-4.3c-1.7,0-3,1.3-3,3v7
			c0,0,0,0.1,0,0.1c0,0,0,0.1,0,0.1v4.3h-4.2c-1.7,0-3,1.3-3,3v7c0,0.1,0,0.1,0,0.2c0,0.1,0,0.1,0,0.2v7c0,0,0,0.1,0,0.1
			c0,0,0,0.1,0,0.1v7c0,1.7,1.3,3,3,3h7c1.7,0,3-1.3,3-3v-7c0,0,0-0.1,0-0.1c0,0,0-0.1,0-0.1v-7c0-0.1,0-0.1,0-0.2
			c0-0.1,0-0.1,0-0.2v-4.3h4.2c1.7,0,3-1.3,3-3v-7c0,0,0-0.1,0-0.1c0,0,0-0.1,0-0.1V97h1.6v4.3c0,0,0,0.1,0,0.1c0,0,0,0.1,0,0.1v7
			c0,0.1,0,0.1,0,0.1c0,0.1,0,0.1,0,0.1v7c0,0.1,0,0.1,0,0.2c0,0.1,0,0.1,0,0.2v7c0,0,0,0.1,0,0.1c0,0,0,0.1,0,0.1v7
			c0,1.7,1.3,3,3,3h7c1.7,0,3-1.3,3-3v-7c0,0,0-0.1,0-0.1c0,0,0-0.1,0-0.1v-7c0-0.1,0-0.1,0-0.2c0-0.1,0-0.1,0-0.2v-7
			c0-0.1,0-0.1,0-0.1c0-0.1,0-0.1,0-0.1v-7c0,0,0-0.1,0-0.1c0,0,0-0.1,0-0.1v-7c0-0.1,0-0.1,0-0.1c0-0.1,0-0.1,0-0.1v-7
			c0,0,0-0.1,0-0.1c0,0,0-0.1,0-0.1V79.8z"/>
		<path class="st0" d="M286.2,79.8c0-1.7-1.3-3-3-3h-7c-0.1,0-0.1,0-0.1,0c-0.1,0-0.1,0-0.1,0h-7c-0.1,0-0.1,0-0.2,0
			c-0.1,0-0.1,0-0.2,0h-7c-1.7,0-3,1.3-3,3V84h-4.2c-1.7,0-3,1.3-3,3v7c0,0.1,0,0.1,0,0.1c0,0.1,0,0.1,0,0.1v7c0,1.7,1.3,3,3,3h4.2
			v4.2c0,0.1,0,0.1,0,0.1c0,0.1,0,0.1,0,0.1v4.3h-4.2c-1.7,0-3,1.3-3,3v7c0,0,0,0.1,0,0.1c0,0,0,0.1,0,0.1v7c0,1.7,1.3,3,3,3h7
			c1.7,0,3-1.3,3-3v-7c0,0,0-0.1,0-0.1c0,0,0-0.1,0-0.1v-4.3h4.2c1.7,0,3-1.3,3-3v-4.3h1.6v4.3c0,0.1,0,0.1,0,0.2c0,0.1,0,0.1,0,0.2
			v7c0,0,0,0.1,0,0.1c0,0,0,0.1,0,0.1v7c0,1.7,1.3,3,3,3h7c1.7,0,3-1.3,3-3v-7c0,0,0-0.1,0-0.1c0,0,0-0.1,0-0.1v-7
			c0-0.1,0-0.1,0-0.2c0-0.1,0-0.1,0-0.2v-7c0-0.1,0-0.1,0-0.1c0-0.1,0-0.1,0-0.1v-7c0,0,0-0.1,0-0.1c0,0,0-0.1,0-0.1v-7
			c0-0.1,0-0.1,0-0.1c0-0.1,0-0.1,0-0.1v-7c0,0,0-0.1,0-0.1c0,0,0-0.1,0-0.1V79.8z M268.9,89.8h4.3V94c0,0.1,0,0.1,0,0.1
			c0,0.1,0,0.1,0,0.1v4.2h-4.3c-0.1,0-0.1,0-0.2,0c-0.1,0-0.1,0-0.2,0h-4.2v-4.2c0-0.1,0-0.1,0-0.1c0-0.1,0-0.1,0-0.1v-4.2h4.2
			c0.1,0,0.1,0,0.2,0C268.8,89.8,268.8,89.8,268.9,89.8z"/>
		<path class="st0" d="M329.7,94.3c0-1.7-1.3-3-3-3h-7c-1.7,0-3,1.3-3,3v7c0,0,0,0.1,0,0.1c0,0,0,0.1,0,0.1v7c0,0.1,0,0.1,0,0.1
			c0,0.1,0,0.1,0,0.1v7c0,0.1,0,0.1,0,0.2c0,0.1,0,0.1,0,0.2v4.2h-4.2c-0.1,0-0.1,0-0.1,0c-0.1,0-0.1,0-0.1,0h-4.3v-4.2
			c0-0.1,0-0.1,0-0.2c0-0.1,0-0.1,0-0.2v-7c0-0.1,0-0.1,0-0.1c0-0.1,0-0.1,0-0.1v-7c0,0,0-0.1,0-0.1c0,0,0-0.1,0-0.1v-7
			c0-1.7-1.3-3-3-3h-7c-1.7,0-3,1.3-3,3v7c0,0,0,0.1,0,0.1c0,0,0,0.1,0,0.1v7c0,0.1,0,0.1,0,0.1c0,0.1,0,0.1,0,0.1v7
			c0,0.1,0,0.1,0,0.2c0,0.1,0,0.1,0,0.2v7c0,1.7,1.3,3,3,3h4.3v4.2c0,1.7,1.3,3,3,3h7c0.1,0,0.1,0,0.1,0c0.1,0,0.1,0,0.1,0h7
			c1.7,0,3-1.3,3-3v-4.2h4.2c1.7,0,3-1.3,3-3v-7c0-0.1,0-0.1,0-0.2c0-0.1,0-0.1,0-0.2v-7c0-0.1,0-0.1,0-0.1c0-0.1,0-0.1,0-0.1v-7
			c0,0,0-0.1,0-0.1c0,0,0-0.1,0-0.1V94.3z"/>
		<path class="st0" d="M363.3,133.3h7c1.7,0,3-1.3,3-3v-7c0-1.7-1.3-3-3-3H366v-4.2c0-0.1,0-0.1,0-0.2c0-0.1,0-0.1,0-0.2v-7
			c0-0.1,0-0.1,0-0.1c0-0.1,0-0.1,0-0.1v-7c0-1.7-1.3-3-3-3h-4.2v-4.2c0-1.7-1.3-3-3-3h-7c-0.1,0-0.1,0-0.1,0c-0.1,0-0.1,0-0.1,0h-7
			c-1.7,0-3,1.3-3,3v7c0,1.7,1.3,3,3,3h7c0.1,0,0.1,0,0.1,0c0.1,0,0.1,0,0.1,0h4.2v1.5h-4.2c-0.1,0-0.1,0-0.1,0c-0.1,0-0.1,0-0.1,0
			h-7c-1.7,0-3,1.3-3,3v4.3h-4.3c-1.7,0-3,1.3-3,3v7c0,1.7,1.3,3,3,3h4.3v4.2c0,1.7,1.3,3,3,3h7c0.1,0,0.1,0,0.1,0
			c0.1,0,0.1,0,0.1,0h7c1.7,0,3-1.3,3-3v-4.2h1.5v4.2C360.3,132,361.6,133.3,363.3,133.3z M348.5,120.3h-4.3v-1.5h4.3
			c0.1,0,0.1,0,0.1,0c0.1,0,0.1,0,0.1,0h4.2v1.5h-4.2c-0.1,0-0.1,0-0.1,0C348.6,120.3,348.6,120.3,348.5,120.3z"/>
		<path class="st0" d="M65.4,133.4h7c1.7,0,3-1.3,3-3v-7c0-1.7-1.3-3-3-3h-7c-1.7,0-3,1.3-3,3v7C62.4,132.1,63.7,133.4,65.4,133.4z"
			/>
		<path class="st0" d="M87.1,125.9h7c1.7,0,3-1.3,3-3v-7c0-1.7-1.3-3-3-3h-7c-1.7,0-3,1.3-3,3v7C84.1,124.6,85.4,125.9,87.1,125.9z"
			/>
		<path class="st0" d="M94.2,127.6h-7c-1.7,0-3,1.3-3,3v7c0,1.7,1.3,3,3,3h7c1.7,0,3-1.3,3-3v-7C97.2,128.9,95.9,127.6,94.2,127.6z"
			/>
		<path class="st0" d="M65.4,148h7c1.7,0,3-1.3,3-3v-7c0-1.7-1.3-3-3-3h-7c-1.7,0-3,1.3-3,3v7C62.4,146.7,63.7,148,65.4,148z"/>
		<path class="st0" d="M58.1,177.1h7c0.1,0,0.1,0,0.1,0c0.1,0,0.1,0,0.1,0h4.2v4.2c0,1.7,1.3,3,3,3h7c0.1,0,0.1,0,0.1,0
			c0.1,0,0.1,0,0.1,0h7c1.7,0,3-1.3,3-3v-4.2h4.3c0,0,0.1,0,0.1,0c0,0,0.1,0,0.1,0h7c1.7,0,3-1.3,3-3v-7c0-0.1,0-0.1,0-0.1
			c0-0.1,0-0.1,0-0.1v-7c0-1.7-1.3-3-3-3h-4.2v-4.3c0,0,0-0.1,0-0.1c0,0,0-0.1,0-0.1v-7c0-1.7-1.3-3-3-3h-7c-1.7,0-3,1.3-3,3v7
			c0,0,0,0.1,0,0.1c0,0,0,0.1,0,0.1v7c0,1.7,1.3,3,3,3h4.2v1.6h-4.2c-1.7,0-3,1.3-3,3v4.2h-4.3c-0.1,0-0.1,0-0.1,0
			c-0.1,0-0.1,0-0.1,0h-4.2v-4.2c0-1.7-1.3-3-3-3h-4.3v-1.6h4.3c1.7,0,3-1.3,3-3v-7c0-1.7-1.3-3-3-3h-7c-1.7,0-3,1.3-3,3v4.3h-4.3
			c-1.7,0-3,1.3-3,3v7c0,0.1,0,0.1,0,0.1c0,0.1,0,0.1,0,0.1v7C55.1,175.8,56.4,177.1,58.1,177.1z"/>
		<path class="st0" d="M87.2,227.8h7c1.7,0,3-1.3,3-3v-4.2h4.2c1.7,0,3-1.3,3-3v-4.3h4.3c1.7,0,3-1.3,3-3v-7c0-1.7-1.3-3-3-3h-4.3
			v-4.2c0-1.7-1.3-3-3-3h-7c0,0-0.1,0-0.1,0c0,0-0.1,0-0.1,0h-7c-0.1,0-0.1,0-0.2,0c-0.1,0-0.1,0-0.2,0h-7c-0.1,0-0.1,0-0.1,0
			c-0.1,0-0.1,0-0.1,0h-7c0,0-0.1,0-0.1,0c0,0-0.1,0-0.1,0h-7c-0.1,0-0.1,0-0.1,0c-0.1,0-0.1,0-0.1,0h-7c-1.7,0-3,1.3-3,3v4.2h-4.2
			c-1.7,0-3,1.3-3,3v7c0,1.7,1.3,3,3,3h4.2v4.3c0,1.7,1.3,3,3,3h4.3v4.2c0,1.7,1.3,3,3,3h7c0,0,0.1,0,0.1,0c0,0,0.1,0,0.1,0h7
			c0.1,0,0.1,0,0.1,0c0.1,0,0.1,0,0.1,0h7c0.1,0,0.1,0,0.2,0C87.1,227.8,87.1,227.8,87.2,227.8z"/>
		<path class="st0" d="M562.1,210.5c0-1.7-1.3-3-3-3h-4.3v-4.3c0,0,0-0.1,0-0.1c0,0,0-0.1,0-0.1v-7c0-1.7-1.3-3-3-3h-4.2v-4.4
			c0,0,0-0.1,0-0.1c0,0,0-0.1,0-0.1v-7c0-1.7-1.3-3-3-3h-4.2v-4.3c0-1.7-1.3-3-3-3h-4.3v-4.3c0-1.7-1.3-3-3-3h-4.3v-4.2
			c0-1.7-1.3-3-3-3h-4.2v-4.3c0-1.7-1.3-3-3-3h-4.3v-4.2c0-1.7-1.3-3-3-3h-7c0,0-0.1,0-0.1,0c0,0-0.1,0-0.1,0h-7c-0.1,0-0.1,0-0.1,0
			c-0.1,0-0.1,0-0.1,0h-7c-0.1,0-0.1,0-0.1,0c-0.1,0-0.1,0-0.1,0h-7c-0.1,0-0.1,0-0.2,0c-0.1,0-0.1,0-0.2,0h-4.2v-4.3
			c0-1.7-1.3-3-3-3h-4.3v-4.3c0-1.7-1.3-3-3-3h-4.3v-4.2c0-1.7-1.3-3-3-3h-4.2V116c0-1.7-1.3-3-3-3h-4.3v-4.2c0-1.7-1.3-3-3-3h-7
			c0,0-0.1,0-0.1,0c0,0-0.1,0-0.1,0h-7c-0.1,0-0.1,0-0.1,0c-0.1,0-0.1,0-0.1,0h-7c-0.1,0-0.1,0-0.1,0c-0.1,0-0.1,0-0.1,0h-4.2v-4.3
			c0-0.1,0-0.1,0-0.1c0-0.1,0-0.1,0-0.1v-7c0-1.7-1.3-3-3-3h-4.3V87c0-1.7-1.3-3-3-3h-4.2v-4.3c0-1.7-1.3-3-3-3H395v-4.3
			c0-1.7-1.3-3-3-3h-7c-0.1,0-0.1,0-0.1,0c-0.1,0-0.1,0-0.1,0h-4.2v-4.2c0-1.7-1.3-3-3-3h-7c-0.1,0-0.1,0-0.1,0c-0.1,0-0.1,0-0.1,0
			h-7c0,0-0.1,0-0.1,0c0,0-0.1,0-0.1,0h-7c-0.1,0-0.1,0-0.1,0c-0.1,0-0.1,0-0.1,0h-7c-0.1,0-0.1,0-0.1,0c-0.1,0-0.1,0-0.1,0h-7
			c0,0-0.1,0-0.1,0c0,0-0.1,0-0.1,0h-7c-0.1,0-0.1,0-0.1,0c-0.1,0-0.1,0-0.1,0h-7c-1.7,0-3,1.3-3,3v4.2h-4.2c-0.1,0-0.1,0-0.1,0
			c-0.1,0-0.1,0-0.1,0h-7c-0.1,0-0.1,0-0.2,0c-0.1,0-0.1,0-0.2,0h-4.2v-4.2c0-1.7-1.3-3-3-3h-7c-0.1,0-0.1,0-0.2,0
			c-0.1,0-0.1,0-0.2,0h-7c0,0-0.1,0-0.1,0c0,0-0.1,0-0.1,0h-4.3V58c0-1.7-1.3-3-3-3h-7c-0.1,0-0.1,0-0.1,0c-0.1,0-0.1,0-0.1,0h-4.2
			v-4.3c0-1.7-1.3-3-3-3h-7c-0.1,0-0.1,0-0.1,0c-0.1,0-0.1,0-0.1,0h-7c-0.1,0-0.1,0-0.1,0c-0.1,0-0.1,0-0.1,0h-7c0,0-0.1,0-0.1,0
			c0,0-0.1,0-0.1,0h-7c-0.1,0-0.1,0-0.1,0c-0.1,0-0.1,0-0.1,0h-7c0,0-0.1,0-0.1,0c0,0-0.1,0-0.1,0h-7c-0.1,0-0.1,0-0.1,0
			c-0.1,0-0.1,0-0.1,0h-7c-1.7,0-3,1.3-3,3V55h-4.2c-0.1,0-0.1,0-0.1,0c-0.1,0-0.1,0-0.1,0h-7c0,0-0.1,0-0.1,0c0,0-0.1,0-0.1,0h-7
			c-1.7,0-3,1.3-3,3v4.2H189c0,0-0.1,0-0.1,0c0,0-0.1,0-0.1,0h-7c-0.1,0-0.1,0-0.1,0c-0.1,0-0.1,0-0.1,0h-7c-1.7,0-3,1.3-3,3v4.2
			h-1.7v-4c0-1.7-1.3-3-3-3h-4.3v-1.5h4.3c1.7,0,3-1.3,3-3v-7c0-1.7-1.3-3-3-3h-4.3v-4.3c0-1.7-1.3-3-3-3h-4.3v-4.2c0-1.7-1.3-3-3-3
			H148v-4.3c0-1.7-1.3-3-3-3h-4.3v-4.3c0-1.7-1.3-3-3-3h-4.2v-4.2c0-1.7-1.3-3-3-3h-4.3V7.3c0-1.7-1.3-3-3-3h-7c-1.7,0-3,1.3-3,3
			v4.3h-1.5V7.3c0-1.7-1.3-3-3-3h-4.3V0c0-1.7-1.3-3-3-3h-7c-1.7,0-3,1.3-3,3v4.3h-1.5V0c0-1.7-1.3-3-3-3h-7c-1.7,0-3,1.3-3,3v4.3
			h-1.5V0c0-1.7-1.3-3-3-3h-7c-1.7,0-3,1.3-3,3v4.3h-1.5V0c0-1.7-1.3-3-3-3h-7c-1.7,0-3,1.3-3,3v4.3h-4.3c-0.1,0-0.1,0-0.2,0
			c-0.1,0-0.1,0-0.2,0h-7c-1.7,0-3,1.3-3,3v4.3h-4.2c-1.7,0-3,1.3-3,3v4.2h-4.3c-1.7,0-3,1.3-3,3v4.3h-4.2c-1.7,0-3,1.3-3,3v4.3H7.3
			c-1.7,0-3,1.3-3,3v7c0,0,0,0.1,0,0.1c0,0,0,0.1,0,0.1v4.5H0c-1.7,0-3,1.3-3,3v7c0,1.7,1.3,3,3,3h4.3v1.3H0c-1.7,0-3,1.3-3,3v7
			c0,0.3,0,0.5,0.1,0.7v6C-3,79.4-3,79.6-3,79.9v7c0,1.7,1.3,3,3,3h4.3v4.2c0,0.1,0,0.1,0,0.1c0,0.1,0,0.1,0,0.1v4.3H0
			c-1.7,0-3,1.3-3,3v7c0,1.7,1.3,3,3,3h4.3v1.5H0c-1.7,0-3,1.3-3,3v7c0,1.7,1.3,3,3,3h4.3v1.5H0c-1.7,0-3,1.3-3,3v7c0,1.7,1.3,3,3,3
			h4.3v1.6H0c-1.7,0-3,1.3-3,3v7c0,1.7,1.3,3,3,3h4.3v1.5H0c-1.7,0-3,1.3-3,3v7c0,1.7,1.3,3,3,3h4.3v1.5H0c-1.7,0-3,1.3-3,3v7
			c0,1.7,1.3,3,3,3h4.3v1.5H0c-1.7,0-3,1.3-3,3v7c0,1.7,1.3,3,3,3h4.3v1.5H0c-1.7,0-3,1.3-3,3v7c0,1.7,1.3,3,3,3h4.3v1.5H0
			c-1.7,0-3,1.3-3,3v7c0,1.7,1.3,3,3,3h4.3v1.6H0c-1.7,0-3,1.3-3,3v7c0,1.7,1.3,3,3,3h4.3v4.2c0,1.7,1.3,3,3,3h4.3v4.3
			c0,1.7,1.3,3,3,3h4.2v4.2c0,1.7,1.3,3,3,3h4.3v4.3c0,1.7,1.3,3,3,3h7c1.7,0,3-1.3,3-3v-4.3h1.5v4.3c0,1.7,1.3,3,3,3h7
			c1.7,0,3-1.3,3-3v-4.3h4.3c0,0,0.1,0,0.1,0c0,0,0.1,0,0.1,0h7c0.1,0,0.1,0,0.1,0c0.1,0,0.1,0,0.1,0h4.2v4.3c0,1.7,1.3,3,3,3h7
			c0.1,0,0.1,0,0.1,0c0.1,0,0.1,0,0.1,0h7c0.1,0,0.1,0,0.2,0c0.1,0,0.1,0,0.2,0h7c1.7,0,3-1.3,3-3v-4.3h4.2c0.1,0,0.1,0,0.2,0
			c0.1,0,0.1,0,0.2,0h4.2v4.3c0,1.7,1.3,3,3,3h7c1.7,0,3-1.3,3-3v-4.3h1.6v4.3c0,1.7,1.3,3,3,3h7c1.7,0,3-1.3,3-3v-4.3h1.5v4.3
			c0,1.7,1.3,3,3,3h7c1.7,0,3-1.3,3-3v-4.3h4.2c0.3,0,0.5,0,0.7-0.1h6.1c0.2,0.1,0.5,0.1,0.7,0.1h4.4v4.1c0,1.7,1.3,3,3,3h7
			c0.1,0,0.1,0,0.1,0c0.1,0,0.1,0,0.1,0h7c0.1,0,0.1,0,0.1,0c0.1,0,0.1,0,0.1,0h7c0,0,0.1,0,0.1,0c0,0,0.1,0,0.1,0h7
			c1.7,0,3-1.3,3-3V264h1.5v4.2c0,1.7,1.3,3,3,3h7c1.7,0,3-1.3,3-3V264h4.3c0.1,0,0.1,0,0.2,0c0.1,0,0.1,0,0.2,0h7c0,0,0.1,0,0.1,0
			c0,0,0.1,0,0.1,0h7c1.7,0,3-1.3,3-3v-4.3h4.2c1.7,0,3-1.3,3-3v-4.2h1.6v4.2c0,1.7,1.3,3,3,3h4.2v4.3c0,1.7,1.3,3,3,3h4.3v4.2
			c0,1.7,1.3,3,3,3h7c0.1,0,0.1,0,0.2,0c0.1,0,0.1,0,0.2,0h7c0,0,0.1,0,0.1,0c0,0,0.1,0,0.1,0h7c0.1,0,0.1,0,0.2,0
			c0.1,0,0.1,0,0.2,0h7c0,0,0.1,0,0.1,0c0,0,0.1,0,0.1,0h7c1.7,0,3-1.3,3-3V264h1.5v4.2c0,1.7,1.3,3,3,3h7c0.1,0,0.1,0,0.2,0
			c0.1,0,0.1,0,0.2,0h7c0.1,0,0.1,0,0.1,0c0.1,0,0.1,0,0.1,0h7c1.7,0,3-1.3,3-3V264h1.5v4.2c0,1.7,1.3,3,3,3h7c0.1,0,0.1,0,0.1,0
			c0.1,0,0.1,0,0.1,0h7c0,0,0.1,0,0.1,0c0,0,0.1,0,0.1,0h7c0.1,0,0.1,0,0.1,0c0.1,0,0.1,0,0.1,0h7c0,0,0.1,0,0.1,0c0,0,0.1,0,0.1,0
			h7c0.1,0,0.1,0,0.1,0c0.1,0,0.1,0,0.1,0h7c1.7,0,3-1.3,3-3V264h4.2c0.1,0,0.1,0,0.1,0c0.1,0,0.1,0,0.1,0h4.3v4.2c0,1.7,1.3,3,3,3
			h7c1.7,0,3-1.3,3-3V264h4.2c0.1,0,0.1,0,0.1,0c0.1,0,0.1,0,0.1,0h4.2v4.2c0,1.7,1.3,3,3,3h7c1.7,0,3-1.3,3-3V264h4.3
			c1.7,0,3-1.3,3-3v-7c0-1.7-1.3-3-3-3H424v-4.3c0-1.7-1.3-3-3-3h-7c-1.7,0-3,1.3-3,3v4.3h-4.2c-0.1,0-0.1,0-0.1,0
			c-0.1,0-0.1,0-0.1,0h-4.2v-1.5h4.2c1.7,0,3-1.3,3-3v-7c0-1.7-1.3-3-3-3h-7c-1.7,0-3,1.3-3,3v4.2h-4.2c-1.7,0-3,1.3-3,3v4.3H385
			c-0.1,0-0.1,0-0.1,0c-0.1,0-0.1,0-0.1,0h-4.2v-4.3c0-1.7-1.3-3-3-3h-7c-1.7,0-3,1.3-3,3v4.3h-4.3c-1.7,0-3,1.3-3,3v4.2H356
			c-0.1,0-0.1,0-0.1,0c-0.1,0-0.1,0-0.1,0h-4.3v-1.5h4.3c1.7,0,3-1.3,3-3v-7c0-1.7-1.3-3-3-3h-7c-1.7,0-3,1.3-3,3v4.3h-4.3
			c-1.7,0-3,1.3-3,3v4.2h-1.5V254c0-1.7-1.3-3-3-3h-7c-1.7,0-3,1.3-3,3v4.2h-1.5V254c0-1.7-1.3-3-3-3h-7c-1.7,0-3,1.3-3,3v4.2h-1.5
			V254c0-1.7-1.3-3-3-3h-7c-1.7,0-3,1.3-3,3v4.2h-1.5V254c0-1.7-1.3-3-3-3h-7c-1.7,0-3,1.3-3,3v4.2h-1.6V254c0-1.7-1.3-3-3-3h-4.2
			v-4.3c0-1.7-1.3-3-3-3h-4.3v-4.2c0-1.7-1.3-3-3-3h-7c-1.7,0-3,1.3-3,3v4.2h-1.5v-4.2c0-1.7-1.3-3-3-3h-7c-1.7,0-3,1.3-3,3v4.2
			h-1.5v-4.2c0-1.7-1.3-3-3-3h-7c-1.7,0-3,1.3-3,3v4.2H218c-1.7,0-3,1.3-3,3v4.3h-1.5v-4.3c0-1.7-1.3-3-3-3h-7c-1.7,0-3,1.3-3,3v4.3
			h-4.3c-1.7,0-3,1.3-3,3v4.2H189c0,0-0.1,0-0.1,0c0,0-0.1,0-0.1,0h-7c-0.1,0-0.1,0-0.1,0c-0.1,0-0.1,0-0.1,0h-7c-0.1,0-0.1,0-0.1,0
			c-0.1,0-0.1,0-0.1,0h-4.4v-4.1c0-1.7-1.3-3-3-3h-6.6c-0.2-0.1-0.5-0.1-0.7-0.1h-7c-0.3,0-0.5,0-0.7,0.1H148v-4.2c0-1.7-1.3-3-3-3
			h-4.3v-1.5h4.3c1.7,0,3-1.3,3-3v-7c0-1.7-1.3-3-3-3h-4.3v-1.6h4.3c1.7,0,3-1.3,3-3v-4.2h4.2c1.7,0,3-1.3,3-3v-7c0-1.7-1.3-3-3-3
			H148v-1.5h4.2c1.7,0,3-1.3,3-3v-4.3h4.3c1.7,0,3-1.3,3-3v-7c0-1.7-1.3-3-3-3h-4.3v-1.5h4.3c1.7,0,3-1.3,3-3v-7c0-1.7-1.3-3-3-3
			h-4.3v-1.5h4.3c1.7,0,3-1.3,3-3v-4.3h4.3c1.7,0,3-1.3,3-3v-7c0-1.7-1.3-3-3-3h-4.3V148h4.3c1.7,0,3-1.3,3-3v-7c0-1.7-1.3-3-3-3
			h-4.3v-1.6h4.3c1.7,0,3-1.3,3-3v-7c0-1.7-1.3-3-3-3h-4.3v-1.5h4.3c1.7,0,3-1.3,3-3v-7c0-1.7-1.3-3-3-3h-4.3v-1.5h4.3
			c1.7,0,3-1.3,3-3v-7c0-1.7-1.3-3-3-3h-4.3v-1.5h4.3c1.7,0,3-1.3,3-3v-4.5h4.4c1.7,0,3-1.3,3-3v-4.2h4.3c0.1,0,0.1,0,0.1,0
			c0.1,0,0.1,0,0.1,0h7c0,0,0.1,0,0.1,0c0,0,0.1,0,0.1,0h7c1.7,0,3-1.3,3-3V68h4.3c0,0,0.1,0,0.1,0c0,0,0.1,0,0.1,0h7
			c0.1,0,0.1,0,0.1,0c0.1,0,0.1,0,0.1,0h7c1.7,0,3-1.3,3-3v-4.3h1.5V65c0,1.7,1.3,3,3,3h7c1.7,0,3-1.3,3-3v-4.3h1.5V65
			c0,1.7,1.3,3,3,3h7c1.7,0,3-1.3,3-3v-4.3h1.5V65c0,1.7,1.3,3,3,3h7c1.7,0,3-1.3,3-3v-4.3h1.5V65c0,1.7,1.3,3,3,3h7
			c0.1,0,0.1,0,0.1,0c0.1,0,0.1,0,0.1,0h4.3v4.2c0,1.7,1.3,3,3,3h4.3v4.3c0,1.7,1.3,3,3,3h7c0,0,0.1,0,0.1,0c0,0,0.1,0,0.1,0h7
			c0.3,0,0.5,0,0.7-0.1h6.5c0.1,0,0.1,0,0.2,0c0.1,0,0.1,0,0.2,0h7c0.1,0,0.1,0,0.1,0c0.1,0,0.1,0,0.1,0h7c1.7,0,3-1.3,3-3v-4.2h4.2
			c0.1,0,0.1,0,0.1,0c0.1,0,0.1,0,0.1,0h7c0,0,0.1,0,0.1,0c0,0,0.1,0,0.1,0h7c0.1,0,0.1,0,0.1,0c0.1,0,0.1,0,0.1,0h7
			c0.1,0,0.1,0,0.1,0c0.1,0,0.1,0,0.1,0h7c0,0,0.1,0,0.1,0c0,0,0.1,0,0.1,0h7c0.1,0,0.1,0,0.1,0c0.1,0,0.1,0,0.1,0h4.2v4.2
			c0,1.7,1.3,3,3,3h7c0.1,0,0.1,0,0.1,0c0.1,0,0.1,0,0.1,0h4.3v4.3c0,1.7,1.3,3,3,3h4.2V94c0,1.7,1.3,3,3,3h4.3v4.2
			c0,0.1,0,0.1,0,0.1c0,0.1,0,0.1,0,0.1v7c0,1.7,1.3,3,3,3h4.2v4.3c0,1.7,1.3,3,3,3h7c0.1,0,0.1,0,0.1,0c0.1,0,0.1,0,0.1,0h7
			c0.1,0,0.1,0,0.1,0c0.1,0,0.1,0,0.1,0h4.2v4.2c0,1.7,1.3,3,3,3h7c0.1,0,0.1,0,0.1,0c0.1,0,0.1,0,0.1,0h4.2v4.3c0,1.7,1.3,3,3,3
			h4.3v1.5h-4.3c-1.7,0-3,1.3-3,3v7c0,1.7,1.3,3,3,3h4.3v4.3c0,1.7,1.3,3,3,3h7c1.7,0,3-1.3,3-3v-4.3h1.5v4.3c0,1.7,1.3,3,3,3h7
			c0.1,0,0.1,0,0.2,0c0.1,0,0.1,0,0.2,0h7c0.1,0,0.1,0,0.1,0c0.1,0,0.1,0,0.1,0h7c0.1,0,0.1,0,0.1,0c0.1,0,0.1,0,0.1,0h4.2v4.2
			c0,1.7,1.3,3,3,3h7c0.1,0,0.1,0,0.1,0c0.1,0,0.1,0,0.1,0h4.2v4.3c0,1.7,1.3,3,3,3h4.3v1.5h-4.3c-1.7,0-3,1.3-3,3v7
			c0,1.7,1.3,3,3,3h4.3v4.3c0,1.7,1.3,3,3,3h7c1.7,0,3-1.3,3-3v-4.3h1.5v4.3c0,0,0,0.1,0,0.1c0,0,0,0.1,0,0.1v7c0,1.7,1.3,3,3,3h4.2
			v4.4c0,0,0,0.1,0,0.1c0,0,0,0.1,0,0.1v7c0,1.7,1.3,3,3,3h4.3v4.3c0,0.1,0,0.1,0,0.1c0,0.1,0,0.1,0,0.1v4h-4.4c-1.7,0-3,1.3-3,3v7
			c0,0.1,0,0.1,0,0.1c0,0.1,0,0.1,0,0.1v7c0,0,0,0.1,0,0.1c0,0,0,0.1,0,0.1v7c0,0,0,0.1,0,0.1c0,0,0,0.1,0,0.1v4.5h-4.2
			c-1.7,0-3,1.3-3,3v4.2H533V254c0-1.7-1.3-3-3-3h-7c-1.7,0-3,1.3-3,3v4.2h-1.5V254c0-1.7-1.3-3-3-3h-7c-1.7,0-3,1.3-3,3v4.2h-1.5
			V254c0-1.7-1.3-3-3-3h-7c-1.7,0-3,1.3-3,3v4.2h-1.5V254c0-1.7-1.3-3-3-3h-7c-1.7,0-3,1.3-3,3v4.2h-1.5V254c0-1.7-1.3-3-3-3h-7
			c-1.7,0-3,1.3-3,3v4.2h-4.3c-0.1,0-0.1,0-0.1,0c-0.1,0-0.1,0-0.1,0h-4.2V254c0-1.7-1.3-3-3-3h-7c-1.7,0-3,1.3-3,3v4.2h-4.3
			c-1.7,0-3,1.3-3,3v7c0,1.7,1.3,3,3,3h7c0.1,0,0.1,0,0.1,0c0.1,0,0.1,0,0.1,0h7c0,0,0.1,0,0.1,0c0,0,0.1,0,0.1,0h7
			c0.1,0,0.1,0,0.1,0c0.1,0,0.1,0,0.1,0h7c1.7,0,3-1.3,3-3V264h1.5v4.2c0,1.7,1.3,3,3,3h7c1.7,0,3-1.3,3-3V264h1.5v4.2
			c0,1.7,1.3,3,3,3h7c1.7,0,3-1.3,3-3V264h1.5v4.2c0,1.7,1.3,3,3,3h7c1.7,0,3-1.3,3-3V264h1.5v4.2c0,1.7,1.3,3,3,3h7
			c1.7,0,3-1.3,3-3V264h1.5v4.2c0,1.7,1.3,3,3,3h7c1.7,0,3-1.3,3-3V264h4.3c1.7,0,3-1.3,3-3v-4.5h4.2c1.7,0,3-1.3,3-3v-7
			c0,0,0-0.1,0-0.1c0,0,0-0.1,0-0.1v-7c0,0,0-0.1,0-0.1c0,0,0-0.1,0-0.1v-7c0-0.1,0-0.1,0-0.1c0-0.1,0-0.1,0-0.1v-4h4.4
			c1.7,0,3-1.3,3-3v-7c0-0.1,0-0.1,0-0.1c0-0.1,0-0.1,0-0.1V210.5z M525.8,178.4v-1.6h1.6v1.6H525.8z M460.3,140.5h1.6v1.6h-1.6
			V140.5z M86.9,258.4h-7c-0.1,0-0.1,0-0.1,0c-0.1,0-0.1,0-0.1,0h-4.2v-4.3c0-1.7-1.3-3-3-3h-4.3v-4.2c0-1.7-1.3-3-3-3h-4.2v-4.3
			c0-1.7-1.3-3-3-3h-4.3v-4.2c0-0.1,0-0.1,0-0.2c0-0.1,0-0.1,0-0.2v-7c0-1.7-1.3-3-3-3h-4.3v-4.3c0-1.7-1.3-3-3-3h-4.2v-4.2
			c0-1.7-1.3-3-3-3h-4.3v-4.3c0,0,0-0.1,0-0.1c0,0,0-0.1,0-0.1v-7c0-1.7-1.3-3-3-3h-4.2v-4.3c0,0,0-0.1,0-0.1c0,0,0-0.1,0-0.1v-7
			c0-0.1,0-0.1,0-0.1c0-0.1,0-0.1,0-0.1v-7c0,0,0-0.1,0-0.1c0,0,0-0.1,0-0.1v-7c0-0.1,0-0.1,0-0.1c0-0.1,0-0.1,0-0.1v-4.3h1.5v4.3
			c0,1.7,1.3,3,3,3h4.2v4.3c0,1.7,1.3,3,3,3h7c1.7,0,3-1.3,3-3v-4.3h4.3c1.7,0,3-1.3,3-3v-7c0-1.7-1.3-3-3-3h-4.3v-4.3
			c0-1.7-1.3-3-3-3h-4.2v-4.2c0-1.7-1.3-3-3-3h-4.3V138c0-1.7-1.3-3-3-3h-7c-1.7,0-3,1.3-3,3v7c0,1.7,1.3,3,3,3h4.3v1.5h-4.3
			c-1.7,0-3,1.3-3,3v4.3h-1.5v-4.3c0,0,0-0.1,0-0.1c0,0,0-0.1,0-0.1v-7c0-0.1,0-0.1,0-0.1c0-0.1,0-0.1,0-0.1v-7c0-0.1,0-0.1,0-0.1
			c0-0.1,0-0.1,0-0.1v-7c0-0.1,0-0.1,0-0.2c0-0.1,0-0.1,0-0.2v-7c0,0,0-0.1,0-0.1c0,0,0-0.1,0-0.1v-7c0-0.1,0-0.1,0-0.2
			c0-0.1,0-0.1,0-0.2v-7c0,0,0-0.1,0-0.1c0,0,0-0.1,0-0.1v-7c0-0.1,0-0.1,0-0.2c0-0.1,0-0.1,0-0.2v-4.3h1.5v4.1c0,0.1,0,0.1,0,0.1
			c0,0.1,0,0.1,0,0.1v7c0,1.7,1.3,3,3,3H26v4.2c0,1.7,1.3,3,3,3h7c0.1,0,0.1,0,0.1,0c0.1,0,0.1,0,0.1,0h7c0.1,0,0.1,0,0.2,0
			c0.1,0,0.1,0,0.2,0h7c0,0,0.1,0,0.1,0c0,0,0.1,0,0.1,0h7c1.7,0,3-1.3,3-3v-7c0,0,0-0.1,0-0.1c0,0,0-0.1,0-0.1v-7
			c0-0.1,0-0.1,0-0.1c0-0.1,0-0.1,0-0.1v-4.1h1.7v4.3c0,0,0,0.1,0,0.1c0,0,0,0.1,0,0.1v7c0,0.1,0,0.1,0,0.1c0,0.1,0,0.1,0,0.1v7
			c0,1.7,1.3,3,3,3h7c1.7,0,3-1.3,3-3v-7c0-0.1,0-0.1,0-0.1c0-0.1,0-0.1,0-0.1v-7c0,0,0-0.1,0-0.1c0,0,0-0.1,0-0.1v-7
			c0-0.1,0-0.1,0-0.1c0-0.1,0-0.1,0-0.1v-7c0-1.7-1.3-3-3-3h-4.3v-4.2c0-1.7-1.3-3-3-3h-4.3v-4.2c0-1.7-1.3-3-3-3h-6.6
			c-0.2-0.1-0.5-0.1-0.7-0.1h-4.3v-4.3c0-1.7-1.3-3-3-3h-7c-0.3,0-0.5,0-0.7,0.1H29c0,0-0.1,0-0.1,0c0,0-0.1,0-0.1,0h-7
			c-1.7,0-3,1.3-3,3v4.2h-4.2c-1.7,0-3,1.3-3,3v4.3h-1.5v-4.2c0-0.3,0-0.5-0.1-0.7v-3.9h4.3c1.7,0,3-1.3,3-3v-4.2h4.3
			c1.7,0,3-1.3,3-3v-4.3h4.2c1.7,0,3-1.3,3-3v-4.2h4.3c1.7,0,3-1.3,3-3v-4.3h4.2c1.7,0,3-1.3,3-3v-4.3h4.3c1.7,0,3-1.3,3-3v-4.2h4.3
			c0,0,0.1,0,0.1,0c0,0,0.1,0,0.1,0h7c0.1,0,0.1,0,0.1,0c0.1,0,0.1,0,0.1,0h7c0,0,0.1,0,0.1,0c0,0,0.1,0,0.1,0h7c0.1,0,0.1,0,0.1,0
			c0.1,0,0.1,0,0.1,0h7c0.1,0,0.1,0,0.2,0c0.1,0,0.1,0,0.2,0h4.2v4.2c0,1.7,1.3,3,3,3h7c0.1,0,0.1,0,0.2,0c0.1,0,0.1,0,0.2,0h4.2
			v4.3c0,1.7,1.3,3,3,3h7c0.1,0,0.1,0,0.2,0c0.1,0,0.1,0,0.2,0h4.3v4.3c0,1.7,1.3,3,3,3h7c0,0,0.1,0,0.1,0c0,0,0.1,0,0.1,0h4.3v4.2
			c0,0.1,0,0.1,0,0.1c0,0.1,0,0.1,0,0.1v7c0,1.7,1.3,3,3,3h4.2v4.2c0,1.7,1.3,3,3,3h4.3v4.2c0,0.1,0,0.1,0,0.2c0,0.1,0,0.1,0,0.2v4
			H148v-4c0-1.7-1.3-3-3-3h-4.3v-4.2c0-1.7-1.3-3-3-3h-7c0,0-0.1,0-0.1,0c0,0-0.1,0-0.1,0h-7c-0.1,0-0.1,0-0.1,0c-0.1,0-0.1,0-0.1,0
			h-7c-1.7,0-3,1.3-3,3v4.2h-4.3c0,0-0.1,0-0.1,0c0,0-0.1,0-0.1,0h-7c-1.7,0-3,1.3-3,3v4.3h-4.3c-1.7,0-3,1.3-3,3v4.2h-4.2
			c-1.7,0-3,1.3-3,3v7c0,0.1,0,0.1,0,0.1c0,0.1,0,0.1,0,0.1v6.5c-0.1,0.2-0.1,0.5-0.1,0.7v7c0,1.7,1.3,3,3,3h7c1.7,0,3-1.3,3-3v-6.5
			c0.1-0.2,0.1-0.5,0.1-0.7v-4.3h1.5v4.3c0,0.1,0,0.1,0,0.2c0,0.1,0,0.1,0,0.2v7c0,0,0,0.1,0,0.1c0,0,0,0.1,0,0.1v7c0,1.7,1.3,3,3,3
			h7c0.1,0,0.1,0,0.1,0c0.1,0,0.1,0,0.1,0h7c0,0,0.1,0,0.1,0c0,0,0.1,0,0.1,0h7c0.3,0,0.5,0,0.7-0.1h6.6c1.7,0,3-1.3,3-3v-4.1h4.2
			c1.7,0,3-1.3,3-3v-7c0-0.1,0-0.1,0-0.2c0-0.1,0-0.1,0-0.2v-4.3h4.3c1.7,0,3-1.3,3-3v-4.5h1.5v4.5c0,0.1,0,0.1,0,0.1
			c0,0.1,0,0.1,0,0.1v7c0,0.1,0,0.1,0,0.2c0,0.1,0,0.1,0,0.2v7c0,0,0,0.1,0,0.1c0,0,0,0.1,0,0.1v7c0,0.1,0,0.1,0,0.2
			c0,0.1,0,0.1,0,0.2v7c0,0,0,0.1,0,0.1c0,0,0,0.1,0,0.1v7c0,0.1,0,0.1,0,0.2c0,0.1,0,0.1,0,0.2v7c0,0.1,0,0.1,0,0.1
			c0,0.1,0,0.1,0,0.1v4.3H148V138c0-1.7-1.3-3-3-3h-4.3v-4.3c0-1.7-1.3-3-3-3h-7c-1.7,0-3,1.3-3,3v4.3h-4.2c-1.7,0-3,1.3-3,3v4.3
			h-4.3c-1.7,0-3,1.3-3,3v7c0,1.7,1.3,3,3,3h4.3v1.5h-4.3c-1.7,0-3,1.3-3,3v7c0,1.7,1.3,3,3,3h7c1.7,0,3-1.3,3-3v-4.3h1.5v4.3
			c0,1.7,1.3,3,3,3h7c1.7,0,3-1.3,3-3v-4.3h1.5v4.3c0,0.1,0,0.1,0,0.1c0,0.1,0,0.1,0,0.1v4.2H138c-1.7,0-3,1.3-3,3v7
			c0,0.1,0,0.1,0,0.1c0,0.1,0,0.1,0,0.1v7c0,0,0,0.1,0,0.1c0,0,0,0.1,0,0.1v4.3h-4.3c-1.7,0-3,1.3-3,3v7c0,0,0,0.1,0,0.1
			c0,0,0,0.1,0,0.1v4.3h-4.2c-1.7,0-3,1.3-3,3v7c0,0,0,0.1,0,0.1c0,0,0,0.1,0,0.1v4.3h-4.3c-1.7,0-3,1.3-3,3v4.3h-4.3
			c-1.7,0-3,1.3-3,3v7c0,0,0,0.1,0,0.1c0,0,0,0.1,0,0.1v4.3h-4.2c-1.7,0-3,1.3-3,3v4.2h-4.3c-1.7,0-3,1.3-3,3v4.3h-4.2
			c-0.1,0-0.1,0-0.2,0C87,258.4,87,258.4,86.9,258.4z M138,214.8c-1.7,0-3,1.3-3,3v4.3h-1.5v-4.3c0,0,0-0.1,0-0.1c0,0,0-0.1,0-0.1
			v-4.3h4.2c0.1,0,0.1,0,0.1,0c0.1,0,0.1,0,0.1,0h4.2v1.5H138z M39.1,251.1v-1.5h1.5v1.5H39.1z M17.3,243.9v-1.5h1.5v1.5H17.3z
			 M31.8,243.9v-1.5h1.5v1.5H31.8z M24.6,236.6v-1.5h1.5v1.5H24.6z M40.6,236.6h-1.5v-1.5h1.5V236.6z M26.1,222.1h-1.5v-1.5h1.5
			V222.1z M33.3,229.4h-1.5v-1.6h1.5V229.4z M18.8,213.3v1.5h-1.5v-1.5H18.8z M18.8,227.8v1.6h-1.5v-1.6H18.8z M18.8,200.3h-1.5
			v-1.5h1.5V200.3z M21.6,82.6C21.6,82.6,21.7,82.6,21.6,82.6c0.1,0,0.2,0,0.2,0h7c0.1,0,0.1,0,0.2,0c0.1,0,0.1,0,0.2,0h7
			c0,0,0.1,0,0.1,0c0,0,0.1,0,0.1,0h7c0.1,0,0.1,0,0.2,0c0.1,0,0.1,0,0.2,0h4.3v1.5h-4.3c-0.1,0-0.1,0-0.2,0c-0.1,0-0.1,0-0.2,0h-7
			c0,0-0.1,0-0.1,0c0,0-0.1,0-0.1,0h-7c-0.1,0-0.1,0-0.2,0c-0.1,0-0.1,0-0.2,0h-7c-0.1,0-0.1,0-0.1,0c-0.1,0-0.1,0-0.1,0h-4.2v-1.5
			H21.6z M46.3,105.7v-1.5h1.5v1.5H46.3z M31.8,105.7v-1.5h1.5v1.5H31.8z M53.6,91.2v-1.3h1.6v1.3H53.6z M11.6,162.5v1.6H10v-1.6
			H11.6z M11.6,177.1v1.5H10v-1.5H11.6z M11.6,191.6v1.5H10v-1.5H11.6z M11.6,206.1v1.5H10v-1.5H11.6z M11.6,220.6v1.5H10v-1.5H11.6
			z M11.6,235.1v1.5H10v-1.5H11.6z M24.6,249.6h1.5v1.5h-1.5V249.6z M31.8,258.4v-1.5h1.5v1.5H31.8z M46.3,258.4v-1.5h1.6v1.5H46.3z
			 M39.1,162.5h1.5v1.6h-1.5V162.5z M33.3,156.8h-1.5v-1.5h1.5V156.8z M162.5,76.9v-1.5h1.7v1.5H162.5z M111.7,24.6h1.5v1.5h-1.5
			V24.6z M127.7,24.6v1.5h-1.5v-1.5H127.7z M142.2,39.1v1.5h-1.5v-1.5H142.2z M155.2,55.1v-1.5h1.6v1.5H155.2z M149.5,47.9H148v-1.5
			h1.5V47.9z M135,33.4h-1.5v-1.6h1.5V33.4z M120.5,18.8h-1.6v-1.5h1.6V18.8z M105.9,18.8h-1.5v-1.5h1.5V18.8z M98.7,10v1.6h-1.5V10
			H98.7z M84.2,10v1.6h-1.6V10H84.2z M69.6,10v1.6h-1.5V10H69.6z M39.1,26.1v-1.5h1.5v1.5H39.1z M24.6,40.6v-1.5h1.5v1.5H24.6z
			 M17.3,47.9v-1.5h1.5v1.5H17.3z M31.8,33.4v-1.6h1.5v1.6H31.8z M46.3,18.8v-1.5h1.6v1.5H46.3z M55.1,10v1.6h-1.5V10H55.1z
			 M11.6,53.6v1.5H10v-1.5H11.6z M111.7,105.9v-1.5h1.5v1.5H111.7z M104.4,89.9h1.5v1.5h-1.5V89.9z M126.2,105.8v-1.4h1.5v1.4H126.2
			z M138,84.1c-0.1,0-0.1,0-0.1,0c-0.1,0-0.1,0-0.1,0h-7c0,0-0.1,0-0.1,0c0,0-0.1,0-0.1,0h-7c-0.1,0-0.1,0-0.1,0c-0.1,0-0.1,0-0.1,0
			h-7c-0.1,0-0.1,0-0.2,0c-0.1,0-0.1,0-0.2,0h-4.2v-1.5h4.2c0.1,0,0.1,0,0.2,0c0.1,0,0.1,0,0.2,0h7c0.1,0,0.1,0,0.1,0
			c0.1,0,0.1,0,0.1,0h7c0,0,0.1,0,0.1,0c0,0,0.1,0,0.1,0h7c0.1,0,0.1,0,0.1,0c0.1,0,0.1,0,0.1,0h4.2v1.5H138z M120.5,235.1v1.5h-1.6
			v-1.5H120.5z M127.7,227.8v1.6h-1.5v-1.6H127.7z M126.2,243.9v-1.5h1.5v1.5H126.2z M140.7,148h1.5v1.5h-1.5V148z M135,142.3h-1.5
			v-1.6h1.5V142.3z M127.7,148v1.5h-1.5V148H127.7z M133.5,156.8v-1.5h1.5v1.5H133.5z M111.7,254C111.7,254,111.7,253.9,111.7,254
			l0-4.4h4.2c0.1,0,0.1,0,0.2,0c0.1,0,0.1,0,0.2,0h4.3v1.5h-4.3c-1.7,0-3,1.3-3,3v4.3h-1.5L111.7,254
			C111.7,254.1,111.7,254,111.7,254z M126.2,258.4v-1.5h1.5v1.5H126.2z M140.7,258.4v-1.5h1.5v1.5H140.7z M135,251.1h-1.5v-1.5h1.5
			V251.1z M133.5,236.6v-1.5h1.5v1.5H133.5z M140.7,200.3v-1.5h1.5v1.5H140.7z M148,193.1v-1.5h1.5v1.5H148z M148,178.6v-1.5h1.5
			v1.5H148z M155.2,156.8v-1.5h1.6v1.5H155.2z M229.5,249.5v1.5H228v-1.5H229.5z M207.8,256.7v1.5h-1.6v-1.5H207.8z M265.8,258.2
			h-1.5v-1.5h1.5V258.2z M258.6,249.5v1.5h-1.5v-1.5H258.6z M374.7,256.7v1.5h-1.5v-1.5H374.7z M396.5,256.7v1.5H395v-1.5H396.5z
			 M418.3,256.7v1.5h-1.5v-1.5H418.3z"/>
	</g>
</g>
<g id="Слой_1">
	<path class="st1" d="M167.2,261.2h7v7h-7V261.2z M167.2,72.4h7v7h-7V72.4z M159.8,254.1h7v7h-7V254.1z M174.5,65.2h7v7h-7V65.2z
		 M181.8,87h7v7h-7V87z M181.8,94.3h7v7h-7V94.3z M181.8,101.5h7v7h-7V101.5z M181.8,108.8h7v7h-7V108.8z M181.8,116.1h7v7h-7V116.1
		z M189,79.8h7v7h-7V79.8z M189,123.3h7v7h-7V123.3z M196.3,79.8h7v7h-7V79.8z M196.3,123.3h7v7h-7V123.3z M203.6,87h7v7h-7V87z
		 M203.6,94.3h7v7h-7V94.3z M203.6,101.5h7v7h-7V101.5z M203.6,108.8h7v7h-7V108.8z M203.6,116.1h7v7h-7V116.1z M218.1,108.8h7v7h-7
		V108.8z M218.1,116.1h7v7h-7V116.1z M218.1,123.3h7v7h-7V123.3z M225.3,94.3h7v7h-7V94.3z M225.3,101.5h7v7h-7V101.5z M232.6,87h7
		v7h-7V87z M239.9,79.8h7v7h-7V79.8z M239.9,87h7v7h-7V87z M239.9,94.3h7v7h-7V94.3z M239.9,101.5h7v7h-7V101.5z M239.9,108.8h7v7
		h-7V108.8z M239.9,116.1h7v7h-7V116.1z M239.9,123.3h7v7h-7V123.3z M261.6,79.8h7v7h-7V79.8z M261.6,101.5h7v7h-7V101.5z
		 M261.6,108.8h7v7h-7V108.8z M254.4,87h7v7h-7V87z M254.4,94.3h7v7h-7V94.3z M254.4,116.1h7v7h-7V116.1z M254.4,123.3h7v7h-7V123.3
		z M268.9,79.8h7v7h-7V79.8z M268.9,101.5h7v7h-7V101.5z M276.2,79.8h7v7h-7V79.8z M276.2,87h7v7h-7V87z M276.2,94.3h7v7h-7V94.3z
		 M276.2,101.5h7v7h-7V101.5z M276.2,108.8h7v7h-7V108.8z M276.2,116.1h7v7h-7V116.1z M276.2,123.3h7v7h-7V123.3z M290.7,72.5h7v7
		h-7V72.5z M297.9,72.5h7v7h-7V72.5z M297.9,94.3h7v7h-7V94.3z M297.9,101.5h7v7h-7V101.5z M297.9,108.8h7v7h-7V108.8z M297.9,116.1
		h7v7h-7V116.1z M305.2,123.3h7v7h-7V123.3z M312.5,123.3h7v7h-7V123.3z M319.7,94.3h7v7h-7V94.3z M319.7,101.5h7v7h-7V101.5z
		 M319.7,108.8h7v7h-7V108.8z M319.7,116.1h7v7h-7V116.1z M334.2,116.1h7v7h-7V116.1z M341.5,94.3h7v7h-7V94.3z M341.5,108.8h7v7h-7
		V108.8z M341.5,123.3h7v7h-7V123.3z M348.8,94.3h7v7h-7V94.3z M348.8,108.8h7v7h-7V108.8z M348.8,123.3h7v7h-7V123.3z M356,101.5h7
		v7h-7V101.5z M356,108.8h7v7h-7V108.8z M356,116.1h7v7h-7V116.1z M363.3,123.3h7v7h-7V123.3z M181.8,65.2h7v7h-7V65.2z
		 M174.5,261.2h7v7h-7V261.2z M181.8,261.2h7v7h-7V261.2z M189,65.2h7v7h-7V65.2z M189,261.2h7v7h-7V261.2z M196.2,254h7v7h-7V254z
		 M203.5,246.7h7v7h-7V246.7z M203.5,261.2h7v7h-7V261.2z M210.8,254h7v7h-7V254z M218.1,254h7v7h-7V254z M218,246.7h7v7h-7V246.7z
		 M225.3,239.5h7v7h-7V239.5z M225.3,254h7v7h-7V254z M232.5,246.7h7v7h-7V246.7z M152.5,254h7v7h-7V254z M239.8,239.5h7v7h-7V239.5
		z M247.1,246.7h7v7h-7V246.7z M254.3,239.5h7v7h-7L254.3,239.5L254.3,239.5z M254.3,254h7v7h-7L254.3,254L254.3,254z M261.6,246.7
		h7v7h-7V246.7z M261.6,261.2h7v7h-7V261.2z M268.9,261.2h7v7h-7V261.2z M268.8,254h7v7h-7V254z M276.1,261.2h7v7h-7V261.2z
		 M283.4,261.2h7v7h-7V261.2z M283.4,65.2h7v7h-7V65.2z M283.4,254h7v7h-7V254z M290.6,65.2h7v7h-7V65.2z M196.3,58h7v7h-7V58z
		 M203.5,58h7v7h-7V58z M210.8,58h7v7h-7V58z M225.3,58h7v7h-7V58z M239.8,58h7v7h-7V58z M254.3,58h7v7h-7L254.3,58L254.3,58z
		 M268.8,58h7v7h-7V58z M276.1,58h7v7h-7V58z M218,50.7h7v7h-7V50.7z M225.3,50.7h7v7h-7V50.7z M232.5,50.7h7v7h-7V50.7z
		 M239.8,50.7h7v7h-7V50.7z M247,50.7h7v7h-7V50.7z M254.3,50.7h7v7h-7L254.3,50.7L254.3,50.7z M261.6,50.7h7v7h-7V50.7z
		 M290.6,261.2h7v7h-7V261.2z M297.9,65.2h7v7h-7V65.2z M297.9,254h7v7h-7V254z M305.1,72.4h7v7h-7V72.4z M305.1,261.2h7v7h-7V261.2
		z M312.4,261.2h7v7h-7V261.2z M312.4,72.4h7v7h-7V72.4z M312.4,254h7v7h-7V254z M319.7,72.4h7v7h-7V72.4z M319.7,261.2h7v7h-7
		V261.2z M326.9,65.2h7v7h-7V65.2z M326.9,254h7v7h-7V254z M334.2,65.2h7v7h-7V65.2z M334.2,261.2h7v7h-7V261.2z M341.5,261.2h7v7
		h-7V261.2z M341.4,65.2h7v7h-7V65.2z M341.4,254h7v7h-7V254z M348.7,65.2h7v7h-7V65.2z M348.7,246.7h7v7h-7V246.7z M348.7,261.2h7
		v7h-7V261.2z M356,261.2h7v7h-7V261.2z M363.2,261.2h7v7h-7V261.2z M356,65.2h7v7h-7V65.2z M363.2,65.2h7v7h-7V65.2z M363.2,254h7
		v7h-7V254z M370.5,65.2h7v7h-7V65.2z M370.5,246.7h7v7h-7V246.7z M370.5,261.2h7v7h-7V261.2z M377.7,72.4h7v7h-7V72.4z M377.7,254
		h7v7h-7V254z M385,72.4h7v7h-7V72.4z M385,254h7v7h-7V254z M392.3,79.7h7v7h-7V79.7z M392.3,246.7h7v7h-7V246.7z M392.3,261.2h7v7
		h-7V261.2z M399.5,87h7v7h-7V87z M399.5,239.5h7v7h-7V239.5z M399.5,254h7v7h-7V254z M406.8,94.2h7v7h-7V94.2z M406.8,101.5h7v7h-7
		V101.5z M406.8,254h7v7h-7V254z M414,108.8h7v7h-7V108.8z M414,246.7h7v7h-7V246.7z M414,261.2h7v7h-7V261.2z M421.3,108.8h7v7h-7
		V108.8z M421.3,254h7v7h-7V254z M428.6,108.8h7v7h-7V108.8z M435.8,108.8h7v7h-7V108.8z M435.8,116h7v7h-7V116z M435.8,261.2h7v7
		h-7V261.2z M443.1,261.2h7v7h-7V261.2z M443.1,116h7v7h-7V116z M443.1,254h7v7h-7V254z M450.3,123.3h7v7h-7V123.3z M450.3,137.8h7
		v7h-7V137.8z M450.3,261.2h7v7h-7V261.2z M457.6,130.5h7v7h-7V130.5z M457.6,145.1h7v7h-7V145.1z M457.6,261.2h7v7h-7V261.2z
		 M464.9,137.8h7v7h-7V137.8z M464.9,254h7v7h-7V254z M472.1,261.2h7v7h-7V261.2z M479.4,254h7v7h-7V254z M486.6,261.2h7v7h-7V261.2
		z M493.9,254h7v7h-7V254z M501.2,261.2h7v7h-7V261.2z M508.5,254h7v7h-7V254z M515.7,261.2h7v7h-7V261.2z M523,254h7v7h-7V254z
		 M530.2,261.2h7v7h-7V261.2z M537.5,254h7v7h-7V254z M472.1,145.1h7v7h-7V145.1z M544.7,239.2h7v7h-7V239.2z M544.7,232.1h7v7h-7
		V232.1z M544.7,224.8h7v7h-7V224.8z M544.7,246.5h7v7h-7V246.5z M36.3,14.3h7v-7h-7V14.3z M0,58.1h7v-7H0V58.1z M0,72.4h7v-7H0
		V72.4z M7.3,50.6h7v-7h-7V50.6z M29,72.4h7v-7h-7V72.4z M14.6,43.4h7v-7h-7V43.4z M14.6,57.9h7v-7h-7V57.9z M7.3,65.1h7v-7h-7V65.1
		z M21.8,36.1h7v-7h-7V36.1z M21.8,50.6h7v-7h-7V50.6z M21.8,72.4h7v-7h-7V72.4z M29.1,21.6h7v-7h-7C29.1,14.6,29.1,21.6,29.1,21.6z
		 M29.1,28.8h7v-7h-7C29.1,21.8,29.1,28.8,29.1,28.8z M29.1,43.4h7v-7h-7C29.1,36.4,29.1,43.4,29.1,43.4z M36.3,21.6h7v-7h-7V21.6z
		 M36.3,36.1h7v-7h-7V36.1z M43.6,14.3h7v-7h-7V14.3z M50.9,7h7V0h-7V7z M58.1,14.3h7v-7h-7V14.3z M65.4,7h7V0h-7V7z M72.6,14.3h7
		v-7h-7V14.3z M79.9,7h7V0h-7V7z M87.2,14.3h7v-7h-7V14.3z M94.4,7h7V0h-7V7z M101.7,14.3h7v-7h-7V14.3z M43.6,28.8h7v-7h-7V28.8z
		 M50.9,21.6h7v-7h-7V21.6z M58.1,21.6h7v-7h-7V21.6z M65.4,21.6h7v-7h-7V21.6z M72.6,21.6h7v-7h-7V21.6z M79.9,21.6h7v-7h-7V21.6z
		 M87.2,21.6h7v-7h-7V21.6z M94.4,21.6h7v-7h-7V21.6z M94.4,28.8h7v-7h-7V28.8z M101.7,28.8h7v-7h-7V28.8z M108.9,21.6h7v-7h-7V21.6
		z M108.9,36.1h7v-7h-7V36.1z M116.2,14.3h7v-7h-7V14.3z M116.2,28.8h7v-7h-7V28.8z M116.2,36.1h7v-7h-7V36.1z M116.2,72.4h7v-7h-7
		V72.4z M123.5,21.6h7v-7h-7V21.6z M123.5,36.1h7v-7h-7V36.1z M123.5,43.4h7v-7h-7V43.4z M123.5,72.4h7v-7h-7V72.4z M130.7,28.8h7
		v-7h-7V28.8z M130.7,43.4h7v-7h-7V43.4z M130.7,72.4h7v-7h-7V72.4z M138,36.1h7v-7h-7V36.1z M138,50.6h7v-7h-7V50.6z M138,57.9h7
		v-7h-7V57.9z M145.2,43.4h7v-7h-7V43.4z M145.2,57.9h7v-7h-7V57.9z M145.2,65.1h7v-7h-7V65.1z M152.5,50.6h7v-7h-7V50.6z
		 M152.5,65.1h7v-7h-7V65.1z M159.8,57.9h7v-7h-7V57.9z M159.8,72.4h7v-7h-7V72.4z M7.3,86.9h7v-7h-7V86.9z M14.6,79.6h7v-7h-7V79.6
		z M21.8,79.6h7v-7h-7V79.6z M29.1,79.6h7v-7h-7C29.1,72.6,29.1,79.6,29.1,79.6z M36.3,79.6h7v-7h-7V79.6z M0,86.9h7v-7H0V86.9z
		 M0.1,79.7h7v-7h-7C0.1,72.7,0.1,79.7,0.1,79.7z M0,108.7h7v-7H0V108.7z M0,123.2h7v-7H0V123.2z M0,137.7h7v-7H0V137.7z M7.3,94.1
		h7v-7h-7V94.1z M7.3,101.4h7v-7h-7V101.4z M7.3,108.7h7v-7h-7V108.7z M7.3,115.9h7v-7h-7V115.9z M7.3,123.2h7v-7h-7V123.2z
		 M7.3,130.4h7v-7h-7V130.4z M7.3,137.7h7v-7h-7V137.7z M14.5,94.1h7v-7h-7V94.1z M21.8,94.1h7v-7h-7V94.1z M29.1,94.1h7v-7h-7
		C29.1,87.1,29.1,94.1,29.1,94.1z M21.8,101.2h7v-7h-7V101.2z M21.8,108.5h7v-7h-7V108.5z M36.3,94.1h7v-7h-7V94.1z M29,101.2h7v-7
		h-7V101.2z M29,115.7h7v-7h-7V115.7z M43.6,79.6h7v-7h-7V79.6z M101.7,79.6h7v-7h-7V79.6z M108.9,79.6h7v-7h-7V79.6z M36.3,72.3h7
		v-7h-7V72.3z M36.3,101.2h7v-7h-7V101.2z M36.3,108.5h7v-7h-7V108.5z M36.3,115.7h7v-7h-7V115.7z M58.2,86.9h7v-7h-7
		C58.2,79.9,58.2,86.9,58.2,86.9z M43.6,101.2h7v-7h-7V101.2z M43.6,115.7h7v-7h-7V115.7z M50.9,86.9h7v-7h-7V86.9z M58.2,94.1h7v-7
		h-7C58.2,87.1,58.2,94.1,58.2,94.1z M50.8,108.5h7v-7h-7V108.5z M50.8,115.7h7v-7h-7V115.7z M65.5,101.4h7v-7h-7V101.4z
		 M65.5,108.6h7v-7h-7V108.6z M50.8,101.2h7v-7h-7V101.2z M65.4,130.4h7v-7h-7V130.4z M87.1,122.9h7v-7h-7V122.9z M87.2,137.6h7v-7
		h-7V137.6z M87.2,94.1h7v-7h-7V94.1z M87.2,101.4h7v-7h-7V101.4z M87.1,108.6h7v-7h-7V108.6z M94.4,86.9h7v-7h-7V86.9z M94.4,94.1
		h7v-7h-7V94.1z M101.7,108.7h7v-7h-7V108.7z M101.7,86.9h7v-7h-7V86.9z M101.7,101.4h7v-7h-7V101.4z M116.2,108.6h7v-7h-7V108.6z
		 M108.9,94.1h7v-7h-7V94.1z M108.9,101.4h7v-7h-7V101.4z M116.2,115.9h7v-7h-7V115.9z M116.2,79.6h7v-7h-7V79.6z M123.5,79.6h7v-7
		h-7V79.6z M130.7,79.6h7v-7h-7V79.6z M138,79.6h7v-7h-7V79.6z M152.5,79.6h7v-7h-7V79.6z M152.5,72.3h7v-7h-7V72.3z M116.2,94.1h7
		v-7h-7V94.1z M116.2,101.4h7v-7h-7V101.4z M123.5,115.8h7v-7h-7V115.8z M123.5,94.1h7v-7h-7V94.1z M123.5,101.4h7v-7h-7V101.4z
		 M130.7,108.7h7v-7h-7V108.7z M130.7,94.1h7v-7h-7V94.1z M130.7,101.4h7v-7h-7V101.4z M130.7,137.7h7v-7h-7V137.7z M138,94.1h7v-7
		h-7V94.1z M152.5,94.1h7v-7h-7V94.1z M152.5,86.8h7v-7h-7V86.8z M152.5,108.7h7v-7h-7V108.7z M152.5,101.4h7v-7h-7V101.4z
		 M152.5,123.2h7v-7h-7V123.2z M152.5,115.9h7v-7h-7V115.9z M152.5,137.7h7v-7h-7V137.7z M159.8,86.9h7v-7h-7V86.9z M159.8,101.4h7
		v-7h-7V101.4z M159.8,115.9h7v-7h-7V115.9z M159.8,130.4h7v-7h-7V130.4z M152.5,130.4h7v-7h-7V130.4z M7.3,145h7v-7h-7V145z
		 M21.8,145h7v-7h-7V145z M0,152.3h7v-7H0V152.3z M0,166.8h7v-7H0V166.8z M0,181.3h7v-7H0V181.3z M0,195.8h7v-7H0V195.8z M7.3,152.3
		h7v-7h-7V152.3z M7.3,159.5h7v-7h-7V159.5z M7.3,174.1h7v-7h-7V174.1z M7.3,188.6h7v-7h-7V188.6z M7.3,203.1h7v-7h-7V203.1z
		 M14.6,166.8h7v-7h-7V166.8z M14.6,174.1h7v-7h-7V174.1z M14.6,181.3h7v-7h-7V181.3z M14.6,188.6h7v-7h-7V188.6z M14.6,195.8h7v-7
		h-7V195.8z M21.8,159.5h7v-7h-7V159.5z M21.8,203.1h7v-7h-7V203.1z M29.1,152.3h7v-7h-7C29.1,145.3,29.1,152.3,29.1,152.3z
		 M29.1,166.8h7v-7h-7C29.1,159.8,29.1,166.8,29.1,166.8z M36.3,159.5h7v-7h-7V159.5z M36.3,174.1h7v-7h-7V174.1z M65.4,145h7v-7h-7
		V145z M43.6,166.8h7v-7h-7V166.8z M58.1,166.8h7v-7h-7V166.8z M58.1,174.1h7v-7h-7V174.1z M58.1,203.1h7v-7h-7V203.1z M65.4,159.5
		h7v-7h-7V159.5z M65.4,174.1h7v-7h-7V174.1z M65.4,203.1h7v-7h-7V203.1z M72.6,181.3h7v-7h-7V181.3z M72.6,203.1h7v-7h-7V203.1z
		 M79.9,181.3h7v-7h-7V181.3z M79.9,203.1h7v-7h-7V203.1z M87.2,152.3h7v-7h-7V152.3z M87.2,159.5h7v-7h-7V159.5z M87.2,174.1h7v-7
		h-7V174.1z M87.2,203.1h7v-7h-7V203.1z M94.4,166.8h7v-7h-7V166.8z M94.4,174.1h7v-7h-7V174.1z M94.4,203.1h7v-7h-7V203.1z
		 M123.5,145h7v-7h-7V145z M138,145h7v-7h-7V145z M109,115.9h7v-7h-7V115.9z M159.8,145h7v-7h-7V145z M116.2,152.3h7v-7h-7V152.3z
		 M116.2,166.8h7v-7h-7V166.8z M123.5,159.5h7v-7h-7V159.5z M130.7,152.3h7v-7h-7V152.3z M130.7,166.8h7v-7h-7V166.8z M130.7,203.1
		h7v-7h-7V203.1z M138,159.5h7v-7h-7V159.5z M138,181.3h7v-7h-7V181.3z M138,188.6h7v-7h-7V188.6z M138,195.8h7v-7h-7V195.8z
		 M145.2,152.3h7v-7h-7V152.3z M145.2,159.5h7v-7h-7V159.5z M145.2,166.8h7v-7h-7V166.8z M145.2,174.1h7v-7h-7V174.1z M145.2,188.6
		h7v-7h-7V188.6z M145.2,203.1h7v-7h-7V203.1z M152.5,152.3h7v-7h-7V152.3z M152.5,166.8h7v-7h-7V166.8z M152.5,181.3h7v-7h-7V181.3
		z M152.5,195.8h7v-7h-7V195.8z M159.8,159.5h7v-7h-7V159.5z M152.5,145h7v-7h-7V145z M0,210.3h7v-7H0V210.3z M14.6,210.3h7v-7h-7
		V210.3z M21.8,210.3h7v-7h-7V210.3z M0,224.8h7v-7H0V224.8z M0,239.4h7v-7H0V239.4z M7.3,217.6h7v-7h-7V217.6z M7.3,232.1h7v-7h-7
		V232.1z M7.3,246.6h7v-7h-7V246.6z M14.6,224.8h7v-7h-7V224.8z M14.6,239.4h7v-7h-7V239.4z M14.6,253.9h7v-7h-7V253.9z M21.8,217.6
		h7v-7h-7V217.6z M21.8,232.1h7v-7h-7V232.1z M21.8,246.6h7v-7h-7V246.6z M21.8,261.1h7v-7h-7V261.1z M29.1,217.6h7v-7h-7
		C29.1,210.6,29.1,217.6,29.1,217.6z M29.1,224.8h7v-7h-7C29.1,217.8,29.1,224.8,29.1,224.8z M29.1,239.4h7v-7h-7
		C29.1,232.4,29.1,239.4,29.1,239.4z M29.1,253.9h7v-7h-7C29.1,246.9,29.1,253.9,29.1,253.9z M29.1,268.4h7v-7h-7
		C29.1,261.4,29.1,268.4,29.1,268.4z M36.3,224.8h7v-7h-7V224.8z M36.3,232.1h7v-7h-7V232.1z M36.3,246.6h7v-7h-7V246.6z
		 M36.3,261.1h7v-7h-7V261.1z M50.9,210.3h7v-7h-7V210.3z M58.1,210.3h7v-7h-7V210.3z M65.4,210.3h7v-7h-7V210.3z M72.6,210.3h7v-7
		h-7V210.3z M79.9,210.3h7v-7h-7V210.3z M87.2,210.3h7v-7h-7V210.3z M94.4,210.3h7v-7h-7V210.3z M101.7,210.3h7v-7h-7V210.3z
		 M43.6,232.1h7v-7h-7V232.1z M43.6,239.4h7v-7h-7V239.4z M43.6,246.6h7v-7h-7V246.6z M43.6,253.9h7v-7h-7V253.9z M43.6,268.4h7v-7
		h-7V268.4z M50.9,246.6h7v-7h-7V246.6z M50.9,253.9h7v-7h-7V253.9z M50.9,261.1h7v-7h-7V261.1z M58.1,217.6h7v-7h-7V217.6z
		 M58.1,253.9h7v-7h-7V253.9z M58.1,261.1h7v-7h-7V261.1z M65.4,217.6h7v-7h-7V217.6z M65.4,224.8h7v-7h-7V224.8z M65.4,261.1h7v-7
		h-7V261.1z M72.6,217.6h7v-7h-7V217.6z M72.6,224.8h7v-7h-7V224.8z M72.6,268.4h7v-7h-7V268.4z M79.9,217.6h7v-7h-7V217.6z
		 M79.9,224.8h7v-7h-7V224.8z M79.9,268.4h7v-7h-7V268.4z M87.2,217.6h7v-7h-7V217.6z M87.2,224.8h7v-7h-7V224.8z M87.2,268.4h7v-7
		h-7V268.4z M94.4,217.6h7v-7h-7V217.6z M94.4,261.1h7v-7h-7V261.1z M101.7,253.9h7v-7h-7V253.9z M101.7,261.1h7v-7h-7V261.1z
		 M108.9,239.4h7v-7h-7V239.4z M108.9,246.6h7v-7h-7V246.6z M108.9,268.4h7v-7h-7V268.4z M130.7,210.3h7v-7h-7V210.3z M138,210.3h7
		v-7h-7V210.3z M116.2,232.1h7v-7h-7V232.1z M116.2,246.6h7v-7h-7V246.6z M116.2,261.1h7v-7h-7V261.1z M123.5,217.6h7v-7h-7V217.6z
		 M123.5,224.8h7v-7h-7V224.8z M123.5,239.4h7v-7h-7V239.4z M123.5,253.9h7v-7h-7V253.9z M123.5,268.4h7v-7h-7V268.4z M130.7,232.1
		h7v-7h-7V232.1z M130.7,246.6h7v-7h-7V246.6z M130.7,261.1h7v-7h-7V261.1z M138,224.8h7v-7h-7V224.8z M138,239.4h7v-7h-7V239.4z
		 M138,253.9h7v-7h-7V253.9z M138,268.4h7v-7h-7V268.4z M145.2,217.6h7v-7h-7V217.6z M145.2,261.1h7v-7h-7V261.1z M101.7,115.9h7v-7
		h-7V115.9z M65.5,94.1h7v-7h-7V94.1z M21.8,28.8h7v-7h-7V28.8z M14.6,36.1h7v-7h-7V36.1z M7.3,43.4h7v-7h-7V43.4z M50.9,79.7h7v-7
		h-7V79.7z M43.6,94.1h7v-7h-7V94.1z M65.5,115.9h7v-7h-7V115.9z M145.2,86.6h7v-7h-7V86.6z M479.5,145.1h7v7h-7V145.1z
		 M486.8,145.1h7v7h-7V145.1z M494.1,145.1h7v7h-7V145.1z M501.3,145.1h7v7h-7V145.1z M501.3,152.3h7v7h-7V152.3z M508.6,152.3h7v7
		h-7V152.3z M515.8,159.6h7v7h-7V159.6z M515.8,174.1h7v7h-7V174.1z M523.1,166.8h7v7h-7V166.8z M523.1,181.4h7v7h-7V181.4z
		 M530.4,174.1h7v7h-7V174.1z M537.6,181.4h7v7h-7V181.4z M537.6,188.6h7v7h-7V188.6z M544.8,203.2h7v7h-7V203.2z M544.8,196h7v7h-7
		V196z M552.1,217.8h7v7h-7V217.8z M552.1,210.5h7v7h-7V210.5z"/>
</g>
</svg>
