<?xml version="1.0" encoding="utf-8"?>
<!-- Generator: Adobe Illustrator 27.3.1, SVG Export Plug-In . SVG Version: 6.00 Build 0)  -->
<svg version="1.1" id="Слой_1" xmlns="http://www.w3.org/2000/svg" xmlns:xlink="http://www.w3.org/1999/xlink" x="0px" y="0px"
	 viewBox="0 0 268.3 413.5" style="enable-background:new 0 0 268.3 413.5;" xml:space="preserve">
<style type="text/css">
	.st0{fill:#1E0E01;}
</style>
<g id="Слой_1_00000065033670274818850110000000297058836443359368_">
</g>
<path class="st0" d="M0,268.6h7v7H0V268.6z M7.2,261.3h7v7h-7V261.3z M7.2,268.6h7v7h-7V268.6z M14.5,261.3h7v7h-7V261.3z
	 M14.5,268.6h7v7h-7V268.6z M21.7,217.8h7v7h-7V217.8z M21.7,254.1h7v7h-7V254.1z M21.7,261.3h7v7h-7V261.3z M21.7,268.6h7v7h-7
	V268.6z M0,319.4h7v7H0V319.4z M7.2,319.4h7v7h-7V319.4z M14.5,312.2h7v7h-7V312.2z M14.5,319.4h7v7h-7V319.4z M21.7,283.1h7v7h-7
	V283.1z M21.7,312.2h7v7h-7V312.2z M21.7,319.4h7v7h-7V319.4z M21.7,326.7h7v7h-7V326.7z M21.7,333.9h7v7h-7V333.9z M0,399.3h7v7H0
	V399.3z M14.5,399.3h7v7h-7V399.3z M36.3,174.2h7v7h-7V174.2z M43.5,174.2h7v7h-7V174.2z M43.5,181.5h7v7h-7V181.5z M50.8,137.9h7v7
	h-7V137.9z M50.8,167h7v7h-7V167z M50.8,174.2h7v7h-7V174.2z M50.8,181.5h7v7h-7V181.5z M58,137.9h7v7h-7V137.9z M58,167h7v7h-7V167
	z M58,174.2h7v7h-7V174.2z M58,181.5h7v7h-7V181.5z M58,196h7v7h-7V196z M65.3,116.1h7v7h-7V116.1z M65.3,130.7h7v7h-7V130.7z
	 M65.3,137.9h7v7h-7V137.9z M65.3,152.5h7v7h-7V152.5z M65.3,167h7v7h-7V167z M65.3,174.2h7v7h-7V174.2z M65.3,181.5h7v7h-7V181.5z
	 M65.3,188.7h7v7h-7V188.7z M72.6,101.6h7v7h-7V101.6z M72.6,108.9h7v7h-7V108.9z M72.6,123.4h7v7h-7V123.4z M72.6,130.7h7v7h-7
	V130.7z M72.6,137.9h7v7h-7V137.9z M72.6,145.2h7v7h-7V145.2z M72.6,159.7h7v7h-7V159.7z M72.6,167h7v7h-7V167z M72.6,174.2h7v7h-7
	V174.2z M72.6,181.5h7v7h-7V181.5z M72.6,196h7v7h-7V196z M79.8,94.4h7v7h-7V94.4z M79.8,108.9h7v7h-7V108.9z M79.8,130.7h7v7h-7
	V130.7z M79.8,137.9h7v7h-7V137.9z M79.8,145.2h7v7h-7V145.2z M79.8,152.5h7v7h-7V152.5z M79.8,167h7v7h-7V167z M79.8,174.2h7v7h-7
	V174.2z M79.8,181.5h7v7h-7V181.5z M79.8,188.7h7v7h-7V188.7z M87.1,72.6h7v7h-7V72.6z M87.1,94.4h7v7h-7V94.4z M87.1,101.6h7v7h-7
	V101.6z M87.1,108.9h7v7h-7V108.9z M87.1,123.4h7v7h-7V123.4z M87.1,130.7h7v7h-7V130.7z M87.1,137.9h7v7h-7V137.9z M87.1,145.2h7v7
	h-7V145.2z M87.1,159.7h7v7h-7V159.7z M87.1,167h7v7h-7V167z M87.1,174.2h7v7h-7V174.2z M87.1,181.5h7v7h-7V181.5z M87.1,196h7v7h-7
	V196z M94.3,65.3h7v7h-7V65.3z M94.3,72.6h7v7h-7V72.6z M94.3,87.1h7v7h-7V87.1z M94.3,101.6h7v7h-7V101.6z M94.3,116.1h7v7h-7
	V116.1z M94.3,130.7h7v7h-7V130.7z M94.3,137.9h7v7h-7V137.9z M94.3,152.5h7v7h-7V152.5z M94.3,167h7v7h-7V167z M94.3,174.2h7v7h-7
	V174.2z M94.3,188.7h7v7h-7V188.7z M29,210.5h7v7h-7V210.5z M29,217.8h7v7h-7V217.8z M29,225.1h7v7h-7V225.1z M29,261.3h7v7h-7
	V261.3z M29,268.6h7v7h-7V268.6z M36.3,210.5h7v7h-7V210.5z M36.3,217.8h7v7h-7V217.8z M36.3,232.3h7v7h-7V232.3z M36.3,254.1h7v7
	h-7V254.1z M36.3,261.3h7v7h-7V261.3z M36.3,268.6h7v7h-7V268.6z M43.5,210.5h7v7h-7V210.5z M43.5,217.8h7v7h-7V217.8z M43.5,225.1
	h7v7h-7V225.1z M43.5,246.8h7v7h-7V246.8z M43.5,261.3h7v7h-7V261.3z M43.5,268.6h7v7h-7V268.6z M50.8,203.3h7v7h-7V203.3z
	 M50.8,210.5h7v7h-7V210.5z M50.8,217.8h7v7h-7V217.8z M50.8,225.1h7v7h-7V225.1z M50.8,239.6h7v7h-7V239.6z M50.8,254.1h7v7h-7
	V254.1z M50.8,261.3h7v7h-7V261.3z M50.8,268.6h7v7h-7V268.6z M58,203.3h7v7h-7V203.3z M58,210.5h7v7h-7V210.5z M58,217.8h7v7h-7
	V217.8z M58,225.1h7v7h-7V225.1z M58,232.3h7v7h-7V232.3z M58,246.8h7v7h-7V246.8z M58,261.3h7v7h-7V261.3z M58,268.6h7v7h-7V268.6z
	 M65.3,203.3h7v7h-7V203.3z M65.3,210.5h7v7h-7V210.5z M65.3,217.8h7v7h-7V217.8z M65.3,225.1h7v7h-7V225.1z M65.3,239.6h7v7h-7
	V239.6z M65.3,254.1h7v7h-7V254.1z M65.3,261.3h7v7h-7V261.3z M65.3,268.6h7v7h-7V268.6z M72.6,203.3h7v7h-7V203.3z M72.6,210.5h7v7
	h-7V210.5z M72.6,217.8h7v7h-7V217.8z M72.6,225.1h7v7h-7V225.1z M72.6,232.3h7v7h-7V232.3z M72.6,246.8h7v7h-7V246.8z M72.6,254.1
	h7v7h-7V254.1z M72.6,261.3h7v7h-7V261.3z M72.6,268.6h7v7h-7V268.6z M79.8,203.3h7v7h-7V203.3z M79.8,210.5h7v7h-7V210.5z
	 M79.8,217.8h7v7h-7V217.8z M79.8,225.1h7v7h-7V225.1z M79.8,239.6h7v7h-7V239.6z M79.8,254.1h7v7h-7V254.1z M79.8,261.3h7v7h-7
	V261.3z M79.8,268.6h7v7h-7V268.6z M87.1,203.3h7v7h-7V203.3z M87.1,210.5h7v7h-7V210.5z M87.1,217.8h7v7h-7V217.8z M87.1,232.3h7v7
	h-7V232.3z M87.1,246.8h7v7h-7V246.8z M87.1,254.1h7v7h-7V254.1z M87.1,261.3h7v7h-7V261.3z M87.1,268.6h7v7h-7V268.6z M94.3,203.3
	h7v7h-7V203.3z M94.3,210.5h7v7h-7V210.5z M94.3,225.1h7v7h-7V225.1z M94.3,239.6h7v7h-7V239.6z M94.3,246.8h7v7h-7V246.8z
	 M94.3,254.1h7v7h-7V254.1z M94.3,261.3h7v7h-7V261.3z M29,312.2h7v7h-7V312.2z M29,319.4h7v7h-7V319.4z M29,326.7h7v7h-7V326.7z
	 M36.3,275.9h7v7h-7V275.9z M36.3,304.9h7v7h-7V304.9z M36.3,312.2h7v7h-7V312.2z M36.3,319.4h7v7h-7V319.4z M36.3,341.2h7v7h-7
	V341.2z M43.5,275.9h7v7h-7V275.9z M43.5,283.1h7v7h-7V283.1z M43.5,297.7h7v7h-7V297.7z M43.5,304.9h7v7h-7V304.9z M43.5,312.2h7v7
	h-7V312.2z M43.5,319.4h7v7h-7V319.4z M43.5,326.7h7v7h-7V326.7z M43.5,333.9h7v7h-7V333.9z M50.8,275.9h7v7h-7V275.9z M50.8,290.4
	h7v7h-7V290.4z M50.8,304.9h7v7h-7V304.9z M50.8,312.2h7v7h-7V312.2z M50.8,319.4h7v7h-7V319.4z M50.8,326.7h7v7h-7V326.7z
	 M58,275.9h7v7h-7V275.9z M58,283.1h7v7h-7V283.1z M58,297.7h7v7h-7V297.7z M58,304.9h7v7h-7V304.9z M58,312.2h7v7h-7V312.2z
	 M58,319.4h7v7h-7V319.4z M58,326.7h7v7h-7V326.7z M58,333.9h7v7h-7V333.9z M65.3,275.9h7v7h-7V275.9z M65.3,290.4h7v7h-7V290.4z
	 M65.3,304.9h7v7h-7V304.9z M65.3,312.2h7v7h-7V312.2z M65.3,319.4h7v7h-7V319.4z M65.3,326.7h7v7h-7V326.7z M65.3,341.2h7v7h-7
	V341.2z M72.6,275.9h7v7h-7V275.9z M72.6,283.1h7v7h-7V283.1z M72.6,297.7h7v7h-7V297.7z M72.6,304.9h7v7h-7V304.9z M72.6,312.2h7v7
	h-7V312.2z M72.6,319.4h7v7h-7V319.4z M72.6,326.7h7v7h-7V326.7z M72.6,333.9h7v7h-7V333.9z M72.6,341.2h7v7h-7V341.2z M79.8,275.9
	h7v7h-7V275.9z M79.8,290.4h7v7h-7V290.4z M79.8,304.9h7v7h-7V304.9z M79.8,312.2h7v7h-7V312.2z M79.8,319.4h7v7h-7V319.4z
	 M79.8,326.7h7v7h-7V326.7z M79.8,333.9h7v7h-7V333.9z M87.1,283.1h7v7h-7V283.1z M87.1,297.7h7v7h-7V297.7z M87.1,304.9h7v7h-7
	V304.9z M87.1,312.2h7v7h-7V312.2z M87.1,319.4h7v7h-7V319.4z M87.1,341.2h7v7h-7V341.2z M94.3,275.9h7v7h-7V275.9z M94.3,290.4h7v7
	h-7V290.4z M94.3,297.7h7v7h-7V297.7z M94.3,304.9h7v7h-7V304.9z M94.3,312.2h7v7h-7V312.2z M94.3,319.4h7v7h-7V319.4z M94.3,326.7
	h7v7h-7V326.7z M94.3,333.9h7v7h-7V333.9z M29,392h7v7h-7V392z M36.3,399.3h7v7h-7V399.3z M43.5,384.8h7v7h-7V384.8z M43.5,399.3h7
	v7h-7V399.3z M50.8,377.5h7v7h-7V377.5z M50.8,399.3h7v7h-7V399.3z M58,370.3h7v7h-7V370.3z M58,392h7v7h-7V392z M58,399.3h7v7h-7
	V399.3z M65.3,377.5h7v7h-7V377.5z M65.3,392h7v7h-7V392z M65.3,399.3h7v7h-7V399.3z M72.6,363h7v7h-7V363z M72.6,399.3h7v7h-7
	V399.3z M79.8,370.3h7v7h-7V370.3z M79.8,384.8h7v7h-7V384.8z M79.8,392h7v7h-7V392z M79.8,399.3h7v7h-7V399.3z M87.1,363h7v7h-7
	V363z M87.1,377.5h7v7h-7V377.5z M87.1,399.3h7v7h-7V399.3z M94.3,370.3h7v7h-7V370.3z M94.3,392h7v7h-7V392z M94.3,399.3h7v7h-7
	V399.3z M101.6,43.5h7v7h-7V43.5z M101.6,58.1h7v7h-7V58.1z M101.6,65.3h7v7h-7V65.3z M101.6,72.6h7v7h-7V72.6z M101.6,79.9h7v7h-7
	V79.9z M101.6,94.4h7v7h-7V94.4z M101.6,101.6h7v7h-7V101.6z M101.6,108.9h7v7h-7V108.9z M101.6,123.4h7v7h-7V123.4z M101.6,130.7h7
	v7h-7V130.7z M101.6,137.9h7v7h-7V137.9z M101.6,145.2h7v7h-7V145.2z M101.6,159.7h7v7h-7V159.7z M101.6,167h7v7h-7V167z
	 M101.6,181.5h7v7h-7V181.5z M101.6,196h7v7h-7V196z M108.9,43.5h7v7h-7V43.5z M108.9,58.1h7v7h-7V58.1z M108.9,65.3h7v7h-7V65.3z
	 M108.9,72.6h7v7h-7V72.6z M108.9,87.1h7v7h-7V87.1z M108.9,94.4h7v7h-7V94.4z M108.9,101.6h7v7h-7V101.6z M108.9,108.9h7v7h-7
	V108.9z M108.9,123.4h7v7h-7V123.4z M108.9,130.7h7v7h-7V130.7z M108.9,137.9h7v7h-7V137.9z M108.9,152.5h7v7h-7V152.5z
	 M108.9,159.7h7v7h-7V159.7z M108.9,167h7v7h-7V167z M108.9,174.2h7v7h-7V174.2z M108.9,188.7h7v7h-7V188.7z M108.9,196h7v7h-7V196z
	 M116.1,0h7v7h-7V0z M116.1,21.8h7v7h-7V21.8z M116.1,29h7v7h-7V29z M116.1,43.5h7v7h-7V43.5z M116.1,50.8h7v7h-7V50.8z M116.1,65.3
	h7v7h-7V65.3z M116.1,79.9h7v7h-7V79.9z M116.1,87.1h7v7h-7V87.1z M116.1,94.4h7v7h-7V94.4z M116.1,101.6h7v7h-7V101.6z
	 M116.1,116.1h7v7h-7V116.1z M116.1,123.4h7v7h-7V123.4z M116.1,130.7h7v7h-7V130.7z M116.1,145.2h7v7h-7V145.2z M116.1,159.7h7v7
	h-7V159.7z M116.1,167h7v7h-7V167z M116.1,174.2h7v7h-7V174.2z M116.1,188.7h7v7h-7V188.7z M116.1,196h7v7h-7V196z M123.4,14.5h7v7
	h-7V14.5z M123.4,21.8h7v7h-7V21.8z M123.4,36.3h7v7h-7V36.3z M123.4,43.5h7v7h-7V43.5z M123.4,58.1h7v7h-7V58.1z M123.4,72.6h7v7
	h-7V72.6z M123.4,79.9h7v7h-7V79.9z M123.4,87.1h7v7h-7V87.1z M123.4,94.4h7v7h-7V94.4z M123.4,108.9h7v7h-7V108.9z M123.4,116.1h7
	v7h-7V116.1z M123.4,123.4h7v7h-7V123.4z M123.4,137.9h7v7h-7V137.9z M123.4,152.5h7v7h-7V152.5z M123.4,159.7h7v7h-7V159.7z
	 M123.4,167h7v7h-7V167z M123.4,174.2h7v7h-7V174.2z M123.4,181.5h7v7h-7V181.5z M123.4,188.7h7v7h-7V188.7z M123.4,196h7v7h-7V196z
	 M130.6,7.3h7v7h-7V7.3z M130.6,14.5h7v7h-7V14.5z M130.6,29h7v7h-7V29z M130.6,36.3h7v7h-7V36.3z M130.6,50.8h7v7h-7V50.8z
	 M130.6,58.1h7v7h-7V58.1z M130.6,65.3h7v7h-7V65.3z M130.6,79.9h7v7h-7V79.9z M130.6,87.1h7v7h-7V87.1z M130.6,94.4h7v7h-7V94.4z
	 M130.6,101.6h7v7h-7V101.6z M130.6,108.9h7v7h-7V108.9z M130.6,116.1h7v7h-7V116.1z M130.6,130.7h7v7h-7V130.7z M130.6,145.2h7v7
	h-7V145.2z M130.6,152.5h7v7h-7V152.5z M130.6,159.7h7v7h-7V159.7z M130.6,167h7v7h-7V167z M130.6,174.2h7v7h-7V174.2z M130.6,181.5
	h7v7h-7V181.5z M130.6,188.7h7v7h-7V188.7z M137.9,0h7v7h-7V0z M137.9,7.3h7v7h-7V7.3z M137.9,14.5h7v7h-7V14.5z M137.9,21.8h7v7h-7
	V21.8z M137.9,29h7v7h-7V29z M137.9,36.3h7v7h-7V36.3z M137.9,43.5h7v7h-7V43.5z M137.9,50.8h7v7h-7V50.8z M137.9,58.1h7v7h-7V58.1z
	 M137.9,65.3h7v7h-7V65.3z M137.9,72.6h7v7h-7V72.6z M137.9,79.9h7v7h-7V79.9z M137.9,87.1h7v7h-7V87.1z M137.9,94.4h7v7h-7V94.4z
	 M137.9,101.6h7v7h-7V101.6z M137.9,108.9h7v7h-7V108.9z M137.9,116.1h7v7h-7V116.1z M137.9,123.4h7v7h-7V123.4z M137.9,130.7h7v7
	h-7V130.7z M137.9,137.9h7v7h-7V137.9z M137.9,145.2h7v7h-7V145.2z M137.9,152.5h7v7h-7V152.5z M137.9,159.7h7v7h-7V159.7z
	 M137.9,167h7v7h-7V167z M137.9,174.2h7v7h-7V174.2z M137.9,181.5h7v7h-7V181.5z M137.9,188.7h7v7h-7V188.7z M137.9,196h7v7h-7V196z
	 M145.2,14.5h7v7h-7V14.5z M145.2,21.8h7v7h-7V21.8z M145.2,29h7v7h-7V29z M145.2,36.3h7v7h-7V36.3z M145.2,43.5h7v7h-7V43.5z
	 M145.2,50.8h7v7h-7V50.8z M145.2,58.1h7v7h-7V58.1z M145.2,65.3h7v7h-7V65.3z M145.2,72.6h7v7h-7V72.6z M145.2,79.9h7v7h-7V79.9z
	 M145.2,87.1h7v7h-7V87.1z M145.2,94.4h7v7h-7V94.4z M145.2,108.9h7v7h-7V108.9z M145.2,116.1h7v7h-7V116.1z M145.2,123.4h7v7h-7
	V123.4z M145.2,130.7h7v7h-7V130.7z M145.2,145.2h7v7h-7V145.2z M145.2,152.5h7v7h-7V152.5z M145.2,159.7h7v7h-7V159.7z M145.2,167
	h7v7h-7V167z M145.2,181.5h7v7h-7V181.5z M145.2,188.7h7v7h-7V188.7z M145.2,196h7v7h-7V196z M152.4,29h7v7h-7V29z M152.4,43.5h7v7
	h-7V43.5z M152.4,50.8h7v7h-7V50.8z M152.4,58.1h7v7h-7V58.1z M152.4,65.3h7v7h-7V65.3z M152.4,72.6h7v7h-7V72.6z M152.4,79.9h7v7
	h-7V79.9z M152.4,87.1h7v7h-7V87.1z M152.4,94.4h7v7h-7V94.4z M152.4,101.6h7v7h-7V101.6z M152.4,116.1h7v7h-7V116.1z M152.4,123.4
	h7v7h-7V123.4z M152.4,130.7h7v7h-7V130.7z M152.4,137.9h7v7h-7V137.9z M152.4,145.2h7v7h-7V145.2z M152.4,152.5h7v7h-7V152.5z
	 M152.4,159.7h7v7h-7V159.7z M152.4,167h7v7h-7V167z M152.4,174.2h7v7h-7V174.2z M152.4,181.5h7v7h-7V181.5z M152.4,188.7h7v7h-7
	V188.7z M152.4,196h7v7h-7V196z M159.7,43.5h7v7h-7V43.5z M159.7,58.1h7v7h-7V58.1z M159.7,65.3h7v7h-7V65.3z M159.7,79.9h7v7h-7
	V79.9z M159.7,87.1h7v7h-7V87.1z M159.7,94.4h7v7h-7V94.4z M159.7,101.6h7v7h-7V101.6z M159.7,108.9h7v7h-7V108.9z M159.7,123.4h7v7
	h-7V123.4z M159.7,130.7h7v7h-7V130.7z M159.7,137.9h7v7h-7V137.9z M159.7,152.5h7v7h-7V152.5z M159.7,159.7h7v7h-7V159.7z
	 M159.7,167h7v7h-7V167z M159.7,181.5h7v7h-7V181.5z M159.7,188.7h7v7h-7V188.7z M159.7,196h7v7h-7V196z M166.9,50.8h7v7h-7V50.8z
	 M166.9,65.3h7v7h-7V65.3z M166.9,94.4h7v7h-7V94.4z M166.9,101.6h7v7h-7V101.6z M166.9,108.9h7v7h-7V108.9z M166.9,116.1h7v7h-7
	V116.1z M166.9,123.4h7v7h-7V123.4z M166.9,130.7h7v7h-7V130.7z M166.9,137.9h7v7h-7V137.9z M166.9,145.2h7v7h-7V145.2z
	 M166.9,159.7h7v7h-7V159.7z M166.9,167h7v7h-7V167z M166.9,174.2h7v7h-7V174.2z M166.9,181.5h7v7h-7V181.5z M166.9,188.7h7v7h-7
	V188.7z M101.6,203.3h7v7h-7V203.3z M101.6,210.5h7v7h-7V210.5z M101.6,217.8h7v7h-7V217.8z M101.6,232.3h7v7h-7V232.3z
	 M101.6,239.6h7v7h-7V239.6z M101.6,246.8h7v7h-7V246.8z M101.6,254.1h7v7h-7V254.1z M101.6,268.6h7v7h-7V268.6z M108.9,203.3h7v7
	h-7V203.3z M108.9,210.5h7v7h-7V210.5z M108.9,225.1h7v7h-7V225.1z M108.9,239.6h7v7h-7V239.6z M108.9,246.8h7v7h-7V246.8z
	 M108.9,261.3h7v7h-7V261.3z M116.1,203.3h7v7h-7V203.3z M116.1,217.8h7v7h-7V217.8z M116.1,232.3h7v7h-7V232.3z M116.1,239.6h7v7
	h-7V239.6z M116.1,246.8h7v7h-7V246.8z M116.1,254.1h7v7h-7V254.1z M116.1,268.6h7v7h-7V268.6z M123.4,210.5h7v7h-7V210.5z
	 M123.4,225.1h7v7h-7V225.1z M123.4,232.3h7v7h-7V232.3z M123.4,239.6h7v7h-7V239.6z M123.4,246.8h7v7h-7V246.8z M123.4,261.3h7v7
	h-7V261.3z M130.6,203.3h7v7h-7V203.3z M130.6,217.8h7v7h-7V217.8z M130.6,225.1h7v7h-7V225.1z M130.6,232.3h7v7h-7V232.3z
	 M130.6,239.6h7v7h-7V239.6z M130.6,254.1h7v7h-7V254.1z M130.6,268.6h7v7h-7V268.6z M137.9,203.3h7v7h-7V203.3z M137.9,210.5h7v7
	h-7V210.5z M137.9,217.8h7v7h-7V217.8z M137.9,225.1h7v7h-7V225.1z M137.9,232.3h7v7h-7V232.3z M137.9,239.6h7v7h-7V239.6z
	 M137.9,246.8h7v7h-7V246.8z M137.9,254.1h7v7h-7V254.1z M137.9,261.3h7v7h-7V261.3z M137.9,268.6h7v7h-7V268.6z M145.2,203.3h7v7
	h-7V203.3z M145.2,217.8h7v7h-7V217.8z M145.2,225.1h7v7h-7V225.1z M145.2,232.3h7v7h-7V232.3z M145.2,239.6h7v7h-7V239.6z
	 M145.2,246.8h7v7h-7V246.8z M145.2,261.3h7v7h-7V261.3z M152.4,203.3h7v7h-7V203.3z M152.4,210.5h7v7h-7V210.5z M152.4,225.1h7v7
	h-7V225.1z M152.4,232.3h7v7h-7V232.3z M152.4,239.6h7v7h-7V239.6z M152.4,246.8h7v7h-7V246.8z M152.4,254.1h7v7h-7V254.1z
	 M152.4,268.6h7v7h-7V268.6z M159.7,203.3h7v7h-7V203.3z M159.7,210.5h7v7h-7V210.5z M159.7,217.8h7v7h-7V217.8z M159.7,225.1h7v7
	h-7V225.1z M159.7,232.3h7v7h-7V232.3z M159.7,239.6h7v7h-7V239.6z M159.7,246.8h7v7h-7V246.8z M159.7,254.1h7v7h-7V254.1z
	 M159.7,261.3h7v7h-7V261.3z M166.9,203.3h7v7h-7V203.3z M166.9,210.5h7v7h-7V210.5z M166.9,217.8h7v7h-7V217.8z M166.9,232.3h7v7
	h-7V232.3z M166.9,239.6h7v7h-7V239.6z M166.9,246.8h7v7h-7V246.8z M166.9,254.1h7v7h-7V254.1z M166.9,261.3h7v7h-7V261.3z
	 M166.9,268.6h7v7h-7V268.6z M101.6,283.1h7v7h-7V283.1z M101.6,297.7h7v7h-7V297.7z M101.6,304.9h7v7h-7V304.9z M101.6,312.2h7v7
	h-7V312.2z M101.6,319.4h7v7h-7V319.4z M108.9,275.9h7v7h-7V275.9z M108.9,290.4h7v7h-7V290.4z M108.9,297.7h7v7h-7V297.7z
	 M108.9,304.9h7v7h-7V304.9z M108.9,312.2h7v7h-7V312.2z M116.1,283.1h7v7h-7V283.1z M116.1,290.4h7v7h-7V290.4z M116.1,297.7h7v7
	h-7V297.7z M116.1,304.9h7v7h-7V304.9z M116.1,319.4h7v7h-7V319.4z M116.1,333.9h7v7h-7V333.9z M123.4,275.9h7v7h-7V275.9z
	 M123.4,283.1h7v7h-7V283.1z M123.4,290.4h7v7h-7V290.4z M123.4,297.7h7v7h-7V297.7z M123.4,304.9h7v7h-7V304.9z M123.4,312.2h7v7
	h-7V312.2z M123.4,326.7h7v7h-7V326.7z M123.4,341.2h7v7h-7V341.2z M130.6,275.9h7v7h-7V275.9z M130.6,283.1h7v7h-7V283.1z
	 M130.6,290.4h7v7h-7V290.4z M130.6,304.9h7v7h-7V304.9z M130.6,319.4h7v7h-7V319.4z M130.6,333.9h7v7h-7V333.9z M137.9,275.9h7v7
	h-7V275.9z M137.9,283.1h7v7h-7V283.1z M137.9,290.4h7v7h-7V290.4z M137.9,297.7h7v7h-7V297.7z M137.9,304.9h7v7h-7V304.9z
	 M137.9,312.2h7v7h-7V312.2z M137.9,319.4h7v7h-7V319.4z M137.9,326.7h7v7h-7V326.7z M137.9,333.9h7v7h-7V333.9z M137.9,341.2h7v7
	h-7V341.2z M145.2,275.9h7v7h-7V275.9z M145.2,283.1h7v7h-7V283.1z M145.2,290.4h7v7h-7V290.4z M145.2,297.7h7v7h-7V297.7z
	 M145.2,304.9h7v7h-7V304.9z M145.2,312.2h7v7h-7V312.2z M145.2,319.4h7v7h-7V319.4z M145.2,326.7h7v7h-7V326.7z M145.2,333.9h7v7
	h-7V333.9z M145.2,341.2h7v7h-7V341.2z M152.4,275.9h7v7h-7V275.9z M152.4,283.1h7v7h-7V283.1z M152.4,290.4h7v7h-7V290.4z
	 M152.4,297.7h7v7h-7V297.7z M152.4,304.9h7v7h-7V304.9z M159.7,275.9h7v7h-7V275.9z M159.7,283.1h7v7h-7V283.1z M159.7,290.4h7v7
	h-7V290.4z M159.7,297.7h7v7h-7V297.7z M159.7,304.9h7v7h-7V304.9z M159.7,312.2h7v7h-7V312.2z M159.7,319.4h7v7h-7V319.4z
	 M166.9,283.1h7v7h-7V283.1z M166.9,290.4h7v7h-7V290.4z M166.9,297.7h7v7h-7V297.7z M166.9,304.9h7v7h-7V304.9z M166.9,312.2h7v7
	h-7V312.2z M166.9,319.4h7v7h-7V319.4z M101.6,399.3h7v7h-7V399.3z M108.9,363h7v7h-7V363z M108.9,377.5h7v7h-7V377.5z M108.9,392h7
	v7h-7V392z M108.9,399.3h7v7h-7V399.3z M116.1,348.5h7v7h-7V348.5z M116.1,370.3h7v7h-7V370.3z M116.1,384.8h7v7h-7V384.8z
	 M116.1,392h7v7h-7V392z M116.1,399.3h7v7h-7V399.3z M123.4,355.7h7v7h-7V355.7z M123.4,363h7v7h-7V363z M123.4,377.5h7v7h-7V377.5z
	 M123.4,392h7v7h-7V392z M123.4,399.3h7v7h-7V399.3z M130.6,348.5h7v7h-7V348.5z M130.6,355.7h7v7h-7V355.7z M130.6,370.3h7v7h-7
	V370.3z M130.6,377.5h7v7h-7V377.5z M130.6,384.8h7v7h-7V384.8z M130.6,392h7v7h-7V392z M130.6,399.3h7v7h-7V399.3z M137.9,348.5h7
	v7h-7V348.5z M137.9,355.7h7v7h-7V355.7z M137.9,363h7v7h-7V363z M137.9,370.3h7v7h-7V370.3z M137.9,377.5h7v7h-7V377.5z
	 M137.9,384.8h7v7h-7V384.8z M137.9,392h7v7h-7V392z M137.9,399.3h7v7h-7V399.3z M145.2,348.5h7v7h-7V348.5z M145.2,355.7h7v7h-7
	V355.7z M145.2,363h7v7h-7V363z M145.2,370.3h7v7h-7V370.3z M145.2,377.5h7v7h-7V377.5z M145.2,384.8h7v7h-7V384.8z M145.2,392h7v7
	h-7V392z M145.2,399.3h7v7h-7V399.3z M152.4,392h7v7h-7V392z M152.4,399.3h7v7h-7V399.3z M159.7,363h7v7h-7V363z M159.7,370.3h7v7
	h-7V370.3z M159.7,392h7v7h-7V392z M159.7,399.3h7v7h-7V399.3z M166.9,377.5h7v7h-7V377.5z M166.9,384.8h7v7h-7V384.8z M166.9,392h7
	v7h-7V392z M166.9,399.3h7v7h-7V399.3z M174.2,65.3h7v7h-7V65.3z M174.2,87.1h7v7h-7V87.1z M174.2,101.6h7v7h-7V101.6z M174.2,123.4
	h7v7h-7V123.4z M174.2,130.7h7v7h-7V130.7z M174.2,137.9h7v7h-7V137.9z M174.2,152.5h7v7h-7V152.5z M174.2,159.7h7v7h-7V159.7z
	 M174.2,167h7v7h-7V167z M174.2,174.2h7v7h-7V174.2z M174.2,181.5h7v7h-7V181.5z M174.2,196h7v7h-7V196z M181.5,94.4h7v7h-7V94.4z
	 M181.5,101.6h7v7h-7V101.6z M181.5,108.9h7v7h-7V108.9z M181.5,123.4h7v7h-7V123.4z M181.5,130.7h7v7h-7V130.7z M181.5,137.9h7v7
	h-7V137.9z M181.5,159.7h7v7h-7V159.7z M181.5,167h7v7h-7V167z M181.5,174.2h7v7h-7V174.2z M181.5,181.5h7v7h-7V181.5z M181.5,188.7
	h7v7h-7V188.7z M181.5,196h7v7h-7V196z M188.7,101.6h7v7h-7V101.6z M188.7,108.9h7v7h-7V108.9z M188.7,123.4h7v7h-7V123.4z
	 M188.7,130.7h7v7h-7V130.7z M188.7,137.9h7v7h-7V137.9z M188.7,145.2h7v7h-7V145.2z M188.7,159.7h7v7h-7V159.7z M188.7,167h7v7h-7
	V167z M188.7,174.2h7v7h-7V174.2z M188.7,181.5h7v7h-7V181.5z M188.7,188.7h7v7h-7V188.7z M188.7,196h7v7h-7V196z M196,108.9h7v7h-7
	V108.9z M196,130.7h7v7h-7V130.7z M196,137.9h7v7h-7V137.9z M196,167h7v7h-7V167z M196,174.2h7v7h-7V174.2z M196,181.5h7v7h-7V181.5
	z M203.2,116.1h7v7h-7V116.1z M203.2,137.9h7v7h-7V137.9z M203.2,174.2h7v7h-7V174.2z M203.2,181.5h7v7h-7V181.5z M203.2,188.7h7v7
	h-7V188.7z M210.5,137.9h7v7h-7V137.9z M210.5,174.2h7v7h-7V174.2z M210.5,181.5h7v7h-7V181.5z M217.8,174.2h7v7h-7V174.2z
	 M217.8,181.5h7v7h-7V181.5z M225,174.2h7v7h-7V174.2z M174.2,203.3h7v7h-7V203.3z M174.2,210.5h7v7h-7V210.5z M174.2,217.8h7v7h-7
	V217.8z M174.2,225.1h7v7h-7V225.1z M174.2,232.3h7v7h-7V232.3z M174.2,239.6h7v7h-7V239.6z M174.2,246.8h7v7h-7V246.8z
	 M174.2,254.1h7v7h-7V254.1z M174.2,261.3h7v7h-7V261.3z M174.2,268.6h7v7h-7V268.6z M181.5,203.3h7v7h-7V203.3z M181.5,210.5h7v7
	h-7V210.5z M181.5,217.8h7v7h-7V217.8z M181.5,225.1h7v7h-7V225.1z M181.5,239.6h7v7h-7V239.6z M181.5,246.8h7v7h-7V246.8z
	 M181.5,254.1h7v7h-7V254.1z M181.5,261.3h7v7h-7V261.3z M181.5,268.6h7v7h-7V268.6z M188.7,203.3h7v7h-7V203.3z M188.7,210.5h7v7
	h-7V210.5z M188.7,217.8h7v7h-7V217.8z M188.7,225.1h7v7h-7V225.1z M188.7,232.3h7v7h-7V232.3z M188.7,246.8h7v7h-7V246.8z
	 M188.7,254.1h7v7h-7V254.1z M188.7,261.3h7v7h-7V261.3z M188.7,268.6h7v7h-7V268.6z M196,203.3h7v7h-7V203.3z M196,210.5h7v7h-7
	V210.5z M196,217.8h7v7h-7V217.8z M196,225.1h7v7h-7V225.1z M196,232.3h7v7h-7V232.3z M196,239.6h7v7h-7V239.6z M196,246.8h7v7h-7
	V246.8z M196,254.1h7v7h-7V254.1z M196,261.3h7v7h-7V261.3z M203.2,203.3h7v7h-7V203.3z M203.2,210.5h7v7h-7V210.5z M203.2,217.8h7
	v7h-7V217.8z M203.2,232.3h7v7h-7V232.3z M203.2,239.6h7v7h-7V239.6z M203.2,246.8h7v7h-7V246.8z M203.2,254.1h7v7h-7V254.1z
	 M203.2,261.3h7v7h-7V261.3z M203.2,268.6h7v7h-7V268.6z M210.5,203.3h7v7h-7V203.3z M210.5,210.5h7v7h-7V210.5z M210.5,217.8h7v7
	h-7V217.8z M210.5,225.1h7v7h-7V225.1z M210.5,239.6h7v7h-7V239.6z M210.5,246.8h7v7h-7V246.8z M210.5,254.1h7v7h-7V254.1z
	 M210.5,261.3h7v7h-7V261.3z M210.5,268.6h7v7h-7V268.6z M217.8,210.5h7v7h-7V210.5z M217.8,217.8h7v7h-7V217.8z M217.8,225.1h7v7
	h-7V225.1z M217.8,246.8h7v7h-7V246.8z M217.8,254.1h7v7h-7V254.1z M217.8,261.3h7v7h-7V261.3z M217.8,268.6h7v7h-7V268.6z
	 M225,210.5h7v7h-7V210.5z M225,217.8h7v7h-7V217.8z M225,232.3h7v7h-7V232.3z M225,246.8h7v7h-7V246.8z M225,254.1h7v7h-7V254.1z
	 M225,261.3h7v7h-7V261.3z M225,268.6h7v7h-7V268.6z M232.3,210.5h7v7h-7V210.5z M232.3,217.8h7v7h-7V217.8z M232.3,246.8h7v7h-7
	V246.8z M232.3,254.1h7v7h-7V254.1z M232.3,261.3h7v7h-7V261.3z M232.3,268.6h7v7h-7V268.6z M239.5,217.8h7v7h-7V217.8z
	 M239.5,246.8h7v7h-7V246.8z M239.5,254.1h7v7h-7V254.1z M239.5,261.3h7v7h-7V261.3z M239.5,268.6h7v7h-7V268.6z M174.2,275.9h7v7
	h-7V275.9z M174.2,290.4h7v7h-7V290.4z M174.2,297.7h7v7h-7V297.7z M174.2,304.9h7v7h-7V304.9z M174.2,312.2h7v7h-7V312.2z
	 M174.2,319.4h7v7h-7V319.4z M174.2,326.7h7v7h-7V326.7z M174.2,341.2h7v7h-7V341.2z M181.5,275.9h7v7h-7V275.9z M181.5,283.1h7v7
	h-7V283.1z M181.5,290.4h7v7h-7V290.4z M181.5,297.7h7v7h-7V297.7z M181.5,304.9h7v7h-7V304.9z M181.5,312.2h7v7h-7V312.2z
	 M181.5,319.4h7v7h-7V319.4z M181.5,326.7h7v7h-7V326.7z M181.5,333.9h7v7h-7V333.9z M188.7,275.9h7v7h-7V275.9z M188.7,283.1h7v7
	h-7V283.1z M188.7,290.4h7v7h-7V290.4z M188.7,297.7h7v7h-7V297.7z M188.7,304.9h7v7h-7V304.9z M188.7,312.2h7v7h-7V312.2z
	 M188.7,319.4h7v7h-7V319.4z M188.7,326.7h7v7h-7V326.7z M188.7,333.9h7v7h-7V333.9z M196,275.9h7v7h-7V275.9z M196,283.1h7v7h-7
	V283.1z M196,290.4h7v7h-7V290.4z M196,297.7h7v7h-7V297.7z M196,304.9h7v7h-7V304.9z M196,312.2h7v7h-7V312.2z M196,319.4h7v7h-7
	V319.4z M196,326.7h7v7h-7V326.7z M196,333.9h7v7h-7V333.9z M196,341.2h7v7h-7V341.2z M203.2,283.1h7v7h-7V283.1z M203.2,290.4h7v7
	h-7V290.4z M203.2,297.7h7v7h-7V297.7z M203.2,304.9h7v7h-7V304.9z M203.2,312.2h7v7h-7V312.2z M203.2,319.4h7v7h-7V319.4z
	 M203.2,341.2h7v7h-7V341.2z M210.5,275.9h7v7h-7V275.9z M210.5,290.4h7v7h-7V290.4z M210.5,297.7h7v7h-7V297.7z M210.5,304.9h7v7
	h-7V304.9z M210.5,312.2h7v7h-7V312.2z M210.5,319.4h7v7h-7V319.4z M210.5,326.7h7v7h-7V326.7z M210.5,333.9h7v7h-7V333.9z
	 M217.8,275.9h7v7h-7V275.9z M217.8,290.4h7v7h-7V290.4z M217.8,297.7h7v7h-7V297.7z M217.8,304.9h7v7h-7V304.9z M217.8,312.2h7v7
	h-7V312.2z M217.8,319.4h7v7h-7V319.4z M217.8,326.7h7v7h-7V326.7z M217.8,333.9h7v7h-7V333.9z M225,283.1h7v7h-7V283.1z M225,297.7
	h7v7h-7V297.7z M225,304.9h7v7h-7V304.9z M225,312.2h7v7h-7V312.2z M225,319.4h7v7h-7V319.4z M225,341.2h7v7h-7V341.2z M232.3,275.9
	h7v7h-7V275.9z M232.3,297.7h7v7h-7V297.7z M232.3,304.9h7v7h-7V304.9z M232.3,312.2h7v7h-7V312.2z M232.3,319.4h7v7h-7V319.4z
	 M232.3,326.7h7v7h-7V326.7z M239.5,283.1h7v7h-7V283.1z M239.5,304.9h7v7h-7V304.9z M239.5,312.2h7v7h-7V312.2z M239.5,319.4h7v7
	h-7V319.4z M239.5,326.7h7v7h-7V326.7z M239.5,341.2h7v7h-7V341.2z M174.2,384.8h7v7h-7V384.8z M174.2,392h7v7h-7V392z M174.2,399.3
	h7v7h-7V399.3z M181.5,363h7v7h-7V363z M181.5,377.5h7v7h-7V377.5z M181.5,392h7v7h-7V392z M181.5,399.3h7v7h-7V399.3z M188.7,370.3
	h7v7h-7V370.3z M188.7,392h7v7h-7V392z M188.7,399.3h7v7h-7V399.3z M196,377.5h7v7h-7V377.5z M196,384.8h7v7h-7V384.8z M196,392h7v7
	h-7V392z M196,399.3h7v7h-7V399.3z M203.2,392h7v7h-7V392z M203.2,399.3h7v7h-7V399.3z M210.5,377.5h7v7h-7V377.5z M210.5,392h7v7
	h-7V392z M217.8,377.5h7v7h-7V377.5z M217.8,392h7v7h-7V392z M225,384.8h7v7h-7V384.8z M225,399.3h7v7h-7V399.3z M232.3,392h7v7h-7
	V392z M239.5,384.8h7v7h-7V384.8z M239.5,399.3h7v7h-7V399.3z M246.8,217.8h7v7h-7V217.8z M246.8,261.3h7v7h-7V261.3z M246.8,268.6
	h7v7h-7V268.6z M254.1,261.3h7v7h-7V261.3z M254.1,268.6h7v7h-7V268.6z M261.3,268.6h7v7h-7V268.6z M246.8,304.9h7v7h-7V304.9z
	 M246.8,312.2h7v7h-7V312.2z M246.8,319.4h7v7h-7V319.4z M246.8,333.9h7v7h-7V333.9z M254.1,312.2h7v7h-7V312.2z M254.1,319.4h7v7
	h-7V319.4z M261.3,319.4h7v7h-7V319.4z M246.8,392h7v7h-7V392z M246.8,399.3h7v7h-7V399.3z M261.3,392h7v7h-7V392z M261.3,399.3h7v7
	h-7V399.3z M7.2,406.5h7v7h-7V406.5z M29,406.5h7v7h-7V406.5z M43.5,406.5h7v7h-7V406.5z M58,406.5h7v7h-7V406.5z M65.3,406.5h7v7
	h-7V406.5z M72.6,406.5h7v7h-7V406.5z M87.1,406.5h7v7h-7V406.5z M94.3,406.5h7v7h-7V406.5z M101.6,406.5h7v7h-7V406.5z
	 M116.1,406.5h7v7h-7V406.5z M130.6,406.5h7v7h-7V406.5z M145.2,406.5h7v7h-7V406.5z M152.4,406.5h7v7h-7V406.5z M159.7,406.5h7v7
	h-7V406.5z M166.9,406.5h7v7h-7V406.5z M188.7,406.5h7v7h-7V406.5z M203.2,406.5h7v7h-7V406.5z M210.5,406.5h7v7h-7V406.5z
	 M217.8,406.5h7v7h-7V406.5z M225,406.5h7v7h-7V406.5z M239.5,406.5h7v7h-7V406.5z M254.1,406.5h7v7h-7V406.5z"/>
</svg>
