<?xml version="1.0" encoding="utf-8"?>
<!-- Generator: Adobe Illustrator 27.3.1, SVG Export Plug-In . SVG Version: 6.00 Build 0)  -->
<svg version="1.1" xmlns="http://www.w3.org/2000/svg" xmlns:xlink="http://www.w3.org/1999/xlink" x="0px" y="0px"
	 viewBox="0 0 152.2 261.1" style="enable-background:new 0 0 152.2 261.1;" xml:space="preserve">
<style type="text/css">
	.st0{fill:#FCE8B3;}
	.st1{fill:#1E0E01;}
</style>
<g id="Слой_2">
	<g>
		<path class="st0" d="M133.9,124.8h-1.3v-1.3c0-3.3-2.7-6-6-6h-1.3v-1.3c0-3.3-2.7-6-6-6h-1.2V109c0-3.3-2.7-6-6-6h-7
			c-3.3,0-6,2.7-6,6v1.3h-1.3c-0.4,0-0.9,0-1.3,0.1v-1.5c0-0.1,0-0.1,0-0.1c0,0,0-0.1,0-0.1v-7c0,0,0-0.1,0-0.1c0,0,0-0.1,0-0.1v-7
			c0-0.1,0-0.1,0-0.1c0,0,0-0.1,0-0.1v-7c0-3.3-2.7-6-6-6h-1.3v-1.2c0-0.1,0-0.1,0-0.1c0,0,0-0.1,0-0.1v-1.3h1.3c3.3,0,6-2.7,6-6
			v-1.2h1.2c3.3,0,6-2.7,6-6v-7c0-0.1,0-0.1,0-0.1c0-0.1,0-0.1,0-0.2v-7c0,0,0-0.1,0-0.1c0,0,0-0.1,0-0.1v-6.2
			c0.1-0.4,0.1-0.7,0.1-1.1v-7c0,0,0-0.1,0-0.1c0,0,0-0.1,0-0.1v-7c0-3.3-2.7-6-6-6h-7c0,0-0.1,0-0.1,0c-0.1,0-0.1,0-0.2,0h-7
			c-0.1,0-0.1,0-0.2,0c0,0-0.1,0-0.2,0h-7c-3.3,0-6,2.7-6,6v1.2H69c-0.1,0-0.1,0-0.1,0c0,0-0.1,0-0.1,0h-7c-0.1,0-0.1,0-0.2,0
			c0,0-0.1,0-0.1,0h-7c-3.3,0-6,2.7-6,6v7c0,3.3,2.7,6,6,6h1.4v1.3c0,0,0,0.1,0,0.1c0,0,0,0.1,0,0.1v7c0,3.3,2.7,6,6,6H63v1.3
			c0,0,0,0.1,0,0.1c0,0,0,0.1,0,0.1v1.3h-1.2c-3.3,0-6,2.7-6,6v7c0,0.1,0,0.1,0,0.1c0,0,0,0.1,0,0.1v7c0,0,0,0.1,0,0.1
			c0,0,0,0.1,0,0.1v1.3h-1.3c-3.3,0-6,2.7-6,6v1.2h-1.3c-3.3,0-6,2.7-6,6v1.3h-1.3c-3.3,0-6,2.7-6,6v7c0,0,0,0.1,0,0.1
			c0,0,0,0.1,0,0.1v1.3h-1.3c-3.3,0-6,2.7-6,6v7c0,3.3,2.7,6,6,6h1.3v1.3c0,3.3,2.7,6,6,6h1.3v1.2c0,3.3,2.7,6,6,6h1.3v1.3
			c0,0,0,0.1,0,0.1c0,0.1,0,0.1,0,0.2v7c0,0,0,0.1,0,0.1c0,0,0,0.1,0,0.1v7c0,3.3,2.7,6,6,6h1.3v1.3c0,0,0,0.1,0,0.1
			c0,0,0,0.1,0,0.1v7c0,0,0,0.1,0,0.1c0,0.1,0,0.1,0,0.2v1.3h-1.3c-3.3,0-6,2.7-6,6v7c0,0,0,0.1,0,0.1c0,0,0,0.1,0,0.1v7
			c0,0,0,0.1,0,0.1c0,0.1,0,0.1,0,0.2v1.2h-1.2c-3.3,0-6,2.7-6,6v1.3H40c-3.3,0-6,2.7-6,6v7c0,0,0,0.1,0,0.2c0,0,0,0.1,0,0.1v7
			c0,0,0,0.1,0,0.1c0,0,0,0.1,0,0.1v1.3h-1.3c-3.3,0-6,2.7-6,6v7c0,0,0,0.1,0,0.1c0,0,0,0.1,0,0.1v7c0,3.3,2.7,6,6,6H34v1.3
			c0,3.3,2.7,6,6,6h7c0.1,0,0.2,0,0.3,0h7c0.1,0,0.1,0,0.2,0h7c3.3,0,6-2.7,6-6v-7c0-3.3-2.7-6-6-6h-1.2v-1.3c0,0,0-0.1,0-0.1
			c0,0,0-0.1,0-0.1v-1.3h1.2c3.3,0,6-2.7,6-6v-7c0,0,0-0.1,0-0.1c0,0,0-0.1,0-0.1v-1.3h1.3c0.5,0,1-0.1,1.5-0.2v1.5c0,3.3,2.7,6,6,6
			h1.3v1.2c0,0,0,0.1,0,0.2c0,0,0,0.1,0,0.1v7c0,0,0,0.1,0,0.1c0,0,0,0.1,0,0.1v7c0,0,0,0.1,0,0.2c0,0,0,0.1,0,0.1v7
			c0,3.3,2.7,6,6,6h7c0.1,0,0.1,0,0.2,0h7c0.1,0,0.2,0,0.3,0h7c0.1,0,0.1,0,0.2,0h7c0.1,0,0.2,0,0.3,0h7c3.3,0,6-2.7,6-6v-7
			c0-3.3-2.7-6-6-6h-7c-0.1,0-0.2,0-0.3,0h-1.2v-1.3c0-3.3-2.7-6-6-6h-1.3v-1.2c0,0,0-0.1,0-0.1c0-0.1,0-0.1,0-0.2v-7
			c0,0,0-0.1,0-0.1c0,0,0-0.1,0-0.1v-7c0,0,0-0.1,0-0.1c0-0.1,0-0.1,0-0.2v-7c0,0,0-0.1,0-0.2c0,0,0-0.1,0-0.1v-7c0,0,0-0.1,0-0.1
			c0,0,0-0.1,0-0.1v-7c0,0,0-0.1,0-0.2c0,0,0-0.1,0-0.1v-7c0,0,0-0.1,0-0.1c0,0,0-0.1,0-0.1v-7c0,0,0-0.1,0-0.2c0,0,0-0.1,0-0.1v-7
			c0-3.3-2.7-6-6-6h-1.2v-1.3c0,0,0-0.1,0-0.1c0,0,0-0.1,0-0.1v-7c0,0,0-0.1,0-0.2c0,0,0-0.1,0-0.1v-7c0,0,0-0.1,0-0.1
			c0,0,0-0.1,0-0.1v-1.2h1.1c0.1,0,0.1,0,0.2,0h1.3v1.2c0,3.3,2.7,6,6,6h7c3.3,0,6-2.7,6-6v-1.1h1.3c3.3,0,6-2.7,6-6v-1.3h1.3
			c3.3,0,6-2.7,6-6v-1.3h1.3c3.3,0,6-2.7,6-6v-7C139.9,127.5,137.3,124.8,133.9,124.8z M104.9,131.9h-1.2v-1.3c0,0,0-0.1,0-0.1
			c0,0,0-0.1,0-0.1v-1.1h1.2c1.4,0,2.7-0.5,3.8-1.3c1,0.8,2.3,1.3,3.7,1.3h1.3v1.3c0,1.4,0.5,2.8,1.4,3.8c-0.8,1-1.3,2.3-1.3,3.8
			v1.3h-1.3c-0.5,0-1,0.1-1.5,0.2v-1.7C110.9,134.6,108.2,131.9,104.9,131.9z"/>
	</g>
</g>
<g id="Слой_1">
	<path class="st1" d="M32.7,246.8h7v7h-7V246.8z M32.7,239.6h7v7h-7V239.6z M40,254.1h7v7h-7V254.1z M40,246.8h7v7h-7V246.8z
		 M40,239.6h7v7h-7V239.6z M40,232.3h7v7h-7V232.3z M40,225.1h7v7h-7V225.1z M40,217.8h7v7h-7V217.8z M47.3,254.1h7v7h-7V254.1z
		 M47.3,246.8h7v7h-7V246.8z M47.3,239.6h7v7h-7V239.6z M47.3,232.3h7v7h-7V232.3z M47.3,225.1h7v7h-7V225.1z M47.3,217.8h7v7h-7
		V217.8z M47.3,210.5h7v7h-7V210.5z M54.5,254.1h7v7h-7V254.1z M54.5,232.3h7v7h-7V232.3z M54.5,225.1h7v7h-7V225.1z M54.5,217.8h7
		v7h-7V217.8z M54.5,210.5h7v7h-7V210.5z M54.5,203.3h7v7h-7V203.3z M54.5,196h7v7h-7V196z M54.5,188.8h7v7h-7V188.8z M54.5,159.7h7
		v7h-7V159.7z M54.5,152.5h7v7h-7V152.5z M54.5,145.2h7v7h-7V145.2z M54.5,137.9h7v7h-7V137.9z M54.5,130.7h7v7h-7V130.7z
		 M54.5,123.4h7v7h-7V123.4z M54.5,116.2h7v7h-7V116.2z M54.5,108.9h7v7h-7V108.9z M54.5,101.6h7v7h-7V101.6z M54.5,94.4h7v7h-7
		V94.4z M61.8,217.8h7v7h-7V217.8z M61.8,210.5h7v7h-7V210.5z M61.8,203.3h7v7h-7V203.3z M61.8,196h7v7h-7V196z M61.8,188.8h7v7h-7
		V188.8z M61.8,181.5h7v7h-7V181.5z M61.8,174.2h7v7h-7V174.2z M61.8,167h7v7h-7V167z M61.8,159.7h7v7h-7V159.7z M61.8,152.5h7v7h-7
		V152.5z M61.8,145.2h7v7h-7V145.2z M61.8,130.7h7v7h-7V130.7z M61.8,116.2h7v7h-7V116.2z M61.8,101.6h7v7h-7V101.6z M61.8,94.4h7v7
		h-7V94.4z M61.8,87.1h7v7h-7V87.1z M61.8,79.9h7v7h-7V79.9z M61.8,72.6h7v7h-7V72.6z M61.8,50.8h7v7h-7V50.8z M61.8,43.6h7v7h-7
		V43.6z M69,196h7v7h-7V196z M69,188.8h7v7h-7V188.8z M69,181.5h7v7h-7V181.5z M69,174.2h7v7h-7V174.2z M69,167h7v7h-7V167z
		 M69,159.7h7v7h-7V159.7z M69,152.5h7v7h-7V152.5z M69,137.9h7v7h-7V137.9z M69,123.4h7v7h-7V123.4z M69,108.9h7v7h-7V108.9z
		 M69,94.4h7v7h-7V94.4z M69,87.1h7v7h-7V87.1z M69,79.9h7v7h-7V79.9z M69,72.6h7v7h-7V72.6z M69,65.3h7v7h-7V65.3z M69,58.1h7v7h-7
		V58.1z M69,50.8h7v7h-7V50.8z M69,43.6h7v7h-7V43.6z M69,36.3h7v7h-7V36.3z M76.3,225.1h7v7h-7V225.1z M76.3,217.8h7v7h-7V217.8z
		 M76.3,210.5h7v7h-7V210.5z M76.3,203.3h7v7h-7V203.3z M76.3,196h7v7h-7V196z M76.3,188.8h7v7h-7V188.8z M76.3,181.5h7v7h-7V181.5z
		 M76.3,174.2h7v7h-7V174.2z M76.3,167h7v7h-7V167z M76.3,159.7h7v7h-7V159.7z M76.3,152.5h7v7h-7V152.5z M76.3,145.2h7v7h-7V145.2z
		 M76.3,130.7h7v7h-7V130.7z M76.3,116.2h7v7h-7V116.2z M76.3,101.6h7v7h-7V101.6z M76.3,87.1h7v7h-7V87.1z M76.3,79.9h7v7h-7V79.9z
		 M76.3,72.6h7v7h-7V72.6z M76.3,65.3h7v7h-7V65.3z M76.3,58.1h7v7h-7V58.1z M76.3,50.8h7v7h-7V50.8z M76.3,43.6h7v7h-7V43.6z
		 M76.3,36.3h7v7h-7V36.3z M83.6,254.1h7v7h-7V254.1z M83.6,246.8h7v7h-7V246.8z M83.6,239.6h7v7h-7V239.6z M83.6,232.3h7v7h-7
		V232.3z M83.6,225.1h7v7h-7V225.1z M83.6,217.8h7v7h-7V217.8z M83.6,210.5h7v7h-7V210.5z M83.6,203.3h7v7h-7V203.3z M83.6,196h7v7
		h-7V196z M83.6,188.8h7v7h-7V188.8z M83.6,181.5h7v7h-7V181.5z M83.6,174.2h7v7h-7V174.2z M83.6,167h7v7h-7V167z M83.6,159.7h7v7
		h-7V159.7z M83.6,152.5h7v7h-7V152.5z M83.6,145.2h7v7h-7V145.2z M83.6,137.9h7v7h-7V137.9z M83.6,130.7h7v7h-7V130.7z M83.6,123.4
		h7v7h-7V123.4z M83.6,116.2h7v7h-7V116.2z M83.6,108.9h7v7h-7V108.9z M83.6,101.6h7v7h-7V101.6z M83.6,94.4h7v7h-7V94.4z
		 M83.6,87.1h7v7h-7V87.1z M83.6,65.3h7v7h-7V65.3z M83.6,58.1h7v7h-7V58.1z M83.6,50.8h7v7h-7V50.8z M83.6,36.3h7v7h-7V36.3z
		 M90.8,254.1h7v7h-7V254.1z M90.8,246.8h7v7h-7V246.8z M90.8,239.6h7v7h-7V239.6z M90.8,232.3h7v7h-7V232.3z M90.8,225.1h7v7h-7
		V225.1z M90.8,217.8h7v7h-7V217.8z M90.8,210.5h7v7h-7V210.5z M90.8,203.3h7v7h-7V203.3z M90.8,196h7v7h-7V196z M90.8,188.8h7v7h-7
		V188.8z M90.8,181.5h7v7h-7V181.5z M90.8,58.1h7v7h-7V58.1z M90.8,50.8h7v7h-7V50.8z M90.8,43.6h7v7h-7V43.6z M98.1,254.1h7v7h-7
		V254.1z M98.1,246.8h7v7h-7V246.8z M105.3,254.1h7v7h-7V254.1z M112.6,254.1h7v7h-7V254.1z M47.1,116.1h7v7h-7V116.1z M39.9,116.1
		h7v7h-7V116.1z M39.9,123.4h7v7h-7V123.4z M32.6,123.4h7v7h-7V123.4z M47.2,101.6h7v7h-7V101.6z M47.2,108.9h7v7h-7V108.9z
		 M39.9,108.9h7v7h-7V108.9z M47.2,130.7h7v7h-7V130.7z M39.9,130.7h7v7h-7V130.7z M47.2,137.9h7v7h-7V137.9z M90.7,123.4h7v7h-7
		V123.4z M90.7,130.6h7v7h-7V130.6z M90.7,137.9h7v7h-7V137.9z M90.7,145.3h7v7h-7V145.3z M97.9,137.9h7v7h-7V137.9z M97.9,145.3h7
		v7h-7V145.3z M230.2,232h7v7h-7V232z M230.2,224.8h7v7h-7V224.8z M230.2,217.5h7v7h-7V217.5z M237.5,253.8h7v7h-7V253.8z
		 M237.5,246.5h7v7h-7V246.5z M237.5,239.3h7v7h-7V239.3z M237.5,232h7v7h-7V232z M237.5,224.8h7v7h-7V224.8z M237.5,217.5h7v7h-7
		V217.5z M237.5,210.2h7v7h-7V210.2z M237.5,203h7v7h-7V203z M237.5,195.7h7v7h-7V195.7z M237.5,188.5h7v7h-7V188.5z M237.5,181.2h7
		v7h-7V181.2z M237.5,173.9h7v7h-7V173.9z M237.5,166.7h7v7h-7V166.7z M237.5,159.4h7v7h-7V159.4z M237.5,152.2h7v7h-7V152.2z
		 M237.5,144.9h7v7h-7V144.9z M237.5,137.6h7v7h-7V137.6z M237.5,130.4h7v7h-7V130.4z M237.5,123.1h7v7h-7V123.1z M237.5,115.9h7v7
		h-7V115.9z M237.5,108.6h7v7h-7V108.6z M237.5,101.3h7v7h-7V101.3z M237.5,94.1h7v7h-7V94.1z M237.5,86.8h7v7h-7V86.8z M237.5,79.6
		h7v7h-7V79.6z M237.5,50.5h7v7h-7V50.5z M237.5,43.3h7v7h-7V43.3z M244.8,253.8h7v7h-7V253.8z M244.8,246.5h7v7h-7V246.5z
		 M244.8,239.3h7v7h-7V239.3z M244.8,232h7v7h-7V232z M244.8,224.8h7v7h-7V224.8z M244.8,217.5h7v7h-7V217.5z M244.8,210.2h7v7h-7
		V210.2z M244.8,203h7v7h-7V203z M244.8,195.7h7v7h-7V195.7z M244.8,188.5h7v7h-7V188.5z M244.8,181.2h7v7h-7V181.2z M244.8,173.9h7
		v7h-7V173.9z M244.8,166.7h7v7h-7V166.7z M244.8,159.4h7v7h-7V159.4z M244.8,152.2h7v7h-7V152.2z M244.8,144.9h7v7h-7V144.9z
		 M244.8,130.4h7v7h-7V130.4z M244.8,115.9h7v7h-7V115.9z M244.8,101.3h7v7h-7V101.3z M244.8,86.8h7v7h-7V86.8z M244.8,79.6h7v7h-7
		V79.6z M244.8,72.3h7v7h-7V72.3z M244.8,65h7v7h-7V65z M244.8,57.8h7v7h-7V57.8z M244.8,50.5h7v7h-7V50.5z M244.8,43.3h7v7h-7V43.3
		z M252.1,253.8h7v7h-7V253.8z M252.1,246.5h7v7h-7V246.5z M252.1,239.3h7v7h-7V239.3z M252.1,224.8h7v7h-7V224.8z M252.1,217.5h7v7
		h-7V217.5z M252.1,210.2h7v7h-7V210.2z M252.1,203h7v7h-7V203z M252.1,195.7h7v7h-7V195.7z M252.1,188.5h7v7h-7V188.5z
		 M252.1,181.2h7v7h-7V181.2z M252.1,173.9h7v7h-7V173.9z M252.1,166.7h7v7h-7V166.7z M252.1,159.4h7v7h-7V159.4z M252.1,152.2h7v7
		h-7V152.2z M252.1,144.9h7v7h-7V144.9z M252.1,137.6h7v7h-7V137.6z M252.1,123.1h7v7h-7V123.1z M252.1,108.6h7v7h-7V108.6z
		 M252.1,94.1h7v7h-7V94.1z M252.1,79.6h7v7h-7V79.6z M252.1,72.3h7v7h-7V72.3z M252.1,65h7v7h-7V65z M252.1,57.8h7v7h-7V57.8z
		 M252.1,50.5h7v7h-7V50.5z M252.1,43.3h7v7h-7V43.3z M259.2,253.8h7v7h-7V253.8z M259.2,246.5h7v7h-7V246.5z M259.2,210.2h7v7h-7
		V210.2z M259.2,203h7v7h-7V203z M259.2,195.7h7v7h-7V195.7z M259.2,188.5h7v7h-7V188.5z M259.2,181.2h7v7h-7V181.2z M259.2,173.9h7
		v7h-7V173.9z M259.2,166.7h7v7h-7V166.7z M259.2,159.4h7v7h-7V159.4z M259.2,152.2h7v7h-7V152.2z M259.2,144.9h7v7h-7V144.9z
		 M259.2,137.6h7v7h-7V137.6z M259.2,130.4h7v7h-7V130.4z M259.2,115.9h7v7h-7V115.9z M259.2,108.6h7v7h-7V108.6z M259.2,101.3h7v7
		h-7V101.3z M259.2,94.1h7v7h-7V94.1z M259.2,86.8h7v7h-7V86.8z M259.2,79.6h7v7h-7V79.6z M259.2,65h7v7h-7V65z M259.2,57.8h7v7h-7
		V57.8z M259.2,50.5h7v7h-7V50.5z M266.5,253.8h7v7h-7V253.8z M266.5,203h7v7h-7V203z M266.5,195.7h7v7h-7V195.7z M266.5,188.5h7v7
		h-7V188.5z M266.5,181.2h7v7h-7V181.2z M266.5,173.9h7v7h-7V173.9z M266.5,166.7h7v7h-7V166.7z M266.5,159.4h7v7h-7V159.4z
		 M266.5,152.2h7v7h-7V152.2z M266.5,144.9h7v7h-7V144.9z M266.5,137.6h7v7h-7V137.6z M266.5,130.4h7v7h-7V130.4z M266.5,123.1h7v7
		h-7V123.1z M266.5,115.9h7v7h-7V115.9z M266.5,57.8h7v7h-7V57.8z M266.5,50.5h7v7h-7V50.5z M266.5,43.3h7v7h-7V43.3z M273.9,195.7
		h7v7h-7V195.7z M273.9,188.5h7v7h-7V188.5z M273.9,181.2h7v7h-7V181.2z M215.8,101.4h7v7h-7V101.4z M215.8,108.6h7v7h-7V108.6z
		 M215.8,115.9h7v7h-7V115.9z M215.8,123.1h7v7h-7V123.1z M223,86.9h7v7h-7V86.9z M223,94.1h7v7h-7V94.1z M223,101.4h7v7h-7V101.4z
		 M223,108.6h7v7h-7V108.6z M223,115.9h7v7h-7V115.9z M223,123.1h7v7h-7V123.1z M223,130.4h7v7h-7V130.4z M230.3,79.6h7v7h-7V79.6z
		 M230.3,86.9h7v7h-7V86.9z M230.3,94.1h7v7h-7V94.1z M230.3,101.4h7v7h-7V101.4z M230.3,108.6h7v7h-7V108.6z M230.3,130.4h7v7h-7
		V130.4z M223,137.7h7v7h-7V137.7z M223,152.2h7v7h-7V152.2z M223,159.5h7v7h-7V159.5z M223,166.7h7v7h-7V166.7z M230.3,137.7h7v7
		h-7V137.7z M230.3,144.9h7v7h-7V144.9z M230.3,152.2h7v7h-7V152.2z M230.3,159.5h7v7h-7V159.5z M230.3,166.7h7v7h-7V166.7z
		 M273.9,137.5h7v7h-7V137.5z M273.9,144.7h7v7h-7V144.7z M273.9,152h7v7h-7V152z M273.9,159.3h7v7h-7V159.3z M391.6,254.1h7v7h-7
		V254.1z M391.6,246.8h7v7h-7V246.8z M391.6,239.5h7v7h-7V239.5z M391.6,232.3h7v7h-7V232.3z M391.6,225h7v7h-7V225z M391.6,217.8h7
		v7h-7V217.8z M391.6,210.5h7v7h-7V210.5z M391.6,196.1h7v7h-7V196.1z M391.6,188.9h7v7h-7V188.9z M391.6,181.6h7v7h-7V181.6z
		 M391.6,174.3h7v7h-7V174.3z M391.6,167.1h7v7h-7V167.1z M391.6,152.6h7v7h-7V152.6z M391.6,145.3h7v7h-7V145.3z M391.6,138h7v7h-7
		V138z M391.6,130.8h7v7h-7V130.8z M391.6,123.5h7v7h-7V123.5z M391.6,116.3h7v7h-7V116.3z M391.6,109h7v7h-7V109z M391.6,101.7h7v7
		h-7V101.7z M391.6,94.5h7v7h-7V94.5z M391.6,87.2h7v7h-7V87.2z M398.8,254.1h7v7h-7V254.1z M398.8,246.8h7v7h-7V246.8z
		 M398.8,239.5h7v7h-7V239.5z M398.8,232.3h7v7h-7V232.3z M398.8,225h7v7h-7V225z M398.8,217.8h7v7h-7V217.8z M398.8,210.5h7v7h-7
		V210.5z M398.8,196.1h7v7h-7V196.1z M398.8,188.9h7v7h-7V188.9z M398.8,181.6h7v7h-7V181.6z M398.8,174.3h7v7h-7V174.3z
		 M398.8,167.1h7v7h-7V167.1z M398.8,159.8h7v7h-7V159.8z M398.8,152.6h7v7h-7V152.6z M398.8,145.3h7v7h-7V145.3z M398.8,130.8h7v7
		h-7V130.8z M398.8,116.3h7v7h-7V116.3z M398.8,101.7h7v7h-7V101.7z M398.8,94.5h7v7h-7V94.5z M398.8,87.2h7v7h-7V87.2z M398.8,80h7
		v7h-7V80z M398.8,72.7h7v7h-7V72.7z M398.8,50.9h7v7h-7V50.9z M398.8,43.7h7v7h-7V43.7z M406.1,254.1h7v7h-7V254.1z M406.1,232.3h7
		v7h-7V232.3z M406.1,225h7v7h-7V225z M406.1,196.1h7v7h-7V196.1z M406.1,188.9h7v7h-7V188.9z M406.1,181.6h7v7h-7V181.6z
		 M406.1,174.3h7v7h-7V174.3z M406.1,167.1h7v7h-7V167.1z M406.1,159.8h7v7h-7V159.8z M406.1,152.6h7v7h-7V152.6z M406.1,138h7v7h-7
		V138z M406.1,123.5h7v7h-7V123.5z M406.1,109h7v7h-7V109z M406.1,94.5h7v7h-7V94.5z M406.1,87.2h7v7h-7V87.2z M406.1,80h7v7h-7V80z
		 M406.1,72.7h7v7h-7V72.7z M406.1,65.4h7v7h-7V65.4z M406.1,58.2h7v7h-7V58.2z M406.1,50.9h7v7h-7V50.9z M406.1,43.7h7v7h-7V43.7z
		 M413.3,254.1h7v7h-7V254.1z M413.3,239.5h7v7h-7V239.5z M413.3,232.3h7v7h-7V232.3z M413.3,225h7v7h-7V225z M413.3,217.8h7v7h-7
		V217.8z M413.3,174.3h7v7h-7V174.3z M413.3,167.1h7v7h-7V167.1z M413.3,159.8h7v7h-7V159.8z M413.3,152.6h7v7h-7V152.6z
		 M413.3,145.3h7v7h-7V145.3z M413.3,130.8h7v7h-7V130.8z M413.3,116.3h7v7h-7V116.3z M413.3,101.7h7v7h-7V101.7z M413.3,87.2h7v7
		h-7V87.2z M413.3,80h7v7h-7V80z M413.3,72.7h7v7h-7V72.7z M413.3,65.4h7v7h-7V65.4z M413.3,58.2h7v7h-7V58.2z M413.3,50.9h7v7h-7
		V50.9z M413.3,43.7h7v7h-7V43.7z M420.6,246.8h7v7h-7V246.8z M420.6,239.5h7v7h-7V239.5z M420.6,232.3h7v7h-7V232.3z M420.6,225h7
		v7h-7V225z M420.6,217.8h7v7h-7V217.8z M420.6,210.5h7v7h-7V210.5z M420.6,196.1h7v7h-7V196.1z M420.6,174.3h7v7h-7V174.3z
		 M420.6,167.1h7v7h-7V167.1z M420.6,159.8h7v7h-7V159.8z M420.6,152.6h7v7h-7V152.6z M420.6,145.3h7v7h-7V145.3z M420.6,138h7v7h-7
		V138z M420.6,130.8h7v7h-7V130.8z M420.6,123.5h7v7h-7V123.5z M420.6,116.3h7v7h-7V116.3z M420.6,109h7v7h-7V109z M420.6,101.7h7v7
		h-7V101.7z M420.6,94.5h7v7h-7V94.5z M420.6,87.2h7v7h-7V87.2z M420.6,65.4h7v7h-7V65.4z M420.6,58.2h7v7h-7V58.2z M420.6,50.9h7v7
		h-7V50.9z M427.9,246.8h7v7h-7V246.8z M427.9,239.5h7v7h-7V239.5z M427.9,217.8h7v7h-7V217.8z M427.9,210.5h7v7h-7V210.5z
		 M427.9,196.1h7v7h-7V196.1z M427.9,188.9h7v7h-7V188.9z M427.9,181.6h7v7h-7V181.6z M427.9,174.3h7v7h-7V174.3z M427.9,167.1h7v7
		h-7V167.1z M427.9,159.8h7v7h-7V159.8z M427.9,152.6h7v7h-7V152.6z M427.9,58.2h7v7h-7V58.2z M427.9,50.9h7v7h-7V50.9z M427.9,43.7
		h7v7h-7V43.7z M435.1,196.1h7v7h-7V196.1z M435.1,188.9h7v7h-7V188.9z M435.1,181.6h7v7h-7V181.6z M435.1,174.3h7v7h-7V174.3z
		 M435.1,167.1h7v7h-7V167.1z M442.4,188.9h7v7h-7V188.9z M442.4,181.6h7v7h-7V181.6z M391.6,203.3h7v7h-7V203.3z M398.8,203.3h7v7
		h-7V203.3z M420.6,203.3h7v7h-7V203.3z M427.9,203.3h7v7h-7V203.3z M427.9,109.2h7v7h-7V109.2z M427.9,116.4h7v7h-7V116.4z
		 M427.9,123.7h7v7h-7V123.7z M435.2,116.4h7v7h-7V116.4z M435.2,123.7h7v7h-7V123.7z M435.2,138.2h7v7h-7V138.2z M435.2,131h7v7h-7
		V131z M442.4,131h7v7h-7V131z M442.4,138.2h7v7h-7V138.2z M442.4,145.4h7v7h-7V145.4z M427.9,131h7v7h-7V131z M449.7,145.4h7v7h-7
		V145.4z M384.3,101.7h7v7h-7V101.7z M384.3,109h7v7h-7V109z M384.3,116.2h7v7h-7V116.2z M384.3,123.5h7v7h-7V123.5z M384.3,152.6h7
		v7h-7V152.6z M391.6,159.9h7v7h-7V159.9z M560.1,254.1h7v7h-7V254.1z M560.1,246.9h7v7h-7V246.9z M560.1,239.6h7v7h-7V239.6z
		 M560.1,232.4h7v7h-7V232.4z M560.1,225.1h7v7h-7V225.1z M560.1,217.8h7v7h-7V217.8z M560.1,210.6h7v7h-7V210.6z M567.4,254.1h7v7
		h-7V254.1z M567.4,246.9h7v7h-7V246.9z M567.4,239.6h7v7h-7V239.6z M567.4,232.4h7v7h-7V232.4z M567.4,225.1h7v7h-7V225.1z
		 M567.4,217.8h7v7h-7V217.8z M567.4,210.6h7v7h-7V210.6z M567.4,203.3h7v7h-7V203.3z M567.4,196.1h7v7h-7V196.1z M567.4,188.8h7v7
		h-7V188.8z M567.4,159.8h7v7h-7V159.8z M567.4,152.5h7v7h-7V152.5z M567.4,145.2h7v7h-7V145.2z M567.4,138h7v7h-7V138z
		 M567.4,130.7h7v7h-7V130.7z M567.4,123.5h7v7h-7V123.5z M567.4,116.2h7v7h-7V116.2z M567.4,108.9h7v7h-7V108.9z M567.4,101.7h7v7
		h-7V101.7z M567.4,94.4h7v7h-7V94.4z M567.4,87.2h7v7h-7V87.2z M574.6,254.1h7v7h-7C574.6,261.1,574.6,254.1,574.6,254.1z
		 M574.6,246.9h7v7h-7C574.6,253.9,574.6,246.9,574.6,246.9z M574.6,225.1h7v7h-7C574.6,232.1,574.6,225.1,574.6,225.1z
		 M574.6,217.8h7v7h-7C574.6,224.8,574.6,217.8,574.6,217.8z M574.6,210.6h7v7h-7C574.6,217.6,574.6,210.6,574.6,210.6z
		 M574.6,203.3h7v7h-7C574.6,210.3,574.6,203.3,574.6,203.3z M574.6,196.1h7v7h-7C574.6,203.1,574.6,196.1,574.6,196.1z
		 M574.6,188.8h7v7h-7C574.6,195.8,574.6,188.8,574.6,188.8z M574.6,181.5h7v7h-7C574.6,188.5,574.6,181.5,574.6,181.5z
		 M574.6,174.3h7v7h-7C574.6,181.3,574.6,174.3,574.6,174.3z M574.6,167h7v7h-7C574.6,174,574.6,167,574.6,167z M574.6,159.8h7v7h-7
		C574.6,166.8,574.6,159.8,574.6,159.8z M574.6,152.5h7v7h-7C574.6,159.5,574.6,152.5,574.6,152.5z M574.6,138h7v7h-7
		C574.6,145,574.6,138,574.6,138z M574.6,123.5h7v7h-7C574.6,130.5,574.6,123.5,574.6,123.5z M574.6,108.9h7v7h-7
		C574.6,115.9,574.6,108.9,574.6,108.9z M574.6,94.4h7v7h-7C574.6,101.4,574.6,94.4,574.6,94.4z M574.6,87.2h7v7h-7
		C574.6,94.2,574.6,87.2,574.6,87.2z M574.6,79.9h7v7h-7C574.6,86.9,574.6,79.9,574.6,79.9z M574.6,72.6h7v7h-7
		C574.6,79.6,574.6,72.6,574.6,72.6z M574.6,50.9h7v7h-7C574.6,57.9,574.6,50.9,574.6,50.9z M574.6,43.6h7v7h-7
		C574.6,50.6,574.6,43.6,574.6,43.6z M581.9,254.1h7v7h-7V254.1z M581.9,246.9h7v7h-7V246.9z M581.9,203.3h7v7h-7V203.3z
		 M581.9,196.1h7v7h-7V196.1z M581.9,188.8h7v7h-7V188.8z M581.9,181.5h7v7h-7V181.5z M581.9,174.3h7v7h-7V174.3z M581.9,167h7v7h-7
		V167z M581.9,159.8h7v7h-7V159.8z M581.9,145.2h7v7h-7V145.2z M581.9,130.7h7v7h-7V130.7z M581.9,116.2h7v7h-7V116.2z M581.9,101.7
		h7v7h-7V101.7z M581.9,94.4h7v7h-7V94.4z M581.9,87.2h7v7h-7V87.2z M581.9,79.9h7v7h-7V79.9z M581.9,72.6h7v7h-7V72.6z M581.9,65.4
		h7v7h-7V65.4z M581.9,58.1h7v7h-7V58.1z M581.9,50.9h7v7h-7V50.9z M581.9,43.6h7v7h-7V43.6z M589.1,254.1h7v7h-7V254.1z
		 M589.1,181.5h7v7h-7V181.5z M589.1,174.3h7v7h-7V174.3z M589.1,167h7v7h-7V167z M589.1,159.8h7v7h-7V159.8z M589.1,152.5h7v7h-7
		V152.5z M589.1,138h7v7h-7V138z M589.1,123.5h7v7h-7V123.5z M589.1,108.9h7v7h-7V108.9z M589.1,94.4h7v7h-7V94.4z M589.1,87.2h7v7
		h-7V87.2z M589.1,79.9h7v7h-7V79.9z M589.1,72.6h7v7h-7V72.6z M589.1,65.4h7v7h-7V65.4z M589.1,58.1h7v7h-7V58.1z M589.1,50.9h7v7
		h-7V50.9z M589.1,43.6h7v7h-7V43.6z M596.4,188.8h7v7h-7V188.8z M596.4,181.5h7v7h-7V181.5z M596.4,174.3h7v7h-7V174.3z M596.4,167
		h7v7h-7V167z M596.4,159.8h7v7h-7V159.8z M596.4,152.5h7v7h-7V152.5z M596.4,145.2h7v7h-7V145.2z M596.4,138h7v7h-7V138z
		 M596.4,130.7h7v7h-7V130.7z M596.4,123.5h7v7h-7V123.5z M596.4,116.2h7v7h-7V116.2z M596.4,108.9h7v7h-7V108.9z M596.4,101.7h7v7
		h-7V101.7z M596.4,94.4h7v7h-7V94.4z M596.4,65.4h7v7h-7V65.4z M596.4,58.1h7v7h-7V58.1z M596.4,50.9h7v7h-7V50.9z M603.6,217.8h7
		v7h-7V217.8z M603.6,210.6h7v7h-7V210.6z M603.6,203.3h7v7h-7V203.3z M603.6,196.1h7v7h-7V196.1z M603.6,188.8h7v7h-7V188.8z
		 M603.6,181.5h7v7h-7V181.5z M603.6,174.3h7v7h-7V174.3z M603.6,167h7v7h-7V167z M603.6,159.8h7v7h-7V159.8z M603.6,58.1h7v7h-7
		V58.1z M603.6,50.9h7v7h-7V50.9z M603.6,43.6h7v7h-7V43.6z M610.9,239.6h7v7h-7V239.6z M610.9,232.4h7v7h-7V232.4z M610.9,225.1h7
		v7h-7V225.1z M610.9,217.8h7v7h-7V217.8z M610.9,210.6h7v7h-7V210.6z M610.9,203.3h7v7h-7V203.3z M610.9,196.1h7v7h-7V196.1z
		 M610.9,188.8h7v7h-7V188.8z M610.9,181.5h7v7h-7V181.5z M618.2,246.9h7v7h-7V246.9z M618.2,239.6h7v7h-7V239.6z M618.2,232.4h7v7
		h-7V232.4z M618.2,225.1h7v7h-7V225.1z M618.2,217.8h7v7h-7V217.8z M618.2,210.6h7v7h-7V210.6z M618.2,203.3h7v7h-7V203.3z
		 M618.2,196.1h7v7h-7V196.1z M625.4,246.9h7v7h-7V246.9z M625.4,239.6h7v7h-7V239.6z M625.4,232.4h7v7h-7V232.4z M632.7,246.9h7v7
		h-7V246.9z M632.7,239.6h7v7h-7V239.6z M640,239.6h7v7h-7C640,246.6,640,239.6,640,239.6z M603.6,108.9h7v7h-7V108.9z M603.6,116.2
		h7v7h-7V116.2z M610.9,116.2h7v7h-7V116.2z M603.6,123.5h7v7h-7V123.5z M610.9,123.5h7v7h-7V123.5z M610.9,130.7h7v7h-7V130.7z
		 M618.1,123.5h7v7h-7V123.5z M618.1,130.7h7v7h-7V130.7z M618.1,138h7v7h-7V138z M625.4,130.7h7v7h-7V130.7z M625.4,138h7v7h-7V138
		z M625.4,145.2h7v7h-7V145.2z M603.6,130.8h7v7h-7V130.8z M545.7,116.2h7v7h-7V116.2z M545.7,123.4h7v7h-7V123.4z M545.7,130.7h7v7
		h-7V130.7z M545.7,137.9h7v7h-7V137.9z M552.9,101.7h7v7h-7V101.7z M552.9,108.9h7v7h-7V108.9z M552.9,116.2h7v7h-7V116.2z
		 M552.9,123.4h7v7h-7V123.4z M552.9,130.7h7v7h-7V130.7z M552.9,137.9h7v7h-7V137.9z M560.2,94.4h7v7h-7V94.4z M560.2,101.7h7v7h-7
		V101.7z M560.2,108.9h7v7h-7V108.9z M560.2,116.2h7v7h-7V116.2z M560.2,123.4h7v7h-7V123.4z M545.7,145.2h7v7h-7V145.2z M553,152.4
		h7v7h-7V152.4z M553,159.6h7v7h-7V159.6z M553,167h7v7h-7V167z M552.9,145.2h7v7h-7V145.2z M560.1,159.6h7v7h-7V159.6z M560.1,167
		h7v7h-7V167z M717.8,246.8h7v7h-7V246.8z M717.8,239.5h7v7h-7V239.5z M717.8,232.3h7v7h-7V232.3z M725.1,254.1h7v7h-7V254.1z
		 M725.1,246.8h7v7h-7V246.8z M725.1,239.5h7v7h-7V239.5z M725.1,232.3h7v7h-7V232.3z M725.1,225h7v7h-7V225z M725.1,217.8h7v7h-7
		V217.8z M732.5,254.1h7v7h-7V254.1z M732.5,232.3h7v7h-7V232.3z M732.5,225h7v7h-7V225z M732.5,217.8h7v7h-7V217.8z M732.5,210.5h7
		v7h-7V210.5z M732.5,203.2h7v7h-7V203.2z M739.6,254.1h7v7h-7V254.1z M739.6,217.8h7v7h-7V217.8z M739.6,210.5h7v7h-7V210.5z
		 M739.6,203.2h7v7h-7V203.2z M739.6,196h7v7h-7V196z M739.6,188.7h7v7h-7V188.7z M739.6,181.5h7v7h-7V181.5z M739.6,174.2h7v7h-7
		V174.2z M739.6,167h7v7h-7V167z M739.6,159.7h7v7h-7V159.7z M739.6,152.4h7v7h-7V152.4z M739.6,145.2h7v7h-7V145.2z M739.6,137.9h7
		v7h-7V137.9z M739.6,130.7h7v7h-7V130.7z M739.6,123.4h7v7h-7V123.4z M739.6,116.1h7v7h-7V116.1z M739.6,108.9h7v7h-7V108.9z
		 M739.6,101.6h7v7h-7V101.6z M739.6,94.3h7v7h-7V94.3z M739.6,87.1h7v7h-7V87.1z M739.6,79.8h7v7h-7V79.8z M747,210.5h7v7h-7V210.5
		z M747,203.2h7v7h-7V203.2z M747,196h7v7h-7V196z M747,188.7h7v7h-7V188.7z M747,181.5h7v7h-7V181.5z M747,174.2h7v7h-7V174.2z
		 M747,167h7v7h-7V167z M747,159.7h7v7h-7V159.7z M747,152.4h7v7h-7V152.4z M747,137.9h7v7h-7V137.9z M747,123.4h7v7h-7V123.4z
		 M747,108.9h7v7h-7V108.9z M747,101.6h7v7h-7V101.6z M747,94.3h7v7h-7V94.3z M747,87.1h7v7h-7V87.1z M747,79.8h7v7h-7V79.8z
		 M747,72.6h7v7h-7V72.6z M747,50.8h7v7h-7V50.8z M747,43.5h7v7h-7V43.5z M754.1,196h7v7h-7V196z M754.1,188.7h7v7h-7V188.7z
		 M754.1,181.5h7v7h-7V181.5z M754.1,174.2h7v7h-7V174.2z M754.1,167h7v7h-7V167z M754.1,159.7h7v7h-7V159.7z M754.1,145.2h7v7h-7
		V145.2z M754.1,130.7h7v7h-7V130.7z M754.1,116.1h7v7h-7V116.1z M754.1,101.6h7v7h-7V101.6z M754.1,87.1h7v7h-7V87.1z M754.1,79.8
		h7v7h-7V79.8z M754.1,72.6h7v7h-7V72.6z M754.1,65.3h7v7h-7V65.3z M754.1,58.1h7v7h-7V58.1z M754.1,50.8h7v7h-7V50.8z M754.1,43.5
		h7v7h-7V43.5z M761.5,188.7h7v7h-7V188.7z M761.5,181.5h7v7h-7V181.5z M761.5,174.2h7v7h-7V174.2z M761.5,167h7v7h-7V167z
		 M761.5,159.7h7v7h-7V159.7z M761.5,152.4h7v7h-7V152.4z M761.5,137.9h7v7h-7V137.9z M761.5,123.4h7v7h-7V123.4z M761.5,108.9h7v7
		h-7V108.9z M761.5,94.3h7v7h-7V94.3z M761.5,87.1h7v7h-7V87.1z M761.5,79.8h7v7h-7V79.8z M761.5,72.6h7v7h-7V72.6z M761.5,65.3h7v7
		h-7V65.3z M761.5,58.1h7v7h-7V58.1z M761.5,50.8h7v7h-7V50.8z M761.5,43.5h7v7h-7V43.5z M768.8,217.8h7v7h-7V217.8z M768.8,210.5h7
		v7h-7V210.5z M768.8,203.2h7v7h-7V203.2z M768.8,196h7v7h-7V196z M768.8,188.7h7v7h-7V188.7z M768.8,181.5h7v7h-7V181.5z
		 M768.8,174.2h7v7h-7V174.2z M768.8,167h7v7h-7V167z M768.8,159.7h7v7h-7V159.7z M768.8,152.4h7v7h-7V152.4z M768.8,145.2h7v7h-7
		V145.2z M768.8,137.9h7v7h-7V137.9z M768.8,130.7h7v7h-7V130.7z M768.8,123.4h7v7h-7V123.4z M768.8,116.1h7v7h-7V116.1z
		 M768.8,108.9h7v7h-7V108.9z M768.8,101.6h7v7h-7V101.6z M768.8,94.3h7v7h-7V94.3z M768.8,65.3h7v7h-7V65.3z M768.8,58.1h7v7h-7
		V58.1z M768.8,50.8h7v7h-7V50.8z M776,239.5h7v7h-7V239.5z M776,232.3h7v7h-7V232.3z M776,225h7v7h-7V225z M776,217.8h7v7h-7V217.8
		z M776,210.5h7v7h-7V210.5z M776,203.2h7v7h-7V203.2z M776,196h7v7h-7V196z M776,188.7h7v7h-7V188.7z M776,181.5h7v7h-7V181.5z
		 M776,174.2h7v7h-7V174.2z M776,58.1h7v7h-7V58.1z M776,50.8h7v7h-7V50.8z M776,43.5h7v7h-7V43.5z M783.2,254.1h7v7h-7V254.1z
		 M783.2,246.8h7v7h-7V246.8z M783.2,239.5h7v7h-7V239.5z M783.2,232.3h7v7h-7V232.3z M783.2,225h7v7h-7V225z M783.2,217.8h7v7h-7
		V217.8z M783.2,210.5h7v7h-7V210.5z M783.2,203.2h7v7h-7V203.2z M783.2,196h7v7h-7V196z M776,246.8h7v7h-7V246.8z M790.5,246.8h7v7
		h-7V246.8z M790.5,239.5h7v7h-7V239.5z M797.8,246.8h7v7h-7V246.8z M805,246.8h7v7h-7V246.8z M776,108.9h7v7h-7V108.9z M776,116.1
		h7v7h-7V116.1z M776,123.4h7v7h-7V123.4z M783.2,116.1h7v7h-7V116.1z M783.2,123.4h7v7h-7V123.4z M790.5,123.4h7v7h-7V123.4z
		 M783.2,130.7h7v7h-7V130.7z M790.5,130.7h7v7h-7V130.7z M790.5,137.9h7v7h-7V137.9z M797.8,130.7h7v7h-7V130.7z M790.5,109h7v7h-7
		V109z M812.2,130.8h7v7h-7V130.8z M797.7,101.7h7v7h-7V101.7z M819.5,123.5h7v7h-7V123.5z M805,94.4h7v7h-7V94.4z M812.2,101.6h7v7
		h-7V101.6z M819.5,108.9h7v7h-7V108.9z M826.8,116.2h7v7h-7V116.2z M797.8,137.9h7v7h-7V137.9z M797.8,145.2h7v7h-7V145.2z
		 M805,137.9h7v7h-7V137.9z M805,145.2h7v7h-7V145.2z M717.8,108.9h7v7h-7V108.9z M717.8,116.1h7v7h-7V116.1z M717.8,123.4h7v7h-7
		V123.4z M717.8,130.6h7v7h-7V130.6z M717.8,137.9h7v7h-7V137.9z M725,94.4h7v7h-7V94.4z M725,101.6h7v7h-7V101.6z M725,108.9h7v7
		h-7V108.9z M725,116.1h7v7h-7V116.1z M725,123.4h7v7h-7V123.4z M725,130.6h7v7h-7V130.6z M725,137.9h7v7h-7V137.9z M732.3,87.1h7v7
		h-7V87.1z M732.3,94.4h7v7h-7V94.4z M732.3,101.6h7v7h-7V101.6z M732.3,108.9h7v7h-7V108.9z M732.3,116.1h7v7h-7V116.1z
		 M732.3,123.4h7v7h-7V123.4z M732.3,130.6h7v7h-7V130.6z M717.8,145.2h7v7h-7V145.2z M717.8,152.4h7v7h-7V152.4z M717.8,159.7h7v7
		h-7V159.7z M717.8,167h7v7h-7V167z M725,145.2h7v7h-7V145.2z M725,152.4h7v7h-7V152.4z M725,159.7h7v7h-7V159.7z M725,167h7v7h-7
		V167z M76.3,29.1h7v7h-7V29.1z M83.6,29.1h7v7h-7V29.1z M90.9,29.1h7v7h-7V29.1z M90.9,36.3h7v7h-7V36.3z M54.4,36.3h7v7h-7V36.3z
		 M61.7,36.3h7v7h-7V36.3z M244.6,36h7v7h-7V36z M251.9,36h7v7h-7V36z M259.2,36h7v7h-7V36z M251.9,28.8h7v7h-7V28.8z M259.2,28.8h7
		v7h-7V28.8z M266.5,28.8h7v7h-7V28.8z M266.5,36h7v7h-7V36z M230.1,36h7v7h-7V36z M237.4,36h7v7h-7V36z M406,36.3h7v7h-7V36.3z
		 M413.3,36.3h7v7h-7V36.3z M420.6,36.3h7v7h-7V36.3z M413.3,29.2h7v7h-7V29.2z M420.6,29.2h7v7h-7V29.2z M427.9,29.2h7v7h-7V29.2z
		 M427.9,36.3h7v7h-7V36.3z M391.4,36.3h7v7h-7V36.3z M398.7,36.3h7v7h-7V36.3z M581.8,36.3h7v7h-7V36.3z M589,36.3h7v7h-7V36.3z
		 M596.3,36.3h7v7h-7V36.3z M589,29.1h7v7h-7V29.1z M596.3,29.1h7v7h-7V29.1z M603.6,29.1h7v7h-7V29.1z M603.6,36.3h7v7h-7V36.3z
		 M567.1,36.3h7v7h-7V36.3z M574.5,36.3h7v7h-7V36.3z M754,36.2h7v7h-7V36.2z M761.3,36.2h7v7h-7V36.2z M768.6,36.2h7v7h-7V36.2z
		 M761.3,29h7v7h-7V29z M768.6,29h7v7h-7V29z M776,29h7v7h-7V29z M776,36.2h7v7h-7V36.2z M739.5,36.2h7v7h-7V36.2z M746.8,36.2h7v7
		h-7V36.2z M610.8,101.5h7v7h-7V101.5z M632.6,123.3h7v7h-7V123.3z M618.1,94.2h7v7h-7V94.2z M639.9,116h7v7h-7V116z M625.3,87h7v7
		h-7V87z M632.6,94.3h7v7h-7V94.3z M639.8,101.6h7v7h-7V101.6z M647.1,108.8h7v7h-7V108.8z M457,138.4h7v7h-7V138.4z M442.5,109.3h7
		v7h-7V109.3z M464.3,131.1h7v7h-7V131.1z M449.8,102h7v7h-7V102z M457,109.2h7v7h-7V109.2z M464.3,116.5h7v7h-7V116.5z
		 M471.6,123.8h7v7h-7V123.8z M281.1,145.1h7v7h-7V145.1z M288.4,137.8h7v7h-7V137.8z M273.9,108.8h7v7h-7V108.8z M281.1,116h7v7h-7
		V116z M288.4,123.3h7v7h-7V123.3z M295.6,130.6h7v7h-7V130.6z M112.4,145.4h7v7h-7V145.4z M97.9,116.3h7v7h-7V116.3z M119.7,138.1
		h7v7h-7V138.1z M105.2,109h7v7h-7V109z M112.4,116.2h7v7h-7V116.2z M119.7,123.5h7v7h-7V123.5z M127,130.8h7v7h-7V130.8z
		 M105.2,152.5h7v7h-7V152.5z"/>
</g>
</svg>
