<?xml version="1.0" encoding="utf-8"?>
<!-- Generator: Adobe Illustrator 27.3.1, SVG Export Plug-In . SVG Version: 6.00 Build 0)  -->
<svg version="1.1" xmlns="http://www.w3.org/2000/svg" xmlns:xlink="http://www.w3.org/1999/xlink" x="0px" y="0px"
	 viewBox="0 0 152.2 261.1" style="enable-background:new 0 0 152.2 261.1;" xml:space="preserve">
<style type="text/css">
	.st0{fill:#FCE8B3;}
	.st1{fill:#1E0E01;}
</style>
<g id="Слой_2">
	<g>
		<path class="st0" d="M134.1,117.8h-1.3v-1.3c0-3.3-2.7-6-6-6h-1.3v-1.3c0-3.3-2.7-6-6-6h-1.2V102c0-3.3-2.7-6-6-6h-7
			c-3.3,0-6,2.7-6,6v1.3h-1.3c-1.4,0-2.7,0.5-3.7,1.3c-1-0.9-2.4-1.4-3.9-1.4h-1.3v-1.5c0,0,0-0.1,0-0.1c0,0,0-0.1,0-0.1v-7
			c0-0.1,0-0.1,0-0.1c0,0,0-0.1,0-0.1v-7c0-3.3-2.7-6-6-6h-1.3V80c0-0.1,0-0.1,0-0.1c0,0,0-0.1,0-0.1v-1.3h1.3c3.3,0,6-2.7,6-6v-1.2
			h1.3c3.3,0,6-2.7,6-6v-7c0-0.1,0-0.1,0-0.1c0-0.1,0-0.1,0-0.2v-7c0,0,0-0.1,0-0.1c0,0,0-0.1,0-0.1v-7c0-0.1,0-0.1,0-0.2
			c0-0.1,0-0.1,0-0.2v-7c0,0,0-0.1,0-0.1c0,0,0-0.1,0-0.1v-7c0-3.3-2.7-6-6-6h-7c0,0-0.1,0-0.1,0c-0.1,0-0.1,0-0.2,0h-7
			c-0.1,0-0.1,0-0.2,0c0,0-0.1,0-0.2,0h-7c-3.3,0-6,2.7-6,6v1.2h-1.3c0,0-0.1,0-0.1,0c-0.1,0-0.1,0-0.2,0h-7c0,0-0.1,0-0.1,0
			c-0.1,0-0.1,0-0.2,0h-7c-3.3,0-6,2.7-6,6v7c0,3.3,2.7,6,6,6h1.4v1.4c0,0,0,0.1,0,0.1c0,0,0,0.1,0,0.1v7c0,3.3,2.7,6,6,6h1.3v1.3
			c0,0,0,0.1,0,0.1c0,0,0,0.1,0,0.1v1.3h-1.3c-3.3,0-6,2.7-6,6v7c0,0.1,0,0.1,0,0.1c0,0,0,0.1,0,0.1v1.2h-1.2c-3.3,0-6,2.7-6,6v7
			c0,0.1,0,0.1,0,0.1c0,0,0,0.1,0,0.1v1.2h-1.3c-3.3,0-6,2.7-6,6v7c0,0.1,0,0.1,0,0.1c0,0,0,0.1,0,0.1v7c0,0,0,0.1,0,0.1
			c0,0,0,0.1,0,0.1v7c0,0.1,0,0.1,0,0.1c0,0,0,0.1,0,0.1v7c0,3.3,2.7,6,6,6h1.3v1.3c0,0,0,0.1,0,0.1c0,0,0,0.1,0,0.1v7
			c0,0,0,0.1,0,0.1c0,0.1,0,0.1,0,0.2v1.3h-1.3c-3.3,0-6,2.7-6,6v7c0,3.3,2.7,6,6,6h1.3v1.3c0,0,0,0.1,0,0.1c0,0,0,0.1,0,0.1v7
			c0,0,0,0.1,0,0.1c0,0,0,0.1,0,0.1v7c0,0,0,0.1,0,0.2c0,0,0,0.1,0,0.1v7c0,0.1,0,0.1,0,0.2c0,0,0,0.1,0,0.2v7c0,0,0,0.1,0,0.1
			c0,0,0,0.1,0,0.1v7c0,0,0,0.1,0,0.1c0,0,0,0.1,0,0.1v7c0,0,0,0.1,0,0.1c0,0,0,0.1,0,0.1v7c0,0,0,0.1,0,0.1c0,0.1,0,0.1,0,0.2v7
			c0,0,0,0.1,0,0.1c0,0,0,0.1,0,0.1v7c0,0,0,0.1,0,0.1c0,0.1,0,0.1,0,0.2v7c0,0,0,0.1,0,0.1c0,0,0,0.1,0,0.1v7c0,0,0,0.1,0,0.1
			c0,0.1,0,0.1,0,0.2v7c0,0,0,0.1,0,0.2c0,0,0,0.1,0,0.1v7c0,3.3,2.7,6,6,6h7c0.1,0,0.1,0,0.2,0h7c0.1,0,0.2,0,0.3,0h7
			c0.1,0,0.1,0,0.2,0h7c3.3,0,6-2.7,6-6v-1.3h1.3c0.1,0,0.2,0,0.3,0h7c3.3,0,6-2.7,6-6v-7c0,0,0-0.1,0-0.2c0,0,0-0.1,0-0.1v-7
			c0-3.3-2.7-6-6-6h-1.3v-1.2c0,0,0-0.1,0-0.2c0,0,0-0.1,0-0.1v-1.2h1.3c3.3,0,6-2.7,6-6v-7c0,0,0-0.1,0-0.2c0,0,0-0.1,0-0.1v-7
			c0,0,0-0.1,0-0.1c0,0,0-0.1,0-0.1v-1.2h1.2c3.3,0,6-2.7,6-6v-1.2h1.3c3.3,0,6-2.7,6-6v-7c0-0.1,0-0.1,0-0.2c0,0,0-0.1,0-0.2v-7
			c0-3.3-2.7-6-6-6h-1.3v-1.3c0,0,0-0.1,0-0.1c0,0,0-0.1,0-0.1v-7c0-3.3-2.7-6-6-6h-1.2v-1.3c0,0,0-0.1,0-0.1c0,0,0-0.1,0-0.1v-1.4
			c0.5,0.1,1,0.2,1.5,0.2h7c0.1,0,0.2,0,0.3,0h7c3.3,0,6-2.7,6-6v-1h1.3c3.3,0,6-2.7,6-6v-1.3h1.3c3.3,0,6-2.7,6-6v-1.3h1.3
			c3.3,0,6-2.7,6-6v-7C140.1,120.5,137.5,117.8,134.1,117.8z M76.2,187.3h1.3v1.3c0,0.1,0,0.1,0,0.2c0,0,0,0.1,0,0.2v1.2h-1.3
			c-0.5,0-1,0.1-1.5,0.2v-1.4c0-0.1,0-0.1,0-0.2c0,0,0-0.1,0-0.2v-1.3h1.2C76,187.3,76.1,187.3,76.2,187.3z M67.4,212v-1.5
			c0,0,0-0.1,0-0.1c0,0,0-0.1,0-0.1v-1.2h1.3c0.5,0,1-0.1,1.5-0.2v1.4c0,0,0,0.1,0,0.1c0,0,0,0.1,0,0.1v1.3h-1.3
			C68.4,211.8,67.9,211.9,67.4,212z M111,132.6V131c0-3.3-2.7-6-6-6h-1.2v-1.3c0-0.1,0-0.1,0-0.1c0-0.1,0-0.1,0-0.2v-1.1h1.3
			c1.4,0,2.7-0.5,3.8-1.3c1,0.8,2.3,1.3,3.7,1.3h1.3v1.3c0,1.4,0.5,2.8,1.4,3.8c-0.8,1-1.3,2.3-1.3,3.8v1.3h-1.3
			C112.1,132.4,111.5,132.4,111,132.6z"/>
	</g>
</g>
<g id="Слой_1">
	<path class="st1" d="M-311.7,246.8h7v7h-7V246.8z M-311.7,239.6h7v7h-7V239.6z M-304.4,254.1h7v7h-7V254.1z M-304.4,246.8h7v7h-7
		V246.8z M-304.4,239.6h7v7h-7V239.6z M-304.4,232.3h7v7h-7V232.3z M-304.4,225.1h7v7h-7V225.1z M-304.4,217.8h7v7h-7V217.8z
		 M-297.1,254.1h7v7h-7V254.1z M-297.1,246.8h7v7h-7V246.8z M-297.1,239.6h7v7h-7V239.6z M-297.1,232.3h7v7h-7V232.3z M-297.1,225.1
		h7v7h-7V225.1z M-297.1,217.8h7v7h-7V217.8z M-297.1,210.5h7v7h-7V210.5z M-289.9,254.1h7v7h-7V254.1z M-289.9,232.3h7v7h-7V232.3z
		 M-289.9,225.1h7v7h-7V225.1z M-289.9,217.8h7v7h-7V217.8z M-289.9,210.5h7v7h-7V210.5z M-289.9,203.3h7v7h-7V203.3z M-289.9,196h7
		v7h-7V196z M-289.9,188.8h7v7h-7V188.8z M-289.9,159.7h7v7h-7V159.7z M-289.9,152.5h7v7h-7V152.5z M-289.9,145.2h7v7h-7V145.2z
		 M-289.9,137.9h7v7h-7V137.9z M-289.9,130.7h7v7h-7V130.7z M-289.9,123.4h7v7h-7V123.4z M-289.9,116.2h7v7h-7V116.2z M-289.9,108.9
		h7v7h-7V108.9z M-289.9,101.6h7v7h-7V101.6z M-289.9,94.4h7v7h-7V94.4z M-282.6,217.8h7v7h-7V217.8z M-282.6,210.5h7v7h-7V210.5z
		 M-282.6,203.3h7v7h-7V203.3z M-282.6,196h7v7h-7V196z M-282.6,188.8h7v7h-7V188.8z M-282.6,181.5h7v7h-7V181.5z M-282.6,174.2h7v7
		h-7V174.2z M-282.6,167h7v7h-7V167z M-282.6,159.7h7v7h-7V159.7z M-282.6,152.5h7v7h-7V152.5z M-282.6,145.2h7v7h-7V145.2z
		 M-282.6,130.7h7v7h-7V130.7z M-282.6,116.2h7v7h-7V116.2z M-282.6,101.6h7v7h-7V101.6z M-282.6,94.4h7v7h-7V94.4z M-282.6,87.1h7
		v7h-7V87.1z M-282.6,79.9h7v7h-7V79.9z M-282.6,72.6h7v7h-7V72.6z M-282.6,50.8h7v7h-7V50.8z M-282.6,43.6h7v7h-7V43.6z
		 M-275.4,196h7v7h-7V196z M-275.4,188.8h7v7h-7V188.8z M-275.4,181.5h7v7h-7V181.5z M-275.4,174.2h7v7h-7V174.2z M-275.4,167h7v7
		h-7V167z M-275.4,159.7h7v7h-7V159.7z M-275.4,152.5h7v7h-7V152.5z M-275.4,137.9h7v7h-7V137.9z M-275.4,123.4h7v7h-7V123.4z
		 M-275.4,108.9h7v7h-7V108.9z M-275.4,94.4h7v7h-7V94.4z M-275.4,87.1h7v7h-7V87.1z M-275.4,79.9h7v7h-7V79.9z M-275.4,72.6h7v7h-7
		V72.6z M-275.4,65.3h7v7h-7V65.3z M-275.4,58.1h7v7h-7V58.1z M-275.4,50.8h7v7h-7V50.8z M-275.4,43.6h7v7h-7V43.6z M-275.4,36.3h7
		v7h-7V36.3z M-268.1,225.1h7v7h-7V225.1z M-268.1,217.8h7v7h-7V217.8z M-268.1,210.5h7v7h-7V210.5z M-268.1,203.3h7v7h-7V203.3z
		 M-268.1,196h7v7h-7V196z M-268.1,188.8h7v7h-7V188.8z M-268.1,181.5h7v7h-7V181.5z M-268.1,174.2h7v7h-7V174.2z M-268.1,167h7v7
		h-7V167z M-268.1,159.7h7v7h-7V159.7z M-268.1,152.5h7v7h-7V152.5z M-268.1,145.2h7v7h-7V145.2z M-268.1,130.7h7v7h-7V130.7z
		 M-268.1,116.2h7v7h-7V116.2z M-268.1,101.6h7v7h-7V101.6z M-268.1,87.1h7v7h-7V87.1z M-268.1,79.9h7v7h-7V79.9z M-268.1,72.6h7v7
		h-7V72.6z M-268.1,65.3h7v7h-7V65.3z M-268.1,58.1h7v7h-7V58.1z M-268.1,50.8h7v7h-7V50.8z M-268.1,43.6h7v7h-7V43.6z M-268.1,36.3
		h7v7h-7V36.3z M-260.8,254.1h7v7h-7V254.1z M-260.8,246.8h7v7h-7V246.8z M-260.8,239.6h7v7h-7V239.6z M-260.8,232.3h7v7h-7V232.3z
		 M-260.8,225.1h7v7h-7V225.1z M-260.8,217.8h7v7h-7V217.8z M-260.8,210.5h7v7h-7V210.5z M-260.8,203.3h7v7h-7V203.3z M-260.8,196h7
		v7h-7V196z M-260.8,188.8h7v7h-7V188.8z M-260.8,181.5h7v7h-7V181.5z M-260.8,174.2h7v7h-7V174.2z M-260.8,167h7v7h-7V167z
		 M-260.8,159.7h7v7h-7V159.7z M-260.8,152.5h7v7h-7V152.5z M-260.8,145.2h7v7h-7V145.2z M-260.8,137.9h7v7h-7V137.9z M-260.8,130.7
		h7v7h-7V130.7z M-260.8,123.4h7v7h-7V123.4z M-260.8,116.2h7v7h-7V116.2z M-260.8,108.9h7v7h-7V108.9z M-260.8,101.6h7v7h-7V101.6z
		 M-260.8,94.4h7v7h-7V94.4z M-260.8,87.1h7v7h-7V87.1z M-260.8,65.3h7v7h-7V65.3z M-260.8,58.1h7v7h-7V58.1z M-260.8,50.8h7v7h-7
		V50.8z M-260.8,36.3h7v7h-7V36.3z M-253.6,254.1h7v7h-7V254.1z M-253.6,246.8h7v7h-7V246.8z M-253.6,239.6h7v7h-7V239.6z
		 M-253.6,232.3h7v7h-7V232.3z M-253.6,225.1h7v7h-7V225.1z M-253.6,217.8h7v7h-7V217.8z M-253.6,210.5h7v7h-7V210.5z M-253.6,203.3
		h7v7h-7V203.3z M-253.6,196h7v7h-7V196z M-253.6,188.8h7v7h-7V188.8z M-253.6,181.5h7v7h-7V181.5z M-253.6,58.1h7v7h-7V58.1z
		 M-253.6,50.8h7v7h-7V50.8z M-253.6,43.6h7v7h-7V43.6z M-246.3,254.1h7v7h-7V254.1z M-246.3,246.8h7v7h-7V246.8z M-239.1,254.1h7v7
		h-7V254.1z M-231.8,254.1h7v7h-7V254.1z M-297.3,116.1h7v7h-7V116.1z M-304.5,116.1h7v7h-7V116.1z M-304.5,123.4h7v7h-7V123.4z
		 M-311.8,123.4h7v7h-7V123.4z M-297.2,101.6h7v7h-7V101.6z M-297.2,108.9h7v7h-7V108.9z M-304.5,108.9h7v7h-7V108.9z M-297.2,130.7
		h7v7h-7V130.7z M-304.5,130.7h7v7h-7V130.7z M-297.2,137.9h7v7h-7V137.9z M-253.7,123.4h7v7h-7V123.4z M-253.7,130.6h7v7h-7V130.6z
		 M-253.7,137.9h7v7h-7V137.9z M-253.7,145.3h7v7h-7V145.3z M-246.5,137.9h7v7h-7V137.9z M-246.5,145.3h7v7h-7V145.3z M-114.1,232h7
		v7h-7V232z M-114.1,224.8h7v7h-7V224.8z M-114.1,217.5h7v7h-7V217.5z M-106.8,253.8h7v7h-7V253.8z M-106.8,246.5h7v7h-7V246.5z
		 M-106.8,239.3h7v7h-7V239.3z M-106.8,232h7v7h-7V232z M-106.8,224.8h7v7h-7V224.8z M-106.8,217.5h7v7h-7V217.5z M-106.8,210.2h7v7
		h-7V210.2z M-106.8,203h7v7h-7V203z M-106.8,195.7h7v7h-7V195.7z M-106.8,188.5h7v7h-7V188.5z M-106.8,181.2h7v7h-7V181.2z
		 M-106.8,173.9h7v7h-7V173.9z M-106.8,166.7h7v7h-7V166.7z M-106.8,159.4h7v7h-7V159.4z M-106.8,152.2h7v7h-7V152.2z M-106.8,144.9
		h7v7h-7V144.9z M-106.8,137.6h7v7h-7V137.6z M-106.8,130.4h7v7h-7V130.4z M-106.8,123.1h7v7h-7V123.1z M-106.8,115.9h7v7h-7V115.9z
		 M-106.8,108.6h7v7h-7V108.6z M-106.8,101.3h7v7h-7V101.3z M-106.8,94.1h7v7h-7V94.1z M-106.8,86.8h7v7h-7V86.8z M-106.8,79.6h7v7
		h-7V79.6z M-106.8,50.5h7v7h-7V50.5z M-106.8,43.3h7v7h-7V43.3z M-99.6,253.8h7v7h-7V253.8z M-99.6,246.5h7v7h-7V246.5z
		 M-99.6,239.3h7v7h-7V239.3z M-99.6,232h7v7h-7V232z M-99.6,224.8h7v7h-7V224.8z M-99.6,217.5h7v7h-7V217.5z M-99.6,210.2h7v7h-7
		V210.2z M-99.6,203h7v7h-7V203z M-99.6,195.7h7v7h-7V195.7z M-99.6,188.5h7v7h-7V188.5z M-99.6,181.2h7v7h-7V181.2z M-99.6,173.9h7
		v7h-7V173.9z M-99.6,166.7h7v7h-7V166.7z M-99.6,159.4h7v7h-7V159.4z M-99.6,152.2h7v7h-7V152.2z M-99.6,144.9h7v7h-7V144.9z
		 M-99.6,130.4h7v7h-7V130.4z M-99.6,115.9h7v7h-7V115.9z M-99.6,101.3h7v7h-7V101.3z M-99.6,86.8h7v7h-7V86.8z M-99.6,79.6h7v7h-7
		V79.6z M-99.6,72.3h7v7h-7V72.3z M-99.6,65h7v7h-7V65z M-99.6,57.8h7v7h-7V57.8z M-99.6,50.5h7v7h-7V50.5z M-99.6,43.3h7v7h-7V43.3
		z M-92.3,253.8h7v7h-7V253.8z M-92.3,246.5h7v7h-7V246.5z M-92.3,239.3h7v7h-7V239.3z M-92.3,224.8h7v7h-7V224.8z M-92.3,217.5h7v7
		h-7V217.5z M-92.3,210.2h7v7h-7V210.2z M-92.3,203h7v7h-7V203z M-92.3,195.7h7v7h-7V195.7z M-92.3,188.5h7v7h-7V188.5z
		 M-92.3,181.2h7v7h-7V181.2z M-92.3,173.9h7v7h-7V173.9z M-92.3,166.7h7v7h-7V166.7z M-92.3,159.4h7v7h-7V159.4z M-92.3,152.2h7v7
		h-7V152.2z M-92.3,144.9h7v7h-7V144.9z M-92.3,137.6h7v7h-7V137.6z M-92.3,123.1h7v7h-7V123.1z M-92.3,108.6h7v7h-7V108.6z
		 M-92.3,94.1h7v7h-7V94.1z M-92.3,79.6h7v7h-7V79.6z M-92.3,72.3h7v7h-7V72.3z M-92.3,65h7v7h-7V65z M-92.3,57.8h7v7h-7V57.8z
		 M-92.3,50.5h7v7h-7V50.5z M-92.3,43.3h7v7h-7V43.3z M-85.1,253.8h7v7h-7V253.8z M-85.1,246.5h7v7h-7V246.5z M-85.1,210.2h7v7h-7
		V210.2z M-85.1,203h7v7h-7V203z M-85.1,195.7h7v7h-7V195.7z M-85.1,188.5h7v7h-7V188.5z M-85.1,181.2h7v7h-7V181.2z M-85.1,173.9h7
		v7h-7V173.9z M-85.1,166.7h7v7h-7V166.7z M-85.1,159.4h7v7h-7V159.4z M-85.1,152.2h7v7h-7V152.2z M-85.1,144.9h7v7h-7V144.9z
		 M-85.1,137.6h7v7h-7V137.6z M-85.1,130.4h7v7h-7V130.4z M-85.1,115.9h7v7h-7V115.9z M-85.1,108.6h7v7h-7V108.6z M-85.1,101.3h7v7
		h-7V101.3z M-85.1,94.1h7v7h-7V94.1z M-85.1,86.8h7v7h-7V86.8z M-85.1,79.6h7v7h-7V79.6z M-85.1,65h7v7h-7V65z M-85.1,57.8h7v7h-7
		V57.8z M-85.1,50.5h7v7h-7V50.5z M-77.8,253.8h7v7h-7V253.8z M-77.8,203h7v7h-7V203z M-77.8,195.7h7v7h-7V195.7z M-77.8,188.5h7v7
		h-7V188.5z M-77.8,181.2h7v7h-7V181.2z M-77.8,173.9h7v7h-7V173.9z M-77.8,166.7h7v7h-7V166.7z M-77.8,159.4h7v7h-7V159.4z
		 M-77.8,152.2h7v7h-7V152.2z M-77.8,144.9h7v7h-7V144.9z M-77.8,137.6h7v7h-7V137.6z M-77.8,130.4h7v7h-7V130.4z M-77.8,123.1h7v7
		h-7V123.1z M-77.8,115.9h7v7h-7V115.9z M-77.8,57.8h7v7h-7V57.8z M-77.8,50.5h7v7h-7V50.5z M-77.8,43.3h7v7h-7V43.3z M-70.6,195.7
		h7v7h-7V195.7z M-70.6,188.5h7v7h-7V188.5z M-70.6,181.2h7v7h-7V181.2z M-128.6,101.4h7v7h-7V101.4z M-128.6,108.6h7v7h-7V108.6z
		 M-128.6,115.9h7v7h-7V115.9z M-128.6,123.1h7v7h-7V123.1z M-121.3,86.9h7v7h-7V86.9z M-121.3,94.1h7v7h-7V94.1z M-121.3,101.4h7v7
		h-7V101.4z M-121.3,108.6h7v7h-7V108.6z M-121.3,115.9h7v7h-7V115.9z M-121.3,123.1h7v7h-7V123.1z M-121.3,130.4h7v7h-7V130.4z
		 M-114.1,79.6h7v7h-7V79.6z M-114.1,86.9h7v7h-7V86.9z M-114.1,94.1h7v7h-7V94.1z M-114.1,101.4h7v7h-7V101.4z M-114.1,108.6h7v7
		h-7V108.6z M-114.1,130.4h7v7h-7V130.4z M-121.3,137.7h7v7h-7V137.7z M-121.3,152.2h7v7h-7V152.2z M-121.3,159.5h7v7h-7V159.5z
		 M-121.3,166.7h7v7h-7V166.7z M-114.1,137.7h7v7h-7V137.7z M-114.1,144.9h7v7h-7V144.9z M-114.1,152.2h7v7h-7V152.2z M-114.1,159.5
		h7v7h-7V159.5z M-114.1,166.7h7v7h-7V166.7z M-70.6,137.5h7v7h-7V137.5z M-70.6,144.7h7v7h-7V144.7z M-70.6,152h7v7h-7V152z
		 M-70.6,159.3h7v7h-7V159.3z M47.2,254.1h7v7h-7V254.1z M47.2,246.8h7v7h-7V246.8z M47.2,239.5h7v7h-7V239.5z M47.2,232.3h7v7h-7
		V232.3z M47.2,225h7v7h-7V225z M47.2,217.8h7v7h-7V217.8z M47.2,210.5h7v7h-7V210.5z M47.2,196.1h7v7h-7V196.1z M47.2,188.9h7v7h-7
		V188.9z M47.2,181.6h7v7h-7V181.6z M47.2,174.3h7v7h-7V174.3z M47.2,167.1h7v7h-7V167.1z M47.2,152.6h7v7h-7V152.6z M47.2,145.3h7
		v7h-7V145.3z M47.2,138h7v7h-7V138z M47.2,130.8h7v7h-7V130.8z M47.2,123.5h7v7h-7V123.5z M47.2,116.3h7v7h-7V116.3z M47.2,109h7v7
		h-7V109z M47.2,101.7h7v7h-7V101.7z M47.2,94.5h7v7h-7V94.5z M47.2,87.2h7v7h-7V87.2z M54.4,254.1h7v7h-7V254.1z M54.4,246.8h7v7
		h-7V246.8z M54.4,239.5h7v7h-7V239.5z M54.4,232.3h7v7h-7V232.3z M54.4,225h7v7h-7V225z M54.4,217.8h7v7h-7V217.8z M54.4,210.5h7v7
		h-7V210.5z M54.4,196.1h7v7h-7V196.1z M54.4,188.9h7v7h-7V188.9z M54.4,181.6h7v7h-7V181.6z M54.4,174.3h7v7h-7V174.3z M54.4,167.1
		h7v7h-7V167.1z M54.4,159.8h7v7h-7V159.8z M54.4,152.6h7v7h-7V152.6z M54.4,145.3h7v7h-7V145.3z M54.4,130.8h7v7h-7V130.8z
		 M54.4,116.3h7v7h-7V116.3z M54.4,101.7h7v7h-7V101.7z M54.4,94.5h7v7h-7V94.5z M54.4,87.2h7v7h-7V87.2z M54.4,80h7v7h-7V80z
		 M54.4,72.7h7v7h-7V72.7z M54.4,50.9h7v7h-7V50.9z M54.4,43.7h7v7h-7V43.7z M61.7,254.1h7v7h-7V254.1z M61.7,232.3h7v7h-7V232.3z
		 M61.7,225h7v7h-7V225z M61.7,196.1h7v7h-7V196.1z M61.7,188.9h7v7h-7V188.9z M61.7,181.6h7v7h-7V181.6z M61.7,174.3h7v7h-7V174.3z
		 M61.7,167.1h7v7h-7V167.1z M61.7,159.8h7v7h-7V159.8z M61.7,152.6h7v7h-7V152.6z M61.7,138h7v7h-7V138z M61.7,123.5h7v7h-7V123.5z
		 M61.7,109h7v7h-7V109z M61.7,94.5h7v7h-7V94.5z M61.7,87.2h7v7h-7V87.2z M61.7,80h7v7h-7V80z M61.7,72.7h7v7h-7V72.7z M61.7,65.4
		h7v7h-7V65.4z M61.7,58.2h7v7h-7V58.2z M61.7,50.9h7v7h-7V50.9z M61.7,43.7h7v7h-7V43.7z M68.9,254.1h7v7h-7V254.1z M68.9,239.5h7
		v7h-7V239.5z M68.9,232.3h7v7h-7V232.3z M68.9,225h7v7h-7V225z M68.9,217.8h7v7h-7V217.8z M68.9,174.3h7v7h-7V174.3z M68.9,167.1h7
		v7h-7V167.1z M68.9,159.8h7v7h-7V159.8z M68.9,152.6h7v7h-7V152.6z M68.9,145.3h7v7h-7V145.3z M68.9,130.8h7v7h-7V130.8z
		 M68.9,116.3h7v7h-7V116.3z M68.9,101.7h7v7h-7V101.7z M68.9,87.2h7v7h-7V87.2z M68.9,80h7v7h-7V80z M68.9,72.7h7v7h-7V72.7z
		 M68.9,65.4h7v7h-7V65.4z M68.9,58.2h7v7h-7V58.2z M68.9,50.9h7v7h-7V50.9z M68.9,43.7h7v7h-7V43.7z M76.2,246.8h7v7h-7V246.8z
		 M76.2,239.5h7v7h-7V239.5z M76.2,232.3h7v7h-7V232.3z M76.2,225h7v7h-7V225z M76.2,217.8h7v7h-7V217.8z M76.2,210.5h7v7h-7V210.5z
		 M76.2,196.1h7v7h-7V196.1z M76.2,174.3h7v7h-7V174.3z M76.2,167.1h7v7h-7V167.1z M76.2,159.8h7v7h-7V159.8z M76.2,152.6h7v7h-7
		V152.6z M76.2,145.3h7v7h-7V145.3z M76.2,138h7v7h-7V138z M76.2,130.8h7v7h-7V130.8z M76.2,123.5h7v7h-7V123.5z M76.2,116.3h7v7h-7
		V116.3z M76.2,109h7v7h-7V109z M76.2,101.7h7v7h-7V101.7z M76.2,94.5h7v7h-7V94.5z M76.2,87.2h7v7h-7V87.2z M76.2,65.4h7v7h-7V65.4
		z M76.2,58.2h7v7h-7V58.2z M76.2,50.9h7v7h-7V50.9z M83.5,246.8h7v7h-7V246.8z M83.5,239.5h7v7h-7V239.5z M83.5,217.8h7v7h-7V217.8
		z M83.5,210.5h7v7h-7V210.5z M83.5,196.1h7v7h-7V196.1z M83.5,188.9h7v7h-7V188.9z M83.5,181.6h7v7h-7V181.6z M83.5,174.3h7v7h-7
		V174.3z M83.5,167.1h7v7h-7V167.1z M83.5,159.8h7v7h-7V159.8z M83.5,152.6h7v7h-7V152.6z M83.5,58.2h7v7h-7V58.2z M83.5,50.9h7v7
		h-7V50.9z M83.5,43.7h7v7h-7V43.7z M90.7,196.1h7v7h-7V196.1z M90.7,188.9h7v7h-7V188.9z M90.7,181.6h7v7h-7V181.6z M90.7,174.3h7
		v7h-7V174.3z M90.7,167.1h7v7h-7V167.1z M98,188.9h7v7h-7V188.9z M98,181.6h7v7h-7V181.6z M47.2,203.3h7v7h-7V203.3z M54.4,203.3h7
		v7h-7V203.3z M76.2,203.3h7v7h-7V203.3z M83.5,203.3h7v7h-7V203.3z M83.5,109.2h7v7h-7V109.2z M83.5,116.4h7v7h-7V116.4z
		 M83.5,123.7h7v7h-7V123.7z M90.8,116.4h7v7h-7V116.4z M90.8,123.7h7v7h-7V123.7z M90.8,138.2h7v7h-7V138.2z M90.8,131h7v7h-7V131z
		 M98,131h7v7h-7V131z M98,138.2h7v7h-7V138.2z M98,145.4h7v7h-7V145.4z M83.5,131h7v7h-7V131z M105.3,145.4h7v7h-7V145.4z
		 M39.9,101.7h7v7h-7V101.7z M39.9,109h7v7h-7V109z M39.9,116.2h7v7h-7V116.2z M39.9,123.5h7v7h-7V123.5z M39.9,152.6h7v7h-7V152.6z
		 M47.2,159.9h7v7h-7V159.9z M215.7,254.1h7v7h-7V254.1z M215.7,246.9h7v7h-7V246.9z M215.7,239.6h7v7h-7V239.6z M215.7,232.4h7v7
		h-7V232.4z M215.7,225.1h7v7h-7V225.1z M215.7,217.8h7v7h-7V217.8z M215.7,210.6h7v7h-7V210.6z M223,254.1h7v7h-7V254.1z
		 M223,246.9h7v7h-7V246.9z M223,239.6h7v7h-7V239.6z M223,232.4h7v7h-7V232.4z M223,225.1h7v7h-7V225.1z M223,217.8h7v7h-7V217.8z
		 M223,210.6h7v7h-7V210.6z M223,203.3h7v7h-7V203.3z M223,196.1h7v7h-7V196.1z M223,188.8h7v7h-7V188.8z M223,159.8h7v7h-7V159.8z
		 M223,152.5h7v7h-7V152.5z M223,145.2h7v7h-7V145.2z M223,138h7v7h-7V138z M223,130.7h7v7h-7V130.7z M223,123.5h7v7h-7V123.5z
		 M223,116.2h7v7h-7V116.2z M223,108.9h7v7h-7V108.9z M223,101.7h7v7h-7V101.7z M223,94.4h7v7h-7V94.4z M223,87.2h7v7h-7V87.2z
		 M230.2,254.1h7v7h-7C230.2,261.1,230.2,254.1,230.2,254.1z M230.2,246.9h7v7h-7C230.2,253.9,230.2,246.9,230.2,246.9z
		 M230.2,225.1h7v7h-7C230.2,232.1,230.2,225.1,230.2,225.1z M230.2,217.8h7v7h-7C230.2,224.8,230.2,217.8,230.2,217.8z
		 M230.2,210.6h7v7h-7C230.2,217.6,230.2,210.6,230.2,210.6z M230.2,203.3h7v7h-7C230.2,210.3,230.2,203.3,230.2,203.3z
		 M230.2,196.1h7v7h-7C230.2,203.1,230.2,196.1,230.2,196.1z M230.2,188.8h7v7h-7C230.2,195.8,230.2,188.8,230.2,188.8z
		 M230.2,181.5h7v7h-7C230.2,188.5,230.2,181.5,230.2,181.5z M230.2,174.3h7v7h-7C230.2,181.3,230.2,174.3,230.2,174.3z M230.2,167
		h7v7h-7C230.2,174,230.2,167,230.2,167z M230.2,159.8h7v7h-7C230.2,166.8,230.2,159.8,230.2,159.8z M230.2,152.5h7v7h-7
		C230.2,159.5,230.2,152.5,230.2,152.5z M230.2,138h7v7h-7C230.2,145,230.2,138,230.2,138z M230.2,123.5h7v7h-7
		C230.2,130.5,230.2,123.5,230.2,123.5z M230.2,108.9h7v7h-7C230.2,115.9,230.2,108.9,230.2,108.9z M230.2,94.4h7v7h-7
		C230.2,101.4,230.2,94.4,230.2,94.4z M230.2,87.2h7v7h-7C230.2,94.2,230.2,87.2,230.2,87.2z M230.2,79.9h7v7h-7
		C230.2,86.9,230.2,79.9,230.2,79.9z M230.2,72.6h7v7h-7C230.2,79.6,230.2,72.6,230.2,72.6z M230.2,50.9h7v7h-7
		C230.2,57.9,230.2,50.9,230.2,50.9z M230.2,43.6h7v7h-7C230.2,50.6,230.2,43.6,230.2,43.6z M237.5,254.1h7v7h-7V254.1z
		 M237.5,246.9h7v7h-7V246.9z M237.5,203.3h7v7h-7V203.3z M237.5,196.1h7v7h-7V196.1z M237.5,188.8h7v7h-7V188.8z M237.5,181.5h7v7
		h-7V181.5z M237.5,174.3h7v7h-7V174.3z M237.5,167h7v7h-7V167z M237.5,159.8h7v7h-7V159.8z M237.5,145.2h7v7h-7V145.2z
		 M237.5,130.7h7v7h-7V130.7z M237.5,116.2h7v7h-7V116.2z M237.5,101.7h7v7h-7V101.7z M237.5,94.4h7v7h-7V94.4z M237.5,87.2h7v7h-7
		V87.2z M237.5,79.9h7v7h-7V79.9z M237.5,72.6h7v7h-7V72.6z M237.5,65.4h7v7h-7V65.4z M237.5,58.1h7v7h-7V58.1z M237.5,50.9h7v7h-7
		V50.9z M237.5,43.6h7v7h-7V43.6z M244.7,254.1h7v7h-7V254.1z M244.7,181.5h7v7h-7V181.5z M244.7,174.3h7v7h-7V174.3z M244.7,167h7
		v7h-7V167z M244.7,159.8h7v7h-7V159.8z M244.7,152.5h7v7h-7V152.5z M244.7,138h7v7h-7V138z M244.7,123.5h7v7h-7V123.5z
		 M244.7,108.9h7v7h-7V108.9z M244.7,94.4h7v7h-7V94.4z M244.7,87.2h7v7h-7V87.2z M244.7,79.9h7v7h-7V79.9z M244.7,72.6h7v7h-7V72.6
		z M244.7,65.4h7v7h-7V65.4z M244.7,58.1h7v7h-7V58.1z M244.7,50.9h7v7h-7V50.9z M244.7,43.6h7v7h-7V43.6z M252,188.8h7v7h-7V188.8z
		 M252,181.5h7v7h-7V181.5z M252,174.3h7v7h-7V174.3z M252,167h7v7h-7V167z M252,159.8h7v7h-7V159.8z M252,152.5h7v7h-7V152.5z
		 M252,145.2h7v7h-7V145.2z M252,138h7v7h-7V138z M252,130.7h7v7h-7V130.7z M252,123.5h7v7h-7V123.5z M252,116.2h7v7h-7V116.2z
		 M252,108.9h7v7h-7V108.9z M252,101.7h7v7h-7V101.7z M252,94.4h7v7h-7V94.4z M252,65.4h7v7h-7V65.4z M252,58.1h7v7h-7V58.1z
		 M252,50.9h7v7h-7V50.9z M259.2,217.8h7v7h-7V217.8z M259.2,210.6h7v7h-7V210.6z M259.2,203.3h7v7h-7V203.3z M259.2,196.1h7v7h-7
		V196.1z M259.2,188.8h7v7h-7V188.8z M259.2,181.5h7v7h-7V181.5z M259.2,174.3h7v7h-7V174.3z M259.2,167h7v7h-7V167z M259.2,159.8h7
		v7h-7V159.8z M259.2,58.1h7v7h-7V58.1z M259.2,50.9h7v7h-7V50.9z M259.2,43.6h7v7h-7V43.6z M266.5,239.6h7v7h-7V239.6z
		 M266.5,232.4h7v7h-7V232.4z M266.5,225.1h7v7h-7V225.1z M266.5,217.8h7v7h-7V217.8z M266.5,210.6h7v7h-7V210.6z M266.5,203.3h7v7
		h-7V203.3z M266.5,196.1h7v7h-7V196.1z M266.5,188.8h7v7h-7V188.8z M266.5,181.5h7v7h-7V181.5z M273.8,246.9h7v7h-7V246.9z
		 M273.8,239.6h7v7h-7V239.6z M273.8,232.4h7v7h-7V232.4z M273.8,225.1h7v7h-7V225.1z M273.8,217.8h7v7h-7V217.8z M273.8,210.6h7v7
		h-7V210.6z M273.8,203.3h7v7h-7V203.3z M273.8,196.1h7v7h-7V196.1z M281,246.9h7v7h-7V246.9z M281,239.6h7v7h-7V239.6z M281,232.4
		h7v7h-7V232.4z M288.3,246.9h7v7h-7V246.9z M288.3,239.6h7v7h-7V239.6z M295.6,239.6h7v7h-7C295.6,246.6,295.6,239.6,295.6,239.6z
		 M259.2,108.9h7v7h-7V108.9z M259.2,116.2h7v7h-7V116.2z M266.5,116.2h7v7h-7V116.2z M259.2,123.5h7v7h-7V123.5z M266.5,123.5h7v7
		h-7V123.5z M266.5,130.7h7v7h-7V130.7z M273.7,123.5h7v7h-7V123.5z M273.7,130.7h7v7h-7V130.7z M273.7,138h7v7h-7V138z M281,130.7
		h7v7h-7V130.7z M281,138h7v7h-7V138z M281,145.2h7v7h-7V145.2z M259.2,130.8h7v7h-7V130.8z M201.3,116.2h7v7h-7V116.2z
		 M201.3,123.4h7v7h-7V123.4z M201.3,130.7h7v7h-7V130.7z M201.3,137.9h7v7h-7V137.9z M208.5,101.7h7v7h-7V101.7z M208.5,108.9h7v7
		h-7V108.9z M208.5,116.2h7v7h-7V116.2z M208.5,123.4h7v7h-7V123.4z M208.5,130.7h7v7h-7V130.7z M208.5,137.9h7v7h-7V137.9z
		 M215.8,94.4h7v7h-7V94.4z M215.8,101.7h7v7h-7V101.7z M215.8,108.9h7v7h-7V108.9z M215.8,116.2h7v7h-7V116.2z M215.8,123.4h7v7h-7
		V123.4z M201.3,145.2h7v7h-7V145.2z M208.5,152.4h7v7h-7V152.4z M208.5,159.6h7v7h-7V159.6z M208.5,167h7v7h-7V167z M208.5,145.2h7
		v7h-7V145.2z M215.8,159.6h7v7h-7V159.6z M215.8,167h7v7h-7V167z M373.4,246.8h7v7h-7V246.8z M373.4,239.5h7v7h-7V239.5z
		 M373.4,232.3h7v7h-7V232.3z M380.8,254.1h7v7h-7V254.1z M380.8,246.8h7v7h-7V246.8z M380.8,239.5h7v7h-7V239.5z M380.8,232.3h7v7
		h-7V232.3z M380.8,225h7v7h-7V225z M380.8,217.8h7v7h-7V217.8z M388,254.1h7v7h-7V254.1z M388,232.3h7v7h-7V232.3z M388,225h7v7h-7
		V225z M388,217.8h7v7h-7V217.8z M388,210.5h7v7h-7V210.5z M388,203.2h7v7h-7V203.2z M395.2,254.1h7v7h-7V254.1z M395.2,217.8h7v7
		h-7V217.8z M395.2,210.5h7v7h-7V210.5z M395.2,203.2h7v7h-7V203.2z M395.2,196h7v7h-7V196z M395.2,188.7h7v7h-7V188.7z
		 M395.2,181.5h7v7h-7V181.5z M395.2,174.2h7v7h-7V174.2z M395.2,167h7v7h-7V167z M395.2,159.7h7v7h-7V159.7z M395.2,152.4h7v7h-7
		V152.4z M395.2,145.2h7v7h-7V145.2z M395.2,137.9h7v7h-7V137.9z M395.2,130.7h7v7h-7V130.7z M395.2,123.4h7v7h-7V123.4z
		 M395.2,116.1h7v7h-7V116.1z M395.2,108.9h7v7h-7V108.9z M395.2,101.6h7v7h-7V101.6z M395.2,94.3h7v7h-7V94.3z M395.2,87.1h7v7h-7
		V87.1z M395.2,79.8h7v7h-7V79.8z M402.5,210.5h7v7h-7V210.5z M402.5,203.2h7v7h-7V203.2z M402.5,196h7v7h-7V196z M402.5,188.7h7v7
		h-7V188.7z M402.5,181.5h7v7h-7V181.5z M402.5,174.2h7v7h-7V174.2z M402.5,167h7v7h-7V167z M402.5,159.7h7v7h-7V159.7z
		 M402.5,152.4h7v7h-7V152.4z M402.5,137.9h7v7h-7V137.9z M402.5,123.4h7v7h-7V123.4z M402.5,108.9h7v7h-7V108.9z M402.5,101.6h7v7
		h-7V101.6z M402.5,94.3h7v7h-7V94.3z M402.5,87.1h7v7h-7V87.1z M402.5,79.8h7v7h-7V79.8z M402.5,72.6h7v7h-7V72.6z M402.5,50.8h7v7
		h-7V50.8z M402.5,43.5h7v7h-7V43.5z M409.8,196h7v7h-7V196z M409.8,188.7h7v7h-7V188.7z M409.8,181.5h7v7h-7V181.5z M409.8,174.2h7
		v7h-7V174.2z M409.8,167h7v7h-7V167z M409.8,159.7h7v7h-7V159.7z M409.8,145.2h7v7h-7V145.2z M409.8,130.7h7v7h-7V130.7z
		 M409.8,116.1h7v7h-7V116.1z M409.8,101.6h7v7h-7V101.6z M409.8,87.1h7v7h-7V87.1z M409.8,79.8h7v7h-7V79.8z M409.8,72.6h7v7h-7
		V72.6z M409.8,65.3h7v7h-7V65.3z M409.8,58.1h7v7h-7V58.1z M409.8,50.8h7v7h-7V50.8z M409.8,43.5h7v7h-7V43.5z M417,188.7h7v7h-7
		V188.7z M417,181.5h7v7h-7V181.5z M417,174.2h7v7h-7V174.2z M417,167h7v7h-7V167z M417,159.7h7v7h-7V159.7z M417,152.4h7v7h-7
		V152.4z M417,137.9h7v7h-7V137.9z M417,123.4h7v7h-7V123.4z M417,108.9h7v7h-7V108.9z M417,94.3h7v7h-7V94.3z M417,87.1h7v7h-7
		V87.1z M417,79.8h7v7h-7V79.8z M417,72.6h7v7h-7V72.6z M417,65.3h7v7h-7V65.3z M417,58.1h7v7h-7V58.1z M417,50.8h7v7h-7V50.8z
		 M417,43.5h7v7h-7V43.5z M424.4,217.8h7v7h-7V217.8z M424.4,210.5h7v7h-7V210.5z M424.4,203.2h7v7h-7V203.2z M424.4,196h7v7h-7V196
		z M424.4,188.7h7v7h-7V188.7z M424.4,181.5h7v7h-7V181.5z M424.4,174.2h7v7h-7V174.2z M424.4,167h7v7h-7V167z M424.4,159.7h7v7h-7
		V159.7z M424.4,152.4h7v7h-7V152.4z M424.4,145.2h7v7h-7V145.2z M424.4,137.9h7v7h-7V137.9z M424.4,130.7h7v7h-7V130.7z
		 M424.4,123.4h7v7h-7V123.4z M424.4,116.1h7v7h-7V116.1z M424.4,108.9h7v7h-7V108.9z M424.4,101.6h7v7h-7V101.6z M424.4,94.3h7v7
		h-7V94.3z M424.4,65.3h7v7h-7V65.3z M424.4,58.1h7v7h-7V58.1z M424.4,50.8h7v7h-7V50.8z M431.5,239.5h7v7h-7V239.5z M431.5,232.3h7
		v7h-7V232.3z M431.5,225h7v7h-7V225z M431.5,217.8h7v7h-7V217.8z M431.5,210.5h7v7h-7V210.5z M431.5,203.2h7v7h-7V203.2z
		 M431.5,196h7v7h-7V196z M431.5,188.7h7v7h-7V188.7z M431.5,181.5h7v7h-7V181.5z M431.5,174.2h7v7h-7V174.2z M431.5,58.1h7v7h-7
		V58.1z M431.5,50.8h7v7h-7V50.8z M431.5,43.5h7v7h-7V43.5z M438.9,254.1h7v7h-7V254.1z M438.9,246.8h7v7h-7V246.8z M438.9,239.5h7
		v7h-7V239.5z M438.9,232.3h7v7h-7V232.3z M438.9,225h7v7h-7V225z M438.9,217.8h7v7h-7V217.8z M438.9,210.5h7v7h-7V210.5z
		 M438.9,203.2h7v7h-7V203.2z M438.9,196h7v7h-7V196z M431.5,246.8h7v7h-7V246.8z M446.1,246.8h7v7h-7V246.8z M446.1,239.5h7v7h-7
		V239.5z M453.4,246.8h7v7h-7V246.8z M460.6,246.8h7v7h-7V246.8z M431.6,108.9h7v7h-7V108.9z M431.6,116.1h7v7h-7V116.1z
		 M431.6,123.4h7v7h-7V123.4z M438.9,116.1h7v7h-7V116.1z M438.9,123.4h7v7h-7V123.4z M446.1,123.4h7v7h-7V123.4z M438.9,130.7h7v7
		h-7V130.7z M446.1,130.7h7v7h-7V130.7z M446.1,137.9h7v7h-7V137.9z M453.5,130.7h7v7h-7V130.7z M446.1,109h7v7h-7V109z
		 M467.9,130.8h7v7h-7V130.8z M453.3,101.7h7v7h-7V101.7z M475.1,123.5h7v7h-7V123.5z M460.6,94.4h7v7h-7V94.4z M467.8,101.6h7v7h-7
		V101.6z M475.1,108.9h7v7h-7V108.9z M482.4,116.2h7v7h-7V116.2z M453.5,137.9h7v7h-7V137.9z M453.5,145.2h7v7h-7V145.2z
		 M460.6,137.9h7v7h-7V137.9z M460.6,145.2h7v7h-7V145.2z M373.4,108.9h7v7h-7V108.9z M373.4,116.1h7v7h-7V116.1z M373.4,123.4h7v7
		h-7V123.4z M373.4,130.6h7v7h-7V130.6z M373.4,137.9h7v7h-7V137.9z M380.6,94.4h7v7h-7V94.4z M380.6,101.6h7v7h-7V101.6z
		 M380.6,108.9h7v7h-7V108.9z M380.6,116.1h7v7h-7V116.1z M380.6,123.4h7v7h-7V123.4z M380.6,130.6h7v7h-7V130.6z M380.6,137.9h7v7
		h-7V137.9z M387.9,87.1h7v7h-7V87.1z M387.9,94.4h7v7h-7V94.4z M387.9,101.6h7v7h-7V101.6z M387.9,108.9h7v7h-7V108.9z
		 M387.9,116.1h7v7h-7V116.1z M387.9,123.4h7v7h-7V123.4z M387.9,130.6h7v7h-7V130.6z M373.4,145.2h7v7h-7V145.2z M373.4,152.4h7v7
		h-7V152.4z M373.4,159.7h7v7h-7V159.7z M373.4,167h7v7h-7V167z M380.6,145.2h7v7h-7V145.2z M380.6,152.4h7v7h-7V152.4z
		 M380.6,159.7h7v7h-7V159.7z M380.6,167h7v7h-7V167z M-268.1,29.1h7v7h-7V29.1z M-260.8,29.1h7v7h-7V29.1z M-253.5,29.1h7v7h-7
		V29.1z M-253.5,36.3h7v7h-7V36.3z M-290,36.3h7v7h-7V36.3z M-282.7,36.3h7v7h-7V36.3z M-99.8,36h7v7h-7V36z M-92.4,36h7v7h-7V36z
		 M-85.1,36h7v7h-7V36z M-92.4,28.8h7v7h-7V28.8z M-85.2,28.8h7v7h-7V28.8z M-77.8,28.8h7v7h-7V28.8z M-77.8,36h7v7h-7V36z
		 M-114.3,36h7v7h-7V36z M-107,36h7v7h-7V36z M61.6,36.3h7v7h-7V36.3z M68.9,36.3h7v7h-7V36.3z M76.2,36.3h7v7h-7V36.3z M68.9,29.2
		h7v7h-7V29.2z M76.2,29.2h7v7h-7V29.2z M83.5,29.2h7v7h-7V29.2z M83.5,36.3h7v7h-7V36.3z M47,36.3h7v7h-7V36.3z M54.3,36.3h7v7h-7
		V36.3z M237.3,36.3h7v7h-7V36.3z M244.6,36.3h7v7h-7V36.3z M251.9,36.3h7v7h-7V36.3z M244.6,29.1h7v7h-7V29.1z M251.9,29.1h7v7h-7
		V29.1z M259.2,29.1h7v7h-7V29.1z M259.2,36.3h7v7h-7V36.3z M222.8,36.3h7v7h-7V36.3z M230,36.3h7v7h-7V36.3z M409.6,36.2h7v7h-7
		V36.2z M416.9,36.2h7v7h-7V36.2z M424.2,36.2h7v7h-7V36.2z M416.9,29h7v7h-7V29z M424.2,29h7v7h-7V29z M431.5,29h7v7h-7V29z
		 M431.5,36.2h7v7h-7V36.2z M395,36.2h7v7h-7V36.2z M402.4,36.2h7v7h-7V36.2z M266.4,101.5h7v7h-7V101.5z M288.2,123.3h7v7h-7V123.3
		z M273.7,94.2h7v7h-7V94.2z M295.5,116h7v7h-7V116z M280.9,87h7v7h-7V87z M288.2,94.3h7v7h-7V94.3z M295.4,101.6h7v7h-7V101.6z
		 M302.7,108.8h7v7h-7V108.8z M112.6,138.4h7v7h-7V138.4z M98.1,109.3h7v7h-7V109.3z M119.9,131.1h7v7h-7V131.1z M105.4,102h7v7h-7
		V102z M112.6,109.2h7v7h-7V109.2z M119.9,116.5h7v7h-7V116.5z M127.2,123.8h7v7h-7V123.8z M-63.3,145.1h7v7h-7V145.1z M-56,137.8h7
		v7h-7V137.8z M-70.5,108.8h7v7h-7V108.8z M-63.3,116h7v7h-7V116z M-56,123.3h7v7h-7V123.3z M-48.7,130.6h7v7h-7V130.6z M-232,145.4
		h7v7h-7V145.4z M-246.5,116.3h7v7h-7V116.3z M-224.7,138.1h7v7h-7V138.1z M-239.2,109h7v7h-7V109z M-232,116.2h7v7h-7V116.2z
		 M-224.7,123.5h7v7h-7V123.5z M-217.4,130.8h7v7h-7V130.8z M-239.2,152.5h7v7h-7V152.5z"/>
</g>
</svg>
