<?xml version="1.0" encoding="utf-8"?>
<!-- Generator: Adobe Illustrator 27.3.1, SVG Export Plug-In . SVG Version: 6.00 Build 0)  -->
<svg version="1.1" xmlns="http://www.w3.org/2000/svg" xmlns:xlink="http://www.w3.org/1999/xlink" x="0px" y="0px"
	 viewBox="0 0 152.2 261.1" style="enable-background:new 0 0 152.2 261.1;" xml:space="preserve">
<style type="text/css">
	.st0{fill:#FCE8B3;}
	.st1{fill:#1E0E01;}
</style>
<g id="Слой_2">
	<g>
		<path class="st0" d="M130.4,124.6h-1.3v-1.3c0-3.3-2.7-6-6-6h-1.3V116c0-3.3-2.7-6-6-6h-1.2v-1.2c0-3.3-2.7-6-6-6h-7
			c-0.6,0-1.1,0.1-1.6,0.2v-1.7c0,0,0-0.1,0-0.1c0,0,0-0.1,0-0.1v-7c0-0.1,0-0.1,0-0.1c0,0,0-0.1,0-0.1v-7c0,0,0-0.1,0-0.1
			c0,0,0-0.1,0-0.1v-7c0-1.4-0.5-2.8-1.4-3.8c0.8-1,1.4-2.4,1.4-3.8v-1.2h1.3c3.3,0,6-2.7,6-6v-7c0-0.1,0-0.1,0-0.1
			c0-0.1,0-0.1,0-0.2v-7c0,0,0-0.1,0-0.1c0,0,0-0.1,0-0.1v-7c0-0.1,0-0.1,0-0.2c0-0.1,0-0.1,0-0.2v-7c0,0,0-0.1,0-0.1
			c0,0,0-0.1,0-0.1v-7c0-3.3-2.7-6-6-6h-7c0,0-0.1,0-0.2,0c0,0-0.1,0-0.1,0h-7c0,0-0.1,0-0.1,0c-0.1,0-0.1,0-0.2,0h-7
			c-3.3,0-6,2.7-6,6V30h-1.3c0,0-0.1,0-0.1,0c-0.1,0-0.1,0-0.2,0h-7c-0.1,0-0.1,0-0.2,0c0,0-0.1,0-0.2,0h-7c-3.3,0-6,2.7-6,6v7
			c0,3.3,2.7,6,6,6h1.5v1.3c0,0,0,0.1,0,0.1c0,0,0,0.1,0,0.1v7c0,3.3,2.7,6,6,6h1.2v1.3c0,0,0,0.1,0,0.1c0,0,0,0.1,0,0.1v7
			c0,0.1,0,0.1,0,0.2c0,0,0,0.1,0,0.1v1.3h-1.2c-0.1,0-0.1,0-0.2,0h-7c-3.3,0-6,2.7-6,6v1.3h-1.3c-3.3,0-6,2.7-6,6v7
			c0,0,0,0.1,0,0.1c0,0,0,0.1,0,0.1v1.3h-1.3c-3.3,0-6,2.7-6,6v7c0,0,0,0.1,0,0.1c0,0,0,0.1,0,0.1v7c0,0.1,0,0.1,0,0.1
			c0,0,0,0.1,0,0.1v7c0,0,0,0.1,0,0.1c0,0,0,0.1,0,0.1v7c0,3.3,2.7,6,6,6h1.3v1.3c0,0,0,0.1,0,0.2c0,0,0,0.1,0,0.1v7
			c0,1.4,0.5,2.7,1.3,3.8c-0.8,1-1.3,2.3-1.3,3.8v7c0,0.1,0,0.1,0,0.2c0,0,0,0.1,0,0.2v7c0,0,0,0.1,0,0.1c0,0,0,0.1,0,0.1v7
			c0,3.3,2.7,6,6,6h7c0.1,0,0.2,0,0.3,0h1.2v1.2c0,0,0,0.1,0,0.2c0,0,0,0.1,0,0.1v7c0,0.1,0,0.1,0,0.2c0,0,0,0.1,0,0.2v7
			c0,0,0,0.1,0,0.1c0,0,0,0.1,0,0.1v7c0,0.1,0,0.1,0,0.2c0,0,0,0.1,0,0.2v7c0,0,0,0.1,0,0.1c0,0,0,0.1,0,0.1v1.3H58
			c-3.3,0-6,2.7-6,6v7c0,0,0,0.1,0,0.1c0,0.1,0,0.1,0,0.2v7c0,0,0,0.1,0,0.1c0,0,0,0.1,0,0.1v7c0,3.3,2.7,6,6,6h1.3v1.3
			c0,0,0,0.1,0,0.1c0,0,0,0.1,0,0.1v7c0,0,0,0.1,0,0.1c0,0.1,0,0.1,0,0.2v7c0,3.3,2.7,6,6,6h7c0.1,0,0.1,0,0.2,0h7
			c0.1,0,0.2,0,0.3,0h7c0.1,0,0.1,0,0.2,0h7c0.1,0,0.2,0,0.3,0h7c3.3,0,6-2.7,6-6v-7c0-3.3-2.7-6-6-6H100v-1.3c0-3.3-2.7-6-6-6h-1.2
			v-1.2c0-1.4-0.5-2.7-1.3-3.8c0.8-1,1.3-2.3,1.3-3.8v-7c0,0,0-0.1,0-0.2c0,0,0-0.1,0-0.1v-1.3H94c3.3,0,6-2.7,6-6V216h1.3
			c3.3,0,6-2.7,6-6v-1.3h1.3c3.3,0,6-2.7,6-6v-7c0,0,0-0.1,0-0.1c0,0,0-0.1,0-0.1v-7c0-0.1,0-0.1,0-0.2c0,0,0-0.1,0-0.2v-7
			c0-3.3-2.7-6-6-6h-1.3v-1.3c0,0,0-0.1,0-0.1c0,0,0-0.1,0-0.1v-1.4h1.3c3.3,0,6-2.7,6-6v-7c0,0,0-0.1,0-0.2c0,0,0-0.1,0-0.1v-0.9
			h1.3c3.3,0,6-2.7,6-6v-1.3h1.3c3.3,0,6-2.7,6-6v-1.3h1.3c3.3,0,6-2.7,6-6v-7C136.4,127.3,133.8,124.6,130.4,124.6z M107.3,131.5
			v-1.1c0-0.1,0-0.1,0-0.1c0,0,0-0.1,0-0.1v-1.3c0.5,0.1,1,0.2,1.5,0.2h1.3v1.3c0,0.5,0.1,1,0.2,1.5c-0.5-0.2-1.1-0.2-1.7-0.2H107.3
			z"/>
	</g>
</g>
<g id="Слой_1">
	<path class="st1" d="M-139.5,246.8h7v7h-7V246.8z M-139.5,239.6h7v7h-7V239.6z M-132.2,254.1h7v7h-7V254.1z M-132.2,246.8h7v7h-7
		V246.8z M-132.2,239.6h7v7h-7V239.6z M-132.2,232.3h7v7h-7V232.3z M-132.2,225.1h7v7h-7V225.1z M-132.2,217.8h7v7h-7V217.8z
		 M-124.9,254.1h7v7h-7V254.1z M-124.9,246.8h7v7h-7V246.8z M-124.9,239.6h7v7h-7V239.6z M-124.9,232.3h7v7h-7V232.3z M-124.9,225.1
		h7v7h-7V225.1z M-124.9,217.8h7v7h-7V217.8z M-124.9,210.5h7v7h-7V210.5z M-117.7,254.1h7v7h-7V254.1z M-117.7,232.3h7v7h-7V232.3z
		 M-117.7,225.1h7v7h-7V225.1z M-117.7,217.8h7v7h-7V217.8z M-117.7,210.5h7v7h-7V210.5z M-117.7,203.3h7v7h-7V203.3z M-117.7,196h7
		v7h-7V196z M-117.7,188.8h7v7h-7V188.8z M-117.7,159.7h7v7h-7V159.7z M-117.7,152.5h7v7h-7V152.5z M-117.7,145.2h7v7h-7V145.2z
		 M-117.7,137.9h7v7h-7V137.9z M-117.7,130.7h7v7h-7V130.7z M-117.7,123.4h7v7h-7V123.4z M-117.7,116.2h7v7h-7V116.2z M-117.7,108.9
		h7v7h-7V108.9z M-117.7,101.6h7v7h-7V101.6z M-117.7,94.4h7v7h-7V94.4z M-110.4,217.8h7v7h-7V217.8z M-110.4,210.5h7v7h-7V210.5z
		 M-110.4,203.3h7v7h-7V203.3z M-110.4,196h7v7h-7V196z M-110.4,188.8h7v7h-7V188.8z M-110.4,181.5h7v7h-7V181.5z M-110.4,174.2h7v7
		h-7V174.2z M-110.4,167h7v7h-7V167z M-110.4,159.7h7v7h-7V159.7z M-110.4,152.5h7v7h-7V152.5z M-110.4,145.2h7v7h-7V145.2z
		 M-110.4,130.7h7v7h-7V130.7z M-110.4,116.2h7v7h-7V116.2z M-110.4,101.6h7v7h-7V101.6z M-110.4,94.4h7v7h-7V94.4z M-110.4,87.1h7
		v7h-7V87.1z M-110.4,79.9h7v7h-7V79.9z M-110.4,72.6h7v7h-7V72.6z M-110.4,50.8h7v7h-7V50.8z M-110.4,43.6h7v7h-7V43.6z
		 M-103.2,196h7v7h-7V196z M-103.2,188.8h7v7h-7V188.8z M-103.2,181.5h7v7h-7V181.5z M-103.2,174.2h7v7h-7V174.2z M-103.2,167h7v7
		h-7V167z M-103.2,159.7h7v7h-7V159.7z M-103.2,152.5h7v7h-7V152.5z M-103.2,137.9h7v7h-7V137.9z M-103.2,123.4h7v7h-7V123.4z
		 M-103.2,108.9h7v7h-7V108.9z M-103.2,94.4h7v7h-7V94.4z M-103.2,87.1h7v7h-7V87.1z M-103.2,79.9h7v7h-7V79.9z M-103.2,72.6h7v7h-7
		V72.6z M-103.2,65.3h7v7h-7V65.3z M-103.2,58.1h7v7h-7V58.1z M-103.2,50.8h7v7h-7V50.8z M-103.2,43.6h7v7h-7V43.6z M-103.2,36.3h7
		v7h-7V36.3z M-95.9,225.1h7v7h-7V225.1z M-95.9,217.8h7v7h-7V217.8z M-95.9,210.5h7v7h-7V210.5z M-95.9,203.3h7v7h-7V203.3z
		 M-95.9,196h7v7h-7V196z M-95.9,188.8h7v7h-7V188.8z M-95.9,181.5h7v7h-7V181.5z M-95.9,174.2h7v7h-7V174.2z M-95.9,167h7v7h-7V167
		z M-95.9,159.7h7v7h-7V159.7z M-95.9,152.5h7v7h-7V152.5z M-95.9,145.2h7v7h-7V145.2z M-95.9,130.7h7v7h-7V130.7z M-95.9,116.2h7v7
		h-7V116.2z M-95.9,101.6h7v7h-7V101.6z M-95.9,87.1h7v7h-7V87.1z M-95.9,79.9h7v7h-7V79.9z M-95.9,72.6h7v7h-7V72.6z M-95.9,65.3h7
		v7h-7V65.3z M-95.9,58.1h7v7h-7V58.1z M-95.9,50.8h7v7h-7V50.8z M-95.9,43.6h7v7h-7V43.6z M-95.9,36.3h7v7h-7V36.3z M-88.6,254.1h7
		v7h-7V254.1z M-88.6,246.8h7v7h-7V246.8z M-88.6,239.6h7v7h-7V239.6z M-88.6,232.3h7v7h-7V232.3z M-88.6,225.1h7v7h-7V225.1z
		 M-88.6,217.8h7v7h-7V217.8z M-88.6,210.5h7v7h-7V210.5z M-88.6,203.3h7v7h-7V203.3z M-88.6,196h7v7h-7V196z M-88.6,188.8h7v7h-7
		V188.8z M-88.6,181.5h7v7h-7V181.5z M-88.6,174.2h7v7h-7V174.2z M-88.6,167h7v7h-7V167z M-88.6,159.7h7v7h-7V159.7z M-88.6,152.5h7
		v7h-7V152.5z M-88.6,145.2h7v7h-7V145.2z M-88.6,137.9h7v7h-7V137.9z M-88.6,130.7h7v7h-7V130.7z M-88.6,123.4h7v7h-7V123.4z
		 M-88.6,116.2h7v7h-7V116.2z M-88.6,108.9h7v7h-7V108.9z M-88.6,101.6h7v7h-7V101.6z M-88.6,94.4h7v7h-7V94.4z M-88.6,87.1h7v7h-7
		V87.1z M-88.6,65.3h7v7h-7V65.3z M-88.6,58.1h7v7h-7V58.1z M-88.6,50.8h7v7h-7V50.8z M-88.6,36.3h7v7h-7V36.3z M-81.4,254.1h7v7h-7
		V254.1z M-81.4,246.8h7v7h-7V246.8z M-81.4,239.6h7v7h-7V239.6z M-81.4,232.3h7v7h-7V232.3z M-81.4,225.1h7v7h-7V225.1z
		 M-81.4,217.8h7v7h-7V217.8z M-81.4,210.5h7v7h-7V210.5z M-81.4,203.3h7v7h-7V203.3z M-81.4,196h7v7h-7V196z M-81.4,188.8h7v7h-7
		V188.8z M-81.4,181.5h7v7h-7V181.5z M-81.4,58.1h7v7h-7V58.1z M-81.4,50.8h7v7h-7V50.8z M-81.4,43.6h7v7h-7V43.6z M-74.1,254.1h7v7
		h-7V254.1z M-74.1,246.8h7v7h-7V246.8z M-66.9,254.1h7v7h-7V254.1z M-59.6,254.1h7v7h-7V254.1z M-125.1,116.1h7v7h-7V116.1z
		 M-132.3,116.1h7v7h-7V116.1z M-132.3,123.4h7v7h-7V123.4z M-139.6,123.4h7v7h-7V123.4z M-125,101.6h7v7h-7V101.6z M-125,108.9h7v7
		h-7V108.9z M-132.3,108.9h7v7h-7V108.9z M-125,130.7h7v7h-7V130.7z M-132.3,130.7h7v7h-7V130.7z M-125,137.9h7v7h-7V137.9z
		 M-81.5,123.4h7v7h-7V123.4z M-81.5,130.6h7v7h-7V130.6z M-81.5,137.9h7v7h-7V137.9z M-81.5,145.3h7v7h-7V145.3z M-74.3,137.9h7v7
		h-7V137.9z M-74.3,145.3h7v7h-7V145.3z M58,232h7v7h-7V232z M58,224.8h7v7h-7V224.8z M58,217.5h7v7h-7V217.5z M65.3,253.8h7v7h-7
		V253.8z M65.3,246.5h7v7h-7V246.5z M65.3,239.3h7v7h-7V239.3z M65.3,232h7v7h-7V232z M65.3,224.8h7v7h-7V224.8z M65.3,217.5h7v7h-7
		V217.5z M65.3,210.2h7v7h-7V210.2z M65.3,203h7v7h-7V203z M65.3,195.7h7v7h-7V195.7z M65.3,188.5h7v7h-7V188.5z M65.3,181.2h7v7h-7
		V181.2z M65.3,173.9h7v7h-7V173.9z M65.3,166.7h7v7h-7V166.7z M65.3,159.4h7v7h-7V159.4z M65.3,152.2h7v7h-7V152.2z M65.3,144.9h7
		v7h-7V144.9z M65.3,137.6h7v7h-7V137.6z M65.3,130.4h7v7h-7V130.4z M65.3,123.1h7v7h-7V123.1z M65.3,115.9h7v7h-7V115.9z
		 M65.3,108.6h7v7h-7V108.6z M65.3,101.3h7v7h-7V101.3z M65.3,94.1h7v7h-7V94.1z M65.3,86.8h7v7h-7V86.8z M65.3,79.6h7v7h-7V79.6z
		 M65.3,50.5h7v7h-7V50.5z M65.3,43.3h7v7h-7V43.3z M72.6,253.8h7v7h-7V253.8z M72.6,246.5h7v7h-7V246.5z M72.6,239.3h7v7h-7V239.3z
		 M72.6,232h7v7h-7V232z M72.6,224.8h7v7h-7V224.8z M72.6,217.5h7v7h-7V217.5z M72.6,210.2h7v7h-7V210.2z M72.6,203h7v7h-7V203z
		 M72.6,195.7h7v7h-7V195.7z M72.6,188.5h7v7h-7V188.5z M72.6,181.2h7v7h-7V181.2z M72.6,173.9h7v7h-7V173.9z M72.6,166.7h7v7h-7
		V166.7z M72.6,159.4h7v7h-7V159.4z M72.6,152.2h7v7h-7V152.2z M72.6,144.9h7v7h-7V144.9z M72.6,130.4h7v7h-7V130.4z M72.6,115.9h7
		v7h-7V115.9z M72.6,101.3h7v7h-7V101.3z M72.6,86.8h7v7h-7V86.8z M72.6,79.6h7v7h-7V79.6z M72.6,72.3h7v7h-7V72.3z M72.6,65h7v7h-7
		V65z M72.6,57.8h7v7h-7V57.8z M72.6,50.5h7v7h-7V50.5z M72.6,43.3h7v7h-7V43.3z M79.9,253.8h7v7h-7V253.8z M79.9,246.5h7v7h-7
		V246.5z M79.9,239.3h7v7h-7V239.3z M79.9,224.8h7v7h-7V224.8z M79.9,217.5h7v7h-7V217.5z M79.9,210.2h7v7h-7V210.2z M79.9,203h7v7
		h-7V203z M79.9,195.7h7v7h-7V195.7z M79.9,188.5h7v7h-7V188.5z M79.9,181.2h7v7h-7V181.2z M79.9,173.9h7v7h-7V173.9z M79.9,166.7h7
		v7h-7V166.7z M79.9,159.4h7v7h-7V159.4z M79.9,152.2h7v7h-7V152.2z M79.9,144.9h7v7h-7V144.9z M79.9,137.6h7v7h-7V137.6z
		 M79.9,123.1h7v7h-7V123.1z M79.9,108.6h7v7h-7V108.6z M79.9,94.1h7v7h-7V94.1z M79.9,79.6h7v7h-7V79.6z M79.9,72.3h7v7h-7V72.3z
		 M79.9,65h7v7h-7V65z M79.9,57.8h7v7h-7V57.8z M79.9,50.5h7v7h-7V50.5z M79.9,43.3h7v7h-7V43.3z M87.1,253.8h7v7h-7V253.8z
		 M87.1,246.5h7v7h-7V246.5z M87.1,210.2h7v7h-7V210.2z M87.1,203h7v7h-7V203z M87.1,195.7h7v7h-7V195.7z M87.1,188.5h7v7h-7V188.5z
		 M87.1,181.2h7v7h-7V181.2z M87.1,173.9h7v7h-7V173.9z M87.1,166.7h7v7h-7V166.7z M87.1,159.4h7v7h-7V159.4z M87.1,152.2h7v7h-7
		V152.2z M87.1,144.9h7v7h-7V144.9z M87.1,137.6h7v7h-7V137.6z M87.1,130.4h7v7h-7V130.4z M87.1,115.9h7v7h-7V115.9z M87.1,108.6h7
		v7h-7V108.6z M87.1,101.3h7v7h-7V101.3z M87.1,94.1h7v7h-7V94.1z M87.1,86.8h7v7h-7V86.8z M87.1,79.6h7v7h-7V79.6z M87.1,65h7v7h-7
		V65z M87.1,57.8h7v7h-7V57.8z M87.1,50.5h7v7h-7V50.5z M94.4,253.8h7v7h-7V253.8z M94.4,203h7v7h-7V203z M94.4,195.7h7v7h-7V195.7z
		 M94.4,188.5h7v7h-7V188.5z M94.4,181.2h7v7h-7V181.2z M94.4,173.9h7v7h-7V173.9z M94.4,166.7h7v7h-7V166.7z M94.4,159.4h7v7h-7
		V159.4z M94.4,152.2h7v7h-7V152.2z M94.4,144.9h7v7h-7V144.9z M94.4,137.6h7v7h-7V137.6z M94.4,130.4h7v7h-7V130.4z M94.4,123.1h7
		v7h-7V123.1z M94.4,115.9h7v7h-7V115.9z M94.4,57.8h7v7h-7V57.8z M94.4,50.5h7v7h-7V50.5z M94.4,43.3h7v7h-7V43.3z M101.6,195.7h7
		v7h-7V195.7z M101.6,188.5h7v7h-7V188.5z M101.6,181.2h7v7h-7V181.2z M43.5,101.4h7v7h-7V101.4z M43.5,108.6h7v7h-7V108.6z
		 M43.5,115.9h7v7h-7V115.9z M43.5,123.1h7v7h-7V123.1z M50.8,86.9h7v7h-7V86.9z M50.8,94.1h7v7h-7V94.1z M50.8,101.4h7v7h-7V101.4z
		 M50.8,108.6h7v7h-7V108.6z M50.8,115.9h7v7h-7V115.9z M50.8,123.1h7v7h-7V123.1z M50.8,130.4h7v7h-7V130.4z M58.1,79.6h7v7h-7
		V79.6z M58.1,86.9h7v7h-7V86.9z M58.1,94.1h7v7h-7V94.1z M58.1,101.4h7v7h-7V101.4z M58.1,108.6h7v7h-7V108.6z M58.1,130.4h7v7h-7
		V130.4z M50.8,137.7h7v7h-7V137.7z M50.8,152.2h7v7h-7V152.2z M50.8,159.5h7v7h-7V159.5z M50.8,166.7h7v7h-7V166.7z M58.1,137.7h7
		v7h-7V137.7z M58.1,144.9h7v7h-7V144.9z M58.1,152.2h7v7h-7V152.2z M58.1,159.5h7v7h-7V159.5z M58.1,166.7h7v7h-7V166.7z
		 M101.6,137.5h7v7h-7V137.5z M101.6,144.7h7v7h-7V144.7z M101.6,152h7v7h-7V152z M101.6,159.3h7v7h-7V159.3z M219.4,254.1h7v7h-7
		V254.1z M219.4,246.8h7v7h-7V246.8z M219.4,239.5h7v7h-7V239.5z M219.4,232.3h7v7h-7V232.3z M219.4,225h7v7h-7V225z M219.4,217.8h7
		v7h-7V217.8z M219.4,210.5h7v7h-7V210.5z M219.4,196.1h7v7h-7V196.1z M219.4,188.9h7v7h-7V188.9z M219.4,181.6h7v7h-7V181.6z
		 M219.4,174.3h7v7h-7V174.3z M219.4,167.1h7v7h-7V167.1z M219.4,152.6h7v7h-7V152.6z M219.4,145.3h7v7h-7V145.3z M219.4,138h7v7h-7
		V138z M219.4,130.8h7v7h-7V130.8z M219.4,123.5h7v7h-7V123.5z M219.4,116.3h7v7h-7V116.3z M219.4,109h7v7h-7V109z M219.4,101.7h7v7
		h-7V101.7z M219.4,94.5h7v7h-7V94.5z M219.4,87.2h7v7h-7V87.2z M226.6,254.1h7v7h-7V254.1z M226.6,246.8h7v7h-7V246.8z
		 M226.6,239.5h7v7h-7V239.5z M226.6,232.3h7v7h-7V232.3z M226.6,225h7v7h-7V225z M226.6,217.8h7v7h-7V217.8z M226.6,210.5h7v7h-7
		V210.5z M226.6,196.1h7v7h-7V196.1z M226.6,188.9h7v7h-7V188.9z M226.6,181.6h7v7h-7V181.6z M226.6,174.3h7v7h-7V174.3z
		 M226.6,167.1h7v7h-7V167.1z M226.6,159.8h7v7h-7V159.8z M226.6,152.6h7v7h-7V152.6z M226.6,145.3h7v7h-7V145.3z M226.6,130.8h7v7
		h-7V130.8z M226.6,116.3h7v7h-7V116.3z M226.6,101.7h7v7h-7V101.7z M226.6,94.5h7v7h-7V94.5z M226.6,87.2h7v7h-7V87.2z M226.6,80h7
		v7h-7V80z M226.6,72.7h7v7h-7V72.7z M226.6,50.9h7v7h-7V50.9z M226.6,43.7h7v7h-7V43.7z M233.9,254.1h7v7h-7V254.1z M233.9,232.3h7
		v7h-7V232.3z M233.9,225h7v7h-7V225z M233.9,196.1h7v7h-7V196.1z M233.9,188.9h7v7h-7V188.9z M233.9,181.6h7v7h-7V181.6z
		 M233.9,174.3h7v7h-7V174.3z M233.9,167.1h7v7h-7V167.1z M233.9,159.8h7v7h-7V159.8z M233.9,152.6h7v7h-7V152.6z M233.9,138h7v7h-7
		V138z M233.9,123.5h7v7h-7V123.5z M233.9,109h7v7h-7V109z M233.9,94.5h7v7h-7V94.5z M233.9,87.2h7v7h-7V87.2z M233.9,80h7v7h-7V80z
		 M233.9,72.7h7v7h-7V72.7z M233.9,65.4h7v7h-7V65.4z M233.9,58.2h7v7h-7V58.2z M233.9,50.9h7v7h-7V50.9z M233.9,43.7h7v7h-7V43.7z
		 M241.1,254.1h7v7h-7V254.1z M241.1,239.5h7v7h-7V239.5z M241.1,232.3h7v7h-7V232.3z M241.1,225h7v7h-7V225z M241.1,217.8h7v7h-7
		V217.8z M241.1,174.3h7v7h-7V174.3z M241.1,167.1h7v7h-7V167.1z M241.1,159.8h7v7h-7V159.8z M241.1,152.6h7v7h-7V152.6z
		 M241.1,145.3h7v7h-7V145.3z M241.1,130.8h7v7h-7V130.8z M241.1,116.3h7v7h-7V116.3z M241.1,101.7h7v7h-7V101.7z M241.1,87.2h7v7
		h-7V87.2z M241.1,80h7v7h-7V80z M241.1,72.7h7v7h-7V72.7z M241.1,65.4h7v7h-7V65.4z M241.1,58.2h7v7h-7V58.2z M241.1,50.9h7v7h-7
		V50.9z M241.1,43.7h7v7h-7V43.7z M248.4,246.8h7v7h-7V246.8z M248.4,239.5h7v7h-7V239.5z M248.4,232.3h7v7h-7V232.3z M248.4,225h7
		v7h-7V225z M248.4,217.8h7v7h-7V217.8z M248.4,210.5h7v7h-7V210.5z M248.4,196.1h7v7h-7V196.1z M248.4,174.3h7v7h-7V174.3z
		 M248.4,167.1h7v7h-7V167.1z M248.4,159.8h7v7h-7V159.8z M248.4,152.6h7v7h-7V152.6z M248.4,145.3h7v7h-7V145.3z M248.4,138h7v7h-7
		V138z M248.4,130.8h7v7h-7V130.8z M248.4,123.5h7v7h-7V123.5z M248.4,116.3h7v7h-7V116.3z M248.4,109h7v7h-7V109z M248.4,101.7h7v7
		h-7V101.7z M248.4,94.5h7v7h-7V94.5z M248.4,87.2h7v7h-7V87.2z M248.4,65.4h7v7h-7V65.4z M248.4,58.2h7v7h-7V58.2z M248.4,50.9h7v7
		h-7V50.9z M255.7,246.8h7v7h-7V246.8z M255.7,239.5h7v7h-7V239.5z M255.7,217.8h7v7h-7V217.8z M255.7,210.5h7v7h-7V210.5z
		 M255.7,196.1h7v7h-7V196.1z M255.7,188.9h7v7h-7V188.9z M255.7,181.6h7v7h-7V181.6z M255.7,174.3h7v7h-7V174.3z M255.7,167.1h7v7
		h-7V167.1z M255.7,159.8h7v7h-7V159.8z M255.7,152.6h7v7h-7V152.6z M255.7,58.2h7v7h-7V58.2z M255.7,50.9h7v7h-7V50.9z M255.7,43.7
		h7v7h-7V43.7z M262.9,196.1h7v7h-7V196.1z M262.9,188.9h7v7h-7V188.9z M262.9,181.6h7v7h-7V181.6z M262.9,174.3h7v7h-7V174.3z
		 M262.9,167.1h7v7h-7V167.1z M270.2,188.9h7v7h-7V188.9z M270.2,181.6h7v7h-7V181.6z M219.4,203.3h7v7h-7V203.3z M226.6,203.3h7v7
		h-7V203.3z M248.4,203.3h7v7h-7V203.3z M255.7,203.3h7v7h-7V203.3z M255.7,109.2h7v7h-7V109.2z M255.7,116.4h7v7h-7V116.4z
		 M255.7,123.7h7v7h-7V123.7z M263,116.4h7v7h-7V116.4z M263,123.7h7v7h-7V123.7z M263,138.2h7v7h-7V138.2z M263,131h7v7h-7V131z
		 M270.2,131h7v7h-7V131z M270.2,138.2h7v7h-7V138.2z M270.2,145.4h7v7h-7V145.4z M255.7,131h7v7h-7V131z M277.5,145.4h7v7h-7V145.4
		z M212.1,101.7h7v7h-7V101.7z M212.1,109h7v7h-7V109z M212.1,116.2h7v7h-7V116.2z M212.1,123.5h7v7h-7V123.5z M212.1,152.6h7v7h-7
		V152.6z M219.4,159.9h7v7h-7V159.9z M387.9,254.1h7v7h-7V254.1z M387.9,246.9h7v7h-7V246.9z M387.9,239.6h7v7h-7V239.6z
		 M387.9,232.4h7v7h-7V232.4z M387.9,225.1h7v7h-7V225.1z M387.9,217.8h7v7h-7V217.8z M387.9,210.6h7v7h-7V210.6z M395.2,254.1h7v7
		h-7V254.1z M395.2,246.9h7v7h-7V246.9z M395.2,239.6h7v7h-7V239.6z M395.2,232.4h7v7h-7V232.4z M395.2,225.1h7v7h-7V225.1z
		 M395.2,217.8h7v7h-7V217.8z M395.2,210.6h7v7h-7V210.6z M395.2,203.3h7v7h-7V203.3z M395.2,196.1h7v7h-7V196.1z M395.2,188.8h7v7
		h-7V188.8z M395.2,159.8h7v7h-7V159.8z M395.2,152.5h7v7h-7V152.5z M395.2,145.2h7v7h-7V145.2z M395.2,138h7v7h-7V138z
		 M395.2,130.7h7v7h-7V130.7z M395.2,123.5h7v7h-7V123.5z M395.2,116.2h7v7h-7V116.2z M395.2,108.9h7v7h-7V108.9z M395.2,101.7h7v7
		h-7V101.7z M395.2,94.4h7v7h-7V94.4z M395.2,87.2h7v7h-7V87.2z M402.4,254.1h7v7h-7C402.4,261.1,402.4,254.1,402.4,254.1z
		 M402.4,246.9h7v7h-7C402.4,253.9,402.4,246.9,402.4,246.9z M402.4,225.1h7v7h-7C402.4,232.1,402.4,225.1,402.4,225.1z
		 M402.4,217.8h7v7h-7C402.4,224.8,402.4,217.8,402.4,217.8z M402.4,210.6h7v7h-7C402.4,217.6,402.4,210.6,402.4,210.6z
		 M402.4,203.3h7v7h-7C402.4,210.3,402.4,203.3,402.4,203.3z M402.4,196.1h7v7h-7C402.4,203.1,402.4,196.1,402.4,196.1z
		 M402.4,188.8h7v7h-7C402.4,195.8,402.4,188.8,402.4,188.8z M402.4,181.5h7v7h-7C402.4,188.5,402.4,181.5,402.4,181.5z
		 M402.4,174.3h7v7h-7C402.4,181.3,402.4,174.3,402.4,174.3z M402.4,167h7v7h-7C402.4,174,402.4,167,402.4,167z M402.4,159.8h7v7h-7
		C402.4,166.8,402.4,159.8,402.4,159.8z M402.4,152.5h7v7h-7C402.4,159.5,402.4,152.5,402.4,152.5z M402.4,138h7v7h-7
		C402.4,145,402.4,138,402.4,138z M402.4,123.5h7v7h-7C402.4,130.5,402.4,123.5,402.4,123.5z M402.4,108.9h7v7h-7
		C402.4,115.9,402.4,108.9,402.4,108.9z M402.4,94.4h7v7h-7C402.4,101.4,402.4,94.4,402.4,94.4z M402.4,87.2h7v7h-7
		C402.4,94.2,402.4,87.2,402.4,87.2z M402.4,79.9h7v7h-7C402.4,86.9,402.4,79.9,402.4,79.9z M402.4,72.6h7v7h-7
		C402.4,79.6,402.4,72.6,402.4,72.6z M402.4,50.9h7v7h-7C402.4,57.9,402.4,50.9,402.4,50.9z M402.4,43.6h7v7h-7
		C402.4,50.6,402.4,43.6,402.4,43.6z M409.7,254.1h7v7h-7V254.1z M409.7,246.9h7v7h-7V246.9z M409.7,203.3h7v7h-7V203.3z
		 M409.7,196.1h7v7h-7V196.1z M409.7,188.8h7v7h-7V188.8z M409.7,181.5h7v7h-7V181.5z M409.7,174.3h7v7h-7V174.3z M409.7,167h7v7h-7
		V167z M409.7,159.8h7v7h-7V159.8z M409.7,145.2h7v7h-7V145.2z M409.7,130.7h7v7h-7V130.7z M409.7,116.2h7v7h-7V116.2z M409.7,101.7
		h7v7h-7V101.7z M409.7,94.4h7v7h-7V94.4z M409.7,87.2h7v7h-7V87.2z M409.7,79.9h7v7h-7V79.9z M409.7,72.6h7v7h-7V72.6z M409.7,65.4
		h7v7h-7V65.4z M409.7,58.1h7v7h-7V58.1z M409.7,50.9h7v7h-7V50.9z M409.7,43.6h7v7h-7V43.6z M416.9,254.1h7v7h-7V254.1z
		 M416.9,181.5h7v7h-7V181.5z M416.9,174.3h7v7h-7V174.3z M416.9,167h7v7h-7V167z M416.9,159.8h7v7h-7V159.8z M416.9,152.5h7v7h-7
		V152.5z M416.9,138h7v7h-7V138z M416.9,123.5h7v7h-7V123.5z M416.9,108.9h7v7h-7V108.9z M416.9,94.4h7v7h-7V94.4z M416.9,87.2h7v7
		h-7V87.2z M416.9,79.9h7v7h-7V79.9z M416.9,72.6h7v7h-7V72.6z M416.9,65.4h7v7h-7V65.4z M416.9,58.1h7v7h-7V58.1z M416.9,50.9h7v7
		h-7V50.9z M416.9,43.6h7v7h-7V43.6z M424.2,188.8h7v7h-7V188.8z M424.2,181.5h7v7h-7V181.5z M424.2,174.3h7v7h-7V174.3z M424.2,167
		h7v7h-7V167z M424.2,159.8h7v7h-7V159.8z M424.2,152.5h7v7h-7V152.5z M424.2,145.2h7v7h-7V145.2z M424.2,138h7v7h-7V138z
		 M424.2,130.7h7v7h-7V130.7z M424.2,123.5h7v7h-7V123.5z M424.2,116.2h7v7h-7V116.2z M424.2,108.9h7v7h-7V108.9z M424.2,101.7h7v7
		h-7V101.7z M424.2,94.4h7v7h-7V94.4z M424.2,65.4h7v7h-7V65.4z M424.2,58.1h7v7h-7V58.1z M424.2,50.9h7v7h-7V50.9z M431.4,217.8h7
		v7h-7V217.8z M431.4,210.6h7v7h-7V210.6z M431.4,203.3h7v7h-7V203.3z M431.4,196.1h7v7h-7V196.1z M431.4,188.8h7v7h-7V188.8z
		 M431.4,181.5h7v7h-7V181.5z M431.4,174.3h7v7h-7V174.3z M431.4,167h7v7h-7V167z M431.4,159.8h7v7h-7V159.8z M431.4,58.1h7v7h-7
		V58.1z M431.4,50.9h7v7h-7V50.9z M431.4,43.6h7v7h-7V43.6z M438.7,239.6h7v7h-7V239.6z M438.7,232.4h7v7h-7V232.4z M438.7,225.1h7
		v7h-7V225.1z M438.7,217.8h7v7h-7V217.8z M438.7,210.6h7v7h-7V210.6z M438.7,203.3h7v7h-7V203.3z M438.7,196.1h7v7h-7V196.1z
		 M438.7,188.8h7v7h-7V188.8z M438.7,181.5h7v7h-7V181.5z M446,246.9h7v7h-7V246.9z M446,239.6h7v7h-7V239.6z M446,232.4h7v7h-7
		V232.4z M446,225.1h7v7h-7V225.1z M446,217.8h7v7h-7V217.8z M446,210.6h7v7h-7V210.6z M446,203.3h7v7h-7V203.3z M446,196.1h7v7h-7
		V196.1z M453.2,246.9h7v7h-7V246.9z M453.2,239.6h7v7h-7V239.6z M453.2,232.4h7v7h-7V232.4z M460.5,246.9h7v7h-7V246.9z
		 M460.5,239.6h7v7h-7V239.6z M467.8,239.6h7v7h-7C467.8,246.6,467.8,239.6,467.8,239.6z M431.4,108.9h7v7h-7V108.9z M431.4,116.2h7
		v7h-7V116.2z M438.7,116.2h7v7h-7V116.2z M431.4,123.5h7v7h-7V123.5z M438.7,123.5h7v7h-7V123.5z M438.7,130.7h7v7h-7V130.7z
		 M445.9,123.5h7v7h-7V123.5z M445.9,130.7h7v7h-7V130.7z M445.9,138h7v7h-7V138z M453.2,130.7h7v7h-7V130.7z M453.2,138h7v7h-7V138
		z M453.2,145.2h7v7h-7V145.2z M431.4,130.8h7v7h-7V130.8z M373.5,116.2h7v7h-7V116.2z M373.5,123.4h7v7h-7V123.4z M373.5,130.7h7v7
		h-7V130.7z M373.5,137.9h7v7h-7V137.9z M380.7,101.7h7v7h-7V101.7z M380.7,108.9h7v7h-7V108.9z M380.7,116.2h7v7h-7V116.2z
		 M380.7,123.4h7v7h-7V123.4z M380.7,130.7h7v7h-7V130.7z M380.7,137.9h7v7h-7V137.9z M388,94.4h7v7h-7V94.4z M388,101.7h7v7h-7
		V101.7z M388,108.9h7v7h-7V108.9z M388,116.2h7v7h-7V116.2z M388,123.4h7v7h-7V123.4z M373.5,145.2h7v7h-7V145.2z M380.8,152.4h7v7
		h-7V152.4z M380.8,159.6h7v7h-7V159.6z M380.8,167h7v7h-7V167z M380.7,145.2h7v7h-7V145.2z M387.9,159.6h7v7h-7V159.6z M387.9,167
		h7v7h-7V167z M545.6,246.8h7v7h-7V246.8z M545.6,239.5h7v7h-7V239.5z M545.6,232.3h7v7h-7V232.3z M553,254.1h7v7h-7V254.1z
		 M553,246.8h7v7h-7V246.8z M553,239.5h7v7h-7V239.5z M553,232.3h7v7h-7V232.3z M553,225h7v7h-7V225z M553,217.8h7v7h-7V217.8z
		 M560.2,254.1h7v7h-7V254.1z M560.2,232.3h7v7h-7V232.3z M560.2,225h7v7h-7V225z M560.2,217.8h7v7h-7V217.8z M560.2,210.5h7v7h-7
		V210.5z M560.2,203.2h7v7h-7V203.2z M567.5,254.1h7v7h-7V254.1z M567.5,217.8h7v7h-7V217.8z M567.5,210.5h7v7h-7V210.5z
		 M567.5,203.2h7v7h-7V203.2z M567.5,196h7v7h-7V196z M567.5,188.7h7v7h-7V188.7z M567.5,181.5h7v7h-7V181.5z M567.5,174.2h7v7h-7
		V174.2z M567.5,167h7v7h-7V167z M567.5,159.7h7v7h-7V159.7z M567.5,152.4h7v7h-7V152.4z M567.5,145.2h7v7h-7V145.2z M567.5,137.9h7
		v7h-7V137.9z M567.5,130.7h7v7h-7V130.7z M567.5,123.4h7v7h-7V123.4z M567.5,116.1h7v7h-7V116.1z M567.5,108.9h7v7h-7V108.9z
		 M567.5,101.6h7v7h-7V101.6z M567.5,94.3h7v7h-7V94.3z M567.5,87.1h7v7h-7V87.1z M567.5,79.8h7v7h-7V79.8z M574.8,210.5h7v7h-7
		V210.5z M574.8,203.2h7v7h-7V203.2z M574.8,196h7v7h-7V196z M574.8,188.7h7v7h-7V188.7z M574.8,181.5h7v7h-7V181.5z M574.8,174.2h7
		v7h-7V174.2z M574.8,167h7v7h-7V167z M574.8,159.7h7v7h-7V159.7z M574.8,152.4h7v7h-7V152.4z M574.8,137.9h7v7h-7V137.9z
		 M574.8,123.4h7v7h-7V123.4z M574.8,108.9h7v7h-7V108.9z M574.8,101.6h7v7h-7V101.6z M574.8,94.3h7v7h-7V94.3z M574.8,87.1h7v7h-7
		V87.1z M574.8,79.8h7v7h-7V79.8z M574.8,72.6h7v7h-7V72.6z M574.8,50.8h7v7h-7V50.8z M574.8,43.5h7v7h-7V43.5z M582,196h7v7h-7V196
		z M582,188.7h7v7h-7V188.7z M582,181.5h7v7h-7V181.5z M582,174.2h7v7h-7V174.2z M582,167h7v7h-7V167z M582,159.7h7v7h-7V159.7z
		 M582,145.2h7v7h-7V145.2z M582,130.7h7v7h-7V130.7z M582,116.1h7v7h-7V116.1z M582,101.6h7v7h-7V101.6z M582,87.1h7v7h-7V87.1z
		 M582,79.8h7v7h-7V79.8z M582,72.6h7v7h-7V72.6z M582,65.3h7v7h-7V65.3z M582,58.1h7v7h-7V58.1z M582,50.8h7v7h-7V50.8z M582,43.5
		h7v7h-7V43.5z M589.2,188.7h7v7h-7V188.7z M589.2,181.5h7v7h-7V181.5z M589.2,174.2h7v7h-7V174.2z M589.2,167h7v7h-7V167z
		 M589.2,159.7h7v7h-7V159.7z M589.2,152.4h7v7h-7V152.4z M589.2,137.9h7v7h-7V137.9z M589.2,123.4h7v7h-7V123.4z M589.2,108.9h7v7
		h-7V108.9z M589.2,94.3h7v7h-7V94.3z M589.2,87.1h7v7h-7V87.1z M589.2,79.8h7v7h-7V79.8z M589.2,72.6h7v7h-7V72.6z M589.2,65.3h7v7
		h-7V65.3z M589.2,58.1h7v7h-7V58.1z M589.2,50.8h7v7h-7V50.8z M589.2,43.5h7v7h-7V43.5z M596.5,217.8h7v7h-7V217.8z M596.5,210.5h7
		v7h-7V210.5z M596.5,203.2h7v7h-7V203.2z M596.5,196h7v7h-7V196z M596.5,188.7h7v7h-7V188.7z M596.5,181.5h7v7h-7V181.5z
		 M596.5,174.2h7v7h-7V174.2z M596.5,167h7v7h-7V167z M596.5,159.7h7v7h-7V159.7z M596.5,152.4h7v7h-7V152.4z M596.5,145.2h7v7h-7
		V145.2z M596.5,137.9h7v7h-7V137.9z M596.5,130.7h7v7h-7V130.7z M596.5,123.4h7v7h-7V123.4z M596.5,116.1h7v7h-7V116.1z
		 M596.5,108.9h7v7h-7V108.9z M596.5,101.6h7v7h-7V101.6z M596.5,94.3h7v7h-7V94.3z M596.5,65.3h7v7h-7V65.3z M596.5,58.1h7v7h-7
		V58.1z M596.5,50.8h7v7h-7V50.8z M603.8,239.5h7v7h-7V239.5z M603.8,232.3h7v7h-7V232.3z M603.8,225h7v7h-7V225z M603.8,217.8h7v7
		h-7V217.8z M603.8,210.5h7v7h-7V210.5z M603.8,203.2h7v7h-7V203.2z M603.8,196h7v7h-7V196z M603.8,188.7h7v7h-7V188.7z
		 M603.8,181.5h7v7h-7V181.5z M603.8,174.2h7v7h-7V174.2z M603.8,58.1h7v7h-7V58.1z M603.8,50.8h7v7h-7V50.8z M603.8,43.5h7v7h-7
		V43.5z M611,254.1h7v7h-7V254.1z M611,246.8h7v7h-7V246.8z M611,239.5h7v7h-7V239.5z M611,232.3h7v7h-7V232.3z M611,225h7v7h-7V225
		z M611,217.8h7v7h-7V217.8z M611,210.5h7v7h-7V210.5z M611,203.2h7v7h-7V203.2z M611,196h7v7h-7V196z M603.8,246.8h7v7h-7V246.8z
		 M618.3,246.8h7v7h-7V246.8z M618.3,239.5h7v7h-7V239.5z M625.5,246.8h7v7h-7V246.8z M632.8,246.8h7v7h-7V246.8z M603.8,108.9h7v7
		h-7V108.9z M603.8,116.1h7v7h-7V116.1z M603.8,123.4h7v7h-7V123.4z M611,116.1h7v7h-7V116.1z M611,123.4h7v7h-7V123.4z
		 M618.3,123.4h7v7h-7V123.4z M611,130.7h7v7h-7V130.7z M618.3,130.7h7v7h-7V130.7z M618.3,137.9h7v7h-7V137.9z M625.7,130.7h7v7h-7
		V130.7z M618.2,109h7v7h-7V109z M640,130.8h7v7h-7V130.8z M625.5,101.7h7v7h-7V101.7z M647.3,123.5h7v7h-7V123.5z M632.8,94.4h7v7
		h-7V94.4z M640,101.6h7v7h-7V101.6z M647.3,108.9h7v7h-7V108.9z M654.6,116.2h7v7h-7V116.2z M625.7,137.9h7v7h-7V137.9z
		 M625.7,145.2h7v7h-7V145.2z M632.8,137.9h7v7h-7V137.9z M632.8,145.2h7v7h-7V145.2z M545.6,108.9h7v7h-7V108.9z M545.6,116.1h7v7
		h-7V116.1z M545.6,123.4h7v7h-7V123.4z M545.6,130.6h7v7h-7V130.6z M545.6,137.9h7v7h-7V137.9z M552.8,94.4h7v7h-7V94.4z
		 M552.8,101.6h7v7h-7V101.6z M552.8,108.9h7v7h-7V108.9z M552.8,116.1h7v7h-7V116.1z M552.8,123.4h7v7h-7V123.4z M552.8,130.6h7v7
		h-7V130.6z M552.8,137.9h7v7h-7V137.9z M560.1,87.1h7v7h-7V87.1z M560.1,94.4h7v7h-7V94.4z M560.1,101.6h7v7h-7V101.6z
		 M560.1,108.9h7v7h-7V108.9z M560.1,116.1h7v7h-7V116.1z M560.1,123.4h7v7h-7V123.4z M560.1,130.6h7v7h-7V130.6z M545.6,145.2h7v7
		h-7V145.2z M545.6,152.4h7v7h-7V152.4z M545.6,159.7h7v7h-7V159.7z M545.6,167h7v7h-7V167z M552.8,145.2h7v7h-7V145.2z
		 M552.8,152.4h7v7h-7V152.4z M552.8,159.7h7v7h-7V159.7z M552.8,167h7v7h-7V167z M-95.9,29.1h7v7h-7V29.1z M-88.6,29.1h7v7h-7V29.1
		z M-81.3,29.1h7v7h-7V29.1z M-81.3,36.3h7v7h-7V36.3z M-117.8,36.3h7v7h-7V36.3z M-110.5,36.3h7v7h-7V36.3z M72.4,36h7v7h-7V36z
		 M79.8,36h7v7h-7V36z M87.1,36h7v7h-7V36z M79.8,28.8h7v7h-7V28.8z M87,28.8h7v7h-7V28.8z M94.3,28.8h7v7h-7V28.8z M94.4,36h7v7h-7
		V36z M57.9,36h7v7h-7V36z M65.2,36h7v7h-7V36z M233.8,36.3h7v7h-7V36.3z M241.1,36.3h7v7h-7V36.3z M248.4,36.3h7v7h-7V36.3z
		 M241.1,29.2h7v7h-7V29.2z M248.4,29.2h7v7h-7V29.2z M255.7,29.2h7v7h-7V29.2z M255.7,36.3h7v7h-7V36.3z M219.2,36.3h7v7h-7V36.3z
		 M226.5,36.3h7v7h-7V36.3z M409.5,36.3h7v7h-7V36.3z M416.8,36.3h7v7h-7V36.3z M424.1,36.3h7v7h-7V36.3z M416.8,29.1h7v7h-7V29.1z
		 M424.1,29.1h7v7h-7V29.1z M431.4,29.1h7v7h-7V29.1z M431.4,36.3h7v7h-7V36.3z M394.9,36.3h7v7h-7V36.3z M402.2,36.3h7v7h-7V36.3z
		 M581.8,36.2h7v7h-7V36.2z M589.1,36.2h7v7h-7V36.2z M596.5,36.2h7v7h-7V36.2z M589.1,29h7v7h-7V29z M596.5,29h7v7h-7V29z
		 M603.8,29h7v7h-7V29z M603.8,36.2h7v7h-7V36.2z M567.2,36.2h7v7h-7V36.2z M574.5,36.2h7v7h-7V36.2z M438.6,101.5h7v7h-7V101.5z
		 M460.4,123.3h7v7h-7V123.3z M445.9,94.2h7v7h-7V94.2z M467.7,116h7v7h-7V116z M453.1,87h7v7h-7V87z M460.4,94.3h7v7h-7V94.3z
		 M467.6,101.6h7v7h-7V101.6z M474.9,108.8h7v7h-7V108.8z M284.8,138.4h7v7h-7V138.4z M270.3,109.3h7v7h-7V109.3z M292.1,131.1h7v7
		h-7V131.1z M277.6,102h7v7h-7V102z M284.8,109.2h7v7h-7V109.2z M292.1,116.5h7v7h-7V116.5z M299.4,123.8h7v7h-7V123.8z
		 M108.9,145.1h7v7h-7V145.1z M116.2,137.8h7v7h-7V137.8z M101.7,108.8h7v7h-7V108.8z M108.9,116h7v7h-7V116z M116.2,123.3h7v7h-7
		V123.3z M123.5,130.6h7v7h-7V130.6z M-59.8,145.4h7v7h-7V145.4z M-74.3,116.3h7v7h-7V116.3z M-52.5,138.1h7v7h-7V138.1z M-67,109h7
		v7h-7V109z M-59.8,116.2h7v7h-7V116.2z M-52.5,123.5h7v7h-7V123.5z M-45.2,130.8h7v7h-7V130.8z M-67,152.5h7v7h-7V152.5z"/>
</g>
</svg>
