<?xml version="1.0" encoding="utf-8"?>
<!-- Generator: Adobe Illustrator 27.3.1, SVG Export Plug-In . SVG Version: 6.00 Build 0)  -->
<svg version="1.1" id="Слой_1" xmlns="http://www.w3.org/2000/svg" xmlns:xlink="http://www.w3.org/1999/xlink" x="0px" y="0px"
	 viewBox="0 0 145 370" style="enable-background:new 0 0 145 370;" xml:space="preserve">
<style type="text/css">
	.st0{fill:#1E0E01;}
</style>
<g id="Слой_1_00000011724448360984348060000000742241445815655088_">
</g>
<path class="st0" d="M21.8,130.7h7v7h-7V130.7z M29.1,87.2h7v7h-7V87.2z M29.1,109h7v7h-7V109z M29.1,123.5h7v7h-7V123.5z
	 M29.1,130.7h7v7h-7V130.7z M36.3,58.1h7v7h-7V58.1z M36.3,79.9h7v7h-7V79.9z M36.3,87.2h7v7h-7V87.2z M36.3,101.7h7v7h-7V101.7z
	 M36.3,109h7v7h-7V109z M36.3,123.5h7v7h-7V123.5z M36.3,130.7h7v7h-7V130.7z M36.3,145.2h7v7h-7V145.2z M36.3,152.5h7v7h-7V152.5z
	 M43.6,58.1h7v7h-7V58.1z M43.6,72.6h7v7h-7V72.6z M43.6,79.9h7v7h-7V79.9z M43.6,87.2h7v7h-7V87.2z M43.6,94.4h7v7h-7V94.4z
	 M43.6,101.7h7v7h-7V101.7z M43.6,109h7v7h-7V109z M43.6,123.5h7v7h-7V123.5z M43.6,130.7h7v7h-7V130.7z M43.6,138h7v7h-7V138z
	 M43.6,145.2h7v7h-7V145.2z M50.8,29.1h7v7h-7V29.1z M50.8,43.6h7v7h-7V43.6z M50.8,58.1h7v7h-7V58.1z M50.8,72.6h7v7h-7V72.6z
	 M50.8,87.2h7v7h-7V87.2z M50.8,101.7h7v7h-7V101.7z M50.8,109h7v7h-7V109z M50.8,116.2h7v7h-7V116.2z M50.8,130.7h7v7h-7V130.7z
	 M50.8,138h7v7h-7V138z M50.8,145.2h7v7h-7V145.2z M50.8,152.5h7v7h-7V152.5z M0,196.1h7v7H0V196.1z M0,203.3h7v7H0V203.3z M7.3,167
	h7v7h-7V167z M7.3,196.1h7v7h-7V196.1z M7.3,203.3h7v7h-7V203.3z M7.3,210.6h7v7h-7V210.6z M7.3,225.1h7v7h-7V225.1z M14.5,159.8h7
	v7h-7V159.8z M14.5,167h7v7h-7V167z M14.5,196.1h7v7h-7V196.1z M14.5,203.3h7v7h-7V203.3z M14.5,210.6h7v7h-7V210.6z M14.5,225.1h7
	v7h-7V225.1z M21.8,159.8h7v7h-7V159.8z M21.8,167h7v7h-7V167z M21.8,188.8h7v7h-7V188.8z M21.8,196.1h7v7h-7V196.1z M21.8,203.3h7
	v7h-7V203.3z M21.8,210.6h7v7h-7V210.6z M21.8,225.1h7v7h-7V225.1z M29.1,159.8h7v7h-7V159.8z M29.1,167h7v7h-7V167z M29.1,181.6h7
	v7h-7V181.6z M29.1,188.8h7v7h-7V188.8z M29.1,196.1h7v7h-7V196.1z M29.1,203.3h7v7h-7V203.3z M29.1,210.6h7v7h-7V210.6z
	 M29.1,217.8h7v7h-7V217.8z M29.1,225.1h7v7h-7V225.1z M36.3,167h7v7h-7V167z M36.3,174.3h7v7h-7V174.3z M36.3,181.6h7v7h-7V181.6z
	 M36.3,188.8h7v7h-7V188.8z M36.3,203.3h7v7h-7V203.3z M36.3,210.6h7v7h-7V210.6z M36.3,217.8h7v7h-7V217.8z M36.3,225.1h7v7h-7
	V225.1z M43.6,159.8h7v7h-7V159.8z M43.6,167h7v7h-7V167z M43.6,181.6h7v7h-7V181.6z M43.6,196.1h7v7h-7V196.1z M43.6,203.3h7v7h-7
	V203.3z M43.6,210.6h7v7h-7V210.6z M43.6,217.8h7v7h-7V217.8z M50.8,159.8h7v7h-7V159.8z M50.8,174.3h7v7h-7V174.3z M50.8,181.6h7v7
	h-7V181.6z M50.8,188.8h7v7h-7V188.8z M50.8,196.1h7v7h-7V196.1z M50.8,203.3h7v7h-7V203.3z M50.8,210.6h7v7h-7V210.6z M50.8,225.1
	h7v7h-7V225.1z M0,232.4h7v7H0V232.4z M0,261.4h7v7H0V261.4z M7.3,232.4h7v7h-7V232.4z M7.3,254.2h7v7h-7V254.2z M7.3,261.4h7v7h-7
	V261.4z M14.5,232.4h7v7h-7V232.4z M14.5,246.9h7v7h-7V246.9z M14.5,254.2h7v7h-7V254.2z M14.5,261.4h7v7h-7V261.4z M14.5,268.7h7v7
	h-7V268.7z M21.8,232.4h7v7h-7V232.4z M21.8,239.6h7v7h-7V239.6z M21.8,246.9h7v7h-7V246.9z M21.8,261.4h7v7h-7V261.4z M29.1,232.4
	h7v7h-7V232.4z M29.1,239.6h7v7h-7V239.6z M29.1,254.2h7v7h-7V254.2z M29.1,261.4h7v7h-7V261.4z M36.3,239.6h7v7h-7V239.6z
	 M36.3,246.9h7v7h-7V246.9z M36.3,254.2h7v7h-7V254.2z M36.3,261.4h7v7h-7V261.4z M36.3,268.7h7v7h-7V268.7z M43.6,232.4h7v7h-7
	V232.4z M43.6,239.6h7v7h-7V239.6z M43.6,254.2h7v7h-7V254.2z M43.6,268.7h7v7h-7V268.7z M50.8,232.4h7v7h-7V232.4z M50.8,239.6h7v7
	h-7V239.6z M50.8,246.9h7v7h-7V246.9z M50.8,254.2h7v7h-7V254.2z M50.8,261.4h7v7h-7V261.4z M50.8,268.7h7v7h-7V268.7z M50.8,363h7
	v7h-7V363z M36.3,348.5h7v7h-7V348.5z M58.1,355.8h7v7h-7V355.8z M43.6,341.3h7v7h-7V341.3z M43.6,355.8h7v7h-7V355.8z M50.8,334h7
	v7h-7V334z M50.8,348.5h7v7h-7V348.5z M58.1,21.8h7v7h-7V21.8z M58.1,29.1h7v7h-7V29.1z M58.1,36.4h7v7h-7V36.4z M58.1,50.9h7v7h-7
	V50.9z M58.1,58.1h7v7h-7V58.1z M58.1,65.4h7v7h-7V65.4z M58.1,79.9h7v7h-7V79.9z M58.1,94.4h7v7h-7V94.4z M58.1,101.7h7v7h-7V101.7
	z M58.1,109h7v7h-7V109z M58.1,123.5h7v7h-7V123.5z M58.1,130.7h7v7h-7V130.7z M58.1,138h7v7h-7V138z M58.1,152.5h7v7h-7V152.5z
	 M65.4,0h7v7h-7V0z M65.4,7.3h7v7h-7V7.3z M65.4,14.6h7v7h-7V14.6z M65.4,21.8h7v7h-7V21.8z M65.4,29.1h7v7h-7V29.1z M65.4,36.4h7v7
	h-7V36.4z M65.4,43.6h7v7h-7V43.6z M65.4,50.9h7v7h-7V50.9z M65.4,58.1h7v7h-7V58.1z M65.4,72.6h7v7h-7V72.6z M65.4,87.2h7v7h-7
	V87.2z M65.4,94.4h7v7h-7V94.4z M65.4,101.7h7v7h-7V101.7z M65.4,109h7v7h-7V109z M65.4,116.2h7v7h-7V116.2z M65.4,123.5h7v7h-7
	V123.5z M65.4,130.7h7v7h-7V130.7z M65.4,138h7v7h-7V138z M65.4,145.2h7v7h-7V145.2z M65.4,152.5h7v7h-7V152.5z M72.6,0h7v7h-7V0z
	 M72.6,7.3h7v7h-7V7.3z M72.6,14.6h7v7h-7V14.6z M72.6,21.8h7v7h-7V21.8z M72.6,29.1h7v7h-7V29.1z M72.6,36.4h7v7h-7V36.4z
	 M72.6,50.9h7v7h-7V50.9z M72.6,58.1h7v7h-7V58.1z M72.6,65.4h7v7h-7V65.4z M72.6,72.6h7v7h-7V72.6z M72.6,79.9h7v7h-7V79.9z
	 M72.6,87.2h7v7h-7V87.2z M72.6,94.4h7v7h-7V94.4z M72.6,101.7h7v7h-7V101.7z M72.6,116.2h7v7h-7V116.2z M72.6,123.5h7v7h-7V123.5z
	 M72.6,130.7h7v7h-7V130.7z M72.6,145.2h7v7h-7V145.2z M72.6,152.5h7v7h-7V152.5z M79.9,21.8h7v7h-7V21.8z M79.9,29.1h7v7h-7V29.1z
	 M79.9,36.4h7v7h-7V36.4z M79.9,43.6h7v7h-7V43.6z M79.9,50.9h7v7h-7V50.9z M79.9,58.1h7v7h-7V58.1z M79.9,65.4h7v7h-7V65.4z
	 M79.9,72.6h7v7h-7V72.6z M79.9,79.9h7v7h-7V79.9z M79.9,94.4h7v7h-7V94.4z M79.9,101.7h7v7h-7V101.7z M79.9,109h7v7h-7V109z
	 M79.9,116.2h7v7h-7V116.2z M79.9,123.5h7v7h-7V123.5z M79.9,130.7h7v7h-7V130.7z M79.9,138h7v7h-7V138z M79.9,145.2h7v7h-7V145.2z
	 M79.9,152.5h7v7h-7V152.5z M87.1,36.4h7v7h-7V36.4z M87.1,43.6h7v7h-7V43.6z M87.1,58.1h7v7h-7V58.1z M87.1,65.4h7v7h-7V65.4z
	 M87.1,79.9h7v7h-7V79.9z M87.1,87.2h7v7h-7V87.2z M87.1,101.7h7v7h-7V101.7z M87.1,109h7v7h-7V109z M87.1,116.2h7v7h-7V116.2z
	 M87.1,123.5h7v7h-7V123.5z M87.1,130.7h7v7h-7V130.7z M87.1,138h7v7h-7V138z M87.1,145.2h7v7h-7V145.2z M87.1,152.5h7v7h-7V152.5z
	 M94.4,43.6h7v7h-7V43.6z M94.4,58.1h7v7h-7V58.1z M94.4,65.4h7v7h-7V65.4z M94.4,79.9h7v7h-7V79.9z M94.4,87.2h7v7h-7V87.2z
	 M94.4,94.4h7v7h-7V94.4z M94.4,101.7h7v7h-7V101.7z M94.4,109h7v7h-7V109z M94.4,116.2h7v7h-7V116.2z M94.4,123.5h7v7h-7V123.5z
	 M94.4,130.7h7v7h-7V130.7z M94.4,138h7v7h-7V138z M94.4,145.2h7v7h-7V145.2z M101.7,58.1h7v7h-7V58.1z M101.7,87.2h7v7h-7V87.2z
	 M101.7,101.7h7v7h-7V101.7z M101.7,116.2h7v7h-7V116.2z M101.7,123.5h7v7h-7V123.5z M101.7,138h7v7h-7V138z M101.7,145.2h7v7h-7
	V145.2z M101.7,152.5h7v7h-7V152.5z M108.9,87.2h7v7h-7V87.2z M108.9,138h7v7h-7V138z M108.9,152.5h7v7h-7V152.5z M116.2,138h7v7h-7
	V138z M58.1,167h7v7h-7V167z M58.1,174.3h7v7h-7V174.3z M58.1,188.8h7v7h-7V188.8z M58.1,196.1h7v7h-7V196.1z M58.1,203.3h7v7h-7
	V203.3z M58.1,210.6h7v7h-7V210.6z M58.1,217.8h7v7h-7V217.8z M58.1,225.1h7v7h-7V225.1z M65.4,159.8h7v7h-7V159.8z M65.4,174.3h7v7
	h-7V174.3z M65.4,181.6h7v7h-7V181.6z M65.4,188.8h7v7h-7V188.8z M65.4,196.1h7v7h-7V196.1z M65.4,203.3h7v7h-7V203.3z M65.4,210.6
	h7v7h-7V210.6z M65.4,217.8h7v7h-7V217.8z M72.6,159.8h7v7h-7V159.8z M72.6,167h7v7h-7V167z M72.6,181.6h7v7h-7V181.6z M72.6,188.8
	h7v7h-7V188.8z M72.6,196.1h7v7h-7V196.1z M72.6,203.3h7v7h-7V203.3z M72.6,210.6h7v7h-7V210.6z M72.6,217.8h7v7h-7V217.8z
	 M72.6,225.1h7v7h-7V225.1z M79.9,159.8h7v7h-7V159.8z M79.9,167h7v7h-7V167z M79.9,174.3h7v7h-7V174.3z M79.9,181.6h7v7h-7V181.6z
	 M79.9,188.8h7v7h-7V188.8z M79.9,196.1h7v7h-7V196.1z M79.9,203.3h7v7h-7V203.3z M79.9,210.6h7v7h-7V210.6z M79.9,217.8h7v7h-7
	V217.8z M79.9,225.1h7v7h-7V225.1z M87.1,159.8h7v7h-7V159.8z M87.1,167h7v7h-7V167z M87.1,174.3h7v7h-7V174.3z M87.1,181.6h7v7h-7
	V181.6z M87.1,196.1h7v7h-7V196.1z M87.1,203.3h7v7h-7V203.3z M87.1,210.6h7v7h-7V210.6z M87.1,225.1h7v7h-7V225.1z M94.4,159.8h7v7
	h-7V159.8z M94.4,167h7v7h-7V167z M94.4,174.3h7v7h-7V174.3z M94.4,181.6h7v7h-7V181.6z M94.4,188.8h7v7h-7V188.8z M94.4,203.3h7v7
	h-7V203.3z M94.4,210.6h7v7h-7V210.6z M94.4,217.8h7v7h-7V217.8z M94.4,225.1h7v7h-7V225.1z M101.7,167h7v7h-7V167z M101.7,174.3h7
	v7h-7V174.3z M101.7,181.6h7v7h-7V181.6z M101.7,188.8h7v7h-7V188.8z M101.7,196.1h7v7h-7V196.1z M101.7,210.6h7v7h-7V210.6z
	 M101.7,217.8h7v7h-7V217.8z M101.7,225.1h7v7h-7V225.1z M108.9,159.8h7v7h-7V159.8z M108.9,167h7v7h-7V167z M108.9,181.6h7v7h-7
	V181.6z M108.9,188.8h7v7h-7V188.8z M108.9,196.1h7v7h-7V196.1z M108.9,203.3h7v7h-7V203.3z M108.9,217.8h7v7h-7V217.8z
	 M108.9,225.1h7v7h-7V225.1z M116.2,159.8h7v7h-7V159.8z M116.2,167h7v7h-7V167z M116.2,188.8h7v7h-7V188.8z M116.2,196.1h7v7h-7
	V196.1z M116.2,203.3h7v7h-7V203.3z M116.2,210.6h7v7h-7V210.6z M116.2,225.1h7v7h-7V225.1z M123.4,159.8h7v7h-7V159.8z M123.4,167
	h7v7h-7V167z M123.4,196.1h7v7h-7V196.1z M123.4,203.3h7v7h-7V203.3z M123.4,210.6h7v7h-7V210.6z M123.4,225.1h7v7h-7V225.1z
	 M58.1,239.6h7v7h-7V239.6z M58.1,246.9h7v7h-7V246.9z M58.1,254.2h7v7h-7V254.2z M65.4,232.4h7v7h-7V232.4z M65.4,239.6h7v7h-7
	V239.6z M65.4,246.9h7v7h-7V246.9z M65.4,254.2h7v7h-7V254.2z M65.4,261.4h7v7h-7V261.4z M65.4,268.7h7v7h-7V268.7z M65.4,275.9h7v7
	h-7V275.9z M65.4,283.2h7v7h-7V283.2z M65.4,290.4h7v7h-7V290.4z M65.4,297.7h7v7h-7V297.7z M72.6,232.4h7v7h-7V232.4z M72.6,239.6
	h7v7h-7V239.6z M72.6,246.9h7v7h-7V246.9z M72.6,254.2h7v7h-7V254.2z M72.6,261.4h7v7h-7V261.4z M72.6,268.7h7v7h-7V268.7z
	 M72.6,275.9h7v7h-7V275.9z M72.6,283.2h7v7h-7V283.2z M72.6,290.4h7v7h-7V290.4z M72.6,297.7h7v7h-7V297.7z M79.9,232.4h7v7h-7
	V232.4z M79.9,239.6h7v7h-7V239.6z M79.9,246.9h7v7h-7V246.9z M79.9,254.2h7v7h-7V254.2z M79.9,261.4h7v7h-7V261.4z M87.1,232.4h7v7
	h-7V232.4z M87.1,239.6h7v7h-7V239.6z M87.1,246.9h7v7h-7V246.9z M87.1,254.2h7v7h-7V254.2z M87.1,261.4h7v7h-7V261.4z M94.4,232.4
	h7v7h-7V232.4z M94.4,239.6h7v7h-7V239.6z M94.4,254.2h7v7h-7V254.2z M94.4,268.7h7v7h-7V268.7z M101.7,232.4h7v7h-7V232.4z
	 M101.7,246.9h7v7h-7V246.9z M101.7,254.2h7v7h-7V254.2z M101.7,261.4h7v7h-7V261.4z M108.9,232.4h7v7h-7V232.4z M108.9,239.6h7v7
	h-7V239.6z M108.9,254.2h7v7h-7V254.2z M108.9,261.4h7v7h-7V261.4z M116.2,232.4h7v7h-7V232.4z M116.2,239.6h7v7h-7V239.6z
	 M116.2,246.9h7v7h-7V246.9z M116.2,254.2h7v7h-7V254.2z M123.4,232.4h7v7h-7V232.4z M123.4,246.9h7v7h-7V246.9z M123.4,254.2h7v7
	h-7V254.2z M123.4,261.4h7v7h-7V261.4z M58.1,326.8h7v7h-7V326.8z M58.1,334h7v7h-7V334z M58.1,341.3h7v7h-7V341.3z M58.1,348.5h7v7
	h-7V348.5z M65.4,305h7v7h-7V305z M65.4,312.2h7v7h-7V312.2z M65.4,319.5h7v7h-7V319.5z M65.4,326.8h7v7h-7V326.8z M65.4,334h7v7h-7
	V334z M65.4,341.3h7v7h-7V341.3z M65.4,348.5h7v7h-7V348.5z M65.4,355.8h7v7h-7V355.8z M72.6,305h7v7h-7V305z M72.6,312.2h7v7h-7
	V312.2z M72.6,319.5h7v7h-7V319.5z M72.6,326.8h7v7h-7V326.8z M72.6,334h7v7h-7V334z M72.6,341.3h7v7h-7V341.3z M72.6,348.5h7v7h-7
	V348.5z M79.9,341.3h7v7h-7V341.3z M79.9,348.5h7v7h-7V348.5z M79.9,355.8h7v7h-7V355.8z M87.1,326.8h7v7h-7V326.8z M87.1,334h7v7
	h-7V334z M87.1,348.5h7v7h-7V348.5z M94.4,341.3h7v7h-7V341.3z M94.4,355.8h7v7h-7V355.8z M101.7,348.5h7v7h-7V348.5z M130.7,167h7
	v7h-7V167z M130.7,203.3h7v7h-7V203.3z M130.7,225.1h7v7h-7V225.1z M138,203.3h7v7h-7V203.3z M130.7,232.4h7v7h-7V232.4z
	 M130.7,254.2h7v7h-7V254.2z M130.7,261.4h7v7h-7V261.4z M138,232.4h7v7h-7V232.4z M138,261.4h7v7h-7V261.4z M58.1,363h7v7h-7V363z
	 M72.6,363h7v7h-7V363z M87.1,363h7v7h-7V363z"/>
</svg>
