<?xml version="1.0" encoding="utf-8"?>
<!-- Generator: Adobe Illustrator 27.3.1, SVG Export Plug-In . SVG Version: 6.00 Build 0)  -->
<svg version="1.1" xmlns="http://www.w3.org/2000/svg" xmlns:xlink="http://www.w3.org/1999/xlink" x="0px" y="0px"
	 viewBox="0 0 341 362.7" style="enable-background:new 0 0 341 362.7;" xml:space="preserve">
<style type="text/css">
	.st0{display:none;}
	.st1{fill:#1E0E01;}
</style>
<g id="Слой_2" class="st0">
	
		<image style="display:inline;overflow:visible;" width="758" height="753" xlink:href="EB793AA5.jpg"  transform="matrix(0.5594 0 0 0.5594 -66.25 -39.4875)">
	</image>
</g>
<g id="Слой_1">
	<g id="Слой_1_00000033329879911353820000000017918671004445868463_">
	</g>
	<path class="st1" d="M14.5,130.7h7v7h-7V130.7z M14.5,137.9h7v7h-7V137.9z M21.8,123.4h7v7h-7V123.4z M21.8,130.7h7v7h-7V130.7z
		 M21.8,137.9h7v7h-7V137.9z M29.1,108.9h7v7h-7V108.9z M29.1,116.2h7v7h-7V116.2z M29.1,123.4h7v7h-7V123.4z M29.1,137.9h7v7h-7
		V137.9z M29.1,145.2h7v7h-7V145.2z M36.3,79.9h7v7h-7V79.9z M36.3,87.1h7v7h-7V87.1z M36.3,101.7h7v7h-7V101.7z M36.3,108.9h7v7h-7
		V108.9z M36.3,116.2h7v7h-7V116.2z M36.3,130.7h7v7h-7V130.7z M36.3,137.9h7v7h-7V137.9z M36.3,145.2h7v7h-7V145.2z M43.6,79.9h7v7
		h-7V79.9z M43.6,87.1h7v7h-7V87.1z M43.6,94.4h7v7h-7V94.4z M43.6,108.9h7v7h-7V108.9z M43.6,123.4h7v7h-7V123.4z M43.6,137.9h7v7
		h-7V137.9z M43.6,145.2h7v7h-7V145.2z M50.8,65.3h7v7h-7V65.3z M50.8,72.6h7v7h-7V72.6z M50.8,79.9h7v7h-7V79.9z M50.8,87.1h7v7h-7
		V87.1z M50.8,94.4h7v7h-7V94.4z M50.8,101.7h7v7h-7V101.7z M50.8,116.2h7v7h-7V116.2z M50.8,130.7h7v7h-7V130.7z M50.8,137.9h7v7
		h-7V137.9z M50.8,145.2h7v7h-7V145.2z M0,167h7v7H0V167z M0,174.3h7v7H0V174.3z M0,181.5h7v7H0V181.5z M0,188.8h7v7H0V188.8z
		 M0,203.3h7v7H0V203.3z M7.3,159.7h7v7h-7V159.7z M7.3,167h7v7h-7V167z M7.3,174.3h7v7h-7V174.3z M7.3,181.5h7v7h-7V181.5z
		 M7.3,188.8h7v7h-7V188.8z M7.3,196h7v7h-7V196z M7.3,203.3h7v7h-7V203.3z M7.3,210.5h7v7h-7V210.5z M7.3,217.8h7v7h-7V217.8z
		 M14.5,152.5h7v7h-7V152.5z M14.5,159.7h7v7h-7V159.7z M14.5,174.3h7v7h-7V174.3z M14.5,181.5h7v7h-7V181.5z M14.5,188.8h7v7h-7
		V188.8z M14.5,196h7v7h-7V196z M14.5,203.3h7v7h-7V203.3z M14.5,210.5h7v7h-7V210.5z M21.8,152.5h7v7h-7V152.5z M21.8,167h7v7h-7
		V167z M21.8,174.3h7v7h-7V174.3z M21.8,181.5h7v7h-7V181.5z M21.8,196h7v7h-7V196z M21.8,210.5h7v7h-7V210.5z M21.8,217.8h7v7h-7
		V217.8z M29.1,159.7h7v7h-7V159.7z M29.1,174.3h7v7h-7V174.3z M29.1,188.8h7v7h-7V188.8z M29.1,203.3h7v7h-7V203.3z M29.1,217.8h7
		v7h-7V217.8z M36.3,152.5h7v7h-7V152.5z M36.3,167h7v7h-7V167z M36.3,174.3h7v7h-7V174.3z M36.3,181.5h7v7h-7V181.5z M36.3,196h7v7
		h-7V196z M36.3,210.5h7v7h-7V210.5z M36.3,217.8h7v7h-7V217.8z M43.6,159.7h7v7h-7V159.7z M43.6,174.3h7v7h-7V174.3z M43.6,181.5h7
		v7h-7V181.5z M43.6,188.8h7v7h-7V188.8z M43.6,203.3h7v7h-7V203.3z M43.6,217.8h7v7h-7V217.8z M50.8,152.5h7v7h-7V152.5z M50.8,167
		h7v7h-7V167z M50.8,174.3h7v7h-7V174.3z M50.8,181.5h7v7h-7V181.5z M50.8,188.8h7v7h-7V188.8z M50.8,196h7v7h-7V196z M50.8,203.3h7
		v7h-7V203.3z M50.8,210.5h7v7h-7V210.5z M50.8,217.8h7v7h-7V217.8z M21.8,225.1h7v7h-7V225.1z M36.3,225.1h7v7h-7V225.1z
		 M43.6,232.3h7v7h-7V232.3z M50.8,225.1h7v7h-7V225.1z M43.6,348.5h7v7h-7V348.5z M50.8,341.2h7v7h-7V341.2z M58.1,65.3h7v7h-7
		V65.3z M58.1,72.6h7v7h-7V72.6z M58.1,87.1h7v7h-7V87.1z M58.1,94.4h7v7h-7V94.4z M58.1,101.7h7v7h-7V101.7z M58.1,108.9h7v7h-7
		V108.9z M58.1,123.4h7v7h-7V123.4z M58.1,130.7h7v7h-7V130.7z M58.1,137.9h7v7h-7V137.9z M58.1,145.2h7v7h-7V145.2z M65.4,58.1h7v7
		h-7V58.1z M65.4,65.3h7v7h-7V65.3z M65.4,79.9h7v7h-7V79.9z M65.4,94.4h7v7h-7V94.4z M65.4,101.7h7v7h-7V101.7z M65.4,108.9h7v7h-7
		V108.9z M65.4,116.2h7v7h-7V116.2z M65.4,123.4h7v7h-7V123.4z M65.4,130.7h7v7h-7V130.7z M65.4,137.9h7v7h-7V137.9z M65.4,145.2h7
		v7h-7V145.2z M72.6,50.8h7v7h-7V50.8z M72.6,58.1h7v7h-7V58.1z M72.6,72.6h7v7h-7V72.6z M72.6,87.1h7v7h-7V87.1z M72.6,94.4h7v7h-7
		V94.4z M72.6,101.7h7v7h-7V101.7z M72.6,116.2h7v7h-7V116.2z M72.6,130.7h7v7h-7V130.7z M72.6,137.9h7v7h-7V137.9z M72.6,145.2h7v7
		h-7V145.2z M79.9,43.6h7v7h-7V43.6z M79.9,50.8h7v7h-7V50.8z M79.9,65.3h7v7h-7V65.3z M79.9,79.9h7v7h-7V79.9z M79.9,87.1h7v7h-7
		V87.1z M79.9,94.4h7v7h-7V94.4z M79.9,108.9h7v7h-7V108.9z M79.9,123.4h7v7h-7V123.4z M79.9,137.9h7v7h-7V137.9z M79.9,145.2h7v7
		h-7V145.2z M87.1,43.6h7v7h-7V43.6z M87.1,58.1h7v7h-7V58.1z M87.1,65.3h7v7h-7V65.3z M87.1,72.6h7v7h-7V72.6z M87.1,79.9h7v7h-7
		V79.9z M87.1,87.1h7v7h-7V87.1z M87.1,101.7h7v7h-7V101.7z M87.1,116.2h7v7h-7V116.2z M87.1,130.7h7v7h-7V130.7z M87.1,145.2h7v7
		h-7V145.2z M94.4,50.8h7v7h-7V50.8z M94.4,65.3h7v7h-7V65.3z M94.4,72.6h7v7h-7V72.6z M94.4,79.9h7v7h-7V79.9z M94.4,94.4h7v7h-7
		V94.4z M94.4,108.9h7v7h-7V108.9z M94.4,123.4h7v7h-7V123.4z M94.4,137.9h7v7h-7V137.9z M94.4,145.2h7v7h-7V145.2z M101.7,29.1h7v7
		h-7V29.1z M101.7,43.6h7v7h-7V43.6z M101.7,65.3h7v7h-7V65.3z M101.7,72.6h7v7h-7V72.6z M101.7,87.1h7v7h-7V87.1z M101.7,101.7h7v7
		h-7V101.7z M101.7,116.2h7v7h-7V116.2z M101.7,130.7h7v7h-7V130.7z M101.7,137.9h7v7h-7V137.9z M101.7,145.2h7v7h-7V145.2z
		 M108.9,29.1h7v7h-7V29.1z M108.9,36.3h7v7h-7V36.3z M108.9,43.6h7v7h-7V43.6z M108.9,58.1h7v7h-7V58.1z M108.9,72.6h7v7h-7V72.6z
		 M108.9,79.9h7v7h-7V79.9z M108.9,94.4h7v7h-7V94.4z M108.9,108.9h7v7h-7V108.9z M108.9,123.4h7v7h-7V123.4z M108.9,130.7h7v7h-7
		V130.7z M108.9,137.9h7v7h-7V137.9z M108.9,145.2h7v7h-7V145.2z M116.2,21.8h7v7h-7V21.8z M116.2,36.3h7v7h-7V36.3z M116.2,50.8h7
		v7h-7V50.8z M116.2,65.3h7v7h-7V65.3z M116.2,72.6h7v7h-7V72.6z M116.2,87.1h7v7h-7V87.1z M116.2,101.7h7v7h-7V101.7z M116.2,116.2
		h7v7h-7V116.2z M116.2,123.4h7v7h-7V123.4z M116.2,130.7h7v7h-7V130.7z M116.2,137.9h7v7h-7V137.9z M116.2,145.2h7v7h-7V145.2z
		 M123.4,14.5h7v7h-7V14.5z M123.4,29.1h7v7h-7V29.1z M123.4,43.6h7v7h-7V43.6z M123.4,58.1h7v7h-7V58.1z M123.4,65.3h7v7h-7V65.3z
		 M123.4,72.6h7v7h-7V72.6z M123.4,79.9h7v7h-7V79.9z M123.4,94.4h7v7h-7V94.4z M123.4,108.9h7v7h-7V108.9z M123.4,116.2h7v7h-7
		V116.2z M123.4,123.4h7v7h-7V123.4z M123.4,130.7h7v7h-7V130.7z M123.4,137.9h7v7h-7V137.9z M123.4,145.2h7v7h-7V145.2z
		 M58.1,159.7h7v7h-7V159.7z M58.1,181.5h7v7h-7V181.5z M58.1,188.8h7v7h-7V188.8z M58.1,196h7v7h-7V196z M58.1,203.3h7v7h-7V203.3z
		 M58.1,210.5h7v7h-7V210.5z M58.1,217.8h7v7h-7V217.8z M65.4,152.5h7v7h-7V152.5z M65.4,167h7v7h-7V167z M65.4,174.3h7v7h-7V174.3z
		 M65.4,181.5h7v7h-7V181.5z M65.4,188.8h7v7h-7V188.8z M65.4,196h7v7h-7V196z M65.4,203.3h7v7h-7V203.3z M65.4,210.5h7v7h-7V210.5z
		 M65.4,217.8h7v7h-7V217.8z M72.6,152.5h7v7h-7V152.5z M72.6,159.7h7v7h-7V159.7z M72.6,174.3h7v7h-7V174.3z M72.6,181.5h7v7h-7
		V181.5z M72.6,188.8h7v7h-7V188.8z M72.6,196h7v7h-7V196z M72.6,203.3h7v7h-7V203.3z M72.6,210.5h7v7h-7V210.5z M72.6,217.8h7v7h-7
		V217.8z M79.9,152.5h7v7h-7V152.5z M79.9,167h7v7h-7V167z M79.9,181.5h7v7h-7V181.5z M79.9,196h7v7h-7V196z M79.9,203.3h7v7h-7
		V203.3z M79.9,210.5h7v7h-7V210.5z M79.9,217.8h7v7h-7V217.8z M87.1,152.5h7v7h-7V152.5z M87.1,159.7h7v7h-7V159.7z M87.1,167h7v7
		h-7V167z M87.1,174.3h7v7h-7V174.3z M87.1,181.5h7v7h-7V181.5z M87.1,188.8h7v7h-7V188.8z M87.1,203.3h7v7h-7V203.3z M87.1,210.5h7
		v7h-7V210.5z M87.1,217.8h7v7h-7V217.8z M94.4,152.5h7v7h-7V152.5z M94.4,159.7h7v7h-7V159.7z M94.4,167h7v7h-7V167z M94.4,174.3h7
		v7h-7V174.3z M94.4,181.5h7v7h-7V181.5z M94.4,188.8h7v7h-7V188.8z M94.4,196h7v7h-7V196z M94.4,210.5h7v7h-7V210.5z M94.4,217.8h7
		v7h-7V217.8z M101.7,152.5h7v7h-7V152.5z M101.7,159.7h7v7h-7V159.7z M101.7,167h7v7h-7V167z M101.7,174.3h7v7h-7V174.3z
		 M101.7,181.5h7v7h-7V181.5z M101.7,188.8h7v7h-7V188.8z M101.7,196h7v7h-7V196z M101.7,203.3h7v7h-7V203.3z M101.7,210.5h7v7h-7
		V210.5z M101.7,217.8h7v7h-7V217.8z M108.9,152.5h7v7h-7V152.5z M108.9,159.7h7v7h-7V159.7z M108.9,167h7v7h-7V167z M108.9,174.3h7
		v7h-7V174.3z M108.9,181.5h7v7h-7V181.5z M108.9,188.8h7v7h-7V188.8z M108.9,196h7v7h-7V196z M108.9,210.5h7v7h-7V210.5z
		 M108.9,217.8h7v7h-7V217.8z M116.2,152.5h7v7h-7V152.5z M116.2,159.7h7v7h-7V159.7z M116.2,167h7v7h-7V167z M116.2,174.3h7v7h-7
		V174.3z M116.2,181.5h7v7h-7V181.5z M116.2,188.8h7v7h-7V188.8z M116.2,203.3h7v7h-7V203.3z M116.2,217.8h7v7h-7V217.8z
		 M123.4,152.5h7v7h-7V152.5z M123.4,159.7h7v7h-7V159.7z M123.4,167h7v7h-7V167z M123.4,174.3h7v7h-7V174.3z M123.4,181.5h7v7h-7
		V181.5z M123.4,188.8h7v7h-7V188.8z M123.4,196h7v7h-7V196z M123.4,210.5h7v7h-7V210.5z M58.1,225.1h7v7h-7V225.1z M65.4,225.1h7v7
		h-7V225.1z M72.6,225.1h7v7h-7V225.1z M72.6,232.3h7v7h-7V232.3z M79.9,225.1h7v7h-7V225.1z M79.9,232.3h7v7h-7V232.3z M79.9,239.6
		h7v7h-7V239.6z M87.1,225.1h7v7h-7V225.1z M87.1,232.3h7v7h-7V232.3z M87.1,239.6h7v7h-7V239.6z M87.1,246.9h7v7h-7V246.9z
		 M94.4,225.1h7v7h-7V225.1z M94.4,232.3h7v7h-7V232.3z M94.4,239.6h7v7h-7V239.6z M101.7,225.1h7v7h-7V225.1z M101.7,232.3h7v7h-7
		V232.3z M101.7,239.6h7v7h-7V239.6z M108.9,225.1h7v7h-7V225.1z M108.9,232.3h7v7h-7V232.3z M108.9,239.6h7v7h-7V239.6z
		 M116.2,225.1h7v7h-7V225.1z M116.2,239.6h7v7h-7V239.6z M123.4,225.1h7v7h-7V225.1z M58.1,334h7v7h-7V334z M58.1,348.5h7v7h-7
		V348.5z M65.4,341.2h7v7h-7V341.2z M72.6,334h7v7h-7V334z M72.6,348.5h7v7h-7V348.5z M79.9,341.2h7v7h-7V341.2z M87.1,326.7h7v7h-7
		V326.7z M87.1,341.2h7v7h-7V341.2z M87.1,348.5h7v7h-7V348.5z M94.4,334h7v7h-7V334z M94.4,341.2h7v7h-7V341.2z M101.7,326.7h7v7
		h-7V326.7z M101.7,334h7v7h-7V334z M101.7,348.5h7v7h-7V348.5z M108.9,319.5h7v7h-7V319.5z M108.9,326.7h7v7h-7V326.7z
		 M108.9,341.2h7v7h-7V341.2z M116.2,312.2h7v7h-7V312.2z M116.2,334h7v7h-7V334z M116.2,341.2h7v7h-7V341.2z M116.2,348.5h7v7h-7
		V348.5z M123.4,304.9h7v7h-7V304.9z M123.4,319.5h7v7h-7V319.5z M123.4,326.7h7v7h-7V326.7z M123.4,334h7v7h-7V334z M123.4,341.2h7
		v7h-7V341.2z M130.7,14.5h7v7h-7V14.5z M130.7,21.8h7v7h-7V21.8z M130.7,36.3h7v7h-7V36.3z M130.7,50.8h7v7h-7V50.8z M130.7,58.1h7
		v7h-7V58.1z M130.7,65.3h7v7h-7V65.3z M130.7,72.6h7v7h-7V72.6z M130.7,87.1h7v7h-7V87.1z M130.7,101.7h7v7h-7V101.7z M130.7,108.9
		h7v7h-7V108.9z M130.7,116.2h7v7h-7V116.2z M130.7,123.4h7v7h-7V123.4z M130.7,130.7h7v7h-7V130.7z M130.7,137.9h7v7h-7V137.9z
		 M130.7,145.2h7v7h-7V145.2z M138,7.3h7v7h-7V7.3z M138,14.5h7v7h-7V14.5z M138,29.1h7v7h-7V29.1z M138,43.6h7v7h-7V43.6z
		 M138,58.1h7v7h-7V58.1z M138,65.3h7v7h-7V65.3z M138,79.9h7v7h-7V79.9z M138,94.4h7v7h-7V94.4z M138,101.7h7v7h-7V101.7z
		 M138,108.9h7v7h-7V108.9z M138,116.2h7v7h-7V116.2z M138,123.4h7v7h-7V123.4z M138,130.7h7v7h-7V130.7z M138,137.9h7v7h-7V137.9z
		 M138,145.2h7v7h-7V145.2z M145.2,21.8h7v7h-7V21.8z M145.2,36.3h7v7h-7V36.3z M145.2,50.8h7v7h-7V50.8z M145.2,58.1h7v7h-7V58.1z
		 M145.2,65.3h7v7h-7V65.3z M145.2,72.6h7v7h-7V72.6z M145.2,79.9h7v7h-7V79.9z M145.2,87.1h7v7h-7V87.1z M145.2,94.4h7v7h-7V94.4z
		 M145.2,101.7h7v7h-7V101.7z M145.2,108.9h7v7h-7V108.9z M145.2,116.2h7v7h-7V116.2z M145.2,123.4h7v7h-7V123.4z M145.2,130.7h7v7
		h-7V130.7z M145.2,145.2h7v7h-7V145.2z M152.5,0h7v7h-7V0z M152.5,14.5h7v7h-7V14.5z M152.5,29.1h7v7h-7V29.1z M152.5,43.6h7v7h-7
		V43.6z M152.5,58.1h7v7h-7V58.1z M152.5,65.3h7v7h-7V65.3z M152.5,72.6h7v7h-7V72.6z M152.5,79.9h7v7h-7V79.9z M152.5,87.1h7v7h-7
		V87.1z M152.5,94.4h7v7h-7V94.4z M152.5,101.7h7v7h-7V101.7z M152.5,116.2h7v7h-7V116.2z M152.5,123.4h7v7h-7V123.4z M152.5,137.9
		h7v7h-7V137.9z M159.7,7.3h7v7h-7V7.3z M159.7,21.8h7v7h-7V21.8z M159.7,36.3h7v7h-7V36.3z M159.7,50.8h7v7h-7V50.8z M159.7,65.3h7
		v7h-7V65.3z M159.7,72.6h7v7h-7V72.6z M159.7,79.9h7v7h-7V79.9z M159.7,87.1h7v7h-7V87.1z M159.7,94.4h7v7h-7V94.4z M159.7,108.9h7
		v7h-7V108.9z M159.7,116.2h7v7h-7V116.2z M159.7,130.7h7v7h-7V130.7z M159.7,145.2h7v7h-7V145.2z M167,14.5h7v7h-7V14.5z M167,29.1
		h7v7h-7V29.1z M167,43.6h7v7h-7V43.6z M167,58.1h7v7h-7V58.1z M167,72.6h7v7h-7V72.6z M167,79.9h7v7h-7V79.9z M167,87.1h7v7h-7
		V87.1z M167,101.7h7v7h-7V101.7z M167,108.9h7v7h-7V108.9z M167,116.2h7v7h-7V116.2z M167,123.4h7v7h-7V123.4z M167,137.9h7v7h-7
		V137.9z M174.3,14.5h7v7h-7V14.5z M174.3,21.8h7v7h-7V21.8z M174.3,36.3h7v7h-7V36.3z M174.3,50.8h7v7h-7V50.8z M174.3,65.3h7v7h-7
		V65.3z M174.3,72.6h7v7h-7V72.6z M174.3,79.9h7v7h-7V79.9z M174.3,94.4h7v7h-7V94.4z M174.3,108.9h7v7h-7V108.9z M174.3,116.2h7v7
		h-7V116.2z M174.3,123.4h7v7h-7V123.4z M174.3,130.7h7v7h-7V130.7z M174.3,145.2h7v7h-7V145.2z M181.5,14.5h7v7h-7V14.5z
		 M181.5,21.8h7v7h-7V21.8z M181.5,29.1h7v7h-7V29.1z M181.5,36.3h7v7h-7V36.3z M181.5,43.6h7v7h-7V43.6z M181.5,58.1h7v7h-7V58.1z
		 M181.5,65.3h7v7h-7V65.3z M181.5,72.6h7v7h-7V72.6z M181.5,79.9h7v7h-7V79.9z M181.5,87.1h7v7h-7V87.1z M181.5,101.7h7v7h-7V101.7
		z M181.5,108.9h7v7h-7V108.9z M181.5,116.2h7v7h-7V116.2z M181.5,123.4h7v7h-7V123.4z M181.5,130.7h7v7h-7V130.7z M181.5,137.9h7v7
		h-7V137.9z M188.8,14.5h7v7h-7V14.5z M188.8,21.8h7v7h-7V21.8z M188.8,29.1h7v7h-7V29.1z M188.8,36.3h7v7h-7V36.3z M188.8,43.6h7v7
		h-7V43.6z M188.8,50.8h7v7h-7V50.8z M188.8,58.1h7v7h-7V58.1z M188.8,65.3h7v7h-7V65.3z M188.8,72.6h7v7h-7V72.6z M188.8,79.9h7v7
		h-7V79.9z M188.8,94.4h7v7h-7V94.4z M188.8,101.7h7v7h-7V101.7z M188.8,108.9h7v7h-7V108.9z M188.8,116.2h7v7h-7V116.2z
		 M188.8,123.4h7v7h-7V123.4z M188.8,130.7h7v7h-7V130.7z M188.8,145.2h7v7h-7V145.2z M196,21.8h7v7h-7V21.8z M196,29.1h7v7h-7V29.1
		z M196,36.3h7v7h-7V36.3z M196,43.6h7v7h-7V43.6z M196,50.8h7v7h-7V50.8z M196,58.1h7v7h-7V58.1z M196,65.3h7v7h-7V65.3z M196,72.6
		h7v7h-7V72.6z M196,87.1h7v7h-7V87.1z M196,101.7h7v7h-7V101.7z M196,108.9h7v7h-7V108.9z M196,116.2h7v7h-7V116.2z M196,123.4h7v7
		h-7V123.4z M196,130.7h7v7h-7V130.7z M196,137.9h7v7h-7V137.9z M130.7,152.5h7v7h-7V152.5z M130.7,159.7h7v7h-7V159.7z M130.7,167
		h7v7h-7V167z M130.7,174.3h7v7h-7V174.3z M130.7,181.5h7v7h-7V181.5z M130.7,188.8h7v7h-7V188.8z M130.7,196h7v7h-7V196z
		 M130.7,203.3h7v7h-7V203.3z M130.7,210.5h7v7h-7V210.5z M130.7,217.8h7v7h-7V217.8z M138,152.5h7v7h-7V152.5z M138,159.7h7v7h-7
		V159.7z M138,167h7v7h-7V167z M138,174.3h7v7h-7V174.3z M138,181.5h7v7h-7V181.5z M138,188.8h7v7h-7V188.8z M138,196h7v7h-7V196z
		 M138,203.3h7v7h-7V203.3z M138,210.5h7v7h-7V210.5z M145.2,159.7h7v7h-7V159.7z M145.2,167h7v7h-7V167z M145.2,174.3h7v7h-7V174.3
		z M145.2,181.5h7v7h-7V181.5z M145.2,188.8h7v7h-7V188.8z M145.2,196h7v7h-7V196z M145.2,203.3h7v7h-7V203.3z M145.2,210.5h7v7h-7
		V210.5z M145.2,217.8h7v7h-7V217.8z M152.5,152.5h7v7h-7V152.5z M152.5,159.7h7v7h-7V159.7z M152.5,167h7v7h-7V167z M152.5,174.3h7
		v7h-7V174.3z M152.5,181.5h7v7h-7V181.5z M152.5,188.8h7v7h-7V188.8z M152.5,196h7v7h-7V196z M152.5,203.3h7v7h-7V203.3z
		 M152.5,210.5h7v7h-7V210.5z M152.5,217.8h7v7h-7V217.8z M159.7,159.7h7v7h-7V159.7z M159.7,167h7v7h-7V167z M159.7,174.3h7v7h-7
		V174.3z M159.7,181.5h7v7h-7V181.5z M159.7,188.8h7v7h-7V188.8z M159.7,196h7v7h-7V196z M159.7,203.3h7v7h-7V203.3z M159.7,210.5h7
		v7h-7V210.5z M159.7,217.8h7v7h-7V217.8z M167,152.5h7v7h-7V152.5z M167,167h7v7h-7V167z M167,174.3h7v7h-7V174.3z M167,181.5h7v7
		h-7V181.5z M167,188.8h7v7h-7V188.8z M167,196h7v7h-7V196z M167,210.5h7v7h-7V210.5z M167,217.8h7v7h-7V217.8z M174.3,159.7h7v7h-7
		V159.7z M174.3,167h7v7h-7V167z M174.3,174.3h7v7h-7V174.3z M174.3,181.5h7v7h-7V181.5z M174.3,188.8h7v7h-7V188.8z M174.3,203.3h7
		v7h-7V203.3z M174.3,210.5h7v7h-7V210.5z M174.3,217.8h7v7h-7V217.8z M181.5,152.5h7v7h-7V152.5z M181.5,167h7v7h-7V167z
		 M181.5,174.3h7v7h-7V174.3z M181.5,181.5h7v7h-7V181.5z M181.5,188.8h7v7h-7V188.8z M181.5,196h7v7h-7V196z M181.5,203.3h7v7h-7
		V203.3z M181.5,210.5h7v7h-7V210.5z M181.5,217.8h7v7h-7V217.8z M188.8,159.7h7v7h-7V159.7z M188.8,167h7v7h-7V167z M188.8,174.3h7
		v7h-7V174.3z M188.8,181.5h7v7h-7V181.5z M188.8,188.8h7v7h-7V188.8z M188.8,196h7v7h-7V196z M188.8,203.3h7v7h-7V203.3z
		 M188.8,210.5h7v7h-7V210.5z M196,152.5h7v7h-7V152.5z M196,159.7h7v7h-7V159.7z M196,167h7v7h-7V167z M196,174.3h7v7h-7V174.3z
		 M196,181.5h7v7h-7V181.5z M196,188.8h7v7h-7V188.8z M196,196h7v7h-7V196z M196,203.3h7v7h-7V203.3z M196,210.5h7v7h-7V210.5z
		 M130.7,225.1h7v7h-7V225.1z M130.7,232.3h7v7h-7V232.3z M130.7,283.1h7v7h-7V283.1z M130.7,290.4h7v7h-7V290.4z M138,225.1h7v7h-7
		V225.1z M138,232.3h7v7h-7V232.3z M138,239.6h7v7h-7V239.6z M138,246.9h7v7h-7V246.9z M138,254.1h7v7h-7V254.1z M138,261.4h7v7h-7
		V261.4z M138,268.6h7v7h-7V268.6z M138,275.9h7v7h-7V275.9z M138,283.1h7v7h-7V283.1z M145.2,232.3h7v7h-7V232.3z M145.2,239.6h7v7
		h-7V239.6z M145.2,246.9h7v7h-7V246.9z M145.2,261.4h7v7h-7V261.4z M145.2,275.9h7v7h-7V275.9z M145.2,290.4h7v7h-7V290.4z
		 M152.5,225.1h7v7h-7V225.1z M152.5,239.6h7v7h-7V239.6z M152.5,254.1h7v7h-7V254.1z M152.5,268.6h7v7h-7V268.6z M152.5,283.1h7v7
		h-7V283.1z M159.7,225.1h7v7h-7V225.1z M159.7,232.3h7v7h-7V232.3z M159.7,246.9h7v7h-7V246.9z M159.7,254.1h7v7h-7V254.1z
		 M159.7,261.4h7v7h-7V261.4z M159.7,275.9h7v7h-7V275.9z M159.7,290.4h7v7h-7V290.4z M167,225.1h7v7h-7V225.1z M167,232.3h7v7h-7
		V232.3z M167,239.6h7v7h-7V239.6z M167,246.9h7v7h-7V246.9z M167,254.1h7v7h-7V254.1z M167,261.4h7v7h-7V261.4z M167,268.6h7v7h-7
		V268.6z M167,283.1h7v7h-7V283.1z M174.3,225.1h7v7h-7V225.1z M174.3,239.6h7v7h-7V239.6z M174.3,246.9h7v7h-7V246.9z M174.3,254.1
		h7v7h-7V254.1z M174.3,261.4h7v7h-7V261.4z M174.3,268.6h7v7h-7V268.6z M174.3,275.9h7v7h-7V275.9z M174.3,283.1h7v7h-7V283.1z
		 M174.3,290.4h7v7h-7V290.4z M181.5,232.3h7v7h-7V232.3z M181.5,239.6h7v7h-7V239.6z M181.5,246.9h7v7h-7V246.9z M181.5,254.1h7v7
		h-7V254.1z M181.5,261.4h7v7h-7V261.4z M181.5,268.6h7v7h-7V268.6z M181.5,275.9h7v7h-7V275.9z M181.5,283.1h7v7h-7V283.1z
		 M181.5,290.4h7v7h-7V290.4z M188.8,225.1h7v7h-7V225.1z M188.8,232.3h7v7h-7V232.3z M188.8,239.6h7v7h-7V239.6z M188.8,246.9h7v7
		h-7V246.9z M188.8,254.1h7v7h-7V254.1z M188.8,283.1h7v7h-7V283.1z M188.8,290.4h7v7h-7V290.4z M196,225.1h7v7h-7V225.1z
		 M130.7,297.7h7v7h-7V297.7z M130.7,304.9h7v7h-7V304.9z M130.7,312.2h7v7h-7V312.2z M130.7,326.7h7v7h-7V326.7z M130.7,334h7v7h-7
		V334z M130.7,341.2h7v7h-7V341.2z M130.7,348.5h7v7h-7V348.5z M138,297.7h7v7h-7V297.7z M138,319.5h7v7h-7V319.5z M138,334h7v7h-7
		V334z M138,341.2h7v7h-7V341.2z M145.2,304.9h7v7h-7V304.9z M145.2,312.2h7v7h-7V312.2z M145.2,326.7h7v7h-7V326.7z M145.2,341.2h7
		v7h-7V341.2z M145.2,348.5h7v7h-7V348.5z M152.5,297.7h7v7h-7V297.7z M152.5,304.9h7v7h-7V304.9z M152.5,319.5h7v7h-7V319.5z
		 M152.5,326.7h7v7h-7V326.7z M152.5,334h7v7h-7V334z M152.5,341.2h7v7h-7V341.2z M159.7,304.9h7v7h-7V304.9z M159.7,312.2h7v7h-7
		V312.2z M159.7,319.5h7v7h-7V319.5z M159.7,326.7h7v7h-7V326.7z M159.7,334h7v7h-7V334z M159.7,341.2h7v7h-7V341.2z M159.7,348.5h7
		v7h-7V348.5z M167,297.7h7v7h-7V297.7z M167,312.2h7v7h-7V312.2z M167,319.5h7v7h-7V319.5z M167,326.7h7v7h-7V326.7z M167,341.2h7
		v7h-7V341.2z M174.3,297.7h7v7h-7V297.7z M174.3,304.9h7v7h-7V304.9z M174.3,319.5h7v7h-7V319.5z M174.3,334h7v7h-7V334z
		 M174.3,341.2h7v7h-7V341.2z M174.3,348.5h7v7h-7V348.5z M181.5,297.7h7v7h-7V297.7z M181.5,304.9h7v7h-7V304.9z M181.5,312.2h7v7
		h-7V312.2z M181.5,326.7h7v7h-7V326.7z M181.5,334h7v7h-7V334z M181.5,341.2h7v7h-7V341.2z M188.8,297.7h7v7h-7V297.7z
		 M188.8,304.9h7v7h-7V304.9z M188.8,312.2h7v7h-7V312.2z M188.8,319.5h7v7h-7V319.5z M188.8,334h7v7h-7V334z M188.8,341.2h7v7h-7
		V341.2z M188.8,348.5h7v7h-7V348.5z M196,304.9h7v7h-7V304.9z M196,312.2h7v7h-7V312.2z M196,319.5h7v7h-7V319.5z M196,326.7h7v7
		h-7V326.7z M196,341.2h7v7h-7V341.2z M203.3,29.1h7v7h-7V29.1z M203.3,36.3h7v7h-7V36.3z M203.3,43.6h7v7h-7V43.6z M203.3,50.8h7v7
		h-7V50.8z M203.3,58.1h7v7h-7V58.1z M203.3,65.3h7v7h-7V65.3z M203.3,72.6h7v7h-7V72.6z M203.3,79.9h7v7h-7V79.9z M203.3,94.4h7v7
		h-7V94.4z M203.3,108.9h7v7h-7V108.9z M203.3,116.2h7v7h-7V116.2z M203.3,123.4h7v7h-7V123.4z M203.3,130.7h7v7h-7V130.7z
		 M203.3,145.2h7v7h-7V145.2z M210.6,29.1h7v7h-7V29.1z M210.6,36.3h7v7h-7V36.3z M210.6,43.6h7v7h-7V43.6z M210.6,50.8h7v7h-7V50.8
		z M210.6,58.1h7v7h-7V58.1z M210.6,65.3h7v7h-7V65.3z M210.6,72.6h7v7h-7V72.6z M210.6,79.9h7v7h-7V79.9z M210.6,87.1h7v7h-7V87.1z
		 M210.6,101.7h7v7h-7V101.7z M210.6,116.2h7v7h-7V116.2z M210.6,123.4h7v7h-7V123.4z M210.6,130.7h7v7h-7V130.7z M210.6,137.9h7v7
		h-7V137.9z M210.6,145.2h7v7h-7V145.2z M217.8,36.3h7v7h-7V36.3z M217.8,43.6h7v7h-7V43.6z M217.8,50.8h7v7h-7V50.8z M217.8,58.1h7
		v7h-7V58.1z M217.8,65.3h7v7h-7V65.3z M217.8,72.6h7v7h-7V72.6z M217.8,87.1h7v7h-7V87.1z M217.8,94.4h7v7h-7V94.4z M217.8,101.7h7
		v7h-7V101.7z M217.8,108.9h7v7h-7V108.9z M217.8,116.2h7v7h-7V116.2z M217.8,123.4h7v7h-7V123.4z M217.8,130.7h7v7h-7V130.7z
		 M217.8,137.9h7v7h-7V137.9z M217.8,145.2h7v7h-7V145.2z M225.1,29.1h7v7h-7V29.1z M225.1,36.3h7v7h-7V36.3z M225.1,43.6h7v7h-7
		V43.6z M225.1,50.8h7v7h-7V50.8z M225.1,58.1h7v7h-7V58.1z M225.1,65.3h7v7h-7V65.3z M225.1,72.6h7v7h-7V72.6z M225.1,79.9h7v7h-7
		V79.9z M225.1,94.4h7v7h-7V94.4z M225.1,108.9h7v7h-7V108.9z M225.1,116.2h7v7h-7V116.2z M225.1,123.4h7v7h-7V123.4z M225.1,130.7
		h7v7h-7V130.7z M225.1,137.9h7v7h-7V137.9z M232.3,36.3h7v7h-7V36.3z M232.3,43.6h7v7h-7V43.6z M232.3,50.8h7v7h-7V50.8z
		 M232.3,58.1h7v7h-7V58.1z M232.3,65.3h7v7h-7V65.3z M232.3,72.6h7v7h-7V72.6z M232.3,79.9h7v7h-7V79.9z M232.3,87.1h7v7h-7V87.1z
		 M232.3,94.4h7v7h-7V94.4z M232.3,101.7h7v7h-7V101.7z M232.3,108.9h7v7h-7V108.9z M232.3,116.2h7v7h-7V116.2z M232.3,123.4h7v7h-7
		V123.4z M232.3,130.7h7v7h-7V130.7z M232.3,137.9h7v7h-7V137.9z M232.3,145.2h7v7h-7V145.2z M239.6,43.6h7v7h-7V43.6z M239.6,50.8
		h7v7h-7V50.8z M239.6,58.1h7v7h-7V58.1z M239.6,65.3h7v7h-7V65.3z M239.6,72.6h7v7h-7V72.6z M239.6,79.9h7v7h-7V79.9z M239.6,87.1
		h7v7h-7V87.1z M239.6,94.4h7v7h-7V94.4z M239.6,101.7h7v7h-7V101.7z M239.6,108.9h7v7h-7V108.9z M239.6,116.2h7v7h-7V116.2z
		 M239.6,123.4h7v7h-7V123.4z M239.6,137.9h7v7h-7V137.9z M246.9,58.1h7v7h-7V58.1z M246.9,65.3h7v7h-7V65.3z M246.9,72.6h7v7h-7
		V72.6z M246.9,79.9h7v7h-7V79.9z M246.9,87.1h7v7h-7V87.1z M246.9,94.4h7v7h-7V94.4z M246.9,101.7h7v7h-7V101.7z M246.9,108.9h7v7
		h-7V108.9z M246.9,116.2h7v7h-7V116.2z M246.9,123.4h7v7h-7V123.4z M246.9,130.7h7v7h-7V130.7z M246.9,145.2h7v7h-7V145.2z
		 M254.1,58.1h7v7h-7V58.1z M254.1,65.3h7v7h-7V65.3z M254.1,72.6h7v7h-7V72.6z M254.1,87.1h7v7h-7V87.1z M254.1,94.4h7v7h-7V94.4z
		 M254.1,101.7h7v7h-7V101.7z M254.1,108.9h7v7h-7V108.9z M254.1,116.2h7v7h-7V116.2z M254.1,123.4h7v7h-7V123.4z M254.1,130.7h7v7
		h-7V130.7z M254.1,137.9h7v7h-7V137.9z M261.4,65.3h7v7h-7V65.3z M261.4,79.9h7v7h-7V79.9z M261.4,87.1h7v7h-7V87.1z M261.4,94.4h7
		v7h-7V94.4z M261.4,101.7h7v7h-7V101.7z M261.4,108.9h7v7h-7V108.9z M261.4,116.2h7v7h-7V116.2z M261.4,123.4h7v7h-7V123.4z
		 M261.4,130.7h7v7h-7V130.7z M261.4,145.2h7v7h-7V145.2z M268.6,79.9h7v7h-7V79.9z M268.6,94.4h7v7h-7V94.4z M268.6,101.7h7v7h-7
		V101.7z M268.6,108.9h7v7h-7V108.9z M268.6,116.2h7v7h-7V116.2z M268.6,123.4h7v7h-7V123.4z M268.6,130.7h7v7h-7V130.7z
		 M268.6,137.9h7v7h-7V137.9z M203.3,152.5h7v7h-7V152.5z M203.3,159.7h7v7h-7V159.7z M203.3,167h7v7h-7V167z M203.3,174.3h7v7h-7
		V174.3z M203.3,181.5h7v7h-7V181.5z M203.3,188.8h7v7h-7V188.8z M203.3,196h7v7h-7V196z M203.3,203.3h7v7h-7V203.3z M203.3,210.5h7
		v7h-7V210.5z M203.3,217.8h7v7h-7V217.8z M210.6,152.5h7v7h-7V152.5z M210.6,159.7h7v7h-7V159.7z M210.6,167h7v7h-7V167z
		 M210.6,174.3h7v7h-7V174.3z M210.6,181.5h7v7h-7V181.5z M210.6,188.8h7v7h-7V188.8z M210.6,196h7v7h-7V196z M210.6,203.3h7v7h-7
		V203.3z M210.6,217.8h7v7h-7V217.8z M217.8,152.5h7v7h-7V152.5z M217.8,159.7h7v7h-7V159.7z M217.8,174.3h7v7h-7V174.3z
		 M217.8,181.5h7v7h-7V181.5z M217.8,188.8h7v7h-7V188.8z M217.8,196h7v7h-7V196z M217.8,210.5h7v7h-7V210.5z M217.8,217.8h7v7h-7
		V217.8z M225.1,152.5h7v7h-7V152.5z M225.1,167h7v7h-7V167z M225.1,174.3h7v7h-7V174.3z M225.1,181.5h7v7h-7V181.5z M225.1,188.8h7
		v7h-7V188.8z M225.1,196h7v7h-7V196z M225.1,203.3h7v7h-7V203.3z M225.1,210.5h7v7h-7V210.5z M225.1,217.8h7v7h-7V217.8z
		 M232.3,159.7h7v7h-7V159.7z M232.3,174.3h7v7h-7V174.3z M232.3,181.5h7v7h-7V181.5z M232.3,188.8h7v7h-7V188.8z M232.3,196h7v7h-7
		V196z M232.3,203.3h7v7h-7V203.3z M232.3,210.5h7v7h-7V210.5z M232.3,217.8h7v7h-7V217.8z M239.6,152.5h7v7h-7V152.5z M239.6,167h7
		v7h-7V167z M239.6,174.3h7v7h-7V174.3z M239.6,181.5h7v7h-7V181.5z M239.6,188.8h7v7h-7V188.8z M239.6,196h7v7h-7V196z
		 M239.6,203.3h7v7h-7V203.3z M239.6,210.5h7v7h-7V210.5z M239.6,217.8h7v7h-7V217.8z M246.9,159.7h7v7h-7V159.7z M246.9,167h7v7h-7
		V167z M246.9,174.3h7v7h-7V174.3z M246.9,181.5h7v7h-7V181.5z M246.9,188.8h7v7h-7V188.8z M246.9,196h7v7h-7V196z M246.9,203.3h7v7
		h-7V203.3z M246.9,210.5h7v7h-7V210.5z M246.9,217.8h7v7h-7V217.8z M254.1,152.5h7v7h-7V152.5z M254.1,167h7v7h-7V167z
		 M254.1,174.3h7v7h-7V174.3z M254.1,181.5h7v7h-7V181.5z M254.1,188.8h7v7h-7V188.8z M254.1,196h7v7h-7V196z M254.1,203.3h7v7h-7
		V203.3z M254.1,210.5h7v7h-7V210.5z M254.1,217.8h7v7h-7V217.8z M261.4,159.7h7v7h-7V159.7z M261.4,167h7v7h-7V167z M261.4,174.3h7
		v7h-7V174.3z M261.4,181.5h7v7h-7V181.5z M261.4,188.8h7v7h-7V188.8z M261.4,196h7v7h-7V196z M261.4,203.3h7v7h-7V203.3z
		 M261.4,210.5h7v7h-7V210.5z M261.4,217.8h7v7h-7V217.8z M268.6,152.5h7v7h-7V152.5z M268.6,159.7h7v7h-7V159.7z M268.6,174.3h7v7
		h-7V174.3z M268.6,181.5h7v7h-7V181.5z M268.6,188.8h7v7h-7V188.8z M268.6,203.3h7v7h-7V203.3z M268.6,210.5h7v7h-7V210.5z
		 M268.6,217.8h7v7h-7V217.8z M203.3,225.1h7v7h-7V225.1z M203.3,239.6h7v7h-7V239.6z M210.6,225.1h7v7h-7V225.1z M210.6,232.3h7v7
		h-7V232.3z M210.6,239.6h7v7h-7V239.6z M210.6,246.9h7v7h-7V246.9z M217.8,225.1h7v7h-7V225.1z M217.8,232.3h7v7h-7V232.3z
		 M217.8,239.6h7v7h-7V239.6z M225.1,225.1h7v7h-7V225.1z M225.1,232.3h7v7h-7V232.3z M225.1,239.6h7v7h-7V239.6z M232.3,225.1h7v7
		h-7V225.1z M232.3,232.3h7v7h-7V232.3z M232.3,239.6h7v7h-7V239.6z M232.3,246.9h7v7h-7V246.9z M239.6,225.1h7v7h-7V225.1z
		 M239.6,239.6h7v7h-7V239.6z M246.9,225.1h7v7h-7V225.1z M246.9,232.3h7v7h-7V232.3z M254.1,225.1h7v7h-7V225.1z M254.1,239.6h7v7
		h-7V239.6z M268.6,225.1h7v7h-7V225.1z M203.3,312.2h7v7h-7V312.2z M203.3,319.5h7v7h-7V319.5z M203.3,326.7h7v7h-7V326.7z
		 M203.3,341.2h7v7h-7V341.2z M203.3,348.5h7v7h-7V348.5z M210.6,319.5h7v7h-7V319.5z M210.6,326.7h7v7h-7V326.7z M210.6,334h7v7h-7
		V334z M210.6,341.2h7v7h-7V341.2z M217.8,319.5h7v7h-7V319.5z M217.8,326.7h7v7h-7V326.7z M217.8,334h7v7h-7V334z M217.8,341.2h7v7
		h-7V341.2z M217.8,348.5h7v7h-7V348.5z M225.1,319.5h7v7h-7V319.5z M225.1,326.7h7v7h-7V326.7z M225.1,334h7v7h-7V334z
		 M225.1,341.2h7v7h-7V341.2z M225.1,348.5h7v7h-7V348.5z M232.3,326.7h7v7h-7V326.7z M232.3,334h7v7h-7V334z M232.3,341.2h7v7h-7
		V341.2z M232.3,348.5h7v7h-7V348.5z M239.6,334h7v7h-7V334z M239.6,341.2h7v7h-7V341.2z M246.9,334h7v7h-7V334z M246.9,341.2h7v7
		h-7V341.2z M246.9,348.5h7v7h-7V348.5z M254.1,326.7h7v7h-7V326.7z M254.1,334h7v7h-7V334z M254.1,341.2h7v7h-7V341.2z M261.4,334
		h7v7h-7V334z M261.4,341.2h7v7h-7V341.2z M261.4,348.5h7v7h-7V348.5z M268.6,341.2h7v7h-7V341.2z M275.9,94.4h7v7h-7V94.4z
		 M275.9,101.7h7v7h-7V101.7z M275.9,108.9h7v7h-7V108.9z M275.9,116.2h7v7h-7V116.2z M275.9,123.4h7v7h-7V123.4z M275.9,130.7h7v7
		h-7V130.7z M275.9,137.9h7v7h-7V137.9z M275.9,145.2h7v7h-7V145.2z M283.2,94.4h7v7h-7V94.4z M283.2,101.7h7v7h-7V101.7z
		 M283.2,108.9h7v7h-7V108.9z M283.2,116.2h7v7h-7V116.2z M283.2,123.4h7v7h-7V123.4z M283.2,130.7h7v7h-7V130.7z M283.2,137.9h7v7
		h-7V137.9z M283.2,145.2h7v7h-7V145.2z M290.4,101.7h7v7h-7V101.7z M290.4,108.9h7v7h-7V108.9z M290.4,123.4h7v7h-7V123.4z
		 M290.4,130.7h7v7h-7V130.7z M290.4,137.9h7v7h-7V137.9z M290.4,145.2h7v7h-7V145.2z M297.7,123.4h7v7h-7V123.4z M297.7,130.7h7v7
		h-7V130.7z M297.7,137.9h7v7h-7V137.9z M297.7,145.2h7v7h-7V145.2z M304.9,116.2h7v7h-7V116.2z M304.9,123.4h7v7h-7V123.4z
		 M304.9,130.7h7v7h-7V130.7z M304.9,137.9h7v7h-7V137.9z M304.9,145.2h7v7h-7V145.2z M312.2,116.2h7v7h-7V116.2z M312.2,130.7h7v7
		h-7V130.7z M312.2,137.9h7v7h-7V137.9z M319.5,130.7h7v7h-7V130.7z M319.5,137.9h7v7h-7V137.9z M275.9,152.5h7v7h-7V152.5z
		 M275.9,159.7h7v7h-7V159.7z M275.9,167h7v7h-7V167z M275.9,174.3h7v7h-7V174.3z M275.9,181.5h7v7h-7V181.5z M275.9,196h7v7h-7V196
		z M275.9,203.3h7v7h-7V203.3z M275.9,217.8h7v7h-7V217.8z M283.2,152.5h7v7h-7V152.5z M283.2,159.7h7v7h-7V159.7z M283.2,174.3h7v7
		h-7V174.3z M283.2,188.8h7v7h-7V188.8z M283.2,203.3h7v7h-7V203.3z M283.2,210.5h7v7h-7V210.5z M283.2,217.8h7v7h-7V217.8z
		 M290.4,152.5h7v7h-7V152.5z M290.4,159.7h7v7h-7V159.7z M290.4,167h7v7h-7V167z M290.4,174.3h7v7h-7V174.3z M290.4,181.5h7v7h-7
		V181.5z M290.4,196h7v7h-7V196z M290.4,203.3h7v7h-7V203.3z M290.4,210.5h7v7h-7V210.5z M290.4,217.8h7v7h-7V217.8z M297.7,152.5h7
		v7h-7V152.5z M297.7,159.7h7v7h-7V159.7z M297.7,167h7v7h-7V167z M297.7,181.5h7v7h-7V181.5z M297.7,188.8h7v7h-7V188.8z
		 M297.7,196h7v7h-7V196z M297.7,210.5h7v7h-7V210.5z M297.7,217.8h7v7h-7V217.8z M304.9,152.5h7v7h-7V152.5z M304.9,159.7h7v7h-7
		V159.7z M304.9,167h7v7h-7V167z M304.9,174.3h7v7h-7V174.3z M304.9,181.5h7v7h-7V181.5z M304.9,188.8h7v7h-7V188.8z M304.9,196h7v7
		h-7V196z M304.9,203.3h7v7h-7V203.3z M304.9,210.5h7v7h-7V210.5z M304.9,217.8h7v7h-7V217.8z M312.2,152.5h7v7h-7V152.5z
		 M312.2,159.7h7v7h-7V159.7z M312.2,167h7v7h-7V167z M312.2,174.3h7v7h-7V174.3z M312.2,181.5h7v7h-7V181.5z M312.2,188.8h7v7h-7
		V188.8z M312.2,196h7v7h-7V196z M312.2,203.3h7v7h-7V203.3z M319.5,159.7h7v7h-7V159.7z M319.5,167h7v7h-7V167z M319.5,174.3h7v7
		h-7V174.3z M319.5,181.5h7v7h-7V181.5z M319.5,188.8h7v7h-7V188.8z M319.5,196h7v7h-7V196z M319.5,203.3h7v7h-7V203.3z
		 M319.5,210.5h7v7h-7V210.5z M326.7,159.7h7v7h-7V159.7z M326.7,174.3h7v7h-7V174.3z M326.7,188.8h7v7h-7V188.8z M326.7,196h7v7h-7
		V196z M326.7,203.3h7v7h-7V203.3z M334,188.8h7v7h-7V188.8z M275.9,225.1h7v7h-7V225.1z M275.9,232.3h7v7h-7V232.3z M283.2,225.1h7
		v7h-7V225.1z M283.2,232.3h7v7h-7V232.3z M290.4,225.1h7v7h-7V225.1z M290.4,232.3h7v7h-7V232.3z M297.7,225.1h7v7h-7V225.1z
		 M297.7,232.3h7v7h-7V232.3z M275.9,326.7h7v7h-7V326.7z M275.9,334h7v7h-7V334z M275.9,341.2h7v7h-7V341.2z M275.9,348.5h7v7h-7
		V348.5z M283.2,334h7v7h-7V334z M283.2,341.2h7v7h-7V341.2z M290.4,341.2h7v7h-7V341.2z M290.4,348.5h7v7h-7V348.5z M50.8,355.7h7
		v7h-7V355.7z M65.4,355.7h7v7h-7V355.7z M79.9,355.7h7v7h-7V355.7z M94.4,355.7h7v7h-7V355.7z M108.9,355.7h7v7h-7V355.7z
		 M123.4,355.7h7v7h-7V355.7z M138,355.7h7v7h-7V355.7z M152.5,355.7h7v7h-7V355.7z M167,355.7h7v7h-7V355.7z M181.5,355.7h7v7h-7
		V355.7z M196,355.7h7v7h-7V355.7z M210.6,355.7h7v7h-7V355.7z M225.1,355.7h7v7h-7V355.7z M239.6,355.7h7v7h-7V355.7z M254.1,355.7
		h7v7h-7V355.7z M268.6,355.7h7v7h-7V355.7z M283.2,355.7h7v7h-7V355.7z"/>
</g>
</svg>
