<?xml version="1.0" encoding="utf-8"?>
<!-- Generator: Adobe Illustrator 27.3.1, SVG Export Plug-In . SVG Version: 6.00 Build 0)  -->
<svg version="1.1" id="Слой_1" xmlns="http://www.w3.org/2000/svg" xmlns:xlink="http://www.w3.org/1999/xlink" x="0px" y="0px"
	 viewBox="0 0 870.9 595.1" style="enable-background:new 0 0 870.9 595.1;" xml:space="preserve">
<style type="text/css">
	.st0{display:none;}
	.st1{fill:#1E0E01;}
</style>
<g id="Слой_2_00000024000756126506223580000017467196067012961683_" class="st0">
</g>
<g id="Слой_1_00000027580802840933136670000007521585232850919312_">
</g>
<path class="st1" d="M243.1,486.3h7v7h-7V486.3z M243.1,508.1h7v7h-7V508.1z M192.3,580.7h7v7h-7V580.7z M199.6,580.7h7v7h-7V580.7z
	 M206.8,580.7h7v7h-7V580.7z M214.1,580.7h7v7h-7V580.7z M221.4,580.7h7v7h-7V580.7z M228.6,580.7h7v7h-7V580.7z M235.9,573.4h7v7
	h-7V573.4z M235.9,580.7h7v7h-7V580.7z M243.1,529.9h7v7h-7V529.9z M243.1,544.4h7v7h-7V544.4z M243.1,573.4h7v7h-7V573.4z
	 M243.1,580.7h7v7h-7V580.7z M286.7,94.3h7v7h-7V94.3z M301.2,94.3h7v7h-7V94.3z M301.2,159.6h7v7h-7V159.6z M315.7,94.3h7v7h-7
	V94.3z M315.7,159.6h7v7h-7V159.6z M315.7,442.7h7v7h-7V442.7z M257.7,486.3h7v7h-7V486.3z M257.7,508.1h7v7h-7V508.1z M264.9,500.8
	h7v7h-7V500.8z M272.2,471.8h7v7h-7V471.8z M272.2,486.3h7v7h-7V486.3z M272.2,508.1h7v7h-7V508.1z M279.4,493.6h7v7h-7V493.6z
	 M279.4,508.1h7v7h-7V508.1z M286.7,471.8h7v7h-7V471.8z M286.7,486.3h7v7h-7V486.3z M286.7,500.8h7v7h-7V500.8z M286.7,508.1h7v7
	h-7V508.1z M286.7,515.3h7v7h-7V515.3z M286.7,522.6h7v7h-7V522.6z M294,464.5h7v7h-7V464.5z M294,493.6h7v7h-7V493.6z M294,508.1h7
	v7h-7V508.1z M294,515.3h7v7h-7V515.3z M294,522.6h7v7h-7V522.6z M301.2,471.8h7v7h-7V471.8z M301.2,486.3h7v7h-7V486.3z
	 M301.2,500.8h7v7h-7V500.8z M301.2,508.1h7v7h-7V508.1z M301.2,515.3h7v7h-7V515.3z M301.2,522.6h7v7h-7V522.6z M308.5,464.5h7v7
	h-7V464.5z M308.5,493.6h7v7h-7V493.6z M308.5,500.8h7v7h-7V500.8z M308.5,508.1h7v7h-7V508.1z M308.5,515.3h7v7h-7V515.3z
	 M308.5,522.6h7v7h-7V522.6z M315.7,471.8h7v7h-7V471.8z M315.7,486.3h7v7h-7V486.3z M315.7,500.8h7v7h-7V500.8z M315.7,508.1h7v7
	h-7V508.1z M315.7,515.3h7v7h-7V515.3z M315.7,522.6h7v7h-7V522.6z M250.4,544.4h7v7h-7V544.4z M250.4,573.4h7v7h-7V573.4z
	 M250.4,580.7h7v7h-7V580.7z M257.7,529.9h7v7h-7V529.9z M257.7,551.7h7v7h-7V551.7z M257.7,573.4h7v7h-7V573.4z M257.7,580.7h7v7
	h-7V580.7z M264.9,544.4h7v7h-7V544.4z M264.9,573.4h7v7h-7V573.4z M264.9,580.7h7v7h-7V580.7z M272.2,529.9h7v7h-7V529.9z
	 M272.2,551.7h7v7h-7V551.7z M272.2,573.4h7v7h-7V573.4z M272.2,580.7h7v7h-7V580.7z M279.4,544.4h7v7h-7V544.4z M279.4,558.9h7v7
	h-7V558.9z M279.4,580.7h7v7h-7V580.7z M286.7,529.9h7v7h-7V529.9z M286.7,551.7h7v7h-7V551.7z M286.7,580.7h7v7h-7V580.7z
	 M294,529.9h7v7h-7V529.9z M294,537.1h7v7h-7V537.1z M294,544.4h7v7h-7V544.4z M294,551.7h7v7h-7V551.7z M294,558.9h7v7h-7V558.9z
	 M294,566.2h7v7h-7V566.2z M294,573.4h7v7h-7V573.4z M294,580.7h7v7h-7V580.7z M301.2,529.9h7v7h-7V529.9z M301.2,537.1h7v7h-7
	V537.1z M301.2,544.4h7v7h-7V544.4z M301.2,551.7h7v7h-7V551.7z M301.2,558.9h7v7h-7V558.9z M301.2,566.2h7v7h-7V566.2z
	 M301.2,573.4h7v7h-7V573.4z M301.2,580.7h7v7h-7V580.7z M308.5,529.9h7v7h-7V529.9z M308.5,537.1h7v7h-7V537.1z M308.5,544.4h7v7
	h-7V544.4z M308.5,551.7h7v7h-7V551.7z M308.5,558.9h7v7h-7V558.9z M308.5,566.2h7v7h-7V566.2z M308.5,573.4h7v7h-7V573.4z
	 M308.5,580.7h7v7h-7V580.7z M315.7,529.9h7v7h-7V529.9z M315.7,537.1h7v7h-7V537.1z M315.7,544.4h7v7h-7V544.4z M315.7,551.7h7v7
	h-7V551.7z M315.7,558.9h7v7h-7V558.9z M315.7,566.2h7v7h-7V566.2z M315.7,573.4h7v7h-7V573.4z M315.7,580.7h7v7h-7V580.7z
	 M323,108.8h7v7h-7V108.8z M323,137.8h7v7h-7V137.8z M330.3,94.3h7v7h-7V94.3z M330.3,130.6h7v7h-7V130.6z M330.3,159.6h7v7h-7
	V159.6z M337.5,108.8h7v7h-7V108.8z M337.5,137.8h7v7h-7V137.8z M344.8,87h7v7h-7V87z M344.8,130.6h7v7h-7V130.6z M344.8,159.6h7v7
	h-7V159.6z M352,108.8h7v7h-7V108.8z M352,137.8h7v7h-7V137.8z M352,152.3h7v7h-7V152.3z M359.3,87h7v7h-7V87z M359.3,130.6h7v7h-7
	V130.6z M359.3,145.1h7v7h-7V145.1z M359.3,159.6h7v7h-7V159.6z M366.6,79.8h7v7h-7V79.8z M366.6,108.8h7v7h-7V108.8z M366.6,123.3
	h7v7h-7V123.3z M366.6,137.8h7v7h-7V137.8z M366.6,152.3h7v7h-7V152.3z M373.8,87h7v7h-7V87z M373.8,130.6h7v7h-7V130.6z
	 M373.8,145.1h7v7h-7V145.1z M373.8,159.6h7v7h-7V159.6z M373.8,355.6h7v7h-7V355.6z M381.1,79.8h7v7h-7V79.8z M381.1,108.8h7v7h-7
	V108.8z M381.1,123.3h7v7h-7V123.3z M381.1,137.8h7v7h-7V137.8z M381.1,152.3h7v7h-7V152.3z M381.1,145h7v7h-7V145z M381.1,166.9h7
	v7h-7V166.9z M381.1,159.6h7v7h-7V159.6z M381.1,174.1h7v7h-7V174.1z M381.1,348.4h7v7h-7V348.4z M366.6,348.4h7v7h-7V348.4z
	 M381.1,377.4h7v7h-7V377.4z M388.3,87h7v7h-7V87z M388.3,116h7v7h-7V116z M388.3,130.6h7v7h-7V130.6z M388.3,145.1h7v7h-7V145.1z
	 M388.3,137.8h7v7h-7V137.8z M388.3,159.6h7v7h-7V159.6z M388.3,166.9h7v7h-7V166.9z M388.3,174.1h7v7h-7V174.1z M388.3,181.4h7v7
	h-7V181.4z M388.3,355.6h7v7h-7V355.6z M330.3,442.7h7v7h-7V442.7z M337.5,450h7v7h-7V450z M344.8,442.7h7v7h-7V442.7z M352,450h7v7
	h-7V450z M359.3,442.7h7v7h-7V442.7z M366.6,435.5h7v7h-7V435.5z M366.6,450h7v7h-7V450z M373.8,428.2h7v7h-7V428.2z M373.8,442.7h7
	v7h-7V442.7z M402.9,384.7h7v7h-7V384.7z M381.1,435.5h7v7h-7V435.5z M381.1,450h7v7h-7V450z M388.3,428.2h7v7h-7V428.2z
	 M388.3,442.7h7v7h-7V442.7z M323,464.5h7v7h-7V464.5z M323,479.1h7v7h-7V479.1z M323,493.6h7v7h-7V493.6z M323,500.8h7v7h-7V500.8z
	 M323,508.1h7v7h-7V508.1z M323,515.3h7v7h-7V515.3z M323,522.6h7v7h-7V522.6z M330.3,457.3h7v7h-7V457.3z M330.3,471.8h7v7h-7
	V471.8z M330.3,486.3h7v7h-7V486.3z M330.3,493.6h7v7h-7V493.6z M330.3,500.8h7v7h-7V500.8z M330.3,508.1h7v7h-7V508.1z
	 M330.3,515.3h7v7h-7V515.3z M330.3,522.6h7v7h-7V522.6z M337.5,464.5h7v7h-7V464.5z M337.5,479.1h7v7h-7V479.1z M337.5,486.3h7v7
	h-7V486.3z M337.5,493.6h7v7h-7V493.6z M337.5,500.8h7v7h-7V500.8z M337.5,508.1h7v7h-7V508.1z M344.8,457.3h7v7h-7V457.3z
	 M344.8,471.8h7v7h-7V471.8z M344.8,479.1h7v7h-7V479.1z M344.8,486.3h7v7h-7V486.3z M344.8,493.6h7v7h-7V493.6z M344.8,500.8h7v7
	h-7V500.8z M352,464.5h7v7h-7V464.5z M352,479.1h7v7h-7V479.1z M352,486.3h7v7h-7V486.3z M352,493.6h7v7h-7V493.6z M352,500.8h7v7
	h-7V500.8z M359.3,457.3h7v7h-7V457.3z M359.3,471.8h7v7h-7V471.8z M359.3,479.1h7v7h-7V479.1z M359.3,486.3h7v7h-7V486.3z
	 M359.3,493.6h7v7h-7V493.6z M366.6,464.5h7v7h-7V464.5z M366.6,471.8h7v7h-7V471.8z M366.6,479.1h7v7h-7V479.1z M366.6,486.3h7v7
	h-7V486.3z M366.6,493.6h7v7h-7V493.6z M373.8,457.3h7v7h-7V457.3z M373.8,464.5h7v7h-7V464.5z M373.8,471.8h7v7h-7V471.8z
	 M373.8,479.1h7v7h-7V479.1z M373.8,486.3h7v7h-7V486.3z M373.8,493.6h7v7h-7V493.6z M381.1,457.3h7v7h-7V457.3z M381.1,464.5h7v7
	h-7V464.5z M381.1,471.8h7v7h-7V471.8z M381.1,479.1h7v7h-7V479.1z M381.1,486.3h7v7h-7V486.3z M388.3,457.3h7v7h-7V457.3z
	 M388.3,464.5h7v7h-7V464.5z M388.3,471.8h7v7h-7V471.8z M388.3,479.1h7v7h-7V479.1z M388.3,486.3h7v7h-7V486.3z M323,529.9h7v7h-7
	V529.9z M323,537.1h7v7h-7V537.1z M323,544.4h7v7h-7V544.4z M323,551.7h7v7h-7V551.7z M323,558.9h7v7h-7V558.9z M323,566.2h7v7h-7
	V566.2z M323,573.4h7v7h-7V573.4z M323,580.7h7v7h-7V580.7z M330.3,566.2h7v7h-7V566.2z M330.3,573.4h7v7h-7V573.4z M330.3,580.7h7
	v7h-7V580.7z M337.5,566.2h7v7h-7V566.2z M337.5,573.4h7v7h-7V573.4z M337.5,580.7h7v7h-7V580.7z M344.8,573.4h7v7h-7V573.4z
	 M344.8,580.7h7v7h-7V580.7z M352,573.4h7v7h-7V573.4z M352,580.7h7v7h-7V580.7z M359.3,573.4h7v7h-7V573.4z M359.3,580.7h7v7h-7
	V580.7z M366.6,573.4h7v7h-7V573.4z M366.6,580.7h7v7h-7V580.7z M373.8,573.4h7v7h-7V573.4z M373.8,580.7h7v7h-7V580.7z
	 M381.1,573.4h7v7h-7V573.4z M381.1,580.7h7v7h-7V580.7z M388.3,573.4h7v7h-7V573.4z M388.3,580.7h7v7h-7V580.7z M395.6,79.8h7v7h-7
	V79.8z M395.6,94.3h7v7h-7V94.3z M395.6,108.8h7v7h-7V108.8z M395.6,123.3h7v7h-7V123.3z M395.6,137.8h7v7h-7V137.8z M395.6,130.5h7
	v7h-7V130.5z M395.6,152.3h7v7h-7V152.3z M395.6,174.1h7v7h-7V174.1z M395.6,181.4h7v7h-7V181.4z M395.6,188.7h7v7h-7V188.7z
	 M395.6,348.4h7v7h-7V348.4z M395.6,377.4h7v7h-7V377.4z M402.9,58h7v7h-7V58z M402.9,87h7v7h-7V87z M402.9,116h7v7h-7V116z
	 M402.9,130.6h7v7h-7V130.6z M402.9,123.3h7v7h-7V123.3z M402.9,145.1h7v7h-7V145.1z M402.9,181.4h7v7h-7V181.4z M402.9,188.7h7v7
	h-7V188.7z M402.9,355.6h7v7h-7V355.6z M410.1,79.8h7v7h-7V79.8z M410.1,94.3h7v7h-7V94.3z M410.1,123.3h7v7h-7V123.3z M410.1,116h7
	v7h-7V116z M410.1,137.8h7v7h-7V137.8z M410.1,188.7h7v7h-7V188.7z M410.1,348.4h7v7h-7V348.4z M410.1,377.4h7v7h-7V377.4z
	 M417.4,58h7v7h-7V58z M417.4,87h7v7h-7V87z M417.4,116h7v7h-7V116z M417.4,108.7h7v7h-7V108.7z M417.4,130.6h7v7h-7V130.6z
	 M417.4,174.1h7v7h-7V174.1z M417.4,181.4h7v7h-7V181.4z M417.4,188.7h7v7h-7V188.7z M417.4,355.6h7v7h-7V355.6z M424.6,79.8h7v7h-7
	V79.8z M424.6,108.8h7v7h-7V108.8z M424.6,101.5h7v7h-7V101.5z M424.6,94.3h7v7h-7V94.3z M424.6,123.3h7v7h-7V123.3z M424.6,137.8h7
	v7h-7V137.8z M424.6,166.9h7v7h-7V166.9z M424.6,188.7h7v7h-7V188.7z M424.6,348.4h7v7h-7V348.4z M424.6,362.9h7v7h-7V362.9z
	 M424.6,377.4h7v7h-7V377.4z M431.9,58h7v7h-7V58z M431.9,101.5h7v7h-7V101.5z M431.9,94.2h7v7h-7V94.2z M431.9,116h7v7h-7V116z
	 M431.9,130.6h7v7h-7V130.6z M431.9,145.1h7v7h-7V145.1z M431.9,152.3h7v7h-7V152.3z M431.9,174.1h7v7h-7V174.1z M431.9,181.4h7v7
	h-7V181.4z M431.9,355.6h7v7h-7V355.6z M431.9,370.1h7v7h-7V370.1z M439.2,79.8h7v7h-7V79.8z M439.2,94.3h7v7h-7V94.3z M439.2,87h7
	v7h-7V87z M439.2,108.8h7v7h-7V108.8z M439.2,123.3h7v7h-7V123.3z M439.2,130.6h7v7h-7V130.6z M439.2,159.6h7v7h-7V159.6z
	 M439.2,166.9h7v7h-7V166.9z M439.2,333.9h7v7h-7V333.9z M439.2,348.4h7v7h-7V348.4z M439.2,362.9h7v7h-7V362.9z M439.2,377.4h7v7
	h-7V377.4z M446.4,58h7v7h-7V58z M446.4,87h7v7h-7V87z M446.4,101.5h7v7h-7V101.5z M446.4,94.2h7v7h-7V94.2z M446.4,116h7v7h-7V116z
	 M446.4,123.3h7v7h-7V123.3z M446.4,341.1h7v7h-7V341.1z M446.4,355.6h7v7h-7V355.6z M446.4,370.1h7v7h-7V370.1z M453.7,65.2h7v7h-7
	V65.2z M453.7,79.8h7v7h-7V79.8z M453.7,94.3h7v7h-7V94.3z M453.7,87h7v7h-7V87z M453.7,108.8h7v7h-7V108.8z M453.7,116h7v7h-7V116z
	 M453.7,123.3h7v7h-7V123.3z M453.7,261.3h7v7h-7V261.3z M453.7,275.8h7v7h-7V275.8z M453.7,290.3h7v7h-7V290.3z M453.7,304.8h7v7
	h-7V304.8z M453.7,319.3h7v7h-7V319.3z M453.7,333.9h7v7h-7V333.9z M453.7,348.4h7v7h-7V348.4z M453.7,362.9h7v7h-7V362.9z
	 M453.7,377.4h7v7h-7V377.4z M460.9,58h7v7h-7V58z M460.9,72.5h7v7h-7V72.5z M460.9,87h7v7h-7V87z M460.9,79.7h7v7h-7V79.7z
	 M460.9,101.5h7v7h-7V101.5z M460.9,116h7v7h-7V116z M460.9,239.5h7v7h-7V239.5z M460.9,268.5h7v7h-7V268.5z M460.9,326.6h7v7h-7
	V326.6z M460.9,341.1h7v7h-7V341.1z M460.9,355.6h7v7h-7V355.6z M460.9,370.1h7v7h-7V370.1z M417.4,384.7h7v7h-7V384.7z M395.6,421
	h7v7h-7V421z M395.6,435.5h7v7h-7V435.5z M395.6,450h7v7h-7V450z M402.9,413.7h7v7h-7V413.7z M402.9,428.2h7v7h-7V428.2z
	 M402.9,442.7h7v7h-7V442.7z M402.9,450h7v7h-7V450z M410.1,391.9h7v7h-7V391.9z M410.1,406.5h7v7h-7V406.5z M410.1,421h7v7h-7V421z
	 M410.1,435.5h7v7h-7V435.5z M410.1,450h7v7h-7V450z M417.4,399.2h7v7h-7V399.2z M417.4,413.7h7v7h-7V413.7z M417.4,428.2h7v7h-7
	V428.2z M417.4,442.7h7v7h-7V442.7z M417.4,450h7v7h-7V450z M424.6,391.9h7v7h-7V391.9z M424.6,406.5h7v7h-7V406.5z M424.6,421h7v7
	h-7V421z M424.6,435.5h7v7h-7V435.5z M424.6,442.7h7v7h-7V442.7z M424.6,450h7v7h-7V450z M431.9,384.7h7v7h-7V384.7z M431.9,399.2h7
	v7h-7V399.2z M431.9,413.7h7v7h-7V413.7z M431.9,428.2h7v7h-7V428.2z M431.9,435.5h7v7h-7V435.5z M431.9,442.7h7v7h-7V442.7z
	 M431.9,450h7v7h-7V450z M439.2,391.9h7v7h-7V391.9z M439.2,406.5h7v7h-7V406.5z M439.2,421h7v7h-7V421z M439.2,428.2h7v7h-7V428.2z
	 M439.2,435.5h7v7h-7V435.5z M439.2,442.7h7v7h-7V442.7z M439.2,450h7v7h-7V450z M446.4,384.7h7v7h-7V384.7z M446.4,399.2h7v7h-7
	V399.2z M446.4,413.7h7v7h-7V413.7z M446.4,421h7v7h-7V421z M446.4,428.2h7v7h-7V428.2z M446.4,435.5h7v7h-7V435.5z M446.4,442.7h7
	v7h-7V442.7z M446.4,450h7v7h-7V450z M453.7,391.9h7v7h-7V391.9z M453.7,406.5h7v7h-7V406.5z M453.7,413.7h7v7h-7V413.7z M453.7,421
	h7v7h-7V421z M453.7,428.2h7v7h-7V428.2z M453.7,435.5h7v7h-7V435.5z M453.7,442.7h7v7h-7V442.7z M453.7,450h7v7h-7V450z
	 M460.9,384.7h7v7h-7V384.7z M460.9,399.2h7v7h-7V399.2z M460.9,406.5h7v7h-7V406.5z M460.9,413.7h7v7h-7V413.7z M460.9,421h7v7h-7
	V421z M460.9,428.2h7v7h-7V428.2z M460.9,435.5h7v7h-7V435.5z M460.9,442.7h7v7h-7V442.7z M460.9,450h7v7h-7V450z M395.6,457.3h7v7
	h-7V457.3z M395.6,464.5h7v7h-7V464.5z M395.6,471.8h7v7h-7V471.8z M395.6,479.1h7v7h-7V479.1z M395.6,486.3h7v7h-7V486.3z
	 M402.9,457.3h7v7h-7V457.3z M402.9,464.5h7v7h-7V464.5z M402.9,471.8h7v7h-7V471.8z M402.9,479.1h7v7h-7V479.1z M410.1,457.3h7v7
	h-7V457.3z M410.1,464.5h7v7h-7V464.5z M410.1,471.8h7v7h-7V471.8z M410.1,479.1h7v7h-7V479.1z M417.4,457.3h7v7h-7V457.3z
	 M417.4,464.5h7v7h-7V464.5z M417.4,471.8h7v7h-7V471.8z M417.4,479.1h7v7h-7V479.1z M424.6,457.3h7v7h-7V457.3z M424.6,464.5h7v7
	h-7V464.5z M424.6,471.8h7v7h-7V471.8z M431.9,457.3h7v7h-7V457.3z M431.9,464.5h7v7h-7V464.5z M431.9,471.8h7v7h-7V471.8z
	 M439.2,457.3h7v7h-7V457.3z M439.2,464.5h7v7h-7V464.5z M439.2,471.8h7v7h-7V471.8z M446.4,457.3h7v7h-7V457.3z M446.4,464.5h7v7
	h-7V464.5z M446.4,471.8h7v7h-7V471.8z M453.7,457.3h7v7h-7V457.3z M453.7,464.5h7v7h-7V464.5z M460.9,457.3h7v7h-7V457.3z
	 M460.9,464.5h7v7h-7V464.5z M395.6,573.4h7v7h-7V573.4z M395.6,580.7h7v7h-7V580.7z M402.9,573.4h7v7h-7V573.4z M402.9,580.7h7v7
	h-7V580.7z M410.1,573.4h7v7h-7V573.4z M410.1,580.7h7v7h-7V580.7z M417.4,573.4h7v7h-7V573.4z M417.4,580.7h7v7h-7V580.7z
	 M424.6,573.4h7v7h-7V573.4z M424.6,580.7h7v7h-7V580.7z M431.9,573.4h7v7h-7V573.4z M431.9,580.7h7v7h-7V580.7z M439.2,573.4h7v7
	h-7V573.4z M439.2,580.7h7v7h-7V580.7z M446.4,573.4h7v7h-7V573.4z M446.4,580.7h7v7h-7V580.7z M453.7,573.4h7v7h-7V573.4z
	 M453.7,580.7h7v7h-7V580.7z M460.9,573.4h7v7h-7V573.4z M460.9,580.7h7v7h-7V580.7z M468.2,65.2h7v7h-7V65.2z M468.2,79.8h7v7h-7
	V79.8z M468.2,72.5h7v7h-7V72.5z M468.2,94.3h7v7h-7V94.3z M468.2,108.8h7v7h-7V108.8z M468.2,116h7v7h-7V116z M468.2,188.7h7v7h-7
	V188.7z M468.2,261.3h7v7h-7V261.3z M468.2,275.8h7v7h-7V275.8z M468.2,290.3h7v7h-7V290.3z M468.2,304.8h7v7h-7V304.8z
	 M468.2,319.3h7v7h-7V319.3z M468.2,333.9h7v7h-7V333.9z M468.2,348.4h7v7h-7V348.4z M468.2,362.9h7v7h-7V362.9z M468.2,377.4h7v7
	h-7V377.4z M475.5,58h7v7h-7V58z M475.5,72.5h7v7h-7V72.5z M475.5,65.2h7v7h-7V65.2z M475.5,87h7v7h-7V87z M475.5,101.5h7v7h-7
	V101.5z M475.5,108.8h7v7h-7V108.8z M475.5,166.9h7v7h-7V166.9z M475.5,239.5h7v7h-7V239.5z M475.5,268.5h7v7h-7V268.5z
	 M475.5,297.5h7v7h-7V297.5z M475.5,312.1h7v7h-7V312.1z M475.5,326.6h7v7h-7V326.6z M475.5,341.1h7v7h-7V341.1z M475.5,355.6h7v7
	h-7V355.6z M475.5,370.1h7v7h-7V370.1z M475.5,377.4h7v7h-7V377.4z M482.7,65.2h7v7h-7V65.2z M482.7,57.9h7v7h-7V57.9z M482.7,79.8
	h7v7h-7V79.8z M482.7,94.3h7v7h-7V94.3z M482.7,108.8h7v7h-7V108.8z M482.7,145.1h7v7h-7V145.1z M482.7,188.7h7v7h-7V188.7z
	 M482.7,261.3h7v7h-7V261.3z M482.7,275.8h7v7h-7V275.8z M482.7,290.3h7v7h-7V290.3z M482.7,304.8h7v7h-7V304.8z M482.7,319.3h7v7
	h-7V319.3z M482.7,333.9h7v7h-7V333.9z M482.7,348.4h7v7h-7V348.4z M482.7,362.9h7v7h-7V362.9z M482.7,370.1h7v7h-7V370.1z
	 M482.7,377.4h7v7h-7V377.4z M490,58h7v7h-7V58z M490,72.5h7v7h-7V72.5z M490,87h7v7h-7V87z M490,101.5h7v7h-7V101.5z M490,123.3h7
	v7h-7V123.3z M490,166.9h7v7h-7V166.9z M490,224.9h7v7h-7V224.9z M490,239.5h7v7h-7V239.5z M490,268.5h7v7h-7V268.5z M490,283h7v7
	h-7V283z M490,297.5h7v7h-7V297.5z M490,312.1h7v7h-7V312.1z M490,326.6h7v7h-7V326.6z M490,341.1h7v7h-7V341.1z M490,355.6h7v7h-7
	V355.6z M490,362.9h7v7h-7V362.9z M490,370.1h7v7h-7V370.1z M490,377.4h7v7h-7V377.4z M497.2,50.7h7v7h-7V50.7z M497.2,65.2h7v7h-7
	V65.2z M497.2,79.8h7v7h-7V79.8z M497.2,94.3h7v7h-7V94.3z M497.2,101.5h7v7h-7V101.5z M497.2,145.1h7v7h-7V145.1z M497.2,188.7h7v7
	h-7V188.7z M497.2,203.2h7v7h-7V203.2z M497.2,232.2h7v7h-7V232.2z M497.2,261.3h7v7h-7V261.3z M497.2,275.8h7v7h-7V275.8z
	 M497.2,290.3h7v7h-7V290.3z M497.2,304.8h7v7h-7V304.8z M497.2,319.3h7v7h-7V319.3z M497.2,333.9h7v7h-7V333.9z M497.2,348.4h7v7
	h-7V348.4z M497.2,355.6h7v7h-7V355.6z M497.2,362.9h7v7h-7V362.9z M497.2,370.1h7v7h-7V370.1z M497.2,377.4h7v7h-7V377.4z
	 M504.5,43.5h7v7h-7V43.5z M504.5,50.7h7v7h-7V50.7z M504.5,58h7v7h-7V58z M504.5,72.5h7v7h-7V72.5z M504.5,87h7v7h-7V87z
	 M504.5,94.3h7v7h-7V94.3z M504.5,123.3h7v7h-7V123.3z M504.5,166.9h7v7h-7V166.9z M504.5,224.9h7v7h-7V224.9z M504.5,239.5h7v7h-7
	V239.5z M504.5,254h7v7h-7V254z M504.5,268.5h7v7h-7V268.5z M504.5,283h7v7h-7V283z M504.5,297.5h7v7h-7V297.5z M504.5,304.8h7v7h-7
	V304.8z M504.5,312.1h7v7h-7V312.1z M504.5,319.3h7v7h-7V319.3z M504.5,326.6h7v7h-7V326.6z M504.5,333.9h7v7h-7V333.9z
	 M504.5,341.1h7v7h-7V341.1z M504.5,348.4h7v7h-7V348.4z M504.5,355.6h7v7h-7V355.6z M504.5,362.9h7v7h-7V362.9z M504.5,370.1h7v7
	h-7V370.1z M504.5,377.4h7v7h-7V377.4z M511.8,43.5h7v7h-7V43.5z M511.8,50.7h7v7h-7V50.7z M511.8,65.2h7v7h-7V65.2z M511.8,79.8h7
	v7h-7V79.8z M511.8,94.3h7v7h-7V94.3z M511.8,145.1h7v7h-7V145.1z M511.8,188.7h7v7h-7V188.7z M511.8,203.2h7v7h-7V203.2z
	 M511.8,217.7h7v7h-7V217.7z M511.8,232.2h7v7h-7V232.2z M511.8,246.7h7v7h-7V246.7z M511.8,261.3h7v7h-7V261.3z M511.8,275.8h7v7
	h-7V275.8z M511.8,283h7v7h-7V283z M511.8,290.3h7v7h-7V290.3z M511.8,297.5h7v7h-7V297.5z M511.8,304.8h7v7h-7V304.8z M511.8,312.1
	h7v7h-7V312.1z M511.8,319.3h7v7h-7V319.3z M511.8,326.6h7v7h-7V326.6z M511.8,333.9h7v7h-7V333.9z M511.8,341.1h7v7h-7V341.1z
	 M511.8,348.4h7v7h-7V348.4z M511.8,355.6h7v7h-7V355.6z M511.8,362.9h7v7h-7V362.9z M511.8,370.1h7v7h-7V370.1z M511.8,377.4h7v7
	h-7V377.4z M519,43.5h7v7h-7V43.5z M519,72.5h7v7h-7V72.5z M519,87h7v7h-7V87z M519,123.3h7v7h-7V123.3z M519,166.9h7v7h-7V166.9z
	 M519,224.9h7v7h-7V224.9z M519,239.5h7v7h-7V239.5z M519,254h7v7h-7V254z M519,268.5h7v7h-7V268.5z M519,275.8h7v7h-7V275.8z
	 M519,283h7v7h-7V283z M519,290.3h7v7h-7V290.3z M519,297.5h7v7h-7V297.5z M519,304.8h7v7h-7V304.8z M519,312.1h7v7h-7V312.1z
	 M519,319.3h7v7h-7V319.3z M519,326.6h7v7h-7V326.6z M519,333.9h7v7h-7V333.9z M519,341.1h7v7h-7V341.1z M519,348.4h7v7h-7V348.4z
	 M519,355.6h7v7h-7V355.6z M519,362.9h7v7h-7V362.9z M519,370.1h7v7h-7V370.1z M519,377.4h7v7h-7V377.4z M526.3,43.5h7v7h-7V43.5z
	 M526.3,65.2h7v7h-7V65.2z M526.3,79.8h7v7h-7V79.8z M526.3,87h7v7h-7V87z M526.3,145.1h7v7h-7V145.1z M526.3,159.6h7v7h-7V159.6z
	 M526.3,188.7h7v7h-7V188.7z M526.3,203.2h7v7h-7V203.2z M526.3,217.7h7v7h-7V217.7z M526.3,232.2h7v7h-7V232.2z M526.3,246.7h7v7
	h-7V246.7z M526.3,261.3h7v7h-7V261.3z M526.3,268.5h7v7h-7V268.5z M526.3,275.8h7v7h-7V275.8z M526.3,283h7v7h-7V283z M526.3,290.3
	h7v7h-7V290.3z M526.3,297.5h7v7h-7V297.5z M526.3,304.8h7v7h-7V304.8z M526.3,312.1h7v7h-7V312.1z M526.3,319.3h7v7h-7V319.3z
	 M526.3,326.6h7v7h-7V326.6z M526.3,333.9h7v7h-7V333.9z M526.3,341.1h7v7h-7V341.1z M526.3,348.4h7v7h-7V348.4z M526.3,355.6h7v7
	h-7V355.6z M526.3,362.9h7v7h-7V362.9z M526.3,370.1h7v7h-7V370.1z M526.3,377.4h7v7h-7V377.4z M533.5,43.5h7v7h-7V43.5z
	 M533.5,72.5h7v7h-7V72.5z M533.5,87h7v7h-7V87z M533.5,94.3h7v7h-7V94.3z M533.5,123.3h7v7h-7V123.3z M533.5,152.3h7v7h-7V152.3z
	 M533.5,166.9h7v7h-7V166.9z M533.5,195.9h7v7h-7V195.9z M533.5,210.4h7v7h-7V210.4z M533.5,224.9h7v7h-7V224.9z M533.5,239.5h7v7
	h-7V239.5z M533.5,246.7h7v7h-7V246.7z M533.5,254h7v7h-7V254z M533.5,261.3h7v7h-7V261.3z M533.5,268.5h7v7h-7V268.5z M533.5,275.8
	h7v7h-7V275.8z M533.5,283h7v7h-7V283z M533.5,290.3h7v7h-7V290.3z M533.5,297.5h7v7h-7V297.5z M533.5,304.8h7v7h-7V304.8z
	 M533.5,312.1h7v7h-7V312.1z M533.5,319.3h7v7h-7V319.3z M533.5,326.6h7v7h-7V326.6z M533.5,333.9h7v7h-7V333.9z M533.5,341.1h7v7
	h-7V341.1z M533.5,348.4h7v7h-7V348.4z M533.5,355.6h7v7h-7V355.6z M533.5,362.9h7v7h-7V362.9z M533.5,370.1h7v7h-7V370.1z
	 M533.5,377.4h7v7h-7V377.4z M468.2,391.9h7v7h-7V391.9z M468.2,399.2h7v7h-7V399.2z M468.2,406.5h7v7h-7V406.5z M468.2,413.7h7v7
	h-7V413.7z M468.2,421h7v7h-7V421z M468.2,428.2h7v7h-7V428.2z M468.2,435.5h7v7h-7V435.5z M468.2,442.7h7v7h-7V442.7z M468.2,450h7
	v7h-7V450z M475.5,384.7h7v7h-7V384.7z M475.5,391.9h7v7h-7V391.9z M475.5,399.2h7v7h-7V399.2z M475.5,406.5h7v7h-7V406.5z
	 M475.5,413.7h7v7h-7V413.7z M475.5,421h7v7h-7V421z M475.5,428.2h7v7h-7V428.2z M475.5,435.5h7v7h-7V435.5z M475.5,442.7h7v7h-7
	V442.7z M475.5,450h7v7h-7V450z M482.7,384.7h7v7h-7V384.7z M482.7,391.9h7v7h-7V391.9z M482.7,399.2h7v7h-7V399.2z M482.7,406.5h7
	v7h-7V406.5z M482.7,413.7h7v7h-7V413.7z M482.7,421h7v7h-7V421z M482.7,428.2h7v7h-7V428.2z M482.7,435.5h7v7h-7V435.5z
	 M482.7,442.7h7v7h-7V442.7z M490,384.7h7v7h-7V384.7z M490,391.9h7v7h-7V391.9z M490,399.2h7v7h-7V399.2z M490,406.5h7v7h-7V406.5z
	 M490,413.7h7v7h-7V413.7z M490,421h7v7h-7V421z M490,428.2h7v7h-7V428.2z M490,435.5h7v7h-7V435.5z M497.2,384.7h7v7h-7V384.7z
	 M497.2,391.9h7v7h-7V391.9z M497.2,399.2h7v7h-7V399.2z M497.2,406.5h7v7h-7V406.5z M497.2,413.7h7v7h-7V413.7z M497.2,421h7v7h-7
	V421z M497.2,428.2h7v7h-7V428.2z M504.5,384.7h7v7h-7V384.7z M504.5,391.9h7v7h-7V391.9z M504.5,399.2h7v7h-7V399.2z M504.5,406.5
	h7v7h-7V406.5z M504.5,413.7h7v7h-7V413.7z M504.5,421h7v7h-7V421z M504.5,428.2h7v7h-7V428.2z M511.8,384.7h7v7h-7V384.7z
	 M511.8,391.9h7v7h-7V391.9z M511.8,399.2h7v7h-7V399.2z M511.8,406.5h7v7h-7V406.5z M511.8,413.7h7v7h-7V413.7z M511.8,421h7v7h-7
	V421z M519,384.7h7v7h-7V384.7z M519,391.9h7v7h-7V391.9z M519,399.2h7v7h-7V399.2z M519,406.5h7v7h-7V406.5z M519,413.7h7v7h-7
	V413.7z M526.3,384.7h7v7h-7V384.7z M526.3,391.9h7v7h-7V391.9z M526.3,399.2h7v7h-7V399.2z M526.3,406.5h7v7h-7V406.5z
	 M533.5,384.7h7v7h-7V384.7z M533.5,391.9h7v7h-7V391.9z M533.5,399.2h7v7h-7V399.2z M468.2,457.3h7v7h-7V457.3z M468.2,573.4h7v7
	h-7V573.4z M468.2,580.7h7v7h-7V580.7z M475.5,573.4h7v7h-7V573.4z M475.5,580.7h7v7h-7V580.7z M482.7,573.4h7v7h-7V573.4z
	 M482.7,580.7h7v7h-7V580.7z M490,573.4h7v7h-7V573.4z M490,580.7h7v7h-7V580.7z M497.2,573.4h7v7h-7V573.4z M497.2,580.7h7v7h-7
	V580.7z M504.5,580.7h7v7h-7V580.7z M511.8,580.7h7v7h-7V580.7z M519,580.7h7v7h-7V580.7z M526.3,580.7h7v7h-7V580.7z M533.5,580.7
	h7v7h-7V580.7z M540.8,50.7h7v7h-7V50.7z M540.8,65.2h7v7h-7V65.2z M540.8,79.8h7v7h-7V79.8z M540.8,87h7v7h-7V87z M540.8,94.3h7v7
	h-7V94.3z M540.8,145.1h7v7h-7V145.1z M540.8,159.6h7v7h-7V159.6z M540.8,174.1h7v7h-7V174.1z M540.8,188.7h7v7h-7V188.7z
	 M540.8,203.2h7v7h-7V203.2z M540.8,217.7h7v7h-7V217.7z M540.8,232.2h7v7h-7V232.2z M540.8,239.5h7v7h-7V239.5z M540.8,246.7h7v7
	h-7V246.7z M540.8,254h7v7h-7V254z M540.8,261.3h7v7h-7V261.3z M540.8,268.5h7v7h-7V268.5z M540.8,283h7v7h-7V283z M540.8,297.5h7v7
	h-7V297.5z M540.8,304.8h7v7h-7V304.8z M540.8,312.1h7v7h-7V312.1z M540.8,319.3h7v7h-7V319.3z M540.8,326.6h7v7h-7V326.6z
	 M540.8,333.9h7v7h-7V333.9z M540.8,341.1h7v7h-7V341.1z M540.8,348.4h7v7h-7V348.4z M540.8,355.6h7v7h-7V355.6z M540.8,362.9h7v7
	h-7V362.9z M540.8,370.1h7v7h-7V370.1z M540.8,377.4h7v7h-7V377.4z M548.1,50.7h7v7h-7V50.7z M548.1,72.5h7v7h-7V72.5z M548.1,87h7
	v7h-7V87z M548.1,94.3h7v7h-7V94.3z M548.1,101.5h7v7h-7V101.5z M548.1,123.3h7v7h-7V123.3z M548.1,130.6h7v7h-7V130.6z
	 M548.1,152.3h7v7h-7V152.3z M548.1,166.9h7v7h-7V166.9z M548.1,181.4h7v7h-7V181.4z M548.1,195.9h7v7h-7V195.9z M548.1,210.4h7v7
	h-7V210.4z M548.1,217.7h7v7h-7V217.7z M548.1,224.9h7v7h-7V224.9z M548.1,232.2h7v7h-7V232.2z M548.1,239.5h7v7h-7V239.5z
	 M548.1,246.7h7v7h-7V246.7z M548.1,254h7v7h-7V254z M548.1,261.3h7v7h-7V261.3z M548.1,275.8h7v7h-7V275.8z M548.1,290.3h7v7h-7
	V290.3z M548.1,304.8h7v7h-7V304.8z M548.1,312.1h7v7h-7V312.1z M548.1,319.3h7v7h-7V319.3z M548.1,326.6h7v7h-7V326.6z
	 M548.1,333.9h7v7h-7V333.9z M548.1,341.1h7v7h-7V341.1z M548.1,348.4h7v7h-7V348.4z M548.1,355.6h7v7h-7V355.6z M548.1,362.9h7v7
	h-7V362.9z M548.1,370.1h7v7h-7V370.1z M548.1,377.4h7v7h-7V377.4z M555.3,50.7h7v7h-7V50.7z M555.3,79.8h7v7h-7V79.8z M555.3,94.3
	h7v7h-7V94.3z M555.3,101.5h7v7h-7V101.5z M555.3,108.8h7v7h-7V108.8z M555.3,130.6h7v7h-7V130.6z M555.3,145.1h7v7h-7V145.1z
	 M555.3,159.6h7v7h-7V159.6z M555.3,174.1h7v7h-7V174.1z M555.3,188.7h7v7h-7V188.7z M555.3,203.2h7v7h-7V203.2z M555.3,210.4h7v7
	h-7V210.4z M555.3,217.7h7v7h-7V217.7z M555.3,224.9h7v7h-7V224.9z M555.3,232.2h7v7h-7V232.2z M555.3,239.5h7v7h-7V239.5z
	 M555.3,246.7h7v7h-7V246.7z M555.3,254h7v7h-7V254z M555.3,268.5h7v7h-7V268.5z M555.3,297.5h7v7h-7V297.5z M555.3,304.8h7v7h-7
	V304.8z M555.3,312.1h7v7h-7V312.1z M555.3,319.3h7v7h-7V319.3z M555.3,326.6h7v7h-7V326.6z M555.3,333.9h7v7h-7V333.9z
	 M555.3,341.1h7v7h-7V341.1z M555.3,348.4h7v7h-7V348.4z M555.3,355.6h7v7h-7V355.6z M555.3,362.9h7v7h-7V362.9z M555.3,370.1h7v7
	h-7V370.1z M555.3,377.4h7v7h-7V377.4z M562.6,58h7v7h-7V58z M562.6,87h7v7h-7V87z M562.6,94.3h7v7h-7V94.3z M562.6,101.5h7v7h-7
	V101.5z M562.6,108.8h7v7h-7V108.8z M562.6,116h7v7h-7V116z M562.6,123.3h7v7h-7V123.3z M562.6,137.8h7v7h-7V137.8z M562.6,152.3h7
	v7h-7V152.3z M562.6,166.9h7v7h-7V166.9z M562.6,174.1h7v7h-7V174.1z M562.6,181.4h7v7h-7V181.4z M562.6,188.7h7v7h-7V188.7z
	 M562.6,195.9h7v7h-7V195.9z M562.6,203.2h7v7h-7V203.2z M562.6,210.4h7v7h-7V210.4z M562.6,217.7h7v7h-7V217.7z M562.6,224.9h7v7
	h-7V224.9z M562.6,232.2h7v7h-7V232.2z M562.6,239.5h7v7h-7V239.5z M562.6,246.7h7v7h-7V246.7z M562.6,261.3h7v7h-7V261.3z
	 M562.6,275.8h7v7h-7V275.8z M562.6,304.8h7v7h-7V304.8z M562.6,312.1h7v7h-7V312.1z M562.6,319.3h7v7h-7V319.3z M562.6,326.6h7v7
	h-7V326.6z M562.6,333.9h7v7h-7V333.9z M562.6,341.1h7v7h-7V341.1z M562.6,348.4h7v7h-7V348.4z M562.6,355.6h7v7h-7V355.6z
	 M562.6,362.9h7v7h-7V362.9z M562.6,370.1h7v7h-7V370.1z M569.8,58h7v7h-7V58z M569.8,79.8h7v7h-7V79.8z M569.8,94.3h7v7h-7V94.3z
	 M569.8,101.5h7v7h-7V101.5z M569.8,108.8h7v7h-7V108.8z M569.8,116h7v7h-7V116z M569.8,123.3h7v7h-7V123.3z M569.8,130.6h7v7h-7
	V130.6z M569.8,145.1h7v7h-7V145.1z M569.8,159.6h7v7h-7V159.6z M569.8,166.9h7v7h-7V166.9z M569.8,174.1h7v7h-7V174.1z
	 M569.8,181.4h7v7h-7V181.4z M569.8,188.7h7v7h-7V188.7z M569.8,195.9h7v7h-7V195.9z M569.8,203.2h7v7h-7V203.2z M569.8,210.4h7v7
	h-7V210.4z M569.8,217.7h7v7h-7V217.7z M569.8,224.9h7v7h-7V224.9z M569.8,232.2h7v7h-7V232.2z M569.8,239.5h7v7h-7V239.5z
	 M569.8,246.7h7v7h-7V246.7z M569.8,254h7v7h-7V254z M569.8,268.5h7v7h-7V268.5z M569.8,297.5h7v7h-7V297.5z M569.8,312.1h7v7h-7
	V312.1z M569.8,319.3h7v7h-7V319.3z M569.8,326.6h7v7h-7V326.6z M569.8,333.9h7v7h-7V333.9z M569.8,341.1h7v7h-7V341.1z
	 M569.8,348.4h7v7h-7V348.4z M569.8,355.6h7v7h-7V355.6z M569.8,362.9h7v7h-7V362.9z M577.1,43.5h7v7h-7V43.5z M577.1,58h7v7h-7V58z
	 M577.1,87h7v7h-7V87z M577.1,94.3h7v7h-7V94.3z M577.1,101.5h7v7h-7V101.5z M577.1,108.8h7v7h-7V108.8z M577.1,116h7v7h-7V116z
	 M577.1,123.3h7v7h-7V123.3z M577.1,130.6h7v7h-7V130.6z M577.1,137.8h7v7h-7V137.8z M577.1,145.1h7v7h-7V145.1z M577.1,152.3h7v7
	h-7V152.3z M577.1,159.6h7v7h-7V159.6z M577.1,166.9h7v7h-7V166.9z M577.1,174.1h7v7h-7V174.1z M577.1,181.4h7v7h-7V181.4z
	 M577.1,188.7h7v7h-7V188.7z M577.1,195.9h7v7h-7V195.9z M577.1,203.2h7v7h-7V203.2z M577.1,210.4h7v7h-7V210.4z M577.1,217.7h7v7
	h-7V217.7z M577.1,224.9h7v7h-7V224.9z M577.1,232.2h7v7h-7V232.2z M577.1,239.5h7v7h-7V239.5z M577.1,246.7h7v7h-7V246.7z
	 M577.1,261.3h7v7h-7V261.3z M577.1,304.8h7v7h-7V304.8z M577.1,319.3h7v7h-7V319.3z M577.1,326.6h7v7h-7V326.6z M577.1,333.9h7v7
	h-7V333.9z M577.1,341.1h7v7h-7V341.1z M577.1,348.4h7v7h-7V348.4z M577.1,355.6h7v7h-7V355.6z M577.1,362.9h7v7h-7V362.9z
	 M584.4,58h7v7h-7V58z M584.4,65.2h7v7h-7V65.2z M584.4,79.8h7v7h-7V79.8z M584.4,94.3h7v7h-7V94.3z M584.4,101.5h7v7h-7V101.5z
	 M584.4,108.8h7v7h-7V108.8z M584.4,116h7v7h-7V116z M584.4,123.3h7v7h-7V123.3z M584.4,130.6h7v7h-7V130.6z M584.4,137.8h7v7h-7
	V137.8z M584.4,145.1h7v7h-7V145.1z M584.4,152.3h7v7h-7V152.3z M584.4,159.6h7v7h-7V159.6z M584.4,166.9h7v7h-7V166.9z
	 M584.4,174.1h7v7h-7V174.1z M584.4,181.4h7v7h-7V181.4z M584.4,188.7h7v7h-7V188.7z M584.4,195.9h7v7h-7V195.9z M584.4,203.2h7v7
	h-7V203.2z M584.4,210.4h7v7h-7V210.4z M584.4,217.7h7v7h-7V217.7z M584.4,224.9h7v7h-7V224.9z M584.4,232.2h7v7h-7V232.2z
	 M584.4,239.5h7v7h-7V239.5z M584.4,246.7h7v7h-7V246.7z M584.4,254h7v7h-7V254z M584.4,268.5h7v7h-7V268.5z M584.4,297.5h7v7h-7
	V297.5z M584.4,312.1h7v7h-7V312.1z M584.4,319.3h7v7h-7V319.3z M584.4,326.6h7v7h-7V326.6z M584.4,333.9h7v7h-7V333.9z
	 M584.4,341.1h7v7h-7V341.1z M584.4,348.4h7v7h-7V348.4z M584.4,355.6h7v7h-7V355.6z M584.4,362.9h7v7h-7V362.9z M591.6,43.5h7v7h-7
	V43.5z M591.6,65.2h7v7h-7V65.2z M591.6,87h7v7h-7V87z M591.6,101.5h7v7h-7V101.5z M591.6,108.8h7v7h-7V108.8z M591.6,116h7v7h-7
	V116z M591.6,123.3h7v7h-7V123.3z M591.6,130.6h7v7h-7V130.6z M591.6,137.8h7v7h-7V137.8z M591.6,145.1h7v7h-7V145.1z M591.6,152.3
	h7v7h-7V152.3z M591.6,159.6h7v7h-7V159.6z M591.6,166.9h7v7h-7V166.9z M591.6,174.1h7v7h-7V174.1z M591.6,181.4h7v7h-7V181.4z
	 M591.6,188.7h7v7h-7V188.7z M591.6,195.9h7v7h-7V195.9z M591.6,203.2h7v7h-7V203.2z M591.6,210.4h7v7h-7V210.4z M591.6,224.9h7v7
	h-7V224.9z M591.6,239.5h7v7h-7V239.5z M591.6,254h7v7h-7V254z M591.6,261.3h7v7h-7V261.3z M591.6,304.8h7v7h-7V304.8z M591.6,319.3
	h7v7h-7V319.3z M591.6,326.6h7v7h-7V326.6z M591.6,333.9h7v7h-7V333.9z M591.6,341.1h7v7h-7V341.1z M591.6,348.4h7v7h-7V348.4z
	 M591.6,355.6h7v7h-7V355.6z M591.6,362.9h7v7h-7V362.9z M598.9,14.4h7v7h-7V14.4z M598.9,58h7v7h-7V58z M598.9,65.2h7v7h-7V65.2z
	 M598.9,94.3h7v7h-7V94.3z M598.9,101.5h7v7h-7V101.5z M598.9,108.8h7v7h-7V108.8z M598.9,116h7v7h-7V116z M598.9,123.3h7v7h-7
	V123.3z M598.9,130.6h7v7h-7V130.6z M598.9,137.8h7v7h-7V137.8z M598.9,145.1h7v7h-7V145.1z M598.9,152.3h7v7h-7V152.3z
	 M598.9,159.6h7v7h-7V159.6z M598.9,166.9h7v7h-7V166.9z M598.9,174.1h7v7h-7V174.1z M598.9,181.4h7v7h-7V181.4z M598.9,188.7h7v7
	h-7V188.7z M598.9,195.9h7v7h-7V195.9z M598.9,203.2h7v7h-7V203.2z M598.9,210.4h7v7h-7V210.4z M598.9,217.7h7v7h-7V217.7z
	 M598.9,232.2h7v7h-7V232.2z M598.9,246.7h7v7h-7V246.7z M598.9,261.3h7v7h-7V261.3z M598.9,268.5h7v7h-7V268.5z M598.9,297.5h7v7
	h-7V297.5z M598.9,312.1h7v7h-7V312.1z M598.9,319.3h7v7h-7V319.3z M598.9,326.6h7v7h-7V326.6z M598.9,333.9h7v7h-7V333.9z
	 M598.9,341.1h7v7h-7V341.1z M598.9,348.4h7v7h-7V348.4z M598.9,355.6h7v7h-7V355.6z M598.9,362.9h7v7h-7V362.9z M606.1,43.5h7v7h-7
	V43.5z M606.1,65.2h7v7h-7V65.2z M606.1,101.5h7v7h-7V101.5z M606.1,108.8h7v7h-7V108.8z M606.1,116h7v7h-7V116z M606.1,123.3h7v7
	h-7V123.3z M606.1,130.6h7v7h-7V130.6z M606.1,137.8h7v7h-7V137.8z M606.1,145.1h7v7h-7V145.1z M606.1,152.3h7v7h-7V152.3z
	 M606.1,159.6h7v7h-7V159.6z M606.1,166.9h7v7h-7V166.9z M606.1,174.1h7v7h-7V174.1z M606.1,181.4h7v7h-7V181.4z M606.1,188.7h7v7
	h-7V188.7z M606.1,195.9h7v7h-7V195.9z M606.1,210.4h7v7h-7V210.4z M606.1,217.7h7v7h-7V217.7z M606.1,224.9h7v7h-7V224.9z
	 M606.1,239.5h7v7h-7V239.5z M606.1,254h7v7h-7V254z M606.1,261.3h7v7h-7V261.3z M606.1,275.8h7v7h-7V275.8z M606.1,304.8h7v7h-7
	V304.8z M606.1,319.3h7v7h-7V319.3z M606.1,326.6h7v7h-7V326.6z M606.1,333.9h7v7h-7V333.9z M606.1,341.1h7v7h-7V341.1z
	 M606.1,348.4h7v7h-7V348.4z M606.1,355.6h7v7h-7V355.6z M606.1,362.9h7v7h-7V362.9z M540.8,384.7h7v7h-7V384.7z M540.8,391.9h7v7
	h-7V391.9z M540.8,399.2h7v7h-7V399.2z M548.1,384.7h7v7h-7V384.7z M548.1,391.9h7v7h-7V391.9z M555.3,384.7h7v7h-7V384.7z
	 M606.1,450h7v7h-7V450z M577.1,479.1h7v7h-7V479.1z M577.1,486.3h7v7h-7V486.3z M577.1,493.6h7v7h-7V493.6z M577.1,500.8h7v7h-7
	V500.8z M584.4,471.8h7v7h-7V471.8z M584.4,486.3h7v7h-7V486.3z M584.4,493.6h7v7h-7V493.6z M584.4,500.8h7v7h-7V500.8z
	 M584.4,508.1h7v7h-7V508.1z M591.6,464.5h7v7h-7V464.5z M591.6,479.1h7v7h-7V479.1z M591.6,486.3h7v7h-7V486.3z M591.6,493.6h7v7
	h-7V493.6z M591.6,500.8h7v7h-7V500.8z M591.6,508.1h7v7h-7V508.1z M591.6,515.3h7v7h-7V515.3z M598.9,464.5h7v7h-7V464.5z
	 M598.9,471.8h7v7h-7V471.8z M598.9,479.1h7v7h-7V479.1z M598.9,486.3h7v7h-7V486.3z M598.9,493.6h7v7h-7V493.6z M598.9,500.8h7v7
	h-7V500.8z M598.9,508.1h7v7h-7V508.1z M598.9,515.3h7v7h-7V515.3z M598.9,522.6h7v7h-7V522.6z M606.1,457.3h7v7h-7V457.3z
	 M606.1,471.8h7v7h-7V471.8z M606.1,479.1h7v7h-7V479.1z M606.1,486.3h7v7h-7V486.3z M606.1,493.6h7v7h-7V493.6z M606.1,500.8h7v7
	h-7V500.8z M606.1,508.1h7v7h-7V508.1z M606.1,515.3h7v7h-7V515.3z M606.1,522.6h7v7h-7V522.6z M540.8,580.7h7v7h-7V580.7z
	 M548.1,580.7h7v7h-7V580.7z M555.3,580.7h7v7h-7V580.7z M562.6,580.7h7v7h-7V580.7z M569.8,580.7h7v7h-7V580.7z M577.1,580.7h7v7
	h-7V580.7z M584.4,580.7h7v7h-7V580.7z M591.6,580.7h7v7h-7V580.7z M598.9,580.7h7v7h-7V580.7z M606.1,529.9h7v7h-7V529.9z
	 M606.1,580.7h7v7h-7V580.7z M613.4,14.4h7v7h-7V14.4z M613.4,58h7v7h-7V58z M613.4,65.2h7v7h-7V65.2z M613.4,94.3h7v7h-7V94.3z
	 M613.4,108.8h7v7h-7V108.8z M613.4,116h7v7h-7V116z M613.4,123.3h7v7h-7V123.3z M613.4,130.6h7v7h-7V130.6z M613.4,137.8h7v7h-7
	V137.8z M613.4,145.1h7v7h-7V145.1z M613.4,152.3h7v7h-7V152.3z M613.4,159.6h7v7h-7V159.6z M613.4,166.9h7v7h-7V166.9z
	 M613.4,174.1h7v7h-7V174.1z M613.4,181.4h7v7h-7V181.4z M613.4,188.7h7v7h-7V188.7z M613.4,195.9h7v7h-7V195.9z M613.4,203.2h7v7
	h-7V203.2z M613.4,217.7h7v7h-7V217.7z M613.4,232.2h7v7h-7V232.2z M613.4,246.7h7v7h-7V246.7z M613.4,254h7v7h-7V254z M613.4,275.8
	h7v7h-7V275.8z M613.4,297.5h7v7h-7V297.5z M613.4,312.1h7v7h-7V312.1z M613.4,319.3h7v7h-7V319.3z M613.4,326.6h7v7h-7V326.6z
	 M613.4,333.9h7v7h-7V333.9z M613.4,341.1h7v7h-7V341.1z M613.4,348.4h7v7h-7V348.4z M613.4,355.6h7v7h-7V355.6z M613.4,362.9h7v7
	h-7V362.9z M620.7,43.5h7v7h-7V43.5z M620.7,65.2h7v7h-7V65.2z M620.7,101.5h7v7h-7V101.5z M620.7,116h7v7h-7V116z M620.7,123.3h7v7
	h-7V123.3z M620.7,130.6h7v7h-7V130.6z M620.7,137.8h7v7h-7V137.8z M620.7,145.1h7v7h-7V145.1z M620.7,152.3h7v7h-7V152.3z
	 M620.7,159.6h7v7h-7V159.6z M620.7,166.9h7v7h-7V166.9z M620.7,174.1h7v7h-7V174.1z M620.7,188.7h7v7h-7V188.7z M620.7,195.9h7v7
	h-7V195.9z M620.7,203.2h7v7h-7V203.2z M620.7,210.4h7v7h-7V210.4z M620.7,224.9h7v7h-7V224.9z M620.7,232.2h7v7h-7V232.2z
	 M620.7,239.5h7v7h-7V239.5z M620.7,246.7h7v7h-7V246.7z M620.7,275.8h7v7h-7V275.8z M620.7,304.8h7v7h-7V304.8z M620.7,319.3h7v7
	h-7V319.3z M620.7,326.6h7v7h-7V326.6z M620.7,333.9h7v7h-7V333.9z M620.7,341.1h7v7h-7V341.1z M620.7,348.4h7v7h-7V348.4z
	 M620.7,355.6h7v7h-7V355.6z M620.7,362.9h7v7h-7V362.9z M627.9,14.4h7v7h-7V14.4z M627.9,36.2h7v7h-7V36.2z M627.9,50.7h7v7h-7
	V50.7z M627.9,58h7v7h-7V58z M627.9,65.2h7v7h-7V65.2z M627.9,72.5h7v7h-7V72.5z M627.9,108.8h7v7h-7V108.8z M627.9,123.3h7v7h-7
	V123.3z M627.9,130.6h7v7h-7V130.6z M627.9,137.8h7v7h-7V137.8z M627.9,145.1h7v7h-7V145.1z M627.9,152.3h7v7h-7V152.3z
	 M627.9,166.9h7v7h-7V166.9z M627.9,181.4h7v7h-7V181.4z M627.9,195.9h7v7h-7V195.9z M627.9,203.2h7v7h-7V203.2z M627.9,217.7h7v7
	h-7V217.7z M627.9,232.2h7v7h-7V232.2z M627.9,239.6h7v7h-7V239.6z M635.2,239.6h7v7h-7V239.6z M627.9,275.8h7v7h-7V275.8z
	 M627.9,312.1h7v7h-7V312.1z M627.9,319.3h7v7h-7V319.3z M627.9,326.6h7v7h-7V326.6z M627.9,333.9h7v7h-7V333.9z M627.9,341.1h7v7
	h-7V341.1z M627.9,348.4h7v7h-7V348.4z M627.9,355.6h7v7h-7V355.6z M627.9,362.9h7v7h-7V362.9z M635.2,43.5h7v7h-7V43.5z
	 M635.2,50.7h7v7h-7V50.7z M635.2,65.2h7v7h-7V65.2z M635.2,79.8h7v7h-7V79.8z M635.2,116h7v7h-7V116z M635.2,123.3h7v7h-7V123.3z
	 M635.2,137.8h7v7h-7V137.8z M635.2,145.1h7v7h-7V145.1z M635.2,159.6h7v7h-7V159.6z M635.2,203.2h7v7h-7V203.2z M635.2,210.4h7v7
	h-7V210.4z M635.2,224.9h7v7h-7V224.9z M635.2,275.8h7v7h-7V275.8z M635.2,319.3h7v7h-7V319.3z M635.2,326.6h7v7h-7V326.6z
	 M635.2,333.9h7v7h-7V333.9z M635.2,341.1h7v7h-7V341.1z M635.2,348.4h7v7h-7V348.4z M635.2,355.6h7v7h-7V355.6z M642.4,14.4h7v7h-7
	V14.4z M642.4,36.2h7v7h-7V36.2z M642.4,58h7v7h-7V58z M642.4,65.2h7v7h-7V65.2z M642.4,72.5h7v7h-7V72.5z M642.4,87h7v7h-7V87z
	 M642.4,130.6h7v7h-7V130.6z M642.4,145.1h7v7h-7V145.1z M642.4,203.2h7v7h-7V203.2z M642.4,210.4h7v7h-7V210.4z M642.4,217.7h7v7
	h-7V217.7z M642.4,232.2h7v7h-7V232.2z M642.4,275.8h7v7h-7V275.8z M642.4,312.1h7v7h-7V312.1z M642.4,326.6h7v7h-7V326.6z
	 M642.4,333.9h7v7h-7V333.9z M642.4,341.1h7v7h-7V341.1z M642.4,348.4h7v7h-7V348.4z M642.4,355.6h7v7h-7V355.6z M649.7,43.5h7v7h-7
	V43.5z M649.7,50.7h7v7h-7V50.7z M649.7,65.2h7v7h-7V65.2z M649.7,79.8h7v7h-7V79.8z M649.7,94.3h7v7h-7V94.3z M649.7,137.8h7v7h-7
	V137.8z M649.7,195.9h7v7h-7V195.9z M649.7,210.4h7v7h-7V210.4z M649.7,217.7h7v7h-7V217.7z M649.7,224.9h7v7h-7V224.9z M649.7,283
	h7v7h-7V283z M649.7,319.3h7v7h-7V319.3z M649.7,326.6h7v7h-7V326.6z M649.7,333.9h7v7h-7V333.9z M649.7,341.1h7v7h-7V341.1z
	 M649.7,348.4h7v7h-7V348.4z M649.7,355.6h7v7h-7V355.6z M649.7,377.4h7v7h-7V377.4z M657,14.4h7v7h-7V14.4z M657,36.2h7v7h-7V36.2z
	 M657,58h7v7h-7V58z M657,72.5h7v7h-7V72.5z M657,87h7v7h-7V87z M657,94.3h7v7h-7V94.3z M657,108.8h7v7h-7V108.8z M657,123.3h7v7h-7
	V123.3z M657,188.7h7v7h-7V188.7z M657,217.7h7v7h-7V217.7z M657,283h7v7h-7V283z M657,312.1h7v7h-7V312.1z M657,326.6h7v7h-7V326.6
	z M657,333.9h7v7h-7V333.9z M657,341.1h7v7h-7V341.1z M657,348.4h7v7h-7V348.4z M657,355.6h7v7h-7V355.6z M657,370.1h7v7h-7V370.1z
	 M664.2,28.9h7v7h-7V28.9z M664.2,43.5h7v7h-7V43.5z M664.2,50.7h7v7h-7V50.7z M664.2,65.2h7v7h-7V65.2z M664.2,79.8h7v7h-7V79.8z
	 M664.2,94.3h7v7h-7V94.3z M664.2,101.5h7v7h-7V101.5z M664.2,116h7v7h-7V116z M664.2,130.6h7v7h-7V130.6z M664.2,217.7h7v7h-7
	V217.7z M664.2,283h7v7h-7V283z M664.2,319.3h7v7h-7V319.3z M664.2,326.6h7v7h-7V326.6z M664.2,333.9h7v7h-7V333.9z M664.2,341.1h7
	v7h-7V341.1z M664.2,348.4h7v7h-7V348.4z M664.2,355.6h7v7h-7V355.6z M664.2,362.9h7v7h-7V362.9z M664.2,377.4h7v7h-7V377.4z
	 M671.5,14.4h7v7h-7V14.4z M671.5,21.7h7v7h-7V21.7z M671.5,28.9h7v7h-7V28.9z M671.5,36.2h7v7h-7V36.2z M671.5,50.7h7v7h-7V50.7z
	 M671.5,58h7v7h-7V58z M671.5,65.2h7v7h-7V65.2z M671.5,72.5h7v7h-7V72.5z M671.5,79.8h7v7h-7V79.8z M671.5,87h7v7h-7V87z
	 M671.5,94.3h7v7h-7V94.3z M671.5,108.8h7v7h-7V108.8z M671.5,123.3h7v7h-7V123.3z M671.5,137.8h7v7h-7V137.8z M671.5,152.3h7v7h-7
	V152.3z M671.5,159.6h7v7h-7V159.6z M671.5,210.4h7v7h-7V210.4z M671.5,283h7v7h-7V283z M671.5,326.6h7v7h-7V326.6z M671.5,333.9h7
	v7h-7V333.9z M671.5,341.1h7v7h-7V341.1z M671.5,348.4h7v7h-7V348.4z M671.5,355.6h7v7h-7V355.6z M671.5,370.1h7v7h-7V370.1z
	 M678.7,21.7h7v7h-7V21.7z M678.7,36.2h7v7h-7V36.2z M678.7,43.5h7v7h-7V43.5z M678.7,50.7h7v7h-7V50.7z M678.7,58h7v7h-7V58z
	 M678.7,65.2h7v7h-7V65.2z M678.7,72.5h7v7h-7V72.5z M678.7,79.8h7v7h-7V79.8z M678.7,87h7v7h-7V87z M678.7,94.3h7v7h-7V94.3z
	 M678.7,101.5h7v7h-7V101.5z M678.7,116h7v7h-7V116z M678.7,130.6h7v7h-7V130.6z M678.7,145.1h7v7h-7V145.1z M678.7,152.3h7v7h-7
	V152.3z M678.7,159.6h7v7h-7V159.6z M678.7,166.9h7v7h-7V166.9z M678.7,203.2h7v7h-7V203.2z M678.7,210.4h7v7h-7V210.4z
	 M678.7,217.7h7v7h-7V217.7z M678.7,290.3h7v7h-7V290.3z M678.7,319.3h7v7h-7V319.3z M678.7,333.9h7v7h-7V333.9z M678.7,341.1h7v7
	h-7V341.1z M678.7,348.4h7v7h-7V348.4z M678.7,362.9h7v7h-7V362.9z M678.7,377.4h7v7h-7V377.4z M613.4,442.7h7v7h-7V442.7z
	 M620.7,435.5h7v7h-7V435.5z M620.7,450h7v7h-7V450z M627.9,421h7v7h-7V421z M627.9,428.2h7v7h-7V428.2z M627.9,442.7h7v7h-7V442.7z
	 M627.9,450h7v7h-7V450z M635.2,413.7h7v7h-7V413.7z M635.2,428.2h7v7h-7V428.2z M635.2,435.5h7v7h-7V435.5z M635.2,442.7h7v7h-7
	V442.7z M635.2,450h7v7h-7V450z M642.4,384.7h7v7h-7V384.7z M642.4,399.2h7v7h-7V399.2z M642.4,413.7h7v7h-7V413.7z M642.4,421h7v7
	h-7V421z M642.4,428.2h7v7h-7V428.2z M642.4,435.5h7v7h-7V435.5z M642.4,442.7h7v7h-7V442.7z M642.4,450h7v7h-7V450z M649.7,391.9h7
	v7h-7V391.9z M649.7,406.5h7v7h-7V406.5z M649.7,413.7h7v7h-7V413.7z M649.7,421h7v7h-7V421z M649.7,428.2h7v7h-7V428.2z
	 M649.7,435.5h7v7h-7V435.5z M649.7,442.7h7v7h-7V442.7z M649.7,450h7v7h-7V450z M657,384.7h7v7h-7V384.7z M657,391.9h7v7h-7V391.9z
	 M657,399.2h7v7h-7V399.2z M657,406.5h7v7h-7V406.5z M657,413.7h7v7h-7V413.7z M657,421h7v7h-7V421z M657,428.2h7v7h-7V428.2z
	 M657,435.5h7v7h-7V435.5z M657,442.7h7v7h-7V442.7z M664.2,391.9h7v7h-7V391.9z M664.2,399.2h7v7h-7V399.2z M664.2,406.5h7v7h-7
	V406.5z M664.2,413.7h7v7h-7V413.7z M664.2,421h7v7h-7V421z M664.2,428.2h7v7h-7V428.2z M664.2,435.5h7v7h-7V435.5z M664.2,450h7v7
	h-7V450z M671.5,384.7h7v7h-7V384.7z M671.5,391.9h7v7h-7V391.9z M671.5,399.2h7v7h-7V399.2z M671.5,406.5h7v7h-7V406.5z
	 M671.5,413.7h7v7h-7V413.7z M671.5,421h7v7h-7V421z M671.5,428.2h7v7h-7V428.2z M671.5,442.7h7v7h-7V442.7z M678.7,384.7h7v7h-7
	V384.7z M678.7,391.9h7v7h-7V391.9z M678.7,399.2h7v7h-7V399.2z M678.7,406.5h7v7h-7V406.5z M678.7,413.7h7v7h-7V413.7z M678.7,421
	h7v7h-7V421z M678.7,435.5h7v7h-7V435.5z M613.4,457.3h7v7h-7V457.3z M613.4,464.5h7v7h-7V464.5z M613.4,471.8h7v7h-7V471.8z
	 M613.4,479.1h7v7h-7V479.1z M613.4,486.3h7v7h-7V486.3z M613.4,493.6h7v7h-7V493.6z M613.4,500.8h7v7h-7V500.8z M613.4,508.1h7v7
	h-7V508.1z M613.4,515.3h7v7h-7V515.3z M613.4,522.6h7v7h-7V522.6z M620.7,457.3h7v7h-7V457.3z M620.7,464.5h7v7h-7V464.5z
	 M620.7,471.8h7v7h-7V471.8z M620.7,479.1h7v7h-7V479.1z M620.7,486.3h7v7h-7V486.3z M620.7,493.6h7v7h-7V493.6z M620.7,508.1h7v7
	h-7V508.1z M620.7,522.6h7v7h-7V522.6z M627.9,457.3h7v7h-7V457.3z M627.9,464.5h7v7h-7V464.5z M627.9,471.8h7v7h-7V471.8z
	 M627.9,479.1h7v7h-7V479.1z M627.9,486.3h7v7h-7V486.3z M627.9,500.8h7v7h-7V500.8z M627.9,515.3h7v7h-7V515.3z M635.2,457.3h7v7
	h-7V457.3z M635.2,464.5h7v7h-7V464.5z M635.2,471.8h7v7h-7V471.8z M635.2,479.1h7v7h-7V479.1z M635.2,493.6h7v7h-7V493.6z
	 M635.2,508.1h7v7h-7V508.1z M635.2,522.6h7v7h-7V522.6z M642.4,457.3h7v7h-7V457.3z M642.4,471.8h7v7h-7V471.8z M642.4,479.1h7v7
	h-7V479.1z M642.4,486.3h7v7h-7V486.3z M642.4,493.6h7v7h-7V493.6z M642.4,500.8h7v7h-7V500.8z M642.4,508.1h7v7h-7V508.1z
	 M642.4,515.3h7v7h-7V515.3z M642.4,522.6h7v7h-7V522.6z M649.7,464.5h7v7h-7V464.5z M657,457.3h7v7h-7V457.3z M613.4,529.9h7v7h-7
	V529.9z M613.4,537.1h7v7h-7V537.1z M613.4,580.7h7v7h-7V580.7z M620.7,529.9h7v7h-7V529.9z M620.7,537.1h7v7h-7V537.1z
	 M620.7,544.4h7v7h-7V544.4z M620.7,580.7h7v7h-7V580.7z M627.9,529.9h7v7h-7V529.9z M627.9,537.1h7v7h-7V537.1z M627.9,544.4h7v7
	h-7V544.4z M627.9,551.7h7v7h-7V551.7z M627.9,580.7h7v7h-7V580.7z M635.2,537.1h7v7h-7V537.1z M635.2,544.4h7v7h-7V544.4z
	 M635.2,551.7h7v7h-7V551.7z M635.2,558.9h7v7h-7V558.9z M635.2,580.7h7v7h-7V580.7z M642.4,529.9h7v7h-7V529.9z M642.4,544.4h7v7
	h-7V544.4z M642.4,558.9h7v7h-7V558.9z M642.4,580.7h7v7h-7V580.7z M649.7,529.9h7v7h-7V529.9z M649.7,551.7h7v7h-7V551.7z
	 M649.7,558.9h7v7h-7V558.9z M657,537.1h7v7h-7V537.1z M657,544.4h7v7h-7V544.4z M657,558.9h7v7h-7V558.9z M657,580.7h7v7h-7V580.7z
	 M664.2,544.4h7v7h-7V544.4z M664.2,551.7h7v7h-7V551.7z M664.2,558.9h7v7h-7V558.9z M664.2,580.7h7v7h-7V580.7z M671.5,580.7h7v7
	h-7V580.7z M678.7,580.7h7v7h-7V580.7z M686,14.4h7v7h-7V14.4z M686,28.9h7v7h-7V28.9z M686,36.2h7v7h-7V36.2z M686,43.5h7v7h-7
	V43.5z M686,50.7h7v7h-7V50.7z M686,58h7v7h-7V58z M686,65.2h7v7h-7V65.2z M686,72.5h7v7h-7V72.5z M686,79.8h7v7h-7V79.8z M686,87h7
	v7h-7V87z M686,94.3h7v7h-7V94.3z M686,101.5h7v7h-7V101.5z M686,108.8h7v7h-7V108.8z M686,123.3h7v7h-7V123.3z M686,137.8h7v7h-7
	V137.8z M686,145.1h7v7h-7V145.1z M686,152.3h7v7h-7V152.3z M686,159.6h7v7h-7V159.6z M686,166.9h7v7h-7V166.9z M686,174.1h7v7h-7
	V174.1z M686,181.4h7v7h-7V181.4z M686,188.7h7v7h-7V188.7z M686,195.9h7v7h-7V195.9z M686,203.2h7v7h-7V203.2z M686,210.4h7v7h-7
	V210.4z M686,217.7h7v7h-7V217.7z M686,224.9h7v7h-7V224.9z M686,290.3h7v7h-7V290.3z M686,326.6h7v7h-7V326.6z M686,341.1h7v7h-7
	V341.1z M686,348.4h7v7h-7V348.4z M686,355.6h7v7h-7V355.6z M686,370.1h7v7h-7V370.1z M693.3,7.1h7v7h-7V7.1z M693.3,21.7h7v7h-7
	V21.7z M693.3,36.2h7v7h-7V36.2z M693.3,43.5h7v7h-7V43.5z M693.3,50.7h7v7h-7V50.7z M693.3,58h7v7h-7V58z M693.3,65.2h7v7h-7V65.2z
	 M693.3,72.5h7v7h-7V72.5z M693.3,79.8h7v7h-7V79.8z M693.3,87h7v7h-7V87z M693.3,94.3h7v7h-7V94.3z M693.3,101.5h7v7h-7V101.5z
	 M693.3,108.8h7v7h-7V108.8z M693.3,116h7v7h-7V116z M693.3,130.6h7v7h-7V130.6z M693.3,137.8h7v7h-7V137.8z M693.3,145.1h7v7h-7
	V145.1z M693.3,152.3h7v7h-7V152.3z M693.3,159.6h7v7h-7V159.6z M693.3,166.9h7v7h-7V166.9z M693.3,174.1h7v7h-7V174.1z
	 M693.3,181.4h7v7h-7V181.4z M693.3,188.7h7v7h-7V188.7z M693.3,195.9h7v7h-7V195.9z M693.3,203.2h7v7h-7V203.2z M693.3,210.4h7v7
	h-7V210.4z M693.3,217.7h7v7h-7V217.7z M693.3,224.9h7v7h-7V224.9z M693.3,232.2h7v7h-7V232.2z M693.3,297.5h7v7h-7V297.5z
	 M693.3,333.9h7v7h-7V333.9z M693.3,341.1h7v7h-7V341.1z M693.3,348.4h7v7h-7V348.4z M693.3,362.9h7v7h-7V362.9z M693.3,377.4h7v7
	h-7V377.4z M700.5,7.1h7v7h-7V7.1z M700.5,28.9h7v7h-7V28.9z M700.5,43.5h7v7h-7V43.5z M700.5,58h7v7h-7V58z M700.5,72.5h7v7h-7
	V72.5z M700.5,87h7v7h-7V87z M700.5,101.5h7v7h-7V101.5z M700.5,108.8h7v7h-7V108.8z M700.5,116h7v7h-7V116z M700.5,123.3h7v7h-7
	V123.3z M700.5,130.6h7v7h-7V130.6z M700.5,137.8h7v7h-7V137.8z M700.5,152.3h7v7h-7V152.3z M700.5,159.6h7v7h-7V159.6z
	 M700.5,166.9h7v7h-7V166.9z M700.5,174.1h7v7h-7V174.1z M700.5,181.4h7v7h-7V181.4z M700.5,188.7h7v7h-7V188.7z M700.5,195.9h7v7
	h-7V195.9z M700.5,203.2h7v7h-7V203.2z M700.5,210.4h7v7h-7V210.4z M700.5,217.7h7v7h-7V217.7z M700.5,224.9h7v7h-7V224.9z
	 M700.5,232.2h7v7h-7V232.2z M700.5,239.5h7v7h-7V239.5z M700.5,297.5h7v7h-7V297.5z M700.5,326.6h7v7h-7V326.6z M700.5,341.1h7v7
	h-7V341.1z M700.5,355.6h7v7h-7V355.6z M700.5,370.1h7v7h-7V370.1z M700.5,377.4h7v7h-7V377.4z M707.8,7.1h7v7h-7V7.1z M707.8,50.7
	h7v7h-7V50.7z M707.8,65.2h7v7h-7V65.2z M707.8,79.8h7v7h-7V79.8z M707.8,94.3h7v7h-7V94.3z M707.8,108.8h7v7h-7V108.8z M707.8,116
	h7v7h-7V116z M707.8,123.3h7v7h-7V123.3z M707.8,130.6h7v7h-7V130.6z M707.8,137.8h7v7h-7V137.8z M707.8,145.1h7v7h-7V145.1z
	 M707.8,166.9h7v7h-7V166.9z M707.8,174.1h7v7h-7V174.1z M707.8,188.7h7v7h-7V188.7z M707.8,203.2h7v7h-7V203.2z M707.8,210.4h7v7
	h-7V210.4z M707.8,217.7h7v7h-7V217.7z M707.8,224.9h7v7h-7V224.9z M707.8,232.2h7v7h-7V232.2z M707.8,239.5h7v7h-7V239.5z
	 M707.8,246.7h7v7h-7V246.7z M707.8,304.8h7v7h-7V304.8z M707.8,333.9h7v7h-7V333.9z M707.8,341.1h7v7h-7V341.1z M707.8,348.4h7v7
	h-7V348.4z M707.8,362.9h7v7h-7V362.9z M707.8,370.1h7v7h-7V370.1z M707.8,377.4h7v7h-7V377.4z M715,7.1h7v7h-7V7.1z M715,101.5h7v7
	h-7V101.5z M715,116h7v7h-7V116z M715,123.3h7v7h-7V123.3z M715,130.6h7v7h-7V130.6z M715,137.8h7v7h-7V137.8z M715,152.3h7v7h-7
	V152.3z M715,195.9h7v7h-7V195.9z M715,210.4h7v7h-7V210.4z M715,217.7h7v7h-7V217.7z M715,224.9h7v7h-7V224.9z M715,232.2h7v7h-7
	V232.2z M715,239.5h7v7h-7V239.5z M715,246.7h7v7h-7V246.7z M715,254h7v7h-7V254z M715,304.8h7v7h-7V304.8z M715,341.1h7v7h-7V341.1
	z M715,355.6h7v7h-7V355.6z M715,362.9h7v7h-7V362.9z M715,370.1h7v7h-7V370.1z M715,377.4h7v7h-7V377.4z M722.3,7.1h7v7h-7V7.1z
	 M722.3,108.8h7v7h-7V108.8z M722.3,123.3h7v7h-7V123.3z M722.3,130.6h7v7h-7V130.6z M722.3,159.6h7v7h-7V159.6z M722.3,166.9h7v7
	h-7V166.9z M722.3,203.2h7v7h-7V203.2z M722.3,217.7h7v7h-7V217.7z M722.3,224.9h7v7h-7V224.9z M722.3,232.2h7v7h-7V232.2z
	 M722.3,239.5h7v7h-7V239.5z M722.3,246.7h7v7h-7V246.7z M722.3,254h7v7h-7V254z M722.3,261.3h7v7h-7V261.3z M722.3,304.8h7v7h-7
	V304.8z M722.3,348.4h7v7h-7V348.4z M722.3,355.6h7v7h-7V355.6z M722.3,362.9h7v7h-7V362.9z M722.3,377.4h7v7h-7V377.4z M729.6,7.1
	h7v7h-7V7.1z M729.6,116h7v7h-7V116z M729.6,130.6h7v7h-7V130.6z M729.6,174.1h7v7h-7V174.1z M729.6,181.4h7v7h-7V181.4z
	 M729.6,210.4h7v7h-7V210.4z M729.6,224.9h7v7h-7V224.9z M729.6,232.2h7v7h-7V232.2z M729.6,239.5h7v7h-7V239.5z M729.6,246.7h7v7
	h-7V246.7z M729.6,254h7v7h-7V254z M729.6,261.3h7v7h-7V261.3z M729.6,268.5h7v7h-7V268.5z M729.6,312.1h7v7h-7V312.1z M729.6,341.1
	h7v7h-7V341.1z M729.6,355.6h7v7h-7V355.6z M729.6,370.1h7v7h-7V370.1z M736.8,7.1h7v7h-7V7.1z M736.8,123.3h7v7h-7V123.3z
	 M736.8,130.6h7v7h-7V130.6z M736.8,137.8h7v7h-7V137.8z M736.8,188.7h7v7h-7V188.7z M736.8,217.7h7v7h-7V217.7z M736.8,232.2h7v7
	h-7V232.2z M736.8,239.5h7v7h-7V239.5z M736.8,246.7h7v7h-7V246.7z M736.8,254h7v7h-7V254z M736.8,261.3h7v7h-7V261.3z M736.8,268.5
	h7v7h-7V268.5z M736.8,319.3h7v7h-7V319.3z M736.8,348.4h7v7h-7V348.4z M736.8,362.9h7v7h-7V362.9z M736.8,377.4h7v7h-7V377.4z
	 M744.1,14.4h7v7h-7V14.4z M744.1,58h7v7h-7V58z M744.1,65.2h7v7h-7V65.2z M744.1,72.5h7v7h-7V72.5z M744.1,79.8h7v7h-7V79.8z
	 M744.1,87h7v7h-7V87z M744.1,94.3h7v7h-7V94.3z M744.1,137.8h7v7h-7V137.8z M744.1,195.9h7v7h-7V195.9z M744.1,203.2h7v7h-7V203.2z
	 M744.1,224.9h7v7h-7V224.9z M744.1,239.5h7v7h-7V239.5z M744.1,246.7h7v7h-7V246.7z M744.1,254h7v7h-7V254z M744.1,261.3h7v7h-7
	V261.3z M744.1,268.5h7v7h-7V268.5z M744.1,275.8h7v7h-7V275.8z M744.1,326.6h7v7h-7V326.6z M744.1,355.6h7v7h-7V355.6z
	 M751.4,333.9h7v7h-7V333.9z M751.4,341.1h7v7h-7V341.1z M751.4,348.4h7v7h-7V348.4z M751.4,355.6h7v7h-7V355.6z M744.1,362.9h7v7
	h-7V362.9z M744.1,370.1h7v7h-7V370.1z M751.3,21.7h7v7h-7V21.7z M751.3,58h7v7h-7V58z M751.3,65.2h7v7h-7V65.2z M751.3,72.5h7v7h-7
	V72.5z M751.3,79.8h7v7h-7V79.8z M751.3,87h7v7h-7V87z M751.3,94.3h7v7h-7V94.3z M751.3,130.6h7v7h-7V130.6z M751.3,210.4h7v7h-7
	V210.4z M751.3,232.2h7v7h-7V232.2z M751.3,246.7h7v7h-7V246.7z M751.3,254h7v7h-7V254z M751.3,261.3h7v7h-7V261.3z M751.3,268.5h7
	v7h-7V268.5z M751.3,275.8h7v7h-7V275.8z M686,384.7h7v7h-7V384.7z M686,391.9h7v7h-7V391.9z M686,399.2h7v7h-7V399.2z M686,406.5h7
	v7h-7V406.5z M686,413.7h7v7h-7V413.7z M686,428.2h7v7h-7V428.2z M693.3,384.7h7v7h-7V384.7z M693.3,391.9h7v7h-7V391.9z
	 M693.3,399.2h7v7h-7V399.2z M693.3,406.5h7v7h-7V406.5z M693.3,421h7v7h-7V421z M700.5,384.7h7v7h-7V384.7z M700.5,391.9h7v7h-7
	V391.9z M700.5,399.2h7v7h-7V399.2z M700.5,413.7h7v7h-7V413.7z M707.8,384.7h7v7h-7V384.7z M707.8,391.9h7v7h-7V391.9z
	 M707.8,406.5h7v7h-7V406.5z M715,384.7h7v7h-7V384.7z M715,399.2h7v7h-7V399.2z M722.3,391.9h7v7h-7V391.9z M729.6,384.7h7v7h-7
	V384.7z M693.3,580.7h7v7h-7V580.7z M700.5,580.7h7v7h-7V580.7z M707.8,580.7h7v7h-7V580.7z M729.6,580.7h7v7h-7V580.7z
	 M736.8,580.7h7v7h-7V580.7z M744.1,580.7h7v7h-7V580.7z M751.3,580.7h7v7h-7V580.7z M758.6,28.9h7v7h-7V28.9z M758.6,123.3h7v7h-7
	V123.3z M758.6,217.7h7v7h-7V217.7z M758.6,224.9h7v7h-7V224.9z M758.6,239.5h7v7h-7V239.5z M758.6,246.7h7v7h-7V246.7z M758.6,254
	h7v7h-7V254z M758.6,261.3h7v7h-7V261.3z M758.6,268.5h7v7h-7V268.5z M758.6,275.8h7v7h-7V275.8z M765.9,36.2h7v7h-7V36.2z
	 M765.9,108.8h7v7h-7V108.8z M765.9,116h7v7h-7V116z M765.9,217.7h7v7h-7V217.7z M765.9,232.2h7v7h-7V232.2z M765.9,239.5h7v7h-7
	V239.5z M765.9,246.7h7v7h-7V246.7z M765.9,254h7v7h-7V254z M765.9,261.3h7v7h-7V261.3z M765.9,268.5h7v7h-7V268.5z M765.9,275.8h7
	v7h-7V275.8z M773.1,43.5h7v7h-7V43.5z M773.1,50.7h7v7h-7V50.7z M773.1,94.3h7v7h-7V94.3z M773.1,101.5h7v7h-7V101.5z M773.1,210.4
	h7v7h-7V210.4z M773.1,224.9h7v7h-7V224.9z M773.1,232.2h7v7h-7V232.2z M773.1,239.5h7v7h-7V239.5z M773.1,246.7h7v7h-7V246.7z
	 M773.1,254h7v7h-7V254z M773.1,261.3h7v7h-7V261.3z M773.1,275.8h7v7h-7V275.8z M780.4,58h7v7h-7V58z M780.4,65.2h7v7h-7V65.2z
	 M780.4,72.5h7v7h-7V72.5z M780.4,79.8h7v7h-7V79.8z M780.4,87h7v7h-7V87z M780.4,137.8h7v7h-7V137.8z M780.4,145.1h7v7h-7V145.1z
	 M780.4,152.3h7v7h-7V152.3z M780.4,203.2h7v7h-7V203.2z M780.4,217.7h7v7h-7V217.7z M780.4,224.9h7v7h-7V224.9z M780.4,232.2h7v7
	h-7V232.2z M780.4,239.5h7v7h-7V239.5z M780.4,246.7h7v7h-7V246.7z M780.4,254h7v7h-7V254z M780.4,268.5h7v7h-7V268.5z M787.6,130.6
	h7v7h-7V130.6z M787.6,137.8h7v7h-7V137.8z M787.6,159.6h7v7h-7V159.6z M787.6,195.9h7v7h-7V195.9z M787.6,210.4h7v7h-7V210.4z
	 M787.6,217.7h7v7h-7V217.7z M787.6,224.9h7v7h-7V224.9z M787.6,232.2h7v7h-7V232.2z M787.6,239.5h7v7h-7V239.5z M787.6,246.7h7v7
	h-7V246.7z M787.6,261.3h7v7h-7V261.3z M794.9,130.6h7v7h-7V130.6z M794.9,145.1h7v7h-7V145.1z M794.9,152.3h7v7h-7V152.3z
	 M794.9,166.9h7v7h-7V166.9z M794.9,181.4h7v7h-7V181.4z M794.9,188.7h7v7h-7V188.7z M794.9,203.2h7v7h-7V203.2z M794.9,210.4h7v7
	h-7V210.4z M794.9,217.7h7v7h-7V217.7z M794.9,224.9h7v7h-7V224.9z M794.9,232.2h7v7h-7V232.2z M794.9,246.7h7v7h-7V246.7z
	 M802.2,130.6h7v7h-7V130.6z M802.2,145.1h7v7h-7V145.1z M802.2,152.3h7v7h-7V152.3z M802.2,159.6h7v7h-7V159.6z M802.2,174.1h7v7
	h-7V174.1z M802.2,188.7h7v7h-7V188.7z M802.2,195.9h7v7h-7V195.9z M802.2,203.2h7v7h-7V203.2z M802.2,210.4h7v7h-7V210.4z
	 M802.2,217.7h7v7h-7V217.7z M802.2,224.9h7v7h-7V224.9z M802.2,239.5h7v7h-7V239.5z M809.4,123.3h7v7h-7V123.3z M809.4,130.6h7v7
	h-7V130.6z M809.4,137.8h7v7h-7V137.8z M809.4,145.1h7v7h-7V145.1z M809.4,152.3h7v7h-7V152.3z M809.4,159.6h7v7h-7V159.6z
	 M809.4,166.9h7v7h-7V166.9z M809.4,181.4h7v7h-7V181.4z M809.4,195.9h7v7h-7V195.9z M809.4,203.2h7v7h-7V203.2z M809.4,210.4h7v7
	h-7V210.4z M809.4,224.9h7v7h-7V224.9z M809.4,232.2h7v7h-7V232.2z M816.7,123.3h7v7h-7V123.3z M816.7,145.1h7v7h-7V145.1z
	 M816.7,152.3h7v7h-7V152.3z M816.7,159.6h7v7h-7V159.6z M816.7,166.9h7v7h-7V166.9z M816.7,174.1h7v7h-7V174.1z M816.7,181.4h7v7
	h-7V181.4z M816.7,188.7h7v7h-7V188.7z M816.7,195.9h7v7h-7V195.9z M816.7,203.2h7v7h-7V203.2z M816.7,217.7h7v7h-7V217.7z
	 M816.7,224.9h7v7h-7V224.9z M823.9,123.3h7v7h-7V123.3z M823.9,152.3h7v7h-7V152.3z M823.9,159.6h7v7h-7V159.6z M823.9,166.9h7v7
	h-7V166.9z M823.9,174.1h7v7h-7V174.1z M823.9,181.4h7v7h-7V181.4z M823.9,188.7h7v7h-7V188.7z M823.9,203.2h7v7h-7V203.2z
	 M823.9,210.4h7v7h-7V210.4z M773.1,580.7h7v7h-7V580.7z M780.4,580.7h7v7h-7V580.7z M787.6,580.7h7v7h-7V580.7z M831.2,130.6h7v7
	h-7V130.6z M831.2,166.9h7v7h-7V166.9z M831.2,181.4h7v7h-7V181.4z M831.2,195.9h7v7h-7V195.9z M838.5,137.8h7v7h-7V137.8z
	 M838.5,159.6h7v7h-7V159.6z M838.5,174.1h7v7h-7V174.1z M838.5,188.7h7v7h-7V188.7z M845.7,145.1h7v7h-7V145.1z M845.7,166.9h7v7
	h-7V166.9z M845.7,174.1h7v7h-7V174.1z M845.7,181.4h7v7h-7V181.4z M853,152.3h7v7h-7V152.3z M853,159.6h7v7h-7V159.6z M853,166.9h7
	v7h-7V166.9z M785.6,552h7v7h-7V552z M792.9,552h7v7h-7V552z M792.9,559.3h7v7h-7V559.3z M800.1,552h7v7h-7V552z M800.1,559.3h7v7
	h-7V559.3z M800.1,566.6h7v7h-7V566.6z M807.4,559.3h7v7h-7V559.3z M807.4,566.6h7v7h-7V566.6z M807.4,573.8h7v7h-7V573.8z
	 M814.6,566.6h7v7h-7V566.6z M814.6,573.8h7v7h-7V573.8z M814.6,581.1h7v7h-7V581.1z M821.9,559.3h7v7h-7V559.3z M821.9,566.6h7v7
	h-7V566.6z M821.9,573.8h7v7h-7V573.8z M829.2,552h7v7h-7V552z M829.2,559.3h7v7h-7V559.3z M829.2,566.6h7v7h-7V566.6z M836.4,552h7
	v7h-7V552z M836.4,559.3h7v7h-7V559.3z M843.7,552h7v7h-7V552z M337.6,304.8h7v7h-7C337.6,311.8,337.6,304.8,337.6,304.8z
	 M337.6,312.1h7v7h-7C337.6,319.1,337.6,312.1,337.6,312.1z M337.6,319.3h7v7h-7C337.6,326.3,337.6,319.3,337.6,319.3z M330.3,283h7
	v7h-7C330.3,290,330.3,283,330.3,283z M330.3,290.3h7v7h-7C330.3,297.3,330.3,290.3,330.3,290.3z M330.3,297.5h7v7h-7
	C330.3,304.5,330.3,297.5,330.3,297.5z M330.3,304.8h7v7h-7C330.3,311.8,330.3,304.8,330.3,304.8z M330.3,312.1h7v7h-7
	C330.3,319.1,330.3,312.1,330.3,312.1z M323.1,254h7v7h-7C323.1,261,323.1,254,323.1,254z M323.1,261.2h7v7h-7
	C323.1,268.2,323.1,261.2,323.1,261.2z M323.1,268.5h7v7h-7C323.1,275.5,323.1,268.5,323.1,268.5z M323.1,275.8h7v7h-7
	C323.1,282.8,323.1,275.8,323.1,275.8z M323.1,283h7v7h-7C323.1,290,323.1,283,323.1,283z M323.1,290.3h7v7h-7
	C323.1,297.3,323.1,290.3,323.1,290.3z M323.1,297.5h7v7h-7C323.1,304.5,323.1,297.5,323.1,297.5z M315.8,232.2h7v7h-7
	C315.8,239.2,315.8,232.2,315.8,232.2z M315.8,239.4h7v7h-7C315.8,246.4,315.8,239.4,315.8,239.4z M315.8,246.7h7v7h-7
	C315.8,253.7,315.8,246.7,315.8,246.7z M315.8,254h7v7h-7C315.8,261,315.8,254,315.8,254z M315.8,261.2h7v7h-7
	C315.8,268.2,315.8,261.2,315.8,261.2z M315.8,290.3h7v7h-7C315.8,297.3,315.8,290.3,315.8,290.3z M308.5,232.2h7v7h-7
	C308.5,239.2,308.5,232.2,308.5,232.2z M308.5,239.4h7v7h-7C308.5,246.4,308.5,239.4,308.5,239.4z M308.5,246.7h7v7h-7
	C308.5,253.7,308.5,246.7,308.5,246.7z M308.5,254h7v7h-7C308.5,261,308.5,254,308.5,254z M308.5,261.2h7v7h-7
	C308.5,268.2,308.5,261.2,308.5,261.2z M308.5,290.3h7v7h-7C308.5,297.3,308.5,290.3,308.5,290.3z M301.3,254h7v7h-7
	C301.3,261,301.3,254,301.3,254z M301.3,261.2h7v7h-7C301.3,268.2,301.3,261.2,301.3,261.2z M301.3,268.5h7v7h-7
	C301.3,275.5,301.3,268.5,301.3,268.5z M301.3,275.8h7v7h-7C301.3,282.8,301.3,275.8,301.3,275.8z M301.3,283h7v7h-7
	C301.3,290,301.3,283,301.3,283z M301.3,290.3h7v7h-7C301.3,297.3,301.3,290.3,301.3,290.3z M301.3,297.5h7v7h-7
	C301.3,304.5,301.3,297.5,301.3,297.5z M294,283h7v7h-7C294,290,294,283,294,283z M294,290.3h7v7h-7C294,297.3,294,290.3,294,290.3z
	 M294,297.5h7v7h-7C294,304.5,294,297.5,294,297.5z M294,304.8h7v7h-7C294,311.8,294,304.8,294,304.8z M294,312.1h7v7h-7
	C294,319.1,294,312.1,294,312.1z M286.8,232.2h7v7h-7C286.8,239.2,286.8,232.2,286.8,232.2z M286.8,239.4h7v7h-7
	C286.8,246.4,286.8,239.4,286.8,239.4z M286.8,246.7h7v7h-7C286.8,253.7,286.8,246.7,286.8,246.7z M279.5,239.4h7v7h-7
	C279.5,246.4,279.5,239.4,279.5,239.4z M279.5,246.7h7v7h-7C279.5,253.7,279.5,246.7,279.5,246.7z M279.5,254h7v7h-7
	C279.5,261,279.5,254,279.5,254z M279.5,261.2h7v7h-7C279.5,268.2,279.5,261.2,279.5,261.2z M279.5,268.5h7v7h-7
	C279.5,275.5,279.5,268.5,279.5,268.5z M279.5,275.8h7v7h-7C279.5,282.8,279.5,275.8,279.5,275.8z M272.2,254h7v7h-7
	C272.2,261,272.2,254,272.2,254z M272.2,261.2h7v7h-7C272.2,268.2,272.2,261.2,272.2,261.2z M272.2,268.5h7v7h-7
	C272.2,275.5,272.2,268.5,272.2,268.5z M272.2,275.8h7v7h-7C272.2,282.8,272.2,275.8,272.2,275.8z M272.2,283h7v7h-7
	C272.2,290,272.2,283,272.2,283z M272.2,290.3h7v7h-7C272.2,297.3,272.2,290.3,272.2,290.3z M272.2,297.5h7v7h-7
	C272.2,304.5,272.2,297.5,272.2,297.5z M272.2,304.8h7v7h-7C272.2,311.8,272.2,304.8,272.2,304.8z M272.2,312.1h7v7h-7
	C272.2,319.1,272.2,312.1,272.2,312.1z M272.2,319.3h7v7h-7C272.2,326.3,272.2,319.3,272.2,319.3z M265,254h7v7h-7
	C265,261,265,254,265,254z M265,261.2h7v7h-7C265,268.2,265,261.2,265,261.2z M265,268.5h7v7h-7C265,275.5,265,268.5,265,268.5z
	 M265,275.8h7v7h-7C265,282.8,265,275.8,265,275.8z M265,283h7v7h-7C265,290,265,283,265,283z M265,290.3h7v7h-7
	C265,297.3,265,290.3,265,290.3z M265,297.5h7v7h-7C265,304.5,265,297.5,265,297.5z M265,304.8h7v7h-7
	C265,311.8,265,304.8,265,304.8z M265,312.1h7v7h-7C265,319.1,265,312.1,265,312.1z M265,319.3h7v7h-7
	C265,326.3,265,319.3,265,319.3z M257.7,239.4h7v7h-7C257.7,246.4,257.7,239.4,257.7,239.4z M257.7,246.7h7v7h-7
	C257.7,253.7,257.7,246.7,257.7,246.7z M257.7,254h7v7h-7C257.7,261,257.7,254,257.7,254z M257.7,261.2h7v7h-7
	C257.7,268.2,257.7,261.2,257.7,261.2z M257.7,268.5h7v7h-7C257.7,275.5,257.7,268.5,257.7,268.5z M250.5,232.2h7v7h-7
	C250.5,239.2,250.5,232.2,250.5,232.2z M250.5,239.4h7v7h-7C250.5,246.4,250.5,239.4,250.5,239.4z M250.5,246.7h7v7h-7
	C250.5,253.7,250.5,246.7,250.5,246.7z M250.5,312.1h7v7h-7C250.5,319.1,250.5,312.1,250.5,312.1z M250.5,319.3h7v7h-7
	C250.5,326.3,250.5,319.3,250.5,319.3z M243.2,312.1h7v7h-7C243.2,319.1,243.2,312.1,243.2,312.1z M243.2,319.3h7v7h-7
	C243.2,326.3,243.2,319.3,243.2,319.3z M235.9,312.1h7v7h-7C235.9,319.1,235.9,312.1,235.9,312.1z M235.9,319.3h7v7h-7
	C235.9,326.3,235.9,319.3,235.9,319.3z M228.7,232.2h7v7h-7C228.7,239.2,228.7,232.2,228.7,232.2z M228.7,239.4h7v7h-7
	C228.7,246.4,228.7,239.4,228.7,239.4z M228.7,246.7h7v7h-7C228.7,253.7,228.7,246.7,228.7,246.7z M228.7,254h7v7h-7
	C228.7,261,228.7,254,228.7,254z M228.7,261.2h7v7h-7C228.7,268.2,228.7,261.2,228.7,261.2z M228.7,268.5h7v7h-7
	C228.7,275.5,228.7,268.5,228.7,268.5z M228.7,275.8h7v7h-7C228.7,282.8,228.7,275.8,228.7,275.8z M228.7,283h7v7h-7
	C228.7,290,228.7,283,228.7,283z M228.7,290.3h7v7h-7C228.7,297.3,228.7,290.3,228.7,290.3z M228.7,297.5h7v7h-7
	C228.7,304.5,228.7,297.5,228.7,297.5z M228.7,304.8h7v7h-7C228.7,311.8,228.7,304.8,228.7,304.8z M228.7,312.1h7v7h-7
	C228.7,319.1,228.7,312.1,228.7,312.1z M228.7,319.3h7v7h-7C228.7,326.3,228.7,319.3,228.7,319.3z M221.4,232.2h7v7h-7
	C221.4,239.2,221.4,232.2,221.4,232.2z M221.4,239.4h7v7h-7C221.4,246.4,221.4,239.4,221.4,239.4z M221.4,246.7h7v7h-7
	C221.4,253.7,221.4,246.7,221.4,246.7z M221.4,254h7v7h-7C221.4,261,221.4,254,221.4,254z M221.4,261.2h7v7h-7
	C221.4,268.2,221.4,261.2,221.4,261.2z M221.4,268.5h7v7h-7C221.4,275.5,221.4,268.5,221.4,268.5z M221.4,275.8h7v7h-7
	C221.4,282.8,221.4,275.8,221.4,275.8z M221.4,283h7v7h-7C221.4,290,221.4,283,221.4,283z M221.4,290.3h7v7h-7
	C221.4,297.3,221.4,290.3,221.4,290.3z M221.4,297.5h7v7h-7C221.4,304.5,221.4,297.5,221.4,297.5z M221.4,304.8h7v7h-7
	C221.4,311.8,221.4,304.8,221.4,304.8z M221.4,312.1h7v7h-7C221.4,319.1,221.4,312.1,221.4,312.1z M221.4,319.3h7v7h-7
	C221.4,326.3,221.4,319.3,221.4,319.3z M206.9,232.2h7v7h-7C206.9,239.2,206.9,232.2,206.9,232.2z M206.9,239.4h7v7h-7
	C206.9,246.4,206.9,239.4,206.9,239.4z M206.9,246.7h7v7h-7C206.9,253.7,206.9,246.7,206.9,246.7z M199.6,239.4h7v7h-7
	C199.6,246.4,199.6,239.4,199.6,239.4z M199.6,246.7h7v7h-7C199.6,253.7,199.6,246.7,199.6,246.7z M199.6,254h7v7h-7
	C199.6,261,199.6,254,199.6,254z M199.6,261.2h7v7h-7C199.6,268.2,199.6,261.2,199.6,261.2z M199.6,268.5h7v7h-7
	C199.6,275.5,199.6,268.5,199.6,268.5z M192.4,254h7v7h-7C192.4,261,192.4,254,192.4,254z M192.4,261.2h7v7h-7
	C192.4,268.2,192.4,261.2,192.4,261.2z M192.4,268.5h7v7h-7C192.4,275.5,192.4,268.5,192.4,268.5z M192.4,275.8h7v7h-7
	C192.4,282.8,192.4,275.8,192.4,275.8z M192.4,283h7v7h-7C192.4,290,192.4,283,192.4,283z M192.4,290.3h7v7h-7
	C192.4,297.3,192.4,290.3,192.4,290.3z M192.4,297.5h7v7h-7C192.4,304.5,192.4,297.5,192.4,297.5z M192.4,304.8h7v7h-7
	C192.4,311.8,192.4,304.8,192.4,304.8z M192.4,312.1h7v7h-7C192.4,319.1,192.4,312.1,192.4,312.1z M192.4,319.3h7v7h-7
	C192.4,326.3,192.4,319.3,192.4,319.3z M185.1,254h7v7h-7C185.1,261,185.1,254,185.1,254z M185.1,261.2h7v7h-7
	C185.1,268.2,185.1,261.2,185.1,261.2z M185.1,268.5h7v7h-7C185.1,275.5,185.1,268.5,185.1,268.5z M185.1,275.8h7v7h-7
	C185.1,282.8,185.1,275.8,185.1,275.8z M185.1,283h7v7h-7C185.1,290,185.1,283,185.1,283z M185.1,290.3h7v7h-7
	C185.1,297.3,185.1,290.3,185.1,290.3z M185.1,297.5h7v7h-7C185.1,304.5,185.1,297.5,185.1,297.5z M185.1,304.8h7v7h-7
	C185.1,311.8,185.1,304.8,185.1,304.8z M185.1,312.1h7v7h-7C185.1,319.1,185.1,312.1,185.1,312.1z M185.1,319.3h7v7h-7
	C185.1,326.3,185.1,319.3,185.1,319.3z M177.9,239.4h7v7h-7C177.9,246.4,177.9,239.4,177.9,239.4z M177.9,246.7h7v7h-7
	C177.9,253.7,177.9,246.7,177.9,246.7z M177.9,254h7v7h-7C177.9,261,177.9,254,177.9,254z M177.9,261.2h7v7h-7
	C177.9,268.2,177.9,261.2,177.9,261.2z M177.9,268.5h7v7h-7C177.9,275.5,177.9,268.5,177.9,268.5z M170.6,232.2h7v7h-7
	C170.6,239.2,170.6,232.2,170.6,232.2z M170.6,239.4h7v7h-7C170.6,246.4,170.6,239.4,170.6,239.4z M170.6,246.7h7v7h-7
	C170.6,253.7,170.6,246.7,170.6,246.7z M156.1,232.2h7v7h-7C156.1,239.2,156.1,232.2,156.1,232.2z M156.1,239.4h7v7h-7
	C156.1,246.4,156.1,239.4,156.1,239.4z M156.1,246.7h7v7h-7C156.1,253.7,156.1,246.7,156.1,246.7z M156.1,254h7v7h-7
	C156.1,261,156.1,254,156.1,254z M156.1,261.2h7v7h-7C156.1,268.2,156.1,261.2,156.1,261.2z M156.1,268.5h7v7h-7
	C156.1,275.5,156.1,268.5,156.1,268.5z M156.1,275.8h7v7h-7C156.1,282.8,156.1,275.8,156.1,275.8z M156.1,283h7v7h-7
	C156.1,290,156.1,283,156.1,283z M156.1,290.3h7v7h-7C156.1,297.3,156.1,290.3,156.1,290.3z M156.1,297.5h7v7h-7
	C156.1,304.5,156.1,297.5,156.1,297.5z M156.1,304.8h7v7h-7C156.1,311.8,156.1,304.8,156.1,304.8z M156.1,312.1h7v7h-7
	C156.1,319.1,156.1,312.1,156.1,312.1z M156.1,319.3h7v7h-7C156.1,326.3,156.1,319.3,156.1,319.3z M148.8,232.2h7v7h-7
	C148.8,239.2,148.8,232.2,148.8,232.2z M148.8,239.4h7v7h-7C148.8,246.4,148.8,239.4,148.8,239.4z M148.8,246.7h7v7h-7
	C148.8,253.7,148.8,246.7,148.8,246.7z M148.8,254h7v7h-7C148.8,261,148.8,254,148.8,254z M148.8,261.2h7v7h-7
	C148.8,268.2,148.8,261.2,148.8,261.2z M148.8,268.5h7v7h-7C148.8,275.5,148.8,268.5,148.8,268.5z M148.8,275.8h7v7h-7
	C148.8,282.8,148.8,275.8,148.8,275.8z M148.8,283h7v7h-7C148.8,290,148.8,283,148.8,283z M148.8,290.3h7v7h-7
	C148.8,297.3,148.8,290.3,148.8,290.3z M148.8,297.5h7v7h-7C148.8,304.5,148.8,297.5,148.8,297.5z M148.8,304.8h7v7h-7
	C148.8,311.8,148.8,304.8,148.8,304.8z M148.8,312.1h7v7h-7C148.8,319.1,148.8,312.1,148.8,312.1z M148.8,319.3h7v7h-7
	C148.8,326.3,148.8,319.3,148.8,319.3z M141.6,268.5h7v7h-7C141.6,275.5,141.6,268.5,141.6,268.5z M141.6,275.8h7v7h-7
	C141.6,282.8,141.6,275.8,141.6,275.8z M141.6,283h7v7h-7C141.6,290,141.6,283,141.6,283z M134.3,268.5h7v7h-7
	C134.3,275.5,134.3,268.5,134.3,268.5z M134.3,275.8h7v7h-7C134.3,282.8,134.3,275.8,134.3,275.8z M134.3,283h7v7h-7
	C134.3,290,134.3,283,134.3,283z M127,268.5h7v7h-7C127,275.5,127,268.5,127,268.5z M127,275.8h7v7h-7
	C127,282.8,127,275.8,127,275.8z M127,283h7v7h-7C127,290,127,283,127,283z M119.8,232.2h7v7h-7
	C119.8,239.2,119.8,232.2,119.8,232.2z M119.8,239.4h7v7h-7C119.8,246.4,119.8,239.4,119.8,239.4z M119.8,246.7h7v7h-7
	C119.8,253.7,119.8,246.7,119.8,246.7z M119.8,254h7v7h-7C119.8,261,119.8,254,119.8,254z M119.8,261.2h7v7h-7
	C119.8,268.2,119.8,261.2,119.8,261.2z M119.8,268.5h7v7h-7C119.8,275.5,119.8,268.5,119.8,268.5z M119.8,275.8h7v7h-7
	C119.8,282.8,119.8,275.8,119.8,275.8z M119.8,283h7v7h-7C119.8,290,119.8,283,119.8,283z M119.8,290.3h7v7h-7
	C119.8,297.3,119.8,290.3,119.8,290.3z M119.8,297.5h7v7h-7C119.8,304.5,119.8,297.5,119.8,297.5z M119.8,304.8h7v7h-7
	C119.8,311.8,119.8,304.8,119.8,304.8z M119.8,312.1h7v7h-7C119.8,319.1,119.8,312.1,119.8,312.1z M119.8,319.3h7v7h-7
	C119.8,326.3,119.8,319.3,119.8,319.3z M112.5,232.2h7v7h-7C112.5,239.2,112.5,232.2,112.5,232.2z M112.5,239.4h7v7h-7
	C112.5,246.4,112.5,239.4,112.5,239.4z M112.5,246.7h7v7h-7C112.5,253.7,112.5,246.7,112.5,246.7z M112.5,254h7v7h-7
	C112.5,261,112.5,254,112.5,254z M112.5,261.2h7v7h-7C112.5,268.2,112.5,261.2,112.5,261.2z M112.5,268.5h7v7h-7
	C112.5,275.5,112.5,268.5,112.5,268.5z M112.5,275.8h7v7h-7C112.5,282.8,112.5,275.8,112.5,275.8z M112.5,283h7v7h-7
	C112.5,290,112.5,283,112.5,283z M112.5,290.3h7v7h-7C112.5,297.3,112.5,290.3,112.5,290.3z M112.5,297.5h7v7h-7
	C112.5,304.5,112.5,297.5,112.5,297.5z M112.5,304.8h7v7h-7C112.5,311.8,112.5,304.8,112.5,304.8z M112.5,312.1h7v7h-7
	C112.5,319.1,112.5,312.1,112.5,312.1z M112.5,319.3h7v7h-7C112.5,326.3,112.5,319.3,112.5,319.3z M98,232.2h7v7h-7
	C98,239.2,98,232.2,98,232.2z M98,239.4h7v7h-7C98,246.4,98,239.4,98,239.4z M98,246.7h7v7h-7C98,253.7,98,246.7,98,246.7z
	 M98,290.3h7v7h-7C98,297.3,98,290.3,98,290.3z M98,297.5h7v7h-7C98,304.5,98,297.5,98,297.5z M98,304.8h7v7h-7
	C98,311.8,98,304.8,98,304.8z M98,312.1h7v7h-7C98,319.1,98,312.1,98,312.1z M98,319.3h7v7h-7C98,326.3,98,319.3,98,319.3z
	 M90.7,232.2h7v7h-7C90.7,239.2,90.7,232.2,90.7,232.2z M90.7,239.4h7v7h-7C90.7,246.4,90.7,239.4,90.7,239.4z M90.7,246.7h7v7h-7
	C90.7,253.7,90.7,246.7,90.7,246.7z M90.7,254h7v7h-7C90.7,261,90.7,254,90.7,254z M90.7,261.2h7v7h-7
	C90.7,268.2,90.7,261.2,90.7,261.2z M90.7,283h7v7h-7C90.7,290,90.7,283,90.7,283z M90.7,290.3h7v7h-7
	C90.7,297.3,90.7,290.3,90.7,290.3z M90.7,297.5h7v7h-7C90.7,304.5,90.7,297.5,90.7,297.5z M90.7,304.8h7v7h-7
	C90.7,311.8,90.7,304.8,90.7,304.8z M90.7,312.1h7v7h-7C90.7,319.1,90.7,312.1,90.7,312.1z M83.5,254h7v7h-7
	C83.5,261,83.5,254,83.5,254z M83.5,261.2h7v7h-7C83.5,268.2,83.5,261.2,83.5,261.2z M83.5,268.5h7v7h-7
	C83.5,275.5,83.5,268.5,83.5,268.5z M83.5,275.8h7v7h-7C83.5,282.8,83.5,275.8,83.5,275.8z M83.5,283h7v7h-7
	C83.5,290,83.5,283,83.5,283z M76.2,268.5h7v7h-7C76.2,275.5,76.2,268.5,76.2,268.5z M76.2,275.8h7v7h-7
	C76.2,282.8,76.2,275.8,76.2,275.8z M76.2,283h7v7h-7C76.2,290,76.2,283,76.2,283z M76.2,290.3h7v7h-7
	C76.2,297.3,76.2,290.3,76.2,290.3z M69,232.2h7v7h-7C69,239.2,69,232.2,69,232.2z M69,239.4h7v7h-7C69,246.4,69,239.4,69,239.4z
	 M69,246.7h7v7h-7C69,253.7,69,246.7,69,246.7z M69,254h7v7h-7C69,261,69,254,69,254z M69,261.2h7v7h-7C69,268.2,69,261.2,69,261.2z
	 M69,268.5h7v7h-7C69,275.5,69,268.5,69,268.5z M69,275.8h7v7h-7C69,282.8,69,275.8,69,275.8z M69,283h7v7h-7C69,290,69,283,69,283z
	 M69,290.3h7v7h-7C69,297.3,69,290.3,69,290.3z M69,297.5h7v7h-7C69,304.5,69,297.5,69,297.5z M69,304.8h7v7h-7
	C69,311.8,69,304.8,69,304.8z M69,312.1h7v7h-7C69,319.1,69,312.1,69,312.1z M69,319.3h7v7h-7C69,326.3,69,319.3,69,319.3z
	 M61.7,232.2h7v7h-7C61.7,239.2,61.7,232.2,61.7,232.2z M61.7,239.4h7v7h-7C61.7,246.4,61.7,239.4,61.7,239.4z M61.7,246.7h7v7h-7
	C61.7,253.7,61.7,246.7,61.7,246.7z M61.7,254h7v7h-7C61.7,261,61.7,254,61.7,254z M61.7,261.2h7v7h-7
	C61.7,268.2,61.7,261.2,61.7,261.2z M61.7,268.5h7v7h-7C61.7,275.5,61.7,268.5,61.7,268.5z M61.7,275.8h7v7h-7
	C61.7,282.8,61.7,275.8,61.7,275.8z M61.7,283h7v7h-7C61.7,290,61.7,283,61.7,283z M61.7,290.3h7v7h-7
	C61.7,297.3,61.7,290.3,61.7,290.3z M61.7,297.5h7v7h-7C61.7,304.5,61.7,297.5,61.7,297.5z M61.7,304.8h7v7h-7
	C61.7,311.8,61.7,304.8,61.7,304.8z M61.7,312.1h7v7h-7C61.7,319.1,61.7,312.1,61.7,312.1z M61.7,319.3h7v7h-7
	C61.7,326.3,61.7,319.3,61.7,319.3z M47.2,232.2h7v7h-7C47.2,239.2,47.2,232.2,47.2,232.2z M47.2,239.4h7v7h-7
	C47.2,246.4,47.2,239.4,47.2,239.4z M47.2,246.7h7v7h-7C47.2,253.7,47.2,246.7,47.2,246.7z M47.2,254h7v7h-7
	C47.2,261,47.2,254,47.2,254z M47.2,261.2h7v7h-7C47.2,268.2,47.2,261.2,47.2,261.2z M47.2,268.5h7v7h-7
	C47.2,275.5,47.2,268.5,47.2,268.5z M47.2,275.8h7v7h-7C47.2,282.8,47.2,275.8,47.2,275.8z M47.2,283h7v7h-7
	C47.2,290,47.2,283,47.2,283z M47.2,290.3h7v7h-7C47.2,297.3,47.2,290.3,47.2,290.3z M47.2,297.5h7v7h-7
	C47.2,304.5,47.2,297.5,47.2,297.5z M47.2,304.8h7v7h-7C47.2,311.8,47.2,304.8,47.2,304.8z M39.9,232.2h7v7h-7
	C39.9,239.2,39.9,232.2,39.9,232.2z M39.9,239.4h7v7h-7C39.9,246.4,39.9,239.4,39.9,239.4z M39.9,246.7h7v7h-7
	C39.9,253.7,39.9,246.7,39.9,246.7z M39.9,254h7v7h-7C39.9,261,39.9,254,39.9,254z M39.9,261.2h7v7h-7
	C39.9,268.2,39.9,261.2,39.9,261.2z M39.9,268.5h7v7h-7C39.9,275.5,39.9,268.5,39.9,268.5z M39.9,275.8h7v7h-7
	C39.9,282.8,39.9,275.8,39.9,275.8z M39.9,283h7v7h-7C39.9,290,39.9,283,39.9,283z M39.9,290.3h7v7h-7
	C39.9,297.3,39.9,290.3,39.9,290.3z M39.9,297.5h7v7h-7C39.9,304.5,39.9,297.5,39.9,297.5z M39.9,304.8h7v7h-7
	C39.9,311.8,39.9,304.8,39.9,304.8z M39.9,312.1h7v7h-7C39.9,319.1,39.9,312.1,39.9,312.1z M32.7,304.8h7v7h-7
	C32.7,311.8,32.7,304.8,32.7,304.8z M32.7,312.1h7v7h-7C32.7,319.1,32.7,312.1,32.7,312.1z M32.7,319.3h7v7h-7
	C32.7,326.3,32.7,319.3,32.7,319.3z M25.4,304.8h7v7h-7C25.4,311.8,25.4,304.8,25.4,304.8z M25.4,312.1h7v7h-7
	C25.4,319.1,25.4,312.1,25.4,312.1z M25.4,319.3h7v7h-7C25.4,326.3,25.4,319.3,25.4,319.3z M18.1,232.2h7v7h-7
	C18.1,239.2,18.1,232.2,18.1,232.2z M18.1,239.4h7v7h-7C18.1,246.4,18.1,239.4,18.1,239.4z M18.1,246.7h7v7h-7
	C18.1,253.7,18.1,246.7,18.1,246.7z M18.1,254h7v7h-7C18.1,261,18.1,254,18.1,254z M18.1,261.2h7v7h-7
	C18.1,268.2,18.1,261.2,18.1,261.2z M18.1,268.5h7v7h-7C18.1,275.5,18.1,268.5,18.1,268.5z M18.1,275.8h7v7h-7
	C18.1,282.8,18.1,275.8,18.1,275.8z M18.1,283h7v7h-7C18.1,290,18.1,283,18.1,283z M18.1,290.3h7v7h-7
	C18.1,297.3,18.1,290.3,18.1,290.3z M18.1,297.5h7v7h-7C18.1,304.5,18.1,297.5,18.1,297.5z M18.1,304.8h7v7h-7
	C18.1,311.8,18.1,304.8,18.1,304.8z M18.1,312.1h7v7h-7C18.1,319.1,18.1,312.1,18.1,312.1z M10.9,232.2h7v7h-7
	C10.9,239.2,10.9,232.2,10.9,232.2z M10.9,239.4h7v7h-7C10.9,246.4,10.9,239.4,10.9,239.4z M10.9,246.7h7v7h-7
	C10.9,253.7,10.9,246.7,10.9,246.7z M10.9,254h7v7h-7C10.9,261,10.9,254,10.9,254z M10.9,261.2h7v7h-7
	C10.9,268.2,10.9,261.2,10.9,261.2z M10.9,268.5h7v7h-7C10.9,275.5,10.9,268.5,10.9,268.5z M10.9,275.8h7v7h-7
	C10.9,282.8,10.9,275.8,10.9,275.8z M10.9,283h7v7h-7C10.9,290,10.9,283,10.9,283z M10.9,290.3h7v7h-7
	C10.9,297.3,10.9,290.3,10.9,290.3z M10.9,297.5h7v7h-7C10.9,304.5,10.9,297.5,10.9,297.5z M10.9,304.8h7v7h-7
	C10.9,311.8,10.9,304.8,10.9,304.8z M352.1,232.2h7v7h-7V232.2z M352.1,239.4h7v7h-7V239.4z M352.1,246.7h7v7h-7V246.7z M352.1,254
	h7v7h-7V254z M352.1,261.2h7v7h-7V261.2z M352.1,268.5h7v7h-7V268.5z M352.1,275.8h7v7h-7V275.8z M352.1,283h7v7h-7V283z
	 M352.1,290.3h7v7h-7V290.3z M352.1,297.5h7v7h-7V297.5z M352.1,304.8h7v7h-7V304.8z M352.1,312.1h7v7h-7V312.1z M352.1,319.3h7v7
	h-7V319.3z M359.4,232.2h7v7h-7V232.2z M359.4,239.4h7v7h-7V239.4z M359.4,246.7h7v7h-7V246.7z M359.4,254h7v7h-7V254z M359.4,261.2
	h7v7h-7V261.2z M359.4,268.5h7v7h-7V268.5z M359.4,275.8h7v7h-7V275.8z M359.4,283h7v7h-7V283z M359.4,290.3h7v7h-7V290.3z
	 M359.4,297.5h7v7h-7V297.5z M359.4,304.8h7v7h-7V304.8z M359.4,312.1h7v7h-7V312.1z M359.4,319.3h7v7h-7V319.3z M366.7,239.4h7v7
	h-7V239.4z M366.7,246.6h7v7h-7V246.6z M366.7,253.9h7v7h-7V253.9z M366.7,261.2h7v7h-7V261.2z M373.9,253.9h7v7h-7V253.9z
	 M373.9,261.2h7v7h-7V261.2z M373.9,268.4h7v7h-7V268.4z M373.9,275.7h7v7h-7V275.7z M373.9,282.9h7v7h-7V282.9z M373.9,290.2h7v7
	h-7V290.2z M381.2,297.5h7v7h-7V297.5z M381.2,304.8h7v7h-7V304.8z M388.4,232.2h7v7h-7V232.2z M388.4,239.4h7v7h-7V239.4z
	 M388.4,246.7h7v7h-7V246.7z M388.4,254h7v7h-7V254z M388.4,261.2h7v7h-7V261.2z M388.4,268.5h7v7h-7V268.5z M388.4,275.8h7v7h-7
	V275.8z M388.4,283h7v7h-7V283z M388.4,290.3h7v7h-7V290.3z M388.4,297.5h7v7h-7V297.5z M388.4,304.8h7v7h-7V304.8z M388.4,312.1h7
	v7h-7V312.1z M388.4,319.3h7v7h-7V319.3z M395.7,232.2h7v7h-7C395.7,239.2,395.7,232.2,395.7,232.2z M395.7,239.4h7v7h-7
	C395.7,246.4,395.7,239.4,395.7,239.4z M395.7,246.7h7v7h-7C395.7,253.7,395.7,246.7,395.7,246.7z M395.7,254h7v7h-7
	C395.7,261,395.7,254,395.7,254z M395.7,261.2h7v7h-7C395.7,268.2,395.7,261.2,395.7,261.2z M395.7,268.5h7v7h-7
	C395.7,275.5,395.7,268.5,395.7,268.5z M395.7,275.8h7v7h-7C395.7,282.8,395.7,275.8,395.7,275.8z M395.7,283h7v7h-7
	C395.7,290,395.7,283,395.7,283z M395.7,290.3h7v7h-7C395.7,297.3,395.7,290.3,395.7,290.3z M395.7,297.5h7v7h-7
	C395.7,304.5,395.7,297.5,395.7,297.5z M395.7,304.8h7v7h-7C395.7,311.8,395.7,304.8,395.7,304.8z M395.7,312.1h7v7h-7
	C395.7,319.1,395.7,312.1,395.7,312.1z M395.7,319.3h7v7h-7C395.7,326.3,395.7,319.3,395.7,319.3z M410.2,232.2h7v7h-7V232.2z
	 M410.2,239.4h7v7h-7V239.4z M417.5,232.2h7v7h-7V232.2z M417.5,239.4h7v7h-7V239.4z M424.7,232.2h7v7h-7V232.2z M424.7,239.4h7v7
	h-7V239.4z M424.7,246.7h7v7h-7V246.7z M424.7,254h7v7h-7V254z M424.7,261.2h7v7h-7V261.2z M424.7,268.5h7v7h-7V268.5z M424.7,275.8
	h7v7h-7V275.8z M424.7,283h7v7h-7V283z M424.7,290.3h7v7h-7V290.3z M424.7,297.5h7v7h-7V297.5z M424.7,304.8h7v7h-7V304.8z
	 M424.7,312.1h7v7h-7V312.1z M424.7,319.3h7v7h-7V319.3z M432,232.2h7v7h-7V232.2z M432,239.4h7v7h-7V239.4z M432,246.7h7v7h-7
	V246.7z M432,254h7v7h-7V254z M432,261.2h7v7h-7V261.2z M432,268.5h7v7h-7V268.5z M432,275.8h7v7h-7V275.8z M432,283h7v7h-7V283z
	 M432,290.3h7v7h-7V290.3z M432,297.5h7v7h-7V297.5z M432,304.8h7v7h-7V304.8z M432,312.1h7v7h-7V312.1z M432,319.3h7v7h-7V319.3z
	 M90.7,319.4h7v7h-7C90.7,326.4,90.7,319.4,90.7,319.4z M286.8,304.8h7v7h-7C286.8,311.8,286.8,304.8,286.8,304.8z M286.8,312.1h7v7
	h-7C286.8,319.1,286.8,312.1,286.8,312.1z M286.8,319.3h7v7h-7C286.8,326.3,286.8,319.3,286.8,319.3z M366.6,268.5h7v7h-7V268.5z
	 M381.1,290.2h7v7h-7V290.2z M381.1,282.9h7v7h-7V282.9z M439.3,232.2h7v7h-7V232.2z M439.3,239.4h7v7h-7V239.4z M446.6,232.2h7v7
	h-7V232.2z M446.6,239.4h7v7h-7V239.4z"/>
</svg>
