<?xml version="1.0" encoding="utf-8"?>
<!-- Generator: Adobe Illustrator 27.3.1, SVG Export Plug-In . SVG Version: 6.00 Build 0)  -->
<svg version="1.1" xmlns="http://www.w3.org/2000/svg" xmlns:xlink="http://www.w3.org/1999/xlink" x="0px" y="0px"
	 viewBox="0 0 602.3 174" style="enable-background:new 0 0 602.3 174;" xml:space="preserve">
<style type="text/css">
	.st0{fill:#1E0E01;}
</style>
<g id="Слой_2">
	<rect x="152.4" y="138" class="st0" width="7" height="7"/>
	<rect x="159.7" y="138" class="st0" width="7" height="7"/>
	<rect x="166.9" y="138" class="st0" width="7" height="7"/>
	<rect x="174.2" y="138" class="st0" width="7" height="7"/>
	<rect x="181.4" y="138" class="st0" width="7" height="7"/>
	<rect x="188.7" y="138" class="st0" width="7" height="7"/>
	<rect x="196" y="138" class="st0" width="7" height="7"/>
	<rect x="210.5" y="130.7" class="st0" width="7" height="7"/>
	<rect x="203.2" y="130.7" class="st0" width="7" height="7"/>
	<rect x="217.7" y="130.7" class="st0" width="7" height="7"/>
	<rect x="225" y="130.7" class="st0" width="7" height="7"/>
	<rect x="232.3" y="130.7" class="st0" width="7" height="7"/>
	<rect x="239.6" y="123.5" class="st0" width="7" height="7"/>
	<rect x="246.8" y="123.5" class="st0" width="7" height="7"/>
	<rect x="246.8" y="130.7" class="st0" width="7" height="7"/>
	<rect x="246.8" y="138" class="st0" width="7" height="7"/>
	<rect x="254.1" y="123.5" class="st0" width="7" height="7"/>
	<rect x="261.4" y="87.2" class="st0" width="7" height="7"/>
	<rect x="261.4" y="94.4" class="st0" width="7" height="7"/>
	<rect x="254.1" y="130.7" class="st0" width="7" height="7"/>
	<rect x="261.3" y="123.5" class="st0" width="7" height="7"/>
	<rect x="268.6" y="87.2" class="st0" width="7" height="7"/>
	<rect x="268.6" y="94.4" class="st0" width="7" height="7"/>
	<rect x="268.6" y="101.7" class="st0" width="7" height="7"/>
	<rect x="261.3" y="130.7" class="st0" width="7" height="7"/>
	<rect x="261.3" y="138" class="st0" width="7" height="7"/>
	<rect x="268.6" y="123.5" class="st0" width="7" height="7"/>
	<rect x="275.9" y="87.2" class="st0" width="7" height="7"/>
	<rect x="275.9" y="101.7" class="st0" width="7" height="7"/>
	<rect x="275.9" y="108.9" class="st0" width="7" height="7"/>
	<rect x="268.6" y="130.7" class="st0" width="7" height="7"/>
	<rect x="268.6" y="138" class="st0" width="7" height="7"/>
	<rect x="275.9" y="116.2" class="st0" width="7" height="7"/>
	<rect x="275.9" y="123.5" class="st0" width="7" height="7"/>
	<rect x="283.2" y="87.2" class="st0" width="7" height="7"/>
	<rect x="283.2" y="94.4" class="st0" width="7" height="7"/>
	<rect x="283.2" y="101.7" class="st0" width="7" height="7"/>
	<rect x="283.1" y="116.2" class="st0" width="7" height="7"/>
	<rect x="283.1" y="123.5" class="st0" width="7" height="7"/>
	<rect x="290.4" y="87.2" class="st0" width="7" height="7"/>
	<rect x="290.4" y="101.7" class="st0" width="7" height="7"/>
	<rect x="290.4" y="108.9" class="st0" width="7" height="7"/>
	<rect x="290.4" y="116.2" class="st0" width="7" height="7"/>
	<rect x="290.4" y="123.5" class="st0" width="7" height="7"/>
	<rect x="297.7" y="87.2" class="st0" width="7" height="7"/>
	<rect x="297.7" y="94.4" class="st0" width="7" height="7"/>
	<rect x="297.7" y="101.7" class="st0" width="7" height="7"/>
	<rect x="297.6" y="116.2" class="st0" width="7" height="7"/>
	<rect x="297.6" y="123.5" class="st0" width="7" height="7"/>
	<rect x="304.9" y="87.2" class="st0" width="7" height="7"/>
	<rect x="304.9" y="101.7" class="st0" width="7" height="7"/>
	<rect x="304.9" y="108.9" class="st0" width="7" height="7"/>
	<rect x="304.9" y="116.2" class="st0" width="7" height="7"/>
	<rect x="304.9" y="123.5" class="st0" width="7" height="7"/>
	<rect x="312.2" y="87.2" class="st0" width="7" height="7"/>
	<rect x="312.2" y="94.4" class="st0" width="7" height="7"/>
	<rect x="312.2" y="101.7" class="st0" width="7" height="7"/>
	<rect x="312.2" y="108.9" class="st0" width="7" height="7"/>
	<rect x="312.2" y="116.2" class="st0" width="7" height="7"/>
	<rect x="312.2" y="123.5" class="st0" width="7" height="7"/>
	<rect x="319.5" y="87.2" class="st0" width="7" height="7"/>
	<rect x="319.5" y="94.4" class="st0" width="7" height="7"/>
	<rect x="319.5" y="101.7" class="st0" width="7" height="7"/>
	<rect x="319.4" y="123.5" class="st0" width="7" height="7"/>
	<rect x="326.7" y="87.2" class="st0" width="7" height="7"/>
	<rect x="326.7" y="94.4" class="st0" width="7" height="7"/>
	<rect x="319.4" y="130.7" class="st0" width="7" height="7"/>
	<rect x="319.4" y="138" class="st0" width="7" height="7"/>
	<rect x="326.7" y="123.5" class="st0" width="7" height="7"/>
	<rect x="333.9" y="130.7" class="st0" width="7" height="7"/>
	<rect x="326.6" y="138" class="st0" width="7" height="7"/>
	<rect x="333.9" y="123.5" class="st0" width="7" height="7"/>
	<rect x="333.9" y="138" class="st0" width="7" height="7"/>
	<rect x="341.2" y="123.5" class="st0" width="7" height="7"/>
	<rect x="341.2" y="130.7" class="st0" width="7" height="7"/>
	<rect x="341.2" y="138" class="st0" width="7" height="7"/>
	<rect x="254" y="145.2" class="st0" width="7" height="7"/>
	<rect x="261.3" y="145.2" class="st0" width="7" height="7"/>
	<rect x="326.6" y="145.2" class="st0" width="7" height="7"/>
	<rect x="333.9" y="145.2" class="st0" width="7" height="7"/>
	<rect x="348.5" y="123.5" class="st0" width="7" height="7"/>
	<rect x="348.4" y="130.7" class="st0" width="7" height="7"/>
	<rect x="355.7" y="130.7" class="st0" width="7" height="7"/>
	<rect x="362.9" y="130.7" class="st0" width="7" height="7"/>
	<rect x="370.2" y="130.7" class="st0" width="7" height="7"/>
	<rect x="377.5" y="130.7" class="st0" width="7" height="7"/>
	<rect x="384.7" y="130.7" class="st0" width="7" height="7"/>
	<rect x="392" y="138" class="st0" width="7" height="7"/>
	<rect x="399.2" y="138" class="st0" width="7" height="7"/>
	<rect x="406.5" y="138" class="st0" width="7" height="7"/>
	<rect x="413.8" y="138" class="st0" width="7" height="7"/>
	<rect x="421" y="138" class="st0" width="7" height="7"/>
	<rect x="428.3" y="138" class="st0" width="7" height="7"/>
	<rect x="435.5" y="138" class="st0" width="7" height="7"/>
	<rect x="442.8" y="138" class="st0" width="7" height="7"/>
	<rect x="450.1" y="138" class="st0" width="7" height="7"/>
	<rect x="428.3" y="72.7" class="st0" width="7" height="7"/>
	<rect x="428.3" y="79.9" class="st0" width="7" height="7"/>
	<rect x="428.3" y="87.2" class="st0" width="7" height="7"/>
	<rect x="428.3" y="94.4" class="st0" width="7" height="7"/>
	<rect x="428.3" y="101.7" class="st0" width="7" height="7"/>
	<rect x="435.5" y="50.9" class="st0" width="7" height="7"/>
	<rect x="435.5" y="58.1" class="st0" width="7" height="7"/>
	<rect x="435.5" y="65.4" class="st0" width="7" height="7"/>
	<rect x="435.5" y="72.7" class="st0" width="7" height="7"/>
	<rect x="435.5" y="79.9" class="st0" width="7" height="7"/>
	<rect x="435.5" y="87.2" class="st0" width="7" height="7"/>
	<rect x="435.5" y="94.4" class="st0" width="7" height="7"/>
	<rect x="435.5" y="101.7" class="st0" width="7" height="7"/>
	<rect x="435.5" y="108.9" class="st0" width="7" height="7"/>
	<rect x="435.5" y="116.2" class="st0" width="7" height="7"/>
	<rect x="442.8" y="36.4" class="st0" width="7" height="7"/>
	<rect x="442.8" y="43.6" class="st0" width="7" height="7"/>
	<rect x="442.8" y="50.9" class="st0" width="7" height="7"/>
	<rect x="442.8" y="108.9" class="st0" width="7" height="7"/>
	<rect x="442.8" y="116.2" class="st0" width="7" height="7"/>
	<rect x="442.8" y="123.5" class="st0" width="7" height="7"/>
	<rect x="442.8" y="130.7" class="st0" width="7" height="7"/>
	<rect x="450.1" y="29.1" class="st0" width="7" height="7"/>
	<rect x="450.1" y="36.4" class="st0" width="7" height="7"/>
	<rect x="450.1" y="43.6" class="st0" width="7" height="7"/>
	<rect x="457.4" y="123.5" class="st0" width="7" height="7"/>
	<rect x="450.1" y="130.7" class="st0" width="7" height="7"/>
	<rect x="450.1" y="138" class="st0" width="7" height="7"/>
	<rect x="457.3" y="21.8" class="st0" width="7" height="7"/>
	<rect x="457.3" y="29.1" class="st0" width="7" height="7"/>
	<rect x="457.3" y="36.4" class="st0" width="7" height="7"/>
	<rect x="457.3" y="108.9" class="st0" width="7" height="7"/>
	<rect x="457.3" y="116.2" class="st0" width="7" height="7"/>
	<rect x="464.6" y="130.7" class="st0" width="7" height="7"/>
	<rect x="457.3" y="138" class="st0" width="7" height="7"/>
	<rect x="457.3" y="145.2" class="st0" width="7" height="7"/>
	<rect x="464.6" y="14.6" class="st0" width="7" height="7"/>
	<rect x="464.6" y="21.8" class="st0" width="7" height="7"/>
	<rect x="464.6" y="29.1" class="st0" width="7" height="7"/>
	<rect x="464.6" y="101.7" class="st0" width="7" height="7"/>
	<rect x="464.6" y="108.9" class="st0" width="7" height="7"/>
	<rect x="464.6" y="145.2" class="st0" width="7" height="7"/>
	<rect x="464.6" y="152.5" class="st0" width="7" height="7"/>
	<rect x="471.8" y="7.3" class="st0" width="7" height="7"/>
	<rect x="471.8" y="14.6" class="st0" width="7" height="7"/>
	<rect x="471.8" y="21.8" class="st0" width="7" height="7"/>
	<rect x="471.8" y="101.7" class="st0" width="7" height="7"/>
	<rect x="471.8" y="108.9" class="st0" width="7" height="7"/>
	<rect x="471.8" y="130.7" class="st0" width="7" height="7"/>
	<rect x="471.8" y="152.5" class="st0" width="7" height="7"/>
	<rect x="471.8" y="159.8" class="st0" width="7" height="7"/>
	<rect x="479.1" y="7.3" class="st0" width="7" height="7"/>
	<rect x="479.1" y="14.6" class="st0" width="7" height="7"/>
	<rect x="479.1" y="101.7" class="st0" width="7" height="7"/>
	<rect x="479.1" y="108.9" class="st0" width="7" height="7"/>
	<rect x="479.1" y="116.2" class="st0" width="7" height="7"/>
	<rect x="479.1" y="123.5" class="st0" width="7" height="7"/>
	<rect x="479.1" y="152.5" class="st0" width="7" height="7"/>
	<rect x="479.1" y="159.8" class="st0" width="7" height="7"/>
	<rect x="486.4" y="7.3" class="st0" width="7" height="7"/>
	<rect x="486.4" y="79.9" class="st0" width="7" height="7"/>
	<rect x="486.4" y="101.7" class="st0" width="7" height="7"/>
	<rect x="486.4" y="108.9" class="st0" width="7" height="7"/>
	<rect x="486.4" y="116.2" class="st0" width="7" height="7"/>
	<rect x="486.4" y="159.8" class="st0" width="7" height="7"/>
	<rect x="486.4" y="167" class="st0" width="7" height="7"/>
	<rect x="493.6" class="st0" width="7" height="7"/>
	<rect x="493.6" y="7.3" class="st0" width="7" height="7"/>
	<rect x="493.6" y="14.6" class="st0" width="7" height="7"/>
	<rect x="493.6" y="21.8" class="st0" width="7" height="7"/>
	<rect x="493.6" y="29.1" class="st0" width="7" height="7"/>
	<rect x="493.6" y="36.4" class="st0" width="7" height="7"/>
	<rect x="493.6" y="43.6" class="st0" width="7" height="7"/>
	<rect x="493.6" y="65.4" class="st0" width="7" height="7"/>
	<rect x="493.6" y="72.7" class="st0" width="7" height="7"/>
	<rect x="493.6" y="79.9" class="st0" width="7" height="7"/>
	<rect x="493.6" y="87.2" class="st0" width="7" height="7"/>
	<rect x="493.6" y="94.4" class="st0" width="7" height="7"/>
	<rect x="508.1" y="108.9" class="st0" width="7" height="7"/>
	<rect x="515.4" y="108.9" class="st0" width="7" height="7"/>
	<rect x="493.6" y="159.8" class="st0" width="7" height="7"/>
	<rect x="493.6" y="167" class="st0" width="7" height="7"/>
	<rect x="500.9" class="st0" width="7" height="7"/>
	<rect x="500.9" y="14.6" class="st0" width="7" height="7"/>
	<rect x="500.9" y="36.4" class="st0" width="7" height="7"/>
	<rect x="500.9" y="43.6" class="st0" width="7" height="7"/>
	<rect x="500.9" y="50.9" class="st0" width="7" height="7"/>
	<rect x="500.9" y="65.4" class="st0" width="7" height="7"/>
	<rect x="500.9" y="72.7" class="st0" width="7" height="7"/>
	<rect x="500.9" y="79.9" class="st0" width="7" height="7"/>
	<rect x="500.9" y="87.2" class="st0" width="7" height="7"/>
	<rect x="500.9" y="94.4" class="st0" width="7" height="7"/>
	<rect x="500.9" y="101.7" class="st0" width="7" height="7"/>
	<rect x="500.9" y="159.8" class="st0" width="7" height="7"/>
	<rect x="508.2" y="159.8" class="st0" width="7" height="7"/>
	<rect x="515.4" y="159.8" class="st0" width="7" height="7"/>
	<rect x="522.7" y="159.8" class="st0" width="7" height="7"/>
	<rect x="500.9" y="167" class="st0" width="7" height="7"/>
	<rect x="508.1" class="st0" width="7" height="7"/>
	<rect x="508.1" y="14.6" class="st0" width="7" height="7"/>
	<rect x="508.1" y="36.4" class="st0" width="7" height="7"/>
	<rect x="508.1" y="43.6" class="st0" width="7" height="7"/>
	<rect x="508.1" y="58.1" class="st0" width="7" height="7"/>
	<rect x="508.1" y="65.4" class="st0" width="7" height="7"/>
	<rect x="508.1" y="72.7" class="st0" width="7" height="7"/>
	<rect x="508.1" y="79.9" class="st0" width="7" height="7"/>
	<rect x="508.1" y="87.2" class="st0" width="7" height="7"/>
	<rect x="508.1" y="94.4" class="st0" width="7" height="7"/>
	<rect x="508.1" y="101.7" class="st0" width="7" height="7"/>
	<rect x="508.1" y="167" class="st0" width="7" height="7"/>
	<rect x="515.4" class="st0" width="7" height="7"/>
	<rect x="515.4" y="14.6" class="st0" width="7" height="7"/>
	<rect x="515.4" y="21.8" class="st0" width="7" height="7"/>
	<rect x="515.4" y="29.1" class="st0" width="7" height="7"/>
	<rect x="515.4" y="36.4" class="st0" width="7" height="7"/>
	<rect x="515.4" y="43.6" class="st0" width="7" height="7"/>
	<rect x="515.4" y="58.1" class="st0" width="7" height="7"/>
	<rect x="515.4" y="65.4" class="st0" width="7" height="7"/>
	<rect x="515.4" y="72.7" class="st0" width="7" height="7"/>
	<rect x="515.4" y="79.9" class="st0" width="7" height="7"/>
	<rect x="515.4" y="87.2" class="st0" width="7" height="7"/>
	<rect x="515.4" y="94.4" class="st0" width="7" height="7"/>
	<rect x="515.4" y="101.7" class="st0" width="7" height="7"/>
	<rect x="515.4" y="167" class="st0" width="7" height="7"/>
	<rect x="522.7" class="st0" width="7" height="7"/>
	<rect x="522.7" y="7.3" class="st0" width="7" height="7"/>
	<rect x="522.7" y="58.1" class="st0" width="7" height="7"/>
	<rect x="522.7" y="65.4" class="st0" width="7" height="7"/>
	<rect x="522.7" y="72.7" class="st0" width="7" height="7"/>
	<rect x="522.7" y="79.9" class="st0" width="7" height="7"/>
	<rect x="522.7" y="87.2" class="st0" width="7" height="7"/>
	<rect x="522.7" y="94.4" class="st0" width="7" height="7"/>
	<rect x="522.7" y="101.7" class="st0" width="7" height="7"/>
	<rect x="522.7" y="167" class="st0" width="7" height="7"/>
	<rect x="529.9" class="st0" width="7" height="7"/>
	<rect x="529.9" y="7.3" class="st0" width="7" height="7"/>
	<rect x="529.9" y="58.1" class="st0" width="7" height="7"/>
	<rect x="529.9" y="65.4" class="st0" width="7" height="7"/>
	<rect x="537.2" y="65.4" class="st0" width="7" height="7"/>
	<rect x="529.9" y="72.7" class="st0" width="7" height="7"/>
	<rect x="529.9" y="79.9" class="st0" width="7" height="7"/>
	<rect x="529.9" y="87.2" class="st0" width="7" height="7"/>
	<rect x="529.9" y="94.4" class="st0" width="7" height="7"/>
	<rect x="529.9" y="101.7" class="st0" width="7" height="7"/>
	<rect x="529.9" y="159.8" class="st0" width="7" height="7"/>
	<rect x="529.9" y="167" class="st0" width="7" height="7"/>
	<rect x="537.2" y="7.3" class="st0" width="7" height="7"/>
	<rect x="537.2" y="72.7" class="st0" width="7" height="7"/>
	<rect x="537.2" y="79.9" class="st0" width="7" height="7"/>
	<rect x="537.2" y="87.2" class="st0" width="7" height="7"/>
	<rect x="544.4" y="101.7" class="st0" width="7" height="7"/>
	<rect x="544.5" y="94.4" class="st0" width="7" height="7"/>
	<rect x="551.7" y="108.9" class="st0" width="7" height="7"/>
	<rect x="551.7" y="101.7" class="st0" width="7" height="7"/>
	<rect x="551.7" y="87.2" class="st0" width="7" height="7"/>
	<rect x="551.7" y="94.4" class="st0" width="7" height="7"/>
	<rect x="537.2" y="159.8" class="st0" width="7" height="7"/>
	<rect x="537.2" y="167" class="st0" width="7" height="7"/>
	<rect x="544.4" y="7.3" class="st0" width="7" height="7"/>
	<rect x="544.4" y="14.6" class="st0" width="7" height="7"/>
	<rect x="544.4" y="152.5" class="st0" width="7" height="7"/>
	<rect x="544.4" y="159.8" class="st0" width="7" height="7"/>
	<rect x="551.7" y="7.3" class="st0" width="7" height="7"/>
	<rect x="551.7" y="14.6" class="st0" width="7" height="7"/>
	<rect x="559" y="116.2" class="st0" width="7" height="7"/>
	<rect x="559" y="108.9" class="st0" width="7" height="7"/>
	<rect x="558.9" y="101.7" class="st0" width="7" height="7"/>
	<rect x="559" y="87.2" class="st0" width="7" height="7"/>
	<rect x="559" y="94.4" class="st0" width="7" height="7"/>
	<rect x="566.2" y="116.2" class="st0" width="7" height="7"/>
	<rect x="566.3" y="108.9" class="st0" width="7" height="7"/>
	<rect x="566.2" y="87.2" class="st0" width="7" height="7"/>
	<rect x="566.2" y="94.4" class="st0" width="7" height="7"/>
	<rect x="573.5" y="116.2" class="st0" width="7" height="7"/>
	<rect x="573.5" y="87.2" class="st0" width="7" height="7"/>
	<rect x="573.5" y="94.4" class="st0" width="7" height="7"/>
	<rect x="580.8" y="108.9" class="st0" width="7" height="7"/>
	<rect x="580.7" y="101.7" class="st0" width="7" height="7"/>
	<rect x="580.8" y="94.4" class="st0" width="7" height="7"/>
	<rect x="551.7" y="152.5" class="st0" width="7" height="7"/>
	<rect x="551.7" y="159.8" class="st0" width="7" height="7"/>
	<rect x="559" y="14.6" class="st0" width="7" height="7"/>
	<rect x="559" y="21.8" class="st0" width="7" height="7"/>
	<rect x="559" y="145.2" class="st0" width="7" height="7"/>
	<rect x="559" y="152.5" class="st0" width="7" height="7"/>
	<rect x="566.2" y="21.8" class="st0" width="7" height="7"/>
	<rect x="566.2" y="29.1" class="st0" width="7" height="7"/>
	<rect x="573.5" y="36.4" class="st0" width="7" height="7"/>
	<rect x="566.2" y="138" class="st0" width="7" height="7"/>
	<rect x="566.2" y="145.2" class="st0" width="7" height="7"/>
	<rect x="566.2" y="152.5" class="st0" width="7" height="7"/>
	<rect x="573.5" y="21.8" class="st0" width="7" height="7"/>
	<rect x="573.5" y="29.1" class="st0" width="7" height="7"/>
	<rect x="580.8" y="50.9" class="st0" width="7" height="7"/>
	<rect x="573.5" y="130.7" class="st0" width="7" height="7"/>
	<rect x="573.5" y="138" class="st0" width="7" height="7"/>
	<rect x="573.5" y="145.2" class="st0" width="7" height="7"/>
	<rect x="580.7" y="36.4" class="st0" width="7" height="7"/>
	<rect x="580.7" y="43.6" class="st0" width="7" height="7"/>
	<rect x="580.7" y="123.5" class="st0" width="7" height="7"/>
	<rect x="580.7" y="130.7" class="st0" width="7" height="7"/>
	<rect x="580.7" y="138" class="st0" width="7" height="7"/>
	<rect x="588" y="43.6" class="st0" width="7" height="7"/>
	<rect x="588" y="50.9" class="st0" width="7" height="7"/>
	<rect x="588" y="58.1" class="st0" width="7" height="7"/>
	<rect x="588" y="65.4" class="st0" width="7" height="7"/>
	<rect x="588" y="72.7" class="st0" width="7" height="7"/>
	<rect x="588" y="108.9" class="st0" width="7" height="7"/>
	<rect x="595.2" y="108.9" class="st0" width="7" height="7"/>
	<rect x="588" y="116.2" class="st0" width="7" height="7"/>
	<rect x="588" y="123.5" class="st0" width="7" height="7"/>
	<rect x="595.3" y="58.1" class="st0" width="7" height="7"/>
	<rect x="595.3" y="65.4" class="st0" width="7" height="7"/>
	<rect x="595.3" y="72.7" class="st0" width="7" height="7"/>
	<rect x="595.3" y="79.9" class="st0" width="7" height="7"/>
	<rect x="595.3" y="87.2" class="st0" width="7" height="7"/>
	<rect x="595.3" y="94.4" class="st0" width="7" height="7"/>
	<rect x="595.3" y="101.7" class="st0" width="7" height="7"/>
</g>
<g id="Слой_1">
	<rect y="58.1" class="st0" width="7" height="7"/>
	<rect y="65.4" class="st0" width="7" height="7"/>
	<rect y="72.7" class="st0" width="7" height="7"/>
	<rect y="79.9" class="st0" width="7" height="7"/>
	<rect y="87.2" class="st0" width="7" height="7"/>
	<rect y="94.4" class="st0" width="7" height="7"/>
	<rect y="101.7" class="st0" width="7" height="7"/>
	<rect x="7.3" y="36.4" class="st0" width="7" height="7"/>
	<rect x="7.3" y="43.6" class="st0" width="7" height="7"/>
	<rect x="7.3" y="50.9" class="st0" width="7" height="7"/>
	<rect x="7.3" y="58.1" class="st0" width="7" height="7"/>
	<rect x="7.3" y="65.4" class="st0" width="7" height="7"/>
	<rect y="109" class="st0" width="7" height="7"/>
	<rect x="7.3" y="108.9" class="st0" width="7" height="7"/>
	<rect x="7.3" y="116.2" class="st0" width="7" height="7"/>
	<rect x="7.3" y="123.5" class="st0" width="7" height="7"/>
	<rect x="14.6" y="21.8" class="st0" width="7" height="7"/>
	<rect x="14.6" y="29.1" class="st0" width="7" height="7"/>
	<rect x="14.6" y="36.4" class="st0" width="7" height="7"/>
	<rect x="14.6" y="43.6" class="st0" width="7" height="7"/>
	<rect x="14.6" y="123.5" class="st0" width="7" height="7"/>
	<rect x="14.6" y="130.7" class="st0" width="7" height="7"/>
	<rect x="14.6" y="138" class="st0" width="7" height="7"/>
	<rect x="21.8" y="21.8" class="st0" width="7" height="7"/>
	<rect x="21.8" y="29.1" class="st0" width="7" height="7"/>
	<rect x="21.8" y="138" class="st0" width="7" height="7"/>
	<rect x="21.8" y="145.2" class="st0" width="7" height="7"/>
	<rect x="29.1" y="14.6" class="st0" width="7" height="7"/>
	<rect x="29.1" y="21.8" class="st0" width="7" height="7"/>
	<rect x="29.1" y="145.2" class="st0" width="7" height="7"/>
	<rect x="29.1" y="152.5" class="st0" width="7" height="7"/>
	<rect x="36.3" y="7.3" class="st0" width="7" height="7"/>
	<rect x="36.3" y="14.6" class="st0" width="7" height="7"/>
	<rect x="36.3" y="29.1" class="st0" width="7" height="7"/>
	<rect x="36.3" y="36.4" class="st0" width="7" height="7"/>
	<rect x="36.3" y="43.6" class="st0" width="7" height="7"/>
	<rect x="36.3" y="145.2" class="st0" width="7" height="7"/>
	<rect x="50.8" y="145.2" class="st0" width="7" height="7"/>
	<rect x="36.3" y="152.5" class="st0" width="7" height="7"/>
	<rect x="43.6" y="7.3" class="st0" width="7" height="7"/>
	<rect x="43.6" y="21.8" class="st0" width="7" height="7"/>
	<rect x="43.6" y="29.1" class="st0" width="7" height="7"/>
	<rect x="43.6" y="43.6" class="st0" width="7" height="7"/>
	<rect x="43.6" y="50.9" class="st0" width="7" height="7"/>
	<rect x="43.6" y="123.5" class="st0" width="7" height="7"/>
	<rect x="43.6" y="130.7" class="st0" width="7" height="7"/>
	<rect x="43.6" y="138" class="st0" width="7" height="7"/>
	<rect x="43.6" y="152.5" class="st0" width="7" height="7"/>
	<rect x="43.6" y="159.8" class="st0" width="7" height="7"/>
	<rect x="50.9" y="7.3" class="st0" width="7" height="7"/>
	<rect x="50.9" y="21.8" class="st0" width="7" height="7"/>
	<rect x="50.9" y="43.6" class="st0" width="7" height="7"/>
	<rect x="50.9" y="50.9" class="st0" width="7" height="7"/>
	<rect x="50.9" y="58.1" class="st0" width="7" height="7"/>
	<rect x="50.9" y="116.2" class="st0" width="7" height="7"/>
	<rect x="50.9" y="123.5" class="st0" width="7" height="7"/>
	<rect x="50.9" y="130.7" class="st0" width="7" height="7"/>
	<rect x="58" y="145.2" class="st0" width="7" height="7"/>
	<rect x="58.1" y="123.5" class="st0" width="7" height="7"/>
	<rect x="50.9" y="159.8" class="st0" width="7" height="7"/>
	<rect x="58.1" y="0" class="st0" width="7" height="7"/>
	<rect x="58.1" y="7.3" class="st0" width="7" height="7"/>
	<rect x="58.1" y="21.8" class="st0" width="7" height="7"/>
	<rect x="58.1" y="29.1" class="st0" width="7" height="7"/>
	<rect x="58.1" y="36.4" class="st0" width="7" height="7"/>
	<rect x="58.1" y="43.6" class="st0" width="7" height="7"/>
	<rect x="58.1" y="50.9" class="st0" width="7" height="7"/>
	<rect x="58.1" y="72.7" class="st0" width="7" height="7"/>
	<rect x="58.1" y="79.9" class="st0" width="7" height="7"/>
	<rect x="58.1" y="87.2" class="st0" width="7" height="7"/>
	<rect x="58.1" y="94.4" class="st0" width="7" height="7"/>
	<rect x="58.1" y="108.9" class="st0" width="7" height="7"/>
	<rect x="58.1" y="116.2" class="st0" width="7" height="7"/>
	<rect x="65.3" y="116.2" class="st0" width="7" height="7"/>
	<rect x="58.1" y="159.8" class="st0" width="7" height="7"/>
	<rect x="65.4" y="0" class="st0" width="7" height="7"/>
	<rect x="65.4" y="7.3" class="st0" width="7" height="7"/>
	<rect x="65.4" y="29.1" class="st0" width="7" height="7"/>
	<rect x="65.4" y="36.4" class="st0" width="7" height="7"/>
	<rect x="65.4" y="43.6" class="st0" width="7" height="7"/>
	<rect x="65.4" y="50.9" class="st0" width="7" height="7"/>
	<rect x="65.4" y="65.4" class="st0" width="7" height="7"/>
	<rect x="65.4" y="72.7" class="st0" width="7" height="7"/>
	<rect x="65.4" y="79.9" class="st0" width="7" height="7"/>
	<rect x="65.4" y="87.2" class="st0" width="7" height="7"/>
	<rect x="65.4" y="94.4" class="st0" width="7" height="7"/>
	<rect x="65.4" y="101.7" class="st0" width="7" height="7"/>
	<rect x="65.4" y="123.5" class="st0" width="7" height="7"/>
	<rect x="65.4" y="130.7" class="st0" width="7" height="7"/>
	<rect x="65.4" y="138" class="st0" width="7" height="7"/>
	<rect x="65.4" y="145.2" class="st0" width="7" height="7"/>
	<rect x="65.4" y="159.8" class="st0" width="7" height="7"/>
	<rect x="72.6" y="159.8" class="st0" width="7" height="7"/>
	<rect x="87.1" y="159.8" class="st0" width="7" height="7"/>
	<rect x="65.4" y="167" class="st0" width="7" height="7"/>
	<rect x="72.6" y="0" class="st0" width="7" height="7"/>
	<rect x="72.6" y="58.1" class="st0" width="7" height="7"/>
	<rect x="72.6" y="65.4" class="st0" width="7" height="7"/>
	<rect x="72.6" y="72.7" class="st0" width="7" height="7"/>
	<rect x="72.6" y="79.9" class="st0" width="7" height="7"/>
	<rect x="72.6" y="87.2" class="st0" width="7" height="7"/>
	<rect x="72.6" y="94.4" class="st0" width="7" height="7"/>
	<rect x="72.6" y="101.7" class="st0" width="7" height="7"/>
	<rect x="72.6" y="116.2" class="st0" width="7" height="7"/>
	<rect x="72.6" y="123.5" class="st0" width="7" height="7"/>
	<rect x="72.6" y="130.7" class="st0" width="7" height="7"/>
	<rect x="72.6" y="167" class="st0" width="7" height="7"/>
	<rect x="79.9" y="0" class="st0" width="7" height="7"/>
	<rect x="79.9" y="58.1" class="st0" width="7" height="7"/>
	<rect x="79.9" y="65.4" class="st0" width="7" height="7"/>
	<rect x="79.9" y="72.7" class="st0" width="7" height="7"/>
	<rect x="79.9" y="79.9" class="st0" width="7" height="7"/>
	<rect x="79.9" y="87.2" class="st0" width="7" height="7"/>
	<rect x="79.9" y="94.4" class="st0" width="7" height="7"/>
	<rect x="79.9" y="101.7" class="st0" width="7" height="7"/>
	<rect x="79.9" y="167" class="st0" width="7" height="7"/>
	<rect x="87.2" y="0" class="st0" width="7" height="7"/>
	<rect x="87.2" y="58.1" class="st0" width="7" height="7"/>
	<rect x="87.2" y="65.4" class="st0" width="7" height="7"/>
	<rect x="87.2" y="72.7" class="st0" width="7" height="7"/>
	<rect x="87.2" y="79.9" class="st0" width="7" height="7"/>
	<rect x="87.2" y="87.2" class="st0" width="7" height="7"/>
	<rect x="87.2" y="94.4" class="st0" width="7" height="7"/>
	<rect x="87.2" y="101.7" class="st0" width="7" height="7"/>
	<rect x="87.2" y="167" class="st0" width="7" height="7"/>
	<rect x="94.4" y="0" class="st0" width="7" height="7"/>
	<rect x="94.4" y="7.3" class="st0" width="7" height="7"/>
	<rect x="94.4" y="65.4" class="st0" width="7" height="7"/>
	<rect x="101.6" y="65.4" class="st0" width="7" height="7"/>
	<rect x="94.4" y="72.7" class="st0" width="7" height="7"/>
	<rect x="94.4" y="79.9" class="st0" width="7" height="7"/>
	<rect x="94.4" y="87.2" class="st0" width="7" height="7"/>
	<rect x="94.4" y="94.4" class="st0" width="7" height="7"/>
	<rect x="94.4" y="101.7" class="st0" width="7" height="7"/>
	<rect x="94.4" y="159.8" class="st0" width="7" height="7"/>
	<rect x="94.4" y="167" class="st0" width="7" height="7"/>
	<rect x="101.7" y="0" class="st0" width="7" height="7"/>
	<rect x="101.7" y="7.3" class="st0" width="7" height="7"/>
	<rect x="101.7" y="72.7" class="st0" width="7" height="7"/>
	<rect x="101.7" y="79.9" class="st0" width="7" height="7"/>
	<rect x="101.7" y="87.2" class="st0" width="7" height="7"/>
	<rect x="101.7" y="94.4" class="st0" width="7" height="7"/>
	<rect x="116.2" y="79.9" class="st0" width="7" height="7"/>
	<rect x="116.2" y="87.2" class="st0" width="7" height="7"/>
	<rect x="101.7" y="159.8" class="st0" width="7" height="7"/>
	<rect x="101.7" y="167" class="st0" width="7" height="7"/>
	<rect x="108.9" y="7.3" class="st0" width="7" height="7"/>
	<rect x="108.9" y="152.5" class="st0" width="7" height="7"/>
	<rect x="108.9" y="159.8" class="st0" width="7" height="7"/>
	<rect x="116.2" y="7.3" class="st0" width="7" height="7"/>
	<rect x="116.2" y="14.6" class="st0" width="7" height="7"/>
	<rect x="116.2" y="72.7" class="st0" width="7" height="7"/>
	<rect x="123.4" y="79.9" class="st0" width="7" height="7"/>
	<rect x="123.4" y="87.2" class="st0" width="7" height="7"/>
	<rect x="123.4" y="94.4" class="st0" width="7" height="7"/>
	<rect x="123.4" y="72.7" class="st0" width="7" height="7"/>
	<rect x="130.7" y="79.9" class="st0" width="7" height="7"/>
	<rect x="130.7" y="87.2" class="st0" width="7" height="7"/>
	<rect x="130.7" y="94.4" class="st0" width="7" height="7"/>
	<rect x="130.7" y="72.7" class="st0" width="7" height="7"/>
	<rect x="138" y="94.4" class="st0" width="7" height="7"/>
	<rect x="137.9" y="72.7" class="st0" width="7" height="7"/>
	<rect x="145.2" y="87.2" class="st0" width="7" height="7"/>
	<rect x="152.5" y="79.9" class="st0" width="7" height="7"/>
	<rect x="152.5" y="87.2" class="st0" width="7" height="7"/>
	<rect x="145.2" y="94.4" class="st0" width="7" height="7"/>
	<rect x="145.2" y="72.7" class="st0" width="7" height="7"/>
	<rect x="116.2" y="152.5" class="st0" width="7" height="7"/>
	<rect x="116.2" y="159.8" class="st0" width="7" height="7"/>
	<rect x="123.5" y="14.6" class="st0" width="7" height="7"/>
	<rect x="123.5" y="152.5" class="st0" width="7" height="7"/>
	<rect x="130.7" y="21.8" class="st0" width="7" height="7"/>
	<rect x="130.7" y="65.4" class="st0" width="7" height="7"/>
	<rect x="130.7" y="145.2" class="st0" width="7" height="7"/>
	<rect x="130.7" y="152.5" class="st0" width="7" height="7"/>
	<rect x="138" y="21.8" class="st0" width="7" height="7"/>
	<rect x="138" y="29.1" class="st0" width="7" height="7"/>
	<rect x="138" y="65.4" class="st0" width="7" height="7"/>
	<rect x="145.2" y="65.4" class="st0" width="7" height="7"/>
	<rect x="138" y="130.7" class="st0" width="7" height="7"/>
	<rect x="138" y="138" class="st0" width="7" height="7"/>
	<rect x="138" y="145.2" class="st0" width="7" height="7"/>
	<rect x="145.2" y="36.4" class="st0" width="7" height="7"/>
	<rect x="145.2" y="43.6" class="st0" width="7" height="7"/>
	<rect x="145.2" y="123.5" class="st0" width="7" height="7"/>
	<rect x="145.2" y="130.7" class="st0" width="7" height="7"/>
	<rect x="145.2" y="138" class="st0" width="7" height="7"/>
	<rect x="152.5" y="43.6" class="st0" width="7" height="7"/>
	<rect x="152.5" y="50.9" class="st0" width="7" height="7"/>
	<rect x="152.5" y="72.7" class="st0" width="7" height="7"/>
	<rect x="152.5" y="108.9" class="st0" width="7" height="7"/>
	<rect x="152.5" y="116.2" class="st0" width="7" height="7"/>
	<rect x="152.5" y="123.5" class="st0" width="7" height="7"/>
	<rect x="159.8" y="58.1" class="st0" width="7" height="7"/>
	<rect x="159.8" y="65.4" class="st0" width="7" height="7"/>
	<rect x="159.8" y="94.4" class="st0" width="7" height="7"/>
	<rect x="159.8" y="101.7" class="st0" width="7" height="7"/>
	<rect x="159.7" y="50.9" class="st0" width="7" height="7"/>
	<rect x="159.7" y="108.9" class="st0" width="7" height="7"/>
	<rect x="159.7" y="116.2" class="st0" width="7" height="7"/>
	<rect x="167" y="65.4" class="st0" width="7" height="7"/>
	<rect x="167" y="72.7" class="st0" width="7" height="7"/>
	<rect x="167" y="79.9" class="st0" width="7" height="7"/>
	<rect x="167" y="87.2" class="st0" width="7" height="7"/>
	<rect x="167" y="94.4" class="st0" width="7" height="7"/>
</g>
</svg>
