<?xml version="1.0" encoding="utf-8"?>
<!-- Generator: Adobe Illustrator 27.3.1, SVG Export Plug-In . SVG Version: 6.00 Build 0)  -->
<svg version="1.1" id="Слой_1" xmlns="http://www.w3.org/2000/svg" xmlns:xlink="http://www.w3.org/1999/xlink" x="0px" y="0px"
	 viewBox="0 0 348.2 79.5" style="enable-background:new 0 0 348.2 79.5;" xml:space="preserve">
<style type="text/css">
	.st0{fill:#1E0E01;}
</style>
<g>
	<rect class="st0" width="7" height="7"/>
	<rect y="7.3" class="st0" width="7" height="7"/>
	<rect x="7.3" class="st0" width="7" height="7"/>
	<rect x="7.3" y="7.3" class="st0" width="7" height="7"/>
	<rect x="14.5" class="st0" width="7" height="7"/>
	<rect x="14.5" y="7.3" class="st0" width="7" height="7"/>
	<rect x="21.8" class="st0" width="7" height="7"/>
	<rect x="21.8" y="7.3" class="st0" width="7" height="7"/>
	<rect x="29.1" class="st0" width="7" height="7"/>
	<rect x="29.1" y="7.3" class="st0" width="7" height="7"/>
	<rect x="36.3" class="st0" width="7" height="7"/>
	<rect x="36.3" y="7.3" class="st0" width="7" height="7"/>
	<rect x="43.6" class="st0" width="7" height="7"/>
	<rect x="43.6" y="7.3" class="st0" width="7" height="7"/>
	<rect x="50.8" class="st0" width="7" height="7"/>
	<rect x="50.8" y="7.3" class="st0" width="7" height="7"/>
	<rect x="58.1" class="st0" width="7" height="7"/>
	<rect x="58.1" y="7.3" class="st0" width="7" height="7"/>
	<rect x="65.4" class="st0" width="7" height="7"/>
	<rect x="65.4" y="7.3" class="st0" width="7" height="7"/>
	<rect x="72.6" class="st0" width="7" height="7"/>
	<rect x="72.6" y="7.3" class="st0" width="7" height="7"/>
	<rect x="79.9" class="st0" width="7" height="7"/>
	<rect x="87.2" class="st0" width="7" height="7"/>
	<rect x="94.4" class="st0" width="7" height="7"/>
	<rect x="79.9" y="7.3" class="st0" width="7" height="7"/>
	<rect x="101.7" class="st0" width="7" height="7"/>
	<rect x="109" class="st0" width="7" height="7"/>
	<rect x="116.2" class="st0" width="7" height="7"/>
	<rect x="116.2" y="7.3" class="st0" width="7" height="7"/>
	<rect x="123.4" class="st0" width="7" height="7"/>
	<rect x="123.4" y="7.3" class="st0" width="7" height="7"/>
	<rect x="130.7" class="st0" width="7" height="7"/>
	<rect x="130.7" y="7.3" class="st0" width="7" height="7"/>
	<rect x="138" class="st0" width="7" height="7"/>
	<rect x="138" y="7.3" class="st0" width="7" height="7"/>
	<rect x="145.2" class="st0" width="7" height="7"/>
	<rect x="145.2" y="7.3" class="st0" width="7" height="7"/>
	<rect x="152.5" class="st0" width="7" height="7"/>
	<rect x="152.5" y="7.3" class="st0" width="7" height="7"/>
	<rect x="159.7" class="st0" width="7" height="7"/>
	<rect x="159.7" y="7.3" class="st0" width="7" height="7"/>
	<rect x="167" class="st0" width="7" height="7"/>
	<rect x="167" y="7.3" class="st0" width="7" height="7"/>
	<rect x="174.3" class="st0" width="7" height="7"/>
	<rect x="174.3" y="7.3" class="st0" width="7" height="7"/>
	<rect x="181.5" class="st0" width="7" height="7"/>
	<rect x="181.5" y="7.3" class="st0" width="7" height="7"/>
	<rect x="188.8" class="st0" width="7" height="7"/>
	<rect x="188.8" y="7.3" class="st0" width="7" height="7"/>
	<rect x="196" class="st0" width="7" height="7"/>
	<rect x="196" y="7.3" class="st0" width="7" height="7"/>
	<rect x="203.3" class="st0" width="7" height="7"/>
	<rect x="203.3" y="7.3" class="st0" width="7" height="7"/>
	<rect x="210.6" class="st0" width="7" height="7"/>
	<rect x="217.9" class="st0" width="7" height="7"/>
	<rect x="225.1" class="st0" width="7" height="7"/>
	<rect x="210.6" y="7.3" class="st0" width="7" height="7"/>
	<rect x="232.3" class="st0" width="7" height="7"/>
	<rect x="232.3" y="7.3" class="st0" width="7" height="7"/>
	<rect x="239.6" class="st0" width="7" height="7"/>
	<rect x="239.6" y="7.3" class="st0" width="7" height="7"/>
	<rect x="246.9" class="st0" width="7" height="7"/>
	<rect x="246.9" y="7.3" class="st0" width="7" height="7"/>
	<rect x="254.1" class="st0" width="7" height="7"/>
	<rect x="254.1" y="7.3" class="st0" width="7" height="7"/>
	<rect x="261.4" class="st0" width="7" height="7"/>
	<rect x="261.4" y="7.3" class="st0" width="7" height="7"/>
	<rect x="268.6" class="st0" width="7" height="7"/>
	<rect x="268.6" y="7.3" class="st0" width="7" height="7"/>
	<rect x="275.9" class="st0" width="7" height="7"/>
	<rect x="275.9" y="7.3" class="st0" width="7" height="7"/>
	<rect x="283.2" class="st0" width="7" height="7"/>
	<rect x="283.2" y="7.3" class="st0" width="7" height="7"/>
	<rect x="290.4" class="st0" width="7" height="7"/>
	<rect x="290.4" y="7.3" class="st0" width="7" height="7"/>
	<rect x="297.7" class="st0" width="7" height="7"/>
	<rect x="297.7" y="7.3" class="st0" width="7" height="7"/>
	<rect x="304.9" class="st0" width="7" height="7"/>
	<rect x="304.9" y="7.3" class="st0" width="7" height="7"/>
	<rect x="312.2" class="st0" width="7" height="7"/>
	<rect x="312.2" y="7.3" class="st0" width="7" height="7"/>
	<rect x="319.5" class="st0" width="7" height="7"/>
	<rect x="319.5" y="7.3" class="st0" width="7" height="7"/>
	<rect x="326.7" class="st0" width="7" height="7"/>
	<rect x="326.7" y="7.3" class="st0" width="7" height="7"/>
	<rect x="334" class="st0" width="7" height="7"/>
	<rect x="334" y="7.3" class="st0" width="7" height="7"/>
	<rect x="341.2" class="st0" width="7" height="7"/>
	<rect x="341.2" y="7.3" class="st0" width="7" height="7"/>
	<rect y="14.5" class="st0" width="7" height="7"/>
	<rect x="7.3" y="14.5" class="st0" width="7" height="7"/>
	<rect x="14.5" y="14.5" class="st0" width="7" height="7"/>
	<rect x="21.8" y="14.5" class="st0" width="7" height="7"/>
	<rect x="29.1" y="14.5" class="st0" width="7" height="7"/>
	<rect x="36.3" y="14.5" class="st0" width="7" height="7"/>
	<rect x="43.6" y="14.5" class="st0" width="7" height="7"/>
	<rect x="50.8" y="14.5" class="st0" width="7" height="7"/>
	<rect y="21.8" class="st0" width="7" height="7"/>
	<rect y="29" class="st0" width="7" height="7"/>
	<rect y="36.3" class="st0" width="7" height="7"/>
	<rect y="43.6" class="st0" width="7" height="7"/>
	<rect y="50.8" class="st0" width="7" height="7"/>
	<rect y="58.1" class="st0" width="7" height="7"/>
	<rect y="65.3" class="st0" width="7" height="7"/>
	<rect y="72.6" class="st0" width="7" height="7"/>
	<rect x="7.3" y="21.8" class="st0" width="7" height="7"/>
	<rect x="7.3" y="29" class="st0" width="7" height="7"/>
	<rect x="7.3" y="36.3" class="st0" width="7" height="7"/>
	<rect x="7.3" y="43.6" class="st0" width="7" height="7"/>
	<rect x="7.3" y="50.8" class="st0" width="7" height="7"/>
	<rect x="7.3" y="58.1" class="st0" width="7" height="7"/>
	<rect x="7.3" y="65.3" class="st0" width="7" height="7"/>
	<rect x="7.3" y="72.6" class="st0" width="7" height="7"/>
	<rect x="14.5" y="21.8" class="st0" width="7" height="7"/>
	<rect x="14.5" y="29" class="st0" width="7" height="7"/>
	<rect x="14.5" y="36.3" class="st0" width="7" height="7"/>
	<rect x="14.5" y="43.6" class="st0" width="7" height="7"/>
	<rect x="14.5" y="50.8" class="st0" width="7" height="7"/>
	<rect x="14.5" y="58.1" class="st0" width="7" height="7"/>
	<rect x="14.5" y="65.3" class="st0" width="7" height="7"/>
	<rect x="14.5" y="72.6" class="st0" width="7" height="7"/>
	<rect x="21.8" y="21.8" class="st0" width="7" height="7"/>
	<rect x="21.8" y="29" class="st0" width="7" height="7"/>
	<rect x="21.8" y="36.3" class="st0" width="7" height="7"/>
	<rect x="21.8" y="43.6" class="st0" width="7" height="7"/>
	<rect x="21.8" y="50.8" class="st0" width="7" height="7"/>
	<rect x="21.8" y="58.1" class="st0" width="7" height="7"/>
	<rect x="21.8" y="65.3" class="st0" width="7" height="7"/>
	<rect x="21.8" y="72.6" class="st0" width="7" height="7"/>
	<rect x="29.1" y="21.8" class="st0" width="7" height="7"/>
	<rect x="29.1" y="29" class="st0" width="7" height="7"/>
	<rect x="29.1" y="36.3" class="st0" width="7" height="7"/>
	<rect x="29.1" y="43.6" class="st0" width="7" height="7"/>
	<rect x="29.1" y="50.8" class="st0" width="7" height="7"/>
	<rect x="29.1" y="58.1" class="st0" width="7" height="7"/>
	<rect x="29.1" y="65.3" class="st0" width="7" height="7"/>
	<rect x="29.1" y="72.6" class="st0" width="7" height="7"/>
	<rect x="36.3" y="21.8" class="st0" width="7" height="7"/>
	<rect x="36.3" y="29" class="st0" width="7" height="7"/>
	<rect x="36.3" y="36.3" class="st0" width="7" height="7"/>
	<rect x="36.3" y="43.6" class="st0" width="7" height="7"/>
	<rect x="36.3" y="50.8" class="st0" width="7" height="7"/>
	<rect x="36.3" y="58.1" class="st0" width="7" height="7"/>
	<rect x="36.3" y="65.3" class="st0" width="7" height="7"/>
	<rect x="36.3" y="72.6" class="st0" width="7" height="7"/>
	<rect x="43.6" y="21.8" class="st0" width="7" height="7"/>
	<rect x="43.6" y="29" class="st0" width="7" height="7"/>
	<rect x="43.6" y="36.3" class="st0" width="7" height="7"/>
	<rect x="43.6" y="43.6" class="st0" width="7" height="7"/>
	<rect x="43.6" y="50.8" class="st0" width="7" height="7"/>
	<rect x="43.6" y="58.1" class="st0" width="7" height="7"/>
	<rect x="43.6" y="65.3" class="st0" width="7" height="7"/>
	<rect x="43.6" y="72.6" class="st0" width="7" height="7"/>
	<rect x="50.8" y="21.8" class="st0" width="7" height="7"/>
	<rect x="50.8" y="29" class="st0" width="7" height="7"/>
	<rect x="50.8" y="36.3" class="st0" width="7" height="7"/>
	<rect x="50.8" y="43.6" class="st0" width="7" height="7"/>
	<rect x="50.8" y="50.8" class="st0" width="7" height="7"/>
	<rect x="50.8" y="58.1" class="st0" width="7" height="7"/>
	<rect x="50.8" y="65.3" class="st0" width="7" height="7"/>
	<rect x="50.8" y="72.6" class="st0" width="7" height="7"/>
	<rect x="58.1" y="14.5" class="st0" width="7" height="7"/>
	<rect x="65.4" y="14.5" class="st0" width="7" height="7"/>
	<rect x="72.6" y="14.5" class="st0" width="7" height="7"/>
	<rect x="79.9" y="14.5" class="st0" width="7" height="7"/>
	<rect x="101.7" y="14.5" class="st0" width="7" height="7"/>
	<rect x="123.4" y="14.5" class="st0" width="7" height="7"/>
	<rect x="58.1" y="21.8" class="st0" width="7" height="7"/>
	<rect x="58.1" y="29" class="st0" width="7" height="7"/>
	<rect x="58.1" y="36.3" class="st0" width="7" height="7"/>
	<rect x="58.1" y="43.6" class="st0" width="7" height="7"/>
	<rect x="58.1" y="50.8" class="st0" width="7" height="7"/>
	<rect x="58.1" y="58.1" class="st0" width="7" height="7"/>
	<rect x="58.1" y="65.3" class="st0" width="7" height="7"/>
	<rect x="58.1" y="72.6" class="st0" width="7" height="7"/>
	<rect x="65.4" y="21.8" class="st0" width="7" height="7"/>
	<rect x="65.4" y="29" class="st0" width="7" height="7"/>
	<rect x="65.4" y="36.3" class="st0" width="7" height="7"/>
	<rect x="65.4" y="43.6" class="st0" width="7" height="7"/>
	<rect x="65.4" y="50.8" class="st0" width="7" height="7"/>
	<rect x="65.4" y="58.1" class="st0" width="7" height="7"/>
	<rect x="65.4" y="65.3" class="st0" width="7" height="7"/>
	<rect x="65.4" y="72.6" class="st0" width="7" height="7"/>
	<rect x="72.6" y="21.8" class="st0" width="7" height="7"/>
	<rect x="72.6" y="29" class="st0" width="7" height="7"/>
	<rect x="72.6" y="36.3" class="st0" width="7" height="7"/>
	<rect x="72.6" y="43.6" class="st0" width="7" height="7"/>
	<rect x="72.6" y="50.8" class="st0" width="7" height="7"/>
	<rect x="72.6" y="58.1" class="st0" width="7" height="7"/>
	<rect x="72.6" y="65.3" class="st0" width="7" height="7"/>
	<rect x="72.6" y="72.6" class="st0" width="7" height="7"/>
	<rect x="79.9" y="21.8" class="st0" width="7" height="7"/>
	<rect x="79.9" y="29" class="st0" width="7" height="7"/>
	<rect x="101.7" y="29" class="st0" width="7" height="7"/>
	<rect x="79.9" y="36.3" class="st0" width="7" height="7"/>
	<rect x="116.3" y="36.3" class="st0" width="7" height="7"/>
	<rect x="79.9" y="43.6" class="st0" width="7" height="7"/>
	<rect x="79.9" y="50.8" class="st0" width="7" height="7"/>
	<rect x="79.9" y="58.1" class="st0" width="7" height="7"/>
	<rect x="79.9" y="65.3" class="st0" width="7" height="7"/>
	<rect x="79.9" y="72.6" class="st0" width="7" height="7"/>
	<rect x="87.1" y="72.6" class="st0" width="7" height="7"/>
	<rect x="94.4" y="72.6" class="st0" width="7" height="7"/>
	<rect x="101.7" y="21.8" class="st0" width="7" height="7"/>
	<rect x="101.7" y="43.6" class="st0" width="7" height="7"/>
	<rect x="101.7" y="50.8" class="st0" width="7" height="7"/>
	<rect x="101.7" y="58.1" class="st0" width="7" height="7"/>
	<rect x="101.7" y="72.6" class="st0" width="7" height="7"/>
	<rect x="108.9" y="72.6" class="st0" width="7" height="7"/>
	<rect x="116.2" y="65.3" class="st0" width="7" height="7"/>
	<rect x="116.2" y="72.6" class="st0" width="7" height="7"/>
	<rect x="123.4" y="21.8" class="st0" width="7" height="7"/>
	<rect x="123.4" y="29" class="st0" width="7" height="7"/>
	<rect x="123.4" y="36.3" class="st0" width="7" height="7"/>
	<rect x="123.4" y="43.6" class="st0" width="7" height="7"/>
	<rect x="123.4" y="50.8" class="st0" width="7" height="7"/>
	<rect x="123.4" y="58.1" class="st0" width="7" height="7"/>
	<rect x="123.4" y="65.3" class="st0" width="7" height="7"/>
	<rect x="123.4" y="72.6" class="st0" width="7" height="7"/>
	<rect x="130.7" y="14.5" class="st0" width="7" height="7"/>
	<rect x="138" y="14.5" class="st0" width="7" height="7"/>
	<rect x="145.2" y="14.5" class="st0" width="7" height="7"/>
	<rect x="152.5" y="14.5" class="st0" width="7" height="7"/>
	<rect x="159.7" y="14.5" class="st0" width="7" height="7"/>
	<rect x="167" y="14.5" class="st0" width="7" height="7"/>
	<rect x="174.3" y="14.5" class="st0" width="7" height="7"/>
	<rect x="181.5" y="14.5" class="st0" width="7" height="7"/>
	<rect x="188.8" y="14.5" class="st0" width="7" height="7"/>
	<rect x="196" y="14.5" class="st0" width="7" height="7"/>
	<rect x="130.7" y="21.8" class="st0" width="7" height="7"/>
	<rect x="130.7" y="36.3" class="st0" width="7" height="7"/>
	<rect x="130.7" y="43.6" class="st0" width="7" height="7"/>
	<rect x="130.7" y="65.3" class="st0" width="7" height="7"/>
	<rect x="130.7" y="72.6" class="st0" width="7" height="7"/>
	<rect x="138" y="36.3" class="st0" width="7" height="7"/>
	<rect x="138" y="72.6" class="st0" width="7" height="7"/>
	<rect x="145.2" y="29" class="st0" width="7" height="7"/>
	<rect x="145.2" y="36.3" class="st0" width="7" height="7"/>
	<rect x="145.2" y="50.8" class="st0" width="7" height="7"/>
	<rect x="145.2" y="58.1" class="st0" width="7" height="7"/>
	<rect x="145.2" y="72.6" class="st0" width="7" height="7"/>
	<rect x="152.5" y="65.3" class="st0" width="7" height="7"/>
	<rect x="152.5" y="72.6" class="st0" width="7" height="7"/>
	<rect x="159.7" y="21.8" class="st0" width="7" height="7"/>
	<rect x="159.7" y="72.6" class="st0" width="7" height="7"/>
	<rect x="167" y="21.8" class="st0" width="7" height="7"/>
	<rect x="167" y="29" class="st0" width="7" height="7"/>
	<rect x="167" y="36.3" class="st0" width="7" height="7"/>
	<rect x="167" y="43.6" class="st0" width="7" height="7"/>
	<rect x="167" y="50.8" class="st0" width="7" height="7"/>
	<rect x="167" y="58.1" class="st0" width="7" height="7"/>
	<rect x="167" y="65.3" class="st0" width="7" height="7"/>
	<rect x="167" y="72.6" class="st0" width="7" height="7"/>
	<rect x="174.3" y="21.8" class="st0" width="7" height="7"/>
	<rect x="174.3" y="65.3" class="st0" width="7" height="7"/>
	<rect x="174.3" y="72.6" class="st0" width="7" height="7"/>
	<rect x="181.5" y="72.6" class="st0" width="7" height="7"/>
	<rect x="188.8" y="29" class="st0" width="7" height="7"/>
	<rect x="188.8" y="36.3" class="st0" width="7" height="7"/>
	<rect x="188.8" y="43.6" class="st0" width="7" height="7"/>
	<rect x="188.8" y="50.8" class="st0" width="7" height="7"/>
	<rect x="188.8" y="58.1" class="st0" width="7" height="7"/>
	<rect x="188.8" y="72.6" class="st0" width="7" height="7"/>
	<rect x="196" y="36.3" class="st0" width="7" height="7"/>
	<rect x="196" y="43.6" class="st0" width="7" height="7"/>
	<rect x="196" y="50.8" class="st0" width="7" height="7"/>
	<rect x="196" y="72.6" class="st0" width="7" height="7"/>
	<rect x="203.3" y="14.5" class="st0" width="7" height="7"/>
	<rect x="210.6" y="14.5" class="st0" width="7" height="7"/>
	<rect x="232.3" y="14.5" class="st0" width="7" height="7"/>
	<rect x="239.6" y="14.5" class="st0" width="7" height="7"/>
	<rect x="246.9" y="14.5" class="st0" width="7" height="7"/>
	<rect x="254.1" y="14.5" class="st0" width="7" height="7"/>
	<rect x="261.4" y="14.5" class="st0" width="7" height="7"/>
	<rect x="268.6" y="14.5" class="st0" width="7" height="7"/>
	<rect x="203.3" y="21.8" class="st0" width="7" height="7"/>
	<rect x="203.3" y="36.3" class="st0" width="7" height="7"/>
	<rect x="203.3" y="43.6" class="st0" width="7" height="7"/>
	<rect x="203.3" y="50.8" class="st0" width="7" height="7"/>
	<rect x="203.3" y="65.3" class="st0" width="7" height="7"/>
	<rect x="203.3" y="72.6" class="st0" width="7" height="7"/>
	<rect x="210.6" y="21.8" class="st0" width="7" height="7"/>
	<rect x="210.6" y="29" class="st0" width="7" height="7"/>
	<rect x="210.6" y="36.3" class="st0" width="7" height="7"/>
	<rect x="210.6" y="43.6" class="st0" width="7" height="7"/>
	<rect x="210.6" y="50.8" class="st0" width="7" height="7"/>
	<rect x="210.6" y="58.1" class="st0" width="7" height="7"/>
	<rect x="210.6" y="65.3" class="st0" width="7" height="7"/>
	<rect x="210.6" y="72.6" class="st0" width="7" height="7"/>
	<rect x="217.8" y="72.6" class="st0" width="7" height="7"/>
	<rect x="225.1" y="72.6" class="st0" width="7" height="7"/>
	<rect x="232.3" y="21.8" class="st0" width="7" height="7"/>
	<rect x="232.3" y="29" class="st0" width="7" height="7"/>
	<rect x="232.3" y="50.8" class="st0" width="7" height="7"/>
	<rect x="232.3" y="58.1" class="st0" width="7" height="7"/>
	<rect x="232.3" y="65.3" class="st0" width="7" height="7"/>
	<rect x="232.3" y="72.6" class="st0" width="7" height="7"/>
	<rect x="239.6" y="21.8" class="st0" width="7" height="7"/>
	<rect x="239.6" y="65.3" class="st0" width="7" height="7"/>
	<rect x="239.6" y="72.6" class="st0" width="7" height="7"/>
	<rect x="246.9" y="36.3" class="st0" width="7" height="7"/>
	<rect x="246.9" y="43.6" class="st0" width="7" height="7"/>
	<rect x="246.9" y="72.6" class="st0" width="7" height="7"/>
	<rect x="254.1" y="29" class="st0" width="7" height="7"/>
	<rect x="254.1" y="36.3" class="st0" width="7" height="7"/>
	<rect x="254.1" y="43.6" class="st0" width="7" height="7"/>
	<rect x="254.1" y="50.8" class="st0" width="7" height="7"/>
	<rect x="254.1" y="58.1" class="st0" width="7" height="7"/>
	<rect x="254.1" y="72.6" class="st0" width="7" height="7"/>
	<rect x="261.4" y="21.8" class="st0" width="7" height="7"/>
	<rect x="261.4" y="29" class="st0" width="7" height="7"/>
	<rect x="261.4" y="36.3" class="st0" width="7" height="7"/>
	<rect x="261.4" y="43.6" class="st0" width="7" height="7"/>
	<rect x="261.4" y="50.8" class="st0" width="7" height="7"/>
	<rect x="261.4" y="58.1" class="st0" width="7" height="7"/>
	<rect x="261.4" y="65.3" class="st0" width="7" height="7"/>
	<rect x="261.4" y="72.6" class="st0" width="7" height="7"/>
	<rect x="268.6" y="21.8" class="st0" width="7" height="7"/>
	<rect x="268.6" y="29" class="st0" width="7" height="7"/>
	<rect x="268.6" y="36.3" class="st0" width="7" height="7"/>
	<rect x="268.6" y="43.6" class="st0" width="7" height="7"/>
	<rect x="268.6" y="50.8" class="st0" width="7" height="7"/>
	<rect x="268.6" y="58.1" class="st0" width="7" height="7"/>
	<rect x="268.6" y="65.3" class="st0" width="7" height="7"/>
	<rect x="268.6" y="72.6" class="st0" width="7" height="7"/>
	<rect x="275.9" y="14.5" class="st0" width="7" height="7"/>
	<rect x="283.2" y="14.5" class="st0" width="7" height="7"/>
	<rect x="290.4" y="14.5" class="st0" width="7" height="7"/>
	<rect x="297.7" y="14.5" class="st0" width="7" height="7"/>
	<rect x="304.9" y="14.5" class="st0" width="7" height="7"/>
	<rect x="312.2" y="14.5" class="st0" width="7" height="7"/>
	<rect x="319.5" y="14.5" class="st0" width="7" height="7"/>
	<rect x="326.7" y="14.5" class="st0" width="7" height="7"/>
	<rect x="334" y="14.5" class="st0" width="7" height="7"/>
	<rect x="341.2" y="14.5" class="st0" width="7" height="7"/>
	<rect x="275.9" y="21.8" class="st0" width="7" height="7"/>
	<rect x="275.9" y="29" class="st0" width="7" height="7"/>
	<rect x="275.9" y="36.3" class="st0" width="7" height="7"/>
	<rect x="275.9" y="43.6" class="st0" width="7" height="7"/>
	<rect x="275.9" y="50.8" class="st0" width="7" height="7"/>
	<rect x="275.9" y="58.1" class="st0" width="7" height="7"/>
	<rect x="275.9" y="65.3" class="st0" width="7" height="7"/>
	<rect x="275.9" y="72.6" class="st0" width="7" height="7"/>
	<rect x="283.2" y="21.8" class="st0" width="7" height="7"/>
	<rect x="283.2" y="29" class="st0" width="7" height="7"/>
	<rect x="283.2" y="36.3" class="st0" width="7" height="7"/>
	<rect x="283.2" y="43.6" class="st0" width="7" height="7"/>
	<rect x="283.2" y="50.8" class="st0" width="7" height="7"/>
	<rect x="283.2" y="58.1" class="st0" width="7" height="7"/>
	<rect x="283.2" y="65.3" class="st0" width="7" height="7"/>
	<rect x="283.2" y="72.6" class="st0" width="7" height="7"/>
	<rect x="290.4" y="21.8" class="st0" width="7" height="7"/>
	<rect x="290.4" y="29" class="st0" width="7" height="7"/>
	<rect x="290.4" y="36.3" class="st0" width="7" height="7"/>
	<rect x="290.4" y="43.6" class="st0" width="7" height="7"/>
	<rect x="290.4" y="50.8" class="st0" width="7" height="7"/>
	<rect x="290.4" y="58.1" class="st0" width="7" height="7"/>
	<rect x="290.4" y="65.3" class="st0" width="7" height="7"/>
	<rect x="290.4" y="72.6" class="st0" width="7" height="7"/>
	<rect x="297.7" y="21.8" class="st0" width="7" height="7"/>
	<rect x="297.7" y="29" class="st0" width="7" height="7"/>
	<rect x="297.7" y="36.3" class="st0" width="7" height="7"/>
	<rect x="297.7" y="43.6" class="st0" width="7" height="7"/>
	<rect x="297.7" y="50.8" class="st0" width="7" height="7"/>
	<rect x="297.7" y="58.1" class="st0" width="7" height="7"/>
	<rect x="297.7" y="65.3" class="st0" width="7" height="7"/>
	<rect x="297.7" y="72.6" class="st0" width="7" height="7"/>
	<rect x="304.9" y="21.8" class="st0" width="7" height="7"/>
	<rect x="304.9" y="29" class="st0" width="7" height="7"/>
	<rect x="304.9" y="36.3" class="st0" width="7" height="7"/>
	<rect x="304.9" y="43.6" class="st0" width="7" height="7"/>
	<rect x="304.9" y="50.8" class="st0" width="7" height="7"/>
	<rect x="304.9" y="58.1" class="st0" width="7" height="7"/>
	<rect x="304.9" y="65.3" class="st0" width="7" height="7"/>
	<rect x="304.9" y="72.6" class="st0" width="7" height="7"/>
	<rect x="312.2" y="21.8" class="st0" width="7" height="7"/>
	<rect x="312.2" y="29" class="st0" width="7" height="7"/>
	<rect x="312.2" y="36.3" class="st0" width="7" height="7"/>
	<rect x="312.2" y="43.6" class="st0" width="7" height="7"/>
	<rect x="312.2" y="50.8" class="st0" width="7" height="7"/>
	<rect x="312.2" y="58.1" class="st0" width="7" height="7"/>
	<rect x="312.2" y="65.3" class="st0" width="7" height="7"/>
	<rect x="312.2" y="72.6" class="st0" width="7" height="7"/>
	<rect x="319.5" y="21.8" class="st0" width="7" height="7"/>
	<rect x="319.5" y="29" class="st0" width="7" height="7"/>
	<rect x="319.5" y="36.3" class="st0" width="7" height="7"/>
	<rect x="319.5" y="43.6" class="st0" width="7" height="7"/>
	<rect x="319.5" y="50.8" class="st0" width="7" height="7"/>
	<rect x="319.5" y="58.1" class="st0" width="7" height="7"/>
	<rect x="319.5" y="65.3" class="st0" width="7" height="7"/>
	<rect x="319.5" y="72.6" class="st0" width="7" height="7"/>
	<rect x="326.7" y="21.8" class="st0" width="7" height="7"/>
	<rect x="326.7" y="29" class="st0" width="7" height="7"/>
	<rect x="326.7" y="36.3" class="st0" width="7" height="7"/>
	<rect x="326.7" y="43.6" class="st0" width="7" height="7"/>
	<rect x="326.7" y="50.8" class="st0" width="7" height="7"/>
	<rect x="326.7" y="58.1" class="st0" width="7" height="7"/>
	<rect x="326.7" y="65.3" class="st0" width="7" height="7"/>
	<rect x="326.7" y="72.6" class="st0" width="7" height="7"/>
	<rect x="334" y="21.8" class="st0" width="7" height="7"/>
	<rect x="334" y="29" class="st0" width="7" height="7"/>
	<rect x="334" y="36.3" class="st0" width="7" height="7"/>
	<rect x="334" y="43.6" class="st0" width="7" height="7"/>
	<rect x="334" y="50.8" class="st0" width="7" height="7"/>
	<rect x="334" y="58.1" class="st0" width="7" height="7"/>
	<rect x="334" y="65.3" class="st0" width="7" height="7"/>
	<rect x="334" y="72.6" class="st0" width="7" height="7"/>
	<rect x="341.2" y="21.8" class="st0" width="7" height="7"/>
	<rect x="341.2" y="29" class="st0" width="7" height="7"/>
	<rect x="341.2" y="36.3" class="st0" width="7" height="7"/>
	<rect x="341.2" y="43.6" class="st0" width="7" height="7"/>
	<rect x="341.2" y="50.8" class="st0" width="7" height="7"/>
	<rect x="341.2" y="58.1" class="st0" width="7" height="7"/>
	<rect x="341.2" y="65.3" class="st0" width="7" height="7"/>
	<rect x="341.2" y="72.6" class="st0" width="7" height="7"/>
</g>
</svg>
