<?xml version="1.0" encoding="utf-8"?>
<!-- Generator: Adobe Illustrator 27.3.1, SVG Export Plug-In . SVG Version: 6.00 Build 0)  -->
<svg version="1.1" id="Слой_1" xmlns="http://www.w3.org/2000/svg" xmlns:xlink="http://www.w3.org/1999/xlink" x="0px" y="0px"
	 viewBox="0 0 173.98 65.08" style="enable-background:new 0 0 173.98 65.08;" xml:space="preserve">
<style type="text/css">
	.st0{fill:#1E0E01;}
</style>
<g>
	<rect x="21.78" y="7.26" class="st0" width="7" height="7"/>
	<rect x="29.04" y="7.26" class="st0" width="7" height="7"/>
	<rect x="36.3" y="7.26" class="st0" width="7" height="7"/>
	<rect x="43.56" y="7.26" class="st0" width="7" height="7"/>
	<rect x="50.82" y="7.26" class="st0" width="7" height="7"/>
	<rect x="58.08" y="7.26" class="st0" width="7" height="7"/>
	<rect x="65.34" y="7.26" class="st0" width="7" height="7"/>
	<rect x="72.6" y="7.26" class="st0" width="7" height="7"/>
	<rect x="79.86" y="7.26" class="st0" width="7" height="7"/>
	<rect x="87.12" y="7.26" class="st0" width="7" height="7"/>
	<rect x="94.38" y="7.26" class="st0" width="7" height="7"/>
	<rect x="101.64" y="7.26" class="st0" width="7" height="7"/>
	<rect x="108.9" y="7.26" class="st0" width="7" height="7"/>
	<rect x="116.16" y="7.26" class="st0" width="7" height="7"/>
	<rect x="123.42" y="7.26" class="st0" width="7" height="7"/>
	<rect x="130.68" y="7.26" class="st0" width="7" height="7"/>
	<rect x="137.94" y="7.26" class="st0" width="7" height="7"/>
	<rect x="145.2" y="7.26" class="st0" width="7" height="7"/>
	<rect x="152.46" y="7.26" class="st0" width="7" height="7"/>
	<rect x="14.52" y="14.52" class="st0" width="7" height="7"/>
	<rect x="29.04" y="14.52" class="st0" width="7" height="7"/>
	<rect x="36.3" y="14.52" class="st0" width="7" height="7"/>
	<rect x="43.56" y="14.52" class="st0" width="7" height="7"/>
	<rect x="50.82" y="14.52" class="st0" width="7" height="7"/>
	<rect x="58.08" y="14.52" class="st0" width="7" height="7"/>
	<rect x="65.34" y="14.52" class="st0" width="7" height="7"/>
	<rect x="72.6" y="14.52" class="st0" width="7" height="7"/>
	<rect x="79.86" y="14.52" class="st0" width="7" height="7"/>
	<rect x="87.12" y="14.52" class="st0" width="7" height="7"/>
	<rect x="94.38" y="14.52" class="st0" width="7" height="7"/>
	<rect x="101.64" y="14.52" class="st0" width="7" height="7"/>
	<rect x="108.9" y="14.52" class="st0" width="7" height="7"/>
	<rect x="116.16" y="14.52" class="st0" width="7" height="7"/>
	<rect x="123.42" y="14.52" class="st0" width="7" height="7"/>
	<rect x="130.68" y="14.52" class="st0" width="7" height="7"/>
	<rect x="137.94" y="14.52" class="st0" width="7" height="7"/>
	<rect x="145.2" y="14.52" class="st0" width="7" height="7"/>
	<rect x="152.46" y="14.52" class="st0" width="7" height="7"/>
	<rect x="159.72" y="14.52" class="st0" width="7" height="7"/>
	<rect x="7.26" y="21.78" class="st0" width="7" height="7"/>
	<rect x="14.52" y="21.78" class="st0" width="7" height="7"/>
	<rect x="21.78" y="21.78" class="st0" width="7" height="7"/>
	<rect x="36.3" y="21.78" class="st0" width="7" height="7"/>
	<rect x="43.56" y="21.78" class="st0" width="7" height="7"/>
	<rect x="50.82" y="21.78" class="st0" width="7" height="7"/>
	<rect x="58.08" y="21.78" class="st0" width="7" height="7"/>
	<rect x="65.34" y="21.78" class="st0" width="7" height="7"/>
	<rect x="72.6" y="21.78" class="st0" width="7" height="7"/>
	<rect x="79.86" y="21.78" class="st0" width="7" height="7"/>
	<rect x="87.12" y="21.78" class="st0" width="7" height="7"/>
	<rect x="94.38" y="21.78" class="st0" width="7" height="7"/>
	<rect x="101.64" y="21.78" class="st0" width="7" height="7"/>
	<rect x="108.9" y="21.78" class="st0" width="7" height="7"/>
	<rect x="116.16" y="21.78" class="st0" width="7" height="7"/>
	<rect x="123.42" y="21.78" class="st0" width="7" height="7"/>
	<rect x="130.68" y="21.78" class="st0" width="7" height="7"/>
	<rect x="137.94" y="21.78" class="st0" width="7" height="7"/>
	<rect x="145.2" y="21.78" class="st0" width="7" height="7"/>
	<rect x="152.46" y="21.78" class="st0" width="7" height="7"/>
	<rect x="159.72" y="21.78" class="st0" width="7" height="7"/>
	<rect x="7.26" y="29.04" class="st0" width="7" height="7"/>
	<rect x="14.52" y="29.04" class="st0" width="7" height="7"/>
	<rect x="21.78" y="29.04" class="st0" width="7" height="7"/>
	<rect x="36.3" y="29.04" class="st0" width="7" height="7"/>
	<rect x="43.56" y="29.04" class="st0" width="7" height="7"/>
	<rect x="50.82" y="29.04" class="st0" width="7" height="7"/>
	<rect x="58.08" y="29.04" class="st0" width="7" height="7"/>
	<rect x="65.34" y="29.04" class="st0" width="7" height="7"/>
	<rect x="72.6" y="29.04" class="st0" width="7" height="7"/>
	<rect x="79.86" y="29.04" class="st0" width="7" height="7"/>
	<rect x="87.12" y="29.04" class="st0" width="7" height="7"/>
	<rect x="94.38" y="29.04" class="st0" width="7" height="7"/>
	<rect x="101.64" y="29.04" class="st0" width="7" height="7"/>
	<rect x="108.9" y="29.04" class="st0" width="7" height="7"/>
	<rect x="116.16" y="29.04" class="st0" width="7" height="7"/>
	<rect x="123.42" y="29.04" class="st0" width="7" height="7"/>
	<rect x="130.68" y="29.04" class="st0" width="7" height="7"/>
	<rect x="137.94" y="29.04" class="st0" width="7" height="7"/>
	<rect x="145.2" y="29.04" class="st0" width="7" height="7"/>
	<rect x="152.46" y="29.04" class="st0" width="7" height="7"/>
	<rect x="159.72" y="29.04" class="st0" width="7" height="7"/>
	<rect x="7.26" y="36.3" class="st0" width="7" height="7"/>
	<rect x="14.52" y="36.3" class="st0" width="7" height="7"/>
	<rect x="21.78" y="36.3" class="st0" width="7" height="7"/>
	<rect x="36.3" y="36.3" class="st0" width="7" height="7"/>
	<rect x="43.56" y="36.3" class="st0" width="7" height="7"/>
	<rect x="50.82" y="36.3" class="st0" width="7" height="7"/>
	<rect x="58.08" y="36.3" class="st0" width="7" height="7"/>
	<rect x="65.34" y="36.3" class="st0" width="7" height="7"/>
	<rect x="72.6" y="36.3" class="st0" width="7" height="7"/>
	<rect x="79.86" y="36.3" class="st0" width="7" height="7"/>
	<rect x="87.12" y="36.3" class="st0" width="7" height="7"/>
	<rect x="94.38" y="36.3" class="st0" width="7" height="7"/>
	<rect x="101.64" y="36.3" class="st0" width="7" height="7"/>
	<rect x="108.9" y="36.3" class="st0" width="7" height="7"/>
	<rect x="116.16" y="36.3" class="st0" width="7" height="7"/>
	<rect x="123.42" y="36.3" class="st0" width="7" height="7"/>
	<rect x="130.68" y="36.3" class="st0" width="7" height="7"/>
	<rect x="137.94" y="36.3" class="st0" width="7" height="7"/>
	<rect x="145.2" y="36.3" class="st0" width="7" height="7"/>
	<rect x="152.46" y="36.3" class="st0" width="7" height="7"/>
	<rect x="159.72" y="36.3" class="st0" width="7" height="7"/>
	<rect x="14.52" y="43.56" class="st0" width="7" height="7"/>
	<rect x="29.04" y="43.56" class="st0" width="7" height="7"/>
	<rect x="36.3" y="43.56" class="st0" width="7" height="7"/>
	<rect x="43.56" y="43.56" class="st0" width="7" height="7"/>
	<rect x="50.82" y="43.56" class="st0" width="7" height="7"/>
	<rect x="58.08" y="43.56" class="st0" width="7" height="7"/>
	<rect x="65.34" y="43.56" class="st0" width="7" height="7"/>
	<rect x="72.6" y="43.56" class="st0" width="7" height="7"/>
	<rect x="79.86" y="43.56" class="st0" width="7" height="7"/>
	<rect x="87.12" y="43.56" class="st0" width="7" height="7"/>
	<rect x="94.38" y="43.56" class="st0" width="7" height="7"/>
	<rect x="101.64" y="43.56" class="st0" width="7" height="7"/>
	<rect x="108.9" y="43.56" class="st0" width="7" height="7"/>
	<rect x="116.16" y="43.56" class="st0" width="7" height="7"/>
	<rect x="123.42" y="43.56" class="st0" width="7" height="7"/>
	<rect x="130.68" y="43.56" class="st0" width="7" height="7"/>
	<rect x="137.94" y="43.56" class="st0" width="7" height="7"/>
	<rect x="145.2" y="43.56" class="st0" width="7" height="7"/>
	<rect x="152.46" y="43.56" class="st0" width="7" height="7"/>
	<rect x="159.72" y="43.56" class="st0" width="7" height="7"/>
	<rect x="21.78" y="50.82" class="st0" width="7" height="7"/>
	<rect x="29.04" y="50.82" class="st0" width="7" height="7"/>
	<rect x="36.3" y="50.82" class="st0" width="7" height="7"/>
	<rect x="43.56" y="50.82" class="st0" width="7" height="7"/>
	<rect x="50.82" y="50.82" class="st0" width="7" height="7"/>
	<rect x="58.08" y="50.82" class="st0" width="7" height="7"/>
	<rect x="65.34" y="50.82" class="st0" width="7" height="7"/>
	<rect x="72.6" y="50.82" class="st0" width="7" height="7"/>
	<rect x="79.86" y="50.82" class="st0" width="7" height="7"/>
	<rect x="87.12" y="50.82" class="st0" width="7" height="7"/>
	<rect x="94.38" y="50.82" class="st0" width="7" height="7"/>
	<rect x="101.64" y="50.82" class="st0" width="7" height="7"/>
	<rect x="108.9" y="50.82" class="st0" width="7" height="7"/>
	<rect x="116.16" y="50.82" class="st0" width="7" height="7"/>
	<rect x="123.42" y="50.82" class="st0" width="7" height="7"/>
	<rect x="130.68" y="50.82" class="st0" width="7" height="7"/>
	<rect x="137.94" y="50.82" class="st0" width="7" height="7"/>
	<rect x="145.2" y="50.82" class="st0" width="7" height="7"/>
	<rect x="152.46" y="50.82" class="st0" width="7" height="7"/>
</g>
</svg>
