<?xml version="1.0" encoding="utf-8"?>
<!-- Generator: Adobe Illustrator 27.3.1, SVG Export Plug-In . SVG Version: 6.00 Build 0)  -->
<svg version="1.1" id="Слой_1" xmlns="http://www.w3.org/2000/svg" xmlns:xlink="http://www.w3.org/1999/xlink" x="0px" y="0px"
	 viewBox="0 0 108.6 108.6" style="enable-background:new 0 0 108.6 108.6;" xml:space="preserve">
<style type="text/css">
	.st0{fill:#FCD275;}
</style>
<path class="st0" d="M14.5,101.6h7v7h-7V101.6z M21.7,101.6h7v7h-7V101.6z M29,101.6h7v7h-7V101.6z M36.3,101.6h7v7h-7V101.6z
	 M43.5,101.6h7v7h-7V101.6z M50.8,101.6h7v7h-7V101.6z M58,101.6h7v7h-7V101.6z M65.3,101.6h7v7h-7V101.6z M72.5,101.6h7v7h-7V101.6
	z M79.8,101.6h7v7h-7V101.6z M87.1,101.6h7v7h-7V101.6z M7.2,94.4h7v7h-7V94.4z M14.5,94.4h7v7h-7V94.4z M21.7,94.4h7v7h-7V94.4z
	 M29,94.4h7v7h-7V94.4z M36.3,94.4h7v7h-7V94.4z M43.5,94.4h7v7h-7V94.4z M50.8,94.4h7v7h-7V94.4z M58,94.4h7v7h-7V94.4z M65.3,94.4
	h7v7h-7V94.4z M72.5,94.4h7v7h-7V94.4z M79.8,94.4h7v7h-7V94.4z M87.1,94.4h7v7h-7V94.4z M94.3,94.4h7v7h-7V94.4z M0,87.1h7v7H0
	V87.1z M7.2,87.1h7v7h-7V87.1z M14.5,87.1h7v7h-7V87.1z M87.1,87.1h7v7h-7V87.1z M94.3,87.1h7v7h-7V87.1z M101.6,87.1h7v7h-7V87.1z
	 M0,79.9h7v7H0V79.9z M7.2,79.9h7v7h-7V79.9z M94.3,79.9h7v7h-7V79.9z M101.6,79.9h7v7h-7V79.9z M0,72.6h7v7H0V72.6z M7.2,72.6h7v7
	h-7V72.6z M94.3,72.6h7v7h-7V72.6z M101.6,72.6h7v7h-7V72.6z M0,65.3h7v7H0V65.3z M7.2,65.3h7v7h-7V65.3z M94.3,65.3h7v7h-7V65.3z
	 M101.6,65.3h7v7h-7V65.3z M0,58.1h7v7H0V58.1z M7.2,58.1h7v7h-7V58.1z M94.3,58.1h7v7h-7V58.1z M101.6,58.1h7v7h-7V58.1z M0,50.8h7
	v7H0V50.8z M7.2,50.8h7v7h-7V50.8z M94.3,50.8h7v7h-7V50.8z M101.6,50.8h7v7h-7V50.8z M0,43.6h7v7H0V43.6z M7.2,43.6h7v7h-7V43.6z
	 M94.3,43.6h7v7h-7V43.6z M101.6,43.6h7v7h-7V43.6z M0,36.3h7v7H0V36.3z M7.2,36.3h7v7h-7V36.3z M94.3,36.3h7v7h-7V36.3z
	 M101.6,36.3h7v7h-7V36.3z M0,29h7v7H0V29z M7.2,29h7v7h-7V29z M94.3,29h7v7h-7V29z M101.6,29h7v7h-7V29z M0,21.8h7v7H0V21.8z
	 M7.2,21.8h7v7h-7V21.8z M94.3,21.8h7v7h-7V21.8z M101.6,21.8h7v7h-7V21.8z M0,14.5h7v7H0V14.5z M7.2,14.5h7v7h-7V14.5z M14.5,14.5
	h7v7h-7V14.5z M87.1,14.5h7v7h-7V14.5z M94.3,14.5h7v7h-7V14.5z M101.6,14.5h7v7h-7V14.5z M7.2,7.3h7v7h-7V7.3z M14.5,7.3h7v7h-7
	V7.3z M21.7,7.3h7v7h-7V7.3z M29,7.3h7v7h-7V7.3z M36.3,7.3h7v7h-7V7.3z M43.5,7.3h7v7h-7V7.3z M50.8,7.3h7v7h-7V7.3z M58,7.3h7v7
	h-7V7.3z M65.3,7.3h7v7h-7V7.3z M72.5,7.3h7v7h-7V7.3z M79.8,7.3h7v7h-7V7.3z M87.1,7.3h7v7h-7V7.3z M94.3,7.3h7v7h-7V7.3z M14.5,0
	h7v7h-7V0z M21.7,0h7v7h-7V0z M29,0h7v7h-7V0z M36.3,0h7v7h-7V0z M43.5,0h7v7h-7V0z M50.8,0h7v7h-7V0z M58,0h7v7h-7V0z M65.3,0h7v7
	h-7V0z M72.5,0h7v7h-7V0z M79.8,0h7v7h-7V0z M87.1,0h7v7h-7V0z"/>
</svg>
