<?xml version="1.0" encoding="utf-8"?>
<!-- Generator: Adobe Illustrator 27.3.1, SVG Export Plug-In . SVG Version: 6.00 Build 0)  -->
<svg version="1.1" id="Слой_1" xmlns="http://www.w3.org/2000/svg" xmlns:xlink="http://www.w3.org/1999/xlink" x="0px" y="0px"
	 viewBox="0 0 870.9 674.6" style="enable-background:new 0 0 870.9 674.6;" xml:space="preserve">
<style type="text/css">
	.st0{fill:#FBE7B0;}
	.st1{fill:#1E0E01;}
</style>
<g id="Слой_2_00000034072270292667926340000008619483912183604633_">
	<path class="st0" d="M21.8-0.1L0,21.4v625l28.8,28.3c282.9,0,530.5,0,813.4,0l28.7-28.8V28.7L842.2-0.1H21.8z"/>
</g>
<path class="st1" d="M7.3,7.1h7v7h-7V7.1z M0,14.4h7v7H0V14.4z M0,21.7h7v7H0V21.7z M0,29h7v7H0V29z M0,36.2h7v7H0V36.2z M0,43.5h7
	v7H0V43.5z M0,50.8h7v7H0V50.8z M0,58h7v7H0V58z M0,65.3h7v7H0V65.3z M0,72.5h7v7H0V72.5z M0,79.8h7v7H0V79.8z M0,87.1h7v7H0V87.1z
	 M0,94.3h7v7H0V94.3z M0,101.6h7v7H0V101.6z M0,108.8h7v7H0V108.8z M0,116.1h7v7H0V116.1z M0,123.3h7v7H0V123.3z M0,130.6h7v7H0
	V130.6z M0,137.9h7v7H0V137.9z M0,145.1h7v7H0V145.1z M0,152.4h7v7H0V152.4z M0,159.6h7v7H0V159.6z M0,166.9h7v7H0V166.9z M0,174.2
	h7v7H0V174.2z M0,181.4h7v7H0V181.4z M0,188.7h7v7H0V188.7z M0,196h7v7H0V196z M0,203.2h7v7H0V203.2z M0,210.5h7v7H0V210.5z
	 M0,217.7h7v7H0V217.7z M0,225h7v7H0V225z M0,232.2h7v7H0V232.2z M0,239.5h7v7H0V239.5z M0,246.8h7v7H0V246.8z M0,254h7v7H0V254z
	 M0,261.3h7v7H0V261.3z M0,268.6h7v7H0V268.6z M0,275.8h7v7H0V275.8z M0,283.1h7v7H0V283.1z M0,290.3h7v7H0V290.3z M0,297.6h7v7H0
	V297.6z M0,304.8h7v7H0V304.8z M0,355.5h7v7H0V355.5z M0,362.8h7v7H0V362.8z M0,370h7v7H0V370z M0,377.3h7v7H0V377.3z M0,384.6h7v7
	H0V384.6z M0,391.8h7v7H0V391.8z M0,399.1h7v7H0V399.1z M0,406.3h7v7H0V406.3z M0,413.6h7v7H0V413.6z M0,420.8h7v7H0V420.8z
	 M0,428.1h7v7H0V428.1z M14.5-0.1h7v7h-7V-0.1z M21.8-0.1h7v7h-7V-0.1z M29-0.1h7v7h-7V-0.1z M36.3-0.1h7v7h-7V-0.1z M43.6-0.1h7v7
	h-7V-0.1z M50.8-0.1h7v7h-7V-0.1z M58.1-0.1h7v7h-7V-0.1z M65.3-0.1h7v7h-7V-0.1z M0,435.4h7v7H0V435.4z M0,442.6h7v7H0V442.6z
	 M0,449.9h7v7H0V449.9z M0,457.2h7v7H0V457.2z M0,464.4h7v7H0V464.4z M0,471.7h7v7H0V471.7z M0,478.9h7v7H0V478.9z M0,486.2h7v7H0
	V486.2z M0,493.4h7v7H0V493.4z M0,500.7h7v7H0V500.7z M0,508h7v7H0V508z M0,515.2h7v7H0V515.2z M0,522.5h7v7H0V522.5z M0,529.8h7v7
	H0V529.8z M0,537h7v7H0V537z M0,544.3h7v7H0V544.3z M0,551.5h7v7H0V551.5z M0,558.8h7v7H0V558.8z M0,566h7v7H0V566z M0,573.3h7v7H0
	V573.3z M0,580.6h7v7H0V580.6z M0,587.8h7v7H0V587.8z M0,595.1h7v7H0V595.1z M0,602.3h7v7H0V602.3z M0,609.6h7v7H0V609.6z M0,616.8
	h7v7H0V616.8z M0,624h7v7H0V624z M0,631.2h7v7H0V631.2z M0,638.5h7v7H0V638.5z M0,645.8h7v7H0V645.8z M7.3,653h7v7h-7V653z
	 M14.5,660.2h7v7h-7V660.2z M21.8,660.2h7v7h-7V660.2z M21.8,667.5h7v7h-7V667.5z M29,660.2h7v7h-7V660.2z M29,667.5h7v7h-7V667.5z
	 M36.3,660.2h7v7h-7V660.2z M36.3,667.5h7v7h-7V667.5z M43.6,660.2h7v7h-7V660.2z M43.6,667.5h7v7h-7V667.5z M50.8,660.2h7v7h-7
	V660.2z M50.8,667.5h7v7h-7V667.5z M58.1,660.2h7v7h-7V660.2z M58.1,667.5h7v7h-7V667.5z M65.3,660.2h7v7h-7V660.2z M65.3,667.5h7v7
	h-7V667.5z M72.6-0.1h7v7h-7V-0.1z M79.9-0.1h7v7h-7V-0.1z M87.1-0.1h7v7h-7V-0.1z M94.4-0.1h7v7h-7V-0.1z M101.6-0.1h7v7h-7V-0.1z
	 M108.9-0.1h7v7h-7V-0.1z M116.2-0.1h7v7h-7V-0.1z M123.4-0.1h7v7h-7C123.4,6.9,123.4-0.1,123.4-0.1z M130.7-0.1h7v7h-7V-0.1z
	 M137.9-0.1h7v7h-7V-0.1z M72.6,660.2h7v7h-7V660.2z M72.6,667.5h7v7h-7V667.5z M79.9,660.2h7v7h-7V660.2z M79.9,667.5h7v7h-7V667.5
	z M87.1,660.2h7v7h-7V660.2z M87.1,667.5h7v7h-7V667.5z M94.4,660.2h7v7h-7V660.2z M94.4,667.5h7v7h-7V667.5z M101.6,660.2h7v7h-7
	V660.2z M101.6,667.5h7v7h-7V667.5z M108.9,660.2h7v7h-7V660.2z M108.9,667.5h7v7h-7V667.5z M116.2,660.2h7v7h-7V660.2z
	 M116.2,667.5h7v7h-7V667.5z M123.4,660.2h7v7h-7C123.4,667.2,123.4,660.2,123.4,660.2z M123.4,667.5h7v7h-7
	C123.4,674.5,123.4,667.5,123.4,667.5z M130.7,660.2h7v7h-7V660.2z M130.7,667.5h7v7h-7V667.5z M137.9,660.2h7v7h-7V660.2z
	 M137.9,667.5h7v7h-7V667.5z M145.2-0.1h7v7h-7V-0.1z M152.5-0.1h7v7h-7V-0.1z M159.7-0.1h7v7h-7V-0.1z M167-0.1h7v7h-7V-0.1z
	 M174.2-0.1h7v7h-7V-0.1z M181.5-0.1h7v7h-7V-0.1z M188.8-0.1h7v7h-7V-0.1z M196-0.1h7v7h-7V-0.1z M203.3-0.1h7v7h-7V-0.1z
	 M210.5-0.1h7v7h-7V-0.1z M145.2,660.2h7v7h-7V660.2z M145.2,667.5h7v7h-7V667.5z M152.5,660.2h7v7h-7V660.2z M152.5,667.5h7v7h-7
	V667.5z M159.7,660.2h7v7h-7V660.2z M159.7,667.5h7v7h-7V667.5z M167,660.2h7v7h-7V660.2z M167,667.5h7v7h-7V667.5z M174.2,660.2h7
	v7h-7V660.2z M174.2,667.5h7v7h-7V667.5z M181.5,660.2h7v7h-7V660.2z M181.5,667.5h7v7h-7V667.5z M188.8,660.2h7v7h-7V660.2z
	 M188.8,667.5h7v7h-7V667.5z M196,660.2h7v7h-7V660.2z M196,667.5h7v7h-7V667.5z M203.3,660.2h7v7h-7V660.2z M203.3,667.5h7v7h-7
	V667.5z M210.5,660.2h7v7h-7V660.2z M210.5,667.5h7v7h-7V667.5z M217.8-0.1h7v7h-7V-0.1z M225.1-0.1h7v7h-7V-0.1z M232.3-0.1h7v7h-7
	V-0.1z M239.6-0.1h7v7h-7V-0.1z M246.8-0.1h7v7h-7V-0.1z M254.1-0.1h7v7h-7V-0.1z M261.4-0.1h7v7h-7V-0.1z M268.6-0.1h7v7h-7V-0.1z
	 M275.9-0.1h7v7h-7V-0.1z M283.1-0.1h7v7h-7V-0.1z M217.8,660.2h7v7h-7V660.2z M217.8,667.5h7v7h-7V667.5z M225.1,660.2h7v7h-7
	V660.2z M225.1,667.5h7v7h-7V667.5z M232.3,660.2h7v7h-7V660.2z M232.3,667.5h7v7h-7V667.5z M239.6,660.2h7v7h-7V660.2z
	 M239.6,667.5h7v7h-7V667.5z M246.8,660.2h7v7h-7V660.2z M246.8,667.5h7v7h-7V667.5z M254.1,660.2h7v7h-7V660.2z M254.1,667.5h7v7
	h-7V667.5z M261.4,660.2h7v7h-7V660.2z M261.4,667.5h7v7h-7V667.5z M268.6,660.2h7v7h-7V660.2z M268.6,667.5h7v7h-7V667.5z
	 M275.9,660.2h7v7h-7V660.2z M275.9,667.5h7v7h-7V667.5z M283.1,660.2h7v7h-7V660.2z M283.1,667.5h7v7h-7V667.5z M290.4-0.1h7v7h-7
	V-0.1z M297.7-0.1h7v7h-7V-0.1z M304.9-0.1h7v7h-7V-0.1z M312.2-0.1h7v7h-7V-0.1z M319.4-0.1h7v7h-7V-0.1z M326.7-0.1h7v7h-7V-0.1z
	 M334-0.1h7v7h-7V-0.1z M341.2-0.1h7v7h-7V-0.1z M348.5-0.1h7v7h-7V-0.1z M355.7-0.1h7v7h-7V-0.1z M290.4,660.2h7v7h-7V660.2z
	 M290.4,667.5h7v7h-7V667.5z M297.7,660.2h7v7h-7V660.2z M297.7,667.5h7v7h-7V667.5z M304.9,660.2h7v7h-7V660.2z M304.9,667.5h7v7
	h-7V667.5z M312.2,660.2h7v7h-7V660.2z M312.2,667.5h7v7h-7V667.5z M319.4,660.2h7v7h-7V660.2z M319.4,667.5h7v7h-7V667.5z
	 M326.7,660.2h7v7h-7V660.2z M326.7,667.5h7v7h-7V667.5z M334,660.2h7v7h-7V660.2z M334,667.5h7v7h-7V667.5z M341.2,660.2h7v7h-7
	V660.2z M341.2,667.5h7v7h-7V667.5z M348.5,660.2h7v7h-7V660.2z M348.5,667.5h7v7h-7V667.5z M355.7,660.2h7v7h-7V660.2z
	 M355.7,667.5h7v7h-7V667.5z M363-0.1h7v7h-7V-0.1z M370.3-0.1h7v7h-7V-0.1z M377.5-0.1h7v7h-7V-0.1z M384.8-0.1h7v7h-7V-0.1z
	 M392-0.1h7v7h-7V-0.1z M399.3-0.1h7v7h-7V-0.1z M406.6-0.1h7v7h-7V-0.1z M413.8-0.1h7v7h-7V-0.1z M421.1-0.1h7v7h-7V-0.1z
	 M428.3-0.1h7v7h-7V-0.1z M363,660.2h7v7h-7V660.2z M363,667.5h7v7h-7V667.5z M370.3,660.2h7v7h-7V660.2z M370.3,667.5h7v7h-7V667.5
	z M377.5,660.2h7v7h-7V660.2z M377.5,667.5h7v7h-7V667.5z M384.8,660.2h7v7h-7V660.2z M384.8,667.5h7v7h-7V667.5z M392,660.2h7v7h-7
	V660.2z M392,667.5h7v7h-7V667.5z M399.3,660.2h7v7h-7V660.2z M399.3,667.5h7v7h-7V667.5z M406.6,660.2h7v7h-7V660.2z M406.6,667.5
	h7v7h-7V667.5z M413.8,660.2h7v7h-7V660.2z M413.8,667.5h7v7h-7V667.5z M421.1,660.2h7v7h-7V660.2z M421.1,667.5h7v7h-7V667.5z
	 M428.3,660.2h7v7h-7V660.2z M428.3,667.5h7v7h-7V667.5z M435.6-0.1h7v7h-7V-0.1z M442.9-0.1h7v7h-7V-0.1z M450.1-0.1h7v7h-7V-0.1z
	 M457.4-0.1h7v7h-7V-0.1z M464.6-0.1h7v7h-7V-0.1z M471.9-0.1h7v7h-7V-0.1z M479.2-0.1h7v7h-7V-0.1z M486.4-0.1h7v7h-7V-0.1z
	 M493.7-0.1h7v7h-7V-0.1z M500.9-0.1h7v7h-7V-0.1z M435.6,660.2h7v7h-7V660.2z M435.6,667.5h7v7h-7V667.5z M442.9,660.2h7v7h-7
	V660.2z M442.9,667.5h7v7h-7V667.5z M450.1,660.2h7v7h-7V660.2z M450.1,667.5h7v7h-7V667.5z M457.4,660.2h7v7h-7V660.2z
	 M457.4,667.5h7v7h-7V667.5z M464.6,660.2h7v7h-7V660.2z M464.6,667.5h7v7h-7V667.5z M471.9,660.2h7v7h-7V660.2z M471.9,667.5h7v7
	h-7V667.5z M479.2,660.2h7v7h-7V660.2z M479.2,667.5h7v7h-7V667.5z M486.4,660.2h7v7h-7V660.2z M486.4,667.5h7v7h-7V667.5z
	 M493.7,660.2h7v7h-7V660.2z M493.7,667.5h7v7h-7V667.5z M500.9,660.2h7v7h-7V660.2z M500.9,667.5h7v7h-7V667.5z M508.2-0.1h7v7h-7
	V-0.1z M515.5-0.1h7v7h-7V-0.1z M522.7-0.1h7v7h-7V-0.1z M530-0.1h7v7h-7V-0.1z M537.2-0.1h7v7h-7V-0.1z M544.5-0.1h7v7h-7V-0.1z
	 M551.8-0.1h7v7h-7V-0.1z M559-0.1h7v7h-7V-0.1z M566.3-0.1h7v7h-7V-0.1z M573.5-0.1h7v7h-7V-0.1z M508.2,660.2h7v7h-7V660.2z
	 M508.2,667.5h7v7h-7V667.5z M515.5,660.2h7v7h-7V660.2z M515.5,667.5h7v7h-7V667.5z M522.7,660.2h7v7h-7V660.2z M522.7,667.5h7v7
	h-7V667.5z M530,660.2h7v7h-7V660.2z M530,667.5h7v7h-7V667.5z M537.2,660.2h7v7h-7V660.2z M537.2,667.5h7v7h-7V667.5z M544.5,660.2
	h7v7h-7V660.2z M544.5,667.5h7v7h-7V667.5z M551.8,660.2h7v7h-7V660.2z M551.8,667.5h7v7h-7V667.5z M559,660.2h7v7h-7V660.2z
	 M559,667.5h7v7h-7V667.5z M566.3,660.2h7v7h-7V660.2z M566.3,667.5h7v7h-7V667.5z M573.5,660.2h7v7h-7V660.2z M573.5,667.5h7v7h-7
	V667.5z M580.8-0.1h7v7h-7V-0.1z M588.1-0.1h7v7h-7V-0.1z M595.3-0.1h7v7h-7V-0.1z M602.6-0.1h7v7h-7V-0.1z M609.8-0.1h7v7h-7V-0.1z
	 M617.1-0.1h7v7h-7V-0.1z M624.4-0.1h7v7h-7V-0.1z M631.6-0.1h7v7h-7V-0.1z M638.9-0.1h7v7h-7V-0.1z M646.1-0.1h7v7h-7V-0.1z
	 M580.8,660.2h7v7h-7V660.2z M580.8,667.5h7v7h-7V667.5z M588.1,660.2h7v7h-7V660.2z M588.1,667.5h7v7h-7V667.5z M595.3,660.2h7v7
	h-7V660.2z M595.3,667.5h7v7h-7V667.5z M602.6,660.2h7v7h-7V660.2z M602.6,667.5h7v7h-7V667.5z M609.8,660.2h7v7h-7V660.2z
	 M609.8,667.5h7v7h-7V667.5z M617.1,660.2h7v7h-7V660.2z M617.1,667.5h7v7h-7V667.5z M624.4,660.2h7v7h-7V660.2z M624.4,667.5h7v7
	h-7V667.5z M631.6,660.2h7v7h-7V660.2z M631.6,667.5h7v7h-7V667.5z M638.9,660.2h7v7h-7V660.2z M638.9,667.5h7v7h-7V667.5z
	 M646.1,660.2h7v7h-7V660.2z M646.1,667.5h7v7h-7V667.5z M653.4-0.1h7v7h-7V-0.1z M660.7-0.1h7v7h-7V-0.1z M667.9-0.1h7v7h-7V-0.1z
	 M675.2-0.1h7v7h-7V-0.1z M682.4-0.1h7v7h-7V-0.1z M689.7-0.1h7v7h-7V-0.1z M697-0.1h7v7h-7V-0.1z M704.2-0.1h7v7h-7V-0.1z
	 M711.5-0.1h7v7h-7V-0.1z M718.7-0.1h7v7h-7V-0.1z M653.4,660.2h7v7h-7V660.2z M653.4,667.5h7v7h-7V667.5z M660.7,660.2h7v7h-7
	V660.2z M660.7,667.5h7v7h-7V667.5z M667.9,660.2h7v7h-7V660.2z M667.9,667.5h7v7h-7V667.5z M675.2,660.2h7v7h-7V660.2z
	 M675.2,667.5h7v7h-7V667.5z M682.4,660.2h7v7h-7V660.2z M682.4,667.5h7v7h-7V667.5z M689.7,660.2h7v7h-7V660.2z M689.7,667.5h7v7
	h-7V667.5z M697,660.2h7v7h-7V660.2z M697,667.5h7v7h-7V667.5z M704.2,660.2h7v7h-7V660.2z M704.2,667.5h7v7h-7V667.5z M711.5,660.2
	h7v7h-7V660.2z M711.5,667.5h7v7h-7V667.5z M718.7,660.2h7v7h-7V660.2z M718.7,667.5h7v7h-7V667.5z M726-0.1h7v7h-7V-0.1z
	 M733.3-0.1h7v7h-7V-0.1z M740.5-0.1h7v7h-7V-0.1z M747.8-0.1h7v7h-7V-0.1z M755-0.1h7v7h-7V-0.1z M762.3-0.1h7v7h-7V-0.1z
	 M769.6-0.1h7v7h-7V-0.1z M776.8-0.1h7v7h-7V-0.1z M784.1-0.1h7v7h-7V-0.1z M791.3-0.1h7v7h-7V-0.1z M726,660.2h7v7h-7V660.2z
	 M726,667.5h7v7h-7V667.5z M733.3,660.2h7v7h-7V660.2z M733.3,667.5h7v7h-7V667.5z M740.5,660.2h7v7h-7V660.2z M740.5,667.5h7v7h-7
	V667.5z M747.8,660.2h7v7h-7V660.2z M747.8,667.5h7v7h-7V667.5z M755,660.2h7v7h-7V660.2z M755,667.5h7v7h-7V667.5z M762.3,660.2h7
	v7h-7V660.2z M762.3,667.5h7v7h-7V667.5z M769.6,660.2h7v7h-7V660.2z M769.6,667.5h7v7h-7V667.5z M776.8,660.2h7v7h-7V660.2z
	 M776.8,667.5h7v7h-7V667.5z M784.1,660.2h7v7h-7V660.2z M784.1,667.5h7v7h-7V667.5z M791.3,660.2h7v7h-7V660.2z M791.3,667.5h7v7
	h-7V667.5z M798.6-0.1h7v7h-7V-0.1z M805.9-0.1h7v7h-7V-0.1z M813.1-0.1h7v7h-7V-0.1z M820.4-0.1h7v7h-7V-0.1z M827.6-0.1h7v7h-7
	V-0.1z M834.9-0.1h7v7h-7V-0.1z M842.2-0.1h7v7h-7V-0.1z M849.4,7.1h7v7h-7V7.1z M856.7,14.4h7v7h-7V14.4z M856.7,21.7h7v7h-7V21.7z
	 M856.7,29h7v7h-7V29z M856.7,36.2h7v7h-7V36.2z M856.7,43.5h7v7h-7V43.5z M856.7,50.8h7v7h-7V50.8z M856.7,58h7v7h-7V58z
	 M856.7,65.3h7v7h-7V65.3z M856.7,72.5h7v7h-7V72.5z M856.7,79.8h7v7h-7V79.8z M856.7,87.1h7v7h-7V87.1z M856.7,94.3h7v7h-7V94.3z
	 M856.7,101.6h7v7h-7V101.6z M856.7,108.8h7v7h-7V108.8z M856.7,116.1h7v7h-7V116.1z M856.7,123.3h7v7h-7V123.3z M856.7,130.6h7v7
	h-7V130.6z M856.7,137.9h7v7h-7V137.9z M856.7,145.1h7v7h-7V145.1z M856.7,152.4h7v7h-7V152.4z M856.7,159.6h7v7h-7V159.6z
	 M856.7,166.9h7v7h-7V166.9z M856.7,174.2h7v7h-7V174.2z M856.7,181.4h7v7h-7V181.4z M856.7,188.7h7v7h-7V188.7z M856.7,196h7v7h-7
	V196z M856.7,203.2h7v7h-7V203.2z M856.7,210.5h7v7h-7V210.5z M856.7,217.7h7v7h-7V217.7z M856.7,225h7v7h-7V225z M856.7,232.2h7v7
	h-7V232.2z M856.7,239.5h7v7h-7V239.5z M856.7,246.8h7v7h-7V246.8z M856.7,254h7v7h-7V254z M856.7,261.3h7v7h-7V261.3z M856.7,268.6
	h7v7h-7V268.6z M856.7,275.8h7v7h-7V275.8z M856.7,283.1h7v7h-7V283.1z M856.7,290.3h7v7h-7V290.3z M856.7,297.6h7v7h-7V297.6z
	 M856.7,304.8h7v7h-7V304.8z M856.7,355.5h7v7h-7V355.5z M856.7,362.8h7v7h-7V362.8z M856.7,370h7v7h-7V370z M856.7,377.3h7v7h-7
	V377.3z M856.7,384.6h7v7h-7V384.6z M856.7,391.8h7v7h-7V391.8z M856.7,399.1h7v7h-7V399.1z M856.7,406.3h7v7h-7V406.3z
	 M856.7,413.6h7v7h-7V413.6z M856.7,420.8h7v7h-7V420.8z M856.7,428.1h7v7h-7V428.1z M863.9,21.7h7v7h-7V21.7z M863.9,29h7v7h-7V29z
	 M863.9,36.2h7v7h-7V36.2z M863.9,43.5h7v7h-7V43.5z M863.9,50.8h7v7h-7V50.8z M863.9,58h7v7h-7V58z M863.9,65.3h7v7h-7V65.3z
	 M863.9,72.5h7v7h-7V72.5z M863.9,79.8h7v7h-7V79.8z M863.9,87.1h7v7h-7V87.1z M863.9,94.3h7v7h-7V94.3z M863.9,101.6h7v7h-7V101.6z
	 M863.9,108.8h7v7h-7V108.8z M863.9,116.1h7v7h-7V116.1z M863.9,123.3h7v7h-7V123.3z M863.9,130.6h7v7h-7V130.6z M863.9,137.9h7v7
	h-7V137.9z M863.9,145.1h7v7h-7V145.1z M863.9,152.4h7v7h-7V152.4z M863.9,159.6h7v7h-7V159.6z M863.9,166.9h7v7h-7V166.9z
	 M863.9,174.2h7v7h-7V174.2z M863.9,181.4h7v7h-7V181.4z M863.9,188.7h7v7h-7V188.7z M863.9,196h7v7h-7V196z M863.9,203.2h7v7h-7
	V203.2z M863.9,210.5h7v7h-7V210.5z M863.9,217.7h7v7h-7V217.7z M863.9,225h7v7h-7V225z M863.9,232.2h7v7h-7V232.2z M863.9,239.5h7
	v7h-7V239.5z M863.9,246.8h7v7h-7V246.8z M863.9,254h7v7h-7V254z M863.9,261.3h7v7h-7V261.3z M863.9,268.6h7v7h-7V268.6z
	 M863.9,275.8h7v7h-7V275.8z M863.9,283.1h7v7h-7V283.1z M863.9,290.3h7v7h-7V290.3z M863.9,297.6h7v7h-7V297.6z M863.9,304.8h7v7
	h-7V304.8z M0,312h7v7H0V312z M0,319.2h7v7H0V319.2z M0,326.5h7v7H0V326.5z M0,333.7h7v7H0V333.7z M0,341h7v7H0V341z M0,348.2h7v7H0
	V348.2z M856.7,312h7v7h-7V312z M856.7,319.2h7v7h-7V319.2z M856.7,326.5h7v7h-7V326.5z M856.7,333.7h7v7h-7V333.7z M856.7,341h7v7
	h-7V341z M856.7,348.2h7v7h-7V348.2z M863.9,312h7v7h-7V312z M863.9,319.2h7v7h-7V319.2z M863.9,326.5h7v7h-7V326.5z M863.9,333.7h7
	v7h-7V333.7z M863.9,341h7v7h-7V341z M863.9,348.2h7v7h-7V348.2z M863.9,355.5h7v7h-7V355.5z M863.9,362.8h7v7h-7V362.8z M863.9,370
	h7v7h-7V370z M863.9,377.3h7v7h-7V377.3z M863.9,384.6h7v7h-7V384.6z M863.9,391.8h7v7h-7V391.8z M863.9,399.1h7v7h-7V399.1z
	 M863.9,406.3h7v7h-7V406.3z M863.9,413.6h7v7h-7V413.6z M863.9,420.8h7v7h-7V420.8z M863.9,428.1h7v7h-7V428.1z M856.7,435.4h7v7
	h-7V435.4z M856.7,442.6h7v7h-7V442.6z M856.7,449.9h7v7h-7V449.9z M856.7,457.2h7v7h-7V457.2z M856.7,464.4h7v7h-7V464.4z
	 M856.7,471.7h7v7h-7V471.7z M856.7,478.9h7v7h-7V478.9z M856.7,486.2h7v7h-7V486.2z M856.7,493.4h7v7h-7V493.4z M856.7,500.7h7v7
	h-7V500.7z M863.9,435.4h7v7h-7V435.4z M863.9,442.6h7v7h-7V442.6z M863.9,449.9h7v7h-7V449.9z M863.9,457.2h7v7h-7V457.2z
	 M863.9,464.4h7v7h-7V464.4z M863.9,471.7h7v7h-7V471.7z M863.9,478.9h7v7h-7V478.9z M863.9,486.2h7v7h-7V486.2z M863.9,493.4h7v7
	h-7V493.4z M863.9,500.7h7v7h-7V500.7z M856.7,508h7v7h-7V508z M856.7,515.2h7v7h-7V515.2z M856.7,522.5h7v7h-7V522.5z M856.7,529.8
	h7v7h-7V529.8z M856.7,537h7v7h-7V537z M856.7,544.3h7v7h-7V544.3z M856.7,551.5h7v7h-7V551.5z M856.7,558.8h7v7h-7V558.8z
	 M856.7,566h7v7h-7V566z M856.7,573.3h7v7h-7V573.3z M863.9,508h7v7h-7V508z M863.9,515.2h7v7h-7V515.2z M863.9,522.5h7v7h-7V522.5z
	 M863.9,529.8h7v7h-7V529.8z M863.9,537h7v7h-7V537z M863.9,544.3h7v7h-7V544.3z M863.9,551.5h7v7h-7V551.5z M863.9,558.8h7v7h-7
	V558.8z M863.9,566h7v7h-7V566z M863.9,573.3h7v7h-7V573.3z M856.7,580.5h7v7h-7V580.5z M856.7,587.7h7v7h-7V587.7z M856.7,595h7v7
	h-7V595z M856.7,602.2h7v7h-7V602.2z M856.7,609.5h7v7h-7V609.5z M863.9,580.5h7v7h-7V580.5z M863.9,587.7h7v7h-7V587.7z M863.9,595
	h7v7h-7V595z M863.9,602.2h7v7h-7V602.2z M863.9,609.5h7v7h-7V609.5z M798.6,660.2h7v7h-7V660.2z M798.6,667.5h7v7h-7V667.5z
	 M805.9,660.2h7v7h-7V660.2z M805.9,667.5h7v7h-7V667.5z M813.1,660.2h7v7h-7V660.2z M813.1,667.5h7v7h-7V667.5z M820.4,660.2h7v7
	h-7V660.2z M820.4,667.5h7v7h-7V667.5z M827.6,660.2h7v7h-7V660.2z M827.6,667.5h7v7h-7V667.5z M834.9,660.2h7v7h-7V660.2z
	 M834.9,667.5h7v7h-7V667.5z M842.2,660.2h7v7h-7V660.2z M842.2,667.5h7v7h-7V667.5z M849.4,660.2h7v7h-7V660.2z M856.7,616.8h7v7
	h-7V616.8z M856.7,624h7v7h-7V624z M856.7,631.2h7v7h-7V631.2z M856.7,638.5h7v7h-7V638.5z M856.7,645.8h7v7h-7V645.8z M856.7,653h7
	v7h-7V653z M849.4,653h7v7h-7V653z M863.9,616.8h7v7h-7V616.8z M863.9,624h7v7h-7V624z M863.9,631.2h7v7h-7V631.2z M863.9,638.5h7v7
	h-7V638.5z M863.9,645.8h7v7h-7V645.8z"/>
</svg>
