<?xml version="1.0" encoding="utf-8"?>
<!-- Generator: Adobe Illustrator 27.3.1, SVG Export Plug-In . SVG Version: 6.00 Build 0)  -->
<svg version="1.1" id="Слой_1" xmlns="http://www.w3.org/2000/svg" xmlns:xlink="http://www.w3.org/1999/xlink" x="0px" y="0px"
	 viewBox="0 0 870.9 595.1" style="enable-background:new 0 0 870.9 595.1;" xml:space="preserve">
<style type="text/css">
	.st0{fill:#FBE7B0;}
	.st1{fill:#1E0E01;}
</style>
<g id="Слой_2_00000034072270292667926340000008619483912183604633_">
	<path class="st0" d="M21.5,0L0,21.5c-5.5,189.6,0,544.6,0,544.6l28.8,29c282.9,0,530.5,0,813.4,0l28.7-29
		c-3.8-202.7,0-537.3,0-537.3L842.2,0H21.5z"/>
</g>
<g id="Слой_1_00000173159036632048970240000004473746814367774366_">
	<rect x="7.3" y="7.2" class="st1" width="7" height="7"/>
	<rect y="14.5" class="st1" width="7" height="7"/>
	<rect y="21.8" class="st1" width="7" height="7"/>
	<rect y="29.1" class="st1" width="7" height="7"/>
	<rect y="36.3" class="st1" width="7" height="7"/>
	<rect y="43.6" class="st1" width="7" height="7"/>
	<rect y="50.9" class="st1" width="7" height="7"/>
	<rect y="58.1" class="st1" width="7" height="7"/>
	<rect y="65.4" class="st1" width="7" height="7"/>
	<rect y="72.6" class="st1" width="7" height="7"/>
	<rect y="79.9" class="st1" width="7" height="7"/>
	<rect y="87.2" class="st1" width="7" height="7"/>
	<rect y="94.4" class="st1" width="7" height="7"/>
	<rect y="101.7" class="st1" width="7" height="7"/>
	<rect y="108.9" class="st1" width="7" height="7"/>
	<rect y="116.2" class="st1" width="7" height="7"/>
	<rect y="123.4" class="st1" width="7" height="7"/>
	<rect y="130.7" class="st1" width="7" height="7"/>
	<rect y="138" class="st1" width="7" height="7"/>
	<rect y="145.2" class="st1" width="7" height="7"/>
	<rect y="152.5" class="st1" width="7" height="7"/>
	<rect y="159.7" class="st1" width="7" height="7"/>
	<rect y="167" class="st1" width="7" height="7"/>
	<rect y="174.3" class="st1" width="7" height="7"/>
	<rect y="181.5" class="st1" width="7" height="7"/>
	<rect y="188.8" class="st1" width="7" height="7"/>
	<rect y="196.1" class="st1" width="7" height="7"/>
	<rect y="203.3" class="st1" width="7" height="7"/>
	<rect y="210.6" class="st1" width="7" height="7"/>
	<rect y="217.8" class="st1" width="7" height="7"/>
	<rect y="225.1" class="st1" width="7" height="7"/>
	<rect y="232.3" class="st1" width="7" height="7"/>
	<rect y="239.6" class="st1" width="7" height="7"/>
	<rect y="246.9" class="st1" width="7" height="7"/>
	<rect y="254.1" class="st1" width="7" height="7"/>
	<rect y="261.4" class="st1" width="7" height="7"/>
	<rect y="268.7" class="st1" width="7" height="7"/>
	<rect y="275.9" class="st1" width="7" height="7"/>
	<rect y="283.2" class="st1" width="7" height="7"/>
	<rect y="290.4" class="st1" width="7" height="7"/>
	<rect y="297.7" class="st1" width="7" height="7"/>
	<rect y="304.9" class="st1" width="7" height="7"/>
	<rect y="312.2" class="st1" width="7" height="7"/>
	<rect y="319.5" class="st1" width="7" height="7"/>
	<rect y="326.7" class="st1" width="7" height="7"/>
	<rect y="334" class="st1" width="7" height="7"/>
	<rect y="341.3" class="st1" width="7" height="7"/>
	<rect y="348.5" class="st1" width="7" height="7"/>
	<rect y="355.8" class="st1" width="7" height="7"/>
	<rect y="363" class="st1" width="7" height="7"/>
	<rect y="370.3" class="st1" width="7" height="7"/>
	<rect y="377.5" class="st1" width="7" height="7"/>
	<rect y="384.8" class="st1" width="7" height="7"/>
	<rect x="14.5" class="st1" width="7" height="7"/>
	<rect x="21.8" class="st1" width="7" height="7"/>
	<rect x="29" class="st1" width="7" height="7"/>
	<rect x="36.3" class="st1" width="7" height="7"/>
	<rect x="43.6" class="st1" width="7" height="7"/>
	<rect x="50.8" class="st1" width="7" height="7"/>
	<rect x="58.1" class="st1" width="7" height="7"/>
	<rect x="65.3" class="st1" width="7" height="7"/>
	<rect y="392.1" class="st1" width="7" height="7"/>
	<rect y="399.3" class="st1" width="7" height="7"/>
	<rect y="406.6" class="st1" width="7" height="7"/>
	<rect y="413.9" class="st1" width="7" height="7"/>
	<rect y="421.1" class="st1" width="7" height="7"/>
	<rect y="428.4" class="st1" width="7" height="7"/>
	<rect y="435.6" class="st1" width="7" height="7"/>
	<rect y="442.9" class="st1" width="7" height="7"/>
	<rect y="450.1" class="st1" width="7" height="7"/>
	<rect y="457.4" class="st1" width="7" height="7"/>
	<rect y="464.7" class="st1" width="7" height="7"/>
	<rect y="471.9" class="st1" width="7" height="7"/>
	<rect y="479.2" class="st1" width="7" height="7"/>
	<rect y="486.5" class="st1" width="7" height="7"/>
	<rect y="493.7" class="st1" width="7" height="7"/>
	<rect y="501" class="st1" width="7" height="7"/>
	<rect y="508.2" class="st1" width="7" height="7"/>
	<rect y="515.5" class="st1" width="7" height="7"/>
	<rect y="522.7" class="st1" width="7" height="7"/>
	<rect y="530" class="st1" width="7" height="7"/>
	<rect y="537.3" class="st1" width="7" height="7"/>
	<rect y="544.5" class="st1" width="7" height="7"/>
	<rect y="551.8" class="st1" width="7" height="7"/>
	<rect y="559.1" class="st1" width="7" height="7"/>
	<rect y="566.3" class="st1" width="7" height="7"/>
	<rect x="7.3" y="573.6" class="st1" width="7" height="7"/>
	<rect x="14.5" y="580.8" class="st1" width="7" height="7"/>
	<rect x="21.8" y="580.8" class="st1" width="7" height="7"/>
	<rect x="21.8" y="588.1" class="st1" width="7" height="7"/>
	<rect x="29" y="580.8" class="st1" width="7" height="7"/>
	<rect x="29" y="588.1" class="st1" width="7" height="7"/>
	<rect x="36.3" y="580.8" class="st1" width="7" height="7"/>
	<rect x="36.3" y="588.1" class="st1" width="7" height="7"/>
	<rect x="43.6" y="580.8" class="st1" width="7" height="7"/>
	<rect x="43.6" y="588.1" class="st1" width="7" height="7"/>
	<rect x="50.8" y="580.8" class="st1" width="7" height="7"/>
	<rect x="50.8" y="588.1" class="st1" width="7" height="7"/>
	<rect x="58.1" y="580.8" class="st1" width="7" height="7"/>
	<rect x="58.1" y="588.1" class="st1" width="7" height="7"/>
	<rect x="65.3" y="580.8" class="st1" width="7" height="7"/>
	<rect x="65.3" y="588.1" class="st1" width="7" height="7"/>
	<rect x="72.6" class="st1" width="7" height="7"/>
	<rect x="79.9" class="st1" width="7" height="7"/>
	<rect x="87.1" class="st1" width="7" height="7"/>
	<rect x="94.4" class="st1" width="7" height="7"/>
	<rect x="101.6" class="st1" width="7" height="7"/>
	<rect x="108.9" class="st1" width="7" height="7"/>
	<rect x="116.2" class="st1" width="7" height="7"/>
	<rect x="123.4" class="st1" width="7" height="7"/>
	<rect x="130.7" class="st1" width="7" height="7"/>
	<rect x="137.9" class="st1" width="7" height="7"/>
	<rect x="72.6" y="580.8" class="st1" width="7" height="7"/>
	<rect x="72.6" y="588.1" class="st1" width="7" height="7"/>
	<rect x="79.9" y="580.8" class="st1" width="7" height="7"/>
	<rect x="79.9" y="588.1" class="st1" width="7" height="7"/>
	<rect x="87.1" y="580.8" class="st1" width="7" height="7"/>
	<rect x="87.1" y="588.1" class="st1" width="7" height="7"/>
	<rect x="94.4" y="580.8" class="st1" width="7" height="7"/>
	<rect x="94.4" y="588.1" class="st1" width="7" height="7"/>
	<rect x="101.6" y="580.8" class="st1" width="7" height="7"/>
	<rect x="101.6" y="588.1" class="st1" width="7" height="7"/>
	<rect x="108.9" y="580.8" class="st1" width="7" height="7"/>
	<rect x="108.9" y="588.1" class="st1" width="7" height="7"/>
	<rect x="116.2" y="580.8" class="st1" width="7" height="7"/>
	<rect x="116.2" y="588.1" class="st1" width="7" height="7"/>
	<rect x="123.4" y="580.8" class="st1" width="7" height="7"/>
	<rect x="123.4" y="588.1" class="st1" width="7" height="7"/>
	<rect x="130.7" y="580.8" class="st1" width="7" height="7"/>
	<rect x="130.7" y="588.1" class="st1" width="7" height="7"/>
	<rect x="137.9" y="580.8" class="st1" width="7" height="7"/>
	<rect x="137.9" y="588.1" class="st1" width="7" height="7"/>
	<rect x="145.2" class="st1" width="7" height="7"/>
	<rect x="152.5" class="st1" width="7" height="7"/>
	<rect x="159.7" class="st1" width="7" height="7"/>
	<rect x="167" class="st1" width="7" height="7"/>
	<rect x="174.2" class="st1" width="7" height="7"/>
	<rect x="181.5" class="st1" width="7" height="7"/>
	<rect x="188.8" class="st1" width="7" height="7"/>
	<rect x="196" class="st1" width="7" height="7"/>
	<rect x="203.3" class="st1" width="7" height="7"/>
	<rect x="210.5" class="st1" width="7" height="7"/>
	<rect x="145.2" y="580.8" class="st1" width="7" height="7"/>
	<rect x="145.2" y="588.1" class="st1" width="7" height="7"/>
	<rect x="152.5" y="580.8" class="st1" width="7" height="7"/>
	<rect x="152.5" y="588.1" class="st1" width="7" height="7"/>
	<rect x="159.7" y="580.8" class="st1" width="7" height="7"/>
	<rect x="159.7" y="588.1" class="st1" width="7" height="7"/>
	<rect x="167" y="580.8" class="st1" width="7" height="7"/>
	<rect x="167" y="588.1" class="st1" width="7" height="7"/>
	<rect x="174.2" y="580.8" class="st1" width="7" height="7"/>
	<rect x="174.2" y="588.1" class="st1" width="7" height="7"/>
	<rect x="181.5" y="580.8" class="st1" width="7" height="7"/>
	<rect x="181.5" y="588.1" class="st1" width="7" height="7"/>
	<rect x="188.8" y="580.8" class="st1" width="7" height="7"/>
	<rect x="188.8" y="588.1" class="st1" width="7" height="7"/>
	<rect x="196" y="580.8" class="st1" width="7" height="7"/>
	<rect x="196" y="588.1" class="st1" width="7" height="7"/>
	<rect x="203.3" y="580.8" class="st1" width="7" height="7"/>
	<rect x="203.3" y="588.1" class="st1" width="7" height="7"/>
	<rect x="210.5" y="580.8" class="st1" width="7" height="7"/>
	<rect x="210.5" y="588.1" class="st1" width="7" height="7"/>
	<rect x="217.8" class="st1" width="7" height="7"/>
	<rect x="225.1" class="st1" width="7" height="7"/>
	<rect x="232.3" class="st1" width="7" height="7"/>
	<rect x="239.6" class="st1" width="7" height="7"/>
	<rect x="246.8" class="st1" width="7" height="7"/>
	<rect x="254.1" class="st1" width="7" height="7"/>
	<rect x="261.4" class="st1" width="7" height="7"/>
	<rect x="268.6" class="st1" width="7" height="7"/>
	<rect x="275.9" class="st1" width="7" height="7"/>
	<rect x="283.1" class="st1" width="7" height="7"/>
	<rect x="217.8" y="580.8" class="st1" width="7" height="7"/>
	<rect x="217.8" y="588.1" class="st1" width="7" height="7"/>
	<rect x="225.1" y="580.8" class="st1" width="7" height="7"/>
	<rect x="225.1" y="588.1" class="st1" width="7" height="7"/>
	<rect x="232.3" y="580.8" class="st1" width="7" height="7"/>
	<rect x="232.3" y="588.1" class="st1" width="7" height="7"/>
	<rect x="239.6" y="580.8" class="st1" width="7" height="7"/>
	<rect x="239.6" y="588.1" class="st1" width="7" height="7"/>
	<rect x="246.8" y="580.8" class="st1" width="7" height="7"/>
	<rect x="246.8" y="588.1" class="st1" width="7" height="7"/>
	<rect x="254.1" y="580.8" class="st1" width="7" height="7"/>
	<rect x="254.1" y="588.1" class="st1" width="7" height="7"/>
	<rect x="261.4" y="580.8" class="st1" width="7" height="7"/>
	<rect x="261.4" y="588.1" class="st1" width="7" height="7"/>
	<rect x="268.6" y="580.8" class="st1" width="7" height="7"/>
	<rect x="268.6" y="588.1" class="st1" width="7" height="7"/>
	<rect x="275.9" y="580.8" class="st1" width="7" height="7"/>
	<rect x="275.9" y="588.1" class="st1" width="7" height="7"/>
	<rect x="283.1" y="580.8" class="st1" width="7" height="7"/>
	<rect x="283.1" y="588.1" class="st1" width="7" height="7"/>
	<rect x="290.4" class="st1" width="7" height="7"/>
	<rect x="297.7" class="st1" width="7" height="7"/>
	<rect x="304.9" class="st1" width="7" height="7"/>
	<rect x="312.2" class="st1" width="7" height="7"/>
	<rect x="319.4" class="st1" width="7" height="7"/>
	<rect x="326.7" class="st1" width="7" height="7"/>
	<rect x="334" class="st1" width="7" height="7"/>
	<rect x="341.2" class="st1" width="7" height="7"/>
	<rect x="348.5" class="st1" width="7" height="7"/>
	<rect x="355.7" class="st1" width="7" height="7"/>
	<rect x="290.4" y="580.8" class="st1" width="7" height="7"/>
	<rect x="290.4" y="588.1" class="st1" width="7" height="7"/>
	<rect x="297.7" y="580.8" class="st1" width="7" height="7"/>
	<rect x="297.7" y="588.1" class="st1" width="7" height="7"/>
	<rect x="304.9" y="580.8" class="st1" width="7" height="7"/>
	<rect x="304.9" y="588.1" class="st1" width="7" height="7"/>
	<rect x="312.2" y="580.8" class="st1" width="7" height="7"/>
	<rect x="312.2" y="588.1" class="st1" width="7" height="7"/>
	<rect x="319.4" y="580.8" class="st1" width="7" height="7"/>
	<rect x="319.4" y="588.1" class="st1" width="7" height="7"/>
	<rect x="326.7" y="580.8" class="st1" width="7" height="7"/>
	<rect x="326.7" y="588.1" class="st1" width="7" height="7"/>
	<rect x="334" y="580.8" class="st1" width="7" height="7"/>
	<rect x="334" y="588.1" class="st1" width="7" height="7"/>
	<rect x="341.2" y="580.8" class="st1" width="7" height="7"/>
	<rect x="341.2" y="588.1" class="st1" width="7" height="7"/>
	<rect x="348.5" y="580.8" class="st1" width="7" height="7"/>
	<rect x="348.5" y="588.1" class="st1" width="7" height="7"/>
	<rect x="355.7" y="580.8" class="st1" width="7" height="7"/>
	<rect x="355.7" y="588.1" class="st1" width="7" height="7"/>
	<rect x="363" class="st1" width="7" height="7"/>
	<rect x="370.3" class="st1" width="7" height="7"/>
	<rect x="377.5" class="st1" width="7" height="7"/>
	<rect x="384.8" class="st1" width="7" height="7"/>
	<rect x="392" class="st1" width="7" height="7"/>
	<rect x="399.3" class="st1" width="7" height="7"/>
	<rect x="406.6" class="st1" width="7" height="7"/>
	<rect x="413.8" class="st1" width="7" height="7"/>
	<rect x="421.1" class="st1" width="7" height="7"/>
	<rect x="428.3" class="st1" width="7" height="7"/>
	<rect x="363" y="580.8" class="st1" width="7" height="7"/>
	<rect x="363" y="588.1" class="st1" width="7" height="7"/>
	<rect x="370.3" y="580.8" class="st1" width="7" height="7"/>
	<rect x="370.3" y="588.1" class="st1" width="7" height="7"/>
	<rect x="377.5" y="580.8" class="st1" width="7" height="7"/>
	<rect x="377.5" y="588.1" class="st1" width="7" height="7"/>
	<rect x="384.8" y="580.8" class="st1" width="7" height="7"/>
	<rect x="384.8" y="588.1" class="st1" width="7" height="7"/>
	<rect x="392" y="580.8" class="st1" width="7" height="7"/>
	<rect x="392" y="588.1" class="st1" width="7" height="7"/>
	<rect x="399.3" y="580.8" class="st1" width="7" height="7"/>
	<rect x="399.3" y="588.1" class="st1" width="7" height="7"/>
	<rect x="406.6" y="580.8" class="st1" width="7" height="7"/>
	<rect x="406.6" y="588.1" class="st1" width="7" height="7"/>
	<rect x="413.8" y="580.8" class="st1" width="7" height="7"/>
	<rect x="413.8" y="588.1" class="st1" width="7" height="7"/>
	<rect x="421.1" y="580.8" class="st1" width="7" height="7"/>
	<rect x="421.1" y="588.1" class="st1" width="7" height="7"/>
	<rect x="428.3" y="580.8" class="st1" width="7" height="7"/>
	<rect x="428.3" y="588.1" class="st1" width="7" height="7"/>
	<rect x="435.6" class="st1" width="7" height="7"/>
	<rect x="442.9" class="st1" width="7" height="7"/>
	<rect x="450.1" class="st1" width="7" height="7"/>
	<rect x="457.4" class="st1" width="7" height="7"/>
	<rect x="464.6" class="st1" width="7" height="7"/>
	<rect x="471.9" class="st1" width="7" height="7"/>
	<rect x="479.2" class="st1" width="7" height="7"/>
	<rect x="486.4" class="st1" width="7" height="7"/>
	<rect x="493.7" class="st1" width="7" height="7"/>
	<rect x="500.9" class="st1" width="7" height="7"/>
	<rect x="435.6" y="580.8" class="st1" width="7" height="7"/>
	<rect x="435.6" y="588.1" class="st1" width="7" height="7"/>
	<rect x="442.9" y="580.8" class="st1" width="7" height="7"/>
	<rect x="442.9" y="588.1" class="st1" width="7" height="7"/>
	<rect x="450.1" y="580.8" class="st1" width="7" height="7"/>
	<rect x="450.1" y="588.1" class="st1" width="7" height="7"/>
	<rect x="457.4" y="580.8" class="st1" width="7" height="7"/>
	<rect x="457.4" y="588.1" class="st1" width="7" height="7"/>
	<rect x="464.6" y="580.8" class="st1" width="7" height="7"/>
	<rect x="464.6" y="588.1" class="st1" width="7" height="7"/>
	<rect x="471.9" y="580.8" class="st1" width="7" height="7"/>
	<rect x="471.9" y="588.1" class="st1" width="7" height="7"/>
	<rect x="479.2" y="580.8" class="st1" width="7" height="7"/>
	<rect x="479.2" y="588.1" class="st1" width="7" height="7"/>
	<rect x="486.4" y="580.8" class="st1" width="7" height="7"/>
	<rect x="486.4" y="588.1" class="st1" width="7" height="7"/>
	<rect x="493.7" y="580.8" class="st1" width="7" height="7"/>
	<rect x="493.7" y="588.1" class="st1" width="7" height="7"/>
	<rect x="500.9" y="580.8" class="st1" width="7" height="7"/>
	<rect x="500.9" y="588.1" class="st1" width="7" height="7"/>
	<rect x="508.2" class="st1" width="7" height="7"/>
	<rect x="515.5" class="st1" width="7" height="7"/>
	<rect x="522.7" class="st1" width="7" height="7"/>
	<rect x="530" class="st1" width="7" height="7"/>
	<rect x="537.2" class="st1" width="7" height="7"/>
	<rect x="544.5" class="st1" width="7" height="7"/>
	<rect x="551.8" class="st1" width="7" height="7"/>
	<rect x="559" class="st1" width="7" height="7"/>
	<rect x="566.3" class="st1" width="7" height="7"/>
	<rect x="573.5" class="st1" width="7" height="7"/>
	<rect x="508.2" y="580.8" class="st1" width="7" height="7"/>
	<rect x="508.2" y="588.1" class="st1" width="7" height="7"/>
	<rect x="515.5" y="580.8" class="st1" width="7" height="7"/>
	<rect x="515.5" y="588.1" class="st1" width="7" height="7"/>
	<rect x="522.7" y="580.8" class="st1" width="7" height="7"/>
	<rect x="522.7" y="588.1" class="st1" width="7" height="7"/>
	<rect x="530" y="580.8" class="st1" width="7" height="7"/>
	<rect x="530" y="588.1" class="st1" width="7" height="7"/>
	<rect x="537.2" y="580.8" class="st1" width="7" height="7"/>
	<rect x="537.2" y="588.1" class="st1" width="7" height="7"/>
	<rect x="544.5" y="580.8" class="st1" width="7" height="7"/>
	<rect x="544.5" y="588.1" class="st1" width="7" height="7"/>
	<rect x="551.8" y="580.8" class="st1" width="7" height="7"/>
	<rect x="551.8" y="588.1" class="st1" width="7" height="7"/>
	<rect x="559" y="580.8" class="st1" width="7" height="7"/>
	<rect x="559" y="588.1" class="st1" width="7" height="7"/>
	<rect x="566.3" y="580.8" class="st1" width="7" height="7"/>
	<rect x="566.3" y="588.1" class="st1" width="7" height="7"/>
	<rect x="573.5" y="580.8" class="st1" width="7" height="7"/>
	<rect x="573.5" y="588.1" class="st1" width="7" height="7"/>
	<rect x="580.8" class="st1" width="7" height="7"/>
	<rect x="588.1" class="st1" width="7" height="7"/>
	<rect x="595.3" class="st1" width="7" height="7"/>
	<rect x="602.6" class="st1" width="7" height="7"/>
	<rect x="609.8" class="st1" width="7" height="7"/>
	<rect x="617.1" class="st1" width="7" height="7"/>
	<rect x="624.4" class="st1" width="7" height="7"/>
	<rect x="631.6" class="st1" width="7" height="7"/>
	<rect x="638.9" class="st1" width="7" height="7"/>
	<rect x="646.1" class="st1" width="7" height="7"/>
	<rect x="580.8" y="580.8" class="st1" width="7" height="7"/>
	<rect x="580.8" y="588.1" class="st1" width="7" height="7"/>
	<rect x="588.1" y="580.8" class="st1" width="7" height="7"/>
	<rect x="588.1" y="588.1" class="st1" width="7" height="7"/>
	<rect x="595.3" y="580.8" class="st1" width="7" height="7"/>
	<rect x="595.3" y="588.1" class="st1" width="7" height="7"/>
	<rect x="602.6" y="580.8" class="st1" width="7" height="7"/>
	<rect x="602.6" y="588.1" class="st1" width="7" height="7"/>
	<rect x="609.8" y="580.8" class="st1" width="7" height="7"/>
	<rect x="609.8" y="588.1" class="st1" width="7" height="7"/>
	<rect x="617.1" y="580.8" class="st1" width="7" height="7"/>
	<rect x="617.1" y="588.1" class="st1" width="7" height="7"/>
	<rect x="624.4" y="580.8" class="st1" width="7" height="7"/>
	<rect x="624.4" y="588.1" class="st1" width="7" height="7"/>
	<rect x="631.6" y="580.8" class="st1" width="7" height="7"/>
	<rect x="631.6" y="588.1" class="st1" width="7" height="7"/>
	<rect x="638.9" y="580.8" class="st1" width="7" height="7"/>
	<rect x="638.9" y="588.1" class="st1" width="7" height="7"/>
	<rect x="646.1" y="580.8" class="st1" width="7" height="7"/>
	<rect x="646.1" y="588.1" class="st1" width="7" height="7"/>
	<rect x="653.4" class="st1" width="7" height="7"/>
	<rect x="660.7" class="st1" width="7" height="7"/>
	<rect x="667.9" class="st1" width="7" height="7"/>
	<rect x="675.2" class="st1" width="7" height="7"/>
	<rect x="682.4" class="st1" width="7" height="7"/>
	<rect x="689.7" class="st1" width="7" height="7"/>
	<rect x="697" class="st1" width="7" height="7"/>
	<rect x="704.2" class="st1" width="7" height="7"/>
	<rect x="711.5" class="st1" width="7" height="7"/>
	<rect x="718.7" class="st1" width="7" height="7"/>
	<rect x="653.4" y="580.8" class="st1" width="7" height="7"/>
	<rect x="653.4" y="588.1" class="st1" width="7" height="7"/>
	<rect x="660.7" y="580.8" class="st1" width="7" height="7"/>
	<rect x="660.7" y="588.1" class="st1" width="7" height="7"/>
	<rect x="667.9" y="580.8" class="st1" width="7" height="7"/>
	<rect x="667.9" y="588.1" class="st1" width="7" height="7"/>
	<rect x="675.2" y="580.8" class="st1" width="7" height="7"/>
	<rect x="675.2" y="588.1" class="st1" width="7" height="7"/>
	<rect x="682.4" y="580.8" class="st1" width="7" height="7"/>
	<rect x="682.4" y="588.1" class="st1" width="7" height="7"/>
	<rect x="689.7" y="580.8" class="st1" width="7" height="7"/>
	<rect x="689.7" y="588.1" class="st1" width="7" height="7"/>
	<rect x="697" y="580.8" class="st1" width="7" height="7"/>
	<rect x="697" y="588.1" class="st1" width="7" height="7"/>
	<rect x="704.2" y="580.8" class="st1" width="7" height="7"/>
	<rect x="704.2" y="588.1" class="st1" width="7" height="7"/>
	<rect x="711.5" y="580.8" class="st1" width="7" height="7"/>
	<rect x="711.5" y="588.1" class="st1" width="7" height="7"/>
	<rect x="718.7" y="580.8" class="st1" width="7" height="7"/>
	<rect x="718.7" y="588.1" class="st1" width="7" height="7"/>
	<rect x="726" class="st1" width="7" height="7"/>
	<rect x="733.3" class="st1" width="7" height="7"/>
	<rect x="740.5" class="st1" width="7" height="7"/>
	<rect x="747.8" class="st1" width="7" height="7"/>
	<rect x="755" class="st1" width="7" height="7"/>
	<rect x="762.3" class="st1" width="7" height="7"/>
	<rect x="769.6" class="st1" width="7" height="7"/>
	<rect x="776.8" class="st1" width="7" height="7"/>
	<rect x="784.1" class="st1" width="7" height="7"/>
	<rect x="791.3" class="st1" width="7" height="7"/>
	<rect x="726" y="580.8" class="st1" width="7" height="7"/>
	<rect x="726" y="588.1" class="st1" width="7" height="7"/>
	<rect x="733.3" y="580.8" class="st1" width="7" height="7"/>
	<rect x="733.3" y="588.1" class="st1" width="7" height="7"/>
	<rect x="740.5" y="580.8" class="st1" width="7" height="7"/>
	<rect x="740.5" y="588.1" class="st1" width="7" height="7"/>
	<rect x="747.8" y="580.8" class="st1" width="7" height="7"/>
	<rect x="747.8" y="588.1" class="st1" width="7" height="7"/>
	<rect x="755" y="580.8" class="st1" width="7" height="7"/>
	<rect x="755" y="588.1" class="st1" width="7" height="7"/>
	<rect x="762.3" y="580.8" class="st1" width="7" height="7"/>
	<rect x="762.3" y="588.1" class="st1" width="7" height="7"/>
	<rect x="769.6" y="580.8" class="st1" width="7" height="7"/>
	<rect x="769.6" y="588.1" class="st1" width="7" height="7"/>
	<rect x="776.8" y="580.8" class="st1" width="7" height="7"/>
	<rect x="776.8" y="588.1" class="st1" width="7" height="7"/>
	<rect x="784.1" y="580.8" class="st1" width="7" height="7"/>
	<rect x="784.1" y="588.1" class="st1" width="7" height="7"/>
	<rect x="791.3" y="580.8" class="st1" width="7" height="7"/>
	<rect x="791.3" y="588.1" class="st1" width="7" height="7"/>
	<rect x="798.6" class="st1" width="7" height="7"/>
	<rect x="805.9" class="st1" width="7" height="7"/>
	<rect x="813.1" class="st1" width="7" height="7"/>
	<rect x="820.4" class="st1" width="7" height="7"/>
	<rect x="827.6" class="st1" width="7" height="7"/>
	<rect x="834.9" class="st1" width="7" height="7"/>
	<rect x="842.2" class="st1" width="7" height="7"/>
	<rect x="849.4" y="7.2" class="st1" width="7" height="7"/>
	<rect x="856.7" y="14.5" class="st1" width="7" height="7"/>
	<rect x="856.7" y="21.8" class="st1" width="7" height="7"/>
	<rect x="856.7" y="29.1" class="st1" width="7" height="7"/>
	<rect x="856.7" y="36.3" class="st1" width="7" height="7"/>
	<rect x="856.7" y="43.6" class="st1" width="7" height="7"/>
	<rect x="856.7" y="50.9" class="st1" width="7" height="7"/>
	<rect x="856.7" y="58.1" class="st1" width="7" height="7"/>
	<rect x="856.7" y="65.4" class="st1" width="7" height="7"/>
	<rect x="856.7" y="72.6" class="st1" width="7" height="7"/>
	<rect x="856.7" y="79.9" class="st1" width="7" height="7"/>
	<rect x="856.7" y="87.2" class="st1" width="7" height="7"/>
	<rect x="856.7" y="94.4" class="st1" width="7" height="7"/>
	<rect x="856.7" y="101.7" class="st1" width="7" height="7"/>
	<rect x="856.7" y="108.9" class="st1" width="7" height="7"/>
	<rect x="856.7" y="116.2" class="st1" width="7" height="7"/>
	<rect x="856.7" y="123.4" class="st1" width="7" height="7"/>
	<rect x="856.7" y="130.7" class="st1" width="7" height="7"/>
	<rect x="856.7" y="138" class="st1" width="7" height="7"/>
	<rect x="856.7" y="145.2" class="st1" width="7" height="7"/>
	<rect x="856.7" y="152.5" class="st1" width="7" height="7"/>
	<rect x="856.7" y="159.7" class="st1" width="7" height="7"/>
	<rect x="856.7" y="167" class="st1" width="7" height="7"/>
	<rect x="856.7" y="174.3" class="st1" width="7" height="7"/>
	<rect x="856.7" y="181.5" class="st1" width="7" height="7"/>
	<rect x="856.7" y="188.8" class="st1" width="7" height="7"/>
	<rect x="856.7" y="196.1" class="st1" width="7" height="7"/>
	<rect x="856.7" y="203.3" class="st1" width="7" height="7"/>
	<rect x="856.7" y="210.6" class="st1" width="7" height="7"/>
	<rect x="856.7" y="217.8" class="st1" width="7" height="7"/>
	<rect x="856.7" y="225.1" class="st1" width="7" height="7"/>
	<rect x="856.7" y="232.3" class="st1" width="7" height="7"/>
	<rect x="856.7" y="239.6" class="st1" width="7" height="7"/>
	<rect x="856.7" y="246.9" class="st1" width="7" height="7"/>
	<rect x="856.7" y="254.1" class="st1" width="7" height="7"/>
	<rect x="856.7" y="261.4" class="st1" width="7" height="7"/>
	<rect x="856.7" y="268.7" class="st1" width="7" height="7"/>
	<rect x="856.7" y="275.9" class="st1" width="7" height="7"/>
	<rect x="856.7" y="283.2" class="st1" width="7" height="7"/>
	<rect x="856.7" y="290.4" class="st1" width="7" height="7"/>
	<rect x="856.7" y="297.7" class="st1" width="7" height="7"/>
	<rect x="856.7" y="304.9" class="st1" width="7" height="7"/>
	<rect x="856.7" y="312.2" class="st1" width="7" height="7"/>
	<rect x="856.7" y="319.5" class="st1" width="7" height="7"/>
	<rect x="856.7" y="326.7" class="st1" width="7" height="7"/>
	<rect x="856.7" y="334" class="st1" width="7" height="7"/>
	<rect x="856.7" y="341.3" class="st1" width="7" height="7"/>
	<rect x="856.7" y="348.5" class="st1" width="7" height="7"/>
	<rect x="856.7" y="355.8" class="st1" width="7" height="7"/>
	<rect x="856.7" y="363" class="st1" width="7" height="7"/>
	<rect x="856.7" y="370.3" class="st1" width="7" height="7"/>
	<rect x="856.7" y="377.5" class="st1" width="7" height="7"/>
	<rect x="856.7" y="384.8" class="st1" width="7" height="7"/>
	<rect x="863.9" y="21.8" class="st1" width="7" height="7"/>
	<rect x="863.9" y="29.1" class="st1" width="7" height="7"/>
	<rect x="863.9" y="36.3" class="st1" width="7" height="7"/>
	<rect x="863.9" y="43.6" class="st1" width="7" height="7"/>
	<rect x="863.9" y="50.9" class="st1" width="7" height="7"/>
	<rect x="863.9" y="58.1" class="st1" width="7" height="7"/>
	<rect x="863.9" y="65.4" class="st1" width="7" height="7"/>
	<rect x="863.9" y="72.6" class="st1" width="7" height="7"/>
	<rect x="863.9" y="79.9" class="st1" width="7" height="7"/>
	<rect x="863.9" y="87.2" class="st1" width="7" height="7"/>
	<rect x="863.9" y="94.4" class="st1" width="7" height="7"/>
	<rect x="863.9" y="101.7" class="st1" width="7" height="7"/>
	<rect x="863.9" y="108.9" class="st1" width="7" height="7"/>
	<rect x="863.9" y="116.2" class="st1" width="7" height="7"/>
	<rect x="863.9" y="123.4" class="st1" width="7" height="7"/>
	<rect x="863.9" y="130.7" class="st1" width="7" height="7"/>
	<rect x="863.9" y="138" class="st1" width="7" height="7"/>
	<rect x="863.9" y="145.2" class="st1" width="7" height="7"/>
	<rect x="863.9" y="152.5" class="st1" width="7" height="7"/>
	<rect x="863.9" y="159.7" class="st1" width="7" height="7"/>
	<rect x="863.9" y="167" class="st1" width="7" height="7"/>
	<rect x="863.9" y="174.3" class="st1" width="7" height="7"/>
	<rect x="863.9" y="181.5" class="st1" width="7" height="7"/>
	<rect x="863.9" y="188.8" class="st1" width="7" height="7"/>
	<rect x="863.9" y="196.1" class="st1" width="7" height="7"/>
	<rect x="863.9" y="203.3" class="st1" width="7" height="7"/>
	<rect x="863.9" y="210.6" class="st1" width="7" height="7"/>
	<rect x="863.9" y="217.8" class="st1" width="7" height="7"/>
	<rect x="863.9" y="225.1" class="st1" width="7" height="7"/>
	<rect x="863.9" y="232.3" class="st1" width="7" height="7"/>
	<rect x="863.9" y="239.6" class="st1" width="7" height="7"/>
	<rect x="863.9" y="246.9" class="st1" width="7" height="7"/>
	<rect x="863.9" y="254.1" class="st1" width="7" height="7"/>
	<rect x="863.9" y="261.4" class="st1" width="7" height="7"/>
	<rect x="863.9" y="268.7" class="st1" width="7" height="7"/>
	<rect x="863.9" y="275.9" class="st1" width="7" height="7"/>
	<rect x="863.9" y="283.2" class="st1" width="7" height="7"/>
	<rect x="863.9" y="290.4" class="st1" width="7" height="7"/>
	<rect x="863.9" y="297.7" class="st1" width="7" height="7"/>
	<rect x="863.9" y="304.9" class="st1" width="7" height="7"/>
	<rect x="863.9" y="312.2" class="st1" width="7" height="7"/>
	<rect x="863.9" y="319.5" class="st1" width="7" height="7"/>
	<rect x="863.9" y="326.7" class="st1" width="7" height="7"/>
	<rect x="863.9" y="334" class="st1" width="7" height="7"/>
	<rect x="863.9" y="341.3" class="st1" width="7" height="7"/>
	<rect x="863.9" y="348.5" class="st1" width="7" height="7"/>
	<rect x="863.9" y="355.8" class="st1" width="7" height="7"/>
	<rect x="863.9" y="363" class="st1" width="7" height="7"/>
	<rect x="863.9" y="370.3" class="st1" width="7" height="7"/>
	<rect x="863.9" y="377.5" class="st1" width="7" height="7"/>
	<rect x="863.9" y="384.8" class="st1" width="7" height="7"/>
	<rect x="856.7" y="392.1" class="st1" width="7" height="7"/>
	<rect x="856.7" y="399.3" class="st1" width="7" height="7"/>
	<rect x="856.7" y="406.6" class="st1" width="7" height="7"/>
	<rect x="856.7" y="413.9" class="st1" width="7" height="7"/>
	<rect x="856.7" y="421.1" class="st1" width="7" height="7"/>
	<rect x="856.7" y="428.4" class="st1" width="7" height="7"/>
	<rect x="856.7" y="435.6" class="st1" width="7" height="7"/>
	<rect x="856.7" y="442.9" class="st1" width="7" height="7"/>
	<rect x="856.7" y="450.1" class="st1" width="7" height="7"/>
	<rect x="856.7" y="457.4" class="st1" width="7" height="7"/>
	<rect x="863.9" y="392.1" class="st1" width="7" height="7"/>
	<rect x="863.9" y="399.3" class="st1" width="7" height="7"/>
	<rect x="863.9" y="406.6" class="st1" width="7" height="7"/>
	<rect x="863.9" y="413.9" class="st1" width="7" height="7"/>
	<rect x="863.9" y="421.1" class="st1" width="7" height="7"/>
	<rect x="863.9" y="428.4" class="st1" width="7" height="7"/>
	<rect x="863.9" y="435.6" class="st1" width="7" height="7"/>
	<rect x="863.9" y="442.9" class="st1" width="7" height="7"/>
	<rect x="863.9" y="450.1" class="st1" width="7" height="7"/>
	<rect x="863.9" y="457.4" class="st1" width="7" height="7"/>
	<rect x="856.7" y="464.7" class="st1" width="7" height="7"/>
	<rect x="856.7" y="471.9" class="st1" width="7" height="7"/>
	<rect x="856.7" y="479.2" class="st1" width="7" height="7"/>
	<rect x="856.7" y="486.5" class="st1" width="7" height="7"/>
	<rect x="856.7" y="493.7" class="st1" width="7" height="7"/>
	<rect x="856.7" y="501" class="st1" width="7" height="7"/>
	<rect x="856.7" y="508.2" class="st1" width="7" height="7"/>
	<rect x="856.7" y="515.5" class="st1" width="7" height="7"/>
	<rect x="856.7" y="522.7" class="st1" width="7" height="7"/>
	<rect x="856.7" y="530" class="st1" width="7" height="7"/>
	<rect x="863.9" y="464.7" class="st1" width="7" height="7"/>
	<rect x="863.9" y="471.9" class="st1" width="7" height="7"/>
	<rect x="863.9" y="479.2" class="st1" width="7" height="7"/>
	<rect x="863.9" y="486.5" class="st1" width="7" height="7"/>
	<rect x="863.9" y="493.7" class="st1" width="7" height="7"/>
	<rect x="863.9" y="501" class="st1" width="7" height="7"/>
	<rect x="863.9" y="508.2" class="st1" width="7" height="7"/>
	<rect x="863.9" y="515.5" class="st1" width="7" height="7"/>
	<rect x="863.9" y="522.7" class="st1" width="7" height="7"/>
	<rect x="863.9" y="530" class="st1" width="7" height="7"/>
	<rect x="798.6" y="580.8" class="st1" width="7" height="7"/>
	<rect x="798.6" y="588.1" class="st1" width="7" height="7"/>
	<rect x="805.9" y="580.8" class="st1" width="7" height="7"/>
	<rect x="805.9" y="588.1" class="st1" width="7" height="7"/>
	<rect x="813.1" y="580.8" class="st1" width="7" height="7"/>
	<rect x="813.1" y="588.1" class="st1" width="7" height="7"/>
	<rect x="820.4" y="580.8" class="st1" width="7" height="7"/>
	<rect x="820.4" y="588.1" class="st1" width="7" height="7"/>
	<rect x="827.6" y="580.8" class="st1" width="7" height="7"/>
	<rect x="827.6" y="588.1" class="st1" width="7" height="7"/>
	<rect x="834.9" y="580.8" class="st1" width="7" height="7"/>
	<rect x="834.9" y="588.1" class="st1" width="7" height="7"/>
	<rect x="842.2" y="580.8" class="st1" width="7" height="7"/>
	<rect x="842.2" y="588.1" class="st1" width="7" height="7"/>
	<rect x="849.4" y="580.8" class="st1" width="7" height="7"/>
	<rect x="856.7" y="537.3" class="st1" width="7" height="7"/>
	<rect x="856.7" y="544.5" class="st1" width="7" height="7"/>
	<rect x="856.7" y="551.8" class="st1" width="7" height="7"/>
	<rect x="856.7" y="559.1" class="st1" width="7" height="7"/>
	<rect x="856.7" y="566.3" class="st1" width="7" height="7"/>
	<rect x="856.7" y="573.6" class="st1" width="7" height="7"/>
	<rect x="849.4" y="573.6" class="st1" width="7" height="7"/>
	<rect x="863.9" y="537.3" class="st1" width="7" height="7"/>
	<rect x="863.9" y="544.5" class="st1" width="7" height="7"/>
	<rect x="863.9" y="551.8" class="st1" width="7" height="7"/>
	<rect x="863.9" y="559.1" class="st1" width="7" height="7"/>
	<rect x="863.9" y="566.3" class="st1" width="7" height="7"/>
</g>
</svg>
