<?xml version="1.0" encoding="utf-8"?>
<!-- Generator: Adobe Illustrator 27.3.1, SVG Export Plug-In . SVG Version: 6.00 Build 0)  -->
<svg version="1.1" id="Слой_1" xmlns="http://www.w3.org/2000/svg" xmlns:xlink="http://www.w3.org/1999/xlink" x="0px" y="0px"
	 viewBox="0 0 210 64" style="enable-background:new 0 0 210 64;" xml:space="preserve">
<style type="text/css">
	.st0{fill:#1E0E01;}
</style>
<g>
	<rect x="0.86" y="7.75" class="st0" width="7" height="7"/>
	<rect x="0.86" y="15.02" class="st0" width="7" height="7"/>
	<rect x="0.86" y="22.28" class="st0" width="7" height="7"/>
	<rect x="0.86" y="29.55" class="st0" width="7" height="7"/>
	<rect x="0.86" y="36.81" class="st0" width="7" height="7"/>
	<rect x="0.86" y="44.08" class="st0" width="7" height="7"/>
	<rect x="0.86" y="51.34" class="st0" width="7" height="7"/>
	<rect x="8.12" y="7.75" class="st0" width="7" height="7"/>
	<rect x="8.12" y="15.02" class="st0" width="7" height="7"/>
	<rect x="8.12" y="22.28" class="st0" width="7" height="7"/>
	<rect x="8.12" y="29.55" class="st0" width="7" height="7"/>
	<rect x="8.12" y="36.81" class="st0" width="7" height="7"/>
	<rect x="8.12" y="44.08" class="st0" width="7" height="7"/>
	<rect x="8.12" y="51.34" class="st0" width="7" height="7"/>
	<rect x="15.38" y="7.75" class="st0" width="7" height="7"/>
	<rect x="15.38" y="15.02" class="st0" width="7" height="7"/>
	<rect x="15.38" y="22.28" class="st0" width="7" height="7"/>
	<rect x="15.38" y="29.55" class="st0" width="7" height="7"/>
	<rect x="15.38" y="36.81" class="st0" width="7" height="7"/>
	<rect x="15.38" y="44.08" class="st0" width="7" height="7"/>
	<rect x="15.38" y="51.34" class="st0" width="7" height="7"/>
	<rect x="22.64" y="7.75" class="st0" width="7" height="7"/>
	<rect x="22.64" y="15.02" class="st0" width="7" height="7"/>
	<rect x="22.64" y="22.28" class="st0" width="7" height="7"/>
	<rect x="22.64" y="29.55" class="st0" width="7" height="7"/>
	<rect x="22.64" y="36.81" class="st0" width="7" height="7"/>
	<rect x="22.64" y="44.08" class="st0" width="7" height="7"/>
	<rect x="22.64" y="51.34" class="st0" width="7" height="7"/>
	<rect x="29.9" y="7.75" class="st0" width="7" height="7"/>
	<rect x="29.9" y="15.02" class="st0" width="7" height="7"/>
	<rect x="29.9" y="22.28" class="st0" width="7" height="7"/>
	<rect x="29.9" y="29.55" class="st0" width="7" height="7"/>
	<rect x="29.9" y="36.81" class="st0" width="7" height="7"/>
	<rect x="29.9" y="44.08" class="st0" width="7" height="7"/>
	<rect x="29.9" y="51.34" class="st0" width="7" height="7"/>
	<rect x="37.16" y="15.02" class="st0" width="7" height="7"/>
	<rect x="37.16" y="22.28" class="st0" width="7" height="7"/>
	<rect x="37.16" y="29.55" class="st0" width="7" height="7"/>
	<rect x="37.16" y="36.81" class="st0" width="7" height="7"/>
	<rect x="37.16" y="44.08" class="st0" width="7" height="7"/>
	<rect x="44.42" y="7.75" class="st0" width="7" height="7"/>
	<rect x="44.42" y="22.28" class="st0" width="7" height="7"/>
	<rect x="44.42" y="29.55" class="st0" width="7" height="7"/>
	<rect x="44.42" y="36.81" class="st0" width="7" height="7"/>
	<rect x="44.42" y="51.34" class="st0" width="7" height="7"/>
	<rect x="51.68" y="7.75" class="st0" width="7" height="7"/>
	<rect x="51.68" y="15.02" class="st0" width="7" height="7"/>
	<rect x="51.68" y="29.55" class="st0" width="7" height="7"/>
	<rect x="51.68" y="44.08" class="st0" width="7" height="7"/>
	<rect x="51.68" y="51.34" class="st0" width="7" height="7"/>
	<rect x="58.94" y="7.75" class="st0" width="7" height="7"/>
	<rect x="58.94" y="15.02" class="st0" width="7" height="7"/>
	<rect x="58.94" y="22.28" class="st0" width="7" height="7"/>
	<rect x="58.94" y="36.81" class="st0" width="7" height="7"/>
	<rect x="58.94" y="44.08" class="st0" width="7" height="7"/>
	<rect x="58.94" y="51.34" class="st0" width="7" height="7"/>
	<rect x="66.2" y="7.75" class="st0" width="7" height="7"/>
	<rect x="66.2" y="15.02" class="st0" width="7" height="7"/>
	<rect x="66.2" y="22.28" class="st0" width="7" height="7"/>
	<rect x="66.2" y="29.55" class="st0" width="7" height="7"/>
	<rect x="66.2" y="36.81" class="st0" width="7" height="7"/>
	<rect x="66.2" y="44.08" class="st0" width="7" height="7"/>
	<rect x="66.2" y="51.34" class="st0" width="7" height="7"/>
	<rect x="73.46" y="15.02" class="st0" width="7" height="7"/>
	<rect x="73.46" y="22.28" class="st0" width="7" height="7"/>
	<rect x="73.46" y="29.55" class="st0" width="7" height="7"/>
	<rect x="73.46" y="36.81" class="st0" width="7" height="7"/>
	<rect x="73.46" y="44.08" class="st0" width="7" height="7"/>
	<rect x="80.72" y="7.75" class="st0" width="7" height="7"/>
	<rect x="80.72" y="22.28" class="st0" width="7" height="7"/>
	<rect x="80.72" y="29.55" class="st0" width="7" height="7"/>
	<rect x="80.72" y="36.81" class="st0" width="7" height="7"/>
	<rect x="80.72" y="51.34" class="st0" width="7" height="7"/>
	<rect x="87.98" y="7.75" class="st0" width="7" height="7"/>
	<rect x="87.98" y="15.02" class="st0" width="7" height="7"/>
	<rect x="87.98" y="29.55" class="st0" width="7" height="7"/>
	<rect x="87.98" y="44.08" class="st0" width="7" height="7"/>
	<rect x="87.98" y="51.34" class="st0" width="7" height="7"/>
	<rect x="95.24" y="7.75" class="st0" width="7" height="7"/>
	<rect x="95.24" y="15.02" class="st0" width="7" height="7"/>
	<rect x="95.24" y="22.28" class="st0" width="7" height="7"/>
	<rect x="95.24" y="36.81" class="st0" width="7" height="7"/>
	<rect x="95.24" y="44.08" class="st0" width="7" height="7"/>
	<rect x="95.24" y="51.34" class="st0" width="7" height="7"/>
	<rect x="102.5" y="7.75" class="st0" width="7" height="7"/>
	<rect x="102.5" y="15.02" class="st0" width="7" height="7"/>
	<rect x="102.5" y="22.28" class="st0" width="7" height="7"/>
	<rect x="102.5" y="29.55" class="st0" width="7" height="7"/>
	<rect x="102.5" y="36.81" class="st0" width="7" height="7"/>
	<rect x="102.5" y="44.08" class="st0" width="7" height="7"/>
	<rect x="102.5" y="51.34" class="st0" width="7" height="7"/>
	<rect x="109.76" y="15.02" class="st0" width="7" height="7"/>
	<rect x="109.76" y="22.28" class="st0" width="7" height="7"/>
	<rect x="109.76" y="29.55" class="st0" width="7" height="7"/>
	<rect x="109.76" y="36.81" class="st0" width="7" height="7"/>
	<rect x="109.76" y="44.08" class="st0" width="7" height="7"/>
	<rect x="117.02" y="7.75" class="st0" width="7" height="7"/>
	<rect x="117.02" y="22.28" class="st0" width="7" height="7"/>
	<rect x="117.02" y="29.55" class="st0" width="7" height="7"/>
	<rect x="117.02" y="36.81" class="st0" width="7" height="7"/>
	<rect x="117.02" y="51.34" class="st0" width="7" height="7"/>
	<rect x="124.28" y="7.75" class="st0" width="7" height="7"/>
	<rect x="124.28" y="15.02" class="st0" width="7" height="7"/>
	<rect x="124.28" y="29.55" class="st0" width="7" height="7"/>
	<rect x="124.28" y="44.08" class="st0" width="7" height="7"/>
	<rect x="124.28" y="51.34" class="st0" width="7" height="7"/>
	<rect x="131.54" y="7.75" class="st0" width="7" height="7"/>
	<rect x="131.54" y="15.02" class="st0" width="7" height="7"/>
	<rect x="131.54" y="22.28" class="st0" width="7" height="7"/>
	<rect x="131.54" y="36.81" class="st0" width="7" height="7"/>
	<rect x="131.54" y="44.08" class="st0" width="7" height="7"/>
	<rect x="131.54" y="51.34" class="st0" width="7" height="7"/>
	<rect x="138.8" y="7.75" class="st0" width="7" height="7"/>
	<rect x="138.8" y="15.02" class="st0" width="7" height="7"/>
	<rect x="138.8" y="22.28" class="st0" width="7" height="7"/>
	<rect x="138.8" y="29.55" class="st0" width="7" height="7"/>
	<rect x="138.8" y="36.81" class="st0" width="7" height="7"/>
	<rect x="138.8" y="44.08" class="st0" width="7" height="7"/>
	<rect x="138.8" y="51.34" class="st0" width="7" height="7"/>
	<rect x="146.06" y="15.02" class="st0" width="7" height="7"/>
	<rect x="146.06" y="22.28" class="st0" width="7" height="7"/>
	<rect x="146.06" y="29.55" class="st0" width="7" height="7"/>
	<rect x="146.06" y="36.81" class="st0" width="7" height="7"/>
	<rect x="146.06" y="44.08" class="st0" width="7" height="7"/>
	<rect x="153.32" y="22.28" class="st0" width="7" height="7"/>
	<rect x="153.32" y="29.55" class="st0" width="7" height="7"/>
	<rect x="153.32" y="36.81" class="st0" width="7" height="7"/>
	<rect x="160.58" y="29.55" class="st0" width="7" height="7"/>
	<rect x="189.62" y="22.28" class="st0" width="7" height="7"/>
	<rect x="189.62" y="36.81" class="st0" width="7" height="7"/>
	<rect x="196.88" y="29.55" class="st0" width="7" height="7"/>
</g>
</svg>
