<?xml version="1.0" encoding="utf-8"?>
<!-- Generator: Adobe Illustrator 27.3.1, SVG Export Plug-In . SVG Version: 6.00 Build 0)  -->
<svg version="1.1" id="Слой_1" xmlns="http://www.w3.org/2000/svg" xmlns:xlink="http://www.w3.org/1999/xlink" x="0px" y="0px"
	 viewBox="0 0 348.24 79.53" style="enable-background:new 0 0 348.24 79.53;" xml:space="preserve">
<style type="text/css">
	.st0{fill:#1E0E01;}
</style>
<rect x="72.63" class="st0" width="7" height="7"/>
<rect x="79.89" class="st0" width="7" height="7"/>
<rect x="87.15" class="st0" width="7" height="7"/>
<rect x="94.41" class="st0" width="7" height="7"/>
<rect x="101.67" class="st0" width="7" height="7"/>
<rect x="108.93" class="st0" width="7" height="7"/>
<rect x="116.19" class="st0" width="7" height="7"/>
<rect x="123.45" class="st0" width="7" height="7"/>
<rect x="130.71" class="st0" width="7" height="7"/>
<rect x="137.97" class="st0" width="7" height="7"/>
<rect x="145.23" class="st0" width="7" height="7"/>
<rect x="152.49" class="st0" width="7" height="7"/>
<rect x="159.75" class="st0" width="7" height="7"/>
<rect x="167.01" class="st0" width="7" height="7"/>
<rect x="174.27" class="st0" width="7" height="7"/>
<rect x="188.79" y="-0.02" class="st0" width="7" height="7"/>
<rect x="196.05" y="-0.02" class="st0" width="7" height="7"/>
<rect x="203.31" y="-0.02" class="st0" width="7" height="7"/>
<rect x="210.57" y="-0.02" class="st0" width="7" height="7"/>
<rect x="217.83" y="-0.02" class="st0" width="7" height="7"/>
<rect x="225.09" y="-0.02" class="st0" width="7" height="7"/>
<rect x="232.35" y="-0.02" class="st0" width="7" height="7"/>
<rect x="239.61" y="-0.02" class="st0" width="7" height="7"/>
<rect x="246.87" y="-0.02" class="st0" width="7" height="7"/>
<rect x="254.13" y="-0.02" class="st0" width="7" height="7"/>
<rect x="261.39" y="-0.02" class="st0" width="7" height="7"/>
<rect x="268.65" y="-0.02" class="st0" width="7" height="7"/>
<rect x="275.91" y="-0.02" class="st0" width="7" height="7"/>
<rect x="72.63" y="7.26" class="st0" width="7" height="7"/>
<rect x="79.89" y="7.26" class="st0" width="7" height="7"/>
<rect x="87.15" y="7.26" class="st0" width="7" height="7"/>
<rect x="94.41" y="7.26" class="st0" width="7" height="7"/>
<rect x="101.67" y="7.26" class="st0" width="7" height="7"/>
<rect x="116.19" y="7.26" class="st0" width="7" height="7"/>
<rect x="123.45" y="7.26" class="st0" width="7" height="7"/>
<rect x="130.71" y="7.26" class="st0" width="7" height="7"/>
<rect x="137.97" y="7.26" class="st0" width="7" height="7"/>
<rect x="145.23" y="7.26" class="st0" width="7" height="7"/>
<rect x="152.49" y="7.26" class="st0" width="7" height="7"/>
<rect x="159.75" y="7.26" class="st0" width="7" height="7"/>
<rect x="167.01" y="7.26" class="st0" width="7" height="7"/>
<rect x="174.27" y="7.26" class="st0" width="7" height="7"/>
<rect x="188.79" y="7.24" class="st0" width="7" height="7"/>
<rect x="196.05" y="7.24" class="st0" width="7" height="7"/>
<rect x="203.31" y="7.24" class="st0" width="7" height="7"/>
<rect x="210.57" y="7.24" class="st0" width="7" height="7"/>
<rect x="217.83" y="7.24" class="st0" width="7" height="7"/>
<rect x="225.09" y="7.24" class="st0" width="7" height="7"/>
<rect x="232.35" y="7.24" class="st0" width="7" height="7"/>
<rect x="239.61" y="7.24" class="st0" width="7" height="7"/>
<rect x="246.87" y="7.24" class="st0" width="7" height="7"/>
<rect x="254.13" y="7.24" class="st0" width="7" height="7"/>
<rect x="261.39" y="7.24" class="st0" width="7" height="7"/>
<rect x="268.65" y="7.24" class="st0" width="7" height="7"/>
<rect x="275.91" y="7.24" class="st0" width="7" height="7"/>
<rect x="72.63" y="14.52" class="st0" width="7" height="7"/>
<rect x="79.89" y="14.52" class="st0" width="7" height="7"/>
<rect x="87.15" y="14.52" class="st0" width="7" height="7"/>
<rect x="94.41" y="14.52" class="st0" width="7" height="7"/>
<rect x="116.19" y="14.52" class="st0" width="7" height="7"/>
<rect x="123.45" y="14.52" class="st0" width="7" height="7"/>
<rect x="130.71" y="14.52" class="st0" width="7" height="7"/>
<rect x="137.97" y="14.52" class="st0" width="7" height="7"/>
<rect x="145.23" y="14.52" class="st0" width="7" height="7"/>
<rect x="152.49" y="14.52" class="st0" width="7" height="7"/>
<rect x="159.75" y="14.52" class="st0" width="7" height="7"/>
<rect x="167.01" y="14.52" class="st0" width="7" height="7"/>
<rect x="174.27" y="14.52" class="st0" width="7" height="7"/>
<rect x="188.79" y="14.5" class="st0" width="7" height="7"/>
<rect x="196.05" y="14.5" class="st0" width="7" height="7"/>
<rect x="203.31" y="14.5" class="st0" width="7" height="7"/>
<rect x="210.57" y="14.5" class="st0" width="7" height="7"/>
<rect x="217.83" y="14.5" class="st0" width="7" height="7"/>
<rect x="225.09" y="14.5" class="st0" width="7" height="7"/>
<rect x="232.35" y="14.5" class="st0" width="7" height="7"/>
<rect x="239.61" y="14.5" class="st0" width="7" height="7"/>
<rect x="246.87" y="14.5" class="st0" width="7" height="7"/>
<rect x="254.13" y="14.5" class="st0" width="7" height="7"/>
<rect x="261.39" y="14.5" class="st0" width="7" height="7"/>
<rect x="268.65" y="14.5" class="st0" width="7" height="7"/>
<rect x="275.91" y="14.5" class="st0" width="7" height="7"/>
<rect x="79.88" y="21.78" class="st0" width="7" height="7"/>
<rect x="87.15" y="21.78" class="st0" width="7" height="7"/>
<rect x="123.45" y="21.78" class="st0" width="7" height="7"/>
<rect x="130.71" y="21.78" class="st0" width="7" height="7"/>
<rect x="159.75" y="21.78" class="st0" width="7" height="7"/>
<rect x="167.01" y="21.78" class="st0" width="7" height="7"/>
<rect x="181.53" y="21.78" class="st0" width="7" height="7"/>
<rect x="203.31" y="21.76" class="st0" width="7" height="7"/>
<rect x="217.83" y="21.76" class="st0" width="7" height="7"/>
<rect x="239.61" y="21.76" class="st0" width="7" height="7"/>
<rect x="246.87" y="21.76" class="st0" width="7" height="7"/>
<rect x="254.13" y="21.76" class="st0" width="7" height="7"/>
<rect x="87.15" y="29.04" class="st0" width="7" height="7"/>
<rect x="94.41" y="29.04" class="st0" width="7" height="7"/>
<rect x="116.19" y="29.04" class="st0" width="7" height="7"/>
<rect x="123.45" y="29.04" class="st0" width="7" height="7"/>
<rect x="145.23" y="29.04" class="st0" width="7" height="7"/>
<rect x="167.01" y="29.04" class="st0" width="7" height="7"/>
<rect x="203.31" y="29.02" class="st0" width="7" height="7"/>
<rect x="246.87" y="29.02" class="st0" width="7" height="7"/>
<rect x="268.65" y="29.02" class="st0" width="7" height="7"/>
<rect x="87.15" y="36.3" class="st0" width="7" height="7"/>
<rect x="94.41" y="36.3" class="st0" width="7" height="7"/>
<rect x="116.19" y="36.3" class="st0" width="7" height="7"/>
<rect x="123.45" y="36.3" class="st0" width="7" height="7"/>
<rect x="145.23" y="36.3" class="st0" width="7" height="7"/>
<rect x="167.01" y="36.3" class="st0" width="7" height="7"/>
<rect x="188.79" y="36.28" class="st0" width="7" height="7"/>
<rect x="196.05" y="36.28" class="st0" width="7" height="7"/>
<rect x="203.31" y="36.28" class="st0" width="7" height="7"/>
<rect x="225.09" y="36.28" class="st0" width="7" height="7"/>
<rect x="246.87" y="36.28" class="st0" width="7" height="7"/>
<rect x="268.65" y="36.28" class="st0" width="7" height="7"/>
<rect x="87.15" y="43.56" class="st0" width="7" height="7"/>
<rect x="94.41" y="43.56" class="st0" width="7" height="7"/>
<rect x="116.19" y="43.56" class="st0" width="7" height="7"/>
<rect x="123.45" y="43.56" class="st0" width="7" height="7"/>
<rect x="159.75" y="43.56" class="st0" width="7" height="7"/>
<rect x="167.01" y="43.56" class="st0" width="7" height="7"/>
<rect x="188.79" y="43.54" class="st0" width="7" height="7"/>
<rect x="196.05" y="43.54" class="st0" width="7" height="7"/>
<rect x="203.31" y="43.54" class="st0" width="7" height="7"/>
<rect x="225.09" y="43.54" class="st0" width="7" height="7"/>
<rect x="246.87" y="43.54" class="st0" width="7" height="7"/>
<rect x="87.15" y="50.82" class="st0" width="7" height="7"/>
<rect x="94.41" y="50.82" class="st0" width="7" height="7"/>
<rect x="116.19" y="50.82" class="st0" width="7" height="7"/>
<rect x="123.45" y="50.82" class="st0" width="7" height="7"/>
<rect x="145.23" y="50.82" class="st0" width="7" height="7"/>
<rect x="152.49" y="50.82" class="st0" width="7" height="7"/>
<rect x="159.75" y="50.82" class="st0" width="7" height="7"/>
<rect x="167.01" y="50.82" class="st0" width="7" height="7"/>
<rect x="188.79" y="50.8" class="st0" width="7" height="7"/>
<rect x="196.05" y="50.8" class="st0" width="7" height="7"/>
<rect x="203.31" y="50.8" class="st0" width="7" height="7"/>
<rect x="225.09" y="50.8" class="st0" width="7" height="7"/>
<rect x="246.87" y="50.8" class="st0" width="7" height="7"/>
<rect x="268.65" y="50.8" class="st0" width="7" height="7"/>
<rect x="275.91" y="50.8" class="st0" width="7" height="7"/>
<rect x="87.15" y="58.08" class="st0" width="7" height="7"/>
<rect x="94.41" y="58.08" class="st0" width="7" height="7"/>
<rect x="123.45" y="58.08" class="st0" width="7" height="7"/>
<rect x="145.23" y="58.08" class="st0" width="7" height="7"/>
<rect x="167.01" y="58.08" class="st0" width="7" height="7"/>
<rect x="188.79" y="58.06" class="st0" width="7" height="7"/>
<rect x="196.05" y="58.06" class="st0" width="7" height="7"/>
<rect x="203.31" y="58.06" class="st0" width="7" height="7"/>
<rect x="225.09" y="58.04" class="st0" width="7" height="7"/>
<rect x="246.87" y="58.06" class="st0" width="7" height="7"/>
<rect x="268.65" y="58.06" class="st0" width="7" height="7"/>
<rect x="87.15" y="65.34" class="st0" width="7" height="7"/>
<rect x="94.41" y="65.34" class="st0" width="7" height="7"/>
<rect x="101.67" y="65.34" class="st0" width="7" height="7"/>
<rect x="123.45" y="65.34" class="st0" width="7" height="7"/>
<rect x="130.71" y="65.34" class="st0" width="7" height="7"/>
<rect x="159.75" y="65.34" class="st0" width="7" height="7"/>
<rect x="167.01" y="65.34" class="st0" width="7" height="7"/>
<rect x="188.79" y="65.32" class="st0" width="7" height="7"/>
<rect x="196.05" y="65.32" class="st0" width="7" height="7"/>
<rect x="203.31" y="65.32" class="st0" width="7" height="7"/>
<rect x="225.09" y="65.32" class="st0" width="7" height="7"/>
<rect x="246.87" y="65.32" class="st0" width="7" height="7"/>
<rect x="254.13" y="65.32" class="st0" width="7" height="7"/>
<rect x="14.52" class="st0" width="7" height="7"/>
<rect x="21.78" class="st0" width="7" height="7"/>
<rect x="29.04" class="st0" width="7" height="7"/>
<rect x="36.3" class="st0" width="7" height="7"/>
<rect x="43.56" class="st0" width="7" height="7"/>
<rect x="50.82" class="st0" width="7" height="7"/>
<rect x="58.08" class="st0" width="7" height="7"/>
<rect x="65.34" class="st0" width="7" height="7"/>
<rect x="14.52" y="7.26" class="st0" width="7" height="7"/>
<rect x="21.78" y="7.26" class="st0" width="7" height="7"/>
<rect x="43.56" y="7.26" class="st0" width="7" height="7"/>
<rect x="50.82" y="7.26" class="st0" width="7" height="7"/>
<rect x="58.08" y="7.26" class="st0" width="7" height="7"/>
<rect x="65.34" y="7.26" class="st0" width="7" height="7"/>
<rect x="14.52" y="14.52" class="st0" width="7" height="7"/>
<rect x="21.78" y="14.52" class="st0" width="7" height="7"/>
<rect x="43.56" y="14.52" class="st0" width="7" height="7"/>
<rect x="50.82" y="14.52" class="st0" width="7" height="7"/>
<rect x="58.08" y="14.52" class="st0" width="7" height="7"/>
<rect x="65.34" y="14.52" class="st0" width="7" height="7"/>
<rect x="14.52" y="21.78" class="st0" width="7" height="7"/>
<rect x="21.78" y="21.78" class="st0" width="7" height="7"/>
<rect x="43.56" y="21.78" class="st0" width="7" height="7"/>
<rect x="58.08" y="21.78" class="st0" width="7" height="7"/>
<rect x="14.52" y="29.04" class="st0" width="7" height="7"/>
<rect x="21.78" y="29.04" class="st0" width="7" height="7"/>
<rect x="43.56" y="29.04" class="st0" width="7" height="7"/>
<rect x="14.52" y="36.3" class="st0" width="7" height="7"/>
<rect x="21.78" y="36.3" class="st0" width="7" height="7"/>
<rect x="43.56" y="36.3" class="st0" width="7" height="7"/>
<rect x="65.34" y="36.3" class="st0" width="7" height="7"/>
<rect x="14.52" y="43.56" class="st0" width="7" height="7"/>
<rect x="21.78" y="43.56" class="st0" width="7" height="7"/>
<rect x="43.56" y="43.56" class="st0" width="7" height="7"/>
<rect x="65.34" y="43.56" class="st0" width="7" height="7"/>
<rect x="14.52" y="50.82" class="st0" width="7" height="7"/>
<rect x="21.78" y="50.82" class="st0" width="7" height="7"/>
<rect x="43.56" y="50.82" class="st0" width="7" height="7"/>
<rect x="65.34" y="50.82" class="st0" width="7" height="7"/>
<rect x="14.52" y="58.08" class="st0" width="7" height="7"/>
<rect x="21.78" y="58.08" class="st0" width="7" height="7"/>
<rect x="43.56" y="58.08" class="st0" width="7" height="7"/>
<rect x="65.34" y="58.08" class="st0" width="7" height="7"/>
<rect x="14.52" y="65.34" class="st0" width="7" height="7"/>
<rect x="21.78" y="65.34" class="st0" width="7" height="7"/>
<rect x="43.56" y="65.34" class="st0" width="7" height="7"/>
<rect x="65.34" y="65.34" class="st0" width="7" height="7"/>
<rect x="72.63" y="72.56" class="st0" width="7" height="7"/>
<rect x="79.89" y="72.56" class="st0" width="7" height="7"/>
<rect x="87.15" y="72.56" class="st0" width="7" height="7"/>
<rect x="94.41" y="72.56" class="st0" width="7" height="7"/>
<rect x="101.67" y="72.56" class="st0" width="7" height="7"/>
<rect x="108.93" y="72.56" class="st0" width="7" height="7"/>
<rect x="116.19" y="72.56" class="st0" width="7" height="7"/>
<rect x="123.45" y="72.56" class="st0" width="7" height="7"/>
<rect x="130.71" y="72.56" class="st0" width="7" height="7"/>
<rect x="137.97" y="72.56" class="st0" width="7" height="7"/>
<rect x="145.23" y="72.56" class="st0" width="7" height="7"/>
<rect x="152.49" y="72.56" class="st0" width="7" height="7"/>
<rect x="159.75" y="72.56" class="st0" width="7" height="7"/>
<rect x="167.01" y="72.56" class="st0" width="7" height="7"/>
<rect x="174.27" y="72.56" class="st0" width="7" height="7"/>
<rect x="188.79" y="72.54" class="st0" width="7" height="7"/>
<rect x="196.05" y="72.54" class="st0" width="7" height="7"/>
<rect x="203.31" y="72.54" class="st0" width="7" height="7"/>
<rect x="210.57" y="72.54" class="st0" width="7" height="7"/>
<rect x="217.83" y="72.54" class="st0" width="7" height="7"/>
<rect x="225.09" y="72.54" class="st0" width="7" height="7"/>
<rect x="232.35" y="72.54" class="st0" width="7" height="7"/>
<rect x="239.61" y="72.54" class="st0" width="7" height="7"/>
<rect x="246.87" y="72.54" class="st0" width="7" height="7"/>
<rect x="254.13" y="72.54" class="st0" width="7" height="7"/>
<rect x="261.39" y="72.54" class="st0" width="7" height="7"/>
<rect x="268.65" y="72.54" class="st0" width="7" height="7"/>
<rect x="275.91" y="72.54" class="st0" width="7" height="7"/>
<rect x="14.52" y="72.56" class="st0" width="7" height="7"/>
<rect x="21.78" y="72.56" class="st0" width="7" height="7"/>
<rect x="29.04" y="72.56" class="st0" width="7" height="7"/>
<rect x="36.3" y="72.56" class="st0" width="7" height="7"/>
<rect x="43.56" y="72.56" class="st0" width="7" height="7"/>
<rect x="50.82" y="72.56" class="st0" width="7" height="7"/>
<rect x="58.08" y="72.56" class="st0" width="7" height="7"/>
<rect x="65.34" y="72.56" class="st0" width="7" height="7"/>
<rect x="0.06" class="st0" width="7" height="7"/>
<rect x="7.32" class="st0" width="7" height="7"/>
<rect x="0.06" y="7.26" class="st0" width="7" height="7"/>
<rect x="7.32" y="7.26" class="st0" width="7" height="7"/>
<rect x="0.06" y="14.52" class="st0" width="7" height="7"/>
<rect x="7.32" y="14.52" class="st0" width="7" height="7"/>
<rect x="0.06" y="21.78" class="st0" width="7" height="7"/>
<rect x="7.32" y="21.78" class="st0" width="7" height="7"/>
<rect x="0.06" y="29.04" class="st0" width="7" height="7"/>
<rect x="7.32" y="29.04" class="st0" width="7" height="7"/>
<rect x="0.06" y="36.3" class="st0" width="7" height="7"/>
<rect x="7.32" y="36.3" class="st0" width="7" height="7"/>
<rect x="0.06" y="43.56" class="st0" width="7" height="7"/>
<rect x="7.32" y="43.56" class="st0" width="7" height="7"/>
<rect x="0.06" y="50.82" class="st0" width="7" height="7"/>
<rect x="7.32" y="50.82" class="st0" width="7" height="7"/>
<rect x="0.06" y="58.08" class="st0" width="7" height="7"/>
<rect x="7.32" y="58.08" class="st0" width="7" height="7"/>
<rect x="0.06" y="65.34" class="st0" width="7" height="7"/>
<rect x="7.32" y="65.34" class="st0" width="7" height="7"/>
<rect x="0.06" y="72.56" class="st0" width="7" height="7"/>
<rect x="7.32" y="72.56" class="st0" width="7" height="7"/>
<rect x="283.17" y="-0.04" class="st0" width="7" height="7"/>
<rect x="290.43" y="-0.04" class="st0" width="7" height="7"/>
<rect x="297.69" y="-0.04" class="st0" width="7" height="7"/>
<rect x="304.95" y="-0.04" class="st0" width="7" height="7"/>
<rect x="312.21" y="-0.04" class="st0" width="7" height="7"/>
<rect x="283.17" y="7.22" class="st0" width="7" height="7"/>
<rect x="290.43" y="7.22" class="st0" width="7" height="7"/>
<rect x="297.69" y="7.22" class="st0" width="7" height="7"/>
<rect x="304.95" y="7.22" class="st0" width="7" height="7"/>
<rect x="283.17" y="14.48" class="st0" width="7" height="7"/>
<rect x="290.43" y="14.48" class="st0" width="7" height="7"/>
<rect x="297.69" y="14.48" class="st0" width="7" height="7"/>
<rect x="283.17" y="21.74" class="st0" width="7" height="7"/>
<rect x="290.43" y="21.74" class="st0" width="7" height="7"/>
<rect x="290.43" y="29" class="st0" width="7" height="7"/>
<rect x="297.69" y="29" class="st0" width="7" height="7"/>
<rect x="290.43" y="36.26" class="st0" width="7" height="7"/>
<rect x="297.69" y="36.26" class="st0" width="7" height="7"/>
<rect x="283.17" y="43.52" class="st0" width="7" height="7"/>
<rect x="290.43" y="43.52" class="st0" width="7" height="7"/>
<rect x="297.69" y="43.52" class="st0" width="7" height="7"/>
<rect x="283.17" y="50.78" class="st0" width="7" height="7"/>
<rect x="290.43" y="50.78" class="st0" width="7" height="7"/>
<rect x="297.69" y="50.78" class="st0" width="7" height="7"/>
<rect x="290.43" y="58.04" class="st0" width="7" height="7"/>
<rect x="297.69" y="58.04" class="st0" width="7" height="7"/>
<rect x="283.17" y="65.3" class="st0" width="7" height="7"/>
<rect x="290.43" y="65.3" class="st0" width="7" height="7"/>
<rect x="297.69" y="65.3" class="st0" width="7" height="7"/>
<rect x="304.95" y="65.3" class="st0" width="7" height="7"/>
<rect x="283.17" y="72.52" class="st0" width="7" height="7"/>
<rect x="290.43" y="72.52" class="st0" width="7" height="7"/>
<rect x="297.69" y="72.52" class="st0" width="7" height="7"/>
<rect x="304.95" y="72.52" class="st0" width="7" height="7"/>
<rect x="312.21" y="72.52" class="st0" width="7" height="7"/>
<rect x="319.46" y="-0.04" class="st0" width="7" height="7"/>
<rect x="326.72" y="-0.04" class="st0" width="7" height="7"/>
<rect x="333.98" y="-0.04" class="st0" width="7" height="7"/>
<rect x="341.24" y="-0.04" class="st0" width="7" height="7"/>
<rect x="348.5" y="-0.04" class="st0" width="7" height="7"/>
<rect x="319.46" y="7.22" class="st0" width="7" height="7"/>
<rect x="326.72" y="7.22" class="st0" width="7" height="7"/>
<rect x="333.98" y="7.22" class="st0" width="7" height="7"/>
<rect x="341.24" y="7.22" class="st0" width="7" height="7"/>
<rect x="348.5" y="7.22" class="st0" width="7" height="7"/>
<rect x="319.46" y="14.48" class="st0" width="7" height="7"/>
<rect x="326.72" y="14.48" class="st0" width="7" height="7"/>
<rect x="333.98" y="14.48" class="st0" width="7" height="7"/>
<rect x="341.24" y="14.48" class="st0" width="7" height="7"/>
<rect x="348.5" y="14.48" class="st0" width="7" height="7"/>
<rect x="326.72" y="21.74" class="st0" width="7" height="7"/>
<rect x="333.98" y="21.74" class="st0" width="7" height="7"/>
<rect x="341.24" y="21.74" class="st0" width="7" height="7"/>
<rect x="348.5" y="21.74" class="st0" width="7" height="7"/>
<rect x="319.46" y="29" class="st0" width="7" height="7"/>
<rect x="326.72" y="29" class="st0" width="7" height="7"/>
<rect x="333.98" y="29" class="st0" width="7" height="7"/>
<rect x="341.24" y="29" class="st0" width="7" height="7"/>
<rect x="348.5" y="29" class="st0" width="7" height="7"/>
<rect x="319.46" y="36.26" class="st0" width="7" height="7"/>
<rect x="326.72" y="36.26" class="st0" width="7" height="7"/>
<rect x="333.98" y="36.26" class="st0" width="7" height="7"/>
<rect x="341.24" y="36.26" class="st0" width="7" height="7"/>
<rect x="348.5" y="36.26" class="st0" width="7" height="7"/>
<rect x="319.46" y="43.52" class="st0" width="7" height="7"/>
<rect x="326.72" y="43.52" class="st0" width="7" height="7"/>
<rect x="333.98" y="43.52" class="st0" width="7" height="7"/>
<rect x="341.24" y="43.52" class="st0" width="7" height="7"/>
<rect x="348.5" y="43.52" class="st0" width="7" height="7"/>
<rect x="319.46" y="50.78" class="st0" width="7" height="7"/>
<rect x="326.72" y="50.78" class="st0" width="7" height="7"/>
<rect x="333.98" y="50.78" class="st0" width="7" height="7"/>
<rect x="341.24" y="50.78" class="st0" width="7" height="7"/>
<rect x="348.5" y="50.78" class="st0" width="7" height="7"/>
<rect x="326.72" y="58.04" class="st0" width="7" height="7"/>
<rect x="333.98" y="58.04" class="st0" width="7" height="7"/>
<rect x="341.24" y="58.04" class="st0" width="7" height="7"/>
<rect x="348.5" y="58.04" class="st0" width="7" height="7"/>
<rect x="326.72" y="65.3" class="st0" width="7" height="7"/>
<rect x="333.98" y="65.3" class="st0" width="7" height="7"/>
<rect x="341.24" y="65.3" class="st0" width="7" height="7"/>
<rect x="348.5" y="65.3" class="st0" width="7" height="7"/>
<rect x="319.46" y="72.52" class="st0" width="7" height="7"/>
<rect x="326.72" y="72.52" class="st0" width="7" height="7"/>
<rect x="333.98" y="72.52" class="st0" width="7" height="7"/>
<rect x="341.24" y="72.52" class="st0" width="7" height="7"/>
<rect x="348.5" y="72.52" class="st0" width="7" height="7"/>
<rect x="181.53" y="-0.04" class="st0" width="7" height="7"/>
<rect x="181.53" y="7.22" class="st0" width="7" height="7"/>
<rect x="181.53" y="14.48" class="st0" width="7" height="7"/>
<rect x="181.53" y="72.54" class="st0" width="7" height="7"/>
</svg>
