<?xml version="1.0" encoding="utf-8"?>
<!-- Generator: Adobe Illustrator 27.3.1, SVG Export Plug-In . SVG Version: 6.00 Build 0)  -->
<svg version="1.1" id="Слой_1" xmlns="http://www.w3.org/2000/svg" xmlns:xlink="http://www.w3.org/1999/xlink" x="0px" y="0px"
	 viewBox="0 0 348.24 79.53" style="enable-background:new 0 0 348.24 79.53;" xml:space="preserve">
<style type="text/css">
	.st0{fill:#1E0E01;}
</style>
<rect x="0.14" y="0.01" class="st0" width="7" height="7"/>
<rect x="0.14" y="7.27" class="st0" width="7" height="7"/>
<rect x="0.14" y="14.53" class="st0" width="7" height="7"/>
<rect x="0.14" y="21.79" class="st0" width="7" height="7"/>
<rect x="0.14" y="29.05" class="st0" width="7" height="7"/>
<rect x="0.14" y="36.31" class="st0" width="7" height="7"/>
<rect x="0.14" y="43.57" class="st0" width="7" height="7"/>
<rect x="0.14" y="50.83" class="st0" width="7" height="7"/>
<rect x="0.14" y="58.09" class="st0" width="7" height="7"/>
<rect x="0.14" y="65.35" class="st0" width="7" height="7"/>
<rect x="0.14" y="72.57" class="st0" width="7" height="7"/>
<rect x="7.41" y="0.01" class="st0" width="7" height="7"/>
<rect x="7.41" y="7.27" class="st0" width="7" height="7"/>
<rect x="7.41" y="14.53" class="st0" width="7" height="7"/>
<rect x="7.41" y="21.79" class="st0" width="7" height="7"/>
<rect x="7.41" y="29.05" class="st0" width="7" height="7"/>
<rect x="7.41" y="36.31" class="st0" width="7" height="7"/>
<rect x="7.41" y="43.57" class="st0" width="7" height="7"/>
<rect x="7.41" y="50.83" class="st0" width="7" height="7"/>
<rect x="7.41" y="58.09" class="st0" width="7" height="7"/>
<rect x="7.41" y="65.35" class="st0" width="7" height="7"/>
<rect x="7.41" y="72.57" class="st0" width="7" height="7"/>
<rect x="14.66" y="0.01" class="st0" width="7" height="7"/>
<rect x="14.66" y="7.27" class="st0" width="7" height="7"/>
<rect x="14.66" y="14.53" class="st0" width="7" height="7"/>
<rect x="14.66" y="21.79" class="st0" width="7" height="7"/>
<rect x="14.66" y="29.05" class="st0" width="7" height="7"/>
<rect x="14.66" y="36.31" class="st0" width="7" height="7"/>
<rect x="14.66" y="43.57" class="st0" width="7" height="7"/>
<rect x="14.66" y="50.83" class="st0" width="7" height="7"/>
<rect x="14.66" y="58.09" class="st0" width="7" height="7"/>
<rect x="14.66" y="65.35" class="st0" width="7" height="7"/>
<rect x="14.66" y="72.57" class="st0" width="7" height="7"/>
<rect x="21.92" y="0.01" class="st0" width="7" height="7"/>
<rect x="21.92" y="7.27" class="st0" width="7" height="7"/>
<rect x="21.92" y="14.53" class="st0" width="7" height="7"/>
<rect x="21.92" y="21.79" class="st0" width="7" height="7"/>
<rect x="21.92" y="29.05" class="st0" width="7" height="7"/>
<rect x="21.92" y="36.31" class="st0" width="7" height="7"/>
<rect x="21.92" y="43.57" class="st0" width="7" height="7"/>
<rect x="21.92" y="50.83" class="st0" width="7" height="7"/>
<rect x="21.92" y="58.09" class="st0" width="7" height="7"/>
<rect x="21.92" y="65.35" class="st0" width="7" height="7"/>
<rect x="21.92" y="72.57" class="st0" width="7" height="7"/>
<rect x="29.18" y="0.01" class="st0" width="7" height="7"/>
<rect x="29.18" y="7.27" class="st0" width="7" height="7"/>
<rect x="29.18" y="14.53" class="st0" width="7" height="7"/>
<rect x="29.18" y="21.79" class="st0" width="7" height="7"/>
<rect x="29.18" y="29.05" class="st0" width="7" height="7"/>
<rect x="29.18" y="36.31" class="st0" width="7" height="7"/>
<rect x="29.18" y="43.57" class="st0" width="7" height="7"/>
<rect x="29.18" y="50.83" class="st0" width="7" height="7"/>
<rect x="29.18" y="58.09" class="st0" width="7" height="7"/>
<rect x="29.18" y="65.35" class="st0" width="7" height="7"/>
<rect x="29.18" y="72.57" class="st0" width="7" height="7"/>
<rect x="36.44" y="0.01" class="st0" width="7" height="7"/>
<rect x="36.44" y="7.27" class="st0" width="7" height="7"/>
<rect x="36.44" y="14.53" class="st0" width="7" height="7"/>
<rect x="36.44" y="21.79" class="st0" width="7" height="7"/>
<rect x="36.44" y="29.05" class="st0" width="7" height="7"/>
<rect x="36.44" y="36.31" class="st0" width="7" height="7"/>
<rect x="36.44" y="43.57" class="st0" width="7" height="7"/>
<rect x="36.44" y="50.83" class="st0" width="7" height="7"/>
<rect x="36.44" y="58.09" class="st0" width="7" height="7"/>
<rect x="36.44" y="65.35" class="st0" width="7" height="7"/>
<rect x="36.44" y="72.57" class="st0" width="7" height="7"/>
<rect x="43.71" y="0.01" class="st0" width="7" height="7"/>
<rect x="43.71" y="7.27" class="st0" width="7" height="7"/>
<rect x="43.71" y="14.53" class="st0" width="7" height="7"/>
<rect x="43.71" y="21.79" class="st0" width="7" height="7"/>
<rect x="43.71" y="29.05" class="st0" width="7" height="7"/>
<rect x="43.71" y="36.31" class="st0" width="7" height="7"/>
<rect x="43.71" y="43.57" class="st0" width="7" height="7"/>
<rect x="43.71" y="50.83" class="st0" width="7" height="7"/>
<rect x="43.71" y="58.09" class="st0" width="7" height="7"/>
<rect x="43.71" y="65.35" class="st0" width="7" height="7"/>
<rect x="43.71" y="72.57" class="st0" width="7" height="7"/>
<rect x="50.97" y="0.01" class="st0" width="7" height="7"/>
<rect x="50.97" y="7.27" class="st0" width="7" height="7"/>
<rect x="50.97" y="14.53" class="st0" width="7" height="7"/>
<rect x="50.97" y="21.79" class="st0" width="7" height="7"/>
<rect x="50.97" y="29.05" class="st0" width="7" height="7"/>
<rect x="50.97" y="36.31" class="st0" width="7" height="7"/>
<rect x="50.97" y="43.57" class="st0" width="7" height="7"/>
<rect x="50.97" y="50.83" class="st0" width="7" height="7"/>
<rect x="50.97" y="58.09" class="st0" width="7" height="7"/>
<rect x="50.97" y="65.35" class="st0" width="7" height="7"/>
<rect x="50.97" y="72.57" class="st0" width="7" height="7"/>
<rect x="58.22" y="0.01" class="st0" width="7" height="7"/>
<rect x="58.22" y="7.27" class="st0" width="7" height="7"/>
<rect x="58.22" y="14.53" class="st0" width="7" height="7"/>
<rect x="58.22" y="21.79" class="st0" width="7" height="7"/>
<rect x="58.22" y="29.05" class="st0" width="7" height="7"/>
<rect x="58.22" y="36.31" class="st0" width="7" height="7"/>
<rect x="58.22" y="43.57" class="st0" width="7" height="7"/>
<rect x="58.22" y="50.83" class="st0" width="7" height="7"/>
<rect x="58.22" y="58.09" class="st0" width="7" height="7"/>
<rect x="58.22" y="65.35" class="st0" width="7" height="7"/>
<rect x="58.22" y="72.57" class="st0" width="7" height="7"/>
<rect x="65.49" y="0.01" class="st0" width="7" height="7"/>
<rect x="65.49" y="7.27" class="st0" width="7" height="7"/>
<rect x="65.49" y="14.53" class="st0" width="7" height="7"/>
<rect x="65.49" y="21.79" class="st0" width="7" height="7"/>
<rect x="65.49" y="29.05" class="st0" width="7" height="7"/>
<rect x="65.49" y="36.31" class="st0" width="7" height="7"/>
<rect x="65.49" y="43.57" class="st0" width="7" height="7"/>
<rect x="65.49" y="50.83" class="st0" width="7" height="7"/>
<rect x="65.49" y="58.09" class="st0" width="7" height="7"/>
<rect x="65.49" y="65.35" class="st0" width="7" height="7"/>
<rect x="65.49" y="72.57" class="st0" width="7" height="7"/>
<rect x="72.75" y="0.01" class="st0" width="7" height="7"/>
<rect x="72.75" y="7.27" class="st0" width="7" height="7"/>
<rect x="72.75" y="14.53" class="st0" width="7" height="7"/>
<rect x="72.75" y="21.79" class="st0" width="7" height="7"/>
<rect x="72.75" y="29.05" class="st0" width="7" height="7"/>
<rect x="72.75" y="36.31" class="st0" width="7" height="7"/>
<rect x="72.75" y="43.57" class="st0" width="7" height="7"/>
<rect x="72.75" y="50.83" class="st0" width="7" height="7"/>
<rect x="72.75" y="58.09" class="st0" width="7" height="7"/>
<rect x="72.75" y="65.35" class="st0" width="7" height="7"/>
<rect x="72.75" y="72.57" class="st0" width="7" height="7"/>
<rect x="80" y="0.01" class="st0" width="7" height="7"/>
<rect x="80" y="72.57" class="st0" width="7" height="7"/>
<rect x="87.26" y="0.01" class="st0" width="7" height="7"/>
<rect x="87.26" y="7.27" class="st0" width="7" height="7"/>
<rect x="87.26" y="72.57" class="st0" width="7" height="7"/>
<rect x="94.53" y="0.01" class="st0" width="7" height="7"/>
<rect x="94.53" y="7.27" class="st0" width="7" height="7"/>
<rect x="94.53" y="14.53" class="st0" width="7" height="7"/>
<rect x="94.53" y="36.31" class="st0" width="7" height="7"/>
<rect x="94.53" y="43.57" class="st0" width="7" height="7"/>
<rect x="94.53" y="50.83" class="st0" width="7" height="7"/>
<rect x="94.53" y="58.09" class="st0" width="7" height="7"/>
<rect x="94.53" y="65.35" class="st0" width="7" height="7"/>
<rect x="94.53" y="72.57" class="st0" width="7" height="7"/>
<rect x="101.79" y="0.01" class="st0" width="7" height="7"/>
<rect x="101.79" y="7.27" class="st0" width="7" height="7"/>
<rect x="101.79" y="14.53" class="st0" width="7" height="7"/>
<rect x="101.79" y="21.79" class="st0" width="7" height="7"/>
<rect x="101.79" y="43.57" class="st0" width="7" height="7"/>
<rect x="101.79" y="50.83" class="st0" width="7" height="7"/>
<rect x="101.79" y="58.09" class="st0" width="7" height="7"/>
<rect x="101.79" y="65.35" class="st0" width="7" height="7"/>
<rect x="101.79" y="72.57" class="st0" width="7" height="7"/>
<rect x="109.04" y="0.01" class="st0" width="7" height="7"/>
<rect x="109.04" y="7.27" class="st0" width="7" height="7"/>
<rect x="109.04" y="14.53" class="st0" width="7" height="7"/>
<rect x="109.04" y="36.31" class="st0" width="7" height="7"/>
<rect x="109.04" y="43.57" class="st0" width="7" height="7"/>
<rect x="109.04" y="50.83" class="st0" width="7" height="7"/>
<rect x="109.04" y="58.09" class="st0" width="7" height="7"/>
<rect x="109.04" y="65.35" class="st0" width="7" height="7"/>
<rect x="109.04" y="72.57" class="st0" width="7" height="7"/>
<rect x="116.31" y="0.01" class="st0" width="7" height="7"/>
<rect x="116.31" y="7.27" class="st0" width="7" height="7"/>
<rect x="116.31" y="72.57" class="st0" width="7" height="7"/>
<rect x="123.57" y="0.01" class="st0" width="7" height="7"/>
<rect x="123.57" y="72.57" class="st0" width="7" height="7"/>
<rect x="130.82" y="0.01" class="st0" width="7" height="7"/>
<rect x="130.82" y="7.27" class="st0" width="7" height="7"/>
<rect x="130.82" y="14.53" class="st0" width="7" height="7"/>
<rect x="130.82" y="21.79" class="st0" width="7" height="7"/>
<rect x="130.82" y="29.05" class="st0" width="7" height="7"/>
<rect x="130.82" y="36.31" class="st0" width="7" height="7"/>
<rect x="130.82" y="43.57" class="st0" width="7" height="7"/>
<rect x="130.82" y="50.83" class="st0" width="7" height="7"/>
<rect x="130.82" y="58.09" class="st0" width="7" height="7"/>
<rect x="130.82" y="65.35" class="st0" width="7" height="7"/>
<rect x="130.82" y="72.57" class="st0" width="7" height="7"/>
<rect x="138.09" y="0.01" class="st0" width="7" height="7"/>
<rect x="138.09" y="7.27" class="st0" width="7" height="7"/>
<rect x="138.09" y="14.53" class="st0" width="7" height="7"/>
<rect x="138.09" y="21.79" class="st0" width="7" height="7"/>
<rect x="138.09" y="65.35" class="st0" width="7" height="7"/>
<rect x="138.09" y="72.57" class="st0" width="7" height="7"/>
<rect x="145.35" y="0.01" class="st0" width="7" height="7"/>
<rect x="145.35" y="7.27" class="st0" width="7" height="7"/>
<rect x="145.35" y="14.53" class="st0" width="7" height="7"/>
<rect x="145.35" y="72.57" class="st0" width="7" height="7"/>
<rect x="152.6" y="0.01" class="st0" width="7" height="7"/>
<rect x="152.6" y="7.27" class="st0" width="7" height="7"/>
<rect x="152.6" y="14.53" class="st0" width="7" height="7"/>
<rect x="152.6" y="29.05" class="st0" width="7" height="7"/>
<rect x="152.6" y="36.31" class="st0" width="7" height="7"/>
<rect x="152.6" y="50.83" class="st0" width="7" height="7"/>
<rect x="152.6" y="58.09" class="st0" width="7" height="7"/>
<rect x="152.6" y="72.57" class="st0" width="7" height="7"/>
<rect x="159.87" y="0.01" class="st0" width="7" height="7"/>
<rect x="159.87" y="7.27" class="st0" width="7" height="7"/>
<rect x="159.87" y="14.53" class="st0" width="7" height="7"/>
<rect x="159.87" y="50.83" class="st0" width="7" height="7"/>
<rect x="159.87" y="72.57" class="st0" width="7" height="7"/>
<rect x="167.12" y="0.01" class="st0" width="7" height="7"/>
<rect x="167.12" y="7.27" class="st0" width="7" height="7"/>
<rect x="167.12" y="14.53" class="st0" width="7" height="7"/>
<rect x="167.12" y="21.79" class="st0" width="7" height="7"/>
<rect x="167.12" y="43.57" class="st0" width="7" height="7"/>
<rect x="167.12" y="50.83" class="st0" width="7" height="7"/>
<rect x="167.12" y="65.35" class="st0" width="7" height="7"/>
<rect x="167.12" y="72.57" class="st0" width="7" height="7"/>
<rect x="174.38" y="0.01" class="st0" width="7" height="7"/>
<rect x="174.38" y="7.27" class="st0" width="7" height="7"/>
<rect x="174.38" y="14.53" class="st0" width="7" height="7"/>
<rect x="174.38" y="21.79" class="st0" width="7" height="7"/>
<rect x="174.38" y="29.05" class="st0" width="7" height="7"/>
<rect x="174.38" y="36.31" class="st0" width="7" height="7"/>
<rect x="174.38" y="43.57" class="st0" width="7" height="7"/>
<rect x="174.38" y="50.83" class="st0" width="7" height="7"/>
<rect x="174.38" y="58.09" class="st0" width="7" height="7"/>
<rect x="174.38" y="65.35" class="st0" width="7" height="7"/>
<rect x="174.38" y="72.57" class="st0" width="7" height="7"/>
<rect x="181.65" y="0.01" class="st0" width="7" height="7"/>
<rect x="181.65" y="7.27" class="st0" width="7" height="7"/>
<rect x="181.65" y="14.53" class="st0" width="7" height="7"/>
<rect x="181.65" y="72.57" class="st0" width="7" height="7"/>
<rect x="188.9" y="0.01" class="st0" width="7" height="7"/>
<rect x="188.9" y="7.27" class="st0" width="7" height="7"/>
<rect x="188.9" y="14.53" class="st0" width="7" height="7"/>
<rect x="188.9" y="21.79" class="st0" width="7" height="7"/>
<rect x="188.9" y="72.57" class="st0" width="7" height="7"/>
<rect x="196.16" y="0.01" class="st0" width="7" height="7"/>
<rect x="196.16" y="7.27" class="st0" width="7" height="7"/>
<rect x="196.16" y="14.53" class="st0" width="7" height="7"/>
<rect x="196.16" y="29.05" class="st0" width="7" height="7"/>
<rect x="196.16" y="36.31" class="st0" width="7" height="7"/>
<rect x="196.16" y="43.57" class="st0" width="7" height="7"/>
<rect x="196.16" y="50.83" class="st0" width="7" height="7"/>
<rect x="196.16" y="58.09" class="st0" width="7" height="7"/>
<rect x="196.16" y="65.35" class="st0" width="7" height="7"/>
<rect x="196.16" y="72.57" class="st0" width="7" height="7"/>
<rect x="203.43" y="0.01" class="st0" width="7" height="7"/>
<rect x="203.43" y="7.27" class="st0" width="7" height="7"/>
<rect x="203.43" y="14.53" class="st0" width="7" height="7"/>
<rect x="203.43" y="72.57" class="st0" width="7" height="7"/>
<rect x="210.68" y="0.01" class="st0" width="7" height="7"/>
<rect x="210.68" y="7.27" class="st0" width="7" height="7"/>
<rect x="210.68" y="14.53" class="st0" width="7" height="7"/>
<rect x="210.68" y="21.79" class="st0" width="7" height="7"/>
<rect x="210.68" y="72.57" class="st0" width="7" height="7"/>
<rect x="217.95" y="0.01" class="st0" width="7" height="7"/>
<rect x="217.95" y="7.27" class="st0" width="7" height="7"/>
<rect x="217.95" y="14.53" class="st0" width="7" height="7"/>
<rect x="217.95" y="21.79" class="st0" width="7" height="7"/>
<rect x="217.95" y="29.05" class="st0" width="7" height="7"/>
<rect x="217.95" y="36.31" class="st0" width="7" height="7"/>
<rect x="217.95" y="43.57" class="st0" width="7" height="7"/>
<rect x="217.95" y="50.83" class="st0" width="7" height="7"/>
<rect x="217.95" y="58.09" class="st0" width="7" height="7"/>
<rect x="217.95" y="65.35" class="st0" width="7" height="7"/>
<rect x="217.95" y="72.57" class="st0" width="7" height="7"/>
<rect x="225.21" y="0.01" class="st0" width="7" height="7"/>
<rect x="225.21" y="7.27" class="st0" width="7" height="7"/>
<rect x="225.21" y="14.53" class="st0" width="7" height="7"/>
<rect x="225.21" y="65.35" class="st0" width="7" height="7"/>
<rect x="225.21" y="72.57" class="st0" width="7" height="7"/>
<rect x="232.46" y="0.01" class="st0" width="7" height="7"/>
<rect x="232.46" y="7.27" class="st0" width="7" height="7"/>
<rect x="232.46" y="14.53" class="st0" width="7" height="7"/>
<rect x="232.46" y="72.57" class="st0" width="7" height="7"/>
<rect x="239.73" y="0.01" class="st0" width="7" height="7"/>
<rect x="239.73" y="7.27" class="st0" width="7" height="7"/>
<rect x="239.73" y="14.53" class="st0" width="7" height="7"/>
<rect x="239.73" y="21.79" class="st0" width="7" height="7"/>
<rect x="239.73" y="29.05" class="st0" width="7" height="7"/>
<rect x="239.73" y="36.31" class="st0" width="7" height="7"/>
<rect x="239.73" y="43.57" class="st0" width="7" height="7"/>
<rect x="239.73" y="50.83" class="st0" width="7" height="7"/>
<rect x="239.73" y="58.09" class="st0" width="7" height="7"/>
<rect x="239.73" y="72.57" class="st0" width="7" height="7"/>
<rect x="246.99" y="0.01" class="st0" width="7" height="7"/>
<rect x="246.99" y="7.27" class="st0" width="7" height="7"/>
<rect x="246.99" y="14.53" class="st0" width="7" height="7"/>
<rect x="246.99" y="65.35" class="st0" width="7" height="7"/>
<rect x="246.99" y="72.57" class="st0" width="7" height="7"/>
<rect x="254.24" y="0.01" class="st0" width="7" height="7"/>
<rect x="254.24" y="7.27" class="st0" width="7" height="7"/>
<rect x="254.24" y="14.53" class="st0" width="7" height="7"/>
<rect x="254.24" y="72.57" class="st0" width="7" height="7"/>
<rect x="261.51" y="0.01" class="st0" width="7" height="7"/>
<rect x="261.51" y="7.27" class="st0" width="7" height="7"/>
<rect x="261.51" y="14.53" class="st0" width="7" height="7"/>
<rect x="261.51" y="21.79" class="st0" width="7" height="7"/>
<rect x="261.51" y="29.05" class="st0" width="7" height="7"/>
<rect x="261.51" y="36.31" class="st0" width="7" height="7"/>
<rect x="261.51" y="43.57" class="st0" width="7" height="7"/>
<rect x="261.51" y="50.83" class="st0" width="7" height="7"/>
<rect x="261.51" y="58.09" class="st0" width="7" height="7"/>
<rect x="261.51" y="65.35" class="st0" width="7" height="7"/>
<rect x="261.51" y="72.57" class="st0" width="7" height="7"/>
<rect x="268.77" y="0.01" class="st0" width="7" height="7"/>
<rect x="268.77" y="7.27" class="st0" width="7" height="7"/>
<rect x="268.77" y="14.53" class="st0" width="7" height="7"/>
<rect x="268.77" y="21.79" class="st0" width="7" height="7"/>
<rect x="268.77" y="29.05" class="st0" width="7" height="7"/>
<rect x="268.77" y="36.31" class="st0" width="7" height="7"/>
<rect x="268.77" y="43.57" class="st0" width="7" height="7"/>
<rect x="268.77" y="50.83" class="st0" width="7" height="7"/>
<rect x="268.77" y="58.09" class="st0" width="7" height="7"/>
<rect x="268.77" y="65.35" class="st0" width="7" height="7"/>
<rect x="268.77" y="72.57" class="st0" width="7" height="7"/>
<rect x="276.02" y="0.01" class="st0" width="7" height="7"/>
<rect x="276.02" y="7.27" class="st0" width="7" height="7"/>
<rect x="276.02" y="14.53" class="st0" width="7" height="7"/>
<rect x="276.02" y="21.79" class="st0" width="7" height="7"/>
<rect x="276.02" y="29.05" class="st0" width="7" height="7"/>
<rect x="276.02" y="36.31" class="st0" width="7" height="7"/>
<rect x="276.02" y="43.57" class="st0" width="7" height="7"/>
<rect x="276.02" y="50.83" class="st0" width="7" height="7"/>
<rect x="276.02" y="58.09" class="st0" width="7" height="7"/>
<rect x="276.02" y="65.35" class="st0" width="7" height="7"/>
<rect x="276.02" y="72.57" class="st0" width="7" height="7"/>
<rect x="283.29" y="0.01" class="st0" width="7" height="7"/>
<rect x="283.29" y="7.27" class="st0" width="7" height="7"/>
<rect x="283.29" y="14.53" class="st0" width="7" height="7"/>
<rect x="283.29" y="21.79" class="st0" width="7" height="7"/>
<rect x="283.29" y="29.05" class="st0" width="7" height="7"/>
<rect x="283.29" y="36.31" class="st0" width="7" height="7"/>
<rect x="283.29" y="43.57" class="st0" width="7" height="7"/>
<rect x="283.29" y="50.83" class="st0" width="7" height="7"/>
<rect x="283.29" y="58.09" class="st0" width="7" height="7"/>
<rect x="283.29" y="65.35" class="st0" width="7" height="7"/>
<rect x="283.29" y="72.57" class="st0" width="7" height="7"/>
<rect x="290.55" y="0.01" class="st0" width="7" height="7"/>
<rect x="290.55" y="7.27" class="st0" width="7" height="7"/>
<rect x="290.55" y="14.53" class="st0" width="7" height="7"/>
<rect x="290.55" y="21.79" class="st0" width="7" height="7"/>
<rect x="290.55" y="29.05" class="st0" width="7" height="7"/>
<rect x="290.55" y="36.31" class="st0" width="7" height="7"/>
<rect x="290.55" y="43.57" class="st0" width="7" height="7"/>
<rect x="290.55" y="50.83" class="st0" width="7" height="7"/>
<rect x="290.55" y="58.09" class="st0" width="7" height="7"/>
<rect x="290.55" y="65.35" class="st0" width="7" height="7"/>
<rect x="290.55" y="72.57" class="st0" width="7" height="7"/>
<rect x="297.8" y="0.01" class="st0" width="7" height="7"/>
<rect x="297.8" y="7.27" class="st0" width="7" height="7"/>
<rect x="297.8" y="14.53" class="st0" width="7" height="7"/>
<rect x="297.8" y="21.79" class="st0" width="7" height="7"/>
<rect x="297.8" y="29.05" class="st0" width="7" height="7"/>
<rect x="297.8" y="36.31" class="st0" width="7" height="7"/>
<rect x="297.8" y="43.57" class="st0" width="7" height="7"/>
<rect x="297.8" y="50.83" class="st0" width="7" height="7"/>
<rect x="297.8" y="58.09" class="st0" width="7" height="7"/>
<rect x="297.8" y="65.35" class="st0" width="7" height="7"/>
<rect x="297.8" y="72.57" class="st0" width="7" height="7"/>
<rect x="305.07" y="0.01" class="st0" width="7" height="7"/>
<rect x="305.07" y="7.27" class="st0" width="7" height="7"/>
<rect x="305.07" y="14.53" class="st0" width="7" height="7"/>
<rect x="305.07" y="21.79" class="st0" width="7" height="7"/>
<rect x="305.07" y="29.05" class="st0" width="7" height="7"/>
<rect x="305.07" y="36.31" class="st0" width="7" height="7"/>
<rect x="305.07" y="43.57" class="st0" width="7" height="7"/>
<rect x="305.07" y="50.83" class="st0" width="7" height="7"/>
<rect x="305.07" y="58.09" class="st0" width="7" height="7"/>
<rect x="305.07" y="65.35" class="st0" width="7" height="7"/>
<rect x="305.07" y="72.57" class="st0" width="7" height="7"/>
<rect x="312.33" y="0.01" class="st0" width="7" height="7"/>
<rect x="312.33" y="7.27" class="st0" width="7" height="7"/>
<rect x="312.33" y="14.53" class="st0" width="7" height="7"/>
<rect x="312.33" y="21.79" class="st0" width="7" height="7"/>
<rect x="312.33" y="29.05" class="st0" width="7" height="7"/>
<rect x="312.33" y="36.31" class="st0" width="7" height="7"/>
<rect x="312.33" y="43.57" class="st0" width="7" height="7"/>
<rect x="312.33" y="50.83" class="st0" width="7" height="7"/>
<rect x="312.33" y="58.09" class="st0" width="7" height="7"/>
<rect x="312.33" y="65.35" class="st0" width="7" height="7"/>
<rect x="312.33" y="72.57" class="st0" width="7" height="7"/>
<rect x="319.58" y="0.01" class="st0" width="7" height="7"/>
<rect x="319.58" y="7.27" class="st0" width="7" height="7"/>
<rect x="319.58" y="14.53" class="st0" width="7" height="7"/>
<rect x="319.58" y="21.79" class="st0" width="7" height="7"/>
<rect x="319.58" y="29.05" class="st0" width="7" height="7"/>
<rect x="319.58" y="36.31" class="st0" width="7" height="7"/>
<rect x="319.58" y="43.57" class="st0" width="7" height="7"/>
<rect x="319.58" y="50.83" class="st0" width="7" height="7"/>
<rect x="319.58" y="58.09" class="st0" width="7" height="7"/>
<rect x="319.58" y="65.35" class="st0" width="7" height="7"/>
<rect x="319.58" y="72.57" class="st0" width="7" height="7"/>
<rect x="326.85" y="0.01" class="st0" width="7" height="7"/>
<rect x="326.85" y="7.27" class="st0" width="7" height="7"/>
<rect x="326.85" y="14.53" class="st0" width="7" height="7"/>
<rect x="326.85" y="21.79" class="st0" width="7" height="7"/>
<rect x="326.85" y="29.05" class="st0" width="7" height="7"/>
<rect x="326.85" y="36.31" class="st0" width="7" height="7"/>
<rect x="326.85" y="43.57" class="st0" width="7" height="7"/>
<rect x="326.85" y="50.83" class="st0" width="7" height="7"/>
<rect x="326.85" y="58.09" class="st0" width="7" height="7"/>
<rect x="326.85" y="65.35" class="st0" width="7" height="7"/>
<rect x="326.85" y="72.57" class="st0" width="7" height="7"/>
<rect x="334.11" y="0.01" class="st0" width="7" height="7"/>
<rect x="334.11" y="7.27" class="st0" width="7" height="7"/>
<rect x="334.11" y="14.53" class="st0" width="7" height="7"/>
<rect x="334.11" y="21.79" class="st0" width="7" height="7"/>
<rect x="334.11" y="29.05" class="st0" width="7" height="7"/>
<rect x="334.11" y="36.31" class="st0" width="7" height="7"/>
<rect x="334.11" y="43.57" class="st0" width="7" height="7"/>
<rect x="334.11" y="50.83" class="st0" width="7" height="7"/>
<rect x="334.11" y="58.09" class="st0" width="7" height="7"/>
<rect x="334.11" y="65.35" class="st0" width="7" height="7"/>
<rect x="334.11" y="72.57" class="st0" width="7" height="7"/>
<rect x="341.36" y="0.01" class="st0" width="7" height="7"/>
<rect x="341.36" y="7.27" class="st0" width="7" height="7"/>
<rect x="341.36" y="14.53" class="st0" width="7" height="7"/>
<rect x="341.36" y="21.79" class="st0" width="7" height="7"/>
<rect x="341.36" y="29.05" class="st0" width="7" height="7"/>
<rect x="341.36" y="36.31" class="st0" width="7" height="7"/>
<rect x="341.36" y="43.57" class="st0" width="7" height="7"/>
<rect x="341.36" y="50.83" class="st0" width="7" height="7"/>
<rect x="341.36" y="58.09" class="st0" width="7" height="7"/>
<rect x="341.36" y="65.35" class="st0" width="7" height="7"/>
<rect x="341.36" y="72.57" class="st0" width="7" height="7"/>
</svg>
