<?xml version="1.0" encoding="utf-8"?>
<!-- Generator: Adobe Illustrator 27.3.1, SVG Export Plug-In . SVG Version: 6.00 Build 0)  -->
<svg version="1.1" id="Слой_1" xmlns="http://www.w3.org/2000/svg" xmlns:xlink="http://www.w3.org/1999/xlink" x="0px" y="0px"
	 viewBox="0 0 1001.6 900" style="enable-background:new 0 0 1001.6 900;" xml:space="preserve">
<style type="text/css">
	.st0{fill:#140901;}
	.st1{fill:#1E0E01;}
</style>
<g id="Слой_2_00000075842856718680154190000012400335028278832293_">
</g>
<rect x="439.2" y="10.8" class="st0" width="7" height="7"/>
<rect x="446.5" y="10.8" class="st0" width="7" height="7"/>
<rect x="468.3" y="10.8" class="st0" width="7" height="7"/>
<rect x="475.5" y="10.8" class="st0" width="7" height="7"/>
<rect x="482.8" y="10.8" class="st0" width="7" height="7"/>
<rect x="504.6" y="10.8" class="st0" width="7" height="7"/>
<rect x="511.8" y="10.8" class="st0" width="7" height="7"/>
<rect x="519.1" y="10.8" class="st0" width="7" height="7"/>
<rect x="453.7" y="18.1" class="st0" width="7" height="7"/>
<rect x="468.3" y="18.1" class="st0" width="7" height="7"/>
<rect x="490" y="18.1" class="st0" width="7" height="7"/>
<rect x="504.6" y="18.1" class="st0" width="7" height="7"/>
<rect x="526.3" y="18.1" class="st0" width="7" height="7"/>
<rect x="540.9" y="18.1" class="st0" width="7" height="7"/>
<rect x="468.3" y="25.3" class="st0" width="7" height="7"/>
<rect x="490" y="25.3" class="st0" width="7" height="7"/>
<rect x="504.6" y="25.3" class="st0" width="7" height="7"/>
<rect x="526.3" y="25.3" class="st0" width="7" height="7"/>
<rect x="540.9" y="25.3" class="st0" width="7" height="7"/>
<rect x="446.5" y="32.6" class="st0" width="7" height="7"/>
<rect x="453.7" y="32.6" class="st0" width="7" height="7"/>
<rect x="468.3" y="32.6" class="st0" width="7" height="7"/>
<rect x="475.5" y="32.6" class="st0" width="7" height="7"/>
<rect x="482.8" y="32.6" class="st0" width="7" height="7"/>
<rect x="504.6" y="32.6" class="st0" width="7" height="7"/>
<rect x="511.8" y="32.6" class="st0" width="7" height="7"/>
<rect x="519.1" y="32.6" class="st0" width="7" height="7"/>
<rect x="453.7" y="39.8" class="st0" width="7" height="7"/>
<rect x="468.3" y="39.8" class="st0" width="7" height="7"/>
<rect x="504.6" y="39.8" class="st0" width="7" height="7"/>
<rect x="432" y="18.1" class="st0" width="7" height="7"/>
<rect x="432" y="25.3" class="st0" width="7" height="7"/>
<rect x="432" y="32.6" class="st0" width="7" height="7"/>
<rect x="432" y="39.8" class="st0" width="7" height="7"/>
<rect x="432" y="47.1" class="st0" width="7" height="7"/>
<rect x="453.7" y="47.1" class="st0" width="7" height="7"/>
<rect x="468.3" y="47.1" class="st0" width="7" height="7"/>
<rect x="504.6" y="47.1" class="st0" width="7" height="7"/>
<rect x="519.1" y="39.8" class="st0" width="7" height="7"/>
<rect x="526.3" y="47.1" class="st0" width="7" height="7"/>
<rect x="540.9" y="47.1" class="st0" width="7" height="7"/>
<rect x="439.2" y="54.4" class="st0" width="7" height="7"/>
<rect x="446.5" y="54.4" class="st0" width="7" height="7"/>
<rect x="468.3" y="54.4" class="st0" width="7" height="7"/>
<rect x="504.6" y="54.4" class="st0" width="7" height="7"/>
<rect x="526.3" y="54.4" class="st0" width="7" height="7"/>
<rect x="548.1" y="10.8" class="st0" width="7" height="7"/>
<rect x="555.4" y="10.8" class="st0" width="7" height="7"/>
<rect x="548.1" y="32.6" class="st0" width="7" height="7"/>
<rect x="555.4" y="32.6" class="st0" width="7" height="7"/>
<rect x="548.1" y="54.4" class="st0" width="7" height="7"/>
<rect x="555.4" y="54.4" class="st0" width="7" height="7"/>
<rect x="562.6" y="18.1" class="st0" width="7" height="7"/>
<rect x="562.6" y="39.8" class="st0" width="7" height="7"/>
<rect x="562.6" y="47.1" class="st0" width="7" height="7"/>
<path class="st1" d="M617.1,816h7v7h-7V816z M617.1,823.3h7v7h-7V823.3z M624.4,816h7v7h-7V816z M624.4,823.3h7v7h-7V823.3z
	 M631.6,816h7v7h-7V816z M631.6,823.3h7v7h-7V823.3z M638.9,816h7v7h-7V816z M638.9,823.3h7v7h-7V823.3z M646.1,816h7v7h-7V816z
	 M646.1,823.3h7v7h-7V823.3z M653.4,816h7v7h-7V816z M653.4,823.3h7v7h-7V823.3z M660.7,816h7v7h-7V816z M660.7,823.3h7v7h-7V823.3z
	 M667.9,816h7v7h-7V816z M667.9,823.3h7v7h-7V823.3z M675.2,816h7v7h-7V816z M682.5,816h7v7h-7V816z M689.7,816h7v7h-7V816z
	 M675.2,823.3h7v7h-7V823.3z M682.5,823.3h7v7h-7V823.3z M697,816h7v7h-7V816z M704.3,816h7v7h-7V816z M711.5,816h7v7h-7V816z
	 M711.5,823.3h7v7h-7V823.3z M718.7,816h7v7h-7V816z M718.7,823.3h7v7h-7V823.3z M726,816h7v7h-7V816z M726,823.3h7v7h-7V823.3z
	 M733.3,816h7v7h-7V816z M733.3,823.3h7v7h-7V823.3z M740.5,816h7v7h-7V816z M740.5,823.3h7v7h-7V823.3z M747.8,816h7v7h-7V816z
	 M747.8,823.3h7v7h-7V823.3z M755,816h7v7h-7V816z M755,823.3h7v7h-7V823.3z M762.3,816h7v7h-7V816z M769.6,816h7v7h-7V816z
	 M776.8,816h7v7h-7V816z M762.3,823.3h7v7h-7V823.3z M784.1,816h7v7h-7V816z M784.1,823.3h7v7h-7V823.3z M791.3,816h7v7h-7V816z
	 M791.3,823.3h7v7h-7V823.3z M798.6,816h7v7h-7V816z M798.6,823.3h7v7h-7V823.3z M805.9,816h7v7h-7V816z M805.9,823.3h7v7h-7V823.3z
	 M813.1,816h7v7h-7V816z M813.1,823.3h7v7h-7V823.3z M820.4,816h7v7h-7V816z M820.4,823.3h7v7h-7V823.3z M827.6,816h7v7h-7V816z
	 M827.6,823.3h7v7h-7V823.3z M834.9,816h7v7h-7V816z M834.9,823.3h7v7h-7V823.3z M842.2,816h7v7h-7V816z M842.2,823.3h7v7h-7V823.3z
	 M849.4,816h7v7h-7V816z M849.4,823.3h7v7h-7V823.3z M856.7,816h7v7h-7V816z M856.7,823.3h7v7h-7V823.3z M863.9,816h7v7h-7V816z
	 M863.9,823.3h7v7h-7V823.3z M617.1,830.5h7v7h-7V830.5z M624.4,830.5h7v7h-7V830.5z M631.6,830.5h7v7h-7V830.5z M638.9,830.5h7v7
	h-7V830.5z M646.1,830.5h7v7h-7V830.5z M617.1,837.8h7v7h-7V837.8z M617.1,845h7v7h-7V845z M617.1,852.3h7v7h-7V852.3z M617.1,859.6
	h7v7h-7V859.6z M617.1,866.8h7v7h-7V866.8z M617.1,874.1h7v7h-7V874.1z M617.1,881.3h7v7h-7V881.3z M617.1,888.6h7v7h-7V888.6z
	 M624.4,837.8h7v7h-7V837.8z M624.4,845h7v7h-7V845z M624.4,852.3h7v7h-7V852.3z M624.4,859.6h7v7h-7V859.6z M624.4,866.8h7v7h-7
	V866.8z M624.4,874.1h7v7h-7V874.1z M624.4,881.3h7v7h-7V881.3z M624.4,888.6h7v7h-7V888.6z M631.6,837.8h7v7h-7V837.8z M631.6,845
	h7v7h-7V845z M631.6,852.3h7v7h-7V852.3z M631.6,859.6h7v7h-7V859.6z M631.6,866.8h7v7h-7V866.8z M631.6,874.1h7v7h-7V874.1z
	 M631.6,881.3h7v7h-7V881.3z M631.6,888.6h7v7h-7V888.6z M638.9,837.8h7v7h-7V837.8z M638.9,845h7v7h-7V845z M638.9,852.3h7v7h-7
	V852.3z M638.9,859.6h7v7h-7V859.6z M638.9,866.8h7v7h-7V866.8z M638.9,874.1h7v7h-7V874.1z M638.9,881.3h7v7h-7V881.3z
	 M638.9,888.6h7v7h-7V888.6z M646.1,837.8h7v7h-7V837.8z M646.1,845h7v7h-7V845z M646.1,852.3h7v7h-7V852.3z M646.1,859.6h7v7h-7
	V859.6z M646.1,866.8h7v7h-7V866.8z M646.1,874.1h7v7h-7V874.1z M646.1,881.3h7v7h-7V881.3z M646.1,888.6h7v7h-7V888.6z
	 M653.4,830.5h7v7h-7V830.5z M660.7,830.5h7v7h-7V830.5z M667.9,830.5h7v7h-7V830.5z M675.2,830.5h7v7h-7V830.5z M697,830.5h7v7h-7
	V830.5z M718.7,830.5h7v7h-7V830.5z M653.4,837.8h7v7h-7V837.8z M653.4,845h7v7h-7V845z M653.4,852.3h7v7h-7V852.3z M653.4,859.6h7
	v7h-7V859.6z M653.4,866.8h7v7h-7V866.8z M653.4,874.1h7v7h-7V874.1z M653.4,881.3h7v7h-7V881.3z M653.4,888.6h7v7h-7V888.6z
	 M660.7,837.8h7v7h-7V837.8z M660.7,845h7v7h-7V845z M660.7,852.3h7v7h-7V852.3z M660.7,859.6h7v7h-7V859.6z M660.7,866.8h7v7h-7
	V866.8z M660.7,874.1h7v7h-7V874.1z M660.7,881.3h7v7h-7V881.3z M660.7,888.6h7v7h-7V888.6z M667.9,837.8h7v7h-7V837.8z M667.9,845
	h7v7h-7V845z M667.9,852.3h7v7h-7V852.3z M667.9,859.6h7v7h-7V859.6z M667.9,866.8h7v7h-7V866.8z M667.9,874.1h7v7h-7V874.1z
	 M667.9,881.3h7v7h-7V881.3z M667.9,888.6h7v7h-7V888.6z M675.2,837.8h7v7h-7V837.8z M675.2,845h7v7h-7V845z M675.2,852.3h7v7h-7
	V852.3z M675.2,859.6h7v7h-7V859.6z M675.2,866.8h7v7h-7V866.8z M675.2,874.1h7v7h-7V874.1z M675.2,881.3h7v7h-7V881.3z
	 M675.2,888.6h7v7h-7V888.6z M696.9,845h7v7h-7V845z M704.2,845h7v7h-7V845z M682.4,852.3h7v7h-7V852.3z M711.5,852.3h7v7h-7V852.3z
	 M682.4,859.6h7v7h-7V859.6z M682.4,866.8h7v7h-7V866.8z M682.4,881.3h7v7h-7V881.3z M682.4,888.6h7v7h-7V888.6z M689.7,859.6h7v7
	h-7V859.6z M689.7,866.8h7v7h-7V866.8z M689.7,888.6h7v7h-7V888.6z M697,837.8h7v7h-7V837.8z M697,859.6h7v7h-7V859.6z M697,866.8h7
	v7h-7V866.8z M697,874.1h7v7h-7V874.1z M697,888.6h7v7h-7V888.6z M704.2,837.8h7v7h-7V837.8z M704.2,888.6h7v7h-7V888.6z
	 M711.5,837.8h7v7h-7V837.8z M711.5,845h7v7h-7V845z M711.5,881.3h7v7h-7V881.3z M711.5,888.6h7v7h-7V888.6z M718.7,837.8h7v7h-7
	V837.8z M718.7,845h7v7h-7V845z M718.7,852.3h7v7h-7V852.3z M718.7,859.6h7v7h-7V859.6z M718.7,866.8h7v7h-7V866.8z M718.7,874.1h7
	v7h-7V874.1z M718.7,881.3h7v7h-7V881.3z M718.7,888.6h7v7h-7V888.6z M726,830.5h7v7h-7V830.5z M733.3,830.5h7v7h-7V830.5z
	 M740.5,830.5h7v7h-7V830.5z M747.8,830.5h7v7h-7V830.5z M755,830.5h7v7h-7V830.5z M762.3,830.5h7v7h-7V830.5z M784.1,830.5h7v7h-7
	V830.5z M791.3,830.5h7v7h-7V830.5z M726,837.8h7v7h-7V837.8z M726,881.3h7v7h-7V881.3z M726,888.6h7v7h-7V888.6z M733.3,888.6h7v7
	h-7V888.6z M740.5,845h7v7h-7V845z M740.5,852.3h7v7h-7V852.3z M740.5,866.8h7v7h-7V866.8z M740.5,874.1h7v7h-7V874.1z M740.5,888.6
	h7v7h-7V888.6z M747.8,866.8h7v7h-7V866.8z M747.8,888.6h7v7h-7V888.6z M755,837.8h7v7h-7V837.8z M755,859.6h7v7h-7V859.6z
	 M755,866.8h7v7h-7V866.8z M755,881.3h7v7h-7V881.3z M755,888.6h7v7h-7V888.6z M762.3,837.8h7v7h-7V837.8z M762.3,845h7v7h-7V845z
	 M762.3,852.3h7v7h-7V852.3z M762.3,859.6h7v7h-7V859.6z M762.3,866.8h7v7h-7V866.8z M762.3,874.1h7v7h-7V874.1z M762.3,881.3h7v7
	h-7V881.3z M762.3,888.6h7v7h-7V888.6z M769.6,888.6h7v7h-7V888.6z M776.8,888.6h7v7h-7V888.6z M784.1,837.8h7v7h-7V837.8z
	 M784.1,845h7v7h-7V845z M784.1,852.3h7v7h-7V852.3z M784.1,859.6h7v7h-7V859.6z M784.1,866.8h7v7h-7V866.8z M784.1,874.1h7v7h-7
	V874.1z M784.1,881.3h7v7h-7V881.3z M784.1,888.6h7v7h-7V888.6z M791.3,837.8h7v7h-7V837.8z M791.3,881.3h7v7h-7V881.3z
	 M791.3,888.6h7v7h-7V888.6z M798.6,830.5h7v7h-7V830.5z M805.9,830.5h7v7h-7V830.5z M813.1,830.5h7v7h-7V830.5z M820.4,830.5h7v7
	h-7V830.5z M827.6,830.5h7v7h-7V830.5z M834.9,830.5h7v7h-7V830.5z M842.2,830.5h7v7h-7V830.5z M849.4,830.5h7v7h-7V830.5z
	 M856.7,830.5h7v7h-7V830.5z M863.9,830.5h7v7h-7V830.5z M798.6,888.6h7v7h-7V888.6z M805.9,845h7v7h-7V845z M805.9,852.3h7v7h-7
	V852.3z M805.9,866.8h7v7h-7V866.8z M805.9,874.1h7v7h-7V874.1z M805.9,888.6h7v7h-7V888.6z M813.1,866.8h7v7h-7V866.8z
	 M813.1,888.6h7v7h-7V888.6z M820.4,837.8h7v7h-7V837.8z M820.4,859.6h7v7h-7V859.6z M820.4,866.8h7v7h-7V866.8z M820.4,881.3h7v7
	h-7V881.3z M820.4,888.6h7v7h-7V888.6z M827.6,837.8h7v7h-7V837.8z M827.6,845h7v7h-7V845z M827.6,852.3h7v7h-7V852.3z M827.6,859.6
	h7v7h-7V859.6z M827.6,866.8h7v7h-7V866.8z M827.6,874.1h7v7h-7V874.1z M827.6,881.3h7v7h-7V881.3z M827.6,888.6h7v7h-7V888.6z
	 M834.9,837.8h7v7h-7V837.8z M834.9,881.3h7v7h-7V881.3z M834.9,888.6h7v7h-7V888.6z M842.2,888.6h7v7h-7V888.6z M849.4,845h7v7h-7
	V845z M849.4,852.3h7v7h-7V852.3z M849.4,859.6h7v7h-7V859.6z M849.4,866.8h7v7h-7V866.8z M849.4,874.1h7v7h-7V874.1z M849.4,888.6
	h7v7h-7V888.6z M856.7,852.3h7v7h-7V852.3z M856.7,859.6h7v7h-7V859.6z M856.7,866.8h7v7h-7V866.8z M856.7,888.6h7v7h-7V888.6z
	 M863.9,837.8h7v7h-7V837.8z M863.9,852.3h7v7h-7V852.3z M863.9,859.6h7v7h-7V859.6z M863.9,866.8h7v7h-7V866.8z M863.9,881.3h7v7
	h-7V881.3z M863.9,888.6h7v7h-7V888.6z M871.2,816h7v7h-7V816z M871.2,823.3h7v7h-7V823.3z M878.5,816h7v7h-7V816z M878.5,823.3h7v7
	h-7V823.3z M885.7,816h7v7h-7V816z M885.7,823.3h7v7h-7V823.3z M893,816h7v7h-7V816z M900.2,816h7v7h-7V816z M900.2,823.3h7v7h-7
	V823.3z M907.5,816h7v7h-7V816z M907.5,823.3h7v7h-7V823.3z M914.8,816h7v7h-7V816z M914.8,823.3h7v7h-7V823.3z M922,816h7v7h-7V816
	z M922,823.3h7v7h-7V823.3z M929.3,816h7v7h-7V816z M929.3,823.3h7v7h-7V823.3z M936.5,816h7v7h-7V816z M936.5,823.3h7v7h-7V823.3z
	 M871.2,830.5h7v7h-7V830.5z M878.5,830.5h7v7h-7V830.5z M900.2,830.5h7v7h-7V830.5z M907.5,830.5h7v7h-7V830.5z M914.8,830.5h7v7
	h-7V830.5z M922,830.5h7v7h-7V830.5z M929.3,830.5h7v7h-7V830.5z M936.5,830.5h7v7h-7V830.5z M871.2,837.8h7v7h-7V837.8z M871.2,845
	h7v7h-7V845z M871.2,852.3h7v7h-7V852.3z M871.2,859.6h7v7h-7V859.6z M871.2,866.8h7v7h-7V866.8z M871.2,874.1h7v7h-7V874.1z
	 M871.2,881.3h7v7h-7V881.3z M871.2,888.6h7v7h-7V888.6z M878.5,845h7v7h-7V845z M878.5,852.3h7v7h-7V852.3z M878.5,859.6h7v7h-7
	V859.6z M878.5,866.8h7v7h-7V866.8z M878.5,874.1h7v7h-7V874.1z M878.5,881.3h7v7h-7V881.3z M878.5,888.6h7v7h-7V888.6z
	 M885.7,881.3h7v7h-7V881.3z M885.7,888.6h7v7h-7V888.6z M893,888.6h7v7h-7V888.6z M900.2,845h7v7h-7V845z M900.2,852.3h7v7h-7
	V852.3z M900.2,859.6h7v7h-7V859.6z M900.2,866.8h7v7h-7V866.8z M900.2,888.6h7v7h-7V888.6z M907.5,837.8h7v7h-7V837.8z M907.5,845
	h7v7h-7V845z M907.5,852.3h7v7h-7V852.3z M907.5,859.6h7v7h-7V859.6z M907.5,866.8h7v7h-7V866.8z M907.5,874.1h7v7h-7V874.1z
	 M907.5,881.3h7v7h-7V881.3z M907.5,888.6h7v7h-7V888.6z M914.8,837.8h7v7h-7V837.8z M914.8,845h7v7h-7V845z M914.8,852.3h7v7h-7
	V852.3z M914.8,859.6h7v7h-7V859.6z M914.8,866.8h7v7h-7V866.8z M914.8,874.1h7v7h-7V874.1z M914.8,881.3h7v7h-7V881.3z
	 M914.8,888.6h7v7h-7V888.6z M922,837.8h7v7h-7V837.8z M922,845h7v7h-7V845z M922,852.3h7v7h-7V852.3z M922,859.6h7v7h-7V859.6z
	 M922,866.8h7v7h-7V866.8z M922,874.1h7v7h-7V874.1z M922,881.3h7v7h-7V881.3z M922,888.6h7v7h-7V888.6z M929.3,837.8h7v7h-7V837.8z
	 M929.3,845h7v7h-7V845z M929.3,852.3h7v7h-7V852.3z M929.3,859.6h7v7h-7V859.6z M929.3,866.8h7v7h-7V866.8z M929.3,874.1h7v7h-7
	V874.1z M929.3,881.3h7v7h-7V881.3z M929.3,888.6h7v7h-7V888.6z M936.5,837.8h7v7h-7V837.8z M936.5,845h7v7h-7V845z M936.5,852.3h7
	v7h-7V852.3z M936.5,859.6h7v7h-7V859.6z M936.5,866.8h7v7h-7V866.8z M936.5,874.1h7v7h-7V874.1z M936.5,881.3h7v7h-7V881.3z
	 M936.5,888.6h7v7h-7V888.6z M943.8,816h7v7h-7V816z M943.8,823.3h7v7h-7V823.3z M951.1,816h7v7h-7V816z M951.1,823.3h7v7h-7V823.3z
	 M958.3,816h7v7h-7V816z M958.3,823.3h7v7h-7V823.3z M965.6,816h7v7h-7V816z M965.6,823.3h7v7h-7V823.3z M972.8,816h7v7h-7V816z
	 M972.8,823.3h7v7h-7V823.3z M980.1,816h7v7h-7V816z M980.1,823.3h7v7h-7V823.3z M943.8,830.5h7v7h-7V830.5z M951.1,830.5h7v7h-7
	V830.5z M958.3,830.5h7v7h-7V830.5z M965.6,830.5h7v7h-7V830.5z M972.8,830.5h7v7h-7V830.5z M980.1,830.5h7v7h-7V830.5z
	 M943.8,837.8h7v7h-7V837.8z M943.8,845h7v7h-7V845z M943.8,852.3h7v7h-7V852.3z M943.8,859.6h7v7h-7V859.6z M943.8,866.8h7v7h-7
	V866.8z M943.8,874.1h7v7h-7V874.1z M943.8,881.3h7v7h-7V881.3z M943.8,888.6h7v7h-7V888.6z M951.1,837.8h7v7h-7V837.8z M951.1,845
	h7v7h-7V845z M951.1,852.3h7v7h-7V852.3z M951.1,859.6h7v7h-7V859.6z M951.1,866.8h7v7h-7V866.8z M951.1,874.1h7v7h-7V874.1z
	 M951.1,881.3h7v7h-7V881.3z M951.1,888.6h7v7h-7V888.6z M958.3,837.8h7v7h-7V837.8z M958.3,845h7v7h-7V845z M958.3,852.3h7v7h-7
	V852.3z M958.3,859.6h7v7h-7V859.6z M958.3,866.8h7v7h-7V866.8z M958.3,874.1h7v7h-7V874.1z M958.3,881.3h7v7h-7V881.3z
	 M958.3,888.6h7v7h-7V888.6z M965.6,837.8h7v7h-7V837.8z M965.6,845h7v7h-7V845z M965.6,852.3h7v7h-7V852.3z M965.6,859.6h7v7h-7
	V859.6z M965.6,866.8h7v7h-7V866.8z M965.6,874.1h7v7h-7V874.1z M965.6,881.3h7v7h-7V881.3z M965.6,888.6h7v7h-7V888.6z
	 M972.8,837.8h7v7h-7V837.8z M972.8,845h7v7h-7V845z M972.8,852.3h7v7h-7V852.3z M972.8,859.6h7v7h-7V859.6z M972.8,866.8h7v7h-7
	V866.8z M972.8,874.1h7v7h-7V874.1z M972.8,881.3h7v7h-7V881.3z M972.8,888.6h7v7h-7V888.6z M980.1,837.8h7v7h-7V837.8z M980.1,845
	h7v7h-7V845z M980.1,852.3h7v7h-7V852.3z M980.1,859.6h7v7h-7V859.6z M980.1,866.8h7v7h-7V866.8z M980.1,874.1h7v7h-7V874.1z
	 M980.1,881.3h7v7h-7V881.3z M980.1,888.6h7v7h-7V888.6z M14.6,816h7v7h-7V816z M14.6,823.3h7v7h-7V823.3z M21.9,816h7v7h-7V816z
	 M21.9,823.3h7v7h-7V823.3z M29.1,816h7v7h-7C29.1,823,29.1,816,29.1,816z M29.1,823.3h7v7h-7C29.1,830.3,29.1,823.3,29.1,823.3z
	 M36.4,816h7v7h-7V816z M36.4,823.3h7v7h-7V823.3z M43.7,816h7v7h-7V816z M43.7,823.3h7v7h-7V823.3z M50.9,816h7v7h-7V816z
	 M50.9,823.3h7v7h-7V823.3z M58.2,816h7v7h-7C58.2,823,58.2,816,58.2,816z M58.2,823.3h7v7h-7C58.2,830.3,58.2,823.3,58.2,823.3z
	 M65.4,816h7v7h-7V816z M65.4,823.3h7v7h-7V823.3z M72.7,816h7v7h-7V816z M72.7,823.3h7v7h-7V823.3z M80,816h7v7h-7V816z M80,823.3
	h7v7h-7V823.3z M87.2,816h7v7h-7V816z M87.2,823.3h7v7h-7V823.3z M94.5,816h7v7h-7V816z M101.8,816h7v7h-7V816z M109,816h7v7h-7V816
	z M94.5,823.3h7v7h-7V823.3z M116.3,816h7v7h-7V816z M123.6,816h7v7h-7C123.6,823,123.6,816,123.6,816z M130.8,816h7v7h-7V816z
	 M130.8,823.3h7v7h-7V823.3z M138,816h7v7h-7V816z M138,823.3h7v7h-7V823.3z M145.3,816h7v7h-7V816z M145.3,823.3h7v7h-7V823.3z
	 M152.6,816h7v7h-7V816z M152.6,823.3h7v7h-7V823.3z M159.8,816h7v7h-7V816z M159.8,823.3h7v7h-7V823.3z M167.1,816h7v7h-7V816z
	 M167.1,823.3h7v7h-7V823.3z M174.3,816h7v7h-7V816z M174.3,823.3h7v7h-7V823.3z M181.6,816h7v7h-7V816z M181.6,823.3h7v7h-7V823.3z
	 M188.9,816h7v7h-7V816z M188.9,823.3h7v7h-7V823.3z M196.1,816h7v7h-7V816z M196.1,823.3h7v7h-7V823.3z M203.4,816h7v7h-7V816z
	 M203.4,823.3h7v7h-7V823.3z M210.6,816h7v7h-7V816z M210.6,823.3h7v7h-7V823.3z M217.9,816h7v7h-7V816z M217.9,823.3h7v7h-7V823.3z
	 M225.2,816h7v7h-7V816z M232.5,816h7v7h-7V816z M239.7,816h7v7h-7V816z M225.2,823.3h7v7h-7V823.3z M246.9,816h7v7h-7V816z
	 M246.9,823.3h7v7h-7V823.3z M254.2,816h7v7h-7L254.2,816L254.2,816z M254.2,823.3h7v7h-7L254.2,823.3L254.2,823.3z M261.5,816h7v7
	h-7V816z M261.5,823.3h7v7h-7V823.3z M268.7,816h7v7h-7V816z M268.7,823.3h7v7h-7V823.3z M276,816h7v7h-7V816z M276,823.3h7v7h-7
	V823.3z M283.2,816h7v7h-7V816z M283.2,823.3h7v7h-7V823.3z M290.5,816h7v7h-7V816z M290.5,823.3h7v7h-7V823.3z M297.8,816h7v7h-7
	V816z M297.8,823.3h7v7h-7V823.3z M305,816h7v7h-7V816z M305,823.3h7v7h-7V823.3z M312.3,816h7v7h-7V816z M312.3,823.3h7v7h-7V823.3
	z M319.5,816h7v7h-7V816z M319.5,823.3h7v7h-7V823.3z M326.8,816h7v7h-7V816z M326.8,823.3h7v7h-7V823.3z M334.1,816h7v7h-7V816z
	 M334.1,823.3h7v7h-7V823.3z M341.3,816h7v7h-7V816z M341.3,823.3h7v7h-7V823.3z M348.6,816h7v7h-7V816z M348.6,823.3h7v7h-7V823.3z
	 M355.8,816h7v7h-7V816z M355.8,823.3h7v7h-7V823.3z M14.6,830.5h7v7h-7V830.5z M21.9,830.5h7v7h-7V830.5z M29.1,830.5h7v7h-7
	C29.1,837.5,29.1,830.5,29.1,830.5z M36.4,830.5h7v7h-7V830.5z M43.7,830.5h7v7h-7V830.5z M50.9,830.5h7v7h-7V830.5z M58.2,830.5h7
	v7h-7C58.2,837.5,58.2,830.5,58.2,830.5z M65.4,830.5h7v7h-7V830.5z M14.6,837.8h7v7h-7V837.8z M14.6,845h7v7h-7V845z M14.6,852.3h7
	v7h-7V852.3z M14.6,859.6h7v7h-7V859.6z M14.6,866.8h7v7h-7V866.8z M14.6,874.1h7v7h-7V874.1z M14.6,881.3h7v7h-7V881.3z
	 M14.6,888.6h7v7h-7V888.6z M21.9,837.8h7v7h-7V837.8z M21.9,845h7v7h-7V845z M21.9,852.3h7v7h-7V852.3z M21.9,859.6h7v7h-7V859.6z
	 M21.9,866.8h7v7h-7V866.8z M21.9,874.1h7v7h-7V874.1z M21.9,881.3h7v7h-7V881.3z M21.9,888.6h7v7h-7V888.6z M29.1,837.8h7v7h-7
	C29.1,844.8,29.1,837.8,29.1,837.8z M29.1,845h7v7h-7C29.1,852,29.1,845,29.1,845z M29.1,852.3h7v7h-7
	C29.1,859.3,29.1,852.3,29.1,852.3z M29.1,859.6h7v7h-7C29.1,866.6,29.1,859.6,29.1,859.6z M29.1,866.8h7v7h-7
	C29.1,873.8,29.1,866.8,29.1,866.8z M29.1,874.1h7v7h-7C29.1,881.1,29.1,874.1,29.1,874.1z M29.1,881.3h7v7h-7
	C29.1,888.3,29.1,881.3,29.1,881.3z M29.1,888.6h7v7h-7C29.1,895.6,29.1,888.6,29.1,888.6z M36.4,837.8h7v7h-7V837.8z M36.4,845h7v7
	h-7V845z M36.4,852.3h7v7h-7V852.3z M36.4,859.6h7v7h-7V859.6z M36.4,866.8h7v7h-7V866.8z M36.4,874.1h7v7h-7V874.1z M36.4,881.3h7
	v7h-7V881.3z M36.4,888.6h7v7h-7V888.6z M43.7,837.8h7v7h-7V837.8z M43.7,845h7v7h-7V845z M43.7,852.3h7v7h-7V852.3z M43.7,859.6h7
	v7h-7V859.6z M43.7,866.8h7v7h-7V866.8z M43.7,874.1h7v7h-7V874.1z M43.7,881.3h7v7h-7V881.3z M43.7,888.6h7v7h-7V888.6z
	 M50.9,837.8h7v7h-7V837.8z M50.9,845h7v7h-7V845z M50.9,852.3h7v7h-7V852.3z M50.9,859.6h7v7h-7V859.6z M50.9,866.8h7v7h-7V866.8z
	 M50.9,874.1h7v7h-7V874.1z M50.9,881.3h7v7h-7V881.3z M50.9,888.6h7v7h-7V888.6z M58.2,837.8h7v7h-7
	C58.2,844.8,58.2,837.8,58.2,837.8z M58.2,845h7v7h-7C58.2,852,58.2,845,58.2,845z M58.2,852.3h7v7h-7
	C58.2,859.3,58.2,852.3,58.2,852.3z M58.2,859.6h7v7h-7C58.2,866.6,58.2,859.6,58.2,859.6z M58.2,866.8h7v7h-7
	C58.2,873.8,58.2,866.8,58.2,866.8z M58.2,874.1h7v7h-7C58.2,881.1,58.2,874.1,58.2,874.1z M58.2,881.3h7v7h-7
	C58.2,888.3,58.2,881.3,58.2,881.3z M58.2,888.6h7v7h-7C58.2,895.6,58.2,888.6,58.2,888.6z M65.4,837.8h7v7h-7V837.8z M65.4,845h7v7
	h-7V845z M65.4,852.3h7v7h-7V852.3z M65.4,859.6h7v7h-7V859.6z M65.4,866.8h7v7h-7V866.8z M65.4,874.1h7v7h-7V874.1z M65.4,881.3h7
	v7h-7V881.3z M65.4,888.6h7v7h-7V888.6z M72.7,830.5h7v7h-7V830.5z M80,830.5h7v7h-7V830.5z M87.2,830.5h7v7h-7V830.5z M94.5,830.5
	h7v7h-7V830.5z M116.3,830.5h7v7h-7V830.5z M138,830.5h7v7h-7V830.5z M72.7,837.8h7v7h-7V837.8z M72.7,845h7v7h-7V845z M72.7,852.3
	h7v7h-7V852.3z M72.7,859.6h7v7h-7V859.6z M72.7,866.8h7v7h-7V866.8z M72.7,874.1h7v7h-7V874.1z M72.7,881.3h7v7h-7V881.3z
	 M72.7,888.6h7v7h-7V888.6z M80,837.8h7v7h-7V837.8z M80,845h7v7h-7V845z M80,852.3h7v7h-7V852.3z M80,859.6h7v7h-7V859.6z
	 M80,866.8h7v7h-7V866.8z M80,874.1h7v7h-7V874.1z M80,881.3h7v7h-7V881.3z M80,888.6h7v7h-7V888.6z M87.2,837.8h7v7h-7V837.8z
	 M87.2,845h7v7h-7V845z M87.2,852.3h7v7h-7V852.3z M87.2,859.6h7v7h-7V859.6z M87.2,866.8h7v7h-7V866.8z M87.2,874.1h7v7h-7V874.1z
	 M87.2,881.3h7v7h-7V881.3z M87.2,888.6h7v7h-7V888.6z M94.5,837.8h7v7h-7V837.8z M94.5,845h7v7h-7V845z M116.3,845h7v7h-7V845z
	 M94.5,852.3h7v7h-7V852.3z M130.9,852.3h7v7h-7V852.3z M94.5,859.6h7v7h-7V859.6z M94.5,866.8h7v7h-7V866.8z M94.5,874.1h7v7h-7
	V874.1z M94.5,881.3h7v7h-7V881.3z M94.5,888.6h7v7h-7V888.6z M101.7,888.6h7v7h-7V888.6z M109,888.6h7v7h-7V888.6z M116.3,837.8h7
	v7h-7V837.8z M116.3,859.6h7v7h-7V859.6z M116.3,866.8h7v7h-7V866.8z M116.3,874.1h7v7h-7V874.1z M116.3,888.6h7v7h-7V888.6z
	 M123.5,888.6h7v7h-7V888.6z M130.8,881.3h7v7h-7V881.3z M130.8,888.6h7v7h-7V888.6z M138,837.8h7v7h-7V837.8z M138,845h7v7h-7V845z
	 M138,852.3h7v7h-7V852.3z M138,859.6h7v7h-7V859.6z M138,866.8h7v7h-7V866.8z M138,874.1h7v7h-7V874.1z M138,881.3h7v7h-7V881.3z
	 M138,888.6h7v7h-7V888.6z M145.3,830.5h7v7h-7V830.5z M152.6,830.5h7v7h-7V830.5z M159.8,830.5h7v7h-7V830.5z M167.1,830.5h7v7h-7
	V830.5z M174.3,830.5h7v7h-7V830.5z M181.6,830.5h7v7h-7V830.5z M188.9,830.5h7v7h-7V830.5z M196.1,830.5h7v7h-7V830.5z
	 M203.4,830.5h7v7h-7V830.5z M210.6,830.5h7v7h-7V830.5z M145.3,837.8h7v7h-7V837.8z M145.3,852.3h7v7h-7V852.3z M145.3,859.6h7v7
	h-7V859.6z M145.3,881.3h7v7h-7V881.3z M145.3,888.6h7v7h-7V888.6z M152.6,852.3h7v7h-7V852.3z M152.6,888.6h7v7h-7V888.6z
	 M159.8,845h7v7h-7V845z M159.8,852.3h7v7h-7V852.3z M159.8,866.8h7v7h-7V866.8z M159.8,874.1h7v7h-7V874.1z M159.8,888.6h7v7h-7
	V888.6z M167.1,881.3h7v7h-7V881.3z M167.1,888.6h7v7h-7V888.6z M174.3,837.8h7v7h-7V837.8z M174.3,888.6h7v7h-7V888.6z
	 M181.6,837.8h7v7h-7V837.8z M181.6,845h7v7h-7V845z M181.6,852.3h7v7h-7V852.3z M181.6,859.6h7v7h-7V859.6z M181.6,866.8h7v7h-7
	V866.8z M181.6,874.1h7v7h-7V874.1z M181.6,881.3h7v7h-7V881.3z M181.6,888.6h7v7h-7V888.6z M188.9,837.8h7v7h-7V837.8z
	 M188.9,881.3h7v7h-7V881.3z M188.9,888.6h7v7h-7V888.6z M196.1,888.6h7v7h-7V888.6z M203.4,845h7v7h-7V845z M203.4,852.3h7v7h-7
	V852.3z M203.4,859.6h7v7h-7V859.6z M203.4,866.8h7v7h-7V866.8z M203.4,874.1h7v7h-7V874.1z M203.4,888.6h7v7h-7V888.6z
	 M210.6,852.3h7v7h-7V852.3z M210.6,859.6h7v7h-7V859.6z M210.6,866.8h7v7h-7V866.8z M210.6,888.6h7v7h-7V888.6z M217.9,830.5h7v7
	h-7V830.5z M225.2,830.5h7v7h-7V830.5z M246.9,830.5h7v7h-7V830.5z M254.2,830.5h7v7h-7L254.2,830.5L254.2,830.5z M261.5,830.5h7v7
	h-7V830.5z M268.7,830.5h7v7h-7V830.5z M276,830.5h7v7h-7V830.5z M283.2,830.5h7v7h-7V830.5z M217.9,837.8h7v7h-7V837.8z
	 M217.9,852.3h7v7h-7V852.3z M217.9,859.6h7v7h-7V859.6z M217.9,866.8h7v7h-7V866.8z M217.9,881.3h7v7h-7V881.3z M217.9,888.6h7v7
	h-7V888.6z M225.2,837.8h7v7h-7V837.8z M225.2,845h7v7h-7V845z M225.2,852.3h7v7h-7V852.3z M225.2,859.6h7v7h-7V859.6z M225.2,866.8
	h7v7h-7V866.8z M225.2,874.1h7v7h-7V874.1z M225.2,881.3h7v7h-7V881.3z M225.2,888.6h7v7h-7V888.6z M232.4,888.6h7v7h-7V888.6z
	 M239.7,888.6h7v7h-7V888.6z M246.9,837.8h7v7h-7V837.8z M246.9,845h7v7h-7V845z M246.9,866.8h7v7h-7V866.8z M246.9,874.1h7v7h-7
	V874.1z M246.9,881.3h7v7h-7V881.3z M246.9,888.6h7v7h-7V888.6z M254.2,837.8h7v7h-7L254.2,837.8L254.2,837.8z M254.2,881.3h7v7h-7
	L254.2,881.3L254.2,881.3z M254.2,888.6h7v7h-7L254.2,888.6L254.2,888.6z M261.5,852.3h7v7h-7V852.3z M261.5,859.6h7v7h-7V859.6z
	 M261.5,888.6h7v7h-7V888.6z M268.7,845h7v7h-7V845z M268.7,852.3h7v7h-7V852.3z M268.7,859.6h7v7h-7V859.6z M268.7,866.8h7v7h-7
	V866.8z M268.7,874.1h7v7h-7V874.1z M268.7,888.6h7v7h-7V888.6z M276,837.8h7v7h-7V837.8z M276,845h7v7h-7V845z M276,852.3h7v7h-7
	V852.3z M276,859.6h7v7h-7V859.6z M276,866.8h7v7h-7V866.8z M276,874.1h7v7h-7V874.1z M276,881.3h7v7h-7V881.3z M276,888.6h7v7h-7
	V888.6z M283.2,837.8h7v7h-7V837.8z M283.2,845h7v7h-7V845z M283.2,852.3h7v7h-7V852.3z M283.2,859.6h7v7h-7V859.6z M283.2,866.8h7
	v7h-7V866.8z M283.2,874.1h7v7h-7V874.1z M283.2,881.3h7v7h-7V881.3z M283.2,888.6h7v7h-7V888.6z M290.5,830.5h7v7h-7V830.5z
	 M297.8,830.5h7v7h-7V830.5z M305,830.5h7v7h-7V830.5z M312.3,830.5h7v7h-7V830.5z M319.5,830.5h7v7h-7V830.5z M326.8,830.5h7v7h-7
	V830.5z M334.1,830.5h7v7h-7V830.5z M341.3,830.5h7v7h-7V830.5z M348.6,830.5h7v7h-7V830.5z M355.8,830.5h7v7h-7V830.5z
	 M290.5,837.8h7v7h-7V837.8z M290.5,845h7v7h-7V845z M290.5,852.3h7v7h-7V852.3z M290.5,859.6h7v7h-7V859.6z M290.5,866.8h7v7h-7
	V866.8z M290.5,874.1h7v7h-7V874.1z M290.5,881.3h7v7h-7V881.3z M290.5,888.6h7v7h-7V888.6z M297.8,837.8h7v7h-7V837.8z M297.8,845
	h7v7h-7V845z M297.8,852.3h7v7h-7V852.3z M297.8,859.6h7v7h-7V859.6z M297.8,866.8h7v7h-7V866.8z M297.8,874.1h7v7h-7V874.1z
	 M297.8,881.3h7v7h-7V881.3z M297.8,888.6h7v7h-7V888.6z M305,837.8h7v7h-7V837.8z M305,845h7v7h-7V845z M305,852.3h7v7h-7V852.3z
	 M305,859.6h7v7h-7V859.6z M305,866.8h7v7h-7V866.8z M305,874.1h7v7h-7V874.1z M305,881.3h7v7h-7V881.3z M305,888.6h7v7h-7V888.6z
	 M312.3,837.8h7v7h-7V837.8z M312.3,845h7v7h-7V845z M312.3,852.3h7v7h-7V852.3z M312.3,859.6h7v7h-7V859.6z M312.3,866.8h7v7h-7
	V866.8z M312.3,874.1h7v7h-7V874.1z M312.3,881.3h7v7h-7V881.3z M312.3,888.6h7v7h-7V888.6z M319.5,837.8h7v7h-7V837.8z M319.5,845
	h7v7h-7V845z M319.5,852.3h7v7h-7V852.3z M319.5,859.6h7v7h-7V859.6z M319.5,866.8h7v7h-7V866.8z M319.5,874.1h7v7h-7V874.1z
	 M319.5,881.3h7v7h-7V881.3z M319.5,888.6h7v7h-7V888.6z M326.8,837.8h7v7h-7V837.8z M326.8,845h7v7h-7V845z M326.8,852.3h7v7h-7
	V852.3z M326.8,859.6h7v7h-7V859.6z M326.8,866.8h7v7h-7V866.8z M326.8,874.1h7v7h-7V874.1z M326.8,881.3h7v7h-7V881.3z
	 M326.8,888.6h7v7h-7V888.6z M334.1,837.8h7v7h-7V837.8z M334.1,845h7v7h-7V845z M334.1,852.3h7v7h-7V852.3z M334.1,859.6h7v7h-7
	V859.6z M334.1,866.8h7v7h-7V866.8z M334.1,874.1h7v7h-7V874.1z M334.1,881.3h7v7h-7V881.3z M334.1,888.6h7v7h-7V888.6z
	 M341.3,837.8h7v7h-7V837.8z M341.3,845h7v7h-7V845z M341.3,852.3h7v7h-7V852.3z M341.3,859.6h7v7h-7V859.6z M341.3,866.8h7v7h-7
	V866.8z M341.3,874.1h7v7h-7V874.1z M341.3,881.3h7v7h-7V881.3z M341.3,888.6h7v7h-7V888.6z M348.6,837.8h7v7h-7V837.8z M348.6,845
	h7v7h-7V845z M348.6,852.3h7v7h-7V852.3z M348.6,859.6h7v7h-7V859.6z M348.6,866.8h7v7h-7V866.8z M348.6,874.1h7v7h-7V874.1z
	 M348.6,881.3h7v7h-7V881.3z M348.6,888.6h7v7h-7V888.6z M355.8,837.8h7v7h-7V837.8z M355.8,845h7v7h-7V845z M355.8,852.3h7v7h-7
	V852.3z M355.8,859.6h7v7h-7V859.6z M355.8,866.8h7v7h-7V866.8z M355.8,874.1h7v7h-7V874.1z M355.8,881.3h7v7h-7V881.3z
	 M355.8,888.6h7v7h-7V888.6z M14.5,7h7v7h-7V7z M14.5,14.3h7v7h-7V14.3z M14.5,21.5h7v7h-7V21.5z M14.5,28.8h7v7h-7V28.8z
	 M14.5,36.1h7v7h-7V36.1z M14.5,43.3h7v7h-7V43.3z M14.5,50.6h7v7h-7V50.6z M21.8,7h7v7h-7V7z M21.8,14.3h7v7h-7V14.3z M21.8,21.5h7
	v7h-7V21.5z M21.8,28.8h7v7h-7V28.8z M21.8,36.1h7v7h-7V36.1z M21.8,43.3h7v7h-7V43.3z M21.8,50.6h7v7h-7V50.6z M29,7h7v7h-7V7z
	 M29,14.3h7v7h-7V14.3z M29,21.5h7v7h-7V21.5z M29,28.8h7v7h-7V28.8z M29,36.1h7v7h-7V36.1z M29,43.3h7v7h-7V43.3z M29,50.6h7v7h-7
	V50.6z M36.3,7h7v7h-7V7z M36.3,14.3h7v7h-7V14.3z M36.3,21.5h7v7h-7V21.5z M36.3,28.8h7v7h-7V28.8z M36.3,36.1h7v7h-7V36.1z
	 M36.3,43.3h7v7h-7V43.3z M36.3,50.6h7v7h-7V50.6z M43.5,7h7v7h-7V7z M43.5,14.3h7v7h-7V14.3z M43.5,21.5h7v7h-7V21.5z M43.5,28.8h7
	v7h-7V28.8z M43.5,36.1h7v7h-7V36.1z M43.5,43.3h7v7h-7V43.3z M43.5,50.6h7v7h-7V50.6z M50.8,14.3h7v7h-7V14.3z M50.8,21.5h7v7h-7
	V21.5z M50.8,28.8h7v7h-7V28.8z M50.8,36.1h7v7h-7V36.1z M50.8,43.3h7v7h-7V43.3z M58.1,7h7v7h-7V7z M58.1,21.5h7v7h-7V21.5z
	 M58.1,28.8h7v7h-7V28.8z M58.1,36.1h7v7h-7V36.1z M58.1,50.6h7v7h-7V50.6z M65.3,7h7v7h-7V7z M65.3,14.3h7v7h-7V14.3z M65.3,28.8h7
	v7h-7V28.8z M65.3,43.3h7v7h-7V43.3z M65.3,50.6h7v7h-7V50.6z M72.6,7h7v7h-7V7z M72.6,14.3h7v7h-7V14.3z M72.6,21.5h7v7h-7V21.5z
	 M72.6,36.1h7v7h-7V36.1z M72.6,43.3h7v7h-7V43.3z M72.6,50.6h7v7h-7V50.6z M79.8,7h7v7h-7V7z M79.8,14.3h7v7h-7V14.3z M79.8,21.5h7
	v7h-7V21.5z M79.8,28.8h7v7h-7V28.8z M79.8,36.1h7v7h-7V36.1z M79.8,43.3h7v7h-7V43.3z M79.8,50.6h7v7h-7V50.6z M87.1,14.3h7v7h-7
	V14.3z M87.1,21.5h7v7h-7V21.5z M87.1,28.8h7v7h-7V28.8z M87.1,36.1h7v7h-7V36.1z M87.1,43.3h7v7h-7V43.3z M94.4,7h7v7h-7V7z
	 M94.4,21.5h7v7h-7V21.5z M94.4,28.8h7v7h-7V28.8z M94.4,36.1h7v7h-7V36.1z M94.4,50.6h7v7h-7V50.6z M101.6,7h7v7h-7V7z M101.6,14.3
	h7v7h-7V14.3z M101.6,28.8h7v7h-7V28.8z M101.6,43.3h7v7h-7V43.3z M101.6,50.6h7v7h-7V50.6z M108.9,7h7v7h-7V7z M108.9,14.3h7v7h-7
	V14.3z M108.9,21.5h7v7h-7V21.5z M108.9,36.1h7v7h-7V36.1z M108.9,43.3h7v7h-7V43.3z M108.9,50.6h7v7h-7V50.6z M116.1,7h7v7h-7V7z
	 M116.1,14.3h7v7h-7V14.3z M116.1,21.5h7v7h-7V21.5z M116.1,28.8h7v7h-7V28.8z M116.1,36.1h7v7h-7V36.1z M116.1,43.3h7v7h-7V43.3z
	 M116.1,50.6h7v7h-7V50.6z M123.4,14.3h7v7h-7V14.3z M123.4,21.5h7v7h-7V21.5z M123.4,28.8h7v7h-7V28.8z M123.4,36.1h7v7h-7V36.1z
	 M123.4,43.3h7v7h-7V43.3z M130.7,7h7v7h-7V7z M130.7,21.5h7v7h-7V21.5z M130.7,28.8h7v7h-7V28.8z M130.7,36.1h7v7h-7V36.1z
	 M130.7,50.6h7v7h-7V50.6z M137.9,7h7v7h-7V7z M137.9,14.3h7v7h-7V14.3z M137.9,28.8h7v7h-7V28.8z M137.9,43.3h7v7h-7V43.3z
	 M137.9,50.6h7v7h-7V50.6z M145.2,7h7v7h-7V7z M145.2,14.3h7v7h-7V14.3z M145.2,21.5h7v7h-7V21.5z M145.2,36.1h7v7h-7V36.1z
	 M145.2,43.3h7v7h-7V43.3z M145.2,50.6h7v7h-7V50.6z M152.4,7h7v7h-7V7z M152.4,14.3h7v7h-7V14.3z M152.4,21.5h7v7h-7V21.5z
	 M152.4,28.8h7v7h-7V28.8z M152.4,36.1h7v7h-7V36.1z M152.4,43.3h7v7h-7V43.3z M152.4,50.6h7v7h-7V50.6z M159.7,14.3h7v7h-7V14.3z
	 M159.7,21.5h7v7h-7V21.5z M159.7,28.8h7v7h-7V28.8z M159.7,36.1h7v7h-7V36.1z M159.7,43.3h7v7h-7V43.3z M167,21.5h7v7h-7V21.5z
	 M167,28.8h7v7h-7V28.8z M167,36.1h7v7h-7V36.1z M174.2,28.8h7v7h-7V28.8z M203.3,21.5h7v7h-7V21.5z M203.3,36.1h7v7h-7V36.1z
	 M210.5,28.8h7v7h-7V28.8z M842.1,7.3h7v7h-7V7.3z M849.4,7.3h7v7h-7V7.3z M856.6,7.3h7v7h-7V7.3z M863.9,7.3h7v7h-7V7.3z
	 M871.1,7.3h7v7h-7V7.3z M878.4,7.3h7v7h-7V7.3z M885.7,7.3h7v7h-7V7.3z M892.9,7.3h7v7h-7V7.3z M900.2,7.3h7v7h-7V7.3z M907.4,7.3
	h7v7h-7V7.3z M914.7,7.3h7v7h-7V7.3z M922,7.3h7v7h-7V7.3z M929.2,7.3h7v7h-7V7.3z M936.5,7.3h7v7h-7V7.3z M943.7,7.3h7v7h-7V7.3z
	 M951,7.3h7v7h-7V7.3z M958.3,7.3h7v7h-7V7.3z M965.5,7.3h7v7h-7V7.3z M972.8,7.3h7v7h-7V7.3z M834.8,14.6h7v7h-7V14.6z M849.4,14.6
	h7v7h-7V14.6z M856.6,14.6h7v7h-7V14.6z M863.9,14.6h7v7h-7V14.6z M871.1,14.6h7v7h-7V14.6z M878.4,14.6h7v7h-7V14.6z M885.7,14.6h7
	v7h-7V14.6z M892.9,14.6h7v7h-7V14.6z M900.2,14.6h7v7h-7V14.6z M907.4,14.6h7v7h-7V14.6z M914.7,14.6h7v7h-7V14.6z M922,14.6h7v7
	h-7V14.6z M929.2,14.6h7v7h-7V14.6z M936.5,14.6h7v7h-7V14.6z M943.7,14.6h7v7h-7V14.6z M951,14.6h7v7h-7V14.6z M958.3,14.6h7v7h-7
	V14.6z M965.5,14.6h7v7h-7V14.6z M972.8,14.6h7v7h-7V14.6z M980,14.6h7v7h-7V14.6z M827.6,21.8h7v7h-7V21.8z M834.8,21.8h7v7h-7
	V21.8z M842.1,21.8h7v7h-7V21.8z M856.6,21.8h7v7h-7V21.8z M863.9,21.8h7v7h-7V21.8z M871.1,21.8h7v7h-7V21.8z M878.4,21.8h7v7h-7
	V21.8z M885.7,21.8h7v7h-7V21.8z M892.9,21.8h7v7h-7V21.8z M900.2,21.8h7v7h-7V21.8z M907.4,21.8h7v7h-7V21.8z M914.7,21.8h7v7h-7
	V21.8z M922,21.8h7v7h-7V21.8z M929.2,21.8h7v7h-7V21.8z M936.5,21.8h7v7h-7V21.8z M943.7,21.8h7v7h-7V21.8z M951,21.8h7v7h-7V21.8z
	 M958.3,21.8h7v7h-7V21.8z M965.5,21.8h7v7h-7V21.8z M972.8,21.8h7v7h-7V21.8z M980,21.8h7v7h-7V21.8z M827.6,29.1h7v7h-7V29.1z
	 M834.8,29.1h7v7h-7V29.1z M842.1,29.1h7v7h-7V29.1z M856.6,29.1h7v7h-7V29.1z M863.9,29.1h7v7h-7V29.1z M871.1,29.1h7v7h-7V29.1z
	 M878.4,29.1h7v7h-7V29.1z M885.7,29.1h7v7h-7V29.1z M892.9,29.1h7v7h-7V29.1z M900.2,29.1h7v7h-7V29.1z M907.4,29.1h7v7h-7V29.1z
	 M914.7,29.1h7v7h-7V29.1z M922,29.1h7v7h-7V29.1z M929.2,29.1h7v7h-7V29.1z M936.5,29.1h7v7h-7V29.1z M943.7,29.1h7v7h-7V29.1z
	 M951,29.1h7v7h-7V29.1z M958.3,29.1h7v7h-7V29.1z M965.5,29.1h7v7h-7V29.1z M972.8,29.1h7v7h-7V29.1z M980,29.1h7v7h-7V29.1z
	 M827.6,36.3h7v7h-7V36.3z M834.8,36.3h7v7h-7V36.3z M842.1,36.3h7v7h-7V36.3z M856.6,36.3h7v7h-7V36.3z M863.9,36.3h7v7h-7V36.3z
	 M871.1,36.3h7v7h-7V36.3z M878.4,36.3h7v7h-7V36.3z M885.7,36.3h7v7h-7V36.3z M892.9,36.3h7v7h-7V36.3z M900.2,36.3h7v7h-7V36.3z
	 M907.4,36.3h7v7h-7V36.3z M914.7,36.3h7v7h-7V36.3z M922,36.3h7v7h-7V36.3z M929.2,36.3h7v7h-7V36.3z M936.5,36.3h7v7h-7V36.3z
	 M943.7,36.3h7v7h-7V36.3z M951,36.3h7v7h-7V36.3z M958.3,36.3h7v7h-7V36.3z M965.5,36.3h7v7h-7V36.3z M972.8,36.3h7v7h-7V36.3z
	 M980,36.3h7v7h-7V36.3z M834.8,43.6h7v7h-7V43.6z M849.4,43.6h7v7h-7V43.6z M856.6,43.6h7v7h-7V43.6z M863.9,43.6h7v7h-7V43.6z
	 M871.1,43.6h7v7h-7V43.6z M878.4,43.6h7v7h-7V43.6z M885.7,43.6h7v7h-7V43.6z M892.9,43.6h7v7h-7V43.6z M900.2,43.6h7v7h-7V43.6z
	 M907.4,43.6h7v7h-7V43.6z M914.7,43.6h7v7h-7V43.6z M922,43.6h7v7h-7V43.6z M929.2,43.6h7v7h-7V43.6z M936.5,43.6h7v7h-7V43.6z
	 M943.7,43.6h7v7h-7V43.6z M951,43.6h7v7h-7V43.6z M958.3,43.6h7v7h-7V43.6z M965.5,43.6h7v7h-7V43.6z M972.8,43.6h7v7h-7V43.6z
	 M980,43.6h7v7h-7V43.6z M842.1,50.9h7v7h-7V50.9z M849.4,50.9h7v7h-7V50.9z M856.6,50.9h7v7h-7V50.9z M863.9,50.9h7v7h-7V50.9z
	 M871.1,50.9h7v7h-7V50.9z M878.4,50.9h7v7h-7V50.9z M885.7,50.9h7v7h-7V50.9z M892.9,50.9h7v7h-7V50.9z M900.2,50.9h7v7h-7V50.9z
	 M907.4,50.9h7v7h-7V50.9z M914.7,50.9h7v7h-7V50.9z M922,50.9h7v7h-7V50.9z M929.2,50.9h7v7h-7V50.9z M936.5,50.9h7v7h-7V50.9z
	 M943.7,50.9h7v7h-7V50.9z M951,50.9h7v7h-7V50.9z M958.3,50.9h7v7h-7V50.9z M965.5,50.9h7v7h-7V50.9z M972.8,50.9h7v7h-7V50.9z
	 M446.4,816h7v7h-7V816z M446.4,823.3h7v7h-7V823.3z M446.4,830.5h7v7h-7V830.5z M446.4,837.8h7v7h-7V837.8z M446.4,845h7v7h-7V845z
	 M446.4,852.3h7v7h-7V852.3z M446.4,859.6h7v7h-7V859.6z M446.4,866.8h7v7h-7V866.8z M446.4,874.1h7v7h-7V874.1z M446.4,881.3h7v7
	h-7V881.3z M446.4,888.6h7v7h-7V888.6z M453.8,816h7v7h-7V816z M453.8,823.3h7v7h-7V823.3z M453.8,881.3h7v7h-7V881.3z M453.8,888.6
	h7v7h-7V888.6z M461,816h7v7h-7V816z M461,830.5h7v7h-7V830.5z M461,837.8h7v7h-7V837.8z M461,845h7v7h-7V845z M461,852.3h7v7h-7
	V852.3z M461,859.6h7v7h-7V859.6z M461,866.8h7v7h-7V866.8z M461,874.1h7v7h-7V874.1z M461,888.6h7v7h-7V888.6z M468.2,816h7v7h-7
	V816z M468.2,830.5h7v7h-7V830.5z M468.2,852.3h7v7h-7V852.3z M468.2,874.1h7v7h-7V874.1z M468.2,888.6h7v7h-7V888.6z M475.5,816h7
	v7h-7V816z M475.5,830.5h7v7h-7V830.5z M475.5,845h7v7h-7V845z M475.5,852.3h7v7h-7V852.3z M475.5,859.6h7v7h-7V859.6z M475.5,874.1
	h7v7h-7V874.1z M475.5,888.6h7v7h-7V888.6z M482.8,816h7v7h-7V816z M482.8,830.5h7v7h-7V830.5z M482.8,837.8h7v7h-7V837.8z
	 M482.8,845h7v7h-7V845z M482.8,852.3h7v7h-7V852.3z M482.8,859.6h7v7h-7V859.6z M482.8,866.8h7v7h-7V866.8z M482.8,874.1h7v7h-7
	V874.1z M482.8,888.6h7v7h-7V888.6z M490,816h7v7h-7V816z M490,830.5h7v7h-7V830.5z M490,845h7v7h-7V845z M490,852.3h7v7h-7V852.3z
	 M490,859.6h7v7h-7V859.6z M490,874.1h7v7h-7V874.1z M490,888.6h7v7h-7V888.6z M497.3,816h7v7h-7V816z M497.3,830.5h7v7h-7V830.5z
	 M497.3,852.3h7v7h-7V852.3z M497.3,874.1h7v7h-7V874.1z M497.3,888.6h7v7h-7V888.6z M504.5,816h7v7h-7V816z M504.5,830.5h7v7h-7
	V830.5z M504.5,837.8h7v7h-7V837.8z M504.5,845h7v7h-7V845z M504.5,852.3h7v7h-7V852.3z M504.5,859.6h7v7h-7V859.6z M504.5,866.8h7
	v7h-7V866.8z M504.5,874.1h7v7h-7V874.1z M504.5,888.6h7v7h-7V888.6z M511.8,816h7v7h-7V816z M511.8,823.3h7v7h-7V823.3z
	 M511.8,881.3h7v7h-7V881.3z M511.8,888.6h7v7h-7V888.6z M519.1,816h7v7h-7V816z M519.1,823.3h7v7h-7V823.3z M519.1,830.5h7v7h-7
	V830.5z M519.1,837.8h7v7h-7V837.8z M519.1,845h7v7h-7V845z M519.1,852.3h7v7h-7V852.3z M519.1,859.6h7v7h-7V859.6z M519.1,866.8h7
	v7h-7V866.8z M519.1,874.1h7v7h-7V874.1z M519.1,881.3h7v7h-7V881.3z M519.1,888.6h7v7h-7V888.6z"/>
</svg>
