<?xml version="1.0" encoding="utf-8"?>
<!-- Generator: Adobe Illustrator 27.3.1, SVG Export Plug-In . SVG Version: 6.00 Build 0)  -->
<svg version="1.1" id="Слой_2" xmlns="http://www.w3.org/2000/svg" xmlns:xlink="http://www.w3.org/1999/xlink" x="0px" y="0px"
	 viewBox="0 0 870.9 595.1" style="enable-background:new 0 0 870.9 595.1;" xml:space="preserve">
<style type="text/css">
	.st0{fill:#1E0E01;}
</style>
<path class="st0" d="M21.8,79.9h7v7h-7V79.9z M21.8,87.1h7v7h-7V87.1z M21.8,94.4h7v7h-7V94.4z M21.8,101.6h7v7h-7V101.6z
	 M21.8,108.9h7v7h-7V108.9z M21.8,116.1h7v7h-7V116.1z M21.8,123.4h7v7h-7V123.4z M21.8,130.7h7v7h-7V130.7z M21.8,137.9h7v7h-7
	V137.9z M21.8,145.2h7v7h-7V145.2z M21.8,152.4h7v7h-7V152.4z M21.8,159.7h7v7h-7V159.7z M21.8,167h7v7h-7V167z M29.1,79.9h7v7h-7
	V79.9z M29.1,87.1h7v7h-7V87.1z M29.1,94.4h7v7h-7V94.4z M29.1,101.6h7v7h-7V101.6z M29.1,108.9h7v7h-7V108.9z M29.1,116.1h7v7h-7
	V116.1z M29.1,123.4h7v7h-7V123.4z M29.1,130.7h7v7h-7V130.7z M29.1,137.9h7v7h-7V137.9z M29.1,145.2h7v7h-7V145.2z M29.1,152.4h7v7
	h-7V152.4z M29.1,159.7h7v7h-7V159.7z M29.1,167h7v7h-7V167z M43.5,79.9h7v7h-7V79.9z M43.5,87.1h7v7h-7V87.1z M43.5,94.4h7v7h-7
	V94.4z M43.5,101.6h7v7h-7V101.6z M43.5,108.9h7v7h-7V108.9z M43.5,116.1h7v7h-7V116.1z M43.5,123.4h7v7h-7V123.4z M43.5,130.7h7v7
	h-7V130.7z M43.5,137.9h7v7h-7V137.9z M43.5,145.2h7v7h-7V145.2z M43.5,152.4h7v7h-7V152.4z M43.5,159.7h7v7h-7V159.7z M43.5,167h7
	v7h-7V167z M10.9,479.3h7v7h-7V479.3z M10.9,486.6h7v7h-7V486.6z M18.1,472.1h7v7h-7V472.1z M18.1,493.8h7v7h-7V493.8z M25.4,479.3
	h7v7h-7V479.3z M25.4,501.1h7v7h-7V501.1z M39.9,479.3h7v7h-7V479.3z M39.9,486.6h7v7h-7V486.6z M39.9,493.8h7v7h-7V493.8z
	 M39.9,501.1h7v7h-7V501.1z M47.2,479.3h7v7h-7V479.3z M47.2,501.1h7v7h-7V501.1z M54.4,486.6h7v7h-7V486.6z M54.4,493.8h7v7h-7
	V493.8z M10.9,508.4h7v7h-7V508.4z M10.9,537.3h7v7h-7V537.3z M10.9,544.6h7v7h-7V544.6z M10.9,551.8h7v7h-7V551.8z M10.9,559.1h7v7
	h-7V559.1z M18.1,515.5h7v7h-7V515.5z M18.1,530.1h7v7h-7V530.1z M18.1,544.6h7v7h-7V544.6z M25.4,508.4h7v7h-7V508.4z M25.4,530.1
	h7v7h-7V530.1z M25.4,544.6h7v7h-7V544.6z M39.9,508.4h7v7h-7V508.4z M39.9,515.5h7v7h-7V515.5z M39.9,537.3h7v7h-7V537.3z
	 M39.9,544.6h7v7h-7V544.6z M39.9,551.8h7v7h-7V551.8z M39.9,559.1h7v7h-7V559.1z M47.2,530.1h7v7h-7V530.1z M54.4,530.1h7v7h-7
	V530.1z M50.8,79.9h7v7h-7V79.9z M50.8,87.1h7v7h-7V87.1z M50.8,94.4h7v7h-7V94.4z M50.8,101.6h7v7h-7V101.6z M50.8,108.9h7v7h-7
	V108.9z M50.8,116.1h7v7h-7V116.1z M50.8,123.4h7v7h-7V123.4z M50.8,130.7h7v7h-7V130.7z M50.8,137.9h7v7h-7V137.9z M50.8,145.2h7v7
	h-7V145.2z M50.8,152.4h7v7h-7V152.4z M50.8,159.7h7v7h-7V159.7z M50.8,167h7v7h-7V167z M58.1,79.9h7v7h-7V79.9z M58.1,87.1h7v7h-7
	V87.1z M58.1,130.7h7v7h-7V130.7z M58.1,137.9h7v7h-7V137.9z M65.4,79.9h7v7h-7V79.9z M65.4,87.1h7v7h-7V87.1z M65.4,130.7h7v7h-7
	V130.7z M65.4,137.9h7v7h-7V137.9z M72.6,79.9h7v7h-7V79.9z M72.6,87.1h7v7h-7V87.1z M72.6,130.7h7v7h-7V130.7z M72.6,137.9h7v7h-7
	V137.9z M79.9,87.1h7v7h-7V87.1z M79.9,94.4h7v7h-7V94.4z M79.9,123.4h7v7h-7V123.4z M79.9,130.7h7v7h-7V130.7z M87.2,94.4h7v7h-7
	V94.4z M87.2,101.6h7v7h-7V101.6z M87.2,108.9h7v7h-7V108.9z M87.2,116.1h7v7h-7V116.1z M87.2,123.4h7v7h-7V123.4z M101.6,94.4h7v7
	h-7V94.4z M101.6,101.6h7v7h-7V101.6z M101.6,108.9h7v7h-7V108.9z M101.6,116.1h7v7h-7V116.1z M101.6,123.4h7v7h-7V123.4z
	 M101.6,130.7h7v7h-7V130.7z M101.6,137.9h7v7h-7V137.9z M101.6,145.2h7v7h-7V145.2z M101.6,152.4h7v7h-7V152.4z M101.6,159.7h7v7
	h-7V159.7z M101.6,167h7v7h-7V167z M69,486.6h7v7h-7V486.6z M69,493.8h7v7h-7V493.8z M69,501.1h7v7h-7V501.1z M76.2,479.3h7v7h-7
	V479.3z M76.2,493.8h7v7h-7V493.8z M83.5,479.3h7v7h-7V479.3z M83.5,493.8h7v7h-7V493.8z M90.7,486.6h7v7h-7V486.6z M90.7,493.8h7v7
	h-7V493.8z M105.3,486.6h7v7h-7V486.6z M105.3,493.8h7v7h-7V493.8z M105.3,501.1h7v7h-7V501.1z M112.5,479.3h7v7h-7V479.3z
	 M119.8,479.3h7v7h-7V479.3z M127,486.6h7v7h-7V486.6z M61.7,537.3h7v7h-7V537.3z M61.7,544.6h7v7h-7V544.6z M61.7,551.8h7v7h-7
	V551.8z M61.7,559.1h7v7h-7V559.1z M69,508.4h7v7h-7V508.4z M76.2,515.5h7v7h-7V515.5z M76.2,530.1h7v7h-7V530.1z M76.2,537.3h7v7
	h-7V537.3z M76.2,544.6h7v7h-7V544.6z M76.2,551.8h7v7h-7V551.8z M76.2,559.1h7v7h-7V559.1z M83.5,515.5h7v7h-7V515.5z M83.5,530.1
	h7v7h-7V530.1z M83.5,551.8h7v7h-7V551.8z M90.7,508.4h7v7h-7V508.4z M105.3,508.4h7v7h-7V508.4z M112.5,515.5h7v7h-7V515.5z
	 M119.8,515.5h7v7h-7V515.5z M134.4,530.1h7v7h-7V530.1z M134.4,537.3h7v7h-7V537.3z M134.4,544.6h7v7h-7V544.6z M134.4,551.8h7v7
	h-7V551.8z M134.4,559.1h7v7h-7V559.1z M127,508.4h7v7h-7V508.4z M141.6,537.3h7v7h-7V537.3z M141.6,544.6h7v7h-7V544.6z
	 M108.9,87.1h7v7h-7V87.1z M108.9,94.4h7v7h-7V94.4z M108.9,101.6h7v7h-7V101.6z M108.9,108.9h7v7h-7V108.9z M108.9,116.1h7v7h-7
	V116.1z M108.9,123.4h7v7h-7V123.4z M108.9,130.7h7v7h-7V130.7z M108.9,137.9h7v7h-7V137.9z M108.9,145.2h7v7h-7V145.2z
	 M108.9,152.4h7v7h-7V152.4z M108.9,159.7h7v7h-7V159.7z M108.9,167h7v7h-7V167z M116.2,79.9h7v7h-7V79.9z M116.2,87.1h7v7h-7V87.1z
	 M116.2,108.9h7v7h-7V108.9z M116.2,116.1h7v7h-7V116.1z M123.4,79.9h7v7h-7V79.9z M123.4,87.1h7v7h-7V87.1z M123.4,108.9h7v7h-7
	V108.9z M123.4,116.1h7v7h-7V116.1z M130.7,79.9h7v7h-7V79.9z M130.7,87.1h7v7h-7V87.1z M130.7,108.9h7v7h-7V108.9z M130.7,116.1h7
	v7h-7V116.1z M137.9,79.9h7v7h-7V79.9z M137.9,87.1h7v7h-7V87.1z M145.3,123.4h7v7h-7V123.4z M145.3,130.7h7v7h-7V130.7z
	 M145.3,137.9h7v7h-7V137.9z M145.3,145.2h7v7h-7V145.2z M145.3,152.4h7v7h-7V152.4z M152.5,116.1h7v7h-7V116.1z M152.5,123.4h7v7
	h-7V123.4z M152.5,130.7h7v7h-7V130.7z M152.5,137.9h7v7h-7V137.9z M152.5,145.2h7v7h-7V145.2z M152.5,152.4h7v7h-7V152.4z
	 M152.5,159.7h7v7h-7V159.7z M159.8,108.9h7v7h-7V108.9z M159.8,116.1h7v7h-7V116.1z M159.8,159.7h7v7h-7V159.7z M159.8,167h7v7h-7
	V167z M188.8,334h7v7h-7V334z M188.8,341.2h7v7h-7V341.2z M188.8,348.5h7v7h-7V348.5z M188.8,355.7h7v7h-7V355.7z M188.8,363h7v7h-7
	V363z M188.8,370.2h7v7h-7V370.2z M188.8,377.5h7v7h-7V377.5z M167,108.9h7v7h-7V108.9z M167,167h7v7h-7V167z M196,326.7h7v7h-7
	V326.7z M196,334h7v7h-7V334z M196,341.2h7v7h-7V341.2z M196,348.5h7v7h-7V348.5z M196,355.7h7v7h-7V355.7z M196,370.2h7v7h-7V370.2
	z M188.8,399.3h7v7h-7V399.3z M188.8,406.6h7v7h-7V406.6z M188.8,413.8h7v7h-7V413.8z M188.8,421.1h7v7h-7V421.1z M188.8,428.3h7v7
	h-7V428.3z M188.8,435.6h7v7h-7V435.6z M196,384.8h7v7h-7V384.8z M196,392h7v7h-7V392z M196,399.3h7v7h-7V399.3z M196,421.1h7v7h-7
	V421.1z M196,428.3h7v7h-7V428.3z M196,435.6h7v7h-7V435.6z M196,442.8h7v7h-7V442.8z M141.6,479.3h7v7h-7V479.3z M141.6,486.6h7v7
	h-7V486.6z M141.6,493.8h7v7h-7V493.8z M141.6,501.1h7v7h-7V501.1z M156.1,486.6h7v7h-7V486.6z M163.3,501.1h7v7h-7V501.1z
	 M163.3,479.3h7v7h-7V479.3z M170.6,479.3h7v7h-7V479.3z M170.6,501.1h7v7h-7V501.1z M177.9,486.6h7v7h-7V486.6z M177.9,493.8h7v7
	h-7V493.8z M177.9,501.1h7v7h-7V501.1z M192.4,479.3h7v7h-7V479.3z M192.4,486.6h7v7h-7V486.6z M192.4,493.8h7v7h-7V493.8z
	 M192.4,501.1h7v7h-7V501.1z M148.9,551.8h7v7h-7V551.8z M148.9,559.1h7v7h-7V559.1z M141.6,508.4h7v7h-7V508.4z M141.6,515.5h7v7
	h-7V515.5z M156.2,559.1h7v7h-7V559.1z M163.4,530.1h7v7h-7V530.1z M163.4,537.3h7v7h-7V537.3z M163.4,544.6h7v7h-7V544.6z
	 M163.4,551.8h7v7h-7V551.8z M163.4,559.1h7v7h-7V559.1z M156.1,508.4h7v7h-7V508.4z M163.3,515.5h7v7h-7V515.5z M177.9,537.3h7v7
	h-7V537.3z M177.9,559.1h7v7h-7V559.1z M170.6,515.5h7v7h-7V515.5z M185.2,530.1h7v7h-7V530.1z M185.2,551.8h7v7h-7V551.8z
	 M177.9,508.4h7v7h-7V508.4z M177.9,515.5h7v7h-7V515.5z M192.5,530.1h7v7h-7V530.1z M192.5,551.8h7v7h-7V551.8z M199.7,537.3h7v7
	h-7V537.3z M199.7,544.6h7v7h-7V544.6z M199.7,551.8h7v7h-7V551.8z M199.7,559.1h7v7h-7V559.1z M192.4,508.4h7v7h-7V508.4z
	 M192.4,515.5h7v7h-7V515.5z M199.6,515.5h7v7h-7V515.5z M221.4,530.1h7v7h-7V530.1z M214.2,530.1h7v7h-7V530.1z M221.4,559.1h7v7
	h-7V559.1z M174.3,108.9h7v7h-7V108.9z M174.3,167h7v7h-7V167z M203.3,319.4h7v7h-7V319.4z M203.3,326.7h7v7h-7V326.7z M203.3,334h7
	v7h-7V334z M203.3,341.2h7v7h-7V341.2z M203.3,348.5h7v7h-7V348.5z M203.3,355.7h7v7h-7V355.7z M203.3,363h7v7h-7V363z M203.3,370.2
	h7v7h-7V370.2z M203.3,377.5h7v7h-7V377.5z M181.6,108.9h7v7h-7V108.9z M181.6,116.1h7v7h-7V116.1z M181.6,159.7h7v7h-7V159.7z
	 M181.6,167h7v7h-7V167z M210.6,312.2h7v7h-7V312.2z M210.6,319.4h7v7h-7V319.4z M210.6,334h7v7h-7V334z M210.6,348.5h7v7h-7V348.5z
	 M210.6,355.7h7v7h-7V355.7z M210.6,363h7v7h-7V363z M210.6,377.5h7v7h-7V377.5z M188.8,116.1h7v7h-7V116.1z M188.8,123.4h7v7h-7
	V123.4z M188.8,130.7h7v7h-7V130.7z M188.8,137.9h7v7h-7V137.9z M188.8,145.2h7v7h-7V145.2z M188.8,152.4h7v7h-7V152.4z
	 M188.8,159.7h7v7h-7V159.7z M217.8,304.9h7v7h-7V304.9z M217.8,312.2h7v7h-7V312.2z M217.8,326.7h7v7h-7V326.7z M217.8,341.2h7v7
	h-7V341.2z M217.8,355.7h7v7h-7V355.7z M217.8,363h7v7h-7V363z M217.8,370.2h7v7h-7V370.2z M217.8,377.5h7v7h-7V377.5z M196.1,123.4
	h7v7h-7V123.4z M196.1,130.7h7v7h-7V130.7z M196.1,137.9h7v7h-7V137.9z M196.1,145.2h7v7h-7V145.2z M196.1,152.4h7v7h-7V152.4z
	 M225.1,297.6h7v7h-7V297.6z M225.1,304.9h7v7h-7V304.9z M225.1,319.4h7v7h-7V319.4z M225.1,334h7v7h-7V334z M225.1,348.5h7v7h-7
	V348.5z M225.1,363h7v7h-7V363z M225.1,377.5h7v7h-7V377.5z M232.3,290.4h7v7h-7V290.4z M232.3,297.6h7v7h-7V297.6z M232.3,326.7h7
	v7h-7V326.7z M232.3,341.2h7v7h-7V341.2z M232.3,355.7h7v7h-7V355.7z M232.3,370.2h7v7h-7V370.2z M232.3,377.5h7v7h-7V377.5z
	 M210.6,108.9h7v7h-7V108.9z M210.6,116.1h7v7h-7V116.1z M210.6,123.4h7v7h-7V123.4z M210.6,130.7h7v7h-7V130.7z M210.6,137.9h7v7
	h-7V137.9z M210.6,145.2h7v7h-7V145.2z M210.6,152.4h7v7h-7V152.4z M210.6,159.7h7v7h-7V159.7z M210.6,167h7v7h-7V167z M239.6,239.6
	h7v7h-7V239.6z M239.6,246.8h7v7h-7V246.8z M239.6,254.1h7v7h-7V254.1z M239.6,261.4h7v7h-7V261.4z M239.6,268.6h7v7h-7V268.6z
	 M239.6,290.4h7v7h-7V290.4z M239.6,326.7h7v7h-7V326.7z M239.6,334h7v7h-7V334z M239.6,348.5h7v7h-7V348.5z M239.6,363h7v7h-7V363z
	 M239.6,377.5h7v7h-7V377.5z M217.9,108.9h7v7h-7V108.9z M217.9,116.1h7v7h-7V116.1z M217.9,123.4h7v7h-7V123.4z M217.9,130.7h7v7
	h-7V130.7z M217.9,137.9h7v7h-7V137.9z M217.9,145.2h7v7h-7V145.2z M217.9,152.4h7v7h-7V152.4z M217.9,159.7h7v7h-7V159.7z
	 M217.9,167h7v7h-7V167z M246.9,239.6h7v7h-7V239.6z M246.9,246.8h7v7h-7V246.8z M246.9,261.4h7v7h-7V261.4z M246.9,268.6h7v7h-7
	V268.6z M246.9,275.9h7v7h-7V275.9z M246.9,290.4h7v7h-7V290.4z M246.9,341.2h7v7h-7V341.2z M246.9,355.7h7v7h-7V355.7z
	 M246.9,370.2h7v7h-7V370.2z M246.9,377.5h7v7h-7V377.5z M225.1,116.1h7v7h-7V116.1z M254.1,239.6h7v7h-7V239.6z M254.1,254.1h7v7
	h-7V254.1z M254.1,261.4h7v7h-7V261.4z M254.1,275.9h7v7h-7V275.9z M254.1,283.1h7v7h-7V283.1z M254.1,290.4h7v7h-7V290.4z
	 M254.1,334h7v7h-7V334z M254.1,348.5h7v7h-7V348.5z M254.1,363h7v7h-7V363z M254.1,377.5h7v7h-7V377.5z M261.4,239.6h7v7h-7V239.6z
	 M261.4,246.8h7v7h-7V246.8z M261.4,261.4h7v7h-7V261.4z M261.4,268.6h7v7h-7V268.6z M261.4,283.1h7v7h-7V283.1z M261.4,290.4h7v7
	h-7V290.4z M261.4,304.9h7v7h-7V304.9z M261.4,341.2h7v7h-7V341.2z M261.4,355.7h7v7h-7V355.7z M261.4,370.2h7v7h-7V370.2z
	 M232.3,108.9h7v7h-7V108.9z M232.3,116.1h7v7h-7V116.1z M268.6,246.8h7v7h-7V246.8z M268.6,254.1h7v7h-7V254.1z M268.6,268.6h7v7
	h-7V268.6z M268.6,275.9h7v7h-7V275.9z M268.6,290.4h7v7h-7V290.4z M268.6,297.6h7v7h-7V297.6z M268.6,304.9h7v7h-7V304.9z
	 M268.6,312.2h7v7h-7V312.2z M268.6,319.4h7v7h-7V319.4z M268.6,348.5h7v7h-7V348.5z M268.6,363h7v7h-7V363z M268.6,377.5h7v7h-7
	V377.5z M203.3,384.8h7v7h-7V384.8z M203.3,399.3h7v7h-7V399.3z M203.3,406.6h7v7h-7V406.6z M203.3,413.8h7v7h-7V413.8z
	 M203.3,421.1h7v7h-7V421.1z M203.3,428.3h7v7h-7V428.3z M203.3,435.6h7v7h-7V435.6z M203.3,442.8h7v7h-7V442.8z M203.3,450.1h7v7
	h-7V450.1z M210.6,384.8h7v7h-7V384.8z M210.6,392h7v7h-7V392z M210.6,399.3h7v7h-7V399.3z M210.6,406.6h7v7h-7V406.6z M210.6,413.8
	h7v7h-7V413.8z M210.6,421.1h7v7h-7V421.1z M210.6,428.3h7v7h-7V428.3z M210.6,435.6h7v7h-7V435.6z M210.6,442.8h7v7h-7V442.8z
	 M210.6,450.1h7v7h-7V450.1z M217.8,392h7v7h-7V392z M217.8,399.3h7v7h-7V399.3z M217.8,413.8h7v7h-7V413.8z M217.8,421.1h7v7h-7
	V421.1z M217.8,428.3h7v7h-7V428.3z M217.8,435.6h7v7h-7V435.6z M217.8,442.8h7v7h-7V442.8z M217.8,450.1h7v7h-7V450.1z
	 M225.1,384.8h7v7h-7V384.8z M225.1,392h7v7h-7V392z M225.1,399.3h7v7h-7V399.3z M225.1,406.6h7v7h-7V406.6z M225.1,413.8h7v7h-7
	V413.8z M225.1,421.1h7v7h-7V421.1z M225.1,442.8h7v7h-7V442.8z M225.1,450.1h7v7h-7V450.1z M232.3,384.8h7v7h-7V384.8z
	 M232.3,399.3h7v7h-7V399.3z M232.3,406.6h7v7h-7V406.6z M232.3,413.8h7v7h-7V413.8z M232.3,421.1h7v7h-7V421.1z M232.3,428.3h7v7
	h-7V428.3z M232.3,435.6h7v7h-7V435.6z M232.3,442.8h7v7h-7V442.8z M232.3,450.1h7v7h-7V450.1z M239.6,384.8h7v7h-7V384.8z
	 M239.6,392h7v7h-7V392z M239.6,399.3h7v7h-7V399.3z M239.6,413.8h7v7h-7V413.8z M239.6,421.1h7v7h-7V421.1z M239.6,428.3h7v7h-7
	V428.3z M239.6,435.6h7v7h-7V435.6z M239.6,442.8h7v7h-7V442.8z M239.6,450.1h7v7h-7V450.1z M246.9,384.8h7v7h-7V384.8z M246.9,392
	h7v7h-7V392z M246.9,399.3h7v7h-7V399.3z M246.9,406.6h7v7h-7V406.6z M246.9,413.8h7v7h-7V413.8z M246.9,421.1h7v7h-7V421.1z
	 M246.9,428.3h7v7h-7V428.3z M246.9,435.6h7v7h-7V435.6z M246.9,442.8h7v7h-7V442.8z M246.9,450.1h7v7h-7V450.1z M254.1,392h7v7h-7
	V392z M254.1,406.6h7v7h-7V406.6z M254.1,413.8h7v7h-7V413.8z M254.1,428.3h7v7h-7V428.3z M254.1,435.6h7v7h-7V435.6z M254.1,442.8
	h7v7h-7V442.8z M254.1,450.1h7v7h-7V450.1z M261.4,384.8h7v7h-7V384.8z M261.4,392h7v7h-7V392z M261.4,399.3h7v7h-7V399.3z
	 M261.4,406.6h7v7h-7V406.6z M261.4,413.8h7v7h-7V413.8z M261.4,421.1h7v7h-7V421.1z M261.4,428.3h7v7h-7V428.3z M261.4,435.6h7v7
	h-7V435.6z M261.4,442.8h7v7h-7V442.8z M261.4,450.1h7v7h-7V450.1z M268.6,392h7v7h-7V392z M268.6,399.3h7v7h-7V399.3z M268.6,413.8
	h7v7h-7V413.8z M268.6,421.1h7v7h-7V421.1z M268.6,428.3h7v7h-7V428.3z M268.6,442.8h7v7h-7V442.8z M268.6,450.1h7v7h-7V450.1z
	 M210.6,457.4h7v7h-7V457.4z M217.8,457.4h7v7h-7V457.4z M217.8,464.6h7v7h-7V464.6z M225.1,457.4h7v7h-7V457.4z M225.1,464.6h7v7
	h-7V464.6z M225.1,471.9h7v7h-7V471.9z M232.3,457.4h7v7h-7V457.4z M232.3,464.6h7v7h-7V464.6z M232.3,471.9h7v7h-7V471.9z
	 M232.3,479.2h7v7h-7V479.2z M239.6,457.4h7v7h-7V457.4z M239.6,464.6h7v7h-7V464.6z M239.6,471.9h7v7h-7V471.9z M239.6,479.2h7v7
	h-7V479.2z M239.6,486.4h7v7h-7V486.4z M246.9,457.4h7v7h-7V457.4z M246.9,464.6h7v7h-7V464.6z M246.9,471.9h7v7h-7V471.9z
	 M246.9,479.2h7v7h-7V479.2z M246.9,486.4h7v7h-7V486.4z M246.9,493.7h7v7h-7V493.7z M254.1,457.4h7v7h-7V457.4z M254.1,464.6h7v7
	h-7V464.6z M254.1,471.9h7v7h-7V471.9z M254.1,479.2h7v7h-7V479.2z M254.1,486.4h7v7h-7V486.4z M254.1,493.7h7v7h-7V493.7z
	 M261.4,457.4h7v7h-7V457.4z M261.4,464.6h7v7h-7V464.6z M261.4,471.9h7v7h-7V471.9z M261.4,479.2h7v7h-7V479.2z M261.4,486.4h7v7
	h-7V486.4z M261.4,493.7h7v7h-7V493.7z M261.4,500.9h7v7h-7V500.9z M268.6,457.4h7v7h-7V457.4z M268.6,464.6h7v7h-7V464.6z
	 M268.6,471.9h7v7h-7V471.9z M268.6,479.2h7v7h-7V479.2z M268.6,486.4h7v7h-7V486.4z M268.6,493.7h7v7h-7V493.7z M268.6,500.9h7v7
	h-7V500.9z M206.9,515.5h7v7h-7V515.5z M228.7,530.1h7v7h-7V530.1z M228.7,544.6h7v7h-7V544.6z M228.7,551.8h7v7h-7V551.8z
	 M236,530.1h7v7h-7V530.1z M236,537.3h7v7h-7V537.3z M250.5,537.3h7v7h-7V537.3z M250.5,559.1h7v7h-7V559.1z M257.8,530.1h7v7h-7
	V530.1z M257.8,551.8h7v7h-7V551.8z M265.1,530.1h7v7h-7V530.1z M265.1,551.8h7v7h-7V551.8z M272.3,537.3h7v7h-7V537.3z
	 M272.3,544.6h7v7h-7V544.6z M272.3,551.8h7v7h-7V551.8z M272.3,559.1h7v7h-7V559.1z M286.8,530.1h7v7h-7V530.1z M286.8,537.3h7v7
	h-7V537.3z M286.8,544.6h7v7h-7V544.6z M286.8,551.8h7v7h-7V551.8z M286.8,559.1h7v7h-7V559.1z M239.6,108.9h7v7h-7V108.9z
	 M239.6,116.1h7v7h-7V116.1z M275.9,254.1h7v7h-7V254.1z M275.9,261.4h7v7h-7V261.4z M275.9,275.9h7v7h-7V275.9z M275.9,283.1h7v7
	h-7V283.1z M275.9,290.4h7v7h-7V290.4z M275.9,297.6h7v7h-7V297.6z M275.9,312.2h7v7h-7V312.2z M275.9,319.4h7v7h-7V319.4z
	 M275.9,341.2h7v7h-7V341.2z M275.9,355.7h7v7h-7V355.7z M275.9,370.2h7v7h-7V370.2z M246.9,116.1h7v7h-7V116.1z M246.9,123.4h7v7
	h-7V123.4z M246.9,130.7h7v7h-7V130.7z M246.9,137.9h7v7h-7V137.9z M246.9,145.2h7v7h-7V145.2z M246.9,152.4h7v7h-7V152.4z
	 M246.9,159.7h7v7h-7V159.7z M246.9,167h7v7h-7V167z M283.2,254.1h7v7h-7V254.1z M283.2,261.4h7v7h-7V261.4z M283.2,275.9h7v7h-7
	V275.9z M283.2,283.1h7v7h-7V283.1z M283.2,290.4h7v7h-7V290.4z M283.2,297.6h7v7h-7V297.6z M283.2,304.9h7v7h-7V304.9z
	 M283.2,312.2h7v7h-7V312.2z M283.2,319.4h7v7h-7V319.4z M283.2,348.5h7v7h-7V348.5z M283.2,363h7v7h-7V363z M283.2,377.5h7v7h-7
	V377.5z M254.1,123.4h7v7h-7V123.4z M254.1,130.7h7v7h-7V130.7z M254.1,137.9h7v7h-7V137.9z M254.1,145.2h7v7h-7V145.2z
	 M254.1,152.4h7v7h-7V152.4z M254.1,159.7h7v7h-7V159.7z M254.1,167h7v7h-7V167z M290.4,261.4h7v7h-7V261.4z M290.4,268.6h7v7h-7
	V268.6z M290.4,275.9h7v7h-7V275.9z M290.4,283.1h7v7h-7V283.1z M290.4,290.4h7v7h-7V290.4z M290.4,297.6h7v7h-7V297.6z
	 M290.4,304.9h7v7h-7V304.9z M290.4,312.2h7v7h-7V312.2z M290.4,319.4h7v7h-7V319.4z M290.4,341.2h7v7h-7V341.2z M290.4,355.7h7v7
	h-7V355.7z M290.4,370.2h7v7h-7V370.2z M297.7,268.6h7v7h-7V268.6z M297.7,275.9h7v7h-7V275.9z M297.7,283.1h7v7h-7V283.1z
	 M297.7,290.4h7v7h-7V290.4z M297.7,297.6h7v7h-7V297.6z M297.7,312.2h7v7h-7V312.2z M297.7,319.4h7v7h-7V319.4z M297.7,348.5h7v7
	h-7V348.5z M297.7,363h7v7h-7V363z M297.7,377.5h7v7h-7V377.5z M268.6,123.4h7v7h-7V123.4z M268.6,130.7h7v7h-7V130.7z M268.6,137.9
	h7v7h-7V137.9z M268.6,145.2h7v7h-7V145.2z M268.6,152.4h7v7h-7V152.4z M304.9,283.1h7v7h-7V283.1z M304.9,312.2h7v7h-7V312.2z
	 M304.9,319.4h7v7h-7V319.4z M304.9,341.2h7v7h-7V341.2z M304.9,355.7h7v7h-7V355.7z M304.9,370.2h7v7h-7V370.2z M275.9,116.1h7v7
	h-7V116.1z M275.9,123.4h7v7h-7V123.4z M275.9,130.7h7v7h-7V130.7z M275.9,137.9h7v7h-7V137.9z M275.9,145.2h7v7h-7V145.2z
	 M275.9,152.4h7v7h-7V152.4z M275.9,159.7h7v7h-7V159.7z M283.2,159.7h7v7h-7V159.7z M312.2,283.1h7v7h-7V283.1z M312.2,304.9h7v7
	h-7V304.9z M312.2,312.2h7v7h-7V312.2z M312.2,348.5h7v7h-7V348.5z M312.2,363h7v7h-7V363z M312.2,377.5h7v7h-7V377.5z M283.2,108.9
	h7v7h-7V108.9z M283.2,116.1h7v7h-7V116.1z M283.2,137.9h7v7h-7V137.9z M283.2,167h7v7h-7V167z M319.5,283.1h7v7h-7V283.1z
	 M319.5,304.9h7v7h-7V304.9z M319.5,341.2h7v7h-7V341.2z M319.5,355.7h7v7h-7V355.7z M319.5,370.2h7v7h-7V370.2z M290.4,108.9h7v7
	h-7V108.9z M290.4,116.1h7v7h-7V116.1z M290.4,137.9h7v7h-7V137.9z M290.4,167h7v7h-7V167z M326.7,283.1h7v7h-7V283.1z M326.7,334h7
	v7h-7V334z M326.7,348.5h7v7h-7V348.5z M334,348.5h7v7h-7V348.5z M326.7,363h7v7h-7V363z M334,363h7v7h-7V363z M326.7,377.5h7v7h-7
	V377.5z M334,377.5h7v7h-7V377.5z M297.7,108.9h7v7h-7V108.9z M297.7,116.1h7v7h-7V116.1z M297.7,137.9h7v7h-7V137.9z M297.7,167h7
	v7h-7V167z M334,283.1h7v7h-7V283.1z M334,290.4h7v7h-7V290.4z M334,326.7h7v7h-7V326.7z M334,341.2h7v7h-7V341.2z M341.3,341.2h7v7
	h-7V341.2z M334,355.7h7v7h-7V355.7z M334,370.2h7v7h-7V370.2z M304.9,116.1h7v7h-7V116.1z M304.9,123.4h7v7h-7V123.4z M304.9,137.9
	h7v7h-7V137.9z M304.9,159.7h7v7h-7V159.7z M304.9,167h7v7h-7V167z M341.2,290.4h7v7h-7V290.4z M341.2,297.6h7v7h-7V297.6z
	 M341.2,319.4h7v7h-7V319.4z M348.5,319.4h7v7h-7V319.4z M341.2,334h7v7h-7V334z M275.9,384.8h7v7h-7V384.8z M275.9,392h7v7h-7V392z
	 M275.9,399.3h7v7h-7V399.3z M275.9,406.6h7v7h-7V406.6z M275.9,413.8h7v7h-7V413.8z M275.9,428.3h7v7h-7V428.3z M275.9,435.6h7v7
	h-7V435.6z M275.9,442.8h7v7h-7V442.8z M283.2,392h7v7h-7V392z M283.2,399.3h7v7h-7V399.3z M283.2,406.6h7v7h-7V406.6z M283.2,413.8
	h7v7h-7V413.8z M283.2,421.1h7v7h-7V421.1z M283.2,428.3h7v7h-7V428.3z M283.2,435.6h7v7h-7V435.6z M283.2,442.8h7v7h-7V442.8z
	 M283.2,450.1h7v7h-7V450.1z M290.4,384.8h7v7h-7V384.8z M290.4,392h7v7h-7V392z M290.4,406.6h7v7h-7V406.6z M290.4,413.8h7v7h-7
	V413.8z M290.4,421.1h7v7h-7V421.1z M290.4,428.3h7v7h-7V428.3z M290.4,442.8h7v7h-7V442.8z M297.7,392h7v7h-7V392z M297.7,399.3h7
	v7h-7V399.3z M297.7,406.6h7v7h-7V406.6z M297.7,413.8h7v7h-7V413.8z M297.7,428.3h7v7h-7V428.3z M297.7,435.6h7v7h-7V435.6z
	 M297.7,442.8h7v7h-7V442.8z M297.7,450.1h7v7h-7V450.1z M304.9,384.8h7v7h-7V384.8z M304.9,392h7v7h-7V392z M304.9,399.3h7v7h-7
	V399.3z M304.9,406.6h7v7h-7V406.6z M304.9,413.8h7v7h-7V413.8z M304.9,421.1h7v7h-7V421.1z M304.9,428.3h7v7h-7V428.3z
	 M304.9,435.6h7v7h-7V435.6z M304.9,442.8h7v7h-7V442.8z M312.2,392h7v7h-7V392z M312.2,399.3h7v7h-7V399.3z M312.2,413.8h7v7h-7
	V413.8z M312.2,421.1h7v7h-7V421.1z M312.2,428.3h7v7h-7V428.3z M312.2,442.8h7v7h-7V442.8z M312.2,450.1h7v7h-7V450.1z
	 M319.5,384.8h7v7h-7V384.8z M319.5,392h7v7h-7V392z M319.5,399.3h7v7h-7V399.3z M319.5,406.6h7v7h-7V406.6z M319.5,413.8h7v7h-7
	V413.8z M319.5,428.3h7v7h-7V428.3z M319.5,435.6h7v7h-7V435.6z M319.5,442.8h7v7h-7V442.8z M319.5,450.1h7v7h-7V450.1z
	 M326.7,384.8h7v7h-7V384.8z M326.7,399.3h7v7h-7V399.3z M326.7,406.6h7v7h-7V406.6z M326.7,413.8h7v7h-7V413.8z M326.7,421.1h7v7
	h-7V421.1z M326.7,428.3h7v7h-7V428.3z M326.7,435.6h7v7h-7V435.6z M326.7,450.1h7v7h-7V450.1z M334,384.8h7v7h-7V384.8z M334,392h7
	v7h-7V392z M334,399.3h7v7h-7V399.3z M334,406.6h7v7h-7V406.6z M334,421.1h7v7h-7V421.1z M334,435.6h7v7h-7V435.6z M334,442.8h7v7
	h-7V442.8z M334,450.1h7v7h-7V450.1z M341.2,384.8h7v7h-7V384.8z M341.2,392h7v7h-7V392z M341.2,399.3h7v7h-7V399.3z M348.5,399.3h7
	v7h-7V399.3z M341.2,406.6h7v7h-7V406.6z M341.2,413.8h7v7h-7V413.8z M341.2,421.1h7v7h-7V421.1z M341.2,428.3h7v7h-7V428.3z
	 M341.2,435.6h7v7h-7V435.6z M341.2,442.8h7v7h-7V442.8z M341.2,450.1h7v7h-7V450.1z M275.9,457.4h7v7h-7V457.4z M275.9,464.6h7v7
	h-7V464.6z M275.9,471.9h7v7h-7V471.9z M275.9,479.2h7v7h-7V479.2z M275.9,486.4h7v7h-7V486.4z M275.9,493.7h7v7h-7V493.7z
	 M275.9,500.9h7v7h-7V500.9z M283.2,457.4h7v7h-7V457.4z M283.2,464.6h7v7h-7V464.6z M283.2,471.9h7v7h-7V471.9z M283.2,479.2h7v7
	h-7V479.2z M283.2,486.4h7v7h-7V486.4z M283.2,493.7h7v7h-7V493.7z M283.2,500.9h7v7h-7V500.9z M283.2,508.2h7v7h-7V508.2z
	 M290.4,457.4h7v7h-7V457.4z M290.4,464.6h7v7h-7V464.6z M290.4,471.9h7v7h-7V471.9z M290.4,479.2h7v7h-7V479.2z M290.4,486.4h7v7
	h-7V486.4z M290.4,493.7h7v7h-7V493.7z M290.4,500.9h7v7h-7V500.9z M290.4,508.2h7v7h-7V508.2z M297.7,457.4h7v7h-7V457.4z
	 M297.7,464.6h7v7h-7V464.6z M297.7,471.9h7v7h-7V471.9z M297.7,479.2h7v7h-7V479.2z M297.7,486.4h7v7h-7V486.4z M297.7,493.7h7v7
	h-7V493.7z M297.7,500.9h7v7h-7V500.9z M297.7,508.2h7v7h-7V508.2z M304.9,457.4h7v7h-7V457.4z M304.9,464.6h7v7h-7V464.6z
	 M304.9,471.9h7v7h-7V471.9z M304.9,479.2h7v7h-7V479.2z M304.9,486.4h7v7h-7V486.4z M304.9,493.7h7v7h-7V493.7z M304.9,500.9h7v7
	h-7V500.9z M304.9,508.2h7v7h-7V508.2z M304.9,515.4h7v7h-7V515.4z M312.2,457.4h7v7h-7V457.4z M312.2,464.6h7v7h-7V464.6z
	 M312.2,471.9h7v7h-7V471.9z M312.2,479.2h7v7h-7V479.2z M312.2,486.4h7v7h-7V486.4z M312.2,493.7h7v7h-7V493.7z M312.2,500.9h7v7
	h-7V500.9z M312.2,508.2h7v7h-7V508.2z M312.2,515.4h7v7h-7V515.4z M319.5,457.4h7v7h-7V457.4z M319.5,464.6h7v7h-7V464.6z
	 M319.5,471.9h7v7h-7V471.9z M319.5,479.2h7v7h-7V479.2z M319.5,486.4h7v7h-7V486.4z M319.5,493.7h7v7h-7V493.7z M319.5,500.9h7v7
	h-7V500.9z M319.5,508.2h7v7h-7V508.2z M319.5,515.4h7v7h-7V515.4z M319.5,522.7h7v7h-7V522.7z M326.7,457.4h7v7h-7V457.4z
	 M326.7,464.6h7v7h-7V464.6z M326.7,471.9h7v7h-7V471.9z M326.7,479.2h7v7h-7V479.2z M326.7,486.4h7v7h-7V486.4z M326.7,493.7h7v7
	h-7V493.7z M326.7,500.9h7v7h-7V500.9z M326.7,508.2h7v7h-7V508.2z M326.7,515.4h7v7h-7V515.4z M326.7,522.7h7v7h-7V522.7z
	 M334,457.4h7v7h-7V457.4z M334,464.6h7v7h-7V464.6z M334,471.9h7v7h-7V471.9z M334,479.2h7v7h-7V479.2z M334,486.4h7v7h-7V486.4z
	 M334,493.7h7v7h-7V493.7z M334,500.9h7v7h-7V500.9z M334,508.2h7v7h-7V508.2z M334,515.4h7v7h-7V515.4z M334,522.7h7v7h-7V522.7z
	 M341.2,457.4h7v7h-7V457.4z M341.2,464.6h7v7h-7V464.6z M341.2,471.9h7v7h-7V471.9z M341.2,479.2h7v7h-7V479.2z M341.2,486.4h7v7
	h-7V486.4z M341.2,493.7h7v7h-7V493.7z M341.2,500.9h7v7h-7V500.9z M341.2,508.2h7v7h-7V508.2z M341.2,515.4h7v7h-7V515.4z
	 M341.2,522.7h7v7h-7V522.7z M294.1,530.1h7v7h-7V530.1z M294.1,551.8h7v7h-7V551.8z M326.7,530h7v7h-7V530z M334,530h7v7h-7V530z
	 M334,537.2h7v7h-7V537.2z M341.2,530h7v7h-7V530z M341.2,537.2h7v7h-7V537.2z M312.2,123.4h7v7h-7V123.4z M312.2,130.7h7v7h-7
	V130.7z M312.2,137.9h7v7h-7V137.9z M312.2,159.7h7v7h-7V159.7z M348.5,297.6h7v7h-7V297.6z M348.5,304.9h7v7h-7V304.9z
	 M348.5,312.2h7v7h-7V312.2z M348.5,326.7h7v7h-7V326.7z M355.8,304.9h7v7h-7V304.9z M355.8,312.2h7v7h-7V312.2z M363,304.9h7v7h-7
	V304.9z M406.6,261.4h7v7h-7V261.4z M406.6,268.6h7v7h-7V268.6z M406.6,275.9h7v7h-7V275.9z M406.6,283.1h7v7h-7V283.1z
	 M406.6,290.4h7v7h-7V290.4z M406.6,297.6h7v7h-7V297.6z M413.8,246.8h7v7h-7V246.8z M413.8,254.1h7v7h-7V254.1z M413.8,261.4h7v7
	h-7V261.4z M413.8,268.6h7v7h-7V268.6z M413.8,283.1h7v7h-7V283.1z M413.8,297.6h7v7h-7V297.6z M413.8,304.9h7v7h-7V304.9z
	 M413.8,312.2h7v7h-7V312.2z M348.5,406.6h7v7h-7V406.6z M348.5,413.8h7v7h-7V413.8z M348.5,428.3h7v7h-7V428.3z M348.5,435.6h7v7
	h-7V435.6z M348.5,442.8h7v7h-7V442.8z M348.5,450.1h7v7h-7V450.1z M355.8,406.6h7v7h-7V406.6z M355.8,413.8h7v7h-7V413.8z
	 M355.8,421.1h7v7h-7V421.1z M355.8,428.3h7v7h-7V428.3z M355.8,435.6h7v7h-7V435.6z M355.8,442.8h7v7h-7V442.8z M355.8,450.1h7v7
	h-7V450.1z M363,413.8h7v7h-7V413.8z M370.3,413.8h7v7h-7V413.8z M363,421.1h7v7h-7V421.1z M370.3,421.1h7v7h-7V421.1z M363,428.3h7
	v7h-7V428.3z M363,435.6h7v7h-7V435.6z M363,442.8h7v7h-7V442.8z M363,450.1h7v7h-7V450.1z M370.3,428.3h7v7h-7V428.3z M370.3,435.6
	h7v7h-7V435.6z M370.3,442.8h7v7h-7V442.8z M370.3,450.1h7v7h-7V450.1z M377.5,442.8h7v7h-7V442.8z M377.5,450.1h7v7h-7V450.1z
	 M348.5,457.4h7v7h-7V457.4z M348.5,464.6h7v7h-7V464.6z M348.5,471.9h7v7h-7V471.9z M348.5,479.2h7v7h-7V479.2z M348.5,486.4h7v7
	h-7V486.4z M348.5,493.7h7v7h-7V493.7z M348.5,500.9h7v7h-7V500.9z M348.5,508.2h7v7h-7V508.2z M348.5,515.4h7v7h-7V515.4z
	 M348.5,522.7h7v7h-7V522.7z M355.8,457.4h7v7h-7V457.4z M355.8,464.6h7v7h-7V464.6z M355.8,471.9h7v7h-7V471.9z M355.8,479.2h7v7
	h-7V479.2z M355.8,486.4h7v7h-7V486.4z M355.8,493.7h7v7h-7V493.7z M355.8,500.9h7v7h-7V500.9z M355.8,508.2h7v7h-7V508.2z
	 M355.8,515.4h7v7h-7V515.4z M355.8,522.7h7v7h-7V522.7z M363,457.4h7v7h-7V457.4z M363,464.6h7v7h-7V464.6z M363,471.9h7v7h-7
	V471.9z M363,479.2h7v7h-7V479.2z M363,486.4h7v7h-7V486.4z M363,493.7h7v7h-7V493.7z M363,500.9h7v7h-7V500.9z M363,508.2h7v7h-7
	V508.2z M363,515.4h7v7h-7V515.4z M363,522.7h7v7h-7V522.7z M370.3,457.4h7v7h-7V457.4z M370.3,464.6h7v7h-7V464.6z M370.3,471.9h7
	v7h-7V471.9z M370.3,479.2h7v7h-7V479.2z M370.3,486.4h7v7h-7V486.4z M370.3,493.7h7v7h-7V493.7z M370.3,500.9h7v7h-7V500.9z
	 M370.3,508.2h7v7h-7V508.2z M370.3,515.4h7v7h-7V515.4z M370.3,522.7h7v7h-7V522.7z M377.5,457.4h7v7h-7V457.4z M377.5,464.6h7v7
	h-7V464.6z M377.5,471.9h7v7h-7V471.9z M377.5,479.2h7v7h-7V479.2z M377.5,486.4h7v7h-7V486.4z M377.5,493.7h7v7h-7V493.7z
	 M377.5,500.9h7v7h-7V500.9z M377.5,508.2h7v7h-7V508.2z M377.5,515.4h7v7h-7V515.4z M377.5,522.7h7v7h-7V522.7z M384.8,464.6h7v7
	h-7V464.6z M384.8,471.9h7v7h-7V471.9z M384.8,479.2h7v7h-7V479.2z M384.8,486.4h7v7h-7V486.4z M384.8,493.7h7v7h-7V493.7z
	 M384.8,500.9h7v7h-7V500.9z M384.8,508.2h7v7h-7V508.2z M384.8,515.4h7v7h-7V515.4z M384.8,522.7h7v7h-7V522.7z M392.1,471.9h7v7
	h-7V471.9z M392.1,479.2h7v7h-7V479.2z M392.1,486.4h7v7h-7V486.4z M392.1,493.7h7v7h-7V493.7z M392.1,500.9h7v7h-7V500.9z
	 M392.1,508.2h7v7h-7V508.2z M392.1,515.4h7v7h-7V515.4z M392.1,522.7h7v7h-7V522.7z M399.3,479.2h7v7h-7V479.2z M399.3,486.4h7v7
	h-7V486.4z M399.3,493.7h7v7h-7V493.7z M399.3,500.9h7v7h-7V500.9z M399.3,508.2h7v7h-7V508.2z M399.3,515.4h7v7h-7V515.4z
	 M399.3,522.7h7v7h-7V522.7z M406.6,486.4h7v7h-7V486.4z M406.6,493.7h7v7h-7V493.7z M406.6,500.9h7v7h-7V500.9z M406.6,508.2h7v7
	h-7V508.2z M406.6,515.4h7v7h-7V515.4z M406.6,522.7h7v7h-7V522.7z M413.8,493.7h7v7h-7V493.7z M413.8,500.9h7v7h-7V500.9z
	 M413.8,508.2h7v7h-7V508.2z M413.8,515.4h7v7h-7V515.4z M413.8,522.7h7v7h-7V522.7z M348.5,530h7v7h-7V530z M348.5,537.2h7v7h-7
	V537.2z M348.5,544.5h7v7h-7V544.5z M348.5,551.8h7v7h-7V551.8z M355.8,530h7v7h-7V530z M355.8,537.2h7v7h-7V537.2z M355.8,544.5h7
	v7h-7V544.5z M355.8,551.8h7v7h-7V551.8z M355.8,559h7v7h-7V559z M363,530h7v7h-7V530z M363,537.2h7v7h-7V537.2z M363,544.5h7v7h-7
	V544.5z M363,551.8h7v7h-7V551.8z M363,559h7v7h-7V559z M363,566.3h7v7h-7V566.3z M370.3,530h7v7h-7V530z M370.3,537.2h7v7h-7V537.2
	z M370.3,544.5h7v7h-7V544.5z M370.3,551.8h7v7h-7V551.8z M370.3,559h7v7h-7V559z M370.3,566.3h7v7h-7V566.3z M370.3,573.5h7v7h-7
	V573.5z M377.5,530h7v7h-7V530z M377.5,537.2h7v7h-7V537.2z M377.5,544.5h7v7h-7V544.5z M377.5,551.8h7v7h-7V551.8z M377.5,559h7v7
	h-7V559z M377.5,566.3h7v7h-7V566.3z M377.5,573.5h7v7h-7V573.5z M384.8,530h7v7h-7V530z M384.8,537.2h7v7h-7V537.2z M384.8,544.5h7
	v7h-7V544.5z M384.8,551.8h7v7h-7V551.8z M384.8,559h7v7h-7V559z M384.8,566.3h7v7h-7V566.3z M384.8,573.5h7v7h-7V573.5z
	 M384.8,580.8h7v7h-7V580.8z M392.1,530h7v7h-7V530z M392.1,537.2h7v7h-7V537.2z M392.1,544.5h7v7h-7V544.5z M392.1,551.8h7v7h-7
	V551.8z M392.1,559h7v7h-7V559z M392.1,566.3h7v7h-7V566.3z M392.1,573.5h7v7h-7V573.5z M392.1,580.8h7v7h-7V580.8z M399.3,530h7v7
	h-7V530z M399.3,537.2h7v7h-7V537.2z M399.3,544.5h7v7h-7V544.5z M399.3,551.8h7v7h-7V551.8z M399.3,559h7v7h-7V559z M399.3,566.3h7
	v7h-7V566.3z M399.3,573.5h7v7h-7V573.5z M399.3,580.8h7v7h-7V580.8z M406.6,530h7v7h-7V530z M406.6,537.2h7v7h-7V537.2z
	 M406.6,544.5h7v7h-7V544.5z M406.6,551.8h7v7h-7V551.8z M406.6,559h7v7h-7V559z M406.6,566.3h7v7h-7V566.3z M406.6,573.5h7v7h-7
	V573.5z M406.6,580.8h7v7h-7V580.8z M413.8,530h7v7h-7V530z M413.8,537.2h7v7h-7V537.2z M413.8,544.5h7v7h-7V544.5z M413.8,551.8h7
	v7h-7V551.8z M413.8,559h7v7h-7V559z M413.8,566.3h7v7h-7V566.3z M413.8,573.5h7v7h-7V573.5z M413.8,580.8h7v7h-7V580.8z
	 M421.1,239.6h7v7h-7V239.6z M421.1,246.8h7v7h-7V246.8z M421.1,261.4h7v7h-7V261.4z M421.1,268.6h7v7h-7V268.6z M421.1,275.9h7v7
	h-7V275.9z M421.1,283.1h7v7h-7V283.1z M421.1,290.4h7v7h-7V290.4z M421.1,304.9h7v7h-7V304.9z M421.1,319.4h7v7h-7V319.4z
	 M428.4,72.6h7v7h-7V72.6z M428.4,79.9h7v7h-7V79.9z M428.4,87.1h7v7h-7V87.1z M428.4,94.4h7v7h-7V94.4z M428.4,101.6h7v7h-7V101.6z
	 M428.4,108.9h7v7h-7V108.9z M428.4,116.1h7v7h-7V116.1z M428.4,123.4h7v7h-7V123.4z M428.4,239.6h7v7h-7V239.6z M428.4,246.8h7v7
	h-7V246.8z M428.4,268.6h7v7h-7V268.6z M428.4,275.9h7v7h-7V275.9z M428.4,283.1h7v7h-7V283.1z M428.4,290.4h7v7h-7V290.4z
	 M428.4,297.6h7v7h-7V297.6z M428.4,312.2h7v7h-7V312.2z M428.4,326.7h7v7h-7V326.7z M435.6,50.8h7v7h-7V50.8z M435.6,58.1h7v7h-7
	V58.1z M435.6,65.3h7v7h-7V65.3z M435.6,72.6h7v7h-7V72.6z M435.6,123.4h7v7h-7V123.4z M435.6,130.7h7v7h-7V130.7z M435.6,232.3h7v7
	h-7V232.3z M435.6,239.6h7v7h-7V239.6z M435.6,246.8h7v7h-7V246.8z M435.6,254.1h7v7h-7V254.1z M435.6,261.4h7v7h-7V261.4z
	 M435.6,275.9h7v7h-7V275.9z M435.6,283.1h7v7h-7V283.1z M435.6,290.4h7v7h-7V290.4z M435.6,297.6h7v7h-7V297.6z M435.6,304.9h7v7
	h-7V304.9z M435.6,319.4h7v7h-7V319.4z M435.6,334h7v7h-7V334z M442.9,58.1h7v7h-7V58.1z M442.9,72.6h7v7h-7V72.6z M442.9,79.9h7v7
	h-7V79.9z M442.9,87.1h7v7h-7V87.1z M442.9,94.4h7v7h-7V94.4z M442.9,101.6h7v7h-7V101.6z M442.9,108.9h7v7h-7V108.9z M442.9,116.1
	h7v7h-7V116.1z M442.9,130.7h7v7h-7V130.7z M442.9,137.9h7v7h-7V137.9z M442.9,225h7v7h-7V225z M442.9,246.8h7v7h-7V246.8z
	 M442.9,254.1h7v7h-7V254.1z M442.9,261.4h7v7h-7V261.4z M442.9,268.6h7v7h-7V268.6z M442.9,283.1h7v7h-7V283.1z M442.9,290.4h7v7
	h-7V290.4z M442.9,297.6h7v7h-7V297.6z M442.9,304.9h7v7h-7V304.9z M442.9,312.2h7v7h-7V312.2z M442.9,326.7h7v7h-7V326.7z
	 M442.9,341.2h7v7h-7V341.2z M450.2,341.2h7v7h-7V341.2z M450.1,65.3h7v7h-7V65.3z M450.1,79.9h7v7h-7V79.9z M450.1,87.1h7v7h-7
	V87.1z M450.1,94.4h7v7h-7V94.4z M450.1,101.6h7v7h-7V101.6z M450.1,108.9h7v7h-7V108.9z M450.1,116.1h7v7h-7V116.1z M450.1,123.4h7
	v7h-7V123.4z M450.1,137.9h7v7h-7V137.9z M450.1,145.2h7v7h-7V145.2z M450.1,217.8h7v7h-7V217.8z M450.1,225h7v7h-7V225z
	 M450.1,246.8h7v7h-7V246.8z M450.1,254.1h7v7h-7V254.1z M450.1,261.4h7v7h-7V261.4z M450.1,275.9h7v7h-7V275.9z M450.1,290.4h7v7
	h-7V290.4z M450.1,297.6h7v7h-7V297.6z M450.1,304.9h7v7h-7V304.9z M450.1,312.2h7v7h-7V312.2z M450.1,319.4h7v7h-7V319.4z
	 M450.1,334h7v7h-7V334z M457.4,72.6h7v7h-7V72.6z M457.4,79.9h7v7h-7V79.9z M457.4,87.1h7v7h-7V87.1z M457.4,94.4h7v7h-7V94.4z
	 M457.4,101.6h7v7h-7V101.6z M457.4,108.9h7v7h-7V108.9z M457.4,116.1h7v7h-7V116.1z M457.4,123.4h7v7h-7V123.4z M457.4,130.7h7v7
	h-7V130.7z M457.4,152.4h7v7h-7V152.4z M457.4,217.8h7v7h-7V217.8z M457.4,246.8h7v7h-7V246.8z M457.4,254.1h7v7h-7V254.1z
	 M457.4,261.4h7v7h-7V261.4z M457.4,268.6h7v7h-7V268.6z M457.4,283.1h7v7h-7V283.1z M457.4,297.6h7v7h-7V297.6z M457.4,304.9h7v7
	h-7V304.9z M457.4,312.2h7v7h-7V312.2z M457.4,326.7h7v7h-7V326.7z M457.4,341.2h7v7h-7V341.2z M457.4,348.5h7v7h-7V348.5z
	 M464.7,79.9h7v7h-7V79.9z M464.7,87.1h7v7h-7V87.1z M464.7,94.4h7v7h-7V94.4z M464.7,101.6h7v7h-7V101.6z M464.7,108.9h7v7h-7
	V108.9z M464.7,116.1h7v7h-7V116.1z M464.7,123.4h7v7h-7V123.4z M464.7,130.7h7v7h-7V130.7z M464.7,137.9h7v7h-7V137.9z
	 M464.7,152.4h7v7h-7V152.4z M464.7,159.7h7v7h-7V159.7z M464.7,210.5h7v7h-7V210.5z M464.7,217.8h7v7h-7V217.8z M464.7,246.8h7v7
	h-7V246.8z M464.7,254.1h7v7h-7V254.1z M464.7,261.4h7v7h-7V261.4z M464.7,275.9h7v7h-7V275.9z M464.7,290.4h7v7h-7V290.4z
	 M464.7,297.6h7v7h-7V297.6z M464.7,304.9h7v7h-7V304.9z M464.7,312.2h7v7h-7V312.2z M464.7,319.4h7v7h-7V319.4z M464.7,334h7v7h-7
	V334z M464.7,348.5h7v7h-7V348.5z M472,348.5h7v7h-7V348.5z M471.9,87.1h7v7h-7V87.1z M471.9,94.4h7v7h-7V94.4z M471.9,101.6h7v7h-7
	V101.6z M471.9,108.9h7v7h-7V108.9z M471.9,116.1h7v7h-7V116.1z M471.9,123.4h7v7h-7V123.4z M471.9,130.7h7v7h-7V130.7z
	 M471.9,137.9h7v7h-7V137.9z M471.9,145.2h7v7h-7V145.2z M471.9,152.4h7v7h-7V152.4z M471.9,159.7h7v7h-7V159.7z M471.9,203.3h7v7
	h-7V203.3z M471.9,210.5h7v7h-7V210.5z M471.9,246.8h7v7h-7V246.8z M471.9,254.1h7v7h-7V254.1z M471.9,261.4h7v7h-7V261.4z
	 M471.9,283.1h7v7h-7V283.1z M471.9,297.6h7v7h-7V297.6z M471.9,304.9h7v7h-7V304.9z M471.9,312.2h7v7h-7V312.2z M471.9,319.4h7v7
	h-7V319.4z M471.9,326.7h7v7h-7V326.7z M471.9,341.2h7v7h-7V341.2z M479.2,94.4h7v7h-7V94.4z M479.2,101.6h7v7h-7V101.6z
	 M479.2,108.9h7v7h-7V108.9z M479.2,116.1h7v7h-7V116.1z M479.2,123.4h7v7h-7V123.4z M479.2,130.7h7v7h-7V130.7z M479.2,137.9h7v7
	h-7V137.9z M479.2,145.2h7v7h-7V145.2z M479.2,159.7h7v7h-7V159.7z M479.2,196h7v7h-7V196z M479.2,203.3h7v7h-7V203.3z M479.2,254.1
	h7v7h-7V254.1z M479.2,290.4h7v7h-7V290.4z M479.2,304.9h7v7h-7V304.9z M479.2,312.2h7v7h-7V312.2z M479.2,319.4h7v7h-7V319.4z
	 M479.2,348.5h7v7h-7V348.5z M479.2,355.7h7v7h-7V355.7z M486.4,101.6h7v7h-7V101.6z M486.4,108.9h7v7h-7V108.9z M486.4,116.1h7v7
	h-7V116.1z M486.4,123.4h7v7h-7V123.4z M486.4,130.7h7v7h-7V130.7z M486.4,137.9h7v7h-7V137.9z M486.4,145.2h7v7h-7V145.2z
	 M486.4,152.4h7v7h-7V152.4z M486.4,159.7h7v7h-7V159.7z M486.4,167h7v7h-7V167z M486.4,174.2h7v7h-7V174.2z M486.4,188.8h7v7h-7
	V188.8z M486.4,196h7v7h-7V196z M486.4,297.6h7v7h-7V297.6z M486.4,304.9h7v7h-7V304.9z M486.4,312.2h7v7h-7V312.2z M486.4,319.4h7
	v7h-7V319.4z M486.4,341.2h7v7h-7V341.2z M486.4,355.7h7v7h-7V355.7z M421.1,500.9h7v7h-7V500.9z M421.1,508.2h7v7h-7V508.2z
	 M421.1,515.4h7v7h-7V515.4z M421.1,522.7h7v7h-7V522.7z M428.4,515.4h7v7h-7V515.4z M428.4,522.7h7v7h-7V522.7z M435.6,522.7h7v7
	h-7V522.7z M421.1,530h7v7h-7V530z M421.1,537.2h7v7h-7V537.2z M421.1,544.5h7v7h-7V544.5z M421.1,551.8h7v7h-7V551.8z M421.1,559h7
	v7h-7V559z M421.1,566.3h7v7h-7V566.3z M421.1,573.5h7v7h-7V573.5z M421.1,580.8h7v7h-7V580.8z M428.4,530h7v7h-7V530z M428.4,537.2
	h7v7h-7V537.2z M428.4,544.5h7v7h-7V544.5z M428.4,551.8h7v7h-7V551.8z M428.4,559h7v7h-7V559z M428.4,566.3h7v7h-7V566.3z
	 M428.4,573.5h7v7h-7V573.5z M428.4,580.8h7v7h-7V580.8z M435.6,530h7v7h-7V530z M435.6,537.2h7v7h-7V537.2z M435.6,544.5h7v7h-7
	V544.5z M435.6,551.8h7v7h-7V551.8z M435.6,559h7v7h-7V559z M435.6,566.3h7v7h-7V566.3z M435.6,573.5h7v7h-7V573.5z M435.6,580.8h7
	v7h-7V580.8z M442.9,530h7v7h-7V530z M442.9,537.2h7v7h-7V537.2z M442.9,544.5h7v7h-7V544.5z M442.9,551.8h7v7h-7V551.8z M442.9,559
	h7v7h-7V559z M442.9,566.3h7v7h-7V566.3z M442.9,573.5h7v7h-7V573.5z M442.9,580.8h7v7h-7V580.8z M450.1,537.2h7v7h-7V537.2z
	 M450.1,544.5h7v7h-7V544.5z M450.1,551.8h7v7h-7V551.8z M450.1,559h7v7h-7V559z M450.1,566.3h7v7h-7V566.3z M450.1,573.5h7v7h-7
	V573.5z M450.1,580.8h7v7h-7V580.8z M457.4,544.5h7v7h-7V544.5z M457.4,551.8h7v7h-7V551.8z M457.4,559h7v7h-7V559z M457.4,566.3h7
	v7h-7V566.3z M457.4,573.5h7v7h-7V573.5z M457.4,580.8h7v7h-7V580.8z M464.7,544.5h7v7h-7V544.5z M464.7,551.8h7v7h-7V551.8z
	 M464.7,559h7v7h-7V559z M464.7,566.3h7v7h-7V566.3z M464.7,573.5h7v7h-7V573.5z M464.7,580.8h7v7h-7V580.8z M471.9,551.8h7v7h-7
	V551.8z M471.9,559h7v7h-7V559z M471.9,566.3h7v7h-7V566.3z M471.9,573.5h7v7h-7V573.5z M471.9,580.8h7v7h-7V580.8z M479.2,559h7v7
	h-7V559z M479.2,566.3h7v7h-7V566.3z M479.2,573.5h7v7h-7V573.5z M479.2,580.8h7v7h-7V580.8z M486.4,566.3h7v7h-7V566.3z
	 M486.4,573.5h7v7h-7V573.5z M486.4,580.8h7v7h-7V580.8z M493.7,101.6h7v7h-7V101.6z M493.7,108.9h7v7h-7V108.9z M493.7,116.1h7v7
	h-7V116.1z M493.7,123.4h7v7h-7V123.4z M493.7,130.7h7v7h-7V130.7z M493.7,137.9h7v7h-7V137.9z M493.7,145.2h7v7h-7V145.2z
	 M493.7,152.4h7v7h-7V152.4z M493.7,167h7v7h-7V167z M493.7,174.2h7v7h-7V174.2z M493.7,181.5h7v7h-7V181.5z M493.7,188.8h7v7h-7
	V188.8z M493.7,304.9h7v7h-7V304.9z M493.7,312.2h7v7h-7V312.2z M493.7,334h7v7h-7V334z M493.7,348.5h7v7h-7V348.5z M493.7,355.7h7
	v7h-7V355.7z M501,123.4h7v7h-7V123.4z M501,130.7h7v7h-7V130.7z M501,137.9h7v7h-7V137.9z M501,145.2h7v7h-7V145.2z M501,152.4h7v7
	h-7V152.4z M501,159.7h7v7h-7V159.7z M501,181.5h7v7h-7V181.5z M501,188.8h7v7h-7V188.8z M501,304.9h7v7h-7V304.9z M501,312.2h7v7
	h-7V312.2z M501,341.2h7v7h-7V341.2z M501,348.5h7v7h-7V348.5z M501,355.7h7v7h-7V355.7z M508.2,116.1h7v7h-7V116.1z M508.2,123.4h7
	v7h-7V123.4z M508.2,174.2h7v7h-7V174.2z M508.2,181.5h7v7h-7V181.5z M508.2,304.9h7v7h-7V304.9z M508.2,312.2h7v7h-7V312.2z
	 M508.2,334h7v7h-7V334z M508.2,348.5h7v7h-7V348.5z M508.2,355.7h7v7h-7V355.7z M508.2,363h7v7h-7V363z M515.5,123.4h7v7h-7V123.4z
	 M515.5,167h7v7h-7V167z M515.5,174.2h7v7h-7V174.2z M515.5,246.8h7v7h-7V246.8z M515.5,254.1h7v7h-7V254.1z M515.5,304.9h7v7h-7
	V304.9z M515.5,326.7h7v7h-7V326.7z M515.5,341.2h7v7h-7V341.2z M515.5,348.5h7v7h-7V348.5z M515.5,355.7h7v7h-7V355.7z M515.5,363
	h7v7h-7V363z M515.5,370.2h7v7h-7V370.2z M515.5,377.5h7v7h-7V377.5z M522.7,123.4h7v7h-7V123.4z M522.7,145.2h7v7h-7V145.2z
	 M522.7,152.4h7v7h-7V152.4z M522.7,159.7h7v7h-7V159.7z M522.7,225h7v7h-7V225z M522.7,232.3h7v7h-7V232.3z M522.7,239.6h7v7h-7
	V239.6z M522.7,246.8h7v7h-7V246.8z M522.7,254.1h7v7h-7V254.1z M522.7,261.4h7v7h-7V261.4z M522.7,268.6h7v7h-7V268.6z M522.7,334
	h7v7h-7V334z M522.7,341.2h7v7h-7V341.2z M522.7,348.5h7v7h-7V348.5z M522.7,355.7h7v7h-7V355.7z M522.7,363h7v7h-7V363z
	 M522.7,370.2h7v7h-7V370.2z M522.7,377.5h7v7h-7V377.5z M530,116.1h7v7h-7V116.1z M530,123.4h7v7h-7V123.4z M530,130.7h7v7h-7
	V130.7z M530,137.9h7v7h-7V137.9z M530,145.2h7v7h-7V145.2z M530,225h7v7h-7V225z M530,232.3h7v7h-7V232.3z M530,239.6h7v7h-7V239.6
	z M530,246.8h7v7h-7V246.8z M530,254.1h7v7h-7V254.1z M530,261.4h7v7h-7V261.4z M530,268.6h7v7h-7V268.6z M530,326.7h7v7h-7V326.7z
	 M530,334h7v7h-7V334z M530,341.2h7v7h-7V341.2z M530,348.5h7v7h-7V348.5z M530,355.7h7v7h-7V355.7z M530,363h7v7h-7V363z
	 M530,370.2h7v7h-7V370.2z M530,377.5h7v7h-7V377.5z M537.3,108.9h7v7h-7V108.9z M537.3,116.1h7v7h-7V116.1z M537.3,123.4h7v7h-7
	V123.4z M537.3,196h7v7h-7V196z M537.3,217.8h7v7h-7V217.8z M537.3,225h7v7h-7V225z M537.3,232.3h7v7h-7V232.3z M537.3,239.6h7v7h-7
	V239.6z M537.3,246.8h7v7h-7V246.8z M537.3,254.1h7v7h-7V254.1z M537.3,261.4h7v7h-7V261.4z M537.3,319.4h7v7h-7V319.4z
	 M537.3,326.7h7v7h-7V326.7z M537.3,334h7v7h-7V334z M537.3,341.2h7v7h-7V341.2z M537.3,348.5h7v7h-7V348.5z M537.3,355.7h7v7h-7
	V355.7z M537.3,363h7v7h-7V363z M537.3,370.2h7v7h-7V370.2z M537.3,377.5h7v7h-7V377.5z M544.5,108.9h7v7h-7V108.9z M544.5,116.1h7
	v7h-7V116.1z M544.5,196h7v7h-7V196z M544.5,217.8h7v7h-7V217.8z M544.5,225h7v7h-7V225z M544.5,232.3h7v7h-7V232.3z M544.5,239.6h7
	v7h-7V239.6z M544.5,246.8h7v7h-7V246.8z M544.5,254.1h7v7h-7V254.1z M544.5,261.4h7v7h-7V261.4z M544.5,268.6h7v7h-7V268.6z
	 M544.5,319.4h7v7h-7V319.4z M544.5,326.7h7v7h-7V326.7z M544.5,334h7v7h-7V334z M544.5,341.2h7v7h-7V341.2z M544.5,348.5h7v7h-7
	V348.5z M544.5,355.7h7v7h-7V355.7z M544.5,363h7v7h-7V363z M544.5,370.2h7v7h-7V370.2z M544.5,377.5h7v7h-7V377.5z M551.8,101.6h7
	v7h-7V101.6z M551.8,108.9h7v7h-7V108.9z M551.8,196h7v7h-7V196z M551.8,203.3h7v7h-7V203.3z M551.8,210.5h7v7h-7V210.5z
	 M551.8,217.8h7v7h-7V217.8z M551.8,225h7v7h-7V225z M551.8,232.3h7v7h-7V232.3z M551.8,239.6h7v7h-7V239.6z M551.8,246.8h7v7h-7
	V246.8z M551.8,254.1h7v7h-7V254.1z M551.8,304.9h7v7h-7V304.9z M551.8,312.2h7v7h-7V312.2z M551.8,319.4h7v7h-7V319.4z
	 M551.8,326.7h7v7h-7V326.7z M551.8,334h7v7h-7V334z M551.8,341.2h7v7h-7V341.2z M551.8,348.5h7v7h-7V348.5z M551.8,355.7h7v7h-7
	V355.7z M551.8,363h7v7h-7V363z M551.8,370.2h7v7h-7V370.2z M551.8,377.5h7v7h-7V377.5z M559,94.4h7v7h-7V94.4z M559,101.6h7v7h-7
	V101.6z M559,196h7v7h-7V196z M559,203.3h7v7h-7V203.3z M559,210.5h7v7h-7V210.5z M559,217.8h7v7h-7V217.8z M559,225h7v7h-7V225z
	 M559,232.3h7v7h-7V232.3z M559,239.6h7v7h-7V239.6z M559,246.8h7v7h-7V246.8z M559,290.4h7v7h-7V290.4z M559,297.6h7v7h-7V297.6z
	 M559,304.9h7v7h-7V304.9z M559,312.2h7v7h-7V312.2z M559,319.4h7v7h-7V319.4z M559,326.7h7v7h-7V326.7z M559,334h7v7h-7V334z
	 M559,341.2h7v7h-7V341.2z M559,348.5h7v7h-7V348.5z M559,355.7h7v7h-7V355.7z M559,363h7v7h-7V363z M559,370.2h7v7h-7V370.2z
	 M559,377.5h7v7h-7V377.5z M508.2,435.6h7v7h-7V435.6z M515.5,428.3h7v7h-7V428.3z M522.7,384.8h7v7h-7V384.8z M522.7,392h7v7h-7
	V392z M522.7,399.3h7v7h-7V399.3z M522.7,406.6h7v7h-7V406.6z M522.7,413.8h7v7h-7V413.8z M522.7,421.1h7v7h-7V421.1z M530,384.8h7
	v7h-7V384.8z M530,392h7v7h-7V392z M530,399.3h7v7h-7V399.3z M530,406.6h7v7h-7V406.6z M530,413.8h7v7h-7V413.8z M530,421.1h7v7h-7
	V421.1z M530,428.3h7v7h-7V428.3z M530,435.6h7v7h-7V435.6z M530,450.1h7v7h-7V450.1z M537.3,384.8h7v7h-7V384.8z M537.3,392h7v7h-7
	V392z M537.3,399.3h7v7h-7V399.3z M537.3,406.6h7v7h-7V406.6z M537.3,413.8h7v7h-7V413.8z M537.3,421.1h7v7h-7V421.1z M537.3,428.3
	h7v7h-7V428.3z M537.3,442.8h7v7h-7V442.8z M544.5,384.8h7v7h-7V384.8z M544.5,392h7v7h-7V392z M544.5,399.3h7v7h-7V399.3z
	 M544.5,406.6h7v7h-7V406.6z M544.5,413.8h7v7h-7V413.8z M544.5,421.1h7v7h-7V421.1z M544.5,428.3h7v7h-7V428.3z M544.5,435.6h7v7
	h-7V435.6z M551.8,384.8h7v7h-7V384.8z M551.8,392h7v7h-7V392z M551.8,399.3h7v7h-7V399.3z M551.8,406.6h7v7h-7V406.6z M551.8,413.8
	h7v7h-7V413.8z M551.8,421.1h7v7h-7V421.1z M551.8,428.3h7v7h-7V428.3z M559,384.8h7v7h-7V384.8z M559,406.6h7v7h-7V406.6z
	 M522.7,457.4h7v7h-7V457.4z M493.7,573.5h7v7h-7V573.5z M493.7,580.8h7v7h-7V580.8z M501,580.8h7v7h-7V580.8z M566.3,72.6h7v7h-7
	V72.6z M566.3,79.9h7v7h-7V79.9z M566.3,87.1h7v7h-7V87.1z M566.3,94.4h7v7h-7V94.4z M566.3,101.6h7v7h-7V101.6z M566.3,174.2h7v7
	h-7V174.2z M566.3,181.5h7v7h-7V181.5z M566.3,188.8h7v7h-7V188.8z M566.3,196h7v7h-7V196z M566.3,203.3h7v7h-7V203.3z M566.3,210.5
	h7v7h-7V210.5z M566.3,217.8h7v7h-7V217.8z M566.3,225h7v7h-7V225z M566.3,232.3h7v7h-7V232.3z M566.3,283.1h7v7h-7V283.1z
	 M566.3,290.4h7v7h-7V290.4z M566.3,297.6h7v7h-7V297.6z M566.3,304.9h7v7h-7V304.9z M566.3,312.2h7v7h-7V312.2z M566.3,319.4h7v7
	h-7V319.4z M566.3,326.7h7v7h-7V326.7z M566.3,334h7v7h-7V334z M566.3,341.2h7v7h-7V341.2z M566.3,348.5h7v7h-7V348.5z M566.3,355.7
	h7v7h-7V355.7z M566.3,363h7v7h-7V363z M566.3,370.2h7v7h-7V370.2z M566.3,377.5h7v7h-7V377.5z M573.6,58.1h7v7h-7V58.1z
	 M573.6,65.3h7v7h-7V65.3z M573.6,72.6h7v7h-7V72.6z M573.6,87.1h7v7h-7V87.1z M573.6,94.4h7v7h-7V94.4z M573.6,167h7v7h-7V167z
	 M573.6,174.2h7v7h-7V174.2z M573.6,181.5h7v7h-7V181.5z M573.6,188.8h7v7h-7V188.8z M573.6,196h7v7h-7V196z M573.6,203.3h7v7h-7
	V203.3z M573.6,210.5h7v7h-7V210.5z M573.6,217.8h7v7h-7V217.8z M573.6,225h7v7h-7V225z M573.6,232.3h7v7h-7V232.3z M573.6,275.9h7
	v7h-7V275.9z M573.6,283.1h7v7h-7V283.1z M573.6,290.4h7v7h-7V290.4z M573.6,297.6h7v7h-7V297.6z M573.6,304.9h7v7h-7V304.9z
	 M573.6,312.2h7v7h-7V312.2z M573.6,319.4h7v7h-7V319.4z M573.6,326.7h7v7h-7V326.7z M573.6,334h7v7h-7V334z M573.6,341.2h7v7h-7
	V341.2z M573.6,348.5h7v7h-7V348.5z M573.6,355.7h7v7h-7V355.7z M573.6,363h7v7h-7V363z M573.6,377.5h7v7h-7V377.5z M580.8,43.6h7v7
	h-7V43.6z M580.8,50.8h7v7h-7V50.8z M580.8,65.3h7v7h-7V65.3z M580.8,79.9h7v7h-7V79.9z M580.8,94.4h7v7h-7V94.4z M580.8,167h7v7h-7
	V167z M580.8,174.2h7v7h-7V174.2z M580.8,181.5h7v7h-7V181.5z M580.8,188.8h7v7h-7V188.8z M580.8,196h7v7h-7V196z M580.8,203.3h7v7
	h-7V203.3z M580.8,210.5h7v7h-7V210.5z M580.8,217.8h7v7h-7V217.8z M580.8,261.4h7v7h-7V261.4z M580.8,268.6h7v7h-7V268.6z
	 M580.8,275.9h7v7h-7V275.9z M580.8,283.1h7v7h-7V283.1z M580.8,290.4h7v7h-7V290.4z M580.8,297.6h7v7h-7V297.6z M580.8,304.9h7v7
	h-7V304.9z M580.8,312.2h7v7h-7V312.2z M580.8,319.4h7v7h-7V319.4z M580.8,326.7h7v7h-7V326.7z M580.8,334h7v7h-7V334z M580.8,341.2
	h7v7h-7V341.2z M580.8,348.5h7v7h-7V348.5z M580.8,363h7v7h-7V363z M588.1,36.3h7v7h-7V36.3z M588.1,43.6h7v7h-7V43.6z M588.1,58.1
	h7v7h-7V58.1z M588.1,72.6h7v7h-7V72.6z M588.1,79.9h7v7h-7V79.9z M588.1,87.1h7v7h-7V87.1z M588.1,94.4h7v7h-7V94.4z M588.1,101.6
	h7v7h-7V101.6z M588.1,108.9h7v7h-7V108.9z M588.1,116.1h7v7h-7V116.1z M588.1,159.7h7v7h-7V159.7z M588.1,167h7v7h-7V167z
	 M588.1,174.2h7v7h-7V174.2z M588.1,181.5h7v7h-7V181.5z M588.1,188.8h7v7h-7V188.8z M588.1,196h7v7h-7V196z M588.1,246.8h7v7h-7
	V246.8z M588.1,254.1h7v7h-7V254.1z M588.1,261.4h7v7h-7V261.4z M588.1,268.6h7v7h-7V268.6z M588.1,275.9h7v7h-7V275.9z
	 M588.1,283.1h7v7h-7V283.1z M588.1,290.4h7v7h-7V290.4z M588.1,297.6h7v7h-7V297.6z M588.1,304.9h7v7h-7V304.9z M588.1,312.2h7v7
	h-7V312.2z M588.1,319.4h7v7h-7V319.4z M588.1,326.7h7v7h-7V326.7z M588.1,334h7v7h-7V334z M588.1,341.2h7v7h-7V341.2z M588.1,348.5
	h7v7h-7V348.5z M588.1,355.7h7v7h-7V355.7z M588.1,363h7v7h-7V363z M595.3,29h7v7h-7V29z M595.3,36.3h7v7h-7V36.3z M595.3,58.1h7v7
	h-7V58.1z M595.3,65.3h7v7h-7V65.3z M595.3,72.6h7v7h-7V72.6z M595.3,79.9h7v7h-7V79.9z M595.3,87.1h7v7h-7V87.1z M595.3,94.4h7v7
	h-7V94.4z M595.3,101.6h7v7h-7V101.6z M595.3,152.4h7v7h-7V152.4z M595.3,159.7h7v7h-7V159.7z M595.3,167h7v7h-7V167z M595.3,174.2
	h7v7h-7V174.2z M595.3,181.5h7v7h-7V181.5z M595.3,225h7v7h-7V225z M595.3,232.3h7v7h-7V232.3z M595.3,239.6h7v7h-7V239.6z
	 M595.3,246.8h7v7h-7V246.8z M595.3,254.1h7v7h-7V254.1z M595.3,261.4h7v7h-7V261.4z M595.3,268.6h7v7h-7V268.6z M595.3,275.9h7v7
	h-7V275.9z M595.3,283.1h7v7h-7V283.1z M595.3,290.4h7v7h-7V290.4z M595.3,297.6h7v7h-7V297.6z M595.3,304.9h7v7h-7V304.9z
	 M595.3,312.2h7v7h-7V312.2z M595.3,319.4h7v7h-7V319.4z M595.3,326.7h7v7h-7V326.7z M595.3,334h7v7h-7V334z M595.3,341.2h7v7h-7
	V341.2z M595.3,348.5h7v7h-7V348.5z M595.3,363h7v7h-7V363z M595.3,370.2h7v7h-7V370.2z M595.3,377.5h7v7h-7V377.5z M602.6,21.8h7v7
	h-7V21.8z M602.6,29h7v7h-7V29z M602.6,43.6h7v7h-7V43.6z M602.6,50.8h7v7h-7V50.8z M602.6,58.1h7v7h-7V58.1z M602.6,65.3h7v7h-7
	V65.3z M602.6,72.6h7v7h-7V72.6z M602.6,79.9h7v7h-7V79.9z M602.6,87.1h7v7h-7V87.1z M602.6,94.4h7v7h-7V94.4z M602.6,101.6h7v7h-7
	V101.6z M602.6,152.4h7v7h-7V152.4z M602.6,159.7h7v7h-7V159.7z M602.6,210.5h7v7h-7V210.5z M602.6,217.8h7v7h-7V217.8z M602.6,225
	h7v7h-7V225z M602.6,232.3h7v7h-7V232.3z M602.6,239.6h7v7h-7V239.6z M602.6,246.8h7v7h-7V246.8z M602.6,254.1h7v7h-7V254.1z
	 M602.6,261.4h7v7h-7V261.4z M602.6,268.6h7v7h-7V268.6z M602.6,275.9h7v7h-7V275.9z M602.6,283.1h7v7h-7V283.1z M602.6,290.4h7v7
	h-7V290.4z M602.6,297.6h7v7h-7V297.6z M602.6,304.9h7v7h-7V304.9z M602.6,312.2h7v7h-7V312.2z M602.6,319.4h7v7h-7V319.4z
	 M602.6,326.7h7v7h-7V326.7z M602.6,334h7v7h-7V334z M602.6,341.2h7v7h-7V341.2z M602.6,348.5h7v7h-7V348.5z M602.6,355.7h7v7h-7
	V355.7z M602.6,363h7v7h-7V363z M602.6,370.2h7v7h-7V370.2z M602.6,377.5h7v7h-7V377.5z M609.9,14.5h7v7h-7V14.5z M609.9,21.8h7v7
	h-7V21.8z M609.9,36.3h7v7h-7V36.3z M609.9,43.6h7v7h-7V43.6z M609.9,50.8h7v7h-7V50.8z M609.9,58.1h7v7h-7V58.1z M609.9,65.3h7v7
	h-7V65.3z M609.9,72.6h7v7h-7V72.6z M609.9,94.4h7v7h-7V94.4z M609.9,101.6h7v7h-7V101.6z M609.9,145.2h7v7h-7V145.2z M609.9,196h7
	v7h-7V196z M609.9,203.3h7v7h-7V203.3z M609.9,210.5h7v7h-7V210.5z M609.9,217.8h7v7h-7V217.8z M609.9,225h7v7h-7V225z M609.9,232.3
	h7v7h-7V232.3z M609.9,239.6h7v7h-7V239.6z M609.9,246.8h7v7h-7V246.8z M609.9,254.1h7v7h-7V254.1z M609.9,261.4h7v7h-7V261.4z
	 M609.9,268.6h7v7h-7V268.6z M609.9,275.9h7v7h-7V275.9z M609.9,283.1h7v7h-7V283.1z M609.9,290.4h7v7h-7V290.4z M609.9,297.6h7v7
	h-7V297.6z M609.9,304.9h7v7h-7V304.9z M609.9,312.2h7v7h-7V312.2z M609.9,319.4h7v7h-7V319.4z M609.9,326.7h7v7h-7V326.7z
	 M609.9,334h7v7h-7V334z M609.9,341.2h7v7h-7V341.2z M609.9,348.5h7v7h-7V348.5z M609.9,363h7v7h-7V363z M609.9,370.2h7v7h-7V370.2z
	 M609.9,377.5h7v7h-7V377.5z M617.1,7.2h7v7h-7V7.2z M617.1,14.5h7v7h-7V14.5z M617.1,29h7v7h-7V29z M617.1,36.3h7v7h-7V36.3z
	 M617.1,43.6h7v7h-7V43.6z M617.1,50.8h7v7h-7V50.8z M617.1,94.4h7v7h-7V94.4z M617.1,101.6h7v7h-7V101.6z M617.1,137.9h7v7h-7
	V137.9z M617.1,145.2h7v7h-7V145.2z M617.1,188.8h7v7h-7V188.8z M617.1,196h7v7h-7V196z M617.1,217.8h7v7h-7V217.8z M617.1,225h7v7
	h-7V225z M617.1,232.3h7v7h-7V232.3z M617.1,239.6h7v7h-7V239.6z M617.1,246.8h7v7h-7V246.8z M617.1,254.1h7v7h-7V254.1z
	 M617.1,261.4h7v7h-7V261.4z M617.1,268.6h7v7h-7V268.6z M617.1,275.9h7v7h-7V275.9z M617.1,283.1h7v7h-7V283.1z M617.1,290.4h7v7
	h-7V290.4z M617.1,297.6h7v7h-7V297.6z M617.1,304.9h7v7h-7V304.9z M617.1,312.2h7v7h-7V312.2z M617.1,319.4h7v7h-7V319.4z
	 M617.1,326.7h7v7h-7V326.7z M617.1,334h7v7h-7V334z M617.1,341.2h7v7h-7V341.2z M617.1,355.7h7v7h-7V355.7z M617.1,363h7v7h-7V363z
	 M617.1,370.2h7v7h-7V370.2z M617.1,377.5h7v7h-7V377.5z M624.4,7.2h7v7h-7V7.2z M624.4,21.8h7v7h-7V21.8z M624.4,29h7v7h-7V29z
	 M624.4,36.3h7v7h-7V36.3z M624.4,43.6h7v7h-7V43.6z M624.4,94.4h7v7h-7V94.4z M624.4,101.6h7v7h-7V101.6z M624.4,137.9h7v7h-7
	V137.9z M624.4,181.5h7v7h-7V181.5z M624.4,188.8h7v7h-7V188.8z M624.4,203.3h7v7h-7V203.3z M624.4,210.5h7v7h-7V210.5z M624.4,225
	h7v7h-7V225z M624.4,232.3h7v7h-7V232.3z M624.4,239.6h7v7h-7V239.6z M624.4,246.8h7v7h-7V246.8z M624.4,254.1h7v7h-7V254.1z
	 M624.4,261.4h7v7h-7V261.4z M624.4,268.6h7v7h-7V268.6z M624.4,275.9h7v7h-7V275.9z M624.4,283.1h7v7h-7V283.1z M624.4,290.4h7v7
	h-7V290.4z M624.4,297.6h7v7h-7V297.6z M624.4,304.9h7v7h-7V304.9z M624.4,312.2h7v7h-7V312.2z M624.4,319.4h7v7h-7V319.4z
	 M624.4,326.7h7v7h-7V326.7z M624.4,334h7v7h-7V334z M624.4,348.5h7v7h-7V348.5z M624.4,355.7h7v7h-7V355.7z M624.4,363h7v7h-7V363z
	 M624.4,370.2h7v7h-7V370.2z M624.4,377.5h7v7h-7V377.5z M631.6,0h7v7h-7V0z M631.6,7.2h7v7h-7V7.2z M631.6,14.5h7v7h-7V14.5z
	 M631.6,21.8h7v7h-7V21.8z M631.6,29h7v7h-7V29z M631.6,36.3h7v7h-7V36.3z M631.6,87.1h7v7h-7V87.1z M631.6,94.4h7v7h-7V94.4z
	 M631.6,101.6h7v7h-7V101.6z M631.6,130.7h7v7h-7V130.7z M631.6,137.9h7v7h-7V137.9z M631.6,188.8h7v7h-7V188.8z M631.6,203.3h7v7
	h-7V203.3z M631.6,210.5h7v7h-7V210.5z M631.6,225h7v7h-7V225z M631.6,232.3h7v7h-7V232.3z M631.6,239.6h7v7h-7V239.6z M631.6,246.8
	h7v7h-7V246.8z M631.6,254.1h7v7h-7V254.1z M631.6,261.4h7v7h-7V261.4z M631.6,268.6h7v7h-7V268.6z M631.6,275.9h7v7h-7V275.9z
	 M631.6,283.1h7v7h-7V283.1z M631.6,290.4h7v7h-7V290.4z M631.6,297.6h7v7h-7V297.6z M631.6,304.9h7v7h-7V304.9z M631.6,312.2h7v7
	h-7V312.2z M631.6,319.4h7v7h-7V319.4z M631.6,326.7h7v7h-7V326.7z M631.6,334h7v7h-7V334z M631.6,341.2h7v7h-7V341.2z M631.6,355.7
	h7v7h-7V355.7z M631.6,363h7v7h-7V363z M631.6,370.2h7v7h-7V370.2z M631.6,377.5h7v7h-7V377.5z M566.3,384.8h7v7h-7V384.8z
	 M566.3,392h7v7h-7V392z M566.3,399.3h7v7h-7V399.3z M566.3,406.6h7v7h-7V406.6z M566.3,413.8h7v7h-7V413.8z M566.3,421.1h7v7h-7
	V421.1z M573.6,384.8h7v7h-7V384.8z M573.6,392h7v7h-7V392z M573.6,399.3h7v7h-7V399.3z M573.6,406.6h7v7h-7V406.6z M602.6,384.8h7
	v7h-7V384.8z M609.9,384.8h7v7h-7V384.8z M609.9,392h7v7h-7V392z M609.9,399.3h7v7h-7V399.3z M609.9,406.6h7v7h-7V406.6z
	 M617.1,384.8h7v7h-7V384.8z M617.1,392h7v7h-7V392z M617.1,399.3h7v7h-7V399.3z M617.1,406.6h7v7h-7V406.6z M617.1,413.8h7v7h-7
	V413.8z M617.1,421.1h7v7h-7V421.1z M624.4,384.8h7v7h-7V384.8z M624.4,392h7v7h-7V392z M624.4,399.3h7v7h-7V399.3z M624.4,406.6h7
	v7h-7V406.6z M624.4,413.8h7v7h-7V413.8z M624.4,421.1h7v7h-7V421.1z M624.4,428.3h7v7h-7V428.3z M631.6,384.8h7v7h-7V384.8z
	 M631.6,392h7v7h-7V392z M631.6,399.3h7v7h-7V399.3z M631.6,406.6h7v7h-7V406.6z M631.6,413.8h7v7h-7V413.8z M631.6,421.1h7v7h-7
	V421.1z M631.6,428.3h7v7h-7V428.3z M631.6,435.6h7v7h-7V435.6z M631.6,442.8h7v7h-7V442.8z M631.6,450.1h7v7h-7V450.1z M638.9,0h7
	v7h-7V0z M638.9,14.5h7v7h-7V14.5z M638.9,21.8h7v7h-7V21.8z M638.9,29h7v7h-7V29z M638.9,72.6h7v7h-7V72.6z M638.9,79.9h7v7h-7
	V79.9z M638.9,87.1h7v7h-7V87.1z M638.9,94.4h7v7h-7V94.4z M638.9,101.6h7v7h-7V101.6z M638.9,123.4h7v7h-7V123.4z M638.9,130.7h7v7
	h-7V130.7z M638.9,137.9h7v7h-7V137.9z M638.9,188.8h7v7h-7V188.8z M638.9,203.3h7v7h-7V203.3z M638.9,210.5h7v7h-7V210.5z
	 M638.9,225h7v7h-7V225z M638.9,232.3h7v7h-7V232.3z M638.9,239.6h7v7h-7V239.6z M638.9,246.8h7v7h-7V246.8z M638.9,254.1h7v7h-7
	V254.1z M638.9,261.4h7v7h-7V261.4z M638.9,268.6h7v7h-7V268.6z M638.9,275.9h7v7h-7V275.9z M638.9,283.1h7v7h-7V283.1z
	 M638.9,290.4h7v7h-7V290.4z M638.9,297.6h7v7h-7V297.6z M638.9,304.9h7v7h-7V304.9z M638.9,312.2h7v7h-7V312.2z M638.9,319.4h7v7
	h-7V319.4z M638.9,326.7h7v7h-7V326.7z M638.9,334h7v7h-7V334z M638.9,348.5h7v7h-7V348.5z M638.9,355.7h7v7h-7V355.7z M638.9,363h7
	v7h-7V363z M638.9,370.2h7v7h-7V370.2z M638.9,377.5h7v7h-7V377.5z M646.2,0h7v7h-7V0z M646.2,7.2h7v7h-7V7.2z M646.2,14.5h7v7h-7
	V14.5z M646.2,21.8h7v7h-7V21.8z M646.2,72.6h7v7h-7V72.6z M646.2,87.1h7v7h-7V87.1z M646.2,101.6h7v7h-7V101.6z M646.2,108.9h7v7
	h-7V108.9z M646.2,123.4h7v7h-7V123.4z M646.2,130.7h7v7h-7V130.7z M646.2,137.9h7v7h-7V137.9z M646.2,145.2h7v7h-7V145.2z
	 M646.2,181.5h7v7h-7V181.5z M646.2,188.8h7v7h-7V188.8z M646.2,196h7v7h-7V196z M646.2,217.8h7v7h-7V217.8z M646.2,225h7v7h-7V225z
	 M646.2,232.3h7v7h-7V232.3z M646.2,239.6h7v7h-7V239.6z M646.2,246.8h7v7h-7V246.8z M646.2,254.1h7v7h-7V254.1z M646.2,261.4h7v7
	h-7V261.4z M646.2,268.6h7v7h-7V268.6z M646.2,275.9h7v7h-7V275.9z M646.2,283.1h7v7h-7V283.1z M646.2,290.4h7v7h-7V290.4z
	 M646.2,297.6h7v7h-7V297.6z M646.2,304.9h7v7h-7V304.9z M646.2,312.2h7v7h-7V312.2z M646.2,319.4h7v7h-7V319.4z M646.2,326.7h7v7
	h-7V326.7z M646.2,341.2h7v7h-7V341.2z M646.2,348.5h7v7h-7V348.5z M646.2,355.7h7v7h-7V355.7z M646.2,363h7v7h-7V363z M646.2,370.2
	h7v7h-7V370.2z M646.2,377.5h7v7h-7V377.5z M653.4,0h7v7h-7V0z M653.4,7.2h7v7h-7V7.2z M653.4,14.5h7v7h-7V14.5z M653.4,21.8h7v7h-7
	V21.8z M653.4,65.3h7v7h-7V65.3z M653.4,72.6h7v7h-7V72.6z M653.4,94.4h7v7h-7V94.4z M653.4,108.9h7v7h-7V108.9z M653.4,116.1h7v7
	h-7V116.1z M653.4,123.4h7v7h-7V123.4z M653.4,130.7h7v7h-7V130.7z M653.4,137.9h7v7h-7V137.9z M653.4,145.2h7v7h-7V145.2z
	 M653.4,181.5h7v7h-7V181.5z M653.4,188.8h7v7h-7V188.8z M653.4,196h7v7h-7V196z M653.4,203.3h7v7h-7V203.3z M653.4,210.5h7v7h-7
	V210.5z M653.4,217.8h7v7h-7V217.8z M653.4,225h7v7h-7V225z M653.4,232.3h7v7h-7V232.3z M653.4,239.6h7v7h-7V239.6z M653.4,246.8h7
	v7h-7V246.8z M653.4,254.1h7v7h-7V254.1z M653.4,261.4h7v7h-7V261.4z M653.4,268.6h7v7h-7V268.6z M653.4,275.9h7v7h-7V275.9z
	 M653.4,283.1h7v7h-7V283.1z M653.4,290.4h7v7h-7V290.4z M653.4,297.6h7v7h-7V297.6z M653.4,304.9h7v7h-7V304.9z M653.4,312.2h7v7
	h-7V312.2z M653.4,319.4h7v7h-7V319.4z M653.4,334h7v7h-7V334z M653.4,348.5h7v7h-7V348.5z M653.4,355.7h7v7h-7V355.7z M653.4,363h7
	v7h-7V363z M653.4,370.2h7v7h-7V370.2z M653.4,377.5h7v7h-7V377.5z M660.7,0h7v7h-7V0z M660.7,14.5h7v7h-7V14.5z M660.7,58.1h7v7h-7
	V58.1z M660.7,65.3h7v7h-7V65.3z M660.7,79.9h7v7h-7V79.9z M660.7,94.4h7v7h-7V94.4z M660.7,101.6h7v7h-7V101.6z M660.7,108.9h7v7
	h-7V108.9z M660.7,116.1h7v7h-7V116.1z M660.7,123.4h7v7h-7V123.4z M660.7,130.7h7v7h-7V130.7z M660.7,137.9h7v7h-7V137.9z
	 M660.7,145.2h7v7h-7V145.2z M660.7,152.4h7v7h-7V152.4z M660.7,159.7h7v7h-7V159.7z M660.7,167h7v7h-7V167z M660.7,174.2h7v7h-7
	V174.2z M660.7,181.5h7v7h-7V181.5z M660.7,188.8h7v7h-7V188.8z M660.7,196h7v7h-7V196z M660.7,203.3h7v7h-7V203.3z M660.7,210.5h7
	v7h-7V210.5z M660.7,217.8h7v7h-7V217.8z M660.7,225h7v7h-7V225z M660.7,232.3h7v7h-7V232.3z M660.7,239.6h7v7h-7V239.6z
	 M660.7,246.8h7v7h-7V246.8z M660.7,254.1h7v7h-7V254.1z M660.7,261.4h7v7h-7V261.4z M660.7,268.6h7v7h-7V268.6z M660.7,275.9h7v7
	h-7V275.9z M660.7,283.1h7v7h-7V283.1z M660.7,290.4h7v7h-7V290.4z M660.7,297.6h7v7h-7V297.6z M660.7,304.9h7v7h-7V304.9z
	 M660.7,312.2h7v7h-7V312.2z M660.7,326.7h7v7h-7V326.7z M660.7,341.2h7v7h-7V341.2z M660.7,348.5h7v7h-7V348.5z M660.7,355.7h7v7
	h-7V355.7z M660.7,363h7v7h-7V363z M660.7,370.2h7v7h-7V370.2z M660.7,377.5h7v7h-7V377.5z M667.9,0h7v7h-7V0z M667.9,7.2h7v7h-7
	V7.2z M667.9,14.5h7v7h-7V14.5z M667.9,50.8h7v7h-7V50.8z M667.9,58.1h7v7h-7V58.1z M667.9,87.1h7v7h-7V87.1z M667.9,101.6h7v7h-7
	V101.6z M667.9,108.9h7v7h-7V108.9z M667.9,116.1h7v7h-7V116.1z M667.9,123.4h7v7h-7V123.4z M667.9,130.7h7v7h-7V130.7z
	 M667.9,137.9h7v7h-7V137.9z M667.9,145.2h7v7h-7V145.2z M667.9,152.4h7v7h-7V152.4z M667.9,159.7h7v7h-7V159.7z M667.9,167h7v7h-7
	V167z M667.9,174.2h7v7h-7V174.2z M667.9,181.5h7v7h-7V181.5z M667.9,188.8h7v7h-7V188.8z M667.9,196h7v7h-7V196z M667.9,203.3h7v7
	h-7V203.3z M667.9,210.5h7v7h-7V210.5z M667.9,217.8h7v7h-7V217.8z M667.9,225h7v7h-7V225z M667.9,232.3h7v7h-7V232.3z M667.9,239.6
	h7v7h-7V239.6z M667.9,246.8h7v7h-7V246.8z M667.9,254.1h7v7h-7V254.1z M667.9,261.4h7v7h-7V261.4z M667.9,268.6h7v7h-7V268.6z
	 M667.9,275.9h7v7h-7V275.9z M667.9,283.1h7v7h-7V283.1z M667.9,290.4h7v7h-7V290.4z M667.9,304.9h7v7h-7V304.9z M667.9,319.4h7v7
	h-7V319.4z M667.9,334h7v7h-7V334z M667.9,341.2h7v7h-7V341.2z M667.9,348.5h7v7h-7V348.5z M667.9,355.7h7v7h-7V355.7z M667.9,363h7
	v7h-7V363z M667.9,377.5h7v7h-7V377.5z M675.2,0h7v7h-7V0z M675.2,7.2h7v7h-7V7.2z M675.2,14.5h7v7h-7V14.5z M675.2,50.8h7v7h-7
	V50.8z M675.2,65.3h7v7h-7V65.3z M675.2,79.9h7v7h-7V79.9z M675.2,87.1h7v7h-7V87.1z M675.2,94.4h7v7h-7V94.4z M675.2,101.6h7v7h-7
	V101.6z M675.2,108.9h7v7h-7V108.9z M675.2,116.1h7v7h-7V116.1z M675.2,123.4h7v7h-7V123.4z M675.2,130.7h7v7h-7V130.7z
	 M675.2,137.9h7v7h-7V137.9z M675.2,145.2h7v7h-7V145.2z M675.2,152.4h7v7h-7V152.4z M675.2,159.7h7v7h-7V159.7z M675.2,167h7v7h-7
	V167z M675.2,174.2h7v7h-7V174.2z M675.2,181.5h7v7h-7V181.5z M675.2,188.8h7v7h-7V188.8z M675.2,196h7v7h-7V196z M675.2,203.3h7v7
	h-7V203.3z M675.2,210.5h7v7h-7V210.5z M675.2,217.8h7v7h-7V217.8z M675.2,225h7v7h-7V225z M675.2,232.3h7v7h-7V232.3z M675.2,239.6
	h7v7h-7V239.6z M675.2,246.8h7v7h-7V246.8z M675.2,254.1h7v7h-7V254.1z M675.2,261.4h7v7h-7V261.4z M675.2,268.6h7v7h-7V268.6z
	 M675.2,275.9h7v7h-7V275.9z M675.2,283.1h7v7h-7V283.1z M675.2,290.4h7v7h-7V290.4z M675.2,297.6h7v7h-7V297.6z M675.2,312.2h7v7
	h-7V312.2z M675.2,326.7h7v7h-7V326.7z M675.2,334h7v7h-7V334z M675.2,341.2h7v7h-7V341.2z M675.2,348.5h7v7h-7V348.5z M675.2,355.7
	h7v7h-7V355.7z M675.2,370.2h7v7h-7V370.2z M682.5,7.2h7v7h-7V7.2z M682.5,43.6h7v7h-7V43.6z M682.5,50.8h7v7h-7V50.8z M682.5,72.6
	h7v7h-7V72.6z M682.5,87.1h7v7h-7V87.1z M682.5,94.4h7v7h-7V94.4z M682.5,101.6h7v7h-7V101.6z M682.5,108.9h7v7h-7V108.9z
	 M682.5,116.1h7v7h-7V116.1z M682.5,123.4h7v7h-7V123.4z M682.5,137.9h7v7h-7V137.9z M682.5,145.2h7v7h-7V145.2z M682.5,152.4h7v7
	h-7V152.4z M682.5,159.7h7v7h-7V159.7z M682.5,167h7v7h-7V167z M682.5,174.2h7v7h-7V174.2z M682.5,181.5h7v7h-7V181.5z M682.5,188.8
	h7v7h-7V188.8z M682.5,196h7v7h-7V196z M682.5,203.3h7v7h-7V203.3z M682.5,210.5h7v7h-7V210.5z M682.5,217.8h7v7h-7V217.8z
	 M682.5,232.3h7v7h-7V232.3z M682.5,246.8h7v7h-7V246.8z M682.5,254.1h7v7h-7V254.1z M682.5,261.4h7v7h-7V261.4z M682.5,268.6h7v7
	h-7V268.6z M682.5,275.9h7v7h-7V275.9z M682.5,290.4h7v7h-7V290.4z M682.5,304.9h7v7h-7V304.9z M682.5,312.2h7v7h-7V312.2z
	 M682.5,319.4h7v7h-7V319.4z M682.5,326.7h7v7h-7V326.7z M682.5,334h7v7h-7V334z M682.5,348.5h7v7h-7V348.5z M682.5,363h7v7h-7V363z
	 M682.5,377.5h7v7h-7V377.5z M689.7,43.6h7v7h-7V43.6z M689.7,65.3h7v7h-7V65.3z M689.7,79.9h7v7h-7V79.9z M689.7,87.1h7v7h-7V87.1z
	 M689.7,94.4h7v7h-7V94.4z M689.7,101.6h7v7h-7V101.6z M689.7,108.9h7v7h-7V108.9z M689.7,116.1h7v7h-7V116.1z M689.7,145.2h7v7h-7
	V145.2z M689.7,152.4h7v7h-7V152.4z M689.7,159.7h7v7h-7V159.7z M689.7,167h7v7h-7V167z M689.7,174.2h7v7h-7V174.2z M689.7,181.5h7
	v7h-7V181.5z M689.7,196h7v7h-7V196z M689.7,210.5h7v7h-7V210.5z M689.7,225h7v7h-7V225z M689.7,239.6h7v7h-7V239.6z M689.7,254.1h7
	v7h-7V254.1z M689.7,268.6h7v7h-7V268.6z M689.7,283.1h7v7h-7V283.1z M689.7,297.6h7v7h-7V297.6z M689.7,312.2h7v7h-7V312.2z
	 M689.7,326.7h7v7h-7V326.7z M689.7,341.2h7v7h-7V341.2z M689.7,355.7h7v7h-7V355.7z M689.7,370.2h7v7h-7V370.2z M697,36.3h7v7h-7
	V36.3z M697,43.6h7v7h-7V43.6z M697,58.1h7v7h-7V58.1z M697,72.6h7v7h-7V72.6z M697,79.9h7v7h-7V79.9z M697,87.1h7v7h-7V87.1z
	 M697,94.4h7v7h-7V94.4z M697,101.6h7v7h-7V101.6z M697,108.9h7v7h-7V108.9z M697,145.2h7v7h-7V145.2z M697,152.4h7v7h-7V152.4z
	 M697,167h7v7h-7V167z M697,188.8h7v7h-7V188.8z M697,203.3h7v7h-7V203.3z M697,210.5h7v7h-7V210.5z M697,217.8h7v7h-7V217.8z
	 M697,225h7v7h-7V225z M697,232.3h7v7h-7V232.3z M697,246.8h7v7h-7V246.8z M697,254.1h7v7h-7V254.1z M697,261.4h7v7h-7V261.4z
	 M697,268.6h7v7h-7V268.6z M697,275.9h7v7h-7V275.9z M697,290.4h7v7h-7V290.4z M697,304.9h7v7h-7V304.9z M697,319.4h7v7h-7V319.4z
	 M697,334h7v7h-7V334z M697,348.5h7v7h-7V348.5z M697,363h7v7h-7V363z M697,377.5h7v7h-7V377.5z M704.2,36.3h7v7h-7V36.3z
	 M704.2,65.3h7v7h-7V65.3z M704.2,72.6h7v7h-7V72.6z M704.2,79.9h7v7h-7V79.9z M704.2,87.1h7v7h-7V87.1z M704.2,94.4h7v7h-7V94.4z
	 M704.2,101.6h7v7h-7V101.6z M704.2,152.4h7v7h-7V152.4z M704.2,159.7h7v7h-7V159.7z M704.2,167h7v7h-7V167z M704.2,174.2h7v7h-7
	V174.2z M704.2,181.5h7v7h-7V181.5z M704.2,188.8h7v7h-7V188.8z M704.2,196h7v7h-7V196z M704.2,203.3h7v7h-7V203.3z M704.2,210.5h7
	v7h-7V210.5z M704.2,217.8h7v7h-7V217.8z M704.2,225h7v7h-7V225z M704.2,239.6h7v7h-7V239.6z M704.2,246.8h7v7h-7V246.8z
	 M704.2,254.1h7v7h-7V254.1z M704.2,268.6h7v7h-7V268.6z M704.2,275.9h7v7h-7V275.9z M704.2,283.1h7v7h-7V283.1z M704.2,297.6h7v7
	h-7V297.6z M704.2,312.2h7v7h-7V312.2z M704.2,326.7h7v7h-7V326.7z M704.2,341.2h7v7h-7V341.2z M704.2,355.7h7v7h-7V355.7z
	 M704.2,370.2h7v7h-7V370.2z M638.9,384.8h7v7h-7V384.8z M638.9,392h7v7h-7V392z M638.9,399.3h7v7h-7V399.3z M638.9,406.6h7v7h-7
	V406.6z M638.9,413.8h7v7h-7V413.8z M638.9,421.1h7v7h-7V421.1z M638.9,428.3h7v7h-7V428.3z M638.9,435.6h7v7h-7V435.6z
	 M638.9,442.8h7v7h-7V442.8z M638.9,450.1h7v7h-7V450.1z M646.2,384.8h7v7h-7V384.8z M646.2,392h7v7h-7V392z M646.2,399.3h7v7h-7
	V399.3z M646.2,406.6h7v7h-7V406.6z M646.2,413.8h7v7h-7V413.8z M646.2,421.1h7v7h-7V421.1z M646.2,428.3h7v7h-7V428.3z
	 M646.2,435.6h7v7h-7V435.6z M646.2,442.8h7v7h-7V442.8z M646.2,450.1h7v7h-7V450.1z M653.4,384.8h7v7h-7V384.8z M653.4,392h7v7h-7
	V392z M653.4,399.3h7v7h-7V399.3z M653.4,406.6h7v7h-7V406.6z M653.4,413.8h7v7h-7V413.8z M653.4,421.1h7v7h-7V421.1z M653.4,428.3
	h7v7h-7V428.3z M653.4,435.6h7v7h-7V435.6z M653.4,442.8h7v7h-7V442.8z M653.4,450.1h7v7h-7V450.1z M660.7,384.8h7v7h-7V384.8z
	 M660.7,399.3h7v7h-7V399.3z M660.7,413.8h7v7h-7V413.8z M660.7,428.3h7v7h-7V428.3z M660.7,442.8h7v7h-7V442.8z M667.9,392h7v7h-7
	V392z M667.9,406.6h7v7h-7V406.6z M667.9,421.1h7v7h-7V421.1z M667.9,435.6h7v7h-7V435.6z M667.9,450.1h7v7h-7V450.1z M675.2,384.8
	h7v7h-7V384.8z M675.2,399.3h7v7h-7V399.3z M675.2,413.8h7v7h-7V413.8z M675.2,428.3h7v7h-7V428.3z M682.5,392h7v7h-7V392z
	 M689.7,384.8h7v7h-7V384.8z M638.9,457.4h7v7h-7V457.4z M638.9,464.6h7v7h-7V464.6z M638.9,471.9h7v7h-7V471.9z M638.9,479.2h7v7
	h-7V479.2z M646.2,457.4h7v7h-7V457.4z M646.2,464.6h7v7h-7V464.6z M646.2,471.9h7v7h-7V471.9z M646.2,479.2h7v7h-7V479.2z
	 M646.2,486.4h7v7h-7V486.4z M646.2,493.7h7v7h-7V493.7z M646.2,500.9h7v7h-7V500.9z M646.2,508.2h7v7h-7V508.2z M653.4,457.4h7v7
	h-7V457.4z M653.4,464.6h7v7h-7V464.6z M653.4,471.9h7v7h-7V471.9z M653.4,479.2h7v7h-7V479.2z M653.4,486.4h7v7h-7V486.4z
	 M653.4,493.7h7v7h-7V493.7z M653.4,500.9h7v7h-7V500.9z M653.4,508.2h7v7h-7V508.2z M653.4,515.4h7v7h-7V515.4z M653.4,522.7h7v7
	h-7V522.7z M660.7,457.4h7v7h-7V457.4z M660.7,471.9h7v7h-7V471.9z M660.7,479.2h7v7h-7V479.2z M660.7,486.4h7v7h-7V486.4z
	 M660.7,493.7h7v7h-7V493.7z M660.7,500.9h7v7h-7V500.9z M660.7,508.2h7v7h-7V508.2z M660.7,515.4h7v7h-7V515.4z M660.7,522.7h7v7
	h-7V522.7z M667.9,464.6h7v7h-7V464.6z M667.9,479.2h7v7h-7V479.2z M667.9,493.7h7v7h-7V493.7z M667.9,500.9h7v7h-7V500.9z
	 M667.9,508.2h7v7h-7V508.2z M667.9,515.4h7v7h-7V515.4z M667.9,522.7h7v7h-7V522.7z M675.2,457.4h7v7h-7V457.4z M675.2,471.9h7v7
	h-7V471.9z M675.2,486.4h7v7h-7V486.4z M675.2,500.9h7v7h-7V500.9z M675.2,515.4h7v7h-7V515.4z M675.2,522.7h7v7h-7V522.7z
	 M682.5,479.2h7v7h-7V479.2z M682.5,493.7h7v7h-7V493.7z M682.5,508.2h7v7h-7V508.2z M682.5,522.7h7v7h-7V522.7z M689.7,500.9h7v7
	h-7V500.9z M689.7,515.4h7v7h-7V515.4z M697,522.7h7v7h-7V522.7z M704.2,515.4h7v7h-7V515.4z M646.2,580.8h7v7h-7V580.8z M653.4,530
	h7v7h-7V530z M653.4,537.2h7v7h-7V537.2z M653.4,580.8h7v7h-7V580.8z M660.7,530h7v7h-7V530z M660.7,537.2h7v7h-7V537.2z
	 M660.7,544.5h7v7h-7V544.5z M660.7,551.8h7v7h-7V551.8z M660.7,559h7v7h-7V559z M660.7,566.3h7v7h-7V566.3z M660.7,573.5h7v7h-7
	V573.5z M660.7,580.8h7v7h-7V580.8z M667.9,530h7v7h-7V530z M667.9,537.2h7v7h-7V537.2z M667.9,544.5h7v7h-7V544.5z M667.9,551.8h7
	v7h-7V551.8z M667.9,559h7v7h-7V559z M667.9,566.3h7v7h-7V566.3z M667.9,573.5h7v7h-7V573.5z M667.9,580.8h7v7h-7V580.8z M675.2,530
	h7v7h-7V530z M675.2,537.2h7v7h-7V537.2z M675.2,544.5h7v7h-7V544.5z M675.2,551.8h7v7h-7V551.8z M675.2,559h7v7h-7V559z
	 M675.2,566.3h7v7h-7V566.3z M675.2,573.5h7v7h-7V573.5z M675.2,580.8h7v7h-7V580.8z M682.5,530h7v7h-7V530z M682.5,537.2h7v7h-7
	V537.2z M682.5,544.5h7v7h-7V544.5z M682.5,551.8h7v7h-7V551.8z M682.5,559h7v7h-7V559z M682.5,566.3h7v7h-7V566.3z M682.5,573.5h7
	v7h-7V573.5z M682.5,580.8h7v7h-7V580.8z M689.7,530h7v7h-7V530z M689.7,544.5h7v7h-7V544.5z M689.7,551.8h7v7h-7V551.8z M689.7,559
	h7v7h-7V559z M689.7,566.3h7v7h-7V566.3z M689.7,573.5h7v7h-7V573.5z M689.7,580.8h7v7h-7V580.8z M697,537.2h7v7h-7V537.2z
	 M697,551.8h7v7h-7V551.8z M697,559h7v7h-7V559z M697,566.3h7v7h-7V566.3z M697,573.5h7v7h-7V573.5z M697,580.8h7v7h-7V580.8z
	 M704.2,530h7v7h-7V530z M704.2,544.5h7v7h-7V544.5z M704.2,559h7v7h-7V559z M704.2,573.5h7v7h-7V573.5z M711.5,29h7v7h-7V29z
	 M711.5,36.3h7v7h-7V36.3z M711.5,58.1h7v7h-7V58.1z M711.5,72.6h7v7h-7V72.6z M711.5,79.9h7v7h-7V79.9z M711.5,87.1h7v7h-7V87.1z
	 M711.5,94.4h7v7h-7V94.4z M711.5,152.4h7v7h-7V152.4z M711.5,159.7h7v7h-7V159.7z M711.5,167h7v7h-7V167z M711.5,174.2h7v7h-7
	V174.2z M711.5,181.5h7v7h-7V181.5z M711.5,188.8h7v7h-7V188.8z M711.5,196h7v7h-7V196z M711.5,203.3h7v7h-7V203.3z M711.5,210.5h7
	v7h-7V210.5z M711.5,217.8h7v7h-7V217.8z M711.5,232.3h7v7h-7V232.3z M711.5,239.6h7v7h-7V239.6z M711.5,246.8h7v7h-7V246.8z
	 M711.5,254.1h7v7h-7V254.1z M711.5,261.4h7v7h-7V261.4z M711.5,268.6h7v7h-7V268.6z M711.5,275.9h7v7h-7V275.9z M711.5,283.1h7v7
	h-7V283.1z M711.5,290.4h7v7h-7V290.4z M711.5,297.6h7v7h-7V297.6z M711.5,304.9h7v7h-7V304.9z M711.5,319.4h7v7h-7V319.4z
	 M711.5,334h7v7h-7V334z M711.5,348.5h7v7h-7V348.5z M711.5,363h7v7h-7V363z M711.5,377.5h7v7h-7V377.5z M718.8,29h7v7h-7V29z
	 M718.8,36.3h7v7h-7V36.3z M718.8,50.8h7v7h-7V50.8z M718.8,65.3h7v7h-7V65.3z M718.8,72.6h7v7h-7V72.6z M718.8,79.9h7v7h-7V79.9z
	 M718.8,87.1h7v7h-7V87.1z M718.8,94.4h7v7h-7V94.4z M718.8,145.2h7v7h-7V145.2z M718.8,152.4h7v7h-7V152.4z M718.8,159.7h7v7h-7
	V159.7z M718.8,167h7v7h-7V167z M718.8,174.2h7v7h-7V174.2z M718.8,181.5h7v7h-7V181.5z M718.8,188.8h7v7h-7V188.8z M718.8,196h7v7
	h-7V196z M718.8,203.3h7v7h-7V203.3z M718.8,210.5h7v7h-7V210.5z M718.8,225h7v7h-7V225z M718.8,232.3h7v7h-7V232.3z M718.8,239.6h7
	v7h-7V239.6z M718.8,246.8h7v7h-7V246.8z M718.8,254.1h7v7h-7V254.1z M718.8,261.4h7v7h-7V261.4z M718.8,268.6h7v7h-7V268.6z
	 M718.8,275.9h7v7h-7V275.9z M718.8,283.1h7v7h-7V283.1z M718.8,290.4h7v7h-7V290.4z M718.8,297.6h7v7h-7V297.6z M718.8,304.9h7v7
	h-7V304.9z M718.8,312.2h7v7h-7V312.2z M718.8,326.7h7v7h-7V326.7z M718.8,334h7v7h-7V334z M718.8,341.2h7v7h-7V341.2z M718.8,355.7
	h7v7h-7V355.7z M718.8,370.2h7v7h-7V370.2z M726,29h7v7h-7V29z M726,58.1h7v7h-7V58.1z M726,72.6h7v7h-7V72.6z M726,79.9h7v7h-7
	V79.9z M726,137.9h7v7h-7V137.9z M726,145.2h7v7h-7V145.2z M726,152.4h7v7h-7V152.4z M726,159.7h7v7h-7V159.7z M726,167h7v7h-7V167z
	 M726,174.2h7v7h-7V174.2z M726,181.5h7v7h-7V181.5z M726,188.8h7v7h-7V188.8z M726,196h7v7h-7V196z M726,203.3h7v7h-7V203.3z
	 M726,225h7v7h-7V225z M726,232.3h7v7h-7V232.3z M726,239.6h7v7h-7V239.6z M726,246.8h7v7h-7V246.8z M726,254.1h7v7h-7V254.1z
	 M726,261.4h7v7h-7V261.4z M726,268.6h7v7h-7V268.6z M726,275.9h7v7h-7V275.9z M726,283.1h7v7h-7V283.1z M726,290.4h7v7h-7V290.4z
	 M726,297.6h7v7h-7V297.6z M726,304.9h7v7h-7V304.9z M726,312.2h7v7h-7V312.2z M726,319.4h7v7h-7V319.4z M726,326.7h7v7h-7V326.7z
	 M726,334h7v7h-7V334z M726,341.2h7v7h-7V341.2z M726,348.5h7v7h-7V348.5z M726,355.7h7v7h-7V355.7z M726,363h7v7h-7V363z
	 M726,370.2h7v7h-7V370.2z M726,377.5h7v7h-7V377.5z M733.3,29h7v7h-7V29z M733.3,50.8h7v7h-7V50.8z M733.3,65.3h7v7h-7V65.3z
	 M733.3,72.6h7v7h-7V72.6z M733.3,79.9h7v7h-7V79.9z M733.3,123.4h7v7h-7V123.4z M733.3,130.7h7v7h-7V130.7z M733.3,137.9h7v7h-7
	V137.9z M733.3,145.2h7v7h-7V145.2z M733.3,152.4h7v7h-7V152.4z M733.3,159.7h7v7h-7V159.7z M733.3,167h7v7h-7V167z M733.3,174.2h7
	v7h-7V174.2z M733.3,181.5h7v7h-7V181.5z M733.3,188.8h7v7h-7V188.8z M733.3,196h7v7h-7V196z M733.3,210.5h7v7h-7V210.5z
	 M733.3,217.8h7v7h-7V217.8z M733.3,225h7v7h-7V225z M733.3,232.3h7v7h-7V232.3z M733.3,239.6h7v7h-7V239.6z M733.3,246.8h7v7h-7
	V246.8z M733.3,254.1h7v7h-7V254.1z M733.3,261.4h7v7h-7V261.4z M733.3,268.6h7v7h-7V268.6z M733.3,275.9h7v7h-7V275.9z
	 M733.3,283.1h7v7h-7V283.1z M733.3,290.4h7v7h-7V290.4z M733.3,297.6h7v7h-7V297.6z M733.3,304.9h7v7h-7V304.9z M733.3,312.2h7v7
	h-7V312.2z M733.3,319.4h7v7h-7V319.4z M733.3,326.7h7v7h-7V326.7z M733.3,334h7v7h-7V334z M733.3,341.2h7v7h-7V341.2z M733.3,348.5
	h7v7h-7V348.5z M733.3,355.7h7v7h-7V355.7z M733.3,363h7v7h-7V363z M733.3,370.2h7v7h-7V370.2z M733.3,377.5h7v7h-7V377.5z
	 M740.5,29h7v7h-7V29z M740.5,43.6h7v7h-7V43.6z M740.5,58.1h7v7h-7V58.1z M740.5,65.3h7v7h-7V65.3z M740.5,72.6h7v7h-7V72.6z
	 M740.5,116.1h7v7h-7V116.1z M740.5,130.7h7v7h-7V130.7z M740.5,137.9h7v7h-7V137.9z M740.5,145.2h7v7h-7V145.2z M740.5,152.4h7v7
	h-7V152.4z M740.5,159.7h7v7h-7V159.7z M740.5,167h7v7h-7V167z M740.5,174.2h7v7h-7V174.2z M740.5,181.5h7v7h-7V181.5z M740.5,188.8
	h7v7h-7V188.8z M740.5,196h7v7h-7V196z M740.5,203.3h7v7h-7V203.3z M740.5,210.5h7v7h-7V210.5z M740.5,217.8h7v7h-7V217.8z
	 M740.5,239.6h7v7h-7V239.6z M740.5,246.8h7v7h-7V246.8z M740.5,254.1h7v7h-7V254.1z M740.5,261.4h7v7h-7V261.4z M740.5,268.6h7v7
	h-7V268.6z M740.5,275.9h7v7h-7V275.9z M740.5,283.1h7v7h-7V283.1z M740.5,290.4h7v7h-7V290.4z M740.5,297.6h7v7h-7V297.6z
	 M740.5,304.9h7v7h-7V304.9z M740.5,312.2h7v7h-7V312.2z M740.5,319.4h7v7h-7V319.4z M740.5,326.7h7v7h-7V326.7z M740.5,334h7v7h-7
	V334z M740.5,341.2h7v7h-7V341.2z M740.5,348.5h7v7h-7V348.5z M740.5,355.7h7v7h-7V355.7z M740.5,363h7v7h-7V363z M740.5,370.2h7v7
	h-7V370.2z M740.5,377.5h7v7h-7V377.5z M747.8,29h7v7h-7V29z M747.8,50.8h7v7h-7V50.8z M747.8,65.3h7v7h-7V65.3z M747.8,72.6h7v7h-7
	V72.6z M747.8,116.1h7v7h-7V116.1z M747.8,130.7h7v7h-7V130.7z M747.8,137.9h7v7h-7V137.9z M747.8,145.2h7v7h-7V145.2z M747.8,152.4
	h7v7h-7V152.4z M747.8,159.7h7v7h-7V159.7z M747.8,167h7v7h-7V167z M747.8,174.2h7v7h-7V174.2z M747.8,181.5h7v7h-7V181.5z
	 M747.8,188.8h7v7h-7V188.8z M747.8,196h7v7h-7V196z M747.8,210.5h7v7h-7V210.5z M747.8,217.8h7v7h-7V217.8z M747.8,254.1h7v7h-7
	V254.1z M747.8,261.4h7v7h-7V261.4z M747.8,268.6h7v7h-7V268.6z M747.8,275.9h7v7h-7V275.9z M747.8,283.1h7v7h-7V283.1z
	 M747.8,290.4h7v7h-7V290.4z M747.8,297.6h7v7h-7V297.6z M747.8,304.9h7v7h-7V304.9z M747.8,312.2h7v7h-7V312.2z M747.8,319.4h7v7
	h-7V319.4z M747.8,326.7h7v7h-7V326.7z M747.8,334h7v7h-7V334z M747.8,341.2h7v7h-7V341.2z M747.8,348.5h7v7h-7V348.5z M747.8,355.7
	h7v7h-7V355.7z M747.8,363h7v7h-7V363z M747.8,370.2h7v7h-7V370.2z M747.8,377.5h7v7h-7V377.5z M755.1,29h7v7h-7V29z M755.1,58.1h7
	v7h-7V58.1z M755.1,65.3h7v7h-7V65.3z M755.1,72.6h7v7h-7V72.6z M755.1,116.1h7v7h-7V116.1z M755.1,137.9h7v7h-7V137.9z
	 M755.1,145.2h7v7h-7V145.2z M755.1,152.4h7v7h-7V152.4z M755.1,159.7h7v7h-7V159.7z M755.1,167h7v7h-7V167z M755.1,174.2h7v7h-7
	V174.2z M755.1,181.5h7v7h-7V181.5z M755.1,188.8h7v7h-7V188.8z M755.1,203.3h7v7h-7V203.3z M755.1,210.5h7v7h-7V210.5z
	 M755.1,268.6h7v7h-7V268.6z M755.1,275.9h7v7h-7V275.9z M755.1,283.1h7v7h-7V283.1z M755.1,290.4h7v7h-7V290.4z M755.1,297.6h7v7
	h-7V297.6z M755.1,304.9h7v7h-7V304.9z M755.1,312.2h7v7h-7V312.2z M755.1,319.4h7v7h-7V319.4z M755.1,326.7h7v7h-7V326.7z
	 M755.1,334h7v7h-7V334z M755.1,341.2h7v7h-7V341.2z M755.1,348.5h7v7h-7V348.5z M755.1,355.7h7v7h-7V355.7z M755.1,363h7v7h-7V363z
	 M755.1,370.2h7v7h-7V370.2z M755.1,377.5h7v7h-7V377.5z M762.3,29h7v7h-7V29z M762.3,43.6h7v7h-7V43.6z M762.3,50.8h7v7h-7V50.8z
	 M762.3,65.3h7v7h-7V65.3z M762.3,72.6h7v7h-7V72.6z M762.3,116.1h7v7h-7V116.1z M762.3,123.4h7v7h-7V123.4z M762.3,130.7h7v7h-7
	V130.7z M762.3,137.9h7v7h-7V137.9z M762.3,145.2h7v7h-7V145.2z M762.3,152.4h7v7h-7V152.4z M762.3,188.8h7v7h-7V188.8z M762.3,196
	h7v7h-7V196z M762.3,203.3h7v7h-7V203.3z M762.3,283.1h7v7h-7V283.1z M762.3,290.4h7v7h-7V290.4z M762.3,297.6h7v7h-7V297.6z
	 M762.3,304.9h7v7h-7V304.9z M762.3,312.2h7v7h-7V312.2z M762.3,319.4h7v7h-7V319.4z M762.3,326.7h7v7h-7V326.7z M762.3,334h7v7h-7
	V334z M762.3,341.2h7v7h-7V341.2z M762.3,348.5h7v7h-7V348.5z M762.3,355.7h7v7h-7V355.7z M762.3,363h7v7h-7V363z M762.3,370.2h7v7
	h-7V370.2z M762.3,377.5h7v7h-7V377.5z M769.6,29h7v7h-7V29z M769.6,36.3h7v7h-7V36.3z M769.6,50.8h7v7h-7V50.8z M769.6,58.1h7v7h-7
	V58.1z M769.6,65.3h7v7h-7V65.3z M769.6,72.6h7v7h-7V72.6z M769.6,130.7h7v7h-7V130.7z M769.6,137.9h7v7h-7V137.9z M769.6,145.2h7v7
	h-7V145.2z M769.6,152.4h7v7h-7V152.4z M769.6,159.7h7v7h-7V159.7z M769.6,167h7v7h-7V167z M769.6,174.2h7v7h-7V174.2z M769.6,181.5
	h7v7h-7V181.5z M769.6,188.8h7v7h-7V188.8z M769.6,297.6h7v7h-7V297.6z M769.6,304.9h7v7h-7V304.9z M769.6,312.2h7v7h-7V312.2z
	 M769.6,319.4h7v7h-7V319.4z M769.6,326.7h7v7h-7V326.7z M769.6,334h7v7h-7V334z M769.6,341.2h7v7h-7V341.2z M769.6,348.5h7v7h-7
	V348.5z M769.6,355.7h7v7h-7V355.7z M769.6,363h7v7h-7V363z M769.6,370.2h7v7h-7V370.2z M769.6,377.5h7v7h-7V377.5z M776.8,29h7v7
	h-7V29z M776.8,36.3h7v7h-7V36.3z M776.8,43.6h7v7h-7V43.6z M776.8,58.1h7v7h-7V58.1z M776.8,65.3h7v7h-7V65.3z M776.8,72.6h7v7h-7
	V72.6z M776.8,312.2h7v7h-7V312.2z M776.8,319.4h7v7h-7V319.4z M776.8,326.7h7v7h-7V326.7z M776.8,334h7v7h-7V334z M776.8,341.2h7v7
	h-7V341.2z M776.8,348.5h7v7h-7V348.5z M776.8,355.7h7v7h-7V355.7z M776.8,363h7v7h-7V363z M776.8,370.2h7v7h-7V370.2z M776.8,377.5
	h7v7h-7V377.5z M733.3,384.8h7v7h-7V384.8z M733.3,392h7v7h-7V392z M733.3,399.3h7v7h-7V399.3z M740.5,384.8h7v7h-7V384.8z
	 M740.5,392h7v7h-7V392z M740.5,399.3h7v7h-7V399.3z M740.5,406.6h7v7h-7V406.6z M740.5,413.8h7v7h-7V413.8z M740.5,421.1h7v7h-7
	V421.1z M740.5,428.3h7v7h-7V428.3z M747.8,384.8h7v7h-7V384.8z M747.8,392h7v7h-7V392z M747.8,399.3h7v7h-7V399.3z M747.8,406.6h7
	v7h-7V406.6z M747.8,413.8h7v7h-7V413.8z M747.8,442.8h7v7h-7V442.8z M755.1,384.8h7v7h-7V384.8z M755.1,392h7v7h-7V392z
	 M755.1,399.3h7v7h-7V399.3z M762.3,384.8h7v7h-7V384.8z M762.3,392h7v7h-7V392z M762.3,399.3h7v7h-7V399.3z M762.3,406.6h7v7h-7
	V406.6z M762.3,413.8h7v7h-7V413.8z M762.3,421.1h7v7h-7V421.1z M762.3,428.3h7v7h-7V428.3z M762.3,435.6h7v7h-7V435.6z
	 M762.3,442.8h7v7h-7V442.8z M762.3,450.1h7v7h-7V450.1z M769.6,384.8h7v7h-7V384.8z M769.6,392h7v7h-7V392z M769.6,399.3h7v7h-7
	V399.3z M769.6,406.6h7v7h-7V406.6z M769.6,413.8h7v7h-7V413.8z M769.6,421.1h7v7h-7V421.1z M769.6,428.3h7v7h-7V428.3z
	 M769.6,435.6h7v7h-7V435.6z M769.6,442.8h7v7h-7V442.8z M769.6,450.1h7v7h-7V450.1z M776.8,384.8h7v7h-7V384.8z M776.8,392h7v7h-7
	V392z M776.8,399.3h7v7h-7V399.3z M776.8,406.6h7v7h-7V406.6z M776.8,413.8h7v7h-7V413.8z M776.8,421.1h7v7h-7V421.1z M776.8,428.3
	h7v7h-7V428.3z M776.8,435.6h7v7h-7V435.6z M776.8,442.8h7v7h-7V442.8z M776.8,450.1h7v7h-7V450.1z M755.1,479.2h7v7h-7V479.2z
	 M755.1,493.7h7v7h-7V493.7z M762.3,457.4h7v7h-7V457.4z M762.3,464.6h7v7h-7V464.6z M762.3,471.9h7v7h-7V471.9z M762.3,500.9h7v7
	h-7V500.9z M769.6,457.4h7v7h-7V457.4z M769.6,464.6h7v7h-7V464.6z M769.6,493.7h7v7h-7V493.7z M769.6,508.2h7v7h-7V508.2z
	 M776.8,457.4h7v7h-7V457.4z M776.8,464.6h7v7h-7V464.6z M776.8,471.9h7v7h-7V471.9z M776.8,479.2h7v7h-7V479.2z M776.8,500.9h7v7
	h-7V500.9z M711.5,551.8h7v7h-7V551.8z M711.5,566.3h7v7h-7V566.3z M711.5,580.8h7v7h-7V580.8z M718.8,559h7v7h-7V559z M718.8,573.5
	h7v7h-7V573.5z M726,566.3h7v7h-7V566.3z M726,580.8h7v7h-7V580.8z M784.1,36.3h7v7h-7V36.3z M784.1,50.8h7v7h-7V50.8z M784.1,58.1
	h7v7h-7V58.1z M784.1,65.3h7v7h-7V65.3z M784.1,72.6h7v7h-7V72.6z M784.1,319.4h7v7h-7V319.4z M784.1,326.7h7v7h-7V326.7z
	 M784.1,334h7v7h-7V334z M784.1,341.2h7v7h-7V341.2z M784.1,348.5h7v7h-7V348.5z M784.1,355.7h7v7h-7V355.7z M784.1,363h7v7h-7V363z
	 M784.1,370.2h7v7h-7V370.2z M784.1,377.5h7v7h-7V377.5z M791.4,36.3h7v7h-7V36.3z M791.4,43.6h7v7h-7V43.6z M791.4,58.1h7v7h-7
	V58.1z M791.4,65.3h7v7h-7V65.3z M791.4,72.6h7v7h-7V72.6z M791.4,79.9h7v7h-7V79.9z M791.4,326.7h7v7h-7V326.7z M791.4,334h7v7h-7
	V334z M791.4,341.2h7v7h-7V341.2z M791.4,348.5h7v7h-7V348.5z M791.4,355.7h7v7h-7V355.7z M791.4,363h7v7h-7V363z M791.4,370.2h7v7
	h-7V370.2z M791.4,377.5h7v7h-7V377.5z M798.6,43.6h7v7h-7V43.6z M798.6,50.8h7v7h-7V50.8z M798.6,65.3h7v7h-7V65.3z M798.6,72.6h7
	v7h-7V72.6z M798.6,79.9h7v7h-7V79.9z M798.6,348.5h7v7h-7V348.5z M798.6,355.7h7v7h-7V355.7z M798.6,363h7v7h-7V363z M798.6,370.2
	h7v7h-7V370.2z M798.6,377.5h7v7h-7V377.5z M805.9,50.8h7v7h-7V50.8z M805.9,72.6h7v7h-7V72.6z M805.9,79.9h7v7h-7V79.9z
	 M805.9,87.1h7v7h-7V87.1z M805.9,355.7h7v7h-7V355.7z M805.9,363h7v7h-7V363z M805.9,370.2h7v7h-7V370.2z M805.9,377.5h7v7h-7
	V377.5z M813.1,50.8h7v7h-7V50.8z M813.1,58.1h7v7h-7V58.1z M813.1,79.9h7v7h-7V79.9z M813.1,87.1h7v7h-7V87.1z M813.1,94.4h7v7h-7
	V94.4z M813.1,363h7v7h-7V363z M813.1,370.2h7v7h-7V370.2z M813.1,377.5h7v7h-7V377.5z M820.4,58.1h7v7h-7V58.1z M820.4,65.3h7v7h-7
	V65.3z M820.4,72.6h7v7h-7V72.6z M820.4,79.9h7v7h-7V79.9z M820.4,87.1h7v7h-7V87.1z M820.4,94.4h7v7h-7V94.4z M820.4,101.6h7v7h-7
	V101.6z M820.4,370.2h7v7h-7V370.2z M820.4,377.5h7v7h-7V377.5z M827.7,65.3h7v7h-7V65.3z M827.7,72.6h7v7h-7V72.6z M827.7,79.9h7v7
	h-7V79.9z M827.7,87.1h7v7h-7V87.1z M827.7,94.4h7v7h-7V94.4z M827.7,101.6h7v7h-7V101.6z M827.7,108.9h7v7h-7V108.9z M827.7,377.5
	h7v7h-7V377.5z M834.9,72.6h7v7h-7V72.6z M834.9,79.9h7v7h-7V79.9z M834.9,87.1h7v7h-7V87.1z M834.9,94.4h7v7h-7V94.4z M834.9,101.6
	h7v7h-7V101.6z M834.9,108.9h7v7h-7V108.9z M834.9,116.1h7v7h-7V116.1z M834.9,123.4h7v7h-7V123.4z M842.2,94.4h7v7h-7V94.4z
	 M842.2,101.6h7v7h-7V101.6z M842.2,108.9h7v7h-7V108.9z M842.2,116.1h7v7h-7V116.1z M842.2,123.4h7v7h-7V123.4z M842.2,130.7h7v7
	h-7V130.7z M849.4,94.4h7v7h-7V94.4z M849.4,101.6h7v7h-7V101.6z M849.4,108.9h7v7h-7V108.9z M849.4,116.1h7v7h-7V116.1z
	 M849.4,123.4h7v7h-7V123.4z M849.4,130.7h7v7h-7V130.7z M849.4,137.9h7v7h-7V137.9z M784.1,384.8h7v7h-7V384.8z M784.1,392h7v7h-7
	V392z M784.1,399.3h7v7h-7V399.3z M784.1,406.6h7v7h-7V406.6z M784.1,413.8h7v7h-7V413.8z M784.1,421.1h7v7h-7V421.1z M784.1,428.3
	h7v7h-7V428.3z M784.1,435.6h7v7h-7V435.6z M784.1,442.8h7v7h-7V442.8z M784.1,450.1h7v7h-7V450.1z M791.4,384.8h7v7h-7V384.8z
	 M791.4,392h7v7h-7V392z M791.4,399.3h7v7h-7V399.3z M791.4,406.6h7v7h-7V406.6z M791.4,413.8h7v7h-7V413.8z M791.4,421.1h7v7h-7
	V421.1z M791.4,428.3h7v7h-7V428.3z M791.4,435.6h7v7h-7V435.6z M791.4,442.8h7v7h-7V442.8z M791.4,450.1h7v7h-7V450.1z
	 M798.6,384.8h7v7h-7V384.8z M798.6,392h7v7h-7V392z M798.6,399.3h7v7h-7V399.3z M798.6,406.6h7v7h-7V406.6z M798.6,413.8h7v7h-7
	V413.8z M798.6,421.1h7v7h-7V421.1z M798.6,428.3h7v7h-7V428.3z M798.6,435.6h7v7h-7V435.6z M798.6,442.8h7v7h-7V442.8z
	 M798.6,450.1h7v7h-7V450.1z M805.9,384.8h7v7h-7V384.8z M805.9,392h7v7h-7V392z M805.9,399.3h7v7h-7V399.3z M805.9,406.6h7v7h-7
	V406.6z M805.9,413.8h7v7h-7V413.8z M805.9,421.1h7v7h-7V421.1z M805.9,428.3h7v7h-7V428.3z M805.9,435.6h7v7h-7V435.6z
	 M805.9,442.8h7v7h-7V442.8z M805.9,450.1h7v7h-7V450.1z M813.1,384.8h7v7h-7V384.8z M813.1,392h7v7h-7V392z M813.1,399.3h7v7h-7
	V399.3z M813.1,406.6h7v7h-7V406.6z M813.1,413.8h7v7h-7V413.8z M813.1,421.1h7v7h-7V421.1z M813.1,428.3h7v7h-7V428.3z
	 M813.1,435.6h7v7h-7V435.6z M813.1,442.8h7v7h-7V442.8z M813.1,450.1h7v7h-7V450.1z M820.4,384.8h7v7h-7V384.8z M820.4,392h7v7h-7
	V392z M820.4,399.3h7v7h-7V399.3z M820.4,406.6h7v7h-7V406.6z M820.4,413.8h7v7h-7V413.8z M820.4,421.1h7v7h-7V421.1z M820.4,428.3
	h7v7h-7V428.3z M820.4,435.6h7v7h-7V435.6z M820.4,442.8h7v7h-7V442.8z M820.4,450.1h7v7h-7V450.1z M827.7,384.8h7v7h-7V384.8z
	 M827.7,392h7v7h-7V392z M827.7,399.3h7v7h-7V399.3z M827.7,406.6h7v7h-7V406.6z M827.7,413.8h7v7h-7V413.8z M827.7,421.1h7v7h-7
	V421.1z M827.7,428.3h7v7h-7V428.3z M827.7,435.6h7v7h-7V435.6z M827.7,442.8h7v7h-7V442.8z M827.7,450.1h7v7h-7V450.1z
	 M834.9,384.8h7v7h-7V384.8z M834.9,392h7v7h-7V392z M834.9,399.3h7v7h-7V399.3z M834.9,406.6h7v7h-7V406.6z M834.9,413.8h7v7h-7
	V413.8z M834.9,421.1h7v7h-7V421.1z M834.9,428.3h7v7h-7V428.3z M834.9,435.6h7v7h-7V435.6z M834.9,442.8h7v7h-7V442.8z
	 M834.9,450.1h7v7h-7V450.1z M842.2,392h7v7h-7V392z M842.2,399.3h7v7h-7V399.3z M842.2,406.6h7v7h-7V406.6z M842.2,413.8h7v7h-7
	V413.8z M842.2,421.1h7v7h-7V421.1z M842.2,428.3h7v7h-7V428.3z M842.2,435.6h7v7h-7V435.6z M842.2,442.8h7v7h-7V442.8z
	 M842.2,450.1h7v7h-7V450.1z M849.4,399.3h7v7h-7V399.3z M849.4,406.6h7v7h-7V406.6z M849.4,413.8h7v7h-7V413.8z M849.4,421.1h7v7
	h-7V421.1z M849.4,428.3h7v7h-7V428.3z M849.4,435.6h7v7h-7V435.6z M849.4,442.8h7v7h-7V442.8z M849.4,450.1h7v7h-7V450.1z
	 M784.1,457.4h7v7h-7V457.4z M784.1,464.6h7v7h-7V464.6z M784.1,471.9h7v7h-7V471.9z M784.1,479.2h7v7h-7V479.2z M784.1,486.4h7v7
	h-7V486.4z M784.1,500.9h7v7h-7V500.9z M791.4,457.4h7v7h-7V457.4z M791.4,464.6h7v7h-7V464.6z M791.4,471.9h7v7h-7V471.9z
	 M791.4,479.2h7v7h-7V479.2z M791.4,486.4h7v7h-7V486.4z M791.4,493.7h7v7h-7V493.7z M791.4,500.9h7v7h-7V500.9z M791.4,508.2h7v7
	h-7V508.2z M791.4,515.4h7v7h-7V515.4z M798.6,457.4h7v7h-7V457.4z M798.6,464.6h7v7h-7V464.6z M798.6,471.9h7v7h-7V471.9z
	 M798.6,479.2h7v7h-7V479.2z M798.6,486.4h7v7h-7V486.4z M798.6,493.7h7v7h-7V493.7z M798.6,500.9h7v7h-7V500.9z M805.9,457.4h7v7
	h-7V457.4z M805.9,464.6h7v7h-7V464.6z M805.9,471.9h7v7h-7V471.9z M805.9,479.2h7v7h-7V479.2z M805.9,486.4h7v7h-7V486.4z
	 M805.9,508.2h7v7h-7V508.2z M813.1,457.4h7v7h-7V457.4z M813.1,464.6h7v7h-7V464.6z M813.1,471.9h7v7h-7V471.9z M813.1,479.2h7v7
	h-7V479.2z M813.1,486.4h7v7h-7V486.4z M813.1,493.7h7v7h-7V493.7z M813.1,515.4h7v7h-7V515.4z M820.4,457.4h7v7h-7V457.4z
	 M820.4,464.6h7v7h-7V464.6z M820.4,471.9h7v7h-7V471.9z M820.4,479.2h7v7h-7V479.2z M820.4,486.4h7v7h-7V486.4z M820.4,493.7h7v7
	h-7V493.7z M820.4,500.9h7v7h-7V500.9z M827.7,457.4h7v7h-7V457.4z M827.7,464.6h7v7h-7V464.6z M827.7,471.9h7v7h-7V471.9z
	 M827.7,479.2h7v7h-7V479.2z M827.7,486.4h7v7h-7V486.4z M827.7,500.9h7v7h-7V500.9z M827.7,508.2h7v7h-7V508.2z M827.7,515.4h7v7
	h-7V515.4z M834.9,457.4h7v7h-7V457.4z M834.9,464.6h7v7h-7V464.6z M834.9,471.9h7v7h-7V471.9z M834.9,479.2h7v7h-7V479.2z
	 M834.9,493.7h7v7h-7V493.7z M834.9,500.9h7v7h-7V500.9z M834.9,508.2h7v7h-7V508.2z M834.9,515.4h7v7h-7V515.4z M834.9,522.7h7v7
	h-7V522.7z M842.2,457.4h7v7h-7V457.4z M842.2,464.6h7v7h-7V464.6z M842.2,471.9h7v7h-7V471.9z M842.2,479.2h7v7h-7V479.2z
	 M842.2,486.4h7v7h-7V486.4z M842.2,493.7h7v7h-7V493.7z M842.2,500.9h7v7h-7V500.9z M849.4,457.4h7v7h-7V457.4z M849.4,464.6h7v7
	h-7V464.6z M849.4,471.9h7v7h-7V471.9z M849.4,479.2h7v7h-7V479.2z M849.4,486.4h7v7h-7V486.4z M849.4,493.7h7v7h-7V493.7z
	 M849.4,500.9h7v7h-7V500.9z M849.4,508.2h7v7h-7V508.2z M10.9,566.3h7v7h-7V566.3z M47.2,566.3h7v7h-7V566.3z M54.4,566.3h7v7h-7
	V566.3z M76.2,566.3h7v7h-7V566.3z M90.8,530.1h7v7h-7V530.1z M90.8,551.8h7v7h-7V551.8z M98,537.3h7v7h-7V537.3z M98,544.6h7v7h-7
	V544.6z M98,559.1h7v7h-7V559.1z M90.7,559.1h7v7h-7V559.1z M98,566.3h7v7h-7V566.3z M134.4,566.3h7v7h-7V566.3z M156.2,566.3h7v7
	h-7V566.3z M163.4,566.3h7v7h-7V566.3z M185.2,566.3h7v7h-7V566.3z M192.5,566.3h7v7h-7V566.3z M199.7,566.3h7v7h-7V566.3z
	 M214.2,566.3h7v7h-7V566.3z M221.5,566.3h7v7h-7V566.3z M228.8,566.3h7v7h-7V566.3z M236,566.3h7v7h-7V566.3z M257.8,566.3h7v7h-7
	V566.3z M265.1,566.3h7v7h-7V566.3z M272.3,566.3h7v7h-7V566.3z M286.8,566.3h7v7h-7V566.3z M301.3,530.1h7v7h-7V530.1z
	 M301.3,551.8h7v7h-7V551.8z M301.3,559.1h7v7h-7V559.1z M308.6,537.3h7v7h-7V537.3z M308.6,544.6h7v7h-7V544.6z M308.6,559.1h7v7
	h-7V559.1z M308.6,566.3h7v7h-7V566.3z M384.8,588h7v7h-7V588z M392.1,588h7v7h-7V588z M399.3,588h7v7h-7V588z M406.6,588h7v7h-7
	V588z M413.8,588h7v7h-7V588z M421.1,588h7v7h-7V588z M428.4,588h7v7h-7V588z M435.6,588h7v7h-7V588z M442.9,588h7v7h-7V588z
	 M450.1,588h7v7h-7V588z M457.4,588h7v7h-7V588z M464.7,588h7v7h-7V588z M471.9,588h7v7h-7V588z M479.2,588h7v7h-7V588z M486.4,588
	h7v7h-7V588z M493.7,588h7v7h-7V588z M501,588h7v7h-7V588z M508.2,588h7v7h-7V588z M638.9,588h7v7h-7V588z M646.2,588h7v7h-7V588z
	 M653.4,588h7v7h-7V588z M660.7,588h7v7h-7V588z M667.9,588h7v7h-7V588z M675.2,588h7v7h-7V588z M682.5,588h7v7h-7V588z M689.7,588
	h7v7h-7V588z M697,588h7v7h-7V588z M704.2,588h7v7h-7V588z M718.8,588h7v7h-7V588z M733.3,588h7v7h-7V588z M856.7,406.6h7v7h-7
	V406.6z M856.7,413.8h7v7h-7V413.8z M856.7,421.1h7v7h-7V421.1z M856.7,428.3h7v7h-7V428.3z M856.7,435.6h7v7h-7V435.6z
	 M856.7,442.8h7v7h-7V442.8z M856.7,450.1h7v7h-7V450.1z M864,406.6h7v7h-7V406.6z M864,413.8h7v7h-7V413.8z M864,421.1h7v7h-7
	V421.1z M864,428.3h7v7h-7V428.3z M864,435.6h7v7h-7V435.6z M864,442.8h7v7h-7V442.8z M864,450.1h7v7h-7V450.1z M856.7,457.4h7v7h-7
	V457.4z M856.7,464.6h7v7h-7V464.6z M856.7,471.9h7v7h-7V471.9z M856.7,479.2h7v7h-7V479.2z M856.7,486.4h7v7h-7V486.4z
	 M856.7,493.7h7v7h-7V493.7z M856.7,500.9h7v7h-7V500.9z M856.7,508.2h7v7h-7V508.2z M864,457.4h7v7h-7V457.4z M864,464.6h7v7h-7
	V464.6z M864,471.9h7v7h-7V471.9z M864,479.2h7v7h-7V479.2z M326.7,123.3h7v7h-7V123.3z M326.7,130.6h7v7h-7V130.6z M326.7,137.8h7
	v7h-7V137.8z M326.7,145.1h7v7h-7V145.1z M326.7,152.3h7v7h-7V152.3z M334,116h7v7h-7V116z M334,123.3h7v7h-7V123.3z M334,130.6h7v7
	h-7V130.6z M334,137.8h7v7h-7V137.8z M334,145.1h7v7h-7V145.1z M334,152.3h7v7h-7V152.3z M334,159.6h7v7h-7V159.6z M341.3,159.6h7v7
	h-7V159.6z M341.3,108.8h7v7h-7V108.8z M341.3,116h7v7h-7V116z M341.3,137.8h7v7h-7V137.8z M341.3,166.9h7v7h-7V166.9z M348.5,108.8
	h7v7h-7V108.8z M348.5,116h7v7h-7V116z M348.5,137.8h7v7h-7V137.8z M348.5,166.9h7v7h-7V166.9z M355.8,108.8h7v7h-7V108.8z
	 M355.8,116h7v7h-7V116z M355.8,137.8h7v7h-7V137.8z M355.8,166.9h7v7h-7V166.9z M363,116h7v7h-7V116z M363,123.3h7v7h-7V123.3z
	 M363,137.8h7v7h-7V137.8z M363,159.6h7v7h-7V159.6z M363,166.9h7v7h-7V166.9z M370.3,123.3h7v7h-7V123.3z M370.3,130.6h7v7h-7
	V130.6z M370.3,137.8h7v7h-7V137.8z M370.3,159.6h7v7h-7V159.6z"/>
</svg>
