<?xml version="1.0" encoding="utf-8"?>
<!-- Generator: Adobe Illustrator 27.3.1, SVG Export Plug-In . SVG Version: 6.00 Build 0)  -->
<svg version="1.1" id="Слой_1" xmlns="http://www.w3.org/2000/svg" xmlns:xlink="http://www.w3.org/1999/xlink" x="0px" y="0px"
	 viewBox="0 0 370.1 79.6" style="enable-background:new 0 0 370.1 79.6;" xml:space="preserve">
<style type="text/css">
	.st0{fill:#F7D57E;}
	.st1{fill:#1E0E01;}
</style>
<rect class="st0" width="370.1" height="79.6"/>
<path class="st1" d="M14.6,0h7v7h-7V0z M14.6,7.3h7v7h-7V7.3z M21.9,0h7v7h-7V0z M21.9,7.3h7v7h-7V7.3z M29.1,0h7v7h-7
	C29.1,7,29.1,0,29.1,0z M29.1,7.3h7v7h-7C29.1,14.3,29.1,7.3,29.1,7.3z M36.4,0h7v7h-7V0z M36.4,7.3h7v7h-7V7.3z M43.6,0h7v7h-7V0z
	 M43.6,7.3h7v7h-7V7.3z M50.9,0h7v7h-7V0z M50.9,7.3h7v7h-7V7.3z M58.2,0h7v7h-7C58.2,7,58.2,0,58.2,0z M65.4,0h7v7h-7V0z M72.7,0h7
	v7h-7V0z M14.6,14.5h7v7h-7V14.5z M21.9,14.5h7v7h-7V14.5z M29.1,14.5h7v7h-7C29.1,21.5,29.1,14.5,29.1,14.5z M36.4,14.5h7v7h-7
	V14.5z M43.6,14.5h7v7h-7V14.5z M14.6,21.8h7v7h-7V21.8z M14.6,29h7v7h-7V29z M14.6,36.3h7v7h-7V36.3z M14.6,43.6h7v7h-7V43.6z
	 M14.6,50.8h7v7h-7V50.8z M14.6,58.1h7v7h-7V58.1z M14.6,65.3h7v7h-7V65.3z M14.6,72.6h7v7h-7V72.6z M21.9,21.8h7v7h-7V21.8z
	 M21.9,29h7v7h-7V29z M21.9,36.3h7v7h-7V36.3z M21.9,43.6h7v7h-7V43.6z M21.9,50.8h7v7h-7V50.8z M21.9,58.1h7v7h-7V58.1z M21.9,65.3
	h7v7h-7V65.3z M21.9,72.6h7v7h-7V72.6z M29.1,21.8h7v7h-7C29.1,28.8,29.1,21.8,29.1,21.8z M29.1,29h7v7h-7C29.1,36,29.1,29,29.1,29z
	 M29.1,36.3h7v7h-7C29.1,43.3,29.1,36.3,29.1,36.3z M29.1,43.6h7v7h-7C29.1,50.6,29.1,43.6,29.1,43.6z M29.1,50.8h7v7h-7
	C29.1,57.8,29.1,50.8,29.1,50.8z M29.1,58.1h7v7h-7C29.1,65.1,29.1,58.1,29.1,58.1z M29.1,65.3h7v7h-7
	C29.1,72.3,29.1,65.3,29.1,65.3z M29.1,72.6h7v7h-7C29.1,79.6,29.1,72.6,29.1,72.6z M36.4,21.8h7v7h-7V21.8z M36.4,29h7v7h-7V29z
	 M36.4,36.3h7v7h-7V36.3z M36.4,43.6h7v7h-7V43.6z M36.4,50.8h7v7h-7V50.8z M36.4,58.1h7v7h-7V58.1z M36.4,65.3h7v7h-7V65.3z
	 M36.4,72.6h7v7h-7V72.6z M43.6,21.8h7v7h-7V21.8z M43.6,29h7v7h-7V29z M43.6,36.3h7v7h-7V36.3z M43.6,43.6h7v7h-7V43.6z M43.6,50.8
	h7v7h-7V50.8z M43.6,58.1h7v7h-7V58.1z M43.6,65.3h7v7h-7V65.3z M43.6,72.6h7v7h-7V72.6z M65.4,14.6h7v7h-7V14.6z M65.4,21.9h7v7h-7
	V21.9z M50.9,65.3h7v7h-7V65.3z M50.9,72.6h7v7h-7V72.6z M58.2,72.6h7v7h-7C58.2,79.6,58.2,72.6,58.2,72.6z M65.4,29h7v7h-7V29z
	 M65.4,36.3h7v7h-7V36.3z M65.4,43.6h7v7h-7V43.6z M65.4,50.8h7v7h-7V50.8z M65.4,58.1h7v7h-7V58.1z M65.4,72.6h7v7h-7V72.6z
	 M72.7,72.6h7v7h-7V72.6z M80,0h7v7h-7V0z M80,7.3h7v7h-7V7.3z M80,65.3h7v7h-7V65.3z M80,72.6h7v7h-7V72.6z M87.2,0h7v7h-7V0z
	 M87.2,7.3h7v7h-7V7.3z M87.2,14.5h7v7h-7V14.5z M87.2,21.8h7v7h-7V21.8z M87.2,29h7v7h-7V29z M87.2,36.3h7v7h-7V36.3z M87.2,43.6h7
	v7h-7V43.6z M87.2,50.8h7v7h-7V50.8z M87.2,58.1h7v7h-7V58.1z M87.2,65.3h7v7h-7V65.3z M87.2,72.6h7v7h-7V72.6z M94.5,0h7v7h-7V0z
	 M94.5,7.3h7v7h-7V7.3z M94.5,14.5h7v7h-7V14.5z M94.5,72.6h7v7h-7V72.6z M101.8,0h7v7h-7V0z M101.8,7.3h7v7h-7V7.3z M101.8,14.5h7
	v7h-7V14.5z M101.8,72.6h7v7h-7V72.6z M109,0h7v7h-7V0z M109,7.3h7v7h-7V7.3z M109,14.5h7v7h-7V14.5z M109,29h7v7h-7V29z M109,36.3
	h7v7h-7V36.3z M109,43.6h7v7h-7V43.6z M109,58.1h7v7h-7V58.1z M109,65.3h7v7h-7V65.3z M109,72.6h7v7h-7V72.6z M116.3,0h7v7h-7V0z
	 M116.3,7.3h7v7h-7V7.3z M116.3,14.5h7v7h-7V14.5z M116.3,58.1h7v7h-7V58.1z M116.3,65.3h7v7h-7V65.3z M116.3,72.6h7v7h-7V72.6z
	 M123.5,0h7v7h-7V0z M123.5,7.3h7v7h-7V7.3z M123.5,14.5h7v7h-7V14.5z M123.5,21.8h7v7h-7V21.8z M123.5,50.8h7v7h-7V50.8z
	 M123.5,58.1h7v7h-7V58.1z M123.5,65.3h7v7h-7V65.3z M123.5,72.6h7v7h-7V72.6z M130.8,0h7v7h-7V0z M130.8,7.3h7v7h-7V7.3z
	 M130.8,14.5h7v7h-7V14.5z M130.8,21.8h7v7h-7V21.8z M130.8,29h7v7h-7V29z M130.8,36.3h7v7h-7V36.3z M130.8,43.6h7v7h-7V43.6z
	 M130.8,50.8h7v7h-7V50.8z M130.8,58.1h7v7h-7V58.1z M130.8,65.3h7v7h-7V65.3z M130.8,72.6h7v7h-7V72.6z M138.1,0h7v7h-7V0z
	 M138.1,7.3h7v7h-7V7.3z M145.3,7.3h7v7h-7V7.3z M138.1,14.5h7v7h-7V14.5z M138.1,29h7v7h-7V29z M138.1,36.3h7v7h-7V36.3z
	 M138.1,43.6h7v7h-7V43.6z M138.1,50.8h7v7h-7V50.8z M138.1,58.1h7v7h-7V58.1z M138.1,65.3h7v7h-7V65.3z M138.1,72.6h7v7h-7V72.6z
	 M145.3,0h7v7h-7V0z M145.3,65.3h7v7h-7V65.3z M145.3,72.6h7v7h-7V72.6z M152.6,0h7v7h-7V0z M152.6,72.6h7v7h-7V72.6z M159.8,0h7v7
	h-7V0z M159.8,7.3h7v7h-7V7.3z M159.8,14.5h7v7h-7V14.5z M159.8,29h7v7h-7V29z M159.8,36.3h7v7h-7V36.3z M159.8,43.6h7v7h-7V43.6z
	 M159.8,50.8h7v7h-7V50.8z M159.8,72.6h7v7h-7V72.6z M167.1,0h7v7h-7V0z M167.1,7.3h7v7h-7V7.3z M167.1,14.5h7v7h-7V14.5z
	 M167.1,21.8h7v7h-7V21.8z M167.1,29h7v7h-7V29z M167.1,36.3h7v7h-7V36.3z M167.1,43.6h7v7h-7V43.6z M167.1,50.8h7v7h-7V50.8z
	 M167.1,58.1h7v7h-7V58.1z M167.1,65.3h7v7h-7V65.3z M167.1,72.6h7v7h-7V72.6z M174.4,0h7v7h-7V0z M174.4,7.3h7v7h-7V7.3z
	 M174.4,21.8h7v7h-7V21.8z M174.4,72.6h7v7h-7V72.6z M181.6,0h7v7h-7V0z M181.6,7.3h7v7h-7V7.3z M181.6,21.8h7v7h-7V21.8z
	 M181.6,72.6h7v7h-7V72.6z M188.9,0h7v7h-7V0z M188.9,7.3h7v7h-7V7.3z M188.9,14.5h7v7h-7V14.5z M188.9,21.8h7v7h-7V21.8z M188.9,29
	h7v7h-7V29z M188.9,36.3h7v7h-7V36.3z M188.9,43.6h7v7h-7V43.6z M188.9,50.8h7v7h-7V50.8z M188.9,58.1h7v7h-7V58.1z M188.9,65.3h7v7
	h-7V65.3z M188.9,72.6h7v7h-7V72.6z M196.1,0h7v7h-7V0z M196.1,7.3h7v7h-7V7.3z M196.1,14.5h7v7h-7V14.5z M196.1,21.8h7v7h-7V21.8z
	 M196.1,65.3h7v7h-7V65.3z M196.1,72.6h7v7h-7V72.6z M203.4,0h7v7h-7V0z M203.4,7.3h7v7h-7V7.3z M203.4,14.5h7v7h-7V14.5z
	 M203.4,72.6h7v7h-7V72.6z M210.7,0h7v7h-7V0z M210.7,7.3h7v7h-7V7.3z M210.7,14.5h7v7h-7V14.5z M210.7,29h7v7h-7V29z M210.7,36.3h7
	v7h-7V36.3z M210.7,43.6h7v7h-7V43.6z M210.7,50.8h7v7h-7V50.8z M210.7,58.1h7v7h-7V58.1z M210.7,72.6h7v7h-7V72.6z M217.9,0h7v7h-7
	V0z M217.9,7.3h7v7h-7V7.3z M217.9,14.5h7v7h-7V14.5z M217.9,72.6h7v7h-7V72.6z M225.2,0h7v7h-7V0z M225.2,7.3h7v7h-7V7.3z
	 M225.2,14.5h7v7h-7V14.5z M225.2,21.8h7v7h-7V21.8z M225.2,65.3h7v7h-7V65.3z M225.2,72.6h7v7h-7V72.6z M232.4,0h7v7h-7V0z
	 M232.4,7.3h7v7h-7V7.3z M232.4,14.5h7v7h-7V14.5z M232.4,21.8h7v7h-7V21.8z M232.4,29h7v7h-7V29z M232.4,36.3h7v7h-7V36.3z
	 M232.4,43.6h7v7h-7V43.6z M232.4,50.8h7v7h-7V50.8z M232.4,58.1h7v7h-7V58.1z M232.4,65.3h7v7h-7V65.3z M232.4,72.6h7v7h-7V72.6z
	 M239.7,0h7v7h-7V0z M239.7,7.3h7v7h-7V7.3z M239.7,14.5h7v7h-7V14.5z M239.7,72.6h7v7h-7V72.6z M247,0h7v7h-7V0z M247,7.3h7v7h-7
	V7.3z M247,14.5h7v7h-7V14.5z M247,21.8h7v7h-7V21.8z M247,72.6h7v7h-7V72.6z M254.2,0h7v7h-7L254.2,0L254.2,0z M254.2,7.3h7v7h-7
	L254.2,7.3L254.2,7.3z M254.2,14.5h7v7h-7L254.2,14.5L254.2,14.5z M254.2,36.3h7v7h-7L254.2,36.3L254.2,36.3z M254.2,43.6h7v7h-7
	L254.2,43.6L254.2,43.6z M254.2,50.8h7v7h-7L254.2,50.8L254.2,50.8z M254.2,58.1h7v7h-7L254.2,58.1L254.2,58.1z M254.2,65.3h7v7h-7
	L254.2,65.3L254.2,65.3z M254.2,72.6h7v7h-7L254.2,72.6L254.2,72.6z M261.5,0h7v7h-7V0z M261.5,7.3h7v7h-7V7.3z M261.5,14.5h7v7h-7
	V14.5z M261.5,72.6h7v7h-7V72.6z M268.7,0h7v7h-7V0z M268.7,7.3h7v7h-7V7.3z M268.7,14.5h7v7h-7V14.5z M268.7,21.8h7v7h-7V21.8z
	 M268.7,72.6h7v7h-7V72.6z M276,0h7v7h-7V0z M276,7.3h7v7h-7V7.3z M276,14.5h7v7h-7V14.5z M276,21.8h7v7h-7V21.8z M276,29h7v7h-7V29
	z M276,36.3h7v7h-7V36.3z M276,43.6h7v7h-7V43.6z M276,50.8h7v7h-7V50.8z M276,58.1h7v7h-7V58.1z M276,65.3h7v7h-7V65.3z M276,72.6
	h7v7h-7V72.6z M283.3,0h7v7h-7V0z M283.3,7.3h7v7h-7V7.3z M283.3,14.5h7v7h-7V14.5z M283.3,21.8h7v7h-7V21.8z M283.3,43.6h7v7h-7
	V43.6z M283.3,50.8h7v7h-7V50.8z M283.3,65.3h7v7h-7V65.3z M283.3,72.6h7v7h-7V72.6z M290.5,0h7v7h-7V0z M290.5,7.3h7v7h-7V7.3z
	 M290.5,14.5h7v7h-7V14.5z M290.5,50.8h7v7h-7V50.8z M290.5,72.6h7v7h-7V72.6z M297.8,0h7v7h-7V0z M297.8,7.3h7v7h-7V7.3z
	 M297.8,14.5h7v7h-7V14.5z M297.8,29h7v7h-7V29z M297.8,36.3h7v7h-7V36.3z M297.8,50.8h7v7h-7V50.8z M297.8,58.1h7v7h-7V58.1z
	 M297.8,72.6h7v7h-7V72.6z M305,0h7v7h-7V0z M305,7.3h7v7h-7V7.3z M312.3,0h7v7h-7V0z M312.3,7.3h7v7h-7V7.3z M319.5,0h7v7h-7V0z
	 M319.5,7.3h7v7h-7V7.3z M326.8,0h7v7h-7V0z M326.8,7.3h7v7h-7V7.3z M334,0h7v7h-7V0z M334,7.3h7v7h-7V7.3z M305,14.5h7v7h-7V14.5z
	 M312.3,14.5h7v7h-7V14.5z M319.5,14.5h7v7h-7V14.5z M326.8,14.5h7v7h-7V14.5z M334,14.5h7v7h-7V14.5z M305,36.3h7v7h-7V36.3z
	 M305,72.6h7v7h-7V72.6z M312.3,21.8h7v7h-7V21.8z M312.3,36.3h7v7h-7V36.3z M312.3,43.6h7v7h-7V43.6z M312.3,65.3h7v7h-7V65.3z
	 M312.3,72.6h7v7h-7V72.6z M319.5,21.8h7v7h-7V21.8z M319.5,29h7v7h-7V29z M319.5,36.3h7v7h-7V36.3z M319.5,43.6h7v7h-7V43.6z
	 M319.5,50.8h7v7h-7V50.8z M319.5,58.1h7v7h-7V58.1z M319.5,65.3h7v7h-7V65.3z M319.5,72.6h7v7h-7V72.6z M326.8,21.8h7v7h-7V21.8z
	 M326.8,29h7v7h-7V29z M326.8,36.3h7v7h-7V36.3z M326.8,43.6h7v7h-7V43.6z M326.8,50.8h7v7h-7V50.8z M326.8,58.1h7v7h-7V58.1z
	 M326.8,65.3h7v7h-7V65.3z M326.8,72.6h7v7h-7V72.6z M334,21.8h7v7h-7V21.8z M334,29h7v7h-7V29z M334,36.3h7v7h-7V36.3z M334,43.6h7
	v7h-7V43.6z M334,50.8h7v7h-7V50.8z M334,58.1h7v7h-7V58.1z M334,65.3h7v7h-7V65.3z M334,72.6h7v7h-7V72.6z M341.3,0h7v7h-7V0z
	 M341.3,7.3h7v7h-7V7.3z M348.6,0h7v7h-7V0z M348.6,7.3h7v7h-7V7.3z M355.8,0h7v7h-7V0z M355.8,7.3h7v7h-7V7.3z M363.1,0h7v7h-7V0z
	 M363.1,7.3h7v7h-7V7.3z M0,0h7v7H0V0z M0,7.3h7v7H0V7.3z M7.3,0h7v7h-7V0z M7.3,7.3h7v7h-7V7.3z M341.3,14.5h7v7h-7V14.5z
	 M348.6,14.5h7v7h-7V14.5z M355.8,14.5h7v7h-7V14.5z M363.1,14.5h7v7h-7V14.5z M0,14.5h7v7H0V14.5z M7.3,14.5h7v7h-7V14.5z
	 M341.3,21.8h7v7h-7V21.8z M341.3,29h7v7h-7V29z M341.3,36.3h7v7h-7V36.3z M341.3,43.6h7v7h-7V43.6z M341.3,50.8h7v7h-7V50.8z
	 M341.3,58.1h7v7h-7V58.1z M341.3,65.3h7v7h-7V65.3z M341.3,72.6h7v7h-7V72.6z M348.6,21.8h7v7h-7V21.8z M348.6,29h7v7h-7V29z
	 M348.6,36.3h7v7h-7V36.3z M348.6,43.6h7v7h-7V43.6z M348.6,50.8h7v7h-7V50.8z M348.6,58.1h7v7h-7V58.1z M348.6,65.3h7v7h-7V65.3z
	 M348.6,72.6h7v7h-7V72.6z M355.8,21.8h7v7h-7V21.8z M355.8,29h7v7h-7V29z M355.8,36.3h7v7h-7V36.3z M355.8,43.6h7v7h-7V43.6z
	 M355.8,50.8h7v7h-7V50.8z M355.8,58.1h7v7h-7V58.1z M355.8,65.3h7v7h-7V65.3z M355.8,72.6h7v7h-7V72.6z M363.1,21.8h7v7h-7V21.8z
	 M363.1,29h7v7h-7V29z M363.1,36.3h7v7h-7V36.3z M363.1,43.6h7v7h-7V43.6z M363.1,50.8h7v7h-7V50.8z M363.1,58.1h7v7h-7V58.1z
	 M363.1,65.3h7v7h-7V65.3z M363.1,72.6h7v7h-7V72.6z M0,21.8h7v7H0V21.8z M0,29h7v7H0V29z M0,36.3h7v7H0V36.3z M0,43.6h7v7H0V43.6z
	 M0,50.8h7v7H0V50.8z M0,58.1h7v7H0V58.1z M0,65.3h7v7H0V65.3z M0,72.6h7v7H0V72.6z M7.3,21.8h7v7h-7V21.8z M7.3,29h7v7h-7V29z
	 M7.3,36.3h7v7h-7V36.3z M7.3,43.6h7v7h-7V43.6z M7.3,50.8h7v7h-7V50.8z M7.3,58.1h7v7h-7V58.1z M7.3,65.3h7v7h-7V65.3z M7.3,72.6h7
	v7h-7V72.6z"/>
</svg>
