<?xml version="1.0" encoding="utf-8"?>
<!-- Generator: Adobe Illustrator 27.3.1, SVG Export Plug-In . SVG Version: 6.00 Build 0)  -->
<svg version="1.1" id="Слой_1" xmlns="http://www.w3.org/2000/svg" xmlns:xlink="http://www.w3.org/1999/xlink" x="0px" y="0px"
	 viewBox="0 0 239.3 79.6" style="enable-background:new 0 0 239.3 79.6;" xml:space="preserve">
<style type="text/css">
	.st0{fill:#FCD275;}
</style>
<path class="st0" d="M29,7.3h7v7h-7V7.3z M14.5,14.5h7v7h-7V14.5z M21.7,14.5h7v7h-7V14.5z M0,36.3h7v7H0V36.3z M7.2,21.8h7v7h-7
	V21.8z M7.2,29h7v7h-7V29z M7.2,36.3h7v7h-7V36.3z M7.2,43.6h7v7h-7V43.6z M7.2,50.8h7v7h-7V50.8z M14.5,21.8h7v7h-7V21.8z M14.5,29
	h7v7h-7V29z M14.5,36.3h7v7h-7V36.3z M14.5,43.6h7v7h-7V43.6z M14.5,50.8h7v7h-7V50.8z M14.5,58.1h7v7h-7V58.1z M21.7,21.8h7v7h-7
	V21.8z M21.7,29h7v7h-7V29z M21.7,36.3h7v7h-7V36.3z M21.7,43.6h7v7h-7V43.6z M21.7,50.8h7v7h-7V50.8z M21.7,58.1h7v7h-7V58.1z
	 M29,14.5h7v7h-7V14.5z M36.3,14.5h7v7h-7V14.5z M43.5,14.5h7v7h-7V14.5z M29,21.8h7v7h-7V21.8z M29,29h7v7h-7V29z M29,36.3h7v7h-7
	V36.3z M29,43.6h7v7h-7V43.6z M29,50.8h7v7h-7V50.8z M29,58.1h7v7h-7V58.1z M29,65.3h7v7h-7V65.3z M36.3,21.8h7v7h-7V21.8z M36.3,29
	h7v7h-7V29z M36.3,36.3h7v7h-7V36.3z M36.3,43.6h7v7h-7V43.6z M36.3,50.8h7v7h-7V50.8z M36.3,58.1h7v7h-7V58.1z M43.5,21.8h7v7h-7
	V21.8z M43.5,29h7v7h-7V29z M43.5,36.3h7v7h-7V36.3z M43.5,43.6h7v7h-7V43.6z M43.5,50.8h7v7h-7V50.8z M43.5,58.1h7v7h-7V58.1z
	 M50.8,21.8h7v7h-7V21.8z M50.8,29h7v7h-7V29z M50.8,36.3h7v7h-7V36.3z M50.8,43.6h7v7h-7V43.6z M50.8,50.8h7v7h-7V50.8z M58,36.3h7
	v7h-7V36.3z M116.1,7.3h7v7h-7V7.3z M101.6,14.5h7v7h-7V14.5z M108.8,14.5h7v7h-7V14.5z M87.1,36.3h7v7h-7V36.3z M94.3,21.8h7v7h-7
	V21.8z M94.3,29h7v7h-7V29z M94.3,36.3h7v7h-7V36.3z M94.3,43.6h7v7h-7V43.6z M94.3,50.8h7v7h-7V50.8z M101.6,21.8h7v7h-7V21.8z
	 M101.6,29h7v7h-7V29z M101.6,36.3h7v7h-7V36.3z M101.6,43.6h7v7h-7V43.6z M101.6,50.8h7v7h-7V50.8z M101.6,58.1h7v7h-7V58.1z
	 M108.8,21.8h7v7h-7V21.8z M108.8,29h7v7h-7V29z M108.8,36.3h7v7h-7V36.3z M108.8,43.6h7v7h-7V43.6z M108.8,50.8h7v7h-7V50.8z
	 M108.8,58.1h7v7h-7V58.1z M116.1,14.5h7v7h-7V14.5z M123.4,14.5h7v7h-7V14.5z M130.6,14.5h7v7h-7V14.5z M116.1,21.8h7v7h-7V21.8z
	 M116.1,29h7v7h-7V29z M116.1,36.3h7v7h-7V36.3z M116.1,43.6h7v7h-7V43.6z M116.1,50.8h7v7h-7V50.8z M116.1,58.1h7v7h-7V58.1z
	 M116.1,65.3h7v7h-7V65.3z M123.4,21.8h7v7h-7V21.8z M123.4,29h7v7h-7V29z M123.4,36.3h7v7h-7V36.3z M123.4,43.6h7v7h-7V43.6z
	 M123.4,50.8h7v7h-7V50.8z M123.4,58.1h7v7h-7V58.1z M130.6,21.8h7v7h-7V21.8z M130.6,29h7v7h-7V29z M130.6,36.3h7v7h-7V36.3z
	 M130.6,43.6h7v7h-7V43.6z M130.6,50.8h7v7h-7V50.8z M130.6,58.1h7v7h-7V58.1z M137.9,21.8h7v7h-7V21.8z M137.9,29h7v7h-7V29z
	 M137.9,36.3h7v7h-7V36.3z M137.9,43.6h7v7h-7V43.6z M137.9,50.8h7v7h-7V50.8z M145.2,36.3h7v7h-7V36.3z M203.3,7.3h7v7h-7V7.3z
	 M188.8,14.5h7v7h-7V14.5z M196,14.5h7v7h-7V14.5z M174.3,36.3h7v7h-7V36.3z M181.5,21.8h7v7h-7V21.8z M181.5,29h7v7h-7V29z
	 M181.5,36.3h7v7h-7V36.3z M181.5,43.6h7v7h-7V43.6z M181.5,50.8h7v7h-7V50.8z M188.8,21.8h7v7h-7V21.8z M188.8,29h7v7h-7V29z
	 M188.8,36.3h7v7h-7V36.3z M188.8,43.6h7v7h-7V43.6z M188.8,50.8h7v7h-7V50.8z M188.8,58.1h7v7h-7V58.1z M196,21.8h7v7h-7V21.8z
	 M196,29h7v7h-7V29z M196,36.3h7v7h-7V36.3z M196,43.6h7v7h-7V43.6z M196,50.8h7v7h-7V50.8z M196,58.1h7v7h-7V58.1z M203.3,14.5h7v7
	h-7V14.5z M210.6,14.5h7v7h-7V14.5z M217.8,14.5h7v7h-7V14.5z M203.3,21.8h7v7h-7V21.8z M203.3,29h7v7h-7V29z M203.3,36.3h7v7h-7
	V36.3z M203.3,43.6h7v7h-7V43.6z M203.3,50.8h7v7h-7V50.8z M203.3,58.1h7v7h-7V58.1z M203.3,65.3h7v7h-7V65.3z M210.6,21.8h7v7h-7
	V21.8z M210.6,29h7v7h-7V29z M210.6,36.3h7v7h-7V36.3z M210.6,43.6h7v7h-7V43.6z M210.6,50.8h7v7h-7V50.8z M210.6,58.1h7v7h-7V58.1z
	 M217.8,21.8h7v7h-7V21.8z M217.8,29h7v7h-7V29z M217.8,36.3h7v7h-7V36.3z M217.8,43.6h7v7h-7V43.6z M217.8,50.8h7v7h-7V50.8z
	 M217.8,58.1h7v7h-7V58.1z M225.1,21.8h7v7h-7V21.8z M225.1,29h7v7h-7V29z M225.1,36.3h7v7h-7V36.3z M225.1,43.6h7v7h-7V43.6z
	 M225.1,50.8h7v7h-7V50.8z M232.3,36.3h7v7h-7V36.3z"/>
</svg>
