<?xml version="1.0" encoding="utf-8"?>
<!-- Generator: Adobe Illustrator 27.3.1, SVG Export Plug-In . SVG Version: 6.00 Build 0)  -->
<svg version="1.1" id="Слой_1" xmlns="http://www.w3.org/2000/svg" xmlns:xlink="http://www.w3.org/1999/xlink" x="0px" y="0px"
	 viewBox="0 0 987.2 123.2" style="enable-background:new 0 0 987.2 123.2;" xml:space="preserve">
<style type="text/css">
	.st0{fill:#1E0E01;}
</style>
<rect x="0.1" y="14.5" class="st0" width="7" height="7"/>
<rect x="0.1" y="21.8" class="st0" width="7" height="7"/>
<rect x="0.1" y="29" class="st0" width="7" height="7"/>
<rect x="0.1" y="36.3" class="st0" width="7" height="7"/>
<rect x="0.1" y="43.6" class="st0" width="7" height="7"/>
<rect x="0.1" y="50.8" class="st0" width="7" height="7"/>
<rect x="0.1" y="58.1" class="st0" width="7" height="7"/>
<rect x="0.1" y="65.3" class="st0" width="7" height="7"/>
<rect x="0.1" y="72.6" class="st0" width="7" height="7"/>
<rect x="0.1" y="79.9" class="st0" width="7" height="7"/>
<rect x="0.1" y="87.1" class="st0" width="7" height="7"/>
<rect x="7.3" y="7.3" class="st0" width="7" height="7"/>
<rect x="14.6" class="st0" width="7" height="7"/>
<rect x="21.8" class="st0" width="7" height="7"/>
<rect x="29.1" class="st0" width="7" height="7"/>
<rect x="36.4" class="st0" width="7" height="7"/>
<rect x="43.6" class="st0" width="7" height="7"/>
<rect x="50.9" class="st0" width="7" height="7"/>
<rect x="58.1" class="st0" width="7" height="7"/>
<rect x="65.4" class="st0" width="7" height="7"/>
<rect x="72.7" class="st0" width="7" height="7"/>
<rect x="79.9" class="st0" width="7" height="7"/>
<rect x="87.2" class="st0" width="7" height="7"/>
<rect x="94.4" class="st0" width="7" height="7"/>
<rect x="101.7" class="st0" width="7" height="7"/>
<rect x="109" class="st0" width="7" height="7"/>
<rect x="116.2" class="st0" width="7" height="7"/>
<rect x="123.5" class="st0" width="7" height="7"/>
<rect x="130.7" class="st0" width="7" height="7"/>
<rect x="138" class="st0" width="7" height="7"/>
<rect x="145.3" class="st0" width="7" height="7"/>
<rect x="152.5" class="st0" width="7" height="7"/>
<rect x="159.8" class="st0" width="7" height="7"/>
<rect x="167" class="st0" width="7" height="7"/>
<rect x="174.3" class="st0" width="7" height="7"/>
<rect x="181.6" class="st0" width="7" height="7"/>
<rect x="188.8" class="st0" width="7" height="7"/>
<rect x="196.1" class="st0" width="7" height="7"/>
<rect x="203.3" class="st0" width="7" height="7"/>
<rect x="210.6" class="st0" width="7" height="7"/>
<rect x="217.9" class="st0" width="7" height="7"/>
<rect x="225.1" class="st0" width="7" height="7"/>
<rect x="232.4" class="st0" width="7" height="7"/>
<rect x="239.6" class="st0" width="7" height="7"/>
<rect x="246.9" class="st0" width="7" height="7"/>
<rect x="254.2" class="st0" width="7" height="7"/>
<rect x="261.4" class="st0" width="7" height="7"/>
<rect x="268.7" class="st0" width="7" height="7"/>
<rect x="275.9" class="st0" width="7" height="7"/>
<rect x="283.2" class="st0" width="7" height="7"/>
<rect x="290.5" class="st0" width="7" height="7"/>
<rect x="297.7" class="st0" width="7" height="7"/>
<rect x="305" class="st0" width="7" height="7"/>
<rect x="312.2" class="st0" width="7" height="7"/>
<rect x="319.5" class="st0" width="7" height="7"/>
<rect x="326.8" class="st0" width="7" height="7"/>
<rect x="334" class="st0" width="7" height="7"/>
<rect x="341.3" class="st0" width="7" height="7"/>
<rect x="348.5" class="st0" width="7" height="7"/>
<rect x="355.8" class="st0" width="7" height="7"/>
<rect x="363.1" class="st0" width="7" height="7"/>
<rect x="370.3" class="st0" width="7" height="7"/>
<rect x="377.6" class="st0" width="7" height="7"/>
<rect x="384.8" class="st0" width="7" height="7"/>
<rect x="392.1" class="st0" width="7" height="7"/>
<rect x="399.4" class="st0" width="7" height="7"/>
<rect x="406.6" class="st0" width="7" height="7"/>
<rect x="413.9" class="st0" width="7" height="7"/>
<rect x="421.1" class="st0" width="7" height="7"/>
<rect x="428.4" class="st0" width="7" height="7"/>
<rect x="435.7" class="st0" width="7" height="7"/>
<rect x="442.9" class="st0" width="7" height="7"/>
<rect x="450.2" class="st0" width="7" height="7"/>
<rect x="457.4" class="st0" width="7" height="7"/>
<rect x="464.7" class="st0" width="7" height="7"/>
<rect x="472" class="st0" width="7" height="7"/>
<rect x="479.2" class="st0" width="7" height="7"/>
<rect x="486.5" class="st0" width="7" height="7"/>
<rect x="493.7" class="st0" width="7" height="7"/>
<rect x="501" class="st0" width="7" height="7"/>
<rect x="508.3" class="st0" width="7" height="7"/>
<rect x="515.5" class="st0" width="7" height="7"/>
<rect x="522.8" class="st0" width="7" height="7"/>
<rect x="530" class="st0" width="7" height="7"/>
<rect x="537.3" class="st0" width="7" height="7"/>
<rect x="544.6" class="st0" width="7" height="7"/>
<rect x="551.8" class="st0" width="7" height="7"/>
<rect x="559.1" class="st0" width="7" height="7"/>
<rect x="566.3" class="st0" width="7" height="7"/>
<rect x="573.6" class="st0" width="7" height="7"/>
<rect x="580.9" class="st0" width="7" height="7"/>
<rect x="588.1" class="st0" width="7" height="7"/>
<rect x="595.4" class="st0" width="7" height="7"/>
<rect x="602.6" class="st0" width="7" height="7"/>
<rect x="609.9" class="st0" width="7" height="7"/>
<rect x="617.2" class="st0" width="7" height="7"/>
<rect x="624.4" class="st0" width="7" height="7"/>
<rect x="631.7" class="st0" width="7" height="7"/>
<rect x="638.9" class="st0" width="7" height="7"/>
<rect x="646.2" class="st0" width="7" height="7"/>
<rect x="653.5" class="st0" width="7" height="7"/>
<rect x="660.7" class="st0" width="7" height="7"/>
<rect x="668" class="st0" width="7" height="7"/>
<rect x="675.2" class="st0" width="7" height="7"/>
<rect x="682.5" class="st0" width="7" height="7"/>
<rect x="689.8" class="st0" width="7" height="7"/>
<rect x="697" class="st0" width="7" height="7"/>
<rect x="704.3" class="st0" width="7" height="7"/>
<rect x="711.5" class="st0" width="7" height="7"/>
<rect x="718.8" class="st0" width="7" height="7"/>
<rect x="726.1" class="st0" width="7" height="7"/>
<rect x="733.3" class="st0" width="7" height="7"/>
<rect x="740.6" class="st0" width="7" height="7"/>
<rect x="747.8" class="st0" width="7" height="7"/>
<rect x="755.1" class="st0" width="7" height="7"/>
<rect x="762.4" class="st0" width="7" height="7"/>
<rect x="769.6" class="st0" width="7" height="7"/>
<rect x="776.9" class="st0" width="7" height="7"/>
<rect x="784.1" class="st0" width="7" height="7"/>
<rect x="791.4" class="st0" width="7" height="7"/>
<rect x="798.7" class="st0" width="7" height="7"/>
<rect x="958.4" class="st0" width="7" height="7"/>
<rect x="965.7" y="7.3" class="st0" width="7" height="7"/>
<rect x="972.9" y="14.5" class="st0" width="7" height="7"/>
<rect x="972.9" y="21.8" class="st0" width="7" height="7"/>
<rect x="972.9" y="29" class="st0" width="7" height="7"/>
<rect x="972.9" y="36.3" class="st0" width="7" height="7"/>
<rect x="972.9" y="43.6" class="st0" width="7" height="7"/>
<rect x="972.9" y="50.8" class="st0" width="7" height="7"/>
<rect x="973" y="58.1" class="st0" width="7" height="7"/>
<rect x="973" y="65.3" class="st0" width="7" height="7"/>
<rect x="973" y="72.6" class="st0" width="7" height="7"/>
<rect x="973" y="79.9" class="st0" width="7" height="7"/>
<rect x="973" y="87.1" class="st0" width="7" height="7"/>
<rect x="980.2" y="21.8" class="st0" width="7" height="7"/>
<rect x="980.2" y="29" class="st0" width="7" height="7"/>
<rect x="980.2" y="36.3" class="st0" width="7" height="7"/>
<rect x="980.2" y="43.6" class="st0" width="7" height="7"/>
<rect x="980.2" y="50.8" class="st0" width="7" height="7"/>
<rect x="980.2" y="58.1" class="st0" width="7" height="7"/>
<rect x="980.2" y="65.3" class="st0" width="7" height="7"/>
<rect x="980.2" y="72.6" class="st0" width="7" height="7"/>
<rect x="980.2" y="79.9" class="st0" width="7" height="7"/>
<rect x="980.2" y="87.1" class="st0" width="7" height="7"/>
<rect x="0.1" y="94.4" class="st0" width="7" height="7"/>
<rect x="7.3" y="101.6" class="st0" width="7" height="7"/>
<rect x="21.9" y="108.9" class="st0" width="7" height="7"/>
<rect x="14.6" y="108.9" class="st0" width="7" height="7"/>
<rect x="29.1" y="108.9" class="st0" width="7" height="7"/>
<rect x="36.4" y="108.9" class="st0" width="7" height="7"/>
<rect x="43.6" y="108.9" class="st0" width="7" height="7"/>
<rect x="50.9" y="108.9" class="st0" width="7" height="7"/>
<rect x="58.2" y="108.9" class="st0" width="7" height="7"/>
<rect x="65.4" y="108.9" class="st0" width="7" height="7"/>
<rect x="72.7" y="108.9" class="st0" width="7" height="7"/>
<rect x="79.9" y="108.9" class="st0" width="7" height="7"/>
<rect x="87.2" y="108.9" class="st0" width="7" height="7"/>
<rect x="94.5" y="108.9" class="st0" width="7" height="7"/>
<rect x="101.7" y="108.9" class="st0" width="7" height="7"/>
<rect x="109" y="108.9" class="st0" width="7" height="7"/>
<rect x="116.2" y="108.9" class="st0" width="7" height="7"/>
<rect x="123.5" y="108.9" class="st0" width="7" height="7"/>
<rect x="130.8" y="108.9" class="st0" width="7" height="7"/>
<rect x="138" y="108.9" class="st0" width="7" height="7"/>
<rect x="145.3" y="108.9" class="st0" width="7" height="7"/>
<rect x="152.5" y="108.9" class="st0" width="7" height="7"/>
<rect x="159.8" y="108.9" class="st0" width="7" height="7"/>
<rect x="167.1" y="108.9" class="st0" width="7" height="7"/>
<rect x="174.3" y="108.9" class="st0" width="7" height="7"/>
<rect x="181.6" y="108.9" class="st0" width="7" height="7"/>
<rect x="188.8" y="108.9" class="st0" width="7" height="7"/>
<rect x="196.1" y="108.9" class="st0" width="7" height="7"/>
<rect x="203.4" y="108.9" class="st0" width="7" height="7"/>
<rect x="210.6" y="108.9" class="st0" width="7" height="7"/>
<rect x="217.9" y="108.9" class="st0" width="7" height="7"/>
<rect x="225.1" y="108.9" class="st0" width="7" height="7"/>
<rect x="232.4" y="108.9" class="st0" width="7" height="7"/>
<rect x="239.7" y="108.9" class="st0" width="7" height="7"/>
<rect x="246.9" y="108.9" class="st0" width="7" height="7"/>
<rect x="254.2" y="108.9" class="st0" width="7" height="7"/>
<rect x="261.4" y="108.9" class="st0" width="7" height="7"/>
<rect x="268.7" y="108.9" class="st0" width="7" height="7"/>
<rect x="276" y="108.9" class="st0" width="7" height="7"/>
<rect x="283.2" y="108.9" class="st0" width="7" height="7"/>
<rect x="290.5" y="108.9" class="st0" width="7" height="7"/>
<rect x="297.8" y="108.9" class="st0" width="7" height="7"/>
<rect x="305" y="108.9" class="st0" width="7" height="7"/>
<rect x="312.3" y="108.9" class="st0" width="7" height="7"/>
<rect x="319.5" y="108.9" class="st0" width="7" height="7"/>
<rect x="326.8" y="108.9" class="st0" width="7" height="7"/>
<rect x="334" y="108.9" class="st0" width="7" height="7"/>
<rect x="341.3" y="108.9" class="st0" width="7" height="7"/>
<rect x="348.6" y="108.9" class="st0" width="7" height="7"/>
<rect x="355.8" y="108.9" class="st0" width="7" height="7"/>
<rect x="363.1" y="108.9" class="st0" width="7" height="7"/>
<rect x="370.3" y="108.9" class="st0" width="7" height="7"/>
<rect x="377.6" y="108.9" class="st0" width="7" height="7"/>
<rect x="384.9" y="108.9" class="st0" width="7" height="7"/>
<rect x="392.1" y="108.9" class="st0" width="7" height="7"/>
<rect x="399.4" y="108.9" class="st0" width="7" height="7"/>
<rect x="406.6" y="108.9" class="st0" width="7" height="7"/>
<rect x="413.9" y="108.9" class="st0" width="7" height="7"/>
<rect x="421.2" y="108.9" class="st0" width="7" height="7"/>
<rect x="428.4" y="108.9" class="st0" width="7" height="7"/>
<rect x="435.7" y="108.9" class="st0" width="7" height="7"/>
<rect x="442.9" y="108.9" class="st0" width="7" height="7"/>
<rect x="450.2" y="108.9" class="st0" width="7" height="7"/>
<rect x="457.5" y="108.9" class="st0" width="7" height="7"/>
<rect x="464.7" y="108.9" class="st0" width="7" height="7"/>
<rect x="472" y="108.9" class="st0" width="7" height="7"/>
<rect x="479.2" y="108.9" class="st0" width="7" height="7"/>
<rect x="486.5" y="108.9" class="st0" width="7" height="7"/>
<rect x="493.8" y="108.9" class="st0" width="7" height="7"/>
<rect x="501" y="108.9" class="st0" width="7" height="7"/>
<rect x="508.3" y="108.9" class="st0" width="7" height="7"/>
<rect x="515.5" y="108.9" class="st0" width="7" height="7"/>
<rect x="522.8" y="108.9" class="st0" width="7" height="7"/>
<rect x="530.1" y="108.9" class="st0" width="7" height="7"/>
<rect x="537.3" y="108.9" class="st0" width="7" height="7"/>
<rect x="544.6" y="108.9" class="st0" width="7" height="7"/>
<rect x="551.8" y="108.9" class="st0" width="7" height="7"/>
<rect x="559.1" y="108.9" class="st0" width="7" height="7"/>
<rect x="566.4" y="108.9" class="st0" width="7" height="7"/>
<rect x="573.6" y="108.9" class="st0" width="7" height="7"/>
<rect x="580.9" y="108.9" class="st0" width="7" height="7"/>
<rect x="588.1" y="108.9" class="st0" width="7" height="7"/>
<rect x="595.4" y="108.9" class="st0" width="7" height="7"/>
<rect x="602.7" y="108.9" class="st0" width="7" height="7"/>
<rect x="609.9" y="108.9" class="st0" width="7" height="7"/>
<rect x="617.2" y="108.9" class="st0" width="7" height="7"/>
<rect x="624.5" y="108.9" class="st0" width="7" height="7"/>
<rect x="631.7" y="108.9" class="st0" width="7" height="7"/>
<rect x="639" y="108.9" class="st0" width="7" height="7"/>
<rect x="646.2" y="108.9" class="st0" width="7" height="7"/>
<rect x="653.5" y="108.9" class="st0" width="7" height="7"/>
<rect x="660.8" y="108.9" class="st0" width="7" height="7"/>
<rect x="668" y="108.9" class="st0" width="7" height="7"/>
<rect x="675.3" y="108.9" class="st0" width="7" height="7"/>
<rect x="682.5" y="108.9" class="st0" width="7" height="7"/>
<rect x="689.8" y="108.9" class="st0" width="7" height="7"/>
<rect x="697" y="108.9" class="st0" width="7" height="7"/>
<rect x="704.3" y="108.9" class="st0" width="7" height="7"/>
<rect x="711.6" y="108.9" class="st0" width="7" height="7"/>
<rect x="718.8" y="108.9" class="st0" width="7" height="7"/>
<rect x="726.1" y="108.9" class="st0" width="7" height="7"/>
<rect x="733.3" y="108.9" class="st0" width="7" height="7"/>
<rect x="740.6" y="108.9" class="st0" width="7" height="7"/>
<rect x="747.9" y="108.9" class="st0" width="7" height="7"/>
<rect x="755.1" y="108.9" class="st0" width="7" height="7"/>
<rect x="762.4" y="108.9" class="st0" width="7" height="7"/>
<rect x="769.6" y="108.9" class="st0" width="7" height="7"/>
<rect x="776.9" y="108.9" class="st0" width="7" height="7"/>
<rect x="784.2" y="108.9" class="st0" width="7" height="7"/>
<rect x="791.4" y="108.9" class="st0" width="7" height="7"/>
<rect x="798.7" y="108.9" class="st0" width="7" height="7"/>
<rect x="958.5" y="101.6" class="st0" width="7" height="7"/>
<rect x="958.5" y="108.9" class="st0" width="7" height="7"/>
<rect x="965.7" y="108.9" class="st0" width="7" height="7"/>
<rect x="21.9" y="116.2" class="st0" width="7" height="7"/>
<rect x="29.1" y="116.2" class="st0" width="7" height="7"/>
<rect x="36.4" y="116.2" class="st0" width="7" height="7"/>
<rect x="43.6" y="116.2" class="st0" width="7" height="7"/>
<rect x="50.9" y="116.2" class="st0" width="7" height="7"/>
<rect x="58.2" y="116.2" class="st0" width="7" height="7"/>
<rect x="65.4" y="116.2" class="st0" width="7" height="7"/>
<rect x="72.7" y="116.2" class="st0" width="7" height="7"/>
<rect x="79.9" y="116.2" class="st0" width="7" height="7"/>
<rect x="87.2" y="116.2" class="st0" width="7" height="7"/>
<rect x="94.5" y="116.2" class="st0" width="7" height="7"/>
<rect x="101.7" y="116.2" class="st0" width="7" height="7"/>
<rect x="109" y="116.2" class="st0" width="7" height="7"/>
<rect x="116.2" y="116.2" class="st0" width="7" height="7"/>
<rect x="123.5" y="116.2" class="st0" width="7" height="7"/>
<rect x="130.8" y="116.2" class="st0" width="7" height="7"/>
<rect x="138" y="116.2" class="st0" width="7" height="7"/>
<rect x="145.3" y="116.2" class="st0" width="7" height="7"/>
<rect x="152.5" y="116.2" class="st0" width="7" height="7"/>
<rect x="159.8" y="116.2" class="st0" width="7" height="7"/>
<rect x="167.1" y="116.2" class="st0" width="7" height="7"/>
<rect x="174.3" y="116.2" class="st0" width="7" height="7"/>
<rect x="181.6" y="116.2" class="st0" width="7" height="7"/>
<rect x="188.8" y="116.2" class="st0" width="7" height="7"/>
<rect x="196.1" y="116.2" class="st0" width="7" height="7"/>
<rect x="203.4" y="116.2" class="st0" width="7" height="7"/>
<rect x="210.6" y="116.2" class="st0" width="7" height="7"/>
<rect x="217.9" y="116.2" class="st0" width="7" height="7"/>
<rect x="225.1" y="116.2" class="st0" width="7" height="7"/>
<rect x="232.4" y="116.2" class="st0" width="7" height="7"/>
<rect x="239.7" y="116.2" class="st0" width="7" height="7"/>
<rect x="246.9" y="116.2" class="st0" width="7" height="7"/>
<rect x="254.2" y="116.2" class="st0" width="7" height="7"/>
<rect x="261.4" y="116.2" class="st0" width="7" height="7"/>
<rect x="268.7" y="116.2" class="st0" width="7" height="7"/>
<rect x="276" y="116.2" class="st0" width="7" height="7"/>
<rect x="283.2" y="116.2" class="st0" width="7" height="7"/>
<rect x="290.5" y="116.2" class="st0" width="7" height="7"/>
<rect x="297.8" y="116.2" class="st0" width="7" height="7"/>
<rect x="305" y="116.2" class="st0" width="7" height="7"/>
<rect x="312.3" y="116.2" class="st0" width="7" height="7"/>
<rect x="319.5" y="116.2" class="st0" width="7" height="7"/>
<rect x="326.8" y="116.2" class="st0" width="7" height="7"/>
<rect x="334" y="116.2" class="st0" width="7" height="7"/>
<rect x="341.3" y="116.2" class="st0" width="7" height="7"/>
<rect x="348.6" y="116.2" class="st0" width="7" height="7"/>
<rect x="355.8" y="116.2" class="st0" width="7" height="7"/>
<rect x="363.1" y="116.2" class="st0" width="7" height="7"/>
<rect x="370.3" y="116.2" class="st0" width="7" height="7"/>
<rect x="377.6" y="116.2" class="st0" width="7" height="7"/>
<rect x="384.9" y="116.2" class="st0" width="7" height="7"/>
<rect x="392.1" y="116.2" class="st0" width="7" height="7"/>
<rect x="399.4" y="116.2" class="st0" width="7" height="7"/>
<rect x="406.6" y="116.2" class="st0" width="7" height="7"/>
<rect x="413.9" y="116.2" class="st0" width="7" height="7"/>
<rect x="421.2" y="116.2" class="st0" width="7" height="7"/>
<rect x="428.4" y="116.2" class="st0" width="7" height="7"/>
<rect x="435.7" y="116.2" class="st0" width="7" height="7"/>
<rect x="442.9" y="116.2" class="st0" width="7" height="7"/>
<rect x="450.2" y="116.2" class="st0" width="7" height="7"/>
<rect x="457.5" y="116.2" class="st0" width="7" height="7"/>
<rect x="464.7" y="116.2" class="st0" width="7" height="7"/>
<rect x="472" y="116.2" class="st0" width="7" height="7"/>
<rect x="479.2" y="116.2" class="st0" width="7" height="7"/>
<rect x="486.5" y="116.2" class="st0" width="7" height="7"/>
<rect x="493.8" y="116.2" class="st0" width="7" height="7"/>
<rect x="501" y="116.2" class="st0" width="7" height="7"/>
<rect x="508.3" y="116.2" class="st0" width="7" height="7"/>
<rect x="515.5" y="116.2" class="st0" width="7" height="7"/>
<rect x="522.8" y="116.2" class="st0" width="7" height="7"/>
<rect x="530.1" y="116.2" class="st0" width="7" height="7"/>
<rect x="537.3" y="116.2" class="st0" width="7" height="7"/>
<rect x="544.6" y="116.2" class="st0" width="7" height="7"/>
<rect x="551.8" y="116.2" class="st0" width="7" height="7"/>
<rect x="559.1" y="116.2" class="st0" width="7" height="7"/>
<rect x="566.4" y="116.2" class="st0" width="7" height="7"/>
<rect x="573.6" y="116.2" class="st0" width="7" height="7"/>
<rect x="580.9" y="116.2" class="st0" width="7" height="7"/>
<rect x="588.1" y="116.2" class="st0" width="7" height="7"/>
<rect x="595.4" y="116.2" class="st0" width="7" height="7"/>
<rect x="602.7" y="116.2" class="st0" width="7" height="7"/>
<rect x="609.9" y="116.2" class="st0" width="7" height="7"/>
<rect x="617.2" y="116.2" class="st0" width="7" height="7"/>
<rect x="624.5" y="116.2" class="st0" width="7" height="7"/>
<rect x="631.7" y="116.2" class="st0" width="7" height="7"/>
<rect x="639" y="116.2" class="st0" width="7" height="7"/>
<rect x="646.2" y="116.2" class="st0" width="7" height="7"/>
<rect x="653.5" y="116.2" class="st0" width="7" height="7"/>
<rect x="660.8" y="116.2" class="st0" width="7" height="7"/>
<rect x="668" y="116.2" class="st0" width="7" height="7"/>
<rect x="675.3" y="116.2" class="st0" width="7" height="7"/>
<rect x="682.5" y="116.2" class="st0" width="7" height="7"/>
<rect x="689.8" y="116.2" class="st0" width="7" height="7"/>
<rect x="697" y="116.2" class="st0" width="7" height="7"/>
<rect x="704.3" y="116.2" class="st0" width="7" height="7"/>
<rect x="711.6" y="116.2" class="st0" width="7" height="7"/>
<rect x="718.8" y="116.2" class="st0" width="7" height="7"/>
<rect x="726.1" y="116.2" class="st0" width="7" height="7"/>
<rect x="733.3" y="116.2" class="st0" width="7" height="7"/>
<rect x="740.6" y="116.2" class="st0" width="7" height="7"/>
<rect x="747.9" y="116.2" class="st0" width="7" height="7"/>
<rect x="755.1" y="116.2" class="st0" width="7" height="7"/>
<rect x="762.4" y="116.2" class="st0" width="7" height="7"/>
<rect x="769.6" y="116.2" class="st0" width="7" height="7"/>
<rect x="776.9" y="116.2" class="st0" width="7" height="7"/>
<rect x="784.2" y="116.2" class="st0" width="7" height="7"/>
<rect x="791.4" y="116.2" class="st0" width="7" height="7"/>
<rect x="798.7" y="116.2" class="st0" width="7" height="7"/>
<rect x="806" class="st0" width="7" height="7"/>
<rect x="806" y="108.9" class="st0" width="7" height="7"/>
<rect x="806" y="116.2" class="st0" width="7" height="7"/>
<rect x="813.2" class="st0" width="7" height="7"/>
<rect x="813.2" y="108.9" class="st0" width="7" height="7"/>
<rect x="813.2" y="116.2" class="st0" width="7" height="7"/>
<rect x="820.5" class="st0" width="7" height="7"/>
<rect x="820.5" y="108.9" class="st0" width="7" height="7"/>
<rect x="820.5" y="116.2" class="st0" width="7" height="7"/>
<rect x="827.7" class="st0" width="7" height="7"/>
<rect x="827.7" y="108.9" class="st0" width="7" height="7"/>
<rect x="827.7" y="116.2" class="st0" width="7" height="7"/>
<rect x="835" class="st0" width="7" height="7"/>
<rect x="835" y="108.9" class="st0" width="7" height="7"/>
<rect x="835" y="116.2" class="st0" width="7" height="7"/>
<rect x="842.3" class="st0" width="7" height="7"/>
<rect x="842.3" y="108.9" class="st0" width="7" height="7"/>
<rect x="842.3" y="116.2" class="st0" width="7" height="7"/>
<rect x="849.5" class="st0" width="7" height="7"/>
<rect x="849.5" y="108.9" class="st0" width="7" height="7"/>
<rect x="849.5" y="116.2" class="st0" width="7" height="7"/>
<rect x="856.8" class="st0" width="7" height="7"/>
<rect x="856.8" y="108.9" class="st0" width="7" height="7"/>
<rect x="856.8" y="116.2" class="st0" width="7" height="7"/>
<rect x="864" class="st0" width="7" height="7"/>
<rect x="864" y="108.9" class="st0" width="7" height="7"/>
<rect x="864" y="116.2" class="st0" width="7" height="7"/>
<rect x="871.3" class="st0" width="7" height="7"/>
<rect x="871.3" y="108.9" class="st0" width="7" height="7"/>
<rect x="871.3" y="116.2" class="st0" width="7" height="7"/>
<rect x="878.6" class="st0" width="7" height="7"/>
<rect x="878.6" y="108.9" class="st0" width="7" height="7"/>
<rect x="878.6" y="116.2" class="st0" width="7" height="7"/>
<rect x="885.8" class="st0" width="7" height="7"/>
<rect x="885.8" y="108.9" class="st0" width="7" height="7"/>
<rect x="885.8" y="116.2" class="st0" width="7" height="7"/>
<rect x="893.1" class="st0" width="7" height="7"/>
<rect x="893.1" y="108.9" class="st0" width="7" height="7"/>
<rect x="893.1" y="116.2" class="st0" width="7" height="7"/>
<rect x="900.3" class="st0" width="7" height="7"/>
<rect x="900.3" y="108.9" class="st0" width="7" height="7"/>
<rect x="900.3" y="116.2" class="st0" width="7" height="7"/>
<rect x="907.6" class="st0" width="7" height="7"/>
<rect x="907.6" y="108.9" class="st0" width="7" height="7"/>
<rect x="907.6" y="116.2" class="st0" width="7" height="7"/>
<rect x="914.9" class="st0" width="7" height="7"/>
<rect x="914.9" y="108.9" class="st0" width="7" height="7"/>
<rect x="914.9" y="116.2" class="st0" width="7" height="7"/>
<rect x="922.1" class="st0" width="7" height="7"/>
<rect x="922.1" y="108.9" class="st0" width="7" height="7"/>
<rect x="922.1" y="116.2" class="st0" width="7" height="7"/>
<rect x="929.4" class="st0" width="7" height="7"/>
<rect x="929.4" y="108.9" class="st0" width="7" height="7"/>
<rect x="929.4" y="116.2" class="st0" width="7" height="7"/>
<rect x="936.6" class="st0" width="7" height="7"/>
<rect x="936.6" y="108.9" class="st0" width="7" height="7"/>
<rect x="936.6" y="116.2" class="st0" width="7" height="7"/>
<rect x="943.9" class="st0" width="7" height="7"/>
<rect x="943.9" y="108.9" class="st0" width="7" height="7"/>
<rect x="943.9" y="116.2" class="st0" width="7" height="7"/>
<rect x="951.2" class="st0" width="7" height="7"/>
<rect x="951.2" y="108.9" class="st0" width="7" height="7"/>
<rect x="951.2" y="116.2" class="st0" width="7" height="7"/>
<rect x="958.5" y="116.2" class="st0" width="7" height="7"/>
<rect x="965.7" y="94.4" class="st0" width="7" height="7"/>
<rect x="965.7" y="101.6" class="st0" width="7" height="7"/>
<rect x="973" y="101.6" class="st0" width="7" height="7"/>
<rect x="973" y="94.4" class="st0" width="7" height="7"/>
<rect x="980.2" y="94.4" class="st0" width="7" height="7"/>
</svg>
