<?xml version="1.0" encoding="utf-8"?>
<!-- Generator: Adobe Illustrator 27.3.1, SVG Export Plug-In . SVG Version: 6.00 Build 0)  -->
<svg version="1.1" id="Слой_1" xmlns="http://www.w3.org/2000/svg" xmlns:xlink="http://www.w3.org/1999/xlink" x="0px" y="0px"
	 viewBox="0 0 870.9 595.1" style="enable-background:new 0 0 870.9 595.1;" xml:space="preserve">
<style type="text/css">
	.st0{fill:#1E0E01;}
</style>
<path class="st0" d="M18.1,239.6h7v7h-7V239.6z M18.1,246.8h7v7h-7V246.8z M25.4,217.8h7v7h-7V217.8z M25.4,225h7v7h-7V225z
	 M25.4,232.3h7v7h-7V232.3z M25.4,239.6h7v7h-7V239.6z M25.4,246.8h7v7h-7V246.8z M32.7,203.3h7v7h-7V203.3z M32.7,210.5h7v7h-7
	V210.5z M32.7,217.8h7v7h-7V217.8z M32.7,232.3h7v7h-7V232.3z M32.7,239.6h7v7h-7V239.6z M32.7,246.8h7v7h-7V246.8z M39.9,188.7h7v7
	h-7V188.7z M39.9,196h7v7h-7V196z M39.9,203.3h7v7h-7V203.3z M39.9,217.8h7v7h-7V217.8z M39.9,225h7v7h-7V225z M39.9,232.3h7v7h-7
	V232.3z M39.9,246.8h7v7h-7V246.8z M39.9,254.1h7v7h-7V254.1z M47.2,174.2h7v7h-7V174.2z M47.2,181.5h7v7h-7V181.5z M47.2,188.7h7v7
	h-7V188.7z M47.2,203.3h7v7h-7V203.3z M47.2,210.5h7v7h-7V210.5z M47.2,217.8h7v7h-7V217.8z M47.2,232.3h7v7h-7V232.3z M47.2,239.6
	h7v7h-7V239.6z M47.2,246.8h7v7h-7V246.8z M47.2,254.1h7v7h-7V254.1z M54.4,167h7v7h-7V167z M54.4,174.2h7v7h-7V174.2z M54.4,181.5
	h7v7h-7V181.5z M54.4,188.7h7v7h-7V188.7z M54.4,196h7v7h-7V196z M54.4,203.3h7v7h-7V203.3z M54.4,217.8h7v7h-7V217.8z M54.4,225h7
	v7h-7V225z M54.4,232.3h7v7h-7V232.3z M54.4,246.8h7v7h-7V246.8z M54.4,254.1h7v7h-7V254.1z M61.7,152.5h7v7h-7V152.5z M61.7,159.7
	h7v7h-7V159.7z M61.7,167h7v7h-7V167z M61.7,174.2h7v7h-7V174.2z M61.7,181.5h7v7h-7V181.5z M61.7,188.7h7v7h-7V188.7z M61.7,203.3
	h7v7h-7V203.3z M61.7,210.5h7v7h-7V210.5z M61.7,217.8h7v7h-7V217.8z M61.7,232.3h7v7h-7V232.3z M61.7,239.6h7v7h-7V239.6z
	 M61.7,246.8h7v7h-7V246.8z M61.7,254.1h7v7h-7V254.1z M68.9,145.2h7v7h-7V145.2z M68.9,152.5h7v7h-7V152.5z M68.9,159.7h7v7h-7
	V159.7z M68.9,167h7v7h-7V167z M68.9,174.2h7v7h-7V174.2z M68.9,181.5h7v7h-7V181.5z M68.9,188.7h7v7h-7V188.7z M68.9,196h7v7h-7
	V196z M68.9,203.3h7v7h-7V203.3z M68.9,217.8h7v7h-7V217.8z M68.9,225h7v7h-7V225z M68.9,232.3h7v7h-7V232.3z M68.9,246.8h7v7h-7
	V246.8z M68.9,254.1h7v7h-7V254.1z M76.2,137.9h7v7h-7V137.9z M76.2,145.2h7v7h-7V145.2z M76.2,152.5h7v7h-7V152.5z M76.2,159.7h7v7
	h-7V159.7z M76.2,167h7v7h-7V167z M76.2,174.2h7v7h-7V174.2z M76.2,181.5h7v7h-7V181.5z M76.2,188.7h7v7h-7V188.7z M76.2,196h7v7h-7
	V196z M76.2,203.3h7v7h-7V203.3z M76.2,210.5h7v7h-7V210.5z M76.2,217.8h7v7h-7V217.8z M76.2,232.3h7v7h-7V232.3z M76.2,239.6h7v7
	h-7V239.6z M76.2,246.8h7v7h-7V246.8z M76.2,254.1h7v7h-7V254.1z M83.4,130.7h7v7h-7V130.7z M83.4,137.9h7v7h-7V137.9z M83.4,145.2
	h7v7h-7V145.2z M83.4,152.5h7v7h-7V152.5z M83.4,159.7h7v7h-7V159.7z M83.4,167h7v7h-7V167z M83.4,174.2h7v7h-7V174.2z M83.4,181.5
	h7v7h-7V181.5z M83.4,188.7h7v7h-7V188.7z M83.4,196h7v7h-7V196z M83.4,203.3h7v7h-7V203.3z M83.4,210.5h7v7h-7V210.5z M83.4,217.8
	h7v7h-7V217.8z M83.4,225h7v7h-7V225z M83.4,232.3h7v7h-7V232.3z M83.4,246.8h7v7h-7V246.8z M83.4,254.1h7v7h-7V254.1z M90.8,123.4
	h7v7h-7V123.4z M90.8,130.7h7v7h-7V130.7z M90.8,137.9h7v7h-7V137.9z M90.8,145.2h7v7h-7V145.2z M90.8,152.5h7v7h-7V152.5z
	 M90.8,159.7h7v7h-7V159.7z M90.8,167h7v7h-7V167z M90.8,174.2h7v7h-7V174.2z M90.8,181.5h7v7h-7V181.5z M90.8,188.7h7v7h-7V188.7z
	 M90.8,196h7v7h-7V196z M90.8,203.3h7v7h-7V203.3z M90.8,210.5h7v7h-7V210.5z M90.8,217.8h7v7h-7V217.8z M90.8,225h7v7h-7V225z
	 M90.8,232.3h7v7h-7V232.3z M90.8,239.6h7v7h-7V239.6z M90.8,246.8h7v7h-7V246.8z M90.8,254.1h7v7h-7V254.1z M97.9,116.2h7v7h-7
	V116.2z M97.9,123.4h7v7h-7V123.4z M97.9,130.7h7v7h-7V130.7z M97.9,137.9h7v7h-7V137.9z M97.9,145.2h7v7h-7V145.2z M97.9,152.5h7v7
	h-7V152.5z M97.9,159.7h7v7h-7V159.7z M97.9,167h7v7h-7V167z M97.9,174.2h7v7h-7V174.2z M97.9,181.5h7v7h-7V181.5z M97.9,188.7h7v7
	h-7V188.7z M97.9,196h7v7h-7V196z M97.9,203.3h7v7h-7V203.3z M97.9,210.5h7v7h-7V210.5z M97.9,217.8h7v7h-7V217.8z M97.9,225h7v7h-7
	V225z M97.9,232.3h7v7h-7V232.3z M97.9,239.6h7v7h-7V239.6z M97.9,246.8h7v7h-7V246.8z M97.9,254.1h7v7h-7V254.1z M97.9,261.4h7v7
	h-7V261.4z M105.2,108.9h7v7h-7V108.9z M105.2,116.2h7v7h-7V116.2z M105.2,123.4h7v7h-7V123.4z M105.2,130.7h7v7h-7V130.7z
	 M105.2,137.9h7v7h-7V137.9z M105.2,145.2h7v7h-7V145.2z M105.2,152.5h7v7h-7V152.5z M105.2,159.7h7v7h-7V159.7z M105.2,167h7v7h-7
	V167z M105.2,174.2h7v7h-7V174.2z M105.2,181.5h7v7h-7V181.5z M105.2,188.7h7v7h-7V188.7z M105.2,196h7v7h-7V196z M105.2,203.3h7v7
	h-7V203.3z M105.2,210.5h7v7h-7V210.5z M105.2,217.8h7v7h-7V217.8z M105.2,225h7v7h-7V225z M105.2,232.3h7v7h-7V232.3z M105.2,239.6
	h7v7h-7V239.6z M105.2,246.8h7v7h-7V246.8z M105.2,254.1h7v7h-7V254.1z M105.2,261.4h7v7h-7V261.4z M112.5,101.6h7v7h-7V101.6z
	 M112.5,108.9h7v7h-7V108.9z M112.5,116.2h7v7h-7V116.2z M112.5,123.4h7v7h-7V123.4z M112.5,130.7h7v7h-7V130.7z M112.5,137.9h7v7
	h-7V137.9z M112.5,145.2h7v7h-7V145.2z M112.5,152.5h7v7h-7V152.5z M112.5,159.7h7v7h-7V159.7z M112.5,167h7v7h-7V167z M112.5,174.2
	h7v7h-7V174.2z M112.5,181.5h7v7h-7V181.5z M112.5,188.7h7v7h-7V188.7z M112.5,196h7v7h-7V196z M112.5,203.3h7v7h-7V203.3z
	 M112.5,210.5h7v7h-7V210.5z M112.5,217.8h7v7h-7V217.8z M112.5,225h7v7h-7V225z M112.5,232.3h7v7h-7V232.3z M112.5,239.6h7v7h-7
	V239.6z M112.5,246.8h7v7h-7V246.8z M112.5,254.1h7v7h-7V254.1z M112.5,261.4h7v7h-7V261.4z M119.8,94.4h7v7h-7V94.4z M119.8,101.6
	h7v7h-7V101.6z M119.8,108.9h7v7h-7V108.9z M119.8,116.2h7v7h-7V116.2z M119.8,123.4h7v7h-7V123.4z M119.8,130.7h7v7h-7V130.7z
	 M119.8,137.9h7v7h-7V137.9z M119.8,145.2h7v7h-7V145.2z M119.8,152.5h7v7h-7V152.5z M119.8,159.7h7v7h-7V159.7z M119.8,167h7v7h-7
	V167z M119.8,174.2h7v7h-7V174.2z M119.8,181.5h7v7h-7V181.5z M119.8,188.7h7v7h-7V188.7z M119.8,196h7v7h-7V196z M119.8,203.3h7v7
	h-7V203.3z M119.8,210.5h7v7h-7V210.5z M119.8,217.8h7v7h-7V217.8z M119.8,225h7v7h-7V225z M119.8,232.3h7v7h-7V232.3z M119.8,239.6
	h7v7h-7V239.6z M119.8,246.8h7v7h-7V246.8z M119.8,254.1h7v7h-7V254.1z M119.8,261.4h7v7h-7V261.4z M127,87.1h7v7h-7V87.1z
	 M127,94.4h7v7h-7V94.4z M127,101.6h7v7h-7V101.6z M127,108.9h7v7h-7V108.9z M127,116.2h7v7h-7V116.2z M127,123.4h7v7h-7V123.4z
	 M127,130.7h7v7h-7V130.7z M127,137.9h7v7h-7V137.9z M127,145.2h7v7h-7V145.2z M127,152.5h7v7h-7V152.5z M127,159.7h7v7h-7V159.7z
	 M127,167h7v7h-7V167z M127,174.2h7v7h-7V174.2z M127,181.5h7v7h-7V181.5z M127,188.7h7v7h-7V188.7z M127,196h7v7h-7V196z
	 M127,203.3h7v7h-7V203.3z M127,210.5h7v7h-7V210.5z M127,217.8h7v7h-7V217.8z M127,225h7v7h-7V225z M127,232.3h7v7h-7V232.3z
	 M127,239.6h7v7h-7V239.6z M127,246.8h7v7h-7V246.8z M127,254.1h7v7h-7V254.1z M127,261.4h7v7h-7V261.4z M127,442.8h7v7h-7V442.8z
	 M127,450.1h7v7h-7V450.1z M134.2,87.1h7v7h-7V87.1z M134.2,94.4h7v7h-7V94.4z M134.2,101.6h7v7h-7V101.6z M134.2,108.9h7v7h-7
	V108.9z M134.2,116.2h7v7h-7V116.2z M134.2,123.4h7v7h-7V123.4z M134.2,130.7h7v7h-7V130.7z M134.2,137.9h7v7h-7V137.9z
	 M134.2,145.2h7v7h-7V145.2z M134.2,152.5h7v7h-7V152.5z M134.2,159.7h7v7h-7V159.7z M134.2,167h7v7h-7V167z M134.2,174.2h7v7h-7
	V174.2z M134.2,181.5h7v7h-7V181.5z M134.2,188.7h7v7h-7V188.7z M134.2,196h7v7h-7V196z M134.2,203.3h7v7h-7V203.3z M134.2,210.5h7
	v7h-7V210.5z M134.2,217.8h7v7h-7V217.8z M134.2,225h7v7h-7V225z M134.2,232.3h7v7h-7V232.3z M134.2,239.6h7v7h-7V239.6z
	 M134.2,246.8h7v7h-7V246.8z M134.2,254.1h7v7h-7V254.1z M134.2,261.4h7v7h-7V261.4z M134.2,435.6h7v7h-7V435.6z M134.2,442.8h7v7
	h-7V442.8z M134.2,450.1h7v7h-7V450.1z M112.5,464.6h7v7h-7V464.6z M119.8,457.4h7v7h-7V457.4z M119.8,464.6h7v7h-7V464.6z
	 M119.8,471.9h7v7h-7V471.9z M127,457.4h7v7h-7V457.4z M127,464.6h7v7h-7V464.6z M127,471.9h7v7h-7V471.9z M127,479.2h7v7h-7V479.2z
	 M134.2,464.6h7v7h-7V464.6z M134.2,471.9h7v7h-7V471.9z M134.2,479.2h7v7h-7V479.2z M141.6,79.8h7v7h-7V79.8z M141.6,87.1h7v7h-7
	V87.1z M141.6,94.4h7v7h-7V94.4z M141.6,101.6h7v7h-7V101.6z M141.6,108.9h7v7h-7V108.9z M141.6,116.2h7v7h-7V116.2z M141.6,123.4h7
	v7h-7V123.4z M141.6,130.7h7v7h-7V130.7z M141.6,137.9h7v7h-7V137.9z M141.6,145.2h7v7h-7V145.2z M141.6,152.5h7v7h-7V152.5z
	 M141.6,159.7h7v7h-7V159.7z M141.6,167h7v7h-7V167z M141.6,174.2h7v7h-7V174.2z M141.6,181.5h7v7h-7V181.5z M141.6,188.7h7v7h-7
	V188.7z M141.6,196h7v7h-7V196z M141.6,203.3h7v7h-7V203.3z M141.6,210.5h7v7h-7V210.5z M141.6,217.8h7v7h-7V217.8z M141.6,225h7v7
	h-7V225z M141.6,232.3h7v7h-7V232.3z M141.6,239.6h7v7h-7V239.6z M141.6,246.8h7v7h-7V246.8z M141.6,254.1h7v7h-7V254.1z
	 M141.6,261.4h7v7h-7V261.4z M141.6,428.3h7v7h-7V428.3z M141.6,435.6h7v7h-7V435.6z M141.6,442.8h7v7h-7V442.8z M141.6,450.1h7v7
	h-7V450.1z M148.9,79.8h7v7h-7V79.8z M148.9,87.1h7v7h-7V87.1z M148.9,94.4h7v7h-7V94.4z M148.9,101.6h7v7h-7V101.6z M148.9,108.9h7
	v7h-7V108.9z M148.9,116.2h7v7h-7V116.2z M148.9,123.4h7v7h-7V123.4z M148.9,130.7h7v7h-7V130.7z M148.9,137.9h7v7h-7V137.9z
	 M148.9,145.2h7v7h-7V145.2z M148.9,152.5h7v7h-7V152.5z M148.9,159.7h7v7h-7V159.7z M148.9,167h7v7h-7V167z M148.9,174.2h7v7h-7
	V174.2z M148.9,181.5h7v7h-7V181.5z M148.9,188.7h7v7h-7V188.7z M148.9,196h7v7h-7V196z M148.9,203.3h7v7h-7V203.3z M148.9,210.5h7
	v7h-7V210.5z M148.9,217.8h7v7h-7V217.8z M148.9,225h7v7h-7V225z M148.9,232.3h7v7h-7V232.3z M148.9,239.6h7v7h-7V239.6z
	 M148.9,246.8h7v7h-7V246.8z M148.9,254.1h7v7h-7V254.1z M148.9,261.4h7v7h-7V261.4z M148.9,413.8h7v7h-7V413.8z M148.9,421.1h7v7
	h-7V421.1z M148.9,428.3h7v7h-7V428.3z M148.9,435.6h7v7h-7V435.6z M148.9,450.1h7v7h-7V450.1z M156.1,72.6h7v7h-7V72.6z
	 M156.1,79.8h7v7h-7V79.8z M156.1,87.1h7v7h-7V87.1z M156.1,94.4h7v7h-7V94.4z M156.1,101.6h7v7h-7V101.6z M156.1,108.9h7v7h-7
	V108.9z M156.1,116.2h7v7h-7V116.2z M156.1,123.4h7v7h-7V123.4z M156.1,130.7h7v7h-7V130.7z M156.1,137.9h7v7h-7V137.9z
	 M156.1,145.2h7v7h-7V145.2z M156.1,152.5h7v7h-7V152.5z M156.1,159.7h7v7h-7V159.7z M156.1,167h7v7h-7V167z M156.1,174.2h7v7h-7
	V174.2z M156.1,181.5h7v7h-7V181.5z M156.1,188.7h7v7h-7V188.7z M156.1,196h7v7h-7V196z M156.1,203.3h7v7h-7V203.3z M156.1,210.5h7
	v7h-7V210.5z M156.1,217.8h7v7h-7V217.8z M156.1,225h7v7h-7V225z M156.1,232.3h7v7h-7V232.3z M156.1,239.6h7v7h-7V239.6z
	 M156.1,246.8h7v7h-7V246.8z M156.1,254.1h7v7h-7V254.1z M156.1,261.4h7v7h-7V261.4z M156.1,268.6h7v7h-7V268.6z M156.1,406.6h7v7
	h-7V406.6z M156.1,413.8h7v7h-7V413.8z M156.1,421.1h7v7h-7V421.1z M156.1,428.3h7v7h-7V428.3z M156.1,435.6h7v7h-7V435.6z
	 M156.1,442.8h7v7h-7V442.8z M156.1,450.1h7v7h-7V450.1z M163.4,72.6h7v7h-7V72.6z M163.4,79.8h7v7h-7V79.8z M163.4,87.1h7v7h-7
	V87.1z M163.4,94.4h7v7h-7V94.4z M163.4,101.6h7v7h-7V101.6z M163.4,108.9h7v7h-7V108.9z M163.4,116.2h7v7h-7V116.2z M163.4,123.4h7
	v7h-7V123.4z M163.4,130.7h7v7h-7V130.7z M163.4,137.9h7v7h-7V137.9z M163.4,145.2h7v7h-7V145.2z M163.4,152.5h7v7h-7V152.5z
	 M163.4,159.7h7v7h-7V159.7z M163.4,167h7v7h-7V167z M163.4,174.2h7v7h-7V174.2z M163.4,181.5h7v7h-7V181.5z M163.4,188.7h7v7h-7
	V188.7z M163.4,196h7v7h-7V196z M163.4,203.3h7v7h-7V203.3z M163.4,210.5h7v7h-7V210.5z M163.4,217.8h7v7h-7V217.8z M163.4,225h7v7
	h-7V225z M163.4,232.3h7v7h-7V232.3z M163.4,239.6h7v7h-7V239.6z M163.4,246.8h7v7h-7V246.8z M163.4,254.1h7v7h-7V254.1z
	 M163.4,261.4h7v7h-7V261.4z M163.4,268.6h7v7h-7V268.6z M163.4,399.3h7v7h-7V399.3z M163.4,406.6h7v7h-7V406.6z M163.4,413.8h7v7
	h-7V413.8z M163.4,421.1h7v7h-7V421.1z M163.4,435.6h7v7h-7V435.6z M163.4,450.1h7v7h-7V450.1z M170.6,87.1h7v7h-7V87.1z
	 M170.6,94.4h7v7h-7V94.4z M170.6,101.6h7v7h-7V101.6z M170.6,108.9h7v7h-7V108.9z M170.6,116.2h7v7h-7V116.2z M170.6,123.4h7v7h-7
	V123.4z M170.6,130.7h7v7h-7V130.7z M170.6,137.9h7v7h-7V137.9z M170.6,145.2h7v7h-7V145.2z M170.6,152.5h7v7h-7V152.5z
	 M170.6,159.7h7v7h-7V159.7z M170.6,167h7v7h-7V167z M170.6,174.2h7v7h-7V174.2z M170.6,181.5h7v7h-7V181.5z M170.6,188.7h7v7h-7
	V188.7z M170.6,196h7v7h-7V196z M170.6,203.3h7v7h-7V203.3z M170.6,210.5h7v7h-7V210.5z M170.6,217.8h7v7h-7V217.8z M170.6,225h7v7
	h-7V225z M170.6,232.3h7v7h-7V232.3z M170.6,239.6h7v7h-7V239.6z M170.6,246.8h7v7h-7V246.8z M170.6,254.1h7v7h-7V254.1z
	 M170.6,261.4h7v7h-7V261.4z M170.6,268.6h7v7h-7V268.6z M170.6,384.8h7v7h-7V384.8z M170.6,392h7v7h-7V392z M170.6,399.3h7v7h-7
	V399.3z M170.6,406.6h7v7h-7V406.6z M170.6,413.8h7v7h-7V413.8z M170.6,421.1h7v7h-7V421.1z M170.6,428.3h7v7h-7V428.3z
	 M170.6,435.6h7v7h-7V435.6z M170.6,442.8h7v7h-7V442.8z M170.6,450.1h7v7h-7V450.1z M177.9,101.6h7v7h-7V101.6z M177.9,108.9h7v7
	h-7V108.9z M177.9,116.2h7v7h-7V116.2z M177.9,123.4h7v7h-7V123.4z M177.9,130.7h7v7h-7V130.7z M177.9,137.9h7v7h-7V137.9z
	 M177.9,145.2h7v7h-7V145.2z M177.9,152.5h7v7h-7V152.5z M177.9,159.7h7v7h-7V159.7z M177.9,167h7v7h-7V167z M177.9,174.2h7v7h-7
	V174.2z M177.9,181.5h7v7h-7V181.5z M177.9,188.7h7v7h-7V188.7z M177.9,196h7v7h-7V196z M177.9,203.3h7v7h-7V203.3z M177.9,210.5h7
	v7h-7V210.5z M177.9,217.8h7v7h-7V217.8z M177.9,225h7v7h-7V225z M177.9,232.3h7v7h-7V232.3z M177.9,239.6h7v7h-7V239.6z
	 M177.9,246.8h7v7h-7V246.8z M177.9,254.1h7v7h-7V254.1z M177.9,261.4h7v7h-7V261.4z M177.9,268.6h7v7h-7V268.6z M177.9,377.5h7v7
	h-7V377.5z M177.9,384.8h7v7h-7V384.8z M177.9,392h7v7h-7V392z M177.9,399.3h7v7h-7V399.3z M177.9,406.6h7v7h-7V406.6z M177.9,413.8
	h7v7h-7V413.8z M177.9,421.1h7v7h-7V421.1z M177.9,428.3h7v7h-7V428.3z M177.9,435.6h7v7h-7V435.6z M177.9,442.8h7v7h-7V442.8z
	 M177.9,450.1h7v7h-7V450.1z M185.2,123.4h7v7h-7V123.4z M185.2,130.7h7v7h-7V130.7z M185.2,137.9h7v7h-7V137.9z M185.2,145.2h7v7
	h-7V145.2z M185.2,152.5h7v7h-7V152.5z M185.2,159.7h7v7h-7V159.7z M185.2,167h7v7h-7V167z M185.2,174.2h7v7h-7V174.2z M185.2,181.5
	h7v7h-7V181.5z M185.2,188.7h7v7h-7V188.7z M185.2,196h7v7h-7V196z M185.2,203.3h7v7h-7V203.3z M185.2,210.5h7v7h-7V210.5z
	 M185.2,217.8h7v7h-7V217.8z M185.2,225h7v7h-7V225z M185.2,232.3h7v7h-7V232.3z M185.2,239.6h7v7h-7V239.6z M185.2,246.8h7v7h-7
	V246.8z M185.2,254.1h7v7h-7V254.1z M185.2,363h7v7h-7V363z M185.2,370.2h7v7h-7V370.2z M185.2,377.5h7v7h-7V377.5z M185.2,384.8h7
	v7h-7V384.8z M185.2,392h7v7h-7V392z M185.2,399.3h7v7h-7V399.3z M185.2,406.6h7v7h-7V406.6z M185.2,413.8h7v7h-7V413.8z
	 M185.2,421.1h7v7h-7V421.1z M185.2,428.3h7v7h-7V428.3z M185.2,435.6h7v7h-7V435.6z M185.2,442.8h7v7h-7V442.8z M185.2,450.1h7v7
	h-7V450.1z M192.4,137.9h7v7h-7V137.9z M192.4,145.2h7v7h-7V145.2z M192.4,152.5h7v7h-7V152.5z M192.4,159.7h7v7h-7V159.7z
	 M192.4,167h7v7h-7V167z M192.4,174.2h7v7h-7V174.2z M192.4,181.5h7v7h-7V181.5z M192.4,188.7h7v7h-7V188.7z M192.4,196h7v7h-7V196z
	 M192.4,203.3h7v7h-7V203.3z M192.4,210.5h7v7h-7V210.5z M192.4,217.8h7v7h-7V217.8z M192.4,225h7v7h-7V225z M192.4,232.3h7v7h-7
	V232.3z M192.4,239.6h7v7h-7V239.6z M192.4,261.4h7v7h-7V261.4z M192.4,268.6h7v7h-7V268.6z M192.4,275.9h7v7h-7V275.9z
	 M192.4,283.1h7v7h-7V283.1z M192.4,290.4h7v7h-7V290.4z M192.4,297.6h7v7h-7V297.6z M192.4,355.7h7v7h-7V355.7z M192.4,363h7v7h-7
	V363z M192.4,370.2h7v7h-7V370.2z M192.4,377.5h7v7h-7V377.5z M192.4,384.8h7v7h-7V384.8z M192.4,392h7v7h-7V392z M192.4,399.3h7v7
	h-7V399.3z M192.4,406.6h7v7h-7V406.6z M192.4,413.8h7v7h-7V413.8z M192.4,421.1h7v7h-7V421.1z M192.4,428.3h7v7h-7V428.3z
	 M192.4,435.6h7v7h-7V435.6z M192.4,442.8h7v7h-7V442.8z M192.4,450.1h7v7h-7V450.1z M199.7,152.5h7v7h-7V152.5z M199.7,159.7h7v7
	h-7V159.7z M199.7,167h7v7h-7V167z M199.7,174.2h7v7h-7V174.2z M199.7,181.5h7v7h-7V181.5z M199.7,188.7h7v7h-7V188.7z M199.7,196h7
	v7h-7V196z M199.7,203.3h7v7h-7V203.3z M199.7,210.5h7v7h-7V210.5z M199.7,217.8h7v7h-7V217.8z M199.7,225h7v7h-7V225z M199.7,232.3
	h7v7h-7V232.3z M199.7,254.1h7v7h-7V254.1z M199.7,261.4h7v7h-7V261.4z M199.7,268.6h7v7h-7V268.6z M199.7,275.9h7v7h-7V275.9z
	 M199.7,283.1h7v7h-7V283.1z M199.7,290.4h7v7h-7V290.4z M199.7,297.6h7v7h-7V297.6z M199.7,304.9h7v7h-7V304.9z M199.7,312.2h7v7
	h-7V312.2z M199.7,348.5h7v7h-7V348.5z M199.7,355.7h7v7h-7V355.7z M199.7,363h7v7h-7V363z M199.7,370.2h7v7h-7V370.2z M199.7,377.5
	h7v7h-7V377.5z M199.7,384.8h7v7h-7V384.8z M199.7,392h7v7h-7V392z M199.7,399.3h7v7h-7V399.3z M199.7,406.6h7v7h-7V406.6z
	 M199.7,413.8h7v7h-7V413.8z M199.7,421.1h7v7h-7V421.1z M199.7,428.3h7v7h-7V428.3z M199.7,435.6h7v7h-7V435.6z M199.7,442.8h7v7
	h-7V442.8z M199.7,450.1h7v7h-7V450.1z M206.9,174.2h7v7h-7V174.2z M206.9,181.5h7v7h-7V181.5z M206.9,188.7h7v7h-7V188.7z
	 M206.9,196h7v7h-7V196z M206.9,203.3h7v7h-7V203.3z M206.9,210.5h7v7h-7V210.5z M206.9,217.8h7v7h-7V217.8z M206.9,225h7v7h-7V225z
	 M206.9,239.6h7v7h-7V239.6z M206.9,246.8h7v7h-7V246.8z M206.9,254.1h7v7h-7V254.1z M206.9,261.4h7v7h-7V261.4z M206.9,275.9h7v7
	h-7V275.9z M206.9,290.4h7v7h-7V290.4z M206.9,297.6h7v7h-7V297.6z M206.9,304.9h7v7h-7V304.9z M206.9,312.2h7v7h-7V312.2z
	 M206.9,319.4h7v7h-7V319.4z M206.9,341.2h7v7h-7V341.2z M206.9,348.5h7v7h-7V348.5z M206.9,355.7h7v7h-7V355.7z M206.9,363h7v7h-7
	V363z M206.9,370.2h7v7h-7V370.2z M206.9,377.5h7v7h-7V377.5z M206.9,384.8h7v7h-7V384.8z M206.9,392h7v7h-7V392z M206.9,399.3h7v7
	h-7V399.3z M206.9,406.6h7v7h-7V406.6z M206.9,413.8h7v7h-7V413.8z M206.9,421.1h7v7h-7V421.1z M206.9,428.3h7v7h-7V428.3z
	 M206.9,435.6h7v7h-7V435.6z M206.9,442.8h7v7h-7V442.8z M206.9,450.1h7v7h-7V450.1z M141.6,457.4h7v7h-7V457.4z M141.6,464.6h7v7
	h-7V464.6z M141.6,471.9h7v7h-7V471.9z M141.6,479.2h7v7h-7V479.2z M141.6,486.4h7v7h-7V486.4z M148.9,464.6h7v7h-7V464.6z
	 M148.9,479.2h7v7h-7V479.2z M148.9,486.4h7v7h-7V486.4z M156.1,457.4h7v7h-7V457.4z M156.1,464.6h7v7h-7V464.6z M156.1,471.9h7v7
	h-7V471.9z M156.1,479.2h7v7h-7V479.2z M156.1,486.4h7v7h-7V486.4z M156.1,493.7h7v7h-7V493.7z M163.4,464.6h7v7h-7V464.6z
	 M163.4,479.2h7v7h-7V479.2z M163.4,493.7h7v7h-7V493.7z M170.6,457.4h7v7h-7V457.4z M170.6,464.6h7v7h-7V464.6z M170.6,471.9h7v7
	h-7V471.9z M170.6,479.2h7v7h-7V479.2z M170.6,486.4h7v7h-7V486.4z M170.6,493.7h7v7h-7V493.7z M177.9,457.4h7v7h-7V457.4z
	 M177.9,464.6h7v7h-7V464.6z M177.9,471.9h7v7h-7V471.9z M177.9,479.2h7v7h-7V479.2z M177.9,486.4h7v7h-7V486.4z M177.9,493.7h7v7
	h-7V493.7z M177.9,500.9h7v7h-7V500.9z M185.2,457.4h7v7h-7V457.4z M185.2,464.6h7v7h-7V464.6z M185.2,471.9h7v7h-7V471.9z
	 M185.2,479.2h7v7h-7V479.2z M185.2,486.4h7v7h-7V486.4z M185.2,493.7h7v7h-7V493.7z M185.2,500.9h7v7h-7V500.9z M192.4,457.4h7v7
	h-7V457.4z M192.4,464.6h7v7h-7V464.6z M192.4,471.9h7v7h-7V471.9z M192.4,479.2h7v7h-7V479.2z M192.4,486.4h7v7h-7V486.4z
	 M192.4,493.7h7v7h-7V493.7z M192.4,500.9h7v7h-7V500.9z M199.7,457.4h7v7h-7V457.4z M199.7,464.6h7v7h-7V464.6z M199.7,471.9h7v7
	h-7V471.9z M199.7,479.2h7v7h-7V479.2z M199.7,486.4h7v7h-7V486.4z M199.7,493.7h7v7h-7V493.7z M199.7,500.9h7v7h-7V500.9z
	 M206.9,457.4h7v7h-7V457.4z M206.9,464.6h7v7h-7V464.6z M206.9,471.9h7v7h-7V471.9z M206.9,479.2h7v7h-7V479.2z M206.9,486.4h7v7
	h-7V486.4z M206.9,493.7h7v7h-7V493.7z M206.9,500.9h7v7h-7V500.9z M214.2,188.7h7v7h-7V188.7z M214.2,196h7v7h-7V196z M214.2,203.3
	h7v7h-7V203.3z M214.2,210.5h7v7h-7V210.5z M214.2,217.8h7v7h-7V217.8z M214.2,239.6h7v7h-7V239.6z M214.2,254.1h7v7h-7V254.1z
	 M214.2,261.4h7v7h-7V261.4z M214.2,268.6h7v7h-7V268.6z M214.2,275.9h7v7h-7V275.9z M214.2,283.1h7v7h-7V283.1z M214.2,290.4h7v7
	h-7V290.4z M214.2,297.6h7v7h-7V297.6z M214.2,304.9h7v7h-7V304.9z M214.2,312.2h7v7h-7V312.2z M214.2,319.4h7v7h-7V319.4z
	 M214.2,326.7h7v7h-7V326.7z M214.2,348.5h7v7h-7V348.5z M214.2,355.7h7v7h-7V355.7z M214.2,363h7v7h-7V363z M214.2,370.2h7v7h-7
	V370.2z M214.2,377.5h7v7h-7V377.5z M214.2,384.8h7v7h-7V384.8z M214.2,392h7v7h-7V392z M214.2,399.3h7v7h-7V399.3z M214.2,406.6h7
	v7h-7V406.6z M214.2,413.8h7v7h-7V413.8z M214.2,421.1h7v7h-7V421.1z M214.2,428.3h7v7h-7V428.3z M214.2,435.6h7v7h-7V435.6z
	 M214.2,442.8h7v7h-7V442.8z M214.2,450.1h7v7h-7V450.1z M221.5,210.5h7v7h-7V210.5z M221.5,217.8h7v7h-7V217.8z M221.5,232.3h7v7
	h-7V232.3z M221.5,239.6h7v7h-7V239.6z M221.5,246.8h7v7h-7V246.8z M221.5,254.1h7v7h-7V254.1z M221.5,268.6h7v7h-7V268.6z
	 M221.5,283.1h7v7h-7V283.1z M221.5,290.4h7v7h-7V290.4z M221.5,297.6h7v7h-7V297.6z M221.5,304.9h7v7h-7V304.9z M221.5,312.2h7v7
	h-7V312.2z M221.5,319.4h7v7h-7V319.4z M221.5,326.7h7v7h-7V326.7z M221.5,334h7v7h-7V334z M221.5,348.5h7v7h-7V348.5z M221.5,355.7
	h7v7h-7V355.7z M221.5,363h7v7h-7V363z M221.5,370.2h7v7h-7V370.2z M221.5,377.5h7v7h-7V377.5z M221.5,384.8h7v7h-7V384.8z
	 M221.5,392h7v7h-7V392z M221.5,399.3h7v7h-7V399.3z M221.5,406.6h7v7h-7V406.6z M221.5,413.8h7v7h-7V413.8z M221.5,421.1h7v7h-7
	V421.1z M221.5,428.3h7v7h-7V428.3z M221.5,435.6h7v7h-7V435.6z M221.5,442.8h7v7h-7V442.8z M221.5,450.1h7v7h-7V450.1z M228.7,225
	h7v7h-7V225z M228.7,232.3h7v7h-7V232.3z M228.7,239.6h7v7h-7V239.6z M228.7,246.8h7v7h-7V246.8z M228.7,261.4h7v7h-7V261.4z
	 M228.7,275.9h7v7h-7V275.9z M228.7,283.1h7v7h-7V283.1z M228.7,290.4h7v7h-7V290.4z M228.7,297.6h7v7h-7V297.6z M228.7,304.9h7v7
	h-7V304.9z M228.7,312.2h7v7h-7V312.2z M228.7,319.4h7v7h-7V319.4z M228.7,326.7h7v7h-7V326.7z M228.7,334h7v7h-7V334z M228.7,355.7
	h7v7h-7V355.7z M228.7,363h7v7h-7V363z M228.7,370.2h7v7h-7V370.2z M228.7,377.5h7v7h-7V377.5z M228.7,384.8h7v7h-7V384.8z
	 M228.7,392h7v7h-7V392z M228.7,399.3h7v7h-7V399.3z M228.7,406.6h7v7h-7V406.6z M228.7,413.8h7v7h-7V413.8z M228.7,421.1h7v7h-7
	V421.1z M228.7,428.3h7v7h-7V428.3z M228.7,435.6h7v7h-7V435.6z M228.7,442.8h7v7h-7V442.8z M228.7,450.1h7v7h-7V450.1z M236,225h7
	v7h-7V225z M236,239.6h7v7h-7V239.6z M236,254.1h7v7h-7V254.1z M236,268.6h7v7h-7V268.6z M236,283.1h7v7h-7V283.1z M236,290.4h7v7
	h-7V290.4z M236,297.6h7v7h-7V297.6z M236,304.9h7v7h-7V304.9z M236,312.2h7v7h-7V312.2z M236,319.4h7v7h-7V319.4z M236,326.7h7v7
	h-7V326.7z M236,334h7v7h-7V334z M236,355.7h7v7h-7V355.7z M236,363h7v7h-7V363z M236,370.2h7v7h-7V370.2z M236,377.5h7v7h-7V377.5z
	 M236,384.8h7v7h-7V384.8z M236,392h7v7h-7V392z M236,399.3h7v7h-7V399.3z M236,406.6h7v7h-7V406.6z M236,413.8h7v7h-7V413.8z
	 M236,421.1h7v7h-7V421.1z M236,428.3h7v7h-7V428.3z M236,435.6h7v7h-7V435.6z M236,442.8h7v7h-7V442.8z M236,450.1h7v7h-7V450.1z
	 M243.2,225h7v7h-7V225z M243.2,232.3h7v7h-7V232.3z M243.2,239.6h7v7h-7V239.6z M243.2,246.8h7v7h-7V246.8z M243.2,261.4h7v7h-7
	V261.4z M243.2,275.9h7v7h-7V275.9z M243.2,283.1h7v7h-7V283.1z M243.2,290.4h7v7h-7V290.4z M243.2,297.6h7v7h-7V297.6z
	 M243.2,304.9h7v7h-7V304.9z M243.2,312.2h7v7h-7V312.2z M243.2,319.4h7v7h-7V319.4z M243.2,326.7h7v7h-7V326.7z M243.2,334h7v7h-7
	V334z M243.2,355.7h7v7h-7V355.7z M243.2,363h7v7h-7V363z M243.2,370.2h7v7h-7V370.2z M243.2,377.5h7v7h-7V377.5z M243.2,384.8h7v7
	h-7V384.8z M243.2,392h7v7h-7V392z M243.2,399.3h7v7h-7V399.3z M243.2,406.6h7v7h-7V406.6z M243.2,413.8h7v7h-7V413.8z M243.2,421.1
	h7v7h-7V421.1z M243.2,428.3h7v7h-7V428.3z M243.2,435.6h7v7h-7V435.6z M243.2,442.8h7v7h-7V442.8z M243.2,450.1h7v7h-7V450.1z
	 M250.5,225h7v7h-7V225z M250.5,232.3h7v7h-7V232.3z M250.5,239.6h7v7h-7V239.6z M250.5,254.1h7v7h-7V254.1z M250.5,268.6h7v7h-7
	V268.6z M250.5,283.1h7v7h-7V283.1z M250.5,290.4h7v7h-7V290.4z M250.5,297.6h7v7h-7V297.6z M250.5,304.9h7v7h-7V304.9z
	 M250.5,312.2h7v7h-7V312.2z M250.5,319.4h7v7h-7V319.4z M250.5,326.7h7v7h-7V326.7z M250.5,334h7v7h-7V334z M250.5,341.2h7v7h-7
	V341.2z M250.5,355.7h7v7h-7V355.7z M250.5,363h7v7h-7V363z M250.5,370.2h7v7h-7V370.2z M250.5,377.5h7v7h-7V377.5z M250.5,384.8h7
	v7h-7V384.8z M250.5,392h7v7h-7V392z M250.5,399.3h7v7h-7V399.3z M250.5,406.6h7v7h-7V406.6z M250.5,413.8h7v7h-7V413.8z
	 M250.5,421.1h7v7h-7V421.1z M250.5,428.3h7v7h-7V428.3z M250.5,435.6h7v7h-7V435.6z M250.5,442.8h7v7h-7V442.8z M250.5,450.1h7v7
	h-7V450.1z M257.8,225h7v7h-7V225z M257.8,232.3h7v7h-7V232.3z M257.8,239.6h7v7h-7V239.6z M257.8,246.8h7v7h-7V246.8z M257.8,254.1
	h7v7h-7V254.1z M257.8,261.4h7v7h-7V261.4z M257.8,275.9h7v7h-7V275.9z M257.8,283.1h7v7h-7V283.1z M257.8,290.4h7v7h-7V290.4z
	 M257.8,297.6h7v7h-7V297.6z M257.8,304.9h7v7h-7V304.9z M257.8,312.2h7v7h-7V312.2z M257.8,319.4h7v7h-7V319.4z M257.8,326.7h7v7
	h-7V326.7z M257.8,334h7v7h-7V334z M257.8,341.2h7v7h-7V341.2z M257.8,355.7h7v7h-7V355.7z M257.8,363h7v7h-7V363z M257.8,370.2h7v7
	h-7V370.2z M257.8,377.5h7v7h-7V377.5z M257.8,384.8h7v7h-7V384.8z M257.8,392h7v7h-7V392z M257.8,399.3h7v7h-7V399.3z M257.8,406.6
	h7v7h-7V406.6z M257.8,413.8h7v7h-7V413.8z M257.8,421.1h7v7h-7V421.1z M257.8,428.3h7v7h-7V428.3z M257.8,435.6h7v7h-7V435.6z
	 M257.8,442.8h7v7h-7V442.8z M257.8,450.1h7v7h-7V450.1z M265,225h7v7h-7V225z M265,232.3h7v7h-7V232.3z M265,239.6h7v7h-7V239.6z
	 M265,246.8h7v7h-7V246.8z M265,254.1h7v7h-7V254.1z M265,268.6h7v7h-7V268.6z M265,283.1h7v7h-7V283.1z M265,290.4h7v7h-7V290.4z
	 M265,297.6h7v7h-7V297.6z M265,304.9h7v7h-7V304.9z M265,312.2h7v7h-7V312.2z M265,319.4h7v7h-7V319.4z M265,326.7h7v7h-7V326.7z
	 M265,334h7v7h-7V334z M265,355.7h7v7h-7V355.7z M265,363h7v7h-7V363z M265,370.2h7v7h-7V370.2z M265,377.5h7v7h-7V377.5z
	 M265,384.8h7v7h-7V384.8z M265,392h7v7h-7V392z M265,399.3h7v7h-7V399.3z M265,406.6h7v7h-7V406.6z M265,413.8h7v7h-7V413.8z
	 M265,421.1h7v7h-7V421.1z M265,428.3h7v7h-7V428.3z M265,435.6h7v7h-7V435.6z M265,442.8h7v7h-7V442.8z M265,450.1h7v7h-7V450.1z
	 M272.2,225h7v7h-7V225z M272.2,232.3h7v7h-7V232.3z M272.2,239.6h7v7h-7V239.6z M272.2,246.8h7v7h-7V246.8z M272.2,254.1h7v7h-7
	V254.1z M272.2,261.4h7v7h-7V261.4z M272.2,275.9h7v7h-7V275.9z M272.2,283.1h7v7h-7V283.1z M272.2,290.4h7v7h-7V290.4z
	 M272.2,297.6h7v7h-7V297.6z M272.2,304.9h7v7h-7V304.9z M272.2,312.2h7v7h-7V312.2z M272.2,319.4h7v7h-7V319.4z M272.2,326.7h7v7
	h-7V326.7z M272.2,334h7v7h-7V334z M272.2,355.7h7v7h-7V355.7z M272.2,363h7v7h-7V363z M272.2,370.2h7v7h-7V370.2z M272.2,377.5h7v7
	h-7V377.5z M272.2,384.8h7v7h-7V384.8z M272.2,392h7v7h-7V392z M272.2,399.3h7v7h-7V399.3z M272.2,406.6h7v7h-7V406.6z M272.2,413.8
	h7v7h-7V413.8z M272.2,421.1h7v7h-7V421.1z M272.2,428.3h7v7h-7V428.3z M272.2,435.6h7v7h-7V435.6z M272.2,442.8h7v7h-7V442.8z
	 M272.2,450.1h7v7h-7V450.1z M279.5,232.3h7v7h-7V232.3z M279.5,239.6h7v7h-7V239.6z M279.5,246.8h7v7h-7V246.8z M279.5,254.1h7v7
	h-7V254.1z M279.5,261.4h7v7h-7V261.4z M279.5,268.6h7v7h-7V268.6z M279.5,275.9h7v7h-7V275.9z M279.5,283.1h7v7h-7V283.1z
	 M279.5,290.4h7v7h-7V290.4z M279.5,297.6h7v7h-7V297.6z M279.5,304.9h7v7h-7V304.9z M279.5,312.2h7v7h-7V312.2z M279.5,319.4h7v7
	h-7V319.4z M279.5,326.7h7v7h-7V326.7z M279.5,334h7v7h-7V334z M279.5,355.7h7v7h-7V355.7z M279.5,363h7v7h-7V363z M279.5,370.2h7v7
	h-7V370.2z M279.5,377.5h7v7h-7V377.5z M279.5,384.8h7v7h-7V384.8z M279.5,392h7v7h-7V392z M279.5,399.3h7v7h-7V399.3z M279.5,406.6
	h7v7h-7V406.6z M279.5,413.8h7v7h-7V413.8z M279.5,421.1h7v7h-7V421.1z M279.5,428.3h7v7h-7V428.3z M279.5,435.6h7v7h-7V435.6z
	 M279.5,442.8h7v7h-7V442.8z M279.5,450.1h7v7h-7V450.1z M214.2,457.4h7v7h-7V457.4z M214.2,464.6h7v7h-7V464.6z M214.2,471.9h7v7
	h-7V471.9z M214.2,479.2h7v7h-7V479.2z M214.2,486.4h7v7h-7V486.4z M214.2,493.7h7v7h-7V493.7z M214.2,500.9h7v7h-7V500.9z
	 M214.2,508.2h7v7h-7V508.2z M221.5,457.4h7v7h-7V457.4z M221.5,464.6h7v7h-7V464.6z M221.5,471.9h7v7h-7V471.9z M221.5,479.2h7v7
	h-7V479.2z M221.5,486.4h7v7h-7V486.4z M221.5,493.7h7v7h-7V493.7z M221.5,500.9h7v7h-7V500.9z M221.5,508.2h7v7h-7V508.2z
	 M228.7,457.4h7v7h-7V457.4z M228.7,464.6h7v7h-7V464.6z M228.7,471.9h7v7h-7V471.9z M228.7,479.2h7v7h-7V479.2z M228.7,486.4h7v7
	h-7V486.4z M228.7,493.7h7v7h-7V493.7z M228.7,500.9h7v7h-7V500.9z M228.7,508.2h7v7h-7V508.2z M236,457.4h7v7h-7V457.4z M236,464.6
	h7v7h-7V464.6z M236,471.9h7v7h-7V471.9z M236,479.2h7v7h-7V479.2z M236,486.4h7v7h-7V486.4z M236,493.7h7v7h-7V493.7z M236,500.9h7
	v7h-7V500.9z M236,508.2h7v7h-7V508.2z M243.2,457.4h7v7h-7V457.4z M243.2,464.6h7v7h-7V464.6z M243.2,471.9h7v7h-7V471.9z
	 M243.2,479.2h7v7h-7V479.2z M243.2,486.4h7v7h-7V486.4z M243.2,493.7h7v7h-7V493.7z M243.2,500.9h7v7h-7V500.9z M243.2,508.2h7v7
	h-7V508.2z M250.5,457.4h7v7h-7V457.4z M250.5,464.6h7v7h-7V464.6z M250.5,471.9h7v7h-7V471.9z M250.5,479.2h7v7h-7V479.2z
	 M250.5,486.4h7v7h-7V486.4z M250.5,493.7h7v7h-7V493.7z M250.5,500.9h7v7h-7V500.9z M250.5,508.2h7v7h-7V508.2z M257.8,457.4h7v7
	h-7V457.4z M257.8,464.6h7v7h-7V464.6z M257.8,471.9h7v7h-7V471.9z M257.8,479.2h7v7h-7V479.2z M257.8,486.4h7v7h-7V486.4z
	 M257.8,493.7h7v7h-7V493.7z M257.8,500.9h7v7h-7V500.9z M257.8,508.2h7v7h-7V508.2z M265,457.4h7v7h-7V457.4z M265,464.6h7v7h-7
	V464.6z M265,471.9h7v7h-7V471.9z M265,479.2h7v7h-7V479.2z M265,486.4h7v7h-7V486.4z M265,493.7h7v7h-7V493.7z M265,500.9h7v7h-7
	V500.9z M265,508.2h7v7h-7V508.2z M272.2,457.4h7v7h-7V457.4z M272.2,464.6h7v7h-7V464.6z M272.2,471.9h7v7h-7V471.9z M272.2,479.2
	h7v7h-7V479.2z M272.2,486.4h7v7h-7V486.4z M272.2,493.7h7v7h-7V493.7z M272.2,500.9h7v7h-7V500.9z M272.2,508.2h7v7h-7V508.2z
	 M279.5,457.4h7v7h-7V457.4z M279.5,464.6h7v7h-7V464.6z M279.5,471.9h7v7h-7V471.9z M279.5,479.2h7v7h-7V479.2z M279.5,486.4h7v7
	h-7V486.4z M279.5,493.7h7v7h-7V493.7z M279.5,500.9h7v7h-7V500.9z M279.5,508.2h7v7h-7V508.2z M286.8,239.6h7v7h-7V239.6z
	 M286.8,246.8h7v7h-7V246.8z M286.8,254.1h7v7h-7V254.1z M286.8,261.4h7v7h-7V261.4z M286.8,268.6h7v7h-7V268.6z M286.8,275.9h7v7
	h-7V275.9z M286.8,283.1h7v7h-7V283.1z M286.8,290.4h7v7h-7V290.4z M286.8,297.6h7v7h-7V297.6z M286.8,304.9h7v7h-7V304.9z
	 M286.8,312.2h7v7h-7V312.2z M286.8,319.4h7v7h-7V319.4z M286.8,326.7h7v7h-7V326.7z M286.8,370.2h7v7h-7V370.2z M286.8,377.5h7v7
	h-7V377.5z M286.8,384.8h7v7h-7V384.8z M286.8,392h7v7h-7V392z M286.8,399.3h7v7h-7V399.3z M286.8,406.6h7v7h-7V406.6z M286.8,413.8
	h7v7h-7V413.8z M286.8,421.1h7v7h-7V421.1z M286.8,428.3h7v7h-7V428.3z M286.8,435.6h7v7h-7V435.6z M286.8,442.8h7v7h-7V442.8z
	 M286.8,450.1h7v7h-7V450.1z M294.1,225h7v7h-7V225z M294.1,246.8h7v7h-7V246.8z M294.1,254.1h7v7h-7V254.1z M294.1,261.4h7v7h-7
	V261.4z M294.1,268.6h7v7h-7V268.6z M294.1,275.9h7v7h-7V275.9z M294.1,283.1h7v7h-7V283.1z M294.1,290.4h7v7h-7V290.4z
	 M294.1,297.6h7v7h-7V297.6z M294.1,304.9h7v7h-7V304.9z M294.1,312.2h7v7h-7V312.2z M294.1,319.4h7v7h-7V319.4z M294.1,384.8h7v7
	h-7V384.8z M294.1,392h7v7h-7V392z M294.1,399.3h7v7h-7V399.3z M294.1,406.6h7v7h-7V406.6z M294.1,413.8h7v7h-7V413.8z M294.1,421.1
	h7v7h-7V421.1z M294.1,428.3h7v7h-7V428.3z M294.1,435.6h7v7h-7V435.6z M294.1,442.8h7v7h-7V442.8z M294.1,450.1h7v7h-7V450.1z
	 M301.2,210.5h7v7h-7V210.5z M301.2,217.8h7v7h-7V217.8z M301.2,225h7v7h-7V225z M301.2,232.3h7v7h-7V232.3z M301.2,254.1h7v7h-7
	V254.1z M301.2,261.4h7v7h-7V261.4z M301.2,268.6h7v7h-7V268.6z M301.2,275.9h7v7h-7V275.9z M301.2,283.1h7v7h-7V283.1z
	 M301.2,290.4h7v7h-7V290.4z M301.2,297.6h7v7h-7V297.6z M301.2,304.9h7v7h-7V304.9z M301.2,406.6h7v7h-7V406.6z M301.2,413.8h7v7
	h-7V413.8z M301.2,421.1h7v7h-7V421.1z M301.2,428.3h7v7h-7V428.3z M301.2,435.6h7v7h-7V435.6z M301.2,442.8h7v7h-7V442.8z
	 M301.2,450.1h7v7h-7V450.1z M308.6,196h7v7h-7V196z M308.6,203.3h7v7h-7V203.3z M308.6,210.5h7v7h-7V210.5z M308.6,217.8h7v7h-7
	V217.8z M308.6,225h7v7h-7V225z M308.6,232.3h7v7h-7V232.3z M308.6,239.6h7v7h-7V239.6z M308.6,268.6h7v7h-7V268.6z M308.6,275.9h7
	v7h-7V275.9z M308.6,283.1h7v7h-7V283.1z M308.6,290.4h7v7h-7V290.4z M308.6,421.1h7v7h-7V421.1z M308.6,428.3h7v7h-7V428.3z
	 M308.6,435.6h7v7h-7V435.6z M308.6,442.8h7v7h-7V442.8z M308.6,450.1h7v7h-7V450.1z M315.8,188.7h7v7h-7V188.7z M315.8,196h7v7h-7
	V196z M315.8,203.3h7v7h-7V203.3z M315.8,210.5h7v7h-7V210.5z M315.8,225h7v7h-7V225z M315.8,232.3h7v7h-7V232.3z M315.8,239.6h7v7
	h-7V239.6z M315.8,246.8h7v7h-7V246.8z M315.8,254.1h7v7h-7V254.1z M315.8,435.6h7v7h-7V435.6z M315.8,442.8h7v7h-7V442.8z
	 M315.8,450.1h7v7h-7V450.1z M323.1,181.5h7v7h-7V181.5z M323.1,188.7h7v7h-7V188.7z M323.1,196h7v7h-7V196z M323.1,210.5h7v7h-7
	V210.5z M323.1,217.8h7v7h-7V217.8z M323.1,225h7v7h-7V225z M323.1,232.3h7v7h-7V232.3z M323.1,239.6h7v7h-7V239.6z M323.1,246.8h7
	v7h-7V246.8z M323.1,254.1h7v7h-7V254.1z M323.1,261.4h7v7h-7V261.4z M323.1,268.6h7v7h-7V268.6z M323.1,275.9h7v7h-7V275.9z
	 M323.1,283.1h7v7h-7V283.1z M330.4,167h7v7h-7V167z M330.4,174.2h7v7h-7V174.2z M330.4,181.5h7v7h-7V181.5z M330.4,196h7v7h-7V196z
	 M330.4,203.3h7v7h-7V203.3z M330.4,210.5h7v7h-7V210.5z M330.4,225h7v7h-7V225z M330.4,232.3h7v7h-7V232.3z M330.4,239.6h7v7h-7
	V239.6z M330.4,246.8h7v7h-7V246.8z M330.4,254.1h7v7h-7V254.1z M330.4,261.4h7v7h-7V261.4z M330.4,268.6h7v7h-7V268.6z
	 M330.4,275.9h7v7h-7V275.9z M330.4,283.1h7v7h-7V283.1z M330.4,290.4h7v7h-7V290.4z M337.6,159.7h7v7h-7V159.7z M337.6,167h7v7h-7
	V167z M337.6,174.2h7v7h-7V174.2z M337.6,181.5h7v7h-7V181.5z M337.6,188.7h7v7h-7V188.7z M337.6,196h7v7h-7V196z M337.6,210.5h7v7
	h-7V210.5z M337.6,217.8h7v7h-7V217.8z M337.6,225h7v7h-7V225z M337.6,232.3h7v7h-7V232.3z M337.6,239.6h7v7h-7V239.6z M337.6,246.8
	h7v7h-7V246.8z M337.6,254.1h7v7h-7V254.1z M337.6,261.4h7v7h-7V261.4z M337.6,268.6h7v7h-7V268.6z M337.6,275.9h7v7h-7V275.9z
	 M337.6,283.1h7v7h-7V283.1z M337.6,290.4h7v7h-7V290.4z M344.9,145.2h7v7h-7V145.2z M344.9,152.5h7v7h-7V152.5z M344.9,159.7h7v7
	h-7V159.7z M344.9,167h7v7h-7V167z M344.9,181.5h7v7h-7V181.5z M344.9,196h7v7h-7V196z M344.9,203.3h7v7h-7V203.3z M344.9,210.5h7v7
	h-7V210.5z M344.9,225h7v7h-7V225z M344.9,232.3h7v7h-7V232.3z M344.9,239.6h7v7h-7V239.6z M344.9,246.8h7v7h-7V246.8z M344.9,254.1
	h7v7h-7V254.1z M344.9,261.4h7v7h-7V261.4z M344.9,268.6h7v7h-7V268.6z M344.9,275.9h7v7h-7V275.9z M344.9,283.1h7v7h-7V283.1z
	 M344.9,290.4h7v7h-7V290.4z M352.1,137.9h7v7h-7V137.9z M352.1,145.2h7v7h-7V145.2z M352.1,152.5h7v7h-7V152.5z M352.1,159.7h7v7
	h-7V159.7z M352.1,167h7v7h-7V167z M352.1,174.2h7v7h-7V174.2z M352.1,181.5h7v7h-7V181.5z M352.1,188.7h7v7h-7V188.7z M352.1,196h7
	v7h-7V196z M352.1,210.5h7v7h-7V210.5z M352.1,217.8h7v7h-7V217.8z M352.1,225h7v7h-7V225z M352.1,232.3h7v7h-7V232.3z M352.1,239.6
	h7v7h-7V239.6z M352.1,246.8h7v7h-7V246.8z M352.1,254.1h7v7h-7V254.1z M352.1,261.4h7v7h-7V261.4z M352.1,268.6h7v7h-7V268.6z
	 M352.1,275.9h7v7h-7V275.9z M352.1,283.1h7v7h-7V283.1z M352.1,290.4h7v7h-7V290.4z M286.8,457.4h7v7h-7V457.4z M286.8,464.6h7v7
	h-7V464.6z M286.8,471.9h7v7h-7V471.9z M286.8,479.2h7v7h-7V479.2z M286.8,486.4h7v7h-7V486.4z M286.8,493.7h7v7h-7V493.7z
	 M286.8,500.9h7v7h-7V500.9z M286.8,508.2h7v7h-7V508.2z M294.1,457.4h7v7h-7V457.4z M294.1,464.6h7v7h-7V464.6z M294.1,471.9h7v7
	h-7V471.9z M294.1,479.2h7v7h-7V479.2z M294.1,486.4h7v7h-7V486.4z M294.1,493.7h7v7h-7V493.7z M294.1,500.9h7v7h-7V500.9z
	 M294.1,508.2h7v7h-7V508.2z M301.2,457.4h7v7h-7V457.4z M301.2,464.6h7v7h-7V464.6z M301.2,471.9h7v7h-7V471.9z M301.2,479.2h7v7
	h-7V479.2z M301.2,486.4h7v7h-7V486.4z M301.2,493.7h7v7h-7V493.7z M301.2,500.9h7v7h-7V500.9z M301.2,508.2h7v7h-7V508.2z
	 M308.6,457.4h7v7h-7V457.4z M308.6,464.6h7v7h-7V464.6z M308.6,471.9h7v7h-7V471.9z M308.6,479.2h7v7h-7V479.2z M308.6,486.4h7v7
	h-7V486.4z M308.6,493.7h7v7h-7V493.7z M308.6,500.9h7v7h-7V500.9z M315.8,457.4h7v7h-7V457.4z M315.8,464.6h7v7h-7V464.6z
	 M315.8,471.9h7v7h-7V471.9z M315.8,479.2h7v7h-7V479.2z M315.8,486.4h7v7h-7V486.4z M315.8,493.7h7v7h-7V493.7z M315.8,500.9h7v7
	h-7V500.9z M323.1,457.4h7v7h-7V457.4z M323.1,464.6h7v7h-7V464.6z M323.1,471.9h7v7h-7V471.9z M323.1,479.2h7v7h-7V479.2z
	 M323.1,486.4h7v7h-7V486.4z M323.1,493.7h7v7h-7V493.7z M323.1,500.9h7v7h-7V500.9z M330.4,471.9h7v7h-7V471.9z M330.4,479.2h7v7
	h-7V479.2z M330.4,486.4h7v7h-7V486.4z M330.4,493.7h7v7h-7V493.7z M330.4,500.9h7v7h-7V500.9z M337.6,486.4h7v7h-7V486.4z
	 M337.6,493.7h7v7h-7V493.7z M359.4,123.4h7v7h-7V123.4z M359.4,130.7h7v7h-7V130.7z M359.4,137.9h7v7h-7V137.9z M359.4,145.2h7v7
	h-7V145.2z M359.4,152.5h7v7h-7V152.5z M359.4,159.7h7v7h-7V159.7z M359.4,167h7v7h-7V167z M359.4,174.2h7v7h-7V174.2z M359.4,181.5
	h7v7h-7V181.5z M359.4,188.7h7v7h-7V188.7z M359.4,196h7v7h-7V196z M359.4,203.3h7v7h-7V203.3z M359.4,210.5h7v7h-7V210.5z
	 M359.4,217.8h7v7h-7V217.8z M359.4,225h7v7h-7V225z M359.4,232.3h7v7h-7V232.3z M359.4,239.6h7v7h-7V239.6z M359.4,246.8h7v7h-7
	V246.8z M359.4,254.1h7v7h-7V254.1z M359.4,261.4h7v7h-7V261.4z M359.4,268.6h7v7h-7V268.6z M359.4,275.9h7v7h-7V275.9z
	 M359.4,283.1h7v7h-7V283.1z M359.4,290.4h7v7h-7V290.4z M366.6,116.2h7v7h-7V116.2z M366.6,123.4h7v7h-7V123.4z M366.6,130.7h7v7
	h-7V130.7z M366.6,137.9h7v7h-7V137.9z M366.6,145.2h7v7h-7V145.2z M366.6,152.5h7v7h-7V152.5z M366.6,159.7h7v7h-7V159.7z
	 M366.6,167h7v7h-7V167z M366.6,174.2h7v7h-7V174.2z M366.6,181.5h7v7h-7V181.5z M366.6,188.7h7v7h-7V188.7z M366.6,196h7v7h-7V196z
	 M366.6,203.3h7v7h-7V203.3z M366.6,210.5h7v7h-7V210.5z M366.6,217.8h7v7h-7V217.8z M366.6,225h7v7h-7V225z M366.6,232.3h7v7h-7
	V232.3z M366.6,239.6h7v7h-7V239.6z M366.6,246.8h7v7h-7V246.8z M366.6,254.1h7v7h-7V254.1z M366.6,261.4h7v7h-7V261.4z
	 M366.6,268.6h7v7h-7V268.6z M366.6,275.9h7v7h-7V275.9z M366.6,283.1h7v7h-7V283.1z M366.6,290.4h7v7h-7V290.4z M373.9,101.6h7v7
	h-7V101.6z M373.9,108.9h7v7h-7V108.9z M373.9,116.2h7v7h-7V116.2z M373.9,123.4h7v7h-7V123.4z M373.9,130.7h7v7h-7V130.7z
	 M373.9,137.9h7v7h-7V137.9z M373.9,145.2h7v7h-7V145.2z M373.9,152.5h7v7h-7V152.5z M373.9,159.7h7v7h-7V159.7z M373.9,167h7v7h-7
	V167z M373.9,174.2h7v7h-7V174.2z M373.9,181.5h7v7h-7V181.5z M373.9,188.7h7v7h-7V188.7z M373.9,196h7v7h-7V196z M373.9,203.3h7v7
	h-7V203.3z M373.9,210.5h7v7h-7V210.5z M373.9,217.8h7v7h-7V217.8z M373.9,225h7v7h-7V225z M373.9,232.3h7v7h-7V232.3z M373.9,239.6
	h7v7h-7V239.6z M373.9,246.8h7v7h-7V246.8z M373.9,254.1h7v7h-7V254.1z M373.9,261.4h7v7h-7V261.4z M373.9,268.6h7v7h-7V268.6z
	 M373.9,275.9h7v7h-7V275.9z M373.9,283.1h7v7h-7V283.1z M373.9,290.4h7v7h-7V290.4z M381.1,94.4h7v7h-7V94.4z M381.1,101.6h7v7h-7
	V101.6z M381.1,108.9h7v7h-7V108.9z M381.1,116.2h7v7h-7V116.2z M381.1,123.4h7v7h-7V123.4z M381.1,130.7h7v7h-7V130.7z
	 M381.1,137.9h7v7h-7V137.9z M381.1,145.2h7v7h-7V145.2z M381.1,152.5h7v7h-7V152.5z M381.1,159.7h7v7h-7V159.7z M381.1,167h7v7h-7
	V167z M381.1,174.2h7v7h-7V174.2z M381.1,181.5h7v7h-7V181.5z M381.1,188.7h7v7h-7V188.7z M381.1,196h7v7h-7V196z M381.1,203.3h7v7
	h-7V203.3z M381.1,210.5h7v7h-7V210.5z M381.1,217.8h7v7h-7V217.8z M381.1,225h7v7h-7V225z M381.1,232.3h7v7h-7V232.3z M381.1,239.6
	h7v7h-7V239.6z M381.1,246.8h7v7h-7V246.8z M381.1,254.1h7v7h-7V254.1z M381.1,261.4h7v7h-7V261.4z M381.1,268.6h7v7h-7V268.6z
	 M381.1,275.9h7v7h-7V275.9z M381.1,283.1h7v7h-7V283.1z M381.1,290.4h7v7h-7V290.4z M388.4,94.4h7v7h-7V94.4z M388.4,101.6h7v7h-7
	V101.6z M388.4,108.9h7v7h-7V108.9z M388.4,116.2h7v7h-7V116.2z M388.4,123.4h7v7h-7V123.4z M388.4,130.7h7v7h-7V130.7z
	 M388.4,137.9h7v7h-7V137.9z M388.4,145.2h7v7h-7V145.2z M388.4,152.5h7v7h-7V152.5z M388.4,159.7h7v7h-7V159.7z M388.4,167h7v7h-7
	V167z M388.4,174.2h7v7h-7V174.2z M388.4,181.5h7v7h-7V181.5z M388.4,188.7h7v7h-7V188.7z M388.4,196h7v7h-7V196z M388.4,203.3h7v7
	h-7V203.3z M388.4,210.5h7v7h-7V210.5z M388.4,217.8h7v7h-7V217.8z M388.4,225h7v7h-7V225z M388.4,232.3h7v7h-7V232.3z M388.4,239.6
	h7v7h-7V239.6z M388.4,246.8h7v7h-7V246.8z M388.4,254.1h7v7h-7V254.1z M388.4,261.4h7v7h-7V261.4z M388.4,268.6h7v7h-7V268.6z
	 M388.4,275.9h7v7h-7V275.9z M388.4,283.1h7v7h-7V283.1z M388.4,290.4h7v7h-7V290.4z M388.4,348.5h7v7h-7V348.5z M388.4,355.7h7v7
	h-7V355.7z M388.4,363h7v7h-7V363z M388.4,370.2h7v7h-7V370.2z M388.4,377.5h7v7h-7V377.5z M388.4,406.6h7v7h-7V406.6z M388.4,413.8
	h7v7h-7V413.8z M388.4,421.1h7v7h-7V421.1z M388.4,428.3h7v7h-7V428.3z M388.4,435.6h7v7h-7V435.6z M388.4,442.8h7v7h-7V442.8z
	 M388.4,450.1h7v7h-7V450.1z M395.6,101.6h7v7h-7V101.6z M395.6,108.9h7v7h-7V108.9z M395.6,116.2h7v7h-7V116.2z M395.6,123.4h7v7
	h-7V123.4z M395.6,130.7h7v7h-7V130.7z M395.6,137.9h7v7h-7V137.9z M395.6,145.2h7v7h-7V145.2z M395.6,152.5h7v7h-7V152.5z
	 M395.6,159.7h7v7h-7V159.7z M395.6,167h7v7h-7V167z M395.6,174.2h7v7h-7V174.2z M395.6,181.5h7v7h-7V181.5z M395.6,188.7h7v7h-7
	V188.7z M395.6,196h7v7h-7V196z M395.6,203.3h7v7h-7V203.3z M395.6,210.5h7v7h-7V210.5z M395.6,217.8h7v7h-7V217.8z M395.6,225h7v7
	h-7V225z M395.6,232.3h7v7h-7V232.3z M395.6,239.6h7v7h-7V239.6z M395.6,246.8h7v7h-7V246.8z M395.6,254.1h7v7h-7V254.1z
	 M395.6,261.4h7v7h-7V261.4z M395.6,268.6h7v7h-7V268.6z M395.6,275.9h7v7h-7V275.9z M395.6,283.1h7v7h-7V283.1z M395.6,290.4h7v7
	h-7V290.4z M395.6,341.2h7v7h-7V341.2z M395.6,348.5h7v7h-7V348.5z M395.6,355.7h7v7h-7V355.7z M395.6,363h7v7h-7V363z M395.6,370.2
	h7v7h-7V370.2z M395.6,377.5h7v7h-7V377.5z M395.6,384.8h7v7h-7V384.8z M395.6,413.8h7v7h-7V413.8z M395.6,421.1h7v7h-7V421.1z
	 M395.6,428.3h7v7h-7V428.3z M395.6,435.6h7v7h-7V435.6z M395.6,442.8h7v7h-7V442.8z M395.6,450.1h7v7h-7V450.1z M403,108.9h7v7h-7
	V108.9z M403,116.2h7v7h-7V116.2z M403,123.4h7v7h-7V123.4z M403,130.7h7v7h-7V130.7z M403,137.9h7v7h-7V137.9z M403,145.2h7v7h-7
	V145.2z M403,152.5h7v7h-7V152.5z M403,159.7h7v7h-7V159.7z M403,167h7v7h-7V167z M403,174.2h7v7h-7V174.2z M403,181.5h7v7h-7V181.5
	z M403,188.7h7v7h-7V188.7z M403,196h7v7h-7V196z M403,203.3h7v7h-7V203.3z M403,210.5h7v7h-7V210.5z M403,217.8h7v7h-7V217.8z
	 M403,225h7v7h-7V225z M403,232.3h7v7h-7V232.3z M403,239.6h7v7h-7V239.6z M403,246.8h7v7h-7V246.8z M403,254.1h7v7h-7V254.1z
	 M403,261.4h7v7h-7V261.4z M403,268.6h7v7h-7V268.6z M403,275.9h7v7h-7V275.9z M403,283.1h7v7h-7V283.1z M403,290.4h7v7h-7V290.4z
	 M403,341.2h7v7h-7V341.2z M403,348.5h7v7h-7V348.5z M403,377.5h7v7h-7V377.5z M403,384.8h7v7h-7V384.8z M403,442.8h7v7h-7V442.8z
	 M403,450.1h7v7h-7V450.1z M410.1,116.2h7v7h-7V116.2z M410.1,123.4h7v7h-7V123.4z M410.1,130.7h7v7h-7V130.7z M410.1,137.9h7v7h-7
	V137.9z M410.1,145.2h7v7h-7V145.2z M410.1,152.5h7v7h-7V152.5z M410.1,159.7h7v7h-7V159.7z M410.1,167h7v7h-7V167z M410.1,174.2h7
	v7h-7V174.2z M410.1,181.5h7v7h-7V181.5z M410.1,188.7h7v7h-7V188.7z M410.1,196h7v7h-7V196z M410.1,203.3h7v7h-7V203.3z
	 M410.1,210.5h7v7h-7V210.5z M410.1,217.8h7v7h-7V217.8z M410.1,225h7v7h-7V225z M410.1,232.3h7v7h-7V232.3z M410.1,239.6h7v7h-7
	V239.6z M410.1,246.8h7v7h-7V246.8z M410.1,254.1h7v7h-7V254.1z M410.1,261.4h7v7h-7V261.4z M410.1,268.6h7v7h-7V268.6z
	 M410.1,275.9h7v7h-7V275.9z M410.1,283.1h7v7h-7V283.1z M410.1,290.4h7v7h-7V290.4z M410.1,297.6h7v7h-7V297.6z M410.1,341.2h7v7
	h-7V341.2z M410.1,348.5h7v7h-7V348.5z M410.1,377.5h7v7h-7V377.5z M410.1,384.8h7v7h-7V384.8z M410.1,450.1h7v7h-7V450.1z
	 M417.5,123.4h7v7h-7V123.4z M417.5,130.7h7v7h-7V130.7z M417.5,137.9h7v7h-7V137.9z M417.5,145.2h7v7h-7V145.2z M417.5,152.5h7v7
	h-7V152.5z M417.5,159.7h7v7h-7V159.7z M417.5,167h7v7h-7V167z M417.5,174.2h7v7h-7V174.2z M417.5,181.5h7v7h-7V181.5z M417.5,188.7
	h7v7h-7V188.7z M417.5,196h7v7h-7V196z M417.5,203.3h7v7h-7V203.3z M417.5,210.5h7v7h-7V210.5z M417.5,217.8h7v7h-7V217.8z
	 M417.5,225h7v7h-7V225z M417.5,232.3h7v7h-7V232.3z M417.5,239.6h7v7h-7V239.6z M417.5,246.8h7v7h-7V246.8z M417.5,254.1h7v7h-7
	V254.1z M417.5,261.4h7v7h-7V261.4z M417.5,268.6h7v7h-7V268.6z M417.5,275.9h7v7h-7V275.9z M417.5,283.1h7v7h-7V283.1z
	 M417.5,290.4h7v7h-7V290.4z M417.5,297.6h7v7h-7V297.6z M417.5,341.2h7v7h-7V341.2z M417.5,348.5h7v7h-7V348.5z M417.5,355.7h7v7
	h-7V355.7z M417.5,363h7v7h-7V363z M417.5,384.8h7v7h-7V384.8z M417.5,392h7v7h-7V392z M417.5,399.3h7v7h-7V399.3z M417.5,406.6h7v7
	h-7V406.6z M417.5,413.8h7v7h-7V413.8z M417.5,421.1h7v7h-7V421.1z M417.5,428.3h7v7h-7V428.3z M417.5,435.6h7v7h-7V435.6z
	 M417.5,442.8h7v7h-7V442.8z M417.5,450.1h7v7h-7V450.1z M424.6,130.7h7v7h-7V130.7z M424.6,137.9h7v7h-7V137.9z M424.6,145.2h7v7
	h-7V145.2z M424.6,152.5h7v7h-7V152.5z M424.6,159.7h7v7h-7V159.7z M424.6,167h7v7h-7V167z M424.6,174.2h7v7h-7V174.2z M424.6,181.5
	h7v7h-7V181.5z M424.6,188.7h7v7h-7V188.7z M424.6,196h7v7h-7V196z M424.6,203.3h7v7h-7V203.3z M424.6,210.5h7v7h-7V210.5z
	 M424.6,217.8h7v7h-7V217.8z M424.6,225h7v7h-7V225z M424.6,232.3h7v7h-7V232.3z M424.6,239.6h7v7h-7V239.6z M424.6,246.8h7v7h-7
	V246.8z M424.6,254.1h7v7h-7V254.1z M424.6,261.4h7v7h-7V261.4z M424.6,268.6h7v7h-7V268.6z M424.6,275.9h7v7h-7V275.9z
	 M424.6,283.1h7v7h-7V283.1z M424.6,290.4h7v7h-7V290.4z M424.6,297.6h7v7h-7V297.6z M424.6,348.5h7v7h-7V348.5z M424.6,355.7h7v7
	h-7V355.7z M424.6,363h7v7h-7V363z M424.6,384.8h7v7h-7V384.8z M424.6,392h7v7h-7V392z M424.6,399.3h7v7h-7V399.3z M424.6,406.6h7v7
	h-7V406.6z M424.6,413.8h7v7h-7V413.8z M424.6,421.1h7v7h-7V421.1z M424.6,428.3h7v7h-7V428.3z M424.6,435.6h7v7h-7V435.6z
	 M424.6,442.8h7v7h-7V442.8z M424.6,450.1h7v7h-7V450.1z M373.9,515.5h7v7h-7V515.5z M381.1,508.2h7v7h-7V508.2z M388.4,515.5h7v7
	h-7V515.5z M395.6,457.4h7v7h-7V457.4z M395.6,508.2h7v7h-7V508.2z M403,457.4h7v7h-7V457.4z M403,500.9h7v7h-7V500.9z M410.1,457.4
	h7v7h-7V457.4z M410.1,508.2h7v7h-7V508.2z M417.5,457.4h7v7h-7V457.4z M417.5,500.9h7v7h-7V500.9z M424.6,493.7h7v7h-7V493.7z
	 M424.6,508.2h7v7h-7V508.2z M432,137.9h7v7h-7V137.9z M432,145.2h7v7h-7V145.2z M432,152.5h7v7h-7V152.5z M432,159.7h7v7h-7V159.7z
	 M432,167h7v7h-7V167z M432,174.2h7v7h-7V174.2z M432,181.5h7v7h-7V181.5z M432,188.7h7v7h-7V188.7z M432,196h7v7h-7V196z
	 M432,203.3h7v7h-7V203.3z M432,210.5h7v7h-7V210.5z M432,217.8h7v7h-7V217.8z M432,225h7v7h-7V225z M432,232.3h7v7h-7V232.3z
	 M432,239.6h7v7h-7V239.6z M432,246.8h7v7h-7V246.8z M432,254.1h7v7h-7V254.1z M432,261.4h7v7h-7V261.4z M432,268.6h7v7h-7V268.6z
	 M432,275.9h7v7h-7V275.9z M432,283.1h7v7h-7V283.1z M432,290.4h7v7h-7V290.4z M432,297.6h7v7h-7V297.6z M439.2,152.5h7v7h-7V152.5z
	 M439.2,159.7h7v7h-7V159.7z M439.2,167h7v7h-7V167z M439.2,174.2h7v7h-7V174.2z M439.2,181.5h7v7h-7V181.5z M439.2,188.7h7v7h-7
	V188.7z M439.2,196h7v7h-7V196z M439.2,203.3h7v7h-7V203.3z M439.2,210.5h7v7h-7V210.5z M439.2,217.8h7v7h-7V217.8z M439.2,225h7v7
	h-7V225z M439.2,232.3h7v7h-7V232.3z M439.2,239.6h7v7h-7V239.6z M439.2,246.8h7v7h-7V246.8z M439.2,254.1h7v7h-7V254.1z
	 M439.2,261.4h7v7h-7V261.4z M439.2,268.6h7v7h-7V268.6z M439.2,275.9h7v7h-7V275.9z M439.2,283.1h7v7h-7V283.1z M439.2,290.4h7v7
	h-7V290.4z M439.2,297.6h7v7h-7V297.6z M446.5,167h7v7h-7V167z M446.5,174.2h7v7h-7V174.2z M446.5,181.5h7v7h-7V181.5z M446.5,188.7
	h7v7h-7V188.7z M446.5,196h7v7h-7V196z M446.5,203.3h7v7h-7V203.3z M446.5,210.5h7v7h-7V210.5z M446.5,217.8h7v7h-7V217.8z
	 M446.5,225h7v7h-7V225z M446.5,232.3h7v7h-7V232.3z M446.5,239.6h7v7h-7V239.6z M446.5,246.8h7v7h-7V246.8z M446.5,254.1h7v7h-7
	V254.1z M446.5,261.4h7v7h-7V261.4z M446.5,268.6h7v7h-7V268.6z M446.5,275.9h7v7h-7V275.9z M446.5,283.1h7v7h-7V283.1z
	 M446.5,290.4h7v7h-7V290.4z M446.5,297.6h7v7h-7V297.6z M446.5,341.2h7v7h-7V341.2z M446.5,348.5h7v7h-7V348.5z M453.8,181.5h7v7
	h-7V181.5z M453.8,188.7h7v7h-7V188.7z M453.8,196h7v7h-7V196z M453.8,203.3h7v7h-7V203.3z M453.8,210.5h7v7h-7V210.5z M453.8,217.8
	h7v7h-7V217.8z M453.8,225h7v7h-7V225z M453.8,232.3h7v7h-7V232.3z M453.8,239.6h7v7h-7V239.6z M453.8,246.8h7v7h-7V246.8z
	 M453.8,254.1h7v7h-7V254.1z M453.8,261.4h7v7h-7V261.4z M453.8,268.6h7v7h-7V268.6z M453.8,275.9h7v7h-7V275.9z M453.8,283.1h7v7
	h-7V283.1z M453.8,290.4h7v7h-7V290.4z M453.8,297.6h7v7h-7V297.6z M453.8,341.2h7v7h-7V341.2z M453.8,348.5h7v7h-7V348.5z M461,196
	h7v7h-7V196z M461,203.3h7v7h-7V203.3z M461,210.5h7v7h-7V210.5z M461,217.8h7v7h-7V217.8z M461,225h7v7h-7V225z M461,232.3h7v7h-7
	V232.3z M461,239.6h7v7h-7V239.6z M461,246.8h7v7h-7V246.8z M461,254.1h7v7h-7V254.1z M461,261.4h7v7h-7V261.4z M461,268.6h7v7h-7
	V268.6z M461,275.9h7v7h-7V275.9z M461,283.1h7v7h-7V283.1z M461,290.4h7v7h-7V290.4z M461,297.6h7v7h-7V297.6z M461,341.2h7v7h-7
	V341.2z M461,348.5h7v7h-7V348.5z M468.2,210.5h7v7h-7V210.5z M468.2,217.8h7v7h-7V217.8z M468.2,225h7v7h-7V225z M468.2,232.3h7v7
	h-7V232.3z M468.2,239.6h7v7h-7V239.6z M468.2,246.8h7v7h-7V246.8z M468.2,254.1h7v7h-7V254.1z M468.2,261.4h7v7h-7V261.4z
	 M468.2,268.6h7v7h-7V268.6z M468.2,275.9h7v7h-7V275.9z M468.2,283.1h7v7h-7V283.1z M468.2,290.4h7v7h-7V290.4z M468.2,297.6h7v7
	h-7V297.6z M468.2,341.2h7v7h-7V341.2z M468.2,348.5h7v7h-7V348.5z M468.2,355.7h7v7h-7V355.7z M468.2,363h7v7h-7V363z M468.2,370.2
	h7v7h-7V370.2z M468.2,377.5h7v7h-7V377.5z M468.2,384.8h7v7h-7V384.8z M468.2,392h7v7h-7V392z M468.2,399.3h7v7h-7V399.3z
	 M468.2,406.6h7v7h-7V406.6z M468.2,413.8h7v7h-7V413.8z M468.2,421.1h7v7h-7V421.1z M468.2,428.3h7v7h-7V428.3z M468.2,435.6h7v7
	h-7V435.6z M468.2,442.8h7v7h-7V442.8z M468.2,450.1h7v7h-7V450.1z M475.6,232.3h7v7h-7V232.3z M475.6,239.6h7v7h-7V239.6z
	 M475.6,246.8h7v7h-7V246.8z M475.6,254.1h7v7h-7V254.1z M475.6,261.4h7v7h-7V261.4z M475.6,268.6h7v7h-7V268.6z M475.6,275.9h7v7
	h-7V275.9z M475.6,283.1h7v7h-7V283.1z M475.6,290.4h7v7h-7V290.4z M475.6,297.6h7v7h-7V297.6z M475.6,341.2h7v7h-7V341.2z
	 M475.6,348.5h7v7h-7V348.5z M475.6,355.7h7v7h-7V355.7z M475.6,363h7v7h-7V363z M475.6,370.2h7v7h-7V370.2z M475.6,377.5h7v7h-7
	V377.5z M475.6,384.8h7v7h-7V384.8z M475.6,392h7v7h-7V392z M475.6,399.3h7v7h-7V399.3z M475.6,406.6h7v7h-7V406.6z M475.6,413.8h7
	v7h-7V413.8z M475.6,421.1h7v7h-7V421.1z M475.6,428.3h7v7h-7V428.3z M475.6,435.6h7v7h-7V435.6z M475.6,442.8h7v7h-7V442.8z
	 M475.6,450.1h7v7h-7V450.1z M482.8,341.2h7v7h-7V341.2z M482.8,348.5h7v7h-7V348.5z M490.1,341.2h7v7h-7V341.2z M490.1,348.5h7v7
	h-7V348.5z M497.2,341.2h7v7h-7V341.2z M497.2,348.5h7v7h-7V348.5z M432,500.9h7v7h-7V500.9z M439.2,457.4h7v7h-7V457.4z
	 M439.2,493.7h7v7h-7V493.7z M439.2,508.2h7v7h-7V508.2z M446.5,457.4h7v7h-7V457.4z M446.5,500.9h7v7h-7V500.9z M453.8,493.7h7v7
	h-7V493.7z M453.8,508.2h7v7h-7V508.2z M461,500.9h7v7h-7V500.9z M468.2,457.4h7v7h-7V457.4z M468.2,508.2h7v7h-7V508.2z
	 M475.6,457.4h7v7h-7V457.4z M475.6,500.9h7v7h-7V500.9z M482.8,508.2h7v7h-7V508.2z M490.1,500.9h7v7h-7V500.9z M497.2,457.4h7v7
	h-7V457.4z M497.2,508.2h7v7h-7V508.2z M519,348.5h7v7h-7V348.5z M519,355.7h7v7h-7V355.7z M519,363h7v7h-7V363z M519,370.2h7v7h-7
	V370.2z M519,377.5h7v7h-7V377.5z M519,384.8h7v7h-7V384.8z M519,392h7v7h-7V392z M519,399.3h7v7h-7V399.3z M519,406.6h7v7h-7V406.6
	z M519,413.8h7v7h-7V413.8z M519,421.1h7v7h-7V421.1z M519,428.3h7v7h-7V428.3z M519,435.6h7v7h-7V435.6z M519,442.8h7v7h-7V442.8z
	 M519,450.1h7v7h-7V450.1z M526.3,341.2h7v7h-7V341.2z M526.3,348.5h7v7h-7V348.5z M526.3,355.7h7v7h-7V355.7z M526.3,363h7v7h-7
	V363z M526.3,370.2h7v7h-7V370.2z M526.3,377.5h7v7h-7V377.5z M526.3,384.8h7v7h-7V384.8z M526.3,392h7v7h-7V392z M526.3,399.3h7v7
	h-7V399.3z M526.3,406.6h7v7h-7V406.6z M526.3,413.8h7v7h-7V413.8z M526.3,421.1h7v7h-7V421.1z M526.3,428.3h7v7h-7V428.3z
	 M526.3,435.6h7v7h-7V435.6z M526.3,442.8h7v7h-7V442.8z M526.3,450.1h7v7h-7V450.1z M533.5,341.2h7v7h-7V341.2z M533.5,348.5h7v7
	h-7V348.5z M533.5,377.5h7v7h-7V377.5z M533.5,384.8h7v7h-7V384.8z M540.8,341.2h7v7h-7V341.2z M540.8,348.5h7v7h-7V348.5z
	 M540.8,377.5h7v7h-7V377.5z M540.8,384.8h7v7h-7V384.8z M548.1,341.2h7v7h-7V341.2z M548.1,348.5h7v7h-7V348.5z M548.1,355.7h7v7
	h-7V355.7z M548.1,363h7v7h-7V363z M548.1,370.2h7v7h-7V370.2z M548.1,377.5h7v7h-7V377.5z M548.1,384.8h7v7h-7V384.8z M548.1,392h7
	v7h-7V392z M548.1,399.3h7v7h-7V399.3z M548.1,406.6h7v7h-7V406.6z M548.1,413.8h7v7h-7V413.8z M548.1,421.1h7v7h-7V421.1z
	 M548.1,428.3h7v7h-7V428.3z M548.1,435.6h7v7h-7V435.6z M548.1,442.8h7v7h-7V442.8z M548.1,450.1h7v7h-7V450.1z M555.3,348.5h7v7
	h-7V348.5z M555.3,355.7h7v7h-7V355.7z M555.3,363h7v7h-7V363z M555.3,370.2h7v7h-7V370.2z M555.3,377.5h7v7h-7V377.5z M555.3,384.8
	h7v7h-7V384.8z M555.3,392h7v7h-7V392z M555.3,399.3h7v7h-7V399.3z M555.3,406.6h7v7h-7V406.6z M555.3,413.8h7v7h-7V413.8z
	 M555.3,421.1h7v7h-7V421.1z M555.3,428.3h7v7h-7V428.3z M555.3,435.6h7v7h-7V435.6z M555.3,442.8h7v7h-7V442.8z M555.3,450.1h7v7
	h-7V450.1z M504.6,457.4h7v7h-7V457.4z M504.6,500.9h7v7h-7V500.9z M511.9,508.2h7v7h-7V508.2z M519,457.4h7v7h-7V457.4z M519,500.9
	h7v7h-7V500.9z M526.3,457.4h7v7h-7V457.4z M526.3,508.2h7v7h-7V508.2z M533.5,500.9h7v7h-7V500.9z M540.8,508.2h7v7h-7V508.2z
	 M548.1,457.4h7v7h-7V457.4z M548.1,500.9h7v7h-7V500.9z M555.3,457.4h7v7h-7V457.4z M555.3,508.2h7v7h-7V508.2z M562.6,500.9h7v7
	h-7V500.9z M569.8,457.4h7v7h-7V457.4z M569.8,500.9h7v7h-7V500.9z M591.6,341.2h7v7h-7V341.2z M591.6,348.5h7v7h-7V348.5z
	 M591.6,355.7h7v7h-7V355.7z M591.6,363h7v7h-7V363z M591.6,370.2h7v7h-7V370.2z M591.6,377.5h7v7h-7V377.5z M591.6,384.8h7v7h-7
	V384.8z M591.6,392h7v7h-7V392z M591.6,399.3h7v7h-7V399.3z M591.6,406.6h7v7h-7V406.6z M591.6,413.8h7v7h-7V413.8z M591.6,421.1h7
	v7h-7V421.1z M591.6,428.3h7v7h-7V428.3z M591.6,435.6h7v7h-7V435.6z M591.6,442.8h7v7h-7V442.8z M591.6,450.1h7v7h-7V450.1z
	 M598.9,341.2h7v7h-7V341.2z M598.9,348.5h7v7h-7V348.5z M598.9,355.7h7v7h-7V355.7z M598.9,363h7v7h-7V363z M598.9,370.2h7v7h-7
	V370.2z M598.9,377.5h7v7h-7V377.5z M598.9,384.8h7v7h-7V384.8z M598.9,392h7v7h-7V392z M598.9,399.3h7v7h-7V399.3z M598.9,406.6h7
	v7h-7V406.6z M598.9,413.8h7v7h-7V413.8z M598.9,421.1h7v7h-7V421.1z M598.9,428.3h7v7h-7V428.3z M598.9,435.6h7v7h-7V435.6z
	 M598.9,442.8h7v7h-7V442.8z M598.9,450.1h7v7h-7V450.1z M577.1,457.4h7v7h-7V457.4z M577.1,500.9h7v7h-7V500.9z M584.4,500.9h7v7
	h-7V500.9z M591.6,457.4h7v7h-7V457.4z M598.9,457.4h7v7h-7V457.4z M598.9,500.9h7v7h-7V500.9z M606.1,457.4h7v7h-7V457.4z
	 M613.4,457.4h7v7h-7V457.4z M613.4,500.9h7v7h-7V500.9z M620.8,457.4h7v7h-7V457.4z M620.8,500.9h7v7h-7V500.9z M627.9,500.9h7v7
	h-7V500.9z M635.2,457.4h7v7h-7V457.4z M642.4,457.4h7v7h-7V457.4z M635.2,500.9h7v7h-7V500.9z M657,341.2h7v7h-7V341.2z M657,348.5
	h7v7h-7V348.5z M657,355.7h7v7h-7V355.7z M657,363h7v7h-7V363z M657,370.2h7v7h-7V370.2z M657,377.5h7v7h-7V377.5z M657,384.8h7v7
	h-7V384.8z M657,392h7v7h-7V392z M657,399.3h7v7h-7V399.3z M657,406.6h7v7h-7V406.6z M657,413.8h7v7h-7V413.8z M657,421.1h7v7h-7
	V421.1z M657,428.3h7v7h-7V428.3z M657,435.6h7v7h-7V435.6z M657,442.8h7v7h-7V442.8z M657,450.1h7v7h-7V450.1z M664.2,341.2h7v7h-7
	V341.2z M664.2,348.5h7v7h-7V348.5z M664.2,355.7h7v7h-7V355.7z M664.2,363h7v7h-7V363z M664.2,370.2h7v7h-7V370.2z M664.2,377.5h7
	v7h-7V377.5z M664.2,384.8h7v7h-7V384.8z M664.2,392h7v7h-7V392z M664.2,399.3h7v7h-7V399.3z M664.2,406.6h7v7h-7V406.6z
	 M664.2,413.8h7v7h-7V413.8z M664.2,421.1h7v7h-7V421.1z M664.2,428.3h7v7h-7V428.3z M664.2,435.6h7v7h-7V435.6z M664.2,442.8h7v7
	h-7V442.8z M664.2,450.1h7v7h-7V450.1z M671.5,377.5h7v7h-7V377.5z M671.5,384.8h7v7h-7V384.8z M671.5,392h7v7h-7V392z M678.8,348.5
	h7v7h-7V348.5z M678.8,355.7h7v7h-7V355.7z M678.8,363h7v7h-7V363z M678.8,370.2h7v7h-7V370.2z M678.8,377.5h7v7h-7V377.5z
	 M678.8,384.8h7v7h-7V384.8z M678.8,392h7v7h-7V392z M678.8,399.3h7v7h-7V399.3z M678.8,406.6h7v7h-7V406.6z M678.8,413.8h7v7h-7
	V413.8z M678.8,421.1h7v7h-7V421.1z M678.8,428.3h7v7h-7V428.3z M678.8,435.6h7v7h-7V435.6z M678.8,442.8h7v7h-7V442.8z
	 M678.8,450.1h7v7h-7V450.1z M686,341.2h7v7h-7V341.2z M686,348.5h7v7h-7V348.5z M686,355.7h7v7h-7V355.7z M686,363h7v7h-7V363z
	 M686,370.2h7v7h-7V370.2z M686,377.5h7v7h-7V377.5z M686,384.8h7v7h-7V384.8z M686,392h7v7h-7V392z M686,399.3h7v7h-7V399.3z
	 M686,406.6h7v7h-7V406.6z M686,413.8h7v7h-7V413.8z M686,421.1h7v7h-7V421.1z M686,428.3h7v7h-7V428.3z M686,435.6h7v7h-7V435.6z
	 M686,442.8h7v7h-7V442.8z M686,450.1h7v7h-7V450.1z M693.3,341.2h7v7h-7V341.2z M649.8,500.9h7v7h-7V500.9z M657,457.4h7v7h-7
	V457.4z M657,500.9h7v7h-7V500.9z M664.2,457.4h7v7h-7V457.4z M664.2,500.9h7v7h-7V500.9z M671.5,500.9h7v7h-7V500.9z M686,457.4h7
	v7h-7V457.4z M693.3,457.4h7v7h-7V457.4z M686,500.9h7v7h-7V500.9z M693.3,500.9h7v7h-7V500.9z M700.5,500.9h7v7h-7V500.9z
	 M707.8,457.4h7v7h-7V457.4z M729.6,348.5h7v7h-7V348.5z M729.6,355.7h7v7h-7V355.7z M729.6,363h7v7h-7V363z M729.6,370.2h7v7h-7
	V370.2z M729.6,377.5h7v7h-7V377.5z M729.6,384.8h7v7h-7V384.8z M729.6,392h7v7h-7V392z M729.6,399.3h7v7h-7V399.3z M729.6,406.6h7
	v7h-7V406.6z M729.6,413.8h7v7h-7V413.8z M729.6,421.1h7v7h-7V421.1z M729.6,428.3h7v7h-7V428.3z M729.6,435.6h7v7h-7V435.6z
	 M729.6,442.8h7v7h-7V442.8z M729.6,450.1h7v7h-7V450.1z M736.8,341.2h7v7h-7V341.2z M736.8,348.5h7v7h-7V348.5z M736.8,355.7h7v7
	h-7V355.7z M736.8,363h7v7h-7V363z M736.8,370.2h7v7h-7V370.2z M736.8,377.5h7v7h-7V377.5z M736.8,384.8h7v7h-7V384.8z M736.8,392h7
	v7h-7V392z M736.8,399.3h7v7h-7V399.3z M736.8,406.6h7v7h-7V406.6z M736.8,413.8h7v7h-7V413.8z M736.8,421.1h7v7h-7V421.1z
	 M736.8,428.3h7v7h-7V428.3z M736.8,435.6h7v7h-7V435.6z M736.8,442.8h7v7h-7V442.8z M736.8,450.1h7v7h-7V450.1z M744.1,341.2h7v7
	h-7V341.2z M744.1,348.5h7v7h-7V348.5z M744.1,370.3h7v7h-7V370.3z M744.1,377.5h7v7h-7V377.5z M751.3,341.2h7v7h-7V341.2z
	 M751.3,348.5h7v7h-7V348.5z M751.3,370.3h7v7h-7V370.3z M751.3,377.5h7v7h-7V377.5z M758.6,341.2h7v7h-7V341.2z M758.6,348.5h7v7
	h-7V348.5z M758.6,370.3h7v7h-7V370.3z M758.6,377.5h7v7h-7V377.5z M780.4,457.4h7v7h-7V457.4z M736.8,457.4h7v7h-7V457.4z
	 M744.1,457.4h7v7h-7V457.4z M736.8,500.9h7v7h-7V500.9z M751.3,457.4h7v7h-7V457.4z M744.1,500.9h7v7h-7V500.9z M758.6,457.4h7v7
	h-7V457.4z M751.3,500.9h7v7h-7V500.9z M765.9,500.9h7v7h-7V500.9z M773.1,457.4h7v7h-7V457.4z M773.1,500.9h7v7h-7V500.9z
	 M780.4,500.9h7v7h-7V500.9z M787.6,500.9h7v7h-7V500.9z M794.9,341.2h7v7h-7V341.2z M794.9,348.5h7v7h-7V348.5z M794.9,355.7h7v7
	h-7V355.7z M794.9,363h7v7h-7V363z M794.9,370.2h7v7h-7V370.2z M794.9,377.5h7v7h-7V377.5z M794.9,384.8h7v7h-7V384.8z M794.9,392h7
	v7h-7V392z M794.9,399.3h7v7h-7V399.3z M794.9,406.6h7v7h-7V406.6z M794.9,413.8h7v7h-7V413.8z M794.9,421.1h7v7h-7V421.1z
	 M794.9,428.3h7v7h-7V428.3z M794.9,435.6h7v7h-7V435.6z M794.9,442.8h7v7h-7V442.8z M794.9,450.1h7v7h-7V450.1z M802.2,341.2h7v7
	h-7V341.2z M802.2,348.5h7v7h-7V348.5z M802.2,355.7h7v7h-7V355.7z M802.2,363h7v7h-7V363z M802.2,370.2h7v7h-7V370.2z M802.2,377.5
	h7v7h-7V377.5z M802.2,384.8h7v7h-7V384.8z M802.2,392h7v7h-7V392z M802.2,399.3h7v7h-7V399.3z M802.2,406.6h7v7h-7V406.6z
	 M802.2,413.8h7v7h-7V413.8z M802.2,421.1h7v7h-7V421.1z M802.2,428.3h7v7h-7V428.3z M802.2,435.6h7v7h-7V435.6z M802.2,442.8h7v7
	h-7V442.8z M802.2,450.1h7v7h-7V450.1z M809.4,341.2h7v7h-7V341.2z M809.4,348.5h7v7h-7V348.5z M809.4,384.8h7v7h-7V384.8z
	 M809.4,392h7v7h-7V392z M816.8,341.2h7v7h-7V341.2z M816.8,348.5h7v7h-7V348.5z M816.8,355.7h7v7h-7V355.7z M816.8,363h7v7h-7V363z
	 M816.8,370.2h7v7h-7V370.2z M816.8,377.5h7v7h-7V377.5z M816.8,384.8h7v7h-7V384.8z M816.8,392h7v7h-7V392z M816.8,399.3h7v7h-7
	V399.3z M816.8,406.6h7v7h-7V406.6z M816.8,413.8h7v7h-7V413.8z M816.8,421.1h7v7h-7V421.1z M816.8,428.3h7v7h-7V428.3z
	 M816.8,435.6h7v7h-7V435.6z M816.8,442.8h7v7h-7V442.8z M816.8,450.1h7v7h-7V450.1z M823.9,348.5h7v7h-7V348.5z M823.9,355.7h7v7
	h-7V355.7z M823.9,363h7v7h-7V363z M823.9,370.2h7v7h-7V370.2z M823.9,377.5h7v7h-7V377.5z M823.9,392h7v7h-7V392z M823.9,399.3h7v7
	h-7V399.3z M823.9,406.6h7v7h-7V406.6z M823.9,413.8h7v7h-7V413.8z M823.9,421.1h7v7h-7V421.1z M823.9,428.3h7v7h-7V428.3z
	 M823.9,435.6h7v7h-7V435.6z M823.9,442.8h7v7h-7V442.8z M823.9,450.1h7v7h-7V450.1z M794.9,457.4h7v7h-7V457.4z M794.9,500.9h7v7
	h-7V500.9z M802.2,457.4h7v7h-7V457.4z M802.2,500.9h7v7h-7V500.9z M809.4,508.2h7v7h-7V508.2z M816.8,457.4h7v7h-7V457.4z
	 M816.8,500.9h7v7h-7V500.9z M823.9,457.4h7v7h-7V457.4z M823.9,508.2h7v7h-7V508.2z M831.2,500.9h7v7h-7V500.9z M838.5,457.4h7v7
	h-7V457.4z M838.5,500.9h7v7h-7V500.9z M845.8,457.4h7v7h-7V457.4z M715.1,457.4h7v7h-7V457.4z"/>
</svg>
