<?xml version="1.0" encoding="utf-8"?>
<!-- Generator: Adobe Illustrator 27.3.1, SVG Export Plug-In . SVG Version: 6.00 Build 0)  -->
<svg version="1.1" id="Слой_1" xmlns="http://www.w3.org/2000/svg" xmlns:xlink="http://www.w3.org/1999/xlink" x="0px" y="0px"
	 viewBox="0 0 108.6 36" style="enable-background:new 0 0 108.6 36;" xml:space="preserve">
<style type="text/css">
	.st0{fill:#FCD275;}
</style>
<path class="st0" d="M0,29h7v7H0V29z M101.6,29h7v7h-7V29z M7.2,29h7v7h-7V29z M7.2,21.8h7v7h-7V21.8z M14.5,29h7v7h-7V29z M87.1,29
	h7v7h-7V29z M94.3,29h7v7h-7V29z M94.3,21.8h7v7h-7V21.8z M14.5,21.8h7v7h-7V21.8z M21.7,21.8h7v7h-7V21.8z M29,21.8h7v7h-7V21.8z
	 M72.5,21.8h7v7h-7V21.8z M79.8,21.8h7v7h-7V21.8z M87.1,21.8h7v7h-7V21.8z M21.7,14.5h7v7h-7V14.5z M29,14.5h7v7h-7V14.5z
	 M36.3,14.5h7v7h-7V14.5z M43.5,14.5h7v7h-7V14.5z M58,14.5h7v7h-7V14.5z M65.3,14.5h7v7h-7V14.5z M72.5,14.5h7v7h-7V14.5z
	 M79.8,14.5h7v7h-7V14.5z M36.3,7.3h7v7h-7V7.3z M43.5,7.3h7v7h-7V7.3z M50.8,7.3h7v7h-7V7.3z M58,7.3h7v7h-7V7.3z M65.3,7.3h7v7h-7
	V7.3z M50.8,0h7v7h-7V0z"/>
</svg>
