<?xml version="1.0" encoding="utf-8"?>
<!-- Generator: Adobe Illustrator 27.3.1, SVG Export Plug-In . SVG Version: 6.00 Build 0)  -->
<svg version="1.1" xmlns="http://www.w3.org/2000/svg" xmlns:xlink="http://www.w3.org/1999/xlink" x="0px" y="0px"
	 viewBox="0 0 65.1 537" style="enable-background:new 0 0 65.1 537;" xml:space="preserve">
<style type="text/css">
	.st0{display:none;}
	.st1{fill:#1E0E01;}
</style>
<g id="Слой_2" class="st0">
	
		<image style="display:inline;overflow:visible;" width="532" height="539" xlink:href="27F5A75D.jpg"  transform="matrix(0.1722 0 0 0.2066 0 1.025)">
	</image>
</g>
<g id="Слой_1">
	<rect y="36.3" class="st1" width="7" height="7"/>
	<rect y="43.6" class="st1" width="7" height="7"/>
	<rect y="50.9" class="st1" width="7" height="7"/>
	<rect y="58.1" class="st1" width="7" height="7"/>
	<rect y="65.4" class="st1" width="7" height="7"/>
	<rect y="203.3" class="st1" width="7" height="7"/>
	<rect y="210.6" class="st1" width="7" height="7"/>
	<rect y="217.8" class="st1" width="7" height="7"/>
	<rect y="225.1" class="st1" width="7" height="7"/>
	<rect y="232.3" class="st1" width="7" height="7"/>
	<rect y="239.6" class="st1" width="7" height="7"/>
	<rect y="246.9" class="st1" width="7" height="7"/>
	<rect y="254.1" class="st1" width="7" height="7"/>
	<rect y="261.4" class="st1" width="7" height="7"/>
	<rect y="268.7" class="st1" width="7" height="7"/>
	<rect y="290.4" class="st1" width="7" height="7"/>
	<rect y="297.7" class="st1" width="7" height="7"/>
	<rect y="304.9" class="st1" width="7" height="7"/>
	<rect y="312.2" class="st1" width="7" height="7"/>
	<rect y="319.5" class="st1" width="7" height="7"/>
	<rect y="326.7" class="st1" width="7" height="7"/>
	<rect y="334" class="st1" width="7" height="7"/>
	<rect y="341.3" class="st1" width="7" height="7"/>
	<rect y="348.5" class="st1" width="7" height="7"/>
	<rect y="355.8" class="st1" width="7" height="7"/>
	<rect y="377.5" class="st1" width="7" height="7"/>
	<rect y="384.8" class="st1" width="7" height="7"/>
	<rect y="392.1" class="st1" width="7" height="7"/>
	<rect y="399.3" class="st1" width="7" height="7"/>
	<rect y="406.6" class="st1" width="7" height="7"/>
	<rect y="413.9" class="st1" width="7" height="7"/>
	<rect y="421.1" class="st1" width="7" height="7"/>
	<rect y="428.4" class="st1" width="7" height="7"/>
	<rect y="435.6" class="st1" width="7" height="7"/>
	<rect y="442.9" class="st1" width="7" height="7"/>
	<rect y="464.7" class="st1" width="7" height="7"/>
	<rect y="471.9" class="st1" width="7" height="7"/>
	<rect y="479.2" class="st1" width="7" height="7"/>
	<rect y="486.5" class="st1" width="7" height="7"/>
	<rect y="493.7" class="st1" width="7" height="7"/>
	<rect y="501" class="st1" width="7" height="7"/>
	<rect y="508.2" class="st1" width="7" height="7"/>
	<rect y="515.5" class="st1" width="7" height="7"/>
	<rect y="522.7" class="st1" width="7" height="7"/>
	<rect y="530" class="st1" width="7" height="7"/>
	<rect x="7.3" y="29.1" class="st1" width="7" height="7"/>
	<rect x="14.5" y="29.1" class="st1" width="7" height="7"/>
	<rect x="7.3" y="72.6" class="st1" width="7" height="7"/>
	<rect x="14.5" y="72.6" class="st1" width="7" height="7"/>
	<rect x="7.3" y="203.3" class="st1" width="7" height="7"/>
	<rect x="7.3" y="210.6" class="st1" width="7" height="7"/>
	<rect x="7.3" y="217.8" class="st1" width="7" height="7"/>
	<rect x="7.3" y="225.1" class="st1" width="7" height="7"/>
	<rect x="7.3" y="232.3" class="st1" width="7" height="7"/>
	<rect x="7.3" y="239.6" class="st1" width="7" height="7"/>
	<rect x="7.3" y="246.9" class="st1" width="7" height="7"/>
	<rect x="7.3" y="254.1" class="st1" width="7" height="7"/>
	<rect x="7.3" y="261.4" class="st1" width="7" height="7"/>
	<rect x="7.3" y="268.7" class="st1" width="7" height="7"/>
	<rect x="7.3" y="290.4" class="st1" width="7" height="7"/>
	<rect x="7.3" y="297.7" class="st1" width="7" height="7"/>
	<rect x="7.3" y="304.9" class="st1" width="7" height="7"/>
	<rect x="7.3" y="312.2" class="st1" width="7" height="7"/>
	<rect x="7.3" y="319.5" class="st1" width="7" height="7"/>
	<rect x="7.3" y="326.7" class="st1" width="7" height="7"/>
	<rect x="7.3" y="334" class="st1" width="7" height="7"/>
	<rect x="7.3" y="341.3" class="st1" width="7" height="7"/>
	<rect x="7.3" y="348.5" class="st1" width="7" height="7"/>
	<rect x="7.3" y="355.8" class="st1" width="7" height="7"/>
	<rect x="7.3" y="377.5" class="st1" width="7" height="7"/>
	<rect x="7.3" y="384.8" class="st1" width="7" height="7"/>
	<rect x="7.3" y="392.1" class="st1" width="7" height="7"/>
	<rect x="7.3" y="399.3" class="st1" width="7" height="7"/>
	<rect x="7.3" y="406.6" class="st1" width="7" height="7"/>
	<rect x="7.3" y="413.9" class="st1" width="7" height="7"/>
	<rect x="7.3" y="421.1" class="st1" width="7" height="7"/>
	<rect x="7.3" y="428.4" class="st1" width="7" height="7"/>
	<rect x="7.3" y="435.6" class="st1" width="7" height="7"/>
	<rect x="7.3" y="442.9" class="st1" width="7" height="7"/>
	<rect x="7.3" y="464.7" class="st1" width="7" height="7"/>
	<rect x="7.3" y="471.9" class="st1" width="7" height="7"/>
	<rect x="7.3" y="479.2" class="st1" width="7" height="7"/>
	<rect x="7.3" y="486.5" class="st1" width="7" height="7"/>
	<rect x="7.3" y="493.7" class="st1" width="7" height="7"/>
	<rect x="7.3" y="501" class="st1" width="7" height="7"/>
	<rect x="7.3" y="508.2" class="st1" width="7" height="7"/>
	<rect x="7.3" y="515.5" class="st1" width="7" height="7"/>
	<rect x="7.3" y="522.7" class="st1" width="7" height="7"/>
	<rect x="7.3" y="530" class="st1" width="7" height="7"/>
	<rect x="21.8" y="29.1" class="st1" width="7" height="7"/>
	<rect x="21.8" y="72.6" class="st1" width="7" height="7"/>
	<rect x="14.5" y="203.3" class="st1" width="7" height="7"/>
	<rect x="14.5" y="210.6" class="st1" width="7" height="7"/>
	<rect x="14.5" y="217.8" class="st1" width="7" height="7"/>
	<rect x="14.5" y="225.1" class="st1" width="7" height="7"/>
	<rect x="14.5" y="232.3" class="st1" width="7" height="7"/>
	<rect x="14.5" y="239.6" class="st1" width="7" height="7"/>
	<rect x="14.5" y="246.9" class="st1" width="7" height="7"/>
	<rect x="14.5" y="254.1" class="st1" width="7" height="7"/>
	<rect x="14.5" y="261.4" class="st1" width="7" height="7"/>
	<rect x="14.5" y="268.7" class="st1" width="7" height="7"/>
	<rect x="14.5" y="290.4" class="st1" width="7" height="7"/>
	<rect x="14.5" y="297.7" class="st1" width="7" height="7"/>
	<rect x="14.5" y="304.9" class="st1" width="7" height="7"/>
	<rect x="14.5" y="312.2" class="st1" width="7" height="7"/>
	<rect x="14.5" y="319.5" class="st1" width="7" height="7"/>
	<rect x="14.5" y="326.7" class="st1" width="7" height="7"/>
	<rect x="14.5" y="334" class="st1" width="7" height="7"/>
	<rect x="14.5" y="341.3" class="st1" width="7" height="7"/>
	<rect x="14.5" y="348.5" class="st1" width="7" height="7"/>
	<rect x="14.5" y="355.8" class="st1" width="7" height="7"/>
	<rect x="14.5" y="377.5" class="st1" width="7" height="7"/>
	<rect x="14.5" y="384.8" class="st1" width="7" height="7"/>
	<rect x="14.5" y="392.1" class="st1" width="7" height="7"/>
	<rect x="14.5" y="399.3" class="st1" width="7" height="7"/>
	<rect x="14.5" y="406.6" class="st1" width="7" height="7"/>
	<rect x="14.5" y="413.9" class="st1" width="7" height="7"/>
	<rect x="14.5" y="421.1" class="st1" width="7" height="7"/>
	<rect x="14.5" y="428.4" class="st1" width="7" height="7"/>
	<rect x="14.5" y="435.6" class="st1" width="7" height="7"/>
	<rect x="14.5" y="442.9" class="st1" width="7" height="7"/>
	<rect x="29" y="21.8" class="st1" width="7" height="7"/>
	<rect x="29" y="29.1" class="st1" width="7" height="7"/>
	<rect x="29" y="36.3" class="st1" width="7" height="7"/>
	<rect x="29" y="43.6" class="st1" width="7" height="7"/>
	<rect x="29" y="50.8" class="st1" width="7" height="7"/>
	<rect x="29" y="58.1" class="st1" width="7" height="7"/>
	<rect x="29" y="65.3" class="st1" width="7" height="7"/>
	<rect x="29" y="72.6" class="st1" width="7" height="7"/>
	<rect x="29" y="79.9" class="st1" width="7" height="7"/>
	<rect x="21.8" y="203.3" class="st1" width="7" height="7"/>
	<rect x="21.8" y="210.6" class="st1" width="7" height="7"/>
	<rect x="21.8" y="217.8" class="st1" width="7" height="7"/>
	<rect x="21.8" y="225.1" class="st1" width="7" height="7"/>
	<rect x="21.8" y="232.3" class="st1" width="7" height="7"/>
	<rect x="21.8" y="239.6" class="st1" width="7" height="7"/>
	<rect x="21.8" y="246.9" class="st1" width="7" height="7"/>
	<rect x="21.8" y="254.1" class="st1" width="7" height="7"/>
	<rect x="21.8" y="261.4" class="st1" width="7" height="7"/>
	<rect x="21.8" y="268.7" class="st1" width="7" height="7"/>
	<rect x="21.8" y="290.4" class="st1" width="7" height="7"/>
	<rect x="21.8" y="297.7" class="st1" width="7" height="7"/>
	<rect x="21.8" y="304.9" class="st1" width="7" height="7"/>
	<rect x="21.8" y="312.2" class="st1" width="7" height="7"/>
	<rect x="21.8" y="319.5" class="st1" width="7" height="7"/>
	<rect x="21.8" y="326.7" class="st1" width="7" height="7"/>
	<rect x="21.8" y="334" class="st1" width="7" height="7"/>
	<rect x="21.8" y="341.3" class="st1" width="7" height="7"/>
	<rect x="21.8" y="348.5" class="st1" width="7" height="7"/>
	<rect x="21.8" y="355.8" class="st1" width="7" height="7"/>
	<rect x="36.3" y="14.5" class="st1" width="7" height="7"/>
	<rect x="36.3" y="87.2" class="st1" width="7" height="7"/>
	<rect x="29" y="203.3" class="st1" width="7" height="7"/>
	<rect x="29" y="210.6" class="st1" width="7" height="7"/>
	<rect x="29" y="217.8" class="st1" width="7" height="7"/>
	<rect x="29" y="225.1" class="st1" width="7" height="7"/>
	<rect x="29" y="232.3" class="st1" width="7" height="7"/>
	<rect x="29" y="239.6" class="st1" width="7" height="7"/>
	<rect x="29" y="246.9" class="st1" width="7" height="7"/>
	<rect x="29" y="254.1" class="st1" width="7" height="7"/>
	<rect x="29" y="261.4" class="st1" width="7" height="7"/>
	<rect x="29" y="268.7" class="st1" width="7" height="7"/>
	<rect x="43.6" y="7.3" class="st1" width="7" height="7"/>
	<rect x="43.6" y="94.4" class="st1" width="7" height="7"/>
	<rect x="50.8" y="0" class="st1" width="7" height="7"/>
	<rect x="50.8" y="101.7" class="st1" width="7" height="7"/>
	<rect x="58.1" y="14.5" class="st1" width="7" height="7"/>
	<rect x="58.1" y="21.8" class="st1" width="7" height="7"/>
	<rect x="58.1" y="0" class="st1" width="7" height="7"/>
	<rect x="58.1" y="7.3" class="st1" width="7" height="7"/>
	<rect x="58.1" y="29.1" class="st1" width="7" height="7"/>
	<rect x="58.1" y="36.3" class="st1" width="7" height="7"/>
	<rect x="58.1" y="43.6" class="st1" width="7" height="7"/>
	<rect x="58.1" y="50.9" class="st1" width="7" height="7"/>
	<rect x="58.1" y="58.1" class="st1" width="7" height="7"/>
	<rect x="58.1" y="65.4" class="st1" width="7" height="7"/>
	<rect x="58.1" y="72.6" class="st1" width="7" height="7"/>
	<rect x="58.1" y="79.9" class="st1" width="7" height="7"/>
	<rect x="58.1" y="87.2" class="st1" width="7" height="7"/>
	<rect x="58.1" y="94.4" class="st1" width="7" height="7"/>
	<rect x="58.1" y="101.7" class="st1" width="7" height="7"/>
</g>
</svg>
