<?xml version="1.0" encoding="utf-8"?>
<!-- Generator: Adobe Illustrator 27.3.1, SVG Export Plug-In . SVG Version: 6.00 Build 0)  -->
<svg version="1.1" id="Слой_1" xmlns="http://www.w3.org/2000/svg" xmlns:xlink="http://www.w3.org/1999/xlink" x="0px" y="0px"
	 viewBox="0 0 348.2 79.5" style="enable-background:new 0 0 348.2 79.5;" xml:space="preserve">
<style type="text/css">
	.st0{fill:#1E0E01;}
</style>
<rect x="0.1" y="0" class="st0" width="7" height="7"/>
<rect x="0.1" y="14.5" class="st0" width="7" height="7"/>
<rect x="0.1" y="29" class="st0" width="7" height="7"/>
<rect x="0.1" y="43.6" class="st0" width="7" height="7"/>
<rect x="0.1" y="58.1" class="st0" width="7" height="7"/>
<rect x="0.1" y="72.6" class="st0" width="7" height="7"/>
<rect x="7.4" y="7.3" class="st0" width="7" height="7"/>
<rect x="7.4" y="21.8" class="st0" width="7" height="7"/>
<rect x="7.4" y="36.3" class="st0" width="7" height="7"/>
<rect x="7.4" y="50.8" class="st0" width="7" height="7"/>
<rect x="7.4" y="65.3" class="st0" width="7" height="7"/>
<rect x="14.7" y="0" class="st0" width="7" height="7"/>
<rect x="14.7" y="14.5" class="st0" width="7" height="7"/>
<rect x="14.7" y="29" class="st0" width="7" height="7"/>
<rect x="14.7" y="43.6" class="st0" width="7" height="7"/>
<rect x="14.7" y="58.1" class="st0" width="7" height="7"/>
<rect x="14.7" y="72.6" class="st0" width="7" height="7"/>
<rect x="21.9" y="7.3" class="st0" width="7" height="7"/>
<rect x="21.9" y="21.8" class="st0" width="7" height="7"/>
<rect x="21.9" y="36.3" class="st0" width="7" height="7"/>
<rect x="21.9" y="50.8" class="st0" width="7" height="7"/>
<rect x="21.9" y="65.3" class="st0" width="7" height="7"/>
<rect x="29.2" y="0" class="st0" width="7" height="7"/>
<rect x="29.2" y="14.5" class="st0" width="7" height="7"/>
<rect x="29.2" y="29" class="st0" width="7" height="7"/>
<rect x="29.2" y="43.6" class="st0" width="7" height="7"/>
<rect x="29.2" y="58.1" class="st0" width="7" height="7"/>
<rect x="29.2" y="72.6" class="st0" width="7" height="7"/>
<rect x="36.5" y="7.3" class="st0" width="7" height="7"/>
<rect x="36.5" y="21.8" class="st0" width="7" height="7"/>
<rect x="36.5" y="36.3" class="st0" width="7" height="7"/>
<rect x="36.5" y="50.8" class="st0" width="7" height="7"/>
<rect x="36.5" y="65.3" class="st0" width="7" height="7"/>
<rect x="43.7" y="0" class="st0" width="7" height="7"/>
<rect x="43.7" y="14.5" class="st0" width="7" height="7"/>
<rect x="43.7" y="29" class="st0" width="7" height="7"/>
<rect x="43.7" y="43.6" class="st0" width="7" height="7"/>
<rect x="43.7" y="58.1" class="st0" width="7" height="7"/>
<rect x="43.7" y="72.6" class="st0" width="7" height="7"/>
<rect x="51" y="7.3" class="st0" width="7" height="7"/>
<rect x="51" y="21.8" class="st0" width="7" height="7"/>
<rect x="51" y="36.3" class="st0" width="7" height="7"/>
<rect x="51" y="50.8" class="st0" width="7" height="7"/>
<rect x="51" y="65.3" class="st0" width="7" height="7"/>
<rect x="58.2" y="0" class="st0" width="7" height="7"/>
<rect x="58.2" y="14.5" class="st0" width="7" height="7"/>
<rect x="58.2" y="29" class="st0" width="7" height="7"/>
<rect x="58.2" y="43.6" class="st0" width="7" height="7"/>
<rect x="58.2" y="58.1" class="st0" width="7" height="7"/>
<rect x="58.2" y="72.6" class="st0" width="7" height="7"/>
<rect x="65.5" y="7.3" class="st0" width="7" height="7"/>
<rect x="65.5" y="21.8" class="st0" width="7" height="7"/>
<rect x="65.5" y="36.3" class="st0" width="7" height="7"/>
<rect x="65.5" y="50.8" class="st0" width="7" height="7"/>
<rect x="65.5" y="65.3" class="st0" width="7" height="7"/>
<rect x="72.7" y="0" class="st0" width="7" height="7"/>
<rect x="72.7" y="14.5" class="st0" width="7" height="7"/>
<rect x="72.7" y="29" class="st0" width="7" height="7"/>
<rect x="72.7" y="43.6" class="st0" width="7" height="7"/>
<rect x="72.7" y="58.1" class="st0" width="7" height="7"/>
<rect x="72.7" y="72.6" class="st0" width="7" height="7"/>
<rect x="80" y="7.3" class="st0" width="7" height="7"/>
<rect x="80" y="21.8" class="st0" width="7" height="7"/>
<rect x="80" y="36.3" class="st0" width="7" height="7"/>
<rect x="80" y="50.8" class="st0" width="7" height="7"/>
<rect x="80" y="65.3" class="st0" width="7" height="7"/>
<rect x="87.3" y="0" class="st0" width="7" height="7"/>
<rect x="87.3" y="14.5" class="st0" width="7" height="7"/>
<rect x="87.3" y="29" class="st0" width="7" height="7"/>
<rect x="87.3" y="43.6" class="st0" width="7" height="7"/>
<rect x="87.3" y="58.1" class="st0" width="7" height="7"/>
<rect x="87.3" y="72.6" class="st0" width="7" height="7"/>
<rect x="94.5" y="7.3" class="st0" width="7" height="7"/>
<rect x="94.5" y="21.8" class="st0" width="7" height="7"/>
<rect x="94.5" y="36.3" class="st0" width="7" height="7"/>
<rect x="94.5" y="50.8" class="st0" width="7" height="7"/>
<rect x="94.5" y="65.3" class="st0" width="7" height="7"/>
<rect x="101.8" y="0" class="st0" width="7" height="7"/>
<rect x="101.8" y="14.5" class="st0" width="7" height="7"/>
<rect x="101.8" y="29" class="st0" width="7" height="7"/>
<rect x="101.8" y="43.6" class="st0" width="7" height="7"/>
<rect x="101.8" y="58.1" class="st0" width="7" height="7"/>
<rect x="101.8" y="72.6" class="st0" width="7" height="7"/>
<rect x="109.1" y="7.3" class="st0" width="7" height="7"/>
<rect x="109.1" y="21.8" class="st0" width="7" height="7"/>
<rect x="109.1" y="36.3" class="st0" width="7" height="7"/>
<rect x="109.1" y="50.8" class="st0" width="7" height="7"/>
<rect x="109.1" y="65.3" class="st0" width="7" height="7"/>
<rect x="116.3" y="0" class="st0" width="7" height="7"/>
<rect x="116.3" y="14.5" class="st0" width="7" height="7"/>
<rect x="116.3" y="29" class="st0" width="7" height="7"/>
<rect x="116.3" y="43.6" class="st0" width="7" height="7"/>
<rect x="116.3" y="58.1" class="st0" width="7" height="7"/>
<rect x="116.3" y="72.6" class="st0" width="7" height="7"/>
<rect x="123.6" y="7.3" class="st0" width="7" height="7"/>
<rect x="123.6" y="21.8" class="st0" width="7" height="7"/>
<rect x="123.6" y="36.3" class="st0" width="7" height="7"/>
<rect x="123.6" y="50.8" class="st0" width="7" height="7"/>
<rect x="123.6" y="65.3" class="st0" width="7" height="7"/>
<rect x="130.8" y="0" class="st0" width="7" height="7"/>
<rect x="130.8" y="14.5" class="st0" width="7" height="7"/>
<rect x="130.8" y="29" class="st0" width="7" height="7"/>
<rect x="130.8" y="43.6" class="st0" width="7" height="7"/>
<rect x="130.8" y="58.1" class="st0" width="7" height="7"/>
<rect x="130.8" y="72.6" class="st0" width="7" height="7"/>
<rect x="138.1" y="7.3" class="st0" width="7" height="7"/>
<rect x="138.1" y="21.8" class="st0" width="7" height="7"/>
<rect x="138.1" y="36.3" class="st0" width="7" height="7"/>
<rect x="138.1" y="50.8" class="st0" width="7" height="7"/>
<rect x="138.1" y="65.3" class="st0" width="7" height="7"/>
<rect x="145.3" y="0" class="st0" width="7" height="7"/>
<rect x="145.3" y="14.5" class="st0" width="7" height="7"/>
<rect x="145.3" y="29" class="st0" width="7" height="7"/>
<rect x="145.3" y="43.6" class="st0" width="7" height="7"/>
<rect x="145.3" y="58.1" class="st0" width="7" height="7"/>
<rect x="145.3" y="72.6" class="st0" width="7" height="7"/>
<rect x="152.6" y="7.3" class="st0" width="7" height="7"/>
<rect x="152.6" y="21.8" class="st0" width="7" height="7"/>
<rect x="152.6" y="36.3" class="st0" width="7" height="7"/>
<rect x="152.6" y="50.8" class="st0" width="7" height="7"/>
<rect x="152.6" y="65.3" class="st0" width="7" height="7"/>
<rect x="159.9" y="0" class="st0" width="7" height="7"/>
<rect x="159.9" y="14.5" class="st0" width="7" height="7"/>
<rect x="159.9" y="29" class="st0" width="7" height="7"/>
<rect x="159.9" y="43.6" class="st0" width="7" height="7"/>
<rect x="159.9" y="58.1" class="st0" width="7" height="7"/>
<rect x="159.9" y="72.6" class="st0" width="7" height="7"/>
<rect x="167.1" y="7.3" class="st0" width="7" height="7"/>
<rect x="167.1" y="21.8" class="st0" width="7" height="7"/>
<rect x="167.1" y="36.3" class="st0" width="7" height="7"/>
<rect x="167.1" y="50.8" class="st0" width="7" height="7"/>
<rect x="167.1" y="65.3" class="st0" width="7" height="7"/>
<rect x="174.4" y="0" class="st0" width="7" height="7"/>
<rect x="174.4" y="14.5" class="st0" width="7" height="7"/>
<rect x="174.4" y="29" class="st0" width="7" height="7"/>
<rect x="174.4" y="43.6" class="st0" width="7" height="7"/>
<rect x="174.4" y="58.1" class="st0" width="7" height="7"/>
<rect x="174.4" y="72.6" class="st0" width="7" height="7"/>
<rect x="181.6" y="7.3" class="st0" width="7" height="7"/>
<rect x="181.6" y="21.8" class="st0" width="7" height="7"/>
<rect x="181.6" y="36.3" class="st0" width="7" height="7"/>
<rect x="181.6" y="50.8" class="st0" width="7" height="7"/>
<rect x="181.6" y="65.3" class="st0" width="7" height="7"/>
<rect x="188.9" y="0" class="st0" width="7" height="7"/>
<rect x="188.9" y="14.5" class="st0" width="7" height="7"/>
<rect x="188.9" y="29" class="st0" width="7" height="7"/>
<rect x="188.9" y="43.6" class="st0" width="7" height="7"/>
<rect x="188.9" y="58.1" class="st0" width="7" height="7"/>
<rect x="188.9" y="72.6" class="st0" width="7" height="7"/>
<rect x="196.2" y="7.3" class="st0" width="7" height="7"/>
<rect x="196.2" y="21.8" class="st0" width="7" height="7"/>
<rect x="196.2" y="36.3" class="st0" width="7" height="7"/>
<rect x="196.2" y="50.8" class="st0" width="7" height="7"/>
<rect x="196.2" y="65.3" class="st0" width="7" height="7"/>
<rect x="203.4" y="0" class="st0" width="7" height="7"/>
<rect x="203.4" y="14.5" class="st0" width="7" height="7"/>
<rect x="203.4" y="29" class="st0" width="7" height="7"/>
<rect x="203.4" y="43.6" class="st0" width="7" height="7"/>
<rect x="203.4" y="58.1" class="st0" width="7" height="7"/>
<rect x="203.4" y="72.6" class="st0" width="7" height="7"/>
<rect x="210.7" y="7.3" class="st0" width="7" height="7"/>
<rect x="210.7" y="21.8" class="st0" width="7" height="7"/>
<rect x="210.7" y="36.3" class="st0" width="7" height="7"/>
<rect x="210.7" y="50.8" class="st0" width="7" height="7"/>
<rect x="210.7" y="65.3" class="st0" width="7" height="7"/>
<rect x="217.9" y="0" class="st0" width="7" height="7"/>
<rect x="217.9" y="14.5" class="st0" width="7" height="7"/>
<rect x="217.9" y="29" class="st0" width="7" height="7"/>
<rect x="217.9" y="43.6" class="st0" width="7" height="7"/>
<rect x="217.9" y="58.1" class="st0" width="7" height="7"/>
<rect x="217.9" y="72.6" class="st0" width="7" height="7"/>
<rect x="225.2" y="7.3" class="st0" width="7" height="7"/>
<rect x="225.2" y="21.8" class="st0" width="7" height="7"/>
<rect x="225.2" y="36.3" class="st0" width="7" height="7"/>
<rect x="225.2" y="50.8" class="st0" width="7" height="7"/>
<rect x="225.2" y="65.3" class="st0" width="7" height="7"/>
<rect x="232.5" y="0" class="st0" width="7" height="7"/>
<rect x="232.5" y="14.5" class="st0" width="7" height="7"/>
<rect x="232.5" y="29" class="st0" width="7" height="7"/>
<rect x="232.5" y="43.6" class="st0" width="7" height="7"/>
<rect x="232.5" y="58.1" class="st0" width="7" height="7"/>
<rect x="232.5" y="72.6" class="st0" width="7" height="7"/>
<rect x="239.7" y="7.3" class="st0" width="7" height="7"/>
<rect x="239.7" y="21.8" class="st0" width="7" height="7"/>
<rect x="239.7" y="36.3" class="st0" width="7" height="7"/>
<rect x="239.7" y="50.8" class="st0" width="7" height="7"/>
<rect x="239.7" y="65.3" class="st0" width="7" height="7"/>
<rect x="247" y="0" class="st0" width="7" height="7"/>
<rect x="247" y="14.5" class="st0" width="7" height="7"/>
<rect x="247" y="29" class="st0" width="7" height="7"/>
<rect x="247" y="43.6" class="st0" width="7" height="7"/>
<rect x="247" y="58.1" class="st0" width="7" height="7"/>
<rect x="247" y="72.6" class="st0" width="7" height="7"/>
<rect x="254.2" y="7.3" class="st0" width="7" height="7"/>
<rect x="254.2" y="21.8" class="st0" width="7" height="7"/>
<rect x="254.2" y="36.3" class="st0" width="7" height="7"/>
<rect x="254.2" y="50.8" class="st0" width="7" height="7"/>
<rect x="254.2" y="65.3" class="st0" width="7" height="7"/>
<rect x="261.5" y="0" class="st0" width="7" height="7"/>
<rect x="261.5" y="14.5" class="st0" width="7" height="7"/>
<rect x="261.5" y="29" class="st0" width="7" height="7"/>
<rect x="261.5" y="43.6" class="st0" width="7" height="7"/>
<rect x="261.5" y="58.1" class="st0" width="7" height="7"/>
<rect x="261.5" y="72.6" class="st0" width="7" height="7"/>
<rect x="268.8" y="7.3" class="st0" width="7" height="7"/>
<rect x="268.8" y="21.8" class="st0" width="7" height="7"/>
<rect x="268.8" y="36.3" class="st0" width="7" height="7"/>
<rect x="268.8" y="50.8" class="st0" width="7" height="7"/>
<rect x="268.8" y="65.3" class="st0" width="7" height="7"/>
<rect x="276" y="0" class="st0" width="7" height="7"/>
<rect x="276" y="14.5" class="st0" width="7" height="7"/>
<rect x="276" y="29" class="st0" width="7" height="7"/>
<rect x="276" y="43.6" class="st0" width="7" height="7"/>
<rect x="276" y="58.1" class="st0" width="7" height="7"/>
<rect x="276" y="72.6" class="st0" width="7" height="7"/>
<rect x="283.3" y="7.3" class="st0" width="7" height="7"/>
<rect x="283.3" y="21.8" class="st0" width="7" height="7"/>
<rect x="283.3" y="36.3" class="st0" width="7" height="7"/>
<rect x="283.3" y="50.8" class="st0" width="7" height="7"/>
<rect x="283.3" y="65.3" class="st0" width="7" height="7"/>
<rect x="290.5" y="0" class="st0" width="7" height="7"/>
<rect x="290.5" y="14.5" class="st0" width="7" height="7"/>
<rect x="290.5" y="29" class="st0" width="7" height="7"/>
<rect x="290.5" y="43.6" class="st0" width="7" height="7"/>
<rect x="290.5" y="58.1" class="st0" width="7" height="7"/>
<rect x="290.5" y="72.6" class="st0" width="7" height="7"/>
<rect x="297.8" y="7.3" class="st0" width="7" height="7"/>
<rect x="297.8" y="21.8" class="st0" width="7" height="7"/>
<rect x="297.8" y="36.3" class="st0" width="7" height="7"/>
<rect x="297.8" y="50.8" class="st0" width="7" height="7"/>
<rect x="297.8" y="65.3" class="st0" width="7" height="7"/>
<rect x="305.1" y="0" class="st0" width="7" height="7"/>
<rect x="305.1" y="14.5" class="st0" width="7" height="7"/>
<rect x="305.1" y="29" class="st0" width="7" height="7"/>
<rect x="305.1" y="43.6" class="st0" width="7" height="7"/>
<rect x="305.1" y="58.1" class="st0" width="7" height="7"/>
<rect x="305.1" y="72.6" class="st0" width="7" height="7"/>
<rect x="312.3" y="7.3" class="st0" width="7" height="7"/>
<rect x="312.3" y="21.8" class="st0" width="7" height="7"/>
<rect x="312.3" y="36.3" class="st0" width="7" height="7"/>
<rect x="312.3" y="50.8" class="st0" width="7" height="7"/>
<rect x="312.3" y="65.3" class="st0" width="7" height="7"/>
<rect x="319.6" y="0" class="st0" width="7" height="7"/>
<rect x="319.6" y="14.5" class="st0" width="7" height="7"/>
<rect x="319.6" y="29" class="st0" width="7" height="7"/>
<rect x="319.6" y="43.6" class="st0" width="7" height="7"/>
<rect x="319.6" y="58.1" class="st0" width="7" height="7"/>
<rect x="319.6" y="72.6" class="st0" width="7" height="7"/>
<rect x="326.9" y="7.3" class="st0" width="7" height="7"/>
<rect x="326.9" y="21.8" class="st0" width="7" height="7"/>
<rect x="326.9" y="36.3" class="st0" width="7" height="7"/>
<rect x="326.9" y="50.8" class="st0" width="7" height="7"/>
<rect x="326.9" y="65.3" class="st0" width="7" height="7"/>
<rect x="334.1" y="0" class="st0" width="7" height="7"/>
<rect x="334.1" y="14.5" class="st0" width="7" height="7"/>
<rect x="334.1" y="29" class="st0" width="7" height="7"/>
<rect x="334.1" y="43.6" class="st0" width="7" height="7"/>
<rect x="334.1" y="58.1" class="st0" width="7" height="7"/>
<rect x="334.1" y="72.6" class="st0" width="7" height="7"/>
<rect x="341.4" y="7.3" class="st0" width="7" height="7"/>
<rect x="341.4" y="21.8" class="st0" width="7" height="7"/>
<rect x="341.4" y="36.3" class="st0" width="7" height="7"/>
<rect x="341.4" y="50.8" class="st0" width="7" height="7"/>
<rect x="341.4" y="65.3" class="st0" width="7" height="7"/>
</svg>
