<?xml version="1.0" encoding="utf-8"?>
<!-- Generator: Adobe Illustrator 27.3.1, SVG Export Plug-In . SVG Version: 6.00 Build 0)  -->
<svg version="1.1" id="Слой_1" xmlns="http://www.w3.org/2000/svg" xmlns:xlink="http://www.w3.org/1999/xlink" x="0px" y="0px"
	 viewBox="0 0 108.5 101.4" style="enable-background:new 0 0 108.5 101.4;" xml:space="preserve">
<style type="text/css">
	.st0{fill:#1E0E01;}
</style>
<path class="st0" d="M64.7,0.1h7v7h-7V0.1z M72,0.1h7v7h-7V0.1z M57.4,7.4h7v7h-7V7.4z M79.2,7.4h7v7h-7V7.4z M57.4,14.6h7v7h-7
	V14.6z M79.2,14.6h7v7h-7V14.6z M50.4,22h7v7h-7V22z M50.2,21.9h7v7h-7V21.9z M64.7,21.9h7v7h-7V21.9z M72,21.9h7v7h-7V21.9z
	 M42.9,29.1h7v7h-7V29.1z M57.4,29.1h7v7h-7V29.1z M50.2,36.4h7v7h-7V36.4z M64.7,36.4h7v7h-7V36.4z M42.9,43.7h7v7h-7V43.7z
	 M35.7,50.9h7v7h-7V50.9z M50.2,50.9h7v7h-7V50.9z M7.3,72.6h7v7h-7V72.6z M14.5,72.6h7v7h-7V72.6z M21.8,72.6h7v7h-7V72.6z
	 M29,72.6h7v7h-7V72.6z M36.3,72.6h7v7h-7V72.6z M43.6,72.6h7v7h-7V72.6z M0,79.9h7v7H0V79.9z M7.2,79.9h7v7h-7V79.9z M29,79.9h7v7
	h-7V79.9z M36.3,79.9h7v7h-7V79.9z M0,87.1h7v7H0V87.1z M21.8,87.1h7v7h-7V87.1z M29,87.1h7v7h-7V87.1z M7.3,94.4h7v7h-7V94.4z
	 M14.5,94.4h7v7h-7V94.4z M21.8,94.4h7v7h-7V94.4z M29,94.4h7v7h-7V94.4z M36.3,94.4h7v7h-7V94.4z M43.6,94.4h7v7h-7V94.4z
	 M50.8,72.6h7v7h-7V72.6z M58,72.6h7v7h-7V72.6z M65.3,72.6h7v7h-7V72.6z M72.5,72.6h7v7h-7V72.6z M79.8,72.6h7v7h-7V72.6z
	 M87.1,72.6h7v7h-7V72.6z M94.3,72.6h7v7h-7V72.6z M58,79.9h7v7h-7V79.9z M65.3,79.9h7v7h-7V79.9z M94.3,79.9h7v7h-7V79.9z
	 M101.6,79.9h7v7h-7V79.9z M65.3,87.1h7v7h-7V87.1z M72.5,87.1h7v7h-7V87.1z M101.6,87.1h7v7h-7V87.1z M50.8,94.4h7v7h-7V94.4z
	 M58,94.4h7v7h-7V94.4z M65.3,94.4h7v7h-7V94.4z M72.5,94.4h7v7h-7V94.4z M79.8,94.4h7v7h-7V94.4z M87.1,94.4h7v7h-7V94.4z
	 M94.3,94.4h7v7h-7V94.4z"/>
</svg>
