<?xml version="1.0" encoding="utf-8"?>
<!-- Generator: Adobe Illustrator 27.3.1, SVG Export Plug-In . SVG Version: 6.00 Build 0)  -->
<svg version="1.1" id="Слой_1" xmlns="http://www.w3.org/2000/svg" xmlns:xlink="http://www.w3.org/1999/xlink" x="0px" y="0px"
	 viewBox="0 0 116 108.8" style="enable-background:new 0 0 116 108.8;" xml:space="preserve">
<style type="text/css">
	.st0{fill:#1E0E01;}
</style>
<path class="st0" d="M65.4,7.3h7v7h-7V7.3z M65.4,21.8h7v7h-7V21.8z M65.4,29.1h7v7h-7V29.1z M65.4,36.4h7v7h-7V36.4z M72.7,7.3h7v7
	h-7V7.3z M72.7,14.6h7v7h-7V14.6z M72.7,29.1h7v7h-7V29.1z M72.7,36.4h7v7h-7V36.4z M72.7,43.6h7v7h-7V43.6z M79.9,7.3h7v7h-7V7.3z
	 M79.9,21.8h7v7h-7V21.8z M79.9,29.1h7v7h-7V29.1z M79.9,43.6h7v7h-7V43.6z M79.9,50.9h7v7h-7V50.9z M87.2,7.3h7v7h-7V7.3z
	 M87.2,14.6h7v7h-7V14.6z M87.2,29.1h7v7h-7V29.1z M87.2,36.4h7v7h-7V36.4z M87.2,43.6h7v7h-7V43.6z M87.2,50.9h7v7h-7V50.9z
	 M94.4,14.6h7v7h-7V14.6z M94.4,21.8h7v7h-7V21.8z M94.4,36.4h7v7h-7V36.4z M94.4,50.9h7v7h-7V50.9z M101.7,21.8h7v7h-7V21.8z
	 M101.7,29.1h7v7h-7V29.1z M101.7,43.6h7v7h-7V43.6z M109,29.1h7v7h-7V29.1z M109,36.4h7v7h-7V36.4z M109,43.6h7v7h-7V43.6z
	 M109,50.9h7v7h-7V50.9z M116,58.2v7h-7v-7H116z M101.5,58.2v7h-7v-7H101.5z M94.2,58.2v7h-7v-7H94.2z M86.9,58.2v7h-7v-7H86.9z
	 M116,65.5v7h-7v-7H116z M108.7,65.5v7h-7v-7H108.7z M94.2,65.5v7h-7v-7H94.2z M86.9,65.5v7h-7v-7H86.9z M79.7,65.5v7h-7v-7H79.7z
	 M116,72.7v7h-7v-7H116z M101.5,72.7v7h-7v-7H101.5z M94.2,72.7v7h-7v-7H94.2z M79.7,72.7v7h-7v-7H79.7z M72.4,72.7v7h-7v-7H72.4z
	 M116,80v7h-7v-7H116z M108.7,80v7h-7v-7H108.7z M94.2,80v7h-7v-7H94.2z M86.9,80v7h-7v-7H86.9z M79.7,80v7h-7v-7H79.7z M72.4,80v7
	h-7v-7H72.4z M108.7,87.2v7h-7v-7H108.7z M101.5,87.2v7h-7v-7H101.5z M86.9,87.2v7h-7v-7H86.9z M72.4,87.2v7h-7v-7H72.4z
	 M101.5,94.5v7h-7v-7H101.5z M94.2,94.5v7h-7v-7H94.2z M79.7,94.5v7h-7v-7H79.7z M94.2,101.8v7h-7v-7H94.2z M86.9,101.8v7h-7v-7
	H86.9z M79.7,101.8v7h-7v-7H79.7z M72.4,101.8v7h-7v-7H72.4z M65.1,14.3h-7v-7h7V14.3z M65.1,28.8h-7v-7h7V28.8z M65.1,43.4h-7v-7h7
	V43.4z M57.8,14.3h-7v-7h7V14.3z M57.8,21.6h-7v-7h7V21.6z M57.8,36.1h-7v-7h7V36.1z M57.8,43.4h-7v-7h7V43.4z M50.6,7h-7V0l7,0V7z
	 M50.6,14.3h-7v-7h7V14.3z M50.6,28.8h-7v-7h7V28.8z M50.6,43.4h-7v-7h7V43.4z M50.6,50.6h-7v-7h7V50.6z M43.3,7h-7V0l7,0V7z
	 M43.3,21.6h-7v-7h7V21.6z M43.3,36.1h-7v-7h7V36.1z M43.3,50.6h-7v-7h7V50.6z M36.1,7h-7V0l7,0V7z M36.1,14.3h-7v-7h7V14.3z
	 M36.1,28.8h-7v-7h7V28.8z M36.1,43.4h-7v-7h7V43.4z M36.1,50.6h-7v-7h7V50.6z M28.8,7h-7V0l7,0V7z M28.8,14.3h-7v-7h7V14.3z
	 M28.8,21.6h-7v-7h7V21.6z M28.8,28.8h-7v-7h7V28.8z M28.8,36.1h-7v-7h7V36.1z M28.8,43.4h-7v-7h7V43.4z M28.8,50.6h-7v-7h7V50.6z
	 M21.5,14.3h-7v-7h7V14.3z M21.5,28.8h-7v-7h7V28.8z M21.5,43.4h-7v-7h7V43.4z M14.3,21.6h-7v-7h7V21.6z M14.3,28.8h-7v-7h7V28.8z
	 M14.3,36.1h-7v-7h7V36.1z M7,28.8H0l0-7h7V28.8z M65,79.7h-7v-7h7V79.7z M65,87h-7v-7h7V87z M65,101.5h-7v-7h7V101.5z M57.7,101.5
	h-7v-7h7V101.5z M65,108.8h-7v-7h7V108.8z M57.7,72.4h-7v-7h7V72.4z M57.7,79.7h-7v-7h7V79.7z M57.7,94.2h-7v-7h7V94.2z M50.5,94.2
	h-7v-7h7V94.2z M50.5,72.4h-7v-7h7V72.4z M50.5,87h-7v-7h7V87z M50.5,101.5h-7v-7h7V101.5z M43.2,79.7h-7v-7h7V79.7z M43.2,94.2h-7
	v-7h7V94.2z M43.2,86.9h-7v-7h7V86.9z M43.2,101.5h-7v-7h7V101.5z M36,87h-7v-7h7V87z M36,94.2h-7v-7h7V94.2z M28.7,94.2h-7v-7h7
	V94.2z M21.5,94.2h-7v-7h7V94.2z M36,101.5h-7v-7h7V101.5z"/>
</svg>
