<?xml version="1.0" encoding="utf-8"?>
<!-- Generator: Adobe Illustrator 27.3.1, SVG Export Plug-In . SVG Version: 6.00 Build 0)  -->
<svg version="1.1" id="Слой_1" xmlns="http://www.w3.org/2000/svg" xmlns:xlink="http://www.w3.org/1999/xlink" x="0px" y="0px"
	 viewBox="0 0 152.2 115.9" style="enable-background:new 0 0 152.2 115.9;" xml:space="preserve">
<style type="text/css">
	.st0{fill:#1E0E01;}
</style>
<path class="st0" d="M144.9,14.5v7h-7v-7H144.9z M144.9,21.8v7h-7v-7C137.9,21.8,144.9,21.8,144.9,21.8z M144.9,29v7h-7v-7H144.9z
	 M137.7,14.5v7h-7v-7H137.7z M123.1,14.5v7h-7v-7H123.1z M130.4,14.5v7h-7v-7H130.4z M115.8,14.5v7h-7v-7H115.8z M101.3,14.5v7h-7
	v-7H101.3z M108.6,14.5v7h-7v-7H108.6z M94.1,14.5v7h-7v-7H94.1z M79.6,14.5v7h-7v-7H79.6z M86.9,14.5v7h-7v-7H86.9z M72.3,14.5v7
	h-7v-7H72.3z M123.1,21.8v7h-7v-7C116.1,21.8,123.1,21.8,123.1,21.8z M130.4,21.8v7h-7v-7C123.4,21.8,130.4,21.8,130.4,21.8z
	 M115.8,21.8v7h-7v-7C108.8,21.8,115.8,21.8,115.8,21.8z M101.3,21.8v7h-7v-7C94.3,21.8,101.3,21.8,101.3,21.8z M108.6,21.8v7h-7v-7
	C101.6,21.8,108.6,21.8,108.6,21.8z M86.8,21.8v7h-7v-7C79.8,21.8,86.8,21.8,86.8,21.8z M94.1,21.8v7h-7v-7
	C87.1,21.8,94.1,21.8,94.1,21.8z M79.6,21.8v7h-7v-7C72.6,21.8,79.6,21.8,79.6,21.8z M115.8,29v7h-7v-7H115.8z M108.6,29v7h-7v-7
	H108.6z M94.1,29v7h-7v-7H94.1z M101.4,29v7h-7v-7H101.4z M86.8,29v7h-7v-7H86.8z M72.3,29v7h-7v-7H72.3z M137.6,36.3v7h-7v-7H137.6
	z M130.4,36.3v7h-7v-7H130.4z M123.1,36.3v7h-7v-7H123.1z M115.8,36.3v7h-7v-7H115.8z M108.6,36.3v7h-7v-7H108.6z M101.3,36.3v7h-7
	v-7H101.3z M94.1,36.3v7h-7v-7H94.1z M79.6,36.3v7h-7v-7H79.6z M72.3,36.3v7h-7v-7H72.3z M115.8,43.5v7h-7v-7H115.8z M86.8,43.5v7
	h-7v-7H86.8z M79.6,43.5v7h-7v-7H79.6z M21.4,0v7h-7V0H21.4z M43.2,14.5v7h-7v-7H43.2z M50.5,14.5v7h-7v-7H50.5z M57.7,14.5v7h-7v-7
	H57.7z M65,14.5v7h-7v-7H65z M36,14.5v7h-7v-7H36z M28.7,14.5v7h-7v-7H28.7z M21.5,14.5v7h-7v-7H21.5z M28.7,21.8v7h-7v-7
	C21.7,21.8,28.7,21.8,28.7,21.8z M65,29v7h-7v-7H65z M50.5,29v7h-7v-7H50.5z M43.2,29v7h-7v-7H43.2z M36,29v7h-7v-7H36z M57.8,36.3
	v7h-7v-7H57.8z M36,36.3v7h-7v-7H36z M21.5,36.3v7h-7v-7H21.5z M14.2,36.3v7h-7v-7H14.2z M57.8,43.5v7h-7v-7H57.8z M50.5,43.5v7h-7
	v-7H50.5z M36,43.5v7h-7v-7H36z M21.5,43.5v7h-7v-7H21.5z M152.2,50.8v7h-7v-7H152.2z M144.9,50.8v7h-7v-7H144.9z M152.2,58.1v7h-7
	v-7H152.2z M144.9,58.1v7h-7v-7H144.9z M144.9,79.8v7h-7v-7H144.9z M144.9,87.1v7h-7v-7H144.9z M144.9,94.4v7h-7v-7H144.9z
	 M144.9,101.6v7h-7v-7H144.9z M137.6,50.8v7h-7v-7H137.6z M130.4,50.8v7h-7v-7H130.4z M123.1,50.8v7h-7v-7H123.1z M115.8,50.8v7h-7
	v-7H115.8z M108.6,50.8v7h-7v-7H108.6z M101.3,50.8v7h-7v-7H101.3z M94.1,50.8v7h-7v-7H94.1z M86.8,50.8v7h-7v-7H86.8z M72.3,50.8v7
	h-7v-7H72.3z M137.6,58.1v7h-7v-7H137.6z M130.4,58.1v7h-7v-7H130.4z M123.1,58.1v7h-7v-7H123.1z M115.8,58.1v7h-7v-7H115.8z
	 M108.6,58.1v7h-7v-7H108.6z M101.3,58.1v7h-7v-7H101.3z M94.1,58.1v7h-7v-7H94.1z M86.8,58.1v7h-7v-7H86.8z M72.3,58.1v7h-7v-7
	H72.3z M115.8,65.3v7h-7v-7H115.8z M86.8,65.3v7h-7v-7H86.8z M79.6,65.3v7h-7v-7H79.6z M137.6,72.6v7h-7v-7H137.6z M130.4,72.6v7h-7
	v-7H130.4z M123.1,72.6v7h-7v-7H123.1z M115.8,72.6v7h-7v-7H115.8z M108.6,72.6v7h-7v-7H108.6z M101.3,72.6v7h-7v-7H101.3z
	 M94.1,72.6v7h-7v-7H94.1z M79.6,72.6v7h-7v-7H79.6z M72.3,72.6v7h-7v-7H72.3z M115.8,79.8v7h-7v-7H115.8z M108.6,79.8v7h-7v-7
	H108.6z M94.1,79.8v7h-7v-7H94.1z M101.4,79.8v7h-7v-7H101.4z M86.8,79.8v7h-7v-7H86.8z M72.3,79.8v7h-7v-7H72.3z M123.1,87.1v7h-7
	v-7H123.1z M130.4,87.1v7h-7v-7H130.4z M115.8,87.1v7h-7v-7H115.8z M101.3,87.1v7h-7v-7H101.3z M108.6,87.1v7h-7v-7H108.6z
	 M86.8,87.1v7h-7v-7H86.8z M94.1,87.1v7h-7v-7H94.1z M79.6,87.1v7h-7v-7H79.6z M137.7,94.4v7h-7v-7H137.7z M123.1,94.4v7h-7v-7
	H123.1z M130.4,94.4v7h-7v-7H130.4z M115.8,94.4v7h-7v-7H115.8z M101.3,94.4v7h-7v-7H101.3z M108.6,94.4v7h-7v-7H108.6z M94.1,94.4
	v7h-7v-7H94.1z M79.6,94.4v7h-7v-7H79.6z M86.9,94.4v7h-7v-7H86.9z M72.3,94.4v7h-7v-7H72.3z M65,50.8v7h-7v-7H65z M50.5,50.8v7h-7
	v-7H50.5z M36,50.8v7h-7v-7H36z M21.5,50.8v7h-7v-7H21.5z M65,58.1v7h-7v-7H65z M50.5,58.1v7h-7v-7H50.5z M36,58.1v7h-7v-7H36z
	 M21.5,58.1v7h-7v-7H21.5z M57.8,65.3v7h-7v-7H57.8z M50.5,65.3v7h-7v-7H50.5z M36,65.3v7h-7v-7H36z M21.5,65.3v7h-7v-7H21.5z
	 M57.8,72.6v7h-7v-7H57.8z M36,72.6v7h-7v-7H36z M21.5,72.6v7h-7v-7H21.5z M14.2,72.6v7h-7v-7H14.2z M65,79.8v7h-7v-7H65z
	 M50.5,79.8v7h-7v-7H50.5z M43.2,79.8v7h-7v-7H43.2z M36,79.8v7h-7v-7H36z M28.7,87.1v7h-7v-7H28.7z M43.2,94.4v7h-7v-7H43.2z
	 M50.5,94.4v7h-7v-7H50.5z M57.7,94.4v7h-7v-7H57.7z M65,94.4v7h-7v-7H65z M36,94.4v7h-7v-7H36z M28.7,94.4v7h-7v-7H28.7z
	 M21.5,94.4v7h-7v-7H21.5z M21.5,108.9v7h-7v-7H21.5z M7,14.5v7H0v-7H7z M14.3,14.5v7h-7v-7H14.3z M7,21.8v7H0v-7
	C0,21.8,7,21.8,7,21.8z M14.3,21.8v7h-7v-7C7.3,21.8,14.3,21.8,14.3,21.8z M21.6,21.8v7h-7v-7C14.6,21.8,21.6,21.8,21.6,21.8z M7,29
	v7H0v-7H7z M14.3,29v7h-7v-7H14.3z M7,79.8v7H0v-7H7z M14.3,79.8v7h-7v-7H14.3z M7,87.1v7H0v-7H7z M14.3,87.1v7h-7v-7H14.3z
	 M21.6,87.1v7h-7v-7H21.6z M7,94.4v7H0v-7H7z M14.3,94.4v7h-7v-7H14.3z M144.9,14.5v7h-7v-7H144.9z M137.7,14.5v7h-7v-7H137.7z
	 M123.1,14.5v7h-7v-7H123.1z M130.4,14.5v7h-7v-7H130.4z M115.8,14.5v7h-7v-7H115.8z M101.3,14.5v7h-7v-7H101.3z M108.6,14.5v7h-7
	v-7H108.6z M94.1,14.5v7h-7v-7H94.1z M79.6,14.5v7h-7v-7H79.6z M86.9,14.5v7h-7v-7H86.9z M72.3,14.5v7h-7v-7H72.3z M115.8,21.8v7h-7
	v-7C108.8,21.8,115.8,21.8,115.8,21.8z M101.3,21.8v7h-7v-7C94.3,21.8,101.3,21.8,101.3,21.8z M108.6,21.8v7h-7v-7
	C101.6,21.8,108.6,21.8,108.6,21.8z M86.8,21.8v7h-7v-7C79.8,21.8,86.8,21.8,86.8,21.8z M94.1,21.8v7h-7v-7
	C87.1,21.8,94.1,21.8,94.1,21.8z M79.6,21.8v7h-7v-7C72.6,21.8,79.6,21.8,79.6,21.8z M137.7,29v7h-7v-7H137.7z M115.8,29v7h-7v-7
	H115.8z M123.1,29v7h-7v-7H123.1z M108.6,29v7h-7v-7H108.6z M94.1,29v7h-7v-7H94.1z M101.4,29v7h-7v-7H101.4z M86.8,29v7h-7v-7H86.8
	z M72.3,29v7h-7v-7H72.3z M137.6,36.3v7h-7v-7H137.6z M130.4,36.3v7h-7v-7H130.4z M123.1,36.3v7h-7v-7H123.1z M115.8,36.3v7h-7v-7
	H115.8z M108.6,36.3v7h-7v-7H108.6z M101.3,36.3v7h-7v-7H101.3z M94.1,36.3v7h-7v-7H94.1z M79.6,36.3v7h-7v-7H79.6z M72.3,36.3v7h-7
	v-7H72.3z M115.8,43.5v7h-7v-7H115.8z M86.8,43.5v7h-7v-7H86.8z M79.6,43.5v7h-7v-7H79.6z M21.4,0v7h-7V0H21.4z M14.2,0v7h-7V0H14.2
	z M43.2,14.5v7h-7v-7H43.2z M50.5,14.5v7h-7v-7H50.5z M57.7,14.5v7h-7v-7H57.7z M65,14.5v7h-7v-7H65z M36,14.5v7h-7v-7H36z
	 M28.7,14.5v7h-7v-7H28.7z M36,7.2v7h-7v-7H36z M28.7,7.2v7h-7v-7H28.7z M36,7.2v7h-7v-7H36z M28.7,7.2v7h-7v-7H28.7z M50.4,0v7h-7
	V0H50.4z M50.4,0v7h-7V0H50.4z M43.2,0v7h-7V0H43.2z M65,7.2v7h-7v-7H65z M57.7,7.2v7h-7v-7H57.7z M65,7.2v7h-7v-7H65z M57.7,7.2v7
	h-7v-7H57.7z M79.5,0v7h-7V0H79.5z M79.5,0v7h-7V0H79.5z M72.3,0v7h-7V0H72.3z M94.1,7.2v7h-7v-7H94.1z M86.8,7.2v7h-7v-7H86.8z
	 M94.1,7.2v7h-7v-7H94.1z M86.8,7.2v7h-7v-7H86.8z M108.5,0v7h-7V0H108.5z M108.5,0v7h-7V0H108.5z M101.3,0v7h-7V0H101.3z
	 M123.1,7.2v7h-7v-7H123.1z M115.8,7.2v7h-7v-7H115.8z M123.1,7.2v7h-7v-7H123.1z M115.8,7.2v7h-7v-7H115.8z M137.6,0v7h-7V0H137.6z
	 M137.6,0v7h-7V0H137.6z M130.4,0v7h-7V0H130.4z M144.9,7.2v7h-7v-7H144.9z M144.9,7.2v7h-7v-7H144.9z M21.5,14.5v7h-7v-7H21.5z
	 M28.7,21.8v7h-7v-7C21.7,21.8,28.7,21.8,28.7,21.8z M65,29v7h-7v-7H65z M57.8,29v7h-7v-7H57.8z M57.8,36.3v7h-7v-7H57.8z M36,36.3
	v7h-7v-7H36z M21.5,36.3v7h-7v-7H21.5z M14.2,36.3v7h-7v-7H14.2z M57.8,43.5v7h-7v-7H57.8z M65.1,43.5v7h-7v-7H65.1z M50.5,43.5v7
	h-7v-7H50.5z M21.5,43.5v7h-7v-7H21.5z M152.2,50.8v7h-7v-7H152.2z M144.9,50.8v7h-7v-7H144.9z M152.2,58.1v7h-7v-7H152.2z
	 M144.9,58.1v7h-7v-7H144.9z M144.9,79.8v7h-7v-7H144.9z M144.9,87.1v7h-7v-7H144.9z M144.9,94.4v7h-7v-7H144.9z M144.9,101.6v7h-7
	v-7H144.9z M137.6,50.8v7h-7v-7H137.6z M137.5,43.5v7h-7v-7H137.5z M130.4,50.8v7h-7v-7H130.4z M123.1,50.8v7h-7v-7H123.1z
	 M115.8,50.8v7h-7v-7H115.8z M108.6,50.8v7h-7v-7H108.6z M101.3,50.8v7h-7v-7H101.3z M94.1,50.8v7h-7v-7H94.1z M86.8,50.8v7h-7v-7
	H86.8z M72.3,50.8v7h-7v-7H72.3z M79.6,50.8v7h-7v-7H79.6z M137.6,58.1v7h-7v-7H137.6z M130.4,58.1v7h-7v-7H130.4z M123.1,58.1v7h-7
	v-7H123.1z M115.8,58.1v7h-7v-7H115.8z M108.6,58.1v7h-7v-7H108.6z M101.3,58.1v7h-7v-7H101.3z M94.1,58.1v7h-7v-7H94.1z M86.8,58.1
	v7h-7v-7H86.8z M72.3,58.1v7h-7v-7H72.3z M79.6,58.1v7h-7v-7H79.6z M115.8,65.3v7h-7v-7H115.8z M86.8,65.3v7h-7v-7H86.8z M79.6,65.3
	v7h-7v-7H79.6z M137.6,72.6v7h-7v-7H137.6z M137.7,65.3v7h-7v-7H137.7z M130.4,72.6v7h-7v-7H130.4z M123.1,72.6v7h-7v-7H123.1z
	 M115.8,72.6v7h-7v-7H115.8z M108.6,72.6v7h-7v-7H108.6z M101.3,72.6v7h-7v-7H101.3z M94.1,72.6v7h-7v-7H94.1z M79.6,72.6v7h-7v-7
	H79.6z M137.7,79.8v7h-7v-7H137.7z M115.8,79.8v7h-7v-7H115.8z M123.1,79.8v7h-7v-7H123.1z M108.6,79.8v7h-7v-7H108.6z M94.1,79.8v7
	h-7v-7H94.1z M101.4,79.8v7h-7v-7H101.4z M86.8,79.8v7h-7v-7H86.8z M72.3,79.8v7h-7v-7H72.3z M123.1,87.1v7h-7v-7H123.1z
	 M115.8,87.1v7h-7v-7H115.8z M101.3,87.1v7h-7v-7H101.3z M108.6,87.1v7h-7v-7H108.6z M86.8,87.1v7h-7v-7H86.8z M94.1,87.1v7h-7v-7
	H94.1z M79.6,87.1v7h-7v-7H79.6z M137.7,94.4v7h-7v-7H137.7z M123.1,94.4v7h-7v-7H123.1z M130.4,94.4v7h-7v-7H130.4z M115.8,94.4v7
	h-7v-7H115.8z M101.3,94.4v7h-7v-7H101.3z M108.6,94.4v7h-7v-7H108.6z M94.1,94.4v7h-7v-7H94.1z M79.6,94.4v7h-7v-7H79.6z
	 M86.9,94.4v7h-7v-7H86.9z M72.3,94.4v7h-7v-7H72.3z M50.5,50.8v7h-7v-7H50.5z M57.8,50.8v7h-7v-7H57.8z M21.5,50.8v7h-7v-7H21.5z
	 M50.5,58.1v7h-7v-7H50.5z M57.8,58.1v7h-7v-7H57.8z M21.5,58.1v7h-7v-7H21.5z M57.8,65.3v7h-7v-7H57.8z M65.1,65.3v7h-7v-7H65.1z
	 M43.3,43.5v7h-7v-7H43.3z M43.3,65.3v7h-7v-7H43.3z M21.5,65.3v7h-7v-7H21.5z M14.2,43.5v7h-7v-7H14.2z M14.2,50.8v7h-7v-7H14.2z
	 M14.2,58.2v7h-7v-7H14.2z M14.2,65.3v7h-7v-7H14.2z M14.2,43.5v7h-7v-7H14.2z M14.2,50.8v7h-7v-7H14.2z M14.2,58.2v7h-7v-7H14.2z
	 M14.2,65.3v7h-7v-7H14.2z M57.8,72.6v7h-7v-7H57.8z M21.5,72.6v7h-7v-7H21.5z M14.2,72.6v7h-7v-7H14.2z M65,79.8v7h-7v-7H65z
	 M50.5,79.8v7h-7v-7H50.5z M57.8,79.8v7h-7v-7H57.8z M28.7,87.1v7h-7v-7H28.7z M43.2,94.4v7h-7v-7H43.2z M50.5,94.4v7h-7v-7H50.5z
	 M57.7,94.4v7h-7v-7H57.7z M65,94.4v7h-7v-7H65z M36,94.4v7h-7v-7H36z M28.7,94.4v7h-7v-7H28.7z M21.5,94.4v7h-7v-7H21.5z
	 M21.5,108.9v7h-7v-7H21.5z M7,101.6v7H0v-7H7z M7,7.2v7H0v-7H7z M7,14.5v7H0v-7H7z M14.3,14.5v7h-7v-7H14.3z M7,21.8v7H0v-7
	C0,21.8,7,21.8,7,21.8z M14.3,21.8v7h-7v-7C7.3,21.8,14.3,21.8,14.3,21.8z M21.6,21.8v7h-7v-7C14.6,21.8,21.6,21.8,21.6,21.8z M7,29
	v7H0v-7H7z M14.3,29v7h-7v-7H14.3z M21.6,29v7h-7v-7H21.6z M7,79.8v7H0v-7H7z M14.3,79.8v7h-7v-7H14.3z M21.6,79.8v7h-7v-7H21.6z
	 M7,87.1v7H0v-7H7z M14.3,87.1v7h-7v-7H14.3z M21.6,87.1v7h-7v-7H21.6z M7,94.4v7H0v-7H7z M14.3,94.4v7h-7v-7H14.3z M14.3,108.9v7
	h-7v-7H14.3z M50.4,108.9v7h-7v-7H50.4z M36,101.6v7h-7v-7H36z M50.4,108.9v7h-7v-7H50.4z M28.7,101.6v7h-7v-7H28.7z M43.2,108.9v7
	h-7v-7H43.2z M79.4,108.9v7h-7v-7H79.4z M65,101.6v7h-7v-7H65z M79.4,108.9v7h-7v-7H79.4z M57.7,101.6v7h-7v-7H57.7z M72.2,108.9v7
	h-7v-7H72.2z M108.5,108.9v7h-7v-7H108.5z M94.1,101.6v7h-7v-7H94.1z M108.5,108.9v7h-7v-7H108.5z M86.8,101.6v7h-7v-7H86.8z
	 M101.3,108.9v7h-7v-7H101.3z M137.5,108.9v7h-7v-7H137.5z M123.1,101.6v7h-7v-7H123.1z M137.5,108.9v7h-7v-7H137.5z M115.8,101.6v7
	h-7v-7H115.8z M130.3,108.9v7h-7v-7H130.3z"/>
</svg>
