<?xml version="1.0" encoding="utf-8"?>
<!-- Generator: Adobe Illustrator 27.3.1, SVG Export Plug-In . SVG Version: 6.00 Build 0)  -->
<svg version="1.1" xmlns="http://www.w3.org/2000/svg" xmlns:xlink="http://www.w3.org/1999/xlink" x="0px" y="0px"
	 viewBox="0 0 77.4 106.4" style="enable-background:new 0 0 77.4 106.4;" xml:space="preserve">
<style type="text/css">
	.st0{fill:#FCE8B3;}
	.st1{fill:#1E0E01;}
</style>
<g id="Слой_2">
	<path class="st0" d="M74.9,65.3h-4.8v-4.7c0-1.4-1.1-2.5-2.5-2.5h-4.8v-4.8c0-1.4-1.1-2.5-2.5-2.5h-4.7v-4.7c0-1.4-1.1-2.5-2.5-2.5
		h-4.8v-4.8c0-1.4-1.1-2.5-2.5-2.5h-4.7v-4.7c0-1.4-1.1-2.5-2.5-2.5h-4.8v-4.8c0-1.4-1.1-2.5-2.5-2.5h-4.8V17c0-1.4-1.1-2.5-2.5-2.5
		h-4.7V9.8c0-1.4-1.1-2.5-2.5-2.5H12V2.5C12,1.1,10.9,0,9.5,0C9.5,0,0,0,0,0v9.5c0,0.1,0,0.1,0,0.1c0,0,0,0.1,0,0.1v7
		c0,0,0,0.1,0,0.1c0,0,0,0.1,0,0.1v7c0,0.1,0,0.1,0,0.1c0,0,0,0.1,0,0.1v7c0,0.1,0,0.1,0,0.1c0,0,0,0.1,0,0.1v7c0,0,0,0.1,0,0.1
		c0,0,0,0.1,0,0.1v7c0,0.1,0,0.1,0,0.1c0,0,0,0.1,0,0.2v7c0,0,0,0.1,0,0.1c0,0,0,0.1,0,0.1v7c0,0.1,0,0.1,0,0.1c0,0,0,0.1,0,0.2v7
		c0,0,0,0.1,0,0.1c0,0,0,0.1,0,0.1v7c0,0,0,0.1,0,0.1c0,0,0,0.1,0,0.1v7c0,0,0,0.1,0,0.1c0,0,0,0.1,0,0.1v7c0,0,0,0.1,0,0.1
		c0,0,0,0.1,0,0.1v7c0,0,0,0.1,0,0.1c0,0,0,0.1,0,0.1v7v2.5h2.5l7,0c0.1,0,0.1,0,0.2,0c0,0,0.1,0,0.2,0h7c1.4,0,2.5-1.1,2.5-2.5
		v-4.8H24c1.4,0,2.5-1.1,2.5-2.5v-4.8h4.8c1.4,0,2.5-1.1,2.5-2.5v-4.8h4.8c1.4,0,2.5-1.1,2.5-2.5v-4.8h4.7c0.1,0,0.1,0,0.2,0
		c0,0,0.1,0,0.1,0h7c0.1,0,0.1,0,0.2,0h7c0.1,0,0.1,0,0.2,0c0,0,0.1,0,0.1,0h7c0.1,0,0.1,0,0.2,0c0,0,0.1,0,0.1,0h7
		c1.4,0,2.5-1.1,2.5-2.5v-7C77.4,66.4,76.3,65.3,74.9,65.3z"/>
</g>
<g id="Слой_1">
	<path class="st1" d="M2.5,2.6h7v7h-7V2.6z M2.5,9.9h7v7h-7V9.9z M2.5,17.1h7v7h-7V17.1z M2.5,24.4h7v7h-7V24.4z M2.5,31.7h7v7h-7
		V31.7z M2.5,38.9h7v7h-7V38.9z M2.5,46.2h7v7h-7V46.2z M2.5,53.4h7v7h-7V53.4z M2.5,60.7h7v7h-7V60.7z M9.8,9.9h7v7h-7V9.9z
		 M9.8,17.1h7v7h-7V17.1z M53.3,60.7h7v7h-7V60.7z M17,17.1h7v7h-7V17.1z M17,24.4h7v7h-7V24.4z M46.1,53.4h7v7h-7V53.4z M24.3,24.4
		h7v7h-7V24.4z M24.3,31.7h7v7h-7V31.7z M31.6,31.7h7v7h-7V31.7z M31.6,38.9h7v7h-7V38.9z M38.8,38.9h7v7h-7V38.9z M38.8,46.2h7v7
		h-7V46.2z M46.1,46.2h7v7h-7V46.2z M53.3,53.4h7v7h-7V53.4z M60.6,60.7h7v7h-7V60.7z M2.5,67.9h7v7h-7V67.9z M31.6,67.9h7v7h-7
		V67.9z M38.8,67.9h7v7h-7V67.9z M46.1,67.9h7v7h-7V67.9z M53.3,67.9h7v7h-7V67.9z M60.6,67.9h7v7h-7V67.9z M67.9,67.9h7v7h-7V67.9z
		 M2.5,75.1h7v7h-7V75.1z M24.3,75.1h7v7h-7V75.1z M2.5,82.4h7v7h-7V82.4z M17,82.4h7v7h-7V82.4z M2.5,89.7h7v7h-7V89.7z M9.8,89.7
		h7v7h-7V89.7z M24.3,82.4h7v7h-7V82.4z M17,89.7h7v7h-7V89.7z M9.8,96.9h7v7h-7V96.9z M2.5,96.9h7v7h-7V96.9z M31.6,75.1h7v7h-7
		V75.1z"/>
</g>
</svg>
