<?xml version="1.0" encoding="utf-8"?>
<!-- Generator: Adobe Illustrator 27.3.1, SVG Export Plug-In . SVG Version: 6.00 Build 0)  -->
<svg version="1.1" id="Слой_1" xmlns="http://www.w3.org/2000/svg" xmlns:xlink="http://www.w3.org/1999/xlink" x="0px" y="0px"
	 viewBox="0 0 65.1 65.1" style="enable-background:new 0 0 65.1 65.1;" xml:space="preserve">
<style type="text/css">
	.st0{fill:#1E0E01;}
</style>
<path class="st0" d="M0,21.9h7v7H0V21.9z M0,29.1h7v7H0V29.1z M0,36.4h7v7H0V36.4z M7.3,7.3h7v7h-7V7.3z M7.3,14.6h7v7h-7V14.6z
	 M7.3,21.9h7v7h-7V21.9z M7.3,29.1h7v7h-7V29.1z M7.3,43.6h7v7h-7V43.6z M7.3,50.9h7v7h-7V50.9z M14.5,7.3h7v7h-7V7.3z M14.5,29.1h7
	v7h-7V29.1z M14.5,36.4h7v7h-7V36.4z M14.5,50.9h7v7h-7V50.9z M21.8,0.1h7v7h-7V0.1z M21.8,7.3h7v7h-7V7.3z M29.1,0.1h7v7h-7V0.1z
	 M29.1,7.3h7v7h-7V7.3z M29.1,14.6h7v7h-7V14.6z M29.1,21.9h7v7h-7V21.9z M29.1,36.4h7v7h-7V36.4z M36.3,0.1h7v7h-7V0.1z M36.3,14.6
	h7v7h-7V14.6z M36.3,21.9h7v7h-7V21.9z M36.3,29.1h7v7h-7V29.1z M36.3,36.4h7v7h-7V36.4z M43.6,7.3h7v7h-7V7.3z M43.6,21.9h7v7h-7
	V21.9z M43.6,29.1h7v7h-7V29.1z M43.6,50.9h7v7h-7V50.9z M50.8,7.3h7v7h-7V7.3z M50.8,14.6h7v7h-7V14.6z M50.8,43.6h7v7h-7V43.6z
	 M50.8,50.9h7v7h-7V50.9z M58.1,21.9h7v7h-7V21.9z M58.1,29.1h7v7h-7V29.1z M58.1,36.4h7v7h-7V36.4z M21.8,58.1h7v7h-7V58.1z
	 M29.1,58.1h7v7h-7V58.1z M36.3,58.1h7v7h-7V58.1z"/>
</svg>
