<?xml version="1.0" encoding="utf-8"?>
<!-- Generator: Adobe Illustrator 27.3.1, SVG Export Plug-In . SVG Version: 6.00 Build 0)  -->
<svg version="1.1" id="Слой_1" xmlns="http://www.w3.org/2000/svg" xmlns:xlink="http://www.w3.org/1999/xlink" x="0px" y="0px"
	 viewBox="0 0 217.5 210.4" style="enable-background:new 0 0 217.5 210.4;" xml:space="preserve">
<style type="text/css">
	.st0{fill:#1E0E01;}
</style>
<path class="st0" d="M137.9,14.6h7v7h-7V14.6z M116.2,14.6h7v7h-7V14.6z M108.9,14.6h7v7h-7V14.6z M123.5,14.6h7v7h-7V14.6z
	 M130.8,14.6h7v7h-7V14.6z M152.5,21.8h7v7h-7V21.8z M145.2,21.8h7v7h-7V21.8z M137.9,21.8h7v7h-7V21.8z M116.2,21.8h7v7h-7V21.8z
	 M108.9,21.8h7v7h-7V21.8z M123.5,21.8h7v7h-7V21.8z M130.8,21.8h7v7h-7V21.8z M159.7,29.1h7v7h-7V29.1z M152.5,29.1h7v7h-7V29.1z
	 M145.2,29.1h7v7h-7V29.1z M137.9,29.1h7v7h-7V29.1z M116.2,29.1h7v7h-7V29.1z M72.6,29.1h7v7h-7V29.1z M65.4,29.1h7v7h-7V29.1z
	 M58.1,29.1h7v7h-7V29.1z M50.8,29.1h7v7h-7V29.1z M123.5,29.1h7v7h-7V29.1z M130.8,29.1h7v7h-7V29.1z M159.7,36.3h7v7h-7V36.3z
	 M152.5,36.3h7v7h-7V36.3z M145.2,36.3h7v7h-7V36.3z M137.9,36.3h7v7h-7V36.3z M116.2,36.3h7v7h-7V36.3z M87.1,36.3h7v7h-7V36.3z
	 M79.9,36.3h7v7h-7V36.3z M72.6,36.3h7v7h-7V36.3z M65.4,36.3h7v7h-7V36.3z M58.1,36.3h7v7h-7V36.3z M50.8,36.3h7v7h-7V36.3z
	 M43.6,36.3h7v7h-7V36.3z M123.5,36.3h7v7h-7V36.3z M130.8,36.3h7v7h-7V36.3z M159.7,43.6h7v7h-7V43.6z M152.5,43.6h7v7h-7V43.6z
	 M145.2,43.6h7v7h-7V43.6z M137.9,43.6h7v7h-7V43.6z M94.4,43.6h7v7h-7V43.6z M87.1,43.6h7v7h-7V43.6z M79.9,43.6h7v7h-7V43.6z
	 M72.6,43.6h7v7h-7V43.6z M65.4,43.6h7v7h-7V43.6z M58.1,43.6h7v7h-7V43.6z M50.8,43.6h7v7h-7V43.6z M43.6,43.6h7v7h-7V43.6z
	 M123.5,43.6h7v7h-7V43.6z M130.8,43.6h7v7h-7V43.6z M159.7,50.9h7v7h-7V50.9z M152.5,50.9h7v7h-7V50.9z M145.2,50.9h7v7h-7V50.9z
	 M137.9,50.9h7v7h-7V50.9z M94.4,50.9h7v7h-7V50.9z M87.1,50.9h7v7h-7V50.9z M79.9,50.9h7v7h-7V50.9z M72.6,50.9h7v7h-7V50.9z
	 M65.4,50.9h7v7h-7V50.9z M58.1,50.9h7v7h-7V50.9z M50.8,50.9h7v7h-7V50.9z M43.6,50.9h7v7h-7V50.9z M36.3,50.9h7v7h-7V50.9z
	 M123.5,50.9h7v7h-7V50.9z M130.8,50.9h7v7h-7V50.9z M159.7,58.1h7v7h-7V58.1z M152.5,58.1h7v7h-7V58.1z M145.2,58.1h7v7h-7V58.1z
	 M137.9,58.1h7v7h-7V58.1z M101.7,58.1h7v7h-7V58.1z M94.4,58.1h7v7h-7V58.1z M87.1,58.1h7v7h-7V58.1z M79.9,58.1h7v7h-7V58.1z
	 M72.6,58.1h7v7h-7V58.1z M65.4,58.1h7v7h-7V58.1z M58.1,58.1h7v7h-7V58.1z M50.8,58.1h7v7h-7V58.1z M43.6,58.1h7v7h-7V58.1z
	 M36.3,58.1h7v7h-7V58.1z M29,58.1h7v7h-7V58.1z M123.5,58.1h7v7h-7V58.1z M130.8,58.1h7v7h-7V58.1z M159.7,65.4h7v7h-7V65.4z
	 M152.5,65.4h7v7h-7V65.4z M145.2,65.4h7v7h-7V65.4z M137.9,65.4h7v7h-7V65.4z M101.7,65.4h7v7h-7V65.4z M94.4,65.4h7v7h-7V65.4z
	 M87.1,65.4h7v7h-7V65.4z M79.9,65.4h7v7h-7V65.4z M72.6,65.4h7v7h-7V65.4z M65.4,65.4h7v7h-7V65.4z M58.1,65.4h7v7h-7V65.4z
	 M50.8,65.4h7v7h-7V65.4z M43.6,65.4h7v7h-7V65.4z M36.3,65.4h7v7h-7V65.4z M29,65.4h7v7h-7V65.4z M21.8,65.4h7v7h-7V65.4z
	 M123.5,65.4h7v7h-7V65.4z M130.8,65.4h7v7h-7V65.4z M196,72.6h7v7h-7V72.6z M188.8,72.6h7v7h-7V72.6z M152.5,72.6h7v7h-7V72.6z
	 M145.2,72.6h7v7h-7V72.6z M137.9,72.6h7v7h-7V72.6z M116.2,72.6h7v7h-7V72.6z M101.7,72.6h7v7h-7V72.6z M94.4,72.6h7v7h-7V72.6z
	 M87.1,72.6h7v7h-7V72.6z M79.9,72.6h7v7h-7V72.6z M72.6,72.6h7v7h-7V72.6z M65.4,72.6h7v7h-7V72.6z M58.1,72.6h7v7h-7V72.6z
	 M50.8,72.6h7v7h-7V72.6z M43.6,72.6h7v7h-7V72.6z M36.3,72.6h7v7h-7V72.6z M29,72.6h7v7h-7V72.6z M21.8,72.6h7v7h-7V72.6z
	 M123.5,72.6h7v7h-7V72.6z M130.8,72.6h7v7h-7V72.6z M196,79.9h7v7h-7V79.9z M188.8,79.9h7v7h-7V79.9z M181.5,79.9h7v7h-7V79.9z
	 M145.2,79.9h7v7h-7V79.9z M137.9,79.9h7v7h-7V79.9z M94.4,79.9h7v7h-7V79.9z M87.1,79.9h7v7h-7V79.9z M79.9,79.9h7v7h-7V79.9z
	 M123.5,79.9h7v7h-7V79.9z M130.8,79.9h7v7h-7V79.9z M196,87.2h7v7h-7V87.2z M188.8,87.2h7v7h-7V87.2z M181.5,87.2h7v7h-7V87.2z
	 M174.2,87.2h7v7h-7V87.2z M137.9,87.2h7v7h-7V87.2z M87.1,87.2h7v7h-7V87.2z M130.8,87.2h7v7h-7V87.2z M196,94.4h7v7h-7V94.4z
	 M188.8,94.4h7v7h-7V94.4z M181.5,94.4h7v7h-7V94.4z M174.2,94.4h7v7h-7V94.4z M167,94.4h7v7h-7V94.4z M159.7,94.4h7v7h-7V94.4z
	 M79.9,94.4h7v7h-7V94.4z M72.6,94.4h7v7h-7V94.4z M65.4,94.4h7v7h-7V94.4z M196,101.7h7v7h-7V101.7z M188.8,101.7h7v7h-7V101.7z
	 M181.5,101.7h7v7h-7V101.7z M174.2,101.7h7v7h-7V101.7z M167,101.7h7v7h-7V101.7z M159.7,101.7h7v7h-7V101.7z M152.5,101.7h7v7h-7
	V101.7z M145.2,101.7h7v7h-7V101.7z M137.9,101.7h7v7h-7V101.7z M79.9,101.7h7v7h-7V101.7z M72.6,101.7h7v7h-7V101.7z M65.4,101.7h7
	v7h-7V101.7z M58.1,101.7h7v7h-7V101.7z M50.8,101.7h7v7h-7V101.7z M43.6,101.7h7v7h-7V101.7z M196,108.9h7v7h-7V108.9z
	 M188.8,108.9h7v7h-7V108.9z M181.5,108.9h7v7h-7V108.9z M174.2,108.9h7v7h-7V108.9z M167,108.9h7v7h-7V108.9z M159.7,108.9h7v7h-7
	V108.9z M152.5,108.9h7v7h-7V108.9z M145.2,108.9h7v7h-7V108.9z M137.9,108.9h7v7h-7V108.9z M79.9,108.9h7v7h-7V108.9z M72.6,108.9
	h7v7h-7V108.9z M65.4,108.9h7v7h-7V108.9z M58.1,108.9h7v7h-7V108.9z M50.8,108.9h7v7h-7V108.9z M43.6,108.9h7v7h-7V108.9z
	 M36.3,108.9h7v7h-7V108.9z M196,116.2h7v7h-7V116.2z M188.8,116.2h7v7h-7V116.2z M181.5,116.2h7v7h-7V116.2z M174.2,116.2h7v7h-7
	V116.2z M167,116.2h7v7h-7V116.2z M159.7,116.2h7v7h-7V116.2z M152.5,116.2h7v7h-7V116.2z M145.2,116.2h7v7h-7V116.2z M137.9,116.2
	h7v7h-7V116.2z M87.1,116.2h7v7h-7V116.2z M79.9,116.2h7v7h-7V116.2z M72.6,116.2h7v7h-7V116.2z M65.4,116.2h7v7h-7V116.2z
	 M58.1,116.2h7v7h-7V116.2z M50.8,116.2h7v7h-7V116.2z M43.6,116.2h7v7h-7V116.2z M36.3,116.2h7v7h-7V116.2z M29,116.2h7v7h-7V116.2
	z M130.8,116.2h7v7h-7V116.2z M196,123.5h7v7h-7V123.5z M188.8,123.5h7v7h-7V123.5z M181.5,123.5h7v7h-7V123.5z M174.2,123.5h7v7h-7
	V123.5z M167,123.5h7v7h-7V123.5z M159.7,123.5h7v7h-7V123.5z M152.5,123.5h7v7h-7V123.5z M145.2,123.5h7v7h-7V123.5z M137.9,123.5
	h7v7h-7V123.5z M94.4,123.5h7v7h-7V123.5z M79.9,123.5h7v7h-7V123.5z M72.6,123.5h7v7h-7V123.5z M65.4,123.5h7v7h-7V123.5z
	 M58.1,123.5h7v7h-7V123.5z M50.8,123.5h7v7h-7V123.5z M43.6,123.5h7v7h-7V123.5z M36.3,123.5h7v7h-7V123.5z M29,123.5h7v7h-7V123.5
	z M21.8,123.5h7v7h-7V123.5z M123.5,123.5h7v7h-7V123.5z M130.8,123.5h7v7h-7V123.5z M188.8,130.7h7v7h-7V130.7z M181.5,130.7h7v7
	h-7V130.7z M174.2,130.7h7v7h-7V130.7z M167,130.7h7v7h-7V130.7z M159.7,130.7h7v7h-7V130.7z M152.5,130.7h7v7h-7V130.7z
	 M145.2,130.7h7v7h-7V130.7z M137.9,130.7h7v7h-7V130.7z M116.2,130.7h7v7h-7V130.7z M108.9,130.7h7v7h-7V130.7z M101.7,130.7h7v7
	h-7V130.7z M94.4,130.7h7v7h-7V130.7z M72.6,130.7h7v7h-7V130.7z M65.4,130.7h7v7h-7V130.7z M58.1,130.7h7v7h-7V130.7z M50.8,130.7
	h7v7h-7V130.7z M43.6,130.7h7v7h-7V130.7z M36.3,130.7h7v7h-7V130.7z M29,130.7h7v7h-7V130.7z M21.8,130.7h7v7h-7V130.7z M159.7,138
	h7v7h-7V138z M152.5,138h7v7h-7V138z M116.2,138h7v7h-7V138z M108.9,138h7v7h-7V138z M101.7,138h7v7h-7V138z M94.4,138h7v7h-7V138z
	 M87.1,138h7v7h-7V138z M65.4,138h7v7h-7V138z M58.1,138h7v7h-7V138z M50.8,138h7v7h-7V138z M43.6,138h7v7h-7V138z M36.3,138h7v7h-7
	V138z M29,138h7v7h-7V138z M21.8,138h7v7h-7V138z M123.5,138h7v7h-7V138z M116.2,145.2h7v7h-7V145.2z M108.9,145.2h7v7h-7V145.2z
	 M101.7,145.2h7v7h-7V145.2z M94.4,145.2h7v7h-7V145.2z M87.1,145.2h7v7h-7V145.2z M65.4,145.2h7v7h-7V145.2z M58.1,145.2h7v7h-7
	V145.2z M50.8,145.2h7v7h-7V145.2z M43.6,145.2h7v7h-7V145.2z M36.3,145.2h7v7h-7V145.2z M29,145.2h7v7h-7V145.2z M123.5,145.2h7v7
	h-7V145.2z M130.8,145.2h7v7h-7V145.2z M137.9,152.5h7v7h-7V152.5z M116.2,152.5h7v7h-7V152.5z M108.9,152.5h7v7h-7V152.5z
	 M101.7,152.5h7v7h-7V152.5z M94.4,152.5h7v7h-7V152.5z M87.1,152.5h7v7h-7V152.5z M58.1,152.5h7v7h-7V152.5z M50.8,152.5h7v7h-7
	V152.5z M43.6,152.5h7v7h-7V152.5z M36.3,152.5h7v7h-7V152.5z M29,152.5h7v7h-7V152.5z M123.5,152.5h7v7h-7V152.5z M130.8,152.5h7v7
	h-7V152.5z M145.2,159.8h7v7h-7V159.8z M137.9,159.8h7v7h-7V159.8z M116.2,159.8h7v7h-7V159.8z M108.9,159.8h7v7h-7V159.8z
	 M101.7,159.8h7v7h-7V159.8z M94.4,159.8h7v7h-7V159.8z M87.1,159.8h7v7h-7V159.8z M58.1,159.8h7v7h-7V159.8z M50.8,159.8h7v7h-7
	V159.8z M43.6,159.8h7v7h-7V159.8z M36.3,159.8h7v7h-7V159.8z M123.5,159.8h7v7h-7V159.8z M130.8,159.8h7v7h-7V159.8z M152.5,167h7
	v7h-7V167z M145.2,167h7v7h-7V167z M137.9,167h7v7h-7V167z M116.2,167h7v7h-7V167z M108.9,167h7v7h-7V167z M101.7,167h7v7h-7V167z
	 M94.4,167h7v7h-7V167z M58.1,167h7v7h-7V167z M50.8,167h7v7h-7V167z M43.6,167h7v7h-7V167z M123.5,167h7v7h-7V167z M130.8,167h7v7
	h-7V167z M167,174.3h7v7h-7V174.3z M159.7,174.3h7v7h-7V174.3z M152.5,174.3h7v7h-7V174.3z M145.2,174.3h7v7h-7V174.3z M137.9,174.3
	h7v7h-7V174.3z M116.2,174.3h7v7h-7V174.3z M108.9,174.3h7v7h-7V174.3z M101.7,174.3h7v7h-7V174.3z M94.4,174.3h7v7h-7V174.3z
	 M58.1,174.3h7v7h-7V174.3z M50.8,174.3h7v7h-7V174.3z M123.5,174.3h7v7h-7V174.3z M130.8,174.3h7v7h-7V174.3z M152.5,181.5h7v7h-7
	V181.5z M145.2,181.5h7v7h-7V181.5z M137.9,181.5h7v7h-7V181.5z M116.2,181.5h7v7h-7V181.5z M108.9,181.5h7v7h-7V181.5z
	 M101.7,181.5h7v7h-7V181.5z M58.1,181.5h7v7h-7V181.5z M123.5,181.5h7v7h-7V181.5z M130.8,181.5h7v7h-7V181.5z M137.9,188.8h7v7h-7
	V188.8z M116.2,188.8h7v7h-7V188.8z M108.9,188.8h7v7h-7V188.8z M123.5,188.8h7v7h-7V188.8z M130.8,188.8h7v7h-7V188.8z M0,65.4h7v7
	H0V65.4z M0,72.7h7v7H0V72.7z M0,94.4h7v7H0V94.4z M0,101.7h7v7H0V101.7z M0,108.9h7v7H0V108.9z M0,116.2h7v7H0V116.2z M0,123.5h7v7
	H0V123.5z M0,130.7h7v7H0V130.7z M0,138h7v7H0V138z M0,145.2h7v7H0V145.2z M0,87.1h7v7H0V87.1z M0,79.9h7v7H0V79.9z M7.3,50.9h7v7
	h-7V50.9z M7.3,58.1h7v7h-7V58.1z M7.3,65.4h7v7h-7V65.4z M7.3,145.2h7v7h-7V145.2z M7.3,152.5h7v7h-7V152.5z M14.5,36.4h7v7h-7
	V36.4z M14.5,43.6h7v7h-7V43.6z M14.5,50.9h7v7h-7V50.9z M14.5,152.5h7v7h-7V152.5z M14.5,159.8h7v7h-7V159.8z M21.8,29.1h7v7h-7
	V29.1z M21.8,36.4h7v7h-7V36.4z M21.8,159.8h7v7h-7V159.8z M21.8,167h7v7h-7V167z M21.8,174.3h7v7h-7V174.3z M29,21.8h7v7h-7V21.8z
	 M29,29.1h7v7h-7V29.1z M29,174.3h7v7h-7V174.3z M29,181.6h7v7h-7V181.6z M36.3,14.6h7v7h-7V14.6z M36.3,21.8h7v7h-7V21.8z
	 M36.3,181.6h7v7h-7V181.6z M36.3,188.9h7v7h-7V188.9z M43.6,7.3h7v7h-7V7.3z M43.6,14.6h7v7h-7V14.6z M43.6,188.9h7v7h-7V188.9z
	 M50.8,7.3h7v7h-7V7.3z M50.8,14.6h7v7h-7V14.6z M50.8,188.9h7v7h-7V188.9z M50.8,196.1h7v7h-7V196.1z M58.1,7.3h7v7h-7V7.3z
	 M58.1,196.1h7v7h-7V196.1z M58.1,203.4h7v7h-7V203.4z M65.3,0h7v7h-7V0z M65.3,7.3h7v7h-7V7.3z M65.3,203.4h7v7h-7V203.4z M72.6,0
	h7v7h-7V0z M72.6,203.4h7v7h-7V203.4z M79.9,0h7v7h-7V0z M79.9,203.4h7v7h-7V203.4z M87.1,0h7v7h-7V0z M87.1,203.4h7v7h-7V203.4z
	 M94.4,0h7v7h-7V0z M94.4,94.4h7v7h-7V94.4z M94.4,101.7h7v7h-7V101.7z M94.4,108.9h7v7h-7V108.9z M94.4,203.4h7v7h-7V203.4z
	 M101.6,0h7v7h-7V0z M108.9,94.5h7v7h-7V94.5z M101.6,94.5h7v7h-7V94.5z M101.6,116.2h7v7h-7V116.2z M101.6,203.4h7v7h-7V203.4z
	 M108.9,0h7v7h-7V0z M116.2,94.5h7v7h-7V94.5z M108.9,101.7h7v7h-7V101.7z M101.6,108.9h7v7h-7V108.9z M108.9,116.2h7v7h-7V116.2z
	 M108.9,203.4h7v7h-7V203.4z M116.2,0h7v7h-7V0z M116.2,108.9h7v7h-7V108.9z M108.9,108.9h7v7h-7V108.9z M116.2,116.2h7v7h-7V116.2z
	 M116.2,203.4h7v7h-7V203.4z M123.4,0h7v7h-7V0z M123.4,94.4h7v7h-7V94.4z M123.4,101.7h7v7h-7V101.7z M123.4,108.9h7v7h-7V108.9z
	 M123.4,203.4h7v7h-7V203.4z M130.7,0h7v7h-7V0z M130.7,203.4h7v7h-7V203.4z M137.9,0h7v7h-7V0z M137.9,203.4h7v7h-7V203.4z
	 M145.2,0h7v7h-7V0z M145.2,203.4h7v7h-7V203.4z M152.5,7.3h7v7h-7V7.3z M145.2,7.3h7v7h-7V7.3z M152.5,196.1h7v7h-7V196.1z
	 M152.5,203.4h7v7h-7V203.4z M159.7,7.3h7v7h-7V7.3z M159.7,196.1h7v7h-7V196.1z M167,14.6h7v7h-7V14.6z M159.7,14.6h7v7h-7V14.6z
	 M167,188.9h7v7h-7V188.9z M167,196.1h7v7h-7V196.1z M174.2,14.6h7v7h-7V14.6z M174.2,21.8h7v7h-7V21.8z M174.2,188.9h7v7h-7V188.9z
	 M181.5,21.8h7v7h-7V21.8z M181.5,29.1h7v7h-7V29.1z M181.5,181.6h7v7h-7V181.6z M181.5,188.9h7v7h-7V188.9z M188.8,29.1h7v7h-7
	V29.1z M188.8,36.4h7v7h-7V36.4z M188.8,174.3h7v7h-7V174.3z M188.8,181.6h7v7h-7V181.6z M196,36.4h7v7h-7V36.4z M196,43.6h7v7h-7
	V43.6z M196,50.9h7v7h-7V50.9z M196,159.8h7v7h-7V159.8z M196,167h7v7h-7V167z M196,174.3h7v7h-7V174.3z M203.3,50.9h7v7h-7V50.9z
	 M203.3,58.1h7v7h-7V58.1z M203.3,65.4h7v7h-7V65.4z M203.3,145.2h7v7h-7V145.2z M203.3,152.5h7v7h-7V152.5z M203.3,159.8h7v7h-7
	V159.8z M210.5,65.4h7v7h-7V65.4z M210.5,72.7h7v7h-7V72.7z M210.5,94.4h7v7h-7V94.4z M210.5,101.7h7v7h-7V101.7z M210.5,108.9h7v7
	h-7V108.9z M210.5,116.2h7v7h-7V116.2z M210.5,123.5h7v7h-7V123.5z M210.5,130.7h7v7h-7V130.7z M210.5,138h7v7h-7V138z M210.5,145.2
	h7v7h-7V145.2z M210.5,87.1h7v7h-7V87.1z M210.5,79.9h7v7h-7V79.9z M101.6,87.1h7v7h-7V87.1z M116.2,87.2h7v7h-7V87.2z M108.9,87.2
	h7v7h-7V87.2z"/>
</svg>
