<?xml version="1.0" encoding="utf-8"?>
<!-- Generator: Adobe Illustrator 27.3.1, SVG Export Plug-In . SVG Version: 6.00 Build 0)  -->
<svg version="1.1" id="Слой_1" xmlns="http://www.w3.org/2000/svg" xmlns:xlink="http://www.w3.org/1999/xlink" x="0px" y="0px"
	 viewBox="0 0 130.4 130.5" style="enable-background:new 0 0 130.4 130.5;" xml:space="preserve">
<style type="text/css">
	.st0{fill:#1E0E01;}
</style>
<path class="st0" d="M57.8,130.5h-7v-7h7V130.5z M65.1,130.5h-7v-7h7V130.5z M57.8,123.2h-7v-7h7V123.2z M65.1,123.2h-7v-7h7V123.2z
	 M123.2,108.7h-7v-7h7V108.7z M115.9,108.7h-7v-7h7V108.7z M72.3,108.7h-7v-7h7V108.7z M65.1,108.7h-7v-7h7V108.7z M57.8,101.4h-7
	v-7h7V101.4z M50.6,101.4h-7v-7h7V101.4z M123.2,101.4h-7v-7h7V101.4z M115.9,101.4h-7v-7h7V101.4z M86.9,101.4h-7v-7h7V101.4z
	 M79.6,101.4h-7v-7h7V101.4z M72.3,101.4h-7v-7h7V101.4z M65.1,101.4h-7v-7h7V101.4z M50.6,94.2h-7v-7h7V94.2z M43.3,94.2h-7v-7h7
	V94.2z M14.3,94.2h-7v-7h7V94.2z M7,94.2H0v-7h7V94.2z M94.1,94.2h-7v-7h7V94.2z M86.9,94.2h-7v-7h7V94.2z M79.6,94.2h-7v-7h7V94.2z
	 M72.3,94.2h-7v-7h7V94.2z M65.1,94.2h-7v-7h7V94.2z M57.8,86.9h-7v-7h7V86.9z M43.3,86.9h-7v-7h7V86.9z M36,86.9h-7v-7h7V86.9z
	 M14.3,86.9h-7v-7h7V86.9z M7,86.9H0v-7h7V86.9z M101.4,86.9h-7v-7h7V86.9z M94.1,86.9h-7v-7h7V86.9z M79.6,86.9h-7v-7h7V86.9z
	 M72.3,86.9h-7v-7h7V86.9z M65.1,86.9h-7v-7h7V86.9z M57.8,79.6h-7v-7h7V79.6z M50.6,79.6h-7v-7h7V79.6z M43.3,79.6h-7v-7h7V79.6z
	 M36,79.6h-7v-7h7V79.6z M101.4,79.6h-7v-7h7V79.6z M86.9,79.6h-7v-7h7V79.6z M79.6,79.6h-7v-7h7V79.6z M50.6,72.4h-7v-7h7V72.4z
	 M43.3,72.4h-7v-7h7V72.4z M36,72.4h-7v-7h7V72.4z M28.8,72.4h-7v-7h7V72.4z M108.6,72.4h-7v-7h7V72.4z M101.4,72.4h-7v-7h7V72.4z
	 M94.1,72.4h-7v-7h7V72.4z M86.9,72.4h-7v-7h7V72.4z M72.3,72.4h-7v-7h7V72.4z M65.1,72.4h-7v-7h7V72.4z M50.6,65.1h-7v-7h7V65.1z
	 M43.3,65.1h-7v-7h7V65.1z M36,65.1h-7v-7h7V65.1z M28.8,65.1h-7v-7h7V65.1z M108.6,65.1h-7v-7h7V65.1z M101.4,65.1h-7v-7h7V65.1z
	 M94.1,65.1h-7v-7h7V65.1z M86.9,65.1h-7v-7h7V65.1z M72.3,65.1h-7v-7h7V65.1z M65.1,65.1h-7v-7h7V65.1z M57.8,57.9h-7v-7h7V57.9z
	 M50.6,57.9h-7v-7h7V57.9z M36,57.9h-7v-7h7V57.9z M101.4,57.9h-7v-7h7V57.9z M94.1,57.9h-7v-7h7V57.9z M86.9,57.9h-7v-7h7V57.9z
	 M79.6,57.9h-7v-7h7V57.9z M57.8,50.6h-7v-7h7V50.6z M43.3,50.6h-7v-7h7V50.6z M36,50.6h-7v-7h7V50.6z M130.4,50.6h-7v-7h7V50.6z
	 M123.2,50.6h-7v-7h7V50.6z M101.4,50.6h-7v-7h7V50.6z M94.1,50.6h-7v-7h7V50.6z M79.6,50.6h-7v-7h7V50.6z M72.3,50.6h-7v-7h7V50.6z
	 M65.1,50.6h-7v-7h7V50.6z M57.8,43.3h-7v-7h7V43.3z M50.6,43.3h-7v-7h7V43.3z M43.3,43.3h-7v-7h7V43.3z M130.4,43.3h-7v-7h7V43.3z
	 M123.2,43.3h-7v-7h7V43.3z M94.1,43.3h-7v-7h7V43.3z M86.9,43.3h-7v-7h7V43.3z M72.3,43.3h-7v-7h7V43.3z M65.1,43.3h-7v-7h7V43.3z
	 M57.8,36.1h-7v-7h7V36.1z M50.6,36.1h-7v-7h7V36.1z M21.5,36.1h-7v-7h7V36.1z M14.3,36.1h-7v-7h7V36.1z M86.9,36.1h-7v-7h7V36.1z
	 M79.6,36.1h-7v-7h7V36.1z M72.3,36.1h-7v-7h7V36.1z M65.1,36.1h-7v-7h7V36.1z M21.5,28.8h-7v-7h7V28.8z M14.3,28.8h-7v-7h7V28.8z
	 M72.3,28.8h-7v-7h7V28.8z M65.1,28.8h-7v-7h7V28.8z M79.6,14.3h-7v-7h7V14.3z M72.3,14.3h-7v-7h7V14.3z M79.6,7h-7V0h7V7z M72.3,7
	h-7V0h7V7z"/>
</svg>
