<?xml version="1.0" encoding="utf-8"?>
<!-- Generator: Adobe Illustrator 27.3.1, SVG Export Plug-In . SVG Version: 6.00 Build 0)  -->
<svg version="1.1" id="Слой_1" xmlns="http://www.w3.org/2000/svg" xmlns:xlink="http://www.w3.org/1999/xlink" x="0px" y="0px"
	 viewBox="0 0 130.4 130.5" style="enable-background:new 0 0 130.4 130.5;" xml:space="preserve">
<style type="text/css">
	.st0{fill:#1E0E01;}
</style>
<path class="st0" d="M72.6,0h7v7h-7V0z M65.3,0h7v7h-7V0z M72.6,7.3h7v7h-7V7.3z M65.3,7.3h7v7h-7V7.3z M7.2,21.8h7v7h-7V21.8z
	 M14.5,21.8h7v7h-7V21.8z M58.1,21.8h7v7h-7V21.8z M65.3,21.8h7v7h-7V21.8z M72.6,29.1h7v7h-7V29.1z M79.8,29.1h7v7h-7V29.1z
	 M7.2,29.1h7v7h-7V29.1z M14.5,29.1h7v7h-7V29.1z M43.5,29.1h7v7h-7V29.1z M50.8,29.1h7v7h-7V29.1z M58.1,29.1h7v7h-7V29.1z
	 M65.3,29.1h7v7h-7V29.1z M72.6,36.3h7v7h-7V36.3z M79.8,36.3h7v7h-7V36.3z M87.1,36.3h7v7h-7V36.3z M116.1,36.3h7v7h-7V36.3z
	 M123.4,36.3h7v7h-7C123.4,43.3,123.4,36.3,123.4,36.3z M36.3,36.3h7v7h-7V36.3z M43.5,36.3h7v7h-7V36.3z M65.3,36.3h7v7h-7V36.3z
	 M72.6,43.6h7v7h-7V43.6z M79.8,43.6h7v7h-7V43.6z M87.1,43.6h7v7h-7V43.6z M94.4,43.6h7v7h-7V43.6z M116.1,43.6h7v7h-7V43.6z
	 M123.4,43.6h7v7h-7C123.4,50.6,123.4,43.6,123.4,43.6z M29,43.6h7v7h-7V43.6z M36.3,43.6h7v7h-7V43.6z M43.5,43.6h7v7h-7V43.6z
	 M50.8,43.6h7v7h-7V43.6z M58.1,43.6h7v7h-7V43.6z M65.3,43.6h7v7h-7V43.6z M72.6,50.9h7v7h-7V50.9z M79.8,50.9h7v7h-7V50.9z
	 M94.4,50.9h7v7h-7V50.9z M29,50.9h7v7h-7V50.9z M36.3,50.9h7v7h-7V50.9z M43.5,50.9h7v7h-7V50.9z M50.8,50.9h7v7h-7V50.9z
	 M79.8,58.1h7v7h-7V58.1z M94.4,58.1h7v7h-7V58.1z M101.6,58.1h7v7h-7V58.1z M21.8,58.1h7v7h-7V58.1z M29,58.1h7v7h-7V58.1z
	 M36.3,58.1h7v7h-7V58.1z M43.5,58.1h7v7h-7V58.1z M58.1,58.1h7v7h-7V58.1z M65.3,58.1h7v7h-7V58.1z M79.8,65.4h7v7h-7V65.4z
	 M87.1,65.4h7v7h-7V65.4z M94.4,65.4h7v7h-7V65.4z M101.6,65.4h7v7h-7V65.4z M21.8,65.4h7v7h-7V65.4z M29,65.4h7v7h-7V65.4z
	 M43.5,65.4h7v7h-7V65.4z M58.1,65.4h7v7h-7V65.4z M65.3,65.4h7v7h-7V65.4z M72.6,72.6h7v7h-7V72.6z M79.8,72.6h7v7h-7V72.6z
	 M87.1,72.6h7v7h-7V72.6z M94.4,72.6h7v7h-7V72.6z M29,72.6h7v7h-7V72.6z M43.5,72.6h7v7h-7V72.6z M50.8,72.6h7v7h-7V72.6z
	 M72.6,79.9h7v7h-7V79.9z M79.8,79.9h7v7h-7V79.9z M87.1,79.9h7v7h-7V79.9z M94.4,79.9h7v7h-7V79.9z M0,79.9h7v7H0V79.9z M7.2,79.9
	h7v7h-7V79.9z M29,79.9h7v7h-7V79.9z M36.3,79.9h7v7h-7V79.9z M43.5,79.9h7v7h-7V79.9z M50.8,79.9h7v7h-7V79.9z M58.1,79.9h7v7h-7
	V79.9z M65.3,79.9h7v7h-7V79.9z M79.8,87.2h7v7h-7V87.2z M87.1,87.2h7v7h-7V87.2z M0,87.2h7v7H0V87.2z M7.2,87.2h7v7h-7V87.2z
	 M36.3,87.2h7v7h-7V87.2z M43.5,87.2h7v7h-7V87.2z M50.8,87.2h7v7h-7V87.2z M58.1,87.2h7v7h-7V87.2z M72.6,94.4h7v7h-7V94.4z
	 M79.8,94.4h7v7h-7V94.4z M108.9,94.4h7v7h-7V94.4z M116.1,94.4h7v7h-7V94.4z M43.5,94.4h7v7h-7V94.4z M50.8,94.4h7v7h-7V94.4z
	 M58.1,94.4h7v7h-7V94.4z M65.3,94.4h7v7h-7V94.4z M108.9,101.7h7v7h-7V101.7z M116.1,101.7h7v7h-7V101.7z M58.1,101.7h7v7h-7V101.7
	z M65.3,101.7h7v7h-7V101.7z M50.8,116.2h7v7h-7V116.2z M58.1,116.2h7v7h-7V116.2z M50.8,123.5h7v7h-7V123.5z M58.1,123.5h7v7h-7
	V123.5z"/>
</svg>
