<?xml version="1.0" encoding="utf-8"?>
<!-- Generator: Adobe Illustrator 27.3.1, SVG Export Plug-In . SVG Version: 6.00 Build 0)  -->
<svg version="1.1" id="Слой_1" xmlns="http://www.w3.org/2000/svg" xmlns:xlink="http://www.w3.org/1999/xlink" x="0px" y="0px"
	 viewBox="0 0 130.4 130.5" style="enable-background:new 0 0 130.4 130.5;" xml:space="preserve">
<style type="text/css">
	.st0{fill:#1E0E01;}
</style>
<path class="st0" d="M0,57.8v-7h7v7H0z M0,65.1v-7h7v7H0z M7.3,57.8v-7h7v7H7.3z M7.3,65.1v-7h7v7H7.3z M21.8,123.2v-7h7v7H21.8z
	 M21.8,116v-7h7v7H21.8z M21.8,72.3v-7h7v7H21.8z M21.8,65.1v-7h7v7H21.8z M29,57.8v-7h7v7H29z M29,50.6v-7h7v7H29z M29,123.2v-7h7
	v7H29z M29,116v-7h7v7H29z M29,87v-7h7v7H29z M29,79.6v-7h7v7H29z M29,72.3v-7h7v7H29z M29,65.1v-7h7v7H29z M36.3,57.8v-7h7v7H36.3z
	 M36.3,50.6v-7h7v7H36.3z M36.3,43.3v-7h7v7H36.3z M36.3,14.3v-7h7v7H36.3z M36.3,7V0h7v7H36.3z M36.3,94.1v-7h7v7H36.3z M36.3,87
	v-7h7v7H36.3z M36.3,72.3v-7h7v7H36.3z M36.3,65.1v-7h7v7H36.3z M43.5,57.8v-7h7v7H43.5z M43.5,43.3v-7h7v7H43.5z M43.5,36v-7h7v7
	H43.5z M43.5,14.3v-7h7v7H43.5z M43.5,7V0h7v7H43.5z M43.5,101.5v-7h7v7H43.5z M43.5,94.1v-7h7v7H43.5z M43.5,79.6v-7h7v7H43.5z
	 M43.5,72.3v-7h7v7H43.5z M43.5,65.1v-7h7v7H43.5z M50.9,57.8v-7h7v7H50.9z M50.9,50.6v-7h7v7H50.9z M50.9,36v-7h7v7H50.9z
	 M50.9,101.5v-7h7v7H50.9z M50.9,94.1v-7h7v7H50.9z M50.9,87v-7h7v7H50.9z M50.9,79.6v-7h7v7H50.9z M58,50.6v-7h7v7H58z M58,43.3v-7
	h7v7H58z M58,36v-7h7v7H58z M58,28.8v-7h7v7H58z M58,108.6v-7h7v7H58z M58,101.5v-7h7v7H58z M58,94.1v-7h7v7H58z M58,87v-7h7v7H58z
	 M58,72.3v-7h7v7H58z M58,65.1v-7h7v7H58z M65.4,50.6v-7h7v7H65.4z M65.4,43.3v-7h7v7H65.4z M65.4,36v-7h7v7H65.4z M65.4,28.8v-7h7
	v7H65.4z M65.4,108.6v-7h7v7H65.4z M65.4,101.5v-7h7v7H65.4z M65.4,94.1v-7h7v7H65.4z M65.4,87v-7h7v7H65.4z M65.4,72.3v-7h7v7H65.4
	z M65.4,65.1v-7h7v7H65.4z M72.5,57.8v-7h7v7H72.5z M72.5,50.6v-7h7v7H72.5z M72.5,43.3v-7h7v7H72.5z M72.5,36v-7h7v7H72.5z
	 M72.5,101.5v-7h7v7H72.5z M72.5,87v-7h7v7H72.5z M72.5,79.6v-7h7v7H72.5z M79.9,57.8v-7h7v7H79.9z M79.9,43.3v-7h7v7H79.9z
	 M79.9,36v-7h7v7H79.9z M79.9,130.5v-7h7v7H79.9z M79.9,123.2v-7h7v7H79.9z M79.9,101.5v-7h7v7H79.9z M79.9,94.1v-7h7v7H79.9z
	 M79.9,79.6v-7h7v7H79.9z M79.9,72.3v-7h7v7H79.9z M79.9,65.1v-7h7v7H79.9z M87.2,50.6v-7h7v7H87.2z M87.2,43.3v-7h7v7H87.2z
	 M87.2,130.5v-7h7v7H87.2z M87.2,123.2v-7h7v7H87.2z M87.2,94.1v-7h7v7H87.2z M87.2,87v-7h7v7H87.2z M87.2,79.6v-7h7v7H87.2z
	 M87.2,72.3v-7h7v7H87.2z M87.2,65.1v-7h7v7H87.2z M94.4,57.8v-7h7v7H94.4z M94.4,50.6v-7h7v7H94.4z M94.4,21.5v-7h7v7H94.4z
	 M94.4,14.3v-7h7v7H94.4z M94.4,87v-7h7v7H94.4z M94.4,79.6v-7h7v7H94.4z M94.4,72.3v-7h7v7H94.4z M94.4,65.1v-7h7v7H94.4z
	 M101.7,21.5v-7h7v7H101.7z M101.7,14.3v-7h7v7H101.7z M101.7,72.3v-7h7v7H101.7z M101.7,65.1v-7h7v7H101.7z M116.2,79.6v-7h7v7
	H116.2z M116.2,72.3v-7h7v7H116.2z M123.5,79.6v-7h7v7H123.5z M123.5,72.3v-7h7v7H123.5z"/>
</svg>
