<?xml version="1.0" encoding="utf-8"?>
<!-- Generator: Adobe Illustrator 27.3.1, SVG Export Plug-In . SVG Version: 6.00 Build 0)  -->
<svg version="1.1" xmlns="http://www.w3.org/2000/svg" xmlns:xlink="http://www.w3.org/1999/xlink" x="0px" y="0px"
	 viewBox="0 0 391.8 336.2" style="enable-background:new 0 0 391.8 336.2;" xml:space="preserve">
<style type="text/css">
	.st0{fill:#FCE8B3;}
	.st1{display:none;}
	.st2{fill:#1E0E01;}
</style>
<g id="Слой_2">
	<g>
		<path class="st0" d="M130.7,103.9h7c0.1,0,0.1,0,0.1,0c0,0,0.1,0,0.1,0h7c1.4,0,2.5-1.1,2.5-2.5v-7c0-0.1,0-0.1,0-0.1
			c0,0,0-0.1,0-0.1v-7c0-1.4-1.1-2.5-2.5-2.5h-7c-0.1,0-0.1,0-0.1,0c0,0-0.1,0-0.1,0h-7c-1.4,0-2.5,1.1-2.5,2.5v7c0,0.1,0,0.1,0,0.1
			c0,0,0,0.1,0,0.1v7C128.2,102.8,129.3,103.9,130.7,103.9z"/>
		<path class="st0" d="M285.4,312.2c0-1.4-1.1-2.5-2.5-2.5h-4.8v-4.8c0-1.4-1.1-2.5-2.5-2.5h-4.7v-4.7c0-1.4-1.1-2.5-2.5-2.5h-4.8
			v-4.8c0,0,0-0.1,0-0.1c0,0,0-0.1,0-0.1v-7c0-1.4-1.1-2.5-2.5-2.5h-4.7v-4.8c0-0.1,0-0.1,0-0.2c0,0,0-0.1,0-0.2v-7c0,0,0-0.1,0-0.1
			c0,0,0-0.1,0-0.1v-7c0-0.1,0-0.1,0-0.2c0,0,0-0.1,0-0.2v-7c0,0,0-0.1,0-0.1c0,0,0-0.1,0-0.1v-7c0-0.1,0-0.1,0-0.2c0,0,0-0.1,0-0.2
			v-7c0-1.4-1.1-2.5-2.5-2.5h-4.8v-4.8c0,0,0-0.1,0-0.1c0,0,0-0.1,0-0.1v-7c0-1.4-1.1-2.5-2.5-2.5h-4.8v-4.8c0-1.4-1.1-2.5-2.5-2.5
			h-4.7v-4.7c0-1.4-1.1-2.5-2.5-2.5h-4.8v-4.8c0-0.1,0-0.1,0-0.1c0,0,0-0.1,0-0.2v-7c0,0,0-0.1,0-0.1c0,0,0-0.1,0-0.1v-7
			c0-1.4-1.1-2.5-2.5-2.5h-4.7v-4.8c0-1.4-1.1-2.5-2.5-2.5h-4.8v-4.7c0-1.4-1.1-2.5-2.5-2.5h-4.8V167c0-1.4-1.1-2.5-2.5-2.5h-4.7
			v-4.8c0-1.4-1.1-2.5-2.5-2.5H191v-4.7c0-0.1,0-0.1,0-0.1c0,0,0-0.1,0-0.1v-7c0,0,0-0.1,0-0.1c0,0,0-0.1,0-0.1v-7
			c0-1.4-1.1-2.5-2.5-2.5h-4.7v-4.8c0-0.1,0-0.1,0-0.2c0,0,0-0.1,0-0.1v-7c0-1.4-1.1-2.5-2.5-2.5h-4.8v-4.7c0-0.1,0-0.1,0-0.2
			c0,0,0-0.1,0-0.1v-7c0-1.4-1.1-2.5-2.5-2.5h-4.8v-4.7c0-0.1,0-0.1,0-0.2c0,0,0-0.1,0-0.1v-7c0-0.1,0-0.1,0-0.1c0,0,0-0.1,0-0.1v-7
			c0-1.4-1.1-2.5-2.5-2.5H162v-4.7c0-1.4-1.1-2.5-2.5-2.5h-4.6v-4.9c0-0.1,0-0.1,0-0.1c0,0,0-0.1,0-0.1v-7c0-1.4-1.1-2.5-2.5-2.5
			h-4.8V58c0-0.1,0-0.1,0-0.1c0,0,0-0.1,0-0.1v-7c0-1.4-1.1-2.5-2.5-2.5h-4.7v-4.8c0,0,0-0.1,0-0.1c0,0,0-0.1,0-0.1v-7
			c0-1.4-1.1-2.5-2.5-2.5h-4.8v-4.8c0,0,0-0.1,0-0.1c0,0,0-0.1,0-0.1v-7c0-1.4-1.1-2.5-2.5-2.5h-4.8v-4.8c0-1.4-1.1-2.5-2.5-2.5
			h-4.9V7.3c0-1.4-1.1-2.5-2.5-2.5h-7c-0.1,0-0.1,0-0.1,0c0,0-0.1,0-0.1,0h-7c0,0-0.1,0-0.1,0c0,0-0.1,0-0.1,0h-7
			c-0.1,0-0.1,0-0.1,0c0,0-0.1,0-0.1,0h-7c0,0-0.1,0-0.1,0c0,0-0.1,0-0.1,0h-7c-0.1,0-0.1,0-0.1,0c0,0-0.1,0-0.1,0h-7
			c0,0-0.1,0-0.1,0c0,0-0.1,0-0.1,0h-7c-0.1,0-0.1,0-0.1,0c0,0-0.1,0-0.1,0h-7c-1.4,0-2.5,1.1-2.5,2.5V12h-4.8c0,0-0.1,0-0.1,0
			c0,0-0.1,0-0.1,0h-7c-1.4,0-2.5,1.1-2.5,2.5v4.8h-4.8c-1.4,0-2.5,1.1-2.5,2.5v7c0,0.1,0,0.1,0,0.2c0,0,0,0.1,0,0.1v4.7h-4.7
			c-1.4,0-2.5,1.1-2.5,2.5v7c0,0.1,0,0.1,0,0.2c0,0,0,0.1,0,0.1v7c0,0,0,0.1,0,0.1c0,0,0,0.1,0,0.1v7c0,0.1,0,0.1,0,0.2
			c0,0,0,0.1,0,0.1v7c0,0.1,0,0.1,0,0.1c0,0,0,0.1,0,0.1v4.7h-4.8c-1.4,0-2.5,1.1-2.5,2.5v4.8h-4.8c-1.4,0-2.5,1.1-2.5,2.5v7
			c0,1.4,1.1,2.5,2.5,2.5h4.8v4.7c0,1.4,1.1,2.5,2.5,2.5h4.8v4.8c0,1.4,1.1,2.5,2.5,2.5h4.7v4.8c0,1.4,1.1,2.5,2.5,2.5h4.8v4.7
			c0,1.4,1.1,2.5,2.5,2.5h7c0,0,0.1,0,0.1,0c0,0,0.1,0,0.1,0h4.8v4.8c0,1.4,1.1,2.5,2.5,2.5h4.8v4.7c0,1.4,1.1,2.5,2.5,2.5h4.7v4.8
			c0,1.4,1.1,2.5,2.5,2.5h4.8v4.8c0,1.4,1.1,2.5,2.5,2.5h4.7v4.7c0,1.4,1.1,2.5,2.5,2.5h4.8v4.8c0,1.4,1.1,2.5,2.5,2.5h4.7v4.7
			c0,1.4,1.1,2.5,2.5,2.5h4.8v4.8c0,1.4,1.1,2.5,2.5,2.5h4.7v4.8c0,1.4,1.1,2.5,2.5,2.5h4.8v4.7c0,1.4,1.1,2.5,2.5,2.5h4.8v4.8
			c0,1.4,1.1,2.5,2.5,2.5h4.8v4.7c0,1.4,1.1,2.5,2.5,2.5h4.7v4.8c0,1.4,1.1,2.5,2.5,2.5h4.8v2.5h-4.8c-1.4,0-2.5,1.1-2.5,2.5v4.8
			H138c-1.4,0-2.5,1.1-2.5,2.5v7c0,0,0,0.1,0,0.1c0,0,0,0.1,0,0.1v7c0,1.4,1.1,2.5,2.5,2.5h4.7v4.8c0,1.4,1.1,2.5,2.5,2.5h4.8v4.8
			c0,1.4,1.1,2.5,2.5,2.5h7c0.1,0,0.1,0,0.2,0h7c1.4,0,2.5-1.1,2.5-2.5v-4.8h4.8c0.1,0,0.1,0,0.1,0c0,0,0.1,0,0.1,0h7
			c0.1,0,0.1,0,0.2,0h4.8v4.8c0,0,0,0.1,0,0.1c0,0,0,0.1,0,0.1v7c0,1.4,1.1,2.5,2.5,2.5h4.7v4.8c0,1.4,1.1,2.5,2.5,2.5h4.8v4.7
			c0,1.4,1.1,2.5,2.5,2.5h4.8v4.8c0,1.4,1.1,2.5,2.5,2.5h4.7v4.8c0,1.4,1.1,2.5,2.5,2.5h4.8v4.7c0,1.4,1.1,2.5,2.5,2.5h4.7v4.8
			c0,1.4,1.1,2.5,2.5,2.5h4.8v4.7c0,1.4,1.1,2.5,2.5,2.5h4.8v4.8c0,1.4,1.1,2.5,2.5,2.5h4.7v4.8c0,1.4,1.1,2.5,2.5,2.5h4.8v4.7
			c0,1.4,1.1,2.5,2.5,2.5h7c0.1,0,0.1,0,0.2,0h7c0.1,0,0.1,0,0.2,0c0,0,0.1,0,0.2,0h7c1.4,0,2.5-1.1,2.5-2.5v-7c0,0,0-0.1,0-0.1
			c0,0,0-0.1,0-0.1v-7c0-0.1,0-0.1,0-0.2c0,0,0-0.1,0-0.1V312.2z"/>
		<path class="st0" d="M147.5,166.7V162h4.7c1.4,0,2.5-1.1,2.5-2.5v-7c0-0.1,0-0.1,0-0.1c0,0,0-0.1,0-0.1v-4.7h4.8
			c1.4,0,2.5-1.1,2.5-2.5v-7c0-0.1,0-0.1,0-0.1c0,0,0-0.1,0-0.1v-7c0-0.1,0-0.1,0-0.2c0,0,0-0.1,0-0.1v-7c0-1.4-1.1-2.5-2.5-2.5
			h-4.8v-4.7c0-1.4-1.1-2.5-2.5-2.5h-7c0,0-0.1,0-0.1,0c0,0-0.1,0-0.1,0h-7c-0.1,0-0.1,0-0.1,0c0,0-0.1,0-0.1,0h-7
			c-1.4,0-2.5,1.1-2.5,2.5v4.7h-4.8c-0.1,0-0.1,0-0.1,0c0,0-0.1,0-0.1,0h-7c0,0-0.1,0-0.1,0c0,0-0.1,0-0.1,0h-7
			c-1.4,0-2.5,1.1-2.5,2.5v4.8h-4.8c-1.4,0-2.5,1.1-2.5,2.5v7c0,0.1,0,0.1,0,0.1c0,0,0,0.1,0,0.1v7c0,1.4,1.1,2.5,2.5,2.5h4.8v4.7
			c0,1.4,1.1,2.5,2.5,2.5h4.7v4.8c0,1.4,1.1,2.5,2.5,2.5h4.8v4.7c0,1.4,1.1,2.5,2.5,2.5h4.8v4.8c0,1.4,1.1,2.5,2.5,2.5h7
			c1.4,0,2.5-1.1,2.5-2.5v-4.8h4.8C146.4,169.2,147.5,168.1,147.5,166.7z M113.6,142.7h-2.5v-2.5h2.5V142.7z M120.9,150h-2.5v-2.5
			h2.5V150z M135.5,164.5h-2.6V162h2.6V164.5z M128.2,157.2h-2.6v-2.5h2.6V157.2z"/>
		<path class="st0" d="M164.5,186.3H162v-2.5h2.5V186.3z M157.2,179h-2.5v-2.5h2.5V179z M171.8,193.5h-2.6V191h2.6V193.5z
			 M179,200.8h-2.5v-2.5h2.5V200.8z"/>
		<path class="st0" d="M103.8,86.9v-4.8h4.8c1.4,0,2.5-1.1,2.5-2.5v-4.7h4.7c1.4,0,2.5-1.1,2.5-2.5v-7c0-0.1,0-0.1,0-0.1
			c0,0,0-0.1,0-0.1v-7c0-0.1,0-0.1,0-0.1c0,0,0-0.1,0-0.2v-7c0,0,0-0.1,0-0.1c0,0,0-0.1,0-0.1v-7c0-1.4-1.1-2.5-2.5-2.5h-4.7v-4.8
			c0-1.4-1.1-2.5-2.5-2.5h-4.8v-4.7c0-1.4-1.1-2.5-2.5-2.5h-4.7v-4.8c0-1.4-1.1-2.5-2.5-2.5h-7c0,0-0.1,0-0.1,0c0,0-0.1,0-0.1,0h-7
			c-0.1,0-0.1,0-0.1,0c0,0-0.1,0-0.1,0h-7c0,0-0.1,0-0.1,0c0,0-0.1,0-0.1,0h-7c-1.4,0-2.5,1.1-2.5,2.5v4.8h-4.8
			c-1.4,0-2.5,1.1-2.5,2.5v4.7h-4.8c-1.4,0-2.5,1.1-2.5,2.5v4.8h-4.7c-1.4,0-2.5,1.1-2.5,2.5v7c0,0,0,0.1,0,0.1c0,0,0,0.1,0,0.1v7
			c0,0.1,0,0.1,0,0.2c0,0,0,0.1,0,0.1v7c0,0.1,0,0.1,0,0.1c0,0,0,0.1,0,0.1v7c0,1.4,1.1,2.5,2.5,2.5h4.7v4.7c0,1.4,1.1,2.5,2.5,2.5
			h4.8v4.8c0,1.4,1.1,2.5,2.5,2.5h4.8v4.7c0,1.4,1.1,2.5,2.5,2.5h7c0,0,0.1,0,0.1,0c0,0,0.1,0,0.1,0h7c0.1,0,0.1,0,0.1,0
			c0,0,0.1,0,0.1,0h7c0,0,0.1,0,0.1,0c0,0,0.1,0,0.1,0h7c1.4,0,2.5-1.1,2.5-2.5v-4.7h4.7C102.7,89.4,103.8,88.3,103.8,86.9z
			 M62.9,48.3h-2.6v-2.5h2.6V48.3z M62.9,70.1h-2.6v-2.5h2.6V70.1z M55.6,58.1v4.8h-2.5v-4.8c0-0.1,0-0.1,0-0.1c0,0,0-0.1,0-0.2
			v-4.7h2.5v4.7c0,0.1,0,0.1,0,0.2C55.6,58,55.6,58,55.6,58.1z M70.1,41.1h-2.5v-2.5h2.5V41.1z M70.1,77.4h-2.5v-2.5h2.5V77.4z
			 M79.8,31.3c0,0,0.1,0,0.1,0h4.7v2.5h-4.7c-0.1,0-0.1,0-0.1,0c0,0-0.1,0-0.1,0h-4.7v-2.5h4.7C79.7,31.3,79.7,31.3,79.8,31.3z
			 M84.6,58.1v4.8h-4.7c-0.1,0-0.1,0-0.1,0c0,0-0.1,0-0.1,0h-4.7v-4.8c0-0.1,0-0.1,0-0.1c0,0,0-0.1,0-0.2v-4.7h4.7
			c0.1,0,0.1,0,0.1,0c0,0,0.1,0,0.1,0h4.7v4.7c0,0.1,0,0.1,0,0.2C84.6,58,84.6,58,84.6,58.1z M79.8,84.6c0,0-0.1,0-0.1,0h-4.7v-2.5
			h4.7c0.1,0,0.1,0,0.1,0c0,0,0.1,0,0.1,0h4.7v2.5h-4.7C79.8,84.6,79.8,84.6,79.8,84.6z M91.9,41.1h-2.5v-2.5h2.5V41.1z M91.9,77.4
			h-2.5v-2.5h2.5V77.4z M99.1,70.1h-2.5v-2.5h2.5V70.1z M99.1,48.3h-2.5v-2.5h2.5V48.3z M103.9,57.8v-4.7h2.4v4.7c0,0.1,0,0.1,0,0.2
			c0,0,0,0.1,0,0.1v4.8h-2.4v-4.8c0-0.1,0-0.1,0-0.1C103.9,57.9,103.9,57.9,103.9,57.8z"/>
	</g>
</g>
<g id="Слой_1">
	<g id="Слой_2_00000072967466881193671410000008739946178379183540_" class="st1">
		
			<image style="display:inline;overflow:visible;enable-background:new    ;" width="800" height="600" xlink:href="C:\Users\diann\Desktop\hdd.png"  transform="matrix(-0.75 0 0 -0.75 350.6 370.22)">
		</image>
	</g>
	<g id="Слой_1_00000181088329331557047540000017584112062900623001_">
		<path class="st2" d="M282.9,319.2h-7v-7h7V319.2z M275.6,333.7h-7v-7h7V333.7z M253.9,319.2h-7v-7h7V319.2z M282.9,326.5h-7v-7h7
			V326.5z M261.1,326.5h-7v-7h7V326.5z M282.9,333.7h-7v-7h7V333.7z M268.4,333.7h-7v-7h7V333.7z M275.6,311.9h-7v-7h7V311.9z
			 M246.6,311.9h-7v-7h7V311.9z M268.4,304.7h-7v-7h7V304.7z M239.3,304.7h-7v-7h7V304.7z M261.1,297.4h-7v-7h7V297.4z M232.1,297.4
			h-7v-7h7V297.4z M261.1,290.2h-7v-7h7V290.2z M224.8,290.2h-7v-7h7V290.2z M253.9,282.9h-7v-7h7V282.9z M217.6,282.9h-7v-7h7
			V282.9z M253.9,275.6h-7v-7h7V275.6z M232.1,275.6h-7v-7h7V275.6z M210.3,275.6h-7v-7h7V275.6z M253.9,268.4h-7v-7h7V268.4z
			 M239.3,268.4h-7v-7h7V268.4z M203,268.4h-7v-7h7V268.4z M253.9,261.1h-7v-7h7V261.1z M224.8,261.1h-7v-7h7V261.1z M217.6,261.1
			h-7v-7h7V261.1z M195.8,261.1h-7v-7h7V261.1z M253.9,253.9h-7v-7h7V253.9z M224.8,253.9h-7v-7h7V253.9z M217.6,253.9h-7v-7h7
			V253.9z M195.8,253.9h-7v-7h7V253.9z M166.7,253.9h-7v-7h7V253.9z M159.5,253.9h-7v-7h7V253.9z M253.9,246.6h-7v-7h7V246.6z
			 M188.5,246.6h-7v-7h7V246.6z M181.3,246.6h-7v-7h7V246.6z M174,246.6h-7v-7h7V246.6z M152.2,246.6h-7v-7h7V246.6z M246.6,239.3
			h-7v-7h7V239.3z M145,239.3h-7v-7h7V239.3z M246.6,232.1h-7v-7h7V232.1z M224.8,232.1h-7v-7h7V232.1z M145,232.1h-7v-7h7V232.1z
			 M239.3,224.8h-7v-7h7V224.8z M224.8,224.8h-7v-7h7V224.8z M217.6,224.8h-7v-7h7V224.8z M152.2,224.8h-7v-7h7V224.8z M232.1,217.6
			h-7v-7h7V217.6z M217.6,217.6h-7v-7h7V217.6z M188.5,217.6h-7v-7h7V217.6z M188.5,210.3h-7v-7h7V210.3z M188.5,203h-7v-7h7V203z
			 M195.8,217.6h-7v-7h7V217.6z M159.5,217.6h-7v-7h7V217.6z M224.8,210.3h-7v-7h7V210.3z M195.8,210.3h-7v-7h7V210.3z M181.3,210.3
			h-7v-7h7V210.3z M181.3,195.8h-7v-7h7V195.8z M181.3,188.5h-7v-7h7V188.5z M181.3,181.3h-7v-7h7V181.3z M152.2,210.3h-7v-7h7
			V210.3z M224.8,203h-7v-7h7V203z M174,203h-7v-7h7V203z M174,188.5h-7v-7h7V188.5z M174,181.3h-7v-7h7V181.3z M174,174h-7v-7h7
			V174z M145,203h-7v-7h7V203z M224.8,195.8h-7v-7h7V195.8z M188.5,195.8h-7v-7h7V195.8z M166.7,195.8h-7v-7h7V195.8z M166.7,181.3
			h-7v-7h7V181.3z M166.7,174h-7v-7h7V174z M166.7,166.7h-7v-7h7V166.7z M137.7,195.8h-7v-7h7V195.8z M217.6,188.5h-7v-7h7V188.5z
			 M159.5,188.5h-7v-7h7V188.5z M159.5,174h-7v-7h7V174z M130.4,188.5h-7v-7h7V188.5z M210.3,181.3h-7v-7h7V181.3z M152.2,181.3h-7
			v-7h7V181.3z M123.1,181.3h-7v-7h7V181.3z M203,174h-7v-7h7V174z M137.7,174h-7v-7h7V174z M115.9,174h-7v-7h7V174z M195.8,166.7
			h-7v-7h7V166.7z M174,166.7h-7v-7h7V166.7z M145,166.7h-7v-7h7V166.7z M145,159.5h-7v-7h7V159.5z M145,152.2h-7v-7h7V152.2z
			 M145,145h-7v-7h7V145z M145,137.7h-7v-7h7V137.7z M145,130.4h-7v-7h7V130.4z M108.6,166.7h-7v-7h7V166.7z M130.4,166.7h-7v-7h7
			V166.7z M188.5,159.5h-7v-7h7V159.5z M152.2,159.5h-7v-7h7V159.5z M137.7,159.5h-7v-7h7V159.5z M137.7,152.2h-7v-7h7V152.2z
			 M137.7,145h-7v-7h7V145z M137.7,137.7h-7v-7h7V137.7z M137.7,130.4h-7v-7h7V130.4z M101.4,159.5h-7v-7h7V159.5z M123.1,159.5h-7
			v-7h7V159.5z M188.5,152.2h-7v-7h7V152.2z M152.2,152.2h-7v-7h7V152.2z M152.2,145h-7v-7h7V145z M152.2,137.7h-7v-7h7V137.7z
			 M152.2,130.4h-7v-7h7V130.4z M94.1,152.2h-7v-7h7V152.2z M115.9,152.2h-7v-7h7V152.2z M130.4,152.2h-7v-7h7V152.2z M130.4,145h-7
			v-7h7V145z M130.4,137.7h-7v-7h7V137.7z M188.5,145h-7v-7h7V145z M159.5,145h-7v-7h7V145z M108.6,145h-7v-7h7V145z M123.1,145h-7
			v-7h7V145z M123.1,137.7h-7v-7h7V137.7z M86.9,145h-7v-7h7V145z M181.3,137.7h-7v-7h7V137.7z M159.5,137.7h-7v-7h7V137.7z
			 M108.6,137.7h-7v-7h7V137.7z M115.9,137.7h-7v-7h7V137.7z M79.6,137.7h-7v-7h7V137.7z M181.3,130.4h-7v-7h7V130.4z M159.5,130.4
			h-7v-7h7V130.4z M115.9,130.4h-7v-7h7V130.4z M123.1,130.4h-7v-7h7V130.4z M130.4,130.4h-7v-7h7V130.4z M72.4,130.4h-7v-7h7V130.4
			z M174,123.2h-7v-7h7V123.2z M152.2,123.2h-7v-7h7V123.2z M137.7,123.2h-7v-7h7V123.2z M145,123.2h-7v-7h7V123.2z M65.1,123.2h-7
			v-7h7V123.2z M174,115.9h-7v-7h7V115.9z M57.8,115.9h-7v-7h7V115.9z M50.6,115.9h-7v-7h7V115.9z M166.7,108.7h-7v-7h7V108.7z
			 M43.3,108.7h-7v-7h7V108.7z M166.7,101.4h-7v-7h7V101.4z M137.7,101.4h-7v-7h7V101.4z M145,101.4h-7v-7h7V101.4z M36.1,101.4h-7
			v-7h7V101.4z M166.7,94.1h-7v-7h7V94.1z M137.7,94.1h-7v-7h7V94.1z M145,94.1h-7v-7h7V94.1z M86.9,94.1h-7v-7h7V94.1z M79.6,94.1
			h-7v-7h7V94.1z M72.4,94.1h-7v-7h7V94.1z M28.8,94.1h-7v-7h7V94.1z M159.5,86.9h-7v-7h7V86.9z M94.1,86.9h-7v-7h7V86.9z
			 M65.1,86.9h-7v-7h7V86.9z M72.4,86.9h-7v-7h7V86.9z M21.5,86.9h-7v-7h7V86.9z M152.4,79.5h-7v-7h7V79.5z M101.4,79.6h-7v-7h7
			V79.6z M86.9,79.6h-7v-7h7V79.6z M79.6,79.6h-7v-7h7V79.6z M65.1,79.6h-7v-7h7V79.6z M57.8,79.6h-7v-7h7V79.6z M36.1,79.6h-7v-7h7
			V79.6z M28.8,79.6h-7v-7h7V79.6z M152.4,72.2h-7v-7h7V72.2z M94.1,72.4h-7v-7h7V72.4z M108.6,72.4h-7v-7h7V72.4z M86.9,72.4h-7v-7
			h7V72.4z M79.6,72.4h-7v-7h7V72.4z M72.4,72.4h-7v-7h7V72.4z M57.8,72.4h-7v-7h7V72.4z M50.6,72.4h-7v-7h7V72.4z M36.1,72.4h-7v-7
			h7V72.4z M145.1,65h-7v-7h7V65z M94.1,65.1h-7v-7h7V65.1z M101.4,65.1h-7v-7h7V65.1z M65.1,65.1h-7v-7h7V65.1z M72.4,65.1h-7v-7h7
			V65.1z M50.6,65.1h-7v-7h7V65.1z M36.1,65.1h-7v-7h7V65.1z M145.1,57.7h-7v-7h7V57.7z M94.1,57.8h-7v-7h7V57.8z M101.4,57.8h-7v-7
			h7V57.8z M65.1,57.8h-7v-7h7V57.8z M72.4,57.8h-7v-7h7V57.8z M50.6,57.8h-7v-7h7V57.8z M36.1,57.8h-7v-7h7V57.8z M137.9,50.4h-7
			v-7h7V50.4z M94.1,50.6h-7v-7h7V50.6z M108.6,50.6h-7v-7h7V50.6z M86.9,50.6h-7v-7h7V50.6z M79.6,50.6h-7v-7h7V50.6z M72.4,50.6
			h-7v-7h7V50.6z M57.8,50.6h-7v-7h7V50.6z M50.6,50.6h-7v-7h7V50.6z M36.1,50.6h-7v-7h7V50.6z M137.9,43.2h-7v-7h7V43.2z
			 M101.4,43.3h-7v-7h7V43.3z M86.9,43.3h-7v-7h7V43.3z M79.6,43.3h-7v-7h7V43.3z M65.1,43.3h-7v-7h7V43.3z M57.8,43.3h-7v-7h7V43.3
			z M36.1,43.3h-7v-7h7V43.3z M130.6,35.9h-7v-7h7V35.9z M94.1,36.1h-7v-7h7V36.1z M65.1,36.1h-7v-7h7V36.1z M72.4,36.1h-7v-7h7
			V36.1z M43.3,36.1h-7v-7h7V36.1z M130.6,28.7h-7v-7h7V28.7z M86.9,28.8h-7v-7h7V28.8z M79.6,28.8h-7v-7h7V28.8z M72.4,28.8h-7v-7
			h7V28.8z M50.6,28.8h-7v-7h7V28.8z M43.3,28.8h-7v-7h7V28.8z M57.8,21.5h-7v-7h7V21.5z M50.6,21.5h-7v-7h7V21.5z M94.1,14.3h-7v-7
			h7V14.3z M101.4,14.3h-7v-7h7V14.3z M108.6,14.3h-7v-7h7V14.3z M115.9,14.3h-7v-7h7V14.3z M123.3,21.4h-7v-7h7V21.4z M86.9,14.3
			h-7v-7h7V14.3z M79.6,14.3h-7v-7h7V14.3z M65.1,14.3h-7v-7h7V14.3z M72.4,14.3h-7v-7h7V14.3z M94.1,94.1h-7v-7h7V94.1z
			 M101.3,86.9h-7v-7h7V86.9z M108.6,79.6h-7v-7h7V79.6z M115.8,72.4h-7v-7h7V72.4z M115.8,65.1h-7v-7h7V65.1z M115.8,57.8h-7v-7h7
			V57.8z M115.8,50.6h-7v-7h7V50.6z M108.6,43.3h-7v-7h7V43.3z M101.3,36.1h-7v-7h7V36.1z M94.1,28.8h-7v-7h7V28.8z"/>
	</g>
</g>
</svg>
