<?xml version="1.0" encoding="utf-8"?>
<!-- Generator: Adobe Illustrator 27.3.1, SVG Export Plug-In . SVG Version: 6.00 Build 0)  -->
<svg version="1.1" id="Слой_1" xmlns="http://www.w3.org/2000/svg" xmlns:xlink="http://www.w3.org/1999/xlink" x="0px" y="0px"
	 viewBox="0 0 130.4 130.5" style="enable-background:new 0 0 130.4 130.5;" xml:space="preserve">
<style type="text/css">
	.st0{fill:#1E0E01;}
</style>
<path class="st0" d="M130.5,72.7v7h-7v-7H130.5z M130.5,65.4v7h-7v-7H130.5z M123.2,72.7v7h-7v-7H123.2z M123.2,65.4v7h-7v-7H123.2z
	 M108.7,7.2v7h-7v-7H108.7z M108.7,14.5v7h-7v-7H108.7z M108.7,58.2v7h-7v-7C101.7,58.2,108.7,58.2,108.7,58.2z M108.7,65.4v7h-7v-7
	H108.7z M101.4,72.7v7h-7v-7H101.4z M101.4,79.9v7h-7v-7H101.4z M101.4,7.2v7h-7v-7H101.4z M101.4,14.5v7h-7v-7H101.4z M101.4,43.5
	v7h-7v-7H101.4z M101.4,50.9v7h-7v-7H101.4z M101.4,58.2v7h-7v-7C94.4,58.2,101.4,58.2,101.4,58.2z M101.4,65.4v7h-7v-7H101.4z
	 M94.2,72.7v7h-7v-7H94.2z M94.2,79.9v7h-7v-7H94.2z M94.2,87.2v7h-7v-7H94.2z M94.2,116.2v7h-7v-7H94.2z M94.2,123.5v7h-7v-7H94.2z
	 M94.2,36.4v7h-7v-7H94.2z M94.2,43.5v7h-7v-7H94.2z M94.2,50.9v7h-7v-7H94.2z M86.9,72.7v7h-7v-7H86.9z M86.9,79.9v7h-7v-7H86.9z
	 M86.9,87.2v7h-7v-7H86.9z M86.9,94.5v7h-7v-7H86.9z M86.9,116.2v7h-7v-7H86.9z M86.9,123.5v7h-7v-7H86.9z M86.9,29v7h-7v-7H86.9z
	 M86.9,36.4v7h-7v-7H86.9z M86.9,43.5v7h-7v-7H86.9z M86.9,50.9v7h-7v-7H86.9z M86.9,58.2v7h-7v-7C79.9,58.2,86.9,58.2,86.9,58.2z
	 M86.9,65.4v7h-7v-7H86.9z M79.6,72.7v7h-7v-7H79.6z M79.6,79.9v7h-7v-7H79.6z M79.6,87.2v7h-7v-7H79.6z M79.6,94.5v7h-7v-7H79.6z
	 M79.6,29v7h-7v-7H79.6z M79.6,36.4v7h-7v-7H79.6z M79.6,43.5v7h-7v-7H79.6z M79.6,50.9v7h-7v-7H79.6z M72.4,79.9v7h-7v-7H72.4z
	 M72.4,94.5v7h-7v-7H72.4z M72.4,101.7v7h-7v-7H72.4z M72.4,21.9v7h-7v-7H72.4z M72.4,29v7h-7v-7H72.4z M72.4,43.5v7h-7v-7H72.4z
	 M72.4,58.2v7h-7v-7C65.4,58.2,72.4,58.2,72.4,58.2z M72.4,65.4v7h-7v-7H72.4z M65.1,79.9v7h-7v-7H65.1z M65.1,94.5v7h-7v-7H65.1z
	 M65.1,101.7v7h-7v-7H65.1z M65.1,21.9v7h-7v-7H65.1z M65.1,29v7h-7v-7H65.1z M65.1,43.5v7h-7v-7H65.1z M65.1,58.2v7h-7v-7
	C58.1,58.2,65.1,58.2,65.1,58.2z M65.1,65.4v7h-7v-7H65.1z M57.9,72.7v7h-7v-7H57.9z M57.9,79.9v7h-7v-7H57.9z M57.9,87.2v7h-7v-7
	H57.9z M57.9,94.5v7h-7v-7H57.9z M57.9,29v7h-7v-7H57.9z M57.9,36.4v7h-7v-7H57.9z M57.9,43.5v7h-7v-7H57.9z M57.9,50.9v7h-7v-7
	H57.9z M50.6,72.7v7h-7v-7H50.6z M50.6,79.9v7h-7v-7H50.6z M50.6,87.2v7h-7v-7H50.6z M50.6,94.5v7h-7v-7H50.6z M50.6,0v7h-7V0H50.6z
	 M50.6,7.2v7h-7v-7H50.6z M50.6,29v7h-7v-7H50.6z M50.6,36.4v7h-7v-7H50.6z M50.6,43.5v7h-7v-7H50.6z M50.6,50.9v7h-7v-7H50.6z
	 M50.6,58.2v7h-7v-7C43.6,58.2,50.6,58.2,50.6,58.2z M50.6,65.4v7h-7v-7H50.6z M43.3,72.7v7h-7v-7H43.3z M43.3,79.9v7h-7v-7H43.3z
	 M43.3,87.2v7h-7v-7H43.3z M43.3,0v7h-7V0H43.3z M43.3,7.2v7h-7v-7H43.3z M43.3,36.4v7h-7v-7H43.3z M43.3,43.5v7h-7v-7H43.3z
	 M43.3,50.9v7h-7v-7H43.3z M36.1,72.7v7h-7v-7H36.1z M36.1,79.9v7h-7v-7H36.1z M36.1,109v7h-7v-7H36.1z M36.1,116.2v7h-7v-7H36.1z
	 M36.1,43.5v7h-7v-7H36.1z M36.1,50.9v7h-7v-7H36.1z M36.1,58.2v7h-7v-7C29.1,58.2,36.1,58.2,36.1,58.2z M36.1,65.4v7h-7v-7H36.1z
	 M28.8,109v7h-7v-7H28.8z M28.8,116.2v7h-7v-7H28.8z M28.8,58.2v7h-7v-7C21.8,58.2,28.8,58.2,28.8,58.2z M28.8,65.4v7h-7v-7H28.8z
	 M14.3,50.9v7h-7v-7H14.3z M14.3,58.2v7h-7v-7C7.3,58.2,14.3,58.2,14.3,58.2z M7,50.9v7H0v-7H7z M7,58.2v7H0v-7
	C0,58.2,7,58.2,7,58.2z"/>
</svg>
