<?xml version="1.0" encoding="utf-8"?>
<!-- Generator: Adobe Illustrator 27.3.1, SVG Export Plug-In . SVG Version: 6.00 Build 0)  -->
<svg version="1.1" xmlns="http://www.w3.org/2000/svg" xmlns:xlink="http://www.w3.org/1999/xlink" x="0px" y="0px"
	 viewBox="0 0 391.8 336.4" style="enable-background:new 0 0 391.8 336.4;" xml:space="preserve">
<style type="text/css">
	.st0{fill:#FCE8B3;}
	.st1{display:none;}
	.st2{fill:#1E0E01;}
</style>
<g id="Слой_2">
	<path class="st0" d="M329,275.9c0-1.4-1.1-2.5-2.5-2.5h-4.8v-4.8c0-1.4-1.1-2.5-2.5-2.5h-4.8v-4.7c0-1.4-1.1-2.5-2.5-2.5h-4.7v-4.8
		c0-1.4-1.1-2.5-2.5-2.5h-4.8v-4.7c0-1.4-1.1-2.5-2.5-2.5h-4.7v-4.8c0-1.4-1.1-2.5-2.5-2.5h-4.8v-4.8c0,0,0-0.1,0-0.1
		c0,0,0-0.1,0-0.1v-7c0-0.1,0-0.1,0-0.2c0,0,0-0.1,0-0.1v-7c0,0,0-0.1,0-0.1c0,0,0-0.1,0-0.1v-7c0-1.4-1.1-2.5-2.5-2.5h-4.8v-4.8
		c0-1.4-1.1-2.5-2.5-2.5h-4.7V196c0-1.4-1.1-2.5-2.5-2.5h-4.8v-4.7c0-1.4-1.1-2.5-2.5-2.5h-4.7v-4.8c0,0,0-0.1,0-0.1
		c0,0,0-0.1,0-0.1v-7c0-1.4-1.1-2.5-2.5-2.5h-4.8V167c0-1.4-1.1-2.5-2.5-2.5h-4.8v-4.8c0-1.4-1.1-2.5-2.5-2.5h-7c0,0-0.1,0-0.1,0
		c0,0-0.1,0-0.1,0h-4.8v-4.7c0-1.4-1.1-2.5-2.5-2.5h-4.7v-4.8c0-1.4-1.1-2.5-2.5-2.5h-4.8V138c0-1.4-1.1-2.5-2.5-2.5h-4.8v-4.8
		c0-1.4-1.1-2.5-2.5-2.5h-4.7v-4.8c0,0,0-0.1,0-0.1c0,0,0-0.1,0-0.1v-7c0-0.1,0-0.1,0-0.1c0,0,0-0.1,0-0.2v-7c0-1.4-1.1-2.5-2.5-2.5
		H191v-4.7c0-1.4-1.1-2.5-2.5-2.5h-4.7v-4.8c0-1.4-1.1-2.5-2.5-2.5h-4.8v-4.8c0,0,0-0.1,0-0.1c0,0,0-0.1,0-0.1v-7
		c0-1.4-1.1-2.5-2.5-2.5h-4.8v-4.8c0,0,0-0.1,0-0.1c0,0,0-0.1,0-0.1v-7c0-1.4-1.1-2.5-2.5-2.5H162v-4.8c0-1.4-1.1-2.5-2.5-2.5h-4.8
		v-4.8c0,0,0-0.1,0-0.1c0,0,0-0.1,0-0.1v-7c0-1.4-1.1-2.5-2.5-2.5h-4.7v-4.8c0,0,0-0.1,0-0.1c0,0,0-0.1,0-0.1v-7
		c0-1.4-1.1-2.5-2.5-2.5h-4.8v-4.8c0-1.4-1.1-2.5-2.5-2.5h-4.8v-4.8c0-1.4-1.1-2.5-2.5-2.5h-4.7V7.3c0-1.4-1.1-2.5-2.5-2.5h-7
		c-0.1,0-0.1,0-0.1,0c0,0-0.1,0-0.1,0h-7c-0.1,0-0.1,0-0.1,0c0,0-0.1,0-0.1,0h-7c0,0-0.1,0-0.1,0c0,0-0.1,0-0.1,0h-7
		c-0.1,0-0.1,0-0.1,0c0,0-0.1,0-0.1,0h-7c0,0-0.1,0-0.1,0c0,0-0.1,0-0.1,0h-7c-0.1,0-0.1,0-0.1,0c0,0-0.1,0-0.1,0h-7
		c0,0-0.1,0-0.1,0c0,0-0.1,0-0.1,0h-7c-0.1,0-0.1,0-0.1,0c0,0-0.1,0-0.1,0h-7c-1.4,0-2.5,1.1-2.5,2.5V12h-4.8c0,0-0.1,0-0.1,0
		c0,0-0.1,0-0.1,0h-7c-1.4,0-2.5,1.1-2.5,2.5v4.8h-4.8c-1.4,0-2.5,1.1-2.5,2.5v7c0,0.1,0,0.1,0,0.1c0,0,0,0.1,0,0.1v4.7h-4.7
		c-1.4,0-2.5,1.1-2.5,2.5v7c0,0.1,0,0.1,0,0.1c0,0,0,0.1,0,0.1v7c0,0,0,0.1,0,0.1c0,0,0,0.1,0,0.1v7c0,0.1,0,0.1,0,0.1
		c0,0,0,0.1,0,0.1v7c0,0.1,0,0.1,0,0.1c0,0,0,0.1,0,0.1v7c0,0,0,0.1,0,0.1c0,0,0,0.1,0,0.1v7c0,0.1,0,0.2,0,0.2c0,0.1,0,0.2,0,0.2
		v4.5h-4.8c-1.4,0-2.5,1.1-2.5,2.5v7c0,0,0,0.1,0,0.1c0,0,0,0.1,0,0.1v7c0,1.4,1.1,2.5,2.5,2.5h4.6v4.9c0,1.4,1.1,2.5,2.5,2.5h7
		c0.1,0,0.1,0,0.2,0c0.1,0,0.1,0,0.2,0h4.8v4.7c0,1.4,1.1,2.5,2.5,2.5h7c0,0,0.1,0,0.1,0c0,0,0.1,0,0.1,0h4.8v4.8
		c0,1.4,1.1,2.5,2.5,2.5h7c0.1,0,0.1,0,0.1,0c0,0,0.1,0,0.1,0h4.7v4.7c0,1.4,1.1,2.5,2.5,2.5h7c0.1,0,0.1,0,0.1,0c0,0,0.1,0,0.1,0
		h4.7v4.8c0,1.4,1.1,2.5,2.5,2.5h4.8v4.8c0,1.4,1.1,2.5,2.5,2.5h7c0,0,0.1,0,0.1,0c0,0,0.1,0,0.1,0h4.8v4.7c0,1.4,1.1,2.5,2.5,2.5
		h4.7v4.8c0,1.4,1.1,2.5,2.5,2.5h4.8v4.7c0,1.4,1.1,2.5,2.5,2.5h4.8v4.8c0,1.4,1.1,2.5,2.5,2.5h7c0.1,0,0.1,0,0.2,0c0,0,0.1,0,0.1,0
		h4.7v4.8c0,1.4,1.1,2.5,2.5,2.5h4.8v4.7c0,1.4,1.1,2.5,2.5,2.5h7c0.1,0,0.1,0,0.2,0h4.8v4.8c0,1.4,1.1,2.5,2.5,2.5h4.8v2.5H167
		c-1.4,0-2.5,1.1-2.5,2.5v7c0,0.1,0,0.1,0,0.1c0,0,0,0.1,0,0.2v7c0,0,0,0.1,0,0.1c0,0,0,0.1,0,0.1v7c0,1.4,1.1,2.5,2.5,2.5h4.8v4.8
		c0,1.4,1.1,2.5,2.5,2.5h4.8v4.7c0,1.4,1.1,2.5,2.5,2.5h7c0.1,0,0.1,0,0.1,0c0,0,0.1,0,0.1,0h7c1.4,0,2.5-1.1,2.5-2.5v-4.7h4.6
		c1.4,0,2.5-1.1,2.5-2.5v-4.8h4.8c0.1,0,0.1,0,0.2,0c0,0,0.1,0,0.1,0h4.7v4.8c0,1.4,1.1,2.5,2.5,2.5h4.8v4.7c0,1.4,1.1,2.5,2.5,2.5
		h4.7v4.8c0,1.4,1.1,2.5,2.5,2.5h4.8v4.8c0,1.4,1.1,2.5,2.5,2.5h7c0.1,0,0.1,0,0.1,0c0,0,0.1,0,0.2,0h4.7v4.7c0,1.4,1.1,2.5,2.5,2.5
		h7c0.1,0,0.1,0,0.1,0c0,0,0.1,0,0.2,0h4.7v4.8c0,1.4,1.1,2.5,2.5,2.5h4.8v4.7c0,1.4,1.1,2.5,2.5,2.5h4.8v4.8c0,1.4,1.1,2.5,2.5,2.5
		h4.7v4.8c0,1.4,1.1,2.5,2.5,2.5h4.8v4.7c0,1.4,1.1,2.5,2.5,2.5h7c0.1,0,0.1,0,0.2,0h7c0.1,0,0.1,0,0.2,0c0,0,0.1,0,0.1,0h7
		c0.1,0,0.1,0,0.1,0c0,0,0.1,0,0.2,0h7c1.4,0,2.5-1.1,2.5-2.5v-7c0,0,0-0.1,0-0.1c0,0,0-0.1,0-0.1v-7c0-0.1,0-0.1,0-0.2
		c0,0,0-0.1,0-0.1V275.9z"/>
</g>
<g id="Слой_1">
	<g id="Слой_2_00000118380262525823175990000004912685396787560320_" class="st1">
		
			<image style="display:inline;overflow:visible;enable-background:new    ;" width="800" height="600" xlink:href="C:\Users\diann\Desktop\hdd.png"  transform="matrix(-0.7386 0.1302 -0.1302 -0.7386 399.9402 317.7914)">
		</image>
	</g>
	<g id="Слой_1_00000170958087463293260210000013262195858946520969_">
		<path class="st2" d="M246.6,253.9h-7v-7h7V253.9z M319.2,297.4h-7v-7h7V297.4z M326.5,297.4h-7v-7h7V297.4z M311.9,297.4h-7v-7h7
			V297.4z M304.7,297.4h-7v-7h7V297.4z M326.5,290.2h-7v-7h7V290.2z M297.4,290.2h-7v-7h7V290.2z M326.5,282.9h-7v-7h7V282.9z
			 M290.2,282.9h-7v-7h7V282.9z M319.2,275.6h-7v-7h7V275.6z M282.9,275.6h-7v-7h7V275.6z M210.3,224.8h-7v-7h7V224.8z M210.3,195.8
			h-7v-7h7V195.8z M210.3,188.5h-7v-7h7V188.5z M311.9,268.4h-7v-7h7V268.4z M275.6,268.4h-7v-7h7V268.4z M203,232.1h-7v-7h7V232.1z
			 M203,195.8h-7v-7h7V195.8z M203,188.5h-7v-7h7V188.5z M203,181.3h-7v-7h7V181.3z M304.7,261.1h-7v-7h7V261.1z M268.4,261.1h-7v-7
			h7V261.1z M261.1,261.1h-7v-7h7V261.1z M297.4,253.9h-7v-7h7V253.9z M253.9,253.9h-7v-7h7V253.9z M195.9,239.3h-7v-7h7V239.3z
			 M290.2,246.6h-7v-7h7V246.6z M188.6,239.3h-7v-7h7V239.3z M181.3,232.1h-7v-7h7V232.1z M174,224.8h-7v-7h7V224.8z M174,217.6h-7
			v-7h7V217.6z M174,210.3h-7v-7h7V210.3z M282.9,239.3h-7v-7h7V239.3z M282.9,232.1h-7v-7h7V232.1z M253.9,232.1h-7v-7h7V232.1z
			 M246.6,232.1h-7v-7h7V232.1z M224.8,232.1h-7v-7h7V232.1z M282.9,224.8h-7v-7h7V224.8z M253.9,224.8h-7v-7h7V224.8z M246.6,224.8
			h-7v-7h7V224.8z M217.6,224.8h-7v-7h7V224.8z M261.4,246.3h-7v-7h7V246.3z M282.9,217.6h-7v-7h7V217.6z M275.6,210.3h-7v-7h7
			V210.3z M181.3,203h-7v-7h7V203z M181.3,181.3h-7v-7h7V181.3z M268.4,239.3h-7v-7h7V239.3z M268.4,203h-7v-7h7V203z M246.6,203h-7
			v-7h7V203z M195.8,188.5h-7v-7h7V188.5z M195.8,181.3h-7v-7h7V181.3z M195.8,174h-7v-7h7V174z M174,195.8h-7v-7h7V195.8z M174,174
			h-7v-7h7V174z M145,174h-7v-7h7V174z M261.1,195.8h-7v-7h7V195.8z M246.6,195.8h-7v-7h7V195.8z M239.3,195.8h-7v-7h7V195.8z
			 M166.7,188.5h-7v-7h7V188.5z M166.7,166.7h-7v-7h7V166.7z M253.9,188.5h-7v-7h7V188.5z M246.6,188.5h-7v-7h7V188.5z M188.5,188.5
			h-7v-7h7V188.5z M188.5,174h-7v-7h7V174z M188.5,166.7h-7v-7h7V166.7z M159.5,188.5h-7v-7h7V188.5z M130.4,166.7h-7v-7h7V166.7z
			 M253.9,181.3h-7v-7h7V181.3z M152.2,181.3h-7v-7h7V181.3z M246.6,174h-7v-7h7V174z M203,174h-7v-7h7V174z M181.3,166.7h-7v-7h7
			V166.7z M181.3,159.5h-7v-7h7V159.5z M181.3,152.2h-7v-7h7V152.2z M181.3,145h-7v-7h7V145z M137.7,174h-7v-7h7V174z M239.3,166.7
			h-7v-7h7V166.7z M232.1,166.7h-7v-7h7V166.7z M195.8,166.7h-7v-7h7V166.7z M159.5,152.2h-7v-7h7V152.2z M145,159.5h-7v-7h7V159.5z
			 M145,145h-7v-7h7V145z M145,137.7h-7v-7h7V137.7z M145,130.4h-7v-7h7V130.4z M224.8,159.5h-7v-7h7V159.5z M188.5,159.5h-7v-7h7
			V159.5z M195.8,159.5h-7v-7h7V159.5z M174,159.5h-7v-7h7V159.5z M174,152.2h-7v-7h7V152.2z M166.7,137.7h-7v-7h7V137.7z
			 M166.7,130.4h-7v-7h7V130.4z M152.2,159.5h-7v-7h7V159.5z M137.7,152.2h-7v-7h7V152.2z M137.7,137.7h-7v-7h7V137.7z M137.7,130.4
			h-7v-7h7V130.4z M101.4,145h-7v-7h7V145z M123.1,159.5h-7v-7h7V159.5z M217.6,152.2h-7v-7h7V152.2z M188.5,152.2h-7v-7h7V152.2z
			 M152.2,152.2h-7v-7h7V152.2z M152.2,145h-7v-7h7V145z M152.2,137.7h-7v-7h7V137.7z M152.2,130.4h-7v-7h7V130.4z M94.1,137.7h-7
			v-7h7V137.7z M115.9,152.2h-7v-7h7V152.2z M130.4,145h-7v-7h7V145z M210.3,145h-7v-7h7V145z M188.5,145h-7v-7h7V145z M159.5,145
			h-7v-7h7V145z M108.6,145h-7v-7h7V145z M123.1,137.7h-7v-7h7V137.7z M86.9,130.4h-7v-7h7V130.4z M203,137.7h-7v-7h7V137.7z
			 M159.5,137.7h-7v-7h7V137.7z M79.6,130.4h-7v-7h7V130.4z M195.8,130.4h-7v-7h7V130.4z M159.5,130.4h-7v-7h7V130.4z M166.7,123.2
			h-7v-7h7V123.2z M159.5,123.2h-7v-7h7V123.2z M159.5,115.9h-7v-7h7V115.9z M123.1,130.4h-7v-7h7V130.4z M130.4,130.4h-7v-7h7
			V130.4z M130.4,123.2h-7v-7h7V123.2z M72.4,123.2h-7v-7h7V123.2z M195.8,123.2h-7v-7h7V123.2z M152.2,123.2h-7v-7h7V123.2z
			 M152.2,115.9h-7v-7h7V115.9z M152.2,86.9h-7v-7h7V86.9z M152.2,79.6h-7v-7h7V79.6z M137.7,123.2h-7v-7h7V123.2z M145,123.2h-7v-7
			h7V123.2z M145,115.9h-7v-7h7V115.9z M65.1,123.2h-7v-7h7V123.2z M195.8,115.9h-7v-7h7V115.9z M57.8,115.9h-7v-7h7V115.9z
			 M50.6,115.9h-7v-7h7V115.9z M188.5,108.7h-7v-7h7V108.7z M43.3,108.7h-7v-7h7V108.7z M181.3,101.4h-7v-7h7V101.4z M28.8,101.3h-7
			v-7h7V101.3z M174,94.1h-7v-7h7V94.1z M145,86.9h-7v-7h7V86.9z M145,79.6h-7v-7h7V79.6z M94.1,94.1h-7v-7h7V94.1z M86.9,94.1h-7
			v-7h7V94.1z M79.6,94.1h-7v-7h7V94.1z M72.4,94.1h-7v-7h7V94.1z M28.8,94.1h-7v-7h7V94.1z M174,86.9h-7v-7h7V86.9z M94.1,86.9h-7
			v-7h7V86.9z M101.4,86.9h-7v-7h7V86.9z M65.1,86.9h-7v-7h7V86.9z M72.4,86.9h-7v-7h7V86.9z M166.7,79.6h-7v-7h7V79.6z M101.4,79.6
			h-7v-7h7V79.6z M108.6,79.6h-7v-7h7V79.6z M86.9,79.6h-7v-7h7V79.6z M79.6,79.6h-7v-7h7V79.6z M65.1,79.6h-7v-7h7V79.6z
			 M57.8,79.6h-7v-7h7V79.6z M36.1,79.6h-7v-7h7V79.6z M36.1,87.1h-7v-7h7V87.1z M166.7,72.4h-7v-7h7V72.4z M94.1,72.4h-7v-7h7V72.4
			z M108.6,72.4h-7v-7h7V72.4z M115.9,72.4h-7v-7h7V72.4z M86.9,72.4h-7v-7h7V72.4z M79.6,72.4h-7v-7h7V72.4z M72.4,72.4h-7v-7h7
			V72.4z M57.8,72.4h-7v-7h7V72.4z M50.6,72.4h-7v-7h7V72.4z M36.1,72.4h-7v-7h7V72.4z M159.5,65.1h-7v-7h7V65.1z M94.1,65.1h-7v-7
			h7V65.1z M101.4,65.1h-7v-7h7V65.1z M115.9,65.1h-7v-7h7V65.1z M65.1,65.1h-7v-7h7V65.1z M72.4,65.1h-7v-7h7V65.1z M50.6,65.1h-7
			v-7h7V65.1z M36.1,65.1h-7v-7h7V65.1z M152.2,57.8h-7v-7h7V57.8z M94.1,57.8h-7v-7h7V57.8z M101.4,57.8h-7v-7h7V57.8z M115.9,57.8
			h-7v-7h7V57.8z M94.1,28.8h-7v-7h7V28.8z M65.1,57.8h-7v-7h7V57.8z M72.4,57.8h-7v-7h7V57.8z M50.6,57.8h-7v-7h7V57.8z M36.1,57.8
			h-7v-7h7V57.8z M152.2,50.6h-7v-7h7V50.6z M94.1,50.6h-7v-7h7V50.6z M108.6,50.6h-7v-7h7V50.6z M115.9,50.6h-7v-7h7V50.6z
			 M86.9,50.6h-7v-7h7V50.6z M79.6,50.6h-7v-7h7V50.6z M72.4,50.6h-7v-7h7V50.6z M57.8,50.6h-7v-7h7V50.6z M50.6,50.6h-7v-7h7V50.6z
			 M36.1,50.6h-7v-7h7V50.6z M145,43.3h-7v-7h7V43.3z M101.4,43.3h-7v-7h7V43.3z M108.6,43.3h-7v-7h7V43.3z M86.9,43.3h-7v-7h7V43.3
			z M79.6,43.3h-7v-7h7V43.3z M65.1,43.3h-7v-7h7V43.3z M57.8,43.3h-7v-7h7V43.3z M36.1,43.3h-7v-7h7V43.3z M145,36.1h-7v-7h7V36.1z
			 M94.1,36.1h-7v-7h7V36.1z M101.4,36.1h-7v-7h7V36.1z M65.1,36.1h-7v-7h7V36.1z M72.4,36.1h-7v-7h7V36.1z M43.3,36.1h-7v-7h7V36.1
			z M137.7,28.8h-7v-7h7V28.8z M86.9,28.8h-7v-7h7V28.8z M79.6,28.8h-7v-7h7V28.8z M72.4,28.8h-7v-7h7V28.8z M50.6,28.8h-7v-7h7
			V28.8z M43.3,28.8h-7v-7h7V28.8z M130.4,21.5h-7v-7h7V21.5z M57.8,21.5h-7v-7h7V21.5z M50.6,21.5h-7v-7h7V21.5z M94.1,14.3h-7v-7
			h7V14.3z M101.4,14.3h-7v-7h7V14.3z M108.6,14.3h-7v-7h7V14.3z M115.9,14.3h-7v-7h7V14.3z M86.9,14.3h-7v-7h7V14.3z M79.6,14.3h-7
			v-7h7V14.3z M65.1,14.3h-7v-7h7V14.3z M72.4,14.3h-7v-7h7V14.3z M123.2,14.3h-7v-7h7V14.3z M232.1,239.3h-7v-7h7V239.3z
			 M239.3,246.6h-7v-7h7V246.6z M35.9,108.7h-7v-7h7V108.7z"/>
	</g>
</g>
</svg>
