<?xml version="1.0" encoding="utf-8"?>
<!-- Generator: Adobe Illustrator 27.3.1, SVG Export Plug-In . SVG Version: 6.00 Build 0)  -->
<svg version="1.1" xmlns="http://www.w3.org/2000/svg" xmlns:xlink="http://www.w3.org/1999/xlink" x="0px" y="0px"
	 viewBox="0 0 391.8 336" style="enable-background:new 0 0 391.8 336;" xml:space="preserve">
<style type="text/css">
	.st0{fill:#FCE8B3;}
	.st1{display:none;}
	.st2{fill:#1E0E01;}
</style>
<g id="Слой_2">
	<path class="st0" d="M365.3,246.9c0-1.4-1.1-2.5-2.5-2.5H358v-4.8c0-1.4-1.1-2.5-2.5-2.5h-4.8v-4.8c0-1.4-1.1-2.5-2.5-2.5h-4.7
		v-4.7c0-1.4-1.1-2.5-2.5-2.5h-4.8v-4.8c0-1.4-1.1-2.5-2.5-2.5H329v-4.7c0-1.4-1.1-2.5-2.5-2.5h-4.8v-4.8c0-1.4-1.1-2.5-2.5-2.5
		h-4.8V196c0,0,0-0.1,0-0.1c0,0,0-0.1,0-0.1v-7c0-1.4-1.1-2.5-2.5-2.5h-4.7v-4.8c0,0,0-0.1,0-0.1c0,0,0-0.1,0-0.1v-7
		c0-1.4-1.1-2.5-2.5-2.5h-4.8V167c0-1.4-1.1-2.5-2.5-2.5h-7c-0.1,0-0.1,0-0.2,0h-4.7v-4.9c0-1.4-1.1-2.5-2.5-2.5h-4.9v-4.6
		c0-1.4-1.1-2.5-2.5-2.5h-4.7v-4.8c0-1.4-1.1-2.5-2.5-2.5h-4.8V138c0-1.4-1.1-2.5-2.5-2.5h-4.7v-4.8c0-1.4-1.1-2.5-2.5-2.5h-7
		c-0.1,0-0.1,0-0.2,0c0,0-0.1,0-0.1,0h-4.8v-4.8c0-1.4-1.1-2.5-2.5-2.5h-7c0,0-0.1,0-0.1,0c0,0-0.1,0-0.1,0h-4.8v-4.7
		c0-1.4-1.1-2.5-2.5-2.5h-4.7v-4.8c0-1.4-1.1-2.5-2.5-2.5h-4.8v-4.7c0-1.4-1.1-2.5-2.5-2.5h-4.8v-4.8c0-1.4-1.1-2.5-2.5-2.5h-4.7
		v-4.8c0-1.4-1.1-2.5-2.5-2.5H191v-4.7c0-1.4-1.1-2.5-2.5-2.5h-4.7v-4.8c0-1.4-1.1-2.5-2.5-2.5h-4.8v-4.7c0-1.4-1.1-2.5-2.5-2.5
		h-4.8v-4.8c0-0.1,0-0.1,0-0.1c0,0,0-0.1,0-0.1v-7c0-1.4-1.1-2.5-2.5-2.5H162v-4.7c0-1.4-1.1-2.5-2.5-2.5H155v-4.8
		c0-1.4-1.1-2.5-2.5-2.5h-4.7v-4.7c0-0.1,0-0.1,0-0.1c0,0,0-0.1,0-0.1v-7c0-1.4-1.1-2.5-2.5-2.5h-4.8v-4.8c0-1.4-1.1-2.5-2.5-2.5
		h-4.8V7.3c0-0.1,0-0.1,0-0.2c0,0,0-0.1,0-0.1V0c0-1.4-1.1-2.5-2.5-2.5h-7c-0.1,0-0.1,0-0.1,0c0,0-0.1,0-0.1,0h-7
		c-0.1,0-0.1,0-0.2,0c0,0-0.1,0-0.1,0h-7c-0.1,0-0.1,0-0.2,0c-0.1,0-0.1,0-0.2,0h-7c-0.1,0-0.1,0-0.1,0c0,0-0.1,0-0.1,0h-7
		c-1.4,0-2.5,1.1-2.5,2.5v4.8h-4.8c0,0-0.1,0-0.1,0c0,0-0.1,0-0.1,0h-7c-0.1,0-0.1,0-0.2,0c0,0-0.1,0-0.1,0h-7c0,0-0.1,0-0.1,0
		c0,0-0.1,0-0.1,0h-7c-0.1,0-0.1,0-0.2,0c0,0-0.1,0-0.1,0h-7c-1.4,0-2.5,1.1-2.5,2.5V12h-4.8c0,0-0.1,0-0.1,0c0,0-0.1,0-0.1,0h-7
		c-1.4,0-2.5,1.1-2.5,2.5v4.8h-4.8c-1.4,0-2.5,1.1-2.5,2.5v7c0,0.1,0,0.1,0,0.1c0,0,0,0.1,0,0.1v4.7h-4.7c-1.4,0-2.5,1.1-2.5,2.5v7
		c0,0.1,0,0.1,0,0.1c0,0,0,0.1,0,0.1v7c0,0,0,0.1,0,0.1c0,0,0,0.1,0,0.1v7c0,0.1,0,0.1,0,0.1c0,0,0,0.1,0,0.1v7c0,0.1,0,0.1,0,0.2
		c0,0,0,0.1,0,0.1v7c0,0,0,0.1,0,0.1c0,0,0,0.1,0,0.1v7c0,0.1,0,0.2,0,0.2c0,0.1,0,0.2,0,0.2v7c0,1.4,1.1,2.5,2.5,2.5h4.7v2.3h-4.7
		c-1.4,0-2.5,1.1-2.5,2.5v4.8h-4.8c-1.4,0-2.5,1.1-2.5,2.5v7c0,1.4,1.1,2.5,2.5,2.5h4.8v4.7c0,1.4,1.1,2.5,2.5,2.5h4.7v4.8
		c0,1.4,1.1,2.5,2.5,2.5h7c1.4,0,2.5-1.1,2.5-2.5v-4.8h4.8c0,0,0.1,0,0.1,0c0,0,0.1,0,0.1,0h4.8v4.8c0,1.4,1.1,2.5,2.5,2.5h4.8v4.7
		c0,1.4,1.1,2.5,2.5,2.5h7c0,0,0.1,0,0.1,0c0,0,0.1,0,0.1,0h7c0.1,0,0.1,0,0.1,0c0,0,0.1,0,0.2,0h7c0,0,0.1,0,0.1,0c0,0,0.1,0,0.1,0
		h7c0.1,0,0.1,0,0.1,0c0,0,0.1,0,0.2,0h7c0,0,0.1,0,0.1,0c0,0,0.1,0,0.1,0h4.8v4.8c0,1.4,1.1,2.5,2.5,2.5h4.7v4.8
		c0,1.4,1.1,2.5,2.5,2.5h7c0.1,0,0.1,0,0.1,0c0,0,0.1,0,0.2,0h4.8v4.7c0,1.4,1.1,2.5,2.5,2.5h4.8v4.8c0,1.4,1.1,2.5,2.5,2.5h7
		c0.1,0,0.1,0,0.2,0h7c0.1,0,0.1,0,0.2,0c0,0,0.1,0,0.1,0h4.7v4.7c0,1.4,1.1,2.5,2.5,2.5h7c0.1,0,0.1,0,0.2,0c0,0,0.1,0,0.1,0h4.8
		v4.8c0,1.4,1.1,2.5,2.5,2.5h7c0.1,0,0.1,0,0.2,0h4.8v4.8c0,1.4,1.1,2.5,2.5,2.5h4.7v2.5h-4.7c-1.4,0-2.5,1.1-2.5,2.5v7
		c0,0,0,0.1,0,0.1c0,0,0,0.1,0,0.1v7c0,1.4,1.1,2.5,2.5,2.5h4.7v4.8c0,1.4,1.1,2.5,2.5,2.5h4.8v4.8c0,1.4,1.1,2.5,2.5,2.5h7
		c0.1,0,0.1,0,0.1,0c0,0,0.1,0,0.2,0h7c1.4,0,2.5-1.1,2.5-2.5v-4.8h4.7c1.4,0,2.5-1.1,2.5-2.5v-4.8h4.8c1.4,0,2.5-1.1,2.5-2.5v-4.7
		h2.5v4.7c0,1.4,1.1,2.5,2.5,2.5h7c0.1,0,0.1,0,0.1,0c0,0,0.1,0,0.2,0h4.7v4.8c0,1.4,1.1,2.5,2.5,2.5h4.8v4.8c0,1.4,1.1,2.5,2.5,2.5
		h7c0.1,0,0.1,0,0.2,0h4.8v4.7c0,1.4,1.1,2.5,2.5,2.5h7c0.1,0,0.1,0,0.2,0c0,0,0.1,0,0.2,0h4.7v4.8c0,1.4,1.1,2.5,2.5,2.5h4.8v4.7
		c0,1.4,1.1,2.5,2.5,2.5h7c0.1,0,0.1,0,0.2,0h4.8v4.8c0,1.4,1.1,2.5,2.5,2.5h4.8v4.8c0,1.4,1.1,2.5,2.5,2.5h7c0.1,0,0.1,0,0.2,0h4.8
		v4.7c0,1.4,1.1,2.5,2.5,2.5h4.7v4.8c0,1.4,1.1,2.5,2.5,2.5h7c0.1,0,0.1,0,0.2,0c0,0,0.1,0,0.1,0h7c0.1,0,0.1,0,0.2,0
		c0,0,0.1,0,0.1,0h7c1.4,0,2.5-1.1,2.5-2.5v-7c0-0.1,0-0.1,0-0.1c0,0,0-0.1,0-0.2v-7c0,0,0-0.1,0-0.1c0,0,0-0.1,0-0.1V246.9z"/>
</g>
<g id="Слой_1">
	<g id="Слой_2_00000018918051160349904390000004415033965254576039_" class="st1">
		
			<image style="display:inline;overflow:visible;enable-background:new    ;" width="800" height="600" xlink:href="C:\Users\diann\Desktop\hdd.png"  transform="matrix(-0.7048 0.2565 -0.2565 -0.7048 440.384 258.0326)">
		</image>
	</g>
	<g id="Слой_1_00000183945806684074253850000006566612478008993427_">
		<path class="st2" d="M210.3,217.6h-7v-7h7V217.6z M362.8,268.4h-7v-7h7V268.4z M355.5,268.4h-7v-7h7V268.4z M348.2,268.4h-7v-7h7
			V268.4z M203,210.3h-7v-7h7V210.3z M203,188.5h-7v-7h7V188.5z M203,181.3h-7v-7h7V181.3z M362.8,261.1h-7v-7h7V261.1z M341,261.1
			h-7v-7h7V261.1z M362.8,253.9h-7v-7h7V253.9z M333.7,253.9h-7v-7h7V253.9z M326.5,253.9h-7v-7h7V253.9z M232.1,203h-7v-7h7V203z
			 M275.6,217.6h-7v-7h7V217.6z M268.4,217.6h-7v-7h7V217.6z M261.1,210.3h-7v-7h7V210.3z M355.5,246.6h-7v-7h7V246.6z M319.2,246.6
			h-7v-7h7V246.6z M348.2,239.3h-7v-7h7V239.3z M311.9,239.3h-7v-7h7V239.3z M304.7,239.3h-7v-7h7V239.3z M297.4,232.1h-7v-7h7
			V232.1z M224.8,210.3h-7v-7h7V210.3z M333.7,224.8h-7v-7h7V224.8z M290.2,224.8h-7v-7h7V224.8z M282.9,224.8h-7v-7h7V224.8z
			 M253.9,203h-7v-7h7V203z M217.6,217.6h-7v-7h7V217.6z M326.5,217.6h-7v-7h7V217.6z M319.2,210.3h-7v-7h7V210.3z M297.4,210.3h-7
			v-7h7V210.3z M195.8,203h-7v-7h7V203z M195.8,195.8h-7v-7h7V195.8z M311.9,203h-7v-7h7V203z M282.9,203h-7v-7h7V203z M275.6,203
			h-7v-7h7V203z M246.6,203h-7v-7h7V203z M195.8,181.3h-7v-7h7V181.3z M311.9,195.8h-7v-7h7V195.8z M282.9,195.8h-7v-7h7V195.8z
			 M275.6,195.8h-7v-7h7V195.8z M239.3,195.8h-7v-7h7V195.8z M166.7,166.7h-7v-7h7V166.7z M304.7,188.5h-7v-7h7V188.5z M188.5,174
			h-7v-7h7V174z M304.7,181.3h-7v-7h7V181.3z M232.1,174h-7v-7h7V174z M224.8,174h-7v-7h7V174z M297.4,174h-7v-7h7V174z M268.4,174
			h-7v-7h7V174z M224.8,166.7h-7v-7h7V166.7z M217.6,166.7h-7v-7h7V166.7z M210.3,166.7h-7v-7h7V166.7z M181.3,174h-7v-7h7V174z
			 M166.7,145h-7v-7h7V145z M159.5,159.5h-7v-7h7V159.5z M290.2,174h-7v-7h7V174z M261.1,166.7h-7v-7h7V166.7z M239.3,166.7h-7v-7h7
			V166.7z M232.1,166.7h-7v-7h7V166.7z M174,166.7h-7v-7h7V166.7z M145,159.5h-7v-7h7V159.5z M145,137.7h-7v-7h7V137.7z M283,166.6
			h-7v-7h7V166.6z M275.6,159.5h-7v-7h7V159.5z M268.4,159.5h-7v-7h7V159.5z M232.1,159.5h-7v-7h7V159.5z M224.8,159.5h-7v-7h7
			V159.5z M203,159.5h-7v-7h7V159.5z M210.3,152.2h-7v-7h7V152.2z M195.8,159.5h-7v-7h7V159.5z M174,145h-7v-7h7V145z M174,137.7h-7
			v-7h7V137.7z M174,130.4h-7v-7h7V130.4z M174,123.2h-7v-7h7V123.2z M166.7,130.4h-7v-7h7V130.4z M152.2,159.5h-7v-7h7V159.5z
			 M137.7,152.2h-7v-7h7V152.2z M137.7,130.4h-7v-7h7V130.4z M101.4,130.4h-7v-7h7V130.4z M123.1,145h-7v-7h7V145z M268.4,152.2h-7
			v-7h7V152.2z M224.8,152.2h-7v-7h7V152.2z M217.6,152.2h-7v-7h7V152.2z M188.5,152.2h-7v-7h7V152.2z M203,145h-7v-7h7V145z
			 M195.8,145h-7v-7h7V145z M152.2,137.7h-7v-7h7V137.7z M94.1,130.4h-7v-7h7V130.4z M115.9,137.7h-7v-7h7V137.7z M130.4,145h-7v-7
			h7V145z M261.1,145h-7v-7h7V145z M217.6,145h-7v-7h7V145z M210.3,145h-7v-7h7V145z M188.5,145h-7v-7h7V145z M195.8,137.7h-7v-7h7
			V137.7z M159.5,145h-7v-7h7V145z M108.6,130.4h-7v-7h7V130.4z M86.9,130.4h-7v-7h7V130.4z M253.9,137.7h-7v-7h7V137.7z
			 M246.6,137.7h-7v-7h7V137.7z M210.3,137.7h-7v-7h7V137.7z M203,137.7h-7v-7h7V137.7z M79.6,130.4h-7v-7h7V130.4z M239.3,130.4h-7
			v-7h7V130.4z M232.1,130.4h-7v-7h7V130.4z M203,130.4h-7v-7h7V130.4z M195.8,130.4h-7v-7h7V130.4z M159.5,130.4h-7v-7h7V130.4z
			 M166.7,123.2h-7v-7h7V123.2z M174,115.9h-7v-7h7V115.9z M166.7,115.9h-7v-7h7V115.9z M174,108.7h-7v-7h7V108.7z M166.7,108.7h-7
			v-7h7V108.7z M174,101.4h-7v-7h7V101.4z M166.7,101.4h-7v-7h7V101.4z M159.5,123.2h-7v-7h7V123.2z M159.5,115.9h-7v-7h7V115.9z
			 M159.5,108.7h-7v-7h7V108.7z M159.5,101.4h-7v-7h7V101.4z M72.4,130.4h-7v-7h7V130.4z M72.4,123.2h-7v-7h7V123.2z M224.8,123.2
			h-7v-7h7V123.2z M152.2,123.2h-7v-7h7V123.2z M152.2,115.9h-7v-7h7V115.9z M152.2,108.7h-7v-7h7V108.7z M152.2,79.6h-7v-7h7V79.6z
			 M152.2,72.4h-7v-7h7V72.4z M137.7,123.2h-7v-7h7V123.2z M137.7,115.9h-7v-7h7V115.9z M145,123.2h-7v-7h7V123.2z M145,115.9h-7v-7
			h7V115.9z M145,108.7h-7v-7h7V108.7z M65.1,123.2h-7v-7h7V123.2z M217.6,115.9h-7v-7h7V115.9z M57.8,115.9h-7v-7h7V115.9z
			 M50.6,115.9h-7v-7h7V115.9z M36.1,115.9h-7v-7h7V115.9z M210.3,108.7h-7v-7h7V108.7z M43.3,123.2h-7v-7h7V123.2z M28.8,108.7h-7
			v-7h7V108.7z M203,101.4h-7v-7h7V101.4z M36.1,101.4h-7v-7h7V101.4z M195.8,94.1h-7v-7h7V94.1z M145,79.6h-7v-7h7V79.6z M145,72.4
			h-7v-7h7V72.4z M94.1,94.1h-7v-7h7V94.1z M86.9,94.1h-7v-7h7V94.1z M79.6,94.1h-7v-7h7V94.1z M72.4,94.1h-7v-7h7V94.1z M43.3,94.3
			h-7v-7h7V94.3z M188.5,86.9h-7v-7h7V86.9z M94.1,86.9h-7v-7h7V86.9z M101.4,86.9h-7v-7h7V86.9z M65.1,86.9h-7v-7h7V86.9z
			 M72.4,86.9h-7v-7h7V86.9z M181.3,79.6h-7v-7h7V79.6z M101.4,79.6h-7v-7h7V79.6z M108.6,79.6h-7v-7h7V79.6z M86.9,79.6h-7v-7h7
			V79.6z M79.6,79.6h-7v-7h7V79.6z M65.1,79.6h-7v-7h7V79.6z M57.8,79.6h-7v-7h7V79.6z M36.1,79.6h-7v-7h7V79.6z M36.1,87.1h-7v-7h7
			V87.1z M174,72.4h-7v-7h7V72.4z M94.1,72.4h-7v-7h7V72.4z M108.6,72.4h-7v-7h7V72.4z M115.9,72.4h-7v-7h7V72.4z M86.9,72.4h-7v-7
			h7V72.4z M79.6,72.4h-7v-7h7V72.4z M72.4,72.4h-7v-7h7V72.4z M57.8,72.4h-7v-7h7V72.4z M50.6,72.4h-7v-7h7V72.4z M36.1,72.4h-7v-7
			h7V72.4z M166.7,65.1h-7v-7h7V65.1z M94.1,65.1h-7v-7h7V65.1z M101.4,65.1h-7v-7h7V65.1z M115.9,65.1h-7v-7h7V65.1z M65.1,65.1h-7
			v-7h7V65.1z M72.4,65.1h-7v-7h7V65.1z M50.6,65.1h-7v-7h7V65.1z M36.1,65.1h-7v-7h7V65.1z M166.7,57.8h-7v-7h7V57.8z M94.1,57.8
			h-7v-7h7V57.8z M101.4,57.8h-7v-7h7V57.8z M115.9,57.8h-7v-7h7V57.8z M94.1,28.8h-7v-7h7V28.8z M65.1,57.8h-7v-7h7V57.8z
			 M72.4,57.8h-7v-7h7V57.8z M50.6,57.8h-7v-7h7V57.8z M36.1,57.8h-7v-7h7V57.8z M152.5,43.3h-7v-7h7V43.3z M94.1,50.6h-7v-7h7V50.6
			z M108.6,50.6h-7v-7h7V50.6z M115.9,50.6h-7v-7h7V50.6z M86.9,50.6h-7v-7h7V50.6z M79.6,50.6h-7v-7h7V50.6z M72.4,50.6h-7v-7h7
			V50.6z M57.8,50.6h-7v-7h7V50.6z M50.6,50.6h-7v-7h7V50.6z M36.1,50.6h-7v-7h7V50.6z M145.3,36.1h-7v-7h7V36.1z M101.4,43.3h-7v-7
			h7V43.3z M108.6,43.3h-7v-7h7V43.3z M86.9,43.3h-7v-7h7V43.3z M79.6,43.3h-7v-7h7V43.3z M65.1,43.3h-7v-7h7V43.3z M57.8,43.3h-7
			v-7h7V43.3z M36.1,43.3h-7v-7h7V43.3z M159.5,50.6h-7v-7h7V50.6z M145.3,28.8h-7v-7h7V28.8z M94.1,36.1h-7v-7h7V36.1z M101.4,36.1
			h-7v-7h7V36.1z M65.1,36.1h-7v-7h7V36.1z M72.4,36.1h-7v-7h7V36.1z M43.3,36.1h-7v-7h7V36.1z M138,21.5h-7v-7h7V21.5z M86.9,28.8
			h-7v-7h7V28.8z M79.6,28.8h-7v-7h7V28.8z M72.4,28.8h-7v-7h7V28.8z M50.6,28.8h-7v-7h7V28.8z M43.3,28.8h-7v-7h7V28.8z
			 M130.7,14.3h-7v-7h7V14.3z M57.8,21.5h-7v-7h7V21.5z M50.6,21.5h-7v-7h7V21.5z M94.1,14.3h-7v-7h7V14.3z M101.4,7h-7V0h7V7z
			 M108.7,7h-7V0h7V7z M116.1,7h-7V0h7V7z M130.7,7h-7V0h7V7z M86.9,14.3h-7v-7h7V14.3z M79.6,14.3h-7v-7h7V14.3z M65.1,14.3h-7v-7
			h7V14.3z M72.4,14.3h-7v-7h7V14.3z M123.4,7h-7V0h7V7z M181.2,123.2h-7v-7h7V123.2z M181.2,115.9h-7v-7h7V115.9z M181.2,108.7h-7
			v-7h7V108.7z M341,232.1h-7v-7h7V232.1z"/>
	</g>
</g>
</svg>
