<?xml version="1.0" encoding="utf-8"?>
<!-- Generator: Adobe Illustrator 27.3.1, SVG Export Plug-In . SVG Version: 6.00 Build 0)  -->
<svg version="1.1" xmlns="http://www.w3.org/2000/svg" xmlns:xlink="http://www.w3.org/1999/xlink" x="0px" y="0px"
	 viewBox="0 0 394.3 336" style="enable-background:new 0 0 394.3 336;" xml:space="preserve">
<style type="text/css">
	.st0{fill:#FCE8B3;}
	.st1{display:none;}
	.st2{fill:#1E0E01;}
</style>
<g id="Слой_2">
	<path class="st0" d="M394.3,188.8c0-1.4-1.1-2.5-2.5-2.5H387v-4.8c0-1.4-1.1-2.5-2.5-2.5h-7c-0.1,0-0.1,0-0.2,0h-4.8v-4.7
		c0-1.4-1.1-2.5-2.5-2.5h-4.7V167c0-1.4-1.1-2.5-2.5-2.5h-7c-0.1,0-0.1,0-0.1,0c0,0-0.1,0-0.2,0h-4.7v-4.8c0-1.4-1.1-2.5-2.5-2.5h-7
		c-0.1,0-0.1,0-0.1,0c0,0-0.1,0-0.2,0h-4.8v-4.7c0-1.4-1.1-2.5-2.5-2.5H329v-4.8c0-1.4-1.1-2.5-2.5-2.5h-4.8v-4.5c0,0,0-0.1,0-0.1
		c0,0,0-0.1,0-0.1v-7c0-1.4-1.1-2.5-2.5-2.5h-4.8v-5.1c0-1.4-1.1-2.5-2.5-2.5h-7c0,0-0.1,0-0.1,0c0,0-0.1,0-0.1,0h-4.8v-4.7
		c0-1.4-1.1-2.5-2.5-2.5h-7c0,0-0.1,0-0.1,0c0,0-0.1,0-0.1,0h-4.8v-4.8c0-1.4-1.1-2.5-2.5-2.5h-4.8v-4.7c0-1.4-1.1-2.5-2.5-2.5h-7
		c0,0-0.1,0-0.1,0c0,0-0.1,0-0.1,0h-7c-0.1,0-0.1,0-0.2,0c0,0-0.1,0-0.1,0h-7c0,0-0.1,0-0.1,0c0,0-0.1,0-0.1,0h-4.8v-4.8
		c0-1.4-1.1-2.5-2.5-2.5h-7c-0.1,0-0.1,0-0.1,0c0,0-0.1,0-0.2,0h-4.7v-4.8c0-1.4-1.1-2.5-2.5-2.5h-7c-0.1,0-0.1,0-0.1,0
		c0,0-0.1,0-0.2,0h-4.7v-4.7c0-1.4-1.1-2.5-2.5-2.5h-4.8v-4.8c0-1.4-1.1-2.5-2.5-2.5h-4.8v-4.7c0-1.4-1.1-2.5-2.5-2.5h-7
		c0,0-0.1,0-0.1,0c0,0-0.1,0-0.1,0H191v-4.8c0-1.4-1.1-2.5-2.5-2.5h-4.7v-4.8c0-1.4-1.1-2.5-2.5-2.5h-4.8v-4.7
		c0-1.4-1.1-2.5-2.5-2.5h-7c-0.1,0-0.1,0-0.1,0c0,0-0.1,0-0.2,0H162v-4.8c0-1.4-1.1-2.5-2.5-2.5h-4.7v-4.7c0-1.4-1.1-2.5-2.5-2.5
		h-4.5v-4.8c0-1.4-1.1-2.5-2.5-2.5h-4.8v-4.8c0-1.4-1.1-2.5-2.5-2.5h-4.8V7.3c0-1.4-1.1-2.5-2.5-2.5h-7c-0.1,0-0.1,0-0.1,0
		c0,0-0.1,0-0.1,0h-4.8V0c0-1.4-1.1-2.5-2.5-2.5h-7c-0.1,0-0.1,0-0.2,0c-0.1,0-0.1,0-0.2,0h-7c-0.1,0-0.1,0-0.1,0c0,0-0.1,0-0.1,0
		h-7c-0.1,0-0.1,0-0.1,0c0,0-0.1,0-0.2,0h-7c0,0-0.1,0-0.1,0c0,0-0.1,0-0.1,0h-7c-0.1,0-0.1,0-0.1,0c0,0-0.1,0-0.2,0h-7
		c-1.4,0-2.5,1.1-2.5,2.5v4.8h-4.7c-0.1,0-0.1,0-0.1,0c0,0-0.1,0-0.2,0h-7c-1.4,0-2.5,1.1-2.5,2.5V12h-4.8c0,0-0.1,0-0.1,0
		c0,0-0.1,0-0.1,0h-7c-1.4,0-2.5,1.1-2.5,2.5v4.8h-4.8c-1.4,0-2.5,1.1-2.5,2.5v7c0,0.1,0,0.1,0,0.1c0,0,0,0.1,0,0.1v4.7h-4.7
		c-1.4,0-2.5,1.1-2.5,2.5v7c0,0.1,0,0.1,0,0.1c0,0,0,0.1,0,0.1v7c0,0,0,0.1,0,0.1c0,0,0,0.1,0,0.1v7c0,0.1,0,0.1,0,0.1
		c0,0,0,0.1,0,0.1v7c0,0.1,0,0.1,0,0.1c0,0,0,0.1,0,0.1v7c0,0,0,0.1,0,0.1c0,0,0,0.1,0,0.1v7c0,1.4,1.1,2.5,2.5,2.5h4.5v5
		c0,0.1,0,0.1,0,0.1c0,0,0,0.1,0,0.1v7c0,0.1,0,0.1,0,0.2c0,0,0,0.1,0,0.1v4.6h-4.7c-1.4,0-2.5,1.1-2.5,2.5v7c0,1.4,1.1,2.5,2.5,2.5
		h4.9v4.6c0,1.4,1.1,2.5,2.5,2.5h4.8v4.8c0,1.4,1.1,2.5,2.5,2.5h7c0,0,0.1,0,0.1,0c0,0,0.1,0,0.1,0h7c1.4,0,2.5-1.1,2.5-2.5v-4.8
		h2.6v4.8c0,1.4,1.1,2.5,2.5,2.5h4.7v4.7c0,1.4,1.1,2.5,2.5,2.5h7c0.1,0,0.1,0,0.2,0c0,0,0.1,0,0.1,0h7c0,0,0.1,0,0.1,0
		c0,0,0.1,0,0.1,0h7c0.1,0,0.1,0,0.2,0c0,0,0.1,0,0.1,0h7c0,0,0.1,0,0.1,0c0,0,0.1,0,0.1,0h7c0.1,0,0.1,0,0.2,0c0,0,0.1,0,0.1,0h7
		c0,0,0.1,0,0.1,0c0,0,0.1,0,0.1,0h7c0.1,0,0.1,0,0.2,0c0,0,0.1,0,0.1,0h4.8v4.8c0,1.4,1.1,2.5,2.5,2.5h7c0.1,0,0.1,0,0.2,0
		c0,0,0.1,0,0.1,0h7c0,0,0.1,0,0.1,0c0,0,0.1,0,0.1,0h4.8v4.8c0,1.4,1.1,2.5,2.5,2.5h7c0,0,0.1,0,0.1,0c0,0,0.1,0,0.1,0h7
		c0.1,0,0.1,0,0.2,0c0,0,0.1,0,0.1,0h4.8v4.7c0,1.4,1.1,2.5,2.5,2.5h7c0,0,0.1,0,0.1,0c0,0,0.1,0,0.1,0h7c0.1,0,0.1,0,0.1,0
		c0,0,0.1,0,0.1,0h7c0,0,0.1,0,0.1,0c0,0,0.1,0,0.1,0h4.8v4.8c0,1.4,1.1,2.5,2.5,2.5h7c0.1,0,0.1,0,0.2,0c0,0,0.1,0,0.1,0h4.7v4.7
		c0,0.1,0,0.1,0,0.2c0,0,0,0.1,0,0.2v7c0,0.1,0,0.1,0,0.2c0,0,0,0.1,0,0.1v7c0,1.4,1.1,2.5,2.5,2.5h4.8v4.7c0,1.4,1.1,2.5,2.5,2.5h7
		c0.1,0,0.1,0,0.2,0h7c0.1,0,0.1,0,0.2,0c0,0,0.1,0,0.1,0h7c1.4,0,2.5-1.1,2.5-2.5v-4.7h4.7c1.4,0,2.5-1.1,2.5-2.5v-6.6
		c0.1-0.2,0.1-0.5,0.1-0.7v-4.8h2.5v4.8c0,1.4,1.1,2.5,2.5,2.5h7c0.1,0,0.1,0,0.2,0h4.8v4.8c0,0,0,0.1,0,0.1c0,0,0,0.1,0,0.1v7
		c0,1.4,1.1,2.5,2.5,2.5h7c0.1,0,0.1,0,0.2,0c0,0,0.1,0,0.2,0h7c0.1,0,0.1,0,0.2,0h7c0.1,0,0.1,0,0.2,0c0,0,0.1,0,0.2,0h7
		c0.1,0,0.1,0,0.2,0h7c0.1,0,0.1,0,0.2,0c0,0,0.1,0,0.2,0h7c0.1,0,0.1,0,0.2,0c0,0,0.1,0,0.1,0h4.8v4.8c0,1.4,1.1,2.5,2.5,2.5h7
		c0.1,0,0.1,0,0.2,0h7c0.1,0,0.1,0,0.2,0h4.8v4.7c0,1.4,1.1,2.5,2.5,2.5h7c0.1,0,0.1,0,0.2,0c0,0,0.1,0,0.1,0h7c0.1,0,0.1,0,0.2,0
		c0,0,0.1,0,0.1,0h4.7v4.8c0,1.4,1.1,2.5,2.5,2.5h7c0.1,0,0.1,0,0.2,0h7c0.1,0,0.1,0,0.2,0c0,0,0.1,0,0.1,0h7c1.4,0,2.5-1.1,2.5-2.5
		v-7c0-0.1,0-0.1,0-0.1c0,0,0-0.1,0-0.2v-7c0,0,0-0.1,0-0.1c0,0,0-0.1,0-0.1V188.8z"/>
</g>
<g id="Слой_1">
	<g id="Слой_2_00000180355643086101821570000005505875073011850671_" class="st1">
		
			<image style="display:inline;overflow:visible;enable-background:new    ;" width="800" height="600" xlink:href="C:\Users\diann\Desktop\hdd.png"  transform="matrix(-0.6495 0.375 -0.375 -0.6495 469.6664 192.2173)">
		</image>
	</g>
	<g id="Слой_1_00000081629598069884918950000010068456076776024764_">
		<path class="st2" d="M391.8,210.3h-7v-7h7V210.3z M384.5,210.3h-7v-7h7V210.3z M377.3,210.3h-7v-7h7V210.3z M370.1,203h-7v-7h7
			V203z M391.8,203h-7v-7h7V203z M362.8,203h-7v-7h7V203z M355.5,203h-7v-7h7V203z M391.8,195.8h-7v-7h7V195.8z M348.2,195.8h-7v-7
			h7V195.8z M341,195.8h-7v-7h7V195.8z M232.1,188.5h-7v-7h7V188.5z M239.3,188.5h-7v-7h7V188.5z M224.8,181.3h-7v-7h7V181.3z
			 M224.8,174h-7v-7h7V174z M253.8,181.3h-7v-7h7V181.3z M384.5,188.5h-7v-7h7V188.5z M377.3,188.5h-7v-7h7V188.5z M333.8,195.8h-7
			v-7h7V195.8z M326.5,188.5h-7v-7h7V188.5z M319.2,188.5h-7v-7h7V188.5z M311.9,188.5h-7v-7h7V188.5z M304.7,188.5h-7v-7h7V188.5z
			 M297.4,188.5h-7v-7h7V188.5z M290.2,188.5h-7v-7h7V188.5z M282.9,188.5h-7v-7h7V188.5z M370,181.3h-7v-7h7V181.3z M362.8,174h-7
			v-7h7V174z M282.9,181.3h-7v-7h7V181.3z M355.5,174h-7v-7h7V174z M348.3,166.7h-7v-7h7V166.7z M319.2,174h-7v-7h7V174z M275.6,174
			h-7v-7h7V174z M268.4,174h-7v-7h7V174z M253.9,174h-7v-7h7V174z M224.8,166.7h-7v-7h7V166.7z M217.6,159.5h-7v-7h7V159.5z
			 M210.3,159.5h-7v-7h7V159.5z M166.7,145h-7v-7h7V145z M341,166.7h-7v-7h7V166.7z M304.7,166.7h-7v-7h7V166.7z M297.4,166.7h-7v-7
			h7V166.7z M261.1,166.7h-7v-7h7V166.7z M145,137.7h-7v-7h7V137.7z M333.7,159.5h-7v-7h7V159.5z M304.7,159.5h-7v-7h7V159.5z
			 M297.4,159.5h-7v-7h7V159.5z M239.3,145h-7v-7h7V145z M224.8,159.5h-7v-7h7V159.5z M203,152.2h-7v-7h7V152.2z M195.8,152.2h-7v-7
			h7V152.2z M174,145h-7v-7h7V145z M174,130.4h-7v-7h7V130.4z M166.7,130.4h-7v-7h7V130.4z M181.3,152.2h-7v-7h7V152.2z
			 M181.3,130.4h-7v-7h7V130.4z M181.3,123.2h-7v-7h7V123.2z M181.3,115.9h-7v-7h7V115.9z M181.3,108.7h-7v-7h7V108.7z M181.3,101.4
			h-7v-7h7V101.4z M181.3,94.1h-7v-7h7V94.1z M137.7,137.7h-7v-7h7V137.7z M101.4,130.4h-7v-7h7V130.4z M326.5,152.2h-7v-7h7V152.2z
			 M232.1,145h-7v-7h7V145z M232.1,130.4h-7v-7h7V130.4z M188.5,152.2h-7v-7h7V152.2z M152.2,137.7h-7v-7h7V137.7z M94.1,130.4h-7
			v-7h7V130.4z M115.9,130.4h-7v-7h7V130.4z M123.1,130.4h-7v-7h7V130.4z M130.4,130.4h-7v-7h7V130.4z M319.2,145.2h-7v-7h7V145.2z
			 M253.9,145h-7v-7h7V145z M246.6,145h-7v-7h7V145z M224.8,145h-7v-7h7V145z M224.8,130.4h-7v-7h7V130.4z M159.5,145h-7v-7h7V145z
			 M108.6,130.4h-7v-7h7V130.4z M86.9,130.4h-7v-7h7V130.4z M282.9,137.7h-7v-7h7V137.7z M253.9,137.7h-7v-7h7V137.7z M246.6,137.7
			h-7v-7h7V137.7z M239.3,137.7h-7v-7h7V137.7z M217.6,137.7h-7v-7h7V137.7z M210.3,137.7h-7v-7h7V137.7z M188.5,115.9h-7v-7h7
			V115.9z M188.5,108.7h-7v-7h7V108.7z M188.5,101.4h-7v-7h7V101.4z M79.6,130.4h-7v-7h7V130.4z M311.9,130.4h-7v-7h7V130.4z
			 M304.7,130.4h-7v-7h7V130.4z M275.6,130.4h-7v-7h7V130.4z M246.6,130.4h-7v-7h7V130.4z M239.3,130.4h-7v-7h7V130.4z M217.6,123.2
			h-7v-7h7V123.2z M210.3,123.2h-7v-7h7V123.2z M203,130.4h-7v-7h7V130.4z M174,115.9h-7v-7h7V115.9z M166.7,115.9h-7v-7h7V115.9z
			 M174,108.7h-7v-7h7V108.7z M166.7,108.7h-7v-7h7V108.7z M174,101.4h-7v-7h7V101.4z M174,94.1h-7v-7h7V94.1z M166.7,101.4h-7v-7h7
			V101.4z M166.7,94.1h-7v-7h7V94.1z M166.7,86.9h-7v-7h7V86.9z M159.5,123.2h-7v-7h7V123.2z M159.5,108.7h-7v-7h7V108.7z
			 M159.5,101.4h-7v-7h7V101.4z M159.5,94.1h-7v-7h7V94.1z M72.4,123.2h-7v-7h7V123.2z M297.4,123.2h-7v-7h7V123.2z M290.2,123.2h-7
			v-7h7V123.2z M282.9,123.2h-7v-7h7V123.2z M232.1,123.2h-7v-7h7V123.2z M224.8,123.2h-7v-7h7V123.2z M203,123.2h-7v-7h7V123.2z
			 M210.3,115.9h-7v-7h7V115.9z M203,115.9h-7v-7h7V115.9z M152.2,123.2h-7v-7h7V123.2z M152.2,108.7h-7v-7h7V108.7z M152.2,101.4
			h-7v-7h7V101.4z M151.8,65.2h-7v-7h7V65.2z M151.8,58h-7v-7h7V58z M145,115.9h-7v-7h7V115.9z M145,108.7h-7v-7h7V108.7z
			 M65.1,115.9h-7v-7h7V115.9z M282.9,115.9h-7v-7h7V115.9z M217.6,115.9h-7v-7h7V115.9z M57.8,123.2h-7v-7h7V123.2z M50.6,123.2h-7
			v-7h7V123.2z M35.9,108.8h-7v-7h7V108.8z M275.6,108.7h-7v-7h7V108.7z M268.4,108.7h-7v-7h7V108.7z M261.1,108.7h-7v-7h7V108.7z
			 M253.9,108.7h-7v-7h7V108.7z M210.3,108.7h-7v-7h7V108.7z M203,108.7h-7v-7h7V108.7z M43.3,115.9h-7v-7h7V115.9z M246.6,101.4h-7
			v-7h7V101.4z M239.3,101.4h-7v-7h7V101.4z M43.1,101.7h-7v-7h7V101.7z M232.1,94.1h-7v-7h7V94.1z M224.8,94.1h-7v-7h7V94.1z
			 M188.5,94.1h-7v-7h7V94.1z M144.6,65.2h-7v-7h7V65.2z M144.6,58h-7v-7h7V58z M94.1,94.1h-7v-7h7V94.1z M86.9,94.1h-7v-7h7V94.1z
			 M79.6,94.1h-7v-7h7V94.1z M72.4,94.1h-7v-7h7V94.1z M43.1,94.4h-7v-7h7V94.4z M217.6,86.9h-7v-7h7V86.9z M188.5,86.9h-7v-7h7
			V86.9z M181.3,86.9h-7v-7h7V86.9z M174,86.9h-7v-7h7V86.9z M94.1,86.9h-7v-7h7V86.9z M101.4,86.9h-7v-7h7V86.9z M65.1,86.9h-7v-7
			h7V86.9z M72.4,86.9h-7v-7h7V86.9z M210.3,79.6h-7v-7h7V79.6z M101.4,79.6h-7v-7h7V79.6z M108.6,79.6h-7v-7h7V79.6z M86.9,79.6h-7
			v-7h7V79.6z M79.6,79.6h-7v-7h7V79.6z M65.1,79.6h-7v-7h7V79.6z M57.8,79.6h-7v-7h7V79.6z M36.1,79.6h-7v-7h7V79.6z M43.1,87.1h-7
			v-7h7V87.1z M203,72.4h-7v-7h7V72.4z M195.8,72.4h-7v-7h7V72.4z M94.1,72.4h-7v-7h7V72.4z M108.6,72.4h-7v-7h7V72.4z M115.9,72.4
			h-7v-7h7V72.4z M86.9,72.4h-7v-7h7V72.4z M79.6,72.4h-7v-7h7V72.4z M72.4,72.4h-7v-7h7V72.4z M57.8,72.4h-7v-7h7V72.4z M50.6,72.4
			h-7v-7h7V72.4z M36.1,72.4h-7v-7h7V72.4z M188.5,65.1h-7v-7h7V65.1z M94.1,65.1h-7v-7h7V65.1z M101.4,65.1h-7v-7h7V65.1z
			 M115.9,65.1h-7v-7h7V65.1z M65.1,65.1h-7v-7h7V65.1z M72.4,65.1h-7v-7h7V65.1z M50.6,65.1h-7v-7h7V65.1z M36.1,65.1h-7v-7h7V65.1
			z M181.3,57.8h-7v-7h7V57.8z M94.1,57.8h-7v-7h7V57.8z M101.4,57.8h-7v-7h7V57.8z M115.9,57.8h-7v-7h7V57.8z M94.1,28.8h-7v-7h7
			V28.8z M65.1,57.8h-7v-7h7V57.8z M72.4,57.8h-7v-7h7V57.8z M50.6,57.8h-7v-7h7V57.8z M36.1,57.8h-7v-7h7V57.8z M174,50.6h-7v-7h7
			V50.6z M166.7,50.6h-7v-7h7V50.6z M152.3,36.1h-7v-7h7V36.1z M94.1,50.6h-7v-7h7V50.6z M108.6,50.6h-7v-7h7V50.6z M115.9,50.6h-7
			v-7h7V50.6z M86.9,50.6h-7v-7h7V50.6z M79.6,50.6h-7v-7h7V50.6z M72.4,50.6h-7v-7h7V50.6z M57.8,50.6h-7v-7h7V50.6z M50.6,50.6h-7
			v-7h7V50.6z M36.1,50.6h-7v-7h7V50.6z M159.5,43.3h-7v-7h7V43.3z M101.4,43.3h-7v-7h7V43.3z M108.6,43.3h-7v-7h7V43.3z M86.9,43.3
			h-7v-7h7V43.3z M79.6,43.3h-7v-7h7V43.3z M65.1,43.3h-7v-7h7V43.3z M57.8,43.3h-7v-7h7V43.3z M36.1,43.3h-7v-7h7V43.3z
			 M145.3,28.8h-7v-7h7V28.8z M94.1,36.1h-7v-7h7V36.1z M101.4,36.1h-7v-7h7V36.1z M65.1,36.1h-7v-7h7V36.1z M72.4,36.1h-7v-7h7
			V36.1z M43.3,36.1h-7v-7h7V36.1z M138,21.5h-7v-7h7V21.5z M86.9,28.8h-7v-7h7V28.8z M79.6,28.8h-7v-7h7V28.8z M72.4,28.8h-7v-7h7
			V28.8z M50.6,28.8h-7v-7h7V28.8z M43.3,28.8h-7v-7h7V28.8z M130.7,14.3h-7v-7h7V14.3z M57.8,21.5h-7v-7h7V21.5z M50.6,21.5h-7v-7
			h7V21.5z M94.1,7h-7V0h7V7z M101.4,7h-7V0h7V7z M108.7,7h-7V0h7V7z M116.1,7h-7V0h7V7z M86.9,7h-7V0h7V7z M79.6,7h-7V0h7V7z
			 M65.1,14.3h-7v-7h7V14.3z M72.4,14.3h-7v-7h7V14.3z M123.4,14.3h-7v-7h7V14.3z M246.6,188.5h-7v-7h7V188.5z M319.2,138h-7v-7h7
			V138z"/>
	</g>
</g>
</svg>
