<?xml version="1.0" encoding="utf-8"?>
<!-- Generator: Adobe Illustrator 27.3.1, SVG Export Plug-In . SVG Version: 6.00 Build 0)  -->
<svg version="1.1" id="Слой_1" xmlns="http://www.w3.org/2000/svg" xmlns:xlink="http://www.w3.org/1999/xlink" x="0px" y="0px"
	 viewBox="0 0 907.1 812.9" style="enable-background:new 0 0 907.1 812.9;" xml:space="preserve">
<style type="text/css">
	.st0{fill:#1E0E01;}
</style>
<g id="Слой_1_00000056394027916361345790000008843877135930971792_">
</g>
<path class="st0" d="M0,14.5h7v7H0V14.5z M0,21.8h7v7H0V21.8z M0,29h7v7H0V29z M0,36.3h7v7H0V36.3z M0,43.6h7v7H0V43.6z M0,50.8h7v7
	H0V50.8z M0,58.1h7v7H0V58.1z M0,65.3h7v7H0V65.3z M0,72.6h7v7H0V72.6z M0,79.9h7v7H0V79.9z M0,87.1h7v7H0V87.1z M0,94.4h7v7H0V94.4
	z M0,101.6h7v7H0V101.6z M0,108.9h7v7H0V108.9z M0,116.1h7v7H0V116.1z M0,123.4h7v7H0V123.4z M0,130.7h7v7H0V130.7z M0,137.9h7v7H0
	V137.9z M0,145.2h7v7H0V145.2z M0,152.4h7v7H0V152.4z M0,159.7h7v7H0V159.7z M0,167h7v7H0V167z M0,174.2h7v7H0V174.2z M0,181.5h7v7
	H0V181.5z M7.3,0h7v7h-7V0z M0,7.2h7v7H0V7.2z M7.3,14.5h7v7h-7V14.5z M7.3,21.8h7v7h-7V21.8z M7.3,29h7v7h-7V29z M7.3,36.3h7v7h-7
	V36.3z M7.3,43.6h7v7h-7V43.6z M7.3,50.8h7v7h-7V50.8z M7.3,58.1h7v7h-7V58.1z M7.3,65.3h7v7h-7V65.3z M7.3,72.6h7v7h-7V72.6z
	 M7.3,79.9h7v7h-7V79.9z M7.3,87.1h7v7h-7V87.1z M7.3,94.4h7v7h-7V94.4z M7.3,7.2h7v7h-7V7.2z M14.6,14.5h7v7h-7V14.5z M14.6,21.8h7
	v7h-7V21.8z M14.6,29h7v7h-7V29z M14.6,36.3h7v7h-7V36.3z M14.6,43.6h7v7h-7V43.6z M14.6,50.8h7v7h-7V50.8z M14.6,58.1h7v7h-7V58.1z
	 M14.6,65.3h7v7h-7V65.3z M14.6,72.6h7v7h-7V72.6z M14.6,79.9h7v7h-7V79.9z M14.6,87.1h7v7h-7V87.1z M14.6,94.4h7v7h-7V94.4z
	 M14.6,7.2h7v7h-7V7.2z M21.9,14.5h7v7h-7V14.5z M21.9,21.8h7v7h-7V21.8z M21.9,29h7v7h-7V29z M21.9,36.3h7v7h-7V36.3z M21.9,43.6h7
	v7h-7V43.6z M21.9,50.8h7v7h-7V50.8z M21.9,58.1h7v7h-7V58.1z M21.9,65.3h7v7h-7V65.3z M21.9,72.6h7v7h-7V72.6z M21.9,79.9h7v7h-7
	V79.9z M21.9,87.1h7v7h-7V87.1z M21.9,94.4h7v7h-7V94.4z M21.9,7.2h7v7h-7V7.2z M14.5,0h7v7h-7V0z M0,0h7v7H0V0z M21.8,0h7v7h-7V0z
	 M29.1,0h7v7h-7V0z M892.8,87.1h7v7h-7V87.1z M900.1,94.4h7v7h-7V94.4z M36.3,0h7v7h-7V0z M43.6,0h7v7h-7V0z M50.8,0h7v7h-7V0z
	 M0,188.8h7v7H0V188.8z M0,196h7v7H0V196z M0,203.3h7v7H0V203.3z M0,210.6h7v7H0V210.6z M0,217.8h7v7H0V217.8z M0,225.1h7v7H0V225.1
	z M0,232.3h7v7H0V232.3z M0,239.6h7v7H0V239.6z M0,246.8h7v7H0V246.8z M0,254.1h7v7H0V254.1z M0,261.4h7v7H0V261.4z M0,268.6h7v7H0
	V268.6z M0,275.9h7v7H0V275.9z M0,283.2h7v7H0V283.2z M58.1,0h7v7h-7V0z M65.4,0h7v7h-7V0z M72.6,0h7v7h-7V0z M79.9,0h7v7h-7V0z
	 M87.1,0h7v7h-7V0z M94.4,0h7v7h-7V0z M101.7,0h7v7h-7V0z M108.9,0h7v7h-7V0z M116.2,0h7v7h-7V0z M123.4,0h7v7h-7V0z M130.7,0h7v7
	h-7V0z M138,0h7v7h-7V0z M145.2,0h7v7h-7V0z M152.5,0h7v7h-7V0z M159.7,0h7v7h-7V0z M167,0h7v7h-7V0z M174.3,0h7v7h-7V0z M181.5,0h7
	v7h-7V0z M188.8,0h7v7h-7V0z M196,0h7v7h-7V0z M203.3,0h7v7h-7V0z M210.6,0h7v7h-7V0z M217.8,0h7v7h-7V0z M225.1,0h7v7h-7V0z
	 M232.3,0h7v7h-7V0z M239.6,0h7v7h-7V0z M246.9,0h7v7h-7V0z M254.1,0h7v7h-7V0z M261.4,0h7v7h-7V0z M268.6,0h7v7h-7V0z M275.9,0h7v7
	h-7V0z M283.2,0h7v7h-7V0z M290.4,0h7v7h-7V0z M297.7,0h7v7h-7V0z M304.9,0h7v7h-7V0z M312.2,0h7v7h-7V0z M319.5,0h7v7h-7V0z
	 M326.7,0h7v7h-7V0z M334,0h7v7h-7V0z M341.2,0h7v7h-7V0z M348.5,0h7v7h-7V0z M355.8,0h7v7h-7V0z M363,0h7v7h-7V0z M370.3,0h7v7h-7
	V0z M377.5,0h7v7h-7V0z M384.8,0h7v7h-7V0z M392.1,0h7v7h-7V0z M399.3,0h7v7h-7V0z M406.6,0h7v7h-7V0z M413.8,0h7v7h-7V0z M421.1,0
	h7v7h-7V0z M428.4,0h7v7h-7V0z M435.6,0h7v7h-7V0z M442.9,0h7v7h-7V0z M450.1,0h7v7h-7V0z M457.4,0h7v7h-7V0z M464.7,0h7v7h-7V0z
	 M471.9,0h7v7h-7V0z M479.2,0h7v7h-7V0z M486.4,0h7v7h-7V0z M493.7,0h7v7h-7V0z M501,0h7v7h-7V0z M508.2,0h7v7h-7V0z M515.5,0h7v7
	h-7V0z M522.7,0h7v7h-7V0z M530,0h7v7h-7V0z M537.3,0h7v7h-7V0z M544.5,0h7v7h-7V0z M551.8,0h7v7h-7V0z M559,0h7v7h-7V0z M566.3,0h7
	v7h-7V0z M573.6,0h7v7h-7V0z M580.8,0h7v7h-7V0z M588.1,0h7v7h-7V0z M595.3,0h7v7h-7V0z M602.6,0h7v7h-7V0z M609.9,0h7v7h-7V0z
	 M617.1,0h7v7h-7V0z M624.4,0h7v7h-7V0z M631.6,0h7v7h-7V0z M638.9,0h7v7h-7V0z M646.2,0h7v7h-7V0z M653.4,0h7v7h-7V0z M660.7,0h7v7
	h-7V0z M667.9,0h7v7h-7V0z M675.2,0h7v7h-7V0z M682.5,0h7v7h-7V0z M689.7,0h7v7h-7V0z M697,0h7v7h-7V0z M704.2,0h7v7h-7V0z M711.5,0
	h7v7h-7V0z M718.8,0h7v7h-7V0z M726,0h7v7h-7V0z M733.3,0h7v7h-7V0z M740.5,0h7v7h-7V0z M747.8,0h7v7h-7V0z M755.1,0h7v7h-7V0z
	 M762.3,0h7v7h-7V0z M769.6,0h7v7h-7V0z M776.8,0h7v7h-7V0z M784.1,0h7v7h-7V0z M791.4,0h7v7h-7V0z M798.6,0h7v7h-7V0z M805.9,0h7v7
	h-7V0z M813.2,0h7v7h-7V0z M820.4,0h7v7h-7V0z M827.7,0h7v7h-7V0z M835,0h7v7h-7V0z M842.2,0h7v7h-7V0z M849.2,0h7v7h-7V0z M856.5,0
	h7v7h-7V0z M863.8,0h7v7h-7V0z M871,0h7v7h-7V0z M878.3,0h7v7h-7V0z M885.5,0h7v7h-7V0z M892.8,0h7v7h-7V0z M892.8,7.2h7v7h-7V7.2z
	 M900.1,0h7v7h-7V0z M900.1,7.2h7v7h-7V7.2z M892.8,14.5h7v7h-7V14.5z M892.8,21.8h7v7h-7V21.8z M892.8,29h7v7h-7V29z M892.8,36.3h7
	v7h-7V36.3z M892.8,43.6h7v7h-7V43.6z M892.8,50.8h7v7h-7V50.8z M892.8,58.1h7v7h-7V58.1z M892.8,65.3h7v7h-7V65.3z M892.8,72.6h7v7
	h-7V72.6z M892.8,79.9h7v7h-7V79.9z M892.8,87.1h7v7h-7V87.1z M892.8,94.4h7v7h-7V94.4z M885.5,87.1h7v7h-7V87.1z M885.5,7.2h7v7h-7
	V7.2z M885.5,14.5h7v7h-7V14.5z M885.5,21.8h7v7h-7V21.8z M885.5,29h7v7h-7V29z M885.5,36.3h7v7h-7V36.3z M885.5,43.6h7v7h-7V43.6z
	 M885.5,50.8h7v7h-7V50.8z M885.5,58.1h7v7h-7V58.1z M885.5,65.3h7v7h-7V65.3z M885.5,72.6h7v7h-7V72.6z M885.5,79.9h7v7h-7V79.9z
	 M885.5,87.1h7v7h-7V87.1z M885.5,94.4h7v7h-7V94.4z M878.3,87.1h7v7h-7V87.1z M878.3,7.2h7v7h-7V7.2z M878.3,14.5h7v7h-7V14.5z
	 M878.3,21.8h7v7h-7V21.8z M878.3,29h7v7h-7V29z M878.3,36.3h7v7h-7V36.3z M878.3,43.6h7v7h-7V43.6z M878.3,50.8h7v7h-7V50.8z
	 M878.3,58.1h7v7h-7V58.1z M878.3,65.3h7v7h-7V65.3z M878.3,72.6h7v7h-7V72.6z M878.3,79.9h7v7h-7V79.9z M878.3,87.1h7v7h-7V87.1z
	 M878.3,94.4h7v7h-7V94.4z M892.8,101.6h7v7h-7V101.6z M892.8,108.9h7v7h-7V108.9z M892.8,116.1h7v7h-7V116.1z M892.8,123.4h7v7h-7
	V123.4z M892.8,130.7h7v7h-7V130.7z M892.8,137.9h7v7h-7V137.9z M892.8,145.2h7v7h-7V145.2z M892.8,152.4h7v7h-7V152.4z
	 M892.8,159.7h7v7h-7V159.7z M892.8,167h7v7h-7V167z M892.8,174.2h7v7h-7V174.2z M892.8,181.5h7v7h-7V181.5z M900.1,14.5h7v7h-7
	V14.5z M900.1,21.8h7v7h-7V21.8z M900.1,29h7v7h-7V29z M900.1,36.3h7v7h-7V36.3z M900.1,43.6h7v7h-7V43.6z M900.1,50.8h7v7h-7V50.8z
	 M900.1,58.1h7v7h-7V58.1z M900.1,65.3h7v7h-7V65.3z M900.1,72.6h7v7h-7V72.6z M900.1,79.9h7v7h-7V79.9z M900.1,87.1h7v7h-7V87.1z
	 M900.1,101.6h7v7h-7V101.6z M900.1,108.9h7v7h-7V108.9z M900.1,116.1h7v7h-7V116.1z M900.1,123.4h7v7h-7V123.4z M900.1,130.7h7v7
	h-7V130.7z M900.1,137.9h7v7h-7V137.9z M900.1,145.2h7v7h-7V145.2z M900.1,152.4h7v7h-7V152.4z M900.1,159.7h7v7h-7V159.7z
	 M900.1,167h7v7h-7V167z M900.1,174.2h7v7h-7V174.2z M900.1,181.5h7v7h-7V181.5z M892.8,188.8h7v7h-7V188.8z M892.8,196h7v7h-7V196z
	 M892.8,203.3h7v7h-7V203.3z M892.8,210.6h7v7h-7V210.6z M892.8,217.8h7v7h-7V217.8z M892.8,225.1h7v7h-7V225.1z M892.8,232.3h7v7
	h-7V232.3z M892.8,239.6h7v7h-7V239.6z M892.8,246.8h7v7h-7V246.8z M892.8,254.1h7v7h-7V254.1z M900.1,188.8h7v7h-7V188.8z
	 M900.1,196h7v7h-7V196z M900.1,203.3h7v7h-7V203.3z M900.1,210.6h7v7h-7V210.6z M900.1,217.8h7v7h-7V217.8z M900.1,225.1h7v7h-7
	V225.1z M900.1,232.3h7v7h-7V232.3z M900.1,239.6h7v7h-7V239.6z M900.1,246.8h7v7h-7V246.8z M900.1,254.1h7v7h-7V254.1z
	 M892.8,261.4h7v7h-7V261.4z M892.8,268.6h7v7h-7V268.6z M892.8,275.9h7v7h-7V275.9z M892.8,283.2h7v7h-7V283.2z M900.1,261.4h7v7
	h-7V261.4z M900.1,268.6h7v7h-7V268.6z M900.1,275.9h7v7h-7V275.9z M900.1,283.2h7v7h-7V283.2z M892.8,290.5h7v7h-7V290.5z
	 M892.8,297.8h7v7h-7V297.8z M892.8,305h7v7h-7V305z M892.8,312.3h7v7h-7V312.3z M892.8,319.6h7v7h-7V319.6z M892.8,326.8h7v7h-7
	V326.8z M892.8,334.1h7v7h-7V334.1z M892.8,341.3h7v7h-7V341.3z M892.8,348.6h7v7h-7V348.6z M892.8,355.9h7v7h-7V355.9z
	 M892.8,363.1h7v7h-7V363.1z M892.8,370.4h7v7h-7V370.4z M900.1,290.5h7v7h-7V290.5z M900.1,297.8h7v7h-7V297.8z M900.1,305h7v7h-7
	V305z M900.1,312.3h7v7h-7V312.3z M900.1,319.6h7v7h-7V319.6z M900.1,326.8h7v7h-7V326.8z M900.1,334.1h7v7h-7V334.1z M900.1,341.3
	h7v7h-7V341.3z M900.1,348.6h7v7h-7V348.6z M900.1,355.9h7v7h-7V355.9z M900.1,363.1h7v7h-7V363.1z M900.1,370.4h7v7h-7V370.4z
	 M892.8,377.7h7v7h-7V377.7z M892.8,384.9h7v7h-7V384.9z M892.8,392.2h7v7h-7V392.2z M892.8,399.5h7v7h-7V399.5z M892.8,406.7h7v7
	h-7V406.7z M892.8,414h7v7h-7V414z M892.8,421.2h7v7h-7V421.2z M892.8,428.5h7v7h-7V428.5z M892.8,435.7h7v7h-7V435.7z M892.8,443h7
	v7h-7V443z M900.1,377.7h7v7h-7V377.7z M900.1,384.9h7v7h-7V384.9z M900.1,392.2h7v7h-7V392.2z M900.1,399.5h7v7h-7V399.5z
	 M900.1,406.7h7v7h-7V406.7z M900.1,414h7v7h-7V414z M900.1,421.2h7v7h-7V421.2z M900.1,428.5h7v7h-7V428.5z M900.1,435.7h7v7h-7
	V435.7z M900.1,443h7v7h-7V443z M892.8,450.3h7v7h-7V450.3z M892.8,457.5h7v7h-7V457.5z M892.8,464.8h7v7h-7V464.8z M892.8,472.1h7
	v7h-7V472.1z M900.1,450.3h7v7h-7V450.3z M900.1,457.5h7v7h-7V457.5z M900.1,464.8h7v7h-7V464.8z M900.1,472.1h7v7h-7V472.1z
	 M0,522.7h7v7H0V522.7z M0,529.9h7v7H0V529.9z M0,537.2h7v7H0V537.2z M0,544.5h7v7H0V544.5z M0,551.7h7v7H0V551.7z M0,559h7v7H0V559
	z M0,566.2h7v7H0V566.2z M0,573.5h7v7H0V573.5z M0,580.8h7v7H0V580.8z M0,588h7v7H0V588z M0,595.3h7v7H0V595.3z M0,602.6h7v7H0
	V602.6z M0,609.8h7v7H0V609.8z M0,617.1h7v7H0V617.1z M0,624.4h7v7H0V624.4z M0,631.6h7v7H0V631.6z M0,638.9h7v7H0V638.9z M0,646.1
	h7v7H0V646.1z M0,653.4h7v7H0V653.4z M0,660.6h7v7H0V660.6z M0,667.9h7v7H0V667.9z M0,675.2h7v7H0V675.2z M0,682.4h7v7H0V682.4z
	 M0,689.7h7v7H0V689.7z M0,697h7v7H0V697z M0,341.2h7v7H0V341.2z M0,348.4h7v7H0V348.4z M0,355.7h7v7H0V355.7z M0,363h7v7H0V363z
	 M0,370.2h7v7H0V370.2z M0,377.5h7v7H0V377.5z M0,384.7h7v7H0V384.7z M0,290.4h7v7H0V290.4z M0,297.6h7v7H0V297.6z M0,304.9h7v7H0
	V304.9z M0,312.2h7v7H0V312.2z M0,319.4h7v7H0V319.4z M0,326.7h7v7H0V326.7z M0,333.9h7v7H0V333.9z M0,392h7v7H0V392z M0,399.3h7v7
	H0V399.3z M0,406.5h7v7H0V406.5z M0,413.8h7v7H0V413.8z M0,421.1h7v7H0V421.1z M0,428.3h7v7H0V428.3z M0,435.6h7v7H0V435.6z
	 M0,442.9h7v7H0V442.9z M0,450.1h7v7H0V450.1z M0,457.4h7v7H0V457.4z M0,464.6h7v7H0V464.6z M0,471.9h7v7H0V471.9z M0,479.1h7v7H0
	V479.1z M0,486.4h7v7H0V486.4z M0,493.7h7v7H0V493.7z M0,500.9h7v7H0V500.9z M0,508.2h7v7H0V508.2z M0,515.5h7v7H0V515.5z M0,704.2
	h7v7H0V704.2z M0,711.5h7v7H0V711.5z M0,718.7h7v7H0V718.7z M0,726h7v7H0V726z M892.8,529.9h7v7h-7V529.9z M892.8,544.5h7v7h-7
	V544.5z M892.8,559h7v7h-7V559z M892.8,573.5h7v7h-7V573.5z M892.8,588h7v7h-7V588z M900.1,522.7h7v7h-7V522.7z M900.1,529.9h7v7h-7
	V529.9z M900.1,537.2h7v7h-7V537.2z M900.1,544.5h7v7h-7V544.5z M892.8,493.6h7v7h-7V493.6z M892.8,500.8h7v7h-7V500.8z
	 M892.8,515.4h7v7h-7V515.4z M900.1,493.6h7v7h-7V493.6z M900.1,500.8h7v7h-7V500.8z M892.8,479.3h7v7h-7V479.3z M892.8,486.5h7v7
	h-7V486.5z M900.1,479.3h7v7h-7V479.3z M900.1,486.5h7v7h-7V486.5z M900.1,508.1h7v7h-7V508.1z M900.1,515.4h7v7h-7V515.4z
	 M900.1,551.7h7v7h-7V551.7z M900.1,559h7v7h-7V559z M900.1,566.2h7v7h-7V566.2z M900.1,573.5h7v7h-7V573.5z M900.1,580.8h7v7h-7
	V580.8z M900.1,588h7v7h-7V588z M900.1,595.3h7v7h-7V595.3z M892.8,602.6h7v7h-7V602.6z M892.8,617.1h7v7h-7V617.1z M892.8,631.6h7
	v7h-7V631.6z M892.8,646.1h7v7h-7V646.1z M892.8,660.6h7v7h-7V660.6z M900.1,602.6h7v7h-7V602.6z M900.1,609.8h7v7h-7V609.8z
	 M900.1,617.1h7v7h-7V617.1z M900.1,624.4h7v7h-7V624.4z M900.1,631.6h7v7h-7V631.6z M900.1,638.9h7v7h-7V638.9z M900.1,646.1h7v7
	h-7V646.1z M900.1,653.4h7v7h-7V653.4z M900.1,660.6h7v7h-7V660.6z M900.1,667.9h7v7h-7V667.9z M892.8,675.2h7v7h-7V675.2z
	 M892.8,689.7h7v7h-7V689.7z M892.8,704.2h7v7h-7V704.2z M892.8,718.7h7v7h-7V718.7z M900.1,675.2h7v7h-7V675.2z M900.1,682.4h7v7
	h-7V682.4z M900.1,689.7h7v7h-7V689.7z M900.1,697h7v7h-7V697z M900.1,704.2h7v7h-7V704.2z M900.1,711.5h7v7h-7V711.5z M900.1,718.7
	h7v7h-7V718.7z M900.1,726h7v7h-7V726z M0,733.3h7v7H0V733.3z M0,740.6h7v7H0V740.6z M0,747.8h7v7H0V747.8z M0,755.1h7v7H0V755.1z
	 M0,762.4h7v7H0V762.4z M0,769.6h7v7H0V769.6z M0,776.9h7v7H0V776.9z M0,784.1h7v7H0V784.1z M0,791.4h7v7H0V791.4z M0,798.7h7v7H0
	V798.7z M0,806h7v7H0V806z M7.3,101.6h7v7h-7V101.6z M7.3,108.9h7v7h-7V108.9z M7.3,116.1h7v7h-7V116.1z M7.3,123.4h7v7h-7V123.4z
	 M7.3,130.7h7v7h-7V130.7z M7.3,137.9h7v7h-7V137.9z M7.3,145.2h7v7h-7V145.2z M7.3,152.4h7v7h-7V152.4z M7.3,159.7h7v7h-7V159.7z
	 M7.3,167h7v7h-7V167z M7.3,174.2h7v7h-7V174.2z M7.3,181.5h7v7h-7V181.5z M7.3,188.8h7v7h-7V188.8z M7.3,196h7v7h-7V196z
	 M7.3,203.3h7v7h-7V203.3z M7.3,210.6h7v7h-7V210.6z M7.3,217.8h7v7h-7V217.8z M7.3,225.1h7v7h-7V225.1z M7.3,232.3h7v7h-7V232.3z
	 M7.3,239.6h7v7h-7V239.6z M7.3,246.8h7v7h-7V246.8z M7.3,254.1h7v7h-7V254.1z M7.3,261.4h7v7h-7V261.4z M7.3,268.6h7v7h-7V268.6z
	 M7.3,275.9h7v7h-7V275.9z M7.3,283.2h7v7h-7V283.2z M7.3,529.9h7v7h-7V529.9z M7.3,544.5h7v7h-7V544.5z M7.3,559h7v7h-7V559z
	 M7.3,573.5h7v7h-7V573.5z M7.3,588h7v7h-7V588z M7.3,602.6h7v7h-7V602.6z M7.3,617.1h7v7h-7V617.1z M7.3,631.6h7v7h-7V631.6z
	 M7.3,646.1h7v7h-7V646.1z M7.3,660.6h7v7h-7V660.6z M7.3,675.2h7v7h-7V675.2z M7.3,689.7h7v7h-7V689.7z M7.3,341.2h7v7h-7V341.2z
	 M7.3,348.4h7v7h-7V348.4z M7.3,355.7h7v7h-7V355.7z M7.3,363h7v7h-7V363z M7.3,370.2h7v7h-7V370.2z M7.3,377.5h7v7h-7V377.5z
	 M7.3,384.7h7v7h-7V384.7z M7.3,290.4h7v7h-7V290.4z M7.3,297.6h7v7h-7V297.6z M7.3,304.9h7v7h-7V304.9z M7.3,312.2h7v7h-7V312.2z
	 M7.3,319.4h7v7h-7V319.4z M7.3,326.7h7v7h-7V326.7z M7.3,333.9h7v7h-7V333.9z M7.3,392h7v7h-7V392z M7.3,399.3h7v7h-7V399.3z
	 M7.3,406.5h7v7h-7V406.5z M7.3,413.8h7v7h-7V413.8z M7.3,421.1h7v7h-7V421.1z M7.3,428.3h7v7h-7V428.3z M7.3,435.6h7v7h-7V435.6z
	 M7.3,442.9h7v7h-7V442.9z M7.3,450.1h7v7h-7V450.1z M7.3,457.4h7v7h-7V457.4z M7.3,464.6h7v7h-7V464.6z M7.3,471.9h7v7h-7V471.9z
	 M7.3,479.1h7v7h-7V479.1z M7.3,486.4h7v7h-7V486.4z M7.3,493.7h7v7h-7V493.7z M7.3,500.9h7v7h-7V500.9z M7.3,515.5h7v7h-7V515.5z
	 M7.3,704.2h7v7h-7V704.2z M7.3,718.7h7v7h-7V718.7z M7.3,733.3h7v7h-7V733.3z M7.3,747.8h7v7h-7V747.8z M7.3,762.4h7v7h-7V762.4z
	 M7.3,776.9h7v7h-7V776.9z M7.3,784.1h7v7h-7V784.1z M7.3,791.4h7v7h-7V791.4z M14.6,101.6h7v7h-7V101.6z M14.6,108.9h7v7h-7V108.9z
	 M14.6,116.1h7v7h-7V116.1z M14.6,123.4h7v7h-7V123.4z M14.6,130.7h7v7h-7V130.7z M14.6,137.9h7v7h-7V137.9z M14.6,145.2h7v7h-7
	V145.2z M14.6,152.4h7v7h-7V152.4z M14.6,159.7h7v7h-7V159.7z M14.6,167h7v7h-7V167z M14.6,174.2h7v7h-7V174.2z M14.6,181.5h7v7h-7
	V181.5z M14.6,188.8h7v7h-7V188.8z M14.6,196h7v7h-7V196z M14.6,203.3h7v7h-7V203.3z M14.6,210.6h7v7h-7V210.6z M14.6,217.8h7v7h-7
	V217.8z M14.6,225.1h7v7h-7V225.1z M14.6,232.3h7v7h-7V232.3z M14.6,239.6h7v7h-7V239.6z M14.6,246.8h7v7h-7V246.8z M14.6,254.1h7v7
	h-7V254.1z M14.6,261.4h7v7h-7V261.4z M14.6,268.6h7v7h-7V268.6z M14.6,275.9h7v7h-7V275.9z M14.6,283.2h7v7h-7V283.2z M14.6,522.7
	h7v7h-7V522.7z M14.6,537.2h7v7h-7V537.2z M14.6,551.7h7v7h-7V551.7z M14.6,566.2h7v7h-7V566.2z M14.6,580.8h7v7h-7V580.8z
	 M14.6,595.3h7v7h-7V595.3z M14.6,609.8h7v7h-7V609.8z M14.6,624.4h7v7h-7V624.4z M14.6,638.9h7v7h-7V638.9z M14.6,653.4h7v7h-7
	V653.4z M14.6,667.9h7v7h-7V667.9z M14.6,682.4h7v7h-7V682.4z M14.6,697h7v7h-7V697z M14.6,341.2h7v7h-7V341.2z M14.6,348.4h7v7h-7
	V348.4z M14.6,355.7h7v7h-7V355.7z M14.6,363h7v7h-7V363z M14.6,370.2h7v7h-7V370.2z M14.6,377.5h7v7h-7V377.5z M14.6,384.7h7v7h-7
	V384.7z M14.6,290.4h7v7h-7V290.4z M14.6,297.6h7v7h-7V297.6z M14.6,304.9h7v7h-7V304.9z M14.6,312.2h7v7h-7V312.2z M14.6,319.4h7v7
	h-7V319.4z M14.6,326.7h7v7h-7V326.7z M14.6,333.9h7v7h-7V333.9z M14.6,392h7v7h-7V392z M14.6,399.3h7v7h-7V399.3z M14.6,406.5h7v7
	h-7V406.5z M14.6,413.8h7v7h-7V413.8z M14.6,421.1h7v7h-7V421.1z M14.6,428.3h7v7h-7V428.3z M14.6,435.6h7v7h-7V435.6z M14.6,442.9
	h7v7h-7V442.9z M14.6,450.1h7v7h-7V450.1z M14.6,457.4h7v7h-7V457.4z M14.6,464.6h7v7h-7V464.6z M14.6,471.9h7v7h-7V471.9z
	 M14.6,479.1h7v7h-7V479.1z M14.6,486.4h7v7h-7V486.4z M14.6,493.7h7v7h-7V493.7z M14.6,508.2h7v7h-7V508.2z M14.6,711.5h7v7h-7
	V711.5z M14.6,726h7v7h-7V726z M14.6,740.6h7v7h-7V740.6z M14.6,755.1h7v7h-7V755.1z M14.6,769.6h7v7h-7V769.6z M14.6,776.9h7v7h-7
	V776.9z M21.9,101.6h7v7h-7V101.6z M21.9,108.9h7v7h-7V108.9z M21.9,116.1h7v7h-7V116.1z M21.9,123.4h7v7h-7V123.4z M43.7,21.8h7v7
	h-7V21.8z M43.7,29h7v7h-7V29z M43.7,36.3h7v7h-7V36.3z M43.7,43.6h7v7h-7V43.6z M43.7,50.8h7v7h-7V50.8z M43.7,58.1h7v7h-7V58.1z
	 M43.7,65.3h7v7h-7V65.3z M43.7,72.6h7v7h-7V72.6z M43.7,79.9h7v7h-7V79.9z M43.7,87.1h7v7h-7V87.1z M43.7,94.4h7v7h-7V94.4z
	 M43.7,101.6h7v7h-7V101.6z M43.7,108.9h7v7h-7V108.9z M43.7,116.1h7v7h-7V116.1z M50.9,14.5h7v7h-7V14.5z M50.9,21.8h7v7h-7V21.8z
	 M50.9,29h7v7h-7V29z M50.9,36.3h7v7h-7V36.3z M50.9,43.6h7v7h-7V43.6z M50.9,50.8h7v7h-7V50.8z M50.9,58.1h7v7h-7V58.1z M50.9,65.3
	h7v7h-7V65.3z M50.9,72.6h7v7h-7V72.6z M50.9,79.9h7v7h-7V79.9z M50.9,87.1h7v7h-7V87.1z M50.9,94.4h7v7h-7V94.4z M50.9,101.6h7v7
	h-7V101.6z M50.9,108.9h7v7h-7V108.9z M50.9,116.1h7v7h-7V116.1z M50.9,123.4h7v7h-7V123.4z M58.2,14.5h7v7h-7V14.5z M58.2,21.8h7v7
	h-7V21.8z M58.2,116.1h7v7h-7V116.1z M58.2,123.4h7v7h-7V123.4z M65.5,14.5h7v7h-7V14.5z M65.5,21.8h7v7h-7V21.8z M65.5,116.1h7v7
	h-7V116.1z M65.5,123.4h7v7h-7V123.4z M72.7,14.5h7v7h-7V14.5z M72.7,21.8h7v7h-7V21.8z M72.7,29h7v7h-7V29z M72.7,36.3h7v7h-7V36.3
	z M72.7,43.6h7v7h-7V43.6z M72.7,50.8h7v7h-7V50.8z M72.7,58.1h7v7h-7V58.1z M72.7,65.3h7v7h-7V65.3z M72.7,72.6h7v7h-7V72.6z
	 M72.7,79.9h7v7h-7V79.9z M72.7,87.1h7v7h-7V87.1z M72.7,94.4h7v7h-7V94.4z M72.7,101.6h7v7h-7V101.6z M72.7,108.9h7v7h-7V108.9z
	 M72.7,116.1h7v7h-7V116.1z M72.7,123.4h7v7h-7V123.4z M80,21.8h7v7h-7V21.8z M80,29h7v7h-7V29z M80,36.3h7v7h-7V36.3z M80,43.6h7v7
	h-7V43.6z M80,50.8h7v7h-7V50.8z M80,58.1h7v7h-7V58.1z M80,65.3h7v7h-7V65.3z M80,72.6h7v7h-7V72.6z M80,79.9h7v7h-7V79.9z
	 M80,87.1h7v7h-7V87.1z M80,94.4h7v7h-7V94.4z M80,101.6h7v7h-7V101.6z M80,108.9h7v7h-7V108.9z M80,116.1h7v7h-7V116.1z M94.5,36.3
	h7v7h-7V36.3z M94.5,43.6h7v7h-7V43.6z M94.5,50.8h7v7h-7V50.8z M94.5,58.1h7v7h-7V58.1z M94.5,65.3h7v7h-7V65.3z M94.5,72.6h7v7h-7
	V72.6z M94.5,79.9h7v7h-7V79.9z M94.5,87.1h7v7h-7V87.1z M94.5,94.4h7v7h-7V94.4z M94.5,101.6h7v7h-7V101.6z M94.5,108.9h7v7h-7
	V108.9z M94.5,116.1h7v7h-7V116.1z M94.5,123.4h7v7h-7V123.4z M101.8,36.3h7v7h-7V36.3z M101.8,43.6h7v7h-7V43.6z M101.8,50.8h7v7
	h-7V50.8z M101.8,58.1h7v7h-7V58.1z M101.8,65.3h7v7h-7V65.3z M101.8,72.6h7v7h-7V72.6z M101.8,79.9h7v7h-7V79.9z M101.8,87.1h7v7
	h-7V87.1z M101.8,94.4h7v7h-7V94.4z M101.8,101.6h7v7h-7V101.6z M101.8,108.9h7v7h-7V108.9z M101.8,116.1h7v7h-7V116.1z
	 M101.8,123.4h7v7h-7V123.4z M109,50.8h7v7h-7V50.8z M109,58.1h7v7h-7V58.1z M109,65.3h7v7h-7V65.3z M109,72.6h7v7h-7V72.6z
	 M109,79.9h7v7h-7V79.9z M116.3,72.6h7v7h-7V72.6z M116.3,79.9h7v7h-7V79.9z M116.3,87.1h7v7h-7V87.1z M116.3,94.4h7v7h-7V94.4z
	 M123.5,36.3h7v7h-7V36.3z M123.5,43.6h7v7h-7V43.6z M123.5,50.8h7v7h-7V50.8z M123.5,58.1h7v7h-7V58.1z M123.5,65.3h7v7h-7V65.3z
	 M123.5,72.6h7v7h-7V72.6z M123.5,79.9h7v7h-7V79.9z M123.5,87.1h7v7h-7V87.1z M123.5,94.4h7v7h-7V94.4z M123.5,101.6h7v7h-7V101.6z
	 M123.5,108.9h7v7h-7V108.9z M123.5,116.1h7v7h-7V116.1z M123.5,123.4h7v7h-7V123.4z M130.8,36.3h7v7h-7V36.3z M130.8,43.6h7v7h-7
	V43.6z M130.8,50.8h7v7h-7V50.8z M130.8,58.1h7v7h-7V58.1z M130.8,65.3h7v7h-7V65.3z M130.8,72.6h7v7h-7V72.6z M130.8,79.9h7v7h-7
	V79.9z M130.8,87.1h7v7h-7V87.1z M130.8,94.4h7v7h-7V94.4z M130.8,101.6h7v7h-7V101.6z M130.8,108.9h7v7h-7V108.9z M130.8,116.1h7v7
	h-7V116.1z M130.8,123.4h7v7h-7V123.4z M145.3,43.6h7v7h-7V43.6z M145.3,50.8h7v7h-7V50.8z M145.3,58.1h7v7h-7V58.1z M145.3,65.3h7
	v7h-7V65.3z M145.3,72.6h7v7h-7V72.6z M145.3,79.9h7v7h-7V79.9z M145.3,87.1h7v7h-7V87.1z M145.3,94.4h7v7h-7V94.4z M145.3,101.6h7
	v7h-7V101.6z M145.3,108.9h7v7h-7V108.9z M145.3,116.1h7v7h-7V116.1z M152.6,36.3h7v7h-7V36.3z M152.6,43.6h7v7h-7V43.6z
	 M152.6,50.8h7v7h-7V50.8z M152.6,58.1h7v7h-7V58.1z M152.6,65.3h7v7h-7V65.3z M152.6,72.6h7v7h-7V72.6z M152.6,79.9h7v7h-7V79.9z
	 M152.6,87.1h7v7h-7V87.1z M152.6,94.4h7v7h-7V94.4z M152.6,101.6h7v7h-7V101.6z M152.6,108.9h7v7h-7V108.9z M152.6,116.1h7v7h-7
	V116.1z M152.6,123.4h7v7h-7V123.4z M159.8,36.3h7v7h-7V36.3z M159.8,43.6h7v7h-7V43.6z M159.8,72.6h7v7h-7V72.6z M159.8,116.1h7v7
	h-7V116.1z M159.8,123.4h7v7h-7V123.4z M167.1,36.3h7v7h-7V36.3z M167.1,43.6h7v7h-7V43.6z M167.1,72.6h7v7h-7V72.6z M167.1,116.1h7
	v7h-7V116.1z M167.1,123.4h7v7h-7V123.4z M174.4,36.3h7v7h-7V36.3z M174.4,43.6h7v7h-7V43.6z M174.4,50.8h7v7h-7V50.8z M174.4,58.1
	h7v7h-7V58.1z M174.4,65.3h7v7h-7V65.3z M174.4,72.6h7v7h-7V72.6z M174.4,108.9h7v7h-7V108.9z M174.4,116.1h7v7h-7V116.1z
	 M174.4,123.4h7v7h-7V123.4z M181.6,43.6h7v7h-7V43.6z M181.6,50.8h7v7h-7V50.8z M181.6,58.1h7v7h-7V58.1z M181.6,65.3h7v7h-7V65.3z
	 M181.6,72.6h7v7h-7V72.6z M159.8,79.9h7v7h-7V79.9z M167.1,79.9h7v7h-7V79.9z M174.4,79.9h7v7h-7V79.9z M181.6,108.9h7v7h-7V108.9z
	 M181.6,116.1h7v7h-7V116.1z M196.1,36.3h7v7h-7V36.3z M196.1,43.6h7v7h-7V43.6z M196.1,50.8h7v7h-7V50.8z M196.1,58.1h7v7h-7V58.1z
	 M196.1,65.3h7v7h-7V65.3z M196.1,72.6h7v7h-7V72.6z M196.1,79.9h7v7h-7V79.9z M196.1,87.1h7v7h-7V87.1z M196.1,94.4h7v7h-7V94.4z
	 M196.1,101.6h7v7h-7V101.6z M196.1,108.9h7v7h-7V108.9z M196.1,116.1h7v7h-7V116.1z M196.1,123.4h7v7h-7V123.4z M203.4,36.3h7v7h-7
	V36.3z M203.4,43.6h7v7h-7V43.6z M203.4,50.8h7v7h-7V50.8z M203.4,58.1h7v7h-7V58.1z M203.4,65.3h7v7h-7V65.3z M203.4,72.6h7v7h-7
	V72.6z M203.4,79.9h7v7h-7V79.9z M203.4,87.1h7v7h-7V87.1z M203.4,94.4h7v7h-7V94.4z M203.4,101.6h7v7h-7V101.6z M203.4,108.9h7v7
	h-7V108.9z M203.4,116.1h7v7h-7V116.1z M203.4,123.4h7v7h-7V123.4z M210.7,36.3h7v7h-7V36.3z M210.7,43.6h7v7h-7V43.6z M210.7,65.3
	h7v7h-7V65.3z M210.7,72.6h7v7h-7V72.6z M210.7,79.9h7v7h-7V79.9z M210.7,116.1h7v7h-7V116.1z M210.7,123.4h7v7h-7V123.4z
	 M217.9,36.3h7v7h-7V36.3z M217.9,43.6h7v7h-7V43.6z M217.9,50.8h7v7h-7V50.8z M217.9,58.1h7v7h-7V58.1z M217.9,65.3h7v7h-7V65.3z
	 M217.9,72.6h7v7h-7V72.6z M217.9,79.9h7v7h-7V79.9z M217.9,87.1h7v7h-7V87.1z M217.9,94.4h7v7h-7V94.4z M217.9,101.6h7v7h-7V101.6z
	 M217.9,108.9h7v7h-7V108.9z M217.9,116.1h7v7h-7V116.1z M217.9,123.4h7v7h-7V123.4z M225.2,43.6h7v7h-7V43.6z M225.2,50.8h7v7h-7
	V50.8z M225.2,58.1h7v7h-7V58.1z M225.2,65.3h7v7h-7V65.3z M225.2,79.9h7v7h-7V79.9z M225.2,87.1h7v7h-7V87.1z M225.2,94.4h7v7h-7
	V94.4z M225.2,101.6h7v7h-7V101.6z M225.2,108.9h7v7h-7V108.9z M225.2,116.1h7v7h-7V116.1z M239.7,36.3h7v7h-7V36.3z M239.7,43.6h7
	v7h-7V43.6z M239.7,58.1h7v7h-7V58.1z M239.7,65.3h7v7h-7V65.3z M239.7,72.6h7v7h-7V72.6z M239.7,79.9h7v7h-7V79.9z M239.7,87.1h7v7
	h-7V87.1z M239.7,94.4h7v7h-7V94.4z M239.7,101.6h7v7h-7V101.6z M239.7,108.9h7v7h-7V108.9z M239.7,116.1h7v7h-7V116.1z
	 M239.7,123.4h7v7h-7V123.4z M247,36.3h7v7h-7V36.3z M247,43.6h7v7h-7V43.6z M247,58.1h7v7h-7V58.1z M247,65.3h7v7h-7V65.3z
	 M247,72.6h7v7h-7V72.6z M247,79.9h7v7h-7V79.9z M247,87.1h7v7h-7V87.1z M247,94.4h7v7h-7V94.4z M247,101.6h7v7h-7V101.6z
	 M247,108.9h7v7h-7V108.9z M247,116.1h7v7h-7V116.1z M247,123.4h7v7h-7V123.4z M261.5,50.8h7v7h-7V50.8z M268.7,43.6h7v7h-7V43.6z
	 M268.7,50.8h7v7h-7V50.8z M268.7,58.1h7v7h-7V58.1z M268.7,65.3h7v7h-7V65.3z M268.7,72.6h7v7h-7V72.6z M268.7,79.9h7v7h-7V79.9z
	 M268.7,87.1h7v7h-7V87.1z M268.7,94.4h7v7h-7V94.4z M268.7,101.6h7v7h-7V101.6z M268.7,108.9h7v7h-7V108.9z M268.7,116.1h7v7h-7
	V116.1z M276,36.3h7v7h-7V36.3z M276,43.6h7v7h-7V43.6z M276,50.8h7v7h-7V50.8z M276,58.1h7v7h-7V58.1z M276,65.3h7v7h-7V65.3z
	 M276,72.6h7v7h-7V72.6z M276,79.9h7v7h-7V79.9z M276,87.1h7v7h-7V87.1z M276,94.4h7v7h-7V94.4z M276,101.6h7v7h-7V101.6z
	 M276,108.9h7v7h-7V108.9z M276,116.1h7v7h-7V116.1z M276,123.4h7v7h-7V123.4z M283.3,50.8h7v7h-7V50.8z M283.3,116.1h7v7h-7V116.1z
	 M283.3,123.4h7v7h-7V123.4z M21.9,130.7h7v7h-7V130.7z M21.9,137.9h7v7h-7V137.9z M21.9,145.2h7v7h-7V145.2z M21.9,152.4h7v7h-7
	V152.4z M21.9,159.7h7v7h-7V159.7z M21.9,167h7v7h-7V167z M21.9,174.2h7v7h-7V174.2z M21.9,181.5h7v7h-7V181.5z M21.9,188.8h7v7h-7
	V188.8z M21.9,196h7v7h-7V196z M21.9,203.3h7v7h-7V203.3z M21.9,210.6h7v7h-7V210.6z M21.9,217.8h7v7h-7V217.8z M21.9,225.1h7v7h-7
	V225.1z M21.9,232.3h7v7h-7V232.3z M21.9,239.6h7v7h-7V239.6z M21.9,246.8h7v7h-7V246.8z M21.9,254.1h7v7h-7V254.1z M21.9,261.4h7v7
	h-7V261.4z M21.9,268.6h7v7h-7V268.6z M21.9,275.9h7v7h-7V275.9z M21.9,283.2h7v7h-7V283.2z M21.9,522.7h7v7h-7V522.7z M21.9,529.9
	h7v7h-7V529.9z M21.9,537.2h7v7h-7V537.2z M21.9,544.5h7v7h-7V544.5z M21.9,551.7h7v7h-7V551.7z M21.9,559h7v7h-7V559z M21.9,566.2
	h7v7h-7V566.2z M21.9,573.5h7v7h-7V573.5z M21.9,580.8h7v7h-7V580.8z M21.9,588h7v7h-7V588z M21.9,595.3h7v7h-7V595.3z M21.9,602.6
	h7v7h-7V602.6z M21.9,609.8h7v7h-7V609.8z M21.9,617.1h7v7h-7V617.1z M21.9,624.4h7v7h-7V624.4z M21.9,631.6h7v7h-7V631.6z
	 M21.9,638.9h7v7h-7V638.9z M21.9,646.1h7v7h-7V646.1z M21.9,653.4h7v7h-7V653.4z M21.9,660.6h7v7h-7V660.6z M21.9,667.9h7v7h-7
	V667.9z M21.9,675.2h7v7h-7V675.2z M21.9,682.4h7v7h-7V682.4z M21.9,689.7h7v7h-7V689.7z M21.9,697h7v7h-7V697z M21.9,341.2h7v7h-7
	V341.2z M21.9,348.4h7v7h-7V348.4z M21.9,355.7h7v7h-7V355.7z M21.9,363h7v7h-7V363z M21.9,370.2h7v7h-7V370.2z M21.9,377.5h7v7h-7
	V377.5z M21.9,384.7h7v7h-7V384.7z M21.9,290.4h7v7h-7V290.4z M21.9,297.6h7v7h-7V297.6z M21.9,304.9h7v7h-7V304.9z M21.9,312.2h7v7
	h-7V312.2z M21.9,319.4h7v7h-7V319.4z M21.9,326.7h7v7h-7V326.7z M21.9,333.9h7v7h-7V333.9z M21.9,392h7v7h-7V392z M21.9,399.3h7v7
	h-7V399.3z M21.9,406.5h7v7h-7V406.5z M21.9,413.8h7v7h-7V413.8z M21.9,421.1h7v7h-7V421.1z M21.9,428.3h7v7h-7V428.3z M21.9,435.6
	h7v7h-7V435.6z M21.9,442.9h7v7h-7V442.9z M21.9,450.1h7v7h-7V450.1z M21.9,457.4h7v7h-7V457.4z M21.9,464.6h7v7h-7V464.6z
	 M21.9,471.9h7v7h-7V471.9z M21.9,479.1h7v7h-7V479.1z M21.9,486.4h7v7h-7V486.4z M21.9,493.7h7v7h-7V493.7z M21.9,500.9h7v7h-7
	V500.9z M21.9,508.2h7v7h-7V508.2z M21.9,515.5h7v7h-7V515.5z M21.9,704.2h7v7h-7V704.2z M21.9,711.5h7v7h-7V711.5z M21.9,718.7h7v7
	h-7V718.7z M21.9,726h7v7h-7V726z M21.9,733.3h7v7h-7V733.3z M21.9,740.6h7v7h-7V740.6z M21.9,747.8h7v7h-7V747.8z M21.9,755.1h7v7
	h-7V755.1z M21.9,762.4h7v7h-7V762.4z M892.8,733.3h7v7h-7V733.3z M892.8,747.8h7v7h-7V747.8z M892.8,762.4h7v7h-7V762.4z
	 M892.8,776.9h7v7h-7V776.9z M892.8,784.1h7v7h-7V784.1z M892.8,791.4h7v7h-7V791.4z M900.1,733.3h7v7h-7V733.3z M900.1,740.6h7v7
	h-7V740.6z M900.1,747.8h7v7h-7V747.8z M900.1,755.1h7v7h-7V755.1z M900.1,762.4h7v7h-7V762.4z M900.1,769.6h7v7h-7V769.6z
	 M900.1,776.9h7v7h-7V776.9z M900.1,784.1h7v7h-7V784.1z M900.1,791.4h7v7h-7V791.4z M900.1,798.7h7v7h-7V798.7z M900.1,806h7v7h-7
	V806z M878.2,101.6h7v7h-7V101.6z M878.2,108.9h7v7h-7V108.9z M878.2,116.1h7v7h-7V116.1z M878.2,123.4h7v7h-7V123.4z M878.2,130.7
	h7v7h-7V130.7z M878.2,137.9h7v7h-7V137.9z M878.2,145.2h7v7h-7V145.2z M878.2,152.4h7v7h-7V152.4z M878.2,159.7h7v7h-7V159.7z
	 M878.2,167h7v7h-7V167z M878.2,174.2h7v7h-7V174.2z M878.2,181.5h7v7h-7V181.5z M885.5,101.6h7v7h-7V101.6z M885.5,108.9h7v7h-7
	V108.9z M885.5,116.1h7v7h-7V116.1z M885.5,123.4h7v7h-7V123.4z M885.5,130.7h7v7h-7V130.7z M885.5,137.9h7v7h-7V137.9z
	 M885.5,145.2h7v7h-7V145.2z M885.5,152.4h7v7h-7V152.4z M885.5,159.7h7v7h-7V159.7z M885.5,167h7v7h-7V167z M885.5,174.2h7v7h-7
	V174.2z M885.5,181.5h7v7h-7V181.5z M878.2,188.8h7v7h-7V188.8z M878.2,196h7v7h-7V196z M878.2,203.3h7v7h-7V203.3z M878.2,210.6h7
	v7h-7V210.6z M878.2,217.8h7v7h-7V217.8z M878.2,225.1h7v7h-7V225.1z M878.2,232.3h7v7h-7V232.3z M878.2,239.6h7v7h-7V239.6z
	 M878.2,246.8h7v7h-7V246.8z M878.2,254.1h7v7h-7V254.1z M885.5,188.8h7v7h-7V188.8z M885.5,196h7v7h-7V196z M885.5,203.3h7v7h-7
	V203.3z M885.5,210.6h7v7h-7V210.6z M885.5,217.8h7v7h-7V217.8z M885.5,225.1h7v7h-7V225.1z M885.5,232.3h7v7h-7V232.3z
	 M885.5,239.6h7v7h-7V239.6z M885.5,246.8h7v7h-7V246.8z M885.5,254.1h7v7h-7V254.1z M878.2,261.4h7v7h-7V261.4z M878.2,268.6h7v7
	h-7V268.6z M878.2,275.9h7v7h-7V275.9z M878.2,283.2h7v7h-7V283.2z M885.5,261.4h7v7h-7V261.4z M885.5,268.6h7v7h-7V268.6z
	 M885.5,275.9h7v7h-7V275.9z M885.5,283.2h7v7h-7V283.2z M878.2,290.5h7v7h-7V290.5z M878.2,297.8h7v7h-7V297.8z M878.2,305h7v7h-7
	V305z M878.2,312.3h7v7h-7V312.3z M878.2,319.6h7v7h-7V319.6z M878.2,326.8h7v7h-7V326.8z M878.2,334.1h7v7h-7V334.1z M878.2,341.3
	h7v7h-7V341.3z M878.2,348.6h7v7h-7V348.6z M878.2,355.9h7v7h-7V355.9z M878.2,363.1h7v7h-7V363.1z M878.2,370.4h7v7h-7V370.4z
	 M885.5,290.5h7v7h-7V290.5z M885.5,297.8h7v7h-7V297.8z M885.5,305h7v7h-7V305z M885.5,312.3h7v7h-7V312.3z M885.5,319.6h7v7h-7
	V319.6z M885.5,326.8h7v7h-7V326.8z M885.5,334.1h7v7h-7V334.1z M885.5,341.3h7v7h-7V341.3z M885.5,348.6h7v7h-7V348.6z
	 M885.5,355.9h7v7h-7V355.9z M885.5,363.1h7v7h-7V363.1z M885.5,370.4h7v7h-7V370.4z M878.2,377.7h7v7h-7V377.7z M878.2,384.9h7v7
	h-7V384.9z M878.2,392.2h7v7h-7V392.2z M878.2,399.5h7v7h-7V399.5z M878.2,406.7h7v7h-7V406.7z M878.2,414h7v7h-7V414z M878.2,421.2
	h7v7h-7V421.2z M878.2,428.5h7v7h-7V428.5z M878.2,435.7h7v7h-7V435.7z M878.2,443h7v7h-7V443z M885.5,377.7h7v7h-7V377.7z
	 M885.5,384.9h7v7h-7V384.9z M885.5,392.2h7v7h-7V392.2z M885.5,399.5h7v7h-7V399.5z M885.5,406.7h7v7h-7V406.7z M885.5,414h7v7h-7
	V414z M885.5,421.2h7v7h-7V421.2z M885.5,428.5h7v7h-7V428.5z M885.5,435.7h7v7h-7V435.7z M885.5,443h7v7h-7V443z M878.2,450.3h7v7
	h-7V450.3z M878.2,457.5h7v7h-7V457.5z M878.2,464.8h7v7h-7V464.8z M878.2,472.1h7v7h-7V472.1z M885.5,450.3h7v7h-7V450.3z
	 M885.5,457.5h7v7h-7V457.5z M885.5,464.8h7v7h-7V464.8z M885.5,472.1h7v7h-7V472.1z M878.2,522.7h7v7h-7V522.7z M878.2,529.9h7v7
	h-7V529.9z M878.2,537.2h7v7h-7V537.2z M878.2,544.5h7v7h-7V544.5z M878.2,551.7h7v7h-7V551.7z M878.2,559h7v7h-7V559z M878.2,566.2
	h7v7h-7V566.2z M878.2,573.5h7v7h-7V573.5z M878.2,580.8h7v7h-7V580.8z M878.2,588h7v7h-7V588z M878.2,595.3h7v7h-7V595.3z
	 M885.5,522.7h7v7h-7V522.7z M885.5,537.2h7v7h-7V537.2z M878.2,493.6h7v7h-7V493.6z M878.2,500.8h7v7h-7V500.8z M878.2,508.1h7v7
	h-7V508.1z M878.2,515.4h7v7h-7V515.4z M885.5,493.6h7v7h-7V493.6z M878.2,479.3h7v7h-7V479.3z M878.2,486.5h7v7h-7V486.5z
	 M885.5,479.3h7v7h-7V479.3z M885.5,486.5h7v7h-7V486.5z M885.5,508.1h7v7h-7V508.1z M885.5,551.7h7v7h-7V551.7z M885.5,566.2h7v7
	h-7V566.2z M885.5,580.8h7v7h-7V580.8z M885.5,595.3h7v7h-7V595.3z M878.2,602.6h7v7h-7V602.6z M878.2,609.8h7v7h-7V609.8z
	 M878.2,617.1h7v7h-7V617.1z M878.2,624.4h7v7h-7V624.4z M878.2,631.6h7v7h-7V631.6z M878.2,638.9h7v7h-7V638.9z M878.2,646.1h7v7
	h-7V646.1z M878.2,653.4h7v7h-7V653.4z M878.2,660.6h7v7h-7V660.6z M878.2,667.9h7v7h-7V667.9z M885.5,609.8h7v7h-7V609.8z
	 M885.5,624.4h7v7h-7V624.4z M885.5,638.9h7v7h-7V638.9z M885.5,653.4h7v7h-7V653.4z M885.5,667.9h7v7h-7V667.9z M878.2,675.2h7v7
	h-7V675.2z M878.2,682.4h7v7h-7V682.4z M878.2,689.7h7v7h-7V689.7z M878.2,697h7v7h-7V697z M878.2,704.2h7v7h-7V704.2z M878.2,711.5
	h7v7h-7V711.5z M878.2,718.7h7v7h-7V718.7z M885.5,682.4h7v7h-7V682.4z M885.5,697h7v7h-7V697z M885.5,711.5h7v7h-7V711.5z
	 M885.5,726h7v7h-7V726z M878.2,726h7v7h-7V726z M878.2,733.3h7v7h-7V733.3z M878.2,740.6h7v7h-7V740.6z M878.2,747.8h7v7h-7V747.8z
	 M878.2,755.1h7v7h-7V755.1z M878.2,762.4h7v7h-7V762.4z M885.5,740.6h7v7h-7V740.6z M885.5,755.1h7v7h-7V755.1z M885.5,769.6h7v7
	h-7V769.6z M885.5,776.9h7v7h-7V776.9z M653.3,14.7h7v7h-7V14.7z M660.6,14.7h7v7h-7V14.7z M667.9,14.7h7v7h-7V14.7z M653.3,21.9h7
	v7h-7V21.9z M667.9,21.9h7v7h-7V21.9z M653.3,29.2h7v7h-7V29.2z M660.6,29.2h7v7h-7V29.2z M667.9,29.2h7v7h-7V29.2z M646.1,36.4h7v7
	h-7V36.4z M653.3,36.4h7v7h-7V36.4z M638.8,43.7h7v7h-7V43.7z M646.1,43.7h7v7h-7V43.7z M551.7,51h7v7h-7V51z M559,51h7v7h-7V51z
	 M566.2,51h7v7h-7V51z M573.5,51h7v7h-7V51z M580.7,51h7v7h-7V51z M588,51h7v7h-7V51z M595.3,51h7v7h-7V51z M602.5,51h7v7h-7V51z
	 M609.8,51h7v7h-7V51z M617,51h7v7h-7V51z M624.3,51h7v7h-7V51z M631.6,51h7v7h-7V51z M638.8,51h7v7h-7V51z M544.4,58.2h7v7h-7V58.2
	z M355.7,65.5h7v7h-7V65.5z M362.9,65.5h7v7h-7V65.5z M370.2,65.5h7v7h-7V65.5z M377.5,65.5h7v7h-7V65.5z M384.7,65.5h7v7h-7V65.5z
	 M392,65.5h7v7h-7V65.5z M399.2,65.5h7v7h-7V65.5z M406.5,65.5h7v7h-7V65.5z M413.8,65.5h7v7h-7V65.5z M421,65.5h7v7h-7V65.5z
	 M428.3,65.5h7v7h-7V65.5z M435.5,65.5h7v7h-7V65.5z M442.8,65.5h7v7h-7V65.5z M450.1,65.5h7v7h-7V65.5z M537.2,65.5h7v7h-7V65.5z
	 M355.7,72.7h7v7h-7V72.7z M362.9,72.7h7v7h-7V72.7z M370.2,72.7h7v7h-7V72.7z M377.5,72.7h7v7h-7V72.7z M384.7,72.7h7v7h-7V72.7z
	 M392,72.7h7v7h-7V72.7z M399.2,72.7h7v7h-7V72.7z M406.5,72.7h7v7h-7V72.7z M413.8,72.7h7v7h-7V72.7z M421,72.7h7v7h-7V72.7z
	 M428.3,72.7h7v7h-7V72.7z M435.5,72.7h7v7h-7V72.7z M442.8,72.7h7v7h-7V72.7z M450.1,72.7h7v7h-7V72.7z M457.3,72.7h7v7h-7V72.7z
	 M464.6,72.7h7v7h-7V72.7z M529.9,72.7h7v7h-7V72.7z M740.5,72.7h7v7h-7V72.7z M747.7,72.7h7v7h-7V72.7z M755,72.7h7v7h-7V72.7z
	 M464.6,80h7v7h-7V80z M471.8,80h7v7h-7V80z M508.1,80h7v7h-7V80z M515.4,80h7v7h-7V80z M522.7,80h7v7h-7V80z M566.2,80h7v7h-7V80z
	 M573.5,80h7v7h-7V80z M580.7,80h7v7h-7V80z M588,80h7v7h-7V80z M595.3,80h7v7h-7V80z M602.5,80h7v7h-7V80z M609.8,80h7v7h-7V80z
	 M617,80h7v7h-7V80z M624.3,80h7v7h-7V80z M631.6,80h7v7h-7V80z M638.8,80h7v7h-7V80z M646.1,80h7v7h-7V80z M653.3,80h7v7h-7V80z
	 M660.6,80h7v7h-7V80z M667.9,80h7v7h-7V80z M675.1,80h7v7h-7V80z M682.4,80h7v7h-7V80z M689.6,80h7v7h-7V80z M696.9,80h7v7h-7V80z
	 M704.2,80h7v7h-7V80z M711.4,80h7v7h-7V80z M718.7,80h7v7h-7V80z M725.9,80h7v7h-7V80z M733.2,80h7v7h-7V80z M740.5,80h7v7h-7V80z
	 M755,80h7v7h-7V80z M471.8,87.3h7v7h-7V87.3z M508.1,87.3h7v7h-7V87.3z M559,87.3h7v7h-7V87.3z M740.5,87.3h7v7h-7V87.3z
	 M747.7,87.3h7v7h-7V87.3z M755,87.3h7v7h-7V87.3z M355.7,94.5h7v7h-7V94.5z M362.9,94.5h7v7h-7V94.5z M370.2,94.5h7v7h-7V94.5z
	 M377.5,94.5h7v7h-7V94.5z M384.7,94.5h7v7h-7V94.5z M392,94.5h7v7h-7V94.5z M399.2,94.5h7v7h-7V94.5z M406.5,94.5h7v7h-7V94.5z
	 M413.8,94.5h7v7h-7V94.5z M421,94.5h7v7h-7V94.5z M428.3,94.5h7v7h-7V94.5z M435.5,94.5h7v7h-7V94.5z M479.1,94.5h7v7h-7V94.5z
	 M508.1,94.5h7v7h-7V94.5z M515.4,94.5h7v7h-7V94.5z M522.7,94.5h7v7h-7V94.5z M522.7,87.3h7v7h-7V87.3z M551.7,94.5h7v7h-7V94.5z
	 M348.4,101.8h7v7h-7V101.8z M435.5,101.8h7v7h-7V101.8z M442.8,101.8h7v7h-7V101.8z M486.4,101.8h7v7h-7V101.8z M493.6,101.8h7v7
	h-7V101.8z M500.9,101.8h7v7h-7V101.8z M537.2,101.8h7v7h-7V101.8z M529.9,101.8h7v7h-7V101.8z M544.4,101.8h7v7h-7V101.8z
	 M588,101.8h7v7h-7V101.8z M595.3,101.8h7v7h-7V101.8z M602.5,101.8h7v7h-7V101.8z M609.8,101.8h7v7h-7V101.8z M617,101.8h7v7h-7
	V101.8z M624.3,101.8h7v7h-7V101.8z M631.6,101.8h7v7h-7V101.8z M638.8,101.8h7v7h-7V101.8z M646.1,101.8h7v7h-7V101.8z
	 M653.3,101.8h7v7h-7V101.8z M660.6,101.8h7v7h-7V101.8z M667.9,101.8h7v7h-7V101.8z M675.1,101.8h7v7h-7V101.8z M682.4,101.8h7v7
	h-7V101.8z M689.6,101.8h7v7h-7V101.8z M696.9,101.8h7v7h-7V101.8z M704.2,101.8h7v7h-7V101.8z M711.4,101.8h7v7h-7V101.8z
	 M341.2,109h7v7h-7V109z M442.8,109h7v7h-7V109z M450.1,109h7v7h-7V109z M486.4,109h7v7h-7V109z M500.9,109h7v7h-7V109z M529.9,109
	h7v7h-7V109z M544.4,109h7v7h-7V109z M580.7,109h7v7h-7V109z M718.7,109h7v7h-7V109z M333.9,116.3h7v7h-7V116.3z M370.2,116.3h7v7
	h-7V116.3z M377.5,116.3h7v7h-7V116.3z M384.7,116.3h7v7h-7V116.3z M392,116.3h7v7h-7V116.3z M399.2,116.3h7v7h-7V116.3z
	 M406.5,116.3h7v7h-7V116.3z M413.8,116.3h7v7h-7V116.3z M457.3,116.3h7v7h-7V116.3z M486.4,116.3h7v7h-7V116.3z M493.6,116.3h7v7
	h-7V116.3z M500.9,116.3h7v7h-7V116.3z M537.2,116.3h7v7h-7V116.3z M529.9,116.3h7v7h-7V116.3z M544.4,116.3h7v7h-7V116.3z
	 M573.5,116.3h7v7h-7V116.3z M725.9,116.3h7v7h-7V116.3z M326.6,123.6h7v7h-7V123.6z M362.9,123.6h7v7h-7V123.6z M370.2,123.6h7v7
	h-7V123.6z M413.8,123.6h7v7h-7V123.6z M421,123.6h7v7h-7V123.6z M464.6,123.6h7v7h-7V123.6z M471.8,123.6h7v7h-7V123.6z
	 M479.1,123.6h7v7h-7V123.6z M479.1,130.8h7v7h-7V130.8z M508.1,123.6h7v7h-7V123.6z M515.4,123.6h7v7h-7V123.6z M522.7,123.6h7v7
	h-7V123.6z M551.7,123.6h7v7h-7V123.6z M559,123.6h7v7h-7V123.6z M566.2,123.6h7v7h-7V123.6z M609.8,123.6h7v7h-7V123.6z M617,123.6
	h7v7h-7V123.6z M624.3,123.6h7v7h-7V123.6z M631.6,123.6h7v7h-7V123.6z M638.8,123.6h7v7h-7V123.6z M646.1,123.6h7v7h-7V123.6z
	 M653.3,123.6h7v7h-7V123.6z M660.6,123.6h7v7h-7V123.6z M667.9,123.6h7v7h-7V123.6z M675.1,123.6h7v7h-7V123.6z M682.4,123.6h7v7
	h-7V123.6z M689.6,123.6h7v7h-7V123.6z M733.2,123.6h7v7h-7V123.6z M319.4,130.8h7v7h-7V130.8z M355.7,130.8h7v7h-7V130.8z
	 M428.3,130.8h7v7h-7V130.8z M464.6,130.8h7v7h-7V130.8z M508.1,130.8h7v7h-7V130.8z M515.4,130.8h7v7h-7V130.8z M522.7,130.8h7v7
	h-7V130.8z M529.9,130.8h7v7h-7V130.8z M551.7,130.8h7v7h-7V130.8z M551.7,138.1h7v7h-7V138.1z M602.5,130.8h7v7h-7V130.8z
	 M609.8,130.8h7v7h-7V130.8z M696.9,130.8h7v7h-7V130.8z M704.2,130.8h7v7h-7V130.8z M740.5,130.8h7v7h-7V130.8z M225,138.1h7v7h-7
	V138.1z M232.3,138.1h7v7h-7V138.1z M239.5,138.1h7v7h-7V138.1z M246.8,138.1h7v7h-7V138.1z M254,138.1h7v7h-7V138.1z M261.3,138.1
	h7v7h-7V138.1z M268.6,138.1h7v7h-7V138.1z M275.8,138.1h7v7h-7V138.1z M283.1,138.1h7v7h-7V138.1z M290.3,138.1h7v7h-7V138.1z
	 M297.6,138.1h7v7h-7V138.1z M304.9,138.1h7v7h-7V138.1z M312.1,138.1h7v7h-7V138.1z M348.4,138.1h7v7h-7V138.1z M435.5,138.1h7v7
	h-7V138.1z M464.6,138.1h7v7h-7V138.1z M471.8,138.1h7v7h-7V138.1z M479.1,138.1h7v7h-7V138.1z M500.9,138.1h7v7h-7V138.1z
	 M508.1,138.1h7v7h-7V138.1z M515.4,138.1h7v7h-7V138.1z M522.7,138.1h7v7h-7V138.1z M529.9,138.1h7v7h-7V138.1z M537.2,138.1h7v7
	h-7V138.1z M559,138.1h7v7h-7V138.1z M566.2,138.1h7v7h-7V138.1z M566.2,130.8h7v7h-7V130.8z M595.3,138.1h7v7h-7V138.1z
	 M602.5,138.1h7v7h-7V138.1z M704.2,138.1h7v7h-7V138.1z M711.4,138.1h7v7h-7V138.1z M747.7,138.1h7v7h-7V138.1z M225,145.3h7v7h-7
	V145.3z M341.2,145.3h7v7h-7V145.3z M399.2,145.3h7v7h-7V145.3z M406.5,145.3h7v7h-7V145.3z M413.8,145.3h7v7h-7V145.3z
	 M442.8,145.3h7v7h-7V145.3z M450.1,145.3h7v7h-7V145.3z M457.3,145.3h7v7h-7V145.3z M486.4,145.3h7v7h-7V145.3z M493.6,145.3h7v7
	h-7V145.3z M500.9,145.3h7v7h-7V145.3z M508.1,145.3h7v7h-7V145.3z M515.4,145.3h7v7h-7V145.3z M522.7,145.3h7v7h-7V145.3z
	 M529.9,145.3h7v7h-7V145.3z M537.2,145.3h7v7h-7V145.3z M544.4,145.3h7v7h-7V145.3z M573.5,145.3h7v7h-7V145.3z M580.7,145.3h7v7
	h-7V145.3z M588,145.3h7v7h-7V145.3z M595.3,145.3h7v7h-7V145.3z M711.4,145.3h7v7h-7V145.3z M718.7,145.3h7v7h-7V145.3z M755,145.3
	h7v7h-7V145.3z M225,152.6h7v7h-7V152.6z M333.9,152.6h7v7h-7V152.6z M399.2,152.6h7v7h-7V152.6z M421,152.6h7v7h-7V152.6z
	 M442.8,152.6h7v7h-7V152.6z M457.3,152.6h7v7h-7V152.6z M486.4,152.6h7v7h-7V152.6z M493.6,152.6h7v7h-7V152.6z M500.9,152.6h7v7
	h-7V152.6z M508.1,152.6h7v7h-7V152.6z M515.4,152.6h7v7h-7V152.6z M522.7,152.6h7v7h-7V152.6z M529.9,152.6h7v7h-7V152.6z
	 M537.2,152.6h7v7h-7V152.6z M544.4,152.6h7v7h-7V152.6z M551.7,152.6h7v7h-7V152.6z M573.5,152.6h7v7h-7V152.6z M588,152.6h7v7h-7
	V152.6z M631.6,152.6h7v7h-7V152.6z M638.8,152.6h7v7h-7V152.6z M646.1,152.6h7v7h-7V152.6z M653.3,152.6h7v7h-7V152.6z
	 M660.6,152.6h7v7h-7V152.6z M718.7,152.6h7v7h-7V152.6z M725.9,152.6h7v7h-7V152.6z M762.2,152.6h7v7h-7V152.6z M116.1,159.9h7v7
	h-7V159.9z M108.8,159.9h7v7h-7V159.9z M123.4,159.9h7v7h-7V159.9z M123.4,167.1h7v7h-7V167.1z M225,159.9h7v7h-7V159.9z
	 M312.1,159.9h7v7h-7V159.9z M319.4,159.9h7v7h-7V159.9z M326.6,159.9h7v7h-7V159.9z M399.2,159.9h7v7h-7V159.9z M406.5,159.9h7v7
	h-7V159.9z M413.8,159.9h7v7h-7V159.9z M442.8,159.9h7v7h-7V159.9z M450,159.9h7v7h-7V159.9z M457.3,159.9h7v7h-7V159.9z
	 M471.8,159.9h7v7h-7V159.9z M479.1,159.9h7v7h-7V159.9z M486.4,159.9h7v7h-7V159.9z M493.6,159.9h7v7h-7V159.9z M500.9,159.9h7v7
	h-7V159.9z M508.1,159.9h7v7h-7V159.9z M515.4,159.9h7v7h-7V159.9z M522.7,159.9h7v7h-7V159.9z M529.9,159.9h7v7h-7V159.9z
	 M537.2,159.9h7v7h-7V159.9z M544.4,159.9h7v7h-7V159.9z M551.7,159.9h7v7h-7V159.9z M559,159.9h7v7h-7V159.9z M573.5,159.9h7v7h-7
	V159.9z M580.7,159.9h7v7h-7V159.9z M588,159.9h7v7h-7V159.9z M624.3,159.9h7v7h-7V159.9z M631.6,159.9h7v7h-7V159.9z M660.6,159.9
	h7v7h-7V159.9z M667.9,159.9h7v7h-7V159.9z M733.2,159.9h7v7h-7V159.9z M769.5,159.9h7v7h-7V159.9z M108.8,167.1h7v7h-7V167.1z
	 M152.4,167.1h7v7h-7V167.1z M159.7,167.1h7v7h-7V167.1z M166.9,167.1h7v7h-7V167.1z M174.2,167.1h7v7h-7V167.1z M181.4,167.1h7v7
	h-7V167.1z M188.7,167.1h7v7h-7V167.1z M196,167.1h7v7h-7V167.1z M203.2,167.1h7v7h-7V167.1z M210.5,167.1h7v7h-7V167.1z
	 M217.7,167.1h7v7h-7V167.1z M225,167.1h7v7h-7V167.1z M232.3,167.1h7v7h-7V167.1z M239.5,167.1h7v7h-7V167.1z M246.8,167.1h7v7h-7
	V167.1z M254,167.1h7v7h-7V167.1z M261.3,167.1h7v7h-7V167.1z M268.6,167.1h7v7h-7V167.1z M275.8,167.1h7v7h-7V167.1z M312.1,167.1
	h7v7h-7V167.1z M326.6,167.1h7v7h-7V167.1z M392,167.1h7v7h-7V167.1z M399.2,167.1h7v7h-7V167.1z M421,145.3h7v7h-7V145.3z
	 M421,159.9h7v7h-7V159.9z M464.6,167.1h7v7h-7V167.1z M471.8,167.1h7v7h-7V167.1z M479.1,167.1h7v7h-7V167.1z M486.4,167.1h7v7h-7
	V167.1z M493.6,167.1h7v7h-7V167.1z M500.9,167.1h7v7h-7V167.1z M508.1,167.1h7v7h-7V167.1z M515.4,167.1h7v7h-7V167.1z
	 M522.7,167.1h7v7h-7V167.1z M529.9,167.1h7v7h-7V167.1z M537.2,167.1h7v7h-7V167.1z M544.4,167.1h7v7h-7V167.1z M551.7,167.1h7v7
	h-7V167.1z M559,167.1h7v7h-7V167.1z M566.2,167.1h7v7h-7V167.1z M602.5,167.1h7v7h-7V167.1z M609.8,167.1h7v7h-7V167.1z M617,167.1
	h7v7h-7V167.1z M675.1,167.1h7v7h-7V167.1z M733.2,167.1h7v7h-7V167.1z M740.5,167.1h7v7h-7V167.1z M776.8,167.1h7v7h-7V167.1z
	 M108.8,174.4h7v7h-7V174.4z M123.4,174.4h7v7h-7V174.4z M283.1,174.4h7v7h-7V174.4z M312.1,174.4h7v7h-7V174.4z M319.4,174.4h7v7
	h-7V174.4z M326.6,174.4h7v7h-7V174.4z M384.7,174.4h7v7h-7V174.4z M392,174.4h7v7h-7V174.4z M457.3,174.4h7v7h-7V174.4z
	 M464.6,174.4h7v7h-7V174.4z M471.8,174.4h7v7h-7V174.4z M479.1,174.4h7v7h-7V174.4z M486.4,174.4h7v7h-7V174.4z M493.6,174.4h7v7
	h-7V174.4z M500.9,174.4h7v7h-7V174.4z M508.1,174.4h7v7h-7V174.4z M515.4,174.4h7v7h-7V174.4z M522.7,174.4h7v7h-7V174.4z
	 M529.9,174.4h7v7h-7V174.4z M537.2,174.4h7v7h-7V174.4z M544.4,174.4h7v7h-7V174.4z M551.7,174.4h7v7h-7V174.4z M559,174.4h7v7h-7
	V174.4z M566.2,174.4h7v7h-7V174.4z M573.5,174.4h7v7h-7V174.4z M602.5,174.4h7v7h-7V174.4z M617,174.4h7v7h-7V174.4z M638.8,174.4
	h7v7h-7V174.4z M646.1,174.4h7v7h-7V174.4z M653.3,174.4h7v7h-7V174.4z M682.4,174.4h7v7h-7V174.4z M740.5,174.4h7v7h-7V174.4z
	 M747.7,174.4h7v7h-7V174.4z M776.8,174.4h7v7h-7V174.4z M116.1,181.6h7v7h-7V181.6z M108.8,181.6h7v7h-7V181.6z M123.4,181.6h7v7
	h-7V181.6z M145.1,167.1h7v7h-7V167.1z M254,181.6h7v7h-7V181.6z M261.3,181.6h7v7h-7V181.6z M268.6,181.6h7v7h-7V181.6z
	 M290.3,181.6h7v7h-7V181.6z M377.5,181.6h7v7h-7V181.6z M384.7,181.6h7v7h-7V181.6z M399.2,181.6h7v7h-7V181.6z M406.5,181.6h7v7
	h-7V181.6z M450.1,181.6h7v7h-7V181.6z M457.3,181.6h7v7h-7V181.6z M464.6,181.6h7v7h-7V181.6z M471.8,181.6h7v7h-7V181.6z
	 M479.1,181.6h7v7h-7V181.6z M486.4,181.6h7v7h-7V181.6z M493.6,181.6h7v7h-7V181.6z M500.9,181.6h7v7h-7V181.6z M508.1,181.6h7v7
	h-7V181.6z M515.4,181.6h7v7h-7V181.6z M522.7,181.6h7v7h-7V181.6z M529.9,181.6h7v7h-7V181.6z M537.2,181.6h7v7h-7V181.6z
	 M544.4,181.6h7v7h-7V181.6z M551.7,181.6h7v7h-7V181.6z M559,181.6h7v7h-7V181.6z M566.2,181.6h7v7h-7V181.6z M573.5,181.6h7v7h-7
	V181.6z M580.7,181.6h7v7h-7V181.6z M602.5,181.6h7v7h-7V181.6z M609.8,181.6h7v7h-7V181.6z M617,181.6h7v7h-7V181.6z M638.8,181.6
	h7v7h-7V181.6z M653.3,181.6h7v7h-7V181.6z M667.9,196.2h7v7h-7V196.2z M689.6,181.6h7v7h-7V181.6z M747.7,181.6h7v7h-7V181.6z
	 M755,181.6h7v7h-7V181.6z M776.8,181.6h7v7h-7V181.6z M137.9,188.9h7v7h-7V188.9z M130.6,181.6h7v7h-7V181.6z M130.6,188.9h7v7h-7
	V188.9z M145.1,188.9h7v7h-7V188.9z M130.6,167.1h7v7h-7V167.1z M137.9,167.1h7v7h-7V167.1z M152.4,188.9h7v7h-7V188.9z
	 M159.7,188.9h7v7h-7V188.9z M166.9,188.9h7v7h-7V188.9z M174.2,188.9h7v7h-7V188.9z M181.4,188.9h7v7h-7V188.9z M188.7,188.9h7v7
	h-7V188.9z M196,188.9h7v7h-7V188.9z M203.2,188.9h7v7h-7V188.9z M210.5,188.9h7v7h-7V188.9z M217.7,188.9h7v7h-7V188.9z M225,188.9
	h7v7h-7V188.9z M232.3,188.9h7v7h-7V188.9z M239.5,188.9h7v7h-7V188.9z M246.8,188.9h7v7h-7V188.9z M254,188.9h7v7h-7V188.9z
	 M268.6,188.9h7v7h-7V188.9z M297.6,188.9h7v7h-7V188.9z M370.2,188.9h7v7h-7V188.9z M377.5,188.9h7v7h-7V188.9z M392,188.9h7v7h-7
	V188.9z M399.2,188.9h7v7h-7V188.9z M413.8,188.9h7v7h-7V188.9z M442.8,188.9h7v7h-7V188.9z M450.1,188.9h7v7h-7V188.9z
	 M457.3,188.9h7v7h-7V188.9z M464.6,188.9h7v7h-7V188.9z M471.8,188.9h7v7h-7V188.9z M479.1,188.9h7v7h-7V188.9z M486.4,188.9h7v7
	h-7V188.9z M493.6,188.9h7v7h-7V188.9z M500.9,188.9h7v7h-7V188.9z M508.1,188.9h7v7h-7V188.9z M515.4,188.9h7v7h-7V188.9z
	 M522.7,188.9h7v7h-7V188.9z M529.9,188.9h7v7h-7V188.9z M537.2,188.9h7v7h-7V188.9z M544.4,188.9h7v7h-7V188.9z M551.7,188.9h7v7
	h-7V188.9z M559,188.9h7v7h-7V188.9z M566.2,188.9h7v7h-7V188.9z M573.5,188.9h7v7h-7V188.9z M580.7,188.9h7v7h-7V188.9z M588,188.9
	h7v7h-7V188.9z M638.8,188.9h7v7h-7V188.9z M646.1,188.9h7v7h-7V188.9z M653.3,188.9h7v7h-7V188.9z M660.6,188.9h7v7h-7V188.9z
	 M696.9,188.9h7v7h-7V188.9z M755,188.9h7v7h-7V188.9z M776.8,188.9h7v7h-7V188.9z M123.4,217.9h7v7h-7V217.9z M108.8,217.9h7v7h-7
	V217.9z M116.1,203.4h7v7h-7V203.4z M254,196.2h7v7h-7V196.2z M261.3,196.2h7v7h-7V196.2z M268.6,196.2h7v7h-7V196.2z M304.9,196.2
	h7v7h-7V196.2z M312.1,196.2h7v7h-7V196.2z M319.4,196.2h7v7h-7V196.2z M362.9,196.2h7v7h-7V196.2z M370.2,196.2h7v7h-7V196.2z
	 M392,196.2h7v7h-7V196.2z M413.8,196.2h7v7h-7V196.2z M442.8,196.2h7v7h-7V196.2z M450.1,196.2h7v7h-7V196.2z M457.3,196.2h7v7h-7
	V196.2z M464.6,196.2h7v7h-7V196.2z M471.8,196.2h7v7h-7V196.2z M479.1,196.2h7v7h-7V196.2z M486.4,196.2h7v7h-7V196.2z
	 M493.6,196.2h7v7h-7V196.2z M500.9,196.2h7v7h-7V196.2z M508.1,196.2h7v7h-7V196.2z M515.4,196.2h7v7h-7V196.2z M522.7,196.2h7v7
	h-7V196.2z M529.9,196.2h7v7h-7V196.2z M537.2,196.2h7v7h-7V196.2z M544.4,196.2h7v7h-7V196.2z M551.7,196.2h7v7h-7V196.2z
	 M559,196.2h7v7h-7V196.2z M566.2,196.2h7v7h-7V196.2z M573.5,196.2h7v7h-7V196.2z M580.7,196.2h7v7h-7V196.2z M588,196.2h7v7h-7
	V196.2z M595.3,196.2h7v7h-7V196.2z M609.8,196.2h7v7h-7V196.2z M617,196.2h7v7h-7V196.2z M624.3,196.2h7v7h-7V196.2z M660.6,203.4
	h7v7h-7V203.4z M653.3,196.2h7v7h-7V196.2z M660.6,196.2h7v7h-7V196.2z M704.2,196.2h7v7h-7V196.2z M755,196.2h7v7h-7V196.2z
	 M776.8,196.2h7v7h-7V196.2z M58,203.4h7v7h-7V203.4z M72.5,203.4h7v7h-7V203.4z M108.8,203.4h7v7h-7V203.4z M123.4,203.4h7v7h-7
	V203.4z M304.9,203.4h7v7h-7V203.4z M319.4,203.4h7v7h-7V203.4z M355.7,203.4h7v7h-7V203.4z M362.9,203.4h7v7h-7V203.4z M392,203.4
	h7v7h-7V203.4z M399.2,203.4h7v7h-7V203.4z M406.5,203.4h7v7h-7V203.4z M421,203.4h7v7h-7V203.4z M428.3,203.4h7v7h-7V203.4z
	 M442.8,203.4h7v7h-7V203.4z M450.1,203.4h7v7h-7V203.4z M457.3,203.4h7v7h-7V203.4z M464.6,203.4h7v7h-7V203.4z M471.8,203.4h7v7
	h-7V203.4z M479.1,203.4h7v7h-7V203.4z M486.4,203.4h7v7h-7V203.4z M493.6,203.4h7v7h-7V203.4z M500.9,203.4h7v7h-7V203.4z
	 M508.1,203.4h7v7h-7V203.4z M515.4,203.4h7v7h-7V203.4z M522.7,203.4h7v7h-7V203.4z M529.9,203.4h7v7h-7V203.4z M537.2,203.4h7v7
	h-7V203.4z M544.4,203.4h7v7h-7V203.4z M551.7,203.4h7v7h-7V203.4z M559,203.4h7v7h-7V203.4z M566.2,203.4h7v7h-7V203.4z
	 M573.5,203.4h7v7h-7V203.4z M580.7,203.4h7v7h-7V203.4z M588,203.4h7v7h-7V203.4z M595.3,203.4h7v7h-7V203.4z M609.8,203.4h7v7h-7
	V203.4z M624.3,203.4h7v7h-7V203.4z M667.9,203.4h7v7h-7V203.4z M675.1,203.4h7v7h-7V203.4z M704.2,203.4h7v7h-7V203.4z
	 M711.4,203.4h7v7h-7V203.4z M755,203.4h7v7h-7V203.4z M776.8,203.4h7v7h-7V203.4z M72.5,210.7h7v7h-7V210.7z M108.8,210.7h7v7h-7
	V210.7z M123.4,210.7h7v7h-7V210.7z M130.6,210.7h7v7h-7V210.7z M137.9,210.7h7v7h-7V210.7z M145.1,210.7h7v7h-7V210.7z
	 M152.4,210.7h7v7h-7V210.7z M159.7,210.7h7v7h-7V210.7z M166.9,210.7h7v7h-7V210.7z M174.2,210.7h7v7h-7V210.7z M181.4,210.7h7v7
	h-7V210.7z M188.7,210.7h7v7h-7V210.7z M196,210.7h7v7h-7V210.7z M203.2,210.7h7v7h-7V210.7z M210.5,210.7h7v7h-7V210.7z
	 M217.7,210.7h7v7h-7V210.7z M225,210.7h7v7h-7V210.7z M232.3,210.7h7v7h-7V210.7z M239.5,210.7h7v7h-7V210.7z M246.8,210.7h7v7h-7
	V210.7z M254,210.7h7v7h-7V210.7z M261.3,210.7h7v7h-7V210.7z M268.6,210.7h7v7h-7V210.7z M304.9,210.7h7v7h-7V210.7z M312.1,210.7
	h7v7h-7V210.7z M319.4,210.7h7v7h-7V210.7z M348.4,210.7h7v7h-7V210.7z M355.7,210.7h7v7h-7V210.7z M384.7,210.7h7v7h-7V210.7z
	 M413.8,210.7h7v7h-7V210.7z M435.5,210.7h7v7h-7V210.7z M450.1,210.7h7v7h-7V210.7z M457.3,210.7h7v7h-7V210.7z M464.6,210.7h7v7
	h-7V210.7z M471.8,210.7h7v7h-7V210.7z M479.1,210.7h7v7h-7V210.7z M486.4,210.7h7v7h-7V210.7z M493.6,210.7h7v7h-7V210.7z
	 M500.9,210.7h7v7h-7V210.7z M508.1,210.7h7v7h-7V210.7z M515.4,210.7h7v7h-7V210.7z M522.7,210.7h7v7h-7V210.7z M529.9,210.7h7v7
	h-7V210.7z M537.2,210.7h7v7h-7V210.7z M544.4,210.7h7v7h-7V210.7z M551.7,210.7h7v7h-7V210.7z M559,210.7h7v7h-7V210.7z
	 M566.2,210.7h7v7h-7V210.7z M573.5,210.7h7v7h-7V210.7z M580.7,210.7h7v7h-7V210.7z M588,210.7h7v7h-7V210.7z M609.8,210.7h7v7h-7
	V210.7z M624.3,210.7h7v7h-7V210.7z M631.6,210.7h7v7h-7V210.7z M667.9,210.7h7v7h-7V210.7z M675.1,210.7h7v7h-7V210.7z
	 M682.4,210.7h7v7h-7V210.7z M689.6,210.7h7v7h-7V210.7z M704.2,210.7h7v7h-7V210.7z M711.4,210.7h7v7h-7V210.7z M755,210.7h7v7h-7
	V210.7z M776.8,210.7h7v7h-7V210.7z M58,217.9h7v7h-7V217.9z M58,210.7h7v7h-7V210.7z M65.3,217.9h7v7h-7V217.9z M72.5,217.9h7v7h-7
	V217.9z M65.3,203.4h7v7h-7V203.4z M116.1,217.9h7v7h-7V217.9z M246.8,217.9h7v7h-7V217.9z M254,217.9h7v7h-7V217.9z M261.3,217.9h7
	v7h-7V217.9z M268.6,217.9h7v7h-7V217.9z M275.8,217.9h7v7h-7V217.9z M341.2,217.9h7v7h-7V217.9z M348.4,217.9h7v7h-7V217.9z
	 M377.5,217.9h7v7h-7V217.9z M384.7,217.9h7v7h-7V217.9z M413.8,217.9h7v7h-7V217.9z M435.5,217.9h7v7h-7V217.9z M457.3,217.9h7v7
	h-7V217.9z M464.6,217.9h7v7h-7V217.9z M471.8,217.9h7v7h-7V217.9z M479.1,217.9h7v7h-7V217.9z M486.4,217.9h7v7h-7V217.9z
	 M493.6,217.9h7v7h-7V217.9z M500.9,217.9h7v7h-7V217.9z M508.1,217.9h7v7h-7V217.9z M515.4,217.9h7v7h-7V217.9z M522.7,217.9h7v7
	h-7V217.9z M529.9,217.9h7v7h-7V217.9z M537.2,217.9h7v7h-7V217.9z M544.4,217.9h7v7h-7V217.9z M551.7,217.9h7v7h-7V217.9z
	 M559,217.9h7v7h-7V217.9z M566.2,217.9h7v7h-7V217.9z M573.5,217.9h7v7h-7V217.9z M580.7,217.9h7v7h-7V217.9z M617,210.7h7v7h-7
	V210.7z M624.3,217.9h7v7h-7V217.9z M631.6,217.9h7v7h-7V217.9z M689.6,225.2h7v7h-7V225.2z M675.1,217.9h7v7h-7V217.9z
	 M689.6,217.9h7v7h-7V217.9z M704.2,217.9h7v7h-7V217.9z M711.4,217.9h7v7h-7V217.9z M755,217.9h7v7h-7V217.9z M776.8,217.9h7v7h-7
	V217.9z M813.1,239.7h7v7h-7V239.7z M820.3,225.2h7v7h-7V225.2z M65.3,225.2h7v7h-7V225.2z M79.8,225.2h7v7h-7V225.2z M87.1,225.2h7
	v7h-7V225.2z M94.3,225.2h7v7h-7V225.2z M94.3,232.5h7v7h-7V232.5z M137.9,225.2h7v7h-7V225.2z M145.1,225.2h7v7h-7V225.2z
	 M152.4,225.2h7v7h-7V225.2z M159.7,225.2h7v7h-7V225.2z M166.9,225.2h7v7h-7V225.2z M174.2,225.2h7v7h-7V225.2z M181.4,225.2h7v7
	h-7V225.2z M188.7,225.2h7v7h-7V225.2z M196,225.2h7v7h-7V225.2z M203.2,225.2h7v7h-7V225.2z M210.5,225.2h7v7h-7V225.2z
	 M217.7,225.2h7v7h-7V225.2z M225,225.2h7v7h-7V225.2z M232.3,225.2h7v7h-7V225.2z M239.5,225.2h7v7h-7V225.2z M246.8,225.2h7v7h-7
	V225.2z M261.3,225.2h7v7h-7V225.2z M275.8,225.2h7v7h-7V225.2z M283.1,225.2h7v7h-7V225.2z M290.3,225.2h7v7h-7V225.2z
	 M297.6,225.2h7v7h-7V225.2z M304.9,225.2h7v7h-7V225.2z M312.1,225.2h7v7h-7V225.2z M319.4,225.2h7v7h-7V225.2z M326.6,225.2h7v7
	h-7V225.2z M333.9,225.2h7v7h-7V225.2z M341.2,225.2h7v7h-7V225.2z M370.2,225.2h7v7h-7V225.2z M377.5,225.2h7v7h-7V225.2z
	 M413.8,225.2h7v7h-7V225.2z M421,225.2h7v7h-7V225.2z M428.3,225.2h7v7h-7V225.2z M442.8,225.2h7v7h-7V225.2z M450.1,225.2h7v7h-7
	V225.2z M464.6,225.2h7v7h-7V225.2z M471.8,225.2h7v7h-7V225.2z M479.1,225.2h7v7h-7V225.2z M486.4,225.2h7v7h-7V225.2z
	 M493.6,225.2h7v7h-7V225.2z M500.9,225.2h7v7h-7V225.2z M508.1,225.2h7v7h-7V225.2z M515.4,225.2h7v7h-7V225.2z M522.7,225.2h7v7
	h-7V225.2z M529.9,225.2h7v7h-7V225.2z M537.2,225.2h7v7h-7V225.2z M544.4,225.2h7v7h-7V225.2z M551.7,225.2h7v7h-7V225.2z
	 M559,225.2h7v7h-7V225.2z M566.2,225.2h7v7h-7V225.2z M573.5,225.2h7v7h-7V225.2z M588,225.2h7v7h-7V225.2z M595.3,225.2h7v7h-7
	V225.2z M602.5,225.2h7v7h-7V225.2z M631.6,225.2h7v7h-7V225.2z M638.8,225.2h7v7h-7V225.2z M675.1,225.2h7v7h-7V225.2z
	 M682.4,225.2h7v7h-7V225.2z M704.2,225.2h7v7h-7V225.2z M711.4,225.2h7v7h-7V225.2z M755,225.2h7v7h-7V225.2z M776.8,225.2h7v7h-7
	V225.2z M813.1,225.2h7v7h-7V225.2z M827.6,225.2h7v7h-7V225.2z M65.3,232.5h7v7h-7V232.5z M79.8,232.5h7v7h-7V232.5z M130.6,232.5
	h7v7h-7V232.5z M137.9,232.5h7v7h-7V232.5z M145.1,232.5h7v7h-7V232.5z M152.4,232.5h7v7h-7V232.5z M159.7,232.5h7v7h-7V232.5z
	 M166.9,232.5h7v7h-7V232.5z M174.2,232.5h7v7h-7V232.5z M181.4,232.5h7v7h-7V232.5z M188.7,232.5h7v7h-7V232.5z M196,232.5h7v7h-7
	V232.5z M203.2,232.5h7v7h-7V232.5z M210.5,232.5h7v7h-7V232.5z M217.7,232.5h7v7h-7V232.5z M225,232.5h7v7h-7V232.5z M232.3,232.5
	h7v7h-7V232.5z M239.5,232.5h7v7h-7V232.5z M246.8,232.5h7v7h-7V232.5z M261.3,232.5h7v7h-7V232.5z M283.1,232.5h7v7h-7V232.5z
	 M290.3,232.5h7v7h-7V232.5z M297.6,232.5h7v7h-7V232.5z M304.9,232.5h7v7h-7V232.5z M312.1,232.5h7v7h-7V232.5z M319.4,232.5h7v7
	h-7V232.5z M326.6,232.5h7v7h-7V232.5z M333.9,232.5h7v7h-7V232.5z M362.9,232.5h7v7h-7V232.5z M406.5,232.5h7v7h-7V232.5z
	 M435.5,232.5h7v7h-7V232.5z M457.3,232.5h7v7h-7V232.5z M471.8,232.5h7v7h-7V232.5z M479.1,232.5h7v7h-7V232.5z M486.4,232.5h7v7
	h-7V232.5z M493.6,232.5h7v7h-7V232.5z M500.9,232.5h7v7h-7V232.5z M508.1,232.5h7v7h-7V232.5z M515.4,232.5h7v7h-7V232.5z
	 M522.7,232.5h7v7h-7V232.5z M529.9,232.5h7v7h-7V232.5z M537.2,232.5h7v7h-7V232.5z M544.4,232.5h7v7h-7V232.5z M551.7,232.5h7v7
	h-7V232.5z M559,232.5h7v7h-7V232.5z M566.2,232.5h7v7h-7V232.5z M588,232.5h7v7h-7V232.5z M602.5,232.5h7v7h-7V232.5z M638.8,232.5
	h7v7h-7V232.5z M646.1,232.5h7v7h-7V232.5z M704.2,232.5h7v7h-7V232.5z M711.4,232.5h7v7h-7V232.5z M755,232.5h7v7h-7V232.5z
	 M776.8,232.5h7v7h-7V232.5z M813.1,232.5h7v7h-7V232.5z M827.6,232.5h7v7h-7V232.5z M65.3,239.7h7v7h-7V239.7z M79.8,239.7h7v7h-7
	V239.7z M94.3,239.7h7v7h-7V239.7z M87.1,239.7h7v7h-7V239.7z M123.4,239.7h7v7h-7V239.7z M246.8,239.7h7v7h-7V239.7z M254,239.7h7
	v7h-7V239.7z M261.3,239.7h7v7h-7V239.7z M355.7,239.7h7v7h-7V239.7z M399.2,239.7h7v7h-7V239.7z M435.5,239.7h7v7h-7V239.7z
	 M457.3,239.7h7v7h-7V239.7z M479.1,239.7h7v7h-7V239.7z M486.4,239.7h7v7h-7V239.7z M493.6,239.7h7v7h-7V239.7z M500.9,239.7h7v7
	h-7V239.7z M508.1,239.7h7v7h-7V239.7z M515.4,239.7h7v7h-7V239.7z M522.7,239.7h7v7h-7V239.7z M529.9,239.7h7v7h-7V239.7z
	 M537.2,239.7h7v7h-7V239.7z M544.4,239.7h7v7h-7V239.7z M551.7,239.7h7v7h-7V239.7z M559,239.7h7v7h-7V239.7z M588,239.7h7v7h-7
	V239.7z M595.3,239.7h7v7h-7V239.7z M602.5,239.7h7v7h-7V239.7z M646.1,239.7h7v7h-7V239.7z M704.2,239.7h7v7h-7V239.7z
	 M711.4,239.7h7v7h-7V239.7z M755,239.7h7v7h-7V239.7z M776.8,239.7h7v7h-7V239.7z M820.3,239.7h7v7h-7V239.7z M827.6,239.7h7v7h-7
	V239.7z M65.3,247h7v7h-7V247z M87.1,247h7v7h-7V247z M116.1,247h7v7h-7V247z M159.7,247h7v7h-7V247z M166.9,247h7v7h-7V247z
	 M174.2,247h7v7h-7V247z M181.4,247h7v7h-7V247z M188.7,247h7v7h-7V247z M196,247h7v7h-7V247z M203.2,247h7v7h-7V247z M210.5,247h7
	v7h-7V247z M217.7,247h7v7h-7V247z M225,247h7v7h-7V247z M232.3,247h7v7h-7V247z M239.5,247h7v7h-7V247z M246.8,247h7v7h-7V247z
	 M254,247h7v7h-7V247z M261.3,247h7v7h-7V247z M268.6,247h7v7h-7V247z M275.8,247h7v7h-7V247z M283.1,247h7v7h-7V247z M290.3,247h7
	v7h-7V247z M297.6,247h7v7h-7V247z M304.9,247h7v7h-7V247z M312.1,247h7v7h-7V247z M319.4,247h7v7h-7V247z M326.6,247h7v7h-7V247z
	 M333.9,247h7v7h-7V247z M341.2,247h7v7h-7V247z M348.4,247h7v7h-7V247z M392,247h7v7h-7V247z M435.5,247h7v7h-7V247z M442.8,247h7
	v7h-7V247z M450.1,247h7v7h-7V247z M457.3,247h7v7h-7V247z M464.6,247h7v7h-7V247z M471.8,247h7v7h-7V247z M486.4,247h7v7h-7V247z
	 M493.6,247h7v7h-7V247z M500.9,247h7v7h-7V247z M508.1,247h7v7h-7V247z M515.4,247h7v7h-7V247z M522.7,247h7v7h-7V247z M529.9,247
	h7v7h-7V247z M537.2,247h7v7h-7V247z M544.4,247h7v7h-7V247z M551.7,247h7v7h-7V247z M566.2,247h7v7h-7V247z M573.5,247h7v7h-7V247z
	 M580.7,247h7v7h-7V247z M595.3,247h7v7h-7V247z M646.1,247h7v7h-7V247z M704.2,247h7v7h-7V247z M711.4,247h7v7h-7V247z M755,247h7
	v7h-7V247z M776.8,247h7v7h-7V247z M820.3,247h7v7h-7V247z M65.3,254.2h7v7h-7V254.2z M87.1,254.2h7v7h-7V254.2z M108.8,254.2h7v7
	h-7V254.2z M152.4,254.2h7v7h-7V254.2z M159.7,254.2h7v7h-7V254.2z M384.7,254.2h7v7h-7V254.2z M428.3,254.2h7v7h-7V254.2z
	 M457.3,254.2h7v7h-7V254.2z M471.8,254.2h7v7h-7V254.2z M493.6,254.2h7v7h-7V254.2z M500.9,254.2h7v7h-7V254.2z M508.1,254.2h7v7
	h-7V254.2z M515.4,254.2h7v7h-7V254.2z M522.7,254.2h7v7h-7V254.2z M529.9,254.2h7v7h-7V254.2z M537.2,254.2h7v7h-7V254.2z
	 M544.4,254.2h7v7h-7V254.2z M566.2,254.2h7v7h-7V254.2z M580.7,254.2h7v7h-7V254.2z M595.3,254.2h7v7h-7V254.2z M646.1,254.2h7v7
	h-7V254.2z M675.1,261.5h7v7h-7V261.5z M704.2,254.2h7v7h-7V254.2z M711.4,254.2h7v7h-7V254.2z M755,254.2h7v7h-7V254.2z
	 M776.8,254.2h7v7h-7V254.2z M820.3,254.2h7v7h-7V254.2z M65.3,261.5h7v7h-7V261.5z M94.3,261.5h7v7h-7V261.5z M101.6,261.5h7v7h-7
	V261.5z M145.1,261.5h7v7h-7V261.5z M377.5,261.5h7v7h-7V261.5z M421,261.5h7v7h-7V261.5z M457.3,261.5h7v7h-7V261.5z M471.8,261.5
	h7v7h-7V261.5z M500.9,261.5h7v7h-7V261.5z M508.1,261.5h7v7h-7V261.5z M515.4,261.5h7v7h-7V261.5z M522.7,261.5h7v7h-7V261.5z
	 M529.9,261.5h7v7h-7V261.5z M537.2,261.5h7v7h-7V261.5z M566.2,261.5h7v7h-7V261.5z M573.5,261.5h7v7h-7V261.5z M580.7,261.5h7v7
	h-7V261.5z M595.3,261.5h7v7h-7V261.5z M646.1,261.5h7v7h-7V261.5z M667.9,261.5h7v7h-7V261.5z M682.4,261.5h7v7h-7V261.5z
	 M704.2,261.5h7v7h-7V261.5z M711.4,261.5h7v7h-7V261.5z M755,261.5h7v7h-7V261.5z M776.8,261.5h7v7h-7V261.5z M820.3,261.5h7v7h-7
	V261.5z M834.8,261.5h7v7h-7V261.5z M842.1,261.5h7v7h-7V261.5z M849.4,261.5h7v7h-7V261.5z M58,268.8h7v7h-7V268.8z M137.9,268.8h7
	v7h-7V268.8z M174.2,268.8h7v7h-7V268.8z M181.4,268.8h7v7h-7V268.8z M188.7,268.8h7v7h-7V268.8z M254,268.8h7v7h-7V268.8z
	 M261.3,268.8h7v7h-7V268.8z M268.6,268.8h7v7h-7V268.8z M370.2,268.8h7v7h-7V268.8z M413.8,268.8h7v7h-7V268.8z M450.1,268.8h7v7
	h-7V268.8z M457.3,268.8h7v7h-7V268.8z M471.8,268.8h7v7h-7V268.8z M464.6,268.8h7v7h-7V268.8z M479.1,268.8h7v7h-7V268.8z
	 M486.4,268.8h7v7h-7V268.8z M493.6,268.8h7v7h-7V268.8z M508.1,268.8h7v7h-7V268.8z M515.4,268.8h7v7h-7V268.8z M522.7,268.8h7v7
	h-7V268.8z M529.9,268.8h7v7h-7V268.8z M537.2,290.5h7v7h-7V290.5z M573.5,268.8h7v7h-7V268.8z M595.3,268.8h7v7h-7V268.8z
	 M646.1,268.8h7v7h-7V268.8z M667.9,268.8h7v7h-7V268.8z M682.4,268.8h7v7h-7V268.8z M704.2,268.8h7v7h-7V268.8z M711.4,268.8h7v7
	h-7V268.8z M755,268.8h7v7h-7V268.8z M776.8,268.8h7v7h-7V268.8z M820.3,268.8h7v7h-7V268.8z M834.8,268.8h7v7h-7V268.8z
	 M849.4,268.8h7v7h-7V268.8z M50.8,276h7v7h-7V276z M79.8,283.3h7v7h-7V283.3z M130.6,276h7v7h-7V276z M174.2,276h7v7h-7V276z
	 M188.7,276h7v7h-7V276z M232.3,276h7v7h-7V276z M239.5,276h7v7h-7V276z M246.8,276h7v7h-7V276z M254,276h7v7h-7V276z M268.6,276h7
	v7h-7V276z M290.3,276h7v7h-7V276z M297.6,276h7v7h-7V276z M304.9,276h7v7h-7V276z M312.1,276h7v7h-7V276z M319.4,276h7v7h-7V276z
	 M326.6,276h7v7h-7V276z M333.9,276h7v7h-7V276z M341.2,276h7v7h-7V276z M348.4,276h7v7h-7V276z M355.7,276h7v7h-7V276z M362.9,276
	h7v7h-7V276z M406.5,276h7v7h-7V276z M442.8,276h7v7h-7V276z M479.1,276h7v7h-7V276z M493.6,276h7v7h-7V276z M515.4,276h7v7h-7V276z
	 M522.7,276h7v7h-7V276z M537.2,276h7v7h-7V276z M544.4,276h7v7h-7V276z M551.7,276h7v7h-7V276z M559,276h7v7h-7V276z M573.5,276h7
	v7h-7V276z M595.3,276h7v7h-7V276z M646.1,276h7v7h-7V276z M667.9,276h7v7h-7V276z M675.1,276h7v7h-7V276z M682.4,276h7v7h-7V276z
	 M704.2,276h7v7h-7V276z M711.4,276h7v7h-7V276z M755,276h7v7h-7V276z M776.8,276h7v7h-7V276z M820.3,276h7v7h-7V276z M834.8,276h7
	v7h-7V276z M842.1,276h7v7h-7V276z M849.4,276h7v7h-7V276z M43.5,283.3h7v7h-7V283.3z M72.5,283.3h7v7h-7V283.3z M87.1,283.3h7v7h-7
	V283.3z M123.4,283.3h7v7h-7V283.3z M174.2,283.3h7v7h-7V283.3z M181.4,283.3h7v7h-7V283.3z M188.7,283.3h7v7h-7V283.3z
	 M217.7,283.3h7v7h-7V283.3z M225,283.3h7v7h-7V283.3z M254,283.3h7v7h-7V283.3z M261.3,283.3h7v7h-7V283.3z M268.6,283.3h7v7h-7
	V283.3z M283.1,283.3h7v7h-7V283.3z M399.2,283.3h7v7h-7V283.3z M435.5,283.3h7v7h-7V283.3z M479.1,283.3h7v7h-7V283.3z
	 M486.4,283.3h7v7h-7V283.3z M493.6,283.3h7v7h-7V283.3z M537.2,283.3h7v7h-7V283.3z M559,283.3h7v7h-7V283.3z M573.5,283.3h7v7h-7
	V283.3z M595.3,283.3h7v7h-7V283.3z M646.1,283.3h7v7h-7V283.3z M675.1,283.3h7v7h-7V283.3z M704.2,283.3h7v7h-7V283.3z
	 M711.4,283.3h7v7h-7V283.3z M755,283.3h7v7h-7V283.3z M776.8,283.3h7v7h-7V283.3z M820.3,283.3h7v7h-7V283.3z M842.1,283.3h7v7h-7
	V283.3z M36.2,290.5h7v7h-7V290.5z M72.5,290.5h7v7h-7V290.5z M87.1,290.5h7v7h-7V290.5z M116.1,290.5h7v7h-7V290.5z M123.4,290.5h7
	v7h-7V290.5z M181.4,290.5h7v7h-7V290.5z M210.5,290.5h7v7h-7V290.5z M217.7,290.5h7v7h-7V290.5z M275.8,290.5h7v7h-7V290.5z
	 M319.4,290.5h7v7h-7V290.5z M326.6,290.5h7v7h-7V290.5z M333.9,290.5h7v7h-7V290.5z M341.2,290.5h7v7h-7V290.5z M348.4,290.5h7v7
	h-7V290.5z M355.7,290.5h7v7h-7V290.5z M362.9,290.5h7v7h-7V290.5z M370.2,290.5h7v7h-7V290.5z M377.5,290.5h7v7h-7V290.5z
	 M392,290.5h7v7h-7V290.5z M428.3,290.5h7v7h-7V290.5z M435.5,290.5h7v7h-7V290.5z M479.1,290.5h7v7h-7V290.5z M544.4,290.5h7v7h-7
	V290.5z M551.7,290.5h7v7h-7V290.5z M559,290.5h7v7h-7V290.5z M573.5,290.5h7v7h-7V290.5z M595.3,290.5h7v7h-7V290.5z M646.1,290.5
	h7v7h-7V290.5z M675.1,290.5h7v7h-7V290.5z M704.2,290.5h7v7h-7V290.5z M711.4,290.5h7v7h-7V290.5z M755,290.5h7v7h-7V290.5z
	 M776.8,290.5h7v7h-7V290.5z M820.3,290.5h7v7h-7V290.5z M842.1,290.5h7v7h-7V290.5z M36.2,297.8h7v7h-7V297.8z M72.5,297.8h7v7h-7
	V297.8z M87.1,297.8h7v7h-7V297.8z M79.8,297.8h7v7h-7V297.8z M108.8,297.8h7v7h-7V297.8z M116.1,297.8h7v7h-7V297.8z M123.4,297.8
	h7v7h-7V297.8z M130.6,297.8h7v7h-7V297.8z M181.4,297.8h7v7h-7V297.8z M196,297.8h7v7h-7V297.8z M203.2,297.8h7v7h-7V297.8z
	 M210.5,297.8h7v7h-7V297.8z M225,276h7v7h-7V276z M268.6,297.8h7v7h-7V297.8z M304.9,297.8h7v7h-7V297.8z M312.1,297.8h7v7h-7
	V297.8z M319.4,297.8h7v7h-7V297.8z M326.6,297.8h7v7h-7V297.8z M333.9,297.8h7v7h-7V297.8z M341.2,297.8h7v7h-7V297.8z
	 M348.4,297.8h7v7h-7V297.8z M355.7,297.8h7v7h-7V297.8z M362.9,297.8h7v7h-7V297.8z M370.2,297.8h7v7h-7V297.8z M377.5,297.8h7v7
	h-7V297.8z M384.7,297.8h7v7h-7V297.8z M421,297.8h7v7h-7V297.8z M428.3,297.8h7v7h-7V297.8z M471.8,297.8h7v7h-7V297.8z
	 M500.9,297.8h7v7h-7V297.8z M508.1,297.8h7v7h-7V297.8z M515.4,297.8h7v7h-7V297.8z M544.4,297.8h7v7h-7V297.8z M551.7,297.8h7v7
	h-7V297.8z M573.5,297.8h7v7h-7V297.8z M595.3,297.8h7v7h-7V297.8z M646.1,297.8h7v7h-7V297.8z M675.1,297.8h7v7h-7V297.8z
	 M704.2,297.8h7v7h-7V297.8z M711.4,297.8h7v7h-7V297.8z M755,297.8h7v7h-7V297.8z M776.8,297.8h7v7h-7V297.8z M820.3,297.8h7v7h-7
	V297.8z M842.1,297.8h7v7h-7V297.8z M36.2,305.1h7v7h-7V305.1z M65.3,305.1h7v7h-7V305.1z M101.6,305.1h7v7h-7V305.1z M116.1,305.1
	h7v7h-7V305.1z M123.4,305.1h7v7h-7V305.1z M130.6,305.1h7v7h-7V305.1z M137.9,305.1h7v7h-7V305.1z M181.4,305.1h7v7h-7V305.1z
	 M188.7,305.1h7v7h-7V305.1z M196,305.1h7v7h-7V305.1z M210.5,305.1h7v7h-7V305.1z M261.3,305.1h7v7h-7V305.1z M297.6,305.1h7v7h-7
	V305.1z M304.9,305.1h7v7h-7V305.1z M413.8,305.1h7v7h-7V305.1z M421,305.1h7v7h-7V305.1z M464.6,305.1h7v7h-7V305.1z M500.9,305.1
	h7v7h-7V305.1z M515.4,305.1h7v7h-7V305.1z M544.4,305.1h7v7h-7V305.1z M551.7,305.1h7v7h-7V305.1z M573.5,305.1h7v7h-7V305.1z
	 M595.3,305.1h7v7h-7V305.1z M646.1,305.1h7v7h-7V305.1z M675.1,305.1h7v7h-7V305.1z M704.2,305.1h7v7h-7V305.1z M711.4,305.1h7v7
	h-7V305.1z M755,305.1h7v7h-7V305.1z M776.8,305.1h7v7h-7V305.1z M820.3,305.1h7v7h-7V305.1z M842.1,305.1h7v7h-7V305.1z
	 M36.2,312.3h7v7h-7V312.3z M58,312.3h7v7h-7V312.3z M94.3,312.3h7v7h-7V312.3z M108.8,312.3h7v7h-7V312.3z M123.4,312.3h7v7h-7
	V312.3z M130.6,312.3h7v7h-7V312.3z M137.9,312.3h7v7h-7V312.3z M145.1,312.3h7v7h-7V312.3z M181.4,312.3h7v7h-7V312.3z M196,312.3
	h7v7h-7V312.3z M203.2,312.3h7v7h-7V312.3z M210.5,312.3h7v7h-7V312.3z M254,312.3h7v7h-7V312.3z M290.3,312.3h7v7h-7V312.3z
	 M297.6,312.3h7v7h-7V312.3z M326.6,312.3h7v7h-7V312.3z M333.9,312.3h7v7h-7V312.3z M341.2,312.3h7v7h-7V312.3z M348.4,312.3h7v7
	h-7V312.3z M355.7,312.3h7v7h-7V312.3z M362.9,312.3h7v7h-7V312.3z M370.2,312.3h7v7h-7V312.3z M377.5,312.3h7v7h-7V312.3z
	 M384.7,312.3h7v7h-7V312.3z M392,312.3h7v7h-7V312.3z M399.2,312.3h7v7h-7V312.3z M406.5,312.3h7v7h-7V312.3z M428.3,312.3h7v7h-7
	V312.3z M435.5,312.3h7v7h-7V312.3z M442.8,312.3h7v7h-7V312.3z M450.1,312.3h7v7h-7V312.3z M457.3,312.3h7v7h-7V312.3z
	 M500.9,312.3h7v7h-7V312.3z M508.1,312.3h7v7h-7V312.3z M515.4,312.3h7v7h-7V312.3z M544.4,312.3h7v7h-7V312.3z M551.7,312.3h7v7
	h-7V312.3z M573.5,312.3h7v7h-7V312.3z M595.3,312.3h7v7h-7V312.3z M646.1,312.3h7v7h-7V312.3z M675.1,312.3h7v7h-7V312.3z
	 M704.2,312.3h7v7h-7V312.3z M711.4,312.3h7v7h-7V312.3z M755,312.3h7v7h-7V312.3z M776.8,312.3h7v7h-7V312.3z M820.3,312.3h7v7h-7
	V312.3z M842.1,312.3h7v7h-7V312.3z M36.2,319.6h7v7h-7V319.6z M87.1,319.6h7v7h-7V319.6z M101.6,319.6h7v7h-7V319.6z M116.1,319.6
	h7v7h-7V319.6z M123.4,319.6h7v7h-7V319.6z M130.6,319.6h7v7h-7V319.6z M137.9,319.6h7v7h-7V319.6z M145.1,319.6h7v7h-7V319.6z
	 M152.4,319.6h7v7h-7V319.6z M181.4,319.6h7v7h-7V319.6z M246.8,319.6h7v7h-7V319.6z M283.1,319.6h7v7h-7V319.6z M290.3,319.6h7v7
	h-7V319.6z M319.4,319.6h7v7h-7V319.6z M326.6,319.6h7v7h-7V319.6z M421,319.6h7v7h-7V319.6z M442.8,326.8h7v7h-7V326.8z
	 M508.1,319.6h7v7h-7V319.6z M544.4,319.6h7v7h-7V319.6z M551.7,319.6h7v7h-7V319.6z M573.5,319.6h7v7h-7V319.6z M595.3,319.6h7v7
	h-7V319.6z M646.1,319.6h7v7h-7V319.6z M675.1,319.6h7v7h-7V319.6z M704.2,319.6h7v7h-7V319.6z M711.4,319.6h7v7h-7V319.6z
	 M755,319.6h7v7h-7V319.6z M776.8,319.6h7v7h-7V319.6z M820.3,319.6h7v7h-7V319.6z M842.1,319.6h7v7h-7V319.6z M36.2,326.8h7v7h-7
	V326.8z M79.8,326.8h7v7h-7V326.8z M94.3,326.8h7v7h-7V326.8z M108.8,326.8h7v7h-7V326.8z M123.4,326.8h7v7h-7V326.8z M130.6,326.8
	h7v7h-7V326.8z M137.9,326.8h7v7h-7V326.8z M145.1,326.8h7v7h-7V326.8z M181.4,326.8h7v7h-7V326.8z M239.5,326.8h7v7h-7V326.8z
	 M275.8,326.8h7v7h-7V326.8z M283.1,326.8h7v7h-7V326.8z M312.1,326.8h7v7h-7V326.8z M319.4,326.8h7v7h-7V326.8z M355.7,326.7h7v7
	h-7V326.7z M362.9,326.7h7v7h-7V326.7z M413.8,326.8h7v7h-7V326.8z M450.1,326.8h7v7h-7V326.8z M457.3,326.8h7v7h-7V326.8z
	 M479.1,326.8h7v7h-7V326.8z M486.4,326.8h7v7h-7V326.8z M493.6,326.8h7v7h-7V326.8z M500.9,326.8h7v7h-7V326.8z M508.1,326.8h7v7
	h-7V326.8z M544.4,326.8h7v7h-7V326.8z M551.7,326.8h7v7h-7V326.8z M573.5,326.8h7v7h-7V326.8z M595.3,326.8h7v7h-7V326.8z
	 M646.1,326.8h7v7h-7V326.8z M675.1,326.8h7v7h-7V326.8z M704.2,326.8h7v7h-7V326.8z M711.4,326.8h7v7h-7V326.8z M755,326.8h7v7h-7
	V326.8z M776.8,326.8h7v7h-7V326.8z M820.3,326.8h7v7h-7V326.8z M842.1,326.8h7v7h-7V326.8z M36.2,334.1h7v7h-7V334.1z M72.5,334.1
	h7v7h-7V334.1z M87.1,334.1h7v7h-7V334.1z M116.1,334.1h7v7h-7V334.1z M130.6,334.1h7v7h-7V334.1z M137.9,334.1h7v7h-7V334.1z
	 M181.4,334.1h7v7h-7V334.1z M232.3,334.1h7v7h-7V334.1z M268.6,334.1h7v7h-7V334.1z M275.8,334.1h7v7h-7V334.1z M304.9,334.1h7v7
	h-7V334.1z M312.1,334.1h7v7h-7V334.1z M348.4,334h7v7h-7V334z M370.2,334h7v7h-7V334z M406.5,334.1h7v7h-7V334.1z M442.8,334.1h7v7
	h-7V334.1z M457.3,334.1h7v7h-7V334.1z M479.1,334.1h7v7h-7V334.1z M500.9,334.1h7v7h-7V334.1z M508.1,334.1h7v7h-7V334.1z
	 M544.4,334.1h7v7h-7V334.1z M551.7,334.1h7v7h-7V334.1z M573.5,334.1h7v7h-7V334.1z M595.3,334.1h7v7h-7V334.1z M646.1,334.1h7v7
	h-7V334.1z M675.1,334.1h7v7h-7V334.1z M704.2,334.1h7v7h-7V334.1z M711.4,334.1h7v7h-7V334.1z M755,334.1h7v7h-7V334.1z
	 M776.8,334.1h7v7h-7V334.1z M820.3,334.1h7v7h-7V334.1z M842.1,334.1h7v7h-7V334.1z M36.2,341.4h7v7h-7V341.4z M58,319.6h7v7h-7
	V319.6z M58,326.8h7v7h-7V326.8z M58,334.1h7v7h-7V334.1z M58,341.4h7v7h-7V341.4z M58.1,355.9h7v7h-7V355.9z M65.3,341.4h7v7h-7
	V341.4z M79.8,341.4h7v7h-7V341.4z M123.4,341.4h7v7h-7V341.4z M181.4,341.4h7v7h-7V341.4z M225,341.4h7v7h-7V341.4z M261.3,341.4h7
	v7h-7V341.4z M268.6,341.4h7v7h-7V341.4z M297.6,341.4h7v7h-7V341.4z M304.9,341.4h7v7h-7V341.4z M312.1,341.4h7v7h-7V341.4z
	 M348.4,341.2h7v7h-7V341.2z M370.2,341.2h7v7h-7V341.2z M399.2,341.4h7v7h-7V341.4z M442.8,341.4h7v7h-7V341.4z M450.1,341.4h7v7
	h-7V341.4z M457.3,341.4h7v7h-7V341.4z M479.1,341.4h7v7h-7V341.4z M486.4,341.4h7v7h-7V341.4z M493.6,341.4h7v7h-7V341.4z
	 M500.9,341.4h7v7h-7V341.4z M508.1,341.4h7v7h-7V341.4z M544.4,341.4h7v7h-7V341.4z M551.7,341.4h7v7h-7V341.4z M573.5,341.4h7v7
	h-7V341.4z M595.3,341.4h7v7h-7V341.4z M602.5,341.4h7v7h-7V341.4z M646.1,341.4h7v7h-7V341.4z M675.1,341.4h7v7h-7V341.4z
	 M704.2,341.4h7v7h-7V341.4z M711.4,341.4h7v7h-7V341.4z M755,341.4h7v7h-7V341.4z M776.8,341.4h7v7h-7V341.4z M820.3,341.4h7v7h-7
	V341.4z M842.1,341.4h7v7h-7V341.4z M36.2,348.6h7v7h-7V348.6z M58,348.6h7v7h-7V348.6z M65.3,348.6h7v7h-7V348.6z M72.5,348.6h7v7
	h-7V348.6z M116.1,348.6h7v7h-7V348.6z M145.1,348.6h7v7h-7V348.6z M152.4,348.6h7v7h-7V348.6z M159.7,348.6h7v7h-7V348.6z
	 M181.4,348.6h7v7h-7V348.6z M217.7,348.6h7v7h-7V348.6z M254,348.6h7v7h-7V348.6z M261.3,348.6h7v7h-7V348.6z M297.6,348.6h7v7h-7
	V348.6z M304.9,348.6h7v7h-7V348.6z M312.1,348.6h7v7h-7V348.6z M319.4,348.6h7v7h-7V348.6z M326.6,348.6h7v7h-7V348.6z
	 M355.7,348.5h7v7h-7V348.5z M362.9,348.5h7v7h-7V348.5z M392,348.6h7v7h-7V348.6z M406.5,348.6h7v7h-7V348.6z M413.8,348.6h7v7h-7
	V348.6z M421,348.6h7v7h-7V348.6z M450.1,348.6h7v7h-7V348.6z M486.4,348.6h7v7h-7V348.6z M493.6,348.6h7v7h-7V348.6z M486.4,355.9
	h7v7h-7V355.9z M493.6,355.9h7v7h-7V355.9z M508.1,348.6h7v7h-7V348.6z M544.4,348.6h7v7h-7V348.6z M551.7,348.6h7v7h-7V348.6z
	 M573.5,348.6h7v7h-7V348.6z M595.3,348.6h7v7h-7V348.6z M602.5,348.6h7v7h-7V348.6z M646.1,348.6h7v7h-7V348.6z M675.1,348.6h7v7
	h-7V348.6z M682.4,348.6h7v7h-7V348.6z M704.2,348.6h7v7h-7V348.6z M711.4,348.6h7v7h-7V348.6z M755,348.6h7v7h-7V348.6z
	 M776.8,348.6h7v7h-7V348.6z M820.3,348.6h7v7h-7V348.6z M842.1,348.6h7v7h-7V348.6z M36.2,355.9h7v7h-7V355.9z M50.8,355.9h7v7h-7
	V355.9z M108.8,355.9h7v7h-7V355.9z M145.1,355.9h7v7h-7V355.9z M159.7,355.9h7v7h-7V355.9z M174.2,355.9h7v7h-7V355.9z
	 M181.4,355.9h7v7h-7V355.9z M188.7,355.9h7v7h-7V355.9z M210.5,355.9h7v7h-7V355.9z M217.7,355.9h7v7h-7V355.9z M254,355.9h7v7h-7
	V355.9z M290.3,355.9h7v7h-7V355.9z M297.6,355.9h7v7h-7V355.9z M312.1,355.9h7v7h-7V355.9z M326.6,355.9h7v7h-7V355.9z
	 M384.7,355.9h7v7h-7V355.9z M406.5,355.9h7v7h-7V355.9z M406.5,363.1h7v7h-7V363.1z M450.1,355.9h7v7h-7V355.9z M508.1,355.9h7v7
	h-7V355.9z M544.4,355.9h7v7h-7V355.9z M551.7,355.9h7v7h-7V355.9z M573.5,355.9h7v7h-7V355.9z M595.3,355.9h7v7h-7V355.9z
	 M602.5,355.9h7v7h-7V355.9z M609.8,355.9h7v7h-7V355.9z M638.8,355.9h7v7h-7V355.9z M646.1,355.9h7v7h-7V355.9z M653.3,355.9h7v7
	h-7V355.9z M682.4,355.9h7v7h-7V355.9z M689.6,355.9h7v7h-7V355.9z M704.2,355.9h7v7h-7V355.9z M711.4,355.9h7v7h-7V355.9z
	 M755,355.9h7v7h-7V355.9z M776.8,355.9h7v7h-7V355.9z M820.3,355.9h7v7h-7V355.9z M842.1,355.9h7v7h-7V355.9z M849.4,355.9h7v7h-7
	V355.9z M36.2,363.1h7v7h-7V363.1z M50.8,363.1h7v7h-7V363.1z M101.6,363.1h7v7h-7V363.1z M108.8,370.4h7v7h-7V370.4z M116.1,370.4
	h7v7h-7V370.4z M145.1,363.1h7v7h-7V363.1z M152.4,363.1h7v7h-7V363.1z M159.7,363.1h7v7h-7V363.1z M174.2,363.1h7v7h-7V363.1z
	 M181.4,363.1h7v7h-7V363.1z M188.7,363.1h7v7h-7V363.1z M203.2,363.1h7v7h-7V363.1z M210.5,363.1h7v7h-7V363.1z M217.7,363.1h7v7
	h-7V363.1z M254,363.1h7v7h-7V363.1z M290.3,363.1h7v7h-7V363.1z M297.6,363.1h7v7h-7V363.1z M312.1,363.1h7v7h-7V363.1z
	 M319.4,363.1h7v7h-7V363.1z M326.6,363.1h7v7h-7V363.1z M384.7,363.1h7v7h-7V363.1z M413.8,363.1h7v7h-7V363.1z M421,363.1h7v7h-7
	V363.1z M421,355.9h7v7h-7V355.9z M450.1,363.1h7v7h-7V363.1z M457.3,363.1h7v7h-7V363.1z M464.6,363.1h7v7h-7V363.1z M508.1,363.1
	h7v7h-7V363.1z M544.4,363.1h7v7h-7V363.1z M551.7,363.1h7v7h-7V363.1z M573.5,363.1h7v7h-7V363.1z M595.3,363.1h7v7h-7V363.1z
	 M602.5,363.1h7v7h-7V363.1z M609.8,363.1h7v7h-7V363.1z M617,363.1h7v7h-7V363.1z M638.8,363.1h7v7h-7V363.1z M646.1,363.1h7v7h-7
	V363.1z M653.3,363.1h7v7h-7V363.1z M682.4,363.1h7v7h-7V363.1z M689.6,363.1h7v7h-7V363.1z M704.2,363.1h7v7h-7V363.1z
	 M711.4,363.1h7v7h-7V363.1z M755,363.1h7v7h-7V363.1z M776.8,363.1h7v7h-7V363.1z M820.3,363.1h7v7h-7V363.1z M842.1,363.1h7v7h-7
	V363.1z M849.4,363.1h7v7h-7V363.1z M856.6,363.1h7v7h-7V363.1z M36.2,370.4h7v7h-7V370.4z M50.8,370.4h7v7h-7V370.4z M94.3,370.4h7
	v7h-7V370.4z M108.8,377.7h7v7h-7V377.7z M123.4,370.4h7v7h-7V370.4z M152.4,370.4h7v7h-7V370.4z M174.2,370.4h7v7h-7V370.4z
	 M181.4,370.4h7v7h-7V370.4z M188.7,370.4h7v7h-7V370.4z M203.2,370.4h7v7h-7V370.4z M210.5,370.4h7v7h-7V370.4z M217.7,370.4h7v7
	h-7V370.4z M254,370.4h7v7h-7V370.4z M290.3,370.4h7v7h-7V370.4z M297.6,370.4h7v7h-7V370.4z M319.4,370.4h7v7h-7V370.4z
	 M384.7,370.4h7v7h-7V370.4z M413.8,370.4h7v7h-7V370.4z M450.1,370.4h7v7h-7V370.4z M457.3,370.4h7v7h-7V370.4z M464.6,370.4h7v7
	h-7V370.4z M471.8,370.4h7v7h-7V370.4z M508.1,370.4h7v7h-7V370.4z M544.4,370.4h7v7h-7V370.4z M551.7,370.4h7v7h-7V370.4z
	 M573.5,370.4h7v7h-7V370.4z M595.3,370.4h7v7h-7V370.4z M602.5,370.4h7v7h-7V370.4z M609.8,370.4h7v7h-7V370.4z M617,370.4h7v7h-7
	V370.4z M638.8,370.4h7v7h-7V370.4z M646.1,370.4h7v7h-7V370.4z M653.3,370.4h7v7h-7V370.4z M682.4,370.4h7v7h-7V370.4z
	 M689.6,370.4h7v7h-7V370.4z M711.4,370.4h7v7h-7V370.4z M755,370.4h7v7h-7V370.4z M776.8,370.4h7v7h-7V370.4z M820.3,370.4h7v7h-7
	V370.4z M842.1,370.4h7v7h-7V370.4z M849.4,370.4h7v7h-7V370.4z M856.6,370.4h7v7h-7V370.4z M863.9,370.4h7v7h-7V370.4z M36.2,377.7
	h7v7h-7V377.7z M50.8,377.7h7v7h-7V377.7z M87.1,377.7h7v7h-7V377.7z M94.3,377.7h7v7h-7V377.7z M108.8,384.9h7v7h-7V384.9z
	 M123.4,377.7h7v7h-7V377.7z M152.4,377.7h7v7h-7V377.7z M174.2,377.7h7v7h-7V377.7z M181.4,377.7h7v7h-7V377.7z M188.7,377.7h7v7
	h-7V377.7z M203.2,377.7h7v7h-7V377.7z M210.5,377.7h7v7h-7V377.7z M217.7,377.7h7v7h-7V377.7z M254,377.7h7v7h-7V377.7z
	 M290.3,377.7h7v7h-7V377.7z M297.6,377.7h7v7h-7V377.7z M319.4,377.7h7v7h-7V377.7z M384.7,377.7h7v7h-7V377.7z M413.8,377.7h7v7
	h-7V377.7z M450.1,377.7h7v7h-7V377.7z M471.8,377.7h7v7h-7V377.7z M508.1,377.7h7v7h-7V377.7z M544.4,377.7h7v7h-7V377.7z
	 M551.7,377.7h7v7h-7V377.7z M573.5,377.7h7v7h-7V377.7z M595.3,377.7h7v7h-7V377.7z M602.5,377.7h7v7h-7V377.7z M609.8,377.7h7v7
	h-7V377.7z M617,377.7h7v7h-7V377.7z M638.8,377.7h7v7h-7V377.7z M646.1,377.7h7v7h-7V377.7z M653.3,377.7h7v7h-7V377.7z
	 M682.4,377.7h7v7h-7V377.7z M689.6,377.7h7v7h-7V377.7z M711.4,377.7h7v7h-7V377.7z M755,377.7h7v7h-7V377.7z M776.8,377.7h7v7h-7
	V377.7z M820.3,377.7h7v7h-7V377.7z M842.1,377.7h7v7h-7V377.7z M849.4,377.7h7v7h-7V377.7z M856.6,377.7h7v7h-7V377.7z
	 M863.9,377.7h7v7h-7V377.7z M36.2,384.9h7v7h-7V384.9z M50.8,384.9h7v7h-7V384.9z M58,384.9h7v7h-7V384.9z M87.1,384.9h7v7h-7
	V384.9z M94.3,384.9h7v7h-7V384.9z M116.1,384.9h7v7h-7V384.9z M123.4,384.9h7v7h-7V384.9z M152.4,384.9h7v7h-7V384.9z M181.4,384.9
	h7v7h-7V384.9z M188.7,384.9h7v7h-7V384.9z M203.2,384.9h7v7h-7V384.9z M210.5,384.9h7v7h-7V384.9z M217.7,384.9h7v7h-7V384.9z
	 M254,384.9h7v7h-7V384.9z M290.3,384.9h7v7h-7V384.9z M297.6,384.9h7v7h-7V384.9z M319.4,384.9h7v7h-7V384.9z M384.7,384.9h7v7h-7
	V384.9z M413.8,384.9h7v7h-7V384.9z M450.1,384.9h7v7h-7V384.9z M471.8,384.9h7v7h-7V384.9z M508.1,384.9h7v7h-7V384.9z
	 M544.4,384.9h7v7h-7V384.9z M551.7,384.9h7v7h-7V384.9z M573.5,384.9h7v7h-7V384.9z M595.3,384.9h7v7h-7V384.9z M602.5,384.9h7v7
	h-7V384.9z M609.8,384.9h7v7h-7V384.9z M617,384.9h7v7h-7V384.9z M638.8,384.9h7v7h-7V384.9z M646.1,384.9h7v7h-7V384.9z
	 M653.3,384.9h7v7h-7V384.9z M682.4,384.9h7v7h-7V384.9z M689.6,384.9h7v7h-7V384.9z M711.4,384.9h7v7h-7V384.9z M755,384.9h7v7h-7
	V384.9z M776.8,384.9h7v7h-7V384.9z M820.3,384.9h7v7h-7V384.9z M842.1,384.9h7v7h-7V384.9z M849.4,384.9h7v7h-7V384.9z
	 M856.6,384.9h7v7h-7V384.9z M863.9,384.9h7v7h-7V384.9z M36.2,392.2h7v7h-7V392.2z M50.8,392.2h7v7h-7V392.2z M58,392.2h7v7h-7
	V392.2z M87.1,392.2h7v7h-7V392.2z M94.3,392.2h7v7h-7V392.2z M152.4,392.2h7v7h-7V392.2z M181.4,392.2h7v7h-7V392.2z M188.7,392.2
	h7v7h-7V392.2z M203.2,392.2h7v7h-7V392.2z M210.5,392.2h7v7h-7V392.2z M217.7,392.2h7v7h-7V392.2z M254,392.2h7v7h-7V392.2z
	 M290.3,392.2h7v7h-7V392.2z M297.6,392.2h7v7h-7V392.2z M319.4,392.2h7v7h-7V392.2z M384.7,392.2h7v7h-7V392.2z M413.8,392.2h7v7
	h-7V392.2z M450.1,392.2h7v7h-7V392.2z M471.8,392.2h7v7h-7V392.2z M508.1,392.2h7v7h-7V392.2z M544.4,392.2h7v7h-7V392.2z
	 M551.7,392.2h7v7h-7V392.2z M573.5,392.2h7v7h-7V392.2z M595.3,392.2h7v7h-7V392.2z M602.5,392.2h7v7h-7V392.2z M609.8,392.2h7v7
	h-7V392.2z M617,392.2h7v7h-7V392.2z M638.8,392.2h7v7h-7V392.2z M646.1,392.2h7v7h-7V392.2z M653.3,392.2h7v7h-7V392.2z
	 M682.4,392.2h7v7h-7V392.2z M689.6,392.2h7v7h-7V392.2z M711.4,392.2h7v7h-7V392.2z M755,392.2h7v7h-7V392.2z M776.8,392.2h7v7h-7
	V392.2z M820.3,392.2h7v7h-7V392.2z M842.1,392.2h7v7h-7V392.2z M849.4,392.2h7v7h-7V392.2z M856.6,392.2h7v7h-7V392.2z
	 M863.9,392.2h7v7h-7V392.2z M36.2,399.4h7v7h-7V399.4z M50.8,399.4h7v7h-7V399.4z M58,399.4h7v7h-7V399.4z M87.1,399.4h7v7h-7
	V399.4z M94.3,399.4h7v7h-7V399.4z M152.4,399.4h7v7h-7V399.4z M181.4,399.4h7v7h-7V399.4z M188.7,399.4h7v7h-7V399.4z M203.2,399.4
	h7v7h-7V399.4z M210.5,399.4h7v7h-7V399.4z M217.7,399.4h7v7h-7V399.4z M254,399.4h7v7h-7V399.4z M290.3,399.4h7v7h-7V399.4z
	 M297.6,399.4h7v7h-7V399.4z M319.4,399.4h7v7h-7V399.4z M384.7,399.4h7v7h-7V399.4z M413.8,399.4h7v7h-7V399.4z M442.8,399.4h7v7
	h-7V399.4z M450.1,399.4h7v7h-7V399.4z M471.8,399.4h7v7h-7V399.4z M508.1,399.4h7v7h-7V399.4z M544.4,399.4h7v7h-7V399.4z
	 M551.7,399.4h7v7h-7V399.4z M573.5,399.4h7v7h-7V399.4z M595.3,399.4h7v7h-7V399.4z M602.5,399.4h7v7h-7V399.4z M609.8,399.4h7v7
	h-7V399.4z M617,399.4h7v7h-7V399.4z M646.1,399.4h7v7h-7V399.4z M653.3,399.4h7v7h-7V399.4z M682.4,399.4h7v7h-7V399.4z
	 M689.6,399.4h7v7h-7V399.4z M711.4,399.4h7v7h-7V399.4z M755,399.4h7v7h-7V399.4z M776.8,399.4h7v7h-7V399.4z M813.1,399.4h7v7h-7
	V399.4z M820.3,399.4h7v7h-7V399.4z M827.6,399.4h7v7h-7V399.4z M842.1,399.4h7v7h-7V399.4z M849.4,399.4h7v7h-7V399.4z
	 M856.6,399.4h7v7h-7V399.4z M863.9,399.4h7v7h-7V399.4z M36.2,406.7h7v7h-7V406.7z M50.8,406.7h7v7h-7V406.7z M58,406.7h7v7h-7
	V406.7z M87.1,406.7h7v7h-7V406.7z M94.3,406.7h7v7h-7V406.7z M116.1,406.7h7v7h-7V406.7z M123.4,406.7h7v7h-7V406.7z M152.4,406.7
	h7v7h-7V406.7z M181.4,406.7h7v7h-7V406.7z M188.7,406.7h7v7h-7V406.7z M203.2,406.7h7v7h-7V406.7z M210.5,406.7h7v7h-7V406.7z
	 M217.7,406.7h7v7h-7V406.7z M254,406.7h7v7h-7V406.7z M290.3,406.7h7v7h-7V406.7z M297.6,406.7h7v7h-7V406.7z M319.4,406.7h7v7h-7
	V406.7z M355.7,406.7h7v7h-7V406.7z M362.9,406.7h7v7h-7V406.7z M384.7,406.7h7v7h-7V406.7z M413.8,406.7h7v7h-7V406.7z
	 M442.8,406.7h7v7h-7V406.7z M450.1,406.7h7v7h-7V406.7z M471.8,406.7h7v7h-7V406.7z M486.4,406.7h7v7h-7V406.7z M493.6,406.7h7v7
	h-7V406.7z M508.1,406.7h7v7h-7V406.7z M544.4,406.7h7v7h-7V406.7z M551.7,406.7h7v7h-7V406.7z M573.5,406.7h7v7h-7V406.7z
	 M595.3,406.7h7v7h-7V406.7z M602.5,406.7h7v7h-7V406.7z M609.8,406.7h7v7h-7V406.7z M617,406.7h7v7h-7V406.7z M646.1,406.7h7v7h-7
	V406.7z M653.3,406.7h7v7h-7V406.7z M682.4,406.7h7v7h-7V406.7z M689.6,406.7h7v7h-7V406.7z M711.4,406.7h7v7h-7V406.7z M755,406.7
	h7v7h-7V406.7z M776.8,406.7h7v7h-7V406.7z M805.8,406.7h7v7h-7V406.7z M813.1,406.7h7v7h-7V406.7z M820.3,406.7h7v7h-7V406.7z
	 M827.6,406.7h7v7h-7V406.7z M842.1,406.7h7v7h-7V406.7z M849.4,406.7h7v7h-7V406.7z M856.6,406.7h7v7h-7V406.7z M863.9,406.7h7v7
	h-7V406.7z M36.2,414h7v7h-7V414z M50.8,414h7v7h-7V414z M58,414h7v7h-7V414z M79.8,414h7v7h-7V414z M87.1,414h7v7h-7V414z
	 M94.3,414h7v7h-7V414z M123.4,414h7v7h-7V414z M116.1,392.2h7v7h-7V392.2z M116.1,399.4h7v7h-7V399.4z M152.4,414h7v7h-7V414z
	 M181.4,414h7v7h-7V414z M188.7,414h7v7h-7V414z M203.2,414h7v7h-7V414z M210.5,414h7v7h-7V414z M217.7,414h7v7h-7V414z M254,414h7
	v7h-7V414z M290.3,414h7v7h-7V414z M297.6,414h7v7h-7V414z M319.4,414h7v7h-7V414z M355.7,414h7v7h-7V414z M362.9,414h7v7h-7V414z
	 M384.7,414h7v7h-7V414z M413.8,414h7v7h-7V414z M442.8,414h7v7h-7V414z M450.1,414h7v7h-7V414z M471.8,414h7v7h-7V414z M486.4,414
	h7v7h-7V414z M493.6,414h7v7h-7V414z M508.1,414h7v7h-7V414z M544.4,414h7v7h-7V414z M551.7,414h7v7h-7V414z M573.5,414h7v7h-7V414z
	 M595.3,414h7v7h-7V414z M602.5,414h7v7h-7V414z M609.8,414h7v7h-7V414z M617,414h7v7h-7V414z M646.1,414h7v7h-7V414z M653.3,414h7
	v7h-7V414z M682.4,414h7v7h-7V414z M689.6,414h7v7h-7V414z M711.4,414h7v7h-7V414z M755,414h7v7h-7V414z M776.8,414h7v7h-7V414z
	 M798.5,414h7v7h-7V414z M805.8,414h7v7h-7V414z M813.1,414h7v7h-7V414z M820.3,414h7v7h-7V414z M827.6,414h7v7h-7V414z M842.1,414
	h7v7h-7V414z M849.4,414h7v7h-7V414z M856.6,414h7v7h-7V414z M863.9,414h7v7h-7V414z M36.2,421.2h7v7h-7V421.2z M50.8,421.2h7v7h-7
	V421.2z M58,421.2h7v7h-7V421.2z M79.8,421.2h7v7h-7V421.2z M87.1,421.2h7v7h-7V421.2z M94.3,421.2h7v7h-7V421.2z M123.4,421.2h7v7
	h-7V421.2z M152.4,421.2h7v7h-7V421.2z M181.4,421.2h7v7h-7V421.2z M188.7,421.2h7v7h-7V421.2z M203.2,421.2h7v7h-7V421.2z
	 M210.5,421.2h7v7h-7V421.2z M217.7,421.2h7v7h-7V421.2z M254,421.2h7v7h-7V421.2z M290.3,421.2h7v7h-7V421.2z M297.6,421.2h7v7h-7
	V421.2z M319.4,421.2h7v7h-7V421.2z M355.7,421.2h7v7h-7V421.2z M362.9,421.2h7v7h-7V421.2z M384.7,421.2h7v7h-7V421.2z
	 M413.8,421.2h7v7h-7V421.2z M421,421.2h7v7h-7V421.2z M442.8,421.2h7v7h-7V421.2z M450.1,421.2h7v7h-7V421.2z M471.8,421.2h7v7h-7
	V421.2z M486.4,421.2h7v7h-7V421.2z M493.6,421.2h7v7h-7V421.2z M508.1,421.2h7v7h-7V421.2z M544.4,421.2h7v7h-7V421.2z
	 M551.7,421.2h7v7h-7V421.2z M573.5,421.2h7v7h-7V421.2z M595.3,421.2h7v7h-7V421.2z M602.5,421.2h7v7h-7V421.2z M609.8,421.2h7v7
	h-7V421.2z M617,421.2h7v7h-7V421.2z M646.1,421.2h7v7h-7V421.2z M653.3,421.2h7v7h-7V421.2z M682.4,421.2h7v7h-7V421.2z
	 M689.6,421.2h7v7h-7V421.2z M711.4,421.2h7v7h-7V421.2z M755,421.2h7v7h-7V421.2z M776.8,421.2h7v7h-7V421.2z M798.5,421.2h7v7h-7
	V421.2z M805.8,421.2h7v7h-7V421.2z M813.1,421.2h7v7h-7V421.2z M820.3,421.2h7v7h-7V421.2z M827.6,421.2h7v7h-7V421.2z
	 M842.1,421.2h7v7h-7V421.2z M849.4,421.2h7v7h-7V421.2z M856.6,421.2h7v7h-7V421.2z M863.9,421.2h7v7h-7V421.2z M36.2,428.5h7v7h-7
	V428.5z M50.8,428.5h7v7h-7V428.5z M58,428.5h7v7h-7V428.5z M79.8,428.5h7v7h-7V428.5z M87.1,428.5h7v7h-7V428.5z M94.3,428.5h7v7
	h-7V428.5z M123.4,428.5h7v7h-7V428.5z M152.4,428.5h7v7h-7V428.5z M181.4,428.5h7v7h-7V428.5z M188.7,428.5h7v7h-7V428.5z
	 M203.2,428.5h7v7h-7V428.5z M210.5,428.5h7v7h-7V428.5z M217.7,428.5h7v7h-7V428.5z M254,428.5h7v7h-7V428.5z M290.3,428.5h7v7h-7
	V428.5z M297.6,428.5h7v7h-7V428.5z M319.4,428.5h7v7h-7V428.5z M355.7,428.5h7v7h-7V428.5z M362.9,428.5h7v7h-7V428.5z
	 M384.7,428.5h7v7h-7V428.5z M413.8,428.5h7v7h-7V428.5z M421,428.5h7v7h-7V428.5z M442.8,428.5h7v7h-7V428.5z M450.1,428.5h7v7h-7
	V428.5z M471.8,428.5h7v7h-7V428.5z M486.4,428.5h7v7h-7V428.5z M493.6,428.5h7v7h-7V428.5z M508.1,428.5h7v7h-7V428.5z
	 M544.4,428.5h7v7h-7V428.5z M551.7,428.5h7v7h-7V428.5z M573.5,428.5h7v7h-7V428.5z M595.3,428.5h7v7h-7V428.5z M602.5,428.5h7v7
	h-7V428.5z M609.8,428.5h7v7h-7V428.5z M617,428.5h7v7h-7V428.5z M646.1,428.5h7v7h-7V428.5z M653.3,428.5h7v7h-7V428.5z
	 M682.4,428.5h7v7h-7V428.5z M689.6,428.5h7v7h-7V428.5z M711.4,428.5h7v7h-7V428.5z M755,428.5h7v7h-7V428.5z M769.5,428.5h7v7h-7
	V428.5z M776.8,428.5h7v7h-7V428.5z M798.5,428.5h7v7h-7V428.5z M805.8,428.5h7v7h-7V428.5z M813.1,428.5h7v7h-7V428.5z
	 M820.3,428.5h7v7h-7V428.5z M827.6,428.5h7v7h-7V428.5z M842.1,428.5h7v7h-7V428.5z M849.4,428.5h7v7h-7V428.5z M856.6,428.5h7v7
	h-7V428.5z M863.9,428.5h7v7h-7V428.5z M36.2,435.7h7v7h-7V435.7z M50.8,435.7h7v7h-7V435.7z M58,435.7h7v7h-7V435.7z M79.8,435.7h7
	v7h-7V435.7z M87.1,435.7h7v7h-7V435.7z M94.3,435.7h7v7h-7V435.7z M123.4,435.7h7v7h-7V435.7z M152.4,435.7h7v7h-7V435.7z
	 M181.4,435.7h7v7h-7V435.7z M188.7,435.7h7v7h-7V435.7z M203.2,435.7h7v7h-7V435.7z M210.5,435.7h7v7h-7V435.7z M217.7,435.7h7v7
	h-7V435.7z M254,435.7h7v7h-7V435.7z M290.3,435.7h7v7h-7V435.7z M297.6,435.7h7v7h-7V435.7z M319.4,435.7h7v7h-7V435.7z
	 M355.7,435.7h7v7h-7V435.7z M362.9,435.7h7v7h-7V435.7z M384.7,435.7h7v7h-7V435.7z M413.8,435.7h7v7h-7V435.7z M421,435.7h7v7h-7
	V435.7z M442.8,435.7h7v7h-7V435.7z M450.1,435.7h7v7h-7V435.7z M471.8,435.7h7v7h-7V435.7z M486.4,435.7h7v7h-7V435.7z
	 M493.6,435.7h7v7h-7V435.7z M508.1,435.7h7v7h-7V435.7z M544.4,435.7h7v7h-7V435.7z M551.7,435.7h7v7h-7V435.7z M573.5,435.7h7v7
	h-7V435.7z M595.3,435.7h7v7h-7V435.7z M602.5,435.7h7v7h-7V435.7z M609.8,435.7h7v7h-7V435.7z M617,435.7h7v7h-7V435.7z
	 M646.1,435.7h7v7h-7V435.7z M653.3,435.7h7v7h-7V435.7z M682.4,435.7h7v7h-7V435.7z M689.6,435.7h7v7h-7V435.7z M711.4,435.7h7v7
	h-7V435.7z M755,435.7h7v7h-7V435.7z M769.5,435.7h7v7h-7V435.7z M776.8,435.7h7v7h-7V435.7z M798.5,435.7h7v7h-7V435.7z
	 M805.8,435.7h7v7h-7V435.7z M813.1,435.7h7v7h-7V435.7z M820.3,435.7h7v7h-7V435.7z M827.6,435.7h7v7h-7V435.7z M842.1,435.7h7v7
	h-7V435.7z M849.4,435.7h7v7h-7V435.7z M856.6,435.7h7v7h-7V435.7z M863.9,435.7h7v7h-7V435.7z M36.2,443h7v7h-7V443z M50.8,443h7v7
	h-7V443z M58,443h7v7h-7V443z M79.8,443h7v7h-7V443z M87.1,443h7v7h-7V443z M94.3,443h7v7h-7V443z M123.4,443h7v7h-7V443z
	 M152.4,443h7v7h-7V443z M181.4,443h7v7h-7V443z M188.7,443h7v7h-7V443z M203.2,443h7v7h-7V443z M210.5,443h7v7h-7V443z M217.7,443
	h7v7h-7V443z M254,443h7v7h-7V443z M290.3,443h7v7h-7V443z M297.6,443h7v7h-7V443z M319.4,443h7v7h-7V443z M355.7,443h7v7h-7V443z
	 M362.9,443h7v7h-7V443z M384.7,443h7v7h-7V443z M392,443h7v7h-7V443z M413.8,443h7v7h-7V443z M421,443h7v7h-7V443z M442.8,443h7v7
	h-7V443z M450.1,443h7v7h-7V443z M471.8,443h7v7h-7V443z M486.4,443h7v7h-7V443z M493.6,443h7v7h-7V443z M486.4,363.1h7v7h-7V363.1z
	 M493.6,363.1h7v7h-7V363.1z M486.4,370.3h7v7h-7V370.3z M493.6,370.3h7v7h-7V370.3z M486.4,377.6h7v7h-7V377.6z M493.6,377.6h7v7
	h-7V377.6z M486.4,384.9h7v7h-7V384.9z M493.6,384.9h7v7h-7V384.9z M486.4,392.1h7v7h-7V392.1z M493.6,392.1h7v7h-7V392.1z
	 M486.4,399.4h7v7h-7V399.4z M493.6,399.4h7v7h-7V399.4z M508.1,443h7v7h-7V443z M544.4,443h7v7h-7V443z M551.7,443h7v7h-7V443z
	 M573.5,443h7v7h-7V443z M595.3,443h7v7h-7V443z M602.5,443h7v7h-7V443z M609.8,443h7v7h-7V443z M617,443h7v7h-7V443z M646.1,443h7
	v7h-7V443z M653.3,443h7v7h-7V443z M682.4,443h7v7h-7V443z M689.6,443h7v7h-7V443z M711.4,443h7v7h-7V443z M755,443h7v7h-7V443z
	 M769.5,443h7v7h-7V443z M776.8,443h7v7h-7V443z M798.5,443h7v7h-7V443z M805.8,443h7v7h-7V443z M813.1,443h7v7h-7V443z M820.3,443
	h7v7h-7V443z M827.6,443h7v7h-7V443z M842.1,443h7v7h-7V443z M849.4,443h7v7h-7V443z M856.6,443h7v7h-7V443z M863.9,443h7v7h-7V443z
	 M36.2,450.3h7v7h-7V450.3z M50.8,450.3h7v7h-7V450.3z M58,450.3h7v7h-7V450.3z M79.8,450.3h7v7h-7V450.3z M87.1,450.3h7v7h-7V450.3
	z M94.3,450.3h7v7h-7V450.3z M116.1,450.3h7v7h-7V450.3z M123.4,450.3h7v7h-7V450.3z M152.4,450.3h7v7h-7V450.3z M181.4,450.3h7v7
	h-7V450.3z M188.7,450.3h7v7h-7V450.3z M203.2,450.3h7v7h-7V450.3z M210.5,450.3h7v7h-7V450.3z M217.7,450.3h7v7h-7V450.3z
	 M254,450.3h7v7h-7V450.3z M290.3,450.3h7v7h-7V450.3z M297.6,450.3h7v7h-7V450.3z M319.4,450.3h7v7h-7V450.3z M355.7,450.3h7v7h-7
	V450.3z M362.9,450.3h7v7h-7V450.3z M355.7,355.9h7v7h-7V355.9z M362.9,355.9h7v7h-7V355.9z M355.7,363.1h7v7h-7V363.1z
	 M362.9,363.1h7v7h-7V363.1z M355.7,370.4h7v7h-7V370.4z M362.9,370.4h7v7h-7V370.4z M355.7,377.7h7v7h-7V377.7z M362.9,377.7h7v7
	h-7V377.7z M355.7,384.9h7v7h-7V384.9z M362.9,384.9h7v7h-7V384.9z M355.7,392.2h7v7h-7V392.2z M362.9,392.2h7v7h-7V392.2z
	 M355.7,399.4h7v7h-7V399.4z M362.9,399.4h7v7h-7V399.4z M384.7,450.3h7v7h-7V450.3z M392,450.3h7v7h-7V450.3z M413.8,450.3h7v7h-7
	V450.3z M421,450.3h7v7h-7V450.3z M442.8,450.3h7v7h-7V450.3z M450.1,450.3h7v7h-7V450.3z M471.8,450.3h7v7h-7V450.3z M486.4,450.3
	h7v7h-7V450.3z M493.6,450.3h7v7h-7V450.3z M508.1,450.3h7v7h-7V450.3z M544.4,450.3h7v7h-7V450.3z M551.7,450.3h7v7h-7V450.3z
	 M573.5,450.3h7v7h-7V450.3z M595.3,450.3h7v7h-7V450.3z M602.5,450.3h7v7h-7V450.3z M609.8,450.3h7v7h-7V450.3z M617,450.3h7v7h-7
	V450.3z M646.1,450.3h7v7h-7V450.3z M653.3,450.3h7v7h-7V450.3z M682.4,450.3h7v7h-7V450.3z M689.6,450.3h7v7h-7V450.3z
	 M711.4,450.3h7v7h-7V450.3z M755,450.3h7v7h-7V450.3z M769.5,450.3h7v7h-7V450.3z M776.8,450.3h7v7h-7V450.3z M798.5,450.3h7v7h-7
	V450.3z M805.8,450.3h7v7h-7V450.3z M813.1,450.3h7v7h-7V450.3z M820.3,450.3h7v7h-7V450.3z M827.6,450.3h7v7h-7V450.3z
	 M842.1,450.3h7v7h-7V450.3z M849.4,450.3h7v7h-7V450.3z M856.6,450.3h7v7h-7V450.3z M863.9,450.3h7v7h-7V450.3z M36.2,457.5h7v7h-7
	V457.5z M50.8,457.5h7v7h-7V457.5z M58,457.5h7v7h-7V457.5z M79.8,457.5h7v7h-7V457.5z M87.1,457.5h7v7h-7V457.5z M94.3,457.5h7v7
	h-7V457.5z M116.1,457.5h7v7h-7V457.5z M123.4,457.5h7v7h-7V457.5z M152.4,457.5h7v7h-7V457.5z M181.4,457.5h7v7h-7V457.5z
	 M188.7,457.5h7v7h-7V457.5z M203.2,457.5h7v7h-7V457.5z M210.5,457.5h7v7h-7V457.5z M217.7,457.5h7v7h-7V457.5z M254,457.5h7v7h-7
	V457.5z M290.3,457.5h7v7h-7V457.5z M297.6,457.5h7v7h-7V457.5z M319.4,457.5h7v7h-7V457.5z M355.7,457.5h7v7h-7V457.5z
	 M362.9,457.5h7v7h-7V457.5z M370.2,457.5h7v7h-7V457.5z M384.7,457.5h7v7h-7V457.5z M392,457.5h7v7h-7V457.5z M413.8,457.5h7v7h-7
	V457.5z M421,457.5h7v7h-7V457.5z M442.8,457.5h7v7h-7V457.5z M450.1,457.5h7v7h-7V457.5z M471.8,457.5h7v7h-7V457.5z M486.4,457.5
	h7v7h-7V457.5z M493.6,457.5h7v7h-7V457.5z M508.1,457.5h7v7h-7V457.5z M544.4,457.5h7v7h-7V457.5z M551.7,457.5h7v7h-7V457.5z
	 M573.5,457.5h7v7h-7V457.5z M595.3,457.5h7v7h-7V457.5z M602.5,457.5h7v7h-7V457.5z M609.8,457.5h7v7h-7V457.5z M617,457.5h7v7h-7
	V457.5z M646.1,457.5h7v7h-7V457.5z M653.3,457.5h7v7h-7V457.5z M682.4,457.5h7v7h-7V457.5z M689.6,457.5h7v7h-7V457.5z
	 M711.4,457.5h7v7h-7V457.5z M755,457.5h7v7h-7V457.5z M769.5,457.5h7v7h-7V457.5z M776.8,457.5h7v7h-7V457.5z M798.5,457.5h7v7h-7
	V457.5z M805.8,457.5h7v7h-7V457.5z M813.1,457.5h7v7h-7V457.5z M820.3,457.5h7v7h-7V457.5z M827.6,457.5h7v7h-7V457.5z
	 M842.1,457.5h7v7h-7V457.5z M849.4,457.5h7v7h-7V457.5z M856.6,457.5h7v7h-7V457.5z M863.9,457.5h7v7h-7V457.5z M36.2,464.8h7v7h-7
	V464.8z M50.8,464.8h7v7h-7V464.8z M58,464.8h7v7h-7V464.8z M79.8,464.8h7v7h-7V464.8z M87.1,464.8h7v7h-7V464.8z M94.3,464.8h7v7
	h-7V464.8z M116.1,464.8h7v7h-7V464.8z M123.4,464.8h7v7h-7V464.8z M152.4,464.8h7v7h-7V464.8z M181.4,464.8h7v7h-7V464.8z
	 M188.7,464.8h7v7h-7V464.8z M203.2,464.8h7v7h-7V464.8z M210.5,464.8h7v7h-7V464.8z M217.7,464.8h7v7h-7V464.8z M254,464.8h7v7h-7
	V464.8z M290.3,464.8h7v7h-7V464.8z M297.6,464.8h7v7h-7V464.8z M319.4,464.8h7v7h-7V464.8z M355.7,464.8h7v7h-7V464.8z
	 M362.9,464.8h7v7h-7V464.8z M370.2,464.8h7v7h-7V464.8z M384.7,464.8h7v7h-7V464.8z M392,464.8h7v7h-7V464.8z M413.8,464.8h7v7h-7
	V464.8z M421,464.8h7v7h-7V464.8z M442.8,464.8h7v7h-7V464.8z M450.1,464.8h7v7h-7V464.8z M471.8,464.8h7v7h-7V464.8z M486.4,464.8
	h7v7h-7V464.8z M493.6,464.8h7v7h-7V464.8z M508.1,464.8h7v7h-7V464.8z M544.4,464.8h7v7h-7V464.8z M551.7,464.8h7v7h-7V464.8z
	 M573.5,464.8h7v7h-7V464.8z M595.3,464.8h7v7h-7V464.8z M602.5,464.8h7v7h-7V464.8z M609.8,464.8h7v7h-7V464.8z M617,464.8h7v7h-7
	V464.8z M646.1,464.8h7v7h-7V464.8z M653.3,464.8h7v7h-7V464.8z M682.4,464.8h7v7h-7V464.8z M689.6,464.8h7v7h-7V464.8z
	 M711.4,464.8h7v7h-7V464.8z M755,464.8h7v7h-7V464.8z M769.5,464.8h7v7h-7V464.8z M776.8,464.8h7v7h-7V464.8z M798.5,464.8h7v7h-7
	V464.8z M805.8,464.8h7v7h-7V464.8z M813.1,464.8h7v7h-7V464.8z M820.3,464.8h7v7h-7V464.8z M827.6,464.8h7v7h-7V464.8z
	 M842.1,464.8h7v7h-7V464.8z M849.4,464.8h7v7h-7V464.8z M856.6,464.8h7v7h-7V464.8z M863.9,464.8h7v7h-7V464.8z M36.2,472h7v7h-7
	V472z M50.8,472h7v7h-7V472z M58,472h7v7h-7V472z M79.8,472h7v7h-7V472z M87.1,472h7v7h-7V472z M94.3,472h7v7h-7V472z M116.1,472h7
	v7h-7V472z M123.4,472h7v7h-7V472z M145.1,472h7v7h-7V472z M152.4,472h7v7h-7V472z M181.4,472h7v7h-7V472z M188.7,472h7v7h-7V472z
	 M203.2,472h7v7h-7V472z M210.5,472h7v7h-7V472z M217.7,472h7v7h-7V472z M254,472h7v7h-7V472z M290.3,472h7v7h-7V472z M297.6,472h7
	v7h-7V472z M319.4,472h7v7h-7V472z M355.7,472h7v7h-7V472z M362.9,472h7v7h-7V472z M370.2,472h7v7h-7V472z M384.7,472h7v7h-7V472z
	 M392,472h7v7h-7V472z M413.8,472h7v7h-7V472z M421,472h7v7h-7V472z M442.8,472h7v7h-7V472z M450.1,472h7v7h-7V472z M471.8,472h7v7
	h-7V472z M486.4,472h7v7h-7V472z M493.6,472h7v7h-7V472z M508.1,472h7v7h-7V472z M544.4,472h7v7h-7V472z M551.7,472h7v7h-7V472z
	 M573.5,472h7v7h-7V472z M595.3,472h7v7h-7V472z M602.5,472h7v7h-7V472z M609.8,472h7v7h-7V472z M617,472h7v7h-7V472z M646.1,472h7
	v7h-7V472z M653.3,472h7v7h-7V472z M682.4,472h7v7h-7V472z M689.6,472h7v7h-7V472z M704.2,472h7v7h-7V472z M711.4,472h7v7h-7V472z
	 M755,472h7v7h-7V472z M769.5,472h7v7h-7V472z M776.8,472h7v7h-7V472z M798.5,472h7v7h-7V472z M805.8,472h7v7h-7V472z M813.1,472h7
	v7h-7V472z M820.3,472h7v7h-7V472z M827.6,472h7v7h-7V472z M842.1,472h7v7h-7V472z M849.4,472h7v7h-7V472z M856.6,472h7v7h-7V472z
	 M863.9,472h7v7h-7V472z M36.2,479.3h7v7h-7V479.3z M50.8,479.3h7v7h-7V479.3z M58,479.3h7v7h-7V479.3z M79.8,479.3h7v7h-7V479.3z
	 M87.1,479.3h7v7h-7V479.3z M94.3,479.3h7v7h-7V479.3z M116.1,479.3h7v7h-7V479.3z M123.4,479.3h7v7h-7V479.3z M145.1,479.3h7v7h-7
	V479.3z M152.4,479.3h7v7h-7V479.3z M174.2,479.3h7v7h-7V479.3z M181.4,479.3h7v7h-7V479.3z M188.7,479.3h7v7h-7V479.3z
	 M203.2,479.3h7v7h-7V479.3z M210.5,479.3h7v7h-7V479.3z M217.7,479.3h7v7h-7V479.3z M254,479.3h7v7h-7V479.3z M290.3,479.3h7v7h-7
	V479.3z M297.6,479.3h7v7h-7V479.3z M319.4,479.3h7v7h-7V479.3z M326.6,479.3h7v7h-7V479.3z M355.7,479.3h7v7h-7V479.3z
	 M362.9,479.3h7v7h-7V479.3z M370.2,479.3h7v7h-7V479.3z M384.7,479.3h7v7h-7V479.3z M392,479.3h7v7h-7V479.3z M413.8,479.3h7v7h-7
	V479.3z M421,479.3h7v7h-7V479.3z M442.8,479.3h7v7h-7V479.3z M450.1,479.3h7v7h-7V479.3z M471.8,479.3h7v7h-7V479.3z M486.4,479.3
	h7v7h-7V479.3z M493.6,479.3h7v7h-7V479.3z M508.1,479.3h7v7h-7V479.3z M544.4,479.3h7v7h-7V479.3z M551.7,479.3h7v7h-7V479.3z
	 M573.5,479.3h7v7h-7V479.3z M595.3,479.3h7v7h-7V479.3z M602.5,479.3h7v7h-7V479.3z M609.8,479.3h7v7h-7V479.3z M617,479.3h7v7h-7
	V479.3z M646.1,479.3h7v7h-7V479.3z M653.3,479.3h7v7h-7V479.3z M682.4,479.3h7v7h-7V479.3z M689.6,479.3h7v7h-7V479.3z
	 M704.2,479.3h7v7h-7V479.3z M711.4,479.3h7v7h-7V479.3z M755,479.3h7v7h-7V479.3z M769.5,479.3h7v7h-7V479.3z M776.8,479.3h7v7h-7
	V479.3z M798.5,479.3h7v7h-7V479.3z M805.8,479.3h7v7h-7V479.3z M813.1,479.3h7v7h-7V479.3z M820.3,479.3h7v7h-7V479.3z
	 M827.6,479.3h7v7h-7V479.3z M842.1,479.3h7v7h-7V479.3z M849.4,479.3h7v7h-7V479.3z M856.6,479.3h7v7h-7V479.3z M863.9,479.3h7v7
	h-7V479.3z M36.2,486.6h7v7h-7V486.6z M50.8,486.6h7v7h-7V486.6z M58,486.6h7v7h-7V486.6z M79.8,486.6h7v7h-7V486.6z M87.1,486.6h7
	v7h-7V486.6z M94.3,486.6h7v7h-7V486.6z M116.1,486.6h7v7h-7V486.6z M123.4,486.6h7v7h-7V486.6z M145.1,486.6h7v7h-7V486.6z
	 M152.4,486.6h7v7h-7V486.6z M174.2,486.6h7v7h-7V486.6z M181.4,486.6h7v7h-7V486.6z M188.7,486.6h7v7h-7V486.6z M203.2,486.6h7v7
	h-7V486.6z M210.5,486.6h7v7h-7V486.6z M217.7,486.6h7v7h-7V486.6z M254,486.6h7v7h-7V486.6z M290.3,486.6h7v7h-7V486.6z
	 M297.6,486.6h7v7h-7V486.6z M304.9,486.6h7v7h-7V486.6z M319.4,486.6h7v7h-7V486.6z M326.6,486.6h7v7h-7V486.6z M355.7,486.6h7v7
	h-7V486.6z M362.9,486.6h7v7h-7V486.6z M370.2,486.6h7v7h-7V486.6z M384.7,486.6h7v7h-7V486.6z M392,486.6h7v7h-7V486.6z
	 M413.8,486.6h7v7h-7V486.6z M421,486.6h7v7h-7V486.6z M442.8,486.6h7v7h-7V486.6z M450.1,486.6h7v7h-7V486.6z M471.8,486.6h7v7h-7
	V486.6z M486.4,486.6h7v7h-7V486.6z M493.6,486.6h7v7h-7V486.6z M508.1,486.6h7v7h-7V486.6z M544.4,486.6h7v7h-7V486.6z
	 M551.7,486.6h7v7h-7V486.6z M573.5,486.6h7v7h-7V486.6z M580.7,486.6h7v7h-7V486.6z M595.3,486.6h7v7h-7V486.6z M602.5,486.6h7v7
	h-7V486.6z M609.8,486.6h7v7h-7V486.6z M617,486.6h7v7h-7V486.6z M646.1,486.6h7v7h-7V486.6z M653.3,486.6h7v7h-7V486.6z
	 M682.4,486.6h7v7h-7V486.6z M689.6,486.6h7v7h-7V486.6z M704.2,486.6h7v7h-7V486.6z M711.4,486.6h7v7h-7V486.6z M755,486.6h7v7h-7
	V486.6z M769.5,486.6h7v7h-7V486.6z M776.8,486.6h7v7h-7V486.6z M798.5,486.6h7v7h-7V486.6z M805.8,486.6h7v7h-7V486.6z
	 M813.1,486.6h7v7h-7V486.6z M820.3,486.6h7v7h-7V486.6z M827.6,486.6h7v7h-7V486.6z M842.1,486.6h7v7h-7V486.6z M849.4,486.6h7v7
	h-7V486.6z M856.6,486.6h7v7h-7V486.6z M863.9,486.6h7v7h-7V486.6z M36.2,493.8h7v7h-7V493.8z M50.8,493.8h7v7h-7V493.8z M58,493.8
	h7v7h-7V493.8z M79.8,493.8h7v7h-7V493.8z M87.1,493.8h7v7h-7V493.8z M94.3,493.8h7v7h-7V493.8z M116.1,493.8h7v7h-7V493.8z
	 M123.4,493.8h7v7h-7V493.8z M145.1,493.8h7v7h-7V493.8z M152.4,493.8h7v7h-7V493.8z M174.2,493.8h7v7h-7V493.8z M181.4,493.8h7v7
	h-7V493.8z M188.7,493.8h7v7h-7V493.8z M203.2,493.8h7v7h-7V493.8z M210.5,493.8h7v7h-7V493.8z M217.7,493.8h7v7h-7V493.8z
	 M254,493.8h7v7h-7V493.8z M290.3,493.8h7v7h-7V493.8z M297.6,493.8h7v7h-7V493.8z M304.9,493.8h7v7h-7V493.8z M319.4,493.8h7v7h-7
	V493.8z M326.6,493.8h7v7h-7V493.8z M355.7,493.8h7v7h-7V493.8z M362.9,493.8h7v7h-7V493.8z M370.2,493.8h7v7h-7V493.8z
	 M384.7,493.8h7v7h-7V493.8z M392,493.8h7v7h-7V493.8z M413.8,493.8h7v7h-7V493.8z M421,493.8h7v7h-7V493.8z M442.8,493.8h7v7h-7
	V493.8z M450.1,493.8h7v7h-7V493.8z M471.8,493.8h7v7h-7V493.8z M486.4,493.8h7v7h-7V493.8z M493.6,493.8h7v7h-7V493.8z
	 M508.1,493.8h7v7h-7V493.8z M544.4,493.8h7v7h-7V493.8z M551.7,493.8h7v7h-7V493.8z M573.5,493.8h7v7h-7V493.8z M580.7,493.8h7v7
	h-7V493.8z M595.3,493.8h7v7h-7V493.8z M602.5,493.8h7v7h-7V493.8z M609.8,493.8h7v7h-7V493.8z M617,493.8h7v7h-7V493.8z
	 M638.8,493.8h7v7h-7V493.8z M646.1,493.8h7v7h-7V493.8z M653.3,493.8h7v7h-7V493.8z M682.4,493.8h7v7h-7V493.8z M689.6,493.8h7v7
	h-7V493.8z M704.2,493.8h7v7h-7V493.8z M711.4,493.8h7v7h-7V493.8z M755,493.8h7v7h-7V493.8z M769.5,493.8h7v7h-7V493.8z
	 M776.8,493.8h7v7h-7V493.8z M798.5,493.8h7v7h-7V493.8z M805.8,493.8h7v7h-7V493.8z M813.1,493.8h7v7h-7V493.8z M820.3,493.8h7v7
	h-7V493.8z M827.6,493.8h7v7h-7V493.8z M842.1,493.8h7v7h-7V493.8z M849.4,493.8h7v7h-7V493.8z M856.6,493.8h7v7h-7V493.8z
	 M863.9,493.8h7v7h-7V493.8z"/>
</svg>
