<?xml version="1.0" encoding="utf-8"?>
<!-- Generator: Adobe Illustrator 27.3.1, SVG Export Plug-In . SVG Version: 6.00 Build 0)  -->
<svg version="1.1" xmlns="http://www.w3.org/2000/svg" xmlns:xlink="http://www.w3.org/1999/xlink" x="0px" y="0px"
	 viewBox="0 0 876 99.1" style="enable-background:new 0 0 876 99.1;" xml:space="preserve">
<style type="text/css">
	.st0{fill:url(#SVGID_1_);}
	.st1{fill:#1E0E01;}
</style>
<g id="Слой_2">
	<g id="Слой_2_00000160888078012377297970000015610287114806181563_">
		
			<linearGradient id="SVGID_1_" gradientUnits="userSpaceOnUse" x1="438.1081" y1="-299.6502" x2="438.1081" y2="-205.5502" gradientTransform="matrix(1 0 0 -1 0 -203.1004)">
			<stop  offset="0.4134" style="stop-color:#F7D276"/>
			<stop  offset="0.9274" style="stop-color:#F9EACA"/>
		</linearGradient>
		<polygon class="st0" points="2.6,24.2 24.1,2.4 851.6,2.5 873.6,23.9 873.6,75 852.1,96.5 24.1,96.5 2.7,75 		"/>
	</g>
</g>
<g id="Слой_1">
	<g id="Слой_1_00000056394027916361345790000008843877135930971792_">
	</g>
	<path class="st1" d="M2.6,16.9h7v7h-7V16.9z M2.6,24.2h7v7h-7V24.2z M2.6,31.4h7v7h-7V31.4z M2.6,38.7h7v7h-7V38.7z M2.6,46h7v7h-7
		V46z M2.6,53.2h7v7h-7V53.2z M2.6,60.5h7v7h-7V60.5z M2.6,67.7h7v7h-7V67.7z M2.6,75h7v7h-7V75z M9.9,9.6h7v7h-7V9.6z M9.9,16.9h7
		v7h-7V16.9z M9.9,75h7v7h-7V75z M9.9,82.3h7v7h-7V82.3z M17.1,2.4h7v7h-7V2.4z M17.1,9.6h7v7h-7V9.6z M17.1,82.3h7v7h-7V82.3z
		 M24.4,2.4h7v7h-7V2.4z M24.4,16.9h7v7h-7V16.9z M24.4,82.3h7v7h-7V82.3z M31.7,2.4h7v7h-7C31.7,9.4,31.7,2.4,31.7,2.4z M31.7,9.6
		h7v7h-7C31.7,16.6,31.7,9.6,31.7,9.6z M31.7,82.3h7v7h-7C31.7,89.3,31.7,82.3,31.7,82.3z M38.9,2.4h7v7h-7V2.4z M38.9,16.9h7v7h-7
		V16.9z M38.9,82.3h7v7h-7V82.3z M46.2,2.4h7v7h-7V2.4z M46.2,9.6h7v7h-7V9.6z M46.2,82.3h7v7h-7V82.3z M53.4,2.4h7v7h-7V2.4z
		 M53.4,16.9h7v7h-7V16.9z M53.4,82.3h7v7h-7V82.3z M60.7,2.4h7v7h-7V2.4z M60.7,9.6h7v7h-7V9.6z M60.7,82.3h7v7h-7V82.3z M68,2.4h7
		v7h-7V2.4z M68,16.9h7v7h-7V16.9z M75.2,9.6h7v7h-7V9.6z M82.5,16.9h7v7h-7V16.9z M89.7,9.6h7v7h-7V9.6z M97,16.9h7v7h-7V16.9z
		 M104.3,9.6h7v7h-7V9.6z M111.6,16.9h7v7h-7V16.9z M118.8,9.6h7v7h-7V9.6z M126.1,16.9h7v7h-7V16.9z M133.3,9.6h7v7h-7V9.6z
		 M140.6,16.9h7v7h-7V16.9z M147.8,9.6h7v7h-7V9.6z M155.1,16.9h7v7h-7V16.9z M162.3,9.6h7v7h-7V9.6z M169.6,16.9h7v7h-7V16.9z
		 M176.9,9.6h7v7h-7V9.6z M184.2,16.9h7v7h-7V16.9z M191.4,9.6h7v7h-7V9.6z M198.7,16.9h7v7h-7V16.9z M205.9,9.6h7v7h-7V9.6z
		 M213.2,16.9h7v7h-7V16.9z M220.4,9.6h7v7h-7V9.6z M227.7,16.9h7v7h-7V16.9z M234.9,9.6h7v7h-7V9.6z M242.2,16.9h7v7h-7V16.9z
		 M249.5,9.6h7v7h-7V9.6z M256.8,16.9h7v7h-7L256.8,16.9L256.8,16.9z M264,9.6h7v7h-7V9.6z M271.3,16.9h7v7h-7V16.9z M278.5,9.6h7v7
		h-7V9.6z M285.8,16.9h7v7h-7V16.9z M293,9.6h7v7h-7V9.6z M300.3,16.9h7v7h-7V16.9z M307.5,9.6h7v7h-7V9.6z M314.8,16.9h7v7h-7V16.9
		z M322.1,9.6h7v7h-7V9.6z M329.4,16.9h7v7h-7V16.9z M336.6,9.6h7v7h-7V9.6z M343.9,16.9h7v7h-7V16.9z M351.1,9.6h7v7h-7V9.6z
		 M358.4,16.9h7v7h-7V16.9z M365.6,9.6h7v7h-7V9.6z M372.9,16.9h7v7h-7V16.9z M380.1,9.6h7v7h-7V9.6z M387.4,16.9h7v7h-7V16.9z
		 M394.7,9.6h7v7h-7V9.6z M402,16.9h7v7h-7V16.9z M409.2,9.6h7v7h-7V9.6z M416.5,16.9h7v7h-7V16.9z M423.7,9.6h7v7h-7V9.6z
		 M431,16.9h7v7h-7V16.9z M438.2,9.6h7v7h-7V9.6z M445.5,16.9h7v7h-7V16.9z M452.7,9.6h7v7h-7V9.6z M460,16.9h7v7h-7V16.9z
		 M467.3,9.6h7v7h-7V9.6z M474.6,16.9h7v7h-7V16.9z M481.8,9.6h7v7h-7V9.6z M489.1,16.9h7v7h-7V16.9z M496.3,9.6h7v7h-7V9.6z
		 M503.6,16.9h7v7h-7V16.9z M510.8,9.6h7v7h-7V9.6z M518.1,16.9h7v7h-7V16.9z M525.3,9.6h7v7h-7V9.6z M532.6,16.9h7v7h-7V16.9z
		 M539.9,9.6h7v7h-7V9.6z M547.2,16.9h7v7h-7V16.9z M554.4,9.6h7v7h-7V9.6z M561.7,16.9h7v7h-7V16.9z M568.9,9.6h7v7h-7V9.6z
		 M576.2,16.9h7v7h-7V16.9z M583.4,9.6h7v7h-7V9.6z M590.7,16.9h7v7h-7V16.9z M597.9,9.6h7v7h-7V9.6z M605.2,16.9h7v7h-7V16.9z
		 M612.5,9.6h7v7h-7V9.6z M619.8,16.9h7v7h-7V16.9z M627,9.6h7v7h-7V9.6z M634.3,16.9h7v7h-7V16.9z M641.5,9.6h7v7h-7V9.6z
		 M648.8,16.9h7v7h-7V16.9z M656,9.6h7v7h-7V9.6z M663.3,16.9h7v7h-7V16.9z M670.5,9.6h7v7h-7V9.6z M677.8,16.9h7v7h-7V16.9z
		 M685.1,9.6h7v7h-7V9.6z M692.4,16.9h7v7h-7V16.9z M699.6,9.6h7v7h-7V9.6z M706.9,16.9h7v7h-7V16.9z M714.1,9.6h7v7h-7V9.6z
		 M721.4,16.9h7v7h-7V16.9z M728.6,9.6h7v7h-7V9.6z M735.9,16.9h7v7h-7V16.9z M743.1,9.6h7v7h-7V9.6z M750.4,16.9h7v7h-7V16.9z
		 M757.7,9.6h7v7h-7V9.6z M765,16.9h7v7h-7V16.9z M772.2,9.6h7v7h-7V9.6z M779.5,16.9h7v7h-7V16.9z M786.7,9.6h7v7h-7V9.6z
		 M794,16.9h7v7h-7V16.9z M801.2,9.6h7v7h-7V9.6z M808.5,16.9h7v7h-7V16.9z M815.7,9.6h7v7h-7V9.6z M823,16.9h7v7h-7V16.9z
		 M830.3,9.6h7v7h-7V9.6z M837.6,16.9h7v7h-7V16.9z M844.8,9.6h7v7h-7V9.6z M852.1,16.9h7v7h-7V16.9z M68,82.3h7v7h-7V82.3z
		 M75.2,2.4h7v7h-7V2.4z M75.2,82.3h7v7h-7V82.3z M82.5,2.4h7v7h-7V2.4z M82.5,82.3h7v7h-7V82.3z M89.7,2.4h7v7h-7V2.4z M89.7,82.3
		h7v7h-7V82.3z M97,2.4h7v7h-7V2.4z M97,82.3h7v7h-7V82.3z M104.3,2.4h7v7h-7V2.4z M104.3,82.3h7v7h-7V82.3z M111.5,2.4h7v7h-7V2.4z
		 M111.5,82.3h7v7h-7V82.3z M118.8,2.4h7v7h-7V2.4z M118.8,82.3h7v7h-7V82.3z M126,2.4h7v7h-7C126,9.4,126,2.4,126,2.4z M126,82.3h7
		v7h-7C126,89.3,126,82.3,126,82.3z M133.3,2.4h7v7h-7V2.4z M133.3,82.3h7v7h-7V82.3z M140.6,2.4h7v7h-7V2.4z M140.6,82.3h7v7h-7
		V82.3z M147.8,2.4h7v7h-7V2.4z M147.8,82.3h7v7h-7V82.3z M155.1,2.4h7v7h-7V2.4z M155.1,82.3h7v7h-7V82.3z M162.3,2.4h7v7h-7V2.4z
		 M162.3,82.3h7v7h-7V82.3z M169.6,2.4h7v7h-7V2.4z M169.6,82.3h7v7h-7V82.3z M176.9,2.4h7v7h-7V2.4z M176.9,82.3h7v7h-7V82.3z
		 M184.1,2.4h7v7h-7V2.4z M184.1,82.3h7v7h-7V82.3z M191.4,2.4h7v7h-7V2.4z M191.4,82.3h7v7h-7V82.3z M198.6,2.4h7v7h-7V2.4z
		 M198.6,82.3h7v7h-7V82.3z M205.9,2.4h7v7h-7V2.4z M205.9,82.3h7v7h-7V82.3z M213.2,2.4h7v7h-7V2.4z M213.2,82.3h7v7h-7V82.3z
		 M220.4,2.4h7v7h-7V2.4z M220.4,82.3h7v7h-7V82.3z M227.7,2.4h7v7h-7V2.4z M227.7,82.3h7v7h-7V82.3z M234.9,2.4h7v7h-7V2.4z
		 M234.9,82.3h7v7h-7V82.3z M242.2,2.4h7v7h-7V2.4z M242.2,82.3h7v7h-7V82.3z M249.5,2.4h7v7h-7V2.4z M249.5,82.3h7v7h-7V82.3z
		 M256.7,2.4h7v7h-7V2.4z M256.7,82.3h7v7h-7V82.3z M264,2.4h7v7h-7V2.4z M264,82.3h7v7h-7V82.3z M271.2,2.4h7v7h-7V2.4z
		 M271.2,82.3h7v7h-7V82.3z M278.5,2.4h7v7h-7V2.4z M278.5,82.3h7v7h-7V82.3z M285.8,2.4h7v7h-7V2.4z M285.8,82.3h7v7h-7V82.3z
		 M293,2.4h7v7h-7V2.4z M293,82.3h7v7h-7V82.3z M300.3,2.4h7v7h-7V2.4z M300.3,82.3h7v7h-7V82.3z M307.5,2.4h7v7h-7V2.4z
		 M307.5,82.3h7v7h-7V82.3z M314.8,2.4h7v7h-7V2.4z M314.8,82.3h7v7h-7V82.3z M322.1,2.4h7v7h-7V2.4z M322.1,82.3h7v7h-7V82.3z
		 M329.3,2.4h7v7h-7V2.4z M329.3,82.3h7v7h-7V82.3z M336.6,2.4h7v7h-7V2.4z M336.6,82.3h7v7h-7V82.3z M343.8,2.4h7v7h-7V2.4z
		 M343.8,82.3h7v7h-7V82.3z M351.1,2.4h7v7h-7V2.4z M351.1,82.3h7v7h-7V82.3z M358.4,2.4h7v7h-7V2.4z M358.4,82.3h7v7h-7V82.3z
		 M365.6,2.4h7v7h-7V2.4z M365.6,82.3h7v7h-7V82.3z M372.9,2.4h7v7h-7V2.4z M372.9,82.3h7v7h-7V82.3z M380.1,2.4h7v7h-7V2.4z
		 M380.1,82.3h7v7h-7V82.3z M387.4,2.4h7v7h-7V2.4z M387.4,82.3h7v7h-7V82.3z M394.7,2.4h7v7h-7V2.4z M394.7,82.3h7v7h-7V82.3z
		 M401.9,2.4h7v7h-7V2.4z M401.9,82.3h7v7h-7V82.3z M409.2,2.4h7v7h-7V2.4z M409.2,82.3h7v7h-7V82.3z M416.4,2.4h7v7h-7V2.4z
		 M416.4,82.3h7v7h-7V82.3z M423.7,2.4h7v7h-7V2.4z M423.7,82.3h7v7h-7V82.3z M431,2.4h7v7h-7V2.4z M431,82.3h7v7h-7V82.3z
		 M438.2,2.4h7v7h-7V2.4z M438.2,82.3h7v7h-7V82.3z M445.5,2.4h7v7h-7V2.4z M445.5,82.3h7v7h-7V82.3z M452.7,2.4h7v7h-7V2.4z
		 M452.7,82.3h7v7h-7V82.3z M460,2.4h7v7h-7V2.4z M460,82.3h7v7h-7V82.3z M467.3,2.4h7v7h-7V2.4z M467.3,82.3h7v7h-7V82.3z
		 M474.5,2.4h7v7h-7V2.4z M474.5,82.3h7v7h-7V82.3z M481.8,2.4h7v7h-7V2.4z M481.8,82.3h7v7h-7V82.3z M489,2.4h7v7h-7V2.4z
		 M489,82.3h7v7h-7V82.3z M496.3,2.4h7v7h-7V2.4z M496.3,82.3h7v7h-7V82.3z M503.6,2.4h7v7h-7V2.4z M503.6,82.3h7v7h-7V82.3z
		 M510.8,2.4h7v7h-7V2.4z M510.8,82.3h7v7h-7V82.3z M518.1,2.4h7v7h-7V2.4z M518.1,82.3h7v7h-7V82.3z M525.3,2.4h7v7h-7V2.4z
		 M525.3,82.3h7v7h-7V82.3z M532.6,2.4h7v7h-7V2.4z M532.6,82.3h7v7h-7V82.3z M539.9,2.4h7v7h-7V2.4z M539.9,82.3h7v7h-7V82.3z
		 M547.1,2.4h7v7h-7V2.4z M547.1,82.3h7v7h-7V82.3z M554.4,2.4h7v7h-7V2.4z M554.4,82.3h7v7h-7V82.3z M561.6,2.4h7v7h-7V2.4z
		 M561.6,82.3h7v7h-7V82.3z M568.9,2.4h7v7h-7V2.4z M568.9,82.3h7v7h-7V82.3z M576.2,2.4h7v7h-7V2.4z M576.2,82.3h7v7h-7V82.3z
		 M583.4,2.4h7v7h-7V2.4z M583.4,82.3h7v7h-7V82.3z M590.7,2.4h7v7h-7V2.4z M590.7,82.3h7v7h-7V82.3z M597.9,2.4h7v7h-7V2.4z
		 M597.9,82.3h7v7h-7V82.3z M605.2,2.4h7v7h-7V2.4z M605.2,82.3h7v7h-7V82.3z M612.5,2.4h7v7h-7V2.4z M612.5,82.3h7v7h-7V82.3z
		 M619.7,2.4h7v7h-7V2.4z M619.7,82.3h7v7h-7V82.3z M627,2.4h7v7h-7V2.4z M627,82.3h7v7h-7V82.3z M634.2,2.4h7v7h-7V2.4z
		 M634.2,82.3h7v7h-7V82.3z M641.5,2.4h7v7h-7V2.4z M641.5,82.3h7v7h-7V82.3z M648.8,2.4h7v7h-7V2.4z M648.8,82.3h7v7h-7V82.3z
		 M656,2.4h7v7h-7V2.4z M656,82.3h7v7h-7V82.3z M663.3,2.4h7v7h-7V2.4z M663.3,82.3h7v7h-7V82.3z M670.5,2.4h7v7h-7V2.4z
		 M670.5,82.3h7v7h-7V82.3z M677.8,2.4h7v7h-7V2.4z M677.8,82.3h7v7h-7V82.3z M685.1,2.4h7v7h-7V2.4z M685.1,82.3h7v7h-7V82.3z
		 M692.3,2.4h7v7h-7V2.4z M692.3,82.3h7v7h-7V82.3z M699.6,2.4h7v7h-7V2.4z M699.6,82.3h7v7h-7V82.3z M706.8,2.4h7v7h-7V2.4z
		 M706.8,82.3h7v7h-7V82.3z M714.1,2.4h7v7h-7V2.4z M714.1,82.3h7v7h-7V82.3z M721.4,2.4h7v7h-7V2.4z M721.4,82.3h7v7h-7V82.3z
		 M728.6,2.4h7v7h-7V2.4z M728.6,82.3h7v7h-7V82.3z M735.9,2.4h7v7h-7V2.4z M735.9,82.3h7v7h-7V82.3z M743.1,2.4h7v7h-7V2.4z
		 M743.1,82.3h7v7h-7V82.3z M750.4,2.4h7v7h-7V2.4z M750.4,82.3h7v7h-7V82.3z M757.7,2.4h7v7h-7V2.4z M757.7,82.3h7v7h-7V82.3z
		 M764.9,2.4h7v7h-7V2.4z M764.9,82.3h7v7h-7V82.3z M772.2,2.4h7v7h-7V2.4z M772.2,82.3h7v7h-7V82.3z M779.4,2.4h7v7h-7V2.4z
		 M779.4,82.3h7v7h-7V82.3z M786.7,2.4h7v7h-7V2.4z M786.7,82.3h7v7h-7V82.3z M794,2.4h7v7h-7V2.4z M794,82.3h7v7h-7V82.3z
		 M801.2,2.4h7v7h-7V2.4z M801.2,82.3h7v7h-7V82.3z M808.5,2.4h7v7h-7V2.4z M808.5,82.3h7v7h-7V82.3z M815.7,2.4h7v7h-7V2.4z
		 M815.7,82.3h7v7h-7V82.3z M823,2.4h7v7h-7V2.4z M823,82.3h7v7h-7V82.3z M830.3,2.4h7v7h-7V2.4z M830.3,82.3h7v7h-7V82.3z
		 M837.5,2.4h7v7h-7V2.4z M837.5,82.3h7v7h-7V82.3z M844.8,2.4h7v7h-7V2.4z M844.8,82.3h7v7h-7V82.3z M852,2.4h7v7h-7V2.4z M852,9.6
		h7v7h-7V9.6z M852,75h7v7h-7V75z M852,82.3h7v7h-7V82.3z M859.3,9.6h7v7h-7V9.6z M859.3,16.9h7v7h-7V16.9z M859.3,24.2h7v7h-7V24.2
		z M859.3,31.4h7v7h-7V31.4z M859.3,38.7h7v7h-7V38.7z M859.3,46h7v7h-7V46z M859.3,53.2h7v7h-7V53.2z M859.3,60.5h7v7h-7V60.5z
		 M859.3,67.7h7v7h-7V67.7z M859.3,75h7v7h-7V75z M859.3,82.3h7v7h-7V82.3z M866.6,16.9h7v7h-7V16.9z M866.6,24.2h7v7h-7V24.2z
		 M866.6,31.4h7v7h-7V31.4z M866.6,38.7h7v7h-7V38.7z M866.6,46h7v7h-7V46z M866.6,53.2h7v7h-7V53.2z M866.6,60.5h7v7h-7V60.5z
		 M866.6,67.7h7v7h-7V67.7z M866.6,75h7v7h-7V75z M17.1,89.5h7v7h-7V89.5z M24.4,89.5h7v7h-7V89.5z M31.7,89.5h7v7h-7
		C31.7,96.5,31.7,89.5,31.7,89.5z M38.9,89.5h7v7h-7V89.5z M46.2,89.5h7v7h-7V89.5z M53.4,89.5h7v7h-7V89.5z M60.7,89.5h7v7h-7V89.5
		z M68,89.5h7v7h-7V89.5z M75.2,89.5h7v7h-7V89.5z M82.5,89.5h7v7h-7V89.5z M89.7,89.5h7v7h-7V89.5z M97,89.5h7v7h-7V89.5z
		 M104.3,89.5h7v7h-7V89.5z M111.5,89.5h7v7h-7V89.5z M118.8,89.5h7v7h-7V89.5z M126,89.5h7v7h-7C126,96.5,126,89.5,126,89.5z
		 M133.3,89.5h7v7h-7V89.5z M140.6,89.5h7v7h-7V89.5z M147.8,89.5h7v7h-7V89.5z M155.1,89.5h7v7h-7V89.5z M162.3,89.5h7v7h-7V89.5z
		 M169.6,89.5h7v7h-7V89.5z M176.9,89.5h7v7h-7V89.5z M184.1,89.5h7v7h-7V89.5z M191.4,89.5h7v7h-7V89.5z M198.6,89.5h7v7h-7V89.5z
		 M205.9,89.5h7v7h-7V89.5z M213.2,89.5h7v7h-7V89.5z M220.4,89.5h7v7h-7V89.5z M227.7,89.5h7v7h-7V89.5z M234.9,89.5h7v7h-7V89.5z
		 M242.2,89.5h7v7h-7V89.5z M249.5,89.5h7v7h-7V89.5z M256.7,89.5h7v7h-7V89.5z M264,89.5h7v7h-7V89.5z M271.2,89.5h7v7h-7V89.5z
		 M278.5,89.5h7v7h-7V89.5z M285.8,89.5h7v7h-7V89.5z M293,89.5h7v7h-7V89.5z M300.3,89.5h7v7h-7V89.5z M307.5,89.5h7v7h-7V89.5z
		 M314.8,89.5h7v7h-7V89.5z M322.1,89.5h7v7h-7V89.5z M329.3,89.5h7v7h-7V89.5z M336.6,89.5h7v7h-7V89.5z M343.8,89.5h7v7h-7V89.5z
		 M351.1,89.5h7v7h-7V89.5z M358.4,89.5h7v7h-7V89.5z M365.6,89.5h7v7h-7V89.5z M372.9,89.5h7v7h-7V89.5z M380.1,89.5h7v7h-7V89.5z
		 M387.4,89.5h7v7h-7V89.5z M394.7,89.5h7v7h-7V89.5z M401.9,89.5h7v7h-7V89.5z M409.2,89.5h7v7h-7V89.5z M416.4,89.5h7v7h-7V89.5z
		 M423.7,89.5h7v7h-7V89.5z M431,89.5h7v7h-7V89.5z M438.2,89.5h7v7h-7V89.5z M445.5,89.5h7v7h-7V89.5z M452.7,89.5h7v7h-7V89.5z
		 M460,89.5h7v7h-7V89.5z M467.3,89.5h7v7h-7V89.5z M474.5,89.5h7v7h-7V89.5z M481.8,89.5h7v7h-7V89.5z M489,89.5h7v7h-7V89.5z
		 M496.3,89.5h7v7h-7V89.5z M503.6,89.5h7v7h-7V89.5z M510.8,89.5h7v7h-7V89.5z M518.1,89.5h7v7h-7V89.5z M525.3,89.5h7v7h-7V89.5z
		 M532.6,89.5h7v7h-7V89.5z M539.9,89.5h7v7h-7V89.5z M547.1,89.5h7v7h-7V89.5z M554.4,89.5h7v7h-7V89.5z M561.6,89.5h7v7h-7V89.5z
		 M568.9,89.5h7v7h-7V89.5z M576.2,89.5h7v7h-7V89.5z M583.4,89.5h7v7h-7V89.5z M590.7,89.5h7v7h-7V89.5z M597.9,89.5h7v7h-7V89.5z
		 M605.2,89.5h7v7h-7V89.5z M612.5,89.5h7v7h-7V89.5z M619.7,89.5h7v7h-7V89.5z M627,89.5h7v7h-7V89.5z M634.2,89.5h7v7h-7V89.5z
		 M641.5,89.5h7v7h-7V89.5z M648.8,89.5h7v7h-7V89.5z M656,89.5h7v7h-7V89.5z M663.3,89.5h7v7h-7V89.5z M670.5,89.5h7v7h-7V89.5z
		 M677.8,89.5h7v7h-7V89.5z M685.1,89.5h7v7h-7V89.5z M692.3,89.5h7v7h-7V89.5z M699.6,89.5h7v7h-7V89.5z M706.8,89.5h7v7h-7V89.5z
		 M714.1,89.5h7v7h-7V89.5z M721.4,89.5h7v7h-7V89.5z M728.6,89.5h7v7h-7V89.5z M735.9,89.5h7v7h-7V89.5z M743.1,89.5h7v7h-7V89.5z
		 M750.4,89.5h7v7h-7V89.5z M757.7,89.5h7v7h-7V89.5z M764.9,89.5h7v7h-7V89.5z M772.2,89.5h7v7h-7V89.5z M779.4,89.5h7v7h-7V89.5z
		 M786.7,89.5h7v7h-7V89.5z M794,89.5h7v7h-7V89.5z M801.2,89.5h7v7h-7V89.5z M808.5,89.5h7v7h-7V89.5z M815.7,89.5h7v7h-7V89.5z
		 M823,89.5h7v7h-7V89.5z M830.3,89.5h7v7h-7V89.5z M837.5,89.5h7v7h-7V89.5z M844.8,89.5h7v7h-7V89.5z M852,89.5h7v7h-7V89.5z"/>
</g>
</svg>
