<?xml version="1.0" encoding="utf-8"?>
<!-- Generator: Adobe Illustrator 27.3.1, SVG Export Plug-In . SVG Version: 6.00 Build 0)  -->
<svg version="1.1" id="Слой_1" xmlns="http://www.w3.org/2000/svg" xmlns:xlink="http://www.w3.org/1999/xlink" x="0px" y="0px"
	 viewBox="0 0 370 217.6" style="enable-background:new 0 0 370 217.6;" xml:space="preserve">
<style type="text/css">
	.st0{fill:#1E0E01;}
</style>
<path class="st0" d="M0,0h7v7H0V0z M0,7.3h7v7H0V7.3z M0,14.5h7v7H0V14.5z M0,21.8h7v7H0V21.8z M0,29.1h7v7H0V29.1z M0,36.3h7v7H0
	V36.3z M0,43.6h7v7H0V43.6z M0,50.8h7v7H0V50.8z M7.3,14.5h7v7h-7V14.5z M7.3,21.8h7v7h-7V21.8z M7.3,29.1h7v7h-7V29.1z M7.3,43.6h7
	v7h-7V43.6z M0,58.1h7v7H0V58.1z M0,65.4h7v7H0V65.4z M0,72.6h7v7H0V72.6z M0,79.9h7v7H0V79.9z M0,87.1h7v7H0V87.1z M0,94.4h7v7H0
	V94.4z M0,101.6h7v7H0V101.6z M0,108.9h7v7H0V108.9z M0,116.2h7v7H0V116.2z M0,123.4h7v7H0V123.4z M0,130.7h7v7H0V130.7z M0,137.9h7
	v7H0V137.9z M0,145.2h7v7H0V145.2z M0,152.5h7v7H0V152.5z M0,159.7h7v7H0V159.7z M0,167h7v7H0V167z M7.2,58.1h7v7h-7V58.1z
	 M14.5,21.8h7v7h-7V21.8z M14.5,36.3h7v7h-7V36.3z M14.5,50.8h7v7h-7V50.8z M7.3,72.6h7v7h-7V72.6z M14.5,65.4h7v7h-7V65.4z
	 M7.2,65.4h7v7h-7V65.4z M21.8,65.4h7v7h-7V65.4z M29.1,65.4h7v7h-7C29.1,72.4,29.1,65.4,29.1,65.4z M21.8,72.6h7v7h-7V72.6z
	 M29.1,79.9h7v7h-7C29.1,86.9,29.1,79.9,29.1,79.9z M36.4,72.6h7v7h-7V72.6z M43.6,79.9h7v7h-7V79.9z M50.9,72.6h7v7h-7V72.6z
	 M58.1,79.9h7v7h-7V79.9z M65.4,72.6h7v7h-7V72.6z M72.7,79.9h7v7h-7V79.9z M80,72.6h7v7h-7V72.6z M87.2,79.9h7v7h-7V79.9z
	 M94.5,72.6h7v7h-7V72.6z M101.7,79.9h7v7h-7V79.9z M109,72.6h7v7h-7V72.6z M116.2,79.9h7v7h-7V79.9z M123.5,72.6h7v7h-7V72.6z
	 M130.7,79.9h7v7h-7V79.9z M138,72.6h7v7h-7V72.6z M145.3,79.9h7v7h-7V79.9z M152.6,72.6h7v7h-7V72.6z M159.8,79.9h7v7h-7V79.9z
	 M167.1,72.6h7v7h-7V72.6z M174.3,79.9h7v7h-7V79.9z M181.6,72.6h7v7h-7V72.6z M188.8,79.9h7v7h-7V79.9z M196.1,72.6h7v7h-7V72.6z
	 M203.3,79.9h7v7h-7V79.9z M210.6,72.6h7v7h-7V72.6z M217.9,79.9h7v7h-7V79.9z M225.2,72.6h7v7h-7V72.6z M232.4,79.9h7v7h-7V79.9z
	 M239.7,72.6h7v7h-7V72.6z M246.9,79.9h7v7h-7V79.9z M254.2,72.6h7v7h-7L254.2,72.6L254.2,72.6z M261.4,79.9h7v7h-7V79.9z
	 M268.7,72.6h7v7h-7V72.6z M275.9,79.9h7v7h-7V79.9z M283.2,72.6h7v7h-7V72.6z M290.5,79.9h7v7h-7V79.9z M297.8,72.6h7v7h-7V72.6z
	 M305,79.9h7v7h-7V79.9z M312.3,72.6h7v7h-7V72.6z M319.5,79.9h7v7h-7V79.9z M326.8,72.6h7v7h-7V72.6z M334,79.9h7v7h-7V79.9z
	 M348.5,72.6h7v7h-7V72.6z M36.3,65.4h7v7h-7V65.4z M43.6,65.4h7v7h-7V65.4z M50.8,65.4h7v7h-7V65.4z M0,174.3h7v7H0V174.3z
	 M0,181.5h7v7H0V181.5z M0,188.8h7v7H0V188.8z M0,196.1h7v7H0V196.1z M7.3,87.1h7v7h-7V87.1z M7.3,101.6h7v7h-7V101.6z M7.3,116.2h7
	v7h-7V116.2z M7.3,130.7h7v7h-7V130.7z M7.3,145.2h7v7h-7V145.2z M7.3,159.7h7v7h-7V159.7z M7.3,174.3h7v7h-7V174.3z M14.6,79.9h7v7
	h-7V79.9z M14.5,94.4h7v7h-7V94.4z M14.5,108.9h7v7h-7V108.9z M14.5,123.4h7v7h-7V123.4z M14.5,137.9h7v7h-7V137.9z M14.5,152.5h7v7
	h-7V152.5z M14.5,167h7v7h-7V167z M14.5,181.5h7v7h-7V181.5z M7.3,188.8h7v7h-7V188.8z M7.3,196.1h7v7h-7V196.1z M0,203.3h7v7H0
	V203.3z M0,210.6h7v7H0V210.6z M58.1,65.4h7v7h-7V65.4z M65.4,65.4h7v7h-7V65.4z M72.6,65.4h7v7h-7V65.4z M79.9,65.4h7v7h-7V65.4z
	 M87.1,65.4h7v7h-7V65.4z M94.4,65.4h7v7h-7V65.4z M101.7,65.4h7v7h-7V65.4z M108.9,65.4h7v7h-7V65.4z M116.2,65.4h7v7h-7V65.4z
	 M123.4,65.4h7v7h-7C123.4,72.4,123.4,65.4,123.4,65.4z M130.7,65.4h7v7h-7V65.4z M138,65.4h7v7h-7V65.4z M145.2,65.4h7v7h-7V65.4z
	 M152.5,65.4h7v7h-7V65.4z M159.7,65.4h7v7h-7V65.4z M167,65.4h7v7h-7V65.4z M174.3,65.4h7v7h-7V65.4z M181.5,65.4h7v7h-7V65.4z
	 M188.8,65.4h7v7h-7V65.4z M196,65.4h7v7h-7V65.4z M203.3,65.4h7v7h-7V65.4z M210.6,65.4h7v7h-7V65.4z M217.8,65.4h7v7h-7V65.4z
	 M225.1,65.4h7v7h-7V65.4z M232.3,65.4h7v7h-7V65.4z M239.6,65.4h7v7h-7V65.4z M246.9,65.4h7v7h-7V65.4z M254.1,65.4h7v7h-7V65.4z
	 M261.4,65.4h7v7h-7V65.4z M268.6,65.4h7v7h-7V65.4z M275.9,65.4h7v7h-7V65.4z M283.2,65.4h7v7h-7V65.4z M290.4,65.4h7v7h-7V65.4z
	 M297.7,65.4h7v7h-7V65.4z M304.9,65.4h7v7h-7V65.4z M312.2,65.4h7v7h-7V65.4z M319.5,65.4h7v7h-7V65.4z M326.7,65.4h7v7h-7V65.4z
	 M334,65.4h7v7h-7V65.4z M341.2,65.4h7v7h-7V65.4z M341.2,72.6h7v7h-7V72.6z M348.5,65.4h7v7h-7V65.4z M355.8,65.4h7v7h-7V65.4z
	 M363,65.4h7v7h-7V65.4z"/>
</svg>
