<?xml version="1.0" encoding="utf-8"?>
<!-- Generator: Adobe Illustrator 27.3.1, SVG Export Plug-In . SVG Version: 6.00 Build 0)  -->
<svg version="1.1" id="Слой_1" xmlns="http://www.w3.org/2000/svg" xmlns:xlink="http://www.w3.org/1999/xlink" x="0px" y="0px"
	 viewBox="0 0 958.1 50.6" style="enable-background:new 0 0 958.1 50.6;" xml:space="preserve">
<style type="text/css">
	.st0{fill:#1E0E01;}
</style>
<path class="st0" d="M0,0h7v7H0V0z M0,7.3h7v7H0V7.3z M0,14.6h7v7H0V14.6z M0,21.9h7v7H0V21.9z M0,29.1h7v7H0V29.1z M0,36.4h7v7H0
	V36.4z M0,43.6h7v7H0V43.6z M7.3,0h7v7h-7V0z M7.3,7.3h7v7h-7V7.3z M7.3,14.6h7v7h-7V14.6z M7.3,21.9h7v7h-7V21.9z M7.3,29.1h7v7h-7
	V29.1z M7.3,36.4h7v7h-7V36.4z M7.3,43.6h7v7h-7V43.6z M14.5,0h7v7h-7V0z M14.5,7.3h7v7h-7V7.3z M14.5,14.6h7v7h-7V14.6z M14.5,21.9
	h7v7h-7V21.9z M14.5,29.1h7v7h-7V29.1z M14.5,36.4h7v7h-7V36.4z M14.5,43.6h7v7h-7V43.6z M21.8,0h7v7h-7V0z M21.8,7.3h7v7h-7V7.3z
	 M21.8,14.6h7v7h-7V14.6z M21.8,21.9h7v7h-7V21.9z M21.8,29.1h7v7h-7V29.1z M21.8,36.4h7v7h-7V36.4z M21.8,43.6h7v7h-7V43.6z M29,0
	h7v7h-7V0z M29,7.3h7v7h-7V7.3z M29,14.6h7v7h-7V14.6z M29,21.9h7v7h-7V21.9z M29,29.1h7v7h-7V29.1z M29,36.4h7v7h-7V36.4z M29,43.6
	h7v7h-7V43.6z M36.3,0h7v7h-7V0z M36.3,7.3h7v7h-7V7.3z M36.3,14.6h7v7h-7V14.6z M36.3,21.9h7v7h-7V21.9z M36.3,29.1h7v7h-7V29.1z
	 M36.3,36.4h7v7h-7V36.4z M36.3,43.6h7v7h-7V43.6z M43.6,0h7v7h-7V0z M43.6,7.3h7v7h-7V7.3z M43.6,14.6h7v7h-7V14.6z M43.6,21.9h7v7
	h-7V21.9z M43.6,29.1h7v7h-7V29.1z M43.6,36.4h7v7h-7V36.4z M43.6,43.6h7v7h-7V43.6z M50.8,0h7v7h-7V0z M50.8,7.3h7v7h-7V7.3z
	 M50.8,14.6h7v7h-7V14.6z M50.8,21.9h7v7h-7V21.9z M50.8,29.1h7v7h-7V29.1z M50.8,36.4h7v7h-7V36.4z M50.8,43.6h7v7h-7V43.6z
	 M58.1,0h7v7h-7V0z M58.1,7.3h7v7h-7V7.3z M58.1,14.6h7v7h-7V14.6z M58.1,21.9h7v7h-7V21.9z M58.1,29.1h7v7h-7V29.1z M58.1,36.4h7v7
	h-7V36.4z M58.1,43.6h7v7h-7V43.6z M65.3,7.3h7v7h-7V7.3z M65.3,14.6h7v7h-7V14.6z M65.3,21.9h7v7h-7V21.9z M65.3,29.1h7v7h-7V29.1z
	 M65.3,36.4h7v7h-7V36.4z M72.6,0h7v7h-7V0z M72.6,14.6h7v7h-7V14.6z M72.6,21.9h7v7h-7V21.9z M72.6,29.1h7v7h-7V29.1z M72.6,43.6h7
	v7h-7V43.6z M79.9,0h7v7h-7V0z M79.9,7.3h7v7h-7V7.3z M79.9,21.9h7v7h-7V21.9z M79.9,36.4h7v7h-7V36.4z M79.9,43.6h7v7h-7V43.6z
	 M87.1,0h7v7h-7V0z M87.1,7.3h7v7h-7V7.3z M87.1,14.6h7v7h-7V14.6z M87.1,29.1h7v7h-7V29.1z M87.1,36.4h7v7h-7V36.4z M87.1,43.6h7v7
	h-7V43.6z M94.4,0h7v7h-7V0z M94.4,7.3h7v7h-7V7.3z M94.4,14.6h7v7h-7V14.6z M94.4,21.9h7v7h-7V21.9z M94.4,29.1h7v7h-7V29.1z
	 M94.4,36.4h7v7h-7V36.4z M94.4,43.6h7v7h-7V43.6z M101.6,0h7v7h-7V0z M101.6,7.3h7v7h-7V7.3z M101.6,14.6h7v7h-7V14.6z M101.6,21.9
	h7v7h-7V21.9z M101.6,29.1h7v7h-7V29.1z M101.6,36.4h7v7h-7V36.4z M101.6,43.6h7v7h-7V43.6z M108.9,0h7v7h-7V0z M108.9,7.3h7v7h-7
	V7.3z M108.9,14.6h7v7h-7V14.6z M108.9,21.9h7v7h-7V21.9z M108.9,29.1h7v7h-7V29.1z M108.9,36.4h7v7h-7V36.4z M108.9,43.6h7v7h-7
	V43.6z M116.2,0h7v7h-7V0z M116.2,7.3h7v7h-7V7.3z M116.2,14.6h7v7h-7V14.6z M116.2,21.9h7v7h-7V21.9z M116.2,29.1h7v7h-7V29.1z
	 M116.2,36.4h7v7h-7V36.4z M116.2,43.6h7v7h-7V43.6z M123.4,0h7v7h-7V0z M123.4,7.3h7v7h-7V7.3z M123.4,14.6h7v7h-7V14.6z
	 M123.4,21.9h7v7h-7V21.9z M123.4,29.1h7v7h-7V29.1z M123.4,36.4h7v7h-7V36.4z M123.4,43.6h7v7h-7V43.6z M130.7,0h7v7h-7V0z
	 M130.7,7.3h7v7h-7V7.3z M130.7,14.6h7v7h-7V14.6z M130.7,21.9h7v7h-7V21.9z M130.7,29.1h7v7h-7V29.1z M130.7,36.4h7v7h-7V36.4z
	 M130.7,43.6h7v7h-7V43.6z M137.9,0h7v7h-7V0z M137.9,7.3h7v7h-7V7.3z M137.9,14.6h7v7h-7V14.6z M137.9,21.9h7v7h-7V21.9z
	 M137.9,29.1h7v7h-7V29.1z M137.9,36.4h7v7h-7V36.4z M137.9,43.6h7v7h-7V43.6z M145.2,0h7v7h-7V0z M145.2,7.3h7v7h-7V7.3z
	 M145.2,14.6h7v7h-7V14.6z M145.2,21.9h7v7h-7V21.9z M145.2,29.1h7v7h-7V29.1z M145.2,36.4h7v7h-7V36.4z M145.2,43.6h7v7h-7V43.6z
	 M152.5,0h7v7h-7V0z M152.5,7.3h7v7h-7V7.3z M152.5,14.6h7v7h-7V14.6z M152.5,21.9h7v7h-7V21.9z M152.5,29.1h7v7h-7V29.1z
	 M152.5,36.4h7v7h-7V36.4z M152.5,43.6h7v7h-7V43.6z M159.7,7.3h7v7h-7V7.3z M159.7,14.6h7v7h-7V14.6z M159.7,21.9h7v7h-7V21.9z
	 M159.7,29.1h7v7h-7V29.1z M159.7,36.4h7v7h-7V36.4z M167,0h7v7h-7V0z M167,14.6h7v7h-7V14.6z M167,21.9h7v7h-7V21.9z M167,29.1h7v7
	h-7V29.1z M167,43.6h7v7h-7V43.6z M174.2,0h7v7h-7V0z M174.2,7.3h7v7h-7V7.3z M174.2,21.9h7v7h-7V21.9z M174.2,36.4h7v7h-7V36.4z
	 M174.2,43.6h7v7h-7V43.6z M181.5,0h7v7h-7V0z M181.5,7.3h7v7h-7V7.3z M181.5,14.6h7v7h-7V14.6z M181.5,29.1h7v7h-7V29.1z
	 M181.5,36.4h7v7h-7V36.4z M181.5,43.6h7v7h-7V43.6z M188.8,0h7v7h-7V0z M188.8,7.3h7v7h-7V7.3z M188.8,14.6h7v7h-7V14.6z
	 M188.8,21.9h7v7h-7V21.9z M188.8,29.1h7v7h-7V29.1z M188.8,36.4h7v7h-7V36.4z M188.8,43.6h7v7h-7V43.6z M196,0h7v7h-7V0z M196,7.3
	h7v7h-7V7.3z M196,14.6h7v7h-7V14.6z M196,21.9h7v7h-7V21.9z M196,29.1h7v7h-7V29.1z M196,36.4h7v7h-7V36.4z M196,43.6h7v7h-7V43.6z
	 M203.3,0h7v7h-7V0z M203.3,7.3h7v7h-7V7.3z M203.3,14.6h7v7h-7V14.6z M203.3,21.9h7v7h-7V21.9z M203.3,29.1h7v7h-7V29.1z
	 M203.3,36.4h7v7h-7V36.4z M203.3,43.6h7v7h-7V43.6z M210.5,0h7v7h-7V0z M210.5,7.3h7v7h-7V7.3z M210.5,14.6h7v7h-7V14.6z
	 M210.5,21.9h7v7h-7V21.9z M210.5,29.1h7v7h-7V29.1z M210.5,36.4h7v7h-7V36.4z M210.5,43.6h7v7h-7V43.6z M217.8,0h7v7h-7V0z
	 M217.8,7.3h7v7h-7V7.3z M217.8,14.6h7v7h-7V14.6z M217.8,21.9h7v7h-7V21.9z M217.8,29.1h7v7h-7V29.1z M217.8,36.4h7v7h-7V36.4z
	 M217.8,43.6h7v7h-7V43.6z M225.1,0h7v7h-7V0z M225.1,7.3h7v7h-7V7.3z M225.1,14.6h7v7h-7V14.6z M225.1,21.9h7v7h-7V21.9z
	 M225.1,29.1h7v7h-7V29.1z M225.1,36.4h7v7h-7V36.4z M225.1,43.6h7v7h-7V43.6z M232.3,0h7v7h-7V0z M232.3,7.3h7v7h-7V7.3z
	 M232.3,14.6h7v7h-7V14.6z M232.3,21.9h7v7h-7V21.9z M232.3,29.1h7v7h-7V29.1z M232.3,36.4h7v7h-7V36.4z M232.3,43.6h7v7h-7V43.6z
	 M239.6,0h7v7h-7V0z M239.6,7.3h7v7h-7V7.3z M239.6,14.6h7v7h-7V14.6z M239.6,21.9h7v7h-7V21.9z M239.6,29.1h7v7h-7V29.1z
	 M239.6,36.4h7v7h-7V36.4z M239.6,43.6h7v7h-7V43.6z M246.8,0h7v7h-7V0z M246.8,7.3h7v7h-7V7.3z M246.8,14.6h7v7h-7V14.6z
	 M246.8,21.9h7v7h-7V21.9z M246.8,29.1h7v7h-7V29.1z M246.8,36.4h7v7h-7V36.4z M246.8,43.6h7v7h-7V43.6z M254.1,7.3h7v7h-7V7.3z
	 M254.1,14.6h7v7h-7V14.6z M254.1,21.9h7v7h-7V21.9z M254.1,29.1h7v7h-7V29.1z M254.1,36.4h7v7h-7V36.4z M261.4,0h7v7h-7V0z
	 M261.4,14.6h7v7h-7V14.6z M261.4,21.9h7v7h-7V21.9z M261.4,29.1h7v7h-7V29.1z M261.4,43.6h7v7h-7V43.6z M268.6,0h7v7h-7V0z
	 M268.6,7.3h7v7h-7V7.3z M268.6,21.9h7v7h-7V21.9z M268.6,36.4h7v7h-7V36.4z M268.6,43.6h7v7h-7V43.6z M275.9,0h7v7h-7V0z
	 M275.9,7.3h7v7h-7V7.3z M275.9,14.6h7v7h-7V14.6z M275.9,29.1h7v7h-7V29.1z M275.9,36.4h7v7h-7V36.4z M275.9,43.6h7v7h-7V43.6z
	 M283.1,0h7v7h-7V0z M283.1,7.3h7v7h-7V7.3z M283.1,14.6h7v7h-7V14.6z M283.1,21.9h7v7h-7V21.9z M283.1,29.1h7v7h-7V29.1z
	 M283.1,36.4h7v7h-7V36.4z M283.1,43.6h7v7h-7V43.6z M290.4,0h7v7h-7V0z M290.4,7.3h7v7h-7V7.3z M290.4,14.6h7v7h-7V14.6z
	 M290.4,21.9h7v7h-7V21.9z M290.4,29.1h7v7h-7V29.1z M290.4,36.4h7v7h-7V36.4z M290.4,43.6h7v7h-7V43.6z M297.7,0h7v7h-7V0z
	 M297.7,7.3h7v7h-7V7.3z M297.7,14.6h7v7h-7V14.6z M297.7,21.9h7v7h-7V21.9z M297.7,29.1h7v7h-7V29.1z M297.7,36.4h7v7h-7V36.4z
	 M297.7,43.6h7v7h-7V43.6z M304.9,0h7v7h-7V0z M304.9,7.3h7v7h-7V7.3z M304.9,14.6h7v7h-7V14.6z M304.9,21.9h7v7h-7V21.9z
	 M304.9,29.1h7v7h-7V29.1z M304.9,36.4h7v7h-7V36.4z M304.9,43.6h7v7h-7V43.6z M312.2,0h7v7h-7V0z M312.2,7.3h7v7h-7V7.3z
	 M312.2,14.6h7v7h-7V14.6z M312.2,21.9h7v7h-7V21.9z M312.2,29.1h7v7h-7V29.1z M312.2,36.4h7v7h-7V36.4z M312.2,43.6h7v7h-7V43.6z
	 M319.4,0h7v7h-7V0z M319.4,7.3h7v7h-7V7.3z M319.4,14.6h7v7h-7V14.6z M319.4,21.9h7v7h-7V21.9z M319.4,29.1h7v7h-7V29.1z
	 M319.4,36.4h7v7h-7V36.4z M319.4,43.6h7v7h-7V43.6z M326.7,0h7v7h-7V0z M326.7,7.3h7v7h-7V7.3z M326.7,14.6h7v7h-7V14.6z
	 M326.7,21.9h7v7h-7V21.9z M326.7,29.1h7v7h-7V29.1z M326.7,36.4h7v7h-7V36.4z M326.7,43.6h7v7h-7V43.6z M334,0h7v7h-7V0z M334,7.3
	h7v7h-7V7.3z M334,14.6h7v7h-7V14.6z M334,21.9h7v7h-7V21.9z M334,29.1h7v7h-7V29.1z M334,36.4h7v7h-7V36.4z M334,43.6h7v7h-7V43.6z
	 M341.2,0h7v7h-7V0z M341.2,7.3h7v7h-7V7.3z M341.2,14.6h7v7h-7V14.6z M341.2,21.9h7v7h-7V21.9z M341.2,29.1h7v7h-7V29.1z
	 M341.2,36.4h7v7h-7V36.4z M341.2,43.6h7v7h-7V43.6z M348.5,7.3h7v7h-7V7.3z M348.5,14.6h7v7h-7V14.6z M348.5,21.9h7v7h-7V21.9z
	 M348.5,29.1h7v7h-7V29.1z M348.5,36.4h7v7h-7V36.4z M355.7,0h7v7h-7V0z M355.7,14.6h7v7h-7V14.6z M355.7,21.9h7v7h-7V21.9z
	 M355.7,29.1h7v7h-7V29.1z M355.7,43.6h7v7h-7V43.6z M363,0h7v7h-7V0z M363,7.3h7v7h-7V7.3z M363,21.9h7v7h-7V21.9z M363,36.4h7v7
	h-7V36.4z M363,43.6h7v7h-7V43.6z M370.3,0h7v7h-7V0z M370.3,7.3h7v7h-7V7.3z M370.3,14.6h7v7h-7V14.6z M370.3,29.1h7v7h-7V29.1z
	 M370.3,36.4h7v7h-7V36.4z M370.3,43.6h7v7h-7V43.6z M377.5,0h7v7h-7V0z M377.5,7.3h7v7h-7V7.3z M377.5,14.6h7v7h-7V14.6z
	 M377.5,21.9h7v7h-7V21.9z M377.5,29.1h7v7h-7V29.1z M377.5,36.4h7v7h-7V36.4z M377.5,43.6h7v7h-7V43.6z M384.8,0h7v7h-7V0z
	 M384.8,7.3h7v7h-7V7.3z M384.8,14.6h7v7h-7V14.6z M384.8,21.9h7v7h-7V21.9z M384.8,29.1h7v7h-7V29.1z M384.8,36.4h7v7h-7V36.4z
	 M384.8,43.6h7v7h-7V43.6z M392,0h7v7h-7V0z M392,7.3h7v7h-7V7.3z M392,14.6h7v7h-7V14.6z M392,21.9h7v7h-7V21.9z M392,29.1h7v7h-7
	V29.1z M392,36.4h7v7h-7V36.4z M392,43.6h7v7h-7V43.6z M399.3,0h7v7h-7V0z M399.3,7.3h7v7h-7V7.3z M399.3,14.6h7v7h-7V14.6z
	 M399.3,21.9h7v7h-7V21.9z M399.3,29.1h7v7h-7V29.1z M399.3,36.4h7v7h-7V36.4z M399.3,43.6h7v7h-7V43.6z M406.6,0h7v7h-7V0z
	 M406.6,7.3h7v7h-7V7.3z M406.6,14.6h7v7h-7V14.6z M406.6,21.9h7v7h-7V21.9z M406.6,29.1h7v7h-7V29.1z M406.6,36.4h7v7h-7V36.4z
	 M406.6,43.6h7v7h-7V43.6z M413.8,0h7v7h-7V0z M413.8,7.3h7v7h-7V7.3z M413.8,14.6h7v7h-7V14.6z M413.8,21.9h7v7h-7V21.9z
	 M413.8,29.1h7v7h-7V29.1z M413.8,36.4h7v7h-7V36.4z M413.8,43.6h7v7h-7V43.6z M421.1,0h7v7h-7V0z M421.1,7.3h7v7h-7V7.3z
	 M421.1,14.6h7v7h-7V14.6z M421.1,21.9h7v7h-7V21.9z M421.1,29.1h7v7h-7V29.1z M421.1,36.4h7v7h-7V36.4z M421.1,43.6h7v7h-7V43.6z
	 M428.3,0h7v7h-7V0z M428.3,7.3h7v7h-7V7.3z M428.3,14.6h7v7h-7V14.6z M428.3,21.9h7v7h-7V21.9z M428.3,29.1h7v7h-7V29.1z
	 M428.3,36.4h7v7h-7V36.4z M428.3,43.6h7v7h-7V43.6z M435.6,0h7v7h-7V0z M435.6,7.3h7v7h-7V7.3z M435.6,14.6h7v7h-7V14.6z
	 M435.6,21.9h7v7h-7V21.9z M435.6,29.1h7v7h-7V29.1z M435.6,36.4h7v7h-7V36.4z M435.6,43.6h7v7h-7V43.6z M442.9,7.3h7v7h-7V7.3z
	 M442.9,14.6h7v7h-7V14.6z M442.9,21.9h7v7h-7V21.9z M442.9,29.1h7v7h-7V29.1z M442.9,36.4h7v7h-7V36.4z M450.1,0h7v7h-7V0z
	 M450.1,14.6h7v7h-7V14.6z M450.1,21.9h7v7h-7V21.9z M450.1,29.1h7v7h-7V29.1z M450.1,43.6h7v7h-7V43.6z M457.4,0h7v7h-7V0z
	 M457.4,7.3h7v7h-7V7.3z M457.4,21.9h7v7h-7V21.9z M457.4,36.4h7v7h-7V36.4z M457.4,43.6h7v7h-7V43.6z M464.6,0h7v7h-7V0z
	 M464.6,7.3h7v7h-7V7.3z M464.6,14.6h7v7h-7V14.6z M464.6,29.1h7v7h-7V29.1z M464.6,36.4h7v7h-7V36.4z M464.6,43.6h7v7h-7V43.6z
	 M471.9,0h7v7h-7V0z M471.9,7.3h7v7h-7V7.3z M471.9,14.6h7v7h-7V14.6z M471.9,21.9h7v7h-7V21.9z M471.9,29.1h7v7h-7V29.1z
	 M471.9,36.4h7v7h-7V36.4z M471.9,43.6h7v7h-7V43.6z M479.2,0h7v7h-7V0z M479.2,7.3h7v7h-7V7.3z M479.2,14.6h7v7h-7V14.6z
	 M479.2,21.9h7v7h-7V21.9z M479.2,29.1h7v7h-7V29.1z M479.2,36.4h7v7h-7V36.4z M479.2,43.6h7v7h-7V43.6z M486.4,0h7v7h-7V0z
	 M486.4,7.3h7v7h-7V7.3z M486.4,14.6h7v7h-7V14.6z M486.4,21.9h7v7h-7V21.9z M486.4,29.1h7v7h-7V29.1z M486.4,36.4h7v7h-7V36.4z
	 M486.4,43.6h7v7h-7V43.6z M493.7,0h7v7h-7V0z M493.7,7.3h7v7h-7V7.3z M493.7,14.6h7v7h-7V14.6z M493.7,21.9h7v7h-7V21.9z
	 M493.7,29.1h7v7h-7V29.1z M493.7,36.4h7v7h-7V36.4z M493.7,43.6h7v7h-7V43.6z M500.9,0h7v7h-7V0z M500.9,7.3h7v7h-7V7.3z
	 M500.9,14.6h7v7h-7V14.6z M500.9,21.9h7v7h-7V21.9z M500.9,29.1h7v7h-7V29.1z M500.9,36.4h7v7h-7V36.4z M500.9,43.6h7v7h-7V43.6z
	 M508.2,0h7v7h-7V0z M508.2,7.3h7v7h-7V7.3z M508.2,14.6h7v7h-7V14.6z M508.2,21.9h7v7h-7V21.9z M508.2,29.1h7v7h-7V29.1z
	 M508.2,36.4h7v7h-7V36.4z M508.2,43.6h7v7h-7V43.6z M515.5,0h7v7h-7V0z M515.5,7.3h7v7h-7V7.3z M515.5,14.6h7v7h-7V14.6z
	 M515.5,21.9h7v7h-7V21.9z M515.5,29.1h7v7h-7V29.1z M515.5,36.4h7v7h-7V36.4z M515.5,43.6h7v7h-7V43.6z M522.7,0h7v7h-7V0z
	 M522.7,7.3h7v7h-7V7.3z M522.7,14.6h7v7h-7V14.6z M522.7,21.9h7v7h-7V21.9z M522.7,29.1h7v7h-7V29.1z M522.7,36.4h7v7h-7V36.4z
	 M522.7,43.6h7v7h-7V43.6z M530,0h7v7h-7V0z M530,7.3h7v7h-7V7.3z M530,14.6h7v7h-7V14.6z M530,21.9h7v7h-7V21.9z M530,29.1h7v7h-7
	V29.1z M530,36.4h7v7h-7V36.4z M530,43.6h7v7h-7V43.6z M537.2,7.3h7v7h-7V7.3z M537.2,14.6h7v7h-7V14.6z M537.2,21.9h7v7h-7V21.9z
	 M537.2,29.1h7v7h-7V29.1z M537.2,36.4h7v7h-7V36.4z M544.5,0h7v7h-7V0z M544.5,14.6h7v7h-7V14.6z M544.5,21.9h7v7h-7V21.9z
	 M544.5,29.1h7v7h-7V29.1z M544.5,43.6h7v7h-7V43.6z M551.8,0h7v7h-7V0z M551.8,7.3h7v7h-7V7.3z M551.8,21.9h7v7h-7V21.9z
	 M551.8,36.4h7v7h-7V36.4z M551.8,43.6h7v7h-7V43.6z M559,0h7v7h-7V0z M559,7.3h7v7h-7V7.3z M559,14.6h7v7h-7V14.6z M559,29.1h7v7
	h-7V29.1z M559,36.4h7v7h-7V36.4z M559,43.6h7v7h-7V43.6z M566.3,0h7v7h-7V0z M566.3,7.3h7v7h-7V7.3z M566.3,14.6h7v7h-7V14.6z
	 M566.3,21.9h7v7h-7V21.9z M566.3,29.1h7v7h-7V29.1z M566.3,36.4h7v7h-7V36.4z M566.3,43.6h7v7h-7V43.6z M573.5,0h7v7h-7V0z
	 M573.5,7.3h7v7h-7V7.3z M573.5,14.6h7v7h-7V14.6z M573.5,21.9h7v7h-7V21.9z M573.5,29.1h7v7h-7V29.1z M573.5,36.4h7v7h-7V36.4z
	 M573.5,43.6h7v7h-7V43.6z M580.8,0h7v7h-7V0z M580.8,7.3h7v7h-7V7.3z M580.8,14.6h7v7h-7V14.6z M580.8,21.9h7v7h-7V21.9z
	 M580.8,29.1h7v7h-7V29.1z M580.8,36.4h7v7h-7V36.4z M580.8,43.6h7v7h-7V43.6z M588.1,0h7v7h-7V0z M588.1,7.3h7v7h-7V7.3z
	 M588.1,14.6h7v7h-7V14.6z M588.1,21.9h7v7h-7V21.9z M588.1,29.1h7v7h-7V29.1z M588.1,36.4h7v7h-7V36.4z M588.1,43.6h7v7h-7V43.6z
	 M595.3,0h7v7h-7V0z M595.3,7.3h7v7h-7V7.3z M595.3,14.6h7v7h-7V14.6z M595.3,21.9h7v7h-7V21.9z M595.3,29.1h7v7h-7V29.1z
	 M595.3,36.4h7v7h-7V36.4z M595.3,43.6h7v7h-7V43.6z M602.6,0h7v7h-7V0z M602.6,7.3h7v7h-7V7.3z M602.6,14.6h7v7h-7V14.6z
	 M602.6,21.9h7v7h-7V21.9z M602.6,29.1h7v7h-7V29.1z M602.6,36.4h7v7h-7V36.4z M602.6,43.6h7v7h-7V43.6z M609.8,0h7v7h-7V0z
	 M609.8,7.3h7v7h-7V7.3z M609.8,14.6h7v7h-7V14.6z M609.8,21.9h7v7h-7V21.9z M609.8,29.1h7v7h-7V29.1z M609.8,36.4h7v7h-7V36.4z
	 M609.8,43.6h7v7h-7V43.6z M617.1,0h7v7h-7V0z M617.1,7.3h7v7h-7V7.3z M617.1,14.6h7v7h-7V14.6z M617.1,21.9h7v7h-7V21.9z
	 M617.1,29.1h7v7h-7V29.1z M617.1,36.4h7v7h-7V36.4z M617.1,43.6h7v7h-7V43.6z M624.4,0h7v7h-7V0z M624.4,7.3h7v7h-7V7.3z
	 M624.4,14.6h7v7h-7V14.6z M624.4,21.9h7v7h-7V21.9z M624.4,29.1h7v7h-7V29.1z M624.4,36.4h7v7h-7V36.4z M624.4,43.6h7v7h-7V43.6z
	 M631.6,7.3h7v7h-7V7.3z M631.6,14.6h7v7h-7V14.6z M631.6,21.9h7v7h-7V21.9z M631.6,29.1h7v7h-7V29.1z M631.6,36.4h7v7h-7V36.4z
	 M638.9,0h7v7h-7V0z M638.9,14.6h7v7h-7V14.6z M638.9,21.9h7v7h-7V21.9z M638.9,29.1h7v7h-7V29.1z M638.9,43.6h7v7h-7V43.6z
	 M646.1,0h7v7h-7V0z M646.1,7.3h7v7h-7V7.3z M646.1,21.9h7v7h-7V21.9z M646.1,36.4h7v7h-7V36.4z M646.1,43.6h7v7h-7V43.6z M653.4,0
	h7v7h-7V0z M653.4,7.3h7v7h-7V7.3z M653.4,14.6h7v7h-7V14.6z M653.4,29.1h7v7h-7V29.1z M653.4,36.4h7v7h-7V36.4z M653.4,43.6h7v7h-7
	V43.6z M660.7,0h7v7h-7V0z M660.7,7.3h7v7h-7V7.3z M660.7,14.6h7v7h-7V14.6z M660.7,21.9h7v7h-7V21.9z M660.7,29.1h7v7h-7V29.1z
	 M660.7,36.4h7v7h-7V36.4z M660.7,43.6h7v7h-7V43.6z M667.9,0h7v7h-7V0z M667.9,7.3h7v7h-7V7.3z M667.9,14.6h7v7h-7V14.6z
	 M667.9,21.9h7v7h-7V21.9z M667.9,29.1h7v7h-7V29.1z M667.9,36.4h7v7h-7V36.4z M667.9,43.6h7v7h-7V43.6z M675.2,0h7v7h-7V0z
	 M675.2,7.3h7v7h-7V7.3z M675.2,14.6h7v7h-7V14.6z M675.2,21.9h7v7h-7V21.9z M675.2,29.1h7v7h-7V29.1z M675.2,36.4h7v7h-7V36.4z
	 M675.2,43.6h7v7h-7V43.6z M682.4,0h7v7h-7V0z M682.4,7.3h7v7h-7V7.3z M682.4,14.6h7v7h-7V14.6z M682.4,21.9h7v7h-7V21.9z
	 M682.4,29.1h7v7h-7V29.1z M682.4,36.4h7v7h-7V36.4z M682.4,43.6h7v7h-7V43.6z M689.7,0h7v7h-7V0z M689.7,7.3h7v7h-7V7.3z
	 M689.7,14.6h7v7h-7V14.6z M689.7,21.9h7v7h-7V21.9z M689.7,29.1h7v7h-7V29.1z M689.7,36.4h7v7h-7V36.4z M689.7,43.6h7v7h-7V43.6z
	 M697,0h7v7h-7V0z M697,7.3h7v7h-7V7.3z M697,14.6h7v7h-7V14.6z M697,21.9h7v7h-7V21.9z M697,29.1h7v7h-7V29.1z M697,36.4h7v7h-7
	V36.4z M697,43.6h7v7h-7V43.6z M704.2,0h7v7h-7V0z M704.2,7.3h7v7h-7V7.3z M704.2,14.6h7v7h-7V14.6z M704.2,21.9h7v7h-7V21.9z
	 M704.2,29.1h7v7h-7V29.1z M704.2,36.4h7v7h-7V36.4z M704.2,43.6h7v7h-7V43.6z M711.5,0h7v7h-7V0z M711.5,7.3h7v7h-7V7.3z
	 M711.5,14.6h7v7h-7V14.6z M711.5,21.9h7v7h-7V21.9z M711.5,29.1h7v7h-7V29.1z M711.5,36.4h7v7h-7V36.4z M711.5,43.6h7v7h-7V43.6z
	 M718.7,0h7v7h-7V0z M718.7,7.3h7v7h-7V7.3z M718.7,14.6h7v7h-7V14.6z M718.7,21.9h7v7h-7V21.9z M718.7,29.1h7v7h-7V29.1z
	 M718.7,36.4h7v7h-7V36.4z M718.7,43.6h7v7h-7V43.6z M726,7.3h7v7h-7V7.3z M726,14.6h7v7h-7V14.6z M726,21.9h7v7h-7V21.9z M726,29.1
	h7v7h-7V29.1z M726,36.4h7v7h-7V36.4z M733.3,0h7v7h-7V0z M733.3,14.6h7v7h-7V14.6z M733.3,21.9h7v7h-7V21.9z M733.3,29.1h7v7h-7
	V29.1z M733.3,43.6h7v7h-7V43.6z M740.5,0h7v7h-7V0z M740.5,7.3h7v7h-7V7.3z M740.5,21.9h7v7h-7V21.9z M740.5,36.4h7v7h-7V36.4z
	 M740.5,43.6h7v7h-7V43.6z M747.8,0h7v7h-7V0z M747.8,7.3h7v7h-7V7.3z M747.8,14.6h7v7h-7V14.6z M747.8,29.1h7v7h-7V29.1z
	 M747.8,36.4h7v7h-7V36.4z M747.8,43.6h7v7h-7V43.6z M755,0h7v7h-7V0z M755,7.3h7v7h-7V7.3z M755,14.6h7v7h-7V14.6z M755,21.9h7v7
	h-7V21.9z M755,29.1h7v7h-7V29.1z M755,36.4h7v7h-7V36.4z M755,43.6h7v7h-7V43.6z M762.3,0h7v7h-7V0z M762.3,7.3h7v7h-7V7.3z
	 M762.3,14.6h7v7h-7V14.6z M762.3,21.9h7v7h-7V21.9z M762.3,29.1h7v7h-7V29.1z M762.3,36.4h7v7h-7V36.4z M762.3,43.6h7v7h-7V43.6z
	 M769.6,0h7v7h-7V0z M769.6,7.3h7v7h-7V7.3z M769.6,14.6h7v7h-7V14.6z M769.6,21.9h7v7h-7V21.9z M769.6,29.1h7v7h-7V29.1z
	 M769.6,36.4h7v7h-7V36.4z M769.6,43.6h7v7h-7V43.6z M776.8,0h7v7h-7V0z M776.8,7.3h7v7h-7V7.3z M776.8,14.6h7v7h-7V14.6z
	 M776.8,21.9h7v7h-7V21.9z M776.8,29.1h7v7h-7V29.1z M776.8,36.4h7v7h-7V36.4z M776.8,43.6h7v7h-7V43.6z M784.1,0h7v7h-7V0z
	 M784.1,7.3h7v7h-7V7.3z M784.1,14.6h7v7h-7V14.6z M784.1,21.9h7v7h-7V21.9z M784.1,29.1h7v7h-7V29.1z M784.1,36.4h7v7h-7V36.4z
	 M784.1,43.6h7v7h-7V43.6z M791.3,0h7v7h-7V0z M791.3,7.3h7v7h-7V7.3z M791.3,14.6h7v7h-7V14.6z M791.3,21.9h7v7h-7V21.9z
	 M791.3,29.1h7v7h-7V29.1z M791.3,36.4h7v7h-7V36.4z M791.3,43.6h7v7h-7V43.6z M798.6,0h7v7h-7V0z M798.6,7.3h7v7h-7V7.3z
	 M798.6,14.6h7v7h-7V14.6z M798.6,21.9h7v7h-7V21.9z M798.6,29.1h7v7h-7V29.1z M798.6,36.4h7v7h-7V36.4z M798.6,43.6h7v7h-7V43.6z
	 M805.9,0h7v7h-7V0z M805.9,7.3h7v7h-7V7.3z M805.9,14.6h7v7h-7V14.6z M805.9,21.9h7v7h-7V21.9z M805.9,29.1h7v7h-7V29.1z
	 M805.9,36.4h7v7h-7V36.4z M805.9,43.6h7v7h-7V43.6z M813.1,0h7v7h-7V0z M813.1,7.3h7v7h-7V7.3z M813.1,14.6h7v7h-7V14.6z
	 M813.1,21.9h7v7h-7V21.9z M813.1,29.1h7v7h-7V29.1z M813.1,36.4h7v7h-7V36.4z M813.1,43.6h7v7h-7V43.6z M820.4,7.3h7v7h-7V7.3z
	 M820.4,14.6h7v7h-7V14.6z M820.4,21.9h7v7h-7V21.9z M820.4,29.1h7v7h-7V29.1z M820.4,36.4h7v7h-7V36.4z M827.6,0h7v7h-7V0z
	 M827.6,14.6h7v7h-7V14.6z M827.6,21.9h7v7h-7V21.9z M827.6,29.1h7v7h-7V29.1z M827.6,43.6h7v7h-7V43.6z M834.9,0h7v7h-7V0z
	 M834.9,7.3h7v7h-7V7.3z M834.9,21.9h7v7h-7V21.9z M834.9,36.4h7v7h-7V36.4z M834.9,43.6h7v7h-7V43.6z M842.2,0h7v7h-7V0z
	 M842.2,7.3h7v7h-7V7.3z M842.2,14.6h7v7h-7V14.6z M842.2,29.1h7v7h-7V29.1z M842.2,36.4h7v7h-7V36.4z M842.2,43.6h7v7h-7V43.6z
	 M849.4,0h7v7h-7V0z M849.4,7.3h7v7h-7V7.3z M849.4,14.6h7v7h-7V14.6z M849.4,21.9h7v7h-7V21.9z M849.4,29.1h7v7h-7V29.1z
	 M849.4,36.4h7v7h-7V36.4z M849.4,43.6h7v7h-7V43.6z M856.7,0h7v7h-7V0z M856.7,7.3h7v7h-7V7.3z M856.7,14.6h7v7h-7V14.6z
	 M856.7,21.9h7v7h-7V21.9z M856.7,29.1h7v7h-7V29.1z M856.7,36.4h7v7h-7V36.4z M856.7,43.6h7v7h-7V43.6z M863.9,0h7v7h-7V0z
	 M863.9,7.3h7v7h-7V7.3z M863.9,14.6h7v7h-7V14.6z M863.9,21.9h7v7h-7V21.9z M863.9,29.1h7v7h-7V29.1z M863.9,36.4h7v7h-7V36.4z
	 M863.9,43.6h7v7h-7V43.6z M871.2,0h7v7h-7V0z M871.2,7.3h7v7h-7V7.3z M871.2,14.6h7v7h-7V14.6z M871.2,21.9h7v7h-7V21.9z
	 M871.2,29.1h7v7h-7V29.1z M871.2,36.4h7v7h-7V36.4z M871.2,43.6h7v7h-7V43.6z M878.5,0h7v7h-7V0z M878.5,7.3h7v7h-7V7.3z
	 M878.5,14.6h7v7h-7V14.6z M878.5,21.9h7v7h-7V21.9z M878.5,29.1h7v7h-7V29.1z M878.5,36.4h7v7h-7V36.4z M878.5,43.6h7v7h-7V43.6z
	 M885.7,0h7v7h-7V0z M885.7,7.3h7v7h-7V7.3z M885.7,14.6h7v7h-7V14.6z M885.7,21.9h7v7h-7V21.9z M885.7,29.1h7v7h-7V29.1z
	 M885.7,36.4h7v7h-7V36.4z M885.7,43.6h7v7h-7V43.6z M893,0h7v7h-7V0z M893,7.3h7v7h-7V7.3z M893,14.6h7v7h-7V14.6z M893,21.9h7v7
	h-7V21.9z M893,29.1h7v7h-7V29.1z M893,36.4h7v7h-7V36.4z M893,43.6h7v7h-7V43.6z M900.2,0h7v7h-7V0z M900.2,7.3h7v7h-7V7.3z
	 M900.2,14.6h7v7h-7V14.6z M900.2,21.9h7v7h-7V21.9z M900.2,29.1h7v7h-7V29.1z M900.2,36.4h7v7h-7V36.4z M900.2,43.6h7v7h-7V43.6z
	 M907.5,0h7v7h-7V0z M907.5,7.3h7v7h-7V7.3z M907.5,14.6h7v7h-7V14.6z M907.5,21.9h7v7h-7V21.9z M907.5,29.1h7v7h-7V29.1z
	 M907.5,36.4h7v7h-7V36.4z M907.5,43.6h7v7h-7V43.6z M914.8,7.3h7v7h-7V7.3z M914.8,14.6h7v7h-7V14.6z M914.8,21.9h7v7h-7V21.9z
	 M914.8,29.1h7v7h-7V29.1z M914.8,36.4h7v7h-7V36.4z M922,0h7v7h-7V0z M922,14.6h7v7h-7V14.6z M922,21.9h7v7h-7V21.9z M922,29.1h7v7
	h-7V29.1z M922,43.6h7v7h-7V43.6z M929.3,0h7v7h-7V0z M929.3,7.3h7v7h-7V7.3z M929.3,21.9h7v7h-7V21.9z M929.3,36.4h7v7h-7V36.4z
	 M929.3,43.6h7v7h-7V43.6z M936.5,0h7v7h-7V0z M936.5,7.3h7v7h-7V7.3z M936.5,14.6h7v7h-7V14.6z M936.5,29.1h7v7h-7V29.1z
	 M936.5,36.4h7v7h-7V36.4z M936.5,43.6h7v7h-7V43.6z M943.8,0h7v7h-7V0z M943.8,7.3h7v7h-7V7.3z M943.8,14.6h7v7h-7V14.6z
	 M943.8,21.9h7v7h-7V21.9z M943.8,29.1h7v7h-7V29.1z M943.8,36.4h7v7h-7V36.4z M943.8,43.6h7v7h-7V43.6z M951.1,0h7v7h-7V0z
	 M951.1,7.3h7v7h-7V7.3z M951.1,14.6h7v7h-7V14.6z M951.1,21.9h7v7h-7V21.9z M951.1,29.1h7v7h-7V29.1z M951.1,36.4h7v7h-7V36.4z
	 M951.1,43.6h7v7h-7V43.6z"/>
</svg>
