<?xml version="1.0" encoding="utf-8"?>
<!-- Generator: Adobe Illustrator 27.3.1, SVG Export Plug-In . SVG Version: 6.00 Build 0)  -->
<svg version="1.1" id="Слой_1" xmlns="http://www.w3.org/2000/svg" xmlns:xlink="http://www.w3.org/1999/xlink" x="0px" y="0px"
	 viewBox="0 0 972.7 65.2" style="enable-background:new 0 0 972.7 65.2;" xml:space="preserve">
<style type="text/css">
	.st0{fill:url(#SVGID_1_);}
	.st1{fill:#1E0E01;}
</style>
<g id="Слой_2_00000160888078012377297970000015610287114806181563_">
	
		<linearGradient id="SVGID_1_" gradientUnits="userSpaceOnUse" x1="486.35" y1="-337.2297" x2="486.35" y2="-272" gradientTransform="matrix(1 0 0 -1 0 -272)">
		<stop  offset="0" style="stop-color:#F7D276"/>
		<stop  offset="0.5495" style="stop-color:#F7D379"/>
		<stop  offset="1" style="stop-color:#F9EACA"/>
	</linearGradient>
	<polygon class="st0" points="0,0 972.7,0 972.7,65.2 0,65.2 	"/>
</g>
<path class="st1" d="M0,0h7v7H0V0z M0,7.2h7v7H0V7.2z M0,14.5h7v7H0V14.5z M0,21.8h7v7H0V21.8z M0,29.1h7v7H0V29.1z M0,36.3h7v7H0
	V36.3z M0,43.6h7v7H0V43.6z M0,50.8h7v7H0V50.8z M0,58.1h7v7H0V58.1z M7.3,0h7v7h-7V0z M7.3,58.1h7v7h-7V58.1z M14.5,0h7v7h-7V0z
	 M14.5,58.1h7v7h-7V58.1z M21.8,0h7v7h-7V0z M21.8,58.1h7v7h-7V58.1z M29.1,0h7v7h-7C29.1,7,29.1,0,29.1,0z M29.1,58.1h7v7h-7
	C29.1,65.1,29.1,58.1,29.1,58.1z M36.3,0h7v7h-7V0z M36.3,58.1h7v7h-7V58.1z M43.6,0h7v7h-7V0z M43.6,58.1h7v7h-7V58.1z M50.8,0h7v7
	h-7V0z M50.8,58.1h7v7h-7V58.1z M58.1,0h7v7h-7V0z M58.1,58.1h7v7h-7V58.1z M65.4,0h7v7h-7V0z M65.4,58.1h7v7h-7V58.1z M72.6,0h7v7
	h-7V0z M72.6,58.1h7v7h-7V58.1z M79.9,0h7v7h-7V0z M79.9,58.1h7v7h-7V58.1z M87.1,0h7v7h-7V0z M87.1,58.1h7v7h-7V58.1z M94.4,0h7v7
	h-7V0z M94.4,58.1h7v7h-7V58.1z M101.7,0h7v7h-7V0z M101.7,58.1h7v7h-7V58.1z M108.9,0h7v7h-7V0z M108.9,58.1h7v7h-7V58.1z M116.2,0
	h7v7h-7V0z M116.2,58.1h7v7h-7V58.1z M123.4,0h7v7h-7C123.4,7,123.4,0,123.4,0z M123.4,58.1h7v7h-7
	C123.4,65.1,123.4,58.1,123.4,58.1z M130.7,0h7v7h-7V0z M130.7,58.1h7v7h-7V58.1z M138,0h7v7h-7V0z M138,58.1h7v7h-7V58.1z M145.2,0
	h7v7h-7V0z M145.2,58.1h7v7h-7V58.1z M152.5,0h7v7h-7V0z M152.5,58.1h7v7h-7V58.1z M159.7,0h7v7h-7V0z M159.7,58.1h7v7h-7V58.1z
	 M167,0h7v7h-7V0z M167,58.1h7v7h-7V58.1z M174.3,0h7v7h-7V0z M174.3,58.1h7v7h-7V58.1z M181.5,0h7v7h-7V0z M181.5,58.1h7v7h-7V58.1
	z M188.8,0h7v7h-7V0z M188.8,58.1h7v7h-7V58.1z M196,0h7v7h-7V0z M196,58.1h7v7h-7V58.1z M203.3,0h7v7h-7V0z M203.3,58.1h7v7h-7
	V58.1z M210.6,0h7v7h-7V0z M210.6,58.1h7v7h-7V58.1z M217.8,0h7v7h-7V0z M217.8,58.1h7v7h-7V58.1z M225.1,0h7v7h-7V0z M225.1,58.1h7
	v7h-7V58.1z M232.3,0h7v7h-7V0z M232.3,58.1h7v7h-7V58.1z M239.6,0h7v7h-7V0z M239.6,58.1h7v7h-7V58.1z M246.9,0h7v7h-7V0z
	 M246.9,58.1h7v7h-7V58.1z M254.1,0h7v7h-7V0z M254.1,58.1h7v7h-7V58.1z M261.4,0h7v7h-7V0z M261.4,58.1h7v7h-7V58.1z M268.6,0h7v7
	h-7V0z M268.6,58.1h7v7h-7V58.1z M275.9,0h7v7h-7V0z M275.9,58.1h7v7h-7V58.1z M283.2,0h7v7h-7V0z M283.2,58.1h7v7h-7V58.1z
	 M290.4,0h7v7h-7V0z M290.4,58.1h7v7h-7V58.1z M297.7,0h7v7h-7V0z M297.7,58.1h7v7h-7V58.1z M304.9,0h7v7h-7V0z M304.9,58.1h7v7h-7
	V58.1z M312.2,0h7v7h-7V0z M312.2,58.1h7v7h-7V58.1z M319.5,0h7v7h-7V0z M319.5,58.1h7v7h-7V58.1z M326.7,0h7v7h-7V0z M326.7,58.1h7
	v7h-7V58.1z M334,0h7v7h-7V0z M334,58.1h7v7h-7V58.1z M341.2,0h7v7h-7V0z M341.2,58.1h7v7h-7V58.1z M348.5,0h7v7h-7V0z M348.5,58.1
	h7v7h-7V58.1z M355.8,0h7v7h-7V0z M355.8,58.1h7v7h-7V58.1z M363,0h7v7h-7V0z M363,58.1h7v7h-7V58.1z M370.3,0h7v7h-7V0z
	 M370.3,58.1h7v7h-7V58.1z M377.5,0h7v7h-7V0z M377.5,58.1h7v7h-7V58.1z M384.8,0h7v7h-7V0z M384.8,58.1h7v7h-7V58.1z M392.1,0h7v7
	h-7V0z M392.1,58.1h7v7h-7V58.1z M399.3,0h7v7h-7V0z M399.3,58.1h7v7h-7V58.1z M406.6,0h7v7h-7V0z M406.6,58.1h7v7h-7V58.1z
	 M413.8,0h7v7h-7V0z M413.8,58.1h7v7h-7V58.1z M421.1,0h7v7h-7V0z M421.1,58.1h7v7h-7V58.1z M428.4,0h7v7h-7V0z M428.4,58.1h7v7h-7
	V58.1z M435.6,0h7v7h-7V0z M435.6,58.1h7v7h-7V58.1z M442.9,0h7v7h-7V0z M442.9,58.1h7v7h-7V58.1z M450.1,0h7v7h-7V0z M450.1,58.1h7
	v7h-7V58.1z M457.4,0h7v7h-7V0z M457.4,58.1h7v7h-7V58.1z M464.7,0h7v7h-7V0z M464.7,58.1h7v7h-7V58.1z M471.9,0h7v7h-7V0z
	 M471.9,58.1h7v7h-7V58.1z M479.2,0h7v7h-7V0z M479.2,58.1h7v7h-7V58.1z M486.4,0h7v7h-7V0z M486.4,58.1h7v7h-7V58.1z M493.7,0h7v7
	h-7V0z M493.7,58.1h7v7h-7V58.1z M501,0h7v7h-7V0z M501,58.1h7v7h-7V58.1z M508.2,0h7v7h-7V0L508.2,0z M508.2,58.1h7v7h-7V58.1
	L508.2,58.1z M515.5,0h7v7h-7V0z M515.5,58.1h7v7h-7V58.1z M522.7,0h7v7h-7V0z M522.7,58.1h7v7h-7V58.1z M530,0h7v7h-7V0z M530,58.1
	h7v7h-7V58.1z M537.3,0h7v7h-7V0z M537.3,58.1h7v7h-7V58.1z M544.5,0h7v7h-7V0z M544.5,58.1h7v7h-7V58.1z M551.8,0h7v7h-7V0z
	 M551.8,58.1h7v7h-7V58.1z M559,0h7v7h-7V0z M559,58.1h7v7h-7V58.1z M566.3,0h7v7h-7V0z M566.3,58.1h7v7h-7V58.1z M573.6,0h7v7h-7V0
	z M573.6,58.1h7v7h-7V58.1z M580.8,0h7v7h-7V0z M580.8,58.1h7v7h-7V58.1z M588.1,0h7v7h-7V0z M588.1,58.1h7v7h-7V58.1z M595.3,0h7v7
	h-7V0z M595.3,58.1h7v7h-7V58.1z M602.6,0h7v7h-7V0z M602.6,58.1h7v7h-7V58.1z M609.9,0h7v7h-7V0z M609.9,58.1h7v7h-7V58.1z
	 M617.1,0h7v7h-7V0z M617.1,58.1h7v7h-7V58.1z M624.3,0h7v7h-7V0z M624.3,58.1h7v7h-7V58.1z M631.7,0h7v7h-7V0z M631.7,58.1h7v7h-7
	V58.1z M638.9,0h7v7h-7V0z M638.9,58.1h7v7h-7V58.1z M646.2,0h7v7h-7V0z M646.2,58.1h7v7h-7V58.1z M653.3,0h7v7h-7V0z M653.3,58.1h7
	v7h-7V58.1z M660.7,0h7v7h-7V0z M660.7,58.1h7v7h-7V58.1z M668,0h7v7h-7V0z M668,58.1h7v7h-7V58.1z M675.2,0h7v7h-7V0z M675.2,58.1
	h7v7h-7V58.1z M682.5,0h7v7h-7V0z M682.5,58.1h7v7h-7V58.1z M689.7,0h7v7h-7V0z M689.7,58.1h7v7h-7V58.1z M697,0h7v7h-7V0z
	 M697,58.1h7v7h-7V58.1z M704.3,0h7v7h-7V0z M704.3,58.1h7v7h-7V58.1z M711.5,0h7v7h-7V0z M711.5,58.1h7v7h-7V58.1z M718.8,0h7v7h-7
	V0z M718.8,58.1h7v7h-7V58.1z M726,0h7v7h-7V0z M726,58.1h7v7h-7V58.1z M733.3,0h7v7h-7V0z M733.3,58.1h7v7h-7V58.1z M740.6,0h7v7
	h-7V0z M740.6,58.1h7v7h-7V58.1z M747.8,0h7v7h-7V0z M747.8,58.1h7v7h-7V58.1z M755.1,0h7v7h-7V0z M755.1,58.1h7v7h-7V58.1z
	 M762.3,0h7v7h-7V0z M762.3,58.1h7v7h-7V58.1z M769.6,0h7v7h-7V0z M769.6,58.1h7v7h-7V58.1z M776.9,0h7v7h-7V0z M776.9,58.1h7v7h-7
	V58.1z M784.1,0h7v7h-7V0z M784.1,58.1h7v7h-7V58.1z M791.3,0h7v7h-7V0z M791.3,58.1h7v7h-7V58.1z M798.6,0h7v7h-7V0z M798.6,58.1h7
	v7h-7V58.1z M805.9,0h7v7h-7V0z M805.9,58.1h7v7h-7V58.1z M813.2,0h7v7h-7V0z M813.2,58.1h7v7h-7V58.1z M820.6,0h7v7h-7V0z
	 M820.6,58.1h7v7h-7V58.1z M827.9,0h7v7h-7V0z M827.9,58.1h7v7h-7V58.1z M835,0h7v7h-7V0z M835,58.1h7v7h-7V58.1z M842.4,0h7v7h-7V0
	z M842.4,58.1h7v7h-7V58.1z M849.6,0h7v7h-7V0z M849.6,58.1h7v7h-7V58.1z M856.9,0h7v7h-7V0z M856.9,58.1h7v7h-7V58.1z M864.1,0h7v7
	h-7V0z M864.1,58.1h7v7h-7V58.1z M871.4,0h7v7h-7V0z M871.4,58.1h7v7h-7V58.1z M878.6,0h7v7h-7V0z M878.6,58.1h7v7h-7V58.1z
	 M885.9,0h7v7h-7V0z M885.9,58.1h7v7h-7V58.1z M893.1,0h7v7h-7V0z M893.1,58.1h7v7h-7V58.1z M900.5,0h7v7h-7V0z M900.5,58.1h7v7h-7
	V58.1z M907.6,0h7v7h-7V0z M907.6,58.1h7v7h-7V58.1z M915,0h7v7h-7V0z M915,58.1h7v7h-7V58.1z M922.1,0h7v7h-7V0z M922.1,58.1h7v7
	h-7V58.1z M929.5,0h7v7h-7V0z M929.5,58.1h7v7h-7V58.1z M936.7,0h7v7h-7V0z M936.7,58.1h7v7h-7V58.1z M944,0h7v7h-7V0z M944,58.1h7
	v7h-7V58.1z M951.2,0h7v7h-7V0z M951.2,58.1h7v7h-7V58.1z M958.5,0h7v7h-7V0z M958.5,58.1h7v7h-7V58.1z M965.7,0h7v7h-7V0z
	 M965.7,7.2h7v7h-7V7.2z M965.7,14.5h7v7h-7V14.5z M965.7,21.9h7v7h-7V21.9z M965.7,29.1h7v7h-7V29.1z M965.7,36.3h7v7h-7V36.3z
	 M965.7,43.6h7v7h-7V43.6z M965.7,50.9h7v7h-7V50.9z M965.7,58.1h7v7h-7V58.1z"/>
</svg>
