<?xml version="1.0" encoding="utf-8"?>
<!-- Generator: Adobe Illustrator 27.3.1, SVG Export Plug-In . SVG Version: 6.00 Build 0)  -->
<svg version="1.1" id="Слой_1" xmlns="http://www.w3.org/2000/svg" xmlns:xlink="http://www.w3.org/1999/xlink" x="0px" y="0px"
	 viewBox="0 0 1320.9 109.6" style="enable-background:new 0 0 1320.9 109.6;" xml:space="preserve">
<style type="text/css">
	.st0{fill:url(#SVGID_1_);}
	.st1{fill:#1E0E01;}
</style>
<g id="Слой_2_00000160888078012377297970000015610287114806181563_">
	
		<linearGradient id="SVGID_1_" gradientUnits="userSpaceOnUse" x1="660.4" y1="6.9688" x2="660.4" y2="104.6" gradientTransform="matrix(1 0 0 -1 0 112)">
		<stop  offset="3.351955e-02" style="stop-color:#F9EACA"/>
		<stop  offset="1" style="stop-color:#F7D276"/>
	</linearGradient>
	<polygon class="st0" points="-0.1,7.4 1320.9,7.4 1320.9,105 0,103.9 	"/>
</g>
<g id="Слой_1_00000016794696748258690130000013502047494669206199_">
	<path class="st1" d="M-0.1,7.4h7v7h-7C-0.1,14.4-0.1,7.4-0.1,7.4z M-0.1,14.6h7v7h-7C-0.1,21.6-0.1,14.6-0.1,14.6z M-0.1,21.9h7v7
		h-7C-0.1,28.9-0.1,21.9-0.1,21.9z M-0.1,29.2h7v7h-7C-0.1,36.2-0.1,29.2-0.1,29.2z M-0.1,36.3h7v7h-7C-0.1,43.3-0.1,36.3-0.1,36.3z
		 M-0.1,43.6h7v7h-7C-0.1,50.6-0.1,43.6-0.1,43.6z M-0.1,51h7v7h-7C-0.1,58-0.1,51-0.1,51z M-0.1,58.1h7v7h-7
		C-0.1,65.1-0.1,58.1-0.1,58.1z M-0.1,65.5h7v7h-7C-0.1,72.5-0.1,65.5-0.1,65.5z M-0.1,72.7h7v7h-7C-0.1,79.7-0.1,72.7-0.1,72.7z
		 M-0.1,80h7v7h-7C-0.1,87-0.1,80-0.1,80z M-0.1,87.2h7v7h-7C-0.1,94.2-0.1,87.2-0.1,87.2z M-0.1,94.5h7v7h-7
		C-0.1,101.5-0.1,94.5-0.1,94.5z M7.2,7.4h7v7h-7V7.4z M7.2,14.6h7v7h-7V14.6z M7.2,94.5h7v7h-7V94.5z M7.2,87.2h7v7h-7V87.2z
		 M14.4,7.4h7v7h-7V7.4z M14.4,43.6h7v7h-7V43.6z M14.4,51h7v7h-7V51z M14.4,58.1h7v7h-7V58.1z M14.4,94.5h7v7h-7V94.5z M21.7,7.4h7
		v7h-7V7.4z M21.7,29.2h7v7h-7V29.2z M21.7,36.3h7v7h-7V36.3z M21.7,43.6h7v7h-7V43.6z M21.7,51h7v7h-7V51z M21.7,65.5h7v7h-7V65.5z
		 M21.7,72.7h7v7h-7V72.7z M21.7,94.5h7v7h-7V94.5z M29,7.4h7v7h-7V7.4z M29,29.2h7v7h-7V29.2z M29,51h7v7h-7V51z M29,58.1h7v7h-7
		V58.1z M29,72.7h7v7h-7V72.7z M29,94.5h7v7h-7V94.5z M36.2,7.4h7v7h-7V7.4z M36.2,21.9h7v7h-7V21.9z M36.2,29.2h7v7h-7V29.2z
		 M36.2,80h7v7h-7V80z M36.2,94.5h7v7h-7V94.5z M43.5,7.4h7v7h-7V7.4z M43.5,21.9h7v7h-7V21.9z M43.5,29.2h7v7h-7V29.2z M43.5,36.3
		h7v7h-7V36.3z M43.5,43.6h7v7h-7V43.6z M43.5,58.1h7v7h-7V58.1z M43.5,80h7v7h-7V80z M43.5,94.5h7v7h-7V94.5z M50.7,7.4h7v7h-7V7.4
		z M50.7,21.9h7v7h-7V21.9z M50.7,36.3h7v7h-7V36.3z M50.7,43.6h7v7h-7V43.6z M50.7,51h7v7h-7V51z M50.7,58.1h7v7h-7V58.1z M58,72.7
		h7v7h-7V72.7z M50.7,80h7v7h-7V80z M50.7,94.5h7v7h-7V94.5z M58,7.4h7v7h-7V7.4z M58,29.2h7v7h-7V29.2z M58,43.6h7v7h-7V43.6z
		 M58,51h7v7h-7V51z M58,94.5h7v7h-7V94.5z M65.3,7.4h7v7h-7V7.4z M65.3,29.2h7v7h-7V29.2z M65.3,36.3h7v7h-7V36.3z M65.3,72.7h7v7
		h-7V72.7z M65.3,94.5h7v7h-7V94.5z M72.5,7.4h7v7h-7V7.4z M72.5,43.6h7v7h-7V43.6z M72.5,51h7v7h-7V51z M72.5,58.1h7v7h-7V58.1z
		 M65.3,65.4h7v7h-7V65.4z M72.5,94.5h7v7h-7V94.5z M79.8,7.4h7v7h-7V7.4z M79.8,14.6h7v7h-7V14.6z M79.8,94.5h7v7h-7V94.5z
		 M79.8,87.2h7v7h-7V87.2z M87,7.4h7v7h-7V7.4z M87,14.6h7v7h-7V14.6z M87,21.9h7v7h-7V21.9z M87,29.2h7v7h-7V29.2z M87,36.3h7v7h-7
		V36.3z M87,43.6h7v7h-7V43.6z M87,51h7v7h-7V51z M87,58.1h7v7h-7V58.1z M87,65.5h7v7h-7V65.5z M87,72.7h7v7h-7V72.7z M87,80h7v7h-7
		V80z M87,87.2h7v7h-7V87.2z M87,94.5h7v7h-7V94.5z M94.3,7.4h7v7h-7V7.4z M94.3,14.6h7v7h-7V14.6z M94.3,21.9h7v7h-7V21.9z
		 M94.3,29.2h7v7h-7V29.2z M94.3,36.3h7v7h-7V36.3z M94.3,43.6h7v7h-7V43.6z M94.3,51h7v7h-7V51z M94.3,58.1h7v7h-7V58.1z
		 M94.3,65.5h7v7h-7V65.5z M94.3,72.7h7v7h-7V72.7z M94.3,80h7v7h-7V80z M94.3,87.2h7v7h-7V87.2z M94.3,94.5h7v7h-7V94.5z
		 M101.6,7.4h7v7h-7V7.4z M101.6,14.6h7v7h-7V14.6z M101.6,87.2h7v7h-7V87.2z M101.6,94.5h7v7h-7V94.5z M108.8,7.4h7v7h-7V7.4z
		 M108.8,94.5h7v7h-7V94.5z M116.1,7.4h7v7h-7V7.4z M116.1,94.5h7v7h-7V94.5z M123.3,7.4h7v7h-7V7.4z M123.3,94.5h7v7h-7V94.5z
		 M130.6,7.4h7v7h-7V7.4z M130.6,94.5h7v7h-7V94.5z M137.9,7.4h7v7h-7V7.4z M137.9,94.5h7v7h-7V94.5z M145.1,7.4h7v7h-7V7.4z
		 M145.1,94.5h7v7h-7V94.5z M152.4,7.4h7v7h-7V7.4z M152.4,94.5h7v7h-7V94.5z M159.6,7.4h7v7h-7V7.4z M159.6,94.5h7v7h-7V94.5z
		 M166.9,7.4h7v7h-7V7.4z M166.9,94.5h7v7h-7V94.5z M174.2,7.4h7v7h-7V7.4z M174.2,94.5h7v7h-7V94.5z M181.4,7.4h7v7h-7V7.4z
		 M181.4,94.5h7v7h-7V94.5z M188.7,7.4h7v7h-7V7.4z M188.7,94.5h7v7h-7V94.5z M195.9,7.4h7v7h-7V7.4z M195.9,94.5h7v7h-7V94.5z
		 M203.2,7.4h7v7h-7V7.4z M203.2,94.5h7v7h-7V94.5z M210.5,7.4h7v7h-7V7.4z M210.5,94.5h7v7h-7V94.5z M217.7,7.4h7v7h-7V7.4z
		 M217.7,94.5h7v7h-7V94.5z M225,7.4h7v7h-7V7.4z M225,94.5h7v7h-7V94.5z M232.2,7.4h7v7h-7V7.4z M232.2,94.5h7v7h-7V94.5z
		 M239.5,7.4h7v7h-7V7.4z M239.5,94.5h7v7h-7V94.5z M246.8,7.4h7v7h-7V7.4z M246.8,94.5h7v7h-7V94.5z M254,7.4h7v7h-7V7.4z
		 M254,94.5h7v7h-7V94.5z M261.3,7.4h7v7h-7V7.4z M261.3,94.5h7v7h-7V94.5z M268.5,7.4h7v7h-7V7.4z M268.5,94.5h7v7h-7V94.5z
		 M275.8,7.4h7v7h-7V7.4z M275.8,94.5h7v7h-7V94.5z M283.1,7.4h7v7h-7V7.4z M283.1,94.5h7v7h-7V94.5z M290.3,7.4h7v7h-7V7.4z
		 M290.3,94.5h7v7h-7V94.5z M297.6,7.4h7v7h-7V7.4z M297.6,94.5h7v7h-7V94.5z M304.8,7.4h7v7h-7V7.4z M304.8,94.5h7v7h-7V94.5z
		 M312.1,7.4h7v7h-7V7.4z M312.1,94.5h7v7h-7V94.5z M319.4,7.4h7v7h-7V7.4z M319.4,94.5h7v7h-7V94.5z M326.6,7.4h7v7h-7V7.4z
		 M326.6,94.5h7v7h-7V94.5z M333.9,7.4h7v7h-7V7.4z M333.9,94.5h7v7h-7V94.5z M341.1,7.4h7v7h-7V7.4z M341.1,94.5h7v7h-7V94.5z
		 M348.4,7.4h7v7h-7V7.4z M348.4,94.5h7v7h-7V94.5z M355.7,7.4h7v7h-7V7.4z M355.7,94.5h7v7h-7V94.5z M362.9,7.4h7v7h-7V7.4z
		 M362.9,94.5h7v7h-7V94.5z M370.2,7.4h7v7h-7V7.4z M370.2,94.5h7v7h-7V94.5z M377.4,7.4h7v7h-7V7.4z M377.4,94.5h7v7h-7V94.5z
		 M384.7,7.4h7v7h-7V7.4z M384.7,94.5h7v7h-7V94.5z M392,7.4h7v7h-7V7.4z M392,94.5h7v7h-7V94.5z M399.2,7.4h7v7h-7V7.4z
		 M399.2,94.5h7v7h-7V94.5z M406.5,7.4h7v7h-7V7.4z M406.5,94.5h7v7h-7V94.5z M413.7,7.4h7v7h-7V7.4z M413.7,94.5h7v7h-7V94.5z
		 M421,7.4h7v7h-7V7.4z M421,94.5h7v7h-7V94.5z M428.3,7.4h7v7h-7V7.4z M428.3,94.5h7v7h-7V94.5z M435.5,7.4h7v7h-7V7.4z
		 M435.5,94.5h7v7h-7V94.5z M442.8,7.4h7v7h-7V7.4z M442.8,94.5h7v7h-7V94.5z M450,7.4h7v7h-7V7.4z M450,94.5h7v7h-7V94.5z
		 M457.3,7.4h7v7h-7V7.4z M457.3,94.5h7v7h-7V94.5z M464.6,7.4h7v7h-7V7.4z M464.6,94.5h7v7h-7V94.5z M471.8,7.4h7v7h-7V7.4z
		 M471.8,94.5h7v7h-7V94.5z M479.1,7.4h7v7h-7V7.4z M479.1,94.5h7v7h-7V94.5z M486.3,7.4h7v7h-7V7.4z M486.3,94.5h7v7h-7V94.5z
		 M493.6,7.4h7v7h-7V7.4z M493.6,94.5h7v7h-7V94.5z M500.9,7.4h7v7h-7V7.4z M500.9,94.5h7v7h-7V94.5z M508.1,7.4h7v7h-7L508.1,7.4
		L508.1,7.4z M508.1,94.5h7v7h-7L508.1,94.5L508.1,94.5z M515.4,7.4h7v7h-7V7.4z M515.4,94.5h7v7h-7V94.5z M522.6,7.4h7v7h-7V7.4z
		 M522.6,94.5h7v7h-7V94.5z M529.9,7.4h7v7h-7V7.4z M529.9,94.5h7v7h-7V94.5z M537.2,7.4h7v7h-7V7.4z M537.2,94.5h7v7h-7V94.5z
		 M544.4,7.4h7v7h-7V7.4z M544.4,94.5h7v7h-7V94.5z M551.7,7.4h7v7h-7V7.4z M551.7,94.5h7v7h-7V94.5z M558.9,7.4h7v7h-7V7.4z
		 M558.9,94.5h7v7h-7V94.5z M566.2,7.4h7v7h-7V7.4z M566.2,94.5h7v7h-7V94.5z M573.5,7.4h7v7h-7V7.4z M573.5,94.5h7v7h-7V94.5z
		 M580.7,7.4h7v7h-7V7.4z M580.7,94.5h7v7h-7V94.5z M588,7.4h7v7h-7V7.4z M588,94.5h7v7h-7V94.5z M595.2,7.4h7v7h-7V7.4z
		 M595.2,94.5h7v7h-7V94.5z M602.5,7.4h7v7h-7V7.4z M602.5,94.5h7v7h-7V94.5z M609.8,7.4h7v7h-7V7.4z M609.8,94.5h7v7h-7V94.5z
		 M617,7.4h7v7h-7V7.4z M617,94.5h7v7h-7V94.5z M624.2,7.4h7v7h-7V7.4z M624.2,94.5h7v7h-7V94.5z M631.6,7.4h7v7h-7V7.4z
		 M631.6,94.5h7v7h-7V94.5z M638.8,7.4h7v7h-7V7.4z M638.8,94.5h7v7h-7V94.5z M646.1,7.4h7v7h-7V7.4z M646.1,94.5h7v7h-7V94.5z
		 M653.2,7.4h7v7h-7V7.4z M653.2,94.5h7v7h-7V94.5z M660.6,7.4h7v7h-7V7.4z M660.6,94.5h7v7h-7V94.5z M667.9,7.4h7v7h-7V7.4z
		 M667.9,94.5h7v7h-7V94.5z M675.1,7.4h7v7h-7V7.4z M675.1,94.5h7v7h-7V94.5z M682.4,7.4h7v7h-7V7.4z M682.4,94.5h7v7h-7V94.5z
		 M689.6,7.4h7v7h-7V7.4z M689.6,94.5h7v7h-7V94.5z M696.9,7.4h7v7h-7V7.4z M696.9,94.5h7v7h-7V94.5z M704.2,7.4h7v7h-7V7.4z
		 M704.2,94.5h7v7h-7V94.5z M711.4,7.4h7v7h-7V7.4z M711.4,94.5h7v7h-7V94.5z M718.7,7.4h7v7h-7V7.4z M718.7,94.5h7v7h-7V94.5z
		 M725.9,7.4h7v7h-7V7.4z M725.9,94.5h7v7h-7V94.5z M733.2,7.4h7v7h-7V7.4z M733.2,94.5h7v7h-7V94.5z M740.5,7.4h7v7h-7V7.4z
		 M740.5,94.5h7v7h-7V94.5z M747.7,7.4h7v7h-7V7.4z M747.7,94.5h7v7h-7V94.5z M755,7.4h7v7h-7V7.4z M755,94.5h7v7h-7V94.5z
		 M762.2,7.4h7v7h-7V7.4z M762.2,94.5h7v7h-7V94.5z M769.5,7.4h7v7h-7V7.4z M769.5,94.5h7v7h-7V94.5z M776.8,7.4h7v7h-7V7.4z
		 M776.8,94.5h7v7h-7V94.5z M784,7.4h7v7h-7V7.4z M784,94.5h7v7h-7V94.5z M791.2,7.4h7v7h-7V7.4z M791.2,94.5h7v7h-7V94.5z
		 M798.5,7.4h7v7h-7V7.4z M798.5,94.5h7v7h-7V94.5z M805.8,7.4h7v7h-7V7.4z M805.8,94.5h7v7h-7V94.5z M813.1,7.4h7v7h-7V7.4z
		 M813.1,94.5h7v7h-7V94.5z M820.2,7.4h7v7h-7V7.4z M820.2,94.5h7v7h-7V94.5z M827.6,7.4h7v7h-7V7.4z M827.6,94.5h7v7h-7V94.5z
		 M834.8,7.4h7v7h-7V7.4z M834.8,94.5h7v7h-7V94.5z M842.1,7.4h7v7h-7V7.4z M842.1,94.5h7v7h-7V94.5z M849.4,7.4h7v7h-7V7.4z
		 M849.4,94.5h7v7h-7V94.5z M856.6,7.4h7v7h-7V7.4z M856.6,94.5h7v7h-7V94.5z M863.9,7.4h7v7h-7V7.4z M863.9,94.5h7v7h-7V94.5z
		 M871.1,7.4h7v7h-7V7.4z M871.1,94.5h7v7h-7V94.5z M878.4,7.4h7v7h-7V7.4z M878.4,94.5h7v7h-7V94.5z M885.7,7.4h7v7h-7V7.4z
		 M885.7,94.5h7v7h-7V94.5z M892.9,7.4h7v7h-7V7.4z M892.9,94.5h7v7h-7V94.5z M900.2,7.4h7v7h-7V7.4z M900.2,94.5h7v7h-7V94.5z
		 M907.4,7.4h7v7h-7V7.4z M907.4,94.5h7v7h-7V94.5z M914.7,7.4h7v7h-7V7.4z M914.7,94.5h7v7h-7V94.5z M922,7.4h7v7h-7V7.4z
		 M922,94.5h7v7h-7V94.5z M929.2,7.4h7v7h-7V7.4z M929.2,94.5h7v7h-7V94.5z M936.5,7.4h7v7h-7V7.4z M936.5,94.5h7v7h-7V94.5z
		 M943.7,7.4h7v7h-7V7.4z M943.7,94.5h7v7h-7V94.5z M951,7.4h7v7h-7V7.4z M951,94.5h7v7h-7V94.5z M958.3,7.4h7v7h-7V7.4z
		 M958.3,94.5h7v7h-7V94.5z M965.5,7.4h7v7h-7V7.4z M965.5,94.5h7v7h-7V94.5z M972.8,7.4h7v7h-7V7.4z M972.8,94.5h7v7h-7V94.5z
		 M980,7.4h7v7h-7V7.4z M980,94.5h7v7h-7V94.5z M987.3,7.4h7v7h-7V7.4z M987.3,94.5h7v7h-7V94.5z M994.6,7.4h7v7h-7V7.4z
		 M994.6,94.5h7v7h-7V94.5z M1001.8,7.4h7v7h-7V7.4z M1001.8,94.5h7v7h-7V94.5z M1009.1,7.4h7v7h-7V7.4z M1009.1,94.5h7v7h-7V94.5z
		 M1016.3,7.4h7v7h-7V7.4z M1016.3,94.5h7v7h-7V94.5z M1023.6,7.4h7v7h-7V7.4z M1023.6,94.5h7v7h-7V94.5z M1030.8,7.4h7v7h-7V7.4z
		 M1030.8,94.5h7v7h-7V94.5z M1038.1,7.4h7v7h-7V7.4z M1038.1,94.5h7v7h-7V94.5z M1045.3,7.4h7v7h-7V7.4z M1045.3,94.5h7v7h-7V94.5z
		 M1052.6,7.4h7v7h-7V7.4z M1052.6,94.5h7v7h-7V94.5z M1059.8,7.4h7v7h-7V7.4z M1059.8,94.5h7v7h-7V94.5z M1067.2,7.4h7v7h-7V7.4z
		 M1067.2,94.5h7v7h-7V94.5z M1074.3,7.4h7v7h-7V7.4z M1074.3,94.5h7v7h-7V94.5z M1081.7,7.4h7v7h-7V7.4z M1081.7,94.5h7v7h-7V94.5z
		 M1088.8,7.4h7v7h-7V7.4z M1088.8,94.5h7v7h-7V94.5z M1096.2,7.4h7v7h-7V7.4z M1096.2,94.5h7v7h-7V94.5z M1103.4,7.4h7v7h-7V7.4z
		 M1103.4,94.5h7v7h-7V94.5z M1110.7,7.4h7v7h-7V7.4z M1110.7,94.5h7v7h-7V94.5z M1117.9,7.4h7v7h-7V7.4z M1117.9,94.5h7v7h-7V94.5z
		 M1125.2,7.4h7v7h-7V7.4z M1125.2,94.5h7v7h-7V94.5z M1132.4,7.4h7v7h-7V7.4z M1132.4,94.5h7v7h-7V94.5z M1139.8,7.4h7v7h-7V7.4z
		 M1139.8,94.5h7v7h-7V94.5z M1146.9,7.4h7v7h-7V7.4z M1146.9,94.5h7v7h-7V94.5z M1154.2,7.4h7v7h-7V7.4z M1154.2,94.5h7v7h-7V94.5z
		 M1161.4,7.4h7v7h-7V7.4z M1161.4,94.5h7v7h-7V94.5z M1168.8,7.4h7v7h-7V7.4z M1168.8,94.5h7v7h-7V94.5z M1176.1,7.4h7v7h-7V7.4z
		 M1176.1,94.5h7v7h-7V94.5z M1183.2,7.4h7v7h-7V7.4z M1183.2,94.5h7v7h-7V94.5z M1190.6,7.4h7v7h-7V7.4z M1190.6,94.5h7v7h-7V94.5z
		 M1197.8,7.4h7v7h-7V7.4z M1197.8,94.5h7v7h-7V94.5z M1205.1,7.4h7v7h-7V7.4z M1205.1,94.5h7v7h-7V94.5z M1212.3,7.4h7v7h-7V7.4z
		 M1212.3,14.6h7v7h-7V14.6z M1212.3,87.3h7v7h-7V87.3z M1212.3,94.5h7v7h-7V94.5z M1219.6,7.4h7v7h-7V7.4z M1219.6,14.6h7v7h-7
		V14.6z M1219.6,21.9h7v7h-7V21.9z M1219.6,29.2h7v7h-7V29.2z M1219.6,36.4h7v7h-7V36.4z M1219.6,43.7h7v7h-7V43.7z M1219.6,51h7v7
		h-7V51z M1219.6,58.2h7v7h-7V58.2z M1219.6,65.5h7v7h-7V65.5z M1219.6,72.7h7v7h-7V72.7z M1219.6,80h7v7h-7V80z M1219.6,87.3h7v7
		h-7V87.3z M1219.6,94.5h7v7h-7V94.5z M1226.8,7.4h7v7h-7V7.4z M1226.8,14.6h7v7h-7V14.6z M1226.8,21.9h7v7h-7V21.9z M1226.8,29.2h7
		v7h-7V29.2z M1226.8,36.4h7v7h-7V36.4z M1226.8,43.7h7v7h-7V43.7z M1226.8,51h7v7h-7V51z M1226.8,58.2h7v7h-7V58.2z M1226.8,65.5h7
		v7h-7V65.5z M1226.8,72.7h7v7h-7V72.7z M1226.8,80h7v7h-7V80z M1226.8,87.3h7v7h-7V87.3z M1226.8,94.5h7v7h-7V94.5z M1234.1,7.4h7
		v7h-7V7.4z M1234.1,14.6h7v7h-7V14.6z M1234.1,21.9h7v7h-7V21.9z M1234.1,29.2h7v7h-7V29.2z M1234.1,36.4h7v7h-7V36.4z
		 M1234.1,43.7h7v7h-7V43.7z M1234.1,51h7v7h-7V51z M1234.1,58.2h7v7h-7V58.2z M1234.1,65.5h7v7h-7V65.5z M1234.1,72.7h7v7h-7V72.7z
		 M1234.1,80h7v7h-7V80z M1234.1,87.3h7v7h-7V87.3z M1234.1,94.5h7v7h-7V94.5z M1241.3,7.4h7v7h-7V7.4z M1241.3,14.6h7v7h-7V14.6z
		 M1241.3,29.2h7v7h-7V29.2z M1241.3,43.7h7v7h-7V43.7z M1241.3,58.2h7v7h-7V58.2z M1241.3,72.7h7v7h-7V72.7z M1241.3,87.3h7v7h-7
		V87.3z M1241.3,94.5h7v7h-7V94.5z M1248.7,7.4h7v7h-7V7.4z M1248.7,14.6h7v7h-7V14.6z M1248.7,29.2h7v7h-7V29.2z M1248.7,43.7h7v7
		h-7V43.7z M1248.7,58.2h7v7h-7V58.2z M1248.7,72.7h7v7h-7V72.7z M1248.7,80h7v7h-7V80z M1248.7,94.5h7v7h-7V94.5z M1255.8,7.4h7v7
		h-7V7.4z M1255.8,14.6h7v7h-7V14.6z M1255.8,29.2h7v7h-7V29.2z M1255.8,43.7h7v7h-7V43.7z M1255.8,58.2h7v7h-7V58.2z M1255.8,72.7
		h7v7h-7V72.7z M1255.8,87.3h7v7h-7V87.3z M1255.8,94.5h7v7h-7V94.5z M1263.2,7.4h7v7h-7V7.4z M1263.2,14.6h7v7h-7V14.6z
		 M1263.2,29.2h7v7h-7V29.2z M1263.2,43.7h7v7h-7V43.7z M1263.2,58.2h7v7h-7V58.2z M1263.2,72.7h7v7h-7V72.7z M1263.2,80h7v7h-7V80z
		 M1263.2,94.5h7v7h-7V94.5z M1270.3,7.4h7v7h-7V7.4z M1270.3,14.6h7v7h-7V14.6z M1270.3,29.2h7v7h-7V29.2z M1270.3,43.7h7v7h-7
		V43.7z M1270.3,58.2h7v7h-7V58.2z M1270.3,72.7h7v7h-7V72.7z M1270.3,87.3h7v7h-7V87.3z M1270.3,94.5h7v7h-7V94.5z M1277.7,7.4h7v7
		h-7V7.4z M1277.7,14.6h7v7h-7V14.6z M1277.7,29.2h7v7h-7V29.2z M1277.7,43.7h7v7h-7V43.7z M1277.7,58.2h7v7h-7V58.2z M1277.7,72.7
		h7v7h-7V72.7z M1277.7,80h7v7h-7V80z M1277.7,87.3h7v7h-7V87.3z M1277.7,94.5h7v7h-7V94.5z M1284.9,7.4h7v7h-7V7.4z M1284.9,14.6h7
		v7h-7V14.6z M1284.9,29.2h7v7h-7V29.2z M1284.9,43.7h7v7h-7V43.7z M1284.9,58.2h7v7h-7V58.2z M1284.9,72.7h7v7h-7V72.7z
		 M1284.9,87.3h7v7h-7V87.3z M1284.9,94.5h7v7h-7V94.5z M1292.2,7.4h7v7h-7V7.4z M1292.2,14.6h7v7h-7V14.6z M1292.2,29.2h7v7h-7
		V29.2z M1292.2,43.7h7v7h-7V43.7z M1292.2,58.2h7v7h-7V58.2z M1292.2,72.7h7v7h-7V72.7z M1292.2,94.5h7v7h-7V94.5z M1299.4,7.4h7v7
		h-7V7.4z M1299.4,14.6h7v7h-7V14.6z M1299.4,29.2h7v7h-7V29.2z M1299.4,43.7h7v7h-7V43.7z M1299.4,58.2h7v7h-7V58.2z M1299.4,72.7
		h7v7h-7V72.7z M1299.4,87.3h7v7h-7V87.3z M1299.4,94.5h7v7h-7V94.5z M1306.7,7.4h7v7h-7V7.4z M1306.7,14.6h7v7h-7V14.6z
		 M1306.7,21.9h7v7h-7V21.9z M1306.7,29.2h7v7h-7V29.2z M1306.7,36.4h7v7h-7V36.4z M1306.7,43.7h7v7h-7V43.7z M1306.7,51h7v7h-7V51z
		 M1306.7,58.2h7v7h-7V58.2z M1306.7,65.5h7v7h-7V65.5z M1306.7,72.7h7v7h-7V72.7z M1306.7,80h7v7h-7V80z M1306.7,87.3h7v7h-7V87.3z
		 M1306.7,94.5h7v7h-7V94.5z M1313.9,7.4h7v7h-7V7.4z M1313.9,14.6h7v7h-7V14.6z M1313.9,21.9h7v7h-7V21.9z M1313.9,29.2h7v7h-7
		V29.2z M1313.9,36.4h7v7h-7V36.4z M1313.9,43.7h7v7h-7V43.7z M1313.9,51h7v7h-7V51z M1313.9,58.2h7v7h-7V58.2z M1313.9,65.5h7v7h-7
		V65.5z M1313.9,72.7h7v7h-7V72.7z M1313.9,80h7v7h-7V80z M1313.9,87.3h7v7h-7V87.3z M1313.9,94.5h7v7h-7V94.5z"/>
</g>
</svg>
