<?xml version="1.0" encoding="utf-8"?>
<!-- Generator: Adobe Illustrator 27.3.1, SVG Export Plug-In . SVG Version: 6.00 Build 0)  -->
<svg version="1.1" id="Слой_1" xmlns="http://www.w3.org/2000/svg" xmlns:xlink="http://www.w3.org/1999/xlink" x="0px" y="0px"
	 viewBox="0 0 1001.6 900" style="enable-background:new 0 0 1001.6 900;" xml:space="preserve">
<style type="text/css">
	.st0{fill:#1E0E01;}
</style>
<g id="Слой_2_00000075842856718680154190000012400335028278832293_">
</g>
<path class="st0" d="M14.5,109h7v7h-7V109z M14.5,116.2h7v7h-7V116.2z M14.5,123.5h7v7h-7V123.5z M14.5,130.7h7v7h-7V130.7z
	 M14.5,138h7v7h-7V138z M14.5,145.3h7v7h-7V145.3z M14.5,152.5h7v7h-7V152.5z M14.5,159.8h7v7h-7V159.8z M14.5,167h7v7h-7V167z
	 M14.5,174.3h7v7h-7V174.3z M14.5,181.6h7v7h-7V181.6z M14.5,188.8h7v7h-7V188.8z M14.5,196.1h7v7h-7V196.1z M14.5,203.4h7v7h-7
	V203.4z M14.5,210.6h7v7h-7V210.6z M14.5,217.9h7v7h-7V217.9z M14.5,225.1h7v7h-7V225.1z M14.5,232.4h7v7h-7V232.4z M14.5,239.6h7v7
	h-7V239.6z M14.5,246.9h7v7h-7V246.9z M14.5,254.2h7v7h-7V254.2z M14.5,261.4h7v7h-7V261.4z M14.5,268.7h7v7h-7V268.7z M14.5,276h7
	v7h-7V276z M14.5,283.2h7v7h-7V283.2z M14.5,290.5h7v7h-7V290.5z M14.5,297.7h7v7h-7V297.7z M14.5,305h7v7h-7V305z M14.5,312.2h7v7
	h-7V312.2z M14.5,319.5h7v7h-7V319.5z M14.5,326.8h7v7h-7V326.8z M14.5,334h7v7h-7V334z M14.5,341.3h7v7h-7V341.3z M14.5,348.6h7v7
	h-7V348.6z M14.5,355.8h7v7h-7V355.8z M14.5,363.1h7v7h-7V363.1z M14.5,370.3h7v7h-7V370.3z M14.5,377.6h7v7h-7V377.6z M14.5,384.8
	h7v7h-7V384.8z M14.5,392.1h7v7h-7V392.1z M14.5,399.4h7v7h-7V399.4z M14.5,406.6h7v7h-7V406.6z M14.5,413.9h7v7h-7V413.9z
	 M14.5,421.2h7v7h-7V421.2z M14.5,428.4h7v7h-7V428.4z M14.5,435.7h7v7h-7V435.7z M14.5,442.9h7v7h-7V442.9z M14.5,450.2h7v7h-7
	V450.2z M14.5,457.4h7v7h-7V457.4z M14.5,464.7h7v7h-7V464.7z M14.5,472h7v7h-7V472z M14.5,479.2h7v7h-7V479.2z M14.5,486.5h7v7h-7
	V486.5z M14.5,493.8h7v7h-7V493.8z M14.5,501h7v7h-7V501z M14.5,508.3h7v7h-7V508.3z M14.5,515.5h7v7h-7V515.5z M14.5,522.8h7v7h-7
	V522.8z M14.5,530h7v7h-7V530z M14.5,537.3h7v7h-7V537.3z M14.5,544.6h7v7h-7V544.6z M14.5,551.8h7v7h-7V551.8z M14.5,559.1h7v7h-7
	V559.1z M14.5,566.4h7v7h-7V566.4z M14.5,573.6h7v7h-7V573.6z M14.5,580.9h7v7h-7V580.9z M14.5,588.1h7v7h-7V588.1z M14.5,595.4h7v7
	h-7V595.4z M14.5,602.6h7v7h-7V602.6z M14.5,609.9h7v7h-7V609.9z M14.5,617.1h7v7h-7V617.1z M14.5,624.4h7v7h-7V624.4z M14.5,631.7
	h7v7h-7V631.7z M14.5,638.9h7v7h-7V638.9z M14.5,646.2h7v7h-7V646.2z M14.5,653.4h7v7h-7V653.4z M14.5,660.7h7v7h-7V660.7z
	 M14.5,668h7v7h-7V668z M14.5,675.3h7v7h-7V675.3z M14.5,682.5h7v7h-7V682.5z M14.5,689.8h7v7h-7V689.8z M14.5,697.1h7v7h-7V697.1z
	 M14.5,704.3h7v7h-7V704.3z M14.5,711.6h7v7h-7V711.6z M14.5,718.8h7v7h-7V718.8z M14.5,726.1h7v7h-7V726.1z M14.5,733.3h7v7h-7
	V733.3z M14.5,740.6h7v7h-7V740.6z M14.5,747.8h7v7h-7V747.8z M14.5,755.1h7v7h-7V755.1z M14.5,762.4h7v7h-7V762.4z M14.5,769.6h7v7
	h-7V769.6z M14.5,776.9h7v7h-7V776.9z M21.8,776.9h7v7h-7V776.9z M29,776.9h7v7h-7V776.9z M14.5,784.1h7v7h-7V784.1z M21.8,784.1h7
	v7h-7V784.1z M29,784.1h7v7h-7V784.1z M36.3,776.9h7v7h-7V776.9z M36.3,784.1h7v7h-7V784.1z M43.6,776.9h7v7h-7V776.9z M43.6,784.1
	h7v7h-7V784.1z M50.8,776.9h7v7h-7V776.9z M50.8,784.1h7v7h-7V784.1z M58.1,776.9h7v7h-7V776.9z M58.1,784.1h7v7h-7V784.1z
	 M65.3,776.9h7v7h-7V776.9z M65.3,784.1h7v7h-7V784.1z M72.6,776.9h7v7h-7V776.9z M72.6,784.1h7v7h-7V784.1z M79.9,776.9h7v7h-7
	V776.9z M79.9,784.1h7v7h-7V784.1z M87.1,776.9h7v7h-7V776.9z M87.1,784.1h7v7h-7V784.1z M94.4,776.9h7v7h-7V776.9z M94.4,784.1h7v7
	h-7V784.1z M101.6,776.9h7v7h-7V776.9z M101.6,784.1h7v7h-7V784.1z M108.9,776.9h7v7h-7V776.9z M108.9,784.1h7v7h-7V784.1z
	 M116.2,776.9h7v7h-7V776.9z M116.2,784.1h7v7h-7V784.1z M123.4,776.9h7v7h-7C123.4,783.9,123.4,776.9,123.4,776.9z M123.4,784.1h7
	v7h-7C123.4,791.1,123.4,784.1,123.4,784.1z M130.7,776.9h7v7h-7V776.9z M130.7,784.1h7v7h-7V784.1z M137.9,776.9h7v7h-7V776.9z
	 M137.9,784.1h7v7h-7V784.1z M145.2,776.9h7v7h-7V776.9z M145.2,784.1h7v7h-7V784.1z M152.5,776.9h7v7h-7V776.9z M152.5,784.1h7v7
	h-7V784.1z M159.7,776.9h7v7h-7V776.9z M159.7,784.1h7v7h-7V784.1z M167,776.9h7v7h-7V776.9z M167,784.1h7v7h-7V784.1z M174.2,776.9
	h7v7h-7V776.9z M174.2,784.1h7v7h-7V784.1z M181.5,776.9h7v7h-7V776.9z M181.5,784.1h7v7h-7V784.1z M188.8,776.9h7v7h-7V776.9z
	 M188.8,784.1h7v7h-7V784.1z M196,776.9h7v7h-7V776.9z M196,784.1h7v7h-7V784.1z M203.3,776.9h7v7h-7V776.9z M203.3,784.1h7v7h-7
	V784.1z M210.5,776.9h7v7h-7V776.9z M210.5,784.1h7v7h-7V784.1z M217.8,776.9h7v7h-7V776.9z M217.8,784.1h7v7h-7V784.1z
	 M225.1,776.9h7v7h-7V776.9z M225.1,784.1h7v7h-7V784.1z M232.3,776.9h7v7h-7V776.9z M232.3,784.1h7v7h-7V784.1z M239.6,776.9h7v7
	h-7V776.9z M239.6,784.1h7v7h-7V784.1z M246.8,776.9h7v7h-7V776.9z M246.8,784.1h7v7h-7V784.1z M254.1,776.9h7v7h-7V776.9z
	 M254.1,784.1h7v7h-7V784.1z M261.4,776.9h7v7h-7V776.9z M261.4,784.1h7v7h-7V784.1z M268.6,776.9h7v7h-7V776.9z M268.6,784.1h7v7
	h-7V784.1z M275.9,776.9h7v7h-7V776.9z M275.9,784.1h7v7h-7V784.1z M283.1,776.9h7v7h-7V776.9z M283.1,784.1h7v7h-7V784.1z
	 M290.4,776.9h7v7h-7V776.9z M290.4,784.1h7v7h-7V784.1z M297.7,776.9h7v7h-7V776.9z M297.7,784.1h7v7h-7V784.1z M304.9,776.9h7v7
	h-7V776.9z M304.9,784.1h7v7h-7V784.1z M312.2,776.9h7v7h-7V776.9z M312.2,784.1h7v7h-7V784.1z M319.4,776.9h7v7h-7V776.9z
	 M319.4,784.1h7v7h-7V784.1z M326.7,776.9h7v7h-7V776.9z M326.7,784.1h7v7h-7V784.1z M334,776.9h7v7h-7V776.9z M334,784.1h7v7h-7
	V784.1z M341.2,776.9h7v7h-7V776.9z M341.2,784.1h7v7h-7V784.1z M348.5,776.9h7v7h-7V776.9z M348.5,784.1h7v7h-7V784.1z
	 M355.7,776.9h7v7h-7V776.9z M355.7,784.1h7v7h-7V784.1z M363,776.9h7v7h-7V776.9z M363,784.1h7v7h-7V784.1z M370.3,776.9h7v7h-7
	V776.9z M370.3,784.1h7v7h-7V784.1z M377.5,776.9h7v7h-7V776.9z M377.5,784.1h7v7h-7V784.1z M384.8,776.9h7v7h-7V776.9z
	 M384.8,784.1h7v7h-7V784.1z M392,776.9h7v7h-7V776.9z M392,784.1h7v7h-7V784.1z M399.3,776.9h7v7h-7V776.9z M399.3,784.1h7v7h-7
	V784.1z M406.6,776.9h7v7h-7V776.9z M406.6,784.1h7v7h-7V784.1z M413.8,776.9h7v7h-7V776.9z M413.8,784.1h7v7h-7V784.1z
	 M421.1,776.9h7v7h-7V776.9z M421.1,784.1h7v7h-7V784.1z M428.3,776.9h7v7h-7V776.9z M428.3,784.1h7v7h-7V784.1z M435.6,776.9h7v7
	h-7V776.9z M435.6,784.1h7v7h-7V784.1z M442.9,776.9h7v7h-7V776.9z M442.9,784.1h7v7h-7V784.1z M450.1,776.9h7v7h-7V776.9z
	 M450.1,784.1h7v7h-7V784.1z M457.4,776.9h7v7h-7V776.9z M457.4,784.1h7v7h-7V784.1z M464.6,776.9h7v7h-7V776.9z M464.6,784.1h7v7
	h-7V784.1z M471.9,776.9h7v7h-7V776.9z M471.9,784.1h7v7h-7V784.1z M479.2,776.9h7v7h-7V776.9z M479.2,784.1h7v7h-7V784.1z
	 M486.4,776.9h7v7h-7V776.9z M486.4,784.1h7v7h-7V784.1z M493.7,776.9h7v7h-7V776.9z M493.7,784.1h7v7h-7V784.1z M500.9,776.9h7v7
	h-7V776.9z M500.9,784.1h7v7h-7V784.1z M508.2,776.9h7v7h-7V776.9z M508.2,784.1h7v7h-7V784.1z M515.5,776.9h7v7h-7V776.9z
	 M515.5,784.1h7v7h-7V784.1z M522.7,776.9h7v7h-7V776.9z M522.7,784.1h7v7h-7V784.1z M530,776.9h7v7h-7V776.9z M530,784.1h7v7h-7
	V784.1z M537.2,776.9h7v7h-7V776.9z M537.2,784.1h7v7h-7V784.1z M544.5,776.9h7v7h-7V776.9z M544.5,784.1h7v7h-7V784.1z
	 M551.8,776.9h7v7h-7V776.9z M551.8,784.1h7v7h-7V784.1z M559,776.9h7v7h-7V776.9z M559,784.1h7v7h-7V784.1z M566.3,776.9h7v7h-7
	V776.9z M566.3,784.1h7v7h-7V784.1z M573.5,776.9h7v7h-7V776.9z M573.5,784.1h7v7h-7V784.1z M580.8,776.9h7v7h-7V776.9z
	 M580.8,784.1h7v7h-7V784.1z M588.1,776.9h7v7h-7V776.9z M588.1,784.1h7v7h-7V784.1z M595.3,776.9h7v7h-7V776.9z M595.3,784.1h7v7
	h-7V784.1z M602.6,776.9h7v7h-7V776.9z M602.6,784.1h7v7h-7V784.1z M609.8,776.9h7v7h-7V776.9z M609.8,784.1h7v7h-7V784.1z
	 M617.1,776.9h7v7h-7V776.9z M617.1,784.1h7v7h-7V784.1z M624.4,776.9h7v7h-7V776.9z M624.4,784.1h7v7h-7V784.1z M631.6,776.9h7v7
	h-7V776.9z M631.6,784.1h7v7h-7V784.1z M638.9,776.9h7v7h-7V776.9z M638.9,784.1h7v7h-7V784.1z M646.1,776.9h7v7h-7V776.9z
	 M646.1,784.1h7v7h-7V784.1z M653.4,776.9h7v7h-7V776.9z M653.4,784.1h7v7h-7V784.1z M660.7,776.9h7v7h-7V776.9z M660.7,784.1h7v7
	h-7V784.1z M667.9,776.9h7v7h-7V776.9z M667.9,784.1h7v7h-7V784.1z M675.2,776.9h7v7h-7V776.9z M675.2,784.1h7v7h-7V784.1z
	 M682.4,776.9h7v7h-7V776.9z M682.4,784.1h7v7h-7V784.1z M689.7,776.9h7v7h-7V776.9z M689.7,784.1h7v7h-7V784.1z M697,776.9h7v7h-7
	V776.9z M697,784.1h7v7h-7V784.1z M704.2,776.9h7v7h-7V776.9z M704.2,784.1h7v7h-7V784.1z M711.5,776.9h7v7h-7V776.9z M711.5,784.1
	h7v7h-7V784.1z M718.7,776.9h7v7h-7V776.9z M718.7,784.1h7v7h-7V784.1z M726,776.9h7v7h-7V776.9z M726,784.1h7v7h-7V784.1z
	 M733.3,776.9h7v7h-7V776.9z M733.3,784.1h7v7h-7V784.1z M740.5,776.9h7v7h-7V776.9z M740.5,784.1h7v7h-7V784.1z M747.8,776.9h7v7
	h-7V776.9z M747.8,784.1h7v7h-7V784.1z M755,776.9h7v7h-7V776.9z M755,784.1h7v7h-7V784.1z M762.3,776.9h7v7h-7V776.9z M762.3,784.1
	h7v7h-7V784.1z M769.6,776.9h7v7h-7V776.9z M769.6,784.1h7v7h-7V784.1z M776.8,776.9h7v7h-7V776.9z M776.8,784.1h7v7h-7V784.1z
	 M784.1,776.9h7v7h-7V776.9z M784.1,784.1h7v7h-7V784.1z M791.3,776.9h7v7h-7V776.9z M791.3,784.1h7v7h-7V784.1z M798.6,776.9h7v7
	h-7V776.9z M798.6,784.1h7v7h-7V784.1z M805.9,776.9h7v7h-7V776.9z M805.9,784.1h7v7h-7V784.1z M813.1,776.9h7v7h-7V776.9z
	 M813.1,784.1h7v7h-7V784.1z M820.4,776.9h7v7h-7V776.9z M820.4,784.1h7v7h-7V784.1z M827.6,776.9h7v7h-7V776.9z M827.6,784.1h7v7
	h-7V784.1z M834.9,776.9h7v7h-7V776.9z M834.9,784.1h7v7h-7V784.1z M842.2,776.9h7v7h-7V776.9z M842.2,784.1h7v7h-7V784.1z
	 M849.4,776.9h7v7h-7V776.9z M849.4,784.1h7v7h-7V784.1z M856.7,776.9h7v7h-7V776.9z M856.7,784.1h7v7h-7V784.1z M863.9,776.9h7v7
	h-7V776.9z M863.9,784.1h7v7h-7V784.1z M871.2,776.9h7v7h-7V776.9z M871.2,784.1h7v7h-7V784.1z M878.5,776.9h7v7h-7V776.9z
	 M878.5,784.1h7v7h-7V784.1z M885.7,776.9h7v7h-7V776.9z M885.7,784.1h7v7h-7V784.1z M893,776.9h7v7h-7V776.9z M893,784.1h7v7h-7
	V784.1z M900.2,776.9h7v7h-7V776.9z M900.2,784.1h7v7h-7V784.1z M907.5,776.9h7v7h-7V776.9z M907.5,784.1h7v7h-7V784.1z
	 M914.8,776.9h7v7h-7V776.9z M914.8,784.1h7v7h-7V784.1z M922,776.9h7v7h-7V776.9z M922,784.1h7v7h-7V784.1z M929.3,776.9h7v7h-7
	V776.9z M929.3,784.1h7v7h-7V784.1z M936.5,776.9h7v7h-7V776.9z M936.5,784.1h7v7h-7V784.1z M972.8,109h7v7h-7V109z M972.8,116.2h7
	v7h-7V116.2z M972.8,123.5h7v7h-7V123.5z M972.8,130.7h7v7h-7V130.7z M972.8,138h7v7h-7V138z M972.8,145.3h7v7h-7V145.3z
	 M972.8,152.5h7v7h-7V152.5z M972.8,159.8h7v7h-7V159.8z M972.8,167h7v7h-7V167z M972.8,174.3h7v7h-7V174.3z M972.8,181.6h7v7h-7
	V181.6z M972.8,188.8h7v7h-7V188.8z M972.8,196.1h7v7h-7V196.1z M972.8,203.4h7v7h-7V203.4z M972.8,210.6h7v7h-7V210.6z
	 M972.8,217.9h7v7h-7V217.9z M972.8,225.1h7v7h-7V225.1z M972.8,232.4h7v7h-7V232.4z M972.8,239.6h7v7h-7V239.6z M972.8,246.9h7v7
	h-7V246.9z M972.8,254.2h7v7h-7V254.2z M972.8,261.4h7v7h-7V261.4z M972.8,268.7h7v7h-7V268.7z M972.8,276h7v7h-7V276z M972.8,283.2
	h7v7h-7V283.2z M972.8,290.5h7v7h-7V290.5z M972.8,297.7h7v7h-7V297.7z M972.8,305h7v7h-7V305z M972.8,312.2h7v7h-7V312.2z
	 M972.8,319.5h7v7h-7V319.5z M972.8,326.8h7v7h-7V326.8z M972.8,334h7v7h-7V334z M972.8,341.3h7v7h-7V341.3z M972.8,348.6h7v7h-7
	V348.6z M972.8,355.8h7v7h-7V355.8z M972.8,363.1h7v7h-7V363.1z M972.8,370.3h7v7h-7V370.3z M972.8,377.6h7v7h-7V377.6z
	 M972.8,384.8h7v7h-7V384.8z M972.8,392.1h7v7h-7V392.1z M980.1,109h7v7h-7V109z M980.1,116.2h7v7h-7V116.2z M980.1,123.5h7v7h-7
	V123.5z M980.1,130.7h7v7h-7V130.7z M980.1,138h7v7h-7V138z M980.1,145.3h7v7h-7V145.3z M980.1,152.5h7v7h-7V152.5z M980.1,159.8h7
	v7h-7V159.8z M980.1,167h7v7h-7V167z M980.1,174.3h7v7h-7V174.3z M980.1,181.6h7v7h-7V181.6z M980.1,188.8h7v7h-7V188.8z
	 M980.1,196.1h7v7h-7V196.1z M980.1,203.4h7v7h-7V203.4z M980.1,210.6h7v7h-7V210.6z M980.1,217.9h7v7h-7V217.9z M980.1,225.1h7v7
	h-7V225.1z M980.1,232.4h7v7h-7V232.4z M980.1,239.6h7v7h-7V239.6z M980.1,246.9h7v7h-7V246.9z M980.1,254.2h7v7h-7V254.2z
	 M980.1,261.4h7v7h-7V261.4z M980.1,268.7h7v7h-7V268.7z M980.1,276h7v7h-7V276z M980.1,283.2h7v7h-7V283.2z M980.1,290.5h7v7h-7
	V290.5z M980.1,297.7h7v7h-7V297.7z M980.1,305h7v7h-7V305z M980.1,312.2h7v7h-7V312.2z M980.1,319.5h7v7h-7V319.5z M980.1,326.8h7
	v7h-7V326.8z M980.1,334h7v7h-7V334z M980.1,341.3h7v7h-7V341.3z M980.1,348.6h7v7h-7V348.6z M980.1,355.8h7v7h-7V355.8z
	 M980.1,363.1h7v7h-7V363.1z M980.1,370.3h7v7h-7V370.3z M980.1,377.6h7v7h-7V377.6z M980.1,384.8h7v7h-7V384.8z M980.1,392.1h7v7
	h-7V392.1z M972.8,399.4h7v7h-7V399.4z M972.8,406.6h7v7h-7V406.6z M972.8,413.9h7v7h-7V413.9z M972.8,421.2h7v7h-7V421.2z
	 M972.8,428.4h7v7h-7V428.4z M972.8,435.7h7v7h-7V435.7z M972.8,442.9h7v7h-7V442.9z M972.8,450.2h7v7h-7V450.2z M972.8,457.4h7v7
	h-7V457.4z M972.8,464.7h7v7h-7V464.7z M980.1,399.4h7v7h-7V399.4z M980.1,406.6h7v7h-7V406.6z M980.1,413.9h7v7h-7V413.9z
	 M980.1,421.2h7v7h-7V421.2z M980.1,428.4h7v7h-7V428.4z M980.1,435.7h7v7h-7V435.7z M980.1,442.9h7v7h-7V442.9z M980.1,450.2h7v7
	h-7V450.2z M980.1,457.4h7v7h-7V457.4z M980.1,464.7h7v7h-7V464.7z M972.8,472h7v7h-7V472z M972.8,479.2h7v7h-7V479.2z M972.8,486.5
	h7v7h-7V486.5z M972.8,493.8h7v7h-7V493.8z M972.8,501h7v7h-7V501z M972.8,508.3h7v7h-7V508.3z M972.8,515.5h7v7h-7V515.5z
	 M972.8,522.8h7v7h-7V522.8z M972.8,530h7v7h-7V530z M972.8,537.3h7v7h-7V537.3z M980.1,472h7v7h-7V472z M980.1,479.2h7v7h-7V479.2z
	 M980.1,486.5h7v7h-7V486.5z M980.1,493.8h7v7h-7V493.8z M980.1,501h7v7h-7V501z M980.1,508.3h7v7h-7V508.3z M980.1,515.5h7v7h-7
	V515.5z M980.1,522.8h7v7h-7V522.8z M980.1,530h7v7h-7V530z M980.1,537.3h7v7h-7V537.3z M972.8,544.6h7v7h-7V544.6z M972.8,551.8h7
	v7h-7V551.8z M972.8,559.1h7v7h-7V559.1z M972.8,566.4h7v7h-7V566.4z M972.8,573.6h7v7h-7V573.6z M972.8,580.9h7v7h-7V580.9z
	 M972.8,588.1h7v7h-7V588.1z M972.8,595.4h7v7h-7V595.4z M980.1,544.6h7v7h-7V544.6z M980.1,551.8h7v7h-7V551.8z M980.1,559.1h7v7
	h-7V559.1z M980.1,566.4h7v7h-7V566.4z M980.1,573.6h7v7h-7V573.6z M980.1,580.9h7v7h-7V580.9z M980.1,588.1h7v7h-7V588.1z
	 M980.1,595.4h7v7h-7V595.4z M972.8,602.6h7v7h-7V602.6z M980.1,602.6h7v7h-7V602.6z M972.8,609.9h7v7h-7V609.9z M972.8,617.1h7v7
	h-7V617.1z M972.8,624.4h7v7h-7V624.4z M972.8,631.7h7v7h-7V631.7z M972.8,638.9h7v7h-7V638.9z M972.8,646.2h7v7h-7V646.2z
	 M972.8,653.4h7v7h-7V653.4z M972.8,660.7h7v7h-7V660.7z M980.1,609.9h7v7h-7V609.9z M980.1,617.1h7v7h-7V617.1z M980.1,624.4h7v7
	h-7V624.4z M980.1,631.7h7v7h-7V631.7z M980.1,638.9h7v7h-7V638.9z M980.1,646.2h7v7h-7V646.2z M980.1,653.4h7v7h-7V653.4z
	 M980.1,660.7h7v7h-7V660.7z M972.8,668h7v7h-7V668z M980.1,668h7v7h-7V668z M972.8,675.3h7v7h-7V675.3z M972.8,682.5h7v7h-7V682.5z
	 M972.8,689.8h7v7h-7V689.8z M972.8,697.1h7v7h-7V697.1z M972.8,704.3h7v7h-7V704.3z M972.8,711.6h7v7h-7V711.6z M972.8,718.8h7v7
	h-7V718.8z M972.8,726.1h7v7h-7V726.1z M980.1,675.3h7v7h-7V675.3z M980.1,682.5h7v7h-7V682.5z M980.1,689.8h7v7h-7V689.8z
	 M980.1,697.1h7v7h-7V697.1z M980.1,704.3h7v7h-7V704.3z M980.1,711.6h7v7h-7V711.6z M980.1,718.8h7v7h-7V718.8z M980.1,726.1h7v7
	h-7V726.1z M972.8,733.3h7v7h-7V733.3z M980.1,733.3h7v7h-7V733.3z M943.8,776.9h7v7h-7V776.9z M943.8,784.1h7v7h-7V784.1z
	 M951.1,776.9h7v7h-7V776.9z M951.1,784.1h7v7h-7V784.1z M958.3,776.9h7v7h-7V776.9z M958.3,784.1h7v7h-7V784.1z M965.5,776.9h7v7
	h-7V776.9z M972.8,740.6h7v7h-7V740.6z M972.8,747.8h7v7h-7V747.8z M972.8,755.1h7v7h-7V755.1z M972.8,762.4h7v7h-7V762.4z
	 M972.8,769.6h7v7h-7V769.6z M980.1,740.6h7v7h-7V740.6z M980.1,747.8h7v7h-7V747.8z M980.1,755.1h7v7h-7V755.1z M980.1,762.4h7v7
	h-7V762.4z M980.1,769.6h7v7h-7V769.6z M972.8,776.9h7v7h-7V776.9z M980.1,776.9h7v7h-7V776.9z M965.5,784.1h7v7h-7V784.1z
	 M972.8,784.1h7v7h-7V784.1z M980.1,784.1h7v7h-7V784.1z M617.1,805.9h7v7h-7V805.9z M617.1,813.2h7v7h-7V813.2z M624.4,805.9h7v7
	h-7V805.9z M624.4,813.2h7v7h-7V813.2z M631.6,805.9h7v7h-7V805.9z M631.6,813.2h7v7h-7V813.2z M638.9,805.9h7v7h-7V805.9z
	 M638.9,813.2h7v7h-7V813.2z M646.1,805.9h7v7h-7V805.9z M646.1,813.2h7v7h-7V813.2z M653.4,805.9h7v7h-7V805.9z M653.4,813.2h7v7
	h-7V813.2z M660.7,805.9h7v7h-7V805.9z M660.7,813.2h7v7h-7V813.2z M667.9,805.9h7v7h-7V805.9z M667.9,813.2h7v7h-7V813.2z
	 M675.2,805.9h7v7h-7V805.9z M682.5,805.9h7v7h-7V805.9z M689.7,805.9h7v7h-7V805.9z M675.2,813.2h7v7h-7V813.2z M682.5,813.2h7v7
	h-7V813.2z M697,805.9h7v7h-7V805.9z M704.3,805.9h7v7h-7V805.9z M711.5,805.9h7v7h-7V805.9z M711.5,813.2h7v7h-7V813.2z
	 M718.7,805.9h7v7h-7V805.9z M718.7,813.2h7v7h-7V813.2z M726,805.9h7v7h-7V805.9z M726,813.2h7v7h-7V813.2z M733.3,805.9h7v7h-7
	V805.9z M733.3,813.2h7v7h-7V813.2z M740.5,805.9h7v7h-7V805.9z M740.5,813.2h7v7h-7V813.2z M747.8,805.9h7v7h-7V805.9z
	 M747.8,813.2h7v7h-7V813.2z M755,805.9h7v7h-7V805.9z M755,813.2h7v7h-7V813.2z M762.3,805.9h7v7h-7V805.9z M769.6,805.9h7v7h-7
	V805.9z M776.8,805.9h7v7h-7V805.9z M762.3,813.2h7v7h-7V813.2z M784.1,805.9h7v7h-7V805.9z M784.1,813.2h7v7h-7V813.2z
	 M791.3,805.9h7v7h-7V805.9z M791.3,813.2h7v7h-7V813.2z M798.6,805.9h7v7h-7V805.9z M798.6,813.2h7v7h-7V813.2z M805.9,805.9h7v7
	h-7V805.9z M805.9,813.2h7v7h-7V813.2z M813.1,805.9h7v7h-7V805.9z M813.1,813.2h7v7h-7V813.2z M820.4,805.9h7v7h-7V805.9z
	 M820.4,813.2h7v7h-7V813.2z M827.6,805.9h7v7h-7V805.9z M827.6,813.2h7v7h-7V813.2z M834.9,805.9h7v7h-7V805.9z M834.9,813.2h7v7
	h-7V813.2z M842.2,805.9h7v7h-7V805.9z M842.2,813.2h7v7h-7V813.2z M849.4,805.9h7v7h-7V805.9z M849.4,813.2h7v7h-7V813.2z
	 M856.7,805.9h7v7h-7V805.9z M856.7,813.2h7v7h-7V813.2z M863.9,805.9h7v7h-7V805.9z M863.9,813.2h7v7h-7V813.2z M617.1,820.4h7v7
	h-7V820.4z M624.4,820.4h7v7h-7V820.4z M631.6,820.4h7v7h-7V820.4z M638.9,820.4h7v7h-7V820.4z M646.1,820.4h7v7h-7V820.4z
	 M617.1,827.7h7v7h-7V827.7z M617.1,834.9h7v7h-7V834.9z M617.1,842.2h7v7h-7V842.2z M617.1,849.5h7v7h-7V849.5z M617.1,856.7h7v7
	h-7V856.7z M617.1,864h7v7h-7V864z M617.1,871.2h7v7h-7V871.2z M617.1,878.5h7v7h-7V878.5z M624.4,827.7h7v7h-7V827.7z M624.4,834.9
	h7v7h-7V834.9z M624.4,842.2h7v7h-7V842.2z M624.4,849.5h7v7h-7V849.5z M624.4,856.7h7v7h-7V856.7z M624.4,864h7v7h-7V864z
	 M624.4,871.2h7v7h-7V871.2z M624.4,878.5h7v7h-7V878.5z M631.6,827.7h7v7h-7V827.7z M631.6,834.9h7v7h-7V834.9z M631.6,842.2h7v7
	h-7V842.2z M631.6,849.5h7v7h-7V849.5z M631.6,856.7h7v7h-7V856.7z M631.6,864h7v7h-7V864z M631.6,871.2h7v7h-7V871.2z M631.6,878.5
	h7v7h-7V878.5z M638.9,827.7h7v7h-7V827.7z M638.9,834.9h7v7h-7V834.9z M638.9,842.2h7v7h-7V842.2z M638.9,849.5h7v7h-7V849.5z
	 M638.9,856.7h7v7h-7V856.7z M638.9,864h7v7h-7V864z M638.9,871.2h7v7h-7V871.2z M638.9,878.5h7v7h-7V878.5z M646.1,827.7h7v7h-7
	V827.7z M646.1,834.9h7v7h-7V834.9z M646.1,842.2h7v7h-7V842.2z M646.1,849.5h7v7h-7V849.5z M646.1,856.7h7v7h-7V856.7z M646.1,864
	h7v7h-7V864z M646.1,871.2h7v7h-7V871.2z M646.1,878.5h7v7h-7V878.5z M653.4,820.4h7v7h-7V820.4z M660.7,820.4h7v7h-7V820.4z
	 M667.9,820.4h7v7h-7V820.4z M675.2,820.4h7v7h-7V820.4z M697,820.4h7v7h-7V820.4z M718.7,820.4h7v7h-7V820.4z M653.4,827.7h7v7h-7
	V827.7z M653.4,834.9h7v7h-7V834.9z M653.4,842.2h7v7h-7V842.2z M653.4,849.5h7v7h-7V849.5z M653.4,856.7h7v7h-7V856.7z M653.4,864
	h7v7h-7V864z M653.4,871.2h7v7h-7V871.2z M653.4,878.5h7v7h-7V878.5z M660.7,827.7h7v7h-7V827.7z M660.7,834.9h7v7h-7V834.9z
	 M660.7,842.2h7v7h-7V842.2z M660.7,849.5h7v7h-7V849.5z M660.7,856.7h7v7h-7V856.7z M660.7,864h7v7h-7V864z M660.7,871.2h7v7h-7
	V871.2z M660.7,878.5h7v7h-7V878.5z M667.9,827.7h7v7h-7V827.7z M667.9,834.9h7v7h-7V834.9z M667.9,842.2h7v7h-7V842.2z
	 M667.9,849.5h7v7h-7V849.5z M667.9,856.7h7v7h-7V856.7z M667.9,864h7v7h-7V864z M667.9,871.2h7v7h-7V871.2z M667.9,878.5h7v7h-7
	V878.5z M675.2,827.7h7v7h-7V827.7z M675.2,834.9h7v7h-7V834.9z M675.2,842.2h7v7h-7V842.2z M675.2,849.5h7v7h-7V849.5z
	 M675.2,856.7h7v7h-7V856.7z M675.2,864h7v7h-7V864z M675.2,871.2h7v7h-7V871.2z M675.2,878.5h7v7h-7V878.5z M696.9,834.9h7v7h-7
	V834.9z M704.2,834.9h7v7h-7V834.9z M682.4,842.2h7v7h-7V842.2z M711.5,842.2h7v7h-7V842.2z M682.4,849.5h7v7h-7V849.5z
	 M682.4,856.7h7v7h-7V856.7z M682.4,871.2h7v7h-7V871.2z M682.4,878.5h7v7h-7V878.5z M689.7,849.5h7v7h-7V849.5z M689.7,856.7h7v7
	h-7V856.7z M689.7,878.5h7v7h-7V878.5z M697,827.7h7v7h-7V827.7z M697,849.5h7v7h-7V849.5z M697,856.7h7v7h-7V856.7z M697,864h7v7
	h-7V864z M697,878.5h7v7h-7V878.5z M704.2,827.7h7v7h-7V827.7z M704.2,878.5h7v7h-7V878.5z M711.5,827.7h7v7h-7V827.7z M711.5,834.9
	h7v7h-7V834.9z M711.5,871.2h7v7h-7V871.2z M711.5,878.5h7v7h-7V878.5z M718.7,827.7h7v7h-7V827.7z M718.7,834.9h7v7h-7V834.9z
	 M718.7,842.2h7v7h-7V842.2z M718.7,849.5h7v7h-7V849.5z M718.7,856.7h7v7h-7V856.7z M718.7,864h7v7h-7V864z M718.7,871.2h7v7h-7
	V871.2z M718.7,878.5h7v7h-7V878.5z M726,820.4h7v7h-7V820.4z M733.3,820.4h7v7h-7V820.4z M740.5,820.4h7v7h-7V820.4z M747.8,820.4
	h7v7h-7V820.4z M755,820.4h7v7h-7V820.4z M762.3,820.4h7v7h-7V820.4z M784.1,820.4h7v7h-7V820.4z M791.3,820.4h7v7h-7V820.4z
	 M726,827.7h7v7h-7V827.7z M726,871.2h7v7h-7V871.2z M726,878.5h7v7h-7V878.5z M733.3,878.5h7v7h-7V878.5z M740.5,834.9h7v7h-7
	V834.9z M740.5,842.2h7v7h-7V842.2z M740.5,856.7h7v7h-7V856.7z M740.5,864h7v7h-7V864z M740.5,878.5h7v7h-7V878.5z M747.8,856.7h7
	v7h-7V856.7z M747.8,878.5h7v7h-7V878.5z M755,827.7h7v7h-7V827.7z M755,849.5h7v7h-7V849.5z M755,856.7h7v7h-7V856.7z M755,871.2h7
	v7h-7V871.2z M755,878.5h7v7h-7V878.5z M762.3,827.7h7v7h-7V827.7z M762.3,834.9h7v7h-7V834.9z M762.3,842.2h7v7h-7V842.2z
	 M762.3,849.5h7v7h-7V849.5z M762.3,856.7h7v7h-7V856.7z M762.3,864h7v7h-7V864z M762.3,871.2h7v7h-7V871.2z M762.3,878.5h7v7h-7
	V878.5z M769.6,878.5h7v7h-7V878.5z M776.8,878.5h7v7h-7V878.5z M784.1,827.7h7v7h-7V827.7z M784.1,834.9h7v7h-7V834.9z
	 M784.1,842.2h7v7h-7V842.2z M784.1,849.5h7v7h-7V849.5z M784.1,856.7h7v7h-7V856.7z M784.1,864h7v7h-7V864z M784.1,871.2h7v7h-7
	V871.2z M784.1,878.5h7v7h-7V878.5z M791.3,827.7h7v7h-7V827.7z M791.3,871.2h7v7h-7V871.2z M791.3,878.5h7v7h-7V878.5z
	 M798.6,820.4h7v7h-7V820.4z M805.9,820.4h7v7h-7V820.4z M813.1,820.4h7v7h-7V820.4z M820.4,820.4h7v7h-7V820.4z M827.6,820.4h7v7
	h-7V820.4z M834.9,820.4h7v7h-7V820.4z M842.2,820.4h7v7h-7V820.4z M849.4,820.4h7v7h-7V820.4z M856.7,820.4h7v7h-7V820.4z
	 M863.9,820.4h7v7h-7V820.4z M798.6,878.5h7v7h-7V878.5z M805.9,834.9h7v7h-7V834.9z M805.9,842.2h7v7h-7V842.2z M805.9,856.7h7v7
	h-7V856.7z M805.9,864h7v7h-7V864z M805.9,878.5h7v7h-7V878.5z M813.1,856.7h7v7h-7V856.7z M813.1,878.5h7v7h-7V878.5z M820.4,827.7
	h7v7h-7V827.7z M820.4,849.5h7v7h-7V849.5z M820.4,856.7h7v7h-7V856.7z M820.4,871.2h7v7h-7V871.2z M820.4,878.5h7v7h-7V878.5z
	 M827.6,827.7h7v7h-7V827.7z M827.6,834.9h7v7h-7V834.9z M827.6,842.2h7v7h-7V842.2z M827.6,849.5h7v7h-7V849.5z M827.6,856.7h7v7
	h-7V856.7z M827.6,864h7v7h-7V864z M827.6,871.2h7v7h-7V871.2z M827.6,878.5h7v7h-7V878.5z M834.9,827.7h7v7h-7V827.7z M834.9,871.2
	h7v7h-7V871.2z M834.9,878.5h7v7h-7V878.5z M842.2,878.5h7v7h-7V878.5z M849.4,834.9h7v7h-7V834.9z M849.4,842.2h7v7h-7V842.2z
	 M849.4,849.5h7v7h-7V849.5z M849.4,856.7h7v7h-7V856.7z M849.4,864h7v7h-7V864z M849.4,878.5h7v7h-7V878.5z M856.7,842.2h7v7h-7
	V842.2z M856.7,849.5h7v7h-7V849.5z M856.7,856.7h7v7h-7V856.7z M856.7,878.5h7v7h-7V878.5z M863.9,827.7h7v7h-7V827.7z
	 M863.9,842.2h7v7h-7V842.2z M863.9,849.5h7v7h-7V849.5z M863.9,856.7h7v7h-7V856.7z M863.9,871.2h7v7h-7V871.2z M863.9,878.5h7v7
	h-7V878.5z M871.2,805.9h7v7h-7V805.9z M871.2,813.2h7v7h-7V813.2z M878.5,805.9h7v7h-7V805.9z M878.5,813.2h7v7h-7V813.2z
	 M885.7,805.9h7v7h-7V805.9z M885.7,813.2h7v7h-7V813.2z M893,805.9h7v7h-7V805.9z M900.2,805.9h7v7h-7V805.9z M900.2,813.2h7v7h-7
	V813.2z M907.5,805.9h7v7h-7V805.9z M907.5,813.2h7v7h-7V813.2z M914.8,805.9h7v7h-7V805.9z M914.8,813.2h7v7h-7V813.2z M922,805.9
	h7v7h-7V805.9z M922,813.2h7v7h-7V813.2z M929.3,805.9h7v7h-7V805.9z M929.3,813.2h7v7h-7V813.2z M936.5,805.9h7v7h-7V805.9z
	 M936.5,813.2h7v7h-7V813.2z M871.2,820.4h7v7h-7V820.4z M878.5,820.4h7v7h-7V820.4z M900.2,820.4h7v7h-7V820.4z M907.5,820.4h7v7
	h-7V820.4z M914.8,820.4h7v7h-7V820.4z M922,820.4h7v7h-7V820.4z M929.3,820.4h7v7h-7V820.4z M936.5,820.4h7v7h-7V820.4z
	 M871.2,827.7h7v7h-7V827.7z M871.2,834.9h7v7h-7V834.9z M871.2,842.2h7v7h-7V842.2z M871.2,849.5h7v7h-7V849.5z M871.2,856.7h7v7
	h-7V856.7z M871.2,864h7v7h-7V864z M871.2,871.2h7v7h-7V871.2z M871.2,878.5h7v7h-7V878.5z M878.5,834.9h7v7h-7V834.9z M878.5,842.2
	h7v7h-7V842.2z M878.5,849.5h7v7h-7V849.5z M878.5,856.7h7v7h-7V856.7z M878.5,864h7v7h-7V864z M878.5,871.2h7v7h-7V871.2z
	 M878.5,878.5h7v7h-7V878.5z M885.7,871.2h7v7h-7V871.2z M885.7,878.5h7v7h-7V878.5z M893,878.5h7v7h-7V878.5z M900.2,834.9h7v7h-7
	V834.9z M900.2,842.2h7v7h-7V842.2z M900.2,849.5h7v7h-7V849.5z M900.2,856.7h7v7h-7V856.7z M900.2,878.5h7v7h-7V878.5z
	 M907.5,827.7h7v7h-7V827.7z M907.5,834.9h7v7h-7V834.9z M907.5,842.2h7v7h-7V842.2z M907.5,849.5h7v7h-7V849.5z M907.5,856.7h7v7
	h-7V856.7z M907.5,864h7v7h-7V864z M907.5,871.2h7v7h-7V871.2z M907.5,878.5h7v7h-7V878.5z M914.8,827.7h7v7h-7V827.7z M914.8,834.9
	h7v7h-7V834.9z M914.8,842.2h7v7h-7V842.2z M914.8,849.5h7v7h-7V849.5z M914.8,856.7h7v7h-7V856.7z M914.8,864h7v7h-7V864z
	 M914.8,871.2h7v7h-7V871.2z M914.8,878.5h7v7h-7V878.5z M922,827.7h7v7h-7V827.7z M922,834.9h7v7h-7V834.9z M922,842.2h7v7h-7
	V842.2z M922,849.5h7v7h-7V849.5z M922,856.7h7v7h-7V856.7z M922,864h7v7h-7V864z M922,871.2h7v7h-7V871.2z M922,878.5h7v7h-7V878.5
	z M929.3,827.7h7v7h-7V827.7z M929.3,834.9h7v7h-7V834.9z M929.3,842.2h7v7h-7V842.2z M929.3,849.5h7v7h-7V849.5z M929.3,856.7h7v7
	h-7V856.7z M929.3,864h7v7h-7V864z M929.3,871.2h7v7h-7V871.2z M929.3,878.5h7v7h-7V878.5z M936.5,827.7h7v7h-7V827.7z M936.5,834.9
	h7v7h-7V834.9z M936.5,842.2h7v7h-7V842.2z M936.5,849.5h7v7h-7V849.5z M936.5,856.7h7v7h-7V856.7z M936.5,864h7v7h-7V864z
	 M936.5,871.2h7v7h-7V871.2z M936.5,878.5h7v7h-7V878.5z M943.8,805.9h7v7h-7V805.9z M943.8,813.2h7v7h-7V813.2z M951.1,805.9h7v7
	h-7V805.9z M951.1,813.2h7v7h-7V813.2z M958.3,805.9h7v7h-7V805.9z M958.3,813.2h7v7h-7V813.2z M965.6,805.9h7v7h-7V805.9z
	 M965.6,813.2h7v7h-7V813.2z M972.8,805.9h7v7h-7V805.9z M972.8,813.2h7v7h-7V813.2z M980.1,805.9h7v7h-7V805.9z M980.1,813.2h7v7
	h-7V813.2z M943.8,820.4h7v7h-7V820.4z M951.1,820.4h7v7h-7V820.4z M958.3,820.4h7v7h-7V820.4z M965.6,820.4h7v7h-7V820.4z
	 M972.8,820.4h7v7h-7V820.4z M980.1,820.4h7v7h-7V820.4z M943.8,827.7h7v7h-7V827.7z M943.8,834.9h7v7h-7V834.9z M943.8,842.2h7v7
	h-7V842.2z M943.8,849.5h7v7h-7V849.5z M943.8,856.7h7v7h-7V856.7z M943.8,864h7v7h-7V864z M943.8,871.2h7v7h-7V871.2z M943.8,878.5
	h7v7h-7V878.5z M951.1,827.7h7v7h-7V827.7z M951.1,834.9h7v7h-7V834.9z M951.1,842.2h7v7h-7V842.2z M951.1,849.5h7v7h-7V849.5z
	 M951.1,856.7h7v7h-7V856.7z M951.1,864h7v7h-7V864z M951.1,871.2h7v7h-7V871.2z M951.1,878.5h7v7h-7V878.5z M958.3,827.7h7v7h-7
	V827.7z M958.3,834.9h7v7h-7V834.9z M958.3,842.2h7v7h-7V842.2z M958.3,849.5h7v7h-7V849.5z M958.3,856.7h7v7h-7V856.7z M958.3,864
	h7v7h-7V864z M958.3,871.2h7v7h-7V871.2z M958.3,878.5h7v7h-7V878.5z M965.6,827.7h7v7h-7V827.7z M965.6,834.9h7v7h-7V834.9z
	 M965.6,842.2h7v7h-7V842.2z M965.6,849.5h7v7h-7V849.5z M965.6,856.7h7v7h-7V856.7z M965.6,864h7v7h-7V864z M965.6,871.2h7v7h-7
	V871.2z M965.6,878.5h7v7h-7V878.5z M972.8,827.7h7v7h-7V827.7z M972.8,834.9h7v7h-7V834.9z M972.8,842.2h7v7h-7V842.2z
	 M972.8,849.5h7v7h-7V849.5z M972.8,856.7h7v7h-7V856.7z M972.8,864h7v7h-7V864z M972.8,871.2h7v7h-7V871.2z M972.8,878.5h7v7h-7
	V878.5z M980.1,827.7h7v7h-7V827.7z M980.1,834.9h7v7h-7V834.9z M980.1,842.2h7v7h-7V842.2z M980.1,849.5h7v7h-7V849.5z
	 M980.1,856.7h7v7h-7V856.7z M980.1,864h7v7h-7V864z M980.1,871.2h7v7h-7V871.2z M980.1,878.5h7v7h-7V878.5z M14.6,805.9h7v7h-7
	V805.9z M14.6,813.2h7v7h-7V813.2z M21.9,805.9h7v7h-7V805.9z M21.9,813.2h7v7h-7V813.2z M29.1,805.9h7v7h-7
	C29.1,812.9,29.1,805.9,29.1,805.9z M29.1,813.2h7v7h-7C29.1,820.2,29.1,813.2,29.1,813.2z M36.4,805.9h7v7h-7V805.9z M36.4,813.2h7
	v7h-7V813.2z M43.7,805.9h7v7h-7V805.9z M43.7,813.2h7v7h-7V813.2z M50.9,805.9h7v7h-7V805.9z M50.9,813.2h7v7h-7V813.2z
	 M58.2,805.9h7v7h-7C58.2,812.9,58.2,805.9,58.2,805.9z M58.2,813.2h7v7h-7C58.2,820.2,58.2,813.2,58.2,813.2z M65.4,805.9h7v7h-7
	V805.9z M65.4,813.2h7v7h-7V813.2z M72.7,805.9h7v7h-7V805.9z M72.7,813.2h7v7h-7V813.2z M80,805.9h7v7h-7V805.9z M80,813.2h7v7h-7
	V813.2z M87.2,805.9h7v7h-7V805.9z M87.2,813.2h7v7h-7V813.2z M94.5,805.9h7v7h-7V805.9z M101.8,805.9h7v7h-7V805.9z M109,805.9h7v7
	h-7V805.9z M94.5,813.2h7v7h-7V813.2z M116.3,805.9h7v7h-7V805.9z M123.6,805.9h7v7h-7C123.6,812.9,123.6,805.9,123.6,805.9z
	 M130.8,805.9h7v7h-7V805.9z M130.8,813.2h7v7h-7V813.2z M138,805.9h7v7h-7V805.9z M138,813.2h7v7h-7V813.2z M145.3,805.9h7v7h-7
	V805.9z M145.3,813.2h7v7h-7V813.2z M152.6,805.9h7v7h-7V805.9z M152.6,813.2h7v7h-7V813.2z M159.8,805.9h7v7h-7V805.9z
	 M159.8,813.2h7v7h-7V813.2z M167.1,805.9h7v7h-7V805.9z M167.1,813.2h7v7h-7V813.2z M174.3,805.9h7v7h-7V805.9z M174.3,813.2h7v7
	h-7V813.2z M181.6,805.9h7v7h-7V805.9z M181.6,813.2h7v7h-7V813.2z M188.9,805.9h7v7h-7V805.9z M188.9,813.2h7v7h-7V813.2z
	 M196.1,805.9h7v7h-7V805.9z M196.1,813.2h7v7h-7V813.2z M203.4,805.9h7v7h-7V805.9z M203.4,813.2h7v7h-7V813.2z M210.6,805.9h7v7
	h-7V805.9z M210.6,813.2h7v7h-7V813.2z M217.9,805.9h7v7h-7V805.9z M217.9,813.2h7v7h-7V813.2z M225.2,805.9h7v7h-7V805.9z
	 M232.5,805.9h7v7h-7V805.9z M239.7,805.9h7v7h-7V805.9z M225.2,813.2h7v7h-7V813.2z M246.9,805.9h7v7h-7V805.9z M246.9,813.2h7v7
	h-7V813.2z M254.2,805.9h7v7h-7L254.2,805.9L254.2,805.9z M254.2,813.2h7v7h-7L254.2,813.2L254.2,813.2z M261.5,805.9h7v7h-7V805.9z
	 M261.5,813.2h7v7h-7V813.2z M268.7,805.9h7v7h-7V805.9z M268.7,813.2h7v7h-7V813.2z M276,805.9h7v7h-7V805.9z M276,813.2h7v7h-7
	V813.2z M283.2,805.9h7v7h-7V805.9z M283.2,813.2h7v7h-7V813.2z M290.5,805.9h7v7h-7V805.9z M290.5,813.2h7v7h-7V813.2z
	 M297.8,805.9h7v7h-7V805.9z M297.8,813.2h7v7h-7V813.2z M305,805.9h7v7h-7V805.9z M305,813.2h7v7h-7V813.2z M312.3,805.9h7v7h-7
	V805.9z M312.3,813.2h7v7h-7V813.2z M319.5,805.9h7v7h-7V805.9z M319.5,813.2h7v7h-7V813.2z M326.8,805.9h7v7h-7V805.9z
	 M326.8,813.2h7v7h-7V813.2z M334.1,805.9h7v7h-7V805.9z M334.1,813.2h7v7h-7V813.2z M341.3,805.9h7v7h-7V805.9z M341.3,813.2h7v7
	h-7V813.2z M348.6,805.9h7v7h-7V805.9z M348.6,813.2h7v7h-7V813.2z M355.8,805.9h7v7h-7V805.9z M355.8,813.2h7v7h-7V813.2z
	 M14.6,820.4h7v7h-7V820.4z M21.9,820.4h7v7h-7V820.4z M29.1,820.4h7v7h-7C29.1,827.4,29.1,820.4,29.1,820.4z M36.4,820.4h7v7h-7
	V820.4z M43.7,820.4h7v7h-7V820.4z M50.9,820.4h7v7h-7V820.4z M58.2,820.4h7v7h-7C58.2,827.4,58.2,820.4,58.2,820.4z M65.4,820.4h7
	v7h-7V820.4z M14.6,827.7h7v7h-7V827.7z M14.6,834.9h7v7h-7V834.9z M14.6,842.2h7v7h-7V842.2z M14.6,849.5h7v7h-7V849.5z
	 M14.6,856.7h7v7h-7V856.7z M14.6,864h7v7h-7V864z M14.6,871.2h7v7h-7V871.2z M14.6,878.5h7v7h-7V878.5z M21.9,827.7h7v7h-7V827.7z
	 M21.9,834.9h7v7h-7V834.9z M21.9,842.2h7v7h-7V842.2z M21.9,849.5h7v7h-7V849.5z M21.9,856.7h7v7h-7V856.7z M21.9,864h7v7h-7V864z
	 M21.9,871.2h7v7h-7V871.2z M21.9,878.5h7v7h-7V878.5z M29.1,827.7h7v7h-7C29.1,834.7,29.1,827.7,29.1,827.7z M29.1,834.9h7v7h-7
	C29.1,841.9,29.1,834.9,29.1,834.9z M29.1,842.2h7v7h-7C29.1,849.2,29.1,842.2,29.1,842.2z M29.1,849.5h7v7h-7
	C29.1,856.5,29.1,849.5,29.1,849.5z M29.1,856.7h7v7h-7C29.1,863.7,29.1,856.7,29.1,856.7z M29.1,864h7v7h-7
	C29.1,871,29.1,864,29.1,864z M29.1,871.2h7v7h-7C29.1,878.2,29.1,871.2,29.1,871.2z M29.1,878.5h7v7h-7
	C29.1,885.5,29.1,878.5,29.1,878.5z M36.4,827.7h7v7h-7V827.7z M36.4,834.9h7v7h-7V834.9z M36.4,842.2h7v7h-7V842.2z M36.4,849.5h7
	v7h-7V849.5z M36.4,856.7h7v7h-7V856.7z M36.4,864h7v7h-7V864z M36.4,871.2h7v7h-7V871.2z M36.4,878.5h7v7h-7V878.5z M43.7,827.7h7
	v7h-7V827.7z M43.7,834.9h7v7h-7V834.9z M43.7,842.2h7v7h-7V842.2z M43.7,849.5h7v7h-7V849.5z M43.7,856.7h7v7h-7V856.7z M43.7,864
	h7v7h-7V864z M43.7,871.2h7v7h-7V871.2z M43.7,878.5h7v7h-7V878.5z M50.9,827.7h7v7h-7V827.7z M50.9,834.9h7v7h-7V834.9z
	 M50.9,842.2h7v7h-7V842.2z M50.9,849.5h7v7h-7V849.5z M50.9,856.7h7v7h-7V856.7z M50.9,864h7v7h-7V864z M50.9,871.2h7v7h-7V871.2z
	 M50.9,878.5h7v7h-7V878.5z M58.2,827.7h7v7h-7C58.2,834.7,58.2,827.7,58.2,827.7z M58.2,834.9h7v7h-7
	C58.2,841.9,58.2,834.9,58.2,834.9z M58.2,842.2h7v7h-7C58.2,849.2,58.2,842.2,58.2,842.2z M58.2,849.5h7v7h-7
	C58.2,856.5,58.2,849.5,58.2,849.5z M58.2,856.7h7v7h-7C58.2,863.7,58.2,856.7,58.2,856.7z M58.2,864h7v7h-7
	C58.2,871,58.2,864,58.2,864z M58.2,871.2h7v7h-7C58.2,878.2,58.2,871.2,58.2,871.2z M58.2,878.5h7v7h-7
	C58.2,885.5,58.2,878.5,58.2,878.5z M65.4,827.7h7v7h-7V827.7z M65.4,834.9h7v7h-7V834.9z M65.4,842.2h7v7h-7V842.2z M65.4,849.5h7
	v7h-7V849.5z M65.4,856.7h7v7h-7V856.7z M65.4,864h7v7h-7V864z M65.4,871.2h7v7h-7V871.2z M65.4,878.5h7v7h-7V878.5z M72.7,820.4h7
	v7h-7V820.4z M80,820.4h7v7h-7V820.4z M87.2,820.4h7v7h-7V820.4z M94.5,820.4h7v7h-7V820.4z M116.3,820.4h7v7h-7V820.4z M138,820.4
	h7v7h-7V820.4z M72.7,827.7h7v7h-7V827.7z M72.7,834.9h7v7h-7V834.9z M72.7,842.2h7v7h-7V842.2z M72.7,849.5h7v7h-7V849.5z
	 M72.7,856.7h7v7h-7V856.7z M72.7,864h7v7h-7V864z M72.7,871.2h7v7h-7V871.2z M72.7,878.5h7v7h-7V878.5z M80,827.7h7v7h-7V827.7z
	 M80,834.9h7v7h-7V834.9z M80,842.2h7v7h-7V842.2z M80,849.5h7v7h-7V849.5z M80,856.7h7v7h-7V856.7z M80,864h7v7h-7V864z M80,871.2
	h7v7h-7V871.2z M80,878.5h7v7h-7V878.5z M87.2,827.7h7v7h-7V827.7z M87.2,834.9h7v7h-7V834.9z M87.2,842.2h7v7h-7V842.2z
	 M87.2,849.5h7v7h-7V849.5z M87.2,856.7h7v7h-7V856.7z M87.2,864h7v7h-7V864z M87.2,871.2h7v7h-7V871.2z M87.2,878.5h7v7h-7V878.5z
	 M94.5,827.7h7v7h-7V827.7z M94.5,834.9h7v7h-7V834.9z M116.3,834.9h7v7h-7V834.9z M94.5,842.2h7v7h-7V842.2z M130.9,842.2h7v7h-7
	V842.2z M94.5,849.5h7v7h-7V849.5z M94.5,856.7h7v7h-7V856.7z M94.5,864h7v7h-7V864z M94.5,871.2h7v7h-7V871.2z M94.5,878.5h7v7h-7
	V878.5z M101.7,878.5h7v7h-7V878.5z M109,878.5h7v7h-7V878.5z M116.3,827.7h7v7h-7V827.7z M116.3,849.5h7v7h-7V849.5z M116.3,856.7
	h7v7h-7V856.7z M116.3,864h7v7h-7V864z M116.3,878.5h7v7h-7V878.5z M123.5,878.5h7v7h-7V878.5z M130.8,871.2h7v7h-7V871.2z
	 M130.8,878.5h7v7h-7V878.5z M138,827.7h7v7h-7V827.7z M138,834.9h7v7h-7V834.9z M138,842.2h7v7h-7V842.2z M138,849.5h7v7h-7V849.5z
	 M138,856.7h7v7h-7V856.7z M138,864h7v7h-7V864z M138,871.2h7v7h-7V871.2z M138,878.5h7v7h-7V878.5z M145.3,820.4h7v7h-7V820.4z
	 M152.6,820.4h7v7h-7V820.4z M159.8,820.4h7v7h-7V820.4z M167.1,820.4h7v7h-7V820.4z M174.3,820.4h7v7h-7V820.4z M181.6,820.4h7v7
	h-7V820.4z M188.9,820.4h7v7h-7V820.4z M196.1,820.4h7v7h-7V820.4z M203.4,820.4h7v7h-7V820.4z M210.6,820.4h7v7h-7V820.4z
	 M145.3,827.7h7v7h-7V827.7z M145.3,842.2h7v7h-7V842.2z M145.3,849.5h7v7h-7V849.5z M145.3,871.2h7v7h-7V871.2z M145.3,878.5h7v7
	h-7V878.5z M152.6,842.2h7v7h-7V842.2z M152.6,878.5h7v7h-7V878.5z M159.8,834.9h7v7h-7V834.9z M159.8,842.2h7v7h-7V842.2z
	 M159.8,856.7h7v7h-7V856.7z M159.8,864h7v7h-7V864z M159.8,878.5h7v7h-7V878.5z M167.1,871.2h7v7h-7V871.2z M167.1,878.5h7v7h-7
	V878.5z M174.3,827.7h7v7h-7V827.7z M174.3,878.5h7v7h-7V878.5z M181.6,827.7h7v7h-7V827.7z M181.6,834.9h7v7h-7V834.9z
	 M181.6,842.2h7v7h-7V842.2z M181.6,849.5h7v7h-7V849.5z M181.6,856.7h7v7h-7V856.7z M181.6,864h7v7h-7V864z M181.6,871.2h7v7h-7
	V871.2z M181.6,878.5h7v7h-7V878.5z M188.9,827.7h7v7h-7V827.7z M188.9,871.2h7v7h-7V871.2z M188.9,878.5h7v7h-7V878.5z
	 M196.1,878.5h7v7h-7V878.5z M203.4,834.9h7v7h-7V834.9z M203.4,842.2h7v7h-7V842.2z M203.4,849.5h7v7h-7V849.5z M203.4,856.7h7v7
	h-7V856.7z M203.4,864h7v7h-7V864z M203.4,878.5h7v7h-7V878.5z M210.6,842.2h7v7h-7V842.2z M210.6,849.5h7v7h-7V849.5z M210.6,856.7
	h7v7h-7V856.7z M210.6,878.5h7v7h-7V878.5z M217.9,820.4h7v7h-7V820.4z M225.2,820.4h7v7h-7V820.4z M246.9,820.4h7v7h-7V820.4z
	 M254.2,820.4h7v7h-7L254.2,820.4L254.2,820.4z M261.5,820.4h7v7h-7V820.4z M268.7,820.4h7v7h-7V820.4z M276,820.4h7v7h-7V820.4z
	 M283.2,820.4h7v7h-7V820.4z M217.9,827.7h7v7h-7V827.7z M217.9,842.2h7v7h-7V842.2z M217.9,849.5h7v7h-7V849.5z M217.9,856.7h7v7
	h-7V856.7z M217.9,871.2h7v7h-7V871.2z M217.9,878.5h7v7h-7V878.5z M225.2,827.7h7v7h-7V827.7z M225.2,834.9h7v7h-7V834.9z
	 M225.2,842.2h7v7h-7V842.2z M225.2,849.5h7v7h-7V849.5z M225.2,856.7h7v7h-7V856.7z M225.2,864h7v7h-7V864z M225.2,871.2h7v7h-7
	V871.2z M225.2,878.5h7v7h-7V878.5z M232.4,878.5h7v7h-7V878.5z M239.7,878.5h7v7h-7V878.5z M246.9,827.7h7v7h-7V827.7z
	 M246.9,834.9h7v7h-7V834.9z M246.9,856.7h7v7h-7V856.7z M246.9,864h7v7h-7V864z M246.9,871.2h7v7h-7V871.2z M246.9,878.5h7v7h-7
	V878.5z M254.2,827.7h7v7h-7L254.2,827.7L254.2,827.7z M254.2,871.2h7v7h-7L254.2,871.2L254.2,871.2z M254.2,878.5h7v7h-7
	L254.2,878.5L254.2,878.5z M261.5,842.2h7v7h-7V842.2z M261.5,849.5h7v7h-7V849.5z M261.5,878.5h7v7h-7V878.5z M268.7,834.9h7v7h-7
	V834.9z M268.7,842.2h7v7h-7V842.2z M268.7,849.5h7v7h-7V849.5z M268.7,856.7h7v7h-7V856.7z M268.7,864h7v7h-7V864z M268.7,878.5h7
	v7h-7V878.5z M276,827.7h7v7h-7V827.7z M276,834.9h7v7h-7V834.9z M276,842.2h7v7h-7V842.2z M276,849.5h7v7h-7V849.5z M276,856.7h7v7
	h-7V856.7z M276,864h7v7h-7V864z M276,871.2h7v7h-7V871.2z M276,878.5h7v7h-7V878.5z M283.2,827.7h7v7h-7V827.7z M283.2,834.9h7v7
	h-7V834.9z M283.2,842.2h7v7h-7V842.2z M283.2,849.5h7v7h-7V849.5z M283.2,856.7h7v7h-7V856.7z M283.2,864h7v7h-7V864z M283.2,871.2
	h7v7h-7V871.2z M283.2,878.5h7v7h-7V878.5z M290.5,820.4h7v7h-7V820.4z M297.8,820.4h7v7h-7V820.4z M305,820.4h7v7h-7V820.4z
	 M312.3,820.4h7v7h-7V820.4z M319.5,820.4h7v7h-7V820.4z M326.8,820.4h7v7h-7V820.4z M334.1,820.4h7v7h-7V820.4z M341.3,820.4h7v7
	h-7V820.4z M348.6,820.4h7v7h-7V820.4z M355.8,820.4h7v7h-7V820.4z M290.5,827.7h7v7h-7V827.7z M290.5,834.9h7v7h-7V834.9z
	 M290.5,842.2h7v7h-7V842.2z M290.5,849.5h7v7h-7V849.5z M290.5,856.7h7v7h-7V856.7z M290.5,864h7v7h-7V864z M290.5,871.2h7v7h-7
	V871.2z M290.5,878.5h7v7h-7V878.5z M297.8,827.7h7v7h-7V827.7z M297.8,834.9h7v7h-7V834.9z M297.8,842.2h7v7h-7V842.2z
	 M297.8,849.5h7v7h-7V849.5z M297.8,856.7h7v7h-7V856.7z M297.8,864h7v7h-7V864z M297.8,871.2h7v7h-7V871.2z M297.8,878.5h7v7h-7
	V878.5z M305,827.7h7v7h-7V827.7z M305,834.9h7v7h-7V834.9z M305,842.2h7v7h-7V842.2z M305,849.5h7v7h-7V849.5z M305,856.7h7v7h-7
	V856.7z M305,864h7v7h-7V864z M305,871.2h7v7h-7V871.2z M305,878.5h7v7h-7V878.5z M312.3,827.7h7v7h-7V827.7z M312.3,834.9h7v7h-7
	V834.9z M312.3,842.2h7v7h-7V842.2z M312.3,849.5h7v7h-7V849.5z M312.3,856.7h7v7h-7V856.7z M312.3,864h7v7h-7V864z M312.3,871.2h7
	v7h-7V871.2z M312.3,878.5h7v7h-7V878.5z M319.5,827.7h7v7h-7V827.7z M319.5,834.9h7v7h-7V834.9z M319.5,842.2h7v7h-7V842.2z
	 M319.5,849.5h7v7h-7V849.5z M319.5,856.7h7v7h-7V856.7z M319.5,864h7v7h-7V864z M319.5,871.2h7v7h-7V871.2z M319.5,878.5h7v7h-7
	V878.5z M326.8,827.7h7v7h-7V827.7z M326.8,834.9h7v7h-7V834.9z M326.8,842.2h7v7h-7V842.2z M326.8,849.5h7v7h-7V849.5z
	 M326.8,856.7h7v7h-7V856.7z M326.8,864h7v7h-7V864z M326.8,871.2h7v7h-7V871.2z M326.8,878.5h7v7h-7V878.5z M334.1,827.7h7v7h-7
	V827.7z M334.1,834.9h7v7h-7V834.9z M334.1,842.2h7v7h-7V842.2z M334.1,849.5h7v7h-7V849.5z M334.1,856.7h7v7h-7V856.7z M334.1,864
	h7v7h-7V864z M334.1,871.2h7v7h-7V871.2z M334.1,878.5h7v7h-7V878.5z M341.3,827.7h7v7h-7V827.7z M341.3,834.9h7v7h-7V834.9z
	 M341.3,842.2h7v7h-7V842.2z M341.3,849.5h7v7h-7V849.5z M341.3,856.7h7v7h-7V856.7z M341.3,864h7v7h-7V864z M341.3,871.2h7v7h-7
	V871.2z M341.3,878.5h7v7h-7V878.5z M348.6,827.7h7v7h-7V827.7z M348.6,834.9h7v7h-7V834.9z M348.6,842.2h7v7h-7V842.2z
	 M348.6,849.5h7v7h-7V849.5z M348.6,856.7h7v7h-7V856.7z M348.6,864h7v7h-7V864z M348.6,871.2h7v7h-7V871.2z M348.6,878.5h7v7h-7
	V878.5z M355.8,827.7h7v7h-7V827.7z M355.8,834.9h7v7h-7V834.9z M355.8,842.2h7v7h-7V842.2z M355.8,849.5h7v7h-7V849.5z
	 M355.8,856.7h7v7h-7V856.7z M355.8,864h7v7h-7V864z M355.8,871.2h7v7h-7V871.2z M355.8,878.5h7v7h-7V878.5z M14.5,7.3h7v7h-7V7.3z
	 M14.5,14.5h7v7h-7V14.5z M14.5,21.8h7v7h-7V21.8z M14.5,29.1h7v7h-7V29.1z M14.5,36.2h7v7h-7V36.2z M14.5,43.5h7v7h-7V43.5z
	 M14.5,50.9h7v7h-7V50.9z M14.5,58h7v7h-7V58z M14.5,65.4h7v7h-7V65.4z M14.5,72.6h7v7h-7V72.6z M14.5,79.9h7v7h-7V79.9z M14.5,87.1
	h7v7h-7V87.1z M14.5,94.4h7v7h-7V94.4z M21.8,7.3h7v7h-7V7.3z M21.8,14.5h7v7h-7V14.5z M21.8,94.4h7v7h-7V94.4z M14.5,101.7h7v7h-7
	V101.7z M21.8,87.1h7v7h-7V87.1z M29,7.3h7v7h-7V7.3z M29,94.4h7v7h-7V94.4z M36.3,7.3h7v7h-7V7.3z M36.3,94.4h7v7h-7V94.4z
	 M43.6,7.3h7v7h-7V7.3z M43.6,94.4h7v7h-7V94.4z M50.8,7.3h7v7h-7V7.3z M50.8,94.4h7v7h-7V94.4z M58.1,7.3h7v7h-7V7.3z M58.1,94.4h7
	v7h-7V94.4z M65.3,7.3h7v7h-7V7.3z M65.3,94.4h7v7h-7V94.4z M72.6,7.3h7v7h-7V7.3z M72.6,94.4h7v7h-7V94.4z M79.9,7.3h7v7h-7V7.3z
	 M79.9,94.4h7v7h-7V94.4z M87.1,7.3h7v7h-7V7.3z M87.1,94.4h7v7h-7V94.4z M94.4,7.3h7v7h-7V7.3z M94.4,14.5h7v7h-7V14.5z M94.4,94.4
	h7v7h-7V94.4z M94.4,87.1h7v7h-7V87.1z M101.6,7.3h7v7h-7V7.3z M101.6,14.5h7v7h-7V14.5z M101.6,21.8h7v7h-7V21.8z M101.6,29.1h7v7
	h-7V29.1z M101.6,36.2h7v7h-7V36.2z M101.6,43.5h7v7h-7V43.5z M101.6,50.9h7v7h-7V50.9z M101.6,58h7v7h-7V58z M101.6,65.4h7v7h-7
	V65.4z M101.6,72.6h7v7h-7V72.6z M101.6,79.9h7v7h-7V79.9z M101.6,87.1h7v7h-7V87.1z M101.6,94.4h7v7h-7V94.4z M108.9,7.3h7v7h-7
	V7.3z M108.9,14.5h7v7h-7V14.5z M108.9,21.8h7v7h-7V21.8z M108.9,29.1h7v7h-7V29.1z M108.9,36.2h7v7h-7V36.2z M108.9,43.5h7v7h-7
	V43.5z M108.9,50.9h7v7h-7V50.9z M108.9,58h7v7h-7V58z M108.9,65.4h7v7h-7V65.4z M108.9,72.6h7v7h-7V72.6z M108.9,79.9h7v7h-7V79.9z
	 M108.9,87.1h7v7h-7V87.1z M108.9,94.4h7v7h-7V94.4z M116.2,7.3h7v7h-7V7.3z M116.2,94.4h7v7h-7V94.4z M123.4,7.3h7v7h-7
	C123.4,14.3,123.4,7.3,123.4,7.3z M123.4,94.4h7v7h-7C123.4,101.4,123.4,94.4,123.4,94.4z M130.7,7.3h7v7h-7V7.3z M130.7,94.4h7v7
	h-7V94.4z M137.9,7.3h7v7h-7V7.3z M137.9,94.4h7v7h-7V94.4z M145.2,7.3h7v7h-7V7.3z M145.2,94.4h7v7h-7V94.4z M152.5,7.3h7v7h-7V7.3
	z M152.5,94.4h7v7h-7V94.4z M159.7,7.3h7v7h-7V7.3z M159.7,94.4h7v7h-7V94.4z M167,7.3h7v7h-7V7.3z M167,94.4h7v7h-7V94.4z
	 M174.2,7.3h7v7h-7V7.3z M174.2,94.4h7v7h-7V94.4z M181.5,7.3h7v7h-7V7.3z M181.5,94.4h7v7h-7V94.4z M188.8,7.3h7v7h-7V7.3z
	 M188.8,94.4h7v7h-7V94.4z M196,7.3h7v7h-7V7.3z M196,94.4h7v7h-7V94.4z M203.3,7.3h7v7h-7V7.3z M203.3,94.4h7v7h-7V94.4z
	 M210.5,7.3h7v7h-7V7.3z M210.5,94.4h7v7h-7V94.4z M217.8,7.3h7v7h-7V7.3z M217.8,94.4h7v7h-7V94.4z M225.1,7.3h7v7h-7V7.3z
	 M225.1,94.4h7v7h-7V94.4z M232.3,7.3h7v7h-7V7.3z M232.3,94.4h7v7h-7V94.4z M239.6,7.3h7v7h-7V7.3z M239.6,94.4h7v7h-7V94.4z
	 M246.8,7.3h7v7h-7V7.3z M246.8,94.4h7v7h-7V94.4z M254.1,7.3h7v7h-7V7.3z M254.1,94.4h7v7h-7V94.4z M261.4,7.3h7v7h-7V7.3z
	 M261.4,94.4h7v7h-7V94.4z M268.6,7.3h7v7h-7V7.3z M268.6,94.4h7v7h-7V94.4z M275.9,7.3h7v7h-7V7.3z M275.9,94.4h7v7h-7V94.4z
	 M283.1,7.3h7v7h-7V7.3z M283.1,94.4h7v7h-7V94.4z M290.4,7.3h7v7h-7V7.3z M290.4,94.4h7v7h-7V94.4z M297.7,7.3h7v7h-7V7.3z
	 M297.7,94.4h7v7h-7V94.4z M304.9,7.3h7v7h-7V7.3z M304.9,94.4h7v7h-7V94.4z M312.2,7.3h7v7h-7V7.3z M312.2,94.4h7v7h-7V94.4z
	 M319.4,7.3h7v7h-7V7.3z M319.4,94.4h7v7h-7V94.4z M326.7,7.3h7v7h-7V7.3z M326.7,94.4h7v7h-7V94.4z M334,7.3h7v7h-7V7.3z M334,94.4
	h7v7h-7V94.4z M341.2,7.3h7v7h-7V7.3z M341.2,94.4h7v7h-7V94.4z M348.5,7.3h7v7h-7V7.3z M348.5,94.4h7v7h-7V94.4z M355.7,7.3h7v7h-7
	V7.3z M355.7,94.4h7v7h-7V94.4z M363,7.3h7v7h-7V7.3z M363,94.4h7v7h-7V94.4z M370.3,7.3h7v7h-7V7.3z M370.3,94.4h7v7h-7V94.4z
	 M377.5,7.3h7v7h-7V7.3z M377.5,94.4h7v7h-7V94.4z M384.8,7.3h7v7h-7V7.3z M384.8,94.4h7v7h-7V94.4z M392,7.3h7v7h-7V7.3z M392,94.4
	h7v7h-7V94.4z M399.3,7.3h7v7h-7V7.3z M399.3,94.4h7v7h-7V94.4z M406.6,7.3h7v7h-7V7.3z M406.6,94.4h7v7h-7V94.4z M413.8,7.3h7v7h-7
	V7.3z M413.8,94.4h7v7h-7V94.4z M421.1,7.3h7v7h-7V7.3z M421.1,94.4h7v7h-7V94.4z M428.3,7.3h7v7h-7V7.3z M428.3,94.4h7v7h-7V94.4z
	 M435.6,7.3h7v7h-7V7.3z M435.6,94.4h7v7h-7V94.4z M442.9,7.3h7v7h-7V7.3z M442.9,94.4h7v7h-7V94.4z M450.1,7.3h7v7h-7V7.3z
	 M450.1,94.4h7v7h-7V94.4z M457.4,7.3h7v7h-7V7.3z M457.4,94.4h7v7h-7V94.4z M464.6,7.3h7v7h-7V7.3z M464.6,94.4h7v7h-7V94.4z
	 M471.9,7.3h7v7h-7V7.3z M471.9,94.4h7v7h-7V94.4z M479.2,7.3h7v7h-7V7.3z M479.2,94.4h7v7h-7V94.4z M486.4,7.3h7v7h-7V7.3z
	 M486.4,94.4h7v7h-7V94.4z M493.7,7.3h7v7h-7V7.3z M493.7,94.4h7v7h-7V94.4z M500.9,7.3h7v7h-7V7.3z M500.9,94.4h7v7h-7V94.4z
	 M508.2,7.3h7v7h-7V7.3z M508.2,94.4h7v7h-7V94.4z M515.5,7.3h7v7h-7V7.3z M515.5,94.4h7v7h-7V94.4z M522.7,7.3h7v7h-7V7.3
	L522.7,7.3z M522.7,94.4h7v7h-7V94.4L522.7,94.4z M530,7.3h7v7h-7V7.3z M530,94.4h7v7h-7V94.4z M537.2,7.3h7v7h-7V7.3z M537.2,94.4
	h7v7h-7V94.4z M544.5,7.3h7v7h-7V7.3z M544.5,94.4h7v7h-7V94.4z M551.8,7.3h7v7h-7V7.3z M551.8,94.4h7v7h-7V94.4z M559,7.3h7v7h-7
	V7.3z M559,94.4h7v7h-7V94.4z M566.3,7.3h7v7h-7V7.3z M566.3,94.4h7v7h-7V94.4z M573.5,7.3h7v7h-7V7.3z M573.5,94.4h7v7h-7V94.4z
	 M580.8,7.3h7v7h-7V7.3z M580.8,94.4h7v7h-7V94.4z M588.1,7.3h7v7h-7V7.3z M588.1,94.4h7v7h-7V94.4z M595.3,7.3h7v7h-7V7.3z
	 M595.3,94.4h7v7h-7V94.4z M602.6,7.3h7v7h-7V7.3z M602.6,94.4h7v7h-7V94.4z M609.8,7.3h7v7h-7V7.3z M609.8,94.4h7v7h-7V94.4z
	 M617.1,7.3h7v7h-7V7.3z M617.1,94.4h7v7h-7V94.4z M624.4,7.3h7v7h-7V7.3z M624.4,94.4h7v7h-7V94.4z M631.6,7.3h7v7h-7V7.3z
	 M631.6,94.4h7v7h-7V94.4z M638.8,7.3h7v7h-7V7.3z M638.8,94.4h7v7h-7V94.4z M646.2,7.3h7v7h-7V7.3z M646.2,94.4h7v7h-7V94.4z
	 M653.4,7.3h7v7h-7V7.3z M653.4,94.4h7v7h-7V94.4z M660.7,7.3h7v7h-7V7.3z M660.7,94.4h7v7h-7V94.4z M667.8,7.3h7v7h-7V7.3z
	 M667.8,94.4h7v7h-7V94.4z M675.2,7.3h7v7h-7V7.3z M675.2,94.4h7v7h-7V94.4z M682.5,7.3h7v7h-7V7.3z M682.5,94.4h7v7h-7V94.4z
	 M689.7,7.3h7v7h-7V7.3z M689.7,94.4h7v7h-7V94.4z M697,7.3h7v7h-7V7.3z M697,94.4h7v7h-7V94.4z M704.2,7.3h7v7h-7V7.3z M704.2,94.4
	h7v7h-7V94.4z M711.5,7.3h7v7h-7V7.3z M711.5,94.4h7v7h-7V94.4z M718.8,7.3h7v7h-7V7.3z M718.8,94.4h7v7h-7V94.4z M726,7.3h7v7h-7
	V7.3z M726,94.4h7v7h-7V94.4z M733.3,7.3h7v7h-7V7.3z M733.3,94.4h7v7h-7V94.4z M740.5,7.3h7v7h-7V7.3z M740.5,94.4h7v7h-7V94.4z
	 M747.8,7.3h7v7h-7V7.3z M747.8,94.4h7v7h-7V94.4z M755.1,7.3h7v7h-7V7.3z M755.1,94.4h7v7h-7V94.4z M762.3,7.3h7v7h-7V7.3z
	 M762.3,94.4h7v7h-7V94.4z M769.6,7.3h7v7h-7V7.3z M769.6,94.4h7v7h-7V94.4z M776.8,7.3h7v7h-7V7.3z M776.8,94.4h7v7h-7V94.4z
	 M784.1,7.3h7v7h-7V7.3z M784.1,94.4h7v7h-7V94.4z M791.4,7.3h7v7h-7V7.3z M791.4,94.4h7v7h-7V94.4z M798.6,7.3h7v7h-7V7.3z
	 M798.6,94.4h7v7h-7V94.4z M805.8,7.3h7v7h-7V7.3z M805.8,94.4h7v7h-7V94.4z M813.1,7.3h7v7h-7V7.3z M813.1,94.4h7v7h-7V94.4z
	 M820.4,7.3h7v7h-7V7.3z M820.4,94.4h7v7h-7V94.4z M827.7,7.3h7v7h-7V7.3z M827.7,94.4h7v7h-7V94.4z M834.8,7.3h7v7h-7V7.3z
	 M834.8,94.4h7v7h-7V94.4z M842.2,7.3h7v7h-7V7.3z M842.2,94.4h7v7h-7V94.4z M849.4,7.3h7v7h-7V7.3z M849.4,94.4h7v7h-7V94.4z
	 M856.7,7.3h7v7h-7V7.3z M856.7,94.4h7v7h-7V94.4z M864,7.3h7v7h-7V7.3z M864,94.4h7v7h-7V94.4z M871.2,7.3h7v7h-7V7.3z M871.2,94.4
	h7v7h-7V94.4z M878.5,7.3h7v7h-7V7.3z M878.5,94.4h7v7h-7V94.4z M885.8,7.3h7v7h-7V7.3z M885.8,14.5h7v7h-7V14.5z M885.8,21.8h7v7
	h-7V21.8z M885.8,29.1h7v7h-7V29.1z M885.8,36.3h7v7h-7V36.3z M885.8,43.6h7v7h-7V43.6z M885.8,50.9h7v7h-7V50.9z M885.8,58.1h7v7
	h-7V58.1z M885.8,65.4h7v7h-7V65.4z M885.8,72.6h7v7h-7V72.6z M885.8,79.9h7v7h-7V79.9z M885.8,87.2h7v7h-7V87.2z M885.8,94.4h7v7
	h-7V94.4z M893,7.3h7v7h-7V7.3z M893,14.5h7v7h-7V14.5z M893,21.8h7v7h-7V21.8z M893,29.1h7v7h-7V29.1z M893,36.3h7v7h-7V36.3z
	 M893,43.6h7v7h-7V43.6z M893,50.9h7v7h-7V50.9z M893,58.1h7v7h-7V58.1z M893,65.4h7v7h-7V65.4z M893,72.6h7v7h-7V72.6z M893,79.9h7
	v7h-7V79.9z M893,87.2h7v7h-7V87.2z M893,94.4h7v7h-7V94.4z M900.2,7.3h7v7h-7V7.3z M900.2,14.5h7v7h-7V14.5z M900.2,21.8h7v7h-7
	V21.8z M900.2,29.1h7v7h-7V29.1z M900.2,36.3h7v7h-7V36.3z M900.2,43.6h7v7h-7V43.6z M900.2,50.9h7v7h-7V50.9z M900.2,58.1h7v7h-7
	V58.1z M900.2,65.4h7v7h-7V65.4z M900.2,72.6h7v7h-7V72.6z M900.2,79.9h7v7h-7V79.9z M900.2,87.2h7v7h-7V87.2z M900.2,94.4h7v7h-7
	V94.4z M907.4,7.3h7v7h-7V7.3z M907.4,14.5h7v7h-7V14.5z M907.4,29.1h7v7h-7V29.1z M907.4,43.6h7v7h-7V43.6z M907.4,58.1h7v7h-7
	V58.1z M907.4,72.6h7v7h-7V72.6z M907.4,87.2h7v7h-7V87.2z M907.4,94.4h7v7h-7V94.4z M914.8,7.3h7v7h-7V7.3z M914.8,14.5h7v7h-7
	V14.5z M914.8,29.1h7v7h-7V29.1z M914.8,43.6h7v7h-7V43.6z M914.8,58.1h7v7h-7V58.1z M914.8,72.6h7v7h-7V72.6z M914.8,79.9h7v7h-7
	V79.9z M914.8,94.4h7v7h-7V94.4z M921.9,7.3h7v7h-7V7.3z M921.9,14.5h7v7h-7V14.5z M921.9,29.1h7v7h-7V29.1z M921.9,43.6h7v7h-7
	V43.6z M921.9,58.1h7v7h-7V58.1z M921.9,72.6h7v7h-7V72.6z M921.9,87.2h7v7h-7V87.2z M921.9,94.4h7v7h-7V94.4z M929.3,7.3h7v7h-7
	V7.3z M929.3,14.5h7v7h-7V14.5z M929.3,29.1h7v7h-7V29.1z M929.3,43.6h7v7h-7V43.6z M929.3,58.1h7v7h-7V58.1z M929.3,72.6h7v7h-7
	V72.6z M929.3,79.9h7v7h-7V79.9z M929.3,94.4h7v7h-7V94.4z M936.4,7.3h7v7h-7V7.3z M936.4,14.5h7v7h-7V14.5z M936.4,29.1h7v7h-7
	V29.1z M936.4,43.6h7v7h-7V43.6z M936.4,58.1h7v7h-7V58.1z M936.4,72.6h7v7h-7V72.6z M936.4,87.2h7v7h-7V87.2z M936.4,94.4h7v7h-7
	V94.4z M943.8,7.3h7v7h-7V7.3z M943.8,14.5h7v7h-7V14.5z M943.8,29.1h7v7h-7V29.1z M943.8,43.6h7v7h-7V43.6z M943.8,58.1h7v7h-7
	V58.1z M943.8,72.6h7v7h-7V72.6z M943.8,79.9h7v7h-7V79.9z M943.8,87.2h7v7h-7V87.2z M943.8,94.4h7v7h-7V94.4z M951,7.3h7v7h-7V7.3z
	 M951,14.5h7v7h-7V14.5z M951,29.1h7v7h-7V29.1z M951,43.6h7v7h-7V43.6z M951,58.1h7v7h-7V58.1z M951,72.6h7v7h-7V72.6z M951,87.2h7
	v7h-7V87.2z M951,94.4h7v7h-7V94.4z M958.3,7.3h7v7h-7V7.3z M958.3,14.5h7v7h-7V14.5z M958.3,29.1h7v7h-7V29.1z M958.3,43.6h7v7h-7
	V43.6z M958.3,58.1h7v7h-7V58.1z M958.3,72.6h7v7h-7V72.6z M958.3,94.4h7v7h-7V94.4z M965.5,7.3h7v7h-7V7.3z M965.5,14.5h7v7h-7
	V14.5z M965.5,29.1h7v7h-7V29.1z M965.5,43.6h7v7h-7V43.6z M965.5,58.1h7v7h-7V58.1z M965.5,72.6h7v7h-7V72.6z M965.5,87.2h7v7h-7
	V87.2z M965.5,94.4h7v7h-7V94.4z M972.8,7.3h7v7h-7V7.3z M972.8,14.5h7v7h-7V14.5z M972.8,21.8h7v7h-7V21.8z M972.8,29.1h7v7h-7
	V29.1z M972.8,36.3h7v7h-7V36.3z M972.8,43.6h7v7h-7V43.6z M972.8,50.9h7v7h-7V50.9z M972.8,58.1h7v7h-7V58.1z M972.8,65.4h7v7h-7
	V65.4z M972.8,72.6h7v7h-7V72.6z M972.8,79.9h7v7h-7V79.9z M972.8,87.2h7v7h-7V87.2z M972.8,94.4h7v7h-7V94.4z M972.8,101.7h7v7h-7
	V101.7z M980.1,101.7h7v7h-7V101.7z M980.1,7.3h7v7h-7V7.3z M980.1,14.5h7v7h-7V14.5z M980.1,21.8h7v7h-7V21.8z M980.1,29.1h7v7h-7
	V29.1z M980.1,36.3h7v7h-7V36.3z M980.1,43.6h7v7h-7V43.6z M980.1,50.9h7v7h-7V50.9z M980.1,58.1h7v7h-7V58.1z M980.1,65.4h7v7h-7
	V65.4z M980.1,72.6h7v7h-7V72.6z M980.1,79.9h7v7h-7V79.9z M980.1,87.2h7v7h-7V87.2z M980.1,94.4h7v7h-7V94.4z"/>
</svg>
