<?xml version="1.0" encoding="utf-8"?>
<!-- Generator: Adobe Illustrator 27.3.1, SVG Export Plug-In . SVG Version: 6.00 Build 0)  -->
<svg version="1.1" id="Слой_1" xmlns="http://www.w3.org/2000/svg" xmlns:xlink="http://www.w3.org/1999/xlink" x="0px" y="0px"
	 viewBox="0 0 871 399.1" style="enable-background:new 0 0 871 399.1;" xml:space="preserve">
<style type="text/css">
	.st0{fill:#1E0E01;}
</style>
<g id="Слой_1_00000056394027916361345790000008843877135930971792_">
</g>
<path class="st0" d="M0,14.5h7v7H0V14.5z M0,21.8h7v7H0V21.8z M0,29h7v7H0V29z M0,36.3h7v7H0V36.3z M0,43.6h7v7H0V43.6z M0,50.8h7v7
	H0V50.8z M0,58.1h7v7H0V58.1z M0,65.3h7v7H0V65.3z M0,72.6h7v7H0V72.6z M0,79.9h7v7H0V79.9z M0,87.1h7v7H0V87.1z M0,94.4h7v7H0V94.4
	z M0,101.6h7v7H0V101.6z M0,108.9h7v7H0V108.9z M0,116.1h7v7H0V116.1z M0,123.4h7v7H0V123.4z M0,130.7h7v7H0V130.7z M0,137.9h7v7H0
	V137.9z M0,145.2h7v7H0V145.2z M0,152.4h7v7H0V152.4z M0,159.7h7v7H0V159.7z M0,167h7v7H0V167z M0,174.2h7v7H0V174.2z M0,181.5h7v7
	H0V181.5z M7.3,7.2h7v7h-7V7.2z M7.3,14.5h7v7h-7V14.5z M7.3,72.6h7v7h-7V72.6z M7.3,79.9h7v7h-7V79.9z M7.3,87.1h7v7h-7V87.1z
	 M7.3,94.4h7v7h-7V94.4z M14.5,0h7v7h-7V0z M14.5,7.2h7v7h-7V7.2z M14.5,79.9h7v7h-7V79.9z M14.5,87.1h7v7h-7V87.1z M21.8,0h7v7h-7
	V0z M21.8,14.5h7v7h-7V14.5z M21.8,79.9h7v7h-7V79.9z M21.8,94.4h7v7h-7V94.4z M29.1,0h7v7h-7V0z M29.1,7.2h7v7h-7V7.2z M29.1,79.9
	h7v7h-7V79.9z M29.1,87.1h7v7h-7V87.1z M36.3,94.4h7v7h-7V94.4z M43.6,87.1h7v7h-7V87.1z M50.8,94.4h7v7h-7V94.4z M58.1,87.1h7v7h-7
	V87.1z M65.4,94.4h7v7h-7V94.4z M72.7,87.1h7v7h-7V87.1z M79.9,94.4h7v7h-7V94.4z M87.2,87.1h7v7h-7V87.1z M94.4,94.4h7v7h-7V94.4z
	 M101.7,87.1h7v7h-7V87.1z M108.9,94.4h7v7h-7V94.4z M116.2,87.1h7v7h-7V87.1z M123.4,94.4h7v7h-7V94.4z M130.7,87.1h7v7h-7V87.1z
	 M138,94.4h7v7h-7V94.4z M145.3,87.1h7v7h-7V87.1z M152.5,94.4h7v7h-7V94.4z M159.8,87.1h7v7h-7V87.1z M167,94.4h7v7h-7V94.4z
	 M174.3,87.1h7v7h-7V87.1z M181.5,94.4h7v7h-7V94.4z M188.8,87.1h7v7h-7V87.1z M196,94.4h7v7h-7V94.4z M203.3,87.1h7v7h-7V87.1z
	 M210.6,94.4h7v7h-7V94.4z M217.9,87.1h7v7h-7V87.1z M225.1,94.4h7v7h-7V94.4z M232.4,87.1h7v7h-7V87.1z M239.6,94.4h7v7h-7V94.4z
	 M246.9,87.1h7v7h-7V87.1z M254.1,94.4h7v7h-7V94.4z M261.4,87.1h7v7h-7V87.1z M268.6,94.4h7v7h-7V94.4z M275.9,87.1h7v7h-7V87.1z
	 M283.2,94.4h7v7h-7V94.4z M290.5,87.1h7v7h-7V87.1z M297.7,94.4h7v7h-7V94.4z M305,87.1h7v7h-7V87.1z M312.2,94.4h7v7h-7V94.4z
	 M319.5,87.1h7v7h-7V87.1z M326.7,94.4h7v7h-7V94.4z M334,87.1h7v7h-7V87.1z M341.2,94.4h7v7h-7V94.4z M348.5,87.1h7v7h-7V87.1z
	 M355.8,94.4h7v7h-7V94.4z M363.1,87.1h7v7h-7V87.1z M370.3,94.4h7v7h-7V94.4z M377.6,87.1h7v7h-7V87.1z M384.8,94.4h7v7h-7V94.4z
	 M392.1,87.1h7v7h-7V87.1z M399.3,94.4h7v7h-7V94.4z M406.6,87.1h7v7h-7V87.1z M413.8,94.4h7v7h-7V94.4z M421.1,87.1h7v7h-7V87.1z
	 M428.4,94.4h7v7h-7V94.4z M435.7,87.1h7v7h-7V87.1z M442.9,94.4h7v7h-7V94.4z M450.2,87.1h7v7h-7V87.1z M457.4,94.4h7v7h-7V94.4z
	 M464.7,87.1h7v7h-7V87.1z M471.9,94.4h7v7h-7V94.4z M479.2,87.1h7v7h-7V87.1z M486.4,94.4h7v7h-7V94.4z M493.7,87.1h7v7h-7V87.1z
	 M501,94.4h7v7h-7V94.4z M508.3,87.1h7v7h-7V87.1z M515.5,94.4h7v7h-7V94.4z M522.8,87.1h7v7h-7V87.1z M530,94.4h7v7h-7V94.4z
	 M537.3,87.1h7v7h-7V87.1z M544.5,94.4h7v7h-7V94.4z M551.8,87.1h7v7h-7V87.1z M559,94.4h7v7h-7V94.4z M566.3,87.1h7v7h-7V87.1z
	 M573.6,94.4h7v7h-7V94.4z M580.9,87.1h7v7h-7V87.1z M588.1,94.4h7v7h-7V94.4z M595.4,87.1h7v7h-7V87.1z M602.6,94.4h7v7h-7V94.4z
	 M609.9,87.1h7v7h-7V87.1z M617.1,94.4h7v7h-7V94.4z M624.4,87.1h7v7h-7V87.1z M631.6,94.4h7v7h-7V94.4z M638.9,87.1h7v7h-7V87.1z
	 M646.2,94.4h7v7h-7V94.4z M653.5,87.1h7v7h-7V87.1z M660.7,94.4h7v7h-7V94.4z M668,87.1h7v7h-7V87.1z M675.2,94.4h7v7h-7V94.4z
	 M682.5,87.1h7v7h-7V87.1z M689.7,94.4h7v7h-7V94.4z M697,87.1h7v7h-7V87.1z M704.2,94.4h7v7h-7V94.4z M711.5,87.1h7v7h-7V87.1z
	 M718.8,94.4h7v7h-7V94.4z M726.1,87.1h7v7h-7V87.1z M733.3,94.4h7v7h-7V94.4z M740.6,87.1h7v7h-7V87.1z M747.8,94.4h7v7h-7V94.4z
	 M755.1,87.1h7v7h-7V87.1z M762.3,94.4h7v7h-7V94.4z M769.6,87.1h7v7h-7V87.1z M776.8,94.4h7v7h-7V94.4z M784.1,87.1h7v7h-7V87.1z
	 M791.4,94.4h7v7h-7V94.4z M798.7,87.1h7v7h-7V87.1z M805.9,94.4h7v7h-7V94.4z M813.2,87.1h7v7h-7V87.1z M820.4,94.4h7v7h-7V94.4z
	 M827.7,87.1h7v7h-7V87.1z M834.9,94.4h7v7h-7V94.4z M842.2,87.1h7v7h-7V87.1z M849.4,94.4h7v7h-7V94.4z M856.7,87.1h7v7h-7V87.1z
	 M864,94.4h7v7h-7V94.4z M36.3,0h7v7h-7V0z M36.3,14.5h7v7h-7V14.5z M36.3,79.9h7v7h-7V79.9z M43.6,0h7v7h-7V0z M43.6,7.2h7v7h-7
	V7.2z M43.6,79.9h7v7h-7V79.9z M50.8,0h7v7h-7V0z M50.8,14.5h7v7h-7V14.5z M50.8,79.9h7v7h-7V79.9z M0,188.8h7v7H0V188.8z M0,196h7
	v7H0V196z M0,203.3h7v7H0V203.3z M0,210.6h7v7H0V210.6z M0,217.8h7v7H0V217.8z M0,225.1h7v7H0V225.1z M0,232.3h7v7H0V232.3z
	 M0,239.6h7v7H0V239.6z M0,246.8h7v7H0V246.8z M0,254.1h7v7H0V254.1z M0,261.4h7v7H0V261.4z M0,268.6h7v7H0V268.6z M0,275.9h7v7H0
	V275.9z M0,283.2h7v7H0V283.2z M0,290.4h7v7H0V290.4z M0,297.7h7v7H0V297.7z M0,304.9h7v7H0V304.9z M0,312.2h7v7H0V312.2z
	 M7.3,297.7h7v7h-7V297.7z M7.3,290.4h7v7h-7V290.4z M7.3,304.9h7v7h-7V304.9z M14.5,297.7h7v7h-7V297.7z M21.8,297.7h7v7h-7V297.7z
	 M29.1,297.7h7v7h-7V297.7z M36.3,297.7h7v7h-7V297.7z M43.6,297.7h7v7h-7V297.7z M50.8,297.7h7v7h-7V297.7z M58.1,0h7v7h-7V0z
	 M58.1,7.2h7v7h-7V7.2z M58.1,79.9h7v7h-7V79.9z M65.4,0h7v7h-7V0z M65.4,14.5h7v7h-7V14.5z M72.6,7.2h7v7h-7V7.2z M79.9,14.5h7v7
	h-7V14.5z M87.1,7.2h7v7h-7V7.2z M94.4,14.5h7v7h-7V14.5z M101.7,7.2h7v7h-7V7.2z M109,14.5h7v7h-7V14.5z M116.2,7.2h7v7h-7V7.2z
	 M123.5,14.5h7v7h-7V14.5z M130.7,7.2h7v7h-7V7.2z M138,14.5h7v7h-7V14.5z M145.2,7.2h7v7h-7V7.2z M152.5,14.5h7v7h-7V14.5z
	 M159.7,7.2h7v7h-7V7.2z M167,14.5h7v7h-7V14.5z M174.3,7.2h7v7h-7V7.2z M181.6,14.5h7v7h-7V14.5z M188.8,7.2h7v7h-7V7.2z
	 M196.1,14.5h7v7h-7V14.5z M203.3,7.2h7v7h-7V7.2z M210.6,14.5h7v7h-7V14.5z M217.8,7.2h7v7h-7V7.2z M225.1,14.5h7v7h-7V14.5z
	 M232.3,7.2h7v7h-7V7.2z M239.6,14.5h7v7h-7V14.5z M246.9,7.2h7v7h-7V7.2z M254.2,14.5h7v7h-7V14.5z M261.4,7.2h7v7h-7V7.2z
	 M268.7,14.5h7v7h-7V14.5z M275.9,7.2h7v7h-7V7.2z M283.2,14.5h7v7h-7V14.5z M290.4,7.2h7v7h-7V7.2z M297.7,14.5h7v7h-7V14.5z
	 M304.9,7.2h7v7h-7V7.2z M312.2,14.5h7v7h-7V14.5z M319.5,7.2h7v7h-7V7.2z M326.8,14.5h7v7h-7V14.5z M334,7.2h7v7h-7V7.2z
	 M341.3,14.5h7v7h-7V14.5z M348.5,7.2h7v7h-7V7.2z M355.8,14.5h7v7h-7V14.5z M363,7.2h7v7h-7V7.2z M370.3,14.5h7v7h-7V14.5z
	 M377.5,7.2h7v7h-7V7.2z M384.8,14.5h7v7h-7V14.5z M392.1,7.2h7v7h-7V7.2z M399.4,14.5h7v7h-7V14.5z M406.6,7.2h7v7h-7V7.2z
	 M413.9,14.5h7v7h-7V14.5z M421.1,7.2h7v7h-7V7.2z M428.4,14.5h7v7h-7V14.5z M435.6,7.2h7v7h-7V7.2z M442.9,14.5h7v7h-7V14.5z
	 M450.1,7.2h7v7h-7V7.2z M457.4,14.5h7v7h-7V14.5z M464.7,7.2h7v7h-7V7.2z M472,14.5h7v7h-7V14.5z M479.2,7.2h7v7h-7V7.2z
	 M486.5,14.5h7v7h-7V14.5z M493.7,7.2h7v7h-7V7.2z M501,14.5h7v7h-7V14.5z M508.2,7.2h7v7h-7V7.2z M515.5,14.5h7v7h-7V14.5z
	 M522.7,7.2h7v7h-7V7.2z M530,14.5h7v7h-7V14.5z M537.3,7.2h7v7h-7V7.2z M544.6,14.5h7v7h-7V14.5z M551.8,7.2h7v7h-7V7.2z
	 M559.1,14.5h7v7h-7V14.5z M566.3,7.2h7v7h-7V7.2z M573.6,14.5h7v7h-7V14.5z M580.8,7.2h7v7h-7V7.2z M588.1,14.5h7v7h-7V14.5z
	 M595.3,7.2h7v7h-7V7.2z M602.6,14.5h7v7h-7V14.5z M609.9,7.2h7v7h-7V7.2z M617.2,14.5h7v7h-7V14.5z M624.4,7.2h7v7h-7V7.2z
	 M631.7,14.5h7v7h-7V14.5z M638.9,7.2h7v7h-7V7.2z M646.2,14.5h7v7h-7V14.5z M653.4,7.2h7v7h-7V7.2z M660.7,14.5h7v7h-7V14.5z
	 M667.9,7.2h7v7h-7V7.2z M675.2,14.5h7v7h-7V14.5z M682.5,7.2h7v7h-7V7.2z M689.8,14.5h7v7h-7V14.5z M697,7.2h7v7h-7V7.2z
	 M704.3,14.5h7v7h-7V14.5z M711.5,7.2h7v7h-7V7.2z M718.8,14.5h7v7h-7V14.5z M726,7.2h7v7h-7V7.2z M733.3,14.5h7v7h-7V14.5z
	 M740.5,7.2h7v7h-7V7.2z M747.8,14.5h7v7h-7V14.5z M755.1,7.2h7v7h-7V7.2z M762.4,14.5h7v7h-7V14.5z M769.6,7.2h7v7h-7V7.2z
	 M776.9,14.5h7v7h-7V14.5z M784.1,7.2h7v7h-7V7.2z M791.4,14.5h7v7h-7V14.5z M798.6,7.2h7v7h-7V7.2z M805.9,14.5h7v7h-7V14.5z
	 M813.1,7.2h7v7h-7V7.2z M820.4,14.5h7v7h-7V14.5z M827.7,7.2h7v7h-7V7.2z M835,14.5h7v7h-7V14.5z M842.2,7.2h7v7h-7V7.2z
	 M849.5,14.5h7v7h-7V14.5z M65.4,79.9h7v7h-7V79.9z M72.6,0h7v7h-7V0z M72.6,79.9h7v7h-7V79.9z M79.9,0h7v7h-7V0z M79.9,79.9h7v7h-7
	V79.9z M87.1,0h7v7h-7V0z M87.1,79.9h7v7h-7V79.9z M94.4,0h7v7h-7V0z M94.4,79.9h7v7h-7V79.9z M101.7,0h7v7h-7V0z M101.7,79.9h7v7
	h-7V79.9z M108.9,0h7v7h-7V0z M108.9,79.9h7v7h-7V79.9z M116.2,0h7v7h-7V0z M116.2,79.9h7v7h-7V79.9z M123.4,0h7v7h-7V0z
	 M123.4,79.9h7v7h-7V79.9z M58.1,297.7h7v7h-7V297.7z M65.4,297.7h7v7h-7V297.7z M72.6,297.7h7v7h-7V297.7z M79.9,297.7h7v7h-7
	V297.7z M87.1,297.7h7v7h-7V297.7z M94.4,297.7h7v7h-7V297.7z M101.7,297.7h7v7h-7V297.7z M108.9,297.7h7v7h-7V297.7z M116.2,297.7
	h7v7h-7V297.7z M123.4,297.7h7v7h-7V297.7z M130.7,0h7v7h-7V0z M130.7,79.9h7v7h-7V79.9z M138,0h7v7h-7V0z M138,79.9h7v7h-7V79.9z
	 M145.2,0h7v7h-7V0z M145.2,79.9h7v7h-7V79.9z M152.5,0h7v7h-7V0z M152.5,79.9h7v7h-7V79.9z M159.7,0h7v7h-7V0z M159.7,79.9h7v7h-7
	V79.9z M167,0h7v7h-7V0z M167,79.9h7v7h-7V79.9z M174.3,0h7v7h-7V0z M174.3,79.9h7v7h-7V79.9z M181.5,0h7v7h-7V0z M181.5,79.9h7v7
	h-7V79.9z M188.8,0h7v7h-7V0z M188.8,79.9h7v7h-7V79.9z M196,0h7v7h-7V0z M196,79.9h7v7h-7V79.9z M130.7,297.7h7v7h-7V297.7z
	 M138,297.7h7v7h-7V297.7z M145.2,297.7h7v7h-7V297.7z M152.5,297.7h7v7h-7V297.7z M159.7,297.7h7v7h-7V297.7z M167,297.7h7v7h-7
	V297.7z M174.3,297.7h7v7h-7V297.7z M181.5,297.7h7v7h-7V297.7z M188.8,297.7h7v7h-7V297.7z M196,297.7h7v7h-7V297.7z M203.3,0h7v7
	h-7V0z M203.3,79.9h7v7h-7V79.9z M210.6,0h7v7h-7V0z M210.6,79.9h7v7h-7V79.9z M217.8,0h7v7h-7V0z M217.8,79.9h7v7h-7V79.9z
	 M225.1,0h7v7h-7V0z M225.1,79.9h7v7h-7V79.9z M232.3,0h7v7h-7V0z M232.3,79.9h7v7h-7V79.9z M239.6,0h7v7h-7V0z M239.6,79.9h7v7h-7
	V79.9z M246.9,0h7v7h-7V0z M246.9,79.9h7v7h-7V79.9z M254.1,0h7v7h-7V0z M254.1,79.9h7v7h-7V79.9z M261.4,0h7v7h-7V0z M261.4,79.9h7
	v7h-7V79.9z M268.6,0h7v7h-7V0z M268.6,79.9h7v7h-7V79.9z M203.3,297.7h7v7h-7V297.7z M210.6,297.7h7v7h-7V297.7z M217.8,297.7h7v7
	h-7V297.7z M225.1,297.7h7v7h-7V297.7z M232.3,297.7h7v7h-7V297.7z M239.6,297.7h7v7h-7V297.7z M246.9,297.7h7v7h-7V297.7z
	 M254.1,297.7h7v7h-7V297.7z M261.4,297.7h7v7h-7V297.7z M268.6,297.7h7v7h-7V297.7z M275.9,0h7v7h-7V0z M275.9,79.9h7v7h-7V79.9z
	 M283.2,0h7v7h-7V0z M283.2,79.9h7v7h-7V79.9z M290.4,0h7v7h-7V0z M290.4,79.9h7v7h-7V79.9z M297.7,0h7v7h-7V0z M297.7,79.9h7v7h-7
	V79.9z M304.9,0h7v7h-7V0z M304.9,79.9h7v7h-7V79.9z M312.2,0h7v7h-7V0z M312.2,79.9h7v7h-7V79.9z M319.5,0h7v7h-7V0z M319.5,79.9h7
	v7h-7V79.9z M326.7,0h7v7h-7V0z M326.7,79.9h7v7h-7V79.9z M334,0h7v7h-7V0z M334,79.9h7v7h-7V79.9z M341.2,0h7v7h-7V0z M341.2,79.9
	h7v7h-7V79.9z M275.9,297.7h7v7h-7V297.7z M283.2,297.7h7v7h-7V297.7z M290.4,297.7h7v7h-7V297.7z M297.7,297.7h7v7h-7V297.7z
	 M304.9,297.7h7v7h-7V297.7z M312.2,297.7h7v7h-7V297.7z M319.5,297.7h7v7h-7V297.7z M326.7,297.7h7v7h-7V297.7z M334,297.7h7v7h-7
	V297.7z M341.2,297.7h7v7h-7V297.7z M348.5,0h7v7h-7V0z M348.5,79.9h7v7h-7V79.9z M355.8,0h7v7h-7V0z M355.8,79.9h7v7h-7V79.9z
	 M363,0h7v7h-7V0z M363,79.9h7v7h-7V79.9z M370.3,0h7v7h-7V0z M370.3,79.9h7v7h-7V79.9z M377.5,0h7v7h-7V0z M377.5,79.9h7v7h-7V79.9
	z M384.8,0h7v7h-7V0z M384.8,79.9h7v7h-7V79.9z M392.1,0h7v7h-7V0z M392.1,79.9h7v7h-7V79.9z M399.3,0h7v7h-7V0z M399.3,79.9h7v7h-7
	V79.9z M406.6,0h7v7h-7V0z M406.6,79.9h7v7h-7V79.9z M413.8,0h7v7h-7V0z M413.8,79.9h7v7h-7V79.9z M348.5,297.7h7v7h-7V297.7z
	 M355.8,297.7h7v7h-7V297.7z M363,297.7h7v7h-7V297.7z M370.3,297.7h7v7h-7V297.7z M377.5,297.7h7v7h-7V297.7z M384.8,297.7h7v7h-7
	V297.7z M392.1,297.7h7v7h-7V297.7z M399.3,297.7h7v7h-7V297.7z M406.6,297.7h7v7h-7V297.7z M413.8,297.7h7v7h-7V297.7z M421.1,0h7
	v7h-7V0z M421.1,79.9h7v7h-7V79.9z M428.4,0h7v7h-7V0z M428.4,79.9h7v7h-7V79.9z M435.6,0h7v7h-7V0z M435.6,79.9h7v7h-7V79.9z
	 M442.9,0h7v7h-7V0z M442.9,79.9h7v7h-7V79.9z M450.1,0h7v7h-7V0z M450.1,79.9h7v7h-7V79.9z M457.4,0h7v7h-7V0z M457.4,79.9h7v7h-7
	V79.9z M464.7,0h7v7h-7V0z M464.7,79.9h7v7h-7V79.9z M471.9,0h7v7h-7V0z M471.9,79.9h7v7h-7V79.9z M479.2,0h7v7h-7V0z M479.2,79.9h7
	v7h-7V79.9z M486.4,0h7v7h-7V0z M486.4,79.9h7v7h-7V79.9z M421.1,297.7h7v7h-7V297.7z M428.4,297.7h7v7h-7V297.7z M435.6,297.7h7v7
	h-7V297.7z M442.9,297.7h7v7h-7V297.7z M450.1,297.7h7v7h-7V297.7z M457.4,297.7h7v7h-7V297.7z M464.7,297.7h7v7h-7V297.7z
	 M471.9,297.7h7v7h-7V297.7z M479.2,297.7h7v7h-7V297.7z M486.4,297.7h7v7h-7V297.7z M493.7,0h7v7h-7V0z M493.7,79.9h7v7h-7V79.9z
	 M501,0h7v7h-7V0z M501,79.9h7v7h-7V79.9z M508.2,0h7v7h-7V0z M508.2,79.9h7v7h-7V79.9z M515.5,0h7v7h-7V0z M515.5,79.9h7v7h-7V79.9
	z M522.7,0h7v7h-7V0z M522.7,79.9h7v7h-7V79.9z M530,0h7v7h-7V0z M530,79.9h7v7h-7V79.9z M537.3,0h7v7h-7V0z M537.3,79.9h7v7h-7
	V79.9z M544.5,0h7v7h-7V0z M544.5,79.9h7v7h-7V79.9z M551.8,0h7v7h-7V0z M551.8,79.9h7v7h-7V79.9z M559,0h7v7h-7V0z M559,79.9h7v7
	h-7V79.9z M493.7,297.7h7v7h-7V297.7z M501,297.7h7v7h-7V297.7z M508.2,297.7h7v7h-7V297.7z M515.5,297.7h7v7h-7V297.7z
	 M522.7,297.7h7v7h-7V297.7z M530,297.7h7v7h-7V297.7z M537.3,297.7h7v7h-7V297.7z M544.5,297.7h7v7h-7V297.7z M551.8,297.7h7v7h-7
	V297.7z M559,297.7h7v7h-7V297.7z M566.3,0h7v7h-7V0z M566.3,79.9h7v7h-7V79.9z M573.6,0h7v7h-7V0z M573.6,79.9h7v7h-7V79.9z
	 M580.8,0h7v7h-7V0z M580.8,79.9h7v7h-7V79.9z M588.1,0h7v7h-7V0z M588.1,79.9h7v7h-7V79.9z M595.3,0h7v7h-7V0z M595.3,79.9h7v7h-7
	V79.9z M602.6,0h7v7h-7V0z M602.6,79.9h7v7h-7V79.9z M609.9,0h7v7h-7V0z M609.9,79.9h7v7h-7V79.9z M617.1,0h7v7h-7V0z M617.1,79.9h7
	v7h-7V79.9z M624.4,0h7v7h-7V0z M624.4,79.9h7v7h-7V79.9z M631.6,0h7v7h-7V0z M631.6,79.9h7v7h-7V79.9z M566.3,297.7h7v7h-7V297.7z
	 M573.6,297.7h7v7h-7V297.7z M580.8,297.7h7v7h-7V297.7z M588.1,297.7h7v7h-7V297.7z M595.3,297.7h7v7h-7V297.7z M602.6,297.7h7v7
	h-7V297.7z M609.9,297.7h7v7h-7V297.7z M617.1,297.7h7v7h-7V297.7z M624.4,297.7h7v7h-7V297.7z M631.6,297.7h7v7h-7V297.7z M638.9,0
	h7v7h-7V0z M638.9,79.9h7v7h-7V79.9z M646.2,0h7v7h-7V0z M646.2,79.9h7v7h-7V79.9z M653.4,0h7v7h-7V0z M653.4,79.9h7v7h-7V79.9z
	 M660.7,0h7v7h-7V0z M660.7,79.9h7v7h-7V79.9z M667.9,0h7v7h-7V0z M667.9,79.9h7v7h-7V79.9z M675.2,0h7v7h-7V0z M675.2,79.9h7v7h-7
	V79.9z M682.5,0h7v7h-7V0z M682.5,79.9h7v7h-7V79.9z M689.7,0h7v7h-7V0z M689.7,79.9h7v7h-7V79.9z M697,0h7v7h-7V0z M697,79.9h7v7
	h-7V79.9z M704.2,0h7v7h-7V0z M704.2,79.9h7v7h-7V79.9z M638.9,297.7h7v7h-7V297.7z M646.2,297.7h7v7h-7V297.7z M653.4,297.7h7v7h-7
	V297.7z M660.7,297.7h7v7h-7V297.7z M667.9,297.7h7v7h-7V297.7z M675.2,297.7h7v7h-7V297.7z M682.5,297.7h7v7h-7V297.7z
	 M689.7,297.7h7v7h-7V297.7z M697,297.7h7v7h-7V297.7z M704.2,297.7h7v7h-7V297.7z M711.5,0h7v7h-7V0z M711.5,79.9h7v7h-7V79.9z
	 M718.8,0h7v7h-7V0z M718.8,79.9h7v7h-7V79.9z M726,0h7v7h-7V0z M726,79.9h7v7h-7V79.9z M733.3,0h7v7h-7V0z M733.3,79.9h7v7h-7V79.9
	z M740.5,0h7v7h-7V0z M740.5,79.9h7v7h-7V79.9z M747.8,0h7v7h-7V0z M747.8,79.9h7v7h-7V79.9z M755.1,0h7v7h-7V0z M755.1,79.9h7v7h-7
	V79.9z M762.3,0h7v7h-7V0z M762.3,79.9h7v7h-7V79.9z M769.6,0h7v7h-7V0z M769.6,79.9h7v7h-7V79.9z M776.8,0h7v7h-7V0z M776.8,79.9h7
	v7h-7V79.9z M711.5,297.7h7v7h-7V297.7z M718.8,297.7h7v7h-7V297.7z M726,297.7h7v7h-7V297.7z M733.3,297.7h7v7h-7V297.7z
	 M740.5,297.7h7v7h-7V297.7z M747.8,297.7h7v7h-7V297.7z M755.1,297.7h7v7h-7V297.7z M762.3,297.7h7v7h-7V297.7z M769.6,297.7h7v7
	h-7V297.7z M776.8,297.7h7v7h-7V297.7z M784.1,0h7v7h-7V0z M784.1,79.9h7v7h-7V79.9z M791.4,0h7v7h-7V0z M791.4,79.9h7v7h-7V79.9z
	 M798.6,0h7v7h-7V0z M798.6,79.9h7v7h-7V79.9z M805.9,0h7v7h-7V0z M805.9,79.9h7v7h-7V79.9z M813.1,0h7v7h-7V0z M813.1,79.9h7v7h-7
	V79.9z M820.4,0h7v7h-7V0z M820.4,79.9h7v7h-7V79.9z M827.7,0h7v7h-7V0z M827.7,79.9h7v7h-7V79.9z M834.9,0h7v7h-7V0z M834.9,79.9h7
	v7h-7V79.9z M842.2,0h7v7h-7V0z M842.2,79.9h7v7h-7V79.9z M849.4,0h7v7h-7V0z M849.4,7.2h7v7h-7V7.2z M849.4,72.6h7v7h-7V72.6z
	 M849.4,79.9h7v7h-7V79.9z M784.1,297.7h7v7h-7V297.7z M791.4,297.7h7v7h-7V297.7z M798.6,297.7h7v7h-7V297.7z M805.9,297.7h7v7h-7
	V297.7z M813.1,297.7h7v7h-7V297.7z M820.4,297.7h7v7h-7V297.7z M827.7,297.7h7v7h-7V297.7z M834.9,297.7h7v7h-7V297.7z
	 M842.2,297.7h7v7h-7V297.7z M849.4,297.7h7v7h-7V297.7z M849.4,290.4h7v7h-7V290.4z M856.7,7.2h7v7h-7V7.2z M856.7,14.5h7v7h-7
	V14.5z M856.7,21.8h7v7h-7V21.8z M856.7,29h7v7h-7V29z M856.7,36.3h7v7h-7V36.3z M856.7,43.6h7v7h-7V43.6z M856.7,50.8h7v7h-7V50.8z
	 M856.7,58.1h7v7h-7V58.1z M856.7,65.3h7v7h-7V65.3z M856.7,72.6h7v7h-7V72.6z M856.7,79.9h7v7h-7V79.9z M856.7,87.1h7v7h-7V87.1z
	 M856.7,94.4h7v7h-7V94.4z M856.7,101.6h7v7h-7V101.6z M856.7,108.9h7v7h-7V108.9z M856.7,116.1h7v7h-7V116.1z M856.7,123.4h7v7h-7
	V123.4z M856.7,130.7h7v7h-7V130.7z M856.7,137.9h7v7h-7V137.9z M856.7,145.2h7v7h-7V145.2z M856.7,152.4h7v7h-7V152.4z
	 M856.7,159.7h7v7h-7V159.7z M856.7,167h7v7h-7V167z M856.7,174.2h7v7h-7V174.2z M856.7,181.5h7v7h-7V181.5z M864,14.5h7v7h-7V14.5z
	 M864,21.8h7v7h-7V21.8z M864,29h7v7h-7V29z M864,36.3h7v7h-7V36.3z M864,43.6h7v7h-7V43.6z M864,50.8h7v7h-7V50.8z M864,58.1h7v7
	h-7V58.1z M864,65.3h7v7h-7V65.3z M864,72.6h7v7h-7V72.6z M864,79.9h7v7h-7V79.9z M864,87.1h7v7h-7V87.1z M864,101.6h7v7h-7V101.6z
	 M864,108.9h7v7h-7V108.9z M864,116.1h7v7h-7V116.1z M864,123.4h7v7h-7V123.4z M864,130.7h7v7h-7V130.7z M864,137.9h7v7h-7V137.9z
	 M864,145.2h7v7h-7V145.2z M864,152.4h7v7h-7V152.4z M864,159.7h7v7h-7V159.7z M864,167h7v7h-7V167z M864,174.2h7v7h-7V174.2z
	 M864,181.5h7v7h-7V181.5z M856.7,188.8h7v7h-7V188.8z M856.7,196h7v7h-7V196z M856.7,203.3h7v7h-7V203.3z M856.7,210.6h7v7h-7
	V210.6z M856.7,217.8h7v7h-7V217.8z M856.7,225.1h7v7h-7V225.1z M856.7,232.3h7v7h-7V232.3z M856.7,239.6h7v7h-7V239.6z
	 M856.7,246.8h7v7h-7V246.8z M856.7,254.1h7v7h-7V254.1z M864,188.8h7v7h-7V188.8z M864,196h7v7h-7V196z M864,203.3h7v7h-7V203.3z
	 M864,210.6h7v7h-7V210.6z M864,217.8h7v7h-7V217.8z M864,225.1h7v7h-7V225.1z M864,232.3h7v7h-7V232.3z M864,239.6h7v7h-7V239.6z
	 M864,246.8h7v7h-7V246.8z M864,254.1h7v7h-7V254.1z M856.7,261.4h7v7h-7V261.4z M856.7,268.6h7v7h-7V268.6z M856.7,275.9h7v7h-7
	V275.9z M856.7,283.2h7v7h-7V283.2z M856.7,290.4h7v7h-7V290.4z M856.7,297.7h7v7h-7V297.7z M856.7,304.9h7v7h-7V304.9z M864,261.4
	h7v7h-7V261.4z M864,268.6h7v7h-7V268.6z M864,275.9h7v7h-7V275.9z M864,283.2h7v7h-7V283.2z M864,290.4h7v7h-7V290.4z M864,297.7h7
	v7h-7V297.7z M864,304.9h7v7h-7V304.9z M864,312.2h7v7h-7V312.2z M849.5,87.1h7v7h-7V87.1z M0,319.5h7v7H0V319.5z M0,326.8h7v7H0
	V326.8z M0,334h7v7H0V334z M0,341.3h7v7H0V341.3z M0,348.6h7v7H0V348.6z M0,355.8h7v7H0V355.8z M0,363.1h7v7H0V363.1z M0,370.3h7v7
	H0V370.3z M0,377.6h7v7H0V377.6z M7.3,312.2h7v7h-7V312.2z M7.3,319.5h7v7h-7V319.5z M7.3,377.6h7v7h-7V377.6z M7.3,384.9h7v7h-7
	V384.9z M14.5,305h7v7h-7V305z M14.5,312.2h7v7h-7V312.2z M14.5,384.9h7v7h-7V384.9z M21.8,305h7v7h-7V305z M21.8,319.5h7v7h-7
	V319.5z M21.8,384.9h7v7h-7V384.9z M29.1,305h7v7h-7V305z M29.1,312.2h7v7h-7V312.2z M29.1,384.9h7v7h-7V384.9z M36.3,305h7v7h-7
	V305z M36.3,319.5h7v7h-7V319.5z M36.3,384.9h7v7h-7V384.9z M43.6,305h7v7h-7V305z M43.6,312.2h7v7h-7V312.2z M43.6,384.9h7v7h-7
	V384.9z M50.8,305h7v7h-7V305z M50.8,319.5h7v7h-7V319.5z M50.8,384.9h7v7h-7V384.9z M58.1,305h7v7h-7V305z M58.1,312.2h7v7h-7
	V312.2z M58.1,384.9h7v7h-7V384.9z M65.4,305h7v7h-7V305z M65.4,319.5h7v7h-7V319.5z M72.6,312.2h7v7h-7V312.2z M79.9,319.5h7v7h-7
	V319.5z M87.1,312.2h7v7h-7V312.2z M94.4,319.5h7v7h-7V319.5z M101.7,312.2h7v7h-7V312.2z M109,319.5h7v7h-7V319.5z M116.2,312.2h7
	v7h-7V312.2z M123.5,319.5h7v7h-7V319.5z M130.7,312.2h7v7h-7V312.2z M138,319.5h7v7h-7V319.5z M145.2,312.2h7v7h-7V312.2z
	 M152.5,319.5h7v7h-7V319.5z M159.7,312.2h7v7h-7V312.2z M167,319.5h7v7h-7V319.5z M174.3,312.2h7v7h-7V312.2z M181.6,319.5h7v7h-7
	V319.5z M188.8,312.2h7v7h-7V312.2z M196.1,319.5h7v7h-7V319.5z M203.3,312.2h7v7h-7V312.2z M210.6,319.5h7v7h-7V319.5z
	 M217.8,312.2h7v7h-7V312.2z M225.1,319.5h7v7h-7V319.5z M232.3,312.2h7v7h-7V312.2z M239.6,319.5h7v7h-7V319.5z M246.9,312.2h7v7
	h-7V312.2z M254.2,319.5h7v7h-7V319.5z M261.4,312.2h7v7h-7V312.2z M268.7,319.5h7v7h-7V319.5z M275.9,312.2h7v7h-7V312.2z
	 M283.2,319.5h7v7h-7V319.5z M290.4,312.2h7v7h-7V312.2z M297.7,319.5h7v7h-7V319.5z M304.9,312.2h7v7h-7V312.2z M312.2,319.5h7v7
	h-7V319.5z M319.5,312.2h7v7h-7V312.2z M326.8,319.5h7v7h-7V319.5z M334,312.2h7v7h-7V312.2z M341.3,319.5h7v7h-7V319.5z
	 M348.5,312.2h7v7h-7V312.2z M355.8,319.5h7v7h-7V319.5z M363,312.2h7v7h-7V312.2z M370.3,319.5h7v7h-7V319.5z M377.5,312.2h7v7h-7
	V312.2z M384.8,319.5h7v7h-7V319.5z M392.1,312.2h7v7h-7V312.2z M399.4,319.5h7v7h-7V319.5z M406.6,312.2h7v7h-7V312.2z
	 M413.9,319.5h7v7h-7V319.5z M421.1,312.2h7v7h-7V312.2z M428.4,319.5h7v7h-7V319.5z M435.6,312.2h7v7h-7V312.2z M442.9,319.5h7v7
	h-7V319.5z M450.1,312.2h7v7h-7V312.2z M457.4,319.5h7v7h-7V319.5z M464.7,312.2h7v7h-7V312.2z M472,319.5h7v7h-7V319.5z
	 M479.2,312.2h7v7h-7V312.2z M486.5,319.5h7v7h-7V319.5z M493.7,312.2h7v7h-7V312.2z M501,319.5h7v7h-7V319.5z M508.2,312.2h7v7h-7
	V312.2z M515.5,319.5h7v7h-7V319.5z M522.7,312.2h7v7h-7V312.2z M530,319.5h7v7h-7V319.5z M537.3,312.2h7v7h-7V312.2z M544.6,319.5
	h7v7h-7V319.5z M551.8,312.2h7v7h-7V312.2z M559.1,319.5h7v7h-7V319.5z M566.3,312.2h7v7h-7V312.2z M573.6,319.5h7v7h-7V319.5z
	 M580.8,312.2h7v7h-7V312.2z M588.1,319.5h7v7h-7V319.5z M595.3,312.2h7v7h-7V312.2z M602.6,319.5h7v7h-7V319.5z M609.9,312.2h7v7
	h-7V312.2z M617.2,319.5h7v7h-7V319.5z M624.4,312.2h7v7h-7V312.2z M631.7,319.5h7v7h-7V319.5z M638.9,312.2h7v7h-7V312.2z
	 M646.2,319.5h7v7h-7V319.5z M653.4,312.2h7v7h-7V312.2z M660.7,319.5h7v7h-7V319.5z M667.9,312.2h7v7h-7V312.2z M675.2,319.5h7v7
	h-7V319.5z M682.5,312.2h7v7h-7V312.2z M689.8,319.5h7v7h-7V319.5z M697,312.2h7v7h-7V312.2z M704.3,319.5h7v7h-7V319.5z
	 M711.5,312.2h7v7h-7V312.2z M718.8,319.5h7v7h-7V319.5z M726,312.2h7v7h-7V312.2z M733.3,319.5h7v7h-7V319.5z M740.5,312.2h7v7h-7
	V312.2z M747.8,319.5h7v7h-7V319.5z M755.1,312.2h7v7h-7V312.2z M762.4,319.5h7v7h-7V319.5z M769.6,312.2h7v7h-7V312.2z
	 M776.9,319.5h7v7h-7V319.5z M784.1,312.2h7v7h-7V312.2z M791.4,319.5h7v7h-7V319.5z M798.6,312.2h7v7h-7V312.2z M805.9,319.5h7v7
	h-7V319.5z M813.1,312.2h7v7h-7V312.2z M820.4,319.5h7v7h-7V319.5z M827.7,312.2h7v7h-7V312.2z M835,319.5h7v7h-7V319.5z
	 M842.2,312.2h7v7h-7V312.2z M849.5,319.5h7v7h-7V319.5z M65.4,384.9h7v7h-7V384.9z M72.6,305h7v7h-7V305z M72.6,384.9h7v7h-7V384.9
	z M79.9,305h7v7h-7V305z M79.9,384.9h7v7h-7V384.9z M87.1,305h7v7h-7V305z M87.1,384.9h7v7h-7V384.9z M94.4,305h7v7h-7V305z
	 M94.4,384.9h7v7h-7V384.9z M101.7,305h7v7h-7V305z M101.7,384.9h7v7h-7V384.9z M108.9,305h7v7h-7V305z M108.9,384.9h7v7h-7V384.9z
	 M116.2,305h7v7h-7V305z M116.2,384.9h7v7h-7V384.9z M123.4,305h7v7h-7V305z M123.4,384.9h7v7h-7V384.9z M130.7,305h7v7h-7V305z
	 M130.7,384.9h7v7h-7V384.9z M138,305h7v7h-7V305z M138,384.9h7v7h-7V384.9z M145.2,305h7v7h-7V305z M145.2,384.9h7v7h-7V384.9z
	 M152.5,305h7v7h-7V305z M152.5,384.9h7v7h-7V384.9z M159.7,305h7v7h-7V305z M159.7,384.9h7v7h-7V384.9z M167,305h7v7h-7V305z
	 M167,384.9h7v7h-7V384.9z M174.3,305h7v7h-7V305z M174.3,384.9h7v7h-7V384.9z M181.5,305h7v7h-7V305z M181.5,384.9h7v7h-7V384.9z
	 M188.8,305h7v7h-7V305z M188.8,384.9h7v7h-7V384.9z M196,305h7v7h-7V305z M196,384.9h7v7h-7V384.9z M203.3,305h7v7h-7V305z
	 M203.3,384.9h7v7h-7V384.9z M210.6,305h7v7h-7V305z M210.6,384.9h7v7h-7V384.9z M217.8,305h7v7h-7V305z M217.8,384.9h7v7h-7V384.9z
	 M225.1,305h7v7h-7V305z M225.1,384.9h7v7h-7V384.9z M232.3,305h7v7h-7V305z M232.3,384.9h7v7h-7V384.9z M239.6,305h7v7h-7V305z
	 M239.6,384.9h7v7h-7V384.9z M246.9,305h7v7h-7V305z M246.9,384.9h7v7h-7V384.9z M254.1,305h7v7h-7V305z M254.1,384.9h7v7h-7V384.9z
	 M261.4,305h7v7h-7V305z M261.4,384.9h7v7h-7V384.9z M268.6,305h7v7h-7V305z M268.6,384.9h7v7h-7V384.9z M275.9,305h7v7h-7V305z
	 M275.9,384.9h7v7h-7V384.9z M283.2,305h7v7h-7V305z M283.2,384.9h7v7h-7V384.9z M290.4,305h7v7h-7V305z M290.4,384.9h7v7h-7V384.9z
	 M297.7,305h7v7h-7V305z M297.7,384.9h7v7h-7V384.9z M304.9,305h7v7h-7V305z M304.9,384.9h7v7h-7V384.9z M312.2,305h7v7h-7V305z
	 M312.2,384.9h7v7h-7V384.9z M319.5,305h7v7h-7V305z M319.5,384.9h7v7h-7V384.9z M326.7,305h7v7h-7V305z M326.7,384.9h7v7h-7V384.9z
	 M334,305h7v7h-7V305z M334,384.9h7v7h-7V384.9z M341.2,305h7v7h-7V305z M341.2,384.9h7v7h-7V384.9z M348.5,305h7v7h-7V305z
	 M348.5,384.9h7v7h-7V384.9z M355.8,305h7v7h-7V305z M355.8,384.9h7v7h-7V384.9z M363,305h7v7h-7V305z M363,384.9h7v7h-7V384.9z
	 M370.3,305h7v7h-7V305z M370.3,384.9h7v7h-7V384.9z M377.5,305h7v7h-7V305z M377.5,384.9h7v7h-7V384.9z M384.8,305h7v7h-7V305z
	 M384.8,384.9h7v7h-7V384.9z M392.1,305h7v7h-7V305z M392.1,384.9h7v7h-7V384.9z M399.3,305h7v7h-7V305z M399.3,384.9h7v7h-7V384.9z
	 M406.6,305h7v7h-7V305z M406.6,384.9h7v7h-7V384.9z M413.8,305h7v7h-7V305z M413.8,384.9h7v7h-7V384.9z M421.1,305h7v7h-7V305z
	 M421.1,384.9h7v7h-7V384.9z M428.4,305h7v7h-7V305z M428.4,384.9h7v7h-7V384.9z M435.6,305h7v7h-7V305z M435.6,384.9h7v7h-7V384.9z
	 M442.9,305h7v7h-7V305z M442.9,384.9h7v7h-7V384.9z M450.1,305h7v7h-7V305z M450.1,384.9h7v7h-7V384.9z M457.4,305h7v7h-7V305z
	 M457.4,384.9h7v7h-7V384.9z M464.7,305h7v7h-7V305z M464.7,384.9h7v7h-7V384.9z M471.9,305h7v7h-7V305z M471.9,384.9h7v7h-7V384.9z
	 M479.2,305h7v7h-7V305z M479.2,384.9h7v7h-7V384.9z M486.4,305h7v7h-7V305z M486.4,384.9h7v7h-7V384.9z M493.7,305h7v7h-7V305z
	 M493.7,384.9h7v7h-7V384.9z M501,305h7v7h-7V305z M501,384.9h7v7h-7V384.9z M508.2,305h7v7h-7V305z M508.2,384.9h7v7h-7V384.9z
	 M515.5,305h7v7h-7V305z M515.5,384.9h7v7h-7V384.9z M522.7,305h7v7h-7V305z M522.7,384.9h7v7h-7V384.9z M530,305h7v7h-7V305z
	 M530,384.9h7v7h-7V384.9z M537.3,305h7v7h-7V305z M537.3,384.9h7v7h-7V384.9z M544.5,305h7v7h-7V305z M544.5,384.9h7v7h-7V384.9z
	 M551.8,305h7v7h-7V305z M551.8,384.9h7v7h-7V384.9z M559,305h7v7h-7V305z M559,384.9h7v7h-7V384.9z M566.3,305h7v7h-7V305z
	 M566.3,384.9h7v7h-7V384.9z M573.6,305h7v7h-7V305z M573.6,384.9h7v7h-7V384.9z M580.8,305h7v7h-7V305z M580.8,384.9h7v7h-7V384.9z
	 M588.1,305h7v7h-7V305z M588.1,384.9h7v7h-7V384.9z M595.3,305h7v7h-7V305z M595.3,384.9h7v7h-7V384.9z M602.6,305h7v7h-7V305z
	 M602.6,384.9h7v7h-7V384.9z M609.9,305h7v7h-7V305z M609.9,384.9h7v7h-7V384.9z M617.1,305h7v7h-7V305z M617.1,384.9h7v7h-7V384.9z
	 M624.4,305h7v7h-7V305z M624.4,384.9h7v7h-7V384.9z M631.6,305h7v7h-7V305z M631.6,384.9h7v7h-7V384.9z M638.9,305h7v7h-7V305z
	 M638.9,384.9h7v7h-7V384.9z M646.2,305h7v7h-7V305z M646.2,384.9h7v7h-7V384.9z M653.4,305h7v7h-7V305z M653.4,384.9h7v7h-7V384.9z
	 M660.7,305h7v7h-7V305z M660.7,384.9h7v7h-7V384.9z M667.9,305h7v7h-7V305z M667.9,384.9h7v7h-7V384.9z M675.2,305h7v7h-7V305z
	 M675.2,384.9h7v7h-7V384.9z M682.5,305h7v7h-7V305z M682.5,384.9h7v7h-7V384.9z M689.7,305h7v7h-7V305z M689.7,384.9h7v7h-7V384.9z
	 M697,305h7v7h-7V305z M697,384.9h7v7h-7V384.9z M704.2,305h7v7h-7V305z M704.2,384.9h7v7h-7V384.9z M711.5,305h7v7h-7V305z
	 M711.5,384.9h7v7h-7V384.9z M718.8,305h7v7h-7V305z M718.8,384.9h7v7h-7V384.9z M726,305h7v7h-7V305z M726,384.9h7v7h-7V384.9z
	 M733.3,305h7v7h-7V305z M733.3,384.9h7v7h-7V384.9z M740.5,305h7v7h-7V305z M740.5,384.9h7v7h-7V384.9z M747.8,305h7v7h-7V305z
	 M747.8,384.9h7v7h-7V384.9z M755.1,305h7v7h-7V305z M755.1,384.9h7v7h-7V384.9z M762.3,305h7v7h-7V305z M762.3,384.9h7v7h-7V384.9z
	 M769.6,305h7v7h-7V305z M769.6,384.9h7v7h-7V384.9z M776.8,305h7v7h-7V305z M776.8,384.9h7v7h-7V384.9z M784.1,305h7v7h-7V305z
	 M784.1,384.9h7v7h-7V384.9z M791.4,305h7v7h-7V305z M791.4,384.9h7v7h-7V384.9z M798.6,305h7v7h-7V305z M798.6,384.9h7v7h-7V384.9z
	 M805.9,305h7v7h-7V305z M805.9,384.9h7v7h-7V384.9z M813.1,305h7v7h-7V305z M813.1,384.9h7v7h-7V384.9z M820.4,305h7v7h-7V305z
	 M820.4,384.9h7v7h-7V384.9z M827.7,305h7v7h-7V305z M827.7,384.9h7v7h-7V384.9z M834.9,305h7v7h-7V305z M834.9,384.9h7v7h-7V384.9z
	 M842.2,305h7v7h-7V305z M842.2,384.9h7v7h-7V384.9z M849.4,305h7v7h-7V305z M849.4,312.2h7v7h-7V312.2z M849.4,377.6h7v7h-7V377.6z
	 M849.4,384.9h7v7h-7V384.9z M856.7,312.2h7v7h-7V312.2z M856.7,319.5h7v7h-7V319.5z M856.7,326.8h7v7h-7V326.8z M856.7,334h7v7h-7
	V334z M856.7,341.3h7v7h-7V341.3z M856.7,348.6h7v7h-7V348.6z M856.7,355.8h7v7h-7V355.8z M856.7,363.1h7v7h-7V363.1z M856.7,370.3
	h7v7h-7V370.3z M856.7,377.6h7v7h-7V377.6z M856.7,384.9h7v7h-7V384.9z M864,319.5h7v7h-7V319.5z M864,326.8h7v7h-7V326.8z M864,334
	h7v7h-7V334z M864,341.3h7v7h-7V341.3z M864,348.6h7v7h-7V348.6z M864,355.8h7v7h-7V355.8z M864,363.1h7v7h-7V363.1z M864,370.3h7v7
	h-7V370.3z M864,377.6h7v7h-7V377.6z M14.5,392.1h7v7h-7V392.1z M21.8,392.1h7v7h-7V392.1z M29.1,392.1h7v7h-7V392.1z M36.3,392.1h7
	v7h-7V392.1z M43.6,392.1h7v7h-7V392.1z M50.8,392.1h7v7h-7V392.1z M58.1,392.1h7v7h-7V392.1z M65.4,392.1h7v7h-7V392.1z
	 M72.6,392.1h7v7h-7V392.1z M79.9,392.1h7v7h-7V392.1z M87.1,392.1h7v7h-7V392.1z M94.4,392.1h7v7h-7V392.1z M101.7,392.1h7v7h-7
	V392.1z M108.9,392.1h7v7h-7V392.1z M116.2,392.1h7v7h-7V392.1z M123.4,392.1h7v7h-7V392.1z M130.7,392.1h7v7h-7V392.1z M138,392.1
	h7v7h-7V392.1z M145.2,392.1h7v7h-7V392.1z M152.5,392.1h7v7h-7V392.1z M159.7,392.1h7v7h-7V392.1z M167,392.1h7v7h-7V392.1z
	 M174.3,392.1h7v7h-7V392.1z M181.5,392.1h7v7h-7V392.1z M188.8,392.1h7v7h-7V392.1z M196,392.1h7v7h-7V392.1z M203.3,392.1h7v7h-7
	V392.1z M210.6,392.1h7v7h-7V392.1z M217.8,392.1h7v7h-7V392.1z M225.1,392.1h7v7h-7V392.1z M232.3,392.1h7v7h-7V392.1z
	 M239.6,392.1h7v7h-7V392.1z M246.9,392.1h7v7h-7V392.1z M254.1,392.1h7v7h-7V392.1z M261.4,392.1h7v7h-7V392.1z M268.6,392.1h7v7
	h-7V392.1z M275.9,392.1h7v7h-7V392.1z M283.2,392.1h7v7h-7V392.1z M290.4,392.1h7v7h-7V392.1z M297.7,392.1h7v7h-7V392.1z
	 M304.9,392.1h7v7h-7V392.1z M312.2,392.1h7v7h-7V392.1z M319.5,392.1h7v7h-7V392.1z M326.7,392.1h7v7h-7V392.1z M334,392.1h7v7h-7
	V392.1z M341.2,392.1h7v7h-7V392.1z M348.5,392.1h7v7h-7V392.1z M355.8,392.1h7v7h-7V392.1z M363,392.1h7v7h-7V392.1z M370.3,392.1
	h7v7h-7V392.1z M377.5,392.1h7v7h-7V392.1z M384.8,392.1h7v7h-7V392.1z M392.1,392.1h7v7h-7V392.1z M399.3,392.1h7v7h-7V392.1z
	 M406.6,392.1h7v7h-7V392.1z M413.8,392.1h7v7h-7V392.1z M421.1,392.1h7v7h-7V392.1z M428.4,392.1h7v7h-7V392.1z M435.6,392.1h7v7
	h-7V392.1z M442.9,392.1h7v7h-7V392.1z M450.1,392.1h7v7h-7V392.1z M457.4,392.1h7v7h-7V392.1z M464.7,392.1h7v7h-7V392.1z
	 M471.9,392.1h7v7h-7V392.1z M479.2,392.1h7v7h-7V392.1z M486.4,392.1h7v7h-7V392.1z M493.7,392.1h7v7h-7V392.1z M501,392.1h7v7h-7
	V392.1z M508.2,392.1h7v7h-7V392.1z M515.5,392.1h7v7h-7V392.1z M522.7,392.1h7v7h-7V392.1z M530,392.1h7v7h-7V392.1z M537.3,392.1
	h7v7h-7V392.1z M544.5,392.1h7v7h-7V392.1z M551.8,392.1h7v7h-7V392.1z M559,392.1h7v7h-7V392.1z M566.3,392.1h7v7h-7V392.1z
	 M573.6,392.1h7v7h-7V392.1z M580.8,392.1h7v7h-7V392.1z M588.1,392.1h7v7h-7V392.1z M595.3,392.1h7v7h-7V392.1z M602.6,392.1h7v7
	h-7V392.1z M609.9,392.1h7v7h-7V392.1z M617.1,392.1h7v7h-7V392.1z M624.4,392.1h7v7h-7V392.1z M631.6,392.1h7v7h-7V392.1z
	 M638.9,392.1h7v7h-7V392.1z M646.2,392.1h7v7h-7V392.1z M653.4,392.1h7v7h-7V392.1z M660.7,392.1h7v7h-7V392.1z M667.9,392.1h7v7
	h-7V392.1z M675.2,392.1h7v7h-7V392.1z M682.5,392.1h7v7h-7V392.1z M689.7,392.1h7v7h-7V392.1z M697,392.1h7v7h-7V392.1z
	 M704.2,392.1h7v7h-7V392.1z M711.5,392.1h7v7h-7V392.1z M718.8,392.1h7v7h-7V392.1z M726,392.1h7v7h-7V392.1z M733.3,392.1h7v7h-7
	V392.1z M740.5,392.1h7v7h-7V392.1z M747.8,392.1h7v7h-7V392.1z M755.1,392.1h7v7h-7V392.1z M762.3,392.1h7v7h-7V392.1z
	 M769.6,392.1h7v7h-7V392.1z M776.8,392.1h7v7h-7V392.1z M784.1,392.1h7v7h-7V392.1z M791.4,392.1h7v7h-7V392.1z M798.6,392.1h7v7
	h-7V392.1z M805.9,392.1h7v7h-7V392.1z M813.1,392.1h7v7h-7V392.1z M820.4,392.1h7v7h-7V392.1z M827.7,392.1h7v7h-7V392.1z
	 M834.9,392.1h7v7h-7V392.1z M842.2,392.1h7v7h-7V392.1z M849.4,392.1h7v7h-7V392.1z"/>
</svg>
