<?xml version="1.0" encoding="utf-8"?>
<!-- Generator: Adobe Illustrator 27.3.1, SVG Export Plug-In . SVG Version: 6.00 Build 0)  -->
<svg version="1.1" id="Слой_1" xmlns="http://www.w3.org/2000/svg" xmlns:xlink="http://www.w3.org/1999/xlink" x="0px" y="0px"
	 viewBox="0 0 863.7 65" style="enable-background:new 0 0 863.7 65;" xml:space="preserve">
<style type="text/css">
	.st0{fill:#1E0E01;}
</style>
<path class="st0" d="M0,0h7v7H0V0z M0,7.2h7v7H0V7.2z M0,14.5h7v7H0V14.5z M0,21.8h7v7H0V21.8z M0,29h7v7H0V29z M0,36.2h7v7H0V36.2z
	 M0,43.5h7v7H0V43.5z M0,50.7h7v7H0V50.7z M0,58h7v7H0V58z M7.3,0h7v7h-7V0z M7.3,58h7v7h-7V58z M14.5,0h7v7h-7V0z M14.5,58h7v7h-7
	V58z M21.8,0h7v7h-7V0z M21.8,58h7v7h-7V58z M29.1,0h7v7h-7C29.1,7,29.1,0,29.1,0z M29.1,58h7v7h-7C29.1,65,29.1,58,29.1,58z
	 M36.3,0h7v7h-7V0z M36.3,58h7v7h-7V58z M43.6,0h7v7h-7V0z M43.6,58h7v7h-7V58z M50.8,0h7v7h-7V0z M50.8,58h7v7h-7V58z M58.1,0h7v7
	h-7V0z M58.1,58h7v7h-7V58z M65.4,0h7v7h-7V0z M65.4,58h7v7h-7V58z M72.6,0h7v7h-7V0z M72.6,58h7v7h-7V58z M79.9,0h7v7h-7V0z
	 M79.9,58h7v7h-7V58z M87.1,0h7v7h-7V0z M87.1,58h7v7h-7V58z M94.4,0h7v7h-7V0z M94.4,58h7v7h-7V58z M101.7,0h7v7h-7V0z M101.7,58h7
	v7h-7V58z M108.9,0h7v7h-7V0z M108.9,58h7v7h-7V58z M116.2,0h7v7h-7V0z M116.2,58h7v7h-7V58z M123.4,0h7v7h-7
	C123.4,7,123.4,0,123.4,0z M123.4,58h7v7h-7C123.4,65,123.4,58,123.4,58z M130.7,0h7v7h-7V0z M130.7,58h7v7h-7V58z M138,0h7v7h-7V0z
	 M138,58h7v7h-7V58z M145.2,0h7v7h-7V0z M145.2,58h7v7h-7V58z M152.5,0h7v7h-7V0z M152.5,58h7v7h-7V58z M159.7,0h7v7h-7V0z
	 M159.7,58h7v7h-7V58z M167,0h7v7h-7V0z M167,58h7v7h-7V58z M174.3,0h7v7h-7V0z M174.3,58h7v7h-7V58z M181.5,0h7v7h-7V0z M181.5,58
	h7v7h-7V58z M188.8,0h7v7h-7V0z M188.8,58h7v7h-7V58z M196,0h7v7h-7V0z M196,58h7v7h-7V58z M203.3,0h7v7h-7V0z M203.3,58h7v7h-7V58z
	 M210.6,0h7v7h-7V0z M210.6,58h7v7h-7V58z M217.8,0h7v7h-7V0z M217.8,58h7v7h-7V58z M225.1,0h7v7h-7V0z M225.1,58h7v7h-7V58z
	 M232.3,0h7v7h-7V0z M232.3,58h7v7h-7V58z M239.6,0h7v7h-7V0z M239.6,58h7v7h-7V58z M246.9,0h7v7h-7V0z M246.9,58h7v7h-7V58z
	 M254.1,0h7v7h-7V0z M254.1,58h7v7h-7V58z M261.4,0h7v7h-7V0z M261.4,58h7v7h-7V58z M268.6,0h7v7h-7V0z M268.6,58h7v7h-7V58z
	 M275.9,0h7v7h-7V0z M275.9,58h7v7h-7V58z M283.2,0h7v7h-7V0z M283.2,58h7v7h-7V58z M290.4,0h7v7h-7V0z M290.4,58h7v7h-7V58z
	 M297.7,0h7v7h-7V0z M297.7,58h7v7h-7V58z M304.9,0h7v7h-7V0z M304.9,58h7v7h-7V58z M312.2,0h7v7h-7V0z M312.2,58h7v7h-7V58z
	 M319.5,0h7v7h-7V0z M319.5,58h7v7h-7V58z M326.7,0h7v7h-7V0z M326.7,58h7v7h-7V58z M334,0h7v7h-7V0z M334,58h7v7h-7V58z M341.2,0h7
	v7h-7V0z M341.2,58h7v7h-7V58z M348.5,0h7v7h-7V0z M348.5,58h7v7h-7V58z M355.8,0h7v7h-7V0z M355.8,58h7v7h-7V58z M363,0h7v7h-7V0z
	 M363,58h7v7h-7V58z M370.3,0h7v7h-7V0z M370.3,58h7v7h-7V58z M377.5,0h7v7h-7V0z M377.5,58h7v7h-7V58z M384.8,0h7v7h-7V0z
	 M384.8,58h7v7h-7V58z M392.1,0h7v7h-7V0z M392.1,58h7v7h-7V58z M399.3,0h7v7h-7V0z M399.3,58h7v7h-7V58z M406.6,0h7v7h-7V0z
	 M406.6,58h7v7h-7V58z M413.8,0h7v7h-7V0z M413.8,58h7v7h-7V58z M421.1,0h7v7h-7V0z M421.1,58h7v7h-7V58z M428.4,0h7v7h-7V0z
	 M428.4,58h7v7h-7V58z M435.6,0h7v7h-7V0z M435.6,58h7v7h-7V58z M442.9,0h7v7h-7V0z M442.9,58h7v7h-7V58z M450.1,0h7v7h-7V0z
	 M450.1,58h7v7h-7V58z M457.4,0h7v7h-7V0z M457.4,58h7v7h-7V58z M464.7,0h7v7h-7V0z M464.7,58h7v7h-7V58z M471.9,0h7v7h-7V0z
	 M471.9,58h7v7h-7V58z M479.2,0h7v7h-7V0z M479.2,58h7v7h-7V58z M486.4,0h7v7h-7V0z M486.4,58h7v7h-7V58z M493.7,0h7v7h-7V0z
	 M493.7,58h7v7h-7V58z M501,0h7v7h-7V0z M501,58h7v7h-7V58z M508.2,0h7v7h-7V0L508.2,0z M508.2,58h7v7h-7V58L508.2,58z M515.5,0h7v7
	h-7V0z M515.5,58h7v7h-7V58z M522.7,0h7v7h-7V0z M522.7,58h7v7h-7V58z M530,0h7v7h-7V0z M530,58h7v7h-7V58z M537.3,0h7v7h-7V0z
	 M537.3,58h7v7h-7V58z M544.5,0h7v7h-7V0z M544.5,58h7v7h-7V58z M551.8,0h7v7h-7V0z M551.8,58h7v7h-7V58z M559,0h7v7h-7V0z M559,58
	h7v7h-7V58z M566.3,0h7v7h-7V0z M566.3,58h7v7h-7V58z M573.6,0h7v7h-7V0z M573.6,58h7v7h-7V58z M580.8,0h7v7h-7V0z M580.8,58h7v7h-7
	V58z M588.1,0h7v7h-7V0z M588.1,58h7v7h-7V58z M595.3,0h7v7h-7V0z M595.3,58h7v7h-7V58z M602.6,0h7v7h-7V0z M602.6,58h7v7h-7V58z
	 M609.9,0h7v7h-7V0z M609.9,58h7v7h-7V58z M617.1,0h7v7h-7V0z M617.1,58h7v7h-7V58z M624.3,0h7v7h-7V0z M624.3,58h7v7h-7V58z
	 M631.7,0h7v7h-7V0z M631.7,58h7v7h-7V58z M638.9,0h7v7h-7V0z M638.9,58h7v7h-7V58z M646.2,0h7v7h-7V0z M646.2,58h7v7h-7V58z
	 M653.3,0h7v7h-7V0z M653.3,58h7v7h-7V58z M660.7,0h7v7h-7V0z M660.7,58h7v7h-7V58z M668,0h7v7h-7V0z M668,58h7v7h-7V58z M675.2,0h7
	v7h-7V0z M675.2,58h7v7h-7V58z M682.5,0h7v7h-7V0z M682.5,58h7v7h-7V58z M689.7,0h7v7h-7V0z M689.7,58h7v7h-7V58z M697,0h7v7h-7V0z
	 M697,58h7v7h-7V58z M704.3,0h7v7h-7V0z M704.3,58h7v7h-7V58z M711.5,0h7v7h-7V0z M711.5,58h7v7h-7V58z M718.8,0h7v7h-7V0z
	 M718.8,58h7v7h-7V58z M726,0h7v7h-7V0z M726,58h7v7h-7V58z M733.3,0h7v7h-7V0z M733.3,58h7v7h-7V58z M740.6,0h7v7h-7V0z M740.6,58
	h7v7h-7V58z M747.8,0h7v7h-7V0z M747.8,58h7v7h-7V58z M755.1,0h7v7h-7V0z M755.1,58h7v7h-7V58z M762.3,0h7v7h-7V0z M762.3,58h7v7h-7
	V58z M769.6,0h7v7h-7V0z M769.6,58h7v7h-7V58z M776.9,0h7v7h-7V0z M776.9,58h7v7h-7V58z M784.1,0h7v7h-7V0z M784.1,58h7v7h-7V58z
	 M791.3,0h7v7h-7V0z M791.3,58h7v7h-7V58z M798.6,0h7v7h-7V0z M798.6,58h7v7h-7V58z M805.9,0h7v7h-7V0z M805.9,58h7v7h-7V58z
	 M813.2,0h7v7h-7V0z M813.2,58h7v7h-7V58z M820.3,0h7v7h-7V0z M820.3,58h7v7h-7V58z M827.7,0h7v7h-7V0z M827.7,58h7v7h-7V58z
	 M834.9,0h7v7h-7V0z M834.9,58h7v7h-7V58z M842.2,0h7v7h-7V0z M842.2,58h7v7h-7V58z M849.5,0h7v7h-7V0z M849.5,58h7v7h-7V58z
	 M856.7,0h7v7h-7V0z M856.7,7.2h7v7h-7V7.2z M856.7,14.5h7v7h-7V14.5z M856.7,21.8h7v7h-7V21.8z M856.7,29h7v7h-7V29z M856.7,36.2h7
	v7h-7V36.2z M856.7,43.5h7v7h-7V43.5z M856.7,50.8h7v7h-7V50.8z M856.7,58h7v7h-7V58z"/>
</svg>
