<?xml version="1.0" encoding="utf-8"?>
<!-- Generator: Adobe Illustrator 27.3.1, SVG Export Plug-In . SVG Version: 6.00 Build 0)  -->
<svg version="1.1" xmlns="http://www.w3.org/2000/svg" xmlns:xlink="http://www.w3.org/1999/xlink" x="0px" y="0px"
	 viewBox="0 0 169.6 133.2" style="enable-background:new 0 0 169.6 133.2;" xml:space="preserve">
<style type="text/css">
	.st0{fill:#FCE8B3;}
	.st1{fill:#1E0E01;}
</style>
<g id="Слой_2">
	<path class="st0" d="M164.6,50.9h-7c0,0-0.1,0-0.2,0c0,0-0.1,0-0.2,0h-7c-0.1,0-0.1,0-0.2,0h-7c0,0-0.1,0-0.2,0c0,0-0.1,0-0.2,0h-7
		c0,0-0.1,0-0.2,0c0,0-0.1,0-0.1,0h-2.3v-2.3c0-0.1,0-0.1,0-0.1c0,0,0-0.1,0-0.1v-2.2h2.2c2.8,0,5-2.2,5-5v-2.3h2.3c2.8,0,5-2.2,5-5
		v-2.3h2.3c2.8,0,5-2.2,5-5v-2.2h2.2c2.8,0,5-2.2,5-5v-7c0-0.1,0-0.1,0-0.1c0-0.1,0-0.1,0-0.2V5c0-2.8-2.2-5-5-5h-7
		c-0.1,0-0.1,0-0.2,0h-7c-2.8,0-5,2.2-5,5v2.3h-2.3c-2.8,0-5,2.2-5,5v2.2h-2.3c-1.5,0-2.8,0.7-3.8,1.7c-0.9-1-2.3-1.7-3.8-1.7h-7
		c-0.1,0-0.1,0-0.2,0h-2.3v-2.2c0-2.8-2.2-5-5-5h-7c0,0-0.1,0-0.1,0c-0.1,0-0.1,0-0.2,0h-7c-0.1,0-0.1,0-0.2,0h-6.3
		c-0.3-0.1-0.7-0.1-1-0.1h-7c-0.3,0-0.7,0-1,0.1h-6.2c-0.1,0-0.1,0-0.2,0c0,0-0.1,0-0.1,0h-7c-2.8,0-5,2.2-5,5v2.2h-2.3
		c-0.1,0-0.1,0-0.2,0h-7c-1.5,0-2.8,0.7-3.8,1.7c-0.9-1-2.3-1.7-3.8-1.7h-2.3v-2.2c0-2.8-2.2-5-5-5h-2.3V5c0-2.8-2.2-5-5-5h-7
		c-0.1,0-0.1,0-0.2,0h-7c-2.8,0-5,2.2-5,5v7c0,0.1,0,0.1,0,0.2c0,0,0,0.1,0,0.1v7c0,2.8,2.2,5,5,5h2.2v2.2c0,2.8,2.2,5,5,5h2.3v2.3
		c0,2.8,2.2,5,5,5h2.3v2.3c0,2.8,2.2,5,5,5h2.2v2.2c0,0.1,0,0.1,0,0.1c0,0,0,0.1,0,0.1v2.3h-2.2c-0.1,0-0.1,0-0.1,0c0,0-0.1,0-0.1,0
		h-7c-0.1,0-0.1,0-0.2,0c0,0-0.1,0-0.1,0h-7c-0.1,0-0.1,0-0.2,0h-7c-0.1,0-0.1,0-0.2,0c0,0-0.1,0-0.1,0H5c-2.8,0-5,2.2-5,5v7
		c0,2.8,2.2,5,5,5h2.3v2.2c0,2.8,2.2,5,5,5h7c0.1,0,0.1,0,0.2,0h7c0.1,0,0.2,0,0.3,0h7c0.1,0,0.2,0,0.3,0h2.2v2.3c0,0,0,0.1,0,0.1
		c0,0,0,0.1,0,0.1v2.3h-2.2c-2.8,0-5,2.2-5,5v2.2h-2.3c-2.8,0-5,2.2-5,5v2.3h-2.3c-2.8,0-5,2.2-5,5v7c0,2.8,2.2,5,5,5h7
		c0.1,0,0.2,0,0.3,0h7c2.8,0,5-2.2,5-5v-2.3h2.3c2.8,0,5-2.2,5-5v-2.2h2.3c0.1,0,0.1,0,0.2,0h2.2v2.2c0,0,0,0.1,0,0.1
		c0,0.1,0,0.1,0,0.2v7c0,2.8,2.2,5,5,5h2.3v2.3c0,2.8,2.2,5,5,5h2.3v2.2c0,2.8,2.2,5,5,5h2.2v2.3c0,2.8,2.2,5,5,5h7
		c0.1,0,0.2,0,0.3,0h7c2.8,0,5-2.2,5-5v-2.3h2.2c2.8,0,5-2.2,5-5v-2.2h2.3c2.8,0,5-2.2,5-5v-2.3h2.3c2.8,0,5-2.2,5-5v-7
		c0,0,0-0.1,0-0.2c0,0,0-0.1,0-0.1v-2.2h2.2c0.1,0,0.1,0,0.2,0h2.3v2.2c0,2.8,2.2,5,5,5h2.3v2.3c0,2.8,2.2,5,5,5h7
		c0.1,0,0.2,0,0.3,0h7c2.8,0,5-2.2,5-5v-7c0-2.8-2.2-5-5-5h-2.3v-2.3c0-2.8-2.2-5-5-5h-2.3v-2.2c0-2.8-2.2-5-5-5h-2.2v-2.3
		c0,0,0-0.1,0-0.1c0,0,0-0.1,0-0.1v-2.3h2.3c0.1,0,0.2,0,0.3,0h7c0.1,0,0.2,0,0.3,0h7c0.1,0,0.1,0,0.2,0h7c2.8,0,5-2.2,5-5v-2.2h2.3
		c2.8,0,5-2.2,5-5v-7C169.6,53.1,167.4,50.9,164.6,50.9z"/>
</g>
<g id="Слой_1">
	<path class="st1" d="M12.3,5h7v7h-7V5z M12.3,12.3h7v7h-7V12.3z M19.5,5h7v7h-7V5z M19.5,12.3h7v7h-7V12.3z M19.5,19.5h7v7h-7V19.5
		z M26.8,12.3h7v7h-7V12.3z M26.8,19.5h7v7h-7V19.5z M26.8,26.8h7v7h-7V26.8z M34.1,19.5h7v7h-7C34.1,26.5,34.1,19.5,34.1,19.5z
		 M34.1,26.8h7v7h-7C34.1,33.8,34.1,26.8,34.1,26.8z M41.3,26.8h7v7h-7V26.8z M48.6,19.5h7v7h-7V19.5z M48.6,26.8h7v7h-7V26.8z
		 M55.8,19.5h7v7h-7V19.5z M55.8,26.8h7v7h-7V26.8z M5,55.9h7v7H5V55.9z M12.3,55.9h7v7h-7V55.9z M12.3,63.1h7v7h-7V63.1z
		 M19.5,55.9h7v7h-7V55.9z M19.5,63.1h7v7h-7V63.1z M19.5,99.4h7v7h-7V99.4z M26.8,55.9h7v7h-7V55.9z M26.8,63.1h7v7h-7V63.1z
		 M26.8,92.1h7v7h-7V92.1z M34.1,34.1h7v7h-7C34.1,41.1,34.1,34.1,34.1,34.1z M34.1,55.9h7v7h-7C34.1,62.9,34.1,55.9,34.1,55.9z
		 M34.1,63.1h7v7h-7C34.1,70.1,34.1,63.1,34.1,63.1z M34.1,84.9h7v7h-7C34.1,91.9,34.1,84.9,34.1,84.9z M26.8,99.4h7v7h-7V99.4z
		 M34.1,92.1h7v7h-7C34.1,99.1,34.1,92.1,34.1,92.1z M41.4,84.9h7v7h-7V84.9z M41.3,34.1h7v7h-7V34.1z M41.3,41.3h7v7h-7V41.3z
		 M41.3,48.6h7v7h-7V48.6z M41.3,55.9h7v7h-7V55.9z M41.3,63.1h7v7h-7V63.1z M41.3,70.4h7v7h-7V70.4z M41.3,77.6h7v7h-7V77.6z
		 M48.6,34.1h7v7h-7V34.1z M48.6,41.3h7v7h-7V41.3z M48.6,48.6h7v7h-7V48.6z M48.6,55.9h7v7h-7V55.9z M48.6,63.1h7v7h-7V63.1z
		 M48.6,70.4h7v7h-7V70.4z M48.6,77.6h7v7h-7V77.6z M48.6,84.9h7v7h-7V84.9z M55.8,41.3h7v7h-7V41.3z M55.8,48.6h7v7h-7V48.6z
		 M55.8,77.6h7v7h-7V77.6z M55.8,84.9h7v7h-7V84.9z M55.8,92.1h7v7h-7V92.1z M55.8,99.4h7v7h-7V99.4z M63.1,12.3h7v7h-7V12.3z
		 M63.1,19.5h7v7h-7V19.5z M70.4,12.3h7v7h-7V12.3z M70.4,26.8h7v7h-7V26.8z M77.6,12.2h7v7h-7V12.2z M77.6,19.5h7v7h-7V19.5z
		 M84.9,12.3h7v7h-7V12.3z M84.9,26.8h7v7h-7V26.8z M92.1,12.3h7v7h-7V12.3z M92.1,19.5h7v7h-7V19.5z M99.4,12.3h7v7h-7V12.3z
		 M99.4,26.8h7v7h-7V26.8z M106.7,19.5h7v7h-7V19.5z M113.9,19.5h7v7h-7V19.5z M113.9,26.8h7v7h-7V26.8z M121.2,26.8h7v7h-7V26.8z
		 M128.4,19.5h7v7h-7C128.4,26.5,128.4,19.5,128.4,19.5z M128.4,26.8h7v7h-7C128.4,33.8,128.4,26.8,128.4,26.8z M63.1,34.1h7v7h-7
		V34.1z M63.1,41.3h7v7h-7V41.3z M63.1,48.6h7v7h-7V48.6z M63.1,63.1h7v7h-7V63.1z M63.1,77.6h7v7h-7V77.6z M63.1,84.9h7v7h-7V84.9z
		 M63.1,99.4h7v7h-7V99.4z M70.4,41.3h7v7h-7V41.3z M70.4,48.6h7v7h-7V48.6z M70.4,77.6h7v7h-7V77.6z M70.4,99.4h7v7h-7V99.4z
		 M77.6,34.1h7v7h-7V34.1z M77.6,41.3h7v7h-7V41.3z M77.6,48.6h7v7h-7V48.6z M77.6,55.9h7v7h-7V55.9z M77.6,63.1h7v7h-7V63.1z
		 M77.6,70.4h7v7h-7V70.4z M77.6,77.6h7v7h-7V77.6z M77.6,92.1h7v7h-7V92.1z M84.9,41.3h7v7h-7V41.3z M84.9,48.6h7v7h-7V48.6z
		 M84.9,55.9h7v7h-7V55.9z M84.9,63.1h7v7h-7V63.1z M84.9,70.4h7v7h-7V70.4z M84.9,77.6h7v7h-7V77.6z M84.9,92.1h7v7h-7V92.1z
		 M92.1,34.1h7v7h-7V34.1z M92.1,41.3h7v7h-7V41.3z M92.1,48.6h7v7h-7V48.6z M92.1,77.6h7v7h-7V77.6z M92.1,99.4h7v7h-7V99.4z
		 M99.4,41.3h7v7h-7V41.3z M99.4,48.6h7v7h-7V48.6z M99.4,63.1h7v7h-7V63.1z M99.4,77.6h7v7h-7V77.6z M99.4,84.9h7v7h-7V84.9z
		 M99.4,99.4h7v7h-7V99.4z M106.7,34.1h7v7h-7V34.1z M106.7,41.3h7v7h-7V41.3z M106.7,48.6h7v7h-7V48.6z M106.7,77.6h7v7h-7V77.6z
		 M106.7,84.9h7v7h-7V84.9z M106.7,92.1h7v7h-7V92.1z M106.7,99.4h7v7h-7V99.4z M113.9,41.3h7v7h-7V41.3z M113.9,48.6h7v7h-7V48.6z
		 M113.9,55.9h7v7h-7V55.9z M113.9,63.1h7v7h-7V63.1z M113.9,70.4h7v7h-7V70.4z M113.9,77.6h7v7h-7V77.6z M113.9,84.9h7v7h-7V84.9z
		 M121.2,34.1h7v7h-7V34.1z M121.2,41.3h7v7h-7V41.3z M121.2,48.6h7v7h-7V48.6z M121.2,55.9h7v7h-7V55.9z M121.2,63.1h7v7h-7V63.1z
		 M121.2,70.4h7v7h-7V70.4z M121.2,77.6h7v7h-7V77.6z M128.4,34.1h7v7h-7C128.4,41.1,128.4,34.1,128.4,34.1z M128.5,55.9h7v7h-7
		V55.9z M128.4,84.9h7v7h-7C128.4,91.9,128.4,84.9,128.4,84.9z M63.1,106.7h7v7h-7V106.7z M70.4,106.7h7v7h-7V106.7z M70.4,113.9h7
		v7h-7V113.9z M77.6,106.7h7v7h-7V106.7z M77.6,113.9h7v7h-7V113.9z M77.6,121.2h7v7h-7V121.2z M84.9,106.7h7v7h-7V106.7z
		 M84.9,113.9h7v7h-7V113.9z M84.9,121.2h7v7h-7V121.2z M92.1,106.7h7v7h-7V106.7z M92.1,113.9h7v7h-7V113.9z M99.4,106.7h7v7h-7
		V106.7z M135.7,12.3h7v7h-7V12.3z M135.7,19.5h7v7h-7V19.5z M135.7,26.8h7v7h-7V26.8z M143,5h7v7h-7V5z M143,12.3h7v7h-7V12.3z
		 M143,19.5h7v7h-7V19.5z M150.2,5h7v7h-7V5z M150.2,12.3h7v7h-7V12.3z M135.8,55.9h7v7h-7V55.9z M135.7,92.1h7v7h-7V92.1z
		 M143.1,55.9h7v7h-7V55.9z M143,99.4h7v7h-7V99.4z M150.3,55.9h7v7h-7V55.9z M128.5,63.1h7v7h-7V63.1z M135.8,63.1h7v7h-7V63.1z
		 M143.1,63.1h7v7h-7V63.1z M150.3,63.1h7v7h-7V63.1z M157.6,55.9h7v7h-7V55.9z M121.1,84.9h7v7h-7V84.9z M128.4,92.1h7v7h-7
		C128.4,99.1,128.4,92.1,128.4,92.1z M135.7,99.4h7v7h-7V99.4z"/>
</g>
</svg>
