<?xml version="1.0" encoding="utf-8"?>
<!-- Generator: Adobe Illustrator 27.3.1, SVG Export Plug-In . SVG Version: 6.00 Build 0)  -->
<svg version="1.1" xmlns="http://www.w3.org/2000/svg" xmlns:xlink="http://www.w3.org/1999/xlink" x="0px" y="0px"
	 viewBox="0 0 147.7 140.5" style="enable-background:new 0 0 147.7 140.5;" xml:space="preserve">
<style type="text/css">
	.st0{fill:#FCE8B3;}
	.st1{fill:#1E0E01;}
</style>
<g id="Слой_1">
	<path class="st0" d="M133.2,53.4h2.1c2.8,0,5-2.2,5-5v-2.3h2.4c2.8,0,5-2.2,5-5v-7c0-2.8-2.2-5-5-5h-6.5c-0.2,0-0.5-0.1-0.7-0.1h-7
		c-2.8,0-5,2.2-5,5v2.3h-2.4c-0.1,0-0.1,0-0.1,0h-2.3v-2.3c0-2.8-2.2-5-5-5h-2.3v-1.3c0.1-0.4,0.2-0.8,0.2-1.2v-2.3h2.3
		c2.8,0,5-2.2,5-5v-7c0-0.1,0-0.1,0-0.1c0,0,0-0.1,0-0.1V5c0-2.8-2.2-5-5-5h-7c-2.8,0-5,2.2-5,5v2.3h-2.3c-2.8,0-5,2.2-5,5v2.2h-2.3
		c-0.1,0-0.1,0-0.2,0h-2.3v-2.2c0-2.8-2.2-5-5-5h-2.2V5c0-2.8-2.2-5-5-5h-7c-2.8,0-5,2.2-5,5v2.3h-2.3c-2.8,0-5,2.2-5,5v2.2h-2.3
		c-0.1,0-0.1,0-0.2,0h-2.3v-2.2c0-2.8-2.2-5-5-5h-2.2V5c0-2.8-2.2-5-5-5h-7c-2.8,0-5,2.2-5,5v7c0,0.1,0,0.1,0,0.1c0,0,0,0.1,0,0.1v7
		c0,2.8,2.2,5,5,5h2.2v2.3c0,0.2,0,0.5,0,0.7v1.9h-2.3c-2.8,0-5,2.2-5,5v2.3h-1.4c-0.3-0.1-0.7-0.1-1-0.1h-2.4v-2.3c0-2.8-2.2-5-5-5
		h-7c-0.1,0-0.2,0-0.3,0H5c-2.8,0-5,2.2-5,5v7c0,2.8,2.2,5,5,5h2.4v2.3c0,2.8,2.2,5,5,5h2.2v2.2c0,0.1,0,0.1,0,0.1
		c0,0.1,0,0.1,0,0.2v7c0,0,0,0.1,0,0.1c0,0,0,0.1,0,0.1v7c0,0.1,0,0.1,0,0.1c0,0.1,0,0.1,0,0.2v7c0,0,0,0.1,0,0.1c0,0,0,0.1,0,0.1v7
		c0,0,0,0.1,0,0.1c0,0.1,0,0.1,0,0.2v7c0,0,0,0.1,0,0.2c0,0,0,0.1,0,0.2v2.2h-2.3c-2.8,0-5,2.2-5,5v2.3H5.1c-2.8,0-5,2.2-5,5v7
		c0,2.8,2.2,5,5,5h7c0.1,0,0.2,0,0.3,0h7c2.8,0,5-2.2,5-5v-2.3h1.5c0.3,0.1,0.7,0.1,1,0.1h2.3v2.2c0,1.5,0.7,2.8,1.7,3.8
		c-1,0.9-1.7,2.3-1.7,3.8v7c0,0,0,0.1,0,0.1c0,0,0,0.1,0,0.1v7c0,2.8,2.2,5,5,5h7c2.8,0,5-2.2,5-5v-2.2h2.2c1.5,0,2.8-0.7,3.8-1.7
		c0.9,1,2.3,1.7,3.8,1.7h7c0.1,0,0.2,0,0.3,0h2.3v2.2c0,2.8,2.2,5,5,5h7c2.8,0,5-2.2,5-5v-2.2h2.2c0.1,0,0.1,0,0.2,0h7
		c1.5,0,2.9-0.7,3.8-1.8c0.9,1.1,2.3,1.8,3.8,1.8h2.3v2.2c0,2.8,2.2,5,5,5h7c2.8,0,5-2.2,5-5v-7c0,0,0-0.1,0-0.1c0,0,0-0.1,0-0.1v-7
		c0-1.5-0.7-2.8-1.7-3.8c1-0.9,1.7-2.3,1.7-3.8v-2.2h2.2c0.5,0,1-0.1,1.4-0.2h1.1v2.3c0,2.8,2.2,5,5,5h6.5c0.2,0,0.5,0,0.7,0h7
		c2.8,0,5-2.2,5-5v-7c0-2.8-2.2-5-5-5h-2.3v-2.3c0-2.8-2.2-5-5-5h-2.2v-2.1c0,0,0-0.1,0-0.2c0,0,0-0.1,0-0.1v-7c0,0,0-0.1,0-0.2
		c0,0,0-0.1,0-0.2v-7c0,0,0-0.1,0-0.1c0,0,0-0.1,0-0.1v-7c0-0.1,0-0.1,0-0.1c0,0,0-0.1,0-0.1v-7c0,0,0-0.1,0-0.1c0,0,0-0.1,0-0.1v-7
		c0-0.1,0-0.1,0-0.1c0,0,0-0.1,0-0.1V53.4z"/>
</g>
<g id="Слой_2">
	<path class="st1" d="M34.2,12.3h7v7h-7V12.3z M12.3,34.1h7v7h-7V34.1z M19.7,41.4h7v7h-7C19.7,48.4,19.7,41.4,19.7,41.4z
		 M26.9,48.6h7v7h-7V48.6z M26.9,55.9h7v7h-7V55.9z M26.9,63.1h7v7h-7V63.1z M26.9,70.4h7v7h-7V70.4z M26.9,77.6h7v7h-7V77.6z
		 M26.9,84.9h7v7h-7V84.9z M34.2,41.4h7v7h-7V41.4z M41.4,19.6h7v7h-7C41.4,26.6,41.4,19.6,41.4,19.6z M41.4,34.1h7v7h-7
		C41.4,41.1,41.4,34.1,41.4,34.1z M41.5,55.9h7v7h-7V55.9z M41.5,63.2h7v7h-7V63.2z M41.5,70.4h7v7h-7V70.4z M41.5,77.7h7v7h-7V77.7
		z M48.7,26.8h7v7h-7V26.8z M26.9,41.5h7v7h-7V41.5z M34.1,34.2h7v7h-7C34.1,41.2,34.1,34.2,34.1,34.2z M41.4,26.9h7v7h-7V26.9z
		 M48.8,55.9h7v7h-7V55.9z M48.8,77.7h7v7h-7V77.7z M55.9,26.8h7v7h-7V26.8z M56,48.7h7v7h-7V48.7z M56,63.2h7v7h-7V63.2z M56,77.7
		h7v7h-7V77.7z M12.4,106.7h7v7h-7C12.4,113.7,12.4,106.7,12.4,106.7z M19.6,99.4h7v7h-7V99.4z M26.9,92.2h7v7h-7V92.2z M5,34.1h7v7
		H5V34.1z M12.4,41.4h7v7h-7C12.4,48.4,12.4,41.4,12.4,41.4z M19.6,48.6h7v7h-7V48.6z M19.6,55.9h7v7h-7V55.9z M19.6,63.1h7v7h-7
		V63.1z M19.6,70.4h7v7h-7V70.4z M19.6,77.6h7v7h-7V77.6z M19.6,84.9h7v7h-7V84.9z M5.1,106.7h7v7h-7C5.1,113.7,5.1,106.7,5.1,106.7
		z M12.3,99.4h7v7h-7V99.4z M19.6,92.2h7v7h-7V92.2z M34.2,99.4h7v7h-7V99.4z M34.2,121.2h7v7h-7V121.2z M41.4,99.4h7v7h-7
		C41.4,106.4,41.4,99.4,41.4,99.4z M26.9,99.5h7v7h-7V99.5z M34.2,106.7h7v7h-7V106.7z M41.4,106.7h7v7h-7
		C41.4,113.7,41.4,106.7,41.4,106.7z M41.4,114h7v7h-7C41.4,121,41.4,114,41.4,114z M48.7,106.7h7v7h-7V106.7z M55.9,99.4h7v7h-7
		V99.4z M55.9,114h7v7h-7V114z M106.8,12.3h7v7h-7V12.3z M63.2,19.6h7v7h-7V19.6z M63.3,48.7h7v7h-7V48.7z M70.5,12.3h7v7h-7
		C70.5,19.3,70.5,12.3,70.5,12.3z M70.6,26.9h7v7h-7C70.6,33.9,70.6,26.9,70.6,26.9z M70.6,34.2h7v7h-7
		C70.6,41.2,70.6,34.2,70.6,34.2z M70.6,41.4h7v7h-7C70.6,48.4,70.6,41.4,70.6,41.4z M77.7,19.6h7v7h-7V19.6z M77.8,48.7h7v7h-7
		V48.7z M85,26.8h7v7h-7V26.8z M85.1,48.7h7v7h-7V48.7z M85.1,63.2h7v7h-7V63.2z M85.1,77.7h7v7h-7V77.7z M92.2,26.8h7v7h-7V26.8z
		 M92.3,55.9h7v7h-7V55.9z M92.3,77.7h7v7h-7V77.7z M99.5,19.6h7v7h-7V19.6z M34.2,5h7v7h-7V5z M41.4,12.3h7v7h-7
		C41.4,19.3,41.4,12.3,41.4,12.3z M48.7,19.5h7v7h-7V19.5z M55.9,19.5h7v7h-7V19.5z M106.8,5h7v7h-7V5z M63.2,12.3h7v7h-7V12.3z
		 M70.5,5h7v7h-7C70.5,12,70.5,5,70.5,5z M70.6,19.6h7v7h-7C70.6,26.6,70.6,19.6,70.6,19.6z M77.7,12.3h7v7h-7V12.3z M85,19.5h7v7
		h-7V19.5z M92.2,19.5h7v7h-7V19.5z M99.5,12.3h7v7h-7V12.3z M99.5,34.1h7v7h-7V34.1z M99.6,55.9h7v7h-7V55.9z M99.6,63.2h7v7h-7
		V63.2z M99.6,70.4h7v7h-7V70.4z M99.6,77.7h7v7h-7V77.7z M106.8,41.4h7v7h-7V41.4z M99.3,26.8h7v7h-7V26.8z M106.6,34.1h7v7h-7
		V34.1z M113.9,41.4h7v7h-7V41.4z M114,48.6h7v7h-7V48.6z M114,55.9h7v7h-7V55.9z M114,63.1h7v7h-7V63.1z M114,70.4h7v7h-7V70.4z
		 M114,77.6h7v7h-7V77.6z M114,84.9h7v7h-7V84.9z M121.1,41.4h7v7h-7V41.4z M63.2,91.9h7v7h-7V91.9z M63.2,114h7v7h-7V114z
		 M70.5,91.9h7v7h-7C70.5,98.9,70.5,91.9,70.5,91.9z M70.5,121.2h7v7h-7C70.5,128.2,70.5,121.2,70.5,121.2z M77.7,91.9h7v7h-7V91.9z
		 M77.7,114h7v7h-7V114z M85,99.4h7v7h-7V99.4z M84.9,114h7v7h-7V114z M92.1,106.7h7v7h-7V106.7z M99.5,99.4h7v7h-7V99.4z M99.5,114
		h7v7h-7V114z M106.8,99.4h7v7h-7V99.4z M106.8,121.2h7v7h-7V121.2z M34.2,128.4h7v7h-7V128.4z M41.4,121.2h7v7h-7
		C41.4,128.2,41.4,121.2,41.4,121.2z M48.7,113.9h7v7h-7V113.9z M55.9,121.2h7v7h-7V121.2z M63.2,121.2h7v7h-7V121.2z M70.5,128.4h7
		v7h-7C70.5,135.4,70.5,128.4,70.5,128.4z M77.7,121.2h7v7h-7V121.2z M84.9,121.2h7v7h-7V121.2z M92.1,113.9h7v7h-7V113.9z
		 M99.5,121.2h7v7h-7V121.2z M106.8,128.4h7v7h-7V128.4z M114,92.2h7v7h-7V92.2z M99.5,106.7h7v7h-7V106.7z M106.8,106.7h7v7h-7
		V106.7z M114,99.5h7v7h-7V99.5z M121.2,99.3h7v7h-7V99.3z M128.5,106.6h7v7h-7V106.6z M128.5,34.1h7v7h-7V34.1z M121.2,48.6h7v7h-7
		V48.6z M121.2,55.9h7v7h-7V55.9z M121.2,63.1h7v7h-7V63.1z M121.2,70.4h7v7h-7V70.4z M121.2,77.6h7v7h-7V77.6z M121.2,84.9h7v7h-7
		V84.9z M128.3,41.4h7v7h-7V41.4z M121.2,92.2h7v7h-7V92.2z M128.4,99.3h7v7h-7V99.3z M135.7,106.6h7v7h-7V106.6z M135.7,34.1h7v7
		h-7V34.1z"/>
</g>
</svg>
