<?xml version="1.0" encoding="utf-8"?>
<!-- Generator: Adobe Illustrator 27.3.1, SVG Export Plug-In . SVG Version: 6.00 Build 0)  -->
<svg version="1.1" xmlns="http://www.w3.org/2000/svg" xmlns:xlink="http://www.w3.org/1999/xlink" x="0px" y="0px"
	 viewBox="0 0 169.4 147.7" style="enable-background:new 0 0 169.4 147.7;" xml:space="preserve">
<style type="text/css">
	.st0{fill:#FCE8B3;}
	.st1{fill:#1E0E01;}
</style>
<g id="Слой_1">
	<path class="st0" d="M164.4,79.9h-2.2v-2.3c0-2.8-2.2-5-5-5h-3c0.4-0.7,0.7-1.6,0.7-2.5v-2.3h2.3c2.8,0,5-2.2,5-5v-7
		c0,0,0-0.1,0-0.1c0,0,0-0.1,0-0.1v-7c0-0.1,0-0.1,0-0.2c0,0,0-0.1,0-0.1v-7c0-2.8-2.2-5-5-5h-3c0.4-0.7,0.7-1.6,0.7-2.5v-7
		c0-2.8-2.2-5-5-5h-7c0,0-0.1,0-0.1,0c-0.1,0-0.1,0-0.2,0h-7c-1.5,0-2.8,0.7-3.8,1.7c-0.1-0.2-0.3-0.3-0.4-0.4
		c1-0.9,1.7-2.3,1.7-3.8v-7c0-0.1,0-0.1,0-0.1c0,0,0-0.1,0-0.1V5c0-2.8-2.2-5-5-5h-7c-2.8,0-5,2.2-5,5v2.3h-2.2
		c-1.5,0-2.9,0.7-3.8,1.8c-0.9-1.1-2.3-1.8-3.8-1.8h-7c-0.1,0-0.1,0-0.2,0h-7c0,0-0.1,0-0.1,0c-0.1,0-0.1,0-0.2,0h-7
		c-0.1,0-0.1,0-0.2,0h-7c-0.1,0-0.1,0-0.1,0c-0.1,0-0.1,0-0.2,0h-7c-0.1,0-0.1,0-0.1,0c0,0-0.1,0-0.1,0h-7c-1.5,0-2.8,0.7-3.8,1.7
		c-0.9-1-2.3-1.7-3.8-1.7h-2.2V5c0-2.8-2.2-5-5-5h-7c-2.8,0-5,2.2-5,5v7c0,0.1,0,0.1,0,0.1c0,0,0,0.1,0,0.1v7c0,2.8,2.2,5,5,5h2.2
		v2.2c0,0.1,0,0.1,0,0.1c0,0,0,0.1,0,0.1V29h-2.2c-0.1,0-0.1,0-0.1,0c0,0-0.1,0-0.1,0h-2.3v-2.2c0-2.8-2.2-5-5-5h-7
		c-0.1,0-0.1,0-0.2,0h-7c-2.8,0-5,2.2-5,5v7c0,0.9,0.2,1.8,0.7,2.5h-3c-2.8,0-5,2.2-5,5v7c0,0.1,0,0.1,0,0.1c0,0.1,0,0.1,0,0.2v7
		c0,0,0,0.1,0,0.1c0,0,0,0.1,0,0.1v7c0,2.8,2.2,5,5,5h2.3v2.3c0,0.9,0.2,1.8,0.7,2.5h-3c-2.8,0-5,2.2-5,5v2.3H5c-2.8,0-5,2.2-5,5v7
		c0,2.8,2.2,5,5,5h7c0.1,0,0.1,0,0.2,0h7c2.8,0,5-2.2,5-5v-2.3h2.3c0.1,0,0.1,0,0.2,0H29v2.3c0,0,0,0.1,0,0.1c0,0,0,0.1,0,0.1v2.3
		h-2.3c-2.8,0-5,2.2-5,5v7c0,0,0,0.1,0,0.1c0,0,0,0.1,0,0.1v7c0,0,0,0.1,0,0.1c0,0.1,0,0.1,0,0.2v7c0,0,0,0.1,0,0.1
		c0,0.1,0,0.1,0,0.2v7c0,0,0,0.1,0,0.1c0,0,0,0.1,0,0.1v7c0,2.8,2.2,5,5,5H29v2.3c0,2.8,2.2,5,5,5h7c0.1,0,0.2,0,0.3,0h7
		c2.8,0,5-2.2,5-5v-7c0-2.8-2.2-5-5-5H46v-2.3c0,0,0-0.1,0-0.1c0,0,0-0.1,0-0.1v-7c0,0,0-0.1,0-0.2c0,0,0-0.1,0-0.1v-3
		c0.7,0.4,1.6,0.7,2.5,0.7h2.3v2.3c0,0,0,0.1,0,0.1c0,0.1,0,0.1,0,0.2v7c0,2.8,2.2,5,5,5H58v2.2c0,2.8,2.2,5,5,5h7c2.8,0,5-2.2,5-5
		v-2.2h2.3c2.8,0,5-2.2,5-5v-7c0,0,0-0.1,0-0.2c0,0,0-0.1,0-0.1v-2.3h2.3c0.1,0,0.1,0,0.2,0h2.3v2.3c0,0,0,0.1,0,0.1
		c0,0.1,0,0.1,0,0.2v7c0,2.8,2.2,5,5,5h2.2v2.2c0,2.8,2.2,5,5,5h7c2.8,0,5-2.2,5-5v-2.2h2.3c2.8,0,5-2.2,5-5v-7c0,0,0-0.1,0-0.2
		c0,0,0-0.1,0-0.1v-2.3h2.3c0.9,0,1.8-0.2,2.5-0.7v3c0,0,0,0.1,0,0.1c0,0.1,0,0.1,0,0.2v7c0,0,0,0.1,0,0.1c0,0,0,0.1,0,0.1v2.3h-2.3
		c-2.8,0-5,2.2-5,5v7c0,2.8,2.2,5,5,5h7c0.1,0,0.2,0,0.3,0h7c2.8,0,5-2.2,5-5v-2.3h2.2c2.8,0,5-2.2,5-5v-7c0,0,0-0.1,0-0.1
		c0,0,0-0.1,0-0.1v-7c0,0,0-0.1,0-0.2c0,0,0-0.1,0-0.1v-7c0,0,0-0.1,0-0.2c0,0,0-0.1,0-0.1v-7c0,0,0-0.1,0-0.1c0,0,0-0.1,0-0.1v-7
		c0-2.8-2.2-5-5-5h-2.2v-2.3c0,0,0-0.1,0-0.1c0,0,0-0.1,0-0.1v-2.3h2.2c0.1,0,0.2,0,0.3,0h2.3v2.3c0,2.8,2.2,5,5,5h7
		c0.1,0,0.1,0,0.2,0h7c2.8,0,5-2.2,5-5v-7C169.4,82.1,167.2,79.9,164.4,79.9z"/>
</g>
<g id="Слой_2">
	<path class="st1" d="M12.2,41.3h7v7h-7V41.3z M19.5,26.8h7v7h-7V26.8z M26.7,26.8h7v7h-7V26.8z M26.7,34h7v7h-7V34z M26.7,41.3h7v7
		h-7V41.3z M5,84.9h7v7H5V84.9z M12.2,48.6h7v7h-7V48.6z M12.2,55.8h7v7h-7V55.8z M12.2,77.6h7v7h-7V77.6z M12.2,84.9h7v7h-7V84.9z
		 M19.5,48.6h7v7h-7V48.6z M19.5,55.8h7v7h-7V55.8z M19.5,63.1h7v7h-7V63.1z M19.5,77.6h7v7h-7V77.6z M26.7,55.8h7v7h-7V55.8z
		 M26.7,63.1h7v7h-7V63.1z M26.7,77.6h7v7h-7V77.6z M26.7,99.4h7v7h-7V99.4z M26.7,106.6h7v7h-7V106.6z M26.7,113.9h7v7h-7V113.9z
		 M26.7,121.2h7v7h-7V121.2z M26.7,128.4h7v7h-7V128.4z M34,34h7v7h-7V34z M34,41.3h7v7h-7V41.3z M41.3,5h7v7h-7V5z M41.3,12.3h7v7
		h-7V12.3z M41.3,34h7v7h-7V34z M41.3,41.3h7v7h-7V41.3z M48.5,12.3h7v7h-7V12.3z M48.5,19.5h7v7h-7V19.5z M48.5,26.8h7v7h-7V26.8z
		 M55.8,19.5h7v7h-7V19.5z M55.8,26.8h7v7h-7V26.8z M63,12.3h7v7h-7V12.3z M63,19.5h7v7h-7V19.5z M63,26.8h7v7h-7V26.8z M63,34h7v7
		h-7V34z M63,41.3h7v7h-7V41.3z M70.3,12.3h7v7h-7V12.3z M70.3,19.5h7v7h-7V19.5z M70.3,26.8h7v7h-7V26.8z M77.6,12.3h7v7h-7V12.3z
		 M77.6,19.5h7v7h-7V19.5z M84.8,12.3h7v7h-7V12.3z M84.8,19.5h7v7h-7V19.5z M92.1,12.3h7v7h-7V12.3z M92.1,19.5h7v7h-7V19.5z
		 M92.1,26.8h7v7h-7V26.8z M99.3,12.3h7v7h-7V12.3z M99.3,19.5h7v7h-7V19.5z M99.3,26.8h7v7h-7V26.8z M99.3,34h7v7h-7V34z
		 M99.3,41.3h7v7h-7V41.3z M34,48.6h7v7h-7V48.6z M34,55.8h7v7h-7V55.8z M34,63.1h7v7h-7V63.1z M34,70.4h7v7h-7V70.4z M34,77.6h7v7
		h-7V77.6z M34,84.9h7v7h-7V84.9z M34,92.1h7v7h-7V92.1z M34,99.4h7v7h-7V99.4z M34,106.6h7v7h-7V106.6z M34,113.9h7v7h-7V113.9z
		 M41.3,48.6h7v7h-7V48.6z M41.3,55.8h7v7h-7V55.8z M41.3,63.1h7v7h-7V63.1z M41.3,70.4h7v7h-7V70.4z M41.3,77.6h7v7h-7V77.6z
		 M41.3,84.9h7v7h-7V84.9z M41.3,92.1h7v7h-7V92.1z M41.3,99.4h7v7h-7V99.4z M48.5,48.6h7v7h-7V48.6z M48.5,55.8h7v7h-7V55.8z
		 M48.5,77.6h7v7h-7V77.6z M48.5,84.9h7v7h-7V84.9z M48.5,92.1h7v7h-7V92.1z M48.5,99.4h7v7h-7V99.4z M48.5,106.6h7v7h-7V106.6z
		 M55.8,48.6h7v7h-7V48.6z M55.8,55.8h7v7h-7V55.8z M55.8,77.6h7v7h-7V77.6z M55.8,99.4h7v7h-7V99.4z M55.8,106.6h7v7h-7V106.6z
		 M55.8,113.9h7v7h-7V113.9z M63,48.6h7v7h-7V48.6z M63,55.8h7v7h-7V55.8z M63,63.1h7v7h-7V63.1z M63,70.4h7v7h-7V70.4z M63,77.6h7
		v7h-7V77.6z M63,84.9h7v7h-7V84.9z M70.3,48.6h7v7h-7V48.6z M70.3,55.8h7v7h-7V55.8z M70.3,63.1h7v7h-7V63.1z M70.3,70.4h7v7h-7
		V70.4z M70.3,77.6h7v7h-7V77.6z M70.3,99.4h7v7h-7V99.4z M70.3,106.6h7v7h-7V106.6z M70.3,113.9h7v7h-7V113.9z M77.6,55.8h7v7h-7
		V55.8z M77.6,63.1h7v7h-7V63.1z M77.6,70.4h7v7h-7V70.4z M77.6,77.6h7v7h-7V77.6z M77.6,84.9h7v7h-7V84.9z M77.6,106.6h7v7h-7
		V106.6z M84.8,55.8h7v7h-7V55.8z M84.8,63.1h7v7h-7V63.1z M84.8,70.4h7v7h-7V70.4z M84.8,77.6h7v7h-7V77.6z M84.8,84.9h7v7h-7V84.9
		z M84.8,106.6h7v7h-7V106.6z M92.1,48.6h7v7h-7V48.6z M92.1,55.8h7v7h-7V55.8z M92.1,63.1h7v7h-7V63.1z M92.1,70.4h7v7h-7V70.4z
		 M92.1,77.6h7v7h-7V77.6z M92.1,99.4h7v7h-7V99.4z M92.1,106.6h7v7h-7V106.6z M92.1,113.9h7v7h-7V113.9z M99.3,48.6h7v7h-7V48.6z
		 M99.3,55.8h7v7h-7V55.8z M99.3,63.1h7v7h-7V63.1z M99.3,70.4h7v7h-7V70.4z M99.3,77.6h7v7h-7V77.6z M99.3,84.9h7v7h-7V84.9z
		 M34,121.2h7v7h-7V121.2z M34,128.4h7v7h-7V128.4z M34,135.7h7v7h-7V135.7z M41.3,135.7h7v7h-7V135.7z M55.8,121.2h7v7h-7V121.2z
		 M63,128.4h7v7h-7V128.4z M70.3,121.2h7v7h-7V121.2z M92.1,121.2h7v7h-7V121.2z M99.3,128.4h7v7h-7V128.4z M106.6,19.5h7v7h-7V19.5
		z M106.6,26.8h7v7h-7V26.8z M113.9,12.3h7v7h-7V12.3z M113.9,19.5h7v7h-7V19.5z M113.9,26.8h7v7h-7V26.8z M121.1,5h7v7h-7V5z
		 M121.1,12.3h7v7h-7V12.3z M121.1,26.8h7v7h-7V26.8z M121.1,34h7v7h-7V34z M121.1,41.3h7v7h-7V41.3z M128.4,34h7v7h-7V34z
		 M128.4,41.3h7v7h-7V41.3z M135.6,26.8h7v7h-7V26.8z M135.6,34h7v7h-7V34z M135.6,41.3h7v7h-7V41.3z M142.9,26.8h7v7h-7V26.8z
		 M150.2,41.3h7v7h-7V41.3z M106.6,48.6h7v7h-7V48.6z M106.6,55.8h7v7h-7V55.8z M106.6,77.6h7v7h-7V77.6z M106.6,99.4h7v7h-7V99.4z
		 M106.6,106.6h7v7h-7V106.6z M106.6,113.9h7v7h-7V113.9z M113.9,48.6h7v7h-7V48.6z M113.9,55.8h7v7h-7V55.8z M113.9,77.6h7v7h-7
		V77.6z M113.9,84.9h7v7h-7V84.9z M113.9,92.1h7v7h-7V92.1z M113.9,99.4h7v7h-7V99.4z M113.9,106.6h7v7h-7V106.6z M121.1,48.6h7v7
		h-7V48.6z M121.1,55.8h7v7h-7V55.8z M121.1,63.1h7v7h-7V63.1z M121.1,70.4h7v7h-7V70.4z M121.1,77.6h7v7h-7V77.6z M121.1,84.9h7v7
		h-7V84.9z M121.1,92.1h7v7h-7V92.1z M121.1,99.4h7v7h-7V99.4z M128.4,48.6h7v7h-7V48.6z M128.4,55.8h7v7h-7V55.8z M128.4,63.1h7v7
		h-7V63.1z M128.4,70.4h7v7h-7V70.4z M128.4,77.6h7v7h-7V77.6z M128.4,84.9h7v7h-7V84.9z M128.4,92.1h7v7h-7V92.1z M128.4,99.4h7v7
		h-7V99.4z M128.4,106.6h7v7h-7V106.6z M128.4,113.9h7v7h-7V113.9z M135.6,55.8h7v7h-7V55.8z M135.6,63.1h7v7h-7V63.1z M135.6,77.6
		h7v7h-7V77.6z M135.6,99.4h7v7h-7V99.4z M135.6,106.6h7v7h-7V106.6z M135.6,113.9h7v7h-7V113.9z M142.9,48.6h7v7h-7V48.6z
		 M142.9,55.8h7v7h-7V55.8z M142.9,63.1h7v7h-7V63.1z M142.9,77.6h7v7h-7V77.6z M150.2,48.6h7v7h-7V48.6z M150.2,55.8h7v7h-7V55.8z
		 M150.2,77.6h7v7h-7V77.6z M150.2,84.9h7v7h-7V84.9z M157.4,84.9h7v7h-7V84.9z M106.6,121.2h7v7h-7V121.2z M121.1,135.7h7v7h-7
		V135.7z M128.4,121.2h7v7h-7V121.2z M128.4,128.4h7v7h-7V128.4z M128.4,135.7h7v7h-7V135.7z M135.6,121.2h7v7h-7V121.2z
		 M135.6,128.4h7v7h-7V128.4z"/>
</g>
</svg>
