<?xml version="1.0" encoding="utf-8"?>
<!-- Generator: Adobe Illustrator 27.3.1, SVG Export Plug-In . SVG Version: 6.00 Build 0)  -->
<svg version="1.1" xmlns="http://www.w3.org/2000/svg" xmlns:xlink="http://www.w3.org/1999/xlink" x="0px" y="0px"
	 viewBox="0 0 198.5 191.3" style="enable-background:new 0 0 198.5 191.3;" xml:space="preserve">
<style type="text/css">
	.st0{fill:#FCE8B3;}
	.st1{fill:#1E0E01;}
</style>
<g id="Слой_1">
	<path class="st0" d="M193.5,94.4h-2.3v-2.3c0-2.8-2.2-5-5-5h-2.9c0.4-0.7,0.7-1.6,0.7-2.5v-2.2h2.2c2.8,0,5-2.2,5-5v-7
		c0-0.1,0-0.1,0-0.1c0,0,0-0.1,0-0.1v-7c0-0.1,0-0.1,0-0.2c0,0,0-0.1,0-0.1v-7c0,0,0-0.1,0-0.1c0,0,0-0.1,0-0.1v-7c0-2.8-2.2-5-5-5
		H184v-2.3c0-2.8-2.2-5-5-5h-7c-2.8,0-5,2.2-5,5v7c0,0.1,0,0.1,0,0.1c0,0.1,0,0.1,0,0.2v7c0,0,0,0.1,0,0.1c0,0,0,0.1,0,0.1v2.3h-2.3
		c-0.1,0-0.1,0-0.2,0h-2.3v-2.3c0-1.5-0.7-2.8-1.7-3.8c1-0.9,1.7-2.3,1.7-3.8v-7c0,0,0-0.1,0-0.1c0,0,0-0.1,0-0.1v-7
		c0-0.1,0-0.1,0-0.2c0,0,0-0.1,0-0.1v-7c0-2.8-2.2-5-5-5h-2.3v-2.3c0-2.8-2.2-5-5-5h-7c-2.8,0-5,2.2-5,5v7c0,0.1,0,0.1,0,0.1
		c0,0,0,0.1,0,0.1v3c-0.7-0.4-1.6-0.7-2.5-0.7h-2.2v-2.3c0-0.1,0-0.1,0-0.1c0,0,0-0.1,0-0.1v-7c0,0,0-0.1,0-0.1c0,0,0-0.1,0-0.1v-7
		c0-2.8-2.2-5-5-5h-2.3V5c0-2.8-2.2-5-5-5h-7c-2.8,0-5,2.2-5,5v7c0,0.1,0,0.1,0,0.1c0,0,0,0.1,0,0.1v7c0,0,0,0.1,0,0.1
		c0,0,0,0.1,0,0.1v2.3h-2.3c-0.1,0-0.1,0-0.2,0h-7c-0.1,0-0.1,0-0.2,0c0,0-0.1,0-0.1,0h-7c-0.1,0-0.1,0-0.2,0h-2.3v-2.3
		c0,0,0-0.1,0-0.1c0,0,0-0.1,0-0.1v-7c0-0.1,0-0.1,0-0.1c0,0,0-0.1,0-0.1V5c0-2.8-2.2-5-5-5h-7c-2.8,0-5,2.2-5,5v2.3h-2.3
		c-2.8,0-5,2.2-5,5v7c0,0,0,0.1,0,0.1c0,0,0,0.1,0,0.1v7c0,0.1,0,0.1,0,0.1c0,0,0,0.1,0,0.1v2.3h-2.2c-0.9,0-1.8,0.2-2.5,0.7v-3
		c0-0.1,0-0.1,0-0.1c0,0,0-0.1,0-0.1v-7c0-2.8-2.2-5-5-5h-7c-2.8,0-5,2.2-5,5v2.3h-2.3c-2.8,0-5,2.2-5,5v7c0,0.1,0,0.1,0,0.1
		c0,0.1,0,0.1,0,0.2v7c0,0,0,0.1,0,0.1c0,0,0,0.1,0,0.1v7c0,1.5,0.7,2.8,1.7,3.8c-1,0.9-1.7,2.3-1.7,3.8v2.3H34c-0.1,0-0.1,0-0.2,0
		h-2.3v-2.3c0,0,0-0.1,0-0.1c0,0,0-0.1,0-0.1v-7c0-0.1,0-0.1,0-0.2c0,0,0-0.1,0-0.1v-7c0-2.8-2.2-5-5-5h-7c-2.8,0-5,2.2-5,5v2.3
		h-2.2c-2.8,0-5,2.2-5,5v7c0,0,0,0.1,0,0.1c0,0,0,0.1,0,0.1v7c0,0.1,0,0.1,0,0.1c0,0.1,0,0.1,0,0.2v7c0,0.1,0,0.1,0,0.1
		c0,0,0,0.1,0,0.1v7c0,2.8,2.2,5,5,5h2.2v2.2c0,0.9,0.2,1.8,0.7,2.5h-2.9c-2.8,0-5,2.2-5,5v2.3H5c-2.8,0-5,2.2-5,5v7
		c0,1.5,0.7,2.8,1.7,3.8c-1,0.9-1.7,2.3-1.7,3.8v7c0,2.8,2.2,5,5,5h7c0.1,0,0.2,0,0.3,0h2.2v2.3c0,0,0,0.1,0,0.1c0,0,0,0.1,0,0.1v7
		c0,2.8,2.2,5,5,5h7c0.9,0,1.8-0.2,2.5-0.7v3c0,0,0,0.1,0,0.1c0,0,0,0.1,0,0.1v2.3h-2.2c-2.8,0-5,2.2-5,5v7c0,0,0,0.1,0,0.2
		c0,0,0,0.1,0,0.1v7c0,0,0,0.1,0,0.1c0,0,0,0.1,0,0.1v7c0,2.8,2.2,5,5,5h7c2.8,0,5-2.2,5-5v-7c0,0,0-0.1,0-0.1c0,0,0-0.1,0-0.1v-2.3
		H41c2.8,0,5-2.2,5-5v-7c0,0,0-0.1,0-0.1c0,0,0-0.1,0-0.2V147c0.8,0.5,1.6,0.7,2.6,0.7h2.2v2.2c0,2.8,2.2,5,5,5h2.3v2.3
		c0,2.8,2.2,5,5,5h2.2v2.3c0,0,0,0.1,0,0.1c0,0,0,0.1,0,0.1v7c0,0,0,0.1,0,0.2c0,0,0,0.1,0,0.1v7c0,2.8,2.2,5,5,5h2.3v2.3
		c0,2.8,2.2,5,5,5h7c2.8,0,5-2.2,5-5V184h2.3c2.8,0,5-2.2,5-5v-7c0,0,0-0.1,0-0.1c0-0.1,0-0.1,0-0.2v-7c0,0,0-0.1,0-0.1
		c0,0,0-0.1,0-0.1v-2.3h2.2c0.1,0,0.2,0,0.3,0h2.2v2.3c0,0,0,0.1,0,0.1c0,0,0,0.1,0,0.1v7c0,0,0,0.1,0,0.2c0,0,0,0.1,0,0.1v7
		c0,2.8,2.2,5,5,5h2.3v2.3c0,2.8,2.2,5,5,5h7c2.8,0,5-2.2,5-5V184h2.3c2.8,0,5-2.2,5-5v-7c0,0,0-0.1,0-0.1c0-0.1,0-0.1,0-0.2v-7
		c0,0,0-0.1,0-0.1c0,0,0-0.1,0-0.1v-2.3h2.2c2.8,0,5-2.2,5-5v-7c0,0,0-0.1,0-0.1c0,0,0-0.1,0-0.2v-2.2h2.3c0.9,0,1.8-0.2,2.5-0.7
		v2.9c0,0,0,0.1,0,0.2c0,0,0,0.1,0,0.1v7c0,2.8,2.2,5,5,5h2.3v2.3c0,0,0,0.1,0,0.1c0,0,0,0.1,0,0.1v7c0,2.8,2.2,5,5,5h7
		c2.8,0,5-2.2,5-5v-7c0,0,0-0.1,0-0.1c0,0,0-0.1,0-0.1v-7c0,0,0-0.1,0-0.1c0-0.1,0-0.1,0-0.2v-7c0-2.8-2.2-5-5-5h-2.3v-2.3
		c0,0,0-0.1,0-0.1c0,0,0-0.1,0-0.1v-3c0.7,0.4,1.6,0.7,2.5,0.7h7c2.8,0,5-2.2,5-5v-7c0,0,0-0.1,0-0.1c0,0,0-0.1,0-0.1v-2.3h2.3
		c0.1,0,0.1,0,0.2,0h7c2.8,0,5-2.2,5-5v-7c0-0.9-0.2-1.8-0.7-2.5h3c2.8,0,5-2.2,5-5v-7C198.5,96.6,196.3,94.4,193.5,94.4z"/>
</g>
<g id="Слой_2">
	<path class="st1" d="M5,99.4h7v7H5V99.4z M5,113.9h7v7H5V113.9z M12.3,48.6h7v7h-7V48.6z M12.3,55.8h7v7h-7V55.8z M12.3,63.1h7v7
		h-7V63.1z M12.3,70.4h7v7h-7V70.4z M12.3,92.1h7v7h-7V92.1z M12.3,99.4h7v7h-7V99.4z M12.3,113.9h7v7h-7V113.9z M19.5,41.3h7v7h-7
		V41.3z M19.5,48.6h7v7h-7V48.6z M19.5,55.8h7v7h-7V55.8z M19.5,63.1h7v7h-7V63.1z M19.5,70.4h7v7h-7V70.4z M19.5,77.6h7v7h-7V77.6z
		 M19.5,92.1h7v7h-7V92.1z M19.5,99.4h7v7h-7V99.4z M19.5,113.9h7v7h-7V113.9z M19.5,121.2h7v7h-7V121.2z M19.5,128.4h7v7h-7V128.4z
		 M26.8,63.1h7v7h-7V63.1z M26.8,70.4h7v7h-7V70.4z M26.8,77.6h7v7h-7V77.6z M26.8,92.1h7v7h-7V92.1z M26.8,99.4h7v7h-7V99.4z
		 M26.8,113.9h7v7h-7V113.9z M26.8,150.2h7v7h-7V150.2z M26.8,157.5h7v7h-7V157.5z M26.8,164.7h7v7h-7V164.7z M34,63.1h7v7h-7V63.1z
		 M34,70.4h7v7h-7V70.4z M34,77.6h7v7h-7V77.6z M34,84.9h7v7h-7V84.9z M34,92.1h7v7h-7V92.1z M34,99.4h7v7h-7V99.4z M34,106.6h7v7
		h-7V106.6z M34,113.9h7v7h-7V113.9z M34,121.2h7v7h-7V121.2z M34,128.4h7v7h-7V128.4z M34,135.7h7v7h-7V135.7z M34,142.9h7v7h-7
		V142.9z M34,150.2h7v7h-7V150.2z M41.3,26.8h7v7h-7V26.8z M41.3,34.1h7v7h-7V34.1z M41.3,41.3h7v7h-7V41.3z M41.3,55.8h7v7h-7V55.8
		z M41.3,63.1h7v7h-7V63.1z M41.3,70.4h7v7h-7V70.4z M41.3,77.6h7v7h-7V77.6z M41.3,84.9h7v7h-7V84.9z M41.3,92.1h7v7h-7V92.1z
		 M41.3,99.4h7v7h-7V99.4z M41.3,113.9h7v7h-7V113.9z M41.3,121.2h7v7h-7V121.2z M41.3,128.4h7v7h-7V128.4z M48.6,19.5h7v7h-7V19.5z
		 M48.6,26.8h7v7h-7V26.8z M48.6,34.1h7v7h-7V34.1z M48.6,41.3h7v7h-7V41.3z M48.6,48.6h7v7h-7V48.6z M48.6,63.1h7v7h-7V63.1z
		 M48.6,70.4h7v7h-7V70.4z M48.6,77.6h7v7h-7V77.6z M48.6,84.9h7v7h-7V84.9z M48.6,92.1h7v7h-7V92.1z M48.6,99.4h7v7h-7V99.4z
		 M48.6,106.6h7v7h-7V106.6z M48.6,121.2h7v7h-7V121.2z M48.6,128.4h7v7h-7V128.4z M48.6,135.7h7v7h-7V135.7z M55.8,41.3h7v7h-7
		V41.3z M55.8,48.6h7v7h-7V48.6z M55.8,55.8h7v7h-7V55.8z M55.8,70.4h7v7h-7V70.4z M55.8,77.6h7v7h-7V77.6z M55.8,84.9h7v7h-7V84.9z
		 M55.8,92.1h7v7h-7V92.1z M55.8,99.4h7v7h-7V99.4z M55.8,113.9h7v7h-7V113.9z M55.8,121.2h7v7h-7V121.2z M55.8,128.4h7v7h-7V128.4z
		 M55.8,135.7h7v7h-7V135.7z M55.8,142.9h7v7h-7V142.9z M63.1,34.1h7v7h-7V34.1z M63.1,41.3h7v7h-7V41.3z M63.1,48.6h7v7h-7V48.6z
		 M63.1,63.1h7v7h-7V63.1z M63.1,70.4h7v7h-7V70.4z M63.1,77.6h7v7h-7V77.6z M63.1,84.9h7v7h-7V84.9z M63.1,106.6h7v7h-7V106.6z
		 M63.1,121.2h7v7h-7V121.2z M63.1,128.4h7v7h-7V128.4z M63.1,135.7h7v7h-7V135.7z M63.1,142.9h7v7h-7V142.9z M63.1,150.2h7v7h-7
		V150.2z M70.3,12.3h7v7h-7V12.3z M70.3,19.5h7v7h-7V19.5z M70.3,26.8h7v7h-7V26.8z M70.3,34.1h7v7h-7V34.1z M70.3,41.3h7v7h-7V41.3
		z M70.3,48.6h7v7h-7V48.6z M70.3,55.8h7v7h-7V55.8z M70.3,70.4h7v7h-7V70.4z M70.3,77.6h7v7h-7V77.6z M70.3,113.9h7v7h-7V113.9z
		 M70.3,121.2h7v7h-7V121.2z M70.3,128.4h7v7h-7V128.4z M70.3,135.7h7v7h-7V135.7z M70.3,142.9h7v7h-7V142.9z M70.3,150.2h7v7h-7
		V150.2z M70.3,157.5h7v7h-7V157.5z M70.3,164.7h7v7h-7V164.7z M70.3,172h7v7h-7V172z M77.6,5h7v7h-7V5z M77.6,12.3h7v7h-7V12.3z
		 M77.6,19.5h7v7h-7V19.5z M77.6,26.8h7v7h-7V26.8z M77.6,34.1h7v7h-7V34.1z M77.6,41.3h7v7h-7V41.3z M77.6,48.6h7v7h-7V48.6z
		 M77.6,63.1h7v7h-7V63.1z M77.6,70.4h7v7h-7V70.4z M77.6,77.6h7v7h-7V77.6z M77.6,113.9h7v7h-7V113.9z M77.6,121.2h7v7h-7V121.2z
		 M77.6,128.4h7v7h-7V128.4z M77.6,179.3h7v7h-7V179.3z M84.9,26.8h7v7h-7V26.8z M84.9,34.1h7v7h-7V34.1z M84.9,41.3h7v7h-7V41.3z
		 M84.9,48.6h7v7h-7V48.6z M84.9,55.8h7v7h-7V55.8z M84.9,70.4h7v7h-7V70.4z M84.9,77.6h7v7h-7V77.6z M84.9,84.9h7v7h-7V84.9z
		 M84.9,106.6h7v7h-7V106.6z M84.9,113.9h7v7h-7V113.9z M84.9,121.2h7v7h-7V121.2z M84.9,135.7h7v7h-7V135.7z M84.9,142.9h7v7h-7
		V142.9z M84.9,150.2h7v7h-7V150.2z M84.9,157.5h7v7h-7V157.5z M84.9,164.7h7v7h-7V164.7z M84.9,172h7v7h-7V172z M92.1,26.8h7v7h-7
		V26.8z M92.1,34.1h7v7h-7V34.1z M92.1,55.8h7v7h-7V55.8z M92.1,63.1h7v7h-7V63.1z M92.1,77.6h7v7h-7V77.6z M92.1,84.9h7v7h-7V84.9z
		 M92.1,92.1h7v7h-7V92.1z M92.1,99.4h7v7h-7V99.4z M92.1,106.6h7v7h-7V106.6z M92.1,113.9h7v7h-7V113.9z M92.1,128.4h7v7h-7V128.4z
		 M92.1,135.7h7v7h-7V135.7z M92.1,142.9h7v7h-7V142.9z M92.1,150.2h7v7h-7V150.2z M99.4,26.8h7v7h-7V26.8z M99.4,34.1h7v7h-7V34.1z
		 M99.4,55.8h7v7h-7V55.8z M99.4,63.1h7v7h-7V63.1z M99.4,77.6h7v7h-7V77.6z M99.4,84.9h7v7h-7V84.9z M99.4,92.1h7v7h-7V92.1z
		 M99.4,99.4h7v7h-7V99.4z M99.4,106.6h7v7h-7V106.6z M99.4,113.9h7v7h-7V113.9z M99.4,128.4h7v7h-7V128.4z M99.4,135.7h7v7h-7
		V135.7z M99.4,142.9h7v7h-7V142.9z M99.4,150.2h7v7h-7V150.2z M106.6,26.8h7v7h-7V26.8z M106.6,34.1h7v7h-7V34.1z M106.6,41.3h7v7
		h-7V41.3z M106.6,48.6h7v7h-7V48.6z M106.6,55.8h7v7h-7V55.8z M106.6,70.4h7v7h-7V70.4z M106.6,77.6h7v7h-7V77.6z M106.6,84.9h7v7
		h-7V84.9z M106.6,106.6h7v7h-7V106.6z M106.6,113.9h7v7h-7V113.9z M106.6,121.2h7v7h-7V121.2z M106.6,135.7h7v7h-7V135.7z
		 M106.6,142.9h7v7h-7V142.9z M106.6,150.2h7v7h-7V150.2z M106.6,157.5h7v7h-7V157.5z M106.6,164.7h7v7h-7V164.7z M106.6,172h7v7h-7
		V172z M113.9,5h7v7h-7V5z M113.9,12.3h7v7h-7V12.3z M113.9,19.5h7v7h-7V19.5z M113.9,26.8h7v7h-7V26.8z M113.9,34.1h7v7h-7V34.1z
		 M113.9,41.3h7v7h-7V41.3z M113.9,48.6h7v7h-7V48.6z M113.9,63.1h7v7h-7V63.1z M113.9,70.4h7v7h-7V70.4z M113.9,77.6h7v7h-7V77.6z
		 M113.9,113.9h7v7h-7V113.9z M113.9,121.2h7v7h-7V121.2z M113.9,128.4h7v7h-7V128.4z M113.9,179.3h7v7h-7V179.3z M121.2,12.3h7v7
		h-7V12.3z M121.2,19.5h7v7h-7V19.5z M121.2,26.8h7v7h-7V26.8z M121.2,34.1h7v7h-7V34.1z M121.2,41.3h7v7h-7V41.3z M121.2,48.6h7v7
		h-7V48.6z M121.2,55.8h7v7h-7V55.8z M121.2,70.4h7v7h-7V70.4z M121.2,77.6h7v7h-7V77.6z M121.2,113.9h7v7h-7V113.9z M121.2,121.2h7
		v7h-7V121.2z M121.2,128.4h7v7h-7V128.4z M121.2,135.7h7v7h-7V135.7z M121.2,142.9h7v7h-7V142.9z M121.2,150.2h7v7h-7V150.2z
		 M121.2,157.5h7v7h-7V157.5z M121.2,164.7h7v7h-7V164.7z M121.2,172h7v7h-7V172z M128.4,34.1h7v7h-7V34.1z M128.4,41.3h7v7h-7V41.3
		z M128.4,48.6h7v7h-7V48.6z M128.4,63.1h7v7h-7V63.1z M128.4,70.4h7v7h-7V70.4z M128.4,77.6h7v7h-7V77.6z M128.4,84.9h7v7h-7V84.9z
		 M128.4,106.6h7v7h-7V106.6z M128.4,121.2h7v7h-7V121.2z M128.4,128.4h7v7h-7V128.4z M128.4,135.7h7v7h-7V135.7z M128.4,142.9h7v7
		h-7V142.9z M128.4,150.2h7v7h-7V150.2z M135.7,41.3h7v7h-7V41.3z M135.7,48.6h7v7h-7V48.6z M135.7,55.8h7v7h-7V55.8z M135.7,70.4h7
		v7h-7V70.4z M135.7,77.6h7v7h-7V77.6z M135.7,84.9h7v7h-7V84.9z M135.7,92.1h7v7h-7V92.1z M135.7,99.4h7v7h-7V99.4z M135.7,113.9h7
		v7h-7V113.9z M135.7,121.2h7v7h-7V121.2z M135.7,128.4h7v7h-7V128.4z M135.7,135.7h7v7h-7V135.7z M142.9,19.5h7v7h-7V19.5z
		 M142.9,26.8h7v7h-7V26.8z M142.9,34.1h7v7h-7V34.1z M142.9,41.3h7v7h-7V41.3z M142.9,48.6h7v7h-7V48.6z M142.9,63.1h7v7h-7V63.1z
		 M142.9,70.4h7v7h-7V70.4z M142.9,77.6h7v7h-7V77.6z M142.9,84.9h7v7h-7V84.9z M142.9,92.1h7v7h-7V92.1z M142.9,99.4h7v7h-7V99.4z
		 M142.9,106.6h7v7h-7V106.6z M142.9,121.2h7v7h-7V121.2z M142.9,128.4h7v7h-7V128.4z M150.2,26.8h7v7h-7V26.8z M150.2,34.1h7v7h-7
		V34.1z M150.2,41.3h7v7h-7V41.3z M150.2,55.8h7v7h-7V55.8z M150.2,63.1h7v7h-7V63.1z M150.2,70.4h7v7h-7V70.4z M150.2,77.6h7v7h-7
		V77.6z M150.2,84.9h7v7h-7V84.9z M150.2,92.1h7v7h-7V92.1z M150.2,99.4h7v7h-7V99.4z M150.2,113.9h7v7h-7V113.9z M150.2,121.2h7v7
		h-7V121.2z M150.2,128.4h7v7h-7V128.4z M150.2,135.7h7v7h-7V135.7z M150.2,142.9h7v7h-7V142.9z M150.2,150.2h7v7h-7V150.2z
		 M157.5,63.1h7v7h-7V63.1z M157.5,70.4h7v7h-7V70.4z M157.5,77.6h7v7h-7V77.6z M157.5,84.9h7v7h-7V84.9z M157.5,92.1h7v7h-7V92.1z
		 M157.5,99.4h7v7h-7V99.4z M157.5,106.6h7v7h-7V106.6z M157.5,113.9h7v7h-7V113.9z M157.5,150.2h7v7h-7V150.2z M157.5,157.5h7v7h-7
		V157.5z M157.5,164.7h7v7h-7V164.7z M164.7,63.1h7v7h-7V63.1z M164.7,70.4h7v7h-7V70.4z M164.7,77.6h7v7h-7V77.6z M164.7,92.1h7v7
		h-7V92.1z M164.7,99.4h7v7h-7V99.4z M164.7,113.9h7v7h-7V113.9z M164.7,121.2h7v7h-7V121.2z M164.7,128.4h7v7h-7V128.4z M172,41.3
		h7v7h-7V41.3z M172,48.6h7v7h-7V48.6z M172,55.8h7v7h-7V55.8z M172,63.1h7v7h-7V63.1z M172,70.4h7v7h-7V70.4z M172,77.6h7v7h-7
		V77.6z M172,92.1h7v7h-7V92.1z M172,99.4h7v7h-7V99.4z M172,113.9h7v7h-7V113.9z M179.2,48.6h7v7h-7V48.6z M179.2,55.8h7v7h-7V55.8
		z M179.2,63.1h7v7h-7V63.1z M179.2,70.4h7v7h-7V70.4z M179.2,92.1h7v7h-7V92.1z M179.2,99.4h7v7h-7V99.4z M179.2,113.9h7v7h-7
		V113.9z M186.5,99.4h7v7h-7V99.4z"/>
</g>
</svg>
