<?xml version="1.0" encoding="utf-8"?>
<!-- Generator: Adobe Illustrator 27.3.1, SVG Export Plug-In . SVG Version: 6.00 Build 0)  -->
<svg version="1.1" id="Слой_1" xmlns="http://www.w3.org/2000/svg" xmlns:xlink="http://www.w3.org/1999/xlink" x="0px" y="0px"
	 viewBox="0 0 870.9 319.3" style="enable-background:new 0 0 870.9 319.3;" xml:space="preserve">
<style type="text/css">
	.st0{fill:#1E0E01;}
</style>
<g id="Слой_1_00000039096059040633925090000004610280648195930757_">
</g>
<path class="st0" d="M261.3,0h7v7h-7V0z M261.3,7.2h7v7h-7V7.2z M261.3,14.5h7v7h-7V14.5z M261.3,21.8h7v7h-7V21.8z M261.3,29h7v7
	h-7V29z M261.3,36.3h7v7h-7V36.3z M261.3,43.6h7v7h-7V43.6z M261.3,50.8h7v7h-7V50.8z M261.3,58.1h7v7h-7V58.1z M261.3,65.3h7v7h-7
	V65.3z M261.3,72.6h7v7h-7V72.6z M261.3,79.9h7v7h-7V79.9z M261.3,87.1h7v7h-7V87.1z M261.3,94.4h7v7h-7V94.4z M261.3,101.6h7v7h-7
	V101.6z M268.5,0h7v7h-7V0z M268.5,7.2h7v7h-7V7.2z M268.5,14.5h7v7h-7V14.5z M268.5,21.8h7v7h-7V21.8z M268.5,29h7v7h-7V29z
	 M268.5,36.3h7v7h-7V36.3z M268.5,43.6h7v7h-7V43.6z M268.5,50.8h7v7h-7V50.8z M268.5,58.1h7v7h-7V58.1z M268.5,65.3h7v7h-7V65.3z
	 M268.5,72.6h7v7h-7V72.6z M268.5,79.9h7v7h-7V79.9z M268.5,87.1h7v7h-7V87.1z M268.5,108.9h7v7h-7V108.9z M275.8,94.4h7v7h-7V94.4z
	 M275.8,116.1h7v7h-7V116.1z M283.1,0h7v7h-7V0z M283.1,7.2h7v7h-7V7.2z M283.1,14.5h7v7h-7V14.5z M283.1,21.8h7v7h-7V21.8z
	 M283.1,29h7v7h-7V29z M283.1,36.3h7v7h-7V36.3z M283.1,43.6h7v7h-7V43.6z M283.1,50.8h7v7h-7V50.8z M283.1,58.1h7v7h-7V58.1z
	 M283.1,65.3h7v7h-7V65.3z M283.1,72.6h7v7h-7V72.6z M283.1,79.9h7v7h-7V79.9z M283.1,101.6h7v7h-7V101.6z M283.1,123.4h7v7h-7
	V123.4z M290.3,0h7v7h-7V0z M290.3,7.2h7v7h-7V7.2z M290.3,14.5h7v7h-7V14.5z M290.3,21.8h7v7h-7V21.8z M290.3,29h7v7h-7V29z
	 M290.3,36.3h7v7h-7V36.3z M290.3,43.6h7v7h-7V43.6z M290.3,50.8h7v7h-7V50.8z M290.3,58.1h7v7h-7V58.1z M290.3,65.3h7v7h-7V65.3z
	 M290.3,87.1h7v7h-7V87.1z M290.3,108.9h7v7h-7V108.9z M290.3,130.7h7v7h-7V130.7z M297.6,72.6h7v7h-7V72.6z M297.6,94.4h7v7h-7
	V94.4z M297.6,116.1h7v7h-7V116.1z M297.6,137.9h7v7h-7V137.9z M297.6,152.4h7v7h-7V152.4z M297.6,159.7h7v7h-7V159.7z M297.6,167h7
	v7h-7V167z M304.8,0h7v7h-7V0z M304.8,7.2h7v7h-7V7.2z M304.8,14.5h7v7h-7V14.5z M304.8,21.8h7v7h-7V21.8z M304.8,29h7v7h-7V29z
	 M304.8,36.3h7v7h-7V36.3z M304.8,43.6h7v7h-7V43.6z M304.8,50.8h7v7h-7V50.8z M304.8,58.1h7v7h-7V58.1z M304.8,79.9h7v7h-7V79.9z
	 M304.8,101.6h7v7h-7V101.6z M304.8,123.4h7v7h-7V123.4z M297.6,145.2h7v7h-7V145.2z M304.8,174.2h7v7h-7V174.2z M312.1,0h7v7h-7V0z
	 M312.1,7.2h7v7h-7V7.2z M312.1,14.5h7v7h-7V14.5z M312.1,21.8h7v7h-7V21.8z M312.1,29h7v7h-7V29z M312.1,36.3h7v7h-7V36.3z
	 M312.1,43.6h7v7h-7V43.6z M312.1,65.3h7v7h-7V65.3z M312.1,87.1h7v7h-7V87.1z M312.1,108.9h7v7h-7V108.9z M319.4,116.1h7v7h-7
	V116.1z M304.9,137.9h7v7h-7V137.9z M312.1,181.5h7v7h-7V181.5z M319.4,50.8h7v7h-7V50.8z M319.4,72.6h7v7h-7V72.6z M319.4,94.4h7v7
	h-7V94.4z M319.4,123.4h7v7h-7V123.4z M312.1,130.7h7v7h-7V130.7z M319.4,145.2h7v7h-7V145.2z M319.4,152.4h7v7h-7V152.4z
	 M319.4,159.7h7v7h-7V159.7z M319.4,167h7v7h-7V167z M319.4,188.8h7v7h-7V188.8z M326.6,0h7v7h-7V0z M326.6,7.2h7v7h-7V7.2z
	 M326.6,14.5h7v7h-7V14.5z M326.6,21.8h7v7h-7V21.8z M326.6,29h7v7h-7V29z M326.6,36.3h7v7h-7V36.3z M326.6,58.1h7v7h-7V58.1z
	 M326.6,79.9h7v7h-7V79.9z M326.6,101.6h7v7h-7V101.6z M326.6,116.1h7v7h-7V116.1z M326.6,137.9h7v7h-7V137.9z M326.6,145.2h7v7h-7
	V145.2z M326.6,159.7h7v7h-7V159.7z M326.6,174.2h7v7h-7V174.2z M326.6,196h7v7h-7V196z M333.9,0h7v7h-7V0z M333.9,7.2h7v7h-7V7.2z
	 M333.9,14.5h7v7h-7V14.5z M333.9,21.8h7v7h-7V21.8z M333.9,43.6h7v7h-7V43.6z M333.9,65.3h7v7h-7V65.3z M333.9,87.1h7v7h-7V87.1z
	 M341.1,94.4h7v7h-7V94.4z M333.9,108.9h7v7h-7V108.9z M333.9,137.9h7v7h-7V137.9z M333.9,145.2h7v7h-7V145.2z M333.9,152.4h7v7h-7
	V152.4z M333.9,159.7h7v7h-7V159.7z M333.9,167h7v7h-7V167z M333.9,174.2h7v7h-7V174.2z M333.9,203.3h7v7h-7V203.3z M341.1,29h7v7
	h-7V29z M341.1,50.8h7v7h-7V50.8z M341.1,72.6h7v7h-7V72.6z M341.1,101.6h7v7h-7V101.6z M341.1,210.5h7v7h-7V210.5z M348.4,0h7v7h-7
	V0z M348.4,7.2h7v7h-7V7.2z M348.4,14.5h7v7h-7V14.5z M348.4,36.3h7v7h-7V36.3z M348.4,58.1h7v7h-7V58.1z M348.4,79.9h7v7h-7V79.9z
	 M348.4,94.4h7v7h-7V94.4z M348.4,217.8h7v7h-7V217.8z M355.7,0h7v7h-7V0z M355.7,21.8h7v7h-7V21.8z M355.7,43.6h7v7h-7V43.6z
	 M355.7,65.3h7v7h-7V65.3z M355.7,87.1h7v7h-7V87.1z M355.7,116.1h7v7h-7V116.1z M355.7,123.4h7v7h-7V123.4z M355.7,130.7h7v7h-7
	V130.7z M355.7,137.9h7v7h-7V137.9z M355.7,145.2h7v7h-7V145.2z M355.7,152.4h7v7h-7V152.4z M355.7,159.7h7v7h-7V159.7z M355.7,167
	h7v7h-7V167z M355.7,174.2h7v7h-7V174.2z M355.7,181.5h7v7h-7V181.5z M355.7,188.8h7v7h-7V188.8z M355.7,196h7v7h-7V196z
	 M355.7,203.3h7v7h-7V203.3z M355.7,225h7v7h-7V225z M362.9,7.2h7v7h-7V7.2z M362.9,29h7v7h-7V29z M362.9,50.8h7v7h-7V50.8z
	 M362.9,72.6h7v7h-7V72.6z M362.9,79.9h7v7h-7V79.9z M362.9,108.9h7v7h-7V108.9z M362.9,116.1h7v7h-7V116.1z M362.9,130.7h7v7h-7
	V130.7z M362.9,145.2h7v7h-7V145.2z M362.9,152.4h7v7h-7V152.4z M362.9,167h7v7h-7V167z M362.9,181.5h7v7h-7V181.5z M362.9,188.8h7
	v7h-7V188.8z M362.9,203.3h7v7h-7V203.3z M362.9,210.5h7v7h-7V210.5z M362.9,232.3h7v7h-7V232.3z M370.2,14.5h7v7h-7V14.5z
	 M370.2,36.3h7v7h-7V36.3z M370.2,58.1h7v7h-7V58.1z M370.2,72.6h7v7h-7V72.6z M370.2,101.6h7v7h-7V101.6z M370.2,108.9h7v7h-7
	V108.9z M370.2,116.1h7v7h-7V116.1z M370.2,123.4h7v7h-7V123.4z M370.2,130.7h7v7h-7V130.7z M370.2,137.9h7v7h-7V137.9z
	 M370.2,145.2h7v7h-7V145.2z M370.2,152.4h7v7h-7V152.4z M370.2,159.7h7v7h-7V159.7z M370.2,167h7v7h-7V167z M370.2,174.2h7v7h-7
	V174.2z M370.2,181.5h7v7h-7V181.5z M370.2,188.8h7v7h-7V188.8z M370.2,196h7v7h-7V196z M370.2,203.3h7v7h-7V203.3z M370.2,210.5h7
	v7h-7V210.5z M370.2,217.8h7v7h-7V217.8z M370.2,239.6h7v7h-7V239.6z M377.4,21.8h7v7h-7V21.8z M377.4,43.6h7v7h-7V43.6z
	 M377.4,65.3h7v7h-7V65.3z M377.4,94.4h7v7h-7V94.4z M377.4,108.9h7v7h-7V108.9z M377.4,210.5h7v7h-7V210.5z M377.4,217.8h7v7h-7
	V217.8z M377.4,225h7v7h-7V225z M377.4,246.8h7v7h-7V246.8z M384.7,29h7v7h-7V29z M384.7,50.8h7v7h-7V50.8z M384.7,58.1h7v7h-7V58.1
	z M384.7,87.1h7v7h-7V87.1z M384.7,94.4h7v7h-7V94.4z M384.7,101.6h7v7h-7V101.6z M384.7,108.9h7v7h-7V108.9z M384.7,123.4h7v7h-7
	V123.4z M384.7,130.7h7v7h-7V130.7z M384.7,137.9h7v7h-7V137.9z M384.7,145.2h7v7h-7V145.2z M384.7,152.4h7v7h-7V152.4z
	 M384.7,159.7h7v7h-7V159.7z M384.7,167h7v7h-7V167z M384.7,174.2h7v7h-7V174.2z M384.7,181.5h7v7h-7V181.5z M384.7,188.8h7v7h-7
	V188.8z M384.7,196h7v7h-7V196z M384.7,210.5h7v7h-7V210.5z M384.7,225h7v7h-7V225z M384.7,232.3h7v7h-7V232.3z M384.7,254.1h7v7h-7
	V254.1z M392,36.3h7v7h-7V36.3z M392,50.8h7v7h-7V50.8z M392,79.9h7v7h-7V79.9z M392,87.1h7v7h-7V87.1z M392,94.4h7v7h-7V94.4z
	 M392,101.6h7v7h-7V101.6z M392,108.9h7v7h-7V108.9z M392,123.4h7v7h-7V123.4z M392,130.7h7v7h-7V130.7z M392,137.9h7v7h-7V137.9z
	 M392,145.2h7v7h-7V145.2z M392,152.4h7v7h-7V152.4z M392,159.7h7v7h-7V159.7z M392,167h7v7h-7V167z M392,174.2h7v7h-7V174.2z
	 M392,181.5h7v7h-7V181.5z M392,188.8h7v7h-7V188.8z M392,196h7v7h-7V196z M392,210.5h7v7h-7V210.5z M392,217.8h7v7h-7V217.8z
	 M392,225h7v7h-7V225z M392,232.3h7v7h-7V232.3z M392,261.4h7v7h-7V261.4z M399.2,43.6h7v7h-7V43.6z M399.2,79.9h7v7h-7V79.9z
	 M399.2,94.4h7v7h-7V94.4z M399.2,101.6h7v7h-7V101.6z M399.2,108.9h7v7h-7V108.9z M399.2,123.4h7v7h-7V123.4z M399.2,130.7h7v7h-7
	V130.7z M399.2,137.9h7v7h-7V137.9z M399.2,145.2h7v7h-7V145.2z M399.2,152.4h7v7h-7V152.4z M399.2,159.7h7v7h-7V159.7z M399.2,167
	h7v7h-7V167z M399.2,174.2h7v7h-7V174.2z M399.2,181.5h7v7h-7V181.5z M399.2,188.8h7v7h-7V188.8z M399.2,196h7v7h-7V196z
	 M399.2,210.5h7v7h-7V210.5z M399.2,217.8h7v7h-7V217.8z M399.2,232.3h7v7h-7V232.3z M399.2,268.6h7v7h-7V268.6z M406.5,36.3h7v7h-7
	V36.3z M406.5,58.1h7v7h-7V58.1z M406.5,65.3h7v7h-7V65.3z M406.5,79.9h7v7h-7V79.9z M406.5,87.1h7v7h-7V87.1z M406.5,94.4h7v7h-7
	V94.4z M406.5,108.9h7v7h-7V108.9z M406.5,123.4h7v7h-7V123.4z M406.5,130.7h7v7h-7V130.7z M406.5,137.9h7v7h-7V137.9z M406.5,145.2
	h7v7h-7V145.2z M406.5,152.4h7v7h-7V152.4z M406.5,159.7h7v7h-7V159.7z M406.5,167h7v7h-7V167z M406.5,174.2h7v7h-7V174.2z
	 M406.5,181.5h7v7h-7V181.5z M406.5,188.8h7v7h-7V188.8z M406.5,196h7v7h-7V196z M406.5,210.5h7v7h-7V210.5z M406.5,217.8h7v7h-7
	V217.8z M406.5,225h7v7h-7V225z M406.5,232.3h7v7h-7V232.3z M406.5,275.9h7v7h-7V275.9z M413.7,29h7v7h-7V29z M413.7,50.8h7v7h-7
	V50.8z M413.7,65.3h7v7h-7V65.3z M413.7,79.9h7v7h-7V79.9z M413.7,94.4h7v7h-7V94.4z M413.7,101.6h7v7h-7V101.6z M413.7,108.9h7v7
	h-7V108.9z M413.7,123.4h7v7h-7V123.4z M413.7,130.7h7v7h-7V130.7z M413.7,137.9h7v7h-7V137.9z M413.7,145.2h7v7h-7V145.2z
	 M413.7,152.4h7v7h-7V152.4z M413.7,159.7h7v7h-7V159.7z M413.7,167h7v7h-7V167z M413.7,174.2h7v7h-7V174.2z M413.7,181.5h7v7h-7
	V181.5z M413.7,188.8h7v7h-7V188.8z M413.7,196h7v7h-7V196z M413.7,210.5h7v7h-7V210.5z M413.7,217.8h7v7h-7V217.8z M413.7,232.3h7
	v7h-7V232.3z M413.7,254.1h7v7h-7V254.1z M413.7,261.4h7v7h-7V261.4z M413.7,283.1h7v7h-7V283.1z M421,21.8h7v7h-7V21.8z M421,50.8
	h7v7h-7V50.8z M421,58.1h7v7h-7V58.1z M421,65.3h7v7h-7V65.3z M421,79.9h7v7h-7V79.9z M421,87.1h7v7h-7V87.1z M421,101.6h7v7h-7
	V101.6z M421,108.9h7v7h-7V108.9z M421,123.4h7v7h-7V123.4z M421,130.7h7v7h-7V130.7z M421,137.9h7v7h-7V137.9z M421,145.2h7v7h-7
	V145.2z M421,152.4h7v7h-7V152.4z M421,159.7h7v7h-7V159.7z M421,167h7v7h-7V167z M421,174.2h7v7h-7V174.2z M421,181.5h7v7h-7V181.5
	z M421,188.8h7v7h-7V188.8z M421,196h7v7h-7V196z M421,210.5h7v7h-7V210.5z M421,225h7v7h-7V225z M421,232.3h7v7h-7V232.3z
	 M421,254.1h7v7h-7V254.1z M421,268.6h7v7h-7V268.6z M421,290.4h7v7h-7V290.4z M428.3,21.8h7v7h-7V21.8z M428.3,50.8h7v7h-7V50.8z
	 M428.3,65.3h7v7h-7V65.3z M428.3,79.9h7v7h-7V79.9z M428.3,87.1h7v7h-7V87.1z M428.3,94.4h7v7h-7V94.4z M428.3,101.6h7v7h-7V101.6z
	 M428.3,108.9h7v7h-7V108.9z M428.3,123.4h7v7h-7V123.4z M428.3,130.7h7v7h-7V130.7z M428.3,137.9h7v7h-7V137.9z M428.3,145.2h7v7
	h-7V145.2z M428.3,152.4h7v7h-7V152.4z M428.3,159.7h7v7h-7V159.7z M428.3,167h7v7h-7V167z M428.3,174.2h7v7h-7V174.2z M428.3,181.5
	h7v7h-7V181.5z M428.3,188.8h7v7h-7V188.8z M428.3,196h7v7h-7V196z M428.3,210.5h7v7h-7V210.5z M428.3,217.8h7v7h-7V217.8z
	 M428.3,225h7v7h-7V225z M428.3,232.3h7v7h-7V232.3z M428.3,254.1h7v7h-7V254.1z M428.3,261.4h7v7h-7V261.4z M428.3,268.6h7v7h-7
	V268.6z M428.3,290.4h7v7h-7V290.4z M435.5,21.8h7v7h-7V21.8z M435.5,50.8h7v7h-7V50.8z M435.5,58.1h7v7h-7V58.1z M435.5,65.3h7v7
	h-7V65.3z M435.5,79.9h7v7h-7V79.9z M435.5,94.4h7v7h-7V94.4z M435.5,101.6h7v7h-7V101.6z M435.5,108.9h7v7h-7V108.9z M435.5,123.4
	h7v7h-7V123.4z M435.5,130.7h7v7h-7V130.7z M435.5,137.9h7v7h-7V137.9z M435.5,145.2h7v7h-7V145.2z M435.5,152.4h7v7h-7V152.4z
	 M435.5,159.7h7v7h-7V159.7z M435.5,167h7v7h-7V167z M435.5,174.2h7v7h-7V174.2z M435.5,181.5h7v7h-7V181.5z M435.5,188.8h7v7h-7
	V188.8z M435.5,196h7v7h-7V196z M435.5,210.5h7v7h-7V210.5z M435.5,217.8h7v7h-7V217.8z M435.5,232.3h7v7h-7V232.3z M435.5,254.1h7
	v7h-7V254.1z M435.5,268.6h7v7h-7V268.6z M435.5,290.4h7v7h-7V290.4z M442.8,29h7v7h-7V29z M442.8,50.8h7v7h-7V50.8z M442.8,65.3h7
	v7h-7V65.3z M442.8,79.9h7v7h-7V79.9z M442.8,87.1h7v7h-7V87.1z M442.8,94.4h7v7h-7V94.4z M442.8,101.6h7v7h-7V101.6z M442.8,108.9
	h7v7h-7V108.9z M442.8,123.4h7v7h-7V123.4z M442.8,130.7h7v7h-7V130.7z M442.8,137.9h7v7h-7V137.9z M442.8,145.2h7v7h-7V145.2z
	 M442.8,152.4h7v7h-7V152.4z M442.8,159.7h7v7h-7V159.7z M442.8,167h7v7h-7V167z M442.8,174.2h7v7h-7V174.2z M442.8,181.5h7v7h-7
	V181.5z M442.8,188.8h7v7h-7V188.8z M442.8,196h7v7h-7V196z M442.8,210.5h7v7h-7V210.5z M442.8,217.8h7v7h-7V217.8z M442.8,225h7v7
	h-7V225z M442.8,232.3h7v7h-7V232.3z M442.8,254.1h7v7h-7V254.1z M442.8,261.4h7v7h-7V261.4z M442.8,268.6h7v7h-7V268.6z
	 M442.8,290.4h7v7h-7V290.4z M450,36.3h7v7h-7V36.3z M450,58.1h7v7h-7V58.1z M450,65.3h7v7h-7V65.3z M450,79.9h7v7h-7V79.9z
	 M450,94.4h7v7h-7V94.4z M450,108.9h7v7h-7V108.9z M450,123.4h7v7h-7V123.4z M450,130.7h7v7h-7V130.7z M450,137.9h7v7h-7V137.9z
	 M450,145.2h7v7h-7V145.2z M450,152.4h7v7h-7V152.4z M450,159.7h7v7h-7V159.7z M450,167h7v7h-7V167z M450,174.2h7v7h-7V174.2z
	 M450,181.5h7v7h-7V181.5z M450,188.8h7v7h-7V188.8z M450,196h7v7h-7V196z M450,210.5h7v7h-7V210.5z M450,217.8h7v7h-7V217.8z
	 M450,232.3h7v7h-7V232.3z M450,254.1h7v7h-7V254.1z M450,261.4h7v7h-7V261.4z M450,283.1h7v7h-7V283.1z M457.3,43.6h7v7h-7V43.6z
	 M457.3,79.9h7v7h-7V79.9z M457.3,87.1h7v7h-7V87.1z M457.3,94.4h7v7h-7V94.4z M457.3,101.6h7v7h-7V101.6z M457.3,108.9h7v7h-7
	V108.9z M457.3,123.4h7v7h-7V123.4z M457.3,130.7h7v7h-7V130.7z M457.3,137.9h7v7h-7V137.9z M457.3,145.2h7v7h-7V145.2z
	 M457.3,152.4h7v7h-7V152.4z M457.3,159.7h7v7h-7V159.7z M457.3,167h7v7h-7V167z M457.3,174.2h7v7h-7V174.2z M457.3,181.5h7v7h-7
	V181.5z M457.3,188.8h7v7h-7V188.8z M457.3,196h7v7h-7V196z M457.3,210.5h7v7h-7V210.5z M457.3,225h7v7h-7V225z M457.3,232.3h7v7h-7
	V232.3z M457.3,275.9h7v7h-7V275.9z M457.3,290.4h7v7h-7V290.4z M464.6,50.8h7v7h-7V50.8z M464.6,79.9h7v7h-7V79.9z M464.6,94.4h7v7
	h-7V94.4z M464.6,108.9h7v7h-7V108.9z M464.6,123.4h7v7h-7V123.4z M464.6,130.7h7v7h-7V130.7z M464.6,137.9h7v7h-7V137.9z
	 M464.6,145.2h7v7h-7V145.2z M464.6,152.4h7v7h-7V152.4z M464.6,159.7h7v7h-7V159.7z M464.6,167h7v7h-7V167z M464.6,174.2h7v7h-7
	V174.2z M464.6,181.5h7v7h-7V181.5z M464.6,188.8h7v7h-7V188.8z M464.6,196h7v7h-7V196z M464.6,210.5h7v7h-7V210.5z M464.6,217.8h7
	v7h-7V217.8z M464.6,232.3h7v7h-7V232.3z M464.6,268.6h7v7h-7V268.6z M464.6,297.6h7v7h-7V297.6z M471.8,36.3h7v7h-7V36.3z
	 M471.8,58.1h7v7h-7V58.1z M471.8,79.9h7v7h-7V79.9z M471.8,87.1h7v7h-7V87.1z M471.8,94.4h7v7h-7V94.4z M471.8,101.6h7v7h-7V101.6z
	 M471.8,108.9h7v7h-7V108.9z M471.8,123.4h7v7h-7V123.4z M471.8,130.7h7v7h-7V130.7z M471.8,137.9h7v7h-7V137.9z M471.8,145.2h7v7
	h-7V145.2z M471.8,152.4h7v7h-7V152.4z M471.8,159.7h7v7h-7V159.7z M471.8,167h7v7h-7V167z M471.8,174.2h7v7h-7V174.2z M471.8,181.5
	h7v7h-7V181.5z M471.8,188.8h7v7h-7V188.8z M471.8,196h7v7h-7V196z M471.8,210.5h7v7h-7V210.5z M471.8,225h7v7h-7V225z M471.8,232.3
	h7v7h-7V232.3z M471.8,261.4h7v7h-7V261.4z M471.8,275.9h7v7h-7V275.9z M471.8,304.9h7v7h-7V304.9z M471.8,312.2h7v7h-7V312.2z
	 M464.6,304.9h7v7h-7V304.9z M464.6,312.2h7v7h-7V312.2z M457.3,304.9h7v7h-7V304.9z M457.3,312.2h7v7h-7V312.2z M450.1,304.9h7v7
	h-7V304.9z M450.1,312.2h7v7h-7V312.2z M442.8,304.9h7v7h-7V304.9z M442.8,312.2h7v7h-7V312.2z M435.5,304.9h7v7h-7V304.9z
	 M435.5,312.2h7v7h-7V312.2z M428.3,304.9h7v7h-7V304.9z M428.3,312.2h7v7h-7V312.2z M421,304.9h7v7h-7V304.9z M421,312.2h7v7h-7
	V312.2z M413.8,304.9h7v7h-7V304.9z M413.8,312.2h7v7h-7V312.2z M406.5,304.9h7v7h-7V304.9z M406.5,312.2h7v7h-7V312.2z
	 M399.2,304.9h7v7h-7V304.9z M399.2,312.2h7v7h-7V312.2z M479.1,29h7v7h-7V29z M479.1,50.8h7v7h-7V50.8z M479.1,65.3h7v7h-7V65.3z
	 M479.1,87.1h7v7h-7V87.1z M479.1,94.4h7v7h-7V94.4z M479.1,108.9h7v7h-7V108.9z M479.1,210.5h7v7h-7V210.5z M479.1,217.8h7v7h-7
	V217.8z M479.1,225h7v7h-7V225z M479.1,254.1h7v7h-7V254.1z M479.1,283.1h7v7h-7V283.1z M479.1,297.6h7v7h-7V297.6z M479.1,304.9h7
	v7h-7V304.9z M479.1,312.2h7v7h-7V312.2z M486.3,21.8h7v7h-7V21.8z M486.3,43.6h7v7h-7V43.6z M486.3,72.6h7v7h-7V72.6z M486.3,94.4
	h7v7h-7V94.4z M486.3,101.6h7v7h-7V101.6z M486.3,108.9h7v7h-7V108.9z M486.3,116.1h7v7h-7V116.1z M486.3,123.4h7v7h-7V123.4z
	 M486.3,130.7h7v7h-7V130.7z M486.3,137.9h7v7h-7V137.9z M486.3,145.2h7v7h-7V145.2z M486.3,152.4h7v7h-7V152.4z M486.3,159.7h7v7
	h-7V159.7z M486.3,167h7v7h-7V167z M486.3,174.2h7v7h-7V174.2z M486.3,181.5h7v7h-7V181.5z M486.3,188.8h7v7h-7V188.8z M486.3,196h7
	v7h-7V196z M486.3,203.3h7v7h-7V203.3z M486.3,210.5h7v7h-7V210.5z M486.3,217.8h7v7h-7V217.8z M486.3,246.8h7v7h-7V246.8z
	 M486.3,261.4h7v7h-7V261.4z M486.3,290.4h7v7h-7V290.4z M486.3,297.6h7v7h-7V297.6z M486.3,304.9h7v7h-7V304.9z M493.6,14.5h7v7h-7
	V14.5z M493.6,36.3h7v7h-7V36.3z M493.6,58.1h7v7h-7V58.1z M486.4,65.3h7v7h-7V65.3z M493.6,79.9h7v7h-7V79.9z M493.6,101.6h7v7h-7
	V101.6z M493.6,116.1h7v7h-7V116.1z M493.6,130.7h7v7h-7V130.7z M493.6,137.9h7v7h-7V137.9z M493.6,145.2h7v7h-7V145.2z
	 M493.6,159.7h7v7h-7V159.7z M493.6,174.2h7v7h-7V174.2z M493.6,181.5h7v7h-7V181.5z M493.6,196h7v7h-7V196z M493.6,203.3h7v7h-7
	V203.3z M493.6,210.5h7v7h-7V210.5z M493.6,239.6h7v7h-7V239.6z M493.6,268.6h7v7h-7V268.6z M493.6,283.1h7v7h-7V283.1z
	 M493.6,290.4h7v7h-7V290.4z M493.6,297.6h7v7h-7V297.6z M493.6,312.2h7v7h-7V312.2z M500.9,7.2h7v7h-7V7.2z M500.9,29h7v7h-7V29z
	 M500.9,50.8h7v7h-7V50.8z M500.9,72.6h7v7h-7V72.6z M500.9,87.1h7v7h-7V87.1z M500.9,108.9h7v7h-7V108.9z M500.9,116.1h7v7h-7
	V116.1z M500.9,123.4h7v7h-7V123.4z M500.9,130.7h7v7h-7V130.7z M500.9,137.9h7v7h-7V137.9z M500.9,145.2h7v7h-7V145.2z
	 M500.9,152.4h7v7h-7V152.4z M500.9,167h7v7h-7V167z M500.9,174.2h7v7h-7V174.2z M500.9,188.8h7v7h-7V188.8z M500.9,203.3h7v7h-7
	V203.3z M500.9,232.3h7v7h-7V232.3z M500.9,246.8h7v7h-7V246.8z M500.9,275.9h7v7h-7V275.9z M500.9,283.1h7v7h-7V283.1z
	 M500.9,290.4h7v7h-7V290.4z M500.9,304.9h7v7h-7V304.9z M508.1,0h7v7h-7V0z M508.1,21.8h7v7h-7V21.8z M508.1,43.6h7v7h-7V43.6z
	 M508.1,65.3h7v7h-7V65.3z M508.1,87.1h7v7h-7V87.1z M508.1,94.4h7v7h-7V94.4z M508.1,116.1h7v7h-7V116.1z M508.1,123.4h7v7h-7
	V123.4z M508.1,130.7h7v7h-7V130.7z M508.1,137.9h7v7h-7V137.9z M508.1,145.2h7v7h-7V145.2z M508.1,152.4h7v7h-7V152.4z
	 M508.1,159.7h7v7h-7V159.7z M508.1,167h7v7h-7V167z M508.1,174.2h7v7h-7V174.2z M508.1,181.5h7v7h-7V181.5z M508.1,188.8h7v7h-7
	V188.8z M508.1,196h7v7h-7V196z M508.1,225h7v7h-7V225z M508.1,254.1h7v7h-7V254.1z M508.1,268.6h7v7h-7V268.6z M508.1,275.9h7v7h-7
	V275.9z M508.1,283.1h7v7h-7V283.1z M508.1,297.6h7v7h-7V297.6z M515.4,0h7v7h-7V0z M515.4,7.2h7v7h-7V7.2z M515.4,14.5h7v7h-7V14.5
	z M515.4,36.3h7v7h-7V36.3z M515.4,58.1h7v7h-7V58.1z M515.4,79.9h7v7h-7V79.9z M515.4,101.6h7v7h-7V101.6z M515.4,217.8h7v7h-7
	V217.8z M515.4,232.3h7v7h-7V232.3z M515.4,261.4h7v7h-7V261.4z M515.4,268.6h7v7h-7V268.6z M515.4,275.9h7v7h-7V275.9z
	 M515.4,290.4h7v7h-7V290.4z M515.4,304.9h7v7h-7V304.9z M522.6,29h7v7h-7V29z M522.6,50.8h7v7h-7V50.8z M522.6,72.6h7v7h-7V72.6z
	 M522.6,94.4h7v7h-7V94.4z M522.6,108.9h7v7h-7V108.9z M522.6,137.9h7v7h-7V137.9z M522.6,145.2h7v7h-7V145.2z M522.6,152.4h7v7h-7
	V152.4z M522.6,159.7h7v7h-7V159.7z M522.6,167h7v7h-7V167z M522.6,174.2h7v7h-7V174.2z M522.6,181.5h7v7h-7V181.5z M522.6,210.5h7
	v7h-7V210.5z M522.6,239.6h7v7h-7V239.6z M522.6,254.1h7v7h-7V254.1z M522.6,261.4h7v7h-7V261.4z M522.6,268.6h7v7h-7V268.6z
	 M522.6,283.1h7v7h-7V283.1z M522.6,297.6h7v7h-7V297.6z M529.9,0h7v7h-7V0z M529.9,7.2h7v7h-7V7.2z M529.9,14.5h7v7h-7V14.5z
	 M529.9,21.8h7v7h-7V21.8z M529.9,43.6h7v7h-7V43.6z M529.9,65.3h7v7h-7V65.3z M529.9,87.1h7v7h-7V87.1z M529.9,108.9h7v7h-7V108.9z
	 M529.9,116.1h7v7h-7V116.1z M529.9,137.9h7v7h-7V137.9z M529.9,152.4h7v7h-7V152.4z M529.9,167h7v7h-7V167z M529.9,181.5h7v7h-7
	V181.5z M529.9,203.3h7v7h-7V203.3z M529.9,217.8h7v7h-7V217.8z M529.9,246.8h7v7h-7V246.8z M529.9,254.1h7v7h-7V254.1z
	 M529.9,261.4h7v7h-7V261.4z M529.9,275.9h7v7h-7V275.9z M529.9,290.4h7v7h-7V290.4z M537.2,0h7v7h-7V0z M537.2,7.2h7v7h-7V7.2z
	 M537.2,14.5h7v7h-7V14.5z M537.2,21.8h7v7h-7V21.8z M537.2,29h7v7h-7V29z M537.2,36.3h7v7h-7V36.3z M537.2,58.1h7v7h-7V58.1z
	 M537.2,79.9h7v7h-7V79.9z M537.2,101.6h7v7h-7V101.6z M537.2,123.4h7v7h-7V123.4z M537.2,145.2h7v7h-7V145.2z M537.2,152.4h7v7h-7
	V152.4z M537.2,159.7h7v7h-7V159.7z M537.2,167h7v7h-7V167z M537.2,174.2h7v7h-7V174.2z M537.2,196h7v7h-7V196z M537.2,225h7v7h-7
	V225z M537.2,246.8h7v7h-7V246.8z M537.2,254.1h7v7h-7V254.1z M537.2,261.4h7v7h-7V261.4z M537.2,268.6h7v7h-7V268.6z M537.2,283.1
	h7v7h-7V283.1z M544.4,50.8h7v7h-7V50.8z M544.4,72.6h7v7h-7V72.6z M544.4,94.4h7v7h-7V94.4z M544.4,116.1h7v7h-7V116.1z
	 M544.4,130.7h7v7h-7V130.7z M544.4,188.8h7v7h-7V188.8z M544.4,203.3h7v7h-7V203.3z M544.4,232.3h7v7h-7V232.3z M544.4,246.8h7v7
	h-7V246.8z M544.4,254.1h7v7h-7V254.1z M544.4,261.4h7v7h-7V261.4z M544.4,275.9h7v7h-7V275.9z M551.7,0h7v7h-7V0z M551.7,7.2h7v7
	h-7V7.2z M551.7,14.5h7v7h-7V14.5z M551.7,21.8h7v7h-7V21.8z M551.7,29h7v7h-7V29z M551.7,36.3h7v7h-7V36.3z M551.7,43.6h7v7h-7
	V43.6z M551.7,65.3h7v7h-7V65.3z M551.7,87.1h7v7h-7V87.1z M551.7,108.9h7v7h-7V108.9z M551.7,130.7h7v7h-7V130.7z M551.7,137.9h7v7
	h-7V137.9z M551.7,181.5h7v7h-7V181.5z M551.7,210.5h7v7h-7V210.5z M551.7,239.6h7v7h-7V239.6z M551.7,246.8h7v7h-7V246.8z
	 M551.7,254.1h7v7h-7V254.1z M551.7,261.4h7v7h-7V261.4z M551.7,268.6h7v7h-7V268.6z M551.7,283.1h7v7h-7V283.1z M558.9,0h7v7h-7V0z
	 M558.9,7.2h7v7h-7V7.2z M558.9,14.5h7v7h-7V14.5z M558.9,21.8h7v7h-7V21.8z M558.9,29h7v7h-7V29z M558.9,36.3h7v7h-7V36.3z
	 M558.9,43.6h7v7h-7V43.6z M558.9,50.8h7v7h-7V50.8z M558.9,58.1h7v7h-7V58.1z M558.9,79.9h7v7h-7V79.9z M558.9,101.6h7v7h-7V101.6z
	 M558.9,123.4h7v7h-7V123.4z M558.9,145.2h7v7h-7V145.2z M558.9,174.2h7v7h-7V174.2z M558.9,188.8h7v7h-7V188.8z M558.9,217.8h7v7
	h-7V217.8z M558.9,246.8h7v7h-7V246.8z M558.9,254.1h7v7h-7V254.1z M558.9,261.4h7v7h-7V261.4z M558.9,275.9h7v7h-7V275.9z
	 M566.2,72.6h7v7h-7V72.6z M566.2,94.4h7v7h-7V94.4z M566.2,116.1h7v7h-7V116.1z M566.2,137.9h7v7h-7V137.9z M566.2,152.4h7v7h-7
	V152.4z M566.2,159.7h7v7h-7V159.7z M566.2,167h7v7h-7V167z M573.5,174.2h7v7h-7V174.2z M566.2,196h7v7h-7V196z M566.2,225h7v7h-7
	V225z M566.2,246.8h7v7h-7V246.8z M566.2,254.1h7v7h-7V254.1z M566.2,261.4h7v7h-7V261.4z M566.2,268.6h7v7h-7V268.6z M566.2,283.1
	h7v7h-7V283.1z M573.5,0h7v7h-7V0z M573.5,7.2h7v7h-7V7.2z M573.5,14.5h7v7h-7V14.5z M573.5,21.8h7v7h-7V21.8z M573.5,29h7v7h-7V29z
	 M573.5,36.3h7v7h-7V36.3z M573.5,43.6h7v7h-7V43.6z M573.5,50.8h7v7h-7V50.8z M573.5,58.1h7v7h-7V58.1z M573.5,65.3h7v7h-7V65.3z
	 M573.5,87.1h7v7h-7V87.1z M573.5,108.9h7v7h-7V108.9z M573.5,130.7h7v7h-7V130.7z M580.8,181.6h7v7h-7V181.6z M573.5,203.3h7v7h-7
	V203.3z M573.5,232.3h7v7h-7V232.3z M573.5,246.8h7v7h-7V246.8z M573.5,254.1h7v7h-7V254.1z M573.5,261.4h7v7h-7V261.4z
	 M573.5,275.9h7v7h-7V275.9z M580.7,0h7v7h-7V0z M580.7,7.2h7v7h-7V7.2z M580.7,14.5h7v7h-7V14.5z M580.7,21.8h7v7h-7V21.8z
	 M580.7,29h7v7h-7V29z M580.7,36.3h7v7h-7V36.3z M580.7,43.6h7v7h-7V43.6z M580.7,50.8h7v7h-7V50.8z M580.7,58.1h7v7h-7V58.1z
	 M580.7,65.3h7v7h-7V65.3z M580.7,72.6h7v7h-7V72.6z M580.7,79.9h7v7h-7V79.9z M580.7,101.6h7v7h-7V101.6z M580.7,123.4h7v7h-7
	V123.4z M588,188.8h7v7h-7V188.8z M580.7,210.5h7v7h-7V210.5z M580.7,239.6h7v7h-7V239.6z M580.7,246.8h7v7h-7V246.8z M580.7,254.1
	h7v7h-7V254.1z M580.7,261.4h7v7h-7V261.4z M580.7,268.6h7v7h-7V268.6z M580.7,283.1h7v7h-7V283.1z M588,94.4h7v7h-7V94.4z
	 M588,116.1h7v7h-7V116.1z M595.3,196.1h7v7h-7V196.1z M588,217.8h7v7h-7V217.8z M588,246.8h7v7h-7V246.8z M588,254.1h7v7h-7V254.1z
	 M588,261.4h7v7h-7V261.4z M588,275.9h7v7h-7V275.9z M595.2,0h7v7h-7V0z M595.2,7.2h7v7h-7V7.2z M595.2,14.5h7v7h-7V14.5z
	 M595.2,21.8h7v7h-7V21.8z M595.2,29h7v7h-7V29z M595.2,36.3h7v7h-7V36.3z M595.2,43.6h7v7h-7V43.6z M595.2,50.8h7v7h-7V50.8z
	 M595.2,58.1h7v7h-7V58.1z M595.2,65.3h7v7h-7V65.3z M595.2,72.6h7v7h-7V72.6z M595.2,79.9h7v7h-7V79.9z M595.2,87.1h7v7h-7V87.1z
	 M595.2,108.9h7v7h-7V108.9z M602.5,203.2h7v7h-7V203.2z M595.2,225h7v7h-7V225z M595.2,246.8h7v7h-7V246.8z M595.2,254.1h7v7h-7
	V254.1z M595.2,261.4h7v7h-7V261.4z M595.2,268.6h7v7h-7V268.6z M595.2,283.1h7v7h-7V283.1z M602.5,0h7v7h-7V0z M602.5,7.2h7v7h-7
	V7.2z M602.5,14.5h7v7h-7V14.5z M602.5,21.8h7v7h-7V21.8z M602.5,29h7v7h-7V29z M602.5,36.3h7v7h-7V36.3z M602.5,43.6h7v7h-7V43.6z
	 M602.5,50.8h7v7h-7V50.8z M602.5,58.1h7v7h-7V58.1z M602.5,65.3h7v7h-7V65.3z M602.5,72.6h7v7h-7V72.6z M602.5,79.9h7v7h-7V79.9z
	 M602.5,87.1h7v7h-7V87.1z M602.5,94.4h7v7h-7V94.4z M602.5,101.6h7v7h-7V101.6z M609.8,210.6h7v7h-7V210.6z M602.5,232.3h7v7h-7
	V232.3z M602.5,246.8h7v7h-7V246.8z M602.5,254.1h7v7h-7V254.1z M602.5,261.4h7v7h-7V261.4z M602.5,275.9h7v7h-7V275.9z
	 M617.1,217.8h7v7h-7V217.8z M609.8,239.6h7v7h-7V239.6z M609.8,246.8h7v7h-7V246.8z M609.8,254.1h7v7h-7V254.1z M609.8,261.4h7v7
	h-7V261.4z M609.8,268.6h7v7h-7V268.6z M609.8,283.1h7v7h-7V283.1z M624.3,225.1h7v7h-7V225.1z M617,246.8h7v7h-7V246.8z M617,254.1
	h7v7h-7V254.1z M617,261.4h7v7h-7V261.4z M617,275.9h7v7h-7V275.9z M631.6,232.4h7v7h-7V232.4z M624.3,246.8h7v7h-7V246.8z
	 M624.3,254.1h7v7h-7V254.1z M624.3,261.4h7v7h-7V261.4z M624.3,268.6h7v7h-7V268.6z M624.3,283.1h7v7h-7V283.1z M631.5,246.8h7v7
	h-7V246.8z M631.5,254.1h7v7h-7V254.1z M631.5,261.4h7v7h-7V261.4z M631.5,275.9h7v7h-7V275.9z M638.8,246.8h7v7h-7V246.8z
	 M638.8,254.1h7v7h-7V254.1z M638.8,261.4h7v7h-7V261.4z M638.8,268.6h7v7h-7V268.6z M638.8,283.1h7v7h-7V283.1z M646.1,246.8h7v7
	h-7V246.8z M646.1,254.1h7v7h-7V254.1z M646.1,261.4h7v7h-7V261.4z M646.1,275.9h7v7h-7V275.9z M653.3,246.8h7v7h-7V246.8z
	 M653.3,254.1h7v7h-7V254.1z M653.3,261.4h7v7h-7V261.4z M653.3,268.6h7v7h-7V268.6z M653.3,283.1h7v7h-7V283.1z M660.6,246.8h7v7
	h-7V246.8z M660.6,254.1h7v7h-7V254.1z M660.6,261.4h7v7h-7V261.4z M660.6,275.9h7v7h-7V275.9z M667.8,246.8h7v7h-7V246.8z
	 M667.8,254.1h7v7h-7V254.1z M667.8,261.4h7v7h-7V261.4z M667.8,268.6h7v7h-7V268.6z M667.8,283.1h7v7h-7V283.1z M675.1,246.8h7v7
	h-7V246.8z M675.1,254.1h7v7h-7V254.1z M675.1,261.4h7v7h-7V261.4z M675.1,275.9h7v7h-7V275.9z M682.4,246.8h7v7h-7V246.8z
	 M682.4,254.1h7v7h-7V254.1z M682.4,261.4h7v7h-7V261.4z M682.4,268.6h7v7h-7V268.6z M682.4,283.1h7v7h-7V283.1z M689.6,246.8h7v7
	h-7V246.8z M689.6,254.1h7v7h-7V254.1z M689.6,261.4h7v7h-7V261.4z M689.6,275.9h7v7h-7V275.9z M696.9,246.8h7v7h-7V246.8z
	 M696.9,254.1h7v7h-7V254.1z M696.9,261.4h7v7h-7V261.4z M696.9,268.6h7v7h-7V268.6z M696.9,283.1h7v7h-7V283.1z M704.1,246.8h7v7
	h-7V246.8z M704.1,254.1h7v7h-7V254.1z M704.1,261.4h7v7h-7V261.4z M704.1,275.9h7v7h-7V275.9z M711.4,246.8h7v7h-7V246.8z
	 M711.4,254.1h7v7h-7V254.1z M711.4,261.4h7v7h-7V261.4z M711.4,268.6h7v7h-7V268.6z M711.4,283.1h7v7h-7V283.1z M718.7,246.8h7v7
	h-7V246.8z M718.7,254.1h7v7h-7V254.1z M718.7,261.4h7v7h-7V261.4z M718.7,275.9h7v7h-7V275.9z M725.9,246.8h7v7h-7V246.8z
	 M725.9,254.1h7v7h-7V254.1z M725.9,261.4h7v7h-7V261.4z M725.9,268.6h7v7h-7V268.6z M725.9,283.1h7v7h-7V283.1z M733.2,246.8h7v7
	h-7V246.8z M733.2,254.1h7v7h-7V254.1z M733.2,261.4h7v7h-7V261.4z M733.2,275.9h7v7h-7V275.9z M740.4,246.8h7v7h-7V246.8z
	 M740.4,254.1h7v7h-7V254.1z M740.4,261.4h7v7h-7V261.4z M740.4,268.6h7v7h-7V268.6z M740.4,283.1h7v7h-7V283.1z M747.7,246.8h7v7
	h-7V246.8z M747.7,254.1h7v7h-7V254.1z M747.7,261.4h7v7h-7V261.4z M747.7,275.9h7v7h-7V275.9z M755,246.8h7v7h-7V246.8z M755,254.1
	h7v7h-7V254.1z M755,261.4h7v7h-7V261.4z M755,268.6h7v7h-7V268.6z M755,283.1h7v7h-7V283.1z M762.2,246.8h7v7h-7V246.8z
	 M762.2,254.1h7v7h-7V254.1z M762.2,261.4h7v7h-7V261.4z M762.2,275.9h7v7h-7V275.9z M769.5,246.8h7v7h-7V246.8z M769.5,254.1h7v7
	h-7V254.1z M769.5,261.4h7v7h-7V261.4z M769.5,268.6h7v7h-7V268.6z M769.5,283.1h7v7h-7V283.1z M776.7,246.8h7v7h-7V246.8z
	 M776.7,254.1h7v7h-7V254.1z M776.7,261.4h7v7h-7V261.4z M776.7,275.9h7v7h-7V275.9z M784,246.8h7v7h-7V246.8z M784,254.1h7v7h-7
	V254.1z M784,261.4h7v7h-7V261.4z M784,268.6h7v7h-7V268.6z M791.3,246.8h7v7h-7V246.8z M791.3,254.1h7v7h-7V254.1z M791.3,261.4h7
	v7h-7V261.4z M791.3,275.9h7v7h-7V275.9z M798.5,246.8h7v7h-7V246.8z M798.5,254.1h7v7h-7V254.1z M798.5,261.4h7v7h-7V261.4z
	 M798.5,268.6h7v7h-7V268.6z M805.8,246.8h7v7h-7V246.8z M805.8,254.1h7v7h-7V254.1z M805.8,261.4h7v7h-7V261.4z M813,246.8h7v7h-7
	V246.8z M813,254.1h7v7h-7V254.1z M813,261.4h7v7h-7V261.4z M813,268.6h7v7h-7V268.6z M820.3,246.8h7v7h-7V246.8z M820.3,254.1h7v7
	h-7V254.1z M820.3,261.4h7v7h-7V261.4z M827.6,246.8h7v7h-7V246.8z M827.6,254.1h7v7h-7V254.1z M834.8,246.8h7v7h-7V246.8z
	 M834.8,254.1h7v7h-7V254.1z M842.1,246.8h7v7h-7V246.8z M842.1,254.1h7v7h-7V254.1z M849.3,246.8h7v7h-7V246.8z M856.6,246.8h7v7
	h-7V246.8z M863.9,246.8h7v7h-7V246.8z M464.6,43.6h7v7h-7V43.6z M638.8,239.5h7v7h-7V239.5z M413.6,297.5h-7v-7h7V297.5z
	 M406.3,304.7h-7v-7h7V304.7z M399.1,283h-7v-7h7V283z M399.1,312h-7v-7h7V312z M399.1,319.3h-7v-7h7V319.3z M391.8,290.2h-7v-7h7
	V290.2z M391.8,304.7h-7v-7h7V304.7z M391.8,312h-7v-7h7V312z M391.8,319.3h-7v-7h7V319.3z M384.6,268.5h-7v-7h7V268.5z
	 M384.6,297.5h-7v-7h7V297.5z M384.6,304.7h-7v-7h7V304.7z M384.6,312h-7v-7h7V312z M377.3,275.7h-7v-7h7V275.7z M377.3,290.2h-7v-7
	h7V290.2z M377.3,297.5h-7v-7h7V297.5z M377.3,304.7h-7v-7h7V304.7z M377.3,319.3h-7v-7h7V319.3z M370,253.9h-7v-7h7V253.9z
	 M370,283h-7v-7h7V283z M370,290.2h-7v-7h7V290.2z M370,297.5h-7v-7h7V297.5z M370,312h-7v-7h7V312z M362.8,261.2h-7v-7h7V261.2z
	 M362.8,275.7h-7v-7h7V275.7z M362.8,283h-7v-7h7V283z M362.8,304.7h-7v-7h7V304.7z M355.5,239.4h-7v-7h7V239.4z M355.5,268.5h-7v-7
	h7V268.5z M355.5,275.7h-7v-7h7V275.7z M355.5,283h-7v-7h7V283z M355.5,297.5h-7v-7h7V297.5z M355.5,312h-7v-7h7V312z M348.3,246.7
	h-7v-7h7V246.7z M348.3,261.2l-7,0v-7h7V261.2z M348.3,268.5l-7,0v-7l7,0V268.5z M348.3,275.7l-7,0v-7l7,0V275.7z M348.3,290.2l-7,0
	v-7l7,0V290.2z M348.3,304.7l-7,0v-7l7,0V304.7z M341,224.9h-7v-7h7V224.9z M341,253.9h-7v-7h7V253.9z M341,261.2h-7v-7h7V261.2z
	 M341,268.5h-7v-7h7V268.5z M341,283h-7v-7h7V283z M341,297.5h-7v-7h7V297.5z M333.7,232.1h-7v-7h7V232.1z M333.7,253.9h-7v-7h7
	V253.9z M333.7,261.2h-7v-7h7V261.2z M333.7,268.5h-7v-7h7V268.5z M333.7,275.7h-7v-7h7V275.7z M333.7,290.2h-7v-7h7V290.2z
	 M326.5,210.4h-7v-7h7V210.4z M326.5,239.4h-7v-7h7V239.4z M326.5,253.9h-7v-7h7V253.9z M326.5,261.2h-7v-7h7V261.2z M326.5,268.5
	h-7v-7h7V268.5z M326.5,283h-7v-7h7V283z M319.2,217.6h-7v-7h7V217.6z M319.2,246.7h-7v-7h7V246.7z M319.2,253.9h-7v-7h7V253.9z
	 M319.2,261.2h-7v-7h7V261.2z M319.2,268.5h-7v-7h7V268.5z M319.2,275.7h-7v-7h7V275.7z M319.2,290.2h-7v-7h7V290.2z M312,195.9h-7
	v-7h7V195.9z M312,224.9h-7v-7h7V224.9z M312,253.9h-7v-7h7V253.9z M312,261.2h-7v-7h7V261.2z M312,268.5h-7v-7h7V268.5z M312,283
	h-7v-7h7V283z M297.5,181.3h-7v-7h7V181.3z M304.7,203.1h-7v-7h7V203.1z M304.7,232.1h-7v-7h7V232.1z M304.7,253.9h-7v-7h7V253.9z
	 M304.7,261.2h-7v-7h7V261.2z M304.7,268.5h-7v-7h7V268.5z M304.7,275.7h-7v-7h7V275.7z M304.7,290.2h-7v-7h7V290.2z M290.2,188.6
	h-7v-7h7V188.6z M297.4,210.4h-7v-7h7V210.4z M297.4,239.4h-7v-7h7V239.4z M297.4,253.9h-7v-7h7V253.9z M297.4,261.2h-7v-7h7V261.2z
	 M297.4,268.5h-7v-7h7V268.5z M297.4,283h-7v-7h7V283z M283,195.8h-7v-7h7V195.8z M290.2,217.6h-7v-7h7V217.6z M290.2,246.7h-7v-7h7
	V246.7z M290.2,253.9h-7v-7h7V253.9z M290.2,261.2h-7v-7h7V261.2z M290.2,268.5h-7v-7h7V268.5z M290.2,275.7h-7v-7h7V275.7z
	 M290.2,290.2h-7v-7h7V290.2z M275.7,203.1h-7v-7h7V203.1z M282.9,224.9h-7v-7h7V224.9z M282.9,253.9h-7v-7h7V253.9z M282.9,261.2
	h-7v-7h7V261.2z M282.9,268.5h-7v-7h7V268.5z M282.9,283h-7v-7h7V283z M268.5,210.3h-7v-7h7V210.3z M275.7,232.1h-7v-7h7V232.1z
	 M275.7,253.9h-7v-7h7V253.9z M275.7,261.2h-7v-7h7V261.2z M275.7,268.5h-7v-7h7V268.5z M275.7,275.7h-7v-7h7V275.7z M275.7,290.2
	h-7v-7h7V290.2z M261.2,217.6h-7v-7h7V217.6z M268.4,239.4h-7v-7h7V239.4z M268.4,253.9h-7v-7h7V253.9z M268.4,261.2h-7v-7h7V261.2z
	 M268.4,268.5h-7v-7h7V268.5z M268.4,283h-7v-7h7V283z M253.9,224.8h-7v-7h7V224.8z M261.1,246.7h-7v-7h7V246.7z M261.1,253.9h-7v-7
	h7V253.9z M261.1,261.2h-7v-7h7V261.2z M261.1,268.5h-7v-7h7V268.5z M261.1,275.7h-7v-7h7V275.7z M261.1,290.2h-7v-7h7V290.2z
	 M246.7,232.1h-7v-7h7V232.1z M253.9,253.9h-7v-7h7V253.9z M253.9,261.2h-7v-7h7V261.2z M253.9,268.5h-7v-7h7V268.5z M253.9,283h-7
	v-7h7V283z M239.4,239.4h-7v-7h7V239.4z M246.6,253.9h-7v-7h7V253.9z M246.6,261.2h-7v-7h7V261.2z M246.6,268.5h-7v-7h7V268.5z
	 M246.6,275.7h-7v-7h7V275.7z M246.6,290.2h-7v-7h7V290.2z M239.4,253.9h-7v-7h7V253.9z M239.4,261.2h-7v-7h7V261.2z M239.4,268.5
	h-7v-7h7V268.5z M239.4,283h-7v-7h7V283z M232.1,253.9h-7v-7h7V253.9z M232.1,261.2h-7v-7h7V261.2z M232.1,268.5h-7v-7h7V268.5z
	 M232.1,275.7h-7v-7h7V275.7z M232.1,290.2h-7v-7h7V290.2z M224.8,253.9h-7v-7h7V253.9z M224.8,261.2h-7v-7h7V261.2z M224.8,268.5
	h-7v-7h7V268.5z M224.8,283h-7v-7h7V283z M217.6,253.9h-7v-7h7V253.9z M217.6,261.2h-7v-7h7V261.2z M217.6,268.5h-7v-7h7V268.5z
	 M217.6,275.7h-7v-7h7V275.7z M217.6,290.2h-7v-7h7V290.2z M210.3,253.9h-7v-7h7V253.9z M210.3,261.2h-7v-7h7V261.2z M210.3,268.5
	h-7v-7h7V268.5z M210.3,283h-7v-7h7V283z M203.1,253.9h-7v-7h7V253.9z M203.1,261.2h-7v-7h7V261.2z M203.1,268.5h-7v-7h7V268.5z
	 M203.1,275.7h-7v-7h7V275.7z M203.1,290.2h-7v-7h7V290.2z M195.8,253.9h-7v-7h7V253.9z M195.8,261.2h-7v-7h7V261.2z M195.8,268.5
	h-7v-7h7V268.5z M195.8,283h-7v-7h7V283z M188.5,253.9h-7v-7h7V253.9z M188.5,261.2h-7v-7h7V261.2z M188.5,268.5h-7v-7h7V268.5z
	 M188.5,275.7h-7v-7h7V275.7z M188.5,290.2h-7v-7h7V290.2z M181.3,253.9h-7v-7h7V253.9z M181.3,261.2h-7v-7h7V261.2z M181.3,268.5
	h-7v-7h7V268.5z M181.3,283h-7v-7h7V283z M174,253.9h-7v-7h7V253.9z M174,261.2h-7v-7h7V261.2z M174,268.5h-7v-7h7V268.5z
	 M174,275.7h-7v-7h7V275.7z M174,290.2h-7v-7h7V290.2z M166.8,253.9h-7v-7h7V253.9z M166.8,261.2h-7v-7h7V261.2z M166.8,268.5h-7v-7
	h7V268.5z M166.8,283h-7v-7h7V283z M159.5,253.9h-7v-7h7V253.9z M159.5,261.2h-7v-7h7V261.2z M159.5,268.5h-7v-7h7V268.5z
	 M159.5,275.7h-7v-7h7V275.7z M159.5,290.2h-7v-7h7V290.2z M152.2,253.9h-7v-7h7V253.9z M152.2,261.2h-7v-7h7V261.2z M152.2,268.5
	h-7v-7h7V268.5z M152.2,283h-7v-7h7V283z M145,253.9h-7v-7h7V253.9z M145,261.2h-7v-7h7V261.2z M145,268.5h-7v-7h7V268.5z
	 M145,275.7h-7v-7h7V275.7z M145,290.2h-7v-7h7V290.2z M137.7,253.9h-7v-7h7V253.9z M137.7,261.2h-7v-7h7V261.2z M137.7,268.5h-7v-7
	h7V268.5z M137.7,283h-7v-7h7V283z M130.5,253.9h-7v-7h7V253.9z M130.5,261.2h-7v-7h7V261.2z M130.5,268.5h-7v-7h7V268.5z
	 M130.5,275.7h-7v-7h7V275.7z M130.5,290.2h-7v-7h7V290.2z M123.2,253.9h-7v-7h7V253.9z M123.2,261.2h-7v-7h7V261.2z M123.2,268.5
	h-7v-7h7V268.5z M123.2,283h-7v-7h7V283z M115.9,253.9h-7v-7h7V253.9z M115.9,261.2h-7v-7h7V261.2z M115.9,268.5h-7v-7h7V268.5z
	 M115.9,275.7h-7v-7h7V275.7z M115.9,290.2h-7v-7h7V290.2z M108.7,253.9h-7v-7h7V253.9z M108.7,261.2h-7v-7h7V261.2z M108.7,268.5
	h-7v-7h7V268.5z M108.7,283h-7v-7h7V283z M101.4,253.9h-7v-7h7V253.9z M101.4,261.2h-7v-7h7V261.2z M101.4,268.5h-7v-7h7V268.5z
	 M101.4,275.7h-7v-7h7V275.7z M101.4,290.2h-7v-7h7V290.2z M94.2,253.9h-7v-7h7V253.9z M94.2,261.2h-7v-7h7V261.2z M94.2,268.5h-7
	v-7h7V268.5z M94.2,283h-7v-7h7V283z M86.9,253.9h-7v-7h7V253.9z M86.9,261.2h-7v-7h7V261.2z M86.9,268.5h-7v-7h7V268.5z
	 M86.9,275.7h-7v-7h7V275.7z M79.6,253.9h-7v-7h7V253.9z M79.6,261.2h-7v-7h7V261.2z M79.6,268.5h-7v-7h7V268.5z M79.6,283h-7v-7h7
	V283z M72.4,253.9h-7v-7h7V253.9z M72.4,261.2h-7v-7h7V261.2z M72.4,268.5h-7v-7h7V268.5z M72.4,275.7h-7v-7h7V275.7z M65.1,253.9
	h-7v-7h7V253.9z M65.1,261.2h-7v-7h7V261.2z M65.1,268.5h-7v-7h7V268.5z M57.9,253.9h-7v-7h7V253.9z M57.9,261.2h-7v-7h7V261.2z
	 M57.9,268.5h-7v-7h7V268.5z M57.9,275.7h-7v-7h7V275.7z M50.6,253.9h-7v-7h7V253.9z M50.6,261.2h-7v-7h7V261.2z M50.6,268.5h-7v-7
	h7V268.5z M43.3,253.9h-7v-7h7V253.9z M43.3,261.2h-7v-7h7V261.2z M36.1,253.9h-7v-7h7V253.9z M36.1,261.2h-7v-7h7V261.2z
	 M28.8,253.9h-7v-7h7V253.9z M28.8,261.2h-7v-7h7V261.2z M21.6,253.9h-7v-7h7V253.9z M14.3,253.9h-7v-7h7V253.9z M7,253.9H0l0-7h7
	V253.9z M232.1,246.6h-7v-7h7V246.6z"/>
</svg>
