<?xml version="1.0" encoding="utf-8"?>
<!-- Generator: Adobe Illustrator 27.3.1, SVG Export Plug-In . SVG Version: 6.00 Build 0)  -->
<svg version="1.1" id="Слой_1" xmlns="http://www.w3.org/2000/svg" xmlns:xlink="http://www.w3.org/1999/xlink" x="0px" y="0px"
	 viewBox="0 0 1161.4 595" style="enable-background:new 0 0 1161.4 595;" xml:space="preserve">
<style type="text/css">
	.st0{fill:#1E0E01;}
</style>
<g id="Слой_1_00000074421657906549057210000014758819600501606284_">
</g>
<path class="st0" d="M406.6,493.7h7v7h-7V493.7z M406.6,500.9h7v7h-7V500.9z M406.6,508.2h7v7h-7V508.2z M406.6,522.7h7v7h-7V522.7z
	 M413.8,493.7h7v7h-7V493.7z M413.8,500.9h7v7h-7V500.9z M413.8,508.2h7v7h-7V508.2z M413.8,515.4h7v7h-7V515.4z M413.8,530h7v7h-7
	V530z M421.1,493.7h7v7h-7V493.7z M421.1,500.9h7v7h-7V500.9z M421.1,508.2h7v7h-7V508.2z M421.1,522.7h7v7h-7V522.7z M428.4,493.7
	h7v7h-7V493.7z M428.4,500.9h7v7h-7V500.9z M428.4,508.2h7v7h-7V508.2z M428.4,515.4h7v7h-7V515.4z M435.6,493.7h7v7h-7V493.7z
	 M435.6,500.9h7v7h-7V500.9z M435.6,508.2h7v7h-7V508.2z M435.6,522.7h7v7h-7V522.7z M442.9,493.7h7v7h-7V493.7z M442.9,500.9h7v7
	h-7V500.9z M442.9,508.2h7v7h-7V508.2z M442.9,515.4h7v7h-7V515.4z M450.1,493.7h7v7h-7V493.7z M450.1,500.9h7v7h-7V500.9z
	 M450.1,508.2h7v7h-7V508.2z M450.1,522.7h7v7h-7V522.7z M457.4,493.7h7v7h-7V493.7z M457.4,500.9h7v7h-7V500.9z M457.4,508.2h7v7
	h-7V508.2z M464.7,493.7h7v7h-7V493.7z M464.7,500.9h7v7h-7V500.9z M464.7,508.2h7v7h-7V508.2z M471.9,493.7h7v7h-7V493.7z
	 M471.9,500.9h7v7h-7V500.9z M471.9,508.2h7v7h-7V508.2z M479.2,493.7h7v7h-7V493.7z M479.2,500.9h7v7h-7V500.9z M479.2,508.2h7v7
	h-7V508.2z M486.4,493.7h7v7h-7V493.7z M486.4,500.9h7v7h-7V500.9z M486.4,508.2h7v7h-7V508.2z M428.4,530h7v7h-7V530z M442.9,530h7
	v7h-7V530z M457.4,530h7v7h-7V530z M457.4,515.4h7v7h-7V515.4z M464.6,522.7h7v7h-7V522.7z M471.9,530h7v7h-7V530z M471.9,515.4h7v7
	h-7V515.4z M479.1,522.7h7v7h-7V522.7z M486.4,530h7v7h-7V530z M486.4,515.4h7v7h-7V515.4z M493.6,522.7h7v7h-7V522.7z M500.9,530h7
	v7h-7V530z M501,515.4h7v7h-7V515.4z M508.2,522.7h7v7h-7V522.7z M515.5,530h7v7h-7V530z M515.5,515.4h7v7h-7V515.4z M522.7,522.7h7
	v7h-7V522.7z M530,530h7v7h-7V530z M530,515.4h7v7h-7V515.4z M537.2,522.7h7v7h-7V522.7z M544.5,530h7v7h-7V530z M544.5,515.4h7v7
	h-7V515.4z M551.7,522.7h7v7h-7V522.7z M559,530h7v7h-7V530z M559,515.4h7v7h-7V515.4z M566.2,522.7h7v7h-7V522.7z M573.5,530h7v7
	h-7V530z M573.6,515.4h7v7h-7V515.4z M580.8,522.7h7v7h-7V522.7z M588.1,530h7v7h-7V530z M588.1,515.4h7v7h-7V515.4z M595.3,522.7h7
	v7h-7V522.7z M602.6,530h7v7h-7V530z M602.6,515.4h7v7h-7V515.4z M609.8,522.7h7v7h-7V522.7z M617.1,530h7v7h-7V530z M617.1,515.4h7
	v7h-7V515.4z M624.3,522.7h7v7h-7V522.7z M631.6,530h7v7h-7V530z M631.6,515.4h7v7h-7V515.4z M638.8,522.7h7v7h-7V522.7z M646.1,530
	h7v7h-7V530z M646.2,515.4h7v7h-7V515.4z M653.4,522.7h7v7h-7V522.7z M660.7,530h7v7h-7V530z M660.7,515.4h7v7h-7V515.4z
	 M667.9,522.7h7v7h-7V522.7z M675.2,530h7v7h-7V530z M675.2,515.4h7v7h-7V515.4z M682.4,522.7h7v7h-7V522.7z M689.7,530h7v7h-7V530z
	 M689.7,515.4h7v7h-7V515.4z M696.9,522.7h7v7h-7V522.7z M704.2,530h7v7h-7V530z M704.2,515.4h7v7h-7V515.4z M711.4,522.7h7v7h-7
	V522.7z M718.7,530h7v7h-7V530z M718.8,515.4h7v7h-7V515.4z M726,522.7h7v7h-7V522.7z M733.3,530h7v7h-7V530z M733.3,515.4h7v7h-7
	V515.4z M740.5,522.7h7v7h-7V522.7z M747.8,530h7v7h-7V530z M747.8,515.4h7v7h-7V515.4z M755,522.7h7v7h-7V522.7z M762.3,530h7v7h-7
	V530z M762.3,515.4h7v7h-7V515.4z M769.5,522.7h7v7h-7V522.7z M776.8,530h7v7h-7V530z M776.8,515.4h7v7h-7V515.4z M784,522.7h7v7h-7
	V522.7z M791.3,530h7v7h-7V530z M791.4,515.4h7v7h-7V515.4z M798.6,522.7h7v7h-7V522.7z M805.9,530h7v7h-7V530z M805.9,515.4h7v7h-7
	V515.4z M813.1,522.7h7v7h-7V522.7z M820.4,530h7v7h-7V530z M820.4,515.4h7v7h-7V515.4z M827.6,522.7h7v7h-7V522.7z M834.9,530h7v7
	h-7V530z M834.9,515.4h7v7h-7V515.4z M842.1,522.7h7v7h-7V522.7z M849.4,530h7v7h-7V530z M849.4,515.4h7v7h-7V515.4z M856.6,522.7h7
	v7h-7V522.7z M863.9,530h7v7h-7V530z M864,515.4h7v7h-7V515.4z M871.2,522.7h7v7h-7V522.7z M878.5,530h7v7h-7V530z M878.5,515.4h7v7
	h-7V515.4z M885.7,522.7h7v7h-7V522.7z M893,530h7v7h-7V530z M893,515.4h7v7h-7V515.4z M900.2,522.7h7v7h-7V522.7z M907.5,530h7v7
	h-7V530z M907.5,515.4h7v7h-7V515.4z M914.7,522.7h7v7h-7V522.7z M922,530h7v7h-7V530z M922,515.4h7v7h-7V515.4z M929.2,522.7h7v7
	h-7V522.7z M936.5,530h7v7h-7V530z M936.6,515.4h7v7h-7V515.4z M943.8,522.7h7v7h-7V522.7z M951.1,530h7v7h-7V530z M951.1,515.4h7v7
	h-7V515.4z M958.3,522.7h7v7h-7V522.7z M965.6,530h7v7h-7V530z M965.6,515.4h7v7h-7V515.4z M972.8,522.7h7v7h-7V522.7z M980.1,530h7
	v7h-7V530z M980.1,515.4h7v7h-7V515.4z M987.3,522.7h7v7h-7V522.7z M994.6,530h7v7h-7V530z M994.6,515.4h7v7h-7V515.4z
	 M1001.8,522.7h7v7h-7V522.7z M1009.1,530h7v7h-7V530z M1009.2,515.4h7v7h-7V515.4z M1016.4,522.7h7v7h-7V522.7z M1023.7,530h7v7h-7
	V530z M1023.7,515.4h7v7h-7V515.4z M1030.9,522.7h7v7h-7V522.7z M1038.2,530h7v7h-7V530z M1038.2,515.4h7v7h-7V515.4z M1045.4,522.7
	h7v7h-7V522.7z M1052.7,530h7v7h-7V530z M1052.7,515.4h7v7h-7V515.4z M1059.9,522.7h7v7h-7V522.7z M1067.2,530h7v7h-7V530z
	 M1067.2,515.4h7v7h-7V515.4z M1074.4,522.7h7v7h-7V522.7z M1081.7,530h7v7h-7V530z M1081.8,515.4h7v7h-7V515.4z M1089,522.7h7v7h-7
	V522.7z M1096.3,530h7v7h-7V530z M1096.3,515.4h7v7h-7V515.4z M1110.8,515.4h7v7h-7V515.4z M1125.3,515.4h7v7h-7V515.4z
	 M1103.5,522.7h7v7h-7V522.7z M1118,522.7h7v7h-7V522.7z M1110.8,530h7v7h-7V530z M1125.3,530h7v7h-7V530z M1118.1,537.2h7v7h-7
	V537.2z M493.7,493.7h7v7h-7V493.7z M493.7,500.9h7v7h-7V500.9z M493.7,508.2h7v7h-7V508.2z M501,493.7h7v7h-7V493.7z M501,500.9h7
	v7h-7V500.9z M501,508.2h7v7h-7V508.2z M508.2,493.7h7v7h-7V493.7z M508.2,500.9h7v7h-7V500.9z M508.2,508.2h7v7h-7V508.2z
	 M515.5,493.7h7v7h-7V493.7z M515.5,500.9h7v7h-7V500.9z M515.5,508.2h7v7h-7V508.2z M522.7,493.7h7v7h-7V493.7z M522.7,500.9h7v7
	h-7V500.9z M522.7,508.2h7v7h-7V508.2z M530,493.7h7v7h-7V493.7z M530,500.9h7v7h-7V500.9z M530,508.2h7v7h-7V508.2z M537.3,493.7h7
	v7h-7V493.7z M537.3,500.9h7v7h-7V500.9z M537.3,508.2h7v7h-7V508.2z M544.5,493.7h7v7h-7V493.7z M544.5,500.9h7v7h-7V500.9z
	 M544.5,508.2h7v7h-7V508.2z M551.8,493.7h7v7h-7V493.7z M551.8,500.9h7v7h-7V500.9z M551.8,508.2h7v7h-7V508.2z M559,493.7h7v7h-7
	V493.7z M559,500.9h7v7h-7V500.9z M559,508.2h7v7h-7V508.2z M566.3,493.7h7v7h-7V493.7z M566.3,500.9h7v7h-7V500.9z M566.3,508.2h7
	v7h-7V508.2z M573.6,493.7h7v7h-7V493.7z M573.6,500.9h7v7h-7V500.9z M573.6,508.2h7v7h-7V508.2z M580.8,493.7h7v7h-7V493.7z
	 M580.8,500.9h7v7h-7V500.9z M580.8,508.2h7v7h-7V508.2z M588.1,493.7h7v7h-7V493.7z M588.1,500.9h7v7h-7V500.9z M588.1,508.2h7v7
	h-7V508.2z M595.3,493.7h7v7h-7V493.7z M595.3,500.9h7v7h-7V500.9z M595.3,508.2h7v7h-7V508.2z M602.6,493.7h7v7h-7V493.7z
	 M602.6,500.9h7v7h-7V500.9z M602.6,508.2h7v7h-7V508.2z M609.9,493.7h7v7h-7V493.7z M609.9,500.9h7v7h-7V500.9z M609.9,508.2h7v7
	h-7V508.2z M617.1,493.7h7v7h-7V493.7z M617.1,500.9h7v7h-7V500.9z M617.1,508.2h7v7h-7V508.2z M624.4,493.7h7v7h-7V493.7z
	 M624.4,500.9h7v7h-7V500.9z M624.4,508.2h7v7h-7V508.2z M631.6,493.7h7v7h-7V493.7z M631.6,500.9h7v7h-7V500.9z M631.6,508.2h7v7
	h-7V508.2z M638.9,493.7h7v7h-7V493.7z M638.9,500.9h7v7h-7V500.9z M638.9,508.2h7v7h-7V508.2z M646.2,493.7h7v7h-7V493.7z
	 M646.2,500.9h7v7h-7V500.9z M646.2,508.2h7v7h-7V508.2z M653.4,493.7h7v7h-7V493.7z M653.4,500.9h7v7h-7V500.9z M653.4,508.2h7v7
	h-7V508.2z M660.7,493.7h7v7h-7V493.7z M660.7,500.9h7v7h-7V500.9z M660.7,508.2h7v7h-7V508.2z M667.9,493.7h7v7h-7V493.7z
	 M667.9,500.9h7v7h-7V500.9z M667.9,508.2h7v7h-7V508.2z M675.2,493.7h7v7h-7V493.7z M675.2,500.9h7v7h-7V500.9z M675.2,508.2h7v7
	h-7V508.2z M682.5,493.7h7v7h-7V493.7z M682.5,500.9h7v7h-7V500.9z M682.5,508.2h7v7h-7V508.2z M689.7,493.7h7v7h-7V493.7z
	 M689.7,500.9h7v7h-7V500.9z M689.7,508.2h7v7h-7V508.2z M697,493.7h7v7h-7V493.7z M697,500.9h7v7h-7V500.9z M697,508.2h7v7h-7
	V508.2z M711.5,493.7h7v7h-7V493.7z M711.5,501h7v7h-7V501z M711.5,508.3h7v7h-7V508.3z M704.2,493.7h7v7h-7V493.7z M704.2,500.9h7
	v7h-7V500.9z M704.2,508.2h7v7h-7V508.2z M755.1,377.5h7v7h-7V377.5z M762.3,370.2h7v7h-7V370.2z M769.6,363h7v7h-7V363z
	 M769.6,377.5h7v7h-7V377.5z M776.8,355.7h7v7h-7V355.7z M776.8,370.2h7v7h-7V370.2z M726,406.6h7v7h-7V406.6z M726,413.8h7v7h-7
	V413.8z M733.3,399.3h7v7h-7V399.3z M740.5,392h7v7h-7V392z M740.5,406.6h7v7h-7V406.6z M740.5,413.8h7v7h-7V413.8z M747.8,384.8h7
	v7h-7V384.8z M747.8,399.3h7v7h-7V399.3z M755.1,392h7v7h-7V392z M755.1,406.6h7v7h-7V406.6z M755.1,413.8h7v7h-7V413.8z
	 M762.3,384.8h7v7h-7V384.8z M762.3,399.3h7v7h-7V399.3z M769.6,392h7v7h-7V392z M769.6,406.6h7v7h-7V406.6z M769.6,413.8h7v7h-7
	V413.8z M776.8,384.8h7v7h-7V384.8z M776.8,399.3h7v7h-7V399.3z M718.8,428.3h7v7h-7V428.3z M718.8,435.6h7v7h-7V435.6z
	 M718.8,442.9h7v7h-7V442.9z M718.8,450.1h7v7h-7V450.1z M718.8,457.4h7v7h-7V457.4z M718.8,464.6h7v7h-7V464.6z M718.8,471.9h7v7
	h-7V471.9z M726,421.1h7v7h-7V421.1z M726,428.3h7v7h-7V428.3z M726,471.9h7v7h-7V471.9z M726,479.1h7v7h-7V479.1z M726,486.4h7v7
	h-7V486.4z M733.3,428.3h7v7h-7V428.3z M733.3,442.9h7v7h-7V442.9z M733.3,450.1h7v7h-7V450.1z M733.3,457.4h7v7h-7V457.4z
	 M733.3,471.9h7v7h-7V471.9z M740.5,421.1h7v7h-7V421.1z M740.5,428.3h7v7h-7V428.3z M740.5,435.6h7v7h-7V435.6z M740.5,442.9h7v7
	h-7V442.9z M740.5,457.4h7v7h-7V457.4z M740.5,471.9h7v7h-7V471.9z M740.5,479.1h7v7h-7V479.1z M740.5,486.4h7v7h-7V486.4z
	 M747.8,428.3h7v7h-7V428.3z M747.8,435.6h7v7h-7V435.6z M747.8,442.9h7v7h-7V442.9z M747.8,450.1h7v7h-7V450.1z M747.8,457.4h7v7
	h-7V457.4z M747.8,471.9h7v7h-7V471.9z M755.1,421.1h7v7h-7V421.1z M755.1,428.3h7v7h-7V428.3z M755.1,435.6h7v7h-7V435.6z
	 M755.1,442.9h7v7h-7V442.9z M755.1,450.1h7v7h-7V450.1z M755.1,457.4h7v7h-7V457.4z M755.1,471.9h7v7h-7V471.9z M755.1,479.1h7v7
	h-7V479.1z M755.1,486.4h7v7h-7V486.4z M762.3,428.3h7v7h-7V428.3z M762.3,435.6h7v7h-7V435.6z M762.3,442.9h7v7h-7V442.9z
	 M762.3,450.1h7v7h-7V450.1z M762.3,457.4h7v7h-7V457.4z M762.3,471.9h7v7h-7V471.9z M769.6,421.1h7v7h-7V421.1z M769.6,428.3h7v7
	h-7V428.3z M769.6,435.6h7v7h-7V435.6z M769.6,442.9h7v7h-7V442.9z M769.6,450.1h7v7h-7V450.1z M769.6,457.4h7v7h-7V457.4z
	 M769.6,471.9h7v7h-7V471.9z M769.6,479.1h7v7h-7V479.1z M769.6,486.4h7v7h-7V486.4z M776.8,428.3h7v7h-7V428.3z M776.8,435.6h7v7
	h-7V435.6z M776.8,442.9h7v7h-7V442.9z M776.8,457.4h7v7h-7V457.4z M776.8,464.6h7v7h-7V464.6z M776.8,471.9h7v7h-7V471.9z
	 M718.8,493.7h7v7h-7V493.7z M718.8,500.9h7v7h-7V500.9z M718.8,508.2h7v7h-7V508.2z M726,493.7h7v7h-7V493.7z M726,500.9h7v7h-7
	V500.9z M726,508.2h7v7h-7V508.2z M733.3,493.7h7v7h-7V493.7z M733.3,500.9h7v7h-7V500.9z M733.3,508.2h7v7h-7V508.2z M740.5,493.7
	h7v7h-7V493.7z M740.5,500.9h7v7h-7V500.9z M740.5,508.2h7v7h-7V508.2z M747.8,493.7h7v7h-7V493.7z M747.8,500.9h7v7h-7V500.9z
	 M747.8,508.2h7v7h-7V508.2z M755.1,493.7h7v7h-7V493.7z M755.1,500.9h7v7h-7V500.9z M755.1,508.2h7v7h-7V508.2z M762.3,493.7h7v7
	h-7V493.7z M762.3,500.9h7v7h-7V500.9z M762.3,508.2h7v7h-7V508.2z M769.6,493.7h7v7h-7V493.7z M769.6,500.9h7v7h-7V500.9z
	 M769.6,508.2h7v7h-7V508.2z M776.8,493.7h7v7h-7V493.7z M776.8,500.9h7v7h-7V500.9z M776.8,508.2h7v7h-7V508.2z M784.1,58.1h7v7h-7
	V58.1z M784.1,65.3h7v7h-7V65.3z M784.1,72.6h7v7h-7V72.6z M784.1,79.9h7v7h-7V79.9z M784.1,87.1h7v7h-7V87.1z M784.1,94.4h7v7h-7
	V94.4z M784.1,101.6h7v7h-7V101.6z M784.1,108.9h7v7h-7V108.9z M784.1,116.1h7v7h-7V116.1z M784.1,123.4h7v7h-7V123.4z M784.1,348.5
	h7v7h-7V348.5z M784.1,363h7v7h-7V363z M784.1,377.5h7v7h-7V377.5z M791.4,43.6h7v7h-7V43.6z M791.4,50.8h7v7h-7V50.8z M791.4,58.1
	h7v7h-7V58.1z M791.4,65.3h7v7h-7V65.3z M791.4,72.6h7v7h-7V72.6z M791.4,79.9h7v7h-7V79.9z M791.4,87.1h7v7h-7V87.1z M791.4,94.4h7
	v7h-7V94.4z M791.4,101.6h7v7h-7V101.6z M791.4,108.9h7v7h-7V108.9z M791.4,116.1h7v7h-7V116.1z M791.4,123.4h7v7h-7V123.4z
	 M791.4,130.7h7v7h-7V130.7z M791.4,137.9h7v7h-7V137.9z M791.4,341.2h7v7h-7V341.2z M791.4,355.7h7v7h-7V355.7z M791.4,370.2h7v7
	h-7V370.2z M798.6,36.3h7v7h-7V36.3z M798.6,43.6h7v7h-7V43.6z M798.6,50.8h7v7h-7V50.8z M798.6,58.1h7v7h-7V58.1z M798.6,72.6h7v7
	h-7V72.6z M798.6,87.1h7v7h-7V87.1z M798.6,101.6h7v7h-7V101.6z M798.6,116.1h7v7h-7V116.1z M798.6,123.4h7v7h-7V123.4z
	 M798.6,130.7h7v7h-7V130.7z M798.6,137.9h7v7h-7V137.9z M798.6,145.2h7v7h-7V145.2z M798.6,334h7v7h-7V334z M798.6,348.5h7v7h-7
	V348.5z M798.6,363h7v7h-7V363z M798.6,377.5h7v7h-7V377.5z M805.9,36.3h7v7h-7V36.3z M805.9,43.6h7v7h-7V43.6z M805.9,50.8h7v7h-7
	V50.8z M805.9,58.1h7v7h-7V58.1z M805.9,72.6h7v7h-7V72.6z M805.9,87.1h7v7h-7V87.1z M805.9,101.6h7v7h-7V101.6z M805.9,116.1h7v7
	h-7V116.1z M805.9,123.4h7v7h-7V123.4z M805.9,130.7h7v7h-7V130.7z M805.9,137.9h7v7h-7V137.9z M805.9,145.2h7v7h-7V145.2z
	 M805.9,326.7h7v7h-7V326.7z M805.9,341.2h7v7h-7V341.2z M805.9,355.7h7v7h-7V355.7z M805.9,370.2h7v7h-7V370.2z M813.1,29h7v7h-7
	V29z M813.1,36.3h7v7h-7V36.3z M813.1,43.6h7v7h-7V43.6z M813.1,50.8h7v7h-7V50.8z M813.1,58.1h7v7h-7V58.1z M813.1,72.6h7v7h-7
	V72.6z M813.1,79.9h7v7h-7V79.9z M813.1,87.1h7v7h-7V87.1z M813.1,101.6h7v7h-7V101.6z M813.1,108.9h7v7h-7V108.9z M813.1,116.1h7v7
	h-7V116.1z M813.1,123.4h7v7h-7V123.4z M813.1,130.7h7v7h-7V130.7z M813.1,137.9h7v7h-7V137.9z M813.1,145.2h7v7h-7V145.2z
	 M813.1,152.4h7v7h-7V152.4z M813.1,167h7v7h-7V167z M813.1,174.2h7v7h-7V174.2z M813.1,181.5h7v7h-7V181.5z M813.1,188.8h7v7h-7
	V188.8z M813.1,196h7v7h-7V196z M813.1,203.3h7v7h-7V203.3z M813.1,210.5h7v7h-7V210.5z M813.1,217.8h7v7h-7V217.8z M813.1,225h7v7
	h-7V225z M813.1,232.3h7v7h-7V232.3z M813.1,239.6h7v7h-7V239.6z M813.1,319.4h7v7h-7V319.4z M813.1,334h7v7h-7V334z M813.1,348.5h7
	v7h-7V348.5z M813.1,363h7v7h-7V363z M813.1,377.5h7v7h-7V377.5z M820.4,29h7v7h-7V29z M820.4,36.3h7v7h-7V36.3z M820.4,43.6h7v7h-7
	V43.6z M820.4,50.8h7v7h-7V50.8z M820.4,58.1h7v7h-7V58.1z M820.4,65.3h7v7h-7V65.3z M820.4,72.6h7v7h-7V72.6z M820.4,79.9h7v7h-7
	V79.9z M820.4,87.1h7v7h-7V87.1z M820.4,101.6h7v7h-7V101.6z M820.4,108.9h7v7h-7V108.9z M820.4,116.1h7v7h-7V116.1z M820.4,123.4h7
	v7h-7V123.4z M820.4,130.7h7v7h-7V130.7z M820.4,137.9h7v7h-7V137.9z M820.4,145.2h7v7h-7V145.2z M820.4,152.4h7v7h-7V152.4z
	 M820.4,239.6h7v7h-7V239.6z M820.4,246.8h7v7h-7V246.8z M820.4,312.2h7v7h-7V312.2z M820.4,326.7h7v7h-7V326.7z M820.4,341.2h7v7
	h-7V341.2z M820.4,355.7h7v7h-7V355.7z M820.4,370.2h7v7h-7V370.2z M827.7,29h7v7h-7V29z M827.7,36.3h7v7h-7V36.3z M827.7,43.6h7v7
	h-7V43.6z M827.7,50.8h7v7h-7V50.8z M827.7,58.1h7v7h-7V58.1z M827.7,65.3h7v7h-7V65.3z M827.7,72.6h7v7h-7V72.6z M827.7,87.1h7v7
	h-7V87.1z M827.7,94.4h7v7h-7V94.4z M827.7,101.6h7v7h-7V101.6z M827.7,116.1h7v7h-7V116.1z M827.7,123.4h7v7h-7V123.4z
	 M827.7,130.7h7v7h-7V130.7z M827.7,137.9h7v7h-7V137.9z M827.7,145.2h7v7h-7V145.2z M827.7,152.4h7v7h-7V152.4z M827.7,167h7v7h-7
	V167z M827.7,174.2h7v7h-7V174.2z M827.7,181.5h7v7h-7V181.5z M827.7,188.8h7v7h-7V188.8z M827.7,196h7v7h-7V196z M827.7,203.3h7v7
	h-7V203.3z M827.7,210.5h7v7h-7V210.5z M827.7,217.8h7v7h-7V217.8z M827.7,225h7v7h-7V225z M827.7,246.8h7v7h-7V246.8z M827.7,254.1
	h7v7h-7V254.1z M827.7,304.9h7v7h-7V304.9z M827.7,319.4h7v7h-7V319.4z M827.7,334h7v7h-7V334z M827.7,348.5h7v7h-7V348.5z
	 M827.7,363h7v7h-7V363z M827.7,377.5h7v7h-7V377.5z M834.9,36.3h7v7h-7V36.3z M834.9,43.6h7v7h-7V43.6z M834.9,50.8h7v7h-7V50.8z
	 M834.9,58.1h7v7h-7V58.1z M834.9,72.6h7v7h-7V72.6z M834.9,87.1h7v7h-7V87.1z M834.9,94.4h7v7h-7V94.4z M834.9,101.6h7v7h-7V101.6z
	 M834.9,116.1h7v7h-7V116.1z M834.9,123.4h7v7h-7V123.4z M834.9,130.7h7v7h-7V130.7z M834.9,137.9h7v7h-7V137.9z M834.9,145.2h7v7
	h-7V145.2z M834.9,225h7v7h-7V225z M834.9,232.3h7v7h-7V232.3z M834.9,254.1h7v7h-7V254.1z M834.9,297.6h7v7h-7V297.6z M834.9,312.2
	h7v7h-7V312.2z M834.9,326.7h7v7h-7V326.7z M834.9,341.2h7v7h-7V341.2z M834.9,355.7h7v7h-7V355.7z M834.9,370.2h7v7h-7V370.2z
	 M842.2,36.3h7v7h-7V36.3z M842.2,43.6h7v7h-7V43.6z M842.2,50.8h7v7h-7V50.8z M842.2,58.1h7v7h-7V58.1z M842.2,72.6h7v7h-7V72.6z
	 M842.2,87.1h7v7h-7V87.1z M842.2,101.6h7v7h-7V101.6z M842.2,108.9h7v7h-7V108.9z M842.2,116.1h7v7h-7V116.1z M842.2,123.4h7v7h-7
	V123.4z M842.2,130.7h7v7h-7V130.7z M842.2,137.9h7v7h-7V137.9z M842.2,145.2h7v7h-7V145.2z M842.2,167h7v7h-7V167z M842.2,174.2h7
	v7h-7V174.2z M842.2,181.5h7v7h-7V181.5z M842.2,232.3h7v7h-7V232.3z M842.2,239.6h7v7h-7V239.6z M842.2,254.1h7v7h-7V254.1z
	 M842.2,290.4h7v7h-7V290.4z M842.2,304.9h7v7h-7V304.9z M842.2,319.4h7v7h-7V319.4z M842.2,334h7v7h-7V334z M842.2,348.5h7v7h-7
	V348.5z M842.2,363h7v7h-7V363z M842.2,377.5h7v7h-7V377.5z M849.4,43.6h7v7h-7V43.6z M849.4,50.8h7v7h-7V50.8z M849.4,58.1h7v7h-7
	V58.1z M849.4,65.3h7v7h-7V65.3z M849.4,72.6h7v7h-7V72.6z M849.4,79.9h7v7h-7V79.9z M849.4,87.1h7v7h-7V87.1z M849.4,94.4h7v7h-7
	V94.4z M849.4,101.6h7v7h-7V101.6z M849.4,108.9h7v7h-7V108.9z M849.4,116.1h7v7h-7V116.1z M849.4,123.4h7v7h-7V123.4z M849.4,130.7
	h7v7h-7V130.7z M849.4,137.9h7v7h-7V137.9z M849.4,181.5h7v7h-7V181.5z M849.4,203.3h7v7h-7V203.3z M849.4,239.6h7v7h-7V239.6z
	 M849.4,254.1h7v7h-7V254.1z M849.4,283.1h7v7h-7V283.1z M849.4,297.6h7v7h-7V297.6z M849.4,312.2h7v7h-7V312.2z M849.4,326.7h7v7
	h-7V326.7z M849.4,341.2h7v7h-7V341.2z M849.4,355.7h7v7h-7V355.7z M849.4,370.2h7v7h-7V370.2z M784.1,392h7v7h-7V392z M784.1,406.6
	h7v7h-7V406.6z M784.1,413.8h7v7h-7V413.8z M791.4,384.8h7v7h-7V384.8z M791.4,399.3h7v7h-7V399.3z M798.6,392h7v7h-7V392z
	 M798.6,406.6h7v7h-7V406.6z M798.6,413.8h7v7h-7V413.8z M805.9,384.8h7v7h-7V384.8z M805.9,399.3h7v7h-7V399.3z M813.1,392h7v7h-7
	V392z M813.1,406.6h7v7h-7V406.6z M813.1,413.8h7v7h-7V413.8z M820.4,384.8h7v7h-7V384.8z M820.4,399.3h7v7h-7V399.3z M827.7,392h7
	v7h-7V392z M827.7,406.6h7v7h-7V406.6z M827.7,413.8h7v7h-7V413.8z M834.9,384.8h7v7h-7V384.8z M834.9,399.3h7v7h-7V399.3z
	 M842.2,392h7v7h-7V392z M842.2,406.6h7v7h-7V406.6z M842.2,413.8h7v7h-7V413.8z M849.4,384.8h7v7h-7V384.8z M849.4,399.3h7v7h-7
	V399.3z M784.1,421.1h7v7h-7V421.1z M784.1,428.3h7v7h-7V428.3z M784.1,435.6h7v7h-7V435.6z M784.1,450.1h7v7h-7V450.1z
	 M784.1,457.4h7v7h-7V457.4z M784.1,471.9h7v7h-7V471.9z M784.1,479.1h7v7h-7V479.1z M784.1,486.4h7v7h-7V486.4z M791.4,428.3h7v7
	h-7V428.3z M791.4,435.6h7v7h-7V435.6z M791.4,442.9h7v7h-7V442.9z M791.4,457.4h7v7h-7V457.4z M791.4,464.6h7v7h-7V464.6z
	 M791.4,471.9h7v7h-7V471.9z M798.6,421.1h7v7h-7V421.1z M798.6,428.3h7v7h-7V428.3z M798.6,435.6h7v7h-7V435.6z M798.6,450.1h7v7
	h-7V450.1z M798.6,457.4h7v7h-7V457.4z M798.6,471.9h7v7h-7V471.9z M798.6,479.1h7v7h-7V479.1z M798.6,486.4h7v7h-7V486.4z
	 M805.9,428.3h7v7h-7V428.3z M805.9,435.6h7v7h-7V435.6z M805.9,442.9h7v7h-7V442.9z M805.9,457.4h7v7h-7V457.4z M805.9,464.6h7v7
	h-7V464.6z M805.9,471.9h7v7h-7V471.9z M813.1,421.1h7v7h-7V421.1z M813.1,428.3h7v7h-7V428.3z M813.1,435.6h7v7h-7V435.6z
	 M813.1,450.1h7v7h-7V450.1z M813.1,457.4h7v7h-7V457.4z M813.1,464.6h7v7h-7V464.6z M813.1,471.9h7v7h-7V471.9z M813.1,479.1h7v7
	h-7V479.1z M813.1,486.4h7v7h-7V486.4z M820.4,428.3h7v7h-7V428.3z M820.4,435.6h7v7h-7V435.6z M820.4,442.9h7v7h-7V442.9z
	 M820.4,450.1h7v7h-7V450.1z M820.4,457.4h7v7h-7V457.4z M820.4,464.6h7v7h-7V464.6z M820.4,471.9h7v7h-7V471.9z M827.7,421.1h7v7
	h-7V421.1z M827.7,428.3h7v7h-7V428.3z M827.7,435.6h7v7h-7V435.6z M827.7,442.9h7v7h-7V442.9z M827.7,450.1h7v7h-7V450.1z
	 M827.7,457.4h7v7h-7V457.4z M827.7,464.6h7v7h-7V464.6z M827.7,471.9h7v7h-7V471.9z M827.7,479.1h7v7h-7V479.1z M827.7,486.4h7v7
	h-7V486.4z M834.9,428.3h7v7h-7V428.3z M834.9,435.6h7v7h-7V435.6z M834.9,442.9h7v7h-7V442.9z M834.9,457.4h7v7h-7V457.4z
	 M834.9,464.6h7v7h-7V464.6z M834.9,471.9h7v7h-7V471.9z M842.2,421.1h7v7h-7V421.1z M842.2,428.3h7v7h-7V428.3z M842.2,435.6h7v7
	h-7V435.6z M842.2,450.1h7v7h-7V450.1z M842.2,457.4h7v7h-7V457.4z M842.2,464.6h7v7h-7V464.6z M842.2,471.9h7v7h-7V471.9z
	 M842.2,479.1h7v7h-7V479.1z M842.2,486.4h7v7h-7V486.4z M849.4,428.3h7v7h-7V428.3z M849.4,435.6h7v7h-7V435.6z M849.4,442.9h7v7
	h-7V442.9z M849.4,457.4h7v7h-7V457.4z M849.4,464.6h7v7h-7V464.6z M849.4,471.9h7v7h-7V471.9z M784.1,493.7h7v7h-7V493.7z
	 M784.1,500.9h7v7h-7V500.9z M784.1,508.2h7v7h-7V508.2z M791.4,493.7h7v7h-7V493.7z M791.4,500.9h7v7h-7V500.9z M791.4,508.2h7v7
	h-7V508.2z M798.6,493.7h7v7h-7V493.7z M798.6,500.9h7v7h-7V500.9z M798.6,508.2h7v7h-7V508.2z M805.9,493.7h7v7h-7V493.7z
	 M805.9,500.9h7v7h-7V500.9z M805.9,508.2h7v7h-7V508.2z M813.1,493.7h7v7h-7V493.7z M813.1,500.9h7v7h-7V500.9z M813.1,508.2h7v7
	h-7V508.2z M820.4,493.7h7v7h-7V493.7z M820.4,500.9h7v7h-7V500.9z M820.4,508.2h7v7h-7V508.2z M827.7,493.7h7v7h-7V493.7z
	 M827.7,500.9h7v7h-7V500.9z M827.7,508.2h7v7h-7V508.2z M834.9,493.7h7v7h-7V493.7z M834.9,500.9h7v7h-7V500.9z M834.9,508.2h7v7
	h-7V508.2z M842.2,493.7h7v7h-7V493.7z M842.2,500.9h7v7h-7V500.9z M842.2,508.2h7v7h-7V508.2z M849.4,493.7h7v7h-7V493.7z
	 M849.4,500.9h7v7h-7V500.9z M849.4,508.2h7v7h-7V508.2z M856.7,58.1h7v7h-7V58.1z M856.7,65.3h7v7h-7V65.3z M856.7,72.6h7v7h-7
	V72.6z M856.7,79.9h7v7h-7V79.9z M856.7,87.1h7v7h-7V87.1z M856.7,94.4h7v7h-7V94.4z M856.7,101.6h7v7h-7V101.6z M856.7,108.9h7v7
	h-7V108.9z M856.7,116.1h7v7h-7V116.1z M856.7,123.4h7v7h-7V123.4z M856.7,167h7v7h-7V167z M856.7,174.2h7v7h-7V174.2z M856.7,181.5
	h7v7h-7V181.5z M856.7,196h7v7h-7V196z M856.7,203.3h7v7h-7V203.3z M856.7,210.5h7v7h-7V210.5z M856.7,239.6h7v7h-7V239.6z
	 M856.7,254.1h7v7h-7V254.1z M856.7,275.9h7v7h-7V275.9z M856.7,290.4h7v7h-7V290.4z M856.7,304.9h7v7h-7V304.9z M856.7,319.4h7v7
	h-7V319.4z M856.7,334h7v7h-7V334z M856.7,348.5h7v7h-7V348.5z M856.7,363h7v7h-7V363z M856.7,377.5h7v7h-7V377.5z M864,72.6h7v7h-7
	V72.6z M864,79.9h7v7h-7V79.9z M864,101.6h7v7h-7V101.6z M864,108.9h7v7h-7V108.9z M864,167h7v7h-7V167z M864,203.3h7v7h-7V203.3z
	 M864,239.6h7v7h-7V239.6z M864,254.1h7v7h-7V254.1z M864,268.6h7v7h-7V268.6z M864,283.1h7v7h-7V283.1z M864,297.6h7v7h-7V297.6z
	 M864,312.2h7v7h-7V312.2z M864,326.7h7v7h-7V326.7z M864,341.2h7v7h-7V341.2z M864,355.7h7v7h-7V355.7z M864,370.2h7v7h-7V370.2z
	 M871.2,72.6h7v7h-7V72.6z M871.2,79.9h7v7h-7V79.9z M878.4,72.6h7v7h-7V72.6z M878.4,79.9h7v7h-7V79.9z M871.2,101.6h7v7h-7V101.6z
	 M871.2,108.9h7v7h-7V108.9z M878.4,101.6h7v7h-7V101.6z M878.4,108.9h7v7h-7V108.9z M871.2,167h7v7h-7V167z M871.2,174.2h7v7h-7
	V174.2z M871.2,181.5h7v7h-7V181.5z M871.2,232.3h7v7h-7V232.3z M871.2,239.6h7v7h-7V239.6z M871.2,246.8h7v7h-7V246.8z
	 M871.2,254.1h7v7h-7V254.1z M871.2,261.4h7v7h-7V261.4z M871.2,268.6h7v7h-7V268.6z M871.2,275.9h7v7h-7V275.9z M871.2,283.1h7v7
	h-7V283.1z M871.2,290.4h7v7h-7V290.4z M871.2,297.6h7v7h-7V297.6z M871.2,304.9h7v7h-7V304.9z M871.2,312.2h7v7h-7V312.2z
	 M871.2,319.4h7v7h-7V319.4z M871.2,326.7h7v7h-7V326.7z M871.2,334h7v7h-7V334z M871.2,341.2h7v7h-7V341.2z M871.2,348.5h7v7h-7
	V348.5z M871.2,355.7h7v7h-7V355.7z M871.2,363h7v7h-7V363z M871.2,370.2h7v7h-7V370.2z M871.2,377.5h7v7h-7V377.5z M878.5,232.3h7
	v7h-7V232.3z M885.7,65.3h7v7h-7V65.3z M885.7,72.6h7v7h-7V72.6z M885.7,79.9h7v7h-7V79.9z M885.7,87.1h7v7h-7V87.1z M885.7,94.4h7
	v7h-7V94.4z M885.7,101.6h7v7h-7V101.6z M885.7,108.9h7v7h-7V108.9z M885.7,116.1h7v7h-7V116.1z M892.8,123.8h7v7h-7V123.8z
	 M892.8,131.1h7v7h-7V131.1z M892.8,138.3h7v7h-7V138.3z M892.8,145.6h7v7h-7V145.6z M892.8,152.8h7v7h-7V152.8z M892.8,160.1h7v7
	h-7V160.1z M892.8,167.4h7v7h-7V167.4z M892.8,174.6h7v7h-7V174.6z M892.8,181.9h7v7h-7V181.9z M892.8,189.2h7v7h-7V189.2z
	 M892.8,196.4h7v7h-7V196.4z M892.8,203.7h7v7h-7V203.7z M885.7,232.3h7v7h-7V232.3z M885.7,275.9h7v7h-7V275.9z M885.7,283.1h7v7
	h-7V283.1z M885.7,290.4h7v7h-7V290.4z M885.7,348.5h7v7h-7V348.5z M885.7,355.7h7v7h-7V355.7z M893,65.3h7v7h-7V65.3z M893,79.9h7
	v7h-7V79.9z M893,94.4h7v7h-7V94.4z M893,108.9h7v7h-7V108.9z M893,116.1h7v7h-7V116.1z M900.1,123.8h7v7h-7V123.8z M900.1,131.1h7
	v7h-7V131.1z M900.1,138.3h7v7h-7V138.3z M900.1,145.6h7v7h-7V145.6z M900.1,152.8h7v7h-7V152.8z M900.1,160.1h7v7h-7V160.1z
	 M900.1,167.4h7v7h-7V167.4z M900.1,174.6h7v7h-7V174.6z M900.1,181.9h7v7h-7V181.9z M900.1,189.2h7v7h-7V189.2z M900.1,196.4h7v7
	h-7V196.4z M900.1,203.7h7v7h-7V203.7z M893,210.5h7v7h-7V210.5z M893,217.8h7v7h-7V217.8z M893,225h7v7h-7V225z M893,232.3h7v7h-7
	V232.3z M893,268.6h7v7h-7V268.6z M893,275.9h7v7h-7V275.9z M893,283.1h7v7h-7V283.1z M893,290.4h7v7h-7V290.4z M893,304.9h7v7h-7
	V304.9z M893,312.2h7v7h-7V312.2z M893,319.4h7v7h-7V319.4z M893,326.7h7v7h-7V326.7z M893,348.5h7v7h-7V348.5z M893,355.7h7v7h-7
	V355.7z M893,363h7v7h-7V363z M900.3,21.8h7v7h-7V21.8z M900.3,29h7v7h-7V29z M900.3,36.3h7v7h-7V36.3z M900.3,43.6h7v7h-7V43.6z
	 M900.3,50.8h7v7h-7V50.8z M900.3,58.1h7v7h-7V58.1z M900.3,65.3h7v7h-7V65.3z M900.3,79.9h7v7h-7V79.9z M900.3,94.4h7v7h-7V94.4z
	 M900.3,101.6h7v7h-7V101.6z M900.3,108.9h7v7h-7V108.9z M900.3,116.1h7v7h-7V116.1z M922.1,123.7h7v7h-7V123.7z M922.1,131h7v7h-7
	V131z M922.1,138.2h7v7h-7V138.2z M922.1,145.5h7v7h-7V145.5z M922.1,152.7h7v7h-7V152.7z M922.1,160h7v7h-7V160z M922.1,167.3h7v7
	h-7V167.3z M922.1,174.5h7v7h-7V174.5z M922.1,181.8h7v7h-7V181.8z M922.1,189.1h7v7h-7V189.1z M922.1,196.3h7v7h-7V196.3z
	 M922.1,203.6h7v7h-7V203.6z M900.3,210.5h7v7h-7V210.5z M900.3,217.8h7v7h-7V217.8z M900.3,225h7v7h-7V225z M900.3,232.3h7v7h-7
	V232.3z M900.3,261.4h7v7h-7V261.4z M900.3,268.6h7v7h-7V268.6z M900.3,275.9h7v7h-7V275.9z M900.3,283.1h7v7h-7V283.1z
	 M900.3,297.6h7v7h-7V297.6z M900.3,304.9h7v7h-7V304.9z M900.3,326.7h7v7h-7V326.7z M900.3,334h7v7h-7V334z M900.3,348.5h7v7h-7
	V348.5z M900.3,355.7h7v7h-7V355.7z M900.3,363h7v7h-7V363z M900.3,370.2h7v7h-7V370.2z M907.5,14.5h7v7h-7V14.5z M907.5,65.3h7v7
	h-7V65.3z M907.5,72.6h7v7h-7V72.6z M907.5,79.9h7v7h-7V79.9z M907.5,94.4h7v7h-7V94.4z M907.5,108.9h7v7h-7V108.9z M907.5,116.1h7
	v7h-7V116.1z M929.3,123.7h7v7h-7V123.7z M929.3,131h7v7h-7V131z M929.3,138.2h7v7h-7V138.2z M929.3,145.5h7v7h-7V145.5z
	 M929.3,152.7h7v7h-7V152.7z M929.3,160h7v7h-7V160z M929.3,167.3h7v7h-7V167.3z M929.3,174.5h7v7h-7V174.5z M929.3,181.8h7v7h-7
	V181.8z M929.3,189.1h7v7h-7V189.1z M929.3,196.3h7v7h-7V196.3z M929.3,203.6h7v7h-7V203.6z M907.5,232.3h7v7h-7V232.3z
	 M907.5,254.1h7v7h-7V254.1z M907.5,261.4h7v7h-7V261.4z M907.5,268.6h7v7h-7V268.6z M907.5,275.9h7v7h-7V275.9z M907.5,290.4h7v7
	h-7V290.4z M907.5,297.6h7v7h-7V297.6z M907.5,312.2h7v7h-7V312.2z M907.5,319.4h7v7h-7V319.4z M907.5,334h7v7h-7V334z M907.5,341.2
	h7v7h-7V341.2z M907.5,355.7h7v7h-7V355.7z M907.5,363h7v7h-7V363z M907.5,370.2h7v7h-7V370.2z M907.5,377.5h7v7h-7V377.5z
	 M914.8,7.2h7v7h-7V7.2z M914.8,65.3h7v7h-7V65.3z M914.8,79.9h7v7h-7V79.9z M914.8,87.1h7v7h-7V87.1z M914.8,94.4h7v7h-7V94.4z
	 M914.8,108.9h7v7h-7V108.9z M914.8,116.1h7v7h-7V116.1z M914.8,232.3h7v7h-7V232.3z M914.8,254.1h7v7h-7V254.1z M914.8,261.4h7v7
	h-7V261.4z M914.8,268.6h7v7h-7V268.6z M914.8,283.1h7v7h-7V283.1z M914.8,290.4h7v7h-7V290.4z M914.8,304.9h7v7h-7V304.9z
	 M914.8,312.2h7v7h-7V312.2z M914.8,319.4h7v7h-7V319.4z M914.8,326.7h7v7h-7V326.7z M914.8,341.2h7v7h-7V341.2z M914.8,348.5h7v7
	h-7V348.5z M914.8,363h7v7h-7V363z M914.8,370.2h7v7h-7V370.2z M914.8,377.5h7v7h-7V377.5z M922,0h7v7h-7V0z M922,21.8h7v7h-7V21.8z
	 M922,29h7v7h-7V29z M922,36.3h7v7h-7V36.3z M922,43.6h7v7h-7V43.6z M922,50.8h7v7h-7V50.8z M922,58.1h7v7h-7V58.1z M922,65.3h7v7
	h-7V65.3z M922,72.6h7v7h-7V72.6z M922,79.9h7v7h-7V79.9z M922,94.4h7v7h-7V94.4z M922,101.6h7v7h-7V101.6z M922,108.9h7v7h-7V108.9
	z M922,116.1h7v7h-7V116.1z M922,210.5h7v7h-7V210.5z M922,217.8h7v7h-7V217.8z M922,225h7v7h-7V225z M922,232.3h7v7h-7V232.3z
	 M922,254.1h7v7h-7V254.1z M922,261.4h7v7h-7V261.4z M922,275.9h7v7h-7V275.9z M922,283.1h7v7h-7V283.1z M922,297.6h7v7h-7V297.6z
	 M922,304.9h7v7h-7V304.9z M922,312.2h7v7h-7V312.2z M922,319.4h7v7h-7V319.4z M922,326.7h7v7h-7V326.7z M922,334h7v7h-7V334z
	 M922,348.5h7v7h-7V348.5z M922,355.7h7v7h-7V355.7z M922,370.2h7v7h-7V370.2z M922,377.5h7v7h-7V377.5z M856.7,392h7v7h-7V392z
	 M856.7,406.6h7v7h-7V406.6z M856.7,413.8h7v7h-7V413.8z M864,384.8h7v7h-7V384.8z M864,399.3h7v7h-7V399.3z M871.2,384.8h7v7h-7
	V384.8z M871.2,392h7v7h-7V392z M871.2,406.6h7v7h-7V406.6z M871.2,413.8h7v7h-7V413.8z M878.5,392h7v7h-7V392z M878.5,399.3h7v7h-7
	V399.3z M885.7,399.3h7v7h-7V399.3z M885.7,406.6h7v7h-7V406.6z M885.7,413.8h7v7h-7V413.8z M893,399.3h7v7h-7V399.3z M900.3,399.3
	h7v7h-7V399.3z M900.3,406.6h7v7h-7V406.6z M900.3,413.8h7v7h-7V413.8z M907.5,399.3h7v7h-7V399.3z M914.8,399.3h7v7h-7V399.3z
	 M914.8,406.6h7v7h-7V406.6z M914.8,413.8h7v7h-7V413.8z M922,399.3h7v7h-7V399.3z M856.7,421.1h7v7h-7V421.1z M856.7,428.3h7v7h-7
	V428.3z M856.7,435.6h7v7h-7V435.6z M856.7,450.1h7v7h-7V450.1z M856.7,457.4h7v7h-7V457.4z M856.7,464.6h7v7h-7V464.6z
	 M856.7,471.9h7v7h-7V471.9z M856.7,479.1h7v7h-7V479.1z M856.7,486.4h7v7h-7V486.4z M864,428.3h7v7h-7V428.3z M864,435.6h7v7h-7
	V435.6z M864,442.9h7v7h-7V442.9z M864,450.1h7v7h-7V450.1z M864,457.4h7v7h-7V457.4z M864,464.6h7v7h-7V464.6z M864,471.9h7v7h-7
	V471.9z M871.2,421.1h7v7h-7V421.1z M871.2,428.3h7v7h-7V428.3z M871.2,435.6h7v7h-7V435.6z M871.2,442.9h7v7h-7V442.9z
	 M871.2,450.1h7v7h-7V450.1z M871.2,457.4h7v7h-7V457.4z M871.2,464.6h7v7h-7V464.6z M871.2,471.9h7v7h-7V471.9z M871.2,479.1h7v7
	h-7V479.1z M871.2,486.4h7v7h-7V486.4z M878.5,428.3h7v7h-7V428.3z M878.5,435.6h7v7h-7V435.6z M878.5,442.9h7v7h-7V442.9z
	 M878.5,450.1h7v7h-7V450.1z M878.5,457.4h7v7h-7V457.4z M878.5,464.6h7v7h-7V464.6z M878.5,471.9h7v7h-7V471.9z M885.7,421.1h7v7
	h-7V421.1z M885.7,428.3h7v7h-7V428.3z M885.7,435.6h7v7h-7V435.6z M885.7,442.9h7v7h-7V442.9z M885.7,457.4h7v7h-7V457.4z
	 M885.7,464.6h7v7h-7V464.6z M885.7,471.9h7v7h-7V471.9z M885.7,479.1h7v7h-7V479.1z M885.7,486.4h7v7h-7V486.4z M893,428.3h7v7h-7
	V428.3z M893,435.6h7v7h-7V435.6z M893,450.1h7v7h-7V450.1z M893,457.4h7v7h-7V457.4z M893,464.6h7v7h-7V464.6z M893,471.9h7v7h-7
	V471.9z M900.3,421.1h7v7h-7V421.1z M900.3,428.3h7v7h-7V428.3z M900.3,435.6h7v7h-7V435.6z M900.3,442.9h7v7h-7V442.9z
	 M900.3,457.4h7v7h-7V457.4z M900.3,464.6h7v7h-7V464.6z M900.3,471.9h7v7h-7V471.9z M900.3,479.1h7v7h-7V479.1z M900.3,486.4h7v7
	h-7V486.4z M907.5,428.3h7v7h-7V428.3z M907.5,435.6h7v7h-7V435.6z M907.5,450.1h7v7h-7V450.1z M907.5,457.4h7v7h-7V457.4z
	 M907.5,464.6h7v7h-7V464.6z M907.5,471.9h7v7h-7V471.9z M914.8,421.1h7v7h-7V421.1z M914.8,428.3h7v7h-7V428.3z M914.8,435.6h7v7
	h-7V435.6z M914.8,442.9h7v7h-7V442.9z M914.8,457.4h7v7h-7V457.4z M914.8,464.6h7v7h-7V464.6z M914.8,471.9h7v7h-7V471.9z
	 M914.8,479.1h7v7h-7V479.1z M914.8,486.4h7v7h-7V486.4z M922,428.3h7v7h-7V428.3z M922,435.6h7v7h-7V435.6z M922,450.1h7v7h-7
	V450.1z M922,457.4h7v7h-7V457.4z M922,464.6h7v7h-7V464.6z M922,471.9h7v7h-7V471.9z M856.7,493.7h7v7h-7V493.7z M856.7,500.9h7v7
	h-7V500.9z M856.7,508.2h7v7h-7V508.2z M864,493.7h7v7h-7V493.7z M864,500.9h7v7h-7V500.9z M864,508.2h7v7h-7V508.2z M871.2,493.7h7
	v7h-7V493.7z M871.2,500.9h7v7h-7V500.9z M871.2,508.2h7v7h-7V508.2z M878.5,493.7h7v7h-7V493.7z M878.5,500.9h7v7h-7V500.9z
	 M878.5,508.2h7v7h-7V508.2z M885.7,493.7h7v7h-7V493.7z M885.7,500.9h7v7h-7V500.9z M885.7,508.2h7v7h-7V508.2z M893,493.7h7v7h-7
	V493.7z M893,500.9h7v7h-7V500.9z M893,508.2h7v7h-7V508.2z M900.3,493.7h7v7h-7V493.7z M900.3,500.9h7v7h-7V500.9z M900.3,508.2h7
	v7h-7V508.2z M907.5,493.7h7v7h-7V493.7z M907.5,500.9h7v7h-7V500.9z M907.5,508.2h7v7h-7V508.2z M914.8,493.7h7v7h-7V493.7z
	 M914.8,500.9h7v7h-7V500.9z M914.8,508.2h7v7h-7V508.2z M922,493.7h7v7h-7V493.7z M922,500.9h7v7h-7V500.9z M922,508.2h7v7h-7
	V508.2z M929.3,0h7v7h-7V0z M929.3,14.5h7v7h-7V14.5z M929.3,65.3h7v7h-7V65.3z M929.3,79.9h7v7h-7V79.9z M929.3,94.4h7v7h-7V94.4z
	 M929.3,108.9h7v7h-7V108.9z M929.3,116.1h7v7h-7V116.1z M929.3,210.5h7v7h-7V210.5z M929.3,217.8h7v7h-7V217.8z M929.3,225h7v7h-7
	V225z M929.3,232.3h7v7h-7V232.3z M929.3,268.6h7v7h-7V268.6z M929.3,275.9h7v7h-7V275.9z M929.3,290.4h7v7h-7V290.4z M929.3,297.6
	h7v7h-7V297.6z M929.3,304.9h7v7h-7V304.9z M929.3,312.2h7v7h-7V312.2z M929.3,319.4h7v7h-7V319.4z M929.3,326.7h7v7h-7V326.7z
	 M929.3,334h7v7h-7V334z M929.3,341.2h7v7h-7V341.2z M929.3,355.7h7v7h-7V355.7z M929.3,363h7v7h-7V363z M936.6,0h7v7h-7V0z
	 M936.6,7.2h7v7h-7V7.2z M936.6,65.3h7v7h-7V65.3z M936.6,72.6h7v7h-7V72.6z M936.6,79.9h7v7h-7V79.9z M936.6,87.1h7v7h-7V87.1z
	 M936.6,94.4h7v7h-7V94.4z M936.6,101.6h7v7h-7V101.6z M936.6,108.9h7v7h-7V108.9z M936.6,116.1h7v7h-7V116.1z M936.6,232.3h7v7h-7
	V232.3z M936.6,261.4h7v7h-7V261.4z M936.6,268.6h7v7h-7V268.6z M936.6,283.1h7v7h-7V283.1z M936.6,290.4h7v7h-7V290.4z
	 M936.6,297.6h7v7h-7V297.6z M936.6,304.9h7v7h-7V304.9z M936.6,312.2h7v7h-7V312.2z M936.6,319.4h7v7h-7V319.4z M936.6,326.7h7v7
	h-7V326.7z M936.6,334h7v7h-7V334z M936.6,341.2h7v7h-7V341.2z M936.6,348.5h7v7h-7V348.5z M936.6,363h7v7h-7V363z M936.6,370.2h7v7
	h-7V370.2z M943.8,0h7v7h-7V0z M943.8,7.2h7v7h-7V7.2z M943.8,145.2h7v7h-7V145.2z M943.8,152.4h7v7h-7V152.4z M943.8,159.7h7v7h-7
	V159.7z M943.8,167h7v7h-7V167z M943.8,174.2h7v7h-7V174.2z M943.8,181.5h7v7h-7V181.5z M943.8,188.8h7v7h-7V188.8z M943.8,232.3h7
	v7h-7V232.3z M943.8,254.1h7v7h-7V254.1z M943.8,261.4h7v7h-7V261.4z M943.8,275.9h7v7h-7V275.9z M943.8,283.1h7v7h-7V283.1z
	 M943.8,290.4h7v7h-7V290.4z M943.8,297.6h7v7h-7V297.6z M943.8,304.9h7v7h-7V304.9z M943.8,312.2h7v7h-7V312.2z M943.8,319.4h7v7
	h-7V319.4z M943.8,326.7h7v7h-7V326.7z M943.8,334h7v7h-7V334z M943.8,341.2h7v7h-7V341.2z M943.8,348.5h7v7h-7V348.5z M943.8,355.7
	h7v7h-7V355.7z M943.8,370.2h7v7h-7V370.2z M943.8,377.5h7v7h-7V377.5z M951.1,0h7v7h-7V0z M951.1,7.2h7v7h-7V7.2z M951.1,87.1h7v7
	h-7V87.1z M951.1,94.4h7v7h-7V94.4z M951.1,101.6h7v7h-7V101.6z M951.1,108.9h7v7h-7V108.9z M951.1,116.1h7v7h-7V116.1z
	 M951.1,145.2h7v7h-7V145.2z M951.1,159.7h7v7h-7V159.7z M951.1,174.2h7v7h-7V174.2z M951.1,188.8h7v7h-7V188.8z M951.1,217.8h7v7
	h-7V217.8z M951.1,225h7v7h-7V225z M951.1,232.3h7v7h-7V232.3z M951.1,254.1h7v7h-7V254.1z M951.1,268.6h7v7h-7V268.6z M951.1,275.9
	h7v7h-7V275.9z M951.1,283.1h7v7h-7V283.1z M951.1,290.4h7v7h-7V290.4z M951.1,297.6h7v7h-7V297.6z M951.1,304.9h7v7h-7V304.9z
	 M951.1,312.2h7v7h-7V312.2z M951.1,319.4h7v7h-7V319.4z M951.1,326.7h7v7h-7V326.7z M951.1,334h7v7h-7V334z M951.1,341.2h7v7h-7
	V341.2z M951.1,348.5h7v7h-7V348.5z M951.1,355.7h7v7h-7V355.7z M951.1,363h7v7h-7V363z M951.1,377.5h7v7h-7V377.5z M958.3,0h7v7h-7
	V0z M958.3,7.2h7v7h-7V7.2z M965.6,29h7v7h-7V29z M958.3,36.3h7v7h-7V36.3z M958.3,43.6h7v7h-7V43.6z M958.3,50.8h7v7h-7V50.8z
	 M958.3,58.1h7v7h-7V58.1z M958.3,65.3h7v7h-7V65.3z M958.3,72.6h7v7h-7V72.6z M958.3,79.9h7v7h-7V79.9z M958.3,87.1h7v7h-7V87.1z
	 M958.3,101.6h7v7h-7V101.6z M958.3,116.1h7v7h-7V116.1z M958.3,123.4h7v7h-7V123.4z M958.3,130.7h7v7h-7V130.7z M958.3,137.9h7v7
	h-7V137.9z M958.3,145.2h7v7h-7V145.2z M958.3,152.4h7v7h-7V152.4z M958.3,159.7h7v7h-7V159.7z M958.3,167h7v7h-7V167z M958.3,181.5
	h7v7h-7V181.5z M958.3,188.8h7v7h-7V188.8z M958.3,196h7v7h-7V196z M958.3,203.3h7v7h-7V203.3z M958.3,210.5h7v7h-7V210.5z
	 M958.3,232.3h7v7h-7V232.3z M958.3,254.1h7v7h-7V254.1z M958.3,268.6h7v7h-7V268.6z M958.3,275.9h7v7h-7V275.9z M958.3,283.1h7v7
	h-7V283.1z M958.3,290.4h7v7h-7V290.4z M958.3,297.6h7v7h-7V297.6z M958.3,304.9h7v7h-7V304.9z M958.3,312.2h7v7h-7V312.2z
	 M958.3,319.4h7v7h-7V319.4z M958.3,326.7h7v7h-7V326.7z M958.3,334h7v7h-7V334z M958.3,341.2h7v7h-7V341.2z M958.3,348.5h7v7h-7
	V348.5z M958.3,355.7h7v7h-7V355.7z M958.3,363h7v7h-7V363z M958.3,377.5h7v7h-7V377.5z M965.6,0h7v7h-7V0z M965.6,7.2h7v7h-7V7.2z
	 M965.6,87.1h7v7h-7V87.1z M965.6,94.4h7v7h-7V94.4z M965.6,101.6h7v7h-7V101.6z M965.6,108.9h7v7h-7V108.9z M965.6,116.1h7v7h-7
	V116.1z M965.6,145.2h7v7h-7V145.2z M965.6,159.7h7v7h-7V159.7z M965.6,167h7v7h-7V167z M965.6,174.2h7v7h-7V174.2z M965.6,188.8h7
	v7h-7V188.8z M965.6,232.3h7v7h-7V232.3z M965.6,254.1h7v7h-7V254.1z M965.6,261.4h7v7h-7V261.4z M965.6,275.9h7v7h-7V275.9z
	 M965.6,283.1h7v7h-7V283.1z M965.6,290.4h7v7h-7V290.4z M965.6,297.6h7v7h-7V297.6z M965.6,304.9h7v7h-7V304.9z M965.6,312.2h7v7
	h-7V312.2z M965.6,319.4h7v7h-7V319.4z M965.6,326.7h7v7h-7V326.7z M965.6,334h7v7h-7V334z M965.6,341.2h7v7h-7V341.2z M965.6,348.5
	h7v7h-7V348.5z M965.6,355.7h7v7h-7V355.7z M965.6,370.2h7v7h-7V370.2z M965.6,377.5h7v7h-7V377.5z M972.9,0h7v7h-7V0z M972.9,7.2h7
	v7h-7V7.2z M972.9,21.8h7v7h-7V21.8z M972.9,145.2h7v7h-7V145.2z M972.9,152.4h7v7h-7V152.4z M972.9,159.7h7v7h-7V159.7z
	 M972.9,174.2h7v7h-7V174.2z M972.9,181.5h7v7h-7V181.5z M972.9,188.8h7v7h-7V188.8z M972.9,232.3h7v7h-7V232.3z M972.9,261.4h7v7
	h-7V261.4z M972.9,268.6h7v7h-7V268.6z M972.9,283.1h7v7h-7V283.1z M972.9,290.4h7v7h-7V290.4z M972.9,297.6h7v7h-7V297.6z
	 M972.9,304.9h7v7h-7V304.9z M972.9,312.2h7v7h-7V312.2z M972.9,319.4h7v7h-7V319.4z M972.9,326.7h7v7h-7V326.7z M972.9,334h7v7h-7
	V334z M972.9,341.2h7v7h-7V341.2z M972.9,348.5h7v7h-7V348.5z M972.9,363h7v7h-7V363z M972.9,370.2h7v7h-7V370.2z M980.1,0h7v7h-7V0
	z M980.1,7.2h7v7h-7V7.2z M980.1,21.8h7v7h-7V21.8z M980.1,87.1h7v7h-7V87.1z M980.1,94.4h7v7h-7V94.4z M980.1,101.6h7v7h-7V101.6z
	 M980.1,108.9h7v7h-7V108.9z M980.1,116.1h7v7h-7V116.1z M980.1,145.2h7v7h-7V145.2z M980.1,159.7h7v7h-7V159.7z M980.1,174.2h7v7
	h-7V174.2z M980.1,181.5h7v7h-7V181.5z M980.1,188.8h7v7h-7V188.8z M980.1,217.8h7v7h-7V217.8z M980.1,225h7v7h-7V225z M980.1,232.3
	h7v7h-7V232.3z M980.1,268.6h7v7h-7V268.6z M980.1,275.9h7v7h-7V275.9z M980.1,290.4h7v7h-7V290.4z M980.1,297.6h7v7h-7V297.6z
	 M980.1,304.9h7v7h-7V304.9z M980.1,312.2h7v7h-7V312.2z M980.1,319.4h7v7h-7V319.4z M980.1,326.7h7v7h-7V326.7z M980.1,334h7v7h-7
	V334z M980.1,341.2h7v7h-7V341.2z M980.1,355.7h7v7h-7V355.7z M980.1,363h7v7h-7V363z M987.4,370.4h7v7h-7V370.4z M987.4,0h7v7h-7V0
	z M987.4,7.2h7v7h-7V7.2z M987.4,21.8h7v7h-7V21.8z M987.4,43.6h7v7h-7V43.6z M987.4,50.8h7v7h-7V50.8z M987.4,58.1h7v7h-7V58.1z
	 M987.4,65.3h7v7h-7V65.3z M987.4,72.6h7v7h-7V72.6z M987.4,79.9h7v7h-7V79.9z M987.4,87.1h7v7h-7V87.1z M987.4,94.4h7v7h-7V94.4z
	 M987.4,116.1h7v7h-7V116.1z M987.4,123.4h7v7h-7V123.4z M987.4,130.7h7v7h-7V130.7z M987.4,137.9h7v7h-7V137.9z M987.4,145.2h7v7
	h-7V145.2z M987.4,152.4h7v7h-7V152.4z M987.4,159.7h7v7h-7V159.7z M987.4,174.2h7v7h-7V174.2z M987.4,188.8h7v7h-7V188.8z
	 M987.4,196h7v7h-7V196z M987.4,203.3h7v7h-7V203.3z M987.4,210.5h7v7h-7V210.5z M987.4,232.3h7v7h-7V232.3z M987.4,254.1h7v7h-7
	V254.1z M987.4,261.4h7v7h-7V261.4z M987.4,275.9h7v7h-7V275.9z M987.4,283.1h7v7h-7V283.1z M987.4,297.6h7v7h-7V297.6z
	 M987.4,304.9h7v7h-7V304.9z M987.4,312.2h7v7h-7V312.2z M987.4,319.4h7v7h-7V319.4z M987.4,326.7h7v7h-7V326.7z M987.4,334h7v7h-7
	V334z M987.4,348.5h7v7h-7V348.5z M987.4,355.7h7v7h-7V355.7z M994.7,363.1h7v7h-7V363.1z M994.7,370.4h7v7h-7V370.4z M994.6,0h7v7
	h-7V0z M994.6,7.2h7v7h-7V7.2z M994.6,21.8h7v7h-7V21.8z M994.6,36.3h7v7h-7V36.3z M994.6,87.1h7v7h-7V87.1z M994.6,94.4h7v7h-7
	V94.4z M994.6,101.6h7v7h-7V101.6z M994.6,108.9h7v7h-7V108.9z M994.6,116.1h7v7h-7V116.1z M994.6,145.2h7v7h-7V145.2z M994.6,152.4
	h7v7h-7V152.4z M994.6,159.7h7v7h-7V159.7z M994.6,167h7v7h-7V167z M994.6,174.2h7v7h-7V174.2z M994.6,188.8h7v7h-7V188.8z
	 M994.6,232.3h7v7h-7V232.3z M994.6,254.1h7v7h-7V254.1z M994.6,261.4h7v7h-7V261.4z M994.6,268.6h7v7h-7V268.6z M994.6,283.1h7v7
	h-7V283.1z M994.6,290.4h7v7h-7V290.4z M994.6,304.9h7v7h-7V304.9z M994.6,312.2h7v7h-7V312.2z M994.6,319.4h7v7h-7V319.4z
	 M994.6,326.7h7v7h-7V326.7z M994.6,341.2h7v7h-7V341.2z M994.6,348.5h7v7h-7V348.5z M1001.9,355.9h7v7h-7V355.9z M1001.9,363.1h7v7
	h-7V363.1z M1001.9,370.4h7v7h-7V370.4z M929.3,399.3h7v7h-7V399.3z M929.3,406.6h7v7h-7V406.6z M929.3,413.8h7v7h-7V413.8z
	 M936.6,399.3h7v7h-7V399.3z M943.8,399.3h7v7h-7V399.3z M943.8,406.6h7v7h-7V406.6z M943.8,413.8h7v7h-7V413.8z M951.1,399.3h7v7
	h-7V399.3z M958.3,399.3h7v7h-7V399.3z M958.3,406.6h7v7h-7V406.6z M958.3,413.8h7v7h-7V413.8z M965.6,399.3h7v7h-7V399.3z
	 M972.9,399.3h7v7h-7V399.3z M972.9,406.6h7v7h-7V406.6z M972.9,413.8h7v7h-7V413.8z M987.4,377.6h7v7h-7V377.6z M980.1,399.3h7v7
	h-7V399.3z M994.7,377.6h7v7h-7V377.6z M987.4,399.3h7v7h-7V399.3z M987.4,406.6h7v7h-7V406.6z M987.4,413.8h7v7h-7V413.8z
	 M1001.9,377.6h7v7h-7V377.6z M994.6,399.3h7v7h-7V399.3z M929.3,421.1h7v7h-7V421.1z M929.3,428.3h7v7h-7V428.3z M929.3,435.6h7v7
	h-7V435.6z M929.3,442.9h7v7h-7V442.9z M929.3,457.4h7v7h-7V457.4z M929.3,464.6h7v7h-7V464.6z M929.3,471.9h7v7h-7V471.9z
	 M929.3,479.1h7v7h-7V479.1z M929.3,486.4h7v7h-7V486.4z M936.6,428.3h7v7h-7V428.3z M936.6,435.6h7v7h-7V435.6z M936.6,450.1h7v7
	h-7V450.1z M936.6,457.4h7v7h-7V457.4z M936.6,464.6h7v7h-7V464.6z M936.6,471.9h7v7h-7V471.9z M943.8,421.1h7v7h-7V421.1z
	 M943.8,428.3h7v7h-7V428.3z M943.8,435.6h7v7h-7V435.6z M943.8,442.9h7v7h-7V442.9z M943.8,457.4h7v7h-7V457.4z M943.8,464.6h7v7
	h-7V464.6z M943.8,471.9h7v7h-7V471.9z M943.8,479.1h7v7h-7V479.1z M943.8,486.4h7v7h-7V486.4z M951.1,428.3h7v7h-7V428.3z
	 M951.1,435.6h7v7h-7V435.6z M951.1,442.9h7v7h-7V442.9z M951.1,450.1h7v7h-7V450.1z M951.1,457.4h7v7h-7V457.4z M951.1,464.6h7v7
	h-7V464.6z M951.1,471.9h7v7h-7V471.9z M958.3,421.1h7v7h-7V421.1z M958.3,428.3h7v7h-7V428.3z M958.3,442.9h7v7h-7V442.9z
	 M958.3,450.1h7v7h-7V450.1z M958.3,457.4h7v7h-7V457.4z M958.3,464.6h7v7h-7V464.6z M958.3,471.9h7v7h-7V471.9z M958.3,479.1h7v7
	h-7V479.1z M958.3,486.4h7v7h-7V486.4z M965.6,428.3h7v7h-7V428.3z M965.6,435.6h7v7h-7V435.6z M965.6,442.9h7v7h-7V442.9z
	 M965.6,450.1h7v7h-7V450.1z M965.6,457.4h7v7h-7V457.4z M965.6,464.6h7v7h-7V464.6z M965.6,471.9h7v7h-7V471.9z M972.9,421.1h7v7
	h-7V421.1z M972.9,428.3h7v7h-7V428.3z M972.9,442.9h7v7h-7V442.9z M972.9,450.1h7v7h-7V450.1z M972.9,457.4h7v7h-7V457.4z
	 M972.9,464.6h7v7h-7V464.6z M972.9,471.9h7v7h-7V471.9z M972.9,479.1h7v7h-7V479.1z M972.9,486.4h7v7h-7V486.4z M980.1,428.3h7v7
	h-7V428.3z M980.1,435.6h7v7h-7V435.6z M980.1,442.9h7v7h-7V442.9z M980.1,450.1h7v7h-7V450.1z M980.1,457.4h7v7h-7V457.4z
	 M980.1,464.6h7v7h-7V464.6z M980.1,471.9h7v7h-7V471.9z M987.4,421.1h7v7h-7V421.1z M987.4,428.3h7v7h-7V428.3z M987.4,442.9h7v7
	h-7V442.9z M987.4,450.1h7v7h-7V450.1z M987.4,457.4h7v7h-7V457.4z M987.4,464.6h7v7h-7V464.6z M987.4,471.9h7v7h-7V471.9z
	 M987.4,479.1h7v7h-7V479.1z M987.4,486.4h7v7h-7V486.4z M994.6,428.3h7v7h-7V428.3z M994.6,442.9h7v7h-7V442.9z M994.6,450.1h7v7
	h-7V450.1z M994.6,457.4h7v7h-7V457.4z M994.6,464.6h7v7h-7V464.6z M994.6,471.9h7v7h-7V471.9z M929.3,493.7h7v7h-7V493.7z
	 M929.3,500.9h7v7h-7V500.9z M929.3,508.2h7v7h-7V508.2z M936.6,493.7h7v7h-7V493.7z M936.6,500.9h7v7h-7V500.9z M936.6,508.2h7v7
	h-7V508.2z M943.8,493.7h7v7h-7V493.7z M943.8,500.9h7v7h-7V500.9z M943.8,508.2h7v7h-7V508.2z M951.1,493.7h7v7h-7V493.7z
	 M951.1,500.9h7v7h-7V500.9z M951.1,508.2h7v7h-7V508.2z M958.3,493.7h7v7h-7V493.7z M958.3,500.9h7v7h-7V500.9z M958.3,508.2h7v7
	h-7V508.2z M965.6,493.7h7v7h-7V493.7z M965.6,500.9h7v7h-7V500.9z M965.6,508.2h7v7h-7V508.2z M972.9,493.7h7v7h-7V493.7z
	 M972.9,500.9h7v7h-7V500.9z M972.9,508.2h7v7h-7V508.2z M980.1,493.7h7v7h-7V493.7z M980.1,500.9h7v7h-7V500.9z M980.1,508.2h7v7
	h-7V508.2z M987.4,493.7h7v7h-7V493.7z M987.4,500.9h7v7h-7V500.9z M987.4,508.2h7v7h-7V508.2z M994.6,493.7h7v7h-7V493.7z
	 M994.6,500.9h7v7h-7V500.9z M994.6,508.2h7v7h-7V508.2z M1001.9,0h7v7h-7V0z M1001.9,7.2h7v7h-7V7.2z M1001.9,21.8h7v7h-7V21.8z
	 M1001.9,29h7v7h-7V29z M1001.9,145.2h7v7h-7V145.2z M1001.9,152.4h7v7h-7V152.4z M1001.9,159.7h7v7h-7V159.7z M1001.9,167h7v7h-7
	V167z M1001.9,174.2h7v7h-7V174.2z M1001.9,181.5h7v7h-7V181.5z M1001.9,188.8h7v7h-7V188.8z M1001.9,232.3h7v7h-7V232.3z
	 M1001.9,254.1h7v7h-7V254.1z M1001.9,261.4h7v7h-7V261.4z M1001.9,268.6h7v7h-7V268.6z M1001.9,275.9h7v7h-7V275.9z M1001.9,290.4
	h7v7h-7V290.4z M1001.9,297.6h7v7h-7V297.6z M1001.9,312.2h7v7h-7V312.2z M1001.9,319.4h7v7h-7V319.4z M1001.9,334h7v7h-7V334z
	 M1001.9,341.2h7v7h-7V341.2z M1009.2,348.6h7v7h-7V348.6z M1009.2,355.9h7v7h-7V355.9z M1009.2,363.1h7v7h-7V363.1z M1009.3,370.4
	h7v7h-7V370.4z M1009.2,0h7v7h-7V0z M1009.2,7.2h7v7h-7V7.2z M1009.2,21.8h7v7h-7V21.8z M1009.2,29h7v7h-7V29z M1009.2,87.1h7v7h-7
	V87.1z M1009.2,94.4h7v7h-7V94.4z M1009.2,101.6h7v7h-7V101.6z M1009.2,108.9h7v7h-7V108.9z M1009.2,116.1h7v7h-7V116.1z
	 M1009.2,145.2h7v7h-7V145.2z M1009.2,152.4h7v7h-7V152.4z M1009.2,159.7h7v7h-7V159.7z M1009.2,167h7v7h-7V167z M1009.2,174.2h7v7
	h-7V174.2z M1009.2,181.5h7v7h-7V181.5z M1009.2,188.8h7v7h-7V188.8z M1009.2,217.8h7v7h-7V217.8z M1009.2,225h7v7h-7V225z
	 M1009.2,232.3h7v7h-7V232.3z M1009.2,261.4h7v7h-7V261.4z M1009.2,268.6h7v7h-7V268.6z M1009.2,275.9h7v7h-7V275.9z M1009.2,283.1
	h7v7h-7V283.1z M1009.2,297.6h7v7h-7V297.6z M1009.2,304.9h7v7h-7V304.9z M1009.2,326.7h7v7h-7V326.7z M1009.2,334h7v7h-7V334z
	 M1016.5,341.4h7v7h-7V341.4z M1016.5,348.6h7v7h-7V348.6z M1016.5,355.9h7v7h-7V355.9z M1016.5,363.1h7v7h-7V363.1z M1016.4,0h7v7
	h-7V0z M1016.4,7.2h7v7h-7V7.2z M1016.4,21.8h7v7h-7V21.8z M1016.4,29h7v7h-7V29z M1016.4,50.8h7v7h-7V50.8z M1016.4,58.1h7v7h-7
	V58.1z M1016.4,65.3h7v7h-7V65.3z M1016.4,72.6h7v7h-7V72.6z M1016.4,79.9h7v7h-7V79.9z M1016.4,87.1h7v7h-7V87.1z M1016.4,108.9h7
	v7h-7V108.9z M1016.4,116.1h7v7h-7V116.1z M1016.4,123.4h7v7h-7V123.4z M1016.4,130.7h7v7h-7V130.7z M1016.4,137.9h7v7h-7V137.9z
	 M1016.4,145.2h7v7h-7V145.2z M1016.4,152.4h7v7h-7V152.4z M1016.4,159.7h7v7h-7V159.7z M1016.4,167h7v7h-7V167z M1016.4,174.2h7v7
	h-7V174.2z M1016.4,181.5h7v7h-7V181.5z M1016.4,188.8h7v7h-7V188.8z M1016.4,196h7v7h-7V196z M1016.4,203.3h7v7h-7V203.3z
	 M1016.4,210.5h7v7h-7V210.5z M1016.4,232.3h7v7h-7V232.3z M1016.4,268.6h7v7h-7V268.6z M1016.4,275.9h7v7h-7V275.9z M1016.4,283.1
	h7v7h-7V283.1z M1016.4,304.9h7v7h-7V304.9z M1016.4,312.2h7v7h-7V312.2z M1016.4,319.4h7v7h-7V319.4z M1016.4,326.7h7v7h-7V326.7z
	 M1023.7,341.4h7v7h-7V341.4z M1023.7,348.6h7v7h-7V348.6z M1023.7,355.9h7v7h-7V355.9z M1023.7,0h7v7h-7V0z M1023.7,7.2h7v7h-7V7.2
	z M1023.7,21.8h7v7h-7V21.8z M1023.7,29h7v7h-7V29z M1023.7,43.6h7v7h-7V43.6z M1023.7,87.1h7v7h-7V87.1z M1023.7,94.4h7v7h-7V94.4z
	 M1023.7,101.6h7v7h-7V101.6z M1023.7,108.9h7v7h-7V108.9z M1023.7,116.1h7v7h-7V116.1z M1023.7,145.2h7v7h-7V145.2z M1023.7,152.4
	h7v7h-7V152.4z M1023.7,159.7h7v7h-7V159.7z M1023.7,167h7v7h-7V167z M1023.7,174.2h7v7h-7V174.2z M1023.7,181.5h7v7h-7V181.5z
	 M1023.7,188.8h7v7h-7V188.8z M1023.7,232.3h7v7h-7V232.3z M1030.9,0h7v7h-7V0z M1030.9,7.2h7v7h-7V7.2z M1030.9,21.8h7v7h-7V21.8z
	 M1030.9,29h7v7h-7V29z M1030.9,43.6h7v7h-7V43.6z M1030.9,145.2h7v7h-7V145.2z M1030.9,152.4h7v7h-7V152.4z M1030.9,159.7h7v7h-7
	V159.7z M1030.9,167h7v7h-7V167z M1030.9,174.2h7v7h-7V174.2z M1030.9,181.5h7v7h-7V181.5z M1030.9,188.8h7v7h-7V188.8z
	 M1030.9,217.8h7v7h-7V217.8z M1030.9,225h7v7h-7V225z M1030.9,232.3h7v7h-7V232.3z M1030.9,239.6h7v7h-7V239.6z M1038.2,0h7v7h-7V0
	z M1038.2,7.2h7v7h-7V7.2z M1038.2,21.8h7v7h-7V21.8z M1038.2,29h7v7h-7V29z M1038.2,43.6h7v7h-7V43.6z M1038.2,87.1h7v7h-7V87.1z
	 M1038.2,94.4h7v7h-7V94.4z M1038.2,101.6h7v7h-7V101.6z M1038.2,108.9h7v7h-7V108.9z M1038.2,116.1h7v7h-7V116.1z M1038.2,145.2h7
	v7h-7V145.2z M1038.2,159.7h7v7h-7V159.7z M1038.2,174.2h7v7h-7V174.2z M1038.2,181.5h7v7h-7V181.5z M1038.2,188.8h7v7h-7V188.8z
	 M1038.2,210.5h7v7h-7V210.5z M1038.2,232.3h7v7h-7V232.3z M1038.2,239.6h7v7h-7V239.6z M1038.2,246.8h7v7h-7V246.8z M1038.2,254.1
	h7v7h-7V254.1z M1038.2,261.4h7v7h-7V261.4z M1038.2,268.6h7v7h-7V268.6z M1038.2,275.9h7v7h-7V275.9z M1038.2,283.1h7v7h-7V283.1z
	 M1038.2,290.4h7v7h-7V290.4z M1038.2,297.6h7v7h-7V297.6z M1038.2,304.9h7v7h-7V304.9z M1038.2,312.2h7v7h-7V312.2z M1038.2,319.4
	h7v7h-7V319.4z M1038.2,326.7h7v7h-7V326.7z M1038.2,334h7v7h-7V334z M1038.2,341.2h7v7h-7V341.2z M1038.2,348.5h7v7h-7V348.5z
	 M1038.2,355.7h7v7h-7V355.7z M1038.2,363h7v7h-7V363z M1038.2,370.2h7v7h-7V370.2z M1038.2,377.5h7v7h-7V377.5z M1045.5,0h7v7h-7V0
	z M1045.5,7.2h7v7h-7V7.2z M1045.5,21.8h7v7h-7V21.8z M1045.5,29h7v7h-7V29z M1045.5,43.6h7v7h-7V43.6z M1045.5,65.3h7v7h-7V65.3z
	 M1045.5,72.6h7v7h-7V72.6z M1045.5,79.9h7v7h-7V79.9z M1045.5,87.1h7v7h-7V87.1z M1045.5,101.6h7v7h-7V101.6z M1045.5,116.1h7v7h-7
	V116.1z M1045.5,123.4h7v7h-7V123.4z M1045.5,130.7h7v7h-7V130.7z M1045.5,137.9h7v7h-7V137.9z M1045.5,145.2h7v7h-7V145.2z
	 M1045.5,152.4h7v7h-7V152.4z M1045.5,167h7v7h-7V167z M1045.5,181.5h7v7h-7V181.5z M1045.5,188.8h7v7h-7V188.8z M1045.5,196h7v7h-7
	V196z M1045.5,203.3h7v7h-7V203.3z M1045.5,210.5h7v7h-7V210.5z M1045.3,268.5h7v7h-7V268.5z M1045.5,290.4h7v7h-7V290.4z
	 M1045.5,312.2h7v7h-7V312.2z M1045.5,334h7v7h-7V334z M1045.5,348.5h7v7h-7V348.5z M1045.5,370.2h7v7h-7V370.2z M1052.7,0h7v7h-7V0
	z M1052.7,7.2h7v7h-7V7.2z M1052.7,21.8h7v7h-7V21.8z M1052.7,29h7v7h-7V29z M1052.7,43.6h7v7h-7V43.6z M1052.7,58.1h7v7h-7V58.1z
	 M1052.7,87.1h7v7h-7V87.1z M1052.7,94.4h7v7h-7V94.4z M1052.7,101.6h7v7h-7V101.6z M1052.7,108.9h7v7h-7V108.9z M1052.7,116.1h7v7
	h-7V116.1z M1052.7,145.2h7v7h-7V145.2z M1052.7,159.7h7v7h-7V159.7z M1052.7,174.2h7v7h-7V174.2z M1052.7,188.8h7v7h-7V188.8z
	 M1052.5,268.5h7v7h-7V268.5z M1052.7,290.4h7v7h-7V290.4z M1052.7,312.2h7v7h-7V312.2z M1052.7,334h7v7h-7V334z M1052.7,348.5h7v7
	h-7V348.5z M1052.7,370.2h7v7h-7V370.2z M1060,0h7v7h-7V0z M1060,7.2h7v7h-7V7.2z M1060,21.8h7v7h-7V21.8z M1060,29h7v7h-7V29z
	 M1060,43.6h7v7h-7V43.6z M1060,50.8h7v7h-7V50.8z M1060,145.2h7v7h-7V145.2z M1060,152.4h7v7h-7V152.4z M1060,159.7h7v7h-7V159.7z
	 M1067.2,159.7h7v7h-7V159.7z M1074.5,159.7h7v7h-7V159.7z M1081.8,159.7h7v7h-7V159.7z M1060,167h7v7h-7V167z M1060,174.2h7v7h-7
	V174.2z M1067.2,174.2h7v7h-7V174.2z M1074.5,174.2h7v7h-7V174.2z M1081.8,174.2h7v7h-7V174.2z M1060,181.5h7v7h-7V181.5z
	 M1060,188.8h7v7h-7V188.8z M1059.8,268.5h7v7h-7V268.5z M1060,297.6h7v7h-7V297.6z M1060,319.4h7v7h-7V319.4z M1060,334h7v7h-7V334
	z M1060,348.5h7v7h-7V348.5z M1060,363h7v7h-7V363z M1067.2,0h7v7h-7V0z M1067.2,7.2h7v7h-7V7.2z M1067.2,21.8h7v7h-7V21.8z
	 M1067.2,29h7v7h-7V29z M1067.2,43.6h7v7h-7V43.6z M1067.2,50.8h7v7h-7V50.8z M1067,275.7h7v7h-7V275.7z M1067.2,283.1h7v7h-7V283.1
	z M1067.2,304.9h7v7h-7V304.9z M1067.2,326.7h7v7h-7V326.7z M1067.2,334h7v7h-7V334z M1067.2,348.5h7v7h-7V348.5z M1067.2,355.7h7v7
	h-7V355.7z M1001.9,399.3h7v7h-7V399.3z M1001.9,406.6h7v7h-7V406.6z M1001.9,413.8h7v7h-7V413.8z M1009.2,399.3h7v7h-7V399.3z
	 M1016.4,399.3h7v7h-7V399.3z M1016.4,406.6h7v7h-7V406.6z M1016.4,413.8h7v7h-7V413.8z M1023.7,399.3h7v7h-7V399.3z M1030.9,406.5
	h7v7h-7V406.5z M1030.9,392h7v7h-7V392z M1030.9,399.3h7v7h-7V399.3z M1030.9,413.8h7v7h-7V413.8z M1038.2,384.8h7v7h-7V384.8z
	 M1038.2,392h7v7h-7V392z M1038.2,399.3h7v7h-7V399.3z M1053,435.9h7v7h-7V435.9z M1053,443.1h7v7h-7V443.1z M1053,450.4h7v7h-7
	V450.4z M1053,457.7h7v7h-7V457.7z M1053,464.9h7v7h-7V464.9z M1060.2,435.9h7v7h-7V435.9z M1060.2,450.4h7v7h-7V450.4z
	 M1001.9,421.1h7v7h-7V421.1z M1001.9,428.3h7v7h-7V428.3z M1001.9,442.9h7v7h-7V442.9z M1001.9,450.1h7v7h-7V450.1z M1001.9,457.4
	h7v7h-7V457.4z M1001.9,464.6h7v7h-7V464.6z M1001.9,471.9h7v7h-7V471.9z M1001.9,479.1h7v7h-7V479.1z M1001.9,486.4h7v7h-7V486.4z
	 M1009.2,428.3h7v7h-7V428.3z M1009.2,442.9h7v7h-7V442.9z M1009.2,450.1h7v7h-7V450.1z M1009.2,457.4h7v7h-7V457.4z M1009.2,464.6
	h7v7h-7V464.6z M1009.2,471.9h7v7h-7V471.9z M1016.4,421.1h7v7h-7V421.1z M1016.4,428.3h7v7h-7V428.3z M1016.4,442.9h7v7h-7V442.9z
	 M1016.4,457.4h7v7h-7V457.4z M1016.4,464.6h7v7h-7V464.6z M1016.4,471.9h7v7h-7V471.9z M1016.4,479.1h7v7h-7V479.1z M1016.4,486.4
	h7v7h-7V486.4z M1023.7,428.3h7v7h-7V428.3z M1023.7,442.9h7v7h-7V442.9z M1023.7,450.1h7v7h-7V450.1z M1023.7,457.4h7v7h-7V457.4z
	 M1023.7,471.9h7v7h-7V471.9z M1030.9,421.1h7v7h-7V421.1z M1030.9,428.3h7v7h-7V428.3z M1030.9,471.9h7v7h-7V471.9z M1030.9,479.1
	h7v7h-7V479.1z M1030.9,486.4h7v7h-7V486.4z M1038.2,428.3h7v7h-7V428.3z M1038.2,435.6h7v7h-7V435.6z M1038.2,442.9h7v7h-7V442.9z
	 M1038.2,450.1h7v7h-7V450.1z M1038.2,457.4h7v7h-7V457.4z M1038.2,464.6h7v7h-7V464.6z M1038.2,471.9h7v7h-7V471.9z M1045.4,493.7
	h7v7h-7V493.7z M1052.6,493.7h7v7h-7V493.7z M1059.9,493.7h7v7h-7V493.7z M1067.2,493.7h7v7h-7V493.7z M1067.2,500.9h7v7h-7V500.9z
	 M1067.2,508.2h7v7h-7V508.2z M1001.9,493.7h7v7h-7V493.7z M1001.9,500.9h7v7h-7V500.9z M1001.9,508.2h7v7h-7V508.2z M1009.2,493.7
	h7v7h-7V493.7z M1009.2,500.9h7v7h-7V500.9z M1009.2,508.2h7v7h-7V508.2z M1016.4,493.7h7v7h-7V493.7z M1016.4,500.9h7v7h-7V500.9z
	 M1016.4,508.2h7v7h-7V508.2z M1023.7,493.7h7v7h-7V493.7z M1023.7,500.9h7v7h-7V500.9z M1023.7,508.2h7v7h-7V508.2z M1030.9,493.7
	h7v7h-7V493.7z M1030.9,500.9h7v7h-7V500.9z M1030.9,508.2h7v7h-7V508.2z M1038.2,493.7h7v7h-7V493.7z M1038.2,500.9h7v7h-7V500.9z
	 M1038.2,508.2h7v7h-7V508.2z M1045.4,501h7v7h-7V501z M1045.4,508.2h7v7h-7V508.2z M1052.6,501h7v7h-7V501z M1052.6,508.2h7v7h-7
	V508.2z M1059.9,501h7v7h-7V501z M1059.9,508.2h7v7h-7V508.2z M1074.5,0h7v7h-7V0z M1074.5,7.2h7v7h-7V7.2z M1074.5,21.8h7v7h-7
	V21.8z M1074.5,29h7v7h-7V29z M1074.5,43.6h7v7h-7V43.6z M1074.5,50.8h7v7h-7V50.8z M1074.5,290.4h7v7h-7V290.4z M1074.5,312.2h7v7
	h-7V312.2z M1074.5,326.7h7v7h-7V326.7z M1074.5,334h7v7h-7V334z M1074.5,348.5h7v7h-7V348.5z M1074.5,355.7h7v7h-7V355.7z
	 M1081.8,0h7v7h-7V0z M1081.8,7.2h7v7h-7V7.2z M1081.8,21.8h7v7h-7V21.8z M1081.8,29h7v7h-7V29z M1081.8,43.6h7v7h-7V43.6z
	 M1081.8,50.8h7v7h-7V50.8z M1089,159.6h7v7h-7V159.6z M1089,166.9h7v7h-7V166.9z M1089,174.2h7v7h-7V174.2z M1081.8,297.6h7v7h-7
	V297.6z M1081.8,312.2h7v7h-7V312.2z M1081.8,326.7h7v7h-7V326.7z M1081.8,334h7v7h-7V334z M1081.8,348.5h7v7h-7V348.5z
	 M1081.8,355.7h7v7h-7V355.7z M1089,0h7v7h-7V0z M1089,7.2h7v7h-7V7.2z M1089,21.8h7v7h-7V21.8z M1089,29h7v7h-7V29z M1089,43.6h7v7
	h-7V43.6z M1089,50.8h7v7h-7V50.8z M1096.2,152.4h7v7h-7V152.4z M1096.2,159.6h7v7h-7V159.6z M1096.2,166.9h7v7h-7V166.9z
	 M1096.2,174.2h7v7h-7V174.2z M1096.2,181.4h7v7h-7V181.4z M1089,304.9h7v7h-7V304.9z M1089,312.2h7v7h-7V312.2z M1089,326.7h7v7h-7
	V326.7z M1089,334h7v7h-7V334z M1089,348.5h7v7h-7V348.5z M1089,355.7h7v7h-7V355.7z M1096.3,0h7v7h-7V0z M1096.3,7.2h7v7h-7V7.2z
	 M1096.3,21.8h7v7h-7V21.8z M1096.3,29h7v7h-7V29z M1096.3,43.6h7v7h-7V43.6z M1096.3,50.8h7v7h-7V50.8z M1103.5,145.1h7v7h-7V145.1
	z M1103.5,152.4h7v7h-7V152.4z M1103.5,166.9h7v7h-7V166.9z M1103.5,174.2h7v7h-7V174.2z M1103.5,188.8h7v7h-7V188.8z M1096.3,225h7
	v7h-7V225z M1096.3,232.3h7v7h-7V232.3z M1096.3,304.9h7v7h-7V304.9z M1096.3,312.2h7v7h-7V312.2z M1096.3,326.7h7v7h-7V326.7z
	 M1096.3,334h7v7h-7V334z M1096.3,348.5h7v7h-7V348.5z M1096.3,355.7h7v7h-7V355.7z M1103.5,0h7v7h-7V0z M1103.5,7.2h7v7h-7V7.2z
	 M1103.5,21.8h7v7h-7V21.8z M1103.5,29h7v7h-7V29z M1103.5,43.6h7v7h-7V43.6z M1103.5,50.8h7v7h-7V50.8z M1110.7,145.1h7v7h-7V145.1
	z M1110.7,152.4h7v7h-7V152.4z M1110.7,166.9h7v7h-7V166.9z M1110.7,174.2h7v7h-7V174.2z M1110.7,188.8h7v7h-7V188.8z M1103.5,217.8
	h7v7h-7V217.8z M1103.5,239.6h7v7h-7V239.6z M1103.5,246.8h7v7h-7V246.8z M1103.5,254.1h7v7h-7V254.1z M1103.5,261.4h7v7h-7V261.4z
	 M1110.8,275.9h7v7h-7V275.9z M1103.5,268.6h7v7h-7V268.6z M1103.5,304.9h7v7h-7V304.9z M1103.5,312.2h7v7h-7V312.2z M1103.5,326.7
	h7v7h-7V326.7z M1103.5,334h7v7h-7V334z M1103.5,348.5h7v7h-7V348.5z M1103.5,355.7h7v7h-7V355.7z M1110.8,0h7v7h-7V0z M1110.8,7.2
	h7v7h-7V7.2z M1110.8,21.8h7v7h-7V21.8z M1110.8,29h7v7h-7V29z M1110.8,43.6h7v7h-7V43.6z M1110.8,50.8h7v7h-7V50.8z M1118,145.1h7
	v7h-7V145.1z M1118,152.4h7v7h-7V152.4z M1118,159.6h7v7h-7V159.6z M1118,166.9h7v7h-7V166.9z M1118,174.2h7v7h-7V174.2z
	 M1118,181.4h7v7h-7V181.4z M1118,188.8h7v7h-7V188.8z M1110.8,217.8h7v7h-7V217.8z M1110.8,239.6h7v7h-7V239.6z M1110.8,246.8h7v7
	h-7V246.8z M1110.8,254.1h7v7h-7V254.1z M1110.8,261.4h7v7h-7V261.4z M1110.8,268.6h7v7h-7V268.6z M1118.1,283.2h7v7h-7V283.2z
	 M1110.8,304.9h7v7h-7V304.9z M1110.8,312.2h7v7h-7V312.2z M1110.8,326.7h7v7h-7V326.7z M1110.8,334h7v7h-7V334z M1110.8,348.5h7v7
	h-7V348.5z M1110.8,355.7h7v7h-7V355.7z M1118.1,0h7v7h-7V0z M1118.1,7.2h7v7h-7V7.2z M1118.1,21.8h7v7h-7V21.8z M1118.1,29h7v7h-7
	V29z M1118.1,43.6h7v7h-7V43.6z M1118.1,50.8h7v7h-7V50.8z M1118.1,108.9h7v7h-7V108.9z M1118.1,116.1h7v7h-7V116.1z M1125.3,152.4
	h7v7h-7V152.4z M1125.3,159.6h7v7h-7V159.6z M1125.3,174.2h7v7h-7V174.2z M1125.3,181.4h7v7h-7V181.4z M1118.1,225h7v7h-7V225z
	 M1118.1,232.3h7v7h-7V232.3z M1118.1,268.6h7v7h-7V268.6z M1118.1,275.9h7v7h-7V275.9z M1125.3,290.4h7v7h-7V290.4z M1118.1,304.9
	h7v7h-7V304.9z M1118.1,312.2h7v7h-7V312.2z M1118.1,326.7h7v7h-7V326.7z M1118.1,334h7v7h-7V334z M1118.1,348.5h7v7h-7V348.5z
	 M1118.1,355.7h7v7h-7V355.7z M1125.3,0h7v7h-7V0z M1125.3,7.2h7v7h-7V7.2z M1125.3,21.8h7v7h-7V21.8z M1125.3,29h7v7h-7V29z
	 M1125.3,43.6h7v7h-7V43.6z M1125.3,50.8h7v7h-7V50.8z M1125.3,79.9h7v7h-7V79.9z M1125.3,87.1h7v7h-7V87.1z M1125.3,94.4h7v7h-7
	V94.4z M1125.3,101.6h7v7h-7V101.6z M1125.3,123.4h7v7h-7V123.4z M1132.5,159.6h7v7h-7V159.6z M1132.5,166.9h7v7h-7V166.9z
	 M1132.5,174.2h7v7h-7V174.2z M1125.3,275.9h7v7h-7V275.9z M1125.3,283.1h7v7h-7V283.1z M1125.3,304.9h7v7h-7V304.9z M1125.3,312.2
	h7v7h-7V312.2z M1125.3,326.7h7v7h-7V326.7z M1125.3,334h7v7h-7V334z M1125.3,348.5h7v7h-7V348.5z M1125.3,355.7h7v7h-7V355.7z
	 M1132.6,0h7v7h-7V0z M1132.6,7.2h7v7h-7V7.2z M1132.6,21.8h7v7h-7V21.8z M1132.6,29h7v7h-7V29z M1132.6,43.6h7v7h-7V43.6z
	 M1132.6,50.8h7v7h-7V50.8z M1132.6,72.6h7v7h-7V72.6z M1132.6,79.9h7v7h-7V79.9z M1132.6,87.1h7v7h-7V87.1z M1132.6,94.4h7v7h-7
	V94.4z M1132.6,101.6h7v7h-7V101.6z M1132.6,123.4h7v7h-7V123.4z M1132.6,283.1h7v7h-7V283.1z M1132.6,290.4h7v7h-7V290.4z
	 M1132.6,304.9h7v7h-7V304.9z M1132.6,312.2h7v7h-7V312.2z M1132.6,326.7h7v7h-7V326.7z M1132.6,334h7v7h-7V334z M1132.6,348.5h7v7
	h-7V348.5z M1132.6,355.7h7v7h-7V355.7z M1139.8,0h7v7h-7V0z M1139.8,7.2h7v7h-7V7.2z M1139.8,21.8h7v7h-7V21.8z M1139.8,29h7v7h-7
	V29z M1139.8,43.6h7v7h-7V43.6z M1139.8,50.8h7v7h-7V50.8z M1139.8,65.3h7v7h-7V65.3z M1139.8,72.6h7v7h-7V72.6z M1139.8,79.9h7v7
	h-7V79.9z M1139.8,108.9h7v7h-7V108.9z M1139.8,116.1h7v7h-7V116.1z M1139.8,283.1h7v7h-7V283.1z M1139.8,290.4h7v7h-7V290.4z
	 M1139.8,304.9h7v7h-7V304.9z M1139.8,312.2h7v7h-7V312.2z M1139.8,326.7h7v7h-7V326.7z M1139.8,334h7v7h-7V334z M1139.8,348.5h7v7
	h-7V348.5z M1139.8,355.7h7v7h-7V355.7z M1067.5,435.9h7v7h-7V435.9z M1082,435.9h7v7h-7V435.9z M1082,443.1h7v7h-7V443.1z
	 M1082,450.4h7v7h-7V450.4z M1082,464.9h7v7h-7V464.9z M1089.3,435.9h7v7h-7V435.9z M1089.3,450.4h7v7h-7V450.4z M1089.3,464.9h7v7
	h-7V464.9z M1096.5,435.9h7v7h-7V435.9z M1096.5,450.4h7v7h-7V450.4z M1096.5,457.7h7v7h-7V457.7z M1096.5,464.9h7v7h-7V464.9z
	 M1111,464.9h7v7h-7V464.9z M1125.6,435.9h7v7h-7V435.9z M1125.6,450.4h7v7h-7V450.4z M1125.6,457.7h7v7h-7V457.7z M1125.6,464.9h7
	v7h-7V464.9z M1074.5,493.7h7v7h-7V493.7z M1074.5,500.9h7v7h-7V500.9z M1074.5,508.2h7v7h-7V508.2z M1081.8,493.7h7v7h-7V493.7z
	 M1081.8,500.9h7v7h-7V500.9z M1081.8,508.2h7v7h-7V508.2z M1089,493.7h7v7h-7V493.7z M1089,500.9h7v7h-7V500.9z M1089,508.2h7v7h-7
	V508.2z M1096.3,493.7h7v7h-7V493.7z M1096.3,500.9h7v7h-7V500.9z M1096.3,508.2h7v7h-7V508.2z M1103.5,493.7h7v7h-7V493.7z
	 M1103.5,500.9h7v7h-7V500.9z M1103.5,508.2h7v7h-7V508.2z M1110.8,493.7h7v7h-7V493.7z M1110.8,500.9h7v7h-7V500.9z M1110.8,508.2
	h7v7h-7V508.2z M1118.1,493.7h7v7h-7V493.7z M1118.1,500.9h7v7h-7V500.9z M1118.1,508.2h7v7h-7V508.2z M1125.3,493.7h7v7h-7V493.7z
	 M1125.3,500.9h7v7h-7V500.9z M1125.3,508.2h7v7h-7V508.2z M1132.6,493.7h7v7h-7V493.7z M1132.6,500.9h7v7h-7V500.9z M1132.6,508.2
	h7v7h-7V508.2z M1132.6,522.7h7v7h-7V522.7z M1139.8,493.7h7v7h-7V493.7z M1139.8,500.9h7v7h-7V500.9z M1139.8,508.2h7v7h-7V508.2z
	 M1139.8,515.4h7v7h-7V515.4z M1132.6,537.2h7v7h-7V537.2z M1132.6,551.8h7v7h-7V551.8z M1139.8,530h7v7h-7V530z M1139.8,544.5h7v7
	h-7V544.5z M1139.8,559h7v7h-7V559z M1147.1,0h7v7h-7V0z M1147.1,7.2h7v7h-7V7.2z M1147.1,21.8h7v7h-7V21.8z M1147.1,29h7v7h-7V29z
	 M1147.1,43.6h7v7h-7V43.6z M1147.1,50.8h7v7h-7V50.8z M1147.1,65.3h7v7h-7V65.3z M1147.1,72.6h7v7h-7V72.6z M1147.1,283.1h7v7h-7
	V283.1z M1147.1,290.4h7v7h-7V290.4z M1147.1,304.9h7v7h-7V304.9z M1147.1,312.2h7v7h-7V312.2z M1147.1,326.7h7v7h-7V326.7z
	 M1147.1,334h7v7h-7V334z M1147.1,348.5h7v7h-7V348.5z M1147.1,355.7h7v7h-7V355.7z M1154.4,0h7v7h-7V0z M1154.4,7.2h7v7h-7V7.2z
	 M1154.4,21.8h7v7h-7V21.8z M1154.4,29h7v7h-7V29z M1154.4,43.6h7v7h-7V43.6z M1154.4,50.8h7v7h-7V50.8z M1154.4,65.3h7v7h-7V65.3z
	 M1154.4,72.6h7v7h-7V72.6z M1154.4,283.1h7v7h-7V283.1z M1154.4,290.4h7v7h-7V290.4z M1154.4,304.9h7v7h-7V304.9z M1154.4,312.2h7
	v7h-7V312.2z M1154.4,326.7h7v7h-7V326.7z M1154.4,334h7v7h-7V334z M1154.4,348.5h7v7h-7V348.5z M1154.4,355.7h7v7h-7V355.7z
	 M1140.1,443.1h7v7h-7V443.1z M1147.4,435.9h7v7h-7V435.9z M1147.4,443.1h7v7h-7V443.1z M1147.4,450.4h7v7h-7V450.4z M1147.4,457.7
	h7v7h-7V457.7z M1147.4,464.9h7v7h-7V464.9z M1147.1,493.7h7v7h-7V493.7z M1147.1,500.9h7v7h-7V500.9z M1147.1,508.2h7v7h-7V508.2z
	 M1147.1,515.4h7v7h-7V515.4z M1147.1,522.7h7v7h-7V522.7z M1154.4,493.7h7v7h-7V493.7z M1154.4,500.9h7v7h-7V500.9z M1154.4,508.2
	h7v7h-7V508.2z M1154.4,515.4h7v7h-7V515.4z M1154.4,522.7h7v7h-7V522.7z M1147.1,530h7v7h-7V530z M1147.1,537.2h7v7h-7V537.2z
	 M1147.1,544.5h7v7h-7V544.5z M1147.1,551.8h7v7h-7V551.8z M1147.1,559h7v7h-7V559z M1147.1,566.3h7v7h-7V566.3z M1147.1,573.5h7v7
	h-7V573.5z M1154.4,530h7v7h-7V530z M1154.4,537.2h7v7h-7V537.2z M1154.4,544.5h7v7h-7V544.5z M1154.4,551.8h7v7h-7V551.8z
	 M1154.4,559h7v7h-7V559z M1154.4,566.3h7v7h-7V566.3z M1154.4,573.5h7v7h-7V573.5z M1154.4,580.8h7v7h-7V580.8z M1154.4,588h7v7h-7
	V588z M885.7,341.2h7v7h-7V341.2z M893,341.2h7v7h-7V341.2z M813.1,159.7h7v7h-7V159.7z M827.7,159.7h7v7h-7V159.7z M1125.3,544.5h7
	v7h-7V544.5z M0,493.7h7v7H0V493.7z M7.3,493.7h7v7h-7V493.7z M14.5,493.7h7v7h-7V493.7z M21.8,493.7h7v7h-7V493.7z M21.8,500.9h7v7
	h-7V500.9z M29.1,493.7h7v7h-7V493.7z M29.1,500.9h7v7h-7V500.9z M36.3,493.7h7v7h-7V493.7z M36.3,500.9h7v7h-7V500.9z M43.6,493.7
	h7v7h-7V493.7z M43.6,500.9h7v7h-7V500.9z M43.6,508.2h7v7h-7V508.2z M50.8,493.7h7v7h-7V493.7z M50.8,500.9h7v7h-7V500.9z
	 M50.8,508.2h7v7h-7V508.2z M58.1,493.7h7v7h-7V493.7z M58.1,500.9h7v7h-7V500.9z M58.1,508.2h7v7h-7V508.2z M65.4,493.7h7v7h-7
	V493.7z M65.4,500.9h7v7h-7V500.9z M65.4,508.2h7v7h-7V508.2z M72.6,493.7h7v7h-7V493.7z M72.6,500.9h7v7h-7V500.9z M72.6,508.2h7v7
	h-7V508.2z M79.9,493.7h7v7h-7V493.7z M79.9,500.9h7v7h-7V500.9z M79.9,508.2h7v7h-7V508.2z M79.9,515.4h7v7h-7V515.4z M87.1,493.7
	h7v7h-7V493.7z M87.1,500.9h7v7h-7V500.9z M87.1,508.2h7v7h-7V508.2z M87.1,522.7h7v7h-7V522.7z M94.4,493.7h7v7h-7V493.7z
	 M94.4,500.9h7v7h-7V500.9z M94.4,508.2h7v7h-7V508.2z M94.4,515.4h7v7h-7V515.4z M101.7,493.7h7v7h-7V493.7z M101.7,500.9h7v7h-7
	V500.9z M101.7,508.2h7v7h-7V508.2z M101.7,522.7h7v7h-7V522.7z M108.9,493.7h7v7h-7V493.7z M108.9,500.9h7v7h-7V500.9z
	 M108.9,508.2h7v7h-7V508.2z M108.9,515.4h7v7h-7V515.4z M116.2,493.7h7v7h-7V493.7z M116.2,500.9h7v7h-7V500.9z M116.2,508.2h7v7
	h-7V508.2z M116.2,522.7h7v7h-7V522.7z M123.4,493.7h7v7h-7V493.7z M123.4,500.9h7v7h-7V500.9z M123.4,508.2h7v7h-7V508.2z
	 M123.4,515.4h7v7h-7V515.4z M108.9,530h7v7h-7V530z M123.4,530h7v7h-7V530z M130.7,493.7h7v7h-7V493.7z M130.7,500.9h7v7h-7V500.9z
	 M130.7,508.2h7v7h-7V508.2z M130.7,522.7h7v7h-7V522.7z M138,493.7h7v7h-7V493.7z M138,500.9h7v7h-7V500.9z M138,508.2h7v7h-7
	V508.2z M138,515.4h7v7h-7V515.4z M145.2,493.7h7v7h-7V493.7z M145.2,500.9h7v7h-7V500.9z M145.2,508.2h7v7h-7V508.2z M145.2,522.7
	h7v7h-7V522.7z M152.5,493.7h7v7h-7V493.7z M152.5,500.9h7v7h-7V500.9z M152.5,508.2h7v7h-7V508.2z M152.5,515.4h7v7h-7V515.4z
	 M159.7,493.7h7v7h-7V493.7z M159.7,500.9h7v7h-7V500.9z M159.7,508.2h7v7h-7V508.2z M159.7,522.7h7v7h-7V522.7z M167,493.7h7v7h-7
	V493.7z M167,500.9h7v7h-7V500.9z M167,508.2h7v7h-7V508.2z M174.3,493.7h7v7h-7V493.7z M174.3,500.9h7v7h-7V500.9z M174.3,508.2h7
	v7h-7V508.2z M181.5,493.7h7v7h-7V493.7z M181.5,500.9h7v7h-7V500.9z M181.5,508.2h7v7h-7V508.2z M188.8,493.7h7v7h-7V493.7z
	 M188.8,500.9h7v7h-7V500.9z M188.8,508.2h7v7h-7V508.2z M196,493.7h7v7h-7V493.7z M196,500.9h7v7h-7V500.9z M196,508.2h7v7h-7
	V508.2z M138,530h7v7h-7V530z M152.5,530h7v7h-7V530z M167,530h7v7h-7V530z M167,515.4h7v7h-7V515.4z M174.2,522.7h7v7h-7V522.7z
	 M181.5,530h7v7h-7V530z M181.5,515.4h7v7h-7V515.4z M188.7,522.7h7v7h-7V522.7z M196,530h7v7h-7V530z M196.1,515.4h7v7h-7V515.4z
	 M203.3,522.7h7v7h-7V522.7z M210.6,530h7v7h-7V530z M210.6,515.4h7v7h-7V515.4z M217.8,522.7h7v7h-7V522.7z M225.1,530h7v7h-7V530z
	 M225.1,515.4h7v7h-7V515.4z M232.3,522.7h7v7h-7V522.7z M239.6,530h7v7h-7V530z M239.6,515.4h7v7h-7V515.4z M246.8,522.7h7v7h-7
	V522.7z M254.1,530h7v7h-7V530z M254.1,515.4h7v7h-7V515.4z M261.3,522.7h7v7h-7V522.7z M268.6,530h7v7h-7V530z M268.7,515.4h7v7h-7
	V515.4z M275.9,522.7h7v7h-7V522.7z M283.2,530h7v7h-7V530z M283.2,515.4h7v7h-7V515.4z M290.4,522.7h7v7h-7V522.7z M297.7,530h7v7
	h-7V530z M297.7,515.4h7v7h-7V515.4z M304.9,522.7h7v7h-7V522.7z M312.2,530h7v7h-7V530z M312.2,515.4h7v7h-7V515.4z M319.4,522.7h7
	v7h-7V522.7z M326.7,530h7v7h-7V530z M326.7,515.4h7v7h-7V515.4z M333.9,522.7h7v7h-7V522.7z M341.2,530h7v7h-7V530z M341.3,515.4h7
	v7h-7V515.4z M348.5,522.7h7v7h-7V522.7z M355.8,530h7v7h-7V530z M355.8,515.4h7v7h-7V515.4z M363,522.7h7v7h-7V522.7z M370.3,530h7
	v7h-7V530z M370.3,515.4h7v7h-7V515.4z M377.5,522.7h7v7h-7V522.7z M384.8,530h7v7h-7V530z M384.8,515.4h7v7h-7V515.4z M392,522.7h7
	v7h-7V522.7z M399.3,530h7v7h-7V530z M399.3,515.4h7v7h-7V515.4z M203.3,493.7h7v7h-7V493.7z M203.3,500.9h7v7h-7V500.9z
	 M203.3,508.2h7v7h-7V508.2z M210.6,493.7h7v7h-7V493.7z M210.6,500.9h7v7h-7V500.9z M210.6,508.2h7v7h-7V508.2z M217.8,493.7h7v7
	h-7V493.7z M217.8,500.9h7v7h-7V500.9z M217.8,508.2h7v7h-7V508.2z M225.1,493.7h7v7h-7V493.7z M225.1,500.9h7v7h-7V500.9z
	 M225.1,508.2h7v7h-7V508.2z M232.3,493.7h7v7h-7V493.7z M232.3,500.9h7v7h-7V500.9z M232.3,508.2h7v7h-7V508.2z M239.6,493.7h7v7
	h-7V493.7z M239.6,500.9h7v7h-7V500.9z M239.6,508.2h7v7h-7V508.2z M246.9,493.7h7v7h-7V493.7z M246.9,500.9h7v7h-7V500.9z
	 M246.9,508.2h7v7h-7V508.2z M254.1,493.7h7v7h-7V493.7z M254.1,500.9h7v7h-7V500.9z M254.1,508.2h7v7h-7V508.2z M261.4,493.7h7v7
	h-7V493.7z M261.4,500.9h7v7h-7V500.9z M261.4,508.2h7v7h-7V508.2z M268.6,493.7h7v7h-7V493.7z M268.6,500.9h7v7h-7V500.9z
	 M268.6,508.2h7v7h-7V508.2z M275.9,493.7h7v7h-7V493.7z M275.9,500.9h7v7h-7V500.9z M275.9,508.2h7v7h-7V508.2z M283.2,493.7h7v7
	h-7V493.7z M283.2,500.9h7v7h-7V500.9z M283.2,508.2h7v7h-7V508.2z M290.4,493.7h7v7h-7V493.7z M290.4,500.9h7v7h-7V500.9z
	 M290.4,508.2h7v7h-7V508.2z M297.7,493.7h7v7h-7V493.7z M297.7,500.9h7v7h-7V500.9z M297.7,508.2h7v7h-7V508.2z M304.9,493.7h7v7
	h-7V493.7z M304.9,500.9h7v7h-7V500.9z M304.9,508.2h7v7h-7V508.2z M312.2,493.7h7v7h-7V493.7z M312.2,500.9h7v7h-7V500.9z
	 M312.2,508.2h7v7h-7V508.2z M319.5,493.7h7v7h-7V493.7z M319.5,500.9h7v7h-7V500.9z M319.5,508.2h7v7h-7V508.2z M326.7,493.7h7v7
	h-7V493.7z M326.7,500.9h7v7h-7V500.9z M326.7,508.2h7v7h-7V508.2z M334,493.7h7v7h-7V493.7z M334,500.9h7v7h-7V500.9z M334,508.2h7
	v7h-7V508.2z M341.2,493.7h7v7h-7V493.7z M341.2,500.9h7v7h-7V500.9z M341.2,508.2h7v7h-7V508.2z M348.5,493.7h7v7h-7V493.7z
	 M348.5,500.9h7v7h-7V500.9z M348.5,508.2h7v7h-7V508.2z M355.8,493.7h7v7h-7V493.7z M355.8,500.9h7v7h-7V500.9z M355.8,508.2h7v7
	h-7V508.2z M363,493.7h7v7h-7V493.7z M363,500.9h7v7h-7V500.9z M363,508.2h7v7h-7V508.2z M370.3,493.7h7v7h-7V493.7z M370.3,500.9h7
	v7h-7V500.9z M370.3,508.2h7v7h-7V508.2z M377.5,493.7h7v7h-7V493.7z M377.5,500.9h7v7h-7V500.9z M377.5,508.2h7v7h-7V508.2z
	 M384.8,493.7h7v7h-7V493.7z M384.8,500.9h7v7h-7V500.9z M384.8,508.2h7v7h-7V508.2z M392.1,493.7h7v7h-7V493.7z M392.1,500.9h7v7
	h-7V500.9z M392.1,508.2h7v7h-7V508.2z M399.3,493.7h7v7h-7V493.7z M399.3,500.9h7v7h-7V500.9z M399.3,508.2h7v7h-7V508.2z
	 M65.4,515.5h7v7h-7V515.5z"/>
</svg>
