<?xml version="1.0" encoding="utf-8"?>
<!-- Generator: Adobe Illustrator 27.3.1, SVG Export Plug-In . SVG Version: 6.00 Build 0)  -->
<svg version="1.1" xmlns="http://www.w3.org/2000/svg" xmlns:xlink="http://www.w3.org/1999/xlink" x="0px" y="0px"
	 viewBox="0 0 152.2 304.6" style="enable-background:new 0 0 152.2 304.6;" xml:space="preserve">
<style type="text/css">
	.st0{fill:#FCE19B;}
	.st1{fill:#1E0E01;}
</style>
<g id="Слой_2">
	<path class="st0" d="M152.2,118.4H150v-2.2c0-2.8-2.2-5-5-5h-2.3v-2.3c0-0.1,0-0.1,0-0.1c0,0,0-0.1,0-0.1v-7c0,0,0-0.1,0-0.1
		c0,0,0-0.1,0-0.1v-7c0-0.1,0-0.1,0-0.1c0,0,0-0.1,0-0.1v-2.3h2.3c2.8,0,5-2.2,5-5v-7c0,0,0-0.1,0-0.1c0,0,0-0.1,0-0.1v-7
		c0-0.1,0-0.1,0-0.1c0-0.1,0-0.1,0-0.2v-7c0,0,0-0.1,0-0.1c0,0,0-0.1,0-0.1v-7c0-0.1,0-0.1,0-0.1c0-0.1,0-0.1,0-0.2v-7
		c0,0,0-0.1,0-0.1c0,0,0-0.1,0-0.1v-7c0-2.8-2.2-5-5-5h-2.3v-2.3c0-0.1,0-0.1,0-0.1c0,0,0-0.1,0-0.1v-7c0-0.1,0-0.1,0-0.1
		c0,0,0-0.1,0-0.1v-7c0-2.8-2.2-5-5-5h-2.3v-2.2c0-2.8-2.2-5-5-5h-2.2V7.2c0-2.8-2.2-5-5-5h-7c0,0-0.1,0-0.1,0c-0.1,0-0.1,0-0.2,0
		h-2.2V0c0-2.8-2.2-5-5-5h-7c0,0-0.1,0-0.1,0c-0.1,0-0.1,0-0.2,0h-7c0,0-0.1,0-0.2,0c0,0-0.1,0-0.2,0h-7C87-5,87-5,86.9-5h-7
		c0,0-0.1,0-0.2,0c0,0-0.1,0-0.2,0h-7c-0.1,0-0.1,0-0.2,0h-7c-0.1,0-0.1,0-0.1,0c0,0-0.1,0-0.1,0h-7C58-5,58-5,57.9-5
		c0,0-0.1,0-0.1,0h-7c-0.1,0-0.1,0-0.2,0h-7c-2.8,0-5,2.2-5,5v2.2h-2.3c-0.1,0-0.1,0-0.2,0h-7c-2.8,0-5,2.2-5,5v2.3h-2.3
		c-2.8,0-5,2.2-5,5v2.3h-2.3c-2.8,0-5,2.2-5,5v7c0,0,0,0.1,0,0.1c0,0,0,0.1,0,0.1v7c0,0.1,0,0.1,0,0.1c0,0,0,0.1,0,0.1v2.3H7.3
		c-2.8,0-5,2.2-5,5v7c0,0,0,0.1,0,0.1c0,0,0,0.1,0,0.1v7c0,0.1,0,0.1,0,0.2c0,0,0,0.1,0,0.1v7c0,0,0,0.1,0,0.1c0,0,0,0.1,0,0.1v7
		c0,0.1,0,0.1,0,0.2c0,0,0,0.1,0,0.1v7c0,0,0,0.1,0,0.1c0,0,0,0.1,0,0.1v7c0,2.8,2.2,5,5,5h2.2v2.3c0,0.1,0,0.1,0,0.1
		c0,0,0,0.1,0,0.1v7c0,0,0,0.1,0,0.1c0,0,0,0.1,0,0.1v2.3H7.3c-2.8,0-5,2.2-5,5v2.3H0c-2.8,0-5,2.2-5,5v7c0,2.8,2.2,5,5,5h7
		c0.1,0,0.1,0,0.1,0c0,0,0.1,0,0.1,0h2.2v2.2c0,0.1,0,0.1,0,0.2c0,0,0,0.1,0,0.1v7c0,0,0,0.1,0,0.1c0,0,0,0.1,0,0.1v7
		c0,0.1,0,0.1,0,0.2c0,0,0,0.1,0,0.1v7c0,0,0,0.1,0,0.1c0,0,0,0.1,0,0.1v7c0,0,0,0.1,0,0.2c0,0,0,0.1,0,0.1v7c0,0,0,0.1,0,0.2
		c0,0,0,0.1,0,0.1v7c0,0,0,0.1,0,0.1c0,0,0,0.1,0,0.1v7c0,0,0,0.1,0,0.2c0,0,0,0.1,0,0.1v7c0,0,0,0.1,0,0.2c0,0,0,0.1,0,0.1v7
		c0,0,0,0.1,0,0.1c0,0,0,0.1,0,0.1v7c0,0,0,0.1,0,0.2c0,0,0,0.1,0,0.1v2.2H7.3c-2.8,0-5,2.2-5,5v7c0,0,0,0.1,0,0.2c0,0,0,0.1,0,0.1
		v7c0,0,0,0.1,0,0.1c0,0,0,0.1,0,0.1v7c0,0,0,0.1,0,0.2c0,0,0,0.1,0,0.1v7c0,0,0,0.1,0,0.1c0,0.1,0,0.1,0,0.2v7c0,0,0,0.1,0,0.1
		c0,0,0,0.1,0,0.1v7c0,0,0,0.1,0,0.1c0,0.1,0,0.1,0,0.2v7c0,2.8,2.2,5,5,5h2.2v2.3c0,0,0,0.1,0,0.1c0,0,0,0.1,0,0.1v7
		c0,0,0,0.1,0,0.2c0,0,0,0.1,0,0.2v7c0,2.8,2.2,5,5,5h2.3v2.2c0,2.8,2.2,5,5,5h2.3v2.3c0,2.8,2.2,5,5,5h7c0.1,0,0.1,0,0.2,0h2.3v2.2
		c0,2.8,2.2,5,5,5h7c0.1,0,0.1,0,0.2,0h7c0.1,0,0.2,0,0.3,0h7c0.1,0,0.2,0,0.3,0h7c0.1,0,0.1,0,0.2,0h7c0.1,0,0.2,0,0.3,0h7
		c0.1,0,0.1,0,0.2,0h7c0.1,0,0.2,0,0.3,0h7c0.1,0,0.2,0,0.3,0h7c2.8,0,5-2.2,5-5v-2.2h2.2c0.1,0,0.2,0,0.3,0h7c2.8,0,5-2.2,5-5v-2.3
		h2.2c2.8,0,5-2.2,5-5v-2.2h2.3c2.8,0,5-2.2,5-5v-7c0,0,0-0.1,0-0.2c0,0,0-0.1,0-0.2v-7c0,0,0-0.1,0-0.1c0,0,0-0.1,0-0.1v-2.3h2.3
		c2.8,0,5-2.2,5-5v-7c0,0,0-0.1,0-0.2c0,0,0-0.1,0-0.1v-7c0,0,0-0.1,0-0.1c0,0,0-0.1,0-0.1v-7c0,0,0-0.1,0-0.2c0,0,0-0.1,0-0.1v-7
		c0,0,0-0.1,0-0.1c0-0.1,0-0.1,0-0.2v-7c0,0,0-0.1,0-0.1c0,0,0-0.1,0-0.1v-7c0,0,0-0.1,0-0.1c0-0.1,0-0.1,0-0.2v-7c0-2.8-2.2-5-5-5
		h-2.3v-2.2c0,0,0-0.1,0-0.1c0-0.1,0-0.1,0-0.2v-7c0,0,0-0.1,0-0.1c0,0,0-0.1,0-0.1v-7c0,0,0-0.1,0-0.1c0-0.1,0-0.1,0-0.2v-7
		c0,0,0-0.1,0-0.1c0-0.1,0-0.1,0-0.2v-7c0,0,0-0.1,0-0.1c0,0,0-0.1,0-0.1v-7c0,0,0-0.1,0-0.1c0-0.1,0-0.1,0-0.2v-7c0,0,0-0.1,0-0.1
		c0-0.1,0-0.1,0-0.2v-7c0,0,0-0.1,0-0.1c0,0,0-0.1,0-0.1v-7c0-0.1,0-0.1,0-0.1c0-0.1,0-0.1,0-0.2v-7c0,0,0-0.1,0-0.1
		c0,0,0-0.1,0-0.1v-2.3h2.3c0.1,0,0.1,0,0.2,0h7c2.8,0,5-2.2,5-5v-7C157.2,120.6,155,118.4,152.2,118.4z"/>
</g>
<g id="Слой_1">
	<path class="st1" d="M7.3,43.6h7v7h-7V43.6z M7.3,50.8h7v7h-7V50.8z M7.3,58.1h7v7h-7V58.1z M7.3,65.3h7v7h-7V65.3z M7.3,72.6h7v7
		h-7V72.6z M7.3,79.8h7v7h-7V79.8z M14.5,29h7v7h-7V29z M14.5,36.3h7v7h-7V36.3z M14.5,43.6h7v7h-7V43.6z M14.5,50.8h7v7h-7V50.8z
		 M14.5,58.1h7v7h-7V58.1z M14.5,65.3h7v7h-7V65.3z M14.5,72.6h7v7h-7V72.6z M14.5,79.8h7v7h-7V79.8z M14.5,87.1h7v7h-7V87.1z
		 M21.8,14.5h7v7h-7V14.5z M14.5,21.8h7v7h-7V21.8z M21.8,36.3h7v7h-7V36.3z M21.8,43.6h7v7h-7V43.6z M21.8,50.8h7v7h-7V50.8z
		 M21.8,58.1h7v7h-7V58.1z M21.8,65.3h7v7h-7V65.3z M21.8,72.6h7v7h-7V72.6z M21.8,79.8h7v7h-7V79.8z M29.1,7.2h7v7h-7
		C29.1,14.2,29.1,7.2,29.1,7.2z M29.1,36.3h7v7h-7C29.1,43.3,29.1,36.3,29.1,36.3z M29.1,43.6h7v7h-7C29.1,50.6,29.1,43.6,29.1,43.6
		z M29.1,50.8h7v7h-7C29.1,57.8,29.1,50.8,29.1,50.8z M29.1,58.1h7v7h-7C29.1,65.1,29.1,58.1,29.1,58.1z M29.1,65.3h7v7h-7
		C29.1,72.3,29.1,65.3,29.1,65.3z M29.1,72.6h7v7h-7C29.1,79.6,29.1,72.6,29.1,72.6z M29.1,87.1h7v7h-7
		C29.1,94.1,29.1,87.1,29.1,87.1z M36.3,7.2h7v7h-7V7.2z M36.3,29h7v7h-7V29z M36.3,36.3h7v7h-7V36.3z M36.3,43.6h7v7h-7V43.6z
		 M36.3,50.8h7v7h-7V50.8z M36.3,58.1h7v7h-7V58.1z M36.3,65.3h7v7h-7V65.3z M36.3,79.8h7v7h-7V79.8z M36.3,87.1h7v7h-7V87.1z
		 M43.6,0h7v7h-7V0z M43.6,7.2h7v7h-7V7.2z M43.6,14.5h7v7h-7V14.5z M43.6,21.8h7v7h-7V21.8z M43.6,29h7v7h-7V29z M43.6,36.3h7v7h-7
		V36.3z M43.6,43.6h7v7h-7V43.6z M43.6,50.8h7v7h-7V50.8z M43.6,58.1h7v7h-7V58.1z M43.6,72.6h7v7h-7V72.6z M43.6,79.8h7v7h-7V79.8z
		 M43.6,87.1h7v7h-7V87.1z M50.8,0h7v7h-7V0z M50.8,7.2h7v7h-7V7.2z M50.8,14.5h7v7h-7V14.5z M50.8,21.8h7v7h-7V21.8z M50.8,29h7v7
		h-7V29z M50.8,36.3h7v7h-7V36.3z M50.8,43.6h7v7h-7V43.6z M50.8,50.8h7v7h-7V50.8z M50.8,65.3h7v7h-7V65.3z M50.8,72.6h7v7h-7V72.6
		z M50.8,79.8h7v7h-7V79.8z M50.8,87.1h7v7h-7V87.1z M0,116.2h7v7H0V116.2z M7.3,108.9h7v7h-7V108.9z M7.3,116.2h7v7h-7V116.2z
		 M14.5,94.4h7v7h-7V94.4z M14.5,101.6h7v7h-7V101.6z M14.5,108.9h7v7h-7V108.9z M14.5,116.2h7v7h-7V116.2z M14.5,123.4h7v7h-7
		V123.4z M14.5,130.7h7v7h-7V130.7z M14.5,137.9h7v7h-7V137.9z M14.5,145.2h7v7h-7V145.2z M14.5,152.4h7v7h-7V152.4z M14.5,159.7h7
		v7h-7V159.7z M21.8,94.4h7v7h-7V94.4z M21.8,108.9h7v7h-7V108.9z M21.8,123.4h7v7h-7V123.4z M21.8,137.9h7v7h-7V137.9z M21.8,152.4
		h7v7h-7V152.4z M29.1,94.4h7v7h-7C29.1,101.4,29.1,94.4,29.1,94.4z M29.1,101.6h7v7h-7C29.1,108.6,29.1,101.6,29.1,101.6z
		 M29.1,108.9h7v7h-7C29.1,115.9,29.1,108.9,29.1,108.9z M29.1,116.2h7v7h-7C29.1,123.2,29.1,116.2,29.1,116.2z M29.1,123.4h7v7h-7
		C29.1,130.4,29.1,123.4,29.1,123.4z M29.1,130.7h7v7h-7C29.1,137.7,29.1,130.7,29.1,130.7z M29.1,137.9h7v7h-7
		C29.1,144.9,29.1,137.9,29.1,137.9z M29.1,145.2h7v7h-7C29.1,152.2,29.1,145.2,29.1,145.2z M29.1,152.4h7v7h-7
		C29.1,159.4,29.1,152.4,29.1,152.4z M29.1,159.7h7v7h-7C29.1,166.7,29.1,159.7,29.1,159.7z M36.3,94.4h7v7h-7V94.4z M36.3,101.6h7
		v7h-7V101.6z M36.3,108.9h7v7h-7V108.9z M36.3,116.2h7v7h-7V116.2z M36.3,123.4h7v7h-7V123.4z M36.3,130.7h7v7h-7V130.7z
		 M36.3,137.9h7v7h-7V137.9z M36.3,145.2h7v7h-7V145.2z M36.3,152.4h7v7h-7V152.4z M36.3,159.7h7v7h-7V159.7z M43.6,94.4h7v7h-7
		V94.4z M43.6,101.6h7v7h-7V101.6z M43.6,108.9h7v7h-7V108.9z M43.6,116.2h7v7h-7V116.2z M43.6,123.4h7v7h-7V123.4z M43.6,130.7h7v7
		h-7V130.7z M43.6,145.2h7v7h-7V145.2z M43.6,159.7h7v7h-7V159.7z M50.8,94.4h7v7h-7V94.4z M50.8,101.6h7v7h-7V101.6z M50.8,108.9h7
		v7h-7V108.9z M50.8,116.2h7v7h-7V116.2z M50.8,123.4h7v7h-7V123.4z M50.8,137.9h7v7h-7V137.9z M50.8,152.4h7v7h-7V152.4z
		 M7.3,210.5h7v7h-7V210.5z M7.3,217.8h7v7h-7V217.8z M7.3,225h7v7h-7V225z M7.3,232.3h7v7h-7V232.3z M14.5,167h7v7h-7V167z
		 M14.5,174.2h7v7h-7V174.2z M14.5,181.5h7v7h-7V181.5z M14.5,188.8h7v7h-7V188.8z M14.5,196h7v7h-7V196z M14.5,203.3h7v7h-7V203.3z
		 M14.5,210.5h7v7h-7V210.5z M14.5,217.8h7v7h-7V217.8z M14.5,225h7v7h-7V225z M14.5,232.3h7v7h-7V232.3z M21.8,167h7v7h-7V167z
		 M21.8,188.8h7v7h-7V188.8z M21.8,196h7v7h-7V196z M21.8,203.3h7v7h-7V203.3z M21.8,210.5h7v7h-7V210.5z M21.8,225h7v7h-7V225z
		 M29.1,167h7v7h-7C29.1,174,29.1,167,29.1,167z M29.1,174.2h7v7h-7C29.1,181.2,29.1,174.2,29.1,174.2z M29.1,181.5h7v7h-7
		C29.1,188.5,29.1,181.5,29.1,181.5z M29.1,203.3h7v7h-7C29.1,210.3,29.1,203.3,29.1,203.3z M29.1,217.8h7v7h-7
		C29.1,224.8,29.1,217.8,29.1,217.8z M29.1,232.3h7v7h-7C29.1,239.3,29.1,232.3,29.1,232.3z M36.3,167h7v7h-7V167z M36.3,174.2h7v7
		h-7V174.2z M36.3,181.5h7v7h-7V181.5z M36.3,196h7v7h-7V196z M36.3,210.5h7v7h-7V210.5z M36.3,225h7v7h-7V225z M36.3,232.3h7v7h-7
		V232.3z M43.6,174.2h7v7h-7V174.2z M43.6,188.8h7v7h-7V188.8z M43.6,203.3h7v7h-7V203.3z M43.6,210.5h7v7h-7V210.5z M43.6,217.8h7
		v7h-7V217.8z M43.6,225h7v7h-7V225z M43.6,232.3h7v7h-7V232.3z M50.8,167h7v7h-7V167z M50.8,181.5h7v7h-7V181.5z M50.8,196h7v7h-7
		V196z M50.8,203.3h7v7h-7V203.3z M50.8,210.5h7v7h-7V210.5z M50.8,217.8h7v7h-7V217.8z M50.8,225h7v7h-7V225z M50.8,232.3h7v7h-7
		V232.3z M7.3,239.6h7v7h-7V239.6z M7.3,246.8h7v7h-7V246.8z M7.3,254.1h7v7h-7V254.1z M14.5,239.6h7v7h-7V239.6z M14.5,246.8h7v7
		h-7V246.8z M14.5,254.1h7v7h-7V254.1z M14.5,261.4h7v7h-7V261.4z M14.5,268.6h7v7h-7V268.6z M14.5,275.9h7v7h-7V275.9z M21.8,239.6
		h7v7h-7V239.6z M21.8,254.1h7v7h-7V254.1z M21.8,261.4h7v7h-7V261.4z M21.8,268.6h7v7h-7V268.6z M21.8,283.1h7v7h-7V283.1z
		 M29.1,246.8h7v7h-7C29.1,253.8,29.1,246.8,29.1,246.8z M29.1,261.4h7v7h-7C29.1,268.4,29.1,261.4,29.1,261.4z M29.1,268.6h7v7h-7
		C29.1,275.6,29.1,268.6,29.1,268.6z M29.1,290.4h7v7h-7C29.1,297.4,29.1,290.4,29.1,290.4z M36.3,239.6h7v7h-7V239.6z M36.3,246.8
		h7v7h-7V246.8z M36.3,254.1h7v7h-7V254.1z M36.3,268.6h7v7h-7V268.6z M36.3,275.9h7v7h-7V275.9z M36.3,283.1h7v7h-7V283.1z
		 M36.3,290.4h7v7h-7V290.4z M43.6,239.6h7v7h-7V239.6z M43.6,246.8h7v7h-7V246.8z M43.6,254.1h7v7h-7V254.1z M43.6,261.4h7v7h-7
		V261.4z M43.6,275.9h7v7h-7V275.9z M43.6,283.1h7v7h-7V283.1z M43.6,290.4h7v7h-7V290.4z M50.8,239.6h7v7h-7V239.6z M50.8,246.8h7
		v7h-7V246.8z M50.8,254.1h7v7h-7V254.1z M50.8,261.4h7v7h-7V261.4z M50.8,268.6h7v7h-7V268.6z M50.8,283.1h7v7h-7V283.1z
		 M50.8,290.4h7v7h-7V290.4z M58.1,0h7v7h-7V0z M58.1,7.2h7v7h-7V7.2z M58.1,14.5h7v7h-7V14.5z M58.1,21.8h7v7h-7V21.8z M58.1,29h7
		v7h-7V29z M58.1,36.3h7v7h-7V36.3z M58.1,43.6h7v7h-7V43.6z M58.1,58.1h7v7h-7V58.1z M58.1,65.3h7v7h-7V65.3z M58.1,72.6h7v7h-7
		V72.6z M58.1,79.8h7v7h-7V79.8z M58.1,87.1h7v7h-7V87.1z M65.4,0h7v7h-7V0z M65.4,7.2h7v7h-7V7.2z M65.4,21.8h7v7h-7V21.8z
		 M65.4,36.3h7v7h-7V36.3z M65.4,50.8h7v7h-7V50.8z M65.4,65.3h7v7h-7V65.3z M65.4,72.6h7v7h-7V72.6z M65.4,79.8h7v7h-7V79.8z
		 M65.4,87.1h7v7h-7V87.1z M72.6,0h7v7h-7V0z M72.6,14.5h7v7h-7V14.5z M72.6,29h7v7h-7V29z M72.6,43.6h7v7h-7V43.6z M72.6,58.1h7v7
		h-7V58.1z M72.6,65.3h7v7h-7V65.3z M72.6,72.6h7v7h-7V72.6z M72.6,79.8h7v7h-7V79.8z M72.6,87.1h7v7h-7V87.1z M79.9,0h7v7h-7V0z
		 M79.9,7.2h7v7h-7V7.2z M79.9,21.8h7v7h-7V21.8z M79.9,36.3h7v7h-7V36.3z M79.9,50.8h7v7h-7V50.8z M79.9,65.3h7v7h-7V65.3z
		 M79.9,72.6h7v7h-7V72.6z M79.9,79.8h7v7h-7V79.8z M79.9,87.1h7v7h-7V87.1z M87.1,0h7v7h-7V0z M87.1,7.2h7v7h-7V7.2z M87.1,14.5h7
		v7h-7V14.5z M87.1,21.8h7v7h-7V21.8z M87.1,29h7v7h-7V29z M87.1,36.3h7v7h-7V36.3z M87.1,43.6h7v7h-7V43.6z M87.1,58.1h7v7h-7V58.1
		z M87.1,65.3h7v7h-7V65.3z M87.1,72.6h7v7h-7V72.6z M87.1,79.8h7v7h-7V79.8z M87.1,87.1h7v7h-7V87.1z M94.4,0h7v7h-7V0z M94.4,7.2
		h7v7h-7V7.2z M94.4,14.5h7v7h-7V14.5z M94.4,21.8h7v7h-7V21.8z M94.4,29h7v7h-7V29z M94.4,36.3h7v7h-7V36.3z M94.4,43.6h7v7h-7
		V43.6z M94.4,50.8h7v7h-7V50.8z M94.4,65.3h7v7h-7V65.3z M94.4,72.6h7v7h-7V72.6z M94.4,79.8h7v7h-7V79.8z M94.4,87.1h7v7h-7V87.1z
		 M101.7,0h7v7h-7V0z M101.7,7.2h7v7h-7V7.2z M101.7,14.5h7v7h-7V14.5z M101.7,21.8h7v7h-7V21.8z M101.7,29h7v7h-7V29z M101.7,36.3
		h7v7h-7V36.3z M101.7,43.6h7v7h-7V43.6z M101.7,50.8h7v7h-7V50.8z M101.7,58.1h7v7h-7V58.1z M101.7,72.6h7v7h-7V72.6z M101.7,79.8
		h7v7h-7V79.8z M101.7,87.1h7v7h-7V87.1z M108.9,7.2h7v7h-7V7.2z M108.9,29h7v7h-7V29z M108.9,36.3h7v7h-7V36.3z M108.9,43.6h7v7h-7
		V43.6z M108.9,50.8h7v7h-7V50.8z M108.9,58.1h7v7h-7V58.1z M108.9,65.3h7v7h-7V65.3z M108.9,79.8h7v7h-7V79.8z M108.9,87.1h7v7h-7
		V87.1z M116.2,7.2h7v7h-7V7.2z M116.2,36.3h7v7h-7V36.3z M116.2,43.6h7v7h-7V43.6z M116.2,50.8h7v7h-7V50.8z M116.2,58.1h7v7h-7
		V58.1z M116.2,65.3h7v7h-7V65.3z M116.2,72.6h7v7h-7V72.6z M116.2,87.1h7v7h-7V87.1z M123.4,14.5h7v7h-7
		C123.4,21.5,123.4,14.5,123.4,14.5z M130.7,21.7h7v7h-7V21.7z M123.4,36.3h7v7h-7C123.4,43.3,123.4,36.3,123.4,36.3z M123.4,43.6h7
		v7h-7C123.4,50.6,123.4,43.6,123.4,43.6z M123.4,50.8h7v7h-7C123.4,57.8,123.4,50.8,123.4,50.8z M123.4,58.1h7v7h-7
		C123.4,65.1,123.4,58.1,123.4,58.1z M123.4,65.3h7v7h-7C123.4,72.3,123.4,65.3,123.4,65.3z M123.4,72.6h7v7h-7
		C123.4,79.6,123.4,72.6,123.4,72.6z M123.4,79.8h7v7h-7C123.4,86.8,123.4,79.8,123.4,79.8z M58.1,94.4h7v7h-7V94.4z M58.1,101.6h7
		v7h-7V101.6z M58.1,108.9h7v7h-7V108.9z M58.1,116.2h7v7h-7V116.2z M58.1,130.7h7v7h-7V130.7z M58.1,145.2h7v7h-7V145.2z
		 M58.1,159.7h7v7h-7V159.7z M65.4,94.4h7v7h-7V94.4z M65.4,101.6h7v7h-7V101.6z M65.4,108.9h7v7h-7V108.9z M65.4,116.2h7v7h-7
		V116.2z M65.4,123.4h7v7h-7V123.4z M65.4,137.9h7v7h-7V137.9z M65.4,152.4h7v7h-7V152.4z M72.6,94.4h7v7h-7V94.4z M72.6,101.6h7v7
		h-7V101.6z M72.6,108.9h7v7h-7V108.9z M72.6,116.2h7v7h-7V116.2z M72.6,130.7h7v7h-7V130.7z M72.6,145.2h7v7h-7V145.2z M72.6,159.7
		h7v7h-7V159.7z M79.9,94.4h7v7h-7V94.4z M79.9,101.6h7v7h-7V101.6z M79.9,108.9h7v7h-7V108.9z M79.9,116.2h7v7h-7V116.2z
		 M79.9,123.4h7v7h-7V123.4z M79.9,137.9h7v7h-7V137.9z M79.9,152.4h7v7h-7V152.4z M87.1,94.4h7v7h-7V94.4z M87.1,101.6h7v7h-7
		V101.6z M87.1,108.9h7v7h-7V108.9z M87.1,116.2h7v7h-7V116.2z M87.1,130.7h7v7h-7V130.7z M87.1,145.2h7v7h-7V145.2z M87.1,159.7h7
		v7h-7V159.7z M94.4,94.4h7v7h-7V94.4z M94.4,101.6h7v7h-7V101.6z M94.4,108.9h7v7h-7V108.9z M94.4,116.2h7v7h-7V116.2z M94.4,123.4
		h7v7h-7V123.4z M94.4,137.9h7v7h-7V137.9z M94.4,152.4h7v7h-7V152.4z M101.7,94.4h7v7h-7V94.4z M101.7,101.6h7v7h-7V101.6z
		 M101.7,108.9h7v7h-7V108.9z M101.7,116.2h7v7h-7V116.2z M101.7,123.4h7v7h-7V123.4z M101.7,130.7h7v7h-7V130.7z M101.7,145.2h7v7
		h-7V145.2z M101.7,159.7h7v7h-7V159.7z M108.9,94.4h7v7h-7V94.4z M108.9,101.6h7v7h-7V101.6z M108.9,108.9h7v7h-7V108.9z
		 M108.9,116.2h7v7h-7V116.2z M108.9,123.4h7v7h-7V123.4z M108.9,130.7h7v7h-7V130.7z M108.9,137.9h7v7h-7V137.9z M108.9,145.2h7v7
		h-7V145.2z M108.9,152.4h7v7h-7V152.4z M108.9,159.7h7v7h-7V159.7z M116.2,94.4h7v7h-7V94.4z M116.2,101.6h7v7h-7V101.6z
		 M116.2,108.9h7v7h-7V108.9z M116.2,116.2h7v7h-7V116.2z M116.2,123.4h7v7h-7V123.4z M116.2,130.7h7v7h-7V130.7z M116.2,137.9h7v7
		h-7V137.9z M116.2,145.2h7v7h-7V145.2z M116.2,152.4h7v7h-7V152.4z M116.2,159.7h7v7h-7V159.7z M123.4,94.4h7v7h-7
		C123.4,101.4,123.4,94.4,123.4,94.4z M123.4,108.9h7v7h-7C123.4,115.9,123.4,108.9,123.4,108.9z M123.4,123.4h7v7h-7
		C123.4,130.4,123.4,123.4,123.4,123.4z M123.4,137.9h7v7h-7C123.4,144.9,123.4,137.9,123.4,137.9z M123.4,152.4h7v7h-7
		C123.4,159.4,123.4,152.4,123.4,152.4z M58.1,174.2h7v7h-7V174.2z M58.1,188.8h7v7h-7V188.8z M58.1,196h7v7h-7V196z M58.1,203.3h7
		v7h-7V203.3z M58.1,210.5h7v7h-7V210.5z M58.1,217.8h7v7h-7V217.8z M58.1,225h7v7h-7V225z M58.1,232.3h7v7h-7V232.3z M65.4,167h7v7
		h-7V167z M65.4,181.5h7v7h-7V181.5z M65.4,196h7v7h-7V196z M65.4,203.3h7v7h-7V203.3z M65.4,210.5h7v7h-7V210.5z M65.4,217.8h7v7
		h-7V217.8z M65.4,225h7v7h-7V225z M65.4,232.3h7v7h-7V232.3z M72.6,174.2h7v7h-7V174.2z M72.6,188.8h7v7h-7V188.8z M72.6,196h7v7
		h-7V196z M72.6,203.3h7v7h-7V203.3z M72.6,210.5h7v7h-7V210.5z M72.6,217.8h7v7h-7V217.8z M72.6,225h7v7h-7V225z M72.6,232.3h7v7
		h-7V232.3z M79.9,167h7v7h-7V167z M79.9,181.5h7v7h-7V181.5z M79.9,196h7v7h-7V196z M79.9,203.3h7v7h-7V203.3z M79.9,210.5h7v7h-7
		V210.5z M79.9,217.8h7v7h-7V217.8z M79.9,225h7v7h-7V225z M79.9,232.3h7v7h-7V232.3z M87.1,174.2h7v7h-7V174.2z M87.1,188.8h7v7h-7
		V188.8z M87.1,196h7v7h-7V196z M87.1,203.3h7v7h-7V203.3z M87.1,210.5h7v7h-7V210.5z M87.1,217.8h7v7h-7V217.8z M87.1,225h7v7h-7
		V225z M87.1,232.3h7v7h-7V232.3z M94.4,167h7v7h-7V167z M94.4,181.5h7v7h-7V181.5z M94.4,196h7v7h-7V196z M94.4,203.3h7v7h-7V203.3
		z M94.4,210.5h7v7h-7V210.5z M94.4,217.8h7v7h-7V217.8z M94.4,225h7v7h-7V225z M94.4,232.3h7v7h-7V232.3z M101.7,174.2h7v7h-7
		V174.2z M101.7,188.8h7v7h-7V188.8z M101.7,203.3h7v7h-7V203.3z M101.7,210.5h7v7h-7V210.5z M101.7,217.8h7v7h-7V217.8z M101.7,225
		h7v7h-7V225z M101.7,232.3h7v7h-7V232.3z M108.9,167h7v7h-7V167z M108.9,174.2h7v7h-7V174.2z M108.9,181.5h7v7h-7V181.5z
		 M108.9,196h7v7h-7V196z M108.9,210.5h7v7h-7V210.5z M108.9,225h7v7h-7V225z M108.9,232.3h7v7h-7V232.3z M116.2,167h7v7h-7V167z
		 M116.2,174.2h7v7h-7V174.2z M116.2,181.5h7v7h-7V181.5z M116.2,203.3h7v7h-7V203.3z M116.2,217.8h7v7h-7V217.8z M116.2,232.3h7v7
		h-7V232.3z M123.4,167h7v7h-7C123.4,174,123.4,167,123.4,167z M123.4,188.8h7v7h-7C123.4,195.8,123.4,188.8,123.4,188.8z
		 M123.4,196h7v7h-7C123.4,203,123.4,196,123.4,196z M123.4,203.3h7v7h-7C123.4,210.3,123.4,203.3,123.4,203.3z M123.4,210.5h7v7h-7
		C123.4,217.5,123.4,210.5,123.4,210.5z M123.4,225h7v7h-7C123.4,232,123.4,225,123.4,225z M58.1,239.6h7v7h-7V239.6z M58.1,246.8h7
		v7h-7V246.8z M58.1,261.4h7v7h-7V261.4z M58.1,275.9h7v7h-7V275.9z M58.1,283.1h7v7h-7V283.1z M58.1,290.4h7v7h-7V290.4z
		 M65.4,239.6h7v7h-7V239.6z M65.4,246.8h7v7h-7V246.8z M65.4,254.1h7v7h-7V254.1z M65.4,268.6h7v7h-7V268.6z M65.4,283.1h7v7h-7
		V283.1z M65.4,290.4h7v7h-7V290.4z M72.6,239.6h7v7h-7V239.6z M72.6,246.8h7v7h-7V246.8z M72.6,261.4h7v7h-7V261.4z M72.6,275.9h7
		v7h-7V275.9z M72.6,283.1h7v7h-7V283.1z M72.6,290.4h7v7h-7V290.4z M79.9,239.6h7v7h-7V239.6z M79.9,246.8h7v7h-7V246.8z
		 M79.9,254.1h7v7h-7V254.1z M79.9,268.6h7v7h-7V268.6z M79.9,283.1h7v7h-7V283.1z M79.9,290.4h7v7h-7V290.4z M87.1,239.6h7v7h-7
		V239.6z M87.1,246.8h7v7h-7V246.8z M87.1,261.4h7v7h-7V261.4z M87.1,275.9h7v7h-7V275.9z M87.1,283.1h7v7h-7V283.1z M87.1,290.4h7
		v7h-7V290.4z M94.4,239.6h7v7h-7V239.6z M94.4,246.8h7v7h-7V246.8z M94.4,254.1h7v7h-7V254.1z M94.4,261.4h7v7h-7V261.4z
		 M94.4,268.6h7v7h-7V268.6z M94.4,283.1h7v7h-7V283.1z M94.4,290.4h7v7h-7V290.4z M101.7,239.6h7v7h-7V239.6z M101.7,246.8h7v7h-7
		V246.8z M101.7,254.1h7v7h-7V254.1z M101.7,261.4h7v7h-7V261.4z M101.7,275.9h7v7h-7V275.9z M101.7,283.1h7v7h-7V283.1z
		 M101.7,290.4h7v7h-7V290.4z M108.9,239.6h7v7h-7V239.6z M108.9,246.8h7v7h-7V246.8z M108.9,254.1h7v7h-7V254.1z M108.9,268.6h7v7
		h-7V268.6z M108.9,275.9h7v7h-7V275.9z M108.9,283.1h7v7h-7V283.1z M108.9,290.4h7v7h-7V290.4z M116.2,246.8h7v7h-7V246.8z
		 M116.2,261.4h7v7h-7V261.4z M116.2,268.6h7v7h-7V268.6z M116.2,290.4h7v7h-7V290.4z M123.4,239.6h7v7h-7
		C123.4,246.6,123.4,239.6,123.4,239.6z M123.4,254.1h7v7h-7C123.4,261.1,123.4,254.1,123.4,254.1z M123.4,261.4h7v7h-7
		C123.4,268.4,123.4,261.4,123.4,261.4z M123.4,268.6h7v7h-7C123.4,275.6,123.4,268.6,123.4,268.6z M123.4,283.1h7v7h-7
		C123.4,290.1,123.4,283.1,123.4,283.1z M130.7,29h7v7h-7V29z M130.7,36.3h7v7h-7V36.3z M130.7,43.6h7v7h-7V43.6z M130.7,50.8h7v7
		h-7V50.8z M130.7,58.1h7v7h-7V58.1z M130.7,65.3h7v7h-7V65.3z M130.7,72.6h7v7h-7V72.6z M130.7,79.8h7v7h-7V79.8z M130.7,87.1h7v7
		h-7V87.1z M138,43.6h7v7h-7V43.6z M138,50.8h7v7h-7V50.8z M138,58.1h7v7h-7V58.1z M138,65.3h7v7h-7V65.3z M138,72.6h7v7h-7V72.6z
		 M138,79.8h7v7h-7V79.8z M130.7,94.4h7v7h-7V94.4z M130.7,101.6h7v7h-7V101.6z M130.7,108.9h7v7h-7V108.9z M130.7,116.2h7v7h-7
		V116.2z M130.7,123.4h7v7h-7V123.4z M130.7,130.7h7v7h-7V130.7z M130.7,137.9h7v7h-7V137.9z M130.7,145.2h7v7h-7V145.2z
		 M130.7,152.4h7v7h-7V152.4z M130.7,159.7h7v7h-7V159.7z M138,116.2h7v7h-7V116.2z M138,123.4h7v7h-7V123.4z M145.2,123.4h7v7h-7
		V123.4z M130.7,167h7v7h-7V167z M130.7,174.2h7v7h-7V174.2z M130.7,181.5h7v7h-7V181.5z M130.7,188.8h7v7h-7V188.8z M130.7,196h7v7
		h-7V196z M130.7,203.3h7v7h-7V203.3z M130.7,210.5h7v7h-7V210.5z M130.7,217.8h7v7h-7V217.8z M130.7,225h7v7h-7V225z M130.7,232.3
		h7v7h-7V232.3z M138,210.5h7v7h-7V210.5z M138,217.8h7v7h-7V217.8z M138,225h7v7h-7V225z M138,232.3h7v7h-7V232.3z M130.7,239.6h7
		v7h-7V239.6z M130.7,246.8h7v7h-7V246.8z M130.7,254.1h7v7h-7V254.1z M130.7,261.4h7v7h-7V261.4z M130.7,268.6h7v7h-7V268.6z
		 M130.7,275.9h7v7h-7V275.9z M138,239.6h7v7h-7V239.6z M138,246.8h7v7h-7V246.8z M138,254.1h7v7h-7V254.1z M43.6,297.6h7v7h-7
		V297.6z M50.8,297.6h7v7h-7V297.6z M58.1,297.6h7v7h-7V297.6z M65.4,297.6h7v7h-7V297.6z M72.6,297.6h7v7h-7V297.6z M79.9,297.6h7
		v7h-7V297.6z M87.1,297.6h7v7h-7V297.6z M94.4,297.6h7v7h-7V297.6z M101.7,297.6h7v7h-7V297.6z"/>
</g>
</svg>
