<?xml version="1.0" encoding="utf-8"?>
<!-- Generator: Adobe Illustrator 27.3.1, SVG Export Plug-In . SVG Version: 6.00 Build 0)  -->
<svg version="1.1" xmlns="http://www.w3.org/2000/svg" xmlns:xlink="http://www.w3.org/1999/xlink" x="0px" y="0px"
	 viewBox="0 0 69.1 112.6" style="enable-background:new 0 0 69.1 112.6;" xml:space="preserve">
<style type="text/css">
	.st0{fill:#FCE19B;}
	.st1{fill:#1E0E01;}
</style>
<g id="Слой_2">
	<path class="st0" d="M69.1,16.5c0-1.1-0.9-2-2-2h-5.3V9.3c0-1.1-0.9-2-2-2h-5.2V2c0-1.1-0.9-2-2-2h-7c-0.1,0-0.1,0-0.2,0
		c0,0-0.1,0-0.1,0h-7c0,0-0.1,0-0.1,0c0,0-0.1,0-0.1,0h-7C31,0,31,0,31,0c0,0-0.1,0-0.1,0h-7c-0.1,0-0.1,0-0.1,0c0,0-0.1,0-0.2,0h-7
		c-1.1,0-2,0.9-2,2v5.3H9.3c-1.1,0-2,0.9-2,2v5.2H2c-1.1,0-2,0.9-2,2v7c0,0.1,0,0.1,0,0.2c0,0,0,0.1,0,0.1v7c0,0,0,0.1,0,0.1
		c0,0,0,0.1,0,0.1v7c0,1.1,0.9,2,2,2h5.3v5.3c0,0.1,0,0.1,0,0.1c0,0,0,0.1,0,0.1v7c0,0,0,0.1,0,0.1c0,0,0,0.1,0,0.1v7
		c0,0.1,0,0.1,0,0.1c0,0,0,0.1,0,0.2v7c0,0.1,0,0.1,0,0.2c0,0,0,0.1,0,0.1v5.2H2c-1.1,0-2,0.9-2,2v7c0,0.1,0,0.1,0,0.2
		c0,0,0,0.1,0,0.1v7c0,0,0,0.1,0,0.1c0,0,0,0.1,0,0.1v7c0,1.1,0.9,2,2,2h5.3v3.5H2c-1.1,0-2,0.9-2,2v7c0,1.1,0.9,2,2,2h7
		c0.1,0,0.1,0,0.2,0c0,0,0.1,0,0.1,0h7c0,0,0.1,0,0.1,0c0,0,0.1,0,0.1,0h7c0.1,0,0.1,0,0.2,0c0,0,0.1,0,0.1,0h7c0.1,0,0.1,0,0.1,0
		c0,0,0.1,0,0.1,0h7c0,0,0.1,0,0.1,0c0,0,0.1,0,0.1,0h7c0.1,0,0.1,0,0.1,0c0,0,0.1,0,0.2,0h7c0,0,0.1,0,0.1,0c0,0,0.1,0,0.1,0h7
		c0.1,0,0.1,0,0.1,0c0,0,0.1,0,0.2,0h7c1.1,0,2-0.9,2-2v-7c0-1.1-0.9-2-2-2h-5.3v-3.5h5.3c1.1,0,2-0.9,2-2v-7c0,0,0-0.1,0-0.1
		c0,0,0-0.1,0-0.1v-7c0-0.1,0-0.1,0-0.1c0,0,0-0.1,0-0.2v-7c0-1.1-0.9-2-2-2h-5.3v-5.2c0-0.1,0-0.1,0-0.1c0,0,0-0.1,0-0.2v-7
		c0-0.1,0-0.1,0-0.2c0,0,0-0.1,0-0.1v-7c0,0,0-0.1,0-0.1c0,0,0-0.1,0-0.1v-7c0-0.1,0-0.1,0-0.1c0,0,0-0.1,0-0.1V40h5.3
		c1.1,0,2-0.9,2-2v-7c0,0,0-0.1,0-0.1c0,0,0-0.1,0-0.1v-7c0-0.1,0-0.1,0-0.1c0,0,0-0.1,0-0.2V16.5z"/>
</g>
<g id="Слой_1">
	<path class="st1" d="M2,16.5h7v7H2V16.5z M2,23.8h7v7H2V23.8z M2,31h7v7H2V31z M9.3,9.3h7v7h-7V9.3z M9.3,16.5h7v7h-7V16.5z
		 M9.3,23.8h7v7h-7V23.8z M9.3,31h7v7h-7V31z M9.3,38.3h7v7h-7V38.3z M16.5,2h7v7h-7V2z M16.5,16.5h7v7h-7V16.5z M16.5,23.8h7v7h-7
		V23.8z M16.5,31h7v7h-7V31z M23.8,2h7v7h-7V2z M23.8,9.3h7v7h-7V9.3z M23.8,16.5h7v7h-7V16.5z M23.8,23.8h7v7h-7V23.8z M23.8,38.3
		h7v7h-7V38.3z M31.1,2h7v7h-7V2z M31.1,9.3h7v7h-7V9.3z M31.1,16.5h7v7h-7V16.5z M31.1,23.8h7v7h-7V23.8z M31.1,38.3h7v7h-7V38.3z
		 M38.3,2h7v7h-7V2z M38.3,9.3h7v7h-7V9.3z M38.3,16.5h7v7h-7V16.5z M38.3,23.8h7v7h-7V23.8z M38.3,38.3h7v7h-7V38.3z M45.6,2h7v7
		h-7V2z M45.6,16.5h7v7h-7V16.5z M45.6,23.8h7v7h-7V23.8z M45.6,31h7v7h-7V31z M52.8,9.3h7v7h-7V9.3z M52.8,16.5h7v7h-7V16.5z
		 M52.8,23.8h7v7h-7V23.8z M52.8,31h7v7h-7V31z M52.8,38.3h7v7h-7V38.3z M2,74.6h7v7H2V74.6z M2,81.9h7v7H2V81.9z M2,89.1h7v7H2
		V89.1z M9.3,45.6h7v7h-7V45.6z M9.3,52.8h7v7h-7V52.8z M9.3,60.1h7v7h-7V60.1z M9.3,67.4h7v7h-7V67.4z M9.3,74.6h7v7h-7V74.6z
		 M9.3,81.9h7v7h-7V81.9z M9.3,89.1h7v7h-7V89.1z M9.3,96.4h7v7h-7V96.4z M16.5,45.6h7v7h-7V45.6z M16.5,52.8h7v7h-7V52.8z
		 M16.5,60.1h7v7h-7V60.1z M16.5,74.6h7v7h-7V74.6z M16.5,81.9h7v7h-7V81.9z M16.5,89.1h7v7h-7V89.1z M23.8,45.6h7v7h-7V45.6z
		 M23.8,52.8h7v7h-7V52.8z M23.8,60.1h7v7h-7V60.1z M23.8,67.4h7v7h-7V67.4z M23.8,81.9h7v7h-7V81.9z M23.8,89.1h7v7h-7V89.1z
		 M23.8,96.4h7v7h-7V96.4z M31.1,45.6h7v7h-7V45.6z M31.1,52.8h7v7h-7V52.8z M31.1,60.1h7v7h-7V60.1z M31.1,67.4h7v7h-7V67.4z
		 M31.1,81.9h7v7h-7V81.9z M31.1,89.1h7v7h-7V89.1z M38.3,45.6h7v7h-7V45.6z M38.3,52.8h7v7h-7V52.8z M38.3,60.1h7v7h-7V60.1z
		 M38.3,67.4h7v7h-7V67.4z M38.3,81.9h7v7h-7V81.9z M38.3,89.1h7v7h-7V89.1z M38.3,96.4h7v7h-7V96.4z M45.6,45.6h7v7h-7V45.6z
		 M45.6,52.8h7v7h-7V52.8z M45.6,60.1h7v7h-7V60.1z M45.6,74.6h7v7h-7V74.6z M45.6,81.9h7v7h-7V81.9z M45.6,89.1h7v7h-7V89.1z
		 M52.8,45.6h7v7h-7V45.6z M52.8,52.8h7v7h-7V52.8z M52.8,60.1h7v7h-7V60.1z M52.8,67.4h7v7h-7V67.4z M52.8,74.6h7v7h-7V74.6z
		 M52.8,81.9h7v7h-7V81.9z M52.8,89.1h7v7h-7V89.1z M52.8,96.4h7v7h-7V96.4z M60.1,16.5h7v7h-7V16.5z M60.1,23.8h7v7h-7V23.8z
		 M60.1,31h7v7h-7V31z M60.1,74.6h7v7h-7V74.6z M60.1,81.9h7v7h-7V81.9z M60.1,89.1h7v7h-7V89.1z M16.5,103.6h7v7h-7V103.6z
		 M23.8,103.6h7v7h-7V103.6z M2,103.6h7v7H2V103.6z M9.3,103.6h7v7h-7V103.6z M31.1,103.6h7v7h-7V103.6z M38.3,103.6h7v7h-7V103.6z
		 M45.6,103.6h7v7h-7V103.6z M52.8,103.6h7v7h-7V103.6z M60.1,103.6h7v7h-7V103.6z"/>
</g>
</svg>
