<?xml version="1.0" encoding="utf-8"?>
<!-- Generator: Adobe Illustrator 27.3.1, SVG Export Plug-In . SVG Version: 6.00 Build 0)  -->
<svg version="1.1" xmlns="http://www.w3.org/2000/svg" xmlns:xlink="http://www.w3.org/1999/xlink" x="0px" y="0px"
	 viewBox="0 0 91.8 142.6" style="enable-background:new 0 0 91.8 142.6;" xml:space="preserve">
<style type="text/css">
	.st0{fill:#FCE19B;}
	.st1{fill:#1E0E01;}
</style>
<g id="Слой_2">
	<path class="st0" d="M91.8,31.5c0-1.4-1.1-2.5-2.5-2.5h-4.7v-4.7c0-0.1,0-0.1,0-0.2c0,0,0-0.1,0-0.1v-7c0-1.4-1.1-2.5-2.5-2.5h-4.8
		V9.7c0-1.4-1.1-2.5-2.5-2.5h-4.7V2.5C70.1,1.1,69,0,67.6,0h-7c-0.1,0-0.1,0-0.1,0c0,0-0.1,0-0.2,0h-7c-0.1,0-0.1,0-0.1,0
		c0,0-0.1,0-0.2,0h-7c0,0-0.1,0-0.1,0c0,0-0.1,0-0.1,0h-7c-0.1,0-0.1,0-0.2,0c0,0-0.1,0-0.1,0h-7c0,0-0.1,0-0.1,0c0,0-0.1,0-0.1,0
		h-7c-1.4,0-2.5,1.1-2.5,2.5v4.7H17c-1.4,0-2.5,1.1-2.5,2.5v4.8H9.7c-1.4,0-2.5,1.1-2.5,2.5v7c0,0.1,0,0.1,0,0.1c0,0,0,0.1,0,0.2V29
		H2.5C1.1,29,0,30.1,0,31.5v7c0,0.1,0,0.1,0,0.1c0,0,0,0.1,0,0.2v7c0,0,0,0.1,0,0.1c0,0,0,0.1,0,0.1v7c0,0.1,0,0.1,0,0.1
		c0,0,0,0.1,0,0.2v7c0,1.4,1.1,2.5,2.5,2.5h4.7v4.7c0,0.1,0,0.1,0,0.1c0,0,0,0.1,0,0.1v7c0,0.1,0,0.1,0,0.1c0,0,0,0.1,0,0.2v7
		c0,0,0,0.1,0,0.1c0,0,0,0.1,0,0.1v7c0,0.1,0,0.1,0,0.1c0,0,0,0.1,0,0.2v4.8H2.5c-1.4,0-2.5,1.1-2.5,2.5v7c0,0,0,0.1,0,0.1
		c0,0,0,0.1,0,0.1v7c0,0.1,0,0.1,0,0.1c0,0,0,0.1,0,0.2v7c0,0,0,0.1,0,0.1c0,0,0,0.1,0,0.1v7c0,1.4,1.1,2.5,2.5,2.5h4.7v2.5H2.5
		c-1.4,0-2.5,1.1-2.5,2.5v7c0,1.4,1.1,2.5,2.5,2.5h7c0.1,0,0.1,0,0.2,0h7c0.1,0,0.1,0,0.1,0c0,0,0.1,0,0.1,0h7c0.1,0,0.1,0,0.1,0
		c0,0,0.1,0,0.2,0h7c0.1,0,0.1,0,0.2,0h7c0.1,0,0.1,0,0.1,0c0,0,0.1,0,0.2,0h7c0.1,0,0.1,0,0.2,0h7c0.1,0,0.1,0,0.2,0
		c0,0,0.1,0,0.1,0h7c0.1,0,0.1,0,0.2,0c0,0,0.1,0,0.1,0h7c0.1,0,0.1,0,0.2,0h7c0.1,0,0.1,0,0.2,0c0,0,0.1,0,0.1,0h7
		c0.1,0,0.1,0,0.2,0h7c1.4,0,2.5-1.1,2.5-2.5v-7c0-1.4-1.1-2.5-2.5-2.5h-4.7v-2.5h4.7c1.4,0,2.5-1.1,2.5-2.5v-7c0,0,0-0.1,0-0.1
		c0,0,0-0.1,0-0.1v-7c0-0.1,0-0.1,0-0.2c0,0,0-0.1,0-0.1v-7c0,0,0-0.1,0-0.1c0,0,0-0.1,0-0.1v-7c0-1.4-1.1-2.5-2.5-2.5h-4.7v-4.8
		c0-0.1,0-0.1,0-0.2c0,0,0-0.1,0-0.1v-7c0,0,0-0.1,0-0.1c0,0,0-0.1,0-0.1v-7c0-0.1,0-0.1,0-0.2c0,0,0-0.1,0-0.1v-7
		c0-0.1,0-0.1,0-0.1c0,0,0-0.1,0-0.1v-4.7h4.7c1.4,0,2.5-1.1,2.5-2.5v-7c0-0.1,0-0.1,0-0.2c0,0,0-0.1,0-0.1v-7c0,0,0-0.1,0-0.1
		c0,0,0-0.1,0-0.1v-7c0-0.1,0-0.1,0-0.2c0,0,0-0.1,0-0.1V31.5z"/>
</g>
<g id="Слой_1">
	<path class="st1" d="M2.5,31.5h7v7h-7V31.5z M2.5,38.8h7v7h-7V38.8z M2.5,46h7v7h-7V46z M2.5,53.3h7v7h-7V53.3z M9.7,17h7v7h-7V17z
		 M9.7,24.3h7v7h-7V24.3z M9.7,31.5h7v7h-7V31.5z M9.7,38.8h7v7h-7V38.8z M9.7,46h7v7h-7V46z M9.7,53.3h7v7h-7V53.3z M9.7,60.5h7v7
		h-7V60.5z M9.7,67.8h7v7h-7V67.8z M17,9.7h7v7h-7V9.7z M17,24.3h7v7h-7V24.3z M17,31.5h7v7h-7V31.5z M17,38.8h7v7h-7V38.8z M17,46
		h7v7h-7V46z M17,67.8h7v7h-7V67.8z M24.3,2.5h7v7h-7V2.5z M24.3,17h7v7h-7V17z M24.3,24.3h7v7h-7V24.3z M24.3,31.5h7v7h-7V31.5z
		 M24.3,38.8h7v7h-7V38.8z M24.3,60.5h7v7h-7V60.5z M24.3,67.8h7v7h-7V67.8z M31.5,2.5h7v7h-7V2.5z M31.5,9.7h7v7h-7V9.7z M31.5,17
		h7v7h-7V17z M31.5,24.3h7v7h-7V24.3z M31.5,31.5h7v7h-7V31.5z M31.5,38.8h7v7h-7V38.8z M31.5,60.5h7v7h-7V60.5z M31.5,67.8h7v7h-7
		V67.8z M38.8,2.5h7v7h-7V2.5z M38.8,9.7h7v7h-7V9.7z M38.8,17h7v7h-7V17z M38.8,24.3h7v7h-7V24.3z M38.8,31.5h7v7h-7V31.5z
		 M38.8,38.8h7v7h-7V38.8z M38.8,60.5h7v7h-7V60.5z M38.8,67.8h7v7h-7V67.8z M46,2.5h7v7h-7V2.5z M46,9.7h7v7h-7V9.7z M46,17h7v7h-7
		V17z M46,24.3h7v7h-7V24.3z M46,31.5h7v7h-7V31.5z M46,38.8h7v7h-7V38.8z M46,60.5h7v7h-7V60.5z M46,67.8h7v7h-7V67.8z M2.5,96.9h7
		v7h-7V96.9z M2.5,104.1h7v7h-7V104.1z M2.5,111.4h7v7h-7V111.4z M2.5,118.6h7v7h-7V118.6z M9.7,75.1h7v7h-7V75.1z M9.7,82.3h7v7h-7
		V82.3z M9.7,89.6h7v7h-7V89.6z M9.7,96.9h7v7h-7V96.9z M9.7,104.1h7v7h-7V104.1z M9.7,111.4h7v7h-7V111.4z M9.7,118.6h7v7h-7V118.6
		z M9.7,125.9h7v7h-7V125.9z M17,75.1h7v7h-7V75.1z M17,82.3h7v7h-7V82.3z M17,89.6h7v7h-7V89.6z M17,111.4h7v7h-7V111.4z M17,118.6
		h7v7h-7V118.6z M24.3,75.1h7v7h-7V75.1z M24.3,82.3h7v7h-7V82.3z M24.3,89.6h7v7h-7V89.6z M24.3,96.9h7v7h-7V96.9z M24.3,118.6h7v7
		h-7V118.6z M24.3,125.9h7v7h-7V125.9z M31.5,75.1h7v7h-7V75.1z M31.5,82.3h7v7h-7V82.3z M31.5,89.6h7v7h-7V89.6z M31.5,96.9h7v7h-7
		V96.9z M31.5,118.6h7v7h-7V118.6z M31.5,125.9h7v7h-7V125.9z M38.8,75.1h7v7h-7V75.1z M38.8,82.3h7v7h-7V82.3z M38.8,89.6h7v7h-7
		V89.6z M38.8,96.9h7v7h-7V96.9z M38.8,118.6h7v7h-7V118.6z M38.8,125.9h7v7h-7V125.9z M46,75.1h7v7h-7V75.1z M46,82.3h7v7h-7V82.3z
		 M46,89.6h7v7h-7V89.6z M46,96.9h7v7h-7V96.9z M46,118.6h7v7h-7V118.6z M46,125.9h7v7h-7V125.9z M53.3,2.5h7v7h-7V2.5z M53.3,9.7h7
		v7h-7V9.7z M53.3,17h7v7h-7V17z M53.3,24.3h7v7h-7V24.3z M53.3,31.5h7v7h-7V31.5z M53.3,38.8h7v7h-7V38.8z M53.3,60.5h7v7h-7V60.5z
		 M53.3,67.8h7v7h-7V67.8z M60.6,2.5h7v7h-7V2.5z M60.6,17h7v7h-7V17z M60.6,24.3h7v7h-7V24.3z M60.6,31.5h7v7h-7V31.5z M60.6,38.8
		h7v7h-7V38.8z M60.6,60.5h7v7h-7V60.5z M60.6,67.8h7v7h-7V67.8z M67.8,9.7h7v7h-7V9.7z M67.8,24.3h7v7h-7V24.3z M67.8,31.5h7v7h-7
		V31.5z M67.8,38.8h7v7h-7V38.8z M67.8,46h7v7h-7V46z M67.8,67.8h7v7h-7V67.8z M75.1,17h7v7h-7V17z M75.1,24.3h7v7h-7V24.3z
		 M75.1,31.5h7v7h-7V31.5z M75.1,38.8h7v7h-7V38.8z M75.1,46h7v7h-7V46z M75.1,53.3h7v7h-7V53.3z M75.1,60.5h7v7h-7V60.5z
		 M75.1,67.8h7v7h-7V67.8z M82.3,31.5h7v7h-7V31.5z M82.3,38.8h7v7h-7V38.8z M82.3,46h7v7h-7V46z M82.3,53.3h7v7h-7V53.3z
		 M53.3,75.1h7v7h-7V75.1z M53.3,82.3h7v7h-7V82.3z M53.3,89.6h7v7h-7V89.6z M53.3,96.9h7v7h-7V96.9z M53.3,118.6h7v7h-7V118.6z
		 M53.3,125.9h7v7h-7V125.9z M60.6,75.1h7v7h-7V75.1z M60.6,82.3h7v7h-7V82.3z M60.6,89.6h7v7h-7V89.6z M60.6,96.9h7v7h-7V96.9z
		 M60.6,118.6h7v7h-7V118.6z M60.6,125.9h7v7h-7V125.9z M67.8,75.1h7v7h-7V75.1z M67.8,82.3h7v7h-7V82.3z M67.8,89.6h7v7h-7V89.6z
		 M67.8,111.4h7v7h-7V111.4z M67.8,118.6h7v7h-7V118.6z M75.1,75.1h7v7h-7V75.1z M75.1,82.3h7v7h-7V82.3z M75.1,89.6h7v7h-7V89.6z
		 M75.1,96.9h7v7h-7V96.9z M75.1,104.1h7v7h-7V104.1z M75.1,111.4h7v7h-7V111.4z M75.1,118.6h7v7h-7V118.6z M75.1,125.9h7v7h-7
		V125.9z M82.3,96.9h7v7h-7V96.9z M82.3,104.1h7v7h-7V104.1z M82.3,111.4h7v7h-7V111.4z M82.3,118.6h7v7h-7V118.6z M2.5,133.1h7v7
		h-7V133.1z M9.7,133.1h7v7h-7V133.1z M17,133.1h7v7h-7V133.1z M24.3,133.1h7v7h-7V133.1z M31.5,133.1h7v7h-7V133.1z M38.8,133.1h7
		v7h-7V133.1z M46,133.1h7v7h-7V133.1z M53.3,133.1h7v7h-7V133.1z M60.6,133.1h7v7h-7V133.1z M67.8,133.1h7v7h-7V133.1z M75.1,133.1
		h7v7h-7V133.1z M82.3,133.1h7v7h-7V133.1z"/>
</g>
</svg>
