<?xml version="1.0" encoding="utf-8"?>
<!-- Generator: Adobe Illustrator 27.3.1, SVG Export Plug-In . SVG Version: 6.00 Build 0)  -->
<svg version="1.1" id="Слой_1" xmlns="http://www.w3.org/2000/svg" xmlns:xlink="http://www.w3.org/1999/xlink" x="0px" y="0px"
	 viewBox="0 0 91.8 142.6" style="enable-background:new 0 0 91.8 142.6;" xml:space="preserve">
<style type="text/css">
	.st0{fill:#FCE19B;}
	.st1{fill:#1E0E01;}
</style>
<g id="Слой_2_00000145763003567225822060000015255503664123466129_">
	<path class="st0" d="M91.8,31.5c0-1.4-1.1-2.5-2.5-2.5h-4.7v-4.7c0-0.1,0-0.1,0-0.2V24v-7c0-1.4-1.1-2.5-2.5-2.5h-4.8V9.7
		c0-1.4-1.1-2.5-2.5-2.5h-4.7V2.5C70.1,1.1,69,0,67.6,0h-7c-0.1,0-0.1,0-0.1,0s-0.1,0-0.2,0h-7c-0.1,0-0.1,0-0.1,0S53.1,0,53,0h-7
		h-0.1h-0.1h-7c-0.1,0-0.1,0-0.2,0h-0.1h-7h-0.1h-0.1h-7c-1.4,0-2.5,1.1-2.5,2.5v4.7H17c-1.4,0-2.5,1.1-2.5,2.5v4.8H9.7
		c-1.4,0-2.5,1.1-2.5,2.5v7c0,0.1,0,0.1,0,0.1s0,0.1,0,0.2V29H2.5C1.1,29,0,30.1,0,31.5v7c0,0.1,0,0.1,0,0.1s0,0.1,0,0.2v7v0.1V46v7
		c0,0.1,0,0.1,0,0.1s0,0.1,0,0.2v7c0,1.4,1.1,2.5,2.5,2.5h4.7v4.7c0,0.1,0,0.1,0,0.1v0.1v7c0,0.1,0,0.1,0,0.1s0,0.1,0,0.2v7v0.1v0.1
		v7c0,0.1,0,0.1,0,0.1s0,0.1,0,0.2v4.8H2.5c-1.4,0-2.5,1.1-2.5,2.5v7v0.1v0.1v7c0,0.1,0,0.1,0,0.1s0,0.1,0,0.2v7v0.1v0.1v7
		c0,1.4,1.1,2.5,2.5,2.5h4.7v2.5H2.5c-1.4,0-2.5,1.1-2.5,2.5v7c0,1.4,1.1,2.5,2.5,2.5h7c0.1,0,0.1,0,0.2,0h7c0.1,0,0.1,0,0.1,0h0.1
		h7c0.1,0,0.1,0,0.1,0s0.1,0,0.2,0h7c0.1,0,0.1,0,0.2,0h7c0.1,0,0.1,0,0.1,0s0.1,0,0.2,0h7c0.1,0,0.1,0,0.2,0h7c0.1,0,0.1,0,0.2,0
		h0.1h7c0.1,0,0.1,0,0.2,0h0.1h7c0.1,0,0.1,0,0.2,0h7c0.1,0,0.1,0,0.2,0H75h7c0.1,0,0.1,0,0.2,0h7c1.4,0,2.5-1.1,2.5-2.5v-7
		c0-1.4-1.1-2.5-2.5-2.5h-4.7V128h4.7c1.4,0,2.5-1.1,2.5-2.5v-7v-0.1v-0.1v-7c0-0.1,0-0.1,0-0.2V111v-7v-0.1v-0.1v-7
		c0-1.4-1.1-2.5-2.5-2.5h-4.7v-4.8c0-0.1,0-0.1,0-0.2v-0.1v-7v-0.1V82v-7c0-0.1,0-0.1,0-0.2v-0.1v-7c0-0.1,0-0.1,0-0.1v-0.1v-4.7
		h4.7c1.4,0,2.5-1.1,2.5-2.5v-7c0-0.1,0-0.1,0-0.2V53v-7v-0.1v-0.1v-7c0-0.1,0-0.1,0-0.2v-0.1v-7C91.7,31.5,91.8,31.5,91.8,31.5z"/>
</g>
<path class="st1" d="M9.7,67.8h7v7h-7C9.7,74.8,9.7,67.8,9.7,67.8z M17,67.8h7v7h-7V67.8z M24.3,67.8h7v7h-7V67.8z M31.5,67.8h7v7
	h-7V67.8z M38.8,67.8h7v7h-7V67.8z M46,67.8h7v7h-7V67.8z M2.5,96.9h7v7h-7V96.9z M2.5,104.1h7v7h-7V104.1z M2.5,111.4h7v7h-7V111.4
	z M2.5,118.6h7v7h-7V118.6z M9.7,75.1h7v7h-7C9.7,82.1,9.7,75.1,9.7,75.1z M9.7,82.3h7v7h-7C9.7,89.3,9.7,82.3,9.7,82.3z M9.7,89.6
	h7v7h-7C9.7,96.6,9.7,89.6,9.7,89.6z M9.7,96.9h7v7h-7C9.7,103.9,9.7,96.9,9.7,96.9z M9.7,104.1h7v7h-7
	C9.7,111.1,9.7,104.1,9.7,104.1z M9.7,111.4h7v7h-7C9.7,118.4,9.7,111.4,9.7,111.4z M9.7,118.6h7v7h-7
	C9.7,125.6,9.7,118.6,9.7,118.6z M17,75.1h7v7h-7V75.1z M17,82.3h7v7h-7V82.3z M17,89.6h7v7h-7V89.6z M17,111.4h7v7h-7V111.4z
	 M24.3,75.1h7v7h-7V75.1z M24.3,82.3h7v7h-7V82.3z M24.3,89.6h7v7h-7V89.6z M24.3,96.9h7v7h-7V96.9z M31.5,75.1h7v7h-7V75.1z
	 M31.5,82.3h7v7h-7V82.3z M31.5,89.6h7v7h-7V89.6z M31.5,96.9h7v7h-7V96.9z M24.3,104.1h7v7h-7V104.1z M31.5,111.4h7v7h-7V111.4z
	 M38.8,75.1h7v7h-7V75.1z M38.8,82.3h7v7h-7V82.3z M38.8,89.6h7v7h-7V89.6z M38.8,96.9h7v7h-7V96.9z M46,75.1h7v7h-7V75.1z M46,82.3
	h7v7h-7V82.3z M46,89.6h7v7h-7V89.6z M46,96.9h7v7h-7V96.9z M38.8,104.1h7v7h-7V104.1z M46,111.4h7v7h-7V111.4z M53.3,67.8h7v7h-7
	V67.8z M60.6,67.8h7v7h-7V67.8z M67.8,67.8h7v7h-7V67.8z M75.1,67.8h7v7h-7V67.8z M53.3,75.1h7v7h-7V75.1z M53.3,82.3h7v7h-7V82.3z
	 M53.3,89.6h7v7h-7V89.6z M53.3,96.9h7v7h-7V96.9z M53.3,104.1h7v7h-7V104.1z M60.6,75.1h7v7h-7V75.1z M60.6,82.3h7v7h-7V82.3z
	 M60.6,89.6h7v7h-7V89.6z M60.6,96.9h7v7h-7V96.9z M60.6,111.4h7v7h-7V111.4z M67.8,75.1h7v7h-7V75.1z M67.8,82.3h7v7h-7V82.3z
	 M67.8,89.6h7v7h-7V89.6z M67.9,104.1h7v7h-7V104.1z M75.1,75.1h7v7h-7V75.1z M75.1,82.3h7v7h-7V82.3z M75.1,89.6h7v7h-7V89.6z
	 M17,118.6h7v7h-7V118.6z M24.2,118.6h7v7h-7V118.6z M31.4,118.6h7v7h-7C31.4,125.6,31.4,118.6,31.4,118.6z M60.5,118.6h7v7h-7
	V118.6z M67.7,118.6h7v7h-7V118.6z M75.1,96.9h7v7h-7V96.9z M75.1,104.1h7v7h-7V104.1z M75.1,111.4h7v7h-7V111.4z M75.1,118.6h7v7
	h-7V118.6z M82.3,96.9h7v7h-7V96.9z M82.3,104.1h7v7h-7V104.1z M82.3,111.4h7v7h-7V111.4z M82.3,118.6h7v7h-7V118.6z M2.5,31.5h7v7
	h-7V31.5z M2.5,38.8h7v7h-7V38.8z M2.5,46h7v7h-7V46z M2.5,53.3h7v7h-7V53.3z M9.7,17h7v7h-7C9.7,24,9.7,17,9.7,17z M9.7,24.3h7v7
	h-7C9.7,31.3,9.7,24.3,9.7,24.3z M9.7,31.5h7v7h-7C9.7,38.5,9.7,31.5,9.7,31.5z M9.7,38.8h7v7h-7C9.7,45.8,9.7,38.8,9.7,38.8z
	 M9.7,46h7v7h-7C9.7,53,9.7,46,9.7,46z M9.7,53.3h7v7h-7C9.7,60.3,9.7,53.3,9.7,53.3z M9.7,60.5h7v7h-7C9.7,67.5,9.7,60.5,9.7,60.5z
	 M17,24.3h7v7h-7V24.3z M17,31.5h7v7h-7V31.5z M17,38.8h7v7h-7V38.8z M17,46h7v7h-7V46z M24.3,17h7v7h-7V17z M24.3,31.5h7v7h-7V31.5
	z M24.3,38.8h7v7h-7V38.8z M24.3,60.5h7v7h-7V60.5z M31.5,24.3h7v7h-7V24.3z M31.5,38.8h7v7h-7V38.8z M31.5,60.5h7v7h-7V60.5z
	 M38.8,17h7v7h-7V17z M38.8,31.5h7v7h-7V31.5z M38.8,38.8h7v7h-7V38.8z M38.8,60.5h7v7h-7V60.5z M46,24.3h7v7h-7V24.3z M46,38.8h7v7
	h-7V38.8z M46,60.5h7v7h-7V60.5z M53.3,17h7v7h-7V17z M53.3,31.5h7v7h-7V31.5z M53.3,38.8h7v7h-7V38.8z M53.3,60.5h7v7h-7V60.5z
	 M60.6,17h7v7h-7V17z M60.6,24.3h7v7h-7V24.3z M60.6,38.8h7v7h-7V38.8z M60.6,60.5h7v7h-7V60.5z M67.8,31.5h7v7h-7V31.5z M67.8,38.8
	h7v7h-7V38.8z M67.8,46h7v7h-7V46z M17,53.3h7v7h-7V53.3z M24.3,53.3h7v7h-7V53.3z M31.5,46h7v7h-7V46z M38.8,46h7v7h-7V46z
	 M46,53.3h7v7h-7V53.3z M53.3,46h7v7h-7V46z M60.6,53.3h7v7h-7V53.3z M67.8,53.3h7v7h-7V53.3z M75.1,17h7v7h-7V17z M75.1,24.3h7v7
	h-7V24.3z M75.1,31.5h7v7h-7V31.5z M75.1,38.8h7v7h-7V38.8z M75.1,46h7v7h-7V46z M75.1,53.3h7v7h-7V53.3z M75.1,60.5h7v7h-7V60.5z
	 M82.3,31.5h7v7h-7V31.5z M82.3,38.8h7v7h-7V38.8z M82.3,46h7v7h-7V46z M82.3,53.3h7v7h-7V53.3z"/>
</svg>
