<?xml version="1.0" encoding="utf-8"?>
<!-- Generator: Adobe Illustrator 27.3.1, SVG Export Plug-In . SVG Version: 6.00 Build 0)  -->
<svg version="1.1" xmlns="http://www.w3.org/2000/svg" xmlns:xlink="http://www.w3.org/1999/xlink" x="0px" y="0px"
	 viewBox="0 0 91.8 142.6" style="enable-background:new 0 0 91.8 142.6;" xml:space="preserve">
<style type="text/css">
	.st0{fill:#FCE19B;}
	.st1{fill:#1E0E01;}
</style>
<g id="Слой_2">
	<path class="st0" d="M91.8,9.7c0-1.4-1.1-2.5-2.5-2.5h-7c0,0-0.1,0-0.1,0c0,0-0.1,0-0.1,0h-7c-0.1,0-0.1,0-0.2,0c0,0-0.1,0-0.1,0
		h-7c0,0-0.1,0-0.1,0c0,0-0.1,0-0.1,0h-7c-1.4,0-2.5,1.1-2.5,2.5v4.8h-4.8c-0.1,0-0.1,0-0.2,0c0,0-0.1,0-0.1,0h-7c0,0-0.1,0-0.1,0
		c0,0-0.1,0-0.1,0h-7c-0.1,0-0.1,0-0.1,0c0,0-0.1,0-0.1,0h-4.8V9.7c0-1.4-1.1-2.5-2.5-2.5h-7c0,0-0.1,0-0.1,0c0,0-0.1,0-0.1,0h-4.8
		V2.5c0-1.4-1.1-2.5-2.5-2.5h-7C8.3,0,7.2,1.1,7.2,2.5v4.7H2.5C1.1,7.2,0,8.3,0,9.7v7c0,0.1,0,0.1,0,0.1c0,0,0,0.1,0,0.1v7
		c0,0,0,0.1,0,0.1c0,0,0,0.1,0,0.1v7c0,0.1,0,0.1,0,0.1c0,0,0,0.1,0,0.1v7C0,39.9,1.1,41,2.5,41h4.7v4.7c0,0.1,0,0.1,0,0.1
		c0,0,0,0.1,0,0.1v7c0,0.1,0,0.1,0,0.2c0,0,0,0.1,0,0.1v7c0,0,0,0.1,0,0.1c0,0,0,0.1,0,0.1v7c0,0.1,0,0.1,0,0.1c0,0,0,0.1,0,0.2v4.8
		H2.5c-1.4,0-2.5,1.1-2.5,2.5v7c0,0,0,0.1,0,0.1c0,0,0,0.1,0,0.1v7c0,0.1,0,0.1,0,0.2c0,0,0,0.1,0,0.2v7c0,0,0,0.1,0,0.1
		c0,0,0,0.1,0,0.1v7c0,1.4,1.1,2.5,2.5,2.5h4.7v2.5H2.5c-1.4,0-2.5,1.1-2.5,2.5v7c0,1.4,1.1,2.5,2.5,2.5h7c0.1,0,0.1,0,0.2,0h7
		c0.1,0,0.1,0,0.1,0c0,0,0.1,0,0.1,0h7c0.1,0,0.1,0,0.1,0c0,0,0.1,0,0.1,0h7c0.1,0,0.1,0,0.2,0h7c0.1,0,0.1,0,0.1,0c0,0,0.1,0,0.1,0
		h7c0.1,0,0.1,0,0.2,0h7c0.1,0,0.1,0,0.1,0c0,0,0.1,0,0.2,0h7c0.1,0,0.1,0,0.1,0c0,0,0.1,0,0.2,0h7c0.1,0,0.1,0,0.2,0h7
		c0.1,0,0.1,0,0.1,0c0,0,0.1,0,0.2,0h7c0.1,0,0.1,0,0.2,0h7c1.4,0,2.5-1.1,2.5-2.5v-7c0-1.4-1.1-2.5-2.5-2.5h-4.7v-2.5h4.7
		c1.4,0,2.5-1.1,2.5-2.5v-7c0,0,0-0.1,0-0.1c0,0,0-0.1,0-0.1v-7c0-0.1,0-0.1,0-0.2c0,0,0-0.1,0-0.2v-7c0,0,0-0.1,0-0.1
		c0,0,0-0.1,0-0.1v-7c0-1.4-1.1-2.5-2.5-2.5h-4.7v-4.8c0-0.1,0-0.1,0-0.2c0,0,0-0.1,0-0.1v-7c0,0,0-0.1,0-0.1c0,0,0-0.1,0-0.1v-7
		c0-0.1,0-0.1,0-0.1c0,0,0-0.1,0-0.2v-7c0-0.1,0-0.1,0-0.1c0,0,0-0.1,0-0.1V41h4.7c1.4,0,2.5-1.1,2.5-2.5v-7c0-0.1,0-0.1,0-0.1
		c0,0,0-0.1,0-0.1v-7c0,0,0-0.1,0-0.1c0,0,0-0.1,0-0.1v-7c0-0.1,0-0.1,0-0.1c0,0,0-0.1,0-0.1V9.7z"/>
</g>
<g id="Слой_1">
	<path class="st1" d="M2.5,9.7h7v7h-7V9.7z M2.5,17h7v7h-7V17z M2.5,24.2h7v7h-7V24.2z M2.5,31.5h7v7h-7V31.5z M9.7,2.5h7v7h-7V2.5z
		 M9.7,17h7v7h-7V17z M9.7,24.2h7v7h-7V24.2z M9.7,31.5h7v7h-7V31.5z M9.7,38.7h7v7h-7V38.7z M9.7,46h7v7h-7V46z M17,9.7h7v7h-7V9.7
		z M17,24.2h7v7h-7V24.2z M17,38.7h7v7h-7V38.7z M24.2,9.7h7v7h-7V9.7z M24.3,24.2h7v7h-7V24.2z M24.3,31.5h7v7h-7V31.5z M24.3,46h7
		v7h-7V46z M31.5,17h7v7h-7V17z M31.5,24.2h7v7h-7V24.2z M31.5,38.7h7v7h-7V38.7z M31.5,46h7v7h-7V46z M38.8,17h7v7h-7V17z
		 M38.8,24.2h7v7h-7V24.2z M38.8,31.5h7v7h-7V31.5z M38.8,46h7v7h-7V46z M46,17h7v7h-7V17z M46,24.2h7v7h-7V24.2z M46,38.7h7v7h-7
		V38.7z M46,46h7v7h-7V46z M2.5,75.1h7v7h-7V75.1z M2.5,82.3h7v7h-7V82.3z M2.5,89.6h7v7h-7V89.6z M2.5,96.8h7v7h-7V96.8z M9.7,53.3
		h7v7h-7V53.3z M9.7,60.5h7v7h-7V60.5z M9.7,67.8h7v7h-7V67.8z M9.7,75.1h7v7h-7V75.1z M9.7,82.3h7v7h-7V82.3z M9.7,89.6h7v7h-7
		V89.6z M9.7,96.8h7v7h-7V96.8z M9.7,104.1h7v7h-7V104.1z M17,53.3h7v7h-7V53.3z M17,60.5h7v7h-7V60.5z M17,67.8h7v7h-7V67.8z
		 M17,89.6h7v7h-7V89.6z M17,96.8h7v7h-7V96.8z M24.3,53.3h7v7h-7V53.3z M24.3,60.5h7v7h-7V60.5z M24.3,67.8h7v7h-7V67.8z
		 M24.3,75.1h7v7h-7V75.1z M24.3,96.8h7v7h-7V96.8z M24.3,104.1h7v7h-7V104.1z M31.5,53.3h7v7h-7V53.3z M31.5,60.5h7v7h-7V60.5z
		 M31.5,67.8h7v7h-7V67.8z M31.5,75.1h7v7h-7V75.1z M31.5,96.8h7v7h-7V96.8z M31.5,104.1h7v7h-7V104.1z M38.8,53.3h7v7h-7V53.3z
		 M38.8,60.5h7v7h-7V60.5z M38.8,67.8h7v7h-7V67.8z M38.8,75.1h7v7h-7V75.1z M38.8,96.8h7v7h-7V96.8z M38.8,104.1h7v7h-7V104.1z
		 M46,53.3h7v7h-7V53.3z M46,60.5h7v7h-7V60.5z M46,67.8h7v7h-7V67.8z M46,75.1h7v7h-7V75.1z M46,96.8h7v7h-7V96.8z M46,104.1h7v7
		h-7V104.1z M53.3,17h7v7h-7V17z M53.3,24.2h7v7h-7V24.2z M53.3,31.5h7v7h-7V31.5z M53.3,46h7v7h-7V46z M60.6,9.7h7v7h-7V9.7z
		 M60.6,24.2h7v7h-7V24.2z M60.6,38.7h7v7h-7V38.7z M60.6,46h7v7h-7V46z M67.8,9.7h7v7h-7V9.7z M67.8,24.2h7v7h-7V24.2z M67.8,31.5
		h7v7h-7V31.5z M67.8,46h7v7h-7V46z M75.1,9.7h7v7h-7V9.7z M75.1,17h7v7h-7V17z M75.1,24.2h7v7h-7V24.2z M75.1,31.5h7v7h-7V31.5z
		 M75.1,38.7h7v7h-7V38.7z M75.1,46h7v7h-7V46z M82.3,9.7h7v7h-7V9.7z M82.3,17h7v7h-7V17z M82.3,24.2h7v7h-7V24.2z M82.3,31.5h7v7
		h-7V31.5z M53.3,53.3h7v7h-7V53.3z M53.3,60.5h7v7h-7V60.5z M53.3,67.8h7v7h-7V67.8z M53.3,75.1h7v7h-7V75.1z M53.3,96.8h7v7h-7
		V96.8z M53.3,104.1h7v7h-7V104.1z M60.6,53.3h7v7h-7V53.3z M60.6,60.5h7v7h-7V60.5z M60.6,67.8h7v7h-7V67.8z M60.6,75.1h7v7h-7
		V75.1z M60.6,96.8h7v7h-7V96.8z M60.6,104.1h7v7h-7V104.1z M67.8,53.3h7v7h-7V53.3z M67.8,60.5h7v7h-7V60.5z M67.8,67.8h7v7h-7
		V67.8z M67.8,89.6h7v7h-7V89.6z M67.8,96.8h7v7h-7V96.8z M75.1,53.3h7v7h-7V53.3z M75.1,60.5h7v7h-7V60.5z M75.1,67.8h7v7h-7V67.8z
		 M75.1,75.1h7v7h-7V75.1z M75.1,82.3h7v7h-7V82.3z M75.1,89.6h7v7h-7V89.6z M75.1,96.8h7v7h-7V96.8z M75.1,104.1h7v7h-7V104.1z
		 M82.3,75.1h7v7h-7V75.1z M82.3,82.3h7v7h-7V82.3z M82.3,89.6h7v7h-7V89.6z M82.3,96.8h7v7h-7V96.8z M2.5,111.3h7v7h-7V111.3z
		 M9.7,111.3h7v7h-7V111.3z M17,111.3h7v7h-7V111.3z M24.3,111.3h7v7h-7V111.3z M31.5,111.3h7v7h-7V111.3z M38.8,111.3h7v7h-7V111.3
		z M46,111.3h7v7h-7V111.3z M53.3,111.3h7v7h-7V111.3z M60.6,111.3h7v7h-7V111.3z M67.8,111.3h7v7h-7V111.3z M75.1,111.3h7v7h-7
		V111.3z M82.3,111.3h7v7h-7V111.3z"/>
</g>
</svg>
