<?xml version="1.0" encoding="utf-8"?>
<!-- Generator: Adobe Illustrator 27.3.1, SVG Export Plug-In . SVG Version: 6.00 Build 0)  -->
<svg version="1.1" xmlns="http://www.w3.org/2000/svg" xmlns:xlink="http://www.w3.org/1999/xlink" x="0px" y="0px"
	 viewBox="0 0 91.9 157.2" style="enable-background:new 0 0 91.9 157.2;" xml:space="preserve">
<style type="text/css">
	.st0{fill:#FCE19B;}
	.st1{fill:#1E0E01;}
</style>
<g id="Слой_2">
	<path class="st0" d="M91.9,17.1c0-1.4-1.1-2.5-2.5-2.5h-4.7V9.8c0-1.4-1.1-2.5-2.5-2.5h-4.8V2.5c0-1.4-1.1-2.5-2.5-2.5h-7
		c-0.1,0-0.1,0-0.2,0c0,0-0.1,0-0.1,0h-7c0,0-0.1,0-0.1,0c0,0-0.1,0-0.1,0h-7c-0.1,0-0.1,0-0.2,0c0,0-0.1,0-0.1,0h-7C46,0,46,0,46,0
		c0,0-0.1,0-0.1,0h-7c-0.1,0-0.1,0-0.1,0c0,0-0.1,0-0.2,0h-7c-0.1,0-0.1,0-0.1,0c0,0-0.1,0-0.1,0h-7c0,0-0.1,0-0.1,0
		c0,0-0.1,0-0.1,0h-7c-1.4,0-2.5,1.1-2.5,2.5v4.8H9.8c-1.4,0-2.5,1.1-2.5,2.5v4.8H2.5c-1.4,0-2.5,1.1-2.5,2.5v7c0,0,0,0.1,0,0.1
		c0,0,0,0.1,0,0.1v7c0,0.1,0,0.1,0,0.1c0,0,0,0.1,0,0.2v7c0,0.1,0,0.1,0,0.1c0,0,0,0.1,0,0.1v7c0,1.4,1.1,2.5,2.5,2.5h4.7v4.7
		c0,0.1,0,0.1,0,0.1c0,0,0,0.1,0,0.1v7c0,0,0,0.1,0,0.1c0,0,0,0.1,0,0.1v7c0,0.1,0,0.1,0,0.1c0,0,0,0.1,0,0.1v7c0,0,0,0.1,0,0.1
		c0,0,0,0.1,0,0.1v7c0,0.1,0,0.1,0,0.1c0,0,0,0.1,0,0.2v7c0,0.1,0,0.1,0,0.1c0,0,0,0.1,0,0.2v7c0,0,0,0.1,0,0.1c0,0,0,0.1,0,0.1v7
		c0,0.1,0,0.1,0,0.1c0,0,0,0.1,0,0.2v4.8H2.5c-1.4,0-2.5,1.1-2.5,2.5v7c0,0,0,0.1,0,0.1c0,0,0,0.1,0,0.1v7c0,0.1,0,0.1,0,0.2
		c0,0,0,0.1,0,0.1v7c0,0,0,0.1,0,0.1c0,0,0,0.1,0,0.1v7c0,1.4,1.1,2.5,2.5,2.5h4.7v4.8c0,1.4,1.1,2.5,2.5,2.5h4.8v4.7
		c0,1.4,1.1,2.5,2.5,2.5h7c0.1,0,0.1,0,0.2,0h7c0.1,0,0.1,0,0.1,0c0,0,0.1,0,0.1,0h7c0.1,0,0.1,0,0.2,0c0,0,0.1,0,0.1,0h7
		c0.1,0,0.1,0,0.2,0h7c0.1,0,0.1,0,0.1,0c0,0,0.1,0,0.2,0h7c0.1,0,0.1,0,0.2,0h7c0.1,0,0.1,0,0.1,0c0,0,0.1,0,0.2,0h7
		c1.4,0,2.5-1.1,2.5-2.5V150h4.8c1.4,0,2.5-1.1,2.5-2.5v-4.8h4.7c1.4,0,2.5-1.1,2.5-2.5v-7c0,0,0-0.1,0-0.1c0,0,0-0.1,0-0.1v-7
		c0-0.1,0-0.1,0-0.1c0,0,0-0.1,0-0.2v-7c0,0,0-0.1,0-0.1c0,0,0-0.1,0-0.1v-7c0-1.4-1.1-2.5-2.5-2.5h-4.7v-4.8c0-0.1,0-0.1,0-0.2
		c0,0,0-0.1,0-0.1v-7c0,0,0-0.1,0-0.1c0,0,0-0.1,0-0.1v-7c0-0.1,0-0.1,0-0.2c0,0,0-0.1,0-0.1v-7c0-0.1,0-0.1,0-0.2c0,0,0-0.1,0-0.1
		v-7c0,0,0-0.1,0-0.1c0,0,0-0.1,0-0.1v-7c0-0.1,0-0.1,0-0.1c0,0,0-0.1,0-0.1v-7c0,0,0-0.1,0-0.1c0,0,0-0.1,0-0.1v-7
		c0-0.1,0-0.1,0-0.1c0,0,0-0.1,0-0.1v-4.7h4.7c1.4,0,2.5-1.1,2.5-2.5v-7c0-0.1,0-0.1,0-0.1c0,0,0-0.1,0-0.1v-7c0-0.1,0-0.1,0-0.2
		c0,0,0-0.1,0-0.1v-7c0,0,0-0.1,0-0.1c0,0,0-0.1,0-0.1V17.1z"/>
</g>
<g id="Слой_1">
	<path class="st1" d="M9.7,9.8h7v7h-7V9.8z M17,2.5h7v7h-7V2.5z M24.2,2.5h7v7h-7V2.5z M24.2,9.8h7v7h-7V9.8z M2.5,17.1h7v7h-7V17.1
		z M2.5,24.3h7v7h-7V24.3z M2.5,31.6h7v7h-7V31.6z M2.5,38.9h7v7h-7V38.9z M9.7,17.1h7v7h-7V17.1z M9.7,24.3h7v7h-7V24.3z M9.7,46.1
		h7v7h-7V46.1z M9.7,53.4h7v7h-7V53.4z M9.7,60.6h7v7h-7V60.6z M9.7,67.9h7v7h-7V67.9z M9.7,75.1h7v7h-7V75.1z M9.7,82.4h7v7h-7
		V82.4z M17,17.1h7v7h-7V17.1z M17,38.9h7v7h-7V38.9z M17,46.1h7v7h-7V46.1z M17,60.6h7v7h-7V60.6z M17,75.1h7v7h-7V75.1z
		 M24.2,17.1h7v7h-7V17.1z M24.2,38.9h7v7h-7V38.9z M24.2,46.1h7v7h-7V46.1z M24.2,53.4h7v7h-7V53.4z M24.2,60.6h7v7h-7V60.6z
		 M24.2,67.9h7v7h-7V67.9z M24.2,75.1h7v7h-7V75.1z M24.2,82.4h7v7h-7V82.4z M2.5,111.5h7v7h-7V111.5z M2.5,118.7h7v7h-7V118.7z
		 M2.5,126h7v7h-7V126z M2.5,133.2h7v7h-7V133.2z M9.7,89.7h7v7h-7V89.7z M9.7,96.9h7v7h-7V96.9z M9.7,104.2h7v7h-7V104.2z
		 M9.7,111.5h7v7h-7V111.5z M9.7,118.7h7v7h-7V118.7z M9.7,126h7v7h-7V126z M9.7,133.2h7v7h-7V133.2z M9.7,140.5h7v7h-7V140.5z
		 M17,89.7h7v7h-7V89.7z M17,104.2h7v7h-7V104.2z M17,118.7h7v7h-7V118.7z M17,133.2h7v7h-7V133.2z M24.2,89.7h7v7h-7V89.7z
		 M24.2,96.9h7v7h-7V96.9z M24.2,104.2h7v7h-7V104.2z M24.2,111.5h7v7h-7V111.5z M24.2,118.7h7v7h-7V118.7z M24.2,126h7v7h-7V126z
		 M24.2,140.5h7v7h-7V140.5z M31.5,2.5h7v7h-7V2.5z M31.5,9.8h7v7h-7V9.8z M38.8,2.5h7v7h-7V2.5z M38.8,9.8h7v7h-7V9.8z M46,2.5h7v7
		h-7V2.5z M46,9.8h7v7h-7V9.8z M53.3,2.5h7v7h-7V2.5z M53.3,9.8h7v7h-7V9.8z M60.5,2.5h7v7h-7V2.5z M60.5,9.8h7v7h-7V9.8z M67.8,2.5
		h7v7h-7V2.5z M75.1,9.8h7v7h-7V9.8z M31.5,17.1h7v7h-7V17.1z M31.5,38.9h7v7h-7V38.9z M31.5,46.1h7v7h-7V46.1z M31.5,60.6h7v7h-7
		V60.6z M31.5,67.9h7v7h-7V67.9z M31.5,75.1h7v7h-7V75.1z M31.5,82.4h7v7h-7V82.4z M38.8,17.1h7v7h-7V17.1z M38.8,38.9h7v7h-7V38.9z
		 M38.8,46.1h7v7h-7V46.1z M38.8,53.4h7v7h-7V53.4z M38.8,60.6h7v7h-7V60.6z M38.8,67.9h7v7h-7V67.9z M38.8,75.1h7v7h-7V75.1z
		 M38.8,82.4h7v7h-7V82.4z M46,17.1h7v7h-7V17.1z M46,38.9h7v7h-7V38.9z M46,46.1h7v7h-7V46.1z M46,53.4h7v7h-7V53.4z M46,60.6h7v7
		h-7V60.6z M46,67.9h7v7h-7V67.9z M46,75.1h7v7h-7V75.1z M46,82.4h7v7h-7V82.4z M53.3,17.1h7v7h-7V17.1z M53.3,38.9h7v7h-7V38.9z
		 M53.3,46.1h7v7h-7V46.1z M53.3,60.6h7v7h-7V60.6z M53.3,67.9h7v7h-7V67.9z M53.3,75.1h7v7h-7V75.1z M53.3,82.4h7v7h-7V82.4z
		 M60.5,17.1h7v7h-7V17.1z M60.5,38.9h7v7h-7V38.9z M60.5,46.1h7v7h-7V46.1z M60.5,53.4h7v7h-7V53.4z M60.5,60.6h7v7h-7V60.6z
		 M60.5,67.9h7v7h-7V67.9z M60.5,75.1h7v7h-7V75.1z M60.5,82.4h7v7h-7V82.4z M67.8,17.1h7v7h-7V17.1z M67.8,38.9h7v7h-7V38.9z
		 M17,31.6h7v7h-7V31.6z M24.2,31.6h7v7h-7V31.6z M31.5,31.6h7v7h-7V31.6z M38.8,31.6h7v7h-7V31.6z M46,31.6h7v7h-7V31.6z
		 M53.3,31.6h7v7h-7V31.6z M60.5,31.6h7v7h-7V31.6z M67.8,31.6h7v7h-7V31.6z M67.8,46.1h7v7h-7V46.1z M67.8,60.6h7v7h-7V60.6z
		 M67.8,75.1h7v7h-7V75.1z M75.1,17.1h7v7h-7V17.1z M75.1,24.3h7v7h-7V24.3z M75.1,46.1h7v7h-7V46.1z M75.1,53.4h7v7h-7V53.4z
		 M75.1,60.6h7v7h-7V60.6z M75.1,67.9h7v7h-7V67.9z M75.1,75.1h7v7h-7V75.1z M75.1,82.4h7v7h-7V82.4z M82.3,17.1h7v7h-7V17.1z
		 M82.3,24.3h7v7h-7V24.3z M82.3,31.6h7v7h-7V31.6z M82.3,38.9h7v7h-7V38.9z M31.5,89.7h7v7h-7V89.7z M31.5,96.9h7v7h-7V96.9z
		 M31.5,104.2h7v7h-7V104.2z M31.5,111.5h7v7h-7V111.5z M31.5,118.7h7v7h-7V118.7z M31.5,126h7v7h-7V126z M31.5,133.2h7v7h-7V133.2z
		 M31.5,140.5h7v7h-7V140.5z M38.8,89.7h7v7h-7V89.7z M38.8,96.9h7v7h-7V96.9z M38.8,104.2h7v7h-7V104.2z M38.8,111.5h7v7h-7V111.5z
		 M38.8,118.7h7v7h-7V118.7z M38.8,126h7v7h-7V126z M38.8,140.5h7v7h-7V140.5z M46,89.7h7v7h-7V89.7z M46,96.9h7v7h-7V96.9z
		 M46,104.2h7v7h-7V104.2z M46,111.5h7v7h-7V111.5z M46,118.7h7v7h-7V118.7z M46,126h7v7h-7V126z M46,140.5h7v7h-7V140.5z
		 M53.3,89.7h7v7h-7V89.7z M53.3,96.9h7v7h-7V96.9z M53.3,104.2h7v7h-7V104.2z M53.3,111.5h7v7h-7V111.5z M53.3,118.7h7v7h-7V118.7z
		 M53.3,126h7v7h-7V126z M53.3,133.2h7v7h-7V133.2z M53.3,140.5h7v7h-7V140.5z M60.5,89.7h7v7h-7V89.7z M60.5,96.9h7v7h-7V96.9z
		 M60.5,104.2h7v7h-7V104.2z M60.5,111.5h7v7h-7V111.5z M60.5,118.7h7v7h-7V118.7z M60.5,126h7v7h-7V126z M60.5,140.5h7v7h-7V140.5z
		 M67.8,89.7h7v7h-7V89.7z M67.8,104.2h7v7h-7V104.2z M67.8,118.7h7v7h-7V118.7z M67.8,133.2h7v7h-7V133.2z M75.1,89.7h7v7h-7V89.7z
		 M75.1,96.9h7v7h-7V96.9z M75.1,104.2h7v7h-7V104.2z M75.1,111.5h7v7h-7V111.5z M75.1,118.7h7v7h-7V118.7z M75.1,126h7v7h-7V126z
		 M75.1,133.2h7v7h-7V133.2z M75.1,140.5h7v7h-7V140.5z M82.3,111.5h7v7h-7V111.5z M82.3,118.7h7v7h-7V118.7z M82.3,126h7v7h-7V126z
		 M82.3,133.2h7v7h-7V133.2z M17,147.7h7v7h-7V147.7z M24.2,147.7h7v7h-7V147.7z M31.5,147.7h7v7h-7V147.7z M38.8,147.7h7v7h-7
		V147.7z M46,147.7h7v7h-7V147.7z M53.3,147.7h7v7h-7V147.7z M60.5,147.7h7v7h-7V147.7z M67.8,147.7h7v7h-7V147.7z"/>
</g>
</svg>
