<?xml version="1.0" encoding="utf-8"?>
<!-- Generator: Adobe Illustrator 27.3.1, SVG Export Plug-In . SVG Version: 6.00 Build 0)  -->
<svg version="1.1" xmlns="http://www.w3.org/2000/svg" xmlns:xlink="http://www.w3.org/1999/xlink" x="0px" y="0px"
	 viewBox="0 0 91.8 142.6" style="enable-background:new 0 0 91.8 142.6;" xml:space="preserve">
<style type="text/css">
	.st0{fill:#FCE19B;}
	.st1{fill:#1E0E01;}
</style>
<g id="Слой_2">
	<path class="st0" d="M91.8,2.5c0-1.4-1.1-2.5-2.5-2.5h-7c-1.4,0-2.5,1.1-2.5,2.5v7c0,0,0,0.1,0,0.1c0,0,0,0.1,0,0.1v4.8h-4.7
		c-0.1,0-0.1,0-0.1,0c-0.1,0-0.1,0-0.1,0h-4.7V9.7c0-1.4-1.1-2.5-2.5-2.5h-7c-1.4,0-2.5,1.1-2.5,2.5v4.8h-2.6V9.7
		c0-1.4-1.1-2.5-2.5-2.5h-7c-1.4,0-2.5,1.1-2.5,2.5v4.8H41V9.7c0-1.4-1.1-2.5-2.5-2.5h-7c-1.4,0-2.5,1.1-2.5,2.5v4.8h-4.7
		c-1.4,0-2.5,1.1-2.5,2.5v4.7h-2.6V17c0-1.4-1.1-2.5-2.5-2.5H12V9.7c0,0,0-0.1,0-0.1c0,0,0-0.1,0-0.1v-7C12,1.1,10.9,0,9.5,0h-7
		C1.1,0,0,1.1,0,2.5v7c0,0,0,0.1,0,0.1c0,0,0,0.1,0,0.1v7c0,0.1,0,0.1,0,0.1c0,0.1,0,0.1,0,0.1v7c0,1.4,1.1,2.5,2.5,2.5h4.7v4.7
		c0,0.1,0,0.1,0,0.1c0,0.1,0,0.1,0,0.1v7c0,0.1,0,0.1,0,0.2c0,0.1,0,0.1,0,0.2v7c0,0,0,0.1,0,0.1c0,0,0,0.1,0,0.1v7
		c0,0.1,0,0.1,0,0.1c0,0.1,0,0.1,0,0.1v4.8H2.5c-1.4,0-2.5,1.1-2.5,2.5v7c0,0,0,0.1,0,0.1c0,0,0,0.1,0,0.1v7c0,0.1,0,0.1,0,0.2
		C0,75,0,75,0,75.1v7c0,0,0,0.1,0,0.1c0,0,0,0.1,0,0.1v7c0,1.4,1.1,2.5,2.5,2.5h4.7v2.5H2.5c-1.4,0-2.5,1.1-2.5,2.5v7
		c0,1.4,1.1,2.5,2.5,2.5h7c0,0,0.1,0,0.1,0c0,0,0.1,0,0.1,0h7c0.1,0,0.1,0,0.1,0c0.1,0,0.1,0,0.1,0h7c0.1,0,0.1,0,0.1,0
		c0.1,0,0.1,0,0.1,0h7c0,0,0.1,0,0.1,0c0,0,0.1,0,0.1,0h7c0.1,0,0.1,0,0.1,0c0.1,0,0.1,0,0.1,0h7c0,0,0.1,0,0.1,0c0,0,0.1,0,0.1,0h7
		c0.1,0,0.1,0,0.1,0c0.1,0,0.1,0,0.1,0h7c0.1,0,0.1,0,0.1,0c0.1,0,0.1,0,0.1,0h7c0,0,0.1,0,0.1,0c0,0,0.1,0,0.1,0h7
		c0.1,0,0.1,0,0.1,0c0.1,0,0.1,0,0.1,0h7c0,0,0.1,0,0.1,0c0,0,0.1,0,0.1,0h7c1.4,0,2.5-1.1,2.5-2.5v-7c0-1.4-1.1-2.5-2.5-2.5h-4.7
		v-2.5h4.7c1.4,0,2.5-1.1,2.5-2.5v-7c0,0,0-0.1,0-0.1c0,0,0-0.1,0-0.1v-7c0-0.1,0-0.1,0-0.2c0-0.1,0-0.1,0-0.2v-7c0,0,0-0.1,0-0.1
		c0,0,0-0.1,0-0.1v-7c0-1.4-1.1-2.5-2.5-2.5h-4.7v-4.8c0-0.1,0-0.1,0-0.1c0-0.1,0-0.1,0-0.1v-7c0,0,0-0.1,0-0.1c0,0,0-0.1,0-0.1v-7
		c0-0.1,0-0.1,0-0.2c0-0.1,0-0.1,0-0.2v-7c0-0.1,0-0.1,0-0.1c0-0.1,0-0.1,0-0.1v-4.7h4.7c1.4,0,2.5-1.1,2.5-2.5v-7
		c0-0.1,0-0.1,0-0.1c0-0.1,0-0.1,0-0.1v-7c0,0,0-0.1,0-0.1c0,0,0-0.1,0-0.1V2.5z"/>
</g>
<g id="Слой_1">
	<rect x="2.5" y="2.5" class="st1" width="7" height="7"/>
	<rect x="2.5" y="9.7" class="st1" width="7" height="7"/>
	<rect x="2.5" y="17" class="st1" width="7" height="7"/>
	<rect x="9.7" y="17" class="st1" width="7" height="7"/>
	<rect x="9.7" y="24.2" class="st1" width="7" height="7"/>
	<rect x="9.7" y="31.5" class="st1" width="7" height="7"/>
	<rect x="17" y="24.2" class="st1" width="7" height="7"/>
	<rect x="24.3" y="17" class="st1" width="7" height="7"/>
	<rect x="24.3" y="31.5" class="st1" width="7" height="7"/>
	<rect x="31.5" y="9.7" class="st1" width="7" height="7"/>
	<rect x="31.5" y="24.2" class="st1" width="7" height="7"/>
	<rect x="31.5" y="31.5" class="st1" width="7" height="7"/>
	<rect x="38.8" y="17" class="st1" width="7" height="7"/>
	<rect x="38.8" y="31.5" class="st1" width="7" height="7"/>
	<rect x="46" y="9.7" class="st1" width="7" height="7"/>
	<rect x="46" y="24.2" class="st1" width="7" height="7"/>
	<rect x="46" y="31.5" class="st1" width="7" height="7"/>
	<rect x="2.5" y="60.6" class="st1" width="7" height="7"/>
	<rect x="2.5" y="67.8" class="st1" width="7" height="7"/>
	<rect x="2.5" y="75.1" class="st1" width="7" height="7"/>
	<rect x="2.5" y="82.3" class="st1" width="7" height="7"/>
	<rect x="9.7" y="38.8" class="st1" width="7" height="7"/>
	<rect x="9.7" y="46" class="st1" width="7" height="7"/>
	<rect x="9.7" y="53.3" class="st1" width="7" height="7"/>
	<rect x="9.7" y="60.6" class="st1" width="7" height="7"/>
	<rect x="9.7" y="67.8" class="st1" width="7" height="7"/>
	<rect x="9.7" y="75.1" class="st1" width="7" height="7"/>
	<rect x="9.7" y="82.3" class="st1" width="7" height="7"/>
	<rect x="9.7" y="89.6" class="st1" width="7" height="7"/>
	<rect x="17" y="38.8" class="st1" width="7" height="7"/>
	<rect x="17" y="46" class="st1" width="7" height="7"/>
	<rect x="17" y="53.3" class="st1" width="7" height="7"/>
	<rect x="17" y="75.1" class="st1" width="7" height="7"/>
	<rect x="17" y="82.3" class="st1" width="7" height="7"/>
	<rect x="24.3" y="38.8" class="st1" width="7" height="7"/>
	<rect x="24.3" y="46" class="st1" width="7" height="7"/>
	<rect x="24.3" y="53.3" class="st1" width="7" height="7"/>
	<rect x="24.3" y="60.6" class="st1" width="7" height="7"/>
	<rect x="24.3" y="82.3" class="st1" width="7" height="7"/>
	<rect x="24.3" y="89.6" class="st1" width="7" height="7"/>
	<rect x="31.5" y="38.8" class="st1" width="7" height="7"/>
	<rect x="31.5" y="46" class="st1" width="7" height="7"/>
	<rect x="31.5" y="53.3" class="st1" width="7" height="7"/>
	<rect x="31.5" y="60.6" class="st1" width="7" height="7"/>
	<rect x="31.5" y="82.3" class="st1" width="7" height="7"/>
	<rect x="31.5" y="89.6" class="st1" width="7" height="7"/>
	<rect x="38.8" y="38.8" class="st1" width="7" height="7"/>
	<rect x="38.8" y="46" class="st1" width="7" height="7"/>
	<rect x="38.8" y="53.3" class="st1" width="7" height="7"/>
	<rect x="38.8" y="60.6" class="st1" width="7" height="7"/>
	<rect x="38.8" y="82.3" class="st1" width="7" height="7"/>
	<rect x="38.8" y="89.6" class="st1" width="7" height="7"/>
	<rect x="46" y="38.8" class="st1" width="7" height="7"/>
	<rect x="46" y="46" class="st1" width="7" height="7"/>
	<rect x="46" y="53.3" class="st1" width="7" height="7"/>
	<rect x="46" y="60.6" class="st1" width="7" height="7"/>
	<rect x="46" y="82.3" class="st1" width="7" height="7"/>
	<rect x="46" y="89.6" class="st1" width="7" height="7"/>
	<rect x="53.3" y="17" class="st1" width="7" height="7"/>
	<rect x="53.3" y="31.5" class="st1" width="7" height="7"/>
	<rect x="60.6" y="9.7" class="st1" width="7" height="7"/>
	<rect x="60.6" y="24.2" class="st1" width="7" height="7"/>
	<rect x="60.6" y="31.5" class="st1" width="7" height="7"/>
	<rect x="67.8" y="17" class="st1" width="7" height="7"/>
	<rect x="67.8" y="31.5" class="st1" width="7" height="7"/>
	<rect x="75.1" y="17" class="st1" width="7" height="7"/>
	<rect x="75.1" y="24.2" class="st1" width="7" height="7"/>
	<rect x="75.1" y="31.5" class="st1" width="7" height="7"/>
	<rect x="82.3" y="2.5" class="st1" width="7" height="7"/>
	<rect x="82.3" y="9.7" class="st1" width="7" height="7"/>
	<rect x="82.3" y="17" class="st1" width="7" height="7"/>
	<rect x="53.3" y="38.8" class="st1" width="7" height="7"/>
	<rect x="53.3" y="46" class="st1" width="7" height="7"/>
	<rect x="53.3" y="53.3" class="st1" width="7" height="7"/>
	<rect x="53.3" y="60.6" class="st1" width="7" height="7"/>
	<rect x="53.3" y="82.3" class="st1" width="7" height="7"/>
	<rect x="53.3" y="89.6" class="st1" width="7" height="7"/>
	<rect x="60.6" y="38.8" class="st1" width="7" height="7"/>
	<rect x="60.6" y="46" class="st1" width="7" height="7"/>
	<rect x="60.6" y="53.3" class="st1" width="7" height="7"/>
	<rect x="60.6" y="60.6" class="st1" width="7" height="7"/>
	<rect x="60.6" y="82.3" class="st1" width="7" height="7"/>
	<rect x="60.6" y="89.6" class="st1" width="7" height="7"/>
	<rect x="67.8" y="38.8" class="st1" width="7" height="7"/>
	<rect x="67.8" y="46" class="st1" width="7" height="7"/>
	<rect x="67.8" y="53.3" class="st1" width="7" height="7"/>
	<rect x="67.8" y="75.1" class="st1" width="7" height="7"/>
	<rect x="67.8" y="82.3" class="st1" width="7" height="7"/>
	<rect x="75.1" y="38.8" class="st1" width="7" height="7"/>
	<rect x="75.1" y="46" class="st1" width="7" height="7"/>
	<rect x="75.1" y="53.3" class="st1" width="7" height="7"/>
	<rect x="75.1" y="60.6" class="st1" width="7" height="7"/>
	<rect x="75.1" y="67.8" class="st1" width="7" height="7"/>
	<rect x="75.1" y="75.1" class="st1" width="7" height="7"/>
	<rect x="75.1" y="82.3" class="st1" width="7" height="7"/>
	<rect x="75.1" y="89.6" class="st1" width="7" height="7"/>
	<rect x="82.3" y="60.6" class="st1" width="7" height="7"/>
	<rect x="82.3" y="67.8" class="st1" width="7" height="7"/>
	<rect x="82.3" y="75.1" class="st1" width="7" height="7"/>
	<rect x="82.3" y="82.3" class="st1" width="7" height="7"/>
	<rect x="2.5" y="96.8" class="st1" width="7" height="7"/>
	<rect x="9.7" y="96.8" class="st1" width="7" height="7"/>
	<rect x="17" y="96.8" class="st1" width="7" height="7"/>
	<rect x="24.3" y="96.8" class="st1" width="7" height="7"/>
	<rect x="31.5" y="96.8" class="st1" width="7" height="7"/>
	<rect x="38.8" y="96.8" class="st1" width="7" height="7"/>
	<rect x="46" y="96.8" class="st1" width="7" height="7"/>
	<rect x="53.3" y="96.8" class="st1" width="7" height="7"/>
	<rect x="60.6" y="96.8" class="st1" width="7" height="7"/>
	<rect x="67.8" y="96.8" class="st1" width="7" height="7"/>
	<rect x="75.1" y="96.8" class="st1" width="7" height="7"/>
	<rect x="82.3" y="96.8" class="st1" width="7" height="7"/>
</g>
</svg>
