<?xml version="1.0" encoding="utf-8"?>
<!-- Generator: Adobe Illustrator 27.3.1, SVG Export Plug-In . SVG Version: 6.00 Build 0)  -->
<svg version="1.1" xmlns="http://www.w3.org/2000/svg" xmlns:xlink="http://www.w3.org/1999/xlink" x="0px" y="0px"
	 viewBox="0 0 91.8 142.6" style="enable-background:new 0 0 91.8 142.6;" xml:space="preserve">
<style type="text/css">
	.st0{fill:#FCE19B;}
	.st1{fill:#1E0E01;}
</style>
<g id="Слой_2">
	<path class="st0" d="M84.6,19.2h4.7c1.4,0,2.5-1.1,2.5-2.5v-7c0-1.4-1.1-2.5-2.5-2.5h-7c0,0-0.1,0-0.1,0c0,0-0.1,0-0.1,0h-7
		c-0.1,0-0.1,0-0.2,0c0,0-0.1,0-0.1,0h-7c-1.4,0-2.5,1.1-2.5,2.5v7c0,0.1,0,0.1,0,0.1c0,0,0,0.1,0,0.1v4.8h-2.5V17
		c0-1.4-1.1-2.5-2.5-2.5h-7c-1.4,0-2.5,1.1-2.5,2.5v4.8h-2.5V17c0-1.4-1.1-2.5-2.5-2.5h-7c-1.4,0-2.5,1.1-2.5,2.5v4.8h-2.5V17
		c0-1.4-1.1-2.5-2.5-2.5h-7c-0.1,0-0.1,0-0.2,0c-0.1,0-0.1,0-0.2,0h-4.7V12h4.7c1.4,0,2.5-1.1,2.5-2.5v-7c0-1.4-1.1-2.5-2.5-2.5h-7
		c0,0-0.1,0-0.1,0c0,0-0.1,0-0.1,0h-7c0,0-0.1,0-0.1,0c0,0-0.1,0-0.1,0h-7C1.1,0,0,1.1,0,2.5v7C0,10.9,1.1,12,2.5,12h4.7v4.7
		c0,0.1,0,0.1,0,0.1c0,0,0,0.1,0,0.1v7c0,0.1,0,0.1,0,0.2c0,0,0,0.1,0,0.1v7c0,0,0,0.1,0,0.1c0,0,0,0.1,0,0.1v7c0,0.1,0,0.1,0,0.1
		c0,0,0,0.1,0,0.2v4.8H2.5c-1.4,0-2.5,1.1-2.5,2.5v7c0,0,0,0.1,0,0.1c0,0,0,0.1,0,0.1v7c0,0.1,0,0.1,0,0.2c0,0,0,0.1,0,0.2v7
		c0,0,0,0.1,0,0.1c0,0,0,0.1,0,0.1v7c0,1.4,1.1,2.5,2.5,2.5h4.7v2.5H2.5c-1.4,0-2.5,1.1-2.5,2.5v7c0,1.4,1.1,2.5,2.5,2.5h7
		c0.1,0,0.1,0,0.2,0h7c0.1,0,0.1,0,0.1,0c0,0,0.1,0,0.1,0h7c0.1,0,0.1,0,0.1,0c0,0,0.1,0,0.1,0h7c0.1,0,0.1,0,0.2,0h7
		c0.1,0,0.1,0,0.1,0c0,0,0.1,0,0.1,0h7c0.1,0,0.1,0,0.2,0h7c0.1,0,0.1,0,0.1,0c0,0,0.1,0,0.2,0h7c0.1,0,0.1,0,0.1,0c0,0,0.1,0,0.2,0
		h7c0.1,0,0.1,0,0.2,0h7c0.1,0,0.1,0,0.1,0c0,0,0.1,0,0.2,0h7c0.1,0,0.1,0,0.2,0h7c1.4,0,2.5-1.1,2.5-2.5v-7c0-1.4-1.1-2.5-2.5-2.5
		h-4.7v-2.5h4.7c1.4,0,2.5-1.1,2.5-2.5v-7c0,0,0-0.1,0-0.1c0,0,0-0.1,0-0.1v-7c0-0.1,0-0.1,0-0.2c0,0,0-0.1,0-0.2v-7
		c0,0,0-0.1,0-0.1c0,0,0-0.1,0-0.1v-7c0-1.4-1.1-2.5-2.5-2.5h-4.7v-4.8c0-0.1,0-0.1,0-0.2c0,0,0-0.1,0-0.1v-7c0,0,0-0.1,0-0.1
		c0,0,0-0.1,0-0.1v-7c0-0.1,0-0.1,0-0.1c0,0,0-0.1,0-0.2V19.2z"/>
</g>
<g id="Слой_1">
	<path class="st1" d="M2.5,2.5h7v7h-7V2.5z M9.7,2.5h7v7h-7V2.5z M9.7,9.7h7v7h-7V9.7z M9.7,17h7v7h-7V17z M16.9,17h7v7h-7V17z
		 M16.9,2.5h7v7h-7V2.5z M24.3,17h7v7h-7V17z M38.8,17h7v7h-7V17z M2.5,46.1h7v7h-7V46.1z M2.5,53.3h7v7h-7V53.3z M2.5,60.6h7v7h-7
		V60.6z M2.5,67.8h7v7h-7V67.8z M9.7,24.3h7v7h-7V24.3z M9.7,31.5h7v7h-7V31.5z M9.7,38.8h7v7h-7V38.8z M9.7,46.1h7v7h-7V46.1z
		 M9.7,53.3h7v7h-7V53.3z M9.7,60.6h7v7h-7V60.6z M9.7,67.8h7v7h-7V67.8z M9.7,75.1h7v7h-7V75.1z M17,24.3h7v7h-7V24.3z M17,31.5h7
		v7h-7V31.5z M17,38.8h7v7h-7V38.8z M17,60.6h7v7h-7V60.6z M17,67.8h7v7h-7V67.8z M24.3,31.5h7v7h-7V31.5z M24.3,38.8h7v7h-7V38.8z
		 M24.3,46.1h7v7h-7V46.1z M24.3,67.8h7v7h-7V67.8z M24.3,75.1h7v7h-7V75.1z M31.5,24.3h7v7h-7V24.3z M31.5,31.5h7v7h-7V31.5z
		 M31.5,38.8h7v7h-7V38.8z M31.5,46.1h7v7h-7V46.1z M31.5,67.8h7v7h-7V67.8z M31.5,75.1h7v7h-7V75.1z M38.8,38.8h7v7h-7V38.8z
		 M38.8,46.1h7v7h-7V46.1z M38.8,67.8h7v7h-7V67.8z M38.8,75.1h7v7h-7V75.1z M46,24.3h7v7h-7V24.3z M46,31.5h7v7h-7V31.5z M46,38.8
		h7v7h-7V38.8z M46,46.1h7v7h-7V46.1z M46,67.8h7v7h-7V67.8z M46,75.1h7v7h-7V75.1z M53.3,17h7v7h-7V17z M67.8,9.7h7v7h-7V9.7z
		 M67.8,17h7v7h-7V17z M75.1,9.7h7v7h-7V9.7z M75.1,17h7v7h-7V17z M82.3,9.7h7v7h-7V9.7z M53.3,31.5h7v7h-7V31.5z M53.3,38.8h7v7h-7
		V38.8z M53.3,46.1h7v7h-7V46.1z M53.3,67.8h7v7h-7V67.8z M53.3,75.1h7v7h-7V75.1z M60.6,24.3h7v7h-7V24.3z M60.6,31.5h7v7h-7V31.5z
		 M60.6,38.8h7v7h-7V38.8z M60.6,46.1h7v7h-7V46.1z M60.6,67.8h7v7h-7V67.8z M60.6,75.1h7v7h-7V75.1z M67.8,24.3h7v7h-7V24.3z
		 M67.8,31.5h7v7h-7V31.5z M67.8,38.8h7v7h-7V38.8z M67.8,60.6h7v7h-7V60.6z M67.8,67.8h7v7h-7V67.8z M75.1,24.3h7v7h-7V24.3z
		 M75.1,31.5h7v7h-7V31.5z M75.1,38.8h7v7h-7V38.8z M75.1,46.1h7v7h-7V46.1z M75.1,53.3h7v7h-7V53.3z M75.1,60.6h7v7h-7V60.6z
		 M75.1,67.8h7v7h-7V67.8z M75.1,75.1h7v7h-7V75.1z M82.3,46.1h7v7h-7V46.1z M82.3,53.3h7v7h-7V53.3z M82.3,60.6h7v7h-7V60.6z
		 M82.3,67.8h7v7h-7V67.8z M2.5,82.3h7v7h-7V82.3z M9.7,82.3h7v7h-7V82.3z M17,82.3h7v7h-7V82.3z M24.3,82.3h7v7h-7V82.3z
		 M31.5,82.3h7v7h-7V82.3z M38.8,82.3h7v7h-7V82.3z M46,82.3h7v7h-7V82.3z M53.3,82.3h7v7h-7V82.3z M60.6,82.3h7v7h-7V82.3z
		 M67.8,82.3h7v7h-7V82.3z M75.1,82.3h7v7h-7V82.3z M82.3,82.3h7v7h-7V82.3z"/>
</g>
</svg>
