<?xml version="1.0" encoding="utf-8"?>
<!-- Generator: Adobe Illustrator 27.3.1, SVG Export Plug-In . SVG Version: 6.00 Build 0)  -->
<svg version="1.1" id="Слой_1" xmlns="http://www.w3.org/2000/svg" xmlns:xlink="http://www.w3.org/1999/xlink" x="0px" y="0px"
	 viewBox="0 0 91.8 142.6" style="enable-background:new 0 0 91.8 142.6;" xml:space="preserve">
<style type="text/css">
	.st0{fill:#FCE19B;}
	.st1{fill:#1E0E01;}
</style>
<g id="Слой_2_00000145763003567225822060000015255503664123466129_">
	<path class="st0" d="M91.8,31.5c0-1.4-1.1-2.5-2.5-2.5h-4.7v-4.7c0-0.1,0-0.1,0-0.2V24v-7c0-1.4-1.1-2.5-2.5-2.5h-4.8V9.7
		c0-1.4-1.1-2.5-2.5-2.5h-4.7V2.5C70.1,1.1,69,0,67.6,0h-7c-0.1,0-0.1,0-0.1,0s-0.1,0-0.2,0h-7c-0.1,0-0.1,0-0.1,0S53.1,0,53,0h-7
		h-0.1h-0.1h-7c-0.1,0-0.1,0-0.2,0h-0.1h-7h-0.1h-0.1h-7c-1.4,0-2.5,1.1-2.5,2.5v4.7H17c-1.4,0-2.5,1.1-2.5,2.5v4.8H9.7
		c-1.4,0-2.5,1.1-2.5,2.5v7c0,0.1,0,0.1,0,0.1s0,0.1,0,0.2V29H2.5C1.1,29,0,30.1,0,31.5v7c0,0.1,0,0.1,0,0.1s0,0.1,0,0.2v7v0.1V46v7
		c0,0.1,0,0.1,0,0.1s0,0.1,0,0.2v7c0,1.4,1.1,2.5,2.5,2.5h4.7v4.7c0,0.1,0,0.1,0,0.1v0.1v7c0,0.1,0,0.1,0,0.1s0,0.1,0,0.2v7v0.1v0.1
		v7c0,0.1,0,0.1,0,0.1s0,0.1,0,0.2v4.8H2.5c-1.4,0-2.5,1.1-2.5,2.5v7v0.1v0.1v7c0,0.1,0,0.1,0,0.1s0,0.1,0,0.2v7v0.1v0.1v7
		c0,1.4,1.1,2.5,2.5,2.5h4.7v2.5H2.5c-1.4,0-2.5,1.1-2.5,2.5v7c0,1.4,1.1,2.5,2.5,2.5h7c0.1,0,0.1,0,0.2,0h7c0.1,0,0.1,0,0.1,0h0.1
		h7c0.1,0,0.1,0,0.1,0s0.1,0,0.2,0h7c0.1,0,0.1,0,0.2,0h7c0.1,0,0.1,0,0.1,0s0.1,0,0.2,0h7c0.1,0,0.1,0,0.2,0h7c0.1,0,0.1,0,0.2,0
		h0.1h7c0.1,0,0.1,0,0.2,0h0.1h7c0.1,0,0.1,0,0.2,0h7c0.1,0,0.1,0,0.2,0H75h7c0.1,0,0.1,0,0.2,0h7c1.4,0,2.5-1.1,2.5-2.5v-7
		c0-1.4-1.1-2.5-2.5-2.5h-4.7V128h4.7c1.4,0,2.5-1.1,2.5-2.5v-7v-0.1v-0.1v-7c0-0.1,0-0.1,0-0.2V111v-7v-0.1v-0.1v-7
		c0-1.4-1.1-2.5-2.5-2.5h-4.7v-4.8c0-0.1,0-0.1,0-0.2v-0.1v-7v-0.1V82v-7c0-0.1,0-0.1,0-0.2v-0.1v-7c0-0.1,0-0.1,0-0.1v-0.1v-4.7
		h4.7c1.4,0,2.5-1.1,2.5-2.5v-7c0-0.1,0-0.1,0-0.2V53v-7v-0.1v-0.1v-7c0-0.1,0-0.1,0-0.2v-0.1v-7C91.7,31.5,91.8,31.5,91.8,31.5z"/>
</g>
<rect x="2.5" y="31.5" class="st1" width="7" height="7"/>
<rect x="2.5" y="38.8" class="st1" width="7" height="7"/>
<rect x="2.5" y="46" class="st1" width="7" height="7"/>
<rect x="2.5" y="53.3" class="st1" width="7" height="7"/>
<rect x="9.7" y="17" class="st1" width="7" height="7"/>
<rect x="9.7" y="24.3" class="st1" width="7" height="7"/>
<rect x="9.7" y="31.5" class="st1" width="7" height="7"/>
<rect x="9.7" y="38.8" class="st1" width="7" height="7"/>
<rect x="9.7" y="46" class="st1" width="7" height="7"/>
<rect x="9.7" y="53.3" class="st1" width="7" height="7"/>
<rect x="9.7" y="60.5" class="st1" width="7" height="7"/>
<rect x="9.7" y="67.8" class="st1" width="7" height="7"/>
<rect x="17" y="9.7" class="st1" width="7" height="7"/>
<rect x="17" y="24.3" class="st1" width="7" height="7"/>
<rect x="17" y="31.5" class="st1" width="7" height="7"/>
<rect x="17" y="38.8" class="st1" width="7" height="7"/>
<rect x="17" y="46" class="st1" width="7" height="7"/>
<rect x="17" y="67.8" class="st1" width="7" height="7"/>
<rect x="24.3" y="2.5" class="st1" width="7" height="7"/>
<rect x="24.3" y="17" class="st1" width="7" height="7"/>
<rect x="24.3" y="24.3" class="st1" width="7" height="7"/>
<rect x="24.3" y="31.5" class="st1" width="7" height="7"/>
<rect x="24.3" y="38.8" class="st1" width="7" height="7"/>
<rect x="24.3" y="60.5" class="st1" width="7" height="7"/>
<rect x="24.3" y="67.8" class="st1" width="7" height="7"/>
<rect x="31.5" y="2.5" class="st1" width="7" height="7"/>
<rect x="31.5" y="9.7" class="st1" width="7" height="7"/>
<rect x="31.5" y="17" class="st1" width="7" height="7"/>
<rect x="31.5" y="24.3" class="st1" width="7" height="7"/>
<rect x="31.5" y="31.5" class="st1" width="7" height="7"/>
<rect x="31.5" y="38.8" class="st1" width="7" height="7"/>
<rect x="31.5" y="60.5" class="st1" width="7" height="7"/>
<rect x="31.5" y="67.8" class="st1" width="7" height="7"/>
<rect x="38.8" y="2.5" class="st1" width="7" height="7"/>
<rect x="38.8" y="9.7" class="st1" width="7" height="7"/>
<rect x="38.8" y="17" class="st1" width="7" height="7"/>
<rect x="38.8" y="24.3" class="st1" width="7" height="7"/>
<rect x="38.8" y="31.5" class="st1" width="7" height="7"/>
<rect x="38.8" y="38.8" class="st1" width="7" height="7"/>
<rect x="38.8" y="60.5" class="st1" width="7" height="7"/>
<rect x="38.8" y="67.8" class="st1" width="7" height="7"/>
<rect x="46" y="2.5" class="st1" width="7" height="7"/>
<rect x="46" y="9.7" class="st1" width="7" height="7"/>
<rect x="46" y="17" class="st1" width="7" height="7"/>
<rect x="46" y="24.3" class="st1" width="7" height="7"/>
<rect x="46" y="31.5" class="st1" width="7" height="7"/>
<rect x="46" y="38.8" class="st1" width="7" height="7"/>
<rect x="46" y="60.5" class="st1" width="7" height="7"/>
<rect x="46" y="67.8" class="st1" width="7" height="7"/>
<rect x="2.5" y="96.9" class="st1" width="7" height="7"/>
<rect x="2.5" y="104.1" class="st1" width="7" height="7"/>
<rect x="2.5" y="111.4" class="st1" width="7" height="7"/>
<rect x="2.5" y="118.6" class="st1" width="7" height="7"/>
<rect x="9.7" y="75.1" class="st1" width="7" height="7"/>
<rect x="9.7" y="82.3" class="st1" width="7" height="7"/>
<rect x="9.7" y="89.6" class="st1" width="7" height="7"/>
<rect x="9.7" y="96.9" class="st1" width="7" height="7"/>
<rect x="9.7" y="104.1" class="st1" width="7" height="7"/>
<rect x="9.7" y="111.4" class="st1" width="7" height="7"/>
<rect x="9.7" y="118.6" class="st1" width="7" height="7"/>
<rect x="9.7" y="125.9" class="st1" width="7" height="7"/>
<rect x="17" y="75.1" class="st1" width="7" height="7"/>
<rect x="17" y="82.3" class="st1" width="7" height="7"/>
<rect x="17" y="89.6" class="st1" width="7" height="7"/>
<rect x="17" y="111.4" class="st1" width="7" height="7"/>
<rect x="17" y="118.6" class="st1" width="7" height="7"/>
<rect x="24.3" y="75.1" class="st1" width="7" height="7"/>
<rect x="24.3" y="82.3" class="st1" width="7" height="7"/>
<rect x="24.3" y="89.6" class="st1" width="7" height="7"/>
<rect x="24.3" y="96.9" class="st1" width="7" height="7"/>
<rect x="24.3" y="118.6" class="st1" width="7" height="7"/>
<rect x="31.5" y="75.1" class="st1" width="7" height="7"/>
<rect x="31.5" y="82.3" class="st1" width="7" height="7"/>
<rect x="31.5" y="89.6" class="st1" width="7" height="7"/>
<rect x="31.5" y="96.9" class="st1" width="7" height="7"/>
<rect x="31.5" y="118.6" class="st1" width="7" height="7"/>
<rect x="38.8" y="75.1" class="st1" width="7" height="7"/>
<rect x="38.8" y="82.3" class="st1" width="7" height="7"/>
<rect x="38.8" y="89.6" class="st1" width="7" height="7"/>
<rect x="38.8" y="96.9" class="st1" width="7" height="7"/>
<rect x="38.8" y="118.6" class="st1" width="7" height="7"/>
<rect x="46" y="75.1" class="st1" width="7" height="7"/>
<rect x="46" y="82.3" class="st1" width="7" height="7"/>
<rect x="46" y="89.6" class="st1" width="7" height="7"/>
<rect x="46" y="96.9" class="st1" width="7" height="7"/>
<rect x="46" y="118.6" class="st1" width="7" height="7"/>
<rect x="46" y="125.9" class="st1" width="7" height="7"/>
<rect x="53.3" y="2.5" class="st1" width="7" height="7"/>
<rect x="53.3" y="9.7" class="st1" width="7" height="7"/>
<rect x="53.3" y="17" class="st1" width="7" height="7"/>
<rect x="53.3" y="24.3" class="st1" width="7" height="7"/>
<rect x="53.3" y="31.5" class="st1" width="7" height="7"/>
<rect x="53.3" y="38.8" class="st1" width="7" height="7"/>
<rect x="53.3" y="60.5" class="st1" width="7" height="7"/>
<rect x="53.3" y="67.8" class="st1" width="7" height="7"/>
<rect x="60.6" y="2.5" class="st1" width="7" height="7"/>
<rect x="60.6" y="17" class="st1" width="7" height="7"/>
<rect x="60.6" y="24.3" class="st1" width="7" height="7"/>
<rect x="60.6" y="31.5" class="st1" width="7" height="7"/>
<rect x="60.6" y="38.8" class="st1" width="7" height="7"/>
<rect x="60.6" y="60.5" class="st1" width="7" height="7"/>
<rect x="60.6" y="67.8" class="st1" width="7" height="7"/>
<rect x="67.8" y="9.7" class="st1" width="7" height="7"/>
<rect x="67.8" y="24.3" class="st1" width="7" height="7"/>
<rect x="67.8" y="31.5" class="st1" width="7" height="7"/>
<rect x="67.8" y="38.8" class="st1" width="7" height="7"/>
<rect x="67.8" y="46" class="st1" width="7" height="7"/>
<rect x="67.8" y="67.8" class="st1" width="7" height="7"/>
<rect x="75.1" y="17" class="st1" width="7" height="7"/>
<rect x="75.1" y="24.3" class="st1" width="7" height="7"/>
<rect x="75.1" y="31.5" class="st1" width="7" height="7"/>
<rect x="75.1" y="38.8" class="st1" width="7" height="7"/>
<rect x="75.1" y="46" class="st1" width="7" height="7"/>
<rect x="75.1" y="53.3" class="st1" width="7" height="7"/>
<rect x="75.1" y="60.5" class="st1" width="7" height="7"/>
<rect x="75.1" y="67.8" class="st1" width="7" height="7"/>
<rect x="82.3" y="31.5" class="st1" width="7" height="7"/>
<rect x="82.3" y="38.8" class="st1" width="7" height="7"/>
<rect x="82.3" y="46" class="st1" width="7" height="7"/>
<rect x="82.3" y="53.3" class="st1" width="7" height="7"/>
<rect x="53.3" y="75.1" class="st1" width="7" height="7"/>
<rect x="53.3" y="82.3" class="st1" width="7" height="7"/>
<rect x="53.3" y="89.6" class="st1" width="7" height="7"/>
<rect x="53.3" y="96.9" class="st1" width="7" height="7"/>
<rect x="53.3" y="118.6" class="st1" width="7" height="7"/>
<rect x="60.6" y="75.1" class="st1" width="7" height="7"/>
<rect x="60.6" y="82.3" class="st1" width="7" height="7"/>
<rect x="60.6" y="89.6" class="st1" width="7" height="7"/>
<rect x="60.6" y="96.9" class="st1" width="7" height="7"/>
<rect x="60.6" y="118.6" class="st1" width="7" height="7"/>
<rect x="67.8" y="75.1" class="st1" width="7" height="7"/>
<rect x="67.8" y="82.3" class="st1" width="7" height="7"/>
<rect x="67.8" y="89.6" class="st1" width="7" height="7"/>
<rect x="67.8" y="111.4" class="st1" width="7" height="7"/>
<rect x="67.8" y="118.6" class="st1" width="7" height="7"/>
<rect x="75.1" y="75.1" class="st1" width="7" height="7"/>
<rect x="75.1" y="82.3" class="st1" width="7" height="7"/>
<rect x="75.1" y="89.6" class="st1" width="7" height="7"/>
<rect x="75.1" y="96.9" class="st1" width="7" height="7"/>
<rect x="75.1" y="104.1" class="st1" width="7" height="7"/>
<rect x="75.1" y="111.4" class="st1" width="7" height="7"/>
<rect x="75.1" y="118.6" class="st1" width="7" height="7"/>
<rect x="75.1" y="125.9" class="st1" width="7" height="7"/>
<rect x="82.3" y="96.9" class="st1" width="7" height="7"/>
<rect x="82.3" y="104.1" class="st1" width="7" height="7"/>
<rect x="82.3" y="111.4" class="st1" width="7" height="7"/>
<rect x="82.3" y="118.6" class="st1" width="7" height="7"/>
<rect x="2.5" y="133.1" class="st1" width="7" height="7"/>
<rect x="9.7" y="133.1" class="st1" width="7" height="7"/>
<rect x="17" y="125.9" class="st1" width="7" height="7"/>
<rect x="67.8" y="125.9" class="st1" width="7" height="7"/>
<rect x="75.1" y="133.1" class="st1" width="7" height="7"/>
<rect x="82.3" y="133.1" class="st1" width="7" height="7"/>
</svg>
