<?xml version="1.0" encoding="utf-8"?>
<!-- Generator: Adobe Illustrator 27.3.1, SVG Export Plug-In . SVG Version: 6.00 Build 0)  -->
<svg version="1.1" xmlns="http://www.w3.org/2000/svg" xmlns:xlink="http://www.w3.org/1999/xlink" x="0px" y="0px"
	 viewBox="0 0 91.8 142.6" style="enable-background:new 0 0 91.8 142.6;" xml:space="preserve">
<style type="text/css">
	.st0{fill:#FCE19B;}
	.st1{fill:#1E0E01;}
</style>
<g id="Слой_2">
	<path class="st0" d="M91.8,17c0-1.4-1.1-2.5-2.5-2.5h-4.7V9.8c0-0.1,0-0.1,0-0.1c0,0,0-0.1,0-0.1v-7c0-1.4-1.1-2.5-2.5-2.5h-7
		C75,0,75,0,75,0c0,0-0.1,0-0.2,0h-7c-0.1,0-0.1,0-0.2,0c0,0-0.1,0-0.1,0h-7C59.1,0,58,1.1,58,2.5v4.8h-4.7c-0.1,0-0.1,0-0.2,0
		c0,0-0.1,0-0.1,0h-7c0,0-0.1,0-0.1,0c0,0-0.1,0-0.1,0h-7c-0.1,0-0.1,0-0.1,0c0,0-0.1,0-0.1,0h-4.8V2.5c0-1.4-1.1-2.5-2.5-2.5h-7
		c0,0-0.1,0-0.1,0c0,0-0.1,0-0.1,0h-7c-0.1,0-0.1,0-0.1,0c0,0-0.1,0-0.1,0h-7C8.3,0,7.2,1.1,7.2,2.5v7c0,0.1,0,0.1,0,0.1
		c0,0,0,0.1,0,0.1v4.7H2.5C1.1,14.5,0,15.6,0,17v7c0,0.1,0,0.1,0,0.1c0,0,0,0.1,0,0.1v7c0,0,0,0.1,0,0.1c0,0,0,0.1,0,0.1v7
		c0,0.1,0,0.1,0,0.1c0,0,0,0.1,0,0.1v7c0,1.4,1.1,2.5,2.5,2.5h4.7V53c0,0.1,0,0.1,0,0.1c0,0,0,0.1,0,0.1v7c0,0.1,0,0.1,0,0.1
		c0,0,0,0.1,0,0.2v7c0,0,0,0.1,0,0.1c0,0,0,0.1,0,0.1v7c0,0.1,0,0.1,0,0.1c0,0,0,0.1,0,0.2v4.8H2.5C1.1,79.9,0,81,0,82.4v7
		c0,0,0,0.1,0,0.1c0,0,0,0.1,0,0.1v7c0,0.1,0,0.1,0,0.2c0,0,0,0.1,0,0.2v7c0,0,0,0.1,0,0.1c0,0,0,0.1,0,0.1v7c0,1.4,1.1,2.5,2.5,2.5
		h4.7v2.5H2.5c-1.4,0-2.5,1.1-2.5,2.5v7c0,1.4,1.1,2.5,2.5,2.5h7c0.1,0,0.1,0,0.2,0h7c0.1,0,0.1,0,0.1,0c0,0,0.1,0,0.1,0h7
		c0.1,0,0.1,0,0.1,0c0,0,0.1,0,0.1,0h7c0.1,0,0.1,0,0.2,0h7c0.1,0,0.1,0,0.1,0c0,0,0.1,0,0.1,0h7c0.1,0,0.1,0,0.2,0h7
		c0.1,0,0.1,0,0.1,0c0,0,0.1,0,0.2,0h7c0.1,0,0.1,0,0.2,0c0,0,0.1,0,0.1,0h7c0.1,0,0.1,0,0.2,0h7c0.1,0,0.1,0,0.2,0c0,0,0.1,0,0.1,0
		h7c0.1,0,0.1,0,0.2,0h7c1.4,0,2.5-1.1,2.5-2.5v-7c0-1.4-1.1-2.5-2.5-2.5h-4.7v-2.5h4.7c1.4,0,2.5-1.1,2.5-2.5v-7c0,0,0-0.1,0-0.1
		c0,0,0-0.1,0-0.1v-7c0-0.1,0-0.1,0-0.2c0,0,0-0.1,0-0.2v-7c0,0,0-0.1,0-0.1c0,0,0-0.1,0-0.1v-7c0-1.4-1.1-2.5-2.5-2.5h-4.7v-4.8
		c0-0.1,0-0.1,0-0.2c0,0,0-0.1,0-0.1v-7c0,0,0-0.1,0-0.1c0,0,0-0.1,0-0.1v-7c0-0.1,0-0.1,0-0.2c0,0,0-0.1,0-0.1v-7
		c0-0.1,0-0.1,0-0.1c0,0,0-0.1,0-0.1v-4.7h4.7c1.4,0,2.5-1.1,2.5-2.5v-7c0-0.1,0-0.1,0-0.1c0,0,0-0.1,0-0.1v-7c0,0,0-0.1,0-0.1
		c0,0,0-0.1,0-0.1v-7c0-0.1,0-0.1,0-0.1c0,0,0-0.1,0-0.1V17z"/>
</g>
<g id="Слой_1">
	<path class="st1" d="M2.5,17h7v7h-7V17z M2.5,24.3h7v7h-7V24.3z M2.5,31.5h7v7h-7V31.5z M2.5,38.8h7v7h-7V38.8z M9.7,2.5h7v7h-7
		C9.7,9.5,9.7,2.5,9.7,2.5z M9.7,9.8h7v7h-7C9.7,16.8,9.7,9.8,9.7,9.8z M9.7,17h7v7h-7C9.7,24,9.7,17,9.7,17z M9.7,24.3h7v7h-7
		C9.7,31.3,9.7,24.3,9.7,24.3z M9.7,31.5h7v7h-7C9.7,38.5,9.7,31.5,9.7,31.5z M9.7,38.8h7v7h-7C9.7,45.8,9.7,38.8,9.7,38.8z M9.7,46
		h7v7h-7C9.7,53,9.7,46,9.7,46z M9.7,53.3h7v7h-7C9.7,60.3,9.7,53.3,9.7,53.3z M17,2.5h7v7h-7V2.5z M17,17h7v7h-7V17z M17,24.3h7v7
		h-7V24.3z M17,31.5h7v7h-7V31.5z M17,53.3h7v7h-7V53.3z M24.2,2.5h7v7h-7V2.5z M24.3,17h7v7h-7V17z M24.3,24.3h7v7h-7V24.3z
		 M24.3,46h7v7h-7V46z M24.3,53.3h7v7h-7V53.3z M31.5,9.8h7v7h-7V9.8z M31.5,17h7v7h-7V17z M31.5,24.3h7v7h-7V24.3z M31.5,46h7v7h-7
		V46z M31.5,53.3h7v7h-7V53.3z M38.8,9.8h7v7h-7V9.8z M38.8,17h7v7h-7V17z M38.8,24.3h7v7h-7V24.3z M38.8,46h7v7h-7V46z M38.8,53.3
		h7v7h-7V53.3z M46,9.8h7v7h-7V9.8z M46,17h7v7h-7V17z M46,24.3h7v7h-7V24.3z M46,46h7v7h-7V46z M46,53.3h7v7h-7V53.3z M2.5,82.4h7
		v7h-7V82.4z M2.5,89.6h7v7h-7V89.6z M2.5,96.9h7v7h-7V96.9z M2.5,104.1h7v7h-7V104.1z M9.7,60.6h7v7h-7C9.7,67.6,9.7,60.6,9.7,60.6
		z M9.7,67.8h7v7h-7C9.7,74.8,9.7,67.8,9.7,67.8z M9.7,75.1h7v7h-7C9.7,82.1,9.7,75.1,9.7,75.1z M9.7,82.4h7v7h-7
		C9.7,89.4,9.7,82.4,9.7,82.4z M9.7,89.6h7v7h-7C9.7,96.6,9.7,89.6,9.7,89.6z M9.7,96.9h7v7h-7C9.7,103.9,9.7,96.9,9.7,96.9z
		 M9.7,104.1h7v7h-7C9.7,111.1,9.7,104.1,9.7,104.1z M9.7,111.4h7v7h-7C9.7,118.4,9.7,111.4,9.7,111.4z M17,60.6h7v7h-7V60.6z
		 M17,67.8h7v7h-7V67.8z M17,75.1h7v7h-7V75.1z M17,96.9h7v7h-7V96.9z M17,104.1h7v7h-7V104.1z M24.3,60.6h7v7h-7V60.6z M24.3,67.8
		h7v7h-7V67.8z M24.3,75.1h7v7h-7V75.1z M24.3,82.4h7v7h-7V82.4z M24.3,104.1h7v7h-7V104.1z M24.3,111.4h7v7h-7V111.4z M31.5,60.6h7
		v7h-7V60.6z M31.5,67.8h7v7h-7V67.8z M31.5,75.1h7v7h-7V75.1z M31.5,82.4h7v7h-7V82.4z M31.5,104.1h7v7h-7V104.1z M31.5,111.4h7v7
		h-7V111.4z M38.8,60.6h7v7h-7V60.6z M38.8,67.8h7v7h-7V67.8z M38.8,75.1h7v7h-7V75.1z M38.8,82.4h7v7h-7V82.4z M38.8,104.1h7v7h-7
		V104.1z M38.8,111.4h7v7h-7V111.4z M46,60.6h7v7h-7V60.6z M46,67.8h7v7h-7V67.8z M46,75.1h7v7h-7V75.1z M46,82.4h7v7h-7V82.4z
		 M46,104.1h7v7h-7V104.1z M46,111.4h7v7h-7V111.4z M53.3,9.8h7v7h-7V9.8z M53.3,17h7v7h-7V17z M53.3,24.3h7v7h-7V24.3z M53.3,46h7
		v7h-7V46z M53.3,53.3h7v7h-7V53.3z M60.5,2.5h7v7h-7V2.5z M60.6,17h7v7h-7V17z M60.6,24.3h7v7h-7V24.3z M60.6,46h7v7h-7V46z
		 M60.6,53.3h7v7h-7V53.3z M67.8,2.5h7v7h-7V2.5z M67.8,17h7v7h-7V17z M67.8,24.3h7v7h-7V24.3z M67.8,31.5h7v7h-7V31.5z M67.8,53.3
		h7v7h-7V53.3z M75.1,2.5h7v7h-7V2.5z M75.1,9.8h7v7h-7V9.8z M75.1,17h7v7h-7V17z M75.1,24.3h7v7h-7V24.3z M75.1,31.5h7v7h-7V31.5z
		 M75.1,38.8h7v7h-7V38.8z M75.1,46h7v7h-7V46z M75.1,53.3h7v7h-7V53.3z M82.3,17h7v7h-7V17z M82.3,24.3h7v7h-7V24.3z M82.3,31.5h7
		v7h-7V31.5z M82.3,38.8h7v7h-7V38.8z M53.3,60.6h7v7h-7V60.6z M53.3,67.8h7v7h-7V67.8z M53.3,75.1h7v7h-7V75.1z M53.3,82.4h7v7h-7
		V82.4z M53.3,104.1h7v7h-7V104.1z M53.3,111.4h7v7h-7V111.4z M60.6,60.6h7v7h-7V60.6z M60.6,67.8h7v7h-7V67.8z M60.6,75.1h7v7h-7
		V75.1z M60.6,82.4h7v7h-7V82.4z M60.6,104.1h7v7h-7V104.1z M60.6,111.4h7v7h-7V111.4z M67.8,60.6h7v7h-7V60.6z M67.8,67.8h7v7h-7
		V67.8z M67.8,75.1h7v7h-7V75.1z M67.8,96.9h7v7h-7V96.9z M67.8,104.1h7v7h-7V104.1z M75.1,60.6h7v7h-7V60.6z M75.1,67.8h7v7h-7
		V67.8z M75.1,75.1h7v7h-7V75.1z M75.1,82.4h7v7h-7V82.4z M75.1,89.6h7v7h-7V89.6z M75.1,96.9h7v7h-7V96.9z M75.1,104.1h7v7h-7
		V104.1z M75.1,111.4h7v7h-7V111.4z M82.3,82.4h7v7h-7V82.4z M82.3,89.6h7v7h-7V89.6z M82.3,96.9h7v7h-7V96.9z M82.3,104.1h7v7h-7
		V104.1z M2.5,118.6h7v7h-7V118.6z M9.7,118.6h7v7h-7C9.7,125.6,9.7,118.6,9.7,118.6z M17,118.6h7v7h-7V118.6z M24.3,118.6h7v7h-7
		V118.6z M31.5,118.6h7v7h-7V118.6z M38.8,118.6h7v7h-7V118.6z M46,118.6h7v7h-7V118.6z M53.3,118.6h7v7h-7V118.6z M60.6,118.6h7v7
		h-7V118.6z M67.8,118.6h7v7h-7V118.6z M75.1,118.6h7v7h-7V118.6z M82.3,118.6h7v7h-7V118.6z"/>
</g>
</svg>
