<?xml version="1.0" encoding="utf-8"?>
<!-- Generator: Adobe Illustrator 27.3.1, SVG Export Plug-In . SVG Version: 6.00 Build 0)  -->
<svg version="1.1" xmlns="http://www.w3.org/2000/svg" xmlns:xlink="http://www.w3.org/1999/xlink" x="0px" y="0px"
	 viewBox="0 0 210.3 471.7" style="enable-background:new 0 0 210.3 471.7;" xml:space="preserve">
<style type="text/css">
	.st0{fill:#FCE19B;}
	.st1{fill:#1E0E01;}
</style>
<g id="Слой_2">
	<path class="st0" d="M210.3,41.6h-7c-0.1,0-0.1,0-0.2,0c0,0-0.1,0-0.1,0h-5.3v-5.3c0-1.1-0.9-2-2-2h-5.2v-5.2c0-0.1,0-0.1,0-0.2
		c0,0,0-0.1,0-0.1v-7c0,0,0-0.1,0-0.1c0,0,0-0.1,0-0.1v-7c0-1.1-0.9-2-2-2h-5.3V7.3c0-1.1-0.9-2-2-2h-7c0,0-0.1,0-0.1,0
		c0,0-0.1,0-0.1,0h-7c-0.1,0-0.1,0-0.1,0c0,0-0.1,0-0.2,0h-7c-0.1,0-0.1,0-0.2,0c0,0-0.1,0-0.2,0h-5.2V0c0-1.1-0.9-2-2-2h-7
		c-0.1,0-0.1,0-0.2,0c0,0-0.1,0-0.2,0h-7c0,0-0.1,0-0.1,0c0,0-0.1,0-0.1,0h-7c-0.1,0-0.1,0-0.2,0c0,0-0.1,0-0.2,0h-7
		c-0.1,0-0.1,0-0.2,0c0,0-0.1,0-0.1,0h-7c0,0-0.1,0-0.1,0c0,0-0.1,0-0.1,0h-7c-0.1,0-0.1,0-0.2,0c0,0-0.1,0-0.1,0h-7
		c0,0-0.1,0-0.1,0c0,0-0.1,0-0.1,0h-7c-0.1,0-0.1,0-0.1,0c0,0-0.1,0-0.2,0h-7C87-2,87-2,87-2c0,0-0.1,0-0.1,0h-7c0,0-0.1,0-0.1,0
		c0,0-0.1,0-0.1,0h-7c-0.1,0-0.1,0-0.1,0c0,0-0.1,0-0.1,0h-7c0,0-0.1,0-0.1,0c0,0-0.1,0-0.1,0h-7c-1.1,0-2,0.9-2,2v5.3h-5.3
		c-0.1,0-0.1,0-0.1,0c0,0-0.1,0-0.2,0h-7c0,0-0.1,0-0.1,0c0,0-0.1,0-0.1,0h-7c-0.1,0-0.1,0-0.1,0c0,0-0.1,0-0.2,0h-7
		c-1.1,0-2,0.9-2,2v5.3h-5.2c-1.1,0-2,0.9-2,2v7c0,0,0,0.1,0,0.1c0,0,0,0.1,0,0.1v7c0,0.1,0,0.1,0,0.1c0,0,0,0.1,0,0.2v5.2h-5.3
		c-1.1,0-2,0.9-2,2v5.3H7.2c0,0-0.1,0-0.1,0c0,0-0.1,0-0.1,0H0c-1.1,0-2,0.9-2,2v7c0,1.1,0.9,2,2,2h7c0,0,0.1,0,0.1,0
		c0,0,0.1,0,0.1,0h7c0.1,0,0.1,0,0.1,0c0,0,0.1,0,0.1,0h5.3v5.3c0,0,0,0.1,0,0.1c0,0,0,0.1,0,0.1v7c0,0.1,0,0.1,0,0.1
		c0,0,0,0.1,0,0.1v7c0,0.1,0,0.1,0,0.2c0,0,0,0.1,0,0.1v5.2h-5.3c-1.1,0-2,0.9-2,2v7c0,0.1,0,0.1,0,0.2c0,0,0,0.1,0,0.1v7
		c0,0,0,0.1,0,0.1c0,0,0,0.1,0,0.1v7c0,0.1,0,0.1,0,0.2c0,0,0,0.1,0,0.1v7c0,0,0,0.1,0,0.1c0,0,0,0.1,0,0.1v7c0,0.1,0,0.1,0,0.2
		c0,0,0,0.1,0,0.1v7c0,0.1,0,0.1,0,0.1c0,0,0,0.1,0,0.1v7c0,0,0,0.1,0,0.1c0,0,0,0.1,0,0.1v7c0,0.1,0,0.1,0,0.1c0,0,0,0.1,0,0.1v7
		c0,1.1,0.9,2,2,2h5.3v5.3c0,0,0,0.1,0,0.1c0,0,0,0.1,0,0.1v7c0,1.1,0.9,2,2,2h7c0,0,0.1,0,0.1,0c0,0,0.1,0,0.1,0h7
		c0.1,0,0.1,0,0.2,0c0,0,0.1,0,0.1,0h7c0,0,0.1,0,0.1,0c0,0,0.1,0,0.1,0h7c0.1,0,0.1,0,0.2,0c0,0,0.1,0,0.1,0h7c0.1,0,0.1,0,0.1,0
		c0,0,0.1,0,0.1,0h5.2v3.5h-5.2c-0.1,0-0.1,0-0.1,0c0,0-0.1,0-0.1,0h-7c-0.1,0-0.1,0-0.1,0c0,0-0.1,0-0.2,0h-7c0,0-0.1,0-0.1,0
		c0,0-0.1,0-0.1,0h-7c-0.1,0-0.1,0-0.1,0c0,0-0.1,0-0.2,0h-7c-1.1,0-2,0.9-2,2v5.3h-5.2c-1.1,0-2,0.9-2,2v7c0,0,0,0.1,0,0.1
		c0,0,0,0.1,0,0.1v7c0,0.1,0,0.1,0,0.1c0,0,0,0.1,0,0.1v5.3h-5.3c-1.1,0-2,0.9-2,2v7c0,0,0,0.1,0,0.1c0,0,0,0.1,0,0.1v7
		c0,1.1,0.9,2,2,2h5.3v5.3c0,0.1,0,0.1,0,0.1c0,0,0,0.1,0,0.1v7c0,0,0,0.1,0,0.1c0,0,0,0.1,0,0.1v7c0,0.1,0,0.1,0,0.1
		c0,0,0,0.1,0,0.1v7c0,0,0,0.1,0,0.1c0,0,0,0.1,0,0.1v7c0,0.1,0,0.1,0,0.2c0,0,0,0.1,0,0.1v7c0,0,0,0.1,0,0.1c0,0,0,0.1,0,0.1v7
		c0,1.1,0.9,2,2,2H27v5.3c0,1.1,0.9,2,2,2h7c0.1,0,0.1,0,0.2,0c0,0,0.1,0,0.1,0h7c0,0,0.1,0,0.1,0c0,0,0.1,0,0.1,0h7
		c0.1,0,0.1,0,0.2,0c0,0,0.1,0,0.1,0h7c0.1,0,0.1,0,0.1,0c0,0,0.1,0,0.1,0h7c1.1,0,2-0.9,2-2v-5.3h3.5v5.3c0,0.1,0,0.1,0,0.2
		c0,0,0,0.1,0,0.1v7c0,0,0,0.1,0,0.1c0,0,0,0.1,0,0.1v5.3h-5.3c0,0-0.1,0-0.1,0c0,0-0.1,0-0.1,0h-7c-0.1,0-0.1,0-0.1,0
		c0,0-0.1,0-0.1,0h-7c-0.1,0-0.1,0-0.1,0c0,0-0.1,0-0.2,0h-7c0,0-0.1,0-0.1,0c0,0-0.1,0-0.1,0h-7c-0.1,0-0.1,0-0.1,0
		c0,0-0.1,0-0.2,0h-7c0,0-0.1,0-0.1,0c0,0-0.1,0-0.1,0h-7c-1.1,0-2,0.9-2,2v7c0,0.1,0,0.1,0,0.2c0,0,0,0.1,0,0.2v7c0,1.1,0.9,2,2,2
		h7c1.1,0,2-0.9,2-2v-5.3h3.5v5.3c0,1.1,0.9,2,2,2h7c1.1,0,2-0.9,2-2v-5.3h3.5v5.3c0,1.1,0.9,2,2,2h7c1.1,0,2-0.9,2-2v-5.3h3.5v5.3
		c0,1.1,0.9,2,2,2h5.3v5.2c0,0.1,0,0.1,0,0.2c0,0,0,0.1,0,0.2v7c0,0,0,0.1,0,0.1c0,0,0,0.1,0,0.1v7c0,0.1,0,0.1,0,0.2
		c0,0,0,0.1,0,0.2v7c0,0,0,0.1,0,0.1c0,0,0,0.1,0,0.1v5.3h-3.5v-5.3c0,0,0-0.1,0-0.1c0,0,0-0.1,0-0.1v-7c0-0.1,0-0.1,0-0.2
		c0,0,0-0.1,0-0.2v-7c0,0,0-0.1,0-0.1c0,0,0-0.1,0-0.1v-7c0-1.1-0.9-2-2-2h-7c-0.1,0-0.1,0-0.1,0c0,0-0.1,0-0.1,0h-7
		c-0.1,0-0.1,0-0.1,0c0,0-0.1,0-0.2,0h-7c-1.1,0-2,0.9-2,2v5.2H38V305c0-1.1-0.9-2-2-2h-7c-0.1,0-0.1,0-0.2,0h-7c-1.1,0-2,0.9-2,2v7
		c0,0,0,0.1,0,0.1c0,0,0,0.1,0,0.1v7c0,0.1,0,0.1,0,0.2c0,0,0,0.1,0,0.2v7c0,0,0,0.1,0,0.1c0,0,0,0.1,0,0.1v7c0,0.1,0,0.1,0,0.2
		c0,0,0,0.1,0,0.2v7c0,0.1,0,0.1,0,0.1c0,0,0,0.1,0,0.2v7c0,0,0,0.1,0,0.1c0,0,0,0.1,0,0.1v7c0,0.1,0,0.1,0,0.1c0,0,0,0.1,0,0.2v7
		c0,0.1,0,0.1,0,0.1c0,0,0,0.1,0,0.2v7c0,1.1,0.9,2,2,2h7c0,0,0.1,0,0.1,0c0,0,0.1,0,0.1,0h7c1.1,0,2-0.9,2-2v-5.3h3.5v5.3
		c0,1.1,0.9,2,2,2h7c0.1,0,0.1,0,0.2,0c0,0,0.1,0,0.1,0h7c0.1,0,0.1,0,0.1,0c0,0,0.1,0,0.1,0h5.2v5.2c0,0.1,0,0.1,0,0.1
		c0,0,0,0.1,0,0.2v5.2h-5.2c-0.1,0-0.1,0-0.1,0c0,0-0.1,0-0.1,0h-7c-0.1,0-0.1,0-0.1,0c0,0-0.1,0-0.2,0h-7c-1.1,0-2,0.9-2,2v5.3H38
		v-5.3c0-1.1-0.9-2-2-2h-7c0,0-0.1,0-0.1,0c0,0-0.1,0-0.1,0h-7c-1.1,0-2,0.9-2,2v7c0,0.1,0,0.1,0,0.1c0,0,0,0.1,0,0.2v7
		c0,0,0,0.1,0,0.1c0,0,0,0.1,0,0.1v7c0,0.1,0,0.1,0,0.1c0,0,0,0.1,0,0.2v7c0,0.1,0,0.1,0,0.2c0,0,0,0.1,0,0.1v7c0,0,0,0.1,0,0.1
		c0,0,0,0.1,0,0.1v7c0,0.1,0,0.1,0,0.2c0,0,0,0.1,0,0.1v7c0,0.1,0,0.1,0,0.2c0,0,0,0.1,0,0.1v7c0,0,0,0.1,0,0.1c0,0,0,0.1,0,0.1v7
		c0,1.1,0.9,2,2,2h7c0,0,0.1,0,0.1,0c0,0,0.1,0,0.1,0h7c1.1,0,2-0.9,2-2v-5.2h3.5v5.2c0,1.1,0.9,2,2,2h7c0.1,0,0.1,0,0.2,0
		c0,0,0.1,0,0.1,0h7c0.1,0,0.1,0,0.1,0c0,0,0.1,0,0.1,0h7c1.1,0,2-0.9,2-2v-7c0,0,0-0.1,0-0.1c0,0,0-0.1,0-0.1v-7c0-0.1,0-0.1,0-0.1
		c0,0,0-0.1,0-0.2v-7c0-0.1,0-0.1,0-0.1c0,0,0-0.1,0-0.2v-5.2h3.5v5.2c0,0.1,0,0.1,0,0.2c0,0,0,0.1,0,0.1v7c0,0.1,0,0.1,0,0.2
		c0,0,0,0.1,0,0.1v7c0,0,0,0.1,0,0.1c0,0,0,0.1,0,0.1v7c0,0.1,0,0.1,0,0.2c0,0,0,0.1,0,0.1v5.2h-5.3c0,0-0.1,0-0.1,0
		c0,0-0.1,0-0.1,0h-7c-0.1,0-0.1,0-0.1,0c0,0-0.1,0-0.1,0h-7c-0.1,0-0.1,0-0.1,0c0,0-0.1,0-0.2,0h-7c0,0-0.1,0-0.1,0
		c0,0-0.1,0-0.1,0h-7c-0.1,0-0.1,0-0.1,0c0,0-0.1,0-0.2,0h-7c0,0-0.1,0-0.1,0c0,0-0.1,0-0.1,0h-7c-1.1,0-2,0.9-2,2v7
		c0,1.1,0.9,2,2,2h7c0,0,0.1,0,0.1,0c0,0,0.1,0,0.1,0h7c0.1,0,0.1,0,0.2,0c0,0,0.1,0,0.1,0h7c0,0,0.1,0,0.1,0c0,0,0.1,0,0.1,0h7
		c0.1,0,0.1,0,0.2,0c0,0,0.1,0,0.1,0h7c0.1,0,0.1,0,0.1,0c0,0,0.1,0,0.1,0h5.2v5.3c0,1.1,0.9,2,2,2h7c0.1,0,0.1,0,0.1,0
		c0,0,0.1,0,0.1,0h7c0,0,0.1,0,0.1,0c0,0,0.1,0,0.1,0h7c0.1,0,0.1,0,0.1,0c0,0,0.1,0,0.1,0h7c0.1,0,0.1,0,0.2,0c0,0,0.1,0,0.1,0h7
		c0.1,0,0.1,0,0.2,0h7c0.1,0,0.1,0,0.1,0c0,0,0.1,0,0.2,0h7c0,0,0.1,0,0.1,0c0,0,0.1,0,0.1,0h7c0.1,0,0.1,0,0.1,0c0,0,0.1,0,0.2,0h7
		c0.1,0,0.1,0,0.2,0c0,0,0.1,0,0.2,0h7c0.1,0,0.1,0,0.2,0h7c1.1,0,2-0.9,2-2v-5.3h5.3c0.1,0,0.1,0,0.2,0h7c0.1,0,0.1,0,0.2,0
		c0,0,0.1,0,0.2,0h7c0.1,0,0.1,0,0.2,0c0,0,0.1,0,0.1,0h7c0,0,0.1,0,0.1,0c0,0,0.1,0,0.1,0h7c0.1,0,0.1,0,0.2,0c0,0,0.1,0,0.1,0h7
		c1.1,0,2-0.9,2-2v-7c0-1.1-0.9-2-2-2h-7c-0.1,0-0.1,0-0.1,0c0,0-0.1,0-0.2,0h-7c0,0-0.1,0-0.1,0c0,0-0.1,0-0.1,0h-7
		c-0.1,0-0.1,0-0.1,0c0,0-0.1,0-0.2,0h-7c-0.1,0-0.1,0-0.2,0c0,0-0.1,0-0.2,0h-7c0,0-0.1,0-0.1,0c0,0-0.1,0-0.1,0h-7
		c-0.1,0-0.1,0-0.2,0c0,0-0.1,0-0.2,0h-5.2v-5.2c0-0.1,0-0.1,0-0.1c0,0,0-0.1,0-0.2v-7c0,0,0-0.1,0-0.1c0,0,0-0.1,0-0.1v-7
		c0-0.1,0-0.1,0-0.1c0,0,0-0.1,0-0.2v-7c0-0.1,0-0.1,0-0.1c0,0,0-0.1,0-0.2v-5.2h3.5v5.2c0,0.1,0,0.1,0,0.2c0,0,0,0.1,0,0.1v7
		c0,0.1,0,0.1,0,0.2c0,0,0,0.1,0,0.1v7c0,0,0,0.1,0,0.1c0,0,0,0.1,0,0.1v7c0,1.1,0.9,2,2,2h7c0.1,0,0.1,0,0.2,0h7c0.1,0,0.1,0,0.2,0
		c0,0,0.1,0,0.2,0h7c1.1,0,2-0.9,2-2v-5.2h3.5v5.2c0,1.1,0.9,2,2,2h7c0.1,0,0.1,0,0.2,0c0,0,0.1,0,0.1,0h7c1.1,0,2-0.9,2-2v-7
		c0,0,0-0.1,0-0.1c0,0,0-0.1,0-0.1v-7c0-0.1,0-0.1,0-0.1c0,0,0-0.1,0-0.2v-7c0-0.1,0-0.1,0-0.1c0,0,0-0.1,0-0.2v-7c0,0,0-0.1,0-0.1
		c0,0,0-0.1,0-0.1v-7c0-0.1,0-0.1,0-0.1c0,0,0-0.1,0-0.2v-7c0-0.1,0-0.1,0-0.2c0,0,0-0.1,0-0.1v-7c0,0,0-0.1,0-0.1c0,0,0-0.1,0-0.1
		v-7c0-0.1,0-0.1,0-0.2c0,0,0-0.1,0-0.1v-7c0-1.1-0.9-2-2-2h-7c-0.1,0-0.1,0-0.1,0c0,0-0.1,0-0.2,0h-7c-1.1,0-2,0.9-2,2v5.3h-3.5
		v-5.3c0-1.1-0.9-2-2-2h-7c-0.1,0-0.1,0-0.2,0c0,0-0.1,0-0.2,0h-7c-0.1,0-0.1,0-0.2,0h-5.3v-5.2c0-0.1,0-0.1,0-0.2c0,0,0-0.1,0-0.1
		v-5.2h5.3c0.1,0,0.1,0,0.2,0h7c0.1,0,0.1,0,0.2,0c0,0,0.1,0,0.2,0h7c1.1,0,2-0.9,2-2v-5.3h3.5v5.3c0,1.1,0.9,2,2,2h7
		c0.1,0,0.1,0,0.2,0c0,0,0.1,0,0.1,0h7c1.1,0,2-0.9,2-2v-7c0-0.1,0-0.1,0-0.2c0,0,0-0.1,0-0.1v-7c0-0.1,0-0.1,0-0.2c0,0,0-0.1,0-0.1
		v-7c0,0,0-0.1,0-0.1c0,0,0-0.1,0-0.1v-7c0-0.1,0-0.1,0-0.2c0,0,0-0.1,0-0.1v-7c0-0.1,0-0.1,0-0.2c0,0,0-0.1,0-0.2v-7
		c0,0,0-0.1,0-0.1c0,0,0-0.1,0-0.1v-7c0-0.1,0-0.1,0-0.2c0,0,0-0.1,0-0.2v-7c0,0,0-0.1,0-0.1c0,0,0-0.1,0-0.1v-7c0-1.1-0.9-2-2-2h-7
		c-0.1,0-0.1,0-0.1,0c0,0-0.1,0-0.2,0h-7c-1.1,0-2,0.9-2,2v5.2h-3.5V305c0-1.1-0.9-2-2-2h-7c-0.1,0-0.1,0-0.2,0c0,0-0.1,0-0.2,0h-7
		c-0.1,0-0.1,0-0.2,0h-7c-1.1,0-2,0.9-2,2v7c0,0,0,0.1,0,0.1c0,0,0,0.1,0,0.1v7c0,0.1,0,0.1,0,0.2c0,0,0,0.1,0,0.2v7
		c0,0,0,0.1,0,0.1c0,0,0,0.1,0,0.1v5.3h-3.5v-5.3c0,0,0-0.1,0-0.1c0,0,0-0.1,0-0.1v-7c0-0.1,0-0.1,0-0.2c0,0,0-0.1,0-0.2v-7
		c0,0,0-0.1,0-0.1c0,0,0-0.1,0-0.1v-7c0-0.1,0-0.1,0-0.2c0,0,0-0.1,0-0.2v-5.2h5.2c1.1,0,2-0.9,2-2v-5.3h3.5v5.3c0,1.1,0.9,2,2,2h7
		c1.1,0,2-0.9,2-2v-5.3h3.6v5.3c0,1.1,0.9,2,2,2h7c1.1,0,2-0.9,2-2v-5.3h3.5v5.3c0,1.1,0.9,2,2,2h7c1.1,0,2-0.9,2-2v-7
		c0-0.1,0-0.1,0-0.2c0,0,0-0.1,0-0.2v-7c0-1.1-0.9-2-2-2h-7c-0.1,0-0.1,0-0.1,0c0,0-0.1,0-0.2,0h-7c0,0-0.1,0-0.1,0c0,0-0.1,0-0.1,0
		h-7c-0.1,0-0.1,0-0.1,0c0,0-0.1,0-0.2,0h-7c-0.1,0-0.1,0-0.2,0c0,0-0.1,0-0.2,0h-7c0,0-0.1,0-0.1,0c0,0-0.1,0-0.1,0h-7
		c-0.1,0-0.1,0-0.2,0c0,0-0.1,0-0.2,0h-5.2v-5.3c0,0,0-0.1,0-0.1c0,0,0-0.1,0-0.1v-7c0-0.1,0-0.1,0-0.1c0,0,0-0.1,0-0.2v-5.3h3.5
		v5.3c0,1.1,0.9,2,2,2h7c0.1,0,0.1,0,0.2,0h7c0.1,0,0.1,0,0.2,0c0,0,0.1,0,0.2,0h7c0.1,0,0.1,0,0.2,0c0,0,0.1,0,0.1,0h7
		c0,0,0.1,0,0.1,0c0,0,0.1,0,0.1,0h7c1.1,0,2-0.9,2-2v-5.3h5.3c1.1,0,2-0.9,2-2v-7c0,0,0-0.1,0-0.1c0,0,0-0.1,0-0.1v-7
		c0-0.1,0-0.1,0-0.1c0,0,0-0.1,0-0.2v-7c0,0,0-0.1,0-0.1c0,0,0-0.1,0-0.1v-7c0-0.1,0-0.1,0-0.1c0,0,0-0.1,0-0.1v-7c0,0,0-0.1,0-0.1
		c0,0,0-0.1,0-0.1v-7c0-0.1,0-0.1,0-0.1c0,0,0-0.1,0-0.1v-5.3h5.2c1.1,0,2-0.9,2-2v-7c0,0,0-0.1,0-0.1c0,0,0-0.1,0-0.1v-7
		c0-1.1-0.9-2-2-2h-5.2v-5.3c0-0.1,0-0.1,0-0.1c0,0,0-0.1,0-0.1v-7c0,0,0-0.1,0-0.1c0,0,0-0.1,0-0.1v-7c0-1.1-0.9-2-2-2h-5.3V167
		c0-1.1-0.9-2-2-2h-7c0,0-0.1,0-0.1,0c0,0-0.1,0-0.1,0h-7c-0.1,0-0.1,0-0.1,0c0,0-0.1,0-0.2,0h-7c-0.1,0-0.1,0-0.2,0
		c0,0-0.1,0-0.2,0h-7c0,0-0.1,0-0.1,0c0,0-0.1,0-0.1,0h-5.3v-3.5h5.3c0,0,0.1,0,0.1,0c0,0,0.1,0,0.1,0h7c0.1,0,0.1,0,0.2,0
		c0,0,0.1,0,0.2,0h7c0.1,0,0.1,0,0.2,0c0,0,0.1,0,0.1,0h7c0,0,0.1,0,0.1,0c0,0,0.1,0,0.1,0h7c0.1,0,0.1,0,0.2,0c0,0,0.1,0,0.1,0h7
		c1.1,0,2-0.9,2-2v-7c0,0,0-0.1,0-0.1c0,0,0-0.1,0-0.1V147h5.2c1.1,0,2-0.9,2-2v-7c0-0.1,0-0.1,0-0.1c0,0,0-0.1,0-0.1v-7
		c0,0,0-0.1,0-0.1c0,0,0-0.1,0-0.1v-7c0-0.1,0-0.1,0-0.1c0,0,0-0.1,0-0.1v-7c0-0.1,0-0.1,0-0.1c0,0,0-0.1,0-0.2v-7c0,0,0-0.1,0-0.1
		c0,0,0-0.1,0-0.1v-7c0-0.1,0-0.1,0-0.1c0,0,0-0.1,0-0.2v-7c0,0,0-0.1,0-0.1c0,0,0-0.1,0-0.1v-7c0-0.1,0-0.1,0-0.1c0,0,0-0.1,0-0.2
		v-7c0-1.1-0.9-2-2-2h-5.2v-5.2c0-0.1,0-0.1,0-0.1c0,0,0-0.1,0-0.2v-7c0-0.1,0-0.1,0-0.1c0,0,0-0.1,0-0.1v-7c0,0,0-0.1,0-0.1
		c0,0,0-0.1,0-0.1v-5.3h5.2c0.1,0,0.1,0,0.2,0c0,0,0.1,0,0.1,0h7c0.1,0,0.1,0,0.1,0c0,0,0.1,0,0.2,0h7c1.1,0,2-0.9,2-2v-7
		C212.3,42.5,211.4,41.6,210.3,41.6z"/>
</g>
<g id="Слой_1">
	<path class="st1" d="M0,43.6h7v7H0V43.6z M7.2,43.6h7v7h-7V43.6z M14.5,36.3h7v7h-7V36.3z M14.5,43.6h7v7h-7V43.6z M14.5,79.9h7v7
		h-7V79.9z M14.5,87.2h7v7h-7V87.2z M14.5,94.4h7v7h-7V94.4z M14.5,101.7h7v7h-7V101.7z M14.5,108.9h7v7h-7V108.9z M14.5,116.2h7v7
		h-7V116.2z M14.5,123.5h7v7h-7V123.5z M14.5,130.7h7v7h-7V130.7z M14.5,138h7v7h-7V138z M21.8,14.6h7v7h-7V14.6z M21.8,21.8h7v7h-7
		V21.8z M21.8,29.1h7v7h-7V29.1z M21.8,43.6h7v7h-7V43.6z M21.8,50.9h7v7h-7V50.9z M21.8,58.1h7v7h-7V58.1z M21.8,65.4h7v7h-7V65.4z
		 M21.8,72.7h7v7h-7V72.7z M21.8,87.2h7v7h-7V87.2z M21.8,101.7h7v7h-7V101.7z M21.8,108.9h7v7h-7V108.9z M21.8,116.2h7v7h-7V116.2z
		 M21.8,138h7v7h-7V138z M21.8,145.3h7v7h-7V145.3z M21.8,152.5h7v7h-7V152.5z M21.8,174.3h7v7h-7V174.3z M21.8,181.5h7v7h-7V181.5z
		 M21.8,188.8h7v7h-7V188.8z M21.8,196.1h7v7h-7V196.1z M21.8,203.3h7v7h-7V203.3z M14.5,196.1h7v7h-7V196.1z M14.5,203.3h7v7h-7
		V203.3z M21.8,210.6h7v7h-7V210.6z M21.8,217.9h7v7h-7V217.9z M21.8,225.1h7v7h-7V225.1z M21.8,232.4h7v7h-7V232.4z M21.8,239.6h7
		v7h-7V239.6z M21.8,246.9h7v7h-7V246.9z M21.8,254.1h7v7h-7V254.1z M29,7.3h7v7h-7V7.3z M29,14.6h7v7h-7V14.6z M29,21.8h7v7h-7
		V21.8z M29,29.1h7v7h-7V29.1z M29,36.3h7v7h-7V36.3z M29,43.6h7v7h-7V43.6z M29,50.9h7v7h-7V50.9z M29,58.1h7v7h-7V58.1z M29,65.4
		h7v7h-7V65.4z M29,72.7h7v7h-7V72.7z M29,79.9h7v7h-7V79.9z M29,87.2h7v7h-7V87.2z M29,94.4h7v7h-7V94.4z M29,101.7h7v7h-7V101.7z
		 M29,108.9h7v7h-7V108.9z M29,116.2h7v7h-7V116.2z M29,123.5h7v7h-7V123.5z M29,130.7h7v7h-7V130.7z M29,138h7v7h-7V138z M29,145.3
		h7v7h-7V145.3z M29,152.5h7v7h-7V152.5z M29,167h7v7h-7V167z M29,174.3h7v7h-7V174.3z M29,181.5h7v7h-7V181.5z M29,188.8h7v7h-7
		V188.8z M29,196.1h7v7h-7V196.1z M29,203.3h7v7h-7V203.3z M29,210.6h7v7h-7V210.6z M29,217.9h7v7h-7V217.9z M29,225.1h7v7h-7V225.1
		z M29,232.4h7v7h-7V232.4z M29,239.6h7v7h-7V239.6z M29,246.9h7v7h-7V246.9z M29,254.1h7v7h-7V254.1z M29,261.4h7v7h-7V261.4z
		 M36.3,7.3h7v7h-7V7.3z M36.3,14.6h7v7h-7V14.6z M36.3,21.8h7v7h-7V21.8z M36.3,36.3h7v7h-7V36.3z M36.3,43.6h7v7h-7V43.6z
		 M36.3,50.9h7v7h-7V50.9z M36.3,58.1h7v7h-7V58.1z M36.3,65.4h7v7h-7V65.4z M36.3,72.7h7v7h-7V72.7z M36.3,79.9h7v7h-7V79.9z
		 M36.3,87.2h7v7h-7V87.2z M36.3,94.4h7v7h-7V94.4z M36.3,101.7h7v7h-7V101.7z M36.3,108.9h7v7h-7V108.9z M36.3,116.2h7v7h-7V116.2z
		 M36.3,123.5h7v7h-7V123.5z M36.3,130.7h7v7h-7V130.7z M36.3,138h7v7h-7V138z M36.3,145.3h7v7h-7V145.3z M36.3,152.5h7v7h-7V152.5z
		 M36.3,167h7v7h-7V167z M36.3,174.3h7v7h-7V174.3z M36.3,181.5h7v7h-7V181.5z M36.3,188.8h7v7h-7V188.8z M36.3,196.1h7v7h-7V196.1z
		 M36.3,203.3h7v7h-7V203.3z M36.3,210.6h7v7h-7V210.6z M36.3,217.9h7v7h-7V217.9z M36.3,225.1h7v7h-7V225.1z M36.3,232.4h7v7h-7
		V232.4z M36.3,239.6h7v7h-7V239.6z M36.3,246.9h7v7h-7V246.9z M36.3,254.1h7v7h-7V254.1z M36.3,261.4h7v7h-7V261.4z M43.5,7.3h7v7
		h-7V7.3z M43.5,29.1h7v7h-7V29.1z M43.5,43.6h7v7h-7V43.6z M43.5,58.1h7v7h-7V58.1z M43.5,72.7h7v7h-7V72.7z M43.5,79.9h7v7h-7
		V79.9z M43.5,87.2h7v7h-7V87.2z M43.5,94.4h7v7h-7V94.4z M43.5,101.7h7v7h-7V101.7z M43.5,108.9h7v7h-7V108.9z M43.5,116.2h7v7h-7
		V116.2z M43.5,123.5h7v7h-7V123.5z M43.5,130.7h7v7h-7V130.7z M43.5,138h7v7h-7V138z M43.5,145.3h7v7h-7V145.3z M43.5,152.5h7v7h-7
		V152.5z M43.5,167h7v7h-7V167z M43.5,174.3h7v7h-7V174.3z M43.5,181.5h7v7h-7V181.5z M43.5,188.8h7v7h-7V188.8z M43.5,196.1h7v7h-7
		V196.1z M43.5,203.3h7v7h-7V203.3z M43.5,210.6h7v7h-7V210.6z M43.5,217.9h7v7h-7V217.9z M43.5,225.1h7v7h-7V225.1z M43.5,232.4h7
		v7h-7V232.4z M43.5,239.6h7v7h-7V239.6z M43.5,246.9h7v7h-7V246.9z M43.5,254.1h7v7h-7V254.1z M43.5,261.4h7v7h-7V261.4z
		 M21.8,283.2h7v7h-7V283.2z M21.8,290.5h7v7h-7V290.5z M21.8,305h7v7h-7V305z M21.8,312.2h7v7h-7V312.2z M21.8,319.5h7v7h-7V319.5z
		 M21.8,326.7h7v7h-7V326.7z M21.8,334h7v7h-7V334z M29,283.2h7v7h-7V283.2z M29,305h7v7h-7V305z M29,312.2h7v7h-7V312.2z M29,319.5
		h7v7h-7V319.5z M29,326.7h7v7h-7V326.7z M29,334h7v7h-7V334z M36.3,283.2h7v7h-7V283.2z M36.3,290.5h7v7h-7V290.5z M36.3,312.2h7v7
		h-7V312.2z M36.3,326.7h7v7h-7V326.7z M43.5,283.2h7v7h-7V283.2z M43.5,305h7v7h-7V305z M43.5,319.5h7v7h-7V319.5z M43.5,334h7v7
		h-7V334z M21.8,341.3h7v7h-7V341.3z M21.8,348.5h7v7h-7V348.5z M21.8,355.8h7v7h-7V355.8z M21.8,363.1h7v7h-7V363.1z M21.8,384.8h7
		v7h-7V384.8z M21.8,392.1h7v7h-7V392.1z M21.8,399.3h7v7h-7V399.3z M21.8,406.6h7v7h-7V406.6z M29,341.3h7v7h-7V341.3z M29,348.5h7
		v7h-7V348.5z M29,355.8h7v7h-7V355.8z M29,363.1h7v7h-7V363.1z M29,384.8h7v7h-7V384.8z M29,392.1h7v7h-7V392.1z M29,399.3h7v7h-7
		V399.3z M29,406.6h7v7h-7V406.6z M36.3,341.3h7v7h-7V341.3z M36.3,355.8h7v7h-7V355.8z M36.3,392.1h7v7h-7V392.1z M36.3,406.6h7v7
		h-7V406.6z M43.5,348.5h7v7h-7V348.5z M43.5,363.1h7v7h-7V363.1z M43.5,384.8h7v7h-7V384.8z M43.5,399.3h7v7h-7V399.3z M21.8,413.9
		h7v7h-7V413.9z M21.8,421.1h7v7h-7V421.1z M21.8,428.4h7v7h-7V428.4z M21.8,435.7h7v7h-7V435.7z M21.8,442.9h7v7h-7V442.9z
		 M21.8,457.4h7v7h-7V457.4z M29,413.9h7v7h-7V413.9z M29,421.1h7v7h-7V421.1z M29,428.4h7v7h-7V428.4z M29,435.7h7v7h-7V435.7z
		 M29,442.9h7v7h-7V442.9z M29,457.4h7v7h-7V457.4z M36.3,421.1h7v7h-7V421.1z M36.3,435.7h7v7h-7V435.7z M36.3,457.4h7v7h-7V457.4z
		 M43.5,413.9h7v7h-7V413.9z M43.5,428.4h7v7h-7V428.4z M43.5,442.9h7v7h-7V442.9z M43.5,457.4h7v7h-7V457.4z M50.8,7.3h7v7h-7V7.3z
		 M50.8,14.6h7v7h-7V14.6z M50.8,21.8h7v7h-7V21.8z M50.8,29.1h7v7h-7V29.1z M50.8,36.3h7v7h-7V36.3z M50.8,43.6h7v7h-7V43.6z
		 M50.8,50.9h7v7h-7V50.9z M50.8,58.1h7v7h-7V58.1z M50.8,65.4h7v7h-7V65.4z M50.8,72.7h7v7h-7V72.7z M50.8,79.9h7v7h-7V79.9z
		 M50.8,87.2h7v7h-7V87.2z M50.8,94.4h7v7h-7V94.4z M50.8,101.7h7v7h-7V101.7z M50.8,108.9h7v7h-7V108.9z M50.8,116.2h7v7h-7V116.2z
		 M50.8,123.5h7v7h-7V123.5z M50.8,130.7h7v7h-7V130.7z M50.8,138h7v7h-7V138z M50.8,145.3h7v7h-7V145.3z M50.8,152.5h7v7h-7V152.5z
		 M50.8,167h7v7h-7V167z M50.8,174.3h7v7h-7V174.3z M50.8,181.5h7v7h-7V181.5z M50.8,188.8h7v7h-7V188.8z M50.8,196.1h7v7h-7V196.1z
		 M50.8,203.3h7v7h-7V203.3z M50.8,210.6h7v7h-7V210.6z M50.8,217.9h7v7h-7V217.9z M50.8,225.1h7v7h-7V225.1z M50.8,232.4h7v7h-7
		V232.4z M50.8,239.6h7v7h-7V239.6z M50.8,246.9h7v7h-7V246.9z M50.8,254.1h7v7h-7V254.1z M50.8,261.4h7v7h-7V261.4z M58.1,0h7v7h-7
		V0z M58.1,7.3h7v7h-7V7.3z M58.1,14.6h7v7h-7V14.6z M58.1,21.8h7v7h-7V21.8z M58.1,36.3h7v7h-7V36.3z M58.1,43.6h7v7h-7V43.6z
		 M58.1,50.9h7v7h-7V50.9z M58.1,58.1h7v7h-7V58.1z M58.1,65.4h7v7h-7V65.4z M58.1,72.7h7v7h-7V72.7z M58.1,79.9h7v7h-7V79.9z
		 M58.1,87.2h7v7h-7V87.2z M58.1,94.4h7v7h-7V94.4z M58.1,101.7h7v7h-7V101.7z M58.1,108.9h7v7h-7V108.9z M58.1,116.2h7v7h-7V116.2z
		 M58.1,123.5h7v7h-7V123.5z M58.1,130.7h7v7h-7V130.7z M58.1,138h7v7h-7V138z M58.1,145.3h7v7h-7V145.3z M58.1,152.5h7v7h-7V152.5z
		 M58.1,167h7v7h-7V167z M58.1,174.3h7v7h-7V174.3z M58.1,181.5h7v7h-7V181.5z M58.1,188.8h7v7h-7V188.8z M58.1,196.1h7v7h-7V196.1z
		 M58.1,203.3h7v7h-7V203.3z M58.1,210.6h7v7h-7V210.6z M58.1,217.9h7v7h-7V217.9z M58.1,225.1h7v7h-7V225.1z M58.1,232.4h7v7h-7
		V232.4z M58.1,239.6h7v7h-7V239.6z M58.1,246.9h7v7h-7V246.9z M58.1,254.1h7v7h-7V254.1z M58.1,261.4h7v7h-7V261.4z M65.3,0h7v7h-7
		V0z M65.3,7.3h7v7h-7V7.3z M65.3,14.6h7v7h-7V14.6z M65.3,21.8h7v7h-7V21.8z M65.3,29.1h7v7h-7V29.1z M65.3,36.3h7v7h-7V36.3z
		 M65.3,43.6h7v7h-7V43.6z M65.3,50.9h7v7h-7V50.9z M65.3,58.1h7v7h-7V58.1z M65.3,65.4h7v7h-7V65.4z M65.3,72.7h7v7h-7V72.7z
		 M65.3,79.9h7v7h-7V79.9z M65.3,87.2h7v7h-7V87.2z M65.3,94.4h7v7h-7V94.4z M65.3,101.7h7v7h-7V101.7z M65.3,108.9h7v7h-7V108.9z
		 M65.3,116.2h7v7h-7V116.2z M65.3,123.5h7v7h-7V123.5z M65.3,130.7h7v7h-7V130.7z M65.3,138h7v7h-7V138z M65.3,145.3h7v7h-7V145.3z
		 M65.3,152.5h7v7h-7V152.5z M65.3,159.8h7v7h-7V159.8z M65.3,167h7v7h-7V167z M65.3,174.3h7v7h-7V174.3z M65.3,181.5h7v7h-7V181.5z
		 M65.3,188.8h7v7h-7V188.8z M65.3,196.1h7v7h-7V196.1z M65.3,203.3h7v7h-7V203.3z M65.3,210.6h7v7h-7V210.6z M65.3,217.9h7v7h-7
		V217.9z M65.3,225.1h7v7h-7V225.1z M65.3,232.4h7v7h-7V232.4z M65.3,239.6h7v7h-7V239.6z M65.3,246.9h7v7h-7V246.9z M65.3,254.1h7
		v7h-7V254.1z M72.6,0h7v7h-7V0z M72.6,7.3h7v7h-7V7.3z M72.6,14.6h7v7h-7V14.6z M72.6,21.8h7v7h-7V21.8z M72.6,36.3h7v7h-7V36.3z
		 M72.6,43.6h7v7h-7V43.6z M72.6,50.9h7v7h-7V50.9z M72.6,58.1h7v7h-7V58.1z M72.6,65.4h7v7h-7V65.4z M72.6,72.7h7v7h-7V72.7z
		 M72.6,79.9h7v7h-7V79.9z M72.6,87.2h7v7h-7V87.2z M72.6,94.4h7v7h-7V94.4z M72.6,101.7h7v7h-7V101.7z M72.6,108.9h7v7h-7V108.9z
		 M72.6,116.2h7v7h-7V116.2z M72.6,123.5h7v7h-7V123.5z M72.6,130.7h7v7h-7V130.7z M72.6,138h7v7h-7V138z M72.6,145.3h7v7h-7V145.3z
		 M72.6,152.5h7v7h-7V152.5z M72.6,159.8h7v7h-7V159.8z M72.6,167h7v7h-7V167z M72.6,174.3h7v7h-7V174.3z M72.6,181.5h7v7h-7V181.5z
		 M72.6,188.8h7v7h-7V188.8z M72.6,196.1h7v7h-7V196.1z M72.6,203.3h7v7h-7V203.3z M72.6,210.6h7v7h-7V210.6z M72.6,217.9h7v7h-7
		V217.9z M72.6,225.1h7v7h-7V225.1z M72.6,232.4h7v7h-7V232.4z M72.6,239.6h7v7h-7V239.6z M72.6,246.9h7v7h-7V246.9z M72.6,254.1h7
		v7h-7V254.1z M72.6,261.4h7v7h-7V261.4z M79.8,0h7v7h-7V0z M79.8,7.3h7v7h-7V7.3z M79.8,14.6h7v7h-7V14.6z M79.8,21.8h7v7h-7V21.8z
		 M79.8,29.1h7v7h-7V29.1z M79.8,36.3h7v7h-7V36.3z M79.8,43.6h7v7h-7V43.6z M79.8,50.9h7v7h-7V50.9z M79.8,58.1h7v7h-7V58.1z
		 M79.8,65.4h7v7h-7V65.4z M79.8,72.7h7v7h-7V72.7z M79.8,79.9h7v7h-7V79.9z M79.8,87.2h7v7h-7V87.2z M79.8,94.4h7v7h-7V94.4z
		 M79.8,101.7h7v7h-7V101.7z M79.8,108.9h7v7h-7V108.9z M79.8,116.2h7v7h-7V116.2z M79.8,123.5h7v7h-7V123.5z M79.8,130.7h7v7h-7
		V130.7z M79.8,138h7v7h-7V138z M79.8,145.3h7v7h-7V145.3z M79.8,152.5h7v7h-7V152.5z M79.8,159.8h7v7h-7V159.8z M79.8,167h7v7h-7
		V167z M79.8,174.3h7v7h-7V174.3z M79.8,181.5h7v7h-7V181.5z M79.8,188.8h7v7h-7V188.8z M79.8,196.1h7v7h-7V196.1z M79.8,203.3h7v7
		h-7V203.3z M79.8,210.6h7v7h-7V210.6z M79.8,217.9h7v7h-7V217.9z M79.8,225.1h7v7h-7V225.1z M79.8,232.4h7v7h-7V232.4z M79.8,239.6
		h7v7h-7V239.6z M79.8,246.9h7v7h-7V246.9z M79.8,254.1h7v7h-7V254.1z M79.8,261.4h7v7h-7V261.4z M87.1,0h7v7h-7V0z M87.1,7.3h7v7
		h-7V7.3z M87.1,14.6h7v7h-7V14.6z M87.1,21.8h7v7h-7V21.8z M87.1,43.6h7v7h-7V43.6z M87.1,50.9h7v7h-7V50.9z M87.1,58.1h7v7h-7
		V58.1z M87.1,65.4h7v7h-7V65.4z M87.1,72.7h7v7h-7V72.7z M87.1,79.9h7v7h-7V79.9z M87.1,87.2h7v7h-7V87.2z M87.1,94.4h7v7h-7V94.4z
		 M87.1,101.7h7v7h-7V101.7z M87.1,108.9h7v7h-7V108.9z M87.1,116.2h7v7h-7V116.2z M87.1,123.5h7v7h-7V123.5z M87.1,130.7h7v7h-7
		V130.7z M87.1,138h7v7h-7V138z M87.1,145.3h7v7h-7V145.3z M87.1,152.5h7v7h-7V152.5z M87.1,159.8h7v7h-7V159.8z M87.1,239.6h7v7h-7
		V239.6z M87.1,246.9h7v7h-7V246.9z M94.4,0h7v7h-7V0z M94.4,7.3h7v7h-7V7.3z M94.4,14.6h7v7h-7V14.6z M94.4,21.8h7v7h-7V21.8z
		 M94.4,29.1h7v7h-7V29.1z M94.4,36.3h7v7h-7V36.3z M94.4,43.6h7v7h-7V43.6z M94.4,50.9h7v7h-7V50.9z M94.4,58.1h7v7h-7V58.1z
		 M94.4,65.4h7v7h-7V65.4z M94.4,72.7h7v7h-7V72.7z M94.4,79.9h7v7h-7V79.9z M94.4,87.2h7v7h-7V87.2z M94.4,94.4h7v7h-7V94.4z
		 M94.4,101.7h7v7h-7V101.7z M94.4,108.9h7v7h-7V108.9z M94.4,116.2h7v7h-7V116.2z M94.4,123.5h7v7h-7V123.5z M94.4,130.7h7v7h-7
		V130.7z M94.4,138h7v7h-7V138z M94.4,145.3h7v7h-7V145.3z M94.4,152.5h7v7h-7V152.5z M94.4,159.8h7v7h-7V159.8z M94.4,239.6h7v7h-7
		V239.6z M94.4,246.9h7v7h-7V246.9z M101.6,0h7v7h-7V0z M101.6,7.3h7v7h-7V7.3z M101.6,14.6h7v7h-7V14.6z M101.6,21.8h7v7h-7V21.8z
		 M101.6,43.6h7v7h-7V43.6z M101.6,50.9h7v7h-7V50.9z M101.6,58.1h7v7h-7V58.1z M101.6,65.4h7v7h-7V65.4z M101.6,72.7h7v7h-7V72.7z
		 M101.6,79.9h7v7h-7V79.9z M101.6,87.2h7v7h-7V87.2z M101.6,94.4h7v7h-7V94.4z M101.6,101.7h7v7h-7V101.7z M101.6,108.9h7v7h-7
		V108.9z M101.6,116.2h7v7h-7V116.2z M101.6,123.5h7v7h-7V123.5z M101.6,130.7h7v7h-7V130.7z M101.6,138h7v7h-7V138z M101.6,145.3h7
		v7h-7V145.3z M101.6,152.5h7v7h-7V152.5z M101.6,159.8h7v7h-7V159.8z M101.6,167h7v7h-7V167z M101.6,174.3h7v7h-7V174.3z
		 M101.6,181.5h7v7h-7V181.5z M101.6,188.8h7v7h-7V188.8z M101.6,196.1h7v7h-7V196.1z M101.6,203.3h7v7h-7V203.3z M101.6,210.6h7v7
		h-7V210.6z M101.6,217.9h7v7h-7V217.9z M101.6,225.1h7v7h-7V225.1z M101.6,232.4h7v7h-7V232.4z M101.6,239.6h7v7h-7V239.6z
		 M101.6,246.9h7v7h-7V246.9z M101.6,254.1h7v7h-7V254.1z M101.6,261.4h7v7h-7V261.4z M108.9,0h7v7h-7V0z M108.9,7.3h7v7h-7V7.3z
		 M108.9,14.6h7v7h-7V14.6z M108.9,21.8h7v7h-7V21.8z M108.9,29.1h7v7h-7V29.1z M108.9,36.3h7v7h-7V36.3z M108.9,43.6h7v7h-7V43.6z
		 M108.9,50.9h7v7h-7V50.9z M108.9,58.1h7v7h-7V58.1z M108.9,65.4h7v7h-7V65.4z M108.9,72.7h7v7h-7V72.7z M108.9,79.9h7v7h-7V79.9z
		 M108.9,87.2h7v7h-7V87.2z M108.9,94.4h7v7h-7V94.4z M108.9,101.7h7v7h-7V101.7z M108.9,108.9h7v7h-7V108.9z M108.9,116.2h7v7h-7
		V116.2z M108.9,123.5h7v7h-7V123.5z M108.9,130.7h7v7h-7V130.7z M108.9,138h7v7h-7V138z M108.9,145.3h7v7h-7V145.3z M108.9,152.5h7
		v7h-7V152.5z M108.9,159.8h7v7h-7V159.8z M108.9,239.6h7v7h-7V239.6z M108.9,246.9h7v7h-7V246.9z M116.1,0h7v7h-7V0z M116.1,7.3h7
		v7h-7V7.3z M116.1,14.6h7v7h-7V14.6z M116.1,21.8h7v7h-7V21.8z M116.1,43.6h7v7h-7V43.6z M116.1,50.9h7v7h-7V50.9z M116.1,58.1h7v7
		h-7V58.1z M116.1,65.4h7v7h-7V65.4z M116.1,72.7h7v7h-7V72.7z M116.1,79.9h7v7h-7V79.9z M116.1,87.2h7v7h-7V87.2z M116.1,94.4h7v7
		h-7V94.4z M116.1,101.7h7v7h-7V101.7z M116.1,108.9h7v7h-7V108.9z M116.1,116.2h7v7h-7V116.2z M116.1,123.5h7v7h-7V123.5z
		 M116.1,130.7h7v7h-7V130.7z M116.1,138h7v7h-7V138z M116.1,145.3h7v7h-7V145.3z M116.1,152.5h7v7h-7V152.5z M116.1,159.8h7v7h-7
		V159.8z M116.1,239.6h7v7h-7V239.6z M116.1,246.9h7v7h-7V246.9z M50.8,283.2h7v7h-7V283.2z M50.8,290.5h7v7h-7V290.5z M50.8,305h7
		v7h-7V305z M50.8,312.2h7v7h-7V312.2z M50.8,319.5h7v7h-7V319.5z M50.8,326.7h7v7h-7V326.7z M50.8,334h7v7h-7V334z M58.1,283.2h7v7
		h-7V283.2z M58.1,305h7v7h-7V305z M58.1,312.2h7v7h-7V312.2z M58.1,319.5h7v7h-7V319.5z M58.1,326.7h7v7h-7V326.7z M58.1,334h7v7
		h-7V334z M65.3,283.2h7v7h-7V283.2z M65.3,290.5h7v7h-7V290.5z M65.3,334h7v7h-7V334z M72.6,268.7h7v7h-7V268.7z M72.6,275.9h7v7
		h-7V275.9z M72.6,283.2h7v7h-7V283.2z M72.6,290.5h7v7h-7V290.5z M72.6,297.7h7v7h-7V297.7z M72.6,305h7v7h-7V305z M72.6,312.2h7v7
		h-7V312.2z M72.6,319.5h7v7h-7V319.5z M72.6,326.7h7v7h-7V326.7z M79.8,268.7h7v7h-7V268.7z M79.8,275.9h7v7h-7V275.9z M79.8,283.2
		h7v7h-7V283.2z M79.8,290.5h7v7h-7V290.5z M79.8,297.7h7v7h-7V297.7z M79.8,305h7v7h-7V305z M79.8,312.2h7v7h-7V312.2z M79.8,319.5
		h7v7h-7V319.5z M79.8,334h7v7h-7V334z M87.1,297.7h7v7h-7V297.7z M87.1,305h7v7h-7V305z M87.1,312.2h7v7h-7V312.2z M87.1,326.7h7v7
		h-7V326.7z M94.4,297.7h7v7h-7V297.7z M94.4,305h7v7h-7V305z M94.4,319.5h7v7h-7V319.5z M94.4,334h7v7h-7V334z M101.6,268.7h7v7h-7
		V268.7z M101.6,275.9h7v7h-7V275.9z M101.6,283.2h7v7h-7V283.2z M101.6,290.5h7v7h-7V290.5z M101.6,297.7h7v7h-7V297.7z M101.6,305
		h7v7h-7V305z M101.6,312.2h7v7h-7V312.2z M101.6,326.7h7v7h-7V326.7z M108.9,297.7h7v7h-7V297.7z M108.9,305h7v7h-7V305z
		 M108.9,319.5h7v7h-7V319.5z M108.9,334h7v7h-7V334z M116.1,297.7h7v7h-7V297.7z M116.1,305h7v7h-7V305z M116.1,312.2h7v7h-7V312.2
		z M116.1,326.7h7v7h-7V326.7z M50.8,341.3h7v7h-7V341.3z M50.8,348.5h7v7h-7V348.5z M50.8,355.8h7v7h-7V355.8z M50.8,363.1h7v7h-7
		V363.1z M50.8,384.8h7v7h-7V384.8z M50.8,392.1h7v7h-7V392.1z M50.8,399.3h7v7h-7V399.3z M50.8,406.6h7v7h-7V406.6z M58.1,341.3h7
		v7h-7V341.3z M58.1,348.5h7v7h-7V348.5z M58.1,355.8h7v7h-7V355.8z M58.1,363.1h7v7h-7V363.1z M58.1,384.8h7v7h-7V384.8z
		 M58.1,392.1h7v7h-7V392.1z M58.1,399.3h7v7h-7V399.3z M58.1,406.6h7v7h-7V406.6z M65.3,370.3h7v7h-7V370.3z M65.3,377.6h7v7h-7
		V377.6z M72.6,341.3h7v7h-7V341.3z M72.6,334h7v7h-7V334z M72.6,355.8h7v7h-7V355.8z M72.6,348.5h7v7h-7V348.5z M72.6,363.1h7v7h-7
		V363.1z M72.6,370.3h7v7h-7V370.3z M72.6,377.6h7v7h-7V377.6z M72.6,384.8h7v7h-7V384.8z M72.6,392.1h7v7h-7V392.1z M72.6,399.3h7
		v7h-7V399.3z M72.6,406.6h7v7h-7V406.6z M79.8,348.5h7v7h-7V348.5z M79.8,363.1h7v7h-7V363.1z M79.8,377.6h7v7h-7V377.6z
		 M79.8,384.8h7v7h-7V384.8z M79.8,392.1h7v7h-7V392.1z M79.8,399.3h7v7h-7V399.3z M87.1,341.3h7v7h-7V341.3z M87.1,355.8h7v7h-7
		V355.8z M87.1,370.3h7v7h-7V370.3z M87.1,384.8h7v7h-7V384.8z M87.1,392.1h7v7h-7V392.1z M87.1,406.6h7v7h-7V406.6z M94.4,348.5h7
		v7h-7V348.5z M94.4,363.1h7v7h-7V363.1z M94.4,370.3h7v7h-7V370.3z M94.4,377.6h7v7h-7V377.6z M94.4,384.8h7v7h-7V384.8z
		 M94.4,392.1h7v7h-7V392.1z M94.4,406.6h7v7h-7V406.6z M101.6,341.3h7v7h-7V341.3z M101.6,355.8h7v7h-7V355.8z M101.6,363.1h7v7h-7
		V363.1z M101.6,370.3h7v7h-7V370.3z M101.6,377.6h7v7h-7V377.6z M101.6,384.8h7v7h-7V384.8z M101.6,392.1h7v7h-7V392.1z
		 M101.6,399.3h7v7h-7V399.3z M101.6,406.6h7v7h-7V406.6z M108.9,348.5h7v7h-7V348.5z M108.9,363.1h7v7h-7V363.1z M108.9,370.3h7v7
		h-7V370.3z M108.9,377.6h7v7h-7V377.6z M108.9,384.8h7v7h-7V384.8z M108.9,392.1h7v7h-7V392.1z M108.9,406.6h7v7h-7V406.6z
		 M116.1,341.3h7v7h-7V341.3z M116.1,355.8h7v7h-7V355.8z M116.1,370.3h7v7h-7V370.3z M116.1,384.8h7v7h-7V384.8z M116.1,392.1h7v7
		h-7V392.1z M116.1,406.6h7v7h-7V406.6z M50.8,413.9h7v7h-7V413.9z M50.8,421.1h7v7h-7V421.1z M50.8,428.4h7v7h-7V428.4z
		 M50.8,435.7h7v7h-7V435.7z M50.8,442.9h7v7h-7V442.9z M50.8,457.4h7v7h-7V457.4z M58.1,413.9h7v7h-7V413.9z M58.1,421.1h7v7h-7
		V421.1z M58.1,428.4h7v7h-7V428.4z M58.1,435.7h7v7h-7V435.7z M58.1,442.9h7v7h-7V442.9z M58.1,457.4h7v7h-7V457.4z M65.3,413.9h7
		v7h-7V413.9z M65.3,457.4h7v7h-7V457.4z M65.3,464.7h7v7h-7V464.7z M72.6,413.9h7v7h-7V413.9z M72.6,421.1h7v7h-7V421.1z
		 M72.6,428.4h7v7h-7V428.4z M72.6,435.7h7v7h-7V435.7z M72.6,442.9h7v7h-7V442.9z M72.6,450.2h7v7h-7V450.2z M72.6,457.4h7v7h-7
		V457.4z M72.6,464.7h7v7h-7V464.7z M79.8,413.9h7v7h-7V413.9z M79.8,428.4h7v7h-7V428.4z M79.8,435.7h7v7h-7V435.7z M79.8,442.9h7
		v7h-7V442.9z M79.8,450.2h7v7h-7V450.2z M79.8,457.4h7v7h-7V457.4z M79.8,464.7h7v7h-7V464.7z M87.1,413.9h7v7h-7V413.9z
		 M87.1,421.1h7v7h-7V421.1z M87.1,457.4h7v7h-7V457.4z M87.1,464.7h7v7h-7V464.7z M94.4,413.9h7v7h-7V413.9z M94.4,421.1h7v7h-7
		V421.1z M94.4,457.4h7v7h-7V457.4z M94.4,464.7h7v7h-7V464.7z M101.6,413.9h7v7h-7V413.9z M101.6,421.1h7v7h-7V421.1z M101.6,457.4
		h7v7h-7V457.4z M101.6,464.7h7v7h-7V464.7z M108.9,413.9h7v7h-7V413.9z M108.9,421.1h7v7h-7V421.1z M108.9,457.4h7v7h-7V457.4z
		 M108.9,464.7h7v7h-7V464.7z M116.1,413.9h7v7h-7V413.9z M116.1,421.1h7v7h-7V421.1z M116.1,457.4h7v7h-7V457.4z M116.1,464.7h7v7
		h-7V464.7z M123.4,0h7v7h-7V0z M123.4,7.3h7v7h-7V7.3z M123.4,14.6h7v7h-7V14.6z M123.4,21.8h7v7h-7V21.8z M123.4,29.1h7v7h-7V29.1
		z M123.4,36.3h7v7h-7V36.3z M123.4,43.6h7v7h-7V43.6z M123.4,50.9h7v7h-7V50.9z M123.4,58.1h7v7h-7V58.1z M123.4,65.4h7v7h-7V65.4z
		 M123.4,72.7h7v7h-7V72.7z M123.4,79.9h7v7h-7V79.9z M123.4,87.2h7v7h-7V87.2z M123.4,94.4h7v7h-7V94.4z M123.4,101.7h7v7h-7V101.7
		z M123.4,108.9h7v7h-7V108.9z M123.4,116.2h7v7h-7V116.2z M123.4,123.5h7v7h-7V123.5z M123.4,130.7h7v7h-7V130.7z M123.4,138h7v7
		h-7V138z M123.4,145.3h7v7h-7V145.3z M123.4,152.5h7v7h-7V152.5z M123.4,159.8h7v7h-7V159.8z M123.4,167h7v7h-7V167z M123.4,174.3
		h7v7h-7V174.3z M123.4,181.5h7v7h-7V181.5z M123.4,188.8h7v7h-7V188.8z M123.4,196.1h7v7h-7V196.1z M123.4,203.3h7v7h-7V203.3z
		 M123.4,210.6h7v7h-7V210.6z M123.4,217.9h7v7h-7V217.9z M123.4,225.1h7v7h-7V225.1z M123.4,232.4h7v7h-7V232.4z M123.4,239.6h7v7
		h-7V239.6z M123.4,246.9h7v7h-7V246.9z M123.4,254.1h7v7h-7V254.1z M123.4,261.4h7v7h-7V261.4z M130.7,0h7v7h-7V0z M130.7,7.3h7v7
		h-7V7.3z M130.7,14.6h7v7h-7V14.6z M130.7,21.8h7v7h-7V21.8z M130.7,36.3h7v7h-7V36.3z M130.7,43.6h7v7h-7V43.6z M130.7,50.9h7v7
		h-7V50.9z M130.7,58.1h7v7h-7V58.1z M130.7,65.4h7v7h-7V65.4z M130.7,72.7h7v7h-7V72.7z M130.7,79.9h7v7h-7V79.9z M130.7,87.2h7v7
		h-7V87.2z M130.7,94.4h7v7h-7V94.4z M130.7,101.7h7v7h-7V101.7z M130.7,108.9h7v7h-7V108.9z M130.7,116.2h7v7h-7V116.2z
		 M130.7,123.5h7v7h-7V123.5z M130.7,130.7h7v7h-7V130.7z M130.7,138h7v7h-7V138z M130.7,145.3h7v7h-7V145.3z M130.7,152.5h7v7h-7
		V152.5z M130.7,159.8h7v7h-7V159.8z M130.7,167h7v7h-7V167z M130.7,174.3h7v7h-7V174.3z M130.7,181.5h7v7h-7V181.5z M130.7,188.8h7
		v7h-7V188.8z M130.7,196.1h7v7h-7V196.1z M130.7,203.3h7v7h-7V203.3z M130.7,210.6h7v7h-7V210.6z M130.7,217.9h7v7h-7V217.9z
		 M130.7,225.1h7v7h-7V225.1z M130.7,232.4h7v7h-7V232.4z M130.7,239.6h7v7h-7V239.6z M130.7,246.9h7v7h-7V246.9z M130.7,254.1h7v7
		h-7V254.1z M130.7,261.4h7v7h-7V261.4z M137.9,0h7v7h-7V0z M137.9,7.3h7v7h-7V7.3z M137.9,14.6h7v7h-7V14.6z M137.9,21.8h7v7h-7
		V21.8z M137.9,29.1h7v7h-7V29.1z M137.9,36.3h7v7h-7V36.3z M137.9,43.6h7v7h-7V43.6z M137.9,50.9h7v7h-7V50.9z M137.9,58.1h7v7h-7
		V58.1z M137.9,65.4h7v7h-7V65.4z M137.9,72.7h7v7h-7V72.7z M137.9,79.9h7v7h-7V79.9z M137.9,87.2h7v7h-7V87.2z M137.9,94.4h7v7h-7
		V94.4z M137.9,101.7h7v7h-7V101.7z M137.9,108.9h7v7h-7V108.9z M137.9,116.2h7v7h-7V116.2z M137.9,123.5h7v7h-7V123.5z
		 M137.9,130.7h7v7h-7V130.7z M137.9,138h7v7h-7V138z M137.9,145.3h7v7h-7V145.3z M137.9,152.5h7v7h-7V152.5z M137.9,159.8h7v7h-7
		V159.8z M137.9,167h7v7h-7V167z M137.9,174.3h7v7h-7V174.3z M137.9,181.5h7v7h-7V181.5z M137.9,188.8h7v7h-7V188.8z M137.9,196.1h7
		v7h-7V196.1z M137.9,203.3h7v7h-7V203.3z M137.9,210.6h7v7h-7V210.6z M137.9,217.9h7v7h-7V217.9z M137.9,225.1h7v7h-7V225.1z
		 M137.9,232.4h7v7h-7V232.4z M137.9,239.6h7v7h-7V239.6z M137.9,246.9h7v7h-7V246.9z M137.9,254.1h7v7h-7V254.1z M145.2,0h7v7h-7V0
		z M145.2,7.3h7v7h-7V7.3z M145.2,14.6h7v7h-7V14.6z M145.2,21.8h7v7h-7V21.8z M145.2,36.3h7v7h-7V36.3z M145.2,43.6h7v7h-7V43.6z
		 M145.2,50.9h7v7h-7V50.9z M145.2,58.1h7v7h-7V58.1z M145.2,65.4h7v7h-7V65.4z M145.2,72.7h7v7h-7V72.7z M145.2,79.9h7v7h-7V79.9z
		 M145.2,87.2h7v7h-7V87.2z M145.2,94.4h7v7h-7V94.4z M145.2,101.7h7v7h-7V101.7z M145.2,108.9h7v7h-7V108.9z M145.2,116.2h7v7h-7
		V116.2z M145.2,123.5h7v7h-7V123.5z M145.2,130.7h7v7h-7V130.7z M145.2,138h7v7h-7V138z M145.2,145.3h7v7h-7V145.3z M145.2,152.5h7
		v7h-7V152.5z M145.2,167h7v7h-7V167z M145.2,174.3h7v7h-7V174.3z M145.2,181.5h7v7h-7V181.5z M145.2,188.8h7v7h-7V188.8z
		 M145.2,196.1h7v7h-7V196.1z M145.2,203.3h7v7h-7V203.3z M145.2,210.6h7v7h-7V210.6z M145.2,217.9h7v7h-7V217.9z M145.2,225.1h7v7
		h-7V225.1z M145.2,232.4h7v7h-7V232.4z M145.2,239.6h7v7h-7V239.6z M145.2,246.9h7v7h-7V246.9z M145.2,254.1h7v7h-7V254.1z
		 M145.2,261.4h7v7h-7V261.4z M152.4,7.3h7v7h-7V7.3z M152.4,14.6h7v7h-7V14.6z M152.4,21.8h7v7h-7V21.8z M152.4,29.1h7v7h-7V29.1z
		 M152.4,36.3h7v7h-7V36.3z M152.4,43.6h7v7h-7V43.6z M152.4,50.9h7v7h-7V50.9z M152.4,58.1h7v7h-7V58.1z M152.4,65.4h7v7h-7V65.4z
		 M152.4,72.7h7v7h-7V72.7z M152.4,79.9h7v7h-7V79.9z M152.4,87.2h7v7h-7V87.2z M152.4,94.4h7v7h-7V94.4z M152.4,101.7h7v7h-7V101.7
		z M152.4,108.9h7v7h-7V108.9z M152.4,116.2h7v7h-7V116.2z M152.4,123.5h7v7h-7V123.5z M152.4,130.7h7v7h-7V130.7z M152.4,138h7v7
		h-7V138z M152.4,145.3h7v7h-7V145.3z M152.4,152.5h7v7h-7V152.5z M152.4,167h7v7h-7V167z M152.4,174.3h7v7h-7V174.3z M152.4,181.5
		h7v7h-7V181.5z M152.4,188.8h7v7h-7V188.8z M152.4,196.1h7v7h-7V196.1z M152.4,203.3h7v7h-7V203.3z M152.4,210.6h7v7h-7V210.6z
		 M152.4,217.9h7v7h-7V217.9z M152.4,225.1h7v7h-7V225.1z M152.4,232.4h7v7h-7V232.4z M152.4,239.6h7v7h-7V239.6z M152.4,246.9h7v7
		h-7V246.9z M152.4,254.1h7v7h-7V254.1z M152.4,261.4h7v7h-7V261.4z M159.7,7.3h7v7h-7V7.3z M159.7,29.1h7v7h-7V29.1z M159.7,43.6h7
		v7h-7V43.6z M159.7,58.1h7v7h-7V58.1z M159.7,72.7h7v7h-7V72.7z M159.7,79.9h7v7h-7V79.9z M159.7,87.2h7v7h-7V87.2z M159.7,94.4h7
		v7h-7V94.4z M159.7,101.7h7v7h-7V101.7z M159.7,108.9h7v7h-7V108.9z M159.7,116.2h7v7h-7V116.2z M159.7,123.5h7v7h-7V123.5z
		 M159.7,130.7h7v7h-7V130.7z M159.7,138h7v7h-7V138z M159.7,145.3h7v7h-7V145.3z M159.7,152.5h7v7h-7V152.5z M159.7,167h7v7h-7V167
		z M159.7,174.3h7v7h-7V174.3z M159.7,181.5h7v7h-7V181.5z M159.7,188.8h7v7h-7V188.8z M159.7,196.1h7v7h-7V196.1z M159.7,203.3h7v7
		h-7V203.3z M159.7,210.6h7v7h-7V210.6z M159.7,217.9h7v7h-7V217.9z M159.7,225.1h7v7h-7V225.1z M159.7,232.4h7v7h-7V232.4z
		 M159.7,239.6h7v7h-7V239.6z M159.7,246.9h7v7h-7V246.9z M159.7,254.1h7v7h-7V254.1z M159.7,261.4h7v7h-7V261.4z M167,7.3h7v7h-7
		V7.3z M167,14.6h7v7h-7V14.6z M167,21.8h7v7h-7V21.8z M167,36.3h7v7h-7V36.3z M167,43.6h7v7h-7V43.6z M167,50.9h7v7h-7V50.9z
		 M167,58.1h7v7h-7V58.1z M167,65.4h7v7h-7V65.4z M167,72.7h7v7h-7V72.7z M167,79.9h7v7h-7V79.9z M167,87.2h7v7h-7V87.2z M167,94.4
		h7v7h-7V94.4z M167,101.7h7v7h-7V101.7z M167,108.9h7v7h-7V108.9z M167,116.2h7v7h-7V116.2z M167,123.5h7v7h-7V123.5z M167,130.7h7
		v7h-7V130.7z M167,138h7v7h-7V138z M167,145.3h7v7h-7V145.3z M167,152.5h7v7h-7V152.5z M167,167h7v7h-7V167z M167,174.3h7v7h-7
		V174.3z M167,181.5h7v7h-7V181.5z M167,188.8h7v7h-7V188.8z M167,196.1h7v7h-7V196.1z M167,203.3h7v7h-7V203.3z M167,210.6h7v7h-7
		V210.6z M167,217.9h7v7h-7V217.9z M167,225.1h7v7h-7V225.1z M167,232.4h7v7h-7V232.4z M167,239.6h7v7h-7V239.6z M167,246.9h7v7h-7
		V246.9z M167,254.1h7v7h-7V254.1z M167,261.4h7v7h-7V261.4z M174.2,7.3h7v7h-7V7.3z M174.2,14.6h7v7h-7V14.6z M174.2,21.8h7v7h-7
		V21.8z M174.2,29.1h7v7h-7V29.1z M174.2,36.3h7v7h-7V36.3z M174.2,43.6h7v7h-7V43.6z M174.2,50.9h7v7h-7V50.9z M174.2,58.1h7v7h-7
		V58.1z M174.2,65.4h7v7h-7V65.4z M174.2,72.7h7v7h-7V72.7z M174.2,79.9h7v7h-7V79.9z M174.2,87.2h7v7h-7V87.2z M174.2,94.4h7v7h-7
		V94.4z M174.2,101.7h7v7h-7V101.7z M174.2,108.9h7v7h-7V108.9z M174.2,116.2h7v7h-7V116.2z M174.2,123.5h7v7h-7V123.5z
		 M174.2,130.7h7v7h-7V130.7z M174.2,138h7v7h-7V138z M174.2,145.3h7v7h-7V145.3z M174.2,152.5h7v7h-7V152.5z M174.2,167h7v7h-7V167
		z M174.2,174.3h7v7h-7V174.3z M174.2,181.5h7v7h-7V181.5z M174.2,188.8h7v7h-7V188.8z M174.2,196.1h7v7h-7V196.1z M174.2,203.3h7v7
		h-7V203.3z M174.2,210.6h7v7h-7V210.6z M174.2,217.9h7v7h-7V217.9z M174.2,225.1h7v7h-7V225.1z M174.2,232.4h7v7h-7V232.4z
		 M174.2,239.6h7v7h-7V239.6z M174.2,246.9h7v7h-7V246.9z M174.2,254.1h7v7h-7V254.1z M174.2,261.4h7v7h-7V261.4z M181.5,14.6h7v7
		h-7V14.6z M181.5,21.8h7v7h-7V21.8z M181.5,29.1h7v7h-7V29.1z M181.5,43.6h7v7h-7V43.6z M181.5,50.9h7v7h-7V50.9z M181.5,58.1h7v7
		h-7V58.1z M181.5,65.4h7v7h-7V65.4z M181.5,72.7h7v7h-7V72.7z M181.5,87.2h7v7h-7V87.2z M181.5,101.7h7v7h-7V101.7z M181.5,108.9h7
		v7h-7V108.9z M181.5,116.2h7v7h-7V116.2z M181.5,138h7v7h-7V138z M181.5,145.3h7v7h-7V145.3z M181.5,152.5h7v7h-7V152.5z
		 M181.5,174.3h7v7h-7V174.3z M181.5,181.5h7v7h-7V181.5z M181.5,188.8h7v7h-7V188.8z M181.5,196.1h7v7h-7V196.1z M188.7,196.1h7v7
		h-7V196.1z M181.5,203.3h7v7h-7V203.3z M181.5,210.6h7v7h-7V210.6z M181.5,217.9h7v7h-7V217.9z M181.5,225.1h7v7h-7V225.1z
		 M181.5,232.4h7v7h-7V232.4z M181.5,239.6h7v7h-7V239.6z M181.5,246.9h7v7h-7V246.9z M181.5,254.1h7v7h-7V254.1z M188.7,36.3h7v7
		h-7V36.3z M188.7,43.6h7v7h-7V43.6z M188.7,79.9h7v7h-7V79.9z M188.7,87.2h7v7h-7V87.2z M188.7,94.4h7v7h-7V94.4z M188.7,101.7h7v7
		h-7V101.7z M188.7,108.9h7v7h-7V108.9z M188.7,116.2h7v7h-7V116.2z M188.7,123.5h7v7h-7V123.5z M188.7,130.7h7v7h-7V130.7z
		 M188.7,138h7v7h-7V138z M188.7,203.3h7v7h-7V203.3z M123.4,268.7h7v7h-7V268.7z M123.4,275.9h7v7h-7V275.9z M123.4,283.2h7v7h-7
		V283.2z M123.4,290.5h7v7h-7V290.5z M123.4,297.7h7v7h-7V297.7z M123.4,305h7v7h-7V305z M123.4,312.2h7v7h-7V312.2z M123.4,319.5h7
		v7h-7V319.5z M123.4,334h7v7h-7V334z M130.7,268.7h7v7h-7V268.7z M130.7,275.9h7v7h-7V275.9z M130.7,283.2h7v7h-7V283.2z
		 M130.7,290.5h7v7h-7V290.5z M130.7,297.7h7v7h-7V297.7z M130.7,305h7v7h-7V305z M130.7,312.2h7v7h-7V312.2z M130.7,319.5h7v7h-7
		V319.5z M130.7,326.7h7v7h-7V326.7z M137.9,283.2h7v7h-7V283.2z M137.9,290.5h7v7h-7V290.5z M137.9,334h7v7h-7V334z M145.2,283.2h7
		v7h-7V283.2z M145.2,305h7v7h-7V305z M145.2,312.2h7v7h-7V312.2z M145.2,319.5h7v7h-7V319.5z M145.2,326.7h7v7h-7V326.7z
		 M145.2,334h7v7h-7V334z M152.4,283.2h7v7h-7V283.2z M152.4,290.5h7v7h-7V290.5z M152.4,305h7v7h-7V305z M152.4,312.2h7v7h-7V312.2
		z M152.4,319.5h7v7h-7V319.5z M152.4,326.7h7v7h-7V326.7z M152.4,334h7v7h-7V334z M159.7,283.2h7v7h-7V283.2z M159.7,305h7v7h-7
		V305z M159.7,319.5h7v7h-7V319.5z M159.7,334h7v7h-7V334z M167,283.2h7v7h-7V283.2z M167,290.5h7v7h-7V290.5z M167,312.2h7v7h-7
		V312.2z M167,326.7h7v7h-7V326.7z M174.2,283.2h7v7h-7V283.2z M174.2,305h7v7h-7V305z M174.2,312.2h7v7h-7V312.2z M174.2,319.5h7v7
		h-7V319.5z M174.2,326.7h7v7h-7V326.7z M174.2,334h7v7h-7V334z M181.5,283.2h7v7h-7V283.2z M181.5,290.5h7v7h-7V290.5z M181.5,305
		h7v7h-7V305z M181.5,312.2h7v7h-7V312.2z M181.5,319.5h7v7h-7V319.5z M181.5,326.7h7v7h-7V326.7z M181.5,334h7v7h-7V334z
		 M123.4,348.5h7v7h-7V348.5z M123.4,363.1h7v7h-7V363.1z M123.4,377.6h7v7h-7V377.6z M123.4,384.8h7v7h-7V384.8z M123.4,392.1h7v7
		h-7V392.1z M123.4,399.3h7v7h-7V399.3z M130.7,341.3h7v7h-7V341.3z M130.7,334h7v7h-7V334z M130.7,355.8h7v7h-7V355.8z
		 M130.6,348.5h7v7h-7V348.5z M130.7,363.1h7v7h-7V363.1z M130.7,370.3h7v7h-7V370.3z M130.7,377.6h7v7h-7V377.6z M130.7,384.8h7v7
		h-7V384.8z M130.7,392.1h7v7h-7V392.1z M130.7,399.3h7v7h-7V399.3z M130.7,406.6h7v7h-7V406.6z M137.9,370.3h7v7h-7V370.3z
		 M137.9,377.6h7v7h-7V377.6z M145.2,341.3h7v7h-7V341.3z M145.2,348.5h7v7h-7V348.5z M145.2,355.8h7v7h-7V355.8z M145.2,363.1h7v7
		h-7V363.1z M145.2,384.8h7v7h-7V384.8z M145.2,392.1h7v7h-7V392.1z M145.2,399.3h7v7h-7V399.3z M145.2,406.6h7v7h-7V406.6z
		 M152.4,341.3h7v7h-7V341.3z M152.4,348.5h7v7h-7V348.5z M152.4,355.8h7v7h-7V355.8z M152.4,363.1h7v7h-7V363.1z M152.4,384.8h7v7
		h-7V384.8z M152.4,392.1h7v7h-7V392.1z M152.4,399.3h7v7h-7V399.3z M152.4,406.6h7v7h-7V406.6z M159.7,348.5h7v7h-7V348.5z
		 M159.7,363.1h7v7h-7V363.1z M159.7,384.8h7v7h-7V384.8z M159.7,399.3h7v7h-7V399.3z M167,341.3h7v7h-7V341.3z M167,355.8h7v7h-7
		V355.8z M167,392.1h7v7h-7V392.1z M167,406.6h7v7h-7V406.6z M174.2,341.3h7v7h-7V341.3z M174.2,348.5h7v7h-7V348.5z M174.2,355.8h7
		v7h-7V355.8z M174.2,363.1h7v7h-7V363.1z M174.2,384.8h7v7h-7V384.8z M174.2,392.1h7v7h-7V392.1z M174.2,399.3h7v7h-7V399.3z
		 M174.2,406.6h7v7h-7V406.6z M181.5,341.3h7v7h-7V341.3z M181.5,348.5h7v7h-7V348.5z M181.5,355.8h7v7h-7V355.8z M181.5,363.1h7v7
		h-7V363.1z M181.5,384.8h7v7h-7V384.8z M181.5,392.1h7v7h-7V392.1z M181.5,399.3h7v7h-7V399.3z M181.5,406.6h7v7h-7V406.6z
		 M123.4,413.9h7v7h-7V413.9z M123.4,428.4h7v7h-7V428.4z M123.4,435.7h7v7h-7V435.7z M123.4,442.9h7v7h-7V442.9z M123.4,450.2h7v7
		h-7V450.2z M123.4,457.4h7v7h-7V457.4z M123.4,464.7h7v7h-7V464.7z M130.7,413.9h7v7h-7V413.9z M130.7,421.1h7v7h-7V421.1z
		 M130.7,428.4h7v7h-7V428.4z M130.7,435.7h7v7h-7V435.7z M130.7,442.9h7v7h-7V442.9z M130.7,450.2h7v7h-7V450.2z M130.7,457.4h7v7
		h-7V457.4z M130.7,464.7h7v7h-7V464.7z M137.9,413.9h7v7h-7V413.9z M137.9,457.4h7v7h-7V457.4z M137.9,464.7h7v7h-7V464.7z
		 M145.2,413.9h7v7h-7V413.9z M145.2,421.1h7v7h-7V421.1z M145.2,428.4h7v7h-7V428.4z M145.2,435.7h7v7h-7V435.7z M145.2,442.9h7v7
		h-7V442.9z M145.2,457.4h7v7h-7V457.4z M152.4,413.9h7v7h-7V413.9z M152.4,421.1h7v7h-7V421.1z M152.4,428.4h7v7h-7V428.4z
		 M152.4,435.7h7v7h-7V435.7z M152.4,442.9h7v7h-7V442.9z M152.4,457.4h7v7h-7V457.4z M159.7,413.9h7v7h-7V413.9z M159.7,428.4h7v7
		h-7V428.4z M159.7,442.9h7v7h-7V442.9z M159.7,457.4h7v7h-7V457.4z M167,421.1h7v7h-7V421.1z M167,435.7h7v7h-7V435.7z M167,457.4
		h7v7h-7V457.4z M174.2,413.9h7v7h-7V413.9z M174.2,421.1h7v7h-7V421.1z M174.2,428.4h7v7h-7V428.4z M174.2,435.7h7v7h-7V435.7z
		 M174.2,442.9h7v7h-7V442.9z M174.2,457.4h7v7h-7V457.4z M181.5,413.9h7v7h-7V413.9z M181.5,421.1h7v7h-7V421.1z M181.5,428.4h7v7
		h-7V428.4z M181.5,435.7h7v7h-7V435.7z M181.5,442.9h7v7h-7V442.9z M181.5,457.4h7v7h-7V457.4z M196,43.6h7v7h-7V43.6z M203.3,43.6
		h7v7h-7V43.6z"/>
</g>
</svg>
