<?xml version="1.0" encoding="utf-8"?>
<!-- Generator: Adobe Illustrator 27.3.1, SVG Export Plug-In . SVG Version: 6.00 Build 0)  -->
<svg version="1.1" xmlns="http://www.w3.org/2000/svg" xmlns:xlink="http://www.w3.org/1999/xlink" x="0px" y="0px"
	 viewBox="0 0 195.7 871" style="enable-background:new 0 0 195.7 871;" xml:space="preserve">
<style type="text/css">
	.st0{fill:#FCE19B;}
	.st1{fill:#1E0E01;}
</style>
<g id="Слой_2">
	<path class="st0" d="M29-2c-1.1,0-2,0.9-2,2v5.3h-5.2c-1.1,0-2,0.9-2,2v5.3h-5.3c-1.1,0-2,0.9-2,2v7c0,0,0,0.1,0,0.1
		c0,0,0,0.1,0,0.1v5.3H7.3c-0.1,0-0.1,0-0.1,0c0,0-0.1,0-0.2,0H0c-1.1,0-2,0.9-2,2v7c0,1.1,0.9,2,2,2h7c0.1,0,0.1,0,0.2,0
		c0,0,0.1,0,0.1,0h5.2v5.2c0,0.1,0,0.1,0,0.1c0,0,0,0.1,0,0.2v5.3H7.3c-1.1,0-2,0.9-2,2v7c0,0,0,0.1,0,0.1c0,0,0,0.1,0,0.1v7
		c0,0.1,0,0.1,0,0.1c0,0,0,0.1,0,0.2v7c0,0,0,0.1,0,0.1c0,0,0,0.1,0,0.1v7c0,0.1,0,0.1,0,0.1c0,0,0,0.1,0,0.2v7c0,0.1,0,0.1,0,0.2
		c0,0,0,0.1,0,0.2v7c0,0,0,0.1,0,0.1c0,0,0,0.1,0,0.1v7c0,0.1,0,0.1,0,0.2c0,0,0,0.1,0,0.2v7c0,0,0,0.1,0,0.1c0,0,0,0.1,0,0.1v7
		c0,0.1,0,0.1,0,0.2c0,0,0,0.1,0,0.2v7c0,0.1,0,0.1,0,0.2c0,0,0,0.1,0,0.1v7c0,0,0,0.1,0,0.1c0,0,0,0.1,0,0.1v7c0,0.1,0,0.1,0,0.2
		c0,0,0,0.1,0,0.1v7c0,0,0,0.1,0,0.1c0,0,0,0.1,0,0.1v7c0,0.1,0,0.1,0,0.2c0,0,0,0.1,0,0.1v7c0,0.1,0,0.1,0,0.1c0,0,0,0.1,0,0.2v7
		c0,1.1,0.9,2,2,2h5.2v5.2c0,1.1,0.9,2,2,2h7c0.1,0,0.1,0,0.2,0c0,0,0.1,0,0.1,0H27v5.3c0,0,0,0.1,0,0.1c0,0,0,0.1,0,0.1v7
		c0,0.1,0,0.1,0,0.1c0,0,0,0.1,0,0.2v7c0,0.1,0,0.1,0,0.1c0,0,0,0.1,0,0.2v5.2h-5.2c-1.1,0-2,0.9-2,2v5.3h-5.3c-1.1,0-2,0.9-2,2v7
		c0,0,0,0.1,0,0.1c0,0,0,0.1,0,0.1v7c0,0.1,0,0.1,0,0.1c0,0,0,0.1,0,0.2v7c0,1.1,0.9,2,2,2h5.3v5.3c0,1.1,0.9,2,2,2H27v3.5h-5.2
		c-1.1,0-2,0.9-2,2v5.2h-5.3c-1.1,0-2,0.9-2,2v7c0,0.1,0,0.1,0,0.1c0,0,0,0.1,0,0.2v7c0,0.1,0,0.1,0,0.2c0,0,0,0.1,0,0.2v7
		c0,0,0,0.1,0,0.1c0,0,0,0.1,0,0.1v7c0,0.1,0,0.1,0,0.2c0,0,0,0.1,0,0.2v7c0,1.1,0.9,2,2,2h5.3v5.2c0,1.1,0.9,2,2,2H27v5.3
		c0,1.1,0.9,2,2,2h5.3v3.5H29c0,0-0.1,0-0.1,0c0,0-0.1,0-0.1,0h-7c-0.1,0-0.1,0-0.1,0c0,0-0.1,0-0.2,0h-7c-1.1,0-2,0.9-2,2v7
		c0,0.1,0,0.1,0,0.2c0,0,0,0.1,0,0.1v7c0,0,0,0.1,0,0.1c0,0,0,0.1,0,0.1v7c0,0.1,0,0.1,0,0.2c0,0,0,0.1,0,0.1v7c0,0.1,0,0.1,0,0.1
		c0,0,0,0.1,0,0.2v7c0,0,0,0.1,0,0.1c0,0,0,0.1,0,0.1v7c0,0.1,0,0.1,0,0.1c0,0,0,0.1,0,0.2v7c0,0,0,0.1,0,0.1c0,0,0,0.1,0,0.1v7
		c0,0.1,0,0.1,0,0.1c0,0,0,0.1,0,0.2v7c0,0.1,0,0.1,0,0.1c0,0,0,0.1,0,0.2v7c0,0,0,0.1,0,0.1c0,0,0,0.1,0,0.1v7c0,0.1,0,0.1,0,0.1
		c0,0,0,0.1,0,0.2v7c0,1.1,0.9,2,2,2h7c0.1,0,0.1,0,0.2,0c0,0,0.1,0,0.1,0h7c0,0,0.1,0,0.1,0c0,0,0.1,0,0.1,0h5.3v5.2
		c0,0.1,0,0.1,0,0.1c0,0,0,0.1,0,0.2v7c0,0.1,0,0.1,0,0.1c0,0,0,0.1,0,0.2v7c0,0,0,0.1,0,0.1c0,0,0,0.1,0,0.1v7c0,0.1,0,0.1,0,0.1
		c0,0,0,0.1,0,0.2v7c0,0,0,0.1,0,0.1c0,0,0,0.1,0,0.1v7c0,0.1,0,0.1,0,0.1c0,0,0,0.1,0,0.2v7c0,0.1,0,0.1,0,0.1c0,0,0,0.1,0,0.1v7
		c0,0,0,0.1,0,0.1c0,0,0,0.1,0,0.1v7c0,0.1,0,0.1,0,0.1c0,0,0,0.1,0,0.1v7c0,0,0,0.1,0,0.1c0,0,0,0.1,0,0.1v7c0,0.1,0,0.1,0,0.1
		c0,0,0,0.1,0,0.1v7c0,0.1,0,0.1,0,0.1c0,0,0,0.1,0,0.1v7c0,0,0,0.1,0,0.1c0,0,0,0.1,0,0.1v7c0,0.1,0,0.1,0,0.1c0,0,0,0.1,0,0.1v7
		c0,0,0,0.1,0,0.1c0,0,0,0.1,0,0.1v7c0,0.1,0,0.1,0,0.1c0,0,0,0.1,0,0.1v7c0,0.1,0,0.1,0,0.2c0,0,0,0.1,0,0.1v7c0,0,0,0.1,0,0.1
		c0,0,0,0.1,0,0.1v7c0,0.1,0,0.1,0,0.2c0,0,0,0.1,0,0.1v5.2H29c-1.1,0-2,0.9-2,2v7c0,0.1,0,0.1,0,0.2c0,0,0,0.1,0,0.1v7
		c0,0.1,0,0.1,0,0.1c0,0,0,0.1,0,0.1v7c0,0,0,0.1,0,0.1c0,0,0,0.1,0,0.1v5.3h-5.2c-0.1,0-0.1,0-0.1,0c0,0-0.1,0-0.2,0h-7
		c-1.1,0-2,0.9-2,2v7c0,0,0,0.1,0,0.1c0,0,0,0.1,0,0.1v7c0,0.1,0,0.1,0,0.1c0,0,0,0.1,0,0.1v7c0,0.1,0,0.1,0,0.1c0,0,0,0.1,0,0.2v7
		c0,0,0,0.1,0,0.1c0,0,0,0.1,0,0.1v7c0,0.1,0,0.1,0,0.1c0,0,0,0.1,0,0.2v7c0,0,0,0.1,0,0.1c0,0,0,0.1,0,0.1v7c0,0.1,0,0.1,0,0.1
		c0,0,0,0.1,0,0.2v7c0,0.1,0,0.1,0,0.1c0,0,0,0.1,0,0.1v7c0,0,0,0.1,0,0.1c0,0,0,0.1,0,0.1v7c0,0.1,0,0.1,0,0.1c0,0,0,0.1,0,0.1v7
		c0,1.1,0.9,2,2,2h7c0.1,0,0.1,0,0.2,0c0,0,0.1,0,0.1,0H27v5.2c0,0.1,0,0.1,0,0.1c0,0,0,0.1,0,0.1v5.3h-5.2c-0.1,0-0.1,0-0.1,0
		c0,0-0.1,0-0.2,0h-7c-1.1,0-2,0.9-2,2v7c0,0,0,0.1,0,0.1c0,0,0,0.1,0,0.1v7c0,0.1,0,0.1,0,0.1c0,0,0,0.1,0,0.1v7c0,0,0,0.1,0,0.1
		c0,0,0,0.1,0,0.1v7c0,0.1,0,0.1,0,0.1c0,0,0,0.1,0,0.1v7c0,0.1,0,0.1,0,0.2c0,0,0,0.1,0,0.1v7c0,0,0,0.1,0,0.1c0,0,0,0.1,0,0.1v7
		c0,0.1,0,0.1,0,0.2c0,0,0,0.1,0,0.1v7c0,0,0,0.1,0,0.1c0,0,0,0.1,0,0.1v7c0,0.1,0,0.1,0,0.2c0,0,0,0.1,0,0.1v7c0,0.1,0,0.1,0,0.1
		c0,0,0,0.1,0,0.1v7c0,1.1,0.9,2,2,2h7c0.1,0,0.1,0,0.2,0c0,0,0.1,0,0.1,0H27v5.2c0,0.1,0,0.1,0,0.1c0,0,0,0.1,0,0.1v5.2h-5.2
		c-0.1,0-0.1,0-0.1,0c0,0-0.1,0-0.2,0h-7c-1.1,0-2,0.9-2,2v7c0,0.1,0,0.1,0,0.1c0,0,0,0.1,0,0.1v7c0,0.1,0,0.1,0,0.1
		c0,0,0,0.1,0,0.2v7c0,0,0,0.1,0,0.1c0,0,0,0.1,0,0.1v7c0,0.1,0,0.1,0,0.1c0,0,0,0.1,0,0.2v7c0,0,0,0.1,0,0.1c0,0,0,0.1,0,0.1v7
		c0,0.1,0,0.1,0,0.1c0,0,0,0.1,0,0.2v7c0,0.1,0,0.1,0,0.1c0,0,0,0.1,0,0.1v7c0,0,0,0.1,0,0.1c0,0,0,0.1,0,0.1v7c0,0.1,0,0.1,0,0.1
		c0,0,0,0.1,0,0.1v7c0,0,0,0.1,0,0.1c0,0,0,0.1,0,0.1v7c0,1.1,0.9,2,2,2h7c0.1,0,0.1,0,0.2,0c0,0,0.1,0,0.1,0h7c0,0,0.1,0,0.1,0
		c0,0,0.1,0,0.1,0h7c0.1,0,0.1,0,0.2,0c0,0,0.1,0,0.1,0h7c0,0,0.1,0,0.1,0c0,0,0.1,0,0.1,0h5.3v5.3c0,0.1,0,0.1,0,0.1
		c0,0,0,0.1,0,0.1v5.2h-5.3c0,0-0.1,0-0.1,0c0,0-0.1,0-0.1,0h-7c-0.1,0-0.1,0-0.1,0c0,0-0.1,0-0.2,0h-7c0,0-0.1,0-0.1,0
		c0,0-0.1,0-0.1,0h-7c-0.1,0-0.1,0-0.1,0c0,0-0.1,0-0.2,0h-7c-1.1,0-2,0.9-2,2v7c0,1.1,0.9,2,2,2h5.3v5.3c0,1.1,0.9,2,2,2h7
		c1.1,0,2-0.9,2-2v-5.3h3.5v5.3c0,1.1,0.9,2,2,2h7c1.1,0,2-0.9,2-2v-5.3h3.5v5.3c0,1.1,0.9,2,2,2h7c1.1,0,2-0.9,2-2v-5.3h5.3
		c0,0,0.1,0,0.1,0c0,0,0.1,0,0.1,0h7c0.1,0,0.1,0,0.1,0c0,0,0.1,0,0.1,0h7c0.1,0,0.1,0,0.1,0c0,0,0.1,0,0.1,0h7c0,0,0.1,0,0.1,0
		c0,0,0.1,0,0.1,0h7c0.1,0,0.1,0,0.1,0c0,0,0.1,0,0.1,0h7c0,0,0.1,0,0.1,0c0,0,0.1,0,0.1,0h7c0.1,0,0.1,0,0.1,0c0,0,0.1,0,0.2,0h7
		c0,0,0.1,0,0.1,0c0,0,0.1,0,0.1,0h7c0.1,0,0.1,0,0.1,0c0,0,0.1,0,0.2,0h7c0.1,0,0.1,0,0.1,0c0,0,0.1,0,0.2,0h5.2v5.3
		c0,1.1,0.9,2,2,2h7c1.1,0,2-0.9,2-2v-5.3h3.6v5.3c0,1.1,0.9,2,2,2h7c1.1,0,2-0.9,2-2v-5.3h3.5v5.3c0,1.1,0.9,2,2,2h7
		c1.1,0,2-0.9,2-2v-5.3h5.2c1.1,0,2-0.9,2-2v-7c0-1.1-0.9-2-2-2h-7c0,0-0.1,0-0.1,0c0,0-0.1,0-0.1,0h-7c-0.1,0-0.1,0-0.2,0
		c0,0-0.1,0-0.2,0h-7c0,0-0.1,0-0.1,0c0,0-0.1,0-0.1,0h-7c-0.1,0-0.1,0-0.2,0c0,0-0.1,0-0.2,0h-5.3v-5.2c0-0.1,0-0.1,0-0.1
		c0,0,0-0.1,0-0.1v-5.3h5.3c0.1,0,0.1,0,0.2,0c0,0,0.1,0,0.2,0h7c0,0,0.1,0,0.1,0c0,0,0.1,0,0.1,0h7c0.1,0,0.1,0,0.2,0
		c0,0,0.1,0,0.2,0h7c0,0,0.1,0,0.1,0c0,0,0.1,0,0.1,0h7c1.1,0,2-0.9,2-2v-7c0,0,0-0.1,0-0.1c0,0,0-0.1,0-0.1v-7c0-0.1,0-0.1,0-0.1
		c0,0,0-0.1,0-0.1v-7c0,0,0-0.1,0-0.1c0,0,0-0.1,0-0.1v-7c0-0.1,0-0.1,0-0.1c0,0,0-0.1,0-0.1v-7c0-0.1,0-0.1,0-0.2c0,0,0-0.1,0-0.1
		v-7c0,0,0-0.1,0-0.1c0,0,0-0.1,0-0.1v-7c0-0.1,0-0.1,0-0.2c0,0,0-0.1,0-0.1v-7c0,0,0-0.1,0-0.1c0,0,0-0.1,0-0.1v-7
		c0-0.1,0-0.1,0-0.2c0,0,0-0.1,0-0.1v-7c0-0.1,0-0.1,0-0.1c0,0,0-0.1,0-0.1v-7c0-1.1-0.9-2-2-2h-7c0,0-0.1,0-0.1,0c0,0-0.1,0-0.1,0
		h-5.3v-5.2c0-0.1,0-0.1,0-0.1c0,0,0-0.1,0-0.1v-5.2h5.3c0,0,0.1,0,0.1,0c0,0,0.1,0,0.1,0h7c1.1,0,2-0.9,2-2v-7c0-0.1,0-0.1,0-0.1
		c0,0,0-0.1,0-0.1v-7c0-0.1,0-0.1,0-0.1c0,0,0-0.1,0-0.2v-7c0,0,0-0.1,0-0.1c0,0,0-0.1,0-0.1v-7c0-0.1,0-0.1,0-0.1c0,0,0-0.1,0-0.2
		v-7c0,0,0-0.1,0-0.1c0,0,0-0.1,0-0.1v-7c0-0.1,0-0.1,0-0.1c0,0,0-0.1,0-0.2v-7c0-0.1,0-0.1,0-0.1c0,0,0-0.1,0-0.1v-7
		c0,0,0-0.1,0-0.1c0,0,0-0.1,0-0.1v-7c0-0.1,0-0.1,0-0.1c0,0,0-0.1,0-0.1v-7c0,0,0-0.1,0-0.1c0,0,0-0.1,0-0.1v-7c0-1.1-0.9-2-2-2h-7
		c0,0-0.1,0-0.1,0c0,0-0.1,0-0.1,0h-5.3v-5.3c0-0.1,0-0.1,0-0.1c0,0,0-0.1,0-0.1v-5.2h5.3c0.1,0,0.1,0,0.2,0c0,0,0.1,0,0.1,0h7
		c1.1,0,2-0.9,2-2v-7c0-0.1,0-0.1,0-0.1c0,0,0-0.1,0-0.1v-7c0,0,0-0.1,0-0.1c0,0,0-0.1,0-0.1v-7c0-0.1,0-0.1,0-0.1c0,0,0-0.1,0-0.1
		v-7c0-0.1,0-0.1,0-0.2c0,0,0-0.1,0-0.1v-7c0-0.1,0-0.1,0-0.2v-7c0-0.1,0-0.1,0-0.2c0,0,0-0.1,0-0.1v-7c0-0.1,0-0.1,0-0.2v-7
		c0-0.1,0-0.1,0-0.2c0,0,0-0.1,0-0.1v-7c0-0.1,0-0.1,0-0.1c0,0,0-0.1,0-0.1v-7c0,0,0-0.1,0-0.1c0,0,0-0.1,0-0.1v-7c0-1.1-0.9-2-2-2
		h-7c-0.1,0-0.1,0-0.1,0c0,0-0.1,0-0.2,0h-5.3v-5.3c0,0,0-0.1,0-0.1c0,0,0-0.1,0-0.1v-7c0-0.1,0-0.1,0-0.1c0,0,0-0.1,0-0.1v-7
		c0-0.1,0-0.1,0-0.1c0,0,0-0.1,0-0.2v-7c0-1.1-0.9-2-2-2h-5.2v-5.2c0-0.1,0-0.1,0-0.1c0,0,0-0.1,0-0.2v-7c0-0.1,0-0.1,0-0.2v-7
		c0-0.1,0-0.1,0-0.1c0,0,0-0.1,0-0.2v-7c0-0.1,0-0.1,0-0.1c0,0,0-0.1,0-0.1v-7c0-0.1,0-0.1,0-0.2v-7c0-0.1,0-0.1,0-0.1
		c0,0,0-0.1,0-0.1v-7c0-0.1,0-0.1,0-0.2v-7c0-0.1,0-0.1,0-0.1c0,0,0-0.1,0-0.1v-7c0-0.1,0-0.1,0-0.1c0,0,0-0.1,0-0.1v-7
		c0-0.1,0-0.1,0-0.2v-7c0-0.1,0-0.1,0-0.1c0,0,0-0.1,0-0.1v-7c0-0.1,0-0.1,0-0.2v-7c0-0.1,0-0.1,0-0.1c0,0,0-0.1,0-0.1v-7
		c0-0.1,0-0.1,0-0.2c0,0,0-0.1,0-0.1v-7c0-0.1,0-0.1,0-0.2v-7c0-0.1,0-0.1,0-0.2c0,0,0-0.1,0-0.1v-7c0-0.1,0-0.1,0-0.2v-7
		c0-0.1,0-0.1,0-0.2c0,0,0-0.1,0-0.1v-7c0-0.1,0-0.1,0-0.2c0,0,0-0.1,0-0.1v-5.2h5.2c0.1,0,0.1,0,0.2,0c0,0,0.1,0,0.2,0h7
		c0,0,0.1,0,0.1,0c0,0,0.1,0,0.1,0h7c1.1,0,2-0.9,2-2v-7c0-0.1,0-0.1,0-0.2c0,0,0-0.1,0-0.1v-7c0,0,0-0.1,0-0.1c0,0,0-0.1,0-0.1v-7
		c0-0.1,0-0.1,0-0.2c0,0,0-0.1,0-0.1v-7c0-0.1,0-0.1,0-0.2c0,0,0-0.1,0-0.1v-7c0,0,0-0.1,0-0.1c0,0,0-0.1,0-0.1v-7
		c0-0.1,0-0.1,0-0.2c0,0,0-0.1,0-0.1v-7c0,0,0-0.1,0-0.1c0,0,0-0.1,0-0.1v-7c0-0.1,0-0.1,0-0.2c0,0,0-0.1,0-0.1v-7
		c0-0.1,0-0.1,0-0.1c0,0,0-0.1,0-0.2v-7c0,0,0-0.1,0-0.1c0,0,0-0.1,0-0.1v-7c0-0.1,0-0.1,0-0.1c0,0,0-0.1,0-0.2v-7c0-1.1-0.9-2-2-2
		h-7c0,0-0.1,0-0.1,0c0,0-0.1,0-0.1,0h-7c-0.1,0-0.1,0-0.2,0c0,0-0.1,0-0.2,0h-5.2V305c0-0.1,0-0.1,0-0.1c0,0,0-0.1,0-0.2v-5.3h5.2
		c0.1,0,0.1,0,0.2,0c0,0,0.1,0,0.2,0h7c0,0,0.1,0,0.1,0c0,0,0.1,0,0.1,0h7c1.1,0,2-0.9,2-2v-7c0,0,0-0.1,0-0.1c0,0,0-0.1,0-0.1v-7
		c0-0.1,0-0.1,0-0.2c0,0,0-0.1,0-0.2v-7c0,0,0-0.1,0-0.1c0,0,0-0.1,0-0.1v-7c0-0.1,0-0.1,0-0.2c0,0,0-0.1,0-0.2v-7
		c0-0.1,0-0.1,0-0.2c0,0,0-0.1,0-0.1v-7c0,0,0-0.1,0-0.1c0,0,0-0.1,0-0.1v-7c0-0.1,0-0.1,0-0.2c0,0,0-0.1,0-0.1v-7c0,0,0-0.1,0-0.1
		c0,0,0-0.1,0-0.1v-7c0-0.1,0-0.1,0-0.2c0,0,0-0.1,0-0.1v-7c0-0.1,0-0.1,0-0.2c0,0,0-0.1,0-0.1v-7c0,0,0-0.1,0-0.1c0,0,0-0.1,0-0.1
		v-7c0-0.1,0-0.1,0-0.2c0,0,0-0.1,0-0.1v-7c0-1.1-0.9-2-2-2H176v-5.2c0-0.1,0-0.1,0-0.2c0,0,0-0.1,0-0.1v-7c0-0.1,0-0.1,0-0.2
		c0,0,0-0.1,0-0.1v-7c0-0.1,0-0.1,0-0.2V176h5.2c1.1,0,2-0.9,2-2v-5.2h5.3c1.1,0,2-0.9,2-2v-7c0-0.1,0-0.1,0-0.2c0,0,0-0.1,0-0.1v-7
		c0-0.1,0-0.1,0-0.1c0,0,0-0.1,0-0.2v-7c0-0.1,0-0.1,0-0.2v-7c0-0.1,0-0.1,0-0.1c0,0,0-0.1,0-0.2v-7c0-0.1,0-0.1,0-0.2v-7
		c0-0.1,0-0.1,0-0.1c0,0,0-0.1,0-0.2v-7c0-0.1,0-0.1,0-0.2c0,0,0-0.1,0-0.2v-7c0-0.1,0-0.1,0-0.2v-7c0-0.1,0-0.1,0-0.2
		c0,0,0-0.1,0-0.2v-7c0-0.1,0-0.1,0-0.2v-7c0-0.1,0-0.1,0-0.2c0,0,0-0.1,0-0.2v-7c0-0.1,0-0.1,0-0.2c0,0,0-0.1,0-0.1v-7
		c0-0.1,0-0.1,0-0.2v-7c0-0.1,0-0.1,0-0.2c0,0,0-0.1,0-0.1v-7c0-0.1,0-0.1,0-0.2v-7c0-1.1-0.9-2-2-2h-5.3v-5.3c0-0.1,0-0.1,0-0.2
		c0,0,0-0.1,0-0.1v-5.2h5.3c0,0,0.1,0,0.1,0c0,0,0.1,0,0.1,0h7c1.1,0,2-0.9,2-2v-7c0-1.1-0.9-2-2-2h-7c0,0-0.1,0-0.1,0
		c0,0-0.1,0-0.1,0h-5.3v-5.3c0,0,0-0.1,0-0.1c0,0,0-0.1,0-0.1v-7c0-1.1-0.9-2-2-2H176V7.3c0-1.1-0.9-2-2-2h-5.3V0c0-1.1-0.9-2-2-2
		h-7c0,0-0.1,0-0.1,0c0,0-0.1,0-0.1,0h-7c-0.1,0-0.1,0-0.2,0c0,0-0.1,0-0.2,0h-7c-0.1,0-0.1,0-0.2,0c0,0-0.1,0-0.1,0h-7
		c0,0-0.1,0-0.1,0c0,0-0.1,0-0.1,0h-7c-0.1,0-0.1,0-0.2,0c0,0-0.1,0-0.1,0h-7c-0.1,0-0.1,0-0.2,0c0,0-0.1,0-0.1,0h-7
		c0,0-0.1,0-0.1,0c0,0-0.1,0-0.1,0h-7c-0.1,0-0.1,0-0.2,0c0,0-0.1,0-0.1,0h-7c0,0-0.1,0-0.1,0c0,0-0.1,0-0.1,0h-7
		c-0.1,0-0.1,0-0.1,0c0,0-0.1,0-0.1,0h-7c0,0-0.1,0-0.1,0c0,0-0.1,0-0.1,0h-7c-0.1,0-0.1,0-0.1,0c0,0-0.1,0-0.1,0h-7
		c-0.1,0-0.1,0-0.1,0c0,0-0.1,0-0.1,0h-7c0,0-0.1,0-0.1,0c0,0-0.1,0-0.1,0h-7C58-2,58-2,58-2c0,0-0.1,0-0.1,0h-7c-0.1,0-0.1,0-0.1,0
		c0,0-0.1,0-0.2,0h-7c0,0-0.1,0-0.1,0c0,0-0.1,0-0.1,0h-7c-0.1,0-0.1,0-0.1,0c0,0-0.1,0-0.2,0H29z"/>
</g>
<g id="Слой_1">
	<path class="st1" d="M21.8,871v-7h7v7H21.8z M36.3,871v-7h7v7H36.3z M50.8,871v-7h7v7H50.8z M14.5,863.7v-7h7v7H14.5z M21.8,863.7
		v-7h7v7H21.8z M29,863.7v-7h7v7H29z M36.3,863.7v-7h7v7H36.3z M43.5,863.7v-7h7v7H43.5z M50.8,863.7v-7h7v7H50.8z M50.8,856.5v-7h7
		v7H50.8z M50.8,849.2v-7h7v7H50.8z M14.5,841.9v-7h7v7H14.5z M21.8,841.9v-7h7v7H21.8z M29,841.9v-7h7v7H29z M36.3,841.9v-7h7v7
		H36.3z M43.5,841.9v-7h7v7H43.5z M50.8,841.9v-7h7v7H50.8z M14.5,834.7v-7h7v7H14.5z M21.8,834.7v-7h7v7H21.8z M29,834.7v-7h7v7H29
		z M36.3,834.7v-7h7v7H36.3z M43.5,834.7v-7h7v7H43.5z M14.5,827.4v-7h7v7H14.5z M21.8,827.4v-7h7v7H21.8z M29,827.4v-7h7v7H29z
		 M36.3,827.4v-7h7v7H36.3z M50.8,827.4v-7h7v7H50.8z M14.5,820.2v-7h7v7H14.5z M21.8,820.2v-7h7v7H21.8z M29,820.2v-7h7v7H29z
		 M43.5,820.2v-7h7v7H43.5z M50.8,820.2v-7h7v7H50.8z M58.1,863.7v-7h7v7H58.1z M65.3,863.7v-7h7v7H65.3z M72.6,863.7v-7h7v7H72.6z
		 M79.9,863.7v-7h7v7H79.9z M87.1,863.7v-7h7v7H87.1z M94.4,863.7v-7h7v7H94.4z M101.6,863.7v-7h7v7H101.6z M108.9,863.7v-7h7v7
		H108.9z M116.1,863.7v-7h7v7H116.1z M123.4,863.7v-7h7v7H123.4z M65.3,856.5v-7h7v7H65.3z M79.9,856.5v-7h7v7H79.9z M94.4,856.5v-7
		h7v7H94.4z M108.9,856.5v-7h7v7H108.9z M123.4,856.5v-7h7v7H123.4z M58.1,849.2v-7h7v7H58.1z M65.3,849.2v-7h7v7H65.3z M72.6,849.2
		v-7h7v7H72.6z M79.9,849.2v-7h7v7H79.9z M87.1,849.2v-7h7v7H87.1z M94.4,849.2v-7h7v7H94.4z M101.6,849.2v-7h7v7H101.6z
		 M108.9,849.2v-7h7v7H108.9z M116.1,849.2v-7h7v7H116.1z M123.4,849.2v-7h7v7H123.4z M65.3,841.9v-7h7v7H65.3z M72.6,841.9v-7h7v7
		H72.6z M79.9,841.9v-7h7v7H79.9z M87.1,841.9v-7h7v7H87.1z M94.4,841.9v-7h7v7H94.4z M101.6,841.9v-7h7v7H101.6z M108.9,841.9v-7h7
		v7H108.9z M116.1,841.9v-7h7v7H116.1z M123.4,841.9v-7h7v7H123.4z M58.1,834.7v-7h7v7H58.1z M65.3,834.7v-7h7v7H65.3z M72.6,834.7
		v-7h7v7H72.6z M79.9,834.7v-7h7v7H79.9z M87.1,834.7v-7h7v7H87.1z M94.4,834.7v-7h7v7H94.4z M101.6,834.7v-7h7v7H101.6z
		 M108.9,834.7v-7h7v7H108.9z M116.1,834.7v-7h7v7H116.1z M123.4,834.7v-7h7v7H123.4z M58.1,827.4v-7h7v7H58.1z M65.3,827.4v-7h7v7
		H65.3z M72.6,827.4v-7h7v7H72.6z M79.9,827.4v-7h7v7H79.9z M87.1,827.4v-7h7v7H87.1z M94.4,827.4v-7h7v7H94.4z M101.6,827.4v-7h7v7
		H101.6z M108.9,827.4v-7h7v7H108.9z M116.1,827.4v-7h7v7H116.1z M123.4,827.4v-7h7v7H123.4z M58.1,820.2v-7h7v7H58.1z M65.3,820.2
		v-7h7v7H65.3z M72.6,820.2v-7h7v7H72.6z M79.9,820.2v-7h7v7H79.9z M87.1,820.2v-7h7v7H87.1z M94.4,820.2v-7h7v7H94.4z M101.6,820.2
		v-7h7v7H101.6z M108.9,820.2v-7h7v7H108.9z M116.1,820.2v-7h7v7H116.1z M123.4,820.2v-7h7v7H123.4z M137.9,871v-7h7v7H137.9z
		 M152.5,871v-7h7v7H152.5z M167,871v-7h7v7H167z M130.7,863.7v-7h7v7H130.7z M137.9,863.7v-7h7v7H137.9z M145.2,863.7v-7h7v7H145.2
		z M152.5,863.7v-7h7v7H152.5z M159.7,863.7v-7h7v7H159.7z M167,863.7v-7h7v7H167z M174.2,863.7v-7h7v7H174.2z M137.9,856.5v-7h7v7
		H137.9z M130.7,849.2v-7h7v7H130.7z M137.9,849.2v-7h7v7H137.9z M137.9,841.9v-7h7v7H137.9z M145.2,841.9v-7h7v7H145.2z
		 M152.5,841.9v-7h7v7H152.5z M159.7,841.9v-7h7v7H159.7z M167,841.9v-7h7v7H167z M174.2,841.9v-7h7v7H174.2z M130.7,834.7v-7h7v7
		H130.7z M145.2,834.7v-7h7v7H145.2z M152.5,834.7v-7h7v7H152.5z M159.7,834.7v-7h7v7H159.7z M167,834.7v-7h7v7H167z M174.2,834.7
		v-7h7v7H174.2z M130.7,827.4v-7h7v7H130.7z M137.9,827.4v-7h7v7H137.9z M152.5,827.4v-7h7v7H152.5z M159.7,827.4v-7h7v7H159.7z
		 M167,827.4v-7h7v7H167z M174.2,827.4v-7h7v7H174.2z M130.7,820.2v-7h7v7H130.7z M137.9,820.2v-7h7v7H137.9z M145.2,820.2v-7h7v7
		H145.2z M159.7,820.2v-7h7v7H159.7z M167,820.2v-7h7v7H167z M174.2,820.2v-7h7v7H174.2z M14.5,812.9v-7h7v7H14.5z M21.8,812.9v-7h7
		v7H21.8z M29,812.9v-7h7v7H29z M36.3,812.9v-7h7v7H36.3z M43.5,812.9v-7h7v7H43.5z M50.8,812.9v-7h7v7H50.8z M14.5,805.6v-7h7v7
		H14.5z M21.8,805.6v-7h7v7H21.8z M29,805.6v-7h7v7H29z M43.5,805.6v-7h7v7H43.5z M50.8,805.6v-7h7v7H50.8z M14.5,798.4v-7h7v7H14.5
		z M21.8,798.4v-7h7v7H21.8z M29,798.4v-7h7v7H29z M36.3,798.4v-7h7v7H36.3z M43.5,798.4v-7h7v7H43.5z M50.8,798.4v-7h7v7H50.8z
		 M14.5,791.1v-7h7v7H14.5z M21.8,791.1v-7h7v7H21.8z M29,791.1v-7h7v7H29z M43.5,791.1v-7h7v7H43.5z M50.8,791.1v-7h7v7H50.8z
		 M14.5,783.9v-7h7v7H14.5z M21.8,783.9v-7h7v7H21.8z M29,783.9v-7h7v7H29z M36.3,783.9v-7h7v7H36.3z M43.5,783.9v-7h7v7H43.5z
		 M50.8,783.9v-7h7v7H50.8z M14.5,776.6v-7h7v7H14.5z M21.8,776.6v-7h7v7H21.8z M29,776.6v-7h7v7H29z M43.5,776.6v-7h7v7H43.5z
		 M50.8,776.6v-7h7v7H50.8z M14.5,769.3v-7h7v7H14.5z M21.8,769.3v-7h7v7H21.8z M29,769.3v-7h7v7H29z M36.3,769.3v-7h7v7H36.3z
		 M43.5,769.3v-7h7v7H43.5z M50.8,769.3v-7h7v7H50.8z M29,762.1v-7h7v7H29z M43.5,762.1v-7h7v7H43.5z M50.8,762.1v-7h7v7H50.8z
		 M29,754.8v-7h7v7H29z M36.3,754.8v-7h7v7H36.3z M43.5,754.8v-7h7v7H43.5z M50.8,754.8v-7h7v7H50.8z M14.5,747.6v-7h7v7H14.5z
		 M21.8,747.6v-7h7v7H21.8z M29,747.6v-7l7,0v7H29z M43.5,747.6v-7h7v7H43.5z M50.8,747.6v-7h7v7H50.8z M58.1,812.9v-7h7v7H58.1z
		 M65.3,812.9v-7h7v7H65.3z M72.6,812.9v-7h7v7H72.6z M79.9,812.9v-7h7v7H79.9z M87.1,812.9v-7h7v7H87.1z M94.4,812.9v-7h7v7H94.4z
		 M101.6,812.9v-7h7v7H101.6z M108.9,812.9v-7h7v7H108.9z M116.1,812.9v-7h7v7H116.1z M123.4,812.9v-7h7v7H123.4z M58.1,805.6v-7h7
		v7H58.1z M65.3,805.6v-7h7v7H65.3z M72.6,805.6v-7h7v7H72.6z M79.9,805.6v-7h7v7H79.9z M87.1,805.6v-7h7v7H87.1z M94.4,805.6v-7h7
		v7H94.4z M101.6,805.6v-7h7v7H101.6z M108.9,805.6v-7h7v7H108.9z M116.1,805.6v-7h7v7H116.1z M123.4,805.6v-7h7v7H123.4z
		 M58.1,798.4v-7h7v7H58.1z M65.3,798.4v-7h7v7H65.3z M79.9,798.4v-7h7v7H79.9z M94.4,798.4v-7h7v7H94.4z M108.9,798.4v-7h7v7H108.9
		z M123.4,798.4v-7h7v7H123.4z M58.1,791.1v-7h7v7H58.1z M65.3,791.1v-7h7v7H65.3z M72.6,791.1v-7h7v7H72.6z M79.9,791.1v-7h7v7
		H79.9z M87.1,791.1v-7h7v7H87.1z M94.4,791.1v-7h7v7H94.4z M101.6,791.1v-7h7v7H101.6z M108.9,791.1v-7h7v7H108.9z M116.1,791.1v-7
		h7v7H116.1z M123.4,791.1v-7h7v7H123.4z M58.1,783.9v-7h7v7H58.1z M65.3,783.9v-7h7v7H65.3z M79.9,783.9v-7h7v7H79.9z M87.1,783.9
		v-7h7v7H87.1z M94.4,783.9v-7h7v7H94.4z M101.6,783.9v-7h7v7H101.6z M108.9,783.9v-7h7v7H108.9z M123.4,783.9v-7h7v7H123.4z
		 M58.1,776.6v-7h7v7H58.1z M65.3,776.6v-7h7v7H65.3z M72.6,776.6v-7h7v7H72.6z M79.9,776.6v-7h7v7H79.9z M87.1,776.6v-7h7v7H87.1z
		 M94.4,776.6v-7h7v7H94.4z M101.6,776.6v-7h7v7H101.6z M108.9,776.6v-7h7v7H108.9z M116.1,776.6v-7h7v7H116.1z M123.4,776.6v-7h7v7
		H123.4z M58.1,769.3v-7h7v7H58.1z M65.3,769.3v-7h7v7H65.3z M79.9,769.3v-7h7v7H79.9z M87.1,769.3v-7h7v7H87.1z M94.4,769.3v-7h7v7
		H94.4z M101.6,769.3v-7h7v7H101.6z M108.9,769.3v-7h7v7H108.9z M123.4,769.3v-7h7v7H123.4z M58.1,762.1v-7h7v7H58.1z M65.3,762.1
		v-7h7v7H65.3z M72.6,762.1v-7h7v7H72.6z M79.9,762.1v-7h7v7H79.9z M87.1,762.1v-7h7v7H87.1z M94.4,762.1v-7h7v7H94.4z M101.6,762.1
		v-7h7v7H101.6z M108.9,762.1v-7h7v7H108.9z M116.1,762.1v-7h7v7H116.1z M123.4,762.1v-7h7v7H123.4z M58.1,754.8v-7h7v7H58.1z
		 M65.3,754.8v-7h7v7H65.3z M79.9,754.8v-7h7v7H79.9z M87.1,754.8v-7h7v7H87.1z M94.4,754.8v-7h7v7H94.4z M101.6,754.8v-7h7v7H101.6
		z M108.9,754.8v-7h7v7H108.9z M123.4,754.8v-7h7v7H123.4z M58.1,747.6v-7h7v7H58.1z M65.3,747.6v-7h7v7H65.3z M72.6,747.6v-7h7v7
		H72.6z M79.9,747.6v-7h7v7H79.9z M87.1,747.6v-7h7v7H87.1z M94.4,747.6v-7h7v7H94.4z M101.6,747.6v-7h7v7H101.6z M108.9,747.6v-7h7
		v7H108.9z M116.1,747.6v-7h7v7H116.1z M123.4,747.6v-7h7v7H123.4z M130.7,812.9v-7h7v7H130.7z M137.9,812.9v-7h7v7H137.9z
		 M145.2,812.9v-7h7v7H145.2z M152.5,812.9v-7h7v7H152.5z M159.7,812.9v-7h7v7H159.7z M167,812.9v-7h7v7H167z M174.2,812.9v-7h7v7
		H174.2z M130.7,805.6v-7h7v7H130.7z M137.9,805.6v-7h7v7H137.9z M145.2,805.6v-7h7v7H145.2z M159.7,805.6v-7h7v7H159.7z M167,805.6
		v-7h7v7H167z M174.2,805.6v-7h7v7H174.2z M130.7,798.4v-7h7v7H130.7z M137.9,798.4v-7h7v7H137.9z M145.2,798.4v-7h7v7H145.2z
		 M152.5,798.4v-7h7v7H152.5z M159.7,798.4v-7h7v7H159.7z M167,798.4v-7h7v7H167z M174.2,798.4v-7h7v7H174.2z M130.7,791.1v-7h7v7
		H130.7z M137.9,791.1v-7h7v7H137.9z M145.2,791.1v-7h7v7H145.2z M159.7,791.1v-7h7v7H159.7z M167,791.1v-7h7v7H167z M174.2,791.1
		v-7h7v7H174.2z M130.7,783.9v-7h7v7H130.7z M137.9,783.9v-7h7v7H137.9z M145.2,783.9v-7h7v7H145.2z M152.5,783.9v-7h7v7H152.5z
		 M159.7,783.9v-7h7v7H159.7z M167,783.9v-7h7v7H167z M174.2,783.9v-7h7v7H174.2z M130.7,776.6v-7h7v7H130.7z M137.9,776.6v-7h7v7
		H137.9z M145.2,776.6v-7h7v7H145.2z M159.7,776.6v-7h7v7H159.7z M167,776.6v-7h7v7H167z M174.2,776.6v-7h7v7H174.2z M130.7,769.3
		v-7h7v7H130.7z M137.9,769.3v-7h7v7H137.9z M145.2,769.3v-7h7v7H145.2z M152.5,769.3v-7h7v7H152.5z M159.7,769.3v-7h7v7H159.7z
		 M167,769.3v-7h7v7H167z M174.2,769.3v-7h7v7H174.2z M130.7,762.1v-7h7v7H130.7z M137.9,762.1v-7h7v7H137.9z M145.2,762.1v-7h7v7
		H145.2z M159.7,762.1v-7h7v7H159.7z M130.7,754.8v-7h7v7H130.7z M137.9,754.8v-7h7v7H137.9z M145.2,754.8v-7h7v7H145.2z
		 M152.5,754.8v-7h7v7H152.5z M159.7,754.8v-7h7v7H159.7z M130.7,747.6v-7h7v7H130.7z M137.9,747.6v-7h7v7H137.9z M145.2,747.6v-7h7
		v7H145.2z M159.7,747.6v-7h7v7H159.7z M167,747.6v-7h7v7H167z M174.2,747.6v-7h7v7H174.2z M14.5,740.3v-7h7v7H14.5z M21.8,740.3v-7
		h7v7H21.8z M29,740.3v-7h7v7H29z M36.3,740.3v-7h7v7H36.3z M43.5,740.3v-7h7v7H43.5z M50.8,740.3v-7h7v7H50.8z M14.5,733v-7h7v7
		H14.5z M21.8,733v-7h7v7H21.8z M29,733v-7h7v7H29z M43.5,733v-7h7v7H43.5z M50.8,733v-7h7v7H50.8z M14.5,725.8v-7h7v7H14.5z
		 M21.8,725.8v-7h7v7H21.8z M29,725.8v-7h7v7H29z M36.3,725.8v-7h7v7H36.3z M43.5,725.8v-7h7v7H43.5z M50.8,725.8v-7h7v7H50.8z
		 M14.5,718.5v-7h7v7H14.5z M21.8,718.5v-7h7v7H21.8z M29,718.5v-7h7v7H29z M43.5,718.5v-7h7v7H43.5z M50.8,718.5v-7h7v7H50.8z
		 M14.5,711.3v-7h7v7H14.5z M21.8,711.3v-7h7v7H21.8z M29,711.3v-7h7v7H29z M36.3,711.3v-7h7v7H36.3z M43.5,711.3v-7h7v7H43.5z
		 M50.8,711.3v-7h7v7H50.8z M14.5,704v-7h7v7H14.5z M21.8,704v-7h7v7H21.8z M29,704v-7h7v7H29z M43.5,704v-7h7v7H43.5z M50.8,704v-7
		h7v7H50.8z M14.5,696.7v-7h7v7H14.5z M21.8,696.7v-7h7v7H21.8z M29,696.7v-7h7v7H29z M36.3,696.7v-7h7v7H36.3z M43.5,696.7v-7h7v7
		H43.5z M50.8,696.7v-7h7v7H50.8z M14.5,689.5v-7h7v7H14.5z M21.8,689.5v-7h7v7H21.8z M29,689.5v-7h7v7H29z M43.5,689.5v-7h7v7H43.5
		z M50.8,689.5v-7h7v7H50.8z M14.5,682.2v-7h7v7H14.5z M21.8,682.2v-7h7v7H21.8z M29,682.2v-7h7v7H29z M36.3,682.2v-7h7v7H36.3z
		 M43.5,682.2v-7h7v7H43.5z M50.8,682.2v-7h7v7H50.8z M14.5,675v-7h7v7H14.5z M21.8,675v-7h7v7H21.8z M29,675v-7h7v7H29z M43.5,675
		v-7h7v7H43.5z M50.8,675v-7h7v7H50.8z M58.1,740.3v-7h7v7H58.1z M65.3,740.3v-7h7v7H65.3z M79.9,740.3v-7h7v7H79.9z M94.4,740.3v-7
		h7v7H94.4z M108.9,740.3v-7h7v7H108.9z M123.4,740.3v-7h7v7H123.4z M58.1,733v-7h7v7H58.1z M65.3,733v-7h7v7H65.3z M72.6,733v-7h7
		v7H72.6z M79.9,733v-7h7v7H79.9z M87.1,733v-7h7v7H87.1z M94.4,733v-7h7v7H94.4z M101.6,733v-7h7v7H101.6z M108.9,733v-7h7v7H108.9
		z M116.1,733v-7h7v7H116.1z M123.4,733v-7h7v7H123.4z M58.1,725.8v-7h7v7H58.1z M65.3,725.8v-7h7v7H65.3z M72.6,725.8v-7h7v7H72.6z
		 M79.9,725.8v-7h7v7H79.9z M87.1,725.8v-7h7v7H87.1z M94.4,725.8v-7h7v7H94.4z M101.6,725.8v-7h7v7H101.6z M108.9,725.8v-7h7v7
		H108.9z M116.1,725.8v-7h7v7H116.1z M123.4,725.8v-7h7v7H123.4z M58.1,718.5v-7h7v7H58.1z M65.3,718.5v-7h7v7H65.3z M72.6,718.5v-7
		h7v7H72.6z M79.9,718.5v-7h7v7H79.9z M101.6,718.5v-7h7v7H101.6z M108.9,718.5v-7h7v7H108.9z M116.1,718.5v-7h7v7H116.1z
		 M123.4,718.5v-7h7v7H123.4z M58.1,711.3v-7h7v7H58.1z M65.3,711.3v-7h7v7H65.3z M72.6,711.3v-7h7v7H72.6z M87.1,711.3v-7h7v7H87.1
		z M94.4,711.3v-7h7v7H94.4z M108.9,711.3v-7h7v7H108.9z M116.1,711.3v-7h7v7H116.1z M123.4,711.3v-7h7v7H123.4z M58.1,704v-7h7v7
		H58.1z M65.3,704v-7h7v7H65.3z M72.6,704v-7h7v7H72.6z M87.1,704v-7h7v7H87.1z M94.4,704v-7h7v7H94.4z M108.9,704v-7h7v7H108.9z
		 M116.1,704v-7h7v7H116.1z M123.4,704v-7h7v7H123.4z M58.1,696.7v-7h7v7H58.1z M65.3,696.7v-7h7v7H65.3z M72.6,696.7v-7h7v7H72.6z
		 M79.9,696.7v-7h7v7H79.9z M101.6,696.7v-7h7v7H101.6z M108.9,696.7v-7h7v7H108.9z M116.1,696.7v-7h7v7H116.1z M123.4,696.7v-7h7v7
		H123.4z M58.1,689.5v-7h7v7H58.1z M65.3,689.5v-7h7v7H65.3z M72.6,689.5v-7h7v7H72.6z M79.9,689.5v-7h7v7H79.9z M87.1,689.5v-7h7v7
		H87.1z M94.4,689.5v-7h7v7H94.4z M101.6,689.5v-7h7v7H101.6z M108.9,689.5v-7h7v7H108.9z M116.1,689.5v-7h7v7H116.1z M123.4,689.5
		v-7h7v7H123.4z M58.1,682.2v-7h7v7H58.1z M65.3,682.2v-7h7v7H65.3z M79.9,682.2v-7h7v7H79.9z M94.4,682.2v-7h7v7H94.4z
		 M108.9,682.2v-7h7v7H108.9z M123.4,682.2v-7h7v7H123.4z M58.1,675v-7h7v7H58.1z M65.3,675v-7h7v7H65.3z M72.6,675v-7h7v7H72.6z
		 M79.9,675v-7h7v7H79.9z M87.1,675v-7h7v7H87.1z M94.4,675v-7h7v7H94.4z M101.6,675v-7h7v7H101.6z M108.9,675v-7h7v7H108.9z
		 M116.1,675v-7h7v7H116.1z M123.4,675v-7h7v7H123.4z M130.7,740.3v-7h7v7H130.7z M137.9,740.3v-7h7v7H137.9z M145.2,740.3v-7h7v7
		H145.2z M152.5,740.3v-7h7v7H152.5z M159.7,740.3v-7h7v7H159.7z M167,740.3v-7h7v7H167z M174.2,740.3v-7h7v7H174.2z M130.7,733v-7
		h7v7H130.7z M137.9,733v-7h7v7H137.9z M145.2,733v-7h7v7H145.2z M159.7,733v-7h7v7H159.7z M167,733v-7h7v7H167z M174.2,733v-7h7v7
		H174.2z M130.7,725.8v-7h7v7H130.7z M137.9,725.8v-7h7v7H137.9z M145.2,725.8v-7h7v7H145.2z M152.5,725.8v-7h7v7H152.5z
		 M159.7,725.8v-7h7v7H159.7z M167,725.8v-7h7v7H167z M174.2,725.8v-7h7v7H174.2z M130.7,718.5v-7h7v7H130.7z M137.9,718.5v-7h7v7
		H137.9z M145.2,718.5v-7h7v7H145.2z M159.7,718.5v-7h7v7H159.7z M167,718.5v-7h7v7H167z M174.2,718.5v-7h7v7H174.2z M130.7,711.3
		v-7h7v7H130.7z M137.9,711.3v-7h7v7H137.9z M145.2,711.3v-7h7v7H145.2z M152.5,711.3v-7h7v7H152.5z M159.7,711.3v-7h7v7H159.7z
		 M167,711.3v-7h7v7H167z M174.2,711.3v-7h7v7H174.2z M130.7,704v-7h7v7H130.7z M137.9,704v-7h7v7H137.9z M145.2,704v-7h7v7H145.2z
		 M159.7,704v-7h7v7H159.7z M167,704v-7h7v7H167z M174.2,704v-7h7v7H174.2z M130.7,696.7v-7h7v7H130.7z M137.9,696.7v-7h7v7H137.9z
		 M145.2,696.7v-7h7v7H145.2z M152.5,696.7v-7h7v7H152.5z M159.7,696.7v-7h7v7H159.7z M167,696.7v-7h7v7H167z M174.2,696.7v-7h7v7
		H174.2z M130.7,689.5v-7h7v7H130.7z M137.9,689.5v-7h7v7H137.9z M145.2,689.5v-7h7v7H145.2z M159.7,689.5v-7h7v7H159.7z M167,689.5
		v-7h7v7H167z M174.2,689.5v-7h7v7H174.2z M130.7,682.2v-7h7v7H130.7z M137.9,682.2v-7h7v7H137.9z M145.2,682.2v-7h7v7H145.2z
		 M152.5,682.2v-7h7v7H152.5z M159.7,682.2v-7h7v7H159.7z M167,682.2v-7h7v7H167z M174.2,682.2v-7h7v7H174.2z M130.7,675v-7h7v7
		H130.7z M137.9,675v-7h7v7H137.9z M145.2,675v-7h7v7H145.2z M159.7,675v-7h7v7H159.7z M167,675v-7h7v7H167z M174.2,675v-7h7v7
		H174.2z M29,667.7v-7h7v7H29z M36.3,667.7v-7h7v7H36.3z M43.5,667.7v-7h7v7H43.5z M50.8,667.7v-7h7v7H50.8z M29,660.4v-7h7v7H29z
		 M43.5,660.4v-7h7v7H43.5z M50.8,660.4v-7h7v7H50.8z M14.5,653.2v-7h7v7H14.5z M21.8,653.2v-7h7v7H21.8z M29,653.2v-7h7v7H29z
		 M36.3,653.2v-7h7v7H36.3z M43.5,653.2v-7h7v7H43.5z M50.8,653.2v-7h7v7H50.8z M14.5,645.9v-7h7v7H14.5z M21.8,645.9v-7h7v7H21.8z
		 M29,645.9v-7h7v7H29z M43.5,645.9v-7h7v7H43.5z M50.8,645.9v-7h7v7H50.8z M14.5,638.7v-7h7v7H14.5z M21.8,638.7v-7h7v7H21.8z
		 M29,638.7v-7h7v7H29z M36.3,638.7v-7h7v7H36.3z M43.5,638.7v-7h7v7H43.5z M50.8,638.7v-7h7v7H50.8z M14.5,631.4v-7h7v7H14.5z
		 M21.8,631.4v-7h7v7H21.8z M29,631.4v-7h7v7H29z M43.5,631.4v-7h7v7H43.5z M50.8,631.4v-7h7v7H50.8z M14.5,624.1v-7h7v7H14.5z
		 M21.8,624.1v-7h7v7H21.8z M29,624.1v-7l7,0v7L29,624.1z M36.3,624.1v-7h7v7H36.3z M43.5,624.1v-7h7v7H43.5z M50.8,624.1v-7h7v7
		H50.8z M14.5,616.9v-7h7v7H14.5z M21.8,616.9v-7h7v7H21.8z M29,616.9v-7h7v7H29z M43.5,616.9v-7h7v7H43.5z M50.8,616.9v-7h7v7H50.8
		z M14.5,609.6v-7h7v7H14.5z M21.8,609.6v-7h7v7H21.8z M29,609.6v-7l7,0v7L29,609.6z M36.3,609.6v-7h7v7H36.3z M43.5,609.6v-7h7v7
		H43.5z M50.8,609.6v-7h7v7H50.8z M14.5,602.4v-7h7v7H14.5z M21.8,602.4v-7h7v7H21.8z M29,602.4v-7h7v7H29z M43.5,602.4v-7h7v7H43.5
		z M50.8,602.4v-7h7v7H50.8z M58.1,667.7v-7h7v7H58.1z M65.3,667.7v-7h7v7H65.3z M79.9,667.7v-7h7v7H79.9z M87.1,667.7v-7h7v7H87.1z
		 M94.4,667.7v-7h7v7H94.4z M101.6,667.7v-7h7v7H101.6z M108.9,667.7v-7h7v7H108.9z M123.4,667.7v-7h7v7H123.4z M58.1,660.4v-7h7v7
		H58.1z M65.3,660.4v-7h7v7H65.3z M72.6,660.4v-7h7v7H72.6z M79.9,660.4v-7h7v7H79.9z M87.1,660.4v-7h7v7H87.1z M94.4,660.4v-7h7v7
		H94.4z M101.6,660.4v-7h7v7H101.6z M108.9,660.4v-7h7v7H108.9z M116.1,660.4v-7h7v7H116.1z M123.4,660.4v-7h7v7H123.4z M58.1,653.2
		v-7h7v7H58.1z M65.3,653.2v-7h7v7H65.3z M79.9,653.2v-7h7v7H79.9z M87.1,653.2v-7h7v7H87.1z M94.4,653.2v-7h7v7H94.4z M101.6,653.2
		v-7h7v7H101.6z M108.9,653.2v-7h7v7H108.9z M123.4,653.2v-7h7v7H123.4z M58.1,645.9v-7h7v7H58.1z M65.3,645.9v-7h7v7H65.3z
		 M72.6,645.9v-7h7v7H72.6z M79.9,645.9v-7h7v7H79.9z M87.1,645.9v-7h7v7H87.1z M94.4,645.9v-7h7v7H94.4z M101.6,645.9v-7h7v7H101.6
		z M108.9,645.9v-7h7v7H108.9z M116.1,645.9v-7h7v7H116.1z M123.4,645.9v-7h7v7H123.4z M58.1,638.7v-7h7v7H58.1z M65.3,638.7v-7h7v7
		H65.3z M79.9,638.7v-7h7v7H79.9z M94.4,638.7v-7h7v7H94.4z M108.9,638.7v-7h7v7H108.9z M123.4,638.7v-7h7v7H123.4z M58.1,631.4v-7
		h7v7H58.1z M65.3,631.4v-7h7v7H65.3z M72.6,631.4v-7h7v7H72.6z M79.9,631.4v-7h7v7H79.9z M87.1,631.4v-7h7v7H87.1z M94.4,631.4v-7
		h7v7H94.4z M101.6,631.4v-7h7v7H101.6z M108.9,631.4v-7h7v7H108.9z M116.1,631.4v-7h7v7H116.1z M123.4,631.4v-7h7v7H123.4z
		 M58.1,624.1v-7h7v7H58.1z M65.3,624.1v-7h7v7H65.3z M72.6,624.1v-7h7v7H72.6z M79.9,624.1v-7h7v7H79.9z M87.1,624.1v-7h7v7H87.1z
		 M94.4,624.1v-7h7v7H94.4z M101.6,624.1v-7h7v7H101.6z M108.9,624.1v-7h7v7H108.9z M116.1,624.1v-7h7v7H116.1z M123.4,624.1v-7h7v7
		H123.4z M58.1,616.9v-7h7v7H58.1z M65.3,616.9v-7h7v7H65.3z M72.6,616.9v-7h7v7H72.6z M79.9,616.9v-7h7v7H79.9z M101.6,616.9v-7h7
		v7H101.6z M108.9,616.9v-7h7v7H108.9z M116.1,616.9v-7h7v7H116.1z M123.4,616.9v-7h7v7H123.4z M58.1,609.6v-7h7v7H58.1z
		 M65.3,609.6v-7h7v7H65.3z M72.6,609.6v-7h7v7H72.6z M87.1,609.6v-7h7v7H87.1z M94.4,609.6v-7h7v7H94.4z M108.9,609.6v-7h7v7H108.9
		z M116.1,609.6v-7h7v7H116.1z M123.4,609.6v-7h7v7H123.4z M58.1,602.4v-7h7v7H58.1z M65.3,602.4v-7h7v7H65.3z M72.6,602.4v-7h7v7
		H72.6z M87.1,602.4v-7h7v7H87.1z M94.4,602.4v-7h7v7H94.4z M108.9,602.4v-7h7v7H108.9z M116.1,602.4v-7h7v7H116.1z M123.4,602.4v-7
		h7v7H123.4z M130.7,667.7v-7h7v7H130.7z M137.9,667.7v-7h7v7H137.9z M145.2,667.7v-7h7v7H145.2z M152.5,667.7v-7h7v7H152.5z
		 M159.7,667.7v-7h7v7H159.7z M130.7,660.4v-7h7v7H130.7z M137.9,660.4v-7h7v7H137.9z M145.2,660.4v-7h7v7H145.2z M159.7,660.4v-7h7
		v7H159.7z M130.7,653.2v-7h7v7H130.7z M137.9,653.2v-7h7v7H137.9z M145.2,653.2v-7h7v7H145.2z M152.5,653.2v-7h7v7H152.5z
		 M159.7,653.2v-7h7v7H159.7z M167,653.2v-7h7v7H167z M130.7,645.9v-7h7v7H130.7z M137.9,645.9v-7h7v7H137.9z M145.2,645.9v-7h7v7
		H145.2z M159.7,645.9v-7h7v7H159.7z M167,645.9v-7h7v7H167z M130.7,638.7v-7h7v7H130.7z M137.9,638.7v-7h7v7H137.9z M145.2,638.7
		v-7h7v7H145.2z M152.5,638.7v-7h7v7H152.5z M159.7,638.7v-7h7v7H159.7z M167,638.7v-7h7v7H167z M130.7,631.4v-7h7v7H130.7z
		 M137.9,631.4v-7h7v7H137.9z M145.2,631.4v-7h7v7H145.2z M159.7,631.4v-7h7v7H159.7z M167,631.4v-7h7v7H167z M130.7,624.1v-7h7v7
		H130.7z M137.9,624.1v-7h7v7H137.9z M145.2,624.1v-7h7v7H145.2z M152.5,624.1v-7h7v7H152.5z M159.7,624.1v-7h7v7H159.7z M167,624.1
		v-7h7v7H167z M130.7,616.9v-7h7v7H130.7z M137.9,616.9v-7h7v7H137.9z M145.2,616.9v-7h7v7H145.2z M159.7,616.9v-7h7v7H159.7z
		 M167,616.9v-7h7v7H167z M130.7,609.6v-7h7v7H130.7z M137.9,609.6v-7h7v7H137.9z M145.2,609.6v-7h7v7H145.2z M152.5,609.6v-7h7v7
		H152.5z M159.7,609.6v-7h7v7H159.7z M167,609.6v-7h7v7H167z M130.7,602.4v-7h7v7H130.7z M137.9,602.4v-7h7v7H137.9z M145.2,602.4
		v-7h7v7H145.2z M159.7,602.4v-7h7v7H159.7z M167,602.4v-7h7v7H167z M14.5,595.1v-7h7v7H14.5z M21.8,595.1v-7h7v7H21.8z M29,595.1
		v-7l7,0v7L29,595.1z M36.3,595.1v-7h7v7H36.3z M43.5,595.1v-7h7v7H43.5z M50.8,595.1v-7h7v7H50.8z M14.5,587.8v-7h7v7H14.5z
		 M21.8,587.8v-7h7v7H21.8z M29,587.8v-7h7v7H29z M43.5,587.8v-7h7v7H43.5z M50.8,587.8v-7h7v7H50.8z M14.5,580.6v-7h7v7H14.5z
		 M21.8,580.6v-7h7v7H21.8z M29,580.6v-7l7,0v7L29,580.6z M36.3,580.6v-7h7v7H36.3z M43.5,580.6v-7h7v7H43.5z M50.8,580.6v-7h7v7
		H50.8z M29,573.3v-7h7v7H29z M43.5,573.3v-7h7v7H43.5z M50.8,573.3v-7h7v7H50.8z M29,566.1v-7l7,0v7L29,566.1z M36.3,566.1v-7h7v7
		H36.3z M43.5,566.1v-7h7v7H43.5z M50.8,566.1v-7h7v7H50.8z M29,558.8v-7h7v7H29z M43.5,558.8v-7h7v7H43.5z M50.8,558.8v-7h7v7H50.8
		z M29,551.5v-7h7v7H29z M36.3,551.5v-7h7v7H36.3z M43.5,551.5v-7h7v7H43.5z M50.8,551.5v-7h7v7H50.8z M36.3,544.3v-7h7v7H36.3z
		 M43.5,544.3v-7h7v7H43.5z M50.8,544.3v-7h7v7H50.8z M36.3,537v-7h7v7H36.3z M43.5,537v-7h7v7H43.5z M50.8,537v-7h7v7H50.8z
		 M36.3,529.8v-7h7v7H36.3z M43.5,529.8v-7h7v7H43.5z M50.8,529.8v-7h7v7H50.8z M58.1,595.1v-7h7v7H58.1z M65.3,595.1v-7h7v7H65.3z
		 M72.6,595.1v-7h7v7H72.6z M79.9,595.1v-7h7v7H79.9z M101.6,595.1v-7h7v7H101.6z M108.9,595.1v-7h7v7H108.9z M116.1,595.1v-7h7v7
		H116.1z M123.4,595.1v-7h7v7H123.4z M58.1,587.8v-7h7v7H58.1z M65.3,587.8v-7h7v7H65.3z M72.6,587.8v-7h7v7H72.6z M79.9,587.8v-7h7
		v7H79.9z M87.1,587.8v-7h7v7H87.1z M94.4,587.8v-7h7v7H94.4z M101.6,587.8v-7h7v7H101.6z M108.9,587.8v-7h7v7H108.9z M116.1,587.8
		v-7h7v7H116.1z M123.4,587.8v-7h7v7H123.4z M58.1,580.6v-7h7v7H58.1z M65.3,580.6v-7h7v7H65.3z M72.6,580.6v-7h7v7H72.6z
		 M79.9,580.6v-7h7v7H79.9z M87.1,580.6v-7h7v7H87.1z M94.4,580.6v-7h7v7H94.4z M101.6,580.6v-7h7v7H101.6z M108.9,580.6v-7h7v7
		H108.9z M116.1,580.6v-7h7v7H116.1z M123.4,580.6v-7h7v7H123.4z M58.1,573.3v-7h7v7H58.1z M65.3,573.3v-7h7v7H65.3z M79.9,573.3v-7
		h7v7H79.9z M94.4,573.3v-7h7v7H94.4z M108.9,573.3v-7h7v7H108.9z M123.4,573.3v-7h7v7H123.4z M58.1,566.1v-7h7v7H58.1z M65.3,566.1
		v-7h7v7H65.3z M72.6,566.1v-7h7v7H72.6z M79.9,566.1v-7h7v7H79.9z M87.1,566.1v-7h7v7H87.1z M94.4,566.1v-7h7v7H94.4z M101.6,566.1
		v-7h7v7H101.6z M108.9,566.1v-7h7v7H108.9z M116.1,566.1v-7h7v7H116.1z M123.4,566.1v-7h7v7H123.4z M58.1,558.8v-7h7v7H58.1z
		 M65.3,558.8v-7h7v7H65.3z M79.9,558.8v-7h7v7H79.9z M87.1,558.8v-7h7v7H87.1z M94.4,558.8v-7h7v7H94.4z M101.6,558.8v-7h7v7H101.6
		z M108.9,558.8v-7h7v7H108.9z M123.4,558.8v-7h7v7H123.4z M58.1,551.5v-7h7v7H58.1z M65.3,551.5v-7h7v7H65.3z M72.6,551.5v-7h7v7
		H72.6z M79.9,551.5v-7h7v7H79.9z M87.1,551.5v-7h7v7H87.1z M94.4,551.5v-7h7v7H94.4z M101.6,551.5v-7h7v7H101.6z M108.9,551.5v-7h7
		v7H108.9z M116.1,551.5v-7h7v7H116.1z M123.4,551.5v-7h7v7H123.4z M58.1,544.3v-7h7v7H58.1z M65.3,544.3v-7h7v7H65.3z M79.9,544.3
		v-7h7v7H79.9z M87.1,544.3v-7h7v7H87.1z M94.4,544.3v-7h7v7H94.4z M101.6,544.3v-7h7v7H101.6z M108.9,544.3v-7h7v7H108.9z
		 M123.4,544.3v-7h7v7H123.4z M58.1,537v-7h7v7H58.1z M65.3,537v-7h7v7H65.3z M72.6,537v-7h7v7H72.6z M79.9,537v-7h7v7H79.9z
		 M87.1,537v-7h7v7H87.1z M94.4,537v-7h7v7H94.4z M101.6,537v-7h7v7H101.6z M108.9,537v-7h7v7H108.9z M116.1,537v-7h7v7H116.1z
		 M123.4,537v-7h7v7H123.4z M58.1,529.8v-7h7v7H58.1z M65.3,529.8v-7h7v7H65.3z M79.9,529.8v-7h7v7H79.9z M94.4,529.8v-7h7v7H94.4z
		 M108.9,529.8v-7h7v7H108.9z M123.4,529.8v-7h7v7H123.4z M130.7,595.1v-7h7v7H130.7z M137.9,595.1v-7h7v7H137.9z M145.2,595.1v-7h7
		v7H145.2z M152.5,595.1v-7h7v7H152.5z M159.7,595.1v-7h7v7H159.7z M167,595.1v-7h7v7H167z M130.7,587.8v-7h7v7H130.7z M137.9,587.8
		v-7h7v7H137.9z M145.2,587.8v-7h7v7H145.2z M159.7,587.8v-7h7v7H159.7z M167,587.8v-7h7v7H167z M130.7,580.6v-7h7v7H130.7z
		 M137.9,580.6v-7h7v7H137.9z M145.2,580.6v-7h7v7H145.2z M152.5,580.6v-7h7v7H152.5z M159.7,580.6v-7h7v7H159.7z M167,580.6v-7h7v7
		H167z M174.3,653.2v-7h7v7H174.3z M174.3,645.9v-7h7v7H174.3z M174.3,638.7v-7h7v7H174.3z M174.3,631.4v-7h7v7H174.3z M174.3,624.1
		v-7h7v7H174.3z M174.3,616.9v-7h7v7H174.3z M174.3,609.6v-7h7v7H174.3z M174.3,602.4v-7h7v7H174.3z M174.3,595.1v-7h7v7H174.3z
		 M174.3,587.8v-7h7v7H174.3z M174.3,580.6v-7h7v7H174.3z M130.7,573.3v-7h7v7H130.7z M137.9,573.3v-7h7v7H137.9z M145.2,573.3v-7h7
		v7H145.2z M159.7,573.3v-7h7v7H159.7z M130.7,566.1v-7h7v7H130.7z M137.9,566.1v-7h7v7H137.9z M145.2,566.1v-7h7v7H145.2z
		 M152.5,566.1v-7h7v7H152.5z M159.7,566.1v-7h7v7H159.7z M130.7,558.8v-7h7v7H130.7z M137.9,558.8v-7h7v7H137.9z M145.2,558.8v-7h7
		v7H145.2z M159.7,558.8v-7h7v7H159.7z M130.7,551.5v-7h7v7H130.7z M137.9,551.5v-7h7v7H137.9z M145.2,551.5v-7h7v7H145.2z
		 M152.5,551.5v-7h7v7H152.5z M159.7,551.5v-7h7v7H159.7z M130.7,544.3v-7h7v7H130.7z M137.9,544.3v-7h7v7H137.9z M145.2,544.3v-7h7
		v7H145.2z M152.5,544.3v-7h7v7H152.5z M130.7,537v-7h7v7H130.7z M137.9,537v-7h7v7H137.9z M145.2,537v-7h7v7H145.2z M152.5,537v-7
		h7v7H152.5z M130.7,529.8v-7h7v7H130.7z M137.9,529.8v-7h7v7H137.9z M145.2,529.8v-7h7v7H145.2z M152.5,529.8v-7h7v7H152.5z
		 M36.3,522.5v-7h7v7H36.3z M43.5,522.5v-7h7v7H43.5z M50.8,522.5v-7h7v7H50.8z M36.3,515.2v-7h7v7H36.3z M43.5,515.2v-7h7v7H43.5z
		 M50.8,515.2v-7h7v7H50.8z M36.3,508v-7h7v7H36.3z M43.5,508v-7h7v7H43.5z M50.8,508v-7h7v7H50.8z M36.3,500.7v-7h7v7H36.3z
		 M43.5,500.7v-7h7v7H43.5z M50.8,500.7v-7h7v7H50.8z M36.3,493.5v-7h7v7H36.3z M43.5,493.5v-7h7v7H43.5z M50.8,493.5v-7h7v7H50.8z
		 M36.3,486.2v-7h7v7H36.3z M43.5,486.2v-7h7v7H43.5z M50.8,486.2v-7h7v7H50.8z M36.3,478.9v-7h7v7H36.3z M43.5,478.9v-7h7v7H43.5z
		 M50.8,478.9v-7h7v7H50.8z M36.3,471.7v-7h7v7H36.3z M43.5,471.7v-7h7v7H43.5z M50.8,471.7v-7h7v7H50.8z M36.3,464.4v-7h7v7H36.3z
		 M43.5,464.4v-7h7v7H43.5z M50.8,464.4v-7h7v7H50.8z M36.3,457.2v-7h7v7H36.3z M43.5,457.2v-7h7v7H43.5z M50.8,457.2v-7h7v7H50.8z
		 M58.1,522.5v-7h7v7H58.1z M65.3,522.5v-7h7v7H65.3z M72.6,522.5v-7h7v7H72.6z M79.9,522.5v-7h7v7H79.9z M87.1,522.5v-7h7v7H87.1z
		 M94.4,522.5v-7h7v7H94.4z M101.6,522.5v-7h7v7H101.6z M108.9,522.5v-7h7v7H108.9z M116.1,522.5v-7h7v7H116.1z M123.4,522.5v-7h7v7
		H123.4z M58.1,515.2v-7h7v7H58.1z M65.3,515.2v-7h7v7H65.3z M72.6,515.2v-7h7v7H72.6z M79.9,515.2v-7h7v7H79.9z M87.1,515.2v-7h7v7
		H87.1z M94.4,515.2v-7h7v7H94.4z M101.6,515.2v-7h7v7H101.6z M108.9,515.2v-7h7v7H108.9z M116.1,515.2v-7h7v7H116.1z M123.4,515.2
		v-7h7v7H123.4z M58.1,508v-7h7v7H58.1z M65.3,508v-7h7v7H65.3z M72.6,508v-7h7v7H72.6z M79.9,508v-7h7v7H79.9z M101.6,508v-7h7v7
		H101.6z M108.9,508v-7h7v7H108.9z M116.1,508v-7h7v7H116.1z M123.4,508v-7h7v7H123.4z M58.1,500.7v-7h7v7H58.1z M65.3,500.7v-7h7v7
		H65.3z M72.6,500.7v-7h7v7H72.6z M87.1,500.7v-7h7v7H87.1z M94.4,500.7v-7h7v7H94.4z M108.9,500.7v-7h7v7H108.9z M116.1,500.7v-7h7
		v7H116.1z M123.4,500.7v-7h7v7H123.4z M58.1,493.5v-7h7v7H58.1z M65.3,493.5v-7h7v7H65.3z M72.6,493.5v-7h7v7H72.6z M87.1,493.5v-7
		h7v7H87.1z M94.4,493.5v-7h7v7H94.4z M108.9,493.5v-7h7v7H108.9z M116.1,493.5v-7h7v7H116.1z M123.4,493.5v-7h7v7H123.4z
		 M58.1,486.2v-7h7v7H58.1z M65.3,486.2v-7h7v7H65.3z M72.6,486.2v-7h7v7H72.6z M79.9,486.2v-7h7v7H79.9z M101.6,486.2v-7h7v7H101.6
		z M108.9,486.2v-7h7v7H108.9z M116.1,486.2v-7h7v7H116.1z M123.4,486.2v-7h7v7H123.4z M58.1,478.9v-7h7v7H58.1z M65.3,478.9v-7h7v7
		H65.3z M72.6,478.9v-7h7v7H72.6z M79.9,478.9v-7h7v7H79.9z M87.1,478.9v-7h7v7H87.1z M94.4,478.9v-7h7v7H94.4z M101.6,478.9v-7h7v7
		H101.6z M108.9,478.9v-7h7v7H108.9z M116.1,478.9v-7h7v7H116.1z M123.4,478.9v-7h7v7H123.4z M58.1,471.7v-7h7v7H58.1z M65.3,471.7
		v-7h7v7H65.3z M72.6,471.7v-7h7v7H72.6z M79.9,471.7v-7h7v7H79.9z M87.1,471.7v-7h7v7H87.1z M94.4,471.7v-7h7v7H94.4z M101.6,471.7
		v-7h7v7H101.6z M108.9,471.7v-7h7v7H108.9z M116.1,471.7v-7h7v7H116.1z M123.4,471.7v-7h7v7H123.4z M58.1,464.4v-7h7v7H58.1z
		 M65.3,464.4v-7h7v7H65.3z M79.9,464.4v-7h7v7H79.9z M94.4,464.4v-7h7v7H94.4z M108.9,464.4v-7h7v7H108.9z M123.4,464.4v-7h7v7
		H123.4z M58.1,457.2v-7h7v7H58.1z M65.3,457.2v-7h7v7H65.3z M72.6,457.2v-7h7v7H72.6z M79.9,457.2v-7h7v7H79.9z M87.1,457.2v-7h7v7
		H87.1z M94.4,457.2v-7h7v7H94.4z M101.6,457.2v-7h7v7H101.6z M108.9,457.2v-7h7v7H108.9z M116.1,457.2v-7h7v7H116.1z M123.4,457.2
		v-7h7v7H123.4z M130.7,522.5v-7h7v7H130.7z M137.9,522.5v-7h7v7H137.9z M145.2,522.5v-7h7v7H145.2z M152.5,522.5v-7h7v7H152.5z
		 M130.7,515.2v-7h7v7H130.7z M137.9,515.2v-7h7v7H137.9z M145.2,515.2v-7h7v7H145.2z M152.5,515.2v-7h7v7H152.5z M130.7,508v-7h7v7
		H130.7z M137.9,508v-7h7v7H137.9z M145.2,508v-7h7v7H145.2z M152.5,508v-7h7v7H152.5z M130.7,500.7v-7h7v7H130.7z M137.9,500.7v-7
		h7v7H137.9z M145.2,500.7v-7h7v7H145.2z M152.5,500.7v-7h7v7H152.5z M130.7,493.5v-7h7v7H130.7z M137.9,493.5v-7h7v7H137.9z
		 M145.2,493.5v-7h7v7H145.2z M152.5,493.5v-7h7v7H152.5z M130.7,486.2v-7h7v7H130.7z M137.9,486.2v-7h7v7H137.9z M145.2,486.2v-7h7
		v7H145.2z M152.5,486.2v-7h7v7H152.5z M130.7,478.9v-7h7v7H130.7z M137.9,478.9v-7h7v7H137.9z M145.2,478.9v-7h7v7H145.2z
		 M152.5,478.9v-7h7v7H152.5z M130.7,471.7v-7h7v7H130.7z M137.9,471.7v-7h7v7H137.9z M145.2,471.7v-7h7v7H145.2z M152.5,471.7v-7h7
		v7H152.5z M130.7,464.4v-7h7v7H130.7z M137.9,464.4v-7h7v7H137.9z M145.2,464.4v-7h7v7H145.2z M152.5,464.4v-7h7v7H152.5z
		 M130.7,457.2v-7h7v7H130.7z M137.9,457.2v-7h7v7H137.9z M145.2,457.2v-7h7v7H145.2z M152.5,457.2v-7h7v7H152.5z M36.3,449.9v-7h7
		v7H36.3z M43.5,449.9v-7h7v7H43.5z M50.8,449.9v-7h7v7H50.8z M36.3,442.6v-7h7v7H36.3z M43.5,442.6v-7h7v7H43.5z M50.8,442.6v-7h7
		v7H50.8z M36.3,435.4v-7h7v7H36.3z M43.5,435.4v-7h7v7H43.5z M50.8,435.4v-7h7v7H50.8z M36.3,428.1v-7h7v7H36.3z M43.5,428.1v-7h7
		v7H43.5z M50.8,428.1v-7h7v7H50.8z M36.3,420.9v-7h7v7H36.3z M43.5,420.9v-7h7v7H43.5z M50.8,420.9v-7h7v7H50.8z M36.3,413.6v-7h7
		v7H36.3z M43.5,413.6v-7h7v7H43.5z M50.8,413.6v-7h7v7H50.8z M36.3,406.3v-7h7v7H36.3z M43.5,406.3v-7h7v7H43.5z M50.8,406.3v-7h7
		v7H50.8z M14.5,399.1v-7h7v7H14.5z M21.8,399.1v-7h7v7H21.8z M29,399.1v-7h7v7H29z M36.3,399.1v-7h7v7H36.3z M43.5,399.1v-7h7v7
		H43.5z M50.8,399.1v-7h7v7H50.8z M14.5,391.8v-7h7v7H14.5z M21.8,391.8v-7h7v7H21.8z M29,391.8v-7h7v7H29z M43.5,391.8v-7h7v7H43.5
		z M50.8,391.8v-7h7v7H50.8z M14.5,384.6v-7h7v7H14.5z M21.8,384.6v-7h7v7H21.8z M29,384.6v-7h7v7H29z M36.3,384.6v-7h7v7H36.3z
		 M43.5,384.6v-7h7v7H43.5z M50.8,384.6v-7h7v7H50.8z M58.1,449.9v-7h7v7H58.1z M65.3,449.9v-7h7v7H65.3z M79.9,449.9v-7h7v7H79.9z
		 M87.1,449.9v-7h7v7H87.1z M94.4,449.9v-7h7v7H94.4z M101.6,449.9v-7h7v7H101.6z M108.9,449.9v-7h7v7H108.9z M123.4,449.9v-7h7v7
		H123.4z M58.1,442.6v-7h7v7H58.1z M65.3,442.6v-7h7v7H65.3z M72.6,442.6v-7h7v7H72.6z M79.9,442.6v-7h7v7H79.9z M87.1,442.6v-7h7v7
		H87.1z M94.4,442.6v-7h7v7H94.4z M101.6,442.6v-7h7v7H101.6z M108.9,442.6v-7h7v7H108.9z M116.1,442.6v-7h7v7H116.1z M123.4,442.6
		v-7h7v7H123.4z M58.1,435.4v-7h7v7H58.1z M65.3,435.4v-7h7v7H65.3z M79.9,435.4v-7h7v7H79.9z M87.1,435.4v-7h7v7H87.1z M94.4,435.4
		v-7h7v7H94.4z M101.6,435.4v-7h7v7H101.6z M108.9,435.4v-7h7v7H108.9z M123.4,435.4v-7h7v7H123.4z M58.1,428.1v-7h7v7H58.1z
		 M65.3,428.1v-7h7v7H65.3z M72.6,428.1v-7h7v7H72.6z M79.9,428.1v-7h7v7H79.9z M87.1,428.1v-7h7v7H87.1z M94.4,428.1v-7h7v7H94.4z
		 M101.6,428.1v-7h7v7H101.6z M108.9,428.1v-7h7v7H108.9z M116.1,428.1v-7h7v7H116.1z M123.4,428.1v-7h7v7H123.4z M58.1,420.9v-7h7
		v7H58.1z M65.3,420.9v-7h7v7H65.3z M79.9,420.9v-7h7v7H79.9z M94.4,420.9v-7h7v7H94.4z M108.9,420.9v-7h7v7H108.9z M123.4,420.9v-7
		h7v7H123.4z M58.1,413.6v-7h7v7H58.1z M65.3,413.6v-7h7v7H65.3z M72.6,413.6v-7h7v7H72.6z M79.9,413.6v-7h7v7H79.9z M87.1,413.6v-7
		h7v7H87.1z M94.4,413.6v-7h7v7H94.4z M101.6,413.6v-7h7v7H101.6z M108.9,413.6v-7h7v7H108.9z M116.1,413.6v-7h7v7H116.1z
		 M123.4,413.6v-7h7v7H123.4z M58.1,406.3v-7h7v7H58.1z M65.3,406.3v-7h7v7H65.3z M72.6,406.3v-7h7v7H72.6z M79.9,406.3v-7h7v7H79.9
		z M101.6,406.3v-7h7v7H101.6z M108.9,406.3v-7h7v7H108.9z M116.1,406.3v-7h7v7H116.1z M123.4,406.3v-7h7v7H123.4z M58.1,399.1v-7h7
		v7H58.1z M65.3,399.1v-7h7v7H65.3z M72.6,399.1v-7h7v7H72.6z M87.1,399.1v-7h7v7H87.1z M94.4,399.1v-7h7v7H94.4z M108.9,399.1v-7h7
		v7H108.9z M116.1,399.1v-7h7v7H116.1z M123.4,399.1v-7h7v7H123.4z M58.1,391.8v-7h7v7H58.1z M65.3,391.8v-7h7v7H65.3z M72.6,391.8
		v-7h7v7H72.6z M87.1,391.8v-7h7v7H87.1z M94.4,391.8v-7h7v7H94.4z M108.9,391.8v-7h7v7H108.9z M116.1,391.8v-7h7v7H116.1z
		 M123.4,391.8v-7h7v7H123.4z M58.1,384.6v-7h7v7H58.1z M65.3,384.6v-7h7v7H65.3z M72.6,384.6v-7h7v7H72.6z M79.9,384.6v-7h7v7H79.9
		z M101.6,384.6v-7h7v7H101.6z M108.9,384.6v-7h7v7H108.9z M116.1,384.6v-7h7v7H116.1z M123.4,384.6v-7h7v7H123.4z M130.7,449.9v-7
		h7v7H130.7z M137.9,449.9v-7h7v7H137.9z M145.2,449.9v-7h7v7H145.2z M152.5,449.9v-7h7v7H152.5z M130.7,442.6v-7h7v7H130.7z
		 M137.9,442.6v-7h7v7H137.9z M145.2,442.6v-7h7v7H145.2z M152.5,442.6v-7h7v7H152.5z M130.7,435.4v-7h7v7H130.7z M137.9,435.4v-7h7
		v7H137.9z M145.2,435.4v-7h7v7H145.2z M152.5,435.4v-7h7v7H152.5z M130.7,428.1v-7h7v7H130.7z M137.9,428.1v-7h7v7H137.9z
		 M145.2,428.1v-7h7v7H145.2z M152.5,428.1v-7h7v7H152.5z M130.7,420.9v-7h7v7H130.7z M137.9,420.9v-7h7v7H137.9z M145.2,420.9v-7h7
		v7H145.2z M152.5,420.9v-7h7v7H152.5z M130.7,413.6v-7h7v7H130.7z M137.9,413.6v-7h7v7H137.9z M145.2,413.6v-7h7v7H145.2z
		 M152.5,413.6v-7h7v7H152.5z M130.7,406.3v-7h7v7H130.7z M137.9,406.3v-7h7v7H137.9z M145.2,406.3v-7h7v7H145.2z M152.5,406.3v-7h7
		v7H152.5z M130.7,399.1v-7h7v7H130.7z M137.9,399.1v-7h7v7H137.9z M145.2,399.1v-7h7v7H145.2z M152.5,399.1v-7h7v7H152.5z
		 M159.7,399.1v-7h7v7H159.7z M167,399.1v-7h7v7H167z M174.2,399.1v-7h7v7H174.2z M130.7,391.8v-7h7v7H130.7z M137.9,391.8v-7h7v7
		H137.9z M145.2,391.8v-7h7v7H145.2z M159.7,391.8v-7h7v7H159.7z M167,391.8v-7h7v7H167z M174.2,391.8v-7h7v7H174.2z M130.7,384.6
		v-7h7v7H130.7z M137.9,384.6v-7h7v7H137.9z M145.2,384.6v-7h7v7H145.2z M152.5,384.6v-7h7v7H152.5z M159.7,384.6v-7h7v7H159.7z
		 M167,384.6v-7h7v7H167z M174.2,384.6v-7h7v7H174.2z M14.5,377.3v-7h7v7H14.5z M21.8,377.3v-7h7v7H21.8z M29,377.3v-7h7v7H29z
		 M43.5,377.3v-7h7v7H43.5z M50.8,377.3v-7h7v7H50.8z M14.5,370v-7h7v7H14.5z M21.8,370v-7h7v7H21.8z M29,370v-7h7v7H29z M36.3,370
		v-7h7v7H36.3z M43.5,370v-7h7v7H43.5z M50.8,370v-7h7v7H50.8z M14.5,362.8v-7h7v7H14.5z M21.8,362.8v-7h7v7H21.8z M29,362.8v-7h7v7
		H29z M43.5,362.8v-7h7v7H43.5z M50.8,362.8v-7h7v7H50.8z M14.5,355.5v-7h7v7H14.5z M21.8,355.5v-7h7v7H21.8z M29,355.5v-7h7v7H29z
		 M36.3,355.5v-7h7v7H36.3z M43.5,355.5v-7h7v7H43.5z M50.8,355.5v-7h7v7H50.8z M14.5,348.3v-7h7v7H14.5z M21.8,348.3v-7h7v7H21.8z
		 M29,348.3v-7h7v7H29z M43.5,348.3v-7h7v7H43.5z M50.8,348.3v-7h7v7H50.8z M14.5,341v-7h7v7H14.5z M21.8,341v-7h7v7H21.8z M29,341
		v-7h7v7H29z M36.3,341v-7h7v7H36.3z M43.5,341v-7h7v7H43.5z M50.8,341v-7h7v7H50.8z M14.5,333.7v-7h7v7H14.5z M21.8,333.7v-7h7v7
		H21.8z M29,333.7v-7h7v7H29z M43.5,333.7v-7h7v7H43.5z M50.8,333.7v-7h7v7H50.8z M14.5,326.5v-7h7v7H14.5z M21.8,326.5v-7h7v7H21.8
		z M29,326.5v-7h7v7H29z M36.3,326.5v-7h7v7H36.3z M43.5,326.5v-7h7v7H43.5z M50.8,326.5v-7h7v7H50.8z M14.5,319.2v-7h7v7H14.5z
		 M21.8,319.2v-7h7v7H21.8z M29,319.2v-7h7v7H29z M43.5,319.2v-7h7v7H43.5z M50.8,319.2v-7h7v7H50.8z M36.3,312v-7h7v7H36.3z
		 M43.5,312v-7h7v7H43.5z M50.8,312v-7h7v7H50.8z M58.1,377.3v-7h7v7H58.1z M65.3,377.3v-7h7v7H65.3z M72.6,377.3v-7h7v7H72.6z
		 M79.9,377.3v-7h7v7H79.9z M87.1,377.3v-7h7v7H87.1z M94.4,377.3v-7h7v7H94.4z M101.6,377.3v-7h7v7H101.6z M108.9,377.3v-7h7v7
		H108.9z M116.1,377.3v-7h7v7H116.1z M123.4,377.3v-7h7v7H123.4z M58.1,370v-7h7v7H58.1z M65.3,370v-7h7v7H65.3z M72.6,370v-7h7v7
		H72.6z M79.9,370v-7h7v7H79.9z M87.1,370v-7h7v7H87.1z M94.4,370v-7h7v7H94.4z M101.6,370v-7h7v7H101.6z M108.9,370v-7h7v7H108.9z
		 M116.1,370v-7h7v7H116.1z M123.4,370v-7h7v7H123.4z M58.1,362.8v-7h7v7H58.1z M65.3,362.8v-7h7v7H65.3z M79.9,362.8v-7h7v7H79.9z
		 M94.4,362.8v-7h7v7H94.4z M108.9,362.8v-7h7v7H108.9z M123.4,362.8v-7h7v7H123.4z M58.1,355.5v-7h7v7H58.1z M65.3,355.5v-7h7v7
		H65.3z M72.6,355.5v-7h7v7H72.6z M79.9,355.5v-7h7v7H79.9z M87.1,355.5v-7h7v7H87.1z M94.4,355.5v-7h7v7H94.4z M101.6,355.5v-7h7v7
		H101.6z M108.9,355.5v-7h7v7H108.9z M116.1,355.5v-7h7v7H116.1z M123.4,355.5v-7h7v7H123.4z M58.1,348.3v-7h7v7H58.1z M65.3,348.3
		v-7h7v7H65.3z M79.9,348.3v-7h7v7H79.9z M87.1,348.3v-7h7v7H87.1z M94.4,348.3v-7h7v7H94.4z M101.6,348.3v-7h7v7H101.6z
		 M108.9,348.3v-7h7v7H108.9z M123.4,348.3v-7h7v7H123.4z M58.1,341v-7h7v7H58.1z M65.3,341v-7h7v7H65.3z M72.6,341v-7h7v7H72.6z
		 M79.9,341v-7h7v7H79.9z M87.1,341v-7h7v7H87.1z M94.4,341v-7h7v7H94.4z M101.6,341v-7h7v7H101.6z M108.9,341v-7h7v7H108.9z
		 M116.1,341v-7h7v7H116.1z M123.4,341v-7h7v7H123.4z M58.1,333.7v-7h7v7H58.1z M65.3,333.7v-7h7v7H65.3z M79.9,333.7v-7h7v7H79.9z
		 M87.1,333.7v-7h7v7H87.1z M94.4,333.7v-7h7v7H94.4z M101.6,333.7v-7h7v7H101.6z M108.9,333.7v-7h7v7H108.9z M123.4,333.7v-7h7v7
		H123.4z M58.1,326.5v-7h7v7H58.1z M65.3,326.5v-7h7v7H65.3z M72.6,326.5v-7h7v7H72.6z M79.9,326.5v-7h7v7H79.9z M87.1,326.5v-7h7v7
		H87.1z M94.4,326.5v-7h7v7H94.4z M101.6,326.5v-7h7v7H101.6z M108.9,326.5v-7h7v7H108.9z M116.1,326.5v-7h7v7H116.1z M123.4,326.5
		v-7h7v7H123.4z M58.1,319.2v-7h7v7H58.1z M65.3,319.2v-7h7v7H65.3z M79.9,319.2v-7h7v7H79.9z M87.1,319.2v-7h7v7H87.1z M94.4,319.2
		v-7h7v7H94.4z M101.6,319.2v-7h7v7H101.6z M108.9,319.2v-7h7v7H108.9z M123.4,319.2v-7h7v7H123.4z M58.1,312v-7h7v7H58.1z
		 M65.3,312v-7h7v7H65.3z M72.6,312v-7h7v7H72.6z M79.9,312v-7h7v7H79.9z M87.1,312v-7h7v7H87.1z M94.4,312v-7h7v7H94.4z M101.6,312
		v-7h7v7H101.6z M108.9,312v-7h7v7H108.9z M116.1,312v-7h7v7H116.1z M123.4,312v-7h7v7H123.4z M130.7,377.3v-7h7v7H130.7z
		 M137.9,377.3v-7h7v7H137.9z M145.2,377.3v-7h7v7H145.2z M159.7,377.3v-7h7v7H159.7z M167,377.3v-7h7v7H167z M174.2,377.3v-7h7v7
		H174.2z M130.7,370v-7h7v7H130.7z M137.9,370v-7h7v7H137.9z M145.2,370v-7h7v7H145.2z M152.5,370v-7h7v7H152.5z M159.7,370v-7h7v7
		H159.7z M167,370v-7h7v7H167z M174.2,370v-7h7v7H174.2z M130.7,362.8v-7h7v7H130.7z M137.9,362.8v-7h7v7H137.9z M145.2,362.8v-7h7
		v7H145.2z M159.7,362.8v-7h7v7H159.7z M167,362.8v-7h7v7H167z M174.2,362.8v-7h7v7H174.2z M130.7,355.5v-7h7v7H130.7z M137.9,355.5
		v-7h7v7H137.9z M145.2,355.5v-7h7v7H145.2z M152.5,355.5v-7h7v7H152.5z M159.7,355.5v-7h7v7H159.7z M167,355.5v-7h7v7H167z
		 M174.2,355.5v-7h7v7H174.2z M130.7,348.3v-7h7v7H130.7z M137.9,348.3v-7h7v7H137.9z M145.2,348.3v-7h7v7H145.2z M159.7,348.3v-7h7
		v7H159.7z M167,348.3v-7h7v7H167z M174.2,348.3v-7h7v7H174.2z M130.7,341v-7h7v7H130.7z M137.9,341v-7h7v7H137.9z M145.2,341v-7h7
		v7H145.2z M152.5,341v-7h7v7H152.5z M159.7,341v-7h7v7H159.7z M167,341v-7h7v7H167z M174.2,341v-7h7v7H174.2z M130.7,333.7v-7h7v7
		H130.7z M137.9,333.7v-7h7v7H137.9z M145.2,333.7v-7h7v7H145.2z M159.7,333.7v-7h7v7H159.7z M167,333.7v-7h7v7H167z M174.2,333.7
		v-7h7v7H174.2z M130.7,326.5v-7h7v7H130.7z M137.9,326.5v-7h7v7H137.9z M145.2,326.5v-7h7v7H145.2z M152.5,326.5v-7h7v7H152.5z
		 M159.7,326.5v-7h7v7H159.7z M167,326.5v-7h7v7H167z M174.2,326.5v-7h7v7H174.2z M130.7,319.2v-7h7v7H130.7z M137.9,319.2v-7h7v7
		H137.9z M145.2,319.2v-7h7v7H145.2z M159.7,319.2v-7h7v7H159.7z M167,319.2v-7h7v7H167z M174.2,319.2v-7h7v7H174.2z M130.7,312v-7
		h7v7H130.7z M137.9,312v-7h7v7H137.9z M145.2,312v-7h7v7H145.2z M152.5,312v-7h7v7H152.5z M29,304.7v-7h7v7H29z M43.5,304.7v-7h7v7
		H43.5z M50.8,304.7v-7h7v7H50.8z M21.8,297.4v-7h7v7H21.8z M29,297.4v-7h7v7H29z M36.3,297.4v-7h7v7H36.3z M43.5,297.4v-7h7v7H43.5
		z M50.8,297.4v-7h7v7H50.8z M14.5,290.2v-7h7v7H14.5z M21.8,290.2v-7h7v7H21.8z M29,290.2v-7h7v7H29z M43.5,290.2v-7h7v7H43.5z
		 M50.8,290.2v-7h7v7H50.8z M14.5,282.9v-7h7v7H14.5z M21.8,282.9v-7h7v7H21.8z M29,282.9v-7h7v7H29z M36.3,282.9v-7h7v7H36.3z
		 M43.5,282.9v-7h7v7H43.5z M50.8,282.9v-7h7v7H50.8z M14.5,275.7v-7h7v7H14.5z M21.8,275.7v-7h7v7H21.8z M29,275.7v-7h7v7H29z
		 M43.5,275.7v-7h7v7H43.5z M50.8,275.7v-7h7v7H50.8z M14.5,268.4v-7h7v7H14.5z M21.8,268.4v-7h7v7H21.8z M29,268.4v-7h7v7H29z
		 M36.3,268.4v-7h7v7H36.3z M43.5,268.4v-7h7v7H43.5z M50.8,268.4v-7h7v7H50.8z M14.5,261.1v-7h7v7H14.5z M21.8,261.1v-7h7v7H21.8z
		 M29,261.1v-7h7v7H29z M43.5,261.1v-7h7v7H43.5z M50.8,261.1v-7h7v7H50.8z M21.8,253.9v-7h7v7H21.8z M29,253.9v-7h7v7H29z
		 M36.3,253.9v-7h7v7H36.3z M43.5,253.9v-7h7v7H43.5z M50.8,253.9v-7h7v7H50.8z M29,246.6v-7h7v7H29z M43.5,246.6v-7h7v7H43.5z
		 M50.8,246.6v-7h7v7H50.8z M21.8,239.4v-7h7v7H21.8z M29,239.4v-7h7v7H29z M36.3,239.4v-7h7v7H36.3z M50.8,239.4v-7h7v7H50.8z
		 M58.1,304.7v-7h7v7H58.1z M65.3,304.7v-7h7v7H65.3z M79.9,304.7v-7h7v7H79.9z M94.4,304.7v-7h7v7H94.4z M108.9,304.7v-7h7v7H108.9
		z M123.4,304.7v-7h7v7H123.4z M58.1,297.4v-7h7v7H58.1z M65.3,297.4v-7h7v7H65.3z M72.6,297.4v-7h7v7H72.6z M79.9,297.4v-7h7v7
		H79.9z M87.1,297.4v-7h7v7H87.1z M94.4,297.4v-7h7v7H94.4z M101.6,297.4v-7h7v7H101.6z M108.9,297.4v-7h7v7H108.9z M116.1,297.4v-7
		h7v7H116.1z M123.4,297.4v-7h7v7H123.4z M58.1,290.2v-7h7v7H58.1z M65.3,290.2v-7h7v7H65.3z M72.6,290.2v-7h7v7H72.6z M79.9,290.2
		v-7h7v7H79.9z M87.1,290.2v-7h7v7H87.1z M94.4,290.2v-7h7v7H94.4z M101.6,290.2v-7h7v7H101.6z M108.9,290.2v-7h7v7H108.9z
		 M116.1,290.2v-7h7v7H116.1z M123.4,290.2v-7h7v7H123.4z M58.1,282.9v-7h7v7H58.1z M65.3,282.9v-7h7v7H65.3z M72.6,282.9v-7h7v7
		H72.6z M79.9,282.9v-7h7v7H79.9z M87.1,282.9v-7h7v7H87.1z M94.4,282.9v-7h7v7H94.4z M101.6,282.9v-7h7v7H101.6z M108.9,282.9v-7h7
		v7H108.9z M116.1,282.9v-7h7v7H116.1z M123.4,282.9v-7h7v7H123.4z M58.1,275.7v-7h7v7H58.1z M65.3,275.7v-7h7v7H65.3z M72.6,275.7
		v-7h7v7H72.6z M79.9,275.7v-7h7v7H79.9z M87.1,275.7v-7h7v7H87.1z M94.4,275.7v-7h7v7H94.4z M101.6,275.7v-7h7v7H101.6z
		 M108.9,275.7v-7h7v7H108.9z M116.1,275.7v-7h7v7H116.1z M123.4,275.7v-7h7v7H123.4z M58.1,268.4v-7h7v7H58.1z M65.3,268.4v-7h7v7
		H65.3z M72.6,268.4v-7h7v7H72.6z M79.9,268.4v-7h7v7H79.9z M87.1,268.4v-7h7v7H87.1z M94.4,268.4v-7h7v7H94.4z M101.6,268.4v-7h7v7
		H101.6z M108.9,268.4v-7h7v7H108.9z M116.1,268.4v-7h7v7H116.1z M123.4,268.4v-7h7v7H123.4z M58.1,261.1v-7h7v7H58.1z M65.3,261.1
		v-7h7v7H65.3z M72.6,261.1v-7h7v7H72.6z M79.9,261.1v-7h7v7H79.9z M87.1,261.1v-7h7v7H87.1z M94.4,261.1v-7h7v7H94.4z M101.6,261.1
		v-7h7v7H101.6z M108.9,261.1v-7h7v7H108.9z M116.1,261.1v-7h7v7H116.1z M123.4,261.1v-7h7v7H123.4z M58.1,253.9v-7h7v7H58.1z
		 M65.3,253.9v-7h7v7H65.3z M72.6,253.9v-7h7v7H72.6z M79.9,253.9v-7h7v7H79.9z M87.1,253.9v-7h7v7H87.1z M94.4,253.9v-7h7v7H94.4z
		 M101.6,253.9v-7h7v7H101.6z M108.9,253.9v-7h7v7H108.9z M116.1,253.9v-7h7v7H116.1z M123.4,253.9v-7h7v7H123.4z M58.1,246.6v-7h7
		v7H58.1z M65.3,246.6v-7h7v7H65.3z M72.6,246.6v-7h7v7H72.6z M79.9,246.6v-7h7v7H79.9z M87.1,246.6v-7h7v7H87.1z M94.4,246.6v-7h7
		v7H94.4z M101.6,246.6v-7h7v7H101.6z M108.9,246.6v-7h7v7H108.9z M116.1,246.6v-7h7v7H116.1z M123.4,246.6v-7h7v7H123.4z
		 M65.3,239.4v-7h7v7H65.3z M72.6,239.4v-7h7v7H72.6z M79.9,239.4v-7h7v7H79.9z M87.1,239.4v-7h7v7H87.1z M94.4,239.4v-7h7v7H94.4z
		 M101.6,239.4v-7h7v7H101.6z M108.9,239.4v-7h7v7H108.9z M116.1,239.4v-7h7v7H116.1z M123.4,239.4v-7h7v7H123.4z M130.7,304.7v-7h7
		v7H130.7z M137.9,304.7v-7h7v7H137.9z M145.2,304.7v-7h7v7H145.2z M152.5,304.7v-7h7v7H152.5z M130.7,297.4v-7h7v7H130.7z
		 M137.9,297.4v-7h7v7H137.9z M145.2,297.4v-7h7v7H145.2z M152.5,297.4v-7h7v7H152.5z M159.7,297.4v-7h7v7H159.7z M167,297.4v-7h7v7
		H167z M174.2,297.4v-7h7v7H174.2z M130.7,290.2v-7h7v7H130.7z M137.9,290.2v-7h7v7H137.9z M145.2,290.2v-7h7v7H145.2z M159.7,290.2
		v-7h7v7H159.7z M167,290.2v-7h7v7H167z M174.2,290.2v-7h7v7H174.2z M130.7,282.9v-7h7v7H130.7z M137.9,282.9v-7h7v7H137.9z
		 M145.2,282.9v-7h7v7H145.2z M152.5,282.9v-7h7v7H152.5z M174.2,282.9v-7h7v7H174.2z M130.7,275.7v-7h7v7H130.7z M137.9,275.7v-7h7
		v7H137.9z M145.2,275.7v-7h7v7H145.2z M159.7,275.7v-7h7v7H159.7z M167,275.7v-7h7v7H167z M174.2,275.7v-7h7v7H174.2z M130.7,268.4
		v-7h7v7H130.7z M137.9,268.4v-7h7v7H137.9z M145.2,268.4v-7h7v7H145.2z M152.5,268.4v-7h7v7H152.5z M159.7,268.4v-7h7v7H159.7z
		 M167,268.4v-7h7v7H167z M174.2,268.4v-7h7v7H174.2z M130.7,261.1v-7h7v7H130.7z M137.9,261.1v-7h7v7H137.9z M145.2,261.1v-7h7v7
		H145.2z M159.7,261.1v-7h7v7H159.7z M167,261.1v-7h7v7H167z M174.2,261.1v-7h7v7H174.2z M130.7,253.9v-7h7v7H130.7z M137.9,253.9
		v-7h7v7H137.9z M145.2,253.9v-7h7v7H145.2z M152.5,253.9v-7h7v7H152.5z M159.7,253.9v-7h7v7H159.7z M167,253.9v-7h7v7H167z
		 M174.2,253.9v-7h7v7H174.2z M130.7,246.6v-7h7v7H130.7z M137.9,246.6v-7h7v7H137.9z M145.2,246.6v-7h7v7H145.2z M159.7,246.6v-7h7
		v7H159.7z M167,246.6v-7h7v7H167z M174.2,246.6v-7h7v7H174.2z M137.9,239.4v-7h7v7H137.9z M152.5,239.4v-7h7v7H152.5z M159.7,239.4
		v-7h7v7H159.7z M167,239.4v-7h7v7H167z M174.2,239.4v-7h7v7H174.2z M14.5,232.1v-7h7v7H14.5z M21.8,232.1v-7h7v7H21.8z M29,232.1
		v-7h7v7H29z M36.3,232.1v-7h7v7H36.3z M43.5,232.1v-7h7v7H43.5z M50.8,232.1v-7h7v7H50.8z M14.5,224.8v-7h7v7H14.5z M21.8,224.8v-7
		h7v7H21.8z M29,224.8v-7h7v7H29z M36.3,224.8v-7h7v7H36.3z M43.5,224.8v-7h7v7H43.5z M50.8,224.8v-7h7v7H50.8z M14.5,217.6v-7h7v7
		H14.5z M21.8,217.6v-7h7v7H21.8z M29,217.6v-7h7v7H29z M36.3,217.6v-7h7v7H36.3z M43.5,217.6v-7h7v7H43.5z M50.8,217.6v-7h7v7H50.8
		z M21.8,210.3v-7h7v7H21.8z M29,210.3v-7h7v7H29z M36.3,210.3v-7h7v7H36.3z M43.5,210.3v-7h7v7H43.5z M50.8,210.3v-7h7v7H50.8z
		 M29,203.1v-7h7v7H29z M36.3,203.1v-7h7v7H36.3z M43.5,203.1v-7h7v7H43.5z M50.8,203.1v-7h7v7H50.8z M29,195.8v-7h7v7H29z
		 M36.3,195.8v-7h7v7H36.3z M43.5,195.8v-7h7v7H43.5z M50.8,195.8v-7h7v7H50.8z M29,188.5v-7h7v7H29z M36.3,188.5v-7h7v7H36.3z
		 M43.5,188.5v-7h7v7H43.5z M50.8,188.5v-7h7v7H50.8z M29,181.3v-7h7v7H29z M36.3,181.3v-7h7v7H36.3z M43.5,181.3v-7h7v7H43.5z
		 M50.8,181.3v-7h7v7H50.8z M14.5,174v-7h7v7H14.5z M21.8,174v-7h7v7H21.8z M29,174v-7h7v7H29z M43.5,174v-7h7v7H43.5z M7.3,166.8
		v-7h7v7H7.3z M14.5,166.8v-7h7v7H14.5z M21.8,166.8v-7h7v7H21.8z M36.3,166.8v-7h7v7H36.3z M50.8,166.8v-7h7v7H50.8z M58.1,232.1
		v-7h7v7H58.1z M72.6,232.1v-7h7v7H72.6z M79.9,232.1v-7h7v7H79.9z M87.1,232.1v-7h7v7H87.1z M94.4,232.1v-7h7v7H94.4z M101.6,232.1
		v-7h7v7H101.6z M116.1,232.1v-7h7v7H116.1z M58.1,224.8v-7h7v7H58.1z M72.6,224.8v-7h7v7H72.6z M94.4,224.8v-7h7v7H94.4z
		 M116.1,224.8v-7h7v7H116.1z M58.1,217.6v-7h7v7H58.1z M72.6,217.6v-7h7v7H72.6z M94.4,217.6v-7h7v7H94.4z M101.6,217.6v-7h7v7
		H101.6z M116.1,217.6v-7h7v7H116.1z M58.1,210.3v-7h7v7H58.1z M72.6,210.3v-7h7v7H72.6z M87.1,210.3v-7h7v7H87.1z M94.4,210.3v-7h7
		v7H94.4z M101.6,210.3v-7h7v7H101.6z M116.1,210.3v-7h7v7H116.1z M58.1,203.1v-7h7v7H58.1z M65.3,203.1v-7h7v7H65.3z M72.6,203.1
		v-7h7v7H72.6z M79.9,203.1v-7h7v7H79.9z M87.1,203.1v-7h7v7H87.1z M94.4,203.1v-7h7v7H94.4z M101.6,203.1v-7h7v7H101.6z
		 M108.9,203.1v-7h7v7H108.9z M116.1,203.1v-7h7v7H116.1z M123.4,203.1v-7h7v7H123.4z M58.1,195.8v-7h7v7H58.1z M65.3,195.8v-7h7v7
		H65.3z M72.6,195.8v-7h7v7H72.6z M79.9,195.8v-7h7v7H79.9z M87.1,195.8v-7h7v7H87.1z M94.4,195.8v-7h7v7H94.4z M101.6,195.8v-7h7v7
		H101.6z M108.9,195.8v-7h7v7H108.9z M116.1,195.8v-7h7v7H116.1z M123.4,195.8v-7h7v7H123.4z M58.1,188.5v-7h7v7H58.1z M65.3,188.5
		v-7h7v7H65.3z M72.6,188.5v-7h7v7H72.6z M79.9,188.5v-7h7v7H79.9z M87.1,188.5v-7h7v7H87.1z M94.4,188.5v-7h7v7H94.4z M101.6,188.5
		v-7h7v7H101.6z M108.9,188.5v-7h7v7H108.9z M116.1,188.5v-7h7v7H116.1z M123.4,188.5v-7h7v7H123.4z M58.1,181.3v-7h7v7H58.1z
		 M65.3,181.3v-7h7v7H65.3z M72.6,181.3v-7h7v7H72.6z M79.9,181.3v-7h7v7H79.9z M87.1,181.3v-7h7v7H87.1z M94.4,181.3v-7h7v7H94.4z
		 M101.6,181.3v-7h7v7H101.6z M108.9,181.3v-7h7v7H108.9z M116.1,181.3v-7h7v7H116.1z M123.4,181.3v-7h7v7H123.4z M58.1,174v-7h7v7
		H58.1z M72.6,174v-7h7v7H72.6z M87.1,174v-7h7v7H87.1z M101.6,174v-7h7v7H101.6z M116.1,174v-7h7v7H116.1z M65.3,166.8v-7h7v7H65.3
		z M79.9,166.8v-7h7v7H79.9z M94.4,166.8v-7h7v7H94.4z M108.9,166.8v-7h7v7H108.9z M123.4,166.8v-7h7v7H123.4z M130.7,232.1v-7h7v7
		H130.7z M137.9,232.1v-7h7v7H137.9z M145.2,232.1v-7h7v7H145.2z M152.5,232.1v-7h7v7H152.5z M159.7,232.1v-7h7v7H159.7z M167,232.1
		v-7h7v7H167z M174.2,232.1v-7h7v7H174.2z M130.7,224.8v-7h7v7H130.7z M145.2,224.8v-7h7v7H145.2z M159.7,224.8v-7h7v7H159.7z
		 M174.2,224.8v-7h7v7H174.2z M130.7,217.6v-7h7v7H130.7z M137.9,217.6v-7h7v7H137.9z M152.5,217.6v-7h7v7H152.5z M167,217.6v-7h7v7
		H167z M174.2,217.6v-7h7v7H174.2z M130.7,210.3v-7h7v7H130.7z M137.9,210.3v-7h7v7H137.9z M145.2,210.3v-7h7v7H145.2z M152.5,210.3
		v-7h7v7H152.5z M159.7,210.3v-7h7v7H159.7z M167,210.3v-7h7v7H167z M174.2,210.3v-7h7v7H174.2z M130.7,203.1v-7h7v7H130.7z
		 M137.9,203.1v-7h7v7H137.9z M145.2,203.1v-7h7v7H145.2z M152.5,203.1v-7h7v7H152.5z M159.7,203.1v-7h7v7H159.7z M167,203.1v-7h7v7
		H167z M130.7,195.8v-7h7v7H130.7z M137.9,195.8v-7h7v7H137.9z M145.2,195.8v-7h7v7H145.2z M152.5,195.8v-7h7v7H152.5z M159.7,195.8
		v-7h7v7H159.7z M167,195.8v-7h7v7H167z M130.7,188.5v-7h7v7H130.7z M137.9,188.5v-7h7v7H137.9z M145.2,188.5v-7h7v7H145.2z
		 M152.5,188.5v-7h7v7H152.5z M159.7,188.5v-7h7v7H159.7z M167,188.5v-7h7v7H167z M130.7,181.3v-7h7v7H130.7z M137.9,181.3v-7h7v7
		H137.9z M145.2,181.3v-7h7v7H145.2z M152.5,181.3v-7h7v7H152.5z M159.7,181.3v-7h7v7H159.7z M167,181.3v-7h7v7H167z M130.7,174v-7
		h7v7H130.7z M145.2,174v-7h7v7H145.2z M159.7,174v-7h7v7H159.7z M174.2,174v-7h7v7H174.2z M137.9,166.8v-7h7v7H137.9z M152.5,166.8
		v-7h7v7H152.5z M167,166.8v-7h7v7H167z M174.2,166.8v-7h7v7H174.2z M181.5,166.8v-7h7v7H181.5z M7.3,159.5v-7h7v7H7.3z M14.5,159.5
		v-7h7v7H14.5z M21.8,159.5v-7h7v7H21.8z M29,159.5v-7h7v7H29z M36.3,159.5v-7h7v7H36.3z M43.5,159.5v-7h7v7H43.5z M50.8,159.5v-7h7
		v7H50.8z M7.3,152.2v-7h7v7H7.3z M14.5,152.2v-7h7v7H14.5z M21.8,152.2v-7h7v7H21.8z M29,152.2v-7h7v7H29z M36.3,152.2v-7h7v7H36.3
		z M43.5,152.2v-7h7v7H43.5z M50.8,152.2v-7h7v7H50.8z M7.3,145v-7h7v7H7.3z M14.5,145v-7h7v7H14.5z M21.8,145v-7h7v7H21.8z M29,145
		v-7h7v7H29z M36.3,145v-7h7v7H36.3z M43.5,145v-7h7v7H43.5z M50.8,145v-7h7v7H50.8z M7.3,137.7v-7h7v7H7.3z M14.5,137.7v-7h7v7
		H14.5z M21.8,137.7v-7h7v7H21.8z M29,137.7v-7h7v7H29z M36.3,137.7v-7h7v7H36.3z M43.5,137.7v-7h7v7H43.5z M50.8,137.7v-7h7v7H50.8
		z M7.3,130.5v-7h7v7H7.3z M14.5,130.5v-7h7v7H14.5z M21.8,130.5v-7h7v7H21.8z M29,130.5v-7h7v7H29z M36.3,130.5v-7h7v7H36.3z
		 M43.5,130.5v-7h7v7H43.5z M50.8,130.5v-7h7v7H50.8z M7.3,123.2v-7h7v7H7.3z M14.5,123.2v-7h7v7H14.5z M21.8,123.2v-7h7v7H21.8z
		 M29,123.2v-7h7v7H29z M36.3,123.2v-7h7v7H36.3z M43.5,123.2v-7h7v7H43.5z M50.8,123.2v-7h7v7H50.8z M7.3,115.9v-7h7v7H7.3z
		 M14.5,115.9v-7h7v7H14.5z M21.8,115.9v-7h7v7H21.8z M29,115.9v-7h7v7H29z M36.3,115.9v-7h7v7H36.3z M43.5,115.9v-7h7v7H43.5z
		 M50.8,115.9v-7h7v7H50.8z M7.3,108.7v-7h7v7H7.3z M14.5,108.7v-7h7v7H14.5z M21.8,108.7v-7h7v7H21.8z M29,108.7v-7h7v7H29z
		 M36.3,108.7v-7h7v7H36.3z M43.5,108.7v-7h7v7H43.5z M50.8,108.7v-7h7v7H50.8z M7.3,101.4v-7h7v7H7.3z M14.5,101.4v-7h7v7H14.5z
		 M21.8,101.4v-7h7v7H21.8z M29,101.4v-7h7v7H29z M36.3,101.4v-7h7v7H36.3z M43.5,101.4v-7h7v7H43.5z M50.8,101.4v-7h7v7H50.8z
		 M7.3,94.2v-7h7v7H7.3z M14.5,94.2v-7h7v7H14.5z M21.8,94.2v-7h7v7H21.8z M29,94.2v-7h7v7H29z M36.3,94.2v-7h7v7H36.3z M43.5,94.2
		v-7h7v7H43.5z M50.8,94.2v-7h7v7H50.8z M58.1,159.5v-7h7v7H58.1z M65.3,159.5v-7h7v7H65.3z M72.6,159.5v-7h7v7H72.6z M79.9,159.5
		v-7h7v7H79.9z M87.1,159.5v-7h7v7H87.1z M94.4,159.5v-7h7v7H94.4z M101.6,159.5v-7h7v7H101.6z M108.9,159.5v-7h7v7H108.9z
		 M116.1,159.5v-7h7v7H116.1z M123.4,159.5v-7h7v7H123.4z M58.1,152.2v-7h7v7H58.1z M65.3,152.2v-7h7v7H65.3z M72.6,152.2v-7h7v7
		H72.6z M79.9,152.2v-7h7v7H79.9z M87.1,152.2v-7h7v7H87.1z M94.4,152.2v-7h7v7H94.4z M101.6,152.2v-7h7v7H101.6z M108.9,152.2v-7h7
		v7H108.9z M116.1,152.2v-7h7v7H116.1z M123.4,152.2v-7h7v7H123.4z M58.1,145v-7h7v7H58.1z M65.3,145v-7h7v7H65.3z M72.6,145v-7h7v7
		H72.6z M79.9,145v-7h7v7H79.9z M87.1,145v-7h7v7H87.1z M94.4,145v-7h7v7H94.4z M101.6,145v-7h7v7H101.6z M108.9,145v-7h7v7H108.9z
		 M116.1,145v-7h7v7H116.1z M123.4,145v-7h7v7H123.4z M58.1,137.7v-7h7v7H58.1z M65.3,137.7v-7h7v7H65.3z M72.6,137.7v-7h7v7H72.6z
		 M79.9,137.7v-7h7v7H79.9z M87.1,137.7v-7h7v7H87.1z M94.4,137.7v-7h7v7H94.4z M101.6,137.7v-7h7v7H101.6z M108.9,137.7v-7h7v7
		H108.9z M116.1,137.7v-7h7v7H116.1z M123.4,137.7v-7h7v7H123.4z M58.1,130.5v-7h7v7H58.1z M65.3,130.5v-7h7v7H65.3z M72.6,130.5v-7
		h7v7H72.6z M79.9,130.5v-7h7v7H79.9z M87.1,130.5v-7h7v7H87.1z M94.4,130.5v-7h7v7H94.4z M101.6,130.5v-7h7v7H101.6z M108.9,130.5
		v-7h7v7H108.9z M116.1,130.5v-7h7v7H116.1z M123.4,130.5v-7h7v7H123.4z M58.1,123.2v-7h7v7H58.1z M65.3,123.2v-7h7v7H65.3z
		 M72.6,123.2v-7h7v7H72.6z M79.9,123.2v-7h7v7H79.9z M87.1,123.2v-7h7v7H87.1z M94.4,123.2v-7h7v7H94.4z M101.6,123.2v-7h7v7H101.6
		z M108.9,123.2v-7h7v7H108.9z M116.1,123.2v-7h7v7H116.1z M123.4,123.2v-7h7v7H123.4z M58.1,115.9v-7h7v7H58.1z M65.3,115.9v-7h7v7
		H65.3z M72.6,115.9v-7h7v7H72.6z M79.9,115.9v-7h7v7H79.9z M87.1,115.9v-7h7v7H87.1z M94.4,115.9v-7h7v7H94.4z M101.6,115.9v-7h7v7
		H101.6z M108.9,115.9v-7h7v7H108.9z M116.1,115.9v-7h7v7H116.1z M123.4,115.9v-7h7v7H123.4z M58.1,108.7v-7h7v7H58.1z M65.3,108.7
		v-7h7v7H65.3z M72.6,108.7v-7h7v7H72.6z M79.9,108.7v-7h7v7H79.9z M87.1,108.7v-7h7v7H87.1z M94.4,108.7v-7h7v7H94.4z M101.6,108.7
		v-7h7v7H101.6z M108.9,108.7v-7h7v7H108.9z M116.1,108.7v-7h7v7H116.1z M123.4,108.7v-7h7v7H123.4z M58.1,101.4v-7h7v7H58.1z
		 M65.3,101.4v-7h7v7H65.3z M72.6,101.4v-7h7v7H72.6z M79.9,101.4v-7h7v7H79.9z M87.1,101.4v-7h7v7H87.1z M94.4,101.4v-7h7v7H94.4z
		 M101.6,101.4v-7h7v7H101.6z M108.9,101.4v-7h7v7H108.9z M116.1,101.4v-7h7v7H116.1z M123.4,101.4v-7h7v7H123.4z M58.1,94.2v-7h7v7
		H58.1z M65.3,94.2v-7h7v7H65.3z M72.6,94.2v-7h7v7H72.6z M79.9,94.2v-7h7v7H79.9z M87.1,94.2v-7h7v7H87.1z M94.4,94.2v-7h7v7H94.4z
		 M101.6,94.2v-7h7v7H101.6z M108.9,94.2v-7h7v7H108.9z M116.1,94.2v-7h7v7H116.1z M123.4,94.2v-7h7v7H123.4z M130.7,159.5v-7h7v7
		H130.7z M137.9,159.5v-7h7v7H137.9z M145.2,159.5v-7h7v7H145.2z M152.5,159.5v-7h7v7H152.5z M159.7,159.5v-7h7v7H159.7z M167,159.5
		v-7h7v7H167z M174.2,159.5v-7h7v7H174.2z M181.5,159.5v-7h7v7H181.5z M130.7,152.2v-7h7v7H130.7z M137.9,152.2v-7h7v7H137.9z
		 M145.2,152.2v-7h7v7H145.2z M152.5,152.2v-7h7v7H152.5z M159.7,152.2v-7h7v7H159.7z M167,152.2v-7h7v7H167z M174.2,152.2v-7h7v7
		H174.2z M181.5,152.2v-7h7v7H181.5z M130.7,145v-7h7v7H130.7z M137.9,145v-7h7v7H137.9z M145.2,145v-7h7v7H145.2z M152.5,145v-7h7
		v7H152.5z M159.7,145v-7h7v7H159.7z M167,145v-7h7v7H167z M174.2,145v-7h7v7H174.2z M181.5,145v-7h7v7H181.5z M130.7,137.7v-7h7v7
		H130.7z M137.9,137.7v-7h7v7H137.9z M145.2,137.7v-7h7v7H145.2z M152.5,137.7v-7h7v7H152.5z M159.7,137.7v-7h7v7H159.7z M167,137.7
		v-7h7v7H167z M174.2,137.7v-7h7v7H174.2z M181.5,137.7v-7h7v7H181.5z M130.7,130.5v-7h7v7H130.7z M137.9,130.5v-7h7v7H137.9z
		 M145.2,130.5v-7h7v7H145.2z M152.5,130.5v-7h7v7H152.5z M159.7,130.5v-7h7v7H159.7z M167,130.5v-7h7v7H167z M174.2,130.5v-7h7v7
		H174.2z M181.5,130.5v-7h7v7H181.5z M130.7,123.2v-7h7v7H130.7z M137.9,123.2v-7h7v7H137.9z M145.2,123.2v-7h7v7H145.2z
		 M152.5,123.2v-7h7v7H152.5z M159.7,123.2v-7h7v7H159.7z M167,123.2v-7h7v7H167z M174.2,123.2v-7h7v7H174.2z M181.5,123.2v-7h7v7
		H181.5z M130.7,115.9v-7h7v7H130.7z M137.9,115.9v-7h7v7H137.9z M145.2,115.9v-7h7v7H145.2z M152.5,115.9v-7h7v7H152.5z
		 M159.7,115.9v-7h7v7H159.7z M167,115.9v-7h7v7H167z M174.2,115.9v-7h7v7H174.2z M181.5,115.9v-7h7v7H181.5z M130.7,108.7v-7h7v7
		H130.7z M137.9,108.7v-7h7v7H137.9z M145.2,108.7v-7h7v7H145.2z M152.5,108.7v-7h7v7H152.5z M159.7,108.7v-7h7v7H159.7z M167,108.7
		v-7h7v7H167z M174.2,108.7v-7h7v7H174.2z M181.5,108.7v-7h7v7H181.5z M130.7,101.4v-7h7v7H130.7z M137.9,101.4v-7h7v7H137.9z
		 M145.2,101.4v-7h7v7H145.2z M152.5,101.4v-7h7v7H152.5z M159.7,101.4v-7h7v7H159.7z M167,101.4v-7h7v7H167z M174.2,101.4v-7h7v7
		H174.2z M181.5,101.4v-7h7v7H181.5z M130.7,94.2v-7h7v7H130.7z M137.9,94.2v-7h7v7H137.9z M145.2,94.2v-7h7v7H145.2z M152.5,94.2
		v-7h7v7H152.5z M159.7,94.2v-7h7v7H159.7z M167,94.2v-7h7v7H167z M174.2,94.2v-7h7v7H174.2z M181.5,94.2v-7h7v7H181.5z M7.3,86.9
		v-7h7v7H7.3z M14.5,86.9v-7h7v7H14.5z M21.8,86.9v-7h7v7H21.8z M29,86.9v-7h7v7H29z M36.3,86.9v-7h7v7H36.3z M43.5,86.9v-7h7v7
		H43.5z M50.8,86.9v-7h7v7H50.8z M7.3,79.6v-7h7v7H7.3z M14.5,79.6v-7h7v7H14.5z M21.8,79.6v-7h7v7H21.8z M29,79.6v-7h7v7H29z
		 M36.3,79.6v-7h7v7H36.3z M43.5,79.6v-7h7v7H43.5z M50.8,79.6v-7h7v7H50.8z M7.3,72.4v-7h7v7H7.3z M14.5,72.4v-7h7v7H14.5z
		 M21.8,72.4v-7h7v7H21.8z M29,72.4v-7h7v7H29z M36.3,72.4v-7h7v7H36.3z M43.5,72.4v-7h7v7H43.5z M50.8,72.4v-7h7v7H50.8z M7.3,65.1
		v-7h7v7H7.3z M14.5,65.1v-7h7v7H14.5z M21.8,65.1v-7h7v7H21.8z M29,65.1v-7h7v7H29z M36.3,65.1v-7h7v7H36.3z M43.5,65.1v-7h7v7
		H43.5z M7.3,57.9v-7h7v7H7.3z M14.5,57.9v-7h7v7H14.5z M21.8,57.9v-7h7v7H21.8z M29,57.9v-7h7v7H29z M36.3,57.9v-7h7v7H36.3z
		 M43.5,57.9v-7h7v7H43.5z M50.8,57.9v-7h7v7H50.8z M14.5,50.6v-7h7v7H14.5z M21.8,50.6v-7h7v7H21.8z M29,50.6v-7h7v7H29z
		 M36.3,50.6v-7h7v7H36.3z M43.5,50.6v-7h7v7H43.5z M50.8,50.6v-7h7v7H50.8z M14.5,43.3v-7h7v7H14.5z M21.8,43.3v-7h7v7H21.8z
		 M29,43.3v-7h7v7H29z M36.3,43.3v-7h7v7H36.3z M43.5,43.3v-7h7v7H43.5z M50.8,43.3v-7h7v7H50.8z M0,36.1l0-7h7v7H0z M7.3,36.1v-7h7
		v7H7.3z M14.5,36.1v-7h7v7H14.5z M21.8,36.1v-7h7v7H21.8z M36.3,36.1v-7h7v7H36.3z M43.5,36.1v-7h7v7H43.5z M50.8,36.1v-7h7v7H50.8
		z M14.5,28.8v-7h7v7H14.5z M21.8,28.8v-7h7v7H21.8z M29,28.8v-7h7v7H29z M36.3,28.8v-7h7v7H36.3z M43.5,28.8v-7h7v7H43.5z
		 M50.8,28.8v-7h7v7H50.8z M14.5,21.6v-7h7v7H14.5z M21.8,21.6v-7h7v7H21.8z M36.3,21.6v-7h7v7H36.3z M50.8,21.6v-7h7v7H50.8z
		 M58.1,86.9v-7h7v7H58.1z M65.3,86.9v-7h7v7H65.3z M72.6,86.9v-7h7v7H72.6z M87.1,86.9v-7h7v7H87.1z M101.6,86.9v-7h7v7H101.6z
		 M116.1,86.9v-7h7v7H116.1z M123.4,86.9v-7h7v7H123.4z M58.1,79.6v-7h7v7H58.1z M65.3,79.6v-7h7v7H65.3z M72.6,79.6v-7h7v7H72.6z
		 M79.9,79.6v-7h7v7H79.9z M87.1,79.6v-7h7v7H87.1z M94.4,79.6v-7h7v7H94.4z M101.6,79.6v-7h7v7H101.6z M108.9,79.6v-7h7v7H108.9z
		 M116.1,79.6v-7h7v7H116.1z M123.4,79.6v-7h7v7H123.4z M58.1,72.4v-7h7v7H58.1z M65.3,72.4v-7h7v7H65.3z M72.6,72.4v-7h7v7H72.6z
		 M87.1,72.4v-7h7v7H87.1z M94.4,72.4v-7h7v7H94.4z M101.6,72.4v-7h7v7H101.6z M116.1,72.4v-7h7v7H116.1z M123.4,72.4v-7h7v7H123.4z
		 M58.1,65.1v-7h7v7H58.1z M65.3,65.1v-7h7v7H65.3z M72.6,65.1v-7h7v7H72.6z M79.9,65.1v-7h7v7H79.9z M87.1,65.1v-7h7v7H87.1z
		 M94.4,65.1v-7h7v7H94.4z M101.6,65.1v-7h7v7H101.6z M108.9,65.1v-7h7v7H108.9z M116.1,65.1v-7h7v7H116.1z M123.4,65.1v-7h7v7
		H123.4z M58.1,57.9v-7h7v7H58.1z M65.3,57.9v-7h7v7H65.3z M72.6,57.9v-7h7v7H72.6z M87.1,57.9v-7h7v7H87.1z M101.6,57.9v-7h7v7
		H101.6z M116.1,57.9v-7h7v7H116.1z M123.4,57.9v-7h7v7H123.4z M58.1,50.6v-7h7v7H58.1z M65.3,50.6v-7h7v7H65.3z M72.6,50.6v-7h7v7
		H72.6z M79.9,50.6v-7h7v7H79.9z M87.1,50.6v-7h7v7H87.1z M94.4,50.6v-7h7v7H94.4z M101.6,50.6v-7h7v7H101.6z M108.9,50.6v-7h7v7
		H108.9z M116.1,50.6v-7h7v7H116.1z M123.4,50.6v-7h7v7H123.4z M58.1,43.3v-7h7v7H58.1z M65.3,43.3v-7h7v7H65.3z M72.6,43.3v-7h7v7
		H72.6z M79.9,43.3v-7h7v7H79.9z M87.1,43.3v-7h7v7H87.1z M94.4,43.3v-7h7v7H94.4z M101.6,43.3v-7h7v7H101.6z M108.9,43.3v-7h7v7
		H108.9z M116.1,43.3v-7h7v7H116.1z M123.4,43.3v-7h7v7H123.4z M58.1,36.1v-7h7v7H58.1z M65.3,36.1v-7h7v7H65.3z M72.6,36.1v-7h7v7
		H72.6z M79.9,36.1v-7h7v7H79.9z M87.1,36.1v-7h7v7H87.1z M94.4,36.1v-7h7v7H94.4z M101.6,36.1v-7h7v7H101.6z M108.9,36.1v-7h7v7
		H108.9z M116.1,36.1v-7h7v7H116.1z M123.4,36.1v-7h7v7H123.4z M58.1,28.8v-7h7v7H58.1z M65.3,28.8v-7h7v7H65.3z M72.6,28.8v-7h7v7
		H72.6z M79.9,28.8v-7h7v7H79.9z M87.1,28.8v-7h7v7H87.1z M94.4,28.8v-7h7v7H94.4z M101.6,28.8v-7h7v7H101.6z M108.9,28.8v-7h7v7
		H108.9z M116.1,28.8v-7h7v7H116.1z M123.4,28.8v-7h7v7H123.4z M65.3,21.6v-7h7v7H65.3z M79.9,21.6v-7h7v7H79.9z M94.4,21.6v-7h7v7
		H94.4z M108.9,21.6v-7h7v7H108.9z M123.4,21.6v-7h7v7H123.4z M130.7,86.9v-7h7v7H130.7z M137.9,86.9v-7h7v7H137.9z M145.2,86.9v-7
		h7v7H145.2z M152.5,86.9v-7h7v7H152.5z M159.7,86.9v-7h7v7H159.7z M167,86.9v-7h7v7H167z M174.2,86.9v-7h7v7H174.2z M181.5,86.9v-7
		h7v7H181.5z M130.7,79.6v-7h7v7H130.7z M137.9,79.6v-7h7v7H137.9z M145.2,79.6v-7h7v7H145.2z M152.5,79.6v-7h7v7H152.5z
		 M159.7,79.6v-7h7v7H159.7z M167,79.6v-7h7v7H167z M174.2,79.6v-7h7v7H174.2z M181.5,79.6v-7h7v7H181.5z M130.7,72.4v-7h7v7H130.7z
		 M137.9,72.4v-7h7v7H137.9z M145.2,72.4v-7h7v7H145.2z M152.5,72.4v-7h7v7H152.5z M159.7,72.4v-7h7v7H159.7z M167,72.4v-7h7v7H167z
		 M174.2,72.4v-7h7v7H174.2z M181.5,72.4v-7h7v7H181.5z M130.7,65.1v-7h7v7H130.7z M145.2,65.1v-7h7v7H145.2z M152.5,65.1v-7h7v7
		H152.5z M159.7,65.1v-7h7v7H159.7z M167,65.1v-7h7v7H167z M174.2,65.1v-7h7v7H174.2z M181.5,65.1v-7h7v7H181.5z M130.7,57.9v-7h7v7
		H130.7z M137.9,57.9v-7h7v7H137.9z M145.2,57.9v-7h7v7H145.2z M152.5,57.9v-7h7v7H152.5z M159.7,57.9v-7h7v7H159.7z M167,57.9v-7h7
		v7H167z M174.2,57.9v-7h7v7H174.2z M181.5,57.9v-7h7v7H181.5z M130.7,50.6v-7h7v7H130.7z M137.9,50.6v-7h7v7H137.9z M145.2,50.6v-7
		h7v7H145.2z M152.5,50.6v-7h7v7H152.5z M159.7,50.6v-7h7v7H159.7z M167,50.6v-7h7v7H167z M174.2,50.6v-7h7v7H174.2z M130.7,43.3v-7
		h7v7H130.7z M137.9,43.3v-7h7v7H137.9z M145.2,43.3v-7h7v7H145.2z M152.5,43.3v-7h7v7H152.5z M159.7,43.3v-7h7v7H159.7z M167,43.3
		v-7h7v7H167z M174.2,43.3v-7h7v7H174.2z M130.7,36.1v-7h7v7H130.7z M137.9,36.1v-7h7v7H137.9z M145.2,36.1v-7h7v7H145.2z
		 M152.5,36.1v-7h7v7H152.5z M167,36.1v-7h7v7H167z M174.2,36.1v-7h7v7H174.2z M181.5,36.1v-7h7v7H181.5z M130.7,28.8v-7h7v7H130.7z
		 M137.9,28.8v-7h7v7H137.9z M145.2,28.8v-7h7v7H145.2z M152.5,28.8v-7h7v7H152.5z M159.7,28.8v-7h7v7H159.7z M167,28.8v-7h7v7H167z
		 M174.2,28.8v-7h7v7H174.2z M137.9,21.6v-7h7v7H137.9z M152.5,21.6v-7h7v7H152.5z M167,21.6v-7h7v7H167z M174.2,21.6v-7h7v7H174.2z
		 M188.7,36.1v-7h7v7H188.7z M21.8,14.3v-7h7v7H21.8z M29,14.3v-7h7v7H29z M43.5,14.3v-7h7v7H43.5z M29,7V0l7,0v7H29z M36.3,7V0l7,0
		v7H36.3z M43.5,7V0l7,0v7H43.5z M50.8,7V0l7,0v7H50.8z M58.1,14.3v-7h7v7H58.1z M72.6,14.3v-7h7v7H72.6z M87.1,14.3v-7h7v7H87.1z
		 M101.6,14.3v-7h7v7H101.6z M116.1,14.3v-7h7v7H116.1z M58.1,7V0l7,0v7H58.1z M65.3,7V0l7,0v7H65.3z M72.6,7V0l7,0v7H72.6z M79.9,7
		V0l7,0v7H79.9z M87.1,7V0l7,0v7H87.1z M94.4,7V0l7,0v7H94.4z M101.6,7V0l7,0v7H101.6z M108.9,7V0l7,0v7H108.9z M116.1,7V0l7,0v7
		H116.1z M123.4,7V0l7,0v7H123.4z M130.7,14.3v-7h7v7H130.7z M145.2,14.3v-7h7v7H145.2z M159.7,14.3v-7h7v7H159.7z M167,14.3v-7h7v7
		H167z M130.7,7V0l7,0v7H130.7z M137.9,7V0l7,0v7H137.9z M145.2,7V0l7,0v7H145.2z M152.5,7V0l7,0v7H152.5z M159.7,7V0l7,0v7H159.7z"
		/>
</g>
</svg>
