<?xml version="1.0" encoding="utf-8"?>
<!-- Generator: Adobe Illustrator 27.3.1, SVG Export Plug-In . SVG Version: 6.00 Build 0)  -->
<svg version="1.1" xmlns="http://www.w3.org/2000/svg" xmlns:xlink="http://www.w3.org/1999/xlink" x="0px" y="0px"
	 viewBox="0 0 109.7 109.6" style="enable-background:new 0 0 109.7 109.6;" xml:space="preserve">
<style type="text/css">
	.st0{fill:#FCE19B;}
	.st1{fill:#1E0E01;}
</style>
<g id="Слой_2">
	<path class="st0" d="M109.7,15c0-0.3-0.2-0.5-0.5-0.5h-6.8V7.8c0-0.3-0.2-0.5-0.5-0.5h-7c-0.1,0-0.1,0-0.1,0c0,0-0.1,0-0.1,0h-7
		c0,0-0.1,0-0.1,0c0,0-0.1,0-0.1,0h-7c-0.1,0-0.1,0-0.1,0c0,0-0.1,0-0.1,0h-7c-0.3,0-0.5,0.2-0.5,0.5v6.7h-6.7c-0.1,0-0.1,0-0.1,0
		c0,0-0.1,0-0.1,0h-6.8V7.8c0-0.3-0.2-0.5-0.5-0.5h-7c0,0-0.1,0-0.1,0c0,0-0.1,0-0.1,0h-6.8V0.5c0-0.3-0.2-0.5-0.5-0.5h-7
		c0,0-0.1,0-0.1,0c0,0-0.1,0-0.1,0h-7c-0.3,0-0.5,0.2-0.5,0.5v6.8h-6.8c-0.3,0-0.5,0.2-0.5,0.5v7c0,0,0,0.1,0,0.1c0,0,0,0.1,0,0.1v7
		c0,0.1,0,0.1,0,0.2c0,0,0,0.1,0,0.2v7c0,0.3,0.2,0.5,0.5,0.5h6.8v6.7c0,0.1,0,0.1,0,0.1c0,0,0,0.1,0,0.1v6.8h-6.8
		c-0.1,0-0.1,0-0.1,0c0,0-0.1,0-0.1,0h-7c0,0-0.1,0-0.1,0c0,0-0.1,0-0.1,0h-7c-0.3,0-0.5,0.2-0.5,0.5v6.7H0.5C0.2,50.8,0,51,0,51.3
		v7c0,0.1,0,0.1,0,0.1c0,0,0,0.1,0,0.1v7c0,0.3,0.2,0.5,0.5,0.5h6.8v6.8c0,0.3,0.2,0.5,0.5,0.5h7c0,0,0.1,0,0.1,0c0,0,0.1,0,0.1,0
		h6.8v6.7c0,0.3,0.2,0.5,0.5,0.5h7c0.1,0,0.1,0,0.2,0c0,0,0.1,0,0.2,0h6.7v6.8c0,0.3,0.2,0.5,0.5,0.5h6.8v6.7c0,0.1,0,0.1,0,0.1
		c0,0,0,0.1,0,0.1v7c0,0.3,0.2,0.5,0.5,0.5h6.7v6.7c0,0.3,0.2,0.5,0.5,0.5h7c0.1,0,0.1,0,0.1,0c0,0,0.1,0,0.1,0h7c0.1,0,0.1,0,0.1,0
		c0,0,0.1,0,0.1,0h7c0.3,0,0.5-0.2,0.5-0.5v-6.7h6.7c0.3,0,0.5-0.2,0.5-0.5v-6.8h6.8c0.3,0,0.5-0.2,0.5-0.5v-6.7h6.7
		c0.3,0,0.5-0.2,0.5-0.5v-6.8h6.8c0.1,0,0.1,0,0.2,0c0,0,0.1,0,0.2,0h7c0.3,0,0.5-0.2,0.5-0.5v-7c0,0,0-0.1,0-0.1c0,0,0-0.1,0-0.1
		v-7c0-0.1,0-0.1,0-0.1c0,0,0-0.1,0-0.1v-7c0-0.3-0.2-0.5-0.5-0.5h-6.8v-6.8c0-0.3-0.2-0.5-0.5-0.5h-6.8v-6.5h6.8
		c0.3,0,0.5-0.2,0.5-0.5V37h6.8c0.3,0,0.5-0.2,0.5-0.5v-7c0,0,0-0.1,0-0.1c0,0,0-0.1,0-0.1v-7c0-0.1,0-0.1,0-0.2c0,0,0-0.1,0-0.2V15
		z"/>
</g>
<g id="Слой_1">
	<rect x="22.3" y="7.8" class="st1" width="7" height="7"/>
	<rect x="22.3" y="15" class="st1" width="7" height="7"/>
	<rect x="22.3" y="22.3" class="st1" width="7" height="7"/>
	<rect x="29.6" y="0.5" class="st1" width="7" height="7"/>
	<rect x="29.6" y="7.8" class="st1" width="7" height="7"/>
	<rect x="29.6" y="22.3" class="st1" width="7" height="7"/>
	<rect x="29.6" y="29.5" class="st1" width="7" height="7"/>
	<rect x="29.6" y="36.8" class="st1" width="7" height="7"/>
	<rect x="36.8" y="0.5" class="st1" width="7" height="7"/>
	<rect x="36.8" y="15" class="st1" width="7" height="7"/>
	<rect x="36.8" y="29.5" class="st1" width="7" height="7"/>
	<rect x="44.1" y="7.8" class="st1" width="7" height="7"/>
	<rect x="44.1" y="22.3" class="st1" width="7" height="7"/>
	<rect x="44.1" y="36.8" class="st1" width="7" height="7"/>
	<rect x="51.3" y="7.8" class="st1" width="7" height="7"/>
	<rect x="51.3" y="15" class="st1" width="7" height="7"/>
	<rect x="51.3" y="29.5" class="st1" width="7" height="7"/>
	<rect x="51.3" y="36.8" class="st1" width="7" height="7"/>
	<rect x="0.5" y="51.3" class="st1" width="7" height="7"/>
	<rect x="0.5" y="58.6" class="st1" width="7" height="7"/>
	<rect x="7.8" y="44.1" class="st1" width="7" height="7"/>
	<rect x="7.8" y="58.6" class="st1" width="7" height="7"/>
	<rect x="7.8" y="65.9" class="st1" width="7" height="7"/>
	<rect x="15" y="44.1" class="st1" width="7" height="7"/>
	<rect x="15" y="51.3" class="st1" width="7" height="7"/>
	<rect x="15" y="65.9" class="st1" width="7" height="7"/>
	<rect x="22.3" y="44.1" class="st1" width="7" height="7"/>
	<rect x="22.3" y="58.6" class="st1" width="7" height="7"/>
	<rect x="22.3" y="65.9" class="st1" width="7" height="7"/>
	<rect x="22.3" y="73.1" class="st1" width="7" height="7"/>
	<rect x="29.6" y="44.1" class="st1" width="7" height="7"/>
	<rect x="29.6" y="51.3" class="st1" width="7" height="7"/>
	<rect x="29.6" y="58.6" class="st1" width="7" height="7"/>
	<rect x="29.6" y="65.9" class="st1" width="7" height="7"/>
	<rect x="29.6" y="73.1" class="st1" width="7" height="7"/>
	<rect x="36.8" y="44.1" class="st1" width="7" height="7"/>
	<rect x="36.8" y="51.3" class="st1" width="7" height="7"/>
	<rect x="36.8" y="58.6" class="st1" width="7" height="7"/>
	<rect x="36.8" y="65.9" class="st1" width="7" height="7"/>
	<rect x="36.8" y="73.1" class="st1" width="7" height="7"/>
	<rect x="36.8" y="80.4" class="st1" width="7" height="7"/>
	<rect x="44.1" y="44.1" class="st1" width="7" height="7"/>
	<rect x="44.1" y="51.3" class="st1" width="7" height="7"/>
	<rect x="44.1" y="58.6" class="st1" width="7" height="7"/>
	<rect x="44.1" y="65.9" class="st1" width="7" height="7"/>
	<rect x="44.1" y="73.1" class="st1" width="7" height="7"/>
	<rect x="44.1" y="80.4" class="st1" width="7" height="7"/>
	<rect x="44.1" y="87.6" class="st1" width="7" height="7"/>
	<rect x="44.1" y="94.9" class="st1" width="7" height="7"/>
	<rect x="51.3" y="44.1" class="st1" width="7" height="7"/>
	<rect x="51.3" y="51.3" class="st1" width="7" height="7"/>
	<rect x="51.3" y="58.6" class="st1" width="7" height="7"/>
	<rect x="51.3" y="65.9" class="st1" width="7" height="7"/>
	<rect x="51.3" y="73.1" class="st1" width="7" height="7"/>
	<rect x="51.3" y="80.4" class="st1" width="7" height="7"/>
	<rect x="51.3" y="87.6" class="st1" width="7" height="7"/>
	<rect x="51.3" y="94.9" class="st1" width="7" height="7"/>
	<rect x="58.6" y="15" class="st1" width="7" height="7"/>
	<rect x="58.6" y="22.3" class="st1" width="7" height="7"/>
	<rect x="58.6" y="29.5" class="st1" width="7" height="7"/>
	<rect x="58.6" y="36.8" class="st1" width="7" height="7"/>
	<rect x="65.9" y="15" class="st1" width="7" height="7"/>
	<rect x="65.9" y="22.3" class="st1" width="7" height="7"/>
	<rect x="65.9" y="29.5" class="st1" width="7" height="7"/>
	<rect x="65.9" y="36.8" class="st1" width="7" height="7"/>
	<rect x="73.1" y="7.8" class="st1" width="7" height="7"/>
	<rect x="73.1" y="22.3" class="st1" width="7" height="7"/>
	<rect x="73.1" y="29.5" class="st1" width="7" height="7"/>
	<rect x="73.1" y="36.8" class="st1" width="7" height="7"/>
	<rect x="80.4" y="7.8" class="st1" width="7" height="7"/>
	<rect x="80.4" y="15" class="st1" width="7" height="7"/>
	<rect x="80.4" y="22.3" class="st1" width="7" height="7"/>
	<rect x="80.4" y="29.5" class="st1" width="7" height="7"/>
	<rect x="80.4" y="36.8" class="st1" width="7" height="7"/>
	<rect x="87.6" y="7.8" class="st1" width="7" height="7"/>
	<rect x="87.6" y="15" class="st1" width="7" height="7"/>
	<rect x="87.6" y="22.3" class="st1" width="7" height="7"/>
	<rect x="87.6" y="29.5" class="st1" width="7" height="7"/>
	<rect x="87.6" y="36.8" class="st1" width="7" height="7"/>
	<rect x="94.9" y="7.8" class="st1" width="7" height="7"/>
	<rect x="94.9" y="15" class="st1" width="7" height="7"/>
	<rect x="94.9" y="22.3" class="st1" width="7" height="7"/>
	<rect x="94.9" y="29.5" class="st1" width="7" height="7"/>
	<rect x="94.9" y="36.8" class="st1" width="7" height="7"/>
	<rect x="102.2" y="15" class="st1" width="7" height="7"/>
	<rect x="102.2" y="22.3" class="st1" width="7" height="7"/>
	<rect x="102.2" y="29.5" class="st1" width="7" height="7"/>
	<rect x="58.6" y="44.1" class="st1" width="7" height="7"/>
	<rect x="58.6" y="51.3" class="st1" width="7" height="7"/>
	<rect x="58.6" y="58.6" class="st1" width="7" height="7"/>
	<rect x="58.6" y="65.9" class="st1" width="7" height="7"/>
	<rect x="58.6" y="73.1" class="st1" width="7" height="7"/>
	<rect x="58.6" y="80.4" class="st1" width="7" height="7"/>
	<rect x="58.6" y="87.6" class="st1" width="7" height="7"/>
	<rect x="58.6" y="94.9" class="st1" width="7" height="7"/>
	<rect x="65.9" y="44.1" class="st1" width="7" height="7"/>
	<rect x="65.9" y="51.3" class="st1" width="7" height="7"/>
	<rect x="65.9" y="58.6" class="st1" width="7" height="7"/>
	<rect x="65.9" y="65.9" class="st1" width="7" height="7"/>
	<rect x="65.9" y="73.1" class="st1" width="7" height="7"/>
	<rect x="65.9" y="80.4" class="st1" width="7" height="7"/>
	<rect x="65.9" y="87.6" class="st1" width="7" height="7"/>
	<rect x="65.9" y="94.9" class="st1" width="7" height="7"/>
	<rect x="73.1" y="44.1" class="st1" width="7" height="7"/>
	<rect x="73.1" y="51.3" class="st1" width="7" height="7"/>
	<rect x="73.1" y="58.6" class="st1" width="7" height="7"/>
	<rect x="73.1" y="65.9" class="st1" width="7" height="7"/>
	<rect x="73.1" y="73.1" class="st1" width="7" height="7"/>
	<rect x="73.1" y="80.4" class="st1" width="7" height="7"/>
	<rect x="73.1" y="87.6" class="st1" width="7" height="7"/>
	<rect x="73.1" y="94.9" class="st1" width="7" height="7"/>
	<rect x="80.4" y="44.1" class="st1" width="7" height="7"/>
	<rect x="80.4" y="51.3" class="st1" width="7" height="7"/>
	<rect x="80.4" y="58.6" class="st1" width="7" height="7"/>
	<rect x="80.4" y="65.9" class="st1" width="7" height="7"/>
	<rect x="80.4" y="73.1" class="st1" width="7" height="7"/>
	<rect x="80.4" y="80.4" class="st1" width="7" height="7"/>
	<rect x="80.4" y="87.6" class="st1" width="7" height="7"/>
	<rect x="87.6" y="44.1" class="st1" width="7" height="7"/>
	<rect x="87.6" y="51.3" class="st1" width="7" height="7"/>
	<rect x="87.6" y="58.6" class="st1" width="7" height="7"/>
	<rect x="87.6" y="65.9" class="st1" width="7" height="7"/>
	<rect x="87.6" y="73.1" class="st1" width="7" height="7"/>
	<rect x="87.6" y="80.4" class="st1" width="7" height="7"/>
	<rect x="94.9" y="51.3" class="st1" width="7" height="7"/>
	<rect x="94.9" y="58.6" class="st1" width="7" height="7"/>
	<rect x="94.9" y="65.9" class="st1" width="7" height="7"/>
	<rect x="94.9" y="73.1" class="st1" width="7" height="7"/>
	<rect x="102.2" y="58.6" class="st1" width="7" height="7"/>
	<rect x="102.2" y="65.9" class="st1" width="7" height="7"/>
	<rect x="102.2" y="73.1" class="st1" width="7" height="7"/>
	<rect x="51.3" y="102.1" class="st1" width="7" height="7"/>
	<rect x="58.6" y="102.1" class="st1" width="7" height="7"/>
	<rect x="65.9" y="102.1" class="st1" width="7" height="7"/>
</g>
</svg>
