<?xml version="1.0" encoding="utf-8"?>
<!-- Generator: Adobe Illustrator 27.3.1, SVG Export Plug-In . SVG Version: 6.00 Build 0)  -->
<svg version="1.1" xmlns="http://www.w3.org/2000/svg" xmlns:xlink="http://www.w3.org/1999/xlink" x="0px" y="0px"
	 viewBox="0 0 319.2 189.4" style="enable-background:new 0 0 319.2 189.4;" xml:space="preserve">
<style type="text/css">
	.st0{fill:#F9D67F;}
	.st1{fill:#1E0E01;}
</style>
<g id="Слой_2">
	<path class="st0" d="M321.7,102.5c0-1.4-1.1-2.5-2.5-2.5h-4.8v-4.8c0,0,0-0.1,0-0.1c0,0,0-0.1,0-0.1v-7c0-1.4-1.1-2.5-2.5-2.5h-4.8
		v-4.8c0,0,0-0.1,0-0.1c0,0,0-0.1,0-0.1v-7c0-1.4-1.1-2.5-2.5-2.5h-4.7v-4.8c0-1.4-1.1-2.5-2.5-2.5h-4.8V59c0-1.4-1.1-2.5-2.5-2.5
		h-7c0,0-0.1,0-0.1,0c0,0-0.1,0-0.1,0h-4.8v-4.8c0-1.4-1.1-2.5-2.5-2.5h-7c-0.1,0-0.1,0-0.1,0c0,0-0.1,0-0.2,0h-4.7v-4.8
		c0-1.4-1.1-2.5-2.5-2.5h-7c-0.1,0-0.1,0-0.1,0c0,0-0.1,0-0.2,0h-7c0,0-0.1,0-0.1,0c0,0-0.1,0-0.1,0h-7c-0.1,0-0.1,0-0.1,0
		c0,0-0.1,0-0.2,0h-7c0,0-0.1,0-0.1,0c0,0-0.1,0-0.2,0h-7c0,0-0.1,0-0.1,0c0,0-0.1,0-0.1,0h-7c0,0-0.1,0-0.1,0c0,0-0.1,0-0.2,0h-7
		c0,0-0.1,0-0.1,0c0,0-0.1,0-0.1,0h-7c0,0-0.1,0-0.1,0c0,0-0.1,0-0.2,0h-7c-0.1,0-0.1,0-0.1,0c0,0-0.1,0-0.1,0h-7c0,0-0.1,0-0.1,0
		c0,0-0.1,0-0.1,0h-7c-0.1,0-0.1,0-0.1,0c0,0-0.1,0-0.1,0h-7c0,0-0.1,0-0.1,0c0,0-0.1,0-0.1,0h-7c-0.1,0-0.1,0-0.1,0
		c0,0-0.1,0-0.1,0h-7c-0.1,0-0.1,0-0.1,0c0,0-0.1,0-0.2,0h-7c0,0-0.1,0-0.1,0c0,0-0.1,0-0.1,0h-7c-0.1,0-0.1,0-0.1,0
		c0,0-0.1,0-0.2,0h-7c0,0-0.1,0-0.1,0c0,0-0.1,0-0.1,0h-7c-0.1,0-0.1,0-0.1,0c0,0-0.1,0-0.2,0h-7c-0.1,0-0.1,0-0.1,0
		c0,0-0.1,0-0.1,0h-7c0,0-0.1,0-0.1,0c0,0-0.1,0-0.1,0h-7c-0.1,0-0.1,0-0.1,0c0,0-0.1,0-0.1,0h-7c0,0-0.1,0-0.1,0c0,0-0.1,0-0.1,0
		h-7c-0.1,0-0.1,0-0.1,0c0,0-0.1,0-0.1,0h-7C87,42,87,42,87,42c0,0-0.1,0-0.2,0h-7c0,0-0.1,0-0.1,0c0,0-0.1,0-0.1,0h-7
		c-0.1,0-0.1,0-0.1,0c0,0-0.1,0-0.2,0h-7c0,0-0.1,0-0.1,0c0,0-0.1,0-0.1,0h-7C58,42,58,42,58,42c0,0-0.1,0-0.2,0h-7
		c-0.1,0-0.1,0-0.1,0c0,0-0.1,0-0.1,0h-7c0,0-0.1,0-0.1,0c0,0-0.1,0-0.1,0h-7c-0.1,0-0.1,0-0.1,0c0,0-0.1,0-0.1,0h-7
		c0,0-0.1,0-0.1,0c0,0-0.1,0-0.1,0h-7c-0.1,0-0.1,0-0.1,0c0,0-0.1,0-0.1,0h-7c-0.1,0-0.1,0-0.1,0c0,0-0.1,0-0.1,0h-7
		c0,0-0.1,0-0.1,0c0,0-0.1,0-0.1,0H0c-1.4,0-2.5,1.1-2.5,2.5v7c0,0,0,0.1,0,0.1c0,0,0,0.1,0,0.1v7c0,0,0,0.1,0,0.1c0,0,0,0.1,0,0.1
		v7c0,0,0,0.1,0,0.1c0,0,0,0.1,0,0.1v7c0,0,0,0.1,0,0.1c0,0,0,0.1,0,0.1v7c0,0,0,0.1,0,0.1c0,0,0,0.1,0,0.1v7c0,0,0,0.1,0,0.1
		c0,0,0,0.1,0,0.1v7c0,0,0,0.1,0,0.1c0,0,0,0.1,0,0.1v7c0,0,0,0.1,0,0.1c0,0,0,0.1,0,0.1v7c0,0,0,0.1,0,0.1c0,0,0,0.1,0,0.1v7
		c0,0,0,0.1,0,0.1c0,0,0,0.1,0,0.1v7c0,0,0,0.1,0,0.1c0,0,0,0.1,0,0.1v7c0,0,0,0.1,0,0.1c0,0,0,0.1,0,0.1v7c0,0,0,0.1,0,0.1
		c0,0,0,0.1,0,0.1v7c0,0,0,0.1,0,0.1c0,0,0,0.1,0,0.1v7c0,0,0,0.1,0,0.1c0,0,0,0.1,0,0.1v7c0,0,0,0.1,0,0.1c0,0,0,0.1,0,0.1v7
		c0,0,0,0.1,0,0.1c0,0,0,0.1,0,0.1v7c0,0,0,0.1,0,0.1c0,0,0,0.1,0,0.1v7c0,0,0,0.1,0,0.1c0,0,0,0.1,0,0.1v7c0,1.4,1.1,2.5,2.5,2.5h7
		c0.1,0,0.1,0,0.2,0h7c0.1,0,0.1,0,0.1,0c0,0,0.1,0,0.1,0h7c0.1,0,0.1,0,0.1,0c0,0,0.1,0,0.1,0h7c0.1,0,0.1,0,0.2,0h7
		c0.1,0,0.1,0,0.1,0c0,0,0.1,0,0.1,0h7c0.1,0,0.1,0,0.2,0h7c0.1,0,0.1,0,0.1,0c0,0,0.1,0,0.1,0h7c0.1,0,0.1,0,0.2,0c0,0,0.1,0,0.1,0
		h7c0.1,0,0.1,0,0.2,0h7c0.1,0,0.1,0,0.2,0c0,0,0.1,0,0.1,0h7c0.1,0,0.1,0,0.2,0h7c0.1,0,0.1,0,0.2,0c0,0,0.1,0,0.1,0h7
		c0.1,0,0.1,0,0.1,0c0,0,0.1,0,0.1,0h7c0.1,0,0.1,0,0.2,0h7c0.1,0,0.1,0,0.1,0c0,0,0.1,0,0.1,0h7c0.1,0,0.1,0,0.2,0h7
		c0.1,0,0.1,0,0.1,0c0,0,0.1,0,0.1,0h7c0.1,0,0.1,0,0.2,0c0,0,0.1,0,0.1,0h7c0.1,0,0.1,0,0.2,0h7c0.1,0,0.1,0,0.2,0c0,0,0.1,0,0.1,0
		h7c0.1,0,0.1,0,0.2,0h7c0.1,0,0.1,0,0.2,0c0,0,0.1,0,0.1,0h7c0.1,0,0.1,0,0.1,0c0,0,0.1,0,0.1,0h7c0.1,0,0.1,0,0.2,0h7
		c0.1,0,0.1,0,0.1,0c0,0,0.1,0,0.1,0h7c0.1,0,0.1,0,0.2,0h7c0.1,0,0.1,0,0.1,0c0,0,0.1,0,0.1,0h7c0.1,0,0.1,0,0.2,0c0,0,0.1,0,0.1,0
		h7c0.1,0,0.1,0,0.2,0h7c0.1,0,0.1,0,0.2,0c0,0,0.1,0,0.1,0h7c0.1,0,0.1,0,0.2,0h7c0.1,0,0.1,0,0.2,0c0,0,0.1,0,0.1,0h7
		c0.1,0,0.1,0,0.2,0c0,0,0.1,0,0.1,0h7c0.1,0,0.1,0,0.2,0h7c0.1,0,0.1,0,0.2,0c0,0,0.1,0,0.1,0h7c0.1,0,0.1,0,0.2,0h7
		c0.1,0,0.1,0,0.2,0c0,0,0.1,0,0.1,0h7c0.1,0,0.1,0,0.2,0c0,0,0.1,0,0.2,0h7c0.1,0,0.1,0,0.2,0h7c0.1,0,0.1,0,0.2,0c0,0,0.1,0,0.2,0
		h7c0.1,0,0.1,0,0.2,0h7c0.1,0,0.1,0,0.2,0c0,0,0.1,0,0.2,0h7c0,0,0.1,0,0.1,0c0,0,0.1,0,0.2,0h7c1.4,0,2.5-1.1,2.5-2.5v-7
		c0,0,0-0.1,0-0.1c0,0,0-0.1,0-0.1v-7c0,0,0-0.1,0-0.1c0,0,0-0.1,0-0.1v-7c0,0,0-0.1,0-0.1c0,0,0-0.1,0-0.1v-7c0,0,0-0.1,0-0.1
		c0,0,0-0.1,0-0.1v-7c0,0,0-0.1,0-0.1c0,0,0-0.1,0-0.1v-7c0,0,0-0.1,0-0.1c0,0,0-0.1,0-0.1v-7c0,0,0-0.1,0-0.1c0,0,0-0.1,0-0.1v-7
		c0,0,0-0.1,0-0.1c0,0,0-0.1,0-0.1v-7c0,0,0-0.1,0-0.1c0,0,0-0.1,0-0.1v-7c0,0,0-0.1,0-0.1c0,0,0-0.1,0-0.1v-7c0,0,0-0.1,0-0.1
		c0,0,0-0.1,0-0.1V102.5z"/>
</g>
<g id="Слой_1">
	<path class="st1" d="M0,182.4h7v7H0V182.4z M7.2,182.4h7v7h-7V182.4z M14.5,182.4h7v7h-7V182.4z M21.8,182.4h7v7h-7V182.4z
		 M29,182.4h7v7h-7V182.4z M36.3,182.4h7v7h-7V182.4z M43.5,182.4h7v7h-7V182.4z M50.8,182.4h7v7h-7V182.4z M58.1,182.4h7v7h-7
		V182.4z M65.3,182.4h7v7h-7V182.4z M72.6,182.4h7v7h-7V182.4z M79.8,182.4h7v7h-7V182.4z M87.1,182.4h7v7h-7V182.4z M94.4,182.4h7
		v7h-7V182.4z M101.6,182.4h7v7h-7V182.4z M108.9,182.4h7v7h-7V182.4z M116.1,182.4h7v7h-7V182.4z M123.4,182.4h7v7h-7V182.4z
		 M130.7,182.4h7v7h-7V182.4z M137.9,182.4h7v7h-7V182.4z M145.2,182.4h7v7h-7V182.4z M152.4,182.4h7v7h-7V182.4z M159.7,182.4h7v7
		h-7V182.4z M167,182.4h7v7h-7V182.4z M174.2,182.4h7v7h-7V182.4z M181.5,182.4h7v7h-7V182.4z M188.7,182.4h7v7h-7V182.4z
		 M196,182.4h7v7h-7V182.4z M203.3,182.4h7v7h-7V182.4z M210.5,182.4h7v7h-7V182.4z M217.8,182.4h7v7h-7V182.4z M225,182.4h7v7h-7
		V182.4z M232.3,182.4h7v7h-7V182.4z M239.6,182.4h7v7h-7V182.4z M246.8,182.4h7v7h-7V182.4z M254.1,182.4h7v7h-7V182.4z
		 M261.3,182.4h7v7h-7V182.4z M268.6,182.4h7v7h-7V182.4z M275.9,182.4h7v7h-7V182.4z M283.1,182.4h7v7h-7V182.4z M290.4,182.4h7v7
		h-7V182.4z M297.6,182.4h7v7h-7V182.4z M304.9,182.4h7v7h-7V182.4z M312.2,182.4h7v7h-7V182.4z M0,175.1h7v7H0V175.1z M7.2,175.1h7
		v7h-7V175.1z M14.5,175.1h7v7h-7V175.1z M21.8,175.1h7v7h-7V175.1z M29,175.1h7v7h-7V175.1z M36.3,175.1h7v7h-7V175.1z M43.5,175.1
		h7v7h-7V175.1z M50.8,175.1h7v7h-7V175.1z M58.1,175.1h7v7h-7V175.1z M65.3,175.1h7v7h-7V175.1z M72.6,175.1h7v7h-7V175.1z
		 M79.8,175.1h7v7h-7V175.1z M87.1,175.1h7v7h-7V175.1z M94.4,175.1h7v7h-7V175.1z M101.6,175.1h7v7h-7V175.1z M108.9,175.1h7v7h-7
		V175.1z M116.1,175.1h7v7h-7V175.1z M123.4,175.1h7v7h-7V175.1z M130.7,175.1h7v7h-7V175.1z M137.9,175.1h7v7h-7V175.1z
		 M145.2,175.1h7v7h-7V175.1z M152.4,175.1h7v7h-7V175.1z M159.7,175.1h7v7h-7V175.1z M167,175.1h7v7h-7V175.1z M174.2,175.1h7v7h-7
		V175.1z M181.5,175.1h7v7h-7V175.1z M188.7,175.1h7v7h-7V175.1z M196,175.1h7v7h-7V175.1z M203.3,175.1h7v7h-7V175.1z M210.5,175.1
		h7v7h-7V175.1z M217.8,175.1h7v7h-7V175.1z M225,175.1h7v7h-7V175.1z M232.3,175.1h7v7h-7V175.1z M239.6,175.1h7v7h-7V175.1z
		 M246.8,175.1h7v7h-7V175.1z M254.1,175.1h7v7h-7V175.1z M261.3,175.1h7v7h-7V175.1z M268.6,175.1h7v7h-7V175.1z M275.9,175.1h7v7
		h-7V175.1z M283.1,175.1h7v7h-7V175.1z M290.4,175.1h7v7h-7V175.1z M297.6,175.1h7v7h-7V175.1z M304.9,175.1h7v7h-7V175.1z
		 M312.2,175.1h7v7h-7V175.1z M0,167.9h7v7H0V167.9z M7.2,167.9h7v7h-7V167.9z M14.5,167.9h7v7h-7V167.9z M297.6,167.9h7v7h-7V167.9
		z M304.9,167.9h7v7h-7V167.9z M312.2,167.9h7v7h-7V167.9z M0,160.6h7v7H0V160.6z M7.2,160.6h7v7h-7V160.6z M21.8,160.6h7v7h-7
		V160.6z M29,160.6h7v7h-7V160.6z M36.3,160.6h7v7h-7V160.6z M43.5,160.6h7v7h-7V160.6z M50.8,160.6h7v7h-7V160.6z M58.1,160.6h7v7
		h-7V160.6z M65.3,160.6h7v7h-7V160.6z M72.6,160.6h7v7h-7V160.6z M79.8,160.6h7v7h-7V160.6z M87.1,160.6h7v7h-7V160.6z M94.4,160.6
		h7v7h-7V160.6z M101.6,160.6h7v7h-7V160.6z M108.9,160.6h7v7h-7V160.6z M116.1,160.6h7v7h-7V160.6z M123.4,160.6h7v7h-7V160.6z
		 M130.7,160.6h7v7h-7V160.6z M137.9,160.6h7v7h-7V160.6z M145.2,160.6h7v7h-7V160.6z M152.4,160.6h7v7h-7V160.6z M159.7,160.6h7v7
		h-7V160.6z M167,160.6h7v7h-7V160.6z M174.2,160.6h7v7h-7V160.6z M181.5,160.6h7v7h-7V160.6z M188.7,160.6h7v7h-7V160.6z
		 M196,160.6h7v7h-7V160.6z M203.3,160.6h7v7h-7V160.6z M210.5,160.6h7v7h-7V160.6z M217.8,160.6h7v7h-7V160.6z M225,160.6h7v7h-7
		V160.6z M232.3,160.6h7v7h-7V160.6z M239.6,160.6h7v7h-7V160.6z M246.8,160.6h7v7h-7V160.6z M254.1,160.6h7v7h-7V160.6z
		 M261.3,160.6h7v7h-7V160.6z M268.6,160.6h7v7h-7V160.6z M275.9,160.6h7v7h-7V160.6z M283.1,160.6h7v7h-7V160.6z M290.4,160.6h7v7
		h-7V160.6z M304.9,160.6h7v7h-7V160.6z M312.2,160.6h7v7h-7V160.6z M0,153.4h7v7H0V153.4z M7.2,153.4h7v7h-7V153.4z M21.8,153.4h7
		v7h-7V153.4z M29,153.4h7v7h-7V153.4z M36.3,153.4h7v7h-7V153.4z M43.5,153.4h7v7h-7V153.4z M50.8,153.4h7v7h-7V153.4z M58.1,153.4
		h7v7h-7V153.4z M65.3,153.4h7v7h-7V153.4z M72.6,153.4h7v7h-7V153.4z M79.8,153.4h7v7h-7V153.4z M87.1,153.4h7v7h-7V153.4z
		 M94.4,153.4h7v7h-7V153.4z M101.6,153.4h7v7h-7V153.4z M108.9,153.4h7v7h-7V153.4z M116.1,153.4h7v7h-7V153.4z M123.4,153.4h7v7
		h-7V153.4z M130.7,153.4h7v7h-7V153.4z M137.9,153.4h7v7h-7V153.4z M145.2,153.4h7v7h-7V153.4z M152.4,153.4h7v7h-7V153.4z
		 M159.7,153.4h7v7h-7V153.4z M167,153.4h7v7h-7V153.4z M174.2,153.4h7v7h-7V153.4z M181.5,153.4h7v7h-7V153.4z M188.7,153.4h7v7h-7
		V153.4z M196,153.4h7v7h-7V153.4z M203.3,153.4h7v7h-7V153.4z M210.5,153.4h7v7h-7V153.4z M217.8,153.4h7v7h-7V153.4z M225,153.4h7
		v7h-7V153.4z M232.3,153.4h7v7h-7V153.4z M239.6,153.4h7v7h-7V153.4z M246.8,153.4h7v7h-7V153.4z M254.1,153.4h7v7h-7V153.4z
		 M261.3,153.4h7v7h-7V153.4z M268.6,153.4h7v7h-7V153.4z M275.9,153.4h7v7h-7V153.4z M283.1,153.4h7v7h-7V153.4z M290.4,153.4h7v7
		h-7V153.4z M304.9,153.4h7v7h-7V153.4z M312.2,153.4h7v7h-7V153.4z M0,146.1h7v7H0V146.1z M7.2,146.1h7v7h-7V146.1z M21.8,146.1h7
		v7h-7V146.1z M29,146.1h7v7h-7V146.1z M36.3,146.1h7v7h-7V146.1z M43.5,146.1h7v7h-7V146.1z M50.8,146.1h7v7h-7V146.1z M58.1,146.1
		h7v7h-7V146.1z M65.3,146.1h7v7h-7V146.1z M72.6,146.1h7v7h-7V146.1z M79.8,146.1h7v7h-7V146.1z M87.1,146.1h7v7h-7V146.1z
		 M94.4,146.1h7v7h-7V146.1z M101.6,146.1h7v7h-7V146.1z M108.9,146.1h7v7h-7V146.1z M116.1,146.1h7v7h-7V146.1z M123.4,146.1h7v7
		h-7V146.1z M130.7,146.1h7v7h-7V146.1z M137.9,146.1h7v7h-7V146.1z M145.2,146.1h7v7h-7V146.1z M152.4,146.1h7v7h-7V146.1z
		 M159.7,146.1h7v7h-7V146.1z M167,146.1h7v7h-7V146.1z M174.2,146.1h7v7h-7V146.1z M181.5,146.1h7v7h-7V146.1z M188.7,146.1h7v7h-7
		V146.1z M196,146.1h7v7h-7V146.1z M203.3,146.1h7v7h-7V146.1z M210.5,146.1h7v7h-7V146.1z M217.8,146.1h7v7h-7V146.1z M225,146.1h7
		v7h-7V146.1z M232.3,146.1h7v7h-7V146.1z M239.6,146.1h7v7h-7V146.1z M246.8,146.1h7v7h-7V146.1z M254.1,146.1h7v7h-7V146.1z
		 M261.3,146.1h7v7h-7V146.1z M268.6,146.1h7v7h-7V146.1z M275.9,146.1h7v7h-7V146.1z M283.1,146.1h7v7h-7V146.1z M290.4,146.1h7v7
		h-7V146.1z M304.9,146.1h7v7h-7V146.1z M312.2,146.1h7v7h-7V146.1z M0,138.8h7v7H0V138.8z M7.2,138.8h7v7h-7V138.8z M21.8,138.8h7
		v7h-7V138.8z M29,138.8h7v7h-7V138.8z M36.3,138.8h7v7h-7V138.8z M43.5,138.8h7v7h-7V138.8z M50.8,138.8h7v7h-7V138.8z M58.1,138.8
		h7v7h-7V138.8z M65.3,138.8h7v7h-7V138.8z M72.6,138.8h7v7h-7V138.8z M79.8,138.8h7v7h-7V138.8z M87.1,138.8h7v7h-7V138.8z
		 M94.4,138.8h7v7h-7V138.8z M101.6,138.8h7v7h-7V138.8z M108.9,138.8h7v7h-7V138.8z M116.1,138.8h7v7h-7V138.8z M123.4,138.8h7v7
		h-7V138.8z M130.7,138.8h7v7h-7V138.8z M137.9,138.8h7v7h-7V138.8z M145.2,138.8h7v7h-7V138.8z M152.4,138.8h7v7h-7V138.8z
		 M159.7,138.8h7v7h-7V138.8z M167,138.8h7v7h-7V138.8z M174.2,138.8h7v7h-7V138.8z M181.5,138.8h7v7h-7V138.8z M188.7,138.8h7v7h-7
		V138.8z M196,138.8h7v7h-7V138.8z M203.3,138.8h7v7h-7V138.8z M210.5,138.8h7v7h-7V138.8z M217.8,138.8h7v7h-7V138.8z M225,138.8h7
		v7h-7V138.8z M232.3,138.8h7v7h-7V138.8z M239.6,138.8h7v7h-7V138.8z M246.8,138.8h7v7h-7V138.8z M254.1,138.8h7v7h-7V138.8z
		 M261.3,138.8h7v7h-7V138.8z M268.6,138.8h7v7h-7V138.8z M275.9,138.8h7v7h-7V138.8z M283.1,138.8h7v7h-7V138.8z M290.4,138.8h7v7
		h-7V138.8z M304.9,138.8h7v7h-7V138.8z M312.2,138.8h7v7h-7V138.8z M0,131.6h7v7H0V131.6z M7.2,131.6h7v7h-7V131.6z M21.8,131.6h7
		v7h-7V131.6z M29,131.6h7v7h-7V131.6z M36.3,131.6h7v7h-7V131.6z M43.5,131.6h7v7h-7V131.6z M50.8,131.6h7v7h-7V131.6z M58.1,131.6
		h7v7h-7V131.6z M65.3,131.6h7v7h-7V131.6z M72.6,131.6h7v7h-7V131.6z M79.8,131.6h7v7h-7V131.6z M87.1,131.6h7v7h-7V131.6z
		 M94.4,131.6h7v7h-7V131.6z M101.6,131.6h7v7h-7V131.6z M108.9,131.6h7v7h-7V131.6z M116.1,131.6h7v7h-7V131.6z M123.4,131.6h7v7
		h-7V131.6z M130.7,131.6h7v7h-7V131.6z M137.9,131.6h7v7h-7V131.6z M145.2,131.6h7v7h-7V131.6z M152.4,131.6h7v7h-7V131.6z
		 M159.7,131.6h7v7h-7V131.6z M167,131.6h7v7h-7V131.6z M174.2,131.6h7v7h-7V131.6z M181.5,131.6h7v7h-7V131.6z M188.7,131.6h7v7h-7
		V131.6z M196,131.6h7v7h-7V131.6z M203.3,131.6h7v7h-7V131.6z M210.5,131.6h7v7h-7V131.6z M217.8,131.6h7v7h-7V131.6z M225,131.6h7
		v7h-7V131.6z M232.3,131.6h7v7h-7V131.6z M239.6,131.6h7v7h-7V131.6z M246.8,131.6h7v7h-7V131.6z M254.1,131.6h7v7h-7V131.6z
		 M261.3,131.6h7v7h-7V131.6z M268.6,131.6h7v7h-7V131.6z M275.9,131.6h7v7h-7V131.6z M283.1,131.6h7v7h-7V131.6z M290.4,131.6h7v7
		h-7V131.6z M304.9,131.6h7v7h-7V131.6z M312.2,131.6h7v7h-7V131.6z M0,124.3h7v7H0V124.3z M7.2,124.3h7v7h-7V124.3z M21.8,124.3h7
		v7h-7V124.3z M29,124.3h7v7h-7V124.3z M36.3,124.3h7v7h-7V124.3z M43.5,124.3h7v7h-7V124.3z M50.8,124.3h7v7h-7V124.3z M58.1,124.3
		h7v7h-7V124.3z M65.3,124.3h7v7h-7V124.3z M72.6,124.3h7v7h-7V124.3z M79.8,124.3h7v7h-7V124.3z M87.1,124.3h7v7h-7V124.3z
		 M94.4,124.3h7v7h-7V124.3z M101.6,124.3h7v7h-7V124.3z M108.9,124.3h7v7h-7V124.3z M116.1,124.3h7v7h-7V124.3z M123.4,124.3h7v7
		h-7V124.3z M130.7,124.3h7v7h-7V124.3z M137.9,124.3h7v7h-7V124.3z M145.2,124.3h7v7h-7V124.3z M152.4,124.3h7v7h-7V124.3z
		 M159.7,124.3h7v7h-7V124.3z M167,124.3h7v7h-7V124.3z M174.2,124.3h7v7h-7V124.3z M181.5,124.3h7v7h-7V124.3z M188.7,124.3h7v7h-7
		V124.3z M196,124.3h7v7h-7V124.3z M203.3,124.3h7v7h-7V124.3z M210.5,124.3h7v7h-7V124.3z M217.8,124.3h7v7h-7V124.3z M225,124.3h7
		v7h-7V124.3z M232.3,124.3h7v7h-7V124.3z M239.6,124.3h7v7h-7V124.3z M246.8,124.3h7v7h-7V124.3z M254.1,124.3h7v7h-7V124.3z
		 M261.3,124.3h7v7h-7V124.3z M268.6,124.3h7v7h-7V124.3z M275.9,124.3h7v7h-7V124.3z M283.1,124.3h7v7h-7V124.3z M290.4,124.3h7v7
		h-7V124.3z M304.9,124.3h7v7h-7V124.3z M312.2,124.3h7v7h-7V124.3z M0,117.1h7v7H0V117.1z M7.2,117.1h7v7h-7V117.1z M21.8,117.1h7
		v7h-7V117.1z M29,117.1h7v7h-7V117.1z M36.3,117.1h7v7h-7V117.1z M43.5,117.1h7v7h-7V117.1z M50.8,117.1h7v7h-7V117.1z M58.1,117.1
		h7v7h-7V117.1z M65.3,117.1h7v7h-7V117.1z M72.6,117.1h7v7h-7V117.1z M79.8,117.1h7v7h-7V117.1z M87.1,117.1h7v7h-7V117.1z
		 M94.4,117.1h7v7h-7V117.1z M101.6,117.1h7v7h-7V117.1z M108.9,117.1h7v7h-7V117.1z M116.1,117.1h7v7h-7V117.1z M123.4,117.1h7v7
		h-7V117.1z M130.7,117.1h7v7h-7V117.1z M137.9,117.1h7v7h-7V117.1z M145.2,117.1h7v7h-7V117.1z M152.4,117.1h7v7h-7V117.1z
		 M159.7,117.1h7v7h-7V117.1z M167,117.1h7v7h-7V117.1z M174.2,117.1h7v7h-7V117.1z M181.5,117.1h7v7h-7V117.1z M188.7,117.1h7v7h-7
		V117.1z M196,117.1h7v7h-7V117.1z M203.3,117.1h7v7h-7V117.1z M210.5,117.1h7v7h-7V117.1z M217.8,117.1h7v7h-7V117.1z M225,117.1h7
		v7h-7V117.1z M232.3,117.1h7v7h-7V117.1z M239.6,117.1h7v7h-7V117.1z M246.8,117.1h7v7h-7V117.1z M254.1,117.1h7v7h-7V117.1z
		 M261.3,117.1h7v7h-7V117.1z M268.6,117.1h7v7h-7V117.1z M275.9,117.1h7v7h-7V117.1z M283.1,117.1h7v7h-7V117.1z M290.4,117.1h7v7
		h-7V117.1z M304.9,117.1h7v7h-7V117.1z M312.2,117.1h7v7h-7V117.1z M0,109.8h7v7H0V109.8z M7.2,109.8h7v7h-7V109.8z M21.8,109.8h7
		v7h-7V109.8z M29,109.8h7v7h-7V109.8z M36.3,109.8h7v7h-7V109.8z M43.5,109.8h7v7h-7V109.8z M50.8,109.8h7v7h-7V109.8z M58.1,109.8
		h7v7h-7V109.8z M65.3,109.8h7v7h-7V109.8z M72.6,109.8h7v7h-7V109.8z M79.8,109.8h7v7h-7V109.8z M87.1,109.8h7v7h-7V109.8z
		 M94.4,109.8h7v7h-7V109.8z M101.6,109.8h7v7h-7V109.8z M108.9,109.8h7v7h-7V109.8z M116.1,109.8h7v7h-7V109.8z M123.4,109.8h7v7
		h-7V109.8z M130.7,109.8h7v7h-7V109.8z M137.9,109.8h7v7h-7V109.8z M145.2,109.8h7v7h-7V109.8z M152.4,109.8h7v7h-7V109.8z
		 M159.7,109.8h7v7h-7V109.8z M167,109.8h7v7h-7V109.8z M174.2,109.8h7v7h-7V109.8z M181.5,109.8h7v7h-7V109.8z M188.7,109.8h7v7h-7
		V109.8z M196,109.8h7v7h-7V109.8z M203.3,109.8h7v7h-7V109.8z M210.5,109.8h7v7h-7V109.8z M217.8,109.8h7v7h-7V109.8z M225,109.8h7
		v7h-7V109.8z M232.3,109.8h7v7h-7V109.8z M239.6,109.8h7v7h-7V109.8z M246.8,109.8h7v7h-7V109.8z M254.1,109.8h7v7h-7V109.8z
		 M261.3,109.8h7v7h-7V109.8z M268.6,109.8h7v7h-7V109.8z M275.9,109.8h7v7h-7V109.8z M283.1,109.8h7v7h-7V109.8z M290.4,109.8h7v7
		h-7V109.8z M304.9,109.8h7v7h-7V109.8z M312.2,109.8h7v7h-7V109.8z M0,102.5h7v7H0V102.5z M7.2,102.5h7v7h-7V102.5z M21.8,102.5h7
		v7h-7V102.5z M29,102.5h7v7h-7V102.5z M36.3,102.5h7v7h-7V102.5z M43.5,102.5h7v7h-7V102.5z M50.8,102.5h7v7h-7V102.5z M58.1,102.5
		h7v7h-7V102.5z M65.3,102.5h7v7h-7V102.5z M72.6,102.5h7v7h-7V102.5z M79.8,102.5h7v7h-7V102.5z M87.1,102.5h7v7h-7V102.5z
		 M94.4,102.5h7v7h-7V102.5z M101.6,102.5h7v7h-7V102.5z M108.9,102.5h7v7h-7V102.5z M116.1,102.5h7v7h-7V102.5z M123.4,102.5h7v7
		h-7V102.5z M130.7,102.5h7v7h-7V102.5z M137.9,102.5h7v7h-7V102.5z M145.2,102.5h7v7h-7V102.5z M152.4,102.5h7v7h-7V102.5z
		 M159.7,102.5h7v7h-7V102.5z M167,102.5h7v7h-7V102.5z M174.2,102.5h7v7h-7V102.5z M181.5,102.5h7v7h-7V102.5z M188.7,102.5h7v7h-7
		V102.5z M196,102.5h7v7h-7V102.5z M203.3,102.5h7v7h-7V102.5z M210.5,102.5h7v7h-7V102.5z M217.8,102.5h7v7h-7V102.5z M225,102.5h7
		v7h-7V102.5z M232.3,102.5h7v7h-7V102.5z M239.6,102.5h7v7h-7V102.5z M246.8,102.5h7v7h-7V102.5z M254.1,102.5h7v7h-7V102.5z
		 M261.3,102.5h7v7h-7V102.5z M268.6,102.5h7v7h-7V102.5z M275.9,102.5h7v7h-7V102.5z M283.1,102.5h7v7h-7V102.5z M290.4,102.5h7v7
		h-7V102.5z M304.9,102.5h7v7h-7V102.5z M312.2,102.5h7v7h-7V102.5z M0,95.3h7v7H0V95.3z M7.2,95.3h7v7h-7V95.3z M14.5,95.3h7v7h-7
		V95.3z M297.6,95.3h7v7h-7V95.3z M304.9,95.3h7v7h-7V95.3z M0,88h7v7H0V88z M7.2,88h7v7h-7V88z M14.5,88h7v7h-7V88z M21.8,88h7v7
		h-7V88z M29,88h7v7h-7V88z M36.3,88h7v7h-7V88z M43.5,88h7v7h-7V88z M50.8,88h7v7h-7V88z M58.1,88h7v7h-7V88z M65.3,88h7v7h-7V88z
		 M72.6,88h7v7h-7V88z M79.8,88h7v7h-7V88z M87.1,88h7v7h-7V88z M94.4,88h7v7h-7V88z M101.6,88h7v7h-7V88z M108.9,88h7v7h-7V88z
		 M116.1,88h7v7h-7V88z M123.4,88h7v7h-7V88z M130.7,88h7v7h-7V88z M137.9,88h7v7h-7V88z M145.2,88h7v7h-7V88z M152.4,88h7v7h-7V88z
		 M159.7,88h7v7h-7V88z M167,88h7v7h-7V88z M174.2,88h7v7h-7V88z M181.5,88h7v7h-7V88z M188.7,88h7v7h-7V88z M196,88h7v7h-7V88z
		 M203.3,88h7v7h-7V88z M210.5,88h7v7h-7V88z M217.8,88h7v7h-7V88z M225,88h7v7h-7V88z M232.3,88h7v7h-7V88z M239.6,88h7v7h-7V88z
		 M246.8,88h7v7h-7V88z M254.1,88h7v7h-7V88z M261.3,88h7v7h-7V88z M268.6,88h7v7h-7V88z M275.9,88h7v7h-7V88z M283.1,88h7v7h-7V88z
		 M290.4,88h7v7h-7V88z M297.6,88h7v7h-7V88z M304.9,88h7v7h-7V88z M0,80.8h7v7H0V80.8z M7.2,80.8h7v7h-7V80.8z M14.5,80.8h7v7h-7
		V80.8z M29,80.8h7v7h-7V80.8z M43.5,80.8h7v7h-7V80.8z M58.1,80.8h7v7h-7V80.8z M72.6,80.8h7v7h-7V80.8z M87.1,80.8h7v7h-7V80.8z
		 M94.4,80.8h7v7h-7V80.8z M101.6,80.8h7v7h-7V80.8z M108.9,80.8h7v7h-7V80.8z M116.1,80.8h7v7h-7V80.8z M123.4,80.8h7v7h-7V80.8z
		 M130.7,80.8h7v7h-7V80.8z M137.9,80.8h7v7h-7V80.8z M145.2,80.8h7v7h-7V80.8z M152.4,80.8h7v7h-7V80.8z M159.7,80.8h7v7h-7V80.8z
		 M167,80.8h7v7h-7V80.8z M174.2,80.8h7v7h-7V80.8z M181.5,80.8h7v7h-7V80.8z M188.7,80.8h7v7h-7V80.8z M196,80.8h7v7h-7V80.8z
		 M203.3,80.8h7v7h-7V80.8z M210.5,80.8h7v7h-7V80.8z M217.8,80.8h7v7h-7V80.8z M225,80.8h7v7h-7V80.8z M232.3,80.8h7v7h-7V80.8z
		 M239.6,80.8h7v7h-7V80.8z M246.8,80.8h7v7h-7V80.8z M254.1,80.8h7v7h-7V80.8z M261.3,80.8h7v7h-7V80.8z M268.6,80.8h7v7h-7V80.8z
		 M275.9,80.8h7v7h-7V80.8z M283.1,80.8h7v7h-7V80.8z M290.4,80.8h7v7h-7V80.8z M297.6,80.8h7v7h-7V80.8z M0,73.5h7v7H0V73.5z
		 M7.2,73.5h7v7h-7V73.5z M14.5,73.5h7v7h-7V73.5z M29,73.5h7v7h-7V73.5z M43.5,73.5h7v7h-7V73.5z M58.1,73.5h7v7h-7V73.5z
		 M72.6,73.5h7v7h-7V73.5z M87.1,73.5h7v7h-7V73.5z M94.4,73.5h7v7h-7V73.5z M101.6,73.5h7v7h-7V73.5z M108.9,73.5h7v7h-7V73.5z
		 M116.1,73.5h7v7h-7V73.5z M123.4,73.5h7v7h-7V73.5z M130.7,73.5h7v7h-7V73.5z M137.9,73.5h7v7h-7V73.5z M145.2,73.5h7v7h-7V73.5z
		 M152.4,73.5h7v7h-7V73.5z M159.7,73.5h7v7h-7V73.5z M167,73.5h7v7h-7V73.5z M174.2,73.5h7v7h-7V73.5z M181.5,73.5h7v7h-7V73.5z
		 M188.7,73.5h7v7h-7V73.5z M196,73.5h7v7h-7V73.5z M203.3,73.5h7v7h-7V73.5z M210.5,73.5h7v7h-7V73.5z M217.8,73.5h7v7h-7V73.5z
		 M225,73.5h7v7h-7V73.5z M232.3,73.5h7v7h-7V73.5z M239.6,73.5h7v7h-7V73.5z M246.8,73.5h7v7h-7V73.5z M254.1,73.5h7v7h-7V73.5z
		 M261.3,73.5h7v7h-7V73.5z M268.6,73.5h7v7h-7V73.5z M275.9,73.5h7v7h-7V73.5z M283.1,73.5h7v7h-7V73.5z M290.4,73.5h7v7h-7V73.5z
		 M297.6,73.5h7v7h-7V73.5z M0,66.2h7v7H0V66.2z M7.2,66.2h7v7h-7V66.2z M14.5,66.2h7v7h-7V66.2z M36.3,66.2h7v7h-7V66.2z
		 M43.5,66.2h7v7h-7V66.2z M58.1,66.2h7v7h-7V66.2z M72.6,66.2h7v7h-7V66.2z M87.1,66.2h7v7h-7V66.2z M94.4,66.2h7v7h-7V66.2z
		 M101.6,66.2h7v7h-7V66.2z M108.9,66.2h7v7h-7V66.2z M116.1,66.2h7v7h-7V66.2z M123.4,66.2h7v7h-7V66.2z M130.7,66.2h7v7h-7V66.2z
		 M137.9,66.2h7v7h-7V66.2z M145.2,66.2h7v7h-7V66.2z M152.4,66.2h7v7h-7V66.2z M159.7,66.2h7v7h-7V66.2z M167,66.2h7v7h-7V66.2z
		 M174.2,66.2h7v7h-7V66.2z M181.5,66.2h7v7h-7V66.2z M188.7,66.2h7v7h-7V66.2z M196,66.2h7v7h-7V66.2z M203.3,66.2h7v7h-7V66.2z
		 M210.5,66.2h7v7h-7V66.2z M217.8,66.2h7v7h-7V66.2z M225,66.2h7v7h-7V66.2z M232.3,66.2h7v7h-7V66.2z M239.6,66.2h7v7h-7V66.2z
		 M246.8,66.2h7v7h-7V66.2z M254.1,66.2h7v7h-7V66.2z M261.3,66.2h7v7h-7V66.2z M268.6,66.2h7v7h-7V66.2z M275.9,66.2h7v7h-7V66.2z
		 M283.1,66.2h7v7h-7V66.2z M290.4,66.2h7v7h-7V66.2z M0,59h7v7H0V59z M7.2,59h7v7h-7V59z M14.5,59h7v7h-7V59z M29,59h7v7h-7V59z
		 M43.5,59h7v7h-7V59z M65.3,59h7v7h-7V59z M79.8,59h7v7h-7V59z M87.1,59h7v7h-7V59z M94.4,59h7v7h-7V59z M101.6,59h7v7h-7V59z
		 M108.9,59h7v7h-7V59z M116.1,59h7v7h-7V59z M123.4,59h7v7h-7V59z M130.7,59h7v7h-7V59z M137.9,59h7v7h-7V59z M145.2,59h7v7h-7V59z
		 M152.4,59h7v7h-7V59z M159.7,59h7v7h-7V59z M167,59h7v7h-7V59z M174.2,59h7v7h-7V59z M181.5,59h7v7h-7V59z M188.7,59h7v7h-7V59z
		 M196,59h7v7h-7V59z M203.3,59h7v7h-7V59z M210.5,59h7v7h-7V59z M217.8,59h7v7h-7V59z M225,59h7v7h-7V59z M232.3,59h7v7h-7V59z
		 M239.6,59h7v7h-7V59z M246.8,59h7v7h-7V59z M254.1,59h7v7h-7V59z M261.3,59h7v7h-7V59z M268.6,59h7v7h-7V59z M275.9,59h7v7h-7V59z
		 M283.1,59h7v7h-7V59z M0,51.7h7v7H0V51.7z M7.2,51.7h7v7h-7V51.7z M14.5,51.7h7v7h-7V51.7z M29,51.7h7v7h-7V51.7z M43.5,51.7h7v7
		h-7V51.7z M50.8,51.7h7v7h-7V51.7z M58.1,51.7h7v7h-7V51.7z M65.3,51.7h7v7h-7V51.7z M72.6,51.7h7v7h-7V51.7z M79.8,51.7h7v7h-7
		V51.7z M87.1,51.7h7v7h-7V51.7z M94.4,51.7h7v7h-7V51.7z M101.6,51.7h7v7h-7V51.7z M108.9,51.7h7v7h-7V51.7z M116.1,51.7h7v7h-7
		V51.7z M123.4,51.7h7v7h-7V51.7z M130.7,51.7h7v7h-7V51.7z M137.9,51.7h7v7h-7V51.7z M145.2,51.7h7v7h-7V51.7z M152.4,51.7h7v7h-7
		V51.7z M159.7,51.7h7v7h-7V51.7z M167,51.7h7v7h-7V51.7z M174.2,51.7h7v7h-7V51.7z M181.5,51.7h7v7h-7V51.7z M188.7,51.7h7v7h-7
		V51.7z M196,51.7h7v7h-7V51.7z M203.3,51.7h7v7h-7V51.7z M210.5,51.7h7v7h-7V51.7z M217.8,51.7h7v7h-7V51.7z M225,51.7h7v7h-7V51.7
		z M232.3,51.7h7v7h-7V51.7z M239.6,51.7h7v7h-7V51.7z M246.8,51.7h7v7h-7V51.7z M254.1,51.7h7v7h-7V51.7z M261.3,51.7h7v7h-7V51.7z
		 M268.6,51.7h7v7h-7V51.7z M0,44.5h7v7H0V44.5z M7.2,44.5h7v7h-7V44.5z M14.5,44.5h7v7h-7V44.5z M21.8,44.5h7v7h-7V44.5z M29,44.5
		h7v7h-7V44.5z M36.3,44.5h7v7h-7V44.5z M43.5,44.5h7v7h-7V44.5z M50.8,44.5h7v7h-7V44.5z M58.1,44.5h7v7h-7V44.5z M65.3,44.5h7v7
		h-7V44.5z M72.6,44.5h7v7h-7V44.5z M79.8,44.5h7v7h-7V44.5z M87.1,44.5h7v7h-7V44.5z M94.4,44.5h7v7h-7V44.5z M101.6,44.5h7v7h-7
		V44.5z M108.9,44.5h7v7h-7V44.5z M116.1,44.5h7v7h-7V44.5z M123.4,44.5h7v7h-7V44.5z M130.7,44.5h7v7h-7V44.5z M137.9,44.5h7v7h-7
		V44.5z M145.2,44.5h7v7h-7V44.5z M152.4,44.5h7v7h-7V44.5z M159.7,44.5h7v7h-7V44.5z M167,44.5h7v7h-7V44.5z M174.2,44.5h7v7h-7
		V44.5z M181.5,44.5h7v7h-7V44.5z M188.7,44.5h7v7h-7V44.5z M196,44.5h7v7h-7V44.5z M203.3,44.5h7v7h-7V44.5z M210.5,44.5h7v7h-7
		V44.5z M217.8,44.5h7v7h-7V44.5z M225,44.5h7v7h-7V44.5z M232.3,44.5h7v7h-7V44.5z M239.6,44.5h7v7h-7V44.5z M246.8,44.5h7v7h-7
		V44.5z M254.1,44.5h7v7h-7V44.5z"/>
</g>
</svg>
