<?xml version="1.0" encoding="utf-8"?>
<!-- Generator: Adobe Illustrator 27.3.1, SVG Export Plug-In . SVG Version: 6.00 Build 0)  -->
<svg version="1.1" id="Слой_1" xmlns="http://www.w3.org/2000/svg" xmlns:xlink="http://www.w3.org/1999/xlink" x="0px" y="0px"
	 viewBox="0 0 856.2 1524.2" style="enable-background:new 0 0 856.2 1524.2;" xml:space="preserve">
<style type="text/css">
	.st0{fill:#1E0E01;}
</style>
<path class="st0" d="M0.1,1495.4h7v7h-7C0.1,1502.4,0.1,1495.4,0.1,1495.4z M0.1,1488.2h7v7h-7C0.1,1495.2,0.1,1488.2,0.1,1488.2z
	 M0.1,1437.3h7v7h-7C0.1,1444.3,0.1,1437.3,0.1,1437.3z M0.1,1357.5h7v7h-7C0.1,1364.5,0.1,1357.5,0.1,1357.5z M0.1,1321.2h7v7h-7
	C0.1,1328.2,0.1,1321.2,0.1,1321.2z M0.1,1292.1h7v7h-7C0.1,1299.1,0.1,1292.1,0.1,1292.1z M7.4,1502.7h7v7h-7
	C7.4,1509.7,7.4,1502.7,7.4,1502.7z M7.4,1480.9h7v7h-7C7.4,1487.9,7.4,1480.9,7.4,1480.9z M7.4,1444.6h7v7h-7
	C7.4,1451.6,7.4,1444.6,7.4,1444.6z M7.4,1430.1h7v7h-7C7.4,1437.1,7.4,1430.1,7.4,1430.1z M7.4,1415.6h7v7h-7
	C7.4,1422.6,7.4,1415.6,7.4,1415.6z M7.4,1408.3h7v7h-7C7.4,1415.3,7.4,1408.3,7.4,1408.3z M7.4,1350.2h7v7h-7
	C7.4,1357.2,7.4,1350.2,7.4,1350.2z M7.4,1335.7h7v7h-7C7.4,1342.7,7.4,1335.7,7.4,1335.7z M7.4,1284.9h7v7h-7
	C7.4,1291.9,7.4,1284.9,7.4,1284.9z M14.6,1509.9h7v7h-7V1509.9z M14.6,1488.2h7v7h-7V1488.2z M14.6,1473.6h7v7h-7V1473.6z
	 M14.6,1451.9h7v7h-7V1451.9z M14.6,1437.3h7v7h-7V1437.3z M14.6,1422.8h7v7h-7V1422.8z M14.6,1401h7v7h-7V1401z M14.6,1343h7v7h-7
	V1343z M14.6,1328.4h7v7h-7V1328.4z M14.6,1299.4h7v7h-7V1299.4z M14.6,1277.6h7v7h-7V1277.6z M21.9,1509.9h7v7h-7V1509.9z
	 M21.9,1495.4h7v7h-7V1495.4z M21.9,1480.9h7v7h-7V1480.9z M21.9,1466.4h7v7h-7V1466.4z M21.9,1444.6h7v7h-7V1444.6z M21.9,1430.1h7
	v7h-7V1430.1z M21.9,1393.8h7v7h-7V1393.8z M21.9,1386.5h7v7h-7V1386.5z M21.9,1350.2h7v7h-7V1350.2z M21.9,1335.7h7v7h-7V1335.7z
	 M21.9,1321.2h7v7h-7V1321.2z M21.9,1306.7h7v7h-7V1306.7z M21.9,1292.1h7v7h-7V1292.1z M21.9,1270.4h7v7h-7V1270.4z M21.9,1263.1h7
	v7h-7V1263.1z M29.1,1502.7h7v7h-7C29.1,1509.7,29.1,1502.7,29.1,1502.7z M29.1,1473.6h7v7h-7C29.1,1480.6,29.1,1473.6,29.1,1473.6z
	 M29.1,1451.9h7v7h-7C29.1,1458.9,29.1,1451.9,29.1,1451.9z M29.1,1422.8h7v7h-7C29.1,1429.8,29.1,1422.8,29.1,1422.8z M29.1,1379.3
	h7v7h-7C29.1,1386.3,29.1,1379.3,29.1,1379.3z M29.1,1372h7v7h-7C29.1,1379,29.1,1372,29.1,1372z M29.1,1357.5h7v7h-7
	C29.1,1364.5,29.1,1357.5,29.1,1357.5z M29.1,1328.4h7v7h-7C29.1,1335.4,29.1,1328.4,29.1,1328.4z M29.1,1313.9h7v7h-7
	C29.1,1320.9,29.1,1313.9,29.1,1313.9z M29.1,1299.4h7v7h-7C29.1,1306.4,29.1,1299.4,29.1,1299.4z M29.1,1255.8h7v7h-7
	C29.1,1262.8,29.1,1255.8,29.1,1255.8z M36.4,1517.2h7v7h-7V1517.2z M36.4,1509.9h7v7h-7V1509.9z M36.4,1502.7h7v7h-7V1502.7z
	 M36.4,1495.4h7v7h-7V1495.4z M36.4,1488.2h7v7h-7V1488.2z M36.4,1480.9h7v7h-7V1480.9z M36.4,1473.6h7v7h-7V1473.6z M36.4,1466.4h7
	v7h-7V1466.4z M36.4,1459.1h7v7h-7V1459.1z M36.4,1451.9h7v7h-7V1451.9z M36.4,1444.6h7v7h-7V1444.6z M36.4,1437.3h7v7h-7V1437.3z
	 M36.4,1430.1h7v7h-7V1430.1z M36.4,1422.8h7v7h-7V1422.8z M36.4,1415.6h7v7h-7V1415.6z M36.4,1408.3h7v7h-7V1408.3z M36.4,1401h7v7
	h-7V1401z M36.4,1393.8h7v7h-7V1393.8z M36.4,1386.5h7v7h-7V1386.5z M36.4,1379.3h7v7h-7V1379.3z M36.4,1372h7v7h-7V1372z
	 M36.4,1364.7h7v7h-7V1364.7z M36.4,1357.5h7v7h-7V1357.5z M36.4,1350.2h7v7h-7V1350.2z M36.4,1343h7v7h-7V1343z M36.4,1335.7h7v7
	h-7V1335.7z M36.4,1328.4h7v7h-7V1328.4z M36.4,1321.2h7v7h-7V1321.2z M36.4,1313.9h7v7h-7V1313.9z M36.4,1306.7h7v7h-7V1306.7z
	 M36.4,1299.4h7v7h-7V1299.4z M36.4,1292.1h7v7h-7V1292.1z M36.4,1284.9h7v7h-7V1284.9z M36.4,1277.6h7v7h-7V1277.6z M36.4,1270.4h7
	v7h-7V1270.4z M36.4,1263.1h7v7h-7V1263.1z M36.4,1255.8h7v7h-7V1255.8z M36.4,1248.6h7v7h-7V1248.6z M43.7,1509.9h7v7h-7V1509.9z
	 M43.7,1364.7h7v7h-7V1364.7z M50.9,1517.2h7v7h-7V1517.2z M50.9,1372h7v7h-7V1372z M58.2,1517.2h7v7h-7
	C58.2,1524.2,58.2,1517.2,58.2,1517.2z M58.2,1509.9h7v7h-7C58.2,1516.9,58.2,1509.9,58.2,1509.9z M58.2,1502.7h7v7h-7
	C58.2,1509.7,58.2,1502.7,58.2,1502.7z M58.2,1495.4h7v7h-7C58.2,1502.4,58.2,1495.4,58.2,1495.4z M58.2,1488.2h7v7h-7
	C58.2,1495.2,58.2,1488.2,58.2,1488.2z M58.2,1480.9h7v7h-7C58.2,1487.9,58.2,1480.9,58.2,1480.9z M58.2,1473.6h7v7h-7
	C58.2,1480.6,58.2,1473.6,58.2,1473.6z M58.2,1466.4h7v7h-7C58.2,1473.4,58.2,1466.4,58.2,1466.4z M58.2,1459.1h7v7h-7
	C58.2,1466.1,58.2,1459.1,58.2,1459.1z M58.2,1451.9h7v7h-7C58.2,1458.9,58.2,1451.9,58.2,1451.9z M58.2,1444.6h7v7h-7
	C58.2,1451.6,58.2,1444.6,58.2,1444.6z M58.2,1437.3h7v7h-7C58.2,1444.3,58.2,1437.3,58.2,1437.3z M58.2,1430.1h7v7h-7
	C58.2,1437.1,58.2,1430.1,58.2,1430.1z M58.2,1422.8h7v7h-7C58.2,1429.8,58.2,1422.8,58.2,1422.8z M58.2,1415.6h7v7h-7
	C58.2,1422.6,58.2,1415.6,58.2,1415.6z M58.2,1408.3h7v7h-7C58.2,1415.3,58.2,1408.3,58.2,1408.3z M58.2,1401h7v7h-7
	C58.2,1408,58.2,1401,58.2,1401z M58.2,1393.8h7v7h-7C58.2,1400.8,58.2,1393.8,58.2,1393.8z M58.2,1386.5h7v7h-7
	C58.2,1393.5,58.2,1386.5,58.2,1386.5z M58.2,1379.3h7v7h-7C58.2,1386.3,58.2,1379.3,58.2,1379.3z M58.2,1372h7v7h-7
	C58.2,1379,58.2,1372,58.2,1372z M58.2,1364.7h7v7h-7C58.2,1371.7,58.2,1364.7,58.2,1364.7z M58.2,1357.5h7v7h-7
	C58.2,1364.5,58.2,1357.5,58.2,1357.5z M58.2,1350.2h7v7h-7C58.2,1357.2,58.2,1350.2,58.2,1350.2z M58.2,1343h7v7h-7
	C58.2,1350,58.2,1343,58.2,1343z M58.2,1335.7h7v7h-7C58.2,1342.7,58.2,1335.7,58.2,1335.7z M58.2,1328.4h7v7h-7
	C58.2,1335.4,58.2,1328.4,58.2,1328.4z M58.2,1321.2h7v7h-7C58.2,1328.2,58.2,1321.2,58.2,1321.2z M58.2,1313.9h7v7h-7
	C58.2,1320.9,58.2,1313.9,58.2,1313.9z M58.2,1306.7h7v7h-7C58.2,1313.7,58.2,1306.7,58.2,1306.7z M58.2,1299.4h7v7h-7
	C58.2,1306.4,58.2,1299.4,58.2,1299.4z M58.2,1292.1h7v7h-7C58.2,1299.1,58.2,1292.1,58.2,1292.1z M58.2,1284.9h7v7h-7
	C58.2,1291.9,58.2,1284.9,58.2,1284.9z M58.2,1277.6h7v7h-7C58.2,1284.6,58.2,1277.6,58.2,1277.6z M58.2,1270.4h7v7h-7
	C58.2,1277.4,58.2,1270.4,58.2,1270.4z M58.2,1263.1h7v7h-7C58.2,1270.1,58.2,1263.1,58.2,1263.1z M58.2,1255.8h7v7h-7
	C58.2,1262.8,58.2,1255.8,58.2,1255.8z M58.2,1248.6h7v7h-7C58.2,1255.6,58.2,1248.6,58.2,1248.6z M0,1219.6h7v7H0V1219.6z
	 M0,1212.4h7v7H0V1212.4z M0,1161.5h7v7H0V1161.5z M0,1081.7h7v7H0V1081.7z M0,1045.4h7v7H0V1045.4z M0,1016.3h7v7H0V1016.3z
	 M7.3,1226.9h7v7h-7V1226.9z M7.3,1205.1h7v7h-7V1205.1z M7.3,1168.8h7v7h-7V1168.8z M7.3,1154.3h7v7h-7V1154.3z M7.3,1139.8h7v7h-7
	V1139.8z M7.3,1132.5h7v7h-7V1132.5z M7.3,1074.4h7v7h-7V1074.4z M7.3,1059.9h7v7h-7V1059.9z M7.3,1009.1h7v7h-7V1009.1z
	 M14.5,1234.1h7v7h-7V1234.1z M14.5,1212.4h7v7h-7V1212.4z M14.5,1197.8h7v7h-7V1197.8z M14.5,1176.1h7v7h-7V1176.1z M14.5,1161.5h7
	v7h-7V1161.5z M14.5,1147h7v7h-7V1147z M14.5,1125.2h7v7h-7V1125.2z M14.5,1067.2h7v7h-7V1067.2z M14.5,1052.6h7v7h-7V1052.6z
	 M14.5,1023.6h7v7h-7V1023.6z M14.5,1001.8h7v7h-7V1001.8z M21.8,1234.1h7v7h-7V1234.1z M21.8,1219.6h7v7h-7V1219.6z M21.8,1205.1h7
	v7h-7V1205.1z M21.8,1190.6h7v7h-7V1190.6z M21.8,1168.8h7v7h-7V1168.8z M21.8,1154.3h7v7h-7V1154.3z M21.8,1118h7v7h-7V1118z
	 M21.8,1110.7h7v7h-7V1110.7z M21.8,1074.4h7v7h-7V1074.4z M21.8,1059.9h7v7h-7V1059.9z M21.8,1045.4h7v7h-7V1045.4z M21.8,1030.9h7
	v7h-7V1030.9z M21.8,1016.3h7v7h-7V1016.3z M21.8,994.6h7v7h-7V994.6z M21.8,987.3h7v7h-7V987.3z M29,1226.9h7v7h-7V1226.9z
	 M29,1197.8h7v7h-7V1197.8z M29,1176.1h7v7h-7V1176.1z M29,1147h7v7h-7V1147z M29,1103.5h7v7h-7V1103.5z M29,1096.2h7v7h-7V1096.2z
	 M29,1081.7h7v7h-7V1081.7z M29,1052.6h7v7h-7V1052.6z M29,1038.1h7v7h-7V1038.1z M29,1023.6h7v7h-7V1023.6z M29,980h7v7h-7V980z
	 M36.3,1241.4h7v7h-7V1241.4z M36.3,1234.1h7v7h-7V1234.1z M36.3,1226.9h7v7h-7V1226.9z M36.3,1219.6h7v7h-7V1219.6z M36.3,1212.4h7
	v7h-7V1212.4z M36.3,1205.1h7v7h-7V1205.1z M36.3,1197.8h7v7h-7V1197.8z M36.3,1190.6h7v7h-7V1190.6z M36.3,1183.3h7v7h-7V1183.3z
	 M36.3,1176.1h7v7h-7V1176.1z M36.3,1168.8h7v7h-7V1168.8z M36.3,1161.5h7v7h-7V1161.5z M36.3,1154.3h7v7h-7V1154.3z M36.3,1147h7v7
	h-7V1147z M36.3,1139.8h7v7h-7V1139.8z M36.3,1132.5h7v7h-7V1132.5z M36.3,1125.2h7v7h-7V1125.2z M36.3,1118h7v7h-7V1118z
	 M36.3,1110.7h7v7h-7V1110.7z M36.3,1103.5h7v7h-7V1103.5z M36.3,1096.2h7v7h-7V1096.2z M36.3,1088.9h7v7h-7V1088.9z M36.3,1081.7h7
	v7h-7V1081.7z M36.3,1074.4h7v7h-7V1074.4z M36.3,1067.2h7v7h-7V1067.2z M36.3,1059.9h7v7h-7V1059.9z M36.3,1052.6h7v7h-7V1052.6z
	 M36.3,1045.4h7v7h-7V1045.4z M36.3,1038.1h7v7h-7V1038.1z M36.3,1030.9h7v7h-7V1030.9z M36.3,1023.6h7v7h-7V1023.6z M36.3,1016.3h7
	v7h-7V1016.3z M36.3,1009.1h7v7h-7V1009.1z M36.3,1001.8h7v7h-7V1001.8z M36.3,994.6h7v7h-7V994.6z M36.3,987.3h7v7h-7V987.3z
	 M36.3,980h7v7h-7V980z M36.3,972.8h7v7h-7V972.8z M43.6,1234.1h7v7h-7V1234.1z M43.6,1088.9h7v7h-7V1088.9z M50.8,1241.4h7v7h-7
	V1241.4z M50.8,1096.2h7v7h-7V1096.2z M58.1,1241.4h7v7h-7V1241.4z M58.1,1234.1h7v7h-7V1234.1z M58.1,1226.9h7v7h-7V1226.9z
	 M58.1,1219.6h7v7h-7V1219.6z M58.1,1212.4h7v7h-7V1212.4z M58.1,1205.1h7v7h-7V1205.1z M58.1,1197.8h7v7h-7V1197.8z M58.1,1190.6h7
	v7h-7V1190.6z M58.1,1183.3h7v7h-7V1183.3z M58.1,1176.1h7v7h-7V1176.1z M58.1,1168.8h7v7h-7V1168.8z M58.1,1161.5h7v7h-7V1161.5z
	 M58.1,1154.3h7v7h-7V1154.3z M58.1,1147h7v7h-7V1147z M58.1,1139.8h7v7h-7V1139.8z M58.1,1132.5h7v7h-7V1132.5z M58.1,1125.2h7v7
	h-7V1125.2z M58.1,1118h7v7h-7V1118z M58.1,1110.7h7v7h-7V1110.7z M58.1,1103.5h7v7h-7V1103.5z M58.1,1096.2h7v7h-7V1096.2z
	 M58.1,1088.9h7v7h-7V1088.9z M58.1,1081.7h7v7h-7V1081.7z M58.1,1074.4h7v7h-7V1074.4z M58.1,1067.2h7v7h-7V1067.2z M58.1,1059.9h7
	v7h-7V1059.9z M58.1,1052.6h7v7h-7V1052.6z M58.1,1045.4h7v7h-7V1045.4z M58.1,1038.1h7v7h-7V1038.1z M58.1,1030.9h7v7h-7V1030.9z
	 M58.1,1023.6h7v7h-7V1023.6z M58.1,1016.3h7v7h-7V1016.3z M58.1,1009.1h7v7h-7V1009.1z M58.1,1001.8h7v7h-7V1001.8z M58.1,994.6h7
	v7h-7V994.6z M58.1,987.3h7v7h-7V987.3z M58.1,980h7v7h-7V980z M58.1,972.8h7v7h-7V972.8z M0,943.7h7v7H0V943.7z M0,936.5h7v7H0
	V936.5z M0,885.6h7v7H0V885.6z M0,805.8h7v7H0V805.8z M0,769.5h7v7H0V769.5z M0,740.4h7v7H0V740.4z M7.3,951h7v7h-7V951z M7.3,929.2
	h7v7h-7V929.2z M7.3,892.9h7v7h-7V892.9z M7.3,878.4h7v7h-7V878.4z M7.3,863.9h7v7h-7V863.9z M7.3,856.6h7v7h-7V856.6z M7.3,798.5h7
	v7h-7V798.5z M7.3,784h7v7h-7V784z M7.3,733.2h7v7h-7V733.2z M14.5,958.2h7v7h-7V958.2z M14.5,936.5h7v7h-7V936.5z M14.5,921.9h7v7
	h-7V921.9z M14.5,900.2h7v7h-7V900.2z M14.5,885.6h7v7h-7V885.6z M14.5,871.1h7v7h-7V871.1z M14.5,849.3h7v7h-7V849.3z M14.5,791.3
	h7v7h-7V791.3z M14.5,776.7h7v7h-7V776.7z M14.5,747.7h7v7h-7V747.7z M14.5,725.9h7v7h-7V725.9z M21.8,958.2h7v7h-7V958.2z
	 M21.8,943.7h7v7h-7V943.7z M21.8,929.2h7v7h-7V929.2z M21.8,914.7h7v7h-7V914.7z M21.8,892.9h7v7h-7V892.9z M21.8,878.4h7v7h-7
	V878.4z M21.8,842.1h7v7h-7V842.1z M21.8,834.8h7v7h-7V834.8z M21.8,798.5h7v7h-7V798.5z M21.8,784h7v7h-7V784z M21.8,769.5h7v7h-7
	V769.5z M21.8,755h7v7h-7V755z M21.8,740.4h7v7h-7V740.4z M21.8,718.7h7v7h-7V718.7z M21.8,711.4h7v7h-7V711.4z M29,951h7v7h-7V951z
	 M29,921.9h7v7h-7V921.9z M29,900.2h7v7h-7V900.2z M29,871.1h7v7h-7V871.1z M29,827.6h7v7h-7V827.6z M29,820.3h7v7h-7V820.3z
	 M29,805.8h7v7h-7V805.8z M29,776.7h7v7h-7V776.7z M29,762.2h7v7h-7V762.2z M29,747.7h7v7h-7V747.7z M29,704.1h7v7h-7V704.1z
	 M36.3,965.5h7v7h-7V965.5z M36.3,958.2h7v7h-7V958.2z M36.3,951h7v7h-7V951z M36.3,943.7h7v7h-7V943.7z M36.3,936.5h7v7h-7V936.5z
	 M36.3,929.2h7v7h-7V929.2z M36.3,921.9h7v7h-7V921.9z M36.3,914.7h7v7h-7V914.7z M36.3,907.4h7v7h-7V907.4z M36.3,900.2h7v7h-7
	V900.2z M36.3,892.9h7v7h-7V892.9z M36.3,885.6h7v7h-7V885.6z M36.3,878.4h7v7h-7V878.4z M36.3,871.1h7v7h-7V871.1z M36.3,863.9h7v7
	h-7V863.9z M36.3,856.6h7v7h-7V856.6z M36.3,849.3h7v7h-7V849.3z M36.3,842.1h7v7h-7V842.1z M36.3,834.8h7v7h-7V834.8z M36.3,827.6
	h7v7h-7V827.6z M36.3,820.3h7v7h-7V820.3z M36.3,813h7v7h-7V813z M36.3,805.8h7v7h-7V805.8z M36.3,798.5h7v7h-7V798.5z M36.3,791.3
	h7v7h-7V791.3z M36.3,784h7v7h-7V784z M36.3,776.7h7v7h-7V776.7z M36.3,769.5h7v7h-7V769.5z M36.3,762.2h7v7h-7V762.2z M36.3,755h7
	v7h-7V755z M36.3,747.7h7v7h-7V747.7z M36.3,740.4h7v7h-7V740.4z M36.3,733.2h7v7h-7V733.2z M36.3,725.9h7v7h-7V725.9z M36.3,718.7
	h7v7h-7V718.7z M36.3,711.4h7v7h-7V711.4z M36.3,704.1h7v7h-7V704.1z M36.3,696.9h7v7h-7V696.9z M43.6,958.2h7v7h-7V958.2z
	 M43.6,813h7v7h-7V813z M50.8,965.5h7v7h-7V965.5z M50.8,820.3h7v7h-7V820.3z M58.1,965.5h7v7h-7V965.5z M58.1,958.2h7v7h-7V958.2z
	 M58.1,951h7v7h-7V951z M58.1,943.7h7v7h-7V943.7z M58.1,936.5h7v7h-7V936.5z M58.1,929.2h7v7h-7V929.2z M58.1,921.9h7v7h-7V921.9z
	 M58.1,914.7h7v7h-7V914.7z M58.1,907.4h7v7h-7V907.4z M58.1,900.2h7v7h-7V900.2z M58.1,892.9h7v7h-7V892.9z M58.1,885.6h7v7h-7
	V885.6z M58.1,878.4h7v7h-7V878.4z M58.1,871.1h7v7h-7V871.1z M58.1,863.9h7v7h-7V863.9z M58.1,856.6h7v7h-7V856.6z M58.1,849.3h7v7
	h-7V849.3z M58.1,842.1h7v7h-7V842.1z M58.1,834.8h7v7h-7V834.8z M58.1,827.6h7v7h-7V827.6z M58.1,820.3h7v7h-7V820.3z M58.1,813h7
	v7h-7V813z M58.1,805.8h7v7h-7V805.8z M58.1,798.5h7v7h-7V798.5z M58.1,791.3h7v7h-7V791.3z M58.1,784h7v7h-7V784z M58.1,776.7h7v7
	h-7V776.7z M58.1,769.5h7v7h-7V769.5z M58.1,762.2h7v7h-7V762.2z M58.1,755h7v7h-7V755z M58.1,747.7h7v7h-7V747.7z M58.1,740.4h7v7
	h-7V740.4z M58.1,733.2h7v7h-7V733.2z M58.1,725.9h7v7h-7V725.9z M58.1,718.7h7v7h-7V718.7z M58.1,711.4h7v7h-7V711.4z M58.1,704.1
	h7v7h-7V704.1z M58.1,696.9h7v7h-7V696.9z M0,667.8h7v7H0V667.8z M0,660.6h7v7H0V660.6z M0,609.7h7v7H0V609.7z M0,529.9h7v7H0V529.9
	z M0,493.6h7v7H0V493.6z M0,464.5h7v7H0V464.5z M7.3,675.1h7v7h-7V675.1z M7.3,653.3h7v7h-7V653.3z M7.3,617h7v7h-7V617z M7.3,602.5
	h7v7h-7V602.5z M7.3,588h7v7h-7V588z M7.3,580.7h7v7h-7V580.7z M7.3,522.6h7v7h-7V522.6z M7.3,508.1h7v7h-7V508.1z M7.3,457.3h7v7
	h-7V457.3z M14.5,682.3h7v7h-7V682.3z M14.5,660.6h7v7h-7V660.6z M14.5,646h7v7h-7V646z M14.5,624.3h7v7h-7V624.3z M14.5,609.7h7v7
	h-7V609.7z M14.5,595.2h7v7h-7V595.2z M14.5,573.4h7v7h-7V573.4z M14.5,515.4h7v7h-7V515.4z M14.5,500.8h7v7h-7V500.8z M14.5,471.8
	h7v7h-7V471.8z M14.5,450h7v7h-7V450z M21.8,682.3h7v7h-7V682.3z M21.8,667.8h7v7h-7V667.8z M21.8,653.3h7v7h-7V653.3z M21.8,638.8
	h7v7h-7V638.8z M21.8,617h7v7h-7V617z M21.8,602.5h7v7h-7V602.5z M21.8,566.2h7v7h-7V566.2z M21.8,558.9h7v7h-7V558.9z M21.8,522.6
	h7v7h-7V522.6z M21.8,508.1h7v7h-7V508.1z M21.8,493.6h7v7h-7V493.6z M21.8,479.1h7v7h-7V479.1z M21.8,464.5h7v7h-7V464.5z
	 M21.8,442.8h7v7h-7V442.8z M21.8,435.5h7v7h-7V435.5z M29,675.1h7v7h-7V675.1z M29,646h7v7h-7V646z M29,624.3h7v7h-7V624.3z
	 M29,595.2h7v7h-7V595.2z M29,551.7h7v7h-7V551.7z M29,544.4h7v7h-7V544.4z M29,529.9h7v7h-7V529.9z M29,500.8h7v7h-7V500.8z
	 M29,486.3h7v7h-7V486.3z M29,471.8h7v7h-7V471.8z M29,428.2h7v7h-7V428.2z M36.3,689.6h7v7h-7V689.6z M36.3,682.3h7v7h-7V682.3z
	 M36.3,675.1h7v7h-7V675.1z M36.3,667.8h7v7h-7V667.8z M36.3,660.6h7v7h-7V660.6z M36.3,653.3h7v7h-7V653.3z M36.3,646h7v7h-7V646z
	 M36.3,638.8h7v7h-7V638.8z M36.3,631.5h7v7h-7V631.5z M36.3,624.3h7v7h-7V624.3z M36.3,617h7v7h-7V617z M36.3,609.7h7v7h-7V609.7z
	 M36.3,602.5h7v7h-7V602.5z M36.3,595.2h7v7h-7V595.2z M36.3,588h7v7h-7V588z M36.3,580.7h7v7h-7V580.7z M36.3,573.4h7v7h-7V573.4z
	 M36.3,566.2h7v7h-7V566.2z M36.3,558.9h7v7h-7V558.9z M36.3,551.7h7v7h-7V551.7z M36.3,544.4h7v7h-7V544.4z M36.3,537.1h7v7h-7
	V537.1z M36.3,529.9h7v7h-7V529.9z M36.3,522.6h7v7h-7V522.6z M36.3,515.4h7v7h-7V515.4z M36.3,508.1h7v7h-7V508.1z M36.3,500.8h7v7
	h-7V500.8z M36.3,493.6h7v7h-7V493.6z M36.3,486.3h7v7h-7V486.3z M36.3,479.1h7v7h-7V479.1z M36.3,471.8h7v7h-7V471.8z M36.3,464.5
	h7v7h-7V464.5z M36.3,457.3h7v7h-7V457.3z M36.3,450h7v7h-7V450z M36.3,442.8h7v7h-7V442.8z M36.3,435.5h7v7h-7V435.5z M36.3,428.2
	h7v7h-7V428.2z M36.3,421h7v7h-7V421z M43.6,682.3h7v7h-7V682.3z M43.6,537.1h7v7h-7V537.1z M50.8,689.6h7v7h-7V689.6z M50.8,544.4
	h7v7h-7V544.4z M58.1,689.6h7v7h-7V689.6z M58.1,682.3h7v7h-7V682.3z M58.1,675.1h7v7h-7V675.1z M58.1,667.8h7v7h-7V667.8z
	 M58.1,660.6h7v7h-7V660.6z M58.1,653.3h7v7h-7V653.3z M58.1,646h7v7h-7V646z M58.1,638.8h7v7h-7V638.8z M58.1,631.5h7v7h-7V631.5z
	 M58.1,624.3h7v7h-7V624.3z M58.1,617h7v7h-7V617z M58.1,609.7h7v7h-7V609.7z M58.1,602.5h7v7h-7V602.5z M58.1,595.2h7v7h-7V595.2z
	 M58.1,588h7v7h-7V588z M58.1,580.7h7v7h-7V580.7z M58.1,573.4h7v7h-7V573.4z M58.1,566.2h7v7h-7V566.2z M58.1,558.9h7v7h-7V558.9z
	 M58.1,551.7h7v7h-7V551.7z M58.1,544.4h7v7h-7V544.4z M58.1,537.1h7v7h-7V537.1z M58.1,529.9h7v7h-7V529.9z M58.1,522.6h7v7h-7
	V522.6z M58.1,515.4h7v7h-7V515.4z M58.1,508.1h7v7h-7V508.1z M58.1,500.8h7v7h-7V500.8z M58.1,493.6h7v7h-7V493.6z M58.1,486.3h7v7
	h-7V486.3z M58.1,479.1h7v7h-7V479.1z M58.1,471.8h7v7h-7V471.8z M58.1,464.5h7v7h-7V464.5z M58.1,457.3h7v7h-7V457.3z M58.1,450h7
	v7h-7V450z M58.1,442.8h7v7h-7V442.8z M58.1,435.5h7v7h-7V435.5z M58.1,428.2h7v7h-7V428.2z M58.1,421h7v7h-7V421z M0,391.9h7v7H0
	V391.9z M0,384.7h7v7H0V384.7z M0,333.8h7v7H0V333.8z M0,254h7v7H0V254z M0,217.7h7v7H0V217.7z M0,188.6h7v7H0V188.6z M7.3,399.2h7
	v7h-7V399.2z M7.3,377.4h7v7h-7V377.4z M7.3,341.1h7v7h-7V341.1z M7.3,326.6h7v7h-7V326.6z M7.3,312.1h7v7h-7V312.1z M7.3,304.8h7v7
	h-7V304.8z M7.3,246.7h7v7h-7V246.7z M7.3,232.2h7v7h-7V232.2z M7.3,181.4h7v7h-7V181.4z M14.5,406.4h7v7h-7V406.4z M14.5,384.7h7v7
	h-7V384.7z M14.5,370.1h7v7h-7V370.1z M14.5,348.4h7v7h-7V348.4z M14.5,333.8h7v7h-7V333.8z M14.5,319.3h7v7h-7V319.3z M14.5,297.5
	h7v7h-7V297.5z M14.5,239.5h7v7h-7V239.5z M14.5,224.9h7v7h-7V224.9z M14.5,195.9h7v7h-7V195.9z M14.5,174.1h7v7h-7V174.1z
	 M21.8,406.4h7v7h-7V406.4z M21.8,391.9h7v7h-7V391.9z M21.8,377.4h7v7h-7V377.4z M21.8,362.9h7v7h-7V362.9z M21.8,341.1h7v7h-7
	V341.1z M21.8,326.6h7v7h-7V326.6z M21.8,290.3h7v7h-7V290.3z M21.8,283h7v7h-7V283z M21.8,246.7h7v7h-7V246.7z M21.8,232.2h7v7h-7
	V232.2z M21.8,217.7h7v7h-7V217.7z M21.8,203.2h7v7h-7V203.2z M21.8,188.6h7v7h-7V188.6z M21.8,166.9h7v7h-7V166.9z M21.8,159.6h7v7
	h-7V159.6z M29,399.2h7v7h-7V399.2z M29,370.1h7v7h-7V370.1z M29,348.4h7v7h-7V348.4z M29,319.3h7v7h-7V319.3z M29,275.8h7v7h-7
	V275.8z M29,268.5h7v7h-7V268.5z M29,254h7v7h-7V254z M29,224.9h7v7h-7V224.9z M29,210.4h7v7h-7V210.4z M29,195.9h7v7h-7V195.9z
	 M29,152.3h7v7h-7V152.3z M36.3,413.7h7v7h-7V413.7z M36.3,406.4h7v7h-7V406.4z M36.3,399.2h7v7h-7V399.2z M36.3,391.9h7v7h-7V391.9
	z M36.3,384.7h7v7h-7V384.7z M36.3,377.4h7v7h-7V377.4z M36.3,370.1h7v7h-7V370.1z M36.3,362.9h7v7h-7V362.9z M36.3,355.6h7v7h-7
	V355.6z M36.3,348.4h7v7h-7V348.4z M36.3,341.1h7v7h-7V341.1z M36.3,333.8h7v7h-7V333.8z M36.3,326.6h7v7h-7V326.6z M36.3,319.3h7v7
	h-7V319.3z M36.3,312.1h7v7h-7V312.1z M36.3,304.8h7v7h-7V304.8z M36.3,297.5h7v7h-7V297.5z M36.3,290.3h7v7h-7V290.3z M36.3,283h7
	v7h-7V283z M36.3,275.8h7v7h-7V275.8z M36.3,268.5h7v7h-7V268.5z M36.3,261.2h7v7h-7V261.2z M36.3,254h7v7h-7V254z M36.3,246.7h7v7
	h-7V246.7z M36.3,239.5h7v7h-7V239.5z M36.3,232.2h7v7h-7V232.2z M36.3,224.9h7v7h-7V224.9z M36.3,217.7h7v7h-7V217.7z M36.3,210.4
	h7v7h-7V210.4z M36.3,203.2h7v7h-7V203.2z M36.3,195.9h7v7h-7V195.9z M36.3,188.6h7v7h-7V188.6z M36.3,181.4h7v7h-7V181.4z
	 M36.3,174.1h7v7h-7V174.1z M36.3,166.9h7v7h-7V166.9z M36.3,159.6h7v7h-7V159.6z M36.3,152.3h7v7h-7V152.3z M36.3,145.1h7v7h-7
	V145.1z M43.6,406.4h7v7h-7V406.4z M43.6,261.2h7v7h-7V261.2z M50.8,413.7h7v7h-7V413.7z M50.8,268.5h7v7h-7V268.5z M58.1,413.7h7v7
	h-7V413.7z M58.1,406.4h7v7h-7V406.4z M58.1,399.2h7v7h-7V399.2z M58.1,391.9h7v7h-7V391.9z M58.1,384.7h7v7h-7V384.7z M58.1,377.4
	h7v7h-7V377.4z M58.1,370.1h7v7h-7V370.1z M58.1,362.9h7v7h-7V362.9z M58.1,355.6h7v7h-7V355.6z M58.1,348.4h7v7h-7V348.4z
	 M58.1,341.1h7v7h-7V341.1z M58.1,333.8h7v7h-7V333.8z M58.1,326.6h7v7h-7V326.6z M58.1,319.3h7v7h-7V319.3z M58.1,312.1h7v7h-7
	V312.1z M58.1,304.8h7v7h-7V304.8z M58.1,297.5h7v7h-7V297.5z M58.1,290.3h7v7h-7V290.3z M58.1,283h7v7h-7V283z M58.1,275.8h7v7h-7
	V275.8z M58.1,268.5h7v7h-7V268.5z M58.1,261.2h7v7h-7V261.2z M58.1,254h7v7h-7V254z M58.1,246.7h7v7h-7V246.7z M58.1,239.5h7v7h-7
	V239.5z M58.1,232.2h7v7h-7V232.2z M58.1,224.9h7v7h-7V224.9z M58.1,217.7h7v7h-7V217.7z M58.1,210.4h7v7h-7V210.4z M58.1,203.2h7v7
	h-7V203.2z M58.1,195.9h7v7h-7V195.9z M58.1,188.6h7v7h-7V188.6z M58.1,181.4h7v7h-7V181.4z M58.1,174.1h7v7h-7V174.1z M58.1,166.9
	h7v7h-7V166.9z M58.1,159.6h7v7h-7V159.6z M58.1,152.3h7v7h-7V152.3z M58.1,145.1h7v7h-7V145.1z M0,116.1h7v7H0V116.1z M0,108.9h7v7
	H0V108.9z M0,58h7v7H0V58z M7.3,123.4h7v7h-7V123.4z M7.3,101.6h7v7h-7V101.6z M7.3,65.3h7v7h-7V65.3z M7.3,50.8h7v7h-7V50.8z
	 M7.3,36.3h7v7h-7V36.3z M7.3,29h7v7h-7V29z M14.5,130.6h7v7h-7V130.6z M14.5,108.9h7v7h-7V108.9z M14.5,94.3h7v7h-7V94.3z
	 M14.5,72.6h7v7h-7V72.6z M14.5,58h7v7h-7V58z M14.5,43.5h7v7h-7V43.5z M14.5,21.7h7v7h-7V21.7z M21.8,130.6h7v7h-7V130.6z
	 M21.8,116.1h7v7h-7V116.1z M21.8,101.6h7v7h-7V101.6z M21.8,87.1h7v7h-7V87.1z M21.8,65.3h7v7h-7V65.3z M21.8,50.8h7v7h-7V50.8z
	 M21.8,14.5h7v7h-7V14.5z M21.8,7.2h7v7h-7V7.2z M29,123.4h7v7h-7V123.4z M29,94.3h7v7h-7V94.3z M29,72.6h7v7h-7V72.6z M29,43.5h7v7
	h-7V43.5z M29,0h7v7h-7V0z M36.3,137.9h7v7h-7V137.9z M36.3,130.6h7v7h-7V130.6z M36.3,123.4h7v7h-7V123.4z M36.3,116.1h7v7h-7
	V116.1z M36.3,108.9h7v7h-7V108.9z M36.3,101.6h7v7h-7V101.6z M36.3,94.3h7v7h-7V94.3z M36.3,87.1h7v7h-7V87.1z M36.3,79.8h7v7h-7
	V79.8z M36.3,72.6h7v7h-7V72.6z M36.3,65.3h7v7h-7V65.3z M36.3,58h7v7h-7V58z M36.3,50.8h7v7h-7V50.8z M36.3,43.5h7v7h-7V43.5z
	 M36.3,36.3h7v7h-7V36.3z M36.3,29h7v7h-7V29z M36.3,21.7h7v7h-7V21.7z M36.3,14.5h7v7h-7V14.5z M36.3,7.2h7v7h-7V7.2z M36.3,0h7v7
	h-7V0z M43.6,130.6h7v7h-7V130.6z M50.8,137.9h7v7h-7V137.9z M58.1,137.9h7v7h-7V137.9z M58.1,130.6h7v7h-7V130.6z M58.1,123.4h7v7
	h-7V123.4z M58.1,116.1h7v7h-7V116.1z M58.1,108.9h7v7h-7V108.9z M58.1,101.6h7v7h-7V101.6z M58.1,94.3h7v7h-7V94.3z M58.1,87.1h7v7
	h-7V87.1z M58.1,79.8h7v7h-7V79.8z M58.1,72.6h7v7h-7V72.6z M58.1,65.3h7v7h-7V65.3z M58.1,58h7v7h-7V58z M58.1,50.8h7v7h-7V50.8z
	 M58.1,43.5h7v7h-7V43.5z M58.1,36.3h7v7h-7V36.3z M58.1,29h7v7h-7V29z M58.1,21.7h7v7h-7V21.7z M58.1,14.5h7v7h-7V14.5z M58.1,7.2
	h7v7h-7V7.2z M58.1,0h7v7h-7V0z M856.2,1502.4h-7v-7h7C856.2,1495.4,856.2,1502.4,856.2,1502.4z M856.2,1495.2h-7v-7h7
	C856.2,1488.2,856.2,1495.2,856.2,1495.2z M856.2,1444.3h-7v-7h7C856.2,1437.3,856.2,1444.3,856.2,1444.3z M856.2,1364.5h-7v-7h7
	C856.2,1357.5,856.2,1364.5,856.2,1364.5z M856.2,1328.2h-7v-7h7C856.2,1321.2,856.2,1328.2,856.2,1328.2z M856.2,1299.1h-7v-7h7
	C856.2,1292.1,856.2,1299.1,856.2,1299.1z M848.8,1509.7h-7v-7h7C848.8,1502.7,848.8,1509.7,848.8,1509.7z M848.8,1487.9h-7v-7h7
	C848.8,1480.9,848.8,1487.9,848.8,1487.9z M848.8,1451.6h-7v-7h7C848.8,1444.6,848.8,1451.6,848.8,1451.6z M848.8,1437.1h-7v-7h7
	C848.8,1430.1,848.8,1437.1,848.8,1437.1z M848.8,1422.6h-7v-7h7C848.8,1415.6,848.8,1422.6,848.8,1422.6z M848.8,1415.3h-7v-7h7
	C848.8,1408.3,848.8,1415.3,848.8,1415.3z M848.8,1357.2h-7v-7h7C848.8,1350.2,848.8,1357.2,848.8,1357.2z M848.8,1342.7h-7v-7h7
	C848.8,1335.7,848.8,1342.7,848.8,1342.7z M848.8,1291.9h-7v-7h7C848.8,1284.9,848.8,1291.9,848.8,1291.9z M841.7,1516.9h-7v-7h7
	V1516.9z M841.7,1495.2h-7v-7h7V1495.2z M841.7,1480.6h-7v-7h7V1480.6z M841.7,1458.9h-7v-7h7V1458.9z M841.7,1444.3h-7v-7h7V1444.3
	z M841.7,1429.8h-7v-7h7V1429.8z M841.7,1408h-7v-7h7V1408z M841.7,1350h-7v-7h7V1350z M841.7,1335.4h-7v-7h7V1335.4z M841.7,1306.4
	h-7v-7h7V1306.4z M841.7,1284.6h-7v-7h7V1284.6z M834.3,1516.9h-7v-7h7V1516.9z M834.3,1502.4h-7v-7h7V1502.4z M834.3,1487.9h-7v-7
	h7V1487.9z M834.3,1473.4h-7v-7h7V1473.4z M834.3,1451.6h-7v-7h7V1451.6z M834.3,1437.1h-7v-7h7V1437.1z M834.3,1400.8h-7v-7h7
	V1400.8z M834.3,1393.5h-7v-7h7V1393.5z M834.3,1357.2h-7v-7h7V1357.2z M834.3,1342.7h-7v-7h7V1342.7z M834.3,1328.2h-7v-7h7V1328.2
	z M834.3,1313.7h-7v-7h7V1313.7z M834.3,1299.1h-7v-7h7V1299.1z M834.3,1277.4h-7v-7h7V1277.4z M834.3,1270.1h-7v-7h7V1270.1z
	 M827.2,1509.7h-7v-7h7C827.2,1502.7,827.2,1509.7,827.2,1509.7z M827.2,1480.6h-7v-7h7C827.2,1473.6,827.2,1480.6,827.2,1480.6z
	 M827.2,1458.9h-7v-7h7C827.2,1451.9,827.2,1458.9,827.2,1458.9z M827.2,1429.8h-7v-7h7C827.2,1422.8,827.2,1429.8,827.2,1429.8z
	 M827.2,1386.3h-7v-7h7C827.2,1379.3,827.2,1386.3,827.2,1386.3z M827.2,1379h-7v-7h7C827.2,1372,827.2,1379,827.2,1379z
	 M827.2,1364.5h-7v-7h7C827.2,1357.5,827.2,1364.5,827.2,1364.5z M827.2,1335.4h-7v-7h7C827.2,1328.4,827.2,1335.4,827.2,1335.4z
	 M827.2,1320.9h-7v-7h7C827.2,1313.9,827.2,1320.9,827.2,1320.9z M827.2,1306.4h-7v-7h7C827.2,1299.4,827.2,1306.4,827.2,1306.4z
	 M827.2,1262.8h-7v-7h7C827.2,1255.8,827.2,1262.8,827.2,1262.8z M819.8,1524.2h-7v-7h7V1524.2z M819.8,1516.9h-7v-7h7V1516.9z
	 M819.8,1509.7h-7v-7h7V1509.7z M819.8,1502.4h-7v-7h7V1502.4z M819.8,1495.2h-7v-7h7V1495.2z M819.8,1487.9h-7v-7h7V1487.9z
	 M819.8,1480.6h-7v-7h7V1480.6z M819.8,1473.4h-7v-7h7V1473.4z M819.8,1466.1h-7v-7h7V1466.1z M819.8,1458.9h-7v-7h7V1458.9z
	 M819.8,1451.6h-7v-7h7V1451.6z M819.8,1444.3h-7v-7h7V1444.3z M819.8,1437.1h-7v-7h7V1437.1z M819.8,1429.8h-7v-7h7V1429.8z
	 M819.8,1422.6h-7v-7h7V1422.6z M819.8,1415.3h-7v-7h7V1415.3z M819.8,1408h-7v-7h7V1408z M819.8,1400.8h-7v-7h7V1400.8z
	 M819.8,1393.5h-7v-7h7V1393.5z M819.8,1386.3h-7v-7h7V1386.3z M819.8,1379h-7v-7h7V1379z M819.8,1371.7h-7v-7h7V1371.7z
	 M819.8,1364.5h-7v-7h7V1364.5z M819.8,1357.2h-7v-7h7V1357.2z M819.8,1350h-7v-7h7V1350z M819.8,1342.7h-7v-7h7V1342.7z
	 M819.8,1335.4h-7v-7h7V1335.4z M819.8,1328.2h-7v-7h7V1328.2z M819.8,1320.9h-7v-7h7V1320.9z M819.8,1313.7h-7v-7h7V1313.7z
	 M819.8,1306.4h-7v-7h7V1306.4z M819.8,1299.1h-7v-7h7V1299.1z M819.8,1291.9h-7v-7h7V1291.9z M819.8,1284.6h-7v-7h7V1284.6z
	 M819.8,1277.4h-7v-7h7V1277.4z M819.8,1270.1h-7v-7h7V1270.1z M819.8,1262.8h-7v-7h7V1262.8z M819.8,1255.6h-7v-7h7V1255.6z
	 M812.5,1516.9h-7v-7h7V1516.9z M812.5,1371.7h-7v-7h7V1371.7z M805.3,1524.2h-7v-7h7V1524.2z M805.3,1379h-7v-7h7V1379z
	 M798,1524.2h-7v-7h7C798,1517.2,798,1524.2,798,1524.2z M798,1516.9h-7v-7h7C798,1509.9,798,1516.9,798,1516.9z M798,1509.7h-7v-7
	h7C798,1502.7,798,1509.7,798,1509.7z M798,1502.4h-7v-7h7C798,1495.4,798,1502.4,798,1502.4z M798,1495.2h-7v-7h7
	C798,1488.2,798,1495.2,798,1495.2z M798,1487.9h-7v-7h7C798,1480.9,798,1487.9,798,1487.9z M798,1480.6h-7v-7h7
	C798,1473.6,798,1480.6,798,1480.6z M798,1473.4h-7v-7h7C798,1466.4,798,1473.4,798,1473.4z M798,1466.1h-7v-7h7
	C798,1459.1,798,1466.1,798,1466.1z M798,1458.9h-7v-7h7C798,1451.9,798,1458.9,798,1458.9z M798,1451.6h-7v-7h7
	C798,1444.6,798,1451.6,798,1451.6z M798,1444.3h-7v-7h7C798,1437.3,798,1444.3,798,1444.3z M798,1437.1h-7v-7h7
	C798,1430.1,798,1437.1,798,1437.1z M798,1429.8h-7v-7h7C798,1422.8,798,1429.8,798,1429.8z M798,1422.6h-7v-7h7
	C798,1415.6,798,1422.6,798,1422.6z M798,1415.3h-7v-7h7C798,1408.3,798,1415.3,798,1415.3z M798,1408h-7v-7h7
	C798,1401,798,1408,798,1408z M798,1400.8h-7v-7h7C798,1393.8,798,1400.8,798,1400.8z M798,1393.5h-7v-7h7
	C798,1386.5,798,1393.5,798,1393.5z M798,1386.3h-7v-7h7C798,1379.3,798,1386.3,798,1386.3z M798,1379h-7v-7h7
	C798,1372,798,1379,798,1379z M798,1371.7h-7v-7h7C798,1364.7,798,1371.7,798,1371.7z M798,1364.5h-7v-7h7
	C798,1357.5,798,1364.5,798,1364.5z M798,1357.2h-7v-7h7C798,1350.2,798,1357.2,798,1357.2z M798,1350h-7v-7h7
	C798,1343,798,1350,798,1350z M798,1342.7h-7v-7h7C798,1335.7,798,1342.7,798,1342.7z M798,1335.4h-7v-7h7
	C798,1328.4,798,1335.4,798,1335.4z M798,1328.2h-7v-7h7C798,1321.2,798,1328.2,798,1328.2z M798,1320.9h-7v-7h7
	C798,1313.9,798,1320.9,798,1320.9z M798,1313.7h-7v-7h7C798,1306.7,798,1313.7,798,1313.7z M798,1306.4h-7v-7h7
	C798,1299.4,798,1306.4,798,1306.4z M798,1299.1h-7v-7h7C798,1292.1,798,1299.1,798,1299.1z M798,1291.9h-7v-7h7
	C798,1284.9,798,1291.9,798,1291.9z M798,1284.6h-7v-7h7C798,1277.6,798,1284.6,798,1284.6z M798,1277.4h-7v-7h7
	C798,1270.4,798,1277.4,798,1277.4z M798,1270.1h-7v-7h7C798,1263.1,798,1270.1,798,1270.1z M798,1262.8h-7v-7h7
	C798,1255.8,798,1262.8,798,1262.8z M798,1255.6h-7v-7h7C798,1248.6,798,1255.6,798,1255.6z M856.2,1226.6h-7v-7h7V1226.6z
	 M856.2,1219.4h-7v-7h7V1219.4z M856.2,1168.5h-7v-7h7V1168.5z M856.2,1088.7h-7v-7h7V1088.7z M856.2,1052.4h-7v-7h7V1052.4z
	 M856.2,1023.3h-7v-7h7V1023.3z M849,1233.9h-7v-7h7V1233.9z M849,1212.1h-7v-7h7V1212.1z M849,1175.8h-7v-7h7V1175.8z M849,1161.3
	h-7v-7h7V1161.3z M849,1146.8h-7v-7h7V1146.8z M849,1139.5h-7v-7h7V1139.5z M849,1081.4h-7v-7h7V1081.4z M849,1066.9h-7v-7h7V1066.9
	z M849,1016.1h-7v-7h7V1016.1z M841.8,1241.1h-7v-7h7V1241.1z M841.8,1219.4h-7v-7h7V1219.4z M841.8,1204.8h-7v-7h7V1204.8z
	 M841.8,1183.1h-7v-7h7V1183.1z M841.8,1168.5h-7v-7h7V1168.5z M841.8,1154h-7v-7h7V1154z M841.8,1132.2h-7v-7h7V1132.2z
	 M841.8,1074.2h-7v-7h7V1074.2z M841.8,1059.6h-7v-7h7V1059.6z M841.8,1030.6h-7v-7h7V1030.6z M841.8,1008.8h-7v-7h7V1008.8z
	 M834.5,1241.1h-7v-7h7V1241.1z M834.5,1226.6h-7v-7h7V1226.6z M834.5,1212.1h-7v-7h7V1212.1z M834.5,1197.6h-7v-7h7V1197.6z
	 M834.5,1175.8h-7v-7h7V1175.8z M834.5,1161.3h-7v-7h7V1161.3z M834.5,1125h-7v-7h7V1125z M834.5,1117.7h-7v-7h7V1117.7z
	 M834.5,1081.4h-7v-7h7V1081.4z M834.5,1066.9h-7v-7h7V1066.9z M834.5,1052.4h-7v-7h7V1052.4z M834.5,1037.9h-7v-7h7V1037.9z
	 M834.5,1023.3h-7v-7h7V1023.3z M834.5,1001.6h-7v-7h7V1001.6z M834.5,994.3h-7v-7h7V994.3z M827.2,1233.9h-7v-7h7V1233.9z
	 M827.2,1204.8h-7v-7h7V1204.8z M827.2,1183.1h-7v-7h7V1183.1z M827.2,1154h-7v-7h7V1154z M827.2,1110.5h-7v-7h7V1110.5z
	 M827.2,1103.2h-7v-7h7V1103.2z M827.2,1088.7h-7v-7h7V1088.7z M827.2,1059.6h-7v-7h7V1059.6z M827.2,1045.1h-7v-7h7V1045.1z
	 M827.2,1030.6h-7v-7h7V1030.6z M827.2,987h-7v-7h7V987z M820,1248.4h-7v-7h7V1248.4z M820,1241.1h-7v-7h7V1241.1z M820,1233.9h-7
	v-7h7V1233.9z M820,1226.6h-7v-7h7V1226.6z M820,1219.4h-7v-7h7V1219.4z M820,1212.1h-7v-7h7V1212.1z M820,1204.8h-7v-7h7V1204.8z
	 M820,1197.6h-7v-7h7V1197.6z M820,1190.3h-7v-7h7V1190.3z M820,1183.1h-7v-7h7V1183.1z M820,1175.8h-7v-7h7V1175.8z M820,1168.5h-7
	v-7h7V1168.5z M820,1161.3h-7v-7h7V1161.3z M820,1154h-7v-7h7V1154z M820,1146.8h-7v-7h7V1146.8z M820,1139.5h-7v-7h7V1139.5z
	 M820,1132.2h-7v-7h7V1132.2z M820,1125h-7v-7h7V1125z M820,1117.7h-7v-7h7V1117.7z M820,1110.5h-7v-7h7V1110.5z M820,1103.2h-7v-7
	h7V1103.2z M820,1095.9h-7v-7h7V1095.9z M820,1088.7h-7v-7h7V1088.7z M820,1081.4h-7v-7h7V1081.4z M820,1074.2h-7v-7h7V1074.2z
	 M820,1066.9h-7v-7h7V1066.9z M820,1059.6h-7v-7h7V1059.6z M820,1052.4h-7v-7h7V1052.4z M820,1045.1h-7v-7h7V1045.1z M820,1037.9h-7
	v-7h7V1037.9z M820,1030.6h-7v-7h7V1030.6z M820,1023.3h-7v-7h7V1023.3z M820,1016.1h-7v-7h7V1016.1z M820,1008.8h-7v-7h7V1008.8z
	 M820,1001.6h-7v-7h7V1001.6z M820,994.3h-7v-7h7V994.3z M820,987h-7v-7h7V987z M820,979.8h-7v-7h7V979.8z M812.7,1241.1h-7v-7h7
	V1241.1z M812.7,1095.9h-7v-7h7V1095.9z M805.5,1248.4h-7v-7h7V1248.4z M805.5,1103.2h-7v-7h7V1103.2z M798.2,1248.4h-7v-7h7V1248.4
	z M798.2,1241.1h-7v-7h7V1241.1z M798.2,1233.9h-7v-7h7V1233.9z M798.2,1226.6h-7v-7h7V1226.6z M798.2,1219.4h-7v-7h7V1219.4z
	 M798.2,1212.1h-7v-7h7V1212.1z M798.2,1204.8h-7v-7h7V1204.8z M798.2,1197.6h-7v-7h7V1197.6z M798.2,1190.3h-7v-7h7V1190.3z
	 M798.2,1183.1h-7v-7h7V1183.1z M798.2,1175.8h-7v-7h7V1175.8z M798.2,1168.5h-7v-7h7V1168.5z M798.2,1161.3h-7v-7h7V1161.3z
	 M798.2,1154h-7v-7h7V1154z M798.2,1146.8h-7v-7h7V1146.8z M798.2,1139.5h-7v-7h7V1139.5z M798.2,1132.2h-7v-7h7V1132.2z
	 M798.2,1125h-7v-7h7V1125z M798.2,1117.7h-7v-7h7V1117.7z M798.2,1110.5h-7v-7h7V1110.5z M798.2,1103.2h-7v-7h7V1103.2z
	 M798.2,1095.9h-7v-7h7V1095.9z M798.2,1088.7h-7v-7h7V1088.7z M798.2,1081.4h-7v-7h7V1081.4z M798.2,1074.2h-7v-7h7V1074.2z
	 M798.2,1066.9h-7v-7h7V1066.9z M798.2,1059.6h-7v-7h7V1059.6z M798.2,1052.4h-7v-7h7V1052.4z M798.2,1045.1h-7v-7h7V1045.1z
	 M798.2,1037.9h-7v-7h7V1037.9z M798.2,1030.6h-7v-7h7V1030.6z M798.2,1023.3h-7v-7h7V1023.3z M798.2,1016.1h-7v-7h7V1016.1z
	 M798.2,1008.8h-7v-7h7V1008.8z M798.2,1001.6h-7v-7h7V1001.6z M798.2,994.3h-7v-7h7V994.3z M798.2,987h-7v-7h7V987z M798.2,979.8
	h-7v-7h7V979.8z M856.2,950.7h-7v-7h7V950.7z M856.2,943.5h-7v-7h7V943.5z M856.2,892.6h-7v-7h7V892.6z M856.2,812.8h-7v-7h7V812.8z
	 M856.2,776.5h-7v-7h7V776.5z M856.2,747.4h-7v-7h7V747.4z M849,958h-7v-7h7V958z M849,936.2h-7v-7h7V936.2z M849,899.9h-7v-7h7
	V899.9z M849,885.4h-7v-7h7V885.4z M849,870.9h-7v-7h7V870.9z M849,863.6h-7v-7h7V863.6z M849,805.5h-7v-7h7V805.5z M849,791h-7v-7
	h7V791z M849,740.2h-7v-7h7V740.2z M841.8,965.2h-7v-7h7V965.2z M841.8,943.5h-7v-7h7V943.5z M841.8,928.9h-7v-7h7V928.9z
	 M841.8,907.2h-7v-7h7V907.2z M841.8,892.6h-7v-7h7V892.6z M841.8,878.1h-7v-7h7V878.1z M841.8,856.3h-7v-7h7V856.3z M841.8,798.3
	h-7v-7h7V798.3z M841.8,783.7h-7v-7h7V783.7z M841.8,754.7h-7v-7h7V754.7z M841.8,732.9h-7v-7h7V732.9z M834.5,965.2h-7v-7h7V965.2z
	 M834.5,950.7h-7v-7h7V950.7z M834.5,936.2h-7v-7h7V936.2z M834.5,921.7h-7v-7h7V921.7z M834.5,899.9h-7v-7h7V899.9z M834.5,885.4
	h-7v-7h7V885.4z M834.5,849.1h-7v-7h7V849.1z M834.5,841.8h-7v-7h7V841.8z M834.5,805.5h-7v-7h7V805.5z M834.5,791h-7v-7h7V791z
	 M834.5,776.5h-7v-7h7V776.5z M834.5,762h-7v-7h7V762z M834.5,747.4h-7v-7h7V747.4z M834.5,725.7h-7v-7h7V725.7z M834.5,718.4h-7v-7
	h7V718.4z M827.2,958h-7v-7h7V958z M827.2,928.9h-7v-7h7V928.9z M827.2,907.2h-7v-7h7V907.2z M827.2,878.1h-7v-7h7V878.1z
	 M827.2,834.6h-7v-7h7V834.6z M827.2,827.3h-7v-7h7V827.3z M827.2,812.8h-7v-7h7V812.8z M827.2,783.7h-7v-7h7V783.7z M827.2,769.2
	h-7v-7h7V769.2z M827.2,754.7h-7v-7h7V754.7z M827.2,711.1h-7v-7h7V711.1z M820,972.5h-7v-7h7V972.5z M820,965.2h-7v-7h7V965.2z
	 M820,958h-7v-7h7V958z M820,950.7h-7v-7h7V950.7z M820,943.5h-7v-7h7V943.5z M820,936.2h-7v-7h7V936.2z M820,928.9h-7v-7h7V928.9z
	 M820,921.7h-7v-7h7V921.7z M820,914.4h-7v-7h7V914.4z M820,907.2h-7v-7h7V907.2z M820,899.9h-7v-7h7V899.9z M820,892.6h-7v-7h7
	V892.6z M820,885.4h-7v-7h7V885.4z M820,878.1h-7v-7h7V878.1z M820,870.9h-7v-7h7V870.9z M820,863.6h-7v-7h7V863.6z M820,856.3h-7
	v-7h7V856.3z M820,849.1h-7v-7h7V849.1z M820,841.8h-7v-7h7V841.8z M820,834.6h-7v-7h7V834.6z M820,827.3h-7v-7h7V827.3z M820,820
	h-7v-7h7V820z M820,812.8h-7v-7h7V812.8z M820,805.5h-7v-7h7V805.5z M820,798.3h-7v-7h7V798.3z M820,791h-7v-7h7V791z M820,783.7h-7
	v-7h7V783.7z M820,776.5h-7v-7h7V776.5z M820,769.2h-7v-7h7V769.2z M820,762h-7v-7h7V762z M820,754.7h-7v-7h7V754.7z M820,747.4h-7
	v-7h7V747.4z M820,740.2h-7v-7h7V740.2z M820,732.9h-7v-7h7V732.9z M820,725.7h-7v-7h7V725.7z M820,718.4h-7v-7h7V718.4z M820,711.1
	h-7v-7h7V711.1z M820,703.9h-7v-7h7V703.9z M812.7,965.2h-7v-7h7V965.2z M812.7,820h-7v-7h7V820z M805.5,972.5h-7v-7h7V972.5z
	 M805.5,827.3h-7v-7h7V827.3z M798.2,972.5h-7v-7h7V972.5z M798.2,965.2h-7v-7h7V965.2z M798.2,958h-7v-7h7V958z M798.2,950.7h-7v-7
	h7V950.7z M798.2,943.5h-7v-7h7V943.5z M798.2,936.2h-7v-7h7V936.2z M798.2,928.9h-7v-7h7V928.9z M798.2,921.7h-7v-7h7V921.7z
	 M798.2,914.4h-7v-7h7V914.4z M798.2,907.2h-7v-7h7V907.2z M798.2,899.9h-7v-7h7V899.9z M798.2,892.6h-7v-7h7V892.6z M798.2,885.4
	h-7v-7h7V885.4z M798.2,878.1h-7v-7h7V878.1z M798.2,870.9h-7v-7h7V870.9z M798.2,863.6h-7v-7h7V863.6z M798.2,856.3h-7v-7h7V856.3z
	 M798.2,849.1h-7v-7h7V849.1z M798.2,841.8h-7v-7h7V841.8z M798.2,834.6h-7v-7h7V834.6z M798.2,827.3h-7v-7h7V827.3z M798.2,820h-7
	v-7h7V820z M798.2,812.8h-7v-7h7V812.8z M798.2,805.5h-7v-7h7V805.5z M798.2,798.3h-7v-7h7V798.3z M798.2,791h-7v-7h7V791z
	 M798.2,783.7h-7v-7h7V783.7z M798.2,776.5h-7v-7h7V776.5z M798.2,769.2h-7v-7h7V769.2z M798.2,762h-7v-7h7V762z M798.2,754.7h-7v-7
	h7V754.7z M798.2,747.4h-7v-7h7V747.4z M798.2,740.2h-7v-7h7V740.2z M798.2,732.9h-7v-7h7V732.9z M798.2,725.7h-7v-7h7V725.7z
	 M798.2,718.4h-7v-7h7V718.4z M798.2,711.1h-7v-7h7V711.1z M798.2,703.9h-7v-7h7V703.9z M856.2,674.8h-7v-7h7V674.8z M856.2,667.6
	h-7v-7h7V667.6z M856.2,616.7h-7v-7h7V616.7z M856.2,536.9h-7v-7h7V536.9z M856.2,500.6h-7v-7h7V500.6z M856.2,471.5h-7v-7h7V471.5z
	 M849,682.1h-7v-7h7V682.1z M849,660.3h-7v-7h7V660.3z M849,624h-7v-7h7V624z M849,609.5h-7v-7h7V609.5z M849,595h-7v-7h7V595z
	 M849,587.7h-7v-7h7V587.7z M849,529.6h-7v-7h7V529.6z M849,515.1h-7v-7h7V515.1z M849,464.3h-7v-7h7V464.3z M841.8,689.3h-7v-7h7
	V689.3z M841.8,667.6h-7v-7h7V667.6z M841.8,653h-7v-7h7V653z M841.8,631.3h-7v-7h7V631.3z M841.8,616.7h-7v-7h7V616.7z
	 M841.8,602.2h-7v-7h7V602.2z M841.8,580.4h-7v-7h7V580.4z M841.8,522.4h-7v-7h7V522.4z M841.8,507.8h-7v-7h7V507.8z M841.8,478.8
	h-7v-7h7V478.8z M841.8,457h-7v-7h7V457z M834.5,689.3h-7v-7h7V689.3z M834.5,674.8h-7v-7h7V674.8z M834.5,660.3h-7v-7h7V660.3z
	 M834.5,645.8h-7v-7h7V645.8z M834.5,624h-7v-7h7V624z M834.5,609.5h-7v-7h7V609.5z M834.5,573.2h-7v-7h7V573.2z M834.5,565.9h-7v-7
	h7V565.9z M834.5,529.6h-7v-7h7V529.6z M834.5,515.1h-7v-7h7V515.1z M834.5,500.6h-7v-7h7V500.6z M834.5,486.1h-7v-7h7V486.1z
	 M834.5,471.5h-7v-7h7V471.5z M834.5,449.8h-7v-7h7V449.8z M834.5,442.5h-7v-7h7V442.5z M827.2,682.1h-7v-7h7V682.1z M827.2,653h-7
	v-7h7V653z M827.2,631.3h-7v-7h7V631.3z M827.2,602.2h-7v-7h7V602.2z M827.2,558.7h-7v-7h7V558.7z M827.2,551.4h-7v-7h7V551.4z
	 M827.2,536.9h-7v-7h7V536.9z M827.2,507.8h-7v-7h7V507.8z M827.2,493.3h-7v-7h7V493.3z M827.2,478.8h-7v-7h7V478.8z M827.2,435.2
	h-7v-7h7V435.2z M820,696.6h-7v-7h7V696.6z M820,689.3h-7v-7h7V689.3z M820,682.1h-7v-7h7V682.1z M820,674.8h-7v-7h7V674.8z
	 M820,667.6h-7v-7h7V667.6z M820,660.3h-7v-7h7V660.3z M820,653h-7v-7h7V653z M820,645.8h-7v-7h7V645.8z M820,638.5h-7v-7h7V638.5z
	 M820,631.3h-7v-7h7V631.3z M820,624h-7v-7h7V624z M820,616.7h-7v-7h7V616.7z M820,609.5h-7v-7h7V609.5z M820,602.2h-7v-7h7V602.2z
	 M820,595h-7v-7h7V595z M820,587.7h-7v-7h7V587.7z M820,580.4h-7v-7h7V580.4z M820,573.2h-7v-7h7V573.2z M820,565.9h-7v-7h7V565.9z
	 M820,558.7h-7v-7h7V558.7z M820,551.4h-7v-7h7V551.4z M820,544.1h-7v-7h7V544.1z M820,536.9h-7v-7h7V536.9z M820,529.6h-7v-7h7
	V529.6z M820,522.4h-7v-7h7V522.4z M820,515.1h-7v-7h7V515.1z M820,507.8h-7v-7h7V507.8z M820,500.6h-7v-7h7V500.6z M820,493.3h-7
	v-7h7V493.3z M820,486.1h-7v-7h7V486.1z M820,478.8h-7v-7h7V478.8z M820,471.5h-7v-7h7V471.5z M820,464.3h-7v-7h7V464.3z M820,457
	h-7v-7h7V457z M820,449.8h-7v-7h7V449.8z M820,442.5h-7v-7h7V442.5z M820,435.2h-7v-7h7V435.2z M820,428h-7v-7h7V428z M812.7,689.3
	h-7v-7h7V689.3z M812.7,544.1h-7v-7h7V544.1z M805.5,696.6h-7v-7h7V696.6z M805.5,551.4h-7v-7h7V551.4z M798.2,696.6h-7v-7h7V696.6z
	 M798.2,689.3h-7v-7h7V689.3z M798.2,682.1h-7v-7h7V682.1z M798.2,674.8h-7v-7h7V674.8z M798.2,667.6h-7v-7h7V667.6z M798.2,660.3
	h-7v-7h7V660.3z M798.2,653h-7v-7h7V653z M798.2,645.8h-7v-7h7V645.8z M798.2,638.5h-7v-7h7V638.5z M798.2,631.3h-7v-7h7V631.3z
	 M798.2,624h-7v-7h7V624z M798.2,616.7h-7v-7h7V616.7z M798.2,609.5h-7v-7h7V609.5z M798.2,602.2h-7v-7h7V602.2z M798.2,595h-7v-7h7
	V595z M798.2,587.7h-7v-7h7V587.7z M798.2,580.4h-7v-7h7V580.4z M798.2,573.2h-7v-7h7V573.2z M798.2,565.9h-7v-7h7V565.9z
	 M798.2,558.7h-7v-7h7V558.7z M798.2,551.4h-7v-7h7V551.4z M798.2,544.1h-7v-7h7V544.1z M798.2,536.9h-7v-7h7V536.9z M798.2,529.6
	h-7v-7h7V529.6z M798.2,522.4h-7v-7h7V522.4z M798.2,515.1h-7v-7h7V515.1z M798.2,507.8h-7v-7h7V507.8z M798.2,500.6h-7v-7h7V500.6z
	 M798.2,493.3h-7v-7h7V493.3z M798.2,486.1h-7v-7h7V486.1z M798.2,478.8h-7v-7h7V478.8z M798.2,471.5h-7v-7h7V471.5z M798.2,464.3
	h-7v-7h7V464.3z M798.2,457h-7v-7h7V457z M798.2,449.8h-7v-7h7V449.8z M798.2,442.5h-7v-7h7V442.5z M798.2,435.2h-7v-7h7V435.2z
	 M798.2,428h-7v-7h7V428z M856.2,398.9h-7v-7h7V398.9z M856.2,391.7h-7v-7h7V391.7z M856.2,340.8h-7v-7h7V340.8z M856.2,261h-7v-7h7
	V261z M856.2,224.7h-7v-7h7V224.7z M856.2,195.6h-7v-7h7V195.6z M849,406.2h-7v-7h7V406.2z M849,384.4h-7v-7h7V384.4z M849,348.1h-7
	v-7h7V348.1z M849,333.6h-7v-7h7V333.6z M849,319.1h-7v-7h7V319.1z M849,311.8h-7v-7h7V311.8z M849,253.7h-7v-7h7V253.7z M849,239.2
	h-7v-7h7V239.2z M849,188.4h-7v-7h7V188.4z M841.8,413.4h-7v-7h7V413.4z M841.8,391.7h-7v-7h7V391.7z M841.8,377.1h-7v-7h7V377.1z
	 M841.8,355.4h-7v-7h7V355.4z M841.8,340.8h-7v-7h7V340.8z M841.8,326.3h-7v-7h7V326.3z M841.8,304.5h-7v-7h7V304.5z M841.8,246.5
	h-7v-7h7V246.5z M841.8,231.9h-7v-7h7V231.9z M841.8,202.9h-7v-7h7V202.9z M841.8,181.1h-7v-7h7V181.1z M834.5,413.4h-7v-7h7V413.4z
	 M834.5,398.9h-7v-7h7V398.9z M834.5,384.4h-7v-7h7V384.4z M834.5,369.9h-7v-7h7V369.9z M834.5,348.1h-7v-7h7V348.1z M834.5,333.6
	h-7v-7h7V333.6z M834.5,297.3h-7v-7h7V297.3z M834.5,290h-7v-7h7V290z M834.5,253.7h-7v-7h7V253.7z M834.5,239.2h-7v-7h7V239.2z
	 M834.5,224.7h-7v-7h7V224.7z M834.5,210.2h-7v-7h7V210.2z M834.5,195.6h-7v-7h7V195.6z M834.5,173.9h-7v-7h7V173.9z M834.5,166.6
	h-7v-7h7V166.6z M827.2,406.2h-7v-7h7V406.2z M827.2,377.1h-7v-7h7V377.1z M827.2,355.4h-7v-7h7V355.4z M827.2,326.3h-7v-7h7V326.3z
	 M827.2,282.8h-7v-7h7V282.8z M827.2,275.5h-7v-7h7V275.5z M827.2,261h-7v-7h7V261z M827.2,231.9h-7v-7h7V231.9z M827.2,217.4h-7v-7
	h7V217.4z M827.2,202.9h-7v-7h7V202.9z M827.2,159.3h-7v-7h7V159.3z M820,420.7h-7v-7h7V420.7z M820,413.4h-7v-7h7V413.4z
	 M820,406.2h-7v-7h7V406.2z M820,398.9h-7v-7h7V398.9z M820,391.7h-7v-7h7V391.7z M820,384.4h-7v-7h7V384.4z M820,377.1h-7v-7h7
	V377.1z M820,369.9h-7v-7h7V369.9z M820,362.6h-7v-7h7V362.6z M820,355.4h-7v-7h7V355.4z M820,348.1h-7v-7h7V348.1z M820,340.8h-7
	v-7h7V340.8z M820,333.6h-7v-7h7V333.6z M820,326.3h-7v-7h7V326.3z M820,319.1h-7v-7h7V319.1z M820,311.8h-7v-7h7V311.8z M820,304.5
	h-7v-7h7V304.5z M820,297.3h-7v-7h7V297.3z M820,290h-7v-7h7V290z M820,282.8h-7v-7h7V282.8z M820,275.5h-7v-7h7V275.5z M820,268.2
	h-7v-7h7V268.2z M820,261h-7v-7h7V261z M820,253.7h-7v-7h7V253.7z M820,246.5h-7v-7h7V246.5z M820,239.2h-7v-7h7V239.2z M820,231.9
	h-7v-7h7V231.9z M820,224.7h-7v-7h7V224.7z M820,217.4h-7v-7h7V217.4z M820,210.2h-7v-7h7V210.2z M820,202.9h-7v-7h7V202.9z
	 M820,195.6h-7v-7h7V195.6z M820,188.4h-7v-7h7V188.4z M820,181.1h-7v-7h7V181.1z M820,173.9h-7v-7h7V173.9z M820,166.6h-7v-7h7
	V166.6z M820,159.3h-7v-7h7V159.3z M820,152.1h-7v-7h7V152.1z M812.7,413.4h-7v-7h7V413.4z M812.7,268.2h-7v-7h7V268.2z
	 M805.5,420.7h-7v-7h7V420.7z M805.5,275.5h-7v-7h7V275.5z M798.2,420.7h-7v-7h7V420.7z M798.2,413.4h-7v-7h7V413.4z M798.2,406.2
	h-7v-7h7V406.2z M798.2,398.9h-7v-7h7V398.9z M798.2,391.7h-7v-7h7V391.7z M798.2,384.4h-7v-7h7V384.4z M798.2,377.1h-7v-7h7V377.1z
	 M798.2,369.9h-7v-7h7V369.9z M798.2,362.6h-7v-7h7V362.6z M798.2,355.4h-7v-7h7V355.4z M798.2,348.1h-7v-7h7V348.1z M798.2,340.8
	h-7v-7h7V340.8z M798.2,333.6h-7v-7h7V333.6z M798.2,326.3h-7v-7h7V326.3z M798.2,319.1h-7v-7h7V319.1z M798.2,311.8h-7v-7h7V311.8z
	 M798.2,304.5h-7v-7h7V304.5z M798.2,297.3h-7v-7h7V297.3z M798.2,290h-7v-7h7V290z M798.2,282.8h-7v-7h7V282.8z M798.2,275.5h-7v-7
	h7V275.5z M798.2,268.2h-7v-7h7V268.2z M798.2,261h-7v-7h7V261z M798.2,253.7h-7v-7h7V253.7z M798.2,246.5h-7v-7h7V246.5z
	 M798.2,239.2h-7v-7h7V239.2z M798.2,231.9h-7v-7h7V231.9z M798.2,224.7h-7v-7h7V224.7z M798.2,217.4h-7v-7h7V217.4z M798.2,210.2
	h-7v-7h7V210.2z M798.2,202.9h-7v-7h7V202.9z M798.2,195.6h-7v-7h7V195.6z M798.2,188.4h-7v-7h7V188.4z M798.2,181.1h-7v-7h7V181.1z
	 M798.2,173.9h-7v-7h7V173.9z M798.2,166.6h-7v-7h7V166.6z M798.2,159.3h-7v-7h7V159.3z M798.2,152.1h-7v-7h7V152.1z M856.2,123.1
	h-7v-7h7V123.1z M856.2,115.9h-7v-7h7V115.9z M856.2,65h-7v-7h7V65z M849,130.4h-7v-7h7V130.4z M849,108.6h-7v-7h7V108.6z M849,72.3
	h-7v-7h7V72.3z M849,57.8h-7v-7h7V57.8z M849,43.3h-7v-7h7V43.3z M849,36h-7v-7h7V36z M841.8,137.6h-7v-7h7V137.6z M841.8,115.9h-7
	v-7h7V115.9z M841.8,101.3h-7v-7h7V101.3z M841.8,79.6h-7v-7h7V79.6z M841.8,65h-7v-7h7V65z M841.8,50.5h-7v-7h7V50.5z M841.8,28.7
	h-7v-7h7V28.7z M834.5,137.6h-7v-7h7V137.6z M834.5,123.1h-7v-7h7V123.1z M834.5,108.6h-7v-7h7V108.6z M834.5,94.1h-7v-7h7V94.1z
	 M834.5,72.3h-7v-7h7V72.3z M834.5,57.8h-7v-7h7V57.8z M834.5,21.5h-7v-7h7V21.5z M834.5,14.2h-7v-7h7V14.2z M827.2,130.4h-7v-7h7
	V130.4z M827.2,101.3h-7v-7h7V101.3z M827.2,79.6h-7v-7h7V79.6z M827.2,50.5h-7v-7h7V50.5z M827.2,7h-7V0l7,0V7z M820,144.9h-7v-7h7
	V144.9z M820,137.6h-7v-7h7V137.6z M820,130.4h-7v-7h7V130.4z M820,123.1h-7v-7h7V123.1z M820,115.9h-7v-7h7V115.9z M820,108.6h-7
	v-7h7V108.6z M820,101.3h-7v-7h7V101.3z M820,94.1h-7v-7h7V94.1z M820,86.8h-7v-7h7V86.8z M820,79.6h-7v-7h7V79.6z M820,72.3h-7v-7
	h7V72.3z M820,65h-7v-7h7V65z M820,57.8h-7v-7h7V57.8z M820,50.5h-7v-7h7V50.5z M820,43.3h-7v-7h7V43.3z M820,36h-7v-7h7V36z
	 M820,28.7h-7v-7h7V28.7z M820,21.5h-7v-7h7V21.5z M820,14.2h-7v-7h7V14.2z M820,7h-7V0l7,0V7z M812.7,137.6h-7v-7h7V137.6z
	 M805.5,144.9h-7v-7h7V144.9z M798.2,144.9h-7v-7h7V144.9z M798.2,137.6h-7v-7h7V137.6z M798.2,130.4h-7v-7h7V130.4z M798.2,123.1
	h-7v-7h7V123.1z M798.2,115.9h-7v-7h7V115.9z M798.2,108.6h-7v-7h7V108.6z M798.2,101.3h-7v-7h7V101.3z M798.2,94.1h-7v-7h7V94.1z
	 M798.2,86.8h-7v-7h7V86.8z M798.2,79.6h-7v-7h7V79.6z M798.2,72.3h-7v-7h7V72.3z M798.2,65h-7v-7h7V65z M798.2,57.8h-7v-7h7V57.8z
	 M798.2,50.5h-7v-7h7V50.5z M798.2,43.3h-7v-7h7V43.3z M798.2,36h-7v-7h7V36z M798.2,28.7h-7v-7h7V28.7z M798.2,21.5h-7v-7h7V21.5z
	 M798.2,14.2h-7v-7h7V14.2z M798.2,7h-7V0l7,0V7z M442.5,1524.2h-7v-7h7V1524.2z M442.5,1516.9h-7v-7h7V1516.9z M442.5,1509.7h-7v-7
	h7V1509.7z M442.5,1502.4h-7v-7h7V1502.4z M442.5,1495.2h-7v-7h7V1495.2z M442.5,1487.9h-7v-7h7V1487.9z M442.5,1480.6h-7v-7h7
	V1480.6z M442.5,1473.4h-7v-7h7V1473.4z M442.5,1466.1h-7v-7h7V1466.1z M442.5,1458.9h-7v-7h7V1458.9z M442.5,1451.6h-7v-7h7V1451.6
	z M442.5,1444.3h-7v-7h7V1444.3z M442.5,1437.1h-7v-7h7V1437.1z M442.5,1429.8h-7v-7h7V1429.8z M442.5,1422.6h-7v-7h7V1422.6z
	 M442.5,1415.3h-7v-7h7V1415.3z M442.5,1408h-7v-7h7V1408z M442.5,1400.8h-7v-7h7V1400.8z M442.5,1393.5h-7v-7h7V1393.5z
	 M442.5,1386.3h-7v-7h7V1386.3z M442.5,1379h-7v-7h7V1379z M442.5,1371.7h-7v-7h7V1371.7z M442.5,1364.5h-7v-7h7V1364.5z
	 M442.5,1357.2h-7v-7h7V1357.2z M442.5,1350h-7v-7h7V1350z M442.5,1342.7h-7v-7h7V1342.7z M442.5,1335.4h-7v-7h7V1335.4z
	 M442.5,1328.2h-7v-7h7V1328.2z M442.5,1320.9h-7v-7h7V1320.9z M442.5,1313.7h-7v-7h7V1313.7z M442.5,1306.4h-7v-7h7V1306.4z
	 M442.5,1299.1h-7v-7h7V1299.1z M442.5,1291.9h-7v-7h7V1291.9z M442.5,1284.6h-7v-7h7V1284.6z M442.5,1277.4h-7v-7h7V1277.4z
	 M442.5,1270.1h-7v-7h7V1270.1z M442.5,1262.8h-7v-7h7V1262.8z M442.5,1255.6h-7v-7h7V1255.6z M435.2,1516.9h-7v-7h7V1516.9z
	 M435.2,1371.7h-7v-7h7V1371.7z M428,1524.2h-7v-7h7V1524.2z M428,1379h-7v-7h7V1379z M420.7,1524.2h-7v-7h7
	C420.7,1517.2,420.7,1524.2,420.7,1524.2z M420.7,1516.9h-7v-7h7C420.7,1509.9,420.7,1516.9,420.7,1516.9z M420.7,1509.7h-7v-7h7
	C420.7,1502.7,420.7,1509.7,420.7,1509.7z M420.7,1502.4h-7v-7h7C420.7,1495.4,420.7,1502.4,420.7,1502.4z M420.7,1495.2h-7v-7h7
	C420.7,1488.2,420.7,1495.2,420.7,1495.2z M420.7,1487.9h-7v-7h7C420.7,1480.9,420.7,1487.9,420.7,1487.9z M420.7,1480.6h-7v-7h7
	C420.7,1473.6,420.7,1480.6,420.7,1480.6z M420.7,1473.4h-7v-7h7C420.7,1466.4,420.7,1473.4,420.7,1473.4z M420.7,1466.1h-7v-7h7
	C420.7,1459.1,420.7,1466.1,420.7,1466.1z M420.7,1458.9h-7v-7h7C420.7,1451.9,420.7,1458.9,420.7,1458.9z M420.7,1451.6h-7v-7h7
	C420.7,1444.6,420.7,1451.6,420.7,1451.6z M420.7,1444.3h-7v-7h7C420.7,1437.3,420.7,1444.3,420.7,1444.3z M420.7,1437.1h-7v-7h7
	C420.7,1430.1,420.7,1437.1,420.7,1437.1z M420.7,1429.8h-7v-7h7C420.7,1422.8,420.7,1429.8,420.7,1429.8z M420.7,1422.6h-7v-7h7
	C420.7,1415.6,420.7,1422.6,420.7,1422.6z M420.7,1415.3h-7v-7h7C420.7,1408.3,420.7,1415.3,420.7,1415.3z M420.7,1408h-7v-7h7
	C420.7,1401,420.7,1408,420.7,1408z M420.7,1400.8h-7v-7h7C420.7,1393.8,420.7,1400.8,420.7,1400.8z M420.7,1393.5h-7v-7h7
	C420.7,1386.5,420.7,1393.5,420.7,1393.5z M420.7,1386.3h-7v-7h7C420.7,1379.3,420.7,1386.3,420.7,1386.3z M420.7,1379h-7v-7h7
	C420.7,1372,420.7,1379,420.7,1379z M420.7,1371.7h-7v-7h7C420.7,1364.7,420.7,1371.7,420.7,1371.7z M420.7,1364.5h-7v-7h7
	C420.7,1357.5,420.7,1364.5,420.7,1364.5z M420.7,1357.2h-7v-7h7C420.7,1350.2,420.7,1357.2,420.7,1357.2z M420.7,1350h-7v-7h7
	C420.7,1343,420.7,1350,420.7,1350z M420.7,1342.7h-7v-7h7C420.7,1335.7,420.7,1342.7,420.7,1342.7z M420.7,1335.4h-7v-7h7
	C420.7,1328.4,420.7,1335.4,420.7,1335.4z M420.7,1328.2h-7v-7h7C420.7,1321.2,420.7,1328.2,420.7,1328.2z M420.7,1320.9h-7v-7h7
	C420.7,1313.9,420.7,1320.9,420.7,1320.9z M420.7,1313.7h-7v-7h7C420.7,1306.7,420.7,1313.7,420.7,1313.7z M420.7,1306.4h-7v-7h7
	C420.7,1299.4,420.7,1306.4,420.7,1306.4z M420.7,1299.1h-7v-7h7C420.7,1292.1,420.7,1299.1,420.7,1299.1z M420.7,1291.9h-7v-7h7
	C420.7,1284.9,420.7,1291.9,420.7,1291.9z M420.7,1284.6h-7v-7h7C420.7,1277.6,420.7,1284.6,420.7,1284.6z M420.7,1277.4h-7v-7h7
	C420.7,1270.4,420.7,1277.4,420.7,1277.4z M420.7,1270.1h-7v-7h7C420.7,1263.1,420.7,1270.1,420.7,1270.1z M420.7,1262.8h-7v-7h7
	C420.7,1255.8,420.7,1262.8,420.7,1262.8z M420.7,1255.6h-7v-7h7C420.7,1248.6,420.7,1255.6,420.7,1255.6z M442.6,1248.4h-7v-7h7
	V1248.4z M442.6,1241.1h-7v-7h7V1241.1z M442.6,1233.9h-7v-7h7V1233.9z M442.6,1226.6h-7v-7h7V1226.6z M442.6,1219.4h-7v-7h7V1219.4
	z M442.6,1212.1h-7v-7h7V1212.1z M442.6,1204.8h-7v-7h7V1204.8z M442.6,1197.6h-7v-7h7V1197.6z M442.6,1190.3h-7v-7h7V1190.3z
	 M442.6,1183.1h-7v-7h7V1183.1z M442.6,1175.8h-7v-7h7V1175.8z M442.6,1168.5h-7v-7h7V1168.5z M442.6,1161.3h-7v-7h7V1161.3z
	 M442.6,1154h-7v-7h7V1154z M442.6,1146.8h-7v-7h7V1146.8z M442.6,1139.5h-7v-7h7V1139.5z M442.6,1132.2h-7v-7h7V1132.2z
	 M442.6,1125h-7v-7h7V1125z M442.6,1117.7h-7v-7h7V1117.7z M442.6,1110.5h-7v-7h7V1110.5z M442.6,1103.2h-7v-7h7V1103.2z
	 M442.6,1095.9h-7v-7h7V1095.9z M442.6,1088.7h-7v-7h7V1088.7z M442.6,1081.4h-7v-7h7V1081.4z M442.6,1074.2h-7v-7h7V1074.2z
	 M442.6,1066.9h-7v-7h7V1066.9z M442.6,1059.6h-7v-7h7V1059.6z M442.6,1052.4h-7v-7h7V1052.4z M442.6,1045.1h-7v-7h7V1045.1z
	 M442.6,1037.9h-7v-7h7V1037.9z M442.6,1030.6h-7v-7h7V1030.6z M442.6,1023.3h-7v-7h7V1023.3z M442.6,1016.1h-7v-7h7V1016.1z
	 M442.6,1008.8h-7v-7h7V1008.8z M442.6,1001.6h-7v-7h7V1001.6z M442.6,994.3h-7v-7h7V994.3z M442.6,987h-7v-7h7V987z M442.6,979.8
	h-7v-7h7V979.8z M435.3,1241.1h-7v-7h7V1241.1z M435.3,1095.9h-7v-7h7V1095.9z M428.1,1248.4h-7v-7h7V1248.4z M428.1,1103.2h-7v-7h7
	V1103.2z M420.8,1248.4h-7v-7h7V1248.4z M420.8,1241.1h-7v-7h7V1241.1z M420.8,1233.9h-7v-7h7V1233.9z M420.8,1226.6h-7v-7h7V1226.6
	z M420.8,1219.4h-7v-7h7V1219.4z M420.8,1212.1h-7v-7h7V1212.1z M420.8,1204.8h-7v-7h7V1204.8z M420.8,1197.6h-7v-7h7V1197.6z
	 M420.8,1190.3h-7v-7h7V1190.3z M420.8,1183.1h-7v-7h7V1183.1z M420.8,1175.8h-7v-7h7V1175.8z M420.8,1168.5h-7v-7h7V1168.5z
	 M420.8,1161.3h-7v-7h7V1161.3z M420.8,1154h-7v-7h7V1154z M420.8,1146.8h-7v-7h7V1146.8z M420.8,1139.5h-7v-7h7V1139.5z
	 M420.8,1132.2h-7v-7h7V1132.2z M420.8,1125h-7v-7h7V1125z M420.8,1117.7h-7v-7h7V1117.7z M420.8,1110.5h-7v-7h7V1110.5z
	 M420.8,1103.2h-7v-7h7V1103.2z M420.8,1095.9h-7v-7h7V1095.9z M420.8,1088.7h-7v-7h7V1088.7z M420.8,1081.4h-7v-7h7V1081.4z
	 M420.8,1074.2h-7v-7h7V1074.2z M420.8,1066.9h-7v-7h7V1066.9z M420.8,1059.6h-7v-7h7V1059.6z M420.8,1052.4h-7v-7h7V1052.4z
	 M420.8,1045.1h-7v-7h7V1045.1z M420.8,1037.9h-7v-7h7V1037.9z M420.8,1030.6h-7v-7h7V1030.6z M420.8,1023.3h-7v-7h7V1023.3z
	 M420.8,1016.1h-7v-7h7V1016.1z M420.8,1008.8h-7v-7h7V1008.8z M420.8,1001.6h-7v-7h7V1001.6z M420.8,994.3h-7v-7h7V994.3z
	 M420.8,987h-7v-7h7V987z M420.8,979.8h-7v-7h7V979.8z M442.6,972.5h-7v-7h7V972.5z M442.6,965.2h-7v-7h7V965.2z M442.6,958h-7v-7h7
	V958z M442.6,950.7h-7v-7h7V950.7z M442.6,943.5h-7v-7h7V943.5z M442.6,936.2h-7v-7h7V936.2z M442.6,928.9h-7v-7h7V928.9z
	 M442.6,921.7h-7v-7h7V921.7z M442.6,914.4h-7v-7h7V914.4z M442.6,907.2h-7v-7h7V907.2z M442.6,899.9h-7v-7h7V899.9z M442.6,892.6
	h-7v-7h7V892.6z M442.6,885.4h-7v-7h7V885.4z M442.6,878.1h-7v-7h7V878.1z M442.6,870.9h-7v-7h7V870.9z M442.6,863.6h-7v-7h7V863.6z
	 M442.6,856.3h-7v-7h7V856.3z M442.6,849.1h-7v-7h7V849.1z M442.6,841.8h-7v-7h7V841.8z M442.6,834.6h-7v-7h7V834.6z M442.6,827.3
	h-7v-7h7V827.3z M442.6,820h-7v-7h7V820z M442.6,812.8h-7v-7h7V812.8z M442.6,805.5h-7v-7h7V805.5z M442.6,798.3h-7v-7h7V798.3z
	 M442.6,791h-7v-7h7V791z M442.6,783.7h-7v-7h7V783.7z M442.6,776.5h-7v-7h7V776.5z M442.6,769.2h-7v-7h7V769.2z M442.6,762h-7v-7h7
	V762z M442.6,754.7h-7v-7h7V754.7z M442.6,747.4h-7v-7h7V747.4z M442.6,740.2h-7v-7h7V740.2z M442.6,732.9h-7v-7h7V732.9z
	 M442.6,725.7h-7v-7h7V725.7z M442.6,718.4h-7v-7h7V718.4z M442.6,711.1h-7v-7h7V711.1z M442.6,703.9h-7v-7h7V703.9z M435.3,965.2
	h-7v-7h7V965.2z M435.3,820h-7v-7h7V820z M428.1,972.5h-7v-7h7V972.5z M428.1,827.3h-7v-7h7V827.3z M420.8,972.5h-7v-7h7V972.5z
	 M420.8,965.2h-7v-7h7V965.2z M420.8,958h-7v-7h7V958z M420.8,950.7h-7v-7h7V950.7z M420.8,943.5h-7v-7h7V943.5z M420.8,936.2h-7v-7
	h7V936.2z M420.8,928.9h-7v-7h7V928.9z M420.8,921.7h-7v-7h7V921.7z M420.8,914.4h-7v-7h7V914.4z M420.8,907.2h-7v-7h7V907.2z
	 M420.8,899.9h-7v-7h7V899.9z M420.8,892.6h-7v-7h7V892.6z M420.8,885.4h-7v-7h7V885.4z M420.8,878.1h-7v-7h7V878.1z M420.8,870.9
	h-7v-7h7V870.9z M420.8,863.6h-7v-7h7V863.6z M420.8,856.3h-7v-7h7V856.3z M420.8,849.1h-7v-7h7V849.1z M420.8,841.8h-7v-7h7V841.8z
	 M420.8,834.6h-7v-7h7V834.6z M420.8,827.3h-7v-7h7V827.3z M420.8,820h-7v-7h7V820z M420.8,812.8h-7v-7h7V812.8z M420.8,805.5h-7v-7
	h7V805.5z M420.8,798.3h-7v-7h7V798.3z M420.8,791h-7v-7h7V791z M420.8,783.7h-7v-7h7V783.7z M420.8,776.5h-7v-7h7V776.5z
	 M420.8,769.2h-7v-7h7V769.2z M420.8,762h-7v-7h7V762z M420.8,754.7h-7v-7h7V754.7z M420.8,747.4h-7v-7h7V747.4z M420.8,740.2h-7v-7
	h7V740.2z M420.8,732.9h-7v-7h7V732.9z M420.8,725.7h-7v-7h7V725.7z M420.8,718.4h-7v-7h7V718.4z M420.8,711.1h-7v-7h7V711.1z
	 M420.8,703.9h-7v-7h7V703.9z M442.6,696.6h-7v-7h7V696.6z M442.6,689.3h-7v-7h7V689.3z M442.6,682.1h-7v-7h7V682.1z M442.6,674.8
	h-7v-7h7V674.8z M442.6,667.6h-7v-7h7V667.6z M442.6,660.3h-7v-7h7V660.3z M442.6,653h-7v-7h7V653z M442.6,645.8h-7v-7h7V645.8z
	 M442.6,638.5h-7v-7h7V638.5z M442.6,631.3h-7v-7h7V631.3z M442.6,624h-7v-7h7V624z M442.6,616.7h-7v-7h7V616.7z M442.6,609.5h-7v-7
	h7V609.5z M442.6,602.2h-7v-7h7V602.2z M442.6,595h-7v-7h7V595z M442.6,587.7h-7v-7h7V587.7z M442.6,580.4h-7v-7h7V580.4z
	 M442.6,573.2h-7v-7h7V573.2z M442.6,565.9h-7v-7h7V565.9z M442.6,558.7h-7v-7h7V558.7z M442.6,551.4h-7v-7h7V551.4z M442.6,544.1
	h-7v-7h7V544.1z M442.6,536.9h-7v-7h7V536.9z M442.6,529.6h-7v-7h7V529.6z M442.6,522.4h-7v-7h7V522.4z M442.6,515.1h-7v-7h7V515.1z
	 M442.6,507.8h-7v-7h7V507.8z M442.6,500.6h-7v-7h7V500.6z M442.6,493.3h-7v-7h7V493.3z M442.6,486.1h-7v-7h7V486.1z M442.6,478.8
	h-7v-7h7V478.8z M442.6,471.5h-7v-7h7V471.5z M442.6,464.3h-7v-7h7V464.3z M442.6,457h-7v-7h7V457z M442.6,449.8h-7v-7h7V449.8z
	 M442.6,442.5h-7v-7h7V442.5z M442.6,435.2h-7v-7h7V435.2z M442.6,428h-7v-7h7V428z M435.3,689.3h-7v-7h7V689.3z M435.3,544.1h-7v-7
	h7V544.1z M428.1,696.6h-7v-7h7V696.6z M428.1,551.4h-7v-7h7V551.4z M420.8,696.6h-7v-7h7V696.6z M420.8,689.3h-7v-7h7V689.3z
	 M420.8,682.1h-7v-7h7V682.1z M420.8,674.8h-7v-7h7V674.8z M420.8,667.6h-7v-7h7V667.6z M420.8,660.3h-7v-7h7V660.3z M420.8,653h-7
	v-7h7V653z M420.8,645.8h-7v-7h7V645.8z M420.8,638.5h-7v-7h7V638.5z M420.8,631.3h-7v-7h7V631.3z M420.8,624h-7v-7h7V624z
	 M420.8,616.7h-7v-7h7V616.7z M420.8,609.5h-7v-7h7V609.5z M420.8,602.2h-7v-7h7V602.2z M420.8,595h-7v-7h7V595z M420.8,587.7h-7v-7
	h7V587.7z M420.8,580.4h-7v-7h7V580.4z M420.8,573.2h-7v-7h7V573.2z M420.8,565.9h-7v-7h7V565.9z M420.8,558.7h-7v-7h7V558.7z
	 M420.8,551.4h-7v-7h7V551.4z M420.8,544.1h-7v-7h7V544.1z M420.8,536.9h-7v-7h7V536.9z M420.8,529.6h-7v-7h7V529.6z M420.8,522.4
	h-7v-7h7V522.4z M420.8,515.1h-7v-7h7V515.1z M420.8,507.8h-7v-7h7V507.8z M420.8,500.6h-7v-7h7V500.6z M420.8,493.3h-7v-7h7V493.3z
	 M420.8,486.1h-7v-7h7V486.1z M420.8,478.8h-7v-7h7V478.8z M420.8,471.5h-7v-7h7V471.5z M420.8,464.3h-7v-7h7V464.3z M420.8,457h-7
	v-7h7V457z M420.8,449.8h-7v-7h7V449.8z M420.8,442.5h-7v-7h7V442.5z M420.8,435.2h-7v-7h7V435.2z M420.8,428h-7v-7h7V428z
	 M442.6,420.7h-7v-7h7V420.7z M442.6,413.4h-7v-7h7V413.4z M442.6,406.2h-7v-7h7V406.2z M442.6,398.9h-7v-7h7V398.9z M442.6,391.7
	h-7v-7h7V391.7z M442.6,384.4h-7v-7h7V384.4z M442.6,377.1h-7v-7h7V377.1z M442.6,369.9h-7v-7h7V369.9z M442.6,362.6h-7v-7h7V362.6z
	 M442.6,355.4h-7v-7h7V355.4z M442.6,348.1h-7v-7h7V348.1z M442.6,340.8h-7v-7h7V340.8z M442.6,333.6h-7v-7h7V333.6z M442.6,326.3
	h-7v-7h7V326.3z M442.6,319.1h-7v-7h7V319.1z M442.6,311.8h-7v-7h7V311.8z M442.6,304.5h-7v-7h7V304.5z M442.6,297.3h-7v-7h7V297.3z
	 M442.6,290h-7v-7h7V290z M442.6,282.8h-7v-7h7V282.8z M442.6,275.5h-7v-7h7V275.5z M442.6,268.2h-7v-7h7V268.2z M442.6,261h-7v-7h7
	V261z M442.6,253.7h-7v-7h7V253.7z M442.6,246.5h-7v-7h7V246.5z M442.6,239.2h-7v-7h7V239.2z M442.6,231.9h-7v-7h7V231.9z
	 M442.6,224.7h-7v-7h7V224.7z M442.6,217.4h-7v-7h7V217.4z M442.6,210.2h-7v-7h7V210.2z M442.6,202.9h-7v-7h7V202.9z M442.6,195.6
	h-7v-7h7V195.6z M442.6,188.4h-7v-7h7V188.4z M442.6,181.1h-7v-7h7V181.1z M442.6,173.9h-7v-7h7V173.9z M442.6,166.6h-7v-7h7V166.6z
	 M442.6,159.3h-7v-7h7V159.3z M442.6,152.1h-7v-7h7V152.1z M435.3,413.4h-7v-7h7V413.4z M435.3,268.2h-7v-7h7V268.2z M428.1,420.7
	h-7v-7h7V420.7z M428.1,275.5h-7v-7h7V275.5z M420.8,420.7h-7v-7h7V420.7z M420.8,413.4h-7v-7h7V413.4z M420.8,406.2h-7v-7h7V406.2z
	 M420.8,398.9h-7v-7h7V398.9z M420.8,391.7h-7v-7h7V391.7z M420.8,384.4h-7v-7h7V384.4z M420.8,377.1h-7v-7h7V377.1z M420.8,369.9
	h-7v-7h7V369.9z M420.8,362.6h-7v-7h7V362.6z M420.8,355.4h-7v-7h7V355.4z M420.8,348.1h-7v-7h7V348.1z M420.8,340.8h-7v-7h7V340.8z
	 M420.8,333.6h-7v-7h7V333.6z M420.8,326.3h-7v-7h7V326.3z M420.8,319.1h-7v-7h7V319.1z M420.8,311.8h-7v-7h7V311.8z M420.8,304.5
	h-7v-7h7V304.5z M420.8,297.3h-7v-7h7V297.3z M420.8,290h-7v-7h7V290z M420.8,282.8h-7v-7h7V282.8z M420.8,275.5h-7v-7h7V275.5z
	 M420.8,268.2h-7v-7h7V268.2z M420.8,261h-7v-7h7V261z M420.8,253.7h-7v-7h7V253.7z M420.8,246.5h-7v-7h7V246.5z M420.8,239.2h-7v-7
	h7V239.2z M420.8,231.9h-7v-7h7V231.9z M420.8,224.7h-7v-7h7V224.7z M420.8,217.4h-7v-7h7V217.4z M420.8,210.2h-7v-7h7V210.2z
	 M420.8,202.9h-7v-7h7V202.9z M420.8,195.6h-7v-7h7V195.6z M420.8,188.4h-7v-7h7V188.4z M420.8,181.1h-7v-7h7V181.1z M420.8,173.9
	h-7v-7h7V173.9z M420.8,166.6h-7v-7h7V166.6z M420.8,159.3h-7v-7h7V159.3z M420.8,152.1h-7v-7h7V152.1z M442.6,144.9h-7v-7h7V144.9z
	 M442.6,137.6h-7v-7h7V137.6z M442.6,130.4h-7v-7h7V130.4z M442.6,123.1h-7v-7h7V123.1z M442.6,115.9h-7v-7h7V115.9z M442.6,108.6
	h-7v-7h7V108.6z M442.6,101.3h-7v-7h7V101.3z M442.6,94.1h-7v-7h7V94.1z M442.6,86.8h-7v-7h7V86.8z M442.6,79.6h-7v-7h7V79.6z
	 M442.6,72.3h-7v-7h7V72.3z M442.6,65h-7v-7h7V65z M442.6,57.8h-7v-7h7V57.8z M442.6,50.5h-7v-7h7V50.5z M442.6,43.3h-7v-7h7V43.3z
	 M442.6,36h-7v-7h7V36z M442.6,28.7h-7v-7h7V28.7z M442.6,21.5h-7v-7h7V21.5z M442.6,14.2h-7v-7h7V14.2z M442.6,7h-7V0l7,0V7z
	 M435.3,137.6h-7v-7h7V137.6z M428.1,144.9h-7v-7h7V144.9z M420.8,144.9h-7v-7h7V144.9z M420.8,137.6h-7v-7h7V137.6z M420.8,130.4
	h-7v-7h7V130.4z M420.8,123.1h-7v-7h7V123.1z M420.8,115.9h-7v-7h7V115.9z M420.8,108.6h-7v-7h7V108.6z M420.8,101.3h-7v-7h7V101.3z
	 M420.8,94.1h-7v-7h7V94.1z M420.8,86.8h-7v-7h7V86.8z M420.8,79.6h-7v-7h7V79.6z M420.8,72.3h-7v-7h7V72.3z M420.8,65h-7v-7h7V65z
	 M420.8,57.8h-7v-7h7V57.8z M420.8,50.5h-7v-7h7V50.5z M420.8,43.3h-7v-7h7V43.3z M420.8,36h-7v-7h7V36z M420.8,28.7h-7v-7h7V28.7z
	 M420.8,21.5h-7v-7h7V21.5z M420.8,14.2h-7v-7h7V14.2z M420.8,7h-7V0l7,0V7z"/>
</svg>
