<?xml version="1.0" encoding="utf-8"?>
<!-- Generator: Adobe Illustrator 27.3.1, SVG Export Plug-In . SVG Version: 6.00 Build 0)  -->
<svg version="1.1" id="Слой_1" xmlns="http://www.w3.org/2000/svg" xmlns:xlink="http://www.w3.org/1999/xlink" x="0px" y="0px"
	 viewBox="0 0 101.5 1524.2" style="enable-background:new 0 0 101.5 1524.2;" xml:space="preserve">
<style type="text/css">
	.st0{fill:#1E0E01;}
</style>
<path class="st0" d="M0.1,1495.4h7v7h-7V1495.4z M0.1,1488.2h7v7h-7V1488.2z M0.1,1437.3h7v7h-7V1437.3z M0.1,1357.5h7v7h-7V1357.5z
	 M0.1,1321.2h7v7h-7V1321.2z M0.1,1292.1h7v7h-7V1292.1z M7.4,1502.7h7v7h-7V1502.7z M7.4,1480.9h7v7h-7V1480.9z M7.4,1444.6h7v7h-7
	V1444.6z M7.4,1430.1h7v7h-7V1430.1z M7.4,1415.6h7v7h-7V1415.6z M7.4,1408.3h7v7h-7V1408.3z M7.4,1350.2h7v7h-7V1350.2z
	 M7.4,1335.7h7v7h-7V1335.7z M7.4,1284.9h7v7h-7V1284.9z M14.6,1509.9h7v7h-7V1509.9z M14.6,1488.2h7v7h-7V1488.2z M14.6,1473.6h7v7
	h-7V1473.6z M14.6,1451.9h7v7h-7V1451.9z M14.6,1437.3h7v7h-7V1437.3z M14.6,1422.8h7v7h-7V1422.8z M14.6,1401h7v7h-7V1401z
	 M14.6,1343h7v7h-7V1343z M14.6,1328.4h7v7h-7V1328.4z M14.6,1299.4h7v7h-7V1299.4z M14.6,1277.6h7v7h-7V1277.6z M21.9,1509.9h7v7
	h-7V1509.9z M21.9,1495.4h7v7h-7V1495.4z M21.9,1480.9h7v7h-7V1480.9z M21.9,1466.4h7v7h-7V1466.4z M21.9,1444.6h7v7h-7V1444.6z
	 M21.9,1430.1h7v7h-7V1430.1z M21.9,1393.8h7v7h-7V1393.8z M21.9,1386.5h7v7h-7V1386.5z M21.9,1350.2h7v7h-7V1350.2z M21.9,1335.7h7
	v7h-7V1335.7z M21.9,1321.2h7v7h-7V1321.2z M21.9,1306.7h7v7h-7V1306.7z M21.9,1292.1h7v7h-7V1292.1z M21.9,1270.4h7v7h-7V1270.4z
	 M21.9,1263.1h7v7h-7V1263.1z M29.1,1502.7h7v7h-7V1502.7z M29.1,1473.6h7v7h-7V1473.6z M29.1,1451.9h7v7h-7V1451.9z M29.1,1422.8h7
	v7h-7V1422.8z M29.1,1379.3h7v7h-7V1379.3z M29.1,1372h7v7h-7V1372z M29.1,1357.5h7v7h-7V1357.5z M29.1,1328.4h7v7h-7V1328.4z
	 M29.1,1313.9h7v7h-7V1313.9z M29.1,1299.4h7v7h-7V1299.4z M29.1,1255.8h7v7h-7V1255.8z M36.4,1517.2h7v7h-7V1517.2z M36.4,1509.9h7
	v7h-7V1509.9z M36.4,1502.7h7v7h-7V1502.7z M36.4,1495.4h7v7h-7V1495.4z M36.4,1488.2h7v7h-7V1488.2z M36.4,1480.9h7v7h-7V1480.9z
	 M36.4,1473.6h7v7h-7V1473.6z M36.4,1466.4h7v7h-7V1466.4z M36.4,1459.1h7v7h-7V1459.1z M36.4,1451.9h7v7h-7V1451.9z M36.4,1444.6h7
	v7h-7V1444.6z M36.4,1437.3h7v7h-7V1437.3z M36.4,1430.1h7v7h-7V1430.1z M36.4,1422.8h7v7h-7V1422.8z M36.4,1415.6h7v7h-7V1415.6z
	 M36.4,1408.3h7v7h-7V1408.3z M36.4,1401h7v7h-7V1401z M36.4,1393.8h7v7h-7V1393.8z M36.4,1386.5h7v7h-7V1386.5z M36.4,1379.3h7v7
	h-7V1379.3z M36.4,1372h7v7h-7V1372z M36.4,1364.7h7v7h-7V1364.7z M36.4,1357.5h7v7h-7V1357.5z M36.4,1350.2h7v7h-7V1350.2z
	 M36.4,1343h7v7h-7V1343z M36.4,1335.7h7v7h-7V1335.7z M36.4,1328.4h7v7h-7V1328.4z M36.4,1321.2h7v7h-7V1321.2z M36.4,1313.9h7v7
	h-7V1313.9z M36.4,1306.7h7v7h-7V1306.7z M36.4,1299.4h7v7h-7V1299.4z M36.4,1292.1h7v7h-7V1292.1z M36.4,1284.9h7v7h-7V1284.9z
	 M36.4,1277.6h7v7h-7V1277.6z M36.4,1270.4h7v7h-7V1270.4z M36.4,1263.1h7v7h-7V1263.1z M36.4,1255.8h7v7h-7V1255.8z M36.4,1248.6h7
	v7h-7V1248.6z M43.7,1509.9h7v7h-7V1509.9z M43.7,1364.7h7v7h-7V1364.7z M50.9,1517.2h7v7h-7V1517.2z M50.9,1372h7v7h-7V1372z
	 M58.2,1517.2h7v7h-7V1517.2z M58.2,1509.9h7v7h-7V1509.9z M58.2,1502.7h7v7h-7V1502.7z M58.2,1495.4h7v7h-7V1495.4z M58.2,1488.2h7
	v7h-7V1488.2z M58.2,1480.9h7v7h-7V1480.9z M58.2,1473.6h7v7h-7V1473.6z M58.2,1466.4h7v7h-7V1466.4z M58.2,1459.1h7v7h-7V1459.1z
	 M58.2,1451.9h7v7h-7V1451.9z M58.2,1444.6h7v7h-7V1444.6z M58.2,1437.3h7v7h-7V1437.3z M58.2,1430.1h7v7h-7V1430.1z M58.2,1422.8h7
	v7h-7V1422.8z M58.2,1415.6h7v7h-7V1415.6z M58.2,1408.3h7v7h-7V1408.3z M58.2,1401h7v7h-7V1401z M58.2,1393.8h7v7h-7V1393.8z
	 M58.2,1386.5h7v7h-7V1386.5z M58.2,1379.3h7v7h-7V1379.3z M58.2,1372h7v7h-7V1372z M58.2,1364.7h7v7h-7V1364.7z M58.2,1357.5h7v7
	h-7V1357.5z M58.2,1350.2h7v7h-7V1350.2z M58.2,1343h7v7h-7V1343z M58.2,1335.7h7v7h-7V1335.7z M58.2,1328.4h7v7h-7V1328.4z
	 M58.2,1321.2h7v7h-7V1321.2z M58.2,1313.9h7v7h-7V1313.9z M58.2,1306.7h7v7h-7V1306.7z M58.2,1299.4h7v7h-7V1299.4z M58.2,1292.1h7
	v7h-7V1292.1z M58.2,1284.9h7v7h-7V1284.9z M58.2,1277.6h7v7h-7V1277.6z M58.2,1270.4h7v7h-7V1270.4z M58.2,1263.1h7v7h-7V1263.1z
	 M58.2,1255.8h7v7h-7V1255.8z M58.2,1248.6h7v7h-7V1248.6z M65.4,1509.9h7v7h-7V1509.9z M65.4,1495.4h7v7h-7V1495.4z M65.4,1451.9h7
	v7h-7V1451.9z M65.4,1430.1h7v7h-7V1430.1z M65.4,1415.6h7v7h-7V1415.6z M65.4,1393.8h7v7h-7V1393.8z M65.4,1343h7v7h-7V1343z
	 M65.4,1328.4h7v7h-7V1328.4z M65.4,1299.4h7v7h-7V1299.4z M65.4,1284.9h7v7h-7V1284.9z M65.4,1263.1h7v7h-7V1263.1z M72.7,1488.2h7
	v7h-7V1488.2z M72.7,1459.1h7v7h-7V1459.1z M72.7,1437.3h7v7h-7V1437.3z M72.7,1422.8h7v7h-7V1422.8z M72.7,1386.5h7v7h-7V1386.5z
	 M72.7,1350.2h7v7h-7V1350.2z M72.7,1321.2h7v7h-7V1321.2z M72.7,1306.7h7v7h-7V1306.7z M72.7,1292.1h7v7h-7V1292.1z M72.7,1277.6h7
	v7h-7V1277.6z M72.7,1270.4h7v7h-7V1270.4z M72.7,1255.8h7v7h-7V1255.8z M80,1509.9h7v7h-7V1509.9z M80,1495.4h7v7h-7V1495.4z
	 M80,1480.9h7v7h-7V1480.9z M80,1466.4h7v7h-7V1466.4z M80,1451.9h7v7h-7V1451.9z M80,1430.1h7v7h-7V1430.1z M80,1372h7v7h-7V1372z
	 M80,1357.5h7v7h-7V1357.5z M80,1328.4h7v7h-7V1328.4z M80,1299.4h7v7h-7V1299.4z M80,1284.9h7v7h-7V1284.9z M80,1263.1h7v7h-7
	V1263.1z M87.2,1502.7h7v7h-7V1502.7z M87.2,1488.2h7v7h-7V1488.2z M87.2,1473.6h7v7h-7V1473.6z M87.2,1444.6h7v7h-7V1444.6z
	 M87.2,1350.2h7v7h-7V1350.2z M87.2,1306.7h7v7h-7V1306.7z M87.2,1292.1h7v7h-7V1292.1z M87.2,1255.8h7v7h-7V1255.8z M94.5,1480.9h7
	v7h-7V1480.9z M94.5,1451.9h7v7h-7V1451.9z M94.5,1437.3h7v7h-7V1437.3z M94.5,1430.1h7v7h-7V1430.1z M94.5,1357.5h7v7h-7V1357.5z
	 M94.5,1328.4h7v7h-7V1328.4z M94.5,1299.4h7v7h-7V1299.4z M0,1219.6h7v7H0C0,1226.6,0,1219.6,0,1219.6z M0,1212.4h7v7H0
	C0,1219.4,0,1212.4,0,1212.4z M0,1161.5h7v7H0C0,1168.5,0,1161.5,0,1161.5z M0,1081.7h7v7H0C0,1088.7,0,1081.7,0,1081.7z M0,1045.4
	h7v7H0C0,1052.4,0,1045.4,0,1045.4z M0,1016.3h7v7H0C0,1023.3,0,1016.3,0,1016.3z M7.3,1226.9h7v7h-7V1226.9z M7.3,1205.1h7v7h-7
	V1205.1z M7.3,1168.8h7v7h-7V1168.8z M7.3,1154.3h7v7h-7V1154.3z M7.3,1139.8h7v7h-7V1139.8z M7.3,1132.5h7v7h-7V1132.5z
	 M7.3,1074.4h7v7h-7V1074.4z M7.3,1059.9h7v7h-7V1059.9z M7.3,1009.1h7v7h-7V1009.1z M14.5,1234.1h7v7h-7V1234.1z M14.5,1212.4h7v7
	h-7V1212.4z M14.5,1197.8h7v7h-7V1197.8z M14.5,1176.1h7v7h-7V1176.1z M14.5,1161.5h7v7h-7V1161.5z M14.5,1147h7v7h-7V1147z
	 M14.5,1125.2h7v7h-7V1125.2z M14.5,1067.2h7v7h-7V1067.2z M14.5,1052.6h7v7h-7V1052.6z M14.5,1023.6h7v7h-7V1023.6z M14.5,1001.8h7
	v7h-7V1001.8z M21.8,1234.1h7v7h-7V1234.1z M21.8,1219.6h7v7h-7V1219.6z M21.8,1205.1h7v7h-7V1205.1z M21.8,1190.6h7v7h-7V1190.6z
	 M21.8,1168.8h7v7h-7V1168.8z M21.8,1154.3h7v7h-7V1154.3z M21.8,1118h7v7h-7V1118z M21.8,1110.7h7v7h-7V1110.7z M21.8,1074.4h7v7
	h-7V1074.4z M21.8,1059.9h7v7h-7V1059.9z M21.8,1045.4h7v7h-7V1045.4z M21.8,1030.9h7v7h-7V1030.9z M21.8,1016.3h7v7h-7V1016.3z
	 M21.8,994.6h7v7h-7V994.6z M21.8,987.3h7v7h-7V987.3z M29,1226.9h7v7h-7C29,1233.9,29,1226.9,29,1226.9z M29,1197.8h7v7h-7
	C29,1204.8,29,1197.8,29,1197.8z M29,1176.1h7v7h-7C29,1183.1,29,1176.1,29,1176.1z M29,1147h7v7h-7C29,1154,29,1147,29,1147z
	 M29,1103.5h7v7h-7C29,1110.5,29,1103.5,29,1103.5z M29,1096.2h7v7h-7C29,1103.2,29,1096.2,29,1096.2z M29,1081.7h7v7h-7
	C29,1088.7,29,1081.7,29,1081.7z M29,1052.6h7v7h-7C29,1059.6,29,1052.6,29,1052.6z M29,1038.1h7v7h-7
	C29,1045.1,29,1038.1,29,1038.1z M29,1023.6h7v7h-7C29,1030.6,29,1023.6,29,1023.6z M29,980h7v7h-7C29,987,29,980,29,980z
	 M36.3,1241.4h7v7h-7V1241.4z M36.3,1234.1h7v7h-7V1234.1z M36.3,1226.9h7v7h-7V1226.9z M36.3,1219.6h7v7h-7V1219.6z M36.3,1212.4h7
	v7h-7V1212.4z M36.3,1205.1h7v7h-7V1205.1z M36.3,1197.8h7v7h-7V1197.8z M36.3,1190.6h7v7h-7V1190.6z M36.3,1183.3h7v7h-7V1183.3z
	 M36.3,1176.1h7v7h-7V1176.1z M36.3,1168.8h7v7h-7V1168.8z M36.3,1161.5h7v7h-7V1161.5z M36.3,1154.3h7v7h-7V1154.3z M36.3,1147h7v7
	h-7V1147z M36.3,1139.8h7v7h-7V1139.8z M36.3,1132.5h7v7h-7V1132.5z M36.3,1125.2h7v7h-7V1125.2z M36.3,1118h7v7h-7V1118z
	 M36.3,1110.7h7v7h-7V1110.7z M36.3,1103.5h7v7h-7V1103.5z M36.3,1096.2h7v7h-7V1096.2z M36.3,1088.9h7v7h-7V1088.9z M36.3,1081.7h7
	v7h-7V1081.7z M36.3,1074.4h7v7h-7V1074.4z M36.3,1067.2h7v7h-7V1067.2z M36.3,1059.9h7v7h-7V1059.9z M36.3,1052.6h7v7h-7V1052.6z
	 M36.3,1045.4h7v7h-7V1045.4z M36.3,1038.1h7v7h-7V1038.1z M36.3,1030.9h7v7h-7V1030.9z M36.3,1023.6h7v7h-7V1023.6z M36.3,1016.3h7
	v7h-7V1016.3z M36.3,1009.1h7v7h-7V1009.1z M36.3,1001.8h7v7h-7V1001.8z M36.3,994.6h7v7h-7V994.6z M36.3,987.3h7v7h-7V987.3z
	 M36.3,980h7v7h-7V980z M36.3,972.8h7v7h-7V972.8z M43.6,1234.1h7v7h-7V1234.1z M43.6,1088.9h7v7h-7V1088.9z M50.8,1241.4h7v7h-7
	V1241.4z M50.8,1096.2h7v7h-7V1096.2z M58.1,1241.4h7v7h-7V1241.4z M58.1,1234.1h7v7h-7V1234.1z M58.1,1226.9h7v7h-7V1226.9z
	 M58.1,1219.6h7v7h-7V1219.6z M58.1,1212.4h7v7h-7V1212.4z M58.1,1205.1h7v7h-7V1205.1z M58.1,1197.8h7v7h-7V1197.8z M58.1,1190.6h7
	v7h-7V1190.6z M58.1,1183.3h7v7h-7V1183.3z M58.1,1176.1h7v7h-7V1176.1z M58.1,1168.8h7v7h-7V1168.8z M58.1,1161.5h7v7h-7V1161.5z
	 M58.1,1154.3h7v7h-7V1154.3z M58.1,1147h7v7h-7V1147z M58.1,1139.8h7v7h-7V1139.8z M58.1,1132.5h7v7h-7V1132.5z M58.1,1125.2h7v7
	h-7V1125.2z M58.1,1118h7v7h-7V1118z M58.1,1110.7h7v7h-7V1110.7z M58.1,1103.5h7v7h-7V1103.5z M58.1,1096.2h7v7h-7V1096.2z
	 M58.1,1088.9h7v7h-7V1088.9z M58.1,1081.7h7v7h-7V1081.7z M58.1,1074.4h7v7h-7V1074.4z M58.1,1067.2h7v7h-7V1067.2z M58.1,1059.9h7
	v7h-7V1059.9z M58.1,1052.6h7v7h-7V1052.6z M58.1,1045.4h7v7h-7V1045.4z M58.1,1038.1h7v7h-7V1038.1z M58.1,1030.9h7v7h-7V1030.9z
	 M58.1,1023.6h7v7h-7V1023.6z M58.1,1016.3h7v7h-7V1016.3z M58.1,1009.1h7v7h-7V1009.1z M58.1,1001.8h7v7h-7V1001.8z M58.1,994.6h7
	v7h-7V994.6z M58.1,987.3h7v7h-7V987.3z M58.1,980h7v7h-7V980z M58.1,972.8h7v7h-7V972.8z M65.3,1234.1h7v7h-7V1234.1z M65.3,1219.6
	h7v7h-7V1219.6z M65.3,1176.1h7v7h-7V1176.1z M65.3,1154.3h7v7h-7V1154.3z M65.3,1139.8h7v7h-7V1139.8z M65.3,1118h7v7h-7V1118z
	 M65.3,1067.2h7v7h-7V1067.2z M65.3,1052.6h7v7h-7V1052.6z M65.3,1023.6h7v7h-7V1023.6z M65.3,1009.1h7v7h-7V1009.1z M65.3,987.3h7
	v7h-7V987.3z M72.6,1212.4h7v7h-7V1212.4z M72.6,1183.3h7v7h-7V1183.3z M72.6,1161.5h7v7h-7V1161.5z M72.6,1147h7v7h-7V1147z
	 M72.6,1110.7h7v7h-7V1110.7z M72.6,1074.4h7v7h-7V1074.4z M72.6,1045.4h7v7h-7V1045.4z M72.6,1030.9h7v7h-7V1030.9z M72.6,1016.3h7
	v7h-7V1016.3z M72.6,1001.8h7v7h-7V1001.8z M72.6,994.6h7v7h-7V994.6z M72.6,980h7v7h-7V980z M79.9,1234.1h7v7h-7V1234.1z
	 M79.9,1219.6h7v7h-7V1219.6z M79.9,1205.1h7v7h-7V1205.1z M79.9,1190.6h7v7h-7V1190.6z M79.9,1176.1h7v7h-7V1176.1z M79.9,1154.3h7
	v7h-7V1154.3z M79.9,1096.2h7v7h-7V1096.2z M79.9,1081.7h7v7h-7V1081.7z M79.9,1052.6h7v7h-7V1052.6z M79.9,1023.6h7v7h-7V1023.6z
	 M79.9,1009.1h7v7h-7V1009.1z M79.9,987.3h7v7h-7V987.3z M87.1,1226.9h7v7h-7V1226.9z M87.1,1212.4h7v7h-7V1212.4z M87.1,1197.8h7v7
	h-7V1197.8z M87.1,1168.8h7v7h-7V1168.8z M87.1,1074.4h7v7h-7V1074.4z M87.1,1030.9h7v7h-7V1030.9z M87.1,1016.3h7v7h-7V1016.3z
	 M87.1,980h7v7h-7V980z M94.4,1205.1h7v7h-7V1205.1z M94.4,1176.1h7v7h-7V1176.1z M94.4,1161.5h7v7h-7V1161.5z M94.4,1154.3h7v7h-7
	V1154.3z M94.4,1081.7h7v7h-7V1081.7z M94.4,1052.6h7v7h-7V1052.6z M94.4,1023.6h7v7h-7V1023.6z M0,943.7h7v7H0
	C0,950.7,0,943.7,0,943.7z M0,936.5h7v7H0C0,943.5,0,936.5,0,936.5z M0,885.6h7v7H0C0,892.6,0,885.6,0,885.6z M0,805.8h7v7H0
	C0,812.8,0,805.8,0,805.8z M0,769.5h7v7H0C0,776.5,0,769.5,0,769.5z M0,740.4h7v7H0C0,747.4,0,740.4,0,740.4z M7.3,951h7v7h-7V951z
	 M7.3,929.2h7v7h-7V929.2z M7.3,892.9h7v7h-7V892.9z M7.3,878.4h7v7h-7V878.4z M7.3,863.9h7v7h-7V863.9z M7.3,856.6h7v7h-7V856.6z
	 M7.3,798.5h7v7h-7V798.5z M7.3,784h7v7h-7V784z M7.3,733.2h7v7h-7V733.2z M14.5,958.2h7v7h-7V958.2z M14.5,936.5h7v7h-7V936.5z
	 M14.5,921.9h7v7h-7V921.9z M14.5,900.2h7v7h-7V900.2z M14.5,885.6h7v7h-7V885.6z M14.5,871.1h7v7h-7V871.1z M14.5,849.3h7v7h-7
	V849.3z M14.5,791.3h7v7h-7V791.3z M14.5,776.7h7v7h-7V776.7z M14.5,747.7h7v7h-7V747.7z M14.5,725.9h7v7h-7V725.9z M21.8,958.2h7v7
	h-7V958.2z M21.8,943.7h7v7h-7V943.7z M21.8,929.2h7v7h-7V929.2z M21.8,914.7h7v7h-7V914.7z M21.8,892.9h7v7h-7V892.9z M21.8,878.4
	h7v7h-7V878.4z M21.8,842.1h7v7h-7V842.1z M21.8,834.8h7v7h-7V834.8z M21.8,798.5h7v7h-7V798.5z M21.8,784h7v7h-7V784z M21.8,769.5
	h7v7h-7V769.5z M21.8,755h7v7h-7V755z M21.8,740.4h7v7h-7V740.4z M21.8,718.7h7v7h-7V718.7z M21.8,711.4h7v7h-7V711.4z M29,951h7v7
	h-7C29,958,29,951,29,951z M29,921.9h7v7h-7C29,928.9,29,921.9,29,921.9z M29,900.2h7v7h-7C29,907.2,29,900.2,29,900.2z M29,871.1h7
	v7h-7C29,878.1,29,871.1,29,871.1z M29,827.6h7v7h-7C29,834.6,29,827.6,29,827.6z M29,820.3h7v7h-7C29,827.3,29,820.3,29,820.3z
	 M29,805.8h7v7h-7C29,812.8,29,805.8,29,805.8z M29,776.7h7v7h-7C29,783.7,29,776.7,29,776.7z M29,762.2h7v7h-7
	C29,769.2,29,762.2,29,762.2z M29,747.7h7v7h-7C29,754.7,29,747.7,29,747.7z M29,704.1h7v7h-7C29,711.1,29,704.1,29,704.1z
	 M36.3,965.5h7v7h-7V965.5z M36.3,958.2h7v7h-7V958.2z M36.3,951h7v7h-7V951z M36.3,943.7h7v7h-7V943.7z M36.3,936.5h7v7h-7V936.5z
	 M36.3,929.2h7v7h-7V929.2z M36.3,921.9h7v7h-7V921.9z M36.3,914.7h7v7h-7V914.7z M36.3,907.4h7v7h-7V907.4z M36.3,900.2h7v7h-7
	V900.2z M36.3,892.9h7v7h-7V892.9z M36.3,885.6h7v7h-7V885.6z M36.3,878.4h7v7h-7V878.4z M36.3,871.1h7v7h-7V871.1z M36.3,863.9h7v7
	h-7V863.9z M36.3,856.6h7v7h-7V856.6z M36.3,849.3h7v7h-7V849.3z M36.3,842.1h7v7h-7V842.1z M36.3,834.8h7v7h-7V834.8z M36.3,827.6
	h7v7h-7V827.6z M36.3,820.3h7v7h-7V820.3z M36.3,813h7v7h-7V813z M36.3,805.8h7v7h-7V805.8z M36.3,798.5h7v7h-7V798.5z M36.3,791.3
	h7v7h-7V791.3z M36.3,784h7v7h-7V784z M36.3,776.7h7v7h-7V776.7z M36.3,769.5h7v7h-7V769.5z M36.3,762.2h7v7h-7V762.2z M36.3,755h7
	v7h-7V755z M36.3,747.7h7v7h-7V747.7z M36.3,740.4h7v7h-7V740.4z M36.3,733.2h7v7h-7V733.2z M36.3,725.9h7v7h-7V725.9z M36.3,718.7
	h7v7h-7V718.7z M36.3,711.4h7v7h-7V711.4z M36.3,704.1h7v7h-7V704.1z M36.3,696.9h7v7h-7V696.9z M43.6,958.2h7v7h-7V958.2z
	 M43.6,813h7v7h-7V813z M50.8,965.5h7v7h-7V965.5z M50.8,820.3h7v7h-7V820.3z M58.1,965.5h7v7h-7V965.5z M58.1,958.2h7v7h-7V958.2z
	 M58.1,951h7v7h-7V951z M58.1,943.7h7v7h-7V943.7z M58.1,936.5h7v7h-7V936.5z M58.1,929.2h7v7h-7V929.2z M58.1,921.9h7v7h-7V921.9z
	 M58.1,914.7h7v7h-7V914.7z M58.1,907.4h7v7h-7V907.4z M58.1,900.2h7v7h-7V900.2z M58.1,892.9h7v7h-7V892.9z M58.1,885.6h7v7h-7
	V885.6z M58.1,878.4h7v7h-7V878.4z M58.1,871.1h7v7h-7V871.1z M58.1,863.9h7v7h-7V863.9z M58.1,856.6h7v7h-7V856.6z M58.1,849.3h7v7
	h-7V849.3z M58.1,842.1h7v7h-7V842.1z M58.1,834.8h7v7h-7V834.8z M58.1,827.6h7v7h-7V827.6z M58.1,820.3h7v7h-7V820.3z M58.1,813h7
	v7h-7V813z M58.1,805.8h7v7h-7V805.8z M58.1,798.5h7v7h-7V798.5z M58.1,791.3h7v7h-7V791.3z M58.1,784h7v7h-7V784z M58.1,776.7h7v7
	h-7V776.7z M58.1,769.5h7v7h-7V769.5z M58.1,762.2h7v7h-7V762.2z M58.1,755h7v7h-7V755z M58.1,747.7h7v7h-7V747.7z M58.1,740.4h7v7
	h-7V740.4z M58.1,733.2h7v7h-7V733.2z M58.1,725.9h7v7h-7V725.9z M58.1,718.7h7v7h-7V718.7z M58.1,711.4h7v7h-7V711.4z M58.1,704.1
	h7v7h-7V704.1z M58.1,696.9h7v7h-7V696.9z M65.3,958.2h7v7h-7V958.2z M65.3,943.7h7v7h-7V943.7z M65.3,900.2h7v7h-7V900.2z
	 M65.3,878.4h7v7h-7V878.4z M65.3,863.9h7v7h-7V863.9z M65.3,842.1h7v7h-7V842.1z M65.3,791.3h7v7h-7V791.3z M65.3,776.7h7v7h-7
	V776.7z M65.3,747.7h7v7h-7V747.7z M65.3,733.2h7v7h-7V733.2z M65.3,711.4h7v7h-7V711.4z M72.6,936.5h7v7h-7V936.5z M72.6,907.4h7v7
	h-7V907.4z M72.6,885.6h7v7h-7V885.6z M72.6,871.1h7v7h-7V871.1z M72.6,834.8h7v7h-7V834.8z M72.6,798.5h7v7h-7V798.5z M72.6,769.5
	h7v7h-7V769.5z M72.6,755h7v7h-7V755z M72.6,740.4h7v7h-7V740.4z M72.6,725.9h7v7h-7V725.9z M72.6,718.7h7v7h-7V718.7z M72.6,704.1
	h7v7h-7V704.1z M79.9,958.2h7v7h-7V958.2z M79.9,943.7h7v7h-7V943.7z M79.9,929.2h7v7h-7V929.2z M79.9,914.7h7v7h-7V914.7z
	 M79.9,900.2h7v7h-7V900.2z M79.9,878.4h7v7h-7V878.4z M79.9,820.3h7v7h-7V820.3z M79.9,805.8h7v7h-7V805.8z M79.9,776.7h7v7h-7
	V776.7z M79.9,747.7h7v7h-7V747.7z M79.9,733.2h7v7h-7V733.2z M79.9,711.4h7v7h-7V711.4z M87.1,951h7v7h-7V951z M87.1,936.5h7v7h-7
	V936.5z M87.1,921.9h7v7h-7V921.9z M87.1,892.9h7v7h-7V892.9z M87.1,798.5h7v7h-7V798.5z M87.1,755h7v7h-7V755z M87.1,740.4h7v7h-7
	V740.4z M87.1,704.1h7v7h-7V704.1z M94.4,929.2h7v7h-7V929.2z M94.4,900.2h7v7h-7V900.2z M94.4,885.6h7v7h-7V885.6z M94.4,878.4h7v7
	h-7V878.4z M94.4,805.8h7v7h-7V805.8z M94.4,776.7h7v7h-7V776.7z M94.4,747.7h7v7h-7V747.7z M0,667.8h7v7H0C0,674.8,0,667.8,0,667.8
	z M0,660.6h7v7H0C0,667.6,0,660.6,0,660.6z M0,609.7h7v7H0C0,616.7,0,609.7,0,609.7z M0,529.9h7v7H0C0,536.9,0,529.9,0,529.9z
	 M0,493.6h7v7H0C0,500.6,0,493.6,0,493.6z M0,464.5h7v7H0C0,471.5,0,464.5,0,464.5z M7.3,675.1h7v7h-7V675.1z M7.3,653.3h7v7h-7
	V653.3z M7.3,617h7v7h-7V617z M7.3,602.5h7v7h-7V602.5z M7.3,588h7v7h-7V588z M7.3,580.7h7v7h-7V580.7z M7.3,522.6h7v7h-7V522.6z
	 M7.3,508.1h7v7h-7V508.1z M7.3,457.3h7v7h-7V457.3z M14.5,682.3h7v7h-7V682.3z M14.5,660.6h7v7h-7V660.6z M14.5,646h7v7h-7V646z
	 M14.5,624.3h7v7h-7V624.3z M14.5,609.7h7v7h-7V609.7z M14.5,595.2h7v7h-7V595.2z M14.5,573.4h7v7h-7V573.4z M14.5,515.4h7v7h-7
	V515.4z M14.5,500.8h7v7h-7V500.8z M14.5,471.8h7v7h-7V471.8z M14.5,450h7v7h-7V450z M21.8,682.3h7v7h-7V682.3z M21.8,667.8h7v7h-7
	V667.8z M21.8,653.3h7v7h-7V653.3z M21.8,638.8h7v7h-7V638.8z M21.8,617h7v7h-7V617z M21.8,602.5h7v7h-7V602.5z M21.8,566.2h7v7h-7
	V566.2z M21.8,558.9h7v7h-7V558.9z M21.8,522.6h7v7h-7V522.6z M21.8,508.1h7v7h-7V508.1z M21.8,493.6h7v7h-7V493.6z M21.8,479.1h7v7
	h-7V479.1z M21.8,464.5h7v7h-7V464.5z M21.8,442.8h7v7h-7V442.8z M21.8,435.5h7v7h-7V435.5z M29,675.1h7v7h-7
	C29,682.1,29,675.1,29,675.1z M29,646h7v7h-7C29,653,29,646,29,646z M29,624.3h7v7h-7C29,631.3,29,624.3,29,624.3z M29,595.2h7v7h-7
	C29,602.2,29,595.2,29,595.2z M29,551.7h7v7h-7C29,558.7,29,551.7,29,551.7z M29,544.4h7v7h-7C29,551.4,29,544.4,29,544.4z
	 M29,529.9h7v7h-7C29,536.9,29,529.9,29,529.9z M29,500.8h7v7h-7C29,507.8,29,500.8,29,500.8z M29,486.3h7v7h-7
	C29,493.3,29,486.3,29,486.3z M29,471.8h7v7h-7C29,478.8,29,471.8,29,471.8z M29,428.2h7v7h-7C29,435.2,29,428.2,29,428.2z
	 M36.3,689.6h7v7h-7V689.6z M36.3,682.3h7v7h-7V682.3z M36.3,675.1h7v7h-7V675.1z M36.3,667.8h7v7h-7V667.8z M36.3,660.6h7v7h-7
	V660.6z M36.3,653.3h7v7h-7V653.3z M36.3,646h7v7h-7V646z M36.3,638.8h7v7h-7V638.8z M36.3,631.5h7v7h-7V631.5z M36.3,624.3h7v7h-7
	V624.3z M36.3,617h7v7h-7V617z M36.3,609.7h7v7h-7V609.7z M36.3,602.5h7v7h-7V602.5z M36.3,595.2h7v7h-7V595.2z M36.3,588h7v7h-7
	V588z M36.3,580.7h7v7h-7V580.7z M36.3,573.4h7v7h-7V573.4z M36.3,566.2h7v7h-7V566.2z M36.3,558.9h7v7h-7V558.9z M36.3,551.7h7v7
	h-7V551.7z M36.3,544.4h7v7h-7V544.4z M36.3,537.1h7v7h-7V537.1z M36.3,529.9h7v7h-7V529.9z M36.3,522.6h7v7h-7V522.6z M36.3,515.4
	h7v7h-7V515.4z M36.3,508.1h7v7h-7V508.1z M36.3,500.8h7v7h-7V500.8z M36.3,493.6h7v7h-7V493.6z M36.3,486.3h7v7h-7V486.3z
	 M36.3,479.1h7v7h-7V479.1z M36.3,471.8h7v7h-7V471.8z M36.3,464.5h7v7h-7V464.5z M36.3,457.3h7v7h-7V457.3z M36.3,450h7v7h-7V450z
	 M36.3,442.8h7v7h-7V442.8z M36.3,435.5h7v7h-7V435.5z M36.3,428.2h7v7h-7V428.2z M36.3,421h7v7h-7V421z M43.6,682.3h7v7h-7V682.3z
	 M43.6,537.1h7v7h-7V537.1z M50.8,689.6h7v7h-7V689.6z M50.8,544.4h7v7h-7V544.4z M58.1,689.6h7v7h-7V689.6z M58.1,682.3h7v7h-7
	V682.3z M58.1,675.1h7v7h-7V675.1z M58.1,667.8h7v7h-7V667.8z M58.1,660.6h7v7h-7V660.6z M58.1,653.3h7v7h-7V653.3z M58.1,646h7v7
	h-7V646z M58.1,638.8h7v7h-7V638.8z M58.1,631.5h7v7h-7V631.5z M58.1,624.3h7v7h-7V624.3z M58.1,617h7v7h-7V617z M58.1,609.7h7v7h-7
	V609.7z M58.1,602.5h7v7h-7V602.5z M58.1,595.2h7v7h-7V595.2z M58.1,588h7v7h-7V588z M58.1,580.7h7v7h-7V580.7z M58.1,573.4h7v7h-7
	V573.4z M58.1,566.2h7v7h-7V566.2z M58.1,558.9h7v7h-7V558.9z M58.1,551.7h7v7h-7V551.7z M58.1,544.4h7v7h-7V544.4z M58.1,537.1h7v7
	h-7V537.1z M58.1,529.9h7v7h-7V529.9z M58.1,522.6h7v7h-7V522.6z M58.1,515.4h7v7h-7V515.4z M58.1,508.1h7v7h-7V508.1z M58.1,500.8
	h7v7h-7V500.8z M58.1,493.6h7v7h-7V493.6z M58.1,486.3h7v7h-7V486.3z M58.1,479.1h7v7h-7V479.1z M58.1,471.8h7v7h-7V471.8z
	 M58.1,464.5h7v7h-7V464.5z M58.1,457.3h7v7h-7V457.3z M58.1,450h7v7h-7V450z M58.1,442.8h7v7h-7V442.8z M58.1,435.5h7v7h-7V435.5z
	 M58.1,428.2h7v7h-7V428.2z M58.1,421h7v7h-7V421z M65.3,682.3h7v7h-7V682.3z M65.3,667.8h7v7h-7V667.8z M65.3,624.3h7v7h-7V624.3z
	 M65.3,602.5h7v7h-7V602.5z M65.3,588h7v7h-7V588z M65.3,566.2h7v7h-7V566.2z M65.3,515.4h7v7h-7V515.4z M65.3,500.8h7v7h-7V500.8z
	 M65.3,471.8h7v7h-7V471.8z M65.3,457.3h7v7h-7V457.3z M65.3,435.5h7v7h-7V435.5z M72.6,660.6h7v7h-7V660.6z M72.6,631.5h7v7h-7
	V631.5z M72.6,609.7h7v7h-7V609.7z M72.6,595.2h7v7h-7V595.2z M72.6,558.9h7v7h-7V558.9z M72.6,522.6h7v7h-7V522.6z M72.6,493.6h7v7
	h-7V493.6z M72.6,479.1h7v7h-7V479.1z M72.6,464.5h7v7h-7V464.5z M72.6,450h7v7h-7V450z M72.6,442.8h7v7h-7V442.8z M72.6,428.2h7v7
	h-7V428.2z M79.9,682.3h7v7h-7V682.3z M79.9,667.8h7v7h-7V667.8z M79.9,653.3h7v7h-7V653.3z M79.9,638.8h7v7h-7V638.8z M79.9,624.3
	h7v7h-7V624.3z M79.9,602.5h7v7h-7V602.5z M79.9,544.4h7v7h-7V544.4z M79.9,529.9h7v7h-7V529.9z M79.9,500.8h7v7h-7V500.8z
	 M79.9,471.8h7v7h-7V471.8z M79.9,457.3h7v7h-7V457.3z M79.9,435.5h7v7h-7V435.5z M87.1,675.1h7v7h-7V675.1z M87.1,660.6h7v7h-7
	V660.6z M87.1,646h7v7h-7V646z M87.1,617h7v7h-7V617z M87.1,522.6h7v7h-7V522.6z M87.1,479.1h7v7h-7V479.1z M87.1,464.5h7v7h-7
	V464.5z M87.1,428.2h7v7h-7V428.2z M94.4,653.3h7v7h-7V653.3z M94.4,624.3h7v7h-7V624.3z M94.4,609.7h7v7h-7V609.7z M94.4,602.5h7v7
	h-7V602.5z M94.4,529.9h7v7h-7V529.9z M94.4,500.8h7v7h-7V500.8z M94.4,471.8h7v7h-7V471.8z M0,391.9h7v7H0C0,398.9,0,391.9,0,391.9
	z M0,384.7h7v7H0C0,391.7,0,384.7,0,384.7z M0,333.8h7v7H0C0,340.8,0,333.8,0,333.8z M0,254h7v7H0C0,261,0,254,0,254z M0,217.7h7v7
	H0C0,224.7,0,217.7,0,217.7z M0,188.6h7v7H0C0,195.6,0,188.6,0,188.6z M7.3,399.2h7v7h-7V399.2z M7.3,377.4h7v7h-7V377.4z
	 M7.3,341.1h7v7h-7V341.1z M7.3,326.6h7v7h-7V326.6z M7.3,312.1h7v7h-7V312.1z M7.3,304.8h7v7h-7V304.8z M7.3,246.7h7v7h-7V246.7z
	 M7.3,232.2h7v7h-7V232.2z M7.3,181.4h7v7h-7V181.4z M14.5,406.4h7v7h-7V406.4z M14.5,384.7h7v7h-7V384.7z M14.5,370.1h7v7h-7V370.1
	z M14.5,348.4h7v7h-7V348.4z M14.5,333.8h7v7h-7V333.8z M14.5,319.3h7v7h-7V319.3z M14.5,297.5h7v7h-7V297.5z M14.5,239.5h7v7h-7
	V239.5z M14.5,224.9h7v7h-7V224.9z M14.5,195.9h7v7h-7V195.9z M14.5,174.1h7v7h-7V174.1z M21.8,406.4h7v7h-7V406.4z M21.8,391.9h7v7
	h-7V391.9z M21.8,377.4h7v7h-7V377.4z M21.8,362.9h7v7h-7V362.9z M21.8,341.1h7v7h-7V341.1z M21.8,326.6h7v7h-7V326.6z M21.8,290.3
	h7v7h-7V290.3z M21.8,283h7v7h-7V283z M21.8,246.7h7v7h-7V246.7z M21.8,232.2h7v7h-7V232.2z M21.8,217.7h7v7h-7V217.7z M21.8,203.2
	h7v7h-7V203.2z M21.8,188.6h7v7h-7V188.6z M21.8,166.9h7v7h-7V166.9z M21.8,159.6h7v7h-7V159.6z M29,399.2h7v7h-7
	C29,406.2,29,399.2,29,399.2z M29,370.1h7v7h-7C29,377.1,29,370.1,29,370.1z M29,348.4h7v7h-7C29,355.4,29,348.4,29,348.4z
	 M29,319.3h7v7h-7C29,326.3,29,319.3,29,319.3z M29,275.8h7v7h-7C29,282.8,29,275.8,29,275.8z M29,268.5h7v7h-7
	C29,275.5,29,268.5,29,268.5z M29,254h7v7h-7C29,261,29,254,29,254z M29,224.9h7v7h-7C29,231.9,29,224.9,29,224.9z M29,210.4h7v7h-7
	C29,217.4,29,210.4,29,210.4z M29,195.9h7v7h-7C29,202.9,29,195.9,29,195.9z M29,152.3h7v7h-7C29,159.3,29,152.3,29,152.3z
	 M36.3,413.7h7v7h-7V413.7z M36.3,406.4h7v7h-7V406.4z M36.3,399.2h7v7h-7V399.2z M36.3,391.9h7v7h-7V391.9z M36.3,384.7h7v7h-7
	V384.7z M36.3,377.4h7v7h-7V377.4z M36.3,370.1h7v7h-7V370.1z M36.3,362.9h7v7h-7V362.9z M36.3,355.6h7v7h-7V355.6z M36.3,348.4h7v7
	h-7V348.4z M36.3,341.1h7v7h-7V341.1z M36.3,333.8h7v7h-7V333.8z M36.3,326.6h7v7h-7V326.6z M36.3,319.3h7v7h-7V319.3z M36.3,312.1
	h7v7h-7V312.1z M36.3,304.8h7v7h-7V304.8z M36.3,297.5h7v7h-7V297.5z M36.3,290.3h7v7h-7V290.3z M36.3,283h7v7h-7V283z M36.3,275.8
	h7v7h-7V275.8z M36.3,268.5h7v7h-7V268.5z M36.3,261.2h7v7h-7V261.2z M36.3,254h7v7h-7V254z M36.3,246.7h7v7h-7V246.7z M36.3,239.5
	h7v7h-7V239.5z M36.3,232.2h7v7h-7V232.2z M36.3,224.9h7v7h-7V224.9z M36.3,217.7h7v7h-7V217.7z M36.3,210.4h7v7h-7V210.4z
	 M36.3,203.2h7v7h-7V203.2z M36.3,195.9h7v7h-7V195.9z M36.3,188.6h7v7h-7V188.6z M36.3,181.4h7v7h-7V181.4z M36.3,174.1h7v7h-7
	V174.1z M36.3,166.9h7v7h-7V166.9z M36.3,159.6h7v7h-7V159.6z M36.3,152.3h7v7h-7V152.3z M36.3,145.1h7v7h-7V145.1z M43.6,406.4h7v7
	h-7V406.4z M43.6,261.2h7v7h-7V261.2z M50.8,413.7h7v7h-7V413.7z M50.8,268.5h7v7h-7V268.5z M58.1,413.7h7v7h-7V413.7z M58.1,406.4
	h7v7h-7V406.4z M58.1,399.2h7v7h-7V399.2z M58.1,391.9h7v7h-7V391.9z M58.1,384.7h7v7h-7V384.7z M58.1,377.4h7v7h-7V377.4z
	 M58.1,370.1h7v7h-7V370.1z M58.1,362.9h7v7h-7V362.9z M58.1,355.6h7v7h-7V355.6z M58.1,348.4h7v7h-7V348.4z M58.1,341.1h7v7h-7
	V341.1z M58.1,333.8h7v7h-7V333.8z M58.1,326.6h7v7h-7V326.6z M58.1,319.3h7v7h-7V319.3z M58.1,312.1h7v7h-7V312.1z M58.1,304.8h7v7
	h-7V304.8z M58.1,297.5h7v7h-7V297.5z M58.1,290.3h7v7h-7V290.3z M58.1,283h7v7h-7V283z M58.1,275.8h7v7h-7V275.8z M58.1,268.5h7v7
	h-7V268.5z M58.1,261.2h7v7h-7V261.2z M58.1,254h7v7h-7V254z M58.1,246.7h7v7h-7V246.7z M58.1,239.5h7v7h-7V239.5z M58.1,232.2h7v7
	h-7V232.2z M58.1,224.9h7v7h-7V224.9z M58.1,217.7h7v7h-7V217.7z M58.1,210.4h7v7h-7V210.4z M58.1,203.2h7v7h-7V203.2z M58.1,195.9
	h7v7h-7V195.9z M58.1,188.6h7v7h-7V188.6z M58.1,181.4h7v7h-7V181.4z M58.1,174.1h7v7h-7V174.1z M58.1,166.9h7v7h-7V166.9z
	 M58.1,159.6h7v7h-7V159.6z M58.1,152.3h7v7h-7V152.3z M58.1,145.1h7v7h-7V145.1z M65.3,406.4h7v7h-7V406.4z M65.3,391.9h7v7h-7
	V391.9z M65.3,348.4h7v7h-7V348.4z M65.3,326.6h7v7h-7V326.6z M65.3,312.1h7v7h-7V312.1z M65.3,290.3h7v7h-7V290.3z M65.3,239.5h7v7
	h-7V239.5z M65.3,224.9h7v7h-7V224.9z M65.3,195.9h7v7h-7V195.9z M65.3,181.4h7v7h-7V181.4z M65.3,159.6h7v7h-7V159.6z M72.6,384.7
	h7v7h-7V384.7z M72.6,355.6h7v7h-7V355.6z M72.6,333.8h7v7h-7V333.8z M72.6,319.3h7v7h-7V319.3z M72.6,283h7v7h-7V283z M72.6,246.7
	h7v7h-7V246.7z M72.6,217.7h7v7h-7V217.7z M72.6,203.2h7v7h-7V203.2z M72.6,188.6h7v7h-7V188.6z M72.6,174.1h7v7h-7V174.1z
	 M72.6,166.9h7v7h-7V166.9z M72.6,152.3h7v7h-7V152.3z M79.9,406.4h7v7h-7V406.4z M79.9,391.9h7v7h-7V391.9z M79.9,377.4h7v7h-7
	V377.4z M79.9,362.9h7v7h-7V362.9z M79.9,348.4h7v7h-7V348.4z M79.9,326.6h7v7h-7V326.6z M79.9,268.5h7v7h-7V268.5z M79.9,254h7v7
	h-7V254z M79.9,224.9h7v7h-7V224.9z M79.9,195.9h7v7h-7V195.9z M79.9,181.4h7v7h-7V181.4z M79.9,159.6h7v7h-7V159.6z M87.1,399.2h7
	v7h-7V399.2z M87.1,384.7h7v7h-7V384.7z M87.1,370.1h7v7h-7V370.1z M87.1,341.1h7v7h-7V341.1z M87.1,246.7h7v7h-7V246.7z
	 M87.1,203.2h7v7h-7V203.2z M87.1,188.6h7v7h-7V188.6z M87.1,152.3h7v7h-7V152.3z M94.4,377.4h7v7h-7V377.4z M94.4,348.4h7v7h-7
	V348.4z M94.4,333.8h7v7h-7V333.8z M94.4,326.6h7v7h-7V326.6z M94.4,254h7v7h-7V254z M94.4,224.9h7v7h-7V224.9z M94.4,195.9h7v7h-7
	V195.9z M0,116.1h7v7H0C0,123.1,0,116.1,0,116.1z M0,108.9h7v7H0C0,115.9,0,108.9,0,108.9z M0,58h7v7H0C0,65,0,58,0,58z M7.3,123.4
	h7v7h-7V123.4z M7.3,101.6h7v7h-7V101.6z M7.3,65.3h7v7h-7V65.3z M7.3,50.8h7v7h-7V50.8z M7.3,36.3h7v7h-7V36.3z M7.3,29h7v7h-7V29z
	 M14.5,130.6h7v7h-7V130.6z M14.5,108.9h7v7h-7V108.9z M14.5,94.3h7v7h-7V94.3z M14.5,72.6h7v7h-7V72.6z M14.5,58h7v7h-7V58z
	 M14.5,43.5h7v7h-7V43.5z M14.5,21.7h7v7h-7V21.7z M21.8,130.6h7v7h-7V130.6z M21.8,116.1h7v7h-7V116.1z M21.8,101.6h7v7h-7V101.6z
	 M21.8,87.1h7v7h-7V87.1z M21.8,65.3h7v7h-7V65.3z M21.8,50.8h7v7h-7V50.8z M21.8,14.5h7v7h-7V14.5z M21.8,7.2h7v7h-7V7.2z
	 M29,123.4h7v7h-7C29,130.4,29,123.4,29,123.4z M29,94.3h7v7h-7C29,101.3,29,94.3,29,94.3z M29,72.6h7v7h-7C29,79.6,29,72.6,29,72.6
	z M29,43.5h7v7h-7C29,50.5,29,43.5,29,43.5z M29,0h7v7h-7C29,7,29,0,29,0z M36.3,137.9h7v7h-7V137.9z M36.3,130.6h7v7h-7V130.6z
	 M36.3,123.4h7v7h-7V123.4z M36.3,116.1h7v7h-7V116.1z M36.3,108.9h7v7h-7V108.9z M36.3,101.6h7v7h-7V101.6z M36.3,94.3h7v7h-7V94.3
	z M36.3,87.1h7v7h-7V87.1z M36.3,79.8h7v7h-7V79.8z M36.3,72.6h7v7h-7V72.6z M36.3,65.3h7v7h-7V65.3z M36.3,58h7v7h-7V58z
	 M36.3,50.8h7v7h-7V50.8z M36.3,43.5h7v7h-7V43.5z M36.3,36.3h7v7h-7V36.3z M36.3,29h7v7h-7V29z M36.3,21.7h7v7h-7V21.7z M36.3,14.5
	h7v7h-7V14.5z M36.3,7.2h7v7h-7V7.2z M36.3,0h7v7h-7V0z M43.6,130.6h7v7h-7V130.6z M50.8,137.9h7v7h-7V137.9z M58.1,137.9h7v7h-7
	V137.9z M58.1,130.6h7v7h-7V130.6z M58.1,123.4h7v7h-7V123.4z M58.1,116.1h7v7h-7V116.1z M58.1,108.9h7v7h-7V108.9z M58.1,101.6h7v7
	h-7V101.6z M58.1,94.3h7v7h-7V94.3z M58.1,87.1h7v7h-7V87.1z M58.1,79.8h7v7h-7V79.8z M58.1,72.6h7v7h-7V72.6z M58.1,65.3h7v7h-7
	V65.3z M58.1,58h7v7h-7V58z M58.1,50.8h7v7h-7V50.8z M58.1,43.5h7v7h-7V43.5z M58.1,36.3h7v7h-7V36.3z M58.1,29h7v7h-7V29z
	 M58.1,21.7h7v7h-7V21.7z M58.1,14.5h7v7h-7V14.5z M58.1,7.2h7v7h-7V7.2z M58.1,0h7v7h-7V0z M65.3,130.6h7v7h-7V130.6z M65.3,116.1
	h7v7h-7V116.1z M65.3,72.6h7v7h-7V72.6z M65.3,50.8h7v7h-7V50.8z M65.3,36.3h7v7h-7V36.3z M65.3,14.5h7v7h-7V14.5z M72.6,108.9h7v7
	h-7V108.9z M72.6,79.8h7v7h-7V79.8z M72.6,58h7v7h-7V58z M72.6,43.5h7v7h-7V43.5z M72.6,7.2h7v7h-7V7.2z M79.9,130.6h7v7h-7V130.6z
	 M79.9,116.1h7v7h-7V116.1z M79.9,101.6h7v7h-7V101.6z M79.9,87.1h7v7h-7V87.1z M79.9,72.6h7v7h-7V72.6z M79.9,50.8h7v7h-7V50.8z
	 M87.1,123.4h7v7h-7V123.4z M87.1,108.9h7v7h-7V108.9z M87.1,94.3h7v7h-7V94.3z M87.1,65.3h7v7h-7V65.3z M94.4,101.6h7v7h-7V101.6z
	 M94.4,72.6h7v7h-7V72.6z M94.4,58h7v7h-7V58z M94.4,50.8h7v7h-7V50.8z"/>
</svg>
