<?xml version="1.0" encoding="utf-8"?>
<!-- Generator: Adobe Illustrator 27.3.1, SVG Export Plug-In . SVG Version: 6.00 Build 0)  -->
<svg version="1.1" xmlns="http://www.w3.org/2000/svg" xmlns:xlink="http://www.w3.org/1999/xlink" x="0px" y="0px"
	 viewBox="0 0 251.6 258.8" style="enable-background:new 0 0 251.6 258.8;" xml:space="preserve">
<style type="text/css">
	.st0{fill:#FCE19B;}
	.st1{fill:#1E0E01;}
</style>
<g id="Слой_2">
	<path class="st0" d="M244.3,99.1h4.8c1.4,0,2.5-1.1,2.5-2.5v-7c0-1.4-1.1-2.5-2.5-2.5h-7c-0.1,0-0.1,0-0.1,0c0,0-0.1,0-0.2,0h-4.7
		v-4.7c0-0.1,0-0.1,0-0.2c0,0,0-0.1,0-0.1v-7c0-1.4-1.1-2.5-2.5-2.5h-7c-0.1,0-0.1,0-0.1,0c0,0-0.1,0-0.2,0h-4.7v-4.8
		c0,0,0-0.1,0-0.1c0,0,0-0.1,0-0.1v-7c0-0.1,0-0.1,0-0.1c0,0,0-0.1,0-0.1v-7c0-0.1,0-0.1,0-0.1c0,0,0-0.1,0-0.1v-7c0,0,0-0.1,0-0.1
		c0,0,0-0.1,0-0.1v-7c0-1.4-1.1-2.5-2.5-2.5h-7c-0.1,0-0.1,0-0.1,0c0,0-0.1,0-0.2,0H208v-4.8c0-1.4-1.1-2.5-2.5-2.5h-4.7v-4.7
		c0-1.4-1.1-2.5-2.5-2.5h-4.8V17c0-1.4-1.1-2.5-2.5-2.5h-7c-1.4,0-2.5,1.1-2.5,2.5v4.8H179V17c0-1.4-1.1-2.5-2.5-2.5h-4.8V9.8
		c0-1.4-1.1-2.5-2.5-2.5h-4.7V2.5c0-1.4-1.1-2.5-2.5-2.5h-7c-0.1,0-0.1,0-0.2,0c0,0-0.1,0-0.1,0h-7c-1.4,0-2.5,1.1-2.5,2.5v4.8h-2.5
		V2.5c0-1.4-1.1-2.5-2.5-2.5h-7c-0.1,0-0.1,0-0.2,0c0,0-0.1,0-0.1,0h-7c0,0-0.1,0-0.1,0c0,0-0.1,0-0.1,0h-7c-1.4,0-2.5,1.1-2.5,2.5
		v4.8h-4.8c-1.4,0-2.5,1.1-2.5,2.5v4.7h-4.7c-1.4,0-2.5,1.1-2.5,2.5v4.8h-2.6V17c0-1.4-1.1-2.5-2.5-2.5h-7c-1.4,0-2.5,1.1-2.5,2.5
		v4.8h-4.7c-0.1,0-0.1,0-0.1,0c0,0-0.1,0-0.1,0h-7c0,0-0.1,0-0.1,0c0,0-0.1,0-0.1,0h-7c-0.1,0-0.1,0-0.1,0c0,0-0.1,0-0.1,0h-7
		c-0.1,0-0.1,0-0.1,0c0,0-0.1,0-0.2,0h-7c-1.4,0-2.5,1.1-2.5,2.5v7c0,0,0,0.1,0,0.1c0,0,0,0.1,0,0.1v4.8h-4.7
		c-1.4,0-2.5,1.1-2.5,2.5v4.7h-4.8c0,0-0.1,0-0.1,0c0,0-0.1,0-0.1,0h-7c-1.4,0-2.5,1.1-2.5,2.5v4.8h-4.8c-1.4,0-2.5,1.1-2.5,2.5v7
		c0,0.1,0,0.1,0,0.1c0,0,0,0.1,0,0.1v7c0,0,0,0.1,0,0.1c0,0,0,0.1,0,0.1v7c0,0.1,0,0.1,0,0.1c0,0,0,0.1,0,0.1v7
		c0,1.4,1.1,2.5,2.5,2.5h4.8v4.8c0,1.4,1.1,2.5,2.5,2.5h7c0,0,0.1,0,0.1,0c0,0,0.1,0,0.1,0h4.8v2.5h-4.8c0,0-0.1,0-0.1,0
		c0,0-0.1,0-0.1,0h-7c-1.4,0-2.5,1.1-2.5,2.5v7c0,0,0,0.1,0,0.1c0,0,0,0.1,0,0.1v4.8h-4.8c-0.1,0-0.1,0-0.1,0c0,0-0.1,0-0.1,0h-7
		c-1.4,0-2.5,1.1-2.5,2.5v4.7H9.8c-1.4,0-2.5,1.1-2.5,2.5v7c0,0.1,0,0.1,0,0.1c0,0,0,0.1,0,0.2v7c0,0.1,0,0.1,0,0.1c0,0,0,0.1,0,0.1
		v7c0,0,0,0.1,0,0.1c0,0,0,0.1,0,0.1v4.8H2.5c-1.4,0-2.5,1.1-2.5,2.5v7c0,0.1,0,0.1,0,0.2c0,0,0,0.1,0,0.1v7c0,0,0,0.1,0,0.1
		c0,0,0,0.1,0,0.1v7c0,1.4,1.1,2.5,2.5,2.5h4.8v4.8c0,1.4,1.1,2.5,2.5,2.5h4.7v4.7c0,1.4,1.1,2.5,2.5,2.5h4.8v4.8
		c0,1.4,1.1,2.5,2.5,2.5h4.8v4.7c0,1.4,1.1,2.5,2.5,2.5h4.7v4.8c0,0.1,0,0.1,0,0.1c0,0,0,0.1,0,0.2v4.7h-4.7c-1.4,0-2.5,1.1-2.5,2.5
		v7c0,1.4,1.1,2.5,2.5,2.5h4.7v4.8c0,1.4,1.1,2.5,2.5,2.5h4.8v4.8c0,1.4,1.1,2.5,2.5,2.5h7c0.1,0,0.1,0,0.2,0h7c0.1,0,0.1,0,0.2,0
		c0,0,0.1,0,0.1,0h4.8v4.7c0,1.4,1.1,2.5,2.5,2.5h4.7v4.8c0,1.4,1.1,2.5,2.5,2.5h4.8v4.7c0,1.4,1.1,2.5,2.5,2.5h7c0.1,0,0.1,0,0.2,0
		h7c1.4,0,2.5-1.1,2.5-2.5v-4.7h4.8c1.4,0,2.5-1.1,2.5-2.5v-4.8h2.5v4.8c0,0,0,0.1,0,0.1c0,0,0,0.1,0,0.1v7c0,1.4,1.1,2.5,2.5,2.5h7
		c0.1,0,0.1,0,0.2,0c0,0,0.1,0,0.1,0h7c1.4,0,2.5-1.1,2.5-2.5v-4.7h4.7c0.1,0,0.1,0,0.1,0c0,0,0.1,0,0.2,0h4.8v4.7
		c0,1.4,1.1,2.5,2.5,2.5h7c0.1,0,0.1,0,0.2,0h7c1.4,0,2.5-1.1,2.5-2.5v-4.7h2.5v4.7c0,1.4,1.1,2.5,2.5,2.5h7c0.1,0,0.1,0,0.1,0
		c0,0,0.1,0,0.2,0h7c1.4,0,2.5-1.1,2.5-2.5v-7c0,0,0-0.1,0-0.1c0,0,0-0.1,0-0.1v-7c0-1.4-1.1-2.5-2.5-2.5h-7c-1.4,0-2.5,1.1-2.5,2.5
		v4.7h-2.5v-4.7c0-0.1,0-0.1,0-0.2c0,0,0-0.1,0-0.1v-4.7h4.7c0.1,0,0.1,0,0.1,0c0,0,0.1,0,0.2,0h7c0.1,0,0.1,0,0.1,0
		c0,0,0.1,0,0.2,0h7c0.1,0,0.1,0,0.2,0h7c0.1,0,0.1,0,0.1,0c0,0,0.1,0,0.2,0h7c1.4,0,2.5-1.1,2.5-2.5v-4.8h4.7c0.1,0,0.1,0,0.1,0
		c0,0,0.1,0,0.2,0h7c0.1,0,0.1,0,0.2,0c0,0,0.1,0,0.1,0h7c1.4,0,2.5-1.1,2.5-2.5v-7c0-0.1,0-0.1,0-0.2c0,0,0-0.1,0-0.1v-7
		c0,0,0-0.1,0-0.1c0,0,0-0.1,0-0.1V208h4.7c1.4,0,2.5-1.1,2.5-2.5v-4.8h4.8c1.4,0,2.5-1.1,2.5-2.5v-7c0,0,0-0.1,0-0.1
		c0,0,0-0.1,0-0.1v-7c0-1.4-1.1-2.5-2.5-2.5h-4.8V179h4.8c1.4,0,2.5-1.1,2.5-2.5v-4.8h4.7c1.4,0,2.5-1.1,2.5-2.5v-7c0,0,0-0.1,0-0.1
		c0,0,0-0.1,0-0.1v-7c0-0.1,0-0.1,0-0.1c0,0,0-0.1,0-0.2v-4.8h4.8c1.4,0,2.5-1.1,2.5-2.5v-7c0-1.4-1.1-2.5-2.5-2.5h-4.8v-4.7
		c0-0.1,0-0.1,0-0.1c0,0,0-0.1,0-0.1v-4.8h4.8c1.4,0,2.5-1.1,2.5-2.5v-7c0,0,0-0.1,0-0.1c0,0,0-0.1,0-0.1v-7c0-1.4-1.1-2.5-2.5-2.5
		h-4.8v-4.8c0,0,0-0.1,0-0.1c0,0,0-0.1,0-0.1V99.1z"/>
</g>
<g id="Слой_1">
	<path class="st1" d="M24.3,53.3h7v7h-7V53.3z M31.6,46h7v7h-7V46z M38.8,46h7v7h-7V46z M38.8,53.3h7v7h-7V53.3z M46.1,38.8h7v7h-7
		V38.8z M46.1,53.3h7v7h-7V53.3z M53.3,24.3h7v7h-7V24.3z M53.3,31.5h7v7h-7V31.5z M53.3,46h7v7h-7V46z M9.8,118.6h7v7h-7V118.6z
		 M9.8,125.9h7v7h-7V125.9z M17,111.4h7v7h-7V111.4z M17,125.9h7v7h-7V125.9z M24.3,60.6h7v7h-7V60.6z M24.3,67.8h7v7h-7V67.8z
		 M24.3,75.1h7v7h-7V75.1z M24.3,111.4h7v7h-7V111.4z M24.3,118.6h7v7h-7V118.6z M31.6,60.6h7v7h-7V60.6z M31.6,75.1h7v7h-7V75.1z
		 M31.6,82.4h7v7h-7V82.4z M31.6,96.9h7v7h-7V96.9z M31.6,104.1h7v7h-7V104.1z M31.6,125.9h7v7h-7V125.9z M38.8,67.8h7v7h-7V67.8z
		 M38.8,82.4h7v7h-7V82.4z M38.8,96.9h7v7h-7V96.9z M38.8,111.4h7v7h-7V111.4z M38.8,118.6h7v7h-7V118.6z M46.1,67.8h7v7h-7V67.8z
		 M46.1,75.1h7v7h-7V75.1z M46.1,89.6h7v7h-7V89.6z M46.1,104.1h7v7h-7V104.1z M46.1,118.6h7v7h-7V118.6z M46.1,125.9h7v7h-7V125.9z
		 M53.3,60.6h7v7h-7V60.6z M53.3,75.1h7v7h-7V75.1z M53.3,82.4h7v7h-7V82.4z M53.3,96.9h7v7h-7V96.9z M53.3,104.1h7v7h-7V104.1z
		 M53.3,111.4h7v7h-7V111.4z M53.3,118.6h7v7h-7V118.6z M53.3,125.9h7v7h-7V125.9z M2.5,147.7h7v7h-7V147.7z M2.5,155h7v7h-7V155z
		 M2.5,162.2h7v7h-7V162.2z M9.8,133.2h7v7h-7V133.2z M9.8,140.4h7v7h-7V140.4z M9.8,147.7h7v7h-7V147.7z M9.8,162.2h7v7h-7V162.2z
		 M9.8,169.5h7v7h-7V169.5z M17,140.4h7v7h-7V140.4z M17,155h7v7h-7V155z M17,169.5h7v7h-7V169.5z M17,176.7h7v7h-7V176.7z
		 M24.3,133.2h7v7h-7V133.2z M24.3,147.7h7v7h-7V147.7z M24.3,162.2h7v7h-7V162.2z M24.3,176.7h7v7h-7V176.7z M24.3,184h7v7h-7V184z
		 M31.6,140.4h7v7h-7V140.4z M31.6,155h7v7h-7V155z M31.6,169.5h7v7h-7V169.5z M31.6,184h7v7h-7V184z M31.6,191.2h7v7h-7V191.2z
		 M38.8,133.2h7v7h-7V133.2z M38.8,147.7h7v7h-7V147.7z M38.8,162.2h7v7h-7V162.2z M38.8,176.7h7v7h-7V176.7z M38.8,184h7v7h-7V184z
		 M38.8,198.5h7v7h-7V198.5z M46.1,140.4h7v7h-7V140.4z M46.1,155h7v7h-7V155z M46.1,169.5h7v7h-7V169.5z M46.1,176.7h7v7h-7V176.7z
		 M46.1,191.2h7v7h-7V191.2z M46.1,198.5h7v7h-7V198.5z M53.3,133.2h7v7h-7V133.2z M53.3,140.4h7v7h-7V140.4z M53.3,147.7h7v7h-7
		V147.7z M53.3,155h7v7h-7V155z M53.3,162.2h7v7h-7V162.2z M53.3,169.5h7v7h-7V169.5z M53.3,184h7v7h-7V184z M53.3,191.2h7v7h-7
		V191.2z M31.6,213h7v7h-7V213z M38.8,205.8h7v7h-7V205.8z M38.8,220.3h7v7h-7V220.3z M46.1,213h7v7h-7V213z M46.1,227.6h7v7h-7
		V227.6z M53.3,205.8h7v7h-7V205.8z M53.3,220.3h7v7h-7V220.3z M53.3,227.6h7v7h-7V227.6z M60.6,24.3h7v7h-7V24.3z M60.6,38.8h7v7
		h-7V38.8z M60.6,53.3h7v7h-7V53.3z M67.9,24.3h7v7h-7V24.3z M67.9,31.5h7v7h-7V31.5z M67.9,46h7v7h-7V46z M75.1,24.3h7v7h-7V24.3z
		 M75.1,38.8h7v7h-7V38.8z M75.1,53.3h7v7h-7V53.3z M82.4,24.3h7v7h-7V24.3z M82.4,31.5h7v7h-7V31.5z M82.4,46h7v7h-7V46z M89.6,17
		h7v7h-7V17z M89.6,38.8h7v7h-7V38.8z M89.6,53.3h7v7h-7V53.3z M96.9,24.3h7v7h-7V24.3z M96.9,31.5h7v7h-7V31.5z M96.9,46h7v7h-7V46
		z M104.2,24.3h7v7h-7V24.3z M104.2,17h7v7h-7V17z M104.2,38.8h7v7h-7V38.8z M104.2,53.3h7v7h-7V53.3z M111.4,9.8h7v7h-7V9.8z
		 M111.4,31.5h7v7h-7V31.5z M111.4,46h7v7h-7V46z M118.7,2.5h7v7h-7V2.5z M118.7,17h7v7h-7V17z M118.7,24.3h7v7h-7V24.3z
		 M118.7,38.8h7v7h-7V38.8z M118.7,53.3h7v7h-7V53.3z M125.9,2.5h7v7h-7V2.5z M125.9,9.8h7v7h-7V9.8z M125.9,24.3h7v7h-7V24.3z
		 M125.9,31.5h7v7h-7V31.5z M125.9,46h7v7h-7V46z M60.6,67.8h7v7h-7V67.8z M60.6,82.4h7v7h-7V82.4z M60.6,89.6h7v7h-7V89.6z
		 M60.6,96.9h7v7h-7V96.9z M60.6,104.1h7v7h-7V104.1z M60.6,125.9h7v7h-7V125.9z M67.9,60.6h7v7h-7V60.6z M67.9,67.8h7v7h-7V67.8z
		 M67.9,75.1h7v7h-7V75.1z M67.9,82.4h7v7h-7V82.4z M67.9,89.6h7v7h-7V89.6z M67.9,96.9h7v7h-7V96.9z M67.9,104.1h7v7h-7V104.1z
		 M67.9,125.9h7v7h-7V125.9z M75.1,67.8h7v7h-7V67.8z M75.1,75.1h7v7h-7V75.1z M75.1,82.4h7v7h-7V82.4z M75.1,89.6h7v7h-7V89.6z
		 M75.1,96.9h7v7h-7V96.9z M75.1,104.1h7v7h-7V104.1z M75.1,125.9h7v7h-7V125.9z M82.4,60.6h7v7h-7V60.6z M82.4,67.8h7v7h-7V67.8z
		 M82.4,75.1h7v7h-7V75.1z M82.4,96.9h7v7h-7V96.9z M82.4,125.9h7v7h-7V125.9z M89.6,60.6h7v7h-7V60.6z M89.6,67.8h7v7h-7V67.8z
		 M89.6,96.9h7v7h-7V96.9z M89.6,111.4h7v7h-7V111.4z M89.6,118.6h7v7h-7V118.6z M89.6,125.9h7v7h-7V125.9z M96.9,60.6h7v7h-7V60.6z
		 M96.9,67.8h7v7h-7V67.8z M96.9,82.4h7v7h-7V82.4z M96.9,89.6h7v7h-7V89.6z M96.9,96.9h7v7h-7V96.9z M96.9,118.6h7v7h-7V118.6z
		 M96.9,125.9h7v7h-7V125.9z M104.2,67.8h7v7h-7V67.8z M104.2,75.1h7v7h-7V75.1z M104.2,96.9h7v7h-7V96.9z M104.2,125.9h7v7h-7
		V125.9z M111.4,60.6h7v7h-7V60.6z M111.4,67.8h7v7h-7V67.8z M111.4,75.1h7v7h-7V75.1z M111.4,82.4h7v7h-7V82.4z M111.4,96.9h7v7h-7
		V96.9z M111.4,104.1h7v7h-7V104.1z M111.4,125.9h7v7h-7V125.9z M118.7,60.6h7v7h-7V60.6z M118.7,67.8h7v7h-7V67.8z M118.7,75.1h7v7
		h-7V75.1z M118.7,89.6h7v7h-7V89.6z M118.7,96.9h7v7h-7V96.9z M118.7,104.1h7v7h-7V104.1z M118.7,111.4h7v7h-7V111.4z M118.7,118.6
		h7v7h-7V118.6z M118.7,125.9h7v7h-7V125.9z M125.9,60.6h7v7h-7V60.6z M125.9,67.8h7v7h-7V67.8z M125.9,111.4h7v7h-7V111.4z
		 M125.9,118.6h7v7h-7V118.6z M125.9,125.9h7v7h-7V125.9z M60.6,133.2h7v7h-7V133.2z M60.6,140.4h7v7h-7V140.4z M60.6,162.2h7v7h-7
		V162.2z M60.6,169.5h7v7h-7V169.5z M60.6,176.7h7v7h-7V176.7z M60.6,191.2h7v7h-7V191.2z M60.6,198.5h7v7h-7V198.5z M67.9,133.2h7
		v7h-7V133.2z M67.9,169.5h7v7h-7V169.5z M67.9,176.7h7v7h-7V176.7z M67.9,184h7v7h-7V184z M67.9,191.2h7v7h-7V191.2z M75.1,133.2h7
		v7h-7V133.2z M75.1,162.2h7v7h-7V162.2z M75.1,169.5h7v7h-7V169.5z M75.1,191.2h7v7h-7V191.2z M75.1,198.5h7v7h-7V198.5z
		 M82.4,162.2h7v7h-7V162.2z M82.4,169.5h7v7h-7V169.5z M82.4,184h7v7h-7V184z M82.4,191.2h7v7h-7V191.2z M82.4,198.5h7v7h-7V198.5z
		 M89.6,155h7v7h-7V155z M89.6,162.2h7v7h-7V162.2z M89.6,176.7h7v7h-7V176.7z M89.6,184h7v7h-7V184z M89.6,191.2h7v7h-7V191.2z
		 M89.6,198.5h7v7h-7V198.5z M96.9,133.2h7v7h-7V133.2z M96.9,147.7h7v7h-7V147.7z M96.9,155h7v7h-7V155z M96.9,169.5h7v7h-7V169.5z
		 M96.9,176.7h7v7h-7V176.7z M104.2,133.2h7v7h-7V133.2z M104.2,140.4h7v7h-7V140.4z M104.2,169.5h7v7h-7V169.5z M111.4,133.2h7v7
		h-7V133.2z M111.4,162.2h7v7h-7V162.2z M111.4,169.5h7v7h-7V169.5z M111.4,176.7h7v7h-7V176.7z M111.4,198.5h7v7h-7V198.5z
		 M118.7,133.2h7v7h-7V133.2z M118.7,140.4h7v7h-7V140.4z M118.7,147.7h7v7h-7V147.7z M118.7,155h7v7h-7V155z M118.7,162.2h7v7h-7
		V162.2z M118.7,184h7v7h-7V184z M118.7,191.2h7v7h-7V191.2z M118.7,198.5h7v7h-7V198.5z M125.9,133.2h7v7h-7V133.2z M125.9,140.4h7
		v7h-7V140.4z M125.9,147.7h7v7h-7V147.7z M125.9,155h7v7h-7V155z M125.9,162.2h7v7h-7V162.2z M125.9,169.5h7v7h-7V169.5z M60.6,213
		h7v7h-7V213z M60.6,227.6h7v7h-7V227.6z M67.9,205.8h7v7h-7V205.8z M67.9,220.3h7v7h-7V220.3z M67.9,234.8h7v7h-7V234.8z M75.1,213
		h7v7h-7V213z M75.1,227.6h7v7h-7V227.6z M75.1,242.1h7v7h-7V242.1z M82.4,205.8h7v7h-7V205.8z M82.4,220.3h7v7h-7V220.3z
		 M82.4,234.8h7v7h-7V234.8z M82.4,249.3h7v7h-7V249.3z M89.6,213h7v7h-7V213z M89.6,227.6h7v7h-7V227.6z M89.6,242.1h7v7h-7V242.1z
		 M89.6,249.3h7v7h-7V249.3z M96.9,205.8h7v7h-7V205.8z M96.9,220.3h7v7h-7V220.3z M96.9,234.8h7v7h-7V234.8z M96.9,242.1h7v7h-7
		V242.1z M104.2,205.8h7v7h-7V205.8z M104.2,213h7v7h-7V213z M104.2,220.3h7v7h-7V220.3z M104.2,227.6h7v7h-7V227.6z M104.2,234.8h7
		v7h-7V234.8z M111.4,213h7v7h-7V213z M111.4,227.6h7v7h-7V227.6z M111.4,242.1h7v7h-7V242.1z M111.4,249.3h7v7h-7V249.3z
		 M118.7,205.8h7v7h-7V205.8z M118.7,220.3h7v7h-7V220.3z M118.7,234.8h7v7h-7V234.8z M118.7,249.3h7v7h-7V249.3z M125.9,213h7v7h-7
		V213z M125.9,227.6h7v7h-7V227.6z M125.9,242.1h7v7h-7V242.1z M133.2,2.5h7v7h-7V2.5z M133.2,17h7v7h-7V17z M133.2,31.5h7v7h-7
		V31.5z M133.2,38.8h7v7h-7V38.8z M133.2,53.3h7v7h-7V53.3z M140.5,9.8h7v7h-7V9.8z M140.5,24.3h7v7h-7V24.3z M140.5,38.8h7v7h-7
		V38.8z M140.5,46h7v7h-7V46z M140.5,53.3h7v7h-7V53.3z M147.7,2.5h7v7h-7V2.5z M147.7,9.8h7v7h-7V9.8z M147.7,17h7v7h-7V17z
		 M147.7,24.3h7v7h-7V24.3z M147.7,31.5h7v7h-7V31.5z M147.7,38.8h7v7h-7V38.8z M147.7,53.3h7v7h-7V53.3z M155,2.5h7v7h-7V2.5z
		 M155,17h7v7h-7V17z M155,31.5h7v7h-7V31.5z M155,46h7v7h-7V46z M155,53.3h7v7h-7V53.3z M162.2,9.8h7v7h-7V9.8z M162.2,24.3h7v7h-7
		V24.3z M162.2,38.8h7v7h-7V38.8z M162.2,53.3h7v7h-7V53.3z M169.5,17h7v7h-7V17z M169.5,31.5h7v7h-7V31.5z M169.5,46h7v7h-7V46z
		 M176.8,24.3h7v7h-7V24.3z M176.8,38.8h7v7h-7V38.8z M176.8,53.3h7v7h-7V53.3z M184,17h7v7h-7V17z M184,31.5h7v7h-7V31.5z M184,46
		h7v7h-7V46z M191.3,24.3h7v7h-7V24.3z M191.3,38.8h7v7h-7V38.8z M191.3,53.3h7v7h-7V53.3z M198.5,31.5h7v7h-7V31.5z M198.5,46h7v7
		h-7V46z M133.2,60.6h7v7h-7V60.6z M133.2,67.8h7v7h-7V67.8z M133.2,75.1h7v7h-7V75.1z M133.2,82.4h7v7h-7V82.4z M133.2,89.6h7v7h-7
		V89.6z M133.2,96.9h7v7h-7V96.9z M133.2,104.1h7v7h-7V104.1z M133.2,111.4h7v7h-7V111.4z M133.2,118.6h7v7h-7V118.6z M133.2,125.9
		h7v7h-7V125.9z M140.5,60.6h7v7h-7V60.6z M140.5,89.6h7v7h-7V89.6z M140.5,96.9h7v7h-7V96.9z M140.5,111.4h7v7h-7V111.4z
		 M140.5,118.6h7v7h-7V118.6z M140.5,125.9h7v7h-7V125.9z M147.7,104.1h7v7h-7V104.1z M147.7,111.4h7v7h-7V111.4z M147.7,125.9h7v7
		h-7V125.9z M155,60.6h7v7h-7V60.6z M155,67.8h7v7h-7V67.8z M155,75.1h7v7h-7V75.1z M155,82.4h7v7h-7V82.4z M155,89.6h7v7h-7V89.6z
		 M155,96.9h7v7h-7V96.9z M155,104.1h7v7h-7V104.1z M155,125.9h7v7h-7V125.9z M162.2,60.6h7v7h-7V60.6z M162.2,96.9h7v7h-7V96.9z
		 M162.2,104.1h7v7h-7V104.1z M162.2,125.9h7v7h-7V125.9z M169.5,60.6h7v7h-7V60.6z M169.5,104.1h7v7h-7V104.1z M169.5,118.6h7v7h-7
		V118.6z M169.5,125.9h7v7h-7V125.9z M176.8,60.6h7v7h-7V60.6z M176.8,67.8h7v7h-7V67.8z M176.8,75.1h7v7h-7V75.1z M176.8,82.4h7v7
		h-7V82.4z M176.8,89.6h7v7h-7V89.6z M176.8,104.1h7v7h-7V104.1z M176.8,118.6h7v7h-7V118.6z M184,60.6h7v7h-7V60.6z M184,75.1h7v7
		h-7V75.1z M184,89.6h7v7h-7V89.6z M184,96.9h7v7h-7V96.9z M184,111.4h7v7h-7V111.4z M184,118.6h7v7h-7V118.6z M191.3,67.8h7v7h-7
		V67.8z M191.3,82.4h7v7h-7V82.4z M191.3,89.6h7v7h-7V89.6z M191.3,104.1h7v7h-7V104.1z M191.3,111.4h7v7h-7V111.4z M191.3,118.6h7
		v7h-7V118.6z M191.3,125.9h7v7h-7V125.9z M198.5,60.6h7v7h-7V60.6z M198.5,75.1h7v7h-7V75.1z M198.5,82.4h7v7h-7V82.4z M198.5,96.9
		h7v7h-7V96.9z M198.5,104.1h7v7h-7V104.1z M198.5,111.4h7v7h-7V111.4z M198.5,118.6h7v7h-7V118.6z M198.5,125.9h7v7h-7V125.9z
		 M133.2,133.2h7v7h-7V133.2z M133.2,176.7h7v7h-7V176.7z M133.2,184h7v7h-7V184z M133.2,191.2h7v7h-7V191.2z M133.2,198.5h7v7h-7
		V198.5z M140.5,133.2h7v7h-7V133.2z M140.5,140.4h7v7h-7V140.4z M140.5,176.7h7v7h-7V176.7z M140.5,198.5h7v7h-7V198.5z
		 M147.7,140.4h7v7h-7V140.4z M147.7,147.7h7v7h-7V147.7z M147.7,184h7v7h-7V184z M147.7,191.2h7v7h-7V191.2z M155,147.7h7v7h-7
		V147.7z M155,155h7v7h-7V155z M155,162.2h7v7h-7V162.2z M155,169.5h7v7h-7V169.5z M155,176.7h7v7h-7V176.7z M155,191.2h7v7h-7
		V191.2z M155,198.5h7v7h-7V198.5z M162.2,155h7v7h-7V155z M162.2,162.2h7v7h-7V162.2z M162.2,191.2h7v7h-7V191.2z M162.2,198.5h7v7
		h-7V198.5z M169.5,155h7v7h-7V155z M169.5,162.2h7v7h-7V162.2z M169.5,169.5h7v7h-7V169.5z M169.5,191.2h7v7h-7V191.2z
		 M176.8,147.7h7v7h-7V147.7z M176.8,169.5h7v7h-7V169.5z M176.8,176.7h7v7h-7V176.7z M176.8,184h7v7h-7V184z M176.8,198.5h7v7h-7
		V198.5z M184,147.7h7v7h-7V147.7z M184,169.5h7v7h-7V169.5z M184,176.7h7v7h-7V176.7z M184,184h7v7h-7V184z M184,191.2h7v7h-7
		V191.2z M191.3,133.2h7v7h-7V133.2z M191.3,140.4h7v7h-7V140.4z M191.3,147.7h7v7h-7V147.7z M191.3,169.5h7v7h-7V169.5z
		 M191.3,176.7h7v7h-7V176.7z M191.3,191.2h7v7h-7V191.2z M198.5,133.2h7v7h-7V133.2z M198.5,140.4h7v7h-7V140.4z M198.5,147.7h7v7
		h-7V147.7z M198.5,155h7v7h-7V155z M198.5,162.2h7v7h-7V162.2z M198.5,169.5h7v7h-7V169.5z M198.5,176.7h7v7h-7V176.7z M198.5,184
		h7v7h-7V184z M198.5,198.5h7v7h-7V198.5z M133.2,205.8h7v7h-7V205.8z M133.2,220.3h7v7h-7V220.3z M133.2,234.8h7v7h-7V234.8z
		 M133.2,242.1h7v7h-7V242.1z M140.5,213h7v7h-7V213z M140.5,227.6h7v7h-7V227.6z M140.5,234.8h7v7h-7V234.8z M140.5,249.3h7v7h-7
		V249.3z M147.7,205.8h7v7h-7V205.8z M147.7,213h7v7h-7V213z M147.7,220.3h7v7h-7V220.3z M147.7,227.6h7v7h-7V227.6z M147.7,242.1h7
		v7h-7V242.1z M147.7,249.3h7v7h-7V249.3z M155,205.8h7v7h-7V205.8z M155,220.3h7v7h-7V220.3z M155,234.8h7v7h-7V234.8z M155,242.1
		h7v7h-7V242.1z M162.2,213h7v7h-7V213z M162.2,227.6h7v7h-7V227.6z M162.2,249.3h7v7h-7V249.3z M169.5,205.8h7v7h-7V205.8z
		 M169.5,220.3h7v7h-7V220.3z M169.5,227.6h7v7h-7V227.6z M169.5,242.1h7v7h-7V242.1z M169.5,249.3h7v7h-7V249.3z M176.8,213h7v7h-7
		V213z M176.8,227.6h7v7h-7V227.6z M184,205.8h7v7h-7V205.8z M184,220.3h7v7h-7V220.3z M184,227.6h7v7h-7V227.6z M191.3,205.8h7v7
		h-7V205.8z M191.3,213h7v7h-7V213z M191.3,227.6h7v7h-7V227.6z M198.5,213h7v7h-7V213z M198.5,220.3h7v7h-7V220.3z M205.8,38.8h7v7
		h-7V38.8z M205.8,53.3h7v7h-7V53.3z M213.1,38.8h7v7h-7V38.8z M213.1,46h7v7h-7V46z M213.1,53.3h7v7h-7V53.3z M205.8,67.8h7v7h-7
		V67.8z M205.8,89.6h7v7h-7V89.6z M205.8,96.9h7v7h-7V96.9z M205.8,111.4h7v7h-7V111.4z M205.8,125.9h7v7h-7V125.9z M213.1,60.6h7v7
		h-7V60.6z M213.1,67.8h7v7h-7V67.8z M213.1,75.1h7v7h-7V75.1z M213.1,82.4h7v7h-7V82.4z M213.1,96.9h7v7h-7V96.9z M213.1,104.1h7v7
		h-7V104.1z M213.1,118.6h7v7h-7V118.6z M220.3,75.1h7v7h-7V75.1z M220.3,89.6h7v7h-7V89.6z M220.3,96.9h7v7h-7V96.9z M220.3,111.4
		h7v7h-7V111.4z M220.3,125.9h7v7h-7V125.9z M227.6,75.1h7v7h-7V75.1z M227.6,82.4h7v7h-7V82.4z M227.6,89.6h7v7h-7V89.6z
		 M227.6,104.1h7v7h-7V104.1z M227.6,118.6h7v7h-7V118.6z M234.8,89.6h7v7h-7V89.6z M234.8,96.9h7v7h-7V96.9z M234.8,104.1h7v7h-7
		V104.1z M234.8,118.6h7v7h-7V118.6z M234.8,125.9h7v7h-7V125.9z M242.1,89.6h7v7h-7V89.6z M242.1,111.4h7v7h-7V111.4z M242.1,118.6
		h7v7h-7V118.6z M205.8,140.4h7v7h-7V140.4z M205.8,155h7v7h-7V155z M205.8,169.5h7v7h-7V169.5z M205.8,184h7v7h-7V184z
		 M205.8,198.5h7v7h-7V198.5z M213.1,133.2h7v7h-7V133.2z M213.1,147.7h7v7h-7V147.7z M213.1,162.2h7v7h-7V162.2z M213.1,176.7h7v7
		h-7V176.7z M213.1,191.2h7v7h-7V191.2z M220.3,140.4h7v7h-7V140.4z M220.3,155h7v7h-7V155z M220.3,176.7h7v7h-7V176.7z M220.3,184
		h7v7h-7V184z M220.3,198.5h7v7h-7V198.5z M227.6,133.2h7v7h-7V133.2z M227.6,140.4h7v7h-7V140.4z M227.6,147.7h7v7h-7V147.7z
		 M227.6,162.2h7v7h-7V162.2z M227.6,169.5h7v7h-7V169.5z M227.6,184h7v7h-7V184z M227.6,191.2h7v7h-7V191.2z M234.8,133.2h7v7h-7
		V133.2z M234.8,147.7h7v7h-7V147.7z M234.8,155h7v7h-7V155z M234.8,162.2h7v7h-7V162.2z M242.1,140.4h7v7h-7V140.4z M205.8,205.8h7
		v7h-7V205.8z M205.8,220.3h7v7h-7V220.3z M213.1,205.8h7v7h-7V205.8z M213.1,213h7v7h-7V213z M213.1,220.3h7v7h-7V220.3z"/>
</g>
</svg>
