<?xml version="1.0" encoding="utf-8"?>
<!-- Generator: Adobe Illustrator 27.3.1, SVG Export Plug-In . SVG Version: 6.00 Build 0)  -->
<svg version="1.1" xmlns="http://www.w3.org/2000/svg" xmlns:xlink="http://www.w3.org/1999/xlink" x="0px" y="0px"
	 viewBox="0 0 175 167.7" style="enable-background:new 0 0 175 167.7;" xml:space="preserve">
<style type="text/css">
	.st0{fill:#FCE19B;}
	.st1{fill:#1E0E01;}
</style>
<g id="Слой_2">
	<path class="st0" d="M175,51.4c0-0.3-0.2-0.5-0.5-0.5h-6.8v-6.8c0-0.1,0-0.1,0-0.1c0,0,0-0.1,0-0.1v-7c0-0.3-0.2-0.5-0.5-0.5h-6.7
		v-6.7c0-0.3-0.2-0.5-0.5-0.5h-7c-0.1,0-0.1,0-0.1,0c0,0-0.1,0-0.2,0H146v-6.8c0-0.3-0.2-0.5-0.5-0.5h-7c-0.1,0-0.1,0-0.1,0
		c0,0-0.1,0-0.2,0h-7c-0.1,0-0.1,0-0.2,0c0,0-0.1,0-0.1,0h-7c0,0-0.1,0-0.1,0c0,0-0.1,0-0.1,0h-7c-0.3,0-0.5,0.2-0.5,0.5v6.8h-6.5
		v-6.8c0-0.1,0-0.1,0-0.1c0,0,0-0.1,0-0.2v-7c0-0.3-0.2-0.5-0.5-0.5h-6.8V7.8c0-0.3-0.2-0.5-0.5-0.5h-6.8V0.5c0-0.3-0.2-0.5-0.5-0.5
		h-7c0,0-0.1,0-0.1,0c0,0-0.1,0-0.1,0h-7c-0.1,0-0.1,0-0.1,0c0,0-0.1,0-0.1,0h-7c0,0-0.1,0-0.1,0c0,0-0.1,0-0.1,0h-7
		c-0.1,0-0.1,0-0.1,0c0,0-0.1,0-0.1,0h-7c-0.1,0-0.1,0-0.2,0c0,0-0.1,0-0.1,0h-7c-0.3,0-0.5,0.2-0.5,0.5v6.8h-6.7
		c-0.1,0-0.1,0-0.2,0c0,0-0.1,0-0.1,0h-7c-0.3,0-0.5,0.2-0.5,0.5v6.7h-6.7c-0.1,0-0.1,0-0.2,0c0,0-0.1,0-0.1,0h-7
		c-0.3,0-0.5,0.2-0.5,0.5v6.8H15c-0.3,0-0.5,0.2-0.5,0.5v7c0,0.1,0,0.1,0,0.1c0,0,0,0.1,0,0.1v6.7H7.8c-0.3,0-0.5,0.2-0.5,0.5v7
		c0,0.1,0,0.1,0,0.1c0,0,0,0.1,0,0.1v6.8H0.5c-0.3,0-0.5,0.2-0.5,0.5v7c0,0.3,0.2,0.5,0.5,0.5h6.8v6.7c0,0.3,0.2,0.5,0.5,0.5h6.7
		v6.8c0,0.3,0.2,0.5,0.5,0.5h6.8v6.5H15c0,0-0.1,0-0.1,0c0,0-0.1,0-0.1,0h-7c-0.3,0-0.5,0.2-0.5,0.5v6.7H0.5c-0.3,0-0.5,0.2-0.5,0.5
		v7c0,0.1,0,0.1,0,0.1c0,0,0,0.1,0,0.2v7c0,0.1,0,0.1,0,0.2c0,0,0,0.1,0,0.1v7c0,0,0,0.1,0,0.1c0,0,0,0.1,0,0.1v7c0,0.1,0,0.1,0,0.2
		c0,0,0,0.1,0,0.1v7c0,0.3,0.2,0.5,0.5,0.5h6.8v6.8c0,0,0,0.1,0,0.1c0,0,0,0.1,0,0.1v7c0,0.3,0.2,0.5,0.5,0.5h6.7v6.8
		c0,0.3,0.2,0.5,0.5,0.5h6.8v6.7c0,0.3,0.2,0.5,0.5,0.5h7c0.1,0,0.1,0,0.1,0c0,0,0.1,0,0.2,0h6.7v6.8c0,0.3,0.2,0.5,0.5,0.5h7
		c0.1,0,0.1,0,0.1,0c0,0,0.1,0,0.2,0h7c0,0,0.1,0,0.1,0c0,0,0.1,0,0.1,0h7c0.3,0,0.5-0.2,0.5-0.5v-6.8h6.8c0.1,0,0.1,0,0.1,0
		c0,0,0.1,0,0.1,0h7c0.3,0,0.5-0.2,0.5-0.5V146h6.5v6.7c0,0.1,0,0.1,0,0.2c0,0,0,0.1,0,0.2v7c0,0.3,0.2,0.5,0.5,0.5h6.7v6.7
		c0,0.3,0.2,0.5,0.5,0.5h7c0.1,0,0.1,0,0.2,0c0,0,0.1,0,0.2,0h7c0.1,0,0.1,0,0.1,0c0,0,0.1,0,0.2,0h7c0,0,0.1,0,0.1,0
		c0,0,0.1,0,0.1,0h7c0.1,0,0.1,0,0.1,0c0,0,0.1,0,0.2,0h7c0.3,0,0.5-0.2,0.5-0.5v-6.7h6.7c0.1,0,0.1,0,0.1,0c0,0,0.1,0,0.2,0h7
		c0.3,0,0.5-0.2,0.5-0.5v-6.8h6.8c0,0,0.1,0,0.1,0c0,0,0.1,0,0.1,0h7c0.3,0,0.5-0.2,0.5-0.5V146h6.8c0.3,0,0.5-0.2,0.5-0.5v-7
		c0-0.1,0-0.1,0-0.2c0,0,0-0.1,0-0.2v-6.7h6.7c0.3,0,0.5-0.2,0.5-0.5v-7c0-0.1,0-0.1,0-0.2c0,0,0-0.1,0-0.2v-7c0-0.1,0-0.1,0-0.1
		c0,0,0-0.1,0-0.2v-6.7h6.8c0.3,0,0.5-0.2,0.5-0.5v-7c0-0.1,0-0.1,0-0.1c0,0,0-0.1,0-0.2v-7c0-0.1,0-0.1,0-0.2c0,0,0-0.1,0-0.1v-7
		c0,0,0-0.1,0-0.1c0,0,0-0.1,0-0.1v-7c0-0.1,0-0.1,0-0.1c0,0,0-0.1,0-0.1v-7c0,0,0-0.1,0-0.1c0,0,0-0.1,0-0.1v-7c0-0.1,0-0.1,0-0.1
		c0,0,0-0.1,0-0.1v-7c0,0,0-0.1,0-0.1c0,0,0-0.1,0-0.1V51.4z"/>
</g>
<g id="Слой_3">
	<path class="st1" d="M15,22.3h7v7h-7V22.3z M22.3,15h7v7h-7V15z M29.6,15h7v7h-7V15z M29.6,22.3h7v7h-7V22.3z M36.8,7.8h7v7h-7V7.8
		z M36.8,22.3h7v7h-7V22.3z M44.1,7.8h7v7h-7V7.8z M44.1,22.3h7v7h-7V22.3z M51.3,0.5h7v7h-7V0.5z M51.3,15h7v7h-7V15z M0.5,51.4h7
		v7h-7V51.4z M0.5,87.6h7v7h-7V87.6z M0.5,94.9h7v7h-7V94.9z M7.8,36.8h7v7h-7V36.8z M7.8,44.1h7v7h-7V44.1z M7.8,58.6h7v7h-7V58.6z
		 M7.8,80.4h7v7h-7V80.4z M7.8,94.9h7v7h-7V94.9z M15,29.6h7v7h-7V29.6z M15,51.4h7v7h-7V51.4z M15,65.9h7v7h-7V65.9z M15,80.4h7v7
		h-7V80.4z M15,87.6h7v7h-7V87.6z M22.3,29.6h7v7h-7V29.6z M22.3,36.8h7v7h-7V36.8z M22.3,44.1h7v7h-7V44.1z M22.3,58.6h7v7h-7V58.6
		z M22.3,73.1h7v7h-7V73.1z M22.3,87.6h7v7h-7V87.6z M22.3,94.9h7v7h-7V94.9z M29.6,36.8h7v7h-7V36.8z M29.6,51.4h7v7h-7V51.4z
		 M29.6,65.9h7v7h-7V65.9z M29.6,80.4h7v7h-7V80.4z M29.6,94.9h7v7h-7V94.9z M36.8,29.6h7v7h-7V29.6z M36.8,44.1h7v7h-7V44.1z
		 M36.8,51.4h7v7h-7V51.4z M36.8,58.6h7v7h-7V58.6z M36.8,73.1h7v7h-7V73.1z M36.8,87.6h7v7h-7V87.6z M44.1,44.1h7v7h-7V44.1z
		 M44.1,51.4h7v7h-7V51.4z M44.1,65.9h7v7h-7V65.9z M44.1,80.4h7v7h-7V80.4z M44.1,94.9h7v7h-7V94.9z M51.3,29.6h7v7h-7V29.6z
		 M51.3,36.8h7v7h-7V36.8z M51.3,44.1h7v7h-7V44.1z M51.3,65.9h7v7h-7V65.9z M51.3,80.4h7v7h-7V80.4z M51.3,87.6h7v7h-7V87.6z
		 M51.3,94.9h7v7h-7V94.9z M0.5,102.2h7v7h-7V102.2z M0.5,109.4h7v7h-7V109.4z M0.5,116.7h7v7h-7V116.7z M7.8,109.4h7v7h-7V109.4z
		 M7.8,124h7v7h-7V124z M7.8,131.2h7v7h-7V131.2z M15,102.2h7v7h-7V102.2z M15,116.7h7v7h-7V116.7z M15,131.2h7v7h-7V131.2z
		 M15,138.5h7v7h-7V138.5z M22.3,109.4h7v7h-7V109.4z M22.3,124h7v7h-7V124z M22.3,131.2h7v7h-7V131.2z M22.3,145.7h7v7h-7V145.7z
		 M29.6,102.2h7v7h-7V102.2z M29.6,109.4h7v7h-7V109.4z M29.6,116.7h7v7h-7V116.7z M29.6,124h7v7h-7V124z M29.6,138.5h7v7h-7V138.5z
		 M29.6,145.7h7v7h-7V145.7z M36.8,102.2h7v7h-7V102.2z M36.8,116.7h7v7h-7V116.7z M36.8,131.2h7v7h-7V131.2z M36.8,138.5h7v7h-7
		V138.5z M36.8,153h7v7h-7V153z M44.1,102.2h7v7h-7V102.2z M44.1,109.4h7v7h-7V109.4z M44.1,124h7v7h-7V124z M44.1,145.7h7v7h-7
		V145.7z M44.1,153h7v7h-7V153z M51.3,116.7h7v7h-7V116.7z M51.3,124h7v7h-7V124z M51.3,131.2h7v7h-7V131.2z M51.3,138.5h7v7h-7
		V138.5z M51.3,153h7v7h-7V153z M58.6,0.5h7v7h-7V0.5z M58.6,15h7v7h-7V15z M58.6,22.3h7v7h-7V22.3z M65.9,0.5h7v7h-7V0.5z
		 M65.9,7.8h7v7h-7V7.8z M65.9,22.3h7v7h-7V22.3z M73.1,0.5h7v7h-7V0.5z M73.1,15h7v7h-7V15z M73.1,22.3h7v7h-7V22.3z M80.4,0.5h7v7
		h-7V0.5z M80.4,7.8h7v7h-7V7.8z M80.4,22.3h7v7h-7V22.3z M87.6,0.5h7v7h-7V0.5z M87.6,15h7v7h-7V15z M94.9,7.8h7v7h-7V7.8z
		 M94.9,22.3h7v7h-7V22.3z M102.2,15h7v7h-7V15z M102.2,22.3h7v7h-7V22.3z M116.7,22.3h7v7h-7V22.3z M123.9,22.3h7v7h-7V22.3z
		 M58.6,29.6h7v7h-7V29.6z M58.6,51.4h7v7h-7V51.4z M58.6,58.6h7v7h-7V58.6z M58.6,65.9h7v7h-7V65.9z M58.6,73.1h7v7h-7V73.1z
		 M58.6,80.4h7v7h-7V80.4z M58.6,94.9h7v7h-7V94.9z M65.9,29.6h7v7h-7V29.6z M65.9,36.8h7v7h-7V36.8z M65.9,58.6h7v7h-7V58.6z
		 M65.9,65.9h7v7h-7V65.9z M65.9,80.4h7v7h-7V80.4z M65.9,94.9h7v7h-7V94.9z M73.1,44.1h7v7h-7V44.1z M73.1,51.4h7v7h-7V51.4z
		 M73.1,58.6h7v7h-7V58.6z M73.1,73.1h7v7h-7V73.1z M73.1,80.4h7v7h-7V80.4z M73.1,87.6h7v7h-7V87.6z M73.1,94.9h7v7h-7V94.9z
		 M80.4,29.6h7v7h-7V29.6z M80.4,36.8h7v7h-7V36.8z M80.4,44.1h7v7h-7V44.1z M80.4,58.6h7v7h-7V58.6z M80.4,65.9h7v7h-7V65.9z
		 M80.4,73.1h7v7h-7V73.1z M80.4,87.6h7v7h-7V87.6z M87.6,29.6h7v7h-7V29.6z M87.6,51.4h7v7h-7V51.4z M87.6,65.9h7v7h-7V65.9z
		 M87.6,87.6h7v7h-7V87.6z M87.6,94.9h7v7h-7V94.9z M94.9,29.6h7v7h-7V29.6z M94.9,44.1h7v7h-7V44.1z M94.9,51.4h7v7h-7V51.4z
		 M94.9,58.6h7v7h-7V58.6z M94.9,65.9h7v7h-7V65.9z M94.9,73.1h7v7h-7V73.1z M94.9,80.4h7v7h-7V80.4z M94.9,87.6h7v7h-7V87.6z
		 M102.2,36.8h7v7h-7V36.8z M102.2,44.1h7v7h-7V44.1z M102.2,58.6h7v7h-7V58.6z M102.2,73.1h7v7h-7V73.1z M102.2,87.6h7v7h-7V87.6z
		 M109.4,29.6h7v7h-7V29.6z M109.4,44.1h7v7h-7V44.1z M109.4,51.4h7v7h-7V51.4z M109.4,58.6h7v7h-7V58.6z M109.4,65.9h7v7h-7V65.9z
		 M109.4,73.1h7v7h-7V73.1z M109.4,80.4h7v7h-7V80.4z M109.4,87.6h7v7h-7V87.6z M109.4,94.9h7v7h-7V94.9z M116.7,36.8h7v7h-7V36.8z
		 M116.7,44.1h7v7h-7V44.1z M116.7,58.6h7v7h-7V58.6z M116.7,73.1h7v7h-7V73.1z M116.7,87.6h7v7h-7V87.6z M116.7,94.9h7v7h-7V94.9z
		 M123.9,36.8h7v7h-7V36.8z M123.9,44.1h7v7h-7V44.1z M123.9,51.4h7v7h-7V51.4z M123.9,58.6h7v7h-7V58.6z M123.9,65.9h7v7h-7V65.9z
		 M123.9,73.1h7v7h-7V73.1z M123.9,80.4h7v7h-7V80.4z M123.9,94.9h7v7h-7V94.9z M58.6,109.4h7v7h-7V109.4z M58.6,124h7v7h-7V124z
		 M58.6,138.5h7v7h-7V138.5z M58.6,145.7h7v7h-7V145.7z M65.9,102.2h7v7h-7V102.2z M65.9,109.4h7v7h-7V109.4z M65.9,116.7h7v7h-7
		V116.7z M65.9,124h7v7h-7V124z M65.9,131.2h7v7h-7V131.2z M65.9,145.7h7v7h-7V145.7z M73.1,102.2h7v7h-7V102.2z M73.1,116.7h7v7h-7
		V116.7z M73.1,131.2h7v7h-7V131.2z M73.1,138.5h7v7h-7V138.5z M80.4,102.2h7v7h-7V102.2z M80.4,109.4h7v7h-7V109.4z M80.4,124h7v7
		h-7V124z M80.4,131.2h7v7h-7V131.2z M80.4,145.7h7v7h-7V145.7z M80.4,153h7v7h-7V153z M87.6,109.4h7v7h-7V109.4z M87.6,116.7h7v7
		h-7V116.7z M87.6,131.2h7v7h-7V131.2z M87.6,138.5h7v7h-7V138.5z M94.9,102.2h7v7h-7V102.2z M94.9,109.4h7v7h-7V109.4z M94.9,116.7
		h7v7h-7V116.7z M94.9,124h7v7h-7V124z M94.9,138.5h7v7h-7V138.5z M94.9,153h7v7h-7V153z M102.2,102.2h7v7h-7V102.2z M102.2,116.7h7
		v7h-7V116.7z M102.2,131.2h7v7h-7V131.2z M102.2,145.7h7v7h-7V145.7z M109.4,102.2h7v7h-7V102.2z M109.4,116.7h7v7h-7V116.7z
		 M109.4,124h7v7h-7V124z M109.4,138.5h7v7h-7V138.5z M109.4,153h7v7h-7V153z M116.7,109.4h7v7h-7V109.4z M116.7,124h7v7h-7V124z
		 M116.7,131.2h7v7h-7V131.2z M116.7,145.7h7v7h-7V145.7z M123.9,102.2h7v7h-7V102.2z M123.9,109.4h7v7h-7V109.4z M123.9,116.7h7v7
		h-7V116.7z M123.9,131.2h7v7h-7V131.2z M123.9,138.5h7v7h-7V138.5z M123.9,145.7h7v7h-7V145.7z M123.9,153h7v7h-7V153z M131.2,22.3
		h7v7h-7V22.3z M138.5,22.3h7v7h-7V22.3z M131.2,29.6h7v7h-7V29.6z M131.2,36.8h7v7h-7V36.8z M131.2,44.1h7v7h-7V44.1z M131.2,58.6
		h7v7h-7V58.6z M131.2,65.9h7v7h-7V65.9z M131.2,80.4h7v7h-7V80.4z M131.2,94.9h7v7h-7V94.9z M138.5,36.8h7v7h-7V36.8z M138.5,44.1
		h7v7h-7V44.1z M138.5,51.4h7v7h-7V51.4z M138.5,65.9h7v7h-7V65.9z M138.5,73.1h7v7h-7V73.1z M138.5,80.4h7v7h-7V80.4z M138.5,87.6
		h7v7h-7V87.6z M145.7,29.6h7v7h-7V29.6z M145.7,36.8h7v7h-7V36.8z M145.7,51.4h7v7h-7V51.4z M145.7,58.6h7v7h-7V58.6z M145.7,73.1
		h7v7h-7V73.1z M145.7,87.6h7v7h-7V87.6z M145.7,94.9h7v7h-7V94.9z M153,29.6h7v7h-7V29.6z M153,44.1h7v7h-7V44.1z M153,58.6h7v7h-7
		V58.6z M153,73.1h7v7h-7V73.1z M153,87.6h7v7h-7V87.6z M160.2,36.8h7v7h-7V36.8z M160.2,44.1h7v7h-7V44.1z M160.2,51.4h7v7h-7V51.4
		z M160.2,65.9h7v7h-7V65.9z M160.2,80.4h7v7h-7V80.4z M160.2,94.9h7v7h-7V94.9z M167.5,51.4h7v7h-7V51.4z M167.5,58.6h7v7h-7V58.6z
		 M167.5,65.9h7v7h-7V65.9z M167.5,73.1h7v7h-7V73.1z M167.5,80.4h7v7h-7V80.4z M167.5,87.6h7v7h-7V87.6z M167.5,94.9h7v7h-7V94.9z
		 M131.2,102.2h7v7h-7V102.2z M131.2,116.7h7v7h-7V116.7z M131.2,124h7v7h-7V124z M131.2,138.5h7v7h-7V138.5z M131.2,153h7v7h-7V153
		z M138.5,102.2h7v7h-7V102.2z M138.5,109.4h7v7h-7V109.4z M138.5,116.7h7v7h-7V116.7z M138.5,131.2h7v7h-7V131.2z M138.5,138.5h7v7
		h-7V138.5z M138.5,145.7h7v7h-7V145.7z M145.7,109.4h7v7h-7V109.4z M145.7,124h7v7h-7V124z M145.7,131.2h7v7h-7V131.2z
		 M145.7,145.7h7v7h-7V145.7z M153,102.2h7v7h-7V102.2z M153,116.7h7v7h-7V116.7z M153,131.2h7v7h-7V131.2z M153,138.5h7v7h-7V138.5
		z M160.2,109.4h7v7h-7V109.4z M160.2,116.7h7v7h-7V116.7z M160.2,124h7v7h-7V124z M167.5,102.2h7v7h-7V102.2z M87.6,160.2h7v7h-7
		V160.2z M94.9,160.2h7v7h-7V160.2z M102.2,160.2h7v7h-7V160.2z M109.4,160.2h7v7h-7V160.2z M116.7,160.2h7v7h-7V160.2z"/>
</g>
</svg>
