<?xml version="1.0" encoding="utf-8"?>
<!-- Generator: Adobe Illustrator 27.3.1, SVG Export Plug-In . SVG Version: 6.00 Build 0)  -->
<svg version="1.1" xmlns="http://www.w3.org/2000/svg" xmlns:xlink="http://www.w3.org/1999/xlink" x="0px" y="0px"
	 viewBox="0 0 154.2 154.2" style="enable-background:new 0 0 154.2 154.2;" xml:space="preserve">
<style type="text/css">
	.st0{fill:#FCE19B;}
	.st1{fill:#1E0E01;}
</style>
<g id="Слой_2">
	<path class="st0" d="M146.4,108.2v-4.9c0-0.7-0.5-1.2-1.2-1.2h-4.9c-0.7,0-1.2-0.5-1.2-1.2V96c0-0.7-0.5-1.2-1.2-1.2h-4.8
		c-0.7,0-1.2-0.5-1.2-1.2v-4.1c0-0.7,0.5-1.2,1.2-1.2h4.8c0.7,0,1.2-0.5,1.2-1.2v-4.8c0-0.7,0.5-1.2,1.2-1.2h4.9
		c0.7,0,1.2-0.5,1.2-1.2V75c0-0.7,0.5-1.2,1.2-1.2h4.8c0.7,0,1.2-0.5,1.2-1.2V67c0-0.7-0.5-1.2-1.2-1.2h-4.8c-0.7,0-1.2-0.5-1.2-1.2
		v-4.8c0-0.7-0.5-1.2-1.2-1.2h-4.9c-0.7,0-1.2-0.5-1.2-1.2v-4.2c0-0.7,0.5-1.2,1.2-1.2h4.9c0.7,0,1.2-0.5,1.2-1.2V38
		c0-0.7-0.5-1.2-1.2-1.2h-12.1c-0.7,0-1.2-0.5-1.2-1.2V16.2c0-0.7-0.5-1.2-1.2-1.2h-20.1c-0.7,0-1.2,0.5-1.2,1.2V21
		c0,0.7-0.5,1.2-1.2,1.2H104c-0.7,0-1.2-0.5-1.2-1.2v-4.8c0-0.7-0.5-1.2-1.2-1.2H89.5c-0.7,0-1.2-0.5-1.2-1.2V8.9
		c0-0.7-0.5-1.2-1.2-1.2h-4.8c-0.7,0-1.2-0.5-1.2-1.2V1.7c0-0.7-0.5-1.2-1.2-1.2H67c-0.7,0-1.2,0.5-1.2,1.2v4.8
		c0,0.7-0.5,1.2-1.2,1.2h-4.9c-0.7,0-1.2,0.5-1.2,1.2V21c0,0.7-0.5,1.2-1.2,1.2h-4.1c-0.7,0-1.2-0.5-1.2-1.2v-4.8
		c0-0.7-0.5-1.2-1.2-1.2H38c-0.7,0-1.2,0.5-1.2,1.2v12.1c0,0.7-0.5,1.2-1.2,1.2H24.2c-0.7,0-1.2-0.5-1.2-1.2v-4.9
		c0-0.7-0.5-1.2-1.2-1.2H8.9c-0.7,0-1.2,0.5-1.2,1.2v12.9c0,0.7,0.5,1.2,1.2,1.2h4.9c0.7,0,1.2,0.5,1.2,1.2v4.1
		c0,0.7-0.5,1.2-1.2,1.2H8.9c-0.7,0-1.2,0.5-1.2,1.2v5.6c0,0.7,0.5,1.2,1.2,1.2h4.9c0.7,0,1.2,0.5,1.2,1.2v11.4
		c0,0.7-0.5,1.2-1.2,1.2H8.9c-0.7,0-1.2,0.5-1.2,1.2v4.9c0,0.7-0.5,1.2-1.2,1.2H1.7c-0.7,0-1.2,0.5-1.2,1.2v5.6
		c0,0.7,0.5,1.2,1.2,1.2h4.8c0.7,0,1.2,0.5,1.2,1.2v4.8c0,0.7,0.5,1.2,1.2,1.2h4.9c0.7,0,1.2,0.5,1.2,1.2v11.4
		c0,0.7-0.5,1.2-1.2,1.2H8.9c-0.7,0-1.2,0.5-1.2,1.2v12.9c0,0.7,0.5,1.2,1.2,1.2h12.9c0.7,0,1.2-0.5,1.2-1.2v-4.9
		c0-0.7,0.5-1.2,1.2-1.2h11.4c0.7,0,1.2,0.5,1.2,1.2v11.4c0,0.7-0.5,1.2-1.2,1.2h-4.9c-0.7,0-1.2,0.5-1.2,1.2v20.1
		c0,0.7,0.5,1.2,1.2,1.2h12.9c0.7,0,1.2-0.5,1.2-1.2v-4.8c0-0.7,0.5-1.2,1.2-1.2h18.6c0.7,0,1.2,0.5,1.2,1.2v4.8
		c0,0.7,0.5,1.2,1.2,1.2h4.9c0.7,0,1.2,0.5,1.2,1.2v4.9c0,0.7,0.5,1.2,1.2,1.2h5.6c0.7,0,1.2-0.5,1.2-1.2v-4.9
		c0-0.7,0.5-1.2,1.2-1.2h4.8c0.7,0,1.2-0.5,1.2-1.2v-4.8c0-0.7,0.5-1.2,1.2-1.2h4.1c0.7,0,1.2,0.5,1.2,1.2v4.8
		c0,0.7,0.5,1.2,1.2,1.2h12.2c0.7,0,1.2,0.5,1.2,1.2v4.9c0,0.7,0.5,1.2,1.2,1.2h12.8c0.7,0,1.2-0.5,1.2-1.2v-12.9
		c0-0.7-0.5-1.2-1.2-1.2h-4.9c-0.7,0-1.2-0.5-1.2-1.2v-4.1c0-0.7,0.5-1.2,1.2-1.2h4.9c0.7,0,1.2-0.5,1.2-1.2v-4.9
		c0-0.7,0.5-1.2,1.2-1.2h12.1c0.7,0,1.2-0.5,1.2-1.2v-4.8c0-0.7,0.5-1.2,1.2-1.2h12.2c0.7,0,1.2-0.5,1.2-1.2v-5.6
		c0-0.7-0.5-1.2-1.2-1.2h-4.9C146.9,109.4,146.4,108.9,146.4,108.2z"/>
</g>
<g id="Слой_1">
	<g id="Слой_1_00000021801522350249860700000006223016791045152157_">
		<path class="st1" d="M8.2,22.7h7v7h-7V22.7z M8.2,30h7v7h-7V30z M15.5,22.7h7v7h-7V22.7z M22.7,30h7v7h-7V30z M30,30h7v7h-7V30z
			 M37.3,15.5h7v7h-7V15.5z M37.3,22.7h7v7h-7V22.7z M37.3,30h7v7h-7V30z M44.5,15.5h7v7h-7V15.5z M51.8,22.7h7v7h-7V22.7z M59,8.2
			h7v7h-7V8.2z M59,15.5h7v7h-7V15.5z M59,30h7v7h-7V30z M1,73.6h7v7H1V73.6z M15.5,37.2h7v7h-7V37.2z M8.2,44.5h7v7h-7V44.5z
			 M8.2,66.3h7v7h-7V66.3z M8.2,80.8h7v7h-7V80.8z M8.2,102.6h7v7h-7V102.6z M15.5,51.8h7v7h-7V51.8z M15.5,59.1h7v7h-7V59.1z
			 M15.5,73.6h7v7h-7V73.6z M15.5,88.1h7v7h-7V88.1z M15.5,95.3h7v7h-7V95.3z M22.7,66.3h7v7h-7V66.3z M22.7,80.8h7v7h-7V80.8z
			 M22.7,102.6h7v7h-7V102.6z M30,44.5h7v7h-7V44.5z M30,51.8h7v7h-7V51.8z M30,59.1h7v7h-7V59.1z M30,73.6h7v7h-7V73.6z M30,88.1h7
			v7h-7V88.1z M30,102.6h7v7h-7V102.6z M37.3,44.5h7v7h-7V44.5z M37.3,66.3h7v7h-7V66.3z M37.3,80.8h7v7h-7V80.8z M37.3,95.3h7v7h-7
			V95.3z M44.5,37.3h7v7h-7V37.3z M44.5,51.8h7v7h-7V51.8z M44.5,59.1h7v7h-7V59.1z M44.5,88.1h7v7h-7V88.1z M44.5,102.6h7v7h-7
			V102.6z M51.8,37.3h7v7h-7V37.3z M51.8,51.8h7v7h-7V51.8z M51.8,95.3h7v7h-7V95.3z M59,44.5h7v7h-7V44.5z M59,102.6h7v7h-7V102.6z
			 M8.2,109.9h7v7h-7V109.9z M15.5,109.9h7v7h-7V109.9z M30,124.4h7v7h-7V124.4z M30,131.7h7v7h-7V131.7z M30,138.9h7v7h-7V138.9z
			 M37.3,109.9h7v7h-7V109.9z M37.3,117.1h7v7h-7V117.1z M37.3,138.9h7v7h-7V138.9z M44.5,131.7h7v7h-7V131.7z M51.8,109.9h7v7h-7
			V109.9z M51.8,117.1h7v7h-7V117.1z M51.8,131.7h7v7h-7V131.7z M59,117.1h7v7h-7V117.1z M59,131.7h7v7h-7V131.7z M66.3,1h7v7h-7V1z
			 M66.3,22.7h7v7h-7V22.7z M73.6,1h7v7h-7V1z M73.6,15.5h7v7h-7V15.5z M73.6,30h7v7h-7V30z M80.8,8.2h7v7h-7V8.2z M80.8,22.7h7v7
			h-7V22.7z M88.1,15.5h7v7h-7V15.5z M88.1,30h7v7h-7V30z M95.3,15.5h7v7h-7V15.5z M95.3,30h7v7h-7V30z M102.6,22.7h7v7h-7V22.7z
			 M109.9,15.5h7v7h-7V15.5z M109.9,30h7v7h-7V30z M117.1,15.5h7v7h-7V15.5z M124.4,15.5h7v7h-7C124.4,22.5,124.4,15.5,124.4,15.5z
			 M124.4,22.7h7v7h-7C124.4,29.7,124.4,22.7,124.4,22.7z M124.4,30h7v7h-7C124.4,37,124.4,30,124.4,30z M66.3,37.3h7v7h-7V37.3z
			 M80.8,37.3h7v7h-7V37.3z M88.1,44.5h7v7h-7V44.5z M95.3,44.5h7v7h-7V44.5z M102.6,37.3h7v7h-7V37.3z M102.6,51.8h7v7h-7V51.8z
			 M102.6,102.6h7v7h-7V102.6z M109.9,44.5h7v7h-7V44.5z M109.9,59.1h7v7h-7V59.1z M109.9,73.6h7v7h-7V73.6z M109.9,88.1h7v7h-7
			V88.1z M117.1,37.3h7v7h-7V37.3z M117.1,51.8h7v7h-7V51.8z M117.1,66.3h7v7h-7V66.3z M117.1,80.8h7v7h-7V80.8z M117.1,95.3h7v7h-7
			V95.3z M117.1,102.6h7v7h-7V102.6z M124.4,44.5h7v7h-7C124.4,51.5,124.4,44.5,124.4,44.5z M124.4,59.1h7v7h-7
			C124.4,66.1,124.4,59.1,124.4,59.1z M124.4,73.6h7v7h-7C124.4,80.6,124.4,73.6,124.4,73.6z M124.4,88.1h7v7h-7
			C124.4,95.1,124.4,88.1,124.4,88.1z M131.6,37.3h7v7h-7V37.3z M131.6,51.8h7v7h-7V51.8z M146.1,66.3h7v7h-7V66.3z M131.6,80.8h7v7
			h-7V80.8z M131.6,95.3h7v7h-7V95.3z M66.3,109.9h7v7h-7V109.9z M66.3,124.4h7v7h-7V124.4z M66.3,138.9h7v7h-7V138.9z M73.6,117.1
			h7v7h-7V117.1z M73.6,131.7h7v7h-7V131.7z M73.6,146.2h7v7h-7V146.2z M80.8,109.9h7v7h-7V109.9z M80.8,124.4h7v7h-7V124.4z
			 M80.8,138.9h7v7h-7V138.9z M88.1,117.1h7v7h-7V117.1z M88.1,131.7h7v7h-7V131.7z M95.3,109.9h7v7h-7V109.9z M95.3,124.4h7v7h-7
			V124.4z M95.3,138.9h7v7h-7V138.9z M102.6,117.1h7v7h-7V117.1z M102.6,124.4h7v7h-7V124.4z M102.6,138.9h7v7h-7V138.9z
			 M109.9,109.9h7v7h-7V109.9z M117.1,146.2h7v7h-7V146.2z M109.9,146.2h7v7h-7V146.2z M117.1,117.1h7v7h-7V117.1z M117.1,124.4h7v7
			h-7V124.4z M109.8,131.7h7v7h-7V131.7z M117.1,138.9h7v7h-7V138.9z M124.4,117.1h7v7h-7C124.4,124.1,124.4,117.1,124.4,117.1z
			 M131.6,117.1h7v7h-7V117.1z M138.9,37.3h7v7h-7V37.3z M138.9,44.5h7v7h-7V44.5z M138.9,59.1h7v7h-7V59.1z M138.9,73.6h7v7h-7
			V73.6z M138.9,102.6h7v7h-7V102.6z M146.2,109.9h7v7h-7V109.9z M138.9,109.9h7v7h-7V109.9z"/>
	</g>
</g>
</svg>
