<?xml version="1.0" encoding="utf-8"?>
<!-- Generator: Adobe Illustrator 27.3.1, SVG Export Plug-In . SVG Version: 6.00 Build 0)  -->
<svg version="1.1" xmlns="http://www.w3.org/2000/svg" xmlns:xlink="http://www.w3.org/1999/xlink" x="0px" y="0px"
	 viewBox="0 0 145 181.2" style="enable-background:new 0 0 145 181.2;" xml:space="preserve">
<style type="text/css">
	.st0{fill:#FCE19B;}
	.st1{fill:#1E0E01;}
</style>
<g id="Слой_2">
	<path class="st0" d="M145.5,0c0-0.3-0.2-0.5-0.5-0.5h-7c-0.1,0-0.1,0-0.2,0c0,0-0.1,0-0.1,0h-7c-0.1,0-0.1,0-0.2,0c0,0-0.1,0-0.1,0
		h-7c0,0-0.1,0-0.1,0c0,0-0.1,0-0.1,0h-7c-0.1,0-0.1,0-0.2,0c0,0-0.1,0-0.1,0h-7c0,0-0.1,0-0.1,0c0,0-0.1,0-0.1,0h-7
		c-0.1,0-0.1,0-0.2,0c0,0-0.1,0-0.1,0h-7c-0.1,0-0.1,0-0.2,0c0,0-0.1,0-0.1,0h-7c0,0-0.1,0-0.1,0c0,0-0.1,0-0.1,0h-7
		c-0.1,0-0.1,0-0.2,0c0,0-0.1,0-0.1,0h-7c0,0-0.1,0-0.1,0c0,0-0.1,0-0.1,0h-7c-0.1,0-0.1,0-0.2,0c0,0-0.1,0-0.1,0h-7
		c-0.1,0-0.1,0-0.1,0c0,0-0.1,0-0.1,0h-7c0,0-0.1,0-0.1,0c0,0-0.1,0-0.1,0h-7c-0.1,0-0.1,0-0.1,0c0,0-0.1,0-0.1,0h-7
		c0,0-0.1,0-0.1,0c0,0-0.1,0-0.1,0h-7c-0.1,0-0.1,0-0.1,0c0,0-0.1,0-0.1,0h-7c-0.1,0-0.1,0-0.1,0c0,0-0.1,0-0.1,0h-7
		c0,0-0.1,0-0.1,0c0,0-0.1,0-0.1,0h-7c-0.1,0-0.1,0-0.1,0c0,0-0.1,0-0.1,0H0c-0.3,0-0.5,0.2-0.5,0.5v7c0,0.1,0,0.1,0,0.1
		c0,0,0,0.1,0,0.1v7c0,0,0,0.1,0,0.1c0,0,0,0.1,0,0.1v7c0,0.1,0,0.1,0,0.1c0,0,0,0.1,0,0.1v7c0,0,0,0.1,0,0.1c0,0,0,0.1,0,0.1v7
		c0,0.1,0,0.1,0,0.1c0,0,0,0.1,0,0.1v7c0,0,0,0.1,0,0.1c0,0,0,0.1,0,0.1v7c0,0.1,0,0.1,0,0.1c0,0,0,0.1,0,0.1v7c0,0.1,0,0.1,0,0.2
		c0,0,0,0.1,0,0.1v7c0,0,0,0.1,0,0.1c0,0,0,0.1,0,0.1v7c0,0.1,0,0.1,0,0.2c0,0,0,0.1,0,0.1v7c0,0.1,0,0.1,0,0.1c0,0,0,0.1,0,0.1v7
		c0,0,0,0.1,0,0.1c0,0,0,0.1,0,0.1v7c0,0.1,0,0.1,0,0.2c0,0,0,0.1,0,0.1v7c0,0,0,0.1,0,0.1c0,0,0,0.1,0,0.1v7c0,0.1,0,0.1,0,0.2
		c0,0,0,0.1,0,0.1v7c0,0,0,0.1,0,0.1c0,0,0,0.1,0,0.1v7c0,0.1,0,0.1,0,0.2c0,0,0,0.1,0,0.1v7c0,0.1,0,0.1,0,0.2c0,0,0,0.1,0,0.1v7
		c0,0,0,0.1,0,0.1c0,0,0,0.1,0,0.1v7c0,0.1,0,0.1,0,0.2c0,0,0,0.1,0,0.1v7c0,0.1,0,0.1,0,0.2c0,0,0,0.1,0,0.2v7c0,0,0,0.1,0,0.1
		c0,0,0,0.1,0,0.1v7c0,0.1,0,0.1,0,0.2c0,0,0,0.1,0,0.2v7c0,0,0,0.1,0,0.1c0,0,0,0.1,0,0.1v7c0,0.3,0.2,0.5,0.5,0.5h7
		c0.1,0,0.1,0,0.1,0c0,0,0.1,0,0.1,0h7c0,0,0.1,0,0.1,0c0,0,0.1,0,0.1,0h7c0.1,0,0.1,0,0.1,0c0,0,0.1,0,0.1,0h7c0.1,0,0.1,0,0.1,0
		c0,0,0.1,0,0.1,0h7c0,0,0.1,0,0.1,0c0,0,0.1,0,0.1,0h7c0.1,0,0.1,0,0.1,0c0,0,0.1,0,0.1,0h7c0,0,0.1,0,0.1,0c0,0,0.1,0,0.1,0h7
		c0.1,0,0.1,0,0.1,0c0,0,0.1,0,0.1,0h7c0.1,0,0.1,0,0.1,0c0,0,0.1,0,0.2,0h7c0,0,0.1,0,0.1,0c0,0,0.1,0,0.1,0h7c0.1,0,0.1,0,0.1,0
		c0,0,0.1,0,0.2,0h7c0,0,0.1,0,0.1,0c0,0,0.1,0,0.1,0h7c0.1,0,0.1,0,0.1,0c0,0,0.1,0,0.2,0h7c0.1,0,0.1,0,0.1,0c0,0,0.1,0,0.2,0h7
		c0,0,0.1,0,0.1,0c0,0,0.1,0,0.1,0h7c0.1,0,0.1,0,0.1,0c0,0,0.1,0,0.2,0h7c0,0,0.1,0,0.1,0c0,0,0.1,0,0.1,0h7c0.1,0,0.1,0,0.1,0
		c0,0,0.1,0,0.2,0h7c0.1,0,0.1,0,0.1,0c0,0,0.1,0,0.2,0h7c0.3,0,0.5-0.2,0.5-0.5v-7c0,0,0-0.1,0-0.1c0,0,0-0.1,0-0.1v-7
		c0-0.1,0-0.1,0-0.2c0,0,0-0.1,0-0.2v-7c0,0,0-0.1,0-0.1c0,0,0-0.1,0-0.1v-7c0-0.1,0-0.1,0-0.2c0,0,0-0.1,0-0.2v-7
		c0-0.1,0-0.1,0-0.1c0,0,0-0.1,0-0.2v-7c0,0,0-0.1,0-0.1c0,0,0-0.1,0-0.1v-7c0-0.1,0-0.1,0-0.1c0,0,0-0.1,0-0.2v-7
		c0-0.1,0-0.1,0-0.1c0,0,0-0.1,0-0.2v-7c0,0,0-0.1,0-0.1c0,0,0-0.1,0-0.1v-7c0-0.1,0-0.1,0-0.1c0,0,0-0.1,0-0.2v-7c0,0,0-0.1,0-0.1
		c0,0,0-0.1,0-0.1v-7c0-0.1,0-0.1,0-0.1c0,0,0-0.1,0-0.2v-7c0,0,0-0.1,0-0.1c0,0,0-0.1,0-0.1v-7c0-0.1,0-0.1,0-0.1c0,0,0-0.1,0-0.1
		v-7c0-0.1,0-0.1,0-0.1c0,0,0-0.1,0-0.2v-7c0,0,0-0.1,0-0.1c0,0,0-0.1,0-0.1v-7c0-0.1,0-0.1,0-0.1c0,0,0-0.1,0-0.2v-7
		c0-0.1,0-0.1,0-0.1c0,0,0-0.1,0-0.1v-7c0,0,0-0.1,0-0.1c0,0,0-0.1,0-0.1v-7c0-0.1,0-0.1,0-0.1c0,0,0-0.1,0-0.1v-7c0,0,0-0.1,0-0.1
		c0,0,0-0.1,0-0.1v-7c0-0.1,0-0.1,0-0.1c0,0,0-0.1,0-0.1v-7c0,0,0-0.1,0-0.1c0,0,0-0.1,0-0.1v-7c0-0.1,0-0.1,0-0.1c0,0,0-0.1,0-0.1
		V0z"/>
</g>
<g id="Слой_1">
	<path class="st1" d="M0,0h7v7H0V0z M0,7.3h7v7H0V7.3z M0,14.5h7v7H0V14.5z M0,21.8h7v7H0V21.8z M0,29h7v7H0V29z M0,36.3h7v7H0V36.3
		z M0,43.5h7v7H0V43.5z M0,50.8h7v7H0V50.8z M7.3,0h7v7h-7V0z M7.3,7.3h7v7h-7V7.3z M7.3,14.5h7v7h-7V14.5z M7.3,21.8h7v7h-7V21.8z
		 M7.3,29h7v7h-7V29z M7.3,36.3h7v7h-7V36.3z M7.3,43.5h7v7h-7V43.5z M7.3,50.8h7v7h-7V50.8z M14.5,0h7v7h-7V0z M14.5,7.3h7v7h-7
		V7.3z M14.5,21.8h7v7h-7V21.8z M14.5,36.3h7v7h-7V36.3z M14.5,50.8h7v7h-7V50.8z M21.8,0h7v7h-7V0z M21.8,7.3h7v7h-7V7.3z
		 M21.8,14.5h7v7h-7V14.5z M21.8,29h7v7h-7V29z M21.8,36.3h7v7h-7V36.3z M21.8,43.5h7v7h-7V43.5z M21.8,50.8h7v7h-7V50.8z M29.1,0h7
		v7h-7V0z M29.1,7.3h7v7h-7V7.3z M29.1,21.8h7v7h-7V21.8z M29.1,29h7v7h-7V29z M29.1,36.3h7v7h-7V36.3z M29.1,43.5h7v7h-7V43.5z
		 M29.1,50.8h7v7h-7V50.8z M36.3,0h7v7h-7V0z M36.3,7.3h7v7h-7V7.3z M36.3,14.5h7v7h-7V14.5z M36.3,21.8h7v7h-7V21.8z M36.3,29h7v7
		h-7V29z M36.3,36.3h7v7h-7V36.3z M36.3,43.5h7v7h-7V43.5z M36.3,50.8h7v7h-7V50.8z M43.6,0h7v7h-7V0z M43.6,7.3h7v7h-7V7.3z
		 M43.6,14.5h7v7h-7V14.5z M43.6,21.8h7v7h-7V21.8z M43.6,29h7v7h-7V29z M43.6,36.3h7v7h-7V36.3z M43.6,43.5h7v7h-7V43.5z
		 M43.6,50.8h7v7h-7V50.8z M50.8,0h7v7h-7V0z M50.8,7.3h7v7h-7V7.3z M50.8,21.8h7v7h-7V21.8z M50.8,29h7v7h-7V29z M50.8,36.3h7v7h-7
		V36.3z M50.8,43.5h7v7h-7V43.5z M50.8,50.8h7v7h-7V50.8z M0,58.1h7v7H0V58.1z M0,65.3h7v7H0V65.3z M0,72.6h7v7H0V72.6z M0,79.9h7v7
		H0V79.9z M0,87.1h7v7H0V87.1z M0,94.4h7v7H0V94.4z M0,101.6h7v7H0V101.6z M0,108.9h7v7H0V108.9z M0,116.1h7v7H0V116.1z M0,123.4h7
		v7H0V123.4z M7.3,58.1h7v7h-7V58.1z M7.3,65.3h7v7h-7V65.3z M7.3,72.6h7v7h-7V72.6z M7.3,79.9h7v7h-7V79.9z M7.3,87.1h7v7h-7V87.1z
		 M7.3,94.4h7v7h-7V94.4z M7.3,101.6h7v7h-7V101.6z M7.3,108.9h7v7h-7V108.9z M7.3,116.1h7v7h-7V116.1z M7.3,123.4h7v7h-7V123.4z
		 M14.5,58.1h7v7h-7V58.1z M14.5,65.3h7v7h-7V65.3z M14.5,72.6h7v7h-7V72.6z M14.5,79.9h7v7h-7V79.9z M14.5,87.1h7v7h-7V87.1z
		 M14.5,94.4h7v7h-7V94.4z M14.5,108.9h7v7h-7V108.9z M14.5,123.4h7v7h-7V123.4z M21.8,58.1h7v7h-7V58.1z M21.8,65.3h7v7h-7V65.3z
		 M21.8,72.6h7v7h-7V72.6z M21.8,79.9h7v7h-7V79.9z M21.8,87.1h7v7h-7V87.1z M21.8,94.4h7v7h-7V94.4z M21.8,101.6h7v7h-7V101.6z
		 M21.8,116.1h7v7h-7V116.1z M29.1,58.1h7v7h-7V58.1z M29.1,65.3h7v7h-7V65.3z M29.1,72.6h7v7h-7V72.6z M29.1,79.9h7v7h-7V79.9z
		 M29.1,87.1h7v7h-7V87.1z M29.1,94.4h7v7h-7V94.4z M29.1,101.6h7v7h-7V101.6z M29.1,108.9h7v7h-7V108.9z M29.1,116.1h7v7h-7V116.1z
		 M29.1,123.4h7v7h-7V123.4z M36.3,58.1h7v7h-7V58.1z M36.3,65.3h7v7h-7V65.3z M36.3,72.6h7v7h-7V72.6z M36.3,79.9h7v7h-7V79.9z
		 M36.3,87.1h7v7h-7V87.1z M36.3,94.4h7v7h-7V94.4z M36.3,101.6h7v7h-7V101.6z M36.3,108.9h7v7h-7V108.9z M36.3,116.1h7v7h-7V116.1z
		 M36.3,123.4h7v7h-7V123.4z M43.6,58.1h7v7h-7V58.1z M43.6,65.3h7v7h-7V65.3z M43.6,72.6h7v7h-7V72.6z M43.6,79.9h7v7h-7V79.9z
		 M43.6,87.1h7v7h-7V87.1z M43.6,94.4h7v7h-7V94.4z M43.6,101.6h7v7h-7V101.6z M43.6,108.9h7v7h-7V108.9z M43.6,116.1h7v7h-7V116.1z
		 M43.6,123.4h7v7h-7V123.4z M50.8,58.1h7v7h-7V58.1z M50.8,65.3h7v7h-7V65.3z M50.8,72.6h7v7h-7V72.6z M50.8,79.9h7v7h-7V79.9z
		 M50.8,87.1h7v7h-7V87.1z M50.8,94.4h7v7h-7V94.4z M50.8,101.6h7v7h-7V101.6z M50.8,108.9h7v7h-7V108.9z M50.8,116.1h7v7h-7V116.1z
		 M50.8,123.4h7v7h-7V123.4z M0,130.7h7v7H0V130.7z M0,137.9h7v7H0V137.9z M0,145.2h7v7H0V145.2z M0,152.5h7v7H0V152.5z M0,159.7h7
		v7H0V159.7z M0,167h7v7H0V167z M0,174.2h7v7H0V174.2z M7.3,130.7h7v7h-7V130.7z M7.3,137.9h7v7h-7V137.9z M7.3,145.2h7v7h-7V145.2z
		 M7.3,152.5h7v7h-7V152.5z M7.3,159.7h7v7h-7V159.7z M7.3,167h7v7h-7V167z M7.3,174.2h7v7h-7V174.2z M14.5,137.9h7v7h-7V137.9z
		 M14.5,152.5h7v7h-7V152.5z M14.5,167h7v7h-7V167z M14.5,174.2h7v7h-7V174.2z M21.8,130.7h7v7h-7V130.7z M21.8,145.2h7v7h-7V145.2z
		 M21.8,159.7h7v7h-7V159.7z M21.8,167h7v7h-7V167z M21.8,174.2h7v7h-7V174.2z M29.1,137.9h7v7h-7V137.9z M29.1,152.5h7v7h-7V152.5z
		 M29.1,167h7v7h-7V167z M29.1,174.2h7v7h-7V174.2z M36.3,130.7h7v7h-7V130.7z M36.3,145.2h7v7h-7V145.2z M36.3,159.7h7v7h-7V159.7z
		 M36.3,167h7v7h-7V167z M36.3,174.2h7v7h-7V174.2z M43.6,130.7h7v7h-7V130.7z M43.6,137.9h7v7h-7V137.9z M43.6,152.5h7v7h-7V152.5z
		 M43.6,167h7v7h-7V167z M43.6,174.2h7v7h-7V174.2z M50.8,130.7h7v7h-7V130.7z M50.8,137.9h7v7h-7V137.9z M50.8,145.2h7v7h-7V145.2z
		 M50.8,159.7h7v7h-7V159.7z M50.8,167h7v7h-7V167z M50.8,174.2h7v7h-7V174.2z M58.1,0h7v7h-7V0z M58.1,7.3h7v7h-7V7.3z M58.1,14.5
		h7v7h-7V14.5z M58.1,21.8h7v7h-7V21.8z M58.1,29h7v7h-7V29z M58.1,36.3h7v7h-7V36.3z M58.1,43.5h7v7h-7V43.5z M58.1,50.8h7v7h-7
		V50.8z M65.4,0h7v7h-7V0z M65.4,7.3h7v7h-7V7.3z M65.4,21.8h7v7h-7V21.8z M65.4,29h7v7h-7V29z M65.4,36.3h7v7h-7V36.3z M65.4,43.5
		h7v7h-7V43.5z M65.4,50.8h7v7h-7V50.8z M72.6,0h7v7h-7V0z M72.6,7.3h7v7h-7V7.3z M72.6,14.5h7v7h-7V14.5z M72.6,29h7v7h-7V29z
		 M72.6,36.3h7v7h-7V36.3z M72.6,43.5h7v7h-7V43.5z M72.6,50.8h7v7h-7V50.8z M79.9,0h7v7h-7V0z M79.9,7.3h7v7h-7V7.3z M79.9,21.8h7
		v7h-7V21.8z M79.9,29h7v7h-7V29z M79.9,36.3h7v7h-7V36.3z M79.9,43.5h7v7h-7V43.5z M79.9,50.8h7v7h-7V50.8z M87.1,0h7v7h-7V0z
		 M87.1,7.3h7v7h-7V7.3z M87.1,14.5h7v7h-7V14.5z M87.1,29h7v7h-7V29z M87.1,36.3h7v7h-7V36.3z M87.1,43.5h7v7h-7V43.5z M87.1,50.8
		h7v7h-7V50.8z M94.4,0h7v7h-7V0z M94.4,7.3h7v7h-7V7.3z M94.4,21.8h7v7h-7V21.8z M94.4,36.3h7v7h-7V36.3z M94.4,43.5h7v7h-7V43.5z
		 M94.4,50.8h7v7h-7V50.8z M101.7,0h7v7h-7V0z M101.7,7.3h7v7h-7V7.3z M101.7,14.5h7v7h-7V14.5z M101.7,29h7v7h-7V29z M101.7,43.5h7
		v7h-7V43.5z M101.7,50.8h7v7h-7V50.8z M108.9,0h7v7h-7V0z M108.9,7.3h7v7h-7V7.3z M108.9,21.8h7v7h-7V21.8z M108.9,36.3h7v7h-7
		V36.3z M108.9,50.8h7v7h-7V50.8z M116.2,0h7v7h-7V0z M116.2,7.3h7v7h-7V7.3z M116.2,14.5h7v7h-7V14.5z M116.2,29h7v7h-7V29z
		 M116.2,43.5h7v7h-7V43.5z M123.4,0h7v7h-7V0z M123.4,7.3h7v7h-7V7.3z M123.4,21.8h7v7h-7V21.8z M123.4,36.3h7v7h-7V36.3z
		 M123.4,50.8h7v7h-7V50.8z M58.1,58.1h7v7h-7V58.1z M58.1,65.3h7v7h-7V65.3z M58.1,72.6h7v7h-7V72.6z M58.1,79.9h7v7h-7V79.9z
		 M58.1,87.1h7v7h-7V87.1z M58.1,94.4h7v7h-7V94.4z M58.1,101.6h7v7h-7V101.6z M58.1,108.9h7v7h-7V108.9z M58.1,116.1h7v7h-7V116.1z
		 M58.1,123.4h7v7h-7V123.4z M65.4,58.1h7v7h-7V58.1z M65.4,65.3h7v7h-7V65.3z M65.4,72.6h7v7h-7V72.6z M65.4,79.9h7v7h-7V79.9z
		 M65.4,87.1h7v7h-7V87.1z M65.4,94.4h7v7h-7V94.4z M65.4,101.6h7v7h-7V101.6z M65.4,108.9h7v7h-7V108.9z M65.4,116.1h7v7h-7V116.1z
		 M65.4,123.4h7v7h-7V123.4z M72.6,58.1h7v7h-7V58.1z M72.6,65.3h7v7h-7V65.3z M72.6,72.6h7v7h-7V72.6z M72.6,79.9h7v7h-7V79.9z
		 M72.6,87.1h7v7h-7V87.1z M72.6,94.4h7v7h-7V94.4z M72.6,101.6h7v7h-7V101.6z M72.6,108.9h7v7h-7V108.9z M72.6,116.1h7v7h-7V116.1z
		 M72.6,123.4h7v7h-7V123.4z M79.9,58.1h7v7h-7V58.1z M79.9,65.3h7v7h-7V65.3z M79.9,72.6h7v7h-7V72.6z M79.9,79.9h7v7h-7V79.9z
		 M79.9,87.1h7v7h-7V87.1z M79.9,94.4h7v7h-7V94.4z M79.9,101.6h7v7h-7V101.6z M79.9,108.9h7v7h-7V108.9z M79.9,116.1h7v7h-7V116.1z
		 M79.9,123.4h7v7h-7V123.4z M87.1,58.1h7v7h-7V58.1z M87.1,65.3h7v7h-7V65.3z M87.1,72.6h7v7h-7V72.6z M87.1,79.9h7v7h-7V79.9z
		 M87.1,87.1h7v7h-7V87.1z M87.1,94.4h7v7h-7V94.4z M87.1,101.6h7v7h-7V101.6z M87.1,108.9h7v7h-7V108.9z M87.1,116.1h7v7h-7V116.1z
		 M87.1,123.4h7v7h-7V123.4z M94.4,58.1h7v7h-7V58.1z M94.4,65.3h7v7h-7V65.3z M94.4,72.6h7v7h-7V72.6z M94.4,79.9h7v7h-7V79.9z
		 M94.4,87.1h7v7h-7V87.1z M94.4,94.4h7v7h-7V94.4z M94.4,101.6h7v7h-7V101.6z M94.4,108.9h7v7h-7V108.9z M94.4,116.1h7v7h-7V116.1z
		 M94.4,123.4h7v7h-7V123.4z M101.7,58.1h7v7h-7V58.1z M101.7,65.3h7v7h-7V65.3z M101.7,72.6h7v7h-7V72.6z M101.7,79.9h7v7h-7V79.9z
		 M101.7,87.1h7v7h-7V87.1z M101.7,94.4h7v7h-7V94.4z M101.7,101.6h7v7h-7V101.6z M101.7,108.9h7v7h-7V108.9z M101.7,116.1h7v7h-7
		V116.1z M101.7,123.4h7v7h-7V123.4z M108.9,58.1h7v7h-7V58.1z M108.9,65.3h7v7h-7V65.3z M108.9,72.6h7v7h-7V72.6z M108.9,79.9h7v7
		h-7V79.9z M108.9,87.1h7v7h-7V87.1z M108.9,94.4h7v7h-7V94.4z M108.9,101.6h7v7h-7V101.6z M108.9,108.9h7v7h-7V108.9z M108.9,116.1
		h7v7h-7V116.1z M108.9,123.4h7v7h-7V123.4z M116.2,58.1h7v7h-7V58.1z M116.2,72.6h7v7h-7V72.6z M116.2,79.9h7v7h-7V79.9z
		 M116.2,87.1h7v7h-7V87.1z M116.2,94.4h7v7h-7V94.4z M116.2,101.6h7v7h-7V101.6z M116.2,108.9h7v7h-7V108.9z M116.2,116.1h7v7h-7
		V116.1z M116.2,123.4h7v7h-7V123.4z M123.4,65.3h7v7h-7V65.3z M123.4,79.9h7v7h-7V79.9z M123.4,94.4h7v7h-7V94.4z M123.4,101.6h7v7
		h-7V101.6z M123.4,108.9h7v7h-7V108.9z M123.4,116.1h7v7h-7V116.1z M123.4,123.4h7v7h-7V123.4z M58.1,130.7h7v7h-7V130.7z
		 M58.1,137.9h7v7h-7V137.9z M58.1,145.2h7v7h-7V145.2z M58.1,152.5h7v7h-7V152.5z M58.1,167h7v7h-7V167z M58.1,174.2h7v7h-7V174.2z
		 M65.4,130.7h7v7h-7V130.7z M65.4,137.9h7v7h-7V137.9z M65.4,145.2h7v7h-7V145.2z M65.4,159.7h7v7h-7V159.7z M65.4,167h7v7h-7V167z
		 M65.4,174.2h7v7h-7V174.2z M72.6,130.7h7v7h-7V130.7z M72.6,137.9h7v7h-7V137.9z M72.6,145.2h7v7h-7V145.2z M72.6,152.5h7v7h-7
		V152.5z M72.6,167h7v7h-7V167z M72.6,174.2h7v7h-7V174.2z M79.9,130.7h7v7h-7V130.7z M79.9,137.9h7v7h-7V137.9z M79.9,145.2h7v7h-7
		V145.2z M79.9,152.5h7v7h-7V152.5z M79.9,159.7h7v7h-7V159.7z M79.9,167h7v7h-7V167z M79.9,174.2h7v7h-7V174.2z M87.1,130.7h7v7h-7
		V130.7z M87.1,137.9h7v7h-7V137.9z M87.1,145.2h7v7h-7V145.2z M87.1,152.5h7v7h-7V152.5z M87.1,159.7h7v7h-7V159.7z M87.1,167h7v7
		h-7V167z M87.1,174.2h7v7h-7V174.2z M94.4,130.7h7v7h-7V130.7z M94.4,137.9h7v7h-7V137.9z M94.4,145.2h7v7h-7V145.2z M94.4,152.5h7
		v7h-7V152.5z M94.4,167h7v7h-7V167z M94.4,174.2h7v7h-7V174.2z M101.7,130.7h7v7h-7V130.7z M101.7,137.9h7v7h-7V137.9z
		 M101.7,145.2h7v7h-7V145.2z M101.7,152.5h7v7h-7V152.5z M101.7,159.7h7v7h-7V159.7z M101.7,167h7v7h-7V167z M101.7,174.2h7v7h-7
		V174.2z M108.9,130.7h7v7h-7V130.7z M108.9,137.9h7v7h-7V137.9z M108.9,145.2h7v7h-7V145.2z M108.9,152.5h7v7h-7V152.5z M108.9,167
		h7v7h-7V167z M108.9,174.2h7v7h-7V174.2z M116.2,130.7h7v7h-7V130.7z M116.2,137.9h7v7h-7V137.9z M116.2,145.2h7v7h-7V145.2z
		 M116.2,159.7h7v7h-7V159.7z M116.2,167h7v7h-7V167z M116.2,174.2h7v7h-7V174.2z M123.4,137.9h7v7h-7V137.9z M123.4,152.5h7v7h-7
		V152.5z M123.4,167h7v7h-7V167z M123.4,174.2h7v7h-7V174.2z M130.7,0h7v7h-7V0z M130.7,7.3h7v7h-7V7.3z M130.7,14.5h7v7h-7V14.5z
		 M130.7,21.8h7v7h-7V21.8z M130.7,29h7v7h-7V29z M130.7,36.3h7v7h-7V36.3z M130.7,43.5h7v7h-7V43.5z M130.7,50.8h7v7h-7V50.8z
		 M138,0h7v7h-7V0z M138,7.3h7v7h-7V7.3z M138,14.5h7v7h-7V14.5z M138,21.8h7v7h-7V21.8z M138,29h7v7h-7V29z M138,36.3h7v7h-7V36.3z
		 M138,43.5h7v7h-7V43.5z M138,50.8h7v7h-7V50.8z M130.7,58.1h7v7h-7V58.1z M130.7,65.3h7v7h-7V65.3z M130.7,72.6h7v7h-7V72.6z
		 M130.7,79.9h7v7h-7V79.9z M130.7,87.1h7v7h-7V87.1z M130.7,94.4h7v7h-7V94.4z M130.7,101.6h7v7h-7V101.6z M130.7,108.9h7v7h-7
		V108.9z M130.7,116.1h7v7h-7V116.1z M130.7,123.4h7v7h-7V123.4z M138,58.1h7v7h-7V58.1z M138,65.3h7v7h-7V65.3z M138,72.6h7v7h-7
		V72.6z M138,79.9h7v7h-7V79.9z M138,87.1h7v7h-7V87.1z M138,94.4h7v7h-7V94.4z M138,101.6h7v7h-7V101.6z M138,108.9h7v7h-7V108.9z
		 M138,116.1h7v7h-7V116.1z M138,123.4h7v7h-7V123.4z M130.7,130.7h7v7h-7V130.7z M130.7,137.9h7v7h-7V137.9z M130.7,145.2h7v7h-7
		V145.2z M130.7,152.5h7v7h-7V152.5z M130.7,159.7h7v7h-7V159.7z M130.7,167h7v7h-7V167z M130.7,174.2h7v7h-7V174.2z M138,130.7h7v7
		h-7V130.7z M138,137.9h7v7h-7V137.9z M138,145.2h7v7h-7V145.2z M138,152.5h7v7h-7V152.5z M138,159.7h7v7h-7V159.7z M138,167h7v7h-7
		V167z M138,174.2h7v7h-7V174.2z"/>
</g>
</svg>
