<?xml version="1.0" encoding="utf-8"?>
<!-- Generator: Adobe Illustrator 27.3.1, SVG Export Plug-In . SVG Version: 6.00 Build 0)  -->
<svg version="1.1" xmlns="http://www.w3.org/2000/svg" xmlns:xlink="http://www.w3.org/1999/xlink" x="0px" y="0px"
	 viewBox="0 0 109.7 203.9" style="enable-background:new 0 0 109.7 203.9;" xml:space="preserve">
<style type="text/css">
	.st0{fill:#FCE19B;}
	.st1{fill:#1E0E01;}
</style>
<g id="Слой_2">
	<g>
		<path class="st0" d="M109.1,116.1h-7c0,0-0.1,0-0.1,0c0,0-0.1,0-0.1,0h-7c-0.3,0-0.5,0.2-0.5,0.5v7c0,0,0,0.1,0,0.1
			c0,0,0,0.1,0,0.1v7c0,0,0,0.1,0,0.1c0,0,0,0.1,0,0.1v7c0,0.1,0,0.1,0,0.1c0,0,0,0.1,0,0.2v6.7h-6.8c-0.3,0-0.5,0.2-0.5,0.5v7
			c0,0.1,0,0.1,0,0.1c0,0,0,0.1,0,0.2v7c0,0.1,0,0.1,0,0.2c0,0,0,0.1,0,0.2v7c0,0,0,0.1,0,0.1c0,0,0,0.1,0,0.1v6.8h-6.8
			c-0.3,0-0.5,0.2-0.5,0.5v7c0,0,0,0.1,0,0.1c0,0,0,0.1,0,0.1v7c0,0.1,0,0.2,0.1,0.3c0,0,0,0.1,0,0.1v6.7h-6.8c0,0-0.1,0-0.1,0
			c0,0-0.1,0-0.1,0h-7c-0.1,0-0.1,0-0.2,0c0,0-0.1,0-0.1,0h-7c-0.1,0-0.1,0-0.2,0c0,0-0.1,0-0.1,0h-7c0,0-0.1,0-0.1,0
			c0,0-0.1,0-0.1,0h-7c-0.1,0-0.1,0-0.1,0c0,0-0.1,0-0.2,0h-7c0,0-0.1,0-0.1,0c0,0-0.1,0-0.1,0h-7c-0.1,0-0.1,0-0.1,0
			c0,0-0.1,0-0.2,0h-7c-0.1,0-0.1,0-0.1,0c0,0-0.1,0-0.1,0h-6.7v-6.7c0-0.1,0-0.2-0.1-0.3c0,0,0-0.1,0-0.1v-7c0,0,0-0.1,0-0.1
			c0,0,0-0.1,0-0.1v-6.8h6.8c0.3,0,0.5-0.2,0.5-0.5v-7c0,0,0-0.1,0-0.1c0,0,0-0.1,0-0.1v-7c0-0.1,0-0.1,0-0.2c0,0,0-0.1,0-0.2v-7
			c0-0.1,0-0.1,0-0.2c0,0,0-0.1,0-0.1v-6.8h6.7c0.3,0,0.5-0.2,0.5-0.5v-7c0-0.1,0-0.1,0-0.2c0,0,0-0.1,0-0.1v-7c0,0,0,0,0,0
			c0-0.1,0-0.1,0-0.2v-7c0,0,0-0.1,0-0.1c0,0,0-0.1,0-0.1v-7c0-0.3-0.2-0.5-0.5-0.5h-7c0,0-0.1,0-0.1,0c0,0-0.1,0-0.1,0h-7
			c-0.3,0-0.5,0.2-0.5,0.5v7c0,0,0,0.1,0,0.1c0,0,0,0.1,0,0.1v7c0,0,0,0.1,0,0.1c0,0,0,0.1,0,0.1v7c0,0.1,0,0.1,0,0.1
			c0,0,0,0.1,0,0.2v6.8H7.8c-0.3,0-0.5,0.2-0.5,0.5v7c0,0.1,0,0.1,0,0.1c0,0,0,0.1,0,0.2v7c0,0.1,0,0.1,0,0.2c0,0,0,0.1,0,0.2v7
			c0,0,0,0.1,0,0.1c0,0,0,0.1,0,0.1v6.8H0.5c-0.3,0-0.5,0.2-0.5,0.5v7c0,0,0,0.1,0,0.1c0,0,0,0.1,0,0.1v7c0,0,0,0.1,0,0.1
			c0,0.1-0.1,0.2-0.1,0.3v7c0,0,0,0.1,0,0.1c0,0,0,0.1,0,0.1v7c0,0.3,0.2,0.5,0.5,0.5h7c0.1,0,0.1,0,0.1,0c0,0,0.1,0,0.1,0h7
			c0,0,0.1,0,0.1,0c0,0,0.1,0,0.1,0h7c0.1,0,0.1,0,0.1,0c0,0,0.1,0,0.1,0h7c0.1,0,0.1,0,0.2,0c0,0,0.1,0,0.1,0h7c0,0,0.1,0,0.1,0
			c0,0,0.1,0,0.1,0h7c0.1,0,0.1,0,0.2,0c0,0,0.1,0,0.1,0h7c0,0,0.1,0,0.1,0c0,0,0.1,0,0.1,0h7c0.1,0,0.1,0,0.1,0c0,0,0.1,0,0.2,0h7
			c0.1,0,0.1,0,0.1,0c0,0,0.1,0,0.2,0h7c0,0,0.1,0,0.1,0c0,0,0.1,0,0.1,0h7c0.1,0,0.1,0,0.1,0c0,0,0.1,0,0.2,0h7c0,0,0.1,0,0.1,0
			c0,0,0.1,0,0.1,0h7c0.3,0,0.5-0.2,0.5-0.5v-7c0,0,0-0.1,0-0.1c0,0,0-0.1,0-0.1v-7c0,0,0-0.1,0-0.1c0-0.1,0.1-0.2,0.1-0.3v-7
			c0,0,0-0.1,0-0.1c0,0,0-0.1,0-0.1v-6.8h6.8c0.3,0,0.5-0.2,0.5-0.5v-7c0,0,0-0.1,0-0.1c0,0,0-0.1,0-0.1v-7c0-0.1,0-0.1,0-0.2
			c0,0,0-0.1,0-0.2v-7c0-0.1,0-0.1,0-0.2c0,0,0-0.1,0-0.1v-6.7h6.7c0.3,0,0.5-0.2,0.5-0.5v-7c0-0.1,0-0.1,0-0.2c0,0,0-0.1,0-0.1v-7
			c0,0,0-0.1,0-0.1c0,0,0-0.1,0-0.1v-7c0,0,0-0.1,0-0.1c0,0,0-0.1,0-0.1v-7C109.6,116.3,109.4,116.1,109.1,116.1z"/>
		<path class="st0" d="M109.7,58.6c0-0.3-0.2-0.5-0.5-0.5h-6.7v-6.7c0-0.1,0-0.1,0-0.1c0,0,0-0.1,0-0.1v-7c0-0.1,0-0.1,0-0.1
			c0,0,0-0.1,0-0.1v-7c0,0,0-0.1,0-0.1c0,0,0-0.1,0-0.1v-7c0-0.3-0.2-0.5-0.5-0.5h-6.8v-6.8c0,0,0-0.1,0-0.1c0,0,0-0.1,0-0.1v-7
			c0-0.1,0-0.2-0.1-0.3c0,0,0-0.1,0-0.1v-7c0,0,0-0.1,0-0.1c0,0,0-0.1,0-0.1v-7c0-0.3-0.2-0.5-0.5-0.5h-7c0,0-0.1,0-0.1,0
			c0,0-0.1,0-0.1,0h-7c-0.1,0-0.1,0-0.2,0c0,0-0.1,0-0.2,0h-7c0,0-0.1,0-0.1,0C73,0,73,0,73,0h-7c-0.1,0-0.1,0-0.2,0
			c0,0-0.1,0-0.2,0h-7c-0.1,0-0.1,0-0.1,0c0,0-0.1,0-0.2,0h-7c0,0-0.1,0-0.1,0c0,0-0.1,0-0.1,0h-7c-0.1,0-0.1,0-0.1,0
			c0,0-0.1,0-0.1,0h-7c0,0-0.1,0-0.1,0c0,0-0.1,0-0.1,0h-7c-0.1,0-0.1,0-0.1,0c0,0-0.1,0-0.1,0h-7c-0.1,0-0.1,0-0.1,0
			c0,0-0.1,0-0.2,0h-7C15,0,15,0,15,0c0,0-0.1,0-0.1,0h-7C7.8,0,7.8,0,7.7,0c0,0-0.1,0-0.2,0h-7C0.3,0,0.1,0.2,0.1,0.5v7
			c0,0,0,0.1,0,0.1c0,0,0,0.1,0,0.1v7c0,0.1,0,0.2,0.1,0.3c0,0,0,0.1,0,0.1v7c0,0,0,0.1,0,0.1c0,0,0,0.1,0,0.1v7
			c0,0.3,0.2,0.5,0.5,0.5h6.7v6.8c0,0,0,0.1,0,0.1c0,0,0,0.1,0,0.1v7c0,0.1,0,0.1,0,0.1c0,0,0,0.1,0,0.1v7c0,0.1,0,0.1,0,0.1
			c0,0,0,0.1,0,0.1v7c0,0.3,0.2,0.5,0.5,0.5h6.8v6.8c0,0.1,0,0.1,0,0.1c0,0,0,0.1,0,0.1v7c0,0,0,0.1,0,0.1c0,0,0,0.1,0,0.1v7
			c0,0,0,0.1,0,0.1c0,0,0,0.1,0,0.1v7c0,0.3,0.2,0.5,0.5,0.5h7c0,0,0.1,0,0.1,0c0,0,0.1,0,0.1,0h7c0.3,0,0.5-0.2,0.5-0.5v-7
			c0,0,0-0.1,0-0.1c0,0,0-0.1,0-0.1v-7c0-0.1,0-0.1,0-0.2c0,0,0,0,0,0v-7c0-0.1,0-0.1,0-0.1c0,0,0-0.1,0-0.1v-7
			c0-0.3-0.2-0.5-0.5-0.5h-6.7v-6.8c0-0.1,0-0.1,0-0.1c0,0,0-0.1,0-0.1v-7c0-0.1,0-0.1,0-0.1c0,0,0-0.1,0-0.1v-7c0,0,0-0.1,0-0.1
			c0,0,0-0.1,0-0.1v-7c0-0.3-0.2-0.5-0.5-0.5h-6.8v-6.8c0,0,0-0.1,0-0.1c0,0,0-0.1,0-0.1v-7c0,0,0-0.1,0-0.1c0-0.1,0.1-0.2,0.1-0.3
			V8h6.7c0.1,0,0.1,0,0.2,0c0,0,0.1,0,0.1,0h7c0.1,0,0.1,0,0.1,0c0,0,0.1,0,0.1,0h7c0,0,0.1,0,0.1,0c0,0,0.1,0,0.1,0h7
			C43.9,8,44,8,44,8c0,0,0.1,0,0.1,0h7c0,0,0.1,0,0.1,0c0,0,0.1,0,0.1,0h7c0.1,0,0.1,0,0.2,0c0,0,0.1,0,0.1,0h7c0.1,0,0.1,0,0.2,0
			c0,0,0.1,0,0.2,0h7c0,0,0.1,0,0.1,0c0,0,0.1,0,0.1,0H80v6.7c0,0,0,0.1,0,0.1c0,0.1-0.1,0.2-0.1,0.3v7c0,0,0,0.1,0,0.1
			c0,0,0,0.1,0,0.1v7c0,0.3,0.2,0.5,0.5,0.5h6.8v6.8c0,0,0,0.1,0,0.1c0,0,0,0.1,0,0.1v7c0,0.1,0,0.1,0,0.1c0,0,0,0.1,0,0.1v7
			c0,0.1,0,0.1,0,0.1c0,0,0,0.1,0,0.1v7c0,0.3,0.2,0.5,0.5,0.5h6.8v6.7c0,0.1,0,0.1,0,0.1c0,0,0,0.1,0,0.1v7c0,0,0,0.1,0,0.1
			c0,0,0,0.1,0,0.1v7c0,0,0,0.1,0,0.1c0,0,0,0.1,0,0.1v7c0,0.3,0.2,0.5,0.5,0.5h7c0,0,0.1,0,0.1,0c0,0,0.1,0,0.1,0h7
			c0.3,0,0.5-0.2,0.5-0.5v-7c0,0,0-0.1,0-0.1c0,0,0-0.1,0-0.1v-7c0,0,0-0.1,0-0.1c0,0,0-0.1,0-0.1v-7c0-0.1,0-0.1,0-0.1
			c0,0,0-0.1,0-0.1V58.6z"/>
	</g>
</g>
<g id="Слой_1">
	<path class="st1" d="M15.1,131h7v7h-7V131z M15.1,116.6h7v7h-7V116.6z M15.1,123.8h7v7h-7V123.8z M22.3,131h7v7h-7V131z
		 M22.3,116.6h7v7h-7V116.6z M22.3,123.8h7v7h-7V123.8z M0.5,189.2h7v7h-7V189.2z M0.5,174.6h7v7h-7V174.6z M0.5,181.8h7v7h-7V181.8
		z M7.8,189.2h7v7h-7V189.2z M7.8,160.1h7v7h-7V160.1z M7.8,167.3h7v7h-7V167.3z M7.7,174.6h7v7h-7V174.6z M7.7,181.8h7v7h-7V181.8z
		 M7.8,145.5h7v7h-7V145.5z M7.8,152.8h7v7h-7V152.8z M15.1,160.1h7v7h-7V160.1z M15.1,167.3h7v7h-7V167.3z M15.1,138.3h7v7h-7
		V138.3z M15.1,145.5h7v7h-7V145.5z M15.1,152.8h7v7h-7V152.8z M22.3,138.3h7v7h-7V138.3z M94.9,131h7v7h-7V131z M94.9,116.6h7v7h-7
		V116.6z M94.9,123.8h7v7h-7V123.8z M102.1,131h7v7h-7V131z M102.1,116.6h7v7h-7V116.6z M102.1,123.8h7v7h-7V123.8z M80.4,189.2h7v7
		h-7V189.2z M80.3,174.6h7v7h-7V174.6z M80.3,181.8h7v7h-7V181.8z M87.6,189.2h7v7h-7V189.2z M87.7,160.1h7v7h-7V160.1z M87.7,167.3
		h7v7h-7V167.3z M87.6,174.6h7v7h-7V174.6z M87.6,181.8h7v7h-7V181.8z M87.7,145.5h7v7h-7V145.5z M87.7,152.8h7v7h-7V152.8z
		 M95,160.1h7v7h-7V160.1z M95,167.3h7v7h-7V167.3z M94.9,138.3h7v7h-7V138.3z M95,145.5h7v7h-7V145.5z M95,152.8h7v7h-7V152.8z
		 M102.1,138.3h7v7h-7V138.3z M0.5,196.4h7v7h-7V196.4z M7.8,196.4h7v7h-7V196.4z M15,196.4h7v7h-7V196.4z M22.3,196.4h7v7h-7V196.4
		z M29.6,196.4h7v7h-7V196.4z M36.8,196.4h7v7h-7V196.4z M44.1,196.4h7v7h-7V196.4z M51.3,196.4h7v7h-7V196.4z M58.6,196.4h7v7h-7
		V196.4z M65.9,196.4h7v7h-7V196.4z M73.1,196.4h7v7h-7V196.4z M80.4,196.4h7v7h-7V196.4z M87.6,196.4h7v7h-7V196.4z M15.2,66h7v7
		h-7V66z M15.2,80.4h7v7h-7V80.4z M15.2,73.2h7v7h-7V73.2z M22.4,66h7v7h-7V66z M22.4,80.4h7v7h-7V80.4z M22.4,73.2h7v7h-7V73.2z
		 M0.6,7.7h7v7h-7V7.7z M0.6,22.3h7v7h-7V22.3z M0.6,15.1h7v7h-7V15.1z M7.9,7.7h7v7h-7V7.7z M7.8,36.8h7v7h-7V36.8z M7.8,29.6h7v7
		h-7V29.6z M7.8,22.3h7v7h-7V22.3z M7.8,15.1h7v7h-7V15.1z M7.8,51.4h7v7h-7V51.4z M7.8,44.1h7v7h-7V44.1z M15.1,36.8h7v7h-7V36.8z
		 M15.1,29.6h7v7h-7V29.6z M15.2,58.7h7v7h-7V58.7z M15.1,51.4h7v7h-7V51.4z M15.1,44.1h7v7h-7V44.1z M22.4,58.7h7v7h-7V58.7z
		 M95,65.9h7v7h-7V65.9z M95,80.4h7v7h-7V80.4z M95,73.2h7v7h-7V73.2z M102.2,65.9h7v7h-7V65.9z M102.2,80.4h7v7h-7V80.4z
		 M102.2,73.2h7v7h-7V73.2z M80.5,7.7h7v7h-7V7.7z M80.4,22.3h7v7h-7V22.3z M80.4,15.1h7v7h-7V15.1z M87.7,7.7h7v7h-7V7.7z
		 M87.7,36.8h7v7h-7V36.8z M87.7,29.6h7v7h-7V29.6z M87.7,22.3h7v7h-7V22.3z M87.7,15.1h7v7h-7V15.1z M87.7,51.4h7v7h-7V51.4z
		 M87.7,44.1h7v7h-7V44.1z M95,36.8h7v7h-7V36.8z M95,29.6h7v7h-7V29.6z M95,58.6h7v7h-7V58.6z M95,51.4h7v7h-7V51.4z M95,44.1h7v7
		h-7V44.1z M102.2,58.6h7v7h-7V58.6z M0.6,0.5h7v7h-7V0.5z M7.9,0.5h7v7h-7V0.5z M15.1,0.5h7v7h-7V0.5z M22.4,0.5h7v7h-7V0.5z
		 M29.7,0.5h7v7h-7V0.5z M36.9,0.5h7v7h-7V0.5z M44.2,0.5h7v7h-7V0.5z M51.4,0.5h7v7h-7V0.5z M58.7,0.5h7v7h-7V0.5z M66,0.5h7v7h-7
		V0.5z M73.2,0.5h7v7h-7V0.5z M80.5,0.5h7v7h-7V0.5z M87.7,0.5h7v7h-7V0.5z"/>
</g>
</svg>
