<?xml version="1.0" encoding="utf-8"?>
<!-- Generator: Adobe Illustrator 27.3.1, SVG Export Plug-In . SVG Version: 6.00 Build 0)  -->
<svg version="1.1" id="Слой_1" xmlns="http://www.w3.org/2000/svg" xmlns:xlink="http://www.w3.org/1999/xlink" x="0px" y="0px"
	 viewBox="0 0 106.3 244.3" style="enable-background:new 0 0 106.3 244.3;" xml:space="preserve">
<style type="text/css">
	.st0{fill:#FCE19B;}
	.st1{fill:#1E0E01;}
</style>
<g id="Слой_2_00000174565509225321599230000007248293848351755184_">
	<path class="st0" d="M106.3,147.7c0-1.4-1.1-2.5-2.5-2.5h-4.7v-4.7c0-0.1,0-0.1,0-0.1s0-0.1,0-0.2v-7v-0.1V133v-7
		c0-0.1,0-0.1,0-0.1s0-0.1,0-0.2v-7c0-0.1,0-0.1,0-0.1v-0.1v-7v-0.1v-0.1v-7c0-0.1,0-0.1,0-0.1v-0.1v-7c0-0.1,0-0.1,0-0.1
		s0-0.1,0-0.2v-7v-0.1v-0.1v-7c0-1.4-1.1-2.5-2.5-2.5h-4.8c0,0,0-3.6,0-5v-7c0-0.1,0-0.1,0-0.1s0-0.1,0-0.2v-4.7h4.8
		c1.4,0,2.5-1.1,2.5-2.5v-7c0-0.1,0-0.1,0-0.1s0-0.1,0-0.2v-7c0-0.1,0-0.1,0-0.1v-0.1v-7V39v-0.1v-7c0-1.4-1.1-2.5-2.5-2.5h-4.8
		v-4.8c0-0.1,0-0.1,0-0.1v-0.1v-7v-0.1v-0.1v-7c0-1.4-1.1-2.5-2.5-2.5h-4.8V2.5C84.5,1.1,83.4,0,82,0h-7h-0.1h-0.1h-7
		c-0.1,0-0.1,0-0.2,0h-0.1h-7h-0.1h-0.1h-7c-0.1,0-0.1,0-0.1,0S53.1,0,53,0h-7h-0.1h-0.1h-7c-0.1,0-0.1,0-0.1,0s-0.1,0-0.2,0h-7
		c-0.1,0-0.1,0-0.1,0h-0.1h-7c-1.4,0-2.5,1.1-2.5,2.5v4.8H17c-1.4,0-2.5,1.1-2.5,2.5v7v0.1V17v7c0,0.1,0,0.1,0,0.1v0.1V29H9.7
		c-1.4,0-2.5,1.1-2.5,2.5v7v0.1v0.1v7c0,0.1,0,0.1,0,0.1v0.1v7c0,0.1,0,0.1,0,0.2v0.1v7c0,1.4,1.1,2.5,2.5,2.5h4.8v4.7
		c0,0.1,0,0.1,0,0.2v0.1v7c0,1.4,0.1,5,0,5H9.7c-1.4,0-2.5,1.1-2.5,2.5v7v0.1v0.1v7c0,0.1,0,0.1,0,0.2v0.1v7c0,0.1,0,0.1,0,0.1v0.1
		v7v0.1v0.1v7c0,0.1,0,0.1,0,0.1v0.1v7c0,0.1,0,0.1,0,0.2v0.1v7v0.1v0.1v7c0,0.1,0,0.1,0,0.2v0.1v4.7H2.5c-1.4,0-2.5,1.1-2.5,2.5v7
		c0,0.1,0,0.1,0,0.2v0.1v7v0.1v0.1v7c0,0.1,0,0.1,0,0.2v0.1v7c0,1.4,1.1,2.5,2.5,2.5h4.7v4.8v0.1v0.1v4.8H2.5
		c-1.4,0-2.5,1.1-2.5,2.5v7c0,0.1,0,0.1,0,0.1s0,0.1,0,0.2v7v0.1v0.1v7c0,0.1,0,0.1,0,0.1s0,0.1,0,0.2v7c0,1.4,1.1,2.5,2.5,2.5h4.7
		v4.7c0,0.1,0,0.1,0,0.1s0,0.1,0,0.2v7c0,1.4,1.1,2.5,2.5,2.5h4.8v4.7c0,1.4,1.1,2.5,2.5,2.5h7c0.1,0,0.1,0,0.2,0h7
		c0.1,0,0.1,0,0.1,0h0.1h7c0.1,0,0.1,0,0.2,0h0.1h7c0.1,0,0.1,0,0.2,0h7c0.1,0,0.1,0,0.2,0h0.1h7c0.1,0,0.1,0,0.2,0h7
		c0.1,0,0.1,0,0.1,0s0.1,0,0.2,0h7c0.1,0,0.1,0,0.1,0s0.1,0,0.2,0h7c0.1,0,0.1,0,0.2,0h7c1.4,0,2.5-1.1,2.5-2.5v-4.7h4.8
		c1.4,0,2.5-1.1,2.5-2.5v-7c0-0.1,0-0.1,0-0.2v-0.1v-4.7h4.7c1.4,0,2.5-1.1,2.5-2.5v-7c0-0.1,0-0.1,0-0.2v-0.1v-7v-0.1v-0.1v-7
		c0-0.1,0-0.1,0-0.2v-0.1v-7c0-1.4-1.1-2.5-2.5-2.5H99V184v-0.1v-0.1V179h4.7c1.4,0,2.5-1.1,2.5-2.5v-7c0-0.1,0-0.1,0-0.1
		s0-0.1,0-0.2v-7v-0.1V162v-7c0-0.1,0-0.1,0-0.1s0-0.1,0-0.2v-7H106.3z"/>
</g>
<path class="st1" d="M24.2,2.5h7v7h-7V2.5z M9.7,31.6h7v7h-7C9.7,38.6,9.7,31.6,9.7,31.6z M9.7,38.8h7v7h-7
	C9.7,45.8,9.7,38.8,9.7,38.8z M9.7,46.1h7v7h-7C9.7,53.1,9.7,46.1,9.7,46.1z M9.7,53.4h7v7h-7C9.7,60.4,9.7,53.4,9.7,53.4z
	 M9.7,82.4h7v7h-7C9.7,89.4,9.7,82.4,9.7,82.4z M9.7,89.6h7v7h-7C9.7,96.6,9.7,89.6,9.7,89.6z M9.7,96.9h7v7h-7
	C9.7,103.9,9.7,96.9,9.7,96.9z M17,60.6h7v7h-7V60.6z M17,67.9h7v7h-7V67.9z M17,75.1h7v7h-7V75.1z M17,82.4h7v7h-7V82.4z M17,96.9
	h7v7h-7V96.9z M24.2,60.6h7v7h-7V60.6z M24.2,67.9h7v7h-7V67.9z M24.2,75.1h7v7h-7V75.1z M24.2,82.4h7v7h-7V82.4z M24.2,89.6h7v7h-7
	V89.6z M2.5,147.7h7v7h-7V147.7z M2.5,155h7v7h-7V155z M2.5,162.2h7v7h-7V162.2z M2.5,169.5h7v7h-7V169.5z M9.7,104.2h7v7h-7
	C9.7,111.2,9.7,104.2,9.7,104.2z M9.7,111.4h7v7h-7C9.7,118.4,9.7,111.4,9.7,111.4z M9.7,118.7h7v7h-7
	C9.7,125.7,9.7,118.7,9.7,118.7z M9.7,126h7v7h-7C9.7,133,9.7,126,9.7,126z M9.7,133.2h7v7h-7C9.7,140.2,9.7,133.2,9.7,133.2z
	 M9.7,140.5h7v7h-7C9.7,147.5,9.7,140.5,9.7,140.5z M9.7,147.7h7v7h-7C9.7,154.7,9.7,147.7,9.7,147.7z M9.7,155h7v7h-7
	C9.7,162,9.7,155,9.7,155z M9.7,162.2h7v7h-7C9.7,169.2,9.7,162.2,9.7,162.2z M9.7,169.5h7v7h-7C9.7,176.5,9.7,169.5,9.7,169.5z
	 M17,111.4h7v7h-7V111.4z M17,126h7v7h-7V126z M17,140.5h7v7h-7V140.5z M17,155h7v7h-7V155z M17,169.5h7v7h-7V169.5z M24.2,104.2h7
	v7h-7V104.2z M24.2,118.7h7v7h-7V118.7z M24.2,133.2h7v7h-7V133.2z M24.2,140.5h7v7h-7V140.5z M24.2,147.7h7v7h-7V147.7z M24.2,155
	h7v7h-7V155z M24.2,162.2h7v7h-7V162.2z M24.2,169.5h7v7h-7V169.5z M2.5,191.3h7v7h-7V191.3z M2.5,198.6h7v7h-7V198.6z M2.5,205.8h7
	v7h-7V205.8z M2.5,213.1h7v7h-7V213.1z M9.7,176.8h7v7h-7C9.7,183.8,9.7,176.8,9.7,176.8z M9.7,184h7v7h-7C9.7,191,9.7,184,9.7,184z
	 M9.7,191.3h7v7h-7C9.7,198.3,9.7,191.3,9.7,191.3z M9.7,198.6h7v7h-7C9.7,205.6,9.7,198.6,9.7,198.6z M9.7,205.8h7v7h-7
	C9.7,212.8,9.7,205.8,9.7,205.8z M9.7,213.1h7v7h-7C9.7,220.1,9.7,213.1,9.7,213.1z M9.7,220.3h7v7h-7
	C9.7,227.3,9.7,220.3,9.7,220.3z M9.7,227.6h7v7h-7C9.7,234.6,9.7,227.6,9.7,227.6z M17,184h7v7h-7V184z M17,198.6h7v7h-7V198.6z
	 M17,213.1h7v7h-7V213.1z M17,227.6h7v7h-7V227.6z M24.2,176.8h7v7h-7V176.8z M24.2,184h7v7h-7V184z M24.2,191.3h7v7h-7V191.3z
	 M24.2,205.8h7v7h-7V205.8z M24.2,220.3h7v7h-7V220.3z M31.5,2.5h7v7h-7V2.5z M38.8,2.5h7v7h-7V2.5z M46,2.5h7v7h-7V2.5z M53.3,2.5
	h7v7h-7V2.5z M60.5,2.5h7v7h-7V2.5z M67.8,2.5h7v7h-7V2.5z M75,2.5h7v7h-7V2.5z M31.5,67.9h7v7h-7V67.9z M31.5,75.1h7v7h-7V75.1z
	 M31.5,82.4h7v7h-7V82.4z M31.5,96.9h7v7h-7V96.9z M38.8,60.6h7v7h-7V60.6z M38.8,75.1h7v7h-7V75.1z M38.8,82.4h7v7h-7V82.4z
	 M38.8,89.6h7v7h-7V89.6z M46,60.6h7v7h-7V60.6z M46,67.9h7v7h-7V67.9z M46,75.1h7v7h-7V75.1z M46,82.4h7v7h-7V82.4z M46,96.9h7v7
	h-7V96.9z M53.3,60.6h7v7h-7V60.6z M53.3,67.9h7v7h-7V67.9z M53.3,75.1h7v7h-7V75.1z M53.3,82.4h7v7h-7V82.4z M53.3,89.6h7v7h-7
	V89.6z M60.5,60.6h7v7h-7V60.6z M60.5,75.1h7v7h-7V75.1z M60.5,82.4h7v7h-7V82.4z M60.5,96.9h7v7h-7V96.9z M67.8,67.9h7v7h-7V67.9z
	 M67.8,75.1h7v7h-7V75.1z M67.8,82.4h7v7h-7V82.4z M67.8,89.6h7v7h-7V89.6z M75.1,60.6h7v7h-7V60.6z M75.1,67.9h7v7h-7V67.9z
	 M75.1,75.1h7v7h-7V75.1z M75.1,82.4h7v7h-7V82.4z M75.1,96.9h7v7h-7V96.9z M82.3,60.6h7v7h-7V60.6z M17,53.3h7v7h-7V53.3z
	 M24.2,53.3h7v7h-7V53.3z M31.5,53.3h7v7h-7V53.3z M38.8,53.3h7v7h-7V53.3z M46,53.3h7v7h-7V53.3z M53.3,53.3h7v7h-7V53.3z
	 M60.5,53.3h7v7h-7V53.3z M67.8,53.3h7v7h-7V53.3z M75.1,53.3h7v7h-7V53.3z M82.3,53.3h7v7h-7V53.3z M17,46.1h7v7h-7V46.1z
	 M24.2,46.1h7v7h-7V46.1z M38.8,46.1h7v7h-7V46.1z M46,46.1h7v7h-7V46.1z M53.3,46.1h7v7h-7V46.1z M60.5,46.1h7v7h-7V46.1z
	 M75.1,46.1h7v7h-7V46.1z M82.3,46.1h7v7h-7V46.1z M17,38.8h7v7h-7V38.8z M24.2,38.8h7v7h-7V38.8z M31.5,38.8h7v7h-7V38.8z M46,38.8
	h7v7h-7V38.8z M53.3,38.8h7v7h-7V38.8z M67.8,38.8h7v7h-7V38.8z M75.1,38.8h7v7h-7V38.8z M82.3,38.8h7v7h-7V38.8z M17,31.6h7v7h-7
	V31.6z M24.2,31.6h7v7h-7V31.6z M31.5,31.6h7v7h-7V31.6z M38.8,31.6h7v7h-7V31.6z M46,31.6h7v7h-7V31.6z M53.3,31.6h7v7h-7V31.6z
	 M60.5,31.6h7v7h-7V31.6z M67.8,31.6h7v7h-7V31.6z M75.1,31.6h7v7h-7V31.6z M82.3,31.6h7v7h-7V31.6z M17,24.3h7v7h-7V24.3z
	 M24.2,24.3h7v7h-7V24.3z M31.5,24.3h7v7h-7V24.3z M38.8,24.3h7v7h-7V24.3z M46,24.3h7v7h-7V24.3z M53.3,24.3h7v7h-7V24.3z
	 M60.5,24.3h7v7h-7V24.3z M67.8,24.3h7v7h-7V24.3z M75.1,24.3h7v7h-7V24.3z M82.3,24.3h7v7h-7V24.3z M17,17h7v7h-7V17z M31.5,17h7v7
	h-7V17z M46,17h7v7h-7V17z M53.3,17h7v7h-7V17z M67.8,17h7v7h-7V17z M82.3,17h7v7h-7V17z M17,9.8h7v7h-7V9.8z M24.2,9.8h7v7h-7V9.8z
	 M38.8,9.8h7v7h-7V9.8z M60.5,9.8h7v7h-7V9.8z M75.1,9.8h7v7h-7V9.8z M82.3,9.8h7v7h-7V9.8z M82.3,67.9h7v7h-7V67.9z M82.3,75.1h7v7
	h-7V75.1z M82.3,82.4h7v7h-7V82.4z M82.3,89.6h7v7h-7V89.6z M89.6,31.6h7v7h-7V31.6z M89.6,38.8h7v7h-7V38.8z M89.6,46.1h7v7h-7
	V46.1z M89.6,53.4h7v7h-7V53.4z M89.6,82.4h7v7h-7V82.4z M89.6,89.6h7v7h-7V89.6z M89.6,96.9h7v7h-7V96.9z M31.5,111.4h7v7h-7V111.4
	z M31.5,118.7h7v7h-7V118.7z M31.5,126h7v7h-7V126z M31.5,133.2h7v7h-7V133.2z M31.5,140.5h7v7h-7V140.5z M31.5,147.7h7v7h-7V147.7z
	 M31.5,155h7v7h-7V155z M31.5,162.2h7v7h-7V162.2z M31.5,169.5h7v7h-7V169.5z M38.8,104.2h7v7h-7V104.2z M38.8,111.4h7v7h-7V111.4z
	 M38.8,118.7h7v7h-7V118.7z M38.8,126h7v7h-7V126z M38.8,133.2h7v7h-7V133.2z M38.8,140.5h7v7h-7V140.5z M38.8,147.7h7v7h-7V147.7z
	 M38.8,155h7v7h-7V155z M38.8,162.2h7v7h-7V162.2z M38.8,169.5h7v7h-7V169.5z M46,104.2h7v7h-7V104.2z M46,111.4h7v7h-7V111.4z
	 M46,118.7h7v7h-7V118.7z M46,126h7v7h-7V126z M46,133.2h7v7h-7V133.2z M46,140.5h7v7h-7V140.5z M46,147.7h7v7h-7V147.7z M46,155h7
	v7h-7V155z M46,162.2h7v7h-7V162.2z M46,169.5h7v7h-7V169.5z M53.3,104.2h7v7h-7V104.2z M53.3,111.4h7v7h-7V111.4z M53.3,118.7h7v7
	h-7V118.7z M53.3,126h7v7h-7V126z M53.3,133.2h7v7h-7V133.2z M53.3,140.5h7v7h-7V140.5z M53.3,147.7h7v7h-7V147.7z M53.3,155h7v7h-7
	V155z M53.3,162.2h7v7h-7V162.2z M53.3,169.5h7v7h-7V169.5z M60.5,111.4h7v7h-7V111.4z M60.5,118.7h7v7h-7V118.7z M60.5,126h7v7h-7
	V126z M60.5,133.2h7v7h-7V133.2z M60.5,140.5h7v7h-7V140.5z M60.5,147.7h7v7h-7V147.7z M60.5,155h7v7h-7V155z M60.5,162.2h7v7h-7
	V162.2z M60.5,169.5h7v7h-7V169.5z M67.8,104.2h7v7h-7V104.2z M67.8,118.7h7v7h-7V118.7z M67.8,126h7v7h-7V126z M67.8,133.2h7v7h-7
	V133.2z M67.8,140.5h7v7h-7V140.5z M67.8,147.7h7v7h-7V147.7z M67.8,155h7v7h-7V155z M67.8,162.2h7v7h-7V162.2z M67.8,169.5h7v7h-7
	V169.5z M75.1,111.4h7v7h-7V111.4z M75.1,126h7v7h-7V126z M75.1,140.5h7v7h-7V140.5z M75.1,147.7h7v7h-7V147.7z M75.1,155h7v7h-7
	V155z M75.1,162.2h7v7h-7V162.2z M75.1,169.5h7v7h-7V169.5z M82.3,104.2h7v7h-7V104.2z M82.3,118.7h7v7h-7V118.7z M82.3,133.2h7v7
	h-7V133.2z M82.3,147.7h7v7h-7V147.7z M82.3,162.2h7v7h-7V162.2z M89.6,104.2h7v7h-7V104.2z M89.6,111.4h7v7h-7V111.4z M89.6,118.7
	h7v7h-7V118.7z M89.6,126h7v7h-7V126z M89.6,133.2h7v7h-7V133.2z M89.6,140.5h7v7h-7V140.5z M89.6,147.7h7v7h-7V147.7z M89.6,155h7
	v7h-7V155z M89.6,162.2h7v7h-7V162.2z M89.6,169.5h7v7h-7V169.5z M96.8,147.7h7v7h-7V147.7z M96.8,155h7v7h-7V155z M96.8,162.2h7v7
	h-7V162.2z M96.8,169.5h7v7h-7V169.5z M31.5,176.8h7v7h-7V176.8z M31.5,184h7v7h-7V184z M31.5,191.3h7v7h-7V191.3z M31.5,198.6h7v7
	h-7V198.6z M31.5,213.1h7v7h-7V213.1z M31.5,227.6h7v7h-7V227.6z M38.8,176.8h7v7h-7V176.8z M38.8,184h7v7h-7V184z M38.8,191.3h7v7
	h-7V191.3z M38.8,198.6h7v7h-7V198.6z M38.8,205.8h7v7h-7V205.8z M38.8,220.3h7v7h-7V220.3z M46,176.8h7v7h-7V176.8z M46,184h7v7h-7
	V184z M46,191.3h7v7h-7V191.3z M46,198.6h7v7h-7V198.6z M46,205.8h7v7h-7V205.8z M46,213.1h7v7h-7V213.1z M46,227.6h7v7h-7V227.6z
	 M53.3,176.8h7v7h-7V176.8z M53.3,184h7v7h-7V184z M53.3,191.3h7v7h-7V191.3z M53.3,198.6h7v7h-7V198.6z M53.3,205.8h7v7h-7V205.8z
	 M53.3,220.3h7v7h-7V220.3z M60.5,176.8h7v7h-7V176.8z M60.5,184h7v7h-7V184z M60.5,191.3h7v7h-7V191.3z M60.5,198.6h7v7h-7V198.6z
	 M60.5,205.8h7v7h-7V205.8z M60.5,213.1h7v7h-7V213.1z M60.5,227.6h7v7h-7V227.6z M67.8,176.8h7v7h-7V176.8z M67.8,184h7v7h-7V184z
	 M67.8,191.3h7v7h-7V191.3z M67.8,198.6h7v7h-7V198.6z M67.8,205.8h7v7h-7V205.8z M67.8,220.3h7v7h-7V220.3z M75.1,176.8h7v7h-7
	V176.8z M75.1,184h7v7h-7V184z M75.1,198.6h7v7h-7V198.6z M75.1,213.1h7v7h-7V213.1z M75.1,227.6h7v7h-7V227.6z M82.3,176.8h7v7h-7
	V176.8z M82.3,191.3h7v7h-7V191.3z M82.3,205.8h7v7h-7V205.8z M82.3,220.3h7v7h-7V220.3z M89.6,176.8h7v7h-7V176.8z M89.6,184h7v7
	h-7V184z M89.6,191.3h7v7h-7V191.3z M89.6,198.6h7v7h-7V198.6z M89.6,205.8h7v7h-7V205.8z M89.6,213.1h7v7h-7V213.1z M89.6,220.3h7
	v7h-7V220.3z M89.6,227.6h7v7h-7V227.6z M96.8,191.3h7v7h-7V191.3z M96.8,198.6h7v7h-7V198.6z M96.8,205.8h7v7h-7V205.8z
	 M96.8,213.1h7v7h-7V213.1z M17,234.8h7v7h-7V234.8z M24.2,234.8h7v7h-7V234.8z M31.5,234.8h7v7h-7V234.8z M38.8,234.8h7v7h-7V234.8
	z M46,234.8h7v7h-7V234.8z M53.3,234.8h7v7h-7V234.8z M60.5,234.8h7v7h-7V234.8z M67.8,234.8h7v7h-7V234.8z M75.1,234.8h7v7h-7
	V234.8z M82.3,234.8h7v7h-7V234.8z"/>
</svg>
