<?xml version="1.0" encoding="utf-8"?>
<!-- Generator: Adobe Illustrator 27.3.1, SVG Export Plug-In . SVG Version: 6.00 Build 0)  -->
<svg version="1.1" xmlns="http://www.w3.org/2000/svg" xmlns:xlink="http://www.w3.org/1999/xlink" x="0px" y="0px"
	 viewBox="0 0 166.7 428.1" style="enable-background:new 0 0 166.7 428.1;" xml:space="preserve">
<style type="text/css">
	.st0{fill:#FCE19B;}
	.st1{fill:#1E0E01;}
</style>
<g id="Слой_2">
	<path class="st0" d="M166.7,99.7h-7c0,0-0.1,0-0.1,0c0,0-0.1,0-0.1,0h-5.3v-5.3c0-1.1-0.9-2-2-2H147v-3.5h5.2c1.1,0,2-0.9,2-2v-7
		c0-0.1,0-0.1,0-0.1c0,0,0-0.1,0-0.2v-7c0,0,0-0.1,0-0.1c0,0,0-0.1,0-0.1v-5.3h5.3c1.1,0,2-0.9,2-2v-7c0,0,0-0.1,0-0.1
		c0,0,0-0.1,0-0.1v-7c0-0.1,0-0.1,0-0.1c0,0,0-0.1,0-0.2v-7c0-1.1-0.9-2-2-2h-5.3v-5.3c0,0,0-0.1,0-0.1c0,0,0-0.1,0-0.1v-7
		c0-0.1,0-0.1,0-0.1c0,0,0-0.1,0-0.1v-7c0-1.1-0.9-2-2-2H147v-5.3c0-1.1-0.9-2-2-2h-5.3V7.3c0-1.1-0.9-2-2-2h-5.3V0c0-1.1-0.9-2-2-2
		h-7c0,0-0.1,0-0.1,0c0,0-0.1,0-0.1,0h-7c-0.1,0-0.1,0-0.2,0c0,0-0.1,0-0.2,0h-7c0,0-0.1,0-0.1,0c0,0-0.1,0-0.1,0h-7
		c-0.1,0-0.1,0-0.2,0c0,0-0.1,0-0.2,0h-7c-0.1,0-0.1,0-0.2,0c0,0-0.1,0-0.1,0h-7c0,0-0.1,0-0.1,0c0,0-0.1,0-0.1,0h-7
		c-0.1,0-0.1,0-0.1,0c0,0-0.1,0-0.1,0h-7c0,0-0.1,0-0.1,0c0,0-0.1,0-0.1,0h-7c-0.1,0-0.1,0-0.1,0c0,0-0.1,0-0.1,0h-7
		C58-2,58-2,57.9-2c0,0-0.1,0-0.1,0h-7c0,0-0.1,0-0.1,0c0,0-0.1,0-0.1,0h-7c-0.1,0-0.1,0-0.2,0c0,0-0.1,0-0.1,0h-7c-1.1,0-2,0.9-2,2
		v5.3h-5.2c-1.1,0-2,0.9-2,2v5.2h-5.3c-1.1,0-2,0.9-2,2v5.3h-5.3c-1.1,0-2,0.9-2,2v7c0,0.1,0,0.1,0,0.1c0,0,0,0.1,0,0.1v7
		c0,0,0,0.1,0,0.1c0,0,0,0.1,0,0.1v5.3H7.2c-1.1,0-2,0.9-2,2v7c0,0.1,0,0.1,0,0.2c0,0,0,0.1,0,0.1v7c0,0,0,0.1,0,0.1
		c0,0,0,0.1,0,0.1v7c0,1.1,0.9,2,2,2h5.3v5.3c0,0,0,0.1,0,0.1c0,0,0,0.1,0,0.1v7c0,0.1,0,0.1,0,0.2c0,0,0,0.1,0,0.1v7
		c0,1.1,0.9,2,2,2h5.3v3.5h-5.3c-1.1,0-2,0.9-2,2v5.3H7.3c-0.1,0-0.1,0-0.1,0c0,0-0.1,0-0.1,0H0c-1.1,0-2,0.9-2,2v7c0,1.1,0.9,2,2,2
		h7c0.1,0,0.1,0,0.1,0c0,0,0.1,0,0.1,0h5.2v5.2c0,1.1,0.9,2,2,2h5.3v5.3c0,0.1,0,0.1,0,0.1c0,0,0,0.1,0,0.1v7c0,0,0,0.1,0,0.1
		c0,0,0,0.1,0,0.1v7c0,0.1,0,0.1,0,0.1c0,0,0,0.1,0,0.1v7c0,1.1,0.9,2,2,2h5.3v3.5h-5.3c-0.1,0-0.1,0-0.1,0c0,0-0.1,0-0.1,0h-7
		c-1.1,0-2,0.9-2,2v5.2H7.3c-1.1,0-2,0.9-2,2v7c0,0.1,0,0.1,0,0.1c0,0,0,0.1,0,0.1v7c0,0.1,0,0.1,0,0.1c0,0,0,0.1,0,0.2v7
		c0,0,0,0.1,0,0.1c0,0,0,0.1,0,0.1v7c0,0.1,0,0.1,0,0.1c0,0,0,0.1,0,0.2v7c0,0.1,0,0.1,0,0.1c0,0,0,0.1,0,0.1v7c0,0,0,0.1,0,0.1
		c0,0,0,0.1,0,0.1v7c0,0.1,0,0.1,0,0.1c0,0,0,0.1,0,0.1v7c0,0,0,0.1,0,0.1c0,0,0,0.1,0,0.1v7c0,0.1,0,0.1,0,0.2c0,0,0,0.1,0,0.1v7
		c0,0,0,0.1,0,0.1c0,0,0,0.1,0,0.1v7c0,0.1,0,0.1,0,0.2c0,0,0,0.1,0,0.1v7c0,0.1,0,0.1,0,0.1c0,0,0,0.1,0,0.2v7c0,0,0,0.1,0,0.1
		c0,0,0,0.1,0,0.1v7c0,0.1,0,0.1,0,0.1c0,0,0,0.1,0,0.2v7c0,0.1,0,0.1,0,0.2c0,0,0,0.1,0,0.2v7c0,0,0,0.1,0,0.1c0,0,0,0.1,0,0.1v7
		c0,0.1,0,0.1,0,0.2c0,0,0,0.1,0,0.2v7c0,0,0,0.1,0,0.1c0,0,0,0.1,0,0.1v7c0,0.1,0,0.1,0,0.2c0,0,0,0.1,0,0.2v7c0,0,0,0.1,0,0.1
		c0,0,0,0.1,0,0.1v7c0,0.1,0,0.1,0,0.2c0,0,0,0.1,0,0.2v7c0,0.1,0,0.1,0,0.2c0,0,0,0.1,0,0.1v7c0,0,0,0.1,0,0.1c0,0,0,0.1,0,0.1v7
		c0,0.1,0,0.1,0,0.2c0,0,0,0.1,0,0.1v7c0,0.1,0,0.1,0,0.1c0,0,0,0.1,0,0.2v7c0,0,0,0.1,0,0.1c0,0,0,0.1,0,0.1v7c0,0.1,0,0.1,0,0.1
		c0,0,0,0.1,0,0.2v7c0,0,0,0.1,0,0.1c0,0,0,0.1,0,0.1v7c0,0.1,0,0.1,0,0.1c0,0,0,0.1,0,0.2v7c0,0,0,0.1,0,0.1c0,0,0,0.1,0,0.1v7
		c0,0.1,0,0.1,0,0.1c0,0,0,0.1,0,0.2v7c0,0.1,0,0.1,0,0.2c0,0,0,0.1,0,0.1v7c0,0,0,0.1,0,0.1c0,0,0,0.1,0,0.1v7c0,0.1,0,0.1,0,0.2
		c0,0,0,0.1,0,0.1v7c0,0.1,0,0.1,0,0.1c0,0,0,0.1,0,0.2v7c0,1.1,0.9,2,2,2h5.2v5.2c0,1.1,0.9,2,2,2h7c0.1,0,0.1,0,0.1,0
		c0,0,0.1,0,0.1,0h7c0.1,0,0.1,0,0.1,0c0,0,0.1,0,0.2,0h7c0.1,0,0.1,0,0.2,0h7c0.1,0,0.1,0,0.1,0c0,0,0.1,0,0.2,0h7
		c0.1,0,0.1,0,0.2,0h7c0.1,0,0.1,0,0.1,0c0,0,0.1,0,0.2,0h7c0.1,0,0.1,0,0.1,0c0,0,0.1,0,0.1,0h7c0,0,0.1,0,0.1,0c0,0,0.1,0,0.1,0h7
		c0.1,0,0.1,0,0.1,0c0,0,0.1,0,0.1,0h7c0,0,0.1,0,0.1,0c0,0,0.1,0,0.1,0h7c0.1,0,0.1,0,0.1,0c0,0,0.1,0,0.2,0h7c0.1,0,0.1,0,0.2,0
		c0,0,0.1,0,0.2,0h7c0.1,0,0.1,0,0.2,0h7c0.1,0,0.1,0,0.2,0c0,0,0.1,0,0.2,0h7c0.1,0,0.1,0,0.2,0h7c0.1,0,0.1,0,0.2,0
		c0,0,0.1,0,0.2,0h7c0.1,0,0.1,0,0.1,0c0,0,0.1,0,0.2,0h7c0,0,0.1,0,0.1,0c0,0,0.1,0,0.1,0h7c1.1,0,2-0.9,2-2v-5.2h5.3
		c1.1,0,2-0.9,2-2v-7c0-0.1,0-0.1,0-0.2c0,0,0-0.1,0-0.1v-7c0-0.1,0-0.1,0-0.1c0,0,0-0.1,0-0.2v-7c0,0,0-0.1,0-0.1c0,0,0-0.1,0-0.1
		v-7c0-0.1,0-0.1,0-0.1c0,0,0-0.1,0-0.2v-7c0-0.1,0-0.1,0-0.2c0,0,0-0.1,0-0.1v-7c0,0,0-0.1,0-0.1c0,0,0-0.1,0-0.1v-7
		c0-0.1,0-0.1,0-0.2c0,0,0-0.1,0-0.1v-7c0,0,0-0.1,0-0.1c0,0,0-0.1,0-0.1v-7c0-0.1,0-0.1,0-0.2c0,0,0-0.1,0-0.1v-7c0,0,0-0.1,0-0.1
		c0,0,0-0.1,0-0.1v-7c0-0.1,0-0.1,0-0.2c0,0,0-0.1,0-0.1v-7c0-0.1,0-0.1,0-0.1c0,0,0-0.1,0-0.2v-7c0,0,0-0.1,0-0.1c0,0,0-0.1,0-0.1
		v-7c0-0.1,0-0.1,0-0.1c0,0,0-0.1,0-0.2v-7c0-0.1,0-0.1,0-0.2c0,0,0-0.1,0-0.2v-7c0,0,0-0.1,0-0.1c0,0,0-0.1,0-0.1v-7
		c0-0.1,0-0.1,0-0.2c0,0,0-0.1,0-0.2v-7c0,0,0-0.1,0-0.1c0,0,0-0.1,0-0.1v-7c0-0.1,0-0.1,0-0.2c0,0,0-0.1,0-0.2v-7c0,0,0-0.1,0-0.1
		c0,0,0-0.1,0-0.1v-7c0-0.1,0-0.1,0-0.2c0,0,0-0.1,0-0.2v-7c0-0.1,0-0.1,0-0.2c0,0,0-0.1,0-0.1v-7c0,0,0-0.1,0-0.1c0,0,0-0.1,0-0.1
		v-7c0-0.1,0-0.1,0-0.2c0,0,0-0.1,0-0.1v-7c0-0.1,0-0.1,0-0.1c0,0,0-0.1,0-0.2v-7c0,0,0-0.1,0-0.1c0,0,0-0.1,0-0.1v-7
		c0-0.1,0-0.1,0-0.1c0,0,0-0.1,0-0.2v-7c0,0,0-0.1,0-0.1c0,0,0-0.1,0-0.1v-7c0-0.1,0-0.1,0-0.1c0,0,0-0.1,0-0.1v-7c0,0,0-0.1,0-0.1
		c0,0,0-0.1,0-0.1v-7c0-0.1,0-0.1,0-0.1c0,0,0-0.1,0-0.1v-7c0-0.1,0-0.1,0-0.2c0,0,0-0.1,0-0.1v-7c0,0,0-0.1,0-0.1c0,0,0-0.1,0-0.1
		v-7c0-0.1,0-0.1,0-0.2c0,0,0-0.1,0-0.1v-7c0-0.1,0-0.1,0-0.1c0,0,0-0.1,0-0.1v-7c0-1.1-0.9-2-2-2h-5.3v-5.2c0-1.1-0.9-2-2-2h-7
		c0,0-0.1,0-0.1,0c0,0-0.1,0-0.1,0h-5.3V147h5.3c1.1,0,2-0.9,2-2v-7c0-0.1,0-0.1,0-0.1c0,0,0-0.1,0-0.1v-7c0,0,0-0.1,0-0.1
		c0,0,0-0.1,0-0.1v-7c0-0.1,0-0.1,0-0.1c0,0,0-0.1,0-0.1v-5.3h5.2c1.1,0,2-0.9,2-2v-5.2h5.3c0,0,0.1,0,0.1,0c0,0,0.1,0,0.1,0h7
		c1.1,0,2-0.9,2-2v-7C168.7,100.6,167.8,99.7,166.7,99.7z"/>
</g>
<g id="Слой_1">
	<path class="st1" d="M0,101.7h7v7H0V101.7z M7.3,101.7h7v7h-7V101.7z M7.3,159.7h7v7h-7V159.7z M7.3,167h7v7h-7V167z M7.3,174.3h7
		v7h-7V174.3z M7.3,181.5h7v7h-7V181.5z M7.3,188.8h7v7h-7V188.8z M7.3,196.1h7v7h-7V196.1z M7.3,203.3h7v7h-7V203.3z M7.3,210.6h7
		v7h-7V210.6z M7.3,217.8h7v7h-7V217.8z M7.3,225.1h7v7h-7V225.1z M7.3,232.3h7v7h-7V232.3z M7.3,239.6h7v7h-7V239.6z M14.5,21.8h7
		v7h-7V21.8z M14.5,29.1h7v7h-7V29.1z M14.5,36.3h7v7h-7V36.3z M14.5,43.6h7v7h-7V43.6z M14.5,50.9h7v7h-7V50.9z M14.5,58.1h7v7h-7
		V58.1z M7.2,43.6h7v7h-7V43.6z M7.2,50.9h7v7h-7V50.9z M7.2,58.1h7v7h-7V58.1z M14.5,65.4h7v7h-7V65.4z M14.5,72.6h7v7h-7V72.6z
		 M14.5,79.9h7v7h-7V79.9z M14.5,94.4h7v7h-7V94.4z M14.5,108.9h7v7h-7V108.9z M14.5,152.5h7v7h-7V152.5z M14.5,167h7v7h-7V167z
		 M14.5,181.5h7v7h-7V181.5z M14.5,196.1h7v7h-7V196.1z M14.5,210.6h7v7h-7V210.6z M14.5,225.1h7v7h-7V225.1z M14.5,232.3h7v7h-7
		V232.3z M14.5,239.6h7v7h-7V239.6z M21.8,14.5h7v7h-7V14.5z M21.8,21.8h7v7h-7V21.8z M21.8,29.1h7v7h-7V29.1z M21.8,36.3h7v7h-7
		V36.3z M21.8,43.6h7v7h-7V43.6z M21.8,65.4h7v7h-7V65.4z M21.8,72.6h7v7h-7V72.6z M21.8,79.9h7v7h-7V79.9z M21.8,87.1h7v7h-7V87.1z
		 M21.8,94.4h7v7h-7V94.4z M21.8,101.7h7v7h-7V101.7z M21.8,108.9h7v7h-7V108.9z M21.8,116.2h7v7h-7V116.2z M21.8,123.5h7v7h-7
		V123.5z M21.8,130.7h7v7h-7V130.7z M21.8,138h7v7h-7V138z M21.8,152.5h7v7h-7V152.5z M21.8,159.7h7v7h-7V159.7z M21.8,174.3h7v7h-7
		V174.3z M21.8,188.8h7v7h-7V188.8z M21.8,203.3h7v7h-7V203.3z M21.8,210.6h7v7h-7V210.6z M21.8,217.8h7v7h-7V217.8z M21.8,225.1h7
		v7h-7V225.1z M21.8,232.3h7v7h-7V232.3z M21.8,239.6h7v7h-7V239.6z M29.1,7.3h7v7h-7V7.3z M29.1,21.8h7v7h-7V21.8z M29.1,29.1h7v7
		h-7V29.1z M29.1,50.9h7v7h-7V50.9z M29.1,58.1h7v7h-7V58.1z M29.1,65.4h7v7h-7V65.4z M29.1,72.6h7v7h-7V72.6z M29.1,87.1h7v7h-7
		V87.1z M29.1,94.4h7v7h-7V94.4z M29.1,101.7h7v7h-7V101.7z M29.1,108.9h7v7h-7V108.9z M29.1,116.2h7v7h-7V116.2z M29.1,123.5h7v7
		h-7V123.5z M29.1,130.7h7v7h-7V130.7z M29.1,138h7v7h-7V138z M29.1,145.2h7v7h-7V145.2z M29.1,152.5h7v7h-7V152.5z M29.1,167h7v7
		h-7V167z M29.1,181.5h7v7h-7V181.5z M29.1,188.8h7v7h-7V188.8z M29.1,196.1h7v7h-7V196.1z M29.1,203.3h7v7h-7V203.3z M29.1,210.6h7
		v7h-7V210.6z M29.1,217.8h7v7h-7V217.8z M29.1,225.1h7v7h-7V225.1z M29.1,232.3h7v7h-7V232.3z M29.1,239.6h7v7h-7V239.6z M36.3,0h7
		v7h-7V0z M36.3,21.8h7v7h-7V21.8z M36.3,36.3h7v7h-7V36.3z M36.3,43.6h7v7h-7V43.6z M36.3,50.9h7v7h-7V50.9z M36.3,58.1h7v7h-7
		V58.1z M36.3,65.4h7v7h-7V65.4z M36.3,79.9h7v7h-7V79.9z M36.3,94.4h7v7h-7V94.4z M36.3,101.7h7v7h-7V101.7z M36.3,108.9h7v7h-7
		V108.9z M36.3,116.2h7v7h-7V116.2z M36.3,123.5h7v7h-7V123.5z M36.3,130.7h7v7h-7V130.7z M36.3,138h7v7h-7V138z M36.3,145.2h7v7h-7
		V145.2z M36.3,152.5h7v7h-7V152.5z M36.3,159.7h7v7h-7V159.7z M36.3,174.3h7v7h-7V174.3z M36.3,181.5h7v7h-7V181.5z M36.3,188.8h7
		v7h-7V188.8z M36.3,196.1h7v7h-7V196.1z M36.3,203.3h7v7h-7V203.3z M36.3,210.6h7v7h-7V210.6z M36.3,217.8h7v7h-7V217.8z
		 M36.3,225.1h7v7h-7V225.1z M36.3,232.3h7v7h-7V232.3z M36.3,239.6h7v7h-7V239.6z M43.6,0h7v7h-7V0z M43.6,21.8h7v7h-7V21.8z
		 M43.6,29.1h7v7h-7V29.1z M43.6,36.3h7v7h-7V36.3z M43.6,43.6h7v7h-7V43.6z M43.6,50.9h7v7h-7V50.9z M43.6,58.1h7v7h-7V58.1z
		 M43.6,65.4h7v7h-7V65.4z M43.6,72.6h7v7h-7V72.6z M43.6,87.1h7v7h-7V87.1z M43.6,94.4h7v7h-7V94.4z M43.6,101.7h7v7h-7V101.7z
		 M43.6,108.9h7v7h-7V108.9z M43.6,116.2h7v7h-7V116.2z M43.6,123.5h7v7h-7V123.5z M43.6,130.7h7v7h-7V130.7z M43.6,138h7v7h-7V138z
		 M43.6,145.2h7v7h-7V145.2z M43.6,152.5h7v7h-7V152.5z M43.6,167h7v7h-7V167z M43.6,174.3h7v7h-7V174.3z M43.6,181.5h7v7h-7V181.5z
		 M43.6,188.8h7v7h-7V188.8z M43.6,196.1h7v7h-7V196.1z M43.6,203.3h7v7h-7V203.3z M43.6,210.6h7v7h-7V210.6z M43.6,217.8h7v7h-7
		V217.8z M43.6,225.1h7v7h-7V225.1z M43.6,232.3h7v7h-7V232.3z M43.6,239.6h7v7h-7V239.6z M50.8,0h7v7h-7V0z M50.8,7.3h7v7h-7V7.3z
		 M50.8,14.5h7v7h-7V14.5z M43.6,14.5h7v7h-7V14.5z M50.8,21.8h7v7h-7V21.8z M50.8,29.1h7v7h-7V29.1z M50.8,36.3h7v7h-7V36.3z
		 M50.8,43.6h7v7h-7V43.6z M50.8,50.9h7v7h-7V50.9z M58.1,50.9h7v7h-7V50.9z M50.8,58.1h7v7h-7V58.1z M50.8,65.4h7v7h-7V65.4z
		 M50.8,79.9h7v7h-7V79.9z M50.8,94.4h7v7h-7V94.4z M50.8,101.7h7v7h-7V101.7z M50.8,108.9h7v7h-7V108.9z M50.8,116.2h7v7h-7V116.2z
		 M50.8,123.5h7v7h-7V123.5z M50.8,130.7h7v7h-7V130.7z M50.8,138h7v7h-7V138z M50.8,145.2h7v7h-7V145.2z M50.8,152.5h7v7h-7V152.5z
		 M50.8,159.7h7v7h-7V159.7z M50.8,167h7v7h-7V167z M50.8,174.3h7v7h-7V174.3z M50.8,181.5h7v7h-7V181.5z M50.8,188.8h7v7h-7V188.8z
		 M50.8,196.1h7v7h-7V196.1z M50.8,203.3h7v7h-7V203.3z M50.8,210.6h7v7h-7V210.6z M50.8,217.8h7v7h-7V217.8z M50.8,225.1h7v7h-7
		V225.1z M50.8,232.3h7v7h-7V232.3z M50.8,239.6h7v7h-7V239.6z M7.3,246.9h7v7h-7V246.9z M7.3,254.1h7v7h-7V254.1z M7.3,261.4h7v7
		h-7V261.4z M7.3,268.7h7v7h-7V268.7z M7.3,275.9h7v7h-7V275.9z M7.3,283.2h7v7h-7V283.2z M7.3,290.4h7v7h-7V290.4z M7.3,297.7h7v7
		h-7V297.7z M7.3,304.9h7v7h-7V304.9z M7.3,312.2h7v7h-7V312.2z M14.5,246.9h7v7h-7V246.9z M14.5,254.1h7v7h-7V254.1z M14.5,261.4h7
		v7h-7V261.4z M14.5,268.7h7v7h-7V268.7z M14.5,275.9h7v7h-7V275.9z M14.5,283.2h7v7h-7V283.2z M14.5,290.4h7v7h-7V290.4z
		 M14.5,297.7h7v7h-7V297.7z M14.5,304.9h7v7h-7V304.9z M14.5,312.2h7v7h-7V312.2z M21.8,246.9h7v7h-7V246.9z M21.8,254.1h7v7h-7
		V254.1z M21.8,261.4h7v7h-7V261.4z M21.8,268.7h7v7h-7V268.7z M21.8,275.9h7v7h-7V275.9z M21.8,283.2h7v7h-7V283.2z M21.8,290.4h7
		v7h-7V290.4z M21.8,297.7h7v7h-7V297.7z M21.8,304.9h7v7h-7V304.9z M21.8,312.2h7v7h-7V312.2z M29.1,246.9h7v7h-7V246.9z
		 M29.1,254.1h7v7h-7V254.1z M29.1,261.4h7v7h-7V261.4z M29.1,268.7h7v7h-7V268.7z M29.1,275.9h7v7h-7V275.9z M29.1,283.2h7v7h-7
		V283.2z M29.1,290.4h7v7h-7V290.4z M29.1,297.7h7v7h-7V297.7z M29.1,304.9h7v7h-7V304.9z M29.1,312.2h7v7h-7V312.2z M36.3,246.9h7
		v7h-7V246.9z M36.3,254.1h7v7h-7V254.1z M36.3,261.4h7v7h-7V261.4z M36.3,268.7h7v7h-7V268.7z M36.3,275.9h7v7h-7V275.9z
		 M36.3,283.2h7v7h-7V283.2z M36.3,290.4h7v7h-7V290.4z M36.3,297.7h7v7h-7V297.7z M36.3,304.9h7v7h-7V304.9z M36.3,312.2h7v7h-7
		V312.2z M43.6,246.9h7v7h-7V246.9z M43.6,254.1h7v7h-7V254.1z M43.6,261.4h7v7h-7V261.4z M43.6,268.7h7v7h-7V268.7z M43.6,275.9h7
		v7h-7V275.9z M43.6,283.2h7v7h-7V283.2z M43.6,290.4h7v7h-7V290.4z M43.6,297.7h7v7h-7V297.7z M43.6,304.9h7v7h-7V304.9z
		 M43.6,312.2h7v7h-7V312.2z M50.8,246.9h7v7h-7V246.9z M50.8,254.1h7v7h-7V254.1z M50.8,261.4h7v7h-7V261.4z M50.8,268.7h7v7h-7
		V268.7z M50.8,275.9h7v7h-7V275.9z M50.8,283.2h7v7h-7V283.2z M50.8,290.4h7v7h-7V290.4z M50.8,297.7h7v7h-7V297.7z M50.8,304.9h7
		v7h-7V304.9z M50.8,312.2h7v7h-7V312.2z M7.3,319.5h7v7h-7V319.5z M7.3,326.7h7v7h-7V326.7z M7.3,334h7v7h-7V334z M7.3,341.3h7v7
		h-7V341.3z M7.3,348.5h7v7h-7V348.5z M7.3,355.8h7v7h-7V355.8z M7.3,363h7v7h-7V363z M7.3,370.3h7v7h-7V370.3z M7.3,377.5h7v7h-7
		V377.5z M7.3,384.8h7v7h-7V384.8z M14.5,319.5h7v7h-7V319.5z M14.5,326.7h7v7h-7V326.7z M14.5,334h7v7h-7V334z M14.5,341.3h7v7h-7
		V341.3z M14.5,348.5h7v7h-7V348.5z M14.5,355.8h7v7h-7V355.8z M14.5,363h7v7h-7V363z M14.5,370.3h7v7h-7V370.3z M14.5,377.5h7v7h-7
		V377.5z M14.5,384.8h7v7h-7V384.8z M21.8,319.5h7v7h-7V319.5z M21.8,326.7h7v7h-7V326.7z M21.8,334h7v7h-7V334z M21.8,341.3h7v7h-7
		V341.3z M21.8,348.5h7v7h-7V348.5z M21.8,355.8h7v7h-7V355.8z M21.8,363h7v7h-7V363z M21.8,370.3h7v7h-7V370.3z M21.8,377.5h7v7h-7
		V377.5z M21.8,384.8h7v7h-7V384.8z M29.1,319.5h7v7h-7V319.5z M29.1,326.7h7v7h-7V326.7z M29.1,334h7v7h-7V334z M29.1,341.3h7v7h-7
		V341.3z M29.1,348.5h7v7h-7V348.5z M29.1,355.8h7v7h-7V355.8z M29.1,363h7v7h-7V363z M29.1,370.3h7v7h-7V370.3z M29.1,377.5h7v7h-7
		V377.5z M29.1,384.8h7v7h-7V384.8z M36.3,319.5h7v7h-7V319.5z M36.3,326.7h7v7h-7V326.7z M36.3,334h7v7h-7V334z M36.3,341.3h7v7h-7
		V341.3z M36.3,348.5h7v7h-7V348.5z M36.3,355.8h7v7h-7V355.8z M36.3,363h7v7h-7V363z M36.3,370.3h7v7h-7V370.3z M36.3,377.5h7v7h-7
		V377.5z M36.3,384.8h7v7h-7V384.8z M43.6,319.5h7v7h-7V319.5z M43.6,326.7h7v7h-7V326.7z M43.6,334h7v7h-7V334z M43.6,341.3h7v7h-7
		V341.3z M43.6,348.5h7v7h-7V348.5z M43.6,355.8h7v7h-7V355.8z M43.6,363h7v7h-7V363z M43.6,370.3h7v7h-7V370.3z M43.6,377.5h7v7h-7
		V377.5z M43.6,384.8h7v7h-7V384.8z M50.8,319.5h7v7h-7V319.5z M50.8,326.7h7v7h-7V326.7z M50.8,334h7v7h-7V334z M50.8,341.3h7v7h-7
		V341.3z M50.8,348.5h7v7h-7V348.5z M50.8,355.8h7v7h-7V355.8z M50.8,363h7v7h-7V363z M50.8,370.3h7v7h-7V370.3z M50.8,377.5h7v7h-7
		V377.5z M50.8,384.8h7v7h-7V384.8z M7.3,392.1h7v7h-7V392.1z M7.3,399.3h7v7h-7V399.3z M7.3,406.6h7v7h-7V406.6z M7.3,413.9h7v7h-7
		V413.9z M14.5,392.1h7v7h-7V392.1z M14.5,399.3h7v7h-7V399.3z M14.5,406.6h7v7h-7V406.6z M14.5,413.9h7v7h-7V413.9z M14.5,421.1h7
		v7h-7V421.1z M21.8,392.1h7v7h-7V392.1z M21.8,399.3h7v7h-7V399.3z M21.8,406.6h7v7h-7V406.6z M21.8,413.9h7v7h-7V413.9z
		 M21.8,421.1h7v7h-7V421.1z M29.1,392.1h7v7h-7V392.1z M29.1,399.3h7v7h-7V399.3z M29.1,406.6h7v7h-7V406.6z M29.1,413.9h7v7h-7
		V413.9z M29.1,421.1h7v7h-7V421.1z M36.3,392.1h7v7h-7V392.1z M36.3,399.3h7v7h-7V399.3z M36.3,406.6h7v7h-7V406.6z M36.3,413.9h7
		v7h-7V413.9z M36.3,421.1h7v7h-7V421.1z M43.6,392.1h7v7h-7V392.1z M43.6,399.3h7v7h-7V399.3z M43.6,406.6h7v7h-7V406.6z
		 M43.6,413.9h7v7h-7V413.9z M43.6,421.1h7v7h-7V421.1z M50.8,392.1h7v7h-7V392.1z M50.8,399.3h7v7h-7V399.3z M50.8,406.6h7v7h-7
		V406.6z M50.8,413.9h7v7h-7V413.9z M50.8,421.1h7v7h-7V421.1z M58.1,0h7v7h-7V0z M58.1,7.3h7v7h-7V7.3z M58.1,14.5h7v7h-7V14.5z
		 M58.1,21.8h7v7h-7V21.8z M58.1,29.1h7v7h-7V29.1z M58.1,36.3h7v7h-7V36.3z M58.1,65.4h7v7h-7V65.4z M58.1,72.6h7v7h-7V72.6z
		 M58.1,87.1h7v7h-7V87.1z M58.1,94.4h7v7h-7V94.4z M58.1,101.7h7v7h-7V101.7z M58.1,108.9h7v7h-7V108.9z M58.1,116.2h7v7h-7V116.2z
		 M58.1,123.5h7v7h-7V123.5z M58.1,130.7h7v7h-7V130.7z M58.1,138h7v7h-7V138z M58.1,145.2h7v7h-7V145.2z M58.1,159.7h7v7h-7V159.7z
		 M58.1,167h7v7h-7V167z M58.1,174.3h7v7h-7V174.3z M58.1,181.5h7v7h-7V181.5z M58.1,188.8h7v7h-7V188.8z M58.1,196.1h7v7h-7V196.1z
		 M58.1,203.3h7v7h-7V203.3z M58.1,210.6h7v7h-7V210.6z M58.1,217.8h7v7h-7V217.8z M58.1,225.1h7v7h-7V225.1z M58.1,232.3h7v7h-7
		V232.3z M58.1,239.6h7v7h-7V239.6z M65.4,0h7v7h-7V0z M65.4,7.3h7v7h-7V7.3z M65.4,14.5h7v7h-7V14.5z M65.4,43.6h7v7h-7V43.6z
		 M65.4,50.9h7v7h-7V50.9z M65.4,58.1h7v7h-7V58.1z M65.4,65.4h7v7h-7V65.4z M65.4,79.9h7v7h-7V79.9z M65.4,87.1h7v7h-7V87.1z
		 M65.4,94.4h7v7h-7V94.4z M65.4,101.7h7v7h-7V101.7z M65.4,108.9h7v7h-7V108.9z M65.4,116.2h7v7h-7V116.2z M65.4,123.5h7v7h-7
		V123.5z M65.4,130.7h7v7h-7V130.7z M65.4,138h7v7h-7V138z M65.4,145.2h7v7h-7V145.2z M65.4,152.5h7v7h-7V152.5z M65.4,159.7h7v7h-7
		V159.7z M65.4,167h7v7h-7V167z M65.4,174.3h7v7h-7V174.3z M65.4,181.5h7v7h-7V181.5z M65.4,188.8h7v7h-7V188.8z M65.4,196.1h7v7h-7
		V196.1z M65.4,203.3h7v7h-7V203.3z M65.4,210.6h7v7h-7V210.6z M65.4,217.8h7v7h-7V217.8z M65.4,225.1h7v7h-7V225.1z M65.4,232.3h7
		v7h-7V232.3z M65.4,239.6h7v7h-7V239.6z M72.6,0h7v7h-7V0z M72.6,7.3h7v7h-7V7.3z M72.6,21.8h7v7h-7V21.8z M72.6,29.1h7v7h-7V29.1z
		 M65.3,29.1h7v7h-7V29.1z M72.6,36.3h7v7h-7V36.3z M72.6,43.6h7v7h-7V43.6z M72.6,50.9h7v7h-7V50.9z M72.6,58.1h7v7h-7V58.1z
		 M72.6,65.4h7v7h-7V65.4z M72.6,72.6h7v7h-7V72.6z M72.6,87.1h7v7h-7V87.1z M72.6,94.4h7v7h-7V94.4z M72.6,101.7h7v7h-7V101.7z
		 M72.6,108.9h7v7h-7V108.9z M72.6,116.2h7v7h-7V116.2z M72.6,123.5h7v7h-7V123.5z M72.6,130.7h7v7h-7V130.7z M72.6,138h7v7h-7V138z
		 M72.6,145.2h7v7h-7V145.2z M72.6,152.5h7v7h-7V152.5z M72.6,159.7h7v7h-7V159.7z M72.6,167h7v7h-7V167z M72.6,174.3h7v7h-7V174.3z
		 M72.6,181.5h7v7h-7V181.5z M72.6,188.8h7v7h-7V188.8z M72.6,196.1h7v7h-7V196.1z M72.6,203.3h7v7h-7V203.3z M72.6,210.6h7v7h-7
		V210.6z M72.6,217.8h7v7h-7V217.8z M72.6,225.1h7v7h-7V225.1z M72.6,232.3h7v7h-7V232.3z M72.6,239.6h7v7h-7V239.6z M79.9,0h7v7h-7
		V0z M79.9,7.3h7v7h-7V7.3z M79.9,14.5h7v7h-7V14.5z M79.9,21.8h7v7h-7V21.8z M79.9,29.1h7v7h-7V29.1z M79.9,36.3h7v7h-7V36.3z
		 M79.9,43.6h7v7h-7V43.6z M79.9,50.9h7v7h-7V50.9z M79.9,58.1h7v7h-7V58.1z M79.9,65.4h7v7h-7V65.4z M79.9,79.9h7v7h-7V79.9z
		 M79.9,87.1h7v7h-7V87.1z M79.9,94.4h7v7h-7V94.4z M79.9,101.7h7v7h-7V101.7z M79.9,108.9h7v7h-7V108.9z M79.9,116.2h7v7h-7V116.2z
		 M79.9,123.5h7v7h-7V123.5z M79.9,130.7h7v7h-7V130.7z M79.9,138h7v7h-7V138z M79.9,145.2h7v7h-7V145.2z M79.9,159.7h7v7h-7V159.7z
		 M79.9,167h7v7h-7V167z M79.9,174.3h7v7h-7V174.3z M79.9,181.5h7v7h-7V181.5z M79.9,188.8h7v7h-7V188.8z M79.9,196.1h7v7h-7V196.1z
		 M79.9,203.3h7v7h-7V203.3z M79.9,210.6h7v7h-7V210.6z M79.9,217.8h7v7h-7V217.8z M79.9,225.1h7v7h-7V225.1z M79.9,232.3h7v7h-7
		V232.3z M79.9,239.6h7v7h-7V239.6z M87.1,0h7v7h-7V0z M87.1,7.3h7v7h-7V7.3z M87.1,43.6h7v7h-7V43.6z M87.1,50.9h7v7h-7V50.9z
		 M87.1,58.1h7v7h-7V58.1z M87.1,65.4h7v7h-7V65.4z M87.1,72.6h7v7h-7V72.6z M87.1,87.1h7v7h-7V87.1z M87.1,94.4h7v7h-7V94.4z
		 M87.1,101.7h7v7h-7V101.7z M87.1,108.9h7v7h-7V108.9z M87.1,116.2h7v7h-7V116.2z M87.1,123.5h7v7h-7V123.5z M87.1,130.7h7v7h-7
		V130.7z M87.1,138h7v7h-7V138z M87.1,145.2h7v7h-7V145.2z M87.1,152.5h7v7h-7V152.5z M87.1,159.7h7v7h-7V159.7z M87.1,167h7v7h-7
		V167z M87.1,174.3h7v7h-7V174.3z M87.1,181.5h7v7h-7V181.5z M87.1,188.8h7v7h-7V188.8z M87.1,196.1h7v7h-7V196.1z M87.1,203.3h7v7
		h-7V203.3z M87.1,210.6h7v7h-7V210.6z M87.1,217.8h7v7h-7V217.8z M87.1,225.1h7v7h-7V225.1z M87.1,232.3h7v7h-7V232.3z M87.1,239.6
		h7v7h-7V239.6z M94.4,0h7v7h-7V0z M94.4,7.3h7v7h-7V7.3z M94.4,14.5h7v7h-7V14.5z M87.2,21.8h7v7h-7V21.8z M87.2,29.1h7v7h-7V29.1z
		 M87.2,36.3h7v7h-7V36.3z M94.4,65.4h7v7h-7V65.4z M94.4,79.9h7v7h-7V79.9z M94.4,87.1h7v7h-7V87.1z M94.4,94.4h7v7h-7V94.4z
		 M94.4,101.7h7v7h-7V101.7z M94.4,108.9h7v7h-7V108.9z M94.4,116.2h7v7h-7V116.2z M94.4,123.5h7v7h-7V123.5z M94.4,130.7h7v7h-7
		V130.7z M94.4,138h7v7h-7V138z M94.4,145.2h7v7h-7V145.2z M94.4,152.5h7v7h-7V152.5z M94.4,159.7h7v7h-7V159.7z M94.4,167h7v7h-7
		V167z M94.4,174.3h7v7h-7V174.3z M94.4,181.5h7v7h-7V181.5z M94.4,188.8h7v7h-7V188.8z M94.4,196.1h7v7h-7V196.1z M94.4,203.3h7v7
		h-7V203.3z M94.4,210.6h7v7h-7V210.6z M94.4,217.8h7v7h-7V217.8z M94.4,225.1h7v7h-7V225.1z M94.4,232.3h7v7h-7V232.3z M94.4,239.6
		h7v7h-7V239.6z M101.7,0h7v7h-7V0z M101.7,7.3h7v7h-7V7.3z M101.7,14.5h7v7h-7V14.5z M101.7,21.8h7v7h-7V21.8z M101.7,29.1h7v7h-7
		V29.1z M94.4,29.1h7v7h-7V29.1z M101.7,36.3h7v7h-7V36.3z M94.4,43.6h7v7h-7V43.6z M94.4,50.9h7v7h-7V50.9z M94.4,58.1h7v7h-7V58.1
		z M101.7,65.4h7v7h-7V65.4z M101.7,72.6h7v7h-7V72.6z M101.7,87.1h7v7h-7V87.1z M101.7,94.4h7v7h-7V94.4z M101.7,101.7h7v7h-7
		V101.7z M101.7,108.9h7v7h-7V108.9z M101.7,116.2h7v7h-7V116.2z M101.7,123.5h7v7h-7V123.5z M101.7,130.7h7v7h-7V130.7z M101.7,138
		h7v7h-7V138z M101.7,145.2h7v7h-7V145.2z M101.7,159.7h7v7h-7V159.7z M101.7,167h7v7h-7V167z M101.7,174.3h7v7h-7V174.3z
		 M101.7,181.5h7v7h-7V181.5z M101.7,188.8h7v7h-7V188.8z M101.7,196.1h7v7h-7V196.1z M101.7,203.3h7v7h-7V203.3z M101.7,210.6h7v7
		h-7V210.6z M101.7,217.8h7v7h-7V217.8z M101.7,225.1h7v7h-7V225.1z M101.7,232.3h7v7h-7V232.3z M101.7,239.6h7v7h-7V239.6z
		 M108.9,0h7v7h-7V0z M108.9,7.3h7v7h-7V7.3z M108.9,14.5h7v7h-7V14.5z M116.2,14.5h7v7h-7V14.5z M108.9,21.8h7v7h-7V21.8z
		 M108.9,29.1h7v7h-7V29.1z M108.9,36.3h7v7h-7V36.3z M108.9,43.6h7v7h-7V43.6z M108.9,50.9h7v7h-7V50.9z M101.7,50.9h7v7h-7V50.9z
		 M108.9,58.1h7v7h-7V58.1z M108.9,65.4h7v7h-7V65.4z M108.9,79.9h7v7h-7V79.9z M108.9,94.4h7v7h-7V94.4z M108.9,101.7h7v7h-7V101.7
		z M108.9,108.9h7v7h-7V108.9z M108.9,116.2h7v7h-7V116.2z M108.9,123.5h7v7h-7V123.5z M108.9,130.7h7v7h-7V130.7z M108.9,138h7v7
		h-7V138z M108.9,145.2h7v7h-7V145.2z M108.9,152.5h7v7h-7V152.5z M108.9,159.7h7v7h-7V159.7z M108.9,167h7v7h-7V167z M108.9,174.3
		h7v7h-7V174.3z M108.9,181.5h7v7h-7V181.5z M108.9,188.8h7v7h-7V188.8z M108.9,196.1h7v7h-7V196.1z M108.9,203.3h7v7h-7V203.3z
		 M108.9,210.6h7v7h-7V210.6z M108.9,217.8h7v7h-7V217.8z M108.9,225.1h7v7h-7V225.1z M108.9,232.3h7v7h-7V232.3z M108.9,239.6h7v7
		h-7V239.6z M116.2,0h7v7h-7V0z M116.2,21.8h7v7h-7V21.8z M116.2,29.1h7v7h-7V29.1z M116.2,36.3h7v7h-7V36.3z M116.2,43.6h7v7h-7
		V43.6z M116.2,50.9h7v7h-7V50.9z M116.2,58.1h7v7h-7V58.1z M116.2,65.4h7v7h-7V65.4z M116.2,72.6h7v7h-7V72.6z M116.2,87.1h7v7h-7
		V87.1z M116.2,94.4h7v7h-7V94.4z M116.2,101.7h7v7h-7V101.7z M116.2,108.9h7v7h-7V108.9z M116.2,116.2h7v7h-7V116.2z M116.2,123.5
		h7v7h-7V123.5z M116.2,130.7h7v7h-7V130.7z M116.2,138h7v7h-7V138z M116.2,145.2h7v7h-7V145.2z M116.2,152.5h7v7h-7V152.5z
		 M116.2,159.7h7v7h-7V159.7z M116.2,167h7v7h-7V167z M116.2,174.3h7v7h-7V174.3z M116.2,181.5h7v7h-7V181.5z M116.2,188.8h7v7h-7
		V188.8z M116.2,196.1h7v7h-7V196.1z M116.2,203.3h7v7h-7V203.3z M116.2,210.6h7v7h-7V210.6z M116.2,217.8h7v7h-7V217.8z
		 M116.2,225.1h7v7h-7V225.1z M116.2,232.3h7v7h-7V232.3z M116.2,239.6h7v7h-7V239.6z M123.4,0h7v7h-7V0z M123.4,21.8h7v7h-7V21.8z
		 M123.4,36.3h7v7h-7V36.3z M123.4,43.6h7v7h-7V43.6z M123.4,50.9h7v7h-7V50.9z M123.4,58.1h7v7h-7V58.1z M123.4,65.4h7v7h-7V65.4z
		 M123.4,79.9h7v7h-7V79.9z M123.4,94.4h7v7h-7V94.4z M123.4,101.7h7v7h-7V101.7z M123.4,108.9h7v7h-7V108.9z M123.4,116.2h7v7h-7
		V116.2z M123.4,123.5h7v7h-7V123.5z M123.4,130.7h7v7h-7V130.7z M123.4,138h7v7h-7V138z M123.4,145.2h7v7h-7V145.2z M123.4,152.5h7
		v7h-7V152.5z M123.4,159.7h7v7h-7V159.7z M123.4,167h7v7h-7V167z M123.4,174.3h7v7h-7V174.3z M123.4,181.5h7v7h-7V181.5z
		 M123.4,188.8h7v7h-7V188.8z M123.4,196.1h7v7h-7V196.1z M123.4,203.3h7v7h-7V203.3z M123.4,210.6h7v7h-7V210.6z M123.4,217.8h7v7
		h-7V217.8z M123.4,225.1h7v7h-7V225.1z M123.4,232.3h7v7h-7V232.3z M123.4,239.6h7v7h-7V239.6z M58.1,246.9h7v7h-7V246.9z
		 M58.1,254.1h7v7h-7V254.1z M58.1,261.4h7v7h-7V261.4z M58.1,268.7h7v7h-7V268.7z M58.1,275.9h7v7h-7V275.9z M58.1,283.2h7v7h-7
		V283.2z M58.1,290.4h7v7h-7V290.4z M58.1,297.7h7v7h-7V297.7z M58.1,304.9h7v7h-7V304.9z M58.1,312.2h7v7h-7V312.2z M65.4,246.9h7
		v7h-7V246.9z M65.4,254.1h7v7h-7V254.1z M65.4,261.4h7v7h-7V261.4z M65.4,268.7h7v7h-7V268.7z M65.4,275.9h7v7h-7V275.9z
		 M65.4,283.2h7v7h-7V283.2z M65.4,290.4h7v7h-7V290.4z M65.4,297.7h7v7h-7V297.7z M65.4,304.9h7v7h-7V304.9z M65.4,312.2h7v7h-7
		V312.2z M72.6,246.9h7v7h-7V246.9z M72.6,254.1h7v7h-7V254.1z M72.6,261.4h7v7h-7V261.4z M72.6,268.7h7v7h-7V268.7z M72.6,275.9h7
		v7h-7V275.9z M72.6,283.2h7v7h-7V283.2z M72.6,290.4h7v7h-7V290.4z M72.6,297.7h7v7h-7V297.7z M72.6,304.9h7v7h-7V304.9z
		 M72.6,312.2h7v7h-7V312.2z M79.9,246.9h7v7h-7V246.9z M79.9,254.1h7v7h-7V254.1z M79.9,261.4h7v7h-7V261.4z M79.9,268.7h7v7h-7
		V268.7z M79.9,275.9h7v7h-7V275.9z M79.9,283.2h7v7h-7V283.2z M79.9,290.4h7v7h-7V290.4z M79.9,297.7h7v7h-7V297.7z M79.9,304.9h7
		v7h-7V304.9z M79.9,312.2h7v7h-7V312.2z M87.1,246.9h7v7h-7V246.9z M87.1,254.1h7v7h-7V254.1z M87.1,261.4h7v7h-7V261.4z
		 M87.1,268.7h7v7h-7V268.7z M87.1,275.9h7v7h-7V275.9z M87.1,283.2h7v7h-7V283.2z M87.1,290.4h7v7h-7V290.4z M87.1,297.7h7v7h-7
		V297.7z M87.1,304.9h7v7h-7V304.9z M87.1,312.2h7v7h-7V312.2z M94.4,246.9h7v7h-7V246.9z M94.4,254.1h7v7h-7V254.1z M94.4,261.4h7
		v7h-7V261.4z M94.4,268.7h7v7h-7V268.7z M94.4,275.9h7v7h-7V275.9z M94.4,283.2h7v7h-7V283.2z M94.4,290.4h7v7h-7V290.4z
		 M94.4,297.7h7v7h-7V297.7z M94.4,304.9h7v7h-7V304.9z M94.4,312.2h7v7h-7V312.2z M101.7,246.9h7v7h-7V246.9z M101.7,254.1h7v7h-7
		V254.1z M101.7,261.4h7v7h-7V261.4z M101.7,268.7h7v7h-7V268.7z M101.7,275.9h7v7h-7V275.9z M101.7,283.2h7v7h-7V283.2z
		 M101.7,290.4h7v7h-7V290.4z M101.7,297.7h7v7h-7V297.7z M101.7,304.9h7v7h-7V304.9z M101.7,312.2h7v7h-7V312.2z M108.9,246.9h7v7
		h-7V246.9z M108.9,254.1h7v7h-7V254.1z M108.9,261.4h7v7h-7V261.4z M108.9,268.7h7v7h-7V268.7z M108.9,275.9h7v7h-7V275.9z
		 M108.9,283.2h7v7h-7V283.2z M108.9,290.4h7v7h-7V290.4z M108.9,297.7h7v7h-7V297.7z M108.9,304.9h7v7h-7V304.9z M108.9,312.2h7v7
		h-7V312.2z M116.2,246.9h7v7h-7V246.9z M116.2,254.1h7v7h-7V254.1z M116.2,261.4h7v7h-7V261.4z M116.2,268.7h7v7h-7V268.7z
		 M116.2,275.9h7v7h-7V275.9z M116.2,283.2h7v7h-7V283.2z M116.2,290.4h7v7h-7V290.4z M116.2,297.7h7v7h-7V297.7z M116.2,304.9h7v7
		h-7V304.9z M116.2,312.2h7v7h-7V312.2z M123.4,246.9h7v7h-7V246.9z M123.4,254.1h7v7h-7V254.1z M123.4,261.4h7v7h-7V261.4z
		 M123.4,268.7h7v7h-7V268.7z M123.4,275.9h7v7h-7V275.9z M123.4,283.2h7v7h-7V283.2z M123.4,290.4h7v7h-7V290.4z M123.4,297.7h7v7
		h-7V297.7z M123.4,304.9h7v7h-7V304.9z M123.4,312.2h7v7h-7V312.2z M58.1,319.5h7v7h-7V319.5z M58.1,326.7h7v7h-7V326.7z M58.1,334
		h7v7h-7V334z M58.1,341.3h7v7h-7V341.3z M58.1,348.5h7v7h-7V348.5z M58.1,355.8h7v7h-7V355.8z M58.1,363h7v7h-7V363z M58.1,370.3h7
		v7h-7V370.3z M58.1,377.5h7v7h-7V377.5z M58.1,384.8h7v7h-7V384.8z M65.4,319.5h7v7h-7V319.5z M65.4,326.7h7v7h-7V326.7z M65.4,334
		h7v7h-7V334z M65.4,341.3h7v7h-7V341.3z M65.4,348.5h7v7h-7V348.5z M65.4,355.8h7v7h-7V355.8z M65.4,363h7v7h-7V363z M65.4,370.3h7
		v7h-7V370.3z M65.4,377.5h7v7h-7V377.5z M65.4,384.8h7v7h-7V384.8z M72.6,319.5h7v7h-7V319.5z M72.6,326.7h7v7h-7V326.7z M72.6,334
		h7v7h-7V334z M72.6,341.3h7v7h-7V341.3z M72.6,348.5h7v7h-7V348.5z M72.6,355.8h7v7h-7V355.8z M72.6,363h7v7h-7V363z M72.6,370.3h7
		v7h-7V370.3z M72.6,377.5h7v7h-7V377.5z M72.6,384.8h7v7h-7V384.8z M79.9,319.5h7v7h-7V319.5z M79.9,326.7h7v7h-7V326.7z M79.9,334
		h7v7h-7V334z M79.9,341.3h7v7h-7V341.3z M79.9,348.5h7v7h-7V348.5z M79.9,355.8h7v7h-7V355.8z M79.9,363h7v7h-7V363z M79.9,370.3h7
		v7h-7V370.3z M79.9,377.5h7v7h-7V377.5z M79.9,384.8h7v7h-7V384.8z M87.1,319.5h7v7h-7V319.5z M87.1,326.7h7v7h-7V326.7z M87.1,334
		h7v7h-7V334z M87.1,341.3h7v7h-7V341.3z M87.1,348.5h7v7h-7V348.5z M87.1,355.8h7v7h-7V355.8z M87.1,363h7v7h-7V363z M87.1,370.3h7
		v7h-7V370.3z M87.1,377.5h7v7h-7V377.5z M87.1,384.8h7v7h-7V384.8z M94.4,319.5h7v7h-7V319.5z M94.4,326.7h7v7h-7V326.7z M94.4,334
		h7v7h-7V334z M94.4,341.3h7v7h-7V341.3z M94.4,348.5h7v7h-7V348.5z M94.4,355.8h7v7h-7V355.8z M94.4,363h7v7h-7V363z M94.4,370.3h7
		v7h-7V370.3z M94.4,377.5h7v7h-7V377.5z M94.4,384.8h7v7h-7V384.8z M101.7,319.5h7v7h-7V319.5z M101.7,326.7h7v7h-7V326.7z
		 M101.7,334h7v7h-7V334z M101.7,341.3h7v7h-7V341.3z M101.7,348.5h7v7h-7V348.5z M101.7,355.8h7v7h-7V355.8z M101.7,363h7v7h-7V363
		z M101.7,370.3h7v7h-7V370.3z M101.7,377.5h7v7h-7V377.5z M101.7,384.8h7v7h-7V384.8z M108.9,319.5h7v7h-7V319.5z M108.9,326.7h7v7
		h-7V326.7z M108.9,334h7v7h-7V334z M108.9,341.3h7v7h-7V341.3z M108.9,348.5h7v7h-7V348.5z M108.9,355.8h7v7h-7V355.8z M108.9,363
		h7v7h-7V363z M108.9,370.3h7v7h-7V370.3z M108.9,377.5h7v7h-7V377.5z M108.9,384.8h7v7h-7V384.8z M116.2,319.5h7v7h-7V319.5z
		 M116.2,326.7h7v7h-7V326.7z M116.2,334h7v7h-7V334z M116.2,341.3h7v7h-7V341.3z M116.2,348.5h7v7h-7V348.5z M116.2,355.8h7v7h-7
		V355.8z M116.2,363h7v7h-7V363z M116.2,370.3h7v7h-7V370.3z M116.2,377.5h7v7h-7V377.5z M116.2,384.8h7v7h-7V384.8z M123.4,319.5h7
		v7h-7V319.5z M123.4,326.7h7v7h-7V326.7z M123.4,334h7v7h-7V334z M123.4,341.3h7v7h-7V341.3z M123.4,348.5h7v7h-7V348.5z
		 M123.4,355.8h7v7h-7V355.8z M123.4,363h7v7h-7V363z M123.4,370.3h7v7h-7V370.3z M123.4,377.5h7v7h-7V377.5z M123.4,384.8h7v7h-7
		V384.8z M58.1,392.1h7v7h-7V392.1z M58.1,399.3h7v7h-7V399.3z M58.1,406.6h7v7h-7V406.6z M58.1,413.9h7v7h-7V413.9z M58.1,421.1h7
		v7h-7V421.1z M65.4,392.1h7v7h-7V392.1z M65.4,399.3h7v7h-7V399.3z M65.4,406.6h7v7h-7V406.6z M65.4,413.9h7v7h-7V413.9z
		 M65.4,421.1h7v7h-7V421.1z M72.6,392.1h7v7h-7V392.1z M72.6,399.3h7v7h-7V399.3z M72.6,406.6h7v7h-7V406.6z M72.6,413.9h7v7h-7
		V413.9z M72.6,421.1h7v7h-7V421.1z M79.9,392.1h7v7h-7V392.1z M79.9,399.3h7v7h-7V399.3z M79.9,406.6h7v7h-7V406.6z M79.9,421.1h7
		v7h-7V421.1z M87.1,392.1h7v7h-7V392.1z M87.1,399.3h7v7h-7V399.3z M87.1,406.6h7v7h-7V406.6z M87.1,413.9h7v7h-7V413.9z
		 M87.1,421.1h7v7h-7V421.1z M94.4,392.1h7v7h-7V392.1z M94.4,399.3h7v7h-7V399.3z M94.4,406.6h7v7h-7V406.6z M94.4,421.1h7v7h-7
		V421.1z M101.7,392.1h7v7h-7V392.1z M101.7,399.3h7v7h-7V399.3z M101.7,413.9h7v7h-7V413.9z M101.7,421.1h7v7h-7V421.1z
		 M108.9,392.1h7v7h-7V392.1z M108.9,399.3h7v7h-7V399.3z M108.9,406.6h7v7h-7V406.6z M108.9,421.1h7v7h-7V421.1z M116.2,392.1h7v7
		h-7V392.1z M116.2,399.3h7v7h-7V399.3z M116.2,413.9h7v7h-7V413.9z M116.2,421.1h7v7h-7V421.1z M123.4,392.1h7v7h-7V392.1z
		 M123.4,406.6h7v7h-7V406.6z M123.4,421.1h7v7h-7V421.1z M130.7,7.3h7v7h-7V7.3z M130.7,21.8h7v7h-7V21.8z M130.7,29.1h7v7h-7V29.1
		z M130.7,50.9h7v7h-7V50.9z M130.7,58.1h7v7h-7V58.1z M130.7,65.4h7v7h-7V65.4z M130.7,72.6h7v7h-7V72.6z M130.7,87.1h7v7h-7V87.1z
		 M130.7,94.4h7v7h-7V94.4z M130.7,101.7h7v7h-7V101.7z M130.7,108.9h7v7h-7V108.9z M130.7,116.2h7v7h-7V116.2z M130.7,123.5h7v7h-7
		V123.5z M130.7,130.7h7v7h-7V130.7z M130.7,138h7v7h-7V138z M130.7,145.2h7v7h-7V145.2z M130.7,152.5h7v7h-7V152.5z M130.7,159.7h7
		v7h-7V159.7z M130.7,167h7v7h-7V167z M130.7,174.3h7v7h-7V174.3z M130.7,181.5h7v7h-7V181.5z M130.7,188.8h7v7h-7V188.8z
		 M130.7,196.1h7v7h-7V196.1z M130.7,203.3h7v7h-7V203.3z M130.7,210.6h7v7h-7V210.6z M130.7,217.8h7v7h-7V217.8z M130.7,225.1h7v7
		h-7V225.1z M130.7,232.3h7v7h-7V232.3z M130.7,239.6h7v7h-7V239.6z M138,14.5h7v7h-7V14.5z M138,21.8h7v7h-7V21.8z M138,29.1h7v7
		h-7V29.1z M138,36.3h7v7h-7V36.3z M138,43.6h7v7h-7V43.6z M138,65.4h7v7h-7V65.4z M138,72.6h7v7h-7V72.6z M138,79.9h7v7h-7V79.9z
		 M138,87.1h7v7h-7V87.1z M138,94.4h7v7h-7V94.4z M138,101.7h7v7h-7V101.7z M138,108.9h7v7h-7V108.9z M138,116.2h7v7h-7V116.2z
		 M138,123.5h7v7h-7V123.5z M138,130.7h7v7h-7V130.7z M138,138h7v7h-7V138z M138,152.5h7v7h-7V152.5z M138,159.7h7v7h-7V159.7z
		 M138,167h7v7h-7V167z M138,174.3h7v7h-7V174.3z M138,181.5h7v7h-7V181.5z M138,188.8h7v7h-7V188.8z M138,196.1h7v7h-7V196.1z
		 M138,203.3h7v7h-7V203.3z M138,210.6h7v7h-7V210.6z M138,217.8h7v7h-7V217.8z M138,225.1h7v7h-7V225.1z M138,232.3h7v7h-7V232.3z
		 M138,239.6h7v7h-7V239.6z M145.2,21.8h7v7h-7V21.8z M145.2,29.1h7v7h-7V29.1z M145.2,36.3h7v7h-7V36.3z M145.2,43.6h7v7h-7V43.6z
		 M145.2,50.9h7v7h-7V50.9z M145.2,58.1h7v7h-7V58.1z M152.5,43.6h7v7h-7V43.6z M152.5,50.9h7v7h-7V50.9z M152.5,58.1h7v7h-7V58.1z
		 M145.2,65.4h7v7h-7V65.4z M145.2,72.6h7v7h-7V72.6z M145.2,79.9h7v7h-7V79.9z M145.2,94.4h7v7h-7V94.4z M145.2,108.9h7v7h-7V108.9
		z M145.2,152.5h7v7h-7V152.5z M145.2,159.7h7v7h-7V159.7z M145.2,167h7v7h-7V167z M145.2,174.3h7v7h-7V174.3z M145.2,181.5h7v7h-7
		V181.5z M145.2,188.8h7v7h-7V188.8z M145.2,196.1h7v7h-7V196.1z M145.2,203.3h7v7h-7V203.3z M145.2,210.6h7v7h-7V210.6z
		 M145.2,217.8h7v7h-7V217.8z M145.2,225.1h7v7h-7V225.1z M145.2,232.3h7v7h-7V232.3z M145.2,239.6h7v7h-7V239.6z M152.5,101.7h7v7
		h-7V101.7z M152.5,159.7h7v7h-7V159.7z M152.5,167h7v7h-7V167z M152.5,174.3h7v7h-7V174.3z M152.5,181.5h7v7h-7V181.5z
		 M152.5,188.8h7v7h-7V188.8z M152.5,196.1h7v7h-7V196.1z M152.5,203.3h7v7h-7V203.3z M152.5,210.6h7v7h-7V210.6z M152.5,217.8h7v7
		h-7V217.8z M152.5,225.1h7v7h-7V225.1z M152.5,232.3h7v7h-7V232.3z M152.5,239.6h7v7h-7V239.6z M159.7,101.7h7v7h-7V101.7z
		 M130.7,246.9h7v7h-7V246.9z M130.7,254.1h7v7h-7V254.1z M130.7,261.4h7v7h-7V261.4z M130.7,268.7h7v7h-7V268.7z M130.7,275.9h7v7
		h-7V275.9z M130.7,283.2h7v7h-7V283.2z M130.7,290.4h7v7h-7V290.4z M130.7,297.7h7v7h-7V297.7z M130.7,304.9h7v7h-7V304.9z
		 M130.7,312.2h7v7h-7V312.2z M138,246.9h7v7h-7V246.9z M138,254.1h7v7h-7V254.1z M138,261.4h7v7h-7V261.4z M138,268.7h7v7h-7V268.7
		z M138,275.9h7v7h-7V275.9z M138,283.2h7v7h-7V283.2z M138,290.4h7v7h-7V290.4z M138,297.7h7v7h-7V297.7z M138,304.9h7v7h-7V304.9z
		 M138,312.2h7v7h-7V312.2z M145.2,246.9h7v7h-7V246.9z M145.2,254.1h7v7h-7V254.1z M145.2,261.4h7v7h-7V261.4z M145.2,268.7h7v7h-7
		V268.7z M145.2,275.9h7v7h-7V275.9z M145.2,283.2h7v7h-7V283.2z M145.2,290.4h7v7h-7V290.4z M145.2,297.7h7v7h-7V297.7z
		 M145.2,304.9h7v7h-7V304.9z M145.2,312.2h7v7h-7V312.2z M152.5,246.9h7v7h-7V246.9z M152.5,254.1h7v7h-7V254.1z M152.5,261.4h7v7
		h-7V261.4z M152.5,268.7h7v7h-7V268.7z M152.5,275.9h7v7h-7V275.9z M152.5,283.2h7v7h-7V283.2z M152.5,290.4h7v7h-7V290.4z
		 M152.5,297.7h7v7h-7V297.7z M152.5,304.9h7v7h-7V304.9z M152.5,312.2h7v7h-7V312.2z M130.7,319.5h7v7h-7V319.5z M130.7,326.7h7v7
		h-7V326.7z M130.7,334h7v7h-7V334z M130.7,341.3h7v7h-7V341.3z M130.7,348.5h7v7h-7V348.5z M130.7,355.8h7v7h-7V355.8z M130.7,363
		h7v7h-7V363z M130.7,370.3h7v7h-7V370.3z M130.7,377.5h7v7h-7V377.5z M130.7,384.8h7v7h-7V384.8z M138,319.5h7v7h-7V319.5z
		 M138,326.7h7v7h-7V326.7z M138,334h7v7h-7V334z M138,341.3h7v7h-7V341.3z M138,348.5h7v7h-7V348.5z M138,355.8h7v7h-7V355.8z
		 M138,363h7v7h-7V363z M138,377.5h7v7h-7V377.5z M145.2,319.5h7v7h-7V319.5z M145.2,326.7h7v7h-7V326.7z M145.2,334h7v7h-7V334z
		 M145.2,341.3h7v7h-7V341.3z M145.2,355.8h7v7h-7V355.8z M145.2,370.3h7v7h-7V370.3z M145.2,384.8h7v7h-7V384.8z M152.5,319.5h7v7
		h-7V319.5z M152.5,326.7h7v7h-7V326.7z M152.5,334h7v7h-7V334z M152.5,341.3h7v7h-7V341.3z M152.5,348.5h7v7h-7V348.5z
		 M152.5,355.8h7v7h-7V355.8z M152.5,363h7v7h-7V363z M152.5,370.3h7v7h-7V370.3z M152.5,377.5h7v7h-7V377.5z M152.5,384.8h7v7h-7
		V384.8z M130.7,399.3h7v7h-7V399.3z M130.7,413.9h7v7h-7V413.9z M130.7,421.1h7v7h-7V421.1z M138,392.1h7v7h-7V392.1z M138,406.6h7
		v7h-7V406.6z M138,421.1h7v7h-7V421.1z M145.2,399.3h7v7h-7V399.3z M145.2,413.9h7v7h-7V413.9z M145.2,421.1h7v7h-7V421.1z
		 M152.5,392.1h7v7h-7V392.1z M152.5,399.3h7v7h-7V399.3z M152.5,406.6h7v7h-7V406.6z M152.5,413.9h7v7h-7V413.9z"/>
</g>
</svg>
