<?xml version="1.0" encoding="utf-8"?>
<!-- Generator: Adobe Illustrator 27.3.1, SVG Export Plug-In . SVG Version: 6.00 Build 0)  -->
<svg version="1.1" xmlns="http://www.w3.org/2000/svg" xmlns:xlink="http://www.w3.org/1999/xlink" x="0px" y="0px"
	 viewBox="0 0 1000 900" style="enable-background:new 0 0 1000 900;" xml:space="preserve">
<style type="text/css">
	.st0{fill:#1E0E01;}
</style>
<g id="Слой_2">
</g>
<g id="Слой_1">
	<path class="st0" d="M56.9,7.3h7v7h-7V7.3z M56.9,14.5h7v7h-7V14.5z M56.9,21.8h7v7h-7V21.8z M56.9,29.1h7v7h-7V29.1z M56.9,36.3h7
		v7h-7V36.3z M56.9,43.6h7v7h-7V43.6z M56.9,50.9h7v7h-7V50.9z M56.9,58.1h7v7h-7V58.1z M56.9,65.4h7v7h-7V65.4z M56.9,72.6h7v7h-7
		V72.6z M56.9,79.9h7v7h-7V79.9z M56.9,87.2h7v7h-7V87.2z M56.9,94.4h7v7h-7V94.4z M56.9,101.7h7v7h-7V101.7z M56.9,108.9h7v7h-7
		V108.9z M56.9,116.2h7v7h-7V116.2z M56.9,123.4h7v7h-7V123.4z M56.9,130.7h7v7h-7V130.7z M56.9,138h7v7h-7V138z M56.9,145.2h7v7h-7
		V145.2z M56.9,152.5h7v7h-7V152.5z M56.9,159.7h7v7h-7V159.7z M56.9,167h7v7h-7V167z M56.9,174.3h7v7h-7V174.3z M56.9,181.5h7v7h-7
		V181.5z M56.9,188.8h7v7h-7V188.8z M56.9,196.1h7v7h-7V196.1z M56.9,203.3h7v7h-7V203.3z M56.9,210.6h7v7h-7V210.6z M56.9,217.8h7
		v7h-7V217.8z M56.9,225.1h7v7h-7V225.1z M56.9,232.3h7v7h-7V232.3z M56.9,239.6h7v7h-7V239.6z M56.9,246.9h7v7h-7V246.9z
		 M56.9,254.1h7v7h-7V254.1z M56.9,261.4h7v7h-7V261.4z M56.9,268.7h7v7h-7V268.7z M56.9,275.9h7v7h-7V275.9z M56.9,283.2h7v7h-7
		V283.2z M56.9,290.4h7v7h-7V290.4z M56.9,297.7h7v7h-7V297.7z M56.9,304.9h7v7h-7V304.9z M56.9,312.2h7v7h-7V312.2z M56.9,319.5h7
		v7h-7V319.5z M56.9,326.7h7v7h-7V326.7z M56.9,334h7v7h-7V334z M56.9,341.3h7v7h-7V341.3z M56.9,348.5h7v7h-7V348.5z M56.9,355.8h7
		v7h-7V355.8z M56.9,363h7v7h-7V363z M56.9,370.3h7v7h-7V370.3z M56.9,377.5h7v7h-7V377.5z M56.9,384.8h7v7h-7V384.8z M64.1,21.8h7
		v7h-7V21.8z M64.1,36.3h7v7h-7V36.3z M56.9,392.1h7v7h-7V392.1z M56.9,399.3h7v7h-7V399.3z M56.9,406.6h7v7h-7V406.6z M56.9,413.9
		h7v7h-7V413.9z M56.9,421.1h7v7h-7V421.1z M56.9,428.4h7v7h-7V428.4z M56.9,435.6h7v7h-7V435.6z M56.9,442.9h7v7h-7V442.9z
		 M56.9,450.1h7v7h-7V450.1z M56.9,457.4h7v7h-7V457.4z M56.9,464.7h7v7h-7V464.7z M56.9,471.9h7v7h-7V471.9z M56.9,479.2h7v7h-7
		V479.2z M56.9,486.5h7v7h-7V486.5z M56.9,493.7h7v7h-7V493.7z M56.9,501h7v7h-7V501z M56.9,508.2h7v7h-7V508.2z M56.9,515.5h7v7h-7
		V515.5z M56.9,522.7h7v7h-7V522.7z M56.9,530h7v7h-7V530z M56.9,537.3h7v7h-7V537.3z M56.9,544.5h7v7h-7V544.5z M56.9,551.8h7v7h-7
		V551.8z M56.9,559.1h7v7h-7V559.1z M56.9,566.3h7v7h-7V566.3z M56.9,573.6h7v7h-7V573.6z M56.9,580.8h7v7h-7V580.8z M56.9,588.1h7
		v7h-7V588.1z M71.4,21.8h7v7h-7V21.8z M71.4,36.3h7v7h-7V36.3z M78.7,21.8h7v7h-7V21.8z M78.7,36.3h7v7h-7V36.3z M85.9,21.8h7v7h-7
		V21.8z M85.9,36.3h7v7h-7V36.3z M93.2,21.8h7v7h-7V21.8z M93.2,36.3h7v7h-7V36.3z M100.4,21.8h7v7h-7V21.8z M100.4,36.3h7v7h-7
		V36.3z M107.7,21.8h7v7h-7V21.8z M107.7,36.3h7v7h-7V36.3z M115,21.8h7v7h-7V21.8z M115,36.3h7v7h-7V36.3z M122.2,21.8h7v7h-7V21.8
		z M122.2,36.3h7v7h-7V36.3z M129.5,21.8h7v7h-7V21.8z M129.5,36.3h7v7h-7V36.3z M136.7,21.8h7v7h-7V21.8z M136.7,36.3h7v7h-7V36.3z
		 M144,21.8h7v7h-7V21.8z M144,36.3h7v7h-7V36.3z M151.3,21.8h7v7h-7V21.8z M151.3,36.3h7v7h-7V36.3z M158.5,21.8h7v7h-7V21.8z
		 M158.5,36.3h7v7h-7V36.3z M165.8,21.8h7v7h-7V21.8z M165.8,36.3h7v7h-7V36.3z M173,21.8h7v7h-7V21.8z M173,36.3h7v7h-7V36.3z
		 M180.3,21.8h7v7h-7V21.8z M180.3,36.3h7v7h-7V36.3z M187.6,21.8h7v7h-7V21.8z M187.6,36.3h7v7h-7V36.3z M194.8,21.8h7v7h-7V21.8z
		 M194.8,36.3h7v7h-7V36.3z M202.1,21.8h7v7h-7V21.8z M202.1,36.3h7v7h-7V36.3z M209.3,21.8h7v7h-7V21.8z M209.3,36.3h7v7h-7V36.3z
		 M216.6,21.8h7v7h-7V21.8z M216.6,36.3h7v7h-7V36.3z M223.9,21.8h7v7h-7V21.8z M223.9,36.3h7v7h-7V36.3z M231.1,21.8h7v7h-7V21.8z
		 M231.1,36.3h7v7h-7V36.3z M238.4,21.8h7v7h-7V21.8z M238.4,36.3h7v7h-7V36.3z M245.6,21.8h7v7h-7V21.8z M245.6,36.3h7v7h-7V36.3z
		 M252.9,21.8h7v7h-7V21.8z M252.9,36.3h7v7h-7V36.3z M260.2,21.8h7v7h-7V21.8z M260.2,36.3h7v7h-7V36.3z M267.4,21.8h7v7h-7V21.8z
		 M267.4,36.3h7v7h-7V36.3z M274.7,21.8h7v7h-7V21.8z M274.7,36.3h7v7h-7V36.3z M281.9,21.8h7v7h-7V21.8z M281.9,36.3h7v7h-7V36.3z
		 M289.2,21.8h7v7h-7V21.8z M289.2,36.3h7v7h-7V36.3z M296.5,21.8h7v7h-7V21.8z M296.5,36.3h7v7h-7V36.3z M303.7,21.8h7v7h-7V21.8z
		 M303.7,36.3h7v7h-7V36.3z M311,21.8h7v7h-7V21.8z M311,36.3h7v7h-7V36.3z M318.2,21.8h7v7h-7V21.8z M318.2,36.3h7v7h-7V36.3z
		 M325.5,21.8h7v7h-7V21.8z M325.5,36.3h7v7h-7V36.3z M332.8,21.8h7v7h-7V21.8z M332.8,36.3h7v7h-7V36.3z M340,21.8h7v7h-7V21.8z
		 M340,36.3h7v7h-7V36.3z M347.3,21.8h7v7h-7V21.8z M347.3,36.3h7v7h-7V36.3z M354.5,21.8h7v7h-7V21.8z M354.5,36.3h7v7h-7V36.3z
		 M361.8,21.8h7v7h-7V21.8z M361.8,36.3h7v7h-7V36.3z M369.1,21.8h7v7h-7V21.8z M369.1,36.3h7v7h-7V36.3z M376.3,21.8h7v7h-7V21.8z
		 M376.3,36.3h7v7h-7V36.3z M383.6,21.8h7v7h-7V21.8z M383.6,36.3h7v7h-7V36.3z M390.8,21.8h7v7h-7V21.8z M390.8,36.3h7v7h-7V36.3z
		 M398.1,21.8h7v7h-7V21.8z M398.1,36.3h7v7h-7V36.3z M405.4,21.8h7v7h-7V21.8z M405.4,36.3h7v7h-7V36.3z M412.6,21.8h7v7h-7V21.8z
		 M412.6,36.3h7v7h-7V36.3z M419.9,21.8h7v7h-7V21.8z M419.9,36.3h7v7h-7V36.3z M427.1,21.8h7v7h-7V21.8z M427.1,36.3h7v7h-7V36.3z
		 M434.4,21.8h7v7h-7V21.8z M434.4,36.3h7v7h-7V36.3z M441.7,21.8h7v7h-7V21.8z M441.7,36.3h7v7h-7V36.3z M448.9,21.8h7v7h-7V21.8z
		 M448.9,36.3h7v7h-7V36.3z M456.2,21.8h7v7h-7V21.8z M456.2,36.3h7v7h-7V36.3z M463.4,21.8h7v7h-7V21.8z M463.4,36.3h7v7h-7V36.3z
		 M470.7,21.8h7v7h-7V21.8z M470.7,36.3h7v7h-7V36.3z M478,21.8h7v7h-7V21.8z M478,36.3h7v7h-7V36.3z M485.2,21.8h7v7h-7V21.8z
		 M485.2,36.3h7v7h-7V36.3z M492.5,21.8h7v7h-7V21.8z M492.5,36.3h7v7h-7V36.3z M499.7,21.8h7v7h-7V21.8z M499.7,36.3h7v7h-7V36.3z
		 M507,21.8h7v7h-7V21.8z M507,36.3h7v7h-7V36.3z M514.3,21.8h7v7h-7V21.8z M514.3,36.3h7v7h-7V36.3z M521.5,21.8h7v7h-7V21.8z
		 M521.5,36.3h7v7h-7V36.3z M528.8,21.8h7v7h-7V21.8z M528.8,36.3h7v7h-7V36.3z M536,21.8h7v7h-7V21.8z M536,36.3h7v7h-7V36.3z
		 M543.3,21.8h7v7h-7V21.8z M543.3,36.3h7v7h-7V36.3z M550.6,21.8h7v7h-7V21.8z M550.6,36.3h7v7h-7V36.3z M557.8,21.8h7v7h-7V21.8z
		 M557.8,36.3h7v7h-7V36.3z M565.1,21.8h7v7h-7V21.8z M565.1,36.3h7v7h-7V36.3z M572.3,21.8h7v7h-7V21.8z M572.3,36.3h7v7h-7V36.3z
		 M579.6,21.8h7v7h-7V21.8z M579.6,36.3h7v7h-7V36.3z M586.9,21.8h7v7h-7V21.8z M586.9,36.3h7v7h-7V36.3z M594.1,21.8h7v7h-7V21.8z
		 M594.1,36.3h7v7h-7V36.3z M601.4,21.8h7v7h-7V21.8z M601.4,36.3h7v7h-7V36.3z M608.6,21.8h7v7h-7V21.8z M608.6,36.3h7v7h-7V36.3z
		 M615.9,21.8h7v7h-7V21.8z M615.9,36.3h7v7h-7V36.3z M623.2,21.8h7v7h-7V21.8z M623.2,36.3h7v7h-7V36.3z M630.4,21.8h7v7h-7V21.8z
		 M630.4,36.3h7v7h-7V36.3z M637.7,21.8h7v7h-7V21.8z M637.7,36.3h7v7h-7V36.3z M644.9,21.8h7v7h-7V21.8z M644.9,36.3h7v7h-7V36.3z
		 M652.2,21.8h7v7h-7V21.8z M652.2,36.3h7v7h-7V36.3z M659.5,21.8h7v7h-7V21.8z M659.5,36.3h7v7h-7V36.3z M666.7,21.8h7v7h-7V21.8z
		 M666.7,36.3h7v7h-7V36.3z M674,21.8h7v7h-7V21.8z M674,36.3h7v7h-7V36.3z M681.2,21.8h7v7h-7V21.8z M681.2,36.3h7v7h-7V36.3z
		 M688.5,21.8h7v7h-7V21.8z M688.5,36.3h7v7h-7V36.3z M695.8,21.8h7v7h-7V21.8z M695.8,36.3h7v7h-7V36.3z M703,21.8h7v7h-7V21.8z
		 M703,36.3h7v7h-7V36.3z M710.3,21.8h7v7h-7V21.8z M710.3,36.3h7v7h-7V36.3z M717.5,21.8h7v7h-7V21.8z M717.5,36.3h7v7h-7V36.3z
		 M724.8,21.8h7v7h-7V21.8z M724.8,36.3h7v7h-7V36.3z M724.8,50.9h7v7h-7V50.9z M724.8,65.4h7v7h-7V65.4z M724.8,79.9h7v7h-7V79.9z
		 M724.8,94.4h7v7h-7V94.4z M724.8,108.9h7v7h-7V108.9z M732.2,181.5h7v7h-7V181.5z M724.8,196.1h7v7h-7V196.1z M724.8,217.8h7v7h-7
		V217.8z M724.8,239.6h7v7h-7V239.6z M724.8,275.9h7v7h-7V275.9z M724.8,290.4h7v7h-7V290.4z M732.1,21.8h7v7h-7V21.8z M732.1,36.3
		h7v7h-7V36.3z M732.1,43.6h7v7h-7V43.6z M732.1,50.9h7v7h-7V50.9z M732.1,58.1h7v7h-7V58.1z M732.1,72.6h7v7h-7V72.6z M732.1,101.7
		h7v7h-7V101.7z M739.3,21.8h7v7h-7V21.8z M739.3,36.3h7v7h-7V36.3z M739.3,50.9h7v7h-7V50.9z M739.3,65.4h7v7h-7V65.4z M739.3,72.6
		h7v7h-7V72.6z M739.3,79.9h7v7h-7V79.9z M739.3,123.4h7v7h-7V123.4z M739.3,138h7v7h-7V138z M739.3,152.5h7v7h-7V152.5z M739.3,167
		h7v7h-7V167z M746.7,181.5h7v7h-7V181.5z M739.3,196.1h7v7h-7V196.1z M739.3,232.3h7v7h-7V232.3z M739.3,268.7h7v7h-7V268.7z
		 M739.3,290.4h7v7h-7V290.4z M746.6,21.8h7v7h-7V21.8z M746.6,36.3h7v7h-7V36.3z M746.6,43.6h7v7h-7V43.6z M746.6,72.6h7v7h-7V72.6
		z M746.6,101.7h7v7h-7V101.7z M753.8,21.8h7v7h-7V21.8z M753.8,36.3h7v7h-7V36.3z M753.8,50.9h7v7h-7V50.9z M753.8,65.4h7v7h-7
		V65.4z M753.8,79.9h7v7h-7V79.9z M753.8,94.4h7v7h-7V94.4z M753.8,138h7v7h-7V138z M753.8,152.5h7v7h-7V152.5z M753.8,167h7v7h-7
		V167z M761.2,181.5h7v7h-7V181.5z M753.8,196.1h7v7h-7V196.1z M753.8,225.1h7v7h-7V225.1z M753.8,254.1h7v7h-7V254.1z M753.8,275.9
		h7v7h-7V275.9z M753.8,290.4h7v7h-7V290.4z M761.1,21.8h7v7h-7V21.8z M761.1,36.3h7v7h-7V36.3z M761.1,43.6h7v7h-7V43.6z
		 M761.1,50.9h7v7h-7V50.9z M761.1,58.1h7v7h-7V58.1z M761.1,72.6h7v7h-7V72.6z M761.1,87.2h7v7h-7V87.2z M761.1,101.7h7v7h-7V101.7
		z M768.4,21.8h7v7h-7V21.8z M768.4,36.3h7v7h-7V36.3z M768.4,50.9h7v7h-7V50.9z M768.4,65.4h7v7h-7V65.4z M768.4,79.9h7v7h-7V79.9z
		 M768.4,94.4h7v7h-7V94.4z M768.4,123.4h7v7h-7V123.4z M768.4,138h7v7h-7V138z M768.4,152.5h7v7h-7V152.5z M768.4,167h7v7h-7V167z
		 M768.4,203.3h7v7h-7V203.3z M768.4,232.3h7v7h-7V232.3z M768.4,268.7h7v7h-7V268.7z M768.4,290.4h7v7h-7V290.4z M775.6,21.8h7v7
		h-7V21.8z M775.6,36.3h7v7h-7V36.3z M775.6,43.6h7v7h-7V43.6z M775.6,87.2h7v7h-7V87.2z M782.9,21.8h7v7h-7V21.8z M782.9,36.3h7v7
		h-7V36.3z M782.9,50.9h7v7h-7V50.9z M782.9,65.4h7v7h-7V65.4z M782.9,79.9h7v7h-7V79.9z M782.9,94.4h7v7h-7V94.4z M782.9,108.9h7v7
		h-7V108.9z M782.9,123.4h7v7h-7V123.4z M782.9,138h7v7h-7V138z M782.9,152.5h7v7h-7V152.5z M790.3,181.5h7v7h-7V181.5z
		 M782.9,196.1h7v7h-7V196.1z M782.9,232.3h7v7h-7V232.3z M782.9,283.2h7v7h-7V283.2z M790.1,21.8h7v7h-7V21.8z M790.1,36.3h7v7h-7
		V36.3z M790.1,43.6h7v7h-7V43.6z M790.1,50.9h7v7h-7V50.9z M790.1,58.1h7v7h-7V58.1z M790.1,72.6h7v7h-7V72.6z M790.1,101.7h7v7h-7
		V101.7z M790.1,145.2h7v7h-7V145.2z M797.4,21.8h7v7h-7V21.8z M797.4,36.3h7v7h-7V36.3z M797.4,50.9h7v7h-7V50.9z M797.4,65.4h7v7
		h-7V65.4z M797.4,79.9h7v7h-7V79.9z M797.4,94.4h7v7h-7V94.4z M797.4,108.9h7v7h-7V108.9z M797.4,123.4h7v7h-7V123.4z M797.4,138h7
		v7h-7V138z M797.4,152.5h7v7h-7V152.5z M797.4,167h7v7h-7V167z M797.4,196.1h7v7h-7V196.1z M797.4,225.1h7v7h-7V225.1z
		 M797.4,254.1h7v7h-7V254.1z M797.4,290.4h7v7h-7V290.4z M804.7,21.8h7v7h-7V21.8z M804.7,36.3h7v7h-7V36.3z M804.7,43.6h7v7h-7
		V43.6z M804.7,72.6h7v7h-7V72.6z M804.7,101.7h7v7h-7V101.7z M812.1,181.5h7v7h-7V181.5z M811.9,21.8h7v7h-7V21.8z M811.9,36.3h7v7
		h-7V36.3z M811.9,50.9h7v7h-7V50.9z M811.9,65.4h7v7h-7V65.4z M811.9,79.9h7v7h-7V79.9z M811.9,94.4h7v7h-7V94.4z M811.9,108.9h7v7
		h-7V108.9z M811.9,123.4h7v7h-7V123.4z M811.9,138h7v7h-7V138z M811.9,152.5h7v7h-7V152.5z M811.9,167h7v7h-7V167z M811.9,196.1h7
		v7h-7V196.1z M811.9,225.1h7v7h-7V225.1z M811.9,254.1h7v7h-7V254.1z M811.9,283.2h7v7h-7V283.2z M819.2,21.8h7v7h-7V21.8z
		 M819.2,36.3h7v7h-7V36.3z M819.2,43.6h7v7h-7V43.6z M819.2,50.9h7v7h-7V50.9z M819.2,58.1h7v7h-7V58.1z M819.2,72.6h7v7h-7V72.6z
		 M819.2,87.2h7v7h-7V87.2z M819.2,101.7h7v7h-7V101.7z M826.4,21.8h7v7h-7V21.8z M826.4,36.3h7v7h-7V36.3z M826.4,50.9h7v7h-7V50.9
		z M826.4,65.4h7v7h-7V65.4z M826.4,79.9h7v7h-7V79.9z M826.4,94.4h7v7h-7V94.4z M826.4,108.9h7v7h-7V108.9z M826.4,123.4h7v7h-7
		V123.4z M826.4,138h7v7h-7V138z M826.4,152.5h7v7h-7V152.5z M826.4,167h7v7h-7V167z M833.8,181.5h7v7h-7V181.5z M826.4,196.1h7v7
		h-7V196.1z M826.4,232.3h7v7h-7V232.3z M826.4,268.7h7v7h-7V268.7z M826.4,290.4h7v7h-7V290.4z M833.7,21.8h7v7h-7V21.8z
		 M833.7,36.3h7v7h-7V36.3z M833.7,43.6h7v7h-7V43.6z M833.7,101.7h7v7h-7V101.7z M841,21.8h7v7h-7V21.8z M841,36.3h7v7h-7V36.3z
		 M841,50.9h7v7h-7V50.9z M841,65.4h7v7h-7V65.4z M841,79.9h7v7h-7V79.9z M841,94.4h7v7h-7V94.4z M841,108.9h7v7h-7V108.9z
		 M841,123.4h7v7h-7V123.4z M841,138h7v7h-7V138z M841,152.5h7v7h-7V152.5z M841,167h7v7h-7V167z M848.4,181.5h7v7h-7V181.5z
		 M841,196.1h7v7h-7V196.1z M841,225.1h7v7h-7V225.1z M841,254.1h7v7h-7V254.1z M841,283.2h7v7h-7V283.2z M848.2,21.8h7v7h-7V21.8z
		 M848.2,36.3h7v7h-7V36.3z M848.2,58.1h7v7h-7V58.1z M848.2,72.6h7v7h-7V72.6z M855.6,181.5h7v7h-7V181.5z M855.5,21.8h7v7h-7V21.8
		z M855.5,36.3h7v7h-7V36.3z M855.5,50.9h7v7h-7V50.9z M855.5,65.4h7v7h-7V65.4z M855.5,79.9h7v7h-7V79.9z M855.5,94.4h7v7h-7V94.4z
		 M855.5,108.9h7v7h-7V108.9z M855.5,123.4h7v7h-7V123.4z M855.5,138h7v7h-7V138z M855.5,152.5h7v7h-7V152.5z M855.5,167h7v7h-7V167
		z M855.5,196.1h7v7h-7V196.1z M855.5,239.6h7v7h-7V239.6z M855.5,275.9h7v7h-7V275.9z M862.7,21.8h7v7h-7V21.8z M862.7,36.3h7v7h-7
		V36.3z M862.7,43.6h7v7h-7V43.6z M862.7,101.7h7v7h-7V101.7z M56.9,595.3h7v7h-7V595.3z M56.9,602.6h7v7h-7V602.6z M56.9,609.8h7v7
		h-7V609.8z M56.9,617.1h7v7h-7V617.1z M56.9,624.4h7v7h-7V624.4z M56.9,631.6h7v7h-7V631.6z M56.9,638.9h7v7h-7V638.9z M56.9,646.1
		h7v7h-7V646.1z M56.9,653.4h7v7h-7V653.4z M56.9,660.7h7v7h-7V660.7z M56.9,668h7v7h-7V668z M56.9,675.2h7v7h-7V675.2z M56.9,682.5
		h7v7h-7V682.5z M56.9,689.8h7v7h-7V689.8z M56.9,697h7v7h-7V697z M56.9,704.3h7v7h-7V704.3z M56.9,711.5h7v7h-7V711.5z M56.9,718.8
		h7v7h-7V718.8z M56.9,726h7v7h-7V726z M56.9,740.5h7v7h-7V740.5z M56.9,747.8h7v7h-7V747.8z M56.9,755.1h7v7h-7V755.1z M56.9,762.3
		h7v7h-7V762.3z M56.9,769.6h7v7h-7V769.6z M56.9,776.8h7v7h-7V776.8z M56.9,784.1h7v7h-7V784.1z M56.9,733.3h7v7h-7V733.3z
		 M870,21.8h7v7h-7V21.8z M870,36.3h7v7h-7V36.3z M870,50.9h7v7h-7V50.9z M870,65.4h7v7h-7V65.4z M870,79.9h7v7h-7V79.9z M870,94.4
		h7v7h-7V94.4z M870,108.9h7v7h-7V108.9z M870,123.4h7v7h-7V123.4z M870,138h7v7h-7V138z M870,152.5h7v7h-7V152.5z M870,167h7v7h-7
		V167z M870,203.3h7v7h-7V203.3z M870,232.3h7v7h-7V232.3z M870,261.4h7v7h-7V261.4z M870,290.4h7v7h-7V290.4z M877.3,21.8h7v7h-7
		V21.8z M877.3,7.3h7v7h-7V7.3z M877.3,36.3h7v7h-7V36.3z M877.3,43.6h7v7h-7V43.6z M877.3,58.1h7v7h-7V58.1z M877.3,65.4h7v7h-7
		V65.4z M877.3,72.6h7v7h-7V72.6z M877.3,87.2h7v7h-7V87.2z M877.3,181.5h7v7h-7V181.5z M884.5,14.5h7v7h-7V14.5z M884.5,21.8h7v7
		h-7V21.8z M884.5,36.3h7v7h-7V36.3z M884.5,50.9h7v7h-7V50.9z M884.5,65.4h7v7h-7V65.4z M884.5,79.9h7v7h-7V79.9z M884.5,94.4h7v7
		h-7V94.4z M884.5,108.9h7v7h-7V108.9z M884.5,123.4h7v7h-7V123.4z M884.5,196.1h7v7h-7V196.1z M884.5,225.1h7v7h-7V225.1z
		 M884.5,275.9h7v7h-7V275.9z M891.8,7.3h7v7h-7V7.3z M891.8,21.8h7v7h-7V21.8z M891.8,36.3h7v7h-7V36.3z M891.8,43.6h7v7h-7V43.6z
		 M891.8,72.6h7v7h-7V72.6z M891.8,101.7h7v7h-7V101.7z M891.8,152.5h7v7h-7V152.5z M891.8,167h7v7h-7V167z M891.8,181.5h7v7h-7
		V181.5z M899,14.5h7v7h-7V14.5z M899,21.8h7v7h-7V21.8z M899,36.3h7v7h-7V36.3z M899,50.9h7v7h-7V50.9z M899,65.4h7v7h-7V65.4z
		 M899,79.9h7v7h-7V79.9z M899,94.4h7v7h-7V94.4z M899,108.9h7v7h-7V108.9z M899,123.4h7v7h-7V123.4z M899,138h7v7h-7V138z
		 M899,159.7h7v7h-7V159.7z M899,210.6h7v7h-7V210.6z M899,246.9h7v7h-7V246.9z M899,261.4h7v7h-7V261.4z M899,283.2h7v7h-7V283.2z
		 M906.3,7.3h7v7h-7V7.3z M906.3,21.8h7v7h-7V21.8z M906.3,36.3h7v7h-7V36.3z M906.3,58.1h7v7h-7V58.1z M906.3,72.6h7v7h-7V72.6z
		 M906.3,181.5h7v7h-7V181.5z M913.6,14.5h7v7h-7V14.5z M913.6,21.8h7v7h-7V21.8z M913.6,36.3h7v7h-7V36.3z M913.6,50.9h7v7h-7V50.9
		z M913.6,65.4h7v7h-7V65.4z M913.6,79.9h7v7h-7V79.9z M913.6,94.4h7v7h-7V94.4z M913.6,108.9h7v7h-7V108.9z M913.6,123.4h7v7h-7
		V123.4z M913.6,138h7v7h-7V138z M913.6,152.5h7v7h-7V152.5z M913.6,167h7v7h-7V167z M913.6,196.1h7v7h-7V196.1z M913.6,225.1h7v7
		h-7V225.1z M913.6,254.1h7v7h-7V254.1z M913.6,283.2h7v7h-7V283.2z M920.8,7.3h7v7h-7V7.3z M920.8,21.8h7v7h-7V21.8z M920.8,36.3h7
		v7h-7V36.3z M920.8,43.6h7v7h-7V43.6z M920.8,101.7h7v7h-7V101.7z M928.1,14.5h7v7h-7V14.5z M819.2,7.3h7v7h-7V7.3z M826.4,14.5h7
		v7h-7V14.5z M833.7,7.3h7v7h-7V7.3z M840.9,14.5h7v7h-7V14.5z M848.2,7.3h7v7h-7V7.3z M855.5,14.5h7v7h-7V14.5z M862.7,7.3h7v7h-7
		V7.3z M870,14.5h7v7h-7V14.5z M761.2,7.3h7v7h-7V7.3z M768.4,14.5h7v7h-7V14.5z M775.7,7.3h7v7h-7V7.3z M782.9,14.5h7v7h-7V14.5z
		 M790.2,7.3h7v7h-7V7.3z M797.5,14.5h7v7h-7V14.5z M804.7,7.3h7v7h-7V7.3z M812,14.5h7v7h-7V14.5z M703.1,7.3h7v7h-7V7.3z
		 M710.3,14.5h7v7h-7V14.5z M717.6,7.3h7v7h-7V7.3z M724.8,14.5h7v7h-7V14.5z M732.1,7.3h7v7h-7V7.3z M739.4,14.5h7v7h-7V14.5z
		 M746.6,7.3h7v7h-7V7.3z M753.9,14.5h7v7h-7V14.5z M645,7.3h7v7h-7V7.3z M652.2,14.5h7v7h-7V14.5z M659.5,7.3h7v7h-7V7.3z
		 M666.7,14.5h7v7h-7V14.5z M674,7.3h7v7h-7V7.3z M681.3,14.5h7v7h-7V14.5z M688.5,7.3h7v7h-7V7.3z M695.8,14.5h7v7h-7V14.5z
		 M586.9,7.3h7v7h-7V7.3z M594.1,14.5h7v7h-7V14.5z M601.4,7.3h7v7h-7V7.3z M608.6,14.5h7v7h-7V14.5z M615.9,7.3h7v7h-7V7.3z
		 M623.2,14.5h7v7h-7V14.5z M630.4,7.3h7v7h-7V7.3z M637.7,14.5h7v7h-7V14.5z M528.8,7.3h7v7h-7V7.3z M536,14.5h7v7h-7V14.5z
		 M543.3,7.3h7v7h-7V7.3z M550.5,14.5h7v7h-7V14.5z M557.8,7.3h7v7h-7V7.3z M565.1,14.5h7v7h-7V14.5z M572.3,7.3h7v7h-7V7.3z
		 M579.6,14.5h7v7h-7V14.5z M470.8,7.3h7v7h-7V7.3z M478,14.5h7v7h-7V14.5z M485.3,7.3h7v7h-7V7.3z M492.5,14.5h7v7h-7V14.5z
		 M499.8,7.3h7v7h-7V7.3z M507.1,14.5h7v7h-7V14.5z M514.3,7.3h7v7h-7V7.3z M521.6,14.5h7v7h-7V14.5z M412.7,7.3h7v7h-7V7.3z
		 M419.9,14.5h7v7h-7V14.5z M427.2,7.3h7v7h-7V7.3z M434.4,14.5h7v7h-7V14.5z M441.7,7.3h7v7h-7V7.3z M449,14.5h7v7h-7V14.5z
		 M456.2,7.3h7v7h-7V7.3z M463.5,14.5h7v7h-7V14.5z M354.6,7.3h7v7h-7V7.3z M361.8,14.5h7v7h-7V14.5z M369.1,7.3h7v7h-7V7.3z
		 M376.3,14.5h7v7h-7V14.5z M383.6,7.3h7v7h-7V7.3z M390.9,14.5h7v7h-7V14.5z M398.1,7.3h7v7h-7V7.3z M405.4,14.5h7v7h-7V14.5z
		 M296.5,7.3h7v7h-7V7.3z M303.7,14.5h7v7h-7V14.5z M311,7.3h7v7h-7V7.3z M318.2,14.5h7v7h-7V14.5z M325.5,7.3h7v7h-7V7.3z
		 M332.8,14.5h7v7h-7V14.5z M340,7.3h7v7h-7V7.3z M347.3,14.5h7v7h-7V14.5z M238.4,7.3h7v7h-7V7.3z M245.6,14.5h7v7h-7V14.5z
		 M252.9,7.3h7v7h-7V7.3z M260.1,14.5h7v7h-7V14.5z M267.4,7.3h7v7h-7V7.3z M274.7,14.5h7v7h-7V14.5z M281.9,7.3h7v7h-7V7.3z
		 M289.2,14.5h7v7h-7V14.5z M180.4,7.3h7v7h-7V7.3z M187.6,14.5h7v7h-7V14.5z M194.9,7.3h7v7h-7V7.3z M202.1,14.5h7v7h-7V14.5z
		 M209.4,7.3h7v7h-7V7.3z M216.7,14.5h7v7h-7V14.5z M223.9,7.3h7v7h-7V7.3z M231.2,14.5h7v7h-7V14.5z M122.3,7.3h7v7h-7V7.3z
		 M129.5,14.5h7v7h-7V14.5z M136.8,7.3h7v7h-7V7.3z M144,14.5h7v7h-7V14.5z M151.3,7.3h7v7h-7V7.3z M158.6,14.5h7v7h-7V14.5z
		 M165.8,7.3h7v7h-7V7.3z M173.1,14.5h7v7h-7V14.5z M64.2,7.3h7v7h-7V7.3z M71.4,14.5h7v7h-7V14.5z M78.7,7.3h7v7h-7V7.3z
		 M85.9,14.5h7v7h-7V14.5z M93.2,7.3h7v7h-7V7.3z M100.5,14.5h7v7h-7V14.5z M107.7,7.3h7v7h-7V7.3z M115,14.5h7v7h-7V14.5z
		 M928.1,21.8h7v7h-7V21.8z M935.3,14.5h7v7h-7V14.5z M928.1,36.3h7v7h-7V36.3z M928.1,50.9h7v7h-7V50.9z M928.1,65.4h7v7h-7V65.4z
		 M928.1,79.9h7v7h-7V79.9z M928.1,94.4h7v7h-7V94.4z M928.1,108.9h7v7h-7V108.9z M928.1,123.4h7v7h-7V123.4z M928.1,138h7v7h-7V138
		z M928.1,152.5h7v7h-7V152.5z M928.1,167h7v7h-7V167z M928.1,210.6h7v7h-7V210.6z M928.1,239.6h7v7h-7V239.6z M928.1,268.7h7v7h-7
		V268.7z M514.3,50.9h7v7h-7V50.9z M514.3,65.4h7v7h-7V65.4z M514.3,79.9h7v7h-7V79.9z M514.3,94.4h7v7h-7V94.4z M514.3,108.9h7v7
		h-7V108.9z M521.7,181.5h7v7h-7V181.5z M514.3,196.1h7v7h-7V196.1z M514.3,217.8h7v7h-7V217.8z M514.3,239.6h7v7h-7V239.6z
		 M514.3,275.9h7v7h-7V275.9z M514.3,290.4h7v7h-7V290.4z M521.6,43.6h7v7h-7V43.6z M521.6,50.9h7v7h-7V50.9z M521.6,58.1h7v7h-7
		V58.1z M521.6,72.6h7v7h-7V72.6z M521.6,101.7h7v7h-7V101.7z M528.8,50.9h7v7h-7V50.9z M528.8,65.4h7v7h-7V65.4z M528.8,72.6h7v7
		h-7V72.6z M528.8,79.9h7v7h-7V79.9z M528.8,123.4h7v7h-7V123.4z M528.8,138h7v7h-7V138z M528.8,152.5h7v7h-7V152.5z M528.8,167h7v7
		h-7V167z M536.2,181.5h7v7h-7V181.5z M528.8,196.1h7v7h-7V196.1z M528.8,232.3h7v7h-7V232.3z M528.8,268.7h7v7h-7V268.7z
		 M528.8,290.4h7v7h-7V290.4z M536.1,43.6h7v7h-7V43.6z M536.1,72.6h7v7h-7V72.6z M536.1,101.7h7v7h-7V101.7z M543.3,50.9h7v7h-7
		V50.9z M543.3,65.4h7v7h-7V65.4z M543.3,79.9h7v7h-7V79.9z M543.3,94.4h7v7h-7V94.4z M543.3,138h7v7h-7V138z M543.3,152.5h7v7h-7
		V152.5z M543.3,167h7v7h-7V167z M550.7,181.5h7v7h-7V181.5z M543.3,196.1h7v7h-7V196.1z M543.3,225.1h7v7h-7V225.1z M543.3,254.1h7
		v7h-7V254.1z M543.3,275.9h7v7h-7V275.9z M543.3,290.4h7v7h-7V290.4z M550.6,43.6h7v7h-7V43.6z M550.6,50.9h7v7h-7V50.9z
		 M550.6,58.1h7v7h-7V58.1z M550.6,72.6h7v7h-7V72.6z M550.6,87.2h7v7h-7V87.2z M550.6,101.7h7v7h-7V101.7z M557.9,50.9h7v7h-7V50.9
		z M557.9,65.4h7v7h-7V65.4z M557.9,79.9h7v7h-7V79.9z M557.9,94.4h7v7h-7V94.4z M557.9,123.4h7v7h-7V123.4z M557.9,138h7v7h-7V138z
		 M557.9,152.5h7v7h-7V152.5z M557.9,167h7v7h-7V167z M557.9,203.3h7v7h-7V203.3z M557.9,232.3h7v7h-7V232.3z M557.9,268.7h7v7h-7
		V268.7z M557.9,290.4h7v7h-7V290.4z M565.1,43.6h7v7h-7V43.6z M565.1,87.2h7v7h-7V87.2z M572.4,50.9h7v7h-7V50.9z M572.4,65.4h7v7
		h-7V65.4z M572.4,79.9h7v7h-7V79.9z M572.4,94.4h7v7h-7V94.4z M572.4,108.9h7v7h-7V108.9z M572.4,123.4h7v7h-7V123.4z M572.4,138h7
		v7h-7V138z M572.4,152.5h7v7h-7V152.5z M579.8,181.5h7v7h-7V181.5z M572.4,196.1h7v7h-7V196.1z M572.4,232.3h7v7h-7V232.3z
		 M572.4,283.2h7v7h-7V283.2z M579.6,43.6h7v7h-7V43.6z M579.6,50.9h7v7h-7V50.9z M579.6,58.1h7v7h-7V58.1z M579.6,72.6h7v7h-7V72.6
		z M579.6,101.7h7v7h-7V101.7z M579.6,145.2h7v7h-7V145.2z M586.9,50.9h7v7h-7V50.9z M586.9,65.4h7v7h-7V65.4z M586.9,79.9h7v7h-7
		V79.9z M586.9,94.4h7v7h-7V94.4z M586.9,108.9h7v7h-7V108.9z M586.9,123.4h7v7h-7V123.4z M586.9,138h7v7h-7V138z M586.9,152.5h7v7
		h-7V152.5z M586.9,167h7v7h-7V167z M586.9,196.1h7v7h-7V196.1z M586.9,225.1h7v7h-7V225.1z M586.9,254.1h7v7h-7V254.1z
		 M586.9,290.4h7v7h-7V290.4z M594.2,43.6h7v7h-7V43.6z M594.2,72.6h7v7h-7V72.6z M594.2,101.7h7v7h-7V101.7z M601.6,181.5h7v7h-7
		V181.5z M601.4,50.9h7v7h-7V50.9z M601.4,65.4h7v7h-7V65.4z M601.4,79.9h7v7h-7V79.9z M601.4,94.4h7v7h-7V94.4z M601.4,108.9h7v7
		h-7V108.9z M601.4,123.4h7v7h-7V123.4z M601.4,138h7v7h-7V138z M601.4,152.5h7v7h-7V152.5z M601.4,167h7v7h-7V167z M601.4,196.1h7
		v7h-7V196.1z M601.4,225.1h7v7h-7V225.1z M601.4,254.1h7v7h-7V254.1z M601.4,283.2h7v7h-7V283.2z M608.7,43.6h7v7h-7V43.6z
		 M608.7,50.9h7v7h-7V50.9z M608.7,58.1h7v7h-7V58.1z M608.7,72.6h7v7h-7V72.6z M608.7,87.2h7v7h-7V87.2z M608.7,101.7h7v7h-7V101.7
		z M615.9,50.9h7v7h-7V50.9z M615.9,65.4h7v7h-7V65.4z M615.9,79.9h7v7h-7V79.9z M615.9,94.4h7v7h-7V94.4z M615.9,108.9h7v7h-7
		V108.9z M615.9,123.4h7v7h-7V123.4z M615.9,138h7v7h-7V138z M615.9,152.5h7v7h-7V152.5z M615.9,167h7v7h-7V167z M623.3,181.5h7v7
		h-7V181.5z M615.9,196.1h7v7h-7V196.1z M615.9,232.3h7v7h-7V232.3z M615.9,268.7h7v7h-7V268.7z M615.9,290.4h7v7h-7V290.4z
		 M623.2,43.6h7v7h-7V43.6z M623.2,101.7h7v7h-7V101.7z M630.5,50.9h7v7h-7V50.9z M630.5,65.4h7v7h-7V65.4z M630.5,79.9h7v7h-7V79.9
		z M630.5,94.4h7v7h-7V94.4z M630.5,108.9h7v7h-7V108.9z M630.5,123.4h7v7h-7V123.4z M630.5,138h7v7h-7V138z M630.5,152.5h7v7h-7
		V152.5z M630.5,167h7v7h-7V167z M637.9,181.5h7v7h-7V181.5z M630.5,196.1h7v7h-7V196.1z M630.5,225.1h7v7h-7V225.1z M630.5,254.1h7
		v7h-7V254.1z M630.5,283.2h7v7h-7V283.2z M637.7,58.1h7v7h-7V58.1z M637.7,72.6h7v7h-7V72.6z M645.1,181.5h7v7h-7V181.5z M645,50.9
		h7v7h-7V50.9z M645,65.4h7v7h-7V65.4z M645,79.9h7v7h-7V79.9z M645,94.4h7v7h-7V94.4z M645,108.9h7v7h-7V108.9z M645,123.4h7v7h-7
		V123.4z M645,138h7v7h-7V138z M645,152.5h7v7h-7V152.5z M645,167h7v7h-7V167z M645,196.1h7v7h-7V196.1z M645,239.6h7v7h-7V239.6z
		 M645,275.9h7v7h-7V275.9z M652.2,43.6h7v7h-7V43.6z M652.2,101.7h7v7h-7V101.7z M659.5,50.9h7v7h-7V50.9z M659.5,65.4h7v7h-7V65.4
		z M659.5,79.9h7v7h-7V79.9z M659.5,94.4h7v7h-7V94.4z M659.5,108.9h7v7h-7V108.9z M659.5,123.4h7v7h-7V123.4z M659.5,138h7v7h-7
		V138z M659.5,152.5h7v7h-7V152.5z M659.5,167h7v7h-7V167z M659.5,203.3h7v7h-7V203.3z M659.5,232.3h7v7h-7V232.3z M659.5,261.4h7v7
		h-7V261.4z M659.5,290.4h7v7h-7V290.4z M666.8,43.6h7v7h-7V43.6z M666.8,58.1h7v7h-7V58.1z M666.8,65.4h7v7h-7V65.4z M666.8,72.6h7
		v7h-7V72.6z M666.8,87.2h7v7h-7V87.2z M666.8,181.5h7v7h-7V181.5z M674,50.9h7v7h-7V50.9z M674,65.4h7v7h-7V65.4z M674,79.9h7v7h-7
		V79.9z M674,94.4h7v7h-7V94.4z M674,108.9h7v7h-7V108.9z M674,123.4h7v7h-7V123.4z M674,196.1h7v7h-7V196.1z M674,225.1h7v7h-7
		V225.1z M674,275.9h7v7h-7V275.9z M681.3,43.6h7v7h-7V43.6z M681.3,72.6h7v7h-7V72.6z M681.3,101.7h7v7h-7V101.7z M681.3,152.5h7v7
		h-7V152.5z M681.3,167h7v7h-7V167z M681.3,181.5h7v7h-7V181.5z M688.5,50.9h7v7h-7V50.9z M688.5,65.4h7v7h-7V65.4z M688.5,79.9h7v7
		h-7V79.9z M688.5,94.4h7v7h-7V94.4z M688.5,108.9h7v7h-7V108.9z M688.5,123.4h7v7h-7V123.4z M688.5,138h7v7h-7V138z M688.5,159.7h7
		v7h-7V159.7z M688.5,210.6h7v7h-7V210.6z M688.5,246.9h7v7h-7V246.9z M688.5,261.4h7v7h-7V261.4z M688.5,283.2h7v7h-7V283.2z
		 M695.8,58.1h7v7h-7V58.1z M695.8,72.6h7v7h-7V72.6z M695.8,181.5h7v7h-7V181.5z M703.1,50.9h7v7h-7V50.9z M703.1,65.4h7v7h-7V65.4
		z M703.1,79.9h7v7h-7V79.9z M703.1,94.4h7v7h-7V94.4z M703.1,108.9h7v7h-7V108.9z M703.1,123.4h7v7h-7V123.4z M703.1,138h7v7h-7
		V138z M703.1,152.5h7v7h-7V152.5z M703.1,167h7v7h-7V167z M703.1,196.1h7v7h-7V196.1z M703.1,225.1h7v7h-7V225.1z M703.1,254.1h7v7
		h-7V254.1z M703.1,283.2h7v7h-7V283.2z M710.3,43.6h7v7h-7V43.6z M710.3,101.7h7v7h-7V101.7z M717.6,50.9h7v7h-7V50.9z M717.6,65.4
		h7v7h-7V65.4z M717.6,79.9h7v7h-7V79.9z M717.6,94.4h7v7h-7V94.4z M717.6,108.9h7v7h-7V108.9z M717.6,123.4h7v7h-7V123.4z
		 M717.6,138h7v7h-7V138z M717.6,152.5h7v7h-7V152.5z M717.6,167h7v7h-7V167z M717.6,210.6h7v7h-7V210.6z M717.6,239.6h7v7h-7V239.6
		z M717.6,268.7h7v7h-7V268.7z M303.7,50.9h7v7h-7V50.9z M303.7,65.4h7v7h-7V65.4z M303.7,79.9h7v7h-7V79.9z M303.7,94.4h7v7h-7
		V94.4z M303.7,108.9h7v7h-7V108.9z M311.1,181.5h7v7h-7V181.5z M303.7,196.1h7v7h-7V196.1z M303.7,217.8h7v7h-7V217.8z
		 M303.7,239.6h7v7h-7V239.6z M303.7,275.9h7v7h-7V275.9z M303.7,290.4h7v7h-7V290.4z M311,43.6h7v7h-7V43.6z M311,50.9h7v7h-7V50.9
		z M311,58.1h7v7h-7V58.1z M311,72.6h7v7h-7V72.6z M311,101.7h7v7h-7V101.7z M318.2,50.9h7v7h-7V50.9z M318.2,65.4h7v7h-7V65.4z
		 M318.2,72.6h7v7h-7V72.6z M318.2,79.9h7v7h-7V79.9z M318.2,123.4h7v7h-7V123.4z M318.2,138h7v7h-7V138z M318.2,152.5h7v7h-7V152.5
		z M318.2,167h7v7h-7V167z M325.6,181.5h7v7h-7V181.5z M318.2,196.1h7v7h-7V196.1z M318.2,232.3h7v7h-7V232.3z M318.2,268.7h7v7h-7
		V268.7z M318.2,290.4h7v7h-7V290.4z M325.5,43.6h7v7h-7V43.6z M325.5,72.6h7v7h-7V72.6z M325.5,101.7h7v7h-7V101.7z M332.7,50.9h7
		v7h-7V50.9z M332.7,65.4h7v7h-7V65.4z M332.7,79.9h7v7h-7V79.9z M332.7,94.4h7v7h-7V94.4z M340,94.4h7v7h-7V94.4z M332.7,138h7v7
		h-7V138z M332.7,152.5h7v7h-7V152.5z M332.7,167h7v7h-7V167z M340.1,181.5h7v7h-7V181.5z M332.7,196.1h7v7h-7V196.1z M332.7,225.1
		h7v7h-7V225.1z M332.7,254.1h7v7h-7V254.1z M332.7,275.9h7v7h-7V275.9z M332.7,290.4h7v7h-7V290.4z M340,43.6h7v7h-7V43.6z
		 M340,50.9h7v7h-7V50.9z M340,58.1h7v7h-7V58.1z M340,72.6h7v7h-7V72.6z M340,87.2h7v7h-7V87.2z M340,101.7h7v7h-7V101.7z
		 M347.3,50.9h7v7h-7V50.9z M347.3,65.4h7v7h-7V65.4z M347.3,79.9h7v7h-7V79.9z M347.3,94.4h7v7h-7V94.4z M347.3,123.4h7v7h-7V123.4
		z M347.3,138h7v7h-7V138z M347.3,152.5h7v7h-7V152.5z M347.3,167h7v7h-7V167z M347.3,203.3h7v7h-7V203.3z M347.3,232.3h7v7h-7
		V232.3z M347.3,268.7h7v7h-7V268.7z M347.3,290.4h7v7h-7V290.4z M354.5,43.6h7v7h-7V43.6z M354.5,87.2h7v7h-7V87.2z M361.8,50.9h7
		v7h-7V50.9z M361.8,65.4h7v7h-7V65.4z M361.8,79.9h7v7h-7V79.9z M361.8,94.4h7v7h-7V94.4z M361.8,108.9h7v7h-7V108.9z M361.8,123.4
		h7v7h-7V123.4z M361.8,138h7v7h-7V138z M361.8,152.5h7v7h-7V152.5z M369.2,181.5h7v7h-7V181.5z M361.8,196.1h7v7h-7V196.1z
		 M361.8,232.3h7v7h-7V232.3z M361.8,283.2h7v7h-7V283.2z M369,43.6h7v7h-7V43.6z M369,50.9h7v7h-7V50.9z M369,58.1h7v7h-7V58.1z
		 M369,72.6h7v7h-7V72.6z M369,101.7h7v7h-7V101.7z M369,145.2h7v7h-7V145.2z M376.3,50.9h7v7h-7V50.9z M376.3,65.4h7v7h-7V65.4z
		 M376.3,79.9h7v7h-7V79.9z M376.3,94.4h7v7h-7V94.4z M376.3,108.9h7v7h-7V108.9z M376.3,123.4h7v7h-7V123.4z M376.3,138h7v7h-7V138
		z M376.3,152.5h7v7h-7V152.5z M376.3,167h7v7h-7V167z M376.3,196.1h7v7h-7V196.1z M376.3,225.1h7v7h-7V225.1z M376.3,254.1h7v7h-7
		V254.1z M376.3,290.4h7v7h-7V290.4z M383.6,43.6h7v7h-7V43.6z M383.6,72.6h7v7h-7V72.6z M383.6,101.7h7v7h-7V101.7z M391,181.5h7v7
		h-7V181.5z M390.8,50.9h7v7h-7V50.9z M390.8,65.4h7v7h-7V65.4z M390.8,79.9h7v7h-7V79.9z M390.8,94.4h7v7h-7V94.4z M390.8,108.9h7
		v7h-7V108.9z M390.8,123.4h7v7h-7V123.4z M390.8,138h7v7h-7V138z M390.8,152.5h7v7h-7V152.5z M390.8,167h7v7h-7V167z M390.8,196.1
		h7v7h-7V196.1z M390.8,225.1h7v7h-7V225.1z M390.8,254.1h7v7h-7V254.1z M390.8,283.2h7v7h-7V283.2z M398.1,43.6h7v7h-7V43.6z
		 M398.1,50.9h7v7h-7V50.9z M398.1,58.1h7v7h-7V58.1z M398.1,72.6h7v7h-7V72.6z M398.1,87.2h7v7h-7V87.2z M398.1,101.7h7v7h-7V101.7
		z M405.3,50.9h7v7h-7V50.9z M405.3,65.4h7v7h-7V65.4z M405.3,79.9h7v7h-7V79.9z M405.3,94.4h7v7h-7V94.4z M405.3,108.9h7v7h-7
		V108.9z M405.3,123.4h7v7h-7V123.4z M405.3,138h7v7h-7V138z M405.3,152.5h7v7h-7V152.5z M405.3,167h7v7h-7V167z M412.7,181.5h7v7
		h-7V181.5z M405.3,196.1h7v7h-7V196.1z M405.3,232.3h7v7h-7V232.3z M405.3,268.7h7v7h-7V268.7z M405.3,290.4h7v7h-7V290.4z
		 M412.6,43.6h7v7h-7V43.6z M412.6,101.7h7v7h-7V101.7z M419.9,50.9h7v7h-7V50.9z M419.9,65.4h7v7h-7V65.4z M419.9,79.9h7v7h-7V79.9
		z M419.9,94.4h7v7h-7V94.4z M419.9,108.9h7v7h-7V108.9z M419.9,123.4h7v7h-7V123.4z M419.9,138h7v7h-7V138z M419.9,152.5h7v7h-7
		V152.5z M419.9,167h7v7h-7V167z M427.3,181.5h7v7h-7V181.5z M419.9,196.1h7v7h-7V196.1z M419.9,225.1h7v7h-7V225.1z M419.9,254.1h7
		v7h-7V254.1z M419.9,283.2h7v7h-7V283.2z M427.1,58.1h7v7h-7V58.1z M427.1,72.6h7v7h-7V72.6z M434.5,181.5h7v7h-7V181.5z
		 M434.4,50.9h7v7h-7V50.9z M434.4,65.4h7v7h-7V65.4z M434.4,79.9h7v7h-7V79.9z M434.4,94.4h7v7h-7V94.4z M434.4,108.9h7v7h-7V108.9
		z M434.4,123.4h7v7h-7V123.4z M434.4,138h7v7h-7V138z M434.4,152.5h7v7h-7V152.5z M434.4,167h7v7h-7V167z M434.4,196.1h7v7h-7
		V196.1z M434.4,239.6h7v7h-7V239.6z M434.4,275.9h7v7h-7V275.9z M441.6,43.6h7v7h-7V43.6z M441.6,101.7h7v7h-7V101.7z M448.9,50.9
		h7v7h-7V50.9z M448.9,65.4h7v7h-7V65.4z M448.9,79.9h7v7h-7V79.9z M448.9,94.4h7v7h-7V94.4z M448.9,108.9h7v7h-7V108.9z
		 M448.9,123.4h7v7h-7V123.4z M448.9,138h7v7h-7V138z M448.9,152.5h7v7h-7V152.5z M448.9,167h7v7h-7V167z M448.9,203.3h7v7h-7V203.3
		z M448.9,232.3h7v7h-7V232.3z M448.9,261.4h7v7h-7V261.4z M448.9,290.4h7v7h-7V290.4z M456.2,43.6h7v7h-7V43.6z M456.2,58.1h7v7h-7
		V58.1z M456.2,65.4h7v7h-7V65.4z M456.2,72.6h7v7h-7V72.6z M456.2,87.2h7v7h-7V87.2z M456.2,181.5h7v7h-7V181.5z M463.4,50.9h7v7
		h-7V50.9z M463.4,65.4h7v7h-7V65.4z M463.4,79.9h7v7h-7V79.9z M463.4,94.4h7v7h-7V94.4z M463.4,108.9h7v7h-7V108.9z M463.4,123.4h7
		v7h-7V123.4z M463.4,196.1h7v7h-7V196.1z M463.4,225.1h7v7h-7V225.1z M463.4,275.9h7v7h-7V275.9z M470.7,43.6h7v7h-7V43.6z
		 M470.7,72.6h7v7h-7V72.6z M470.7,101.7h7v7h-7V101.7z M470.7,152.5h7v7h-7V152.5z M470.7,167h7v7h-7V167z M470.7,181.5h7v7h-7
		V181.5z M477.9,50.9h7v7h-7V50.9z M477.9,65.4h7v7h-7V65.4z M477.9,79.9h7v7h-7V79.9z M477.9,94.4h7v7h-7V94.4z M477.9,108.9h7v7
		h-7V108.9z M477.9,123.4h7v7h-7V123.4z M477.9,138h7v7h-7V138z M477.9,159.7h7v7h-7V159.7z M477.9,210.6h7v7h-7V210.6z
		 M477.9,246.9h7v7h-7V246.9z M477.9,261.4h7v7h-7V261.4z M477.9,283.2h7v7h-7V283.2z M485.2,58.1h7v7h-7V58.1z M485.2,72.6h7v7h-7
		V72.6z M485.2,181.5h7v7h-7V181.5z M492.5,50.9h7v7h-7V50.9z M492.5,65.4h7v7h-7V65.4z M492.5,79.9h7v7h-7V79.9z M492.5,94.4h7v7
		h-7V94.4z M492.5,108.9h7v7h-7V108.9z M492.5,123.4h7v7h-7V123.4z M492.5,138h7v7h-7V138z M492.5,152.5h7v7h-7V152.5z M492.5,167h7
		v7h-7V167z M492.5,196.1h7v7h-7V196.1z M492.5,225.1h7v7h-7V225.1z M492.5,254.1h7v7h-7V254.1z M492.5,283.2h7v7h-7V283.2z
		 M499.7,43.6h7v7h-7V43.6z M499.7,101.7h7v7h-7V101.7z M507,50.9h7v7h-7V50.9z M507,65.4h7v7h-7V65.4z M507,79.9h7v7h-7V79.9z
		 M507,94.4h7v7h-7V94.4z M507,108.9h7v7h-7V108.9z M507,123.4h7v7h-7V123.4z M507,138h7v7h-7V138z M507,152.5h7v7h-7V152.5z
		 M507,167h7v7h-7V167z M507,210.6h7v7h-7V210.6z M507,239.6h7v7h-7V239.6z M507,268.7h7v7h-7V268.7z M93.2,50.9h7v7h-7V50.9z
		 M93.2,65.4h7v7h-7V65.4z M93.2,79.9h7v7h-7V79.9z M93.2,94.4h7v7h-7V94.4z M93.2,108.9h7v7h-7V108.9z M100.6,181.5h7v7h-7V181.5z
		 M93.2,196.1h7v7h-7V196.1z M93.2,217.8h7v7h-7V217.8z M93.2,239.6h7v7h-7V239.6z M93.2,275.9h7v7h-7V275.9z M93.2,290.4h7v7h-7
		V290.4z M100.5,43.6h7v7h-7V43.6z M100.5,50.9h7v7h-7V50.9z M100.5,58.1h7v7h-7V58.1z M100.5,72.6h7v7h-7V72.6z M100.5,101.7h7v7
		h-7V101.7z M107.7,50.9h7v7h-7V50.9z M107.7,65.4h7v7h-7V65.4z M107.7,79.9h7v7h-7V79.9z M107.7,123.4h7v7h-7V123.4z M107.7,138h7
		v7h-7V138z M107.7,152.5h7v7h-7V152.5z M107.7,167h7v7h-7V167z M115.1,181.5h7v7h-7V181.5z M107.7,196.1h7v7h-7V196.1z
		 M107.7,232.3h7v7h-7V232.3z M107.7,268.7h7v7h-7V268.7z M107.7,290.4h7v7h-7V290.4z M115,43.6h7v7h-7V43.6z M115,72.6h7v7h-7V72.6
		z M115,101.7h7v7h-7V101.7z M64.2,50.9h7v7h-7V50.9z M64.2,65.4h7v7h-7V65.4z M64.2,79.9h7v7h-7V79.9z M64.2,94.4h7v7h-7V94.4z
		 M64.2,108.9h7v7h-7V108.9z M71.6,181.5h7v7h-7V181.5z M64.2,196.1h7v7h-7V196.1z M64.2,217.8h7v7h-7V217.8z M64.2,239.6h7v7h-7
		V239.6z M64.2,275.9h7v7h-7V275.9z M64.2,290.4h7v7h-7V290.4z M71.5,43.6h7v7h-7V43.6z M71.5,50.9h7v7h-7V50.9z M71.5,58.1h7v7h-7
		V58.1z M71.5,72.6h7v7h-7V72.6z M71.5,101.7h7v7h-7V101.7z M78.7,50.9h7v7h-7V50.9z M78.7,65.4h7v7h-7V65.4z M78.7,72.6h7v7h-7
		V72.6z M78.7,79.9h7v7h-7V79.9z M78.7,123.4h7v7h-7V123.4z M78.7,138h7v7h-7V138z M78.7,152.5h7v7h-7V152.5z M78.7,167h7v7h-7V167z
		 M86.1,181.5h7v7h-7V181.5z M78.7,196.1h7v7h-7V196.1z M78.7,232.3h7v7h-7V232.3z M78.7,268.7h7v7h-7V268.7z M78.7,290.4h7v7h-7
		V290.4z M86,43.6h7v7h-7V43.6z M86,72.6h7v7h-7V72.6z M86,101.7h7v7h-7V101.7z M122.2,50.9h7v7h-7V50.9z M122.2,65.4h7v7h-7V65.4z
		 M122.2,79.9h7v7h-7V79.9z M122.2,94.4h7v7h-7V94.4z M122.2,138h7v7h-7V138z M122.2,152.5h7v7h-7V152.5z M122.2,167h7v7h-7V167z
		 M129.6,181.5h7v7h-7V181.5z M122.2,196.1h7v7h-7V196.1z M122.2,225.1h7v7h-7V225.1z M122.2,254.1h7v7h-7V254.1z M122.2,275.9h7v7
		h-7V275.9z M122.2,290.4h7v7h-7V290.4z M129.5,43.6h7v7h-7V43.6z M129.5,50.9h7v7h-7V50.9z M129.5,58.1h7v7h-7V58.1z M129.5,72.6h7
		v7h-7V72.6z M129.5,87.2h7v7h-7V87.2z M129.5,101.7h7v7h-7V101.7z M136.8,50.9h7v7h-7V50.9z M136.8,65.4h7v7h-7V65.4z M136.8,79.9
		h7v7h-7V79.9z M136.8,94.4h7v7h-7V94.4z M136.8,123.4h7v7h-7V123.4z M136.8,138h7v7h-7V138z M136.8,152.5h7v7h-7V152.5z M136.8,167
		h7v7h-7V167z M136.8,203.3h7v7h-7V203.3z M136.8,232.3h7v7h-7V232.3z M136.8,268.7h7v7h-7V268.7z M136.8,290.4h7v7h-7V290.4z
		 M144,43.6h7v7h-7V43.6z M144,87.2h7v7h-7V87.2z M151.3,50.9h7v7h-7V50.9z M151.3,65.4h7v7h-7V65.4z M151.3,79.9h7v7h-7V79.9z
		 M151.3,94.4h7v7h-7V94.4z M151.3,108.9h7v7h-7V108.9z M151.3,123.4h7v7h-7V123.4z M151.3,138h7v7h-7V138z M151.3,152.5h7v7h-7
		V152.5z M158.7,181.5h7v7h-7V181.5z M151.3,196.1h7v7h-7V196.1z M151.3,232.3h7v7h-7V232.3z M151.3,283.2h7v7h-7V283.2z
		 M158.5,43.6h7v7h-7V43.6z M158.5,50.9h7v7h-7V50.9z M158.5,58.1h7v7h-7V58.1z M158.5,72.6h7v7h-7V72.6z M158.5,101.7h7v7h-7V101.7
		z M158.5,145.2h7v7h-7V145.2z M165.8,50.9h7v7h-7V50.9z M165.8,65.4h7v7h-7V65.4z M165.8,79.9h7v7h-7V79.9z M165.8,94.4h7v7h-7
		V94.4z M165.8,108.9h7v7h-7V108.9z M165.8,123.4h7v7h-7V123.4z M165.8,138h7v7h-7V138z M165.8,152.5h7v7h-7V152.5z M165.8,167h7v7
		h-7V167z M165.8,196.1h7v7h-7V196.1z M165.8,225.1h7v7h-7V225.1z M165.8,254.1h7v7h-7V254.1z M165.8,290.4h7v7h-7V290.4z
		 M173.1,43.6h7v7h-7V43.6z M173.1,72.6h7v7h-7V72.6z M173.1,101.7h7v7h-7V101.7z M180.5,181.5h7v7h-7V181.5z M180.3,50.9h7v7h-7
		V50.9z M180.3,65.4h7v7h-7V65.4z M180.3,79.9h7v7h-7V79.9z M180.3,94.4h7v7h-7V94.4z M180.3,108.9h7v7h-7V108.9z M180.3,123.4h7v7
		h-7V123.4z M180.3,138h7v7h-7V138z M180.3,152.5h7v7h-7V152.5z M180.3,167h7v7h-7V167z M180.3,196.1h7v7h-7V196.1z M180.3,225.1h7
		v7h-7V225.1z M180.3,254.1h7v7h-7V254.1z M180.3,283.2h7v7h-7V283.2z M187.6,43.6h7v7h-7V43.6z M187.6,50.9h7v7h-7V50.9z
		 M187.6,58.1h7v7h-7V58.1z M187.6,72.6h7v7h-7V72.6z M187.6,87.2h7v7h-7V87.2z M187.6,101.7h7v7h-7V101.7z M194.8,50.9h7v7h-7V50.9
		z M194.8,65.4h7v7h-7V65.4z M194.8,79.9h7v7h-7V79.9z M194.8,94.4h7v7h-7V94.4z M194.8,108.9h7v7h-7V108.9z M194.8,123.4h7v7h-7
		V123.4z M194.8,138h7v7h-7V138z M194.8,152.5h7v7h-7V152.5z M194.8,167h7v7h-7V167z M202.2,181.5h7v7h-7V181.5z M194.8,196.1h7v7
		h-7V196.1z M194.8,232.3h7v7h-7V232.3z M194.8,268.7h7v7h-7V268.7z M194.8,290.4h7v7h-7V290.4z M202.1,43.6h7v7h-7V43.6z
		 M202.1,101.7h7v7h-7V101.7z M209.4,50.9h7v7h-7V50.9z M209.4,65.4h7v7h-7V65.4z M209.4,79.9h7v7h-7V79.9z M209.4,94.4h7v7h-7V94.4
		z M209.4,108.9h7v7h-7V108.9z M209.4,123.4h7v7h-7V123.4z M209.4,138h7v7h-7V138z M209.4,152.5h7v7h-7V152.5z M209.4,167h7v7h-7
		V167z M216.8,181.5h7v7h-7V181.5z M209.4,196.1h7v7h-7V196.1z M209.4,225.1h7v7h-7V225.1z M209.4,254.1h7v7h-7V254.1z M209.4,283.2
		h7v7h-7V283.2z M216.6,58.1h7v7h-7V58.1z M216.6,72.6h7v7h-7V72.6z M224,181.5h7v7h-7V181.5z M223.9,50.9h7v7h-7V50.9z M223.9,65.4
		h7v7h-7V65.4z M223.9,79.9h7v7h-7V79.9z M223.9,94.4h7v7h-7V94.4z M223.9,108.9h7v7h-7V108.9z M223.9,123.4h7v7h-7V123.4z
		 M223.9,138h7v7h-7V138z M223.9,152.5h7v7h-7V152.5z M223.9,167h7v7h-7V167z M223.9,196.1h7v7h-7V196.1z M223.9,239.6h7v7h-7V239.6
		z M223.9,275.9h7v7h-7V275.9z M231.1,43.6h7v7h-7V43.6z M231.1,101.7h7v7h-7V101.7z M238.4,50.9h7v7h-7V50.9z M238.4,65.4h7v7h-7
		V65.4z M238.4,79.9h7v7h-7V79.9z M238.4,94.4h7v7h-7V94.4z M238.4,108.9h7v7h-7V108.9z M238.4,123.4h7v7h-7V123.4z M238.4,138h7v7
		h-7V138z M238.4,152.5h7v7h-7V152.5z M238.4,167h7v7h-7V167z M238.4,203.3h7v7h-7V203.3z M238.4,232.3h7v7h-7V232.3z M238.4,261.4
		h7v7h-7V261.4z M238.4,290.4h7v7h-7V290.4z M245.7,43.6h7v7h-7V43.6z M245.7,58.1h7v7h-7V58.1z M245.7,65.4h7v7h-7V65.4z
		 M245.7,72.6h7v7h-7V72.6z M245.7,87.2h7v7h-7V87.2z M245.7,181.5h7v7h-7V181.5z M252.9,50.9h7v7h-7V50.9z M252.9,65.4h7v7h-7V65.4
		z M252.9,79.9h7v7h-7V79.9z M252.9,94.4h7v7h-7V94.4z M252.9,108.9h7v7h-7V108.9z M252.9,123.4h7v7h-7V123.4z M252.9,196.1h7v7h-7
		V196.1z M252.9,225.1h7v7h-7V225.1z M252.9,275.9h7v7h-7V275.9z M260.2,43.6h7v7h-7V43.6z M260.2,72.6h7v7h-7V72.6z M260.2,101.7h7
		v7h-7V101.7z M260.2,152.5h7v7h-7V152.5z M260.2,167h7v7h-7V167z M260.2,181.5h7v7h-7V181.5z M267.4,50.9h7v7h-7V50.9z M267.4,65.4
		h7v7h-7V65.4z M267.4,79.9h7v7h-7V79.9z M267.4,94.4h7v7h-7V94.4z M267.4,108.9h7v7h-7V108.9z M267.4,123.4h7v7h-7V123.4z
		 M267.4,138h7v7h-7V138z M267.4,159.7h7v7h-7V159.7z M267.4,210.6h7v7h-7V210.6z M267.4,246.9h7v7h-7V246.9z M267.4,261.4h7v7h-7
		V261.4z M267.4,283.2h7v7h-7V283.2z M274.7,58.1h7v7h-7V58.1z M274.7,72.6h7v7h-7V72.6z M274.7,181.5h7v7h-7V181.5z M282,50.9h7v7
		h-7V50.9z M282,65.4h7v7h-7V65.4z M282,79.9h7v7h-7V79.9z M282,94.4h7v7h-7V94.4z M282,108.9h7v7h-7V108.9z M282,123.4h7v7h-7
		V123.4z M282,138h7v7h-7V138z M282,152.5h7v7h-7V152.5z M282,167h7v7h-7V167z M282,196.1h7v7h-7V196.1z M282,225.1h7v7h-7V225.1z
		 M282,254.1h7v7h-7V254.1z M282,283.2h7v7h-7V283.2z M289.2,43.6h7v7h-7V43.6z M289.2,101.7h7v7h-7V101.7z M296.5,50.9h7v7h-7V50.9
		z M296.5,65.4h7v7h-7V65.4z M296.5,79.9h7v7h-7V79.9z M296.5,94.4h7v7h-7V94.4z M296.5,108.9h7v7h-7V108.9z M296.5,123.4h7v7h-7
		V123.4z M296.5,138h7v7h-7V138z M296.5,152.5h7v7h-7V152.5z M296.5,167h7v7h-7V167z M296.5,210.6h7v7h-7V210.6z M296.5,239.6h7v7
		h-7V239.6z M296.5,268.7h7v7h-7V268.7z M724.8,304.9h7v7h-7V304.9z M724.8,326.7h7v7h-7V326.7z M724.8,377.5h7v7h-7V377.5z
		 M739.3,319.4h7v7h-7V319.4z M739.3,355.8h7v7h-7V355.8z M753.8,341.2h7v7h-7V341.2z M768.4,355.8h7v7h-7V355.8z M768.4,377.5h7v7
		h-7V377.5z M782.9,319.4h7v7h-7V319.4z M782.9,370.3h7v7h-7V370.3z M797.4,312.2h7v7h-7V312.2z M797.4,341.2h7v7h-7V341.2z
		 M797.4,377.5h7v7h-7V377.5z M811.9,312.2h7v7h-7V312.2z M811.9,370.3h7v7h-7V370.3z M826.4,355.8h7v7h-7V355.8z M826.4,377.5h7v7
		h-7V377.5z M841,312.2h7v7h-7V312.2z M841,341.2h7v7h-7V341.2z M855.5,326.7h7v7h-7V326.7z M855.5,363h7v7h-7V363z M870,319.4h7v7
		h-7V319.4z M870,348.5h7v7h-7V348.5z M870,377.5h7v7h-7V377.5z M884.5,312.2h7v7h-7V312.2z M899,297.7h7v7h-7V297.7z M899,348.5h7
		v7h-7V348.5z M899,370.3h7v7h-7V370.3z M913.6,312.2h7v7h-7V312.2z M913.6,341.2h7v7h-7V341.2z M913.6,370.3h7v7h-7V370.3z
		 M928.1,297.7h7v7h-7V297.7z M928.1,326.7h7v7h-7V326.7z M928.1,355.8h7v7h-7V355.8z M514.3,304.9h7v7h-7V304.9z M514.3,377.5h7v7
		h-7V377.5z M528.8,319.4h7v7h-7V319.4z M528.8,355.8h7v7h-7V355.8z M543.3,312.2h7v7h-7V312.2z M543.3,341.2h7v7h-7V341.2z
		 M543.3,377.5h7v7h-7V377.5z M557.9,319.4h7v7h-7V319.4z M557.9,355.8h7v7h-7V355.8z M572.4,319.4h7v7h-7V319.4z M572.4,370.3h7v7
		h-7V370.3z M586.9,312.2h7v7h-7V312.2z M586.9,341.2h7v7h-7V341.2z M586.9,377.5h7v7h-7V377.5z M601.4,312.2h7v7h-7V312.2z
		 M601.4,370.3h7v7h-7V370.3z M615.9,319.4h7v7h-7V319.4z M615.9,355.8h7v7h-7V355.8z M615.9,377.5h7v7h-7V377.5z M630.5,312.2h7v7
		h-7V312.2z M630.5,341.2h7v7h-7V341.2z M645,326.7h7v7h-7V326.7z M645,363h7v7h-7V363z M659.5,319.4h7v7h-7V319.4z M659.5,348.5h7
		v7h-7V348.5z M659.5,377.5h7v7h-7V377.5z M674,312.2h7v7h-7V312.2z M688.5,297.7h7v7h-7V297.7z M688.5,334h7v7h-7V334z
		 M688.5,370.3h7v7h-7V370.3z M703.1,312.2h7v7h-7V312.2z M703.1,341.2h7v7h-7V341.2z M703.1,370.3h7v7h-7V370.3z M717.6,297.7h7v7
		h-7V297.7z M303.7,304.9h7v7h-7V304.9z M303.7,326.7h7v7h-7V326.7z M303.7,377.5h7v7h-7V377.5z M318.2,319.4h7v7h-7V319.4z
		 M318.2,355.8h7v7h-7V355.8z M318.2,377.5h7v7h-7V377.5z M332.7,312.2h7v7h-7V312.2z M332.7,363h7v7h-7V363z M347.3,319.4h7v7h-7
		V319.4z M347.3,355.8h7v7h-7V355.8z M347.3,377.5h7v7h-7V377.5z M361.8,319.4h7v7h-7V319.4z M361.8,370.3h7v7h-7V370.3z
		 M376.3,312.2h7v7h-7V312.2z M376.3,341.2h7v7h-7V341.2z M376.3,377.5h7v7h-7V377.5z M390.8,312.2h7v7h-7V312.2z M405.3,319.4h7v7
		h-7V319.4z M405.3,355.8h7v7h-7V355.8z M405.3,377.5h7v7h-7V377.5z M419.9,312.2h7v7h-7V312.2z M419.9,341.2h7v7h-7V341.2z
		 M419.9,370.3h7v7h-7V370.3z M434.4,326.7h7v7h-7V326.7z M434.4,363h7v7h-7V363z M448.9,348.5h7v7h-7V348.5z M448.9,377.5h7v7h-7
		V377.5z M463.4,312.2h7v7h-7V312.2z M477.9,297.7h7v7h-7V297.7z M477.9,348.5h7v7h-7V348.5z M492.5,312.2h7v7h-7V312.2z
		 M492.5,341.2h7v7h-7V341.2z M492.5,370.3h7v7h-7V370.3z M507,297.7h7v7h-7V297.7z M507,326.7h7v7h-7V326.7z M507,355.8h7v7h-7
		V355.8z M93.2,304.9h7v7h-7V304.9z M93.2,326.7h7v7h-7V326.7z M93.2,377.5h7v7h-7V377.5z M107.7,377.5h7v7h-7V377.5z M64.2,304.9h7
		v7h-7V304.9z M64.2,326.7h7v7h-7V326.7z M64.2,363h7v7h-7V363z M64.2,377.5h7v7h-7V377.5z M78.7,319.4h7v7h-7V319.4z M78.7,355.8h7
		v7h-7V355.8z M122.2,312.2h7v7h-7V312.2z M122.2,341.2h7v7h-7V341.2z M136.8,319.4h7v7h-7V319.4z M136.8,355.8h7v7h-7V355.8z
		 M136.8,377.5h7v7h-7V377.5z M151.3,319.4h7v7h-7V319.4z M165.8,312.2h7v7h-7V312.2z M165.8,341.2h7v7h-7V341.2z M165.8,377.5h7v7
		h-7V377.5z M180.3,370.3h7v7h-7V370.3z M194.8,319.4h7v7h-7V319.4z M194.8,355.8h7v7h-7V355.8z M194.8,377.5h7v7h-7V377.5z
		 M209.4,312.2h7v7h-7V312.2z M209.4,341.2h7v7h-7V341.2z M209.4,370.3h7v7h-7V370.3z M238.4,319.4h7v7h-7V319.4z M238.4,348.5h7v7
		h-7V348.5z M238.4,377.5h7v7h-7V377.5z M252.9,312.2h7v7h-7V312.2z M252.9,363h7v7h-7V363z M267.4,297.7h7v7h-7V297.7z M267.4,334
		h7v7h-7V334z M267.4,348.5h7v7h-7V348.5z M282,312.2h7v7h-7V312.2z M282,370.3h7v7h-7V370.3z M296.5,355.8h7v7h-7V355.8z
		 M935.3,7.3h7v7h-7V7.3z M935.3,21.8h7v7h-7V21.8z M935.3,29.1h7v7h-7V29.1z M935.3,36.3h7v7h-7V36.3z M935.3,43.6h7v7h-7V43.6z
		 M935.3,50.9h7v7h-7V50.9z M935.3,58.1h7v7h-7V58.1z M935.3,65.4h7v7h-7V65.4z M935.3,72.6h7v7h-7V72.6z M935.3,79.9h7v7h-7V79.9z
		 M935.3,87.2h7v7h-7V87.2z M935.3,94.4h7v7h-7V94.4z M935.3,101.7h7v7h-7V101.7z M935.3,108.9h7v7h-7V108.9z M935.3,116.2h7v7h-7
		V116.2z M935.3,123.4h7v7h-7V123.4z M935.3,130.7h7v7h-7V130.7z M935.3,138h7v7h-7V138z M935.3,145.2h7v7h-7V145.2z M935.3,152.5h7
		v7h-7V152.5z M935.3,159.7h7v7h-7V159.7z M935.3,167h7v7h-7V167z M935.3,174.3h7v7h-7V174.3z M935.3,181.5h7v7h-7V181.5z
		 M935.3,188.8h7v7h-7V188.8z M935.3,196.1h7v7h-7V196.1z M935.3,203.3h7v7h-7V203.3z M935.3,210.6h7v7h-7V210.6z M935.3,217.8h7v7
		h-7V217.8z M935.3,225.1h7v7h-7V225.1z M935.3,232.3h7v7h-7V232.3z M935.3,239.6h7v7h-7V239.6z M935.3,246.9h7v7h-7V246.9z
		 M935.3,254.1h7v7h-7V254.1z M935.3,261.4h7v7h-7V261.4z M935.3,268.7h7v7h-7V268.7z M935.3,275.9h7v7h-7V275.9z M935.3,283.2h7v7
		h-7V283.2z M935.3,290.4h7v7h-7V290.4z M935.3,297.7h7v7h-7V297.7z M935.3,304.9h7v7h-7V304.9z M935.3,312.2h7v7h-7V312.2z
		 M935.3,319.5h7v7h-7V319.5z M935.3,326.7h7v7h-7V326.7z M935.3,334h7v7h-7V334z M935.3,341.3h7v7h-7V341.3z M935.3,348.5h7v7h-7
		V348.5z M935.3,355.8h7v7h-7V355.8z M935.3,363h7v7h-7V363z M935.3,370.3h7v7h-7V370.3z M935.3,377.5h7v7h-7V377.5z M935.3,384.8h7
		v7h-7V384.8z M935.3,392.1h7v7h-7V392.1z M935.3,399.3h7v7h-7V399.3z M935.3,406.6h7v7h-7V406.6z M935.3,413.9h7v7h-7V413.9z
		 M935.3,421.1h7v7h-7V421.1z M935.3,428.4h7v7h-7V428.4z M935.3,435.6h7v7h-7V435.6z M935.3,442.9h7v7h-7V442.9z M935.3,450.1h7v7
		h-7V450.1z M935.3,457.4h7v7h-7V457.4z M935.3,464.7h7v7h-7V464.7z M935.3,471.9h7v7h-7V471.9z M935.3,479.2h7v7h-7V479.2z
		 M935.3,486.5h7v7h-7V486.5z M935.3,493.7h7v7h-7V493.7z M935.3,501h7v7h-7V501z M935.3,508.2h7v7h-7V508.2z M935.3,515.5h7v7h-7
		V515.5z M935.3,522.7h7v7h-7V522.7z M935.3,530h7v7h-7V530z M935.3,537.3h7v7h-7V537.3z M935.3,544.5h7v7h-7V544.5z M935.3,551.8h7
		v7h-7V551.8z M935.3,559.1h7v7h-7V559.1z M935.3,566.3h7v7h-7V566.3z M935.3,573.6h7v7h-7V573.6z M935.3,580.8h7v7h-7V580.8z
		 M935.3,588.1h7v7h-7V588.1z M935.3,595.3h7v7h-7V595.3z M935.3,602.6h7v7h-7V602.6z M935.3,609.8h7v7h-7V609.8z M935.3,617.1h7v7
		h-7V617.1z M935.3,624.4h7v7h-7V624.4z M935.3,631.6h7v7h-7V631.6z M935.3,638.9h7v7h-7V638.9z M935.3,646.1h7v7h-7V646.1z
		 M935.3,653.4h7v7h-7V653.4z M935.3,660.7h7v7h-7V660.7z M935.3,668h7v7h-7V668z M935.3,675.2h7v7h-7V675.2z M935.3,682.5h7v7h-7
		V682.5z M935.3,689.8h7v7h-7V689.8z M935.3,697h7v7h-7V697z M935.3,704.3h7v7h-7V704.3z M935.3,711.5h7v7h-7V711.5z M935.3,718.8h7
		v7h-7V718.8z M935.3,726h7v7h-7V726z M935.3,733.3h7v7h-7V733.3z M56.9,791.4h7v7h-7V791.4z M56.9,798.7h7v7h-7V798.7z M56.9,805.9
		h7v7h-7V805.9z M56.9,813.2h7v7h-7V813.2z M56.9,820.4h7v7h-7V820.4z M27.8,834.9h7v7h-7V834.9z M27.8,849.5h7v7h-7V849.5z
		 M27.8,864h7v7h-7V864z M27.8,878.5h7v7h-7V878.5z M20.6,834.9h7v7h-7V834.9z M20.6,849.5h7v7h-7V849.5z M20.6,864h7v7h-7V864z
		 M20.6,878.5h7v7h-7V878.5z M13.3,834.9h7v7h-7V834.9z M13.3,849.5h7v7h-7V849.5z M13.3,864h7v7h-7V864z M13.3,878.5h7v7h-7V878.5z
		 M35.1,834.9h7v7h-7V834.9z M35.1,842.2h7v7h-7V842.2z M35.1,849.5h7v7h-7V849.5z M35.1,864h7v7h-7V864z M27.8,871.2h7v7h-7V871.2z
		 M35.1,878.5h7v7h-7V878.5z M42.3,834.9h7v7h-7V834.9z M42.3,849.5h7v7h-7V849.5z M42.3,864h7v7h-7V864z M42.3,878.5h7v7h-7V878.5z
		 M49.6,834.9h7v7h-7V834.9z M49.6,849.5h7v7h-7V849.5z M49.6,864h7v7h-7V864z M49.6,878.5h7v7h-7V878.5z M27.8,776.8h7v7h-7V776.8z
		 M27.8,791.4h7v7h-7V791.4z M27.8,805.9h7v7h-7V805.9z M27.8,820.4h7v7h-7V820.4z M20.6,776.8h7v7h-7V776.8z M20.6,791.4h7v7h-7
		V791.4z M20.6,805.9h7v7h-7V805.9z M20.6,820.4h7v7h-7V820.4z M13.3,776.8h7v7h-7V776.8z M13.3,791.4h7v7h-7V791.4z M13.3,805.9h7
		v7h-7V805.9z M13.3,820.4h7v7h-7V820.4z M35.1,776.8h7v7h-7V776.8z M35.1,784.1h7v7h-7V784.1z M35.1,791.4h7v7h-7V791.4z
		 M35.1,805.9h7v7h-7V805.9z M27.8,813.1h7v7h-7V813.1z M35.1,820.4h7v7h-7V820.4z M42.3,776.8h7v7h-7V776.8z M42.3,791.4h7v7h-7
		V791.4z M42.3,805.9h7v7h-7V805.9z M42.3,820.4h7v7h-7V820.4z M49.6,776.8h7v7h-7V776.8z M49.6,791.4h7v7h-7V791.4z M49.6,805.9h7
		v7h-7V805.9z M49.6,820.4h7v7h-7V820.4z M27.8,718.7h7v7h-7V718.7z M27.8,733.3h7v7h-7V733.3z M27.8,747.8h7v7h-7V747.8z
		 M27.8,762.3h7v7h-7V762.3z M20.6,718.7h7v7h-7V718.7z M20.6,733.3h7v7h-7V733.3z M20.6,747.8h7v7h-7V747.8z M20.6,762.3h7v7h-7
		V762.3z M13.3,718.7h7v7h-7V718.7z M13.3,733.3h7v7h-7V733.3z M13.3,747.8h7v7h-7V747.8z M13.3,762.3h7v7h-7V762.3z M35.1,718.7h7
		v7h-7V718.7z M35.1,726h7v7h-7V726z M35.1,733.3h7v7h-7V733.3z M35.1,747.8h7v7h-7V747.8z M27.8,755h7v7h-7V755z M35.1,762.3h7v7
		h-7V762.3z M42.3,718.7h7v7h-7V718.7z M42.3,733.3h7v7h-7V733.3z M42.3,747.8h7v7h-7V747.8z M42.3,762.3h7v7h-7V762.3z M49.6,718.7
		h7v7h-7V718.7z M49.6,733.3h7v7h-7V733.3z M49.6,747.8h7v7h-7V747.8z M49.6,762.3h7v7h-7V762.3z M27.8,660.7h7v7h-7V660.7z
		 M27.8,675.3h7v7h-7V675.3z M27.8,689.8h7v7h-7V689.8z M27.8,704.3h7v7h-7V704.3z M20.6,660.7h7v7h-7V660.7z M20.6,675.3h7v7h-7
		V675.3z M20.6,689.8h7v7h-7V689.8z M20.6,704.3h7v7h-7V704.3z M13.3,660.7h7v7h-7V660.7z M13.3,675.3h7v7h-7V675.3z M13.3,689.8h7
		v7h-7V689.8z M13.3,704.3h7v7h-7V704.3z M35.1,660.7h7v7h-7V660.7z M35.1,668h7v7h-7V668z M35.1,675.3h7v7h-7V675.3z M35.1,689.8h7
		v7h-7V689.8z M27.8,697h7v7h-7V697z M35.1,704.3h7v7h-7V704.3z M42.3,660.7h7v7h-7V660.7z M42.3,675.3h7v7h-7V675.3z M42.3,689.8h7
		v7h-7V689.8z M42.3,704.3h7v7h-7V704.3z M49.6,660.7h7v7h-7V660.7z M49.6,675.3h7v7h-7V675.3z M49.6,689.8h7v7h-7V689.8z
		 M49.6,704.3h7v7h-7V704.3z M27.8,602.6h7v7h-7V602.6z M27.8,617.2h7v7h-7V617.2z M27.8,631.7h7v7h-7V631.7z M27.8,646.2h7v7h-7
		V646.2z M20.6,602.6h7v7h-7V602.6z M20.6,617.2h7v7h-7V617.2z M20.6,631.7h7v7h-7V631.7z M20.6,646.2h7v7h-7V646.2z M13.3,602.6h7
		v7h-7V602.6z M13.3,617.2h7v7h-7V617.2z M13.3,631.7h7v7h-7V631.7z M13.3,646.2h7v7h-7V646.2z M35.1,602.6h7v7h-7V602.6z
		 M35.1,609.9h7v7h-7V609.9z M35.1,617.2h7v7h-7V617.2z M35.1,631.7h7v7h-7V631.7z M27.8,638.9h7v7h-7V638.9z M35.1,646.2h7v7h-7
		V646.2z M42.3,602.6h7v7h-7V602.6z M42.3,617.2h7v7h-7V617.2z M42.3,631.7h7v7h-7V631.7z M42.3,646.2h7v7h-7V646.2z M49.6,602.6h7
		v7h-7V602.6z M49.6,617.2h7v7h-7V617.2z M49.6,631.7h7v7h-7V631.7z M49.6,646.2h7v7h-7V646.2z M27.8,544.5h7v7h-7V544.5z
		 M27.8,559.1h7v7h-7V559.1z M27.8,573.6h7v7h-7V573.6z M27.8,588.1h7v7h-7V588.1z M20.6,544.5h7v7h-7V544.5z M20.6,559.1h7v7h-7
		V559.1z M20.6,573.6h7v7h-7V573.6z M20.6,588.1h7v7h-7V588.1z M13.3,544.5h7v7h-7V544.5z M13.3,559.1h7v7h-7V559.1z M13.3,573.6h7
		v7h-7V573.6z M13.3,588.1h7v7h-7V588.1z M35.1,544.5h7v7h-7V544.5z M35.1,551.8h7v7h-7V551.8z M35.1,559.1h7v7h-7V559.1z
		 M35.1,573.6h7v7h-7V573.6z M27.8,580.8h7v7h-7V580.8z M35.1,588.1h7v7h-7V588.1z M42.3,544.5h7v7h-7V544.5z M42.3,559.1h7v7h-7
		V559.1z M42.3,573.6h7v7h-7V573.6z M42.3,588.1h7v7h-7V588.1z M49.6,544.5h7v7h-7V544.5z M49.6,559.1h7v7h-7V559.1z M49.6,573.6h7
		v7h-7V573.6z M49.6,588.1h7v7h-7V588.1z M27.8,486.4h7v7h-7V486.4z M27.8,501h7v7h-7V501z M27.8,515.5h7v7h-7V515.5z M27.8,530h7v7
		h-7V530z M20.6,486.4h7v7h-7V486.4z M20.6,501h7v7h-7V501z M20.6,515.5h7v7h-7V515.5z M20.6,530h7v7h-7V530z M13.3,486.4h7v7h-7
		V486.4z M13.3,501h7v7h-7V501z M13.3,515.5h7v7h-7V515.5z M13.3,530h7v7h-7V530z M35.1,486.4h7v7h-7V486.4z M35.1,493.7h7v7h-7
		V493.7z M35.1,501h7v7h-7V501z M35.1,515.5h7v7h-7V515.5z M27.8,522.7h7v7h-7V522.7z M35.1,530h7v7h-7V530z M42.3,486.4h7v7h-7
		V486.4z M42.3,501h7v7h-7V501z M42.3,515.5h7v7h-7V515.5z M42.3,530h7v7h-7V530z M49.6,486.4h7v7h-7V486.4z M49.6,501h7v7h-7V501z
		 M49.6,515.5h7v7h-7V515.5z M49.6,530h7v7h-7V530z M27.8,428.3h7v7h-7V428.3z M27.8,442.9h7v7h-7V442.9z M27.8,457.4h7v7h-7V457.4z
		 M27.8,471.9h7v7h-7V471.9z M20.6,428.3h7v7h-7V428.3z M20.6,442.9h7v7h-7V442.9z M20.6,457.4h7v7h-7V457.4z M20.6,471.9h7v7h-7
		V471.9z M13.3,428.3h7v7h-7V428.3z M13.3,442.9h7v7h-7V442.9z M13.3,457.4h7v7h-7V457.4z M13.3,471.9h7v7h-7V471.9z M35.1,428.3h7
		v7h-7V428.3z M35.1,435.6h7v7h-7V435.6z M35.1,442.9h7v7h-7V442.9z M35.1,457.4h7v7h-7V457.4z M27.8,464.6h7v7h-7V464.6z
		 M35.1,471.9h7v7h-7V471.9z M42.3,428.3h7v7h-7V428.3z M42.3,442.9h7v7h-7V442.9z M42.3,457.4h7v7h-7V457.4z M42.3,471.9h7v7h-7
		V471.9z M49.6,428.3h7v7h-7V428.3z M49.6,442.9h7v7h-7V442.9z M49.6,457.4h7v7h-7V457.4z M49.6,471.9h7v7h-7V471.9z M27.8,370.3h7
		v7h-7V370.3z M27.8,384.9h7v7h-7V384.9z M27.8,399.4h7v7h-7V399.4z M27.8,413.9h7v7h-7V413.9z M20.6,370.3h7v7h-7V370.3z
		 M20.6,384.9h7v7h-7V384.9z M20.6,399.4h7v7h-7V399.4z M20.6,413.9h7v7h-7V413.9z M13.3,370.3h7v7h-7V370.3z M13.3,384.9h7v7h-7
		V384.9z M13.3,399.4h7v7h-7V399.4z M13.3,413.9h7v7h-7V413.9z M35.1,370.3h7v7h-7V370.3z M35.1,377.6h7v7h-7V377.6z M35.1,384.9h7
		v7h-7V384.9z M35.1,399.4h7v7h-7V399.4z M27.8,406.6h7v7h-7V406.6z M35.1,413.9h7v7h-7V413.9z M42.3,370.3h7v7h-7V370.3z
		 M42.3,384.9h7v7h-7V384.9z M42.3,399.4h7v7h-7V399.4z M42.3,413.9h7v7h-7V413.9z M49.6,370.3h7v7h-7V370.3z M49.6,384.9h7v7h-7
		V384.9z M49.6,399.4h7v7h-7V399.4z M49.6,413.9h7v7h-7V413.9z M27.8,312.2h7v7h-7V312.2z M27.8,326.8h7v7h-7V326.8z M27.8,341.3h7
		v7h-7V341.3z M27.8,355.8h7v7h-7V355.8z M20.6,312.2h7v7h-7V312.2z M20.6,326.8h7v7h-7V326.8z M20.6,341.3h7v7h-7V341.3z
		 M20.6,355.8h7v7h-7V355.8z M13.3,312.2h7v7h-7V312.2z M13.3,326.8h7v7h-7V326.8z M13.3,341.3h7v7h-7V341.3z M13.3,355.8h7v7h-7
		V355.8z M35.1,312.2h7v7h-7V312.2z M35.1,319.5h7v7h-7V319.5z M35.1,326.8h7v7h-7V326.8z M35.1,341.3h7v7h-7V341.3z M27.8,348.5h7
		v7h-7V348.5z M35.1,355.8h7v7h-7V355.8z M42.3,312.2h7v7h-7V312.2z M42.3,326.8h7v7h-7V326.8z M42.3,341.3h7v7h-7V341.3z
		 M42.3,355.8h7v7h-7V355.8z M49.6,312.2h7v7h-7V312.2z M49.6,326.8h7v7h-7V326.8z M49.6,341.3h7v7h-7V341.3z M49.6,355.8h7v7h-7
		V355.8z M27.8,254.1h7v7h-7V254.1z M27.8,268.7h7v7h-7V268.7z M27.8,283.2h7v7h-7V283.2z M27.8,297.7h7v7h-7V297.7z M20.6,254.1h7
		v7h-7V254.1z M20.6,268.7h7v7h-7V268.7z M20.6,283.2h7v7h-7V283.2z M20.6,297.7h7v7h-7V297.7z M13.3,254.1h7v7h-7V254.1z
		 M13.3,268.7h7v7h-7V268.7z M13.3,283.2h7v7h-7V283.2z M13.3,297.7h7v7h-7V297.7z M35.1,254.1h7v7h-7V254.1z M35.1,261.4h7v7h-7
		V261.4z M35.1,268.7h7v7h-7V268.7z M35.1,283.2h7v7h-7V283.2z M27.8,290.4h7v7h-7V290.4z M35.1,297.7h7v7h-7V297.7z M42.3,254.1h7
		v7h-7V254.1z M42.3,268.7h7v7h-7V268.7z M42.3,283.2h7v7h-7V283.2z M42.3,297.7h7v7h-7V297.7z M49.6,254.1h7v7h-7V254.1z
		 M49.6,268.7h7v7h-7V268.7z M49.6,283.2h7v7h-7V283.2z M49.6,297.7h7v7h-7V297.7z M27.8,196h7v7h-7V196z M27.8,210.6h7v7h-7V210.6z
		 M27.8,225.1h7v7h-7V225.1z M27.8,239.6h7v7h-7V239.6z M20.6,196h7v7h-7V196z M20.6,210.6h7v7h-7V210.6z M20.6,225.1h7v7h-7V225.1z
		 M20.6,239.6h7v7h-7V239.6z M13.3,196h7v7h-7V196z M13.3,210.6h7v7h-7V210.6z M13.3,225.1h7v7h-7V225.1z M13.3,239.6h7v7h-7V239.6z
		 M35.1,196h7v7h-7V196z M35.1,203.3h7v7h-7V203.3z M35.1,210.6h7v7h-7V210.6z M35.1,225.1h7v7h-7V225.1z M27.8,232.3h7v7h-7V232.3z
		 M35.1,239.6h7v7h-7V239.6z M42.3,196h7v7h-7V196z M42.3,210.6h7v7h-7V210.6z M42.3,225.1h7v7h-7V225.1z M42.3,239.6h7v7h-7V239.6z
		 M49.6,196h7v7h-7V196z M49.6,210.6h7v7h-7V210.6z M49.6,225.1h7v7h-7V225.1z M49.6,239.6h7v7h-7V239.6z M27.8,137.9h7v7h-7V137.9z
		 M27.8,152.5h7v7h-7V152.5z M27.8,167h7v7h-7V167z M27.8,181.5h7v7h-7V181.5z M20.6,137.9h7v7h-7V137.9z M20.6,152.5h7v7h-7V152.5z
		 M20.6,167h7v7h-7V167z M20.6,181.5h7v7h-7V181.5z M13.3,137.9h7v7h-7V137.9z M13.3,152.5h7v7h-7V152.5z M13.3,167h7v7h-7V167z
		 M13.3,181.5h7v7h-7V181.5z M35.1,137.9h7v7h-7V137.9z M35.1,145.2h7v7h-7V145.2z M35.1,152.5h7v7h-7V152.5z M35.1,167h7v7h-7V167z
		 M27.8,174.2h7v7h-7V174.2z M35.1,181.5h7v7h-7V181.5z M42.3,137.9h7v7h-7V137.9z M42.3,152.5h7v7h-7V152.5z M42.3,167h7v7h-7V167z
		 M42.3,181.5h7v7h-7V181.5z M49.6,137.9h7v7h-7V137.9z M49.6,152.5h7v7h-7V152.5z M49.6,167h7v7h-7V167z M49.6,181.5h7v7h-7V181.5z
		 M27.8,79.9h7v7h-7V79.9z M27.8,94.5h7v7h-7V94.5z M27.8,109h7v7h-7V109z M27.8,123.5h7v7h-7V123.5z M20.6,79.9h7v7h-7V79.9z
		 M20.6,94.5h7v7h-7V94.5z M20.6,109h7v7h-7V109z M20.6,123.5h7v7h-7V123.5z M13.3,79.9h7v7h-7V79.9z M13.3,94.5h7v7h-7V94.5z
		 M13.3,109h7v7h-7V109z M13.3,123.5h7v7h-7V123.5z M35.1,79.9h7v7h-7V79.9z M35.1,87.2h7v7h-7V87.2z M35.1,94.5h7v7h-7V94.5z
		 M35.1,109h7v7h-7V109z M27.8,116.2h7v7h-7V116.2z M35.1,123.5h7v7h-7V123.5z M42.3,79.9h7v7h-7V79.9z M42.3,94.5h7v7h-7V94.5z
		 M42.3,109h7v7h-7V109z M42.3,123.5h7v7h-7V123.5z M49.6,79.9h7v7h-7V79.9z M49.6,94.5h7v7h-7V94.5z M49.6,109h7v7h-7V109z
		 M49.6,123.5h7v7h-7V123.5z M27.8,21.8h7v7h-7V21.8z M27.8,36.4h7v7h-7V36.4z M27.8,50.9h7v7h-7V50.9z M27.8,65.4h7v7h-7V65.4z
		 M20.6,21.8h7v7h-7V21.8z M20.6,36.4h7v7h-7V36.4z M20.6,50.9h7v7h-7V50.9z M20.6,65.4h7v7h-7V65.4z M13.3,21.8h7v7h-7V21.8z
		 M13.3,36.4h7v7h-7V36.4z M13.3,50.9h7v7h-7V50.9z M13.3,65.4h7v7h-7V65.4z M35.1,21.8h7v7h-7V21.8z M35.1,29.1h7v7h-7V29.1z
		 M35.1,36.4h7v7h-7V36.4z M35.1,50.9h7v7h-7V50.9z M27.8,58.1h7v7h-7V58.1z M35.1,65.4h7v7h-7V65.4z M42.3,21.8h7v7h-7V21.8z
		 M42.3,36.4h7v7h-7V36.4z M42.3,50.9h7v7h-7V50.9z M42.3,65.4h7v7h-7V65.4z M49.6,21.8h7v7h-7V21.8z M49.6,36.4h7v7h-7V36.4z
		 M49.6,50.9h7v7h-7V50.9z M49.6,65.4h7v7h-7V65.4z M27.8,7.3h7v7h-7V7.3z M20.6,7.3h7v7h-7V7.3z M13.3,7.3h7v7h-7V7.3z M35.1,7.3h7
		v7h-7V7.3z M42.3,7.3h7v7h-7V7.3z M49.6,7.3h7v7h-7V7.3z M56.9,827.7h7v7h-7V827.7z M56.9,834.9h7v7h-7V834.9z M56.9,842.2h7v7h-7
		V842.2z M56.9,849.5h7v7h-7V849.5z M56.9,856.7h7v7h-7V856.7z M56.9,864h7v7h-7V864z M56.9,871.2h7v7h-7V871.2z M56.9,878.5h7v7h-7
		V878.5z M64.1,864h7v7h-7V864z M64.2,856.7h7v7h-7V856.7z M71.4,871.2h7v7h-7V871.2z M71.4,856.7h7v7h-7V856.7z M78.6,864h7v7h-7
		V864z M78.7,856.7h7v7h-7V856.7z M85.9,878.5h7v7h-7V878.5z M86,856.7h7v7h-7V856.7z M93.2,864h7v7h-7V864z M93.2,856.7h7v7h-7
		V856.7z M100.4,871.2h7v7h-7V871.2z M100.5,856.7h7v7h-7V856.7z M107.7,864h7v7h-7V864z M107.7,856.7h7v7h-7V856.7z M114.9,878.5h7
		v7h-7V878.5z M122.2,864h7v7h-7V864z M129.5,871.2h7v7h-7V871.2z M136.7,864h7v7h-7V864z M144,878.5h7v7h-7V878.5z M151.3,864h7v7
		h-7V864z M158.5,871.2h7v7h-7V871.2z M165.8,864h7v7h-7V864z M173,878.5h7v7h-7V878.5z M180.3,864h7v7h-7V864z M187.6,871.2h7v7h-7
		V871.2z M194.8,864h7v7h-7V864z M202.1,878.5h7v7h-7V878.5z M209.4,864h7v7h-7V864z M216.6,871.2h7v7h-7V871.2z M223.9,864h7v7h-7
		V864z M231.1,878.5h7v7h-7V878.5z M238.4,864h7v7h-7V864z M245.7,871.2h7v7h-7V871.2z M252.9,864h7v7h-7V864z M260.2,878.5h7v7h-7
		V878.5z M267.5,864h7v7h-7V864z M274.7,871.2h7v7h-7V871.2z M282,864h7v7h-7V864z M289.2,878.5h7v7h-7V878.5z M296.5,864h7v7h-7
		V864z M303.8,871.2h7v7h-7V871.2z M311,864h7v7h-7V864z M318.3,878.5h7v7h-7V878.5z M325.6,864h7v7h-7V864z M332.8,871.2h7v7h-7
		V871.2z M340.1,864h7v7h-7V864z M347.3,878.5h7v7h-7V878.5z M354.5,864h7v7h-7V864z M361.8,871.2h7v7h-7V871.2z M369,864h7v7h-7
		V864z M376.3,878.5h7v7h-7V878.5z M383.6,864h7v7h-7V864z M390.8,871.2h7v7h-7V871.2z M398.1,864h7v7h-7V864z M405.3,878.5h7v7h-7
		V878.5z M412.6,864h7v7h-7V864z M419.9,871.2h7v7h-7V871.2z M427.1,864h7v7h-7V864z M434.4,878.5h7v7h-7V878.5z M441.7,864h7v7h-7
		V864z M448.9,871.2h7v7h-7V871.2z M456.2,864h7v7h-7V864z M463.4,878.5h7v7h-7V878.5z M470.7,864h7v7h-7V864z M478,871.2h7v7h-7
		V871.2z M485.2,864h7v7h-7V864z M492.5,878.5h7v7h-7V878.5z M499.8,864h7v7h-7V864z M507,871.2h7v7h-7V871.2z M514.3,864h7v7h-7
		V864z M521.5,878.5h7v7h-7V878.5z M528.8,864h7v7h-7V864z M536.1,871.2h7v7h-7V871.2z M543.3,864h7v7h-7V864z M550.6,878.5h7v7h-7
		V878.5z M557.9,864h7v7h-7V864z M565.1,871.2h7v7h-7V871.2z M572.4,864h7v7h-7V864z M579.6,878.5h7v7h-7V878.5z M586.9,864h7v7h-7
		V864z M594.2,871.2h7v7h-7V871.2z M601.4,864h7v7h-7V864z M608.7,878.5h7v7h-7V878.5z M616,864h7v7h-7V864z M623.2,871.2h7v7h-7
		V871.2z M630.5,864h7v7h-7V864z M637.7,878.5h7v7h-7V878.5z M644.9,864h7v7h-7V864z M652.2,871.2h7v7h-7V871.2z M659.4,864h7v7h-7
		V864z M666.7,878.5h7v7h-7V878.5z M674,864h7v7h-7V864z M681.2,871.2h7v7h-7V871.2z M688.5,864h7v7h-7V864z M695.7,878.5h7v7h-7
		V878.5z M703,864h7v7h-7V864z M710.3,871.2h7v7h-7V871.2z M717.5,864h7v7h-7V864z M724.8,878.5h7v7h-7V878.5z M732.1,864h7v7h-7
		V864z M739.3,871.2h7v7h-7V871.2z M746.6,864h7v7h-7V864z M753.8,878.5h7v7h-7V878.5z M761.1,864h7v7h-7V864z M768.4,871.2h7v7h-7
		V871.2z M775.6,864h7v7h-7V864z M782.9,878.5h7v7h-7V878.5z M790.2,864h7v7h-7V864z M797.4,871.2h7v7h-7V871.2z M804.7,864h7v7h-7
		V864z M811.9,878.5h7v7h-7V878.5z M819.2,864h7v7h-7V864z M826.5,871.2h7v7h-7V871.2z M833.7,864h7v7h-7V864z M841,878.5h7v7h-7
		V878.5z M848.3,864h7v7h-7V864z M855.5,871.2h7v7h-7V871.2z M862.8,864h7v7h-7V864z M870,878.5h7v7h-7V878.5z M877.3,864h7v7h-7
		V864z M884.6,871.2h7v7h-7V871.2z M891.8,864h7v7h-7V864z M899.1,878.5h7v7h-7V878.5z M906.4,864h7v7h-7V864z M913.6,871.2h7v7h-7
		V871.2z M920.9,864h7v7h-7V864z M928.1,878.5h7v7h-7V878.5z M115,856.7h7v7h-7V856.7z M122.2,856.7h7v7h-7V856.7z M129.5,856.7h7v7
		h-7V856.7z M136.7,856.7h7v7h-7V856.7z M144,856.7h7v7h-7V856.7z M151.3,856.7h7v7h-7V856.7z M158.5,856.7h7v7h-7V856.7z
		 M165.8,856.7h7v7h-7V856.7z M173,856.7h7v7h-7V856.7z M180.3,856.7h7v7h-7V856.7z M187.6,856.7h7v7h-7V856.7z M194.8,856.7h7v7h-7
		V856.7z M202.1,856.7h7v7h-7V856.7z M209.3,856.7h7v7h-7V856.7z M216.6,856.7h7v7h-7V856.7z M223.9,856.7h7v7h-7V856.7z
		 M231.1,856.7h7v7h-7V856.7z M238.4,856.7h7v7h-7V856.7z M245.6,856.7h7v7h-7V856.7z M252.9,856.7h7v7h-7V856.7z M260.2,856.7h7v7
		h-7V856.7z M267.4,856.7h7v7h-7V856.7z M274.7,856.7h7v7h-7V856.7z M281.9,856.7h7v7h-7V856.7z M289.2,856.7h7v7h-7V856.7z
		 M296.5,856.7h7v7h-7V856.7z M303.7,856.7h7v7h-7V856.7z M311,856.7h7v7h-7V856.7z M318.2,856.7h7v7h-7V856.7z M325.5,856.7h7v7h-7
		V856.7z M332.8,856.7h7v7h-7V856.7z M340,856.7h7v7h-7V856.7z M347.3,856.7h7v7h-7V856.7z M354.5,856.7h7v7h-7V856.7z M361.8,856.7
		h7v7h-7V856.7z M369.1,856.7h7v7h-7V856.7z M376.3,856.7h7v7h-7V856.7z M383.6,856.7h7v7h-7V856.7z M390.8,856.7h7v7h-7V856.7z
		 M398.1,856.7h7v7h-7V856.7z M405.4,856.7h7v7h-7V856.7z M412.6,856.7h7v7h-7V856.7z M419.9,856.7h7v7h-7V856.7z M427.1,856.7h7v7
		h-7V856.7z M434.4,856.7h7v7h-7V856.7z M441.7,856.7h7v7h-7V856.7z M448.9,856.7h7v7h-7V856.7z M456.2,856.7h7v7h-7V856.7z
		 M463.4,856.7h7v7h-7V856.7z M470.7,856.7h7v7h-7V856.7z M478,856.7h7v7h-7V856.7z M485.2,856.7h7v7h-7V856.7z M492.5,856.7h7v7h-7
		V856.7z M499.7,856.7h7v7h-7V856.7z M507,856.7h7v7h-7V856.7z M514.3,856.7h7v7h-7V856.7z M521.5,856.7h7v7h-7V856.7z M528.8,856.7
		h7v7h-7V856.7z M536,856.7h7v7h-7V856.7z M543.3,856.7h7v7h-7V856.7z M550.6,856.7h7v7h-7V856.7z M557.8,856.7h7v7h-7V856.7z
		 M565.1,856.7h7v7h-7V856.7z M572.3,856.7h7v7h-7V856.7z M579.6,856.7h7v7h-7V856.7z M586.9,856.7h7v7h-7V856.7z M594.1,856.7h7v7
		h-7V856.7z M601.4,856.7h7v7h-7V856.7z M608.6,856.7h7v7h-7V856.7z M615.9,856.7h7v7h-7V856.7z M623.2,856.7h7v7h-7V856.7z
		 M630.4,856.7h7v7h-7V856.7z M637.7,856.7h7v7h-7V856.7z M644.9,856.7h7v7h-7V856.7z M652.2,856.7h7v7h-7V856.7z M659.5,856.7h7v7
		h-7V856.7z M666.7,856.7h7v7h-7V856.7z M674,856.7h7v7h-7V856.7z M681.2,856.7h7v7h-7V856.7z M688.5,856.7h7v7h-7V856.7z
		 M695.8,856.7h7v7h-7V856.7z M703,856.7h7v7h-7V856.7z M710.3,856.7h7v7h-7V856.7z M717.5,856.7h7v7h-7V856.7z M724.8,856.7h7v7h-7
		V856.7z M732.1,856.7h7v7h-7V856.7z M739.3,856.7h7v7h-7V856.7z M746.6,856.7h7v7h-7V856.7z M753.8,856.7h7v7h-7V856.7z
		 M761.1,856.7h7v7h-7V856.7z M768.4,856.7h7v7h-7V856.7z M775.6,856.7h7v7h-7V856.7z M782.9,856.7h7v7h-7V856.7z M790.1,856.7h7v7
		h-7V856.7z M797.4,856.7h7v7h-7V856.7z M804.7,856.7h7v7h-7V856.7z M811.9,856.7h7v7h-7V856.7z M819.2,856.7h7v7h-7V856.7z
		 M826.4,856.7h7v7h-7V856.7z M833.7,856.7h7v7h-7V856.7z M841,856.7h7v7h-7V856.7z M848.2,856.7h7v7h-7V856.7z M855.5,856.7h7v7h-7
		V856.7z M862.7,856.7h7v7h-7V856.7z M870,856.7h7v7h-7V856.7z M877.3,856.7h7v7h-7V856.7z M884.5,856.7h7v7h-7V856.7z M891.8,856.7
		h7v7h-7V856.7z M899,856.7h7v7h-7V856.7z M906.3,856.7h7v7h-7V856.7z M913.6,856.7h7v7h-7V856.7z M920.8,856.7h7v7h-7V856.7z
		 M928,856.7h7v7h-7V856.7z M942.3,747.4h-7v-7h7V747.4z M942.3,754.7h-7v-7h7V754.7z M942.3,762h-7v-7h7V762z M942.3,769.2h-7v-7h7
		V769.2z M942.3,776.5h-7v-7h7V776.5z M942.3,783.7h-7v-7h7V783.7z M942.3,791h-7v-7h7V791z M942.3,798.3h-7v-7h7V798.3z
		 M942.3,805.6h-7v-7h7V805.6z M942.3,812.8h-7v-7h7V812.8z M942.3,820.1h-7v-7h7V820.1z M942.3,827.3h-7v-7h7V827.3z M971.4,841.8
		h-7v-7h7V841.8z M971.4,856.4h-7v-7h7V856.4z M971.4,870.9h-7v-7h7V870.9z M971.4,885.4h-7v-7h7V885.4z M978.7,841.8h-7v-7h7V841.8
		z M978.7,856.4h-7v-7h7V856.4z M978.7,870.9h-7v-7h7V870.9z M978.7,885.4h-7v-7h7V885.4z M985.9,841.8h-7v-7h7V841.8z M985.9,856.4
		h-7v-7h7V856.4z M985.9,870.9h-7v-7h7V870.9z M985.9,885.4h-7v-7h7V885.4z M964.1,841.8h-7v-7h7V841.8z M971.4,849.1h-7v-7h7V849.1
		z M964.1,856.4h-7v-7h7V856.4z M964.1,870.9h-7v-7h7V870.9z M964.1,878.1h-7v-7h7V878.1z M964.1,885.4h-7v-7h7V885.4z M956.9,841.8
		h-7v-7h7V841.8z M956.9,856.4h-7v-7h7V856.4z M956.9,870.9h-7v-7h7V870.9z M956.9,885.4h-7v-7h7V885.4z M949.6,841.8h-7v-7h7V841.8
		z M949.6,856.4h-7v-7h7V856.4z M949.6,870.9h-7v-7h7V870.9z M949.6,885.4h-7v-7h7V885.4z M971.4,783.7h-7v-7h7V783.7z M971.4,798.3
		h-7v-7h7V798.3z M971.4,812.8h-7v-7h7V812.8z M971.4,827.3h-7v-7h7V827.3z M978.7,783.7h-7v-7h7V783.7z M978.7,798.3h-7v-7h7V798.3
		z M978.7,812.8h-7v-7h7V812.8z M978.7,827.3h-7v-7h7V827.3z M985.9,783.7h-7v-7h7V783.7z M985.9,798.3h-7v-7h7V798.3z M985.9,812.8
		h-7v-7h7V812.8z M985.9,827.3h-7v-7h7V827.3z M964.1,783.7h-7v-7h7V783.7z M971.4,791h-7v-7h7V791z M964.1,798.3h-7v-7h7V798.3z
		 M964.1,812.8h-7v-7h7V812.8z M964.1,820h-7v-7h7V820z M964.1,827.3h-7v-7h7V827.3z M956.9,783.7h-7v-7h7V783.7z M956.9,798.3h-7
		v-7h7V798.3z M956.9,812.8h-7v-7h7V812.8z M956.9,827.3h-7v-7h7V827.3z M949.6,783.7h-7v-7h7V783.7z M949.6,798.3h-7v-7h7V798.3z
		 M949.6,812.8h-7v-7h7V812.8z M949.6,827.3h-7v-7h7V827.3z M971.4,725.6h-7v-7h7V725.6z M971.4,740.2h-7v-7h7V740.2z M971.4,754.7
		h-7v-7h7V754.7z M971.4,769.2h-7v-7h7V769.2z M978.7,725.6h-7v-7h7V725.6z M978.7,740.2h-7v-7h7V740.2z M978.7,754.7h-7v-7h7V754.7
		z M978.7,769.2h-7v-7h7V769.2z M985.9,725.6h-7v-7h7V725.6z M985.9,740.2h-7v-7h7V740.2z M985.9,754.7h-7v-7h7V754.7z M985.9,769.2
		h-7v-7h7V769.2z M964.1,725.6h-7v-7h7V725.6z M971.4,732.9h-7v-7h7V732.9z M964.1,740.2h-7v-7h7V740.2z M964.1,754.7h-7v-7h7V754.7
		z M964.1,761.9h-7v-7h7V761.9z M964.1,769.2h-7v-7h7V769.2z M956.9,725.6h-7v-7h7V725.6z M956.9,740.2h-7v-7h7V740.2z M956.9,754.7
		h-7v-7h7V754.7z M956.9,769.2h-7v-7h7V769.2z M949.6,725.6h-7v-7h7V725.6z M949.6,740.2h-7v-7h7V740.2z M949.6,754.7h-7v-7h7V754.7
		z M949.6,769.2h-7v-7h7V769.2z M971.4,667.6h-7v-7h7V667.6z M971.4,682.2h-7v-7h7V682.2z M971.4,696.7h-7v-7h7V696.7z M971.4,711.2
		h-7v-7h7V711.2z M978.7,667.6h-7v-7h7V667.6z M978.7,682.2h-7v-7h7V682.2z M978.7,696.7h-7v-7h7V696.7z M978.7,711.2h-7v-7h7V711.2
		z M985.9,667.6h-7v-7h7V667.6z M985.9,682.2h-7v-7h7V682.2z M985.9,696.7h-7v-7h7V696.7z M985.9,711.2h-7v-7h7V711.2z M964.1,667.6
		h-7v-7h7V667.6z M971.4,674.9h-7v-7h7V674.9z M964.1,682.2h-7v-7h7V682.2z M964.1,696.7h-7v-7h7V696.7z M964.1,703.9h-7v-7h7V703.9
		z M964.1,711.2h-7v-7h7V711.2z M956.9,667.6h-7v-7h7V667.6z M956.9,682.2h-7v-7h7V682.2z M956.9,696.7h-7v-7h7V696.7z M956.9,711.2
		h-7v-7h7V711.2z M949.6,667.6h-7v-7h7V667.6z M949.6,682.2h-7v-7h7V682.2z M949.6,696.7h-7v-7h7V696.7z M949.6,711.2h-7v-7h7V711.2
		z M971.4,609.5h-7v-7h7V609.5z M971.4,624.1h-7v-7h7V624.1z M971.4,638.6h-7v-7h7V638.6z M971.4,653.1h-7v-7h7V653.1z M978.7,609.5
		h-7v-7h7V609.5z M978.7,624.1h-7v-7h7V624.1z M978.7,638.6h-7v-7h7V638.6z M978.7,653.1h-7v-7h7V653.1z M985.9,609.5h-7v-7h7V609.5
		z M985.9,624.1h-7v-7h7V624.1z M985.9,638.6h-7v-7h7V638.6z M985.9,653.1h-7v-7h7V653.1z M964.1,609.5h-7v-7h7V609.5z M971.4,616.8
		h-7v-7h7V616.8z M964.1,624.1h-7v-7h7V624.1z M964.1,638.6h-7v-7h7V638.6z M964.1,645.8h-7v-7h7V645.8z M964.1,653.1h-7v-7h7V653.1
		z M956.9,609.5h-7v-7h7V609.5z M956.9,624.1h-7v-7h7V624.1z M956.9,638.6h-7v-7h7V638.6z M956.9,653.1h-7v-7h7V653.1z M949.6,609.5
		h-7v-7h7V609.5z M949.6,624.1h-7v-7h7V624.1z M949.6,638.6h-7v-7h7V638.6z M949.6,653.1h-7v-7h7V653.1z M971.4,551.4h-7v-7h7V551.4
		z M971.4,566h-7v-7h7V566z M971.4,580.5h-7v-7h7V580.5z M971.4,595h-7v-7h7V595z M978.7,551.4h-7v-7h7V551.4z M978.7,566h-7v-7h7
		V566z M978.7,580.5h-7v-7h7V580.5z M978.7,595h-7v-7h7V595z M985.9,551.4h-7v-7h7V551.4z M985.9,566h-7v-7h7V566z M985.9,580.5h-7
		v-7h7V580.5z M985.9,595h-7v-7h7V595z M964.1,551.4h-7v-7h7V551.4z M971.4,558.7h-7v-7h7V558.7z M964.1,566h-7v-7h7V566z
		 M964.1,580.5h-7v-7h7V580.5z M964.1,587.7h-7v-7h7V587.7z M964.1,595h-7v-7h7V595z M956.9,551.4h-7v-7h7V551.4z M956.9,566h-7v-7
		h7V566z M956.9,580.5h-7v-7h7V580.5z M956.9,595h-7v-7h7V595z M949.6,551.4h-7v-7h7V551.4z M949.6,566h-7v-7h7V566z M949.6,580.5
		h-7v-7h7V580.5z M949.6,595h-7v-7h7V595z M971.4,493.3h-7v-7h7V493.3z M971.4,507.9h-7v-7h7V507.9z M971.4,522.4h-7v-7h7V522.4z
		 M971.4,536.9h-7v-7h7V536.9z M978.7,493.3h-7v-7h7V493.3z M978.7,507.9h-7v-7h7V507.9z M978.7,522.4h-7v-7h7V522.4z M978.7,536.9
		h-7v-7h7V536.9z M985.9,493.3h-7v-7h7V493.3z M985.9,507.9h-7v-7h7V507.9z M985.9,522.4h-7v-7h7V522.4z M985.9,536.9h-7v-7h7V536.9
		z M964.1,493.3h-7v-7h7V493.3z M971.4,500.6h-7v-7h7V500.6z M964.1,507.9h-7v-7h7V507.9z M964.1,522.4h-7v-7h7V522.4z M964.1,529.6
		h-7v-7h7V529.6z M964.1,536.9h-7v-7h7V536.9z M956.9,493.3h-7v-7h7V493.3z M956.9,507.9h-7v-7h7V507.9z M956.9,522.4h-7v-7h7V522.4
		z M956.9,536.9h-7v-7h7V536.9z M949.6,493.3h-7v-7h7V493.3z M949.6,507.9h-7v-7h7V507.9z M949.6,522.4h-7v-7h7V522.4z M949.6,536.9
		h-7v-7h7V536.9z M971.4,435.2h-7v-7h7V435.2z M971.4,449.8h-7v-7h7V449.8z M971.4,464.3h-7v-7h7V464.3z M971.4,478.8h-7v-7h7V478.8
		z M978.7,435.2h-7v-7h7V435.2z M978.7,449.8h-7v-7h7V449.8z M978.7,464.3h-7v-7h7V464.3z M978.7,478.8h-7v-7h7V478.8z M985.9,435.2
		h-7v-7h7V435.2z M985.9,449.8h-7v-7h7V449.8z M985.9,464.3h-7v-7h7V464.3z M985.9,478.8h-7v-7h7V478.8z M964.1,435.2h-7v-7h7V435.2
		z M971.4,442.5h-7v-7h7V442.5z M964.1,449.8h-7v-7h7V449.8z M964.1,464.3h-7v-7h7V464.3z M964.1,471.5h-7v-7h7V471.5z M964.1,478.8
		h-7v-7h7V478.8z M956.9,435.2h-7v-7h7V435.2z M956.9,449.8h-7v-7h7V449.8z M956.9,464.3h-7v-7h7V464.3z M956.9,478.8h-7v-7h7V478.8
		z M949.6,435.2h-7v-7h7V435.2z M949.6,449.8h-7v-7h7V449.8z M949.6,464.3h-7v-7h7V464.3z M949.6,478.8h-7v-7h7V478.8z M971.4,377.2
		h-7v-7h7V377.2z M971.4,391.8h-7v-7h7V391.8z M971.4,406.3h-7v-7h7V406.3z M971.4,420.8h-7v-7h7V420.8z M978.7,377.2h-7v-7h7V377.2
		z M978.7,391.8h-7v-7h7V391.8z M978.7,406.3h-7v-7h7V406.3z M978.7,420.8h-7v-7h7V420.8z M985.9,377.2h-7v-7h7V377.2z M985.9,391.8
		h-7v-7h7V391.8z M985.9,406.3h-7v-7h7V406.3z M985.9,420.8h-7v-7h7V420.8z M964.1,377.2h-7v-7h7V377.2z M971.4,384.5h-7v-7h7V384.5
		z M964.1,391.8h-7v-7h7V391.8z M964.1,406.3h-7v-7h7V406.3z M964.1,413.5h-7v-7h7V413.5z M964.1,420.8h-7v-7h7V420.8z M956.9,377.2
		h-7v-7h7V377.2z M956.9,391.8h-7v-7h7V391.8z M956.9,406.3h-7v-7h7V406.3z M956.9,420.8h-7v-7h7V420.8z M949.6,377.2h-7v-7h7V377.2
		z M949.6,391.8h-7v-7h7V391.8z M949.6,406.3h-7v-7h7V406.3z M949.6,420.8h-7v-7h7V420.8z M971.4,319.1h-7v-7h7V319.1z M971.4,333.7
		h-7v-7h7V333.7z M971.4,348.2h-7v-7h7V348.2z M971.4,362.7h-7v-7h7V362.7z M978.7,319.1h-7v-7h7V319.1z M978.7,333.7h-7v-7h7V333.7
		z M978.7,348.2h-7v-7h7V348.2z M978.7,362.7h-7v-7h7V362.7z M985.9,319.1h-7v-7h7V319.1z M985.9,333.7h-7v-7h7V333.7z M985.9,348.2
		h-7v-7h7V348.2z M985.9,362.7h-7v-7h7V362.7z M964.1,319.1h-7v-7h7V319.1z M971.4,326.4h-7v-7h7V326.4z M964.1,333.7h-7v-7h7V333.7
		z M964.1,348.2h-7v-7h7V348.2z M964.1,355.4h-7v-7h7V355.4z M964.1,362.7h-7v-7h7V362.7z M956.9,319.1h-7v-7h7V319.1z M956.9,333.7
		h-7v-7h7V333.7z M956.9,348.2h-7v-7h7V348.2z M956.9,362.7h-7v-7h7V362.7z M949.6,319.1h-7v-7h7V319.1z M949.6,333.7h-7v-7h7V333.7
		z M949.6,348.2h-7v-7h7V348.2z M949.6,362.7h-7v-7h7V362.7z M971.4,261h-7v-7h7V261z M971.4,275.6h-7v-7h7V275.6z M971.4,290.1h-7
		v-7h7V290.1z M971.4,304.6h-7v-7h7V304.6z M978.7,261h-7v-7h7V261z M978.7,275.6h-7v-7h7V275.6z M978.7,290.1h-7v-7h7V290.1z
		 M978.7,304.6h-7v-7h7V304.6z M985.9,261h-7v-7h7V261z M985.9,275.6h-7v-7h7V275.6z M985.9,290.1h-7v-7h7V290.1z M985.9,304.6h-7
		v-7h7V304.6z M964.1,261h-7v-7h7V261z M971.4,268.3h-7v-7h7V268.3z M964.1,275.6h-7v-7h7V275.6z M964.1,290.1h-7v-7h7V290.1z
		 M964.1,297.3h-7v-7h7V297.3z M964.1,304.6h-7v-7h7V304.6z M956.9,261h-7v-7h7V261z M956.9,275.6h-7v-7h7V275.6z M956.9,290.1h-7
		v-7h7V290.1z M956.9,304.6h-7v-7h7V304.6z M949.6,261h-7v-7h7V261z M949.6,275.6h-7v-7h7V275.6z M949.6,290.1h-7v-7h7V290.1z
		 M949.6,304.6h-7v-7h7V304.6z M971.4,202.9h-7v-7h7V202.9z M971.4,217.5h-7v-7h7V217.5z M971.4,232h-7v-7h7V232z M971.4,246.5h-7
		v-7h7V246.5z M978.7,202.9h-7v-7h7V202.9z M978.7,217.5h-7v-7h7V217.5z M978.7,232h-7v-7h7V232z M978.7,246.5h-7v-7h7V246.5z
		 M985.9,202.9h-7v-7h7V202.9z M985.9,217.5h-7v-7h7V217.5z M985.9,232h-7v-7h7V232z M985.9,246.5h-7v-7h7V246.5z M964.1,202.9h-7
		v-7h7V202.9z M971.4,210.2h-7v-7h7V210.2z M964.1,217.5h-7v-7h7V217.5z M964.1,232h-7v-7h7V232z M964.1,239.2h-7v-7h7V239.2z
		 M964.1,246.5h-7v-7h7V246.5z M956.9,202.9h-7v-7h7V202.9z M956.9,217.5h-7v-7h7V217.5z M956.9,232h-7v-7h7V232z M956.9,246.5h-7
		v-7h7V246.5z M949.6,202.9h-7v-7h7V202.9z M949.6,217.5h-7v-7h7V217.5z M949.6,232h-7v-7h7V232z M949.6,246.5h-7v-7h7V246.5z
		 M971.4,144.8h-7v-7h7V144.8z M971.4,159.4h-7v-7h7V159.4z M971.4,173.9h-7v-7h7V173.9z M971.4,188.4h-7v-7h7V188.4z M978.7,144.8
		h-7v-7h7V144.8z M978.7,159.4h-7v-7h7V159.4z M978.7,173.9h-7v-7h7V173.9z M978.7,188.4h-7v-7h7V188.4z M985.9,144.8h-7v-7h7V144.8
		z M985.9,159.4h-7v-7h7V159.4z M985.9,173.9h-7v-7h7V173.9z M985.9,188.4h-7v-7h7V188.4z M964.1,144.8h-7v-7h7V144.8z M971.4,152.1
		h-7v-7h7V152.1z M964.1,159.4h-7v-7h7V159.4z M964.1,173.9h-7v-7h7V173.9z M964.1,181.1h-7v-7h7V181.1z M964.1,188.4h-7v-7h7V188.4
		z M956.9,144.8h-7v-7h7V144.8z M956.9,159.4h-7v-7h7V159.4z M956.9,173.9h-7v-7h7V173.9z M956.9,188.4h-7v-7h7V188.4z M949.6,144.8
		h-7v-7h7V144.8z M949.6,159.4h-7v-7h7V159.4z M949.6,173.9h-7v-7h7V173.9z M949.6,188.4h-7v-7h7V188.4z M971.4,86.8h-7v-7h7V86.8z
		 M971.4,101.4h-7v-7h7V101.4z M971.4,115.9h-7v-7h7V115.9z M971.4,130.4h-7v-7h7V130.4z M978.7,86.8h-7v-7h7V86.8z M978.7,101.4h-7
		v-7h7V101.4z M978.7,115.9h-7v-7h7V115.9z M978.7,130.4h-7v-7h7V130.4z M985.9,86.8h-7v-7h7V86.8z M985.9,101.4h-7v-7h7V101.4z
		 M985.9,115.9h-7v-7h7V115.9z M985.9,130.4h-7v-7h7V130.4z M964.1,86.8h-7v-7h7V86.8z M971.4,94.1h-7v-7h7V94.1z M964.1,101.4h-7
		v-7h7V101.4z M964.1,115.9h-7v-7h7V115.9z M964.1,123.1h-7v-7h7V123.1z M964.1,130.4h-7v-7h7V130.4z M956.9,86.8h-7v-7h7V86.8z
		 M956.9,101.4h-7v-7h7V101.4z M956.9,115.9h-7v-7h7V115.9z M956.9,130.4h-7v-7h7V130.4z M949.6,86.8h-7v-7h7V86.8z M949.6,101.4h-7
		v-7h7V101.4z M949.6,115.9h-7v-7h7V115.9z M949.6,130.4h-7v-7h7V130.4z M971.4,28.7h-7v-7h7V28.7z M971.4,43.3h-7v-7h7V43.3z
		 M971.4,57.8h-7v-7h7V57.8z M971.4,72.3h-7v-7h7V72.3z M978.7,28.7h-7v-7h7V28.7z M978.7,43.3h-7v-7h7V43.3z M978.7,57.8h-7v-7h7
		V57.8z M978.7,72.3h-7v-7h7V72.3z M985.9,28.7h-7v-7h7V28.7z M985.9,43.3h-7v-7h7V43.3z M985.9,57.8h-7v-7h7V57.8z M985.9,72.3h-7
		v-7h7V72.3z M964.1,28.7h-7v-7h7V28.7z M971.4,36h-7v-7h7V36z M964.1,43.3h-7v-7h7V43.3z M964.1,57.8h-7v-7h7V57.8z M964.1,65h-7
		v-7h7V65z M964.1,72.3h-7v-7h7V72.3z M956.9,28.7h-7v-7h7V28.7z M956.9,43.3h-7v-7h7V43.3z M956.9,57.8h-7v-7h7V57.8z M956.9,72.3
		h-7v-7h7V72.3z M949.6,28.7h-7v-7h7V28.7z M949.6,43.3h-7v-7h7V43.3z M949.6,57.8h-7v-7h7V57.8z M949.6,72.3h-7v-7h7V72.3z
		 M971.4,14.2h-7v-7h7V14.2z M978.7,14.2h-7v-7h7V14.2z M985.9,14.2h-7v-7h7V14.2z M964.1,14.2h-7v-7h7V14.2z M956.9,14.2h-7v-7h7
		V14.2z M949.6,14.2h-7v-7h7V14.2z M942.3,834.6h-7v-7h7V834.6z M942.3,841.8h-7v-7h7V841.8z M942.3,849.1h-7v-7h7V849.1z
		 M942.3,856.4h-7v-7h7V856.4z M942.3,863.6h-7v-7h7V863.6z M942.3,870.9h-7v-7h7V870.9z M942.3,878.1h-7v-7h7V878.1z M942.3,885.4
		h-7v-7h7V885.4z"/>
</g>
</svg>
