<?xml version="1.0" encoding="utf-8"?>
<!-- Generator: Adobe Illustrator 27.3.1, SVG Export Plug-In . SVG Version: 6.00 Build 0)  -->
<svg version="1.1" id="Слой_1" xmlns="http://www.w3.org/2000/svg" xmlns:xlink="http://www.w3.org/1999/xlink" x="0px" y="0px"
	 viewBox="0 0 871 377.2" style="enable-background:new 0 0 871 377.2;" xml:space="preserve">
<style type="text/css">
	.st0{fill:#1E0E01;}
</style>
<path class="st0" d="M0,14.5h7v7H0V14.5z M0,29h7v7H0V29z M7.3,14.5h7v7h-7V14.5z M7.3,29h7v7h-7V29z M14.6,14.5h7v7h-7V14.5z
	 M14.6,29h7v7h-7V29z M21.8,14.5h7v7h-7V14.5z M21.8,29h7v7h-7V29z M29.1,14.5h7v7h-7V14.5z M29.1,29h7v7h-7V29z M36.3,14.5h7v7h-7
	V14.5z M36.3,29h7v7h-7V29z M43.6,14.5h7v7h-7V14.5z M43.6,29h7v7h-7V29z M50.9,14.5h7v7h-7V14.5z M50.9,29h7v7h-7V29z M58.1,14.5h7
	v7h-7V14.5z M58.1,29h7v7h-7V29z M65.4,14.5h7v7h-7V14.5z M65.4,29h7v7h-7V29z M72.6,14.5h7v7h-7V14.5z M72.6,29h7v7h-7V29z
	 M79.9,14.5h7v7h-7V14.5z M79.9,29h7v7h-7V29z M87.2,14.5h7v7h-7V14.5z M87.2,29h7v7h-7V29z M94.4,14.5h7v7h-7V14.5z M94.4,29h7v7
	h-7V29z M101.7,14.5h7v7h-7V14.5z M101.7,29h7v7h-7V29z M108.9,14.5h7v7h-7V14.5z M108.9,29h7v7h-7V29z M116.2,14.5h7v7h-7V14.5z
	 M116.2,29h7v7h-7V29z M123.5,14.5h7v7h-7V14.5z M123.5,29h7v7h-7V29z M130.7,14.5h7v7h-7V14.5z M130.7,29h7v7h-7V29z M138,14.5h7v7
	h-7V14.5z M138,29h7v7h-7V29z M145.2,14.5h7v7h-7V14.5z M145.2,29h7v7h-7V29z M152.5,14.5h7v7h-7V14.5z M152.5,29h7v7h-7V29z
	 M159.8,14.5h7v7h-7V14.5z M159.8,29h7v7h-7V29z M167,14.5h7v7h-7V14.5z M167,29h7v7h-7V29z M174.3,14.5h7v7h-7V14.5z M174.3,29h7v7
	h-7V29z M181.5,14.5h7v7h-7V14.5z M181.5,29h7v7h-7V29z M188.8,14.5h7v7h-7V14.5z M188.8,29h7v7h-7V29z M196.1,14.5h7v7h-7V14.5z
	 M196.1,29h7v7h-7V29z M203.3,14.5h7v7h-7V14.5z M203.3,29h7v7h-7V29z M210.6,14.5h7v7h-7V14.5z M210.6,29h7v7h-7V29z M217.8,14.5h7
	v7h-7V14.5z M217.8,29h7v7h-7V29z M225.1,14.5h7v7h-7V14.5z M225.1,29h7v7h-7V29z M232.4,14.5h7v7h-7V14.5z M232.4,29h7v7h-7V29z
	 M239.6,14.5h7v7h-7V14.5z M239.6,29h7v7h-7V29z M246.9,14.5h7v7h-7V14.5z M246.9,29h7v7h-7V29z M254.1,14.5h7v7h-7V14.5z M254.1,29
	h7v7h-7V29z M261.4,14.5h7v7h-7V14.5z M261.4,29h7v7h-7V29z M268.7,14.5h7v7h-7V14.5z M268.7,29h7v7h-7V29z M275.9,14.5h7v7h-7V14.5
	z M275.9,29h7v7h-7V29z M283.2,14.5h7v7h-7V14.5z M283.2,29h7v7h-7V29z M290.4,14.5h7v7h-7V14.5z M290.4,29h7v7h-7V29z M297.7,14.5
	h7v7h-7V14.5z M297.7,29h7v7h-7V29z M305,14.5h7v7h-7V14.5z M305,29h7v7h-7V29z M312.2,14.5h7v7h-7V14.5z M312.2,29h7v7h-7V29z
	 M319.5,14.5h7v7h-7V14.5z M319.5,29h7v7h-7V29z M326.7,14.5h7v7h-7V14.5z M326.7,29h7v7h-7V29z M334,14.5h7v7h-7V14.5z M334,29h7v7
	h-7V29z M341.3,14.5h7v7h-7V14.5z M341.3,29h7v7h-7V29z M348.5,14.5h7v7h-7V14.5z M348.5,29h7v7h-7V29z M355.8,14.5h7v7h-7V14.5z
	 M355.8,29h7v7h-7V29z M363,14.5h7v7h-7V14.5z M363,29h7v7h-7V29z M370.3,14.5h7v7h-7V14.5z M370.3,29h7v7h-7V29z M377.6,14.5h7v7
	h-7V14.5z M377.6,29h7v7h-7V29z M384.8,14.5h7v7h-7V14.5z M384.8,29h7v7h-7V29z M392.1,14.5h7v7h-7V14.5z M392.1,29h7v7h-7V29z
	 M399.3,14.5h7v7h-7V14.5z M399.3,29h7v7h-7V29z M406.6,14.5h7v7h-7V14.5z M406.6,29h7v7h-7V29z M413.9,14.5h7v7h-7V14.5z M413.9,29
	h7v7h-7V29z M421.1,14.5h7v7h-7V14.5z M421.1,29h7v7h-7V29z M428.4,14.5h7v7h-7V14.5z M428.4,29h7v7h-7V29z M435.6,14.5h7v7h-7V14.5
	z M435.6,29h7v7h-7V29z M442.9,14.5h7v7h-7V14.5z M442.9,29h7v7h-7V29z M450.2,14.5h7v7h-7V14.5z M450.2,29h7v7h-7V29z M457.4,14.5
	h7v7h-7V14.5z M457.4,29h7v7h-7V29z M464.7,14.5h7v7h-7V14.5z M464.7,29h7v7h-7V29z M471.9,14.5h7v7h-7V14.5z M471.9,29h7v7h-7V29z
	 M479.2,14.5h7v7h-7V14.5z M479.2,29h7v7h-7V29z M486.5,14.5h7v7h-7V14.5z M486.5,29h7v7h-7V29z M493.7,14.5h7v7h-7V14.5z M493.7,29
	h7v7h-7V29z M501,14.5h7v7h-7V14.5z M501,29h7v7h-7V29z M508.2,14.5h7v7h-7V14.5z M508.2,29h7v7h-7V29z M515.5,14.5h7v7h-7V14.5z
	 M515.5,29h7v7h-7V29z M522.8,14.5h7v7h-7V14.5z M522.8,29h7v7h-7V29z M530,14.5h7v7h-7V14.5z M530,29h7v7h-7V29z M537.3,14.5h7v7
	h-7V14.5z M537.3,29h7v7h-7V29z M544.5,14.5h7v7h-7V14.5z M544.5,29h7v7h-7V29z M551.8,14.5h7v7h-7V14.5z M551.8,29h7v7h-7V29z
	 M559.1,14.5h7v7h-7V14.5z M559.1,29h7v7h-7V29z M566.3,14.5h7v7h-7V14.5z M566.3,29h7v7h-7V29z M573.6,14.5h7v7h-7V14.5z M573.6,29
	h7v7h-7V29z M580.8,14.5h7v7h-7V14.5z M580.8,29h7v7h-7V29z M588.1,14.5h7v7h-7V14.5z M588.1,29h7v7h-7V29z M595.4,14.5h7v7h-7V14.5
	z M595.4,29h7v7h-7V29z M602.6,14.5h7v7h-7V14.5z M602.6,29h7v7h-7V29z M609.9,14.5h7v7h-7V14.5z M609.9,29h7v7h-7V29z M617.1,14.5
	h7v7h-7V14.5z M617.1,29h7v7h-7V29z M624.4,14.5h7v7h-7V14.5z M624.4,29h7v7h-7V29z M631.7,14.5h7v7h-7V14.5z M631.7,29h7v7h-7V29z
	 M638.9,14.5h7v7h-7V14.5z M638.9,29h7v7h-7V29z M646.2,14.5h7v7h-7V14.5z M646.2,29h7v7h-7V29z M653.4,14.5h7v7h-7V14.5z M653.4,29
	h7v7h-7V29z M660.7,14.5h7v7h-7V14.5z M660.7,29h7v7h-7V29z M660.7,43.6h7v7h-7V43.6z M660.7,58.1h7v7h-7V58.1z M660.7,72.6h7v7h-7
	V72.6z M660.7,87.1h7v7h-7V87.1z M660.7,101.6h7v7h-7V101.6z M668.1,174.2h7v7h-7V174.2z M660.7,188.8h7v7h-7V188.8z M660.7,210.5h7
	v7h-7V210.5z M660.7,232.3h7v7h-7V232.3z M660.7,268.6h7v7h-7V268.6z M660.7,283.1h7v7h-7V283.1z M668,14.5h7v7h-7V14.5z M668,29h7
	v7h-7V29z M668,36.3h7v7h-7V36.3z M668,43.6h7v7h-7V43.6z M668,50.8h7v7h-7V50.8z M668,65.3h7v7h-7V65.3z M668,94.4h7v7h-7V94.4z
	 M675.2,14.5h7v7h-7V14.5z M675.2,29h7v7h-7V29z M675.2,43.6h7v7h-7V43.6z M675.2,58.1h7v7h-7V58.1z M675.2,65.3h7v7h-7V65.3z
	 M675.2,72.6h7v7h-7V72.6z M675.2,116.1h7v7h-7V116.1z M675.2,130.7h7v7h-7V130.7z M675.2,145.2h7v7h-7V145.2z M675.2,159.7h7v7h-7
	V159.7z M682.6,174.2h7v7h-7V174.2z M675.2,188.8h7v7h-7V188.8z M675.2,225h7v7h-7V225z M675.2,261.4h7v7h-7V261.4z M675.2,283.1h7
	v7h-7V283.1z M682.5,14.5h7v7h-7V14.5z M682.5,29h7v7h-7V29z M682.5,36.3h7v7h-7V36.3z M682.5,65.3h7v7h-7V65.3z M682.5,94.4h7v7h-7
	V94.4z M689.7,14.5h7v7h-7V14.5z M689.7,29h7v7h-7V29z M689.7,43.6h7v7h-7V43.6z M689.7,58.1h7v7h-7V58.1z M689.7,72.6h7v7h-7V72.6z
	 M689.7,87.1h7v7h-7V87.1z M689.7,130.7h7v7h-7V130.7z M689.7,145.2h7v7h-7V145.2z M689.7,159.7h7v7h-7V159.7z M697.1,174.2h7v7h-7
	V174.2z M689.7,188.8h7v7h-7V188.8z M689.7,217.8h7v7h-7V217.8z M689.7,246.8h7v7h-7V246.8z M689.7,268.6h7v7h-7V268.6z
	 M689.7,283.1h7v7h-7V283.1z M697,14.5h7v7h-7V14.5z M697,29h7v7h-7V29z M697,36.3h7v7h-7V36.3z M697,43.6h7v7h-7V43.6z M697,50.8h7
	v7h-7V50.8z M697,65.3h7v7h-7V65.3z M697,79.9h7v7h-7V79.9z M697,94.4h7v7h-7V94.4z M704.3,14.5h7v7h-7V14.5z M704.3,29h7v7h-7V29z
	 M704.3,43.6h7v7h-7V43.6z M704.3,58.1h7v7h-7V58.1z M704.3,72.6h7v7h-7V72.6z M704.3,87.1h7v7h-7V87.1z M704.3,116.1h7v7h-7V116.1z
	 M704.3,130.7h7v7h-7V130.7z M704.3,145.2h7v7h-7V145.2z M704.3,159.7h7v7h-7V159.7z M704.3,196h7v7h-7V196z M704.3,225h7v7h-7V225z
	 M704.3,261.4h7v7h-7V261.4z M704.3,283.1h7v7h-7V283.1z M711.5,14.5h7v7h-7V14.5z M711.5,29h7v7h-7V29z M711.5,36.3h7v7h-7V36.3z
	 M711.5,79.9h7v7h-7V79.9z M718.8,14.5h7v7h-7V14.5z M718.8,29h7v7h-7V29z M718.8,43.6h7v7h-7V43.6z M718.8,58.1h7v7h-7V58.1z
	 M718.8,72.6h7v7h-7V72.6z M718.8,87.1h7v7h-7V87.1z M718.8,101.6h7v7h-7V101.6z M718.8,116.1h7v7h-7V116.1z M718.8,130.7h7v7h-7
	V130.7z M718.8,145.2h7v7h-7V145.2z M726.2,174.2h7v7h-7V174.2z M718.8,188.8h7v7h-7V188.8z M718.8,225h7v7h-7V225z M718.8,275.9h7
	v7h-7V275.9z M726,14.5h7v7h-7V14.5z M726,29h7v7h-7V29z M726,36.3h7v7h-7V36.3z M726,43.6h7v7h-7V43.6z M726,50.8h7v7h-7V50.8z
	 M726,65.3h7v7h-7V65.3z M726,94.4h7v7h-7V94.4z M726,137.9h7v7h-7V137.9z M733.3,14.5h7v7h-7V14.5z M733.3,29h7v7h-7V29z
	 M733.3,43.6h7v7h-7V43.6z M733.3,58.1h7v7h-7V58.1z M733.3,72.6h7v7h-7V72.6z M733.3,87.1h7v7h-7V87.1z M733.3,101.6h7v7h-7V101.6z
	 M733.3,116.1h7v7h-7V116.1z M733.3,130.7h7v7h-7V130.7z M733.3,145.2h7v7h-7V145.2z M733.3,159.7h7v7h-7V159.7z M733.3,188.8h7v7
	h-7V188.8z M733.3,217.8h7v7h-7V217.8z M733.3,246.8h7v7h-7V246.8z M733.3,283.1h7v7h-7V283.1z M740.6,14.5h7v7h-7V14.5z M740.6,29
	h7v7h-7V29z M740.6,36.3h7v7h-7V36.3z M740.6,65.3h7v7h-7V65.3z M740.6,94.4h7v7h-7V94.4z M748,174.2h7v7h-7V174.2z M747.8,14.5h7v7
	h-7V14.5z M747.8,29h7v7h-7V29z M747.8,43.6h7v7h-7V43.6z M747.8,58.1h7v7h-7V58.1z M747.8,72.6h7v7h-7V72.6z M747.8,87.1h7v7h-7
	V87.1z M747.8,101.6h7v7h-7V101.6z M747.8,116.1h7v7h-7V116.1z M747.8,130.7h7v7h-7V130.7z M747.8,145.2h7v7h-7V145.2z M747.8,159.7
	h7v7h-7V159.7z M747.8,188.8h7v7h-7V188.8z M747.8,217.8h7v7h-7V217.8z M747.8,246.8h7v7h-7V246.8z M747.8,275.9h7v7h-7V275.9z
	 M755.1,14.5h7v7h-7V14.5z M755.1,29h7v7h-7V29z M755.1,36.3h7v7h-7V36.3z M755.1,43.6h7v7h-7V43.6z M755.1,50.8h7v7h-7V50.8z
	 M755.1,65.3h7v7h-7V65.3z M755.1,79.9h7v7h-7V79.9z M755.1,94.4h7v7h-7V94.4z M762.3,14.5h7v7h-7V14.5z M762.3,29h7v7h-7V29z
	 M762.3,43.6h7v7h-7V43.6z M762.3,58.1h7v7h-7V58.1z M762.3,72.6h7v7h-7V72.6z M762.3,87.1h7v7h-7V87.1z M762.3,101.6h7v7h-7V101.6z
	 M762.3,116.1h7v7h-7V116.1z M762.3,130.7h7v7h-7V130.7z M762.3,145.2h7v7h-7V145.2z M762.3,159.7h7v7h-7V159.7z M769.7,174.2h7v7
	h-7V174.2z M762.3,188.8h7v7h-7V188.8z M762.3,225h7v7h-7V225z M762.3,261.4h7v7h-7V261.4z M762.3,283.1h7v7h-7V283.1z M769.6,14.5
	h7v7h-7V14.5z M769.6,29h7v7h-7V29z M769.6,36.3h7v7h-7V36.3z M769.6,94.4h7v7h-7V94.4z M776.9,14.5h7v7h-7V14.5z M776.9,29h7v7h-7
	V29z M776.9,43.6h7v7h-7V43.6z M776.9,58.1h7v7h-7V58.1z M776.9,72.6h7v7h-7V72.6z M776.9,87.1h7v7h-7V87.1z M776.9,101.6h7v7h-7
	V101.6z M776.9,116.1h7v7h-7V116.1z M776.9,130.7h7v7h-7V130.7z M776.9,145.2h7v7h-7V145.2z M776.9,159.7h7v7h-7V159.7z
	 M784.3,174.2h7v7h-7V174.2z M776.9,188.8h7v7h-7V188.8z M776.9,217.8h7v7h-7V217.8z M776.9,246.8h7v7h-7V246.8z M776.9,275.9h7v7
	h-7V275.9z M784.1,14.5h7v7h-7V14.5z M784.1,29h7v7h-7V29z M784.1,50.8h7v7h-7V50.8z M784.1,65.3h7v7h-7V65.3z M791.5,174.2h7v7h-7
	V174.2z M791.4,14.5h7v7h-7V14.5z M791.4,29h7v7h-7V29z M791.4,43.6h7v7h-7V43.6z M791.4,58.1h7v7h-7V58.1z M791.4,72.6h7v7h-7V72.6
	z M791.4,87.1h7v7h-7V87.1z M791.4,101.6h7v7h-7V101.6z M791.4,116.1h7v7h-7V116.1z M791.4,130.7h7v7h-7V130.7z M791.4,145.2h7v7h-7
	V145.2z M791.4,159.7h7v7h-7V159.7z M791.4,188.8h7v7h-7V188.8z M791.4,232.3h7v7h-7V232.3z M791.4,268.6h7v7h-7V268.6z M798.6,14.5
	h7v7h-7V14.5z M798.6,29h7v7h-7V29z M798.6,36.3h7v7h-7V36.3z M798.6,94.4h7v7h-7V94.4z M805.9,14.5h7v7h-7V14.5z M805.9,29h7v7h-7
	V29z M805.9,43.6h7v7h-7V43.6z M805.9,58.1h7v7h-7V58.1z M805.9,72.6h7v7h-7V72.6z M805.9,87.1h7v7h-7V87.1z M805.9,101.6h7v7h-7
	V101.6z M805.9,116.1h7v7h-7V116.1z M805.9,130.7h7v7h-7V130.7z M805.9,145.2h7v7h-7V145.2z M805.9,159.7h7v7h-7V159.7z M805.9,196
	h7v7h-7V196z M805.9,225h7v7h-7V225z M805.9,254.1h7v7h-7V254.1z M805.9,283.1h7v7h-7V283.1z M813.2,14.5h7v7h-7V14.5z M813.2,0h7v7
	h-7V0z M813.2,29h7v7h-7V29z M813.2,36.3h7v7h-7V36.3z M813.2,50.8h7v7h-7V50.8z M813.2,58.1h7v7h-7V58.1z M813.2,65.3h7v7h-7V65.3z
	 M813.2,79.9h7v7h-7V79.9z M813.2,174.2h7v7h-7V174.2z M820.4,7.2h7v7h-7V7.2z M820.4,14.5h7v7h-7V14.5z M820.4,29h7v7h-7V29z
	 M820.4,43.6h7v7h-7V43.6z M820.4,58.1h7v7h-7V58.1z M820.4,72.6h7v7h-7V72.6z M820.4,87.1h7v7h-7V87.1z M820.4,101.6h7v7h-7V101.6z
	 M820.4,116.1h7v7h-7V116.1z M820.4,188.8h7v7h-7V188.8z M820.4,217.8h7v7h-7V217.8z M820.4,268.6h7v7h-7V268.6z M827.7,0h7v7h-7V0z
	 M827.7,14.5h7v7h-7V14.5z M827.7,29h7v7h-7V29z M827.7,36.3h7v7h-7V36.3z M827.7,65.3h7v7h-7V65.3z M827.7,94.4h7v7h-7V94.4z
	 M827.7,145.2h7v7h-7V145.2z M827.7,159.7h7v7h-7V159.7z M827.7,174.2h7v7h-7V174.2z M834.9,7.2h7v7h-7V7.2z M834.9,14.5h7v7h-7
	V14.5z M834.9,29h7v7h-7V29z M834.9,43.6h7v7h-7V43.6z M834.9,58.1h7v7h-7V58.1z M834.9,72.6h7v7h-7V72.6z M834.9,87.1h7v7h-7V87.1z
	 M834.9,101.6h7v7h-7V101.6z M834.9,116.1h7v7h-7V116.1z M834.9,130.7h7v7h-7V130.7z M834.9,152.4h7v7h-7V152.4z M834.9,203.3h7v7
	h-7V203.3z M834.9,239.6h7v7h-7V239.6z M834.9,254.1h7v7h-7V254.1z M834.9,275.9h7v7h-7V275.9z M842.2,0h7v7h-7V0z M842.2,14.5h7v7
	h-7V14.5z M842.2,29h7v7h-7V29z M842.2,50.8h7v7h-7V50.8z M842.2,65.3h7v7h-7V65.3z M842.2,174.2h7v7h-7V174.2z M849.5,7.2h7v7h-7
	V7.2z M849.5,14.5h7v7h-7V14.5z M849.5,29h7v7h-7V29z M849.5,43.6h7v7h-7V43.6z M849.5,58.1h7v7h-7V58.1z M849.5,72.6h7v7h-7V72.6z
	 M849.5,87.1h7v7h-7V87.1z M849.5,101.6h7v7h-7V101.6z M849.5,116.1h7v7h-7V116.1z M849.5,130.7h7v7h-7V130.7z M849.5,145.2h7v7h-7
	V145.2z M849.5,159.7h7v7h-7V159.7z M849.5,188.8h7v7h-7V188.8z M849.5,217.8h7v7h-7V217.8z M849.5,246.8h7v7h-7V246.8z
	 M849.5,275.9h7v7h-7V275.9z M856.7,0h7v7h-7V0z M856.7,14.5h7v7h-7V14.5z M856.7,29h7v7h-7V29z M856.7,36.3h7v7h-7V36.3z
	 M856.7,94.4h7v7h-7V94.4z M864,7.2h7v7h-7V7.2z M755.1,0h7v7h-7V0z M762.3,7.2h7v7h-7V7.2z M769.6,0h7v7h-7V0z M776.8,7.2h7v7h-7
	V7.2z M784.1,0h7v7h-7V0z M791.4,7.2h7v7h-7V7.2z M798.6,0h7v7h-7V0z M805.9,7.2h7v7h-7V7.2z M697.1,0h7v7h-7V0z M704.3,7.2h7v7h-7
	V7.2z M711.6,0h7v7h-7V0z M718.8,7.2h7v7h-7V7.2z M726.1,0h7v7h-7V0z M733.4,7.2h7v7h-7V7.2z M740.6,0h7v7h-7V0z M747.9,7.2h7v7h-7
	V7.2z M639,0h7v7h-7V0z M646.2,7.2h7v7h-7V7.2z M653.5,0h7v7h-7V0z M660.7,7.2h7v7h-7V7.2z M668,0h7v7h-7V0z M675.3,7.2h7v7h-7V7.2z
	 M682.5,0h7v7h-7V0z M689.8,7.2h7v7h-7V7.2z M580.9,0h7v7h-7V0z M588.1,7.2h7v7h-7V7.2z M595.4,0h7v7h-7V0z M602.6,7.2h7v7h-7V7.2z
	 M609.9,0h7v7h-7V0z M617.2,7.2h7v7h-7V7.2z M624.4,0h7v7h-7V0z M631.7,7.2h7v7h-7V7.2z M522.8,0h7v7h-7V0z M530,7.2h7v7h-7V7.2z
	 M537.3,0h7v7h-7V0z M544.5,7.2h7v7h-7V7.2z M551.8,0h7v7h-7V0z M559.1,7.2h7v7h-7V7.2z M566.3,0h7v7h-7V0z M573.6,7.2h7v7h-7V7.2z
	 M464.7,0h7v7h-7V0z M471.9,7.2h7v7h-7V7.2z M479.2,0h7v7h-7V0z M486.4,7.2h7v7h-7V7.2z M493.7,0h7v7h-7V0z M501,7.2h7v7h-7V7.2z
	 M508.2,0h7v7h-7V0z M515.5,7.2h7v7h-7V7.2z M406.7,0h7v7h-7V0z M413.9,7.2h7v7h-7V7.2z M421.2,0h7v7h-7V0z M428.4,7.2h7v7h-7V7.2z
	 M435.7,0h7v7h-7V0z M443,7.2h7v7h-7L443,7.2L443,7.2z M450.2,0h7v7h-7V0z M457.5,7.2h7v7h-7V7.2z M348.6,0h7v7h-7V0z M355.8,7.2h7
	v7h-7V7.2z M363.1,0h7v7h-7V0z M370.3,7.2h7v7h-7V7.2z M377.6,0h7v7h-7V0z M384.9,7.2h7v7h-7V7.2z M392.1,0h7v7h-7V0z M399.4,7.2h7
	v7h-7V7.2z M290.5,0h7v7h-7V0z M297.7,7.2h7v7h-7V7.2z M305,0h7v7h-7V0z M312.2,7.2h7v7h-7V7.2z M319.5,0h7v7h-7V0z M326.8,7.2h7v7
	h-7V7.2z M334,0h7v7h-7V0z M341.3,7.2h7v7h-7V7.2z M232.4,0h7v7h-7V0z M239.6,7.2h7v7h-7V7.2z M246.9,0h7v7h-7V0z M254.1,7.2h7v7h-7
	V7.2z M261.4,0h7v7h-7V0z M268.7,7.2h7v7h-7V7.2z M275.9,0h7v7h-7V0z M283.2,7.2h7v7h-7V7.2z M174.3,0h7v7h-7V0z M181.5,7.2h7v7h-7
	V7.2z M188.8,0h7v7h-7V0z M196,7.2h7v7h-7V7.2z M203.3,0h7v7h-7V0z M210.6,7.2h7v7h-7V7.2z M217.8,0h7v7h-7V0z M225.1,7.2h7v7h-7
	V7.2z M116.3,0h7v7h-7V0z M123.5,7.2h7v7h-7V7.2z M130.8,0h7v7h-7V0z M138,7.2h7v7h-7V7.2z M145.3,0h7v7h-7V0z M152.6,7.2h7v7h-7
	V7.2z M159.8,0h7v7h-7V0z M167.1,7.2h7v7h-7V7.2z M58.2,0h7v7h-7V0z M65.4,7.2h7v7h-7V7.2z M72.7,0h7v7h-7V0z M79.9,7.2h7v7h-7V7.2z
	 M87.2,0h7v7h-7V0z M94.5,7.2h7v7h-7V7.2z M101.7,0h7v7h-7V0z M109,7.2h7v7h-7V7.2z M0.1,0h7v7h-7V0z M7.3,7.2h7v7h-7V7.2z M14.6,0
	h7v7h-7V0z M21.8,7.2h7v7h-7V7.2z M29.1,0h7v7h-7V0z M36.4,7.2h7v7h-7V7.2z M43.6,0h7v7h-7V0z M50.9,7.2h7v7h-7V7.2z M864,14.5h7v7
	h-7V14.5z M864,29h7v7h-7V29z M864,43.6h7v7h-7V43.6z M864,58.1h7v7h-7V58.1z M864,72.6h7v7h-7V72.6z M864,87.1h7v7h-7V87.1z
	 M864,101.6h7v7h-7V101.6z M864,116.1h7v7h-7V116.1z M864,130.7h7v7h-7V130.7z M864,145.2h7v7h-7V145.2z M864,159.7h7v7h-7V159.7z
	 M864,203.3h7v7h-7V203.3z M864,232.3h7v7h-7V232.3z M864,261.4h7v7h-7V261.4z M450.2,43.6h7v7h-7V43.6z M450.2,58.1h7v7h-7V58.1z
	 M450.2,72.6h7v7h-7V72.6z M450.2,87.1h7v7h-7V87.1z M450.2,101.6h7v7h-7V101.6z M457.6,174.2h7v7h-7V174.2z M450.2,188.8h7v7h-7
	V188.8z M450.2,210.5h7v7h-7V210.5z M450.2,232.3h7v7h-7V232.3z M450.2,268.6h7v7h-7V268.6z M450.2,283.1h7v7h-7V283.1z M457.5,36.3
	h7v7h-7V36.3z M457.5,43.6h7v7h-7V43.6z M457.5,50.8h7v7h-7V50.8z M457.5,65.3h7v7h-7V65.3z M457.5,94.4h7v7h-7V94.4z M464.7,43.6h7
	v7h-7V43.6z M464.7,58.1h7v7h-7V58.1z M464.7,65.3h7v7h-7V65.3z M464.7,72.6h7v7h-7V72.6z M464.7,116.1h7v7h-7V116.1z M464.7,130.7
	h7v7h-7V130.7z M464.7,145.2h7v7h-7V145.2z M464.7,159.7h7v7h-7V159.7z M472.1,174.2h7v7h-7V174.2z M464.7,188.8h7v7h-7V188.8z
	 M464.7,225h7v7h-7V225z M464.7,261.4h7v7h-7V261.4z M464.7,283.1h7v7h-7V283.1z M472,36.3h7v7h-7V36.3z M472,65.3h7v7h-7V65.3z
	 M472,94.4h7v7h-7V94.4z M479.2,43.6h7v7h-7V43.6z M479.2,58.1h7v7h-7V58.1z M479.2,72.6h7v7h-7V72.6z M479.2,87.1h7v7h-7V87.1z
	 M479.2,130.7h7v7h-7V130.7z M479.2,145.2h7v7h-7V145.2z M479.2,159.7h7v7h-7V159.7z M486.6,174.2h7v7h-7V174.2z M479.2,188.8h7v7
	h-7V188.8z M479.2,217.8h7v7h-7V217.8z M479.2,246.8h7v7h-7V246.8z M479.2,268.6h7v7h-7V268.6z M479.2,283.1h7v7h-7V283.1z
	 M486.5,36.3h7v7h-7V36.3z M486.5,43.6h7v7h-7V43.6z M486.5,50.8h7v7h-7V50.8z M486.5,65.3h7v7h-7V65.3z M486.5,79.9h7v7h-7V79.9z
	 M486.5,94.4h7v7h-7V94.4z M493.8,43.6h7v7h-7V43.6z M493.8,58.1h7v7h-7V58.1z M493.8,72.6h7v7h-7V72.6z M493.8,87.1h7v7h-7V87.1z
	 M493.8,116.1h7v7h-7V116.1z M493.8,130.7h7v7h-7V130.7z M493.8,145.2h7v7h-7V145.2z M493.8,159.7h7v7h-7V159.7z M493.8,196h7v7h-7
	V196z M493.8,225h7v7h-7V225z M493.8,261.4h7v7h-7V261.4z M493.8,283.1h7v7h-7V283.1z M501,36.3h7v7h-7V36.3z M501,79.9h7v7h-7V79.9
	z M508.3,43.6h7v7h-7V43.6z M508.3,58.1h7v7h-7V58.1z M508.3,72.6h7v7h-7V72.6z M508.3,87.1h7v7h-7V87.1z M508.3,101.6h7v7h-7V101.6
	z M508.3,116.1h7v7h-7V116.1z M508.3,130.7h7v7h-7V130.7z M508.3,145.2h7v7h-7V145.2z M515.7,174.2h7v7h-7V174.2z M508.3,188.8h7v7
	h-7V188.8z M508.3,225h7v7h-7V225z M508.3,275.9h7v7h-7V275.9z M515.5,36.3h7v7h-7V36.3z M515.5,43.6h7v7h-7V43.6z M515.5,50.8h7v7
	h-7V50.8z M515.5,65.3h7v7h-7V65.3z M515.5,94.4h7v7h-7V94.4z M515.5,137.9h7v7h-7V137.9z M522.8,43.6h7v7h-7V43.6z M522.8,58.1h7v7
	h-7V58.1z M522.8,72.6h7v7h-7V72.6z M522.8,87.1h7v7h-7V87.1z M522.8,101.6h7v7h-7V101.6z M522.8,116.1h7v7h-7V116.1z M522.8,130.7
	h7v7h-7V130.7z M522.8,145.2h7v7h-7V145.2z M522.8,159.7h7v7h-7V159.7z M522.8,188.8h7v7h-7V188.8z M522.8,217.8h7v7h-7V217.8z
	 M522.8,246.8h7v7h-7V246.8z M522.8,283.1h7v7h-7V283.1z M530.1,36.3h7v7h-7V36.3z M530.1,65.3h7v7h-7V65.3z M530.1,94.4h7v7h-7
	V94.4z M537.5,174.2h7v7h-7V174.2z M537.3,43.6h7v7h-7V43.6z M537.3,58.1h7v7h-7V58.1z M537.3,72.6h7v7h-7V72.6z M537.3,87.1h7v7h-7
	V87.1z M537.3,101.6h7v7h-7V101.6z M537.3,116.1h7v7h-7V116.1z M537.3,130.7h7v7h-7V130.7z M537.3,145.2h7v7h-7V145.2z M537.3,159.7
	h7v7h-7V159.7z M537.3,188.8h7v7h-7V188.8z M537.3,217.8h7v7h-7V217.8z M537.3,246.8h7v7h-7V246.8z M537.3,275.9h7v7h-7V275.9z
	 M544.6,36.3h7v7h-7V36.3z M544.6,43.6h7v7h-7V43.6z M544.6,50.8h7v7h-7V50.8z M544.6,65.3h7v7h-7V65.3z M544.6,79.9h7v7h-7V79.9z
	 M544.6,94.4h7v7h-7V94.4z M551.8,43.6h7v7h-7V43.6z M551.8,58.1h7v7h-7V58.1z M551.8,72.6h7v7h-7V72.6z M551.8,87.1h7v7h-7V87.1z
	 M551.8,101.6h7v7h-7V101.6z M551.8,116.1h7v7h-7V116.1z M551.8,130.7h7v7h-7V130.7z M551.8,145.2h7v7h-7V145.2z M551.8,159.7h7v7
	h-7V159.7z M559.2,174.2h7v7h-7V174.2z M551.8,188.8h7v7h-7V188.8z M551.8,225h7v7h-7V225z M551.8,261.4h7v7h-7V261.4z M551.8,283.1
	h7v7h-7V283.1z M559.1,36.3h7v7h-7V36.3z M559.1,94.4h7v7h-7V94.4z M566.4,43.6h7v7h-7V43.6z M566.4,58.1h7v7h-7V58.1z M566.4,72.6
	h7v7h-7V72.6z M566.4,87.1h7v7h-7V87.1z M566.4,101.6h7v7h-7V101.6z M566.4,116.1h7v7h-7V116.1z M566.4,130.7h7v7h-7V130.7z
	 M566.4,145.2h7v7h-7V145.2z M566.4,159.7h7v7h-7V159.7z M573.8,174.2h7v7h-7V174.2z M566.4,188.8h7v7h-7V188.8z M566.4,217.8h7v7
	h-7V217.8z M566.4,246.8h7v7h-7V246.8z M566.4,275.9h7v7h-7V275.9z M573.6,50.8h7v7h-7V50.8z M573.6,65.3h7v7h-7V65.3z M581,174.2h7
	v7h-7V174.2z M580.9,43.6h7v7h-7V43.6z M580.9,58.1h7v7h-7V58.1z M580.9,72.6h7v7h-7V72.6z M580.9,87.1h7v7h-7V87.1z M580.9,101.6h7
	v7h-7V101.6z M580.9,116.1h7v7h-7V116.1z M580.9,130.7h7v7h-7V130.7z M580.9,145.2h7v7h-7V145.2z M580.9,159.7h7v7h-7V159.7z
	 M580.9,188.8h7v7h-7V188.8z M580.9,232.3h7v7h-7V232.3z M580.9,268.6h7v7h-7V268.6z M588.1,36.3h7v7h-7V36.3z M588.1,94.4h7v7h-7
	V94.4z M595.4,43.6h7v7h-7V43.6z M595.4,58.1h7v7h-7V58.1z M595.4,72.6h7v7h-7V72.6z M595.4,87.1h7v7h-7V87.1z M595.4,101.6h7v7h-7
	V101.6z M595.4,116.1h7v7h-7V116.1z M595.4,130.7h7v7h-7V130.7z M595.4,145.2h7v7h-7V145.2z M595.4,159.7h7v7h-7V159.7z M595.4,196
	h7v7h-7V196z M595.4,225h7v7h-7V225z M595.4,254.1h7v7h-7V254.1z M595.4,283.1h7v7h-7V283.1z M602.7,36.3h7v7h-7V36.3z M602.7,50.8
	h7v7h-7V50.8z M602.7,58.1h7v7h-7V58.1z M602.7,65.3h7v7h-7V65.3z M602.7,79.9h7v7h-7V79.9z M602.7,174.2h7v7h-7V174.2z M609.9,43.6
	h7v7h-7V43.6z M609.9,58.1h7v7h-7V58.1z M609.9,72.6h7v7h-7V72.6z M609.9,87.1h7v7h-7V87.1z M609.9,101.6h7v7h-7V101.6z
	 M609.9,116.1h7v7h-7V116.1z M609.9,188.8h7v7h-7V188.8z M609.9,217.8h7v7h-7V217.8z M609.9,268.6h7v7h-7V268.6z M617.2,36.3h7v7h-7
	V36.3z M617.2,65.3h7v7h-7V65.3z M617.2,94.4h7v7h-7V94.4z M617.2,145.2h7v7h-7V145.2z M617.2,159.7h7v7h-7V159.7z M617.2,174.2h7v7
	h-7V174.2z M624.4,43.6h7v7h-7V43.6z M624.4,58.1h7v7h-7V58.1z M624.4,72.6h7v7h-7V72.6z M624.4,87.1h7v7h-7V87.1z M624.4,101.6h7v7
	h-7V101.6z M624.4,116.1h7v7h-7V116.1z M624.4,130.7h7v7h-7V130.7z M624.4,152.4h7v7h-7V152.4z M624.4,203.3h7v7h-7V203.3z
	 M624.4,239.6h7v7h-7V239.6z M624.4,254.1h7v7h-7V254.1z M624.4,275.9h7v7h-7V275.9z M631.7,50.8h7v7h-7V50.8z M631.7,65.3h7v7h-7
	V65.3z M631.7,174.2h7v7h-7V174.2z M639,43.6h7v7h-7V43.6z M639,58.1h7v7h-7V58.1z M639,72.6h7v7h-7V72.6z M639,87.1h7v7h-7V87.1z
	 M639,101.6h7v7h-7V101.6z M639,116.1h7v7h-7V116.1z M639,130.7h7v7h-7V130.7z M639,145.2h7v7h-7V145.2z M639,159.7h7v7h-7V159.7z
	 M639,188.8h7v7h-7V188.8z M639,217.8h7v7h-7V217.8z M639,246.8h7v7h-7V246.8z M639,275.9h7v7h-7V275.9z M646.2,36.3h7v7h-7V36.3z
	 M646.2,94.4h7v7h-7V94.4z M653.5,43.6h7v7h-7V43.6z M653.5,58.1h7v7h-7V58.1z M653.5,72.6h7v7h-7V72.6z M653.5,87.1h7v7h-7V87.1z
	 M653.5,101.6h7v7h-7V101.6z M653.5,116.1h7v7h-7V116.1z M653.5,130.7h7v7h-7V130.7z M653.5,145.2h7v7h-7V145.2z M653.5,159.7h7v7
	h-7V159.7z M653.5,203.3h7v7h-7V203.3z M653.5,232.3h7v7h-7V232.3z M653.5,261.4h7v7h-7V261.4z M239.6,43.6h7v7h-7V43.6z
	 M239.6,58.1h7v7h-7V58.1z M239.6,72.6h7v7h-7V72.6z M239.6,87.1h7v7h-7V87.1z M239.6,101.6h7v7h-7V101.6z M247,174.2h7v7h-7V174.2z
	 M239.6,188.8h7v7h-7V188.8z M239.6,210.5h7v7h-7V210.5z M239.6,232.3h7v7h-7V232.3z M239.6,268.6h7v7h-7V268.6z M239.6,283.1h7v7
	h-7V283.1z M246.9,36.3h7v7h-7V36.3z M246.9,43.6h7v7h-7V43.6z M246.9,50.8h7v7h-7V50.8z M246.9,65.3h7v7h-7V65.3z M246.9,94.4h7v7
	h-7V94.4z M254.1,43.6h7v7h-7V43.6z M254.1,58.1h7v7h-7V58.1z M254.1,65.3h7v7h-7V65.3z M254.1,72.6h7v7h-7V72.6z M254.1,116.1h7v7
	h-7V116.1z M254.1,130.7h7v7h-7V130.7z M254.1,145.2h7v7h-7V145.2z M254.1,159.7h7v7h-7V159.7z M261.5,174.2h7v7h-7V174.2z
	 M254.1,188.8h7v7h-7V188.8z M254.1,225h7v7h-7V225z M254.1,261.4h7v7h-7V261.4z M254.1,283.1h7v7h-7V283.1z M261.4,36.3h7v7h-7
	V36.3z M261.4,65.3h7v7h-7V65.3z M261.4,94.4h7v7h-7V94.4z M268.6,43.6h7v7h-7V43.6z M268.6,58.1h7v7h-7V58.1z M268.6,72.6h7v7h-7
	V72.6z M268.6,87.1h7v7h-7V87.1z M275.9,87.1h7v7h-7V87.1z M268.6,130.7h7v7h-7V130.7z M268.6,145.2h7v7h-7V145.2z M268.6,159.7h7v7
	h-7V159.7z M276,174.2h7v7h-7V174.2z M268.6,188.8h7v7h-7V188.8z M268.6,217.8h7v7h-7V217.8z M268.6,246.8h7v7h-7V246.8z
	 M268.6,268.6h7v7h-7V268.6z M268.6,283.1h7v7h-7V283.1z M275.9,36.3h7v7h-7V36.3z M275.9,43.6h7v7h-7V43.6z M275.9,50.8h7v7h-7
	V50.8z M275.9,65.3h7v7h-7V65.3z M275.9,79.9h7v7h-7V79.9z M275.9,94.4h7v7h-7V94.4z M283.2,43.6h7v7h-7V43.6z M283.2,58.1h7v7h-7
	V58.1z M283.2,72.6h7v7h-7V72.6z M283.2,87.1h7v7h-7V87.1z M283.2,116.1h7v7h-7V116.1z M283.2,130.7h7v7h-7V130.7z M283.2,145.2h7v7
	h-7V145.2z M283.2,159.7h7v7h-7V159.7z M283.2,196h7v7h-7V196z M283.2,225h7v7h-7V225z M283.2,261.4h7v7h-7V261.4z M283.2,283.1h7v7
	h-7V283.1z M290.4,36.3h7v7h-7V36.3z M290.4,79.9h7v7h-7V79.9z M297.7,43.6h7v7h-7V43.6z M297.7,58.1h7v7h-7V58.1z M297.7,72.6h7v7
	h-7V72.6z M297.7,87.1h7v7h-7V87.1z M297.7,101.6h7v7h-7V101.6z M297.7,116.1h7v7h-7V116.1z M297.7,130.7h7v7h-7V130.7z
	 M297.7,145.2h7v7h-7V145.2z M305.1,174.2h7v7h-7V174.2z M297.7,188.8h7v7h-7V188.8z M297.7,225h7v7h-7V225z M297.7,275.9h7v7h-7
	V275.9z M304.9,36.3h7v7h-7V36.3z M304.9,43.6h7v7h-7V43.6z M304.9,50.8h7v7h-7V50.8z M304.9,65.3h7v7h-7V65.3z M304.9,94.4h7v7h-7
	V94.4z M304.9,137.9h7v7h-7V137.9z M312.2,43.6h7v7h-7V43.6z M312.2,58.1h7v7h-7V58.1z M312.2,72.6h7v7h-7V72.6z M312.2,87.1h7v7h-7
	V87.1z M312.2,101.6h7v7h-7V101.6z M312.2,116.1h7v7h-7V116.1z M312.2,130.7h7v7h-7V130.7z M312.2,145.2h7v7h-7V145.2z M312.2,159.7
	h7v7h-7V159.7z M312.2,188.8h7v7h-7V188.8z M312.2,217.8h7v7h-7V217.8z M312.2,246.8h7v7h-7V246.8z M312.2,283.1h7v7h-7V283.1z
	 M319.5,36.3h7v7h-7V36.3z M319.5,65.3h7v7h-7V65.3z M319.5,94.4h7v7h-7V94.4z M326.9,174.2h7v7h-7V174.2z M326.7,43.6h7v7h-7V43.6z
	 M326.7,58.1h7v7h-7V58.1z M326.7,72.6h7v7h-7V72.6z M326.7,87.1h7v7h-7V87.1z M326.7,101.6h7v7h-7V101.6z M326.7,116.1h7v7h-7
	V116.1z M326.7,130.7h7v7h-7V130.7z M326.7,145.2h7v7h-7V145.2z M326.7,159.7h7v7h-7V159.7z M326.7,188.8h7v7h-7V188.8z
	 M326.7,217.8h7v7h-7V217.8z M326.7,246.8h7v7h-7V246.8z M326.7,275.9h7v7h-7V275.9z M334,36.3h7v7h-7V36.3z M334,43.6h7v7h-7V43.6z
	 M334,50.8h7v7h-7V50.8z M334,65.3h7v7h-7V65.3z M334,79.9h7v7h-7V79.9z M334,94.4h7v7h-7V94.4z M341.2,43.6h7v7h-7V43.6z
	 M341.2,58.1h7v7h-7V58.1z M341.2,72.6h7v7h-7V72.6z M341.2,87.1h7v7h-7V87.1z M341.2,101.6h7v7h-7V101.6z M341.2,116.1h7v7h-7
	V116.1z M341.2,130.7h7v7h-7V130.7z M341.2,145.2h7v7h-7V145.2z M341.2,159.7h7v7h-7V159.7z M348.6,174.2h7v7h-7V174.2z
	 M341.2,188.8h7v7h-7V188.8z M341.2,225h7v7h-7V225z M341.2,261.4h7v7h-7V261.4z M341.2,283.1h7v7h-7V283.1z M348.5,36.3h7v7h-7
	V36.3z M348.5,94.4h7v7h-7V94.4z M355.8,43.6h7v7h-7V43.6z M355.8,58.1h7v7h-7V58.1z M355.8,72.6h7v7h-7V72.6z M355.8,87.1h7v7h-7
	V87.1z M355.8,101.6h7v7h-7V101.6z M355.8,116.1h7v7h-7V116.1z M355.8,130.7h7v7h-7V130.7z M355.8,145.2h7v7h-7V145.2z M355.8,159.7
	h7v7h-7V159.7z M363.2,174.2h7v7h-7V174.2z M355.8,188.8h7v7h-7V188.8z M355.8,217.8h7v7h-7V217.8z M355.8,246.8h7v7h-7V246.8z
	 M355.8,275.9h7v7h-7V275.9z M363,50.8h7v7h-7V50.8z M363,65.3h7v7h-7V65.3z M370.4,174.2h7v7h-7V174.2z M370.3,43.6h7v7h-7V43.6z
	 M370.3,58.1h7v7h-7V58.1z M370.3,72.6h7v7h-7V72.6z M370.3,87.1h7v7h-7V87.1z M370.3,101.6h7v7h-7V101.6z M370.3,116.1h7v7h-7
	V116.1z M370.3,130.7h7v7h-7V130.7z M370.3,145.2h7v7h-7V145.2z M370.3,159.7h7v7h-7V159.7z M370.3,188.8h7v7h-7V188.8z
	 M370.3,232.3h7v7h-7V232.3z M370.3,268.6h7v7h-7V268.6z M377.5,36.3h7v7h-7V36.3z M377.5,94.4h7v7h-7V94.4z M384.8,43.6h7v7h-7
	V43.6z M384.8,58.1h7v7h-7V58.1z M384.8,72.6h7v7h-7V72.6z M384.8,87.1h7v7h-7V87.1z M384.8,101.6h7v7h-7V101.6z M384.8,116.1h7v7
	h-7V116.1z M384.8,130.7h7v7h-7V130.7z M384.8,145.2h7v7h-7V145.2z M384.8,159.7h7v7h-7V159.7z M384.8,196h7v7h-7V196z M384.8,225h7
	v7h-7V225z M384.8,254.1h7v7h-7V254.1z M384.8,283.1h7v7h-7V283.1z M392.1,36.3h7v7h-7V36.3z M392.1,50.8h7v7h-7V50.8z M392.1,58.1
	h7v7h-7V58.1z M392.1,65.3h7v7h-7V65.3z M392.1,79.9h7v7h-7V79.9z M392.1,174.2h7v7h-7V174.2z M399.3,43.6h7v7h-7V43.6z M399.3,58.1
	h7v7h-7V58.1z M399.3,72.6h7v7h-7V72.6z M399.3,87.1h7v7h-7V87.1z M399.3,101.6h7v7h-7V101.6z M399.3,116.1h7v7h-7V116.1z
	 M399.3,188.8h7v7h-7V188.8z M399.3,217.8h7v7h-7V217.8z M399.3,268.6h7v7h-7V268.6z M406.6,36.3h7v7h-7V36.3z M406.6,65.3h7v7h-7
	V65.3z M406.6,94.4h7v7h-7V94.4z M406.6,145.2h7v7h-7V145.2z M406.6,159.7h7v7h-7V159.7z M406.6,174.2h7v7h-7V174.2z M413.8,43.6h7
	v7h-7V43.6z M413.8,58.1h7v7h-7V58.1z M413.8,72.6h7v7h-7V72.6z M413.8,87.1h7v7h-7V87.1z M413.8,101.6h7v7h-7V101.6z M413.8,116.1
	h7v7h-7V116.1z M413.8,130.7h7v7h-7V130.7z M413.8,152.4h7v7h-7V152.4z M413.8,203.3h7v7h-7V203.3z M413.8,239.6h7v7h-7V239.6z
	 M413.8,254.1h7v7h-7V254.1z M413.8,275.9h7v7h-7V275.9z M421.1,50.8h7v7h-7V50.8z M421.1,65.3h7v7h-7V65.3z M421.1,174.2h7v7h-7
	V174.2z M428.4,43.6h7v7h-7V43.6z M428.4,58.1h7v7h-7V58.1z M428.4,72.6h7v7h-7V72.6z M428.4,87.1h7v7h-7V87.1z M428.4,101.6h7v7h-7
	V101.6z M428.4,116.1h7v7h-7V116.1z M428.4,130.7h7v7h-7V130.7z M428.4,145.2h7v7h-7V145.2z M428.4,159.7h7v7h-7V159.7z
	 M428.4,188.8h7v7h-7V188.8z M428.4,217.8h7v7h-7V217.8z M428.4,246.8h7v7h-7V246.8z M428.4,275.9h7v7h-7V275.9z M435.6,36.3h7v7h-7
	V36.3z M435.6,94.4h7v7h-7V94.4z M442.9,43.6h7v7h-7V43.6z M442.9,58.1h7v7h-7V58.1z M442.9,72.6h7v7h-7V72.6z M442.9,87.1h7v7h-7
	V87.1z M442.9,101.6h7v7h-7V101.6z M442.9,116.1h7v7h-7V116.1z M442.9,130.7h7v7h-7V130.7z M442.9,145.2h7v7h-7V145.2z M442.9,159.7
	h7v7h-7V159.7z M442.9,203.3h7v7h-7V203.3z M442.9,232.3h7v7h-7V232.3z M442.9,261.4h7v7h-7V261.4z M29.1,43.6h7v7h-7V43.6z
	 M29.1,58.1h7v7h-7V58.1z M29.1,72.6h7v7h-7V72.6z M29.1,87.1h7v7h-7V87.1z M29.1,101.6h7v7h-7V101.6z M36.5,174.2h7v7h-7V174.2z
	 M29.1,188.8h7v7h-7V188.8z M29.1,210.5h7v7h-7V210.5z M29.1,232.3h7v7h-7V232.3z M29.1,268.6h7v7h-7V268.6z M29.1,283.1h7v7h-7
	V283.1z M36.4,36.3h7v7h-7V36.3z M36.4,43.6h7v7h-7V43.6z M36.4,50.8h7v7h-7V50.8z M36.4,65.3h7v7h-7V65.3z M36.4,94.4h7v7h-7V94.4z
	 M43.6,43.6h7v7h-7V43.6z M43.6,58.1h7v7h-7V58.1z M43.6,72.6h7v7h-7V72.6z M43.6,116.1h7v7h-7V116.1z M43.6,130.7h7v7h-7V130.7z
	 M43.6,145.2h7v7h-7V145.2z M43.6,159.7h7v7h-7V159.7z M51,174.2h7v7h-7V174.2z M43.6,188.8h7v7h-7V188.8z M43.6,225h7v7h-7V225z
	 M43.6,261.4h7v7h-7V261.4z M43.6,283.1h7v7h-7V283.1z M50.9,36.3h7v7h-7V36.3z M50.9,65.3h7v7h-7V65.3z M50.9,94.4h7v7h-7V94.4z
	 M0.1,43.6h7v7h-7V43.6z M0.1,58.1h7v7h-7V58.1z M0.1,72.6h7v7h-7V72.6z M0.1,87.1h7v7h-7V87.1z M0.1,101.6h7v7h-7V101.6z
	 M7.5,174.2h7v7h-7V174.2z M0.1,188.8h7v7h-7V188.8z M0.1,210.5h7v7h-7V210.5z M0.1,232.3h7v7h-7V232.3z M0.1,268.6h7v7h-7V268.6z
	 M0.1,283.1h7v7h-7V283.1z M7.4,36.3h7v7h-7V36.3z M7.4,43.6h7v7h-7V43.6z M7.4,50.8h7v7h-7V50.8z M7.4,65.3h7v7h-7V65.3z M7.4,94.4
	h7v7h-7V94.4z M14.6,43.6h7v7h-7V43.6z M14.6,58.1h7v7h-7V58.1z M14.6,65.3h7v7h-7V65.3z M14.6,72.6h7v7h-7V72.6z M14.6,116.1h7v7
	h-7V116.1z M14.6,130.7h7v7h-7V130.7z M14.6,145.2h7v7h-7V145.2z M14.6,159.7h7v7h-7V159.7z M22,174.2h7v7h-7V174.2z M14.6,188.8h7
	v7h-7V188.8z M14.6,225h7v7h-7V225z M14.6,261.4h7v7h-7V261.4z M14.6,283.1h7v7h-7V283.1z M21.9,36.3h7v7h-7V36.3z M21.9,65.3h7v7
	h-7V65.3z M21.9,94.4h7v7h-7V94.4z M58.1,43.6h7v7h-7V43.6z M58.1,58.1h7v7h-7V58.1z M58.1,72.6h7v7h-7V72.6z M58.1,87.1h7v7h-7
	V87.1z M58.1,130.7h7v7h-7V130.7z M58.1,145.2h7v7h-7V145.2z M58.1,159.7h7v7h-7V159.7z M65.5,174.2h7v7h-7V174.2z M58.1,188.8h7v7
	h-7V188.8z M58.1,217.8h7v7h-7V217.8z M58.1,246.8h7v7h-7V246.8z M58.1,268.6h7v7h-7V268.6z M58.1,283.1h7v7h-7V283.1z M65.4,36.3h7
	v7h-7V36.3z M65.4,43.6h7v7h-7V43.6z M65.4,50.8h7v7h-7V50.8z M65.4,65.3h7v7h-7V65.3z M65.4,79.9h7v7h-7V79.9z M65.4,94.4h7v7h-7
	V94.4z M72.7,43.6h7v7h-7V43.6z M72.7,58.1h7v7h-7V58.1z M72.7,72.6h7v7h-7V72.6z M72.7,87.1h7v7h-7V87.1z M72.7,116.1h7v7h-7V116.1
	z M72.7,130.7h7v7h-7V130.7z M72.7,145.2h7v7h-7V145.2z M72.7,159.7h7v7h-7V159.7z M72.7,196h7v7h-7V196z M72.7,225h7v7h-7V225z
	 M72.7,261.4h7v7h-7V261.4z M72.7,283.1h7v7h-7V283.1z M79.9,36.3h7v7h-7V36.3z M79.9,79.9h7v7h-7V79.9z M87.2,43.6h7v7h-7V43.6z
	 M87.2,58.1h7v7h-7V58.1z M87.2,72.6h7v7h-7V72.6z M87.2,87.1h7v7h-7V87.1z M87.2,101.6h7v7h-7V101.6z M87.2,116.1h7v7h-7V116.1z
	 M87.2,130.7h7v7h-7V130.7z M87.2,145.2h7v7h-7V145.2z M94.6,174.2h7v7h-7V174.2z M87.2,188.8h7v7h-7V188.8z M87.2,225h7v7h-7V225z
	 M87.2,275.9h7v7h-7V275.9z M94.4,36.3h7v7h-7V36.3z M94.4,43.6h7v7h-7V43.6z M94.4,50.8h7v7h-7V50.8z M94.4,65.3h7v7h-7V65.3z
	 M94.4,94.4h7v7h-7V94.4z M94.4,137.9h7v7h-7V137.9z M101.7,43.6h7v7h-7V43.6z M101.7,58.1h7v7h-7V58.1z M101.7,72.6h7v7h-7V72.6z
	 M101.7,87.1h7v7h-7V87.1z M101.7,101.6h7v7h-7V101.6z M101.7,116.1h7v7h-7V116.1z M101.7,130.7h7v7h-7V130.7z M101.7,145.2h7v7h-7
	V145.2z M101.7,159.7h7v7h-7V159.7z M101.7,188.8h7v7h-7V188.8z M101.7,217.8h7v7h-7V217.8z M101.7,246.8h7v7h-7V246.8z
	 M101.7,283.1h7v7h-7V283.1z M109,36.3h7v7h-7V36.3z M109,65.3h7v7h-7V65.3z M109,94.4h7v7h-7V94.4z M116.4,174.2h7v7h-7V174.2z
	 M116.2,43.6h7v7h-7V43.6z M116.2,58.1h7v7h-7V58.1z M116.2,72.6h7v7h-7V72.6z M116.2,87.1h7v7h-7V87.1z M116.2,101.6h7v7h-7V101.6z
	 M116.2,116.1h7v7h-7V116.1z M116.2,130.7h7v7h-7V130.7z M116.2,145.2h7v7h-7V145.2z M116.2,159.7h7v7h-7V159.7z M116.2,188.8h7v7
	h-7V188.8z M116.2,217.8h7v7h-7V217.8z M116.2,246.8h7v7h-7V246.8z M116.2,275.9h7v7h-7V275.9z M123.5,36.3h7v7h-7V36.3z
	 M123.5,43.6h7v7h-7V43.6z M123.5,50.8h7v7h-7V50.8z M123.5,65.3h7v7h-7V65.3z M123.5,79.9h7v7h-7V79.9z M123.5,94.4h7v7h-7V94.4z
	 M130.7,43.6h7v7h-7V43.6z M130.7,58.1h7v7h-7V58.1z M130.7,72.6h7v7h-7V72.6z M130.7,87.1h7v7h-7V87.1z M130.7,101.6h7v7h-7V101.6z
	 M130.7,116.1h7v7h-7V116.1z M130.7,130.7h7v7h-7V130.7z M130.7,145.2h7v7h-7V145.2z M130.7,159.7h7v7h-7V159.7z M138.1,174.2h7v7
	h-7V174.2z M130.7,188.8h7v7h-7V188.8z M130.7,225h7v7h-7V225z M130.7,261.4h7v7h-7V261.4z M130.7,283.1h7v7h-7V283.1z M138,36.3h7
	v7h-7V36.3z M138,94.4h7v7h-7V94.4z M145.3,43.6h7v7h-7V43.6z M145.3,58.1h7v7h-7V58.1z M145.3,72.6h7v7h-7V72.6z M145.3,87.1h7v7
	h-7V87.1z M145.3,101.6h7v7h-7V101.6z M145.3,116.1h7v7h-7V116.1z M145.3,130.7h7v7h-7V130.7z M145.3,145.2h7v7h-7V145.2z
	 M145.3,159.7h7v7h-7V159.7z M152.7,174.2h7v7h-7V174.2z M145.3,188.8h7v7h-7V188.8z M145.3,217.8h7v7h-7V217.8z M145.3,246.8h7v7
	h-7V246.8z M145.3,275.9h7v7h-7V275.9z M152.5,50.8h7v7h-7V50.8z M152.5,65.3h7v7h-7V65.3z M159.9,174.2h7v7h-7V174.2z M159.8,43.6
	h7v7h-7V43.6z M159.8,58.1h7v7h-7V58.1z M159.8,72.6h7v7h-7V72.6z M159.8,87.1h7v7h-7V87.1z M159.8,101.6h7v7h-7V101.6z
	 M159.8,116.1h7v7h-7V116.1z M159.8,130.7h7v7h-7V130.7z M159.8,145.2h7v7h-7V145.2z M159.8,159.7h7v7h-7V159.7z M159.8,188.8h7v7
	h-7V188.8z M159.8,232.3h7v7h-7V232.3z M159.8,268.6h7v7h-7V268.6z M167,36.3h7v7h-7V36.3z M167,94.4h7v7h-7V94.4z M174.3,43.6h7v7
	h-7V43.6z M174.3,58.1h7v7h-7V58.1z M174.3,72.6h7v7h-7V72.6z M174.3,87.1h7v7h-7V87.1z M174.3,101.6h7v7h-7V101.6z M174.3,116.1h7
	v7h-7V116.1z M174.3,130.7h7v7h-7V130.7z M174.3,145.2h7v7h-7V145.2z M174.3,159.7h7v7h-7V159.7z M174.3,196h7v7h-7V196z M174.3,225
	h7v7h-7V225z M174.3,254.1h7v7h-7V254.1z M174.3,283.1h7v7h-7V283.1z M181.6,36.3h7v7h-7V36.3z M181.6,50.8h7v7h-7V50.8z
	 M181.6,58.1h7v7h-7V58.1z M181.6,65.3h7v7h-7V65.3z M181.6,79.9h7v7h-7V79.9z M181.6,174.2h7v7h-7V174.2z M188.8,43.6h7v7h-7V43.6z
	 M188.8,58.1h7v7h-7V58.1z M188.8,72.6h7v7h-7V72.6z M188.8,87.1h7v7h-7V87.1z M188.8,101.6h7v7h-7V101.6z M188.8,116.1h7v7h-7
	V116.1z M188.8,188.8h7v7h-7V188.8z M188.8,217.8h7v7h-7V217.8z M188.8,268.6h7v7h-7V268.6z M196.1,36.3h7v7h-7V36.3z M196.1,65.3h7
	v7h-7V65.3z M196.1,94.4h7v7h-7V94.4z M196.1,145.2h7v7h-7V145.2z M196.1,159.7h7v7h-7V159.7z M196.1,174.2h7v7h-7V174.2z
	 M203.3,43.6h7v7h-7V43.6z M203.3,58.1h7v7h-7V58.1z M203.3,72.6h7v7h-7V72.6z M203.3,87.1h7v7h-7V87.1z M203.3,101.6h7v7h-7V101.6z
	 M203.3,116.1h7v7h-7V116.1z M203.3,130.7h7v7h-7V130.7z M203.3,152.4h7v7h-7V152.4z M203.3,203.3h7v7h-7V203.3z M203.3,239.6h7v7
	h-7V239.6z M203.3,254.1h7v7h-7V254.1z M203.3,275.9h7v7h-7V275.9z M210.6,50.8h7v7h-7V50.8z M210.6,65.3h7v7h-7V65.3z M210.6,174.2
	h7v7h-7V174.2z M217.9,43.6h7v7h-7V43.6z M217.9,58.1h7v7h-7V58.1z M217.9,72.6h7v7h-7V72.6z M217.9,87.1h7v7h-7V87.1z M217.9,101.6
	h7v7h-7V101.6z M217.9,116.1h7v7h-7V116.1z M217.9,130.7h7v7h-7V130.7z M217.9,145.2h7v7h-7V145.2z M217.9,159.7h7v7h-7V159.7z
	 M217.9,188.8h7v7h-7V188.8z M217.9,217.8h7v7h-7V217.8z M217.9,246.8h7v7h-7V246.8z M217.9,275.9h7v7h-7V275.9z M225.1,36.3h7v7h-7
	V36.3z M225.1,94.4h7v7h-7V94.4z M232.4,43.6h7v7h-7V43.6z M232.4,58.1h7v7h-7V58.1z M232.4,72.6h7v7h-7V72.6z M232.4,87.1h7v7h-7
	V87.1z M232.4,101.6h7v7h-7V101.6z M232.4,116.1h7v7h-7V116.1z M232.4,130.7h7v7h-7V130.7z M232.4,145.2h7v7h-7V145.2z M232.4,159.7
	h7v7h-7V159.7z M232.4,203.3h7v7h-7V203.3z M232.4,232.3h7v7h-7V232.3z M232.4,261.4h7v7h-7V261.4z M660.7,297.6h7v7h-7V297.6z
	 M660.7,319.4h7v7h-7V319.4z M660.7,370.2h7v7h-7V370.2z M675.2,312.1h7v7h-7V312.1z M675.2,348.5h7v7h-7V348.5z M689.7,333.9h7v7
	h-7V333.9z M704.3,348.5h7v7h-7V348.5z M704.3,370.2h7v7h-7V370.2z M718.8,312.1h7v7h-7V312.1z M718.8,363h7v7h-7V363z M733.3,304.9
	h7v7h-7V304.9z M733.3,333.9h7v7h-7V333.9z M733.3,370.2h7v7h-7V370.2z M747.8,304.9h7v7h-7V304.9z M747.8,363h7v7h-7V363z
	 M762.3,348.5h7v7h-7V348.5z M762.3,370.2h7v7h-7V370.2z M776.9,304.9h7v7h-7V304.9z M776.9,333.9h7v7h-7V333.9z M791.4,319.4h7v7
	h-7V319.4z M791.4,355.7h7v7h-7V355.7z M805.9,312.1h7v7h-7V312.1z M805.9,341.2h7v7h-7V341.2z M805.9,370.2h7v7h-7V370.2z
	 M820.4,304.9h7v7h-7V304.9z M834.9,290.4h7v7h-7V290.4z M834.9,341.2h7v7h-7V341.2z M834.9,363h7v7h-7V363z M849.5,304.9h7v7h-7
	V304.9z M849.5,333.9h7v7h-7V333.9z M849.5,363h7v7h-7V363z M864,290.4h7v7h-7V290.4z M864,319.4h7v7h-7V319.4z M864,348.5h7v7h-7
	V348.5z M450.2,297.6h7v7h-7V297.6z M450.2,370.2h7v7h-7V370.2z M464.7,312.1h7v7h-7V312.1z M464.7,348.5h7v7h-7V348.5z
	 M479.2,304.9h7v7h-7V304.9z M479.2,333.9h7v7h-7V333.9z M479.2,370.2h7v7h-7V370.2z M493.8,312.1h7v7h-7V312.1z M493.8,348.5h7v7
	h-7V348.5z M508.3,312.1h7v7h-7V312.1z M508.3,363h7v7h-7V363z M522.8,304.9h7v7h-7V304.9z M522.8,333.9h7v7h-7V333.9z M522.8,370.2
	h7v7h-7V370.2z M537.3,304.9h7v7h-7V304.9z M537.3,363h7v7h-7V363z M551.8,312.1h7v7h-7V312.1z M551.8,348.5h7v7h-7V348.5z
	 M551.8,370.2h7v7h-7V370.2z M566.4,304.9h7v7h-7V304.9z M566.4,333.9h7v7h-7V333.9z M580.9,319.4h7v7h-7V319.4z M580.9,355.7h7v7
	h-7V355.7z M595.4,312.1h7v7h-7V312.1z M595.4,341.2h7v7h-7V341.2z M595.4,370.2h7v7h-7V370.2z M609.9,304.9h7v7h-7V304.9z
	 M624.4,290.4h7v7h-7V290.4z M624.4,326.7h7v7h-7V326.7z M624.4,363h7v7h-7V363z M639,304.9h7v7h-7V304.9z M639,333.9h7v7h-7V333.9z
	 M639,363h7v7h-7V363z M653.5,290.4h7v7h-7V290.4z M239.6,297.6h7v7h-7V297.6z M239.6,319.4h7v7h-7V319.4z M239.6,370.2h7v7h-7
	V370.2z M254.1,312.1h7v7h-7V312.1z M254.1,348.5h7v7h-7V348.5z M254.1,370.2h7v7h-7V370.2z M268.6,304.9h7v7h-7V304.9z
	 M268.6,355.7h7v7h-7V355.7z M283.2,312.1h7v7h-7V312.1z M283.2,348.5h7v7h-7V348.5z M283.2,370.2h7v7h-7V370.2z M297.7,312.1h7v7
	h-7V312.1z M297.7,363h7v7h-7V363z M312.2,304.9h7v7h-7V304.9z M312.2,333.9h7v7h-7V333.9z M312.2,370.2h7v7h-7V370.2z M326.7,304.9
	h7v7h-7V304.9z M341.2,312.1h7v7h-7V312.1z M341.2,348.5h7v7h-7V348.5z M341.2,370.2h7v7h-7V370.2z M355.8,304.9h7v7h-7V304.9z
	 M355.8,333.9h7v7h-7V333.9z M355.8,363h7v7h-7V363z M370.3,319.4h7v7h-7V319.4z M370.3,355.7h7v7h-7V355.7z M384.8,341.2h7v7h-7
	V341.2z M384.8,370.2h7v7h-7V370.2z M399.3,304.9h7v7h-7V304.9z M413.8,290.4h7v7h-7V290.4z M413.8,341.2h7v7h-7V341.2z
	 M428.4,304.9h7v7h-7V304.9z M428.4,333.9h7v7h-7V333.9z M428.4,363h7v7h-7V363z M442.9,290.4h7v7h-7V290.4z M442.9,319.4h7v7h-7
	V319.4z M442.9,348.5h7v7h-7V348.5z M29.1,297.6h7v7h-7V297.6z M29.1,319.4h7v7h-7V319.4z M29.1,370.2h7v7h-7V370.2z M43.6,370.2h7
	v7h-7V370.2z M0.1,297.6h7v7h-7V297.6z M0.1,319.4h7v7h-7V319.4z M0.1,355.7h7v7h-7V355.7z M0.1,370.2h7v7h-7V370.2z M14.6,312.1h7
	v7h-7V312.1z M14.6,348.5h7v7h-7V348.5z M58.1,304.9h7v7h-7V304.9z M58.1,333.9h7v7h-7V333.9z M72.7,312.1h7v7h-7V312.1z
	 M72.7,348.5h7v7h-7V348.5z M72.7,370.2h7v7h-7V370.2z M87.2,312.1h7v7h-7V312.1z M101.7,304.9h7v7h-7V304.9z M101.7,333.9h7v7h-7
	V333.9z M101.7,370.2h7v7h-7V370.2z M116.2,363h7v7h-7V363z M130.7,312.1h7v7h-7V312.1z M130.7,348.5h7v7h-7V348.5z M130.7,370.2h7
	v7h-7V370.2z M145.3,304.9h7v7h-7V304.9z M145.3,333.9h7v7h-7V333.9z M145.3,363h7v7h-7V363z M174.3,312.1h7v7h-7V312.1z
	 M174.3,341.2h7v7h-7V341.2z M174.3,370.2h7v7h-7V370.2z M188.8,304.9h7v7h-7V304.9z M188.8,355.7h7v7h-7V355.7z M203.3,290.4h7v7
	h-7V290.4z M203.3,326.7h7v7h-7V326.7z M203.3,341.2h7v7h-7V341.2z M217.9,304.9h7v7h-7V304.9z M217.9,363h7v7h-7V363z M232.4,348.5
	h7v7h-7V348.5z"/>
</svg>
