<?xml version="1.0" encoding="utf-8"?>
<!-- Generator: Adobe Illustrator 27.3.1, SVG Export Plug-In . SVG Version: 6.00 Build 0)  -->
<svg version="1.1" id="Слой_1" xmlns="http://www.w3.org/2000/svg" xmlns:xlink="http://www.w3.org/1999/xlink" x="0px" y="0px"
	 viewBox="0 0 1000 900" style="enable-background:new 0 0 1000 900;" xml:space="preserve">
<style type="text/css">
	.st0{fill:#1E0E01;}
</style>
<g id="Слой_2_00000176740481492640236620000011742792858990057905_">
</g>
<path class="st0" d="M56.9,268.7h7v7h-7V268.7z M56.9,275.9h7v7h-7V275.9z M56.9,283.2h7v7h-7V283.2z M56.9,290.4h7v7h-7V290.4z
	 M56.9,297.7h7v7h-7V297.7z M56.9,304.9h7v7h-7V304.9z M56.9,312.2h7v7h-7V312.2z M56.9,319.5h7v7h-7V319.5z M56.9,326.7h7v7h-7
	V326.7z M56.9,334h7v7h-7V334z M56.9,341.3h7v7h-7V341.3z M56.9,348.5h7v7h-7V348.5z M56.9,355.8h7v7h-7V355.8z M56.9,363h7v7h-7
	V363z M56.9,370.3h7v7h-7V370.3z M56.9,377.5h7v7h-7V377.5z M56.9,384.8h7v7h-7V384.8z M56.9,392.1h7v7h-7V392.1z M56.9,399.3h7v7
	h-7V399.3z M56.9,406.6h7v7h-7V406.6z M56.9,413.9h7v7h-7V413.9z M56.9,421.1h7v7h-7V421.1z M56.9,428.4h7v7h-7V428.4z M56.9,435.6
	h7v7h-7V435.6z M56.9,442.9h7v7h-7V442.9z M56.9,450.1h7v7h-7V450.1z M56.9,457.4h7v7h-7V457.4z M56.9,464.7h7v7h-7V464.7z
	 M56.9,471.9h7v7h-7V471.9z M56.9,479.2h7v7h-7V479.2z M56.9,486.5h7v7h-7V486.5z M56.9,493.7h7v7h-7V493.7z M56.9,501h7v7h-7V501z
	 M56.9,508.2h7v7h-7V508.2z M56.9,515.5h7v7h-7V515.5z M56.9,522.7h7v7h-7V522.7z M56.9,530h7v7h-7V530z M56.9,537.3h7v7h-7V537.3z
	 M56.9,544.5h7v7h-7V544.5z M56.9,551.8h7v7h-7V551.8z M56.9,559.1h7v7h-7V559.1z M56.9,566.3h7v7h-7V566.3z M56.9,573.6h7v7h-7
	V573.6z M56.9,580.8h7v7h-7V580.8z M56.9,588.1h7v7h-7V588.1z M56.9,595.3h7v7h-7V595.3z M56.9,602.6h7v7h-7V602.6z M56.9,609.8h7v7
	h-7V609.8z M56.9,617.1h7v7h-7V617.1z M56.9,624.4h7v7h-7V624.4z M56.9,631.6h7v7h-7V631.6z M56.9,638.9h7v7h-7V638.9z M56.9,646.1
	h7v7h-7V646.1z M56.9,653.4h7v7h-7V653.4z M56.9,660.7h7v7h-7V660.7z M56.9,668h7v7h-7V668z M56.9,675.2h7v7h-7V675.2z M56.9,682.5
	h7v7h-7V682.5z M56.9,689.8h7v7h-7V689.8z M56.9,697h7v7h-7V697z M56.9,704.3h7v7h-7V704.3z M56.9,711.5h7v7h-7V711.5z M56.9,718.8
	h7v7h-7V718.8z M56.9,726h7v7h-7V726z M56.9,740.5h7v7h-7V740.5z M56.9,747.8h7v7h-7V747.8z M56.9,755.1h7v7h-7V755.1z M56.9,762.3
	h7v7h-7V762.3z M56.9,769.6h7v7h-7V769.6z M56.9,776.8h7v7h-7V776.8z M56.9,784.1h7v7h-7V784.1z M56.9,733.3h7v7h-7V733.3z
	 M935.3,261.4h7v7h-7V261.4z M935.3,268.7h7v7h-7V268.7z M935.3,275.9h7v7h-7V275.9z M935.3,283.2h7v7h-7V283.2z M935.3,290.4h7v7
	h-7V290.4z M935.3,297.7h7v7h-7V297.7z M935.3,304.9h7v7h-7V304.9z M935.3,312.2h7v7h-7V312.2z M935.3,319.5h7v7h-7V319.5z
	 M935.3,326.7h7v7h-7V326.7z M935.3,334h7v7h-7V334z M935.3,341.3h7v7h-7V341.3z M935.3,348.5h7v7h-7V348.5z M935.3,355.8h7v7h-7
	V355.8z M935.3,363h7v7h-7V363z M935.3,370.3h7v7h-7V370.3z M935.3,377.5h7v7h-7V377.5z M935.3,384.8h7v7h-7V384.8z M935.3,392.1h7
	v7h-7V392.1z M935.3,399.3h7v7h-7V399.3z M935.3,406.6h7v7h-7V406.6z M935.3,413.9h7v7h-7V413.9z M935.3,421.1h7v7h-7V421.1z
	 M935.3,428.4h7v7h-7V428.4z M935.3,435.6h7v7h-7V435.6z M935.3,442.9h7v7h-7V442.9z M935.3,450.1h7v7h-7V450.1z M935.3,457.4h7v7
	h-7V457.4z M935.3,464.7h7v7h-7V464.7z M935.3,471.9h7v7h-7V471.9z M935.3,479.2h7v7h-7V479.2z M935.3,486.5h7v7h-7V486.5z
	 M935.3,493.7h7v7h-7V493.7z M935.3,501h7v7h-7V501z M935.3,508.2h7v7h-7V508.2z M935.3,515.5h7v7h-7V515.5z M935.3,522.7h7v7h-7
	V522.7z M935.3,530h7v7h-7V530z M935.3,537.3h7v7h-7V537.3z M935.3,544.5h7v7h-7V544.5z M935.3,551.8h7v7h-7V551.8z M935.3,559.1h7
	v7h-7V559.1z M935.3,566.3h7v7h-7V566.3z M935.3,573.6h7v7h-7V573.6z M935.3,580.8h7v7h-7V580.8z M935.3,588.1h7v7h-7V588.1z
	 M935.3,595.3h7v7h-7V595.3z M935.3,602.6h7v7h-7V602.6z M935.3,609.8h7v7h-7V609.8z M935.3,617.1h7v7h-7V617.1z M935.3,624.4h7v7
	h-7V624.4z M935.3,631.6h7v7h-7V631.6z M935.3,638.9h7v7h-7V638.9z M935.3,646.1h7v7h-7V646.1z M935.3,653.4h7v7h-7V653.4z
	 M935.3,660.7h7v7h-7V660.7z M935.3,668h7v7h-7V668z M935.3,675.2h7v7h-7V675.2z M935.3,682.5h7v7h-7V682.5z M935.3,689.8h7v7h-7
	V689.8z M935.3,697h7v7h-7V697z M935.3,704.3h7v7h-7V704.3z M935.3,711.5h7v7h-7V711.5z M935.3,718.8h7v7h-7V718.8z M935.3,726h7v7
	h-7V726z M935.3,733.3h7v7h-7V733.3z M56.9,791.4h7v7h-7V791.4z M56.9,798.7h7v7h-7V798.7z M56.9,805.9h7v7h-7V805.9z M56.9,813.2h7
	v7h-7V813.2z M56.9,820.4h7v7h-7V820.4z M27.8,834.9h7v7h-7V834.9z M27.8,849.5h7v7h-7V849.5z M27.8,864h7v7h-7V864z M27.8,878.5h7
	v7h-7V878.5z M20.6,834.9h7v7h-7V834.9z M20.6,849.5h7v7h-7V849.5z M20.6,864h7v7h-7V864z M20.6,878.5h7v7h-7V878.5z M13.3,834.9h7
	v7h-7V834.9z M13.3,849.5h7v7h-7V849.5z M13.3,864h7v7h-7V864z M13.3,878.5h7v7h-7V878.5z M35.1,834.9h7v7h-7V834.9z M35.1,842.2h7
	v7h-7V842.2z M35.1,849.5h7v7h-7V849.5z M35.1,864h7v7h-7V864z M27.8,871.2h7v7h-7V871.2z M35.1,878.5h7v7h-7V878.5z M42.3,834.9h7
	v7h-7V834.9z M42.3,849.5h7v7h-7V849.5z M42.3,864h7v7h-7V864z M42.3,878.5h7v7h-7V878.5z M49.6,834.9h7v7h-7V834.9z M49.6,849.5h7
	v7h-7V849.5z M49.6,864h7v7h-7V864z M49.6,878.5h7v7h-7V878.5z M27.8,776.8h7v7h-7V776.8z M27.8,791.4h7v7h-7V791.4z M27.8,805.9h7
	v7h-7V805.9z M27.8,820.4h7v7h-7V820.4z M20.6,776.8h7v7h-7V776.8z M20.6,791.4h7v7h-7V791.4z M20.6,805.9h7v7h-7V805.9z
	 M20.6,820.4h7v7h-7V820.4z M13.3,776.8h7v7h-7V776.8z M13.3,791.4h7v7h-7V791.4z M13.3,805.9h7v7h-7V805.9z M13.3,820.4h7v7h-7
	V820.4z M35.1,776.8h7v7h-7V776.8z M35.1,784.1h7v7h-7V784.1z M35.1,791.4h7v7h-7V791.4z M35.1,805.9h7v7h-7V805.9z M27.8,813.1h7v7
	h-7V813.1z M35.1,820.4h7v7h-7V820.4z M42.3,776.8h7v7h-7V776.8z M42.3,791.4h7v7h-7V791.4z M42.3,805.9h7v7h-7V805.9z M42.3,820.4
	h7v7h-7V820.4z M49.6,776.8h7v7h-7V776.8z M49.6,791.4h7v7h-7V791.4z M49.6,805.9h7v7h-7V805.9z M49.6,820.4h7v7h-7V820.4z
	 M27.8,718.7h7v7h-7V718.7z M27.8,733.3h7v7h-7V733.3z M27.8,747.8h7v7h-7V747.8z M27.8,762.3h7v7h-7V762.3z M20.6,718.7h7v7h-7
	V718.7z M20.6,733.3h7v7h-7V733.3z M20.6,747.8h7v7h-7V747.8z M20.6,762.3h7v7h-7V762.3z M13.3,718.7h7v7h-7V718.7z M13.3,733.3h7v7
	h-7V733.3z M13.3,747.8h7v7h-7V747.8z M13.3,762.3h7v7h-7V762.3z M35.1,718.7h7v7h-7V718.7z M35.1,726h7v7h-7V726z M35.1,733.3h7v7
	h-7V733.3z M35.1,747.8h7v7h-7V747.8z M27.8,755h7v7h-7V755z M35.1,762.3h7v7h-7V762.3z M42.3,718.7h7v7h-7V718.7z M42.3,733.3h7v7
	h-7V733.3z M42.3,747.8h7v7h-7V747.8z M42.3,762.3h7v7h-7V762.3z M49.6,718.7h7v7h-7V718.7z M49.6,733.3h7v7h-7V733.3z M49.6,747.8
	h7v7h-7V747.8z M49.6,762.3h7v7h-7V762.3z M27.8,660.7h7v7h-7V660.7z M27.8,675.3h7v7h-7V675.3z M27.8,689.8h7v7h-7V689.8z
	 M27.8,704.3h7v7h-7V704.3z M20.6,660.7h7v7h-7V660.7z M20.6,675.3h7v7h-7V675.3z M20.6,689.8h7v7h-7V689.8z M20.6,704.3h7v7h-7
	V704.3z M13.3,660.7h7v7h-7V660.7z M13.3,675.3h7v7h-7V675.3z M13.3,689.8h7v7h-7V689.8z M13.3,704.3h7v7h-7V704.3z M35.1,660.7h7v7
	h-7V660.7z M35.1,668h7v7h-7V668z M35.1,675.3h7v7h-7V675.3z M35.1,689.8h7v7h-7V689.8z M27.8,697h7v7h-7V697z M35.1,704.3h7v7h-7
	V704.3z M42.3,660.7h7v7h-7V660.7z M42.3,675.3h7v7h-7V675.3z M42.3,689.8h7v7h-7V689.8z M42.3,704.3h7v7h-7V704.3z M49.6,660.7h7v7
	h-7V660.7z M49.6,675.3h7v7h-7V675.3z M49.6,689.8h7v7h-7V689.8z M49.6,704.3h7v7h-7V704.3z M27.8,602.6h7v7h-7V602.6z M27.8,617.2
	h7v7h-7V617.2z M27.8,631.7h7v7h-7V631.7z M27.8,646.2h7v7h-7V646.2z M20.6,602.6h7v7h-7V602.6z M20.6,617.2h7v7h-7V617.2z
	 M20.6,631.7h7v7h-7V631.7z M20.6,646.2h7v7h-7V646.2z M13.3,602.6h7v7h-7V602.6z M13.3,617.2h7v7h-7V617.2z M13.3,631.7h7v7h-7
	V631.7z M13.3,646.2h7v7h-7V646.2z M35.1,602.6h7v7h-7V602.6z M35.1,609.9h7v7h-7V609.9z M35.1,617.2h7v7h-7V617.2z M35.1,631.7h7v7
	h-7V631.7z M27.8,638.9h7v7h-7V638.9z M35.1,646.2h7v7h-7V646.2z M42.3,602.6h7v7h-7V602.6z M42.3,617.2h7v7h-7V617.2z M42.3,631.7
	h7v7h-7V631.7z M42.3,646.2h7v7h-7V646.2z M49.6,602.6h7v7h-7V602.6z M49.6,617.2h7v7h-7V617.2z M49.6,631.7h7v7h-7V631.7z
	 M49.6,646.2h7v7h-7V646.2z M27.8,544.5h7v7h-7V544.5z M27.8,559.1h7v7h-7V559.1z M27.8,573.6h7v7h-7V573.6z M27.8,588.1h7v7h-7
	V588.1z M20.6,544.5h7v7h-7V544.5z M20.6,559.1h7v7h-7V559.1z M20.6,573.6h7v7h-7V573.6z M20.6,588.1h7v7h-7V588.1z M13.3,544.5h7v7
	h-7V544.5z M13.3,559.1h7v7h-7V559.1z M13.3,573.6h7v7h-7V573.6z M13.3,588.1h7v7h-7V588.1z M35.1,544.5h7v7h-7V544.5z M35.1,551.8
	h7v7h-7V551.8z M35.1,559.1h7v7h-7V559.1z M35.1,573.6h7v7h-7V573.6z M27.8,580.8h7v7h-7V580.8z M35.1,588.1h7v7h-7V588.1z
	 M42.3,544.5h7v7h-7V544.5z M42.3,559.1h7v7h-7V559.1z M42.3,573.6h7v7h-7V573.6z M42.3,588.1h7v7h-7V588.1z M49.6,544.5h7v7h-7
	V544.5z M49.6,559.1h7v7h-7V559.1z M49.6,573.6h7v7h-7V573.6z M49.6,588.1h7v7h-7V588.1z M27.8,486.4h7v7h-7V486.4z M27.8,501h7v7
	h-7V501z M27.8,515.5h7v7h-7V515.5z M27.8,530h7v7h-7V530z M20.6,486.4h7v7h-7V486.4z M20.6,501h7v7h-7V501z M20.6,515.5h7v7h-7
	V515.5z M20.6,530h7v7h-7V530z M13.3,486.4h7v7h-7V486.4z M13.3,501h7v7h-7V501z M13.3,515.5h7v7h-7V515.5z M13.3,530h7v7h-7V530z
	 M35.1,486.4h7v7h-7V486.4z M35.1,493.7h7v7h-7V493.7z M35.1,501h7v7h-7V501z M35.1,515.5h7v7h-7V515.5z M27.8,522.7h7v7h-7V522.7z
	 M35.1,530h7v7h-7V530z M42.3,486.4h7v7h-7V486.4z M42.3,501h7v7h-7V501z M42.3,515.5h7v7h-7V515.5z M42.3,530h7v7h-7V530z
	 M49.6,486.4h7v7h-7V486.4z M49.6,501h7v7h-7V501z M49.6,515.5h7v7h-7V515.5z M49.6,530h7v7h-7V530z M27.8,428.3h7v7h-7V428.3z
	 M27.8,442.9h7v7h-7V442.9z M27.8,457.4h7v7h-7V457.4z M27.8,471.9h7v7h-7V471.9z M20.6,428.3h7v7h-7V428.3z M20.6,442.9h7v7h-7
	V442.9z M20.6,457.4h7v7h-7V457.4z M20.6,471.9h7v7h-7V471.9z M13.3,428.3h7v7h-7V428.3z M13.3,442.9h7v7h-7V442.9z M13.3,457.4h7v7
	h-7V457.4z M13.3,471.9h7v7h-7V471.9z M35.1,428.3h7v7h-7V428.3z M35.1,435.6h7v7h-7V435.6z M35.1,442.9h7v7h-7V442.9z M35.1,457.4
	h7v7h-7V457.4z M27.8,464.6h7v7h-7V464.6z M35.1,471.9h7v7h-7V471.9z M42.3,428.3h7v7h-7V428.3z M42.3,442.9h7v7h-7V442.9z
	 M42.3,457.4h7v7h-7V457.4z M42.3,471.9h7v7h-7V471.9z M49.6,428.3h7v7h-7V428.3z M49.6,442.9h7v7h-7V442.9z M49.6,457.4h7v7h-7
	V457.4z M49.6,471.9h7v7h-7V471.9z M27.8,370.3h7v7h-7V370.3z M27.8,384.9h7v7h-7V384.9z M27.8,399.4h7v7h-7V399.4z M27.8,413.9h7v7
	h-7V413.9z M20.6,370.3h7v7h-7V370.3z M20.6,384.9h7v7h-7V384.9z M20.6,399.4h7v7h-7V399.4z M20.6,413.9h7v7h-7V413.9z M13.3,370.3
	h7v7h-7V370.3z M13.3,384.9h7v7h-7V384.9z M13.3,399.4h7v7h-7V399.4z M13.3,413.9h7v7h-7V413.9z M35.1,370.3h7v7h-7V370.3z
	 M35.1,377.6h7v7h-7V377.6z M35.1,384.9h7v7h-7V384.9z M35.1,399.4h7v7h-7V399.4z M27.8,406.6h7v7h-7V406.6z M35.1,413.9h7v7h-7
	V413.9z M42.3,370.3h7v7h-7V370.3z M42.3,384.9h7v7h-7V384.9z M42.3,399.4h7v7h-7V399.4z M42.3,413.9h7v7h-7V413.9z M49.6,370.3h7v7
	h-7V370.3z M49.6,384.9h7v7h-7V384.9z M49.6,399.4h7v7h-7V399.4z M49.6,413.9h7v7h-7V413.9z M27.8,312.2h7v7h-7V312.2z M27.8,326.8
	h7v7h-7V326.8z M27.8,341.3h7v7h-7V341.3z M27.8,355.8h7v7h-7V355.8z M20.6,312.2h7v7h-7V312.2z M20.6,326.8h7v7h-7V326.8z
	 M20.6,341.3h7v7h-7V341.3z M20.6,355.8h7v7h-7V355.8z M13.3,312.2h7v7h-7V312.2z M13.3,326.8h7v7h-7V326.8z M13.3,341.3h7v7h-7
	V341.3z M13.3,355.8h7v7h-7V355.8z M35.1,312.2h7v7h-7V312.2z M35.1,319.5h7v7h-7V319.5z M35.1,326.8h7v7h-7V326.8z M35.1,341.3h7v7
	h-7V341.3z M27.8,348.5h7v7h-7V348.5z M35.1,355.8h7v7h-7V355.8z M42.3,312.2h7v7h-7V312.2z M42.3,326.8h7v7h-7V326.8z M42.3,341.3
	h7v7h-7V341.3z M42.3,355.8h7v7h-7V355.8z M49.6,312.2h7v7h-7V312.2z M49.6,326.8h7v7h-7V326.8z M49.6,341.3h7v7h-7V341.3z
	 M49.6,355.8h7v7h-7V355.8z M27.8,268.7h7v7h-7V268.7z M27.8,283.2h7v7h-7V283.2z M27.8,297.7h7v7h-7V297.7z M20.6,268.7h7v7h-7
	V268.7z M20.6,283.2h7v7h-7V283.2z M20.6,297.7h7v7h-7V297.7z M13.3,268.7h7v7h-7V268.7z M13.3,283.2h7v7h-7V283.2z M13.3,297.7h7v7
	h-7V297.7z M35.1,268.7h7v7h-7V268.7z M35.1,283.2h7v7h-7V283.2z M27.8,290.4h7v7h-7V290.4z M35.1,297.7h7v7h-7V297.7z M42.3,268.7
	h7v7h-7V268.7z M42.3,283.2h7v7h-7V283.2z M42.3,297.7h7v7h-7V297.7z M49.6,268.7h7v7h-7V268.7z M49.6,283.2h7v7h-7V283.2z
	 M49.6,297.7h7v7h-7V297.7z M56.9,827.7h7v7h-7V827.7z M56.9,834.9h7v7h-7V834.9z M56.9,842.2h7v7h-7V842.2z M56.9,849.5h7v7h-7
	V849.5z M56.9,856.7h7v7h-7V856.7z M56.9,864h7v7h-7V864z M56.9,871.2h7v7h-7V871.2z M56.9,878.5h7v7h-7V878.5z M64.1,864h7v7h-7
	V864z M64.2,856.7h7v7h-7V856.7z M71.4,871.2h7v7h-7V871.2z M71.4,856.7h7v7h-7V856.7z M78.6,864h7v7h-7V864z M78.7,856.7h7v7h-7
	V856.7z M85.9,878.5h7v7h-7V878.5z M86,856.7h7v7h-7V856.7z M93.2,864h7v7h-7V864z M93.2,856.7h7v7h-7V856.7z M100.4,871.2h7v7h-7
	V871.2z M100.5,856.7h7v7h-7V856.7z M107.7,864h7v7h-7V864z M107.7,856.7h7v7h-7V856.7z M114.9,878.5h7v7h-7V878.5z M122.2,864h7v7
	h-7V864z M129.5,871.2h7v7h-7V871.2z M136.7,864h7v7h-7V864z M144,878.5h7v7h-7V878.5z M151.3,864h7v7h-7V864z M158.5,871.2h7v7h-7
	V871.2z M165.8,864h7v7h-7V864z M173,878.5h7v7h-7V878.5z M180.3,864h7v7h-7V864z M187.6,871.2h7v7h-7V871.2z M194.8,864h7v7h-7V864
	z M202.1,878.5h7v7h-7V878.5z M209.4,864h7v7h-7V864z M216.6,871.2h7v7h-7V871.2z M223.9,864h7v7h-7V864z M231.1,878.5h7v7h-7V878.5
	z M238.4,864h7v7h-7V864z M245.7,871.2h7v7h-7V871.2z M252.9,864h7v7h-7V864z M260.2,878.5h7v7h-7V878.5z M267.5,864h7v7h-7V864z
	 M274.7,871.2h7v7h-7V871.2z M282,864h7v7h-7V864z M289.2,878.5h7v7h-7V878.5z M296.5,864h7v7h-7V864z M303.8,871.2h7v7h-7V871.2z
	 M311,864h7v7h-7V864z M318.3,878.5h7v7h-7V878.5z M325.6,864h7v7h-7V864z M332.8,871.2h7v7h-7V871.2z M340.1,864h7v7h-7V864z
	 M347.3,878.5h7v7h-7V878.5z M354.5,864h7v7h-7V864z M361.8,871.2h7v7h-7V871.2z M369,864h7v7h-7V864z M376.3,878.5h7v7h-7V878.5z
	 M383.6,864h7v7h-7V864z M390.8,871.2h7v7h-7V871.2z M398.1,864h7v7h-7V864z M405.3,878.5h7v7h-7V878.5z M412.6,864h7v7h-7V864z
	 M419.9,871.2h7v7h-7V871.2z M427.1,864h7v7h-7V864z M434.4,878.5h7v7h-7V878.5z M441.7,864h7v7h-7V864z M448.9,871.2h7v7h-7V871.2z
	 M456.2,864h7v7h-7V864z M463.4,878.5h7v7h-7V878.5z M470.7,864h7v7h-7V864z M478,871.2h7v7h-7V871.2z M485.2,864h7v7h-7V864z
	 M492.5,878.5h7v7h-7V878.5z M499.8,864h7v7h-7V864z M507,871.2h7v7h-7V871.2z M514.3,864h7v7h-7V864z M521.5,878.5h7v7h-7V878.5z
	 M528.8,864h7v7h-7V864z M536.1,871.2h7v7h-7V871.2z M543.3,864h7v7h-7V864z M550.6,878.5h7v7h-7V878.5z M557.9,864h7v7h-7V864z
	 M565.1,871.2h7v7h-7V871.2z M572.4,864h7v7h-7V864z M579.6,878.5h7v7h-7V878.5z M586.9,864h7v7h-7V864z M594.2,871.2h7v7h-7V871.2z
	 M601.4,864h7v7h-7V864z M608.7,878.5h7v7h-7V878.5z M616,864h7v7h-7V864z M623.2,871.2h7v7h-7V871.2z M630.5,864h7v7h-7V864z
	 M637.7,878.5h7v7h-7V878.5z M644.9,864h7v7h-7V864z M652.2,871.2h7v7h-7V871.2z M659.4,864h7v7h-7V864z M666.7,878.5h7v7h-7V878.5z
	 M674,864h7v7h-7V864z M681.2,871.2h7v7h-7V871.2z M688.5,864h7v7h-7V864z M695.7,878.5h7v7h-7V878.5z M703,864h7v7h-7V864z
	 M710.3,871.2h7v7h-7V871.2z M717.5,864h7v7h-7V864z M724.8,878.5h7v7h-7V878.5z M732.1,864h7v7h-7V864z M739.3,871.2h7v7h-7V871.2z
	 M746.6,864h7v7h-7V864z M753.8,878.5h7v7h-7V878.5z M761.1,864h7v7h-7V864z M768.4,871.2h7v7h-7V871.2z M775.6,864h7v7h-7V864z
	 M782.9,878.5h7v7h-7V878.5z M790.2,864h7v7h-7V864z M797.4,871.2h7v7h-7V871.2z M804.7,864h7v7h-7V864z M811.9,878.5h7v7h-7V878.5z
	 M819.2,864h7v7h-7V864z M826.5,871.2h7v7h-7V871.2z M833.7,864h7v7h-7V864z M841,878.5h7v7h-7V878.5z M848.3,864h7v7h-7V864z
	 M855.5,871.2h7v7h-7V871.2z M862.8,864h7v7h-7V864z M870,878.5h7v7h-7V878.5z M877.3,864h7v7h-7V864z M884.6,871.2h7v7h-7V871.2z
	 M891.8,864h7v7h-7V864z M899.1,878.5h7v7h-7V878.5z M906.4,864h7v7h-7V864z M913.6,871.2h7v7h-7V871.2z M920.9,864h7v7h-7V864z
	 M928.1,878.5h7v7h-7V878.5z M115,856.7h7v7h-7V856.7z M122.2,856.7h7v7h-7V856.7z M129.5,856.7h7v7h-7V856.7z M136.7,856.7h7v7h-7
	V856.7z M144,856.7h7v7h-7V856.7z M151.3,856.7h7v7h-7V856.7z M158.5,856.7h7v7h-7V856.7z M165.8,856.7h7v7h-7V856.7z M173,856.7h7
	v7h-7V856.7z M180.3,856.7h7v7h-7V856.7z M187.6,856.7h7v7h-7V856.7z M194.8,856.7h7v7h-7V856.7z M202.1,856.7h7v7h-7V856.7z
	 M209.3,856.7h7v7h-7V856.7z M216.6,856.7h7v7h-7V856.7z M223.9,856.7h7v7h-7V856.7z M231.1,856.7h7v7h-7V856.7z M238.4,856.7h7v7
	h-7V856.7z M245.6,856.7h7v7h-7V856.7z M252.9,856.7h7v7h-7V856.7z M260.2,856.7h7v7h-7V856.7z M267.4,856.7h7v7h-7V856.7z
	 M274.7,856.7h7v7h-7V856.7z M281.9,856.7h7v7h-7V856.7z M289.2,856.7h7v7h-7V856.7z M296.5,856.7h7v7h-7V856.7z M303.7,856.7h7v7
	h-7V856.7z M311,856.7h7v7h-7V856.7z M318.2,856.7h7v7h-7V856.7z M325.5,856.7h7v7h-7V856.7z M332.8,856.7h7v7h-7V856.7z M340,856.7
	h7v7h-7V856.7z M347.3,856.7h7v7h-7V856.7z M354.5,856.7h7v7h-7V856.7z M361.8,856.7h7v7h-7V856.7z M369.1,856.7h7v7h-7V856.7z
	 M376.3,856.7h7v7h-7V856.7z M383.6,856.7h7v7h-7V856.7z M390.8,856.7h7v7h-7V856.7z M398.1,856.7h7v7h-7V856.7z M405.4,856.7h7v7
	h-7V856.7z M412.6,856.7h7v7h-7V856.7z M419.9,856.7h7v7h-7V856.7z M427.1,856.7h7v7h-7V856.7z M434.4,856.7h7v7h-7V856.7z
	 M441.7,856.7h7v7h-7V856.7z M448.9,856.7h7v7h-7V856.7z M456.2,856.7h7v7h-7V856.7z M463.4,856.7h7v7h-7V856.7z M470.7,856.7h7v7
	h-7V856.7z M478,856.7h7v7h-7V856.7z M485.2,856.7h7v7h-7V856.7z M492.5,856.7h7v7h-7V856.7z M499.7,856.7h7v7h-7V856.7z M507,856.7
	h7v7h-7V856.7z M514.3,856.7h7v7h-7V856.7z M521.5,856.7h7v7h-7V856.7z M528.8,856.7h7v7h-7V856.7z M536,856.7h7v7h-7V856.7z
	 M543.3,856.7h7v7h-7V856.7z M550.6,856.7h7v7h-7V856.7z M557.8,856.7h7v7h-7V856.7z M565.1,856.7h7v7h-7V856.7z M572.3,856.7h7v7
	h-7V856.7z M579.6,856.7h7v7h-7V856.7z M586.9,856.7h7v7h-7V856.7z M594.1,856.7h7v7h-7V856.7z M601.4,856.7h7v7h-7V856.7z
	 M608.6,856.7h7v7h-7V856.7z M615.9,856.7h7v7h-7V856.7z M623.2,856.7h7v7h-7V856.7z M630.4,856.7h7v7h-7V856.7z M637.7,856.7h7v7
	h-7V856.7z M644.9,856.7h7v7h-7V856.7z M652.2,856.7h7v7h-7V856.7z M659.5,856.7h7v7h-7V856.7z M666.7,856.7h7v7h-7V856.7z
	 M674,856.7h7v7h-7V856.7z M681.2,856.7h7v7h-7V856.7z M688.5,856.7h7v7h-7V856.7z M695.8,856.7h7v7h-7V856.7z M703,856.7h7v7h-7
	V856.7z M710.3,856.7h7v7h-7V856.7z M717.5,856.7h7v7h-7V856.7z M724.8,856.7h7v7h-7V856.7z M732.1,856.7h7v7h-7V856.7z
	 M739.3,856.7h7v7h-7V856.7z M746.6,856.7h7v7h-7V856.7z M753.8,856.7h7v7h-7V856.7z M761.1,856.7h7v7h-7V856.7z M768.4,856.7h7v7
	h-7V856.7z M775.6,856.7h7v7h-7V856.7z M782.9,856.7h7v7h-7V856.7z M790.1,856.7h7v7h-7V856.7z M797.4,856.7h7v7h-7V856.7z
	 M804.7,856.7h7v7h-7V856.7z M811.9,856.7h7v7h-7V856.7z M819.2,856.7h7v7h-7V856.7z M826.4,856.7h7v7h-7V856.7z M833.7,856.7h7v7
	h-7V856.7z M841,856.7h7v7h-7V856.7z M848.2,856.7h7v7h-7V856.7z M855.5,856.7h7v7h-7V856.7z M862.7,856.7h7v7h-7V856.7z M870,856.7
	h7v7h-7V856.7z M877.3,856.7h7v7h-7V856.7z M884.5,856.7h7v7h-7V856.7z M891.8,856.7h7v7h-7V856.7z M899,856.7h7v7h-7V856.7z
	 M906.3,856.7h7v7h-7V856.7z M913.6,856.7h7v7h-7V856.7z M920.8,856.7h7v7h-7V856.7z M928,856.7h7v7h-7V856.7z M935.3,740.4h7v7h-7
	V740.4z M935.3,747.7h7v7h-7V747.7z M935.3,755h7v7h-7V755z M935.3,762.2h7v7h-7V762.2z M935.3,769.5h7v7h-7V769.5z M935.3,776.7h7
	v7h-7V776.7z M935.3,784h7v7h-7V784z M935.3,791.3h7v7h-7V791.3z M935.3,798.6h7v7h-7V798.6z M935.3,805.8h7v7h-7V805.8z
	 M935.3,813.1h7v7h-7V813.1z M935.3,820.3h7v7h-7V820.3z M964.4,834.8h7v7h-7V834.8z M964.4,849.4h7v7h-7V849.4z M964.4,863.9h7v7
	h-7V863.9z M964.4,878.4h7v7h-7V878.4z M971.7,834.8h7v7h-7V834.8z M971.7,849.4h7v7h-7V849.4z M971.7,863.9h7v7h-7V863.9z
	 M971.7,878.4h7v7h-7V878.4z M978.9,834.8h7v7h-7V834.8z M978.9,849.4h7v7h-7V849.4z M978.9,863.9h7v7h-7V863.9z M978.9,878.4h7v7
	h-7V878.4z M957.1,834.8h7v7h-7V834.8z M964.4,842.1h7v7h-7V842.1z M957.1,849.4h7v7h-7V849.4z M957.1,863.9h7v7h-7V863.9z
	 M957.1,871.1h7v7h-7V871.1z M957.1,878.4h7v7h-7V878.4z M949.9,834.8h7v7h-7V834.8z M949.9,849.4h7v7h-7V849.4z M949.9,863.9h7v7
	h-7V863.9z M949.9,878.4h7v7h-7V878.4z M942.6,834.8h7v7h-7V834.8z M942.6,849.4h7v7h-7V849.4z M942.6,863.9h7v7h-7V863.9z
	 M942.6,878.4h7v7h-7V878.4z M964.4,776.7h7v7h-7V776.7z M964.4,791.3h7v7h-7V791.3z M964.4,805.8h7v7h-7V805.8z M964.4,820.3h7v7
	h-7V820.3z M971.7,776.7h7v7h-7V776.7z M971.7,791.3h7v7h-7V791.3z M971.7,805.8h7v7h-7V805.8z M971.7,820.3h7v7h-7V820.3z
	 M978.9,776.7h7v7h-7V776.7z M978.9,791.3h7v7h-7V791.3z M978.9,805.8h7v7h-7V805.8z M978.9,820.3h7v7h-7V820.3z M957.1,776.7h7v7
	h-7V776.7z M964.4,784h7v7h-7V784z M957.1,791.3h7v7h-7V791.3z M957.1,805.8h7v7h-7V805.8z M957.1,813h7v7h-7V813z M957.1,820.3h7v7
	h-7V820.3z M949.9,776.7h7v7h-7V776.7z M949.9,791.3h7v7h-7V791.3z M949.9,805.8h7v7h-7V805.8z M949.9,820.3h7v7h-7V820.3z
	 M942.6,776.7h7v7h-7V776.7z M942.6,791.3h7v7h-7V791.3z M942.6,805.8h7v7h-7V805.8z M942.6,820.3h7v7h-7V820.3z M964.4,718.6h7v7
	h-7V718.6z M964.4,733.2h7v7h-7V733.2z M964.4,747.7h7v7h-7V747.7z M964.4,762.2h7v7h-7V762.2z M971.7,718.6h7v7h-7V718.6z
	 M971.7,733.2h7v7h-7V733.2z M971.7,747.7h7v7h-7V747.7z M971.7,762.2h7v7h-7V762.2z M978.9,718.6h7v7h-7V718.6z M978.9,733.2h7v7
	h-7V733.2z M978.9,747.7h7v7h-7V747.7z M978.9,762.2h7v7h-7V762.2z M957.1,718.6h7v7h-7V718.6z M964.4,725.9h7v7h-7V725.9z
	 M957.1,733.2h7v7h-7V733.2z M957.1,747.7h7v7h-7V747.7z M957.1,754.9h7v7h-7V754.9z M957.1,762.2h7v7h-7V762.2z M949.9,718.6h7v7
	h-7V718.6z M949.9,733.2h7v7h-7V733.2z M949.9,747.7h7v7h-7V747.7z M949.9,762.2h7v7h-7V762.2z M942.6,718.6h7v7h-7V718.6z
	 M942.6,733.2h7v7h-7V733.2z M942.6,747.7h7v7h-7V747.7z M942.6,762.2h7v7h-7V762.2z M964.4,660.6h7v7h-7V660.6z M964.4,675.2h7v7
	h-7V675.2z M964.4,689.7h7v7h-7V689.7z M964.4,704.2h7v7h-7V704.2z M971.7,660.6h7v7h-7V660.6z M971.7,675.2h7v7h-7V675.2z
	 M971.7,689.7h7v7h-7V689.7z M971.7,704.2h7v7h-7V704.2z M978.9,660.6h7v7h-7V660.6z M978.9,675.2h7v7h-7V675.2z M978.9,689.7h7v7
	h-7V689.7z M978.9,704.2h7v7h-7V704.2z M957.1,660.6h7v7h-7V660.6z M964.4,667.9h7v7h-7V667.9z M957.1,675.2h7v7h-7V675.2z
	 M957.1,689.7h7v7h-7V689.7z M957.1,696.9h7v7h-7V696.9z M957.1,704.2h7v7h-7V704.2z M949.9,660.6h7v7h-7V660.6z M949.9,675.2h7v7
	h-7V675.2z M949.9,689.7h7v7h-7V689.7z M949.9,704.2h7v7h-7V704.2z M942.6,660.6h7v7h-7V660.6z M942.6,675.2h7v7h-7V675.2z
	 M942.6,689.7h7v7h-7V689.7z M942.6,704.2h7v7h-7V704.2z M964.4,602.5h7v7h-7V602.5z M964.4,617.1h7v7h-7V617.1z M964.4,631.6h7v7
	h-7V631.6z M964.4,646.1h7v7h-7V646.1z M971.7,602.5h7v7h-7V602.5z M971.7,617.1h7v7h-7V617.1z M971.7,631.6h7v7h-7V631.6z
	 M971.7,646.1h7v7h-7V646.1z M978.9,602.5h7v7h-7V602.5z M978.9,617.1h7v7h-7V617.1z M978.9,631.6h7v7h-7V631.6z M978.9,646.1h7v7
	h-7V646.1z M957.1,602.5h7v7h-7V602.5z M964.4,609.8h7v7h-7V609.8z M957.1,617.1h7v7h-7V617.1z M957.1,631.6h7v7h-7V631.6z
	 M957.1,638.8h7v7h-7V638.8z M957.1,646.1h7v7h-7V646.1z M949.9,602.5h7v7h-7V602.5z M949.9,617.1h7v7h-7V617.1z M949.9,631.6h7v7
	h-7V631.6z M949.9,646.1h7v7h-7V646.1z M942.6,602.5h7v7h-7V602.5z M942.6,617.1h7v7h-7V617.1z M942.6,631.6h7v7h-7V631.6z
	 M942.6,646.1h7v7h-7V646.1z M964.4,544.4h7v7h-7V544.4z M964.4,559h7v7h-7V559z M964.4,573.5h7v7h-7V573.5z M964.4,588h7v7h-7V588z
	 M971.7,544.4h7v7h-7V544.4z M971.7,559h7v7h-7V559z M971.7,573.5h7v7h-7V573.5z M971.7,588h7v7h-7V588z M978.9,544.4h7v7h-7V544.4z
	 M978.9,559h7v7h-7V559z M978.9,573.5h7v7h-7V573.5z M978.9,588h7v7h-7V588z M957.1,544.4h7v7h-7V544.4z M964.4,551.7h7v7h-7V551.7z
	 M957.1,559h7v7h-7V559z M957.1,573.5h7v7h-7V573.5z M957.1,580.7h7v7h-7V580.7z M957.1,588h7v7h-7V588z M949.9,544.4h7v7h-7V544.4z
	 M949.9,559h7v7h-7V559z M949.9,573.5h7v7h-7V573.5z M949.9,588h7v7h-7V588z M942.6,544.4h7v7h-7V544.4z M942.6,559h7v7h-7V559z
	 M942.6,573.5h7v7h-7V573.5z M942.6,588h7v7h-7V588z M964.4,486.3h7v7h-7V486.3z M964.4,500.9h7v7h-7V500.9z M964.4,515.4h7v7h-7
	V515.4z M964.4,529.9h7v7h-7V529.9z M971.7,486.3h7v7h-7V486.3z M971.7,500.9h7v7h-7V500.9z M971.7,515.4h7v7h-7V515.4z
	 M971.7,529.9h7v7h-7V529.9z M978.9,486.3h7v7h-7V486.3z M978.9,500.9h7v7h-7V500.9z M978.9,515.4h7v7h-7V515.4z M978.9,529.9h7v7
	h-7V529.9z M957.1,486.3h7v7h-7V486.3z M964.4,493.6h7v7h-7V493.6z M957.1,500.9h7v7h-7V500.9z M957.1,515.4h7v7h-7V515.4z
	 M957.1,522.6h7v7h-7V522.6z M957.1,529.9h7v7h-7V529.9z M949.9,486.3h7v7h-7V486.3z M949.9,500.9h7v7h-7V500.9z M949.9,515.4h7v7
	h-7V515.4z M949.9,529.9h7v7h-7V529.9z M942.6,486.3h7v7h-7V486.3z M942.6,500.9h7v7h-7V500.9z M942.6,515.4h7v7h-7V515.4z
	 M942.6,529.9h7v7h-7V529.9z M964.4,428.2h7v7h-7V428.2z M964.4,442.8h7v7h-7V442.8z M964.4,457.3h7v7h-7V457.3z M964.4,471.8h7v7
	h-7V471.8z M971.7,428.2h7v7h-7V428.2z M971.7,442.8h7v7h-7V442.8z M971.7,457.3h7v7h-7V457.3z M971.7,471.8h7v7h-7V471.8z
	 M978.9,428.2h7v7h-7V428.2z M978.9,442.8h7v7h-7V442.8z M978.9,457.3h7v7h-7V457.3z M978.9,471.8h7v7h-7V471.8z M957.1,428.2h7v7
	h-7V428.2z M964.4,435.5h7v7h-7V435.5z M957.1,442.8h7v7h-7V442.8z M957.1,457.3h7v7h-7V457.3z M957.1,464.5h7v7h-7V464.5z
	 M957.1,471.8h7v7h-7V471.8z M949.9,428.2h7v7h-7V428.2z M949.9,442.8h7v7h-7V442.8z M949.9,457.3h7v7h-7V457.3z M949.9,471.8h7v7
	h-7V471.8z M942.6,428.2h7v7h-7V428.2z M942.6,442.8h7v7h-7V442.8z M942.6,457.3h7v7h-7V457.3z M942.6,471.8h7v7h-7V471.8z
	 M964.4,370.2h7v7h-7V370.2z M964.4,384.8h7v7h-7V384.8z M964.4,399.3h7v7h-7V399.3z M964.4,413.8h7v7h-7V413.8z M971.7,370.2h7v7
	h-7V370.2z M971.7,384.8h7v7h-7V384.8z M971.7,399.3h7v7h-7V399.3z M971.7,413.8h7v7h-7V413.8z M978.9,370.2h7v7h-7V370.2z
	 M978.9,384.8h7v7h-7V384.8z M978.9,399.3h7v7h-7V399.3z M978.9,413.8h7v7h-7V413.8z M957.1,370.2h7v7h-7V370.2z M964.4,377.5h7v7
	h-7V377.5z M957.1,384.8h7v7h-7V384.8z M957.1,399.3h7v7h-7V399.3z M957.1,406.5h7v7h-7V406.5z M957.1,413.8h7v7h-7V413.8z
	 M949.9,370.2h7v7h-7V370.2z M949.9,384.8h7v7h-7V384.8z M949.9,399.3h7v7h-7V399.3z M949.9,413.8h7v7h-7V413.8z M942.6,370.2h7v7
	h-7V370.2z M942.6,384.8h7v7h-7V384.8z M942.6,399.3h7v7h-7V399.3z M942.6,413.8h7v7h-7V413.8z M964.4,312.1h7v7h-7V312.1z
	 M964.4,326.7h7v7h-7V326.7z M964.4,341.2h7v7h-7V341.2z M964.4,355.7h7v7h-7V355.7z M971.7,312.1h7v7h-7V312.1z M971.7,326.7h7v7
	h-7V326.7z M971.7,341.2h7v7h-7V341.2z M971.7,355.7h7v7h-7V355.7z M978.9,312.1h7v7h-7V312.1z M978.9,326.7h7v7h-7V326.7z
	 M978.9,341.2h7v7h-7V341.2z M978.9,355.7h7v7h-7V355.7z M957.1,312.1h7v7h-7V312.1z M964.4,319.4h7v7h-7V319.4z M957.1,326.7h7v7
	h-7V326.7z M957.1,341.2h7v7h-7V341.2z M957.1,348.4h7v7h-7V348.4z M957.1,355.7h7v7h-7V355.7z M949.9,312.1h7v7h-7V312.1z
	 M949.9,326.7h7v7h-7V326.7z M949.9,341.2h7v7h-7V341.2z M949.9,355.7h7v7h-7V355.7z M942.6,312.1h7v7h-7V312.1z M942.6,326.7h7v7
	h-7V326.7z M942.6,341.2h7v7h-7V341.2z M942.6,355.7h7v7h-7V355.7z M964.4,268.6h7v7h-7V268.6z M964.4,283.1h7v7h-7V283.1z
	 M964.4,297.6h7v7h-7V297.6z M971.7,268.6h7v7h-7V268.6z M971.7,283.1h7v7h-7V283.1z M971.7,297.6h7v7h-7V297.6z M978.9,268.6h7v7
	h-7V268.6z M978.9,283.1h7v7h-7V283.1z M978.9,297.6h7v7h-7V297.6z M957.1,268.6h7v7h-7V268.6z M957.1,283.1h7v7h-7V283.1z
	 M957.1,290.3h7v7h-7V290.3z M957.1,297.6h7v7h-7V297.6z M949.9,268.6h7v7h-7V268.6z M949.9,283.1h7v7h-7V283.1z M949.9,297.6h7v7
	h-7V297.6z M942.6,268.6h7v7h-7V268.6z M942.6,283.1h7v7h-7V283.1z M942.6,297.6h7v7h-7V297.6z M935.3,827.6h7v7h-7V827.6z
	 M935.3,834.8h7v7h-7V834.8z M935.3,842.1h7v7h-7V842.1z M935.3,849.4h7v7h-7V849.4z M935.3,856.6h7v7h-7V856.6z M935.3,863.9h7v7
	h-7V863.9z M935.3,871.1h7v7h-7V871.1z M935.3,878.4h7v7h-7V878.4z M35.2,14.7h7v7h-7V14.7z M35.2,22h7v7h-7V22z M35.2,29.3h7v7h-7
	V29.3z M35.2,36.4h7v7h-7V36.4z M35.2,43.7h7v7h-7V43.7z M35.2,51.1h7v7h-7V51.1z M35.2,58.2h7v7h-7V58.2z M35.2,65.6h7v7h-7V65.6z
	 M35.2,72.8h7v7h-7V72.8z M35.2,80.1h7v7h-7V80.1z M35.2,87.3h7v7h-7V87.3z M42.4,14.7h7v7h-7V14.7z M42.4,87.3h7v7h-7V87.3z
	 M42.3,7.4h7v7h-7V7.4z M42.3,94.5h7v7h-7V94.5z M49.6,7.4h7v7h-7V7.4z M49.6,94.5h7v7h-7V94.5z M56.9,7.4h7v7h-7V7.4z M56.9,94.5h7
	v7h-7V94.5z M64.1,7.4h7v7h-7V7.4z M64.1,94.5h7v7h-7V94.5z M71.4,7.4h7v7h-7V7.4z M71.4,94.5h7v7h-7V94.5z M78.6,7.4h7v7h-7V7.4z
	 M78.6,94.5h7v7h-7V94.5z M85.9,7.4h7v7h-7V7.4z M85.9,94.5h7v7h-7V94.5z M93.2,7.4h7v7h-7V7.4z M93.2,94.5h7v7h-7V94.5z M100.4,7.4
	h7v7h-7V7.4z M100.4,94.5h7v7h-7V94.5z M107.7,7.4h7v7h-7V7.4z M107.7,94.5h7v7h-7V94.5z M114.9,7.4h7v7h-7V7.4z M114.9,94.5h7v7h-7
	V94.5z M122.2,7.4h7v7h-7V7.4z M122.2,94.5h7v7h-7V94.5z M129.5,7.4h7v7h-7V7.4z M129.5,94.5h7v7h-7V94.5z M136.7,7.4h7v7h-7V7.4z
	 M136.7,94.5h7v7h-7V94.5z M144,7.4h7v7h-7V7.4z M144,94.5h7v7h-7V94.5z M151.2,7.4h7v7h-7V7.4z M151.2,94.5h7v7h-7V94.5z
	 M158.5,7.4h7v7h-7V7.4z M158.5,94.5h7v7h-7V94.5z M165.8,7.4h7v7h-7V7.4z M165.8,94.5h7v7h-7V94.5z M173,7.4h7v7h-7V7.4z M173,94.5
	h7v7h-7V94.5z M180.3,7.4h7v7h-7V7.4z M180.3,94.5h7v7h-7V94.5z M187.5,7.4h7v7h-7V7.4z M187.5,94.5h7v7h-7V94.5z M194.8,7.4h7v7h-7
	V7.4z M194.8,94.5h7v7h-7V94.5z M202.1,7.4h7v7h-7V7.4z M202.1,94.5h7v7h-7V94.5z M209.3,7.4h7v7h-7V7.4z M209.3,94.5h7v7h-7V94.5z
	 M216.6,7.4h7v7h-7V7.4z M216.6,94.5h7v7h-7V94.5z M223.8,7.4h7v7h-7V7.4z M223.8,94.5h7v7h-7V94.5z M231.1,7.4h7v7h-7V7.4z
	 M231.1,94.5h7v7h-7V94.5z M238.4,7.4h7v7h-7V7.4z M238.4,94.5h7v7h-7V94.5z M245.6,7.4h7v7h-7V7.4z M245.6,94.5h7v7h-7V94.5z
	 M252.9,7.4h7v7h-7V7.4z M252.9,94.5h7v7h-7V94.5z M260.1,7.4h7v7h-7V7.4z M260.1,94.5h7v7h-7V94.5z M267.4,7.4h7v7h-7V7.4z
	 M267.4,94.5h7v7h-7V94.5z M274.7,7.4h7v7h-7V7.4z M274.7,94.5h7v7h-7V94.5z M281.9,7.4h7v7h-7V7.4z M281.9,94.5h7v7h-7V94.5z
	 M289.2,7.4h7v7h-7V7.4z M289.2,94.5h7v7h-7V94.5z M296.4,7.4h7v7h-7V7.4z M296.4,94.5h7v7h-7V94.5z M303.7,7.4h7v7h-7V7.4z
	 M303.7,94.5h7v7h-7V94.5z M311,7.4h7v7h-7V7.4z M311,94.5h7v7h-7V94.5z M318.2,7.4h7v7h-7V7.4z M318.2,94.5h7v7h-7V94.5z
	 M325.5,7.4h7v7h-7V7.4z M325.5,94.5h7v7h-7V94.5z M332.7,7.4h7v7h-7V7.4z M332.7,94.5h7v7h-7V94.5z M340,7.4h7v7h-7V7.4z M340,94.5
	h7v7h-7V94.5z M347.3,7.4h7v7h-7V7.4z M347.3,94.5h7v7h-7V94.5z M354.5,7.4h7v7h-7V7.4z M354.5,94.5h7v7h-7V94.5z M361.7,7.4h7v7h-7
	V7.4z M361.7,94.5h7v7h-7V94.5z M369.1,7.4h7v7h-7V7.4z M369.1,94.5h7v7h-7V94.5z M376.3,7.4h7v7h-7V7.4z M376.3,94.5h7v7h-7V94.5z
	 M383.6,7.4h7v7h-7V7.4z M383.6,94.5h7v7h-7V94.5z M390.7,7.4h7v7h-7V7.4z M390.7,94.5h7v7h-7V94.5z M398.1,7.4h7v7h-7V7.4z
	 M398.1,94.5h7v7h-7V94.5z M405.4,7.4h7v7h-7V7.4z M405.4,94.5h7v7h-7V94.5z M412.6,7.4h7v7h-7V7.4z M412.6,94.5h7v7h-7V94.5z
	 M419.9,7.4h7v7h-7V7.4z M419.9,94.5h7v7h-7V94.5z M427.1,7.4h7v7h-7V7.4z M427.1,94.5h7v7h-7V94.5z M434.4,7.4h7v7h-7V7.4z
	 M434.4,94.5h7v7h-7V94.5z M441.7,7.4h7v7h-7V7.4z M441.7,94.5h7v7h-7V94.5z M448.9,7.4h7v7h-7V7.4z M448.9,94.5h7v7h-7V94.5z
	 M456.2,7.4h7v7h-7V7.4z M456.2,94.5h7v7h-7V94.5z M463.4,7.4h7v7h-7V7.4z M463.4,94.5h7v7h-7V94.5z M470.7,7.4h7v7h-7V7.4z
	 M470.7,94.5h7v7h-7V94.5z M478,7.4h7v7h-7V7.4z M478,94.5h7v7h-7V94.5z M485.2,7.4h7v7h-7V7.4z M485.2,94.5h7v7h-7V94.5z
	 M492.5,7.4h7v7h-7V7.4z M492.5,94.5h7v7h-7V94.5z M499.7,7.4h7v7h-7V7.4z M499.7,94.5h7v7h-7V94.5z M507,7.4h7v7h-7V7.4z M507,94.5
	h7v7h-7V94.5z M514.3,7.4h7v7h-7V7.4z M514.3,94.5h7v7h-7V94.5z M521.5,7.4h7v7h-7V7.4z M521.5,94.5h7v7h-7V94.5z M528.7,7.4h7v7h-7
	V7.4z M528.7,94.5h7v7h-7V94.5z M536,7.4h7v7h-7V7.4z M536,94.5h7v7h-7V94.5z M543.3,7.4h7v7h-7V7.4z M543.3,94.5h7v7h-7V94.5z
	 M550.6,7.4h7v7h-7V7.4z M550.6,94.5h7v7h-7V94.5z M557.7,7.4h7v7h-7V7.4z M557.7,94.5h7v7h-7V94.5z M565.1,7.4h7v7h-7V7.4z
	 M565.1,94.5h7v7h-7V94.5z M572.3,7.4h7v7h-7V7.4z M572.3,94.5h7v7h-7V94.5z M579.6,7.4h7v7h-7V7.4z M579.6,94.5h7v7h-7V94.5z
	 M586.9,7.4h7v7h-7V7.4z M586.9,94.5h7v7h-7V94.5z M594.1,7.4h7v7h-7V7.4z M594.1,94.5h7v7h-7V94.5z M601.4,7.4h7v7h-7V7.4z
	 M601.4,94.5h7v7h-7V94.5z M608.6,7.4h7v7h-7V7.4z M608.6,94.5h7v7h-7V94.5z M615.9,7.4h7v7h-7V7.4z M615.9,94.5h7v7h-7V94.5z
	 M623.2,7.4h7v7h-7V7.4z M623.2,94.5h7v7h-7V94.5z M630.4,7.4h7v7h-7V7.4z M630.4,94.5h7v7h-7V94.5z M637.7,7.4h7v7h-7V7.4z
	 M637.7,94.5h7v7h-7V94.5z M644.9,7.4h7v7h-7V7.4z M644.9,94.5h7v7h-7V94.5z M652.2,7.4h7v7h-7V7.4z M652.2,94.5h7v7h-7V94.5z
	 M659.5,7.4h7v7h-7V7.4z M659.5,94.5h7v7h-7V94.5z M666.7,7.4h7v7h-7V7.4z M666.7,94.5h7v7h-7V94.5z M674,7.4h7v7h-7V7.4z M674,94.5
	h7v7h-7V94.5z M681.2,7.4h7v7h-7V7.4z M681.2,94.5h7v7h-7V94.5z M688.5,7.4h7v7h-7V7.4z M688.5,94.5h7v7h-7V94.5z M695.8,7.4h7v7h-7
	V7.4z M695.8,94.5h7v7h-7V94.5z M703,7.4h7v7h-7V7.4z M703,94.5h7v7h-7V94.5z M710.3,7.4h7v7h-7V7.4z M710.3,94.5h7v7h-7V94.5z
	 M717.5,7.4h7v7h-7V7.4z M717.5,94.5h7v7h-7V94.5z M724.8,7.4h7v7h-7V7.4z M724.8,94.5h7v7h-7V94.5z M732.1,7.4h7v7h-7V7.4z
	 M732.1,94.5h7v7h-7V94.5z M739.3,7.4h7v7h-7V7.4z M739.3,94.5h7v7h-7V94.5z M746.6,7.4h7v7h-7V7.4z M746.6,94.5h7v7h-7V94.5z
	 M753.8,7.4h7v7h-7V7.4z M753.8,94.5h7v7h-7V94.5z M761.1,7.4h7v7h-7V7.4z M761.1,94.5h7v7h-7V94.5z M768.3,7.4h7v7h-7V7.4z
	 M768.3,94.5h7v7h-7V94.5z M775.6,7.4h7v7h-7V7.4z M775.6,94.5h7v7h-7V94.5z M782.8,7.4h7v7h-7V7.4z M782.8,94.5h7v7h-7V94.5z
	 M790.1,7.4h7v7h-7V7.4z M790.1,94.5h7v7h-7V94.5z M797.3,7.4h7v7h-7V7.4z M797.3,94.5h7v7h-7V94.5z M804.7,7.4h7v7h-7V7.4z
	 M804.7,94.5h7v7h-7V94.5z M811.8,7.4h7v7h-7V7.4z M811.8,94.5h7v7h-7V94.5z M819.2,7.4h7v7h-7V7.4z M819.2,94.5h7v7h-7V94.5z
	 M826.3,7.4h7v7h-7V7.4z M826.3,94.5h7v7h-7V94.5z M833.7,7.4h7v7h-7V7.4z M833.7,94.5h7v7h-7V94.5z M840.9,7.4h7v7h-7V7.4z
	 M840.9,94.5h7v7h-7V94.5z M848.2,7.4h7v7h-7V7.4z M848.2,94.5h7v7h-7V94.5z M855.4,7.4h7v7h-7V7.4z M855.4,94.5h7v7h-7V94.5z
	 M862.7,7.4h7v7h-7V7.4z M862.7,94.5h7v7h-7V94.5z M869.9,7.4h7v7h-7V7.4z M869.9,94.5h7v7h-7V94.5z M877.3,7.4h7v7h-7V7.4z
	 M877.3,94.5h7v7h-7V94.5z M884.4,7.4h7v7h-7V7.4z M884.4,94.5h7v7h-7V94.5z M891.7,7.4h7v7h-7V7.4z M891.7,94.5h7v7h-7V94.5z
	 M898.9,7.4h7v7h-7V7.4z M898.9,94.5h7v7h-7V94.5z M906.3,7.4h7v7h-7V7.4z M906.3,94.5h7v7h-7V94.5z M913.6,7.4h7v7h-7V7.4z
	 M913.6,94.5h7v7h-7V94.5z M920.7,7.4h7v7h-7V7.4z M920.7,94.5h7v7h-7V94.5z M928.1,7.4h7v7h-7V7.4z M928.1,94.5h7v7h-7V94.5z
	 M935.3,7.4h7v7h-7V7.4z M935.3,94.5h7v7h-7V94.5z M942.6,7.4h7v7h-7V7.4z M942.6,94.5h7v7h-7V94.5z M949.8,7.4h7v7h-7V7.4z
	 M949.8,14.6h7v7h-7V14.6z M949.8,87.3h7v7h-7V87.3z M949.8,94.5h7v7h-7V94.5z M957.1,14.6h7v7h-7V14.6z M957.1,21.9h7v7h-7V21.9z
	 M957.1,29.2h7v7h-7V29.2z M957.1,36.4h7v7h-7V36.4z M957.1,43.7h7v7h-7V43.7z M957.1,51h7v7h-7V51z M957.1,58.2h7v7h-7V58.2z
	 M957.1,65.5h7v7h-7V65.5z M957.1,72.7h7v7h-7V72.7z M957.1,80h7v7h-7V80z M957.1,87.3h7v7h-7V87.3z M64.1,123.4h7v7h-7V123.4z
	 M64.1,137.9h7v7h-7V137.9z M71.4,123.4h7v7h-7V123.4z M71.4,137.9h7v7h-7V137.9z M78.7,123.4h7v7h-7V123.4z M78.7,137.9h7v7h-7
	V137.9z M85.9,123.4h7v7h-7V123.4z M85.9,137.9h7v7h-7V137.9z M93.2,123.4h7v7h-7V123.4z M93.2,137.9h7v7h-7V137.9z M100.4,123.4h7
	v7h-7V123.4z M100.4,137.9h7v7h-7V137.9z M107.7,123.4h7v7h-7V123.4z M107.7,137.9h7v7h-7V137.9z M115,123.4h7v7h-7V123.4z
	 M115,137.9h7v7h-7V137.9z M122.2,123.4h7v7h-7V123.4z M122.2,137.9h7v7h-7V137.9z M129.5,123.4h7v7h-7V123.4z M129.5,137.9h7v7h-7
	V137.9z M136.7,123.4h7v7h-7V123.4z M136.7,137.9h7v7h-7V137.9z M144,123.4h7v7h-7V123.4z M144,137.9h7v7h-7V137.9z M151.3,123.4h7
	v7h-7V123.4z M151.3,137.9h7v7h-7V137.9z M158.5,123.4h7v7h-7V123.4z M158.5,137.9h7v7h-7V137.9z M165.8,123.4h7v7h-7V123.4z
	 M165.8,137.9h7v7h-7V137.9z M173,123.4h7v7h-7V123.4z M173,137.9h7v7h-7V137.9z M180.3,123.4h7v7h-7V123.4z M180.3,137.9h7v7h-7
	V137.9z M187.6,123.4h7v7h-7V123.4z M187.6,137.9h7v7h-7V137.9z M194.8,123.4h7v7h-7V123.4z M194.8,137.9h7v7h-7V137.9z
	 M202.1,123.4h7v7h-7V123.4z M202.1,137.9h7v7h-7V137.9z M209.3,123.4h7v7h-7V123.4z M209.3,137.9h7v7h-7V137.9z M216.6,123.4h7v7
	h-7V123.4z M216.6,137.9h7v7h-7V137.9z M223.9,123.4h7v7h-7V123.4z M223.9,137.9h7v7h-7V137.9z M231.1,123.4h7v7h-7V123.4z
	 M231.1,137.9h7v7h-7V137.9z M238.4,123.4h7v7h-7V123.4z M238.4,137.9h7v7h-7V137.9z M245.6,123.4h7v7h-7V123.4z M245.6,137.9h7v7
	h-7V137.9z M252.9,123.4h7v7h-7V123.4z M252.9,137.9h7v7h-7V137.9z M260.2,123.4h7v7h-7V123.4z M260.2,137.9h7v7h-7V137.9z
	 M267.4,123.4h7v7h-7V123.4z M267.4,137.9h7v7h-7V137.9z M274.7,123.4h7v7h-7V123.4z M274.7,137.9h7v7h-7V137.9z M281.9,123.4h7v7
	h-7V123.4z M281.9,137.9h7v7h-7V137.9z M289.2,123.4h7v7h-7V123.4z M289.2,137.9h7v7h-7V137.9z M296.5,123.4h7v7h-7V123.4z
	 M296.5,137.9h7v7h-7V137.9z M303.7,123.4h7v7h-7V123.4z M303.7,137.9h7v7h-7V137.9z M311,123.4h7v7h-7V123.4z M311,137.9h7v7h-7
	V137.9z M318.2,123.4h7v7h-7V123.4z M318.2,137.9h7v7h-7V137.9z M325.5,123.4h7v7h-7V123.4z M325.5,137.9h7v7h-7V137.9z
	 M332.8,123.4h7v7h-7V123.4z M332.8,137.9h7v7h-7V137.9z M340,123.4h7v7h-7V123.4z M340,137.9h7v7h-7V137.9z M347.3,123.4h7v7h-7
	V123.4z M347.3,137.9h7v7h-7V137.9z M354.5,123.4h7v7h-7V123.4z M354.5,137.9h7v7h-7V137.9z M361.8,123.4h7v7h-7V123.4z
	 M361.8,137.9h7v7h-7V137.9z M369.1,123.4h7v7h-7V123.4z M369.1,137.9h7v7h-7V137.9z M376.3,123.4h7v7h-7V123.4z M376.3,137.9h7v7
	h-7V137.9z M383.6,123.4h7v7h-7V123.4z M383.6,137.9h7v7h-7V137.9z M390.8,123.4h7v7h-7V123.4z M390.8,137.9h7v7h-7V137.9z
	 M398.1,123.4h7v7h-7V123.4z M398.1,137.9h7v7h-7V137.9z M405.4,123.4h7v7h-7V123.4z M405.4,137.9h7v7h-7V137.9z M412.6,123.4h7v7
	h-7V123.4z M412.6,137.9h7v7h-7V137.9z M419.9,123.4h7v7h-7V123.4z M419.9,137.9h7v7h-7V137.9z M427.1,123.4h7v7h-7V123.4z
	 M427.1,137.9h7v7h-7V137.9z M434.4,123.4h7v7h-7V123.4z M434.4,137.9h7v7h-7V137.9z M441.7,123.4h7v7h-7V123.4z M441.7,137.9h7v7
	h-7V137.9z M448.9,123.4h7v7h-7V123.4z M448.9,137.9h7v7h-7V137.9z M456.2,123.4h7v7h-7V123.4z M456.2,137.9h7v7h-7V137.9z
	 M463.4,123.4h7v7h-7V123.4z M463.4,137.9h7v7h-7V137.9z M470.7,123.4h7v7h-7V123.4z M470.7,137.9h7v7h-7V137.9z M478,123.4h7v7h-7
	V123.4z M478,137.9h7v7h-7V137.9z M485.2,123.4h7v7h-7V123.4z M485.2,137.9h7v7h-7V137.9z M492.5,123.4h7v7h-7V123.4z M492.5,137.9
	h7v7h-7V137.9z M499.7,123.4h7v7h-7V123.4z M499.7,137.9h7v7h-7V137.9z M507,123.4h7v7h-7V123.4z M507,137.9h7v7h-7V137.9z
	 M514.3,123.4h7v7h-7V123.4z M514.3,137.9h7v7h-7V137.9z M521.5,123.4h7v7h-7V123.4z M521.5,137.9h7v7h-7V137.9z M528.8,123.4h7v7
	h-7V123.4z M528.8,137.9h7v7h-7V137.9z M536,123.4h7v7h-7V123.4z M536,137.9h7v7h-7V137.9z M543.3,123.4h7v7h-7V123.4z M543.3,137.9
	h7v7h-7V137.9z M550.6,123.4h7v7h-7V123.4z M550.6,137.9h7v7h-7V137.9z M557.8,123.4h7v7h-7V123.4z M557.8,137.9h7v7h-7V137.9z
	 M565.1,123.4h7v7h-7V123.4z M565.1,137.9h7v7h-7V137.9z M572.3,123.4h7v7h-7V123.4z M572.3,137.9h7v7h-7V137.9z M579.6,123.4h7v7
	h-7V123.4z M579.6,137.9h7v7h-7V137.9z M586.9,123.4h7v7h-7V123.4z M586.9,137.9h7v7h-7V137.9z M594.1,123.4h7v7h-7V123.4z
	 M594.1,137.9h7v7h-7V137.9z M601.4,123.4h7v7h-7V123.4z M601.4,137.9h7v7h-7V137.9z M608.6,123.4h7v7h-7V123.4z M608.6,137.9h7v7
	h-7V137.9z M615.9,123.4h7v7h-7V123.4z M615.9,137.9h7v7h-7V137.9z M623.2,123.4h7v7h-7V123.4z M623.2,137.9h7v7h-7V137.9z
	 M630.4,123.4h7v7h-7V123.4z M630.4,137.9h7v7h-7V137.9z M637.7,123.4h7v7h-7V123.4z M637.7,137.9h7v7h-7V137.9z M644.9,123.4h7v7
	h-7V123.4z M644.9,137.9h7v7h-7V137.9z M652.2,123.4h7v7h-7V123.4z M652.2,137.9h7v7h-7V137.9z M659.5,123.4h7v7h-7V123.4z
	 M659.5,137.9h7v7h-7V137.9z M666.7,123.4h7v7h-7V123.4z M666.7,137.9h7v7h-7V137.9z M674,123.4h7v7h-7V123.4z M674,137.9h7v7h-7
	V137.9z M681.2,123.4h7v7h-7V123.4z M681.2,137.9h7v7h-7V137.9z M688.5,123.4h7v7h-7V123.4z M688.5,137.9h7v7h-7V137.9z
	 M695.8,123.4h7v7h-7V123.4z M695.8,137.9h7v7h-7V137.9z M703,123.4h7v7h-7V123.4z M703,137.9h7v7h-7V137.9z M710.3,123.4h7v7h-7
	V123.4z M710.3,137.9h7v7h-7V137.9z M717.5,123.4h7v7h-7V123.4z M717.5,137.9h7v7h-7V137.9z M724.8,123.4h7v7h-7V123.4z
	 M724.8,137.9h7v7h-7V137.9z M724.8,152.5h7v7h-7V152.5z M724.8,167h7v7h-7V167z M724.8,181.5h7v7h-7V181.5z M724.8,196h7v7h-7V196z
	 M724.8,210.5h7v7h-7V210.5z M732.2,283.1h7v7h-7V283.1z M724.8,297.7h7v7h-7V297.7z M724.8,319.4h7v7h-7V319.4z M724.8,341.2h7v7
	h-7V341.2z M724.8,377.5h7v7h-7V377.5z M724.8,392h7v7h-7V392z M732.1,123.4h7v7h-7V123.4z M732.1,137.9h7v7h-7V137.9z M732.1,145.2
	h7v7h-7V145.2z M732.1,152.5h7v7h-7V152.5z M732.1,159.7h7v7h-7V159.7z M732.1,174.2h7v7h-7V174.2z M732.1,203.3h7v7h-7V203.3z
	 M739.3,123.4h7v7h-7V123.4z M739.3,137.9h7v7h-7V137.9z M739.3,152.5h7v7h-7V152.5z M739.3,167h7v7h-7V167z M739.3,174.2h7v7h-7
	V174.2z M739.3,181.5h7v7h-7V181.5z M739.3,225h7v7h-7V225z M739.3,239.6h7v7h-7V239.6z M739.3,254.1h7v7h-7V254.1z M739.3,268.6h7
	v7h-7V268.6z M746.7,283.1h7v7h-7V283.1z M739.3,297.7h7v7h-7V297.7z M739.3,333.9h7v7h-7V333.9z M739.3,370.3h7v7h-7V370.3z
	 M739.3,392h7v7h-7V392z M746.6,123.4h7v7h-7V123.4z M746.6,137.9h7v7h-7V137.9z M746.6,145.2h7v7h-7V145.2z M746.6,174.2h7v7h-7
	V174.2z M746.6,203.3h7v7h-7V203.3z M753.8,123.4h7v7h-7V123.4z M753.8,137.9h7v7h-7V137.9z M753.8,152.5h7v7h-7V152.5z M753.8,167
	h7v7h-7V167z M753.8,181.5h7v7h-7V181.5z M753.8,196h7v7h-7V196z M753.8,239.6h7v7h-7V239.6z M753.8,254.1h7v7h-7V254.1z
	 M753.8,268.6h7v7h-7V268.6z M761.2,283.1h7v7h-7V283.1z M753.8,297.7h7v7h-7V297.7z M753.8,326.7h7v7h-7V326.7z M753.8,355.7h7v7
	h-7V355.7z M753.8,377.5h7v7h-7V377.5z M753.8,392h7v7h-7V392z M761.1,123.4h7v7h-7V123.4z M761.1,137.9h7v7h-7V137.9z M761.1,145.2
	h7v7h-7V145.2z M761.1,152.5h7v7h-7V152.5z M761.1,159.7h7v7h-7V159.7z M761.1,174.2h7v7h-7V174.2z M761.1,188.8h7v7h-7V188.8z
	 M761.1,203.3h7v7h-7V203.3z M768.4,123.4h7v7h-7V123.4z M768.4,137.9h7v7h-7V137.9z M768.4,152.5h7v7h-7V152.5z M768.4,167h7v7h-7
	V167z M768.4,181.5h7v7h-7V181.5z M768.4,196h7v7h-7V196z M768.4,225h7v7h-7V225z M768.4,239.6h7v7h-7V239.6z M768.4,254.1h7v7h-7
	V254.1z M768.4,268.6h7v7h-7V268.6z M768.4,304.9h7v7h-7V304.9z M768.4,333.9h7v7h-7V333.9z M768.4,370.3h7v7h-7V370.3z M768.4,392
	h7v7h-7V392z M775.6,123.4h7v7h-7V123.4z M775.6,137.9h7v7h-7V137.9z M775.6,145.2h7v7h-7V145.2z M775.6,188.8h7v7h-7V188.8z
	 M782.9,123.4h7v7h-7V123.4z M782.9,137.9h7v7h-7V137.9z M782.9,152.5h7v7h-7V152.5z M782.9,167h7v7h-7V167z M782.9,181.5h7v7h-7
	V181.5z M782.9,196h7v7h-7V196z M782.9,210.5h7v7h-7V210.5z M782.9,225h7v7h-7V225z M782.9,239.6h7v7h-7V239.6z M782.9,254.1h7v7h-7
	V254.1z M790.3,283.1h7v7h-7V283.1z M782.9,297.7h7v7h-7V297.7z M782.9,333.9h7v7h-7V333.9z M782.9,384.8h7v7h-7V384.8z
	 M790.1,123.4h7v7h-7V123.4z M790.1,137.9h7v7h-7V137.9z M790.1,145.2h7v7h-7V145.2z M790.1,152.5h7v7h-7V152.5z M790.1,159.7h7v7
	h-7V159.7z M790.1,174.2h7v7h-7V174.2z M790.1,203.3h7v7h-7V203.3z M790.1,246.8h7v7h-7V246.8z M797.4,123.4h7v7h-7V123.4z
	 M797.4,137.9h7v7h-7V137.9z M797.4,152.5h7v7h-7V152.5z M797.4,167h7v7h-7V167z M797.4,181.5h7v7h-7V181.5z M797.4,196h7v7h-7V196z
	 M797.4,210.5h7v7h-7V210.5z M797.4,225h7v7h-7V225z M797.4,239.6h7v7h-7V239.6z M797.4,254.1h7v7h-7V254.1z M797.4,268.6h7v7h-7
	V268.6z M797.4,297.7h7v7h-7V297.7z M797.4,326.7h7v7h-7V326.7z M797.4,355.7h7v7h-7V355.7z M797.4,392h7v7h-7V392z M804.7,123.4h7
	v7h-7V123.4z M804.7,137.9h7v7h-7V137.9z M804.7,145.2h7v7h-7V145.2z M804.7,174.2h7v7h-7V174.2z M804.7,203.3h7v7h-7V203.3z
	 M812.1,283.1h7v7h-7V283.1z M811.9,123.4h7v7h-7V123.4z M811.9,137.9h7v7h-7V137.9z M811.9,152.5h7v7h-7V152.5z M811.9,167h7v7h-7
	V167z M811.9,181.5h7v7h-7V181.5z M811.9,196h7v7h-7V196z M811.9,210.5h7v7h-7V210.5z M811.9,225h7v7h-7V225z M811.9,239.6h7v7h-7
	V239.6z M811.9,254.1h7v7h-7V254.1z M811.9,268.6h7v7h-7V268.6z M811.9,297.7h7v7h-7V297.7z M811.9,326.7h7v7h-7V326.7z
	 M811.9,355.7h7v7h-7V355.7z M811.9,384.8h7v7h-7V384.8z M819.2,123.4h7v7h-7V123.4z M819.2,137.9h7v7h-7V137.9z M819.2,145.2h7v7
	h-7V145.2z M819.2,152.5h7v7h-7V152.5z M819.2,159.7h7v7h-7V159.7z M819.2,174.2h7v7h-7V174.2z M819.2,188.8h7v7h-7V188.8z
	 M819.2,203.3h7v7h-7V203.3z M826.4,123.4h7v7h-7V123.4z M826.4,137.9h7v7h-7V137.9z M826.4,152.5h7v7h-7V152.5z M826.4,167h7v7h-7
	V167z M826.4,181.5h7v7h-7V181.5z M826.4,196h7v7h-7V196z M826.4,210.5h7v7h-7V210.5z M826.4,225h7v7h-7V225z M826.4,239.6h7v7h-7
	V239.6z M826.4,254.1h7v7h-7V254.1z M826.4,268.6h7v7h-7V268.6z M833.8,283.1h7v7h-7V283.1z M826.4,297.7h7v7h-7V297.7z
	 M826.4,333.9h7v7h-7V333.9z M826.4,370.3h7v7h-7V370.3z M826.4,392h7v7h-7V392z M833.7,123.4h7v7h-7V123.4z M833.7,137.9h7v7h-7
	V137.9z M833.7,145.2h7v7h-7V145.2z M833.7,203.3h7v7h-7V203.3z M841,123.4h7v7h-7V123.4z M841,137.9h7v7h-7V137.9z M841,152.5h7v7
	h-7V152.5z M841,167h7v7h-7V167z M841,181.5h7v7h-7V181.5z M841,196h7v7h-7V196z M841,210.5h7v7h-7V210.5z M841,225h7v7h-7V225z
	 M841,239.6h7v7h-7V239.6z M841,254.1h7v7h-7V254.1z M841,268.6h7v7h-7V268.6z M848.4,283.1h7v7h-7V283.1z M841,297.7h7v7h-7V297.7z
	 M841,326.7h7v7h-7V326.7z M841,355.7h7v7h-7V355.7z M841,384.8h7v7h-7V384.8z M848.2,123.4h7v7h-7V123.4z M848.2,137.9h7v7h-7
	V137.9z M848.2,159.7h7v7h-7V159.7z M848.2,174.2h7v7h-7V174.2z M855.6,283.1h7v7h-7V283.1z M855.5,123.4h7v7h-7V123.4z
	 M855.5,137.9h7v7h-7V137.9z M855.5,152.5h7v7h-7V152.5z M855.5,167h7v7h-7V167z M855.5,181.5h7v7h-7V181.5z M855.5,196h7v7h-7V196z
	 M855.5,210.5h7v7h-7V210.5z M855.5,225h7v7h-7V225z M855.5,239.6h7v7h-7V239.6z M855.5,254.1h7v7h-7V254.1z M855.5,268.6h7v7h-7
	V268.6z M855.5,297.7h7v7h-7V297.7z M855.5,341.2h7v7h-7V341.2z M855.5,377.5h7v7h-7V377.5z M862.7,123.4h7v7h-7V123.4z
	 M862.7,137.9h7v7h-7V137.9z M862.7,145.2h7v7h-7V145.2z M862.7,203.3h7v7h-7V203.3z M870,123.4h7v7h-7V123.4z M870,137.9h7v7h-7
	V137.9z M870,152.5h7v7h-7V152.5z M870,167h7v7h-7V167z M870,181.5h7v7h-7V181.5z M870,196h7v7h-7V196z M870,210.5h7v7h-7V210.5z
	 M870,225h7v7h-7V225z M870,239.6h7v7h-7V239.6z M870,254.1h7v7h-7V254.1z M870,268.6h7v7h-7V268.6z M870,304.9h7v7h-7V304.9z
	 M870,333.9h7v7h-7V333.9z M870,363h7v7h-7V363z M870,392h7v7h-7V392z M877.3,123.4h7v7h-7V123.4z M877.3,108.9h7v7h-7V108.9z
	 M877.3,137.9h7v7h-7V137.9z M877.3,145.2h7v7h-7V145.2z M877.3,159.7h7v7h-7V159.7z M877.3,167h7v7h-7V167z M877.3,174.2h7v7h-7
	V174.2z M877.3,188.8h7v7h-7V188.8z M877.3,283.1h7v7h-7V283.1z M884.5,116.1h7v7h-7V116.1z M884.5,123.4h7v7h-7V123.4z
	 M884.5,137.9h7v7h-7V137.9z M884.5,152.5h7v7h-7V152.5z M884.5,167h7v7h-7V167z M884.5,181.5h7v7h-7V181.5z M884.5,196h7v7h-7V196z
	 M884.5,210.5h7v7h-7V210.5z M884.5,225h7v7h-7V225z M884.5,297.7h7v7h-7V297.7z M884.5,326.7h7v7h-7V326.7z M884.5,377.5h7v7h-7
	V377.5z M891.8,108.9h7v7h-7V108.9z M891.8,123.4h7v7h-7V123.4z M891.8,137.9h7v7h-7V137.9z M891.8,145.2h7v7h-7V145.2z
	 M891.8,174.2h7v7h-7V174.2z M891.8,203.3h7v7h-7V203.3z M891.8,254.1h7v7h-7V254.1z M891.8,268.6h7v7h-7V268.6z M891.8,283.1h7v7
	h-7V283.1z M899,116.1h7v7h-7V116.1z M899,123.4h7v7h-7V123.4z M899,137.9h7v7h-7V137.9z M899,152.5h7v7h-7V152.5z M899,167h7v7h-7
	V167z M899,181.5h7v7h-7V181.5z M899,196h7v7h-7V196z M899,210.5h7v7h-7V210.5z M899,225h7v7h-7V225z M899,239.6h7v7h-7V239.6z
	 M899,261.3h7v7h-7V261.3z M899,312.2h7v7h-7V312.2z M899,348.5h7v7h-7V348.5z M899,363h7v7h-7V363z M899,384.8h7v7h-7V384.8z
	 M906.3,108.9h7v7h-7V108.9z M906.3,123.4h7v7h-7V123.4z M906.3,137.9h7v7h-7V137.9z M906.3,159.7h7v7h-7V159.7z M906.3,174.2h7v7
	h-7V174.2z M906.3,283.1h7v7h-7V283.1z M913.6,116.1h7v7h-7V116.1z M913.6,123.4h7v7h-7V123.4z M913.6,137.9h7v7h-7V137.9z
	 M913.6,152.5h7v7h-7V152.5z M913.6,167h7v7h-7V167z M913.6,181.5h7v7h-7V181.5z M913.6,196h7v7h-7V196z M913.6,210.5h7v7h-7V210.5z
	 M913.6,225h7v7h-7V225z M913.6,239.6h7v7h-7V239.6z M913.6,254.1h7v7h-7V254.1z M913.6,268.6h7v7h-7V268.6z M913.6,297.7h7v7h-7
	V297.7z M913.6,326.7h7v7h-7V326.7z M913.6,355.7h7v7h-7V355.7z M913.6,384.8h7v7h-7V384.8z M920.8,108.9h7v7h-7V108.9z
	 M920.8,123.4h7v7h-7V123.4z M920.8,137.9h7v7h-7V137.9z M920.8,145.2h7v7h-7V145.2z M920.8,203.3h7v7h-7V203.3z M928.1,116.1h7v7
	h-7V116.1z M819.2,108.9h7v7h-7V108.9z M826.4,116.1h7v7h-7V116.1z M833.7,108.9h7v7h-7V108.9z M840.9,116.1h7v7h-7V116.1z
	 M848.2,108.9h7v7h-7V108.9z M855.5,116.1h7v7h-7V116.1z M862.7,108.9h7v7h-7V108.9z M870,116.1h7v7h-7V116.1z M761.2,108.9h7v7h-7
	V108.9z M768.4,116.1h7v7h-7V116.1z M775.7,108.9h7v7h-7V108.9z M782.9,116.1h7v7h-7V116.1z M790.2,108.9h7v7h-7V108.9z
	 M797.5,116.1h7v7h-7V116.1z M804.7,108.9h7v7h-7V108.9z M812,116.1h7v7h-7V116.1z M703.1,108.9h7v7h-7V108.9z M710.3,116.1h7v7h-7
	V116.1z M717.6,108.9h7v7h-7V108.9z M724.8,116.1h7v7h-7V116.1z M732.1,108.9h7v7h-7V108.9z M739.4,116.1h7v7h-7V116.1z
	 M746.6,108.9h7v7h-7V108.9z M753.9,116.1h7v7h-7V116.1z M645,108.9h7v7h-7V108.9z M652.2,116.1h7v7h-7V116.1z M659.5,108.9h7v7h-7
	V108.9z M666.7,116.1h7v7h-7V116.1z M674,108.9h7v7h-7V108.9z M681.3,116.1h7v7h-7V116.1z M688.5,108.9h7v7h-7V108.9z M695.8,116.1
	h7v7h-7V116.1z M586.9,108.9h7v7h-7V108.9z M594.1,116.1h7v7h-7V116.1z M601.4,108.9h7v7h-7V108.9z M608.6,116.1h7v7h-7V116.1z
	 M615.9,108.9h7v7h-7V108.9z M623.2,116.1h7v7h-7V116.1z M630.4,108.9h7v7h-7V108.9z M637.7,116.1h7v7h-7V116.1z M528.8,108.9h7v7
	h-7V108.9z M536,116.1h7v7h-7V116.1z M543.3,108.9h7v7h-7V108.9z M550.5,116.1h7v7h-7V116.1z M557.8,108.9h7v7h-7V108.9z
	 M565.1,116.1h7v7h-7V116.1z M572.3,108.9h7v7h-7V108.9z M579.6,116.1h7v7h-7V116.1z M470.8,108.9h7v7h-7V108.9z M478,116.1h7v7h-7
	V116.1z M485.3,108.9h7v7h-7V108.9z M492.5,116.1h7v7h-7V116.1z M499.8,108.9h7v7h-7V108.9z M507.1,116.1h7v7h-7V116.1z
	 M514.3,108.9h7v7h-7V108.9z M521.6,116.1h7v7h-7V116.1z M412.7,108.9h7v7h-7V108.9z M419.9,116.1h7v7h-7V116.1z M427.2,108.9h7v7
	h-7V108.9z M434.4,116.1h7v7h-7V116.1z M441.7,108.9h7v7h-7V108.9z M449,116.1h7v7h-7V116.1z M456.2,108.9h7v7h-7V108.9z
	 M463.5,116.1h7v7h-7V116.1z M354.6,108.9h7v7h-7V108.9z M361.8,116.1h7v7h-7V116.1z M369.1,108.9h7v7h-7V108.9z M376.3,116.1h7v7
	h-7V116.1z M383.6,108.9h7v7h-7V108.9z M390.9,116.1h7v7h-7V116.1z M398.1,108.9h7v7h-7V108.9z M405.4,116.1h7v7h-7V116.1z
	 M296.5,108.9h7v7h-7V108.9z M303.7,116.1h7v7h-7V116.1z M311,108.9h7v7h-7V108.9z M318.2,116.1h7v7h-7V116.1z M325.5,108.9h7v7h-7
	V108.9z M332.8,116.1h7v7h-7V116.1z M340,108.9h7v7h-7V108.9z M347.3,116.1h7v7h-7V116.1z M238.4,108.9h7v7h-7V108.9z M245.6,116.1
	h7v7h-7V116.1z M252.9,108.9h7v7h-7V108.9z M260.1,116.1h7v7h-7V116.1z M267.4,108.9h7v7h-7V108.9z M274.7,116.1h7v7h-7V116.1z
	 M281.9,108.9h7v7h-7V108.9z M289.2,116.1h7v7h-7V116.1z M180.4,108.9h7v7h-7V108.9z M187.6,116.1h7v7h-7V116.1z M194.9,108.9h7v7
	h-7V108.9z M202.1,116.1h7v7h-7V116.1z M209.4,108.9h7v7h-7V108.9z M216.7,116.1h7v7h-7V116.1z M223.9,108.9h7v7h-7V108.9z
	 M231.2,116.1h7v7h-7V116.1z M122.3,108.9h7v7h-7V108.9z M129.5,116.1h7v7h-7V116.1z M136.8,108.9h7v7h-7V108.9z M144,116.1h7v7h-7
	V116.1z M151.3,108.9h7v7h-7V108.9z M158.6,116.1h7v7h-7V116.1z M165.8,108.9h7v7h-7V108.9z M173.1,116.1h7v7h-7V116.1z M64.2,108.9
	h7v7h-7V108.9z M71.4,116.1h7v7h-7V116.1z M78.7,108.9h7v7h-7V108.9z M85.9,116.1h7v7h-7V116.1z M93.2,108.9h7v7h-7V108.9z
	 M100.5,116.1h7v7h-7V116.1z M107.7,108.9h7v7h-7V108.9z M115,116.1h7v7h-7V116.1z M928.1,123.4h7v7h-7V123.4z M928.1,137.9h7v7h-7
	V137.9z M928.1,152.5h7v7h-7V152.5z M928.1,167h7v7h-7V167z M928.1,181.5h7v7h-7V181.5z M928.1,196h7v7h-7V196z M928.1,210.5h7v7h-7
	V210.5z M928.1,225h7v7h-7V225z M928.1,239.6h7v7h-7V239.6z M928.1,254.1h7v7h-7V254.1z M928.1,268.6h7v7h-7V268.6z M928.1,312.2h7
	v7h-7V312.2z M928.1,341.2h7v7h-7V341.2z M928.1,370.3h7v7h-7V370.3z M514.3,152.5h7v7h-7V152.5z M514.3,167h7v7h-7V167z
	 M514.3,181.5h7v7h-7V181.5z M514.3,196h7v7h-7V196z M514.3,210.5h7v7h-7V210.5z M521.7,283.1h7v7h-7V283.1z M514.3,297.7h7v7h-7
	V297.7z M514.3,319.4h7v7h-7V319.4z M514.3,341.2h7v7h-7V341.2z M514.3,377.5h7v7h-7V377.5z M514.3,392h7v7h-7V392z M521.6,145.2h7
	v7h-7V145.2z M521.6,152.5h7v7h-7V152.5z M521.6,159.7h7v7h-7V159.7z M521.6,174.2h7v7h-7V174.2z M521.6,203.3h7v7h-7V203.3z
	 M528.8,152.5h7v7h-7V152.5z M528.8,167h7v7h-7V167z M528.8,174.2h7v7h-7V174.2z M528.8,181.5h7v7h-7V181.5z M528.8,225h7v7h-7V225z
	 M528.8,239.6h7v7h-7V239.6z M528.8,254.1h7v7h-7V254.1z M528.8,268.6h7v7h-7V268.6z M536.2,283.1h7v7h-7V283.1z M528.8,297.7h7v7
	h-7V297.7z M528.8,333.9h7v7h-7V333.9z M528.8,370.3h7v7h-7V370.3z M528.8,392h7v7h-7V392z M536.1,145.2h7v7h-7V145.2z M536.1,174.2
	h7v7h-7V174.2z M536.1,203.3h7v7h-7V203.3z M543.3,152.5h7v7h-7V152.5z M543.3,167h7v7h-7V167z M543.3,181.5h7v7h-7V181.5z
	 M543.3,196h7v7h-7V196z M543.3,239.6h7v7h-7V239.6z M543.3,254.1h7v7h-7V254.1z M543.3,268.6h7v7h-7V268.6z M550.7,283.1h7v7h-7
	V283.1z M543.3,297.7h7v7h-7V297.7z M543.3,326.7h7v7h-7V326.7z M543.3,355.7h7v7h-7V355.7z M543.3,377.5h7v7h-7V377.5z M543.3,392
	h7v7h-7V392z M550.6,145.2h7v7h-7V145.2z M550.6,152.5h7v7h-7V152.5z M550.6,159.7h7v7h-7V159.7z M550.6,174.2h7v7h-7V174.2z
	 M550.6,188.8h7v7h-7V188.8z M550.6,203.3h7v7h-7V203.3z M557.9,152.5h7v7h-7V152.5z M557.9,167h7v7h-7V167z M557.9,181.5h7v7h-7
	V181.5z M557.9,196h7v7h-7V196z M557.9,225h7v7h-7V225z M557.9,239.6h7v7h-7V239.6z M557.9,254.1h7v7h-7V254.1z M557.9,268.6h7v7h-7
	V268.6z M557.9,304.9h7v7h-7V304.9z M557.9,333.9h7v7h-7V333.9z M557.9,370.3h7v7h-7V370.3z M557.9,392h7v7h-7V392z M565.1,145.2h7
	v7h-7V145.2z M565.1,188.8h7v7h-7V188.8z M572.4,152.5h7v7h-7V152.5z M572.4,167h7v7h-7V167z M572.4,181.5h7v7h-7V181.5z M572.4,196
	h7v7h-7V196z M572.4,210.5h7v7h-7V210.5z M572.4,225h7v7h-7V225z M572.4,239.6h7v7h-7V239.6z M572.4,254.1h7v7h-7V254.1z
	 M579.8,283.1h7v7h-7V283.1z M572.4,297.7h7v7h-7V297.7z M572.4,333.9h7v7h-7V333.9z M572.4,384.8h7v7h-7V384.8z M579.6,145.2h7v7
	h-7V145.2z M579.6,152.5h7v7h-7V152.5z M579.6,159.7h7v7h-7V159.7z M579.6,174.2h7v7h-7V174.2z M579.6,203.3h7v7h-7V203.3z
	 M579.6,246.8h7v7h-7V246.8z M586.9,152.5h7v7h-7V152.5z M586.9,167h7v7h-7V167z M586.9,181.5h7v7h-7V181.5z M586.9,196h7v7h-7V196z
	 M586.9,210.5h7v7h-7V210.5z M586.9,225h7v7h-7V225z M586.9,239.6h7v7h-7V239.6z M586.9,254.1h7v7h-7V254.1z M586.9,268.6h7v7h-7
	V268.6z M586.9,297.7h7v7h-7V297.7z M586.9,326.7h7v7h-7V326.7z M586.9,355.7h7v7h-7V355.7z M586.9,392h7v7h-7V392z M594.2,145.2h7
	v7h-7V145.2z M594.2,174.2h7v7h-7V174.2z M594.2,203.3h7v7h-7V203.3z M601.6,283.1h7v7h-7V283.1z M601.4,152.5h7v7h-7V152.5z
	 M601.4,167h7v7h-7V167z M601.4,181.5h7v7h-7V181.5z M601.4,196h7v7h-7V196z M601.4,210.5h7v7h-7V210.5z M601.4,225h7v7h-7V225z
	 M601.4,239.6h7v7h-7V239.6z M601.4,254.1h7v7h-7V254.1z M601.4,268.6h7v7h-7V268.6z M601.4,297.7h7v7h-7V297.7z M601.4,326.7h7v7
	h-7V326.7z M601.4,355.7h7v7h-7V355.7z M601.4,384.8h7v7h-7V384.8z M608.7,145.2h7v7h-7V145.2z M608.7,152.5h7v7h-7V152.5z
	 M608.7,159.7h7v7h-7V159.7z M608.7,174.2h7v7h-7V174.2z M608.7,188.8h7v7h-7V188.8z M608.7,203.3h7v7h-7V203.3z M615.9,152.5h7v7
	h-7V152.5z M615.9,167h7v7h-7V167z M615.9,181.5h7v7h-7V181.5z M615.9,196h7v7h-7V196z M615.9,210.5h7v7h-7V210.5z M615.9,225h7v7
	h-7V225z M615.9,239.6h7v7h-7V239.6z M615.9,254.1h7v7h-7V254.1z M615.9,268.6h7v7h-7V268.6z M623.3,283.1h7v7h-7V283.1z
	 M615.9,297.7h7v7h-7V297.7z M615.9,333.9h7v7h-7V333.9z M615.9,370.3h7v7h-7V370.3z M615.9,392h7v7h-7V392z M623.2,145.2h7v7h-7
	V145.2z M623.2,203.3h7v7h-7V203.3z M630.5,152.5h7v7h-7V152.5z M630.5,167h7v7h-7V167z M630.5,181.5h7v7h-7V181.5z M630.5,196h7v7
	h-7V196z M630.5,210.5h7v7h-7V210.5z M630.5,225h7v7h-7V225z M630.5,239.6h7v7h-7V239.6z M630.5,254.1h7v7h-7V254.1z M630.5,268.6h7
	v7h-7V268.6z M637.9,283.1h7v7h-7V283.1z M630.5,297.7h7v7h-7V297.7z M630.5,326.7h7v7h-7V326.7z M630.5,355.7h7v7h-7V355.7z
	 M630.5,384.8h7v7h-7V384.8z M637.7,159.7h7v7h-7V159.7z M637.7,174.2h7v7h-7V174.2z M645.1,283.1h7v7h-7V283.1z M645,152.5h7v7h-7
	V152.5z M645,167h7v7h-7V167z M645,181.5h7v7h-7V181.5z M645,196h7v7h-7V196z M645,210.5h7v7h-7V210.5z M645,225h7v7h-7V225z
	 M645,239.6h7v7h-7V239.6z M645,254.1h7v7h-7V254.1z M645,268.6h7v7h-7V268.6z M645,297.7h7v7h-7V297.7z M645,341.2h7v7h-7V341.2z
	 M645,377.5h7v7h-7V377.5z M652.2,145.2h7v7h-7V145.2z M652.2,203.3h7v7h-7V203.3z M659.5,152.5h7v7h-7V152.5z M659.5,167h7v7h-7
	V167z M659.5,181.5h7v7h-7V181.5z M659.5,196h7v7h-7V196z M659.5,210.5h7v7h-7V210.5z M659.5,225h7v7h-7V225z M659.5,239.6h7v7h-7
	V239.6z M659.5,254.1h7v7h-7V254.1z M659.5,268.6h7v7h-7V268.6z M659.5,304.9h7v7h-7V304.9z M659.5,333.9h7v7h-7V333.9z M659.5,363
	h7v7h-7V363z M659.5,392h7v7h-7V392z M666.8,145.2h7v7h-7V145.2z M666.8,159.7h7v7h-7V159.7z M666.8,167h7v7h-7V167z M666.8,174.2h7
	v7h-7V174.2z M666.8,188.8h7v7h-7V188.8z M666.8,283.1h7v7h-7V283.1z M674,152.5h7v7h-7V152.5z M674,167h7v7h-7V167z M674,181.5h7v7
	h-7V181.5z M674,196h7v7h-7V196z M674,210.5h7v7h-7V210.5z M674,225h7v7h-7V225z M674,297.7h7v7h-7V297.7z M674,326.7h7v7h-7V326.7z
	 M674,377.5h7v7h-7V377.5z M681.3,145.2h7v7h-7V145.2z M681.3,174.2h7v7h-7V174.2z M681.3,203.3h7v7h-7V203.3z M681.3,254.1h7v7h-7
	V254.1z M681.3,268.6h7v7h-7V268.6z M681.3,283.1h7v7h-7V283.1z M688.5,152.5h7v7h-7V152.5z M688.5,167h7v7h-7V167z M688.5,181.5h7
	v7h-7V181.5z M688.5,196h7v7h-7V196z M688.5,210.5h7v7h-7V210.5z M688.5,225h7v7h-7V225z M688.5,239.6h7v7h-7V239.6z M688.5,261.3h7
	v7h-7V261.3z M688.5,312.2h7v7h-7V312.2z M688.5,348.5h7v7h-7V348.5z M688.5,363h7v7h-7V363z M688.5,384.8h7v7h-7V384.8z
	 M695.8,159.7h7v7h-7V159.7z M695.8,174.2h7v7h-7V174.2z M695.8,283.1h7v7h-7V283.1z M703.1,152.5h7v7h-7V152.5z M703.1,167h7v7h-7
	V167z M703.1,181.5h7v7h-7V181.5z M703.1,196h7v7h-7V196z M703.1,210.5h7v7h-7V210.5z M703.1,225h7v7h-7V225z M703.1,239.6h7v7h-7
	V239.6z M703.1,254.1h7v7h-7V254.1z M703.1,268.6h7v7h-7V268.6z M703.1,297.7h7v7h-7V297.7z M703.1,326.7h7v7h-7V326.7z
	 M703.1,355.7h7v7h-7V355.7z M703.1,384.8h7v7h-7V384.8z M710.3,145.2h7v7h-7V145.2z M710.3,203.3h7v7h-7V203.3z M717.6,152.5h7v7
	h-7V152.5z M717.6,167h7v7h-7V167z M717.6,181.5h7v7h-7V181.5z M717.6,196h7v7h-7V196z M717.6,210.5h7v7h-7V210.5z M717.6,225h7v7
	h-7V225z M717.6,239.6h7v7h-7V239.6z M717.6,254.1h7v7h-7V254.1z M717.6,268.6h7v7h-7V268.6z M717.6,312.2h7v7h-7V312.2z
	 M717.6,341.2h7v7h-7V341.2z M717.6,370.3h7v7h-7V370.3z M303.7,152.5h7v7h-7V152.5z M303.7,167h7v7h-7V167z M303.7,181.5h7v7h-7
	V181.5z M303.7,196h7v7h-7V196z M303.7,210.5h7v7h-7V210.5z M311.1,283.1h7v7h-7V283.1z M303.7,297.7h7v7h-7V297.7z M303.7,319.4h7
	v7h-7V319.4z M303.7,341.2h7v7h-7V341.2z M303.7,377.5h7v7h-7V377.5z M303.7,392h7v7h-7V392z M311,145.2h7v7h-7V145.2z M311,152.5h7
	v7h-7V152.5z M311,159.7h7v7h-7V159.7z M311,174.2h7v7h-7V174.2z M311,203.3h7v7h-7V203.3z M318.2,152.5h7v7h-7V152.5z M318.2,167h7
	v7h-7V167z M318.2,174.2h7v7h-7V174.2z M318.2,181.5h7v7h-7V181.5z M318.2,225h7v7h-7V225z M318.2,239.6h7v7h-7V239.6z M318.2,254.1
	h7v7h-7V254.1z M318.2,268.6h7v7h-7V268.6z M325.6,283.1h7v7h-7V283.1z M318.2,297.7h7v7h-7V297.7z M318.2,333.9h7v7h-7V333.9z
	 M318.2,370.3h7v7h-7V370.3z M318.2,392h7v7h-7V392z M325.5,145.2h7v7h-7V145.2z M325.5,174.2h7v7h-7V174.2z M325.5,203.3h7v7h-7
	V203.3z M332.7,152.5h7v7h-7V152.5z M332.7,167h7v7h-7V167z M332.7,181.5h7v7h-7V181.5z M332.7,196h7v7h-7V196z M340,196h7v7h-7V196
	z M332.7,239.6h7v7h-7V239.6z M332.7,254.1h7v7h-7V254.1z M332.7,268.6h7v7h-7V268.6z M340.1,283.1h7v7h-7V283.1z M332.7,297.7h7v7
	h-7V297.7z M332.7,326.7h7v7h-7V326.7z M332.7,355.7h7v7h-7V355.7z M332.7,377.5h7v7h-7V377.5z M332.7,392h7v7h-7V392z M340,145.2h7
	v7h-7V145.2z M340,152.5h7v7h-7V152.5z M340,159.7h7v7h-7V159.7z M340,174.2h7v7h-7V174.2z M340,188.8h7v7h-7V188.8z M340,203.3h7v7
	h-7V203.3z M347.3,152.5h7v7h-7V152.5z M347.3,167h7v7h-7V167z M347.3,181.5h7v7h-7V181.5z M347.3,196h7v7h-7V196z M347.3,225h7v7
	h-7V225z M347.3,239.6h7v7h-7V239.6z M347.3,254.1h7v7h-7V254.1z M347.3,268.6h7v7h-7V268.6z M347.3,304.9h7v7h-7V304.9z
	 M347.3,333.9h7v7h-7V333.9z M347.3,370.3h7v7h-7V370.3z M347.3,392h7v7h-7V392z M354.5,145.2h7v7h-7V145.2z M354.5,188.8h7v7h-7
	V188.8z M361.8,152.5h7v7h-7V152.5z M361.8,167h7v7h-7V167z M361.8,181.5h7v7h-7V181.5z M361.8,196h7v7h-7V196z M361.8,210.5h7v7h-7
	V210.5z M361.8,225h7v7h-7V225z M361.8,239.6h7v7h-7V239.6z M361.8,254.1h7v7h-7V254.1z M369.2,283.1h7v7h-7V283.1z M361.8,297.7h7
	v7h-7V297.7z M361.8,333.9h7v7h-7V333.9z M361.8,384.8h7v7h-7V384.8z M369,145.2h7v7h-7V145.2z M369,152.5h7v7h-7V152.5z M369,159.7
	h7v7h-7V159.7z M369,174.2h7v7h-7V174.2z M369,203.3h7v7h-7V203.3z M369,246.8h7v7h-7V246.8z M376.3,152.5h7v7h-7V152.5z M376.3,167
	h7v7h-7V167z M376.3,181.5h7v7h-7V181.5z M376.3,196h7v7h-7V196z M376.3,210.5h7v7h-7V210.5z M376.3,225h7v7h-7V225z M376.3,239.6h7
	v7h-7V239.6z M376.3,254.1h7v7h-7V254.1z M376.3,268.6h7v7h-7V268.6z M376.3,297.7h7v7h-7V297.7z M376.3,326.7h7v7h-7V326.7z
	 M376.3,355.7h7v7h-7V355.7z M376.3,392h7v7h-7V392z M383.6,145.2h7v7h-7V145.2z M383.6,174.2h7v7h-7V174.2z M383.6,203.3h7v7h-7
	V203.3z M391,283.1h7v7h-7V283.1z M390.8,152.5h7v7h-7V152.5z M390.8,167h7v7h-7V167z M390.8,181.5h7v7h-7V181.5z M390.8,196h7v7h-7
	V196z M390.8,210.5h7v7h-7V210.5z M390.8,225h7v7h-7V225z M390.8,239.6h7v7h-7V239.6z M390.8,254.1h7v7h-7V254.1z M390.8,268.6h7v7
	h-7V268.6z M390.8,297.7h7v7h-7V297.7z M390.8,326.7h7v7h-7V326.7z M390.8,355.7h7v7h-7V355.7z M390.8,384.8h7v7h-7V384.8z
	 M398.1,145.2h7v7h-7V145.2z M398.1,152.5h7v7h-7V152.5z M398.1,159.7h7v7h-7V159.7z M398.1,174.2h7v7h-7V174.2z M398.1,188.8h7v7
	h-7V188.8z M398.1,203.3h7v7h-7V203.3z M405.3,152.5h7v7h-7V152.5z M405.3,167h7v7h-7V167z M405.3,181.5h7v7h-7V181.5z M405.3,196h7
	v7h-7V196z M405.3,210.5h7v7h-7V210.5z M405.3,225h7v7h-7V225z M405.3,239.6h7v7h-7V239.6z M405.3,254.1h7v7h-7V254.1z M405.3,268.6
	h7v7h-7V268.6z M412.7,283.1h7v7h-7V283.1z M405.3,297.7h7v7h-7V297.7z M405.3,333.9h7v7h-7V333.9z M405.3,370.3h7v7h-7V370.3z
	 M405.3,392h7v7h-7V392z M412.6,145.2h7v7h-7V145.2z M412.6,203.3h7v7h-7V203.3z M419.9,152.5h7v7h-7V152.5z M419.9,167h7v7h-7V167z
	 M419.9,181.5h7v7h-7V181.5z M419.9,196h7v7h-7V196z M419.9,210.5h7v7h-7V210.5z M419.9,225h7v7h-7V225z M419.9,239.6h7v7h-7V239.6z
	 M419.9,254.1h7v7h-7V254.1z M419.9,268.6h7v7h-7V268.6z M427.3,283.1h7v7h-7V283.1z M419.9,297.7h7v7h-7V297.7z M419.9,326.7h7v7
	h-7V326.7z M419.9,355.7h7v7h-7V355.7z M419.9,384.8h7v7h-7V384.8z M427.1,159.7h7v7h-7V159.7z M427.1,174.2h7v7h-7V174.2z
	 M434.5,283.1h7v7h-7V283.1z M434.4,152.5h7v7h-7V152.5z M434.4,167h7v7h-7V167z M434.4,181.5h7v7h-7V181.5z M434.4,196h7v7h-7V196z
	 M434.4,210.5h7v7h-7V210.5z M434.4,225h7v7h-7V225z M434.4,239.6h7v7h-7V239.6z M434.4,254.1h7v7h-7V254.1z M434.4,268.6h7v7h-7
	V268.6z M434.4,297.7h7v7h-7V297.7z M434.4,341.2h7v7h-7V341.2z M434.4,377.5h7v7h-7V377.5z M441.6,145.2h7v7h-7V145.2z
	 M441.6,203.3h7v7h-7V203.3z M448.9,152.5h7v7h-7V152.5z M448.9,167h7v7h-7V167z M448.9,181.5h7v7h-7V181.5z M448.9,196h7v7h-7V196z
	 M448.9,210.5h7v7h-7V210.5z M448.9,225h7v7h-7V225z M448.9,239.6h7v7h-7V239.6z M448.9,254.1h7v7h-7V254.1z M448.9,268.6h7v7h-7
	V268.6z M448.9,304.9h7v7h-7V304.9z M448.9,333.9h7v7h-7V333.9z M448.9,363h7v7h-7V363z M448.9,392h7v7h-7V392z M456.2,145.2h7v7h-7
	V145.2z M456.2,159.7h7v7h-7V159.7z M456.2,167h7v7h-7V167z M456.2,174.2h7v7h-7V174.2z M456.2,188.8h7v7h-7V188.8z M456.2,283.1h7
	v7h-7V283.1z M463.4,152.5h7v7h-7V152.5z M463.4,167h7v7h-7V167z M463.4,181.5h7v7h-7V181.5z M463.4,196h7v7h-7V196z M463.4,210.5h7
	v7h-7V210.5z M463.4,225h7v7h-7V225z M463.4,297.7h7v7h-7V297.7z M463.4,326.7h7v7h-7V326.7z M463.4,377.5h7v7h-7V377.5z
	 M470.7,145.2h7v7h-7V145.2z M470.7,174.2h7v7h-7V174.2z M470.7,203.3h7v7h-7V203.3z M470.7,254.1h7v7h-7V254.1z M470.7,268.6h7v7
	h-7V268.6z M470.7,283.1h7v7h-7V283.1z M477.9,152.5h7v7h-7V152.5z M477.9,167h7v7h-7V167z M477.9,181.5h7v7h-7V181.5z M477.9,196h7
	v7h-7V196z M477.9,210.5h7v7h-7V210.5z M477.9,225h7v7h-7V225z M477.9,239.6h7v7h-7V239.6z M477.9,261.3h7v7h-7V261.3z M477.9,312.2
	h7v7h-7V312.2z M477.9,348.5h7v7h-7V348.5z M477.9,363h7v7h-7V363z M477.9,384.8h7v7h-7V384.8z M485.2,159.7h7v7h-7V159.7z
	 M485.2,174.2h7v7h-7V174.2z M485.2,283.1h7v7h-7V283.1z M492.5,152.5h7v7h-7V152.5z M492.5,167h7v7h-7V167z M492.5,181.5h7v7h-7
	V181.5z M492.5,196h7v7h-7V196z M492.5,210.5h7v7h-7V210.5z M492.5,225h7v7h-7V225z M492.5,239.6h7v7h-7V239.6z M492.5,254.1h7v7h-7
	V254.1z M492.5,268.6h7v7h-7V268.6z M492.5,297.7h7v7h-7V297.7z M492.5,326.7h7v7h-7V326.7z M492.5,355.7h7v7h-7V355.7z
	 M492.5,384.8h7v7h-7V384.8z M499.7,145.2h7v7h-7V145.2z M499.7,203.3h7v7h-7V203.3z M507,152.5h7v7h-7V152.5z M507,167h7v7h-7V167z
	 M507,181.5h7v7h-7V181.5z M507,196h7v7h-7V196z M507,210.5h7v7h-7V210.5z M507,225h7v7h-7V225z M507,239.6h7v7h-7V239.6z
	 M507,254.1h7v7h-7V254.1z M507,268.6h7v7h-7V268.6z M507,312.2h7v7h-7V312.2z M507,341.2h7v7h-7V341.2z M507,370.3h7v7h-7V370.3z
	 M93.2,152.5h7v7h-7V152.5z M93.2,167h7v7h-7V167z M93.2,181.5h7v7h-7V181.5z M93.2,196h7v7h-7V196z M93.2,210.5h7v7h-7V210.5z
	 M100.6,283.1h7v7h-7V283.1z M93.2,297.7h7v7h-7V297.7z M93.2,319.4h7v7h-7V319.4z M93.2,341.2h7v7h-7V341.2z M93.2,377.5h7v7h-7
	V377.5z M93.2,392h7v7h-7V392z M100.5,145.2h7v7h-7V145.2z M100.5,152.5h7v7h-7V152.5z M100.5,159.7h7v7h-7V159.7z M100.5,174.2h7v7
	h-7V174.2z M100.5,203.3h7v7h-7V203.3z M107.7,152.5h7v7h-7V152.5z M107.7,167h7v7h-7V167z M107.7,181.5h7v7h-7V181.5z M107.7,225h7
	v7h-7V225z M107.7,239.6h7v7h-7V239.6z M107.7,254.1h7v7h-7V254.1z M107.7,268.6h7v7h-7V268.6z M115.1,283.1h7v7h-7V283.1z
	 M107.7,297.7h7v7h-7V297.7z M107.7,333.9h7v7h-7V333.9z M107.7,370.3h7v7h-7V370.3z M107.7,392h7v7h-7V392z M115,145.2h7v7h-7
	V145.2z M115,174.2h7v7h-7V174.2z M115,203.3h7v7h-7V203.3z M64.2,152.5h7v7h-7V152.5z M64.2,167h7v7h-7V167z M64.2,181.5h7v7h-7
	V181.5z M64.2,196h7v7h-7V196z M64.2,210.5h7v7h-7V210.5z M71.6,283.1h7v7h-7V283.1z M64.2,297.7h7v7h-7V297.7z M64.2,319.4h7v7h-7
	V319.4z M64.2,341.2h7v7h-7V341.2z M64.2,377.5h7v7h-7V377.5z M64.2,392h7v7h-7V392z M71.5,145.2h7v7h-7V145.2z M71.5,152.5h7v7h-7
	V152.5z M71.5,159.7h7v7h-7V159.7z M71.5,174.2h7v7h-7V174.2z M71.5,203.3h7v7h-7V203.3z M78.7,152.5h7v7h-7V152.5z M78.7,167h7v7
	h-7V167z M78.7,174.2h7v7h-7V174.2z M78.7,181.5h7v7h-7V181.5z M78.7,225h7v7h-7V225z M78.7,239.6h7v7h-7V239.6z M78.7,254.1h7v7h-7
	V254.1z M78.7,268.6h7v7h-7V268.6z M86.1,283.1h7v7h-7V283.1z M78.7,297.7h7v7h-7V297.7z M78.7,333.9h7v7h-7V333.9z M78.7,370.3h7v7
	h-7V370.3z M78.7,392h7v7h-7V392z M86,145.2h7v7h-7V145.2z M86,174.2h7v7h-7V174.2z M86,203.3h7v7h-7V203.3z M122.2,152.5h7v7h-7
	V152.5z M122.2,167h7v7h-7V167z M122.2,181.5h7v7h-7V181.5z M122.2,196h7v7h-7V196z M122.2,239.6h7v7h-7V239.6z M122.2,254.1h7v7h-7
	V254.1z M122.2,268.6h7v7h-7V268.6z M129.6,283.1h7v7h-7V283.1z M122.2,297.7h7v7h-7V297.7z M122.2,326.7h7v7h-7V326.7z
	 M122.2,355.7h7v7h-7V355.7z M122.2,377.5h7v7h-7V377.5z M122.2,392h7v7h-7V392z M129.5,145.2h7v7h-7V145.2z M129.5,152.5h7v7h-7
	V152.5z M129.5,159.7h7v7h-7V159.7z M129.5,174.2h7v7h-7V174.2z M129.5,188.8h7v7h-7V188.8z M129.5,203.3h7v7h-7V203.3z
	 M136.8,152.5h7v7h-7V152.5z M136.8,167h7v7h-7V167z M136.8,181.5h7v7h-7V181.5z M136.8,196h7v7h-7V196z M136.8,225h7v7h-7V225z
	 M136.8,239.6h7v7h-7V239.6z M136.8,254.1h7v7h-7V254.1z M136.8,268.6h7v7h-7V268.6z M136.8,304.9h7v7h-7V304.9z M136.8,333.9h7v7
	h-7V333.9z M136.8,370.3h7v7h-7V370.3z M136.8,392h7v7h-7V392z M144,145.2h7v7h-7V145.2z M144,188.8h7v7h-7V188.8z M151.3,152.5h7v7
	h-7V152.5z M151.3,167h7v7h-7V167z M151.3,181.5h7v7h-7V181.5z M151.3,196h7v7h-7V196z M151.3,210.5h7v7h-7V210.5z M151.3,225h7v7
	h-7V225z M151.3,239.6h7v7h-7V239.6z M151.3,254.1h7v7h-7V254.1z M158.7,283.1h7v7h-7V283.1z M151.3,297.7h7v7h-7V297.7z
	 M151.3,333.9h7v7h-7V333.9z M151.3,384.8h7v7h-7V384.8z M158.5,145.2h7v7h-7V145.2z M158.5,152.5h7v7h-7V152.5z M158.5,159.7h7v7
	h-7V159.7z M158.5,174.2h7v7h-7V174.2z M158.5,203.3h7v7h-7V203.3z M158.5,246.8h7v7h-7V246.8z M165.8,152.5h7v7h-7V152.5z
	 M165.8,167h7v7h-7V167z M165.8,181.5h7v7h-7V181.5z M165.8,196h7v7h-7V196z M165.8,210.5h7v7h-7V210.5z M165.8,225h7v7h-7V225z
	 M165.8,239.6h7v7h-7V239.6z M165.8,254.1h7v7h-7V254.1z M165.8,268.6h7v7h-7V268.6z M165.8,297.7h7v7h-7V297.7z M165.8,326.7h7v7
	h-7V326.7z M165.8,355.7h7v7h-7V355.7z M165.8,392h7v7h-7V392z M173.1,145.2h7v7h-7V145.2z M173.1,174.2h7v7h-7V174.2z M173.1,203.3
	h7v7h-7V203.3z M13.2,123.3h7v7h-7V123.3z M13.2,137.8h7v7h-7V137.8z M13.2,116h7v7h-7V116z M13.2,145.1h7v7h-7V145.1z M13.2,174.1
	h7v7h-7V174.1z M13.2,203.2h7v7h-7V203.2z M180.5,283.1h7v7h-7V283.1z M180.3,152.5h7v7h-7V152.5z M180.3,167h7v7h-7V167z
	 M180.3,181.5h7v7h-7V181.5z M180.3,196h7v7h-7V196z M180.3,210.5h7v7h-7V210.5z M180.3,225h7v7h-7V225z M180.3,239.6h7v7h-7V239.6z
	 M180.3,254.1h7v7h-7V254.1z M180.3,268.6h7v7h-7V268.6z M180.3,297.7h7v7h-7V297.7z M180.3,326.7h7v7h-7V326.7z M180.3,355.7h7v7
	h-7V355.7z M180.3,384.8h7v7h-7V384.8z M187.6,145.2h7v7h-7V145.2z M187.6,152.5h7v7h-7V152.5z M187.6,159.7h7v7h-7V159.7z
	 M187.6,174.2h7v7h-7V174.2z M187.6,188.8h7v7h-7V188.8z M187.6,203.3h7v7h-7V203.3z M194.8,152.5h7v7h-7V152.5z M194.8,167h7v7h-7
	V167z M194.8,181.5h7v7h-7V181.5z M194.8,196h7v7h-7V196z M194.8,210.5h7v7h-7V210.5z M194.8,225h7v7h-7V225z M194.8,239.6h7v7h-7
	V239.6z M194.8,254.1h7v7h-7V254.1z M194.8,268.6h7v7h-7V268.6z M202.2,283.1h7v7h-7V283.1z M194.8,297.7h7v7h-7V297.7z
	 M194.8,333.9h7v7h-7V333.9z M194.8,370.3h7v7h-7V370.3z M194.8,392h7v7h-7V392z M202.1,145.2h7v7h-7V145.2z M202.1,203.3h7v7h-7
	V203.3z M209.4,152.5h7v7h-7V152.5z M209.4,167h7v7h-7V167z M209.4,181.5h7v7h-7V181.5z M209.4,196h7v7h-7V196z M209.4,210.5h7v7h-7
	V210.5z M209.4,225h7v7h-7V225z M209.4,239.6h7v7h-7V239.6z M209.4,254.1h7v7h-7V254.1z M209.4,268.6h7v7h-7V268.6z M216.8,283.1h7
	v7h-7V283.1z M209.4,297.7h7v7h-7V297.7z M209.4,326.7h7v7h-7V326.7z M209.4,355.7h7v7h-7V355.7z M209.4,384.8h7v7h-7V384.8z
	 M216.6,159.7h7v7h-7V159.7z M216.6,174.2h7v7h-7V174.2z M224,283.1h7v7h-7V283.1z M223.9,152.5h7v7h-7V152.5z M223.9,167h7v7h-7
	V167z M223.9,181.5h7v7h-7V181.5z M223.9,196h7v7h-7V196z M223.9,210.5h7v7h-7V210.5z M223.9,225h7v7h-7V225z M223.9,239.6h7v7h-7
	V239.6z M223.9,254.1h7v7h-7V254.1z M223.9,268.6h7v7h-7V268.6z M223.9,297.7h7v7h-7V297.7z M223.9,341.2h7v7h-7V341.2z
	 M223.9,377.5h7v7h-7V377.5z M231.1,145.2h7v7h-7V145.2z M231.1,203.3h7v7h-7V203.3z M238.4,152.5h7v7h-7V152.5z M238.4,167h7v7h-7
	V167z M238.4,181.5h7v7h-7V181.5z M238.4,196h7v7h-7V196z M238.4,210.5h7v7h-7V210.5z M238.4,225h7v7h-7V225z M238.4,239.6h7v7h-7
	V239.6z M238.4,254.1h7v7h-7V254.1z M238.4,268.6h7v7h-7V268.6z M238.4,304.9h7v7h-7V304.9z M238.4,333.9h7v7h-7V333.9z M238.4,363
	h7v7h-7V363z M238.4,392h7v7h-7V392z M245.7,145.2h7v7h-7V145.2z M245.7,159.7h7v7h-7V159.7z M245.7,167h7v7h-7V167z M245.7,174.2h7
	v7h-7V174.2z M245.7,188.8h7v7h-7V188.8z M245.7,283.1h7v7h-7V283.1z M252.9,152.5h7v7h-7V152.5z M252.9,167h7v7h-7V167z
	 M252.9,181.5h7v7h-7V181.5z M252.9,196h7v7h-7V196z M252.9,210.5h7v7h-7V210.5z M252.9,225h7v7h-7V225z M252.9,297.7h7v7h-7V297.7z
	 M252.9,326.7h7v7h-7V326.7z M252.9,377.5h7v7h-7V377.5z M260.2,145.2h7v7h-7V145.2z M260.2,174.2h7v7h-7V174.2z M260.2,203.3h7v7
	h-7V203.3z M260.2,254.1h7v7h-7V254.1z M260.2,268.6h7v7h-7V268.6z M260.2,283.1h7v7h-7V283.1z M267.4,152.5h7v7h-7V152.5z
	 M267.4,167h7v7h-7V167z M267.4,181.5h7v7h-7V181.5z M267.4,196h7v7h-7V196z M267.4,210.5h7v7h-7V210.5z M267.4,225h7v7h-7V225z
	 M267.4,239.6h7v7h-7V239.6z M267.4,261.3h7v7h-7V261.3z M267.4,312.2h7v7h-7V312.2z M267.4,348.5h7v7h-7V348.5z M267.4,363h7v7h-7
	V363z M267.4,384.8h7v7h-7V384.8z M274.7,159.7h7v7h-7V159.7z M274.7,174.2h7v7h-7V174.2z M20.4,123.3h7v7h-7V123.3z M20.4,137.8h7
	v7h-7V137.8z M27.6,123.3h7v7h-7V123.3z M27.6,137.8h7v7h-7V137.8z M34.9,123.3h7v7h-7V123.3z M34.9,137.8h7v7h-7V137.8z
	 M42.2,123.3h7v7h-7V123.3z M42.2,137.8h7v7h-7V137.8z M49.4,123.3h7v7h-7V123.3z M49.4,137.8h7v7h-7V137.8z M56.8,123.3h7v7h-7
	V123.3z M56.8,137.8h7v7h-7V137.8z M20.4,108.8h7v7h-7V108.8z M27.6,116h7v7h-7V116z M34.9,108.8h7v7h-7V108.8z M42.1,116h7v7h-7
	V116z M49.4,108.8h7v7h-7V108.8z M56.8,116h7v7h-7V116z M20.4,152.4h7v7h-7V152.4z M20.4,166.9h7v7h-7V166.9z M20.4,181.4h7v7h-7
	V181.4z M20.4,195.9h7v7h-7V195.9z M20.4,210.4h7v7h-7V210.4z M20.4,224.9h7v7h-7V224.9z M20.4,239.5h7v7h-7V239.5z M20.4,254h7v7
	h-7V254z M27.8,145.1h7v7h-7V145.1z M27.8,159.6h7v7h-7V159.6z M27.8,166.9h7v7h-7V166.9z M27.8,174.1h7v7h-7V174.1z M27.8,188.7h7
	v7h-7V188.7z M34.9,152.4h7v7h-7V152.4z M34.9,166.9h7v7h-7V166.9z M34.9,181.4h7v7h-7V181.4z M34.9,195.9h7v7h-7V195.9z
	 M34.9,210.4h7v7h-7V210.4z M34.9,224.9h7v7h-7V224.9z M42.2,145.1h7v7h-7V145.1z M42.2,174.1h7v7h-7V174.1z M42.2,203.2h7v7h-7
	V203.2z M42.2,254h7v7h-7V254z M49.4,152.4h7v7h-7V152.4z M49.4,166.9h7v7h-7V166.9z M49.4,181.4h7v7h-7V181.4z M49.4,195.9h7v7h-7
	V195.9z M49.4,210.4h7v7h-7V210.4z M49.4,224.9h7v7h-7V224.9z M49.4,239.5h7v7h-7V239.5z M49.4,261.2h7v7h-7V261.2z M56.8,159.6h7v7
	h-7V159.6z M56.8,174.1h7v7h-7V174.1z M274.7,283.1h7v7h-7V283.1z M282,152.5h7v7h-7V152.5z M282,167h7v7h-7V167z M282,181.5h7v7h-7
	V181.5z M282,196h7v7h-7V196z M282,210.5h7v7h-7V210.5z M282,225h7v7h-7V225z M282,239.6h7v7h-7V239.6z M282,254.1h7v7h-7V254.1z
	 M282,268.6h7v7h-7V268.6z M282,297.7h7v7h-7V297.7z M282,326.7h7v7h-7V326.7z M282,355.7h7v7h-7V355.7z M282,384.8h7v7h-7V384.8z
	 M289.2,145.2h7v7h-7V145.2z M289.2,203.3h7v7h-7V203.3z M296.5,152.5h7v7h-7V152.5z M296.5,167h7v7h-7V167z M296.5,181.5h7v7h-7
	V181.5z M296.5,196h7v7h-7V196z M296.5,210.5h7v7h-7V210.5z M296.5,225h7v7h-7V225z M296.5,239.6h7v7h-7V239.6z M296.5,254.1h7v7h-7
	V254.1z M296.5,268.6h7v7h-7V268.6z M296.5,312.2h7v7h-7V312.2z M296.5,341.2h7v7h-7V341.2z M296.5,370.3h7v7h-7V370.3z
	 M724.8,406.5h7v7h-7V406.5z M724.8,428.3h7v7h-7V428.3z M724.8,479.1h7v7h-7V479.1z M739.3,421h7v7h-7V421z M739.3,457.4h7v7h-7
	V457.4z M753.8,442.8h7v7h-7V442.8z M768.4,457.4h7v7h-7V457.4z M768.4,479.1h7v7h-7V479.1z M782.9,421h7v7h-7V421z M782.9,471.9h7
	v7h-7V471.9z M797.4,413.8h7v7h-7V413.8z M797.4,442.8h7v7h-7V442.8z M797.4,479.1h7v7h-7V479.1z M811.9,413.8h7v7h-7V413.8z
	 M811.9,471.9h7v7h-7V471.9z M826.4,457.4h7v7h-7V457.4z M826.4,479.1h7v7h-7V479.1z M841,413.8h7v7h-7V413.8z M841,442.8h7v7h-7
	V442.8z M855.5,428.3h7v7h-7V428.3z M855.5,464.6h7v7h-7V464.6z M870,421h7v7h-7V421z M870,450.1h7v7h-7V450.1z M870,479.1h7v7h-7
	V479.1z M884.5,413.8h7v7h-7V413.8z M899,399.3h7v7h-7V399.3z M899,450.1h7v7h-7V450.1z M899,471.9h7v7h-7V471.9z M913.6,413.8h7v7
	h-7V413.8z M913.6,442.8h7v7h-7V442.8z M913.6,471.9h7v7h-7V471.9z M928.1,399.3h7v7h-7V399.3z M928.1,428.3h7v7h-7V428.3z
	 M928.1,457.4h7v7h-7V457.4z M514.3,406.5h7v7h-7V406.5z M514.3,479.1h7v7h-7V479.1z M528.8,421h7v7h-7V421z M528.8,457.4h7v7h-7
	V457.4z M543.3,413.8h7v7h-7V413.8z M543.3,442.8h7v7h-7V442.8z M543.3,479.1h7v7h-7V479.1z M557.9,421h7v7h-7V421z M557.9,457.4h7
	v7h-7V457.4z M572.4,421h7v7h-7V421z M572.4,471.9h7v7h-7V471.9z M586.9,413.8h7v7h-7V413.8z M586.9,442.8h7v7h-7V442.8z
	 M586.9,479.1h7v7h-7V479.1z M601.4,413.8h7v7h-7V413.8z M601.4,471.9h7v7h-7V471.9z M615.9,421h7v7h-7V421z M615.9,457.4h7v7h-7
	V457.4z M615.9,479.1h7v7h-7V479.1z M630.5,413.8h7v7h-7V413.8z M630.5,442.8h7v7h-7V442.8z M645,428.3h7v7h-7V428.3z M645,464.6h7
	v7h-7V464.6z M659.5,421h7v7h-7V421z M659.5,450.1h7v7h-7V450.1z M659.5,479.1h7v7h-7V479.1z M674,413.8h7v7h-7V413.8z M688.5,399.3
	h7v7h-7V399.3z M688.5,435.6h7v7h-7V435.6z M688.5,471.9h7v7h-7V471.9z M703.1,413.8h7v7h-7V413.8z M703.1,442.8h7v7h-7V442.8z
	 M703.1,471.9h7v7h-7V471.9z M717.6,399.3h7v7h-7V399.3z M303.7,406.5h7v7h-7V406.5z M303.7,428.3h7v7h-7V428.3z M303.7,479.1h7v7
	h-7V479.1z M318.2,421h7v7h-7V421z M318.2,457.4h7v7h-7V457.4z M318.2,479.1h7v7h-7V479.1z M332.7,413.8h7v7h-7V413.8z M332.7,464.6
	h7v7h-7V464.6z M347.3,421h7v7h-7V421z M347.3,457.4h7v7h-7V457.4z M347.3,479.1h7v7h-7V479.1z M361.8,421h7v7h-7V421z M361.8,471.9
	h7v7h-7V471.9z M376.3,413.8h7v7h-7V413.8z M376.3,442.8h7v7h-7V442.8z M376.3,479.1h7v7h-7V479.1z M390.8,413.8h7v7h-7V413.8z
	 M405.3,421h7v7h-7V421z M405.3,457.4h7v7h-7V457.4z M405.3,479.1h7v7h-7V479.1z M419.9,413.8h7v7h-7V413.8z M419.9,442.8h7v7h-7
	V442.8z M419.9,471.9h7v7h-7V471.9z M434.4,428.3h7v7h-7V428.3z M434.4,464.6h7v7h-7V464.6z M448.9,450.1h7v7h-7V450.1z
	 M448.9,479.1h7v7h-7V479.1z M463.4,413.8h7v7h-7V413.8z M477.9,399.3h7v7h-7V399.3z M477.9,450.1h7v7h-7V450.1z M492.5,413.8h7v7
	h-7V413.8z M492.5,442.8h7v7h-7V442.8z M492.5,471.9h7v7h-7V471.9z M507,399.3h7v7h-7V399.3z M507,428.3h7v7h-7V428.3z M507,457.4h7
	v7h-7V457.4z M93.2,406.5h7v7h-7V406.5z M93.2,428.3h7v7h-7V428.3z M93.2,479.1h7v7h-7V479.1z M107.7,479.1h7v7h-7V479.1z
	 M64.2,406.5h7v7h-7V406.5z M64.2,428.3h7v7h-7V428.3z M64.2,464.6h7v7h-7V464.6z M64.2,479.1h7v7h-7V479.1z M78.7,421h7v7h-7V421z
	 M78.7,457.4h7v7h-7V457.4z M122.2,413.8h7v7h-7V413.8z M122.2,442.8h7v7h-7V442.8z M136.8,421h7v7h-7V421z M136.8,457.4h7v7h-7
	V457.4z M136.8,479.1h7v7h-7V479.1z M151.3,421h7v7h-7V421z M165.8,413.8h7v7h-7V413.8z M165.8,442.8h7v7h-7V442.8z M165.8,479.1h7
	v7h-7V479.1z M180.3,471.9h7v7h-7V471.9z M194.8,421h7v7h-7V421z M194.8,457.4h7v7h-7V457.4z M194.8,479.1h7v7h-7V479.1z
	 M209.4,413.8h7v7h-7V413.8z M209.4,442.8h7v7h-7V442.8z M209.4,471.9h7v7h-7V471.9z M238.4,421h7v7h-7V421z M238.4,450.1h7v7h-7
	V450.1z M238.4,479.1h7v7h-7V479.1z M252.9,413.8h7v7h-7V413.8z M252.9,464.6h7v7h-7V464.6z M267.4,399.3h7v7h-7V399.3z
	 M267.4,435.6h7v7h-7V435.6z M267.4,450.1h7v7h-7V450.1z M282,413.8h7v7h-7V413.8z M282,471.9h7v7h-7V471.9z M296.5,457.4h7v7h-7
	V457.4z M942.6,123.4h7v7h-7V123.4z M942.6,137.9h7v7h-7V137.9z M942.6,152.5h7v7h-7V152.5z M942.6,167h7v7h-7V167z M942.6,181.5h7
	v7h-7V181.5z M942.6,196h7v7h-7V196z M942.6,210.5h7v7h-7V210.5z M942.6,225h7v7h-7V225z M942.6,239.6h7v7h-7V239.6z M942.6,254.1h7
	v7h-7V254.1z M949.8,123.4h7v7h-7V123.4z M949.8,137.9h7v7h-7V137.9z M949.8,145.2h7v7h-7V145.2z M949.8,152.5h7v7h-7V152.5z
	 M949.8,159.7h7v7h-7V159.7z M949.8,174.2h7v7h-7V174.2z M949.8,203.3h7v7h-7V203.3z M949.8,246.8h7v7h-7V246.8z M957.1,123.4h7v7
	h-7V123.4z M957.1,137.9h7v7h-7V137.9z M957.1,152.5h7v7h-7V152.5z M957.1,167h7v7h-7V167z M957.1,181.5h7v7h-7V181.5z M957.1,196h7
	v7h-7V196z M957.1,210.5h7v7h-7V210.5z M957.1,225h7v7h-7V225z M957.1,239.6h7v7h-7V239.6z M957.1,254.1h7v7h-7V254.1z M964.4,123.4
	h7v7h-7V123.4z M964.4,137.9h7v7h-7V137.9z M964.4,145.2h7v7h-7V145.2z M964.4,174.2h7v7h-7V174.2z M964.4,203.3h7v7h-7V203.3z
	 M971.6,123.4h7v7h-7V123.4z M971.6,137.9h7v7h-7V137.9z M971.6,152.5h7v7h-7V152.5z M971.6,167h7v7h-7V167z M971.6,181.5h7v7h-7
	V181.5z M971.6,196h7v7h-7V196z M971.6,210.5h7v7h-7V210.5z M971.6,225h7v7h-7V225z M971.6,239.6h7v7h-7V239.6z M971.6,254.1h7v7h-7
	V254.1z M978.9,123.4h7v7h-7V123.4z M978.9,137.9h7v7h-7V137.9z M978.9,145.2h7v7h-7V145.2z M978.9,152.5h7v7h-7V152.5z
	 M978.9,159.7h7v7h-7V159.7z M978.9,174.2h7v7h-7V174.2z M978.9,188.8h7v7h-7V188.8z M978.9,203.3h7v7h-7V203.3z M978.9,108.9h7v7
	h-7V108.9z M942.6,116.1h7v7h-7V116.1z M949.9,108.9h7v7h-7V108.9z M957.2,116.1h7v7h-7V116.1z M964.4,108.9h7v7h-7V108.9z
	 M935.3,123.3h7v7h-7V123.3z M935.3,137.8h7v7h-7V137.8z M935.3,145.1h7v7h-7V145.1z M935.3,174.1h7v7h-7V174.1z M935.3,203.2h7v7
	h-7V203.2z M935.3,108.8h7v7h-7V108.8z M971.7,116.1h7v7h-7V116.1z"/>
</svg>
