<?xml version="1.0" encoding="utf-8"?>
<!-- Generator: Adobe Illustrator 27.3.1, SVG Export Plug-In . SVG Version: 6.00 Build 0)  -->
<svg version="1.1" xmlns="http://www.w3.org/2000/svg" xmlns:xlink="http://www.w3.org/1999/xlink" x="0px" y="0px"
	 viewBox="0 0 140.4 133.1" style="enable-background:new 0 0 140.4 133.1;" xml:space="preserve">
<style type="text/css">
	.st0{fill:#FCE8B3;}
	.st1{fill:#1E0E01;}
</style>
<g id="Слой_2">
	<path class="st0" d="M140.4,99.4c0-2.8-2.2-5-5-5h-2.2v-2.3c0-2.8-2.2-5-5-5h-2.3v-2.2c0-2.8-2.2-5-5-5h-2.2v-2.3c0-2.8-2.2-5-5-5
		h-2.3v-2.3c0-2.8-2.2-5-5-5h-7c0,0-0.1,0-0.2,0c0,0-0.1,0-0.2,0h-7c-0.1,0-0.1,0-0.2,0h-7c0,0-0.1,0-0.2,0c0,0-0.1,0-0.2,0h-2.2
		v-2.2c0-0.1,0-0.1,0-0.1c0-0.1,0-0.1,0-0.2v-2.3h2.2c2.8,0,5-2.2,5-5v-2.2h2.3c2.8,0,5-2.2,5-5V46h2.2c2.8,0,5-2.2,5-5v-7
		c0,0,0-0.1,0-0.1c0,0,0-0.1,0-0.1v-7c0-0.1,0-0.1,0-0.1c0,0,0-0.1,0-0.1v-7c0,0,0-0.1,0-0.1c0,0,0-0.1,0-0.1v-7c0-0.1,0-0.1,0-0.1
		c0,0,0-0.1,0-0.1V5c0-2.8-2.2-5-5-5h-7C92,0,92,0,92,0c0,0-0.1,0-0.2,0h-7c0,0-0.1,0-0.2,0c0,0-0.1,0-0.1,0h-7c-0.1,0-0.1,0-0.2,0
		h-7c-0.1,0-0.1,0-0.1,0c0,0-0.1,0-0.1,0h-7c-0.1,0-0.1,0-0.2,0h-7c-0.1,0-0.1,0-0.1,0c0,0-0.1,0-0.1,0h-7c-0.1,0-0.1,0-0.2,0h-7
		c-2.8,0-5,2.2-5,5v7c0,0.1,0,0.1,0,0.1c0,0,0,0.1,0,0.1v7c0,0,0,0.1,0,0.1c0,0,0,0.1,0,0.1v7c0,0.1,0,0.1,0,0.1c0,0,0,0.1,0,0.1v7
		c0,0,0,0.1,0,0.1c0,0,0,0.1,0,0.1v7c0,2.8,2.2,5,5,5h2.3v2.3c0,2.8,2.2,5,5,5h2.2v2.2c0,2.8,2.2,5,5,5h2.3v2.3c0,0.1,0,0.1,0,0.2
		c0,0,0,0.1,0,0.1v2.2h-2.3c-0.1,0-0.1,0-0.2,0h-7c-0.1,0-0.1,0-0.1,0c-0.1,0-0.1,0-0.2,0h-7c-0.1,0-0.1,0-0.2,0h-7
		c-2.8,0-5,2.2-5,5v2.3h-2.3c-2.8,0-5,2.2-5,5v2.3h-2.3c-2.8,0-5,2.2-5,5v2.2h-2.2c-2.8,0-5,2.2-5,5v2.3H5c-2.8,0-5,2.2-5,5v7
		c0,0,0,0.1,0,0.1c0,0,0,0.1,0,0.1v7c0,0,0,0.1,0,0.2c0,0,0,0.1,0,0.2v7c0,0,0,0.1,0,0.1c0,0,0,0.1,0,0.1v7c0,2.8,2.2,5,5,5h7
		c2.8,0,5-2.2,5-5v-2.2h2.3c2.8,0,5-2.2,5-5v-2.3h2.2c2.8,0,5-2.2,5-5v-2.2h2.3c2.8,0,5-2.2,5-5v-2.3h2.3c0.1,0,0.1,0,0.2,0h7
		c0.1,0,0.2,0,0.3,0h7c0.1,0,0.1,0,0.2,0h7c0.1,0,0.2,0,0.3,0h7c0.1,0,0.2,0,0.3,0h7c0.1,0,0.1,0,0.2,0h7c0.1,0,0.2,0,0.3,0h7
		c0.1,0,0.1,0,0.2,0h7c0.1,0,0.2,0,0.3,0h2.3v2.3c0,2.8,2.2,5,5,5h2.2v2.2c0,2.8,2.2,5,5,5h2.3v2.3c0,2.8,2.2,5,5,5h2.2v2.2
		c0,2.8,2.2,5,5,5h7c2.8,0,5-2.2,5-5v-7c0,0,0-0.1,0-0.1c0,0,0-0.1,0-0.1v-7c0,0,0-0.1,0-0.2c0,0,0-0.1,0-0.2v-7c0,0,0-0.1,0-0.1
		c0,0,0-0.1,0-0.1V99.4z"/>
</g>
<g id="Слой_1">
	<path class="st1" d="M41.3,5h7v7h-7V5z M41.3,12.3h7v7h-7V12.3z M41.3,19.5h7v7h-7V19.5z M41.3,26.8h7v7h-7V26.8z M41.3,34h7v7h-7
		V34z M48.5,5h7v7h-7V5z M48.6,41.3h7v7h-7V41.3z M55.8,5h7v7h-7V5z M55.6,19.3h7v7h-7V19.3z M55.8,48.5h7v7h-7V48.5z M5,99.4h7v7H5
		V99.4z M5,106.6h7v7H5V106.6z M5,113.9h7v7H5V113.9z M12.3,92.1h7v7h-7V92.1z M12.3,113.9h7v7h-7V113.9z M19.5,84.9h7v7h-7V84.9z
		 M19.5,106.6h7v7h-7V106.6z M26.8,77.6h7v7h-7V77.6z M26.8,99.4h7v7h-7V99.4z M34.1,70.3h7v7h-7C34.1,77.3,34.1,70.3,34.1,70.3z
		 M34.1,92.1h7v7h-7C34.1,99.1,34.1,92.1,34.1,92.1z M41.3,70.3h7v7h-7V70.3z M41.3,92.1h7v7h-7V92.1z M48.6,70.3h7v7h-7V70.3z
		 M48.6,92.1h7v7h-7V92.1z M55.8,70.3h7v7h-7V70.3z M55.8,92.1h7v7h-7V92.1z M63,5h7v7h-7V5z M63.1,55.8h7v7h-7V55.8z M70.3,5h7v7
		h-7V5z M70.4,55.8h7v7h-7V55.8z M77.5,5h7v7h-7V5z M77.6,19.5h7v7h-7V19.5z M77.6,48.5h7v7h-7V48.5z M84.8,5h7v7h-7V5z M84.9,41.3
		h7v7h-7V41.3z M92.1,5h7v7h-7V5z M92.1,12.3h7v7h-7V12.3z M92.1,19.5h7v7h-7V19.5z M92.1,26.8h7v7h-7V26.8z M92.1,34h7v7h-7V34z
		 M63.1,63.1h7v7h-7V63.1z M63.1,84.9h7v7h-7V84.9z M63.1,92.1h7v7h-7V92.1z M70.4,63.1h7v7h-7V63.1z M70.4,84.9h7v7h-7V84.9z
		 M70.4,92.1h7v7h-7V92.1z M77.6,70.3h7v7h-7V70.3z M77.6,92.1h7v7h-7V92.1z M84.9,70.3h7v7h-7V70.3z M84.9,92.1h7v7h-7V92.1z
		 M92.1,70.3h7v7h-7V70.3z M92.1,92.1h7v7h-7V92.1z M99.4,70.3h7v7h-7V70.3z M99.4,92.1h7v7h-7V92.1z M106.7,77.6h7v7h-7V77.6z
		 M106.7,99.4h7v7h-7V99.4z M113.9,84.9h7v7h-7V84.9z M113.9,106.6h7v7h-7V106.6z M121.2,92.1h7v7h-7V92.1z M121.2,113.9h7v7h-7
		V113.9z M128.4,99.4h7v7h-7C128.4,106.4,128.4,99.4,128.4,99.4z M128.4,106.6h7v7h-7C128.4,113.6,128.4,106.6,128.4,106.6z
		 M128.4,113.9h7v7h-7C128.4,120.9,128.4,113.9,128.4,113.9z M5,121.1h7v7H5V121.1z M128.4,121.1h7v7h-7
		C128.4,128.1,128.4,121.1,128.4,121.1z"/>
</g>
</svg>
