<?xml version="1.0" encoding="utf-8"?>
<!-- Generator: Adobe Illustrator 27.3.1, SVG Export Plug-In . SVG Version: 6.00 Build 0)  -->
<svg version="1.1" id="Слой_1" xmlns="http://www.w3.org/2000/svg" xmlns:xlink="http://www.w3.org/1999/xlink" x="0px" y="0px"
	 viewBox="0 0 57.8 115.8" style="enable-background:new 0 0 57.8 115.8;" xml:space="preserve">
<style type="text/css">
	.st0{fill:#1E0E01;}
</style>
<path class="st0" d="M7.3,7.2h7v7h-7V7.2z M7.3,14.5h7v7h-7V14.5z M7.3,21.8h7v7h-7V21.8z M7.3,29h7v7h-7V29z M7.3,36.2h7v7h-7V36.2
	z M7.3,43.5h7v7h-7V43.5z M14.5,0h7v7h-7V0z M14.5,29h7v7h-7V29z M14.5,36.2h7v7h-7V36.2z M21.8,0h7v7h-7V0z M21.8,29h7v7h-7V29z
	 M29.1,0h7v7h-7V0z M29.1,29h7v7h-7V29z M36.3,0h7v7h-7V0z M36.3,29h7v7h-7V29z M36.3,36.2h7v7h-7V36.2z M43.6,29h7v7h-7V29z
	 M43.6,36.2h7v7h-7V36.2z M43.6,43.5h7v7h-7V43.5z M43.6,7.2h7v7h-7V7.2z M43.6,14.5h7v7h-7V14.5z M43.6,21.8h7v7h-7V21.8z M0,58h7
	v7H0V58z M0,65.3h7v7H0V65.3z M0,72.6h7v7H0V72.6z M0,79.8h7v7H0V79.8z M0,87.1h7v7H0V87.1z M0,94.3h7v7H0V94.3z M7.3,50.8h7v7h-7
	V50.8z M7.3,58h7v7h-7V58z M7.3,87.1h7v7h-7V87.1z M7.3,101.6h7v7h-7V101.6z M14.5,58h7v7h-7V58z M14.5,65.3h7v7h-7V65.3z
	 M14.5,72.6h7v7h-7V72.6z M14.5,79.8h7v7h-7V79.8z M14.5,87.1h7v7h-7V87.1z M14.5,94.3h7v7h-7V94.3z M14.5,101.6h7v7h-7V101.6z
	 M21.8,58h7v7h-7V58z M21.8,87.1h7v7h-7V87.1z M21.8,94.3h7v7h-7V94.3z M21.8,101.6h7v7h-7V101.6z M29.1,58h7v7h-7V58z M29.1,87.1h7
	v7h-7V87.1z M29.1,94.3h7v7h-7V94.3z M29.1,101.6h7v7h-7V101.6z M36.3,58h7v7h-7V58z M36.3,65.3h7v7h-7V65.3z M36.3,72.6h7v7h-7
	V72.6z M36.3,79.8h7v7h-7V79.8z M36.3,87.1h7v7h-7V87.1z M36.3,94.3h7v7h-7V94.3z M36.3,101.6h7v7h-7V101.6z M43.6,50.8h7v7h-7V50.8
	z M43.6,58h7v7h-7V58z M43.6,87.1h7v7h-7V87.1z M43.6,101.6h7v7h-7V101.6z M50.8,58h7v7h-7V58z M50.8,65.3h7v7h-7V65.3z M50.8,72.6
	h7v7h-7V72.6z M50.8,79.8h7v7h-7V79.8z M50.8,87.1h7v7h-7V87.1z M50.8,94.3h7v7h-7V94.3z M7.3,108.8h7v7h-7V108.8z M14.5,108.8h7v7
	h-7V108.8z M21.8,108.8h7v7h-7V108.8z M29.1,108.8h7v7h-7V108.8z M36.3,108.8h7v7h-7V108.8z M43.6,108.8h7v7h-7V108.8z"/>
</svg>
