<?xml version="1.0" encoding="utf-8"?>
<!-- Generator: Adobe Illustrator 27.3.1, SVG Export Plug-In . SVG Version: 6.00 Build 0)  -->
<svg version="1.1" id="Слой_1" xmlns="http://www.w3.org/2000/svg" xmlns:xlink="http://www.w3.org/1999/xlink" x="0px" y="0px"
	 viewBox="0 0 57.8 115.8" style="enable-background:new 0 0 57.8 115.8;" xml:space="preserve">
<style type="text/css">
	.st0{fill:#1E0E01;}
</style>
<path class="st0" d="M57.8,14.2h-7v-7h7V14.2z M57.8,21.5h-7v-7h7V21.5z M57.8,28.7h-7v-7h7V28.7z M57.8,36h-7v-7h7V36z M57.8,43.2
	h-7v-7h7V43.2z M57.8,50.5h-7v-7h7V50.5z M50.5,7h-7V0l7,0V7z M50.5,28.7h-7v-7h7V28.7z M43.3,7h-7V0l7,0V7z M43.3,28.7h-7v-7h7
	V28.7z M43.3,36h-7v-7h7V36z M43.3,43.2h-7v-7h7V43.2z M36,7h-7V0l7,0V7z M36,28.7h-7v-7h7V28.7z M36,36h-7v-7h7V36z M28.8,7h-7V0
	l7,0V7z M28.8,28.7h-7v-7h7V28.7z M28.8,36h-7v-7h7V36z M28.8,43.2h-7v-7h7V43.2z M21.5,14.2h-7v-7h7V14.2z M21.5,21.5h-7v-7h7V21.5
	z M21.5,28.7h-7v-7h7V28.7z M21.5,43.2h-7v-7h7V43.2z M14.2,28.7h-7v-7h7V28.7z M14.2,43.2h-7v-7h7V43.2z M14.2,50.5h-7v-7h7V50.5z
	 M57.8,57.8h-7v-7h7V57.8z M57.8,65h-7v-7h7V65z M57.8,79.6h-7v-7h7V79.6z M57.8,86.8h-7v-7h7V86.8z M57.8,94.1h-7v-7h7V94.1z
	 M57.8,101.3h-7v-7h7V101.3z M57.8,108.6h-7v-7h7V108.6z M50.5,65h-7v-7h7V65z M50.5,72.3h-7v-7h7V72.3z M50.5,79.6h-7v-7h7V79.6z
	 M50.5,101.3h-7v-7h7V101.3z M43.3,65h-7v-7h7V65z M43.3,72.3h-7v-7h7V72.3z M43.3,86.8h-7v-7h7V86.8z M43.3,94.1h-7v-7h7V94.1z
	 M43.3,101.3h-7v-7h7V101.3z M36,65h-7v-7h7V65z M36,72.3h-7v-7h7V72.3z M36,79.6h-7v-7h7V79.6z M36,101.3h-7v-7h7V101.3z M36,108.6
	h-7v-7h7V108.6z M28.8,57.8h-7v-7h7V57.8z M28.8,65h-7v-7h7V65z M28.8,72.3h-7v-7h7V72.3z M28.8,79.6h-7v-7h7V79.6z M28.8,86.8h-7
	v-7h7V86.8z M28.8,94.1h-7v-7h7V94.1z M28.8,101.3h-7v-7h7V101.3z M28.8,108.6h-7v-7h7V108.6z M21.5,57.8h-7v-7h7V57.8z M21.5,108.6
	h-7v-7h7V108.6z M14.2,57.8h-7v-7h7V57.8z M57.8,115.8h-7v-7h7V115.8z M50.5,115.8h-7v-7h7V115.8z M43.3,115.8h-7v-7h7V115.8z
	 M36,115.8h-7v-7h7V115.8z M28.8,115.8h-7v-7h7V115.8z M21.5,115.8h-7v-7h7V115.8z"/>
</svg>
