<?xml version="1.0" encoding="utf-8"?>
<!-- Generator: Adobe Illustrator 27.3.1, SVG Export Plug-In . SVG Version: 6.00 Build 0)  -->
<svg version="1.1" id="Слой_1" xmlns:ev="http://www.w3.org/2001/xml-events"
	 xmlns="http://www.w3.org/2000/svg" xmlns:xlink="http://www.w3.org/1999/xlink" x="0px" y="0px" viewBox="0 0 871 595"
	 style="enable-background:new 0 0 871 595;" xml:space="preserve">
<style type="text/css">
	.st0{fill:#1E0E01;}
</style>
<path class="st0" d="M58.1,72.6h7v7h-7V72.6z M65.3,72.6h7v7h-7V72.6z M72.6,72.6h7v7h-7V72.6z M79.9,72.6h7v7h-7V72.6z M87.1,72.6
	h7v7h-7V72.6z M94.4,72.6h7v7h-7V72.6z M101.6,72.6h7v7h-7V72.6z M108.9,72.6h7v7h-7V72.6z M50.8,79.9h7v7h-7V79.9z M58.1,79.9h7v7
	h-7V79.9z M65.3,79.9h7v7h-7V79.9z M72.6,79.9h7v7h-7V79.9z M79.9,79.9h7v7h-7V79.9z M87.1,79.9h7v7h-7V79.9z M94.4,79.9h7v7h-7
	V79.9z M101.6,79.9h7v7h-7V79.9z M108.9,79.9h7v7h-7V79.9z M435.6,79.9h7v7h-7V79.9z M442.9,79.9h7v7h-7V79.9z M450.1,79.9h7v7h-7
	V79.9z M493.7,79.9h7v7h-7V79.9z M617.1,79.9h7v7h-7V79.9z M653.4,79.9h7v7h-7V79.9z M43.6,87.1h7v7h-7V87.1z M116.2,87.1h7v7h-7
	V87.1z M123.4,87.1h7v7h-7C123.4,94.1,123.4,87.1,123.4,87.1z M130.7,87.1h7v7h-7V87.1z M435.6,87.1h7v7h-7V87.1z M457.4,87.1h7v7
	h-7V87.1z M493.7,87.1h7v7h-7V87.1z M617.1,87.1h7v7h-7V87.1z M653.4,87.1h7v7h-7V87.1z M776.8,87.1h7v7h-7V87.1z M805.9,87.1h7v7
	h-7V87.1z M43.6,94.4h7v7h-7V94.4z M72.6,94.4h7v7h-7V94.4z M79.9,94.4h7v7h-7V94.4z M87.1,94.4h7v7h-7V94.4z M94.4,94.4h7v7h-7
	V94.4z M101.6,94.4h7v7h-7V94.4z M108.9,94.4h7v7h-7V94.4z M116.2,94.4h7v7h-7V94.4z M123.4,94.4h7v7h-7
	C123.4,101.4,123.4,94.4,123.4,94.4z M130.7,94.4h7v7h-7V94.4z M137.9,94.4h7v7h-7V94.4z M435.6,94.4h7v7h-7V94.4z M457.4,94.4h7v7
	h-7V94.4z M464.6,94.4h7v7h-7V94.4z M493.7,94.4h7v7h-7V94.4z M617.1,94.4h7v7h-7V94.4z M653.4,94.4h7v7h-7V94.4z M776.8,94.4h7v7
	h-7V94.4z M805.9,94.4h7v7h-7V94.4z M43.6,101.6h7v7h-7V101.6z M65.3,101.6h7v7h-7V101.6z M72.6,101.6h7v7h-7V101.6z M79.9,101.6h7
	v7h-7V101.6z M101.6,101.6h7v7h-7V101.6z M108.9,101.6h7v7h-7V101.6z M116.2,101.6h7v7h-7V101.6z M123.4,101.6h7v7h-7
	C123.4,108.6,123.4,101.6,123.4,101.6z M130.7,101.6h7v7h-7V101.6z M137.9,101.6h7v7h-7V101.6z M435.6,101.6h7v7h-7V101.6z
	 M457.4,101.6h7v7h-7V101.6z M464.6,101.6h7v7h-7V101.6z M471.9,101.6h7v7h-7V101.6z M493.7,101.6h7v7h-7V101.6z M617.1,101.6h7v7
	h-7V101.6z M653.4,101.6h7v7h-7V101.6z M776.8,101.6h7v7h-7V101.6z M805.9,101.6h7v7h-7V101.6z M842.2,101.6h7v7h-7V101.6z
	 M43.6,108.9h7v7h-7V108.9z M65.3,108.9h7v7h-7V108.9z M72.6,108.9h7v7h-7V108.9z M72.6,116.2h7v7h-7V116.2z M130.7,108.9h7v7h-7
	V108.9z M435.6,108.9h7v7h-7V108.9z M457.4,108.9h7v7h-7V108.9z M464.6,108.9h7v7h-7V108.9z M471.9,108.9h7v7h-7V108.9z
	 M493.7,108.9h7v7h-7V108.9z M566.3,108.9h7v7h-7V108.9z M573.5,108.9h7v7h-7V108.9z M617.1,108.9h7v7h-7V108.9z M653.4,108.9h7v7
	h-7V108.9z M776.8,108.9h7v7h-7V108.9z M805.9,108.9h7v7h-7V108.9z M827.6,108.9h7v7h-7V108.9z M834.9,108.9h7v7h-7V108.9z
	 M849.4,108.9h7v7h-7V108.9z M43.6,116.2h7v7h-7V116.2z M435.6,116.2h7v7h-7V116.2z M450.1,116.2h7v7h-7V116.2z M457.4,116.2h7v7h-7
	V116.2z M464.6,116.2h7v7h-7V116.2z M471.9,116.2h7v7h-7V116.2z M493.7,116.2h7v7h-7V116.2z M566.3,116.2h7v7h-7V116.2z
	 M573.5,116.2h7v7h-7V116.2z M580.8,116.2h7v7h-7V116.2z M617.1,116.2h7v7h-7V116.2z M653.4,116.2h7v7h-7V116.2z M682.4,116.2h7v7
	h-7V116.2z M733.3,116.2h7v7h-7V116.2z M776.8,116.2h7v7h-7V116.2z M805.9,116.2h7v7h-7V116.2z M827.6,116.2h7v7h-7V116.2z
	 M834.9,116.2h7v7h-7V116.2z M842.2,116.2h7v7h-7V116.2z M43.6,123.4h7v7h-7V123.4z M72.6,123.4h7v7h-7V123.4z M79.9,123.4h7v7h-7
	V123.4z M145.2,123.4h7v7h-7V123.4z M152.5,123.4h7v7h-7V123.4z M159.7,123.4h7v7h-7V123.4z M428.3,123.4h7v7h-7V123.4z
	 M450.1,123.4h7v7h-7V123.4z M457.4,123.4h7v7h-7V123.4z M464.6,123.4h7v7h-7V123.4z M493.7,123.4h7v7h-7V123.4z M551.8,123.4h7v7
	h-7V123.4z M559,123.4h7v7h-7V123.4z M566.3,123.4h7v7h-7V123.4z M573.5,123.4h7v7h-7V123.4z M580.8,123.4h7v7h-7V123.4z
	 M617.1,123.4h7v7h-7V123.4z M653.4,123.4h7v7h-7V123.4z M682.4,123.4h7v7h-7V123.4z M740.5,123.4h7v7h-7V123.4z M776.8,123.4h7v7
	h-7V123.4z M805.9,123.4h7v7h-7V123.4z M820.4,123.4h7v7h-7V123.4z M827.6,123.4h7v7h-7V123.4z M834.9,123.4h7v7h-7V123.4z
	 M842.2,123.4h7v7h-7V123.4z M50.8,130.7h7v7h-7V130.7z M72.6,130.7h7v7h-7V130.7z M79.9,130.7h7v7h-7V130.7z M87.1,130.7h7v7h-7
	V130.7z M145.2,130.7h7v7h-7V130.7z M159.7,130.7h7v7h-7V130.7z M167,130.7h7v7h-7V130.7z M312.2,130.7h7v7h-7V130.7z M384.8,130.7
	h7v7h-7V130.7z M392,130.7h7v7h-7V130.7z M399.3,130.7h7v7h-7V130.7z M428.3,130.7h7v7h-7V130.7z M457.4,130.7h7v7h-7V130.7z
	 M464.6,130.7h7v7h-7V130.7z M530,130.7h7v7h-7V130.7z M551.8,130.7h7v7h-7V130.7z M559,130.7h7v7h-7V130.7z M566.3,130.7h7v7h-7
	V130.7z M573.5,130.7h7v7h-7V130.7z M580.8,130.7h7v7h-7V130.7z M617.1,130.7h7v7h-7V130.7z M653.4,130.7h7v7h-7V130.7z
	 M682.4,130.7h7v7h-7V130.7z M726,130.7h7v7h-7V130.7z M733.3,130.7h7v7h-7V130.7z M740.5,130.7h7v7h-7V130.7z M776.8,130.7h7v7h-7
	V130.7z M820.4,130.7h7v7h-7V130.7z M827.6,130.7h7v7h-7V130.7z M834.9,130.7h7v7h-7V130.7z M842.2,130.7h7v7h-7V130.7z M58.1,137.9
	h7v7h-7V137.9z M79.9,137.9h7v7h-7V137.9z M87.1,137.9h7v7h-7V137.9z M94.4,137.9h7v7h-7V137.9z M145.2,137.9h7v7h-7V137.9z
	 M159.7,137.9h7v7h-7V137.9z M167,137.9h7v7h-7V137.9z M312.2,137.9h7v7h-7V137.9z M319.4,137.9h7v7h-7V137.9z M377.5,137.9h7v7h-7
	V137.9z M399.3,137.9h7v7h-7V137.9z M406.6,137.9h7v7h-7V137.9z M413.8,137.9h7v7h-7V137.9z M421.1,137.9h7v7h-7V137.9z
	 M457.4,137.9h7v7h-7V137.9z M464.6,137.9h7v7h-7V137.9z M515.5,137.9h7v7h-7V137.9z M522.7,137.9h7v7h-7V137.9z M530,137.9h7v7h-7
	V137.9z M537.2,137.9h7v7h-7V137.9z M551.8,137.9h7v7h-7V137.9z M559,137.9h7v7h-7V137.9z M566.3,137.9h7v7h-7V137.9z M573.5,137.9
	h7v7h-7V137.9z M653.4,137.9h7v7h-7V137.9z M682.4,137.9h7v7h-7V137.9z M718.7,137.9h7v7h-7V137.9z M726,137.9h7v7h-7V137.9z
	 M733.3,137.9h7v7h-7V137.9z M776.8,137.9h7v7h-7V137.9z M805.9,137.9h7v7h-7V137.9z M820.4,137.9h7v7h-7V137.9z M827.6,137.9h7v7
	h-7V137.9z M834.9,137.9h7v7h-7V137.9z M842.2,137.9h7v7h-7V137.9z M58.1,145.2h7v7h-7V145.2z M87.1,145.2h7v7h-7V145.2z
	 M94.4,145.2h7v7h-7V145.2z M101.6,145.2h7v7h-7V145.2z M108.9,145.2h7v7h-7V145.2z M116.2,145.2h7v7h-7V145.2z M123.4,145.2h7v7h-7
	C123.4,152.2,123.4,145.2,123.4,145.2z M130.7,145.2h7v7h-7V145.2z M137.9,145.2h7v7h-7V145.2z M159.7,145.2h7v7h-7V145.2z
	 M167,145.2h7v7h-7V145.2z M304.9,145.2h7v7h-7V145.2z M312.2,145.2h7v7h-7V145.2z M319.4,145.2h7v7h-7V145.2z M370.3,145.2h7v7h-7
	V145.2z M377.5,145.2h7v7h-7V145.2z M399.3,145.2h7v7h-7V145.2z M406.6,145.2h7v7h-7V145.2z M413.8,145.2h7v7h-7V145.2z
	 M421.1,145.2h7v7h-7V145.2z M457.4,145.2h7v7h-7V145.2z M464.6,145.2h7v7h-7V145.2z M471.9,145.2h7v7h-7V145.2z M508.2,145.2h7v7
	h-7V145.2z M515.5,145.2h7v7h-7V145.2z M522.7,145.2h7v7h-7V145.2z M530,145.2h7v7h-7V145.2z M537.2,145.2h7v7h-7V145.2z
	 M551.8,145.2h7v7h-7V145.2z M559,145.2h7v7h-7V145.2z M566.3,145.2h7v7h-7V145.2z M573.5,145.2h7v7h-7V145.2z M653.4,145.2h7v7h-7
	V145.2z M718.7,145.2h7v7h-7V145.2z M726,145.2h7v7h-7V145.2z M733.3,145.2h7v7h-7V145.2z M820.4,145.2h7v7h-7V145.2z M827.6,145.2
	h7v7h-7V145.2z M834.9,145.2h7v7h-7V145.2z M842.2,145.2h7v7h-7V145.2z M65.3,152.5h7v7h-7V152.5z M94.4,152.5h7v7h-7V152.5z
	 M101.6,152.5h7v7h-7V152.5z M108.9,152.5h7v7h-7V152.5z M116.2,152.5h7v7h-7V152.5z M123.4,152.5h7v7h-7
	C123.4,159.5,123.4,152.5,123.4,152.5z M130.7,152.5h7v7h-7V152.5z M159.7,152.5h7v7h-7V152.5z M167,152.5h7v7h-7V152.5z
	 M297.7,152.5h7v7h-7V152.5z M304.9,152.5h7v7h-7V152.5z M312.2,152.5h7v7h-7V152.5z M319.4,152.5h7v7h-7V152.5z M355.7,152.5h7v7
	h-7V152.5z M363,152.5h7v7h-7V152.5z M370.3,152.5h7v7h-7V152.5z M399.3,152.5h7v7h-7V152.5z M406.6,152.5h7v7h-7V152.5z
	 M413.8,152.5h7v7h-7V152.5z M421.1,152.5h7v7h-7V152.5z M457.4,152.5h7v7h-7V152.5z M464.6,152.5h7v7h-7V152.5z M471.9,152.5h7v7
	h-7V152.5z M508.2,152.5h7v7h-7V152.5z M515.5,152.5h7v7h-7V152.5z M522.7,152.5h7v7h-7V152.5z M530,152.5h7v7h-7V152.5z
	 M537.2,152.5h7v7h-7V152.5z M551.8,152.5h7v7h-7V152.5z M566.3,152.5h7v7h-7V152.5z M573.5,152.5h7v7h-7V152.5z M580.8,152.5h7v7
	h-7V152.5z M588.1,152.5h7v7h-7V152.5z M595.3,152.5h7v7h-7V152.5z M718.7,152.5h7v7h-7V152.5z M726,152.5h7v7h-7V152.5z
	 M733.3,152.5h7v7h-7V152.5z M820.4,152.5h7v7h-7V152.5z M827.6,152.5h7v7h-7V152.5z M834.9,152.5h7v7h-7V152.5z M842.2,152.5h7v7
	h-7V152.5z M65.3,159.7h7v7h-7V159.7z M72.6,159.7h7v7h-7V159.7z M101.6,159.7h7v7h-7V159.7z M159.7,159.7h7v7h-7V159.7z M167,159.7
	h7v7h-7V159.7z M188.8,159.7h7v7h-7V159.7z M196,159.7h7v7h-7V159.7z M203.3,159.7h7v7h-7V159.7z M210.5,159.7h7v7h-7V159.7z
	 M217.8,159.7h7v7h-7V159.7z M225.1,159.7h7v7h-7V159.7z M297.7,159.7h7v7h-7V159.7z M304.9,159.7h7v7h-7V159.7z M312.2,159.7h7v7
	h-7V159.7z M319.4,159.7h7v7h-7V159.7z M348.5,159.7h7v7h-7V159.7z M355.7,159.7h7v7h-7V159.7z M399.3,159.7h7v7h-7V159.7z
	 M406.6,159.7h7v7h-7V159.7z M413.8,159.7h7v7h-7V159.7z M421.1,159.7h7v7h-7V159.7z M457.4,159.7h7v7h-7V159.7z M464.6,159.7h7v7
	h-7V159.7z M471.9,159.7h7v7h-7V159.7z M500.9,159.7h7v7h-7V159.7z M530,159.7h7v7h-7V159.7z M537.2,159.7h7v7h-7V159.7z
	 M544.5,159.7h7v7h-7V159.7z M595.3,159.7h7v7h-7V159.7z M602.6,159.7h7v7h-7V159.7z M718.7,159.7h7v7h-7V159.7z M726,159.7h7v7h-7
	V159.7z M733.3,159.7h7v7h-7V159.7z M762.3,159.7h7v7h-7V159.7z M769.6,159.7h7v7h-7V159.7z M776.8,159.7h7v7h-7V159.7z
	 M784.1,159.7h7v7h-7V159.7z M820.4,159.7h7v7h-7V159.7z M827.6,159.7h7v7h-7V159.7z M834.9,159.7h7v7h-7V159.7z M842.2,159.7h7v7
	h-7V159.7z M65.3,167h7v7h-7V167z M72.6,167h7v7h-7V167z M101.6,167h7v7h-7V167z M167,167h7v7h-7V167z M174.2,167h7v7h-7V167z
	 M181.5,167h7v7h-7V167z M232.3,167h7v7h-7V167z M268.6,167h7v7h-7V167z M275.9,167h7v7h-7V167z M283.1,167h7v7h-7V167z M290.4,167
	h7v7h-7V167z M312.2,167h7v7h-7V167z M319.4,167h7v7h-7V167z M326.7,167h7v7h-7V167z M334,167h7v7h-7V167z M341.2,167h7v7h-7V167z
	 M392,167h7v7h-7V167z M399.3,167h7v7h-7V167z M406.6,167h7v7h-7V167z M413.8,167h7v7h-7V167z M421.1,167h7v7h-7V167z M457.4,167h7
	v7h-7V167z M464.6,167h7v7h-7V167z M471.9,167h7v7h-7V167z M486.4,167h7v7h-7V167z M493.7,167h7v7h-7V167z M588.1,167h7v7h-7V167z
	 M595.3,167h7v7h-7V167z M602.6,167h7v7h-7V167z M609.8,167h7v7h-7V167z M617.1,167h7v7h-7V167z M624.4,167h7v7h-7V167z M718.7,167
	h7v7h-7V167z M726,167h7v7h-7V167z M733.3,167h7v7h-7V167z M755,167h7v7h-7V167z M762.3,167h7v7h-7V167z M769.6,167h7v7h-7V167z
	 M776.8,167h7v7h-7V167z M784.1,167h7v7h-7V167z M820.4,167h7v7h-7V167z M827.6,167h7v7h-7V167z M842.2,167h7v7h-7V167z M65.3,174.2
	h7v7h-7V174.2z M72.6,174.2h7v7h-7V174.2z M101.6,174.2h7v7h-7V174.2z M108.9,174.2h7v7h-7V174.2z M116.2,174.2h7v7h-7V174.2z
	 M123.4,174.2h7v7h-7C123.4,181.2,123.4,174.2,123.4,174.2z M159.7,174.2h7v7h-7V174.2z M167,174.2h7v7h-7V174.2z M196,174.2h7v7h-7
	V174.2z M203.3,174.2h7v7h-7V174.2z M232.3,174.2h7v7h-7V174.2z M239.6,174.2h7v7h-7V174.2z M246.8,174.2h7v7h-7V174.2z
	 M254.1,174.2h7v7h-7V174.2z M261.4,174.2h7v7h-7V174.2z M319.4,174.2h7v7h-7V174.2z M326.7,174.2h7v7h-7V174.2z M370.3,174.2h7v7
	h-7V174.2z M377.5,174.2h7v7h-7V174.2z M384.8,174.2h7v7h-7V174.2z M392,174.2h7v7h-7V174.2z M399.3,174.2h7v7h-7V174.2z
	 M406.6,174.2h7v7h-7V174.2z M413.8,174.2h7v7h-7V174.2z M421.1,174.2h7v7h-7V174.2z M442.9,174.2h7v7h-7V174.2z M457.4,174.2h7v7
	h-7V174.2z M464.6,174.2h7v7h-7V174.2z M471.9,174.2h7v7h-7V174.2z M486.4,174.2h7v7h-7V174.2z M493.7,174.2h7v7h-7V174.2z
	 M530,174.2h7v7h-7V174.2z M573.5,174.2h7v7h-7V174.2z M580.8,174.2h7v7h-7V174.2z M588.1,174.2h7v7h-7V174.2z M595.3,174.2h7v7h-7
	V174.2z M602.6,174.2h7v7h-7V174.2z M609.8,174.2h7v7h-7V174.2z M617.1,174.2h7v7h-7V174.2z M624.4,174.2h7v7h-7V174.2z
	 M631.6,174.2h7v7h-7V174.2z M718.7,174.2h7v7h-7V174.2z M726,174.2h7v7h-7V174.2z M733.3,174.2h7v7h-7V174.2z M747.8,174.2h7v7h-7
	V174.2z M755,174.2h7v7h-7V174.2z M784.1,174.2h7v7h-7V174.2z M791.3,174.2h7v7h-7V174.2z M820.4,174.2h7v7h-7V174.2z M827.6,174.2
	h7v7h-7V174.2z M849.4,174.2h7v7h-7V174.2z M65.3,181.5h7v7h-7V181.5z M72.6,181.5h7v7h-7V181.5z M101.6,181.5h7v7h-7V181.5z
	 M108.9,181.5h7v7h-7V181.5z M116.2,181.5h7v7h-7V181.5z M123.4,181.5h7v7h-7C123.4,188.5,123.4,181.5,123.4,181.5z M145.2,181.5h7
	v7h-7V181.5z M159.7,181.5h7v7h-7V181.5z M196,181.5h7v7h-7V181.5z M203.3,181.5h7v7h-7V181.5z M210.5,181.5h7v7h-7V181.5z
	 M239.6,181.5h7v7h-7V181.5z M246.8,181.5h7v7h-7V181.5z M254.1,181.5h7v7h-7V181.5z M275.9,181.5h7v7h-7V181.5z M283.1,181.5h7v7
	h-7V181.5z M290.4,181.5h7v7h-7V181.5z M319.4,181.5h7v7h-7V181.5z M326.7,181.5h7v7h-7V181.5z M363,181.5h7v7h-7V181.5z
	 M370.3,181.5h7v7h-7V181.5z M377.5,181.5h7v7h-7V181.5z M384.8,181.5h7v7h-7V181.5z M392,181.5h7v7h-7V181.5z M399.3,181.5h7v7h-7
	V181.5z M406.6,181.5h7v7h-7V181.5z M413.8,181.5h7v7h-7V181.5z M421.1,181.5h7v7h-7V181.5z M435.6,181.5h7v7h-7V181.5z
	 M442.9,181.5h7v7h-7V181.5z M457.4,181.5h7v7h-7V181.5z M464.6,181.5h7v7h-7V181.5z M471.9,181.5h7v7h-7V181.5z M486.4,181.5h7v7
	h-7V181.5z M493.7,181.5h7v7h-7V181.5z M522.7,181.5h7v7h-7V181.5z M530,181.5h7v7h-7V181.5z M537.2,181.5h7v7h-7V181.5z
	 M566.3,181.5h7v7h-7V181.5z M573.5,181.5h7v7h-7V181.5z M580.8,181.5h7v7h-7V181.5z M595.3,181.5h7v7h-7V181.5z M602.6,181.5h7v7
	h-7V181.5z M631.6,181.5h7v7h-7V181.5z M638.9,181.5h7v7h-7V181.5z M682.4,181.5h7v7h-7V181.5z M689.7,181.5h7v7h-7V181.5z
	 M697,181.5h7v7h-7V181.5z M704.2,181.5h7v7h-7V181.5z M711.5,181.5h7v7h-7V181.5z M726,181.5h7v7h-7V181.5z M733.3,181.5h7v7h-7
	V181.5z M740.5,181.5h7v7h-7V181.5z M747.8,181.5h7v7h-7V181.5z M776.8,181.5h7v7h-7V181.5z M784.1,181.5h7v7h-7V181.5z
	 M791.3,181.5h7v7h-7V181.5z M813.1,181.5h7v7h-7V181.5z M820.4,181.5h7v7h-7V181.5z M842.2,181.5h7v7h-7V181.5z M849.4,181.5h7v7
	h-7V181.5z M65.3,188.8h7v7h-7V188.8z M72.6,188.8h7v7h-7V188.8z M101.6,188.8h7v7h-7V188.8z M108.9,188.8h7v7h-7V188.8z
	 M116.2,188.8h7v7h-7V188.8z M137.9,188.8h7v7h-7V188.8z M145.2,188.8h7v7h-7V188.8z M152.5,188.8h7v7h-7V188.8z M159.7,188.8h7v7
	h-7V188.8z M188.8,188.8h7v7h-7V188.8z M196,188.8h7v7h-7V188.8z M203.3,188.8h7v7h-7V188.8z M239.6,188.8h7v7h-7V188.8z
	 M246.8,188.8h7v7h-7V188.8z M268.6,188.8h7v7h-7V188.8z M275.9,188.8h7v7h-7V188.8z M283.1,188.8h7v7h-7V188.8z M290.4,188.8h7v7
	h-7V188.8z M297.7,188.8h7v7h-7V188.8z M312.2,188.8h7v7h-7V188.8z M319.4,188.8h7v7h-7V188.8z M326.7,188.8h7v7h-7V188.8z
	 M363,188.8h7v7h-7V188.8z M370.3,188.8h7v7h-7V188.8z M377.5,188.8h7v7h-7V188.8z M384.8,188.8h7v7h-7V188.8z M392,188.8h7v7h-7
	V188.8z M421.1,188.8h7v7h-7V188.8z M435.6,188.8h7v7h-7V188.8z M457.4,188.8h7v7h-7V188.8z M464.6,188.8h7v7h-7V188.8z
	 M471.9,188.8h7v7h-7V188.8z M493.7,188.8h7v7h-7V188.8z M500.9,188.8h7v7h-7V188.8z M515.5,188.8h7v7h-7V188.8z M522.7,188.8h7v7
	h-7V188.8z M530,188.8h7v7h-7V188.8z M537.2,188.8h7v7h-7V188.8z M544.5,188.8h7v7h-7V188.8z M559,188.8h7v7h-7V188.8z M566.3,188.8
	h7v7h-7V188.8z M573.5,188.8h7v7h-7V188.8z M580.8,188.8h7v7h-7V188.8z M588.1,188.8h7v7h-7V188.8z M609.8,188.8h7v7h-7V188.8z
	 M631.6,188.8h7v7h-7V188.8z M638.9,188.8h7v7h-7V188.8z M646.1,188.8h7v7h-7V188.8z M667.9,188.8h7v7h-7V188.8z M675.2,188.8h7v7
	h-7V188.8z M682.4,188.8h7v7h-7V188.8z M733.3,188.8h7v7h-7V188.8z M762.3,188.8h7v7h-7V188.8z M769.6,188.8h7v7h-7V188.8z
	 M776.8,188.8h7v7h-7V188.8z M784.1,188.8h7v7h-7V188.8z M813.1,188.8h7v7h-7V188.8z M820.4,188.8h7v7h-7V188.8z M834.9,188.8h7v7
	h-7V188.8z M842.2,188.8h7v7h-7V188.8z M849.4,188.8h7v7h-7V188.8z M72.6,196h7v7h-7V196z M101.6,196h7v7h-7V196z M108.9,196h7v7h-7
	V196z M116.2,196h7v7h-7V196z M130.7,196h7v7h-7V196z M137.9,196h7v7h-7V196z M145.2,196h7v7h-7V196z M152.5,196h7v7h-7V196z
	 M159.7,196h7v7h-7V196z M181.5,196h7v7h-7V196z M188.8,196h7v7h-7V196z M196,196h7v7h-7V196z M203.3,196h7v7h-7V196z M232.3,196h7
	v7h-7V196z M239.6,196h7v7h-7V196z M268.6,196h7v7h-7V196z M275.9,196h7v7h-7V196z M283.1,196h7v7h-7V196z M290.4,196h7v7h-7V196z
	 M297.7,196h7v7h-7V196z M304.9,196h7v7h-7V196z M312.2,196h7v7h-7V196z M319.4,196h7v7h-7V196z M363,196h7v7h-7V196z M370.3,196h7
	v7h-7V196z M377.5,196h7v7h-7V196z M406.6,196h7v7h-7V196z M413.8,196h7v7h-7V196z M435.6,196h7v7h-7V196z M457.4,196h7v7h-7V196z
	 M464.6,196h7v7h-7V196z M471.9,196h7v7h-7V196z M493.7,196h7v7h-7V196z M515.5,196h7v7h-7V196z M522.7,196h7v7h-7V196z M530,196h7
	v7h-7V196z M544.5,196h7v7h-7V196z M559,196h7v7h-7V196z M566.3,196h7v7h-7V196z M573.5,196h7v7h-7V196z M580.8,196h7v7h-7V196z
	 M602.6,196h7v7h-7V196z M609.8,196h7v7h-7V196z M617.1,196h7v7h-7V196z M638.9,196h7v7h-7V196z M646.1,196h7v7h-7V196z M660.7,196
	h7v7h-7V196z M704.2,196h7v7h-7V196z M755,196h7v7h-7V196z M762.3,196h7v7h-7V196z M769.6,196h7v7h-7V196z M776.8,196h7v7h-7V196z
	 M813.1,196h7v7h-7V196z M820.4,196h7v7h-7V196z M834.9,196h7v7h-7V196z M842.2,196h7v7h-7V196z M72.6,203.3h7v7h-7V203.3z
	 M101.6,203.3h7v7h-7V203.3z M108.9,203.3h7v7h-7V203.3z M116.2,203.3h7v7h-7V203.3z M130.7,203.3h7v7h-7V203.3z M137.9,203.3h7v7
	h-7V203.3z M145.2,203.3h7v7h-7V203.3z M152.5,203.3h7v7h-7V203.3z M174.2,203.3h7v7h-7V203.3z M181.5,203.3h7v7h-7V203.3z
	 M188.8,203.3h7v7h-7V203.3z M196,203.3h7v7h-7V203.3z M203.3,203.3h7v7h-7V203.3z M225.1,203.3h7v7h-7V203.3z M232.3,203.3h7v7h-7
	V203.3z M261.4,203.3h7v7h-7V203.3z M268.6,203.3h7v7h-7V203.3z M275.9,203.3h7v7h-7V203.3z M297.7,203.3h7v7h-7V203.3z
	 M304.9,203.3h7v7h-7V203.3z M312.2,203.3h7v7h-7V203.3z M348.5,203.3h7v7h-7V203.3z M355.7,203.3h7v7h-7V203.3z M363,203.3h7v7h-7
	V203.3z M370.3,203.3h7v7h-7V203.3z M377.5,203.3h7v7h-7V203.3z M406.6,203.3h7v7h-7V203.3z M413.8,203.3h7v7h-7V203.3z
	 M435.6,203.3h7v7h-7V203.3z M457.4,203.3h7v7h-7V203.3z M464.6,203.3h7v7h-7V203.3z M471.9,203.3h7v7h-7V203.3z M493.7,203.3h7v7
	h-7V203.3z M508.2,203.3h7v7h-7V203.3z M515.5,203.3h7v7h-7V203.3z M522.7,203.3h7v7h-7V203.3z M530,203.3h7v7h-7V203.3z
	 M537.2,203.3h7v7h-7V203.3z M566.3,203.3h7v7h-7V203.3z M573.5,203.3h7v7h-7V203.3z M595.3,203.3h7v7h-7V203.3z M602.6,203.3h7v7
	h-7V203.3z M609.8,203.3h7v7h-7V203.3z M617.1,203.3h7v7h-7V203.3z M646.1,203.3h7v7h-7V203.3z M653.4,203.3h7v7h-7V203.3z
	 M689.7,203.3h7v7h-7V203.3z M697,203.3h7v7h-7V203.3z M704.2,203.3h7v7h-7V203.3z M711.5,203.3h7v7h-7V203.3z M747.8,203.3h7v7h-7
	V203.3z M755,203.3h7v7h-7V203.3z M762.3,203.3h7v7h-7V203.3z M769.6,203.3h7v7h-7V203.3z M776.8,203.3h7v7h-7V203.3z M813.1,203.3
	h7v7h-7V203.3z M820.4,203.3h7v7h-7V203.3z M834.9,203.3h7v7h-7V203.3z M842.2,203.3h7v7h-7V203.3z M72.6,210.5h7v7h-7V210.5z
	 M108.9,210.5h7v7h-7V210.5z M116.2,210.5h7v7h-7V210.5z M130.7,210.5h7v7h-7V210.5z M137.9,210.5h7v7h-7V210.5z M145.2,210.5h7v7
	h-7V210.5z M152.5,210.5h7v7h-7V210.5z M167,210.5h7v7h-7V210.5z M174.2,210.5h7v7h-7V210.5z M181.5,210.5h7v7h-7V210.5z
	 M188.8,210.5h7v7h-7V210.5z M217.8,210.5h7v7h-7V210.5z M225.1,210.5h7v7h-7V210.5z M254.1,210.5h7v7h-7V210.5z M261.4,210.5h7v7
	h-7V210.5z M268.6,210.5h7v7h-7V210.5z M290.4,210.5h7v7h-7V210.5z M341.2,210.5h7v7h-7V210.5z M348.5,210.5h7v7h-7V210.5z
	 M355.7,210.5h7v7h-7V210.5z M363,210.5h7v7h-7V210.5z M370.3,210.5h7v7h-7V210.5z M406.6,210.5h7v7h-7V210.5z M413.8,210.5h7v7h-7
	V210.5z M421.1,210.5h7v7h-7V210.5z M428.3,210.5h7v7h-7V210.5z M435.6,210.5h7v7h-7V210.5z M442.9,210.5h7v7h-7V210.5z
	 M450.1,210.5h7v7h-7V210.5z M457.4,210.5h7v7h-7V210.5z M464.6,210.5h7v7h-7V210.5z M471.9,210.5h7v7h-7V210.5z M493.7,210.5h7v7
	h-7V210.5z M508.2,210.5h7v7h-7V210.5z M515.5,210.5h7v7h-7V210.5z M522.7,210.5h7v7h-7V210.5z M530,210.5h7v7h-7V210.5z
	 M537.2,210.5h7v7h-7V210.5z M566.3,210.5h7v7h-7V210.5z M588.1,210.5h7v7h-7V210.5z M595.3,210.5h7v7h-7V210.5z M602.6,210.5h7v7
	h-7V210.5z M609.8,210.5h7v7h-7V210.5z M617.1,210.5h7v7h-7V210.5z M638.9,210.5h7v7h-7V210.5z M646.1,210.5h7v7h-7V210.5z
	 M653.4,210.5h7v7h-7V210.5z M682.4,210.5h7v7h-7V210.5z M689.7,210.5h7v7h-7V210.5z M697,210.5h7v7h-7V210.5z M704.2,210.5h7v7h-7
	V210.5z M711.5,210.5h7v7h-7V210.5z M740.5,210.5h7v7h-7V210.5z M747.8,210.5h7v7h-7V210.5z M755,210.5h7v7h-7V210.5z M762.3,210.5
	h7v7h-7V210.5z M805.9,210.5h7v7h-7V210.5z M813.1,210.5h7v7h-7V210.5z M834.9,210.5h7v7h-7V210.5z M842.2,210.5h7v7h-7V210.5z
	 M72.6,217.8h7v7h-7V217.8z M108.9,217.8h7v7h-7V217.8z M130.7,217.8h7v7h-7V217.8z M137.9,217.8h7v7h-7V217.8z M145.2,217.8h7v7h-7
	V217.8z M167,217.8h7v7h-7V217.8z M174.2,217.8h7v7h-7V217.8z M188.8,217.8h7v7h-7V217.8z M196,217.8h7v7h-7V217.8z M217.8,217.8h7
	v7h-7V217.8z M239.6,217.8h7v7h-7V217.8z M246.8,217.8h7v7h-7V217.8z M254.1,217.8h7v7h-7V217.8z M261.4,217.8h7v7h-7V217.8z
	 M290.4,217.8h7v7h-7V217.8z M334,217.8h7v7h-7V217.8z M341.2,217.8h7v7h-7V217.8z M348.5,217.8h7v7h-7V217.8z M355.7,217.8h7v7h-7
	V217.8z M363,217.8h7v7h-7V217.8z M399.3,217.8h7v7h-7V217.8z M413.8,217.8h7v7h-7V217.8z M421.1,217.8h7v7h-7V217.8z M428.3,217.8
	h7v7h-7V217.8z M435.6,217.8h7v7h-7V217.8z M442.9,217.8h7v7h-7V217.8z M450.1,217.8h7v7h-7V217.8z M457.4,217.8h7v7h-7V217.8z
	 M464.6,217.8h7v7h-7V217.8z M471.9,217.8h7v7h-7V217.8z M493.7,217.8h7v7h-7V217.8z M508.2,217.8h7v7h-7V217.8z M515.5,217.8h7v7
	h-7V217.8z M522.7,217.8h7v7h-7V217.8z M537.2,217.8h7v7h-7V217.8z M559,217.8h7v7h-7V217.8z M566.3,217.8h7v7h-7V217.8z
	 M580.8,217.8h7v7h-7V217.8z M588.1,217.8h7v7h-7V217.8z M595.3,217.8h7v7h-7V217.8z M602.6,217.8h7v7h-7V217.8z M609.8,217.8h7v7
	h-7V217.8z M631.6,217.8h7v7h-7V217.8z M638.9,217.8h7v7h-7V217.8z M646.1,217.8h7v7h-7V217.8z M675.2,217.8h7v7h-7V217.8z
	 M682.4,217.8h7v7h-7V217.8z M689.7,217.8h7v7h-7V217.8z M697,217.8h7v7h-7V217.8z M704.2,217.8h7v7h-7V217.8z M711.5,217.8h7v7h-7
	V217.8z M733.3,217.8h7v7h-7V217.8z M740.5,217.8h7v7h-7V217.8z M747.8,217.8h7v7h-7V217.8z M755,217.8h7v7h-7V217.8z M805.9,217.8
	h7v7h-7V217.8z M813.1,217.8h7v7h-7V217.8z M834.9,217.8h7v7h-7V217.8z M842.2,217.8h7v7h-7V217.8z M72.6,225.1h7v7h-7V225.1z
	 M108.9,225.1h7v7h-7V225.1z M130.7,225.1h7v7h-7V225.1z M137.9,225.1h7v7h-7V225.1z M167,225.1h7v7h-7V225.1z M174.2,225.1h7v7h-7
	V225.1z M181.5,225.1h7v7h-7V225.1z M210.5,225.1h7v7h-7V225.1z M217.8,225.1h7v7h-7V225.1z M239.6,225.1h7v7h-7V225.1z
	 M246.8,225.1h7v7h-7V225.1z M254.1,225.1h7v7h-7V225.1z M290.4,225.1h7v7h-7V225.1z M334,225.1h7v7h-7V225.1z M341.2,225.1h7v7h-7
	V225.1z M348.5,225.1h7v7h-7V225.1z M355.7,225.1h7v7h-7V225.1z M392,225.1h7v7h-7V225.1z M399.3,225.1h7v7h-7V225.1z M435.6,225.1
	h7v7h-7V225.1z M471.9,225.1h7v7h-7V225.1z M479.2,225.1h7v7h-7V225.1z M486.4,225.1h7v7h-7V225.1z M508.2,225.1h7v7h-7V225.1z
	 M515.5,225.1h7v7h-7V225.1z M522.7,225.1h7v7h-7V225.1z M537.2,225.1h7v7h-7V225.1z M551.8,225.1h7v7h-7V225.1z M559,225.1h7v7h-7
	V225.1z M580.8,225.1h7v7h-7V225.1z M588.1,225.1h7v7h-7V225.1z M595.3,225.1h7v7h-7V225.1z M609.8,225.1h7v7h-7V225.1z
	 M631.6,225.1h7v7h-7V225.1z M638.9,225.1h7v7h-7V225.1z M667.9,225.1h7v7h-7V225.1z M675.2,225.1h7v7h-7V225.1z M682.4,225.1h7v7
	h-7V225.1z M704.2,225.1h7v7h-7V225.1z M733.3,225.1h7v7h-7V225.1z M740.5,225.1h7v7h-7V225.1z M747.8,225.1h7v7h-7V225.1z
	 M805.9,225.1h7v7h-7V225.1z M813.1,225.1h7v7h-7V225.1z M834.9,225.1h7v7h-7V225.1z M842.2,225.1h7v7h-7V225.1z M72.6,232.3h7v7h-7
	V232.3z M108.9,232.3h7v7h-7V232.3z M130.7,232.3h7v7h-7V232.3z M159.7,232.3h7v7h-7V232.3z M167,232.3h7v7h-7V232.3z M174.2,232.3
	h7v7h-7V232.3z M181.5,232.3h7v7h-7V232.3z M210.5,232.3h7v7h-7V232.3z M217.8,232.3h7v7h-7V232.3z M239.6,232.3h7v7h-7V232.3z
	 M246.8,232.3h7v7h-7V232.3z M254.1,232.3h7v7h-7V232.3z M290.4,232.3h7v7h-7V232.3z M326.7,232.3h7v7h-7V232.3z M334,232.3h7v7h-7
	V232.3z M341.2,232.3h7v7h-7V232.3z M348.5,232.3h7v7h-7V232.3z M384.8,232.3h7v7h-7V232.3z M479.2,232.3h7v7h-7V232.3z
	 M486.4,232.3h7v7h-7V232.3z M508.2,232.3h7v7h-7V232.3z M515.5,232.3h7v7h-7V232.3z M522.7,232.3h7v7h-7V232.3z M530,232.3h7v7h-7
	V232.3z M551.8,232.3h7v7h-7V232.3z M580.8,232.3h7v7h-7V232.3z M588.1,232.3h7v7h-7V232.3z M609.8,232.3h7v7h-7V232.3z
	 M631.6,232.3h7v7h-7V232.3z M638.9,232.3h7v7h-7V232.3z M660.7,232.3h7v7h-7V232.3z M667.9,232.3h7v7h-7V232.3z M675.2,232.3h7v7
	h-7V232.3z M704.2,232.3h7v7h-7V232.3z M740.5,232.3h7v7h-7V232.3z M747.8,232.3h7v7h-7V232.3z M805.9,232.3h7v7h-7V232.3z
	 M813.1,232.3h7v7h-7V232.3z M834.9,232.3h7v7h-7V232.3z M842.2,232.3h7v7h-7V232.3z M72.6,239.6h7v7h-7V239.6z M108.9,239.6h7v7h-7
	V239.6z M130.7,239.6h7v7h-7V239.6z M159.7,239.6h7v7h-7V239.6z M167,239.6h7v7h-7V239.6z M174.2,239.6h7v7h-7V239.6z M210.5,239.6
	h7v7h-7V239.6z M217.8,239.6h7v7h-7V239.6z M225.1,239.6h7v7h-7V239.6z M232.3,239.6h7v7h-7V239.6z M239.6,239.6h7v7h-7V239.6z
	 M246.8,239.6h7v7h-7V239.6z M254.1,239.6h7v7h-7V239.6z M261.4,239.6h7v7h-7V239.6z M290.4,239.6h7v7h-7V239.6z M326.7,239.6h7v7
	h-7V239.6z M334,239.6h7v7h-7V239.6z M341.2,239.6h7v7h-7V239.6z M384.8,239.6h7v7h-7V239.6z M428.3,239.6h7v7h-7V239.6z
	 M435.6,239.6h7v7h-7V239.6z M442.9,239.6h7v7h-7V239.6z M450.1,239.6h7v7h-7V239.6z M457.4,239.6h7v7h-7V239.6z M464.6,239.6h7v7
	h-7V239.6z M471.9,239.6h7v7h-7V239.6z M479.2,239.6h7v7h-7V239.6z M486.4,239.6h7v7h-7V239.6z M493.7,239.6h7v7h-7V239.6z
	 M508.2,239.6h7v7h-7V239.6z M515.5,239.6h7v7h-7V239.6z M522.7,239.6h7v7h-7V239.6z M530,239.6h7v7h-7V239.6z M551.8,239.6h7v7h-7
	V239.6z M580.8,239.6h7v7h-7V239.6z M588.1,239.6h7v7h-7V239.6z M602.6,239.6h7v7h-7V239.6z M631.6,239.6h7v7h-7V239.6z
	 M638.9,239.6h7v7h-7V239.6z M653.4,239.6h7v7h-7V239.6z M660.7,239.6h7v7h-7V239.6z M667.9,239.6h7v7h-7V239.6z M704.2,239.6h7v7
	h-7V239.6z M747.8,239.6h7v7h-7V239.6z M798.6,239.6h7v7h-7V239.6z M805.9,239.6h7v7h-7V239.6z M834.9,239.6h7v7h-7V239.6z
	 M842.2,239.6h7v7h-7V239.6z M50.8,246.8h7v7h-7V246.8z M58.1,246.8h7v7h-7V246.8z M65.3,246.8h7v7h-7V246.8z M108.9,246.8h7v7h-7
	V246.8z M130.7,246.8h7v7h-7V246.8z M159.7,246.8h7v7h-7V246.8z M167,246.8h7v7h-7V246.8z M196,246.8h7v7h-7V246.8z M203.3,246.8h7
	v7h-7V246.8z M210.5,246.8h7v7h-7V246.8z M254.1,246.8h7v7h-7V246.8z M261.4,246.8h7v7h-7V246.8z M268.6,246.8h7v7h-7V246.8z
	 M275.9,246.8h7v7h-7V246.8z M290.4,246.8h7v7h-7V246.8z M334,246.8h7v7h-7V246.8z M341.2,246.8h7v7h-7V246.8z M348.5,246.8h7v7h-7
	V246.8z M384.8,246.8h7v7h-7V246.8z M392,246.8h7v7h-7V246.8z M399.3,246.8h7v7h-7V246.8z M406.6,246.8h7v7h-7V246.8z M413.8,246.8
	h7v7h-7V246.8z M421.1,246.8h7v7h-7V246.8z M428.3,246.8h7v7h-7V246.8z M457.4,246.8h7v7h-7V246.8z M464.6,246.8h7v7h-7V246.8z
	 M471.9,246.8h7v7h-7V246.8z M479.2,246.8h7v7h-7V246.8z M486.4,246.8h7v7h-7V246.8z M515.5,246.8h7v7h-7V246.8z M522.7,246.8h7v7
	h-7V246.8z M530,246.8h7v7h-7V246.8z M551.8,246.8h7v7h-7V246.8z M580.8,246.8h7v7h-7V246.8z M588.1,246.8h7v7h-7V246.8z
	 M595.3,246.8h7v7h-7V246.8z M602.6,246.8h7v7h-7V246.8z M624.4,246.8h7v7h-7V246.8z M631.6,246.8h7v7h-7V246.8z M653.4,246.8h7v7
	h-7V246.8z M660.7,246.8h7v7h-7V246.8z M667.9,246.8h7v7h-7V246.8z M704.2,246.8h7v7h-7V246.8z M747.8,246.8h7v7h-7V246.8z
	 M755,246.8h7v7h-7V246.8z M798.6,246.8h7v7h-7V246.8z M834.9,246.8h7v7h-7V246.8z M842.2,246.8h7v7h-7V246.8z M21.8,254.1h7v7h-7
	V254.1z M29,254.1h7v7h-7V254.1z M36.3,254.1h7v7h-7V254.1z M43.6,254.1h7v7h-7V254.1z M101.6,254.1h7v7h-7V254.1z M108.9,254.1h7v7
	h-7V254.1z M123.4,254.1h7v7h-7C123.4,261.1,123.4,254.1,123.4,254.1z M130.7,254.1h7v7h-7V254.1z M137.9,254.1h7v7h-7V254.1z
	 M159.7,254.1h7v7h-7V254.1z M167,254.1h7v7h-7V254.1z M174.2,254.1h7v7h-7V254.1z M188.8,254.1h7v7h-7V254.1z M196,254.1h7v7h-7
	V254.1z M203.3,254.1h7v7h-7V254.1z M275.9,254.1h7v7h-7V254.1z M283.1,254.1h7v7h-7V254.1z M290.4,254.1h7v7h-7V254.1z
	 M341.2,254.1h7v7h-7V254.1z M348.5,254.1h7v7h-7V254.1z M355.7,254.1h7v7h-7V254.1z M392,254.1h7v7h-7V254.1z M399.3,254.1h7v7h-7
	V254.1z M406.6,254.1h7v7h-7V254.1z M413.8,254.1h7v7h-7V254.1z M421.1,254.1h7v7h-7V254.1z M428.3,254.1h7v7h-7V254.1z
	 M457.4,254.1h7v7h-7V254.1z M464.6,254.1h7v7h-7V254.1z M471.9,254.1h7v7h-7V254.1z M479.2,254.1h7v7h-7V254.1z M486.4,254.1h7v7
	h-7V254.1z M515.5,254.1h7v7h-7V254.1z M522.7,254.1h7v7h-7V254.1z M530,254.1h7v7h-7V254.1z M551.8,254.1h7v7h-7V254.1z
	 M588.1,254.1h7v7h-7V254.1z M595.3,254.1h7v7h-7V254.1z M624.4,254.1h7v7h-7V254.1z M631.6,254.1h7v7h-7V254.1z M653.4,254.1h7v7
	h-7V254.1z M660.7,254.1h7v7h-7V254.1z M667.9,254.1h7v7h-7V254.1z M711.5,254.1h7v7h-7V254.1z M718.7,254.1h7v7h-7V254.1z
	 M755,254.1h7v7h-7V254.1z M762.3,254.1h7v7h-7V254.1z M798.6,254.1h7v7h-7V254.1z M827.6,254.1h7v7h-7V254.1z M834.9,254.1h7v7h-7
	V254.1z M842.2,254.1h7v7h-7V254.1z M14.5,261.4h7v7h-7V261.4z M14.5,268.6h7v7h-7V268.6z M21.8,261.4h7v7h-7V261.4z M101.6,261.4h7
	v7h-7V261.4z M123.4,261.4h7v7h-7C123.4,268.4,123.4,261.4,123.4,261.4z M130.7,261.4h7v7h-7V261.4z M137.9,261.4h7v7h-7V261.4z
	 M145.2,261.4h7v7h-7V261.4z M152.5,261.4h7v7h-7V261.4z M159.7,261.4h7v7h-7V261.4z M181.5,261.4h7v7h-7V261.4z M188.8,261.4h7v7
	h-7V261.4z M196,261.4h7v7h-7V261.4z M203.3,261.4h7v7h-7V261.4z M210.5,261.4h7v7h-7V261.4z M275.9,261.4h7v7h-7V261.4z
	 M283.1,261.4h7v7h-7V261.4z M290.4,261.4h7v7h-7V261.4z M348.5,261.4h7v7h-7V261.4z M355.7,261.4h7v7h-7V261.4z M363,261.4h7v7h-7
	V261.4z M392,261.4h7v7h-7V261.4z M399.3,261.4h7v7h-7V261.4z M421.1,261.4h7v7h-7V261.4z M428.3,261.4h7v7h-7V261.4z M435.6,261.4
	h7v7h-7V261.4z M457.4,261.4h7v7h-7V261.4z M464.6,261.4h7v7h-7V261.4z M471.9,261.4h7v7h-7V261.4z M486.4,261.4h7v7h-7V261.4z
	 M508.2,261.4h7v7h-7V261.4z M515.5,261.4h7v7h-7V261.4z M530,261.4h7v7h-7V261.4z M551.8,261.4h7v7h-7V261.4z M588.1,261.4h7v7h-7
	V261.4z M602.6,261.4h7v7h-7V261.4z M624.4,261.4h7v7h-7V261.4z M631.6,261.4h7v7h-7V261.4z M653.4,261.4h7v7h-7V261.4z
	 M660.7,261.4h7v7h-7V261.4z M667.9,261.4h7v7h-7V261.4z M711.5,261.4h7v7h-7V261.4z M718.7,261.4h7v7h-7V261.4z M762.3,261.4h7v7
	h-7V261.4z M769.6,261.4h7v7h-7V261.4z M798.6,261.4h7v7h-7V261.4z M820.4,261.4h7v7h-7V261.4z M827.6,261.4h7v7h-7V261.4z
	 M834.9,261.4h7v7h-7V261.4z M842.2,261.4h7v7h-7V261.4z M94.4,268.6h7v7h-7V268.6z M101.6,268.6h7v7h-7V268.6z M123.4,268.6h7v7h-7
	C123.4,275.6,123.4,268.6,123.4,268.6z M130.7,268.6h7v7h-7V268.6z M137.9,268.6h7v7h-7V268.6z M145.2,268.6h7v7h-7V268.6z
	 M152.5,268.6h7v7h-7V268.6z M159.7,268.6h7v7h-7V268.6z M181.5,268.6h7v7h-7V268.6z M188.8,268.6h7v7h-7V268.6z M196,268.6h7v7h-7
	V268.6z M203.3,268.6h7v7h-7V268.6z M210.5,268.6h7v7h-7V268.6z M217.8,268.6h7v7h-7V268.6z M283.1,268.6h7v7h-7V268.6z
	 M290.4,268.6h7v7h-7V268.6z M319.4,268.6h7v7h-7V268.6z M326.7,268.6h7v7h-7V268.6z M355.7,268.6h7v7h-7V268.6z M363,268.6h7v7h-7
	V268.6z M370.3,268.6h7v7h-7V268.6z M392,268.6h7v7h-7V268.6z M421.1,268.6h7v7h-7V268.6z M428.3,268.6h7v7h-7V268.6z M435.6,268.6
	h7v7h-7V268.6z M457.4,268.6h7v7h-7V268.6z M464.6,268.6h7v7h-7V268.6z M471.9,268.6h7v7h-7V268.6z M479.2,268.6h7v7h-7V268.6z
	 M500.9,268.6h7v7h-7V268.6z M508.2,268.6h7v7h-7V268.6z M515.5,268.6h7v7h-7V268.6z M522.7,268.6h7v7h-7V268.6z M530,268.6h7v7h-7
	V268.6z M551.8,268.6h7v7h-7V268.6z M559,268.6h7v7h-7V268.6z M566.3,268.6h7v7h-7V268.6z M602.6,268.6h7v7h-7V268.6z M624.4,268.6
	h7v7h-7V268.6z M631.6,268.6h7v7h-7V268.6z M667.9,268.6h7v7h-7V268.6z M675.2,268.6h7v7h-7V268.6z M718.7,268.6h7v7h-7V268.6z
	 M769.6,268.6h7v7h-7V268.6z M776.8,268.6h7v7h-7V268.6z M798.6,268.6h7v7h-7V268.6z M820.4,268.6h7v7h-7V268.6z M827.6,268.6h7v7
	h-7V268.6z M834.9,268.6h7v7h-7V268.6z M65.3,275.9h7v7h-7V275.9z M72.6,275.9h7v7h-7V275.9z M79.9,275.9h7v7h-7V275.9z M87.1,275.9
	h7v7h-7V275.9z M94.4,275.9h7v7h-7V275.9z M101.6,275.9h7v7h-7V275.9z M108.9,275.9h7v7h-7V275.9z M123.4,275.9h7v7h-7
	C123.4,282.9,123.4,275.9,123.4,275.9z M130.7,275.9h7v7h-7V275.9z M137.9,275.9h7v7h-7V275.9z M145.2,275.9h7v7h-7V275.9z
	 M152.5,275.9h7v7h-7V275.9z M159.7,275.9h7v7h-7V275.9z M167,275.9h7v7h-7V275.9z M174.2,275.9h7v7h-7V275.9z M196,275.9h7v7h-7
	V275.9z M203.3,275.9h7v7h-7V275.9z M210.5,275.9h7v7h-7V275.9z M217.8,275.9h7v7h-7V275.9z M225.1,275.9h7v7h-7V275.9z
	 M232.3,275.9h7v7h-7V275.9z M290.4,275.9h7v7h-7V275.9z M319.4,275.9h7v7h-7V275.9z M326.7,275.9h7v7h-7V275.9z M363,275.9h7v7h-7
	V275.9z M370.3,275.9h7v7h-7V275.9z M384.8,275.9h7v7h-7V275.9z M406.6,275.9h7v7h-7V275.9z M413.8,275.9h7v7h-7V275.9z
	 M421.1,275.9h7v7h-7V275.9z M428.3,275.9h7v7h-7V275.9z M435.6,275.9h7v7h-7V275.9z M464.6,275.9h7v7h-7V275.9z M471.9,275.9h7v7
	h-7V275.9z M500.9,275.9h7v7h-7V275.9z M508.2,275.9h7v7h-7V275.9z M515.5,275.9h7v7h-7V275.9z M522.7,275.9h7v7h-7V275.9z
	 M530,275.9h7v7h-7V275.9z M544.5,275.9h7v7h-7V275.9z M551.8,275.9h7v7h-7V275.9z M559,275.9h7v7h-7V275.9z M566.3,275.9h7v7h-7
	V275.9z M573.5,275.9h7v7h-7V275.9z M580.8,275.9h7v7h-7V275.9z M588.1,275.9h7v7h-7V275.9z M595.3,275.9h7v7h-7V275.9z
	 M602.6,275.9h7v7h-7V275.9z M624.4,275.9h7v7h-7V275.9z M631.6,275.9h7v7h-7V275.9z M675.2,275.9h7v7h-7V275.9z M682.4,275.9h7v7
	h-7V275.9z M689.7,275.9h7v7h-7V275.9z M718.7,275.9h7v7h-7V275.9z M733.3,275.9h7v7h-7V275.9z M776.8,275.9h7v7h-7V275.9z
	 M784.1,275.9h7v7h-7V275.9z M798.6,275.9h7v7h-7V275.9z M805.9,275.9h7v7h-7V275.9z M813.1,275.9h7v7h-7V275.9z M820.4,275.9h7v7
	h-7V275.9z M827.6,275.9h7v7h-7V275.9z M834.9,275.9h7v7h-7V275.9z M14.5,283.1h7v7h-7V283.1z M14.5,275.9h7v7h-7V275.9z
	 M21.8,283.1h7v7h-7V283.1z M29,283.1h7v7h-7V283.1z M36.3,283.1h7v7h-7V283.1z M43.6,283.1h7v7h-7V283.1z M50.8,283.1h7v7h-7V283.1
	z M58.1,283.1h7v7h-7V283.1z M65.3,283.1h7v7h-7V283.1z M72.6,283.1h7v7h-7V283.1z M79.9,283.1h7v7h-7V283.1z M87.1,283.1h7v7h-7
	V283.1z M108.9,283.1h7v7h-7V283.1z M116.2,283.1h7v7h-7V283.1z M123.4,283.1h7v7h-7C123.4,290.1,123.4,283.1,123.4,283.1z
	 M130.7,283.1h7v7h-7V283.1z M137.9,283.1h7v7h-7V283.1z M159.7,283.1h7v7h-7V283.1z M167,283.1h7v7h-7V283.1z M174.2,283.1h7v7h-7
	V283.1z M181.5,283.1h7v7h-7V283.1z M188.8,283.1h7v7h-7V283.1z M196,283.1h7v7h-7V283.1z M203.3,283.1h7v7h-7V283.1z M225.1,283.1
	h7v7h-7V283.1z M232.3,283.1h7v7h-7V283.1z M239.6,283.1h7v7h-7V283.1z M290.4,283.1h7v7h-7V283.1z M319.4,283.1h7v7h-7V283.1z
	 M326.7,283.1h7v7h-7V283.1z M370.3,283.1h7v7h-7V283.1z M377.5,283.1h7v7h-7V283.1z M392,283.1h7v7h-7V283.1z M399.3,283.1h7v7h-7
	V283.1z M406.6,283.1h7v7h-7V283.1z M413.8,283.1h7v7h-7V283.1z M421.1,283.1h7v7h-7V283.1z M435.6,283.1h7v7h-7V283.1z
	 M479.2,283.1h7v7h-7V283.1z M486.4,283.1h7v7h-7V283.1z M493.7,283.1h7v7h-7V283.1z M500.9,283.1h7v7h-7V283.1z M508.2,283.1h7v7
	h-7V283.1z M515.5,283.1h7v7h-7V283.1z M522.7,283.1h7v7h-7V283.1z M530,283.1h7v7h-7V283.1z M544.5,283.1h7v7h-7V283.1z
	 M551.8,283.1h7v7h-7V283.1z M559,283.1h7v7h-7V283.1z M566.3,283.1h7v7h-7V283.1z M573.5,283.1h7v7h-7V283.1z M580.8,283.1h7v7h-7
	V283.1z M588.1,283.1h7v7h-7V283.1z M595.3,283.1h7v7h-7V283.1z M602.6,283.1h7v7h-7V283.1z M624.4,283.1h7v7h-7V283.1z
	 M631.6,283.1h7v7h-7V283.1z M682.4,283.1h7v7h-7V283.1z M689.7,283.1h7v7h-7V283.1z M718.7,283.1h7v7h-7V283.1z M726,283.1h7v7h-7
	V283.1z M733.3,283.1h7v7h-7V283.1z M740.5,283.1h7v7h-7V283.1z M776.8,283.1h7v7h-7V283.1z M784.1,283.1h7v7h-7V283.1z
	 M791.3,283.1h7v7h-7V283.1z M798.6,283.1h7v7h-7V283.1z M805.9,283.1h7v7h-7V283.1z M813.1,283.1h7v7h-7V283.1z M820.4,283.1h7v7
	h-7V283.1z M827.6,283.1h7v7h-7V283.1z M834.9,283.1h7v7h-7V283.1z M21.8,290.4h7v7h-7V290.4z M29,290.4h7v7h-7V290.4z M36.3,290.4
	h7v7h-7V290.4z M43.6,290.4h7v7h-7V290.4z M50.8,290.4h7v7h-7V290.4z M58.1,290.4h7v7h-7V290.4z M65.3,290.4h7v7h-7V290.4z
	 M159.7,290.4h7v7h-7V290.4z M167,290.4h7v7h-7V290.4z M181.5,290.4h7v7h-7V290.4z M188.8,290.4h7v7h-7V290.4z M196,290.4h7v7h-7
	V290.4z M203.3,290.4h7v7h-7V290.4z M210.5,290.4h7v7h-7V290.4z M217.8,290.4h7v7h-7V290.4z M225.1,290.4h7v7h-7V290.4z
	 M232.3,290.4h7v7h-7V290.4z M239.6,290.4h7v7h-7V290.4z M246.8,290.4h7v7h-7V290.4z M254.1,290.4h7v7h-7V290.4z M290.4,290.4h7v7
	h-7V290.4z M319.4,290.4h7v7h-7V290.4z M326.7,290.4h7v7h-7V290.4z M334,290.4h7v7h-7V290.4z M377.5,290.4h7v7h-7V290.4z
	 M384.8,290.4h7v7h-7V290.4z M392,290.4h7v7h-7V290.4z M399.3,290.4h7v7h-7V290.4z M406.6,290.4h7v7h-7V290.4z M413.8,290.4h7v7h-7
	V290.4z M435.6,290.4h7v7h-7V290.4z M471.9,290.4h7v7h-7V290.4z M479.2,290.4h7v7h-7V290.4z M486.4,290.4h7v7h-7V290.4z
	 M493.7,290.4h7v7h-7V290.4z M500.9,290.4h7v7h-7V290.4z M508.2,290.4h7v7h-7V290.4z M530,290.4h7v7h-7V290.4z M544.5,290.4h7v7h-7
	V290.4z M551.8,290.4h7v7h-7V290.4z M573.5,290.4h7v7h-7V290.4z M580.8,290.4h7v7h-7V290.4z M588.1,290.4h7v7h-7V290.4z
	 M595.3,290.4h7v7h-7V290.4z M602.6,290.4h7v7h-7V290.4z M624.4,290.4h7v7h-7V290.4z M631.6,290.4h7v7h-7V290.4z M638.9,290.4h7v7
	h-7V290.4z M697,290.4h7v7h-7V290.4z M718.7,290.4h7v7h-7V290.4z M726,290.4h7v7h-7V290.4z M733.3,290.4h7v7h-7V290.4z M740.5,290.4
	h7v7h-7V290.4z M747.8,290.4h7v7h-7V290.4z M776.8,290.4h7v7h-7V290.4z M784.1,290.4h7v7h-7V290.4z M791.3,290.4h7v7h-7V290.4z
	 M805.9,290.4h7v7h-7V290.4z M813.1,290.4h7v7h-7V290.4z M820.4,290.4h7v7h-7V290.4z M827.6,290.4h7v7h-7V290.4z M159.7,297.7h7v7
	h-7V297.7z M167,297.7h7v7h-7V297.7z M181.5,297.7h7v7h-7V297.7z M188.8,297.7h7v7h-7V297.7z M196,297.7h7v7h-7V297.7z M203.3,297.7
	h7v7h-7V297.7z M210.5,297.7h7v7h-7V297.7z M217.8,297.7h7v7h-7V297.7z M225.1,297.7h7v7h-7V297.7z M232.3,297.7h7v7h-7V297.7z
	 M246.8,297.7h7v7h-7V297.7z M254.1,297.7h7v7h-7V297.7z M261.4,297.7h7v7h-7V297.7z M268.6,297.7h7v7h-7V297.7z M290.4,297.7h7v7
	h-7V297.7z M319.4,297.7h7v7h-7V297.7z M326.7,297.7h7v7h-7V297.7z M334,297.7h7v7h-7V297.7z M341.2,297.7h7v7h-7V297.7z
	 M377.5,297.7h7v7h-7V297.7z M384.8,297.7h7v7h-7V297.7z M392,297.7h7v7h-7V297.7z M399.3,297.7h7v7h-7V297.7z M406.6,297.7h7v7h-7
	V297.7z M435.6,297.7h7v7h-7V297.7z M471.9,297.7h7v7h-7V297.7z M479.2,297.7h7v7h-7V297.7z M486.4,297.7h7v7h-7V297.7z
	 M493.7,297.7h7v7h-7V297.7z M500.9,297.7h7v7h-7V297.7z M508.2,297.7h7v7h-7V297.7z M515.5,297.7h7v7h-7V297.7z M522.7,297.7h7v7
	h-7V297.7z M530,297.7h7v7h-7V297.7z M537.2,297.7h7v7h-7V297.7z M544.5,297.7h7v7h-7V297.7z M551.8,297.7h7v7h-7V297.7z
	 M602.6,297.7h7v7h-7V297.7z M609.8,297.7h7v7h-7V297.7z M617.1,297.7h7v7h-7V297.7z M624.4,297.7h7v7h-7V297.7z M631.6,297.7h7v7
	h-7V297.7z M638.9,297.7h7v7h-7V297.7z M660.7,297.7h7v7h-7V297.7z M667.9,297.7h7v7h-7V297.7z M689.7,297.7h7v7h-7V297.7z
	 M697,297.7h7v7h-7V297.7z M704.2,297.7h7v7h-7V297.7z M718.7,297.7h7v7h-7V297.7z M726,297.7h7v7h-7V297.7z M733.3,297.7h7v7h-7
	V297.7z M747.8,297.7h7v7h-7V297.7z M755,297.7h7v7h-7V297.7z M784.1,297.7h7v7h-7V297.7z M813.1,297.7h7v7h-7V297.7z M834.9,297.7
	h7v7h-7V297.7z M174.2,304.9h7v7h-7V304.9z M181.5,304.9h7v7h-7V304.9z M188.8,304.9h7v7h-7V304.9z M196,304.9h7v7h-7V304.9z
	 M203.3,304.9h7v7h-7V304.9z M210.5,304.9h7v7h-7V304.9z M217.8,304.9h7v7h-7V304.9z M225.1,304.9h7v7h-7V304.9z M232.3,304.9h7v7
	h-7V304.9z M246.8,304.9h7v7h-7V304.9z M254.1,304.9h7v7h-7V304.9z M261.4,304.9h7v7h-7V304.9z M268.6,304.9h7v7h-7V304.9z
	 M275.9,304.9h7v7h-7V304.9z M290.4,304.9h7v7h-7V304.9z M326.7,304.9h7v7h-7V304.9z M334,304.9h7v7h-7V304.9z M341.2,304.9h7v7h-7
	V304.9z M377.5,304.9h7v7h-7V304.9z M384.8,304.9h7v7h-7V304.9z M392,304.9h7v7h-7V304.9z M442.9,304.9h7v7h-7V304.9z M471.9,304.9
	h7v7h-7V304.9z M479.2,304.9h7v7h-7V304.9z M486.4,304.9h7v7h-7V304.9z M508.2,304.9h7v7h-7V304.9z M515.5,304.9h7v7h-7V304.9z
	 M522.7,304.9h7v7h-7V304.9z M530,304.9h7v7h-7V304.9z M537.2,304.9h7v7h-7V304.9z M544.5,304.9h7v7h-7V304.9z M551.8,304.9h7v7h-7
	V304.9z M609.8,304.9h7v7h-7V304.9z M617.1,304.9h7v7h-7V304.9z M624.4,304.9h7v7h-7V304.9z M631.6,304.9h7v7h-7V304.9z
	 M638.9,304.9h7v7h-7V304.9z M646.1,304.9h7v7h-7V304.9z M653.4,304.9h7v7h-7V304.9z M660.7,304.9h7v7h-7V304.9z M667.9,304.9h7v7
	h-7V304.9z M675.2,304.9h7v7h-7V304.9z M682.4,304.9h7v7h-7V304.9z M689.7,304.9h7v7h-7V304.9z M697,304.9h7v7h-7V304.9z
	 M704.2,304.9h7v7h-7V304.9z M726,304.9h7v7h-7V304.9z M733.3,304.9h7v7h-7V304.9z M747.8,304.9h7v7h-7V304.9z M755,304.9h7v7h-7
	V304.9z M784.1,304.9h7v7h-7V304.9z M834.9,304.9h7v7h-7V304.9z M842.2,304.9h7v7h-7V304.9z M174.2,312.2h7v7h-7V312.2z M196,312.2
	h7v7h-7V312.2z M203.3,312.2h7v7h-7V312.2z M210.5,312.2h7v7h-7V312.2z M217.8,312.2h7v7h-7V312.2z M225.1,312.2h7v7h-7V312.2z
	 M232.3,312.2h7v7h-7V312.2z M239.6,312.2h7v7h-7V312.2z M268.6,312.2h7v7h-7V312.2z M275.9,312.2h7v7h-7V312.2z M283.1,312.2h7v7
	h-7V312.2z M290.4,312.2h7v7h-7V312.2z M319.4,312.2h7v7h-7V312.2z M326.7,312.2h7v7h-7V312.2z M334,312.2h7v7h-7V312.2z
	 M341.2,312.2h7v7h-7V312.2z M348.5,312.2h7v7h-7V312.2z M355.7,312.2h7v7h-7V312.2z M363,312.2h7v7h-7V312.2z M370.3,312.2h7v7h-7
	V312.2z M377.5,312.2h7v7h-7V312.2z M384.8,312.2h7v7h-7V312.2z M392,312.2h7v7h-7V312.2z M442.9,312.2h7v7h-7V312.2z M471.9,312.2
	h7v7h-7V312.2z M479.2,312.2h7v7h-7V312.2z M486.4,312.2h7v7h-7V312.2z M508.2,312.2h7v7h-7V312.2z M515.5,312.2h7v7h-7V312.2z
	 M530,312.2h7v7h-7V312.2z M537.2,312.2h7v7h-7V312.2z M544.5,312.2h7v7h-7V312.2z M551.8,312.2h7v7h-7V312.2z M617.1,312.2h7v7h-7
	V312.2z M624.4,312.2h7v7h-7V312.2z M631.6,312.2h7v7h-7V312.2z M638.9,312.2h7v7h-7V312.2z M646.1,312.2h7v7h-7V312.2z
	 M653.4,312.2h7v7h-7V312.2z M660.7,312.2h7v7h-7V312.2z M682.4,312.2h7v7h-7V312.2z M689.7,312.2h7v7h-7V312.2z M697,312.2h7v7h-7
	V312.2z M747.8,312.2h7v7h-7V312.2z M755,312.2h7v7h-7V312.2z M762.3,312.2h7v7h-7V312.2z M784.1,312.2h7v7h-7V312.2z M834.9,312.2
	h7v7h-7V312.2z M842.2,312.2h7v7h-7V312.2z M116.2,319.4h7v7h-7V319.4z M123.4,319.4h7v7h-7C123.4,326.4,123.4,319.4,123.4,319.4z
	 M130.7,319.4h7v7h-7V319.4z M137.9,319.4h7v7h-7V319.4z M145.2,319.4h7v7h-7V319.4z M167,319.4h7v7h-7V319.4z M174.2,319.4h7v7h-7
	V319.4z M188.8,319.4h7v7h-7V319.4z M196,319.4h7v7h-7V319.4z M203.3,319.4h7v7h-7V319.4z M210.5,319.4h7v7h-7V319.4z M217.8,319.4
	h7v7h-7V319.4z M239.6,319.4h7v7h-7V319.4z M246.8,319.4h7v7h-7V319.4z M254.1,319.4h7v7h-7V319.4z M261.4,319.4h7v7h-7V319.4z
	 M275.9,319.4h7v7h-7V319.4z M283.1,319.4h7v7h-7V319.4z M290.4,319.4h7v7h-7V319.4z M319.4,319.4h7v7h-7V319.4z M326.7,319.4h7v7
	h-7V319.4z M334,319.4h7v7h-7V319.4z M348.5,319.4h7v7h-7V319.4z M355.7,319.4h7v7h-7V319.4z M363,319.4h7v7h-7V319.4z M370.3,319.4
	h7v7h-7V319.4z M377.5,319.4h7v7h-7V319.4z M384.8,319.4h7v7h-7V319.4z M442.9,319.4h7v7h-7V319.4z M450.1,319.4h7v7h-7V319.4z
	 M457.4,319.4h7v7h-7V319.4z M464.6,319.4h7v7h-7V319.4z M471.9,319.4h7v7h-7V319.4z M479.2,319.4h7v7h-7V319.4z M486.4,319.4h7v7
	h-7V319.4z M508.2,319.4h7v7h-7V319.4z M537.2,319.4h7v7h-7V319.4z M544.5,319.4h7v7h-7V319.4z M551.8,319.4h7v7h-7V319.4z
	 M609.8,319.4h7v7h-7V319.4z M617.1,319.4h7v7h-7V319.4z M624.4,319.4h7v7h-7V319.4z M631.6,319.4h7v7h-7V319.4z M638.9,319.4h7v7
	h-7V319.4z M653.4,319.4h7v7h-7V319.4z M660.7,319.4h7v7h-7V319.4z M667.9,319.4h7v7h-7V319.4z M682.4,319.4h7v7h-7V319.4z
	 M689.7,319.4h7v7h-7V319.4z M697,319.4h7v7h-7V319.4z M755,319.4h7v7h-7V319.4z M762.3,319.4h7v7h-7V319.4z M784.1,319.4h7v7h-7
	V319.4z M791.3,319.4h7v7h-7V319.4z M834.9,319.4h7v7h-7V319.4z M842.2,319.4h7v7h-7V319.4z M108.9,326.7h7v7h-7V326.7z
	 M116.2,326.7h7v7h-7V326.7z M123.4,326.7h7v7h-7C123.4,333.7,123.4,326.7,123.4,326.7z M130.7,326.7h7v7h-7V326.7z M137.9,326.7h7
	v7h-7V326.7z M145.2,326.7h7v7h-7V326.7z M167,326.7h7v7h-7V326.7z M174.2,326.7h7v7h-7V326.7z M188.8,326.7h7v7h-7V326.7z
	 M196,326.7h7v7h-7V326.7z M203.3,326.7h7v7h-7V326.7z M210.5,326.7h7v7h-7V326.7z M239.6,326.7h7v7h-7V326.7z M246.8,326.7h7v7h-7
	V326.7z M254.1,326.7h7v7h-7V326.7z M261.4,326.7h7v7h-7V326.7z M283.1,326.7h7v7h-7V326.7z M290.4,326.7h7v7h-7V326.7z
	 M450.1,326.7h7v7h-7V326.7z M457.4,326.7h7v7h-7V326.7z M464.6,326.7h7v7h-7V326.7z M471.9,326.7h7v7h-7V326.7z M479.2,326.7h7v7
	h-7V326.7z M486.4,326.7h7v7h-7V326.7z M508.2,326.7h7v7h-7V326.7z M537.2,326.7h7v7h-7V326.7z M544.5,326.7h7v7h-7V326.7z
	 M551.8,326.7h7v7h-7V326.7z M602.6,326.7h7v7h-7V326.7z M609.8,326.7h7v7h-7V326.7z M617.1,326.7h7v7h-7V326.7z M624.4,326.7h7v7
	h-7V326.7z M631.6,326.7h7v7h-7V326.7z M638.9,326.7h7v7h-7V326.7z M660.7,326.7h7v7h-7V326.7z M667.9,326.7h7v7h-7V326.7z
	 M675.2,326.7h7v7h-7V326.7z M682.4,326.7h7v7h-7V326.7z M689.7,326.7h7v7h-7V326.7z M697,326.7h7v7h-7V326.7z M762.3,326.7h7v7h-7
	V326.7z M769.6,326.7h7v7h-7V326.7z M776.8,326.7h7v7h-7V326.7z M784.1,326.7h7v7h-7V326.7z M791.3,326.7h7v7h-7V326.7z
	 M798.6,326.7h7v7h-7V326.7z M827.6,326.7h7v7h-7V326.7z M834.9,326.7h7v7h-7V326.7z M842.2,326.7h7v7h-7V326.7z M108.9,334h7v7h-7
	V334z M116.2,334h7v7h-7V334z M145.2,334h7v7h-7V334z M152.5,334h7v7h-7V334z M159.7,334h7v7h-7V334z M167,334h7v7h-7V334z
	 M174.2,334h7v7h-7V334z M181.5,334h7v7h-7V334z M188.8,334h7v7h-7V334z M196,334h7v7h-7V334z M203.3,334h7v7h-7V334z M210.5,334h7
	v7h-7V334z M254.1,334h7v7h-7V334z M261.4,334h7v7h-7V334z M268.6,334h7v7h-7V334z M290.4,334h7v7h-7V334z M297.7,334h7v7h-7V334z
	 M457.4,334h7v7h-7V334z M464.6,334h7v7h-7V334z M471.9,334h7v7h-7V334z M479.2,334h7v7h-7V334z M486.4,334h7v7h-7V334z M508.2,334
	h7v7h-7V334z M551.8,334h7v7h-7V334z M595.3,334h7v7h-7V334z M602.6,334h7v7h-7V334z M609.8,334h7v7h-7V334z M617.1,334h7v7h-7V334z
	 M624.4,334h7v7h-7V334z M660.7,334h7v7h-7V334z M667.9,334h7v7h-7V334z M675.2,334h7v7h-7V334z M682.4,334h7v7h-7V334z M689.7,334
	h7v7h-7V334z M697,334h7v7h-7V334z M704.2,334h7v7h-7V334z M711.5,334h7v7h-7V334z M718.7,334h7v7h-7V334z M726,334h7v7h-7V334z
	 M776.8,334h7v7h-7V334z M784.1,334h7v7h-7V334z M791.3,334h7v7h-7V334z M798.6,334h7v7h-7V334z M805.9,334h7v7h-7V334z M813.1,334
	h7v7h-7V334z M820.4,334h7v7h-7V334z M827.6,334h7v7h-7V334z M834.9,334h7v7h-7V334z M842.2,334h7v7h-7V334z M108.9,341.2h7v7h-7
	V341.2z M116.2,341.2h7v7h-7V341.2z M152.5,341.2h7v7h-7V341.2z M159.7,341.2h7v7h-7V341.2z M167,341.2h7v7h-7V341.2z M181.5,341.2
	h7v7h-7V341.2z M188.8,341.2h7v7h-7V341.2z M196,341.2h7v7h-7V341.2z M203.3,341.2h7v7h-7V341.2z M210.5,341.2h7v7h-7V341.2z
	 M261.4,341.2h7v7h-7V341.2z M268.6,341.2h7v7h-7V341.2z M275.9,341.2h7v7h-7V341.2z M290.4,341.2h7v7h-7V341.2z M297.7,341.2h7v7
	h-7V341.2z M486.4,341.2h7v7h-7V341.2z M508.2,341.2h7v7h-7V341.2z M573.5,341.2h7v7h-7V341.2z M580.8,341.2h7v7h-7V341.2z
	 M588.1,341.2h7v7h-7V341.2z M595.3,341.2h7v7h-7V341.2z M602.6,341.2h7v7h-7V341.2z M609.8,341.2h7v7h-7V341.2z M617.1,341.2h7v7
	h-7V341.2z M675.2,341.2h7v7h-7V341.2z M682.4,341.2h7v7h-7V341.2z M689.7,341.2h7v7h-7V341.2z M697,341.2h7v7h-7V341.2z
	 M704.2,341.2h7v7h-7V341.2z M711.5,341.2h7v7h-7V341.2z M718.7,341.2h7v7h-7V341.2z M726,341.2h7v7h-7V341.2z M733.3,341.2h7v7h-7
	V341.2z M740.5,341.2h7v7h-7V341.2z M747.8,341.2h7v7h-7V341.2z M755,341.2h7v7h-7V341.2z M762.3,341.2h7v7h-7V341.2z M769.6,341.2
	h7v7h-7V341.2z M805.9,341.2h7v7h-7V341.2z M813.1,341.2h7v7h-7V341.2z M820.4,341.2h7v7h-7V341.2z M827.6,341.2h7v7h-7V341.2z
	 M834.9,341.2h7v7h-7V341.2z M108.9,348.5h7v7h-7V348.5z M116.2,348.5h7v7h-7V348.5z M159.7,348.5h7v7h-7V348.5z M181.5,348.5h7v7
	h-7V348.5z M188.8,348.5h7v7h-7V348.5z M196,348.5h7v7h-7V348.5z M203.3,348.5h7v7h-7V348.5z M261.4,348.5h7v7h-7V348.5z
	 M268.6,348.5h7v7h-7V348.5z M275.9,348.5h7v7h-7V348.5z M283.1,348.5h7v7h-7V348.5z M290.4,348.5h7v7h-7V348.5z M297.7,348.5h7v7
	h-7V348.5z M559,348.5h7v7h-7V348.5z M566.3,348.5h7v7h-7V348.5z M573.5,348.5h7v7h-7V348.5z M580.8,348.5h7v7h-7V348.5z
	 M588.1,348.5h7v7h-7V348.5z M595.3,348.5h7v7h-7V348.5z M602.6,348.5h7v7h-7V348.5z M609.8,348.5h7v7h-7V348.5z M646.1,348.5h7v7
	h-7V348.5z M682.4,348.5h7v7h-7V348.5z M689.7,348.5h7v7h-7V348.5z M697,348.5h7v7h-7V348.5z M704.2,348.5h7v7h-7V348.5z
	 M711.5,348.5h7v7h-7V348.5z M718.7,348.5h7v7h-7V348.5z M726,348.5h7v7h-7V348.5z M733.3,348.5h7v7h-7V348.5z M740.5,348.5h7v7h-7
	V348.5z M747.8,348.5h7v7h-7V348.5z M755,348.5h7v7h-7V348.5z M762.3,348.5h7v7h-7V348.5z M769.6,348.5h7v7h-7V348.5z M776.8,348.5
	h7v7h-7V348.5z M784.1,348.5h7v7h-7V348.5z M791.3,348.5h7v7h-7V348.5z M798.6,348.5h7v7h-7V348.5z M805.9,348.5h7v7h-7V348.5z
	 M813.1,348.5h7v7h-7V348.5z M820.4,348.5h7v7h-7V348.5z M827.6,348.5h7v7h-7V348.5z M108.9,355.7h7v7h-7V355.7z M116.2,355.7h7v7
	h-7V355.7z M123.4,355.7h7v7h-7C123.4,362.7,123.4,355.7,123.4,355.7z M239.6,355.7h7v7h-7V355.7z M254.1,355.7h7v7h-7V355.7z
	 M261.4,355.7h7v7h-7V355.7z M268.6,355.7h7v7h-7V355.7z M283.1,355.7h7v7h-7V355.7z M290.4,355.7h7v7h-7V355.7z M297.7,355.7h7v7
	h-7V355.7z M500.9,355.7h7v7h-7V355.7z M508.2,355.7h7v7h-7V355.7z M515.5,355.7h7v7h-7V355.7z M522.7,355.7h7v7h-7V355.7z
	 M530,355.7h7v7h-7V355.7z M537.2,355.7h7v7h-7V355.7z M544.5,355.7h7v7h-7V355.7z M551.8,355.7h7v7h-7V355.7z M559,355.7h7v7h-7
	V355.7z M566.3,355.7h7v7h-7V355.7z M573.5,355.7h7v7h-7V355.7z M580.8,355.7h7v7h-7V355.7z M588.1,355.7h7v7h-7V355.7z
	 M595.3,355.7h7v7h-7V355.7z M609.8,355.7h7v7h-7V355.7z M617.1,355.7h7v7h-7V355.7z M624.4,355.7h7v7h-7V355.7z M646.1,355.7h7v7
	h-7V355.7z M660.7,355.7h7v7h-7V355.7z M667.9,355.7h7v7h-7V355.7z M704.2,355.7h7v7h-7V355.7z M711.5,355.7h7v7h-7V355.7z
	 M718.7,355.7h7v7h-7V355.7z M726,355.7h7v7h-7V355.7z M733.3,355.7h7v7h-7V355.7z M740.5,355.7h7v7h-7V355.7z M747.8,355.7h7v7h-7
	V355.7z M755,355.7h7v7h-7V355.7z M762.3,355.7h7v7h-7V355.7z M769.6,355.7h7v7h-7V355.7z M776.8,355.7h7v7h-7V355.7z M784.1,355.7
	h7v7h-7V355.7z M791.3,355.7h7v7h-7V355.7z M798.6,355.7h7v7h-7V355.7z M805.9,355.7h7v7h-7V355.7z M813.1,355.7h7v7h-7V355.7z
	 M820.4,355.7h7v7h-7V355.7z M116.2,363h7v7h-7V363z M123.4,363h7v7h-7C123.4,370,123.4,363,123.4,363z M130.7,363h7v7h-7V363z
	 M137.9,363h7v7h-7V363z M145.2,363h7v7h-7V363z M152.5,363h7v7h-7V363z M159.7,363h7v7h-7V363z M239.6,363h7v7h-7V363z M246.8,363
	h7v7h-7V363z M254.1,363h7v7h-7V363z M261.4,363h7v7h-7V363z M275.9,363h7v7h-7V363z M283.1,363h7v7h-7V363z M290.4,363h7v7h-7V363z
	 M486.4,363h7v7h-7V363z M493.7,363h7v7h-7V363z M500.9,363h7v7h-7V363z M508.2,363h7v7h-7V363z M515.5,363h7v7h-7V363z M522.7,363
	h7v7h-7V363z M530,363h7v7h-7V363z M537.2,363h7v7h-7V363z M544.5,363h7v7h-7V363z M551.8,363h7v7h-7V363z M559,363h7v7h-7V363z
	 M566.3,363h7v7h-7V363z M573.5,363h7v7h-7V363z M580.8,363h7v7h-7V363z M588.1,363h7v7h-7V363z M609.8,363h7v7h-7V363z M617.1,363
	h7v7h-7V363z M624.4,363h7v7h-7V363z M646.1,363h7v7h-7V363z M660.7,363h7v7h-7V363z M667.9,363h7v7h-7V363z M675.2,363h7v7h-7V363z
	 M711.5,363h7v7h-7V363z M718.7,363h7v7h-7V363z M726,363h7v7h-7V363z M733.3,363h7v7h-7V363z M740.5,363h7v7h-7V363z M747.8,363h7
	v7h-7V363z M755,363h7v7h-7V363z M762.3,363h7v7h-7V363z M769.6,363h7v7h-7V363z M776.8,363h7v7h-7V363z M784.1,363h7v7h-7V363z
	 M791.3,363h7v7h-7V363z M798.6,363h7v7h-7V363z M805.9,363h7v7h-7V363z M813.1,363h7v7h-7V363z M820.4,363h7v7h-7V363z
	 M116.2,370.3h7v7h-7V370.3z M123.4,370.3h7v7h-7C123.4,377.3,123.4,370.3,123.4,370.3z M130.7,370.3h7v7h-7V370.3z M137.9,370.3h7
	v7h-7V370.3z M145.2,370.3h7v7h-7V370.3z M152.5,370.3h7v7h-7V370.3z M159.7,370.3h7v7h-7V370.3z M239.6,370.3h7v7h-7V370.3z
	 M246.8,370.3h7v7h-7V370.3z M254.1,370.3h7v7h-7V370.3z M275.9,370.3h7v7h-7V370.3z M283.1,370.3h7v7h-7V370.3z M479.2,370.3h7v7
	h-7V370.3z M486.4,370.3h7v7h-7V370.3z M493.7,370.3h7v7h-7V370.3z M500.9,370.3h7v7h-7V370.3z M508.2,370.3h7v7h-7V370.3z
	 M515.5,370.3h7v7h-7V370.3z M522.7,370.3h7v7h-7V370.3z M530,370.3h7v7h-7V370.3z M537.2,370.3h7v7h-7V370.3z M544.5,370.3h7v7h-7
	V370.3z M551.8,370.3h7v7h-7V370.3z M559,370.3h7v7h-7V370.3z M566.3,370.3h7v7h-7V370.3z M573.5,370.3h7v7h-7V370.3z M580.8,370.3
	h7v7h-7V370.3z M609.8,370.3h7v7h-7V370.3z M624.4,370.3h7v7h-7V370.3z M646.1,370.3h7v7h-7V370.3z M660.7,370.3h7v7h-7V370.3z
	 M675.2,370.3h7v7h-7V370.3z M740.5,370.3h7v7h-7V370.3z M747.8,370.3h7v7h-7V370.3z M755,370.3h7v7h-7V370.3z M762.3,370.3h7v7h-7
	V370.3z M769.6,370.3h7v7h-7V370.3z M776.8,370.3h7v7h-7V370.3z M784.1,370.3h7v7h-7V370.3z M791.3,370.3h7v7h-7V370.3z
	 M798.6,370.3h7v7h-7V370.3z M805.9,370.3h7v7h-7V370.3z M813.1,370.3h7v7h-7V370.3z M820.4,370.3h7v7h-7V370.3z M152.5,377.5h7v7
	h-7V377.5z M159.7,377.5h7v7h-7V377.5z M239.6,377.5h7v7h-7V377.5z M246.8,377.5h7v7h-7V377.5z M254.1,377.5h7v7h-7V377.5z
	 M268.6,377.5h7v7h-7V377.5z M275.9,377.5h7v7h-7V377.5z M283.1,377.5h7v7h-7V377.5z M471.9,377.5h7v7h-7V377.5z M479.2,377.5h7v7
	h-7V377.5z M486.4,377.5h7v7h-7V377.5z M493.7,377.5h7v7h-7V377.5z M500.9,377.5h7v7h-7V377.5z M515.5,377.5h7v7h-7V377.5z
	 M522.7,377.5h7v7h-7V377.5z M530,377.5h7v7h-7V377.5z M537.2,377.5h7v7h-7V377.5z M544.5,377.5h7v7h-7V377.5z M551.8,377.5h7v7h-7
	V377.5z M559,377.5h7v7h-7V377.5z M609.8,377.5h7v7h-7V377.5z M617.1,377.5h7v7h-7V377.5z M624.4,377.5h7v7h-7V377.5z M646.1,377.5
	h7v7h-7V377.5z M660.7,377.5h7v7h-7V377.5z M667.9,377.5h7v7h-7V377.5z M675.2,377.5h7v7h-7V377.5z M784.1,377.5h7v7h-7V377.5z
	 M791.3,377.5h7v7h-7V377.5z M813.1,377.5h7v7h-7V377.5z M820.4,377.5h7v7h-7V377.5z M152.5,384.8h7v7h-7V384.8z M159.7,384.8h7v7
	h-7V384.8z M239.6,384.8h7v7h-7V384.8z M268.6,384.8h7v7h-7V384.8z M275.9,384.8h7v7h-7V384.8z M479.2,384.8h7v7h-7V384.8z
	 M486.4,384.8h7v7h-7V384.8z M500.9,384.8h7v7h-7V384.8z M508.2,384.8h7v7h-7V384.8z M515.5,384.8h7v7h-7V384.8z M522.7,384.8h7v7
	h-7V384.8z M653.4,384.8h7v7h-7V384.8z M784.1,384.8h7v7h-7V384.8z M791.3,384.8h7v7h-7V384.8z M813.1,384.8h7v7h-7V384.8z
	 M820.4,384.8h7v7h-7V384.8z M167,392h7v7h-7V392z M174.2,392h7v7h-7V392z M181.5,392h7v7h-7V392z M239.6,392h7v7h-7V392z
	 M246.8,392h7v7h-7V392z M254.1,392h7v7h-7V392z M261.4,392h7v7h-7V392z M268.6,392h7v7h-7V392z M479.2,392h7v7h-7V392z M486.4,392
	h7v7h-7V392z M500.9,392h7v7h-7V392z M508.2,392h7v7h-7V392z M515.5,392h7v7h-7V392z M522.7,392h7v7h-7V392z M646.1,392h7v7h-7V392z
	 M653.4,392h7v7h-7V392z M675.2,392h7v7h-7V392z M682.4,392h7v7h-7V392z M689.7,392h7v7h-7V392z M697,392h7v7h-7V392z M704.2,392h7
	v7h-7V392z M784.1,392h7v7h-7V392z M791.3,392h7v7h-7V392z M813.1,392h7v7h-7V392z M820.4,392h7v7h-7V392z M181.5,399.3h7v7h-7
	V399.3z M188.8,399.3h7v7h-7V399.3z M196,399.3h7v7h-7V399.3z M246.8,399.3h7v7h-7V399.3z M254.1,399.3h7v7h-7V399.3z M261.4,399.3
	h7v7h-7V399.3z M268.6,399.3h7v7h-7V399.3z M479.2,399.3h7v7h-7V399.3z M486.4,399.3h7v7h-7V399.3z M500.9,399.3h7v7h-7V399.3z
	 M508.2,399.3h7v7h-7V399.3z M515.5,399.3h7v7h-7V399.3z M638.9,399.3h7v7h-7V399.3z M646.1,399.3h7v7h-7V399.3z M653.4,399.3h7v7
	h-7V399.3z M675.2,399.3h7v7h-7V399.3z M682.4,399.3h7v7h-7V399.3z M689.7,399.3h7v7h-7V399.3z M697,399.3h7v7h-7V399.3z
	 M704.2,399.3h7v7h-7V399.3z M784.1,399.3h7v7h-7V399.3z M791.3,399.3h7v7h-7V399.3z M813.1,399.3h7v7h-7V399.3z M820.4,399.3h7v7
	h-7V399.3z M827.6,399.3h7v7h-7V399.3z M181.5,406.6h7v7h-7V406.6z M188.8,406.6h7v7h-7V406.6z M196,406.6h7v7h-7V406.6z
	 M239.6,406.6h7v7h-7V406.6z M246.8,406.6h7v7h-7V406.6z M254.1,406.6h7v7h-7V406.6z M261.4,406.6h7v7h-7V406.6z M268.6,406.6h7v7
	h-7V406.6z M479.2,406.6h7v7h-7V406.6z M486.4,406.6h7v7h-7V406.6z M500.9,406.6h7v7h-7V406.6z M508.2,406.6h7v7h-7V406.6z
	 M588.1,406.6h7v7h-7V406.6z M595.3,406.6h7v7h-7V406.6z M602.6,406.6h7v7h-7V406.6z M609.8,406.6h7v7h-7V406.6z M617.1,406.6h7v7
	h-7V406.6z M624.4,406.6h7v7h-7V406.6z M631.6,406.6h7v7h-7V406.6z M638.9,406.6h7v7h-7V406.6z M646.1,406.6h7v7h-7V406.6z
	 M653.4,406.6h7v7h-7V406.6z M660.7,406.6h7v7h-7V406.6z M667.9,406.6h7v7h-7V406.6z M675.2,406.6h7v7h-7V406.6z M682.4,406.6h7v7
	h-7V406.6z M689.7,406.6h7v7h-7V406.6z M697,406.6h7v7h-7V406.6z M704.2,406.6h7v7h-7V406.6z M711.5,406.6h7v7h-7V406.6z
	 M718.7,406.6h7v7h-7V406.6z M726,406.6h7v7h-7V406.6z M733.3,406.6h7v7h-7V406.6z M740.5,406.6h7v7h-7V406.6z M747.8,406.6h7v7h-7
	V406.6z M813.1,406.6h7v7h-7V406.6z M820.4,406.6h7v7h-7V406.6z M167,413.8h7v7h-7V413.8z M174.2,413.8h7v7h-7V413.8z M181.5,413.8
	h7v7h-7V413.8z M188.8,413.8h7v7h-7V413.8z M196,413.8h7v7h-7V413.8z M232.3,413.8h7v7h-7V413.8z M239.6,413.8h7v7h-7V413.8z
	 M246.8,413.8h7v7h-7V413.8z M254.1,413.8h7v7h-7V413.8z M261.4,413.8h7v7h-7V413.8z M268.6,413.8h7v7h-7V413.8z M275.9,413.8h7v7
	h-7V413.8z M479.2,413.8h7v7h-7V413.8z M486.4,413.8h7v7h-7V413.8z M530,413.8h7v7h-7V413.8z M537.2,413.8h7v7h-7V413.8z
	 M544.5,413.8h7v7h-7V413.8z M551.8,413.8h7v7h-7V413.8z M559,413.8h7v7h-7V413.8z M566.3,413.8h7v7h-7V413.8z M573.5,413.8h7v7h-7
	V413.8z M580.8,413.8h7v7h-7V413.8z M588.1,413.8h7v7h-7V413.8z M595.3,413.8h7v7h-7V413.8z M602.6,413.8h7v7h-7V413.8z
	 M609.8,413.8h7v7h-7V413.8z M617.1,413.8h7v7h-7V413.8z M624.4,413.8h7v7h-7V413.8z M631.6,413.8h7v7h-7V413.8z M638.9,413.8h7v7
	h-7V413.8z M646.1,413.8h7v7h-7V413.8z M653.4,413.8h7v7h-7V413.8z M697,413.8h7v7h-7V413.8z M704.2,413.8h7v7h-7V413.8z
	 M711.5,413.8h7v7h-7V413.8z M718.7,413.8h7v7h-7V413.8z M726,413.8h7v7h-7V413.8z M733.3,413.8h7v7h-7V413.8z M740.5,413.8h7v7h-7
	V413.8z M747.8,413.8h7v7h-7V413.8z M755,413.8h7v7h-7V413.8z M762.3,413.8h7v7h-7V413.8z M769.6,413.8h7v7h-7V413.8z M776.8,413.8
	h7v7h-7V413.8z M784.1,413.8h7v7h-7V413.8z M791.3,413.8h7v7h-7V413.8z M798.6,413.8h7v7h-7V413.8z M805.9,413.8h7v7h-7V413.8z
	 M813.1,413.8h7v7h-7V413.8z M820.4,413.8h7v7h-7V413.8z M159.7,421.1h7v7h-7V421.1z M167,421.1h7v7h-7V421.1z M174.2,421.1h7v7h-7
	V421.1z M181.5,421.1h7v7h-7V421.1z M188.8,421.1h7v7h-7V421.1z M196,421.1h7v7h-7V421.1z M232.3,421.1h7v7h-7V421.1z M239.6,421.1
	h7v7h-7V421.1z M246.8,421.1h7v7h-7V421.1z M254.1,421.1h7v7h-7V421.1z M261.4,421.1h7v7h-7V421.1z M268.6,421.1h7v7h-7V421.1z
	 M275.9,421.1h7v7h-7V421.1z M283.1,421.1h7v7h-7V421.1z M290.4,421.1h7v7h-7V421.1z M479.2,421.1h7v7h-7V421.1z M486.4,421.1h7v7
	h-7V421.1z M493.7,421.1h7v7h-7V421.1z M508.2,421.1h7v7h-7V421.1z M515.5,421.1h7v7h-7V421.1z M522.7,421.1h7v7h-7V421.1z
	 M530,421.1h7v7h-7V421.1z M537.2,421.1h7v7h-7V421.1z M544.5,421.1h7v7h-7V421.1z M551.8,421.1h7v7h-7V421.1z M559,421.1h7v7h-7
	V421.1z M566.3,421.1h7v7h-7V421.1z M573.5,421.1h7v7h-7V421.1z M580.8,421.1h7v7h-7V421.1z M588.1,421.1h7v7h-7V421.1z
	 M595.3,421.1h7v7h-7V421.1z M602.6,421.1h7v7h-7V421.1z M609.8,421.1h7v7h-7V421.1z M617.1,421.1h7v7h-7V421.1z M624.4,421.1h7v7
	h-7V421.1z M631.6,421.1h7v7h-7V421.1z M638.9,421.1h7v7h-7V421.1z M646.1,421.1h7v7h-7V421.1z M653.4,421.1h7v7h-7V421.1z
	 M740.5,421.1h7v7h-7V421.1z M747.8,421.1h7v7h-7V421.1z M755,421.1h7v7h-7V421.1z M762.3,421.1h7v7h-7V421.1z M769.6,421.1h7v7h-7
	V421.1z M776.8,421.1h7v7h-7V421.1z M784.1,421.1h7v7h-7V421.1z M791.3,421.1h7v7h-7V421.1z M798.6,421.1h7v7h-7V421.1z
	 M805.9,421.1h7v7h-7V421.1z M813.1,421.1h7v7h-7V421.1z M820.4,421.1h7v7h-7V421.1z M152.5,428.3h7v7h-7V428.3z M159.7,428.3h7v7
	h-7V428.3z M167,428.3h7v7h-7V428.3z M232.3,428.3h7v7h-7V428.3z M239.6,428.3h7v7h-7V428.3z M275.9,428.3h7v7h-7V428.3z
	 M283.1,428.3h7v7h-7V428.3z M290.4,428.3h7v7h-7V428.3z M297.7,428.3h7v7h-7V428.3z M304.9,428.3h7v7h-7V428.3z M312.2,428.3h7v7
	h-7V428.3z M319.4,428.3h7v7h-7V428.3z M479.2,428.3h7v7h-7V428.3z M486.4,428.3h7v7h-7V428.3z M493.7,428.3h7v7h-7V428.3z
	 M559,428.3h7v7h-7V428.3z M566.3,428.3h7v7h-7V428.3z M573.5,428.3h7v7h-7V428.3z M580.8,428.3h7v7h-7V428.3z M588.1,428.3h7v7h-7
	V428.3z M595.3,428.3h7v7h-7V428.3z M602.6,428.3h7v7h-7V428.3z M638.9,428.3h7v7h-7V428.3z M646.1,428.3h7v7h-7V428.3z
	 M653.4,428.3h7v7h-7V428.3z M798.6,428.3h7v7h-7V428.3z M805.9,428.3h7v7h-7V428.3z M813.1,428.3h7v7h-7V428.3z M820.4,428.3h7v7
	h-7V428.3z M152.5,435.6h7v7h-7V435.6z M159.7,435.6h7v7h-7V435.6z M167,435.6h7v7h-7V435.6z M217.8,435.6h7v7h-7V435.6z
	 M225.1,435.6h7v7h-7V435.6z M232.3,435.6h7v7h-7V435.6z M290.4,435.6h7v7h-7V435.6z M297.7,435.6h7v7h-7V435.6z M304.9,435.6h7v7
	h-7V435.6z M312.2,435.6h7v7h-7V435.6z M319.4,435.6h7v7h-7V435.6z M326.7,435.6h7v7h-7V435.6z M479.2,435.6h7v7h-7V435.6z
	 M486.4,435.6h7v7h-7V435.6z M493.7,435.6h7v7h-7V435.6z M500.9,435.6h7v7h-7V435.6z M638.9,435.6h7v7h-7V435.6z M646.1,435.6h7v7
	h-7V435.6z M653.4,435.6h7v7h-7V435.6z M798.6,435.6h7v7h-7V435.6z M805.9,435.6h7v7h-7V435.6z M813.1,435.6h7v7h-7V435.6z
	 M145.2,442.9h7v7h-7V442.9z M152.5,442.9h7v7h-7V442.9z M159.7,442.9h7v7h-7V442.9z M167,442.9h7v7h-7V442.9z M174.2,442.9h7v7h-7
	V442.9z M181.5,442.9h7v7h-7V442.9z M188.8,442.9h7v7h-7V442.9z M196,442.9h7v7h-7V442.9z M203.3,442.9h7v7h-7V442.9z M210.5,442.9
	h7v7h-7V442.9z M217.8,442.9h7v7h-7V442.9z M225.1,442.9h7v7h-7V442.9z M232.3,442.9h7v7h-7V442.9z M312.2,442.9h7v7h-7V442.9z
	 M319.4,442.9h7v7h-7V442.9z M326.7,442.9h7v7h-7V442.9z M334,442.9h7v7h-7V442.9z M479.2,442.9h7v7h-7V442.9z M486.4,442.9h7v7h-7
	V442.9z M493.7,442.9h7v7h-7V442.9z M500.9,442.9h7v7h-7V442.9z M638.9,442.9h7v7h-7V442.9z M646.1,442.9h7v7h-7V442.9z
	 M653.4,442.9h7v7h-7V442.9z M791.3,442.9h7v7h-7V442.9z M798.6,442.9h7v7h-7V442.9z M805.9,442.9h7v7h-7V442.9z M130.7,450.1h7v7
	h-7V450.1z M137.9,450.1h7v7h-7V450.1z M145.2,450.1h7v7h-7V450.1z M152.5,450.1h7v7h-7V450.1z M159.7,450.1h7v7h-7V450.1z
	 M167,450.1h7v7h-7V450.1z M174.2,450.1h7v7h-7V450.1z M181.5,450.1h7v7h-7V450.1z M188.8,450.1h7v7h-7V450.1z M196,450.1h7v7h-7
	V450.1z M203.3,450.1h7v7h-7V450.1z M210.5,450.1h7v7h-7V450.1z M217.8,450.1h7v7h-7V450.1z M225.1,450.1h7v7h-7V450.1z
	 M319.4,450.1h7v7h-7V450.1z M326.7,450.1h7v7h-7V450.1z M334,450.1h7v7h-7V450.1z M341.2,450.1h7v7h-7V450.1z M348.5,450.1h7v7h-7
	V450.1z M479.2,450.1h7v7h-7V450.1z M486.4,450.1h7v7h-7V450.1z M493.7,450.1h7v7h-7V450.1z M500.9,450.1h7v7h-7V450.1z
	 M638.9,450.1h7v7h-7V450.1z M646.1,450.1h7v7h-7V450.1z M653.4,450.1h7v7h-7V450.1z M791.3,450.1h7v7h-7V450.1z M798.6,450.1h7v7
	h-7V450.1z M805.9,450.1h7v7h-7V450.1z M123.4,457.4h7v7h-7C123.4,464.4,123.4,457.4,123.4,457.4z M130.7,457.4h7v7h-7V457.4z
	 M137.9,457.4h7v7h-7V457.4z M145.2,457.4h7v7h-7V457.4z M152.5,457.4h7v7h-7V457.4z M159.7,457.4h7v7h-7V457.4z M167,457.4h7v7h-7
	V457.4z M174.2,457.4h7v7h-7V457.4z M181.5,457.4h7v7h-7V457.4z M188.8,457.4h7v7h-7V457.4z M196,457.4h7v7h-7V457.4z M203.3,457.4
	h7v7h-7V457.4z M210.5,457.4h7v7h-7V457.4z M217.8,457.4h7v7h-7V457.4z M326.7,457.4h7v7h-7V457.4z M334,457.4h7v7h-7V457.4z
	 M341.2,457.4h7v7h-7V457.4z M348.5,457.4h7v7h-7V457.4z M355.7,457.4h7v7h-7V457.4z M363,457.4h7v7h-7V457.4z M479.2,457.4h7v7h-7
	V457.4z M486.4,457.4h7v7h-7V457.4z M493.7,457.4h7v7h-7V457.4z M500.9,457.4h7v7h-7V457.4z M508.2,457.4h7v7h-7V457.4z
	 M638.9,457.4h7v7h-7V457.4z M646.1,457.4h7v7h-7V457.4z M653.4,457.4h7v7h-7V457.4z M791.3,457.4h7v7h-7V457.4z M798.6,457.4h7v7
	h-7V457.4z M805.9,457.4h7v7h-7V457.4z M116.2,464.6h7v7h-7V464.6z M123.4,464.6h7v7h-7C123.4,471.6,123.4,464.6,123.4,464.6z
	 M130.7,464.6h7v7h-7V464.6z M137.9,464.6h7v7h-7V464.6z M145.2,464.6h7v7h-7V464.6z M152.5,464.6h7v7h-7V464.6z M159.7,464.6h7v7
	h-7V464.6z M167,464.6h7v7h-7V464.6z M174.2,464.6h7v7h-7V464.6z M181.5,464.6h7v7h-7V464.6z M188.8,464.6h7v7h-7V464.6z M196,464.6
	h7v7h-7V464.6z M203.3,464.6h7v7h-7V464.6z M210.5,464.6h7v7h-7V464.6z M232.3,464.6h7v7h-7V464.6z M355.7,464.6h7v7h-7V464.6z
	 M363,464.6h7v7h-7V464.6z M479.2,464.6h7v7h-7V464.6z M486.4,464.6h7v7h-7V464.6z M493.7,464.6h7v7h-7V464.6z M500.9,464.6h7v7h-7
	V464.6z M508.2,464.6h7v7h-7V464.6z M537.2,464.6h7v7h-7V464.6z M638.9,464.6h7v7h-7V464.6z M646.1,464.6h7v7h-7V464.6z
	 M653.4,464.6h7v7h-7V464.6z M682.4,464.6h7v7h-7V464.6z M726,464.6h7v7h-7V464.6z M784.1,464.6h7v7h-7V464.6z M791.3,464.6h7v7h-7
	V464.6z M798.6,464.6h7v7h-7V464.6z M805.9,464.6h7v7h-7V464.6z M101.6,471.9h7v7h-7V471.9z M108.9,471.9h7v7h-7V471.9z
	 M116.2,471.9h7v7h-7V471.9z M123.4,471.9h7v7h-7C123.4,478.9,123.4,471.9,123.4,471.9z M145.2,471.9h7v7h-7V471.9z M152.5,471.9h7
	v7h-7V471.9z M159.7,471.9h7v7h-7V471.9z M167,471.9h7v7h-7V471.9z M174.2,471.9h7v7h-7V471.9z M225.1,471.9h7v7h-7V471.9z
	 M232.3,471.9h7v7h-7V471.9z M261.4,471.9h7v7h-7V471.9z M268.6,471.9h7v7h-7V471.9z M275.9,471.9h7v7h-7V471.9z M283.1,471.9h7v7
	h-7V471.9z M290.4,471.9h7v7h-7V471.9z M363,471.9h7v7h-7V471.9z M370.3,471.9h7v7h-7V471.9z M479.2,471.9h7v7h-7V471.9z
	 M486.4,471.9h7v7h-7V471.9z M493.7,471.9h7v7h-7V471.9z M500.9,471.9h7v7h-7V471.9z M508.2,471.9h7v7h-7V471.9z M515.5,471.9h7v7
	h-7V471.9z M537.2,471.9h7v7h-7V471.9z M609.8,471.9h7v7h-7V471.9z M638.9,471.9h7v7h-7V471.9z M646.1,471.9h7v7h-7V471.9z
	 M653.4,471.9h7v7h-7V471.9z M682.4,471.9h7v7h-7V471.9z M726,471.9h7v7h-7V471.9z M784.1,471.9h7v7h-7V471.9z M791.3,471.9h7v7h-7
	V471.9z M798.6,471.9h7v7h-7V471.9z M805.9,471.9h7v7h-7V471.9z M79.9,479.2h7v7h-7V479.2z M87.1,479.2h7v7h-7V479.2z M94.4,479.2h7
	v7h-7V479.2z M101.6,479.2h7v7h-7V479.2z M108.9,479.2h7v7h-7V479.2z M116.2,479.2h7v7h-7V479.2z M145.2,479.2h7v7h-7V479.2z
	 M152.5,479.2h7v7h-7V479.2z M159.7,479.2h7v7h-7V479.2z M167,479.2h7v7h-7V479.2z M174.2,479.2h7v7h-7V479.2z M225.1,479.2h7v7h-7
	V479.2z M232.3,479.2h7v7h-7V479.2z M261.4,479.2h7v7h-7V479.2z M268.6,479.2h7v7h-7V479.2z M275.9,479.2h7v7h-7V479.2z
	 M283.1,479.2h7v7h-7V479.2z M290.4,479.2h7v7h-7V479.2z M297.7,479.2h7v7h-7V479.2z M304.9,479.2h7v7h-7V479.2z M363,479.2h7v7h-7
	V479.2z M370.3,479.2h7v7h-7V479.2z M377.5,479.2h7v7h-7V479.2z M479.2,479.2h7v7h-7V479.2z M486.4,479.2h7v7h-7V479.2z
	 M493.7,479.2h7v7h-7V479.2z M500.9,479.2h7v7h-7V479.2z M508.2,479.2h7v7h-7V479.2z M515.5,479.2h7v7h-7V479.2z M537.2,479.2h7v7
	h-7V479.2z M544.5,479.2h7v7h-7V479.2z M573.5,479.2h7v7h-7V479.2z M609.8,479.2h7v7h-7V479.2z M638.9,479.2h7v7h-7V479.2z
	 M646.1,479.2h7v7h-7V479.2z M653.4,479.2h7v7h-7V479.2z M660.7,479.2h7v7h-7V479.2z M682.4,479.2h7v7h-7V479.2z M726,479.2h7v7h-7
	V479.2z M784.1,479.2h7v7h-7V479.2z M791.3,479.2h7v7h-7V479.2z M798.6,479.2h7v7h-7V479.2z M65.3,486.4h7v7h-7V486.4z M72.6,486.4
	h7v7h-7V486.4z M79.9,486.4h7v7h-7V486.4z M87.1,486.4h7v7h-7V486.4z M94.4,486.4h7v7h-7V486.4z M101.6,486.4h7v7h-7V486.4z
	 M108.9,486.4h7v7h-7V486.4z M145.2,486.4h7v7h-7V486.4z M152.5,486.4h7v7h-7V486.4z M159.7,486.4h7v7h-7V486.4z M167,486.4h7v7h-7
	V486.4z M174.2,486.4h7v7h-7V486.4z M196,486.4h7v7h-7V486.4z M225.1,486.4h7v7h-7V486.4z M232.3,486.4h7v7h-7V486.4z M268.6,486.4
	h7v7h-7V486.4z M275.9,486.4h7v7h-7V486.4z M283.1,486.4h7v7h-7V486.4z M290.4,486.4h7v7h-7V486.4z M297.7,486.4h7v7h-7V486.4z
	 M304.9,486.4h7v7h-7V486.4z M363,486.4h7v7h-7V486.4z M370.3,486.4h7v7h-7V486.4z M377.5,486.4h7v7h-7V486.4z M384.8,486.4h7v7h-7
	V486.4z M479.2,486.4h7v7h-7V486.4z M486.4,486.4h7v7h-7V486.4z M493.7,486.4h7v7h-7V486.4z M500.9,486.4h7v7h-7V486.4z
	 M508.2,486.4h7v7h-7V486.4z M515.5,486.4h7v7h-7V486.4z M537.2,486.4h7v7h-7V486.4z M544.5,486.4h7v7h-7V486.4z M566.3,486.4h7v7
	h-7V486.4z M573.5,486.4h7v7h-7V486.4z M609.8,486.4h7v7h-7V486.4z M638.9,486.4h7v7h-7V486.4z M646.1,486.4h7v7h-7V486.4z
	 M653.4,486.4h7v7h-7V486.4z M660.7,486.4h7v7h-7V486.4z M675.2,486.4h7v7h-7V486.4z M682.4,486.4h7v7h-7V486.4z M704.2,486.4h7v7
	h-7V486.4z M711.5,486.4h7v7h-7V486.4z M718.7,486.4h7v7h-7V486.4z M755,486.4h7v7h-7V486.4z M762.3,486.4h7v7h-7V486.4z
	 M784.1,486.4h7v7h-7V486.4z M791.3,486.4h7v7h-7V486.4z M798.6,486.4h7v7h-7V486.4z M58.1,493.7h7v7h-7V493.7z M65.3,493.7h7v7h-7
	V493.7z M72.6,493.7h7v7h-7V493.7z M79.9,493.7h7v7h-7V493.7z M87.1,493.7h7v7h-7V493.7z M130.7,493.7h7v7h-7V493.7z M137.9,493.7h7
	v7h-7V493.7z M145.2,493.7h7v7h-7V493.7z M152.5,493.7h7v7h-7V493.7z M159.7,493.7h7v7h-7V493.7z M167,493.7h7v7h-7V493.7z
	 M174.2,493.7h7v7h-7V493.7z M196,493.7h7v7h-7V493.7z M203.3,493.7h7v7h-7V493.7z M225.1,493.7h7v7h-7V493.7z M232.3,493.7h7v7h-7
	V493.7z M268.6,493.7h7v7h-7V493.7z M275.9,493.7h7v7h-7V493.7z M283.1,493.7h7v7h-7V493.7z M290.4,493.7h7v7h-7V493.7z
	 M297.7,493.7h7v7h-7V493.7z M304.9,493.7h7v7h-7V493.7z M363,493.7h7v7h-7V493.7z M370.3,493.7h7v7h-7V493.7z M377.5,493.7h7v7h-7
	V493.7z M384.8,493.7h7v7h-7V493.7z M479.2,493.7h7v7h-7V493.7z M486.4,493.7h7v7h-7V493.7z M493.7,493.7h7v7h-7V493.7z
	 M500.9,493.7h7v7h-7V493.7z M508.2,493.7h7v7h-7V493.7z M515.5,493.7h7v7h-7V493.7z M537.2,493.7h7v7h-7V493.7z M544.5,493.7h7v7
	h-7V493.7z M566.3,493.7h7v7h-7V493.7z M573.5,493.7h7v7h-7V493.7z M602.6,493.7h7v7h-7V493.7z M609.8,493.7h7v7h-7V493.7z
	 M638.9,493.7h7v7h-7V493.7z M646.1,493.7h7v7h-7V493.7z M653.4,493.7h7v7h-7V493.7z M660.7,493.7h7v7h-7V493.7z M667.9,493.7h7v7
	h-7V493.7z M675.2,493.7h7v7h-7V493.7z M682.4,493.7h7v7h-7V493.7z M704.2,493.7h7v7h-7V493.7z M711.5,493.7h7v7h-7V493.7z
	 M718.7,493.7h7v7h-7V493.7z M740.5,493.7h7v7h-7V493.7z M747.8,493.7h7v7h-7V493.7z M755,493.7h7v7h-7V493.7z M784.1,493.7h7v7h-7
	V493.7z M791.3,493.7h7v7h-7V493.7z M798.6,493.7h7v7h-7V493.7z M58.1,500.9h7v7h-7V500.9z M130.7,500.9h7v7h-7V500.9z M137.9,500.9
	h7v7h-7V500.9z M145.2,500.9h7v7h-7V500.9z M152.5,500.9h7v7h-7V500.9z M159.7,500.9h7v7h-7V500.9z M167,500.9h7v7h-7V500.9z
	 M174.2,500.9h7v7h-7V500.9z M196,500.9h7v7h-7V500.9z M203.3,500.9h7v7h-7V500.9z M225.1,500.9h7v7h-7V500.9z M232.3,500.9h7v7h-7
	V500.9z M268.6,500.9h7v7h-7V500.9z M275.9,500.9h7v7h-7V500.9z M283.1,500.9h7v7h-7V500.9z M312.2,500.9h7v7h-7V500.9z
	 M319.4,500.9h7v7h-7V500.9z M326.7,500.9h7v7h-7V500.9z M334,500.9h7v7h-7V500.9z M370.3,500.9h7v7h-7V500.9z M377.5,500.9h7v7h-7
	V500.9z M384.8,500.9h7v7h-7V500.9z M471.9,500.9h7v7h-7V500.9z M479.2,500.9h7v7h-7V500.9z M493.7,500.9h7v7h-7V500.9z
	 M500.9,500.9h7v7h-7V500.9z M508.2,500.9h7v7h-7V500.9z M515.5,500.9h7v7h-7V500.9z M537.2,500.9h7v7h-7V500.9z M544.5,500.9h7v7
	h-7V500.9z M566.3,500.9h7v7h-7V500.9z M573.5,500.9h7v7h-7V500.9z M580.8,500.9h7v7h-7V500.9z M602.6,500.9h7v7h-7V500.9z
	 M609.8,500.9h7v7h-7V500.9z M638.9,500.9h7v7h-7V500.9z M646.1,500.9h7v7h-7V500.9z M653.4,500.9h7v7h-7V500.9z M660.7,500.9h7v7
	h-7V500.9z M667.9,500.9h7v7h-7V500.9z M675.2,500.9h7v7h-7V500.9z M682.4,500.9h7v7h-7V500.9z M704.2,500.9h7v7h-7V500.9z
	 M711.5,500.9h7v7h-7V500.9z M718.7,500.9h7v7h-7V500.9z M740.5,500.9h7v7h-7V500.9z M747.8,500.9h7v7h-7V500.9z M755,500.9h7v7h-7
	V500.9z M769.6,500.9h7v7h-7V500.9z M776.8,500.9h7v7h-7V500.9z M784.1,500.9h7v7h-7V500.9z M791.3,500.9h7v7h-7V500.9z
	 M798.6,500.9h7v7h-7V500.9z M813.2,580.7h7v7h-7V580.7z M805.9,580.7h7v7h-7V580.7z M820.4,573.5h7v7h-7V573.5z M813.2,573.5h7v7
	h-7V573.5z M805.9,573.5h7v7h-7V573.5z M798.7,573.5h7v7h-7V573.5z M827.7,566.2h7v7h-7V566.2z M820.4,566.2h7v7h-7V566.2z
	 M813.2,566.2h7v7h-7V566.2z M805.9,566.2h7v7h-7V566.2z M798.7,566.2h7v7h-7V566.2z M791.4,566.2h7v7h-7V566.2z M835,559h7v7h-7
	V559z M827.7,559h7v7h-7V559z M820.4,559h7v7h-7V559z M813.2,559h7v7h-7V559z M805.9,559h7v7h-7V559z M798.7,559h7v7h-7V559z
	 M791.4,559h7v7h-7V559z M784.1,559h7v7h-7V559z M842.2,551.7h7v7h-7V551.7z M835,551.7h7v7h-7V551.7z M827.7,551.7h7v7h-7V551.7z
	 M820.4,551.7h7v7h-7V551.7z M813.2,551.7h7v7h-7V551.7z M805.9,551.7h7v7h-7V551.7z M798.7,551.7h7v7h-7V551.7z M791.4,551.7h7v7
	h-7V551.7z M784.1,551.7h7v7h-7V551.7z M776.9,551.7h7v7h-7V551.7z M849.5,544.4h7v7h-7V544.4z M842.2,544.4h7v7h-7V544.4z
	 M835,544.4h7v7h-7V544.4z M827.7,544.4h7v7h-7V544.4z M820.4,544.4h7v7h-7V544.4z M813.2,544.4h7v7h-7V544.4z M805.9,544.4h7v7h-7
	V544.4z M798.7,544.4h7v7h-7V544.4z M791.4,544.4h7v7h-7V544.4z M784.1,544.4h7v7h-7V544.4z M776.9,544.4h7v7h-7V544.4z
	 M769.6,544.4h7v7h-7V544.4z"/>
</svg>
