<?xml version="1.0" encoding="utf-8"?>
<!-- Generator: Adobe Illustrator 27.3.1, SVG Export Plug-In . SVG Version: 6.00 Build 0)  -->
<svg version="1.1" xmlns="http://www.w3.org/2000/svg" xmlns:xlink="http://www.w3.org/1999/xlink" x="0px" y="0px"
	 viewBox="0 0 871 871" style="enable-background:new 0 0 871 871;" xml:space="preserve">
<style type="text/css">
	.st0{fill:#FCEABB;}
	.st1{fill:#1E0E01;}
</style>
<g id="Слой_2">
	<path class="st0" d="M844.4,559c0-1.4-1.1-2.5-2.5-2.5h-7c0,0-0.1,0-0.1,0c0,0-0.1,0-0.1,0h-7c0,0-0.1,0-0.1,0c0,0-0.1,0-0.1,0
		h-4.8v-4.8c0-1.4-1.1-2.5-2.5-2.5h-7c0,0-0.1,0-0.1,0c0,0-0.1,0-0.1,0h-7c0,0-0.1,0-0.1,0c0,0-0.1,0-0.1,0h-7c0,0-0.1,0-0.1,0
		c0,0-0.1,0-0.1,0h-4.8v-4.8c0-1.4-1.1-2.5-2.5-2.5h-7c0,0-0.1,0-0.1,0c0,0-0.1,0-0.1,0h-7c0,0-0.1,0-0.1,0c0,0-0.1,0-0.1,0h-7
		c0,0-0.1,0-0.1,0c0,0-0.1,0-0.1,0h-4.8v-4.8c0-1.4-1.1-2.5-2.5-2.5h-7c0,0-0.1,0-0.1,0c0,0-0.1,0-0.1,0h-7c0,0-0.1,0-0.1,0
		c0,0-0.1,0-0.1,0h-7c0,0-0.1,0-0.1,0c0,0-0.1,0-0.1,0h-4.8V530c0-1.4-1.1-2.5-2.5-2.5h-7c0,0-0.1,0-0.1,0c0,0-0.1,0-0.1,0h-7
		c0,0-0.1,0-0.1,0c0,0-0.1,0-0.1,0h-4.8v-4.8c0-1.4-1.1-2.5-2.5-2.5h-7c0,0-0.1,0-0.1,0c0,0-0.1,0-0.1,0h-7c0,0-0.1,0-0.1,0
		c0,0-0.1,0-0.1,0h-7c0,0-0.1,0-0.1,0c0,0-0.1,0-0.1,0h-4.8v-4.8c0-1.4-1.1-2.5-2.5-2.5h-7c0,0-0.1,0-0.1,0c0,0-0.1,0-0.1,0h-7
		c0,0-0.1,0-0.1,0c0,0-0.1,0-0.1,0h-4.8v-4.8c0-1.4-1.1-2.5-2.5-2.5h-7c0,0-0.1,0-0.1,0c0,0-0.1,0-0.1,0h-7c0,0-0.1,0-0.1,0
		c0,0-0.1,0-0.1,0h-4.8v-4.8c0-1.4-1.1-2.5-2.5-2.5h-7c0,0-0.1,0-0.1,0c0,0-0.1,0-0.1,0h-7c0,0-0.1,0-0.1,0c0,0-0.1,0-0.1,0h-7
		c0,0-0.1,0-0.1,0c0,0-0.1,0-0.1,0h-4.8v-4.8c0-1.4-1.1-2.5-2.5-2.5h-7c0,0-0.1,0-0.1,0c0,0-0.1,0-0.1,0h-7c0,0-0.1,0-0.1,0
		c0,0-0.1,0-0.1,0h-7c0,0-0.1,0-0.1,0c0,0-0.1,0-0.1,0h-7c0,0-0.1,0-0.1,0c0,0-0.1,0-0.1,0h-4.8v-4.8c0-1.4-1.1-2.5-2.5-2.5h-7
		c0,0-0.1,0-0.1,0c0,0-0.1,0-0.1,0h-7c0,0-0.1,0-0.1,0c0,0-0.1,0-0.1,0H554v-4.8c0-1.4-1.1-2.5-2.5-2.5h-7c0,0-0.1,0-0.1,0
		c0,0-0.1,0-0.1,0h-7c0,0-0.1,0-0.1,0c0,0-0.1,0-0.1,0h-4.8v-4.8c0-1.4-1.1-2.5-2.5-2.5h-7c0,0-0.1,0-0.1,0c0,0-0.1,0-0.1,0h-7
		c0,0-0.1,0-0.1,0c0,0-0.1,0-0.1,0h-4.8v-4.8c0-1.4-1.1-2.5-2.5-2.5h-7c0,0-0.1,0-0.1,0c0,0-0.1,0-0.1,0h-4.8v-4.8
		c0-1.4-1.1-2.5-2.5-2.5h-7c0,0-0.1,0-0.1,0c0,0-0.1,0-0.1,0h-7c0,0-0.1,0-0.1,0c0,0-0.1,0-0.1,0h-4.8v-4.8c0-1.4-1.1-2.5-2.5-2.5
		h-4.8v-4.8c0,0,0-0.1,0-0.1c0,0,0-0.1,0-0.1v-7c0-1.4-1.1-2.5-2.5-2.5h-4.8v-4.8c0,0,0-0.1,0-0.1c0,0,0-0.1,0-0.1v-7
		c0,0,0-0.1,0-0.1c0,0,0-0.1,0-0.1v-4.8h4.8c1.4,0,2.5-1.1,2.5-2.5v-4.8h4.8c1.4,0,2.5-1.1,2.5-2.5v-7c0,0,0-0.1,0-0.1
		c0,0,0-0.1,0-0.1v-7c0,0,0-0.1,0-0.1c0,0,0-0.1,0-0.1V387h4.8c1.4,0,2.5-1.1,2.5-2.5v-7c0,0,0-0.1,0-0.1c0,0,0-0.1,0-0.1v-7
		c0,0,0-0.1,0-0.1c0,0,0-0.1,0-0.1v-7c0,0,0-0.1,0-0.1c0,0,0-0.1,0-0.1V358h4.8c0,0,0.1,0,0.1,0c0,0,0.1,0,0.1,0h7c0,0,0.1,0,0.1,0
		c0,0,0.1,0,0.1,0h7c0,0,0.1,0,0.1,0c0,0,0.1,0,0.1,0h7c1.4,0,2.5-1.1,2.5-2.5v-4.8h4.8c1.4,0,2.5-1.1,2.5-2.5v-7c0,0,0-0.1,0-0.1
		c0,0,0-0.1,0-0.1v-7c0,0,0-0.1,0-0.1c0,0,0-0.1,0-0.1v-4.8h4.8c1.4,0,2.5-1.1,2.5-2.5v-7c0,0,0-0.1,0-0.1c0,0,0-0.1,0-0.1v-4.8h4.8
		c1.4,0,2.5-1.1,2.5-2.5v-7c0,0,0-0.1,0-0.1c0,0,0-0.1,0-0.1v-7c0,0,0-0.1,0-0.1c0,0,0-0.1,0-0.1v-4.8h4.8c1.4,0,2.5-1.1,2.5-2.5v-7
		c0,0,0-0.1,0-0.1c0,0,0-0.1,0-0.1v-7c0,0,0-0.1,0-0.1c0,0,0-0.1,0-0.1v-4.8h4.8c1.4,0,2.5-1.1,2.5-2.5v-7c0,0,0-0.1,0-0.1
		c0,0,0-0.1,0-0.1v-7c0,0,0-0.1,0-0.1c0,0,0-0.1,0-0.1v-4.8h4.8c1.4,0,2.5-1.1,2.5-2.5v-7c0,0,0-0.1,0-0.1c0,0,0-0.1,0-0.1v-7
		c0,0,0-0.1,0-0.1c0,0,0-0.1,0-0.1v-7c0,0,0-0.1,0-0.1c0,0,0-0.1,0-0.1V220h4.8c1.4,0,2.5-1.1,2.5-2.5v-7c0,0,0-0.1,0-0.1
		c0,0,0-0.1,0-0.1v-7c0-1.4-1.1-2.5-2.5-2.5H554V196c0-1.4-1.1-2.5-2.5-2.5h-7c0,0-0.1,0-0.1,0c0,0-0.1,0-0.1,0h-4.8v-4.8
		c0,0,0-0.1,0-0.1c0,0,0-0.1,0-0.1v-7c0-1.4-1.1-2.5-2.5-2.5h-4.8v-4.8c0-1.4-1.1-2.5-2.5-2.5H525V167c0,0,0-0.1,0-0.1
		c0,0,0-0.1,0-0.1v-7c0-1.4-1.1-2.5-2.5-2.5h-4.8v-4.8c0-1.4-1.1-2.5-2.5-2.5h-4.8v-4.8c0,0,0-0.1,0-0.1c0,0,0-0.1,0-0.1v-7
		c0,0,0-0.1,0-0.1c0,0,0-0.1,0-0.1v-7c0,0,0-0.1,0-0.1c0,0,0-0.1,0-0.1v-7c0,0,0-0.1,0-0.1c0,0,0-0.1,0-0.1v-7c0,0,0-0.1,0-0.1
		c0,0,0-0.1,0-0.1v-4.8h4.8c1.4,0,2.5-1.1,2.5-2.5v-7c0,0,0-0.1,0-0.1c0,0,0-0.1,0-0.1v-7c0,0,0-0.1,0-0.1c0,0,0-0.1,0-0.1v-7
		c0,0,0-0.1,0-0.1c0,0,0-0.1,0-0.1v-7c0-1.4-1.1-2.5-2.5-2.5h-7c0,0-0.1,0-0.1,0c0,0-0.1,0-0.1,0h-7c0,0-0.1,0-0.1,0
		c0,0-0.1,0-0.1,0h-7c0,0-0.1,0-0.1,0c0,0-0.1,0-0.1,0h-7c0,0-0.1,0-0.1,0c0,0-0.1,0-0.1,0h-7c0,0-0.1,0-0.1,0c0,0-0.1,0-0.1,0h-7
		c0,0-0.1,0-0.1,0c0,0-0.1,0-0.1,0h-4.8v-4.8c0-1.4-1.1-2.5-2.5-2.5h-7c0,0-0.1,0-0.1,0c0,0-0.1,0-0.1,0h-4.8v-4.8
		c0-1.4-1.1-2.5-2.5-2.5h-7c0,0-0.1,0-0.1,0c0,0-0.1,0-0.1,0h-4.8v-4.8c0-1.4-1.1-2.5-2.5-2.5h-7c0,0-0.1,0-0.1,0c0,0-0.1,0-0.1,0
		h-4.8v-4.8c0-1.4-1.1-2.5-2.5-2.5h-4.8v-4.8c0-1.4-1.1-2.5-2.5-2.5h-4.8v-4.8c0-1.4-1.1-2.5-2.5-2.5h-7c0,0-0.1,0-0.1,0
		c0,0-0.1,0-0.1,0h-7c-1.4,0-2.5,1.1-2.5,2.5v7c0,0,0,0.1,0,0.1c0,0,0,0.1,0,0.1v7c0,0,0,0.1,0,0.1c0,0,0,0.1,0,0.1v7
		c0,0,0,0.1,0,0.1c0,0,0,0.1,0,0.1v7c0,0,0,0.1,0,0.1c0,0,0,0.1,0,0.1v7c0,0,0,0.1,0,0.1c0,0,0,0.1,0,0.1v7c0,0,0,0.1,0,0.1
		c0,0,0,0.1,0,0.1v7c0,1.4,1.1,2.5,2.5,2.5h4.8v4.8c0,0,0,0.1,0,0.1c0,0,0,0.1,0,0.1v7c0,0,0,0.1,0,0.1c0,0,0,0.1,0,0.1v7
		c0,0,0,0.1,0,0.1c0,0,0,0.1,0,0.1v7c0,0,0,0.1,0,0.1c0,0,0,0.1,0,0.1v7c0,0,0,0.1,0,0.1c0,0,0,0.1,0,0.1v7c0,1.4,1.1,2.5,2.5,2.5
		h4.8v4.8c0,0,0,0.1,0,0.1c0,0,0,0.1,0,0.1v7c0,0,0,0.1,0,0.1c0,0,0,0.1,0,0.1v7c0,0,0,0.1,0,0.1c0,0,0,0.1,0,0.1v7c0,0,0,0.1,0,0.1
		c0,0,0,0.1,0,0.1v7c0,0,0,0.1,0,0.1c0,0,0,0.1,0,0.1v7c0,0,0,0.1,0,0.1c0,0,0,0.1,0,0.1v7c0,0,0,0.1,0,0.1c0,0,0,0.1,0,0.1v7
		c0,1.4,1.1,2.5,2.5,2.5h4.8v4.8c0,0,0,0.1,0,0.1c0,0,0,0.1,0,0.1v7c0,0,0,0.1,0,0.1c0,0,0,0.1,0,0.1v7c0,0,0,0.1,0,0.1
		c0,0,0,0.1,0,0.1v7c0,0,0,0.1,0,0.1c0,0,0,0.1,0,0.1v7c0,0,0,0.1,0,0.1c0,0,0,0.1,0,0.1v7c0,0,0,0.1,0,0.1c0,0,0,0.1,0,0.1v7
		c0,0,0,0.1,0,0.1c0,0,0,0.1,0,0.1v7c0,0,0,0.1,0,0.1c0,0,0,0.1,0,0.1v7c0,0,0,0.1,0,0.1c0,0,0,0.1,0,0.1v7c0,0,0,0.1,0,0.1
		c0,0,0,0.1,0,0.1v7c0,1.4,1.1,2.5,2.5,2.5h4.8v4.8c0,0,0,0.1,0,0.1c0,0,0,0.1,0,0.1v7c0,0,0,0.1,0,0.1c0,0,0,0.1,0,0.1v7
		c0,0,0,0.1,0,0.1c0,0,0,0.1,0,0.1v7c0,0,0,0.1,0,0.1c0,0,0,0.1,0,0.1v7c0,0,0,0.1,0,0.1c0,0,0,0.1,0,0.1v7c0,1.4,1.1,2.5,2.5,2.5
		h4.8v4.8c0,0,0,0.1,0,0.1c0,0,0,0.1,0,0.1v7c0,0,0,0.1,0,0.1c0,0,0,0.1,0,0.1v7c0,0,0,0.1,0,0.1c0,0,0,0.1,0,0.1v7c0,0,0,0.1,0,0.1
		c0,0,0,0.1,0,0.1v7c0,0,0,0.1,0,0.1c0,0,0,0.1,0,0.1v7c0,0,0,0.1,0,0.1c0,0,0,0.1,0,0.1v7c0,1.4,1.1,2.5,2.5,2.5h4.8v4.8
		c0,0,0,0.1,0,0.1c0,0,0,0.1,0,0.1v4.8h-4.8c-1.4,0-2.5,1.1-2.5,2.5v7c0,0,0,0.1,0,0.1c0,0,0,0.1,0,0.1v7c0,1.4,1.1,2.5,2.5,2.5h4.8
		v4.8c0,0,0,0.1,0,0.1c0,0,0,0.1,0,0.1v7c0,0,0,0.1,0,0.1c0,0,0,0.1,0,0.1v7c0,0,0,0.1,0,0.1c0,0,0,0.1,0,0.1v7c0,0,0,0.1,0,0.1
		c0,0,0,0.1,0,0.1v7c0,0,0,0.1,0,0.1c0,0,0,0.1,0,0.1v4.8h-4.8c0,0-0.1,0-0.1,0c0,0-0.1,0-0.1,0h-7c-1.4,0-2.5,1.1-2.5,2.5v7
		c0,0,0,0.1,0,0.1c0,0,0,0.1,0,0.1v4.8h-4.8c-1.4,0-2.5,1.1-2.5,2.5v4.8h-4.8c0,0-0.1,0-0.1,0c0,0-0.1,0-0.1,0h-7c0,0-0.1,0-0.1,0
		c0,0-0.1,0-0.1,0h-7c0,0-0.1,0-0.1,0c0,0-0.1,0-0.1,0h-7c-1.4,0-2.5,1.1-2.5,2.5v4.8h-4.8c0,0-0.1,0-0.1,0c0,0-0.1,0-0.1,0h-7
		c0,0-0.1,0-0.1,0c0,0-0.1,0-0.1,0h-7c-1.4,0-2.5,1.1-2.5,2.5v4.8h-4.8c0,0-0.1,0-0.1,0c0,0-0.1,0-0.1,0h-7c0,0-0.1,0-0.1,0
		c0,0-0.1,0-0.1,0h-4.8v-4.8c0,0,0-0.1,0-0.1c0,0,0-0.1,0-0.1v-7c0-1.4-1.1-2.5-2.5-2.5h-4.8v-4.8c0-1.4-1.1-2.5-2.5-2.5h-7
		c0,0-0.1,0-0.1,0c0,0-0.1,0-0.1,0h-7c0,0-0.1,0-0.1,0c0,0-0.1,0-0.1,0h-7c-1.4,0-2.5,1.1-2.5,2.5v4.8h-4.8c0,0-0.1,0-0.1,0
		c0,0-0.1,0-0.1,0h-7c0,0-0.1,0-0.1,0c0,0-0.1,0-0.1,0h-7c0,0-0.1,0-0.1,0c0,0-0.1,0-0.1,0h-7c0,0-0.1,0-0.1,0c0,0-0.1,0-0.1,0h-7
		c-1.4,0-2.5,1.1-2.5,2.5v4.8h-4.8c0,0-0.1,0-0.1,0c0,0-0.1,0-0.1,0h-7c0,0-0.1,0-0.1,0c0,0-0.1,0-0.1,0h-7c0,0-0.1,0-0.1,0
		c0,0-0.1,0-0.1,0h-7c0,0-0.1,0-0.1,0c0,0-0.1,0-0.1,0h-7c-1.4,0-2.5,1.1-2.5,2.5v4.8h-4.8c0,0-0.1,0-0.1,0c0,0-0.1,0-0.1,0h-7
		c0,0-0.1,0-0.1,0c0,0-0.1,0-0.1,0h-7c0,0-0.1,0-0.1,0c0,0-0.1,0-0.1,0h-7c0,0-0.1,0-0.1,0c0,0-0.1,0-0.1,0h-7
		c-1.4,0-2.5,1.1-2.5,2.5v4.8H196c0,0-0.1,0-0.1,0c0,0-0.1,0-0.1,0h-7c-1.4,0-2.5,1.1-2.5,2.5v4.8h-4.8c-1.4,0-2.5,1.1-2.5,2.5v7
		c0,0,0,0.1,0,0.1c0,0,0,0.1,0,0.1v7c0,0,0,0.1,0,0.1c0,0,0,0.1,0,0.1v7c0,0,0,0.1,0,0.1c0,0,0,0.1,0,0.1v4.8h-4.8
		c-1.4,0-2.5,1.1-2.5,2.5v7c0,0,0,0.1,0,0.1c0,0,0,0.1,0,0.1v7c0,0,0,0.1,0,0.1c0,0,0,0.1,0,0.1v4.8H167c-1.4,0-2.5,1.1-2.5,2.5v7
		c0,0,0,0.1,0,0.1c0,0,0,0.1,0,0.1v4.8h-4.8c-1.4,0-2.5,1.1-2.5,2.5v4.8h-4.8c-1.4,0-2.5,1.1-2.5,2.5v4.8h-4.8c0,0-0.1,0-0.1,0
		c0,0-0.1,0-0.1,0h-7c-1.4,0-2.5,1.1-2.5,2.5v4.8h-4.8c0,0-0.1,0-0.1,0c0,0-0.1,0-0.1,0h-7c0,0-0.1,0-0.1,0c0,0-0.1,0-0.1,0h-7
		c-1.4,0-2.5,1.1-2.5,2.5v4.8h-4.8c0,0-0.1,0-0.1,0c0,0-0.1,0-0.1,0h-7c-1.4,0-2.5,1.1-2.5,2.5v7c0,0,0,0.1,0,0.1c0,0,0,0.1,0,0.1v7
		c0,1.4,1.1,2.5,2.5,2.5h4.8v4.8c0,1.4,1.1,2.5,2.5,2.5h4.8v4.8c0,0,0,0.1,0,0.1c0,0,0,0.1,0,0.1v7c0,1.4,1.1,2.5,2.5,2.5h4.8v4.8
		c0,0,0,0.1,0,0.1c0,0,0,0.1,0,0.1v7c0,0,0,0.1,0,0.1c0,0,0,0.1,0,0.1v7c0,0,0,0.1,0,0.1c0,0,0,0.1,0,0.1v7c0,0,0,0.1,0,0.1
		c0,0,0,0.1,0,0.1v7c0,0,0,0.1,0,0.1c0,0,0,0.1,0,0.1v7c0,0,0,0.1,0,0.1c0,0,0,0.1,0,0.1v7c0,0,0,0.1,0,0.1c0,0,0,0.1,0,0.1v7
		c0,0,0,0.1,0,0.1c0,0,0,0.1,0,0.1v7c0,0,0,0.1,0,0.1c0,0,0,0.1,0,0.1v7c0,0,0,0.1,0,0.1c0,0,0,0.1,0,0.1v7c0,0,0,0.1,0,0.1
		c0,0,0,0.1,0,0.1v7c0,0,0,0.1,0,0.1c0,0,0,0.1,0,0.1v7c0,1.4,1.1,2.5,2.5,2.5h7c0,0,0.1,0,0.1,0c0,0,0.1,0,0.1,0h7
		c1.4,0,2.5-1.1,2.5-2.5v-4.8h4.8c1.4,0,2.5-1.1,2.5-2.5v-4.8h4.8c1.4,0,2.5-1.1,2.5-2.5v-4.8h4.8c1.4,0,2.5-1.1,2.5-2.5v-4.8h4.8
		c0,0,0.1,0,0.1,0c0,0,0.1,0,0.1,0h7c1.4,0,2.5-1.1,2.5-2.5v-4.8h4.8c1.4,0,2.5-1.1,2.5-2.5v-4.8h4.8c1.4,0,2.5-1.1,2.5-2.5v-4.8
		h4.8c1.4,0,2.5-1.1,2.5-2.5v-4.8h4.8c1.4,0,2.5-1.1,2.5-2.5v-4.8h4.8c0,0,0.1,0,0.1,0c0,0,0.1,0,0.1,0h7c1.4,0,2.5-1.1,2.5-2.5
		v-4.8h4.8c1.4,0,2.5-1.1,2.5-2.5v-4.8h4.8c1.4,0,2.5-1.1,2.5-2.5v-4.8h4.8c1.4,0,2.5-1.1,2.5-2.5v-4.8h4.8c0,0,0.1,0,0.1,0
		c0,0,0.1,0,0.1,0h7c1.4,0,2.5-1.1,2.5-2.5v-4.8h4.8c1.4,0,2.5-1.1,2.5-2.5v-4.8h4.8c0,0,0.1,0,0.1,0c0,0,0.1,0,0.1,0h7
		c1.4,0,2.5-1.1,2.5-2.5v-4.8h4.8c1.4,0,2.5-1.1,2.5-2.5v-4.8h4.8c1.4,0,2.5-1.1,2.5-2.5V583h4.8c1.4,0,2.5-1.1,2.5-2.5v-4.8h4.8
		c0,0,0.1,0,0.1,0c0,0,0.1,0,0.1,0h7c1.4,0,2.5-1.1,2.5-2.5v-4.8h4.8c1.4,0,2.5-1.1,2.5-2.5v-4.8h4.8c1.4,0,2.5-1.1,2.5-2.5V554h4.8
		c1.4,0,2.5-1.1,2.5-2.5v-4.8h4.8c1.4,0,2.5-1.1,2.5-2.5v-4.8h4.8c0,0,0.1,0,0.1,0c0,0,0.1,0,0.1,0h7c1.4,0,2.5-1.1,2.5-2.5v-4.8
		h4.8c1.4,0,2.5-1.1,2.5-2.5V525h4.8c1.4,0,2.5-1.1,2.5-2.5v-4.8h4.8c1.4,0,2.5-1.1,2.5-2.5v-4.8h4.8c0,0,0.1,0,0.1,0
		c0,0,0.1,0,0.1,0h7c1.4,0,2.5-1.1,2.5-2.5v-4.8h4.8c1.4,0,2.5-1.1,2.5-2.5v-4.8h4.8c1.4,0,2.5-1.1,2.5-2.5v-4.8h4.8
		c1.4,0,2.5-1.1,2.5-2.5v-4.8h4.8c1.4,0,2.5-1.1,2.5-2.5v-4.8h2.5v4.8c0,1.4,1.1,2.5,2.5,2.5h7c0,0,0.1,0,0.1,0c0,0,0.1,0,0.1,0h7
		c0,0,0.1,0,0.1,0c0,0,0.1,0,0.1,0h7c0,0,0.1,0,0.1,0c0,0,0.1,0,0.1,0h7c0,0,0.1,0,0.1,0c0,0,0.1,0,0.1,0h4.8v4.8
		c0,1.4,1.1,2.5,2.5,2.5h4.8v4.8c0,1.4,1.1,2.5,2.5,2.5h4.8v4.8c0,1.4,1.1,2.5,2.5,2.5h4.8v4.8c0,1.4,1.1,2.5,2.5,2.5h4.8v4.8
		c0,1.4,1.1,2.5,2.5,2.5h7c0,0,0.1,0,0.1,0c0,0,0.1,0,0.1,0h4.8v4.8c0,1.4,1.1,2.5,2.5,2.5h7c0,0,0.1,0,0.1,0c0,0,0.1,0,0.1,0h4.8
		v2.5h-4.8c-1.4,0-2.5,1.1-2.5,2.5v4.8h-4.8c-1.4,0-2.5,1.1-2.5,2.5v7c0,0,0,0.1,0,0.1c0,0,0,0.1,0,0.1v7c0,0,0,0.1,0,0.1
		c0,0,0,0.1,0,0.1v7c0,1.4,1.1,2.5,2.5,2.5h4.8v4.8c0,1.4,1.1,2.5,2.5,2.5h7c0,0,0.1,0,0.1,0c0,0,0.1,0,0.1,0h4.8v4.8
		c0,0,0,0.1,0,0.1c0,0,0,0.1,0,0.1v7c0,1.4,1.1,2.5,2.5,2.5h7c0,0,0.1,0,0.1,0c0,0,0.1,0,0.1,0h4.8v4.8c0,1.4,1.1,2.5,2.5,2.5h4.8
		v4.8c0,1.4,1.1,2.5,2.5,2.5h4.8v4.8c0,1.4,1.1,2.5,2.5,2.5h4.8v4.8c0,1.4,1.1,2.5,2.5,2.5h4.8v4.8c0,1.4,1.1,2.5,2.5,2.5h4.8v4.8
		c0,1.4,1.1,2.5,2.5,2.5h4.8v4.8c0,1.4,1.1,2.5,2.5,2.5h4.8v4.8c0,1.4,1.1,2.5,2.5,2.5h7c0,0,0.1,0,0.1,0c0,0,0.1,0,0.1,0h4.8v4.8
		c0,1.4,1.1,2.5,2.5,2.5h4.8v4.8c0,1.4,1.1,2.5,2.5,2.5h7c0,0,0.1,0,0.1,0c0,0,0.1,0,0.1,0h7c1.4,0,2.5-1.1,2.5-2.5v-4.8h4.8
		c0,0,0.1,0,0.1,0c0,0,0.1,0,0.1,0h7c0,0,0.1,0,0.1,0c0,0,0.1,0,0.1,0h7c1.4,0,2.5-1.1,2.5-2.5v-4.8h4.8c0,0,0.1,0,0.1,0
		c0,0,0.1,0,0.1,0h7c0,0,0.1,0,0.1,0c0,0,0.1,0,0.1,0h7c1.4,0,2.5-1.1,2.5-2.5v-4.8h4.8c0,0,0.1,0,0.1,0c0,0,0.1,0,0.1,0h7
		c0,0,0.1,0,0.1,0c0,0,0.1,0,0.1,0h7c0,0,0.1,0,0.1,0c0,0,0.1,0,0.1,0h7c0,0,0.1,0,0.1,0c0,0,0.1,0,0.1,0h4.8v4.8
		c0,1.4,1.1,2.5,2.5,2.5h4.8v4.8c0,1.4,1.1,2.5,2.5,2.5h7c0,0,0.1,0,0.1,0c0,0,0.1,0,0.1,0h4.8v4.8c0,1.4,1.1,2.5,2.5,2.5h7
		c0,0,0.1,0,0.1,0c0,0,0.1,0,0.1,0h4.8v4.8c0,1.4,1.1,2.5,2.5,2.5h7c1.4,0,2.5-1.1,2.5-2.5v-7c0,0,0-0.1,0-0.1c0,0,0-0.1,0-0.1v-4.8
		h4.8c1.4,0,2.5-1.1,2.5-2.5v-7c0,0,0-0.1,0-0.1c0,0,0-0.1,0-0.1v-4.8h4.8c1.4,0,2.5-1.1,2.5-2.5v-4.8h4.8c1.4,0,2.5-1.1,2.5-2.5
		v-4.8h4.8c1.4,0,2.5-1.1,2.5-2.5v-4.8h4.8c1.4,0,2.5-1.1,2.5-2.5v-4.8h4.8c0,0,0.1,0,0.1,0c0,0,0.1,0,0.1,0h7
		c1.4,0,2.5-1.1,2.5-2.5v-7c0,0,0-0.1,0-0.1c0,0,0-0.1,0-0.1v-4.8h4.8c0,0,0.1,0,0.1,0c0,0,0.1,0,0.1,0h7c1.4,0,2.5-1.1,2.5-2.5V583
		h4.8c1.4,0,2.5-1.1,2.5-2.5v-4.8h4.8c0,0,0.1,0,0.1,0c0,0,0.1,0,0.1,0h7c1.4,0,2.5-1.1,2.5-2.5v-7c0,0,0-0.1,0-0.1c0,0,0-0.1,0-0.1
		V559z"/>
</g>
<g id="Слой_1" xmlns:ev="http://www.w3.org/2001/xml-events">
	<path class="st1" d="M392,36.3h7v7h-7V36.3z M399.3,36.3h7v7h-7V36.3z M392,43.6h7v7h-7V43.6z M399.3,43.6h7v7h-7V43.6z
		 M406.6,43.6h7v7h-7V43.6z M392,50.8h7v7h-7V50.8z M399.3,50.8h7v7h-7V50.8z M406.6,50.8h7v7h-7V50.8z M413.8,50.8h7v7h-7V50.8z
		 M392,58.1h7v7h-7V58.1z M399.3,58.1h7v7h-7V58.1z M413.8,58.1h7v7h-7V58.1z M421.1,58.1h7v7h-7V58.1z M428.3,58.1h7v7h-7V58.1z
		 M392,65.3h7v7h-7V65.3z M399.3,65.3h7v7h-7V65.3z M421.1,65.3h7v7h-7V65.3z M428.3,65.3h7v7h-7V65.3z M435.6,65.3h7v7h-7V65.3z
		 M442.9,65.3h7v7h-7V65.3z M392,72.6h7v7h-7V72.6z M399.3,72.6h7v7h-7V72.6z M428.3,72.6h7v7h-7V72.6z M435.6,72.6h7v7h-7V72.6z
		 M442.9,72.6h7v7h-7V72.6z M450.1,72.6h7v7h-7V72.6z M457.4,72.6h7v7h-7V72.6z M392,79.9h7v7h-7V79.9z M399.3,79.9h7v7h-7V79.9z
		 M406.6,79.9h7v7h-7V79.9z M442.9,79.9h7v7h-7V79.9z M450.1,79.9h7v7h-7V79.9z M457.4,79.9h7v7h-7V79.9z M464.6,79.9h7v7h-7V79.9z
		 M471.9,79.9h7v7h-7V79.9z M479.2,79.9h7v7h-7V79.9z M486.4,79.9h7v7h-7V79.9z M493.7,79.9h7v7h-7V79.9z M500.9,79.9h7v7h-7V79.9z
		 M508.2,79.9h7v7h-7V79.9z M399.3,87.1h7v7h-7V87.1z M406.6,87.1h7v7h-7V87.1z M457.4,87.1h7v7h-7V87.1z M464.6,87.1h7v7h-7V87.1z
		 M471.9,87.1h7v7h-7V87.1z M479.2,87.1h7v7h-7V87.1z M486.4,87.1h7v7h-7V87.1z M493.7,87.1h7v7h-7V87.1z M500.9,87.1h7v7h-7V87.1z
		 M508.2,87.1h7v7h-7V87.1z M399.3,94.4h7v7h-7V94.4z M406.6,94.4h7v7h-7V94.4z M457.4,94.4h7v7h-7V94.4z M508.2,94.4h7v7h-7V94.4z
		 M399.3,101.6h7v7h-7V101.6z M406.6,101.6h7v7h-7V101.6z M457.4,101.6h7v7h-7V101.6z M500.9,101.6h7v7h-7V101.6z M508.2,101.6h7v7
		h-7V101.6z M399.3,108.9h7v7h-7V108.9z M406.6,108.9h7v7h-7V108.9z M450.1,108.9h7v7h-7V108.9z M457.4,108.9h7v7h-7V108.9z
		 M500.9,108.9h7v7h-7V108.9z M399.3,116.2h7v7h-7V116.2z M406.6,116.2h7v7h-7V116.2z M413.8,116.2h7v7h-7V116.2z M421.1,116.2h7v7
		h-7V116.2z M428.3,116.2h7v7h-7V116.2z M450.1,116.2h7v7h-7V116.2z M457.4,116.2h7v7h-7V116.2z M500.9,116.2h7v7h-7V116.2z
		 M399.3,123.4h7v7h-7V123.4z M406.6,123.4h7v7h-7V123.4z M413.8,123.4h7v7h-7V123.4z M428.3,123.4h7v7h-7V123.4z M435.6,123.4h7v7
		h-7V123.4z M450.1,123.4h7v7h-7V123.4z M457.4,123.4h7v7h-7V123.4z M500.9,123.4h7v7h-7V123.4z M406.6,130.7h7v7h-7V130.7z
		 M413.8,130.7h7v7h-7V130.7z M442.9,130.7h7v7h-7V130.7z M450.1,130.7h7v7h-7V130.7z M457.4,130.7h7v7h-7V130.7z M500.9,130.7h7v7
		h-7V130.7z M406.6,137.9h7v7h-7V137.9z M413.8,137.9h7v7h-7V137.9z M450.1,137.9h7v7h-7V137.9z M457.4,137.9h7v7h-7V137.9z
		 M464.6,137.9h7v7h-7V137.9z M471.9,137.9h7v7h-7V137.9z M479.2,137.9h7v7h-7V137.9z M486.4,137.9h7v7h-7V137.9z M493.7,137.9h7v7
		h-7V137.9z M500.9,137.9h7v7h-7V137.9z M406.6,145.2h7v7h-7V145.2z M413.8,145.2h7v7h-7V145.2z M450.1,145.2h7v7h-7V145.2z
		 M457.4,145.2h7v7h-7V145.2z M486.4,145.2h7v7h-7V145.2z M493.7,145.2h7v7h-7V145.2z M500.9,145.2h7v7h-7V145.2z M406.6,152.5h7v7
		h-7V152.5z M413.8,152.5h7v7h-7V152.5z M450.1,152.5h7v7h-7V152.5z M493.7,152.5h7v7h-7V152.5z M500.9,152.5h7v7h-7V152.5z
		 M508.2,152.5h7v7h-7V152.5z M406.6,159.7h7v7h-7V159.7z M413.8,159.7h7v7h-7V159.7z M450.1,159.7h7v7h-7V159.7z M493.7,159.7h7v7
		h-7V159.7z M500.9,159.7h7v7h-7V159.7z M508.2,159.7h7v7h-7V159.7z M515.5,159.7h7v7h-7V159.7z M406.6,167h7v7h-7V167z M413.8,167
		h7v7h-7V167z M421.1,167h7v7h-7V167z M450.1,167h7v7h-7V167z M493.7,167h7v7h-7V167z M515.5,167h7v7h-7V167z M406.6,174.2h7v7h-7
		V174.2z M413.8,174.2h7v7h-7V174.2z M421.1,174.2h7v7h-7V174.2z M450.1,174.2h7v7h-7V174.2z M493.7,174.2h7v7h-7V174.2z
		 M515.5,174.2h7v7h-7V174.2z M522.7,174.2h7v7h-7V174.2z M406.6,181.5h7v7h-7V181.5z M413.8,181.5h7v7h-7V181.5z M421.1,181.5h7v7
		h-7V181.5z M450.1,181.5h7v7h-7V181.5z M493.7,181.5h7v7h-7V181.5z M522.7,181.5h7v7h-7V181.5z M530,181.5h7v7h-7V181.5z
		 M413.8,188.8h7v7h-7V188.8z M421.1,188.8h7v7h-7V188.8z M428.3,188.8h7v7h-7V188.8z M435.6,188.8h7v7h-7V188.8z M450.1,188.8h7v7
		h-7V188.8z M493.7,188.8h7v7h-7V188.8z M530,188.8h7v7h-7V188.8z M413.8,196h7v7h-7V196z M421.1,196h7v7h-7V196z M435.6,196h7v7h-7
		V196z M442.9,196h7v7h-7V196z M450.1,196h7v7h-7V196z M486.4,196h7v7h-7V196z M493.7,196h7v7h-7V196z M530,196h7v7h-7V196z
		 M537.2,196h7v7h-7V196z M544.5,196h7v7h-7V196z M413.8,203.3h7v7h-7V203.3z M421.1,203.3h7v7h-7V203.3z M450.1,203.3h7v7h-7V203.3
		z M457.4,203.3h7v7h-7V203.3z M464.6,203.3h7v7h-7V203.3z M471.9,203.3h7v7h-7V203.3z M479.2,203.3h7v7h-7V203.3z M486.4,203.3h7v7
		h-7V203.3z M493.7,203.3h7v7h-7V203.3z M522.7,203.3h7v7h-7V203.3z M544.5,203.3h7v7h-7V203.3z M551.8,203.3h7v7h-7V203.3z
		 M413.8,210.5h7v7h-7V210.5z M421.1,210.5h7v7h-7V210.5z M450.1,210.5h7v7h-7V210.5z M486.4,210.5h7v7h-7V210.5z M493.7,210.5h7v7
		h-7V210.5z M522.7,210.5h7v7h-7V210.5z M544.5,210.5h7v7h-7V210.5z M551.8,210.5h7v7h-7V210.5z M413.8,217.8h7v7h-7V217.8z
		 M421.1,217.8h7v7h-7V217.8z M450.1,217.8h7v7h-7V217.8z M486.4,217.8h7v7h-7V217.8z M493.7,217.8h7v7h-7V217.8z M522.7,217.8h7v7
		h-7V217.8z M544.5,217.8h7v7h-7V217.8z M413.8,225.1h7v7h-7V225.1z M421.1,225.1h7v7h-7V225.1z M450.1,225.1h7v7h-7V225.1z
		 M486.4,225.1h7v7h-7V225.1z M493.7,225.1h7v7h-7V225.1z M522.7,225.1h7v7h-7V225.1z M544.5,225.1h7v7h-7V225.1z M413.8,232.3h7v7
		h-7V232.3z M421.1,232.3h7v7h-7V232.3z M450.1,232.3h7v7h-7V232.3z M486.4,232.3h7v7h-7V232.3z M515.5,232.3h7v7h-7V232.3z
		 M522.7,232.3h7v7h-7V232.3z M537.2,232.3h7v7h-7V232.3z M544.5,232.3h7v7h-7V232.3z M413.8,239.6h7v7h-7V239.6z M421.1,239.6h7v7
		h-7V239.6z M442.9,239.6h7v7h-7V239.6z M450.1,239.6h7v7h-7V239.6z M479.2,239.6h7v7h-7V239.6z M486.4,239.6h7v7h-7V239.6z
		 M515.5,239.6h7v7h-7V239.6z M537.2,239.6h7v7h-7V239.6z M544.5,239.6h7v7h-7V239.6z M413.8,246.8h7v7h-7V246.8z M421.1,246.8h7v7
		h-7V246.8z M442.9,246.8h7v7h-7V246.8z M450.1,246.8h7v7h-7V246.8z M479.2,246.8h7v7h-7V246.8z M486.4,246.8h7v7h-7V246.8z
		 M493.7,246.8h7v7h-7V246.8z M515.5,246.8h7v7h-7V246.8z M537.2,246.8h7v7h-7V246.8z M413.8,254.1h7v7h-7V254.1z M421.1,254.1h7v7
		h-7V254.1z M428.3,254.1h7v7h-7V254.1z M442.9,254.1h7v7h-7V254.1z M479.2,254.1h7v7h-7V254.1z M486.4,254.1h7v7h-7V254.1z
		 M493.7,254.1h7v7h-7V254.1z M500.9,254.1h7v7h-7V254.1z M508.2,254.1h7v7h-7V254.1z M515.5,254.1h7v7h-7V254.1z M530,254.1h7v7h-7
		V254.1z M537.2,254.1h7v7h-7V254.1z M413.8,261.4h7v7h-7V261.4z M421.1,261.4h7v7h-7V261.4z M428.3,261.4h7v7h-7V261.4z
		 M442.9,261.4h7v7h-7V261.4z M479.2,261.4h7v7h-7V261.4z M486.4,261.4h7v7h-7V261.4z M508.2,261.4h7v7h-7V261.4z M515.5,261.4h7v7
		h-7V261.4z M530,261.4h7v7h-7V261.4z M537.2,261.4h7v7h-7V261.4z M421.1,268.6h7v7h-7V268.6z M428.3,268.6h7v7h-7V268.6z
		 M442.9,268.6h7v7h-7V268.6z M479.2,268.6h7v7h-7V268.6z M486.4,268.6h7v7h-7V268.6z M508.2,268.6h7v7h-7V268.6z M522.7,268.6h7v7
		h-7V268.6z M530,268.6h7v7h-7V268.6z M421.1,275.9h7v7h-7V275.9z M428.3,275.9h7v7h-7V275.9z M435.6,275.9h7v7h-7V275.9z
		 M442.9,275.9h7v7h-7V275.9z M479.2,275.9h7v7h-7V275.9z M486.4,275.9h7v7h-7V275.9z M500.9,275.9h7v7h-7V275.9z M522.7,275.9h7v7
		h-7V275.9z M530,275.9h7v7h-7V275.9z M421.1,283.1h7v7h-7V283.1z M428.3,283.1h7v7h-7V283.1z M435.6,283.1h7v7h-7V283.1z
		 M442.9,283.1h7v7h-7V283.1z M450.1,283.1h7v7h-7V283.1z M457.4,283.1h7v7h-7V283.1z M464.6,283.1h7v7h-7V283.1z M471.9,283.1h7v7
		h-7V283.1z M479.2,283.1h7v7h-7V283.1z M486.4,283.1h7v7h-7V283.1z M500.9,283.1h7v7h-7V283.1z M522.7,283.1h7v7h-7V283.1z
		 M530,283.1h7v7h-7V283.1z M421.1,290.4h7v7h-7V290.4z M428.3,290.4h7v7h-7V290.4z M435.6,290.4h7v7h-7V290.4z M457.4,290.4h7v7h-7
		V290.4z M464.6,290.4h7v7h-7V290.4z M471.9,290.4h7v7h-7V290.4z M479.2,290.4h7v7h-7V290.4z M500.9,290.4h7v7h-7V290.4z
		 M515.5,290.4h7v7h-7V290.4z M522.7,290.4h7v7h-7V290.4z M421.1,297.7h7v7h-7V297.7z M428.3,297.7h7v7h-7V297.7z M435.6,297.7h7v7
		h-7V297.7z M471.9,297.7h7v7h-7V297.7z M479.2,297.7h7v7h-7V297.7z M493.7,297.7h7v7h-7V297.7z M515.5,297.7h7v7h-7V297.7z
		 M522.7,297.7h7v7h-7V297.7z M421.1,304.9h7v7h-7V304.9z M428.3,304.9h7v7h-7V304.9z M435.6,304.9h7v7h-7V304.9z M471.9,304.9h7v7
		h-7V304.9z M479.2,304.9h7v7h-7V304.9z M493.7,304.9h7v7h-7V304.9z M515.5,304.9h7v7h-7V304.9z M522.7,304.9h7v7h-7V304.9z
		 M428.3,312.2h7v7h-7V312.2z M435.6,312.2h7v7h-7V312.2z M471.9,312.2h7v7h-7V312.2z M479.2,312.2h7v7h-7V312.2z M493.7,312.2h7v7
		h-7V312.2z M508.2,312.2h7v7h-7V312.2z M515.5,312.2h7v7h-7V312.2z M428.3,319.4h7v7h-7V319.4z M435.6,319.4h7v7h-7V319.4z
		 M471.9,319.4h7v7h-7V319.4z M486.4,319.4h7v7h-7V319.4z M508.2,319.4h7v7h-7V319.4z M515.5,319.4h7v7h-7V319.4z M428.3,326.7h7v7
		h-7V326.7z M435.6,326.7h7v7h-7V326.7z M471.9,326.7h7v7h-7V326.7z M479.2,326.7h7v7h-7V326.7z M486.4,326.7h7v7h-7V326.7z
		 M508.2,326.7h7v7h-7V326.7z M428.3,334h7v7h-7V334z M435.6,334h7v7h-7V334z M471.9,334h7v7h-7V334z M479.2,334h7v7h-7V334z
		 M486.4,334h7v7h-7V334z M500.9,334h7v7h-7V334z M508.2,334h7v7h-7V334z M428.3,341.2h7v7h-7V341.2z M435.6,341.2h7v7h-7V341.2z
		 M464.6,341.2h7v7h-7V341.2z M471.9,341.2h7v7h-7V341.2z M479.2,341.2h7v7h-7V341.2z M486.4,341.2h7v7h-7V341.2z M493.7,341.2h7v7
		h-7V341.2z M500.9,341.2h7v7h-7V341.2z M508.2,341.2h7v7h-7V341.2z M428.3,348.5h7v7h-7V348.5z M435.6,348.5h7v7h-7V348.5z
		 M464.6,348.5h7v7h-7V348.5z M471.9,348.5h7v7h-7V348.5z M479.2,348.5h7v7h-7V348.5z M486.4,348.5h7v7h-7V348.5z M493.7,348.5h7v7
		h-7V348.5z M500.9,348.5h7v7h-7V348.5z M428.3,355.7h7v7h-7V355.7z M435.6,355.7h7v7h-7V355.7z M464.6,355.7h7v7h-7V355.7z
		 M471.9,355.7h7v7h-7V355.7z M435.6,363h7v7h-7V363z M442.9,363h7v7h-7V363z M464.6,363h7v7h-7V363z M471.9,363h7v7h-7V363z
		 M435.6,370.3h7v7h-7V370.3z M442.9,370.3h7v7h-7V370.3z M457.4,370.3h7v7h-7V370.3z M464.6,370.3h7v7h-7V370.3z M471.9,370.3h7v7
		h-7V370.3z M428.3,377.5h7v7h-7V377.5z M435.6,377.5h7v7h-7V377.5z M442.9,377.5h7v7h-7V377.5z M457.4,377.5h7v7h-7V377.5z
		 M464.6,377.5h7v7h-7V377.5z M471.9,377.5h7v7h-7V377.5z M428.3,384.8h7v7h-7V384.8z M435.6,384.8h7v7h-7V384.8z M442.9,384.8h7v7
		h-7V384.8z M450.1,384.8h7v7h-7V384.8z M457.4,384.8h7v7h-7V384.8z M464.6,384.8h7v7h-7V384.8z M435.6,392h7v7h-7V392z M442.9,392
		h7v7h-7V392z M450.1,392h7v7h-7V392z M457.4,392h7v7h-7V392z M464.6,392h7v7h-7V392z M435.6,399.3h7v7h-7V399.3z M442.9,399.3h7v7
		h-7V399.3z M450.1,399.3h7v7h-7V399.3z M457.4,399.3h7v7h-7V399.3z M464.6,399.3h7v7h-7V399.3z M435.6,406.6h7v7h-7V406.6z
		 M442.9,406.6h7v7h-7V406.6z M450.1,406.6h7v7h-7V406.6z M457.4,406.6h7v7h-7V406.6z M435.6,413.8h7v7h-7V413.8z M442.9,413.8h7v7
		h-7V413.8z M450.1,413.8h7v7h-7V413.8z M435.6,421.1h7v7h-7V421.1z M442.9,421.1h7v7h-7V421.1z M450.1,421.1h7v7h-7V421.1z
		 M435.6,428.3h7v7h-7V428.3z M442.9,428.3h7v7h-7V428.3z M450.1,428.3h7v7h-7V428.3z M421.1,435.6h7v7h-7V435.6z M428.3,435.6h7v7
		h-7V435.6z M435.6,435.6h7v7h-7V435.6z M442.9,435.6h7v7h-7V435.6z M450.1,435.6h7v7h-7V435.6z M457.4,435.6h7v7h-7V435.6z
		 M421.1,442.9h7v7h-7V442.9z M450.1,442.9h7v7h-7V442.9z M457.4,442.9h7v7h-7V442.9z M312.2,450.1h7v7h-7V450.1z M319.4,450.1h7v7
		h-7V450.1z M326.7,450.1h7v7h-7V450.1z M413.8,450.1h7v7h-7V450.1z M421.1,450.1h7v7h-7V450.1z M457.4,450.1h7v7h-7V450.1z
		 M464.6,450.1h7v7h-7V450.1z M275.9,457.4h7v7h-7V457.4z M283.1,457.4h7v7h-7V457.4z M290.4,457.4h7v7h-7V457.4z M297.7,457.4h7v7
		h-7V457.4z M304.9,457.4h7v7h-7V457.4z M312.2,457.4h7v7h-7V457.4z M319.4,457.4h7v7h-7V457.4z M326.7,457.4h7v7h-7V457.4z
		 M334,457.4h7v7h-7V457.4z M384.8,457.4h7v7h-7V457.4z M392,457.4h7v7h-7V457.4z M399.3,457.4h7v7h-7V457.4z M406.6,457.4h7v7h-7
		V457.4z M413.8,457.4h7v7h-7V457.4z M421.1,457.4h7v7h-7V457.4z M457.4,457.4h7v7h-7V457.4z M464.6,457.4h7v7h-7V457.4z
		 M471.9,457.4h7v7h-7V457.4z M479.2,457.4h7v7h-7V457.4z M486.4,457.4h7v7h-7V457.4z M239.6,464.6h7v7h-7V464.6z M246.8,464.6h7v7
		h-7V464.6z M254.1,464.6h7v7h-7V464.6z M261.4,464.6h7v7h-7V464.6z M268.6,464.6h7v7h-7V464.6z M275.9,464.6h7v7h-7V464.6z
		 M283.1,464.6h7v7h-7V464.6z M290.4,464.6h7v7h-7V464.6z M326.7,464.6h7v7h-7V464.6z M334,464.6h7v7h-7V464.6z M363,464.6h7v7h-7
		V464.6z M370.3,464.6h7v7h-7V464.6z M377.5,464.6h7v7h-7V464.6z M384.8,464.6h7v7h-7V464.6z M392,464.6h7v7h-7V464.6z M399.3,464.6
		h7v7h-7V464.6z M406.6,464.6h7v7h-7V464.6z M413.8,464.6h7v7h-7V464.6z M421.1,464.6h7v7h-7V464.6z M428.3,464.6h7v7h-7V464.6z
		 M435.6,464.6h7v7h-7V464.6z M442.9,464.6h7v7h-7V464.6z M450.1,464.6h7v7h-7V464.6z M457.4,464.6h7v7h-7V464.6z M464.6,464.6h7v7
		h-7V464.6z M471.9,464.6h7v7h-7V464.6z M479.2,464.6h7v7h-7V464.6z M486.4,464.6h7v7h-7V464.6z M493.7,464.6h7v7h-7V464.6z
		 M500.9,464.6h7v7h-7V464.6z M203.3,471.9h7v7h-7V471.9z M210.5,471.9h7v7h-7V471.9z M217.8,471.9h7v7h-7V471.9z M225.1,471.9h7v7
		h-7V471.9z M232.3,471.9h7v7h-7V471.9z M239.6,471.9h7v7h-7V471.9z M246.8,471.9h7v7h-7V471.9z M254.1,471.9h7v7h-7V471.9z
		 M319.4,471.9h7v7h-7V471.9z M326.7,471.9h7v7h-7V471.9z M334,471.9h7v7h-7V471.9z M341.2,471.9h7v7h-7V471.9z M348.5,471.9h7v7h-7
		V471.9z M355.7,471.9h7v7h-7V471.9z M363,471.9h7v7h-7V471.9z M370.3,471.9h7v7h-7V471.9z M377.5,471.9h7v7h-7V471.9z M384.8,471.9
		h7v7h-7V471.9z M399.3,471.9h7v7h-7V471.9z M406.6,471.9h7v7h-7V471.9z M413.8,471.9h7v7h-7V471.9z M428.3,471.9h7v7h-7V471.9z
		 M435.6,471.9h7v7h-7V471.9z M442.9,471.9h7v7h-7V471.9z M450.1,471.9h7v7h-7V471.9z M457.4,471.9h7v7h-7V471.9z M464.6,471.9h7v7
		h-7V471.9z M471.9,471.9h7v7h-7V471.9z M479.2,471.9h7v7h-7V471.9z M486.4,471.9h7v7h-7V471.9z M493.7,471.9h7v7h-7V471.9z
		 M500.9,471.9h7v7h-7V471.9z M508.2,471.9h7v7h-7V471.9z M515.5,471.9h7v7h-7V471.9z M522.7,471.9h7v7h-7V471.9z M188.8,479.2h7v7
		h-7V479.2z M196,479.2h7v7h-7V479.2z M203.3,479.2h7v7h-7V479.2z M210.5,479.2h7v7h-7V479.2z M254.1,479.2h7v7h-7V479.2z
		 M283.1,479.2h7v7h-7V479.2z M290.4,479.2h7v7h-7V479.2z M297.7,479.2h7v7h-7V479.2z M304.9,479.2h7v7h-7V479.2z M312.2,479.2h7v7
		h-7V479.2z M326.7,479.2h7v7h-7V479.2z M334,479.2h7v7h-7V479.2z M341.2,479.2h7v7h-7V479.2z M348.5,479.2h7v7h-7V479.2z
		 M355.7,479.2h7v7h-7V479.2z M392,479.2h7v7h-7V479.2z M399.3,479.2h7v7h-7V479.2z M406.6,479.2h7v7h-7V479.2z M464.6,479.2h7v7h-7
		V479.2z M471.9,479.2h7v7h-7V479.2z M479.2,479.2h7v7h-7V479.2z M486.4,479.2h7v7h-7V479.2z M493.7,479.2h7v7h-7V479.2z
		 M500.9,479.2h7v7h-7V479.2z M508.2,479.2h7v7h-7V479.2z M515.5,479.2h7v7h-7V479.2z M522.7,479.2h7v7h-7V479.2z M530,479.2h7v7h-7
		V479.2z M537.2,479.2h7v7h-7V479.2z M544.5,479.2h7v7h-7V479.2z M181.5,486.4h7v7h-7V486.4z M188.8,486.4h7v7h-7V486.4z
		 M246.8,486.4h7v7h-7V486.4z M254.1,486.4h7v7h-7V486.4z M261.4,486.4h7v7h-7V486.4z M268.6,486.4h7v7h-7V486.4z M275.9,486.4h7v7
		h-7V486.4z M312.2,486.4h7v7h-7V486.4z M319.4,486.4h7v7h-7V486.4z M326.7,486.4h7v7h-7V486.4z M334,486.4h7v7h-7V486.4z
		 M384.8,486.4h7v7h-7V486.4z M392,486.4h7v7h-7V486.4z M399.3,486.4h7v7h-7V486.4z M471.9,486.4h7v7h-7V486.4z M479.2,486.4h7v7h-7
		V486.4z M486.4,486.4h7v7h-7V486.4z M493.7,486.4h7v7h-7V486.4z M522.7,486.4h7v7h-7V486.4z M530,486.4h7v7h-7V486.4z M537.2,486.4
		h7v7h-7V486.4z M544.5,486.4h7v7h-7V486.4z M551.8,486.4h7v7h-7V486.4z M559,486.4h7v7h-7V486.4z M566.3,486.4h7v7h-7V486.4z
		 M181.5,493.7h7v7h-7V493.7z M217.8,493.7h7v7h-7V493.7z M225.1,493.7h7v7h-7V493.7z M232.3,493.7h7v7h-7V493.7z M239.6,493.7h7v7
		h-7V493.7z M246.8,493.7h7v7h-7V493.7z M254.1,493.7h7v7h-7V493.7z M297.7,493.7h7v7h-7V493.7z M304.9,493.7h7v7h-7V493.7z
		 M312.2,493.7h7v7h-7V493.7z M319.4,493.7h7v7h-7V493.7z M377.5,493.7h7v7h-7V493.7z M384.8,493.7h7v7h-7V493.7z M392,493.7h7v7h-7
		V493.7z M479.2,493.7h7v7h-7V493.7z M486.4,493.7h7v7h-7V493.7z M493.7,493.7h7v7h-7V493.7z M500.9,493.7h7v7h-7V493.7z
		 M551.8,493.7h7v7h-7V493.7z M559,493.7h7v7h-7V493.7z M566.3,493.7h7v7h-7V493.7z M573.5,493.7h7v7h-7V493.7z M580.8,493.7h7v7h-7
		V493.7z M588.1,493.7h7v7h-7V493.7z M595.3,493.7h7v7h-7V493.7z M602.6,493.7h7v7h-7V493.7z M181.5,500.9h7v7h-7V500.9z
		 M203.3,500.9h7v7h-7V500.9z M210.5,500.9h7v7h-7V500.9z M217.8,500.9h7v7h-7V500.9z M246.8,500.9h7v7h-7V500.9z M254.1,500.9h7v7
		h-7V500.9z M275.9,500.9h7v7h-7V500.9z M283.1,500.9h7v7h-7V500.9z M290.4,500.9h7v7h-7V500.9z M297.7,500.9h7v7h-7V500.9z
		 M304.9,500.9h7v7h-7V500.9z M370.3,500.9h7v7h-7V500.9z M377.5,500.9h7v7h-7V500.9z M384.8,500.9h7v7h-7V500.9z M486.4,500.9h7v7
		h-7V500.9z M493.7,500.9h7v7h-7V500.9z M500.9,500.9h7v7h-7V500.9z M508.2,500.9h7v7h-7V500.9z M573.5,500.9h7v7h-7V500.9z
		 M580.8,500.9h7v7h-7V500.9z M588.1,500.9h7v7h-7V500.9z M595.3,500.9h7v7h-7V500.9z M602.6,500.9h7v7h-7V500.9z M609.8,500.9h7v7
		h-7V500.9z M617.1,500.9h7v7h-7V500.9z M624.4,500.9h7v7h-7V500.9z M631.6,500.9h7v7h-7V500.9z M181.5,508.2h7v7h-7V508.2z
		 M188.8,508.2h7v7h-7V508.2z M196,508.2h7v7h-7V508.2z M246.8,508.2h7v7h-7V508.2z M254.1,508.2h7v7h-7V508.2z M261.4,508.2h7v7h-7
		V508.2z M268.6,508.2h7v7h-7V508.2z M275.9,508.2h7v7h-7V508.2z M283.1,508.2h7v7h-7V508.2z M290.4,508.2h7v7h-7V508.2z
		 M297.7,508.2h7v7h-7V508.2z M355.7,508.2h7v7h-7V508.2z M363,508.2h7v7h-7V508.2z M370.3,508.2h7v7h-7V508.2z M493.7,508.2h7v7h-7
		V508.2z M500.9,508.2h7v7h-7V508.2z M508.2,508.2h7v7h-7V508.2z M515.5,508.2h7v7h-7V508.2z M588.1,508.2h7v7h-7V508.2z
		 M595.3,508.2h7v7h-7V508.2z M602.6,508.2h7v7h-7V508.2z M609.8,508.2h7v7h-7V508.2z M617.1,508.2h7v7h-7V508.2z M624.4,508.2h7v7
		h-7V508.2z M631.6,508.2h7v7h-7V508.2z M638.9,508.2h7v7h-7V508.2z M646.1,508.2h7v7h-7V508.2z M653.4,508.2h7v7h-7V508.2z
		 M174.2,515.5h7v7h-7V515.5z M181.5,515.5h7v7h-7V515.5z M246.8,515.5h7v7h-7V515.5z M254.1,515.5h7v7h-7V515.5z M261.4,515.5h7v7
		h-7V515.5z M268.6,515.5h7v7h-7V515.5z M297.7,515.5h7v7h-7V515.5z M304.9,515.5h7v7h-7V515.5z M348.5,515.5h7v7h-7V515.5z
		 M355.7,515.5h7v7h-7V515.5z M363,515.5h7v7h-7V515.5z M508.2,515.5h7v7h-7V515.5z M515.5,515.5h7v7h-7V515.5z M522.7,515.5h7v7h-7
		V515.5z M588.1,515.5h7v7h-7V515.5z M595.3,515.5h7v7h-7V515.5z M631.6,515.5h7v7h-7V515.5z M638.9,515.5h7v7h-7V515.5z
		 M646.1,515.5h7v7h-7V515.5z M653.4,515.5h7v7h-7V515.5z M660.7,515.5h7v7h-7V515.5z M667.9,515.5h7v7h-7V515.5z M675.2,515.5h7v7
		h-7V515.5z M174.2,522.7h7v7h-7V522.7z M225.1,522.7h7v7h-7V522.7z M232.3,522.7h7v7h-7V522.7z M239.6,522.7h7v7h-7V522.7z
		 M246.8,522.7h7v7h-7V522.7z M254.1,522.7h7v7h-7V522.7z M297.7,522.7h7v7h-7V522.7z M304.9,522.7h7v7h-7V522.7z M341.2,522.7h7v7
		h-7V522.7z M348.5,522.7h7v7h-7V522.7z M355.7,522.7h7v7h-7V522.7z M522.7,522.7h7v7h-7V522.7z M530,522.7h7v7h-7V522.7z
		 M537.2,522.7h7v7h-7V522.7z M580.8,522.7h7v7h-7V522.7z M588.1,522.7h7v7h-7V522.7z M595.3,522.7h7v7h-7V522.7z M602.6,522.7h7v7
		h-7V522.7z M653.4,522.7h7v7h-7V522.7z M660.7,522.7h7v7h-7V522.7z M667.9,522.7h7v7h-7V522.7z M675.2,522.7h7v7h-7V522.7z
		 M682.4,522.7h7v7h-7V522.7z M689.7,522.7h7v7h-7V522.7z M697,522.7h7v7h-7V522.7z M704.2,522.7h7v7h-7V522.7z M174.2,530h7v7h-7
		V530z M210.5,530h7v7h-7V530z M217.8,530h7v7h-7V530z M225.1,530h7v7h-7V530z M232.3,530h7v7h-7V530z M297.7,530h7v7h-7V530z
		 M304.9,530h7v7h-7V530z M326.7,530h7v7h-7V530z M334,530h7v7h-7V530z M341.2,530h7v7h-7V530z M348.5,530h7v7h-7V530z M515.5,530h7
		v7h-7V530z M522.7,530h7v7h-7V530z M530,530h7v7h-7V530z M537.2,530h7v7h-7V530z M544.5,530h7v7h-7V530z M551.8,530h7v7h-7V530z
		 M573.5,530h7v7h-7V530z M580.8,530h7v7h-7V530z M602.6,530h7v7h-7V530z M609.8,530h7v7h-7V530z M617.1,530h7v7h-7V530z M682.4,530
		h7v7h-7V530z M689.7,530h7v7h-7V530z M697,530h7v7h-7V530z M704.2,530h7v7h-7V530z M711.5,530h7v7h-7V530z M718.7,530h7v7h-7V530z
		 M726,530h7v7h-7V530z M167,537.2h7v7h-7V537.2z M203.3,537.2h7v7h-7V537.2z M210.5,537.2h7v7h-7V537.2z M217.8,537.2h7v7h-7V537.2
		z M290.4,537.2h7v7h-7V537.2z M297.7,537.2h7v7h-7V537.2z M304.9,537.2h7v7h-7V537.2z M312.2,537.2h7v7h-7V537.2z M319.4,537.2h7v7
		h-7V537.2z M326.7,537.2h7v7h-7V537.2z M334,537.2h7v7h-7V537.2z M508.2,537.2h7v7h-7V537.2z M515.5,537.2h7v7h-7V537.2z
		 M522.7,537.2h7v7h-7V537.2z M530,537.2h7v7h-7V537.2z M551.8,537.2h7v7h-7V537.2z M559,537.2h7v7h-7V537.2z M566.3,537.2h7v7h-7
		V537.2z M573.5,537.2h7v7h-7V537.2z M617.1,537.2h7v7h-7V537.2z M624.4,537.2h7v7h-7V537.2z M631.6,537.2h7v7h-7V537.2z
		 M682.4,537.2h7v7h-7V537.2z M689.7,537.2h7v7h-7V537.2z M704.2,537.2h7v7h-7V537.2z M711.5,537.2h7v7h-7V537.2z M718.7,537.2h7v7
		h-7V537.2z M726,537.2h7v7h-7V537.2z M733.3,537.2h7v7h-7V537.2z M740.5,537.2h7v7h-7V537.2z M747.8,537.2h7v7h-7V537.2z
		 M755,537.2h7v7h-7V537.2z M167,544.5h7v7h-7V544.5z M181.5,544.5h7v7h-7V544.5z M188.8,544.5h7v7h-7V544.5z M196,544.5h7v7h-7
		V544.5z M203.3,544.5h7v7h-7V544.5z M217.8,544.5h7v7h-7V544.5z M283.1,544.5h7v7h-7V544.5z M290.4,544.5h7v7h-7V544.5z
		 M297.7,544.5h7v7h-7V544.5z M304.9,544.5h7v7h-7V544.5z M312.2,544.5h7v7h-7V544.5z M319.4,544.5h7v7h-7V544.5z M326.7,544.5h7v7
		h-7V544.5z M508.2,544.5h7v7h-7V544.5z M515.5,544.5h7v7h-7V544.5z M537.2,544.5h7v7h-7V544.5z M559,544.5h7v7h-7V544.5z
		 M566.3,544.5h7v7h-7V544.5z M573.5,544.5h7v7h-7V544.5z M631.6,544.5h7v7h-7V544.5z M638.9,544.5h7v7h-7V544.5z M646.1,544.5h7v7
		h-7V544.5z M653.4,544.5h7v7h-7V544.5z M667.9,544.5h7v7h-7V544.5z M675.2,544.5h7v7h-7V544.5z M682.4,544.5h7v7h-7V544.5z
		 M726,544.5h7v7h-7V544.5z M733.3,544.5h7v7h-7V544.5z M740.5,544.5h7v7h-7V544.5z M747.8,544.5h7v7h-7V544.5z M755,544.5h7v7h-7
		V544.5z M762.3,544.5h7v7h-7V544.5z M769.6,544.5h7v7h-7V544.5z M776.8,544.5h7v7h-7V544.5z M784.1,544.5h7v7h-7V544.5z
		 M159.7,551.8h7v7h-7V551.8z M167,551.8h7v7h-7V551.8z M174.2,551.8h7v7h-7V551.8z M181.5,551.8h7v7h-7V551.8z M188.8,551.8h7v7h-7
		V551.8z M217.8,551.8h7v7h-7V551.8z M225.1,551.8h7v7h-7V551.8z M268.6,551.8h7v7h-7V551.8z M275.9,551.8h7v7h-7V551.8z
		 M283.1,551.8h7v7h-7V551.8z M297.7,551.8h7v7h-7V551.8z M304.9,551.8h7v7h-7V551.8z M312.2,551.8h7v7h-7V551.8z M319.4,551.8h7v7
		h-7V551.8z M508.2,551.8h7v7h-7V551.8z M515.5,551.8h7v7h-7V551.8z M522.7,551.8h7v7h-7V551.8z M544.5,551.8h7v7h-7V551.8z
		 M551.8,551.8h7v7h-7V551.8z M573.5,551.8h7v7h-7V551.8z M580.8,551.8h7v7h-7V551.8z M588.1,551.8h7v7h-7V551.8z M646.1,551.8h7v7
		h-7V551.8z M653.4,551.8h7v7h-7V551.8z M660.7,551.8h7v7h-7V551.8z M667.9,551.8h7v7h-7V551.8z M675.2,551.8h7v7h-7V551.8z
		 M755,551.8h7v7h-7V551.8z M762.3,551.8h7v7h-7V551.8z M769.6,551.8h7v7h-7V551.8z M776.8,551.8h7v7h-7V551.8z M784.1,551.8h7v7h-7
		V551.8z M791.3,551.8h7v7h-7V551.8z M798.6,551.8h7v7h-7V551.8z M805.9,551.8h7v7h-7V551.8z M813.1,551.8h7v7h-7V551.8z M152.5,559
		h7v7h-7V559z M159.7,559h7v7h-7V559z M167,559h7v7h-7V559z M225.1,559h7v7h-7V559z M246.8,559h7v7h-7V559z M254.1,559h7v7h-7V559z
		 M261.4,559h7v7h-7V559z M268.6,559h7v7h-7V559z M297.7,559h7v7h-7V559z M304.9,559h7v7h-7V559z M312.2,559h7v7h-7V559z M515.5,559
		h7v7h-7V559z M522.7,559h7v7h-7V559z M530,559h7v7h-7V559z M551.8,559h7v7h-7V559z M559,559h7v7h-7V559z M580.8,559h7v7h-7V559z
		 M588.1,559h7v7h-7V559z M595.3,559h7v7h-7V559z M602.6,559h7v7h-7V559z M660.7,559h7v7h-7V559z M667.9,559h7v7h-7V559z M675.2,559
		h7v7h-7V559z M682.4,559h7v7h-7V559z M747.8,559h7v7h-7V559z M784.1,559h7v7h-7V559z M791.3,559h7v7h-7V559z M798.6,559h7v7h-7V559
		z M805.9,559h7v7h-7V559z M813.1,559h7v7h-7V559z M820.4,559h7v7h-7V559z M827.6,559h7v7h-7V559z M834.9,559h7v7h-7V559z
		 M137.9,566.3h7v7h-7V566.3z M145.2,566.3h7v7h-7V566.3z M152.5,566.3h7v7h-7V566.3z M159.7,566.3h7v7h-7V566.3z M225.1,566.3h7v7
		h-7V566.3z M232.3,566.3h7v7h-7V566.3z M239.6,566.3h7v7h-7V566.3z M246.8,566.3h7v7h-7V566.3z M283.1,566.3h7v7h-7V566.3z
		 M290.4,566.3h7v7h-7V566.3z M297.7,566.3h7v7h-7V566.3z M304.9,566.3h7v7h-7V566.3z M530,566.3h7v7h-7V566.3z M537.2,566.3h7v7h-7
		V566.3z M559,566.3h7v7h-7V566.3z M566.3,566.3h7v7h-7V566.3z M595.3,566.3h7v7h-7V566.3z M602.6,566.3h7v7h-7V566.3z M609.8,566.3
		h7v7h-7V566.3z M617.1,566.3h7v7h-7V566.3z M653.4,566.3h7v7h-7V566.3z M660.7,566.3h7v7h-7V566.3z M689.7,566.3h7v7h-7V566.3z
		 M697,566.3h7v7h-7V566.3z M740.5,566.3h7v7h-7V566.3z M813.1,566.3h7v7h-7V566.3z M820.4,566.3h7v7h-7V566.3z M827.6,566.3h7v7h-7
		V566.3z M834.9,566.3h7v7h-7V566.3z M116.2,573.5h7v7h-7V573.5z M123.4,573.5h7v7h-7V573.5z M130.7,573.5h7v7h-7V573.5z
		 M137.9,573.5h7v7h-7V573.5z M167,573.5h7v7h-7V573.5z M217.8,573.5h7v7h-7V573.5z M225.1,573.5h7v7h-7V573.5z M232.3,573.5h7v7h-7
		V573.5z M275.9,573.5h7v7h-7V573.5z M283.1,573.5h7v7h-7V573.5z M290.4,573.5h7v7h-7V573.5z M530,573.5h7v7h-7V573.5z M537.2,573.5
		h7v7h-7V573.5z M544.5,573.5h7v7h-7V573.5z M566.3,573.5h7v7h-7V573.5z M573.5,573.5h7v7h-7V573.5z M595.3,573.5h7v7h-7V573.5z
		 M602.6,573.5h7v7h-7V573.5z M609.8,573.5h7v7h-7V573.5z M617.1,573.5h7v7h-7V573.5z M624.4,573.5h7v7h-7V573.5z M653.4,573.5h7v7
		h-7V573.5z M697,573.5h7v7h-7V573.5z M704.2,573.5h7v7h-7V573.5z M726,573.5h7v7h-7V573.5z M733.3,573.5h7v7h-7V573.5z
		 M805.9,573.5h7v7h-7V573.5z M813.1,573.5h7v7h-7V573.5z M820.4,573.5h7v7h-7V573.5z M101.6,580.8h7v7h-7V580.8z M108.9,580.8h7v7
		h-7V580.8z M116.2,580.8h7v7h-7V580.8z M123.4,580.8h7v7h-7V580.8z M167,580.8h7v7h-7V580.8z M203.3,580.8h7v7h-7V580.8z
		 M210.5,580.8h7v7h-7V580.8z M217.8,580.8h7v7h-7V580.8z M225.1,580.8h7v7h-7V580.8z M232.3,580.8h7v7h-7V580.8z M268.6,580.8h7v7
		h-7V580.8z M275.9,580.8h7v7h-7V580.8z M283.1,580.8h7v7h-7V580.8z M544.5,580.8h7v7h-7V580.8z M551.8,580.8h7v7h-7V580.8z
		 M580.8,580.8h7v7h-7V580.8z M588.1,580.8h7v7h-7V580.8z M595.3,580.8h7v7h-7V580.8z M617.1,580.8h7v7h-7V580.8z M624.4,580.8h7v7
		h-7V580.8z M631.6,580.8h7v7h-7V580.8z M638.9,580.8h7v7h-7V580.8z M646.1,580.8h7v7h-7V580.8z M704.2,580.8h7v7h-7V580.8z
		 M711.5,580.8h7v7h-7V580.8z M718.7,580.8h7v7h-7V580.8z M726,580.8h7v7h-7V580.8z M791.3,580.8h7v7h-7V580.8z M798.6,580.8h7v7h-7
		V580.8z M805.9,580.8h7v7h-7V580.8z M813.1,580.8h7v7h-7V580.8z M101.6,588.1h7v7h-7V588.1z M108.9,588.1h7v7h-7V588.1z
		 M174.2,588.1h7v7h-7V588.1z M188.8,588.1h7v7h-7V588.1z M196,588.1h7v7h-7V588.1z M203.3,588.1h7v7h-7V588.1z M232.3,588.1h7v7h-7
		V588.1z M261.4,588.1h7v7h-7V588.1z M268.6,588.1h7v7h-7V588.1z M275.9,588.1h7v7h-7V588.1z M551.8,588.1h7v7h-7V588.1z M559,588.1
		h7v7h-7V588.1z M580.8,588.1h7v7h-7V588.1z M588.1,588.1h7v7h-7V588.1z M631.6,588.1h7v7h-7V588.1z M638.9,588.1h7v7h-7V588.1z
		 M646.1,588.1h7v7h-7V588.1z M718.7,588.1h7v7h-7V588.1z M726,588.1h7v7h-7V588.1z M733.3,588.1h7v7h-7V588.1z M740.5,588.1h7v7h-7
		V588.1z M747.8,588.1h7v7h-7V588.1z M784.1,588.1h7v7h-7V588.1z M791.3,588.1h7v7h-7V588.1z M798.6,588.1h7v7h-7V588.1z
		 M108.9,595.3h7v7h-7V595.3z M174.2,595.3h7v7h-7V595.3z M181.5,595.3h7v7h-7V595.3z M188.8,595.3h7v7h-7V595.3z M232.3,595.3h7v7
		h-7V595.3z M246.8,595.3h7v7h-7V595.3z M254.1,595.3h7v7h-7V595.3z M261.4,595.3h7v7h-7V595.3z M268.6,595.3h7v7h-7V595.3z
		 M559,595.3h7v7h-7V595.3z M566.3,595.3h7v7h-7V595.3z M573.5,595.3h7v7h-7V595.3z M595.3,595.3h7v7h-7V595.3z M646.1,595.3h7v7h-7
		V595.3z M653.4,595.3h7v7h-7V595.3z M660.7,595.3h7v7h-7V595.3z M711.5,595.3h7v7h-7V595.3z M747.8,595.3h7v7h-7V595.3z M755,595.3
		h7v7h-7V595.3z M762.3,595.3h7v7h-7V595.3z M776.8,595.3h7v7h-7V595.3z M784.1,595.3h7v7h-7V595.3z M791.3,595.3h7v7h-7V595.3z
		 M798.6,595.3h7v7h-7V595.3z M116.2,602.6h7v7h-7V602.6z M167,602.6h7v7h-7V602.6z M174.2,602.6h7v7h-7V602.6z M181.5,602.6h7v7h-7
		V602.6z M232.3,602.6h7v7h-7V602.6z M239.6,602.6h7v7h-7V602.6z M246.8,602.6h7v7h-7V602.6z M254.1,602.6h7v7h-7V602.6z
		 M566.3,602.6h7v7h-7V602.6z M573.5,602.6h7v7h-7V602.6z M602.6,602.6h7v7h-7V602.6z M609.8,602.6h7v7h-7V602.6z M660.7,602.6h7v7
		h-7V602.6z M667.9,602.6h7v7h-7V602.6z M675.2,602.6h7v7h-7V602.6z M704.2,602.6h7v7h-7V602.6z M755,602.6h7v7h-7V602.6z
		 M762.3,602.6h7v7h-7V602.6z M769.6,602.6h7v7h-7V602.6z M776.8,602.6h7v7h-7V602.6z M784.1,602.6h7v7h-7V602.6z M116.2,609.8h7v7
		h-7V609.8z M123.4,609.8h7v7h-7V609.8z M145.2,609.8h7v7h-7V609.8z M152.5,609.8h7v7h-7V609.8z M159.7,609.8h7v7h-7V609.8z
		 M167,609.8h7v7h-7V609.8z M174.2,609.8h7v7h-7V609.8z M181.5,609.8h7v7h-7V609.8z M225.1,609.8h7v7h-7V609.8z M232.3,609.8h7v7h-7
		V609.8z M239.6,609.8h7v7h-7V609.8z M246.8,609.8h7v7h-7V609.8z M573.5,609.8h7v7h-7V609.8z M580.8,609.8h7v7h-7V609.8z
		 M609.8,609.8h7v7h-7V609.8z M617.1,609.8h7v7h-7V609.8z M675.2,609.8h7v7h-7V609.8z M682.4,609.8h7v7h-7V609.8z M704.2,609.8h7v7
		h-7V609.8z M762.3,609.8h7v7h-7V609.8z M769.6,609.8h7v7h-7V609.8z M776.8,609.8h7v7h-7V609.8z M123.4,617.1h7v7h-7V617.1z
		 M130.7,617.1h7v7h-7V617.1z M137.9,617.1h7v7h-7V617.1z M145.2,617.1h7v7h-7V617.1z M152.5,617.1h7v7h-7V617.1z M174.2,617.1h7v7
		h-7V617.1z M181.5,617.1h7v7h-7V617.1z M217.8,617.1h7v7h-7V617.1z M225.1,617.1h7v7h-7V617.1z M232.3,617.1h7v7h-7V617.1z
		 M580.8,617.1h7v7h-7V617.1z M588.1,617.1h7v7h-7V617.1z M617.1,617.1h7v7h-7V617.1z M624.4,617.1h7v7h-7V617.1z M631.6,617.1h7v7
		h-7V617.1z M682.4,617.1h7v7h-7V617.1z M689.7,617.1h7v7h-7V617.1z M697,617.1h7v7h-7V617.1z M762.3,617.1h7v7h-7V617.1z
		 M769.6,617.1h7v7h-7V617.1z M123.4,624.4h7v7h-7V624.4z M130.7,624.4h7v7h-7V624.4z M137.9,624.4h7v7h-7V624.4z M174.2,624.4h7v7
		h-7V624.4z M181.5,624.4h7v7h-7V624.4z M210.5,624.4h7v7h-7V624.4z M217.8,624.4h7v7h-7V624.4z M225.1,624.4h7v7h-7V624.4z
		 M588.1,624.4h7v7h-7V624.4z M595.3,624.4h7v7h-7V624.4z M631.6,624.4h7v7h-7V624.4z M638.9,624.4h7v7h-7V624.4z M660.7,624.4h7v7
		h-7V624.4z M667.9,624.4h7v7h-7V624.4z M675.2,624.4h7v7h-7V624.4z M682.4,624.4h7v7h-7V624.4z M689.7,624.4h7v7h-7V624.4z
		 M697,624.4h7v7h-7V624.4z M704.2,624.4h7v7h-7V624.4z M711.5,624.4h7v7h-7V624.4z M755,624.4h7v7h-7V624.4z M762.3,624.4h7v7h-7
		V624.4z M123.4,631.6h7v7h-7V631.6z M130.7,631.6h7v7h-7V631.6z M174.2,631.6h7v7h-7V631.6z M181.5,631.6h7v7h-7V631.6z M196,631.6
		h7v7h-7V631.6z M203.3,631.6h7v7h-7V631.6z M210.5,631.6h7v7h-7V631.6z M217.8,631.6h7v7h-7V631.6z M595.3,631.6h7v7h-7V631.6z
		 M602.6,631.6h7v7h-7V631.6z M609.8,631.6h7v7h-7V631.6z M638.9,631.6h7v7h-7V631.6z M646.1,631.6h7v7h-7V631.6z M653.4,631.6h7v7
		h-7V631.6z M660.7,631.6h7v7h-7V631.6z M667.9,631.6h7v7h-7V631.6z M711.5,631.6h7v7h-7V631.6z M718.7,631.6h7v7h-7V631.6z
		 M755,631.6h7v7h-7V631.6z M123.4,638.9h7v7h-7V638.9z M130.7,638.9h7v7h-7V638.9z M174.2,638.9h7v7h-7V638.9z M181.5,638.9h7v7h-7
		V638.9z M188.8,638.9h7v7h-7V638.9z M196,638.9h7v7h-7V638.9z M203.3,638.9h7v7h-7V638.9z M210.5,638.9h7v7h-7V638.9z M609.8,638.9
		h7v7h-7V638.9z M617.1,638.9h7v7h-7V638.9z M624.4,638.9h7v7h-7V638.9z M631.6,638.9h7v7h-7V638.9z M638.9,638.9h7v7h-7V638.9z
		 M646.1,638.9h7v7h-7V638.9z M718.7,638.9h7v7h-7V638.9z M726,638.9h7v7h-7V638.9z M733.3,638.9h7v7h-7V638.9z M747.8,638.9h7v7h-7
		V638.9z M755,638.9h7v7h-7V638.9z M123.4,646.1h7v7h-7V646.1z M130.7,646.1h7v7h-7V646.1z M181.5,646.1h7v7h-7V646.1z M188.8,646.1
		h7v7h-7V646.1z M196,646.1h7v7h-7V646.1z M617.1,646.1h7v7h-7V646.1z M624.4,646.1h7v7h-7V646.1z M733.3,646.1h7v7h-7V646.1z
		 M740.5,646.1h7v7h-7V646.1z M747.8,646.1h7v7h-7V646.1z M123.4,653.4h7v7h-7V653.4z M130.7,653.4h7v7h-7V653.4z M174.2,653.4h7v7
		h-7V653.4z M181.5,653.4h7v7h-7V653.4z M188.8,653.4h7v7h-7V653.4z M747.8,653.4h7v7h-7V653.4z M123.4,660.7h7v7h-7V660.7z
		 M130.7,660.7h7v7h-7V660.7z M167,660.7h7v7h-7V660.7z M174.2,660.7h7v7h-7V660.7z M181.5,660.7h7v7h-7V660.7z M123.4,667.9h7v7h-7
		V667.9z M130.7,667.9h7v7h-7V667.9z M159.7,667.9h7v7h-7V667.9z M167,667.9h7v7h-7V667.9z M174.2,667.9h7v7h-7V667.9z M123.4,675.2
		h7v7h-7V675.2z M130.7,675.2h7v7h-7V675.2z M152.5,675.2h7v7h-7V675.2z M159.7,675.2h7v7h-7V675.2z M167,675.2h7v7h-7V675.2z
		 M123.4,682.4h7v7h-7V682.4z M130.7,682.4h7v7h-7V682.4z M145.2,682.4h7v7h-7V682.4z M152.5,682.4h7v7h-7V682.4z M123.4,689.7h7v7
		h-7V689.7z M130.7,689.7h7v7h-7V689.7z M137.9,689.7h7v7h-7V689.7z M145.2,689.7h7v7h-7V689.7z M123.4,697h7v7h-7V697z M130.7,697
		h7v7h-7V697z M137.9,697h7v7h-7V697z M123.4,704.2h7v7h-7V704.2z M130.7,704.2h7v7h-7V704.2z"/>
</g>
</svg>
