<?xml version="1.0" encoding="utf-8"?>
<!-- Generator: Adobe Illustrator 27.3.1, SVG Export Plug-In . SVG Version: 6.00 Build 0)  -->
<svg version="1.1" xmlns="http://www.w3.org/2000/svg" xmlns:xlink="http://www.w3.org/1999/xlink" x="0px" y="0px"
	 viewBox="0 0 871 871" style="enable-background:new 0 0 871 871;" xml:space="preserve">
<style type="text/css">
	.st0{fill:#FCEABB;}
	.st1{fill:#1E0E01;}
</style>
<g id="Слой_2">
	<path class="st0" d="M800.8,653.4c0-1.4-1.1-2.5-2.5-2.5h-7c0,0-0.1,0-0.1,0c0,0-0.1,0-0.1,0h-4.8v-4.8c0-1.4-1.1-2.5-2.5-2.5h-4.8
		v-4.8c0-1.4-1.1-2.5-2.5-2.5h-7c0,0-0.1,0-0.1,0c0,0-0.1,0-0.1,0h-4.8v-4.8c0-1.4-1.1-2.5-2.5-2.5h-7c0,0-0.1,0-0.1,0
		c0,0-0.1,0-0.1,0H750v-4.8c0-1.4-1.1-2.5-2.5-2.5h-7c0,0-0.1,0-0.1,0c0,0-0.1,0-0.1,0h-4.8v-4.8c0-1.4-1.1-2.5-2.5-2.5h-7
		c0,0-0.1,0-0.1,0c0,0-0.1,0-0.1,0H721v-4.8c0-1.4-1.1-2.5-2.5-2.5h-7c0,0-0.1,0-0.1,0c0,0-0.1,0-0.1,0h-4.8v-4.8
		c0-1.4-1.1-2.5-2.5-2.5h-4.8v-4.8c0-1.4-1.1-2.5-2.5-2.5h-7c0,0-0.1,0-0.1,0c0,0-0.1,0-0.1,0h-4.8v-4.8c0-1.4-1.1-2.5-2.5-2.5h-7
		c0,0-0.1,0-0.1,0c0,0-0.1,0-0.1,0h-4.8v-4.8c0-1.4-1.1-2.5-2.5-2.5h-4.8v-4.8c0-1.4-1.1-2.5-2.5-2.5h-7c0,0-0.1,0-0.1,0
		c0,0-0.1,0-0.1,0h-4.8v-4.8c0-1.4-1.1-2.5-2.5-2.5h-4.8V559c0-1.4-1.1-2.5-2.5-2.5h-7c0,0-0.1,0-0.1,0c0,0-0.1,0-0.1,0h-4.8v-4.8
		c0-1.4-1.1-2.5-2.5-2.5h-7c0,0-0.1,0-0.1,0c0,0-0.1,0-0.1,0h-4.8v-4.8c0-1.4-1.1-2.5-2.5-2.5h-4.8v-4.8c0-1.4-1.1-2.5-2.5-2.5h-7
		c0,0-0.1,0-0.1,0c0,0-0.1,0-0.1,0h-7c0,0-0.1,0-0.1,0c0,0-0.1,0-0.1,0H583V530c0-1.4-1.1-2.5-2.5-2.5h-7c0,0-0.1,0-0.1,0
		c0,0-0.1,0-0.1,0h-4.8v-4.8c0-1.4-1.1-2.5-2.5-2.5h-4.8v-4.8c0-1.4-1.1-2.5-2.5-2.5h-7c0,0-0.1,0-0.1,0c0,0-0.1,0-0.1,0h-4.8v-4.8
		c0-1.4-1.1-2.5-2.5-2.5h-7c0,0-0.1,0-0.1,0c0,0-0.1,0-0.1,0h-4.8v-4.8c0-1.4-1.1-2.5-2.5-2.5H525v-4.8c0-1.4-1.1-2.5-2.5-2.5h-4.8
		v-4.8c0-1.4-1.1-2.5-2.5-2.5h-7c0,0-0.1,0-0.1,0c0,0-0.1,0-0.1,0h-4.8v-4.8c0-1.4-1.1-2.5-2.5-2.5h-4.8v-4.8c0-1.4-1.1-2.5-2.5-2.5
		h-7c0,0-0.1,0-0.1,0c0,0-0.1,0-0.1,0h-4.8v-4.8c0-1.4-1.1-2.5-2.5-2.5h-4.8v-4.8c0,0,0-0.1,0-0.1c0,0,0-0.1,0-0.1v-7
		c0,0,0-0.1,0-0.1c0,0,0-0.1,0-0.1v-7c0-1.4-1.1-2.5-2.5-2.5h-4.8v-4.8c0,0,0-0.1,0-0.1c0,0,0-0.1,0-0.1v-4.8h4.8
		c1.4,0,2.5-1.1,2.5-2.5v-7c0,0,0-0.1,0-0.1c0,0,0-0.1,0-0.1v-4.8h4.8c1.4,0,2.5-1.1,2.5-2.5v-4.8h4.8c1.4,0,2.5-1.1,2.5-2.5v-4.8
		h4.8c1.4,0,2.5-1.1,2.5-2.5v-7c0,0,0-0.1,0-0.1c0,0,0-0.1,0-0.1v-7c0,0,0-0.1,0-0.1c0,0,0-0.1,0-0.1v-4.8h4.8
		c1.4,0,2.5-1.1,2.5-2.5v-4.8h4.8c0,0,0.1,0,0.1,0c0,0,0.1,0,0.1,0h7c0,0,0.1,0,0.1,0c0,0,0.1,0,0.1,0h7c0,0,0.1,0,0.1,0
		c0,0,0.1,0,0.1,0h7c0,0,0.1,0,0.1,0c0,0,0.1,0,0.1,0h7c1.4,0,2.5-1.1,2.5-2.5v-4.8h4.8c1.4,0,2.5-1.1,2.5-2.5V358h4.8
		c1.4,0,2.5-1.1,2.5-2.5v-7c0,0,0-0.1,0-0.1c0,0,0-0.1,0-0.1v-4.8h4.8c1.4,0,2.5-1.1,2.5-2.5v-4.8h4.8c1.4,0,2.5-1.1,2.5-2.5v-7
		c0,0,0-0.1,0-0.1c0,0,0-0.1,0-0.1v-4.8h4.8c1.4,0,2.5-1.1,2.5-2.5v-4.8h4.8c1.4,0,2.5-1.1,2.5-2.5v-7c0,0,0-0.1,0-0.1
		c0,0,0-0.1,0-0.1v-4.8h4.8c1.4,0,2.5-1.1,2.5-2.5v-4.8h4.8c1.4,0,2.5-1.1,2.5-2.5v-7c0,0,0-0.1,0-0.1c0,0,0-0.1,0-0.1v-4.8h4.8
		c1.4,0,2.5-1.1,2.5-2.5v-4.8h4.8c1.4,0,2.5-1.1,2.5-2.5v-7c0,0,0-0.1,0-0.1c0,0,0-0.1,0-0.1v-4.8h4.8c1.4,0,2.5-1.1,2.5-2.5v-7
		c0,0,0-0.1,0-0.1c0,0,0-0.1,0-0.1v-7c0-1.4-1.1-2.5-2.5-2.5h-4.8v-4.8c0-1.4-1.1-2.5-2.5-2.5h-4.8v-4.8c0,0,0-0.1,0-0.1
		c0,0,0-0.1,0-0.1v-7c0,0,0-0.1,0-0.1c0,0,0-0.1,0-0.1v-7c0-1.4-1.1-2.5-2.5-2.5h-4.8v-4.8c0,0,0-0.1,0-0.1c0,0,0-0.1,0-0.1v-7
		c0,0,0-0.1,0-0.1c0,0,0-0.1,0-0.1v-7c0-1.4-1.1-2.5-2.5-2.5h-4.8v-4.8c0,0,0-0.1,0-0.1c0,0,0-0.1,0-0.1v-7c0,0,0-0.1,0-0.1
		c0,0,0-0.1,0-0.1v-7c0,0,0-0.1,0-0.1c0,0,0-0.1,0-0.1v-7c0,0,0-0.1,0-0.1c0,0,0-0.1,0-0.1v-7c0,0,0-0.1,0-0.1c0,0,0-0.1,0-0.1v-4.8
		h4.8c1.4,0,2.5-1.1,2.5-2.5v-4.8h4.8c1.4,0,2.5-1.1,2.5-2.5v-7c0,0,0-0.1,0-0.1c0,0,0-0.1,0-0.1v-4.8h4.8c1.4,0,2.5-1.1,2.5-2.5v-7
		c0-1.4-1.1-2.5-2.5-2.5h-4.8v-4.8c0-1.4-1.1-2.5-2.5-2.5h-7c0,0-0.1,0-0.1,0c0,0-0.1,0-0.1,0h-7c0,0-0.1,0-0.1,0c0,0-0.1,0-0.1,0
		h-7c0,0-0.1,0-0.1,0c0,0-0.1,0-0.1,0h-4.8v-4.8c0-1.4-1.1-2.5-2.5-2.5h-7c0,0-0.1,0-0.1,0c0,0-0.1,0-0.1,0h-4.8v-4.8
		c0-1.4-1.1-2.5-2.5-2.5H554v-4.8c0,0,0-0.1,0-0.1c0,0,0-0.1,0-0.1v-7c0-1.4-1.1-2.5-2.5-2.5h-7c0,0-0.1,0-0.1,0c0,0-0.1,0-0.1,0
		h-4.8v-4.8c0-1.4-1.1-2.5-2.5-2.5h-4.8v-4.8c0-1.4-1.1-2.5-2.5-2.5H525v-4.8c0-1.4-1.1-2.5-2.5-2.5h-4.8v-4.8c0,0,0-0.1,0-0.1
		c0,0,0-0.1,0-0.1v-7c0-1.4-1.1-2.5-2.5-2.5h-4.8v-4.8c0-1.4-1.1-2.5-2.5-2.5h-7c-1.4,0-2.5,1.1-2.5,2.5v4.8h-4.8
		c-1.4,0-2.5,1.1-2.5,2.5v7c0,0,0,0.1,0,0.1c0,0,0,0.1,0,0.1v7c0,0,0,0.1,0,0.1c0,0,0,0.1,0,0.1v7c0,0,0,0.1,0,0.1c0,0,0,0.1,0,0.1
		v7c0,0,0,0.1,0,0.1c0,0,0,0.1,0,0.1v7c0,0,0,0.1,0,0.1c0,0,0,0.1,0,0.1v7c0,0,0,0.1,0,0.1c0,0,0,0.1,0,0.1v4.8h-4.8
		c-1.4,0-2.5,1.1-2.5,2.5v7c0,0,0,0.1,0,0.1c0,0,0,0.1,0,0.1v7c0,0,0,0.1,0,0.1c0,0,0,0.1,0,0.1v7c0,0,0,0.1,0,0.1c0,0,0,0.1,0,0.1
		v7c0,0,0,0.1,0,0.1c0,0,0,0.1,0,0.1v7c0,0,0,0.1,0,0.1c0,0,0,0.1,0,0.1v7c0,0,0,0.1,0,0.1c0,0,0,0.1,0,0.1v7c0,0,0,0.1,0,0.1
		c0,0,0,0.1,0,0.1v7c0,0,0,0.1,0,0.1c0,0,0,0.1,0,0.1v4.8h-4.8c-1.4,0-2.5,1.1-2.5,2.5v7c0,0,0,0.1,0,0.1c0,0,0,0.1,0,0.1v7
		c0,0,0,0.1,0,0.1c0,0,0,0.1,0,0.1v7c0,0,0,0.1,0,0.1c0,0,0,0.1,0,0.1v7c0,0,0,0.1,0,0.1c0,0,0,0.1,0,0.1v7c0,0,0,0.1,0,0.1
		c0,0,0,0.1,0,0.1v7c0,0,0,0.1,0,0.1c0,0,0,0.1,0,0.1v4.8h-4.8c-1.4,0-2.5,1.1-2.5,2.5v7c0,0,0,0.1,0,0.1c0,0,0,0.1,0,0.1v7
		c0,0,0,0.1,0,0.1c0,0,0,0.1,0,0.1v7c0,0,0,0.1,0,0.1c0,0,0,0.1,0,0.1v4.8h-4.8c-1.4,0-2.5,1.1-2.5,2.5v7c0,0,0,0.1,0,0.1
		c0,0,0,0.1,0,0.1v7c0,0,0,0.1,0,0.1c0,0,0,0.1,0,0.1v7c0,0,0,0.1,0,0.1c0,0,0,0.1,0,0.1v7c0,0,0,0.1,0,0.1c0,0,0,0.1,0,0.1v7
		c0,0,0,0.1,0,0.1c0,0,0,0.1,0,0.1v7c0,0,0,0.1,0,0.1c0,0,0,0.1,0,0.1v7c0,0,0,0.1,0,0.1c0,0,0,0.1,0,0.1v7c0,0,0,0.1,0,0.1
		c0,0,0,0.1,0,0.1v7c0,0,0,0.1,0,0.1c0,0,0,0.1,0,0.1v7c0,0,0,0.1,0,0.1c0,0,0,0.1,0,0.1v4.8h-4.8c-1.4,0-2.5,1.1-2.5,2.5v7
		c0,0,0,0.1,0,0.1c0,0,0,0.1,0,0.1v7c0,0,0,0.1,0,0.1c0,0,0,0.1,0,0.1v7c0,0,0,0.1,0,0.1c0,0,0,0.1,0,0.1v7c0,0,0,0.1,0,0.1
		c0,0,0,0.1,0,0.1v7c0,0,0,0.1,0,0.1c0,0,0,0.1,0,0.1v7c0,0,0,0.1,0,0.1c0,0,0,0.1,0,0.1v7c0,0,0,0.1,0,0.1c0,0,0,0.1,0,0.1v4.8
		h-4.8c-1.4,0-2.5,1.1-2.5,2.5v7c0,0,0,0.1,0,0.1c0,0,0,0.1,0,0.1v7c0,0,0,0.1,0,0.1c0,0,0,0.1,0,0.1v7c0,0,0,0.1,0,0.1
		c0,0,0,0.1,0,0.1v7c0,0,0,0.1,0,0.1c0,0,0,0.1,0,0.1v4.8h-4.8c-1.4,0-2.5,1.1-2.5,2.5v7c0,0,0,0.1,0,0.1c0,0,0,0.1,0,0.1v4.8h-4.8
		c-1.4,0-2.5,1.1-2.5,2.5v4.8h-4.8c0,0-0.1,0-0.1,0c0,0-0.1,0-0.1,0h-7c-1.4,0-2.5,1.1-2.5,2.5v7c0,0,0,0.1,0,0.1c0,0,0,0.1,0,0.1
		v4.8h-4.8c0,0-0.1,0-0.1,0c0,0-0.1,0-0.1,0h-7c0,0-0.1,0-0.1,0c0,0-0.1,0-0.1,0h-7c0,0-0.1,0-0.1,0c0,0-0.1,0-0.1,0h-4.8v-4.8
		c0-1.4-1.1-2.5-2.5-2.5h-7c0,0-0.1,0-0.1,0c0,0-0.1,0-0.1,0h-7c0,0-0.1,0-0.1,0c0,0-0.1,0-0.1,0h-7c-1.4,0-2.5,1.1-2.5,2.5v4.8H363
		c0,0-0.1,0-0.1,0c0,0-0.1,0-0.1,0h-7c0,0-0.1,0-0.1,0c0,0-0.1,0-0.1,0h-7c0,0-0.1,0-0.1,0c0,0-0.1,0-0.1,0h-4.8v-4.8
		c0,0,0-0.1,0-0.1c0,0,0-0.1,0-0.1v-7c0,0,0-0.1,0-0.1c0,0,0-0.1,0-0.1v-7c0-1.4-1.1-2.5-2.5-2.5h-4.8v-4.8c0-1.4-1.1-2.5-2.5-2.5
		h-7c0,0-0.1,0-0.1,0c0,0-0.1,0-0.1,0h-7c0,0-0.1,0-0.1,0c0,0-0.1,0-0.1,0h-7c0,0-0.1,0-0.1,0c0,0-0.1,0-0.1,0h-7c0,0-0.1,0-0.1,0
		c0,0-0.1,0-0.1,0h-7c0,0-0.1,0-0.1,0c0,0-0.1,0-0.1,0h-7c0,0-0.1,0-0.1,0c0,0-0.1,0-0.1,0h-7c0,0-0.1,0-0.1,0c0,0-0.1,0-0.1,0h-7
		c0,0-0.1,0-0.1,0c0,0-0.1,0-0.1,0h-4.8v-4.8c0-1.4-1.1-2.5-2.5-2.5h-7c0,0-0.1,0-0.1,0c0,0-0.1,0-0.1,0h-7c0,0-0.1,0-0.1,0
		c0,0-0.1,0-0.1,0h-7c0,0-0.1,0-0.1,0c0,0-0.1,0-0.1,0h-7c0,0-0.1,0-0.1,0c0,0-0.1,0-0.1,0h-7c0,0-0.1,0-0.1,0c0,0-0.1,0-0.1,0h-7
		c0,0-0.1,0-0.1,0c0,0-0.1,0-0.1,0h-7c0,0-0.1,0-0.1,0c0,0-0.1,0-0.1,0h-7c0,0-0.1,0-0.1,0c0,0-0.1,0-0.1,0h-7c0,0-0.1,0-0.1,0
		c0,0-0.1,0-0.1,0h-7c0,0-0.1,0-0.1,0c0,0-0.1,0-0.1,0h-7c-1.4,0-2.5,1.1-2.5,2.5v4.8h-4.8c-1.4,0-2.5,1.1-2.5,2.5v7
		c0,0,0,0.1,0,0.1c0,0,0,0.1,0,0.1v4.8h-4.8c-1.4,0-2.5,1.1-2.5,2.5v7c0,0,0,0.1,0,0.1c0,0,0,0.1,0,0.1v4.8H167
		c-1.4,0-2.5,1.1-2.5,2.5v4.8h-4.8c-1.4,0-2.5,1.1-2.5,2.5v7c0,0,0,0.1,0,0.1c0,0,0,0.1,0,0.1v4.8h-4.8c-1.4,0-2.5,1.1-2.5,2.5v4.8
		h-4.8c0,0-0.1,0-0.1,0c0,0-0.1,0-0.1,0h-7c-1.4,0-2.5,1.1-2.5,2.5v4.8h-4.8c0,0-0.1,0-0.1,0c0,0-0.1,0-0.1,0h-7c0,0-0.1,0-0.1,0
		c0,0-0.1,0-0.1,0h-7c0,0-0.1,0-0.1,0c0,0-0.1,0-0.1,0h-7c0,0-0.1,0-0.1,0c0,0-0.1,0-0.1,0h-7c-1.4,0-2.5,1.1-2.5,2.5v4.8h-4.8
		c0,0-0.1,0-0.1,0c0,0-0.1,0-0.1,0h-7c0,0-0.1,0-0.1,0c0,0-0.1,0-0.1,0h-7c-1.4,0-2.5,1.1-2.5,2.5v7c0,0,0,0.1,0,0.1
		c0,0,0,0.1,0,0.1v7c0,1.4,1.1,2.5,2.5,2.5h4.8v4.8c0,0,0,0.1,0,0.1c0,0,0,0.1,0,0.1v7c0,0,0,0.1,0,0.1c0,0,0,0.1,0,0.1v7
		c0,0,0,0.1,0,0.1c0,0,0,0.1,0,0.1v7c0,0,0,0.1,0,0.1c0,0,0,0.1,0,0.1v7c0,0,0,0.1,0,0.1c0,0,0,0.1,0,0.1v7c0,0,0,0.1,0,0.1
		c0,0,0,0.1,0,0.1v7c0,0,0,0.1,0,0.1c0,0,0,0.1,0,0.1v4.8h-4.8c-1.4,0-2.5,1.1-2.5,2.5v7c0,0,0,0.1,0,0.1c0,0,0,0.1,0,0.1v7
		c0,0,0,0.1,0,0.1c0,0,0,0.1,0,0.1v7c0,0,0,0.1,0,0.1c0,0,0,0.1,0,0.1v4.8h-4.8c-1.4,0-2.5,1.1-2.5,2.5v7c0,0,0,0.1,0,0.1
		c0,0,0,0.1,0,0.1v7c0,0,0,0.1,0,0.1c0,0,0,0.1,0,0.1v7c0,0,0,0.1,0,0.1c0,0,0,0.1,0,0.1v7c0,1.4,1.1,2.5,2.5,2.5h7c0,0,0.1,0,0.1,0
		c0,0,0.1,0,0.1,0h7c1.4,0,2.5-1.1,2.5-2.5v-4.8h4.8c0,0,0.1,0,0.1,0c0,0,0.1,0,0.1,0h7c1.4,0,2.5-1.1,2.5-2.5v-4.8h4.8
		c0,0,0.1,0,0.1,0c0,0,0.1,0,0.1,0h7c1.4,0,2.5-1.1,2.5-2.5v-4.8h4.8c0,0,0.1,0,0.1,0c0,0,0.1,0,0.1,0h7c0,0,0.1,0,0.1,0
		c0,0,0.1,0,0.1,0h7c1.4,0,2.5-1.1,2.5-2.5v-4.8h4.8c0,0,0.1,0,0.1,0c0,0,0.1,0,0.1,0h7c1.4,0,2.5-1.1,2.5-2.5v-4.8h4.8
		c1.4,0,2.5-1.1,2.5-2.5V583h4.8c0,0,0.1,0,0.1,0c0,0,0.1,0,0.1,0h7c0,0,0.1,0,0.1,0c0,0,0.1,0,0.1,0h7c1.4,0,2.5-1.1,2.5-2.5v-4.8
		h4.8c0,0,0.1,0,0.1,0c0,0,0.1,0,0.1,0h7c1.4,0,2.5-1.1,2.5-2.5v-4.8h4.8c0,0,0.1,0,0.1,0c0,0,0.1,0,0.1,0h7c1.4,0,2.5-1.1,2.5-2.5
		v-4.8h4.8c0,0,0.1,0,0.1,0c0,0,0.1,0,0.1,0h7c0,0,0.1,0,0.1,0c0,0,0.1,0,0.1,0h7c1.4,0,2.5-1.1,2.5-2.5V554h4.8c0,0,0.1,0,0.1,0
		c0,0,0.1,0,0.1,0h7c1.4,0,2.5-1.1,2.5-2.5v-4.8h4.8c0,0,0.1,0,0.1,0c0,0,0.1,0,0.1,0h7c0,0,0.1,0,0.1,0c0,0,0.1,0,0.1,0h7
		c1.4,0,2.5-1.1,2.5-2.5v-4.8h4.8c0,0,0.1,0,0.1,0c0,0,0.1,0,0.1,0h7c1.4,0,2.5-1.1,2.5-2.5v-4.8h4.8c0,0,0.1,0,0.1,0
		c0,0,0.1,0,0.1,0h7c1.4,0,2.5-1.1,2.5-2.5V525h4.8c0,0,0.1,0,0.1,0c0,0,0.1,0,0.1,0h7c1.4,0,2.5-1.1,2.5-2.5v-4.8h4.8
		c0,0,0.1,0,0.1,0c0,0,0.1,0,0.1,0h7c1.4,0,2.5-1.1,2.5-2.5v-4.8h4.8c0,0,0.1,0,0.1,0c0,0,0.1,0,0.1,0h7c0,0,0.1,0,0.1,0
		c0,0,0.1,0,0.1,0h7c1.4,0,2.5-1.1,2.5-2.5v-4.8h4.8c0,0,0.1,0,0.1,0c0,0,0.1,0,0.1,0h7c1.4,0,2.5-1.1,2.5-2.5v-4.8h4.8
		c0,0,0.1,0,0.1,0c0,0,0.1,0,0.1,0h7c1.4,0,2.5-1.1,2.5-2.5v-4.8h4.8c0,0,0.1,0,0.1,0c0,0,0.1,0,0.1,0h7c1.4,0,2.5-1.1,2.5-2.5v-4.8
		h4.8c0,0,0.1,0,0.1,0c0,0,0.1,0,0.1,0h7c1.4,0,2.5-1.1,2.5-2.5v-4.8h4.8c0,0,0.1,0,0.1,0c0,0,0.1,0,0.1,0h7c0,0,0.1,0,0.1,0
		c0,0,0.1,0,0.1,0h4.8v4.8c0,1.4,1.1,2.5,2.5,2.5h7c0,0,0.1,0,0.1,0c0,0,0.1,0,0.1,0h7c0,0,0.1,0,0.1,0c0,0,0.1,0,0.1,0h4.8v4.8
		c0,1.4,1.1,2.5,2.5,2.5h4.8v4.8c0,1.4,1.1,2.5,2.5,2.5h4.8v4.8c0,0,0,0.1,0,0.1c0,0,0,0.1,0,0.1v7c0,1.4,1.1,2.5,2.5,2.5h4.8v4.8
		c0,1.4,1.1,2.5,2.5,2.5h4.8v4.8c0,1.4,1.1,2.5,2.5,2.5h4.8v4.8c0,1.4,1.1,2.5,2.5,2.5h4.8v4.8c0,1.4,1.1,2.5,2.5,2.5h4.8v2.5h-4.8
		c-1.4,0-2.5,1.1-2.5,2.5v4.8h-4.8c-1.4,0-2.5,1.1-2.5,2.5v4.8h-4.8c-1.4,0-2.5,1.1-2.5,2.5v7c0,1.4,1.1,2.5,2.5,2.5h4.8v4.8
		c0,0,0,0.1,0,0.1c0,0,0,0.1,0,0.1v7c0,1.4,1.1,2.5,2.5,2.5h4.8v4.8c0,0,0,0.1,0,0.1c0,0,0,0.1,0,0.1v7c0,1.4,1.1,2.5,2.5,2.5h4.8
		v4.8c0,1.4,1.1,2.5,2.5,2.5h4.8v4.8c0,0,0,0.1,0,0.1c0,0,0,0.1,0,0.1v7c0,1.4,1.1,2.5,2.5,2.5h4.8v4.8c0,1.4,1.1,2.5,2.5,2.5h4.8
		v4.8c0,0,0,0.1,0,0.1c0,0,0,0.1,0,0.1v7c0,1.4,1.1,2.5,2.5,2.5h4.8v4.8c0,1.4,1.1,2.5,2.5,2.5h4.8v4.8c0,0,0,0.1,0,0.1
		c0,0,0,0.1,0,0.1v7c0,1.4,1.1,2.5,2.5,2.5h4.8v4.8c0,1.4,1.1,2.5,2.5,2.5h4.8v4.8c0,1.4,1.1,2.5,2.5,2.5h4.8v4.8
		c0,1.4,1.1,2.5,2.5,2.5h4.8v4.8c0,1.4,1.1,2.5,2.5,2.5h7c0,0,0.1,0,0.1,0c0,0,0.1,0,0.1,0h7c0,0,0.1,0,0.1,0c0,0,0.1,0,0.1,0h7
		c0,0,0.1,0,0.1,0c0,0,0.1,0,0.1,0h7c0,0,0.1,0,0.1,0c0,0,0.1,0,0.1,0h7c0,0,0.1,0,0.1,0c0,0,0.1,0,0.1,0h7c0,0,0.1,0,0.1,0
		c0,0,0.1,0,0.1,0h7c0,0,0.1,0,0.1,0c0,0,0.1,0,0.1,0h7c0,0,0.1,0,0.1,0c0,0,0.1,0,0.1,0h7c0,0,0.1,0,0.1,0c0,0,0.1,0,0.1,0h7
		c0,0,0.1,0,0.1,0c0,0,0.1,0,0.1,0h7c0,0,0.1,0,0.1,0c0,0,0.1,0,0.1,0h4.8v4.8c0,1.4,1.1,2.5,2.5,2.5h4.8v4.8c0,1.4,1.1,2.5,2.5,2.5
		h4.8v4.8c0,1.4,1.1,2.5,2.5,2.5h4.8v4.8c0,1.4,1.1,2.5,2.5,2.5h4.8v4.8c0,1.4,1.1,2.5,2.5,2.5h7c0,0,0.1,0,0.1,0c0,0,0.1,0,0.1,0h7
		c1.4,0,2.5-1.1,2.5-2.5V721h4.8c1.4,0,2.5-1.1,2.5-2.5v-4.8h4.8c1.4,0,2.5-1.1,2.5-2.5v-4.8h4.8c1.4,0,2.5-1.1,2.5-2.5v-4.8h4.8
		c0,0,0.1,0,0.1,0c0,0,0.1,0,0.1,0h7c1.4,0,2.5-1.1,2.5-2.5v-4.8h4.8c0,0,0.1,0,0.1,0c0,0,0.1,0,0.1,0h7c0,0,0.1,0,0.1,0
		c0,0,0.1,0,0.1,0h7c1.4,0,2.5-1.1,2.5-2.5v-4.8h4.8c1.4,0,2.5-1.1,2.5-2.5v-4.8h4.8c0,0,0.1,0,0.1,0c0,0,0.1,0,0.1,0h7
		c0,0,0.1,0,0.1,0c0,0,0.1,0,0.1,0h7c1.4,0,2.5-1.1,2.5-2.5v-4.8h4.8c0,0,0.1,0,0.1,0c0,0,0.1,0,0.1,0h7c1.4,0,2.5-1.1,2.5-2.5v-7
		c0,0,0-0.1,0-0.1c0,0,0-0.1,0-0.1V653.4z"/>
</g>
<g id="Слой_1" xmlns:ev="http://www.w3.org/2001/xml-events">
	<path class="st1" d="M500.9,36.3h7v7h-7V36.3z M493.7,43.6h7v7h-7V43.6z M500.9,43.6h7v7h-7V43.6z M508.2,43.6h7v7h-7V43.6z
		 M493.7,50.8h7v7h-7V50.8z M500.9,50.8h7v7h-7V50.8z M508.2,50.8h7v7h-7V50.8z M493.7,58.1h7v7h-7V58.1z M500.9,58.1h7v7h-7V58.1z
		 M508.2,58.1h7v7h-7V58.1z M515.5,58.1h7v7h-7V58.1z M493.7,65.3h7v7h-7V65.3z M500.9,65.3h7v7h-7V65.3z M515.5,65.3h7v7h-7V65.3z
		 M522.7,65.3h7v7h-7V65.3z M493.7,72.6h7v7h-7V72.6z M500.9,72.6h7v7h-7V72.6z M515.5,72.6h7v7h-7V72.6z M522.7,72.6h7v7h-7V72.6z
		 M530,72.6h7v7h-7V72.6z M493.7,79.9h7v7h-7V79.9z M500.9,79.9h7v7h-7V79.9z M522.7,79.9h7v7h-7V79.9z M530,79.9h7v7h-7V79.9z
		 M537.2,79.9h7v7h-7V79.9z M544.5,79.9h7v7h-7V79.9z M493.7,87.1h7v7h-7V87.1z M500.9,87.1h7v7h-7V87.1z M530,87.1h7v7h-7V87.1z
		 M537.2,87.1h7v7h-7V87.1z M544.5,87.1h7v7h-7V87.1z M486.4,94.4h7v7h-7V94.4z M493.7,94.4h7v7h-7V94.4z M500.9,94.4h7v7h-7V94.4z
		 M544.5,94.4h7v7h-7V94.4z M551.8,94.4h7v7h-7V94.4z M486.4,101.6h7v7h-7V101.6z M493.7,101.6h7v7h-7V101.6z M500.9,101.6h7v7h-7
		V101.6z M544.5,101.6h7v7h-7V101.6z M551.8,101.6h7v7h-7V101.6z M559,101.6h7v7h-7V101.6z M566.3,101.6h7v7h-7V101.6z M486.4,108.9
		h7v7h-7V108.9z M493.7,108.9h7v7h-7V108.9z M544.5,108.9h7v7h-7V108.9z M566.3,108.9h7v7h-7V108.9z M573.5,108.9h7v7h-7V108.9z
		 M580.8,108.9h7v7h-7V108.9z M588.1,108.9h7v7h-7V108.9z M595.3,108.9h7v7h-7V108.9z M486.4,116.2h7v7h-7V116.2z M493.7,116.2h7v7
		h-7V116.2z M500.9,116.2h7v7h-7V116.2z M544.5,116.2h7v7h-7V116.2z M588.1,116.2h7v7h-7V116.2z M595.3,116.2h7v7h-7V116.2z
		 M602.6,116.2h7v7h-7V116.2z M486.4,123.4h7v7h-7V123.4z M493.7,123.4h7v7h-7V123.4z M500.9,123.4h7v7h-7V123.4z M508.2,123.4h7v7
		h-7V123.4z M537.2,123.4h7v7h-7V123.4z M544.5,123.4h7v7h-7V123.4z M595.3,123.4h7v7h-7V123.4z M486.4,130.7h7v7h-7V130.7z
		 M493.7,130.7h7v7h-7V130.7z M508.2,130.7h7v7h-7V130.7z M515.5,130.7h7v7h-7V130.7z M537.2,130.7h7v7h-7V130.7z M588.1,130.7h7v7
		h-7V130.7z M595.3,130.7h7v7h-7V130.7z M486.4,137.9h7v7h-7V137.9z M493.7,137.9h7v7h-7V137.9z M522.7,137.9h7v7h-7V137.9z
		 M530,137.9h7v7h-7V137.9z M537.2,137.9h7v7h-7V137.9z M588.1,137.9h7v7h-7V137.9z M486.4,145.2h7v7h-7V145.2z M493.7,145.2h7v7h-7
		V145.2z M530,145.2h7v7h-7V145.2z M537.2,145.2h7v7h-7V145.2z M580.8,145.2h7v7h-7V145.2z M486.4,152.5h7v7h-7V152.5z M493.7,152.5
		h7v7h-7V152.5z M530,152.5h7v7h-7V152.5z M537.2,152.5h7v7h-7V152.5z M544.5,152.5h7v7h-7V152.5z M580.8,152.5h7v7h-7V152.5z
		 M479.2,159.7h7v7h-7V159.7z M486.4,159.7h7v7h-7V159.7z M493.7,159.7h7v7h-7V159.7z M530,159.7h7v7h-7V159.7z M544.5,159.7h7v7h-7
		V159.7z M551.8,159.7h7v7h-7V159.7z M559,159.7h7v7h-7V159.7z M566.3,159.7h7v7h-7V159.7z M573.5,159.7h7v7h-7V159.7z M580.8,159.7
		h7v7h-7V159.7z M479.2,167h7v7h-7V167z M486.4,167h7v7h-7V167z M493.7,167h7v7h-7V167z M530,167h7v7h-7V167z M566.3,167h7v7h-7V167
		z M573.5,167h7v7h-7V167z M580.8,167h7v7h-7V167z M479.2,174.2h7v7h-7V174.2z M486.4,174.2h7v7h-7V174.2z M522.7,174.2h7v7h-7
		V174.2z M573.5,174.2h7v7h-7V174.2z M580.8,174.2h7v7h-7V174.2z M479.2,181.5h7v7h-7V181.5z M486.4,181.5h7v7h-7V181.5z
		 M522.7,181.5h7v7h-7V181.5z M566.3,181.5h7v7h-7V181.5z M573.5,181.5h7v7h-7V181.5z M580.8,181.5h7v7h-7V181.5z M479.2,188.8h7v7
		h-7V188.8z M486.4,188.8h7v7h-7V188.8z M493.7,188.8h7v7h-7V188.8z M515.5,188.8h7v7h-7V188.8z M522.7,188.8h7v7h-7V188.8z
		 M566.3,188.8h7v7h-7V188.8z M580.8,188.8h7v7h-7V188.8z M588.1,188.8h7v7h-7V188.8z M479.2,196h7v7h-7V196z M486.4,196h7v7h-7V196
		z M493.7,196h7v7h-7V196z M500.9,196h7v7h-7V196z M515.5,196h7v7h-7V196z M559,196h7v7h-7V196z M566.3,196h7v7h-7V196z M580.8,196
		h7v7h-7V196z M588.1,196h7v7h-7V196z M479.2,203.3h7v7h-7V203.3z M486.4,203.3h7v7h-7V203.3z M500.9,203.3h7v7h-7V203.3z
		 M508.2,203.3h7v7h-7V203.3z M515.5,203.3h7v7h-7V203.3z M559,203.3h7v7h-7V203.3z M588.1,203.3h7v7h-7V203.3z M471.9,210.5h7v7h-7
		V210.5z M479.2,210.5h7v7h-7V210.5z M508.2,210.5h7v7h-7V210.5z M515.5,210.5h7v7h-7V210.5z M522.7,210.5h7v7h-7V210.5z
		 M551.8,210.5h7v7h-7V210.5z M559,210.5h7v7h-7V210.5z M588.1,210.5h7v7h-7V210.5z M595.3,210.5h7v7h-7V210.5z M471.9,217.8h7v7h-7
		V217.8z M479.2,217.8h7v7h-7V217.8z M508.2,217.8h7v7h-7V217.8z M522.7,217.8h7v7h-7V217.8z M530,217.8h7v7h-7V217.8z M537.2,217.8
		h7v7h-7V217.8z M544.5,217.8h7v7h-7V217.8z M551.8,217.8h7v7h-7V217.8z M559,217.8h7v7h-7V217.8z M588.1,217.8h7v7h-7V217.8z
		 M595.3,217.8h7v7h-7V217.8z M471.9,225.1h7v7h-7V225.1z M479.2,225.1h7v7h-7V225.1z M508.2,225.1h7v7h-7V225.1z M544.5,225.1h7v7
		h-7V225.1z M551.8,225.1h7v7h-7V225.1z M588.1,225.1h7v7h-7V225.1z M595.3,225.1h7v7h-7V225.1z M471.9,232.3h7v7h-7V232.3z
		 M479.2,232.3h7v7h-7V232.3z M508.2,232.3h7v7h-7V232.3z M544.5,232.3h7v7h-7V232.3z M551.8,232.3h7v7h-7V232.3z M580.8,232.3h7v7
		h-7V232.3z M588.1,232.3h7v7h-7V232.3z M602.6,232.3h7v7h-7V232.3z M464.6,239.6h7v7h-7V239.6z M471.9,239.6h7v7h-7V239.6z
		 M479.2,239.6h7v7h-7V239.6z M500.9,239.6h7v7h-7V239.6z M544.5,239.6h7v7h-7V239.6z M551.8,239.6h7v7h-7V239.6z M580.8,239.6h7v7
		h-7V239.6z M602.6,239.6h7v7h-7V239.6z M609.8,239.6h7v7h-7V239.6z M464.6,246.8h7v7h-7V246.8z M471.9,246.8h7v7h-7V246.8z
		 M479.2,246.8h7v7h-7V246.8z M500.9,246.8h7v7h-7V246.8z M537.2,246.8h7v7h-7V246.8z M544.5,246.8h7v7h-7V246.8z M573.5,246.8h7v7
		h-7V246.8z M580.8,246.8h7v7h-7V246.8z M602.6,246.8h7v7h-7V246.8z M609.8,246.8h7v7h-7V246.8z M464.6,254.1h7v7h-7V254.1z
		 M471.9,254.1h7v7h-7V254.1z M479.2,254.1h7v7h-7V254.1z M500.9,254.1h7v7h-7V254.1z M537.2,254.1h7v7h-7V254.1z M544.5,254.1h7v7
		h-7V254.1z M573.5,254.1h7v7h-7V254.1z M595.3,254.1h7v7h-7V254.1z M602.6,254.1h7v7h-7V254.1z M464.6,261.4h7v7h-7V261.4z
		 M471.9,261.4h7v7h-7V261.4z M493.7,261.4h7v7h-7V261.4z M530,261.4h7v7h-7V261.4z M537.2,261.4h7v7h-7V261.4z M566.3,261.4h7v7h-7
		V261.4z M573.5,261.4h7v7h-7V261.4z M595.3,261.4h7v7h-7V261.4z M602.6,261.4h7v7h-7V261.4z M464.6,268.6h7v7h-7V268.6z
		 M471.9,268.6h7v7h-7V268.6z M479.2,268.6h7v7h-7V268.6z M493.7,268.6h7v7h-7V268.6z M530,268.6h7v7h-7V268.6z M537.2,268.6h7v7h-7
		V268.6z M544.5,268.6h7v7h-7V268.6z M566.3,268.6h7v7h-7V268.6z M588.1,268.6h7v7h-7V268.6z M595.3,268.6h7v7h-7V268.6z
		 M464.6,275.9h7v7h-7V275.9z M471.9,275.9h7v7h-7V275.9z M479.2,275.9h7v7h-7V275.9z M486.4,275.9h7v7h-7V275.9z M493.7,275.9h7v7
		h-7V275.9z M530,275.9h7v7h-7V275.9z M544.5,275.9h7v7h-7V275.9z M551.8,275.9h7v7h-7V275.9z M559,275.9h7v7h-7V275.9z
		 M566.3,275.9h7v7h-7V275.9z M588.1,275.9h7v7h-7V275.9z M464.6,283.1h7v7h-7V283.1z M471.9,283.1h7v7h-7V283.1z M479.2,283.1h7v7
		h-7V283.1z M486.4,283.1h7v7h-7V283.1z M522.7,283.1h7v7h-7V283.1z M530,283.1h7v7h-7V283.1z M551.8,283.1h7v7h-7V283.1z
		 M559,283.1h7v7h-7V283.1z M580.8,283.1h7v7h-7V283.1z M588.1,283.1h7v7h-7V283.1z M464.6,290.4h7v7h-7V290.4z M471.9,290.4h7v7h-7
		V290.4z M479.2,290.4h7v7h-7V290.4z M486.4,290.4h7v7h-7V290.4z M493.7,290.4h7v7h-7V290.4z M522.7,290.4h7v7h-7V290.4z M530,290.4
		h7v7h-7V290.4z M551.8,290.4h7v7h-7V290.4z M559,290.4h7v7h-7V290.4z M566.3,290.4h7v7h-7V290.4z M573.5,290.4h7v7h-7V290.4z
		 M580.8,290.4h7v7h-7V290.4z M464.6,297.7h7v7h-7V297.7z M471.9,297.7h7v7h-7V297.7z M493.7,297.7h7v7h-7V297.7z M500.9,297.7h7v7
		h-7V297.7z M508.2,297.7h7v7h-7V297.7z M515.5,297.7h7v7h-7V297.7z M522.7,297.7h7v7h-7V297.7z M544.5,297.7h7v7h-7V297.7z
		 M566.3,297.7h7v7h-7V297.7z M573.5,297.7h7v7h-7V297.7z M464.6,304.9h7v7h-7V304.9z M471.9,304.9h7v7h-7V304.9z M508.2,304.9h7v7
		h-7V304.9z M515.5,304.9h7v7h-7V304.9z M522.7,304.9h7v7h-7V304.9z M544.5,304.9h7v7h-7V304.9z M566.3,304.9h7v7h-7V304.9z
		 M573.5,304.9h7v7h-7V304.9z M464.6,312.2h7v7h-7V312.2z M471.9,312.2h7v7h-7V312.2z M515.5,312.2h7v7h-7V312.2z M537.2,312.2h7v7
		h-7V312.2z M559,312.2h7v7h-7V312.2z M566.3,312.2h7v7h-7V312.2z M457.4,319.4h7v7h-7V319.4z M464.6,319.4h7v7h-7V319.4z
		 M508.2,319.4h7v7h-7V319.4z M515.5,319.4h7v7h-7V319.4z M530,319.4h7v7h-7V319.4z M551.8,319.4h7v7h-7V319.4z M559,319.4h7v7h-7
		V319.4z M457.4,326.7h7v7h-7V326.7z M464.6,326.7h7v7h-7V326.7z M508.2,326.7h7v7h-7V326.7z M522.7,326.7h7v7h-7V326.7z M530,326.7
		h7v7h-7V326.7z M551.8,326.7h7v7h-7V326.7z M559,326.7h7v7h-7V326.7z M457.4,334h7v7h-7V334z M464.6,334h7v7h-7V334z M500.9,334h7
		v7h-7V334z M508.2,334h7v7h-7V334z M522.7,334h7v7h-7V334z M544.5,334h7v7h-7V334z M551.8,334h7v7h-7V334z M457.4,341.2h7v7h-7
		V341.2z M464.6,341.2h7v7h-7V341.2z M500.9,341.2h7v7h-7V341.2z M508.2,341.2h7v7h-7V341.2z M515.5,341.2h7v7h-7V341.2z
		 M537.2,341.2h7v7h-7V341.2z M544.5,341.2h7v7h-7V341.2z M457.4,348.5h7v7h-7V348.5z M464.6,348.5h7v7h-7V348.5z M493.7,348.5h7v7
		h-7V348.5z M500.9,348.5h7v7h-7V348.5z M508.2,348.5h7v7h-7V348.5z M515.5,348.5h7v7h-7V348.5z M530,348.5h7v7h-7V348.5z
		 M537.2,348.5h7v7h-7V348.5z M544.5,348.5h7v7h-7V348.5z M457.4,355.7h7v7h-7V355.7z M464.6,355.7h7v7h-7V355.7z M493.7,355.7h7v7
		h-7V355.7z M500.9,355.7h7v7h-7V355.7z M508.2,355.7h7v7h-7V355.7z M515.5,355.7h7v7h-7V355.7z M530,355.7h7v7h-7V355.7z
		 M537.2,355.7h7v7h-7V355.7z M457.4,363h7v7h-7V363z M464.6,363h7v7h-7V363z M486.4,363h7v7h-7V363z M493.7,363h7v7h-7V363z
		 M500.9,363h7v7h-7V363z M508.2,363h7v7h-7V363z M515.5,363h7v7h-7V363z M522.7,363h7v7h-7V363z M530,363h7v7h-7V363z M457.4,370.3
		h7v7h-7V370.3z M464.6,370.3h7v7h-7V370.3z M486.4,370.3h7v7h-7V370.3z M493.7,370.3h7v7h-7V370.3z M450.1,377.5h7v7h-7V377.5z
		 M457.4,377.5h7v7h-7V377.5z M479.2,377.5h7v7h-7V377.5z M486.4,377.5h7v7h-7V377.5z M450.1,384.8h7v7h-7V384.8z M457.4,384.8h7v7
		h-7V384.8z M471.9,384.8h7v7h-7V384.8z M479.2,384.8h7v7h-7V384.8z M486.4,384.8h7v7h-7V384.8z M450.1,392h7v7h-7V392z M457.4,392
		h7v7h-7V392z M464.6,392h7v7h-7V392z M471.9,392h7v7h-7V392z M479.2,392h7v7h-7V392z M486.4,392h7v7h-7V392z M450.1,399.3h7v7h-7
		V399.3z M457.4,399.3h7v7h-7V399.3z M464.6,399.3h7v7h-7V399.3z M471.9,399.3h7v7h-7V399.3z M479.2,399.3h7v7h-7V399.3z
		 M450.1,406.6h7v7h-7V406.6z M464.6,406.6h7v7h-7V406.6z M471.9,406.6h7v7h-7V406.6z M188.8,413.8h7v7h-7V413.8z M196,413.8h7v7h-7
		V413.8z M203.3,413.8h7v7h-7V413.8z M210.5,413.8h7v7h-7V413.8z M217.8,413.8h7v7h-7V413.8z M225.1,413.8h7v7h-7V413.8z
		 M232.3,413.8h7v7h-7V413.8z M239.6,413.8h7v7h-7V413.8z M246.8,413.8h7v7h-7V413.8z M254.1,413.8h7v7h-7V413.8z M261.4,413.8h7v7
		h-7V413.8z M442.9,413.8h7v7h-7V413.8z M450.1,413.8h7v7h-7V413.8z M457.4,413.8h7v7h-7V413.8z M464.6,413.8h7v7h-7V413.8z
		 M181.5,421.1h7v7h-7V421.1z M188.8,421.1h7v7h-7V421.1z M196,421.1h7v7h-7V421.1z M203.3,421.1h7v7h-7V421.1z M210.5,421.1h7v7h-7
		V421.1z M217.8,421.1h7v7h-7V421.1z M225.1,421.1h7v7h-7V421.1z M232.3,421.1h7v7h-7V421.1z M239.6,421.1h7v7h-7V421.1z
		 M246.8,421.1h7v7h-7V421.1z M254.1,421.1h7v7h-7V421.1z M261.4,421.1h7v7h-7V421.1z M268.6,421.1h7v7h-7V421.1z M275.9,421.1h7v7
		h-7V421.1z M283.1,421.1h7v7h-7V421.1z M290.4,421.1h7v7h-7V421.1z M297.7,421.1h7v7h-7V421.1z M304.9,421.1h7v7h-7V421.1z
		 M312.2,421.1h7v7h-7V421.1z M319.4,421.1h7v7h-7V421.1z M326.7,421.1h7v7h-7V421.1z M442.9,421.1h7v7h-7V421.1z M450.1,421.1h7v7
		h-7V421.1z M457.4,421.1h7v7h-7V421.1z M464.6,421.1h7v7h-7V421.1z M181.5,428.3h7v7h-7V428.3z M254.1,428.3h7v7h-7V428.3z
		 M304.9,428.3h7v7h-7V428.3z M312.2,428.3h7v7h-7V428.3z M319.4,428.3h7v7h-7V428.3z M326.7,428.3h7v7h-7V428.3z M334,428.3h7v7h-7
		V428.3z M435.6,428.3h7v7h-7V428.3z M442.9,428.3h7v7h-7V428.3z M450.1,428.3h7v7h-7V428.3z M457.4,428.3h7v7h-7V428.3z
		 M174.2,435.6h7v7h-7V435.6z M210.5,435.6h7v7h-7V435.6z M217.8,435.6h7v7h-7V435.6z M225.1,435.6h7v7h-7V435.6z M232.3,435.6h7v7
		h-7V435.6z M246.8,435.6h7v7h-7V435.6z M254.1,435.6h7v7h-7V435.6z M334,435.6h7v7h-7V435.6z M421.1,435.6h7v7h-7V435.6z
		 M428.3,435.6h7v7h-7V435.6z M435.6,435.6h7v7h-7V435.6z M442.9,435.6h7v7h-7V435.6z M450.1,435.6h7v7h-7V435.6z M457.4,435.6h7v7
		h-7V435.6z M174.2,442.9h7v7h-7V442.9z M181.5,442.9h7v7h-7V442.9z M188.8,442.9h7v7h-7V442.9z M196,442.9h7v7h-7V442.9z
		 M203.3,442.9h7v7h-7V442.9z M210.5,442.9h7v7h-7V442.9z M217.8,442.9h7v7h-7V442.9z M225.1,442.9h7v7h-7V442.9z M232.3,442.9h7v7
		h-7V442.9z M239.6,442.9h7v7h-7V442.9z M246.8,442.9h7v7h-7V442.9z M254.1,442.9h7v7h-7V442.9z M261.4,442.9h7v7h-7V442.9z
		 M268.6,442.9h7v7h-7V442.9z M275.9,442.9h7v7h-7V442.9z M283.1,442.9h7v7h-7V442.9z M290.4,442.9h7v7h-7V442.9z M297.7,442.9h7v7
		h-7V442.9z M304.9,442.9h7v7h-7V442.9z M312.2,442.9h7v7h-7V442.9z M319.4,442.9h7v7h-7V442.9z M326.7,442.9h7v7h-7V442.9z
		 M334,442.9h7v7h-7V442.9z M370.3,442.9h7v7h-7V442.9z M377.5,442.9h7v7h-7V442.9z M384.8,442.9h7v7h-7V442.9z M421.1,442.9h7v7h-7
		V442.9z M450.1,442.9h7v7h-7V442.9z M457.4,442.9h7v7h-7V442.9z M464.6,442.9h7v7h-7V442.9z M167,450.1h7v7h-7V450.1z M246.8,450.1
		h7v7h-7V450.1z M319.4,450.1h7v7h-7V450.1z M326.7,450.1h7v7h-7V450.1z M334,450.1h7v7h-7V450.1z M341.2,450.1h7v7h-7V450.1z
		 M348.5,450.1h7v7h-7V450.1z M355.7,450.1h7v7h-7V450.1z M363,450.1h7v7h-7V450.1z M370.3,450.1h7v7h-7V450.1z M377.5,450.1h7v7h-7
		V450.1z M384.8,450.1h7v7h-7V450.1z M392,450.1h7v7h-7V450.1z M399.3,450.1h7v7h-7V450.1z M406.6,450.1h7v7h-7V450.1z M413.8,450.1
		h7v7h-7V450.1z M421.1,450.1h7v7h-7V450.1z M457.4,450.1h7v7h-7V450.1z M464.6,450.1h7v7h-7V450.1z M159.7,457.4h7v7h-7V457.4z
		 M167,457.4h7v7h-7V457.4z M239.6,457.4h7v7h-7V457.4z M246.8,457.4h7v7h-7V457.4z M268.6,457.4h7v7h-7V457.4z M275.9,457.4h7v7h-7
		V457.4z M283.1,457.4h7v7h-7V457.4z M290.4,457.4h7v7h-7V457.4z M297.7,457.4h7v7h-7V457.4z M304.9,457.4h7v7h-7V457.4z
		 M312.2,457.4h7v7h-7V457.4z M319.4,457.4h7v7h-7V457.4z M326.7,457.4h7v7h-7V457.4z M334,457.4h7v7h-7V457.4z M341.2,457.4h7v7h-7
		V457.4z M348.5,457.4h7v7h-7V457.4z M355.7,457.4h7v7h-7V457.4z M363,457.4h7v7h-7V457.4z M370.3,457.4h7v7h-7V457.4z M377.5,457.4
		h7v7h-7V457.4z M384.8,457.4h7v7h-7V457.4z M392,457.4h7v7h-7V457.4z M399.3,457.4h7v7h-7V457.4z M406.6,457.4h7v7h-7V457.4z
		 M413.8,457.4h7v7h-7V457.4z M421.1,457.4h7v7h-7V457.4z M457.4,457.4h7v7h-7V457.4z M464.6,457.4h7v7h-7V457.4z M159.7,464.6h7v7
		h-7V464.6z M225.1,464.6h7v7h-7V464.6z M232.3,464.6h7v7h-7V464.6z M239.6,464.6h7v7h-7V464.6z M246.8,464.6h7v7h-7V464.6z
		 M254.1,464.6h7v7h-7V464.6z M261.4,464.6h7v7h-7V464.6z M268.6,464.6h7v7h-7V464.6z M275.9,464.6h7v7h-7V464.6z M283.1,464.6h7v7
		h-7V464.6z M290.4,464.6h7v7h-7V464.6z M297.7,464.6h7v7h-7V464.6z M304.9,464.6h7v7h-7V464.6z M384.8,464.6h7v7h-7V464.6z
		 M392,464.6h7v7h-7V464.6z M399.3,464.6h7v7h-7V464.6z M406.6,464.6h7v7h-7V464.6z M413.8,464.6h7v7h-7V464.6z M421.1,464.6h7v7h-7
		V464.6z M428.3,464.6h7v7h-7V464.6z M435.6,464.6h7v7h-7V464.6z M442.9,464.6h7v7h-7V464.6z M450.1,464.6h7v7h-7V464.6z
		 M457.4,464.6h7v7h-7V464.6z M464.6,464.6h7v7h-7V464.6z M471.9,464.6h7v7h-7V464.6z M152.5,471.9h7v7h-7V471.9z M188.8,471.9h7v7
		h-7V471.9z M196,471.9h7v7h-7V471.9z M203.3,471.9h7v7h-7V471.9z M210.5,471.9h7v7h-7V471.9z M217.8,471.9h7v7h-7V471.9z
		 M225.1,471.9h7v7h-7V471.9z M232.3,471.9h7v7h-7V471.9z M239.6,471.9h7v7h-7V471.9z M246.8,471.9h7v7h-7V471.9z M254.1,471.9h7v7
		h-7V471.9z M261.4,471.9h7v7h-7V471.9z M283.1,471.9h7v7h-7V471.9z M290.4,471.9h7v7h-7V471.9z M377.5,471.9h7v7h-7V471.9z
		 M384.8,471.9h7v7h-7V471.9z M392,471.9h7v7h-7V471.9z M399.3,471.9h7v7h-7V471.9z M428.3,471.9h7v7h-7V471.9z M435.6,471.9h7v7h-7
		V471.9z M442.9,471.9h7v7h-7V471.9z M450.1,471.9h7v7h-7V471.9z M457.4,471.9h7v7h-7V471.9z M464.6,471.9h7v7h-7V471.9z
		 M471.9,471.9h7v7h-7V471.9z M479.2,471.9h7v7h-7V471.9z M486.4,471.9h7v7h-7V471.9z M137.9,479.2h7v7h-7V479.2z M145.2,479.2h7v7
		h-7V479.2z M152.5,479.2h7v7h-7V479.2z M159.7,479.2h7v7h-7V479.2z M167,479.2h7v7h-7V479.2z M174.2,479.2h7v7h-7V479.2z
		 M181.5,479.2h7v7h-7V479.2z M188.8,479.2h7v7h-7V479.2z M196,479.2h7v7h-7V479.2z M203.3,479.2h7v7h-7V479.2z M210.5,479.2h7v7h-7
		V479.2z M283.1,479.2h7v7h-7V479.2z M290.4,479.2h7v7h-7V479.2z M363,479.2h7v7h-7V479.2z M370.3,479.2h7v7h-7V479.2z M377.5,479.2
		h7v7h-7V479.2z M384.8,479.2h7v7h-7V479.2z M450.1,479.2h7v7h-7V479.2z M457.4,479.2h7v7h-7V479.2z M464.6,479.2h7v7h-7V479.2z
		 M471.9,479.2h7v7h-7V479.2z M479.2,479.2h7v7h-7V479.2z M486.4,479.2h7v7h-7V479.2z M493.7,479.2h7v7h-7V479.2z M101.6,486.4h7v7
		h-7V486.4z M108.9,486.4h7v7h-7V486.4z M116.2,486.4h7v7h-7V486.4z M123.4,486.4h7v7h-7V486.4z M130.7,486.4h7v7h-7V486.4z
		 M137.9,486.4h7v7h-7V486.4z M145.2,486.4h7v7h-7V486.4z M152.5,486.4h7v7h-7V486.4z M159.7,486.4h7v7h-7V486.4z M203.3,486.4h7v7
		h-7V486.4z M283.1,486.4h7v7h-7V486.4z M290.4,486.4h7v7h-7V486.4z M341.2,486.4h7v7h-7V486.4z M348.5,486.4h7v7h-7V486.4z
		 M355.7,486.4h7v7h-7V486.4z M363,486.4h7v7h-7V486.4z M370.3,486.4h7v7h-7V486.4z M457.4,486.4h7v7h-7V486.4z M464.6,486.4h7v7h-7
		V486.4z M471.9,486.4h7v7h-7V486.4z M479.2,486.4h7v7h-7V486.4z M486.4,486.4h7v7h-7V486.4z M493.7,486.4h7v7h-7V486.4z
		 M500.9,486.4h7v7h-7V486.4z M508.2,486.4h7v7h-7V486.4z M79.9,493.7h7v7h-7V493.7z M87.1,493.7h7v7h-7V493.7z M94.4,493.7h7v7h-7
		V493.7z M101.6,493.7h7v7h-7V493.7z M108.9,493.7h7v7h-7V493.7z M116.2,493.7h7v7h-7V493.7z M123.4,493.7h7v7h-7V493.7z
		 M137.9,493.7h7v7h-7V493.7z M145.2,493.7h7v7h-7V493.7z M203.3,493.7h7v7h-7V493.7z M283.1,493.7h7v7h-7V493.7z M290.4,493.7h7v7
		h-7V493.7z M326.7,493.7h7v7h-7V493.7z M334,493.7h7v7h-7V493.7z M341.2,493.7h7v7h-7V493.7z M348.5,493.7h7v7h-7V493.7z
		 M355.7,493.7h7v7h-7V493.7z M464.6,493.7h7v7h-7V493.7z M471.9,493.7h7v7h-7V493.7z M479.2,493.7h7v7h-7V493.7z M493.7,493.7h7v7
		h-7V493.7z M500.9,493.7h7v7h-7V493.7z M508.2,493.7h7v7h-7V493.7z M515.5,493.7h7v7h-7V493.7z M79.9,500.9h7v7h-7V500.9z
		 M87.1,500.9h7v7h-7V500.9z M145.2,500.9h7v7h-7V500.9z M203.3,500.9h7v7h-7V500.9z M261.4,500.9h7v7h-7V500.9z M268.6,500.9h7v7
		h-7V500.9z M275.9,500.9h7v7h-7V500.9z M283.1,500.9h7v7h-7V500.9z M290.4,500.9h7v7h-7V500.9z M297.7,500.9h7v7h-7V500.9z
		 M304.9,500.9h7v7h-7V500.9z M312.2,500.9h7v7h-7V500.9z M319.4,500.9h7v7h-7V500.9z M326.7,500.9h7v7h-7V500.9z M334,500.9h7v7h-7
		V500.9z M341.2,500.9h7v7h-7V500.9z M464.6,500.9h7v7h-7V500.9z M471.9,500.9h7v7h-7V500.9z M479.2,500.9h7v7h-7V500.9z
		 M500.9,500.9h7v7h-7V500.9z M508.2,500.9h7v7h-7V500.9z M515.5,500.9h7v7h-7V500.9z M522.7,500.9h7v7h-7V500.9z M87.1,508.2h7v7
		h-7V508.2z M145.2,508.2h7v7h-7V508.2z M203.3,508.2h7v7h-7V508.2z M210.5,508.2h7v7h-7V508.2z M217.8,508.2h7v7h-7V508.2z
		 M225.1,508.2h7v7h-7V508.2z M232.3,508.2h7v7h-7V508.2z M239.6,508.2h7v7h-7V508.2z M246.8,508.2h7v7h-7V508.2z M254.1,508.2h7v7
		h-7V508.2z M261.4,508.2h7v7h-7V508.2z M268.6,508.2h7v7h-7V508.2z M283.1,508.2h7v7h-7V508.2z M290.4,508.2h7v7h-7V508.2z
		 M297.7,508.2h7v7h-7V508.2z M304.9,508.2h7v7h-7V508.2z M312.2,508.2h7v7h-7V508.2z M319.4,508.2h7v7h-7V508.2z M471.9,508.2h7v7
		h-7V508.2z M479.2,508.2h7v7h-7V508.2z M486.4,508.2h7v7h-7V508.2z M515.5,508.2h7v7h-7V508.2z M522.7,508.2h7v7h-7V508.2z
		 M530,508.2h7v7h-7V508.2z M537.2,508.2h7v7h-7V508.2z M87.1,515.5h7v7h-7V515.5z M145.2,515.5h7v7h-7V515.5z M188.8,515.5h7v7h-7
		V515.5z M196,515.5h7v7h-7V515.5z M203.3,515.5h7v7h-7V515.5z M210.5,515.5h7v7h-7V515.5z M217.8,515.5h7v7h-7V515.5z M225.1,515.5
		h7v7h-7V515.5z M232.3,515.5h7v7h-7V515.5z M275.9,515.5h7v7h-7V515.5z M283.1,515.5h7v7h-7V515.5z M290.4,515.5h7v7h-7V515.5z
		 M297.7,515.5h7v7h-7V515.5z M304.9,515.5h7v7h-7V515.5z M479.2,515.5h7v7h-7V515.5z M486.4,515.5h7v7h-7V515.5z M493.7,515.5h7v7
		h-7V515.5z M530,515.5h7v7h-7V515.5z M537.2,515.5h7v7h-7V515.5z M544.5,515.5h7v7h-7V515.5z M551.8,515.5h7v7h-7V515.5z
		 M87.1,522.7h7v7h-7V522.7z M94.4,522.7h7v7h-7V522.7z M145.2,522.7h7v7h-7V522.7z M152.5,522.7h7v7h-7V522.7z M159.7,522.7h7v7h-7
		V522.7z M167,522.7h7v7h-7V522.7z M174.2,522.7h7v7h-7V522.7z M181.5,522.7h7v7h-7V522.7z M188.8,522.7h7v7h-7V522.7z M196,522.7h7
		v7h-7V522.7z M203.3,522.7h7v7h-7V522.7z M210.5,522.7h7v7h-7V522.7z M261.4,522.7h7v7h-7V522.7z M268.6,522.7h7v7h-7V522.7z
		 M275.9,522.7h7v7h-7V522.7z M283.1,522.7h7v7h-7V522.7z M290.4,522.7h7v7h-7V522.7z M486.4,522.7h7v7h-7V522.7z M493.7,522.7h7v7
		h-7V522.7z M544.5,522.7h7v7h-7V522.7z M551.8,522.7h7v7h-7V522.7z M559,522.7h7v7h-7V522.7z M87.1,530h7v7h-7V530z M94.4,530h7v7
		h-7V530z M123.4,530h7v7h-7V530z M130.7,530h7v7h-7V530z M137.9,530h7v7h-7V530z M145.2,530h7v7h-7V530z M152.5,530h7v7h-7V530z
		 M159.7,530h7v7h-7V530z M203.3,530h7v7h-7V530z M246.8,530h7v7h-7V530z M254.1,530h7v7h-7V530z M261.4,530h7v7h-7V530z M268.6,530
		h7v7h-7V530z M275.9,530h7v7h-7V530z M493.7,530h7v7h-7V530z M500.9,530h7v7h-7V530z M551.8,530h7v7h-7V530z M559,530h7v7h-7V530z
		 M566.3,530h7v7h-7V530z M573.5,530h7v7h-7V530z M87.1,537.2h7v7h-7V537.2z M94.4,537.2h7v7h-7V537.2z M101.6,537.2h7v7h-7V537.2z
		 M108.9,537.2h7v7h-7V537.2z M116.2,537.2h7v7h-7V537.2z M123.4,537.2h7v7h-7V537.2z M130.7,537.2h7v7h-7V537.2z M145.2,537.2h7v7
		h-7V537.2z M203.3,537.2h7v7h-7V537.2z M232.3,537.2h7v7h-7V537.2z M239.6,537.2h7v7h-7V537.2z M246.8,537.2h7v7h-7V537.2z
		 M254.1,537.2h7v7h-7V537.2z M261.4,537.2h7v7h-7V537.2z M500.9,537.2h7v7h-7V537.2z M508.2,537.2h7v7h-7V537.2z M566.3,537.2h7v7
		h-7V537.2z M573.5,537.2h7v7h-7V537.2z M580.8,537.2h7v7h-7V537.2z M588.1,537.2h7v7h-7V537.2z M595.3,537.2h7v7h-7V537.2z
		 M87.1,544.5h7v7h-7V544.5z M94.4,544.5h7v7h-7V544.5z M145.2,544.5h7v7h-7V544.5z M203.3,544.5h7v7h-7V544.5z M210.5,544.5h7v7h-7
		V544.5z M217.8,544.5h7v7h-7V544.5z M225.1,544.5h7v7h-7V544.5z M232.3,544.5h7v7h-7V544.5z M239.6,544.5h7v7h-7V544.5z
		 M493.7,544.5h7v7h-7V544.5z M500.9,544.5h7v7h-7V544.5z M508.2,544.5h7v7h-7V544.5z M515.5,544.5h7v7h-7V544.5z M566.3,544.5h7v7
		h-7V544.5z M573.5,544.5h7v7h-7V544.5z M580.8,544.5h7v7h-7V544.5z M588.1,544.5h7v7h-7V544.5z M595.3,544.5h7v7h-7V544.5z
		 M602.6,544.5h7v7h-7V544.5z M87.1,551.8h7v7h-7V551.8z M94.4,551.8h7v7h-7V551.8z M137.9,551.8h7v7h-7V551.8z M145.2,551.8h7v7h-7
		V551.8z M188.8,551.8h7v7h-7V551.8z M196,551.8h7v7h-7V551.8z M203.3,551.8h7v7h-7V551.8z M210.5,551.8h7v7h-7V551.8z M217.8,551.8
		h7v7h-7V551.8z M225.1,551.8h7v7h-7V551.8z M486.4,551.8h7v7h-7V551.8z M493.7,551.8h7v7h-7V551.8z M500.9,551.8h7v7h-7V551.8z
		 M508.2,551.8h7v7h-7V551.8z M515.5,551.8h7v7h-7V551.8z M522.7,551.8h7v7h-7V551.8z M559,551.8h7v7h-7V551.8z M566.3,551.8h7v7h-7
		V551.8z M573.5,551.8h7v7h-7V551.8z M580.8,551.8h7v7h-7V551.8z M588.1,551.8h7v7h-7V551.8z M595.3,551.8h7v7h-7V551.8z
		 M602.6,551.8h7v7h-7V551.8z M609.8,551.8h7v7h-7V551.8z M617.1,551.8h7v7h-7V551.8z M87.1,559h7v7h-7V559z M94.4,559h7v7h-7V559z
		 M137.9,559h7v7h-7V559z M145.2,559h7v7h-7V559z M174.2,559h7v7h-7V559z M181.5,559h7v7h-7V559z M188.8,559h7v7h-7V559z M196,559h7
		v7h-7V559z M203.3,559h7v7h-7V559z M479.2,559h7v7h-7V559z M486.4,559h7v7h-7V559z M500.9,559h7v7h-7V559z M508.2,559h7v7h-7V559z
		 M522.7,559h7v7h-7V559z M530,559h7v7h-7V559z M551.8,559h7v7h-7V559z M559,559h7v7h-7V559z M566.3,559h7v7h-7V559z M573.5,559h7v7
		h-7V559z M609.8,559h7v7h-7V559z M617.1,559h7v7h-7V559z M624.4,559h7v7h-7V559z M631.6,559h7v7h-7V559z M79.9,566.3h7v7h-7V566.3z
		 M87.1,566.3h7v7h-7V566.3z M137.9,566.3h7v7h-7V566.3z M159.7,566.3h7v7h-7V566.3z M167,566.3h7v7h-7V566.3z M174.2,566.3h7v7h-7
		V566.3z M181.5,566.3h7v7h-7V566.3z M188.8,566.3h7v7h-7V566.3z M486.4,566.3h7v7h-7V566.3z M508.2,566.3h7v7h-7V566.3z
		 M515.5,566.3h7v7h-7V566.3z M530,566.3h7v7h-7V566.3z M537.2,566.3h7v7h-7V566.3z M544.5,566.3h7v7h-7V566.3z M551.8,566.3h7v7h-7
		V566.3z M573.5,566.3h7v7h-7V566.3z M580.8,566.3h7v7h-7V566.3z M588.1,566.3h7v7h-7V566.3z M617.1,566.3h7v7h-7V566.3z
		 M624.4,566.3h7v7h-7V566.3z M631.6,566.3h7v7h-7V566.3z M638.9,566.3h7v7h-7V566.3z M79.9,573.5h7v7h-7V573.5z M87.1,573.5h7v7h-7
		V573.5z M137.9,573.5h7v7h-7V573.5z M145.2,573.5h7v7h-7V573.5z M152.5,573.5h7v7h-7V573.5z M159.7,573.5h7v7h-7V573.5z M167,573.5
		h7v7h-7V573.5z M174.2,573.5h7v7h-7V573.5z M486.4,573.5h7v7h-7V573.5z M493.7,573.5h7v7h-7V573.5z M515.5,573.5h7v7h-7V573.5z
		 M530,573.5h7v7h-7V573.5z M537.2,573.5h7v7h-7V573.5z M544.5,573.5h7v7h-7V573.5z M580.8,573.5h7v7h-7V573.5z M588.1,573.5h7v7h-7
		V573.5z M595.3,573.5h7v7h-7V573.5z M631.6,573.5h7v7h-7V573.5z M638.9,573.5h7v7h-7V573.5z M646.1,573.5h7v7h-7V573.5z
		 M653.4,573.5h7v7h-7V573.5z M79.9,580.8h7v7h-7V580.8z M87.1,580.8h7v7h-7V580.8z M130.7,580.8h7v7h-7V580.8z M137.9,580.8h7v7h-7
		V580.8z M145.2,580.8h7v7h-7V580.8z M152.5,580.8h7v7h-7V580.8z M493.7,580.8h7v7h-7V580.8z M500.9,580.8h7v7h-7V580.8z
		 M522.7,580.8h7v7h-7V580.8z M537.2,580.8h7v7h-7V580.8z M544.5,580.8h7v7h-7V580.8z M551.8,580.8h7v7h-7V580.8z M588.1,580.8h7v7
		h-7V580.8z M595.3,580.8h7v7h-7V580.8z M602.6,580.8h7v7h-7V580.8z M646.1,580.8h7v7h-7V580.8z M653.4,580.8h7v7h-7V580.8z
		 M660.7,580.8h7v7h-7V580.8z M79.9,588.1h7v7h-7V588.1z M87.1,588.1h7v7h-7V588.1z M116.2,588.1h7v7h-7V588.1z M123.4,588.1h7v7h-7
		V588.1z M130.7,588.1h7v7h-7V588.1z M137.9,588.1h7v7h-7V588.1z M145.2,588.1h7v7h-7V588.1z M493.7,588.1h7v7h-7V588.1z
		 M500.9,588.1h7v7h-7V588.1z M522.7,588.1h7v7h-7V588.1z M544.5,588.1h7v7h-7V588.1z M551.8,588.1h7v7h-7V588.1z M559,588.1h7v7h-7
		V588.1z M602.6,588.1h7v7h-7V588.1z M609.8,588.1h7v7h-7V588.1z M653.4,588.1h7v7h-7V588.1z M660.7,588.1h7v7h-7V588.1z
		 M667.9,588.1h7v7h-7V588.1z M675.2,588.1h7v7h-7V588.1z M72.6,595.3h7v7h-7V595.3z M79.9,595.3h7v7h-7V595.3z M101.6,595.3h7v7h-7
		V595.3z M108.9,595.3h7v7h-7V595.3z M116.2,595.3h7v7h-7V595.3z M123.4,595.3h7v7h-7V595.3z M130.7,595.3h7v7h-7V595.3z
		 M500.9,595.3h7v7h-7V595.3z M508.2,595.3h7v7h-7V595.3z M530,595.3h7v7h-7V595.3z M551.8,595.3h7v7h-7V595.3z M559,595.3h7v7h-7
		V595.3z M566.3,595.3h7v7h-7V595.3z M609.8,595.3h7v7h-7V595.3z M617.1,595.3h7v7h-7V595.3z M646.1,595.3h7v7h-7V595.3z
		 M653.4,595.3h7v7h-7V595.3z M660.7,595.3h7v7h-7V595.3z M667.9,595.3h7v7h-7V595.3z M675.2,595.3h7v7h-7V595.3z M682.4,595.3h7v7
		h-7V595.3z M689.7,595.3h7v7h-7V595.3z M72.6,602.6h7v7h-7V602.6z M79.9,602.6h7v7h-7V602.6z M87.1,602.6h7v7h-7V602.6z
		 M94.4,602.6h7v7h-7V602.6z M101.6,602.6h7v7h-7V602.6z M108.9,602.6h7v7h-7V602.6z M508.2,602.6h7v7h-7V602.6z M515.5,602.6h7v7
		h-7V602.6z M537.2,602.6h7v7h-7V602.6z M566.3,602.6h7v7h-7V602.6z M573.5,602.6h7v7h-7V602.6z M617.1,602.6h7v7h-7V602.6z
		 M624.4,602.6h7v7h-7V602.6z M631.6,602.6h7v7h-7V602.6z M638.9,602.6h7v7h-7V602.6z M646.1,602.6h7v7h-7V602.6z M653.4,602.6h7v7
		h-7V602.6z M675.2,602.6h7v7h-7V602.6z M682.4,602.6h7v7h-7V602.6z M689.7,602.6h7v7h-7V602.6z M697,602.6h7v7h-7V602.6z
		 M72.6,609.8h7v7h-7V609.8z M79.9,609.8h7v7h-7V609.8z M87.1,609.8h7v7h-7V609.8z M94.4,609.8h7v7h-7V609.8z M508.2,609.8h7v7h-7
		V609.8z M515.5,609.8h7v7h-7V609.8z M537.2,609.8h7v7h-7V609.8z M544.5,609.8h7v7h-7V609.8z M559,609.8h7v7h-7V609.8z M566.3,609.8
		h7v7h-7V609.8z M573.5,609.8h7v7h-7V609.8z M580.8,609.8h7v7h-7V609.8z M624.4,609.8h7v7h-7V609.8z M631.6,609.8h7v7h-7V609.8z
		 M638.9,609.8h7v7h-7V609.8z M646.1,609.8h7v7h-7V609.8z M689.7,609.8h7v7h-7V609.8z M697,609.8h7v7h-7V609.8z M704.2,609.8h7v7h-7
		V609.8z M711.5,609.8h7v7h-7V609.8z M72.6,617.1h7v7h-7V617.1z M79.9,617.1h7v7h-7V617.1z M515.5,617.1h7v7h-7V617.1z M522.7,617.1
		h7v7h-7V617.1z M544.5,617.1h7v7h-7V617.1z M551.8,617.1h7v7h-7V617.1z M559,617.1h7v7h-7V617.1z M580.8,617.1h7v7h-7V617.1z
		 M588.1,617.1h7v7h-7V617.1z M617.1,617.1h7v7h-7V617.1z M624.4,617.1h7v7h-7V617.1z M631.6,617.1h7v7h-7V617.1z M646.1,617.1h7v7
		h-7V617.1z M697,617.1h7v7h-7V617.1z M704.2,617.1h7v7h-7V617.1z M711.5,617.1h7v7h-7V617.1z M718.7,617.1h7v7h-7V617.1z
		 M726,617.1h7v7h-7V617.1z M522.7,624.4h7v7h-7V624.4z M530,624.4h7v7h-7V624.4z M537.2,624.4h7v7h-7V624.4z M544.5,624.4h7v7h-7
		V624.4z M551.8,624.4h7v7h-7V624.4z M588.1,624.4h7v7h-7V624.4z M595.3,624.4h7v7h-7V624.4z M609.8,624.4h7v7h-7V624.4z
		 M617.1,624.4h7v7h-7V624.4z M653.4,624.4h7v7h-7V624.4z M718.7,624.4h7v7h-7V624.4z M726,624.4h7v7h-7V624.4z M733.3,624.4h7v7h-7
		V624.4z M740.5,624.4h7v7h-7V624.4z M522.7,631.6h7v7h-7V631.6z M530,631.6h7v7h-7V631.6z M551.8,631.6h7v7h-7V631.6z M559,631.6h7
		v7h-7V631.6z M595.3,631.6h7v7h-7V631.6z M602.6,631.6h7v7h-7V631.6z M609.8,631.6h7v7h-7V631.6z M653.4,631.6h7v7h-7V631.6z
		 M660.7,631.6h7v7h-7V631.6z M711.5,631.6h7v7h-7V631.6z M718.7,631.6h7v7h-7V631.6z M726,631.6h7v7h-7V631.6z M733.3,631.6h7v7h-7
		V631.6z M740.5,631.6h7v7h-7V631.6z M747.8,631.6h7v7h-7V631.6z M755,631.6h7v7h-7V631.6z M530,638.9h7v7h-7V638.9z M537.2,638.9h7
		v7h-7V638.9z M559,638.9h7v7h-7V638.9z M602.6,638.9h7v7h-7V638.9z M609.8,638.9h7v7h-7V638.9z M660.7,638.9h7v7h-7V638.9z
		 M667.9,638.9h7v7h-7V638.9z M697,638.9h7v7h-7V638.9z M704.2,638.9h7v7h-7V638.9z M740.5,638.9h7v7h-7V638.9z M747.8,638.9h7v7h-7
		V638.9z M755,638.9h7v7h-7V638.9z M762.3,638.9h7v7h-7V638.9z M769.6,638.9h7v7h-7V638.9z M537.2,646.1h7v7h-7V646.1z M566.3,646.1
		h7v7h-7V646.1z M609.8,646.1h7v7h-7V646.1z M617.1,646.1h7v7h-7V646.1z M667.9,646.1h7v7h-7V646.1z M675.2,646.1h7v7h-7V646.1z
		 M682.4,646.1h7v7h-7V646.1z M689.7,646.1h7v7h-7V646.1z M755,646.1h7v7h-7V646.1z M762.3,646.1h7v7h-7V646.1z M769.6,646.1h7v7h-7
		V646.1z M776.8,646.1h7v7h-7V646.1z M537.2,653.4h7v7h-7V653.4z M544.5,653.4h7v7h-7V653.4z M566.3,653.4h7v7h-7V653.4z
		 M573.5,653.4h7v7h-7V653.4z M617.1,653.4h7v7h-7V653.4z M624.4,653.4h7v7h-7V653.4z M675.2,653.4h7v7h-7V653.4z M682.4,653.4h7v7
		h-7V653.4z M689.7,653.4h7v7h-7V653.4z M769.6,653.4h7v7h-7V653.4z M776.8,653.4h7v7h-7V653.4z M784.1,653.4h7v7h-7V653.4z
		 M791.3,653.4h7v7h-7V653.4z M544.5,660.7h7v7h-7V660.7z M551.8,660.7h7v7h-7V660.7z M573.5,660.7h7v7h-7V660.7z M580.8,660.7h7v7
		h-7V660.7z M624.4,660.7h7v7h-7V660.7z M631.6,660.7h7v7h-7V660.7z M660.7,660.7h7v7h-7V660.7z M689.7,660.7h7v7h-7V660.7z
		 M697,660.7h7v7h-7V660.7z M762.3,660.7h7v7h-7V660.7z M769.6,660.7h7v7h-7V660.7z M776.8,660.7h7v7h-7V660.7z M784.1,660.7h7v7h-7
		V660.7z M791.3,660.7h7v7h-7V660.7z M551.8,667.9h7v7h-7V667.9z M559,667.9h7v7h-7V667.9z M580.8,667.9h7v7h-7V667.9z M588.1,667.9
		h7v7h-7V667.9z M631.6,667.9h7v7h-7V667.9z M638.9,667.9h7v7h-7V667.9z M653.4,667.9h7v7h-7V667.9z M660.7,667.9h7v7h-7V667.9z
		 M697,667.9h7v7h-7V667.9z M704.2,667.9h7v7h-7V667.9z M740.5,667.9h7v7h-7V667.9z M747.8,667.9h7v7h-7V667.9z M755,667.9h7v7h-7
		V667.9z M762.3,667.9h7v7h-7V667.9z M769.6,667.9h7v7h-7V667.9z M776.8,667.9h7v7h-7V667.9z M559,675.2h7v7h-7V675.2z M588.1,675.2
		h7v7h-7V675.2z M595.3,675.2h7v7h-7V675.2z M602.6,675.2h7v7h-7V675.2z M609.8,675.2h7v7h-7V675.2z M617.1,675.2h7v7h-7V675.2z
		 M624.4,675.2h7v7h-7V675.2z M631.6,675.2h7v7h-7V675.2z M638.9,675.2h7v7h-7V675.2z M646.1,675.2h7v7h-7V675.2z M653.4,675.2h7v7
		h-7V675.2z M704.2,675.2h7v7h-7V675.2z M711.5,675.2h7v7h-7V675.2z M718.7,675.2h7v7h-7V675.2z M733.3,675.2h7v7h-7V675.2z
		 M740.5,675.2h7v7h-7V675.2z M747.8,675.2h7v7h-7V675.2z M755,675.2h7v7h-7V675.2z M566.3,682.4h7v7h-7V682.4z M573.5,682.4h7v7h-7
		V682.4z M580.8,682.4h7v7h-7V682.4z M588.1,682.4h7v7h-7V682.4z M595.3,682.4h7v7h-7V682.4z M602.6,682.4h7v7h-7V682.4z
		 M609.8,682.4h7v7h-7V682.4z M617.1,682.4h7v7h-7V682.4z M624.4,682.4h7v7h-7V682.4z M631.6,682.4h7v7h-7V682.4z M638.9,682.4h7v7
		h-7V682.4z M646.1,682.4h7v7h-7V682.4z M653.4,682.4h7v7h-7V682.4z M718.7,682.4h7v7h-7V682.4z M726,682.4h7v7h-7V682.4z
		 M733.3,682.4h7v7h-7V682.4z M740.5,682.4h7v7h-7V682.4z M747.8,682.4h7v7h-7V682.4z M653.4,689.7h7v7h-7V689.7z M660.7,689.7h7v7
		h-7V689.7z M711.5,689.7h7v7h-7V689.7z M718.7,689.7h7v7h-7V689.7z M726,689.7h7v7h-7V689.7z M660.7,697h7v7h-7V697z M667.9,697h7
		v7h-7V697z M704.2,697h7v7h-7V697z M711.5,697h7v7h-7V697z M667.9,704.2h7v7h-7V704.2z M675.2,704.2h7v7h-7V704.2z M697,704.2h7v7
		h-7V704.2z M704.2,704.2h7v7h-7V704.2z M675.2,711.5h7v7h-7V711.5z M689.7,711.5h7v7h-7V711.5z M697,711.5h7v7h-7V711.5z
		 M682.4,718.7h7v7h-7V718.7z M689.7,718.7h7v7h-7V718.7z"/>
</g>
</svg>
