<?xml version="1.0" encoding="utf-8"?>
<!-- Generator: Adobe Illustrator 27.3.1, SVG Export Plug-In . SVG Version: 6.00 Build 0)  -->
<svg version="1.1" xmlns="http://www.w3.org/2000/svg" xmlns:xlink="http://www.w3.org/1999/xlink" x="0px" y="0px"
	 viewBox="0 0 871 871" style="enable-background:new 0 0 871 871;" xml:space="preserve">
<style type="text/css">
	.st0{fill:#FCEABA;}
	.st1{fill:#1E0E01;}
</style>
<g id="Слой_2">
	<path class="st0" d="M721,755c0-1.4-1.1-2.5-2.5-2.5h-4.8v-4.8c0-1.4-1.1-2.5-2.5-2.5h-4.8v-4.8c0-1.4-1.1-2.5-2.5-2.5h-4.8v-4.8
		c0-1.4-1.1-2.5-2.5-2.5h-4.8V726c0-1.4-1.1-2.5-2.5-2.5h-4.8v-4.8c0-1.4-1.1-2.5-2.5-2.5h-4.8v-4.8c0-1.4-1.1-2.5-2.5-2.5h-4.8
		v-4.8c0-1.4-1.1-2.5-2.5-2.5h-4.8V697c0-1.4-1.1-2.5-2.5-2.5h-4.8v-4.8c0-1.4-1.1-2.5-2.5-2.5h-4.8v-4.8c0-1.4-1.1-2.5-2.5-2.5
		h-4.8v-4.8c0,0,0-0.1,0-0.1c0,0,0-0.1,0-0.1v-7c0-1.4-1.1-2.5-2.5-2.5h-4.8v-4.8c0-1.4-1.1-2.5-2.5-2.5h-4.8v-4.8
		c0-1.4-1.1-2.5-2.5-2.5h-4.8v-4.8c0-1.4-1.1-2.5-2.5-2.5h-4.8v-4.8c0-1.4-1.1-2.5-2.5-2.5h-4.8v-4.8c0,0,0-0.1,0-0.1
		c0,0,0-0.1,0-0.1v-7c0-1.4-1.1-2.5-2.5-2.5h-4.8v-4.8c0-1.4-1.1-2.5-2.5-2.5h-4.8v-4.8c0-1.4-1.1-2.5-2.5-2.5H583v-4.8
		c0-1.4-1.1-2.5-2.5-2.5h-4.8v-4.8c0-1.4-1.1-2.5-2.5-2.5h-4.8v-4.8c0-1.4-1.1-2.5-2.5-2.5h-4.8v-4.8c0-1.4-1.1-2.5-2.5-2.5H554
		v-4.8c0-1.4-1.1-2.5-2.5-2.5h-4.8v-4.8c0-1.4-1.1-2.5-2.5-2.5h-4.8V559c0-1.4-1.1-2.5-2.5-2.5h-4.8v-4.8c0,0,0-0.1,0-0.1
		c0,0,0-0.1,0-0.1v-7c0-1.4-1.1-2.5-2.5-2.5H525v-4.8c0-1.4-1.1-2.5-2.5-2.5h-4.8V530c0-1.4-1.1-2.5-2.5-2.5h-4.8v-4.8
		c0-1.4-1.1-2.5-2.5-2.5h-4.8v-4.8c0,0,0-0.1,0-0.1c0,0,0-0.1,0-0.1v-7c0-1.4-1.1-2.5-2.5-2.5h-4.8v-4.8c0-1.4-1.1-2.5-2.5-2.5h-4.8
		v-4.8c0-1.4-1.1-2.5-2.5-2.5h-4.8v-4.8c0,0,0-0.1,0-0.1c0,0,0-0.1,0-0.1v-7c0-1.4-1.1-2.5-2.5-2.5h-4.8v-4.8c0-1.4-1.1-2.5-2.5-2.5
		h-4.8v-2.5h4.8c1.4,0,2.5-1.1,2.5-2.5v-7c0,0,0-0.1,0-0.1c0,0,0-0.1,0-0.1v-7c0-1.4-1.1-2.5-2.5-2.5h-4.8v-2.5h4.8
		c1.4,0,2.5-1.1,2.5-2.5v-4.8h4.8c1.4,0,2.5-1.1,2.5-2.5v-4.8h4.8c0,0,0.1,0,0.1,0c0,0,0.1,0,0.1,0h7c1.4,0,2.5-1.1,2.5-2.5v-4.8
		h4.8c1.4,0,2.5-1.1,2.5-2.5v-4.8h4.8c1.4,0,2.5-1.1,2.5-2.5v-4.8h4.8c1.4,0,2.5-1.1,2.5-2.5v-4.8h4.8c1.4,0,2.5-1.1,2.5-2.5v-4.8
		h4.8c0,0,0.1,0,0.1,0c0,0,0.1,0,0.1,0h4.8v4.8c0,1.4,1.1,2.5,2.5,2.5h4.8v4.8c0,1.4,1.1,2.5,2.5,2.5h7c0,0,0.1,0,0.1,0
		c0,0,0.1,0,0.1,0h7c1.4,0,2.5-1.1,2.5-2.5v-4.8h4.8c1.4,0,2.5-1.1,2.5-2.5v-4.8h4.8c0,0,0.1,0,0.1,0c0,0,0.1,0,0.1,0h7
		c1.4,0,2.5-1.1,2.5-2.5V387h4.8c1.4,0,2.5-1.1,2.5-2.5v-4.8h4.8c1.4,0,2.5-1.1,2.5-2.5v-4.8h4.8c0,0,0.1,0,0.1,0c0,0,0.1,0,0.1,0h7
		c1.4,0,2.5-1.1,2.5-2.5v-4.8h4.8c1.4,0,2.5-1.1,2.5-2.5V358h4.8c1.4,0,2.5-1.1,2.5-2.5v-4.8h4.8c1.4,0,2.5-1.1,2.5-2.5v-4.8h4.8
		c0,0,0.1,0,0.1,0c0,0,0.1,0,0.1,0h7c1.4,0,2.5-1.1,2.5-2.5v-4.8h4.8c1.4,0,2.5-1.1,2.5-2.5v-4.8h4.8c1.4,0,2.5-1.1,2.5-2.5v-4.8
		h4.8c1.4,0,2.5-1.1,2.5-2.5v-4.8h4.8c1.4,0,2.5-1.1,2.5-2.5v-7c0,0,0-0.1,0-0.1c0,0,0-0.1,0-0.1v-7c0-1.4-1.1-2.5-2.5-2.5h-4.8
		v-4.8c0,0,0-0.1,0-0.1c0,0,0-0.1,0-0.1v-7c0,0,0-0.1,0-0.1c0,0,0-0.1,0-0.1v-7c0,0,0-0.1,0-0.1c0,0,0-0.1,0-0.1v-7c0,0,0-0.1,0-0.1
		c0,0,0-0.1,0-0.1v-7c0,0,0-0.1,0-0.1c0,0,0-0.1,0-0.1v-7c0,0,0-0.1,0-0.1c0,0,0-0.1,0-0.1v-7c0,0,0-0.1,0-0.1c0,0,0-0.1,0-0.1v-7
		c0,0,0-0.1,0-0.1c0,0,0-0.1,0-0.1v-7c0,0,0-0.1,0-0.1c0,0,0-0.1,0-0.1v-4.8h4.8c1.4,0,2.5-1.1,2.5-2.5v-7c0,0,0-0.1,0-0.1
		c0,0,0-0.1,0-0.1v-4.8h4.8c1.4,0,2.5-1.1,2.5-2.5v-4.8h4.8c0,0,0.1,0,0.1,0c0,0,0.1,0,0.1,0h7c1.4,0,2.5-1.1,2.5-2.5v-4.8h4.8
		c1.4,0,2.5-1.1,2.5-2.5v-7c0,0,0-0.1,0-0.1c0,0,0-0.1,0-0.1v-7c0-1.4-1.1-2.5-2.5-2.5h-4.8v-4.8c0-1.4-1.1-2.5-2.5-2.5h-4.8V167
		c0-1.4-1.1-2.5-2.5-2.5h-7c0,0-0.1,0-0.1,0c0,0-0.1,0-0.1,0h-4.8v-4.8c0-1.4-1.1-2.5-2.5-2.5h-4.8v-4.8c0,0,0-0.1,0-0.1
		c0,0,0-0.1,0-0.1v-7c0-1.4-1.1-2.5-2.5-2.5h-4.8v-4.8c0,0,0-0.1,0-0.1c0,0,0-0.1,0-0.1v-7c0-1.4-1.1-2.5-2.5-2.5h-4.8v-4.8
		c0,0,0-0.1,0-0.1c0,0,0-0.1,0-0.1v-7c0-1.4-1.1-2.5-2.5-2.5h-4.8v-4.8c0,0,0-0.1,0-0.1c0,0,0-0.1,0-0.1v-7c0-1.4-1.1-2.5-2.5-2.5
		h-4.8v-4.8c0,0,0-0.1,0-0.1c0,0,0-0.1,0-0.1v-7c0-1.4-1.1-2.5-2.5-2.5h-4.8v-4.8c0-1.4-1.1-2.5-2.5-2.5h-7c-1.4,0-2.5,1.1-2.5,2.5
		v4.8h-4.8c-1.4,0-2.5,1.1-2.5,2.5v7c0,0,0,0.1,0,0.1c0,0,0,0.1,0,0.1v4.8h-4.8c-1.4,0-2.5,1.1-2.5,2.5v7c0,0,0,0.1,0,0.1
		c0,0,0,0.1,0,0.1v4.8h-4.8c-1.4,0-2.5,1.1-2.5,2.5v7c0,0,0,0.1,0,0.1c0,0,0,0.1,0,0.1v4.8h-4.8c-1.4,0-2.5,1.1-2.5,2.5v7
		c0,0,0,0.1,0,0.1c0,0,0,0.1,0,0.1v7c0,0,0,0.1,0,0.1c0,0,0,0.1,0,0.1v4.8h-4.8c-1.4,0-2.5,1.1-2.5,2.5v7c0,0,0,0.1,0,0.1
		c0,0,0,0.1,0,0.1v4.8h-4.8c-1.4,0-2.5,1.1-2.5,2.5v7c0,0,0,0.1,0,0.1c0,0,0,0.1,0,0.1v4.8h-4.8c-1.4,0-2.5,1.1-2.5,2.5v7
		c0,0,0,0.1,0,0.1c0,0,0,0.1,0,0.1v4.8h-4.8c-1.4,0-2.5,1.1-2.5,2.5v7c0,0,0,0.1,0,0.1c0,0,0,0.1,0,0.1v4.8H559
		c-1.4,0-2.5,1.1-2.5,2.5v7c0,0,0,0.1,0,0.1c0,0,0,0.1,0,0.1v4.8h-4.8c-1.4,0-2.5,1.1-2.5,2.5v7c0,0,0,0.1,0,0.1c0,0,0,0.1,0,0.1
		v4.8h-4.8c-1.4,0-2.5,1.1-2.5,2.5v4.8h-4.8c-1.4,0-2.5,1.1-2.5,2.5v7c0,0,0,0.1,0,0.1c0,0,0,0.1,0,0.1v4.8H530
		c-1.4,0-2.5,1.1-2.5,2.5v7c0,0,0,0.1,0,0.1c0,0,0,0.1,0,0.1v4.8h-4.8c-1.4,0-2.5,1.1-2.5,2.5v7c0,0,0,0.1,0,0.1c0,0,0,0.1,0,0.1v7
		c0,0,0,0.1,0,0.1c0,0,0,0.1,0,0.1v4.8h-4.8c-1.4,0-2.5,1.1-2.5,2.5v7c0,0,0,0.1,0,0.1c0,0,0,0.1,0,0.1v4.8h-4.8
		c-1.4,0-2.5,1.1-2.5,2.5v7c0,0,0,0.1,0,0.1c0,0,0,0.1,0,0.1v4.8h-4.8c-1.4,0-2.5,1.1-2.5,2.5v7c0,0,0,0.1,0,0.1c0,0,0,0.1,0,0.1v7
		c0,0,0,0.1,0,0.1c0,0,0,0.1,0,0.1v4.8h-4.8c-1.4,0-2.5,1.1-2.5,2.5v7c0,0,0,0.1,0,0.1c0,0,0,0.1,0,0.1v4.8h-4.8
		c-1.4,0-2.5,1.1-2.5,2.5v7c0,0,0,0.1,0,0.1c0,0,0,0.1,0,0.1v4.8h-4.8c-1.4,0-2.5,1.1-2.5,2.5v4.8h-4.8c-1.4,0-2.5,1.1-2.5,2.5v7
		c0,0,0,0.1,0,0.1c0,0,0,0.1,0,0.1v4.8h-4.8c-1.4,0-2.5,1.1-2.5,2.5v7c0,0,0,0.1,0,0.1c0,0,0,0.1,0,0.1v4.8h-4.8
		c-1.4,0-2.5,1.1-2.5,2.5v7c0,0,0,0.1,0,0.1c0,0,0,0.1,0,0.1v4.8h-4.8c0,0-0.1,0-0.1,0c0,0-0.1,0-0.1,0h-7c0,0-0.1,0-0.1,0
		c0,0-0.1,0-0.1,0h-7c-1.4,0-2.5,1.1-2.5,2.5v4.8h-4.8c0,0-0.1,0-0.1,0c0,0-0.1,0-0.1,0h-7c-1.4,0-2.5,1.1-2.5,2.5v4.8h-2.5v-4.8
		c0-1.4-1.1-2.5-2.5-2.5h-7c0,0-0.1,0-0.1,0c0,0-0.1,0-0.1,0h-4.8v-4.8c0-1.4-1.1-2.5-2.5-2.5h-7c0,0-0.1,0-0.1,0c0,0-0.1,0-0.1,0
		H387v-4.8c0-1.4-1.1-2.5-2.5-2.5h-7c0,0-0.1,0-0.1,0c0,0-0.1,0-0.1,0h-7c0,0-0.1,0-0.1,0c0,0-0.1,0-0.1,0h-7c0,0-0.1,0-0.1,0
		c0,0-0.1,0-0.1,0h-7c0,0-0.1,0-0.1,0c0,0-0.1,0-0.1,0h-4.8v-4.8c0,0,0-0.1,0-0.1c0,0,0-0.1,0-0.1v-4.8h4.8c1.4,0,2.5-1.1,2.5-2.5
		v-7c0,0,0-0.1,0-0.1c0,0,0-0.1,0-0.1v-7c0-1.4-1.1-2.5-2.5-2.5h-4.8v-4.8c0-1.4-1.1-2.5-2.5-2.5h-7c0,0-0.1,0-0.1,0
		c0,0-0.1,0-0.1,0h-7c0,0-0.1,0-0.1,0c0,0-0.1,0-0.1,0h-4.8v-4.8c0-1.4-1.1-2.5-2.5-2.5h-7c0,0-0.1,0-0.1,0c0,0-0.1,0-0.1,0h-4.8
		v-4.8c0-1.4-1.1-2.5-2.5-2.5h-7c0,0-0.1,0-0.1,0c0,0-0.1,0-0.1,0h-7c0,0-0.1,0-0.1,0c0,0-0.1,0-0.1,0h-4.8V363
		c0-1.4-1.1-2.5-2.5-2.5h-7c0,0-0.1,0-0.1,0c0,0-0.1,0-0.1,0h-4.8v-4.8c0-1.4-1.1-2.5-2.5-2.5h-7c0,0-0.1,0-0.1,0c0,0-0.1,0-0.1,0
		h-7c0,0-0.1,0-0.1,0c0,0-0.1,0-0.1,0h-4.8v-4.8c0-1.4-1.1-2.5-2.5-2.5h-7c0,0-0.1,0-0.1,0c0,0-0.1,0-0.1,0h-4.8v-4.8
		c0-1.4-1.1-2.5-2.5-2.5h-7c0,0-0.1,0-0.1,0c0,0-0.1,0-0.1,0h-7c0,0-0.1,0-0.1,0c0,0-0.1,0-0.1,0h-7c0,0-0.1,0-0.1,0
		c0,0-0.1,0-0.1,0h-7c0,0-0.1,0-0.1,0c0,0-0.1,0-0.1,0h-7c-1.4,0-2.5,1.1-2.5,2.5v4.8H196c-1.4,0-2.5,1.1-2.5,2.5v4.8h-4.8
		c-1.4,0-2.5,1.1-2.5,2.5v4.8h-4.8c-1.4,0-2.5,1.1-2.5,2.5v4.8h-4.8c-1.4,0-2.5,1.1-2.5,2.5v4.8H167c0,0-0.1,0-0.1,0
		c0,0-0.1,0-0.1,0h-7c-1.4,0-2.5,1.1-2.5,2.5v4.8h-4.8c0,0-0.1,0-0.1,0c0,0-0.1,0-0.1,0h-7c0,0-0.1,0-0.1,0c0,0-0.1,0-0.1,0h-7
		c0,0-0.1,0-0.1,0c0,0-0.1,0-0.1,0h-7c0,0-0.1,0-0.1,0c0,0-0.1,0-0.1,0h-7c0,0-0.1,0-0.1,0c0,0-0.1,0-0.1,0h-7c0,0-0.1,0-0.1,0
		c0,0-0.1,0-0.1,0h-4.8v-4.8c0-1.4-1.1-2.5-2.5-2.5h-7c0,0-0.1,0-0.1,0c0,0-0.1,0-0.1,0h-7c0,0-0.1,0-0.1,0c0,0-0.1,0-0.1,0h-7
		c-1.4,0-2.5,1.1-2.5,2.5v7c0,0,0,0.1,0,0.1c0,0,0,0.1,0,0.1v7c0,0,0,0.1,0,0.1c0,0,0,0.1,0,0.1v7c0,0,0,0.1,0,0.1c0,0,0,0.1,0,0.1
		v4.8h-4.8c-1.4,0-2.5,1.1-2.5,2.5v7c0,0,0,0.1,0,0.1c0,0,0,0.1,0,0.1v7c0,0,0,0.1,0,0.1c0,0,0,0.1,0,0.1v4.8h-4.8
		c-1.4,0-2.5,1.1-2.5,2.5v7c0,0,0,0.1,0,0.1c0,0,0,0.1,0,0.1v4.8h-4.8c-1.4,0-2.5,1.1-2.5,2.5v7c0,0,0,0.1,0,0.1c0,0,0,0.1,0,0.1
		v4.8h-4.8c-1.4,0-2.5,1.1-2.5,2.5v4.8h-4.8c-1.4,0-2.5,1.1-2.5,2.5v7c0,0,0,0.1,0,0.1c0,0,0,0.1,0,0.1v4.8h-4.8
		c-1.4,0-2.5,1.1-2.5,2.5v4.8h-4.8c-1.4,0-2.5,1.1-2.5,2.5v7c0,0,0,0.1,0,0.1c0,0,0,0.1,0,0.1v7c0,1.4,1.1,2.5,2.5,2.5h7
		c0,0,0.1,0,0.1,0c0,0,0.1,0,0.1,0h7c0,0,0.1,0,0.1,0c0,0,0.1,0,0.1,0h7c0,0,0.1,0,0.1,0c0,0,0.1,0,0.1,0h7c0,0,0.1,0,0.1,0
		c0,0,0.1,0,0.1,0h7c0,0,0.1,0,0.1,0c0,0,0.1,0,0.1,0h7c1.4,0,2.5-1.1,2.5-2.5v-4.8h4.8c0,0,0.1,0,0.1,0c0,0,0.1,0,0.1,0h7
		c0,0,0.1,0,0.1,0c0,0,0.1,0,0.1,0h7c0,0,0.1,0,0.1,0c0,0,0.1,0,0.1,0h7c0,0,0.1,0,0.1,0c0,0,0.1,0,0.1,0h7c0,0,0.1,0,0.1,0
		c0,0,0.1,0,0.1,0h7c0,0,0.1,0,0.1,0c0,0,0.1,0,0.1,0h7c1.4,0,2.5-1.1,2.5-2.5v-4.8h4.8c0,0,0.1,0,0.1,0c0,0,0.1,0,0.1,0h7
		c0,0,0.1,0,0.1,0c0,0,0.1,0,0.1,0h7c0,0,0.1,0,0.1,0c0,0,0.1,0,0.1,0h7c0,0,0.1,0,0.1,0c0,0,0.1,0,0.1,0h7c0,0,0.1,0,0.1,0
		c0,0,0.1,0,0.1,0h7c0,0,0.1,0,0.1,0c0,0,0.1,0,0.1,0h7c0,0,0.1,0,0.1,0c0,0,0.1,0,0.1,0h7c0,0,0.1,0,0.1,0c0,0,0.1,0,0.1,0h7
		c0,0,0.1,0,0.1,0c0,0,0.1,0,0.1,0h7c0,0,0.1,0,0.1,0c0,0,0.1,0,0.1,0h7c0,0,0.1,0,0.1,0c0,0,0.1,0,0.1,0h7c0,0,0.1,0,0.1,0
		c0,0,0.1,0,0.1,0h7c1.4,0,2.5-1.1,2.5-2.5v-4.8h4.8c0,0,0.1,0,0.1,0c0,0,0.1,0,0.1,0h7c0,0,0.1,0,0.1,0c0,0,0.1,0,0.1,0h7
		c0,0,0.1,0,0.1,0c0,0,0.1,0,0.1,0h7c0,0,0.1,0,0.1,0c0,0,0.1,0,0.1,0h7c0,0,0.1,0,0.1,0c0,0,0.1,0,0.1,0h7c0,0,0.1,0,0.1,0
		c0,0,0.1,0,0.1,0h7c0,0,0.1,0,0.1,0c0,0,0.1,0,0.1,0h7c0,0,0.1,0,0.1,0c0,0,0.1,0,0.1,0h7c1.4,0,2.5-1.1,2.5-2.5v-4.8h4.8
		c0,0,0.1,0,0.1,0c0,0,0.1,0,0.1,0h7c0,0,0.1,0,0.1,0c0,0,0.1,0,0.1,0h7c0,0,0.1,0,0.1,0c0,0,0.1,0,0.1,0h7c0,0,0.1,0,0.1,0
		c0,0,0.1,0,0.1,0h7c0,0,0.1,0,0.1,0c0,0,0.1,0,0.1,0h7c0,0,0.1,0,0.1,0c0,0,0.1,0,0.1,0h7c0,0,0.1,0,0.1,0c0,0,0.1,0,0.1,0h7
		c0,0,0.1,0,0.1,0c0,0,0.1,0,0.1,0h7c0,0,0.1,0,0.1,0c0,0,0.1,0,0.1,0h7c1.4,0,2.5-1.1,2.5-2.5v-4.8h4.8c0,0,0.1,0,0.1,0
		c0,0,0.1,0,0.1,0h7c0,0,0.1,0,0.1,0c0,0,0.1,0,0.1,0h7c0,0,0.1,0,0.1,0c0,0,0.1,0,0.1,0h7c0,0,0.1,0,0.1,0c0,0,0.1,0,0.1,0h7
		c0,0,0.1,0,0.1,0c0,0,0.1,0,0.1,0h7c0,0,0.1,0,0.1,0c0,0,0.1,0,0.1,0h7c0,0,0.1,0,0.1,0c0,0,0.1,0,0.1,0h4.8v4.8
		c0,1.4,1.1,2.5,2.5,2.5h4.8v4.8c0,1.4,1.1,2.5,2.5,2.5h7c0,0,0.1,0,0.1,0c0,0,0.1,0,0.1,0h4.8v4.8c0,0,0,0.1,0,0.1c0,0,0,0.1,0,0.1
		v7c0,0,0,0.1,0,0.1c0,0,0,0.1,0,0.1v7c0,1.4,1.1,2.5,2.5,2.5h4.8v4.8c0,0,0,0.1,0,0.1c0,0,0,0.1,0,0.1v7c0,0,0,0.1,0,0.1
		c0,0,0,0.1,0,0.1v7c0,1.4,1.1,2.5,2.5,2.5h4.8v4.8c0,0,0,0.1,0,0.1c0,0,0,0.1,0,0.1v7c0,1.4,1.1,2.5,2.5,2.5h4.8v4.8
		c0,0,0,0.1,0,0.1c0,0,0,0.1,0,0.1v7c0,1.4,1.1,2.5,2.5,2.5h4.8v2.5h-4.8c0,0-0.1,0-0.1,0c0,0-0.1,0-0.1,0h-7
		c-1.4,0-2.5,1.1-2.5,2.5v4.8h-4.8c0,0-0.1,0-0.1,0c0,0-0.1,0-0.1,0h-7c-1.4,0-2.5,1.1-2.5,2.5v7c0,0,0,0.1,0,0.1c0,0,0,0.1,0,0.1v7
		c0,1.4,1.1,2.5,2.5,2.5h4.8v4.8c0,0,0,0.1,0,0.1c0,0,0,0.1,0,0.1v7c0,0,0,0.1,0,0.1c0,0,0,0.1,0,0.1v7c0,0,0,0.1,0,0.1
		c0,0,0,0.1,0,0.1v7c0,0,0,0.1,0,0.1c0,0,0,0.1,0,0.1v7c0,1.4,1.1,2.5,2.5,2.5h4.8v4.8c0,0,0,0.1,0,0.1c0,0,0,0.1,0,0.1v7
		c0,0,0,0.1,0,0.1c0,0,0,0.1,0,0.1v7c0,1.4,1.1,2.5,2.5,2.5h4.8v4.8c0,0,0,0.1,0,0.1c0,0,0,0.1,0,0.1v7c0,0,0,0.1,0,0.1
		c0,0,0,0.1,0,0.1v7c0,0,0,0.1,0,0.1c0,0,0,0.1,0,0.1v7c0,1.4,1.1,2.5,2.5,2.5h4.8v4.8c0,0,0,0.1,0,0.1c0,0,0,0.1,0,0.1v7
		c0,0,0,0.1,0,0.1c0,0,0,0.1,0,0.1v7c0,0,0,0.1,0,0.1c0,0,0,0.1,0,0.1v7c0,1.4,1.1,2.5,2.5,2.5h4.8v4.8c0,0,0,0.1,0,0.1
		c0,0,0,0.1,0,0.1v7c0,1.4,1.1,2.5,2.5,2.5h4.8v4.8c0,1.4,1.1,2.5,2.5,2.5h4.8v4.8c0,1.4,1.1,2.5,2.5,2.5h7c0,0,0.1,0,0.1,0
		c0,0,0.1,0,0.1,0h7c0,0,0.1,0,0.1,0c0,0,0.1,0,0.1,0h7c0,0,0.1,0,0.1,0c0,0,0.1,0,0.1,0h7c0,0,0.1,0,0.1,0c0,0,0.1,0,0.1,0h4.8v4.8
		c0,1.4,1.1,2.5,2.5,2.5h7c0,0,0.1,0,0.1,0c0,0,0.1,0,0.1,0h7c0,0,0.1,0,0.1,0c0,0,0.1,0,0.1,0h4.8v4.8c0,1.4,1.1,2.5,2.5,2.5h7
		c0,0,0.1,0,0.1,0c0,0,0.1,0,0.1,0h4.8v4.8c0,0,0,0.1,0,0.1c0,0,0,0.1,0,0.1v7c0,1.4,1.1,2.5,2.5,2.5h4.8v4.8c0,0,0,0.1,0,0.1
		c0,0,0,0.1,0,0.1v7c0,0,0,0.1,0,0.1c0,0,0,0.1,0,0.1v7c0,1.4,1.1,2.5,2.5,2.5h4.8v4.8c0,1.4,1.1,2.5,2.5,2.5h4.8v4.8
		c0,1.4,1.1,2.5,2.5,2.5h7c0,0,0.1,0,0.1,0c0,0,0.1,0,0.1,0h7c1.4,0,2.5-1.1,2.5-2.5v-4.8h4.8c0,0,0.1,0,0.1,0c0,0,0.1,0,0.1,0h7
		c1.4,0,2.5-1.1,2.5-2.5v-4.8h4.8c0,0,0.1,0,0.1,0c0,0,0.1,0,0.1,0h7c0,0,0.1,0,0.1,0c0,0,0.1,0,0.1,0h7c0,0,0.1,0,0.1,0
		c0,0,0.1,0,0.1,0h7c0,0,0.1,0,0.1,0c0,0,0.1,0,0.1,0h7c0,0,0.1,0,0.1,0c0,0,0.1,0,0.1,0h7c1.4,0,2.5-1.1,2.5-2.5v-4.8h4.8
		c0,0,0.1,0,0.1,0c0,0,0.1,0,0.1,0h7c0,0,0.1,0,0.1,0c0,0,0.1,0,0.1,0h7c0,0,0.1,0,0.1,0c0,0,0.1,0,0.1,0h7c0,0,0.1,0,0.1,0
		c0,0,0.1,0,0.1,0h7c0,0,0.1,0,0.1,0c0,0,0.1,0,0.1,0h7c0,0,0.1,0,0.1,0c0,0,0.1,0,0.1,0h7c0,0,0.1,0,0.1,0c0,0,0.1,0,0.1,0h7
		c1.4,0,2.5-1.1,2.5-2.5v-7c0,0,0-0.1,0-0.1c0,0,0-0.1,0-0.1V755z"/>
</g>
<g id="Слой_1" xmlns:ev="http://www.w3.org/2001/xml-events">
	<path class="st1" d="M624.4,79.9h7v7h-7V79.9z M617.1,87.1h7v7h-7V87.1z M624.4,87.1h7v7h-7V87.1z M631.6,87.1h7v7h-7V87.1z
		 M617.1,94.4h7v7h-7V94.4z M624.4,94.4h7v7h-7V94.4z M631.6,94.4h7v7h-7V94.4z M609.8,101.6h7v7h-7V101.6z M617.1,101.6h7v7h-7
		V101.6z M624.4,101.6h7v7h-7V101.6z M631.6,101.6h7v7h-7V101.6z M638.9,101.6h7v7h-7V101.6z M609.8,108.9h7v7h-7V108.9z
		 M617.1,108.9h7v7h-7V108.9z M631.6,108.9h7v7h-7V108.9z M638.9,108.9h7v7h-7V108.9z M602.6,116.2h7v7h-7V116.2z M609.8,116.2h7v7
		h-7V116.2z M617.1,116.2h7v7h-7V116.2z M631.6,116.2h7v7h-7V116.2z M638.9,116.2h7v7h-7V116.2z M646.1,116.2h7v7h-7V116.2z
		 M602.6,123.4h7v7h-7V123.4z M609.8,123.4h7v7h-7V123.4z M638.9,123.4h7v7h-7V123.4z M646.1,123.4h7v7h-7V123.4z M595.3,130.7h7v7
		h-7V130.7z M602.6,130.7h7v7h-7V130.7z M609.8,130.7h7v7h-7V130.7z M638.9,130.7h7v7h-7V130.7z M646.1,130.7h7v7h-7V130.7z
		 M653.4,130.7h7v7h-7V130.7z M595.3,137.9h7v7h-7V137.9z M602.6,137.9h7v7h-7V137.9z M646.1,137.9h7v7h-7V137.9z M653.4,137.9h7v7
		h-7V137.9z M595.3,145.2h7v7h-7V145.2z M602.6,145.2h7v7h-7V145.2z M653.4,145.2h7v7h-7V145.2z M660.7,145.2h7v7h-7V145.2z
		 M588.1,152.5h7v7h-7V152.5z M595.3,152.5h7v7h-7V152.5z M602.6,152.5h7v7h-7V152.5z M653.4,152.5h7v7h-7V152.5z M660.7,152.5h7v7
		h-7V152.5z M588.1,159.7h7v7h-7V159.7z M595.3,159.7h7v7h-7V159.7z M602.6,159.7h7v7h-7V159.7z M646.1,159.7h7v7h-7V159.7z
		 M653.4,159.7h7v7h-7V159.7z M660.7,159.7h7v7h-7V159.7z M667.9,159.7h7v7h-7V159.7z M580.8,167h7v7h-7V167z M588.1,167h7v7h-7V167
		z M609.8,167h7v7h-7V167z M638.9,167h7v7h-7V167z M646.1,167h7v7h-7V167z M667.9,167h7v7h-7V167z M675.2,167h7v7h-7V167z
		 M682.4,167h7v7h-7V167z M580.8,174.2h7v7h-7V174.2z M588.1,174.2h7v7h-7V174.2z M609.8,174.2h7v7h-7V174.2z M617.1,174.2h7v7h-7
		V174.2z M631.6,174.2h7v7h-7V174.2z M638.9,174.2h7v7h-7V174.2z M675.2,174.2h7v7h-7V174.2z M682.4,174.2h7v7h-7V174.2z
		 M689.7,174.2h7v7h-7V174.2z M573.5,181.5h7v7h-7V181.5z M580.8,181.5h7v7h-7V181.5z M588.1,181.5h7v7h-7V181.5z M617.1,181.5h7v7
		h-7V181.5z M631.6,181.5h7v7h-7V181.5z M689.7,181.5h7v7h-7V181.5z M697,181.5h7v7h-7V181.5z M573.5,188.8h7v7h-7V188.8z
		 M580.8,188.8h7v7h-7V188.8z M617.1,188.8h7v7h-7V188.8z M624.4,188.8h7v7h-7V188.8z M631.6,188.8h7v7h-7V188.8z M689.7,188.8h7v7
		h-7V188.8z M697,188.8h7v7h-7V188.8z M566.3,196h7v7h-7V196z M573.5,196h7v7h-7V196z M580.8,196h7v7h-7V196z M624.4,196h7v7h-7V196
		z M682.4,196h7v7h-7V196z M689.7,196h7v7h-7V196z M566.3,203.3h7v7h-7V203.3z M573.5,203.3h7v7h-7V203.3z M617.1,203.3h7v7h-7
		V203.3z M624.4,203.3h7v7h-7V203.3z M631.6,203.3h7v7h-7V203.3z M675.2,203.3h7v7h-7V203.3z M559,210.5h7v7h-7V210.5z M566.3,210.5
		h7v7h-7V210.5z M573.5,210.5h7v7h-7V210.5z M609.8,210.5h7v7h-7V210.5z M617.1,210.5h7v7h-7V210.5z M638.9,210.5h7v7h-7V210.5z
		 M646.1,210.5h7v7h-7V210.5z M667.9,210.5h7v7h-7V210.5z M559,217.8h7v7h-7V217.8z M566.3,217.8h7v7h-7V217.8z M573.5,217.8h7v7h-7
		V217.8z M602.6,217.8h7v7h-7V217.8z M609.8,217.8h7v7h-7V217.8z M646.1,217.8h7v7h-7V217.8z M653.4,217.8h7v7h-7V217.8z
		 M660.7,217.8h7v7h-7V217.8z M667.9,217.8h7v7h-7V217.8z M551.8,225.1h7v7h-7V225.1z M559,225.1h7v7h-7V225.1z M566.3,225.1h7v7h-7
		V225.1z M573.5,225.1h7v7h-7V225.1z M595.3,225.1h7v7h-7V225.1z M602.6,225.1h7v7h-7V225.1z M653.4,225.1h7v7h-7V225.1z
		 M660.7,225.1h7v7h-7V225.1z M551.8,232.3h7v7h-7V232.3z M559,232.3h7v7h-7V232.3z M573.5,232.3h7v7h-7V232.3z M595.3,232.3h7v7h-7
		V232.3z M646.1,232.3h7v7h-7V232.3z M653.4,232.3h7v7h-7V232.3z M660.7,232.3h7v7h-7V232.3z M544.5,239.6h7v7h-7V239.6z
		 M551.8,239.6h7v7h-7V239.6z M580.8,239.6h7v7h-7V239.6z M588.1,239.6h7v7h-7V239.6z M638.9,239.6h7v7h-7V239.6z M646.1,239.6h7v7
		h-7V239.6z M653.4,239.6h7v7h-7V239.6z M660.7,239.6h7v7h-7V239.6z M537.2,246.8h7v7h-7V246.8z M544.5,246.8h7v7h-7V246.8z
		 M551.8,246.8h7v7h-7V246.8z M580.8,246.8h7v7h-7V246.8z M588.1,246.8h7v7h-7V246.8z M631.6,246.8h7v7h-7V246.8z M638.9,246.8h7v7
		h-7V246.8z M660.7,246.8h7v7h-7V246.8z M537.2,254.1h7v7h-7V254.1z M544.5,254.1h7v7h-7V254.1z M573.5,254.1h7v7h-7V254.1z
		 M580.8,254.1h7v7h-7V254.1z M588.1,254.1h7v7h-7V254.1z M595.3,254.1h7v7h-7V254.1z M631.6,254.1h7v7h-7V254.1z M660.7,254.1h7v7
		h-7V254.1z M530,261.4h7v7h-7V261.4z M537.2,261.4h7v7h-7V261.4z M544.5,261.4h7v7h-7V261.4z M573.5,261.4h7v7h-7V261.4z
		 M602.6,261.4h7v7h-7V261.4z M609.8,261.4h7v7h-7V261.4z M624.4,261.4h7v7h-7V261.4z M631.6,261.4h7v7h-7V261.4z M660.7,261.4h7v7
		h-7V261.4z M530,268.6h7v7h-7V268.6z M537.2,268.6h7v7h-7V268.6z M566.3,268.6h7v7h-7V268.6z M573.5,268.6h7v7h-7V268.6z
		 M609.8,268.6h7v7h-7V268.6z M617.1,268.6h7v7h-7V268.6z M624.4,268.6h7v7h-7V268.6z M653.4,268.6h7v7h-7V268.6z M660.7,268.6h7v7
		h-7V268.6z M522.7,275.9h7v7h-7V275.9z M530,275.9h7v7h-7V275.9z M537.2,275.9h7v7h-7V275.9z M559,275.9h7v7h-7V275.9z
		 M566.3,275.9h7v7h-7V275.9z M609.8,275.9h7v7h-7V275.9z M617.1,275.9h7v7h-7V275.9z M660.7,275.9h7v7h-7V275.9z M522.7,283.1h7v7
		h-7V283.1z M530,283.1h7v7h-7V283.1z M559,283.1h7v7h-7V283.1z M602.6,283.1h7v7h-7V283.1z M609.8,283.1h7v7h-7V283.1z
		 M653.4,283.1h7v7h-7V283.1z M660.7,283.1h7v7h-7V283.1z M522.7,290.4h7v7h-7V290.4z M530,290.4h7v7h-7V290.4z M551.8,290.4h7v7h-7
		V290.4z M595.3,290.4h7v7h-7V290.4z M602.6,290.4h7v7h-7V290.4z M646.1,290.4h7v7h-7V290.4z M660.7,290.4h7v7h-7V290.4z
		 M515.5,297.7h7v7h-7V297.7z M522.7,297.7h7v7h-7V297.7z M530,297.7h7v7h-7V297.7z M544.5,297.7h7v7h-7V297.7z M588.1,297.7h7v7h-7
		V297.7z M595.3,297.7h7v7h-7V297.7z M602.6,297.7h7v7h-7V297.7z M638.9,297.7h7v7h-7V297.7z M660.7,297.7h7v7h-7V297.7z
		 M667.9,297.7h7v7h-7V297.7z M515.5,304.9h7v7h-7V304.9z M522.7,304.9h7v7h-7V304.9z M530,304.9h7v7h-7V304.9z M537.2,304.9h7v7h-7
		V304.9z M544.5,304.9h7v7h-7V304.9z M580.8,304.9h7v7h-7V304.9z M588.1,304.9h7v7h-7V304.9z M595.3,304.9h7v7h-7V304.9z
		 M631.6,304.9h7v7h-7V304.9z M660.7,304.9h7v7h-7V304.9z M667.9,304.9h7v7h-7V304.9z M508.2,312.2h7v7h-7V312.2z M515.5,312.2h7v7
		h-7V312.2z M522.7,312.2h7v7h-7V312.2z M530,312.2h7v7h-7V312.2z M537.2,312.2h7v7h-7V312.2z M580.8,312.2h7v7h-7V312.2z
		 M588.1,312.2h7v7h-7V312.2z M595.3,312.2h7v7h-7V312.2z M624.4,312.2h7v7h-7V312.2z M653.4,312.2h7v7h-7V312.2z M660.7,312.2h7v7
		h-7V312.2z M508.2,319.4h7v7h-7V319.4z M515.5,319.4h7v7h-7V319.4z M537.2,319.4h7v7h-7V319.4z M544.5,319.4h7v7h-7V319.4z
		 M573.5,319.4h7v7h-7V319.4z M580.8,319.4h7v7h-7V319.4z M595.3,319.4h7v7h-7V319.4z M617.1,319.4h7v7h-7V319.4z M646.1,319.4h7v7
		h-7V319.4z M653.4,319.4h7v7h-7V319.4z M500.9,326.7h7v7h-7V326.7z M508.2,326.7h7v7h-7V326.7z M515.5,326.7h7v7h-7V326.7z
		 M544.5,326.7h7v7h-7V326.7z M551.8,326.7h7v7h-7V326.7z M566.3,326.7h7v7h-7V326.7z M573.5,326.7h7v7h-7V326.7z M602.6,326.7h7v7
		h-7V326.7z M609.8,326.7h7v7h-7V326.7z M638.9,326.7h7v7h-7V326.7z M646.1,326.7h7v7h-7V326.7z M500.9,334h7v7h-7V334z M508.2,334
		h7v7h-7V334z M551.8,334h7v7h-7V334z M559,334h7v7h-7V334z M566.3,334h7v7h-7V334z M595.3,334h7v7h-7V334z M602.6,334h7v7h-7V334z
		 M631.6,334h7v7h-7V334z M638.9,334h7v7h-7V334z M203.3,341.2h7v7h-7V341.2z M210.5,341.2h7v7h-7V341.2z M217.8,341.2h7v7h-7V341.2
		z M225.1,341.2h7v7h-7V341.2z M232.3,341.2h7v7h-7V341.2z M500.9,341.2h7v7h-7V341.2z M508.2,341.2h7v7h-7V341.2z M551.8,341.2h7v7
		h-7V341.2z M559,341.2h7v7h-7V341.2z M588.1,341.2h7v7h-7V341.2z M609.8,341.2h7v7h-7V341.2z M617.1,341.2h7v7h-7V341.2z
		 M624.4,341.2h7v7h-7V341.2z M196,348.5h7v7h-7V348.5z M203.3,348.5h7v7h-7V348.5z M225.1,348.5h7v7h-7V348.5z M232.3,348.5h7v7h-7
		V348.5z M239.6,348.5h7v7h-7V348.5z M246.8,348.5h7v7h-7V348.5z M493.7,348.5h7v7h-7V348.5z M500.9,348.5h7v7h-7V348.5z
		 M544.5,348.5h7v7h-7V348.5z M551.8,348.5h7v7h-7V348.5z M559,348.5h7v7h-7V348.5z M573.5,348.5h7v7h-7V348.5z M580.8,348.5h7v7h-7
		V348.5z M609.8,348.5h7v7h-7V348.5z M617.1,348.5h7v7h-7V348.5z M188.8,355.7h7v7h-7V355.7z M196,355.7h7v7h-7V355.7z M246.8,355.7
		h7v7h-7V355.7z M254.1,355.7h7v7h-7V355.7z M261.4,355.7h7v7h-7V355.7z M268.6,355.7h7v7h-7V355.7z M493.7,355.7h7v7h-7V355.7z
		 M500.9,355.7h7v7h-7V355.7z M537.2,355.7h7v7h-7V355.7z M544.5,355.7h7v7h-7V355.7z M551.8,355.7h7v7h-7V355.7z M566.3,355.7h7v7
		h-7V355.7z M573.5,355.7h7v7h-7V355.7z M595.3,355.7h7v7h-7V355.7z M602.6,355.7h7v7h-7V355.7z M609.8,355.7h7v7h-7V355.7z
		 M181.5,363h7v7h-7V363z M188.8,363h7v7h-7V363z M196,363h7v7h-7V363z M203.3,363h7v7h-7V363z M210.5,363h7v7h-7V363z M217.8,363h7
		v7h-7V363z M268.6,363h7v7h-7V363z M275.9,363h7v7h-7V363z M283.1,363h7v7h-7V363z M486.4,363h7v7h-7V363z M493.7,363h7v7h-7V363z
		 M530,363h7v7h-7V363z M537.2,363h7v7h-7V363z M559,363h7v7h-7V363z M588.1,363h7v7h-7V363z M595.3,363h7v7h-7V363z M602.6,363h7v7
		h-7V363z M174.2,370.3h7v7h-7V370.3z M217.8,370.3h7v7h-7V370.3z M225.1,370.3h7v7h-7V370.3z M232.3,370.3h7v7h-7V370.3z
		 M239.6,370.3h7v7h-7V370.3z M246.8,370.3h7v7h-7V370.3z M268.6,370.3h7v7h-7V370.3z M283.1,370.3h7v7h-7V370.3z M290.4,370.3h7v7
		h-7V370.3z M297.7,370.3h7v7h-7V370.3z M304.9,370.3h7v7h-7V370.3z M486.4,370.3h7v7h-7V370.3z M493.7,370.3h7v7h-7V370.3z
		 M530,370.3h7v7h-7V370.3z M537.2,370.3h7v7h-7V370.3z M544.5,370.3h7v7h-7V370.3z M551.8,370.3h7v7h-7V370.3z M573.5,370.3h7v7h-7
		V370.3z M580.8,370.3h7v7h-7V370.3z M588.1,370.3h7v7h-7V370.3z M87.1,377.5h7v7h-7V377.5z M94.4,377.5h7v7h-7V377.5z M101.6,377.5
		h7v7h-7V377.5z M159.7,377.5h7v7h-7V377.5z M167,377.5h7v7h-7V377.5z M246.8,377.5h7v7h-7V377.5z M254.1,377.5h7v7h-7V377.5z
		 M261.4,377.5h7v7h-7V377.5z M297.7,377.5h7v7h-7V377.5z M304.9,377.5h7v7h-7V377.5z M312.2,377.5h7v7h-7V377.5z M319.4,377.5h7v7
		h-7V377.5z M479.2,377.5h7v7h-7V377.5z M486.4,377.5h7v7h-7V377.5z M515.5,377.5h7v7h-7V377.5z M522.7,377.5h7v7h-7V377.5z
		 M530,377.5h7v7h-7V377.5z M537.2,377.5h7v7h-7V377.5z M544.5,377.5h7v7h-7V377.5z M566.3,377.5h7v7h-7V377.5z M573.5,377.5h7v7h-7
		V377.5z M580.8,377.5h7v7h-7V377.5z M87.1,384.8h7v7h-7V384.8z M94.4,384.8h7v7h-7V384.8z M101.6,384.8h7v7h-7V384.8z M108.9,384.8
		h7v7h-7V384.8z M116.2,384.8h7v7h-7V384.8z M123.4,384.8h7v7h-7V384.8z M130.7,384.8h7v7h-7V384.8z M137.9,384.8h7v7h-7V384.8z
		 M145.2,384.8h7v7h-7V384.8z M152.5,384.8h7v7h-7V384.8z M159.7,384.8h7v7h-7V384.8z M254.1,384.8h7v7h-7V384.8z M261.4,384.8h7v7
		h-7V384.8z M268.6,384.8h7v7h-7V384.8z M275.9,384.8h7v7h-7V384.8z M319.4,384.8h7v7h-7V384.8z M326.7,384.8h7v7h-7V384.8z
		 M334,384.8h7v7h-7V384.8z M341.2,384.8h7v7h-7V384.8z M471.9,384.8h7v7h-7V384.8z M479.2,384.8h7v7h-7V384.8z M486.4,384.8h7v7h-7
		V384.8z M508.2,384.8h7v7h-7V384.8z M515.5,384.8h7v7h-7V384.8z M522.7,384.8h7v7h-7V384.8z M530,384.8h7v7h-7V384.8z M537.2,384.8
		h7v7h-7V384.8z M544.5,384.8h7v7h-7V384.8z M559,384.8h7v7h-7V384.8z M566.3,384.8h7v7h-7V384.8z M573.5,384.8h7v7h-7V384.8z
		 M87.1,392h7v7h-7V392z M123.4,392h7v7h-7V392z M130.7,392h7v7h-7V392z M137.9,392h7v7h-7V392z M145.2,392h7v7h-7V392z M152.5,392
		h7v7h-7V392z M159.7,392h7v7h-7V392z M167,392h7v7h-7V392z M174.2,392h7v7h-7V392z M181.5,392h7v7h-7V392z M188.8,392h7v7h-7V392z
		 M196,392h7v7h-7V392z M254.1,392h7v7h-7V392z M283.1,392h7v7h-7V392z M290.4,392h7v7h-7V392z M297.7,392h7v7h-7V392z M334,392h7v7
		h-7V392z M341.2,392h7v7h-7V392z M348.5,392h7v7h-7V392z M471.9,392h7v7h-7V392z M479.2,392h7v7h-7V392z M500.9,392h7v7h-7V392z
		 M508.2,392h7v7h-7V392z M515.5,392h7v7h-7V392z M537.2,392h7v7h-7V392z M544.5,392h7v7h-7V392z M551.8,392h7v7h-7V392z M559,392h7
		v7h-7V392z M87.1,399.3h7v7h-7V399.3z M145.2,399.3h7v7h-7V399.3z M174.2,399.3h7v7h-7V399.3z M181.5,399.3h7v7h-7V399.3z
		 M188.8,399.3h7v7h-7V399.3z M196,399.3h7v7h-7V399.3z M203.3,399.3h7v7h-7V399.3z M210.5,399.3h7v7h-7V399.3z M217.8,399.3h7v7h-7
		V399.3z M225.1,399.3h7v7h-7V399.3z M232.3,399.3h7v7h-7V399.3z M239.6,399.3h7v7h-7V399.3z M246.8,399.3h7v7h-7V399.3z
		 M254.1,399.3h7v7h-7V399.3z M304.9,399.3h7v7h-7V399.3z M312.2,399.3h7v7h-7V399.3z M341.2,399.3h7v7h-7V399.3z M348.5,399.3h7v7
		h-7V399.3z M464.6,399.3h7v7h-7V399.3z M471.9,399.3h7v7h-7V399.3z M479.2,399.3h7v7h-7V399.3z M493.7,399.3h7v7h-7V399.3z
		 M500.9,399.3h7v7h-7V399.3z M508.2,399.3h7v7h-7V399.3z M544.5,399.3h7v7h-7V399.3z M551.8,399.3h7v7h-7V399.3z M79.9,406.6h7v7
		h-7V406.6z M87.1,406.6h7v7h-7V406.6z M137.9,406.6h7v7h-7V406.6z M145.2,406.6h7v7h-7V406.6z M203.3,406.6h7v7h-7V406.6z
		 M217.8,406.6h7v7h-7V406.6z M225.1,406.6h7v7h-7V406.6z M232.3,406.6h7v7h-7V406.6z M239.6,406.6h7v7h-7V406.6z M246.8,406.6h7v7
		h-7V406.6z M254.1,406.6h7v7h-7V406.6z M261.4,406.6h7v7h-7V406.6z M268.6,406.6h7v7h-7V406.6z M275.9,406.6h7v7h-7V406.6z
		 M283.1,406.6h7v7h-7V406.6z M290.4,406.6h7v7h-7V406.6z M319.4,406.6h7v7h-7V406.6z M326.7,406.6h7v7h-7V406.6z M334,406.6h7v7h-7
		V406.6z M341.2,406.6h7v7h-7V406.6z M464.6,406.6h7v7h-7V406.6z M471.9,406.6h7v7h-7V406.6z M479.2,406.6h7v7h-7V406.6z
		 M486.4,406.6h7v7h-7V406.6z M493.7,406.6h7v7h-7V406.6z M500.9,406.6h7v7h-7V406.6z M79.9,413.8h7v7h-7V413.8z M87.1,413.8h7v7h-7
		V413.8z M137.9,413.8h7v7h-7V413.8z M145.2,413.8h7v7h-7V413.8z M203.3,413.8h7v7h-7V413.8z M261.4,413.8h7v7h-7V413.8z
		 M268.6,413.8h7v7h-7V413.8z M275.9,413.8h7v7h-7V413.8z M283.1,413.8h7v7h-7V413.8z M290.4,413.8h7v7h-7V413.8z M297.7,413.8h7v7
		h-7V413.8z M304.9,413.8h7v7h-7V413.8z M312.2,413.8h7v7h-7V413.8z M319.4,413.8h7v7h-7V413.8z M326.7,413.8h7v7h-7V413.8z
		 M334,413.8h7v7h-7V413.8z M341.2,413.8h7v7h-7V413.8z M457.4,413.8h7v7h-7V413.8z M464.6,413.8h7v7h-7V413.8z M479.2,413.8h7v7h-7
		V413.8z M486.4,413.8h7v7h-7V413.8z M493.7,413.8h7v7h-7V413.8z M79.9,421.1h7v7h-7V421.1z M87.1,421.1h7v7h-7V421.1z M137.9,421.1
		h7v7h-7V421.1z M203.3,421.1h7v7h-7V421.1z M283.1,421.1h7v7h-7V421.1z M290.4,421.1h7v7h-7V421.1z M297.7,421.1h7v7h-7V421.1z
		 M304.9,421.1h7v7h-7V421.1z M312.2,421.1h7v7h-7V421.1z M319.4,421.1h7v7h-7V421.1z M326.7,421.1h7v7h-7V421.1z M334,421.1h7v7h-7
		V421.1z M341.2,421.1h7v7h-7V421.1z M348.5,421.1h7v7h-7V421.1z M355.7,421.1h7v7h-7V421.1z M363,421.1h7v7h-7V421.1z M370.3,421.1
		h7v7h-7V421.1z M377.5,421.1h7v7h-7V421.1z M457.4,421.1h7v7h-7V421.1z M464.6,421.1h7v7h-7V421.1z M471.9,421.1h7v7h-7V421.1z
		 M479.2,421.1h7v7h-7V421.1z M486.4,421.1h7v7h-7V421.1z M72.6,428.3h7v7h-7V428.3z M79.9,428.3h7v7h-7V428.3z M87.1,428.3h7v7h-7
		V428.3z M94.4,428.3h7v7h-7V428.3z M101.6,428.3h7v7h-7V428.3z M108.9,428.3h7v7h-7V428.3z M116.2,428.3h7v7h-7V428.3z
		 M123.4,428.3h7v7h-7V428.3z M130.7,428.3h7v7h-7V428.3z M137.9,428.3h7v7h-7V428.3z M145.2,428.3h7v7h-7V428.3z M203.3,428.3h7v7
		h-7V428.3z M283.1,428.3h7v7h-7V428.3z M290.4,428.3h7v7h-7V428.3z M348.5,428.3h7v7h-7V428.3z M355.7,428.3h7v7h-7V428.3z
		 M363,428.3h7v7h-7V428.3z M370.3,428.3h7v7h-7V428.3z M377.5,428.3h7v7h-7V428.3z M384.8,428.3h7v7h-7V428.3z M392,428.3h7v7h-7
		V428.3z M435.6,428.3h7v7h-7V428.3z M442.9,428.3h7v7h-7V428.3z M450.1,428.3h7v7h-7V428.3z M457.4,428.3h7v7h-7V428.3z
		 M464.6,428.3h7v7h-7V428.3z M471.9,428.3h7v7h-7V428.3z M72.6,435.6h7v7h-7V435.6z M79.9,435.6h7v7h-7V435.6z M123.4,435.6h7v7h-7
		V435.6z M130.7,435.6h7v7h-7V435.6z M137.9,435.6h7v7h-7V435.6z M145.2,435.6h7v7h-7V435.6z M152.5,435.6h7v7h-7V435.6z
		 M159.7,435.6h7v7h-7V435.6z M167,435.6h7v7h-7V435.6z M174.2,435.6h7v7h-7V435.6z M181.5,435.6h7v7h-7V435.6z M188.8,435.6h7v7h-7
		V435.6z M196,435.6h7v7h-7V435.6z M203.3,435.6h7v7h-7V435.6z M210.5,435.6h7v7h-7V435.6z M283.1,435.6h7v7h-7V435.6z M290.4,435.6
		h7v7h-7V435.6z M370.3,435.6h7v7h-7V435.6z M377.5,435.6h7v7h-7V435.6z M384.8,435.6h7v7h-7V435.6z M392,435.6h7v7h-7V435.6z
		 M399.3,435.6h7v7h-7V435.6z M406.6,435.6h7v7h-7V435.6z M421.1,435.6h7v7h-7V435.6z M428.3,435.6h7v7h-7V435.6z M435.6,435.6h7v7
		h-7V435.6z M442.9,435.6h7v7h-7V435.6z M450.1,435.6h7v7h-7V435.6z M457.4,435.6h7v7h-7V435.6z M464.6,435.6h7v7h-7V435.6z
		 M65.3,442.9h7v7h-7V442.9z M72.6,442.9h7v7h-7V442.9z M130.7,442.9h7v7h-7V442.9z M188.8,442.9h7v7h-7V442.9z M196,442.9h7v7h-7
		V442.9z M203.3,442.9h7v7h-7V442.9z M210.5,442.9h7v7h-7V442.9z M217.8,442.9h7v7h-7V442.9z M225.1,442.9h7v7h-7V442.9z
		 M232.3,442.9h7v7h-7V442.9z M239.6,442.9h7v7h-7V442.9z M246.8,442.9h7v7h-7V442.9z M254.1,442.9h7v7h-7V442.9z M261.4,442.9h7v7
		h-7V442.9z M268.6,442.9h7v7h-7V442.9z M275.9,442.9h7v7h-7V442.9z M283.1,442.9h7v7h-7V442.9z M392,442.9h7v7h-7V442.9z
		 M399.3,442.9h7v7h-7V442.9z M406.6,442.9h7v7h-7V442.9z M413.8,442.9h7v7h-7V442.9z M421.1,442.9h7v7h-7V442.9z M450.1,442.9h7v7
		h-7V442.9z M457.4,442.9h7v7h-7V442.9z M65.3,450.1h7v7h-7V450.1z M72.6,450.1h7v7h-7V450.1z M123.4,450.1h7v7h-7V450.1z
		 M130.7,450.1h7v7h-7V450.1z M188.8,450.1h7v7h-7V450.1z M196,450.1h7v7h-7V450.1z M246.8,450.1h7v7h-7V450.1z M254.1,450.1h7v7h-7
		V450.1z M261.4,450.1h7v7h-7V450.1z M268.6,450.1h7v7h-7V450.1z M275.9,450.1h7v7h-7V450.1z M283.1,450.1h7v7h-7V450.1z M363,450.1
		h7v7h-7V450.1z M370.3,450.1h7v7h-7V450.1z M377.5,450.1h7v7h-7V450.1z M384.8,450.1h7v7h-7V450.1z M392,450.1h7v7h-7V450.1z
		 M399.3,450.1h7v7h-7V450.1z M406.6,450.1h7v7h-7V450.1z M413.8,450.1h7v7h-7V450.1z M421.1,450.1h7v7h-7V450.1z M457.4,450.1h7v7
		h-7V450.1z M464.6,450.1h7v7h-7V450.1z M58.1,457.4h7v7h-7V457.4z M65.3,457.4h7v7h-7V457.4z M123.4,457.4h7v7h-7V457.4z
		 M188.8,457.4h7v7h-7V457.4z M268.6,457.4h7v7h-7V457.4z M275.9,457.4h7v7h-7V457.4z M283.1,457.4h7v7h-7V457.4z M290.4,457.4h7v7
		h-7V457.4z M297.7,457.4h7v7h-7V457.4z M304.9,457.4h7v7h-7V457.4z M312.2,457.4h7v7h-7V457.4z M319.4,457.4h7v7h-7V457.4z
		 M326.7,457.4h7v7h-7V457.4z M334,457.4h7v7h-7V457.4z M341.2,457.4h7v7h-7V457.4z M348.5,457.4h7v7h-7V457.4z M355.7,457.4h7v7h-7
		V457.4z M363,457.4h7v7h-7V457.4z M370.3,457.4h7v7h-7V457.4z M377.5,457.4h7v7h-7V457.4z M384.8,457.4h7v7h-7V457.4z M392,457.4h7
		v7h-7V457.4z M399.3,457.4h7v7h-7V457.4z M406.6,457.4h7v7h-7V457.4z M413.8,457.4h7v7h-7V457.4z M421.1,457.4h7v7h-7V457.4z
		 M450.1,457.4h7v7h-7V457.4z M457.4,457.4h7v7h-7V457.4z M464.6,457.4h7v7h-7V457.4z M50.8,464.6h7v7h-7V464.6z M58.1,464.6h7v7h-7
		V464.6z M65.3,464.6h7v7h-7V464.6z M116.2,464.6h7v7h-7V464.6z M123.4,464.6h7v7h-7V464.6z M181.5,464.6h7v7h-7V464.6z
		 M188.8,464.6h7v7h-7V464.6z M217.8,464.6h7v7h-7V464.6z M225.1,464.6h7v7h-7V464.6z M232.3,464.6h7v7h-7V464.6z M239.6,464.6h7v7
		h-7V464.6z M246.8,464.6h7v7h-7V464.6z M254.1,464.6h7v7h-7V464.6z M261.4,464.6h7v7h-7V464.6z M268.6,464.6h7v7h-7V464.6z
		 M275.9,464.6h7v7h-7V464.6z M283.1,464.6h7v7h-7V464.6z M290.4,464.6h7v7h-7V464.6z M297.7,464.6h7v7h-7V464.6z M304.9,464.6h7v7
		h-7V464.6z M312.2,464.6h7v7h-7V464.6z M319.4,464.6h7v7h-7V464.6z M326.7,464.6h7v7h-7V464.6z M334,464.6h7v7h-7V464.6z
		 M341.2,464.6h7v7h-7V464.6z M348.5,464.6h7v7h-7V464.6z M355.7,464.6h7v7h-7V464.6z M421.1,464.6h7v7h-7V464.6z M428.3,464.6h7v7
		h-7V464.6z M435.6,464.6h7v7h-7V464.6z M442.9,464.6h7v7h-7V464.6z M450.1,464.6h7v7h-7V464.6z M457.4,464.6h7v7h-7V464.6z
		 M50.8,471.9h7v7h-7V471.9z M58.1,471.9h7v7h-7V471.9z M116.2,471.9h7v7h-7V471.9z M130.7,471.9h7v7h-7V471.9z M137.9,471.9h7v7h-7
		V471.9z M145.2,471.9h7v7h-7V471.9z M152.5,471.9h7v7h-7V471.9z M159.7,471.9h7v7h-7V471.9z M167,471.9h7v7h-7V471.9z M174.2,471.9
		h7v7h-7V471.9z M181.5,471.9h7v7h-7V471.9z M188.8,471.9h7v7h-7V471.9z M196,471.9h7v7h-7V471.9z M203.3,471.9h7v7h-7V471.9z
		 M210.5,471.9h7v7h-7V471.9z M217.8,471.9h7v7h-7V471.9z M225.1,471.9h7v7h-7V471.9z M232.3,471.9h7v7h-7V471.9z M239.6,471.9h7v7
		h-7V471.9z M246.8,471.9h7v7h-7V471.9z M254.1,471.9h7v7h-7V471.9z M261.4,471.9h7v7h-7V471.9z M268.6,471.9h7v7h-7V471.9z
		 M275.9,471.9h7v7h-7V471.9z M283.1,471.9h7v7h-7V471.9z M428.3,471.9h7v7h-7V471.9z M435.6,471.9h7v7h-7V471.9z M442.9,471.9h7v7
		h-7V471.9z M450.1,471.9h7v7h-7V471.9z M457.4,471.9h7v7h-7V471.9z M464.6,471.9h7v7h-7V471.9z M43.6,479.2h7v7h-7V479.2z
		 M50.8,479.2h7v7h-7V479.2z M79.9,479.2h7v7h-7V479.2z M87.1,479.2h7v7h-7V479.2z M94.4,479.2h7v7h-7V479.2z M101.6,479.2h7v7h-7
		V479.2z M108.9,479.2h7v7h-7V479.2z M116.2,479.2h7v7h-7V479.2z M123.4,479.2h7v7h-7V479.2z M130.7,479.2h7v7h-7V479.2z
		 M137.9,479.2h7v7h-7V479.2z M145.2,479.2h7v7h-7V479.2z M152.5,479.2h7v7h-7V479.2z M159.7,479.2h7v7h-7V479.2z M167,479.2h7v7h-7
		V479.2z M174.2,479.2h7v7h-7V479.2z M181.5,479.2h7v7h-7V479.2z M188.8,479.2h7v7h-7V479.2z M196,479.2h7v7h-7V479.2z M203.3,479.2
		h7v7h-7V479.2z M210.5,479.2h7v7h-7V479.2z M217.8,479.2h7v7h-7V479.2z M442.9,479.2h7v7h-7V479.2z M450.1,479.2h7v7h-7V479.2z
		 M457.4,479.2h7v7h-7V479.2z M464.6,479.2h7v7h-7V479.2z M471.9,479.2h7v7h-7V479.2z M36.3,486.4h7v7h-7V486.4z M43.6,486.4h7v7h-7
		V486.4z M50.8,486.4h7v7h-7V486.4z M58.1,486.4h7v7h-7V486.4z M65.3,486.4h7v7h-7V486.4z M72.6,486.4h7v7h-7V486.4z M79.9,486.4h7
		v7h-7V486.4z M87.1,486.4h7v7h-7V486.4z M94.4,486.4h7v7h-7V486.4z M101.6,486.4h7v7h-7V486.4z M108.9,486.4h7v7h-7V486.4z
		 M116.2,486.4h7v7h-7V486.4z M123.4,486.4h7v7h-7V486.4z M442.9,486.4h7v7h-7V486.4z M450.1,486.4h7v7h-7V486.4z M457.4,486.4h7v7
		h-7V486.4z M464.6,486.4h7v7h-7V486.4z M471.9,486.4h7v7h-7V486.4z M36.3,493.7h7v7h-7V493.7z M43.6,493.7h7v7h-7V493.7z
		 M50.8,493.7h7v7h-7V493.7z M58.1,493.7h7v7h-7V493.7z M65.3,493.7h7v7h-7V493.7z M72.6,493.7h7v7h-7V493.7z M442.9,493.7h7v7h-7
		V493.7z M450.1,493.7h7v7h-7V493.7z M457.4,493.7h7v7h-7V493.7z M464.6,493.7h7v7h-7V493.7z M471.9,493.7h7v7h-7V493.7z
		 M479.2,493.7h7v7h-7V493.7z M450.1,500.9h7v7h-7V500.9z M457.4,500.9h7v7h-7V500.9z M464.6,500.9h7v7h-7V500.9z M471.9,500.9h7v7
		h-7V500.9z M479.2,500.9h7v7h-7V500.9z M486.4,500.9h7v7h-7V500.9z M450.1,508.2h7v7h-7V508.2z M457.4,508.2h7v7h-7V508.2z
		 M464.6,508.2h7v7h-7V508.2z M479.2,508.2h7v7h-7V508.2z M486.4,508.2h7v7h-7V508.2z M493.7,508.2h7v7h-7V508.2z M450.1,515.5h7v7
		h-7V515.5z M457.4,515.5h7v7h-7V515.5z M464.6,515.5h7v7h-7V515.5z M479.2,515.5h7v7h-7V515.5z M486.4,515.5h7v7h-7V515.5z
		 M493.7,515.5h7v7h-7V515.5z M457.4,522.7h7v7h-7V522.7z M464.6,522.7h7v7h-7V522.7z M486.4,522.7h7v7h-7V522.7z M493.7,522.7h7v7
		h-7V522.7z M500.9,522.7h7v7h-7V522.7z M457.4,530h7v7h-7V530z M464.6,530h7v7h-7V530z M493.7,530h7v7h-7V530z M500.9,530h7v7h-7
		V530z M508.2,530h7v7h-7V530z M464.6,537.2h7v7h-7V537.2z M471.9,537.2h7v7h-7V537.2z M500.9,537.2h7v7h-7V537.2z M508.2,537.2h7v7
		h-7V537.2z M515.5,537.2h7v7h-7V537.2z M464.6,544.5h7v7h-7V544.5z M471.9,544.5h7v7h-7V544.5z M508.2,544.5h7v7h-7V544.5z
		 M515.5,544.5h7v7h-7V544.5z M522.7,544.5h7v7h-7V544.5z M471.9,551.8h7v7h-7V551.8z M515.5,551.8h7v7h-7V551.8z M522.7,551.8h7v7
		h-7V551.8z M457.4,559h7v7h-7V559z M464.6,559h7v7h-7V559z M471.9,559h7v7h-7V559z M479.2,559h7v7h-7V559z M522.7,559h7v7h-7V559z
		 M530,559h7v7h-7V559z M442.9,566.3h7v7h-7V566.3z M450.1,566.3h7v7h-7V566.3z M457.4,566.3h7v7h-7V566.3z M464.6,566.3h7v7h-7
		V566.3z M471.9,566.3h7v7h-7V566.3z M479.2,566.3h7v7h-7V566.3z M530,566.3h7v7h-7V566.3z M537.2,566.3h7v7h-7V566.3z M442.9,573.5
		h7v7h-7V573.5z M450.1,573.5h7v7h-7V573.5z M464.6,573.5h7v7h-7V573.5z M471.9,573.5h7v7h-7V573.5z M479.2,573.5h7v7h-7V573.5z
		 M486.4,573.5h7v7h-7V573.5z M530,573.5h7v7h-7V573.5z M537.2,573.5h7v7h-7V573.5z M544.5,573.5h7v7h-7V573.5z M450.1,580.8h7v7h-7
		V580.8z M471.9,580.8h7v7h-7V580.8z M486.4,580.8h7v7h-7V580.8z M530,580.8h7v7h-7V580.8z M537.2,580.8h7v7h-7V580.8z M544.5,580.8
		h7v7h-7V580.8z M551.8,580.8h7v7h-7V580.8z M450.1,588.1h7v7h-7V588.1z M471.9,588.1h7v7h-7V588.1z M486.4,588.1h7v7h-7V588.1z
		 M493.7,588.1h7v7h-7V588.1z M515.5,588.1h7v7h-7V588.1z M522.7,588.1h7v7h-7V588.1z M530,588.1h7v7h-7V588.1z M537.2,588.1h7v7h-7
		V588.1z M544.5,588.1h7v7h-7V588.1z M551.8,588.1h7v7h-7V588.1z M559,588.1h7v7h-7V588.1z M450.1,595.3h7v7h-7V595.3z M457.4,595.3
		h7v7h-7V595.3z M471.9,595.3h7v7h-7V595.3z M486.4,595.3h7v7h-7V595.3z M493.7,595.3h7v7h-7V595.3z M500.9,595.3h7v7h-7V595.3z
		 M508.2,595.3h7v7h-7V595.3z M515.5,595.3h7v7h-7V595.3z M522.7,595.3h7v7h-7V595.3z M530,595.3h7v7h-7V595.3z M537.2,595.3h7v7h-7
		V595.3z M551.8,595.3h7v7h-7V595.3z M559,595.3h7v7h-7V595.3z M566.3,595.3h7v7h-7V595.3z M450.1,602.6h7v7h-7V602.6z M457.4,602.6
		h7v7h-7V602.6z M479.2,602.6h7v7h-7V602.6z M493.7,602.6h7v7h-7V602.6z M500.9,602.6h7v7h-7V602.6z M530,602.6h7v7h-7V602.6z
		 M537.2,602.6h7v7h-7V602.6z M559,602.6h7v7h-7V602.6z M566.3,602.6h7v7h-7V602.6z M573.5,602.6h7v7h-7V602.6z M450.1,609.8h7v7h-7
		V609.8z M457.4,609.8h7v7h-7V609.8z M479.2,609.8h7v7h-7V609.8z M493.7,609.8h7v7h-7V609.8z M500.9,609.8h7v7h-7V609.8z
		 M537.2,609.8h7v7h-7V609.8z M544.5,609.8h7v7h-7V609.8z M566.3,609.8h7v7h-7V609.8z M573.5,609.8h7v7h-7V609.8z M580.8,609.8h7v7
		h-7V609.8z M457.4,617.1h7v7h-7V617.1z M479.2,617.1h7v7h-7V617.1z M500.9,617.1h7v7h-7V617.1z M508.2,617.1h7v7h-7V617.1z
		 M537.2,617.1h7v7h-7V617.1z M544.5,617.1h7v7h-7V617.1z M573.5,617.1h7v7h-7V617.1z M580.8,617.1h7v7h-7V617.1z M588.1,617.1h7v7
		h-7V617.1z M457.4,624.4h7v7h-7V624.4z M464.6,624.4h7v7h-7V624.4z M479.2,624.4h7v7h-7V624.4z M500.9,624.4h7v7h-7V624.4z
		 M508.2,624.4h7v7h-7V624.4z M544.5,624.4h7v7h-7V624.4z M551.8,624.4h7v7h-7V624.4z M580.8,624.4h7v7h-7V624.4z M588.1,624.4h7v7
		h-7V624.4z M595.3,624.4h7v7h-7V624.4z M457.4,631.6h7v7h-7V631.6z M464.6,631.6h7v7h-7V631.6z M486.4,631.6h7v7h-7V631.6z
		 M508.2,631.6h7v7h-7V631.6z M515.5,631.6h7v7h-7V631.6z M551.8,631.6h7v7h-7V631.6z M588.1,631.6h7v7h-7V631.6z M595.3,631.6h7v7
		h-7V631.6z M464.6,638.9h7v7h-7V638.9z M486.4,638.9h7v7h-7V638.9z M493.7,638.9h7v7h-7V638.9z M500.9,638.9h7v7h-7V638.9z
		 M508.2,638.9h7v7h-7V638.9z M515.5,638.9h7v7h-7V638.9z M522.7,638.9h7v7h-7V638.9z M551.8,638.9h7v7h-7V638.9z M559,638.9h7v7h-7
		V638.9z M595.3,638.9h7v7h-7V638.9z M602.6,638.9h7v7h-7V638.9z M464.6,646.1h7v7h-7V646.1z M471.9,646.1h7v7h-7V646.1z
		 M479.2,646.1h7v7h-7V646.1z M486.4,646.1h7v7h-7V646.1z M493.7,646.1h7v7h-7V646.1z M500.9,646.1h7v7h-7V646.1z M508.2,646.1h7v7
		h-7V646.1z M515.5,646.1h7v7h-7V646.1z M522.7,646.1h7v7h-7V646.1z M559,646.1h7v7h-7V646.1z M566.3,646.1h7v7h-7V646.1z
		 M595.3,646.1h7v7h-7V646.1z M602.6,646.1h7v7h-7V646.1z M609.8,646.1h7v7h-7V646.1z M464.6,653.4h7v7h-7V653.4z M486.4,653.4h7v7
		h-7V653.4z M515.5,653.4h7v7h-7V653.4z M522.7,653.4h7v7h-7V653.4z M559,653.4h7v7h-7V653.4z M566.3,653.4h7v7h-7V653.4z
		 M573.5,653.4h7v7h-7V653.4z M588.1,653.4h7v7h-7V653.4z M595.3,653.4h7v7h-7V653.4z M602.6,653.4h7v7h-7V653.4z M609.8,653.4h7v7
		h-7V653.4z M617.1,653.4h7v7h-7V653.4z M464.6,660.7h7v7h-7V660.7z M471.9,660.7h7v7h-7V660.7z M493.7,660.7h7v7h-7V660.7z
		 M522.7,660.7h7v7h-7V660.7z M530,660.7h7v7h-7V660.7z M566.3,660.7h7v7h-7V660.7z M573.5,660.7h7v7h-7V660.7z M580.8,660.7h7v7h-7
		V660.7z M588.1,660.7h7v7h-7V660.7z M595.3,660.7h7v7h-7V660.7z M602.6,660.7h7v7h-7V660.7z M609.8,660.7h7v7h-7V660.7z
		 M617.1,660.7h7v7h-7V660.7z M624.4,660.7h7v7h-7V660.7z M471.9,667.9h7v7h-7V667.9z M493.7,667.9h7v7h-7V667.9z M522.7,667.9h7v7
		h-7V667.9z M530,667.9h7v7h-7V667.9z M551.8,667.9h7v7h-7V667.9z M559,667.9h7v7h-7V667.9z M566.3,667.9h7v7h-7V667.9z
		 M573.5,667.9h7v7h-7V667.9z M580.8,667.9h7v7h-7V667.9z M617.1,667.9h7v7h-7V667.9z M624.4,667.9h7v7h-7V667.9z M631.6,667.9h7v7
		h-7V667.9z M471.9,675.2h7v7h-7V675.2z M493.7,675.2h7v7h-7V675.2z M500.9,675.2h7v7h-7V675.2z M530,675.2h7v7h-7V675.2z
		 M537.2,675.2h7v7h-7V675.2z M544.5,675.2h7v7h-7V675.2z M551.8,675.2h7v7h-7V675.2z M580.8,675.2h7v7h-7V675.2z M617.1,675.2h7v7
		h-7V675.2z M624.4,675.2h7v7h-7V675.2z M631.6,675.2h7v7h-7V675.2z M471.9,682.4h7v7h-7V682.4z M479.2,682.4h7v7h-7V682.4z
		 M500.9,682.4h7v7h-7V682.4z M530,682.4h7v7h-7V682.4z M537.2,682.4h7v7h-7V682.4z M588.1,682.4h7v7h-7V682.4z M624.4,682.4h7v7h-7
		V682.4z M631.6,682.4h7v7h-7V682.4z M638.9,682.4h7v7h-7V682.4z M471.9,689.7h7v7h-7V689.7z M479.2,689.7h7v7h-7V689.7z
		 M500.9,689.7h7v7h-7V689.7z M537.2,689.7h7v7h-7V689.7z M544.5,689.7h7v7h-7V689.7z M588.1,689.7h7v7h-7V689.7z M631.6,689.7h7v7
		h-7V689.7z M638.9,689.7h7v7h-7V689.7z M646.1,689.7h7v7h-7V689.7z M479.2,697h7v7h-7V697z M508.2,697h7v7h-7V697z M544.5,697h7v7
		h-7V697z M588.1,697h7v7h-7V697z M595.3,697h7v7h-7V697z M638.9,697h7v7h-7V697z M646.1,697h7v7h-7V697z M653.4,697h7v7h-7V697z
		 M479.2,704.2h7v7h-7V704.2z M486.4,704.2h7v7h-7V704.2z M508.2,704.2h7v7h-7V704.2z M544.5,704.2h7v7h-7V704.2z M551.8,704.2h7v7
		h-7V704.2z M588.1,704.2h7v7h-7V704.2z M595.3,704.2h7v7h-7V704.2z M646.1,704.2h7v7h-7V704.2z M653.4,704.2h7v7h-7V704.2z
		 M660.7,704.2h7v7h-7V704.2z M486.4,711.5h7v7h-7V711.5z M493.7,711.5h7v7h-7V711.5z M500.9,711.5h7v7h-7V711.5z M508.2,711.5h7v7
		h-7V711.5z M515.5,711.5h7v7h-7V711.5z M551.8,711.5h7v7h-7V711.5z M595.3,711.5h7v7h-7V711.5z M602.6,711.5h7v7h-7V711.5z
		 M609.8,711.5h7v7h-7V711.5z M617.1,711.5h7v7h-7V711.5z M624.4,711.5h7v7h-7V711.5z M631.6,711.5h7v7h-7V711.5z M638.9,711.5h7v7
		h-7V711.5z M646.1,711.5h7v7h-7V711.5z M653.4,711.5h7v7h-7V711.5z M660.7,711.5h7v7h-7V711.5z M667.9,711.5h7v7h-7V711.5z
		 M493.7,718.7h7v7h-7V718.7z M500.9,718.7h7v7h-7V718.7z M508.2,718.7h7v7h-7V718.7z M515.5,718.7h7v7h-7V718.7z M522.7,718.7h7v7
		h-7V718.7z M530,718.7h7v7h-7V718.7z M551.8,718.7h7v7h-7V718.7z M559,718.7h7v7h-7V718.7z M588.1,718.7h7v7h-7V718.7z
		 M595.3,718.7h7v7h-7V718.7z M602.6,718.7h7v7h-7V718.7z M609.8,718.7h7v7h-7V718.7z M660.7,718.7h7v7h-7V718.7z M667.9,718.7h7v7
		h-7V718.7z M675.2,718.7h7v7h-7V718.7z M530,726h7v7h-7V726z M537.2,726h7v7h-7V726z M544.5,726h7v7h-7V726z M551.8,726h7v7h-7V726
		z M559,726h7v7h-7V726z M573.5,726h7v7h-7V726z M580.8,726h7v7h-7V726z M609.8,726h7v7h-7V726z M617.1,726h7v7h-7V726z M667.9,726
		h7v7h-7V726z M675.2,726h7v7h-7V726z M682.4,726h7v7h-7V726z M551.8,733.3h7v7h-7V733.3z M559,733.3h7v7h-7V733.3z M566.3,733.3h7
		v7h-7V733.3z M617.1,733.3h7v7h-7V733.3z M675.2,733.3h7v7h-7V733.3z M682.4,733.3h7v7h-7V733.3z M689.7,733.3h7v7h-7V733.3z
		 M566.3,740.5h7v7h-7V740.5z M617.1,740.5h7v7h-7V740.5z M624.4,740.5h7v7h-7V740.5z M682.4,740.5h7v7h-7V740.5z M689.7,740.5h7v7
		h-7V740.5z M697,740.5h7v7h-7V740.5z M566.3,747.8h7v7h-7V747.8z M573.5,747.8h7v7h-7V747.8z M624.4,747.8h7v7h-7V747.8z
		 M689.7,747.8h7v7h-7V747.8z M697,747.8h7v7h-7V747.8z M704.2,747.8h7v7h-7V747.8z M573.5,755h7v7h-7V755z M624.4,755h7v7h-7V755z
		 M631.6,755h7v7h-7V755z M646.1,755h7v7h-7V755z M653.4,755h7v7h-7V755z M660.7,755h7v7h-7V755z M667.9,755h7v7h-7V755z M675.2,755
		h7v7h-7V755z M682.4,755h7v7h-7V755z M689.7,755h7v7h-7V755z M697,755h7v7h-7V755z M704.2,755h7v7h-7V755z M711.5,755h7v7h-7V755z
		 M573.5,762.3h7v7h-7V762.3z M580.8,762.3h7v7h-7V762.3z M617.1,762.3h7v7h-7V762.3z M624.4,762.3h7v7h-7V762.3z M631.6,762.3h7v7
		h-7V762.3z M638.9,762.3h7v7h-7V762.3z M646.1,762.3h7v7h-7V762.3z M653.4,762.3h7v7h-7V762.3z M660.7,762.3h7v7h-7V762.3z
		 M667.9,762.3h7v7h-7V762.3z M675.2,762.3h7v7h-7V762.3z M682.4,762.3h7v7h-7V762.3z M689.7,762.3h7v7h-7V762.3z M697,762.3h7v7h-7
		V762.3z M704.2,762.3h7v7h-7V762.3z M711.5,762.3h7v7h-7V762.3z M573.5,769.6h7v7h-7V769.6z M580.8,769.6h7v7h-7V769.6z
		 M609.8,769.6h7v7h-7V769.6z M617.1,769.6h7v7h-7V769.6z M624.4,769.6h7v7h-7V769.6z M631.6,769.6h7v7h-7V769.6z M638.9,769.6h7v7
		h-7V769.6z M646.1,769.6h7v7h-7V769.6z M653.4,769.6h7v7h-7V769.6z M580.8,776.8h7v7h-7V776.8z M595.3,776.8h7v7h-7V776.8z
		 M602.6,776.8h7v7h-7V776.8z M609.8,776.8h7v7h-7V776.8z M588.1,784.1h7v7h-7V784.1z M595.3,784.1h7v7h-7V784.1z"/>
</g>
</svg>
