<?xml version="1.0" encoding="utf-8"?>
<!-- Generator: Adobe Illustrator 27.3.1, SVG Export Plug-In . SVG Version: 6.00 Build 0)  -->
<svg version="1.1" xmlns="http://www.w3.org/2000/svg" xmlns:xlink="http://www.w3.org/1999/xlink" x="0px" y="0px"
	 viewBox="0 0 871 871" style="enable-background:new 0 0 871 871;" xml:space="preserve">
<style type="text/css">
	.st0{fill:#FCE9BA;}
	.st1{fill:#1E0E01;}
</style>
<g id="Слой_2">
	<path class="st0" d="M779.1,275.9c0-1.4-1.1-2.5-2.5-2.5h-4.8v-4.8c0-1.4-1.1-2.5-2.5-2.5h-4.8v-4.8c0,0,0-0.1,0-0.1
		c0,0,0-0.1,0-0.1v-7c0-1.4-1.1-2.5-2.5-2.5h-4.8v-4.8c0,0,0-0.1,0-0.1c0,0,0-0.1,0-0.1v-7c0-1.4-1.1-2.5-2.5-2.5H750v-4.8
		c0,0,0-0.1,0-0.1c0,0,0-0.1,0-0.1v-7c0,0,0-0.1,0-0.1c0,0,0-0.1,0-0.1v-7c0,0,0-0.1,0-0.1c0,0,0-0.1,0-0.1v-7c0,0,0-0.1,0-0.1
		c0,0,0-0.1,0-0.1v-7c0,0,0-0.1,0-0.1c0,0,0-0.1,0-0.1v-7c0,0,0-0.1,0-0.1c0,0,0-0.1,0-0.1v-7c0,0,0-0.1,0-0.1c0,0,0-0.1,0-0.1v-7
		c0,0,0-0.1,0-0.1c0,0,0-0.1,0-0.1v-7c0-1.4-1.1-2.5-2.5-2.5h-4.8V167c0,0,0-0.1,0-0.1c0,0,0-0.1,0-0.1v-7c0-1.4-1.1-2.5-2.5-2.5h-7
		c0,0-0.1,0-0.1,0c0,0-0.1,0-0.1,0h-7c-1.4,0-2.5,1.1-2.5,2.5v4.8h-4.8c-1.4,0-2.5,1.1-2.5,2.5v4.8h-4.8c-1.4,0-2.5,1.1-2.5,2.5v4.8
		h-4.8c-1.4,0-2.5,1.1-2.5,2.5v4.8H697c-1.4,0-2.5,1.1-2.5,2.5v7c0,0,0,0.1,0,0.1c0,0,0,0.1,0,0.1v4.8h-4.8c-1.4,0-2.5,1.1-2.5,2.5
		v4.8h-4.8c-1.4,0-2.5,1.1-2.5,2.5v4.8h-4.8c-1.4,0-2.5,1.1-2.5,2.5v4.8h-4.8c-1.4,0-2.5,1.1-2.5,2.5v4.8h-4.8
		c-1.4,0-2.5,1.1-2.5,2.5v4.8h-4.8c-1.4,0-2.5,1.1-2.5,2.5v4.8h-4.8c-1.4,0-2.5,1.1-2.5,2.5v4.8h-4.8c-1.4,0-2.5,1.1-2.5,2.5v4.8
		h-4.8c-1.4,0-2.5,1.1-2.5,2.5v4.8h-4.8c-1.4,0-2.5,1.1-2.5,2.5v4.8h-4.8c-1.4,0-2.5,1.1-2.5,2.5v4.8h-4.8c-1.4,0-2.5,1.1-2.5,2.5
		v4.8h-4.8c0,0-0.1,0-0.1,0c0,0-0.1,0-0.1,0h-7c-1.4,0-2.5,1.1-2.5,2.5v4.8h-4.8c-1.4,0-2.5,1.1-2.5,2.5v4.8h-4.8
		c-1.4,0-2.5,1.1-2.5,2.5v4.8h-4.8c-1.4,0-2.5,1.1-2.5,2.5v4.8h-4.8c-1.4,0-2.5,1.1-2.5,2.5v7c0,0,0,0.1,0,0.1c0,0,0,0.1,0,0.1v4.8
		H559c-1.4,0-2.5,1.1-2.5,2.5v4.8h-4.8c-1.4,0-2.5,1.1-2.5,2.5v4.8h-4.8c-1.4,0-2.5,1.1-2.5,2.5v4.8h-4.8c-1.4,0-2.5,1.1-2.5,2.5
		v4.8H530c-1.4,0-2.5,1.1-2.5,2.5v4.8h-4.8c-1.4,0-2.5,1.1-2.5,2.5v4.8h-4.8c-1.4,0-2.5,1.1-2.5,2.5v4.8h-4.8
		c-1.4,0-2.5,1.1-2.5,2.5v4.8h-4.8c-1.4,0-2.5,1.1-2.5,2.5v4.8h-4.8c0,0-0.1,0-0.1,0c0,0-0.1,0-0.1,0h-7c-1.4,0-2.5,1.1-2.5,2.5v7
		c0,0,0,0.1,0,0.1c0,0,0,0.1,0,0.1v4.8h-4.8c-1.4,0-2.5,1.1-2.5,2.5v4.8h-4.8c-1.4,0-2.5,1.1-2.5,2.5v4.8h-4.8c0,0-0.1,0-0.1,0
		c0,0-0.1,0-0.1,0h-7c-1.4,0-2.5,1.1-2.5,2.5v4.8h-2.5v-4.8c0-1.4-1.1-2.5-2.5-2.5h-7c0,0-0.1,0-0.1,0c0,0-0.1,0-0.1,0h-7
		c0,0-0.1,0-0.1,0c0,0-0.1,0-0.1,0h-7c-1.4,0-2.5,1.1-2.5,2.5v4.8h-2.5v-4.8c0-1.4-1.1-2.5-2.5-2.5h-4.8v-4.8c0-1.4-1.1-2.5-2.5-2.5
		h-4.8v-4.8c0-1.4-1.1-2.5-2.5-2.5h-4.8v-4.8c0-1.4-1.1-2.5-2.5-2.5h-7c0,0-0.1,0-0.1,0c0,0-0.1,0-0.1,0H387v-4.8
		c0-1.4-1.1-2.5-2.5-2.5h-7c0,0-0.1,0-0.1,0c0,0-0.1,0-0.1,0h-4.8V392c0,0,0-0.1,0-0.1c0,0,0-0.1,0-0.1v-7c0,0,0-0.1,0-0.1
		c0,0,0-0.1,0-0.1v-4.8h4.8c1.4,0,2.5-1.1,2.5-2.5v-7c0,0,0-0.1,0-0.1c0,0,0-0.1,0-0.1v-7c0-1.4-1.1-2.5-2.5-2.5h-4.8v-4.8
		c0-1.4-1.1-2.5-2.5-2.5h-4.8v-4.8c0-1.4-1.1-2.5-2.5-2.5H358v-4.8c0-1.4-1.1-2.5-2.5-2.5h-4.8V334c0-1.4-1.1-2.5-2.5-2.5h-7
		c0,0-0.1,0-0.1,0c0,0-0.1,0-0.1,0h-4.8v-4.8c0-1.4-1.1-2.5-2.5-2.5h-4.8v-4.8c0-1.4-1.1-2.5-2.5-2.5h-4.8v-4.8
		c0-1.4-1.1-2.5-2.5-2.5h-4.8v-4.8c0-1.4-1.1-2.5-2.5-2.5h-4.8v-4.8c0-1.4-1.1-2.5-2.5-2.5h-7c0,0-0.1,0-0.1,0c0,0-0.1,0-0.1,0h-4.8
		v-4.8c0-1.4-1.1-2.5-2.5-2.5h-4.8v-4.8c0-1.4-1.1-2.5-2.5-2.5h-4.8v-4.8c0-1.4-1.1-2.5-2.5-2.5h-7c0,0-0.1,0-0.1,0c0,0-0.1,0-0.1,0
		h-7c0,0-0.1,0-0.1,0c0,0-0.1,0-0.1,0h-7c0,0-0.1,0-0.1,0c0,0-0.1,0-0.1,0h-7c-1.4,0-2.5,1.1-2.5,2.5v4.8h-4.8c0,0-0.1,0-0.1,0
		c0,0-0.1,0-0.1,0h-7c0,0-0.1,0-0.1,0c0,0-0.1,0-0.1,0h-7c-1.4,0-2.5,1.1-2.5,2.5v4.8h-4.8c0,0-0.1,0-0.1,0c0,0-0.1,0-0.1,0h-7
		c0,0-0.1,0-0.1,0c0,0-0.1,0-0.1,0h-7c-1.4,0-2.5,1.1-2.5,2.5v4.8H196c0,0-0.1,0-0.1,0c0,0-0.1,0-0.1,0h-7c0,0-0.1,0-0.1,0
		c0,0-0.1,0-0.1,0h-7c0,0-0.1,0-0.1,0c0,0-0.1,0-0.1,0h-4.8v-4.8c0-1.4-1.1-2.5-2.5-2.5h-7c0,0-0.1,0-0.1,0c0,0-0.1,0-0.1,0H162
		v-4.8c0-1.4-1.1-2.5-2.5-2.5h-4.8v-4.8c0-1.4-1.1-2.5-2.5-2.5h-7c0,0-0.1,0-0.1,0c0,0-0.1,0-0.1,0h-4.8v-4.8c0-1.4-1.1-2.5-2.5-2.5
		h-7c0,0-0.1,0-0.1,0c0,0-0.1,0-0.1,0h-7c-1.4,0-2.5,1.1-2.5,2.5v7c0,0,0,0.1,0,0.1c0,0,0,0.1,0,0.1v7c0,0,0,0.1,0,0.1
		c0,0,0,0.1,0,0.1v4.8h-4.8c-1.4,0-2.5,1.1-2.5,2.5v7c0,0,0,0.1,0,0.1c0,0,0,0.1,0,0.1v4.8h-4.8c-1.4,0-2.5,1.1-2.5,2.5v4.8h-4.8
		c-1.4,0-2.5,1.1-2.5,2.5v4.8h-4.8c-1.4,0-2.5,1.1-2.5,2.5v4.8h-4.8c-1.4,0-2.5,1.1-2.5,2.5v4.8h-4.8c-1.4,0-2.5,1.1-2.5,2.5v4.8
		h-4.8c0,0-0.1,0-0.1,0c0,0-0.1,0-0.1,0h-7c-1.4,0-2.5,1.1-2.5,2.5v4.8h-4.8c-1.4,0-2.5,1.1-2.5,2.5v4.8h-4.8c0,0-0.1,0-0.1,0
		c0,0-0.1,0-0.1,0h-7c-1.4,0-2.5,1.1-2.5,2.5v7c0,0,0,0.1,0,0.1c0,0,0,0.1,0,0.1v7c0,1.4,1.1,2.5,2.5,2.5h7c0,0,0.1,0,0.1,0
		c0,0,0.1,0,0.1,0h7c0,0,0.1,0,0.1,0c0,0,0.1,0,0.1,0h4.8v4.8c0,1.4,1.1,2.5,2.5,2.5h7c0,0,0.1,0,0.1,0c0,0,0.1,0,0.1,0h7
		c0,0,0.1,0,0.1,0c0,0,0.1,0,0.1,0h7c0,0,0.1,0,0.1,0c0,0,0.1,0,0.1,0h4.8v4.8c0,1.4,1.1,2.5,2.5,2.5h7c0,0,0.1,0,0.1,0
		c0,0,0.1,0,0.1,0h7c0,0,0.1,0,0.1,0c0,0,0.1,0,0.1,0h7c0,0,0.1,0,0.1,0c0,0,0.1,0,0.1,0h7c0,0,0.1,0,0.1,0c0,0,0.1,0,0.1,0h4.8v4.8
		c0,1.4,1.1,2.5,2.5,2.5h7c0,0,0.1,0,0.1,0c0,0,0.1,0,0.1,0h7c0,0,0.1,0,0.1,0c0,0,0.1,0,0.1,0h7c0,0,0.1,0,0.1,0c0,0,0.1,0,0.1,0h7
		c0,0,0.1,0,0.1,0c0,0,0.1,0,0.1,0h4.8v4.8c0,1.4,1.1,2.5,2.5,2.5h7c0,0,0.1,0,0.1,0c0,0,0.1,0,0.1,0h7c0,0,0.1,0,0.1,0
		c0,0,0.1,0,0.1,0h7c0,0,0.1,0,0.1,0c0,0,0.1,0,0.1,0h4.8v4.8c0,1.4,1.1,2.5,2.5,2.5h7c0,0,0.1,0,0.1,0c0,0,0.1,0,0.1,0h7
		c0,0,0.1,0,0.1,0c0,0,0.1,0,0.1,0h4.8v4.8c0,1.4,1.1,2.5,2.5,2.5h7c0,0,0.1,0,0.1,0c0,0,0.1,0,0.1,0h7c0,0,0.1,0,0.1,0
		c0,0,0.1,0,0.1,0h7c0,0,0.1,0,0.1,0c0,0,0.1,0,0.1,0h4.8v4.8c0,1.4,1.1,2.5,2.5,2.5h7c0,0,0.1,0,0.1,0c0,0,0.1,0,0.1,0h7
		c0,0,0.1,0,0.1,0c0,0,0.1,0,0.1,0h7c0,0,0.1,0,0.1,0c0,0,0.1,0,0.1,0h7c0,0,0.1,0,0.1,0c0,0,0.1,0,0.1,0h7c0,0,0.1,0,0.1,0
		c0,0,0.1,0,0.1,0h4.8v4.8c0,1.4,1.1,2.5,2.5,2.5h7c0,0,0.1,0,0.1,0c0,0,0.1,0,0.1,0h7c0,0,0.1,0,0.1,0c0,0,0.1,0,0.1,0h4.8v4.8
		c0,1.4,1.1,2.5,2.5,2.5h7c0,0,0.1,0,0.1,0c0,0,0.1,0,0.1,0h7c0,0,0.1,0,0.1,0c0,0,0.1,0,0.1,0h7c0,0,0.1,0,0.1,0c0,0,0.1,0,0.1,0h7
		c0,0,0.1,0,0.1,0c0,0,0.1,0,0.1,0h4.8v4.8c0,1.4,1.1,2.5,2.5,2.5h7c0,0,0.1,0,0.1,0c0,0,0.1,0,0.1,0h7c0,0,0.1,0,0.1,0
		c0,0,0.1,0,0.1,0h7c0,0,0.1,0,0.1,0c0,0,0.1,0,0.1,0h7c0,0,0.1,0,0.1,0c0,0,0.1,0,0.1,0h4.8v4.8c0,1.4,1.1,2.5,2.5,2.5h7
		c0,0,0.1,0,0.1,0c0,0,0.1,0,0.1,0h7c0,0,0.1,0,0.1,0c0,0,0.1,0,0.1,0h7c0,0,0.1,0,0.1,0c0,0,0.1,0,0.1,0h4.8v4.8c0,0,0,0.1,0,0.1
		c0,0,0,0.1,0,0.1v7c0,1.4,1.1,2.5,2.5,2.5h4.8v4.8c0,1.4,1.1,2.5,2.5,2.5h4.8v4.8c0,1.4,1.1,2.5,2.5,2.5h4.8v2.5h-4.8
		c-1.4,0-2.5,1.1-2.5,2.5v7c0,0,0,0.1,0,0.1c0,0,0,0.1,0,0.1v7c0,0,0,0.1,0,0.1c0,0,0,0.1,0,0.1v7c0,0,0,0.1,0,0.1c0,0,0,0.1,0,0.1
		v7c0,0,0,0.1,0,0.1c0,0,0,0.1,0,0.1v7c0,0,0,0.1,0,0.1c0,0,0,0.1,0,0.1v7c0,0,0,0.1,0,0.1c0,0,0,0.1,0,0.1v7c0,1.4,1.1,2.5,2.5,2.5
		h4.8v4.8c0,0,0,0.1,0,0.1c0,0,0,0.1,0,0.1v7c0,0,0,0.1,0,0.1c0,0,0,0.1,0,0.1v4.8h-4.8c0,0-0.1,0-0.1,0c0,0-0.1,0-0.1,0h-7
		c0,0-0.1,0-0.1,0c0,0-0.1,0-0.1,0h-7c0,0-0.1,0-0.1,0c0,0-0.1,0-0.1,0h-7c-1.4,0-2.5,1.1-2.5,2.5v7c0,0,0,0.1,0,0.1
		c0,0,0,0.1,0,0.1v7c0,0,0,0.1,0,0.1c0,0,0,0.1,0,0.1v7c0,0,0,0.1,0,0.1c0,0,0,0.1,0,0.1v7c0,0,0,0.1,0,0.1c0,0,0,0.1,0,0.1v4.8
		h-4.8c-1.4,0-2.5,1.1-2.5,2.5v7c0,0,0,0.1,0,0.1c0,0,0,0.1,0,0.1v7c0,0,0,0.1,0,0.1c0,0,0,0.1,0,0.1v7c0,0,0,0.1,0,0.1
		c0,0,0,0.1,0,0.1v7c0,0,0,0.1,0,0.1c0,0,0,0.1,0,0.1v7c0,0,0,0.1,0,0.1c0,0,0,0.1,0,0.1v7c0,0,0,0.1,0,0.1c0,0,0,0.1,0,0.1v7
		c0,0,0,0.1,0,0.1c0,0,0,0.1,0,0.1v7c0,0,0,0.1,0,0.1c0,0,0,0.1,0,0.1v7c0,0,0,0.1,0,0.1c0,0,0,0.1,0,0.1v7c0,0,0,0.1,0,0.1
		c0,0,0,0.1,0,0.1v7c0,0,0,0.1,0,0.1c0,0,0,0.1,0,0.1v7c0,0,0,0.1,0,0.1c0,0,0,0.1,0,0.1v7c0,0,0,0.1,0,0.1c0,0,0,0.1,0,0.1v7
		c0,0,0,0.1,0,0.1c0,0,0,0.1,0,0.1v7c0,0,0,0.1,0,0.1c0,0,0,0.1,0,0.1v7c0,0,0,0.1,0,0.1c0,0,0,0.1,0,0.1v7c0,0,0,0.1,0,0.1
		c0,0,0,0.1,0,0.1v7c0,1.4,1.1,2.5,2.5,2.5h7c0,0,0.1,0,0.1,0c0,0,0.1,0,0.1,0h4.8v4.8c0,1.4,1.1,2.5,2.5,2.5h7c0,0,0.1,0,0.1,0
		c0,0,0.1,0,0.1,0h4.8v4.8c0,1.4,1.1,2.5,2.5,2.5h4.8v4.8c0,1.4,1.1,2.5,2.5,2.5h7c0,0,0.1,0,0.1,0c0,0,0.1,0,0.1,0h4.8v4.8
		c0,1.4,1.1,2.5,2.5,2.5h4.8v4.8c0,1.4,1.1,2.5,2.5,2.5h4.8v4.8c0,0,0,0.1,0,0.1c0,0,0,0.1,0,0.1v7c0,0,0,0.1,0,0.1c0,0,0,0.1,0,0.1
		v7c0,0,0,0.1,0,0.1c0,0,0,0.1,0,0.1v7c0,0,0,0.1,0,0.1c0,0,0,0.1,0,0.1v7c0,0,0,0.1,0,0.1c0,0,0,0.1,0,0.1v7c0,1.4,1.1,2.5,2.5,2.5
		h4.8v4.8c0,0,0,0.1,0,0.1c0,0,0,0.1,0,0.1v7c0,0,0,0.1,0,0.1c0,0,0,0.1,0,0.1v7c0,1.4,1.1,2.5,2.5,2.5h7c0,0,0.1,0,0.1,0
		c0,0,0.1,0,0.1,0h7c1.4,0,2.5-1.1,2.5-2.5v-4.8h4.8c0,0,0.1,0,0.1,0c0,0,0.1,0,0.1,0h7c0,0,0.1,0,0.1,0c0,0,0.1,0,0.1,0h7
		c0,0,0.1,0,0.1,0c0,0,0.1,0,0.1,0h7c0,0,0.1,0,0.1,0c0,0,0.1,0,0.1,0h7c0,0,0.1,0,0.1,0c0,0,0.1,0,0.1,0h7c0,0,0.1,0,0.1,0
		c0,0,0.1,0,0.1,0h4.8v4.8c0,1.4,1.1,2.5,2.5,2.5h7c0,0,0.1,0,0.1,0c0,0,0.1,0,0.1,0h7c0,0,0.1,0,0.1,0c0,0,0.1,0,0.1,0h7
		c0,0,0.1,0,0.1,0c0,0,0.1,0,0.1,0h7c0,0,0.1,0,0.1,0c0,0,0.1,0,0.1,0h4.8v4.8c0,1.4,1.1,2.5,2.5,2.5h7c0,0,0.1,0,0.1,0
		c0,0,0.1,0,0.1,0h7c0,0,0.1,0,0.1,0c0,0,0.1,0,0.1,0h7c0,0,0.1,0,0.1,0c0,0,0.1,0,0.1,0h7c1.4,0,2.5-1.1,2.5-2.5v-7
		c0,0,0-0.1,0-0.1c0,0,0-0.1,0-0.1v-7c0-1.4-1.1-2.5-2.5-2.5h-4.8v-4.8c0,0,0-0.1,0-0.1c0,0,0-0.1,0-0.1v-7c0,0,0-0.1,0-0.1
		c0,0,0-0.1,0-0.1v-7c0-1.4-1.1-2.5-2.5-2.5h-4.8v-4.8c0,0,0-0.1,0-0.1c0,0,0-0.1,0-0.1v-7c0-1.4-1.1-2.5-2.5-2.5H583v-4.8
		c0,0,0-0.1,0-0.1c0,0,0-0.1,0-0.1v-7c0-1.4-1.1-2.5-2.5-2.5h-4.8v-4.8c0,0,0-0.1,0-0.1c0,0,0-0.1,0-0.1v-7c0-1.4-1.1-2.5-2.5-2.5
		h-4.8v-4.8c0,0,0-0.1,0-0.1c0,0,0-0.1,0-0.1v-7c0-1.4-1.1-2.5-2.5-2.5h-4.8v-4.8c0,0,0-0.1,0-0.1c0,0,0-0.1,0-0.1v-7
		c0,0,0-0.1,0-0.1c0,0,0-0.1,0-0.1v-7c0-1.4-1.1-2.5-2.5-2.5H554v-4.8c0,0,0-0.1,0-0.1c0,0,0-0.1,0-0.1v-7c0-1.4-1.1-2.5-2.5-2.5
		h-4.8V697c0,0,0-0.1,0-0.1c0,0,0-0.1,0-0.1v-7c0,0,0-0.1,0-0.1c0,0,0-0.1,0-0.1v-7c0-1.4-1.1-2.5-2.5-2.5h-4.8v-4.8
		c0,0,0-0.1,0-0.1c0,0,0-0.1,0-0.1v-7c0,0,0-0.1,0-0.1c0,0,0-0.1,0-0.1v-7c0-1.4-1.1-2.5-2.5-2.5h-4.8v-4.8c0,0,0-0.1,0-0.1
		c0,0,0-0.1,0-0.1v-7c0-1.4-1.1-2.5-2.5-2.5H525v-4.8c0,0,0-0.1,0-0.1c0,0,0-0.1,0-0.1v-7c0-1.4-1.1-2.5-2.5-2.5h-4.8v-4.8
		c0,0,0-0.1,0-0.1c0,0,0-0.1,0-0.1v-7c0,0,0-0.1,0-0.1c0,0,0-0.1,0-0.1v-7c0-1.4-1.1-2.5-2.5-2.5h-4.8v-4.8c0-1.4-1.1-2.5-2.5-2.5
		h-4.8v-4.8c0,0,0-0.1,0-0.1c0,0,0-0.1,0-0.1v-7c0,0,0-0.1,0-0.1c0,0,0-0.1,0-0.1v-7c0-1.4-1.1-2.5-2.5-2.5h-4.8v-4.8
		c0,0,0-0.1,0-0.1c0,0,0-0.1,0-0.1v-7c0-1.4-1.1-2.5-2.5-2.5h-4.8V559c0,0,0-0.1,0-0.1c0,0,0-0.1,0-0.1v-7c0,0,0-0.1,0-0.1
		c0,0,0-0.1,0-0.1v-7c0-1.4-1.1-2.5-2.5-2.5h-4.8v-4.8c0,0,0-0.1,0-0.1c0,0,0-0.1,0-0.1v-7c0,0,0-0.1,0-0.1c0,0,0-0.1,0-0.1v-7
		c0-1.4-1.1-2.5-2.5-2.5h-4.8v-4.8c0,0,0-0.1,0-0.1c0,0,0-0.1,0-0.1v-7c0,0,0-0.1,0-0.1c0,0,0-0.1,0-0.1v-7c0-1.4-1.1-2.5-2.5-2.5
		h-4.8v-4.8c0,0,0-0.1,0-0.1c0,0,0-0.1,0-0.1v-7c0,0,0-0.1,0-0.1c0,0,0-0.1,0-0.1v-7c0,0,0-0.1,0-0.1c0,0,0-0.1,0-0.1v-7
		c0,0,0-0.1,0-0.1c0,0,0-0.1,0-0.1v-4.8h4.8c1.4,0,2.5-1.1,2.5-2.5v-7c0-1.4-1.1-2.5-2.5-2.5h-4.8v-2.5h4.8c0,0,0.1,0,0.1,0
		c0,0,0.1,0,0.1,0h7c1.4,0,2.5-1.1,2.5-2.5v-4.8h4.8c0,0,0.1,0,0.1,0c0,0,0.1,0,0.1,0h7c0,0,0.1,0,0.1,0c0,0,0.1,0,0.1,0h7
		c0,0,0.1,0,0.1,0c0,0,0.1,0,0.1,0h7c1.4,0,2.5-1.1,2.5-2.5v-4.8h4.8c0,0,0.1,0,0.1,0c0,0,0.1,0,0.1,0h7c1.4,0,2.5-1.1,2.5-2.5v-4.8
		h4.8c0,0,0.1,0,0.1,0c0,0,0.1,0,0.1,0h7c1.4,0,2.5-1.1,2.5-2.5v-4.8h4.8c0,0,0.1,0,0.1,0c0,0,0.1,0,0.1,0h4.8v4.8c0,0,0,0.1,0,0.1
		c0,0,0,0.1,0,0.1v7c0,1.4,1.1,2.5,2.5,2.5h4.8v4.8c0,1.4,1.1,2.5,2.5,2.5h7c0,0,0.1,0,0.1,0c0,0,0.1,0,0.1,0h7c0,0,0.1,0,0.1,0
		c0,0,0.1,0,0.1,0h7c1.4,0,2.5-1.1,2.5-2.5v-4.8h4.8c0,0,0.1,0,0.1,0c0,0,0.1,0,0.1,0h7c0,0,0.1,0,0.1,0c0,0,0.1,0,0.1,0h7
		c1.4,0,2.5-1.1,2.5-2.5v-4.8h4.8c0,0,0.1,0,0.1,0c0,0,0.1,0,0.1,0h7c0,0,0.1,0,0.1,0c0,0,0.1,0,0.1,0h7c1.4,0,2.5-1.1,2.5-2.5v-4.8
		h4.8c0,0,0.1,0,0.1,0c0,0,0.1,0,0.1,0h7c0,0,0.1,0,0.1,0c0,0,0.1,0,0.1,0h7c1.4,0,2.5-1.1,2.5-2.5v-4.8h4.8c0,0,0.1,0,0.1,0
		c0,0,0.1,0,0.1,0h7c0,0,0.1,0,0.1,0c0,0,0.1,0,0.1,0h7c1.4,0,2.5-1.1,2.5-2.5v-4.8h4.8c0,0,0.1,0,0.1,0c0,0,0.1,0,0.1,0h7
		c0,0,0.1,0,0.1,0c0,0,0.1,0,0.1,0h7c1.4,0,2.5-1.1,2.5-2.5v-4.8h4.8c0,0,0.1,0,0.1,0c0,0,0.1,0,0.1,0h7c1.4,0,2.5-1.1,2.5-2.5v-4.8
		h4.8c1.4,0,2.5-1.1,2.5-2.5v-7c0,0,0-0.1,0-0.1c0,0,0-0.1,0-0.1v-7c0,0,0-0.1,0-0.1c0,0,0-0.1,0-0.1v-7c0,0,0-0.1,0-0.1
		c0,0,0-0.1,0-0.1v-7c0,0,0-0.1,0-0.1c0,0,0-0.1,0-0.1v-7c0,0,0-0.1,0-0.1c0,0,0-0.1,0-0.1v-4.8h4.8c1.4,0,2.5-1.1,2.5-2.5v-7
		c0,0,0-0.1,0-0.1c0,0,0-0.1,0-0.1v-7c0,0,0-0.1,0-0.1c0,0,0-0.1,0-0.1v-4.8h4.8c1.4,0,2.5-1.1,2.5-2.5v-7c0,0,0-0.1,0-0.1
		c0,0,0-0.1,0-0.1v-4.8h4.8c1.4,0,2.5-1.1,2.5-2.5v-4.8h4.8c1.4,0,2.5-1.1,2.5-2.5v-4.8h4.8c0,0,0.1,0,0.1,0c0,0,0.1,0,0.1,0h7
		c0,0,0.1,0,0.1,0c0,0,0.1,0,0.1,0h7c1.4,0,2.5-1.1,2.5-2.5v-4.8h4.8c0,0,0.1,0,0.1,0c0,0,0.1,0,0.1,0h7c1.4,0,2.5-1.1,2.5-2.5v-7
		c0,0,0-0.1,0-0.1c0,0,0-0.1,0-0.1V275.9z"/>
</g>
<g id="Слой_1" xmlns:ev="http://www.w3.org/2001/xml-events">
	<path class="st1" d="M726,159.7h7v7h-7V159.7z M733.3,159.7h7v7h-7V159.7z M718.7,167h7v7h-7V167z M726,167h7v7h-7V167z M733.3,167
		h7v7h-7V167z M711.5,174.2h7v7h-7V174.2z M718.7,174.2h7v7h-7V174.2z M726,174.2h7v7h-7V174.2z M733.3,174.2h7v7h-7V174.2z
		 M740.5,174.2h7v7h-7V174.2z M704.2,181.5h7v7h-7V181.5z M711.5,181.5h7v7h-7V181.5z M718.7,181.5h7v7h-7V181.5z M733.3,181.5h7v7
		h-7V181.5z M740.5,181.5h7v7h-7V181.5z M697,188.8h7v7h-7V188.8z M704.2,188.8h7v7h-7V188.8z M711.5,188.8h7v7h-7V188.8z
		 M733.3,188.8h7v7h-7V188.8z M740.5,188.8h7v7h-7V188.8z M697,196h7v7h-7V196z M704.2,196h7v7h-7V196z M733.3,196h7v7h-7V196z
		 M740.5,196h7v7h-7V196z M689.7,203.3h7v7h-7V203.3z M697,203.3h7v7h-7V203.3z M704.2,203.3h7v7h-7V203.3z M733.3,203.3h7v7h-7
		V203.3z M740.5,203.3h7v7h-7V203.3z M682.4,210.5h7v7h-7V210.5z M689.7,210.5h7v7h-7V210.5z M697,210.5h7v7h-7V210.5z M733.3,210.5
		h7v7h-7V210.5z M740.5,210.5h7v7h-7V210.5z M675.2,217.8h7v7h-7V217.8z M682.4,217.8h7v7h-7V217.8z M689.7,217.8h7v7h-7V217.8z
		 M733.3,217.8h7v7h-7V217.8z M740.5,217.8h7v7h-7V217.8z M667.9,225.1h7v7h-7V225.1z M675.2,225.1h7v7h-7V225.1z M682.4,225.1h7v7
		h-7V225.1z M689.7,225.1h7v7h-7V225.1z M733.3,225.1h7v7h-7V225.1z M740.5,225.1h7v7h-7V225.1z M660.7,232.3h7v7h-7V232.3z
		 M667.9,232.3h7v7h-7V232.3z M675.2,232.3h7v7h-7V232.3z M689.7,232.3h7v7h-7V232.3z M740.5,232.3h7v7h-7V232.3z M653.4,239.6h7v7
		h-7V239.6z M660.7,239.6h7v7h-7V239.6z M667.9,239.6h7v7h-7V239.6z M689.7,239.6h7v7h-7V239.6z M733.3,239.6h7v7h-7V239.6z
		 M740.5,239.6h7v7h-7V239.6z M747.8,239.6h7v7h-7V239.6z M646.1,246.8h7v7h-7V246.8z M653.4,246.8h7v7h-7V246.8z M660.7,246.8h7v7
		h-7V246.8z M689.7,246.8h7v7h-7V246.8z M697,246.8h7v7h-7V246.8z M718.7,246.8h7v7h-7V246.8z M726,246.8h7v7h-7V246.8z
		 M740.5,246.8h7v7h-7V246.8z M747.8,246.8h7v7h-7V246.8z M638.9,254.1h7v7h-7V254.1z M646.1,254.1h7v7h-7V254.1z M653.4,254.1h7v7
		h-7V254.1z M689.7,254.1h7v7h-7V254.1z M697,254.1h7v7h-7V254.1z M704.2,254.1h7v7h-7V254.1z M711.5,254.1h7v7h-7V254.1z
		 M718.7,254.1h7v7h-7V254.1z M747.8,254.1h7v7h-7V254.1z M755,254.1h7v7h-7V254.1z M631.6,261.4h7v7h-7V261.4z M638.9,261.4h7v7h-7
		V261.4z M646.1,261.4h7v7h-7V261.4z M697,261.4h7v7h-7V261.4z M704.2,261.4h7v7h-7V261.4z M755,261.4h7v7h-7V261.4z M123.4,268.6h7
		v7h-7V268.6z M130.7,268.6h7v7h-7V268.6z M624.4,268.6h7v7h-7V268.6z M631.6,268.6h7v7h-7V268.6z M638.9,268.6h7v7h-7V268.6z
		 M689.7,268.6h7v7h-7V268.6z M697,268.6h7v7h-7V268.6z M755,268.6h7v7h-7V268.6z M762.3,268.6h7v7h-7V268.6z M123.4,275.9h7v7h-7
		V275.9z M130.7,275.9h7v7h-7V275.9z M137.9,275.9h7v7h-7V275.9z M145.2,275.9h7v7h-7V275.9z M246.8,275.9h7v7h-7V275.9z
		 M254.1,275.9h7v7h-7V275.9z M261.4,275.9h7v7h-7V275.9z M268.6,275.9h7v7h-7V275.9z M617.1,275.9h7v7h-7V275.9z M624.4,275.9h7v7
		h-7V275.9z M631.6,275.9h7v7h-7V275.9z M638.9,275.9h7v7h-7V275.9z M682.4,275.9h7v7h-7V275.9z M689.7,275.9h7v7h-7V275.9z
		 M697,275.9h7v7h-7V275.9z M762.3,275.9h7v7h-7V275.9z M769.6,275.9h7v7h-7V275.9z M123.4,283.1h7v7h-7V283.1z M137.9,283.1h7v7h-7
		V283.1z M145.2,283.1h7v7h-7V283.1z M152.5,283.1h7v7h-7V283.1z M225.1,283.1h7v7h-7V283.1z M232.3,283.1h7v7h-7V283.1z
		 M239.6,283.1h7v7h-7V283.1z M268.6,283.1h7v7h-7V283.1z M275.9,283.1h7v7h-7V283.1z M609.8,283.1h7v7h-7V283.1z M617.1,283.1h7v7
		h-7V283.1z M624.4,283.1h7v7h-7V283.1z M638.9,283.1h7v7h-7V283.1z M667.9,283.1h7v7h-7V283.1z M675.2,283.1h7v7h-7V283.1z
		 M704.2,283.1h7v7h-7V283.1z M755,283.1h7v7h-7V283.1z M762.3,283.1h7v7h-7V283.1z M769.6,283.1h7v7h-7V283.1z M116.2,290.4h7v7h-7
		V290.4z M123.4,290.4h7v7h-7V290.4z M152.5,290.4h7v7h-7V290.4z M159.7,290.4h7v7h-7V290.4z M167,290.4h7v7h-7V290.4z M203.3,290.4
		h7v7h-7V290.4z M210.5,290.4h7v7h-7V290.4z M217.8,290.4h7v7h-7V290.4z M225.1,290.4h7v7h-7V290.4z M239.6,290.4h7v7h-7V290.4z
		 M275.9,290.4h7v7h-7V290.4z M283.1,290.4h7v7h-7V290.4z M595.3,290.4h7v7h-7V290.4z M602.6,290.4h7v7h-7V290.4z M609.8,290.4h7v7
		h-7V290.4z M617.1,290.4h7v7h-7V290.4z M638.9,290.4h7v7h-7V290.4z M653.4,290.4h7v7h-7V290.4z M660.7,290.4h7v7h-7V290.4z
		 M667.9,290.4h7v7h-7V290.4z M704.2,290.4h7v7h-7V290.4z M711.5,290.4h7v7h-7V290.4z M740.5,290.4h7v7h-7V290.4z M747.8,290.4h7v7
		h-7V290.4z M755,290.4h7v7h-7V290.4z M116.2,297.7h7v7h-7V297.7z M167,297.7h7v7h-7V297.7z M174.2,297.7h7v7h-7V297.7z
		 M181.5,297.7h7v7h-7V297.7z M188.8,297.7h7v7h-7V297.7z M196,297.7h7v7h-7V297.7z M246.8,297.7h7v7h-7V297.7z M254.1,297.7h7v7h-7
		V297.7z M290.4,297.7h7v7h-7V297.7z M297.7,297.7h7v7h-7V297.7z M588.1,297.7h7v7h-7V297.7z M595.3,297.7h7v7h-7V297.7z
		 M602.6,297.7h7v7h-7V297.7z M609.8,297.7h7v7h-7V297.7z M638.9,297.7h7v7h-7V297.7z M646.1,297.7h7v7h-7V297.7z M653.4,297.7h7v7
		h-7V297.7z M711.5,297.7h7v7h-7V297.7z M718.7,297.7h7v7h-7V297.7z M726,297.7h7v7h-7V297.7z M733.3,297.7h7v7h-7V297.7z
		 M108.9,304.9h7v7h-7V304.9z M116.2,304.9h7v7h-7V304.9z M174.2,304.9h7v7h-7V304.9z M181.5,304.9h7v7h-7V304.9z M188.8,304.9h7v7
		h-7V304.9z M196,304.9h7v7h-7V304.9z M261.4,304.9h7v7h-7V304.9z M268.6,304.9h7v7h-7V304.9z M297.7,304.9h7v7h-7V304.9z
		 M304.9,304.9h7v7h-7V304.9z M580.8,304.9h7v7h-7V304.9z M588.1,304.9h7v7h-7V304.9z M595.3,304.9h7v7h-7V304.9z M602.6,304.9h7v7
		h-7V304.9z M638.9,304.9h7v7h-7V304.9z M646.1,304.9h7v7h-7V304.9z M711.5,304.9h7v7h-7V304.9z M718.7,304.9h7v7h-7V304.9z
		 M726,304.9h7v7h-7V304.9z M101.6,312.2h7v7h-7V312.2z M108.9,312.2h7v7h-7V312.2z M116.2,312.2h7v7h-7V312.2z M174.2,312.2h7v7h-7
		V312.2z M196,312.2h7v7h-7V312.2z M203.3,312.2h7v7h-7V312.2z M210.5,312.2h7v7h-7V312.2z M268.6,312.2h7v7h-7V312.2z M275.9,312.2
		h7v7h-7V312.2z M304.9,312.2h7v7h-7V312.2z M312.2,312.2h7v7h-7V312.2z M573.5,312.2h7v7h-7V312.2z M580.8,312.2h7v7h-7V312.2z
		 M588.1,312.2h7v7h-7V312.2z M595.3,312.2h7v7h-7V312.2z M624.4,312.2h7v7h-7V312.2z M631.6,312.2h7v7h-7V312.2z M646.1,312.2h7v7
		h-7V312.2z M704.2,312.2h7v7h-7V312.2z M711.5,312.2h7v7h-7V312.2z M718.7,312.2h7v7h-7V312.2z M94.4,319.4h7v7h-7V319.4z
		 M101.6,319.4h7v7h-7V319.4z M108.9,319.4h7v7h-7V319.4z M116.2,319.4h7v7h-7V319.4z M123.4,319.4h7v7h-7V319.4z M130.7,319.4h7v7
		h-7V319.4z M167,319.4h7v7h-7V319.4z M210.5,319.4h7v7h-7V319.4z M217.8,319.4h7v7h-7V319.4z M225.1,319.4h7v7h-7V319.4z
		 M232.3,319.4h7v7h-7V319.4z M283.1,319.4h7v7h-7V319.4z M304.9,319.4h7v7h-7V319.4z M312.2,319.4h7v7h-7V319.4z M319.4,319.4h7v7
		h-7V319.4z M566.3,319.4h7v7h-7V319.4z M573.5,319.4h7v7h-7V319.4z M580.8,319.4h7v7h-7V319.4z M617.1,319.4h7v7h-7V319.4z
		 M624.4,319.4h7v7h-7V319.4z M653.4,319.4h7v7h-7V319.4z M689.7,319.4h7v7h-7V319.4z M697,319.4h7v7h-7V319.4z M704.2,319.4h7v7h-7
		V319.4z M711.5,319.4h7v7h-7V319.4z M718.7,319.4h7v7h-7V319.4z M87.1,326.7h7v7h-7V326.7z M94.4,326.7h7v7h-7V326.7z M101.6,326.7
		h7v7h-7V326.7z M123.4,326.7h7v7h-7V326.7z M130.7,326.7h7v7h-7V326.7z M137.9,326.7h7v7h-7V326.7z M167,326.7h7v7h-7V326.7z
		 M225.1,326.7h7v7h-7V326.7z M232.3,326.7h7v7h-7V326.7z M239.6,326.7h7v7h-7V326.7z M246.8,326.7h7v7h-7V326.7z M290.4,326.7h7v7
		h-7V326.7z M297.7,326.7h7v7h-7V326.7z M319.4,326.7h7v7h-7V326.7z M326.7,326.7h7v7h-7V326.7z M566.3,326.7h7v7h-7V326.7z
		 M573.5,326.7h7v7h-7V326.7z M580.8,326.7h7v7h-7V326.7z M602.6,326.7h7v7h-7V326.7z M609.8,326.7h7v7h-7V326.7z M653.4,326.7h7v7
		h-7V326.7z M660.7,326.7h7v7h-7V326.7z M675.2,326.7h7v7h-7V326.7z M682.4,326.7h7v7h-7V326.7z M689.7,326.7h7v7h-7V326.7z
		 M711.5,326.7h7v7h-7V326.7z M79.9,334h7v7h-7V334z M87.1,334h7v7h-7V334z M94.4,334h7v7h-7V334z M145.2,334h7v7h-7V334z
		 M152.5,334h7v7h-7V334z M159.7,334h7v7h-7V334z M167,334h7v7h-7V334z M225.1,334h7v7h-7V334z M232.3,334h7v7h-7V334z M239.6,334h7
		v7h-7V334z M246.8,334h7v7h-7V334z M254.1,334h7v7h-7V334z M275.9,334h7v7h-7V334z M283.1,334h7v7h-7V334z M290.4,334h7v7h-7V334z
		 M297.7,334h7v7h-7V334z M304.9,334h7v7h-7V334z M326.7,334h7v7h-7V334z M334,334h7v7h-7V334z M341.2,334h7v7h-7V334z M559,334h7v7
		h-7V334z M566.3,334h7v7h-7V334z M573.5,334h7v7h-7V334z M595.3,334h7v7h-7V334z M602.6,334h7v7h-7V334z M660.7,334h7v7h-7V334z
		 M667.9,334h7v7h-7V334z M675.2,334h7v7h-7V334z M711.5,334h7v7h-7V334z M65.3,341.2h7v7h-7V341.2z M72.6,341.2h7v7h-7V341.2z
		 M79.9,341.2h7v7h-7V341.2z M152.5,341.2h7v7h-7V341.2z M159.7,341.2h7v7h-7V341.2z M167,341.2h7v7h-7V341.2z M174.2,341.2h7v7h-7
		V341.2z M225.1,341.2h7v7h-7V341.2z M254.1,341.2h7v7h-7V341.2z M261.4,341.2h7v7h-7V341.2z M268.6,341.2h7v7h-7V341.2z
		 M275.9,341.2h7v7h-7V341.2z M304.9,341.2h7v7h-7V341.2z M312.2,341.2h7v7h-7V341.2z M334,341.2h7v7h-7V341.2z M341.2,341.2h7v7h-7
		V341.2z M348.5,341.2h7v7h-7V341.2z M551.8,341.2h7v7h-7V341.2z M559,341.2h7v7h-7V341.2z M566.3,341.2h7v7h-7V341.2z M573.5,341.2
		h7v7h-7V341.2z M580.8,341.2h7v7h-7V341.2z M588.1,341.2h7v7h-7V341.2z M653.4,341.2h7v7h-7V341.2z M660.7,341.2h7v7h-7V341.2z
		 M667.9,341.2h7v7h-7V341.2z M704.2,341.2h7v7h-7V341.2z M711.5,341.2h7v7h-7V341.2z M58.1,348.5h7v7h-7V348.5z M65.3,348.5h7v7h-7
		V348.5z M72.6,348.5h7v7h-7V348.5z M137.9,348.5h7v7h-7V348.5z M145.2,348.5h7v7h-7V348.5z M152.5,348.5h7v7h-7V348.5z
		 M174.2,348.5h7v7h-7V348.5z M181.5,348.5h7v7h-7V348.5z M188.8,348.5h7v7h-7V348.5z M225.1,348.5h7v7h-7V348.5z M261.4,348.5h7v7
		h-7V348.5z M268.6,348.5h7v7h-7V348.5z M275.9,348.5h7v7h-7V348.5z M283.1,348.5h7v7h-7V348.5z M319.4,348.5h7v7h-7V348.5z
		 M341.2,348.5h7v7h-7V348.5z M348.5,348.5h7v7h-7V348.5z M355.7,348.5h7v7h-7V348.5z M544.5,348.5h7v7h-7V348.5z M551.8,348.5h7v7
		h-7V348.5z M559,348.5h7v7h-7V348.5z M566.3,348.5h7v7h-7V348.5z M573.5,348.5h7v7h-7V348.5z M580.8,348.5h7v7h-7V348.5z
		 M638.9,348.5h7v7h-7V348.5z M646.1,348.5h7v7h-7V348.5z M653.4,348.5h7v7h-7V348.5z M704.2,348.5h7v7h-7V348.5z M43.6,355.7h7v7
		h-7V355.7z M50.8,355.7h7v7h-7V355.7z M58.1,355.7h7v7h-7V355.7z M65.3,355.7h7v7h-7V355.7z M137.9,355.7h7v7h-7V355.7z
		 M188.8,355.7h7v7h-7V355.7z M196,355.7h7v7h-7V355.7z M203.3,355.7h7v7h-7V355.7z M217.8,355.7h7v7h-7V355.7z M275.9,355.7h7v7h-7
		V355.7z M283.1,355.7h7v7h-7V355.7z M290.4,355.7h7v7h-7V355.7z M297.7,355.7h7v7h-7V355.7z M326.7,355.7h7v7h-7V355.7z
		 M355.7,355.7h7v7h-7V355.7z M363,355.7h7v7h-7V355.7z M537.2,355.7h7v7h-7V355.7z M544.5,355.7h7v7h-7V355.7z M551.8,355.7h7v7h-7
		V355.7z M573.5,355.7h7v7h-7V355.7z M580.8,355.7h7v7h-7V355.7z M624.4,355.7h7v7h-7V355.7z M631.6,355.7h7v7h-7V355.7z
		 M638.9,355.7h7v7h-7V355.7z M646.1,355.7h7v7h-7V355.7z M697,355.7h7v7h-7V355.7z M704.2,355.7h7v7h-7V355.7z M43.6,363h7v7h-7
		V363z M50.8,363h7v7h-7V363z M58.1,363h7v7h-7V363z M65.3,363h7v7h-7V363z M72.6,363h7v7h-7V363z M79.9,363h7v7h-7V363z M87.1,363
		h7v7h-7V363z M94.4,363h7v7h-7V363z M130.7,363h7v7h-7V363z M203.3,363h7v7h-7V363z M210.5,363h7v7h-7V363z M217.8,363h7v7h-7V363z
		 M225.1,363h7v7h-7V363z M290.4,363h7v7h-7V363z M297.7,363h7v7h-7V363z M304.9,363h7v7h-7V363z M312.2,363h7v7h-7V363z M334,363h7
		v7h-7V363z M363,363h7v7h-7V363z M370.3,363h7v7h-7V363z M530,363h7v7h-7V363z M537.2,363h7v7h-7V363z M544.5,363h7v7h-7V363z
		 M573.5,363h7v7h-7V363z M580.8,363h7v7h-7V363z M609.8,363h7v7h-7V363z M617.1,363h7v7h-7V363z M624.4,363h7v7h-7V363z M631.6,363
		h7v7h-7V363z M682.4,363h7v7h-7V363z M689.7,363h7v7h-7V363z M697,363h7v7h-7V363z M704.2,363h7v7h-7V363z M65.3,370.3h7v7h-7
		V370.3z M72.6,370.3h7v7h-7V370.3z M79.9,370.3h7v7h-7V370.3z M87.1,370.3h7v7h-7V370.3z M94.4,370.3h7v7h-7V370.3z M101.6,370.3h7
		v7h-7V370.3z M108.9,370.3h7v7h-7V370.3z M116.2,370.3h7v7h-7V370.3z M123.4,370.3h7v7h-7V370.3z M130.7,370.3h7v7h-7V370.3z
		 M203.3,370.3h7v7h-7V370.3z M210.5,370.3h7v7h-7V370.3z M225.1,370.3h7v7h-7V370.3z M232.3,370.3h7v7h-7V370.3z M239.6,370.3h7v7
		h-7V370.3z M304.9,370.3h7v7h-7V370.3z M312.2,370.3h7v7h-7V370.3z M319.4,370.3h7v7h-7V370.3z M326.7,370.3h7v7h-7V370.3z
		 M341.2,370.3h7v7h-7V370.3z M348.5,370.3h7v7h-7V370.3z M363,370.3h7v7h-7V370.3z M370.3,370.3h7v7h-7V370.3z M522.7,370.3h7v7h-7
		V370.3z M530,370.3h7v7h-7V370.3z M537.2,370.3h7v7h-7V370.3z M580.8,370.3h7v7h-7V370.3z M588.1,370.3h7v7h-7V370.3z M602.6,370.3
		h7v7h-7V370.3z M609.8,370.3h7v7h-7V370.3z M617.1,370.3h7v7h-7V370.3z M631.6,370.3h7v7h-7V370.3z M667.9,370.3h7v7h-7V370.3z
		 M675.2,370.3h7v7h-7V370.3z M682.4,370.3h7v7h-7V370.3z M697,370.3h7v7h-7V370.3z M704.2,370.3h7v7h-7V370.3z M94.4,377.5h7v7h-7
		V377.5z M101.6,377.5h7v7h-7V377.5z M108.9,377.5h7v7h-7V377.5z M116.2,377.5h7v7h-7V377.5z M123.4,377.5h7v7h-7V377.5z
		 M130.7,377.5h7v7h-7V377.5z M137.9,377.5h7v7h-7V377.5z M145.2,377.5h7v7h-7V377.5z M152.5,377.5h7v7h-7V377.5z M159.7,377.5h7v7
		h-7V377.5z M167,377.5h7v7h-7V377.5z M196,377.5h7v7h-7V377.5z M203.3,377.5h7v7h-7V377.5z M239.6,377.5h7v7h-7V377.5z
		 M246.8,377.5h7v7h-7V377.5z M254.1,377.5h7v7h-7V377.5z M297.7,377.5h7v7h-7V377.5z M304.9,377.5h7v7h-7V377.5z M312.2,377.5h7v7
		h-7V377.5z M319.4,377.5h7v7h-7V377.5z M326.7,377.5h7v7h-7V377.5z M334,377.5h7v7h-7V377.5z M348.5,377.5h7v7h-7V377.5z
		 M355.7,377.5h7v7h-7V377.5z M363,377.5h7v7h-7V377.5z M515.5,377.5h7v7h-7V377.5z M522.7,377.5h7v7h-7V377.5z M530,377.5h7v7h-7
		V377.5z M580.8,377.5h7v7h-7V377.5z M588.1,377.5h7v7h-7V377.5z M595.3,377.5h7v7h-7V377.5z M602.6,377.5h7v7h-7V377.5z
		 M609.8,377.5h7v7h-7V377.5z M631.6,377.5h7v7h-7V377.5z M653.4,377.5h7v7h-7V377.5z M660.7,377.5h7v7h-7V377.5z M667.9,377.5h7v7
		h-7V377.5z M697,377.5h7v7h-7V377.5z M704.2,377.5h7v7h-7V377.5z M130.7,384.8h7v7h-7V384.8z M137.9,384.8h7v7h-7V384.8z
		 M145.2,384.8h7v7h-7V384.8z M152.5,384.8h7v7h-7V384.8z M159.7,384.8h7v7h-7V384.8z M167,384.8h7v7h-7V384.8z M174.2,384.8h7v7h-7
		V384.8z M181.5,384.8h7v7h-7V384.8z M188.8,384.8h7v7h-7V384.8z M196,384.8h7v7h-7V384.8z M254.1,384.8h7v7h-7V384.8z M261.4,384.8
		h7v7h-7V384.8z M268.6,384.8h7v7h-7V384.8z M290.4,384.8h7v7h-7V384.8z M297.7,384.8h7v7h-7V384.8z M304.9,384.8h7v7h-7V384.8z
		 M334,384.8h7v7h-7V384.8z M341.2,384.8h7v7h-7V384.8z M348.5,384.8h7v7h-7V384.8z M355.7,384.8h7v7h-7V384.8z M363,384.8h7v7h-7
		V384.8z M508.2,384.8h7v7h-7V384.8z M515.5,384.8h7v7h-7V384.8z M522.7,384.8h7v7h-7V384.8z M573.5,384.8h7v7h-7V384.8z
		 M580.8,384.8h7v7h-7V384.8z M588.1,384.8h7v7h-7V384.8z M595.3,384.8h7v7h-7V384.8z M631.6,384.8h7v7h-7V384.8z M638.9,384.8h7v7
		h-7V384.8z M646.1,384.8h7v7h-7V384.8z M653.4,384.8h7v7h-7V384.8z M689.7,384.8h7v7h-7V384.8z M697,384.8h7v7h-7V384.8z
		 M704.2,384.8h7v7h-7V384.8z M167,392h7v7h-7V392z M174.2,392h7v7h-7V392z M181.5,392h7v7h-7V392z M188.8,392h7v7h-7V392z M196,392
		h7v7h-7V392z M203.3,392h7v7h-7V392z M210.5,392h7v7h-7V392z M217.8,392h7v7h-7V392z M268.6,392h7v7h-7V392z M275.9,392h7v7h-7V392
		z M283.1,392h7v7h-7V392z M290.4,392h7v7h-7V392z M297.7,392h7v7h-7V392z M348.5,392h7v7h-7V392z M355.7,392h7v7h-7V392z M363,392
		h7v7h-7V392z M500.9,392h7v7h-7V392z M508.2,392h7v7h-7V392z M515.5,392h7v7h-7V392z M566.3,392h7v7h-7V392z M573.5,392h7v7h-7V392
		z M580.8,392h7v7h-7V392z M609.8,392h7v7h-7V392z M617.1,392h7v7h-7V392z M624.4,392h7v7h-7V392z M631.6,392h7v7h-7V392z
		 M675.2,392h7v7h-7V392z M682.4,392h7v7h-7V392z M689.7,392h7v7h-7V392z M697,392h7v7h-7V392z M196,399.3h7v7h-7V399.3z
		 M203.3,399.3h7v7h-7V399.3z M210.5,399.3h7v7h-7V399.3z M217.8,399.3h7v7h-7V399.3z M225.1,399.3h7v7h-7V399.3z M232.3,399.3h7v7
		h-7V399.3z M239.6,399.3h7v7h-7V399.3z M246.8,399.3h7v7h-7V399.3z M275.9,399.3h7v7h-7V399.3z M283.1,399.3h7v7h-7V399.3z
		 M290.4,399.3h7v7h-7V399.3z M355.7,399.3h7v7h-7V399.3z M363,399.3h7v7h-7V399.3z M370.3,399.3h7v7h-7V399.3z M377.5,399.3h7v7h-7
		V399.3z M486.4,399.3h7v7h-7V399.3z M493.7,399.3h7v7h-7V399.3z M500.9,399.3h7v7h-7V399.3z M508.2,399.3h7v7h-7V399.3z
		 M551.8,399.3h7v7h-7V399.3z M559,399.3h7v7h-7V399.3z M566.3,399.3h7v7h-7V399.3z M595.3,399.3h7v7h-7V399.3z M602.6,399.3h7v7h-7
		V399.3z M609.8,399.3h7v7h-7V399.3z M631.6,399.3h7v7h-7V399.3z M653.4,399.3h7v7h-7V399.3z M660.7,399.3h7v7h-7V399.3z
		 M667.9,399.3h7v7h-7V399.3z M675.2,399.3h7v7h-7V399.3z M682.4,399.3h7v7h-7V399.3z M217.8,406.6h7v7h-7V406.6z M225.1,406.6h7v7
		h-7V406.6z M232.3,406.6h7v7h-7V406.6z M239.6,406.6h7v7h-7V406.6z M246.8,406.6h7v7h-7V406.6z M254.1,406.6h7v7h-7V406.6z
		 M261.4,406.6h7v7h-7V406.6z M268.6,406.6h7v7h-7V406.6z M275.9,406.6h7v7h-7V406.6z M283.1,406.6h7v7h-7V406.6z M290.4,406.6h7v7
		h-7V406.6z M297.7,406.6h7v7h-7V406.6z M370.3,406.6h7v7h-7V406.6z M377.5,406.6h7v7h-7V406.6z M384.8,406.6h7v7h-7V406.6z
		 M392,406.6h7v7h-7V406.6z M486.4,406.6h7v7h-7V406.6z M493.7,406.6h7v7h-7V406.6z M500.9,406.6h7v7h-7V406.6z M537.2,406.6h7v7h-7
		V406.6z M544.5,406.6h7v7h-7V406.6z M551.8,406.6h7v7h-7V406.6z M559,406.6h7v7h-7V406.6z M573.5,406.6h7v7h-7V406.6z M580.8,406.6
		h7v7h-7V406.6z M588.1,406.6h7v7h-7V406.6z M631.6,406.6h7v7h-7V406.6z M638.9,406.6h7v7h-7V406.6z M646.1,406.6h7v7h-7V406.6z
		 M653.4,406.6h7v7h-7V406.6z M660.7,406.6h7v7h-7V406.6z M246.8,413.8h7v7h-7V413.8z M254.1,413.8h7v7h-7V413.8z M261.4,413.8h7v7
		h-7V413.8z M268.6,413.8h7v7h-7V413.8z M275.9,413.8h7v7h-7V413.8z M283.1,413.8h7v7h-7V413.8z M290.4,413.8h7v7h-7V413.8z
		 M297.7,413.8h7v7h-7V413.8z M304.9,413.8h7v7h-7V413.8z M312.2,413.8h7v7h-7V413.8z M377.5,413.8h7v7h-7V413.8z M384.8,413.8h7v7
		h-7V413.8z M392,413.8h7v7h-7V413.8z M399.3,413.8h7v7h-7V413.8z M479.2,413.8h7v7h-7V413.8z M486.4,413.8h7v7h-7V413.8z
		 M493.7,413.8h7v7h-7V413.8z M515.5,413.8h7v7h-7V413.8z M522.7,413.8h7v7h-7V413.8z M530,413.8h7v7h-7V413.8z M537.2,413.8h7v7h-7
		V413.8z M544.5,413.8h7v7h-7V413.8z M551.8,413.8h7v7h-7V413.8z M559,413.8h7v7h-7V413.8z M566.3,413.8h7v7h-7V413.8z M609.8,413.8
		h7v7h-7V413.8z M617.1,413.8h7v7h-7V413.8z M624.4,413.8h7v7h-7V413.8z M631.6,413.8h7v7h-7V413.8z M638.9,413.8h7v7h-7V413.8z
		 M290.4,421.1h7v7h-7V421.1z M297.7,421.1h7v7h-7V421.1z M304.9,421.1h7v7h-7V421.1z M312.2,421.1h7v7h-7V421.1z M319.4,421.1h7v7
		h-7V421.1z M326.7,421.1h7v7h-7V421.1z M334,421.1h7v7h-7V421.1z M341.2,421.1h7v7h-7V421.1z M384.8,421.1h7v7h-7V421.1z
		 M392,421.1h7v7h-7V421.1z M399.3,421.1h7v7h-7V421.1z M406.6,421.1h7v7h-7V421.1z M471.9,421.1h7v7h-7V421.1z M479.2,421.1h7v7h-7
		V421.1z M486.4,421.1h7v7h-7V421.1z M493.7,421.1h7v7h-7V421.1z M500.9,421.1h7v7h-7V421.1z M508.2,421.1h7v7h-7V421.1z
		 M515.5,421.1h7v7h-7V421.1z M522.7,421.1h7v7h-7V421.1z M530,421.1h7v7h-7V421.1z M551.8,421.1h7v7h-7V421.1z M559,421.1h7v7h-7
		V421.1z M580.8,421.1h7v7h-7V421.1z M588.1,421.1h7v7h-7V421.1z M595.3,421.1h7v7h-7V421.1z M602.6,421.1h7v7h-7V421.1z
		 M609.8,421.1h7v7h-7V421.1z M617.1,421.1h7v7h-7V421.1z M312.2,428.3h7v7h-7V428.3z M319.4,428.3h7v7h-7V428.3z M326.7,428.3h7v7
		h-7V428.3z M334,428.3h7v7h-7V428.3z M341.2,428.3h7v7h-7V428.3z M348.5,428.3h7v7h-7V428.3z M355.7,428.3h7v7h-7V428.3z
		 M363,428.3h7v7h-7V428.3z M370.3,428.3h7v7h-7V428.3z M377.5,428.3h7v7h-7V428.3z M399.3,428.3h7v7h-7V428.3z M406.6,428.3h7v7h-7
		V428.3z M413.8,428.3h7v7h-7V428.3z M428.3,428.3h7v7h-7V428.3z M435.6,428.3h7v7h-7V428.3z M442.9,428.3h7v7h-7V428.3z
		 M457.4,428.3h7v7h-7V428.3z M464.6,428.3h7v7h-7V428.3z M471.9,428.3h7v7h-7V428.3z M479.2,428.3h7v7h-7V428.3z M486.4,428.3h7v7
		h-7V428.3z M493.7,428.3h7v7h-7V428.3z M500.9,428.3h7v7h-7V428.3z M508.2,428.3h7v7h-7V428.3z M515.5,428.3h7v7h-7V428.3z
		 M551.8,428.3h7v7h-7V428.3z M559,428.3h7v7h-7V428.3z M566.3,428.3h7v7h-7V428.3z M573.5,428.3h7v7h-7V428.3z M580.8,428.3h7v7h-7
		V428.3z M588.1,428.3h7v7h-7V428.3z M595.3,428.3h7v7h-7V428.3z M348.5,435.6h7v7h-7V435.6z M355.7,435.6h7v7h-7V435.6z M363,435.6
		h7v7h-7V435.6z M370.3,435.6h7v7h-7V435.6z M377.5,435.6h7v7h-7V435.6z M384.8,435.6h7v7h-7V435.6z M392,435.6h7v7h-7V435.6z
		 M399.3,435.6h7v7h-7V435.6z M406.6,435.6h7v7h-7V435.6z M413.8,435.6h7v7h-7V435.6z M421.1,435.6h7v7h-7V435.6z M428.3,435.6h7v7
		h-7V435.6z M435.6,435.6h7v7h-7V435.6z M442.9,435.6h7v7h-7V435.6z M450.1,435.6h7v7h-7V435.6z M457.4,435.6h7v7h-7V435.6z
		 M464.6,435.6h7v7h-7V435.6z M471.9,435.6h7v7h-7V435.6z M479.2,435.6h7v7h-7V435.6z M486.4,435.6h7v7h-7V435.6z M493.7,435.6h7v7
		h-7V435.6z M500.9,435.6h7v7h-7V435.6z M559,435.6h7v7h-7V435.6z M566.3,435.6h7v7h-7V435.6z M573.5,435.6h7v7h-7V435.6z
		 M384.8,442.9h7v7h-7V442.9z M392,442.9h7v7h-7V442.9z M399.3,442.9h7v7h-7V442.9z M406.6,442.9h7v7h-7V442.9z M413.8,442.9h7v7h-7
		V442.9z M421.1,442.9h7v7h-7V442.9z M450.1,442.9h7v7h-7V442.9z M457.4,442.9h7v7h-7V442.9z M464.6,442.9h7v7h-7V442.9z
		 M471.9,442.9h7v7h-7V442.9z M413.8,450.1h7v7h-7V450.1z M421.1,450.1h7v7h-7V450.1z M457.4,450.1h7v7h-7V450.1z M413.8,457.4h7v7
		h-7V457.4z M421.1,457.4h7v7h-7V457.4z M450.1,457.4h7v7h-7V457.4z M457.4,457.4h7v7h-7V457.4z M464.6,457.4h7v7h-7V457.4z
		 M421.1,464.6h7v7h-7V464.6z M428.3,464.6h7v7h-7V464.6z M435.6,464.6h7v7h-7V464.6z M442.9,464.6h7v7h-7V464.6z M450.1,464.6h7v7
		h-7V464.6z M457.4,464.6h7v7h-7V464.6z M428.3,471.9h7v7h-7V471.9z M435.6,471.9h7v7h-7V471.9z M442.9,471.9h7v7h-7V471.9z
		 M450.1,471.9h7v7h-7V471.9z M457.4,471.9h7v7h-7V471.9z M435.6,479.2h7v7h-7V479.2z M442.9,479.2h7v7h-7V479.2z M450.1,479.2h7v7
		h-7V479.2z M457.4,479.2h7v7h-7V479.2z M428.3,486.4h7v7h-7V486.4z M435.6,486.4h7v7h-7V486.4z M442.9,486.4h7v7h-7V486.4z
		 M450.1,486.4h7v7h-7V486.4z M457.4,486.4h7v7h-7V486.4z M428.3,493.7h7v7h-7V493.7z M435.6,493.7h7v7h-7V493.7z M442.9,493.7h7v7
		h-7V493.7z M450.1,493.7h7v7h-7V493.7z M457.4,493.7h7v7h-7V493.7z M428.3,500.9h7v7h-7V500.9z M435.6,500.9h7v7h-7V500.9z
		 M442.9,500.9h7v7h-7V500.9z M450.1,500.9h7v7h-7V500.9z M457.4,500.9h7v7h-7V500.9z M464.6,500.9h7v7h-7V500.9z M428.3,508.2h7v7
		h-7V508.2z M435.6,508.2h7v7h-7V508.2z M442.9,508.2h7v7h-7V508.2z M450.1,508.2h7v7h-7V508.2z M457.4,508.2h7v7h-7V508.2z
		 M464.6,508.2h7v7h-7V508.2z M428.3,515.5h7v7h-7V515.5z M435.6,515.5h7v7h-7V515.5z M442.9,515.5h7v7h-7V515.5z M457.4,515.5h7v7
		h-7V515.5z M464.6,515.5h7v7h-7V515.5z M428.3,522.7h7v7h-7V522.7z M435.6,522.7h7v7h-7V522.7z M442.9,522.7h7v7h-7V522.7z
		 M457.4,522.7h7v7h-7V522.7z M464.6,522.7h7v7h-7V522.7z M471.9,522.7h7v7h-7V522.7z M428.3,530h7v7h-7V530z M435.6,530h7v7h-7V530
		z M442.9,530h7v7h-7V530z M464.6,530h7v7h-7V530z M471.9,530h7v7h-7V530z M435.6,537.2h7v7h-7V537.2z M442.9,537.2h7v7h-7V537.2z
		 M464.6,537.2h7v7h-7V537.2z M471.9,537.2h7v7h-7V537.2z M435.6,544.5h7v7h-7V544.5z M442.9,544.5h7v7h-7V544.5z M471.9,544.5h7v7
		h-7V544.5z M479.2,544.5h7v7h-7V544.5z M435.6,551.8h7v7h-7V551.8z M442.9,551.8h7v7h-7V551.8z M471.9,551.8h7v7h-7V551.8z
		 M479.2,551.8h7v7h-7V551.8z M406.6,559h7v7h-7V559z M413.8,559h7v7h-7V559z M421.1,559h7v7h-7V559z M428.3,559h7v7h-7V559z
		 M435.6,559h7v7h-7V559z M442.9,559h7v7h-7V559z M471.9,559h7v7h-7V559z M479.2,559h7v7h-7V559z M406.6,566.3h7v7h-7V566.3z
		 M413.8,566.3h7v7h-7V566.3z M421.1,566.3h7v7h-7V566.3z M428.3,566.3h7v7h-7V566.3z M435.6,566.3h7v7h-7V566.3z M442.9,566.3h7v7
		h-7V566.3z M479.2,566.3h7v7h-7V566.3z M486.4,566.3h7v7h-7V566.3z M406.6,573.5h7v7h-7V573.5z M428.3,573.5h7v7h-7V573.5z
		 M435.6,573.5h7v7h-7V573.5z M442.9,573.5h7v7h-7V573.5z M479.2,573.5h7v7h-7V573.5z M486.4,573.5h7v7h-7V573.5z M406.6,580.8h7v7
		h-7V580.8z M428.3,580.8h7v7h-7V580.8z M435.6,580.8h7v7h-7V580.8z M442.9,580.8h7v7h-7V580.8z M486.4,580.8h7v7h-7V580.8z
		 M493.7,580.8h7v7h-7V580.8z M406.6,588.1h7v7h-7V588.1z M428.3,588.1h7v7h-7V588.1z M442.9,588.1h7v7h-7V588.1z M486.4,588.1h7v7
		h-7V588.1z M493.7,588.1h7v7h-7V588.1z M399.3,595.3h7v7h-7V595.3z M406.6,595.3h7v7h-7V595.3z M428.3,595.3h7v7h-7V595.3z
		 M442.9,595.3h7v7h-7V595.3z M486.4,595.3h7v7h-7V595.3z M493.7,595.3h7v7h-7V595.3z M399.3,602.6h7v7h-7V602.6z M406.6,602.6h7v7
		h-7V602.6z M428.3,602.6h7v7h-7V602.6z M442.9,602.6h7v7h-7V602.6z M486.4,602.6h7v7h-7V602.6z M493.7,602.6h7v7h-7V602.6z
		 M500.9,602.6h7v7h-7V602.6z M399.3,609.8h7v7h-7V609.8z M406.6,609.8h7v7h-7V609.8z M428.3,609.8h7v7h-7V609.8z M442.9,609.8h7v7
		h-7V609.8z M450.1,609.8h7v7h-7V609.8z M457.4,609.8h7v7h-7V609.8z M464.6,609.8h7v7h-7V609.8z M471.9,609.8h7v7h-7V609.8z
		 M479.2,609.8h7v7h-7V609.8z M486.4,609.8h7v7h-7V609.8z M493.7,609.8h7v7h-7V609.8z M500.9,609.8h7v7h-7V609.8z M508.2,609.8h7v7
		h-7V609.8z M399.3,617.1h7v7h-7V617.1z M406.6,617.1h7v7h-7V617.1z M421.1,617.1h7v7h-7V617.1z M442.9,617.1h7v7h-7V617.1z
		 M450.1,617.1h7v7h-7V617.1z M471.9,617.1h7v7h-7V617.1z M479.2,617.1h7v7h-7V617.1z M486.4,617.1h7v7h-7V617.1z M493.7,617.1h7v7
		h-7V617.1z M500.9,617.1h7v7h-7V617.1z M508.2,617.1h7v7h-7V617.1z M399.3,624.4h7v7h-7V624.4z M406.6,624.4h7v7h-7V624.4z
		 M421.1,624.4h7v7h-7V624.4z M442.9,624.4h7v7h-7V624.4z M450.1,624.4h7v7h-7V624.4z M479.2,624.4h7v7h-7V624.4z M486.4,624.4h7v7
		h-7V624.4z M500.9,624.4h7v7h-7V624.4z M508.2,624.4h7v7h-7V624.4z M399.3,631.6h7v7h-7V631.6z M406.6,631.6h7v7h-7V631.6z
		 M421.1,631.6h7v7h-7V631.6z M442.9,631.6h7v7h-7V631.6z M450.1,631.6h7v7h-7V631.6z M479.2,631.6h7v7h-7V631.6z M486.4,631.6h7v7
		h-7V631.6z M508.2,631.6h7v7h-7V631.6z M515.5,631.6h7v7h-7V631.6z M399.3,638.9h7v7h-7V638.9z M406.6,638.9h7v7h-7V638.9z
		 M421.1,638.9h7v7h-7V638.9z M442.9,638.9h7v7h-7V638.9z M450.1,638.9h7v7h-7V638.9z M479.2,638.9h7v7h-7V638.9z M486.4,638.9h7v7
		h-7V638.9z M508.2,638.9h7v7h-7V638.9z M515.5,638.9h7v7h-7V638.9z M399.3,646.1h7v7h-7V646.1z M406.6,646.1h7v7h-7V646.1z
		 M413.8,646.1h7v7h-7V646.1z M421.1,646.1h7v7h-7V646.1z M428.3,646.1h7v7h-7V646.1z M450.1,646.1h7v7h-7V646.1z M479.2,646.1h7v7
		h-7V646.1z M486.4,646.1h7v7h-7V646.1z M508.2,646.1h7v7h-7V646.1z M515.5,646.1h7v7h-7V646.1z M522.7,646.1h7v7h-7V646.1z
		 M399.3,653.4h7v7h-7V653.4z M421.1,653.4h7v7h-7V653.4z M428.3,653.4h7v7h-7V653.4z M435.6,653.4h7v7h-7V653.4z M442.9,653.4h7v7
		h-7V653.4z M450.1,653.4h7v7h-7V653.4z M457.4,653.4h7v7h-7V653.4z M486.4,653.4h7v7h-7V653.4z M515.5,653.4h7v7h-7V653.4z
		 M522.7,653.4h7v7h-7V653.4z M399.3,660.7h7v7h-7V660.7z M421.1,660.7h7v7h-7V660.7z M442.9,660.7h7v7h-7V660.7z M450.1,660.7h7v7
		h-7V660.7z M457.4,660.7h7v7h-7V660.7z M486.4,660.7h7v7h-7V660.7z M493.7,660.7h7v7h-7V660.7z M515.5,660.7h7v7h-7V660.7z
		 M522.7,660.7h7v7h-7V660.7z M530,660.7h7v7h-7V660.7z M399.3,667.9h7v7h-7V667.9z M421.1,667.9h7v7h-7V667.9z M450.1,667.9h7v7h-7
		V667.9z M457.4,667.9h7v7h-7V667.9z M486.4,667.9h7v7h-7V667.9z M493.7,667.9h7v7h-7V667.9z M522.7,667.9h7v7h-7V667.9z M530,667.9
		h7v7h-7V667.9z M399.3,675.2h7v7h-7V675.2z M421.1,675.2h7v7h-7V675.2z M450.1,675.2h7v7h-7V675.2z M457.4,675.2h7v7h-7V675.2z
		 M486.4,675.2h7v7h-7V675.2z M493.7,675.2h7v7h-7V675.2z M522.7,675.2h7v7h-7V675.2z M530,675.2h7v7h-7V675.2z M399.3,682.4h7v7h-7
		V682.4z M421.1,682.4h7v7h-7V682.4z M450.1,682.4h7v7h-7V682.4z M457.4,682.4h7v7h-7V682.4z M493.7,682.4h7v7h-7V682.4z
		 M522.7,682.4h7v7h-7V682.4z M530,682.4h7v7h-7V682.4z M537.2,682.4h7v7h-7V682.4z M399.3,689.7h7v7h-7V689.7z M421.1,689.7h7v7h-7
		V689.7z M450.1,689.7h7v7h-7V689.7z M457.4,689.7h7v7h-7V689.7z M479.2,689.7h7v7h-7V689.7z M486.4,689.7h7v7h-7V689.7z
		 M493.7,689.7h7v7h-7V689.7z M500.9,689.7h7v7h-7V689.7z M508.2,689.7h7v7h-7V689.7z M522.7,689.7h7v7h-7V689.7z M530,689.7h7v7h-7
		V689.7z M537.2,689.7h7v7h-7V689.7z M399.3,697h7v7h-7V697z M421.1,697h7v7h-7V697z M457.4,697h7v7h-7V697z M464.6,697h7v7h-7V697z
		 M471.9,697h7v7h-7V697z M479.2,697h7v7h-7V697z M486.4,697h7v7h-7V697z M493.7,697h7v7h-7V697z M500.9,697h7v7h-7V697z M508.2,697
		h7v7h-7V697z M515.5,697h7v7h-7V697z M522.7,697h7v7h-7V697z M530,697h7v7h-7V697z M537.2,697h7v7h-7V697z M399.3,704.2h7v7h-7
		V704.2z M421.1,704.2h7v7h-7V704.2z M457.4,704.2h7v7h-7V704.2z M500.9,704.2h7v7h-7V704.2z M530,704.2h7v7h-7V704.2z M537.2,704.2
		h7v7h-7V704.2z M544.5,704.2h7v7h-7V704.2z M399.3,711.5h7v7h-7V711.5z M421.1,711.5h7v7h-7V711.5z M457.4,711.5h7v7h-7V711.5z
		 M500.9,711.5h7v7h-7V711.5z M508.2,711.5h7v7h-7V711.5z M537.2,711.5h7v7h-7V711.5z M544.5,711.5h7v7h-7V711.5z M399.3,718.7h7v7
		h-7V718.7z M406.6,718.7h7v7h-7V718.7z M413.8,718.7h7v7h-7V718.7z M421.1,718.7h7v7h-7V718.7z M457.4,718.7h7v7h-7V718.7z
		 M464.6,718.7h7v7h-7V718.7z M500.9,718.7h7v7h-7V718.7z M508.2,718.7h7v7h-7V718.7z M537.2,718.7h7v7h-7V718.7z M544.5,718.7h7v7
		h-7V718.7z M551.8,718.7h7v7h-7V718.7z M413.8,726h7v7h-7V726z M421.1,726h7v7h-7V726z M428.3,726h7v7h-7V726z M457.4,726h7v7h-7
		V726z M464.6,726h7v7h-7V726z M500.9,726h7v7h-7V726z M508.2,726h7v7h-7V726z M544.5,726h7v7h-7V726z M551.8,726h7v7h-7V726z
		 M428.3,733.3h7v7h-7V733.3z M435.6,733.3h7v7h-7V733.3z M457.4,733.3h7v7h-7V733.3z M464.6,733.3h7v7h-7V733.3z M500.9,733.3h7v7
		h-7V733.3z M508.2,733.3h7v7h-7V733.3z M544.5,733.3h7v7h-7V733.3z M551.8,733.3h7v7h-7V733.3z M435.6,740.5h7v7h-7V740.5z
		 M442.9,740.5h7v7h-7V740.5z M457.4,740.5h7v7h-7V740.5z M464.6,740.5h7v7h-7V740.5z M500.9,740.5h7v7h-7V740.5z M508.2,740.5h7v7
		h-7V740.5z M551.8,740.5h7v7h-7V740.5z M559,740.5h7v7h-7V740.5z M450.1,747.8h7v7h-7V747.8z M457.4,747.8h7v7h-7V747.8z
		 M464.6,747.8h7v7h-7V747.8z M500.9,747.8h7v7h-7V747.8z M508.2,747.8h7v7h-7V747.8z M551.8,747.8h7v7h-7V747.8z M559,747.8h7v7h-7
		V747.8z M457.4,755h7v7h-7V755z M464.6,755h7v7h-7V755z M471.9,755h7v7h-7V755z M479.2,755h7v7h-7V755z M486.4,755h7v7h-7V755z
		 M493.7,755h7v7h-7V755z M500.9,755h7v7h-7V755z M508.2,755h7v7h-7V755z M515.5,755h7v7h-7V755z M522.7,755h7v7h-7V755z M530,755h7
		v7h-7V755z M559,755h7v7h-7V755z M566.3,755h7v7h-7V755z M464.6,762.3h7v7h-7V762.3z M471.9,762.3h7v7h-7V762.3z M508.2,762.3h7v7
		h-7V762.3z M515.5,762.3h7v7h-7V762.3z M530,762.3h7v7h-7V762.3z M537.2,762.3h7v7h-7V762.3z M544.5,762.3h7v7h-7V762.3z
		 M551.8,762.3h7v7h-7V762.3z M559,762.3h7v7h-7V762.3z M566.3,762.3h7v7h-7V762.3z M464.6,769.6h7v7h-7V769.6z M471.9,769.6h7v7h-7
		V769.6z M515.5,769.6h7v7h-7V769.6z M559,769.6h7v7h-7V769.6z M566.3,769.6h7v7h-7V769.6z M573.5,769.6h7v7h-7V769.6z M464.6,776.8
		h7v7h-7V776.8z M471.9,776.8h7v7h-7V776.8z M515.5,776.8h7v7h-7V776.8z M522.7,776.8h7v7h-7V776.8z M566.3,776.8h7v7h-7V776.8z
		 M573.5,776.8h7v7h-7V776.8z M464.6,784.1h7v7h-7V784.1z M471.9,784.1h7v7h-7V784.1z M515.5,784.1h7v7h-7V784.1z M522.7,784.1h7v7
		h-7V784.1z M566.3,784.1h7v7h-7V784.1z M573.5,784.1h7v7h-7V784.1z M580.8,784.1h7v7h-7V784.1z M464.6,791.3h7v7h-7V791.3z
		 M471.9,791.3h7v7h-7V791.3z M515.5,791.3h7v7h-7V791.3z M522.7,791.3h7v7h-7V791.3z M573.5,791.3h7v7h-7V791.3z M580.8,791.3h7v7
		h-7V791.3z M464.6,798.6h7v7h-7V798.6z M471.9,798.6h7v7h-7V798.6z M522.7,798.6h7v7h-7V798.6z M573.5,798.6h7v7h-7V798.6z
		 M580.8,798.6h7v7h-7V798.6z M588.1,798.6h7v7h-7V798.6z M471.9,805.9h7v7h-7V805.9z M500.9,805.9h7v7h-7V805.9z M508.2,805.9h7v7
		h-7V805.9z M515.5,805.9h7v7h-7V805.9z M522.7,805.9h7v7h-7V805.9z M530,805.9h7v7h-7V805.9z M537.2,805.9h7v7h-7V805.9z
		 M544.5,805.9h7v7h-7V805.9z M580.8,805.9h7v7h-7V805.9z M588.1,805.9h7v7h-7V805.9z M471.9,813.1h7v7h-7V813.1z M479.2,813.1h7v7
		h-7V813.1z M486.4,813.1h7v7h-7V813.1z M493.7,813.1h7v7h-7V813.1z M500.9,813.1h7v7h-7V813.1z M508.2,813.1h7v7h-7V813.1z
		 M515.5,813.1h7v7h-7V813.1z M522.7,813.1h7v7h-7V813.1z M530,813.1h7v7h-7V813.1z M537.2,813.1h7v7h-7V813.1z M544.5,813.1h7v7h-7
		V813.1z M551.8,813.1h7v7h-7V813.1z M559,813.1h7v7h-7V813.1z M566.3,813.1h7v7h-7V813.1z M573.5,813.1h7v7h-7V813.1z M580.8,813.1
		h7v7h-7V813.1z M588.1,813.1h7v7h-7V813.1z M471.9,820.4h7v7h-7V820.4z M479.2,820.4h7v7h-7V820.4z M537.2,820.4h7v7h-7V820.4z
		 M544.5,820.4h7v7h-7V820.4z M551.8,820.4h7v7h-7V820.4z M559,820.4h7v7h-7V820.4z M566.3,820.4h7v7h-7V820.4z M573.5,820.4h7v7h-7
		V820.4z M580.8,820.4h7v7h-7V820.4z M588.1,820.4h7v7h-7V820.4z M595.3,820.4h7v7h-7V820.4z M573.5,827.6h7v7h-7V827.6z
		 M580.8,827.6h7v7h-7V827.6z M588.1,827.6h7v7h-7V827.6z M595.3,827.6h7v7h-7V827.6z"/>
</g>
</svg>
