<?xml version="1.0" encoding="utf-8"?>
<!-- Generator: Adobe Illustrator 27.3.1, SVG Export Plug-In . SVG Version: 6.00 Build 0)  -->
<svg version="1.1" xmlns="http://www.w3.org/2000/svg" xmlns:xlink="http://www.w3.org/1999/xlink" x="0px" y="0px"
	 viewBox="0 0 871 871" style="enable-background:new 0 0 871 871;" xml:space="preserve">
<style type="text/css">
	.st0{fill:#FCEABA;}
	.st1{fill:#1E0E01;}
</style>
<g id="Слой_2">
	<path class="st0" d="M815.4,254.1c0-1.4-1.1-2.5-2.5-2.5h-7c-1.4,0-2.5,1.1-2.5,2.5v4.8h-4.8c0,0-0.1,0-0.1,0c0,0-0.1,0-0.1,0h-7
		c-1.4,0-2.5,1.1-2.5,2.5v4.8h-4.8c0,0-0.1,0-0.1,0c0,0-0.1,0-0.1,0h-7c-1.4,0-2.5,1.1-2.5,2.5v4.8h-4.8c0,0-0.1,0-0.1,0
		c0,0-0.1,0-0.1,0h-7c-1.4,0-2.5,1.1-2.5,2.5v4.8H755c0,0-0.1,0-0.1,0c0,0-0.1,0-0.1,0h-7c-1.4,0-2.5,1.1-2.5,2.5v4.8h-4.8
		c-1.4,0-2.5,1.1-2.5,2.5v4.8h-4.8c0,0-0.1,0-0.1,0c0,0-0.1,0-0.1,0h-7c-1.4,0-2.5,1.1-2.5,2.5v4.8h-4.8c-1.4,0-2.5,1.1-2.5,2.5v4.8
		h-4.8c0,0-0.1,0-0.1,0c0,0-0.1,0-0.1,0h-7c0,0-0.1,0-0.1,0c0,0-0.1,0-0.1,0h-7c-1.4,0-2.5,1.1-2.5,2.5v4.8h-4.8
		c-1.4,0-2.5,1.1-2.5,2.5v4.8h-4.8c0,0-0.1,0-0.1,0c0,0-0.1,0-0.1,0h-7c-1.4,0-2.5,1.1-2.5,2.5v4.8h-4.8c0,0-0.1,0-0.1,0
		c0,0-0.1,0-0.1,0h-7c-1.4,0-2.5,1.1-2.5,2.5v4.8h-4.8c0,0-0.1,0-0.1,0c0,0-0.1,0-0.1,0h-7c0,0-0.1,0-0.1,0c0,0-0.1,0-0.1,0h-7
		c-1.4,0-2.5,1.1-2.5,2.5v4.8h-4.8c0,0-0.1,0-0.1,0c0,0-0.1,0-0.1,0h-7c-1.4,0-2.5,1.1-2.5,2.5v4.8h-4.8c0,0-0.1,0-0.1,0
		c0,0-0.1,0-0.1,0h-7c-1.4,0-2.5,1.1-2.5,2.5v4.8h-4.8c-1.4,0-2.5,1.1-2.5,2.5v4.8h-4.8c0,0-0.1,0-0.1,0c0,0-0.1,0-0.1,0h-7
		c-1.4,0-2.5,1.1-2.5,2.5v4.8h-4.8c0,0-0.1,0-0.1,0c0,0-0.1,0-0.1,0h-7c-1.4,0-2.5,1.1-2.5,2.5v4.8h-4.8c-1.4,0-2.5,1.1-2.5,2.5v4.8
		H559c0,0-0.1,0-0.1,0c0,0-0.1,0-0.1,0h-7c-1.4,0-2.5,1.1-2.5,2.5v4.8h-4.8c0,0-0.1,0-0.1,0c0,0-0.1,0-0.1,0h-7
		c-1.4,0-2.5,1.1-2.5,2.5v4.8H530c0,0-0.1,0-0.1,0c0,0-0.1,0-0.1,0h-7c-1.4,0-2.5,1.1-2.5,2.5v4.8h-4.8c0,0-0.1,0-0.1,0
		c0,0-0.1,0-0.1,0h-7c-1.4,0-2.5,1.1-2.5,2.5v4.8h-4.8c0,0-0.1,0-0.1,0c0,0-0.1,0-0.1,0h-7c-1.4,0-2.5,1.1-2.5,2.5v4.8h-4.8
		c0,0-0.1,0-0.1,0c0,0-0.1,0-0.1,0h-7c-1.4,0-2.5,1.1-2.5,2.5v4.8h-4.8c0,0-0.1,0-0.1,0c0,0-0.1,0-0.1,0h-7c0,0-0.1,0-0.1,0
		c0,0-0.1,0-0.1,0h-7c0,0-0.1,0-0.1,0c0,0-0.1,0-0.1,0h-4.8v-4.8c0-1.4-1.1-2.5-2.5-2.5h-7c0,0-0.1,0-0.1,0c0,0-0.1,0-0.1,0h-7
		c0,0-0.1,0-0.1,0c0,0-0.1,0-0.1,0h-4.8v-4.8c0-1.4-1.1-2.5-2.5-2.5h-4.8v-4.8c0,0,0-0.1,0-0.1c0,0,0-0.1,0-0.1v-7
		c0-1.4-1.1-2.5-2.5-2.5h-4.8v-4.8c0-1.4-1.1-2.5-2.5-2.5h-4.8V392c0-1.4-1.1-2.5-2.5-2.5h-4.8v-4.8c0-1.4-1.1-2.5-2.5-2.5h-4.8
		v-4.8c0-1.4-1.1-2.5-2.5-2.5H387v-2.5h4.8c1.4,0,2.5-1.1,2.5-2.5v-4.8h4.8c1.4,0,2.5-1.1,2.5-2.5V358h4.8c1.4,0,2.5-1.1,2.5-2.5v-7
		c0-1.4-1.1-2.5-2.5-2.5h-4.8v-4.8c0,0,0-0.1,0-0.1c0,0,0-0.1,0-0.1v-7c0-1.4-1.1-2.5-2.5-2.5h-4.8v-4.8c0,0,0-0.1,0-0.1
		c0,0,0-0.1,0-0.1v-7c0-1.4-1.1-2.5-2.5-2.5H387v-4.8c0-1.4-1.1-2.5-2.5-2.5h-4.8v-4.8c0,0,0-0.1,0-0.1c0,0,0-0.1,0-0.1v-7
		c0-1.4-1.1-2.5-2.5-2.5h-4.8v-4.8c0-1.4-1.1-2.5-2.5-2.5h-4.8v-4.8c0,0,0-0.1,0-0.1c0,0,0-0.1,0-0.1v-7c0-1.4-1.1-2.5-2.5-2.5H358
		v-4.8c0-1.4-1.1-2.5-2.5-2.5h-4.8v-4.8c0,0,0-0.1,0-0.1c0,0,0-0.1,0-0.1v-7c0-1.4-1.1-2.5-2.5-2.5h-4.8v-4.8c0-1.4-1.1-2.5-2.5-2.5
		h-4.8v-4.8c0-1.4-1.1-2.5-2.5-2.5h-4.8v-4.8c0-1.4-1.1-2.5-2.5-2.5h-4.8v-4.8c0-1.4-1.1-2.5-2.5-2.5h-7c0,0-0.1,0-0.1,0
		c0,0-0.1,0-0.1,0h-7c-1.4,0-2.5,1.1-2.5,2.5v4.8h-4.8c0,0-0.1,0-0.1,0c0,0-0.1,0-0.1,0h-7c0,0-0.1,0-0.1,0c0,0-0.1,0-0.1,0h-7
		c0,0-0.1,0-0.1,0c0,0-0.1,0-0.1,0h-7c0,0-0.1,0-0.1,0c0,0-0.1,0-0.1,0h-7c0,0-0.1,0-0.1,0c0,0-0.1,0-0.1,0h-7c0,0-0.1,0-0.1,0
		c0,0-0.1,0-0.1,0h-7c0,0-0.1,0-0.1,0c0,0-0.1,0-0.1,0h-4.8v-4.8c0-1.4-1.1-2.5-2.5-2.5h-7c0,0-0.1,0-0.1,0c0,0-0.1,0-0.1,0h-4.8
		v-4.8c0-1.4-1.1-2.5-2.5-2.5h-4.8v-4.8c0-1.4-1.1-2.5-2.5-2.5H220v-4.8c0-1.4-1.1-2.5-2.5-2.5h-4.8V196c0-1.4-1.1-2.5-2.5-2.5h-4.8
		v-4.8c0-1.4-1.1-2.5-2.5-2.5h-7c0,0-0.1,0-0.1,0c0,0-0.1,0-0.1,0h-7c-1.4,0-2.5,1.1-2.5,2.5v4.8h-4.8c-1.4,0-2.5,1.1-2.5,2.5v7
		c0,0,0,0.1,0,0.1c0,0,0,0.1,0,0.1v4.8h-4.8c0,0-0.1,0-0.1,0c0,0-0.1,0-0.1,0h-7c-1.4,0-2.5,1.1-2.5,2.5v4.8h-4.8
		c-1.4,0-2.5,1.1-2.5,2.5v4.8h-4.8c0,0-0.1,0-0.1,0c0,0-0.1,0-0.1,0h-7c0,0-0.1,0-0.1,0c0,0-0.1,0-0.1,0h-7c-1.4,0-2.5,1.1-2.5,2.5
		v4.8h-4.8c-1.4,0-2.5,1.1-2.5,2.5v4.8h-4.8c0,0-0.1,0-0.1,0c0,0-0.1,0-0.1,0h-7c0,0-0.1,0-0.1,0c0,0-0.1,0-0.1,0h-7
		c0,0-0.1,0-0.1,0c0,0-0.1,0-0.1,0h-7c-1.4,0-2.5,1.1-2.5,2.5v4.8h-4.8c0,0-0.1,0-0.1,0c0,0-0.1,0-0.1,0h-7c-1.4,0-2.5,1.1-2.5,2.5
		v7c0,0,0,0.1,0,0.1c0,0,0,0.1,0,0.1v7c0,1.4,1.1,2.5,2.5,2.5h7c0,0,0.1,0,0.1,0c0,0,0.1,0,0.1,0h4.8v4.8c0,1.4,1.1,2.5,2.5,2.5h4.8
		v4.8c0,1.4,1.1,2.5,2.5,2.5h7c0,0,0.1,0,0.1,0c0,0,0.1,0,0.1,0h4.8v4.8c0,1.4,1.1,2.5,2.5,2.5h7c0,0,0.1,0,0.1,0c0,0,0.1,0,0.1,0
		h4.8v4.8c0,1.4,1.1,2.5,2.5,2.5h7c0,0,0.1,0,0.1,0c0,0,0.1,0,0.1,0h4.8v4.8c0,1.4,1.1,2.5,2.5,2.5h7c0,0,0.1,0,0.1,0
		c0,0,0.1,0,0.1,0h4.8v4.8c0,1.4,1.1,2.5,2.5,2.5h7c0,0,0.1,0,0.1,0c0,0,0.1,0,0.1,0h4.8v4.8c0,1.4,1.1,2.5,2.5,2.5h4.8v4.8
		c0,1.4,1.1,2.5,2.5,2.5h7c0,0,0.1,0,0.1,0c0,0,0.1,0,0.1,0h4.8v4.8c0,1.4,1.1,2.5,2.5,2.5h7c0,0,0.1,0,0.1,0c0,0,0.1,0,0.1,0h4.8
		v4.8c0,1.4,1.1,2.5,2.5,2.5h4.8v4.8c0,1.4,1.1,2.5,2.5,2.5h7c0,0,0.1,0,0.1,0c0,0,0.1,0,0.1,0h4.8v4.8c0,1.4,1.1,2.5,2.5,2.5h4.8
		v4.8c0,1.4,1.1,2.5,2.5,2.5h7c0,0,0.1,0,0.1,0c0,0,0.1,0,0.1,0h4.8v4.8c0,1.4,1.1,2.5,2.5,2.5h7c0,0,0.1,0,0.1,0c0,0,0.1,0,0.1,0
		h4.8v4.8c0,1.4,1.1,2.5,2.5,2.5h7c0,0,0.1,0,0.1,0c0,0,0.1,0,0.1,0h4.8v4.8c0,1.4,1.1,2.5,2.5,2.5h7c0,0,0.1,0,0.1,0
		c0,0,0.1,0,0.1,0h4.8v4.8c0,1.4,1.1,2.5,2.5,2.5h4.8v4.8c0,1.4,1.1,2.5,2.5,2.5h7c0,0,0.1,0,0.1,0c0,0,0.1,0,0.1,0h4.8v4.8
		c0,1.4,1.1,2.5,2.5,2.5h7c0,0,0.1,0,0.1,0c0,0,0.1,0,0.1,0h4.8v4.8c0,1.4,1.1,2.5,2.5,2.5h7c0,0,0.1,0,0.1,0c0,0,0.1,0,0.1,0h4.8
		v4.8c0,1.4,1.1,2.5,2.5,2.5h4.8v4.8c0,1.4,1.1,2.5,2.5,2.5h7c0,0,0.1,0,0.1,0c0,0,0.1,0,0.1,0h4.8v4.8c0,1.4,1.1,2.5,2.5,2.5h7
		c0,0,0.1,0,0.1,0c0,0,0.1,0,0.1,0h4.8v4.8c0,1.4,1.1,2.5,2.5,2.5h7c0,0,0.1,0,0.1,0c0,0,0.1,0,0.1,0h4.8v4.8c0,1.4,1.1,2.5,2.5,2.5
		h4.8v4.8c0,0,0,0.1,0,0.1c0,0,0,0.1,0,0.1v7c0,0,0,0.1,0,0.1c0,0,0,0.1,0,0.1v7c0,1.4,1.1,2.5,2.5,2.5h4.8v4.8c0,0,0,0.1,0,0.1
		c0,0,0,0.1,0,0.1v7c0,0,0,0.1,0,0.1c0,0,0,0.1,0,0.1v7c0,0,0,0.1,0,0.1c0,0,0,0.1,0,0.1v4.8h-4.8c-1.4,0-2.5,1.1-2.5,2.5v7
		c0,0,0,0.1,0,0.1c0,0,0,0.1,0,0.1v7c0,0,0,0.1,0,0.1c0,0,0,0.1,0,0.1v4.8h-4.8c-1.4,0-2.5,1.1-2.5,2.5v7c0,0,0,0.1,0,0.1
		c0,0,0,0.1,0,0.1v7c0,0,0,0.1,0,0.1c0,0,0,0.1,0,0.1v7c0,0,0,0.1,0,0.1c0,0,0,0.1,0,0.1v7c0,0,0,0.1,0,0.1c0,0,0,0.1,0,0.1v4.8
		h-4.8c0,0-0.1,0-0.1,0c0,0-0.1,0-0.1,0h-7c0,0-0.1,0-0.1,0c0,0-0.1,0-0.1,0H387v-4.8c0-1.4-1.1-2.5-2.5-2.5h-7
		c-1.4,0-2.5,1.1-2.5,2.5v4.8h-4.8c-1.4,0-2.5,1.1-2.5,2.5v7c0,0,0,0.1,0,0.1c0,0,0,0.1,0,0.1v7c0,0,0,0.1,0,0.1c0,0,0,0.1,0,0.1
		v4.8H363c-1.4,0-2.5,1.1-2.5,2.5v7c0,0,0,0.1,0,0.1c0,0,0,0.1,0,0.1v4.8h-4.8c-1.4,0-2.5,1.1-2.5,2.5v7c0,0,0,0.1,0,0.1
		c0,0,0,0.1,0,0.1v7c0,0,0,0.1,0,0.1c0,0,0,0.1,0,0.1v4.8h-4.8c-1.4,0-2.5,1.1-2.5,2.5v7c0,0,0,0.1,0,0.1c0,0,0,0.1,0,0.1v4.8h-4.8
		c-1.4,0-2.5,1.1-2.5,2.5v7c0,0,0,0.1,0,0.1c0,0,0,0.1,0,0.1v7c0,0,0,0.1,0,0.1c0,0,0,0.1,0,0.1v4.8H334c-1.4,0-2.5,1.1-2.5,2.5v7
		c0,0,0,0.1,0,0.1c0,0,0,0.1,0,0.1v7c0,0,0,0.1,0,0.1c0,0,0,0.1,0,0.1v4.8h-4.8c-1.4,0-2.5,1.1-2.5,2.5v7c0,0,0,0.1,0,0.1
		c0,0,0,0.1,0,0.1v7c0,0,0,0.1,0,0.1c0,0,0,0.1,0,0.1v7c0,0,0,0.1,0,0.1c0,0,0,0.1,0,0.1v7c0,0,0,0.1,0,0.1c0,0,0,0.1,0,0.1v7
		c0,1.4,1.1,2.5,2.5,2.5h4.8v4.8c0,1.4,1.1,2.5,2.5,2.5h4.8v4.8c0,1.4,1.1,2.5,2.5,2.5h4.8v4.8c0,1.4,1.1,2.5,2.5,2.5h4.8v4.8
		c0,0,0,0.1,0,0.1c0,0,0,0.1,0,0.1v7c0,1.4,1.1,2.5,2.5,2.5h4.8v4.8c0,1.4,1.1,2.5,2.5,2.5h4.8v4.8c0,0,0,0.1,0,0.1c0,0,0,0.1,0,0.1
		v7c0,0,0,0.1,0,0.1c0,0,0,0.1,0,0.1v7c0,0,0,0.1,0,0.1c0,0,0,0.1,0,0.1v7c0,0,0,0.1,0,0.1c0,0,0,0.1,0,0.1v4.8H363
		c-1.4,0-2.5,1.1-2.5,2.5v7c0,0,0,0.1,0,0.1c0,0,0,0.1,0,0.1v7c0,0,0,0.1,0,0.1c0,0,0,0.1,0,0.1v7c0,0,0,0.1,0,0.1c0,0,0,0.1,0,0.1
		v7c0,0,0,0.1,0,0.1c0,0,0,0.1,0,0.1v7c0,1.4,1.1,2.5,2.5,2.5h7c0,0,0.1,0,0.1,0c0,0,0.1,0,0.1,0h7c0,0,0.1,0,0.1,0c0,0,0.1,0,0.1,0
		h7c0,0,0.1,0,0.1,0c0,0,0.1,0,0.1,0h7c0,0,0.1,0,0.1,0c0,0,0.1,0,0.1,0h7c0,0,0.1,0,0.1,0c0,0,0.1,0,0.1,0h4.8v4.8
		c0,1.4,1.1,2.5,2.5,2.5h7c0,0,0.1,0,0.1,0c0,0,0.1,0,0.1,0h4.8v4.8c0,1.4,1.1,2.5,2.5,2.5h4.8v4.8c0,1.4,1.1,2.5,2.5,2.5h7
		c0,0,0.1,0,0.1,0c0,0,0.1,0,0.1,0h7c0,0,0.1,0,0.1,0c0,0,0.1,0,0.1,0h4.8v4.8c0,1.4,1.1,2.5,2.5,2.5h4.8v4.8c0,1.4,1.1,2.5,2.5,2.5
		h7c0,0,0.1,0,0.1,0c0,0,0.1,0,0.1,0h4.8v4.8c0,1.4,1.1,2.5,2.5,2.5h7c0,0,0.1,0,0.1,0c0,0,0.1,0,0.1,0h7c1.4,0,2.5-1.1,2.5-2.5v-7
		c0,0,0-0.1,0-0.1c0,0,0-0.1,0-0.1v-7c0,0,0-0.1,0-0.1c0,0,0-0.1,0-0.1v-7c0,0,0-0.1,0-0.1c0,0,0-0.1,0-0.1v-7c0,0,0-0.1,0-0.1
		c0,0,0-0.1,0-0.1v-7c0,0,0-0.1,0-0.1c0,0,0-0.1,0-0.1v-7c0-1.4-1.1-2.5-2.5-2.5h-4.8v-4.8c0,0,0-0.1,0-0.1c0,0,0-0.1,0-0.1v-7
		c0,0,0-0.1,0-0.1c0,0,0-0.1,0-0.1v-7c0,0,0-0.1,0-0.1c0,0,0-0.1,0-0.1v-7c0,0,0-0.1,0-0.1c0,0,0-0.1,0-0.1v-7c0,0,0-0.1,0-0.1
		c0,0,0-0.1,0-0.1v-7c0,0,0-0.1,0-0.1c0,0,0-0.1,0-0.1v-7c0-1.4-1.1-2.5-2.5-2.5h-4.8v-4.8c0,0,0-0.1,0-0.1c0,0,0-0.1,0-0.1v-7
		c0,0,0-0.1,0-0.1c0,0,0-0.1,0-0.1v-7c0,0,0-0.1,0-0.1c0,0,0-0.1,0-0.1v-7c0,0,0-0.1,0-0.1c0,0,0-0.1,0-0.1v-7c0,0,0-0.1,0-0.1
		c0,0,0-0.1,0-0.1v-7c0,0,0-0.1,0-0.1c0,0,0-0.1,0-0.1v-7c0,0,0-0.1,0-0.1c0,0,0-0.1,0-0.1v-7c0,0,0-0.1,0-0.1c0,0,0-0.1,0-0.1v-7
		c0,0,0-0.1,0-0.1c0,0,0-0.1,0-0.1v-7c0,0,0-0.1,0-0.1c0,0,0-0.1,0-0.1v-7c0,0,0-0.1,0-0.1c0,0,0-0.1,0-0.1v-7c0,0,0-0.1,0-0.1
		c0,0,0-0.1,0-0.1v-7c0-1.4-1.1-2.5-2.5-2.5h-4.8v-4.8c0,0,0-0.1,0-0.1c0,0,0-0.1,0-0.1v-7c0,0,0-0.1,0-0.1c0,0,0-0.1,0-0.1v-7
		c0,0,0-0.1,0-0.1c0,0,0-0.1,0-0.1v-7c0,0,0-0.1,0-0.1c0,0,0-0.1,0-0.1v-7c0,0,0-0.1,0-0.1c0,0,0-0.1,0-0.1v-7c0,0,0-0.1,0-0.1
		c0,0,0-0.1,0-0.1v-7c0,0,0-0.1,0-0.1c0,0,0-0.1,0-0.1v-7c0-1.4-1.1-2.5-2.5-2.5h-4.8v-4.8c0,0,0-0.1,0-0.1c0,0,0-0.1,0-0.1v-7
		c0,0,0-0.1,0-0.1c0,0,0-0.1,0-0.1v-7c0,0,0-0.1,0-0.1c0,0,0-0.1,0-0.1v-7c0,0,0-0.1,0-0.1c0,0,0-0.1,0-0.1v-7c0,0,0-0.1,0-0.1
		c0,0,0-0.1,0-0.1v-7c0,0,0-0.1,0-0.1c0,0,0-0.1,0-0.1v-7c0,0,0-0.1,0-0.1c0,0,0-0.1,0-0.1v-7c0,0,0-0.1,0-0.1c0,0,0-0.1,0-0.1v-7
		c0,0,0-0.1,0-0.1c0,0,0-0.1,0-0.1v-7c0,0,0-0.1,0-0.1c0,0,0-0.1,0-0.1v-7c0,0,0-0.1,0-0.1c0,0,0-0.1,0-0.1v-7c0,0,0-0.1,0-0.1
		c0,0,0-0.1,0-0.1v-7c0-1.4-1.1-2.5-2.5-2.5h-4.8v-2.5h4.8c1.4,0,2.5-1.1,2.5-2.5v-7c0,0,0-0.1,0-0.1c0,0,0-0.1,0-0.1v-7
		c0,0,0-0.1,0-0.1c0,0,0-0.1,0-0.1v-7c0-1.4-1.1-2.5-2.5-2.5h-4.8v-4.8c0,0,0-0.1,0-0.1c0,0,0-0.1,0-0.1v-4.8h4.8
		c1.4,0,2.5-1.1,2.5-2.5v-4.8h4.8c1.4,0,2.5-1.1,2.5-2.5v-7c0,0,0-0.1,0-0.1c0,0,0-0.1,0-0.1v-4.8h4.8c0,0,0.1,0,0.1,0
		c0,0,0.1,0,0.1,0h7c0,0,0.1,0,0.1,0c0,0,0.1,0,0.1,0h7c0,0,0.1,0,0.1,0c0,0,0.1,0,0.1,0h7c0,0,0.1,0,0.1,0c0,0,0.1,0,0.1,0h7
		c0,0,0.1,0,0.1,0c0,0,0.1,0,0.1,0h7c0,0,0.1,0,0.1,0c0,0,0.1,0,0.1,0h7c0,0,0.1,0,0.1,0c0,0,0.1,0,0.1,0h7c0,0,0.1,0,0.1,0
		c0,0,0.1,0,0.1,0h7c0,0,0.1,0,0.1,0c0,0,0.1,0,0.1,0h7c1.4,0,2.5-1.1,2.5-2.5v-4.8h4.8c0,0,0.1,0,0.1,0c0,0,0.1,0,0.1,0h4.8v4.8
		c0,0,0,0.1,0,0.1c0,0,0,0.1,0,0.1v7c0,1.4,1.1,2.5,2.5,2.5h4.8v4.8c0,0,0,0.1,0,0.1c0,0,0,0.1,0,0.1v7c0,1.4,1.1,2.5,2.5,2.5h7
		c0,0,0.1,0,0.1,0c0,0,0.1,0,0.1,0h7c0,0,0.1,0,0.1,0c0,0,0.1,0,0.1,0h7c0,0,0.1,0,0.1,0c0,0,0.1,0,0.1,0h7c0,0,0.1,0,0.1,0
		c0,0,0.1,0,0.1,0h7c0,0,0.1,0,0.1,0c0,0,0.1,0,0.1,0h7c0,0,0.1,0,0.1,0c0,0,0.1,0,0.1,0h7c0,0,0.1,0,0.1,0c0,0,0.1,0,0.1,0h7
		c0,0,0.1,0,0.1,0c0,0,0.1,0,0.1,0h7c0,0,0.1,0,0.1,0c0,0,0.1,0,0.1,0h7c0,0,0.1,0,0.1,0c0,0,0.1,0,0.1,0h7c0,0,0.1,0,0.1,0
		c0,0,0.1,0,0.1,0h7c0,0,0.1,0,0.1,0c0,0,0.1,0,0.1,0h7c0,0,0.1,0,0.1,0c0,0,0.1,0,0.1,0h7c0,0,0.1,0,0.1,0c0,0,0.1,0,0.1,0h7
		c0,0,0.1,0,0.1,0c0,0,0.1,0,0.1,0h7c0,0,0.1,0,0.1,0c0,0,0.1,0,0.1,0h7c0,0,0.1,0,0.1,0c0,0,0.1,0,0.1,0h7c1.4,0,2.5-1.1,2.5-2.5
		v-4.8h4.8c0,0,0.1,0,0.1,0c0,0,0.1,0,0.1,0h7c0,0,0.1,0,0.1,0c0,0,0.1,0,0.1,0h7c0,0,0.1,0,0.1,0c0,0,0.1,0,0.1,0h7
		c1.4,0,2.5-1.1,2.5-2.5v-7c0,0,0-0.1,0-0.1c0,0,0-0.1,0-0.1v-7c0,0,0-0.1,0-0.1c0,0,0-0.1,0-0.1v-4.8h4.8c1.4,0,2.5-1.1,2.5-2.5v-7
		c0,0,0-0.1,0-0.1c0,0,0-0.1,0-0.1v-4.8h4.8c1.4,0,2.5-1.1,2.5-2.5v-4.8h4.8c1.4,0,2.5-1.1,2.5-2.5v-4.8h4.8c1.4,0,2.5-1.1,2.5-2.5
		v-7c0,0,0-0.1,0-0.1c0,0,0-0.1,0-0.1v-4.8h4.8c1.4,0,2.5-1.1,2.5-2.5v-4.8h4.8c0,0,0.1,0,0.1,0c0,0,0.1,0,0.1,0h7
		c1.4,0,2.5-1.1,2.5-2.5v-4.8h4.8c0,0,0.1,0,0.1,0c0,0,0.1,0,0.1,0h7c0,0,0.1,0,0.1,0c0,0,0.1,0,0.1,0h7c0,0,0.1,0,0.1,0
		c0,0,0.1,0,0.1,0h7c0,0,0.1,0,0.1,0c0,0,0.1,0,0.1,0h7c0,0,0.1,0,0.1,0c0,0,0.1,0,0.1,0h7c1.4,0,2.5-1.1,2.5-2.5v-7
		c0,0,0-0.1,0-0.1c0,0,0-0.1,0-0.1v-7c0,0,0-0.1,0-0.1c0,0,0-0.1,0-0.1v-7c0-1.4-1.1-2.5-2.5-2.5h-4.8V363c0,0,0-0.1,0-0.1
		c0,0,0-0.1,0-0.1v-7c0-1.4-1.1-2.5-2.5-2.5h-4.8v-4.8c0,0,0-0.1,0-0.1c0,0,0-0.1,0-0.1v-7c0,0,0-0.1,0-0.1c0,0,0-0.1,0-0.1v-7
		c0,0,0-0.1,0-0.1c0,0,0-0.1,0-0.1v-4.8h4.8c1.4,0,2.5-1.1,2.5-2.5v-7c0,0,0-0.1,0-0.1c0,0,0-0.1,0-0.1v-7c0,0,0-0.1,0-0.1
		c0,0,0-0.1,0-0.1v-7c0,0,0-0.1,0-0.1c0,0,0-0.1,0-0.1v-7c0,0,0-0.1,0-0.1c0,0,0-0.1,0-0.1v-7c0,0,0-0.1,0-0.1c0,0,0-0.1,0-0.1v-4.8
		h4.8c1.4,0,2.5-1.1,2.5-2.5v-7c0,0,0-0.1,0-0.1c0,0,0-0.1,0-0.1v-7c0,0,0-0.1,0-0.1c0,0,0-0.1,0-0.1v-7c0,0,0-0.1,0-0.1
		c0,0,0-0.1,0-0.1V254.1z"/>
</g>
<g id="Слой_1" xmlns:ev="http://www.w3.org/2001/xml-events">
	<path class="st1" d="M188.8,188.8h7v7h-7V188.8z M196,188.8h7v7h-7V188.8z M181.5,196h7v7h-7V196z M188.8,196h7v7h-7V196z M196,196
		h7v7h-7V196z M203.3,196h7v7h-7V196z M181.5,203.3h7v7h-7V203.3z M203.3,203.3h7v7h-7V203.3z M210.5,203.3h7v7h-7V203.3z
		 M167,210.5h7v7h-7V210.5z M174.2,210.5h7v7h-7V210.5z M210.5,210.5h7v7h-7V210.5z M217.8,210.5h7v7h-7V210.5z M159.7,217.8h7v7h-7
		V217.8z M167,217.8h7v7h-7V217.8z M174.2,217.8h7v7h-7V217.8z M217.8,217.8h7v7h-7V217.8z M225.1,217.8h7v7h-7V217.8z M137.9,225.1
		h7v7h-7V225.1z M145.2,225.1h7v7h-7V225.1z M152.5,225.1h7v7h-7V225.1z M159.7,225.1h7v7h-7V225.1z M167,225.1h7v7h-7V225.1z
		 M225.1,225.1h7v7h-7V225.1z M232.3,225.1h7v7h-7V225.1z M239.6,225.1h7v7h-7V225.1z M304.9,225.1h7v7h-7V225.1z M312.2,225.1h7v7
		h-7V225.1z M130.7,232.3h7v7h-7V232.3z M137.9,232.3h7v7h-7V232.3z M145.2,232.3h7v7h-7V232.3z M152.5,232.3h7v7h-7V232.3z
		 M167,232.3h7v7h-7V232.3z M174.2,232.3h7v7h-7V232.3z M232.3,232.3h7v7h-7V232.3z M239.6,232.3h7v7h-7V232.3z M246.8,232.3h7v7h-7
		V232.3z M254.1,232.3h7v7h-7V232.3z M261.4,232.3h7v7h-7V232.3z M268.6,232.3h7v7h-7V232.3z M275.9,232.3h7v7h-7V232.3z
		 M283.1,232.3h7v7h-7V232.3z M290.4,232.3h7v7h-7V232.3z M297.7,232.3h7v7h-7V232.3z M319.4,232.3h7v7h-7V232.3z M101.6,239.6h7v7
		h-7V239.6z M108.9,239.6h7v7h-7V239.6z M116.2,239.6h7v7h-7V239.6z M123.4,239.6h7v7h-7V239.6z M130.7,239.6h7v7h-7V239.6z
		 M137.9,239.6h7v7h-7V239.6z M174.2,239.6h7v7h-7V239.6z M181.5,239.6h7v7h-7V239.6z M225.1,239.6h7v7h-7V239.6z M239.6,239.6h7v7
		h-7V239.6z M246.8,239.6h7v7h-7V239.6z M297.7,239.6h7v7h-7V239.6z M326.7,239.6h7v7h-7V239.6z M87.1,246.8h7v7h-7V246.8z
		 M94.4,246.8h7v7h-7V246.8z M101.6,246.8h7v7h-7V246.8z M108.9,246.8h7v7h-7V246.8z M116.2,246.8h7v7h-7V246.8z M123.4,246.8h7v7
		h-7V246.8z M181.5,246.8h7v7h-7V246.8z M188.8,246.8h7v7h-7V246.8z M217.8,246.8h7v7h-7V246.8z M246.8,246.8h7v7h-7V246.8z
		 M254.1,246.8h7v7h-7V246.8z M297.7,246.8h7v7h-7V246.8z M304.9,246.8h7v7h-7V246.8z M326.7,246.8h7v7h-7V246.8z M334,246.8h7v7h-7
		V246.8z M87.1,254.1h7v7h-7V254.1z M94.4,254.1h7v7h-7V254.1z M101.6,254.1h7v7h-7V254.1z M108.9,254.1h7v7h-7V254.1z M196,254.1h7
		v7h-7V254.1z M203.3,254.1h7v7h-7V254.1z M210.5,254.1h7v7h-7V254.1z M254.1,254.1h7v7h-7V254.1z M261.4,254.1h7v7h-7V254.1z
		 M304.9,254.1h7v7h-7V254.1z M312.2,254.1h7v7h-7V254.1z M334,254.1h7v7h-7V254.1z M341.2,254.1h7v7h-7V254.1z M805.9,254.1h7v7h-7
		V254.1z M101.6,261.4h7v7h-7V261.4z M108.9,261.4h7v7h-7V261.4z M116.2,261.4h7v7h-7V261.4z M123.4,261.4h7v7h-7V261.4z
		 M188.8,261.4h7v7h-7V261.4z M196,261.4h7v7h-7V261.4z M203.3,261.4h7v7h-7V261.4z M210.5,261.4h7v7h-7V261.4z M261.4,261.4h7v7h-7
		V261.4z M268.6,261.4h7v7h-7V261.4z M312.2,261.4h7v7h-7V261.4z M319.4,261.4h7v7h-7V261.4z M341.2,261.4h7v7h-7V261.4z
		 M791.3,261.4h7v7h-7V261.4z M798.6,261.4h7v7h-7V261.4z M805.9,261.4h7v7h-7V261.4z M108.9,268.6h7v7h-7V268.6z M116.2,268.6h7v7
		h-7V268.6z M123.4,268.6h7v7h-7V268.6z M130.7,268.6h7v7h-7V268.6z M137.9,268.6h7v7h-7V268.6z M181.5,268.6h7v7h-7V268.6z
		 M188.8,268.6h7v7h-7V268.6z M196,268.6h7v7h-7V268.6z M210.5,268.6h7v7h-7V268.6z M217.8,268.6h7v7h-7V268.6z M268.6,268.6h7v7h-7
		V268.6z M275.9,268.6h7v7h-7V268.6z M319.4,268.6h7v7h-7V268.6z M341.2,268.6h7v7h-7V268.6z M348.5,268.6h7v7h-7V268.6z
		 M776.8,268.6h7v7h-7V268.6z M784.1,268.6h7v7h-7V268.6z M791.3,268.6h7v7h-7V268.6z M798.6,268.6h7v7h-7V268.6z M805.9,268.6h7v7
		h-7V268.6z M123.4,275.9h7v7h-7V275.9z M130.7,275.9h7v7h-7V275.9z M137.9,275.9h7v7h-7V275.9z M145.2,275.9h7v7h-7V275.9z
		 M152.5,275.9h7v7h-7V275.9z M167,275.9h7v7h-7V275.9z M174.2,275.9h7v7h-7V275.9z M217.8,275.9h7v7h-7V275.9z M225.1,275.9h7v7h-7
		V275.9z M268.6,275.9h7v7h-7V275.9z M275.9,275.9h7v7h-7V275.9z M283.1,275.9h7v7h-7V275.9z M290.4,275.9h7v7h-7V275.9z
		 M326.7,275.9h7v7h-7V275.9z M348.5,275.9h7v7h-7V275.9z M355.7,275.9h7v7h-7V275.9z M762.3,275.9h7v7h-7V275.9z M769.6,275.9h7v7
		h-7V275.9z M776.8,275.9h7v7h-7V275.9z M784.1,275.9h7v7h-7V275.9z M798.6,275.9h7v7h-7V275.9z M805.9,275.9h7v7h-7V275.9z
		 M137.9,283.1h7v7h-7V283.1z M145.2,283.1h7v7h-7V283.1z M152.5,283.1h7v7h-7V283.1z M159.7,283.1h7v7h-7V283.1z M167,283.1h7v7h-7
		V283.1z M225.1,283.1h7v7h-7V283.1z M232.3,283.1h7v7h-7V283.1z M268.6,283.1h7v7h-7V283.1z M283.1,283.1h7v7h-7V283.1z
		 M290.4,283.1h7v7h-7V283.1z M297.7,283.1h7v7h-7V283.1z M326.7,283.1h7v7h-7V283.1z M334,283.1h7v7h-7V283.1z M348.5,283.1h7v7h-7
		V283.1z M355.7,283.1h7v7h-7V283.1z M747.8,283.1h7v7h-7V283.1z M755,283.1h7v7h-7V283.1z M762.3,283.1h7v7h-7V283.1z M769.6,283.1
		h7v7h-7V283.1z M791.3,283.1h7v7h-7V283.1z M798.6,283.1h7v7h-7V283.1z M152.5,290.4h7v7h-7V290.4z M159.7,290.4h7v7h-7V290.4z
		 M167,290.4h7v7h-7V290.4z M174.2,290.4h7v7h-7V290.4z M232.3,290.4h7v7h-7V290.4z M239.6,290.4h7v7h-7V290.4z M261.4,290.4h7v7h-7
		V290.4z M290.4,290.4h7v7h-7V290.4z M297.7,290.4h7v7h-7V290.4z M304.9,290.4h7v7h-7V290.4z M319.4,290.4h7v7h-7V290.4z
		 M326.7,290.4h7v7h-7V290.4z M334,290.4h7v7h-7V290.4z M341.2,290.4h7v7h-7V290.4z M355.7,290.4h7v7h-7V290.4z M363,290.4h7v7h-7
		V290.4z M740.5,290.4h7v7h-7V290.4z M747.8,290.4h7v7h-7V290.4z M755,290.4h7v7h-7V290.4z M762.3,290.4h7v7h-7V290.4z M791.3,290.4
		h7v7h-7V290.4z M798.6,290.4h7v7h-7V290.4z M167,297.7h7v7h-7V297.7z M174.2,297.7h7v7h-7V297.7z M181.5,297.7h7v7h-7V297.7z
		 M188.8,297.7h7v7h-7V297.7z M239.6,297.7h7v7h-7V297.7z M246.8,297.7h7v7h-7V297.7z M254.1,297.7h7v7h-7V297.7z M297.7,297.7h7v7
		h-7V297.7z M304.9,297.7h7v7h-7V297.7z M312.2,297.7h7v7h-7V297.7z M319.4,297.7h7v7h-7V297.7z M326.7,297.7h7v7h-7V297.7z
		 M341.2,297.7h7v7h-7V297.7z M363,297.7h7v7h-7V297.7z M370.3,297.7h7v7h-7V297.7z M726,297.7h7v7h-7V297.7z M733.3,297.7h7v7h-7
		V297.7z M740.5,297.7h7v7h-7V297.7z M747.8,297.7h7v7h-7V297.7z M791.3,297.7h7v7h-7V297.7z M798.6,297.7h7v7h-7V297.7z
		 M181.5,304.9h7v7h-7V304.9z M188.8,304.9h7v7h-7V304.9z M196,304.9h7v7h-7V304.9z M203.3,304.9h7v7h-7V304.9z M232.3,304.9h7v7h-7
		V304.9z M239.6,304.9h7v7h-7V304.9z M246.8,304.9h7v7h-7V304.9z M254.1,304.9h7v7h-7V304.9z M261.4,304.9h7v7h-7V304.9z
		 M304.9,304.9h7v7h-7V304.9z M312.2,304.9h7v7h-7V304.9z M319.4,304.9h7v7h-7V304.9z M341.2,304.9h7v7h-7V304.9z M348.5,304.9h7v7
		h-7V304.9z M363,304.9h7v7h-7V304.9z M370.3,304.9h7v7h-7V304.9z M718.7,304.9h7v7h-7V304.9z M726,304.9h7v7h-7V304.9z
		 M733.3,304.9h7v7h-7V304.9z M740.5,304.9h7v7h-7V304.9z M791.3,304.9h7v7h-7V304.9z M798.6,304.9h7v7h-7V304.9z M188.8,312.2h7v7
		h-7V312.2z M196,312.2h7v7h-7V312.2z M203.3,312.2h7v7h-7V312.2z M210.5,312.2h7v7h-7V312.2z M217.8,312.2h7v7h-7V312.2z
		 M225.1,312.2h7v7h-7V312.2z M232.3,312.2h7v7h-7V312.2z M254.1,312.2h7v7h-7V312.2z M261.4,312.2h7v7h-7V312.2z M268.6,312.2h7v7
		h-7V312.2z M312.2,312.2h7v7h-7V312.2z M319.4,312.2h7v7h-7V312.2z M326.7,312.2h7v7h-7V312.2z M348.5,312.2h7v7h-7V312.2z
		 M370.3,312.2h7v7h-7V312.2z M377.5,312.2h7v7h-7V312.2z M697,312.2h7v7h-7V312.2z M704.2,312.2h7v7h-7V312.2z M711.5,312.2h7v7h-7
		V312.2z M718.7,312.2h7v7h-7V312.2z M726,312.2h7v7h-7V312.2z M740.5,312.2h7v7h-7V312.2z M791.3,312.2h7v7h-7V312.2z M798.6,312.2
		h7v7h-7V312.2z M203.3,319.4h7v7h-7V319.4z M210.5,319.4h7v7h-7V319.4z M217.8,319.4h7v7h-7V319.4z M225.1,319.4h7v7h-7V319.4z
		 M268.6,319.4h7v7h-7V319.4z M275.9,319.4h7v7h-7V319.4z M319.4,319.4h7v7h-7V319.4z M326.7,319.4h7v7h-7V319.4z M334,319.4h7v7h-7
		V319.4z M355.7,319.4h7v7h-7V319.4z M377.5,319.4h7v7h-7V319.4z M384.8,319.4h7v7h-7V319.4z M689.7,319.4h7v7h-7V319.4z M697,319.4
		h7v7h-7V319.4z M704.2,319.4h7v7h-7V319.4z M711.5,319.4h7v7h-7V319.4z M740.5,319.4h7v7h-7V319.4z M791.3,319.4h7v7h-7V319.4z
		 M798.6,319.4h7v7h-7V319.4z M217.8,326.7h7v7h-7V326.7z M225.1,326.7h7v7h-7V326.7z M232.3,326.7h7v7h-7V326.7z M275.9,326.7h7v7
		h-7V326.7z M283.1,326.7h7v7h-7V326.7z M326.7,326.7h7v7h-7V326.7z M334,326.7h7v7h-7V326.7z M341.2,326.7h7v7h-7V326.7z
		 M355.7,326.7h7v7h-7V326.7z M363,326.7h7v7h-7V326.7z M377.5,326.7h7v7h-7V326.7z M384.8,326.7h7v7h-7V326.7z M675.2,326.7h7v7h-7
		V326.7z M682.4,326.7h7v7h-7V326.7z M689.7,326.7h7v7h-7V326.7z M697,326.7h7v7h-7V326.7z M740.5,326.7h7v7h-7V326.7z M791.3,326.7
		h7v7h-7V326.7z M225.1,334h7v7h-7V334z M232.3,334h7v7h-7V334z M239.6,334h7v7h-7V334z M246.8,334h7v7h-7V334z M283.1,334h7v7h-7
		V334z M290.4,334h7v7h-7V334z M334,334h7v7h-7V334z M341.2,334h7v7h-7V334z M348.5,334h7v7h-7V334z M363,334h7v7h-7V334z
		 M384.8,334h7v7h-7V334z M392,334h7v7h-7V334z M660.7,334h7v7h-7V334z M667.9,334h7v7h-7V334z M675.2,334h7v7h-7V334z M682.4,334h7
		v7h-7V334z M740.5,334h7v7h-7V334z M769.6,334h7v7h-7V334z M776.8,334h7v7h-7V334z M784.1,334h7v7h-7V334z M791.3,334h7v7h-7V334z
		 M239.6,341.2h7v7h-7V341.2z M246.8,341.2h7v7h-7V341.2z M254.1,341.2h7v7h-7V341.2z M261.4,341.2h7v7h-7V341.2z M290.4,341.2h7v7
		h-7V341.2z M297.7,341.2h7v7h-7V341.2z M319.4,341.2h7v7h-7V341.2z M326.7,341.2h7v7h-7V341.2z M334,341.2h7v7h-7V341.2z
		 M341.2,341.2h7v7h-7V341.2z M348.5,341.2h7v7h-7V341.2z M355.7,341.2h7v7h-7V341.2z M370.3,341.2h7v7h-7V341.2z M392,341.2h7v7h-7
		V341.2z M638.9,341.2h7v7h-7V341.2z M646.1,341.2h7v7h-7V341.2z M653.4,341.2h7v7h-7V341.2z M660.7,341.2h7v7h-7V341.2z
		 M667.9,341.2h7v7h-7V341.2z M675.2,341.2h7v7h-7V341.2z M682.4,341.2h7v7h-7V341.2z M740.5,341.2h7v7h-7V341.2z M747.8,341.2h7v7
		h-7V341.2z M755,341.2h7v7h-7V341.2z M762.3,341.2h7v7h-7V341.2z M769.6,341.2h7v7h-7V341.2z M791.3,341.2h7v7h-7V341.2z
		 M246.8,348.5h7v7h-7V348.5z M254.1,348.5h7v7h-7V348.5z M261.4,348.5h7v7h-7V348.5z M268.6,348.5h7v7h-7V348.5z M297.7,348.5h7v7
		h-7V348.5z M304.9,348.5h7v7h-7V348.5z M312.2,348.5h7v7h-7V348.5z M319.4,348.5h7v7h-7V348.5z M326.7,348.5h7v7h-7V348.5z
		 M348.5,348.5h7v7h-7V348.5z M355.7,348.5h7v7h-7V348.5z M370.3,348.5h7v7h-7V348.5z M377.5,348.5h7v7h-7V348.5z M392,348.5h7v7h-7
		V348.5z M399.3,348.5h7v7h-7V348.5z M624.4,348.5h7v7h-7V348.5z M631.6,348.5h7v7h-7V348.5z M638.9,348.5h7v7h-7V348.5z
		 M646.1,348.5h7v7h-7V348.5z M653.4,348.5h7v7h-7V348.5z M675.2,348.5h7v7h-7V348.5z M733.3,348.5h7v7h-7V348.5z M740.5,348.5h7v7
		h-7V348.5z M747.8,348.5h7v7h-7V348.5z M791.3,348.5h7v7h-7V348.5z M261.4,355.7h7v7h-7V355.7z M268.6,355.7h7v7h-7V355.7z
		 M275.9,355.7h7v7h-7V355.7z M283.1,355.7h7v7h-7V355.7z M290.4,355.7h7v7h-7V355.7z M297.7,355.7h7v7h-7V355.7z M304.9,355.7h7v7
		h-7V355.7z M312.2,355.7h7v7h-7V355.7z M319.4,355.7h7v7h-7V355.7z M355.7,355.7h7v7h-7V355.7z M363,355.7h7v7h-7V355.7z
		 M370.3,355.7h7v7h-7V355.7z M377.5,355.7h7v7h-7V355.7z M384.8,355.7h7v7h-7V355.7z M392,355.7h7v7h-7V355.7z M609.8,355.7h7v7h-7
		V355.7z M617.1,355.7h7v7h-7V355.7z M624.4,355.7h7v7h-7V355.7z M631.6,355.7h7v7h-7V355.7z M638.9,355.7h7v7h-7V355.7z
		 M675.2,355.7h7v7h-7V355.7z M704.2,355.7h7v7h-7V355.7z M711.5,355.7h7v7h-7V355.7z M718.7,355.7h7v7h-7V355.7z M726,355.7h7v7h-7
		V355.7z M733.3,355.7h7v7h-7V355.7z M740.5,355.7h7v7h-7V355.7z M791.3,355.7h7v7h-7V355.7z M798.6,355.7h7v7h-7V355.7z M275.9,363
		h7v7h-7V363z M283.1,363h7v7h-7V363z M290.4,363h7v7h-7V363z M297.7,363h7v7h-7V363z M304.9,363h7v7h-7V363z M312.2,363h7v7h-7V363
		z M363,363h7v7h-7V363z M370.3,363h7v7h-7V363z M377.5,363h7v7h-7V363z M384.8,363h7v7h-7V363z M602.6,363h7v7h-7V363z M609.8,363
		h7v7h-7V363z M617.1,363h7v7h-7V363z M624.4,363h7v7h-7V363z M675.2,363h7v7h-7V363z M682.4,363h7v7h-7V363z M689.7,363h7v7h-7V363
		z M697,363h7v7h-7V363z M704.2,363h7v7h-7V363z M740.5,363h7v7h-7V363z M791.3,363h7v7h-7V363z M798.6,363h7v7h-7V363z
		 M290.4,370.3h7v7h-7V370.3z M297.7,370.3h7v7h-7V370.3z M304.9,370.3h7v7h-7V370.3z M312.2,370.3h7v7h-7V370.3z M319.4,370.3h7v7
		h-7V370.3z M370.3,370.3h7v7h-7V370.3z M377.5,370.3h7v7h-7V370.3z M588.1,370.3h7v7h-7V370.3z M595.3,370.3h7v7h-7V370.3z
		 M602.6,370.3h7v7h-7V370.3z M609.8,370.3h7v7h-7V370.3z M660.7,370.3h7v7h-7V370.3z M667.9,370.3h7v7h-7V370.3z M675.2,370.3h7v7
		h-7V370.3z M740.5,370.3h7v7h-7V370.3z M798.6,370.3h7v7h-7V370.3z M805.9,370.3h7v7h-7V370.3z M304.9,377.5h7v7h-7V377.5z
		 M312.2,377.5h7v7h-7V377.5z M319.4,377.5h7v7h-7V377.5z M326.7,377.5h7v7h-7V377.5z M377.5,377.5h7v7h-7V377.5z M384.8,377.5h7v7
		h-7V377.5z M573.5,377.5h7v7h-7V377.5z M580.8,377.5h7v7h-7V377.5z M588.1,377.5h7v7h-7V377.5z M595.3,377.5h7v7h-7V377.5z
		 M602.6,377.5h7v7h-7V377.5z M638.9,377.5h7v7h-7V377.5z M646.1,377.5h7v7h-7V377.5z M653.4,377.5h7v7h-7V377.5z M660.7,377.5h7v7
		h-7V377.5z M675.2,377.5h7v7h-7V377.5z M740.5,377.5h7v7h-7V377.5z M798.6,377.5h7v7h-7V377.5z M805.9,377.5h7v7h-7V377.5z
		 M312.2,384.8h7v7h-7V384.8z M319.4,384.8h7v7h-7V384.8z M326.7,384.8h7v7h-7V384.8z M334,384.8h7v7h-7V384.8z M384.8,384.8h7v7h-7
		V384.8z M392,384.8h7v7h-7V384.8z M566.3,384.8h7v7h-7V384.8z M573.5,384.8h7v7h-7V384.8z M580.8,384.8h7v7h-7V384.8z M588.1,384.8
		h7v7h-7V384.8z M595.3,384.8h7v7h-7V384.8z M602.6,384.8h7v7h-7V384.8z M617.1,384.8h7v7h-7V384.8z M624.4,384.8h7v7h-7V384.8z
		 M631.6,384.8h7v7h-7V384.8z M638.9,384.8h7v7h-7V384.8z M682.4,384.8h7v7h-7V384.8z M740.5,384.8h7v7h-7V384.8z M747.8,384.8h7v7
		h-7V384.8z M762.3,384.8h7v7h-7V384.8z M769.6,384.8h7v7h-7V384.8z M776.8,384.8h7v7h-7V384.8z M784.1,384.8h7v7h-7V384.8z
		 M791.3,384.8h7v7h-7V384.8z M798.6,384.8h7v7h-7V384.8z M805.9,384.8h7v7h-7V384.8z M326.7,392h7v7h-7V392z M334,392h7v7h-7V392z
		 M341.2,392h7v7h-7V392z M348.5,392h7v7h-7V392z M392,392h7v7h-7V392z M399.3,392h7v7h-7V392z M551.8,392h7v7h-7V392z M559,392h7v7
		h-7V392z M566.3,392h7v7h-7V392z M573.5,392h7v7h-7V392z M580.8,392h7v7h-7V392z M595.3,392h7v7h-7V392z M602.6,392h7v7h-7V392z
		 M609.8,392h7v7h-7V392z M682.4,392h7v7h-7V392z M733.3,392h7v7h-7V392z M740.5,392h7v7h-7V392z M747.8,392h7v7h-7V392z M755,392h7
		v7h-7V392z M762.3,392h7v7h-7V392z M341.2,399.3h7v7h-7V399.3z M348.5,399.3h7v7h-7V399.3z M355.7,399.3h7v7h-7V399.3z M363,399.3
		h7v7h-7V399.3z M392,399.3h7v7h-7V399.3z M399.3,399.3h7v7h-7V399.3z M406.6,399.3h7v7h-7V399.3z M537.2,399.3h7v7h-7V399.3z
		 M544.5,399.3h7v7h-7V399.3z M551.8,399.3h7v7h-7V399.3z M559,399.3h7v7h-7V399.3z M595.3,399.3h7v7h-7V399.3z M602.6,399.3h7v7h-7
		V399.3z M682.4,399.3h7v7h-7V399.3z M689.7,399.3h7v7h-7V399.3z M704.2,399.3h7v7h-7V399.3z M711.5,399.3h7v7h-7V399.3z
		 M718.7,399.3h7v7h-7V399.3z M726,399.3h7v7h-7V399.3z M733.3,399.3h7v7h-7V399.3z M740.5,399.3h7v7h-7V399.3z M747.8,399.3h7v7h-7
		V399.3z M355.7,406.6h7v7h-7V406.6z M363,406.6h7v7h-7V406.6z M370.3,406.6h7v7h-7V406.6z M377.5,406.6h7v7h-7V406.6z M399.3,406.6
		h7v7h-7V406.6z M406.6,406.6h7v7h-7V406.6z M413.8,406.6h7v7h-7V406.6z M522.7,406.6h7v7h-7V406.6z M530,406.6h7v7h-7V406.6z
		 M537.2,406.6h7v7h-7V406.6z M544.5,406.6h7v7h-7V406.6z M595.3,406.6h7v7h-7V406.6z M602.6,406.6h7v7h-7V406.6z M675.2,406.6h7v7
		h-7V406.6z M682.4,406.6h7v7h-7V406.6z M689.7,406.6h7v7h-7V406.6z M697,406.6h7v7h-7V406.6z M704.2,406.6h7v7h-7V406.6z
		 M711.5,406.6h7v7h-7V406.6z M740.5,406.6h7v7h-7V406.6z M363,413.8h7v7h-7V413.8z M370.3,413.8h7v7h-7V413.8z M377.5,413.8h7v7h-7
		V413.8z M384.8,413.8h7v7h-7V413.8z M392,413.8h7v7h-7V413.8z M406.6,413.8h7v7h-7V413.8z M413.8,413.8h7v7h-7V413.8z M508.2,413.8
		h7v7h-7V413.8z M515.5,413.8h7v7h-7V413.8z M522.7,413.8h7v7h-7V413.8z M530,413.8h7v7h-7V413.8z M595.3,413.8h7v7h-7V413.8z
		 M602.6,413.8h7v7h-7V413.8z M638.9,413.8h7v7h-7V413.8z M646.1,413.8h7v7h-7V413.8z M653.4,413.8h7v7h-7V413.8z M660.7,413.8h7v7
		h-7V413.8z M667.9,413.8h7v7h-7V413.8z M675.2,413.8h7v7h-7V413.8z M682.4,413.8h7v7h-7V413.8z M689.7,413.8h7v7h-7V413.8z
		 M733.3,413.8h7v7h-7V413.8z M740.5,413.8h7v7h-7V413.8z M377.5,421.1h7v7h-7V421.1z M384.8,421.1h7v7h-7V421.1z M392,421.1h7v7h-7
		V421.1z M399.3,421.1h7v7h-7V421.1z M406.6,421.1h7v7h-7V421.1z M413.8,421.1h7v7h-7V421.1z M421.1,421.1h7v7h-7V421.1z
		 M493.7,421.1h7v7h-7V421.1z M500.9,421.1h7v7h-7V421.1z M508.2,421.1h7v7h-7V421.1z M515.5,421.1h7v7h-7V421.1z M522.7,421.1h7v7
		h-7V421.1z M595.3,421.1h7v7h-7V421.1z M602.6,421.1h7v7h-7V421.1z M609.8,421.1h7v7h-7V421.1z M617.1,421.1h7v7h-7V421.1z
		 M624.4,421.1h7v7h-7V421.1z M631.6,421.1h7v7h-7V421.1z M638.9,421.1h7v7h-7V421.1z M646.1,421.1h7v7h-7V421.1z M653.4,421.1h7v7
		h-7V421.1z M660.7,421.1h7v7h-7V421.1z M726,421.1h7v7h-7V421.1z M733.3,421.1h7v7h-7V421.1z M392,428.3h7v7h-7V428.3z
		 M399.3,428.3h7v7h-7V428.3z M406.6,428.3h7v7h-7V428.3z M413.8,428.3h7v7h-7V428.3z M421.1,428.3h7v7h-7V428.3z M428.3,428.3h7v7
		h-7V428.3z M435.6,428.3h7v7h-7V428.3z M442.9,428.3h7v7h-7V428.3z M479.2,428.3h7v7h-7V428.3z M486.4,428.3h7v7h-7V428.3z
		 M493.7,428.3h7v7h-7V428.3z M500.9,428.3h7v7h-7V428.3z M508.2,428.3h7v7h-7V428.3z M580.8,428.3h7v7h-7V428.3z M588.1,428.3h7v7
		h-7V428.3z M595.3,428.3h7v7h-7V428.3z M602.6,428.3h7v7h-7V428.3z M609.8,428.3h7v7h-7V428.3z M617.1,428.3h7v7h-7V428.3z
		 M624.4,428.3h7v7h-7V428.3z M631.6,428.3h7v7h-7V428.3z M646.1,428.3h7v7h-7V428.3z M718.7,428.3h7v7h-7V428.3z M726,428.3h7v7h-7
		V428.3z M406.6,435.6h7v7h-7V435.6z M413.8,435.6h7v7h-7V435.6z M421.1,435.6h7v7h-7V435.6z M428.3,435.6h7v7h-7V435.6z
		 M435.6,435.6h7v7h-7V435.6z M442.9,435.6h7v7h-7V435.6z M450.1,435.6h7v7h-7V435.6z M457.4,435.6h7v7h-7V435.6z M464.6,435.6h7v7
		h-7V435.6z M471.9,435.6h7v7h-7V435.6z M479.2,435.6h7v7h-7V435.6z M486.4,435.6h7v7h-7V435.6z M493.7,435.6h7v7h-7V435.6z
		 M500.9,435.6h7v7h-7V435.6z M544.5,435.6h7v7h-7V435.6z M551.8,435.6h7v7h-7V435.6z M559,435.6h7v7h-7V435.6z M566.3,435.6h7v7h-7
		V435.6z M573.5,435.6h7v7h-7V435.6z M580.8,435.6h7v7h-7V435.6z M588.1,435.6h7v7h-7V435.6z M595.3,435.6h7v7h-7V435.6z
		 M646.1,435.6h7v7h-7V435.6z M718.7,435.6h7v7h-7V435.6z M413.8,442.9h7v7h-7V442.9z M421.1,442.9h7v7h-7V442.9z M450.1,442.9h7v7
		h-7V442.9z M457.4,442.9h7v7h-7V442.9z M464.6,442.9h7v7h-7V442.9z M471.9,442.9h7v7h-7V442.9z M479.2,442.9h7v7h-7V442.9z
		 M486.4,442.9h7v7h-7V442.9z M493.7,442.9h7v7h-7V442.9z M500.9,442.9h7v7h-7V442.9z M508.2,442.9h7v7h-7V442.9z M515.5,442.9h7v7
		h-7V442.9z M522.7,442.9h7v7h-7V442.9z M530,442.9h7v7h-7V442.9z M537.2,442.9h7v7h-7V442.9z M544.5,442.9h7v7h-7V442.9z
		 M551.8,442.9h7v7h-7V442.9z M559,442.9h7v7h-7V442.9z M566.3,442.9h7v7h-7V442.9z M638.9,442.9h7v7h-7V442.9z M646.1,442.9h7v7h-7
		V442.9z M660.7,442.9h7v7h-7V442.9z M667.9,442.9h7v7h-7V442.9z M675.2,442.9h7v7h-7V442.9z M682.4,442.9h7v7h-7V442.9z
		 M689.7,442.9h7v7h-7V442.9z M697,442.9h7v7h-7V442.9z M704.2,442.9h7v7h-7V442.9z M711.5,442.9h7v7h-7V442.9z M718.7,442.9h7v7h-7
		V442.9z M413.8,450.1h7v7h-7V450.1z M421.1,450.1h7v7h-7V450.1z M457.4,450.1h7v7h-7V450.1z M464.6,450.1h7v7h-7V450.1z
		 M471.9,450.1h7v7h-7V450.1z M479.2,450.1h7v7h-7V450.1z M486.4,450.1h7v7h-7V450.1z M493.7,450.1h7v7h-7V450.1z M500.9,450.1h7v7
		h-7V450.1z M508.2,450.1h7v7h-7V450.1z M515.5,450.1h7v7h-7V450.1z M522.7,450.1h7v7h-7V450.1z M530,450.1h7v7h-7V450.1z
		 M551.8,450.1h7v7h-7V450.1z M559,450.1h7v7h-7V450.1z M566.3,450.1h7v7h-7V450.1z M573.5,450.1h7v7h-7V450.1z M580.8,450.1h7v7h-7
		V450.1z M588.1,450.1h7v7h-7V450.1z M595.3,450.1h7v7h-7V450.1z M602.6,450.1h7v7h-7V450.1z M609.8,450.1h7v7h-7V450.1z
		 M617.1,450.1h7v7h-7V450.1z M624.4,450.1h7v7h-7V450.1z M631.6,450.1h7v7h-7V450.1z M638.9,450.1h7v7h-7V450.1z M646.1,450.1h7v7
		h-7V450.1z M653.4,450.1h7v7h-7V450.1z M660.7,450.1h7v7h-7V450.1z M711.5,450.1h7v7h-7V450.1z M413.8,457.4h7v7h-7V457.4z
		 M421.1,457.4h7v7h-7V457.4z M450.1,457.4h7v7h-7V457.4z M457.4,457.4h7v7h-7V457.4z M551.8,457.4h7v7h-7V457.4z M559,457.4h7v7h-7
		V457.4z M638.9,457.4h7v7h-7V457.4z M711.5,457.4h7v7h-7V457.4z M421.1,464.6h7v7h-7V464.6z M428.3,464.6h7v7h-7V464.6z
		 M435.6,464.6h7v7h-7V464.6z M442.9,464.6h7v7h-7V464.6z M450.1,464.6h7v7h-7V464.6z M457.4,464.6h7v7h-7V464.6z M559,464.6h7v7h-7
		V464.6z M566.3,464.6h7v7h-7V464.6z M573.5,464.6h7v7h-7V464.6z M580.8,464.6h7v7h-7V464.6z M588.1,464.6h7v7h-7V464.6z
		 M595.3,464.6h7v7h-7V464.6z M602.6,464.6h7v7h-7V464.6z M609.8,464.6h7v7h-7V464.6z M617.1,464.6h7v7h-7V464.6z M624.4,464.6h7v7
		h-7V464.6z M631.6,464.6h7v7h-7V464.6z M638.9,464.6h7v7h-7V464.6z M646.1,464.6h7v7h-7V464.6z M653.4,464.6h7v7h-7V464.6z
		 M660.7,464.6h7v7h-7V464.6z M667.9,464.6h7v7h-7V464.6z M675.2,464.6h7v7h-7V464.6z M682.4,464.6h7v7h-7V464.6z M689.7,464.6h7v7
		h-7V464.6z M697,464.6h7v7h-7V464.6z M704.2,464.6h7v7h-7V464.6z M711.5,464.6h7v7h-7V464.6z M421.1,471.9h7v7h-7V471.9z
		 M428.3,471.9h7v7h-7V471.9z M435.6,471.9h7v7h-7V471.9z M442.9,471.9h7v7h-7V471.9z M450.1,471.9h7v7h-7V471.9z M559,471.9h7v7h-7
		V471.9z M566.3,471.9h7v7h-7V471.9z M573.5,471.9h7v7h-7V471.9z M580.8,471.9h7v7h-7V471.9z M588.1,471.9h7v7h-7V471.9z
		 M595.3,471.9h7v7h-7V471.9z M602.6,471.9h7v7h-7V471.9z M609.8,471.9h7v7h-7V471.9z M617.1,471.9h7v7h-7V471.9z M624.4,471.9h7v7
		h-7V471.9z M631.6,471.9h7v7h-7V471.9z M638.9,471.9h7v7h-7V471.9z M646.1,471.9h7v7h-7V471.9z M653.4,471.9h7v7h-7V471.9z
		 M660.7,471.9h7v7h-7V471.9z M667.9,471.9h7v7h-7V471.9z M675.2,471.9h7v7h-7V471.9z M682.4,471.9h7v7h-7V471.9z M421.1,479.2h7v7
		h-7V479.2z M428.3,479.2h7v7h-7V479.2z M435.6,479.2h7v7h-7V479.2z M442.9,479.2h7v7h-7V479.2z M421.1,486.4h7v7h-7V486.4z
		 M428.3,486.4h7v7h-7V486.4z M435.6,486.4h7v7h-7V486.4z M442.9,486.4h7v7h-7V486.4z M413.8,493.7h7v7h-7V493.7z M421.1,493.7h7v7
		h-7V493.7z M428.3,493.7h7v7h-7V493.7z M435.6,493.7h7v7h-7V493.7z M442.9,493.7h7v7h-7V493.7z M450.1,493.7h7v7h-7V493.7z
		 M413.8,500.9h7v7h-7V500.9z M421.1,500.9h7v7h-7V500.9z M428.3,500.9h7v7h-7V500.9z M435.6,500.9h7v7h-7V500.9z M442.9,500.9h7v7
		h-7V500.9z M450.1,500.9h7v7h-7V500.9z M413.8,508.2h7v7h-7V508.2z M421.1,508.2h7v7h-7V508.2z M428.3,508.2h7v7h-7V508.2z
		 M435.6,508.2h7v7h-7V508.2z M442.9,508.2h7v7h-7V508.2z M450.1,508.2h7v7h-7V508.2z M406.6,515.5h7v7h-7V515.5z M413.8,515.5h7v7
		h-7V515.5z M421.1,515.5h7v7h-7V515.5z M435.6,515.5h7v7h-7V515.5z M442.9,515.5h7v7h-7V515.5z M406.6,522.7h7v7h-7V522.7z
		 M413.8,522.7h7v7h-7V522.7z M421.1,522.7h7v7h-7V522.7z M435.6,522.7h7v7h-7V522.7z M442.9,522.7h7v7h-7V522.7z M450.1,522.7h7v7
		h-7V522.7z M406.6,530h7v7h-7V530z M413.8,530h7v7h-7V530z M435.6,530h7v7h-7V530z M442.9,530h7v7h-7V530z M450.1,530h7v7h-7V530z
		 M406.6,537.2h7v7h-7V537.2z M413.8,537.2h7v7h-7V537.2z M435.6,537.2h7v7h-7V537.2z M442.9,537.2h7v7h-7V537.2z M450.1,537.2h7v7
		h-7V537.2z M377.5,544.5h7v7h-7V544.5z M406.6,544.5h7v7h-7V544.5z M413.8,544.5h7v7h-7V544.5z M442.9,544.5h7v7h-7V544.5z
		 M450.1,544.5h7v7h-7V544.5z M370.3,551.8h7v7h-7V551.8z M377.5,551.8h7v7h-7V551.8z M384.8,551.8h7v7h-7V551.8z M392,551.8h7v7h-7
		V551.8z M399.3,551.8h7v7h-7V551.8z M406.6,551.8h7v7h-7V551.8z M442.9,551.8h7v7h-7V551.8z M450.1,551.8h7v7h-7V551.8z M370.3,559
		h7v7h-7V559z M384.8,559h7v7h-7V559z M392,559h7v7h-7V559z M399.3,559h7v7h-7V559z M406.6,559h7v7h-7V559z M442.9,559h7v7h-7V559z
		 M450.1,559h7v7h-7V559z M370.3,566.3h7v7h-7V566.3z M392,566.3h7v7h-7V566.3z M399.3,566.3h7v7h-7V566.3z M406.6,566.3h7v7h-7
		V566.3z M442.9,566.3h7v7h-7V566.3z M450.1,566.3h7v7h-7V566.3z M363,573.5h7v7h-7V573.5z M370.3,573.5h7v7h-7V573.5z M384.8,573.5
		h7v7h-7V573.5z M392,573.5h7v7h-7V573.5z M399.3,573.5h7v7h-7V573.5z M406.6,573.5h7v7h-7V573.5z M442.9,573.5h7v7h-7V573.5z
		 M450.1,573.5h7v7h-7V573.5z M363,580.8h7v7h-7V580.8z M370.3,580.8h7v7h-7V580.8z M384.8,580.8h7v7h-7V580.8z M399.3,580.8h7v7h-7
		V580.8z M406.6,580.8h7v7h-7V580.8z M442.9,580.8h7v7h-7V580.8z M450.1,580.8h7v7h-7V580.8z M355.7,588.1h7v7h-7V588.1z M363,588.1
		h7v7h-7V588.1z M384.8,588.1h7v7h-7V588.1z M399.3,588.1h7v7h-7V588.1z M406.6,588.1h7v7h-7V588.1z M442.9,588.1h7v7h-7V588.1z
		 M450.1,588.1h7v7h-7V588.1z M355.7,595.3h7v7h-7V595.3z M363,595.3h7v7h-7V595.3z M377.5,595.3h7v7h-7V595.3z M392,595.3h7v7h-7
		V595.3z M399.3,595.3h7v7h-7V595.3z M442.9,595.3h7v7h-7V595.3z M450.1,595.3h7v7h-7V595.3z M355.7,602.6h7v7h-7V602.6z
		 M377.5,602.6h7v7h-7V602.6z M392,602.6h7v7h-7V602.6z M399.3,602.6h7v7h-7V602.6z M406.6,602.6h7v7h-7V602.6z M413.8,602.6h7v7h-7
		V602.6z M442.9,602.6h7v7h-7V602.6z M450.1,602.6h7v7h-7V602.6z M348.5,609.8h7v7h-7V609.8z M355.7,609.8h7v7h-7V609.8z
		 M377.5,609.8h7v7h-7V609.8z M392,609.8h7v7h-7V609.8z M399.3,609.8h7v7h-7V609.8z M406.6,609.8h7v7h-7V609.8z M413.8,609.8h7v7h-7
		V609.8z M421.1,609.8h7v7h-7V609.8z M428.3,609.8h7v7h-7V609.8z M435.6,609.8h7v7h-7V609.8z M442.9,609.8h7v7h-7V609.8z
		 M450.1,609.8h7v7h-7V609.8z M348.5,617.1h7v7h-7V617.1z M370.3,617.1h7v7h-7V617.1z M392,617.1h7v7h-7V617.1z M399.3,617.1h7v7h-7
		V617.1z M421.1,617.1h7v7h-7V617.1z M428.3,617.1h7v7h-7V617.1z M435.6,617.1h7v7h-7V617.1z M442.9,617.1h7v7h-7V617.1z
		 M450.1,617.1h7v7h-7V617.1z M457.4,617.1h7v7h-7V617.1z M341.2,624.4h7v7h-7V624.4z M348.5,624.4h7v7h-7V624.4z M370.3,624.4h7v7
		h-7V624.4z M392,624.4h7v7h-7V624.4z M399.3,624.4h7v7h-7V624.4z M428.3,624.4h7v7h-7V624.4z M435.6,624.4h7v7h-7V624.4z
		 M442.9,624.4h7v7h-7V624.4z M450.1,624.4h7v7h-7V624.4z M457.4,624.4h7v7h-7V624.4z M341.2,631.6h7v7h-7V631.6z M348.5,631.6h7v7
		h-7V631.6z M355.7,631.6h7v7h-7V631.6z M363,631.6h7v7h-7V631.6z M370.3,631.6h7v7h-7V631.6z M392,631.6h7v7h-7V631.6z
		 M399.3,631.6h7v7h-7V631.6z M428.3,631.6h7v7h-7V631.6z M450.1,631.6h7v7h-7V631.6z M457.4,631.6h7v7h-7V631.6z M341.2,638.9h7v7
		h-7V638.9z M363,638.9h7v7h-7V638.9z M370.3,638.9h7v7h-7V638.9z M377.5,638.9h7v7h-7V638.9z M392,638.9h7v7h-7V638.9z
		 M421.1,638.9h7v7h-7V638.9z M428.3,638.9h7v7h-7V638.9z M450.1,638.9h7v7h-7V638.9z M457.4,638.9h7v7h-7V638.9z M334,646.1h7v7h-7
		V646.1z M341.2,646.1h7v7h-7V646.1z M363,646.1h7v7h-7V646.1z M377.5,646.1h7v7h-7V646.1z M384.8,646.1h7v7h-7V646.1z M392,646.1h7
		v7h-7V646.1z M421.1,646.1h7v7h-7V646.1z M428.3,646.1h7v7h-7V646.1z M450.1,646.1h7v7h-7V646.1z M457.4,646.1h7v7h-7V646.1z
		 M334,653.4h7v7h-7V653.4z M355.7,653.4h7v7h-7V653.4z M363,653.4h7v7h-7V653.4z M384.8,653.4h7v7h-7V653.4z M392,653.4h7v7h-7
		V653.4z M421.1,653.4h7v7h-7V653.4z M428.3,653.4h7v7h-7V653.4z M450.1,653.4h7v7h-7V653.4z M457.4,653.4h7v7h-7V653.4z M334,660.7
		h7v7h-7V660.7z M355.7,660.7h7v7h-7V660.7z M384.8,660.7h7v7h-7V660.7z M392,660.7h7v7h-7V660.7z M421.1,660.7h7v7h-7V660.7z
		 M428.3,660.7h7v7h-7V660.7z M450.1,660.7h7v7h-7V660.7z M457.4,660.7h7v7h-7V660.7z M326.7,667.9h7v7h-7V667.9z M334,667.9h7v7h-7
		V667.9z M355.7,667.9h7v7h-7V667.9z M384.8,667.9h7v7h-7V667.9z M392,667.9h7v7h-7V667.9z M421.1,667.9h7v7h-7V667.9z M428.3,667.9
		h7v7h-7V667.9z M450.1,667.9h7v7h-7V667.9z M457.4,667.9h7v7h-7V667.9z M326.7,675.2h7v7h-7V675.2z M348.5,675.2h7v7h-7V675.2z
		 M355.7,675.2h7v7h-7V675.2z M384.8,675.2h7v7h-7V675.2z M392,675.2h7v7h-7V675.2z M421.1,675.2h7v7h-7V675.2z M428.3,675.2h7v7h-7
		V675.2z M450.1,675.2h7v7h-7V675.2z M457.4,675.2h7v7h-7V675.2z M464.6,675.2h7v7h-7V675.2z M326.7,682.4h7v7h-7V682.4z
		 M348.5,682.4h7v7h-7V682.4z M355.7,682.4h7v7h-7V682.4z M384.8,682.4h7v7h-7V682.4z M421.1,682.4h7v7h-7V682.4z M428.3,682.4h7v7
		h-7V682.4z M457.4,682.4h7v7h-7V682.4z M464.6,682.4h7v7h-7V682.4z M326.7,689.7h7v7h-7V689.7z M348.5,689.7h7v7h-7V689.7z
		 M384.8,689.7h7v7h-7V689.7z M392,689.7h7v7h-7V689.7z M399.3,689.7h7v7h-7V689.7z M421.1,689.7h7v7h-7V689.7z M428.3,689.7h7v7h-7
		V689.7z M457.4,689.7h7v7h-7V689.7z M464.6,689.7h7v7h-7V689.7z M326.7,697h7v7h-7V697z M334,697h7v7h-7V697z M348.5,697h7v7h-7
		V697z M377.5,697h7v7h-7V697z M384.8,697h7v7h-7V697z M392,697h7v7h-7V697z M399.3,697h7v7h-7V697z M406.6,697h7v7h-7V697z
		 M413.8,697h7v7h-7V697z M421.1,697h7v7h-7V697z M428.3,697h7v7h-7V697z M457.4,697h7v7h-7V697z M464.6,697h7v7h-7V697z M334,704.2
		h7v7h-7V704.2z M341.2,704.2h7v7h-7V704.2z M348.5,704.2h7v7h-7V704.2z M377.5,704.2h7v7h-7V704.2z M384.8,704.2h7v7h-7V704.2z
		 M421.1,704.2h7v7h-7V704.2z M428.3,704.2h7v7h-7V704.2z M435.6,704.2h7v7h-7V704.2z M442.9,704.2h7v7h-7V704.2z M450.1,704.2h7v7
		h-7V704.2z M457.4,704.2h7v7h-7V704.2z M464.6,704.2h7v7h-7V704.2z M341.2,711.5h7v7h-7V711.5z M348.5,711.5h7v7h-7V711.5z
		 M377.5,711.5h7v7h-7V711.5z M384.8,711.5h7v7h-7V711.5z M428.3,711.5h7v7h-7V711.5z M435.6,711.5h7v7h-7V711.5z M442.9,711.5h7v7
		h-7V711.5z M450.1,711.5h7v7h-7V711.5z M457.4,711.5h7v7h-7V711.5z M464.6,711.5h7v7h-7V711.5z M348.5,718.7h7v7h-7V718.7z
		 M355.7,718.7h7v7h-7V718.7z M377.5,718.7h7v7h-7V718.7z M384.8,718.7h7v7h-7V718.7z M421.1,718.7h7v7h-7V718.7z M428.3,718.7h7v7
		h-7V718.7z M457.4,718.7h7v7h-7V718.7z M464.6,718.7h7v7h-7V718.7z M355.7,726h7v7h-7V726z M377.5,726h7v7h-7V726z M421.1,726h7v7
		h-7V726z M457.4,726h7v7h-7V726z M464.6,726h7v7h-7V726z M355.7,733.3h7v7h-7V733.3z M363,733.3h7v7h-7V733.3z M377.5,733.3h7v7h-7
		V733.3z M421.1,733.3h7v7h-7V733.3z M457.4,733.3h7v7h-7V733.3z M464.6,733.3h7v7h-7V733.3z M363,740.5h7v7h-7V740.5z M370.3,740.5
		h7v7h-7V740.5z M377.5,740.5h7v7h-7V740.5z M413.8,740.5h7v7h-7V740.5z M421.1,740.5h7v7h-7V740.5z M457.4,740.5h7v7h-7V740.5z
		 M464.6,740.5h7v7h-7V740.5z M370.3,747.8h7v7h-7V747.8z M377.5,747.8h7v7h-7V747.8z M413.8,747.8h7v7h-7V747.8z M421.1,747.8h7v7
		h-7V747.8z M457.4,747.8h7v7h-7V747.8z M464.6,747.8h7v7h-7V747.8z M370.3,755h7v7h-7V755z M377.5,755h7v7h-7V755z M384.8,755h7v7
		h-7V755z M392,755h7v7h-7V755z M399.3,755h7v7h-7V755z M406.6,755h7v7h-7V755z M413.8,755h7v7h-7V755z M421.1,755h7v7h-7V755z
		 M457.4,755h7v7h-7V755z M464.6,755h7v7h-7V755z M370.3,762.3h7v7h-7V762.3z M377.5,762.3h7v7h-7V762.3z M413.8,762.3h7v7h-7V762.3
		z M421.1,762.3h7v7h-7V762.3z M457.4,762.3h7v7h-7V762.3z M464.6,762.3h7v7h-7V762.3z M370.3,769.6h7v7h-7V769.6z M413.8,769.6h7v7
		h-7V769.6z M421.1,769.6h7v7h-7V769.6z M428.3,769.6h7v7h-7V769.6z M435.6,769.6h7v7h-7V769.6z M464.6,769.6h7v7h-7V769.6z
		 M471.9,769.6h7v7h-7V769.6z M370.3,776.8h7v7h-7V776.8z M413.8,776.8h7v7h-7V776.8z M421.1,776.8h7v7h-7V776.8z M442.9,776.8h7v7
		h-7V776.8z M450.1,776.8h7v7h-7V776.8z M457.4,776.8h7v7h-7V776.8z M464.6,776.8h7v7h-7V776.8z M471.9,776.8h7v7h-7V776.8z
		 M363,784.1h7v7h-7V784.1z M370.3,784.1h7v7h-7V784.1z M421.1,784.1h7v7h-7V784.1z M457.4,784.1h7v7h-7V784.1z M464.6,784.1h7v7h-7
		V784.1z M471.9,784.1h7v7h-7V784.1z M363,791.3h7v7h-7V791.3z M370.3,791.3h7v7h-7V791.3z M413.8,791.3h7v7h-7V791.3z M421.1,791.3
		h7v7h-7V791.3z M464.6,791.3h7v7h-7V791.3z M471.9,791.3h7v7h-7V791.3z M363,798.6h7v7h-7V798.6z M370.3,798.6h7v7h-7V798.6z
		 M413.8,798.6h7v7h-7V798.6z M421.1,798.6h7v7h-7V798.6z M464.6,798.6h7v7h-7V798.6z M471.9,798.6h7v7h-7V798.6z M363,805.9h7v7h-7
		V805.9z M370.3,805.9h7v7h-7V805.9z M377.5,805.9h7v7h-7V805.9z M413.8,805.9h7v7h-7V805.9z M421.1,805.9h7v7h-7V805.9z
		 M464.6,805.9h7v7h-7V805.9z M471.9,805.9h7v7h-7V805.9z M363,813.1h7v7h-7V813.1z M370.3,813.1h7v7h-7V813.1z M377.5,813.1h7v7h-7
		V813.1z M384.8,813.1h7v7h-7V813.1z M392,813.1h7v7h-7V813.1z M399.3,813.1h7v7h-7V813.1z M406.6,813.1h7v7h-7V813.1z M413.8,813.1
		h7v7h-7V813.1z M421.1,813.1h7v7h-7V813.1z M464.6,813.1h7v7h-7V813.1z M471.9,813.1h7v7h-7V813.1z M406.6,820.4h7v7h-7V820.4z
		 M413.8,820.4h7v7h-7V820.4z M421.1,820.4h7v7h-7V820.4z M428.3,820.4h7v7h-7V820.4z M435.6,820.4h7v7h-7V820.4z M471.9,820.4h7v7
		h-7V820.4z M479.2,820.4h7v7h-7V820.4z M421.1,827.6h7v7h-7V827.6z M428.3,827.6h7v7h-7V827.6z M435.6,827.6h7v7h-7V827.6z
		 M442.9,827.6h7v7h-7V827.6z M471.9,827.6h7v7h-7V827.6z M479.2,827.6h7v7h-7V827.6z M428.3,834.9h7v7h-7V834.9z M435.6,834.9h7v7
		h-7V834.9z M442.9,834.9h7v7h-7V834.9z M450.1,834.9h7v7h-7V834.9z M457.4,834.9h7v7h-7V834.9z M471.9,834.9h7v7h-7V834.9z
		 M479.2,834.9h7v7h-7V834.9z M450.1,842.2h7v7h-7V842.2z M457.4,842.2h7v7h-7V842.2z M464.6,842.2h7v7h-7V842.2z M471.9,842.2h7v7
		h-7V842.2z M479.2,842.2h7v7h-7V842.2z M457.4,849.4h7v7h-7V849.4z M464.6,849.4h7v7h-7V849.4z M471.9,849.4h7v7h-7V849.4z
		 M479.2,849.4h7v7h-7V849.4z M471.9,856.7h7v7h-7V856.7z M479.2,856.7h7v7h-7V856.7z"/>
</g>
</svg>
