<?xml version="1.0" encoding="utf-8"?>
<!-- Generator: Adobe Illustrator 27.3.1, SVG Export Plug-In . SVG Version: 6.00 Build 0)  -->
<svg version="1.1" xmlns="http://www.w3.org/2000/svg" xmlns:xlink="http://www.w3.org/1999/xlink" x="0px" y="0px"
	 viewBox="0 0 871 871" style="enable-background:new 0 0 871 871;" xml:space="preserve">
<style type="text/css">
	.st0{fill:#FCE9B9;}
	.st1{fill:#1E0E01;}
</style>
<g id="Слой_2">
	<path class="st0" d="M851.7,363c0-1.4-1.1-2.5-2.5-2.5h-7c0,0-0.1,0-0.1,0c0,0-0.1,0-0.1,0h-7c-1.4,0-2.5,1.1-2.5,2.5v4.8h-4.8
		c0,0-0.1,0-0.1,0c0,0-0.1,0-0.1,0h-7c0,0-0.1,0-0.1,0c0,0-0.1,0-0.1,0h-7c0,0-0.1,0-0.1,0c0,0-0.1,0-0.1,0h-7c0,0-0.1,0-0.1,0
		c0,0-0.1,0-0.1,0h-7c-1.4,0-2.5,1.1-2.5,2.5v4.8h-4.8c0,0-0.1,0-0.1,0c0,0-0.1,0-0.1,0h-7c0,0-0.1,0-0.1,0c0,0-0.1,0-0.1,0h-7
		c0,0-0.1,0-0.1,0c0,0-0.1,0-0.1,0h-7c-1.4,0-2.5,1.1-2.5,2.5v4.8h-4.8c0,0-0.1,0-0.1,0c0,0-0.1,0-0.1,0h-7c0,0-0.1,0-0.1,0
		c0,0-0.1,0-0.1,0h-7c-1.4,0-2.5,1.1-2.5,2.5v4.8h-4.8c0,0-0.1,0-0.1,0c0,0-0.1,0-0.1,0h-7c0,0-0.1,0-0.1,0c0,0-0.1,0-0.1,0h-7
		c0,0-0.1,0-0.1,0c0,0-0.1,0-0.1,0h-7c0,0-0.1,0-0.1,0c0,0-0.1,0-0.1,0h-7c-1.4,0-2.5,1.1-2.5,2.5v4.8h-4.8c0,0-0.1,0-0.1,0
		c0,0-0.1,0-0.1,0h-7c0,0-0.1,0-0.1,0c0,0-0.1,0-0.1,0h-7c0,0-0.1,0-0.1,0c0,0-0.1,0-0.1,0h-7c0,0-0.1,0-0.1,0c0,0-0.1,0-0.1,0h-7
		c-1.4,0-2.5,1.1-2.5,2.5v4.8h-4.8c0,0-0.1,0-0.1,0c0,0-0.1,0-0.1,0h-7c0,0-0.1,0-0.1,0c0,0-0.1,0-0.1,0h-7c0,0-0.1,0-0.1,0
		c0,0-0.1,0-0.1,0h-7c0,0-0.1,0-0.1,0c0,0-0.1,0-0.1,0h-7c0,0-0.1,0-0.1,0c0,0-0.1,0-0.1,0h-7c-1.4,0-2.5,1.1-2.5,2.5v4.8h-4.8
		c0,0-0.1,0-0.1,0c0,0-0.1,0-0.1,0h-7c0,0-0.1,0-0.1,0c0,0-0.1,0-0.1,0h-7c-1.4,0-2.5,1.1-2.5,2.5v4.8h-4.8c0,0-0.1,0-0.1,0
		c0,0-0.1,0-0.1,0h-7c0,0-0.1,0-0.1,0c0,0-0.1,0-0.1,0h-7c0,0-0.1,0-0.1,0c0,0-0.1,0-0.1,0h-7c-1.4,0-2.5,1.1-2.5,2.5v4.8h-4.8
		c0,0-0.1,0-0.1,0c0,0-0.1,0-0.1,0h-7c0,0-0.1,0-0.1,0c0,0-0.1,0-0.1,0h-7c0,0-0.1,0-0.1,0c0,0-0.1,0-0.1,0h-7c0,0-0.1,0-0.1,0
		c0,0-0.1,0-0.1,0h-7c-1.4,0-2.5,1.1-2.5,2.5v4.8h-4.8c0,0-0.1,0-0.1,0c0,0-0.1,0-0.1,0h-7c0,0-0.1,0-0.1,0c0,0-0.1,0-0.1,0h-7
		c0,0-0.1,0-0.1,0c0,0-0.1,0-0.1,0h-7c0,0-0.1,0-0.1,0c0,0-0.1,0-0.1,0h-7c0,0-0.1,0-0.1,0c0,0-0.1,0-0.1,0h-7
		c-1.4,0-2.5,1.1-2.5,2.5v4.8h-4.8c0,0-0.1,0-0.1,0c0,0-0.1,0-0.1,0h-7c0,0-0.1,0-0.1,0c0,0-0.1,0-0.1,0h-7c0,0-0.1,0-0.1,0
		c0,0-0.1,0-0.1,0h-7c0,0-0.1,0-0.1,0c0,0-0.1,0-0.1,0h-7c0,0-0.1,0-0.1,0c0,0-0.1,0-0.1,0h-4.8v-4.8c0-1.4-1.1-2.5-2.5-2.5h-4.8
		v-4.8c0-1.4-1.1-2.5-2.5-2.5h-7c0,0-0.1,0-0.1,0c0,0-0.1,0-0.1,0h-4.8v-4.8c0,0,0-0.1,0-0.1c0,0,0-0.1,0-0.1v-7c0,0,0-0.1,0-0.1
		c0,0,0-0.1,0-0.1v-7c0-1.4-1.1-2.5-2.5-2.5h-4.8v-4.8c0,0,0-0.1,0-0.1c0,0,0-0.1,0-0.1v-7c0,0,0-0.1,0-0.1c0,0,0-0.1,0-0.1v-7
		c0-1.4-1.1-2.5-2.5-2.5h-4.8v-4.8c0,0,0-0.1,0-0.1c0,0,0-0.1,0-0.1v-7c0-1.4-1.1-2.5-2.5-2.5h-4.8V363c0,0,0-0.1,0-0.1
		c0,0,0-0.1,0-0.1V358h4.8c0,0,0.1,0,0.1,0c0,0,0.1,0,0.1,0h7c1.4,0,2.5-1.1,2.5-2.5v-4.8h4.8c1.4,0,2.5-1.1,2.5-2.5v-7
		c0,0,0-0.1,0-0.1c0,0,0-0.1,0-0.1v-7c0,0,0-0.1,0-0.1c0,0,0-0.1,0-0.1v-7c0-1.4-1.1-2.5-2.5-2.5h-4.8v-4.8c0,0,0-0.1,0-0.1
		c0,0,0-0.1,0-0.1v-7c0,0,0-0.1,0-0.1c0,0,0-0.1,0-0.1v-7c0-1.4-1.1-2.5-2.5-2.5h-4.8v-4.8c0,0,0-0.1,0-0.1c0,0,0-0.1,0-0.1v-7
		c0,0,0-0.1,0-0.1c0,0,0-0.1,0-0.1v-7c0-1.4-1.1-2.5-2.5-2.5h-4.8v-4.8c0,0,0-0.1,0-0.1c0,0,0-0.1,0-0.1v-7c0,0,0-0.1,0-0.1
		c0,0,0-0.1,0-0.1v-7c0-1.4-1.1-2.5-2.5-2.5h-4.8v-4.8c0,0,0-0.1,0-0.1c0,0,0-0.1,0-0.1v-7c0,0,0-0.1,0-0.1c0,0,0-0.1,0-0.1v-7
		c0,0,0-0.1,0-0.1c0,0,0-0.1,0-0.1v-7c0-1.4-1.1-2.5-2.5-2.5h-4.8v-4.8c0,0,0-0.1,0-0.1c0,0,0-0.1,0-0.1v-7c0-1.4-1.1-2.5-2.5-2.5
		h-4.8v-4.8c0,0,0-0.1,0-0.1c0,0,0-0.1,0-0.1v-7c0-1.4-1.1-2.5-2.5-2.5H387V196c0-1.4-1.1-2.5-2.5-2.5h-7c0,0-0.1,0-0.1,0
		c0,0-0.1,0-0.1,0h-7c0,0-0.1,0-0.1,0c0,0-0.1,0-0.1,0h-7c0,0-0.1,0-0.1,0c0,0-0.1,0-0.1,0h-7c0,0-0.1,0-0.1,0c0,0-0.1,0-0.1,0h-7
		c0,0-0.1,0-0.1,0c0,0-0.1,0-0.1,0h-4.8v-4.8c0-1.4-1.1-2.5-2.5-2.5h-7c0,0-0.1,0-0.1,0c0,0-0.1,0-0.1,0h-7c0,0-0.1,0-0.1,0
		c0,0-0.1,0-0.1,0h-4.8v-4.8c0-1.4-1.1-2.5-2.5-2.5h-4.8v-4.8c0-1.4-1.1-2.5-2.5-2.5h-4.8V167c0-1.4-1.1-2.5-2.5-2.5h-4.8v-4.8
		c0,0,0-0.1,0-0.1c0,0,0-0.1,0-0.1v-7c0-1.4-1.1-2.5-2.5-2.5h-4.8v-4.8c0,0,0-0.1,0-0.1c0,0,0-0.1,0-0.1v-7c0-1.4-1.1-2.5-2.5-2.5
		h-4.8v-4.8c0-1.4-1.1-2.5-2.5-2.5h-7c0,0-0.1,0-0.1,0c0,0-0.1,0-0.1,0h-7c-1.4,0-2.5,1.1-2.5,2.5v4.8h-4.8c-1.4,0-2.5,1.1-2.5,2.5
		v4.8h-4.8c0,0-0.1,0-0.1,0c0,0-0.1,0-0.1,0h-7c-1.4,0-2.5,1.1-2.5,2.5v4.8h-4.8c0,0-0.1,0-0.1,0c0,0-0.1,0-0.1,0h-7
		c0,0-0.1,0-0.1,0c0,0-0.1,0-0.1,0h-7c0,0-0.1,0-0.1,0c0,0-0.1,0-0.1,0h-7c0,0-0.1,0-0.1,0c0,0-0.1,0-0.1,0h-7c0,0-0.1,0-0.1,0
		c0,0-0.1,0-0.1,0h-7c-1.4,0-2.5,1.1-2.5,2.5v4.8H196c0,0-0.1,0-0.1,0c0,0-0.1,0-0.1,0h-7c0,0-0.1,0-0.1,0c0,0-0.1,0-0.1,0h-7
		c0,0-0.1,0-0.1,0c0,0-0.1,0-0.1,0h-7c0,0-0.1,0-0.1,0c0,0-0.1,0-0.1,0h-7c0,0-0.1,0-0.1,0c0,0-0.1,0-0.1,0h-7c0,0-0.1,0-0.1,0
		c0,0-0.1,0-0.1,0h-7c-1.4,0-2.5,1.1-2.5,2.5v7c0,1.4,1.1,2.5,2.5,2.5h4.8v4.8c0,1.4,1.1,2.5,2.5,2.5h4.8v4.8c0,1.4,1.1,2.5,2.5,2.5
		h4.8v4.8c0,1.4,1.1,2.5,2.5,2.5h4.8v4.8c0,1.4,1.1,2.5,2.5,2.5h4.8v4.8c0,1.4,1.1,2.5,2.5,2.5h4.8v4.8c0,1.4,1.1,2.5,2.5,2.5h4.8
		v4.8c0,1.4,1.1,2.5,2.5,2.5h4.8v4.8c0,1.4,1.1,2.5,2.5,2.5h4.8v4.8c0,1.4,1.1,2.5,2.5,2.5h4.8v4.8c0,1.4,1.1,2.5,2.5,2.5h4.8v4.8
		c0,1.4,1.1,2.5,2.5,2.5h4.8v4.8c0,1.4,1.1,2.5,2.5,2.5h4.8v4.8c0,1.4,1.1,2.5,2.5,2.5h4.8v4.8c0,1.4,1.1,2.5,2.5,2.5h4.8v4.8
		c0,0,0,0.1,0,0.1c0,0,0,0.1,0,0.1v7c0,1.4,1.1,2.5,2.5,2.5h4.8v4.8c0,1.4,1.1,2.5,2.5,2.5h4.8v4.8c0,1.4,1.1,2.5,2.5,2.5h4.8v4.8
		c0,1.4,1.1,2.5,2.5,2.5h4.8v4.8c0,1.4,1.1,2.5,2.5,2.5h4.8v4.8c0,1.4,1.1,2.5,2.5,2.5h4.8v4.8c0,1.4,1.1,2.5,2.5,2.5h4.8v4.8
		c0,1.4,1.1,2.5,2.5,2.5h4.8v4.8c0,1.4,1.1,2.5,2.5,2.5h4.8v4.8c0,1.4,1.1,2.5,2.5,2.5h4.8v4.8c0,1.4,1.1,2.5,2.5,2.5h4.8v4.8
		c0,1.4,1.1,2.5,2.5,2.5h4.8v4.8c0,1.4,1.1,2.5,2.5,2.5h4.8v4.8c0,1.4,1.1,2.5,2.5,2.5h4.8v4.8c0,1.4,1.1,2.5,2.5,2.5h4.8v4.8
		c0,1.4,1.1,2.5,2.5,2.5h4.8v4.8c0,1.4,1.1,2.5,2.5,2.5h4.8v4.8c0,1.4,1.1,2.5,2.5,2.5h4.8v4.8c0,1.4,1.1,2.5,2.5,2.5h4.8v4.8
		c0,1.4,1.1,2.5,2.5,2.5h4.8v4.8c0,1.4,1.1,2.5,2.5,2.5h4.8v4.8c0,1.4,1.1,2.5,2.5,2.5h4.8v2.5h-4.8c-1.4,0-2.5,1.1-2.5,2.5v7
		c0,0,0,0.1,0,0.1c0,0,0,0.1,0,0.1v7c0,0,0,0.1,0,0.1c0,0,0,0.1,0,0.1v7c0,1.4,1.1,2.5,2.5,2.5h4.8v2.5h-4.8c-1.4,0-2.5,1.1-2.5,2.5
		v7c0,0,0,0.1,0,0.1c0,0,0,0.1,0,0.1v4.8h-4.8c-1.4,0-2.5,1.1-2.5,2.5v4.8h-4.8c-1.4,0-2.5,1.1-2.5,2.5v4.8H392
		c-1.4,0-2.5,1.1-2.5,2.5v7c0,0,0,0.1,0,0.1c0,0,0,0.1,0,0.1v4.8h-4.8c-1.4,0-2.5,1.1-2.5,2.5v7c0,0,0,0.1,0,0.1c0,0,0,0.1,0,0.1v7
		c0,0,0,0.1,0,0.1c0,0,0,0.1,0,0.1v4.8h-4.8c0,0-0.1,0-0.1,0c0,0-0.1,0-0.1,0h-4.8V530c0-1.4-1.1-2.5-2.5-2.5h-7c0,0-0.1,0-0.1,0
		c0,0-0.1,0-0.1,0H358v-4.8c0-1.4-1.1-2.5-2.5-2.5h-7c-1.4,0-2.5,1.1-2.5,2.5v7c0,0,0,0.1,0,0.1c0,0,0,0.1,0,0.1v4.8h-4.8
		c-1.4,0-2.5,1.1-2.5,2.5v4.8H334c-1.4,0-2.5,1.1-2.5,2.5v4.8h-4.8c-1.4,0-2.5,1.1-2.5,2.5v7c0,0,0,0.1,0,0.1c0,0,0,0.1,0,0.1v4.8
		h-4.8c-1.4,0-2.5,1.1-2.5,2.5v4.8h-4.8c-1.4,0-2.5,1.1-2.5,2.5v4.8h-4.8c-1.4,0-2.5,1.1-2.5,2.5v7c0,0,0,0.1,0,0.1c0,0,0,0.1,0,0.1
		v4.8h-4.8c-1.4,0-2.5,1.1-2.5,2.5v4.8h-4.8c-1.4,0-2.5,1.1-2.5,2.5v4.8h-4.8c-1.4,0-2.5,1.1-2.5,2.5v7c0,0,0,0.1,0,0.1
		c0,0,0,0.1,0,0.1v4.8h-4.8c-1.4,0-2.5,1.1-2.5,2.5v4.8h-4.8c-1.4,0-2.5,1.1-2.5,2.5v7c0,0,0,0.1,0,0.1c0,0,0,0.1,0,0.1v4.8h-4.8
		c-1.4,0-2.5,1.1-2.5,2.5v7c0,0,0,0.1,0,0.1c0,0,0,0.1,0,0.1v7c0,1.4,1.1,2.5,2.5,2.5h4.8v4.8c0,0,0,0.1,0,0.1c0,0,0,0.1,0,0.1v7
		c0,1.4,1.1,2.5,2.5,2.5h4.8v4.8c0,0,0,0.1,0,0.1c0,0,0,0.1,0,0.1v7c0,1.4,1.1,2.5,2.5,2.5h4.8v4.8c0,0,0,0.1,0,0.1c0,0,0,0.1,0,0.1
		v7c0,0,0,0.1,0,0.1c0,0,0,0.1,0,0.1v7c0,1.4,1.1,2.5,2.5,2.5h4.8v4.8c0,0,0,0.1,0,0.1c0,0,0,0.1,0,0.1v7c0,0,0,0.1,0,0.1
		c0,0,0,0.1,0,0.1v7c0,0,0,0.1,0,0.1c0,0,0,0.1,0,0.1v4.8h-4.8c-1.4,0-2.5,1.1-2.5,2.5v4.8h-4.8c-1.4,0-2.5,1.1-2.5,2.5v7
		c0,0,0,0.1,0,0.1c0,0,0,0.1,0,0.1v7c0,0,0,0.1,0,0.1c0,0,0,0.1,0,0.1v4.8h-4.8c-1.4,0-2.5,1.1-2.5,2.5v7c0,0,0,0.1,0,0.1
		c0,0,0,0.1,0,0.1v7c0,1.4,1.1,2.5,2.5,2.5h4.8v4.8c0,1.4,1.1,2.5,2.5,2.5h7c0,0,0.1,0,0.1,0c0,0,0.1,0,0.1,0h7c0,0,0.1,0,0.1,0
		c0,0,0.1,0,0.1,0h4.8v4.8c0,1.4,1.1,2.5,2.5,2.5h4.8v4.8c0,1.4,1.1,2.5,2.5,2.5h7c0,0,0.1,0,0.1,0c0,0,0.1,0,0.1,0h4.8v4.8
		c0,0,0,0.1,0,0.1c0,0,0,0.1,0,0.1v7c0,1.4,1.1,2.5,2.5,2.5h4.8v4.8c0,1.4,1.1,2.5,2.5,2.5h7c0,0,0.1,0,0.1,0c0,0,0.1,0,0.1,0h4.8
		v4.8c0,1.4,1.1,2.5,2.5,2.5h4.8v4.8c0,0,0,0.1,0,0.1c0,0,0,0.1,0,0.1v7c0,1.4,1.1,2.5,2.5,2.5h4.8v4.8c0,1.4,1.1,2.5,2.5,2.5h4.8
		v4.8c0,1.4,1.1,2.5,2.5,2.5h7c1.4,0,2.5-1.1,2.5-2.5v-4.8h4.8c1.4,0,2.5-1.1,2.5-2.5v-7c0,0,0-0.1,0-0.1c0,0,0-0.1,0-0.1v-7
		c0,0,0-0.1,0-0.1c0,0,0-0.1,0-0.1v-7c0,0,0-0.1,0-0.1c0,0,0-0.1,0-0.1v-7c0,0,0-0.1,0-0.1c0,0,0-0.1,0-0.1v-7c0,0,0-0.1,0-0.1
		c0,0,0-0.1,0-0.1v-4.8h4.8c1.4,0,2.5-1.1,2.5-2.5v-7c0,0,0-0.1,0-0.1c0,0,0-0.1,0-0.1v-7c0,0,0-0.1,0-0.1c0,0,0-0.1,0-0.1v-7
		c0,0,0-0.1,0-0.1c0,0,0-0.1,0-0.1v-7c0,0,0-0.1,0-0.1c0,0,0-0.1,0-0.1v-7c0,0,0-0.1,0-0.1c0,0,0-0.1,0-0.1v-7c0,0,0-0.1,0-0.1
		c0,0,0-0.1,0-0.1v-7c0,0,0-0.1,0-0.1c0,0,0-0.1,0-0.1v-4.8h4.8c1.4,0,2.5-1.1,2.5-2.5v-7c0,0,0-0.1,0-0.1c0,0,0-0.1,0-0.1v-7
		c0,0,0-0.1,0-0.1c0,0,0-0.1,0-0.1v-7c0,0,0-0.1,0-0.1c0,0,0-0.1,0-0.1v-7c0,0,0-0.1,0-0.1c0,0,0-0.1,0-0.1V721h4.8
		c1.4,0,2.5-1.1,2.5-2.5v-7c0,0,0-0.1,0-0.1c0,0,0-0.1,0-0.1v-7c0,0,0-0.1,0-0.1c0,0,0-0.1,0-0.1v-7c0,0,0-0.1,0-0.1
		c0,0,0-0.1,0-0.1v-4.8h4.8c1.4,0,2.5-1.1,2.5-2.5v-7c0,0,0-0.1,0-0.1c0,0,0-0.1,0-0.1v-7c0,0,0-0.1,0-0.1c0,0,0-0.1,0-0.1v-7
		c0,0,0-0.1,0-0.1c0,0,0-0.1,0-0.1v-7c0,0,0-0.1,0-0.1c0,0,0-0.1,0-0.1v-4.8h4.8c1.4,0,2.5-1.1,2.5-2.5v-7c0,0,0-0.1,0-0.1
		c0,0,0-0.1,0-0.1v-7c0,0,0-0.1,0-0.1c0,0,0-0.1,0-0.1v-7c0,0,0-0.1,0-0.1c0,0,0-0.1,0-0.1v-7c0,0,0-0.1,0-0.1c0,0,0-0.1,0-0.1v-7
		c0,0,0-0.1,0-0.1c0,0,0-0.1,0-0.1v-7c0,0,0-0.1,0-0.1c0,0,0-0.1,0-0.1v-7c0,0,0-0.1,0-0.1c0,0,0-0.1,0-0.1v-4.8h4.8
		c1.4,0,2.5-1.1,2.5-2.5v-7c0,0,0-0.1,0-0.1c0,0,0-0.1,0-0.1v-7c0,0,0-0.1,0-0.1c0,0,0-0.1,0-0.1v-7c0,0,0-0.1,0-0.1
		c0,0,0-0.1,0-0.1v-7c0,0,0-0.1,0-0.1c0,0,0-0.1,0-0.1v-4.8h4.8c1.4,0,2.5-1.1,2.5-2.5v-7c0,0,0-0.1,0-0.1c0,0,0-0.1,0-0.1v-7
		c0,0,0-0.1,0-0.1c0,0,0-0.1,0-0.1v-7c0,0,0-0.1,0-0.1c0,0,0-0.1,0-0.1v-4.8h4.8c1.4,0,2.5-1.1,2.5-2.5v-7c0,0,0-0.1,0-0.1
		c0,0,0-0.1,0-0.1v-7c0,0,0-0.1,0-0.1c0,0,0-0.1,0-0.1v-4.8h4.8c1.4,0,2.5-1.1,2.5-2.5v-7c0,0,0-0.1,0-0.1c0,0,0-0.1,0-0.1v-7
		c0,0,0-0.1,0-0.1c0,0,0-0.1,0-0.1v-7c0,0,0-0.1,0-0.1c0,0,0-0.1,0-0.1v-4.8h4.8c0,0,0.1,0,0.1,0c0,0,0.1,0,0.1,0h7
		c1.4,0,2.5-1.1,2.5-2.5v-4.8h4.8c1.4,0,2.5-1.1,2.5-2.5v-4.8h4.8c0,0,0.1,0,0.1,0c0,0,0.1,0,0.1,0h4.8v4.8c0,1.4,1.1,2.5,2.5,2.5h7
		c0,0,0.1,0,0.1,0c0,0,0.1,0,0.1,0h4.8v4.8c0,1.4,1.1,2.5,2.5,2.5h7c0,0,0.1,0,0.1,0c0,0,0.1,0,0.1,0h7c0,0,0.1,0,0.1,0
		c0,0,0.1,0,0.1,0h7c0,0,0.1,0,0.1,0c0,0,0.1,0,0.1,0h7c0,0,0.1,0,0.1,0c0,0,0.1,0,0.1,0h7c0,0,0.1,0,0.1,0c0,0,0.1,0,0.1,0h7
		c0,0,0.1,0,0.1,0c0,0,0.1,0,0.1,0h4.8v4.8c0,0,0,0.1,0,0.1c0,0,0,0.1,0,0.1v7c0,0,0,0.1,0,0.1c0,0,0,0.1,0,0.1v7c0,0,0,0.1,0,0.1
		c0,0,0,0.1,0,0.1v7c0,1.4,1.1,2.5,2.5,2.5h4.8v4.8c0,1.4,1.1,2.5,2.5,2.5h7c0,0,0.1,0,0.1,0c0,0,0.1,0,0.1,0h7c0,0,0.1,0,0.1,0
		c0,0,0.1,0,0.1,0h4.8v4.8c0,1.4,1.1,2.5,2.5,2.5h7c0,0,0.1,0,0.1,0c0,0,0.1,0,0.1,0h7c0,0,0.1,0,0.1,0c0,0,0.1,0,0.1,0h7
		c0,0,0.1,0,0.1,0c0,0,0.1,0,0.1,0h4.8v4.8c0,1.4,1.1,2.5,2.5,2.5h7c0,0,0.1,0,0.1,0c0,0,0.1,0,0.1,0h7c0,0,0.1,0,0.1,0
		c0,0,0.1,0,0.1,0h7c0,0,0.1,0,0.1,0c0,0,0.1,0,0.1,0h4.8v4.8c0,1.4,1.1,2.5,2.5,2.5h7c0,0,0.1,0,0.1,0c0,0,0.1,0,0.1,0h7
		c0,0,0.1,0,0.1,0c0,0,0.1,0,0.1,0h7c0,0,0.1,0,0.1,0c0,0,0.1,0,0.1,0h4.8v4.8c0,1.4,1.1,2.5,2.5,2.5h7c0,0,0.1,0,0.1,0
		c0,0,0.1,0,0.1,0h7c0,0,0.1,0,0.1,0c0,0,0.1,0,0.1,0h7c0,0,0.1,0,0.1,0c0,0,0.1,0,0.1,0h7c0,0,0.1,0,0.1,0c0,0,0.1,0,0.1,0h7
		c0,0,0.1,0,0.1,0c0,0,0.1,0,0.1,0h7c1.4,0,2.5-1.1,2.5-2.5v-7c0,0,0-0.1,0-0.1c0,0,0-0.1,0-0.1v-4.8h4.8c1.4,0,2.5-1.1,2.5-2.5V525
		h4.8c1.4,0,2.5-1.1,2.5-2.5v-4.8h4.8c0,0,0.1,0,0.1,0c0,0,0.1,0,0.1,0h7c1.4,0,2.5-1.1,2.5-2.5v-4.8h4.8c1.4,0,2.5-1.1,2.5-2.5
		v-4.8h4.8c1.4,0,2.5-1.1,2.5-2.5v-4.8h4.8c0,0,0.1,0,0.1,0c0,0,0.1,0,0.1,0h7c1.4,0,2.5-1.1,2.5-2.5v-4.8h4.8c0,0,0.1,0,0.1,0
		c0,0,0.1,0,0.1,0h7c0,0,0.1,0,0.1,0c0,0,0.1,0,0.1,0h7c0,0,0.1,0,0.1,0c0,0,0.1,0,0.1,0h4.8v4.8c0,1.4,1.1,2.5,2.5,2.5h7
		c0,0,0.1,0,0.1,0c0,0,0.1,0,0.1,0h7c0,0,0.1,0,0.1,0c0,0,0.1,0,0.1,0h7c0,0,0.1,0,0.1,0c0,0,0.1,0,0.1,0h7c1.4,0,2.5-1.1,2.5-2.5
		v-7c0,0,0-0.1,0-0.1c0,0,0-0.1,0-0.1v-7c0,0,0-0.1,0-0.1c0,0,0-0.1,0-0.1v-7c0-1.4-1.1-2.5-2.5-2.5h-4.8v-4.8c0,0,0-0.1,0-0.1
		c0,0,0-0.1,0-0.1v-7c0,0,0-0.1,0-0.1c0,0,0-0.1,0-0.1v-4.8h4.8c1.4,0,2.5-1.1,2.5-2.5v-7c0,0,0-0.1,0-0.1c0,0,0-0.1,0-0.1v-7
		c0,0,0-0.1,0-0.1c0,0,0-0.1,0-0.1v-4.8h4.8c1.4,0,2.5-1.1,2.5-2.5v-7c0,0,0-0.1,0-0.1c0,0,0-0.1,0-0.1v-4.8h4.8
		c1.4,0,2.5-1.1,2.5-2.5v-7c0,0,0-0.1,0-0.1c0,0,0-0.1,0-0.1v-4.8h4.8c1.4,0,2.5-1.1,2.5-2.5v-7c0,0,0-0.1,0-0.1c0,0,0-0.1,0-0.1
		V387h4.8c1.4,0,2.5-1.1,2.5-2.5v-7c0,0,0-0.1,0-0.1c0,0,0-0.1,0-0.1v-7c0,0,0-0.1,0-0.1c0,0,0-0.1,0-0.1V363z"/>
</g>
<g id="Слой_1" xmlns:ev="http://www.w3.org/2001/xml-events">
	<path class="st1" d="M268.6,130.7h7v7h-7V130.7z M275.9,130.7h7v7h-7V130.7z M261.4,137.9h7v7h-7V137.9z M268.6,137.9h7v7h-7V137.9
		z M275.9,137.9h7v7h-7V137.9z M283.1,137.9h7v7h-7V137.9z M246.8,145.2h7v7h-7V145.2z M254.1,145.2h7v7h-7V145.2z M275.9,145.2h7v7
		h-7V145.2z M283.1,145.2h7v7h-7V145.2z M203.3,152.5h7v7h-7V152.5z M210.5,152.5h7v7h-7V152.5z M217.8,152.5h7v7h-7V152.5z
		 M225.1,152.5h7v7h-7V152.5z M232.3,152.5h7v7h-7V152.5z M239.6,152.5h7v7h-7V152.5z M246.8,152.5h7v7h-7V152.5z M283.1,152.5h7v7
		h-7V152.5z M290.4,152.5h7v7h-7V152.5z M152.5,159.7h7v7h-7V159.7z M159.7,159.7h7v7h-7V159.7z M167,159.7h7v7h-7V159.7z
		 M174.2,159.7h7v7h-7V159.7z M181.5,159.7h7v7h-7V159.7z M188.8,159.7h7v7h-7V159.7z M196,159.7h7v7h-7V159.7z M203.3,159.7h7v7h-7
		V159.7z M210.5,159.7h7v7h-7V159.7z M217.8,159.7h7v7h-7V159.7z M225.1,159.7h7v7h-7V159.7z M232.3,159.7h7v7h-7V159.7z
		 M239.6,159.7h7v7h-7V159.7z M283.1,159.7h7v7h-7V159.7z M290.4,159.7h7v7h-7V159.7z M159.7,167h7v7h-7V167z M167,167h7v7h-7V167z
		 M174.2,167h7v7h-7V167z M181.5,167h7v7h-7V167z M188.8,167h7v7h-7V167z M196,167h7v7h-7V167z M203.3,167h7v7h-7V167z M239.6,167h7
		v7h-7V167z M246.8,167h7v7h-7V167z M290.4,167h7v7h-7V167z M297.7,167h7v7h-7V167z M167,174.2h7v7h-7V174.2z M174.2,174.2h7v7h-7
		V174.2z M246.8,174.2h7v7h-7V174.2z M297.7,174.2h7v7h-7V174.2z M304.9,174.2h7v7h-7V174.2z M174.2,181.5h7v7h-7V181.5z
		 M181.5,181.5h7v7h-7V181.5z M246.8,181.5h7v7h-7V181.5z M254.1,181.5h7v7h-7V181.5z M297.7,181.5h7v7h-7V181.5z M304.9,181.5h7v7
		h-7V181.5z M312.2,181.5h7v7h-7V181.5z M181.5,188.8h7v7h-7V188.8z M188.8,188.8h7v7h-7V188.8z M196,188.8h7v7h-7V188.8z
		 M254.1,188.8h7v7h-7V188.8z M290.4,188.8h7v7h-7V188.8z M297.7,188.8h7v7h-7V188.8z M304.9,188.8h7v7h-7V188.8z M312.2,188.8h7v7
		h-7V188.8z M319.4,188.8h7v7h-7V188.8z M326.7,188.8h7v7h-7V188.8z M334,188.8h7v7h-7V188.8z M188.8,196h7v7h-7V196z M196,196h7v7
		h-7V196z M203.3,196h7v7h-7V196z M261.4,196h7v7h-7V196z M275.9,196h7v7h-7V196z M283.1,196h7v7h-7V196z M312.2,196h7v7h-7V196z
		 M341.2,196h7v7h-7V196z M348.5,196h7v7h-7V196z M355.7,196h7v7h-7V196z M363,196h7v7h-7V196z M370.3,196h7v7h-7V196z M377.5,196h7
		v7h-7V196z M196,203.3h7v7h-7V203.3z M203.3,203.3h7v7h-7V203.3z M210.5,203.3h7v7h-7V203.3z M232.3,203.3h7v7h-7V203.3z
		 M239.6,203.3h7v7h-7V203.3z M246.8,203.3h7v7h-7V203.3z M254.1,203.3h7v7h-7V203.3z M261.4,203.3h7v7h-7V203.3z M268.6,203.3h7v7
		h-7V203.3z M312.2,203.3h7v7h-7V203.3z M319.4,203.3h7v7h-7V203.3z M355.7,203.3h7v7h-7V203.3z M377.5,203.3h7v7h-7V203.3z
		 M384.8,203.3h7v7h-7V203.3z M203.3,210.5h7v7h-7V210.5z M210.5,210.5h7v7h-7V210.5z M217.8,210.5h7v7h-7V210.5z M225.1,210.5h7v7
		h-7V210.5z M232.3,210.5h7v7h-7V210.5z M239.6,210.5h7v7h-7V210.5z M268.6,210.5h7v7h-7V210.5z M275.9,210.5h7v7h-7V210.5z
		 M319.4,210.5h7v7h-7V210.5z M363,210.5h7v7h-7V210.5z M384.8,210.5h7v7h-7V210.5z M210.5,217.8h7v7h-7V217.8z M217.8,217.8h7v7h-7
		V217.8z M225.1,217.8h7v7h-7V217.8z M268.6,217.8h7v7h-7V217.8z M275.9,217.8h7v7h-7V217.8z M319.4,217.8h7v7h-7V217.8z
		 M326.7,217.8h7v7h-7V217.8z M363,217.8h7v7h-7V217.8z M384.8,217.8h7v7h-7V217.8z M392,217.8h7v7h-7V217.8z M217.8,225.1h7v7h-7
		V225.1z M225.1,225.1h7v7h-7V225.1z M232.3,225.1h7v7h-7V225.1z M275.9,225.1h7v7h-7V225.1z M283.1,225.1h7v7h-7V225.1z
		 M326.7,225.1h7v7h-7V225.1z M334,225.1h7v7h-7V225.1z M363,225.1h7v7h-7V225.1z M370.3,225.1h7v7h-7V225.1z M392,225.1h7v7h-7
		V225.1z M225.1,232.3h7v7h-7V232.3z M232.3,232.3h7v7h-7V232.3z M239.6,232.3h7v7h-7V232.3z M283.1,232.3h7v7h-7V232.3z
		 M326.7,232.3h7v7h-7V232.3z M334,232.3h7v7h-7V232.3z M370.3,232.3h7v7h-7V232.3z M392,232.3h7v7h-7V232.3z M399.3,232.3h7v7h-7
		V232.3z M232.3,239.6h7v7h-7V239.6z M239.6,239.6h7v7h-7V239.6z M246.8,239.6h7v7h-7V239.6z M283.1,239.6h7v7h-7V239.6z
		 M290.4,239.6h7v7h-7V239.6z M319.4,239.6h7v7h-7V239.6z M326.7,239.6h7v7h-7V239.6z M334,239.6h7v7h-7V239.6z M341.2,239.6h7v7h-7
		V239.6z M370.3,239.6h7v7h-7V239.6z M377.5,239.6h7v7h-7V239.6z M392,239.6h7v7h-7V239.6z M399.3,239.6h7v7h-7V239.6z M239.6,246.8
		h7v7h-7V246.8z M246.8,246.8h7v7h-7V246.8z M254.1,246.8h7v7h-7V246.8z M290.4,246.8h7v7h-7V246.8z M297.7,246.8h7v7h-7V246.8z
		 M312.2,246.8h7v7h-7V246.8z M319.4,246.8h7v7h-7V246.8z M334,246.8h7v7h-7V246.8z M341.2,246.8h7v7h-7V246.8z M377.5,246.8h7v7h-7
		V246.8z M399.3,246.8h7v7h-7V246.8z M246.8,254.1h7v7h-7V254.1z M254.1,254.1h7v7h-7V254.1z M261.4,254.1h7v7h-7V254.1z
		 M275.9,254.1h7v7h-7V254.1z M283.1,254.1h7v7h-7V254.1z M290.4,254.1h7v7h-7V254.1z M297.7,254.1h7v7h-7V254.1z M304.9,254.1h7v7
		h-7V254.1z M341.2,254.1h7v7h-7V254.1z M348.5,254.1h7v7h-7V254.1z M377.5,254.1h7v7h-7V254.1z M399.3,254.1h7v7h-7V254.1z
		 M254.1,261.4h7v7h-7V261.4z M261.4,261.4h7v7h-7V261.4z M268.6,261.4h7v7h-7V261.4z M275.9,261.4h7v7h-7V261.4z M283.1,261.4h7v7
		h-7V261.4z M297.7,261.4h7v7h-7V261.4z M304.9,261.4h7v7h-7V261.4z M348.5,261.4h7v7h-7V261.4z M355.7,261.4h7v7h-7V261.4z
		 M377.5,261.4h7v7h-7V261.4z M384.8,261.4h7v7h-7V261.4z M399.3,261.4h7v7h-7V261.4z M406.6,261.4h7v7h-7V261.4z M261.4,268.6h7v7
		h-7V268.6z M268.6,268.6h7v7h-7V268.6z M304.9,268.6h7v7h-7V268.6z M312.2,268.6h7v7h-7V268.6z M348.5,268.6h7v7h-7V268.6z
		 M355.7,268.6h7v7h-7V268.6z M363,268.6h7v7h-7V268.6z M370.3,268.6h7v7h-7V268.6z M377.5,268.6h7v7h-7V268.6z M384.8,268.6h7v7h-7
		V268.6z M392,268.6h7v7h-7V268.6z M399.3,268.6h7v7h-7V268.6z M406.6,268.6h7v7h-7V268.6z M261.4,275.9h7v7h-7V275.9z M268.6,275.9
		h7v7h-7V275.9z M275.9,275.9h7v7h-7V275.9z M312.2,275.9h7v7h-7V275.9z M348.5,275.9h7v7h-7V275.9z M355.7,275.9h7v7h-7V275.9z
		 M363,275.9h7v7h-7V275.9z M384.8,275.9h7v7h-7V275.9z M406.6,275.9h7v7h-7V275.9z M268.6,283.1h7v7h-7V283.1z M275.9,283.1h7v7h-7
		V283.1z M283.1,283.1h7v7h-7V283.1z M312.2,283.1h7v7h-7V283.1z M319.4,283.1h7v7h-7V283.1z M355.7,283.1h7v7h-7V283.1z M363,283.1
		h7v7h-7V283.1z M384.8,283.1h7v7h-7V283.1z M406.6,283.1h7v7h-7V283.1z M413.8,283.1h7v7h-7V283.1z M275.9,290.4h7v7h-7V290.4z
		 M283.1,290.4h7v7h-7V290.4z M290.4,290.4h7v7h-7V290.4z M319.4,290.4h7v7h-7V290.4z M363,290.4h7v7h-7V290.4z M370.3,290.4h7v7h-7
		V290.4z M392,290.4h7v7h-7V290.4z M406.6,290.4h7v7h-7V290.4z M413.8,290.4h7v7h-7V290.4z M283.1,297.7h7v7h-7V297.7z M290.4,297.7
		h7v7h-7V297.7z M297.7,297.7h7v7h-7V297.7z M319.4,297.7h7v7h-7V297.7z M326.7,297.7h7v7h-7V297.7z M363,297.7h7v7h-7V297.7z
		 M370.3,297.7h7v7h-7V297.7z M392,297.7h7v7h-7V297.7z M413.8,297.7h7v7h-7V297.7z M290.4,304.9h7v7h-7V304.9z M297.7,304.9h7v7h-7
		V304.9z M304.9,304.9h7v7h-7V304.9z M326.7,304.9h7v7h-7V304.9z M370.3,304.9h7v7h-7V304.9z M377.5,304.9h7v7h-7V304.9z M392,304.9
		h7v7h-7V304.9z M413.8,304.9h7v7h-7V304.9z M421.1,304.9h7v7h-7V304.9z M297.7,312.2h7v7h-7V312.2z M304.9,312.2h7v7h-7V312.2z
		 M312.2,312.2h7v7h-7V312.2z M334,312.2h7v7h-7V312.2z M363,312.2h7v7h-7V312.2z M370.3,312.2h7v7h-7V312.2z M377.5,312.2h7v7h-7
		V312.2z M399.3,312.2h7v7h-7V312.2z M413.8,312.2h7v7h-7V312.2z M421.1,312.2h7v7h-7V312.2z M304.9,319.4h7v7h-7V319.4z
		 M312.2,319.4h7v7h-7V319.4z M319.4,319.4h7v7h-7V319.4z M334,319.4h7v7h-7V319.4z M341.2,319.4h7v7h-7V319.4z M348.5,319.4h7v7h-7
		V319.4z M355.7,319.4h7v7h-7V319.4z M363,319.4h7v7h-7V319.4z M370.3,319.4h7v7h-7V319.4z M377.5,319.4h7v7h-7V319.4z M384.8,319.4
		h7v7h-7V319.4z M399.3,319.4h7v7h-7V319.4z M413.8,319.4h7v7h-7V319.4z M421.1,319.4h7v7h-7V319.4z M312.2,326.7h7v7h-7V326.7z
		 M319.4,326.7h7v7h-7V326.7z M326.7,326.7h7v7h-7V326.7z M334,326.7h7v7h-7V326.7z M341.2,326.7h7v7h-7V326.7z M348.5,326.7h7v7h-7
		V326.7z M384.8,326.7h7v7h-7V326.7z M399.3,326.7h7v7h-7V326.7z M421.1,326.7h7v7h-7V326.7z M428.3,326.7h7v7h-7V326.7z M319.4,334
		h7v7h-7V334z M326.7,334h7v7h-7V334z M334,334h7v7h-7V334z M341.2,334h7v7h-7V334z M384.8,334h7v7h-7V334z M392,334h7v7h-7V334z
		 M406.6,334h7v7h-7V334z M421.1,334h7v7h-7V334z M428.3,334h7v7h-7V334z M326.7,341.2h7v7h-7V341.2z M334,341.2h7v7h-7V341.2z
		 M341.2,341.2h7v7h-7V341.2z M392,341.2h7v7h-7V341.2z M399.3,341.2h7v7h-7V341.2z M406.6,341.2h7v7h-7V341.2z M413.8,341.2h7v7h-7
		V341.2z M421.1,341.2h7v7h-7V341.2z M428.3,341.2h7v7h-7V341.2z M334,348.5h7v7h-7V348.5z M341.2,348.5h7v7h-7V348.5z M348.5,348.5
		h7v7h-7V348.5z M392,348.5h7v7h-7V348.5z M399.3,348.5h7v7h-7V348.5z M406.6,348.5h7v7h-7V348.5z M413.8,348.5h7v7h-7V348.5z
		 M421.1,348.5h7v7h-7V348.5z M341.2,355.7h7v7h-7V355.7z M348.5,355.7h7v7h-7V355.7z M355.7,355.7h7v7h-7V355.7z M399.3,355.7h7v7
		h-7V355.7z M406.6,355.7h7v7h-7V355.7z M348.5,363h7v7h-7V363z M355.7,363h7v7h-7V363z M363,363h7v7h-7V363z M399.3,363h7v7h-7V363
		z M406.6,363h7v7h-7V363z M834.9,363h7v7h-7V363z M842.2,363h7v7h-7V363z M355.7,370.3h7v7h-7V370.3z M363,370.3h7v7h-7V370.3z
		 M370.3,370.3h7v7h-7V370.3z M406.6,370.3h7v7h-7V370.3z M413.8,370.3h7v7h-7V370.3z M798.6,370.3h7v7h-7V370.3z M805.9,370.3h7v7
		h-7V370.3z M813.1,370.3h7v7h-7V370.3z M820.4,370.3h7v7h-7V370.3z M827.6,370.3h7v7h-7V370.3z M834.9,370.3h7v7h-7V370.3z
		 M842.2,370.3h7v7h-7V370.3z M363,377.5h7v7h-7V377.5z M370.3,377.5h7v7h-7V377.5z M377.5,377.5h7v7h-7V377.5z M406.6,377.5h7v7h-7
		V377.5z M413.8,377.5h7v7h-7V377.5z M769.6,377.5h7v7h-7V377.5z M776.8,377.5h7v7h-7V377.5z M784.1,377.5h7v7h-7V377.5z
		 M791.3,377.5h7v7h-7V377.5z M798.6,377.5h7v7h-7V377.5z M805.9,377.5h7v7h-7V377.5z M813.1,377.5h7v7h-7V377.5z M820.4,377.5h7v7
		h-7V377.5z M827.6,377.5h7v7h-7V377.5z M834.9,377.5h7v7h-7V377.5z M842.2,377.5h7v7h-7V377.5z M370.3,384.8h7v7h-7V384.8z
		 M377.5,384.8h7v7h-7V384.8z M384.8,384.8h7v7h-7V384.8z M406.6,384.8h7v7h-7V384.8z M413.8,384.8h7v7h-7V384.8z M421.1,384.8h7v7
		h-7V384.8z M747.8,384.8h7v7h-7V384.8z M755,384.8h7v7h-7V384.8z M762.3,384.8h7v7h-7V384.8z M769.6,384.8h7v7h-7V384.8z
		 M776.8,384.8h7v7h-7V384.8z M784.1,384.8h7v7h-7V384.8z M791.3,384.8h7v7h-7V384.8z M798.6,384.8h7v7h-7V384.8z M827.6,384.8h7v7
		h-7V384.8z M834.9,384.8h7v7h-7V384.8z M377.5,392h7v7h-7V392z M384.8,392h7v7h-7V392z M392,392h7v7h-7V392z M413.8,392h7v7h-7V392
		z M421.1,392h7v7h-7V392z M711.5,392h7v7h-7V392z M718.7,392h7v7h-7V392z M726,392h7v7h-7V392z M733.3,392h7v7h-7V392z M740.5,392
		h7v7h-7V392z M747.8,392h7v7h-7V392z M755,392h7v7h-7V392z M762.3,392h7v7h-7V392z M769.6,392h7v7h-7V392z M776.8,392h7v7h-7V392z
		 M820.4,392h7v7h-7V392z M827.6,392h7v7h-7V392z M834.9,392h7v7h-7V392z M384.8,399.3h7v7h-7V399.3z M392,399.3h7v7h-7V399.3z
		 M399.3,399.3h7v7h-7V399.3z M413.8,399.3h7v7h-7V399.3z M421.1,399.3h7v7h-7V399.3z M675.2,399.3h7v7h-7V399.3z M682.4,399.3h7v7
		h-7V399.3z M689.7,399.3h7v7h-7V399.3z M697,399.3h7v7h-7V399.3z M704.2,399.3h7v7h-7V399.3z M711.5,399.3h7v7h-7V399.3z
		 M718.7,399.3h7v7h-7V399.3z M726,399.3h7v7h-7V399.3z M733.3,399.3h7v7h-7V399.3z M740.5,399.3h7v7h-7V399.3z M747.8,399.3h7v7h-7
		V399.3z M769.6,399.3h7v7h-7V399.3z M820.4,399.3h7v7h-7V399.3z M827.6,399.3h7v7h-7V399.3z M392,406.6h7v7h-7V406.6z M399.3,406.6
		h7v7h-7V406.6z M406.6,406.6h7v7h-7V406.6z M421.1,406.6h7v7h-7V406.6z M428.3,406.6h7v7h-7V406.6z M631.6,406.6h7v7h-7V406.6z
		 M638.9,406.6h7v7h-7V406.6z M646.1,406.6h7v7h-7V406.6z M653.4,406.6h7v7h-7V406.6z M660.7,406.6h7v7h-7V406.6z M667.9,406.6h7v7
		h-7V406.6z M675.2,406.6h7v7h-7V406.6z M682.4,406.6h7v7h-7V406.6z M689.7,406.6h7v7h-7V406.6z M697,406.6h7v7h-7V406.6z
		 M704.2,406.6h7v7h-7V406.6z M711.5,406.6h7v7h-7V406.6z M718.7,406.6h7v7h-7V406.6z M762.3,406.6h7v7h-7V406.6z M769.6,406.6h7v7
		h-7V406.6z M813.1,406.6h7v7h-7V406.6z M820.4,406.6h7v7h-7V406.6z M827.6,406.6h7v7h-7V406.6z M399.3,413.8h7v7h-7V413.8z
		 M406.6,413.8h7v7h-7V413.8z M413.8,413.8h7v7h-7V413.8z M421.1,413.8h7v7h-7V413.8z M428.3,413.8h7v7h-7V413.8z M609.8,413.8h7v7
		h-7V413.8z M617.1,413.8h7v7h-7V413.8z M624.4,413.8h7v7h-7V413.8z M631.6,413.8h7v7h-7V413.8z M638.9,413.8h7v7h-7V413.8z
		 M646.1,413.8h7v7h-7V413.8z M653.4,413.8h7v7h-7V413.8z M660.7,413.8h7v7h-7V413.8z M667.9,413.8h7v7h-7V413.8z M697,413.8h7v7h-7
		V413.8z M762.3,413.8h7v7h-7V413.8z M813.1,413.8h7v7h-7V413.8z M820.4,413.8h7v7h-7V413.8z M406.6,421.1h7v7h-7V421.1z
		 M413.8,421.1h7v7h-7V421.1z M421.1,421.1h7v7h-7V421.1z M428.3,421.1h7v7h-7V421.1z M580.8,421.1h7v7h-7V421.1z M588.1,421.1h7v7
		h-7V421.1z M595.3,421.1h7v7h-7V421.1z M602.6,421.1h7v7h-7V421.1z M609.8,421.1h7v7h-7V421.1z M617.1,421.1h7v7h-7V421.1z
		 M624.4,421.1h7v7h-7V421.1z M631.6,421.1h7v7h-7V421.1z M697,421.1h7v7h-7V421.1z M755,421.1h7v7h-7V421.1z M762.3,421.1h7v7h-7
		V421.1z M813.1,421.1h7v7h-7V421.1z M820.4,421.1h7v7h-7V421.1z M413.8,428.3h7v7h-7V428.3z M421.1,428.3h7v7h-7V428.3z
		 M428.3,428.3h7v7h-7V428.3z M435.6,428.3h7v7h-7V428.3z M442.9,428.3h7v7h-7V428.3z M544.5,428.3h7v7h-7V428.3z M551.8,428.3h7v7
		h-7V428.3z M559,428.3h7v7h-7V428.3z M566.3,428.3h7v7h-7V428.3z M573.5,428.3h7v7h-7V428.3z M580.8,428.3h7v7h-7V428.3z
		 M588.1,428.3h7v7h-7V428.3z M595.3,428.3h7v7h-7V428.3z M602.6,428.3h7v7h-7V428.3z M609.8,428.3h7v7h-7V428.3z M617.1,428.3h7v7
		h-7V428.3z M689.7,428.3h7v7h-7V428.3z M755,428.3h7v7h-7V428.3z M762.3,428.3h7v7h-7V428.3z M805.9,428.3h7v7h-7V428.3z
		 M813.1,428.3h7v7h-7V428.3z M421.1,435.6h7v7h-7V435.6z M428.3,435.6h7v7h-7V435.6z M435.6,435.6h7v7h-7V435.6z M442.9,435.6h7v7
		h-7V435.6z M450.1,435.6h7v7h-7V435.6z M500.9,435.6h7v7h-7V435.6z M508.2,435.6h7v7h-7V435.6z M515.5,435.6h7v7h-7V435.6z
		 M522.7,435.6h7v7h-7V435.6z M530,435.6h7v7h-7V435.6z M537.2,435.6h7v7h-7V435.6z M544.5,435.6h7v7h-7V435.6z M551.8,435.6h7v7h-7
		V435.6z M559,435.6h7v7h-7V435.6z M566.3,435.6h7v7h-7V435.6z M573.5,435.6h7v7h-7V435.6z M602.6,435.6h7v7h-7V435.6z M609.8,435.6
		h7v7h-7V435.6z M617.1,435.6h7v7h-7V435.6z M624.4,435.6h7v7h-7V435.6z M631.6,435.6h7v7h-7V435.6z M638.9,435.6h7v7h-7V435.6z
		 M646.1,435.6h7v7h-7V435.6z M653.4,435.6h7v7h-7V435.6z M660.7,435.6h7v7h-7V435.6z M667.9,435.6h7v7h-7V435.6z M675.2,435.6h7v7
		h-7V435.6z M682.4,435.6h7v7h-7V435.6z M689.7,435.6h7v7h-7V435.6z M697,435.6h7v7h-7V435.6z M704.2,435.6h7v7h-7V435.6z
		 M711.5,435.6h7v7h-7V435.6z M718.7,435.6h7v7h-7V435.6z M726,435.6h7v7h-7V435.6z M733.3,435.6h7v7h-7V435.6z M740.5,435.6h7v7h-7
		V435.6z M747.8,435.6h7v7h-7V435.6z M755,435.6h7v7h-7V435.6z M762.3,435.6h7v7h-7V435.6z M769.6,435.6h7v7h-7V435.6z M776.8,435.6
		h7v7h-7V435.6z M784.1,435.6h7v7h-7V435.6z M791.3,435.6h7v7h-7V435.6z M798.6,435.6h7v7h-7V435.6z M805.9,435.6h7v7h-7V435.6z
		 M813.1,435.6h7v7h-7V435.6z M413.8,442.9h7v7h-7V442.9z M421.1,442.9h7v7h-7V442.9z M450.1,442.9h7v7h-7V442.9z M457.4,442.9h7v7
		h-7V442.9z M464.6,442.9h7v7h-7V442.9z M471.9,442.9h7v7h-7V442.9z M479.2,442.9h7v7h-7V442.9z M486.4,442.9h7v7h-7V442.9z
		 M493.7,442.9h7v7h-7V442.9z M500.9,442.9h7v7h-7V442.9z M508.2,442.9h7v7h-7V442.9z M515.5,442.9h7v7h-7V442.9z M522.7,442.9h7v7
		h-7V442.9z M530,442.9h7v7h-7V442.9z M537.2,442.9h7v7h-7V442.9z M602.6,442.9h7v7h-7V442.9z M609.8,442.9h7v7h-7V442.9z
		 M617.1,442.9h7v7h-7V442.9z M624.4,442.9h7v7h-7V442.9z M631.6,442.9h7v7h-7V442.9z M638.9,442.9h7v7h-7V442.9z M646.1,442.9h7v7
		h-7V442.9z M653.4,442.9h7v7h-7V442.9z M660.7,442.9h7v7h-7V442.9z M667.9,442.9h7v7h-7V442.9z M689.7,442.9h7v7h-7V442.9z
		 M747.8,442.9h7v7h-7V442.9z M755,442.9h7v7h-7V442.9z M805.9,442.9h7v7h-7V442.9z M813.1,442.9h7v7h-7V442.9z M413.8,450.1h7v7h-7
		V450.1z M421.1,450.1h7v7h-7V450.1z M457.4,450.1h7v7h-7V450.1z M464.6,450.1h7v7h-7V450.1z M471.9,450.1h7v7h-7V450.1z
		 M479.2,450.1h7v7h-7V450.1z M486.4,450.1h7v7h-7V450.1z M493.7,450.1h7v7h-7V450.1z M500.9,450.1h7v7h-7V450.1z M508.2,450.1h7v7
		h-7V450.1z M602.6,450.1h7v7h-7V450.1z M609.8,450.1h7v7h-7V450.1z M689.7,450.1h7v7h-7V450.1z M747.8,450.1h7v7h-7V450.1z
		 M755,450.1h7v7h-7V450.1z M805.9,450.1h7v7h-7V450.1z M413.8,457.4h7v7h-7V457.4z M421.1,457.4h7v7h-7V457.4z M450.1,457.4h7v7h-7
		V457.4z M457.4,457.4h7v7h-7V457.4z M464.6,457.4h7v7h-7V457.4z M471.9,457.4h7v7h-7V457.4z M479.2,457.4h7v7h-7V457.4z
		 M486.4,457.4h7v7h-7V457.4z M493.7,457.4h7v7h-7V457.4z M500.9,457.4h7v7h-7V457.4z M508.2,457.4h7v7h-7V457.4z M602.6,457.4h7v7
		h-7V457.4z M689.7,457.4h7v7h-7V457.4z M747.8,457.4h7v7h-7V457.4z M755,457.4h7v7h-7V457.4z M805.9,457.4h7v7h-7V457.4z
		 M421.1,464.6h7v7h-7V464.6z M428.3,464.6h7v7h-7V464.6z M435.6,464.6h7v7h-7V464.6z M442.9,464.6h7v7h-7V464.6z M450.1,464.6h7v7
		h-7V464.6z M457.4,464.6h7v7h-7V464.6z M479.2,464.6h7v7h-7V464.6z M486.4,464.6h7v7h-7V464.6z M493.7,464.6h7v7h-7V464.6z
		 M500.9,464.6h7v7h-7V464.6z M508.2,464.6h7v7h-7V464.6z M515.5,464.6h7v7h-7V464.6z M522.7,464.6h7v7h-7V464.6z M530,464.6h7v7h-7
		V464.6z M537.2,464.6h7v7h-7V464.6z M544.5,464.6h7v7h-7V464.6z M602.6,464.6h7v7h-7V464.6z M689.7,464.6h7v7h-7V464.6z
		 M747.8,464.6h7v7h-7V464.6z M755,464.6h7v7h-7V464.6z M805.9,464.6h7v7h-7V464.6z M413.8,471.9h7v7h-7V471.9z M421.1,471.9h7v7h-7
		V471.9z M428.3,471.9h7v7h-7V471.9z M435.6,471.9h7v7h-7V471.9z M442.9,471.9h7v7h-7V471.9z M450.1,471.9h7v7h-7V471.9z
		 M493.7,471.9h7v7h-7V471.9z M500.9,471.9h7v7h-7V471.9z M508.2,471.9h7v7h-7V471.9z M515.5,471.9h7v7h-7V471.9z M522.7,471.9h7v7
		h-7V471.9z M530,471.9h7v7h-7V471.9z M537.2,471.9h7v7h-7V471.9z M544.5,471.9h7v7h-7V471.9z M551.8,471.9h7v7h-7V471.9z
		 M559,471.9h7v7h-7V471.9z M566.3,471.9h7v7h-7V471.9z M573.5,471.9h7v7h-7V471.9z M580.8,471.9h7v7h-7V471.9z M588.1,471.9h7v7h-7
		V471.9z M595.3,471.9h7v7h-7V471.9z M602.6,471.9h7v7h-7V471.9z M609.8,471.9h7v7h-7V471.9z M617.1,471.9h7v7h-7V471.9z
		 M624.4,471.9h7v7h-7V471.9z M631.6,471.9h7v7h-7V471.9z M638.9,471.9h7v7h-7V471.9z M646.1,471.9h7v7h-7V471.9z M653.4,471.9h7v7
		h-7V471.9z M660.7,471.9h7v7h-7V471.9z M689.7,471.9h7v7h-7V471.9z M747.8,471.9h7v7h-7V471.9z M755,471.9h7v7h-7V471.9z
		 M805.9,471.9h7v7h-7V471.9z M813.1,471.9h7v7h-7V471.9z M413.8,479.2h7v7h-7V479.2z M421.1,479.2h7v7h-7V479.2z M428.3,479.2h7v7
		h-7V479.2z M435.6,479.2h7v7h-7V479.2z M544.5,479.2h7v7h-7V479.2z M551.8,479.2h7v7h-7V479.2z M559,479.2h7v7h-7V479.2z
		 M566.3,479.2h7v7h-7V479.2z M580.8,479.2h7v7h-7V479.2z M588.1,479.2h7v7h-7V479.2z M595.3,479.2h7v7h-7V479.2z M602.6,479.2h7v7
		h-7V479.2z M609.8,479.2h7v7h-7V479.2z M617.1,479.2h7v7h-7V479.2z M624.4,479.2h7v7h-7V479.2z M631.6,479.2h7v7h-7V479.2z
		 M638.9,479.2h7v7h-7V479.2z M646.1,479.2h7v7h-7V479.2z M653.4,479.2h7v7h-7V479.2z M660.7,479.2h7v7h-7V479.2z M667.9,479.2h7v7
		h-7V479.2z M675.2,479.2h7v7h-7V479.2z M682.4,479.2h7v7h-7V479.2z M689.7,479.2h7v7h-7V479.2z M697,479.2h7v7h-7V479.2z
		 M704.2,479.2h7v7h-7V479.2z M711.5,479.2h7v7h-7V479.2z M718.7,479.2h7v7h-7V479.2z M726,479.2h7v7h-7V479.2z M733.3,479.2h7v7h-7
		V479.2z M740.5,479.2h7v7h-7V479.2z M747.8,479.2h7v7h-7V479.2z M755,479.2h7v7h-7V479.2z M762.3,479.2h7v7h-7V479.2z M769.6,479.2
		h7v7h-7V479.2z M776.8,479.2h7v7h-7V479.2z M784.1,479.2h7v7h-7V479.2z M791.3,479.2h7v7h-7V479.2z M805.9,479.2h7v7h-7V479.2z
		 M813.1,479.2h7v7h-7V479.2z M406.6,486.4h7v7h-7V486.4z M413.8,486.4h7v7h-7V486.4z M421.1,486.4h7v7h-7V486.4z M428.3,486.4h7v7
		h-7V486.4z M435.6,486.4h7v7h-7V486.4z M544.5,486.4h7v7h-7V486.4z M551.8,486.4h7v7h-7V486.4z M559,486.4h7v7h-7V486.4z
		 M566.3,486.4h7v7h-7V486.4z M573.5,486.4h7v7h-7V486.4z M580.8,486.4h7v7h-7V486.4z M638.9,486.4h7v7h-7V486.4z M646.1,486.4h7v7
		h-7V486.4z M733.3,486.4h7v7h-7V486.4z M740.5,486.4h7v7h-7V486.4z M747.8,486.4h7v7h-7V486.4z M755,486.4h7v7h-7V486.4z
		 M791.3,486.4h7v7h-7V486.4z M798.6,486.4h7v7h-7V486.4z M805.9,486.4h7v7h-7V486.4z M813.1,486.4h7v7h-7V486.4z M399.3,493.7h7v7
		h-7V493.7z M406.6,493.7h7v7h-7V493.7z M413.8,493.7h7v7h-7V493.7z M421.1,493.7h7v7h-7V493.7z M428.3,493.7h7v7h-7V493.7z
		 M435.6,493.7h7v7h-7V493.7z M544.5,493.7h7v7h-7V493.7z M551.8,493.7h7v7h-7V493.7z M588.1,493.7h7v7h-7V493.7z M595.3,493.7h7v7
		h-7V493.7z M602.6,493.7h7v7h-7V493.7z M609.8,493.7h7v7h-7V493.7z M638.9,493.7h7v7h-7V493.7z M733.3,493.7h7v7h-7V493.7z
		 M740.5,493.7h7v7h-7V493.7z M392,500.9h7v7h-7V500.9z M399.3,500.9h7v7h-7V500.9z M406.6,500.9h7v7h-7V500.9z M413.8,500.9h7v7h-7
		V500.9z M421.1,500.9h7v7h-7V500.9z M428.3,500.9h7v7h-7V500.9z M435.6,500.9h7v7h-7V500.9z M544.5,500.9h7v7h-7V500.9z
		 M551.8,500.9h7v7h-7V500.9z M559,500.9h7v7h-7V500.9z M566.3,500.9h7v7h-7V500.9z M617.1,500.9h7v7h-7V500.9z M624.4,500.9h7v7h-7
		V500.9z M631.6,500.9h7v7h-7V500.9z M638.9,500.9h7v7h-7V500.9z M726,500.9h7v7h-7V500.9z M733.3,500.9h7v7h-7V500.9z M392,508.2h7
		v7h-7V508.2z M399.3,508.2h7v7h-7V508.2z M406.6,508.2h7v7h-7V508.2z M421.1,508.2h7v7h-7V508.2z M428.3,508.2h7v7h-7V508.2z
		 M551.8,508.2h7v7h-7V508.2z M559,508.2h7v7h-7V508.2z M566.3,508.2h7v7h-7V508.2z M573.5,508.2h7v7h-7V508.2z M580.8,508.2h7v7h-7
		V508.2z M588.1,508.2h7v7h-7V508.2z M631.6,508.2h7v7h-7V508.2z M638.9,508.2h7v7h-7V508.2z M646.1,508.2h7v7h-7V508.2z
		 M653.4,508.2h7v7h-7V508.2z M660.7,508.2h7v7h-7V508.2z M667.9,508.2h7v7h-7V508.2z M675.2,508.2h7v7h-7V508.2z M682.4,508.2h7v7
		h-7V508.2z M689.7,508.2h7v7h-7V508.2z M711.5,508.2h7v7h-7V508.2z M718.7,508.2h7v7h-7V508.2z M726,508.2h7v7h-7V508.2z
		 M384.8,515.5h7v7h-7V515.5z M392,515.5h7v7h-7V515.5z M399.3,515.5h7v7h-7V515.5z M413.8,515.5h7v7h-7V515.5z M421.1,515.5h7v7h-7
		V515.5z M428.3,515.5h7v7h-7V515.5z M573.5,515.5h7v7h-7V515.5z M580.8,515.5h7v7h-7V515.5z M588.1,515.5h7v7h-7V515.5z
		 M595.3,515.5h7v7h-7V515.5z M602.6,515.5h7v7h-7V515.5z M609.8,515.5h7v7h-7V515.5z M631.6,515.5h7v7h-7V515.5z M675.2,515.5h7v7
		h-7V515.5z M682.4,515.5h7v7h-7V515.5z M689.7,515.5h7v7h-7V515.5z M697,515.5h7v7h-7V515.5z M704.2,515.5h7v7h-7V515.5z
		 M711.5,515.5h7v7h-7V515.5z M348.5,522.7h7v7h-7V522.7z M384.8,522.7h7v7h-7V522.7z M392,522.7h7v7h-7V522.7z M413.8,522.7h7v7h-7
		V522.7z M421.1,522.7h7v7h-7V522.7z M428.3,522.7h7v7h-7V522.7z M602.6,522.7h7v7h-7V522.7z M609.8,522.7h7v7h-7V522.7z
		 M617.1,522.7h7v7h-7V522.7z M624.4,522.7h7v7h-7V522.7z M631.6,522.7h7v7h-7V522.7z M638.9,522.7h7v7h-7V522.7z M704.2,522.7h7v7
		h-7V522.7z M348.5,530h7v7h-7V530z M355.7,530h7v7h-7V530z M363,530h7v7h-7V530z M384.8,530h7v7h-7V530z M392,530h7v7h-7V530z
		 M413.8,530h7v7h-7V530z M421.1,530h7v7h-7V530z M631.6,530h7v7h-7V530z M638.9,530h7v7h-7V530z M646.1,530h7v7h-7V530z M653.4,530
		h7v7h-7V530z M660.7,530h7v7h-7V530z M667.9,530h7v7h-7V530z M675.2,530h7v7h-7V530z M697,530h7v7h-7V530z M341.2,537.2h7v7h-7
		V537.2z M348.5,537.2h7v7h-7V537.2z M355.7,537.2h7v7h-7V537.2z M363,537.2h7v7h-7V537.2z M370.3,537.2h7v7h-7V537.2z M377.5,537.2
		h7v7h-7V537.2z M384.8,537.2h7v7h-7V537.2z M413.8,537.2h7v7h-7V537.2z M421.1,537.2h7v7h-7V537.2z M660.7,537.2h7v7h-7V537.2z
		 M667.9,537.2h7v7h-7V537.2z M675.2,537.2h7v7h-7V537.2z M682.4,537.2h7v7h-7V537.2z M689.7,537.2h7v7h-7V537.2z M697,537.2h7v7h-7
		V537.2z M334,544.5h7v7h-7V544.5z M341.2,544.5h7v7h-7V544.5z M363,544.5h7v7h-7V544.5z M370.3,544.5h7v7h-7V544.5z M377.5,544.5h7
		v7h-7V544.5z M413.8,544.5h7v7h-7V544.5z M421.1,544.5h7v7h-7V544.5z M326.7,551.8h7v7h-7V551.8z M334,551.8h7v7h-7V551.8z
		 M341.2,551.8h7v7h-7V551.8z M355.7,551.8h7v7h-7V551.8z M363,551.8h7v7h-7V551.8z M370.3,551.8h7v7h-7V551.8z M377.5,551.8h7v7h-7
		V551.8z M413.8,551.8h7v7h-7V551.8z M421.1,551.8h7v7h-7V551.8z M326.7,559h7v7h-7V559z M334,559h7v7h-7V559z M355.7,559h7v7h-7
		V559z M370.3,559h7v7h-7V559z M406.6,559h7v7h-7V559z M413.8,559h7v7h-7V559z M319.4,566.3h7v7h-7V566.3z M326.7,566.3h7v7h-7
		V566.3z M348.5,566.3h7v7h-7V566.3z M363,566.3h7v7h-7V566.3z M370.3,566.3h7v7h-7V566.3z M406.6,566.3h7v7h-7V566.3z M413.8,566.3
		h7v7h-7V566.3z M312.2,573.5h7v7h-7V573.5z M319.4,573.5h7v7h-7V573.5z M341.2,573.5h7v7h-7V573.5z M363,573.5h7v7h-7V573.5z
		 M406.6,573.5h7v7h-7V573.5z M413.8,573.5h7v7h-7V573.5z M304.9,580.8h7v7h-7V580.8z M312.2,580.8h7v7h-7V580.8z M334,580.8h7v7h-7
		V580.8z M341.2,580.8h7v7h-7V580.8z M355.7,580.8h7v7h-7V580.8z M363,580.8h7v7h-7V580.8z M406.6,580.8h7v7h-7V580.8z M413.8,580.8
		h7v7h-7V580.8z M304.9,588.1h7v7h-7V588.1z M334,588.1h7v7h-7V588.1z M355.7,588.1h7v7h-7V588.1z M363,588.1h7v7h-7V588.1z
		 M406.6,588.1h7v7h-7V588.1z M413.8,588.1h7v7h-7V588.1z M297.7,595.3h7v7h-7V595.3z M304.9,595.3h7v7h-7V595.3z M326.7,595.3h7v7
		h-7V595.3z M348.5,595.3h7v7h-7V595.3z M355.7,595.3h7v7h-7V595.3z M363,595.3h7v7h-7V595.3z M370.3,595.3h7v7h-7V595.3z
		 M377.5,595.3h7v7h-7V595.3z M399.3,595.3h7v7h-7V595.3z M406.6,595.3h7v7h-7V595.3z M290.4,602.6h7v7h-7V602.6z M297.7,602.6h7v7
		h-7V602.6z M312.2,602.6h7v7h-7V602.6z M319.4,602.6h7v7h-7V602.6z M341.2,602.6h7v7h-7V602.6z M348.5,602.6h7v7h-7V602.6z
		 M355.7,602.6h7v7h-7V602.6z M377.5,602.6h7v7h-7V602.6z M384.8,602.6h7v7h-7V602.6z M392,602.6h7v7h-7V602.6z M399.3,602.6h7v7h-7
		V602.6z M406.6,602.6h7v7h-7V602.6z M283.1,609.8h7v7h-7V609.8z M290.4,609.8h7v7h-7V609.8z M312.2,609.8h7v7h-7V609.8z
		 M319.4,609.8h7v7h-7V609.8z M341.2,609.8h7v7h-7V609.8z M348.5,609.8h7v7h-7V609.8z M377.5,609.8h7v7h-7V609.8z M384.8,609.8h7v7
		h-7V609.8z M392,609.8h7v7h-7V609.8z M399.3,609.8h7v7h-7V609.8z M406.6,609.8h7v7h-7V609.8z M283.1,617.1h7v7h-7V617.1z
		 M312.2,617.1h7v7h-7V617.1z M326.7,617.1h7v7h-7V617.1z M341.2,617.1h7v7h-7V617.1z M348.5,617.1h7v7h-7V617.1z M377.5,617.1h7v7
		h-7V617.1z M384.8,617.1h7v7h-7V617.1z M392,617.1h7v7h-7V617.1z M399.3,617.1h7v7h-7V617.1z M406.6,617.1h7v7h-7V617.1z
		 M275.9,624.4h7v7h-7V624.4z M283.1,624.4h7v7h-7V624.4z M304.9,624.4h7v7h-7V624.4z M326.7,624.4h7v7h-7V624.4z M334,624.4h7v7h-7
		V624.4z M341.2,624.4h7v7h-7V624.4z M370.3,624.4h7v7h-7V624.4z M377.5,624.4h7v7h-7V624.4z M399.3,624.4h7v7h-7V624.4z
		 M406.6,624.4h7v7h-7V624.4z M268.6,631.6h7v7h-7V631.6z M275.9,631.6h7v7h-7V631.6z M297.7,631.6h7v7h-7V631.6z M304.9,631.6h7v7
		h-7V631.6z M334,631.6h7v7h-7V631.6z M341.2,631.6h7v7h-7V631.6z M370.3,631.6h7v7h-7V631.6z M377.5,631.6h7v7h-7V631.6z
		 M399.3,631.6h7v7h-7V631.6z M406.6,631.6h7v7h-7V631.6z M268.6,638.9h7v7h-7V638.9z M297.7,638.9h7v7h-7V638.9z M326.7,638.9h7v7
		h-7V638.9z M334,638.9h7v7h-7V638.9z M370.3,638.9h7v7h-7V638.9z M377.5,638.9h7v7h-7V638.9z M399.3,638.9h7v7h-7V638.9z
		 M406.6,638.9h7v7h-7V638.9z M261.4,646.1h7v7h-7V646.1z M268.6,646.1h7v7h-7V646.1z M290.4,646.1h7v7h-7V646.1z M326.7,646.1h7v7
		h-7V646.1z M334,646.1h7v7h-7V646.1z M370.3,646.1h7v7h-7V646.1z M392,646.1h7v7h-7V646.1z M399.3,646.1h7v7h-7V646.1z
		 M406.6,646.1h7v7h-7V646.1z M261.4,653.4h7v7h-7V653.4z M268.6,653.4h7v7h-7V653.4z M290.4,653.4h7v7h-7V653.4z M319.4,653.4h7v7
		h-7V653.4z M326.7,653.4h7v7h-7V653.4z M363,653.4h7v7h-7V653.4z M370.3,653.4h7v7h-7V653.4z M392,653.4h7v7h-7V653.4z
		 M399.3,653.4h7v7h-7V653.4z M268.6,660.7h7v7h-7V660.7z M283.1,660.7h7v7h-7V660.7z M319.4,660.7h7v7h-7V660.7z M326.7,660.7h7v7
		h-7V660.7z M363,660.7h7v7h-7V660.7z M392,660.7h7v7h-7V660.7z M399.3,660.7h7v7h-7V660.7z M268.6,667.9h7v7h-7V667.9z
		 M275.9,667.9h7v7h-7V667.9z M319.4,667.9h7v7h-7V667.9z M326.7,667.9h7v7h-7V667.9z M355.7,667.9h7v7h-7V667.9z M363,667.9h7v7h-7
		V667.9z M392,667.9h7v7h-7V667.9z M399.3,667.9h7v7h-7V667.9z M275.9,675.2h7v7h-7V675.2z M312.2,675.2h7v7h-7V675.2z M319.4,675.2
		h7v7h-7V675.2z M326.7,675.2h7v7h-7V675.2z M334,675.2h7v7h-7V675.2z M341.2,675.2h7v7h-7V675.2z M355.7,675.2h7v7h-7V675.2z
		 M363,675.2h7v7h-7V675.2z M392,675.2h7v7h-7V675.2z M399.3,675.2h7v7h-7V675.2z M275.9,682.4h7v7h-7V682.4z M283.1,682.4h7v7h-7
		V682.4z M312.2,682.4h7v7h-7V682.4z M341.2,682.4h7v7h-7V682.4z M348.5,682.4h7v7h-7V682.4z M355.7,682.4h7v7h-7V682.4z M363,682.4
		h7v7h-7V682.4z M384.8,682.4h7v7h-7V682.4z M392,682.4h7v7h-7V682.4z M399.3,682.4h7v7h-7V682.4z M283.1,689.7h7v7h-7V689.7z
		 M304.9,689.7h7v7h-7V689.7z M312.2,689.7h7v7h-7V689.7z M348.5,689.7h7v7h-7V689.7z M355.7,689.7h7v7h-7V689.7z M363,689.7h7v7h-7
		V689.7z M384.8,689.7h7v7h-7V689.7z M392,689.7h7v7h-7V689.7z M283.1,697h7v7h-7V697z M304.9,697h7v7h-7V697z M355.7,697h7v7h-7
		V697z M363,697h7v7h-7V697z M370.3,697h7v7h-7V697z M377.5,697h7v7h-7V697z M384.8,697h7v7h-7V697z M392,697h7v7h-7V697z
		 M283.1,704.2h7v7h-7V704.2z M290.4,704.2h7v7h-7V704.2z M297.7,704.2h7v7h-7V704.2z M304.9,704.2h7v7h-7V704.2z M348.5,704.2h7v7
		h-7V704.2z M355.7,704.2h7v7h-7V704.2z M370.3,704.2h7v7h-7V704.2z M377.5,704.2h7v7h-7V704.2z M384.8,704.2h7v7h-7V704.2z
		 M392,704.2h7v7h-7V704.2z M290.4,711.5h7v7h-7V711.5z M297.7,711.5h7v7h-7V711.5z M348.5,711.5h7v7h-7V711.5z M377.5,711.5h7v7h-7
		V711.5z M384.8,711.5h7v7h-7V711.5z M392,711.5h7v7h-7V711.5z M290.4,718.7h7v7h-7V718.7z M297.7,718.7h7v7h-7V718.7z M341.2,718.7
		h7v7h-7V718.7z M377.5,718.7h7v7h-7V718.7z M384.8,718.7h7v7h-7V718.7z M290.4,726h7v7h-7V726z M297.7,726h7v7h-7V726z M304.9,726
		h7v7h-7V726z M334,726h7v7h-7V726z M341.2,726h7v7h-7V726z M377.5,726h7v7h-7V726z M384.8,726h7v7h-7V726z M290.4,733.3h7v7h-7
		V733.3z M312.2,733.3h7v7h-7V733.3z M319.4,733.3h7v7h-7V733.3z M334,733.3h7v7h-7V733.3z M377.5,733.3h7v7h-7V733.3z M384.8,733.3
		h7v7h-7V733.3z M283.1,740.5h7v7h-7V740.5z M290.4,740.5h7v7h-7V740.5z M326.7,740.5h7v7h-7V740.5z M334,740.5h7v7h-7V740.5z
		 M377.5,740.5h7v7h-7V740.5z M384.8,740.5h7v7h-7V740.5z M275.9,747.8h7v7h-7V747.8z M283.1,747.8h7v7h-7V747.8z M326.7,747.8h7v7
		h-7V747.8z M334,747.8h7v7h-7V747.8z M341.2,747.8h7v7h-7V747.8z M370.3,747.8h7v7h-7V747.8z M377.5,747.8h7v7h-7V747.8z
		 M384.8,747.8h7v7h-7V747.8z M275.9,755h7v7h-7V755z M283.1,755h7v7h-7V755z M326.7,755h7v7h-7V755z M334,755h7v7h-7V755z
		 M341.2,755h7v7h-7V755z M348.5,755h7v7h-7V755z M370.3,755h7v7h-7V755z M377.5,755h7v7h-7V755z M275.9,762.3h7v7h-7V762.3z
		 M326.7,762.3h7v7h-7V762.3z M334,762.3h7v7h-7V762.3z M348.5,762.3h7v7h-7V762.3z M355.7,762.3h7v7h-7V762.3z M370.3,762.3h7v7h-7
		V762.3z M377.5,762.3h7v7h-7V762.3z M268.6,769.6h7v7h-7V769.6z M326.7,769.6h7v7h-7V769.6z M355.7,769.6h7v7h-7V769.6z M363,769.6
		h7v7h-7V769.6z M370.3,769.6h7v7h-7V769.6z M377.5,769.6h7v7h-7V769.6z M268.6,776.8h7v7h-7V776.8z M275.9,776.8h7v7h-7V776.8z
		 M283.1,776.8h7v7h-7V776.8z M319.4,776.8h7v7h-7V776.8z M326.7,776.8h7v7h-7V776.8z M363,776.8h7v7h-7V776.8z M370.3,776.8h7v7h-7
		V776.8z M377.5,776.8h7v7h-7V776.8z M275.9,784.1h7v7h-7V784.1z M283.1,784.1h7v7h-7V784.1z M290.4,784.1h7v7h-7V784.1z
		 M297.7,784.1h7v7h-7V784.1z M304.9,784.1h7v7h-7V784.1z M319.4,784.1h7v7h-7V784.1z M370.3,784.1h7v7h-7V784.1z M377.5,784.1h7v7
		h-7V784.1z M297.7,791.3h7v7h-7V791.3z M304.9,791.3h7v7h-7V791.3z M312.2,791.3h7v7h-7V791.3z M319.4,791.3h7v7h-7V791.3z
		 M370.3,791.3h7v7h-7V791.3z M377.5,791.3h7v7h-7V791.3z M304.9,798.6h7v7h-7V798.6z M312.2,798.6h7v7h-7V798.6z M319.4,798.6h7v7
		h-7V798.6z M326.7,798.6h7v7h-7V798.6z M370.3,798.6h7v7h-7V798.6z M377.5,798.6h7v7h-7V798.6z M319.4,805.9h7v7h-7V805.9z
		 M326.7,805.9h7v7h-7V805.9z M334,805.9h7v7h-7V805.9z M363,805.9h7v7h-7V805.9z M370.3,805.9h7v7h-7V805.9z M377.5,805.9h7v7h-7
		V805.9z M319.4,813.1h7v7h-7V813.1z M326.7,813.1h7v7h-7V813.1z M334,813.1h7v7h-7V813.1z M341.2,813.1h7v7h-7V813.1z M363,813.1h7
		v7h-7V813.1z M370.3,813.1h7v7h-7V813.1z M326.7,820.4h7v7h-7V820.4z M334,820.4h7v7h-7V820.4z M341.2,820.4h7v7h-7V820.4z
		 M348.5,820.4h7v7h-7V820.4z M363,820.4h7v7h-7V820.4z M370.3,820.4h7v7h-7V820.4z M341.2,827.6h7v7h-7V827.6z M348.5,827.6h7v7h-7
		V827.6z M363,827.6h7v7h-7V827.6z M370.3,827.6h7v7h-7V827.6z M348.5,834.9h7v7h-7V834.9z M355.7,834.9h7v7h-7V834.9z M363,834.9h7
		v7h-7V834.9z M370.3,834.9h7v7h-7V834.9z M348.5,842.2h7v7h-7V842.2z M355.7,842.2h7v7h-7V842.2z M363,842.2h7v7h-7V842.2z
		 M370.3,842.2h7v7h-7V842.2z M355.7,849.4h7v7h-7V849.4z M363,849.4h7v7h-7V849.4z M370.3,849.4h7v7h-7V849.4z M363,856.7h7v7h-7
		V856.7z"/>
</g>
</svg>
