<?xml version="1.0" encoding="utf-8"?>
<!-- Generator: Adobe Illustrator 27.3.1, SVG Export Plug-In . SVG Version: 6.00 Build 0)  -->
<svg version="1.1" xmlns="http://www.w3.org/2000/svg" xmlns:xlink="http://www.w3.org/1999/xlink" x="0px" y="0px"
	 viewBox="0 0 871 871" style="enable-background:new 0 0 871 871;" xml:space="preserve">
<style type="text/css">
	.st0{fill:#FCE9B8;}
	.st1{fill:#1E0E01;}
</style>
<g id="Слой_2">
	<path class="st0" d="M858.9,464.6c0-1.4-1.1-2.5-2.5-2.5h-7c0,0-0.1,0-0.1,0c0,0-0.1,0-0.1,0h-7c0,0-0.1,0-0.1,0c0,0-0.1,0-0.1,0
		h-7c0,0-0.1,0-0.1,0c0,0-0.1,0-0.1,0h-7c0,0-0.1,0-0.1,0c0,0-0.1,0-0.1,0h-7c0,0-0.1,0-0.1,0c0,0-0.1,0-0.1,0h-7c0,0-0.1,0-0.1,0
		c0,0-0.1,0-0.1,0h-7c0,0-0.1,0-0.1,0c0,0-0.1,0-0.1,0h-7c0,0-0.1,0-0.1,0c0,0-0.1,0-0.1,0h-7c0,0-0.1,0-0.1,0c0,0-0.1,0-0.1,0h-7
		c0,0-0.1,0-0.1,0c0,0-0.1,0-0.1,0h-7c0,0-0.1,0-0.1,0c0,0-0.1,0-0.1,0h-7c0,0-0.1,0-0.1,0c0,0-0.1,0-0.1,0h-7c0,0-0.1,0-0.1,0
		c0,0-0.1,0-0.1,0h-7c0,0-0.1,0-0.1,0c0,0-0.1,0-0.1,0h-7c0,0-0.1,0-0.1,0c0,0-0.1,0-0.1,0h-7c0,0-0.1,0-0.1,0c0,0-0.1,0-0.1,0h-7
		c0,0-0.1,0-0.1,0c0,0-0.1,0-0.1,0h-7c0,0-0.1,0-0.1,0c0,0-0.1,0-0.1,0h-7c0,0-0.1,0-0.1,0c0,0-0.1,0-0.1,0h-7c0,0-0.1,0-0.1,0
		c0,0-0.1,0-0.1,0h-7c0,0-0.1,0-0.1,0c0,0-0.1,0-0.1,0h-7c0,0-0.1,0-0.1,0c0,0-0.1,0-0.1,0h-7c0,0-0.1,0-0.1,0c0,0-0.1,0-0.1,0h-7
		c0,0-0.1,0-0.1,0c0,0-0.1,0-0.1,0h-4.8v-4.8c0-1.4-1.1-2.5-2.5-2.5h-7c0,0-0.1,0-0.1,0c0,0-0.1,0-0.1,0h-7c0,0-0.1,0-0.1,0
		c0,0-0.1,0-0.1,0h-7c0,0-0.1,0-0.1,0c0,0-0.1,0-0.1,0h-7c0,0-0.1,0-0.1,0c0,0-0.1,0-0.1,0h-7c0,0-0.1,0-0.1,0c0,0-0.1,0-0.1,0h-7
		c0,0-0.1,0-0.1,0c0,0-0.1,0-0.1,0h-7c0,0-0.1,0-0.1,0c0,0-0.1,0-0.1,0h-7c0,0-0.1,0-0.1,0c0,0-0.1,0-0.1,0h-7c0,0-0.1,0-0.1,0
		c0,0-0.1,0-0.1,0h-7c0,0-0.1,0-0.1,0c0,0-0.1,0-0.1,0h-7c0,0-0.1,0-0.1,0c0,0-0.1,0-0.1,0h-7c0,0-0.1,0-0.1,0c0,0-0.1,0-0.1,0h-7
		c0,0-0.1,0-0.1,0c0,0-0.1,0-0.1,0h-7c0,0-0.1,0-0.1,0c0,0-0.1,0-0.1,0h-7c0,0-0.1,0-0.1,0c0,0-0.1,0-0.1,0h-7c0,0-0.1,0-0.1,0
		c0,0-0.1,0-0.1,0h-7c0,0-0.1,0-0.1,0c0,0-0.1,0-0.1,0h-7c0,0-0.1,0-0.1,0c0,0-0.1,0-0.1,0h-7c0,0-0.1,0-0.1,0c0,0-0.1,0-0.1,0h-7
		c0,0-0.1,0-0.1,0c0,0-0.1,0-0.1,0h-7c0,0-0.1,0-0.1,0c0,0-0.1,0-0.1,0h-4.8v-4.8c0-1.4-1.1-2.5-2.5-2.5h-7c0,0-0.1,0-0.1,0
		c0,0-0.1,0-0.1,0h-7c-1.4,0-2.5,1.1-2.5,2.5v4.8h-4.8c0,0-0.1,0-0.1,0c0,0-0.1,0-0.1,0h-4.8v-4.8c0-1.4-1.1-2.5-2.5-2.5h-7
		c0,0-0.1,0-0.1,0c0,0-0.1,0-0.1,0h-7c0,0-0.1,0-0.1,0c0,0-0.1,0-0.1,0h-4.8v-4.8c0-1.4-1.1-2.5-2.5-2.5h-4.8v-4.8
		c0-1.4-1.1-2.5-2.5-2.5h-4.8v-4.8c0-1.4-1.1-2.5-2.5-2.5h-4.8v-4.8c0,0,0-0.1,0-0.1c0,0,0-0.1,0-0.1v-7c0,0,0-0.1,0-0.1
		c0,0,0-0.1,0-0.1v-7c0,0,0-0.1,0-0.1c0,0,0-0.1,0-0.1v-7c0,0,0-0.1,0-0.1c0,0,0-0.1,0-0.1v-7c0,0,0-0.1,0-0.1c0,0,0-0.1,0-0.1v-7
		c0,0,0-0.1,0-0.1c0,0,0-0.1,0-0.1v-7c0,0,0-0.1,0-0.1c0,0,0-0.1,0-0.1v-7c0-1.4-1.1-2.5-2.5-2.5h-4.8V363c0,0,0-0.1,0-0.1
		c0,0,0-0.1,0-0.1V358h4.8c0,0,0.1,0,0.1,0c0,0,0.1,0,0.1,0h7c1.4,0,2.5-1.1,2.5-2.5v-4.8h4.8c0,0,0.1,0,0.1,0c0,0,0.1,0,0.1,0h7
		c1.4,0,2.5-1.1,2.5-2.5v-7c0,0,0-0.1,0-0.1c0,0,0-0.1,0-0.1v-7c0,0,0-0.1,0-0.1c0,0,0-0.1,0-0.1v-7c0,0,0-0.1,0-0.1
		c0,0,0-0.1,0-0.1v-7c0,0,0-0.1,0-0.1c0,0,0-0.1,0-0.1v-7c0,0,0-0.1,0-0.1c0,0,0-0.1,0-0.1v-7c0,0,0-0.1,0-0.1c0,0,0-0.1,0-0.1v-7
		c0,0,0-0.1,0-0.1c0,0,0-0.1,0-0.1v-7c0,0,0-0.1,0-0.1c0,0,0-0.1,0-0.1v-7c0-1.4-1.1-2.5-2.5-2.5h-4.8v-4.8c0,0,0-0.1,0-0.1
		c0,0,0-0.1,0-0.1v-7c0,0,0-0.1,0-0.1c0,0,0-0.1,0-0.1v-7c0,0,0-0.1,0-0.1c0,0,0-0.1,0-0.1v-7c0,0,0-0.1,0-0.1c0,0,0-0.1,0-0.1v-7
		c0,0,0-0.1,0-0.1c0,0,0-0.1,0-0.1v-7c0,0,0-0.1,0-0.1c0,0,0-0.1,0-0.1v-7c0,0,0-0.1,0-0.1c0,0,0-0.1,0-0.1v-7c0,0,0-0.1,0-0.1
		c0,0,0-0.1,0-0.1v-7c0,0,0-0.1,0-0.1c0,0,0-0.1,0-0.1v-7c0,0,0-0.1,0-0.1c0,0,0-0.1,0-0.1v-7c0-1.4-1.1-2.5-2.5-2.5h-4.8V196
		c0-1.4-1.1-2.5-2.5-2.5h-4.8v-4.8c0-1.4-1.1-2.5-2.5-2.5h-7c0,0-0.1,0-0.1,0c0,0-0.1,0-0.1,0h-4.8v-4.8c0-1.4-1.1-2.5-2.5-2.5h-7
		c0,0-0.1,0-0.1,0c0,0-0.1,0-0.1,0h-4.8v-4.8c0-1.4-1.1-2.5-2.5-2.5h-7c0,0-0.1,0-0.1,0c0,0-0.1,0-0.1,0h-4.8V167
		c0-1.4-1.1-2.5-2.5-2.5h-4.8v-4.8c0-1.4-1.1-2.5-2.5-2.5H387v-4.8c0-1.4-1.1-2.5-2.5-2.5h-4.8v-4.8c0,0,0-0.1,0-0.1
		c0,0,0-0.1,0-0.1v-7c0,0,0-0.1,0-0.1c0,0,0-0.1,0-0.1v-7c0,0,0-0.1,0-0.1c0,0,0-0.1,0-0.1v-7c0-1.4-1.1-2.5-2.5-2.5h-4.8v-4.8
		c0,0,0-0.1,0-0.1c0,0,0-0.1,0-0.1v-7c0,0,0-0.1,0-0.1c0,0,0-0.1,0-0.1v-7c0-1.4-1.1-2.5-2.5-2.5h-7c0,0-0.1,0-0.1,0
		c0,0-0.1,0-0.1,0h-7c0,0-0.1,0-0.1,0c0,0-0.1,0-0.1,0h-7c0,0-0.1,0-0.1,0c0,0-0.1,0-0.1,0h-7c-1.4,0-2.5,1.1-2.5,2.5v4.8H334
		c0,0-0.1,0-0.1,0c0,0-0.1,0-0.1,0h-7c0,0-0.1,0-0.1,0c0,0-0.1,0-0.1,0h-7c0,0-0.1,0-0.1,0c0,0-0.1,0-0.1,0h-7c0,0-0.1,0-0.1,0
		c0,0-0.1,0-0.1,0h-7c0,0-0.1,0-0.1,0c0,0-0.1,0-0.1,0h-7c0,0-0.1,0-0.1,0c0,0-0.1,0-0.1,0h-7c0,0-0.1,0-0.1,0c0,0-0.1,0-0.1,0h-7
		c0,0-0.1,0-0.1,0c0,0-0.1,0-0.1,0h-4.8v-4.8c0-1.4-1.1-2.5-2.5-2.5h-7c0,0-0.1,0-0.1,0c0,0-0.1,0-0.1,0h-7c0,0-0.1,0-0.1,0
		c0,0-0.1,0-0.1,0h-7c0,0-0.1,0-0.1,0c0,0-0.1,0-0.1,0h-7c0,0-0.1,0-0.1,0c0,0-0.1,0-0.1,0h-7c0,0-0.1,0-0.1,0c0,0-0.1,0-0.1,0h-7
		c-1.4,0-2.5,1.1-2.5,2.5v7c0,1.4,1.1,2.5,2.5,2.5h4.8v4.8c0,0,0,0.1,0,0.1c0,0,0,0.1,0,0.1v7c0,1.4,1.1,2.5,2.5,2.5h4.8v4.8
		c0,1.4,1.1,2.5,2.5,2.5h4.8v4.8c0,0,0,0.1,0,0.1c0,0,0,0.1,0,0.1v7c0,1.4,1.1,2.5,2.5,2.5h4.8v4.8c0,0,0,0.1,0,0.1c0,0,0,0.1,0,0.1
		v7c0,1.4,1.1,2.5,2.5,2.5h4.8v4.8c0,0,0,0.1,0,0.1c0,0,0,0.1,0,0.1v7c0,1.4,1.1,2.5,2.5,2.5h4.8v4.8c0,1.4,1.1,2.5,2.5,2.5h4.8v4.8
		c0,1.4,1.1,2.5,2.5,2.5h4.8v4.8c0,0,0,0.1,0,0.1c0,0,0,0.1,0,0.1v7c0,1.4,1.1,2.5,2.5,2.5h4.8v4.8c0,0,0,0.1,0,0.1c0,0,0,0.1,0,0.1
		v7c0,1.4,1.1,2.5,2.5,2.5h4.8v4.8c0,0,0,0.1,0,0.1c0,0,0,0.1,0,0.1v7c0,1.4,1.1,2.5,2.5,2.5h4.8v4.8c0,0,0,0.1,0,0.1
		c0,0,0,0.1,0,0.1v7c0,1.4,1.1,2.5,2.5,2.5h4.8v4.8c0,0,0,0.1,0,0.1c0,0,0,0.1,0,0.1v7c0,1.4,1.1,2.5,2.5,2.5h4.8v4.8
		c0,0,0,0.1,0,0.1c0,0,0,0.1,0,0.1v7c0,1.4,1.1,2.5,2.5,2.5h4.8v4.8c0,1.4,1.1,2.5,2.5,2.5h4.8v4.8c0,0,0,0.1,0,0.1c0,0,0,0.1,0,0.1
		v7c0,1.4,1.1,2.5,2.5,2.5h4.8v4.8c0,0,0,0.1,0,0.1c0,0,0,0.1,0,0.1v7c0,1.4,1.1,2.5,2.5,2.5h4.8v4.8c0,1.4,1.1,2.5,2.5,2.5h4.8v4.8
		c0,0,0,0.1,0,0.1c0,0,0,0.1,0,0.1v7c0,1.4,1.1,2.5,2.5,2.5h4.8v4.8c0,0,0,0.1,0,0.1c0,0,0,0.1,0,0.1v7c0,1.4,1.1,2.5,2.5,2.5h4.8
		v4.8c0,0,0,0.1,0,0.1c0,0,0,0.1,0,0.1v7c0,1.4,1.1,2.5,2.5,2.5h4.8v4.8c0,1.4,1.1,2.5,2.5,2.5h4.8v4.8c0,0,0,0.1,0,0.1
		c0,0,0,0.1,0,0.1v7c0,1.4,1.1,2.5,2.5,2.5h4.8v4.8c0,0,0,0.1,0,0.1c0,0,0,0.1,0,0.1v7c0,1.4,1.1,2.5,2.5,2.5h4.8v4.8
		c0,1.4,1.1,2.5,2.5,2.5h4.8v4.8c0,0,0,0.1,0,0.1c0,0,0,0.1,0,0.1v7c0,1.4,1.1,2.5,2.5,2.5h4.8v4.8c0,0,0,0.1,0,0.1c0,0,0,0.1,0,0.1
		v7c0,0,0,0.1,0,0.1c0,0,0,0.1,0,0.1v4.8h-4.8c-1.4,0-2.5,1.1-2.5,2.5v7c0,0,0,0.1,0,0.1c0,0,0,0.1,0,0.1v7c0,0,0,0.1,0,0.1
		c0,0,0,0.1,0,0.1v7c0,0,0,0.1,0,0.1c0,0,0,0.1,0,0.1v4.8h-4.8c0,0-0.1,0-0.1,0c0,0-0.1,0-0.1,0h-7c-1.4,0-2.5,1.1-2.5,2.5v4.8H392
		c-1.4,0-2.5,1.1-2.5,2.5v4.8h-4.8c-1.4,0-2.5,1.1-2.5,2.5v4.8h-4.8c-1.4,0-2.5,1.1-2.5,2.5v4.8h-4.8c-1.4,0-2.5,1.1-2.5,2.5v7
		c0,0,0,0.1,0,0.1c0,0,0,0.1,0,0.1v4.8H363c0,0-0.1,0-0.1,0c0,0-0.1,0-0.1,0h-7c0,0-0.1,0-0.1,0c0,0-0.1,0-0.1,0h-4.8v-4.8
		c0-1.4-1.1-2.5-2.5-2.5h-4.8v-4.8c0-1.4-1.1-2.5-2.5-2.5h-7c-1.4,0-2.5,1.1-2.5,2.5v4.8h-4.8c-1.4,0-2.5,1.1-2.5,2.5v4.8h-4.8
		c0,0-0.1,0-0.1,0c0,0-0.1,0-0.1,0h-7c-1.4,0-2.5,1.1-2.5,2.5v4.8h-4.8c-1.4,0-2.5,1.1-2.5,2.5v4.8h-4.8c-1.4,0-2.5,1.1-2.5,2.5v4.8
		h-4.8c-1.4,0-2.5,1.1-2.5,2.5v4.8h-4.8c0,0-0.1,0-0.1,0c0,0-0.1,0-0.1,0h-7c-1.4,0-2.5,1.1-2.5,2.5v4.8h-4.8
		c-1.4,0-2.5,1.1-2.5,2.5v4.8h-4.8c-1.4,0-2.5,1.1-2.5,2.5v4.8h-4.8c-1.4,0-2.5,1.1-2.5,2.5v4.8h-4.8c0,0-0.1,0-0.1,0
		c0,0-0.1,0-0.1,0h-7c-1.4,0-2.5,1.1-2.5,2.5v4.8h-4.8c-1.4,0-2.5,1.1-2.5,2.5v4.8h-4.8c-1.4,0-2.5,1.1-2.5,2.5v4.8h-4.8
		c-1.4,0-2.5,1.1-2.5,2.5v7c0,0,0,0.1,0,0.1c0,0,0,0.1,0,0.1v7c0,0,0,0.1,0,0.1c0,0,0,0.1,0,0.1v7c0,0,0,0.1,0,0.1c0,0,0,0.1,0,0.1
		v7c0,1.4,1.1,2.5,2.5,2.5h4.8v4.8c0,0,0,0.1,0,0.1c0,0,0,0.1,0,0.1v7c0,0,0,0.1,0,0.1c0,0,0,0.1,0,0.1v7c0,0,0,0.1,0,0.1
		c0,0,0,0.1,0,0.1v7c0,0,0,0.1,0,0.1c0,0,0,0.1,0,0.1v7c0,0,0,0.1,0,0.1c0,0,0,0.1,0,0.1v7c0,0,0,0.1,0,0.1c0,0,0,0.1,0,0.1v7
		c0,0,0,0.1,0,0.1c0,0,0,0.1,0,0.1v7c0,0,0,0.1,0,0.1c0,0,0,0.1,0,0.1v4.8h-4.8c-1.4,0-2.5,1.1-2.5,2.5v4.8h-4.8
		c-1.4,0-2.5,1.1-2.5,2.5v4.8h-4.8c-1.4,0-2.5,1.1-2.5,2.5v7c0,0,0,0.1,0,0.1c0,0,0,0.1,0,0.1v4.8H196c-1.4,0-2.5,1.1-2.5,2.5v4.8
		h-4.8c-1.4,0-2.5,1.1-2.5,2.5v7c0,1.4,1.1,2.5,2.5,2.5h7c0,0,0.1,0,0.1,0c0,0,0.1,0,0.1,0h4.8v4.8c0,1.4,1.1,2.5,2.5,2.5h4.8v4.8
		c0,1.4,1.1,2.5,2.5,2.5h4.8v4.8c0,1.4,1.1,2.5,2.5,2.5h4.8v4.8c0,1.4,1.1,2.5,2.5,2.5h4.8v4.8c0,0,0,0.1,0,0.1c0,0,0,0.1,0,0.1v7
		c0,1.4,1.1,2.5,2.5,2.5h4.8v4.8c0,0,0,0.1,0,0.1c0,0,0,0.1,0,0.1v7c0,1.4,1.1,2.5,2.5,2.5h4.8v4.8c0,1.4,1.1,2.5,2.5,2.5h4.8v4.8
		c0,0,0,0.1,0,0.1c0,0,0,0.1,0,0.1v7c0,1.4,1.1,2.5,2.5,2.5h4.8v4.8c0,0,0,0.1,0,0.1c0,0,0,0.1,0,0.1v7c0,1.4,1.1,2.5,2.5,2.5h7
		c0,0,0.1,0,0.1,0c0,0,0.1,0,0.1,0h7c1.4,0,2.5-1.1,2.5-2.5v-4.8h4.8c1.4,0,2.5-1.1,2.5-2.5v-7c0,0,0-0.1,0-0.1c0,0,0-0.1,0-0.1
		v-4.8h4.8c1.4,0,2.5-1.1,2.5-2.5v-7c0,0,0-0.1,0-0.1c0,0,0-0.1,0-0.1v-7c0,0,0-0.1,0-0.1c0,0,0-0.1,0-0.1v-4.8h4.8
		c1.4,0,2.5-1.1,2.5-2.5v-7c0,0,0-0.1,0-0.1c0,0,0-0.1,0-0.1v-4.8h4.8c1.4,0,2.5-1.1,2.5-2.5v-7c0,0,0-0.1,0-0.1c0,0,0-0.1,0-0.1
		v-4.8h4.8c1.4,0,2.5-1.1,2.5-2.5v-7c0,0,0-0.1,0-0.1c0,0,0-0.1,0-0.1v-7c0,0,0-0.1,0-0.1c0,0,0-0.1,0-0.1v-4.8h4.8
		c1.4,0,2.5-1.1,2.5-2.5v-7c0,0,0-0.1,0-0.1c0,0,0-0.1,0-0.1V721h4.8c1.4,0,2.5-1.1,2.5-2.5v-7c0,0,0-0.1,0-0.1c0,0,0-0.1,0-0.1
		v-4.8h4.8c1.4,0,2.5-1.1,2.5-2.5v-7c0,0,0-0.1,0-0.1c0,0,0-0.1,0-0.1v-4.8h4.8c1.4,0,2.5-1.1,2.5-2.5v-7c0,0,0-0.1,0-0.1
		c0,0,0-0.1,0-0.1v-4.8h4.8c1.4,0,2.5-1.1,2.5-2.5v-7c0,0,0-0.1,0-0.1c0,0,0-0.1,0-0.1v-4.8h4.8c1.4,0,2.5-1.1,2.5-2.5v-7
		c0,0,0-0.1,0-0.1c0,0,0-0.1,0-0.1v-7c0,0,0-0.1,0-0.1c0,0,0-0.1,0-0.1v-4.8h4.8c1.4,0,2.5-1.1,2.5-2.5v-7c0,0,0-0.1,0-0.1
		c0,0,0-0.1,0-0.1v-4.8h4.8c1.4,0,2.5-1.1,2.5-2.5v-7c0,0,0-0.1,0-0.1c0,0,0-0.1,0-0.1v-4.8h4.8c1.4,0,2.5-1.1,2.5-2.5v-7
		c0,0,0-0.1,0-0.1c0,0,0-0.1,0-0.1v-7c0,0,0-0.1,0-0.1c0,0,0-0.1,0-0.1v-4.8h4.8c1.4,0,2.5-1.1,2.5-2.5v-7c0,0,0-0.1,0-0.1
		c0,0,0-0.1,0-0.1v-4.8h4.8c1.4,0,2.5-1.1,2.5-2.5v-7c0,0,0-0.1,0-0.1c0,0,0-0.1,0-0.1v-4.8h4.8c1.4,0,2.5-1.1,2.5-2.5v-7
		c0,0,0-0.1,0-0.1c0,0,0-0.1,0-0.1v-4.8h4.8c1.4,0,2.5-1.1,2.5-2.5v-7c0,0,0-0.1,0-0.1c0,0,0-0.1,0-0.1v-4.8h4.8
		c1.4,0,2.5-1.1,2.5-2.5v-7c0,0,0-0.1,0-0.1c0,0,0-0.1,0-0.1v-4.8h4.8c1.4,0,2.5-1.1,2.5-2.5v-4.8h4.8c1.4,0,2.5-1.1,2.5-2.5v-7
		c0,0,0-0.1,0-0.1c0,0,0-0.1,0-0.1v-4.8h4.8c1.4,0,2.5-1.1,2.5-2.5v-7c0,0,0-0.1,0-0.1c0,0,0-0.1,0-0.1v-4.8h4.8c0,0,0.1,0,0.1,0
		c0,0,0.1,0,0.1,0h7c0,0,0.1,0,0.1,0c0,0,0.1,0,0.1,0h7c1.4,0,2.5-1.1,2.5-2.5v-4.8h4.8c0,0,0.1,0,0.1,0c0,0,0.1,0,0.1,0h4.8v4.8
		c0,1.4,1.1,2.5,2.5,2.5h4.8v4.8c0,1.4,1.1,2.5,2.5,2.5h7c0,0,0.1,0,0.1,0c0,0,0.1,0,0.1,0h4.8v4.8c0,1.4,1.1,2.5,2.5,2.5h7
		c0,0,0.1,0,0.1,0c0,0,0.1,0,0.1,0h4.8v4.8c0,1.4,1.1,2.5,2.5,2.5h7c0,0,0.1,0,0.1,0c0,0,0.1,0,0.1,0h7c0,0,0.1,0,0.1,0
		c0,0,0.1,0,0.1,0h4.8v4.8c0,1.4,1.1,2.5,2.5,2.5h4.8v4.8c0,0,0,0.1,0,0.1c0,0,0,0.1,0,0.1v4.8H530c-1.4,0-2.5,1.1-2.5,2.5v7
		c0,0,0,0.1,0,0.1c0,0,0,0.1,0,0.1v7c0,1.4,1.1,2.5,2.5,2.5h4.8v4.8c0,1.4,1.1,2.5,2.5,2.5h7c0,0,0.1,0,0.1,0c0,0,0.1,0,0.1,0h4.8
		v4.8c0,1.4,1.1,2.5,2.5,2.5h4.8v4.8c0,1.4,1.1,2.5,2.5,2.5h7c0,0,0.1,0,0.1,0c0,0,0.1,0,0.1,0h7c0,0,0.1,0,0.1,0c0,0,0.1,0,0.1,0
		h4.8v4.8c0,1.4,1.1,2.5,2.5,2.5h4.8v4.8c0,1.4,1.1,2.5,2.5,2.5h7c0,0,0.1,0,0.1,0c0,0,0.1,0,0.1,0h4.8v4.8c0,1.4,1.1,2.5,2.5,2.5h7
		c0,0,0.1,0,0.1,0c0,0,0.1,0,0.1,0h4.8v4.8c0,1.4,1.1,2.5,2.5,2.5h7c0,0,0.1,0,0.1,0c0,0,0.1,0,0.1,0h4.8v4.8c0,1.4,1.1,2.5,2.5,2.5
		h7c0,0,0.1,0,0.1,0c0,0,0.1,0,0.1,0h4.8v4.8c0,1.4,1.1,2.5,2.5,2.5h7c0,0,0.1,0,0.1,0c0,0,0.1,0,0.1,0h4.8v4.8
		c0,1.4,1.1,2.5,2.5,2.5h7c1.4,0,2.5-1.1,2.5-2.5v-4.8h4.8c1.4,0,2.5-1.1,2.5-2.5v-4.8h4.8c1.4,0,2.5-1.1,2.5-2.5v-4.8h4.8
		c0,0,0.1,0,0.1,0c0,0,0.1,0,0.1,0h7c1.4,0,2.5-1.1,2.5-2.5V583h4.8c0,0,0.1,0,0.1,0c0,0,0.1,0,0.1,0h7c0,0,0.1,0,0.1,0
		c0,0,0.1,0,0.1,0h7c1.4,0,2.5-1.1,2.5-2.5v-4.8h4.8c0,0,0.1,0,0.1,0c0,0,0.1,0,0.1,0h7c1.4,0,2.5-1.1,2.5-2.5v-4.8h4.8
		c0,0,0.1,0,0.1,0c0,0,0.1,0,0.1,0h7c0,0,0.1,0,0.1,0c0,0,0.1,0,0.1,0h4.8v4.8c0,1.4,1.1,2.5,2.5,2.5h7c0,0,0.1,0,0.1,0
		c0,0,0.1,0,0.1,0h4.8v4.8c0,1.4,1.1,2.5,2.5,2.5h7c0,0,0.1,0,0.1,0c0,0,0.1,0,0.1,0h4.8v4.8c0,1.4,1.1,2.5,2.5,2.5h7
		c1.4,0,2.5-1.1,2.5-2.5V583h4.8c1.4,0,2.5-1.1,2.5-2.5v-7c0,0,0-0.1,0-0.1c0,0,0-0.1,0-0.1v-7c0,0,0-0.1,0-0.1c0,0,0-0.1,0-0.1v-7
		c0,0,0-0.1,0-0.1c0,0,0-0.1,0-0.1V554h4.8c1.4,0,2.5-1.1,2.5-2.5v-7c0,0,0-0.1,0-0.1c0,0,0-0.1,0-0.1v-4.8h4.8
		c1.4,0,2.5-1.1,2.5-2.5v-4.8h4.8c1.4,0,2.5-1.1,2.5-2.5v-7c0,0,0-0.1,0-0.1c0,0,0-0.1,0-0.1v-4.8h4.8c1.4,0,2.5-1.1,2.5-2.5v-4.8
		h4.8c1.4,0,2.5-1.1,2.5-2.5v-4.8h4.8c1.4,0,2.5-1.1,2.5-2.5v-4.8h4.8c1.4,0,2.5-1.1,2.5-2.5v-4.8h4.8c1.4,0,2.5-1.1,2.5-2.5v-7
		c0,0,0-0.1,0-0.1c0,0,0-0.1,0-0.1v-7c0,0,0-0.1,0-0.1c0,0,0-0.1,0-0.1V464.6z"/>
</g>
<g id="Слой_1" xmlns:ev="http://www.w3.org/2001/xml-events">
	<path class="st1" d="M232.3,101.6h7v7h-7V101.6z M239.6,101.6h7v7h-7V101.6z M246.8,101.6h7v7h-7V101.6z M254.1,101.6h7v7h-7V101.6
		z M261.4,101.6h7v7h-7V101.6z M268.6,101.6h7v7h-7V101.6z M341.2,101.6h7v7h-7V101.6z M348.5,101.6h7v7h-7V101.6z M355.7,101.6h7v7
		h-7V101.6z M363,101.6h7v7h-7V101.6z M239.6,108.9h7v7h-7V108.9z M246.8,108.9h7v7h-7V108.9z M254.1,108.9h7v7h-7V108.9z
		 M261.4,108.9h7v7h-7V108.9z M268.6,108.9h7v7h-7V108.9z M275.9,108.9h7v7h-7V108.9z M283.1,108.9h7v7h-7V108.9z M290.4,108.9h7v7
		h-7V108.9z M297.7,108.9h7v7h-7V108.9z M304.9,108.9h7v7h-7V108.9z M312.2,108.9h7v7h-7V108.9z M319.4,108.9h7v7h-7V108.9z
		 M326.7,108.9h7v7h-7V108.9z M334,108.9h7v7h-7V108.9z M341.2,108.9h7v7h-7V108.9z M355.7,108.9h7v7h-7V108.9z M363,108.9h7v7h-7
		V108.9z M239.6,116.2h7v7h-7V116.2z M246.8,116.2h7v7h-7V116.2z M254.1,116.2h7v7h-7V116.2z M268.6,116.2h7v7h-7V116.2z
		 M275.9,116.2h7v7h-7V116.2z M283.1,116.2h7v7h-7V116.2z M290.4,116.2h7v7h-7V116.2z M297.7,116.2h7v7h-7V116.2z M304.9,116.2h7v7
		h-7V116.2z M312.2,116.2h7v7h-7V116.2z M319.4,116.2h7v7h-7V116.2z M326.7,116.2h7v7h-7V116.2z M355.7,116.2h7v7h-7V116.2z
		 M363,116.2h7v7h-7V116.2z M246.8,123.4h7v7h-7V123.4z M254.1,123.4h7v7h-7V123.4z M312.2,123.4h7v7h-7V123.4z M319.4,123.4h7v7h-7
		V123.4z M363,123.4h7v7h-7V123.4z M370.3,123.4h7v7h-7V123.4z M254.1,130.7h7v7h-7V130.7z M261.4,130.7h7v7h-7V130.7z M319.4,130.7
		h7v7h-7V130.7z M363,130.7h7v7h-7V130.7z M370.3,130.7h7v7h-7V130.7z M254.1,137.9h7v7h-7V137.9z M261.4,137.9h7v7h-7V137.9z
		 M268.6,137.9h7v7h-7V137.9z M319.4,137.9h7v7h-7V137.9z M326.7,137.9h7v7h-7V137.9z M363,137.9h7v7h-7V137.9z M370.3,137.9h7v7h-7
		V137.9z M261.4,145.2h7v7h-7V145.2z M268.6,145.2h7v7h-7V145.2z M319.4,145.2h7v7h-7V145.2z M326.7,145.2h7v7h-7V145.2z
		 M370.3,145.2h7v7h-7V145.2z M261.4,152.5h7v7h-7V152.5z M268.6,152.5h7v7h-7V152.5z M275.9,152.5h7v7h-7V152.5z M326.7,152.5h7v7
		h-7V152.5z M370.3,152.5h7v7h-7V152.5z M377.5,152.5h7v7h-7V152.5z M268.6,159.7h7v7h-7V159.7z M275.9,159.7h7v7h-7V159.7z
		 M283.1,159.7h7v7h-7V159.7z M290.4,159.7h7v7h-7V159.7z M304.9,159.7h7v7h-7V159.7z M326.7,159.7h7v7h-7V159.7z M355.7,159.7h7v7
		h-7V159.7z M363,159.7h7v7h-7V159.7z M370.3,159.7h7v7h-7V159.7z M377.5,159.7h7v7h-7V159.7z M384.8,159.7h7v7h-7V159.7z
		 M268.6,167h7v7h-7V167z M275.9,167h7v7h-7V167z M283.1,167h7v7h-7V167z M290.4,167h7v7h-7V167z M297.7,167h7v7h-7V167z M304.9,167
		h7v7h-7V167z M312.2,167h7v7h-7V167z M319.4,167h7v7h-7V167z M326.7,167h7v7h-7V167z M334,167h7v7h-7V167z M341.2,167h7v7h-7V167z
		 M348.5,167h7v7h-7V167z M377.5,167h7v7h-7V167z M384.8,167h7v7h-7V167z M392,167h7v7h-7V167z M275.9,174.2h7v7h-7V174.2z
		 M283.1,174.2h7v7h-7V174.2z M290.4,174.2h7v7h-7V174.2z M334,174.2h7v7h-7V174.2z M377.5,174.2h7v7h-7V174.2z M384.8,174.2h7v7h-7
		V174.2z M399.3,174.2h7v7h-7V174.2z M406.6,174.2h7v7h-7V174.2z M283.1,181.5h7v7h-7V181.5z M290.4,181.5h7v7h-7V181.5z M334,181.5
		h7v7h-7V181.5z M341.2,181.5h7v7h-7V181.5z M377.5,181.5h7v7h-7V181.5z M384.8,181.5h7v7h-7V181.5z M406.6,181.5h7v7h-7V181.5z
		 M413.8,181.5h7v7h-7V181.5z M421.1,181.5h7v7h-7V181.5z M290.4,188.8h7v7h-7V188.8z M297.7,188.8h7v7h-7V188.8z M334,188.8h7v7h-7
		V188.8z M341.2,188.8h7v7h-7V188.8z M377.5,188.8h7v7h-7V188.8z M384.8,188.8h7v7h-7V188.8z M421.1,188.8h7v7h-7V188.8z
		 M428.3,188.8h7v7h-7V188.8z M435.6,188.8h7v7h-7V188.8z M290.4,196h7v7h-7V196z M297.7,196h7v7h-7V196z M304.9,196h7v7h-7V196z
		 M341.2,196h7v7h-7V196z M384.8,196h7v7h-7V196z M421.1,196h7v7h-7V196z M442.9,196h7v7h-7V196z M297.7,203.3h7v7h-7V203.3z
		 M304.9,203.3h7v7h-7V203.3z M341.2,203.3h7v7h-7V203.3z M384.8,203.3h7v7h-7V203.3z M392,203.3h7v7h-7V203.3z M421.1,203.3h7v7h-7
		V203.3z M442.9,203.3h7v7h-7V203.3z M450.1,203.3h7v7h-7V203.3z M297.7,210.5h7v7h-7V210.5z M304.9,210.5h7v7h-7V210.5z
		 M312.2,210.5h7v7h-7V210.5z M341.2,210.5h7v7h-7V210.5z M348.5,210.5h7v7h-7V210.5z M384.8,210.5h7v7h-7V210.5z M392,210.5h7v7h-7
		V210.5z M421.1,210.5h7v7h-7V210.5z M442.9,210.5h7v7h-7V210.5z M450.1,210.5h7v7h-7V210.5z M304.9,217.8h7v7h-7V217.8z
		 M312.2,217.8h7v7h-7V217.8z M348.5,217.8h7v7h-7V217.8z M370.3,217.8h7v7h-7V217.8z M377.5,217.8h7v7h-7V217.8z M384.8,217.8h7v7
		h-7V217.8z M392,217.8h7v7h-7V217.8z M421.1,217.8h7v7h-7V217.8z M428.3,217.8h7v7h-7V217.8z M450.1,217.8h7v7h-7V217.8z
		 M304.9,225.1h7v7h-7V225.1z M312.2,225.1h7v7h-7V225.1z M319.4,225.1h7v7h-7V225.1z M326.7,225.1h7v7h-7V225.1z M334,225.1h7v7h-7
		V225.1z M341.2,225.1h7v7h-7V225.1z M348.5,225.1h7v7h-7V225.1z M355.7,225.1h7v7h-7V225.1z M363,225.1h7v7h-7V225.1z M370.3,225.1
		h7v7h-7V225.1z M392,225.1h7v7h-7V225.1z M399.3,225.1h7v7h-7V225.1z M428.3,225.1h7v7h-7V225.1z M450.1,225.1h7v7h-7V225.1z
		 M312.2,232.3h7v7h-7V232.3z M319.4,232.3h7v7h-7V232.3z M348.5,232.3h7v7h-7V232.3z M355.7,232.3h7v7h-7V232.3z M392,232.3h7v7h-7
		V232.3z M399.3,232.3h7v7h-7V232.3z M428.3,232.3h7v7h-7V232.3z M450.1,232.3h7v7h-7V232.3z M312.2,239.6h7v7h-7V239.6z
		 M319.4,239.6h7v7h-7V239.6z M326.7,239.6h7v7h-7V239.6z M355.7,239.6h7v7h-7V239.6z M392,239.6h7v7h-7V239.6z M399.3,239.6h7v7h-7
		V239.6z M428.3,239.6h7v7h-7V239.6z M450.1,239.6h7v7h-7V239.6z M319.4,246.8h7v7h-7V246.8z M326.7,246.8h7v7h-7V246.8z
		 M355.7,246.8h7v7h-7V246.8z M392,246.8h7v7h-7V246.8z M399.3,246.8h7v7h-7V246.8z M428.3,246.8h7v7h-7V246.8z M450.1,246.8h7v7h-7
		V246.8z M319.4,254.1h7v7h-7V254.1z M326.7,254.1h7v7h-7V254.1z M334,254.1h7v7h-7V254.1z M355.7,254.1h7v7h-7V254.1z M363,254.1h7
		v7h-7V254.1z M399.3,254.1h7v7h-7V254.1z M406.6,254.1h7v7h-7V254.1z M413.8,254.1h7v7h-7V254.1z M421.1,254.1h7v7h-7V254.1z
		 M428.3,254.1h7v7h-7V254.1z M450.1,254.1h7v7h-7V254.1z M326.7,261.4h7v7h-7V261.4z M334,261.4h7v7h-7V261.4z M363,261.4h7v7h-7
		V261.4z M399.3,261.4h7v7h-7V261.4z M406.6,261.4h7v7h-7V261.4z M413.8,261.4h7v7h-7V261.4z M421.1,261.4h7v7h-7V261.4z
		 M428.3,261.4h7v7h-7V261.4z M435.6,261.4h7v7h-7V261.4z M442.9,261.4h7v7h-7V261.4z M450.1,261.4h7v7h-7V261.4z M326.7,268.6h7v7
		h-7V268.6z M334,268.6h7v7h-7V268.6z M341.2,268.6h7v7h-7V268.6z M363,268.6h7v7h-7V268.6z M399.3,268.6h7v7h-7V268.6z
		 M406.6,268.6h7v7h-7V268.6z M428.3,268.6h7v7h-7V268.6z M450.1,268.6h7v7h-7V268.6z M334,275.9h7v7h-7V275.9z M341.2,275.9h7v7h-7
		V275.9z M363,275.9h7v7h-7V275.9z M370.3,275.9h7v7h-7V275.9z M399.3,275.9h7v7h-7V275.9z M406.6,275.9h7v7h-7V275.9z M428.3,275.9
		h7v7h-7V275.9z M450.1,275.9h7v7h-7V275.9z M341.2,283.1h7v7h-7V283.1z M348.5,283.1h7v7h-7V283.1z M363,283.1h7v7h-7V283.1z
		 M370.3,283.1h7v7h-7V283.1z M406.6,283.1h7v7h-7V283.1z M413.8,283.1h7v7h-7V283.1z M428.3,283.1h7v7h-7V283.1z M450.1,283.1h7v7
		h-7V283.1z M457.4,283.1h7v7h-7V283.1z M341.2,290.4h7v7h-7V290.4z M348.5,290.4h7v7h-7V290.4z M355.7,290.4h7v7h-7V290.4z
		 M370.3,290.4h7v7h-7V290.4z M406.6,290.4h7v7h-7V290.4z M413.8,290.4h7v7h-7V290.4z M428.3,290.4h7v7h-7V290.4z M450.1,290.4h7v7
		h-7V290.4z M457.4,290.4h7v7h-7V290.4z M348.5,297.7h7v7h-7V297.7z M355.7,297.7h7v7h-7V297.7z M363,297.7h7v7h-7V297.7z
		 M370.3,297.7h7v7h-7V297.7z M377.5,297.7h7v7h-7V297.7z M384.8,297.7h7v7h-7V297.7z M392,297.7h7v7h-7V297.7z M399.3,297.7h7v7h-7
		V297.7z M406.6,297.7h7v7h-7V297.7z M413.8,297.7h7v7h-7V297.7z M428.3,297.7h7v7h-7V297.7z M450.1,297.7h7v7h-7V297.7z
		 M457.4,297.7h7v7h-7V297.7z M348.5,304.9h7v7h-7V304.9z M355.7,304.9h7v7h-7V304.9z M363,304.9h7v7h-7V304.9z M370.3,304.9h7v7h-7
		V304.9z M377.5,304.9h7v7h-7V304.9z M384.8,304.9h7v7h-7V304.9z M392,304.9h7v7h-7V304.9z M399.3,304.9h7v7h-7V304.9z M406.6,304.9
		h7v7h-7V304.9z M413.8,304.9h7v7h-7V304.9z M428.3,304.9h7v7h-7V304.9z M435.6,304.9h7v7h-7V304.9z M450.1,304.9h7v7h-7V304.9z
		 M457.4,304.9h7v7h-7V304.9z M355.7,312.2h7v7h-7V312.2z M363,312.2h7v7h-7V312.2z M370.3,312.2h7v7h-7V312.2z M377.5,312.2h7v7h-7
		V312.2z M413.8,312.2h7v7h-7V312.2z M421.1,312.2h7v7h-7V312.2z M435.6,312.2h7v7h-7V312.2z M450.1,312.2h7v7h-7V312.2z
		 M457.4,312.2h7v7h-7V312.2z M363,319.4h7v7h-7V319.4z M370.3,319.4h7v7h-7V319.4z M413.8,319.4h7v7h-7V319.4z M421.1,319.4h7v7h-7
		V319.4z M435.6,319.4h7v7h-7V319.4z M450.1,319.4h7v7h-7V319.4z M457.4,319.4h7v7h-7V319.4z M363,326.7h7v7h-7V326.7z M370.3,326.7
		h7v7h-7V326.7z M377.5,326.7h7v7h-7V326.7z M413.8,326.7h7v7h-7V326.7z M421.1,326.7h7v7h-7V326.7z M435.6,326.7h7v7h-7V326.7z
		 M450.1,326.7h7v7h-7V326.7z M457.4,326.7h7v7h-7V326.7z M370.3,334h7v7h-7V334z M377.5,334h7v7h-7V334z M421.1,334h7v7h-7V334z
		 M428.3,334h7v7h-7V334z M435.6,334h7v7h-7V334z M450.1,334h7v7h-7V334z M457.4,334h7v7h-7V334z M370.3,341.2h7v7h-7V341.2z
		 M377.5,341.2h7v7h-7V341.2z M421.1,341.2h7v7h-7V341.2z M428.3,341.2h7v7h-7V341.2z M435.6,341.2h7v7h-7V341.2z M442.9,341.2h7v7
		h-7V341.2z M450.1,341.2h7v7h-7V341.2z M457.4,341.2h7v7h-7V341.2z M377.5,348.5h7v7h-7V348.5z M384.8,348.5h7v7h-7V348.5z
		 M421.1,348.5h7v7h-7V348.5z M428.3,348.5h7v7h-7V348.5z M435.6,348.5h7v7h-7V348.5z M442.9,348.5h7v7h-7V348.5z M377.5,355.7h7v7
		h-7V355.7z M384.8,355.7h7v7h-7V355.7z M392,355.7h7v7h-7V355.7z M421.1,355.7h7v7h-7V355.7z M428.3,355.7h7v7h-7V355.7z
		 M384.8,363h7v7h-7V363z M392,363h7v7h-7V363z M421.1,363h7v7h-7V363z M428.3,363h7v7h-7V363z M392,370.3h7v7h-7V370.3z
		 M399.3,370.3h7v7h-7V370.3z M428.3,370.3h7v7h-7V370.3z M435.6,370.3h7v7h-7V370.3z M392,377.5h7v7h-7V377.5z M399.3,377.5h7v7h-7
		V377.5z M428.3,377.5h7v7h-7V377.5z M435.6,377.5h7v7h-7V377.5z M399.3,384.8h7v7h-7V384.8z M406.6,384.8h7v7h-7V384.8z
		 M428.3,384.8h7v7h-7V384.8z M435.6,384.8h7v7h-7V384.8z M399.3,392h7v7h-7V392z M406.6,392h7v7h-7V392z M413.8,392h7v7h-7V392z
		 M428.3,392h7v7h-7V392z M435.6,392h7v7h-7V392z M406.6,399.3h7v7h-7V399.3z M413.8,399.3h7v7h-7V399.3z M428.3,399.3h7v7h-7V399.3
		z M435.6,399.3h7v7h-7V399.3z M413.8,406.6h7v7h-7V406.6z M421.1,406.6h7v7h-7V406.6z M428.3,406.6h7v7h-7V406.6z M435.6,406.6h7v7
		h-7V406.6z M413.8,413.8h7v7h-7V413.8z M421.1,413.8h7v7h-7V413.8z M428.3,413.8h7v7h-7V413.8z M435.6,413.8h7v7h-7V413.8z
		 M421.1,421.1h7v7h-7V421.1z M428.3,421.1h7v7h-7V421.1z M435.6,421.1h7v7h-7V421.1z M421.1,428.3h7v7h-7V428.3z M428.3,428.3h7v7
		h-7V428.3z M435.6,428.3h7v7h-7V428.3z M442.9,428.3h7v7h-7V428.3z M421.1,435.6h7v7h-7V435.6z M428.3,435.6h7v7h-7V435.6z
		 M435.6,435.6h7v7h-7V435.6z M442.9,435.6h7v7h-7V435.6z M450.1,435.6h7v7h-7V435.6z M413.8,442.9h7v7h-7V442.9z M421.1,442.9h7v7
		h-7V442.9z M450.1,442.9h7v7h-7V442.9z M457.4,442.9h7v7h-7V442.9z M413.8,450.1h7v7h-7V450.1z M421.1,450.1h7v7h-7V450.1z
		 M457.4,450.1h7v7h-7V450.1z M464.6,450.1h7v7h-7V450.1z M471.9,450.1h7v7h-7V450.1z M479.2,450.1h7v7h-7V450.1z M500.9,450.1h7v7
		h-7V450.1z M508.2,450.1h7v7h-7V450.1z M413.8,457.4h7v7h-7V457.4z M421.1,457.4h7v7h-7V457.4z M450.1,457.4h7v7h-7V457.4z
		 M457.4,457.4h7v7h-7V457.4z M464.6,457.4h7v7h-7V457.4z M471.9,457.4h7v7h-7V457.4z M479.2,457.4h7v7h-7V457.4z M486.4,457.4h7v7
		h-7V457.4z M493.7,457.4h7v7h-7V457.4z M500.9,457.4h7v7h-7V457.4z M508.2,457.4h7v7h-7V457.4z M515.5,457.4h7v7h-7V457.4z
		 M522.7,457.4h7v7h-7V457.4z M530,457.4h7v7h-7V457.4z M537.2,457.4h7v7h-7V457.4z M544.5,457.4h7v7h-7V457.4z M551.8,457.4h7v7h-7
		V457.4z M559,457.4h7v7h-7V457.4z M566.3,457.4h7v7h-7V457.4z M573.5,457.4h7v7h-7V457.4z M580.8,457.4h7v7h-7V457.4z M588.1,457.4
		h7v7h-7V457.4z M595.3,457.4h7v7h-7V457.4z M602.6,457.4h7v7h-7V457.4z M609.8,457.4h7v7h-7V457.4z M617.1,457.4h7v7h-7V457.4z
		 M624.4,457.4h7v7h-7V457.4z M631.6,457.4h7v7h-7V457.4z M638.9,457.4h7v7h-7V457.4z M646.1,457.4h7v7h-7V457.4z M653.4,457.4h7v7
		h-7V457.4z M660.7,457.4h7v7h-7V457.4z M667.9,457.4h7v7h-7V457.4z M413.8,464.6h7v7h-7V464.6z M421.1,464.6h7v7h-7V464.6z
		 M428.3,464.6h7v7h-7V464.6z M435.6,464.6h7v7h-7V464.6z M442.9,464.6h7v7h-7V464.6z M450.1,464.6h7v7h-7V464.6z M457.4,464.6h7v7
		h-7V464.6z M464.6,464.6h7v7h-7V464.6z M471.9,464.6h7v7h-7V464.6z M479.2,464.6h7v7h-7V464.6z M493.7,464.6h7v7h-7V464.6z
		 M500.9,464.6h7v7h-7V464.6z M508.2,464.6h7v7h-7V464.6z M515.5,464.6h7v7h-7V464.6z M522.7,464.6h7v7h-7V464.6z M530,464.6h7v7h-7
		V464.6z M537.2,464.6h7v7h-7V464.6z M544.5,464.6h7v7h-7V464.6z M551.8,464.6h7v7h-7V464.6z M559,464.6h7v7h-7V464.6z M566.3,464.6
		h7v7h-7V464.6z M573.5,464.6h7v7h-7V464.6z M580.8,464.6h7v7h-7V464.6z M588.1,464.6h7v7h-7V464.6z M595.3,464.6h7v7h-7V464.6z
		 M602.6,464.6h7v7h-7V464.6z M609.8,464.6h7v7h-7V464.6z M617.1,464.6h7v7h-7V464.6z M624.4,464.6h7v7h-7V464.6z M631.6,464.6h7v7
		h-7V464.6z M638.9,464.6h7v7h-7V464.6z M646.1,464.6h7v7h-7V464.6z M653.4,464.6h7v7h-7V464.6z M660.7,464.6h7v7h-7V464.6z
		 M667.9,464.6h7v7h-7V464.6z M675.2,464.6h7v7h-7V464.6z M682.4,464.6h7v7h-7V464.6z M689.7,464.6h7v7h-7V464.6z M697,464.6h7v7h-7
		V464.6z M704.2,464.6h7v7h-7V464.6z M711.5,464.6h7v7h-7V464.6z M718.7,464.6h7v7h-7V464.6z M726,464.6h7v7h-7V464.6z M733.3,464.6
		h7v7h-7V464.6z M740.5,464.6h7v7h-7V464.6z M747.8,464.6h7v7h-7V464.6z M755,464.6h7v7h-7V464.6z M762.3,464.6h7v7h-7V464.6z
		 M769.6,464.6h7v7h-7V464.6z M776.8,464.6h7v7h-7V464.6z M784.1,464.6h7v7h-7V464.6z M791.3,464.6h7v7h-7V464.6z M798.6,464.6h7v7
		h-7V464.6z M805.9,464.6h7v7h-7V464.6z M813.1,464.6h7v7h-7V464.6z M820.4,464.6h7v7h-7V464.6z M827.6,464.6h7v7h-7V464.6z
		 M834.9,464.6h7v7h-7V464.6z M842.2,464.6h7v7h-7V464.6z M849.4,464.6h7v7h-7V464.6z M399.3,471.9h7v7h-7V471.9z M406.6,471.9h7v7
		h-7V471.9z M413.8,471.9h7v7h-7V471.9z M421.1,471.9h7v7h-7V471.9z M428.3,471.9h7v7h-7V471.9z M435.6,471.9h7v7h-7V471.9z
		 M442.9,471.9h7v7h-7V471.9z M450.1,471.9h7v7h-7V471.9z M471.9,471.9h7v7h-7V471.9z M479.2,471.9h7v7h-7V471.9z M486.4,471.9h7v7
		h-7V471.9z M493.7,471.9h7v7h-7V471.9z M500.9,471.9h7v7h-7V471.9z M588.1,471.9h7v7h-7V471.9z M595.3,471.9h7v7h-7V471.9z
		 M602.6,471.9h7v7h-7V471.9z M609.8,471.9h7v7h-7V471.9z M617.1,471.9h7v7h-7V471.9z M624.4,471.9h7v7h-7V471.9z M653.4,471.9h7v7
		h-7V471.9z M660.7,471.9h7v7h-7V471.9z M667.9,471.9h7v7h-7V471.9z M675.2,471.9h7v7h-7V471.9z M682.4,471.9h7v7h-7V471.9z
		 M689.7,471.9h7v7h-7V471.9z M697,471.9h7v7h-7V471.9z M704.2,471.9h7v7h-7V471.9z M711.5,471.9h7v7h-7V471.9z M718.7,471.9h7v7h-7
		V471.9z M726,471.9h7v7h-7V471.9z M733.3,471.9h7v7h-7V471.9z M740.5,471.9h7v7h-7V471.9z M747.8,471.9h7v7h-7V471.9z M755,471.9h7
		v7h-7V471.9z M762.3,471.9h7v7h-7V471.9z M769.6,471.9h7v7h-7V471.9z M776.8,471.9h7v7h-7V471.9z M784.1,471.9h7v7h-7V471.9z
		 M791.3,471.9h7v7h-7V471.9z M798.6,471.9h7v7h-7V471.9z M805.9,471.9h7v7h-7V471.9z M813.1,471.9h7v7h-7V471.9z M820.4,471.9h7v7
		h-7V471.9z M827.6,471.9h7v7h-7V471.9z M834.9,471.9h7v7h-7V471.9z M842.2,471.9h7v7h-7V471.9z M849.4,471.9h7v7h-7V471.9z
		 M392,479.2h7v7h-7V479.2z M399.3,479.2h7v7h-7V479.2z M406.6,479.2h7v7h-7V479.2z M413.8,479.2h7v7h-7V479.2z M421.1,479.2h7v7h-7
		V479.2z M428.3,479.2h7v7h-7V479.2z M479.2,479.2h7v7h-7V479.2z M486.4,479.2h7v7h-7V479.2z M493.7,479.2h7v7h-7V479.2z
		 M500.9,479.2h7v7h-7V479.2z M508.2,479.2h7v7h-7V479.2z M602.6,479.2h7v7h-7V479.2z M609.8,479.2h7v7h-7V479.2z M697,479.2h7v7h-7
		V479.2z M704.2,479.2h7v7h-7V479.2z M769.6,479.2h7v7h-7V479.2z M776.8,479.2h7v7h-7V479.2z M834.9,479.2h7v7h-7V479.2z
		 M842.2,479.2h7v7h-7V479.2z M849.4,479.2h7v7h-7V479.2z M384.8,486.4h7v7h-7V486.4z M392,486.4h7v7h-7V486.4z M399.3,486.4h7v7h-7
		V486.4z M406.6,486.4h7v7h-7V486.4z M413.8,486.4h7v7h-7V486.4z M421.1,486.4h7v7h-7V486.4z M428.3,486.4h7v7h-7V486.4z
		 M493.7,486.4h7v7h-7V486.4z M500.9,486.4h7v7h-7V486.4z M508.2,486.4h7v7h-7V486.4z M515.5,486.4h7v7h-7V486.4z M522.7,486.4h7v7
		h-7V486.4z M595.3,486.4h7v7h-7V486.4z M602.6,486.4h7v7h-7V486.4z M609.8,486.4h7v7h-7V486.4z M617.1,486.4h7v7h-7V486.4z
		 M624.4,486.4h7v7h-7V486.4z M631.6,486.4h7v7h-7V486.4z M638.9,486.4h7v7h-7V486.4z M689.7,486.4h7v7h-7V486.4z M697,486.4h7v7h-7
		V486.4z M769.6,486.4h7v7h-7V486.4z M827.6,486.4h7v7h-7V486.4z M834.9,486.4h7v7h-7V486.4z M842.2,486.4h7v7h-7V486.4z
		 M377.5,493.7h7v7h-7V493.7z M384.8,493.7h7v7h-7V493.7z M392,493.7h7v7h-7V493.7z M399.3,493.7h7v7h-7V493.7z M406.6,493.7h7v7h-7
		V493.7z M413.8,493.7h7v7h-7V493.7z M421.1,493.7h7v7h-7V493.7z M508.2,493.7h7v7h-7V493.7z M515.5,493.7h7v7h-7V493.7z
		 M522.7,493.7h7v7h-7V493.7z M530,493.7h7v7h-7V493.7z M537.2,493.7h7v7h-7V493.7z M595.3,493.7h7v7h-7V493.7z M602.6,493.7h7v7h-7
		V493.7z M638.9,493.7h7v7h-7V493.7z M646.1,493.7h7v7h-7V493.7z M653.4,493.7h7v7h-7V493.7z M660.7,493.7h7v7h-7V493.7z
		 M667.9,493.7h7v7h-7V493.7z M675.2,493.7h7v7h-7V493.7z M682.4,493.7h7v7h-7V493.7z M689.7,493.7h7v7h-7V493.7z M762.3,493.7h7v7
		h-7V493.7z M769.6,493.7h7v7h-7V493.7z M820.4,493.7h7v7h-7V493.7z M827.6,493.7h7v7h-7V493.7z M834.9,493.7h7v7h-7V493.7z
		 M334,500.9h7v7h-7V500.9z M370.3,500.9h7v7h-7V500.9z M377.5,500.9h7v7h-7V500.9z M384.8,500.9h7v7h-7V500.9z M392,500.9h7v7h-7
		V500.9z M406.6,500.9h7v7h-7V500.9z M413.8,500.9h7v7h-7V500.9z M421.1,500.9h7v7h-7V500.9z M530,500.9h7v7h-7V500.9z M537.2,500.9
		h7v7h-7V500.9z M544.5,500.9h7v7h-7V500.9z M551.8,500.9h7v7h-7V500.9z M559,500.9h7v7h-7V500.9z M588.1,500.9h7v7h-7V500.9z
		 M595.3,500.9h7v7h-7V500.9z M675.2,500.9h7v7h-7V500.9z M682.4,500.9h7v7h-7V500.9z M689.7,500.9h7v7h-7V500.9z M697,500.9h7v7h-7
		V500.9z M704.2,500.9h7v7h-7V500.9z M755,500.9h7v7h-7V500.9z M762.3,500.9h7v7h-7V500.9z M813.1,500.9h7v7h-7V500.9z M820.4,500.9
		h7v7h-7V500.9z M827.6,500.9h7v7h-7V500.9z M326.7,508.2h7v7h-7V508.2z M334,508.2h7v7h-7V508.2z M341.2,508.2h7v7h-7V508.2z
		 M370.3,508.2h7v7h-7V508.2z M377.5,508.2h7v7h-7V508.2z M399.3,508.2h7v7h-7V508.2z M406.6,508.2h7v7h-7V508.2z M413.8,508.2h7v7
		h-7V508.2z M537.2,508.2h7v7h-7V508.2z M544.5,508.2h7v7h-7V508.2z M551.8,508.2h7v7h-7V508.2z M559,508.2h7v7h-7V508.2z
		 M566.3,508.2h7v7h-7V508.2z M573.5,508.2h7v7h-7V508.2z M580.8,508.2h7v7h-7V508.2z M588.1,508.2h7v7h-7V508.2z M595.3,508.2h7v7
		h-7V508.2z M682.4,508.2h7v7h-7V508.2z M711.5,508.2h7v7h-7V508.2z M718.7,508.2h7v7h-7V508.2z M726,508.2h7v7h-7V508.2z
		 M733.3,508.2h7v7h-7V508.2z M747.8,508.2h7v7h-7V508.2z M755,508.2h7v7h-7V508.2z M805.9,508.2h7v7h-7V508.2z M813.1,508.2h7v7h-7
		V508.2z M820.4,508.2h7v7h-7V508.2z M312.2,515.5h7v7h-7V515.5z M319.4,515.5h7v7h-7V515.5z M326.7,515.5h7v7h-7V515.5z
		 M341.2,515.5h7v7h-7V515.5z M348.5,515.5h7v7h-7V515.5z M355.7,515.5h7v7h-7V515.5z M363,515.5h7v7h-7V515.5z M370.3,515.5h7v7h-7
		V515.5z M399.3,515.5h7v7h-7V515.5z M406.6,515.5h7v7h-7V515.5z M537.2,515.5h7v7h-7V515.5z M544.5,515.5h7v7h-7V515.5z
		 M551.8,515.5h7v7h-7V515.5z M573.5,515.5h7v7h-7V515.5z M580.8,515.5h7v7h-7V515.5z M588.1,515.5h7v7h-7V515.5z M595.3,515.5h7v7
		h-7V515.5z M602.6,515.5h7v7h-7V515.5z M609.8,515.5h7v7h-7V515.5z M682.4,515.5h7v7h-7V515.5z M733.3,515.5h7v7h-7V515.5z
		 M740.5,515.5h7v7h-7V515.5z M747.8,515.5h7v7h-7V515.5z M755,515.5h7v7h-7V515.5z M762.3,515.5h7v7h-7V515.5z M769.6,515.5h7v7h-7
		V515.5z M805.9,515.5h7v7h-7V515.5z M813.1,515.5h7v7h-7V515.5z M304.9,522.7h7v7h-7V522.7z M312.2,522.7h7v7h-7V522.7z
		 M319.4,522.7h7v7h-7V522.7z M341.2,522.7h7v7h-7V522.7z M348.5,522.7h7v7h-7V522.7z M355.7,522.7h7v7h-7V522.7z M363,522.7h7v7h-7
		V522.7z M392,522.7h7v7h-7V522.7z M399.3,522.7h7v7h-7V522.7z M406.6,522.7h7v7h-7V522.7z M530,522.7h7v7h-7V522.7z M537.2,522.7h7
		v7h-7V522.7z M559,522.7h7v7h-7V522.7z M566.3,522.7h7v7h-7V522.7z M595.3,522.7h7v7h-7V522.7z M602.6,522.7h7v7h-7V522.7z
		 M609.8,522.7h7v7h-7V522.7z M617.1,522.7h7v7h-7V522.7z M624.4,522.7h7v7h-7V522.7z M631.6,522.7h7v7h-7V522.7z M638.9,522.7h7v7
		h-7V522.7z M675.2,522.7h7v7h-7V522.7z M740.5,522.7h7v7h-7V522.7z M747.8,522.7h7v7h-7V522.7z M769.6,522.7h7v7h-7V522.7z
		 M776.8,522.7h7v7h-7V522.7z M784.1,522.7h7v7h-7V522.7z M791.3,522.7h7v7h-7V522.7z M798.6,522.7h7v7h-7V522.7z M805.9,522.7h7v7
		h-7V522.7z M813.1,522.7h7v7h-7V522.7z M297.7,530h7v7h-7V530z M304.9,530h7v7h-7V530z M334,530h7v7h-7V530z M341.2,530h7v7h-7V530
		z M348.5,530h7v7h-7V530z M355.7,530h7v7h-7V530z M392,530h7v7h-7V530z M399.3,530h7v7h-7V530z M530,530h7v7h-7V530z M537.2,530h7
		v7h-7V530z M544.5,530h7v7h-7V530z M573.5,530h7v7h-7V530z M580.8,530h7v7h-7V530z M624.4,530h7v7h-7V530z M631.6,530h7v7h-7V530z
		 M638.9,530h7v7h-7V530z M646.1,530h7v7h-7V530z M653.4,530h7v7h-7V530z M660.7,530h7v7h-7V530z M675.2,530h7v7h-7V530z M740.5,530
		h7v7h-7V530z M798.6,530h7v7h-7V530z M805.9,530h7v7h-7V530z M290.4,537.2h7v7h-7V537.2z M297.7,537.2h7v7h-7V537.2z M326.7,537.2
		h7v7h-7V537.2z M341.2,537.2h7v7h-7V537.2z M348.5,537.2h7v7h-7V537.2z M392,537.2h7v7h-7V537.2z M399.3,537.2h7v7h-7V537.2z
		 M537.2,537.2h7v7h-7V537.2z M544.5,537.2h7v7h-7V537.2z M551.8,537.2h7v7h-7V537.2z M559,537.2h7v7h-7V537.2z M588.1,537.2h7v7h-7
		V537.2z M595.3,537.2h7v7h-7V537.2z M624.4,537.2h7v7h-7V537.2z M631.6,537.2h7v7h-7V537.2z M646.1,537.2h7v7h-7V537.2z
		 M653.4,537.2h7v7h-7V537.2z M660.7,537.2h7v7h-7V537.2z M667.9,537.2h7v7h-7V537.2z M675.2,537.2h7v7h-7V537.2z M682.4,537.2h7v7
		h-7V537.2z M740.5,537.2h7v7h-7V537.2z M791.3,537.2h7v7h-7V537.2z M798.6,537.2h7v7h-7V537.2z M275.9,544.5h7v7h-7V544.5z
		 M283.1,544.5h7v7h-7V544.5z M290.4,544.5h7v7h-7V544.5z M312.2,544.5h7v7h-7V544.5z M319.4,544.5h7v7h-7V544.5z M334,544.5h7v7h-7
		V544.5z M341.2,544.5h7v7h-7V544.5z M384.8,544.5h7v7h-7V544.5z M392,544.5h7v7h-7V544.5z M551.8,544.5h7v7h-7V544.5z M559,544.5h7
		v7h-7V544.5z M566.3,544.5h7v7h-7V544.5z M573.5,544.5h7v7h-7V544.5z M602.6,544.5h7v7h-7V544.5z M609.8,544.5h7v7h-7V544.5z
		 M617.1,544.5h7v7h-7V544.5z M624.4,544.5h7v7h-7V544.5z M667.9,544.5h7v7h-7V544.5z M675.2,544.5h7v7h-7V544.5z M682.4,544.5h7v7
		h-7V544.5z M689.7,544.5h7v7h-7V544.5z M697,544.5h7v7h-7V544.5z M704.2,544.5h7v7h-7V544.5z M733.3,544.5h7v7h-7V544.5z
		 M740.5,544.5h7v7h-7V544.5z M791.3,544.5h7v7h-7V544.5z M798.6,544.5h7v7h-7V544.5z M268.6,551.8h7v7h-7V551.8z M275.9,551.8h7v7
		h-7V551.8z M304.9,551.8h7v7h-7V551.8z M312.2,551.8h7v7h-7V551.8z M326.7,551.8h7v7h-7V551.8z M334,551.8h7v7h-7V551.8z
		 M341.2,551.8h7v7h-7V551.8z M384.8,551.8h7v7h-7V551.8z M392,551.8h7v7h-7V551.8z M559,551.8h7v7h-7V551.8z M566.3,551.8h7v7h-7
		V551.8z M573.5,551.8h7v7h-7V551.8z M580.8,551.8h7v7h-7V551.8z M609.8,551.8h7v7h-7V551.8z M617.1,551.8h7v7h-7V551.8z
		 M624.4,551.8h7v7h-7V551.8z M704.2,551.8h7v7h-7V551.8z M711.5,551.8h7v7h-7V551.8z M718.7,551.8h7v7h-7V551.8z M726,551.8h7v7h-7
		V551.8z M733.3,551.8h7v7h-7V551.8z M740.5,551.8h7v7h-7V551.8z M791.3,551.8h7v7h-7V551.8z M261.4,559h7v7h-7V559z M268.6,559h7v7
		h-7V559z M275.9,559h7v7h-7V559z M297.7,559h7v7h-7V559z M326.7,559h7v7h-7V559z M334,559h7v7h-7V559z M377.5,559h7v7h-7V559z
		 M384.8,559h7v7h-7V559z M580.8,559h7v7h-7V559z M588.1,559h7v7h-7V559z M595.3,559h7v7h-7V559z M609.8,559h7v7h-7V559z M624.4,559
		h7v7h-7V559z M631.6,559h7v7h-7V559z M638.9,559h7v7h-7V559z M718.7,559h7v7h-7V559z M726,559h7v7h-7V559z M733.3,559h7v7h-7V559z
		 M740.5,559h7v7h-7V559z M747.8,559h7v7h-7V559z M755,559h7v7h-7V559z M791.3,559h7v7h-7V559z M254.1,566.3h7v7h-7V566.3z
		 M261.4,566.3h7v7h-7V566.3z M275.9,566.3h7v7h-7V566.3z M283.1,566.3h7v7h-7V566.3z M290.4,566.3h7v7h-7V566.3z M312.2,566.3h7v7
		h-7V566.3z M319.4,566.3h7v7h-7V566.3z M326.7,566.3h7v7h-7V566.3z M334,566.3h7v7h-7V566.3z M377.5,566.3h7v7h-7V566.3z
		 M384.8,566.3h7v7h-7V566.3z M588.1,566.3h7v7h-7V566.3z M595.3,566.3h7v7h-7V566.3z M602.6,566.3h7v7h-7V566.3z M638.9,566.3h7v7
		h-7V566.3z M646.1,566.3h7v7h-7V566.3z M653.4,566.3h7v7h-7V566.3z M660.7,566.3h7v7h-7V566.3z M711.5,566.3h7v7h-7V566.3z
		 M718.7,566.3h7v7h-7V566.3z M726,566.3h7v7h-7V566.3z M755,566.3h7v7h-7V566.3z M762.3,566.3h7v7h-7V566.3z M769.6,566.3h7v7h-7
		V566.3z M791.3,566.3h7v7h-7V566.3z M239.6,573.5h7v7h-7V573.5z M246.8,573.5h7v7h-7V573.5z M275.9,573.5h7v7h-7V573.5z
		 M283.1,573.5h7v7h-7V573.5z M312.2,573.5h7v7h-7V573.5z M319.4,573.5h7v7h-7V573.5z M326.7,573.5h7v7h-7V573.5z M334,573.5h7v7h-7
		V573.5z M341.2,573.5h7v7h-7V573.5z M370.3,573.5h7v7h-7V573.5z M377.5,573.5h7v7h-7V573.5z M602.6,573.5h7v7h-7V573.5z
		 M609.8,573.5h7v7h-7V573.5z M617.1,573.5h7v7h-7V573.5z M660.7,573.5h7v7h-7V573.5z M667.9,573.5h7v7h-7V573.5z M675.2,573.5h7v7
		h-7V573.5z M689.7,573.5h7v7h-7V573.5z M697,573.5h7v7h-7V573.5z M704.2,573.5h7v7h-7V573.5z M711.5,573.5h7v7h-7V573.5z
		 M769.6,573.5h7v7h-7V573.5z M776.8,573.5h7v7h-7V573.5z M784.1,573.5h7v7h-7V573.5z M791.3,573.5h7v7h-7V573.5z M232.3,580.8h7v7
		h-7V580.8z M239.6,580.8h7v7h-7V580.8z M268.6,580.8h7v7h-7V580.8z M275.9,580.8h7v7h-7V580.8z M283.1,580.8h7v7h-7V580.8z
		 M290.4,580.8h7v7h-7V580.8z M304.9,580.8h7v7h-7V580.8z M312.2,580.8h7v7h-7V580.8z M341.2,580.8h7v7h-7V580.8z M348.5,580.8h7v7
		h-7V580.8z M363,580.8h7v7h-7V580.8z M370.3,580.8h7v7h-7V580.8z M377.5,580.8h7v7h-7V580.8z M617.1,580.8h7v7h-7V580.8z
		 M624.4,580.8h7v7h-7V580.8z M631.6,580.8h7v7h-7V580.8z M675.2,580.8h7v7h-7V580.8z M682.4,580.8h7v7h-7V580.8z M689.7,580.8h7v7
		h-7V580.8z M784.1,580.8h7v7h-7V580.8z M225.1,588.1h7v7h-7V588.1z M232.3,588.1h7v7h-7V588.1z M261.4,588.1h7v7h-7V588.1z
		 M268.6,588.1h7v7h-7V588.1z M290.4,588.1h7v7h-7V588.1z M297.7,588.1h7v7h-7V588.1z M304.9,588.1h7v7h-7V588.1z M312.2,588.1h7v7
		h-7V588.1z M341.2,588.1h7v7h-7V588.1z M348.5,588.1h7v7h-7V588.1z M355.7,588.1h7v7h-7V588.1z M363,588.1h7v7h-7V588.1z
		 M370.3,588.1h7v7h-7V588.1z M631.6,588.1h7v7h-7V588.1z M638.9,588.1h7v7h-7V588.1z M646.1,588.1h7v7h-7V588.1z M667.9,588.1h7v7
		h-7V588.1z M675.2,588.1h7v7h-7V588.1z M217.8,595.3h7v7h-7V595.3z M225.1,595.3h7v7h-7V595.3z M254.1,595.3h7v7h-7V595.3z
		 M261.4,595.3h7v7h-7V595.3z M290.4,595.3h7v7h-7V595.3z M297.7,595.3h7v7h-7V595.3z M304.9,595.3h7v7h-7V595.3z M334,595.3h7v7h-7
		V595.3z M341.2,595.3h7v7h-7V595.3z M348.5,595.3h7v7h-7V595.3z M355.7,595.3h7v7h-7V595.3z M363,595.3h7v7h-7V595.3z M370.3,595.3
		h7v7h-7V595.3z M646.1,595.3h7v7h-7V595.3z M653.4,595.3h7v7h-7V595.3z M660.7,595.3h7v7h-7V595.3z M667.9,595.3h7v7h-7V595.3z
		 M217.8,602.6h7v7h-7V602.6z M246.8,602.6h7v7h-7V602.6z M254.1,602.6h7v7h-7V602.6z M290.4,602.6h7v7h-7V602.6z M297.7,602.6h7v7
		h-7V602.6z M334,602.6h7v7h-7V602.6z M341.2,602.6h7v7h-7V602.6z M355.7,602.6h7v7h-7V602.6z M363,602.6h7v7h-7V602.6z
		 M370.3,602.6h7v7h-7V602.6z M660.7,602.6h7v7h-7V602.6z M217.8,609.8h7v7h-7V609.8z M225.1,609.8h7v7h-7V609.8z M239.6,609.8h7v7
		h-7V609.8z M246.8,609.8h7v7h-7V609.8z M283.1,609.8h7v7h-7V609.8z M290.4,609.8h7v7h-7V609.8z M326.7,609.8h7v7h-7V609.8z
		 M334,609.8h7v7h-7V609.8z M355.7,609.8h7v7h-7V609.8z M363,609.8h7v7h-7V609.8z M217.8,617.1h7v7h-7V617.1z M225.1,617.1h7v7h-7
		V617.1z M232.3,617.1h7v7h-7V617.1z M239.6,617.1h7v7h-7V617.1z M275.9,617.1h7v7h-7V617.1z M283.1,617.1h7v7h-7V617.1z
		 M319.4,617.1h7v7h-7V617.1z M326.7,617.1h7v7h-7V617.1z M355.7,617.1h7v7h-7V617.1z M363,617.1h7v7h-7V617.1z M225.1,624.4h7v7h-7
		V624.4z M232.3,624.4h7v7h-7V624.4z M268.6,624.4h7v7h-7V624.4z M275.9,624.4h7v7h-7V624.4z M319.4,624.4h7v7h-7V624.4z
		 M326.7,624.4h7v7h-7V624.4z M348.5,624.4h7v7h-7V624.4z M355.7,624.4h7v7h-7V624.4z M225.1,631.6h7v7h-7V631.6z M232.3,631.6h7v7
		h-7V631.6z M261.4,631.6h7v7h-7V631.6z M268.6,631.6h7v7h-7V631.6z M275.9,631.6h7v7h-7V631.6z M312.2,631.6h7v7h-7V631.6z
		 M319.4,631.6h7v7h-7V631.6z M348.5,631.6h7v7h-7V631.6z M355.7,631.6h7v7h-7V631.6z M225.1,638.9h7v7h-7V638.9z M232.3,638.9h7v7
		h-7V638.9z M261.4,638.9h7v7h-7V638.9z M268.6,638.9h7v7h-7V638.9z M275.9,638.9h7v7h-7V638.9z M283.1,638.9h7v7h-7V638.9z
		 M304.9,638.9h7v7h-7V638.9z M312.2,638.9h7v7h-7V638.9z M341.2,638.9h7v7h-7V638.9z M348.5,638.9h7v7h-7V638.9z M225.1,646.1h7v7
		h-7V646.1z M232.3,646.1h7v7h-7V646.1z M254.1,646.1h7v7h-7V646.1z M261.4,646.1h7v7h-7V646.1z M283.1,646.1h7v7h-7V646.1z
		 M290.4,646.1h7v7h-7V646.1z M304.9,646.1h7v7h-7V646.1z M312.2,646.1h7v7h-7V646.1z M341.2,646.1h7v7h-7V646.1z M348.5,646.1h7v7
		h-7V646.1z M225.1,653.4h7v7h-7V653.4z M232.3,653.4h7v7h-7V653.4z M246.8,653.4h7v7h-7V653.4z M254.1,653.4h7v7h-7V653.4z
		 M290.4,653.4h7v7h-7V653.4z M297.7,653.4h7v7h-7V653.4z M304.9,653.4h7v7h-7V653.4z M334,653.4h7v7h-7V653.4z M341.2,653.4h7v7h-7
		V653.4z M348.5,653.4h7v7h-7V653.4z M225.1,660.7h7v7h-7V660.7z M232.3,660.7h7v7h-7V660.7z M239.6,660.7h7v7h-7V660.7z
		 M246.8,660.7h7v7h-7V660.7z M297.7,660.7h7v7h-7V660.7z M304.9,660.7h7v7h-7V660.7z M334,660.7h7v7h-7V660.7z M341.2,660.7h7v7h-7
		V660.7z M225.1,667.9h7v7h-7V667.9z M232.3,667.9h7v7h-7V667.9z M239.6,667.9h7v7h-7V667.9z M297.7,667.9h7v7h-7V667.9z
		 M304.9,667.9h7v7h-7V667.9z M312.2,667.9h7v7h-7V667.9z M326.7,667.9h7v7h-7V667.9z M334,667.9h7v7h-7V667.9z M341.2,667.9h7v7h-7
		V667.9z M225.1,675.2h7v7h-7V675.2z M232.3,675.2h7v7h-7V675.2z M290.4,675.2h7v7h-7V675.2z M304.9,675.2h7v7h-7V675.2z
		 M312.2,675.2h7v7h-7V675.2z M319.4,675.2h7v7h-7V675.2z M326.7,675.2h7v7h-7V675.2z M334,675.2h7v7h-7V675.2z M225.1,682.4h7v7h-7
		V682.4z M232.3,682.4h7v7h-7V682.4z M239.6,682.4h7v7h-7V682.4z M275.9,682.4h7v7h-7V682.4z M283.1,682.4h7v7h-7V682.4z
		 M312.2,682.4h7v7h-7V682.4z M319.4,682.4h7v7h-7V682.4z M326.7,682.4h7v7h-7V682.4z M334,682.4h7v7h-7V682.4z M217.8,689.7h7v7h-7
		V689.7z M225.1,689.7h7v7h-7V689.7z M239.6,689.7h7v7h-7V689.7z M246.8,689.7h7v7h-7V689.7z M268.6,689.7h7v7h-7V689.7z
		 M275.9,689.7h7v7h-7V689.7z M319.4,689.7h7v7h-7V689.7z M326.7,689.7h7v7h-7V689.7z M210.5,697h7v7h-7V697z M217.8,697h7v7h-7V697
		z M254.1,697h7v7h-7V697z M268.6,697h7v7h-7V697z M275.9,697h7v7h-7V697z M312.2,697h7v7h-7V697z M319.4,697h7v7h-7V697z
		 M326.7,697h7v7h-7V697z M203.3,704.2h7v7h-7V704.2z M210.5,704.2h7v7h-7V704.2z M261.4,704.2h7v7h-7V704.2z M268.6,704.2h7v7h-7
		V704.2z M312.2,704.2h7v7h-7V704.2z M319.4,704.2h7v7h-7V704.2z M203.3,711.5h7v7h-7V711.5z M261.4,711.5h7v7h-7V711.5z
		 M268.6,711.5h7v7h-7V711.5z M304.9,711.5h7v7h-7V711.5z M312.2,711.5h7v7h-7V711.5z M319.4,711.5h7v7h-7V711.5z M196,718.7h7v7h-7
		V718.7z M254.1,718.7h7v7h-7V718.7z M261.4,718.7h7v7h-7V718.7z M268.6,718.7h7v7h-7V718.7z M304.9,718.7h7v7h-7V718.7z
		 M312.2,718.7h7v7h-7V718.7z M188.8,726h7v7h-7V726z M196,726h7v7h-7V726z M203.3,726h7v7h-7V726z M254.1,726h7v7h-7V726z
		 M275.9,726h7v7h-7V726z M297.7,726h7v7h-7V726z M304.9,726h7v7h-7V726z M312.2,726h7v7h-7V726z M203.3,733.3h7v7h-7V733.3z
		 M210.5,733.3h7v7h-7V733.3z M246.8,733.3h7v7h-7V733.3z M254.1,733.3h7v7h-7V733.3z M275.9,733.3h7v7h-7V733.3z M283.1,733.3h7v7
		h-7V733.3z M297.7,733.3h7v7h-7V733.3z M304.9,733.3h7v7h-7V733.3z M210.5,740.5h7v7h-7V740.5z M217.8,740.5h7v7h-7V740.5z
		 M225.1,740.5h7v7h-7V740.5z M239.6,740.5h7v7h-7V740.5z M246.8,740.5h7v7h-7V740.5z M283.1,740.5h7v7h-7V740.5z M297.7,740.5h7v7
		h-7V740.5z M304.9,740.5h7v7h-7V740.5z M217.8,747.8h7v7h-7V747.8z M225.1,747.8h7v7h-7V747.8z M232.3,747.8h7v7h-7V747.8z
		 M239.6,747.8h7v7h-7V747.8z M290.4,747.8h7v7h-7V747.8z M297.7,747.8h7v7h-7V747.8z M304.9,747.8h7v7h-7V747.8z M225.1,755h7v7h-7
		V755z M232.3,755h7v7h-7V755z M239.6,755h7v7h-7V755z M290.4,755h7v7h-7V755z M297.7,755h7v7h-7V755z M232.3,762.3h7v7h-7V762.3z
		 M239.6,762.3h7v7h-7V762.3z M283.1,762.3h7v7h-7V762.3z M290.4,762.3h7v7h-7V762.3z M297.7,762.3h7v7h-7V762.3z M232.3,769.6h7v7
		h-7V769.6z M239.6,769.6h7v7h-7V769.6z M246.8,769.6h7v7h-7V769.6z M283.1,769.6h7v7h-7V769.6z M290.4,769.6h7v7h-7V769.6z
		 M239.6,776.8h7v7h-7V776.8z M246.8,776.8h7v7h-7V776.8z M254.1,776.8h7v7h-7V776.8z M283.1,776.8h7v7h-7V776.8z M290.4,776.8h7v7
		h-7V776.8z M239.6,784.1h7v7h-7V784.1z M246.8,784.1h7v7h-7V784.1z M254.1,784.1h7v7h-7V784.1z M275.9,784.1h7v7h-7V784.1z
		 M283.1,784.1h7v7h-7V784.1z M246.8,791.3h7v7h-7V791.3z M254.1,791.3h7v7h-7V791.3z M261.4,791.3h7v7h-7V791.3z M275.9,791.3h7v7
		h-7V791.3z M283.1,791.3h7v7h-7V791.3z M254.1,798.6h7v7h-7V798.6z M261.4,798.6h7v7h-7V798.6z M275.9,798.6h7v7h-7V798.6z
		 M283.1,798.6h7v7h-7V798.6z M254.1,805.9h7v7h-7V805.9z M261.4,805.9h7v7h-7V805.9z M268.6,805.9h7v7h-7V805.9z M275.9,805.9h7v7
		h-7V805.9z M261.4,813.1h7v7h-7V813.1z M268.6,813.1h7v7h-7V813.1z M275.9,813.1h7v7h-7V813.1z M261.4,820.4h7v7h-7V820.4z
		 M268.6,820.4h7v7h-7V820.4z"/>
</g>
</svg>
