<?xml version="1.0" encoding="utf-8"?>
<!-- Generator: Adobe Illustrator 27.3.1, SVG Export Plug-In . SVG Version: 6.00 Build 0)  -->
<svg version="1.1" xmlns="http://www.w3.org/2000/svg" xmlns:xlink="http://www.w3.org/1999/xlink" x="0px" y="0px"
	 viewBox="0 0 164.4 142.6" style="enable-background:new 0 0 164.4 142.6;" xml:space="preserve">
<style type="text/css">
	.st0{fill:#FBE3A2;}
	.st1{fill:#1E0E01;}
</style>
<g id="Слой_2">
</g>
<g id="Слой_1">
	<path class="st0" d="M162,101.5h-4.8v-4.7c0-1.4-1.1-2.5-2.5-2.5H150v-4.8c0-1.4-1.1-2.5-2.5-2.5h-7c0,0-0.1,0-0.1,0
		c0,0-0.1,0-0.1,0h-7c-1.4,0-2.5,1.1-2.5,2.5v4.8H126c-1.4,0-2.5,1.1-2.5,2.5v4.7h-2.5v-4.7c0-1.4-1.1-2.5-2.5-2.5h-4.8v-4.7
		c0-1.4-1.1-2.5-2.5-2.5h-7c0,0-0.1,0-0.1,0c0,0-0.1,0-0.1,0h-7c-1.4,0-2.5,1.1-2.5,2.5v4.7h-4.8c0,0-0.1,0-0.1,0c0,0-0.1,0-0.1,0
		h-4.8v-4.7c0-0.1,0-0.1,0-0.1c0-0.1,0-0.1,0-0.1v-7c0-1.4-1.1-2.5-2.5-2.5h-7c0,0-0.1,0-0.1,0c0,0-0.1,0-0.1,0h-4.8v-2.4h4.8
		c1.4,0,2.5-1.1,2.5-2.5v-7c0-0.1,0-0.1,0-0.1c0-0.1,0-0.1,0-0.1v-7c0-0.1,0-0.1,0-0.2c0-0.1,0-0.1,0-0.2v-4.8h4.7
		c0.1,0,0.1,0,0.1,0c0.1,0,0.1,0,0.1,0h7c0,0,0.1,0,0.1,0c0,0,0.1,0,0.1,0h7c0.1,0,0.1,0,0.1,0c0.1,0,0.1,0,0.1,0h7
		c0.1,0,0.1,0,0.1,0c0.1,0,0.1,0,0.1,0h7c1.4,0,2.5-1.1,2.5-2.5v-7c0-1.4-1.1-2.5-2.5-2.5h-7c-0.1,0-0.1,0-0.1,0c-0.1,0-0.1,0-0.1,0
		h-7c-0.1,0-0.1,0-0.1,0c-0.1,0-0.1,0-0.1,0h-7c0,0-0.1,0-0.1,0c0,0-0.1,0-0.1,0h-7c-0.1,0-0.1,0-0.1,0c-0.1,0-0.1,0-0.1,0h-4.7V41
		h4.7c0.1,0,0.1,0,0.1,0c0.1,0,0.1,0,0.1,0h7c0,0,0.1,0,0.1,0c0,0,0.1,0,0.1,0h7c0.1,0,0.1,0,0.1,0c0.1,0,0.1,0,0.1,0h7
		c0.1,0,0.1,0,0.1,0c0.1,0,0.1,0,0.1,0h7c0,0,0.1,0,0.1,0c0,0,0.1,0,0.1,0h7c0,0,0.1,0,0.1,0c0,0,0.1,0,0.1,0h7c0,0,0.1,0,0.1,0
		c0,0,0.1,0,0.1,0h7c0,0,0.1,0,0.1,0c0,0,0.1,0,0.1,0h7c1.4,0,2.5-1.1,2.5-2.5v-7c0-1.4-1.1-2.5-2.5-2.5h-7c0,0-0.1,0-0.1,0
		c0,0-0.1,0-0.1,0h-7c0,0-0.1,0-0.1,0c0,0-0.1,0-0.1,0h-7c0,0-0.1,0-0.1,0c0,0-0.1,0-0.1,0h-7c0,0-0.1,0-0.1,0c0,0-0.1,0-0.1,0h-7
		c-0.1,0-0.1,0-0.1,0c-0.1,0-0.1,0-0.1,0h-7c-0.1,0-0.1,0-0.1,0c-0.1,0-0.1,0-0.1,0h-7c0,0-0.1,0-0.1,0c0,0-0.1,0-0.1,0h-7
		c-0.1,0-0.1,0-0.1,0c-0.1,0-0.1,0-0.1,0h-4.7v-4.8c0,0,0-0.1,0-0.1c0,0,0-0.1,0-0.1v-4.8h4.7c0,0,0.1,0,0.1,0c0,0,0.1,0,0.1,0h7
		c1.4,0,2.5-1.1,2.5-2.5V12h4.8c0,0,0.1,0,0.1,0c0,0,0.1,0,0.1,0h7c0,0,0.1,0,0.1,0c0,0,0.1,0,0.1,0h7c1.4,0,2.5-1.1,2.5-2.5v-7
		c0-1.4-1.1-2.5-2.5-2.5h-7c0,0-0.1,0-0.1,0c0,0-0.1,0-0.1,0h-7c0,0-0.1,0-0.1,0c0,0-0.1,0-0.1,0h-7c0,0-0.1,0-0.1,0
		c0,0-0.1,0-0.1,0h-7c0,0-0.1,0-0.1,0c0,0-0.1,0-0.1,0h-7c0,0-0.1,0-0.1,0c0,0-0.1,0-0.1,0h-7c-1.4,0-2.5,1.1-2.5,2.5v4.7h-4.8
		c-1.4,0-2.5,1.1-2.5,2.5v4.8h-4.8c-1.4,0-2.5,1.1-2.5,2.5v4.7h-4.7c-0.1,0-0.1,0-0.2,0c-0.1,0-0.1,0-0.2,0h-7c0,0-0.1,0-0.1,0
		c0,0-0.1,0-0.1,0h-7c-0.1,0-0.1,0-0.2,0c-0.1,0-0.1,0-0.2,0h-7c-0.1,0-0.1,0-0.1,0c-0.1,0-0.1,0-0.1,0h-7c-1.4,0-2.5,1.1-2.5,2.5
		V29H9.8c-1.4,0-2.5,1.1-2.5,2.5v4.8H2.5c-1.4,0-2.5,1.1-2.5,2.5v7c0,0,0,0.1,0,0.1c0,0,0,0.1,0,0.1v7c0,0.1,0,0.1,0,0.1
		c0,0.1,0,0.1,0,0.1v7c0,0.1,0,0.1,0,0.2c0,0.1,0,0.1,0,0.2v7c0,0,0,0.1,0,0.1c0,0,0,0.1,0,0.1v7c0,0,0,0.1,0,0.1c0,0,0,0.1,0,0.1v7
		c0,0,0,0.1,0,0.1c0,0,0,0.1,0,0.1v7c0,0,0,0.1,0,0.1c0,0,0,0.1,0,0.1v7c0,0,0,0.1,0,0.1c0,0,0,0.1,0,0.1v7c0,0.1,0,0.1,0,0.1
		c0,0.1,0,0.1,0,0.1v7c0,0,0,0.1,0,0.1c0,0,0,0.1,0,0.1v7c0,0,0,0.1,0,0.1c0,0,0,0.1,0,0.1v7c0,1.4,1.1,2.5,2.5,2.5h4.8v4.7
		c0,1.4,1.1,2.5,2.5,2.5h4.7v4.8c0,1.4,1.1,2.5,2.5,2.5h7c0.2,0,0.4,0,0.5-0.1h6.8c0.1,0,0.1,0,0.2,0c0.1,0,0.1,0,0.2,0h7
		c0,0,0.1,0,0.1,0c0,0,0.1,0,0.1,0h7c0.1,0,0.1,0,0.2,0c0.1,0,0.1,0,0.2,0h7c0,0,0.1,0,0.1,0c0,0,0.1,0,0.1,0h7c0.1,0,0.1,0,0.2,0
		c0.1,0,0.1,0,0.2,0h7c0.1,0,0.1,0,0.1,0c0.1,0,0.1,0,0.1,0h7c0,0,0.1,0,0.1,0c0,0,0.1,0,0.1,0h7c1.4,0,2.5-1.1,2.5-2.5v-7
		c0-1.4-1.1-2.5-2.5-2.5h-7c0,0-0.1,0-0.1,0c0,0-0.1,0-0.1,0h-7c-0.1,0-0.1,0-0.1,0c-0.1,0-0.1,0-0.1,0h-7c-0.1,0-0.1,0-0.2,0
		c-0.1,0-0.1,0-0.2,0h-4.7v-2.5h4.7c0.1,0,0.1,0,0.2,0c0.1,0,0.1,0,0.2,0h7c0.1,0,0.1,0,0.1,0c0.1,0,0.1,0,0.1,0h7c0,0,0.1,0,0.1,0
		c0,0,0.1,0,0.1,0h7c1.4,0,2.5-1.1,2.5-2.5v-4.8h4.8c0,0,0.1,0,0.1,0c0,0,0.1,0,0.1,0h4.8v4.8c0,1.4,1.1,2.5,2.5,2.5h7
		c0,0,0.1,0,0.1,0c0,0,0.1,0,0.1,0h7c1.4,0,2.5-1.1,2.5-2.5v-4.8h4.8c1.4,0,2.5-1.1,2.5-2.5v-4.8h4.8c1.4,0,2.5-1.1,2.5-2.5v-4.7
		h4.8c0,0,0.1,0,0.1,0c0,0,0.1,0,0.1,0h4.8v2.5h-4.8c-1.4,0-2.5,1.1-2.5,2.5v4.8H126c-1.4,0-2.5,1.1-2.5,2.5v7
		c0,1.4,1.1,2.5,2.5,2.5h7c1.4,0,2.5-1.1,2.5-2.5v-4.8h2.5v4.8c0,1.4,1.1,2.5,2.5,2.5h7c1.4,0,2.5-1.1,2.5-2.5v-4.8h4.8
		c1.4,0,2.5-1.1,2.5-2.5v-4.8h4.8c1.4,0,2.5-1.1,2.5-2.5v-7C164.5,102.6,163.4,101.5,162,101.5z"/>
	<path class="st1" d="M9.8,31.5h7v7h-7V31.5z M17,24.2h7v7h-7V24.2z M17,31.5h7v7h-7V31.5z M24.3,24.2h7v7h-7
		C24.3,31.2,24.3,24.2,24.3,24.2z M24.3,31.5h7v7h-7C24.3,38.5,24.3,31.5,24.3,31.5z M31.6,24.2h7v7h-7V24.2z M31.6,31.5h7v7h-7
		V31.5z M38.8,24.2h7v7h-7V24.2z M38.8,31.5h7v7h-7V31.5z M46.1,24.2h7v7h-7V24.2z M46.1,31.5h7v7h-7V31.5z M53.3,17h7v7h-7V17z
		 M53.3,24.2h7v7h-7V24.2z M53.3,31.5h7v7h-7V31.5z M2.5,38.8h7v7h-7C2.5,45.8,2.5,38.8,2.5,38.8z M2.5,46h7v7h-7
		C2.5,53,2.5,46,2.5,46z M2.5,53.3h7v7h-7C2.5,60.3,2.5,53.3,2.5,53.3z M2.5,60.6h7v7h-7C2.5,67.6,2.5,60.6,2.5,60.6z M2.5,75.1h7v7
		h-7C2.5,82.1,2.5,75.1,2.5,75.1z M2.5,82.3h7v7h-7C2.5,89.3,2.5,82.3,2.5,82.3z M9.8,38.8h7v7h-7V38.8z M9.8,60.6h7v7h-7V60.6z
		 M9.8,75.1h7v7h-7V75.1z M9.8,82.3h7v7h-7V82.3z M17,38.8h7v7h-7V38.8z M9.8,46.1h7v7h-7V46.1z M17,46.1h7v7h-7V46.1z M17,60.6h7v7
		h-7V60.6z M17,75.1h7v7h-7V75.1z M17,82.3h7v7h-7V82.3z M24.3,38.8h7v7h-7C24.3,45.8,24.3,38.8,24.3,38.8z M24.3,46h7v7h-7
		C24.3,53,24.3,46,24.3,46z M24.3,53.3h7v7h-7C24.3,60.3,24.3,53.3,24.3,53.3z M24.3,60.6h7v7h-7C24.3,67.6,24.3,60.6,24.3,60.6z
		 M24.3,75.1h7v7h-7C24.3,82.1,24.3,75.1,24.3,75.1z M2.5,67.8h7v7h-7C2.5,74.8,2.5,67.8,2.5,67.8z M9.8,67.8h7v7h-7V67.8z M17,67.8
		h7v7h-7V67.8z M24.3,67.8h7v7h-7C24.3,74.8,24.3,67.8,24.3,67.8z M24.3,82.3h7v7h-7C24.3,89.3,24.3,82.3,24.3,82.3z M31.6,38.8h7v7
		h-7V38.8z M31.6,46h7v7h-7V46z M31.6,53.3h7v7h-7V53.3z M31.6,60.6h7v7h-7V60.6z M31.6,75.1h7v7h-7V75.1z M31.6,82.3h7v7h-7V82.3z
		 M38.8,38.8h7v7h-7V38.8z M38.8,46h7v7h-7V46z M38.8,53.3h7v7h-7V53.3z M38.8,60.6h7v7h-7V60.6z M31.6,67.9h7v7h-7V67.9z
		 M38.8,75.1h7v7h-7V75.1z M38.8,82.3h7v7h-7V82.3z M38.8,89.6h7v7h-7V89.6z M46.1,53.3h7v7h-7V53.3z M46.1,60.6h7v7h-7V60.6z
		 M46.1,75.1h7v7h-7V75.1z M46.1,82.3h7v7h-7V82.3z M53.3,38.8h7v7h-7V38.8z M53.3,46h7v7h-7V46z M53.3,53.3h7v7h-7V53.3z
		 M53.3,60.6h7v7h-7V60.6z M53.3,67.8h7v7h-7V67.8z M53.3,75.1h7v7h-7V75.1z M53.3,82.3h7v7h-7V82.3z M53.3,89.6h7v7h-7V89.6z
		 M60.6,9.7h7v7h-7V9.7z M60.6,17h7v7h-7V17z M60.6,24.2h7v7h-7V24.2z M60.6,31.5h7v7h-7V31.5z M67.9,2.5h7v7h-7V2.5z M67.9,9.7h7v7
		h-7V9.7z M67.9,17h7v7h-7V17z M67.9,24.2h7v7h-7V24.2z M67.9,31.5h7v7h-7V31.5z M75.1,2.5h7v7h-7V2.5z M75.1,9.7h7v7h-7V9.7z
		 M82.4,2.5h7v7h-7V2.5z M82.4,9.7h7v7h-7V9.7z M89.6,2.5h7v7h-7V2.5z M96.9,2.5h7v7h-7V2.5z M104.1,2.5h7v7h-7V2.5z M75.1,31.5h7v7
		h-7V31.5z M82.4,31.5h7v7h-7V31.5z M89.6,31.5h7v7h-7V31.5z M96.9,31.5h7v7h-7V31.5z M104.2,31.5h7v7h-7V31.5z M111.5,31.5h7v7h-7
		V31.5z M118.7,31.5h7v7h-7V31.5z M126,31.5h7v7h-7V31.5z M133.2,31.5h7v7h-7V31.5z M60.6,60.6h7v7h-7V60.6z M60.6,67.8h7v7h-7V67.8
		z M60.6,75.1h7v7h-7V75.1z M60.6,82.3h7v7h-7V82.3z M67.9,38.8h7v7h-7V38.8z M67.9,46h7v7h-7V46z M67.9,53.3h7v7h-7V53.3z
		 M67.9,60.6h7v7h-7V60.6z M67.9,67.9h7v7h-7V67.9z M67.9,82.3h7v7h-7V82.3z M67.9,89.6h7v7h-7V89.6z M75.1,46h7v7h-7V46z
		 M75.1,82.3h7v7h-7V82.3z M75.1,89.6h7v7h-7V89.6z M82.4,46h7v7h-7V46z M89.6,46h7v7h-7V46z M96.9,46h7v7h-7V46z M104.2,46h7v7h-7
		V46z M2.5,96.8h7v7h-7C2.5,103.8,2.5,96.8,2.5,96.8z M9.8,96.8h7v7h-7V96.8z M17,96.8h7v7h-7V96.8z M2.5,89.5h7v7h-7
		C2.5,96.5,2.5,89.5,2.5,89.5z M9.8,89.5h7v7h-7V89.5z M24.3,89.5h7v7h-7C24.3,96.5,24.3,89.5,24.3,89.5z M31.6,96.8h7v7h-7V96.8z
		 M46.1,96.8h7v7h-7V96.8z M60.6,96.8h7v7h-7V96.8z M67.9,96.8h7v7h-7V96.8z M75.1,96.8h7v7h-7V96.8z M2.5,104.1h7v7h-7
		C2.5,111.1,2.5,104.1,2.5,104.1z M2.5,111.4h7v7h-7C2.5,118.4,2.5,111.4,2.5,111.4z M2.5,118.6h7v7h-7
		C2.5,125.6,2.5,118.6,2.5,118.6z M9.8,104.1h7v7h-7V104.1z M17,104.1h7v7h-7V104.1z M24.3,104.1h7v7h-7
		C24.3,111.1,24.3,104.1,24.3,104.1z M31.6,104.1h7v7h-7V104.1z M38.8,104.1h7v7h-7V104.1z M53.3,104.1h7v7h-7V104.1z M75.1,104.1h7
		v7h-7V104.1z M9.8,111.3h7v7h-7V111.3z M9.8,118.6h7v7h-7V118.6z M9.8,125.8h7v7h-7V125.8z M17,111.3h7v7h-7V111.3z M24.3,111.3h7
		v7h-7C24.3,118.3,24.3,111.3,24.3,111.3z M31.6,111.3h7v7h-7V111.3z M38.8,111.3h7v7h-7V111.3z M46.1,111.3h7v7h-7V111.3z
		 M53.3,111.3h7v7h-7V111.3z M60.6,111.3h7v7h-7V111.3z M67.9,111.3h7v7h-7V111.3z M75.1,111.3h7v7h-7V111.3z M17,118.6h7v7h-7
		V118.6z M17,125.9h7v7h-7V125.9z M17,133.1h7v7h-7V133.1z M24.3,118.6h7v7h-7C24.3,125.6,24.3,118.6,24.3,118.6z M31.6,118.6h7v7
		h-7V118.6z M38.8,118.6h7v7h-7V118.6z M46.1,118.6h7v7h-7V118.6z M53.3,118.6h7v7h-7V118.6z M60.6,118.6h7v7h-7V118.6z M67.9,118.6
		h7v7h-7V118.6z M75.1,118.6h7v7h-7V118.6z M24.3,125.8h7v7h-7C24.3,132.8,24.3,125.8,24.3,125.8z M24.3,133.1h7v7h-7
		C24.3,140.1,24.3,133.1,24.3,133.1z M31.6,125.8h7v7h-7V125.8z M38.8,125.8h7v7h-7V125.8z M31.6,133.1h7v7h-7V133.1z M38.8,133.1h7
		v7h-7V133.1z M46.1,125.8h7v7h-7V125.8z M46.1,133.1h7v7h-7V133.1z M53.3,133.1h7v7h-7V133.1z M60.6,133.1h7v7h-7V133.1z
		 M67.9,133.1h7v7h-7V133.1z M75.1,133.1h7v7h-7V133.1z M82.4,96.8h7v7h-7V96.8z M82.4,111.3h7v7h-7V111.3z M89.6,96.8h7v7h-7V96.8z
		 M89.6,104.1h7v7h-7V104.1z M89.6,111.3h7v7h-7V111.3z M96.9,89.6h7v7h-7V89.6z M96.9,96.8h7v7h-7V96.8z M96.9,104.1h7v7h-7V104.1z
		 M96.9,111.3h7v7h-7V111.3z M96.9,118.6h7v7h-7V118.6z M104.1,89.6h7v7h-7V89.6z M104.1,96.8h7v7h-7V96.8z M104.1,104.1h7v7h-7
		V104.1z M104.1,111.3h7v7h-7V111.3z M104.1,118.6h7v7h-7V118.6z M111.4,96.8h7v7h-7V96.8z M111.4,111.3h7v7h-7V111.3z M118.7,104h7
		v7h-7V104z M126,96.8h7v7h-7V96.8z M126,118.6h7v7h-7V118.6z M133.2,89.5h7v7h-7V89.5z M133.2,96.8h7v7h-7V96.8z M133.2,111.3h7v7
		h-7V111.3z M140.5,89.5h7v7h-7V89.5z M140.5,104h7v7h-7V104z M140.5,118.6h7v7h-7V118.6z M147.7,96.8h7v7h-7V96.8z M147.7,111.3h7
		v7h-7V111.3z M155,104h7v7h-7V104z"/>
</g>
</svg>
