<?xml version="1.0" encoding="utf-8"?>
<!-- Generator: Adobe Illustrator 27.3.1, SVG Export Plug-In . SVG Version: 6.00 Build 0)  -->
<svg version="1.1" id="Слой_1" xmlns="http://www.w3.org/2000/svg" xmlns:xlink="http://www.w3.org/1999/xlink" x="0px" y="0px"
	 viewBox="0 0 261.2 239.3" style="enable-background:new 0 0 261.2 239.3;" xml:space="preserve">
<style type="text/css">
	.st0{fill:#1E0E01;}
</style>
<path class="st0" d="M0,87.1h7v7H0V87.1z M0,116.1h7v7H0V116.1z M0,152.4h7v7H0V152.4z M0,159.7h7v7H0V159.7z M7.3,87.1h7v7h-7V87.1
	z M7.3,116.1h7v7h-7V116.1z M7.3,152.4h7v7h-7V152.4z M7.3,159.7h7v7h-7V159.7z M14.5,43.6h7v7h-7V43.6z M14.5,50.8h7v7h-7V50.8z
	 M14.5,58.1h7v7h-7V58.1z M14.5,65.3h7v7h-7V65.3z M14.5,72.6h7v7h-7V72.6z M14.5,79.9h7v7h-7V79.9z M14.5,87.1h7v7h-7V87.1z
	 M14.5,94.4h7v7h-7V94.4z M14.5,101.6h7v7h-7V101.6z M14.5,108.9h7v7h-7V108.9z M14.5,116.1h7v7h-7V116.1z M14.5,123.4h7v7h-7V123.4
	z M14.5,152.4h7v7h-7V152.4z M14.5,159.7h7v7h-7V159.7z M21.8,36.3h7v7h-7V36.3z M21.8,43.6h7v7h-7V43.6z M21.8,50.8h7v7h-7V50.8z
	 M21.8,72.6h7v7h-7V72.6z M21.8,79.9h7v7h-7V79.9z M21.8,87.1h7v7h-7V87.1z M21.8,94.4h7v7h-7V94.4z M21.8,101.6h7v7h-7V101.6z
	 M21.8,108.9h7v7h-7V108.9z M21.8,116.1h7v7h-7V116.1z M21.8,123.4h7v7h-7V123.4z M21.8,130.7h7v7h-7V130.7z M21.8,137.9h7v7h-7
	V137.9z M21.8,145.2h7v7h-7V145.2z M21.8,152.4h7v7h-7V152.4z M21.8,159.7h7v7h-7V159.7z M21.8,167h7v7h-7V167z M29.1,29h7v7h-7V29z
	 M29.1,43.6h7v7h-7V43.6z M29.1,50.8h7v7h-7V50.8z M29.1,72.6h7v7h-7V72.6z M29.1,79.9h7v7h-7V79.9z M29.1,87.1h7v7h-7V87.1z
	 M29.1,94.4h7v7h-7V94.4z M29.1,101.6h7v7h-7V101.6z M29.1,108.9h7v7h-7V108.9z M29.1,116.1h7v7h-7V116.1z M29.1,123.4h7v7h-7V123.4
	z M29.1,130.7h7v7h-7V130.7z M29.1,137.9h7v7h-7V137.9z M29.1,152.4h7v7h-7V152.4z M29.1,159.7h7v7h-7V159.7z M29.1,167h7v7h-7V167z
	 M29.1,174.2h7v7h-7V174.2z M36.3,29h7v7h-7V29z M36.3,36.3h7v7h-7V36.3z M36.3,43.6h7v7h-7V43.6z M36.3,50.8h7v7h-7V50.8z
	 M36.3,65.3h7v7h-7V65.3z M36.3,72.6h7v7h-7V72.6z M36.3,79.9h7v7h-7V79.9z M36.3,87.1h7v7h-7V87.1z M36.3,94.4h7v7h-7V94.4z
	 M36.3,101.6h7v7h-7V101.6z M36.3,108.9h7v7h-7V108.9z M36.3,116.1h7v7h-7V116.1z M36.3,123.4h7v7h-7V123.4z M36.3,130.7h7v7h-7
	V130.7z M36.3,137.9h7v7h-7V137.9z M36.3,152.4h7v7h-7V152.4z M36.3,159.7h7v7h-7V159.7z M36.3,167h7v7h-7V167z M36.3,174.2h7v7h-7
	V174.2z M36.3,181.5h7v7h-7V181.5z M43.6,29h7v7h-7V29z M43.6,43.6h7v7h-7V43.6z M43.6,50.8h7v7h-7V50.8z M43.6,65.3h7v7h-7V65.3z
	 M43.6,72.6h7v7h-7V72.6z M43.6,79.9h7v7h-7V79.9z M43.6,87.1h7v7h-7V87.1z M43.6,94.4h7v7h-7V94.4z M43.6,101.6h7v7h-7V101.6z
	 M43.6,108.9h7v7h-7V108.9z M43.6,116.1h7v7h-7V116.1z M43.6,123.4h7v7h-7V123.4z M43.6,130.7h7v7h-7V130.7z M43.6,137.9h7v7h-7
	V137.9z M43.6,145.2h7v7h-7V145.2z M43.6,152.4h7v7h-7V152.4z M43.6,159.7h7v7h-7V159.7z M43.6,167h7v7h-7V167z M43.6,174.2h7v7h-7
	V174.2z M43.6,181.5h7v7h-7V181.5z M50.8,29h7v7h-7V29z M50.8,36.3h7v7h-7V36.3z M50.8,50.8h7v7h-7V50.8z M50.8,58.1h7v7h-7V58.1z
	 M50.8,65.3h7v7h-7V65.3z M50.8,72.6h7v7h-7V72.6z M50.8,79.9h7v7h-7V79.9z M50.8,87.1h7v7h-7V87.1z M50.8,94.4h7v7h-7V94.4z
	 M50.8,101.6h7v7h-7V101.6z M50.8,108.9h7v7h-7V108.9z M50.8,116.1h7v7h-7V116.1z M50.8,123.4h7v7h-7V123.4z M50.8,130.7h7v7h-7
	V130.7z M50.8,137.9h7v7h-7V137.9z M50.8,145.2h7v7h-7V145.2z M50.8,152.4h7v7h-7V152.4z M50.8,159.7h7v7h-7V159.7z M50.8,167h7v7
	h-7V167z M50.8,174.2h7v7h-7V174.2z M50.8,181.5h7v7h-7V181.5z M50.8,188.8h7v7h-7V188.8z M50.8,196h7v7h-7V196z M50.8,225h7v7h-7
	V225z M58.1,29h7v7h-7V29z M58.1,43.6h7v7h-7V43.6z M58.1,50.8h7v7h-7V50.8z M58.1,58.1h7v7h-7V58.1z M58.1,65.3h7v7h-7V65.3z
	 M58.1,72.6h7v7h-7V72.6z M58.1,79.9h7v7h-7V79.9z M58.1,87.1h7v7h-7V87.1z M58.1,94.4h7v7h-7V94.4z M58.1,101.6h7v7h-7V101.6z
	 M58.1,108.9h7v7h-7V108.9z M58.1,116.1h7v7h-7V116.1z M58.1,123.4h7v7h-7V123.4z M58.1,130.7h7v7h-7V130.7z M58.1,137.9h7v7h-7
	V137.9z M58.1,145.2h7v7h-7V145.2z M58.1,152.4h7v7h-7V152.4z M58.1,159.7h7v7h-7V159.7z M58.1,167h7v7h-7V167z M58.1,174.2h7v7h-7
	V174.2z M58.1,181.5h7v7h-7V181.5z M58.1,188.8h7v7h-7V188.8z M58.1,196h7v7h-7V196z M58.1,203.3h7v7h-7V203.3z M58.1,210.5h7v7h-7
	V210.5z M58.1,217.8h7v7h-7V217.8z M58.1,225h7v7h-7V225z M58.1,232.3h7v7h-7V232.3z M65.4,29h7v7h-7V29z M65.4,36.3h7v7h-7V36.3z
	 M65.4,50.8h7v7h-7V50.8z M65.4,58.1h7v7h-7V58.1z M65.4,65.3h7v7h-7V65.3z M65.4,72.6h7v7h-7V72.6z M65.4,79.9h7v7h-7V79.9z
	 M65.4,87.1h7v7h-7V87.1z M65.4,94.4h7v7h-7V94.4z M65.4,101.6h7v7h-7V101.6z M65.4,108.9h7v7h-7V108.9z M65.4,123.4h7v7h-7V123.4z
	 M65.4,137.9h7v7h-7V137.9z M65.4,145.2h7v7h-7V145.2z M65.4,152.4h7v7h-7V152.4z M65.4,159.7h7v7h-7V159.7z M65.4,167h7v7h-7V167z
	 M65.4,174.2h7v7h-7V174.2z M65.4,181.5h7v7h-7V181.5z M65.4,225h7v7h-7V225z M72.6,29h7v7h-7V29z M72.6,43.6h7v7h-7V43.6z
	 M72.6,50.8h7v7h-7V50.8z M72.6,58.1h7v7h-7V58.1z M72.6,65.3h7v7h-7V65.3z M72.6,72.6h7v7h-7V72.6z M72.6,79.9h7v7h-7V79.9z
	 M72.6,87.1h7v7h-7V87.1z M72.6,94.4h7v7h-7V94.4z M72.6,101.6h7v7h-7V101.6z M72.6,108.9h7v7h-7V108.9z M72.6,116.1h7v7h-7V116.1z
	 M72.6,130.7h7v7h-7V130.7z M72.6,137.9h7v7h-7V137.9z M72.6,145.2h7v7h-7V145.2z M72.6,152.4h7v7h-7V152.4z M72.6,159.7h7v7h-7
	V159.7z M72.6,167h7v7h-7V167z M72.6,174.2h7v7h-7V174.2z M72.6,181.5h7v7h-7V181.5z M72.6,188.8h7v7h-7V188.8z M79.9,29h7v7h-7V29z
	 M79.9,36.3h7v7h-7V36.3z M79.9,50.8h7v7h-7V50.8z M79.9,58.1h7v7h-7V58.1z M79.9,65.3h7v7h-7V65.3z M79.9,72.6h7v7h-7V72.6z
	 M79.9,79.9h7v7h-7V79.9z M79.9,87.1h7v7h-7V87.1z M79.9,94.4h7v7h-7V94.4z M79.9,101.6h7v7h-7V101.6z M79.9,108.9h7v7h-7V108.9z
	 M79.9,123.4h7v7h-7V123.4z M79.9,137.9h7v7h-7V137.9z M79.9,145.2h7v7h-7V145.2z M79.9,152.4h7v7h-7V152.4z M79.9,159.7h7v7h-7
	V159.7z M79.9,167h7v7h-7V167z M79.9,174.2h7v7h-7V174.2z M79.9,181.5h7v7h-7V181.5z M79.9,188.8h7v7h-7V188.8z M79.9,196h7v7h-7
	V196z M79.9,203.3h7v7h-7V203.3z M79.9,210.5h7v7h-7V210.5z M87.1,29h7v7h-7V29z M87.1,43.6h7v7h-7V43.6z M87.1,50.8h7v7h-7V50.8z
	 M87.1,58.1h7v7h-7V58.1z M87.1,65.3h7v7h-7V65.3z M87.1,72.6h7v7h-7V72.6z M87.1,79.9h7v7h-7V79.9z M87.1,87.1h7v7h-7V87.1z
	 M87.1,94.4h7v7h-7V94.4z M87.1,101.6h7v7h-7V101.6z M87.1,108.9h7v7h-7V108.9z M87.1,116.1h7v7h-7V116.1z M87.1,130.7h7v7h-7V130.7
	z M87.1,137.9h7v7h-7V137.9z M87.1,145.2h7v7h-7V145.2z M87.1,152.4h7v7h-7V152.4z M87.1,159.7h7v7h-7V159.7z M87.1,167h7v7h-7V167z
	 M87.1,174.2h7v7h-7V174.2z M87.1,181.5h7v7h-7V181.5z M94.4,29h7v7h-7V29z M94.4,36.3h7v7h-7V36.3z M94.4,50.8h7v7h-7V50.8z
	 M94.4,58.1h7v7h-7V58.1z M94.4,65.3h7v7h-7V65.3z M94.4,72.6h7v7h-7V72.6z M94.4,79.9h7v7h-7V79.9z M94.4,87.1h7v7h-7V87.1z
	 M94.4,94.4h7v7h-7V94.4z M94.4,101.6h7v7h-7V101.6z M94.4,108.9h7v7h-7V108.9z M94.4,123.4h7v7h-7V123.4z M94.4,137.9h7v7h-7V137.9
	z M94.4,145.2h7v7h-7V145.2z M94.4,159.7h7v7h-7V159.7z M94.4,167h7v7h-7V167z M94.4,174.2h7v7h-7V174.2z M94.4,181.5h7v7h-7V181.5z
	 M101.7,29h7v7h-7V29z M101.7,43.6h7v7h-7V43.6z M101.7,50.8h7v7h-7V50.8z M101.7,58.1h7v7h-7V58.1z M101.7,87.1h7v7h-7V87.1z
	 M101.7,94.4h7v7h-7V94.4z M101.7,101.6h7v7h-7V101.6z M101.7,108.9h7v7h-7V108.9z M101.7,116.1h7v7h-7V116.1z M101.7,130.7h7v7h-7
	V130.7z M101.7,137.9h7v7h-7V137.9z M101.7,145.2h7v7h-7V145.2z M101.7,152.4h7v7h-7V152.4z M101.7,167h7v7h-7V167z M101.7,174.2h7
	v7h-7V174.2z M108.9,29h7v7h-7V29z M108.9,36.3h7v7h-7V36.3z M108.9,50.8h7v7h-7V50.8z M108.9,58.1h7v7h-7V58.1z M108.9,72.6h7v7h-7
	V72.6z M108.9,101.6h7v7h-7V101.6z M108.9,108.9h7v7h-7V108.9z M108.9,123.4h7v7h-7V123.4z M108.9,137.9h7v7h-7V137.9z M108.9,145.2
	h7v7h-7V145.2z M108.9,159.7h7v7h-7V159.7z M108.9,167h7v7h-7V167z M108.9,174.2h7v7h-7V174.2z M116.2,29h7v7h-7V29z M116.2,43.6h7
	v7h-7V43.6z M116.2,50.8h7v7h-7V50.8z M116.2,58.1h7v7h-7V58.1z M116.2,79.9h7v7h-7V79.9z M116.2,87.1h7v7h-7V87.1z M116.2,94.4h7v7
	h-7V94.4z M116.2,101.6h7v7h-7V101.6z M116.2,116.1h7v7h-7V116.1z M116.2,130.7h7v7h-7V130.7z M116.2,145.2h7v7h-7V145.2z
	 M116.2,152.4h7v7h-7V152.4z M116.2,167h7v7h-7V167z M116.2,174.2h7v7h-7V174.2z M123.4,29h7v7h-7V29z M123.4,36.3h7v7h-7V36.3z
	 M123.4,50.8h7v7h-7V50.8z M123.4,58.1h7v7h-7V58.1z M123.4,72.6h7v7h-7V72.6z M123.4,101.6h7v7h-7V101.6z M123.4,108.9h7v7h-7
	V108.9z M123.4,116.1h7v7h-7V116.1z M123.4,123.4h7v7h-7V123.4z M123.4,130.7h7v7h-7V130.7z M123.4,137.9h7v7h-7V137.9z
	 M123.4,145.2h7v7h-7V145.2z M123.4,159.7h7v7h-7V159.7z M123.4,167h7v7h-7V167z M123.4,203.3h7v7h-7V203.3z M130.7,29h7v7h-7V29z
	 M130.7,36.3h7v7h-7V36.3z M130.7,43.6h7v7h-7V43.6z M130.7,50.8h7v7h-7V50.8z M130.7,58.1h7v7h-7V58.1z M130.7,87.1h7v7h-7V87.1z
	 M130.7,94.4h7v7h-7V94.4z M130.7,101.6h7v7h-7V101.6z M130.7,108.9h7v7h-7V108.9z M130.7,130.7h7v7h-7V130.7z M130.7,145.2h7v7h-7
	V145.2z M130.7,152.4h7v7h-7V152.4z M130.7,159.7h7v7h-7V159.7z M130.7,167h7v7h-7V167z M130.7,174.2h7v7h-7V174.2z M130.7,181.5h7
	v7h-7V181.5z M130.7,188.8h7v7h-7V188.8z M130.7,196h7v7h-7V196z M130.7,203.3h7v7h-7V203.3z M130.7,210.5h7v7h-7V210.5z M138,21.8
	h7v7h-7V21.8z M138,29h7v7h-7V29z M138,36.3h7v7h-7V36.3z M138,50.8h7v7h-7V50.8z M138,58.1h7v7h-7V58.1z M138,65.3h7v7h-7V65.3z
	 M138,72.6h7v7h-7V72.6z M138,79.9h7v7h-7V79.9z M138,87.1h7v7h-7V87.1z M138,94.4h7v7h-7V94.4z M138,101.6h7v7h-7V101.6z
	 M138,108.9h7v7h-7V108.9z M138,116.1h7v7h-7V116.1z M138,123.4h7v7h-7V123.4z M138,130.7h7v7h-7V130.7z M138,137.9h7v7h-7V137.9z
	 M138,145.2h7v7h-7V145.2z M138,152.4h7v7h-7V152.4z M138,159.7h7v7h-7V159.7z M138,167h7v7h-7V167z M145.2,14.5h7v7h-7V14.5z
	 M145.2,21.8h7v7h-7V21.8z M145.2,29h7v7h-7V29z M145.2,36.3h7v7h-7V36.3z M145.2,43.6h7v7h-7V43.6z M145.2,50.8h7v7h-7V50.8z
	 M145.2,58.1h7v7h-7V58.1z M145.2,65.3h7v7h-7V65.3z M145.2,72.6h7v7h-7V72.6z M145.2,79.9h7v7h-7V79.9z M145.2,87.1h7v7h-7V87.1z
	 M145.2,94.4h7v7h-7V94.4z M145.2,101.6h7v7h-7V101.6z M145.2,108.9h7v7h-7V108.9z M145.2,116.1h7v7h-7V116.1z M145.2,152.4h7v7h-7
	V152.4z M145.2,159.7h7v7h-7V159.7z M152.5,7.2h7v7h-7V7.2z M152.5,14.5h7v7h-7V14.5z M152.5,21.8h7v7h-7V21.8z M152.5,29h7v7h-7V29
	z M152.5,36.3h7v7h-7V36.3z M152.5,50.8h7v7h-7V50.8z M152.5,58.1h7v7h-7V58.1z M152.5,65.3h7v7h-7V65.3z M152.5,72.6h7v7h-7V72.6z
	 M152.5,79.9h7v7h-7V79.9z M152.5,87.1h7v7h-7V87.1z M152.5,94.4h7v7h-7V94.4z M152.5,108.9h7v7h-7V108.9z M152.5,116.1h7v7h-7
	V116.1z M152.5,152.4h7v7h-7V152.4z M152.5,159.7h7v7h-7V159.7z M159.7,0h7v7h-7V0z M159.7,7.2h7v7h-7V7.2z M159.7,14.5h7v7h-7V14.5
	z M159.7,21.8h7v7h-7V21.8z M159.7,29h7v7h-7V29z M159.7,36.3h7v7h-7V36.3z M159.7,43.6h7v7h-7V43.6z M159.7,50.8h7v7h-7V50.8z
	 M159.7,58.1h7v7h-7V58.1z M159.7,65.3h7v7h-7V65.3z M159.7,72.6h7v7h-7V72.6z M159.7,79.9h7v7h-7V79.9z M159.7,87.1h7v7h-7V87.1z
	 M159.7,94.4h7v7h-7V94.4z M159.7,108.9h7v7h-7V108.9z M159.7,116.1h7v7h-7V116.1z M159.7,152.4h7v7h-7V152.4z M159.7,159.7h7v7h-7
	V159.7z M167,0h7v7h-7V0z M167,7.2h7v7h-7V7.2z M167,21.8h7v7h-7V21.8z M167,36.3h7v7h-7V36.3z M167,50.8h7v7h-7V50.8z M167,65.3h7
	v7h-7V65.3z M167,101.6h7v7h-7V101.6z M167,108.9h7v7h-7V108.9z M167,116.1h7v7h-7V116.1z M167,123.4h7v7h-7V123.4z M167,145.2h7v7
	h-7V145.2z M167,152.4h7v7h-7V152.4z M167,159.7h7v7h-7V159.7z M167,167h7v7h-7V167z M174.3,0h7v7h-7V0z M174.3,7.2h7v7h-7V7.2z
	 M174.3,21.8h7v7h-7V21.8z M174.3,36.3h7v7h-7V36.3z M174.3,50.8h7v7h-7V50.8z M174.3,101.6h7v7h-7V101.6z M174.3,108.9h7v7h-7
	V108.9z M174.3,116.1h7v7h-7V116.1z M174.3,123.4h7v7h-7V123.4z M174.3,145.2h7v7h-7V145.2z M174.3,152.4h7v7h-7V152.4z
	 M174.3,159.7h7v7h-7V159.7z M174.3,167h7v7h-7V167z M181.5,0h7v7h-7V0z M181.5,7.2h7v7h-7V7.2z M181.5,36.3h7v7h-7V36.3z
	 M181.5,50.8h7v7h-7V50.8z M188.8,0h7v7h-7V0z M188.8,7.2h7v7h-7V7.2z M188.8,36.3h7v7h-7V36.3z M188.8,50.8h7v7h-7V50.8z M196,36.3
	h7v7h-7V36.3z M196,43.6h7v7h-7V43.6z M196,50.8h7v7h-7V50.8z M203.3,36.3h7v7h-7V36.3z M203.3,50.8h7v7h-7V50.8z M181.6,94.4h7v7
	h-7V94.4z M181.6,116.1h7v7h-7V116.1z M181.6,137.9h7v7h-7V137.9z M181.6,174.2h7v7h-7V174.2z M210.6,36.3h7v7h-7V36.3z M188.9,94.4
	h7v7h-7V94.4z M188.9,101.6h7v7h-7V101.6z M188.9,123.4h7v7h-7V123.4z M188.9,137.9h7v7h-7V137.9z M188.9,152.4h7v7h-7V152.4z
	 M188.9,174.2h7v7h-7V174.2z M217.8,29h7v7h-7V29z M217.8,36.3h7v7h-7V36.3z M196.1,101.6h7v7h-7V101.6z M196.1,116.1h7v7h-7V116.1z
	 M196.1,123.4h7v7h-7V123.4z M196.1,137.9h7v7h-7V137.9z M196.1,145.2h7v7h-7V145.2z M196.1,167h7v7h-7V167z M196.1,174.2h7v7h-7
	V174.2z M225.1,36.3h7v7h-7V36.3z M203.4,108.9h7v7h-7V108.9z M203.4,116.1h7v7h-7V116.1z M203.4,145.2h7v7h-7V145.2z M203.4,152.4
	h7v7h-7V152.4z M203.4,159.7h7v7h-7V159.7z M210.6,101.6h7v7h-7V101.6z M210.6,152.4h7v7h-7V152.4z M210.6,159.7h7v7h-7V159.7z
	 M217.9,108.9h7v7h-7V108.9z M217.9,159.7h7v7h-7V159.7z M225.2,108.9h7v7h-7V108.9z M225.2,145.2h7v7h-7V145.2z M225.2,152.4h7v7
	h-7V152.4z M232.4,108.9h7v7h-7V108.9z M232.4,152.4h7v7h-7V152.4z M239.7,108.9h7v7h-7V108.9z M239.7,152.4h7v7h-7V152.4z
	 M239.7,159.7h7v7h-7V159.7z M246.9,116.1h7v7h-7V116.1z M246.9,152.4h7v7h-7V152.4z M254.2,152.4h7v7h-7V152.4z"/>
</svg>
