<?xml version="1.0" encoding="utf-8"?>
<!-- Generator: Adobe Illustrator 27.3.1, SVG Export Plug-In . SVG Version: 6.00 Build 0)  -->
<svg version="1.1" id="Слой_1" xmlns="http://www.w3.org/2000/svg" xmlns:xlink="http://www.w3.org/1999/xlink" x="0px" y="0px"
	 viewBox="0 0 515.2 50.6" style="enable-background:new 0 0 515.2 50.6;" xml:space="preserve">
<style type="text/css">
	.st0{fill:#1E0E01;}
</style>
<path class="st0" d="M-0.1,0.2h7v7h-7V0.2z M-0.1,7.5h7v7h-7V7.5z M7.2,0.2h7v7h-7V0.2z M7.2,7.5h7v7h-7V7.5z M14.4,0.2h7v7h-7V0.2z
	 M14.4,7.5h7v7h-7V7.5z M14.4,36.5h7v7h-7V36.5z M21.7,0.2h7v7h-7V0.2z M21.7,7.5h7v7h-7V7.5z M21.7,36.5h7v7h-7V36.5z M29,0.2h7v7
	h-7V0.2z M29,7.5h7v7h-7V7.5z M29,14.8h7v7h-7V14.8z M29,36.5h7v7h-7V36.5z M36.2,0.2h7v7h-7V0.2z M36.2,7.5h7v7h-7V7.5z M36.2,14.8
	h7v7h-7V14.8z M36.2,22h7v7h-7V22z M36.2,36.5h7v7h-7V36.5z M43.5,0.2h7v7h-7V0.2z M43.5,7.5h7v7h-7V7.5z M43.5,14.8h7v7h-7V14.8z
	 M43.5,22h7v7h-7V22z M43.5,29.2h7v7h-7V29.2z M43.5,36.5h7v7h-7V36.5z M50.7,0.2h7v7h-7V0.2z M50.7,7.5h7v7h-7V7.5z M50.7,14.8h7v7
	h-7V14.8z M50.7,22h7v7h-7V22z M50.7,29.2h7v7h-7V29.2z M50.7,36.5h7v7h-7V36.5z M58,0.2h7v7h-7V0.2z M58,7.5h7v7h-7V7.5z M58,22h7
	v7h-7V22z M58,29.2h7v7h-7V29.2z M58,36.5h7v7h-7V36.5z M65.3,0.2h7v7h-7V0.2z M65.3,7.5h7v7h-7V7.5z M65.3,29.2h7v7h-7V29.2z
	 M65.3,36.5h7v7h-7V36.5z M72.5,0.2h7v7h-7V0.2z M72.5,7.5h7v7h-7V7.5z M72.5,36.5h7v7h-7V36.5z M79.8,0.2h7v7h-7V0.2z M79.8,7.5h7
	v7h-7V7.5z M79.8,36.5h7v7h-7V36.5z M87,0.2h7v7h-7V0.2z M87,7.5h7v7h-7V7.5z M87,36.5h7v7h-7V36.5z M94.3,0.2h7v7h-7V0.2z
	 M94.3,7.5h7v7h-7V7.5z M94.3,36.5h7v7h-7V36.5z M101.6,0.2h7v7h-7V0.2z M101.6,7.5h7v7h-7V7.5z M101.6,36.5h7v7h-7V36.5z
	 M108.8,0.2h7v7h-7V0.2z M108.8,7.5h7v7h-7V7.5z M108.8,36.5h7v7h-7V36.5z M116.1,0.2h7v7h-7V0.2z M116.1,7.5h7v7h-7V7.5z
	 M116.1,36.5h7v7h-7V36.5z M123.3,0.2h7v7h-7V0.2z M123.3,7.5h7v7h-7V7.5z M123.3,36.5h7v7h-7V36.5z M130.6,0.2h7v7h-7V0.2z
	 M130.6,7.5h7v7h-7V7.5z M130.6,36.5h7v7h-7V36.5z M137.9,0.2h7v7h-7V0.2z M137.9,7.5h7v7h-7V7.5z M137.9,36.5h7v7h-7V36.5z
	 M145.1,0.2h7v7h-7V0.2z M145.1,7.5h7v7h-7V7.5z M145.1,36.5h7v7h-7V36.5z M152.4,0.2h7v7h-7V0.2z M152.4,7.5h7v7h-7V7.5z
	 M152.4,36.5h7v7h-7V36.5z M159.6,0.2h7v7h-7V0.2z M159.6,7.5h7v7h-7V7.5z M159.6,36.5h7v7h-7V36.5z M166.9,0.2h7v7h-7V0.2z
	 M166.9,7.5h7v7h-7V7.5z M166.9,36.5h7v7h-7V36.5z M174.2,0.2h7v7h-7V0.2z M174.2,7.5h7v7h-7V7.5z M174.2,36.5h7v7h-7V36.5z
	 M181.4,0.2h7v7h-7V0.2z M181.4,7.5h7v7h-7V7.5z M181.4,36.5h7v7h-7V36.5z M188.7,0.2h7v7h-7V0.2z M188.7,7.5h7v7h-7V7.5z
	 M188.7,36.5h7v7h-7V36.5z M195.9,0.2h7v7h-7V0.2z M195.9,7.5h7v7h-7V7.5z M195.9,36.5h7v7h-7V36.5z M203.2,0.2h7v7h-7V0.2z
	 M203.2,7.5h7v7h-7V7.5z M203.2,36.5h7v7h-7V36.5z M210.5,0.2h7v7h-7V0.2z M210.5,7.5h7v7h-7V7.5z M210.5,36.5h7v7h-7V36.5z
	 M217.7,0.2h7v7h-7V0.2z M217.7,7.5h7v7h-7V7.5z M217.7,36.5h7v7h-7V36.5z M225,0.2h7v7h-7V0.2z M225,7.5h7v7h-7V7.5z M166.9,14.8h7
	v7h-7V14.8z M225,36.5h7v7h-7V36.5z M232.2,0.2h7v7h-7V0.2z M232.2,7.5h7v7h-7V7.5z M174.1,14.8h7v7h-7V14.8z M174.1,22.1h7v7h-7
	V22.1z M232.2,36.5h7v7h-7V36.5z M239.5,0.2h7v7h-7V0.2z M239.5,7.5h7v7h-7V7.5z M181.4,14.8h7v7h-7V14.8z M181.4,22.1h7v7h-7V22.1z
	 M181.4,29.3h7v7h-7V29.3z M239.5,36.5h7v7h-7V36.5z M246.8,0.2h7v7h-7V0.2z M246.8,7.5h7v7h-7V7.5z M188.7,14.8h7v7h-7V14.8z
	 M188.7,22.1h7v7h-7V22.1z M188.7,29.3h7v7h-7V29.3z M246.8,36.5h7v7h-7V36.5z M254,0.2h7v7h-7V0.2z M254,7.5h7v7h-7V7.5z
	 M195.9,22.1h7v7h-7V22.1z M195.9,29.3h7v7h-7V29.3z M254,36.5h7v7h-7V36.5z M261.3,0.2h7v7h-7V0.2z M261.3,7.5h7v7h-7V7.5z
	 M203.2,29.3h7v7h-7V29.3z M261.3,36.5h7v7h-7V36.5z M268.5,0.2h7v7h-7V0.2z M268.5,7.5h7v7h-7V7.5z M268.5,36.5h7v7h-7V36.5z
	 M275.8,0.2h7v7h-7V0.2z M275.8,7.5h7v7h-7V7.5z M275.8,36.5h7v7h-7V36.5z M283.1,0.2h7v7h-7V0.2z M283.1,7.5h7v7h-7V7.5z
	 M283.1,36.5h7v7h-7V36.5z M290.3,0.2h7v7h-7V0.2z M290.3,7.5h7v7h-7V7.5z M290.3,36.5h7v7h-7V36.5z M297.6,0.2h7v7h-7V0.2z
	 M297.6,7.5h7v7h-7V7.5z M297.6,36.5h7v7h-7V36.5z M304.8,0.2h7v7h-7V0.2z M304.8,7.5h7v7h-7V7.5z M304.8,36.5h7v7h-7V36.5z
	 M312.1,0.2h7v7h-7V0.2z M312.1,7.5h7v7h-7V7.5z M312.1,36.5h7v7h-7V36.5z M319.4,0.2h7v7h-7V0.2z M319.4,7.5h7v7h-7V7.5z
	 M319.4,36.5h7v7h-7V36.5z M326.6,0.2h7v7h-7V0.2z M326.6,7.5h7v7h-7V7.5z M326.6,36.5h7v7h-7V36.5z M333.9,0.2h7v7h-7V0.2z
	 M333.9,7.5h7v7h-7V7.5z M333.9,36.5h7v7h-7V36.5z M341.1,0.2h7v7h-7V0.2z M341.1,7.5h7v7h-7V7.5z M341.1,36.5h7v7h-7V36.5z
	 M348.4,0.2h7v7h-7V0.2z M348.4,7.5h7v7h-7V7.5z M348.4,36.5h7v7h-7V36.5z M355.7,0.2h7v7h-7V0.2z M355.7,7.5h7v7h-7V7.5z
	 M355.7,36.5h7v7h-7V36.5z M362.9,0.2h7v7h-7V0.2z M362.9,7.5h7v7h-7V7.5z M362.9,36.5h7v7h-7V36.5z M370.2,0.2h7v7h-7V0.2z
	 M370.2,7.5h7v7h-7V7.5z M370.2,36.5h7v7h-7V36.5z M377.4,0.2h7v7h-7V0.2z M377.4,7.5h7v7h-7V7.5z M304.8,14.8h7v7h-7V14.8z
	 M312.1,14.8h7v7h-7V14.8z M312.1,22.1h7v7h-7V22.1z M319.4,14.8h7v7h-7V14.8z M319.4,22.1h7v7h-7V22.1z M319.4,29.3h7v7h-7V29.3z
	 M326.6,14.8h7v7h-7V14.8z M326.6,22.1h7v7h-7V22.1z M326.6,29.3h7v7h-7V29.3z M333.9,22.1h7v7h-7V22.1z M333.9,29.3h7v7h-7V29.3z
	 M341.1,29.3h7v7h-7V29.3z M377.4,36.5h7v7h-7V36.5z M384.7,0.2h7v7h-7V0.2z M384.7,7.5h7v7h-7V7.5z M384.7,36.5h7v7h-7V36.5z
	 M392,0.2h7v7h-7V0.2z M392,7.5h7v7h-7V7.5z M392,36.5h7v7h-7V36.5z M399.2,0.2h7v7h-7V0.2z M399.2,7.5h7v7h-7V7.5z M399.2,36.5h7v7
	h-7V36.5z M406.5,0.2h7v7h-7V0.2z M406.5,7.5h7v7h-7V7.5z M406.5,36.5h7v7h-7V36.5z M413.7,0.2h7v7h-7V0.2z M413.7,7.5h7v7h-7V7.5z
	 M413.7,36.5h7v7h-7V36.5z M421,0.2h7v7h-7V0.2z M421,7.5h7v7h-7V7.5z M421,36.5h7v7h-7V36.5z M428.3,0.2h7v7h-7V0.2z M428.3,7.5h7
	v7h-7V7.5z M428.3,36.5h7v7h-7V36.5z M435.5,0.2h7v7h-7V0.2z M435.5,7.5h7v7h-7V7.5z M435.5,36.5h7v7h-7V36.5z M442.8,0.2h7v7h-7
	V0.2z M442.8,7.5h7v7h-7V7.5z M442.8,36.5h7v7h-7V36.5z M450,0.2h7v7h-7V0.2z M450,7.5h7v7h-7V7.5z M450,36.5h7v7h-7V36.5z
	 M457.3,0.2h7v7h-7V0.2z M457.3,7.5h7v7h-7V7.5z M442.8,14.8h7v7h-7V14.8z M457.3,36.5h7v7h-7V36.5z M464.6,0.2h7v7h-7V0.2z
	 M464.6,7.5h7v7h-7V7.5z M450.1,14.8h7v7h-7V14.8z M450.1,22.1h7v7h-7V22.1z M464.6,36.5h7v7h-7V36.5z M471.8,0.2h7v7h-7V0.2z
	 M471.8,7.5h7v7h-7V7.5z M457.3,14.8h7v7h-7V14.8z M457.3,22.1h7v7h-7V22.1z M457.3,29.3h7v7h-7V29.3z M471.8,36.5h7v7h-7V36.5z
	 M479.1,0.2h7v7h-7V0.2z M479.1,7.5h7v7h-7V7.5z M464.6,14.8h7v7h-7V14.8z M464.6,22.1h7v7h-7V22.1z M464.6,29.3h7v7h-7V29.3z
	 M479.1,36.5h7v7h-7V36.5z M486.3,0.2h7v7h-7V0.2z M486.3,7.5h7v7h-7V7.5z M471.8,22.1h7v7h-7V22.1z M471.8,29.3h7v7h-7V29.3z
	 M486.3,36.5h7v7h-7V36.5z M493.6,0.2h7v7h-7V0.2z M493.6,7.5h7v7h-7V7.5z M479.1,29.3h7v7h-7V29.3z M493.6,36.5h7v7h-7V36.5z
	 M500.9,0.2h7v7h-7V0.2z M500.9,7.5h7v7h-7V7.5z M508.1,0.2h7v7h-7V0.2z M508.1,7.5h7v7h-7V7.5z M14.4,43.8h7v7h-7V43.8z M21.7,43.8
	h7v7h-7V43.8z M29,43.8h7v7h-7V43.8z M36.2,43.8h7v7h-7V43.8z M43.5,43.8h7v7h-7V43.8z M50.7,43.8h7v7h-7V43.8z M58,43.8h7v7h-7
	V43.8z M65.3,43.8h7v7h-7V43.8z M72.5,43.8h7v7h-7V43.8z M79.8,43.8h7v7h-7V43.8z M87,43.8h7v7h-7V43.8z M94.3,43.8h7v7h-7V43.8z
	 M101.6,43.8h7v7h-7V43.8z M108.8,43.8h7v7h-7V43.8z M116.1,43.8h7v7h-7V43.8z M123.3,43.8h7v7h-7V43.8z M130.6,43.8h7v7h-7V43.8z
	 M137.9,43.8h7v7h-7V43.8z M145.1,43.8h7v7h-7V43.8z M152.4,43.8h7v7h-7V43.8z M159.6,43.8h7v7h-7V43.8z M166.9,43.8h7v7h-7V43.8z
	 M174.2,43.8h7v7h-7V43.8z M181.4,43.8h7v7h-7V43.8z M188.7,43.8h7v7h-7V43.8z M195.9,43.8h7v7h-7V43.8z M203.2,43.8h7v7h-7V43.8z
	 M210.5,43.8h7v7h-7V43.8z M217.7,43.8h7v7h-7V43.8z M225,43.8h7v7h-7V43.8z M232.2,43.8h7v7h-7V43.8z M239.5,43.8h7v7h-7V43.8z
	 M246.8,43.8h7v7h-7V43.8z M254,43.8h7v7h-7V43.8z M261.3,43.8h7v7h-7V43.8z M268.5,43.8h7v7h-7V43.8z M275.8,43.8h7v7h-7V43.8z
	 M283.1,43.8h7v7h-7V43.8z M290.3,43.8h7v7h-7V43.8z M297.6,43.8h7v7h-7V43.8z M304.8,43.8h7v7h-7V43.8z M312.1,43.8h7v7h-7V43.8z
	 M319.4,43.8h7v7h-7V43.8z M326.6,43.8h7v7h-7V43.8z M333.9,43.8h7v7h-7V43.8z M341.1,43.8h7v7h-7V43.8z M348.4,43.8h7v7h-7V43.8z
	 M355.7,43.8h7v7h-7V43.8z M362.9,43.8h7v7h-7V43.8z M370.2,43.8h7v7h-7V43.8z M377.4,43.8h7v7h-7V43.8z M384.7,43.8h7v7h-7V43.8z
	 M392,43.8h7v7h-7V43.8z M399.2,43.8h7v7h-7V43.8z M406.5,43.8h7v7h-7V43.8z M413.7,43.8h7v7h-7V43.8z M421,43.8h7v7h-7V43.8z
	 M428.3,43.8h7v7h-7V43.8z M435.5,43.8h7v7h-7V43.8z M442.8,43.8h7v7h-7V43.8z M450,43.8h7v7h-7V43.8z M457.3,43.8h7v7h-7V43.8z
	 M464.6,43.8h7v7h-7V43.8z M471.8,43.8h7v7h-7V43.8z M479.1,43.8h7v7h-7V43.8z M486.3,43.8h7v7h-7V43.8z M493.6,43.8h7v7h-7V43.8z"
	/>
</svg>
