<?xml version="1.0" encoding="utf-8"?>
<!-- Generator: Adobe Illustrator 27.3.1, SVG Export Plug-In . SVG Version: 6.00 Build 0)  -->
<svg version="1.1" id="Слой_1" xmlns="http://www.w3.org/2000/svg" xmlns:xlink="http://www.w3.org/1999/xlink" x="0px" y="0px"
	 viewBox="0 0 515.2 50.6" style="enable-background:new 0 0 515.2 50.6;" xml:space="preserve">
<style type="text/css">
	.st0{fill:#1E0E01;}
</style>
<rect y="479.2" class="st0" width="7" height="7"/>
<rect y="486.4" class="st0" width="7" height="7"/>
<rect x="7.3" y="479.2" class="st0" width="7" height="7"/>
<rect x="7.3" y="486.4" class="st0" width="7" height="7"/>
<rect x="14.5" y="479.2" class="st0" width="7" height="7"/>
<rect x="14.5" y="486.4" class="st0" width="7" height="7"/>
<rect x="14.5" y="515.4" class="st0" width="7" height="7"/>
<rect x="14.5" y="522.7" class="st0" width="7" height="7"/>
<rect x="21.8" y="479.2" class="st0" width="7" height="7"/>
<rect x="21.8" y="486.4" class="st0" width="7" height="7"/>
<rect x="21.8" y="493.7" class="st0" width="7" height="7"/>
<rect x="21.8" y="508.2" class="st0" width="7" height="7"/>
<rect x="21.8" y="515.4" class="st0" width="7" height="7"/>
<rect x="21.8" y="522.7" class="st0" width="7" height="7"/>
<rect x="29.1" y="479.2" class="st0" width="7" height="7"/>
<rect x="29.1" y="486.4" class="st0" width="7" height="7"/>
<rect x="29.1" y="493.7" class="st0" width="7" height="7"/>
<rect x="29.1" y="500.9" class="st0" width="7" height="7"/>
<rect x="29.1" y="508.2" class="st0" width="7" height="7"/>
<rect x="29.1" y="515.4" class="st0" width="7" height="7"/>
<rect x="29.1" y="522.7" class="st0" width="7" height="7"/>
<rect x="36.3" y="479.2" class="st0" width="7" height="7"/>
<rect x="36.3" y="486.4" class="st0" width="7" height="7"/>
<rect x="36.3" y="493.7" class="st0" width="7" height="7"/>
<rect x="36.3" y="500.9" class="st0" width="7" height="7"/>
<rect x="36.3" y="508.2" class="st0" width="7" height="7"/>
<rect x="36.3" y="515.4" class="st0" width="7" height="7"/>
<rect x="36.3" y="522.7" class="st0" width="7" height="7"/>
<rect x="43.6" y="479.2" class="st0" width="7" height="7"/>
<rect x="43.6" y="486.4" class="st0" width="7" height="7"/>
<rect x="43.6" y="493.7" class="st0" width="7" height="7"/>
<rect x="43.6" y="508.2" class="st0" width="7" height="7"/>
<rect x="43.6" y="515.4" class="st0" width="7" height="7"/>
<rect x="43.6" y="522.7" class="st0" width="7" height="7"/>
<rect x="50.8" y="479.2" class="st0" width="7" height="7"/>
<rect x="50.8" y="486.4" class="st0" width="7" height="7"/>
<rect x="50.8" y="515.4" class="st0" width="7" height="7"/>
<rect x="50.8" y="522.7" class="st0" width="7" height="7"/>
<rect x="58.1" y="479.2" class="st0" width="7" height="7"/>
<rect x="58.1" y="486.4" class="st0" width="7" height="7"/>
<rect x="58.1" y="493.7" class="st0" width="7" height="7"/>
<rect x="58.1" y="508.2" class="st0" width="7" height="7"/>
<rect x="58.1" y="515.4" class="st0" width="7" height="7"/>
<rect x="58.1" y="522.7" class="st0" width="7" height="7"/>
<rect x="65.4" y="479.2" class="st0" width="7" height="7"/>
<rect x="65.4" y="486.4" class="st0" width="7" height="7"/>
<rect x="65.4" y="493.7" class="st0" width="7" height="7"/>
<rect x="65.4" y="500.9" class="st0" width="7" height="7"/>
<rect x="65.4" y="508.2" class="st0" width="7" height="7"/>
<rect x="65.4" y="515.4" class="st0" width="7" height="7"/>
<rect x="65.4" y="522.7" class="st0" width="7" height="7"/>
<rect x="72.6" y="479.2" class="st0" width="7" height="7"/>
<rect x="72.6" y="486.4" class="st0" width="7" height="7"/>
<rect x="72.6" y="493.7" class="st0" width="7" height="7"/>
<rect x="72.6" y="500.9" class="st0" width="7" height="7"/>
<rect x="72.6" y="508.2" class="st0" width="7" height="7"/>
<rect x="72.6" y="515.4" class="st0" width="7" height="7"/>
<rect x="72.6" y="522.7" class="st0" width="7" height="7"/>
<rect x="79.9" y="479.2" class="st0" width="7" height="7"/>
<rect x="79.9" y="486.4" class="st0" width="7" height="7"/>
<rect x="79.9" y="493.7" class="st0" width="7" height="7"/>
<rect x="79.9" y="508.2" class="st0" width="7" height="7"/>
<rect x="79.9" y="515.4" class="st0" width="7" height="7"/>
<rect x="79.9" y="522.7" class="st0" width="7" height="7"/>
<rect x="87.1" y="479.2" class="st0" width="7" height="7"/>
<rect x="87.1" y="486.4" class="st0" width="7" height="7"/>
<rect x="87.1" y="515.4" class="st0" width="7" height="7"/>
<rect x="87.1" y="522.7" class="st0" width="7" height="7"/>
<rect x="94.4" y="479.2" class="st0" width="7" height="7"/>
<rect x="94.4" y="486.4" class="st0" width="7" height="7"/>
<rect x="94.4" y="493.7" class="st0" width="7" height="7"/>
<rect x="94.4" y="508.2" class="st0" width="7" height="7"/>
<rect x="94.4" y="515.4" class="st0" width="7" height="7"/>
<rect x="94.4" y="522.7" class="st0" width="7" height="7"/>
<rect x="101.7" y="479.2" class="st0" width="7" height="7"/>
<rect x="101.7" y="486.4" class="st0" width="7" height="7"/>
<rect x="101.7" y="493.7" class="st0" width="7" height="7"/>
<rect x="101.7" y="500.9" class="st0" width="7" height="7"/>
<rect x="101.7" y="508.2" class="st0" width="7" height="7"/>
<rect x="101.7" y="515.4" class="st0" width="7" height="7"/>
<rect x="101.7" y="522.7" class="st0" width="7" height="7"/>
<rect x="108.9" y="479.2" class="st0" width="7" height="7"/>
<rect x="108.9" y="486.4" class="st0" width="7" height="7"/>
<rect x="108.9" y="493.7" class="st0" width="7" height="7"/>
<rect x="108.9" y="500.9" class="st0" width="7" height="7"/>
<rect x="108.9" y="508.2" class="st0" width="7" height="7"/>
<rect x="108.9" y="515.4" class="st0" width="7" height="7"/>
<rect x="108.9" y="522.7" class="st0" width="7" height="7"/>
<rect x="116.2" y="479.2" class="st0" width="7" height="7"/>
<rect x="116.2" y="486.4" class="st0" width="7" height="7"/>
<rect x="116.2" y="493.7" class="st0" width="7" height="7"/>
<rect x="116.2" y="508.2" class="st0" width="7" height="7"/>
<rect x="116.2" y="515.4" class="st0" width="7" height="7"/>
<rect x="116.2" y="522.7" class="st0" width="7" height="7"/>
<rect x="123.4" y="479.2" class="st0" width="7" height="7"/>
<rect x="123.4" y="486.4" class="st0" width="7" height="7"/>
<rect x="123.4" y="515.4" class="st0" width="7" height="7"/>
<rect x="123.4" y="522.7" class="st0" width="7" height="7"/>
<rect x="130.7" y="479.2" class="st0" width="7" height="7"/>
<rect x="130.7" y="486.4" class="st0" width="7" height="7"/>
<rect x="130.7" y="493.7" class="st0" width="7" height="7"/>
<rect x="130.7" y="508.2" class="st0" width="7" height="7"/>
<rect x="130.7" y="515.4" class="st0" width="7" height="7"/>
<rect x="130.7" y="522.7" class="st0" width="7" height="7"/>
<rect x="138" y="479.2" class="st0" width="7" height="7"/>
<rect x="138" y="486.4" class="st0" width="7" height="7"/>
<rect x="138" y="493.7" class="st0" width="7" height="7"/>
<rect x="138" y="500.9" class="st0" width="7" height="7"/>
<rect x="138" y="508.2" class="st0" width="7" height="7"/>
<rect x="138" y="515.4" class="st0" width="7" height="7"/>
<rect x="138" y="522.7" class="st0" width="7" height="7"/>
<rect x="145.2" y="479.2" class="st0" width="7" height="7"/>
<rect x="145.2" y="486.4" class="st0" width="7" height="7"/>
<rect x="145.2" y="493.7" class="st0" width="7" height="7"/>
<rect x="145.2" y="500.9" class="st0" width="7" height="7"/>
<rect x="145.2" y="508.2" class="st0" width="7" height="7"/>
<rect x="145.2" y="515.4" class="st0" width="7" height="7"/>
<rect x="145.2" y="522.7" class="st0" width="7" height="7"/>
<rect x="152.5" y="479.2" class="st0" width="7" height="7"/>
<rect x="152.5" y="486.4" class="st0" width="7" height="7"/>
<rect x="152.5" y="493.7" class="st0" width="7" height="7"/>
<rect x="152.5" y="508.2" class="st0" width="7" height="7"/>
<rect x="152.5" y="515.4" class="st0" width="7" height="7"/>
<rect x="152.5" y="522.7" class="st0" width="7" height="7"/>
<rect x="159.7" y="479.2" class="st0" width="7" height="7"/>
<rect x="159.7" y="486.4" class="st0" width="7" height="7"/>
<rect x="159.7" y="515.4" class="st0" width="7" height="7"/>
<rect x="159.7" y="522.7" class="st0" width="7" height="7"/>
<rect x="167" y="479.2" class="st0" width="7" height="7"/>
<rect x="167" y="486.4" class="st0" width="7" height="7"/>
<rect x="167" y="493.7" class="st0" width="7" height="7"/>
<rect x="167" y="508.2" class="st0" width="7" height="7"/>
<rect x="167" y="515.4" class="st0" width="7" height="7"/>
<rect x="167" y="522.7" class="st0" width="7" height="7"/>
<rect x="174.3" y="479.2" class="st0" width="7" height="7"/>
<rect x="174.3" y="486.4" class="st0" width="7" height="7"/>
<rect x="174.3" y="493.7" class="st0" width="7" height="7"/>
<rect x="174.3" y="500.9" class="st0" width="7" height="7"/>
<rect x="174.3" y="508.2" class="st0" width="7" height="7"/>
<rect x="174.3" y="515.4" class="st0" width="7" height="7"/>
<rect x="174.3" y="522.7" class="st0" width="7" height="7"/>
<rect x="181.5" y="479.2" class="st0" width="7" height="7"/>
<rect x="181.5" y="486.4" class="st0" width="7" height="7"/>
<rect x="181.5" y="493.7" class="st0" width="7" height="7"/>
<rect x="181.5" y="500.9" class="st0" width="7" height="7"/>
<rect x="181.5" y="508.2" class="st0" width="7" height="7"/>
<rect x="181.5" y="515.4" class="st0" width="7" height="7"/>
<rect x="181.5" y="522.7" class="st0" width="7" height="7"/>
<rect x="188.8" y="479.2" class="st0" width="7" height="7"/>
<rect x="188.8" y="486.4" class="st0" width="7" height="7"/>
<rect x="188.8" y="493.7" class="st0" width="7" height="7"/>
<rect x="188.8" y="508.2" class="st0" width="7" height="7"/>
<rect x="188.8" y="515.4" class="st0" width="7" height="7"/>
<rect x="188.8" y="522.7" class="st0" width="7" height="7"/>
<rect x="196" y="479.2" class="st0" width="7" height="7"/>
<rect x="196" y="486.4" class="st0" width="7" height="7"/>
<rect x="196" y="515.4" class="st0" width="7" height="7"/>
<rect x="196" y="522.7" class="st0" width="7" height="7"/>
<rect x="203.3" y="479.2" class="st0" width="7" height="7"/>
<rect x="203.3" y="486.4" class="st0" width="7" height="7"/>
<rect x="203.3" y="493.7" class="st0" width="7" height="7"/>
<rect x="203.3" y="508.2" class="st0" width="7" height="7"/>
<rect x="203.3" y="515.4" class="st0" width="7" height="7"/>
<rect x="203.3" y="522.7" class="st0" width="7" height="7"/>
<rect x="210.6" y="479.2" class="st0" width="7" height="7"/>
<rect x="210.6" y="486.4" class="st0" width="7" height="7"/>
<rect x="210.6" y="493.7" class="st0" width="7" height="7"/>
<rect x="210.6" y="500.9" class="st0" width="7" height="7"/>
<rect x="210.6" y="508.2" class="st0" width="7" height="7"/>
<rect x="210.6" y="515.4" class="st0" width="7" height="7"/>
<rect x="210.6" y="522.7" class="st0" width="7" height="7"/>
<rect x="217.8" y="479.2" class="st0" width="7" height="7"/>
<rect x="217.8" y="486.4" class="st0" width="7" height="7"/>
<rect x="217.8" y="493.7" class="st0" width="7" height="7"/>
<rect x="217.8" y="500.9" class="st0" width="7" height="7"/>
<rect x="217.8" y="508.2" class="st0" width="7" height="7"/>
<rect x="217.8" y="515.4" class="st0" width="7" height="7"/>
<rect x="217.8" y="522.7" class="st0" width="7" height="7"/>
<rect x="225.1" y="479.2" class="st0" width="7" height="7"/>
<rect x="225.1" y="486.4" class="st0" width="7" height="7"/>
<rect x="225.1" y="493.7" class="st0" width="7" height="7"/>
<rect x="225.1" y="508.2" class="st0" width="7" height="7"/>
<rect x="225.1" y="515.4" class="st0" width="7" height="7"/>
<rect x="225.1" y="522.7" class="st0" width="7" height="7"/>
<rect x="232.3" y="479.2" class="st0" width="7" height="7"/>
<rect x="232.3" y="486.4" class="st0" width="7" height="7"/>
<rect x="232.3" y="515.4" class="st0" width="7" height="7"/>
<rect x="232.3" y="522.7" class="st0" width="7" height="7"/>
<rect x="239.6" y="479.2" class="st0" width="7" height="7"/>
<rect x="239.6" y="486.4" class="st0" width="7" height="7"/>
<rect x="239.6" y="493.7" class="st0" width="7" height="7"/>
<rect x="239.6" y="508.2" class="st0" width="7" height="7"/>
<rect x="239.6" y="515.4" class="st0" width="7" height="7"/>
<rect x="239.6" y="522.7" class="st0" width="7" height="7"/>
<rect x="246.9" y="479.2" class="st0" width="7" height="7"/>
<rect x="246.9" y="486.4" class="st0" width="7" height="7"/>
<rect x="246.9" y="493.7" class="st0" width="7" height="7"/>
<rect x="246.9" y="500.9" class="st0" width="7" height="7"/>
<rect x="246.9" y="508.2" class="st0" width="7" height="7"/>
<rect x="246.9" y="515.4" class="st0" width="7" height="7"/>
<rect x="246.9" y="522.7" class="st0" width="7" height="7"/>
<rect x="254.1" y="479.2" class="st0" width="7" height="7"/>
<rect x="254.1" y="486.4" class="st0" width="7" height="7"/>
<rect x="254.1" y="493.7" class="st0" width="7" height="7"/>
<rect x="254.1" y="500.9" class="st0" width="7" height="7"/>
<rect x="254.1" y="508.2" class="st0" width="7" height="7"/>
<rect x="254.1" y="515.4" class="st0" width="7" height="7"/>
<rect x="254.1" y="522.7" class="st0" width="7" height="7"/>
<rect x="261.4" y="479.2" class="st0" width="7" height="7"/>
<rect x="261.4" y="486.4" class="st0" width="7" height="7"/>
<rect x="261.4" y="493.7" class="st0" width="7" height="7"/>
<rect x="261.4" y="508.2" class="st0" width="7" height="7"/>
<rect x="261.4" y="515.4" class="st0" width="7" height="7"/>
<rect x="261.4" y="522.7" class="st0" width="7" height="7"/>
<rect x="268.6" y="479.2" class="st0" width="7" height="7"/>
<rect x="268.6" y="486.4" class="st0" width="7" height="7"/>
<rect x="268.6" y="515.4" class="st0" width="7" height="7"/>
<rect x="268.6" y="522.7" class="st0" width="7" height="7"/>
<rect x="275.9" y="479.2" class="st0" width="7" height="7"/>
<rect x="275.9" y="486.4" class="st0" width="7" height="7"/>
<rect x="275.9" y="515.4" class="st0" width="7" height="7"/>
<rect x="275.9" y="522.7" class="st0" width="7" height="7"/>
<rect x="283.2" y="479.2" class="st0" width="7" height="7"/>
<rect x="283.2" y="486.4" class="st0" width="7" height="7"/>
<rect x="283.2" y="493.7" class="st0" width="7" height="7"/>
<rect x="283.2" y="508.2" class="st0" width="7" height="7"/>
<rect x="283.2" y="515.4" class="st0" width="7" height="7"/>
<rect x="283.2" y="522.7" class="st0" width="7" height="7"/>
<rect x="290.4" y="479.2" class="st0" width="7" height="7"/>
<rect x="290.4" y="486.4" class="st0" width="7" height="7"/>
<rect x="290.4" y="493.7" class="st0" width="7" height="7"/>
<rect x="290.4" y="500.9" class="st0" width="7" height="7"/>
<rect x="290.4" y="508.2" class="st0" width="7" height="7"/>
<rect x="290.4" y="515.4" class="st0" width="7" height="7"/>
<rect x="290.4" y="522.7" class="st0" width="7" height="7"/>
<rect x="297.7" y="479.2" class="st0" width="7" height="7"/>
<rect x="297.7" y="486.4" class="st0" width="7" height="7"/>
<rect x="297.7" y="493.7" class="st0" width="7" height="7"/>
<rect x="297.7" y="500.9" class="st0" width="7" height="7"/>
<rect x="297.7" y="508.2" class="st0" width="7" height="7"/>
<rect x="297.7" y="515.4" class="st0" width="7" height="7"/>
<rect x="297.7" y="522.7" class="st0" width="7" height="7"/>
<rect x="304.9" y="479.2" class="st0" width="7" height="7"/>
<rect x="304.9" y="486.4" class="st0" width="7" height="7"/>
<rect x="304.9" y="493.7" class="st0" width="7" height="7"/>
<rect x="304.9" y="508.2" class="st0" width="7" height="7"/>
<rect x="304.9" y="515.4" class="st0" width="7" height="7"/>
<rect x="304.9" y="522.7" class="st0" width="7" height="7"/>
<rect x="312.2" y="479.2" class="st0" width="7" height="7"/>
<rect x="312.2" y="486.4" class="st0" width="7" height="7"/>
<rect x="312.2" y="515.4" class="st0" width="7" height="7"/>
<rect x="312.2" y="522.7" class="st0" width="7" height="7"/>
<rect x="319.5" y="479.2" class="st0" width="7" height="7"/>
<rect x="319.5" y="486.4" class="st0" width="7" height="7"/>
<rect x="319.5" y="493.7" class="st0" width="7" height="7"/>
<rect x="319.5" y="508.2" class="st0" width="7" height="7"/>
<rect x="319.5" y="515.4" class="st0" width="7" height="7"/>
<rect x="319.5" y="522.7" class="st0" width="7" height="7"/>
<rect x="326.7" y="479.2" class="st0" width="7" height="7"/>
<rect x="326.7" y="486.4" class="st0" width="7" height="7"/>
<rect x="326.7" y="493.7" class="st0" width="7" height="7"/>
<rect x="326.7" y="500.9" class="st0" width="7" height="7"/>
<rect x="326.7" y="508.2" class="st0" width="7" height="7"/>
<rect x="326.7" y="515.4" class="st0" width="7" height="7"/>
<rect x="326.7" y="522.7" class="st0" width="7" height="7"/>
<rect x="334" y="479.2" class="st0" width="7" height="7"/>
<rect x="334" y="486.4" class="st0" width="7" height="7"/>
<rect x="334" y="493.7" class="st0" width="7" height="7"/>
<rect x="334" y="500.9" class="st0" width="7" height="7"/>
<rect x="334" y="508.2" class="st0" width="7" height="7"/>
<rect x="334" y="515.4" class="st0" width="7" height="7"/>
<rect x="334" y="522.7" class="st0" width="7" height="7"/>
<rect x="341.2" y="479.2" class="st0" width="7" height="7"/>
<rect x="341.2" y="486.4" class="st0" width="7" height="7"/>
<rect x="341.2" y="493.7" class="st0" width="7" height="7"/>
<rect x="341.2" y="508.2" class="st0" width="7" height="7"/>
<rect x="341.2" y="515.4" class="st0" width="7" height="7"/>
<rect x="341.2" y="522.7" class="st0" width="7" height="7"/>
<rect x="348.5" y="479.2" class="st0" width="7" height="7"/>
<rect x="348.5" y="486.4" class="st0" width="7" height="7"/>
<rect x="348.5" y="515.4" class="st0" width="7" height="7"/>
<rect x="348.5" y="522.7" class="st0" width="7" height="7"/>
<rect x="355.8" y="479.2" class="st0" width="7" height="7"/>
<rect x="355.8" y="486.4" class="st0" width="7" height="7"/>
<rect x="355.8" y="493.7" class="st0" width="7" height="7"/>
<rect x="355.8" y="508.2" class="st0" width="7" height="7"/>
<rect x="355.8" y="515.4" class="st0" width="7" height="7"/>
<rect x="355.8" y="522.7" class="st0" width="7" height="7"/>
<rect x="363" y="479.2" class="st0" width="7" height="7"/>
<rect x="363" y="486.4" class="st0" width="7" height="7"/>
<rect x="363" y="493.7" class="st0" width="7" height="7"/>
<rect x="363" y="500.9" class="st0" width="7" height="7"/>
<rect x="363" y="508.2" class="st0" width="7" height="7"/>
<rect x="363" y="515.4" class="st0" width="7" height="7"/>
<rect x="363" y="522.7" class="st0" width="7" height="7"/>
<rect x="370.3" y="479.2" class="st0" width="7" height="7"/>
<rect x="370.3" y="486.4" class="st0" width="7" height="7"/>
<rect x="370.3" y="493.7" class="st0" width="7" height="7"/>
<rect x="370.3" y="500.9" class="st0" width="7" height="7"/>
<rect x="370.3" y="508.2" class="st0" width="7" height="7"/>
<rect x="370.3" y="515.4" class="st0" width="7" height="7"/>
<rect x="370.3" y="522.7" class="st0" width="7" height="7"/>
<rect x="377.5" y="479.2" class="st0" width="7" height="7"/>
<rect x="377.5" y="486.4" class="st0" width="7" height="7"/>
<rect x="377.5" y="493.7" class="st0" width="7" height="7"/>
<rect x="377.5" y="508.2" class="st0" width="7" height="7"/>
<rect x="377.5" y="515.4" class="st0" width="7" height="7"/>
<rect x="377.5" y="522.7" class="st0" width="7" height="7"/>
<rect x="384.8" y="479.2" class="st0" width="7" height="7"/>
<rect x="384.8" y="486.4" class="st0" width="7" height="7"/>
<rect x="384.8" y="515.4" class="st0" width="7" height="7"/>
<rect x="384.8" y="522.7" class="st0" width="7" height="7"/>
<rect x="392.1" y="479.2" class="st0" width="7" height="7"/>
<rect x="392.1" y="486.4" class="st0" width="7" height="7"/>
<rect x="392.1" y="493.7" class="st0" width="7" height="7"/>
<rect x="392.1" y="508.2" class="st0" width="7" height="7"/>
<rect x="392.1" y="515.4" class="st0" width="7" height="7"/>
<rect x="392.1" y="522.7" class="st0" width="7" height="7"/>
<rect x="399.3" y="479.2" class="st0" width="7" height="7"/>
<rect x="399.3" y="486.4" class="st0" width="7" height="7"/>
<rect x="399.3" y="493.7" class="st0" width="7" height="7"/>
<rect x="399.3" y="500.9" class="st0" width="7" height="7"/>
<rect x="399.3" y="508.2" class="st0" width="7" height="7"/>
<rect x="399.3" y="515.4" class="st0" width="7" height="7"/>
<rect x="399.3" y="522.7" class="st0" width="7" height="7"/>
<rect x="406.6" y="479.2" class="st0" width="7" height="7"/>
<rect x="406.6" y="486.4" class="st0" width="7" height="7"/>
<rect x="406.6" y="493.7" class="st0" width="7" height="7"/>
<rect x="406.6" y="500.9" class="st0" width="7" height="7"/>
<rect x="406.6" y="508.2" class="st0" width="7" height="7"/>
<rect x="406.6" y="515.4" class="st0" width="7" height="7"/>
<rect x="406.6" y="522.7" class="st0" width="7" height="7"/>
<rect x="413.8" y="479.2" class="st0" width="7" height="7"/>
<rect x="413.8" y="486.4" class="st0" width="7" height="7"/>
<rect x="413.8" y="493.7" class="st0" width="7" height="7"/>
<rect x="413.8" y="508.2" class="st0" width="7" height="7"/>
<rect x="413.8" y="515.4" class="st0" width="7" height="7"/>
<rect x="413.8" y="522.7" class="st0" width="7" height="7"/>
<rect x="421.1" y="479.2" class="st0" width="7" height="7"/>
<rect x="421.1" y="486.4" class="st0" width="7" height="7"/>
<rect x="421.1" y="515.4" class="st0" width="7" height="7"/>
<rect x="421.1" y="522.7" class="st0" width="7" height="7"/>
<rect x="428.4" y="479.2" class="st0" width="7" height="7"/>
<rect x="428.4" y="486.4" class="st0" width="7" height="7"/>
<rect x="428.4" y="493.7" class="st0" width="7" height="7"/>
<rect x="428.4" y="508.2" class="st0" width="7" height="7"/>
<rect x="428.4" y="515.4" class="st0" width="7" height="7"/>
<rect x="428.4" y="522.7" class="st0" width="7" height="7"/>
<rect x="435.6" y="479.2" class="st0" width="7" height="7"/>
<rect x="435.6" y="486.4" class="st0" width="7" height="7"/>
<rect x="435.6" y="493.7" class="st0" width="7" height="7"/>
<rect x="435.6" y="500.9" class="st0" width="7" height="7"/>
<rect x="435.6" y="508.2" class="st0" width="7" height="7"/>
<rect x="435.6" y="515.4" class="st0" width="7" height="7"/>
<rect x="435.6" y="522.7" class="st0" width="7" height="7"/>
<rect x="442.9" y="479.2" class="st0" width="7" height="7"/>
<rect x="442.9" y="486.4" class="st0" width="7" height="7"/>
<rect x="442.9" y="493.7" class="st0" width="7" height="7"/>
<rect x="442.9" y="500.9" class="st0" width="7" height="7"/>
<rect x="442.9" y="508.2" class="st0" width="7" height="7"/>
<rect x="442.9" y="515.4" class="st0" width="7" height="7"/>
<rect x="442.9" y="522.7" class="st0" width="7" height="7"/>
<rect x="450.1" y="479.2" class="st0" width="7" height="7"/>
<rect x="450.1" y="486.4" class="st0" width="7" height="7"/>
<rect x="450.1" y="493.7" class="st0" width="7" height="7"/>
<rect x="450.1" y="508.2" class="st0" width="7" height="7"/>
<rect x="450.1" y="515.4" class="st0" width="7" height="7"/>
<rect x="450.1" y="522.7" class="st0" width="7" height="7"/>
<rect x="457.4" y="479.2" class="st0" width="7" height="7"/>
<rect x="457.4" y="486.4" class="st0" width="7" height="7"/>
<rect x="457.4" y="515.4" class="st0" width="7" height="7"/>
<rect x="457.4" y="522.7" class="st0" width="7" height="7"/>
<rect x="464.7" y="479.2" class="st0" width="7" height="7"/>
<rect x="464.7" y="486.4" class="st0" width="7" height="7"/>
<rect x="464.7" y="493.7" class="st0" width="7" height="7"/>
<rect x="464.7" y="508.2" class="st0" width="7" height="7"/>
<rect x="464.7" y="515.4" class="st0" width="7" height="7"/>
<rect x="464.7" y="522.7" class="st0" width="7" height="7"/>
<rect x="471.9" y="479.2" class="st0" width="7" height="7"/>
<rect x="471.9" y="486.4" class="st0" width="7" height="7"/>
<rect x="471.9" y="493.7" class="st0" width="7" height="7"/>
<rect x="471.9" y="500.9" class="st0" width="7" height="7"/>
<rect x="471.9" y="508.2" class="st0" width="7" height="7"/>
<rect x="471.9" y="515.4" class="st0" width="7" height="7"/>
<rect x="471.9" y="522.7" class="st0" width="7" height="7"/>
<rect x="479.2" y="479.2" class="st0" width="7" height="7"/>
<rect x="479.2" y="486.4" class="st0" width="7" height="7"/>
<rect x="479.2" y="493.7" class="st0" width="7" height="7"/>
<rect x="479.2" y="500.9" class="st0" width="7" height="7"/>
<rect x="479.2" y="508.2" class="st0" width="7" height="7"/>
<rect x="479.2" y="515.4" class="st0" width="7" height="7"/>
<rect x="479.2" y="522.7" class="st0" width="7" height="7"/>
<rect x="486.4" y="479.2" class="st0" width="7" height="7"/>
<rect x="486.4" y="486.4" class="st0" width="7" height="7"/>
<rect x="486.4" y="493.7" class="st0" width="7" height="7"/>
<rect x="486.4" y="508.2" class="st0" width="7" height="7"/>
<rect x="486.4" y="515.4" class="st0" width="7" height="7"/>
<rect x="486.4" y="522.7" class="st0" width="7" height="7"/>
<rect x="493.7" y="479.2" class="st0" width="7" height="7"/>
<rect x="493.7" y="486.4" class="st0" width="7" height="7"/>
<rect x="493.7" y="515.4" class="st0" width="7" height="7"/>
<rect x="493.7" y="522.7" class="st0" width="7" height="7"/>
<rect x="501" y="479.2" class="st0" width="7" height="7"/>
<rect x="501" y="486.4" class="st0" width="7" height="7"/>
<rect x="508.2" y="479.2" class="st0" width="7" height="7"/>
<rect x="508.2" y="486.4" class="st0" width="7" height="7"/>
<path class="st0" d="M0,0h7v7H0V0z M0,7.2h7v7H0V7.2z M7.3,0h7v7h-7V0z M7.3,7.2h7v7h-7V7.2z M14.5,0h7v7h-7V0z M14.5,7.2h7v7h-7
	V7.2z M14.5,36.3h7v7h-7V36.3z M14.5,43.5h7v7h-7V43.5z M21.8,0h7v7h-7V0z M21.8,7.2h7v7h-7V7.2z M21.8,14.5h7v7h-7V14.5z M21.8,29
	h7v7h-7V29z M21.8,36.3h7v7h-7V36.3z M21.8,43.5h7v7h-7V43.5z M29.1,0h7v7h-7V0z M29.1,7.2h7v7h-7V7.2z M29.1,14.5h7v7h-7V14.5z
	 M29.1,21.7h7v7h-7V21.7z M29.1,29h7v7h-7V29z M29.1,36.3h7v7h-7V36.3z M29.1,43.5h7v7h-7V43.5z M36.3,0h7v7h-7V0z M36.3,7.2h7v7h-7
	V7.2z M36.3,14.5h7v7h-7V14.5z M36.3,21.7h7v7h-7V21.7z M36.3,29h7v7h-7V29z M36.3,36.3h7v7h-7V36.3z M36.3,43.5h7v7h-7V43.5z
	 M43.6,0h7v7h-7V0z M43.6,7.2h7v7h-7V7.2z M43.6,14.5h7v7h-7V14.5z M43.6,29h7v7h-7V29z M43.6,36.3h7v7h-7V36.3z M43.6,43.5h7v7h-7
	V43.5z M50.8,0h7v7h-7V0z M50.8,7.2h7v7h-7V7.2z M50.8,36.3h7v7h-7V36.3z M50.8,43.5h7v7h-7V43.5z M58.1,0h7v7h-7V0z M58.1,7.2h7v7
	h-7V7.2z M58.1,14.5h7v7h-7V14.5z M58.1,29h7v7h-7V29z M58.1,36.3h7v7h-7V36.3z M58.1,43.5h7v7h-7V43.5z M65.4,0h7v7h-7V0z
	 M65.4,7.2h7v7h-7V7.2z M65.4,14.5h7v7h-7V14.5z M65.4,21.7h7v7h-7V21.7z M65.4,29h7v7h-7V29z M65.4,36.3h7v7h-7V36.3z M65.4,43.5h7
	v7h-7V43.5z M72.6,0h7v7h-7V0z M72.6,7.2h7v7h-7V7.2z M72.6,14.5h7v7h-7V14.5z M72.6,21.7h7v7h-7V21.7z M72.6,29h7v7h-7V29z
	 M72.6,36.3h7v7h-7V36.3z M72.6,43.5h7v7h-7V43.5z M79.9,0h7v7h-7V0z M79.9,7.2h7v7h-7V7.2z M79.9,14.5h7v7h-7V14.5z M79.9,29h7v7
	h-7V29z M79.9,36.3h7v7h-7V36.3z M79.9,43.5h7v7h-7V43.5z M87.1,0h7v7h-7V0z M87.1,7.2h7v7h-7V7.2z M87.1,36.3h7v7h-7V36.3z
	 M87.1,43.5h7v7h-7V43.5z M94.4,0h7v7h-7V0z M94.4,7.2h7v7h-7V7.2z M94.4,14.5h7v7h-7V14.5z M94.4,29h7v7h-7V29z M94.4,36.3h7v7h-7
	V36.3z M94.4,43.5h7v7h-7V43.5z M101.7,0h7v7h-7V0z M101.7,7.2h7v7h-7V7.2z M101.7,14.5h7v7h-7V14.5z M101.7,21.7h7v7h-7V21.7z
	 M101.7,29h7v7h-7V29z M101.7,36.3h7v7h-7V36.3z M101.7,43.5h7v7h-7V43.5z M108.9,0h7v7h-7V0z M108.9,7.2h7v7h-7V7.2z M108.9,14.5h7
	v7h-7V14.5z M108.9,21.7h7v7h-7V21.7z M108.9,29h7v7h-7V29z M108.9,36.3h7v7h-7V36.3z M108.9,43.5h7v7h-7V43.5z M116.2,0h7v7h-7V0z
	 M116.2,7.2h7v7h-7V7.2z M116.2,14.5h7v7h-7V14.5z M116.2,29h7v7h-7V29z M116.2,36.3h7v7h-7V36.3z M116.2,43.5h7v7h-7V43.5z
	 M123.4,0h7v7h-7V0z M123.4,7.2h7v7h-7V7.2z M123.4,36.3h7v7h-7V36.3z M123.4,43.5h7v7h-7V43.5z M130.7,0h7v7h-7V0z M130.7,7.2h7v7
	h-7V7.2z M130.7,14.5h7v7h-7V14.5z M130.7,29h7v7h-7V29z M130.7,36.3h7v7h-7V36.3z M130.7,43.5h7v7h-7V43.5z M138,0h7v7h-7V0z
	 M138,7.2h7v7h-7V7.2z M138,14.5h7v7h-7V14.5z M138,21.7h7v7h-7V21.7z M138,29h7v7h-7V29z M138,36.3h7v7h-7V36.3z M138,43.5h7v7h-7
	V43.5z M145.2,0h7v7h-7V0z M145.2,7.2h7v7h-7V7.2z M145.2,14.5h7v7h-7V14.5z M145.2,21.7h7v7h-7V21.7z M145.2,29h7v7h-7V29z
	 M145.2,36.3h7v7h-7V36.3z M145.2,43.5h7v7h-7V43.5z M152.5,0h7v7h-7V0z M152.5,7.2h7v7h-7V7.2z M152.5,14.5h7v7h-7V14.5z M152.5,29
	h7v7h-7V29z M152.5,36.3h7v7h-7V36.3z M152.5,43.5h7v7h-7V43.5z M159.7,0h7v7h-7V0z M159.7,7.2h7v7h-7V7.2z M159.7,36.3h7v7h-7V36.3
	z M159.7,43.5h7v7h-7V43.5z M167,0h7v7h-7V0z M167,7.2h7v7h-7V7.2z M167,14.5h7v7h-7V14.5z M167,29h7v7h-7V29z M167,36.3h7v7h-7
	V36.3z M167,43.5h7v7h-7V43.5z M174.3,0h7v7h-7V0z M174.3,7.2h7v7h-7V7.2z M174.3,14.5h7v7h-7V14.5z M174.3,21.7h7v7h-7V21.7z
	 M174.3,29h7v7h-7V29z M174.3,36.3h7v7h-7V36.3z M174.3,43.5h7v7h-7V43.5z M181.5,0h7v7h-7V0z M181.5,7.2h7v7h-7V7.2z M181.5,14.5h7
	v7h-7V14.5z M181.5,21.7h7v7h-7V21.7z M181.5,29h7v7h-7V29z M181.5,36.3h7v7h-7V36.3z M181.5,43.5h7v7h-7V43.5z M188.8,0h7v7h-7V0z
	 M188.8,7.2h7v7h-7V7.2z M188.8,14.5h7v7h-7V14.5z M188.8,29h7v7h-7V29z M188.8,36.3h7v7h-7V36.3z M188.8,43.5h7v7h-7V43.5z M196,0
	h7v7h-7V0z M196,7.2h7v7h-7V7.2z M196,36.3h7v7h-7V36.3z M196,43.5h7v7h-7V43.5z M203.3,0h7v7h-7V0z M203.3,7.2h7v7h-7V7.2z
	 M203.3,14.5h7v7h-7V14.5z M203.3,29h7v7h-7V29z M203.3,36.3h7v7h-7V36.3z M203.3,43.5h7v7h-7V43.5z M210.6,0h7v7h-7V0z M210.6,7.2
	h7v7h-7V7.2z M210.6,14.5h7v7h-7V14.5z M210.6,21.7h7v7h-7V21.7z M210.6,29h7v7h-7V29z M210.6,36.3h7v7h-7V36.3z M210.6,43.5h7v7h-7
	V43.5z M217.8,0h7v7h-7V0z M217.8,7.2h7v7h-7V7.2z M217.8,14.5h7v7h-7V14.5z M217.8,21.7h7v7h-7V21.7z M217.8,29h7v7h-7V29z
	 M217.8,36.3h7v7h-7V36.3z M217.8,43.5h7v7h-7V43.5z M225.1,0h7v7h-7V0z M225.1,7.2h7v7h-7V7.2z M225.1,14.5h7v7h-7V14.5z M225.1,29
	h7v7h-7V29z M225.1,36.3h7v7h-7V36.3z M225.1,43.5h7v7h-7V43.5z M232.3,0h7v7h-7V0z M232.3,7.2h7v7h-7V7.2z M232.3,36.3h7v7h-7V36.3
	z M232.3,43.5h7v7h-7V43.5z M239.6,0h7v7h-7V0z M239.6,7.2h7v7h-7V7.2z M239.6,14.5h7v7h-7V14.5z M239.6,29h7v7h-7V29z M239.6,36.3
	h7v7h-7V36.3z M239.6,43.5h7v7h-7V43.5z M246.9,0h7v7h-7V0z M246.9,7.2h7v7h-7V7.2z M246.9,14.5h7v7h-7V14.5z M246.9,21.7h7v7h-7
	V21.7z M246.9,29h7v7h-7V29z M246.9,36.3h7v7h-7V36.3z M246.9,43.5h7v7h-7V43.5z M254.1,0h7v7h-7V0z M254.1,7.2h7v7h-7V7.2z
	 M254.1,14.5h7v7h-7V14.5z M254.1,21.7h7v7h-7V21.7z M254.1,29h7v7h-7V29z M254.1,36.3h7v7h-7V36.3z M254.1,43.5h7v7h-7V43.5z
	 M261.4,0h7v7h-7V0z M261.4,7.2h7v7h-7V7.2z M261.4,14.5h7v7h-7V14.5z M261.4,29h7v7h-7V29z M261.4,36.3h7v7h-7V36.3z M261.4,43.5h7
	v7h-7V43.5z M268.6,0h7v7h-7V0z M268.6,7.2h7v7h-7V7.2z M268.6,36.3h7v7h-7V36.3z M268.6,43.5h7v7h-7V43.5z M275.9,0h7v7h-7V0z
	 M275.9,7.2h7v7h-7V7.2z M275.9,36.3h7v7h-7V36.3z M275.9,43.5h7v7h-7V43.5z M283.2,0h7v7h-7V0z M283.2,7.2h7v7h-7V7.2z M283.2,14.5
	h7v7h-7V14.5z M283.2,29h7v7h-7V29z M283.2,36.3h7v7h-7V36.3z M283.2,43.5h7v7h-7V43.5z M290.4,0h7v7h-7V0z M290.4,7.2h7v7h-7V7.2z
	 M290.4,14.5h7v7h-7V14.5z M290.4,21.7h7v7h-7V21.7z M290.4,29h7v7h-7V29z M290.4,36.3h7v7h-7V36.3z M290.4,43.5h7v7h-7V43.5z
	 M297.7,0h7v7h-7V0z M297.7,7.2h7v7h-7V7.2z M297.7,14.5h7v7h-7V14.5z M297.7,21.7h7v7h-7V21.7z M297.7,29h7v7h-7V29z M297.7,36.3h7
	v7h-7V36.3z M297.7,43.5h7v7h-7V43.5z M304.9,0h7v7h-7V0z M304.9,7.2h7v7h-7V7.2z M304.9,14.5h7v7h-7V14.5z M304.9,29h7v7h-7V29z
	 M304.9,36.3h7v7h-7V36.3z M304.9,43.5h7v7h-7V43.5z M312.2,0h7v7h-7V0z M312.2,7.2h7v7h-7V7.2z M312.2,36.3h7v7h-7V36.3z
	 M312.2,43.5h7v7h-7V43.5z M319.5,0h7v7h-7V0z M319.5,7.2h7v7h-7V7.2z M319.5,14.5h7v7h-7V14.5z M319.5,29h7v7h-7V29z M319.5,36.3h7
	v7h-7V36.3z M319.5,43.5h7v7h-7V43.5z M326.7,0h7v7h-7V0z M326.7,7.2h7v7h-7V7.2z M326.7,14.5h7v7h-7V14.5z M326.7,21.7h7v7h-7V21.7
	z M326.7,29h7v7h-7V29z M326.7,36.3h7v7h-7V36.3z M326.7,43.5h7v7h-7V43.5z M334,0h7v7h-7V0z M334,7.2h7v7h-7V7.2z M334,14.5h7v7h-7
	V14.5z M334,21.7h7v7h-7V21.7z M334,29h7v7h-7V29z M334,36.3h7v7h-7V36.3z M334,43.5h7v7h-7V43.5z M341.2,0h7v7h-7V0z M341.2,7.2h7
	v7h-7V7.2z M341.2,14.5h7v7h-7V14.5z M341.2,29h7v7h-7V29z M341.2,36.3h7v7h-7V36.3z M341.2,43.5h7v7h-7V43.5z M348.5,0h7v7h-7V0z
	 M348.5,7.2h7v7h-7V7.2z M348.5,36.3h7v7h-7V36.3z M348.5,43.5h7v7h-7V43.5z M355.8,0h7v7h-7V0z M355.8,7.2h7v7h-7V7.2z M355.8,14.5
	h7v7h-7V14.5z M355.8,29h7v7h-7V29z M355.8,36.3h7v7h-7V36.3z M355.8,43.5h7v7h-7V43.5z M363,0h7v7h-7V0z M363,7.2h7v7h-7V7.2z
	 M363,14.5h7v7h-7V14.5z M363,21.7h7v7h-7V21.7z M363,29h7v7h-7V29z M363,36.3h7v7h-7V36.3z M363,43.5h7v7h-7V43.5z M370.3,0h7v7h-7
	V0z M370.3,7.2h7v7h-7V7.2z M370.3,14.5h7v7h-7V14.5z M370.3,21.7h7v7h-7V21.7z M370.3,29h7v7h-7V29z M370.3,36.3h7v7h-7V36.3z
	 M370.3,43.5h7v7h-7V43.5z M377.5,0h7v7h-7V0z M377.5,7.2h7v7h-7V7.2z M377.5,14.5h7v7h-7V14.5z M377.5,29h7v7h-7V29z M377.5,36.3h7
	v7h-7V36.3z M377.5,43.5h7v7h-7V43.5z M384.8,0h7v7h-7V0z M384.8,7.2h7v7h-7V7.2z M384.8,36.3h7v7h-7V36.3z M384.8,43.5h7v7h-7V43.5
	z M392.1,0h7v7h-7V0z M392.1,7.2h7v7h-7V7.2z M392.1,14.5h7v7h-7V14.5z M392.1,29h7v7h-7V29z M392.1,36.3h7v7h-7V36.3z M392.1,43.5
	h7v7h-7V43.5z M399.3,0h7v7h-7V0z M399.3,7.2h7v7h-7V7.2z M399.3,14.5h7v7h-7V14.5z M399.3,21.7h7v7h-7V21.7z M399.3,29h7v7h-7V29z
	 M399.3,36.3h7v7h-7V36.3z M399.3,43.5h7v7h-7V43.5z M406.6,0h7v7h-7V0z M406.6,7.2h7v7h-7V7.2z M406.6,14.5h7v7h-7V14.5z
	 M406.6,21.7h7v7h-7V21.7z M406.6,29h7v7h-7V29z M406.6,36.3h7v7h-7V36.3z M406.6,43.5h7v7h-7V43.5z M413.8,0h7v7h-7V0z M413.8,7.2
	h7v7h-7V7.2z M413.8,14.5h7v7h-7V14.5z M413.8,29h7v7h-7V29z M413.8,36.3h7v7h-7V36.3z M413.8,43.5h7v7h-7V43.5z M421.1,0h7v7h-7V0z
	 M421.1,7.2h7v7h-7V7.2z M421.1,36.3h7v7h-7V36.3z M421.1,43.5h7v7h-7V43.5z M428.4,0h7v7h-7V0z M428.4,7.2h7v7h-7V7.2z M428.4,14.5
	h7v7h-7V14.5z M428.4,29h7v7h-7V29z M428.4,36.3h7v7h-7V36.3z M428.4,43.5h7v7h-7V43.5z M435.6,0h7v7h-7V0z M435.6,7.2h7v7h-7V7.2z
	 M435.6,14.5h7v7h-7V14.5z M435.6,21.7h7v7h-7V21.7z M435.6,29h7v7h-7V29z M435.6,36.3h7v7h-7V36.3z M435.6,43.5h7v7h-7V43.5z
	 M442.9,0h7v7h-7V0z M442.9,7.2h7v7h-7V7.2z M442.9,14.5h7v7h-7V14.5z M442.9,21.7h7v7h-7V21.7z M442.9,29h7v7h-7V29z M442.9,36.3h7
	v7h-7V36.3z M442.9,43.5h7v7h-7V43.5z M450.1,0h7v7h-7V0z M450.1,7.2h7v7h-7V7.2z M450.1,14.5h7v7h-7V14.5z M450.1,29h7v7h-7V29z
	 M450.1,36.3h7v7h-7V36.3z M450.1,43.5h7v7h-7V43.5z M457.4,0h7v7h-7V0z M457.4,7.2h7v7h-7V7.2z M457.4,36.3h7v7h-7V36.3z
	 M457.4,43.5h7v7h-7V43.5z M464.7,0h7v7h-7V0z M464.7,7.2h7v7h-7V7.2z M464.7,14.5h7v7h-7V14.5z M464.7,29h7v7h-7V29z M464.7,36.3h7
	v7h-7V36.3z M464.7,43.5h7v7h-7V43.5z M471.9,0h7v7h-7V0z M471.9,7.2h7v7h-7V7.2z M471.9,14.5h7v7h-7V14.5z M471.9,21.7h7v7h-7V21.7
	z M471.9,29h7v7h-7V29z M471.9,36.3h7v7h-7V36.3z M471.9,43.5h7v7h-7V43.5z M479.2,0h7v7h-7V0z M479.2,7.2h7v7h-7V7.2z M479.2,14.5
	h7v7h-7V14.5z M479.2,21.7h7v7h-7V21.7z M479.2,29h7v7h-7V29z M479.2,36.3h7v7h-7V36.3z M479.2,43.5h7v7h-7V43.5z M486.4,0h7v7h-7V0
	z M486.4,7.2h7v7h-7V7.2z M486.4,14.5h7v7h-7V14.5z M486.4,29h7v7h-7V29z M486.4,36.3h7v7h-7V36.3z M486.4,43.5h7v7h-7V43.5z
	 M493.7,0h7v7h-7V0z M493.7,7.2h7v7h-7V7.2z M493.7,36.3h7v7h-7V36.3z M493.7,43.5h7v7h-7V43.5z M501,0h7v7h-7V0z M501,7.2h7v7h-7
	V7.2z M508.2,0h7v7h-7V0z M508.2,7.2h7v7h-7V7.2z"/>
</svg>
