<?xml version="1.0" encoding="utf-8"?>
<!-- Generator: Adobe Illustrator 27.3.1, SVG Export Plug-In . SVG Version: 6.00 Build 0)  -->
<svg version="1.1" id="Слой_1" xmlns="http://www.w3.org/2000/svg" xmlns:xlink="http://www.w3.org/1999/xlink" x="0px" y="0px"
	 viewBox="0 0 515.2 50.6" style="enable-background:new 0 0 515.2 50.6;" xml:space="preserve">
<style type="text/css">
	.st0{fill:#1E0E01;}
</style>
<path class="st0" d="M0,7.2h7v7H0V7.2z M0,14.5h7v7H0V14.5z M7.3,0h7v7h-7V0z M7.3,7.2h7v7h-7V7.2z M7.3,14.5h7v7h-7V14.5z M14.5,0
	h7v7h-7V0z M14.5,7.2h7v7h-7V7.2z M14.5,14.5h7v7h-7V14.5z M21.8,0h7v7h-7V0z M21.8,7.2h7v7h-7V7.2z M21.8,14.5h7v7h-7V14.5z
	 M29.1,0h7v7h-7C29.1,7,29.1,0,29.1,0z M29.1,7.2h7v7h-7C29.1,14.2,29.1,7.2,29.1,7.2z M29.1,14.5h7v7h-7
	C29.1,21.5,29.1,14.5,29.1,14.5z M36.3,0h7v7h-7V0z M36.3,7.2h7v7h-7V7.2z M36.3,14.5h7v7h-7V14.5z M43.6,0h7v7h-7V0z M43.6,7.2h7v7
	h-7V7.2z M43.6,14.5h7v7h-7V14.5z M50.8,0h7v7h-7V0z M50.8,7.2h7v7h-7V7.2z M50.8,14.5h7v7h-7V14.5z M0,21.8h7v7H0V21.8z M7.3,29h7
	v7h-7V29z M7.3,36.3h7v7h-7V36.3z M14.5,21.8h7v7h-7V21.8z M14.5,29h7v7h-7V29z M14.5,43.6h7v7h-7V43.6z M21.8,21.8h7v7h-7V21.8z
	 M21.8,29h7v7h-7V29z M21.8,36.3h7v7h-7V36.3z M29.1,21.8h7v7h-7C29.1,28.8,29.1,21.8,29.1,21.8z M29.1,36.3h7v7h-7
	C29.1,43.3,29.1,36.3,29.1,36.3z M29.1,43.6h7v7h-7C29.1,50.6,29.1,43.6,29.1,43.6z M36.3,21.8h7v7h-7V21.8z M36.3,29h7v7h-7V29z
	 M36.3,36.3h7v7h-7V36.3z M43.6,21.8h7v7h-7V21.8z M43.6,29h7v7h-7V29z M43.6,43.6h7v7h-7V43.6z M50.8,21.8h7v7h-7V21.8z M50.8,36.3
	h7v7h-7V36.3z M50.8,43.6h7v7h-7V43.6z M58.1,0h7v7h-7V0z M58.1,7.2h7v7h-7V7.2z M65.4,0h7v7h-7V0z M65.4,7.2h7v7h-7V7.2z
	 M65.4,14.5h7v7h-7V14.5z M72.6,0h7v7h-7V0z M72.6,7.2h7v7h-7V7.2z M79.9,0h7v7h-7V0z M79.9,7.2h7v7h-7V7.2z M79.9,14.5h7v7h-7V14.5
	z M87.1,0h7v7h-7V0z M87.1,7.2h7v7h-7V7.2z M87.1,14.5h7v7h-7V14.5z M94.4,0h7v7h-7V0z M94.4,7.2h7v7h-7V7.2z M94.4,14.5h7v7h-7
	V14.5z M101.7,0h7v7h-7V0z M101.7,7.2h7v7h-7V7.2z M101.7,14.5h7v7h-7V14.5z M108.9,0h7v7h-7V0z M108.9,7.2h7v7h-7V7.2z M108.9,14.5
	h7v7h-7V14.5z M116.2,0h7v7h-7V0z M116.2,7.2h7v7h-7V7.2z M116.2,14.5h7v7h-7V14.5z M123.4,0h7v7h-7C123.4,7,123.4,0,123.4,0z
	 M123.4,7.2h7v7h-7C123.4,14.2,123.4,7.2,123.4,7.2z M123.4,14.5h7v7h-7C123.4,21.5,123.4,14.5,123.4,14.5z M58.1,21.8h7v7h-7V21.8z
	 M58.1,29h7v7h-7V29z M58.1,43.6h7v7h-7V43.6z M65.4,21.8h7v7h-7V21.8z M65.4,29h7v7h-7V29z M65.4,36.3h7v7h-7V36.3z M72.6,21.8h7v7
	h-7V21.8z M72.6,36.3h7v7h-7V36.3z M72.6,43.6h7v7h-7V43.6z M79.9,21.8h7v7h-7V21.8z M79.9,29h7v7h-7V29z M79.9,36.3h7v7h-7V36.3z
	 M79.9,43.6h7v7h-7V43.6z M87.1,21.8h7v7h-7V21.8z M87.1,29h7v7h-7V29z M87.1,43.6h7v7h-7V43.6z M94.4,21.8h7v7h-7V21.8z M94.4,36.3
	h7v7h-7V36.3z M94.4,43.6h7v7h-7V43.6z M101.7,21.8h7v7h-7V21.8z M101.7,29h7v7h-7V29z M101.7,43.6h7v7h-7V43.6z M108.9,29h7v7h-7
	V29z M108.9,36.3h7v7h-7V36.3z M108.9,43.6h7v7h-7V43.6z M116.2,21.8h7v7h-7V21.8z M116.2,29h7v7h-7V29z M116.2,36.3h7v7h-7V36.3z
	 M116.2,43.6h7v7h-7V43.6z M123.4,21.8h7v7h-7C123.4,28.8,123.4,21.8,123.4,21.8z M123.4,36.3h7v7h-7
	C123.4,43.3,123.4,36.3,123.4,36.3z M123.4,43.6h7v7h-7C123.4,50.6,123.4,43.6,123.4,43.6z M130.7,0h7v7h-7V0z M130.7,7.2h7v7h-7
	V7.2z M130.7,14.5h7v7h-7V14.5z M138,0h7v7h-7V0z M138,7.2h7v7h-7V7.2z M138,14.5h7v7h-7V14.5z M145.2,0h7v7h-7V0z M145.2,7.2h7v7
	h-7V7.2z M145.2,14.5h7v7h-7V14.5z M152.5,0h7v7h-7V0z M152.5,7.2h7v7h-7V7.2z M152.5,14.5h7v7h-7V14.5z M159.7,0h7v7h-7V0z
	 M159.7,7.2h7v7h-7V7.2z M159.7,14.5h7v7h-7V14.5z M167,0h7v7h-7V0z M167,7.2h7v7h-7V7.2z M174.3,0h7v7h-7V0z M174.3,7.2h7v7h-7V7.2
	z M174.3,14.5h7v7h-7V14.5z M181.5,0h7v7h-7V0z M181.5,7.2h7v7h-7V7.2z M181.5,14.5h7v7h-7V14.5z M188.8,0h7v7h-7V0z M188.8,7.2h7v7
	h-7V7.2z M188.8,14.5h7v7h-7V14.5z M196,0h7v7h-7V0z M196,7.2h7v7h-7V7.2z M196,14.5h7v7h-7V14.5z M130.7,21.8h7v7h-7V21.8z
	 M130.7,29h7v7h-7V29z M130.7,43.6h7v7h-7V43.6z M138,21.8h7v7h-7V21.8z M138,29h7v7h-7V29z M138,36.3h7v7h-7V36.3z M145.2,21.8h7v7
	h-7V21.8z M145.2,29h7v7h-7V29z M145.2,36.3h7v7h-7V36.3z M145.2,43.6h7v7h-7V43.6z M152.5,21.8h7v7h-7V21.8z M152.5,36.3h7v7h-7
	V36.3z M159.7,21.8h7v7h-7V21.8z M159.7,29h7v7h-7V29z M159.7,43.6h7v7h-7V43.6z M167,21.8h7v7h-7V21.8z M167,29h7v7h-7V29z
	 M167,36.3h7v7h-7V36.3z M174.3,21.8h7v7h-7V21.8z M174.3,29h7v7h-7V29z M174.3,36.3h7v7h-7V36.3z M174.3,43.6h7v7h-7V43.6z
	 M181.5,21.8h7v7h-7V21.8z M181.5,29h7v7h-7V29z M181.5,36.3h7v7h-7V36.3z M188.8,21.8h7v7h-7V21.8z M188.8,29h7v7h-7V29z
	 M188.8,43.6h7v7h-7V43.6z M196,21.8h7v7h-7V21.8z M196,29h7v7h-7V29z M196,36.3h7v7h-7V36.3z M196,43.6h7v7h-7V43.6z M203.3,0h7v7
	h-7V0z M203.3,7.2h7v7h-7V7.2z M210.6,0h7v7h-7V0z M210.6,7.2h7v7h-7V7.2z M210.6,14.5h7v7h-7V14.5z M217.8,0h7v7h-7V0z M217.8,7.2
	h7v7h-7V7.2z M217.8,14.5h7v7h-7V14.5z M225.1,0h7v7h-7V0z M225.1,7.2h7v7h-7V7.2z M225.1,14.5h7v7h-7V14.5z M232.3,0h7v7h-7V0z
	 M232.3,7.2h7v7h-7V7.2z M232.3,14.5h7v7h-7V14.5z M239.6,0h7v7h-7V0z M239.6,7.2h7v7h-7V7.2z M239.6,14.5h7v7h-7V14.5z M246.9,0h7
	v7h-7V0z M246.9,7.2h7v7h-7V7.2z M246.9,14.5h7v7h-7V14.5z M254.1,0h7v7h-7V0z M254.1,7.2h7v7h-7V7.2z M254.1,14.5h7v7h-7V14.5z
	 M261.4,0h7v7h-7V0z M261.4,7.2h7v7h-7V7.2z M261.4,14.5h7v7h-7V14.5z M268.6,0h7v7h-7V0z M268.6,7.2h7v7h-7V7.2z M268.6,14.5h7v7
	h-7V14.5z M203.3,21.8h7v7h-7V21.8z M203.3,36.3h7v7h-7V36.3z M203.3,43.6h7v7h-7V43.6z M210.6,21.8h7v7h-7V21.8z M210.6,29h7v7h-7
	V29z M210.6,36.3h7v7h-7V36.3z M217.8,21.8h7v7h-7V21.8z M217.8,36.3h7v7h-7V36.3z M217.8,43.6h7v7h-7V43.6z M225.1,21.8h7v7h-7
	V21.8z M225.1,29h7v7h-7V29z M225.1,43.6h7v7h-7V43.6z M232.3,21.8h7v7h-7V21.8z M232.3,29h7v7h-7V29z M232.3,36.3h7v7h-7V36.3z
	 M239.6,21.8h7v7h-7V21.8z M239.6,29h7v7h-7V29z M239.6,43.6h7v7h-7V43.6z M246.9,21.8h7v7h-7V21.8z M246.9,36.3h7v7h-7V36.3z
	 M246.9,43.6h7v7h-7V43.6z M254.1,21.8h7v7h-7V21.8z M254.1,29h7v7h-7V29z M254.1,36.3h7v7h-7V36.3z M261.4,29h7v7h-7V29z
	 M261.4,43.6h7v7h-7V43.6z M268.6,21.8h7v7h-7V21.8z M268.6,29h7v7h-7V29z M268.6,36.3h7v7h-7V36.3z M268.6,43.6h7v7h-7V43.6z
	 M275.9,0h7v7h-7V0z M275.9,7.2h7v7h-7V7.2z M283.2,0h7v7h-7V0z M283.2,7.2h7v7h-7V7.2z M283.2,14.5h7v7h-7V14.5z M290.4,0h7v7h-7V0
	z M290.4,7.2h7v7h-7V7.2z M290.4,14.5h7v7h-7V14.5z M297.7,0h7v7h-7V0z M297.7,7.2h7v7h-7V7.2z M297.7,14.5h7v7h-7V14.5z M304.9,0h7
	v7h-7V0z M304.9,7.2h7v7h-7V7.2z M304.9,14.5h7v7h-7V14.5z M312.2,0h7v7h-7V0z M312.2,7.2h7v7h-7V7.2z M319.5,0h7v7h-7V0z
	 M319.5,7.2h7v7h-7V7.2z M319.5,14.5h7v7h-7V14.5z M326.7,0h7v7h-7V0z M326.7,7.2h7v7h-7V7.2z M326.7,14.5h7v7h-7V14.5z M334,0h7v7
	h-7V0z M334,7.2h7v7h-7V7.2z M334,14.5h7v7h-7V14.5z M341.2,0h7v7h-7V0z M341.2,7.2h7v7h-7V7.2z M341.2,14.5h7v7h-7V14.5z
	 M275.9,21.8h7v7h-7V21.8z M275.9,36.3h7v7h-7V36.3z M275.9,43.6h7v7h-7V43.6z M283.2,21.8h7v7h-7V21.8z M283.2,29h7v7h-7V29z
	 M283.2,36.3h7v7h-7V36.3z M283.2,43.6h7v7h-7V43.6z M290.4,21.8h7v7h-7V21.8z M290.4,29h7v7h-7V29z M290.4,43.6h7v7h-7V43.6z
	 M297.7,21.8h7v7h-7V21.8z M297.7,36.3h7v7h-7V36.3z M304.9,21.8h7v7h-7V21.8z M304.9,29h7v7h-7V29z M304.9,36.3h7v7h-7V36.3z
	 M304.9,43.6h7v7h-7V43.6z M312.2,21.8h7v7h-7V21.8z M312.2,36.3h7v7h-7V36.3z M312.2,43.6h7v7h-7V43.6z M319.5,21.8h7v7h-7V21.8z
	 M319.5,29h7v7h-7V29z M319.5,36.3h7v7h-7V36.3z M319.5,43.6h7v7h-7V43.6z M326.7,21.8h7v7h-7V21.8z M326.7,29h7v7h-7V29z
	 M326.7,43.6h7v7h-7V43.6z M334,21.8h7v7h-7V21.8z M334,29h7v7h-7V29z M334,36.3h7v7h-7V36.3z M341.2,21.8h7v7h-7V21.8z M341.2,36.3
	h7v7h-7V36.3z M341.2,43.6h7v7h-7V43.6z M348.5,0h7v7h-7V0z M348.5,7.2h7v7h-7V7.2z M348.5,14.5h7v7h-7V14.5z M355.8,0h7v7h-7V0z
	 M355.8,7.2h7v7h-7V7.2z M355.8,14.5h7v7h-7V14.5z M363,0h7v7h-7V0z M363,7.2h7v7h-7V7.2z M363,14.5h7v7h-7V14.5z M370.3,0h7v7h-7V0
	z M370.3,7.2h7v7h-7V7.2z M370.3,14.5h7v7h-7V14.5z M377.5,0h7v7h-7V0z M377.5,7.2h7v7h-7V7.2z M377.5,14.5h7v7h-7V14.5z M384.8,0h7
	v7h-7V0z M384.8,7.2h7v7h-7V7.2z M384.8,14.5h7v7h-7V14.5z M392.1,0h7v7h-7V0z M392.1,7.2h7v7h-7V7.2z M392.1,14.5h7v7h-7V14.5z
	 M399.3,0h7v7h-7V0z M399.3,7.2h7v7h-7V7.2z M399.3,14.5h7v7h-7V14.5z M406.6,0h7v7h-7V0z M406.6,7.2h7v7h-7V7.2z M413.8,0h7v7h-7V0
	z M413.8,7.2h7v7h-7V7.2z M413.8,14.5h7v7h-7V14.5z M348.5,21.8h7v7h-7V21.8z M348.5,29h7v7h-7V29z M348.5,36.3h7v7h-7V36.3z
	 M355.8,21.8h7v7h-7V21.8z M355.8,29h7v7h-7V29z M355.8,43.6h7v7h-7V43.6z M363,21.8h7v7h-7V21.8z M363,36.3h7v7h-7V36.3z M363,43.6
	h7v7h-7V43.6z M370.3,21.8h7v7h-7V21.8z M370.3,29h7v7h-7V29z M370.3,36.3h7v7h-7V36.3z M370.3,43.6h7v7h-7V43.6z M377.5,21.8h7v7
	h-7V21.8z M377.5,29h7v7h-7V29z M377.5,36.3h7v7h-7V36.3z M384.8,21.8h7v7h-7V21.8z M384.8,36.3h7v7h-7V36.3z M384.8,43.6h7v7h-7
	V43.6z M392.1,21.8h7v7h-7V21.8z M392.1,29h7v7h-7V29z M392.1,43.6h7v7h-7V43.6z M399.3,21.8h7v7h-7V21.8z M399.3,29h7v7h-7V29z
	 M399.3,36.3h7v7h-7V36.3z M406.6,21.8h7v7h-7V21.8z M406.6,29h7v7h-7V29z M406.6,43.6h7v7h-7V43.6z M413.8,21.8h7v7h-7V21.8z
	 M413.8,29h7v7h-7V29z M413.8,36.3h7v7h-7V36.3z M421.1,0h7v7h-7V0z M421.1,7.2h7v7h-7V7.2z M428.4,0h7v7h-7V0z M428.4,7.2h7v7h-7
	V7.2z M428.4,14.5h7v7h-7V14.5z M435.6,0h7v7h-7V0z M435.6,7.2h7v7h-7V7.2z M435.6,14.5h7v7h-7V14.5z M442.9,0h7v7h-7V0z M442.9,7.2
	h7v7h-7V7.2z M442.9,14.5h7v7h-7V14.5z M450.1,0h7v7h-7V0z M450.1,7.2h7v7h-7V7.2z M450.1,14.5h7v7h-7V14.5z M457.4,0h7v7h-7V0z
	 M457.4,7.2h7v7h-7V7.2z M457.4,14.5h7v7h-7V14.5z M464.7,0h7v7h-7V0z M464.7,7.2h7v7h-7V7.2z M464.7,14.5h7v7h-7V14.5z M471.9,0h7
	v7h-7V0z M471.9,7.2h7v7h-7V7.2z M471.9,14.5h7v7h-7V14.5z M479.2,0h7v7h-7V0z M479.2,7.2h7v7h-7V7.2z M479.2,14.5h7v7h-7V14.5z
	 M486.4,0h7v7h-7V0z M486.4,7.2h7v7h-7V7.2z M421.1,21.8h7v7h-7V21.8z M421.1,29h7v7h-7V29z M421.1,36.3h7v7h-7V36.3z M421.1,43.6h7
	v7h-7V43.6z M428.4,21.8h7v7h-7V21.8z M428.4,36.3h7v7h-7V36.3z M435.6,21.8h7v7h-7V21.8z M435.6,29h7v7h-7V29z M435.6,43.6h7v7h-7
	V43.6z M442.9,21.8h7v7h-7V21.8z M442.9,29h7v7h-7V29z M442.9,36.3h7v7h-7V36.3z M450.1,21.8h7v7h-7V21.8z M450.1,36.3h7v7h-7V36.3z
	 M450.1,43.6h7v7h-7V43.6z M457.4,21.8h7v7h-7V21.8z M457.4,29h7v7h-7V29z M457.4,43.6h7v7h-7V43.6z M464.7,21.8h7v7h-7V21.8z
	 M464.7,29h7v7h-7V29z M464.7,36.3h7v7h-7V36.3z M471.9,21.8h7v7h-7V21.8z M471.9,29h7v7h-7V29z M471.9,43.6h7v7h-7V43.6z
	 M479.2,21.8h7v7h-7V21.8z M479.2,36.3h7v7h-7V36.3z M479.2,43.6h7v7h-7V43.6z M486.4,21.8h7v7h-7V21.8z M486.4,29h7v7h-7V29z
	 M486.4,36.3h7v7h-7V36.3z M493.7,0h7v7h-7V0z M493.7,7.2h7v7h-7V7.2z M493.7,14.5h7v7h-7V14.5z M501,0h7v7h-7V0z M501,7.2h7v7h-7
	V7.2z M501,14.5h7v7h-7V14.5z M508.2,7.2h7v7h-7V7.2z M508.2,14.5h7v7h-7V14.5z M493.7,21.8h7v7h-7V21.8z M493.7,29h7v7h-7V29z
	 M493.7,43.6h7v7h-7V43.6z M501,29h7v7h-7V29z M501,36.3h7v7h-7V36.3z M508.2,21.8h7v7h-7V21.8z"/>
</svg>
