<?xml version="1.0" encoding="utf-8"?>
<!-- Generator: Adobe Illustrator 27.3.1, SVG Export Plug-In . SVG Version: 6.00 Build 0)  -->
<svg version="1.1" id="Слой_1" xmlns="http://www.w3.org/2000/svg" xmlns:xlink="http://www.w3.org/1999/xlink" x="0px" y="0px"
	 viewBox="0 0 1277.5 86.8" style="enable-background:new 0 0 1277.5 86.8;" xml:space="preserve">
<style type="text/css">
	.st0{fill:#1E0E01;}
</style>
<path class="st0" d="M0,0h7v7H0V0z M0,7.2h7v7H0V7.2z M0,14.5h7v7H0V14.5z M7.3,0h7v7h-7V0z M7.3,7.2h7v7h-7V7.2z M7.3,14.5h7v7h-7
	V14.5z M14.5,0h7v7h-7V0z M14.5,7.2h7v7h-7V7.2z M14.5,14.5h7v7h-7V14.5z M21.8,0h7v7h-7V0z M21.8,7.2h7v7h-7V7.2z M21.8,14.5h7v7
	h-7V14.5z M29.1,0h7v7h-7V0z M29.1,7.2h7v7h-7V7.2z M29.1,14.5h7v7h-7V14.5z M36.3,0h7v7h-7V0z M36.3,7.2h7v7h-7V7.2z M36.3,14.5h7
	v7h-7V14.5z M43.6,0h7v7h-7V0z M43.6,7.2h7v7h-7V7.2z M43.6,14.5h7v7h-7V14.5z M50.8,0h7v7h-7V0z M50.8,7.2h7v7h-7V7.2z M50.8,14.5
	h7v7h-7V14.5z M0,21.8h7v7H0V21.8z M0,29h7v7H0V29z M0,36.3h7v7H0V36.3z M0,43.6h7v7H0V43.6z M0,58.1h7v7H0V58.1z M0,65.3h7v7H0
	V65.3z M0,72.6h7v7H0V72.6z M7.3,21.8h7v7h-7V21.8z M7.3,36.3h7v7h-7V36.3z M7.3,50.8h7v7h-7V50.8z M14.5,21.8h7v7h-7V21.8z
	 M14.5,29h7v7h-7V29z M14.5,43.6h7v7h-7V43.6z M14.5,50.8h7v7h-7V50.8z M21.8,21.8h7v7h-7V21.8z M21.8,29h7v7h-7V29z M21.8,36.3h7v7
	h-7V36.3z M21.8,43.6h7v7h-7V43.6z M21.8,50.8h7v7h-7V50.8z M21.8,65.3h7v7h-7V65.3z M21.8,72.6h7v7h-7V72.6z M29.1,21.8h7v7h-7
	V21.8z M29.1,36.3h7v7h-7V36.3z M29.1,50.8h7v7h-7V50.8z M29.1,58.1h7v7h-7V58.1z M36.3,21.8h7v7h-7V21.8z M36.3,29h7v7h-7V29z
	 M36.3,36.3h7v7h-7V36.3z M36.3,43.6h7v7h-7V43.6z M36.3,50.8h7v7h-7V50.8z M43.6,21.8h7v7h-7V21.8z M43.6,29h7v7h-7V29z M43.6,43.6
	h7v7h-7V43.6z M43.6,72.6h7v7h-7V72.6z M50.8,21.8h7v7h-7V21.8z M50.8,36.3h7v7h-7V36.3z M50.8,43.6h7v7h-7V43.6z M50.8,50.8h7v7h-7
	V50.8z M50.8,58.1h7v7h-7V58.1z M50.8,65.3h7v7h-7V65.3z M58.1,0h7v7h-7V0z M58.1,7.2h7v7h-7V7.2z M58.1,14.5h7v7h-7V14.5z M65.4,0
	h7v7h-7V0z M65.4,7.2h7v7h-7V7.2z M65.4,14.5h7v7h-7V14.5z M72.6,0h7v7h-7V0z M72.6,7.2h7v7h-7V7.2z M72.6,14.5h7v7h-7V14.5z
	 M79.9,0h7v7h-7V0z M79.9,7.2h7v7h-7V7.2z M79.9,14.5h7v7h-7V14.5z M87.1,0h7v7h-7V0z M87.1,7.2h7v7h-7V7.2z M87.1,14.5h7v7h-7V14.5
	z M94.4,0h7v7h-7V0z M94.4,7.2h7v7h-7V7.2z M94.4,14.5h7v7h-7V14.5z M101.7,0h7v7h-7V0z M101.7,7.2h7v7h-7V7.2z M101.7,14.5h7v7h-7
	V14.5z M108.9,0h7v7h-7V0z M108.9,7.2h7v7h-7V7.2z M108.9,14.5h7v7h-7V14.5z M116.2,0h7v7h-7V0z M116.2,7.2h7v7h-7V7.2z M116.2,14.5
	h7v7h-7V14.5z M123.4,0h7v7h-7V0z M123.4,7.2h7v7h-7V7.2z M123.4,14.5h7v7h-7V14.5z M58.1,21.8h7v7h-7V21.8z M58.1,29h7v7h-7V29z
	 M58.1,36.3h7v7h-7V36.3z M58.1,50.8h7v7h-7V50.8z M65.4,21.8h7v7h-7V21.8z M65.4,36.3h7v7h-7V36.3z M65.4,43.6h7v7h-7V43.6z
	 M65.4,65.3h7v7h-7V65.3z M72.6,21.8h7v7h-7V21.8z M72.6,29h7v7h-7V29z M72.6,43.6h7v7h-7V43.6z M72.6,50.8h7v7h-7V50.8z M72.6,58.1
	h7v7h-7V58.1z M72.6,72.6h7v7h-7V72.6z M79.9,21.8h7v7h-7V21.8z M79.9,29h7v7h-7V29z M79.9,43.6h7v7h-7V43.6z M79.9,50.8h7v7h-7
	V50.8z M87.1,21.8h7v7h-7V21.8z M87.1,29h7v7h-7V29z M87.1,36.3h7v7h-7V36.3z M87.1,43.6h7v7h-7V43.6z M87.1,72.6h7v7h-7V72.6z
	 M94.4,21.8h7v7h-7V21.8z M94.4,36.3h7v7h-7V36.3z M94.4,50.8h7v7h-7V50.8z M94.4,58.1h7v7h-7V58.1z M94.4,65.3h7v7h-7V65.3z
	 M101.7,21.8h7v7h-7V21.8z M101.7,36.3h7v7h-7V36.3z M101.7,43.6h7v7h-7V43.6z M101.7,50.8h7v7h-7V50.8z M101.7,72.6h7v7h-7V72.6z
	 M108.9,21.8h7v7h-7V21.8z M108.9,29h7v7h-7V29z M108.9,43.6h7v7h-7V43.6z M108.9,58.1h7v7h-7V58.1z M108.9,65.3h7v7h-7V65.3z
	 M108.9,72.6h7v7h-7V72.6z M116.2,21.8h7v7h-7V21.8z M116.2,29h7v7h-7V29z M116.2,36.3h7v7h-7V36.3z M116.2,43.6h7v7h-7V43.6z
	 M116.2,50.8h7v7h-7V50.8z M123.4,21.8h7v7h-7V21.8z M123.4,36.3h7v7h-7V36.3z M123.4,43.6h7v7h-7V43.6z M123.4,72.6h7v7h-7V72.6z
	 M130.7,0h7v7h-7V0z M130.7,7.2h7v7h-7V7.2z M130.7,14.5h7v7h-7V14.5z M138,0h7v7h-7V0z M138,7.2h7v7h-7V7.2z M138,14.5h7v7h-7V14.5
	z M145.2,0h7v7h-7V0z M145.2,7.2h7v7h-7V7.2z M145.2,14.5h7v7h-7V14.5z M152.5,0h7v7h-7V0z M152.5,7.2h7v7h-7V7.2z M152.5,14.5h7v7
	h-7V14.5z M130.7,21.8h7v7h-7V21.8z M130.7,29h7v7h-7V29z M130.7,43.6h7v7h-7V43.6z M130.7,58.1h7v7h-7V58.1z M130.7,65.3h7v7h-7
	V65.3z M138,21.8h7v7h-7V21.8z M138,36.3h7v7h-7V36.3z M138,43.6h7v7h-7V43.6z M138,50.8h7v7h-7V50.8z M145.2,21.8h7v7h-7V21.8z
	 M145.2,36.3h7v7h-7V36.3z M145.2,43.6h7v7h-7V43.6z M145.2,65.3h7v7h-7V65.3z M145.2,72.6h7v7h-7V72.6z M152.5,21.8h7v7h-7V21.8z
	 M152.5,29h7v7h-7V29z M152.5,43.6h7v7h-7V43.6z M152.5,50.8h7v7h-7V50.8z M0,79.8h7v7H0V79.8z M7.3,79.8h7v7h-7V79.8z M14.5,79.8h7
	v7h-7V79.8z M21.8,79.8h7v7h-7V79.8z M29.1,79.8h7v7h-7V79.8z M36.3,79.8h7v7h-7V79.8z M43.6,79.8h7v7h-7V79.8z M50.8,79.8h7v7h-7
	V79.8z M58.1,79.8h7v7h-7V79.8z M65.4,79.8h7v7h-7V79.8z M72.6,79.8h7v7h-7V79.8z M79.9,79.8h7v7h-7V79.8z M87.1,79.8h7v7h-7V79.8z
	 M94.4,79.8h7v7h-7V79.8z M101.7,79.8h7v7h-7V79.8z M108.9,79.8h7v7h-7V79.8z M116.2,79.8h7v7h-7V79.8z M123.4,79.8h7v7h-7V79.8z
	 M130.7,79.8h7v7h-7V79.8z M138,79.8h7v7h-7V79.8z M145.2,79.8h7v7h-7V79.8z M152.5,79.8h7v7h-7V79.8z M159.7,0h7v7h-7V0z
	 M159.7,7.2h7v7h-7V7.2z M159.7,14.5h7v7h-7V14.5z M167,0h7v7h-7V0z M167,7.2h7v7h-7V7.2z M167,14.5h7v7h-7V14.5z M174.2,0h7v7h-7V0
	z M174.2,7.2h7v7h-7V7.2z M174.2,14.5h7v7h-7V14.5z M181.5,0h7v7h-7V0z M181.5,7.2h7v7h-7V7.2z M181.5,14.5h7v7h-7V14.5z M188.8,0h7
	v7h-7V0z M188.8,7.2h7v7h-7V7.2z M188.8,14.5h7v7h-7V14.5z M196,0h7v7h-7V0z M196,7.2h7v7h-7V7.2z M196,14.5h7v7h-7V14.5z M203.3,0
	h7v7h-7V0z M203.3,7.2h7v7h-7V7.2z M203.3,14.5h7v7h-7V14.5z M210.5,0h7v7h-7V0z M210.5,7.2h7v7h-7V7.2z M210.5,14.5h7v7h-7V14.5z
	 M159.7,21.8h7v7h-7V21.8z M159.7,29h7v7h-7V29z M159.7,36.3h7v7h-7V36.3z M159.7,43.6h7v7h-7V43.6z M159.7,58.1h7v7h-7V58.1z
	 M159.7,65.3h7v7h-7V65.3z M159.7,72.6h7v7h-7V72.6z M167,21.8h7v7h-7V21.8z M167,36.3h7v7h-7V36.3z M167,50.8h7v7h-7V50.8z
	 M174.2,21.8h7v7h-7V21.8z M174.2,29h7v7h-7V29z M174.2,43.6h7v7h-7V43.6z M174.2,50.8h7v7h-7V50.8z M181.5,21.8h7v7h-7V21.8z
	 M181.5,29h7v7h-7V29z M181.5,36.3h7v7h-7V36.3z M181.5,43.6h7v7h-7V43.6z M181.5,50.8h7v7h-7V50.8z M181.5,65.3h7v7h-7V65.3z
	 M181.5,72.6h7v7h-7V72.6z M188.8,21.8h7v7h-7V21.8z M188.8,36.3h7v7h-7V36.3z M188.8,50.8h7v7h-7V50.8z M188.8,58.1h7v7h-7V58.1z
	 M196,21.8h7v7h-7V21.8z M196,29h7v7h-7V29z M196,36.3h7v7h-7V36.3z M196,43.6h7v7h-7V43.6z M196,50.8h7v7h-7V50.8z M203.3,21.8h7v7
	h-7V21.8z M203.3,29h7v7h-7V29z M203.3,43.6h7v7h-7V43.6z M203.3,72.6h7v7h-7V72.6z M210.5,21.8h7v7h-7V21.8z M210.5,36.3h7v7h-7
	V36.3z M210.5,43.6h7v7h-7V43.6z M210.5,50.8h7v7h-7V50.8z M210.5,58.1h7v7h-7V58.1z M210.5,65.3h7v7h-7V65.3z M217.8,0h7v7h-7V0z
	 M217.8,7.2h7v7h-7V7.2z M217.8,14.5h7v7h-7V14.5z M225.1,0h7v7h-7V0z M225.1,7.2h7v7h-7V7.2z M225.1,14.5h7v7h-7V14.5z M232.3,0h7
	v7h-7V0z M232.3,7.2h7v7h-7V7.2z M232.3,14.5h7v7h-7V14.5z M239.6,0h7v7h-7V0z M239.6,7.2h7v7h-7V7.2z M239.6,14.5h7v7h-7V14.5z
	 M246.8,0h7v7h-7V0z M246.8,7.2h7v7h-7V7.2z M246.8,14.5h7v7h-7V14.5z M254.1,0h7v7h-7V0z M254.1,7.2h7v7h-7V7.2z M254.1,14.5h7v7
	h-7V14.5z M261.4,0h7v7h-7V0z M261.4,7.2h7v7h-7V7.2z M261.4,14.5h7v7h-7V14.5z M268.6,0h7v7h-7V0z M268.6,7.2h7v7h-7V7.2z
	 M268.6,14.5h7v7h-7V14.5z M275.9,0h7v7h-7V0z M275.9,7.2h7v7h-7V7.2z M275.9,14.5h7v7h-7V14.5z M283.1,0h7v7h-7V0z M283.1,7.2h7v7
	h-7V7.2z M283.1,14.5h7v7h-7V14.5z M217.8,21.8h7v7h-7V21.8z M217.8,29h7v7h-7V29z M217.8,36.3h7v7h-7V36.3z M217.8,50.8h7v7h-7
	V50.8z M225.1,21.8h7v7h-7V21.8z M225.1,36.3h7v7h-7V36.3z M225.1,43.6h7v7h-7V43.6z M225.1,65.3h7v7h-7V65.3z M232.3,21.8h7v7h-7
	V21.8z M232.3,29h7v7h-7V29z M232.3,43.6h7v7h-7V43.6z M232.3,50.8h7v7h-7V50.8z M232.3,58.1h7v7h-7V58.1z M232.3,72.6h7v7h-7V72.6z
	 M239.6,21.8h7v7h-7V21.8z M239.6,29h7v7h-7V29z M239.6,43.6h7v7h-7V43.6z M239.6,50.8h7v7h-7V50.8z M246.8,21.8h7v7h-7V21.8z
	 M246.8,29h7v7h-7V29z M246.8,36.3h7v7h-7V36.3z M246.8,43.6h7v7h-7V43.6z M246.8,72.6h7v7h-7V72.6z M254.1,21.8h7v7h-7V21.8z
	 M254.1,36.3h7v7h-7V36.3z M254.1,50.8h7v7h-7V50.8z M254.1,58.1h7v7h-7V58.1z M254.1,65.3h7v7h-7V65.3z M261.4,21.8h7v7h-7V21.8z
	 M261.4,36.3h7v7h-7V36.3z M261.4,43.6h7v7h-7V43.6z M261.4,50.8h7v7h-7V50.8z M261.4,72.6h7v7h-7V72.6z M268.6,21.8h7v7h-7V21.8z
	 M268.6,29h7v7h-7V29z M268.6,43.6h7v7h-7V43.6z M268.6,58.1h7v7h-7V58.1z M268.6,65.3h7v7h-7V65.3z M268.6,72.6h7v7h-7V72.6z
	 M275.9,21.8h7v7h-7V21.8z M275.9,29h7v7h-7V29z M275.9,36.3h7v7h-7V36.3z M275.9,43.6h7v7h-7V43.6z M275.9,50.8h7v7h-7V50.8z
	 M283.1,21.8h7v7h-7V21.8z M283.1,36.3h7v7h-7V36.3z M283.1,43.6h7v7h-7V43.6z M283.1,72.6h7v7h-7V72.6z M290.4,0h7v7h-7V0z
	 M290.4,7.2h7v7h-7V7.2z M290.4,14.5h7v7h-7V14.5z M297.7,0h7v7h-7V0z M297.7,7.2h7v7h-7V7.2z M297.7,14.5h7v7h-7V14.5z M304.9,0h7
	v7h-7V0z M304.9,7.2h7v7h-7V7.2z M304.9,14.5h7v7h-7V14.5z M312.2,0h7v7h-7V0z M312.2,7.2h7v7h-7V7.2z M312.2,14.5h7v7h-7V14.5z
	 M290.4,21.8h7v7h-7V21.8z M290.4,29h7v7h-7V29z M290.4,43.6h7v7h-7V43.6z M290.4,58.1h7v7h-7V58.1z M290.4,65.3h7v7h-7V65.3z
	 M297.7,21.8h7v7h-7V21.8z M297.7,36.3h7v7h-7V36.3z M297.7,43.6h7v7h-7V43.6z M297.7,50.8h7v7h-7V50.8z M304.9,21.8h7v7h-7V21.8z
	 M304.9,36.3h7v7h-7V36.3z M304.9,43.6h7v7h-7V43.6z M304.9,65.3h7v7h-7V65.3z M304.9,72.6h7v7h-7V72.6z M312.2,21.8h7v7h-7V21.8z
	 M312.2,29h7v7h-7V29z M312.2,43.6h7v7h-7V43.6z M312.2,50.8h7v7h-7V50.8z M159.7,79.8h7v7h-7V79.8z M167,79.8h7v7h-7V79.8z
	 M174.2,79.8h7v7h-7V79.8z M181.5,79.8h7v7h-7V79.8z M188.8,79.8h7v7h-7V79.8z M196,79.8h7v7h-7V79.8z M203.3,79.8h7v7h-7V79.8z
	 M210.5,79.8h7v7h-7V79.8z M217.8,79.8h7v7h-7V79.8z M225.1,79.8h7v7h-7V79.8z M232.3,79.8h7v7h-7V79.8z M239.6,79.8h7v7h-7V79.8z
	 M246.8,79.8h7v7h-7V79.8z M254.1,79.8h7v7h-7V79.8z M261.4,79.8h7v7h-7V79.8z M268.6,79.8h7v7h-7V79.8z M275.9,79.8h7v7h-7V79.8z
	 M283.1,79.8h7v7h-7V79.8z M290.4,79.8h7v7h-7V79.8z M297.7,79.8h7v7h-7V79.8z M304.9,79.8h7v7h-7V79.8z M312.2,79.8h7v7h-7V79.8z
	 M319.4,0h7v7h-7V0z M319.4,7.2h7v7h-7V7.2z M319.4,14.5h7v7h-7V14.5z M326.7,0h7v7h-7V0z M326.7,7.2h7v7h-7V7.2z M326.7,14.5h7v7
	h-7V14.5z M333.9,0h7v7h-7V0z M333.9,7.2h7v7h-7V7.2z M333.9,14.5h7v7h-7V14.5z M341.2,0h7v7h-7V0z M341.2,7.2h7v7h-7V7.2z
	 M341.2,14.5h7v7h-7V14.5z M348.5,0h7v7h-7V0z M348.5,7.2h7v7h-7V7.2z M348.5,14.5h7v7h-7V14.5z M355.7,0h7v7h-7V0z M355.7,7.2h7v7
	h-7V7.2z M355.7,14.5h7v7h-7V14.5z M363,0h7v7h-7V0z M363,7.2h7v7h-7V7.2z M363,14.5h7v7h-7V14.5z M370.2,0h7v7h-7V0z M370.2,7.2h7
	v7h-7V7.2z M370.2,14.5h7v7h-7V14.5z M319.4,21.8h7v7h-7V21.8z M319.4,29h7v7h-7V29z M319.4,36.3h7v7h-7V36.3z M319.4,43.6h7v7h-7
	V43.6z M319.4,58.1h7v7h-7V58.1z M319.4,65.3h7v7h-7V65.3z M319.4,72.6h7v7h-7V72.6z M326.7,21.8h7v7h-7V21.8z M326.7,36.3h7v7h-7
	V36.3z M326.7,50.8h7v7h-7V50.8z M333.9,21.8h7v7h-7V21.8z M333.9,29h7v7h-7V29z M333.9,43.6h7v7h-7V43.6z M333.9,50.8h7v7h-7V50.8z
	 M341.2,21.8h7v7h-7V21.8z M341.2,29h7v7h-7V29z M341.2,36.3h7v7h-7V36.3z M341.2,43.6h7v7h-7V43.6z M341.2,50.8h7v7h-7V50.8z
	 M341.2,65.3h7v7h-7V65.3z M341.2,72.6h7v7h-7V72.6z M348.5,21.8h7v7h-7V21.8z M348.5,36.3h7v7h-7V36.3z M348.5,50.8h7v7h-7V50.8z
	 M348.5,58.1h7v7h-7V58.1z M355.7,21.8h7v7h-7V21.8z M355.7,29h7v7h-7V29z M355.7,36.3h7v7h-7V36.3z M355.7,43.6h7v7h-7V43.6z
	 M355.7,50.8h7v7h-7V50.8z M363,21.8h7v7h-7V21.8z M363,29h7v7h-7V29z M363,43.6h7v7h-7V43.6z M363,72.6h7v7h-7V72.6z M370.2,21.8h7
	v7h-7V21.8z M370.2,36.3h7v7h-7V36.3z M370.2,43.6h7v7h-7V43.6z M370.2,50.8h7v7h-7V50.8z M370.2,58.1h7v7h-7V58.1z M370.2,65.3h7v7
	h-7V65.3z M377.5,0h7v7h-7V0z M377.5,7.2h7v7h-7V7.2z M377.5,14.5h7v7h-7V14.5z M384.8,0h7v7h-7V0z M384.8,7.2h7v7h-7V7.2z
	 M384.8,14.5h7v7h-7V14.5z M392,0h7v7h-7V0z M392,7.2h7v7h-7V7.2z M392,14.5h7v7h-7V14.5z M399.3,0h7v7h-7V0z M399.3,7.2h7v7h-7V7.2
	z M399.3,14.5h7v7h-7V14.5z M406.5,0h7v7h-7V0z M406.5,7.2h7v7h-7V7.2z M406.5,14.5h7v7h-7V14.5z M413.8,0h7v7h-7V0z M413.8,7.2h7v7
	h-7V7.2z M413.8,14.5h7v7h-7V14.5z M421.1,0h7v7h-7V0z M421.1,7.2h7v7h-7V7.2z M421.1,14.5h7v7h-7V14.5z M428.3,0h7v7h-7V0z
	 M428.3,7.2h7v7h-7V7.2z M428.3,14.5h7v7h-7V14.5z M435.6,0h7v7h-7V0z M435.6,7.2h7v7h-7V7.2z M435.6,14.5h7v7h-7V14.5z M442.8,0h7
	v7h-7V0z M442.8,7.2h7v7h-7V7.2z M442.8,14.5h7v7h-7V14.5z M377.5,21.8h7v7h-7V21.8z M377.5,29h7v7h-7V29z M377.5,36.3h7v7h-7V36.3z
	 M377.5,50.8h7v7h-7V50.8z M384.8,21.8h7v7h-7V21.8z M384.8,36.3h7v7h-7V36.3z M384.8,43.6h7v7h-7V43.6z M384.8,65.3h7v7h-7V65.3z
	 M392,21.8h7v7h-7V21.8z M392,29h7v7h-7V29z M392,43.6h7v7h-7V43.6z M392,50.8h7v7h-7V50.8z M392,58.1h7v7h-7V58.1z M392,72.6h7v7
	h-7V72.6z M399.3,21.8h7v7h-7V21.8z M399.3,29h7v7h-7V29z M399.3,43.6h7v7h-7V43.6z M399.3,50.8h7v7h-7V50.8z M406.5,21.8h7v7h-7
	V21.8z M406.5,29h7v7h-7V29z M406.5,36.3h7v7h-7V36.3z M406.5,43.6h7v7h-7V43.6z M406.5,72.6h7v7h-7V72.6z M413.8,21.8h7v7h-7V21.8z
	 M413.8,36.3h7v7h-7V36.3z M413.8,50.8h7v7h-7V50.8z M413.8,58.1h7v7h-7V58.1z M413.8,65.3h7v7h-7V65.3z M421.1,21.8h7v7h-7V21.8z
	 M421.1,36.3h7v7h-7V36.3z M421.1,43.6h7v7h-7V43.6z M421.1,50.8h7v7h-7V50.8z M421.1,72.6h7v7h-7V72.6z M428.3,21.8h7v7h-7V21.8z
	 M428.3,29h7v7h-7V29z M428.3,43.6h7v7h-7V43.6z M428.3,58.1h7v7h-7V58.1z M428.3,65.3h7v7h-7V65.3z M428.3,72.6h7v7h-7V72.6z
	 M435.6,21.8h7v7h-7V21.8z M435.6,29h7v7h-7V29z M435.6,36.3h7v7h-7V36.3z M435.6,43.6h7v7h-7V43.6z M435.6,50.8h7v7h-7V50.8z
	 M442.8,21.8h7v7h-7V21.8z M442.8,36.3h7v7h-7V36.3z M442.8,43.6h7v7h-7V43.6z M442.8,72.6h7v7h-7V72.6z M450.1,0h7v7h-7V0z
	 M450.1,7.2h7v7h-7V7.2z M450.1,14.5h7v7h-7V14.5z M457.4,0h7v7h-7V0z M457.4,7.2h7v7h-7V7.2z M457.4,14.5h7v7h-7V14.5z M464.6,0h7
	v7h-7V0z M464.6,7.2h7v7h-7V7.2z M464.6,14.5h7v7h-7V14.5z M471.9,0h7v7h-7V0z M471.9,7.2h7v7h-7V7.2z M471.9,14.5h7v7h-7V14.5z
	 M450.1,21.8h7v7h-7V21.8z M450.1,29h7v7h-7V29z M450.1,43.6h7v7h-7V43.6z M450.1,58.1h7v7h-7V58.1z M450.1,65.3h7v7h-7V65.3z
	 M457.4,21.8h7v7h-7V21.8z M457.4,36.3h7v7h-7V36.3z M457.4,43.6h7v7h-7V43.6z M457.4,50.8h7v7h-7V50.8z M464.6,21.8h7v7h-7V21.8z
	 M464.6,36.3h7v7h-7V36.3z M464.6,43.6h7v7h-7V43.6z M464.6,65.3h7v7h-7V65.3z M464.6,72.6h7v7h-7V72.6z M471.9,21.8h7v7h-7V21.8z
	 M471.9,29h7v7h-7V29z M471.9,43.6h7v7h-7V43.6z M471.9,50.8h7v7h-7V50.8z M319.4,79.8h7v7h-7V79.8z M326.7,79.8h7v7h-7V79.8z
	 M333.9,79.8h7v7h-7V79.8z M341.2,79.8h7v7h-7V79.8z M348.5,79.8h7v7h-7V79.8z M355.7,79.8h7v7h-7V79.8z M363,79.8h7v7h-7V79.8z
	 M370.2,79.8h7v7h-7V79.8z M377.5,79.8h7v7h-7V79.8z M384.8,79.8h7v7h-7V79.8z M392,79.8h7v7h-7V79.8z M399.3,79.8h7v7h-7V79.8z
	 M406.5,79.8h7v7h-7V79.8z M413.8,79.8h7v7h-7V79.8z M421.1,79.8h7v7h-7V79.8z M428.3,79.8h7v7h-7V79.8z M435.6,79.8h7v7h-7V79.8z
	 M442.8,79.8h7v7h-7V79.8z M450.1,79.8h7v7h-7V79.8z M457.4,79.8h7v7h-7V79.8z M464.6,79.8h7v7h-7V79.8z M471.9,79.8h7v7h-7V79.8z
	 M479.2,0h7v7h-7V0z M479.2,7.2h7v7h-7V7.2z M479.2,14.5h7v7h-7V14.5z M486.5,0h7v7h-7V0z M486.5,7.2h7v7h-7V7.2z M486.5,14.5h7v7
	h-7V14.5z M493.7,0h7v7h-7V0z M493.7,7.2h7v7h-7V7.2z M493.7,14.5h7v7h-7V14.5z M501,0h7v7h-7V0z M501,7.2h7v7h-7V7.2z M501,14.5h7
	v7h-7V14.5z M508.3,0h7v7h-7V0z M508.3,7.2h7v7h-7V7.2z M508.3,14.5h7v7h-7V14.5z M515.5,0h7v7h-7V0z M515.5,7.2h7v7h-7V7.2z
	 M515.5,14.5h7v7h-7V14.5z M522.8,0h7v7h-7V0z M522.8,7.2h7v7h-7V7.2z M522.8,14.5h7v7h-7V14.5z M530,0h7v7h-7V0z M530,7.2h7v7h-7
	V7.2z M530,14.5h7v7h-7V14.5z M479.2,21.8h7v7h-7V21.8z M479.2,29h7v7h-7V29z M479.2,36.3h7v7h-7V36.3z M479.2,43.6h7v7h-7V43.6z
	 M479.2,58.1h7v7h-7V58.1z M479.2,65.3h7v7h-7V65.3z M479.2,72.6h7v7h-7V72.6z M486.5,21.8h7v7h-7V21.8z M486.5,36.3h7v7h-7V36.3z
	 M486.5,50.8h7v7h-7V50.8z M493.7,21.8h7v7h-7V21.8z M493.7,29h7v7h-7V29z M493.7,43.6h7v7h-7V43.6z M493.7,50.8h7v7h-7V50.8z
	 M501,21.8h7v7h-7V21.8z M501,29h7v7h-7V29z M501,36.3h7v7h-7V36.3z M501,43.6h7v7h-7V43.6z M501,50.8h7v7h-7V50.8z M501,65.3h7v7
	h-7V65.3z M501,72.6h7v7h-7V72.6z M508.3,21.8h7v7h-7V21.8z M508.3,36.3h7v7h-7V36.3z M508.3,50.8h7v7h-7V50.8z M508.3,58.1h7v7h-7
	V58.1z M515.5,21.8h7v7h-7V21.8z M515.5,29h7v7h-7V29z M515.5,36.3h7v7h-7V36.3z M515.5,43.6h7v7h-7V43.6z M515.5,50.8h7v7h-7V50.8z
	 M522.8,21.8h7v7h-7V21.8z M522.8,29h7v7h-7V29z M522.8,43.6h7v7h-7V43.6z M522.8,72.6h7v7h-7V72.6z M530,21.8h7v7h-7V21.8z
	 M530,36.3h7v7h-7V36.3z M530,43.6h7v7h-7V43.6z M530,50.8h7v7h-7V50.8z M530,58.1h7v7h-7V58.1z M530,65.3h7v7h-7V65.3z M537.3,0h7
	v7h-7V0z M537.3,7.2h7v7h-7V7.2z M537.3,14.5h7v7h-7V14.5z M544.6,0h7v7h-7V0z M544.6,7.2h7v7h-7V7.2z M544.6,14.5h7v7h-7V14.5z
	 M551.8,0h7v7h-7V0z M551.8,7.2h7v7h-7V7.2z M551.8,14.5h7v7h-7V14.5z M559.1,0h7v7h-7V0z M559.1,7.2h7v7h-7V7.2z M559.1,14.5h7v7
	h-7V14.5z M566.3,0h7v7h-7V0z M566.3,7.2h7v7h-7V7.2z M566.3,14.5h7v7h-7V14.5z M573.6,0h7v7h-7V0z M573.6,7.2h7v7h-7V7.2z
	 M573.6,14.5h7v7h-7V14.5z M580.9,0h7v7h-7V0z M580.9,7.2h7v7h-7V7.2z M580.9,14.5h7v7h-7V14.5z M588.1,0h7v7h-7V0z M588.1,7.2h7v7
	h-7V7.2z M588.1,14.5h7v7h-7V14.5z M595.4,0h7v7h-7V0z M595.4,7.2h7v7h-7V7.2z M595.4,14.5h7v7h-7V14.5z M602.6,0h7v7h-7V0z
	 M602.6,7.2h7v7h-7V7.2z M602.6,14.5h7v7h-7V14.5z M537.3,21.8h7v7h-7V21.8z M537.3,29h7v7h-7V29z M537.3,36.3h7v7h-7V36.3z
	 M537.3,50.8h7v7h-7V50.8z M544.6,21.8h7v7h-7V21.8z M544.6,36.3h7v7h-7V36.3z M544.6,43.6h7v7h-7V43.6z M544.6,65.3h7v7h-7V65.3z
	 M551.8,21.8h7v7h-7V21.8z M551.8,29h7v7h-7V29z M551.8,43.6h7v7h-7V43.6z M551.8,50.8h7v7h-7V50.8z M551.8,58.1h7v7h-7V58.1z
	 M551.8,72.6h7v7h-7V72.6z M559.1,21.8h7v7h-7V21.8z M559.1,29h7v7h-7V29z M559.1,43.6h7v7h-7V43.6z M559.1,50.8h7v7h-7V50.8z
	 M566.3,21.8h7v7h-7V21.8z M566.3,29h7v7h-7V29z M566.3,36.3h7v7h-7V36.3z M566.3,43.6h7v7h-7V43.6z M566.3,72.6h7v7h-7V72.6z
	 M573.6,21.8h7v7h-7V21.8z M573.6,36.3h7v7h-7V36.3z M573.6,50.8h7v7h-7V50.8z M573.6,58.1h7v7h-7V58.1z M573.6,65.3h7v7h-7V65.3z
	 M580.9,21.8h7v7h-7V21.8z M580.9,36.3h7v7h-7V36.3z M580.9,43.6h7v7h-7V43.6z M580.9,50.8h7v7h-7V50.8z M580.9,72.6h7v7h-7V72.6z
	 M588.1,21.8h7v7h-7V21.8z M588.1,29h7v7h-7V29z M588.1,43.6h7v7h-7V43.6z M588.1,58.1h7v7h-7V58.1z M588.1,65.3h7v7h-7V65.3z
	 M588.1,72.6h7v7h-7V72.6z M595.4,21.8h7v7h-7V21.8z M595.4,29h7v7h-7V29z M595.4,36.3h7v7h-7V36.3z M595.4,43.6h7v7h-7V43.6z
	 M595.4,50.8h7v7h-7V50.8z M602.6,21.8h7v7h-7V21.8z M602.6,36.3h7v7h-7V36.3z M602.6,43.6h7v7h-7V43.6z M602.6,72.6h7v7h-7V72.6z
	 M609.9,0h7v7h-7V0z M609.9,7.2h7v7h-7V7.2z M609.9,14.5h7v7h-7V14.5z M617.2,0h7v7h-7V0z M617.2,7.2h7v7h-7V7.2z M617.2,14.5h7v7
	h-7V14.5z M624.4,0h7v7h-7V0z M624.4,7.2h7v7h-7V7.2z M624.4,14.5h7v7h-7V14.5z M631.7,0h7v7h-7V0z M631.7,7.2h7v7h-7V7.2z
	 M631.7,14.5h7v7h-7V14.5z M609.9,21.8h7v7h-7V21.8z M609.9,29h7v7h-7V29z M609.9,43.6h7v7h-7V43.6z M609.9,58.1h7v7h-7V58.1z
	 M609.9,65.3h7v7h-7V65.3z M617.2,21.8h7v7h-7V21.8z M617.2,36.3h7v7h-7V36.3z M617.2,43.6h7v7h-7V43.6z M617.2,50.8h7v7h-7V50.8z
	 M624.4,21.8h7v7h-7V21.8z M624.4,36.3h7v7h-7V36.3z M624.4,43.6h7v7h-7V43.6z M624.4,65.3h7v7h-7V65.3z M624.4,72.6h7v7h-7V72.6z
	 M631.7,21.8h7v7h-7V21.8z M631.7,29h7v7h-7V29z M631.7,43.6h7v7h-7V43.6z M631.7,50.8h7v7h-7V50.8z M479.2,79.8h7v7h-7V79.8z
	 M486.5,79.8h7v7h-7V79.8z M493.7,79.8h7v7h-7V79.8z M501,79.8h7v7h-7V79.8z M508.3,79.8h7v7h-7V79.8z M515.5,79.8h7v7h-7V79.8z
	 M522.8,79.8h7v7h-7V79.8z M530,79.8h7v7h-7V79.8z M537.3,79.8h7v7h-7V79.8z M544.6,79.8h7v7h-7V79.8z M551.8,79.8h7v7h-7V79.8z
	 M559.1,79.8h7v7h-7V79.8z M566.3,79.8h7v7h-7V79.8z M573.6,79.8h7v7h-7V79.8z M580.9,79.8h7v7h-7V79.8z M588.1,79.8h7v7h-7V79.8z
	 M595.4,79.8h7v7h-7V79.8z M602.6,79.8h7v7h-7V79.8z M609.9,79.8h7v7h-7V79.8z M617.2,79.8h7v7h-7V79.8z M624.4,79.8h7v7h-7V79.8z
	 M631.7,79.8h7v7h-7V79.8z M638.9,0h7v7h-7V0z M638.9,7.2h7v7h-7V7.2z M638.9,14.5h7v7h-7V14.5z M646.2,0h7v7h-7V0z M646.2,7.2h7v7
	h-7V7.2z M646.2,14.5h7v7h-7V14.5z M653.4,0h7v7h-7V0z M653.4,7.2h7v7h-7V7.2z M653.4,14.5h7v7h-7V14.5z M660.7,0h7v7h-7V0z
	 M660.7,7.2h7v7h-7V7.2z M660.7,14.5h7v7h-7V14.5z M668,0h7v7h-7V0z M668,7.2h7v7h-7V7.2z M668,14.5h7v7h-7V14.5z M675.2,0h7v7h-7V0
	z M675.2,7.2h7v7h-7V7.2z M675.2,14.5h7v7h-7V14.5z M682.5,0h7v7h-7V0z M682.5,7.2h7v7h-7V7.2z M682.5,14.5h7v7h-7V14.5z M689.7,0h7
	v7h-7V0z M689.7,7.2h7v7h-7V7.2z M689.7,14.5h7v7h-7V14.5z M638.9,21.8h7v7h-7V21.8z M638.9,29h7v7h-7V29z M638.9,36.3h7v7h-7V36.3z
	 M638.9,43.6h7v7h-7V43.6z M638.9,58.1h7v7h-7V58.1z M638.9,65.3h7v7h-7V65.3z M638.9,72.6h7v7h-7V72.6z M646.2,21.8h7v7h-7V21.8z
	 M646.2,36.3h7v7h-7V36.3z M646.2,50.8h7v7h-7V50.8z M653.4,21.8h7v7h-7V21.8z M653.4,29h7v7h-7V29z M653.4,43.6h7v7h-7V43.6z
	 M653.4,50.8h7v7h-7V50.8z M660.7,21.8h7v7h-7V21.8z M660.7,29h7v7h-7V29z M660.7,36.3h7v7h-7V36.3z M660.7,43.6h7v7h-7V43.6z
	 M660.7,50.8h7v7h-7V50.8z M660.7,65.3h7v7h-7V65.3z M660.7,72.6h7v7h-7V72.6z M668,21.8h7v7h-7V21.8z M668,36.3h7v7h-7V36.3z
	 M668,50.8h7v7h-7V50.8z M668,58.1h7v7h-7V58.1z M675.2,21.8h7v7h-7V21.8z M675.2,29h7v7h-7V29z M675.2,36.3h7v7h-7V36.3z
	 M675.2,43.6h7v7h-7V43.6z M675.2,50.8h7v7h-7V50.8z M682.5,21.8h7v7h-7V21.8z M682.5,29h7v7h-7V29z M682.5,43.6h7v7h-7V43.6z
	 M682.5,72.6h7v7h-7V72.6z M689.7,21.8h7v7h-7V21.8z M689.7,36.3h7v7h-7V36.3z M689.7,43.6h7v7h-7V43.6z M689.7,50.8h7v7h-7V50.8z
	 M689.7,58.1h7v7h-7V58.1z M689.7,65.3h7v7h-7V65.3z M697,0h7v7h-7V0z M697,7.2h7v7h-7V7.2z M697,14.5h7v7h-7V14.5z M704.3,0h7v7h-7
	V0z M704.3,7.2h7v7h-7V7.2z M704.3,14.5h7v7h-7V14.5z M711.5,0h7v7h-7V0z M711.5,7.2h7v7h-7V7.2z M711.5,14.5h7v7h-7V14.5z M718.8,0
	h7v7h-7V0z M718.8,7.2h7v7h-7V7.2z M718.8,14.5h7v7h-7V14.5z M726,0h7v7h-7V0z M726,7.2h7v7h-7V7.2z M726,14.5h7v7h-7V14.5z
	 M733.3,0h7v7h-7V0z M733.3,7.2h7v7h-7V7.2z M733.3,14.5h7v7h-7V14.5z M740.6,0h7v7h-7V0z M740.6,7.2h7v7h-7V7.2z M740.6,14.5h7v7
	h-7V14.5z M747.8,0h7v7h-7V0z M747.8,7.2h7v7h-7V7.2z M747.8,14.5h7v7h-7V14.5z M755.1,0h7v7h-7V0z M755.1,7.2h7v7h-7V7.2z
	 M755.1,14.5h7v7h-7V14.5z M762.3,0h7v7h-7V0z M762.3,7.2h7v7h-7V7.2z M762.3,14.5h7v7h-7V14.5z M697,21.8h7v7h-7V21.8z M697,29h7v7
	h-7V29z M697,36.3h7v7h-7V36.3z M697,50.8h7v7h-7V50.8z M704.3,21.8h7v7h-7V21.8z M704.3,36.3h7v7h-7V36.3z M704.3,43.6h7v7h-7V43.6
	z M704.3,65.3h7v7h-7V65.3z M711.5,21.8h7v7h-7V21.8z M711.5,29h7v7h-7V29z M711.5,43.6h7v7h-7V43.6z M711.5,50.8h7v7h-7V50.8z
	 M711.5,58.1h7v7h-7V58.1z M711.5,72.6h7v7h-7V72.6z M718.8,21.8h7v7h-7V21.8z M718.8,29h7v7h-7V29z M718.8,43.6h7v7h-7V43.6z
	 M718.8,50.8h7v7h-7V50.8z M726,21.8h7v7h-7V21.8z M726,29h7v7h-7V29z M726,36.3h7v7h-7V36.3z M726,43.6h7v7h-7V43.6z M726,72.6h7v7
	h-7V72.6z M733.3,21.8h7v7h-7V21.8z M733.3,36.3h7v7h-7V36.3z M733.3,50.8h7v7h-7V50.8z M733.3,58.1h7v7h-7V58.1z M733.3,65.3h7v7
	h-7V65.3z M740.6,21.8h7v7h-7V21.8z M740.6,36.3h7v7h-7V36.3z M740.6,43.6h7v7h-7V43.6z M740.6,50.8h7v7h-7V50.8z M740.6,72.6h7v7
	h-7V72.6z M747.8,21.8h7v7h-7V21.8z M747.8,29h7v7h-7V29z M747.8,43.6h7v7h-7V43.6z M747.8,58.1h7v7h-7V58.1z M747.8,65.3h7v7h-7
	V65.3z M747.8,72.6h7v7h-7V72.6z M755.1,21.8h7v7h-7V21.8z M755.1,29h7v7h-7V29z M755.1,36.3h7v7h-7V36.3z M755.1,43.6h7v7h-7V43.6z
	 M755.1,50.8h7v7h-7V50.8z M762.3,21.8h7v7h-7V21.8z M762.3,36.3h7v7h-7V36.3z M762.3,43.6h7v7h-7V43.6z M762.3,72.6h7v7h-7V72.6z
	 M769.6,0h7v7h-7V0z M769.6,7.2h7v7h-7V7.2z M769.6,14.5h7v7h-7V14.5z M776.9,0h7v7h-7V0z M776.9,7.2h7v7h-7V7.2z M776.9,14.5h7v7
	h-7V14.5z M784.1,0h7v7h-7V0z M784.1,7.2h7v7h-7V7.2z M784.1,14.5h7v7h-7V14.5z M791.4,0h7v7h-7V0z M791.4,7.2h7v7h-7V7.2z
	 M791.4,14.5h7v7h-7V14.5z M769.6,21.8h7v7h-7V21.8z M769.6,29h7v7h-7V29z M769.6,43.6h7v7h-7V43.6z M769.6,58.1h7v7h-7V58.1z
	 M769.6,65.3h7v7h-7V65.3z M776.9,21.8h7v7h-7V21.8z M776.9,36.3h7v7h-7V36.3z M776.9,43.6h7v7h-7V43.6z M776.9,50.8h7v7h-7V50.8z
	 M784.1,21.8h7v7h-7V21.8z M784.1,36.3h7v7h-7V36.3z M784.1,43.6h7v7h-7V43.6z M784.1,65.3h7v7h-7V65.3z M784.1,72.6h7v7h-7V72.6z
	 M791.4,21.8h7v7h-7V21.8z M791.4,29h7v7h-7V29z M791.4,43.6h7v7h-7V43.6z M791.4,50.8h7v7h-7V50.8z M638.9,79.8h7v7h-7V79.8z
	 M646.2,79.8h7v7h-7V79.8z M653.4,79.8h7v7h-7V79.8z M660.7,79.8h7v7h-7V79.8z M668,79.8h7v7h-7V79.8z M675.2,79.8h7v7h-7V79.8z
	 M682.5,79.8h7v7h-7V79.8z M689.7,79.8h7v7h-7V79.8z M697,79.8h7v7h-7V79.8z M704.3,79.8h7v7h-7V79.8z M711.5,79.8h7v7h-7V79.8z
	 M718.8,79.8h7v7h-7V79.8z M726,79.8h7v7h-7V79.8z M733.3,79.8h7v7h-7V79.8z M740.6,79.8h7v7h-7V79.8z M747.8,79.8h7v7h-7V79.8z
	 M755.1,79.8h7v7h-7V79.8z M762.3,79.8h7v7h-7V79.8z M769.6,79.8h7v7h-7V79.8z M776.9,79.8h7v7h-7V79.8z M784.1,79.8h7v7h-7V79.8z
	 M791.4,79.8h7v7h-7V79.8z M798.6,0h7v7h-7V0z M798.6,7.2h7v7h-7V7.2z M798.6,14.5h7v7h-7V14.5z M805.9,0h7v7h-7V0z M805.9,7.2h7v7
	h-7V7.2z M805.9,14.5h7v7h-7V14.5z M813.1,0h7v7h-7V0z M813.1,7.2h7v7h-7V7.2z M813.1,14.5h7v7h-7V14.5z M820.4,0h7v7h-7V0z
	 M820.4,7.2h7v7h-7V7.2z M820.4,14.5h7v7h-7V14.5z M827.7,0h7v7h-7V0z M827.7,7.2h7v7h-7V7.2z M827.7,14.5h7v7h-7V14.5z M834.9,0h7
	v7h-7V0z M834.9,7.2h7v7h-7V7.2z M834.9,14.5h7v7h-7V14.5z M842.2,0h7v7h-7V0z M842.2,7.2h7v7h-7V7.2z M842.2,14.5h7v7h-7V14.5z
	 M849.4,0h7v7h-7V0z M849.4,7.2h7v7h-7V7.2z M849.4,14.5h7v7h-7V14.5z M798.6,21.8h7v7h-7V21.8z M798.6,29h7v7h-7V29z M798.6,36.3h7
	v7h-7V36.3z M798.6,43.6h7v7h-7V43.6z M798.6,58.1h7v7h-7V58.1z M798.6,65.3h7v7h-7V65.3z M798.6,72.6h7v7h-7V72.6z M805.9,21.8h7v7
	h-7V21.8z M805.9,36.3h7v7h-7V36.3z M805.9,50.8h7v7h-7V50.8z M813.1,21.8h7v7h-7V21.8z M813.1,29h7v7h-7V29z M813.1,43.6h7v7h-7
	V43.6z M813.1,50.8h7v7h-7V50.8z M820.4,21.8h7v7h-7V21.8z M820.4,29h7v7h-7V29z M820.4,36.3h7v7h-7V36.3z M820.4,43.6h7v7h-7V43.6z
	 M820.4,50.8h7v7h-7V50.8z M820.4,65.3h7v7h-7V65.3z M820.4,72.6h7v7h-7V72.6z M827.7,21.8h7v7h-7V21.8z M827.7,36.3h7v7h-7V36.3z
	 M827.7,50.8h7v7h-7V50.8z M827.7,58.1h7v7h-7V58.1z M834.9,21.8h7v7h-7V21.8z M834.9,29h7v7h-7V29z M834.9,36.3h7v7h-7V36.3z
	 M834.9,43.6h7v7h-7V43.6z M834.9,50.8h7v7h-7V50.8z M842.2,21.8h7v7h-7V21.8z M842.2,29h7v7h-7V29z M842.2,43.6h7v7h-7V43.6z
	 M842.2,72.6h7v7h-7V72.6z M849.4,21.8h7v7h-7V21.8z M849.4,36.3h7v7h-7V36.3z M849.4,43.6h7v7h-7V43.6z M849.4,50.8h7v7h-7V50.8z
	 M849.4,58.1h7v7h-7V58.1z M849.4,65.3h7v7h-7V65.3z M856.7,0h7v7h-7V0z M856.7,7.2h7v7h-7V7.2z M856.7,14.5h7v7h-7V14.5z M864,0h7
	v7h-7V0z M864,7.2h7v7h-7V7.2z M864,14.5h7v7h-7V14.5z M871.2,0h7v7h-7V0z M871.2,7.2h7v7h-7V7.2z M871.2,14.5h7v7h-7V14.5z
	 M878.5,0h7v7h-7V0z M878.5,7.2h7v7h-7V7.2z M878.5,14.5h7v7h-7V14.5z M885.7,0h7v7h-7V0z M885.7,7.2h7v7h-7V7.2z M885.7,14.5h7v7
	h-7V14.5z M893,0h7v7h-7V0z M893,7.2h7v7h-7V7.2z M893,14.5h7v7h-7V14.5z M900.3,0h7v7h-7V0z M900.3,7.2h7v7h-7V7.2z M900.3,14.5h7
	v7h-7V14.5z M907.5,0h7v7h-7V0z M907.5,7.2h7v7h-7V7.2z M907.5,14.5h7v7h-7V14.5z M914.8,0h7v7h-7V0z M914.8,7.2h7v7h-7V7.2z
	 M914.8,14.5h7v7h-7V14.5z M922,0h7v7h-7V0z M922,7.2h7v7h-7V7.2z M922,14.5h7v7h-7V14.5z M856.7,21.8h7v7h-7V21.8z M856.7,29h7v7
	h-7V29z M856.7,36.3h7v7h-7V36.3z M856.7,50.8h7v7h-7V50.8z M864,21.8h7v7h-7V21.8z M864,36.3h7v7h-7V36.3z M864,43.6h7v7h-7V43.6z
	 M864,65.3h7v7h-7V65.3z M871.2,21.8h7v7h-7V21.8z M871.2,29h7v7h-7V29z M871.2,43.6h7v7h-7V43.6z M871.2,50.8h7v7h-7V50.8z
	 M871.2,58.1h7v7h-7V58.1z M871.2,72.6h7v7h-7V72.6z M878.5,21.8h7v7h-7V21.8z M878.5,29h7v7h-7V29z M878.5,43.6h7v7h-7V43.6z
	 M878.5,50.8h7v7h-7V50.8z M885.7,21.8h7v7h-7V21.8z M885.7,29h7v7h-7V29z M885.7,36.3h7v7h-7V36.3z M885.7,43.6h7v7h-7V43.6z
	 M885.7,72.6h7v7h-7V72.6z M893,21.8h7v7h-7V21.8z M893,36.3h7v7h-7V36.3z M893,50.8h7v7h-7V50.8z M893,58.1h7v7h-7V58.1z M893,65.3
	h7v7h-7V65.3z M900.3,21.8h7v7h-7V21.8z M900.3,36.3h7v7h-7V36.3z M900.3,43.6h7v7h-7V43.6z M900.3,50.8h7v7h-7V50.8z M900.3,72.6h7
	v7h-7V72.6z M907.5,21.8h7v7h-7V21.8z M907.5,29h7v7h-7V29z M907.5,43.6h7v7h-7V43.6z M907.5,58.1h7v7h-7V58.1z M907.5,65.3h7v7h-7
	V65.3z M907.5,72.6h7v7h-7V72.6z M914.8,21.8h7v7h-7V21.8z M914.8,29h7v7h-7V29z M914.8,36.3h7v7h-7V36.3z M914.8,43.6h7v7h-7V43.6z
	 M914.8,50.8h7v7h-7V50.8z M922,21.8h7v7h-7V21.8z M922,36.3h7v7h-7V36.3z M922,43.6h7v7h-7V43.6z M922,72.6h7v7h-7V72.6z M929.3,0
	h7v7h-7V0z M929.3,7.2h7v7h-7V7.2z M929.3,14.5h7v7h-7V14.5z M936.6,0h7v7h-7V0z M936.6,7.2h7v7h-7V7.2z M936.6,14.5h7v7h-7V14.5z
	 M943.8,0h7v7h-7V0z M943.8,7.2h7v7h-7V7.2z M943.8,14.5h7v7h-7V14.5z M951.1,0h7v7h-7V0z M951.1,7.2h7v7h-7V7.2z M951.1,14.5h7v7
	h-7V14.5z M929.3,21.8h7v7h-7V21.8z M929.3,29h7v7h-7V29z M929.3,43.6h7v7h-7V43.6z M929.3,58.1h7v7h-7V58.1z M929.3,65.3h7v7h-7
	V65.3z M936.6,21.8h7v7h-7V21.8z M936.6,36.3h7v7h-7V36.3z M936.6,43.6h7v7h-7V43.6z M936.6,50.8h7v7h-7V50.8z M943.8,21.8h7v7h-7
	V21.8z M943.8,36.3h7v7h-7V36.3z M943.8,43.6h7v7h-7V43.6z M943.8,65.3h7v7h-7V65.3z M943.8,72.6h7v7h-7V72.6z M951.1,21.8h7v7h-7
	V21.8z M951.1,29h7v7h-7V29z M951.1,43.6h7v7h-7V43.6z M951.1,50.8h7v7h-7V50.8z M798.6,79.8h7v7h-7V79.8z M805.9,79.8h7v7h-7V79.8z
	 M813.1,79.8h7v7h-7V79.8z M820.4,79.8h7v7h-7V79.8z M827.7,79.8h7v7h-7V79.8z M834.9,79.8h7v7h-7V79.8z M842.2,79.8h7v7h-7V79.8z
	 M849.4,79.8h7v7h-7V79.8z M856.7,79.8h7v7h-7V79.8z M864,79.8h7v7h-7V79.8z M871.2,79.8h7v7h-7V79.8z M878.5,79.8h7v7h-7V79.8z
	 M885.7,79.8h7v7h-7V79.8z M893,79.8h7v7h-7V79.8z M900.3,79.8h7v7h-7V79.8z M907.5,79.8h7v7h-7V79.8z M914.8,79.8h7v7h-7V79.8z
	 M922,79.8h7v7h-7V79.8z M929.3,79.8h7v7h-7V79.8z M936.6,79.8h7v7h-7V79.8z M943.8,79.8h7v7h-7V79.8z M951.1,79.8h7v7h-7V79.8z
	 M958.3,0h7v7h-7V0z M958.3,7.2h7v7h-7V7.2z M958.3,14.5h7v7h-7V14.5z M965.6,0h7v7h-7V0z M965.6,7.2h7v7h-7V7.2z M965.6,14.5h7v7
	h-7V14.5z M972.8,0h7v7h-7V0z M972.8,7.2h7v7h-7V7.2z M972.8,14.5h7v7h-7V14.5z M980.1,0h7v7h-7V0z M980.1,7.2h7v7h-7V7.2z
	 M980.1,14.5h7v7h-7V14.5z M987.4,0h7v7h-7V0z M987.4,7.2h7v7h-7V7.2z M987.4,14.5h7v7h-7V14.5z M994.6,0h7v7h-7V0z M994.6,7.2h7v7
	h-7V7.2z M994.6,14.5h7v7h-7V14.5z M1001.9,0h7v7h-7V0z M1001.9,7.2h7v7h-7V7.2z M1001.9,14.5h7v7h-7V14.5z M1009.1,0h7v7h-7V0z
	 M1009.1,7.2h7v7h-7V7.2z M1009.1,14.5h7v7h-7V14.5z M958.3,21.8h7v7h-7V21.8z M958.3,29h7v7h-7V29z M958.3,36.3h7v7h-7V36.3z
	 M958.3,43.6h7v7h-7V43.6z M958.3,58.1h7v7h-7V58.1z M958.3,65.3h7v7h-7V65.3z M958.3,72.6h7v7h-7V72.6z M965.6,21.8h7v7h-7V21.8z
	 M965.6,36.3h7v7h-7V36.3z M965.6,50.8h7v7h-7V50.8z M972.8,21.8h7v7h-7V21.8z M972.8,29h7v7h-7V29z M972.8,43.6h7v7h-7V43.6z
	 M972.8,50.8h7v7h-7V50.8z M980.1,21.8h7v7h-7V21.8z M980.1,29h7v7h-7V29z M980.1,36.3h7v7h-7V36.3z M980.1,43.6h7v7h-7V43.6z
	 M980.1,50.8h7v7h-7V50.8z M980.1,65.3h7v7h-7V65.3z M980.1,72.6h7v7h-7V72.6z M987.4,21.8h7v7h-7V21.8z M987.4,36.3h7v7h-7V36.3z
	 M987.4,50.8h7v7h-7V50.8z M987.4,58.1h7v7h-7V58.1z M994.6,21.8h7v7h-7V21.8z M994.6,29h7v7h-7V29z M994.6,36.3h7v7h-7V36.3z
	 M994.6,43.6h7v7h-7V43.6z M994.6,50.8h7v7h-7V50.8z M1001.9,21.8h7v7h-7V21.8z M1001.9,29h7v7h-7V29z M1001.9,43.6h7v7h-7V43.6z
	 M1001.9,72.6h7v7h-7V72.6z M1009.1,21.8h7v7h-7V21.8z M1009.1,36.3h7v7h-7V36.3z M1009.1,43.6h7v7h-7V43.6z M1009.1,50.8h7v7h-7
	V50.8z M1009.1,58.1h7v7h-7V58.1z M1009.1,65.3h7v7h-7V65.3z M1016.4,0h7v7h-7V0z M1016.4,7.2h7v7h-7V7.2z M1016.4,14.5h7v7h-7V14.5
	z M1023.7,0h7v7h-7V0z M1023.7,7.2h7v7h-7V7.2z M1023.7,14.5h7v7h-7V14.5z M1030.9,0h7v7h-7V0z M1030.9,7.2h7v7h-7V7.2z
	 M1030.9,14.5h7v7h-7V14.5z M1038.2,0h7v7h-7V0z M1038.2,7.2h7v7h-7V7.2z M1038.2,14.5h7v7h-7V14.5z M1045.4,0h7v7h-7V0z
	 M1045.4,7.2h7v7h-7V7.2z M1045.4,14.5h7v7h-7V14.5z M1052.7,0h7v7h-7V0z M1052.7,7.2h7v7h-7V7.2z M1052.7,14.5h7v7h-7V14.5z
	 M1060,0h7v7h-7V0z M1060,7.2h7v7h-7V7.2z M1060,14.5h7v7h-7V14.5z M1067.2,0h7v7h-7V0z M1067.2,7.2h7v7h-7V7.2z M1067.2,14.5h7v7
	h-7V14.5z M1074.5,0h7v7h-7V0z M1074.5,7.2h7v7h-7V7.2z M1074.5,14.5h7v7h-7V14.5z M1081.7,0h7v7h-7V0z M1081.7,7.2h7v7h-7V7.2z
	 M1081.7,14.5h7v7h-7V14.5z M1016.4,21.8h7v7h-7V21.8z M1016.4,29h7v7h-7V29z M1016.4,36.3h7v7h-7V36.3z M1016.4,50.8h7v7h-7V50.8z
	 M1023.7,21.8h7v7h-7V21.8z M1023.7,36.3h7v7h-7V36.3z M1023.7,43.6h7v7h-7V43.6z M1023.7,65.3h7v7h-7V65.3z M1030.9,21.8h7v7h-7
	V21.8z M1030.9,29h7v7h-7V29z M1030.9,43.6h7v7h-7V43.6z M1030.9,50.8h7v7h-7V50.8z M1030.9,58.1h7v7h-7V58.1z M1030.9,72.6h7v7h-7
	V72.6z M1038.2,21.8h7v7h-7V21.8z M1038.2,29h7v7h-7V29z M1038.2,43.6h7v7h-7V43.6z M1038.2,50.8h7v7h-7V50.8z M1045.4,21.8h7v7h-7
	V21.8z M1045.4,29h7v7h-7V29z M1045.4,36.3h7v7h-7V36.3z M1045.4,43.6h7v7h-7V43.6z M1045.4,72.6h7v7h-7V72.6z M1052.7,21.8h7v7h-7
	V21.8z M1052.7,36.3h7v7h-7V36.3z M1052.7,50.8h7v7h-7V50.8z M1052.7,58.1h7v7h-7V58.1z M1052.7,65.3h7v7h-7V65.3z M1060,21.8h7v7
	h-7V21.8z M1060,36.3h7v7h-7V36.3z M1060,43.6h7v7h-7V43.6z M1060,50.8h7v7h-7V50.8z M1060,72.6h7v7h-7V72.6z M1067.2,21.8h7v7h-7
	V21.8z M1067.2,29h7v7h-7V29z M1067.2,43.6h7v7h-7V43.6z M1067.2,58.1h7v7h-7V58.1z M1067.2,65.3h7v7h-7V65.3z M1067.2,72.6h7v7h-7
	V72.6z M1074.5,21.8h7v7h-7V21.8z M1074.5,29h7v7h-7V29z M1074.5,36.3h7v7h-7V36.3z M1074.5,43.6h7v7h-7V43.6z M1074.5,50.8h7v7h-7
	V50.8z M1081.7,21.8h7v7h-7V21.8z M1081.7,36.3h7v7h-7V36.3z M1081.7,43.6h7v7h-7V43.6z M1081.7,72.6h7v7h-7V72.6z M1089,0h7v7h-7V0
	z M1089,7.2h7v7h-7V7.2z M1089,14.5h7v7h-7V14.5z M1096.3,0h7v7h-7V0z M1096.3,7.2h7v7h-7V7.2z M1096.3,14.5h7v7h-7V14.5z M1103.5,0
	h7v7h-7V0z M1103.5,7.2h7v7h-7V7.2z M1103.5,14.5h7v7h-7V14.5z M1110.8,0h7v7h-7V0z M1110.8,7.2h7v7h-7V7.2z M1110.8,14.5h7v7h-7
	V14.5z M1089,21.8h7v7h-7V21.8z M1089,29h7v7h-7V29z M1089,43.6h7v7h-7V43.6z M1089,58.1h7v7h-7V58.1z M1089,65.3h7v7h-7V65.3z
	 M1096.3,21.8h7v7h-7V21.8z M1096.3,36.3h7v7h-7V36.3z M1096.3,43.6h7v7h-7V43.6z M1096.3,50.8h7v7h-7V50.8z M1103.5,21.8h7v7h-7
	V21.8z M1103.5,36.3h7v7h-7V36.3z M1103.5,43.6h7v7h-7V43.6z M1103.5,65.3h7v7h-7V65.3z M1103.5,72.6h7v7h-7V72.6z M1110.8,21.8h7v7
	h-7V21.8z M1110.8,29h7v7h-7V29z M1110.8,43.6h7v7h-7V43.6z M1110.8,50.8h7v7h-7V50.8z M958.3,79.8h7v7h-7V79.8z M965.6,79.8h7v7h-7
	V79.8z M972.8,79.8h7v7h-7V79.8z M980.1,79.8h7v7h-7V79.8z M987.4,79.8h7v7h-7V79.8z M994.6,79.8h7v7h-7V79.8z M1001.9,79.8h7v7h-7
	V79.8z M1009.1,79.8h7v7h-7V79.8z M1016.4,79.8h7v7h-7V79.8z M1023.7,79.8h7v7h-7V79.8z M1030.9,79.8h7v7h-7V79.8z M1038.2,79.8h7v7
	h-7V79.8z M1045.4,79.8h7v7h-7V79.8z M1052.7,79.8h7v7h-7V79.8z M1060,79.8h7v7h-7V79.8z M1067.2,79.8h7v7h-7V79.8z M1074.5,79.8h7
	v7h-7V79.8z M1081.7,79.8h7v7h-7V79.8z M1089,79.8h7v7h-7V79.8z M1096.3,79.8h7v7h-7V79.8z M1103.5,79.8h7v7h-7V79.8z M1110.8,79.8
	h7v7h-7V79.8z M1118,0h7v7h-7V0z M1118,7.2h7v7h-7V7.2z M1118,14.5h7v7h-7V14.5z M1125.3,0h7v7h-7V0z M1125.3,7.2h7v7h-7V7.2z
	 M1125.3,14.5h7v7h-7V14.5z M1132.5,0h7v7h-7V0z M1132.5,7.2h7v7h-7V7.2z M1132.5,14.5h7v7h-7V14.5z M1139.8,0h7v7h-7V0z
	 M1139.8,7.2h7v7h-7V7.2z M1139.8,14.5h7v7h-7V14.5z M1147.1,0h7v7h-7V0z M1147.1,7.2h7v7h-7V7.2z M1147.1,14.5h7v7h-7V14.5z
	 M1154.3,0h7v7h-7V0z M1154.3,7.2h7v7h-7V7.2z M1154.3,14.5h7v7h-7V14.5z M1161.6,0h7v7h-7V0z M1161.6,7.2h7v7h-7V7.2z M1161.6,14.5
	h7v7h-7V14.5z M1168.8,0h7v7h-7V0z M1168.8,7.2h7v7h-7V7.2z M1168.8,14.5h7v7h-7V14.5z M1118,21.8h7v7h-7V21.8z M1118,29h7v7h-7V29z
	 M1118,36.3h7v7h-7V36.3z M1118,43.6h7v7h-7V43.6z M1118,58.1h7v7h-7V58.1z M1118,65.3h7v7h-7V65.3z M1118,72.6h7v7h-7V72.6z
	 M1125.3,21.8h7v7h-7V21.8z M1125.3,36.3h7v7h-7V36.3z M1125.3,50.8h7v7h-7V50.8z M1132.5,21.8h7v7h-7V21.8z M1132.5,29h7v7h-7V29z
	 M1132.5,43.6h7v7h-7V43.6z M1132.5,50.8h7v7h-7V50.8z M1139.8,21.8h7v7h-7V21.8z M1139.8,29h7v7h-7V29z M1139.8,36.3h7v7h-7V36.3z
	 M1139.8,43.6h7v7h-7V43.6z M1139.8,50.8h7v7h-7V50.8z M1139.8,65.3h7v7h-7V65.3z M1139.8,72.6h7v7h-7V72.6z M1147.1,21.8h7v7h-7
	V21.8z M1147.1,36.3h7v7h-7V36.3z M1147.1,50.8h7v7h-7V50.8z M1147.1,58.1h7v7h-7V58.1z M1154.3,21.8h7v7h-7V21.8z M1154.3,29h7v7
	h-7V29z M1154.3,36.3h7v7h-7V36.3z M1154.3,43.6h7v7h-7V43.6z M1154.3,50.8h7v7h-7V50.8z M1161.6,21.8h7v7h-7V21.8z M1161.6,29h7v7
	h-7V29z M1161.6,43.6h7v7h-7V43.6z M1161.6,72.6h7v7h-7V72.6z M1168.8,21.8h7v7h-7V21.8z M1168.8,36.3h7v7h-7V36.3z M1168.8,43.6h7
	v7h-7V43.6z M1168.8,50.8h7v7h-7V50.8z M1168.8,58.1h7v7h-7V58.1z M1168.8,65.3h7v7h-7V65.3z M1176.1,0h7v7h-7V0z M1176.1,7.2h7v7
	h-7V7.2z M1176.1,14.5h7v7h-7V14.5z M1183.4,0h7v7h-7V0z M1183.4,7.2h7v7h-7V7.2z M1183.4,14.5h7v7h-7V14.5z M1190.6,0h7v7h-7V0z
	 M1190.6,7.2h7v7h-7V7.2z M1190.6,14.5h7v7h-7V14.5z M1197.9,0h7v7h-7V0z M1197.9,7.2h7v7h-7V7.2z M1197.9,14.5h7v7h-7V14.5z
	 M1205.1,0h7v7h-7V0z M1205.1,7.2h7v7h-7V7.2z M1205.1,14.5h7v7h-7V14.5z M1212.4,0h7v7h-7V0z M1212.4,7.2h7v7h-7V7.2z M1212.4,14.5
	h7v7h-7V14.5z M1219.7,0h7v7h-7V0z M1219.7,7.2h7v7h-7V7.2z M1219.7,14.5h7v7h-7V14.5z M1226.9,0h7v7h-7V0z M1226.9,7.2h7v7h-7V7.2z
	 M1226.9,14.5h7v7h-7V14.5z M1234.2,0h7v7h-7V0z M1234.2,7.2h7v7h-7V7.2z M1234.2,14.5h7v7h-7V14.5z M1241.4,0h7v7h-7V0z
	 M1241.4,7.2h7v7h-7V7.2z M1241.4,14.5h7v7h-7V14.5z M1176.1,21.8h7v7h-7V21.8z M1176.1,29h7v7h-7V29z M1176.1,36.3h7v7h-7V36.3z
	 M1176.1,50.8h7v7h-7V50.8z M1183.4,21.8h7v7h-7V21.8z M1183.4,36.3h7v7h-7V36.3z M1183.4,43.6h7v7h-7V43.6z M1183.4,65.3h7v7h-7
	V65.3z M1190.6,21.8h7v7h-7V21.8z M1190.6,29h7v7h-7V29z M1190.6,43.6h7v7h-7V43.6z M1190.6,50.8h7v7h-7V50.8z M1190.6,58.1h7v7h-7
	V58.1z M1190.6,72.6h7v7h-7V72.6z M1197.9,21.8h7v7h-7V21.8z M1197.9,29h7v7h-7V29z M1197.9,43.6h7v7h-7V43.6z M1197.9,50.8h7v7h-7
	V50.8z M1205.1,21.8h7v7h-7V21.8z M1205.1,29h7v7h-7V29z M1205.1,36.3h7v7h-7V36.3z M1205.1,43.6h7v7h-7V43.6z M1205.1,72.6h7v7h-7
	V72.6z M1212.4,21.8h7v7h-7V21.8z M1212.4,36.3h7v7h-7V36.3z M1212.4,50.8h7v7h-7V50.8z M1212.4,58.1h7v7h-7V58.1z M1212.4,65.3h7v7
	h-7V65.3z M1219.7,21.8h7v7h-7V21.8z M1219.7,36.3h7v7h-7V36.3z M1219.7,43.6h7v7h-7V43.6z M1219.7,50.8h7v7h-7V50.8z M1219.7,72.6
	h7v7h-7V72.6z M1226.9,21.8h7v7h-7V21.8z M1226.9,29h7v7h-7V29z M1226.9,43.6h7v7h-7V43.6z M1226.9,58.1h7v7h-7V58.1z M1226.9,65.3
	h7v7h-7V65.3z M1226.9,72.6h7v7h-7V72.6z M1234.2,21.8h7v7h-7V21.8z M1234.2,29h7v7h-7V29z M1234.2,36.3h7v7h-7V36.3z M1234.2,43.6
	h7v7h-7V43.6z M1234.2,50.8h7v7h-7V50.8z M1241.4,21.8h7v7h-7V21.8z M1241.4,36.3h7v7h-7V36.3z M1241.4,43.6h7v7h-7V43.6z
	 M1241.4,72.6h7v7h-7V72.6z M1248.7,0h7v7h-7V0z M1248.7,7.2h7v7h-7V7.2z M1248.7,14.5h7v7h-7V14.5z M1256,0h7v7h-7V0z M1256,7.2h7
	v7h-7V7.2z M1256,14.5h7v7h-7V14.5z M1263.2,0h7v7h-7V0z M1263.2,7.2h7v7h-7V7.2z M1263.2,14.5h7v7h-7V14.5z M1270.5,0h7v7h-7V0z
	 M1270.5,7.2h7v7h-7V7.2z M1270.5,14.5h7v7h-7V14.5z M1248.7,21.8h7v7h-7V21.8z M1248.7,29h7v7h-7V29z M1248.7,43.6h7v7h-7V43.6z
	 M1248.7,58.1h7v7h-7V58.1z M1248.7,65.3h7v7h-7V65.3z M1256,21.8h7v7h-7V21.8z M1256,36.3h7v7h-7V36.3z M1256,43.6h7v7h-7V43.6z
	 M1256,50.8h7v7h-7V50.8z M1263.2,21.8h7v7h-7V21.8z M1263.2,36.3h7v7h-7V36.3z M1263.2,43.6h7v7h-7V43.6z M1263.2,65.3h7v7h-7V65.3
	z M1263.2,72.6h7v7h-7V72.6z M1270.5,21.8h7v7h-7V21.8z M1270.5,29h7v7h-7V29z M1270.5,43.6h7v7h-7V43.6z M1270.5,50.8h7v7h-7V50.8z
	 M1118,79.8h7v7h-7V79.8z M1125.3,79.8h7v7h-7V79.8z M1132.5,79.8h7v7h-7V79.8z M1139.8,79.8h7v7h-7V79.8z M1147.1,79.8h7v7h-7V79.8
	z M1154.3,79.8h7v7h-7V79.8z M1161.6,79.8h7v7h-7V79.8z M1168.8,79.8h7v7h-7V79.8z M1176.1,79.8h7v7h-7V79.8z M1183.4,79.8h7v7h-7
	V79.8z M1190.6,79.8h7v7h-7V79.8z M1197.9,79.8h7v7h-7V79.8z M1205.1,79.8h7v7h-7V79.8z M1212.4,79.8h7v7h-7V79.8z M1219.7,79.8h7v7
	h-7V79.8z M1226.9,79.8h7v7h-7V79.8z M1234.2,79.8h7v7h-7V79.8z M1241.4,79.8h7v7h-7V79.8z M1248.7,79.8h7v7h-7V79.8z M1256,79.8h7
	v7h-7V79.8z M1263.2,79.8h7v7h-7V79.8z M1270.5,79.8h7v7h-7V79.8z"/>
</svg>
