<?xml version="1.0" encoding="utf-8"?>
<!-- Generator: Adobe Illustrator 27.3.1, SVG Export Plug-In . SVG Version: 6.00 Build 0)  -->
<svg version="1.1" xmlns="http://www.w3.org/2000/svg" xmlns:xlink="http://www.w3.org/1999/xlink" x="0px" y="0px"
	 viewBox="0 0 139.8 269.4" style="enable-background:new 0 0 139.8 269.4;" xml:space="preserve">
<style type="text/css">
	.st0{fill:#FBE5A9;}
	.st1{fill:#1E0E01;}
</style>
<g id="Слой_2">
	<path class="st0" d="M138.7,216.7h-6.2v-6.2c0-0.1,0-0.1,0-0.2c0,0,0-0.1,0-0.2v-7c0,0,0-0.1,0-0.1c0,0,0-0.1,0-0.1v-7
		c0,0,0-0.1,0-0.1c0,0,0-0.1,0-0.1v-7c0-0.1,0-0.1,0-0.2c0,0,0-0.1,0-0.1v-7c0,0,0-0.1,0-0.1c0,0,0-0.1,0-0.1v-7c0-0.1,0-0.1,0-0.2
		c0,0,0-0.1,0-0.1v-7c0-0.1,0-0.1,0-0.2c0,0,0-0.1,0-0.1v-7c0-0.6-0.4-1-1-1h-6.3v-6.2c0-0.1,0-0.1,0-0.2c0,0,0-0.1,0-0.1v-7
		c0-0.1,0-0.1,0-0.2c0,0,0-0.1,0-0.1v-7c0-0.6-0.4-1-1-1h-6.3v-6.2c0-0.6-0.4-1-1-1h-7c0,0-0.1,0-0.1,0c0,0-0.1,0-0.1,0h-6.2v-5.5
		h6.2c0.1,0,0.1,0,0.1,0c0,0,0.1,0,0.2,0h7c0.1,0,0.1,0,0.1,0c0,0,0.1,0,0.2,0h7c0.6,0,1-0.4,1-1v-7c0-0.1,0-0.1,0-0.1
		c0,0,0-0.1,0-0.1v-7c0,0,0-0.1,0-0.1c0,0,0-0.1,0-0.1v-7c0-0.1,0-0.1,0-0.1c0,0,0-0.1,0-0.1v-7c0-0.1,0-0.1,0-0.2c0,0,0-0.1,0-0.1
		v-7c0,0,0-0.1,0-0.1c0,0,0-0.1,0-0.1v-7c0-0.1,0-0.1,0-0.2c0,0,0-0.1,0-0.1v-7c0-0.6-0.4-1-1-1H118v-6.3c0,0,0-0.1,0-0.1
		c0,0,0-0.1,0-0.1v-7c0-0.6-0.4-1-1-1h-6.3v-6.3c0-0.6-0.4-1-1-1h-7c0,0-0.1,0-0.1,0c0,0-0.1,0-0.1,0h-6.3v-6.2c0-0.6-0.4-1-1-1h-7
		c0,0-0.1,0-0.1,0c0,0-0.1,0-0.1,0h-6.3v-6.3c0-0.1,0-0.1,0-0.2c0,0,0-0.1,0-0.1v-7c0-0.6-0.4-1-1-1h-7c-0.1,0-0.1,0-0.1,0
		c0,0-0.1,0-0.2,0h-7c0,0-0.1,0-0.1,0c0,0-0.1,0-0.1,0h-7c-0.6,0-1,0.4-1,1v7c0,0.1,0,0.1,0,0.1c0,0,0,0.1,0,0.2v6.3h-6.3
		c0,0-0.1,0-0.1,0c0,0-0.1,0-0.1,0h-7c-0.6,0-1,0.4-1,1v6.2h-6.3c-0.1,0-0.1,0-0.1,0c0,0-0.1,0-0.1,0h-7c-0.6,0-1,0.4-1,1V57h-6.2
		c-0.6,0-1,0.4-1,1v7c0,0,0,0.1,0,0.1c0,0,0,0.1,0,0.1v6.3h-6.3c-0.6,0-1,0.4-1,1v7c0,0.1,0,0.1,0,0.1c0,0,0,0.1,0,0.2v7
		c0,0,0,0.1,0,0.1c0,0,0,0.1,0,0.1v7c0,0.1,0,0.1,0,0.1c0,0,0,0.1,0,0.2v7c0,0.1,0,0.1,0,0.1c0,0,0,0.1,0,0.1v7c0,0,0,0.1,0,0.1
		c0,0,0,0.1,0,0.1v7c0,0.1,0,0.1,0,0.1c0,0,0,0.1,0,0.1v7c0,0.6,0.4,1,1,1h7c0.1,0,0.1,0,0.1,0c0,0,0.1,0,0.1,0h7c0,0,0.1,0,0.1,0
		c0,0,0.1,0,0.1,0h6.3v5.5h-6.3c0,0-0.1,0-0.1,0c0,0-0.1,0-0.1,0h-7c-0.6,0-1,0.4-1,1v6.2h-6.3c-0.6,0-1,0.4-1,1v7
		c0,0.1,0,0.1,0,0.1c0,0,0,0.1,0,0.2v7c0,0.1,0,0.1,0,0.1c0,0,0,0.1,0,0.2v6.2H8.3c-0.6,0-1,0.4-1,1v7c0,0.1,0,0.1,0,0.1
		c0,0,0,0.1,0,0.2v7c0,0.1,0,0.1,0,0.1c0,0,0,0.1,0,0.2v7c0,0,0,0.1,0,0.1c0,0,0,0.1,0,0.1v7c0,0.1,0,0.1,0,0.1c0,0,0,0.1,0,0.2v7
		c0,0,0,0.1,0,0.1c0,0,0,0.1,0,0.1v7c0,0,0,0.1,0,0.1c0,0,0,0.1,0,0.1v7c0,0.1,0,0.1,0,0.2c0,0,0,0.1,0,0.2v6.2H1.1
		c-0.6,0-1,0.4-1,1v7c0,0.1,0,0.1,0,0.2c0,0,0,0.1,0,0.2v7c0,0.1,0,0.1,0,0.1c0,0,0,0.1,0,0.2v7c0,0.6,0.4,1,1,1h7c0.6,0,1-0.4,1-1
		V233h6.2c0.1,0,0.1,0,0.1,0c0,0,0.1,0,0.2,0h6.3v6.3c0,0.6,0.4,1,1,1h7c0.6,0,1-0.4,1-1v-7c0-0.1,0-0.1,0-0.2c0,0,0-0.1,0-0.1v-6.3
		h6.2c0.1,0,0.1,0,0.1,0c0,0,0.1,0,0.1,0h6.3v6.3c0,0,0,0.1,0,0.1c0,0,0,0.1,0,0.1v7c0,0.1,0,0.1,0,0.2c0,0,0,0.1,0,0.2v7
		c0,0.1,0,0.1,0,0.2c0,0,0,0.1,0,0.1v6.4h-6.3c-0.6,0-1,0.4-1,1v7c0,0,0,0.1,0,0.1c0,0,0,0.1,0,0.1v7c0,0.6,0.4,1,1,1h7
		c0.1,0,0.1,0,0.1,0c0,0,0.1,0,0.2,0h7c0,0,0.1,0,0.1,0c0,0,0.1,0,0.1,0h7c0.1,0,0.1,0,0.1,0c0,0,0.1,0,0.2,0h7c0.6,0,1-0.4,1-1v-7
		c0,0,0-0.1,0-0.1c0,0,0-0.1,0-0.1v-7c0-0.6-0.4-1-1-1h-6.3v-6.4c0-0.1,0-0.1,0-0.1c0,0,0-0.1,0-0.2v-7c0-0.1,0-0.1,0-0.2
		c0,0,0-0.1,0-0.2v-7c0,0,0-0.1,0-0.1c0,0,0-0.1,0-0.1v-6.3h6.3c0,0,0.1,0,0.1,0c0,0,0.1,0,0.1,0h7c0.1,0,0.1,0,0.2,0
		c0,0,0.1,0,0.1,0H80v6.3c0,0,0,0.1,0,0.1c0,0,0,0.1,0,0.1v7c0,0.1,0,0.1,0,0.2c0,0,0,0.1,0,0.2v7c0,0.1,0,0.1,0,0.2
		c0,0,0,0.1,0,0.1v6.4h-6.3c-0.6,0-1,0.4-1,1v7c0,0,0,0.1,0,0.1c0,0,0,0.1,0,0.1v7c0,0.6,0.4,1,1,1h7c0.1,0,0.1,0,0.1,0
		c0,0,0.1,0,0.2,0h7c0,0,0.1,0,0.1,0c0,0,0.1,0,0.1,0h7c0.1,0,0.1,0,0.1,0c0,0,0.1,0,0.2,0h7c0.6,0,1-0.4,1-1v-7c0,0,0-0.1,0-0.1
		c0,0,0-0.1,0-0.1v-7c0-0.6-0.4-1-1-1h-6.3v-6.4c0-0.1,0-0.1,0-0.1c0,0,0-0.1,0-0.2v-7c0-0.1,0-0.1,0-0.2c0,0,0-0.1,0-0.2v-7
		c0,0,0-0.1,0-0.1c0,0,0-0.1,0-0.1v-6.3h6.3c0,0,0.1,0,0.1,0c0,0,0.1,0,0.1,0h6.2v6.3c0,0.1,0,0.1,0,0.1c0,0,0,0.1,0,0.2v7
		c0,0.6,0.4,1,1,1h7c0.6,0,1-0.4,1-1V233h6.3c0.1,0,0.1,0,0.1,0c0,0,0.1,0,0.2,0h6.2v6.3c0,0.6,0.4,1,1,1h7c0.6,0,1-0.4,1-1v-7
		c0-0.1,0-0.1,0-0.2c0,0,0-0.1,0-0.1v-7c0-0.1,0-0.1,0-0.2c0,0,0-0.1,0-0.2v-7C139.7,217.1,139.3,216.7,138.7,216.7z"/>
</g>
<g id="Слой_1">
	<path class="st1" d="M15.6,72.5h7v7h-7V72.5z M22.9,58h7v7h-7V58z M22.9,65.2h7v7h-7V65.2z M22.9,72.5h7v7h-7V72.5z M30.1,50.7h7v7
		h-7L30.1,50.7z M30.1,58h7v7h-7L30.1,58z M30.1,65.2h7v7h-7L30.1,65.2z M30.1,72.5h7v7h-7L30.1,72.5z M37.4,50.7h7v7h-7V50.7z
		 M37.4,58h7v7h-7V58z M37.4,65.2h7v7h-7V65.2z M44.7,43.5h7v7h-7V43.5z M44.7,50.7h7v7h-7V50.7z M44.7,58h7v7h-7V58z M44.7,65.2h7
		v7h-7V65.2z M51.9,43.5h7v7h-7V43.5z M51.9,50.7h7v7h-7V50.7z M51.9,58h7v7h-7V58z M51.9,65.2h7v7h-7V65.2z M59.2,43.5h7v7h-7
		L59.2,43.5z M59.2,50.7h7v7h-7L59.2,50.7z M59.2,58h7v7h-7L59.2,58z M59.2,65.2h7v7h-7L59.2,65.2z M59.2,72.5h7v7h-7L59.2,72.5z
		 M66.4,43.5h7v7h-7V43.5z M66.4,50.7h7v7h-7V50.7z M66.4,58h7v7h-7V58z M66.4,65.2h7v7h-7V65.2z M66.4,72.5h7v7h-7V72.5z
		 M15.6,79.8h7v7h-7V79.8z M15.6,87h7v7h-7V87z M15.6,94.3h7v7h-7V94.3z M15.6,101.6h7v7h-7V101.6z M15.6,108.8h7v7h-7V108.8z
		 M15.6,116.1h7v7h-7V116.1z M15.6,137.8h7v7h-7V137.8z M15.6,145.1h7v7h-7V145.1z M22.9,79.8h7v7h-7V79.8z M22.9,87h7v7h-7V87z
		 M22.9,94.3h7v7h-7V94.3z M22.9,101.6h7v7h-7V101.6z M22.9,108.8h7v7h-7V108.8z M22.9,116.1h7v7h-7V116.1z M22.9,130.6h7v7h-7
		V130.6z M22.9,137.8h7v7h-7V137.8z M30.1,79.8h7v7h-7L30.1,79.8z M30.1,87h7v7h-7L30.1,87z M30.1,94.3h7v7h-7L30.1,94.3z
		 M30.1,101.6h7v7h-7L30.1,101.6z M30.1,108.8h7v7h-7L30.1,108.8z M30.1,116.1h7v7h-7L30.1,116.1z M30.1,130.6h7v7h-7L30.1,130.6z
		 M30.1,145.1h7v7h-7L30.1,145.1z M37.4,79.8h7v7h-7V79.8z M37.4,94.3h7v7h-7V94.3z M37.4,108.8h7v7h-7V108.8z M37.4,116.1h7v7h-7
		V116.1z M37.4,123.3h7v7h-7V123.3z M37.4,130.6h7v7h-7V130.6z M37.4,145.1h7v7h-7V145.1z M44.7,79.8h7v7h-7V79.8z M44.7,94.3h7v7
		h-7V94.3z M44.7,108.8h7v7h-7V108.8z M44.7,116.1h7v7h-7V116.1z M44.7,123.3h7v7h-7V123.3z M44.7,137.8h7v7h-7V137.8z M44.7,145.1
		h7v7h-7V145.1z M51.9,79.8h7v7h-7V79.8z M51.9,87h7v7h-7V87z M51.9,94.3h7v7h-7V94.3z M51.9,108.8h7v7h-7V108.8z M51.9,116.1h7v7
		h-7V116.1z M51.9,123.3h7v7h-7V123.3z M51.9,130.6h7v7h-7V130.6z M51.9,137.8h7v7h-7V137.8z M51.9,145.1h7v7h-7V145.1z M59.2,101.6
		h7v7h-7L59.2,101.6z M59.2,108.8h7v7h-7L59.2,108.8z M59.2,116.1h7v7h-7L59.2,116.1z M59.2,123.3h7v7h-7L59.2,123.3z M59.2,130.6h7
		v7h-7L59.2,130.6z M59.2,137.8h7v7h-7L59.2,137.8z M59.2,145.1h7v7h-7L59.2,145.1z M66.4,79.8h7v7h-7V79.8z M66.4,87h7v7h-7V87z
		 M66.4,94.3h7v7h-7V94.3z M66.4,101.6h7v7h-7V101.6z M66.4,108.8h7v7h-7V108.8z M66.4,116.1h7v7h-7V116.1z M66.4,123.3h7v7h-7
		V123.3z M66.4,130.6h7v7h-7V130.6z M66.4,137.8h7v7h-7V137.8z M66.4,145.1h7v7h-7V145.1z M15.6,152.4h7v7h-7V152.4z M15.6,159.6h7
		v7h-7V159.6z M15.6,166.9h7v7h-7V166.9z M15.6,174.2h7v7h-7V174.2z M15.6,181.4h7v7h-7V181.4z M15.6,188.7h7v7h-7V188.7z
		 M15.6,195.9h7v7h-7V195.9z M15.6,210.5h7v7h-7V210.5z M15.6,217.7h7v7h-7V217.7z M15.6,225h7v7h-7V225z M22.9,152.4h7v7h-7V152.4z
		 M22.9,159.6h7v7h-7V159.6z M22.9,166.9h7v7h-7V166.9z M22.9,217.7h7v7h-7V217.7z M22.9,225h7v7h-7V225z M30.1,152.4h7v7h-7
		L30.1,152.4z M30.1,159.6h7v7h-7L30.1,159.6z M30.1,166.9h7v7h-7L30.1,166.9z M30.1,174.2h7v7h-7L30.1,174.2z M30.1,181.4h7v7h-7
		L30.1,181.4z M30.1,188.7h7v7h-7L30.1,188.7z M37.4,152.4h7v7h-7V152.4z M37.4,159.6h7v7h-7V159.6z M37.4,166.9h7v7h-7V166.9z
		 M37.4,174.2h7v7h-7V174.2z M37.4,181.4h7v7h-7V181.4z M37.4,188.7h7v7h-7V188.7z M44.7,152.4h7v7h-7V152.4z M44.7,159.6h7v7h-7
		V159.6z M44.7,166.9h7v7h-7V166.9z M44.7,174.2h7v7h-7V174.2z M44.7,181.4h7v7h-7V181.4z M44.7,188.7h7v7h-7V188.7z M51.9,152.4h7
		v7h-7V152.4z M51.9,159.6h7v7h-7V159.6z M51.9,166.9h7v7h-7V166.9z M51.9,174.2h7v7h-7V174.2z M51.9,181.4h7v7h-7V181.4z
		 M51.9,188.7h7v7h-7V188.7z M59.2,152.4h7v7h-7L59.2,152.4z M59.2,159.6h7v7h-7L59.2,159.6z M59.2,166.9h7v7h-7L59.2,166.9z
		 M59.2,174.2h7v7h-7L59.2,174.2z M59.2,181.4h7v7h-7L59.2,181.4z M59.2,188.7h7v7h-7L59.2,188.7z M66.4,152.4h7v7h-7V152.4z
		 M66.4,159.6h7v7h-7V159.6z M66.4,166.9h7v7h-7V166.9z M66.4,174.2h7v7h-7V174.2z M66.4,181.4h7v7h-7V181.4z M66.4,188.7h7v7h-7
		V188.7z M22.9,232.3h7v7h-7V232.3z M37.4,254.2h7v7h-7V254.2z M44.7,225h7v7h-7V225z M44.7,232.2h7v7h-7V232.2z M44.7,239.5h7v7h-7
		V239.5z M44.7,246.8h7v7h-7V246.8z M44.7,254.2h7v7h-7V254.2z M51.9,225h7v7h-7V225z M51.9,232.2h7v7h-7V232.2z M51.9,239.5h7v7h-7
		V239.5z M51.9,246.8h7v7h-7V246.8z M51.9,254.2h7v7h-7V254.2z M59.2,254.2h7v7h-7L59.2,254.2z M73.7,43.5h7v7h-7V43.5z M73.7,50.7
		h7v7h-7V50.7z M73.7,58h7v7h-7V58z M73.7,65.2h7v7h-7V65.2z M73.7,72.5h7v7h-7V72.5z M59.2,28.9h7v7h-7L59.2,28.9z M59.2,36.2h7v7
		h-7L59.2,36.2z M81,43.5h7v7h-7V43.5z M81,50.7h7v7h-7V50.7z M81,58h7v7h-7V58z M81,65.2h7v7h-7V65.2z M81,72.5h7v7h-7V72.5z
		 M66.4,28.9h7v7h-7V28.9z M66.4,36.2h7v7h-7V36.2z M88.2,43.5h7v7h-7V43.5z M88.2,50.7h7v7h-7V50.7z M88.2,58h7v7h-7V58z
		 M88.2,65.2h7v7h-7V65.2z M73.7,28.9h7v7h-7V28.9z M73.7,36.2h7v7h-7V36.2z M95.5,50.7h7v7h-7V50.7z M95.5,58h7v7h-7V58z
		 M95.5,65.2h7v7h-7V65.2z M102.7,50.7h7v7h-7V50.7z M102.7,58h7v7h-7V58z M102.7,65.2h7v7h-7V65.2z M110,58h7v7h-7V58z M110,65.2h7
		v7h-7V65.2z M110,72.5h7v7h-7V72.5z M117.3,72.5h7v7h-7V72.5z M73.7,79.8h7v7h-7V79.8z M73.7,87h7v7h-7V87z M73.7,94.3h7v7h-7V94.3
		z M73.7,101.6h7v7h-7V101.6z M73.7,108.8h7v7h-7V108.8z M73.7,116.1h7v7h-7V116.1z M73.7,123.3h7v7h-7V123.3z M73.7,130.6h7v7h-7
		V130.6z M73.7,137.8h7v7h-7V137.8z M73.7,145.1h7v7h-7V145.1z M81,79.8h7v7h-7V79.8z M81,87h7v7h-7V87z M81,94.3h7v7h-7V94.3z
		 M81,101.6h7v7h-7V101.6z M81,108.8h7v7h-7V108.8z M81,116.1h7v7h-7V116.1z M81,123.3h7v7h-7V123.3z M81,130.6h7v7h-7V130.6z
		 M81,137.8h7v7h-7V137.8z M81,145.1h7v7h-7V145.1z M88.2,79.8h7v7h-7V79.8z M88.2,94.3h7v7h-7V94.3z M88.2,108.8h7v7h-7V108.8z
		 M88.2,116.1h7v7h-7V116.1z M88.2,123.3h7v7h-7V123.3z M88.2,137.8h7v7h-7V137.8z M88.2,145.1h7v7h-7V145.1z M95.5,79.8h7v7h-7
		V79.8z M95.5,94.3h7v7h-7V94.3z M95.5,108.8h7v7h-7V108.8z M95.5,116.1h7v7h-7V116.1z M95.5,123.3h7v7h-7V123.3z M95.5,130.6h7v7
		h-7V130.6z M95.5,145.1h7v7h-7V145.1z M102.7,79.8h7v7h-7V79.8z M102.7,87h7v7h-7V87z M102.7,94.3h7v7h-7V94.3z M102.7,108.8h7v7
		h-7V108.8z M102.7,116.1h7v7h-7V116.1z M102.7,130.6h7v7h-7V130.6z M102.7,145.1h7v7h-7V145.1z M110,101.6h7v7h-7V101.6z
		 M110,108.8h7v7h-7V108.8z M110,116.1h7v7h-7V116.1z M117.3,79.8h7v7h-7V79.8z M117.3,87h7v7h-7V87z M117.3,94.3h7v7h-7V94.3z
		 M117.3,101.6h7v7h-7V101.6z M117.3,108.8h7v7h-7V108.8z M117.3,116.1h7v7h-7V116.1z M73.7,152.4h7v7h-7V152.4z M73.7,159.6h7v7h-7
		V159.6z M73.7,166.9h7v7h-7V166.9z M73.7,174.2h7v7h-7V174.2z M73.7,181.4h7v7h-7V181.4z M73.7,188.7h7v7h-7V188.7z M81,152.4h7v7
		h-7V152.4z M81,159.6h7v7h-7V159.6z M81,166.9h7v7h-7V166.9z M81,174.2h7v7h-7V174.2z M81,181.4h7v7h-7V181.4z M81,188.7h7v7h-7
		V188.7z M88.2,152.4h7v7h-7V152.4z M88.2,159.6h7v7h-7V159.6z M88.2,166.9h7v7h-7V166.9z M88.2,174.2h7v7h-7V174.2z M88.2,181.4h7
		v7h-7V181.4z M88.2,188.7h7v7h-7V188.7z M95.5,152.4h7v7h-7V152.4z M95.5,159.6h7v7h-7V159.6z M95.5,166.9h7v7h-7V166.9z
		 M95.5,174.2h7v7h-7V174.2z M95.5,181.4h7v7h-7V181.4z M95.5,188.7h7v7h-7V188.7z M102.7,152.4h7v7h-7V152.4z M102.7,159.6h7v7h-7
		V159.6z M102.7,166.9h7v7h-7V166.9z M102.7,174.2h7v7h-7V174.2z M102.7,181.4h7v7h-7V181.4z M102.7,188.7h7v7h-7V188.7z
		 M30.1,195.9h7v7h-7L30.1,195.9z M37.4,195.9h7v7h-7V195.9z M44.7,195.9h7v7h-7V195.9z M51.9,195.9h7v7h-7V195.9z M59.2,195.9h7v7
		h-7L59.2,195.9z M66.4,195.9h7v7h-7V195.9z M73.7,195.9h7v7h-7V195.9z M81,195.9h7v7h-7V195.9z M88.2,195.9h7v7h-7V195.9z
		 M102.7,195.9h7v7h-7V195.9z M30.1,203.2h7v7h-7L30.1,203.2z M37.4,203.2h7v7h-7V203.2z M51.9,203.2h7v7h-7V203.2z M59.2,203.2h7v7
		h-7L59.2,203.2z M66.4,203.2h7v7h-7V203.2z M73.7,203.2h7v7h-7V203.2z M88.2,203.2h7v7h-7V203.2z M95.5,203.2h7v7h-7V203.2z
		 M102.7,203.2h7v7h-7V203.2z M30.1,210.4h7v7h-7L30.1,210.4z M44.7,210.4h7v7h-7V210.4z M59.2,210.4h7v7h-7L59.2,210.4z
		 M66.4,210.4h7v7h-7V210.4z M73.7,210.4h7v7h-7V210.4z M81,210.4h7v7h-7V210.4z M102.7,210.4h7v7h-7V210.4z M30.1,217.7h7v7h-7
		L30.1,217.7z M37.4,217.7h7v7h-7V217.7z M44.7,217.7h7v7h-7V217.7z M51.9,217.7h7v7h-7V217.7z M59.2,217.7h7v7h-7L59.2,217.7z
		 M66.4,217.7h7v7h-7V217.7z M73.7,217.7h7v7h-7V217.7z M81,217.7h7v7h-7V217.7z M88.2,217.7h7v7h-7V217.7z M95.5,217.7h7v7h-7
		V217.7z M102.7,217.7h7v7h-7V217.7z M73.7,254.2h7v7h-7V254.2z M81,225h7v7h-7V225z M81,232.2h7v7h-7V232.2z M81,239.5h7v7h-7
		V239.5z M81,246.8h7v7h-7V246.8z M81,254.2h7v7h-7V254.2z M88.2,225h7v7h-7V225z M88.2,232.2h7v7h-7V232.2z M88.2,239.5h7v7h-7
		V239.5z M88.2,246.8h7v7h-7V246.8z M88.2,254.2h7v7h-7V254.2z M95.5,254.2h7v7h-7V254.2z M8.3,159.6h7v7h-7V159.6z M8.3,166.9h7v7
		h-7V166.9z M8.3,174.2h7v7h-7V174.2z M8.3,181.4h7v7h-7V181.4z M8.3,188.7h7v7h-7V188.7z M8.3,195.9h7v7h-7V195.9z M15.6,203.2h7v7
		h-7V203.2z M8.3,203.2h7v7h-7V203.2z M8.3,210.5h7v7h-7V210.5z M8.3,217.7h7v7h-7V217.7z M8.3,225h7v7h-7V225z M1.1,217.7h7v7h-7
		L1.1,217.7z M1.1,225h7v7h-7L1.1,225z M1.1,232.3h7v7h-7L1.1,232.3z M124.2,144.8h-7v-7h7V144.8z M124.2,152.1h-7v-7h7V152.1z
		 M116.9,137.6h-7v-7h7V137.6z M116.9,144.8h-7v-7h7V144.8z M124.2,159.4h-7v-7h7V159.4z M124.2,166.6h-7v-7h7V166.6z M124.2,173.9
		h-7v-7h7V173.9z M124.2,181.2h-7v-7h7V181.2z M124.2,188.4h-7v-7h7V188.4z M124.2,195.7h-7v-7h7V195.7z M124.2,202.9h-7v-7h7V202.9
		z M124.2,217.5h-7v-7h7V217.5z M124.2,224.7h-7v-7h7V224.7z M124.2,232h-7v-7h7V232z M116.9,159.4h-7v-7h7V159.4z M116.9,166.6h-7
		v-7h7V166.6z M116.9,173.9h-7v-7h7V173.9z M116.9,224.7h-7v-7h7V224.7z M116.9,232h-7v-7h7V232z M116.9,239.3h-7v-7h7V239.3z
		 M131.5,166.6h-7v-7h7V166.6z M131.5,173.9h-7v-7h7V173.9z M131.5,181.2h-7v-7h7V181.2z M131.5,188.4h-7v-7h7V188.4z M131.5,195.7
		h-7v-7h7V195.7z M131.5,202.9h-7v-7h7V202.9z M124.2,210.2h-7v-7h7V210.2z M131.5,210.2h-7v-7h7V210.2z M131.5,217.5h-7v-7h7V217.5
		z M131.5,224.7h-7v-7h7V224.7z M131.5,232h-7v-7h7V232z M138.7,224.7h-7v-7h7V224.7z M138.7,232h-7v-7h7V232z M138.7,239.3h-7v-7h7
		V239.3z M37.4,261.4h7v7h-7V261.4z M44.7,261.4h7v7h-7V261.4z M51.9,261.4h7v7h-7V261.4z M59.2,261.4h7v7h-7L59.2,261.4z
		 M73.7,261.4h7v7h-7V261.4z M81,261.4h7v7h-7V261.4z M88.2,261.4h7v7h-7V261.4z M95.5,261.4h7v7h-7V261.4z"/>
</g>
</svg>
