<?xml version="1.0" encoding="utf-8"?>
<!-- Generator: Adobe Illustrator 27.3.1, SVG Export Plug-In . SVG Version: 6.00 Build 0)  -->
<svg version="1.1" xmlns="http://www.w3.org/2000/svg" xmlns:xlink="http://www.w3.org/1999/xlink" x="0px" y="0px"
	 viewBox="0 0 139.8 269.4" style="enable-background:new 0 0 139.8 269.4;" xml:space="preserve">
<style type="text/css">
	.st0{fill:#FBE5A9;}
	.st1{fill:#1E0E01;}
</style>
<g id="Слой_2">
	<path class="st0" d="M138.6,245.9h-6.2v-6.2c0,0,0-0.1,0-0.1c0,0,0-0.1,0-0.1v-7c0,0,0-0.1,0-0.1c0,0,0-0.1,0-0.1v-7
		c0-0.1,0-0.1,0-0.1c0,0,0-0.1,0-0.2v-7c0-0.1,0-0.1,0-0.2c0,0,0-0.1,0-0.2v-7c0-0.6-0.4-1-1-1h-6.3v-6.2c0-0.6-0.4-1-1-1h-6.3v-5.5
		h6.4c0.6,0,1-0.4,1-1v-7c0-0.1,0-0.1,0-0.2c0,0,0-0.1,0-0.1v-7c0,0,0-0.1,0-0.1c0,0,0-0.1,0-0.1v-7c0-0.1,0-0.1,0-0.2
		c0,0,0-0.1,0-0.1v-7c0-0.1,0-0.1,0-0.2c0,0,0-0.1,0-0.1v-7c0,0,0-0.1,0-0.1c0,0,0-0.1,0-0.1v-7c0-0.1,0-0.1,0-0.2c0,0,0-0.1,0-0.1
		v-7c0-0.6-0.4-1-1-1h-6.3V138c0,0,0-0.1,0-0.1c0,0,0-0.1,0-0.1v-7c0-0.6-0.4-1-1-1h-6.3v-6.3c0-0.6-0.4-1-1-1h-7c0,0-0.1,0-0.1,0
		c0,0-0.1,0-0.1,0h-6.3v-6.2c0-0.6-0.4-1-1-1h-7c0,0-0.1,0-0.1,0c0,0-0.1,0-0.1,0h-6.3v-6.3c0-0.1,0-0.1,0-0.1c0,0,0-0.1,0-0.1v-7
		c0-0.6-0.4-1-1-1h-7c-0.1,0-0.1,0-0.2,0c0,0-0.1,0-0.1,0h-7c0,0-0.1,0-0.1,0c0,0-0.1,0-0.1,0h-7c-0.6,0-1,0.4-1,1v7
		c0,0.1,0,0.1,0,0.1c0,0,0,0.1,0,0.1v6.3h-6.3c0,0-0.1,0-0.1,0c0,0-0.1,0-0.1,0h-7c-0.6,0-1,0.4-1,1v6.2h-6.3c-0.1,0-0.1,0-0.2,0
		c0,0-0.1,0-0.2,0h-7c-0.6,0-1,0.4-1,1v6.3h-6.2c-0.6,0-1,0.4-1,1v7c0,0,0,0.1,0,0.1c0,0,0,0.1,0,0.1v6.3h-6.3c-0.6,0-1,0.4-1,1v7
		c0,0.1,0,0.1,0,0.1c0,0,0,0.1,0,0.2v7c0,0,0,0.1,0,0.1c0,0,0,0.1,0,0.1v7c0,0.1,0,0.1,0,0.1c0,0,0,0.1,0,0.2v7c0,0.1,0,0.1,0,0.1
		c0,0,0,0.1,0,0.2v7c0,0,0,0.1,0,0.1c0,0,0,0.1,0,0.1v7c0,0.1,0,0.1,0,0.1c0,0,0,0.1,0,0.2v7c0,0.6,0.4,1,1,1h6.3v5.5h-6.3
		c-0.6,0-1,0.4-1,1v6.2H8.2c-0.6,0-1,0.4-1,1v7c0,0.1,0,0.1,0,0.2c0,0,0,0.1,0,0.2v7c0,0.1,0,0.1,0,0.2c0,0,0,0.1,0,0.1v7
		c0,0,0,0.1,0,0.1c0,0,0,0.1,0,0.1v7c0,0,0,0.1,0,0.1c0,0,0,0.1,0,0.1v6.2H1c-0.6,0-1,0.4-1,1v7c0,0.1,0,0.1,0,0.2c0,0,0,0.1,0,0.1
		v7c0,0.1,0,0.1,0,0.2c0,0,0,0.1,0,0.1v7c0,0.6,0.4,1,1,1h7c0.6,0,1-0.4,1-1v-6.3h6.2c0.1,0,0.1,0,0.2,0c0,0,0.1,0,0.1,0h6.3v6.3
		c0,0.6,0.4,1,1,1h7c0.1,0,0.2,0,0.3,0H37c0.1,0,0.1,0,0.2,0c0,0,0.1,0,0.2,0h7c0.1,0,0.1,0,0.1,0c0,0,0.1,0,0.2,0h7
		c0,0,0.1,0,0.1,0c0,0,0.1,0,0.1,0h7c0.1,0,0.1,0,0.1,0c0,0,0.1,0,0.2,0h7c0,0,0.1,0,0.1,0c0,0,0.1,0,0.1,0h7c0.1,0,0.1,0,0.1,0
		c0,0,0.1,0,0.2,0h7c0.1,0,0.1,0,0.1,0c0,0,0.1,0,0.2,0h7c0,0,0.1,0,0.1,0c0,0,0.1,0,0.1,0h7c0.1,0,0.1,0,0.1,0c0,0,0.1,0,0.2,0h7
		c0,0,0.1,0,0.1,0c0,0,0.1,0,0.1,0h6.9c0.1,0,0.2,0,0.3,0h7c0.6,0,1-0.4,1-1v-6.3h6.3c0.1,0,0.1,0,0.1,0c0,0,0.1,0,0.2,0h6.2v6.3
		c0,0.6,0.4,1,1,1h7c0.6,0,1-0.4,1-1v-7c0-0.1,0-0.1,0-0.1c0,0,0-0.1,0-0.2v-7c0-0.1,0-0.1,0-0.1c0,0,0-0.1,0-0.2v-7
		C139.6,246.3,139.2,245.9,138.6,245.9z"/>
</g>
<g id="Слой_1">
	<path class="st1" d="M15.5,145.3h7v7h-7V145.3z M22.8,130.8h7v7h-7V130.8z M22.8,138h7v7h-7V138z M22.8,145.3h7v7h-7V145.3z
		 M30,123.5h7v7h-7L30,123.5z M30,130.8h7v7h-7L30,130.8z M30,138h7v7h-7L30,138z M30,145.3h7v7h-7L30,145.3z M37.3,123.5h7v7h-7
		V123.5z M37.3,130.8h7v7h-7V130.8z M37.3,138h7v7h-7V138z M44.6,116.3h7v7h-7V116.3z M44.6,123.5h7v7h-7V123.5z M44.6,130.8h7v7h-7
		V130.8z M44.6,138h7v7h-7V138z M51.8,116.3h7v7h-7V116.3z M51.8,123.5h7v7h-7V123.5z M51.8,130.8h7v7h-7V130.8z M51.8,138h7v7h-7
		V138z M59.1,116.3h7v7h-7L59.1,116.3z M59.1,123.5h7v7h-7L59.1,123.5z M59.1,130.8h7v7h-7L59.1,130.8z M59.1,138h7v7h-7L59.1,138z
		 M59.1,145.3h7v7h-7L59.1,145.3z M66.3,116.3h7v7h-7V116.3z M66.3,123.5h7v7h-7V123.5z M66.3,130.8h7v7h-7V130.8z M66.3,138h7v7h-7
		V138z M66.3,145.3h7v7h-7V145.3z M15.5,152.6h7v7h-7V152.6z M15.5,159.8h7v7h-7V159.8z M15.5,167.1h7v7h-7V167.1z M15.5,174.4h7v7
		h-7V174.4z M15.5,181.6h7v7h-7V181.6z M15.5,188.9h7v7h-7V188.9z M22.8,152.6h7v7h-7V152.6z M22.8,159.8h7v7h-7V159.8z M22.8,167.1
		h7v7h-7V167.1z M22.8,174.4h7v7h-7V174.4z M22.8,181.6h7v7h-7V181.6z M22.8,188.9h7v7h-7V188.9z M22.8,196h7v7h-7V196z M30,152.6h7
		v7h-7L30,152.6z M30,159.8h7v7h-7L30,159.8z M30,167.1h7v7h-7L30,167.1z M30,174.4h7v7h-7L30,174.4z M30,181.6h7v7h-7L30,181.6z
		 M30,188.9h7v7h-7L30,188.9z M30,203.3h7v7h-7L30,203.3z M37.3,152.6h7v7h-7V152.6z M37.3,167.1h7v7h-7V167.1z M37.3,181.6h7v7h-7
		V181.6z M37.3,188.9h7v7h-7V188.9z M37.3,203.3h7v7h-7V203.3z M44.6,152.6h7v7h-7V152.6z M44.6,167.1h7v7h-7V167.1z M44.6,181.6h7
		v7h-7V181.6z M44.6,188.9h7v7h-7V188.9z M44.6,196h7v7h-7V196z M44.6,203.3h7v7h-7V203.3z M51.8,152.6h7v7h-7V152.6z M51.8,159.8h7
		v7h-7V159.8z M51.8,167.1h7v7h-7V167.1z M51.8,181.6h7v7h-7V181.6z M51.8,188.9h7v7h-7V188.9z M51.8,196h7v7h-7V196z M51.8,203.3h7
		v7h-7V203.3z M59.1,174.4h7v7h-7L59.1,174.4z M59.1,181.6h7v7h-7L59.1,181.6z M59.1,188.9h7v7h-7L59.1,188.9z M59.1,196h7v7h-7
		L59.1,196z M59.1,203.3h7v7h-7L59.1,203.3z M66.3,152.6h7v7h-7V152.6z M66.3,159.8h7v7h-7V159.8z M66.3,167.1h7v7h-7V167.1z
		 M66.3,174.4h7v7h-7V174.4z M66.3,181.6h7v7h-7V181.6z M66.3,188.9h7v7h-7V188.9z M66.3,196h7v7h-7V196z M66.3,203.3h7v7h-7V203.3z
		 M15.5,203.4h7v7h-7V203.4z M15.5,210.6h7v7h-7V210.6z M15.5,217.9h7v7h-7V217.9z M15.5,225.2h7v7h-7V225.2z M15.5,246.9h7v7h-7
		V246.9z M15.5,254.2h7v7h-7V254.2z M22.8,210.6h7v7h-7V210.6z M22.8,217.8h7v7h-7V217.8z M22.8,225.1h7v7h-7V225.1z M22.8,246.9h7
		v7h-7V246.9z M22.8,254.2h7v7h-7V254.2z M30,210.6h7v7h-7L30,210.6z M30,217.8h7v7h-7L30,217.8z M30,225.1h7v7h-7L30,225.1z
		 M30,232.4h7v7h-7L30,232.4z M30,239.7h7v7h-7L30,239.7z M37.3,210.6h7v7h-7V210.6z M37.3,217.8h7v7h-7V217.8z M37.3,225.1h7v7h-7
		V225.1z M37.3,239.7h7v7h-7V239.7z M44.6,210.6h7v7h-7V210.6z M44.6,225.1h7v7h-7V225.1z M44.6,232.4h7v7h-7V232.4z M51.8,210.6h7
		v7h-7V210.6z M51.8,217.8h7v7h-7V217.8z M51.8,225.1h7v7h-7V225.1z M51.8,232.4h7v7h-7V232.4z M51.8,239.7h7v7h-7V239.7z
		 M59.1,210.6h7v7h-7L59.1,210.6z M59.1,217.8h7v7h-7L59.1,217.8z M59.1,239.7h7v7h-7L59.1,239.7z M66.3,210.6h7v7h-7V210.6z
		 M66.3,217.8h7v7h-7V217.8z M66.3,225.1h7v7h-7V225.1z M66.3,232.4h7v7h-7V232.4z M66.3,239.7h7v7h-7V239.7z M22.8,261.5h7v7h-7
		V261.5z M73.6,116.3h7v7h-7V116.3z M73.6,123.5h7v7h-7V123.5z M73.6,130.8h7v7h-7V130.8z M73.6,138h7v7h-7V138z M73.6,145.3h7v7h-7
		V145.3z M59.1,101.6h7v7h-7L59.1,101.6z M59.1,108.9h7v7h-7L59.1,108.9z M80.9,116.3h7v7h-7V116.3z M80.9,123.5h7v7h-7V123.5z
		 M80.9,130.8h7v7h-7V130.8z M80.9,138h7v7h-7V138z M80.9,145.3h7v7h-7V145.3z M66.3,101.6h7v7h-7V101.6z M66.3,108.9h7v7h-7V108.9z
		 M88.1,116.3h7v7h-7V116.3z M88.1,123.5h7v7h-7V123.5z M88.1,130.8h7v7h-7V130.8z M88.1,138h7v7h-7V138z M73.6,101.6h7v7h-7V101.6z
		 M73.6,108.9h7v7h-7V108.9z M95.4,123.5h7v7h-7V123.5z M95.4,130.8h7v7h-7V130.8z M95.4,138h7v7h-7V138z M102.6,123.5h7v7h-7V123.5
		z M102.6,130.8h7v7h-7V130.8z M102.6,138h7v7h-7V138z M109.9,130.8h7v7h-7V130.8z M109.9,138h7v7h-7V138z M109.9,145.3h7v7h-7
		V145.3z M117.2,145.3h7v7h-7V145.3z M73.6,152.6h7v7h-7V152.6z M73.6,159.8h7v7h-7V159.8z M73.6,167.1h7v7h-7V167.1z M73.6,174.4h7
		v7h-7V174.4z M73.6,181.6h7v7h-7V181.6z M73.6,188.9h7v7h-7V188.9z M73.6,196h7v7h-7V196z M73.6,203.3h7v7h-7V203.3z M80.9,152.6h7
		v7h-7V152.6z M80.9,159.8h7v7h-7V159.8z M80.9,167.1h7v7h-7V167.1z M80.9,174.4h7v7h-7V174.4z M80.9,181.6h7v7h-7V181.6z
		 M80.9,188.9h7v7h-7V188.9z M80.9,196h7v7h-7V196z M80.9,203.3h7v7h-7V203.3z M88.1,152.6h7v7h-7V152.6z M88.1,167.1h7v7h-7V167.1z
		 M88.1,181.6h7v7h-7V181.6z M88.1,188.9h7v7h-7V188.9z M88.1,196h7v7h-7V196z M88.1,203.3h7v7h-7V203.3z M95.4,152.6h7v7h-7V152.6z
		 M95.4,167.1h7v7h-7V167.1z M95.4,181.6h7v7h-7V181.6z M95.4,188.9h7v7h-7V188.9z M95.4,203.3h7v7h-7V203.3z M102.6,152.6h7v7h-7
		V152.6z M102.6,159.8h7v7h-7V159.8z M102.6,167.1h7v7h-7V167.1z M102.6,181.6h7v7h-7V181.6z M102.6,188.9h7v7h-7V188.9z
		 M102.6,203.3h7v7h-7V203.3z M109.9,174.4h7v7h-7V174.4z M109.9,181.6h7v7h-7V181.6z M109.9,188.9h7v7h-7V188.9z M117.2,152.6h7v7
		h-7V152.6z M117.2,159.8h7v7h-7V159.8z M117.2,167.1h7v7h-7V167.1z M117.2,174.4h7v7h-7V174.4z M117.2,181.6h7v7h-7V181.6z
		 M117.2,188.9h7v7h-7V188.9z M73.6,210.6h7v7h-7V210.6z M73.6,217.8h7v7h-7V217.8z M73.6,232.4h7v7h-7V232.4z M73.6,239.7h7v7h-7
		V239.7z M80.9,210.6h7v7h-7V210.6z M80.9,217.8h7v7h-7V217.8z M80.9,225.1h7v7h-7V225.1z M88.1,210.6h7v7h-7V210.6z M88.1,217.8h7
		v7h-7V217.8z M88.1,225.1h7v7h-7V225.1z M95.4,210.6h7v7h-7V210.6z M95.4,232.4h7v7h-7V232.4z M95.4,239.7h7v7h-7V239.7z
		 M102.6,210.6h7v7h-7V210.6z M102.6,217.8h7v7h-7V217.8z M102.6,225.1h7v7h-7V225.1z M102.6,232.4h7v7h-7V232.4z M102.6,239.7h7v7
		h-7V239.7z M30,246.9h7v7h-7L30,246.9z M44.6,246.9h7v7h-7V246.9z M51.8,246.9h7v7h-7V246.9z M59.1,246.9h7v7h-7L59.1,246.9z
		 M66.3,246.9h7v7h-7V246.9z M73.6,246.9h7v7h-7V246.9z M80.9,246.9h7v7h-7V246.9z M88.1,246.9h7v7h-7V246.9z M102.6,246.9h7v7h-7
		V246.9z M30,254.1h7v7h-7L30,254.1z M44.6,254.1h7v7h-7V254.1z M59.1,254.1h7v7h-7L59.1,254.1z M66.3,254.1h7v7h-7V254.1z
		 M73.6,254.1h7v7h-7V254.1z M80.9,254.1h7v7h-7V254.1z M102.6,254.1h7v7h-7V254.1z M30,261.4h7v7h-7L30,261.4z M37.3,261.4h7v7h-7
		V261.4z M44.6,261.4h7v7h-7V261.4z M51.8,261.4h7v7h-7V261.4z M59.1,261.4h7v7h-7L59.1,261.4z M66.3,261.4h7v7h-7V261.4z
		 M73.6,261.4h7v7h-7V261.4z M80.9,261.4h7v7h-7V261.4z M88.1,261.4h7v7h-7V261.4z M95.4,261.4h7v7h-7V261.4z M102.6,261.4h7v7h-7
		V261.4z M8.2,210.6h7v7h-7V210.6z M8.2,217.9h7v7h-7V217.9z M8.2,225.2h7v7h-7V225.2z M15.5,232.4h7v7h-7V232.4z M8.2,232.4h7v7h-7
		V232.4z M15.5,239.6h7v7h-7V239.6z M8.2,239.6h7v7h-7V239.6z M8.2,246.9h7v7h-7V246.9z M8.2,254.2h7v7h-7V254.2z M1,246.9h7v7H1
		L1,246.9z M1,254.2h7v7H1L1,254.2z M1,261.5h7v7H1L1,261.5z M116.8,203h-7v-7h7V203z M124.1,210.4h-7v-7h7V210.4z M124.1,217.6h-7
		v-7h7V217.6z M124.1,224.9h-7v-7h7V224.9z M124.1,232.2h-7v-7h7V232.2z M124.1,253.9h-7v-7h7V253.9z M124.1,261.2h-7v-7h7V261.2z
		 M116.8,217.6h-7v-7h7V217.6z M116.8,224.8h-7v-7h7V224.8z M116.8,232.1h-7v-7h7V232.1z M116.8,253.9h-7v-7h7V253.9z M116.8,261.2
		h-7v-7h7V261.2z M116.8,268.5h-7v-7h7V268.5z M131.4,217.6h-7v-7h7V217.6z M131.4,224.9h-7v-7h7V224.9z M131.4,232.2h-7v-7h7V232.2
		z M124.1,239.4h-7v-7h7V239.4z M131.4,239.4h-7v-7h7V239.4z M124.1,246.6h-7v-7h7V246.6z M131.4,246.6h-7v-7h7V246.6z M131.4,253.9
		h-7v-7h7V253.9z M131.4,261.2h-7v-7h7V261.2z M138.6,253.9h-7v-7h7V253.9z M138.6,261.2h-7v-7h7V261.2z M138.6,268.5h-7v-7h7V268.5
		z"/>
</g>
</svg>
