<?xml version="1.0" encoding="utf-8"?>
<!-- Generator: Adobe Illustrator 27.3.1, SVG Export Plug-In . SVG Version: 6.00 Build 0)  -->
<svg version="1.1" xmlns="http://www.w3.org/2000/svg" xmlns:xlink="http://www.w3.org/1999/xlink" x="0px" y="0px"
	 viewBox="0 0 139.8 269.4" style="enable-background:new 0 0 139.8 269.4;" xml:space="preserve">
<style type="text/css">
	.st0{fill:#FBE5A9;}
	.st1{fill:#1E0E01;}
</style>
<g id="Слой_2">
	<path class="st0" d="M138.6,245.8h-6.2v-6.2c0,0,0-0.1,0-0.1c0,0,0-0.1,0-0.1v-7c0,0,0-0.1,0-0.1c0,0,0-0.1,0-0.1v-7
		c0,0,0-0.1,0-0.1c0,0,0-0.1,0-0.1v-7c0-0.1,0-0.1,0-0.2c0,0,0-0.1,0-0.1v-7c0-0.1,0-0.1,0-0.2c0,0,0-0.1,0-0.2v-7c0-0.6-0.4-1-1-1
		h-6.3V196c0-0.1,0-0.1,0-0.2c0,0,0-0.1,0-0.2v-7c0-0.1,0-0.1,0-0.2c0,0,0-0.1,0-0.1v-7c0-0.6-0.4-1-1-1h-6.3V175h6.4
		c0.6,0,1-0.4,1-1v-7c0-0.1,0-0.1,0-0.2c0,0,0-0.1,0-0.2v-7c0,0,0-0.1,0-0.1c0,0,0-0.1,0-0.1v-7c0-0.1,0-0.1,0-0.2c0,0,0-0.1,0-0.2
		v-7c0-0.1,0-0.1,0-0.2c0,0,0-0.1,0-0.1v-7c0,0,0-0.1,0-0.1c0,0,0-0.1,0-0.1v-7c0-0.1,0-0.1,0-0.1c0,0,0-0.1,0-0.1v-7
		c0-0.6-0.4-1-1-1h-6.3v-6.3c0,0,0-0.1,0-0.1c0,0,0-0.1,0-0.1v-7c0-0.6-0.4-1-1-1h-6.3v-6.3c0-0.6-0.4-1-1-1h-7c0,0-0.1,0-0.1,0
		c0,0-0.1,0-0.1,0h-6.3v-6.2c0-0.6-0.4-1-1-1h-7c0,0-0.1,0-0.1,0c0,0-0.1,0-0.1,0h-6.3v-6.3c0-0.1,0-0.1,0-0.1c0,0,0-0.1,0-0.1v-7
		c0-0.6-0.4-1-1-1h-7c-0.1,0-0.1,0-0.1,0c0,0-0.1,0-0.2,0h-7c0,0-0.1,0-0.1,0c0,0-0.1,0-0.1,0h-7c-0.6,0-1,0.4-1,1v7
		c0,0.1,0,0.1,0,0.1c0,0,0,0.1,0,0.1v6.3h-6.3c0,0-0.1,0-0.1,0c0,0-0.1,0-0.1,0h-7c-0.6,0-1,0.4-1,1v6.2h-6.3c-0.1,0-0.1,0-0.2,0
		c0,0-0.1,0-0.2,0h-7c-0.6,0-1,0.4-1,1v6.3h-6.2c-0.6,0-1,0.4-1,1v7c0,0,0,0.1,0,0.1c0,0,0,0.1,0,0.1v6.3h-6.3c-0.6,0-1,0.4-1,1v7
		c0,0.1,0,0.1,0,0.1c0,0,0,0.1,0,0.1v7c0,0,0,0.1,0,0.1c0,0,0,0.1,0,0.1v7c0,0.1,0,0.1,0,0.1c0,0,0,0.1,0,0.2v7c0,0.1,0,0.1,0,0.2
		c0,0,0,0.1,0,0.2v7c0,0,0,0.1,0,0.1c0,0,0,0.1,0,0.1v7c0,0.1,0,0.1,0,0.2c0,0,0,0.1,0,0.2v7c0,0.6,0.4,1,1,1h6.3v5.4h-6.3
		c-0.6,0-1,0.4-1,1v7c0,0.1,0,0.1,0,0.1c0,0,0,0.1,0,0.2v7c0,0.1,0,0.1,0,0.2c0,0,0,0.1,0,0.2v6.2H8.2c-0.6,0-1,0.4-1,1v7
		c0,0.1,0,0.1,0,0.2c0,0,0,0.1,0,0.2v7c0,0.1,0,0.1,0,0.1c0,0,0,0.1,0,0.2v7c0,0,0,0.1,0,0.1c0,0,0,0.1,0,0.1v7c0,0,0,0.1,0,0.1
		c0,0,0,0.1,0,0.1v7c0,0,0,0.1,0,0.1c0,0,0,0.1,0,0.1v6.2H1c-0.6,0-1,0.4-1,1v7c0,0.1,0,0.1,0,0.2c0,0,0,0.1,0,0.2v7
		c0,0.1,0,0.1,0,0.2c0,0,0,0.1,0,0.1v7c0,0.6,0.4,1,1,1h7c0.6,0,1-0.4,1-1v-6.3h6.2c0.1,0,0.1,0,0.1,0c0,0,0.1,0,0.2,0h6.3v6.3
		c0,0.6,0.4,1,1,1h7c0.1,0,0.2,0,0.3,0H37c0.1,0,0.1,0,0.2,0c0,0,0.1,0,0.2,0h7c0.1,0,0.1,0,0.2,0c0,0,0.1,0,0.1,0h7
		c0,0,0.1,0,0.1,0c0,0,0.1,0,0.1,0h7c0.1,0,0.1,0,0.2,0c0,0,0.1,0,0.1,0h7c0,0,0.1,0,0.1,0c0,0,0.1,0,0.1,0h7c0.1,0,0.1,0,0.2,0
		c0,0,0.1,0,0.1,0h7c0.1,0,0.1,0,0.2,0c0,0,0.1,0,0.1,0h7c0,0,0.1,0,0.1,0c0,0,0.1,0,0.1,0h7c0.1,0,0.1,0,0.2,0c0,0,0.1,0,0.1,0h7
		c0,0,0.1,0,0.1,0c0,0,0.1,0,0.1,0h6.9c0.1,0,0.2,0,0.3,0h7c0.6,0,1-0.4,1-1v-6.3h6.3c0.1,0,0.1,0,0.2,0c0,0,0.1,0,0.1,0h6.2v6.3
		c0,0.6,0.4,1,1,1h7c0.6,0,1-0.4,1-1v-7c0-0.1,0-0.1,0-0.1c0,0,0-0.1,0-0.2v-7c0-0.1,0-0.1,0-0.2c0,0,0-0.1,0-0.2v-7
		C139.6,246.2,139.2,245.8,138.6,245.8z"/>
</g>
<g id="Слой_1">
	<path class="st1" d="M15.5,123.4h7v7h-7V123.4z M22.8,108.9h7v7h-7V108.9z M22.8,116.1h7v7h-7V116.1z M22.8,123.4h7v7h-7V123.4z
		 M30,101.6h7v7h-7L30,101.6z M30,108.9h7v7h-7L30,108.9z M30,116.1h7v7h-7L30,116.1z M30,123.4h7v7h-7L30,123.4z M37.3,101.6h7v7
		h-7V101.6z M37.3,108.9h7v7h-7V108.9z M37.3,116.1h7v7h-7V116.1z M44.6,94.4h7v7h-7V94.4z M44.6,101.6h7v7h-7V101.6z M44.6,108.9h7
		v7h-7V108.9z M44.6,116.1h7v7h-7V116.1z M51.8,94.4h7v7h-7V94.4z M51.8,101.6h7v7h-7V101.6z M51.8,108.9h7v7h-7V108.9z M51.8,116.1
		h7v7h-7V116.1z M59.1,94.4h7v7h-7L59.1,94.4z M59.1,101.6h7v7h-7L59.1,101.6z M59.1,108.9h7v7h-7L59.1,108.9z M59.1,116.1h7v7h-7
		L59.1,116.1z M59.1,123.4h7v7h-7L59.1,123.4z M66.3,94.4h7v7h-7V94.4z M66.3,101.6h7v7h-7V101.6z M66.3,108.9h7v7h-7V108.9z
		 M66.3,116.1h7v7h-7V116.1z M66.3,123.4h7v7h-7V123.4z M15.5,130.7h7v7h-7V130.7z M15.5,137.9h7v7h-7V137.9z M15.5,145.2h7v7h-7
		V145.2z M15.5,152.5h7v7h-7V152.5z M15.5,159.7h7v7h-7V159.7z M15.5,167h7v7h-7V167z M15.5,181.4h7v7h-7V181.4z M15.5,188.7h7v7h-7
		V188.7z M22.8,130.7h7v7h-7V130.7z M22.8,137.9h7v7h-7V137.9z M22.8,145.2h7v7h-7V145.2z M22.8,152.5h7v7h-7V152.5z M22.8,159.7h7
		v7h-7V159.7z M22.8,167h7v7h-7V167z M22.8,174.2h7v7h-7V174.2z M22.8,181.4h7v7h-7V181.4z M30,130.7h7v7h-7L30,130.7z M30,137.9h7
		v7h-7L30,137.9z M30,145.2h7v7h-7L30,145.2z M30,152.5h7v7h-7L30,152.5z M30,159.7h7v7h-7L30,159.7z M30,167h7v7h-7L30,167z
		 M30,174.2h7v7h-7L30,174.2z M30,188.7h7v7h-7L30,188.7z M37.3,130.7h7v7h-7V130.7z M37.3,145.2h7v7h-7V145.2z M37.3,159.7h7v7h-7
		V159.7z M37.3,167h7v7h-7V167z M37.3,174.2h7v7h-7V174.2z M37.3,188.7h7v7h-7V188.7z M44.6,130.7h7v7h-7V130.7z M44.6,145.2h7v7h-7
		V145.2z M44.6,159.7h7v7h-7V159.7z M44.6,167h7v7h-7V167z M44.6,181.4h7v7h-7V181.4z M44.6,188.7h7v7h-7V188.7z M51.8,130.7h7v7h-7
		V130.7z M51.8,137.9h7v7h-7V137.9z M51.8,145.2h7v7h-7V145.2z M51.8,159.7h7v7h-7V159.7z M51.8,167h7v7h-7V167z M51.8,174.2h7v7h-7
		V174.2z M51.8,181.4h7v7h-7V181.4z M51.8,188.7h7v7h-7V188.7z M59.1,152.5h7v7h-7L59.1,152.5z M59.1,159.7h7v7h-7L59.1,159.7z
		 M59.1,167h7v7h-7L59.1,167z M59.1,174.2h7v7h-7L59.1,174.2z M59.1,181.4h7v7h-7L59.1,181.4z M59.1,188.7h7v7h-7L59.1,188.7z
		 M66.3,130.7h7v7h-7V130.7z M66.3,137.9h7v7h-7V137.9z M66.3,145.2h7v7h-7V145.2z M66.3,152.5h7v7h-7V152.5z M66.3,159.7h7v7h-7
		V159.7z M66.3,167h7v7h-7V167z M66.3,174.2h7v7h-7V174.2z M66.3,181.4h7v7h-7V181.4z M66.3,188.7h7v7h-7V188.7z M15.5,196h7v7h-7
		V196z M15.5,203.2h7v7h-7V203.2z M15.5,210.5h7v7h-7V210.5z M15.5,217.8h7v7h-7V217.8z M15.5,225h7v7h-7V225z M15.5,246.8h7v7h-7
		V246.8z M15.5,254.1h7v7h-7V254.1z M22.8,196h7v7h-7V196z M22.8,203.2h7v7h-7V203.2z M22.8,210.5h7v7h-7V210.5z M22.8,246.8h7v7h-7
		V246.8z M22.8,254.1h7v7h-7V254.1z M30,196h7v7h-7L30,196z M30,203.2h7v7h-7L30,203.2z M30,210.5h7v7h-7L30,210.5z M30,217.8h7v7
		h-7L30,217.8z M30,225h7v7h-7L30,225z M30,232.3h7v7h-7L30,232.3z M37.3,196h7v7h-7V196z M37.3,203.2h7v7h-7V203.2z M37.3,210.5h7
		v7h-7V210.5z M37.3,225h7v7h-7V225z M37.3,232.3h7v7h-7V232.3z M44.6,196h7v7h-7V196z M44.6,210.5h7v7h-7V210.5z M44.6,217.8h7v7
		h-7V217.8z M44.6,225h7v7h-7V225z M51.8,196h7v7h-7V196z M51.8,203.2h7v7h-7V203.2z M51.8,210.5h7v7h-7V210.5z M51.8,217.8h7v7h-7
		V217.8z M51.8,232.3h7v7h-7V232.3z M59.1,196h7v7h-7L59.1,196z M59.1,203.2h7v7h-7L59.1,203.2z M59.1,225h7v7h-7L59.1,225z
		 M59.1,232.3h7v7h-7L59.1,232.3z M66.3,196h7v7h-7V196z M66.3,203.2h7v7h-7V203.2z M66.3,210.5h7v7h-7V210.5z M66.3,217.8h7v7h-7
		V217.8z M66.3,225h7v7h-7V225z M66.3,232.3h7v7h-7V232.3z M22.8,261.4h7v7h-7V261.4z M73.6,94.4h7v7h-7V94.4z M73.6,101.6h7v7h-7
		V101.6z M73.6,108.9h7v7h-7V108.9z M73.6,116.1h7v7h-7V116.1z M73.6,123.4h7v7h-7V123.4z M59.1,79.8h7v7h-7L59.1,79.8z M59.1,87.1
		h7v7h-7L59.1,87.1z M80.9,94.4h7v7h-7V94.4z M80.9,101.6h7v7h-7V101.6z M80.9,108.9h7v7h-7V108.9z M80.9,116.1h7v7h-7V116.1z
		 M80.9,123.4h7v7h-7V123.4z M66.3,79.8h7v7h-7V79.8z M66.3,87.1h7v7h-7V87.1z M88.1,94.4h7v7h-7V94.4z M88.1,101.6h7v7h-7V101.6z
		 M88.1,108.9h7v7h-7V108.9z M88.1,116.1h7v7h-7V116.1z M73.6,79.8h7v7h-7V79.8z M73.6,87.1h7v7h-7V87.1z M95.4,101.6h7v7h-7V101.6z
		 M95.4,108.9h7v7h-7V108.9z M95.4,116.1h7v7h-7V116.1z M102.6,101.6h7v7h-7V101.6z M102.6,108.9h7v7h-7V108.9z M102.6,116.1h7v7h-7
		V116.1z M109.9,108.9h7v7h-7V108.9z M109.9,116.1h7v7h-7V116.1z M109.9,123.4h7v7h-7V123.4z M117.2,123.4h7v7h-7V123.4z
		 M73.6,130.7h7v7h-7V130.7z M73.6,137.9h7v7h-7V137.9z M73.6,145.2h7v7h-7V145.2z M73.6,152.5h7v7h-7V152.5z M73.6,159.7h7v7h-7
		V159.7z M73.6,167h7v7h-7V167z M73.6,174.2h7v7h-7V174.2z M73.6,181.4h7v7h-7V181.4z M73.6,188.7h7v7h-7V188.7z M80.9,130.7h7v7h-7
		V130.7z M80.9,137.9h7v7h-7V137.9z M80.9,145.2h7v7h-7V145.2z M80.9,152.5h7v7h-7V152.5z M80.9,159.7h7v7h-7V159.7z M80.9,167h7v7
		h-7V167z M80.9,174.2h7v7h-7V174.2z M80.9,181.4h7v7h-7V181.4z M80.9,188.7h7v7h-7V188.7z M88.1,130.7h7v7h-7V130.7z M88.1,145.2h7
		v7h-7V145.2z M88.1,159.7h7v7h-7V159.7z M88.1,167h7v7h-7V167z M88.1,181.4h7v7h-7V181.4z M88.1,188.7h7v7h-7V188.7z M95.4,130.7h7
		v7h-7V130.7z M95.4,145.2h7v7h-7V145.2z M95.4,159.7h7v7h-7V159.7z M95.4,167h7v7h-7V167z M95.4,174.2h7v7h-7V174.2z M95.4,188.7h7
		v7h-7V188.7z M102.6,130.7h7v7h-7V130.7z M102.6,137.9h7v7h-7V137.9z M102.6,145.2h7v7h-7V145.2z M102.6,159.7h7v7h-7V159.7z
		 M102.6,167h7v7h-7V167z M102.6,174.2h7v7h-7V174.2z M102.6,188.7h7v7h-7V188.7z M109.9,152.5h7v7h-7V152.5z M109.9,159.7h7v7h-7
		V159.7z M109.9,167h7v7h-7V167z M117.2,130.7h7v7h-7V130.7z M117.2,137.9h7v7h-7V137.9z M117.2,145.2h7v7h-7V145.2z M117.2,152.5h7
		v7h-7V152.5z M117.2,159.7h7v7h-7V159.7z M117.2,167h7v7h-7V167z M73.6,196h7v7h-7V196z M73.6,203.2h7v7h-7V203.2z M73.6,217.8h7v7
		h-7V217.8z M73.6,225h7v7h-7V225z M73.6,232.3h7v7h-7V232.3z M80.9,196h7v7h-7V196z M80.9,203.2h7v7h-7V203.2z M80.9,210.5h7v7h-7
		V210.5z M80.9,225h7v7h-7V225z M88.1,196h7v7h-7V196z M88.1,203.2h7v7h-7V203.2z M88.1,210.5h7v7h-7V210.5z M88.1,225h7v7h-7V225z
		 M95.4,196h7v7h-7V196z M95.4,217.8h7v7h-7V217.8z M95.4,232.3h7v7h-7V232.3z M102.6,196h7v7h-7V196z M102.6,203.2h7v7h-7V203.2z
		 M102.6,210.5h7v7h-7V210.5z M102.6,217.8h7v7h-7V217.8z M102.6,225h7v7h-7V225z M102.6,232.3h7v7h-7V232.3z M30,239.5h7v7h-7
		L30,239.5z M44.6,239.5h7v7h-7V239.5z M51.8,239.5h7v7h-7V239.5z M59.1,239.5h7v7h-7L59.1,239.5z M66.3,239.5h7v7h-7V239.5z
		 M73.6,239.5h7v7h-7V239.5z M80.9,239.5h7v7h-7V239.5z M88.1,239.5h7v7h-7V239.5z M102.6,239.5h7v7h-7V239.5z M30,246.8h7v7h-7
		L30,246.8z M37.3,246.8h7v7h-7V246.8z M51.8,246.8h7v7h-7V246.8z M59.1,246.8h7v7h-7L59.1,246.8z M66.3,246.8h7v7h-7V246.8z
		 M73.6,246.8h7v7h-7V246.8z M88.1,246.8h7v7h-7V246.8z M95.4,246.8h7v7h-7V246.8z M102.6,246.8h7v7h-7V246.8z M30,254h7v7h-7
		L30,254z M44.6,254h7v7h-7V254z M59.1,254h7v7h-7L59.1,254z M66.3,254h7v7h-7V254z M73.6,254h7v7h-7V254z M80.9,254h7v7h-7V254z
		 M102.6,254h7v7h-7V254z M30,261.3h7v7h-7L30,261.3z M37.3,261.3h7v7h-7V261.3z M44.6,261.3h7v7h-7V261.3z M51.8,261.3h7v7h-7
		V261.3z M59.1,261.3h7v7h-7L59.1,261.3z M66.3,261.3h7v7h-7V261.3z M73.6,261.3h7v7h-7V261.3z M80.9,261.3h7v7h-7V261.3z
		 M88.1,261.3h7v7h-7V261.3z M95.4,261.3h7v7h-7V261.3z M102.6,261.3h7v7h-7V261.3z M8.2,203.2h7v7h-7V203.2z M8.2,210.5h7v7h-7
		V210.5z M8.2,217.8h7v7h-7V217.8z M8.2,225h7v7h-7V225z M15.5,232.3h7v7h-7V232.3z M8.2,232.3h7v7h-7V232.3z M15.5,239.6h7v7h-7
		V239.6z M8.2,239.6h7v7h-7V239.6z M8.2,246.8h7v7h-7V246.8z M8.2,254.1h7v7h-7V254.1z M1,246.8h7v7H1L1,246.8z M1,254.1h7v7H1
		L1,254.1z M1,261.4h7v7H1L1,261.4z M124.1,188.4h-7v-7h7V188.4z M124.1,195.7h-7v-7h7V195.7z M116.8,181.2h-7v-7h7V181.2z
		 M116.8,188.4h-7v-7h7V188.4z M124.1,203h-7v-7h7V203z M124.1,210.2h-7v-7h7V210.2z M124.1,217.5h-7v-7h7V217.5z M124.1,224.8h-7
		v-7h7V224.8z M124.1,232h-7v-7h7V232z M124.1,253.8h-7v-7h7V253.8z M124.1,261.1h-7v-7h7V261.1z M116.8,203h-7v-7h7V203z
		 M116.8,210.2h-7v-7h7V210.2z M116.8,217.5h-7v-7h7V217.5z M116.8,253.8h-7v-7h7V253.8z M116.8,261.1h-7v-7h7V261.1z M116.8,268.4
		h-7v-7h7V268.4z M131.4,210.2h-7v-7h7V210.2z M131.4,217.5h-7v-7h7V217.5z M131.4,224.8h-7v-7h7V224.8z M131.4,232h-7v-7h7V232z
		 M124.1,239.3h-7v-7h7V239.3z M131.4,239.3h-7v-7h7V239.3z M124.1,246.6h-7v-7h7V246.6z M131.4,246.6h-7v-7h7V246.6z M131.4,253.8
		h-7v-7h7V253.8z M131.4,261.1h-7v-7h7V261.1z M138.6,253.8h-7v-7h7V253.8z M138.6,261.1h-7v-7h7V261.1z M138.6,268.4h-7v-7h7V268.4
		z"/>
</g>
</svg>
